<svg width="247" height="243" viewBox="0 0 247 243" fill="none" xmlns="http://www.w3.org/2000/svg">
<path d="M99.6398 228.772C106.2 209.622 107.31 207.412 111.58 222.982C110.34 205.232 117.3 193.522 136.84 201.272C120.23 191.042 121.24 188.512 137.5 178.522C126.14 183.232 130.05 180.472 139.21 174.482C134.94 176.332 135.94 174.942 139.05 172.162C139.82 171.122 142.7 168.692 145.64 166.202C149.56 162.892 153.59 159.482 157.58 156.112C161.58 152.732 165.54 149.382 164.77 152.522C173.08 143.002 176.68 139.962 187.18 139.462C183.21 134.432 225.02 117.772 233.83 112.412C193.74 127.282 230.08 108.172 233.69 105.602C232.83 105.832 218.94 113.882 232.2 104.622C231.25 105.242 189.54 131.252 228.54 103.522C223.56 106.512 221.41 106.872 223.97 102.102C217.46 108.782 215.67 110.332 219.63 105.252C212.28 110.892 204.91 120.742 208.77 100.982C209.31 110.522 174.7 130.032 173.03 126.632C173.48 130.252 178.16 125.232 172.3 117.842C176.91 125.612 176.9 127.412 168.88 128.152C175.11 127.672 173.6 126.112 166.38 121.442C172.93 126.272 173.76 127.992 167 129.522C174.41 128.212 173.06 126.702 164.94 122.932C170.83 126.842 164.03 132.082 155.95 134.812C163.08 132.192 168.92 127.072 162.87 124.592C169.18 127.122 163.59 132.292 156.43 134.902C163.23 132.632 168.45 127.812 162.04 125.992C167.52 127.982 161.36 132.982 155.07 135.192C161.91 133.642 168.62 129.322 162.44 127.812C170.62 129.692 165.9 134.392 158.3 136.322C165.71 134.422 170.23 129.762 162.14 128.032C167.88 129.372 161.01 133.652 154.67 135.062C160.35 133.002 166.56 128.082 161.6 126.372C167.74 127.942 162.72 132.712 156.34 134.922C162.97 132.412 168.25 127.322 162.17 125.242C167.51 127.262 161.49 132.292 155.19 134.732C162.48 132.212 169.5 127.102 164 123.852C172.19 127.032 173.81 128.472 166.62 129.862C173.32 128.492 171.26 127.102 163.49 124.292C169.01 127.262 162.91 132.412 156.38 134.922C162.54 132.722 167.14 127.952 161.1 126.572C164.98 127.962 158.23 132.742 153.67 134.492C158.11 133.482 158.81 133.032 154.73 132.472C152.11 131.982 187.18 126.772 156.56 136.612C160.63 134.962 159.01 136.112 154.23 138.092C159.04 138.432 159.47 139.292 155.11 141.562C160.97 141.242 162.03 142.332 157.86 146.642C160.24 141.772 157.87 140.372 153.84 140.322C157.14 138.922 158.76 138.882 156.65 141.822C158.63 138.372 155.08 137.352 151.75 136.902C151.25 136.372 150.97 136.412 151.42 137.122C154.06 137.742 157.43 139.042 156.59 143.282C157.96 139.772 154.24 138.902 150.87 138.682C148.68 138.352 146.85 138.672 145.77 139.782C143.62 142.012 144.48 147.402 146.85 157.492C139.7 142.012 138.56 145.362 136.26 159.312C138.24 144.002 138.9 140.142 139.83 158.572C139.2 136.192 138.84 136.082 132.94 157.852C136.83 139.502 135.18 143.032 128.96 157.462C135.18 143.022 136.78 139.482 130.47 157.102C138.06 135.712 131.61 149.842 117.54 167.712C128.76 152.582 126.24 155.552 116.04 167.652C125.79 154.912 133.98 136.972 114.31 137.802C121.27 135.732 125.81 134.152 128.19 132.562C130.57 130.972 130.78 129.342 128.57 128.762C127.97 126.902 126.77 125.302 124.91 123.972C122.91 122.412 120.26 121.132 117.55 122.182C120.3 121.332 122.46 122.482 123.68 123.792C124.56 124.542 124.5 125.452 123.58 126.382C123.56 125.792 122.67 125.232 121.32 124.942C119.67 124.012 117.56 123.352 115.42 124.142C117.2 122.862 118.96 123.022 120.47 123.992C121.31 123.462 121.89 123.742 121.82 124.602C123.02 122.672 123.56 121.322 123.65 121.242C122.32 119.052 120.53 118.132 118.5 120.372C121.24 117.552 123.73 117.892 125.67 119.722C125.98 119.632 125.74 121.042 124.41 123.552C126.17 120.472 126.84 118.512 126.94 118.242C125.08 116.012 122.63 115.492 120.09 118.722C122.75 115.372 124.5 114.702 126.07 115.882C123.54 113.342 120.83 112.642 118.62 116.502C120.52 112.282 122.95 112.642 125.9 115.692C124.51 114.822 123.65 116.662 122.16 121.042C124.17 117.192 125.54 115.902 126.68 116.772C124.72 114.772 122.53 114.932 120.15 118.722C122.51 115.312 124.67 115.522 126.46 117.702C125.67 117.312 124.5 118.872 122.54 122.282C123.71 118.982 124.08 117.522 124.61 118.442C122.22 115.912 119.98 115.772 117.91 119.532C119.86 115.602 121.99 115.582 124.39 118.132C123.57 116.872 123.03 118.172 121.85 121.732C123.74 117.972 125.01 116.472 126.16 117.212C124.23 114.922 122.19 114.872 120.06 118.612C122.84 115.212 124.68 114.542 126.29 115.642C123.73 113.082 120.95 112.282 118.67 116.002C120.6 111.502 122.49 110.972 125.54 112.852C122.07 109.932 119.75 109.432 118.4 113.152C118.74 108.002 120.11 107.182 124.25 108.652C119.63 105.752 117.77 105.142 117.49 106.542C116.97 104.022 118.03 103.502 122.51 103.482C117.67 102.182 116.25 101.382 116.59 99.0617C114.2 98.4917 98.2498 31.2917 96.7798 23.8717C95.4198 27.0317 121.35 139.242 91.6798 18.6517C122.95 159.952 88.5798 18.1617 87.8498 15.5317C91.3998 34.7517 105.73 89.1817 80.8398 13.2617C82.0698 18.6117 104.94 80.7917 88.2598 60.0617C90.9298 67.4817 106.86 101.802 104.49 109.232C107.38 110.342 107.67 115.042 107.59 122.642C108.28 124.912 108.6 130.082 108.93 135.302C109.26 140.522 109.58 145.792 109.89 150.912C110.13 154.752 110.36 158.522 110.18 159.532C110.33 163.902 110.08 165.522 108.71 160.842C110.48 171.922 111.13 176.712 107.7 164.742C110.87 184.092 109.96 186.692 91.0798 182.102C110.2 190.532 106.33 203.532 96.7398 218.222C106.83 207.192 106.19 209.612 99.6298 228.752L99.6398 228.772Z" fill="currentColor"/>
<path d="M105.851 219.088C104.781 217.358 103.571 215.378 102.541 213.558C101.511 211.738 100.491 209.858 100.211 209.008C99.6606 207.728 99.6506 207.168 100.631 207.968C101.211 208.188 102.971 210.018 105.561 212.978C103.811 210.498 99.9906 205.098 98.8806 203.338C97.5206 201.448 96.3106 199.738 96.0706 199.418C95.5206 198.628 95.9206 199.218 97.1906 200.978C95.3206 198.248 92.0406 193.388 92.4506 193.998C90.6206 189.918 89.3606 187.598 90.9506 190.788C88.2506 187.118 88.0406 186.738 90.7406 190.268C89.1506 187.758 92.3506 191.618 95.6806 195.408C92.5406 191.508 89.6806 187.778 91.8106 190.008C89.3606 186.618 90.4506 187.238 94.1406 190.078C91.7906 187.958 94.3806 190.218 97.5406 192.658C98.1506 192.688 102.301 195.678 104.831 197.198C102.971 196.068 99.9906 193.998 99.1806 193.598C96.8206 191.788 94.4406 189.678 96.3406 190.948C90.9606 187.368 87.9006 184.698 91.2206 187.198C87.3106 184.528 89.1706 186.768 94.4906 191.958C90.8006 188.238 88.9806 183.818 90.7406 185.948C84.8206 181.838 89.8006 182.388 91.5506 184.068C88.6606 181.848 88.4606 181.358 91.2006 182.078C89.1506 181.168 89.9006 181.948 93.4406 184.718C91.3006 182.868 93.7206 184.328 98.6506 186.998C93.7806 184.238 91.4206 182.688 93.8406 184.168C90.2606 181.448 89.6706 180.568 92.4606 180.438C89.3006 180.228 86.0306 178.888 91.5606 176.958C88.2506 177.878 90.4406 177.798 95.9106 177.308C93.5106 177.238 99.3806 176.328 103.841 175.648C99.3806 176.308 93.5406 177.168 95.9506 177.108C90.5006 177.588 88.3406 177.608 91.6606 176.338C86.1806 178.288 85.4106 178.348 89.1406 176.448C86.1406 177.768 86.8706 177.998 91.3806 177.938C88.5106 177.978 91.6806 177.628 97.4706 176.888C91.6806 177.528 88.4906 177.768 91.3206 177.298C86.8006 177.448 86.0506 177.068 88.7706 174.878C85.1506 177.058 85.8306 175.788 90.1206 171.288C87.6006 173.868 89.5806 172.408 93.9206 169.098C92.1506 170.418 96.7906 166.768 100.091 164.508C94.9106 167.208 91.6906 169.058 93.9306 165.498C91.4406 167.438 93.6706 163.868 96.0706 160.698C96.2906 160.318 95.5106 159.678 96.5206 158.358C97.5306 157.038 98.5006 155.738 99.3206 154.538C94.1706 156.768 100.331 145.808 100.161 142.188C99.9906 138.568 101.861 133.838 101.711 130.618C101.111 117.748 100.681 108.738 100.681 108.738L96.3906 116.738C93.8206 121.538 90.3906 127.938 86.9606 134.338C85.2506 137.538 82.8306 148.718 81.9206 143.738C81.1406 148.538 80.7306 155.798 80.0106 156.538C79.6006 160.518 78.7006 158.818 77.5306 151.938C77.7706 154.598 78.4606 159.348 78.1406 158.768C78.7706 162.808 79.3706 166.338 78.5406 163.678C79.5806 169.308 79.9106 171.278 78.1906 166.868C79.3906 170.578 78.9206 169.408 77.2506 164.898C78.2206 167.608 76.8706 163.918 75.4106 159.768C76.8606 164.008 78.3406 168.208 77.2906 165.688C79.0506 170.468 79.6006 172.028 78.1106 168.728C80.0406 173.618 79.9006 173.558 77.5206 168.758C79.0706 171.988 78.2606 170.348 76.0106 165.748C77.1706 168.088 75.1206 163.848 73.2406 159.938C75.1206 163.848 77.1706 168.108 75.9806 165.778C78.2206 170.388 79.0106 172.048 77.3406 168.888C79.7006 173.708 79.6806 173.898 76.9206 169.458C78.7106 172.598 77.8306 171.268 75.0806 166.998C76.5106 169.358 74.1406 165.698 71.6506 161.918C74.0606 165.668 76.1606 168.978 74.5206 166.588C77.1306 170.668 77.7706 171.768 75.4706 168.638C78.0206 172.718 76.0506 171.888 72.0606 167.748C73.8906 170.118 71.5006 167.728 68.4106 164.688C68.9306 165.488 65.3006 161.988 63.1906 160.148C66.6106 163.658 69.4706 166.938 67.2906 165.598C68.9206 167.748 65.8206 165.908 62.6706 164.248C60.9806 163.688 56.8906 161.448 53.5906 159.948C58.4306 164.318 46.3406 159.798 42.5906 159.718L28.1706 159.418L12.6406 159.098C12.6406 159.098 20.1906 164.028 30.9806 171.068L39.6106 176.698C42.6406 178.678 54.3406 179.478 49.0506 182.858C50.6006 182.738 52.2906 182.538 53.9706 182.338C55.6706 182.128 58.7106 181.728 58.8406 181.778C63.0006 181.308 68.4206 180.998 65.0306 182.128C68.9506 181.738 68.7006 182.238 64.9806 183.918C67.5506 183.508 64.1406 185.218 60.8506 187.088C64.6106 185.348 70.0706 183.228 67.9806 184.158C73.0306 182.058 75.1606 181.108 71.6306 181.928C77.6506 180.658 78.9706 180.748 75.3206 182.688C78.5306 181.478 78.4706 182.378 76.1306 186.298C77.9206 184.038 76.1506 186.688 72.6906 191.348C76.2306 186.748 78.0906 184.168 76.6306 186.668C78.8906 182.728 79.0706 181.898 76.4906 183.758C79.9106 181.588 79.5606 182.158 75.2406 185.658C77.9806 183.498 77.0106 185.268 73.9506 189.748C75.2506 187.598 71.7206 192.058 68.7206 195.728C71.7406 192.068 75.3106 187.598 74.1006 189.808C77.1706 185.338 78.2006 183.568 75.7506 185.878C80.0506 182.338 80.0206 186.308 78.6006 189.058C80.1006 186.788 80.4906 187.838 80.7906 192.378C80.8906 189.518 80.9406 192.398 80.7206 197.938C81.0406 192.398 81.0906 189.528 81.4006 192.368C81.0406 187.828 80.8306 186.718 80.5006 188.958C81.2806 186.268 82.3706 182.268 82.7806 185.868C82.6006 183.318 83.2106 184.998 84.6806 189.898C83.9406 187.238 85.1006 191.478 86.3406 196.528C84.6506 189.338 83.8106 186.508 84.2906 191.098C83.7506 187.018 84.5306 190.858 85.2206 197.188C84.9806 194.848 85.6106 197.848 86.1006 200.828C86.1106 201.588 86.5906 205.268 86.7806 207.508C86.6206 204.948 86.1806 201.068 86.3106 200.478C85.9006 197.448 85.4306 194.898 85.9406 197.318C85.3006 191.448 84.9206 188.978 86.4806 193.478C85.4806 189.678 85.9306 190.278 87.6506 194.158C86.9306 191.978 88.8206 196.328 90.3806 199.888C88.2006 194.238 87.8706 193.038 90.0606 197.548C89.2506 195.528 90.2306 197.428 91.4306 199.778C91.8906 200.568 93.4506 203.688 94.6106 205.948C95.8006 208.138 98.5106 213.438 100.001 216.138C98.3906 212.498 97.4406 210.078 97.4706 209.538C97.1206 208.288 98.3106 208.218 99.2206 209.358C99.8406 209.998 101.111 211.828 102.291 213.598C103.471 215.368 104.741 217.358 105.811 219.088H105.851Z" fill="currentColor"/>
</svg>
