<svg width="118" height="116" viewBox="0 0 118 116" fill="none" xmlns="http://www.w3.org/2000/svg">
<path d="M18.5997 81.4872L13.3094 77.0198C11.2259 75.26 7.83635 72.4287 7.34658 72.1038C7.09781 72.0652 6.87625 71.9337 6.70133 71.7248C6.51086 71.5005 6.42535 71.2336 6.45644 70.959C6.48365 70.6805 6.61581 70.4445 6.84904 70.2511C7.08226 70.0539 7.33881 69.9688 7.6109 69.992C7.883 70.0152 8.12011 70.1467 8.31446 70.3788C8.48161 70.576 8.57101 70.7965 8.57879 71.0286C8.98693 71.5623 11.9333 74.6373 13.7719 76.5286L18.5958 81.4911L18.5997 81.4872ZM7.52928 70.665C7.47486 70.665 7.39711 70.6805 7.29216 70.7694C7.16778 70.8739 7.14446 70.9667 7.14057 71.0286C7.13279 71.1214 7.16 71.2026 7.22997 71.2877C7.33103 71.4076 7.42821 71.4308 7.4904 71.4347C7.57203 71.4424 7.66532 71.4502 9.09188 72.6105C7.88689 71.3071 7.89466 71.2065 7.90243 71.0943C7.90632 71.0325 7.90243 70.9358 7.79748 70.8159C7.69642 70.696 7.6109 70.6727 7.55649 70.6689C7.54871 70.6689 7.54094 70.6689 7.52928 70.6689V70.665Z" fill="currentColor"/>
<path d="M12.734 67.7666C12.7029 67.7666 12.6718 67.7666 12.6407 67.7628C12.3609 67.7396 12.1121 67.6042 11.9177 67.376C11.7415 67.1671 12.8947 65.9861 15.3772 63.833C17.4296 62.0538 20.0884 59.7718 22.6577 57.5672C26.1328 54.5851 29.7167 51.5063 30.2259 51.0151C30.2764 50.7907 30.4008 50.5896 30.599 50.4272C30.8322 50.2299 31.0888 50.1448 31.3609 50.168L31.5863 50.1874L31.6563 50.404C31.7107 50.5716 30.945 51.3413 29.359 52.713C28.0102 53.8773 26.1755 55.4553 24.232 57.1262C20.1583 60.6228 14.6814 65.3299 13.6941 66.2814C13.7719 66.4438 13.8068 66.614 13.7952 66.7958C13.7758 67.0743 13.6436 67.318 13.4181 67.5075C13.2082 67.6815 12.9789 67.7705 12.734 67.7705V67.7666ZM12.7146 67.0898C12.7807 67.0898 12.8701 67.082 12.9828 66.9892C13.0683 66.9157 13.1111 66.8422 13.1188 66.7494C13.1188 66.7417 13.1188 66.7339 13.1188 66.7262C12.9556 66.8732 12.8234 66.9931 12.7185 67.0936L12.7146 67.0898ZM10.1919 64.5215C10.1258 64.5215 10.083 64.4944 10.0325 64.4635L9.83037 64.332L9.8809 64.0845C10.0364 63.454 10.0403 63.1136 10.0169 62.9435C10.0053 62.8468 9.99751 62.6882 9.98585 62.4174C9.9703 62.05 9.93921 61.1875 9.8498 61.0134C9.65545 60.7891 9.40668 60.6614 9.10737 60.6537C8.78863 60.646 8.49321 60.762 8.19002 61.0134C7.96846 61.1991 7.82464 61.4389 7.75078 61.7483C7.67304 62.0693 7.68859 62.3787 7.79354 62.6959L7.89849 63.0092L6.16097 63.6358L6.04436 63.3148C5.80724 62.6572 5.77615 61.9804 5.95107 61.2958C6.04047 60.6692 5.31359 52.4732 4.80049 47.1047L4.3457 42.3086L5.47296 46.9925C6.46416 51.1118 8.15115 57.718 8.67591 58.8049C9.12681 58.7353 9.56993 58.7778 9.99751 58.9286C10.4873 59.1027 10.9226 59.4121 11.2919 59.8492C11.5523 60.1586 11.6456 60.909 11.7428 61.9339C11.7506 61.9958 11.7545 62.0577 11.7622 62.1157C13.0605 61.2726 17.3985 57.9462 20.963 55.2155C25.9812 51.3709 28.4223 49.5221 29.6583 48.6634C29.6311 48.5435 29.6583 48.4236 29.7361 48.3308C29.8799 48.1529 30.1015 48.1645 30.3192 48.1761C30.3425 48.1761 30.3658 48.1761 30.393 48.1761C30.8711 47.8937 30.9566 47.944 31.0732 48.0214L31.2754 48.149L31.2287 48.4004C31.1393 48.7485 30.8361 48.8375 30.5718 48.853C30.5563 48.8646 30.5368 48.8762 30.5213 48.8878C30.5874 48.9845 30.6768 49.1005 30.7934 49.232L31.0188 49.4911L26.9646 52.8948L26.743 52.6396C26.6925 52.5815 26.6031 52.481 26.5487 52.3572C25.1688 53.2932 21.3711 56.2134 18.2303 58.6308C11.6068 63.7247 10.5495 64.5138 10.1919 64.5138V64.5215ZM9.08016 59.9768C9.08016 59.9768 9.11515 59.9768 9.13458 59.9768C9.63213 59.9923 10.0558 60.2012 10.394 60.5995C10.5806 60.8239 10.6311 61.3112 10.67 62.3942C10.6778 62.5876 10.6855 62.7849 10.6933 62.8506C10.7166 63.0324 10.7166 63.249 10.6855 63.5004C10.8877 63.3573 11.1325 63.1794 11.4163 62.9705C11.4007 62.9667 11.3813 62.9589 11.3658 62.9512L11.187 62.8816L11.1442 62.6843C11.117 62.5296 11.0937 62.282 11.0665 61.9958C11.0237 61.5394 10.9187 60.468 10.771 60.2785C10.4756 59.9304 10.1491 59.6945 9.77206 59.563C9.3989 59.4315 9.02186 59.4121 8.6176 59.5011C8.21334 59.5939 8.00733 59.6403 6.33977 53.2429C6.19206 52.6705 6.04436 52.0942 5.90053 51.5372C6.28535 55.7725 6.72848 61.0095 6.61576 61.4505C6.50303 61.8953 6.49526 62.3246 6.59243 62.7539L7.06666 62.5837C7.00446 62.255 7.01224 61.9185 7.09387 61.5897C7.2027 61.141 7.42427 60.7736 7.75856 60.4951C8.17059 60.1509 8.61371 59.9768 9.07628 59.9768H9.08016ZM27.0696 51.4173C27.0696 51.4173 27.0773 51.4173 27.0812 51.4212L27.2561 51.4792L27.3106 51.6649C27.3106 51.6649 27.3183 51.6997 27.3222 51.7152L30.0626 49.4177C30.0276 49.3712 29.9926 49.3248 29.9615 49.2823C29.2541 49.7851 28.2357 50.5393 27.0696 51.4212V51.4173Z" fill="currentColor"/>
<path d="M17.9506 63.4075C17.9195 63.4075 17.8923 63.4075 17.8612 63.4037C17.5813 63.3804 17.3325 63.2451 17.1382 63.0169C16.962 62.808 18.1138 61.6283 20.5938 59.4778C22.6423 57.6986 25.301 55.4205 27.8704 53.2119C31.3454 50.2298 34.9371 47.1472 35.4463 46.656C35.4968 46.4316 35.6212 46.2344 35.8195 46.0681C36.0527 45.8747 36.3131 45.7857 36.5813 45.8089L36.8068 45.8282L36.8767 46.0448C36.9312 46.2125 36.1667 46.9821 34.5834 48.3539C33.2384 49.5182 31.4037 51.0962 29.4563 52.7633C25.7869 55.9155 20.9747 60.0464 19.3344 61.5316C21.4645 61.3846 27.3651 60.8006 31.462 60.3752L44.1184 59.0562L31.5514 61.0481C26.6732 61.8217 19.3072 63.013 18.5842 63.1948C18.3937 63.3379 18.176 63.4114 17.9506 63.4114V63.4075ZM17.935 62.7307C17.9933 62.7307 18.0866 62.7229 18.1993 62.6301C18.2538 62.5875 18.3198 62.5295 20.862 62.0925C19.4277 62.2085 18.8018 62.2278 18.5103 62.2085C18.2693 62.4212 18.075 62.5991 17.935 62.7307ZM15.4045 60.1585C15.3423 60.1585 15.2996 60.1315 15.2529 60.1044L15.0508 59.9729L15.1052 59.7254C15.2607 59.0949 15.2646 58.7545 15.2413 58.5843C15.2296 58.4876 15.2218 58.3291 15.2102 58.0583C15.1946 57.6909 15.1635 56.8283 15.078 56.6543C14.8837 56.43 14.6349 56.3023 14.3356 56.2946C14.0091 56.2869 13.7214 56.4029 13.4221 56.6543C13.2006 56.84 13.0567 57.0798 12.9829 57.3892C12.9051 57.7102 12.9207 58.0196 13.0256 58.3368L13.1306 58.6501L11.3931 59.2767L11.2765 58.9557C11.0393 58.2981 11.0082 57.6174 11.1832 56.9289C11.3581 56.2404 11.7118 55.6719 12.2288 55.2387C12.6875 54.8558 13.1811 54.6005 13.6942 54.4844C14.219 54.3684 14.736 54.3955 15.2257 54.5695C15.7155 54.7436 16.1508 55.053 16.5201 55.4901C16.7844 55.7995 16.8738 56.5499 16.971 57.5748C16.9749 57.629 16.9827 57.6793 16.9866 57.7296C18.2732 56.8051 22.4401 53.3202 25.8685 50.4542C35.0576 42.7727 35.1081 42.8075 35.4463 43.0125L35.6562 43.1401L35.6057 43.3993C35.5007 43.8092 35.5163 44.0336 35.5474 44.1535C35.5785 44.2773 35.6873 44.5016 36.0177 44.8806L36.2431 45.1398L34.8283 46.3465L34.6067 46.0913C34.5562 46.0332 34.4745 45.9365 34.4162 45.8205C32.8886 46.8764 28.3951 50.3729 24.6791 53.2661C16.9283 59.296 15.7738 60.1702 15.4045 60.1702V60.1585ZM14.3006 55.6177C14.3006 55.6177 14.3356 55.6177 14.355 55.6177C14.8565 55.6332 15.2801 55.8421 15.6144 56.2443C15.801 56.4686 15.8515 56.956 15.8904 58.039C15.8982 58.2324 15.906 58.4296 15.9137 58.4954C15.9371 58.6733 15.9371 58.886 15.9098 59.1297C16.1042 58.9905 16.3452 58.8125 16.6212 58.6075C16.6134 58.6075 16.6056 58.5998 16.594 58.5998L16.4074 58.5341L16.3646 58.3329C16.3374 58.1782 16.3141 57.9307 16.2869 57.6445C16.2441 57.1881 16.1392 56.1167 15.9915 55.931C15.6999 55.5868 15.3657 55.347 14.9925 55.2155C14.6193 55.084 14.2423 55.0608 13.838 55.1536C13.4299 55.2464 13.0334 55.4514 12.6603 55.7647C12.2482 56.1089 11.98 56.546 11.8362 57.103C11.7235 57.5478 11.7157 57.9771 11.8129 58.4064L12.2871 58.2362C12.2249 57.9075 12.2327 57.571 12.3143 57.2422C12.4231 56.7935 12.6447 56.4261 12.979 56.1476C13.391 55.8034 13.8342 55.6293 14.3006 55.6293V55.6177ZM34.8399 43.964C33.4522 45.0005 29.6856 48.1451 26.3039 50.9763C25.2699 51.8389 24.3526 52.6085 23.5324 53.2893C23.7773 53.0998 24.0183 52.9102 24.2593 52.7246C34.5367 44.7259 34.6222 44.753 34.941 44.8613L35.1159 44.9193L35.1703 45.105C35.1703 45.105 35.1781 45.1359 35.182 45.1475L35.283 45.0586C35.0731 44.7839 34.941 44.5441 34.8866 44.3237C34.8555 44.2154 34.8399 44.0955 34.8399 43.964Z" fill="currentColor"/>
<path d="M22.3314 59.7516C22.3003 59.7516 22.2692 59.7516 22.2381 59.7477C21.9583 59.7245 21.7095 59.5892 21.5151 59.361C21.3389 59.1521 22.4921 57.9711 24.9746 55.818C27.027 54.0388 29.6858 51.7568 32.2551 49.5483C35.7263 46.5662 39.3141 43.4913 39.8233 42.9962C39.8738 42.7719 39.9982 42.5707 40.1964 42.4083C40.4297 42.2149 40.6862 42.1259 40.9583 42.1491L41.1838 42.1685L41.2537 42.3851C41.3081 42.5527 40.5437 43.3224 38.9603 44.6942C37.6154 45.8584 35.7807 47.4365 33.8333 49.1035C29.7596 52.6039 24.2789 57.3072 23.2915 58.2625C23.3693 58.425 23.4043 58.5951 23.3926 58.7769C23.3732 59.0554 23.241 59.2991 23.0156 59.4886C22.8057 59.6627 22.5763 59.7516 22.3314 59.7516ZM22.312 59.0748C22.3742 59.0786 22.4675 59.067 22.5802 58.9742C22.6657 58.9007 22.7085 58.8272 22.7163 58.7344C22.7163 58.7266 22.7163 58.7189 22.7163 58.7112C22.553 58.8582 22.4208 58.9781 22.3159 59.0786L22.312 59.0748ZM13.5972 54.2941L17.1538 51.3314L56.2151 28.457L44.0835 38.5753L13.5972 54.2941ZM49.506 33.1719L23.171 48.5929L43.7337 37.9912L49.5021 33.1719H49.506Z" fill="currentColor"/>
<path d="M44.1452 91.699C44.0753 91.699 44.0053 91.6912 43.9353 91.6796C43.6438 91.6294 43.4106 91.4785 43.2512 91.2503C43.0957 91.0221 43.0413 90.7552 43.0957 90.4574C43.1501 90.1596 43.2901 89.9275 43.5116 89.7728C43.7371 89.6181 44.0014 89.5639 44.3007 89.6181C44.5573 89.6645 44.7672 89.7728 44.9227 89.9469C45.5835 90.0938 49.8243 90.5657 52.4519 90.8365L59.3515 91.552L52.4169 91.5133C49.6843 91.4979 45.2569 91.4978 44.6739 91.5597C44.5145 91.6526 44.3357 91.699 44.1452 91.699ZM44.083 90.2756C43.9898 90.2756 43.9353 90.3027 43.9042 90.3259C43.8615 90.3568 43.7954 90.4149 43.7682 90.5734C43.741 90.732 43.7837 90.8171 43.8187 90.8713C43.8731 90.9486 43.947 90.995 44.0558 91.0144C44.2113 91.0414 44.2968 90.9989 44.3513 90.9641C44.4173 90.9177 44.499 90.8635 46.3375 90.8403C44.5728 90.6121 44.5145 90.5309 44.4445 90.4381C44.4096 90.3878 44.3435 90.3182 44.1841 90.2911C44.1452 90.2834 44.1141 90.2834 44.083 90.2834V90.2756Z" fill="currentColor"/>
<path d="M38.2875 85.8164L37.9921 85.6462C37.3857 85.2943 36.9231 84.7953 36.616 84.161C36.2779 83.6234 30.4278 77.81 26.568 74.0273L23.1201 70.6468L27.0072 73.5129C30.4239 76.0347 35.9902 80.0147 37.0903 80.5136C37.3935 80.1733 37.7589 79.9218 38.1825 79.7633C38.6684 79.5815 39.2048 79.5428 39.7685 79.6395C40.1688 79.7091 40.7247 80.2274 41.4594 80.9507C41.506 80.9932 41.5488 81.0396 41.5915 81.0783C42.0385 79.6008 43.2163 74.2787 44.1803 69.908C45.5408 63.7505 46.2171 60.7761 46.6058 59.3257C46.5087 59.2522 46.4504 59.14 46.4504 59.0201C46.4504 58.7919 46.6253 58.6604 46.7963 58.5289C46.8119 58.5173 46.8352 58.5018 46.8546 58.4825C47.0373 57.9603 47.1345 57.9449 47.2744 57.9294L47.5115 57.8984L47.6398 58.1228C47.7953 58.4477 47.6204 58.7068 47.4299 58.8886C47.426 58.9079 47.4182 58.9273 47.4144 58.9466C47.5271 58.9776 47.6709 59.0085 47.8458 59.0356L48.1879 59.0897L47.2783 64.292L46.944 64.2378C46.8663 64.2262 46.7341 64.203 46.6136 64.145C46.1627 65.7463 45.1404 70.4109 44.293 74.2748C42.1785 83.925 42.1512 83.9289 41.7742 83.9792L41.5371 84.0101L41.4166 83.7858C41.1289 83.2018 40.9152 82.9426 40.783 82.8227C40.713 82.757 40.6042 82.6409 40.4215 82.4398C40.1727 82.1652 39.5897 81.527 39.4109 81.4496C39.1154 81.3994 38.8472 81.4651 38.6101 81.6508C38.3613 81.8442 38.2098 82.1265 38.1398 82.5094C38.0893 82.7918 38.1359 83.0664 38.2797 83.3526C38.4274 83.6466 38.6373 83.8748 38.9211 84.0527L39.201 84.2267L38.2719 85.8164H38.2875ZM37.2263 83.8593C37.4284 84.2731 37.6967 84.6058 38.0504 84.8727L38.303 84.4395C38.0426 84.2267 37.8327 83.9637 37.6811 83.6582C37.4751 83.2443 37.4051 82.8188 37.4829 82.3973C37.58 81.8519 37.821 81.4226 38.202 81.1209C38.5946 80.8114 39.0532 80.7031 39.5702 80.7921C39.8579 80.8424 40.2116 81.1866 40.9385 81.9873C41.0668 82.1304 41.2028 82.2773 41.2533 82.3238C41.3894 82.4475 41.5293 82.6139 41.6693 82.8266C41.7314 82.5906 41.8053 82.2967 41.8869 81.9525C41.8714 81.9602 41.8519 81.9641 41.8364 81.9718L41.6537 82.0337L41.4943 81.9099C41.3738 81.8093 41.195 81.6353 40.989 81.4342C40.6586 81.1131 39.889 80.3589 39.6557 80.3086C39.2126 80.2313 38.7967 80.2622 38.4274 80.3976C38.0543 80.5368 37.7511 80.7612 37.5023 81.0861C37.2496 81.4148 37.1253 81.585 31.7144 77.7481C31.2286 77.4039 30.7427 77.0597 30.2762 76.7232C33.3043 79.7207 37.032 83.4532 37.2263 83.8593ZM46.5942 63.0194L46.7574 63.1277C46.7574 63.1277 46.7846 63.1471 46.7963 63.1587L47.4105 59.6467C47.3522 59.6351 47.2977 59.6196 47.2472 59.6042C47.0295 60.4396 46.738 61.6696 46.4115 63.0891C46.4154 63.0891 46.4193 63.0891 46.4231 63.0852L46.5942 63.0194ZM45.3309 85.0274C45.2609 85.0274 45.1909 85.0196 45.1171 85.008C44.8476 84.9616 44.9681 83.3204 45.4786 80.0843C45.8984 77.4116 46.462 73.9615 47.0062 70.6313C47.7409 66.1253 48.4988 61.4684 48.5727 60.7645C48.4639 60.5595 48.4328 60.3274 48.4794 60.0722C48.5338 59.7743 48.6738 59.5423 48.8953 59.3875L49.0819 59.2599L49.2763 59.3798C49.4266 59.4726 49.3372 60.5518 49.0081 62.6172C48.7282 64.3732 48.3395 66.7519 47.9313 69.2776C47.0723 74.5649 45.9139 81.6701 45.774 83.0316C45.9373 83.1051 46.0772 83.2172 46.1821 83.3642C46.3454 83.5885 46.4037 83.8632 46.3532 84.1494C46.3026 84.4433 46.1511 84.6831 45.9217 84.8456C45.7468 84.9694 45.5486 85.0312 45.3348 85.0312L45.3309 85.0274ZM45.6107 83.7433C45.5797 83.956 45.5563 84.1378 45.5408 84.2809C45.5913 84.2422 45.6535 84.1765 45.6807 84.0333C45.7001 83.925 45.6807 83.84 45.6263 83.7626C45.6224 83.7549 45.6185 83.751 45.6107 83.7433Z" fill="currentColor"/>
<path d="M39.4692 79.145L39.1737 78.9748C38.5674 78.6228 38.1048 78.12 37.7938 77.4818C37.4829 76.8397 37.3857 76.1822 37.5023 75.5208C37.6072 74.9329 37.821 74.4223 38.1398 74.0046C38.4663 73.5792 38.8783 73.2697 39.3681 73.0879C39.854 72.9062 40.3904 72.8636 40.954 72.9642C41.3544 73.0338 41.9102 73.5521 42.6488 74.2754C42.6877 74.314 42.7226 74.3489 42.7576 74.3837C43.1463 72.852 44.087 67.5183 44.8605 63.1322C46.9362 51.374 46.9984 51.3624 47.391 51.3043L47.632 51.2695L47.7603 51.4977C47.943 51.8768 48.1024 52.0392 48.2034 52.1088C48.3084 52.1823 48.5377 52.2868 49.0314 52.3641L49.3695 52.4183L49.0663 54.2439L48.7321 54.1897C48.6582 54.1781 48.5299 54.1588 48.4133 54.1008C47.9235 55.8877 46.7419 61.4419 45.7623 66.0292C43.3718 77.2497 43.3407 77.2536 42.9675 77.3039L42.7265 77.3348L42.606 77.1143C42.3184 76.5303 42.1046 76.2712 41.9724 76.1513C41.9025 76.0855 41.7936 75.9695 41.6109 75.7683C41.3622 75.4937 40.7791 74.8555 40.6003 74.7782C40.3049 74.7279 40.0367 74.7898 39.7996 74.9754C39.5508 75.1688 39.3992 75.4512 39.3292 75.8341C39.2787 76.1164 39.3253 76.3911 39.4653 76.6773C39.613 76.9712 39.8229 77.1994 40.1066 77.3774L40.3865 77.5514L39.4575 79.1411L39.4692 79.145ZM38.408 77.1878C38.6101 77.6017 38.8783 77.9382 39.232 78.2012L39.4847 77.768C39.2243 77.5553 39.0144 77.2923 38.8628 76.9867C38.6568 76.5729 38.5868 76.1474 38.6645 75.7258C38.7617 75.1804 39.0027 74.7511 39.3836 74.4494C39.7762 74.14 40.2388 74.0317 40.7519 74.1207C41.0395 74.1709 41.3933 74.5152 42.1201 75.3158C42.2484 75.4589 42.3845 75.6059 42.435 75.6523C42.571 75.7722 42.7032 75.9347 42.8393 76.1435C42.8976 75.9115 42.9675 75.6214 43.0492 75.2887C43.0414 75.2887 43.0336 75.2965 43.0219 75.2965L42.8393 75.3622L42.676 75.2346C42.5555 75.134 42.3767 74.96 42.1707 74.7588C41.8403 74.4378 41.0706 73.6797 40.8374 73.6333C40.3943 73.5559 39.9784 73.5869 39.6091 73.7223C39.2359 73.8615 38.9327 74.0858 38.684 74.4107C38.4313 74.7395 38.2603 75.1534 38.1748 75.633C38.0815 76.159 38.1592 76.6657 38.408 77.184V77.1878ZM47.5465 52.4183C47.15 54.0969 46.2987 58.9162 45.5369 63.2482C45.3037 64.571 45.0938 65.7468 44.9072 66.7911C44.9733 66.4894 45.0354 66.1877 45.0976 65.8938C47.803 53.1918 47.8886 53.157 48.1995 53.0371L48.3706 52.9714L48.5299 53.0797C48.5299 53.0797 48.5533 53.099 48.5649 53.1067L48.5882 52.9752C48.2501 52.8979 47.9935 52.7973 47.8108 52.6658C47.7175 52.6001 47.6281 52.5188 47.5426 52.4221L47.5465 52.4183ZM46.5125 78.3521C46.4426 78.3521 46.3726 78.3443 46.2987 78.3327C46.0292 78.2863 46.1497 76.6463 46.6602 73.4128C47.0801 70.7402 47.6437 67.2939 48.1879 63.9599C48.9225 59.45 49.6844 54.7931 49.7544 54.0892C49.6455 53.8842 49.6144 53.6521 49.6611 53.3968C49.7155 53.099 49.8554 52.8669 50.077 52.7122L50.2636 52.5846L50.4579 52.7045C50.6082 52.7973 50.5188 53.8764 50.1897 55.9419C49.9098 57.6979 49.5211 60.0766 49.113 62.6023C48.3395 67.3636 47.3211 73.6024 47.0256 75.7877C48.561 74.314 52.7046 70.0904 55.5655 67.1431L64.4086 58.0382L56.067 67.5995C52.829 71.3126 47.9546 76.9364 47.5193 77.5359C47.4571 77.799 47.3133 78.0156 47.1034 78.1625C46.9285 78.2863 46.7302 78.3443 46.5164 78.3443L46.5125 78.3521ZM46.8235 76.8359C46.7769 77.153 46.7419 77.4122 46.7186 77.6056C46.7691 77.5669 46.8313 77.5011 46.8585 77.358C46.8701 77.2923 46.8857 77.2033 48.5494 75.2462C47.5271 76.2518 47.0606 76.6695 46.8235 76.8359Z" fill="currentColor"/>
<path d="M37.9531 73.9154L38.7616 69.3707L53.9096 26.8672L51.1536 42.3733L37.9531 73.9154ZM51.8183 34.7653L41.607 63.4182L50.5084 42.1451L51.8183 34.7653ZM47.5037 72.7474C47.4337 72.7474 47.3637 72.7396 47.2938 72.728C47.0243 72.6816 47.1448 71.0391 47.6553 67.8004C48.079 65.1239 48.6387 61.6776 49.1829 58.3397C49.9175 53.8375 50.6755 49.1845 50.7494 48.4806C50.6405 48.2756 50.6095 48.0435 50.6561 47.7883C50.7066 47.4904 50.8466 47.2584 51.072 47.1037L51.2586 46.9722L51.4529 47.0921C51.6032 47.1849 51.5138 48.264 51.1847 50.3294C50.9049 52.0816 50.52 54.4641 50.108 56.986C49.2451 62.2733 48.0906 69.3823 47.9507 70.7438C48.1139 70.8173 48.2539 70.9295 48.3588 71.0765C48.5221 71.3008 48.5804 71.5715 48.5299 71.8616C48.4754 72.1556 48.3277 72.3954 48.0984 72.5578C47.9235 72.6777 47.7213 72.7396 47.5037 72.7396V72.7474ZM47.7874 71.4632C47.7563 71.676 47.733 71.8577 47.7175 72.0009C47.768 71.9622 47.8302 71.8964 47.8574 71.7533C47.8768 71.645 47.8574 71.5599 47.803 71.4826C47.7991 71.4748 47.7952 71.471 47.7874 71.4632Z" fill="currentColor"/>
<path d="M84.8123 83.2981C84.7229 83.2981 84.6296 83.2865 84.5402 83.2594C84.272 83.182 84.0582 83.0119 83.9066 82.7527C83.755 82.4897 83.7122 82.2228 83.7822 81.9637C83.8522 81.7007 84.0232 81.4918 84.2875 81.341C84.513 81.2094 84.7423 81.163 84.9755 81.194C85.578 80.8845 89.1308 78.5329 91.3192 77.0593L97.0643 73.1953L91.7274 77.6008C89.6206 79.3374 86.2311 82.1687 85.8268 82.5903C85.7452 82.8262 85.578 83.0196 85.3409 83.155C85.1699 83.2517 84.9911 83.3019 84.8123 83.3019V83.2981ZM84.8434 81.8592C84.789 81.8592 84.719 81.8747 84.6296 81.925C84.4897 82.0062 84.4547 82.0836 84.443 82.1377C84.4275 82.188 84.4197 82.277 84.4974 82.4123C84.5791 82.5516 84.6685 82.5903 84.7268 82.6057C84.8201 82.6328 84.9017 82.6173 84.9989 82.5632C85.1388 82.482 85.1738 82.3969 85.1893 82.335C85.2088 82.2576 85.236 82.1648 86.6314 80.9696C85.131 81.9211 85.0338 81.8979 84.9211 81.8708C84.8978 81.867 84.8706 81.8592 84.8395 81.8592H84.8434Z" fill="currentColor"/>
<path d="M76.2993 82.3801C75.8135 82.3801 75.3392 82.2757 74.8806 82.0707C74.2742 81.8773 66.0375 81.1656 60.6383 80.7324L55.8145 80.3456L60.6461 80.0556C64.8947 79.8003 71.7282 79.2936 72.8904 78.9687C72.902 78.5162 73.0187 78.0868 73.2441 77.6923C73.5007 77.2436 73.8816 76.8685 74.3791 76.5822C74.7329 76.3773 75.4908 76.4198 76.5248 76.5049C76.587 76.5088 76.6492 76.5165 76.7075 76.5204C76.0972 75.1009 73.559 70.2738 71.4755 66.3054C68.5407 60.7203 67.1375 58.0089 66.5 56.6475C66.3756 56.6513 66.2629 56.6049 66.1852 56.5121C66.0336 56.338 66.0841 56.1253 66.1346 55.9164C66.1385 55.8971 66.1463 55.87 66.1502 55.843C65.9519 55.3247 66.018 55.2512 66.1152 55.1506L66.2785 54.9766L66.5195 55.0655C66.8499 55.2125 66.881 55.5258 66.8538 55.7849C66.8615 55.8043 66.8693 55.8236 66.881 55.843C66.9898 55.7927 67.1181 55.7269 67.2697 55.6341L67.5651 55.4562L70.2316 60.0241L69.944 60.1943C69.8779 60.2329 69.7613 60.3026 69.633 60.3335C70.321 61.8497 72.5522 66.0772 74.3986 69.5776C79.0164 78.3228 78.9931 78.346 78.7365 78.6206L78.5733 78.7946L78.3362 78.7018C77.7376 78.4388 77.4033 78.3769 77.2284 78.3692C77.1312 78.3692 76.9757 78.346 76.7036 78.3073C76.3382 78.257 75.4792 78.141 75.2887 78.1951C75.0322 78.346 74.865 78.5664 74.8028 78.8604C74.7406 79.1698 74.8028 79.4831 74.9972 79.8196C75.141 80.0672 75.3548 80.2489 75.6463 80.3766C75.9495 80.5081 76.2566 80.5468 76.5909 80.5004L76.9174 80.4539L77.2323 82.268L76.8941 82.326C76.6958 82.3608 76.4976 82.3762 76.3032 82.3762L76.2993 82.3801ZM75.1527 81.4518C75.5764 81.6414 76 81.7226 76.4393 81.6994L76.3538 81.2043C76.0195 81.212 75.6891 81.1424 75.3742 81.007C74.9466 80.8214 74.624 80.539 74.4063 80.1677C74.1265 79.6881 74.0371 79.2046 74.1343 78.7328C74.2353 78.2454 74.5191 77.8664 74.97 77.6072C75.2226 77.4602 75.7163 77.4989 76.793 77.6459C76.9835 77.673 77.1817 77.7 77.2517 77.7C77.4383 77.7078 77.6482 77.7465 77.8931 77.8199C77.7881 77.5995 77.6559 77.3249 77.4966 77.0116C77.4888 77.027 77.481 77.0425 77.4694 77.058L77.3722 77.2204L77.1701 77.2282C77.0146 77.2282 76.7619 77.2088 76.4743 77.1856C76.0156 77.1469 74.935 77.0657 74.7251 77.174C74.3364 77.3984 74.0371 77.6846 73.8427 78.0288C73.6484 78.3731 73.5629 78.7405 73.5823 79.1505C73.6017 79.5643 73.6134 79.7732 66.9937 80.2954C66.399 80.3418 65.8042 80.3882 65.229 80.4307C69.4853 80.7904 74.7484 81.2662 75.1643 81.4518H75.1527ZM67.1569 56.4618C67.5301 57.2431 68.1015 58.3725 68.7701 59.6644C68.7701 59.6644 68.774 59.6566 68.7779 59.6528L68.8673 59.4942L69.0616 59.471C69.0616 59.471 69.0966 59.471 69.1121 59.471L67.3124 56.3883C67.2619 56.4154 67.2114 56.4386 67.1608 56.4618H67.1569ZM81.7646 77.3519C81.5003 77.3519 81.1232 76.7292 79.0359 73.2791C77.6326 70.9584 75.8329 67.957 74.0993 65.0561C71.7515 61.1341 69.3298 57.0845 68.9295 56.5005C68.7157 56.4115 68.5407 56.2529 68.4125 56.0325C68.2609 55.7695 68.2181 55.5026 68.2881 55.2434L68.3464 55.0268L68.5718 54.9959C68.7481 54.9701 69.3765 55.8533 70.4571 57.6454C71.3783 59.1693 72.6183 61.2386 73.9321 63.4355C76.6881 68.0343 80.3924 74.219 81.166 75.3523C81.3409 75.302 81.5158 75.302 81.6907 75.3445C81.9628 75.4142 82.1844 75.5843 82.3321 75.8358C82.4837 76.0949 82.5226 76.3734 82.4526 76.6441C82.3787 76.9149 82.2038 77.1353 81.9434 77.2823C81.8773 77.321 81.8268 77.3481 81.7685 77.3481L81.7646 77.3519ZM81.5003 75.9982C81.6169 76.18 81.7141 76.3347 81.7918 76.4546C81.8073 76.3927 81.8112 76.3038 81.7374 76.1761C81.683 76.0794 81.613 76.0253 81.5236 76.0021C81.5158 76.0021 81.508 76.0021 81.5003 75.9982Z" fill="currentColor"/>
<path d="M72.8946 76.5081C72.4087 76.5081 71.9306 76.4037 71.4681 76.1948C70.8189 75.9009 70.3136 75.46 69.9793 74.8759C69.68 74.3576 69.5129 73.8316 69.4895 73.3094C69.4623 72.7757 69.5828 72.2729 69.8394 71.8203C70.0959 71.3717 70.4769 70.9965 70.9744 70.7103C71.3281 70.5053 72.0861 70.5478 73.1201 70.6329C73.1745 70.6368 73.225 70.6406 73.2755 70.6445C72.5836 69.225 69.8588 64.5333 67.616 60.6771C61.6104 50.3423 61.6532 50.2959 61.9136 49.9981L62.0769 49.8163L62.3218 49.9091C62.7066 50.0831 62.932 50.1064 63.0564 50.0947C63.1847 50.0831 63.4257 50.0174 63.8572 49.7621L64.1526 49.5842L65.101 51.1777L64.8095 51.3518C64.7434 51.3905 64.6346 51.4562 64.5063 51.491C65.2837 53.1697 67.9658 58.1824 70.1814 62.3248C75.6 72.4508 75.5767 72.474 75.324 72.7486L75.1608 72.9265L74.9276 72.8337C74.3289 72.5707 73.9947 72.5088 73.8197 72.5011C73.7226 72.5011 73.5671 72.4779 73.295 72.4392C72.9296 72.3889 72.0667 72.2729 71.8801 72.327C71.6235 72.4779 71.4564 72.6983 71.3942 72.9923C71.3281 73.3017 71.3942 73.615 71.5886 73.9515C71.7324 74.199 71.9462 74.3808 72.2377 74.5085C72.5409 74.64 72.848 74.6787 73.1823 74.6322L73.5088 74.5858L73.8275 76.3998L73.4893 76.4579C73.2911 76.4927 73.0929 76.5081 72.8946 76.5081ZM71.7479 75.5799C72.1677 75.7694 72.5875 75.8506 73.0346 75.8274L72.949 75.3323C72.6186 75.3401 72.2843 75.2704 71.9695 75.1351C71.5419 74.9494 71.2193 74.667 71.0016 74.2957C70.7217 73.8161 70.6323 73.3327 70.7295 72.8608C70.8306 72.3734 71.1104 71.9944 71.5652 71.7352C71.8179 71.5883 72.3116 71.6269 73.3883 71.7739C73.5787 71.801 73.777 71.8281 73.8469 71.8281C74.0296 71.8358 74.2357 71.8745 74.4728 71.9441C74.3678 71.7275 74.2357 71.4606 74.0802 71.1551C74.0763 71.1628 74.0724 71.1705 74.0646 71.1783L73.9674 71.3485L73.7614 71.3562C73.6021 71.3562 73.3533 71.3369 73.0656 71.3136C72.607 71.2788 71.5264 71.1899 71.3165 71.302C70.9278 71.5264 70.6285 71.8126 70.4341 72.1568C70.2359 72.5011 70.1503 72.8685 70.1737 73.2785C70.1931 73.6924 70.3291 74.1178 70.574 74.5394C70.8422 75.0036 71.2271 75.3439 71.7557 75.5799H71.7479ZM62.7493 50.76C63.5306 52.2994 65.9951 56.5347 68.2029 60.3406C68.8793 61.5048 69.4779 62.5375 70.0104 63.4581C69.8627 63.1873 69.7189 62.9127 69.5751 62.6458C63.4412 51.1855 63.4879 51.1042 63.6473 50.8103L63.7367 50.6517L63.9271 50.6324C63.9271 50.6324 63.9582 50.6324 63.9738 50.6324L63.9038 50.5163C63.5967 50.6749 63.3324 50.76 63.1108 50.7794C62.9981 50.791 62.8776 50.7832 62.7493 50.7639V50.76ZM78.3598 71.48C78.0955 71.48 77.7185 70.8572 75.6311 67.411C74.2279 65.0942 72.4321 62.0927 70.6945 59.1919C68.3467 55.2699 65.9212 51.2164 65.5208 50.6324C65.307 50.5434 65.1321 50.3848 65.0038 50.1644C64.8523 49.9014 64.8095 49.6345 64.8795 49.3753L64.9378 49.1587L65.1632 49.1278C65.3394 49.1046 65.9678 49.9877 67.0485 51.7773C67.9697 53.3012 69.2097 55.3705 70.5235 57.5674C73.0073 61.7098 76.2569 67.1403 77.4425 69.0046C77.6679 66.8927 78.115 61.0059 78.4026 56.9215L79.2966 44.2969L79.0828 56.9524C79.0012 61.8684 78.9001 69.2908 78.9546 70.0334C79.079 70.2732 79.1062 70.5323 79.0401 70.7799C78.9662 71.0506 78.7913 71.2711 78.5309 71.4181C78.4687 71.4568 78.4143 71.4838 78.356 71.4838L78.3598 71.48ZM77.9711 69.929C78.1422 70.1997 78.2821 70.424 78.3909 70.5865C78.4065 70.5246 78.4104 70.4356 78.3365 70.308C78.3015 70.25 78.2588 70.1726 78.2704 67.6083C78.1383 69.0316 78.0489 69.6505 77.975 69.9328L77.9711 69.929Z" fill="currentColor"/>
<path d="M69.2834 73.3687L66.9667 69.3694L51.1113 27.1211L59.0176 40.7629L69.2795 73.3687H69.2834ZM54.6136 34.5125L65.303 62.9952L58.3802 41.0027L54.6136 34.5125ZM75.4988 66.5575C75.2345 66.5575 74.8575 65.9347 72.7662 62.4846C71.3591 60.1639 69.5633 57.1625 67.8258 54.2578C65.4819 50.3397 63.0563 46.2939 62.6598 45.706C62.446 45.617 62.2711 45.4585 62.1428 45.238C61.9913 44.975 61.9485 44.7081 62.0185 44.449L62.0768 44.2324L62.3022 44.2014C62.4784 44.1756 63.1068 45.0601 64.1875 46.8547C65.1087 48.3787 66.3487 50.4518 67.6664 52.6488C70.4184 57.2476 74.1228 63.4284 74.8963 64.5617C75.0713 64.5114 75.2462 64.5114 75.425 64.5539C75.6971 64.6235 75.9186 64.7937 76.0625 65.0451C76.2141 65.3043 76.2529 65.5828 76.183 65.8535C76.1091 66.1204 75.9342 66.3447 75.6738 66.4917C75.6116 66.5304 75.5572 66.5575 75.4988 66.5575ZM75.2345 65.2037C75.3511 65.3855 75.4483 65.5402 75.5261 65.6601C75.5416 65.5982 75.5455 65.5093 75.4716 65.3816C75.4172 65.2849 75.3473 65.2308 75.2578 65.2076C75.2501 65.2076 75.2423 65.2076 75.2345 65.2037Z" fill="currentColor"/>
<path d="M110.591 50.8195C110.463 50.8195 110.327 50.7962 110.191 50.746C109.903 50.6415 109.701 50.4675 109.584 50.2199C109.468 49.9724 109.464 49.7055 109.569 49.4193C109.658 49.1756 109.802 48.99 110 48.8662C110.261 48.2435 111.462 44.1707 112.189 41.6411L114.093 35.0039L112.849 41.7958C112.36 44.4723 111.59 48.8082 111.551 49.3922C111.64 49.6243 111.637 49.8834 111.543 50.1387C111.442 50.4133 111.256 50.6183 110.999 50.7344C110.867 50.7924 110.727 50.8233 110.583 50.8233L110.591 50.8195ZM111.127 47.6362C110.595 49.3265 110.505 49.369 110.4 49.4193C110.346 49.4464 110.264 49.5005 110.21 49.6514C110.156 49.8022 110.179 49.8834 110.202 49.9337C110.226 49.984 110.272 50.0536 110.424 50.1078C110.575 50.1619 110.669 50.1348 110.727 50.1078C110.812 50.0691 110.871 50.0033 110.91 49.8989C110.964 49.7519 110.937 49.6591 110.91 49.6011C110.875 49.5276 110.836 49.4425 111.131 47.6324L111.127 47.6362Z" fill="currentColor"/>
<path d="M87.1167 66.8751L90.6306 63.5604C93.7169 60.6479 98.6263 55.8866 99.3104 54.8965C99.0267 54.5406 98.8401 54.1384 98.7585 53.6936C98.6652 53.183 98.7157 52.6531 98.9139 52.1194C99.0539 51.7365 99.6603 51.2839 100.504 50.6883C100.554 50.6535 100.605 50.6148 100.651 50.5838C99.2677 49.8876 94.2028 47.8106 90.0436 46.1049C84.1858 43.703 81.3599 42.5233 79.9917 41.889C79.8984 41.9702 79.7818 42.0089 79.6613 41.9895C79.4358 41.9547 79.3347 41.7575 79.2376 41.5641C79.2259 41.5447 79.2142 41.5215 79.2026 41.4983C78.7167 41.2276 78.7206 41.1309 78.7284 40.9916L78.74 40.7518L78.9849 40.6667C79.3347 40.57 79.5602 40.7866 79.704 41.0071C79.7234 41.0148 79.739 41.0264 79.7584 41.0342C79.809 40.9259 79.8634 40.7944 79.9217 40.6281L80.0344 40.3032L85.0254 42.0978L84.9127 42.415C84.8855 42.4885 84.8427 42.6161 84.765 42.7244C86.2732 43.4477 90.7122 45.2578 94.3894 46.7586C103.575 50.5065 103.571 50.5336 103.555 50.9087L103.543 51.1485L103.302 51.2259C102.677 51.4077 102.381 51.574 102.241 51.6784C102.164 51.7365 102.031 51.8216 101.798 51.9647C101.483 52.1619 100.749 52.6222 100.644 52.7846C100.543 53.0631 100.558 53.3416 100.702 53.6046C100.854 53.8831 101.102 54.0804 101.472 54.2157C101.744 54.3124 102.024 54.3163 102.327 54.2273C102.646 54.1345 102.906 53.9682 103.131 53.7207L103.353 53.477L104.768 54.6644L104.546 54.9235C104.092 55.4534 103.52 55.8209 102.84 56.0143C102.249 56.2541 95.4817 60.9767 91.0659 64.098L87.1206 66.8867L87.1167 66.8751ZM101.565 50.4523C101.565 50.4523 101.573 50.4871 101.577 50.5065L101.608 50.696L101.456 50.8314C101.336 50.9319 101.133 51.0751 100.896 51.2452C100.519 51.5121 99.6408 52.1348 99.5514 52.3553C99.3959 52.7769 99.3571 53.1869 99.427 53.5775C99.497 53.9682 99.6719 54.3008 99.9518 54.6025C100.236 54.9081 100.375 55.0589 95.6449 59.6964C95.2212 60.1142 94.7936 60.528 94.3777 60.9264C97.8722 58.4781 102.21 55.4766 102.646 55.3529C103.089 55.2291 103.47 55.0202 103.788 54.7224L103.404 54.3975C103.147 54.618 102.852 54.7766 102.525 54.8733C102.082 55.0048 101.647 54.997 101.242 54.8501C100.718 54.6605 100.337 54.3472 100.107 53.9256C99.8702 53.4886 99.843 53.0167 100.022 52.5255C100.123 52.2509 100.523 51.9685 101.444 51.3922C101.608 51.2917 101.779 51.1834 101.829 51.1447C101.977 51.0325 102.164 50.9242 102.397 50.8275C102.175 50.7231 101.895 50.6032 101.569 50.4601L101.565 50.4523ZM80.3765 41.3204C81.1656 41.6801 82.3356 42.1791 83.6805 42.7438C83.6805 42.7438 83.6805 42.736 83.6805 42.7322L83.6455 42.5542L83.7777 42.415C83.7777 42.415 83.8049 42.3918 83.8165 42.3802L80.4464 41.1696C80.4231 41.2237 80.3998 41.274 80.3765 41.3243V41.3204ZM104.884 48.0311C104.504 48.0311 103.473 47.6791 100.337 46.6116C97.7634 45.7336 94.4477 44.5848 91.2447 43.4709C86.9145 41.9663 82.4405 40.4153 81.7564 40.2219C81.5348 40.2916 81.3016 40.2838 81.0567 40.1949C80.7691 40.0904 80.5669 39.9125 80.4503 39.6688L80.3532 39.4638L80.5048 39.2937C80.624 39.1621 81.6761 39.4368 83.6611 40.1175C85.348 40.6938 87.6375 41.4867 90.0631 42.3299C95.1474 44.0936 101.985 46.4607 103.306 46.8359C103.407 46.6851 103.54 46.5729 103.703 46.4917C103.955 46.3718 104.231 46.3602 104.511 46.4607C104.795 46.5613 105.005 46.7508 105.126 47.0022C105.242 47.2536 105.25 47.536 105.149 47.8183C105.102 47.946 105.071 48.0272 104.884 48.0272V48.0311ZM103.983 47.1144C104.189 47.1802 104.364 47.2343 104.504 47.2769C104.476 47.2227 104.418 47.1492 104.282 47.0989C104.177 47.0603 104.092 47.0603 104.006 47.1028C103.998 47.1028 103.99 47.1105 103.987 47.1144H103.983Z" fill="currentColor"/>
<path d="M95.5015 53.8116C95.1361 53.8116 94.7823 53.7497 94.4364 53.6221C93.8728 53.4171 93.4063 53.1193 93.0487 52.7364C92.6833 52.3418 92.4501 51.8854 92.3568 51.371C92.2635 50.8643 92.3141 50.3344 92.5123 49.7968C92.6522 49.4139 93.2586 48.9614 94.1021 48.3657C94.1449 48.3348 94.1876 48.3038 94.2304 48.2767C92.7844 47.6308 87.669 45.782 83.4593 44.2619C72.179 40.1853 72.179 40.1234 72.1907 39.7289L72.1984 39.4852L72.4472 39.4001C72.8553 39.2879 73.0419 39.1603 73.1313 39.0713C73.2207 38.9824 73.3646 38.7774 73.5278 38.3016L73.6405 37.9806L75.3975 38.5956L75.2848 38.9166C75.2576 38.9901 75.2187 39.11 75.1448 39.2144C76.8279 40.0035 82.1221 42.1269 86.4912 43.8829C97.1807 48.1723 97.1807 48.2033 97.1612 48.5784L97.1496 48.8182L96.9086 48.8956C96.2828 49.0774 95.9835 49.2437 95.8474 49.3481C95.7697 49.4062 95.6375 49.4912 95.4043 49.6344C95.0894 49.8316 94.3548 50.288 94.2498 50.4505C94.1488 50.729 94.1643 51.0074 94.3081 51.2704C94.4597 51.5489 94.7085 51.7462 95.0778 51.8816C95.3499 51.9783 95.6297 51.9821 95.9329 51.8932C96.2517 51.8003 96.5121 51.634 96.7375 51.3865L96.9591 51.1428L98.374 52.3302L98.1524 52.5894C97.6977 53.1231 97.1224 53.4906 96.4382 53.6801C96.1234 53.7691 95.8163 53.8116 95.5092 53.8116H95.5015ZM95.1711 48.1491C95.1711 48.1491 95.1711 48.1684 95.1749 48.1762L95.2099 48.3696L95.0544 48.5088C94.9339 48.6094 94.7279 48.7564 94.4947 48.9227C94.1177 49.1896 93.2392 49.8123 93.1498 50.0327C92.9943 50.4621 92.9515 50.8605 93.0254 51.255C93.0954 51.6456 93.2703 51.9783 93.5501 52.2799C93.8339 52.5855 94.2109 52.8253 94.6696 52.9916C95.1749 53.1734 95.688 53.1889 96.2439 53.0342C96.6909 52.9104 97.0679 52.7015 97.3906 52.4037L97.0058 52.0788C96.7492 52.2993 96.4538 52.4579 96.1273 52.5546C95.6842 52.6861 95.2488 52.6783 94.8445 52.5314C94.3198 52.3418 93.9389 52.0285 93.7095 51.6069C93.4724 51.1699 93.4452 50.698 93.624 50.2068C93.7251 49.9322 94.1254 49.6498 95.0467 49.0735C95.2099 48.973 95.381 48.8647 95.4315 48.826C95.5753 48.7138 95.758 48.6132 95.9873 48.5127C95.7658 48.4121 95.4937 48.2961 95.1788 48.1607L95.1711 48.1491ZM73.3179 39.7714C74.9116 40.4521 79.5372 42.123 83.6886 43.6238C84.9558 44.0802 86.0831 44.4901 87.0859 44.8537C86.7983 44.7377 86.5145 44.6217 86.2308 44.5095C74.1264 39.6515 74.1109 39.5625 74.0448 39.2338L74.0098 39.0558L74.1459 38.9166C74.1459 38.9166 74.1692 38.8973 74.177 38.8857L74.0487 38.8431C73.9126 39.1603 73.7688 39.3962 73.6094 39.5509C73.5278 39.6322 73.4306 39.7056 73.3218 39.7714H73.3179ZM98.4867 45.7085C98.1058 45.7085 97.0757 45.3565 93.9389 44.289C91.3656 43.411 88.0499 42.2623 84.847 41.1483C80.5168 39.6438 76.0427 38.0928 75.3586 37.8994C75.1371 37.969 74.9038 37.9613 74.659 37.8723C74.3713 37.7679 74.1692 37.5899 74.0526 37.3463L73.9554 37.1413L74.107 36.9711C74.2262 36.8396 75.2783 37.1142 77.2633 37.7949C78.9503 38.3712 81.2398 39.168 83.6692 40.0073C88.2482 41.5931 94.2459 43.674 96.3605 44.3432C95.1711 42.5833 91.7077 37.7872 89.2899 34.4725L81.8189 24.2305L89.8302 34.0586C92.9438 37.8762 97.6627 43.6276 98.1835 44.1614C98.4323 44.2658 98.6228 44.4437 98.7316 44.6758C98.8482 44.9272 98.8599 45.2096 98.7549 45.4919C98.7083 45.6196 98.6772 45.7008 98.4906 45.7008L98.4867 45.7085ZM97.3595 44.7222C97.6666 44.8228 97.9192 44.9001 98.1019 44.9582C98.0747 44.904 98.0203 44.8305 97.8803 44.7802C97.8143 44.757 97.7326 44.7261 96.0845 42.7535C96.9008 43.9293 97.2351 44.4592 97.3595 44.7222Z" fill="currentColor"/>
<path d="M92.928 52.9119L88.5706 51.33L49.1323 29.1055L64.0004 34.5011L92.9241 52.9158L92.928 52.9119ZM56.5877 32.5285L83.1715 47.5086L63.6622 35.089L56.5839 32.5246L56.5877 32.5285ZM93.1107 43.7645C92.7298 43.7645 91.6997 43.4126 88.5628 42.345C85.9896 41.467 82.6739 40.3183 79.471 39.2044C75.1408 37.6998 70.6667 36.1488 69.9826 35.9554C69.761 36.025 69.5278 36.0173 69.2829 35.9283C68.9953 35.8239 68.7932 35.646 68.6765 35.4023L68.5794 35.1973L68.731 35.0271C68.8502 34.8956 69.9023 35.1702 71.8873 35.851C73.5743 36.4273 75.8638 37.2202 78.2893 38.0634C83.3736 39.8271 90.2071 42.1942 91.5326 42.5694C91.6336 42.4224 91.7697 42.3064 91.9329 42.2251C92.1817 42.1052 92.4616 42.0936 92.7414 42.1942C93.0252 42.2986 93.2351 42.4843 93.3556 42.7357C93.4722 42.9871 93.4839 43.2695 93.3789 43.5518C93.3323 43.6794 93.3012 43.7607 93.1146 43.7607L93.1107 43.7645ZM92.2089 42.8479C92.4149 42.9136 92.5898 42.9678 92.7298 43.0103C92.7026 42.9562 92.6481 42.8827 92.5082 42.8324C92.4033 42.7937 92.3177 42.7976 92.2322 42.8363C92.2245 42.8363 92.2167 42.844 92.2128 42.8479H92.2089Z" fill="currentColor"/>
</svg>
