<svg width="295" height="88" viewBox="0 0 295 88" fill="none" xmlns="http://www.w3.org/2000/svg">
<path fill-rule="evenodd" clip-rule="evenodd" d="M179.337 18.8477L181.078 20.0928L162.076 46.9121L169.323 46.1616L170.775 44.9468L172.147 46.597L171.541 47.1049L171.645 48.0856L170.193 48.2353L168.929 49.2919L189.146 47.2021L209.242 18.8477L210.983 20.0928L191.981 46.9121L199.229 46.1616L200.68 44.9468L202.052 46.597L201.446 47.1049L201.55 48.0856L200.098 48.2353L198.834 49.2919L219.052 47.2021L239.148 18.8477L240.889 20.0928L221.886 46.9121L229.134 46.1616L230.585 44.9468L231.957 46.597L231.35 47.1059L231.446 48.0857L230.003 48.2353L228.739 49.2919L248.957 47.2021L269.053 18.8477L270.794 20.0928L251.791 46.9123L261.137 45.9476L261.352 48.0858L250.14 49.2409L248.706 51.2632L246.965 50.0181L247.306 49.5369L225.788 51.7556L204.991 69.1552L203.626 67.5035L223.382 50.9761L223.273 49.8564L224.919 49.688L226.189 48.6251L220.235 49.2408L218.801 51.2632L217.06 50.0181L217.401 49.5369L195.883 51.7556L175.093 69.1546L173.721 67.5042L193.477 50.9761L193.368 49.8563L195.02 49.688L196.287 48.6248L190.329 49.2408L188.896 51.2632L187.155 50.0181L187.496 49.5369L165.977 51.7556L145.188 69.1546L143.815 67.5042L163.572 50.9761L163.463 49.8563L165.114 49.688L166.382 48.6248L160.424 49.2408L158.991 51.2632L157.25 50.0181L157.591 49.5369L136.072 51.7556L115.283 69.1546L113.91 67.5042L133.672 50.9769L133.556 49.8565L135.209 49.688L136.477 48.6248L130.519 49.2408L129.086 51.2632L127.345 50.0181L127.685 49.5369L106.167 51.7556L85.3776 69.1546L84.0052 67.5042L103.767 50.9769L103.651 49.8565L105.304 49.688L106.572 48.6248L100.614 49.2408L99.1804 51.2632L97.4396 50.0181L97.7803 49.5369L76.2684 51.7556L55.4724 69.1545L54.1001 67.5042L73.862 50.9769L73.7455 49.8565L75.3992 49.688L76.6666 48.6248L70.7091 49.2408L69.2753 51.2632L67.5345 50.0181L67.8752 49.5369L46.3633 51.7556L25.5666 69.1552L24.2021 67.5035L43.9569 50.9769L43.8404 49.8565L45.4943 49.688L51.1614 44.9462L52.5258 46.5978L49.3069 49.2921L69.5324 47.2021L89.6284 18.8477L91.3695 20.0929L72.3606 46.9121L79.6144 46.1615L81.0665 44.9461L82.4308 46.5976L81.8253 47.1049L81.9296 48.0856L80.4773 48.2353L79.2133 49.2919L99.4312 47.2021L119.534 18.8477L121.275 20.0929L102.266 46.9121L109.52 46.1615L110.972 44.9461L112.336 46.5976L111.73 47.1049L111.835 48.0856L110.382 48.2353L109.118 49.2919L129.336 47.2021L149.432 18.8483L151.18 20.0922L132.171 46.912L139.418 46.1616L140.87 44.9468L142.242 46.597L141.636 47.1049L141.74 48.0856L140.287 48.2353L139.023 49.2919L159.241 47.2021L179.337 18.8477ZM149.581 19.7328L129.685 47.8048L107.118 50.1375L110.126 47.623L111.139 47.5186L111.066 46.8344L111.447 46.5156L110.89 45.8415L109.776 46.7738L100.94 47.6881L120.393 20.242L119.682 19.7334L99.78 47.8048L77.2132 50.1375L80.2213 47.623L81.2337 47.5186L81.161 46.8344L81.5415 46.5156L80.9846 45.8415L79.8708 46.7738L71.0345 47.6881L90.4877 20.242L89.7766 19.7335L69.8812 47.8048L47.3094 50.1373L51.6363 46.5155L51.0794 45.8414L45.7501 50.3006L44.5349 50.4244L44.6206 51.2483L25.0918 67.5859L25.6485 68.2599L46.1072 51.1432L69.2001 48.7615L68.416 49.8688L69.1272 50.3775L70.3603 48.6381L78.6603 47.7799L75.6555 50.3006L74.44 50.4244L74.5257 51.2484L54.9913 67.5853L55.5529 68.2606L76.0123 51.1432L99.1052 48.7615L98.3211 49.8688L99.0323 50.3775L100.265 48.6381L108.565 47.7799L105.561 50.3006L104.345 50.4244L104.431 51.2484L84.8964 67.5853L85.4579 68.2606L105.911 51.1432L129.01 48.7615L128.226 49.8688L128.937 50.3775L130.171 48.6381L138.47 47.7799L135.466 50.3006L134.25 50.4244L134.336 51.2484L114.802 67.5853L115.363 68.2606L135.816 51.1432L158.915 48.7615L158.131 49.8688L158.842 50.3775L160.076 48.6381L168.376 47.7799L165.371 50.3006L164.153 50.4246L164.234 51.2492L144.707 67.5853L145.268 68.2606L165.721 51.1432L188.82 48.7615L188.036 49.8688L188.748 50.3775L189.981 48.6381L198.281 47.7799L195.276 50.3006L194.058 50.4246L194.139 51.2492L174.612 67.5853L175.173 68.2606L195.626 51.1432L218.726 48.7615L217.941 49.8688L218.653 50.3775L219.886 48.6381L228.188 47.7797L225.174 50.3005L223.963 50.4245L224.044 51.2492L204.516 67.5859L205.073 68.2599L225.531 51.1432L248.631 48.7615L247.847 49.8688L248.558 50.3775L249.791 48.6381L260.66 47.5184L260.572 46.6447L250.465 47.6879L269.912 20.242L269.201 19.7335L249.306 47.8048L226.739 50.1375L229.747 47.623L230.755 47.5185L230.688 46.8334L231.066 46.5163L230.505 45.8408L229.39 46.7738L220.56 47.6881L240.007 20.242L239.296 19.7335L219.4 47.8048L196.834 50.1375L199.842 47.623L200.854 47.5186L200.781 46.8344L201.161 46.5163L200.599 45.8408L199.485 46.7738L190.655 47.6881L210.102 20.242L209.391 19.7335L189.495 47.8048L166.928 50.1375L169.937 47.623L170.949 47.5186L170.876 46.8344L171.256 46.5163L170.694 45.8408L169.58 46.7738L160.75 47.6881L180.197 20.242L179.486 19.7335L159.59 47.8048L137.023 50.1375L140.031 47.623L141.044 47.5186L140.971 46.8344L141.351 46.5163L140.789 45.8408L139.675 46.7738L130.845 47.6881L150.297 20.2426L149.581 19.7328Z" fill="currentColor"/>
</svg>
