<svg width="119" height="117" viewBox="0 0 119 117" fill="none" xmlns="http://www.w3.org/2000/svg">
<path d="M59.7834 71.2869L58.9719 66.5457C58.5543 64.1046 57.8557 60.1606 57.7165 59.711C57.5721 59.5516 57.4985 59.3503 57.4985 59.1125C57.4985 58.8642 57.5826 58.6551 57.7533 58.4931C57.9187 58.331 58.1341 58.25 58.3862 58.25C58.6383 58.25 58.851 58.331 59.0112 58.4905C59.1714 58.6499 59.2502 58.859 59.2502 59.1125C59.2502 59.3373 59.1846 59.5307 59.0585 59.6875C59.0218 60.2259 59.2712 64.0941 59.4393 66.4882L59.7807 71.2843L59.7834 71.2869ZM58.3862 58.7257C58.2575 58.7257 58.1603 58.7597 58.0842 58.8355C58.008 58.9086 57.9739 58.9975 57.9739 59.1151C57.9739 59.2432 58.0106 59.3373 58.0868 59.4131C58.1341 59.4601 58.205 59.5307 58.6803 62.1365C58.5333 59.5568 58.6016 59.4836 58.6698 59.4157C58.7434 59.3399 58.7801 59.2432 58.7801 59.1151C58.7801 58.987 58.746 58.8956 58.6777 58.8276C58.6094 58.7597 58.5149 58.7283 58.3888 58.7283L58.3862 58.7257Z" fill="currentColor"/>
<path d="M64.5055 60.0004C64.2508 60.0004 64.0354 59.9168 63.87 59.7495C63.7045 59.5822 63.6179 59.3705 63.6179 59.117C63.6179 58.9166 65.0737 58.7894 67.9853 58.7354C70.4277 58.6884 73.5818 58.6465 76.6309 58.6047C80.7987 58.5472 85.1031 58.4897 85.6704 58.4427C85.8279 58.3172 86.0197 58.2545 86.2429 58.2545C86.4976 58.2545 86.7077 58.3355 86.8679 58.495L86.9782 58.6047L86.9178 58.7511C86.8688 58.8696 85.9163 58.9454 84.0605 58.9785C82.4585 59.0072 80.2813 59.036 77.9729 59.07C72.7992 59.1405 66.4358 59.2294 65.3485 59.3209C65.3144 59.4855 65.2409 59.6293 65.1253 59.7495C64.9599 59.9168 64.7524 60.003 64.5029 60.003L64.5055 60.0004ZM64.1326 59.3156C64.151 59.3522 64.1746 59.3862 64.2035 59.415C64.2797 59.4908 64.3768 59.5273 64.5055 59.5273C64.6237 59.5273 64.713 59.4934 64.7865 59.4176C64.8259 59.3784 64.8522 59.3339 64.8706 59.2817C64.5475 59.2921 64.2954 59.3052 64.1326 59.3156ZM82.3744 57.7292V57.4965C82.3692 57.4025 82.3692 57.2535 82.427 57.1332C81.0062 56.9817 76.602 56.8065 72.9673 56.6628C64.1037 56.3099 64.0906 56.2707 64.0092 56.0094L63.9593 55.8499L64.1011 55.7376C64.4871 55.4553 64.7471 55.2122 64.8732 55.011C64.9205 54.9378 65.0176 54.8123 65.1516 54.6398C65.3643 54.368 65.858 53.7355 65.8896 53.5656C65.8896 53.265 65.7845 53.0194 65.5665 52.826C65.3407 52.6273 65.0518 52.528 64.6815 52.528C64.4084 52.528 64.1562 52.6142 63.9146 52.7946C63.6651 52.9775 63.4865 53.2075 63.371 53.5003L63.2843 53.7146L61.853 53.1919L61.9344 52.9697C62.1472 52.3947 62.5122 51.919 63.0191 51.5557C63.413 51.2212 67.6938 45.1314 70.4776 41.1142L72.3921 38.3516L70.8847 41.3546C69.1435 44.8256 66.4174 50.458 66.2178 51.3884C66.5776 51.5975 66.8665 51.8824 67.0766 52.2353C67.3077 52.6247 67.4233 53.0769 67.4233 53.5787C67.4233 53.9237 67.0372 54.5065 66.533 55.2357C66.4778 55.3168 66.4227 55.3952 66.3754 55.4631C67.5782 55.6278 72.4683 55.8343 76.8304 56.0146C82.6187 56.2551 85.3552 56.3884 86.6631 56.5034C86.6657 56.4955 86.671 56.4877 86.6736 56.4772C86.7156 56.391 86.7891 56.3309 86.8784 56.3152C87.0465 56.2838 87.1726 56.4014 87.3091 56.5269C87.3249 56.5426 87.3459 56.5609 87.3695 56.5818C87.8449 56.6549 87.8685 56.7255 87.8974 56.8248L87.9473 56.9843L87.8055 57.1019C87.5691 57.2692 87.3354 57.1594 87.1594 57.0235C87.1148 57.0182 87.0675 57.013 87.0176 57.0078C87.0019 57.128 86.994 57.2822 86.9966 57.4782L87.0019 57.7187L82.3718 57.7318L82.3744 57.7292ZM82.9837 56.7543C83.1177 56.7935 83.1597 56.8327 83.1886 56.8797L83.2542 56.9895L83.1991 57.115C83.1728 57.1725 83.1439 57.2169 83.1124 57.2535L86.5265 57.2456C86.5291 57.1437 86.537 57.0496 86.5475 56.9634C85.7203 56.898 84.457 56.8274 82.9837 56.7543ZM64.7892 55.7951C65.1043 55.8238 65.5639 55.8552 66.1285 55.8865C65.8896 55.8369 65.8344 55.7846 65.8003 55.7219L65.7346 55.6043L65.8003 55.4762C65.8685 55.356 65.9972 55.173 66.1417 54.9613C66.4043 54.5823 66.9479 53.7982 66.9479 53.5735C66.9479 53.1579 66.8534 52.7867 66.6669 52.4705C66.4778 52.1516 66.2231 51.9138 65.8817 51.7387C65.6059 51.5975 65.4405 51.5139 67.9774 46.2108C68.3425 45.4502 68.7101 44.6871 69.0515 43.9944C66.8665 47.123 63.652 51.6838 63.3027 51.9321C62.9403 52.1908 62.6619 52.5202 62.4754 52.9096L63.0296 53.1108C63.1766 52.8338 63.3789 52.5986 63.6336 52.4104C63.9566 52.1725 64.3112 52.0523 64.6841 52.0523C65.1673 52.0523 65.5718 52.1935 65.8843 52.4679C66.2047 52.7528 66.3649 53.1239 66.3649 53.5708C66.3649 53.8113 66.1075 54.1824 65.5298 54.9221C65.4168 55.0659 65.3118 55.2018 65.2776 55.2566C65.1726 55.4213 65.0124 55.599 64.7918 55.7898L64.7892 55.7951Z" fill="currentColor"/>
<path d="M88.3672 70.5187L80.7669 65.9814C76.9247 63.6893 71.1181 60.2471 70.5797 59.9962C70.3434 59.9857 70.1464 59.9021 69.9888 59.7479C69.8234 59.5832 69.7367 59.3689 69.7367 59.1154C69.7367 58.915 71.1925 58.7878 74.1041 58.7338C76.5465 58.6867 79.7006 58.6449 82.7497 58.6031C86.9175 58.5456 91.2219 58.4881 91.7892 58.4411C91.9468 58.3156 92.1385 58.2529 92.3617 58.2529C92.6165 58.2529 92.8266 58.3339 92.9868 58.4933L93.0971 58.6031L93.0367 58.7495C92.9876 58.868 92.0352 58.9437 90.1793 58.9769C88.5773 59.0056 86.4002 59.0344 84.0917 59.0683C79.3461 59.1337 73.5973 59.2121 71.8403 59.2957C73.2322 60.3203 77.836 63.4462 81.019 65.5842L88.3646 70.5187H88.3672ZM70.2514 59.314C70.2698 59.3506 70.2935 59.3846 70.3223 59.4133C70.3985 59.4891 70.4957 59.5257 70.6244 59.5257C70.6848 59.5257 70.7819 59.5257 74.2906 61.5879C71.9427 59.9753 71.2783 59.4839 71.0892 59.2774C70.7189 59.2905 70.4326 59.3009 70.2514 59.314ZM91.5896 57.7301V57.4949C91.5844 57.4034 91.5843 57.2571 91.6369 57.1395C90.0559 56.9853 84.8323 56.8075 80.5253 56.6585C70.2225 56.3057 70.212 56.2717 70.128 56.0051L70.0781 55.8457L70.2173 55.7359C70.6034 55.4537 70.8634 55.2106 70.9894 55.0093C71.0367 54.9362 71.1339 54.8107 71.2704 54.6356C71.4805 54.3638 71.9769 53.7313 72.0058 53.564C72.0058 53.2634 71.8981 53.0177 71.6827 52.8243C71.4569 52.6257 71.168 52.5264 70.7977 52.5264C70.5246 52.5264 70.2724 52.6126 70.0308 52.793C69.7813 52.9759 69.6028 53.2059 69.4872 53.496L69.4005 53.7104L67.9692 53.1876L68.0533 52.9655C68.2686 52.3905 68.6337 51.9122 69.1405 51.5489C69.65 51.1856 70.2094 51 70.8003 51C71.3282 51 71.8035 51.1072 72.2159 51.3162C72.6334 51.5306 72.9617 51.8364 73.1928 52.2284C73.4239 52.6178 73.5395 53.07 73.5395 53.5718C73.5395 53.9168 73.1534 54.4997 72.6492 55.2289C72.5967 55.3047 72.5468 55.3752 72.5021 55.4406C73.7653 55.553 78.8182 55.5504 82.9598 55.5477C93.6853 55.5425 93.7116 55.6 93.8088 55.8823L93.8639 56.0443L93.7195 56.1646C93.4621 56.3501 93.2967 56.52 93.2231 56.6742C93.1706 56.784 93.1102 57.0114 93.1181 57.474L93.1233 57.7118L91.5896 57.7275V57.7301ZM75.2492 55.9999C76.8932 56.0626 78.7631 56.128 80.5437 56.1881C91.7262 56.5697 92.2645 56.6533 92.4037 56.8833L92.4694 56.9931L92.4142 57.1185C92.388 57.1734 92.3591 57.2179 92.3302 57.2545H92.6453C92.6559 56.9199 92.7057 56.6664 92.7924 56.4782C92.8502 56.3554 92.9369 56.2351 93.0498 56.1149C91.6237 56.0208 87.0541 56.0234 82.9598 56.026C79.3041 56.0287 76.8695 56.0208 75.2465 56.0025L75.2492 55.9999ZM70.9185 55.7882C71.2231 55.8143 71.6591 55.8405 72.1975 55.8692C72.0058 55.83 71.9532 55.7856 71.9217 55.7281L71.8534 55.6105L71.9217 55.4798C71.99 55.3596 72.1187 55.1766 72.2631 54.9649C72.5258 54.5859 73.0694 53.8018 73.0694 53.5771C73.0694 53.1615 72.9748 52.7903 72.7884 52.4741C72.6045 52.1605 72.3393 51.9148 72.0031 51.7423C71.6591 51.5672 71.2573 51.4783 70.8056 51.4783C70.3145 51.4783 69.8496 51.6325 69.4215 51.9383C69.0591 52.1971 68.7807 52.5264 68.5943 52.9158L69.1484 53.1171C69.2955 52.84 69.4977 52.6048 69.7525 52.4166C70.0755 52.1788 70.43 52.0585 70.8029 52.0585C71.2862 52.0585 71.6906 52.1997 72.0031 52.4741C72.3235 52.759 72.4864 53.1301 72.4864 53.5771C72.4864 53.8175 72.229 54.1887 71.6512 54.9283C71.5383 55.0721 71.4332 55.208 71.3991 55.2629C71.2967 55.4275 71.1391 55.6 70.9211 55.7882H70.9185Z" fill="currentColor"/>
<path d="M75.7615 59.9996C75.5068 59.9996 75.2914 59.9159 75.126 59.7487C74.9605 59.5814 74.8738 59.3697 74.8738 59.1162C74.8738 58.9158 76.3297 58.7886 79.2413 58.7346C81.6837 58.6875 84.8378 58.6457 87.8868 58.6039C92.0547 58.5464 96.3591 58.4889 96.9263 58.4418C97.0839 58.3164 97.2756 58.2537 97.4989 58.2537C97.7536 58.2537 97.9637 58.3347 98.1239 58.4941L98.2342 58.6039L98.1738 58.7503C98.1248 58.8687 97.1723 58.9445 95.3165 58.9776C93.7145 59.0064 91.5373 59.0351 89.2288 59.0691C84.0552 59.1397 77.6918 59.2286 76.6045 59.32C76.5704 59.4847 76.4969 59.6284 76.3813 59.7487C76.2158 59.9159 76.0084 60.0022 75.7589 60.0022L75.7615 59.9996ZM75.3886 59.3148C75.407 59.3514 75.4306 59.3854 75.4595 59.4141C75.5356 59.4899 75.6328 59.5265 75.7589 59.5265C75.8771 59.5265 75.969 59.4925 76.0399 59.4167C76.0793 59.3775 76.1055 59.3331 76.1239 59.2808C75.8009 59.2913 75.5488 59.3043 75.386 59.3148H75.3886ZM115.796 57.7179L102.418 57.7126L72.9199 51.1445H76.4522L115.796 57.7179ZM102.494 57.2448H110.094L79.6877 52.1665L102.494 57.2448Z" fill="currentColor"/>
<path d="M67.4996 67.1408L63.815 64.0279C61.9189 62.4257 58.8357 59.8513 58.4391 59.5952C58.2264 59.5638 58.0399 59.4566 57.8876 59.2763C57.7274 59.0855 57.6591 58.8712 57.6828 58.6386C57.7064 58.4086 57.8167 58.2099 58.0111 58.0479C58.208 57.8832 58.4208 57.8126 58.644 57.8309C58.8698 57.8519 59.0668 57.959 59.2296 58.155C59.3741 58.3275 59.4502 58.5157 59.4529 58.717C59.7733 59.1535 62.4625 61.9579 64.1381 63.6829L67.497 67.1381L67.4996 67.1408ZM58.5783 58.304C58.4917 58.304 58.4076 58.3406 58.3183 58.4138C58.2185 58.4974 58.1686 58.5863 58.1555 58.6908C58.145 58.7928 58.1765 58.8842 58.2527 58.9757C58.3341 59.075 58.4234 59.1247 58.5311 59.1325C58.5967 59.1378 58.6965 59.1456 60.745 60.8393C58.9644 58.9574 58.9723 58.8581 58.9801 58.7614C58.988 58.6542 58.9513 58.5602 58.8698 58.4608C58.7884 58.3641 58.7018 58.3119 58.6046 58.304C58.5967 58.304 58.5862 58.304 58.5783 58.304Z" fill="currentColor"/>
<path d="M63.253 55.69C63.2267 55.69 63.2005 55.69 63.1768 55.6873C62.9405 55.6664 62.7383 55.5567 62.5754 55.3632C62.4459 55.2099 63.4797 54.181 65.677 52.2765C67.5206 50.677 69.9079 48.6279 72.219 46.6441C75.3731 43.9364 78.6322 41.1398 79.0367 40.7399C79.0761 40.5439 79.1811 40.3714 79.3545 40.2276C79.5488 40.0656 79.7642 39.9924 79.9874 40.0107L80.145 40.0237L80.1949 40.1727C80.2351 40.2947 79.5541 40.962 78.1516 42.1748C76.9409 43.2228 75.2917 44.6394 73.5452 46.1397C69.6295 49.5034 64.813 53.6409 64.0383 54.4066C64.1197 54.553 64.1538 54.7124 64.1433 54.8771C64.1275 55.1097 64.0199 55.311 63.8308 55.4704C63.6574 55.6168 63.4657 55.69 63.2583 55.69H63.253ZM63.0981 55.1855C63.1348 55.2012 63.1742 55.2117 63.2162 55.2169C63.3239 55.2273 63.4211 55.1934 63.5183 55.1097C63.6102 55.0339 63.6548 54.9503 63.6627 54.8457C63.6653 54.7909 63.6601 54.7386 63.6391 54.6889C63.3975 54.9032 63.2136 55.0731 63.0954 55.1881L63.0981 55.1855ZM60.9761 52.7705C60.9288 52.7705 60.8999 52.7522 60.8658 52.7313L60.7239 52.6398L60.7607 52.4647C60.8736 52.0021 60.9157 51.6493 60.8841 51.414C60.871 51.3278 60.8658 51.1683 60.8579 50.9488C60.8447 50.6064 60.8132 49.804 60.7292 49.6576C60.5349 49.4276 60.2959 49.3074 60.0044 49.297C59.6971 49.2865 59.4187 49.3989 59.1351 49.6341C58.925 49.8092 58.7884 50.0366 58.7201 50.3294C58.6466 50.6299 58.6597 50.92 58.7595 51.218L58.8304 51.4349L57.3965 51.9498L57.3151 51.7277C57.1076 51.15 57.0787 50.5515 57.2337 49.9504C57.3203 49.4433 56.6638 42.0389 56.2016 37.1801L55.8838 33.8398L56.669 37.1043C57.5777 40.8758 59.1272 46.9368 59.5737 47.7784C59.986 47.7079 60.3904 47.7418 60.7791 47.8778C61.2072 48.0293 61.588 48.3012 61.911 48.6854C62.1342 48.9493 62.2156 49.642 62.2997 50.5228C62.3102 50.6221 62.3181 50.7136 62.3259 50.7972C63.3528 50.1542 67.2344 47.1825 70.6931 44.5297C75.2838 41.0117 77.4636 39.3625 78.5377 38.615C78.5377 38.6071 78.5324 38.5967 78.5298 38.5888C78.5062 38.4974 78.5246 38.4033 78.5823 38.3327C78.69 38.1994 78.8634 38.2099 79.0472 38.2203C79.0682 38.2203 79.0971 38.2229 79.1286 38.2255C79.5383 37.9773 79.604 38.0191 79.6906 38.074L79.8324 38.1628L79.8009 38.3432C79.73 38.6228 79.4779 38.6882 79.2547 38.696C79.2179 38.7195 79.1785 38.7457 79.1365 38.7744C79.2021 38.8763 79.2967 39.0018 79.4254 39.1482L79.5829 39.3285L76.0454 42.3002L75.8931 42.1225C75.8301 42.0519 75.7329 41.9369 75.7014 41.8089C74.5143 42.6034 71.0293 45.285 68.1483 47.5014C62.15 52.1171 61.2544 52.7705 60.9761 52.7705ZM59.9702 48.8239C59.986 48.8239 60.0017 48.8239 60.0149 48.8239C60.4429 48.837 60.808 49.0173 61.0969 49.3597C61.2518 49.5426 61.2938 49.9922 61.3306 50.9279C61.3385 51.1108 61.3437 51.2833 61.3516 51.3461C61.3779 51.5395 61.37 51.7773 61.3227 52.0648C61.5827 51.8845 61.9556 51.6153 62.4074 51.2781C62.192 51.3931 62.1158 51.3879 62.0476 51.3617L61.9215 51.3147L61.89 51.1736C61.8664 51.0377 61.8453 50.8155 61.8191 50.562C61.7744 50.1046 61.6851 49.1558 61.5381 48.9833C61.2702 48.6645 60.9577 48.4423 60.6084 48.3168C60.2591 48.194 59.9072 48.1757 59.5343 48.2593C59.2322 48.3273 59.051 48.3691 57.5698 42.687C57.3571 41.8716 57.147 41.0509 56.9605 40.3034C57.3072 44.0984 57.7904 49.6472 57.6854 50.0628C57.5751 50.494 57.5751 50.9227 57.6854 51.3408L58.2395 51.1422C58.1739 50.8364 58.1765 50.5254 58.2527 50.2196C58.3472 49.8301 58.5389 49.5113 58.8252 49.2734C59.1823 48.9755 59.5658 48.8239 59.9676 48.8239H59.9702ZM76.0533 41.1189C76.0795 41.1189 76.1006 41.1241 76.1216 41.1319L76.2424 41.1737L76.2818 41.3044C76.2975 41.3645 76.3054 41.4194 76.3054 41.4665L78.9159 39.2762C78.8528 39.1952 78.7977 39.1194 78.7504 39.0462C78.0755 39.5245 77.0618 40.2773 75.8852 41.1659C75.964 41.1319 76.0139 41.1189 76.0559 41.1189H76.0533Z" fill="currentColor"/>
<path d="M67.9409 51.7745C67.9147 51.7745 67.891 51.7745 67.8648 51.7719C67.6284 51.751 67.4262 51.6412 67.2634 51.4478C67.1338 51.2945 68.1677 50.2656 70.3649 48.3611C72.2086 46.7615 74.5958 44.7124 76.9069 42.7287C80.061 40.0209 83.3202 37.2243 83.7246 36.8244C83.764 36.6284 83.869 36.4559 84.0424 36.3122C84.2367 36.1475 84.4521 36.0769 84.6753 36.0952L84.8329 36.1083L84.8828 36.2573C84.923 36.3792 84.2428 37.0457 82.8422 38.2567C81.6341 39.3022 79.9848 40.7188 78.2384 42.219C74.6431 45.3057 70.2914 49.0459 68.9993 50.2325C70.7274 50.1279 76.274 49.5764 80.0925 49.1792L88.9062 48.2618L80.1555 49.647C75.733 50.3475 69.0597 51.4269 68.4845 51.5811C68.3191 51.7066 68.1405 51.7719 67.9488 51.7719L67.9409 51.7745ZM67.786 51.2701C67.8227 51.2858 67.8621 51.2962 67.9068 51.3014C68.0171 51.3119 68.1116 51.2779 68.2088 51.1943C68.2561 51.1551 68.3296 51.0923 72.3504 50.4285C69.5088 50.6951 68.6841 50.7447 68.4058 50.7055C68.13 50.9538 67.9199 51.1446 67.7886 51.2701H67.786ZM65.6613 48.8524C65.6167 48.8524 65.5878 48.8342 65.5537 48.8132L65.4119 48.7218L65.4486 48.5466C65.5642 48.084 65.6036 47.7312 65.5721 47.496C65.5589 47.4097 65.5537 47.2503 65.5458 47.0307C65.5327 46.6883 65.5011 45.886 65.4171 45.7396C65.2228 45.5096 64.9812 45.3894 64.6923 45.3789C64.3876 45.3711 64.1066 45.4808 63.823 45.7161C63.6129 45.8912 63.4763 46.1186 63.408 46.4113C63.3345 46.7119 63.3476 47.002 63.4474 47.2999L63.5183 47.5169L62.0844 48.0318L62.003 47.8096C61.7955 47.232 61.7666 46.6335 61.9216 46.0297C62.0765 45.4233 62.3838 44.9267 62.8381 44.5478C63.2426 44.2106 63.6759 43.9858 64.1276 43.8865C64.5846 43.782 65.0363 43.8081 65.467 43.9597C65.8951 44.1113 66.2759 44.3831 66.5989 44.7673C66.8221 45.0313 66.9036 45.7265 66.9876 46.6047C66.9955 46.6962 67.0034 46.7824 67.0139 46.8608C68.0538 46.1369 71.9223 42.9038 75.0922 40.2535C83.3097 33.3823 83.3648 33.4162 83.6195 33.5704L83.7666 33.6593L83.7325 33.8423C83.6537 34.1481 83.6379 34.3833 83.6826 34.5506C83.7141 34.6682 83.8139 34.8825 84.1185 35.2301L84.2761 35.4104L83.1101 36.4036L82.9551 36.2259C82.8947 36.1553 82.8002 36.0456 82.766 35.9227C81.4555 36.8166 77.3376 40.0209 73.9445 42.6633C66.9298 48.1232 65.9529 48.8524 65.664 48.8524H65.6613ZM64.6608 44.9084C64.6765 44.9084 64.6923 44.9084 64.708 44.9084C65.1361 44.9215 65.5011 45.1019 65.79 45.4442C65.945 45.6272 65.987 46.0768 66.0238 47.0124C66.0316 47.1954 66.0369 47.3679 66.0448 47.4306C66.071 47.6214 66.0632 47.8566 66.0185 48.1389C66.268 47.9638 66.6199 47.7051 67.0506 47.3836C66.8773 47.4777 66.809 47.4751 66.7486 47.4515L66.6199 47.4045L66.5884 47.2607C66.5648 47.1248 66.5438 46.9027 66.5175 46.6491C66.4729 46.1918 66.3836 45.243 66.2365 45.0705C65.9686 44.7516 65.6561 44.5295 65.3068 44.4066C64.9575 44.2838 64.6056 44.2629 64.2327 44.3491C63.8571 44.4328 63.4895 44.6236 63.1454 44.9137C62.7646 45.2325 62.5151 45.6377 62.3838 46.1499C62.2735 46.5812 62.2735 47.0098 62.3838 47.428L62.9379 47.2294C62.8723 46.9236 62.8749 46.6125 62.9511 46.3067C63.0456 45.9173 63.2373 45.5985 63.5236 45.3606C63.8808 45.0627 64.2642 44.9111 64.666 44.9111L64.6608 44.9084ZM83.1862 34.2317C82.0307 35.0733 78.5325 37.998 75.3994 40.6195C72.5999 42.9613 70.7326 44.5112 69.4746 45.5357C70.7746 44.5321 72.2506 43.3847 73.653 42.2922C82.4693 35.4287 82.9315 35.1517 83.1862 35.2379L83.307 35.2798L83.3464 35.4104C83.3622 35.4679 83.3674 35.5202 83.3701 35.5673L83.609 35.3634C83.4042 35.102 83.2755 34.8773 83.223 34.676C83.1888 34.5453 83.1757 34.399 83.1862 34.2343V34.2317Z" fill="currentColor"/>
<path d="M71.875 48.4907C71.8488 48.4907 71.8225 48.4907 71.7989 48.4881C71.5625 48.4672 71.3603 48.3574 71.1975 48.164C71.0679 48.0106 72.1009 46.9826 74.2964 45.0799C76.1374 43.4803 78.5273 41.4312 80.8358 39.4501C83.9925 36.7397 87.2517 33.9431 87.6587 33.5432C87.6981 33.3472 87.8032 33.1747 87.9765 33.0309C88.1735 32.8689 88.3862 32.7957 88.6094 32.814L88.767 32.8271L88.8169 32.9761C88.8572 33.098 88.177 33.7654 86.7763 34.9781C85.5656 36.0262 83.919 37.4402 82.1725 38.9404C78.2568 42.3042 73.4377 46.4416 72.6629 47.21C72.7443 47.359 72.7811 47.5158 72.768 47.6804C72.7522 47.9131 72.6445 48.1117 72.4555 48.2737C72.2821 48.4201 72.0904 48.4933 71.8829 48.4933L71.875 48.4907ZM71.7201 47.9862C71.7569 48.0019 71.7963 48.0124 71.8409 48.0176C71.946 48.0254 72.0458 47.9941 72.1429 47.9104C72.2348 47.8346 72.2795 47.751 72.2874 47.6465C72.2926 47.5916 72.2847 47.5393 72.2637 47.487C72.0221 47.7014 71.8383 47.8712 71.7201 47.9862ZM64.5479 43.3078L67.2581 41.0496L101.641 20.9141L91.388 29.4685L64.5479 43.3104V43.3078ZM96.9687 24.1968L70.3991 39.7585L91.1464 29.0608L96.9687 24.1994V24.1968Z" fill="currentColor"/>
<path d="M58.4702 59.1702C58.4125 59.1702 58.3521 59.1649 58.289 59.1545C58.0422 59.1101 57.8531 58.9924 57.7191 58.799C57.5878 58.6082 57.5458 58.3835 57.5904 58.1352C57.6351 57.8843 57.7507 57.6935 57.9345 57.5628C58.1209 57.4347 58.3416 57.3903 58.5937 57.4347C58.8169 57.4739 58.9955 57.5706 59.1294 57.7222C59.6573 57.8503 63.5284 58.2789 65.9261 58.5298L70.7321 59.029L65.8999 59.0029C63.4128 58.9898 59.3868 58.9898 58.9193 59.0473C58.7854 59.131 58.6331 59.1728 58.4702 59.1728V59.1702ZM58.4098 57.8921C58.3074 57.8921 58.247 57.9235 58.2102 57.9522C58.1315 58.0071 58.0816 58.0934 58.0605 58.2188C58.0369 58.3469 58.0553 58.4462 58.1157 58.5351C58.1735 58.6213 58.2575 58.671 58.3731 58.6919C58.4991 58.7154 58.5989 58.6945 58.6882 58.6344C58.7434 58.5952 58.8248 58.5403 61.4852 58.5272C58.9062 58.224 58.8484 58.143 58.7906 58.0646C58.7276 57.9784 58.6383 57.9287 58.5123 57.9052C58.4729 57.8973 58.4387 57.8947 58.4098 57.8947V57.8921Z" fill="currentColor"/>
<path d="M53.1811 53.8612L52.9763 53.741C52.4431 53.4326 52.0361 52.9909 51.7656 52.4316C51.5029 51.9872 46.219 46.7338 42.7261 43.3099L40.3257 40.955L43.036 42.9519C46.1691 45.2623 51.2692 48.911 52.1542 49.269C52.4248 48.9528 52.7557 48.7176 53.1417 48.5764C53.5672 48.4196 54.0346 48.383 54.531 48.4693C54.8724 48.5294 55.3845 49.0077 56.0174 49.6297C56.0884 49.6977 56.154 49.763 56.2144 49.8231C56.5873 48.6731 57.6378 43.9163 58.5754 39.6717C59.8202 34.0393 60.4269 31.3812 60.7657 30.1215C60.7578 30.1162 60.7499 30.111 60.742 30.1058C60.6633 30.0509 60.6186 29.9673 60.616 29.8758C60.616 29.7059 60.7525 29.6013 60.8996 29.4916C60.918 29.4785 60.9416 29.4602 60.9653 29.4419C61.1202 28.9897 61.1964 28.9793 61.2988 28.9662L61.4643 28.9453L61.5562 29.1047C61.6822 29.3635 61.5325 29.5752 61.3671 29.7242C61.354 29.766 61.3408 29.8104 61.3277 29.8601C61.4432 29.8967 61.5956 29.9307 61.7899 29.962L62.0289 29.9986L61.2358 34.5385L61.0047 34.5019C60.9101 34.4862 60.7631 34.4627 60.6554 34.3843C60.2588 35.7513 59.3212 40.035 58.5465 43.5739C56.6582 52.2016 56.6162 52.2068 56.3431 52.2408L56.1776 52.2617L56.091 52.1049C55.8783 51.6762 55.6839 51.3809 55.508 51.2214C55.4423 51.1639 55.3346 51.0437 55.1876 50.8817C54.9564 50.6281 54.4154 50.0322 54.2552 49.9747C53.9585 49.9225 53.6958 49.9852 53.4674 50.1629C53.231 50.3485 53.0839 50.6151 53.0209 50.9784C52.9736 51.2476 53.0157 51.5089 53.1522 51.7782C53.2914 52.0552 53.4884 52.2695 53.7536 52.4342L53.9506 52.5544L53.1837 53.8665L53.1811 53.8612ZM52.191 52.2251C52.3854 52.625 52.6611 52.9543 53.0157 53.2052L53.3124 52.6982C53.0629 52.5074 52.866 52.2669 52.7241 51.9846C52.5456 51.6266 52.4878 51.258 52.5508 50.8921C52.6349 50.4164 52.8423 50.0453 53.1706 49.7892C53.5068 49.5252 53.9007 49.4311 54.3472 49.5095C54.5835 49.5513 54.9065 49.8676 55.5395 50.5628C55.6629 50.6987 55.7785 50.8268 55.8257 50.8686C55.9728 50.9993 56.1172 51.1875 56.2696 51.4384C56.3536 51.1352 56.4639 50.6883 56.5926 50.142C56.5007 50.3668 56.4403 50.4138 56.372 50.4373L56.2459 50.4792L56.1304 50.3929C56.0227 50.3041 55.8651 50.1498 55.6813 49.9695C55.353 49.648 54.6676 48.9763 54.447 48.9371C54.0346 48.8639 53.6512 48.8927 53.3072 49.0208C52.9658 49.1488 52.6742 49.3631 52.4458 49.6637C52.2593 49.9094 52.1464 50.0584 47.3404 46.6502C46.6497 46.1614 45.9616 45.6674 45.3339 45.2127C48.0494 47.8969 52.0046 51.8409 52.191 52.2251ZM61.2043 30.3123C60.9942 31.112 60.7053 32.3378 60.3796 33.7701C60.44 33.6447 60.4899 33.6107 60.5398 33.5898L60.658 33.5427L60.7736 33.6185C60.8235 33.6551 60.8655 33.6917 60.897 33.7283L61.48 30.3802C61.3802 30.3593 61.2883 30.3358 61.2043 30.3096V30.3123ZM59.534 53.1765C59.4762 53.1765 59.4158 53.1712 59.3528 53.1608C59.1549 53.1259 59.2819 51.6771 59.7336 48.8143C60.1117 46.4097 60.6186 43.3125 61.1071 40.3173C61.7742 36.2243 62.4649 31.9981 62.5174 31.4309C62.4202 31.2558 62.3913 31.0571 62.4307 30.835C62.4754 30.5841 62.5909 30.3933 62.7747 30.2626L62.9034 30.1737L63.0374 30.2574C63.1459 30.3253 63.0549 31.2723 62.7642 33.0984C62.5148 34.6744 62.1655 36.815 61.7952 39.0837C60.9679 44.1646 59.9515 50.4138 59.8517 51.4959C60.0093 51.556 60.138 51.6553 60.2378 51.7886C60.377 51.9794 60.4243 52.1989 60.3796 52.442C60.335 52.6929 60.2142 52.8863 60.0225 53.0222C59.8754 53.1242 59.7126 53.1738 59.534 53.1738V53.1765ZM59.7336 51.9611C59.6889 52.28 59.6574 52.5283 59.639 52.6903C59.6784 52.6799 59.7152 52.6616 59.7493 52.638C59.8386 52.5753 59.8885 52.4891 59.9122 52.3636C59.9332 52.246 59.9121 52.1519 59.8517 52.0683C59.8202 52.0238 59.7808 51.9899 59.7309 51.9611H59.7336Z" fill="currentColor"/>
<path d="M54.2448 47.8611L54.04 47.7409C53.5069 47.4299 53.0998 46.9908 52.8267 46.4288C52.5535 45.8669 52.4695 45.2867 52.5719 44.7064C52.6638 44.1889 52.8503 43.742 53.1313 43.3735C53.4149 43.0023 53.7774 42.7331 54.2054 42.5737C54.6309 42.4169 55.0984 42.3803 55.5947 42.4665C55.9361 42.5267 56.4456 43.005 57.0785 43.627C57.1442 43.6923 57.2046 43.7525 57.2624 43.8073C57.5933 42.5868 58.4678 37.6339 59.1848 33.5775C61.0415 23.0576 61.1046 23.0497 61.4013 23.0027L61.5694 22.9766L61.6613 23.1386C61.7979 23.4235 61.9397 23.6143 62.0815 23.7136C62.1813 23.7842 62.3967 23.8835 62.8563 23.9541L63.0926 23.9907L62.8405 25.4961L62.6068 25.4569C62.5149 25.4412 62.373 25.4177 62.2654 25.3445C61.8373 26.8683 60.7553 31.9544 59.8597 36.1494C57.722 46.1858 57.6852 46.191 57.4068 46.2276L57.2414 46.2485L57.1573 46.0917C56.9446 45.663 56.7503 45.3677 56.5743 45.2083C56.5087 45.1508 56.401 45.0305 56.2539 44.8685C56.0228 44.615 55.4818 44.019 55.3216 43.9615C55.0248 43.9093 54.7622 43.972 54.5337 44.1497C54.2974 44.3353 54.1503 44.6019 54.0873 44.9652C54.04 45.2344 54.082 45.4958 54.2186 45.765C54.3578 46.042 54.5547 46.2563 54.82 46.421L55.017 46.5412L54.2501 47.8533L54.2448 47.8611ZM53.2547 46.225C53.4491 46.6249 53.7248 46.9542 54.0794 47.2051L54.3762 46.698C54.1293 46.5072 53.9297 46.2668 53.7879 45.9845C53.6067 45.6264 53.5489 45.2579 53.6145 44.892C53.6986 44.4163 53.9061 44.0452 54.2343 43.789C54.5705 43.5251 54.9644 43.431 55.4109 43.5094C55.6473 43.5512 55.9703 43.8675 56.6032 44.5627C56.7266 44.6986 56.8422 44.8267 56.8895 44.8685C57.0339 44.9992 57.1783 45.1821 57.328 45.4278C57.4068 45.1351 57.5093 44.7091 57.6301 44.1889C57.5592 44.3719 57.504 44.4137 57.441 44.4372L57.3123 44.4843L57.1967 44.3954C57.0891 44.3066 56.9315 44.1497 56.7476 43.972C56.4194 43.6505 55.7365 42.9814 55.5133 42.9422C55.101 42.869 54.7176 42.8978 54.3735 43.0259C54.0321 43.1539 53.7406 43.3683 53.5121 43.6688C53.2784 43.9746 53.1208 44.3536 53.042 44.7979C52.958 45.2788 53.0289 45.7624 53.2574 46.2328L53.2547 46.225ZM61.4933 23.7868C61.1518 25.1694 60.3613 29.6466 59.6523 33.6612C59.0193 37.2471 58.5913 39.6333 58.2892 41.2198C58.6359 39.6203 59.0246 37.7933 59.3949 36.0605C61.7165 25.1694 61.8898 24.6545 62.1419 24.5578L62.2601 24.5108L62.373 24.5866C62.4229 24.6205 62.4623 24.6571 62.4912 24.6911L62.5437 24.3827C62.2181 24.3148 61.9739 24.2233 61.8058 24.103C61.6955 24.0246 61.5904 23.9201 61.4933 23.7868ZM60.5977 47.1763C60.5399 47.1763 60.4795 47.1711 60.4165 47.1607C60.2187 47.1258 60.3456 45.677 60.7973 42.8142C61.1755 40.4096 61.6823 37.3124 62.1708 34.3172C62.8379 30.2242 63.5286 25.9979 63.5811 25.4308C63.4839 25.2557 63.4551 25.057 63.4944 24.8349C63.5391 24.584 63.6546 24.3932 63.8411 24.2625L63.9698 24.1736L64.1037 24.2572C64.2123 24.3252 64.1212 25.2722 63.8306 27.0983C63.5811 28.6743 63.2318 30.8149 62.8615 33.0835C62.1025 37.7463 61.1834 43.3918 60.9601 45.1272C62.2155 43.9406 66.1102 39.9705 68.7784 37.2236L74.937 30.8829L69.1277 37.5424C66.1916 40.9088 61.7795 46.0028 61.4355 46.4889C61.3856 46.7189 61.2674 46.8967 61.0862 47.0247C60.9391 47.1267 60.7763 47.1763 60.5951 47.1763H60.5977ZM60.8131 45.8617C60.7605 46.2276 60.7238 46.5099 60.7054 46.6902C60.7448 46.6797 60.7815 46.6614 60.8157 46.6379C60.905 46.5752 60.9575 46.4889 60.9785 46.3635C60.989 46.3034 61.0074 46.2067 63.6546 43.1278C61.6508 45.1508 61.0494 45.7153 60.8131 45.8643V45.8617Z" fill="currentColor"/>
<path d="M53.0812 42.6574L53.6984 39.1943L67.0292 1.77734L64.6997 14.89L53.0786 42.66L53.0812 42.6574ZM65.5716 7.28169L55.2663 36.2017L64.2506 14.7306L65.5716 7.28169ZM61.4878 42.1425C61.43 42.1425 61.3696 42.1373 61.3066 42.1269C61.1088 42.092 61.2357 40.6432 61.6874 37.7804C62.0656 35.3758 62.5725 32.2786 63.0609 29.2834C63.728 25.1904 64.4187 20.9641 64.4712 20.397C64.3741 20.2219 64.3452 20.0206 64.3846 19.8011C64.4292 19.5502 64.5448 19.3594 64.7286 19.2287L64.8573 19.1398L64.9912 19.2235C65.0998 19.2914 65.0096 20.2375 64.7207 22.0619C64.4712 23.6379 64.1219 25.7759 63.7516 28.0445C62.9244 33.1281 61.9054 39.3799 61.8082 40.462C61.9658 40.5221 62.0945 40.6214 62.1943 40.7573C62.3308 40.9455 62.3807 41.1676 62.3361 41.4107C62.2914 41.6616 62.1706 41.8577 61.9789 41.9909C61.8319 42.0929 61.669 42.1425 61.4878 42.1425ZM61.69 40.9272C61.6454 41.2461 61.6139 41.4944 61.5955 41.6564C61.6349 41.6459 61.6717 41.6276 61.7058 41.6041C61.7951 41.5414 61.8476 41.4552 61.8686 41.3297C61.8896 41.2121 61.8686 41.118 61.8082 41.0344C61.7767 40.9899 61.7373 40.9533 61.6874 40.9272H61.69Z" fill="currentColor"/>
<path d="M58.0819 58.9255C58.0058 58.9255 57.9296 58.915 57.8534 58.8941C57.6302 58.8314 57.4516 58.6877 57.3256 58.4681C57.1969 58.2486 57.1627 58.0264 57.2205 57.8095C57.2783 57.5925 57.4201 57.4174 57.6407 57.292C57.8351 57.1796 58.0346 57.1404 58.2369 57.1717C58.7253 56.9313 61.9661 54.7855 63.9647 53.4421L67.9671 50.75L64.2483 53.821C62.3338 55.4023 59.2506 57.9767 58.9302 58.3191C58.8619 58.523 58.7254 58.6877 58.5179 58.8053C58.3761 58.8863 58.229 58.9281 58.0793 58.9281L58.0819 58.9255ZM58.1056 57.6317C58.032 57.6317 57.9585 57.6553 57.8797 57.6997C57.7326 57.7833 57.6959 57.8722 57.6801 57.9323C57.6538 58.0238 57.6749 58.1231 57.7379 58.2329C57.8035 58.3453 57.8797 58.4106 57.9847 58.4394C58.0845 58.4681 58.1791 58.4524 58.2841 58.3949C58.3944 58.3322 58.4601 58.2538 58.489 58.1492C58.5074 58.0839 58.531 57.9898 60.5611 56.2779C58.3918 57.6945 58.2946 57.6709 58.2001 57.6474C58.1686 57.6396 58.1397 57.637 58.1082 57.637L58.1056 57.6317Z" fill="currentColor"/>
<path d="M50.4289 58.0995C50.0008 58.0995 49.5832 58.008 49.1761 57.8277C48.6877 57.6552 41.2475 57.0122 36.3601 56.6202L32.9985 56.351L36.3627 56.1471C40.2548 55.9119 46.5184 55.4466 47.4297 55.1539C47.4297 54.7383 47.5347 54.3463 47.7396 53.9908C47.9628 53.5988 48.299 53.2721 48.7349 53.0212C49.0343 52.8487 49.7355 52.8879 50.6206 52.9584C50.7204 52.9663 50.8123 52.9741 50.8963 52.9794C50.4394 51.8607 48.1703 47.543 46.1481 43.6904C43.4641 38.5808 42.2114 36.1579 41.6572 34.9739C41.6467 34.9739 41.6388 34.9739 41.6283 34.9765C41.5338 34.9844 41.4419 34.9504 41.3841 34.8798C41.2712 34.7518 41.3106 34.5819 41.3526 34.4042C41.3578 34.3832 41.3631 34.3545 41.371 34.3257C41.195 33.8814 41.2475 33.8239 41.3184 33.7481L41.4314 33.6253L41.6047 33.688C41.87 33.8056 41.8883 34.0644 41.8595 34.2839C41.8778 34.3231 41.8962 34.3676 41.9172 34.412C42.0302 34.3649 42.1694 34.2944 42.3374 34.1951L42.5449 34.0722L44.8717 38.058L44.6695 38.1783C44.5881 38.2253 44.4594 38.3037 44.3255 38.3116C44.9059 39.6132 46.9544 43.4918 48.6456 46.6988C52.7715 54.5162 52.7426 54.5475 52.5561 54.7488L52.4432 54.8716L52.2751 54.8063C51.8365 54.6129 51.4951 54.511 51.2561 54.5031C51.1695 54.5005 51.0093 54.477 50.7913 54.4482C50.4499 54.4012 49.6515 54.2914 49.4913 54.3489C49.2287 54.5005 49.0685 54.7148 49.0107 54.9971C48.9503 55.2924 49.0107 55.5904 49.1945 55.9066C49.3311 56.1419 49.5333 56.317 49.8091 56.4346C50.0927 56.5574 50.3816 56.5966 50.6941 56.5522L50.9226 56.5182L51.1852 58.0132L50.9515 58.0525C50.7755 58.0812 50.6022 58.0969 50.4315 58.0969L50.4289 58.0995ZM39.5878 56.4111C43.4037 56.7299 48.9792 57.2213 49.3705 57.3964C49.7776 57.5794 50.203 57.6552 50.6337 57.6212L50.5339 57.0436C50.2188 57.0567 49.9141 56.9991 49.6226 56.8711C49.2549 56.7116 48.9713 56.4686 48.7848 56.1445C48.5432 55.7263 48.4618 55.3081 48.5485 54.903C48.6351 54.4848 48.8768 54.1607 49.2681 53.936C49.4782 53.8157 49.9299 53.8523 50.8622 53.9804C51.0434 54.0065 51.2167 54.03 51.2798 54.03C51.4767 54.0379 51.7105 54.0875 51.9862 54.1816C51.8549 53.8967 51.6501 53.4838 51.3979 52.982C51.4741 53.212 51.4557 53.2878 51.419 53.3479L51.3507 53.4629L51.2062 53.4681C51.0644 53.4733 50.8464 53.4498 50.5891 53.4315C50.1295 53.3949 49.1735 53.3191 48.9766 53.4315C48.6141 53.6406 48.3384 53.9072 48.1572 54.2261C47.976 54.5423 47.8945 54.8926 47.9129 55.2689C47.9287 55.5773 47.9366 55.7629 42.0564 56.2281C41.2108 56.2961 40.3651 56.3562 39.5904 56.4111H39.5878ZM42.1221 34.8432C42.4766 35.5881 43.0491 36.7146 43.7241 38.0188C43.6899 37.8829 43.7057 37.828 43.732 37.7784L43.7924 37.666L43.9289 37.6503C43.992 37.6451 44.0471 37.6503 44.0944 37.6555L42.3794 34.7178C42.2902 34.7648 42.2035 34.8067 42.1247 34.8406L42.1221 34.8432ZM55.3399 53.5753C55.1377 53.5753 54.8226 53.0578 52.9448 49.958C51.6842 47.8749 50.0691 45.1802 48.5091 42.5718C46.3766 39.0068 44.1732 35.3268 43.8475 34.8589C43.6611 34.7857 43.5087 34.6524 43.3958 34.459C43.2671 34.2395 43.233 34.0173 43.2908 33.8004L43.3301 33.6488L43.4877 33.6253C43.6155 33.6079 44.1574 34.3911 45.1134 35.975C45.9406 37.3419 47.0541 39.2028 48.236 41.1761C50.8832 45.5984 54.1424 51.0374 54.7674 51.9313C54.9276 51.8764 55.0904 51.8686 55.2533 51.9104C55.4817 51.9679 55.6603 52.1064 55.7838 52.3207C55.9124 52.5403 55.9466 52.7677 55.8836 52.995C55.8231 53.2224 55.6787 53.4002 55.4581 53.5282C55.4135 53.5544 55.3793 53.5753 55.3373 53.5753H55.3399ZM54.9775 52.3652C55.1482 52.6396 55.2848 52.8487 55.3767 52.9846C55.4003 52.9506 55.4161 52.914 55.4266 52.8722C55.4555 52.7677 55.4371 52.6683 55.3741 52.5559C55.3137 52.454 55.2401 52.3939 55.1377 52.3678C55.0852 52.3547 55.03 52.3521 54.9775 52.3625V52.3652Z" fill="currentColor"/>
<path d="M47.3722 52.8247C46.9441 52.8247 46.5239 52.7332 46.1168 52.5503C45.5443 52.2941 45.1057 51.9047 44.809 51.395C44.5463 50.9403 44.3993 50.475 44.3783 50.0176C44.3546 49.5498 44.4597 49.1133 44.6829 48.7187C44.9061 48.324 45.2423 47.9973 45.6783 47.749C45.9776 47.5765 46.6789 47.6157 47.5639 47.6863C47.6558 47.6941 47.7425 47.6993 47.8213 47.7072C47.2855 46.5624 44.7564 42.2081 42.687 38.643C37.3163 29.396 37.3557 29.3489 37.5553 29.1241L37.6682 28.9961L37.8442 29.0614C38.1331 29.1921 38.3642 29.247 38.5375 29.2339C38.6583 29.2235 38.8868 29.1607 39.286 28.9229L39.4908 28.8L40.2708 30.1147L40.0686 30.2349C39.9898 30.282 39.8638 30.3552 39.7351 30.3682C40.3916 31.8084 42.8472 36.3979 44.872 40.1851C49.7174 49.2414 49.6911 49.2675 49.5021 49.474L49.3891 49.5968L49.2237 49.5315C48.7851 49.3381 48.4437 49.2362 48.2047 49.2283C48.118 49.2257 47.9605 49.2022 47.7399 49.1734C47.3984 49.1264 46.6001 49.0166 46.4372 49.0741C46.1746 49.2257 46.0144 49.44 45.9566 49.7223C45.8962 50.015 45.9566 50.313 46.1405 50.6319C46.277 50.8671 46.4793 51.0396 46.755 51.1598C47.0386 51.2826 47.3302 51.3219 47.6401 51.2774L47.8685 51.2434L48.1312 52.7385L47.8974 52.7777C47.7215 52.8064 47.5481 52.8221 47.3774 52.8221L47.3722 52.8247ZM46.3138 52.119C46.7209 52.302 47.1463 52.3778 47.577 52.3438L47.4772 51.7662C47.1621 51.7792 46.8574 51.7217 46.5659 51.5937C46.1982 51.4342 45.9146 51.1912 45.7282 50.8671C45.4865 50.4489 45.4051 50.0307 45.4918 49.6256C45.5785 49.2074 45.8201 48.8833 46.2114 48.6585C46.4189 48.5383 46.8706 48.5749 47.8055 48.703C47.9867 48.7291 48.1574 48.75 48.2231 48.7526C48.4174 48.7605 48.6459 48.8075 48.919 48.9016C48.7903 48.6272 48.5934 48.2351 48.3491 47.7594C48.4122 47.945 48.3964 48.013 48.3649 48.0679L48.2966 48.1855L48.1495 48.1907C48.0182 48.1907 47.7871 48.1724 47.5324 48.1541C47.0728 48.1175 46.1168 48.0417 45.9199 48.1541C45.5574 48.3606 45.2817 48.6298 45.1005 48.9487C44.9166 49.2701 44.8379 49.6099 44.8562 49.9915C44.8746 50.3757 44.9981 50.7678 45.2239 51.1572C45.4682 51.5806 45.8358 51.9047 46.3164 52.119H46.3138ZM38.1331 29.6599C38.7634 30.938 41.0508 34.8742 43.0993 38.4026C44.9298 41.5546 46.1405 43.6534 46.9362 45.0648C46.1694 43.6168 45.2896 41.9702 44.4518 40.4073C39.1941 30.5773 38.9971 30.0729 39.1258 29.8377L39.1862 29.7253L39.3228 29.7096C39.3832 29.7044 39.4357 29.707 39.483 29.7148L39.3228 29.4456C39.0286 29.6024 38.7844 29.6861 38.5769 29.7044C38.4403 29.7148 38.2933 29.7044 38.1331 29.6625V29.6599ZM52.2832 48.3005C52.081 48.3005 51.7659 47.783 49.8881 44.6806C48.6275 42.5975 47.0124 39.9002 45.4524 37.2944C43.3199 33.732 41.1165 30.052 40.7908 29.5841C40.6044 29.511 40.452 29.3777 40.3391 29.1842C40.2131 28.9647 40.1763 28.7425 40.2341 28.5256L40.2761 28.374L40.4337 28.3505C40.5615 28.3331 41.1033 29.1163 42.0593 30.7002C42.8866 32.0671 44.0001 33.928 45.1819 35.9013C47.6112 39.9603 50.5552 44.874 51.5059 46.3481C51.7002 44.6361 52.1204 39.103 52.3909 35.2923L53.0133 26.4922L52.8663 35.3106C52.7927 39.7669 52.7008 46.4918 52.7533 47.0851C52.8636 47.2916 52.8899 47.5059 52.8321 47.7202C52.7717 47.9476 52.6273 48.1254 52.4067 48.2534C52.362 48.2796 52.3279 48.3005 52.2859 48.3005H52.2832ZM51.8683 47.0067C52.0653 47.3204 52.2176 47.5608 52.32 47.7098C52.3436 47.6758 52.3594 47.6392 52.3699 47.5974C52.3988 47.4929 52.3804 47.3935 52.3174 47.2812C52.2859 47.2289 52.2386 47.1452 52.278 43.0915C52.0495 45.9221 51.9523 46.7401 51.8683 47.0041V47.0067Z" fill="currentColor"/>
<path d="M43.8738 49.4976L42.109 46.4527L28.1558 9.25781L34.8395 20.7918L43.8738 49.5002V49.4976ZM30.5929 14.4067L41.3789 43.1542L34.3931 20.9565L30.5929 14.4067ZM49.7119 43.873C49.5097 43.873 49.1945 43.3555 47.3168 40.2531C46.0536 38.17 44.4411 35.4727 42.8784 32.8643C40.7459 29.3019 38.5452 25.6219 38.2195 25.1566C38.033 25.0835 37.8807 24.9502 37.7678 24.7568C37.6391 24.5372 37.605 24.315 37.6627 24.0981L37.7048 23.9465L37.8623 23.923C37.9901 23.9056 38.532 24.6879 39.488 26.2701C40.3126 27.637 41.4261 29.4979 42.6079 31.4686C45.2578 35.8935 48.517 41.3351 49.142 42.2316C49.3022 42.1767 49.465 42.1689 49.6279 42.2107C49.8563 42.2682 50.0349 42.4067 50.1584 42.621C50.2871 42.8406 50.3186 43.068 50.2582 43.2954C50.1978 43.5228 50.0533 43.7005 49.8327 43.8285C49.7881 43.8547 49.7539 43.8756 49.7119 43.8756V43.873ZM49.3495 42.6629C49.5202 42.9347 49.6568 43.1464 49.7487 43.2823C49.7723 43.2483 49.7881 43.2117 49.7986 43.1699C49.8275 43.0654 49.8091 42.966 49.746 42.8537C49.6856 42.7517 49.6121 42.6916 49.5097 42.6655C49.4572 42.6524 49.402 42.6498 49.3495 42.6602V42.6629Z" fill="currentColor"/>
<path d="M57.6722 58.9513C57.5646 58.9513 57.4516 58.9304 57.3387 58.8886C57.0997 58.8024 56.929 58.6534 56.8345 58.4521C56.7399 58.2483 56.7347 58.0235 56.8213 57.7856C56.8975 57.5739 57.0262 57.4145 57.1995 57.3126C57.4175 56.8186 58.5153 53.0994 59.1771 50.7915L60.5059 46.168L59.6393 50.8987C59.1928 53.3346 58.4942 57.2786 58.4706 57.7464C58.552 57.9451 58.5494 58.1594 58.4706 58.3816C58.3866 58.6142 58.2342 58.7814 58.0189 58.8781C57.9086 58.9278 57.793 58.9513 57.6749 58.9513H57.6722ZM58.3971 55.1406C57.6486 57.6158 57.5593 57.6576 57.4726 57.6994C57.3755 57.7464 57.3098 57.8248 57.2652 57.9451C57.2074 58.1019 57.2363 58.196 57.2599 58.2509C57.3019 58.3371 57.3781 58.3998 57.4963 58.4443C57.6197 58.4887 57.7221 58.4887 57.8193 58.4443C57.9138 58.4025 57.9769 58.3293 58.0189 58.2195C58.0635 58.0993 58.0609 57.9973 58.0163 57.9006C57.9874 57.8405 57.9454 57.7517 58.3944 55.1406H58.3971Z" fill="currentColor"/>
<path d="M37.337 72.8306L39.7847 70.5227C42.6131 67.8542 47.1119 63.4894 47.6187 62.6818C47.3508 62.3629 47.1775 61.997 47.104 61.5945C47.0226 61.1502 47.0672 60.685 47.2405 60.2145C47.3587 59.8904 47.9207 59.4722 48.6456 58.96C48.727 58.9025 48.8031 58.8476 48.8714 58.8005C47.7999 58.236 43.2723 56.3777 39.2358 54.7232C33.8809 52.5252 31.3544 51.4693 30.1648 50.9178C30.1595 50.9256 30.1516 50.9308 30.1464 50.9361C30.0781 51.004 29.9862 51.0328 29.8969 51.0197C29.7288 50.9936 29.65 50.8394 29.566 50.6747C29.5555 50.6538 29.5423 50.6303 29.5292 50.6015C29.1064 50.3715 29.1116 50.2957 29.1169 50.1912L29.1248 50.0265L29.2981 49.9638C29.5765 49.8854 29.7603 50.0683 29.8785 50.2565C29.9179 50.2774 29.9599 50.2957 30.0046 50.3192C30.0597 50.2121 30.1227 50.0683 30.1858 49.8828L30.2646 49.6554L34.6189 51.221L34.5427 51.4405C34.5112 51.5294 34.4613 51.6705 34.3667 51.7646C35.651 52.3893 39.7269 54.0541 43.0937 55.4263C51.3033 58.7744 51.3007 58.8162 51.2876 59.0906L51.2797 59.2579L51.109 59.3154C50.6494 59.4487 50.3211 59.5899 50.132 59.7336C50.0637 59.7885 49.9272 59.8721 49.7407 59.9897C49.4492 60.1727 48.7664 60.5987 48.6797 60.7477C48.5773 61.03 48.5904 61.2966 48.7296 61.5527C48.8741 61.8167 49.1104 62.0075 49.4571 62.1329C49.7145 62.227 49.9797 62.2296 50.2712 62.1434C50.568 62.0545 50.8148 61.9003 51.0249 61.6677L51.1799 61.4978L52.3459 62.4753L52.191 62.6557C51.7918 63.1235 51.2849 63.445 50.6862 63.6149C50.2003 63.7952 44.0864 68.0607 40.0893 70.8887L37.3423 72.8332L37.337 72.8306ZM49.2496 58.4817C49.4571 58.6097 49.4912 58.6777 49.5017 58.7483L49.5227 58.8789L49.4151 58.9756C49.3074 59.0645 49.1262 59.1926 48.9161 59.3416C48.5405 59.6082 47.7605 60.1596 47.6817 60.3713C47.5399 60.7634 47.5005 61.1424 47.5662 61.5057C47.6318 61.8637 47.7973 62.1852 48.052 62.4623C48.2621 62.687 48.3882 62.8256 44.1836 66.9421C43.5796 67.5327 42.9703 68.1234 42.4135 68.6592C45.5414 66.4638 50.1294 63.2725 50.5443 63.1549C50.975 63.0346 51.348 62.8203 51.6579 62.5171L51.2062 62.1382C50.9724 62.3473 50.7019 62.4988 50.3973 62.5903C50.0112 62.7027 49.6383 62.6975 49.2864 62.5694C48.832 62.4048 48.5011 62.1355 48.3015 61.7696C48.0993 61.3933 48.0731 60.9908 48.228 60.5674C48.3094 60.3426 48.6797 60.0812 49.4781 59.582C49.633 59.4853 49.7801 59.3938 49.83 59.3546C49.985 59.2344 50.1977 59.122 50.4708 59.0175C50.1845 58.8816 49.7644 58.696 49.2444 58.4764L49.2496 58.4817ZM30.43 50.5205C31.1837 50.8655 32.3472 51.3621 33.7075 51.9293C33.5946 51.8482 33.5684 51.7933 33.5578 51.7411L33.5342 51.6156L33.6288 51.5163C33.6734 51.4719 33.7154 51.4405 33.7574 51.4144L30.5456 50.2617C30.5088 50.3558 30.4694 50.4421 30.43 50.5205ZM52.5272 56.4482C52.2199 56.4482 51.3401 56.1477 48.4827 55.1728C46.169 54.3835 43.1935 53.3511 40.3125 52.3527C36.3784 50.9883 32.3156 49.577 31.7641 49.428C31.575 49.4933 31.3702 49.4855 31.1601 49.4097C30.9211 49.3234 30.7504 49.1745 30.6559 48.9732L30.5902 48.8321L30.6953 48.7145C30.781 48.6204 31.702 48.873 33.4581 49.4724C34.9734 49.9925 37.0297 50.7034 39.2095 51.4588C44.0969 53.1524 50.1058 55.2355 51.1615 55.523C51.2482 55.3793 51.369 55.2695 51.5187 55.1963C51.7314 55.0944 51.9573 55.0865 52.191 55.1702C52.4326 55.2564 52.6033 55.4106 52.7031 55.6223C52.8029 55.834 52.8082 56.064 52.7215 56.3045C52.69 56.3907 52.669 56.4509 52.5298 56.4509L52.5272 56.4482ZM51.5975 55.719C51.9047 55.8184 52.1437 55.8942 52.3039 55.9386C52.2987 55.8968 52.2882 55.8576 52.2698 55.821C52.2251 55.7243 52.1463 55.6563 52.0255 55.6119C51.9152 55.5701 51.8181 55.5727 51.7235 55.6197C51.6736 55.6432 51.6316 55.6772 51.5975 55.719Z" fill="currentColor"/>
<path d="M44.113 61.6435C43.7952 61.6435 43.4827 61.5886 43.1781 61.4788C42.6817 61.2985 42.272 61.0371 41.9569 60.7C41.6391 60.3576 41.4342 59.9551 41.3528 59.5082C41.2714 59.0638 41.3161 58.5986 41.4894 58.1281C41.6076 57.8041 42.1696 57.3859 42.8944 56.8736C42.968 56.8213 43.0389 56.7717 43.1045 56.7246C41.9542 56.1888 37.206 54.4716 33.3165 53.0655C23.2292 49.4195 23.2318 49.3567 23.2371 49.0588L23.2423 48.8889L23.4183 48.8262C23.7229 48.7399 23.9383 48.638 24.0617 48.5151C24.1484 48.4289 24.2823 48.2355 24.4346 47.799L24.5134 47.5742L25.9605 48.0813L25.8817 48.3034C25.8502 48.3897 25.8029 48.5282 25.711 48.6197C27.1449 49.3018 31.9903 51.249 35.9848 52.8512C45.5469 56.6906 45.5469 56.7272 45.5338 57.0069L45.5259 57.1742L45.3552 57.229C44.8956 57.3623 44.5673 57.5035 44.3782 57.6472C44.31 57.6995 44.1734 57.7858 43.9869 57.9008C43.6954 58.0837 43.0126 58.5097 42.9259 58.6587C42.8235 58.941 42.8366 59.2076 42.9758 59.4637C43.1203 59.7277 43.3566 59.9185 43.7033 60.0439C43.9607 60.138 44.2259 60.1407 44.5174 60.0544C44.8142 59.9655 45.0611 59.8113 45.2712 59.5787L45.4261 59.4088L46.5922 60.3863L46.4372 60.5667C46.038 61.0345 45.5312 61.3586 44.9298 61.5259C44.654 61.6017 44.3835 61.6409 44.1156 61.6409L44.113 61.6435ZM43.5405 56.4319C43.7086 56.5338 43.7401 56.5939 43.7506 56.6593L43.7742 56.7926L43.6665 56.8919C43.5589 56.9807 43.3777 57.1088 43.1702 57.2578C42.7946 57.5244 42.012 58.0785 41.9358 58.2876C41.794 58.6796 41.7546 59.0586 41.8203 59.4219C41.8886 59.7852 42.0462 60.0962 42.3061 60.3785C42.5688 60.6608 42.9154 60.8803 43.3409 61.0345C43.8084 61.2044 44.2863 61.2175 44.7984 61.0737C45.2292 60.9535 45.6021 60.7392 45.912 60.436L45.4603 60.057C45.2265 60.2661 44.956 60.4177 44.6514 60.5092C44.2653 60.6216 43.8924 60.6163 43.5405 60.4883C43.0861 60.3236 42.7552 60.0544 42.5556 59.6885C42.3534 59.3121 42.3272 58.9096 42.4821 58.4862C42.5635 58.2614 42.9338 58.0001 43.7322 57.5009C43.8871 57.4042 44.0342 57.3127 44.0841 57.2735C44.2364 57.1559 44.4439 57.0461 44.7118 56.9415C44.4334 56.8135 44.0342 56.641 43.5379 56.4319H43.5405ZM24.0249 49.1006C25.3328 49.6756 29.6267 51.2281 33.4767 52.6186C36.9145 53.8627 39.1993 54.6964 40.7173 55.2662C39.1941 54.6468 37.4555 53.9489 35.8036 53.2851C25.43 49.1215 24.952 48.8601 24.8995 48.5962L24.8732 48.4707L24.9677 48.3714C25.0098 48.3296 25.0518 48.2982 25.0938 48.2721L24.797 48.1675C24.6736 48.4759 24.5397 48.6981 24.3926 48.8418C24.2954 48.9359 24.1746 49.0196 24.0249 49.0954V49.1006ZM46.776 54.3619C46.4687 54.3619 45.5889 54.0613 42.7316 53.0864C40.4179 52.2971 37.4424 51.2647 34.5614 50.2663C30.6273 48.902 26.5645 47.4906 26.013 47.3416C25.8239 47.407 25.619 47.4017 25.4089 47.3233C25.17 47.2371 24.9993 47.0881 24.9047 46.8868L24.8391 46.7457L24.9441 46.6281C25.0299 46.534 25.9508 46.7875 27.7069 47.3887C29.2222 47.9088 31.2786 48.6197 33.4584 49.3776C37.9413 50.9328 43.3698 52.8146 45.0479 53.3347C44.092 51.8972 40.8407 47.3939 38.5848 44.3019L33.3796 37.1641L38.963 44.0144C41.7835 47.4749 46.059 52.6865 46.4792 53.1073C46.6972 53.1962 46.8548 53.3426 46.9493 53.5438C47.0491 53.7555 47.0544 53.9855 46.9677 54.2234C46.9362 54.3096 46.9152 54.3697 46.776 54.3697V54.3619ZM45.7518 53.6013C46.1063 53.7163 46.3768 53.8026 46.5528 53.8522C46.5475 53.8104 46.537 53.7712 46.5186 53.7346C46.474 53.6379 46.3952 53.5699 46.2744 53.5281C46.2166 53.5072 46.1247 53.4732 43.5379 50.3421C45.1898 52.6552 45.6467 53.3452 45.7518 53.6013Z" fill="currentColor"/>
<path d="M41.2397 60.6248L37.9201 59.42L3.20654 39.8516L15.7757 44.4098L41.2397 60.6222V60.6248ZM8.40124 42.2378L35.2282 57.3578L15.5446 44.8253L8.40124 42.2378ZM41.9514 52.6166C41.6441 52.6166 40.7643 52.3161 37.907 51.3412C35.5959 50.5518 32.6178 49.5195 29.7394 48.521C25.8027 47.1541 21.7373 45.7453 21.1858 45.5938C20.994 45.6591 20.7918 45.6512 20.5817 45.5755C20.3427 45.4892 20.172 45.3402 20.0775 45.139L20.0118 44.9978L20.1169 44.8802C20.2027 44.7861 21.1236 45.0397 22.8797 45.6408C24.395 46.1609 26.4514 46.8718 28.6311 47.6298C33.5159 49.3234 39.5248 51.4065 40.5805 51.6914C40.6672 51.5476 40.788 51.4379 40.9377 51.3647C41.1504 51.2628 41.3763 51.2549 41.61 51.3385C41.849 51.4248 42.0223 51.5764 42.1221 51.7907C42.2219 52.0024 42.2272 52.2324 42.1405 52.4703C42.109 52.5565 42.088 52.6166 41.9488 52.6166H41.9514ZM41.0217 51.8874C41.329 51.9867 41.568 52.0625 41.7282 52.107C41.7229 52.0651 41.7124 52.0259 41.694 51.9893C41.6494 51.89 41.5706 51.8247 41.4498 51.7829C41.3369 51.7411 41.2423 51.7437 41.1478 51.7907C41.0979 51.8142 41.0559 51.8482 41.0217 51.89V51.8874Z" fill="currentColor"/>
<path d="M57.2859 59.276C57.1678 59.276 57.0574 59.2525 56.9498 59.2028C56.7449 59.1061 56.5979 58.9389 56.5112 58.6984C56.435 58.4867 56.4298 58.2854 56.4954 58.0946C56.3431 57.5745 54.7805 54.0252 53.7983 51.835L51.8286 47.4414L54.2211 51.6206C55.4528 53.7717 57.4645 57.24 57.7481 57.6137C57.9399 57.7157 58.0764 57.8803 58.1578 58.1025C58.2419 58.3351 58.234 58.5599 58.1316 58.7716C58.0292 58.9807 57.8584 59.1296 57.6195 59.2159C57.5039 59.2577 57.3936 59.2786 57.2859 59.2786V59.276ZM56.0096 55.6639C57.0338 58.0371 56.9944 58.1286 56.955 58.2175C56.9104 58.3142 56.9104 58.4161 56.955 58.539C56.9997 58.6566 57.0627 58.735 57.1494 58.7768C57.236 58.816 57.3358 58.816 57.4566 58.7716C57.5774 58.7271 57.6562 58.6618 57.7035 58.5651C57.7481 58.471 57.7508 58.3769 57.7114 58.2645C57.6667 58.1443 57.6011 58.0659 57.5039 58.0215C57.4435 57.9927 57.3542 57.9509 56.0122 55.6639H56.0096Z" fill="currentColor"/>
<path d="M51.301 82.6846L51.6845 79.3496C52.1283 75.4945 52.7533 69.274 52.622 68.3305C52.2123 68.2573 51.842 68.0874 51.5243 67.826C51.175 67.5385 50.9097 67.1517 50.7364 66.6812C50.6182 66.3572 50.7784 65.6776 51.0016 64.8203C51.0253 64.7262 51.0489 64.6348 51.0699 64.5537C49.8829 64.8073 45.2161 66.2787 41.0535 67.5934C35.5305 69.3367 32.9148 70.1443 31.6463 70.4815C31.6463 70.492 31.6463 70.4998 31.6463 70.5102C31.6384 70.6043 31.5859 70.688 31.5097 70.735C31.3627 70.8213 31.2025 70.7533 31.0344 70.6827C31.0134 70.6749 30.9871 70.6618 30.9582 70.6514C30.4881 70.7455 30.4408 70.6854 30.3778 70.6017L30.2754 70.471L30.3673 70.3116C30.5301 70.0738 30.7875 70.0973 31.0002 70.1652C31.0423 70.1548 31.0895 70.1443 31.1368 70.1313C31.1105 70.0137 31.0659 69.8647 30.995 69.6817L30.9083 69.4569L35.2547 67.8705L35.3388 68.09C35.3729 68.1789 35.4254 68.3174 35.4123 68.4507C36.799 68.1083 40.9983 66.7753 44.4649 65.6724C52.9162 62.9882 52.9398 63.0195 53.1079 63.2391L53.2103 63.3724L53.1158 63.524C52.8479 63.9212 52.6877 64.2375 52.6378 64.4701C52.6194 64.5564 52.5695 64.7079 52.5039 64.917C52.3988 65.2437 52.1519 66.0069 52.1808 66.1742C52.2859 66.4565 52.4697 66.6525 52.7402 66.7597C53.0212 66.8694 53.3259 66.8642 53.6725 66.7387C53.9299 66.6447 54.1374 66.4774 54.3028 66.2265C54.4735 65.9703 54.5628 65.6933 54.5707 65.3797L54.5786 65.1497H56.1044V65.3901C56.1018 66.0043 55.9206 66.5741 55.5713 67.0864C55.3166 67.5359 53.3863 74.7156 52.1519 79.4385L51.3037 82.6872L51.301 82.6846ZM51.3352 64.0571C51.4429 64.0571 51.4875 64.0807 51.5269 64.1146L51.6267 64.2009L51.6083 64.342C51.5847 64.4779 51.5295 64.6923 51.4639 64.9406C51.3483 65.3849 51.1067 66.3101 51.1829 66.5192C51.3247 66.9113 51.5427 67.2275 51.8263 67.4601C52.1125 67.6953 52.4356 67.8339 52.8164 67.8809C53.1236 67.9201 53.3101 67.9436 52.7481 73.7878C52.6667 74.6267 52.5826 75.4683 52.5012 76.2367C53.4782 72.5541 54.9331 67.1726 55.1747 66.8198C55.4269 66.4512 55.5739 66.0487 55.6159 65.6201H55.0277C54.9856 65.9285 54.8753 66.2186 54.6994 66.4826C54.4788 66.8172 54.1873 67.0498 53.8354 67.1778C53.381 67.3425 52.9529 67.3477 52.5643 67.1961C52.1651 67.0393 51.8867 66.744 51.7317 66.3232C51.6503 66.0984 51.7633 65.6619 52.0521 64.7707C52.1073 64.5956 52.1624 64.4335 52.1756 64.3708C52.2176 64.18 52.3069 63.9578 52.4487 63.7043C52.1441 63.7827 51.7002 63.9108 51.1592 64.0728C51.2301 64.0624 51.2879 64.0571 51.3352 64.0571ZM31.5229 69.7392C31.5544 69.8359 31.5806 69.9274 31.6016 70.011C32.4026 69.7915 33.6133 69.4282 35.0236 68.9943C34.8871 69.0048 34.8319 68.9786 34.7873 68.9447L34.6875 68.8663L34.6953 68.7303C34.7006 68.6676 34.7137 68.6154 34.7295 68.5709L31.5255 69.7418L31.5229 69.7392ZM31.1079 68.7565C30.9897 68.7565 30.8794 68.733 30.7717 68.6833L30.6299 68.618L30.6352 68.4611C30.6404 68.3339 31.5088 67.9393 33.2404 67.2772C34.7374 66.7048 36.7727 65.9364 38.9288 65.1209C43.7664 63.294 49.7148 61.0436 50.7101 60.5862C50.6839 60.4189 50.7049 60.2595 50.7732 60.1079C50.8703 59.8936 51.0358 59.742 51.2721 59.6584C51.5111 59.5721 51.7422 59.5774 51.955 59.6767C52.1677 59.776 52.3226 59.9485 52.4093 60.1863C52.4776 60.3745 51.1531 60.9896 48.4358 62.0316C46.1562 62.9071 43.207 64.0206 40.3549 65.0974C36.4576 66.5689 32.4342 68.0874 31.9142 68.3252C31.8091 68.4977 31.6515 68.6206 31.4414 68.699C31.3259 68.7408 31.2156 68.7617 31.1079 68.7617V68.7565ZM51.5978 60.0661C51.5453 60.0661 51.4901 60.0766 51.4323 60.0975C51.3194 60.1367 51.2485 60.202 51.2065 60.2961C51.1829 60.3458 51.1724 60.398 51.175 60.4529C51.4744 60.3327 51.7081 60.236 51.8578 60.1707C51.8289 60.1419 51.7948 60.1184 51.7554 60.1001C51.7055 60.0766 51.653 60.0661 51.6004 60.0661H51.5978Z" fill="currentColor"/>
<path d="M25.3405 73.5843C25.2196 73.5843 25.1881 73.5425 25.1487 73.4954L25.0411 73.3621L25.1356 73.2001C25.3142 72.9387 25.4114 72.7218 25.4271 72.5519C25.4376 72.4316 25.4166 72.1964 25.2512 71.7652L25.1645 71.543L26.601 71.0046L26.6851 71.2241C26.7166 71.3104 26.7691 71.4463 26.7586 71.5744C28.2976 71.1823 33.2664 69.5723 37.366 68.2446C47.1697 65.069 47.1881 65.0977 47.3614 65.3199L47.4639 65.4532L47.3693 65.6048C47.1014 66.0021 46.9412 66.3183 46.8913 66.5509C46.873 66.6372 46.8231 66.7888 46.7574 66.9979C46.6524 67.3246 46.4055 68.0878 46.4344 68.255C46.5394 68.5373 46.7233 68.7333 46.9938 68.8405C47.2748 68.9503 47.5794 68.945 47.9261 68.8196C48.1835 68.7255 48.3883 68.5582 48.5564 68.3073C48.7271 68.0512 48.8164 67.7741 48.8243 67.4605L48.8321 67.2305H50.358V67.4709C50.3554 68.0851 50.1741 68.6575 49.8222 69.1698C49.4677 69.6847 49.0081 70.048 48.4513 70.2519C47.955 70.4322 47.4717 70.4923 47.0121 70.4348C46.5473 70.3747 46.1324 70.1996 45.7804 69.9095C45.4312 69.622 45.1659 69.2352 44.9926 68.7647C44.8744 68.4406 45.0346 67.7611 45.2578 66.9038C45.2815 66.8149 45.3025 66.7313 45.3209 66.6555C44.0944 66.9796 39.3462 68.7046 35.4593 70.1133C27.494 73.004 25.7974 73.5817 25.3431 73.5817L25.3405 73.5843ZM25.7738 71.8201C25.8788 72.1363 25.9182 72.3898 25.8998 72.5963C25.8867 72.7296 25.8473 72.8734 25.7817 73.0249C27.1552 72.6277 31.4465 71.0699 35.2939 69.6742C38.729 68.4275 41.0191 67.6042 42.5502 67.0711C40.9849 67.5703 39.2044 68.1479 37.5104 68.6967C26.8715 72.1441 26.3358 72.2487 26.1257 72.0814L26.0259 72.0004L26.0338 71.8645C26.039 71.8044 26.0495 71.7521 26.0653 71.7103L25.7712 71.8201H25.7738ZM45.6071 66.1432C45.6964 66.1432 45.7384 66.1641 45.7752 66.1955L45.8802 66.2817L45.8619 66.4281C45.8382 66.564 45.7831 66.7783 45.7174 67.0266C45.6019 67.4709 45.3602 68.3962 45.4364 68.6053C45.5782 68.9947 45.7962 69.3136 46.0798 69.5462C46.3661 69.7814 46.6891 69.9199 47.0699 69.967C47.4534 70.014 47.8631 69.9618 48.2859 69.8075C48.7533 69.6377 49.1263 69.3423 49.4257 68.9032C49.6778 68.5347 49.8249 68.1322 49.8669 67.7036H49.2786C49.2366 68.012 49.1263 68.3021 48.9503 68.5661C48.7297 68.9006 48.4382 69.1332 48.0863 69.2613C47.6319 69.426 47.2039 69.4312 46.8152 69.2796C46.416 69.1228 46.1376 68.8274 45.9827 68.4066C45.9013 68.1819 46.0142 67.7454 46.3031 66.8541C46.3582 66.679 46.4134 66.517 46.4265 66.4542C46.4685 66.2661 46.5552 66.0491 46.6944 65.7982C46.4002 65.8766 45.98 66.0021 45.4653 66.1589C45.5231 66.1511 45.5703 66.1458 45.6071 66.1458V66.1432ZM25.3588 70.8399C25.2407 70.8399 25.1304 70.8164 25.0227 70.7668L24.8809 70.7014L24.8861 70.5446C24.8914 70.4174 25.7598 70.0227 27.4913 69.3606C28.9883 68.7882 31.0236 68.0198 33.1798 67.2044C37.6181 65.5264 42.994 63.4956 44.617 62.8186C42.9572 62.3299 37.5551 60.9577 33.8311 60.0325L25.2328 57.8945L33.9335 59.5699C38.3298 60.4167 44.9689 61.6739 45.5651 61.7261C45.7883 61.6556 46.0063 61.666 46.2059 61.7601C46.4186 61.8594 46.5736 62.0319 46.6602 62.2698C46.7285 62.458 45.404 63.073 42.6867 64.115C40.4045 64.9906 37.4579 66.104 34.6058 67.1808C30.7111 68.6523 26.6877 70.1708 26.1677 70.4087C26.0627 70.5812 25.9051 70.704 25.695 70.7824C25.5794 70.8243 25.4691 70.8452 25.3615 70.8452L25.3588 70.8399ZM41.5286 61.4909C44.2914 62.2071 45.0845 62.4423 45.3314 62.573C45.6754 62.4344 45.9406 62.3273 46.1061 62.2541C46.0772 62.2254 46.0431 62.2018 46.0037 62.1835C45.9065 62.1391 45.8041 62.1365 45.6833 62.1809C45.6255 62.2018 45.531 62.2332 41.5286 61.4909Z" fill="currentColor"/>
<path d="M3.85791 79.2559L16.4323 74.7082L46.4082 70.8374L43.0886 72.037L3.85791 79.2559ZM16.519 75.1734L9.37563 77.7609L39.6955 72.1808L16.519 75.1734ZM20.5319 72.5885C20.4137 72.5885 20.3034 72.565 20.1957 72.5153L20.0539 72.45L20.0592 72.2932C20.0644 72.166 20.9328 71.7713 22.6644 71.1092C24.1613 70.5368 26.1967 69.7684 28.3528 68.9529C33.1903 67.126 39.1414 64.8756 40.1341 64.4183C40.1078 64.251 40.1289 64.0915 40.1971 63.94C40.2943 63.7256 40.4598 63.5767 40.6961 63.4904C40.9351 63.4042 41.1662 63.4094 41.3789 63.5087C41.5917 63.608 41.744 63.7805 41.8333 64.0184C41.9016 64.2065 40.5779 64.8216 37.8624 65.8636C35.5828 66.7392 32.6336 67.8526 29.7841 68.9268C25.8868 70.3983 21.8608 71.9194 21.3408 72.1573C21.2357 72.3298 21.0781 72.4526 20.868 72.531C20.7525 72.5728 20.6422 72.5937 20.5345 72.5937L20.5319 72.5885ZM41.0218 63.8981C40.9692 63.8981 40.9141 63.9086 40.8563 63.9295C40.7434 63.9713 40.6725 64.034 40.6305 64.1281C40.6068 64.1778 40.5963 64.2301 40.5989 64.285C40.8983 64.1647 41.1294 64.068 41.2818 64.0027C41.2529 63.9739 41.2187 63.9504 41.1793 63.9321C41.1294 63.9086 41.0769 63.8981 41.0244 63.8981H41.0218Z" fill="currentColor"/>
<path d="M57.3148 59.7227C57.1625 59.7227 57.0102 59.6783 56.8578 59.592C56.6635 59.4796 56.5269 59.3281 56.4534 59.1399C56.0017 58.8393 52.5114 57.1195 50.3448 56.0688L46.001 53.9648L50.5312 55.635C52.8633 56.4949 56.6451 57.8644 57.1047 57.969C57.3174 57.9245 57.5275 57.9611 57.7324 58.0813C57.9477 58.2068 58.0869 58.3845 58.1447 58.6093C58.2025 58.8341 58.1657 59.0588 58.0396 59.2758C57.911 59.4953 57.7376 59.6365 57.5196 59.6966C57.4514 59.7149 57.3831 59.7227 57.3148 59.7227ZM54.5152 57.5874C56.8342 58.7504 56.8605 58.8445 56.8867 58.9386C56.9156 59.0405 56.9813 59.119 57.0942 59.1843C57.2386 59.2679 57.3358 59.2575 57.3962 59.2418C57.4881 59.2183 57.5643 59.1529 57.6273 59.0432C57.693 58.9308 57.7114 58.8315 57.6851 58.7269C57.6588 58.625 57.5984 58.5518 57.496 58.4917C57.3857 58.429 57.2833 58.4107 57.1782 58.4394C57.1152 58.4577 57.0207 58.4838 54.5126 57.59L54.5152 57.5874Z" fill="currentColor"/>
<path d="M44.6015 85.4388C44.5778 85.4388 44.5568 85.4336 44.5332 85.4284L44.3704 85.3918L44.3388 85.2114C44.31 84.9239 44.5227 84.7776 44.7302 84.6939C44.7564 84.6573 44.7853 84.6207 44.8142 84.5789C44.717 84.5057 44.5857 84.4195 44.415 84.3254L44.2049 84.2104L46.5107 80.2141L46.7156 80.3291C46.7996 80.3762 46.9283 80.4494 47.0045 80.5591C47.8475 79.4091 50.2006 75.703 52.144 72.6424C56.8817 65.1804 56.9238 65.1883 57.1916 65.2484L57.3545 65.285L57.3807 65.4627C57.4333 65.9384 57.5147 66.2834 57.625 66.4925C57.667 66.5709 57.7248 66.7172 57.8088 66.9185C57.9375 67.2374 58.2421 67.9796 58.3734 68.0894C58.6361 68.2384 58.9013 68.2724 59.1797 68.1809C59.466 68.0868 59.6944 67.8855 59.8809 67.5667C60.0175 67.3315 60.0674 67.0701 60.0332 66.7721C59.9965 66.4663 59.8862 66.1971 59.6918 65.9514L59.55 65.7711L60.7213 64.7988L60.8736 64.9818C61.2676 65.4549 61.4987 66.0063 61.5617 66.6232C61.6562 67.1302 64.8156 73.863 66.9192 78.2722L68.3663 81.304L66.5069 78.5048C64.3586 75.2691 60.8185 70.1019 60.1094 69.4642C59.747 69.6707 59.3557 69.7752 58.9433 69.7804C58.4811 69.7831 58.0373 69.6576 57.6013 69.4093C57.3019 69.2368 56.9868 68.6121 56.6034 67.815C56.5613 67.7261 56.5193 67.6425 56.4826 67.5667C55.7367 68.5207 53.1131 72.6345 50.7731 76.3041C47.6689 81.1707 46.1851 83.4629 45.434 84.5319C45.4392 84.5397 45.4445 84.5476 45.4497 84.5554C45.5049 84.6338 45.518 84.7279 45.4891 84.8142C45.434 84.9762 45.2659 85.0259 45.0899 85.0781C45.0689 85.0834 45.04 85.0938 45.0112 85.1017C44.7801 85.3892 44.6829 85.4467 44.6041 85.4467L44.6015 85.4388ZM44.851 84.0353C44.9376 84.0876 45.0164 84.1424 45.0873 84.1947C45.5574 83.5152 46.2507 82.4619 47.0517 81.2256C46.9519 81.3223 46.8942 81.338 46.839 81.338H46.7103L46.6289 81.2308C46.5922 81.1786 46.5685 81.1315 46.5528 81.0871L44.8536 84.0327L44.851 84.0353ZM60.1068 68.9362C60.3746 68.9362 60.9577 69.5557 63.7257 73.5598C64.2063 74.255 64.6843 74.9529 65.1176 75.5932C63.4867 72.1458 61.1257 67.0936 61.0837 66.6702C61.0391 66.2285 60.892 65.8234 60.6478 65.4705L60.1961 65.8469C60.3641 66.1109 60.4666 66.4036 60.5033 66.7172C60.548 67.1145 60.4771 67.4804 60.2906 67.8019C60.049 68.2201 59.726 68.4971 59.3294 68.6278C58.9223 68.7611 58.5179 68.7167 58.1292 68.4919C57.9191 68.3717 57.7274 67.964 57.3702 67.0962C57.3019 66.9263 57.2363 66.7669 57.2048 66.712C57.1129 66.5395 57.0393 66.3121 56.9842 66.0272C56.8003 66.2834 56.5456 66.665 56.2357 67.1354C56.3985 66.9551 56.4747 66.9316 56.543 66.9342H56.6769L56.7531 67.057C56.824 67.1772 56.9185 67.3785 57.0288 67.6085C57.2258 68.0215 57.6381 68.884 57.8351 68.9963C58.1975 69.2054 58.5599 69.3021 58.9355 69.3048C59.3005 69.3021 59.6472 69.1976 59.9649 68.9937C60.0096 68.965 60.0516 68.9388 60.1068 68.9388V68.9362ZM43.4407 83.7478L43.3435 83.6223C43.2647 83.5213 43.6753 82.6622 44.5752 81.0453C45.3526 79.647 46.4162 77.7547 47.5429 75.7474C50.064 71.2572 53.1682 65.7319 53.6331 64.7466C53.507 64.6368 53.4177 64.4983 53.3731 64.3388C53.3101 64.1141 53.339 63.8893 53.465 63.675C53.5937 63.4554 53.7723 63.3117 54.0008 63.2515C54.2292 63.1914 54.4551 63.2254 54.6783 63.3509C54.8517 63.4502 54.2345 64.7692 52.8268 67.3079C51.645 69.4381 50.1034 72.1772 48.6144 74.8274C46.5816 78.4447 44.4807 82.1822 44.2364 82.6971C44.2679 82.8957 44.2259 83.0918 44.113 83.2852C43.9843 83.5047 43.811 83.6459 43.593 83.706L43.4407 83.7478ZM54.1242 63.7115C54.0191 63.7403 53.9404 63.803 53.8773 63.9154C53.8169 64.0173 53.8038 64.1114 53.8327 64.2134C53.8484 64.2656 53.8721 64.3127 53.9088 64.3545C54.0612 64.0696 54.1767 63.8475 54.2476 63.7011C54.2082 63.7011 54.1662 63.7011 54.1242 63.7142V63.7115Z" fill="currentColor"/>
<path d="M42.4584 90.9958C42.4374 90.9958 42.4164 90.9906 42.3927 90.988L42.2247 90.954L42.1932 90.7711C42.1616 90.4574 42.096 90.23 41.9962 90.0889C41.9279 89.9896 41.7598 89.8223 41.3528 89.6002L41.1427 89.4852L41.8964 88.1548L42.1039 88.2698C42.1853 88.3142 42.3113 88.3848 42.3875 88.492C43.3119 87.206 46.08 82.7942 48.3622 79.156C53.8169 70.4604 53.8563 70.463 54.1294 70.5231L54.2948 70.5597L54.3211 70.7348C54.3736 71.2105 54.455 71.5555 54.5653 71.7646C54.6074 71.843 54.6651 71.9894 54.7492 72.1906C54.8805 72.5095 55.1825 73.2518 55.3138 73.3616C55.5764 73.5105 55.8417 73.5445 56.1201 73.453C56.4063 73.3589 56.6348 73.1577 56.8213 72.8388C56.9578 72.6036 57.0077 72.3422 56.9736 72.0443C56.9395 71.7385 56.8265 71.4693 56.6322 71.2236L56.4904 71.0432L57.6617 70.071L57.814 70.2539C58.2079 70.727 58.439 71.2811 58.5021 71.8979C58.5651 72.52 58.4469 73.0923 58.1502 73.602C57.8849 74.0568 57.554 74.4149 57.1653 74.6632C56.7714 74.9167 56.3381 75.0474 55.8811 75.05C55.4215 75.0447 54.975 74.9271 54.5391 74.6762C54.2397 74.5037 53.9245 73.8791 53.5411 73.0819C53.5017 72.9983 53.465 72.9225 53.4308 72.8493C52.7007 73.8843 50.1769 78.2412 48.1101 81.8089C43.1517 90.3686 42.7289 90.9985 42.4584 90.9985V90.9958ZM41.7913 89.3022C42.075 89.4773 42.2719 89.6472 42.3901 89.8171C42.4663 89.9269 42.5293 90.0628 42.5766 90.2196C43.3723 89.0382 45.6545 85.0995 47.7004 81.5684C49.5282 78.4137 50.7494 76.3202 51.5793 74.9297C50.7022 76.315 49.7121 77.8962 48.7692 79.3965C42.8445 88.8448 42.503 89.2656 42.2352 89.2708H42.1065L42.0251 89.1637C41.9909 89.114 41.9673 89.067 41.9489 89.0225L41.794 89.2944L41.7913 89.3022ZM53.6146 72.1985L53.6934 72.3213C53.7643 72.4415 53.8589 72.6428 53.9692 72.8728C54.1662 73.2858 54.5785 74.1483 54.7754 74.2607C55.1379 74.4697 55.516 74.5717 55.8758 74.5691C56.2461 74.5664 56.5823 74.4645 56.9053 74.258C57.2283 74.0489 57.5094 73.7484 57.7352 73.3589C57.9847 72.9303 58.0793 72.4651 58.0267 71.9371C57.9821 71.4954 57.835 71.0903 57.5908 70.7348L57.1391 71.1112C57.3071 71.3752 57.4096 71.6679 57.4463 71.9815C57.491 72.3788 57.4201 72.7447 57.2336 73.0662C56.992 73.4844 56.6663 73.7614 56.2724 73.8921C55.8653 74.0254 55.4609 73.981 55.0722 73.7562C54.8621 73.636 54.6704 73.2283 54.3132 72.3605C54.2449 72.1906 54.1793 72.0312 54.1478 71.9763C54.0559 71.8064 53.985 71.5817 53.9298 71.302C53.7565 71.5503 53.5122 71.9162 53.2207 72.3631C53.3494 72.2168 53.4177 72.1959 53.4833 72.1959H53.6199L53.6146 72.1985ZM40.381 89.0147L40.2839 88.8892C40.2051 88.7882 40.6157 87.9292 41.5156 86.3122C42.2929 84.9165 43.3566 83.0216 44.4832 81.0169C46.7969 76.8952 49.6018 71.9031 50.408 70.348C48.8191 71.0354 43.7978 73.44 40.3469 75.1127L32.3789 78.9757L40.1263 74.6945C44.042 72.5304 49.9405 69.2451 50.429 68.9053C50.5551 68.7066 50.7284 68.5786 50.9411 68.5211C51.1696 68.461 51.3955 68.4949 51.6187 68.6204C51.792 68.7197 51.1749 70.0379 49.7672 72.5748C48.5854 74.705 47.0464 77.4441 45.5574 80.0917C43.5247 83.7116 41.4237 87.4491 41.1794 87.964C41.2109 88.1626 41.1689 88.3587 41.056 88.5521C40.9299 88.7716 40.754 88.9128 40.536 88.9703L40.3837 89.0121L40.381 89.0147ZM51.0646 68.9785C50.9595 69.0072 50.8807 69.0699 50.8177 69.1823C50.7862 69.2346 50.7389 69.3182 47.1909 71.3098C49.7672 70.0919 50.5288 69.7652 50.802 69.7051C50.9779 69.3784 51.1092 69.1274 51.188 68.9654C51.1486 68.9628 51.1066 68.9654 51.0646 68.9785Z" fill="currentColor"/>
<path d="M29.8052 109.02L36.4995 97.4916L56.9631 75.3488L55.193 78.3937L29.8052 109.02ZM36.8671 97.7922L33.067 104.342L52.6876 80.6754L36.8671 97.7922ZM37.8126 93.4431L37.7154 93.3176C37.6366 93.2166 38.0472 92.3567 38.9471 90.738C39.7245 89.3397 40.7881 87.4474 41.9148 85.4401C44.4359 80.9499 47.5401 75.4272 48.005 74.4419C47.8789 74.3321 47.7896 74.1936 47.745 74.0341C47.682 73.8094 47.7108 73.5846 47.8369 73.3703C47.9656 73.1507 48.1442 73.007 48.3727 72.9469C48.6011 72.8867 48.8296 72.9207 49.0502 73.0462C49.2236 73.1455 48.6064 74.4645 47.1987 77.0032C46.0169 79.1334 44.4753 81.8725 42.9863 84.5227C40.9535 88.14 38.8526 91.8775 38.6083 92.3924C38.6398 92.591 38.5978 92.7871 38.4875 92.9805C38.3588 93.2 38.1855 93.3412 37.9675 93.4013L37.8152 93.4431H37.8126ZM48.5933 73.3938C48.5618 73.3938 48.5302 73.399 48.4961 73.4069C48.391 73.4356 48.3123 73.4983 48.2492 73.6107C48.1888 73.7127 48.1757 73.8067 48.2046 73.9087C48.2203 73.961 48.244 74.008 48.2807 74.0498C48.4331 73.7649 48.5486 73.5428 48.6195 73.3964C48.6117 73.3964 48.6011 73.3964 48.5933 73.3964V73.3938Z" fill="currentColor"/>
<path d="M45.7515 62.6866L50.3027 61.0661C52.6453 60.2324 56.4271 58.8628 56.8473 58.6485C56.9812 58.4786 57.1677 58.3741 57.4014 58.3322C57.6483 58.2878 57.8689 58.3375 58.058 58.4734C58.2471 58.6093 58.3626 58.8027 58.4073 59.0536C58.4519 59.3045 58.4073 59.5241 58.2786 59.707C58.1499 59.89 57.9556 60.0076 57.7035 60.0494C57.4802 60.0886 57.278 60.0573 57.1021 59.9606C56.561 60.0207 52.7766 60.9328 50.4393 61.5157L45.7515 62.684V62.6866ZM57.2045 58.9621C57.1651 59.017 57.1073 59.098 54.6124 60.0154C57.1414 59.4221 57.2229 59.4796 57.3016 59.5319C57.3909 59.592 57.4907 59.6077 57.6194 59.5868C57.7849 59.558 57.8505 59.4875 57.8873 59.4378C57.9424 59.3594 57.9582 59.2601 57.9372 59.1373C57.9136 59.0092 57.8637 58.9203 57.777 58.8576C57.693 58.7975 57.5984 58.7766 57.4802 58.7975C57.3542 58.8184 57.2649 58.8707 57.2045 58.9595V58.9621Z" fill="currentColor"/>
<path d="M64.7998 87.8074L64.658 87.6898C64.4505 87.4885 64.5188 87.2402 64.6238 87.0416C64.6238 86.9972 64.6186 86.9501 64.6133 86.9005C64.4899 86.9057 64.3376 86.924 64.1432 86.9632L63.9069 87.0103L63.0901 82.4756L63.3212 82.4311C63.4131 82.4128 63.5628 82.3867 63.6915 82.4207C63.5943 81.0015 63.0034 76.655 62.5149 73.0664C61.3253 64.3185 61.362 64.3003 61.6063 64.1748L61.756 64.099L61.8899 64.2166C62.2366 64.5459 62.5228 64.7603 62.7434 64.8491C62.8248 64.8831 62.9667 64.9563 63.161 65.0582C63.4656 65.2176 64.1774 65.594 64.3507 65.594C64.6475 65.5417 64.8733 65.3954 65.0256 65.1497C65.1832 64.8936 65.2305 64.593 65.1648 64.2323C65.1175 63.9631 64.9862 63.7331 64.7683 63.5266C64.5424 63.3149 64.285 63.179 63.9778 63.1163L63.7519 63.0692L64.0198 61.5742L64.2535 61.616C64.8602 61.7258 65.3933 62.0002 65.8398 62.4341C66.239 62.7634 73.0094 65.8998 77.4687 67.9306L80.5336 69.3263L77.3007 68.3723C73.5635 67.2694 67.5153 65.5757 66.5594 65.5391C66.4149 65.9286 66.1838 66.2605 65.8687 66.5271C65.522 66.8198 65.0965 67.0132 64.6002 67.0995C64.2588 67.1596 63.6127 66.8825 62.8065 66.5166C62.7172 66.4748 62.6305 66.4356 62.5543 66.4016C62.599 67.6091 63.245 72.4365 63.8228 76.7438C64.5897 82.4599 64.9337 85.165 65.0466 86.4666C65.0545 86.4666 65.065 86.4718 65.0729 86.4745C65.1648 86.5006 65.2384 86.5633 65.2699 86.647C65.3303 86.8064 65.2357 86.9501 65.1359 87.1043C65.1228 87.1226 65.107 87.1462 65.0913 87.1723C65.1018 87.6506 65.0335 87.6846 64.9416 87.7342L64.7945 87.81L64.7998 87.8074ZM63.6889 83.1159L64.2903 86.4614C64.3901 86.4483 64.4846 86.4379 64.5739 86.4326C64.4951 85.6119 64.3454 84.36 64.1616 82.9016C64.1458 83.0401 64.1143 83.0898 64.0723 83.1264L63.9751 83.21L63.8412 83.1786C63.7808 83.163 63.7309 83.1421 63.6889 83.1185V83.1159ZM66.5016 65.0713C67.0137 65.0713 68.3452 65.3588 71.9852 66.3598C72.8019 66.5846 73.6187 66.8146 74.3645 67.0263C70.89 65.4294 65.8188 63.0692 65.5115 62.7713C65.1911 62.4602 64.8182 62.2459 64.4006 62.1309L64.2955 62.7085C64.5949 62.8052 64.8628 62.9621 65.0939 63.179C65.3854 63.4534 65.5666 63.7801 65.6323 64.146C65.7163 64.6217 65.648 65.0399 65.4274 65.3954C65.2016 65.7587 64.8628 65.9808 64.419 66.0592C64.18 66.1011 63.7703 65.9129 62.9378 65.4738C62.7749 65.3875 62.6226 65.3091 62.5622 65.283C62.381 65.2098 62.1788 65.0817 61.9503 64.8988C61.9766 65.2124 62.0265 65.6698 62.0921 66.2265C62.1 65.9834 62.142 65.9207 62.1972 65.8737L62.3022 65.79L62.4388 65.8345C62.5701 65.8815 62.7723 65.973 63.0061 66.0802C63.4263 66.2709 64.3008 66.6708 64.5214 66.629C64.9337 66.5558 65.283 66.399 65.564 66.1612C65.845 65.9207 66.0394 65.628 66.1523 65.2647C66.1864 65.1601 66.2127 65.0687 66.5016 65.0687V65.0713ZM63.0244 87.1409L62.8695 87.1096C62.7434 87.0834 62.5036 86.1634 62.1499 84.3496C61.8426 82.784 61.4356 80.6565 61.0049 78.4009C60.0358 73.3409 58.8435 67.1178 58.5651 66.0645C58.3944 66.0619 58.2394 66.0122 58.1029 65.9181C57.9085 65.7874 57.7877 65.5966 57.7457 65.3509C57.7011 65.1 57.7457 64.8753 57.8823 64.6845C58.0162 64.491 58.2132 64.3734 58.4653 64.329C58.6649 64.2942 59.0431 65.6986 59.5998 68.5422C60.0699 70.9285 60.6582 74.0126 61.2307 76.9921C62.0107 81.0668 62.8143 85.2748 62.9614 85.8263C63.1137 85.9569 63.2083 86.1347 63.2477 86.3542C63.2923 86.6051 63.2477 86.8247 63.119 87.0076L63.0297 87.1357L63.0244 87.1409ZM58.3524 64.87C58.3182 64.8936 58.292 64.9223 58.2657 64.9589C58.2027 65.0478 58.1843 65.1471 58.2079 65.2725C58.2289 65.3901 58.2788 65.4712 58.3655 65.5287C58.4101 65.56 58.46 65.5783 58.5152 65.5888C58.4469 65.2751 58.3944 65.0295 58.3524 64.87Z" fill="currentColor"/>
<path d="M66.7534 93.4428L66.6089 93.3226C66.3805 93.1031 66.1835 92.9698 66.018 92.9253C65.8999 92.894 65.6635 92.8731 65.2092 92.9619L64.9754 93.0063L64.6944 91.5061L64.9281 91.4617C65.0201 91.446 65.1619 91.4173 65.2879 91.4486C65.1671 89.8726 64.437 84.7211 63.833 80.4765C62.3938 70.3173 62.4253 70.3016 62.6748 70.1709L62.8245 70.0951L62.9585 70.2127C63.3051 70.542 63.5914 70.7564 63.812 70.8452C63.8934 70.8792 64.0352 70.9524 64.2296 71.0543C64.5342 71.2137 65.2485 71.5901 65.4193 71.5901C65.716 71.5378 65.9419 71.3915 66.0942 71.1458C66.2518 70.8897 66.299 70.5891 66.2334 70.2284C66.1861 69.9592 66.0548 69.7292 65.8368 69.5227C65.611 69.311 65.3536 69.1751 65.0463 69.1124L64.8205 69.0653L65.0883 67.5703L65.3221 67.6121C65.9287 67.7219 66.4645 67.999 66.911 68.4328C67.36 68.8693 67.6384 69.3842 67.7435 69.9644C67.8354 70.4819 67.8118 70.9654 67.6752 71.4072C67.536 71.8541 67.2891 72.2305 66.9425 72.5232C66.5958 72.8159 66.1704 73.0093 65.674 73.0956C65.3352 73.1557 64.6865 72.8786 63.8803 72.5127C63.7962 72.4735 63.7175 72.4395 63.6465 72.4056C63.7542 73.6653 64.6366 78.6182 65.3562 82.6746C67.2261 93.1893 67.171 93.2181 66.9083 93.3618L66.7586 93.4428H66.7534ZM65.7685 92.4235C65.913 92.4235 66.0364 92.4392 66.1441 92.4679C66.2754 92.5045 66.4093 92.5673 66.5485 92.6587C66.3936 91.2448 65.5978 86.7676 64.8861 82.7556C64.248 79.1697 63.833 76.7834 63.5704 75.1891C63.7936 76.8096 64.0562 78.6574 64.3031 80.4112C65.8657 91.4355 65.8762 91.9792 65.6766 92.1543L65.5795 92.2379L65.4455 92.2066C65.3877 92.1909 65.3378 92.17 65.2984 92.1491L65.3562 92.4575C65.5085 92.4366 65.6477 92.4235 65.7712 92.4235H65.7685ZM63.3655 71.7914L63.5074 71.8358C63.6387 71.8828 63.8409 71.9743 64.0746 72.0815C64.4948 72.2723 65.3694 72.6695 65.59 72.6303C66.0023 72.5572 66.3516 72.4003 66.6326 72.1625C66.9136 71.922 67.1079 71.6293 67.2209 71.266C67.3338 70.9001 67.3522 70.4898 67.2734 70.0454C67.1893 69.5645 66.9556 69.1359 66.5774 68.77C66.257 68.459 65.8841 68.2446 65.4665 68.1296L65.3641 68.7073C65.6635 68.804 65.9314 68.9608 66.1625 69.1777C66.454 69.4521 66.6352 69.7788 66.7009 70.1448C66.7849 70.6204 66.7166 71.0386 66.496 71.3941C66.2702 71.7574 65.9314 71.9795 65.4875 72.058C65.2512 72.0998 64.8389 71.9116 64.0063 71.4725C63.8435 71.3862 63.6912 71.3078 63.6308 71.2817C63.4522 71.2085 63.2526 71.0857 63.0268 70.9053C63.053 71.2085 63.1029 71.6424 63.1686 72.173C63.1738 71.9769 63.2106 71.9194 63.2605 71.8776L63.3655 71.7887V71.7914ZM64.0904 93.1396L63.9354 93.1083C63.8094 93.0821 63.5695 92.1621 63.2158 90.3483C62.9086 88.7827 62.5015 86.6526 62.0682 84.397C61.1779 79.7578 60.1011 74.1358 59.7151 72.4291C58.943 73.9711 56.6476 79.0259 55.085 82.5178L51.4766 90.573L54.6464 82.3374C56.2484 78.1739 58.6436 71.8854 58.7985 71.3131C58.767 71.0804 58.8143 70.8714 58.943 70.691C59.0769 70.4976 59.2739 70.38 59.526 70.3356C59.7256 70.3007 60.1037 71.7051 60.6605 74.5488C61.1306 76.935 61.7189 80.0191 62.2914 82.9987C63.0714 87.0734 63.875 91.2813 64.0221 91.8328C64.1744 91.9635 64.269 92.1412 64.3084 92.3608C64.353 92.6117 64.3084 92.8312 64.1797 93.0142L64.0904 93.1423V93.1396ZM59.4183 70.8687C59.3842 70.8923 59.3579 70.921 59.3316 70.9576C59.2686 71.0465 59.2502 71.1458 59.2739 71.2712C59.2844 71.3314 59.3001 71.4281 57.8688 75.2231C59.0559 72.6408 59.4288 71.9037 59.5995 71.6842C59.5234 71.3235 59.4603 71.0439 59.4183 70.8687Z" fill="currentColor"/>
<path d="M68.9069 115.226L66.5879 102.136V102.11L67.9641 72.0586L68.5734 75.5217L68.9043 115.223L68.9069 115.226ZM67.0659 102.108L68.3869 109.557L68.1322 78.875L67.0685 102.108H67.0659ZM64.9807 98.1716L64.8257 98.1402C64.6997 98.1141 64.4598 97.1941 64.1061 95.3802C63.7989 93.8146 63.3918 91.6871 62.9611 89.4315C61.992 84.3715 60.7997 78.1484 60.5187 77.0951C60.348 77.0925 60.193 77.0428 60.0565 76.9487C59.8621 76.818 59.7413 76.6272 59.6993 76.3816C59.6547 76.1307 59.6993 75.9059 59.8359 75.7151C59.9724 75.5217 60.1668 75.4014 60.4189 75.3596C60.6167 75.3248 60.9949 76.7292 61.5534 79.5728C62.0235 81.9591 62.6118 85.0432 63.1843 88.0228C63.9643 92.0974 64.768 96.3054 64.915 96.8569C65.0673 96.9876 65.1619 97.1653 65.2013 97.3849C65.2459 97.6358 65.2013 97.8553 65.0726 98.0383L64.9833 98.1663L64.9807 98.1716ZM60.3086 75.9007C60.2745 75.9242 60.2482 75.9529 60.2219 75.9895C60.1589 76.0784 60.1405 76.1777 60.1642 76.3032C60.1852 76.4208 60.2351 76.5018 60.3217 76.5593C60.3664 76.5907 60.4163 76.609 60.4714 76.6194C60.4031 76.3032 60.3506 76.0601 60.3086 75.9007Z" fill="currentColor"/>
<path d="M51.1958 69.5228L53.6356 65.3723C54.8909 63.2344 56.9052 59.766 57.0891 59.3348C57.0812 59.1205 57.1547 58.9192 57.3097 58.7389C57.4699 58.5481 57.6695 58.4435 57.9032 58.4279C58.1317 58.4122 58.3497 58.4854 58.5466 58.6474C58.741 58.8121 58.8513 59.0081 58.8723 59.2302C58.8907 59.455 58.8198 59.6667 58.6543 59.8601C58.5099 60.0326 58.3365 60.1372 58.1369 60.1764C57.7614 60.5658 55.4529 63.6891 54.0374 65.6311L51.2011 69.5228H51.1958ZM57.9636 58.8957C57.9636 58.8957 57.9452 58.8957 57.9347 58.8957C57.8297 58.9035 57.7456 58.948 57.6695 59.0394C57.5881 59.1362 57.5539 59.2329 57.5618 59.34C57.567 59.4054 57.5749 59.5047 56.2566 61.8047C57.8113 59.7347 57.9085 59.7242 58.0056 59.7138C58.1133 59.7033 58.2 59.651 58.284 59.5517C58.3917 59.4237 58.3969 59.327 58.3917 59.2668C58.3838 59.1701 58.3313 59.0865 58.2341 59.0055C58.1448 58.9297 58.0555 58.8931 57.961 58.8931L57.9636 58.8957Z" fill="currentColor"/>
<path d="M79.9901 77.3119C79.8378 77.3119 79.5121 77.0505 77.7473 75.6287C76.5024 74.6251 74.8138 73.2555 73.0253 71.8023C69.0177 68.5483 64.0856 64.5442 63.19 63.917C63.0587 64.0215 62.909 64.0842 62.741 64.1025C62.5046 64.1261 62.2919 64.0581 62.1002 63.8987C61.9032 63.734 61.7955 63.5328 61.7745 63.3001C61.7535 63.0675 61.827 62.848 61.9899 62.6546C62.1177 62.5012 63.3152 63.335 65.5825 65.1558C67.4839 66.6848 69.929 68.6686 72.29 70.5896C75.5176 73.2111 78.8503 75.9188 79.3178 76.2482C79.52 76.2534 79.7064 76.3266 79.8798 76.4703C80.0767 76.635 80.1844 76.831 80.2054 77.0532L80.2186 77.21L80.0794 77.2858C80.0479 77.3015 80.0216 77.3145 79.9875 77.3145L79.9901 77.3119ZM62.2604 63.1355C62.2499 63.1747 62.2472 63.2165 62.2499 63.2583C62.2604 63.3655 62.3103 63.4543 62.4074 63.538C62.4993 63.6138 62.5886 63.6451 62.6937 63.6347C62.7488 63.6295 62.7987 63.6138 62.846 63.585C62.5913 63.3864 62.3917 63.2348 62.2577 63.1381L62.2604 63.1355ZM82.0123 76.5827H81.8284C81.5396 76.5618 81.4319 76.3266 81.382 76.1096C81.3505 76.0783 81.319 76.0443 81.2848 76.0077C81.1955 76.0913 81.0878 76.2037 80.9644 76.3553L80.8121 76.5409L77.2588 73.5875L77.4085 73.4071C77.4689 73.3339 77.5634 73.2189 77.6869 73.1641C76.6968 72.1395 73.4376 69.1887 70.7457 66.7528C64.1828 60.8119 64.1985 60.7727 64.3062 60.5192L64.3719 60.365L64.5504 60.3702C65.0284 60.4016 65.3856 60.3807 65.6114 60.3075C65.6955 60.2814 65.8504 60.2474 66.0658 60.2004C66.4019 60.1272 67.1898 59.9599 67.3211 59.8501C67.5155 59.6201 67.5916 59.364 67.5496 59.0765C67.5049 58.7785 67.3474 58.5198 67.0637 58.2845C66.8536 58.1094 66.6042 58.0153 66.3021 57.997C65.9896 57.9761 65.7086 58.0415 65.4302 58.1878L65.228 58.295L64.469 56.9777L64.6765 56.8601C65.2122 56.5569 65.7979 56.4262 66.4203 56.4707C66.9377 56.4654 74.152 54.5392 78.8792 53.2428L82.1305 52.3516L79.0368 53.6871C75.4598 55.2318 69.7346 57.8036 68.9809 58.3891C69.1227 58.7811 69.1595 59.1836 69.0912 59.5861C69.015 60.0331 68.8128 60.4539 68.4898 60.8381C68.2666 61.1021 67.5942 61.3033 66.7381 61.5385C66.6435 61.5647 66.5516 61.5908 66.4702 61.6117C67.2843 62.5082 70.9007 65.7936 74.1257 68.7261C78.4038 72.6126 80.4129 74.4657 81.34 75.3883C81.3478 75.383 81.3557 75.3804 81.3636 75.3752C81.4503 75.336 81.5474 75.3386 81.6262 75.383C81.7759 75.4667 81.7969 75.6392 81.8179 75.8195C81.8179 75.8404 81.8232 75.8692 81.8284 75.9005C82.1462 76.2586 82.1173 76.3292 82.0753 76.4259L82.0123 76.5801V76.5827ZM78.1307 73.6972L80.7517 75.8744C80.82 75.7986 80.8856 75.7307 80.9513 75.6705C80.3604 75.0903 79.4386 74.2278 78.3539 73.2294C78.4327 73.3444 78.438 73.4019 78.4301 73.4568L78.4117 73.5822L78.2883 73.645C78.2305 73.6711 78.178 73.6868 78.1307 73.6946V73.6972ZM65.0363 60.8564C65.2595 61.0812 65.5904 61.3974 66.0027 61.7842C65.8531 61.5934 65.8425 61.5176 65.8557 61.4471L65.8819 61.3164L66.0159 61.2615C66.1472 61.2144 66.3625 61.1543 66.6094 61.0864C67.0532 60.9635 67.9777 60.71 68.1247 60.5375C68.3926 60.2186 68.5607 59.8736 68.6211 59.513C68.6841 59.1497 68.6421 58.802 68.4924 58.4492C68.3716 58.1643 68.3007 57.9944 73.6661 55.5559C74.4356 55.2057 75.213 54.8581 75.9194 54.5444C72.2663 55.5324 66.9351 56.949 66.4046 56.949C66.3993 56.949 66.3941 56.949 66.3888 56.949C65.9423 56.915 65.5195 56.9882 65.1256 57.1685L65.4197 57.6782C65.7112 57.5606 66.0185 57.5109 66.3337 57.5292C66.7355 57.5527 67.0848 57.686 67.371 57.9265C67.7413 58.2349 67.9619 58.6008 68.0223 59.0138C68.0827 59.4346 67.9698 59.824 67.6783 60.1664C67.5233 60.3493 67.0874 60.4696 66.1656 60.6682C65.987 60.7074 65.8163 60.744 65.7559 60.7623C65.5694 60.8224 65.3331 60.8538 65.0389 60.859L65.0363 60.8564Z" fill="currentColor"/>
<path d="M73.5873 87.2243L70.6958 78.8868C69.233 74.6736 67.0086 68.3224 66.7564 67.784C66.5831 67.6246 66.4833 67.4338 66.4649 67.2142C66.4439 66.9816 66.5175 66.7621 66.6803 66.5686C66.8098 66.4153 68.0074 67.2491 70.273 69.0699C72.1744 70.5989 74.6168 72.5826 76.9804 74.5011C80.208 77.1226 83.5434 79.8329 84.0082 80.1596C84.2104 80.1649 84.3969 80.238 84.5702 80.3818C84.7672 80.5438 84.8749 80.7425 84.8959 80.9646L84.909 81.1214L84.7698 81.1972C84.6577 81.2565 83.8804 80.7059 82.4377 79.5454C81.1929 78.5418 79.5068 77.1722 77.7184 75.7216C74.039 72.7342 69.5796 69.1143 68.1799 68.0558C68.5843 69.7312 70.0918 75.0708 71.1475 78.7456L73.5873 87.2269V87.2243ZM66.9455 67.0522C66.935 67.0914 66.9324 67.1332 66.935 67.175C66.9455 67.2822 66.9954 67.371 67.0926 67.4521C67.1399 67.4913 67.2134 67.554 68.5685 71.3751C67.8096 68.6387 67.6205 67.8363 67.61 67.5566C67.3185 67.3292 67.09 67.1541 66.9455 67.0496V67.0522ZM85.4999 80.4576L84.3155 79.4879L84.4652 79.305C84.5229 79.2344 84.6149 79.122 84.733 79.0645C83.6221 77.9354 79.7353 74.4566 76.5313 71.5895C68.8679 64.7286 68.8811 64.6947 68.9887 64.4359L69.0544 64.2817L69.233 64.2869C69.711 64.3183 70.0681 64.2974 70.294 64.2242C70.378 64.1981 70.533 64.1641 70.7483 64.117C71.0845 64.0439 71.8724 63.8766 72.0037 63.7668C72.198 63.5368 72.2742 63.2807 72.2322 62.9932C72.1875 62.6952 72.0299 62.4365 71.7463 62.2012C71.5362 62.0261 71.2867 61.932 70.9847 61.9137C70.6748 61.8954 70.3912 61.9582 70.1128 62.1045L69.9106 62.2117L69.1516 60.8944L69.359 60.7768C69.8948 60.4736 70.4831 60.3429 71.1055 60.3874C71.7305 60.4344 72.2768 60.6487 72.7311 61.0277C73.1356 61.3649 73.4323 61.7517 73.6109 62.1751C73.7921 62.6064 73.8473 63.0533 73.7711 63.5002C73.695 63.9472 73.4927 64.368 73.1697 64.7522C72.9465 65.0161 72.2742 65.2174 71.418 65.4526C71.3287 65.4761 71.2447 65.4997 71.1685 65.5206C72.0641 66.4144 75.9378 69.6449 79.1103 72.2925C87.3356 79.1534 87.312 79.2109 87.2043 79.4879L87.1413 79.6473H86.9548C86.6397 79.6238 86.4007 79.6473 86.2431 79.7205C86.1328 79.7702 85.9385 79.9061 85.647 80.2668L85.4973 80.4524L85.4999 80.4576ZM85.1926 79.5951L85.4369 79.7937C85.6601 79.5454 85.8597 79.3834 86.0488 79.2971C86.1722 79.2396 86.314 79.203 86.4795 79.1847C85.4474 78.1994 81.9466 75.2799 78.8082 72.6611C76.0034 70.3218 74.1441 68.7615 72.9123 67.7082C74.1309 68.8085 75.5228 70.0553 76.8464 71.2392C85.1664 78.6855 85.5235 79.0933 85.4841 79.3572L85.4658 79.4827L85.3449 79.5428C85.2898 79.5689 85.2399 79.5846 85.1926 79.5925V79.5951ZM69.7346 64.7757C69.9499 64.99 70.2677 65.2906 70.6617 65.6565C70.5382 65.5049 70.5303 65.4343 70.5409 65.3716L70.5645 65.2383L70.7011 65.1834C70.8324 65.1364 71.0477 65.0763 71.2946 65.0083C71.7384 64.8855 72.6629 64.6319 72.8073 64.4594C73.0752 64.1406 73.2432 63.7956 73.3037 63.4349C73.3641 63.0768 73.322 62.7187 73.175 62.3711C73.0253 62.0183 72.7758 61.6916 72.4291 61.4015C72.0483 61.0826 71.6045 60.9101 71.0714 60.8683C70.6249 60.8369 70.2021 60.9101 69.8081 61.0878L70.1023 61.5975C70.3938 61.4799 70.7011 61.4302 71.0162 61.4485C71.418 61.472 71.7673 61.6053 72.0536 61.8458C72.4239 62.1568 72.6445 62.5201 72.7049 62.9331C72.7653 63.3539 72.6523 63.7433 72.3608 64.0857C72.2059 64.2686 71.7699 64.3889 70.8481 64.5849C70.6695 64.6241 70.4988 64.6607 70.4384 64.679C70.2546 64.7391 70.0209 64.7705 69.7346 64.7757Z" fill="currentColor"/>
<path d="M102.867 94.9602L92.622 86.3979L74.2673 62.4961L76.9723 64.7595L102.87 94.9602H102.867ZM92.9845 86.0895L98.8068 90.9509L78.7923 67.6084L92.9845 86.0869V86.0895ZM88.6144 84.5109C88.4621 84.5109 88.1364 84.2495 86.3716 82.8277C85.1241 81.824 83.4381 80.4545 81.6496 79.0013C77.642 75.7473 72.7099 71.7432 71.817 71.1159C71.6857 71.2205 71.5334 71.2832 71.3679 71.3015C71.1342 71.325 70.9188 71.257 70.7271 71.0976C70.5328 70.933 70.4225 70.7317 70.4015 70.4991C70.3804 70.2639 70.454 70.0469 70.6168 69.8535C70.7446 69.7002 71.9422 70.5339 74.2095 72.3548C76.1109 73.8838 78.5533 75.8675 80.9169 77.7859C84.1445 80.4074 87.4799 83.1178 87.9473 83.4445C88.1496 83.4497 88.336 83.5229 88.5093 83.6667C88.7063 83.8313 88.814 84.0273 88.835 84.2495L88.8481 84.4063L88.7089 84.4821C88.6774 84.4978 88.6512 84.5109 88.617 84.5109H88.6144ZM70.8847 70.3344C70.8742 70.3736 70.8716 70.4154 70.8742 70.4573C70.8847 70.5644 70.9346 70.6533 71.0318 70.7343C71.1237 70.8101 71.2156 70.8415 71.318 70.831C71.3732 70.8258 71.4231 70.8101 71.4703 70.7814C71.2156 70.5827 71.016 70.4311 70.8821 70.3344H70.8847Z" fill="currentColor"/>
</svg>
