<svg width="96" height="81" viewBox="0 0 96 81" fill="none" xmlns="http://www.w3.org/2000/svg">
<path fill-rule="evenodd" clip-rule="evenodd" d="M17.2388 19.5859L50.4966 28.6927L49.9885 30.5698L16.7306 21.463L17.2388 19.5859ZM17.6406 20.2925L17.4332 21.0589L49.5867 29.8632L49.7941 29.0968L17.6406 20.2925Z" fill="currentColor"/>
<path fill-rule="evenodd" clip-rule="evenodd" d="M43.8467 18.8828L59.0107 50.0144L57.2736 50.8702L42.1096 19.7387L43.8467 18.8828ZM43.5845 19.6529L42.8753 20.0023L57.5358 50.1001L58.245 49.7507L43.5845 19.6529Z" fill="currentColor"/>
<path fill-rule="evenodd" clip-rule="evenodd" d="M51.8018 44.4727L79.3081 60.4447L78.3409 62.1295L50.8346 46.1574L51.8018 44.4727ZM52.0112 45.2589L51.6164 45.9468L78.1314 61.3433L78.5263 60.6554L52.0112 45.2589Z" fill="currentColor"/>
</svg>
