<svg width="466" height="62" viewBox="0 0 466 62" fill="none" xmlns="http://www.w3.org/2000/svg">
<path d="M420.587 36.9107C414.038 32.7535 404.055 28.0957 389.081 28.0957C411.043 27.7075 421.026 19.1681 435.003 14.1221C414.038 21.8852 390.079 28.4838 364.123 33.1417C363.125 31.589 368.116 30.0364 363.125 28.872L364.123 29.2601C360.629 28.0957 356.386 27.1253 351.764 26.5896C347.142 26.054 342.16 25.9608 337.169 26.5353C341.411 25.7628 345.904 25.037 350.396 24.2646C354.889 23.4921 359.381 22.6809 363.624 21.7338C366.449 21.105 369.174 20.4141 371.7 19.6378C377.101 17.9997 381.094 16.059 384.089 13.73C382.262 14.5723 380.315 15.3681 378.279 16.125C370.622 18.9546 361.527 21.1787 351.494 22.7973C348.15 23.3369 344.706 23.8065 341.162 24.2141C336.17 25.3786 332.177 26.9312 329.182 29.2601C326.187 30.4246 320.197 28.872 318.201 31.2009C319.199 29.6483 322.194 27.7075 319.199 26.543C310.214 23.4378 292.035 22.9759 282.052 25.3048C282.052 23.364 292.245 23.4378 295.24 23.0496C309.216 21.497 321.196 18.3918 328.663 13.567C330.021 12.6354 331.209 11.6534 332.177 10.6287C330.3 11.6806 328.364 12.7092 326.377 13.7029C323.192 15.6747 319.199 17.2273 314.208 18.7799C297.236 24.2141 277.27 26.543 263.294 33.1417C268.285 31.589 272.279 27.7075 265.29 26.9312C252.312 25.3786 240.333 30.0364 239.335 35.0824C239.335 25.7667 265.29 22.2733 279.267 16.451C253.311 23.0496 232.346 32.7535 215.375 42.8455C217.372 36.2469 226.357 23.8259 200.401 23.0496C212.38 22.2733 219.368 18.0036 231.348 17.2273C219.368 16.8392 209.385 19.5562 202.257 22.972C200.401 23.8027 198.653 24.6682 196.906 25.5261C191.665 28.0957 186.424 30.6187 178.438 31.9772C191.416 31.2009 196.407 26.1549 189.419 21.8852C183.429 18.7799 171.45 17.6155 163.463 19.9444C173.446 18.3918 187.423 16.0628 185.426 11.0168C184.428 12.9576 181.433 14.8984 176.441 16.0628C161.467 18.7799 136.509 16.0628 130.519 23.8259C128.522 23.4378 127.524 23.4378 125.527 23.4378C128.522 23.8259 130.519 23.0496 130.519 22.2733C130.519 21.8852 129.521 21.497 128.522 21.105C125.028 20.3326 121.534 20.3326 118.04 20.6237C114.546 20.9148 111.052 21.497 107.558 21.8852C121.534 17.2273 133.514 12.1813 146.492 7.52344C129.521 11.405 114.546 16.8392 105.561 23.8259C107.558 19.9444 93.5816 19.5562 87.5718 21.1322C84.8264 21.7066 82.2708 22.4053 79.9547 23.2049C72.9865 25.5959 68.1247 28.872 66.6273 32.3654C69.6222 28.4838 69.6222 24.2141 78.607 21.497C73.865 23.4378 69.4325 25.4989 65.2197 27.6454C63.1132 28.7206 61.0667 29.8152 59.0501 30.9292C49.6461 37.4114 38.6647 43.6219 30.6782 50.2205C41.6596 44.01 59.6291 40.9048 73.7252 35.5793C75.6021 34.7913 77.3391 33.9646 79.0961 33.1417C85.5851 29.2601 97.5648 28.872 104.553 26.543C106.55 25.9608 109.045 24.6993 112.04 23.7794C115.035 22.8594 118.529 22.2733 122.523 23.0496C117.86 24.7303 113.648 26.543 109.724 28.4295C101.888 32.2023 95.2288 36.2702 88.5601 40.1983C86.9928 41.1377 85.4254 42.0537 83.7782 42.9542C82.131 43.8547 80.4039 44.7397 78.567 45.6131C81.5719 44.4098 84.5769 43.6257 86.5735 42.4574C88.8197 39.2551 92.6831 36.5885 97.7246 34.4226C102.766 32.2567 108.975 30.5954 115.894 29.4076C123.251 28.1461 131.907 27.4552 139.873 27.1408C144.076 26.9739 148.329 26.9428 152.542 27.0787C155.776 27.1835 158.791 27.8123 162.095 27.5794C162.595 27.5445 163.154 27.4707 163.323 27.2844C163.453 27.1408 163.293 26.9739 163.393 26.8264C163.533 26.6284 164.122 26.5159 164.651 26.543C165.18 26.5702 165.619 26.7022 165.979 26.8536C167.796 27.6182 167.736 28.7866 167.396 29.8191C166.698 29.2407 165.989 28.6585 165.49 28.0491C165.18 27.6764 164.951 27.2805 165.18 26.8963C165.43 26.4693 166.228 26.1122 167.177 25.8754C168.664 25.4989 172.588 24.9205 172.428 26.1588C171.43 33.9219 145.474 34.6982 133.494 39.7442C134.003 39.5307 136.08 39.4298 136.818 39.3133C137.916 39.1464 138.995 38.9601 140.063 38.7699C142.559 38.3274 144.964 37.8112 147.32 37.2678C151.943 36.1965 156.385 35.0087 161.147 34.0267C168.894 32.4275 178.188 31.4027 186.384 32.606C187.043 32.7031 187.712 32.8156 188.421 32.804C190.437 32.7729 191.575 31.7987 193.552 31.6356C192.624 33.918 192.164 36.2314 192.194 38.5448C193.382 37.8966 193.442 37.0504 193.462 36.2547C196.068 36.9728 198.713 37.6986 201.668 38.1722C204.623 38.6457 207.978 38.8475 211.042 38.4866C214.107 38.1256 216.773 37.128 217.222 35.8976C217.322 37.2949 217.402 38.7427 216.034 40.0392C214.596 41.39 211.711 42.4341 208.607 43.257C205.282 44.1381 201.149 45.3724 197.236 45.7451C192.314 46.2147 187.323 45.2521 182.311 44.9726C175.623 44.6 173.486 45.6053 167.147 46.5175C166.059 46.6728 161.067 47.418 161.067 47.418C161.067 47.418 176.301 48.0779 183.18 47.8411C190.757 47.5772 198.244 46.9328 205.372 45.9003C217.142 44.1924 226.806 40.9397 237.098 38.2343C237.488 38.1333 240.293 37.5511 240.293 37.4153C240.293 37.8034 239.295 38.5797 239.295 38.9679C242.289 34.6982 255.267 33.5337 261.257 30.4285C246.283 37.0271 241.291 46.3428 222.243 51.9672C220.067 52.5805 217.761 53.1122 215.285 53.5392C212.809 53.9662 210.184 54.2884 207.359 54.4824C211.092 54.4863 214.557 54.2612 217.791 53.8497C221.575 53.3684 225.049 52.6309 228.323 51.7071C243.288 46.731 252.273 40.1323 264.252 33.5337C278.229 26.5469 299.193 27.7114 318.161 29.264C319.159 29.6522 316.164 31.5929 313.169 31.9811C288.212 32.7574 268.245 38.1916 258.262 46.731C273.237 38.1916 305.183 27.3232 332.137 33.5337C332.137 32.7574 332.137 32.3692 332.467 31.5774C334.952 31.8142 337.448 31.919 340.014 31.9578C344.057 31.9694 348.08 31.9733 351.964 31.8297C355.847 31.6861 359.591 31.395 363.085 30.8127C363.584 31.9772 362.586 33.0446 360.868 33.9063C359.151 34.768 356.725 35.4201 354.359 35.754C351.584 36.1149 348.42 36.2974 345.235 36.4099C342.05 36.5225 338.846 36.5768 335.981 36.6739C328.144 37.4114 318.161 38.964 317.163 42.8455C321.156 39.7403 330.141 38.5758 336.669 37.2134C339.614 36.8835 342.569 36.6351 345.534 36.4022C348.499 36.1693 351.474 35.948 354.459 35.6763C357.115 35.3347 359.92 34.834 362.725 34.3799C371.081 32.7574 384.059 33.9219 383.061 38.1916V36.6389C399.034 40.1323 414.008 47.1191 432.976 43.6257C438.966 42.8494 431.978 39.7442 426.687 39.5113C423.063 38.211 420.557 36.9184 420.557 36.9184L420.587 36.9107Z" stroke="currentColor" stroke-width="2" stroke-miterlimit="50"/>
</svg>
