<svg width="132" height="73" viewBox="0 0 132 73" fill="none" xmlns="http://www.w3.org/2000/svg">
<path fill-rule="evenodd" clip-rule="evenodd" d="M14.0343 44.4527C13.908 44.5765 13.8389 44.7196 13.8389 44.9617C13.8389 45.2173 13.9118 45.3796 14.0405 45.5078L14.9174 46.3815C14.9173 46.2488 14.9194 46.1335 14.9241 46.0404C14.9272 45.9784 14.9322 45.9142 14.9409 45.8566C14.9452 45.8286 14.9523 45.7891 14.9651 45.7466C14.9652 45.7461 14.9654 45.7455 14.9656 45.7449C14.9732 45.7194 15.0052 45.6122 15.0975 45.5161L15.1015 45.5119C15.2209 45.3903 15.2967 45.2218 15.2967 44.9617C15.2967 44.6966 15.2233 44.5432 15.116 44.4362C15.0087 44.3293 14.8547 44.2562 14.5887 44.2562C14.3324 44.2562 14.1651 44.329 14.0343 44.4527ZM14.9174 46.3933H14.3479C14.3496 46.4009 14.3513 46.4085 14.3529 46.4162C14.4398 46.811 14.5498 47.3577 14.674 48.0017C14.7944 48.6259 14.9288 49.3452 15.0696 50.1123C15.0298 49.3905 14.9953 48.7139 14.9692 48.1224C14.9409 47.4779 14.9223 46.9296 14.9182 46.5326C14.9177 46.4844 14.9175 46.4379 14.9174 46.3933ZM16.1923 59.4704C15.679 59.5575 15.679 59.5575 15.679 59.5574L15.5804 58.9837C15.5175 58.6182 15.4273 58.0957 15.3184 57.468C15.1004 56.2125 14.8074 54.5363 14.5069 52.8528C14.2063 51.1688 13.8987 49.4797 13.6514 48.1975C13.5277 47.5558 13.4197 47.0198 13.3358 46.6384C13.2936 46.4468 13.2588 46.3004 13.2321 46.2011C13.2284 46.1876 13.2251 46.1755 13.2221 46.1648L12.4102 45.3559H12.8341C12.8095 45.229 12.7976 45.0973 12.7976 44.9617C12.7976 44.4581 12.9673 44.0412 13.3083 43.7089L13.3124 43.705C13.6603 43.3734 14.0965 43.2188 14.5887 43.2188C15.0723 43.2188 15.5119 43.3635 15.8523 43.7027C16.1928 44.0418 16.338 44.4798 16.338 44.9617C16.338 45.3881 16.2204 45.7815 15.9635 46.1045C15.9591 46.1994 15.9576 46.3388 15.9595 46.522C15.9634 46.9012 15.9813 47.4355 16.0095 48.0769C16.0659 49.358 16.1627 51.0463 16.2668 52.7301C16.3708 54.4132 16.482 56.0892 16.5672 57.3446C16.6098 57.9722 16.6459 58.4946 16.6714 58.8601C16.6841 59.0428 16.6942 59.1863 16.701 59.284L16.7116 59.4332C16.7116 59.4333 16.7116 59.4338 16.1923 59.4704ZM15.9704 46.0126C15.9706 46.0114 15.9706 46.0112 15.9704 46.0126V46.0126ZM16.1923 59.4704L16.7116 59.4338L17.4579 69.953L15.679 59.5574L16.1923 59.4704Z" fill="currentColor"/>
<path fill-rule="evenodd" clip-rule="evenodd" d="M39.145 10.1084L38.6792 9.87669L38.2505 9.58222L42.4493 3.51562L39.145 10.1084ZM30.013 29.7577C30.0446 29.6336 30.0955 29.4676 30.1679 29.2585C30.3616 28.6994 30.6821 27.9089 31.094 26.9564C31.9161 25.0552 33.084 22.5506 34.2779 20.052C35.4712 17.5548 36.688 15.0688 37.6067 13.2068C38.066 12.2758 38.4506 11.5011 38.7204 10.9591C38.8553 10.6882 38.9615 10.4754 39.0339 10.3304L39.1445 10.1093L39.145 10.1084C39.145 10.1083 39.145 10.1084 38.6792 9.87669C38.2505 9.58222 38.2506 9.58208 38.2505 9.58222L38.0954 9.80621C37.9941 9.95241 37.8454 10.167 37.6558 10.4403C37.2765 10.9869 36.7337 11.7685 36.0795 12.7086C34.7709 14.5888 33.0167 17.1024 31.2338 19.6363C29.4507 22.1707 27.6401 24.7238 26.2182 26.6837C25.507 27.664 24.8952 28.4931 24.4335 29.0964C24.2023 29.3985 24.0116 29.6401 23.8665 29.8144C23.7938 29.9018 23.7357 29.9684 23.6917 30.0157C23.6836 30.0243 23.6766 30.0317 23.6705 30.0381L23.6413 30.0589C22.6361 30.7775 21.9155 31.7171 21.4887 32.8623L21.3066 33.3508L24.2183 34.4134L24.4068 33.9475C24.6321 33.391 24.9792 32.9401 25.4567 32.5887L25.4586 32.5874C25.9274 32.2393 26.4132 32.0781 26.9281 32.0781C27.6586 32.0781 28.2094 32.28 28.6227 32.6469C29.0257 33.0047 29.2345 33.4602 29.2397 34.0572C29.2367 34.067 29.2285 34.0928 29.2082 34.138C29.1719 34.2188 29.114 34.3247 29.0343 34.4539C28.8755 34.7113 28.6553 35.0201 28.4177 35.3373C28.213 35.6107 28.0018 35.8817 27.8137 36.1231C27.7846 36.1605 27.7559 36.1972 27.728 36.2331C27.5302 36.4872 27.3454 36.7259 27.2577 36.865C27.0299 37.2264 26.553 37.6983 25.7623 38.2726L25.7584 38.2755C25.7114 38.3103 25.6112 38.3951 25.5622 38.5458C25.5034 38.7267 25.5515 38.895 25.6271 39.0077C25.69 39.1014 25.7672 39.1531 25.8041 39.1757C25.8472 39.202 25.8878 39.2196 25.9169 39.2308C26.0208 39.2712 26.1525 39.297 26.2702 39.3164C26.5261 39.3585 26.91 39.3993 27.3913 39.4397C28.3601 39.5209 29.7811 39.6049 31.4992 39.6911C34.6639 39.8499 38.8585 40.017 43.1423 40.1877C43.5126 40.2024 43.8836 40.2172 44.2546 40.232C48.9203 40.4181 53.5953 40.608 57.0824 40.7956C58.8272 40.8895 60.2678 40.9825 61.2593 41.0736C61.3967 41.0863 61.5245 41.0988 61.6424 41.1112C61.5699 41.3049 61.5583 41.5382 61.5617 41.7752L61.5691 42.2879L70.7561 42.2645L70.7458 41.737C70.7392 41.4013 70.7515 41.1184 70.7779 40.8838C70.853 40.8918 70.9242 40.8998 70.9916 40.9077C71.0923 40.9849 71.2051 41.0597 71.3249 41.1158C71.578 41.2343 71.9506 41.304 72.3003 41.0523L72.3061 41.0481L72.3119 41.0438C72.3589 41.0079 72.4417 40.9342 72.4926 40.8112C72.5521 40.6672 72.5449 40.511 72.4837 40.3785C72.4317 40.2657 72.354 40.1977 72.3103 40.1645C72.2626 40.1281 72.2162 40.1039 72.1828 40.0883C72.0646 40.0332 71.9124 39.9988 71.7793 39.9735C71.6801 39.9547 71.5637 39.9361 71.4315 39.9177C71.4108 39.8987 71.3881 39.8773 71.3639 39.8546C71.2579 39.7551 71.1233 39.6287 71.0115 39.5499C70.9466 39.5041 70.7965 39.4032 70.6012 39.3914C70.4851 39.3844 70.3527 39.409 70.2307 39.4887C70.1144 39.5646 70.0457 39.6657 70.0057 39.7488C70.0025 39.7553 69.9994 39.7618 69.9964 39.7684C68.9149 39.6773 67.4632 39.5846 65.7559 39.4907C61.783 39.2722 56.3966 39.0459 50.9974 38.82L50.7064 38.8078C45.4017 38.5859 40.1086 38.3644 36.1447 38.1509C34.1255 38.0421 32.4577 37.9358 31.311 37.8329C30.9256 37.7984 30.6048 37.7647 30.3521 37.7322C30.4002 37.6619 30.4513 37.5876 30.5053 37.5094C30.5382 37.4617 30.572 37.4129 30.6064 37.363C30.8188 37.0557 31.0573 36.7106 31.2852 36.3646C31.5493 35.9637 31.8078 35.5487 32.0019 35.1753C32.099 34.9885 32.1848 34.803 32.2472 34.6285C32.3073 34.4609 32.3585 34.2693 32.3585 34.0803C32.3585 33.0981 32.1367 32.2006 31.672 31.4152C31.2635 30.7249 30.7107 30.1696 30.013 29.7577ZM29.785 37.6327C29.7769 37.6298 29.7782 37.6297 29.7862 37.6331C29.7858 37.633 29.7854 37.6329 29.785 37.6327ZM69.7408 40.7883C68.6952 40.703 67.3172 40.6156 65.6985 40.5266C64.8991 40.4826 64.0421 40.4383 63.1391 40.3938C63.1423 40.3963 63.1454 40.3989 63.1485 40.4016C63.1942 40.4406 63.2699 40.517 63.3132 40.6386C63.363 40.7782 63.3517 40.926 63.292 41.0513C63.2589 41.1209 63.2221 41.1862 63.1811 41.2463L69.709 41.2297C69.715 41.0766 69.7254 40.9293 69.7408 40.7883ZM29.2686 38.5305C29.2455 38.5158 29.222 38.4988 29.1992 38.4794C29.1514 38.4388 29.0681 38.355 29.0262 38.2195C28.9778 38.063 29.0063 37.909 29.0745 37.7906C29.1994 37.5735 29.4139 37.2598 29.6472 36.9217C29.6808 36.873 29.715 36.8236 29.7496 36.7734C29.9624 36.4655 30.1936 36.131 30.4146 35.7954C30.6725 35.404 30.9079 35.024 31.0773 34.6982C31.1619 34.5353 31.2253 34.395 31.2665 34.28C31.3101 34.158 31.3172 34.0963 31.3172 34.0803C31.3172 33.2574 31.1328 32.5469 30.775 31.9421C30.4143 31.3326 29.9154 30.8617 29.2582 30.5274C28.9642 30.3779 28.9404 30.0742 28.9361 30.0066C28.929 29.8932 28.9452 29.7766 28.964 29.6789C29.003 29.4755 29.0814 29.2149 29.1836 28.92C29.3904 28.3232 29.7235 27.5039 30.1377 26.5459C30.9678 24.6262 32.1426 22.1073 33.3377 19.6061C33.946 18.3331 34.5603 17.0633 35.1381 15.8775C34.1887 17.2369 33.1427 18.7307 32.0865 20.2318C30.3026 22.7673 28.4885 25.3253 27.0622 27.2914C26.3493 28.274 25.7313 29.1116 25.2615 29.7254C25.0269 30.0319 24.8264 30.2864 24.6681 30.4767C24.5891 30.5716 24.5173 30.6544 24.455 30.7213C24.4003 30.78 24.3285 30.8535 24.2535 30.907L24.0229 31.0719C23.4412 31.535 22.9918 32.0917 22.6711 32.7439L23.6565 33.1035C23.9455 32.5739 24.3389 32.1217 24.8374 31.7547M27.2789 38.3886C27.3427 38.3943 27.4093 38.4001 27.4786 38.4059C27.9631 38.4465 28.5662 38.4881 29.2686 38.5305M68.0757 43.5835C68.3985 43.333 68.7855 43.2151 69.2152 43.2151C69.6989 43.2151 70.1384 43.3598 70.4789 43.699C70.5184 43.743 70.59 43.8623 70.616 43.9387C70.6311 44.0325 70.6115 44.2128 70.5799 44.2945C70.5029 44.4529 70.3716 44.5195 70.3474 44.5317L70.3458 44.5326C70.2742 44.5692 70.207 44.5819 70.1959 44.5842C70.1494 44.5938 70.0984 44.5994 70.0592 44.6032C69.9723 44.6116 69.8489 44.6192 69.698 44.6266C69.3928 44.6414 68.9428 44.6563 68.3715 44.6714C67.2276 44.7016 65.583 44.7329 63.6056 44.7654C60.6374 44.8141 56.9149 44.8655 53.002 44.9194C51.7008 44.9374 50.3785 44.9556 49.0558 44.9741C43.7551 45.0484 38.4494 45.1273 34.4691 45.211C32.4784 45.2528 30.8222 45.2958 29.6647 45.3399C29.085 45.362 28.6358 45.3841 28.3339 45.4062C28.3192 45.4073 28.3049 45.4083 28.2911 45.4094C28.2224 45.7172 28.0784 45.9971 27.849 46.2316C27.5124 46.581 27.0756 46.7476 26.5897 46.7476C26.19 46.7476 25.7984 46.6347 25.4777 46.3897H25.4525L25.3 46.2377C24.9497 45.8887 24.7935 45.4493 24.7935 44.958C24.7935 44.7915 24.8702 44.6726 24.927 44.6089C24.9811 44.5483 25.0371 44.5137 25.0663 44.4973C25.1254 44.4642 25.1799 44.448 25.2034 44.4414C25.2584 44.4259 25.317 44.4163 25.3632 44.4097C25.4626 44.3956 25.5972 44.3832 25.7566 44.3717C26.0791 44.3484 26.5457 44.3258 27.1317 44.3039C28.3056 44.2598 29.98 44.2173 31.9861 44.1761C35.9993 44.0937 41.3516 44.0165 46.7096 43.9439C48.0601 43.9256 49.4109 43.9076 50.7409 43.8899C54.6882 43.8372 58.4511 43.787 61.4731 43.739C63.4934 43.707 65.1807 43.6759 66.3698 43.6457C66.9649 43.6306 67.4322 43.6158 67.7531 43.6014C67.8915 43.5951 67.9987 43.5891 68.0757 43.5835ZM27.222 45.3387C27.1904 45.4044 27.1499 45.46 27.1025 45.5083L27.0986 45.5124C26.9773 45.6387 26.8213 45.7101 26.5897 45.7101C26.3477 45.7101 26.167 45.6319 26.0455 45.5082L25.9812 45.4427C25.9699 45.4284 25.9591 45.4137 25.949 45.3984C26.2473 45.3791 26.6584 45.3598 27.1709 45.3406C27.1878 45.3399 27.2049 45.3393 27.222 45.3387Z" fill="currentColor"/>
<path fill-rule="evenodd" clip-rule="evenodd" d="M38.9288 30.014C37.9782 30.014 37.0886 30.3073 36.249 30.9075L35.9937 31.09L35.9921 31.0892C35.4206 31.549 34.9782 32.1001 34.6614 32.7443L35.6468 33.104C35.9357 32.5744 36.3291 32.1222 36.8276 31.7553C37.4623 31.2842 38.1633 31.0411 38.9184 31.0411C39.854 31.0411 40.6672 31.306 41.3057 31.8728C41.9492 32.4441 42.2713 33.1953 42.2713 34.0808C42.2713 34.2637 42.204 34.4394 42.1488 34.5623C42.0867 34.7007 42.0032 34.8493 41.9116 34.9978C41.7278 35.2955 41.4852 35.6341 41.2425 35.9582C41.0313 36.2402 40.8135 36.5198 40.6258 36.7606C40.5968 36.7978 40.5685 36.8341 40.5411 36.8693C40.3259 37.1458 40.1828 37.3331 40.1298 37.4171C39.9363 37.7241 39.652 38.0428 39.2873 38.3726C39.4212 38.3836 39.5666 38.3946 39.7233 38.4058C40.1487 38.4363 40.6505 38.4672 41.2193 38.4986C41.215 38.4953 41.2107 38.4919 41.2063 38.4885C41.1556 38.4479 41.0662 38.3625 41.022 38.2211C40.9714 38.0591 41.0046 37.9044 41.0699 37.791C41.1948 37.574 41.4093 37.2602 41.6427 36.9221C41.6762 36.8735 41.7104 36.824 41.7451 36.7738C41.9578 36.466 42.189 36.1314 42.4101 35.7959C42.6679 35.4044 42.9033 35.0245 43.0727 34.6986C43.1574 34.5358 43.2207 34.3955 43.2619 34.2804C43.3056 34.1585 43.3126 34.0967 43.3126 34.0808C43.3126 33.2579 43.1283 32.5473 42.7704 31.9426C42.4097 31.3331 41.9108 30.8621 41.2536 30.5279C40.592 30.1914 39.8211 30.014 38.9288 30.014ZM51.6353 38.9298C53.6732 39.0023 55.8215 39.0759 57.991 39.1502C58.4331 39.1654 58.876 39.1805 59.319 39.1957C64.7417 39.3818 70.1827 39.5719 74.2471 39.7599C76.2783 39.8539 77.9715 39.9476 79.1483 40.0405C79.7346 40.0867 80.204 40.1336 80.5261 40.1818C80.6822 40.2051 80.8281 40.2322 80.9404 40.2666C80.9881 40.2813 81.0795 40.3114 81.1651 40.3711C81.2073 40.4006 81.2929 40.4676 81.3506 40.5857C81.4213 40.7303 81.4247 40.9013 81.353 41.0518C81.3214 41.1182 81.2864 41.1807 81.2477 41.2385L81.7043 41.234C81.7272 40.641 81.8166 40.1326 82.0011 39.7492C82.106 39.5312 82.2528 39.3213 82.4354 39.118C82.31 39.1102 82.1736 39.1026 82.0261 39.0953C80.9449 39.0417 79.3383 39.0061 77.3738 38.9828C73.4472 38.9362 68.1191 38.939 62.7682 38.9419L62.7151 38.9419C58.8577 38.944 54.9909 38.9461 51.6353 38.9298ZM79.697 41.1293C79.5102 41.1113 79.2996 41.0931 79.0662 41.0747C77.9072 40.9833 76.2282 40.8902 74.1988 40.7963C70.1419 40.6086 64.7075 40.4187 59.2832 40.2326C58.8397 40.2173 58.3962 40.2022 57.9536 40.187C52.9849 40.0168 48.1208 39.8501 44.4417 39.6918C42.4391 39.6056 40.7821 39.5217 39.6487 39.4406C39.0846 39.4003 38.6385 39.3599 38.3419 39.3188C38.2014 39.2994 38.0624 39.2757 37.9571 39.2427C37.9283 39.2337 37.8912 39.2207 37.8519 39.202C37.8194 39.1865 37.7495 39.1507 37.683 39.0833C37.6122 39.0114 37.4975 38.849 37.5352 38.6216C37.5682 38.4219 37.699 38.3128 37.7487 38.276L37.7526 38.2731C38.5432 37.6988 39.0202 37.2269 39.248 36.8654C39.3356 36.7264 39.5205 36.4877 39.7182 36.2336C39.7462 36.1977 39.7748 36.161 39.804 36.1235C39.992 35.8822 40.2032 35.6111 40.408 35.3378C40.6455 35.0206 40.8657 34.7117 41.0246 34.4543C41.1043 34.3252 41.1621 34.2193 41.1984 34.1385C41.2187 34.0932 41.2269 34.0674 41.2299 34.0577C41.2247 33.4607 41.0159 33.0051 40.6129 32.6474C40.1997 32.2805 39.6488 32.0785 38.9184 32.0785C38.4034 32.0785 37.9176 32.2398 37.4489 32.5878L37.447 32.5892C36.9694 32.9405 36.6223 33.3915 36.3971 33.948L36.2085 34.4139L33.2969 33.3512L33.4789 32.8628C33.9057 31.7175 34.6263 30.778 35.6315 30.0594L35.8868 29.8769L35.905 29.8859C36.8365 29.2858 37.8473 28.9766 38.9288 28.9766C39.9628 28.9766 40.8997 29.1831 41.7271 29.6039C42.559 30.027 43.2055 30.635 43.6674 31.4157C44.1322 32.2011 44.3539 33.0986 44.3539 34.0808C44.3539 34.2698 44.3027 34.4614 44.2427 34.629C44.1802 34.8035 44.0945 34.9889 43.9974 35.1757C43.8033 35.5492 43.5447 35.9642 43.2806 36.3651C43.0527 36.7111 42.8142 37.0562 42.6018 37.3636C42.5674 37.4134 42.5336 37.4622 42.5007 37.5099C42.4554 37.5756 42.412 37.6386 42.3708 37.6988C42.6121 37.7184 42.9117 37.7366 43.2667 37.7532C44.4024 37.8064 46.0544 37.8416 48.0546 37.8645C52.0409 37.9103 57.3848 37.9074 62.7198 37.9045L62.7677 37.9044C68.1161 37.9015 73.4516 37.8988 77.3861 37.9454C79.3522 37.9687 80.9756 38.0044 82.0779 38.0591C82.6253 38.0862 83.0607 38.1188 83.3487 38.1594C83.4794 38.1779 83.6309 38.2043 83.7495 38.2526C83.783 38.2662 83.8312 38.2883 83.8814 38.3231C83.9268 38.3545 84.0128 38.4228 84.07 38.5421C84.1386 38.6849 84.1402 38.848 84.0778 38.9905C84.0258 39.1095 83.9445 39.1801 83.9012 39.2131L83.8955 39.2175L83.8896 39.2217C83.3575 39.6046 83.0679 39.9322 82.9401 40.1978C82.8124 40.4631 82.726 40.9583 82.7412 41.7374L82.7515 42.261L79.6301 42.2922L79.6227 41.7757C79.6194 41.5458 79.6302 41.3194 79.697 41.1293ZM41.7586 37.6211C41.7506 37.6187 41.7522 37.6186 41.7606 37.6217C41.7599 37.6215 41.7593 37.6213 41.7586 37.6211ZM80.0711 43.584C80.394 43.3334 80.781 43.2155 81.2106 43.2155C81.6943 43.2155 82.1339 43.3603 82.4743 43.6994C82.5138 43.7435 82.5854 43.8627 82.6114 43.9392C82.6265 44.033 82.607 44.2133 82.5754 44.295C82.4984 44.4534 82.367 44.5199 82.3428 44.5322L82.3412 44.533C82.2724 44.5682 82.2077 44.5813 82.1929 44.5844L82.1913 44.5847C82.1449 44.5943 82.0939 44.5999 82.0546 44.6037C81.9677 44.612 81.8443 44.6197 81.6934 44.627C81.3882 44.6418 80.9382 44.6567 80.367 44.6718C79.223 44.7021 77.5784 44.7334 75.601 44.7659C72.6326 44.8146 68.9097 44.8659 64.9964 44.9199C63.6955 44.9379 62.3735 44.9561 61.0513 44.9746C55.7506 45.0488 50.4448 45.1278 46.4645 45.2114C44.4739 45.2533 42.8176 45.2963 41.6602 45.3404C41.4731 45.3475 41.2996 45.3546 41.1402 45.3618C41.6349 45.7244 42.2927 46.193 43.0661 46.7361C44.8345 47.978 47.1939 49.6 49.5553 51.2117C51.9162 52.823 54.2773 54.4228 56.0483 55.6198C56.9337 56.2183 57.6716 56.7161 58.1881 57.0642C58.4463 57.2383 58.6492 57.3749 58.7875 57.4681L58.9993 57.6106C58.9995 57.6107 58.9995 57.6107 58.7082 58.0407C58.4404 58.4855 58.4404 58.4855 58.4402 58.4854L57.5905 57.9782C57.0494 57.6552 56.2759 57.1939 55.3465 56.6404C53.4878 55.5332 51.0058 54.057 48.5128 52.5809C46.0195 51.1047 43.5161 49.6291 41.614 48.5228C40.6627 47.9695 39.8637 47.5097 39.2923 47.1887C39.006 47.0279 38.7802 46.9038 38.6222 46.8207C38.5592 46.7876 38.5104 46.7628 38.4746 46.7454C38.0363 46.7233 37.6147 46.5622 37.2934 46.2362C36.9445 45.8875 36.7889 45.4489 36.7889 44.9584C36.7889 44.792 36.8656 44.673 36.9224 44.6094C36.9765 44.5488 37.0325 44.5142 37.0617 44.4978C37.1208 44.4646 37.1753 44.4485 37.1988 44.4419C37.2539 44.4264 37.3124 44.4167 37.3587 44.4102C37.458 44.3961 37.5927 44.3836 37.752 44.3721C38.0745 44.3488 38.5412 44.3263 39.1271 44.3043C40.3011 44.2603 41.9754 44.2178 43.9815 44.1766C47.9947 44.0942 53.3471 44.017 58.705 43.9444C60.0553 43.9261 61.406 43.9081 62.7357 43.8903C66.6832 43.8377 70.4464 43.7875 73.4686 43.7395C75.4889 43.7074 77.1762 43.6763 78.3653 43.6462C78.9603 43.6311 79.4276 43.6163 79.7486 43.6018C79.8869 43.5956 79.9942 43.5896 80.0711 43.584ZM58.7082 58.0407L58.4402 58.4854L75.084 68.4295L58.9993 57.6106L58.7082 58.0407ZM44.5656 49.0462C43.8086 48.5223 43.0997 48.029 42.4661 47.5841C41.5796 46.9615 40.837 46.4313 40.3148 46.0439C40.0546 45.8509 39.8435 45.6891 39.695 45.5673C39.6221 45.5074 39.5552 45.4498 39.5032 45.3988C39.4849 45.3809 39.4622 45.3578 39.4393 45.3311C39.3455 45.3344 39.2545 45.3377 39.1663 45.341C38.6538 45.3603 38.2427 45.3796 37.9445 45.3989C37.9697 45.437 37.9989 45.4719 38.0317 45.5046L38.0358 45.5086C38.1572 45.6323 38.3379 45.7106 38.5799 45.7106C38.6553 45.7106 38.7144 45.727 38.7315 45.7317C38.7578 45.739 38.7805 45.7472 38.7964 45.7532C38.8285 45.7654 38.861 45.7799 38.8899 45.7934C38.9491 45.821 39.0235 45.8587 39.1082 45.9032C39.2792 45.9931 39.515 46.1228 39.8037 46.285C40.3821 46.6099 41.1865 47.0729 42.139 47.6269C42.8709 48.0525 43.6913 48.5326 44.5656 49.0462Z" fill="currentColor"/>
<path fill-rule="evenodd" clip-rule="evenodd" d="M42.5771 29.2617H49.9738L127.817 42.2713H100.964L42.5771 29.2617ZM58.3579 31.7149L101.079 41.2339H115.315L58.3579 31.7149ZM90.1408 43.5838C90.4636 43.3333 90.8507 43.2154 91.2803 43.2154C91.764 43.2154 92.2035 43.3601 92.544 43.6993C92.5835 43.7433 92.6551 43.8626 92.6811 43.939C92.6962 44.0328 92.6766 44.2131 92.6451 44.2949C92.5681 44.4532 92.4367 44.5198 92.4125 44.5321L92.4109 44.5329C92.3421 44.568 92.2774 44.5812 92.2626 44.5842L92.261 44.5845C92.2145 44.5941 92.1636 44.5998 92.1243 44.6035C92.0374 44.6119 91.914 44.6196 91.7631 44.6269C91.4579 44.6417 91.0079 44.6566 90.4367 44.6717C89.2927 44.7019 87.6481 44.7333 85.6707 44.7657C82.7023 44.8145 78.9793 44.8658 75.0661 44.9198C73.7652 44.9377 72.4432 44.9559 71.121 44.9745C65.8202 45.0487 60.5145 45.1276 56.5342 45.2113C54.5435 45.2532 52.8873 45.2961 51.7299 45.3402C51.1501 45.3623 50.7009 45.3845 50.399 45.4065C50.3843 45.4076 50.3701 45.4087 50.3562 45.4097C50.2876 45.7175 50.1436 45.9973 49.9142 46.2318C49.5776 46.5813 49.1407 46.7479 48.6548 46.7479C48.1784 46.7479 47.7134 46.5875 47.3663 46.234C47.0322 45.8937 46.8586 45.4607 46.8586 44.9583C46.8586 44.7919 46.9353 44.6729 46.9921 44.6093C47.0462 44.5486 47.1022 44.5141 47.1314 44.4976C47.1905 44.4645 47.245 44.4483 47.2685 44.4417C47.3235 44.4262 47.3821 44.4166 47.4284 44.41C47.5277 44.3959 47.6624 44.3835 47.8217 44.372C48.1442 44.3487 48.6109 44.3262 49.1968 44.3042C50.3707 44.2602 52.0451 44.2176 54.0512 44.1764C58.0644 44.094 63.4168 44.0169 68.7747 43.9442C70.125 43.9259 71.4756 43.9079 72.8054 43.8902C76.7529 43.8376 80.516 43.7874 83.5383 43.7394C85.5586 43.7073 87.2458 43.6762 88.435 43.646C89.03 43.6309 89.4973 43.6161 89.8183 43.6017C89.9566 43.5955 90.0638 43.5895 90.1408 43.5838ZM49.2871 45.339C49.2555 45.4048 49.215 45.4604 49.1677 45.5086L49.1637 45.5127C49.0424 45.639 48.8864 45.7105 48.6548 45.7105C48.4128 45.7105 48.2321 45.6322 48.1107 45.5085C48.0768 45.474 48.0466 45.4375 48.0204 45.3983C48.3182 45.3792 48.7271 45.36 49.236 45.3409C49.2529 45.3403 49.27 45.3396 49.2871 45.339Z" fill="currentColor"/>
</svg>
