<svg width="120" height="118" viewBox="0 0 120 118" fill="none" xmlns="http://www.w3.org/2000/svg">
<path d="M47.8229 113.455L46.4591 112.656C45.4986 112.09 45.38 111.515 45.4551 111.138C45.5499 110.65 45.9927 110.3 46.4473 110.154C46.5145 110.115 46.6054 110.087 46.7398 110.099L49.3804 110.292L47.3446 110.618C47.5422 110.717 47.7913 110.823 48.0838 110.917C48.3368 110.905 48.819 110.831 49.3092 110.461C49.4199 110.355 49.5306 110.244 49.6452 110.13L53.7405 106.117L50.2382 110.414C50.0682 110.622 49.8942 110.791 49.7164 110.929C49.2578 111.378 48.8309 111.775 48.4909 112.027L48.4317 112.062C47.9494 112.275 47.479 112.346 47.1351 112.397C47.0995 112.401 47.0639 112.408 47.0284 112.412L47.8268 113.455H47.8229ZM46.4828 110.803C46.2773 110.902 46.0994 111.067 46.0638 111.252C46.0243 111.452 46.1745 111.688 46.4749 111.925C46.6133 111.85 46.807 111.822 47.0363 111.787C47.3209 111.744 47.7004 111.685 48.0759 111.539C48.064 111.539 48.0522 111.539 48.0403 111.539H47.9889L47.9415 111.523C47.8071 111.48 46.8979 111.181 46.4828 110.803Z" fill="currentColor"/>
<path d="M51.9303 113.578L42.8069 107.739C40.3047 106.138 40.0398 105.973 40.2098 105.583C40.3126 105.351 40.4905 105.296 41.1269 105.414C41.1348 105.398 41.1427 105.383 41.1506 105.371C41.1901 105.304 41.2415 105.237 41.3245 105.186C40.8937 104.938 40.783 104.761 40.8265 104.525C40.8462 104.419 40.8937 104.332 40.9846 104.265C40.1663 102.432 40.6367 100.968 42.2179 98.7883C42.2733 98.6388 42.3681 98.4736 42.4986 98.2886C41.787 98.3398 41.2692 98.1942 40.9016 97.8558C40.1742 97.183 40.1347 95.806 40.4075 93.6931C39.9845 94.0315 39.609 94.1495 39.2453 94.059C38.763 93.9371 38.3994 93.461 38.1147 92.5482C38.0792 92.5246 38.0436 92.501 38.008 92.4774C37.4546 93.3941 36.9526 93.7994 36.4585 93.7875C36.3478 93.7875 36.245 93.76 36.1501 93.7207C36.1304 93.7207 36.1066 93.7285 36.0869 93.7285C35.7469 93.7482 35.573 93.4413 35.1737 92.5049C35.1461 92.4459 35.1224 92.3829 35.0986 92.3278L35.6718 92.0918C35.6876 92.1311 35.7113 92.1823 35.7351 92.2373C35.8497 92.501 35.9564 92.6898 36.0513 92.8275C36.079 92.741 36.1066 92.6465 36.1343 92.56C36.2687 92.1311 36.4505 91.5409 36.747 90.8563L36.9684 90.3527L37.2846 90.8013C37.4783 91.0767 37.6641 91.3088 37.842 91.5016C37.8618 91.4623 37.8815 91.4268 37.9013 91.3875L38.3005 90.5809L38.4824 91.4623C38.5338 91.718 38.5891 91.9423 38.6444 92.139C38.7709 92.198 38.8935 92.2334 39.02 92.2531C39.4627 92.316 39.9647 92.1233 40.5577 91.659L41.0557 91.2695V91.899C41.0597 91.9619 41.0636 92.0249 41.0636 92.0878L41.3245 91.777L41.1625 92.8669C41.1506 92.9574 41.1348 93.0479 41.1229 93.1344C41.198 93.8662 41.3641 94.5351 41.7396 94.7554C41.7989 94.7909 41.8661 94.8145 41.9412 94.8302C42.1191 94.4367 42.4353 93.8898 42.9334 93.1029C42.7397 92.6505 42.5895 92.1311 42.4551 91.5724C41.6764 90.6635 41.0044 89.4714 40.3442 88.3068L40.0438 87.7756C39.6129 87.0123 39.1741 86.2372 38.767 85.4542C38.5417 85.1119 38.3203 84.7736 38.0989 84.4391C37.6325 83.7309 37.166 83.0227 36.7154 82.3145L36.5336 82.0273L36.8379 81.8738C37.0316 81.7755 37.1937 81.6811 37.3518 81.5866C37.7036 81.3781 38.0317 81.1814 38.5851 81.0397C39.4469 80.7486 39.6129 80.0718 39.692 79.7492C39.7275 79.5958 39.771 79.4226 39.9647 79.3676L40.1347 79.3164L40.281 79.4423C40.5379 79.6941 40.4272 80.001 40.3047 80.2213C40.4193 80.2135 40.5616 80.1977 40.7356 80.1663L41.0439 80.1072L41.4866 82.6568L41.3443 82.7709C40.6802 83.2981 39.7038 83.0188 38.9172 82.7985C38.684 82.7316 38.3519 82.6371 38.1898 82.6332C38.1898 82.6489 38.1978 82.6686 38.2017 82.6883C38.4903 83.5027 38.8658 84.3093 39.2888 85.1238C39.5655 85.5487 39.8422 85.9736 40.111 86.4025C40.3086 86.7133 40.5023 87.0281 40.6921 87.3349C41.4155 88.5035 42.0993 89.6052 42.799 90.4235L42.8504 90.4865L42.8662 90.5652C42.9136 90.8091 42.965 91.0491 43.0164 91.2773C43.2299 91.5173 43.4512 91.7298 43.6805 91.9108L43.7596 91.7849L43.7319 91.9501C43.7951 91.9973 43.8584 92.0406 43.9216 92.0839L44.0679 92.1783L44.06 92.3515C44.0402 92.8393 44.0284 93.2918 44.0323 93.7049C44.1153 93.7915 44.2023 93.8662 44.3011 93.9331L44.6213 93.7639C44.479 93.2918 44.4158 92.7567 44.3841 92.2019C44.2735 91.958 44.1746 91.7062 44.0798 91.4465C43.6568 90.7344 43.2931 89.7822 42.9729 88.5625C42.6369 87.2838 42.4867 86.2254 42.4986 85.2182C42.4235 84.7342 42.3721 84.2424 42.3365 83.7388C42.044 82.1965 41.9214 81.6102 41.878 81.4214C41.7238 81.2797 41.625 81.0909 41.5854 80.8587C41.538 80.5873 41.5854 80.3472 41.7317 80.1466L41.8503 79.9813L42.0519 80.0246C42.2126 80.0587 42.5104 81.2351 42.9453 83.5539V83.5932C42.9492 83.6168 42.9532 83.6365 42.9532 83.6601C43.0085 83.9473 43.0678 84.27 43.135 84.628L43.1429 84.6673V84.7067C43.1271 84.8641 43.1231 85.0215 43.1192 85.1828C43.301 86.3789 43.6014 87.5474 43.9533 88.8615C44.1549 89.6209 44.3723 90.4314 44.645 91.1868C44.7359 91.3363 44.8269 91.4701 44.9217 91.596L44.981 91.6747V91.7731C44.985 91.8714 44.9889 91.9659 44.9929 92.0564C45.1866 92.4813 45.4119 92.8708 45.6688 93.2013L45.8309 93.1147L45.6926 93.2328C45.7123 93.2564 45.7281 93.28 45.7479 93.2997L45.8586 93.4334L45.7993 93.5987C45.7005 93.878 45.6254 94.1141 45.57 94.3148C45.7558 94.539 45.9851 94.6807 46.2736 94.7633L46.6136 94.8577L46.4752 95.1804C46.4436 95.2512 46.416 95.322 46.3883 95.3889C46.4001 95.3889 46.412 95.385 46.4199 95.381L47.0208 95.2551L46.7638 95.8138C46.4081 96.5889 46.2025 97.2106 46.1472 97.7024L46.499 97.8204L46.2736 98.0329C46.5543 98.2886 47.0208 98.4499 47.6849 98.5326L48.1553 98.5877L47.9141 98.9929C47.843 99.1109 47.7758 99.229 47.7125 99.3391C47.7837 99.351 47.8548 99.3588 47.926 99.3706L48.677 99.4651L48.0762 99.9215C47.7244 100.189 47.4714 100.401 47.2935 100.571L47.9102 100.799L47.1038 100.756C47.0801 100.783 47.0563 100.807 47.0326 100.83C47.0168 100.878 47.0049 100.921 46.9931 100.964L47.9102 100.952L47.42 101.161C47.5939 101.157 47.8153 101.141 48.096 101.11C48.1355 101.106 48.179 101.098 48.2225 101.094L48.2422 101.259C48.3292 101.255 48.4201 101.251 48.515 101.243L53.9108 100.952L50.6654 101.503L57.1641 101.102L50.8828 101.83L51.7248 101.857L48.8431 102.349L52.8553 102.597L48.677 102.951C48.5901 102.959 48.5031 102.967 48.4241 102.975V103.183L52.1991 103.683L46.4357 103.545C44.8862 103.51 44.1074 103.392 43.7872 103.12C43.1785 102.967 43.0757 102.821 43.0757 102.597C43.0757 102.471 43.1113 102.373 43.2378 102.29C42.9097 102.176 42.712 102.003 42.629 101.771C42.5816 101.641 42.5737 101.503 42.6093 101.354C42.2535 101.716 42.0361 102.058 42.0519 102.353C42.0756 102.805 42.6686 103.313 43.9098 103.943L44.9613 104.478L43.7833 104.529C43.2852 104.548 42.4195 104.588 41.8582 104.651C41.8938 104.714 41.9333 104.777 41.9728 104.84C42.38 105.036 42.9532 105.28 43.558 105.532C43.7319 105.603 43.9216 105.678 44.1232 105.768L43.8782 106.335C43.6845 106.256 43.5026 106.177 43.3287 106.107C43.0915 106.016 42.8899 105.941 42.712 105.886L43.2378 106.571L42.3721 106.354C42.3009 106.335 42.214 106.315 42.123 106.291C42.4156 106.594 42.882 107.008 43.6094 107.539L51.9106 113.582L51.9303 113.578ZM42.3918 99.6264C41.1585 101.452 40.9134 102.644 41.5696 104.068C41.8424 104.021 42.214 103.99 42.7002 103.958C41.8542 103.419 41.4787 102.935 41.4471 102.384C41.4036 101.625 42.0835 100.874 43.2654 100C43.218 99.9529 43.1745 99.9057 43.139 99.8546C42.795 99.8349 42.55 99.7601 42.3879 99.6303L42.3918 99.6264ZM44.396 102.613C44.8783 102.703 45.5819 102.805 46.499 102.927L46.7796 102.963C46.7717 102.931 46.7678 102.9 46.7678 102.861C46.7678 102.833 46.7678 102.809 46.7678 102.786C46.6492 102.683 46.5504 102.565 46.4752 102.432C46.4594 102.404 46.4436 102.373 46.4318 102.345L45.7321 102.428C45.1431 102.495 44.7162 102.554 44.4079 102.605C44.4079 102.605 44.3999 102.609 44.3999 102.613H44.396ZM43.5382 100.984C43.2022 101.365 43.2141 101.519 43.2299 101.562C43.2417 101.594 43.3603 101.814 44.4553 101.845C44.6095 101.759 44.7873 101.664 44.9968 101.558C44.2379 101.495 43.7398 101.334 43.5382 100.984ZM46.2816 101.649C46.159 101.7 46.0483 101.751 45.9416 101.798L46.2855 101.779C46.2855 101.735 46.2816 101.692 46.2816 101.649ZM44.0956 100.433C44.056 100.531 44.0442 100.606 44.0679 100.661C44.1193 100.783 44.4671 100.992 46.242 100.972C46.2657 100.889 46.3013 100.807 46.3567 100.712L45.8942 100.689C45.1352 100.649 44.5462 100.567 44.0995 100.433H44.0956ZM45.0957 99.6303C45.3408 99.7995 45.6491 99.9529 46.0167 100.091L46.5701 100.295C46.6373 100.118 46.7164 99.9293 46.8113 99.7365C46.3883 99.5792 46.076 99.3588 45.8625 99.0755L45.5621 99.288C45.3961 99.406 45.2419 99.5201 45.0957 99.6264V99.6303ZM42.7713 99.0873C42.7713 99.1109 42.7713 99.1267 42.7753 99.1385C42.7753 99.1385 42.8069 99.1778 42.9374 99.2054C42.9374 99.1739 42.9374 99.1385 42.9374 99.1031C42.9018 99.0677 42.8662 99.0283 42.8385 98.985C42.8148 99.0165 42.7911 99.0519 42.7674 99.0834L42.7713 99.0873ZM46.5266 98.8788C46.6729 99.0008 46.8626 99.1031 47.0959 99.1857C47.1156 99.1464 47.1393 99.107 47.1631 99.0637C46.9259 99.0165 46.7164 98.9536 46.5266 98.8788ZM44.2774 97.7024C44.2339 98.1273 44.2734 98.5011 44.4079 98.8198C44.4632 98.8198 44.5264 98.8159 44.5897 98.8119C44.8111 98.5837 45.064 98.328 45.3605 98.0486C45.0127 97.8794 44.7241 97.6709 44.483 97.427C44.4118 97.5214 44.3446 97.6119 44.2814 97.7063L44.2774 97.7024ZM43.6528 98.7765C43.6805 98.7804 43.7121 98.7883 43.7438 98.7922C43.7319 98.745 43.7161 98.6978 43.7082 98.6467C43.6884 98.69 43.6726 98.7332 43.6528 98.7726V98.7765ZM45.6333 98.6427C45.6135 98.6624 45.5898 98.6821 45.57 98.7057L45.653 98.6939C45.653 98.6939 45.6412 98.6624 45.6333 98.6427ZM40.9213 94.7712C40.8146 96.0774 40.8976 97.002 41.3324 97.4034C41.6566 97.7024 42.2219 97.7614 43.1034 97.5844C43.301 97.3758 43.5263 97.1516 43.7912 96.8997C43.7991 96.8683 43.807 96.8368 43.8149 96.8053C43.5066 96.8014 43.2654 96.7188 43.0757 96.5574C42.8543 96.3725 42.7278 96.101 42.6765 95.7351C42.3009 95.9594 42.0756 95.9673 41.8938 95.8138C41.787 95.7233 41.7277 95.6053 41.7475 95.4125C41.6289 95.381 41.5222 95.3377 41.4194 95.2748C41.2218 95.1568 41.0597 94.9915 40.9253 94.7672L40.9213 94.7712ZM44.8624 96.9391C44.9968 97.0847 45.151 97.2145 45.3249 97.3286C45.3012 97.0099 45.3447 96.644 45.4554 96.223L45.2775 96.4355C45.1391 96.6007 44.9968 96.7699 44.8624 96.9391ZM43.2615 95.3181C43.2654 95.684 43.3247 95.9633 43.471 96.0892C43.5342 96.1443 43.6252 96.1758 43.7398 96.1876C43.6252 95.8571 43.5501 95.503 43.4987 95.1253C43.4157 95.1961 43.3366 95.2591 43.2615 95.322V95.3181ZM44.9059 95.4951C44.8348 95.6761 44.7676 95.8532 44.7043 96.0224C44.7794 95.9987 44.8545 95.9751 44.9336 95.9476L45.1747 95.861C45.1352 95.8296 45.0957 95.7941 45.0601 95.7548C44.9929 95.6761 44.9415 95.5896 44.9059 95.4951ZM44.0679 94.6374C44.0956 94.9836 44.1391 95.2984 44.2063 95.5817C44.309 95.3102 44.4237 95.0269 44.5502 94.7318C44.4079 94.6886 44.2735 94.6335 44.147 94.5666L44.0679 94.6335V94.6374ZM45.4514 95.0427C45.4514 95.2079 45.4831 95.2984 45.5265 95.3495C45.5542 95.381 45.6056 95.4164 45.7044 95.4361C45.7281 95.3732 45.7558 95.3063 45.7835 95.2394C45.6609 95.1843 45.5503 95.1174 45.4514 95.0427ZM43.3959 93.9174C43.3682 94.0984 43.3406 94.2794 43.3208 94.4525C43.3406 94.4407 43.3643 94.4289 43.388 94.4171L43.4315 94.3935C43.4236 94.244 43.4196 94.0944 43.4157 93.941C43.4078 93.9331 43.4038 93.9253 43.3959 93.9174ZM44.6687 94.1181C44.7004 94.1299 44.732 94.1377 44.7636 94.1495C44.7518 94.122 44.7399 94.0944 44.728 94.0669L44.6687 94.1181ZM38.8935 92.8511C39.0951 93.2997 39.2809 93.4295 39.3995 93.457C39.6406 93.5161 40.0161 93.28 40.4628 92.7803C40.4549 92.6819 40.4509 92.5797 40.447 92.4734C39.9054 92.8 39.4074 92.9259 38.9251 92.8551C38.9132 92.8551 38.9014 92.8551 38.8895 92.8511H38.8935ZM37.1146 91.5921C36.9447 92.0367 36.8221 92.4262 36.7273 92.7331C36.6798 92.8905 36.6363 93.0282 36.5929 93.1502C36.7786 93.0872 37.083 92.8393 37.5337 92.0642C37.3953 91.9265 37.2569 91.7691 37.1146 91.5921ZM43.3247 92.4105C43.3247 92.4105 43.3326 92.4341 43.3366 92.4459L43.3485 92.4262C43.3485 92.4262 43.3326 92.4144 43.3247 92.4065V92.4105ZM37.4111 82.2555C37.4625 82.3381 37.5178 82.4207 37.5692 82.5034C37.5811 82.3657 37.6325 82.2516 37.7234 82.1689C38.008 81.8974 38.4824 82.0312 39.0832 82.2004C39.6603 82.3617 40.364 82.5624 40.8067 82.3696L40.534 80.8115C40.281 80.843 40.0675 80.843 39.8896 80.8115C39.6643 81.1263 39.3125 81.4371 38.7512 81.626C38.265 81.7519 37.9843 81.9171 37.6601 82.1099C37.5811 82.1571 37.4941 82.2083 37.4072 82.2555H37.4111Z" fill="currentColor"/>
<path d="M45.7951 96.879C45.72 96.879 45.6765 96.8278 45.6172 96.7492C45.5065 96.7492 45.4077 96.7098 45.3286 96.6311C45.1112 96.4187 45.1626 96.1039 45.5777 95.4193C45.3919 95.4901 45.2298 95.4901 45.0875 95.3917C44.9175 95.2776 44.8543 95.0927 44.8978 94.7504C44.5776 94.2507 44.4906 93.4442 44.4946 92.3189C44.1902 91.6067 43.9569 90.7805 43.7316 89.9543C43.6012 89.5962 43.4747 89.2342 43.3561 88.8919C42.9806 87.8217 42.5576 86.6099 42.5695 85.3745C42.5971 84.6663 42.352 83.3207 42.1346 82.1364C41.9568 81.1842 41.7907 80.2753 41.6366 79.453C41.518 78.6583 41.4112 77.9146 41.6563 77.3992C41.6998 77.2733 41.7591 77.1592 41.8342 77.053C41.933 76.7107 42.2018 76.4667 42.439 76.2464C42.4944 76.1953 42.5536 76.1402 42.605 76.089C42.7078 75.9041 42.8027 75.7152 42.8976 75.5225L43.4865 74.3539V75.6602C43.4865 75.9946 43.3126 76.2464 43.1071 76.4628C42.8817 76.8641 42.6129 77.2654 42.2295 77.6432C42.0912 78.0956 42.1939 78.8274 42.2928 79.5396L43.2731 84.8276C43.3759 86.3817 43.8107 87.9319 44.2297 89.427L44.2416 89.4624C44.2692 89.5647 44.2969 89.671 44.3246 89.7733C44.5855 90.5011 44.8543 91.2172 45.0954 91.7641L45.1231 91.8271V91.894C45.1231 91.9963 45.1191 92.0946 45.1191 92.1969C45.3168 92.6376 45.5381 93.0153 45.8069 93.2946L45.9413 93.4324L45.8781 93.6133C45.8504 93.6842 45.8267 93.755 45.8069 93.8179C45.8899 93.6842 45.9848 93.5347 46.0915 93.3733C46.1746 92.7241 46.7438 91.4926 47.3486 90.1903L47.3881 90.0998C47.7992 89.2106 48.2103 88.3175 48.574 87.5267C49.329 85.886 50.2698 85.2564 50.3094 85.2289L56.6064 81.0898L50.673 85.7286C50.673 85.7286 49.8982 86.3581 49.2895 87.869C48.9693 88.6873 48.6135 89.6119 48.2538 90.5366C47.7597 91.8113 47.2023 93.2592 47.2221 93.8966V93.9832L47.1826 94.0579C47.0758 94.2429 46.9889 94.4002 46.9098 94.5419L46.9019 94.5537C46.7596 94.8173 46.6647 95.0062 46.6054 95.1478C46.6331 95.1321 46.6608 95.1124 46.6884 95.0927L49.9141 92.8815L48.2736 94.4357L55.1122 89.7615L51.4439 92.6022L53.1436 91.5438L47.1114 96.0252C46.5975 96.4069 46.2852 96.639 46.0836 96.7649C46.0836 96.7649 46.0836 96.7649 46.0797 96.7688C45.9453 96.8514 45.8623 96.8829 45.803 96.8829L45.7951 96.879ZM46.056 94.5773L46.135 94.6639C46.2497 94.4317 46.3999 94.1563 46.5896 93.8219C46.5896 93.7865 46.5896 93.7471 46.5936 93.7078C46.3445 94.0973 46.1706 94.3766 46.056 94.5773ZM45.1626 93.4992C45.1705 93.5583 45.1784 93.6173 45.1863 93.6763C45.1982 93.6409 45.21 93.6094 45.2219 93.574C45.2021 93.5504 45.1824 93.5268 45.1626 93.5032V93.4992ZM43.4826 91.7917L42.9252 91.4454L42.1188 91.6422C40.7906 91.9648 39.9882 90.8907 39.1581 89.5411L38.9327 89.3798C38.3556 88.9667 37.6401 88.4552 36.893 87.9594L36.557 87.747C35.7743 87.2591 34.9679 86.7516 34.2682 86.0551L33.9639 85.7522L34.3473 85.5594C35.7506 84.863 36.9602 85.2879 37.7943 85.7365C37.7429 85.6892 37.6915 85.642 37.6441 85.5948C36.8535 84.8433 35.9759 83.9305 35.4502 82.8879C35.1814 82.2662 35.1616 81.7823 35.379 81.3849C35.7625 80.6924 36.7507 80.5311 37.7073 80.3776C38.0315 80.3265 38.3398 80.2753 38.6086 80.2085C38.4821 79.2248 38.3358 78.1232 38.1817 77.1592C37.9366 75.6287 38.0591 74.4837 38.4861 74.2437C38.6205 74.169 38.7865 74.1808 38.9011 74.2791L38.9327 74.3067C39.5059 74.9441 40.1937 75.0188 40.9804 75.0306C41.1108 74.9756 41.265 74.9756 41.4468 75.066L42.6208 75.6523H41.3085C41.261 75.6523 41.2096 75.6523 41.1622 75.6523C41.1148 75.7113 41.0555 75.8175 41.0199 75.8805C40.8934 76.1048 40.7313 76.388 40.427 76.3802C40.2807 76.3802 40.1582 76.3094 40.0514 76.2031C39.9486 76.5926 39.8498 77.3363 39.9961 78.5127C40.1147 79.457 40.2886 80.8891 39.2806 81.4006L39.2253 81.4282H39.166C38.237 81.5108 37.5848 81.798 37.5848 82.1285C37.5848 83.8676 38.7707 85.1896 40.0238 86.5902C40.6444 87.2827 41.2729 87.9831 41.8144 88.6795L42.2532 89.1162L42.0793 89.0296C42.5576 89.6788 42.945 90.3202 43.1743 90.9457L43.4786 91.7799L43.4826 91.7917ZM37.4464 86.9286C38.1303 87.6526 38.9486 88.2152 39.6917 88.6834L39.7668 88.7464C40.6602 89.8283 41.4587 90.749 42.1742 91.0638L42.6406 91.2684C42.016 90.8553 41.4824 90.2179 40.9211 89.5451C40.6167 89.1791 40.3044 88.8054 39.9724 88.4631C39.1699 87.6919 38.3398 87.1844 37.4504 86.9286H37.4464ZM40.7234 88.3647C40.9527 88.6204 41.1701 88.8801 41.3796 89.1319C41.1899 88.888 40.9883 88.6401 40.7788 88.3922L40.7195 88.3647H40.7234ZM35.0549 85.945C35.6241 86.4368 36.2605 86.8342 36.8812 87.2237C36.7151 87.0388 36.557 86.846 36.4108 86.6414L36.0075 86.0788L36.6993 86.1535C36.9918 86.185 37.2844 86.244 37.569 86.3227C36.64 85.8112 35.8455 85.6892 35.0588 85.945H35.0549ZM39.2371 80.6688L39.0553 80.7317C38.6956 80.8577 38.2647 80.9245 37.8141 80.9993C37.0432 81.1252 36.1696 81.2629 35.9324 81.6918C35.8139 81.9042 35.8455 82.2229 36.0234 82.6361C36.474 83.5331 37.2527 84.3554 37.9722 85.0518C37.3871 84.1823 36.976 83.238 36.976 82.1403C36.976 81.4439 37.7508 80.956 39.0592 80.834C39.1304 80.7908 39.1936 80.7318 39.2411 80.6649L39.2371 80.6688ZM38.7509 74.9992C38.6797 75.3218 38.6205 75.9749 38.7983 77.0727C38.9683 78.131 39.1264 79.3507 39.2608 80.4013L39.2846 80.598C39.5454 80.1612 39.4822 79.3822 39.3873 78.5992C39.1936 77.0254 39.3913 75.9002 39.7036 75.5028C39.3755 75.4044 39.0513 75.251 38.7509 74.9992ZM40.3874 75.6326C40.3993 75.6523 40.4111 75.672 40.423 75.6877C40.4349 75.672 40.4428 75.6523 40.4507 75.6366C40.4309 75.6366 40.4072 75.6366 40.3835 75.6326H40.3874Z" fill="currentColor"/>
<path d="M44.9493 91.5119C44.7121 91.5119 44.6409 91.3191 44.6133 91.1735C43.9452 90.4181 43.4867 89.4698 43.1704 88.199C42.9016 87.1091 42.791 86.0232 42.7277 85.0789C42.7119 84.953 42.6961 84.8192 42.6724 84.6815C42.5735 84.1582 42.4708 83.5956 42.3719 83.029L41.8106 79.9955C41.6723 78.9765 41.5339 77.9378 41.9727 77.1981L41.9964 77.1627C42.0755 77.0643 42.1585 76.962 42.2455 76.8597C42.8226 76.1673 43.4788 75.3804 43.4867 74.3377C43.4985 73.9325 43.4669 73.6295 43.4313 73.4446C43.2693 73.4524 43.1111 73.4013 43.0044 73.2754C42.8621 73.1141 42.7949 72.819 43.2614 72.3547L43.5657 72.0518L43.7594 72.4334C44.9374 74.7744 43.3365 76.8558 42.5459 77.6781C42.2494 78.3706 42.3917 79.4014 42.5301 80.3969C42.7356 81.4985 42.9412 82.6041 43.1388 83.6507C43.206 84.0009 43.2574 84.3235 43.2969 84.6147C43.3088 84.6855 43.3246 84.7563 43.3365 84.8232C43.3365 84.8783 43.3444 84.9294 43.3483 84.9845C43.3918 85.3347 43.4234 85.6337 43.4472 85.8855C43.459 86.0153 43.4709 86.1373 43.4827 86.2475C43.7199 86.7865 43.8187 87.3334 43.9176 87.8646C43.9452 88.0259 43.9768 88.1833 44.0085 88.3406C44.1468 89.0016 44.3366 89.5171 44.8149 89.8712L44.8821 89.9223L44.9137 90.001C45.0481 90.3158 45.1706 90.6148 45.226 90.6738L45.3248 90.78V90.9414C45.2932 91.2089 45.2576 91.5119 44.9532 91.5119H44.9493ZM29.0663 86.3931C28.4971 86.3931 27.9397 86.2278 27.5404 85.913C27.1135 85.5707 26.9317 85.0829 27.0463 84.5714C27.0661 81.2467 29.7185 80.2985 32.284 79.3817C33.6438 78.8978 35.0471 78.3942 35.9998 77.5404C36.0195 77.1351 36.0314 76.726 36.0472 76.3128C36.0591 76.0217 36.067 75.7266 36.0788 75.4315C36.0788 73.9875 36.15 72.8819 36.5255 72.2249L36.5492 72.1895C37.0987 71.4734 37.0513 70.6117 36.9999 69.7028C36.9841 69.4392 36.9722 69.1717 36.9682 68.9041L36.739 67.9166C35.8812 64.2732 35.142 61.1256 35.5452 57.2816C35.8496 55.3694 36.0274 54.4055 36.0314 54.3976L37.9328 44.1836L36.6441 54.492C36.6441 54.492 36.5137 55.5386 36.3753 57.2265C36.1144 60.7794 37.3794 63.7578 38.7194 66.9093C39.0594 67.712 39.4151 68.5422 39.7353 69.3802C40.7552 71.4065 39.6879 73.3856 38.3399 74.562C37.9525 75.0184 37.8537 75.9509 37.8023 76.8951C37.7272 77.3909 37.6679 77.8709 37.6126 78.3509L37.5177 79.1103L37.3398 79.1732C36.5334 79.4644 35.6914 79.6729 34.7941 79.8932C32.3275 80.5031 29.7778 81.1326 28.2362 83.5445C28.0267 83.9615 28.0939 84.4888 28.4299 84.9294C28.7342 85.3268 29.3272 85.6927 30.0822 85.5471L32.3512 85.0947L30.2798 86.1255C29.9083 86.3104 29.4813 86.4009 29.0584 86.4009L29.0663 86.3931ZM27.6432 84.7681C27.6076 85.0238 27.7025 85.2481 27.9318 85.433C28.0188 85.5039 28.1215 85.5629 28.2322 85.6101C28.1294 85.5157 28.0306 85.4134 27.9436 85.2993C27.8171 85.134 27.7144 84.953 27.6432 84.7681ZM29.7897 81.1011C29.1414 81.471 28.5959 81.9234 28.2204 82.5176C28.6947 81.9392 29.2244 81.4788 29.7897 81.1011ZM37.0552 72.5475C36.739 73.1219 36.6955 74.2787 36.6994 75.4433C36.6876 75.7502 36.6797 76.0413 36.6678 76.3325C36.652 76.7889 36.6362 77.2453 36.6164 77.6938V77.8158L36.5216 77.9024C35.7468 78.6421 34.7151 79.1299 33.6399 79.5431C33.9759 79.4565 34.3158 79.3699 34.6518 79.2873C35.4622 79.0867 36.233 78.8978 36.9564 78.6499L37.0038 78.2722C37.0631 77.7883 37.1224 77.3043 37.1936 76.8283C37.241 75.8682 37.3438 74.7587 37.8932 74.137L37.9209 74.1095C39.0989 73.0865 40.0476 71.375 39.174 69.6281C38.842 68.7743 38.4901 67.9481 38.1502 67.1493C37.4031 65.3906 36.6402 63.5965 36.1737 61.6922C36.3832 63.7027 36.8418 65.6542 37.3398 67.7789L37.5889 68.8727C37.5889 69.1402 37.6047 69.4078 37.6205 69.6714C37.6758 70.6471 37.7312 71.6544 37.0592 72.5475H37.0552Z" fill="currentColor"/>
<path d="M80.34 93.9472L81.1899 91.673C81.4745 90.9136 81.6247 90.4179 81.6445 90.1936C81.3045 90.2999 80.4467 90.8546 79.5454 91.4369C79.2806 91.6101 78.992 91.795 78.6797 91.9917L78.3438 91.4723C82.5774 88.7103 84.4946 87.5103 86.3287 87.5103C86.3524 87.5103 86.3762 87.5103 86.3999 87.5103C87.2893 85.3306 88.2261 83.7686 89.8864 81.3488C89.9338 80.7508 90.2303 79.9403 90.7481 78.8465C90.4596 78.5435 90.3252 78.032 90.2698 77.316C89.9694 76.7179 90.0524 75.569 90.3054 73.7631L91.096 68.1328L90.9023 74.4162C90.8707 75.4392 90.8391 76.3914 90.8786 77.1232C90.8904 77.135 90.9023 77.1428 90.9142 77.1507C91.0169 77.2137 91.3095 77.1507 91.8233 76.7966L92.8551 76.0884L92.274 77.194C92.0368 77.6425 91.8036 78.095 91.5901 78.5278C91.7048 78.5121 91.8431 78.4727 92.0012 78.4058L92.9895 77.9927L92.3728 78.8662C91.6534 79.8891 91.0327 80.7705 90.4912 81.5574C90.4951 81.6793 90.5228 81.7777 90.5703 81.8525C90.6967 82.0453 91.0525 82.1279 91.6257 82.1003L92.6377 82.0492L91.8312 82.6551C89.0958 84.7089 87.9494 85.8421 86.9256 87.8644C86.9138 87.8919 86.9059 87.9155 86.894 87.9431L86.811 88.1516H86.7833C86.554 88.6238 86.3327 89.1431 86.0915 89.7333L85.8979 90.2172L85.5658 89.812C85.0835 89.2257 84.7594 89.1707 84.5657 89.1785C83.9293 89.2021 83.0833 90.0323 81.7393 91.9563L80.3439 93.9472H80.34ZM82.1663 89.7687C82.2453 89.8789 82.273 90.0205 82.2611 90.2172C82.6604 89.7294 83.0122 89.3595 83.3403 89.0959C82.9806 89.2887 82.5932 89.513 82.1702 89.7687H82.1663ZM84.5894 88.5608C84.9768 88.5608 85.3365 88.7182 85.6963 89.0526C85.8307 88.7261 85.9651 88.4192 86.0995 88.1319C85.5856 88.1634 85.048 88.3051 84.4234 88.5687C84.459 88.5647 84.4985 88.5608 84.5341 88.5608C84.5499 88.5608 84.5697 88.5608 84.5894 88.5608ZM90.0524 82.1948C89.4555 83.08 88.9574 83.8512 88.5226 84.5948C89.1274 83.9968 89.8587 83.383 90.7916 82.663C90.4991 82.5961 90.2263 82.4584 90.0524 82.1948ZM91.2897 79.1376C91.2027 79.3226 91.1197 79.5075 91.0407 79.6845C91.1632 79.5114 91.2857 79.3344 91.4162 79.1534C91.3727 79.1534 91.3332 79.1455 91.2936 79.1416L91.2897 79.1376ZM90.9458 77.7881C90.9735 77.9494 91.009 78.0871 91.0565 78.2012C91.1276 78.0557 91.2027 77.9061 91.2818 77.7527C91.1671 77.7802 91.0565 77.792 90.9458 77.7881Z" fill="currentColor"/>
<path d="M54.1041 95.9901L58.148 94.2707C58.148 94.2707 58.8081 93.9913 59.7924 93.5625C60.2865 93.3539 60.8795 93.1139 61.5317 92.8503C62.2828 92.5474 63.1129 92.2129 63.9588 91.8588L64.0142 91.8391C66.5559 91.308 68.564 89.8916 69.8171 87.7355C70.244 87.0154 70.5761 86.2246 70.8488 85.5439L70.9911 85.1938L71.3074 85.4023C71.5485 85.5597 71.8015 85.6856 72.0268 85.7957C72.3154 85.9413 72.5447 86.0515 72.687 86.201C72.9241 86.2246 73.1336 86.2482 73.3155 86.2797C72.9913 85.4495 72.0703 84.757 71.1097 84.0331L70.9832 83.9308C69.746 82.9039 68.4652 81.8415 67.3584 80.4605C66.8682 80.0868 66.4018 79.7956 65.9313 79.5635C64.2672 78.8631 62.4251 78.3516 60.6462 77.8598C60.2589 77.7536 59.8675 77.6434 59.4841 77.5333C58.7884 77.3326 58.0491 77.1123 57.3653 76.8368L57.2111 76.7739L57.1795 76.6126C57.0135 75.7903 57.1558 74.9168 57.2902 74.0709C57.3534 73.6814 57.4127 73.2958 57.4483 72.922L57.1202 73.5751V69.4203L57.7092 70.5888C57.7211 70.6124 57.7329 70.6321 57.7408 70.6557C57.7527 70.6321 57.7606 70.6124 57.7724 70.5888L58.1875 69.7626C58.144 69.5934 58.1005 69.4242 58.061 69.259L58.6619 69.0977C58.7449 69.3888 58.816 69.676 58.8832 69.9672C59.1244 70.88 59.3932 71.7771 59.7687 72.5246L59.7964 72.6112C60.0098 73.9017 60.6976 74.7043 61.8993 75.0663L62.8757 75.3575C63.2512 75.4716 63.6307 75.5817 64.0142 75.6998C64.1446 75.7234 64.2711 75.7431 64.4016 75.7667C64.9787 75.865 65.5558 75.9673 66.129 76.0775L66.1883 76.0932C66.631 76.2703 67.0896 76.6991 67.639 77.4467C68.5166 78.9772 69.6709 80.2835 71.086 81.3576C71.592 81.7432 72.1296 82.0934 72.6079 82.4042C73.4143 82.9314 73.8926 83.254 74.0942 83.5491C74.1535 83.5806 74.2128 83.6121 74.2642 83.6436L74.3867 83.6711C76.9206 84.2377 77.8811 84.4659 78.2132 84.7295C79.2331 84.8947 79.9327 85.0442 80.3952 85.2252C81.087 85.3354 81.4467 85.5164 81.5297 85.8587C81.5297 85.8666 81.5337 85.8744 81.5337 85.8823C82.68 85.6856 82.854 85.7328 82.937 86.02C83.0121 86.2718 82.9844 86.3938 81.9685 86.8344C82.0318 87.0981 81.759 87.2712 78.6955 88.4004L75.6635 89.5178L77.3277 88.5106L72.4695 90.1198C72.6 90.3126 72.7146 90.5565 72.8055 90.7886C72.9439 91.1388 72.7542 91.2686 72.6632 91.3041C72.2007 91.5755 71.6038 91.7014 70.9595 91.6503C70.8053 91.6542 69.8013 91.8588 67.6548 92.4096C66.8129 92.6182 65.9986 92.8424 65.208 93.0628C64.0339 93.3893 62.8164 93.7277 61.4961 94.0071C59.6936 94.4831 58.3456 94.8451 58.3456 94.8451L54.0962 95.9861L54.1041 95.9901ZM64.1762 92.4411C63.5477 92.7047 62.9311 92.9566 62.35 93.1887C63.2908 92.9644 64.1762 92.7165 65.0459 92.4765C65.8404 92.2562 66.6587 92.028 67.5086 91.8195C68.6826 91.5204 70.7184 91.0208 71.007 91.0444C71.422 91.0798 71.8213 91.0168 72.1612 90.8752C72.098 90.7532 72.011 90.5998 71.9399 90.4817C71.7027 90.5762 71.4853 90.5958 71.2837 90.5368C71.2758 90.5368 71.2678 90.5329 71.2599 90.529L69.2558 91.1939L71.1137 90.466C70.8251 90.3047 70.6354 89.9899 70.4852 89.6909L70.4694 89.6516C70.2836 89.0968 70.2638 88.5145 70.4022 87.9873C70.3863 88.0109 70.3745 88.0345 70.3587 88.0581C69.0226 90.3558 66.884 91.8746 64.1762 92.4451V92.4411ZM72.3826 90.765C72.3826 90.765 72.3549 90.7768 72.3431 90.7886C72.3549 90.7808 72.3707 90.7729 72.3826 90.765ZM72.0229 89.7853C72.1375 89.7853 72.2482 89.8601 72.351 89.9742L79.5493 87.1453C79.7509 87.0115 79.9288 86.8935 80.075 86.7872L79.9604 86.8108L80.4782 86.1616C80.5494 86.0751 80.5494 86.0357 80.5494 86.0357C80.5296 85.9689 80.4387 85.9059 80.2925 85.8429C79.6521 85.7485 78.6401 85.6934 77.6479 85.6423L74.7306 85.4888C74.865 85.6659 74.9639 85.8587 75.0232 86.0711C75.1299 86.4646 75.0864 86.8817 74.8848 87.3302C75.2524 87.2633 75.3315 87.3145 75.4185 87.401L75.5449 87.5309L75.4936 87.7118C75.454 87.8495 75.4026 88.0187 73.8412 88.361L72.8332 88.5814L73.5487 87.8456C73.5487 87.8456 73.5764 87.8181 73.5882 87.8023L73.2404 88.0541L73.3511 87.523C73.1495 87.46 72.8332 87.3931 72.3549 87.3577L72.26 87.3499L72.1849 87.2908C72.0387 87.1767 71.5999 87.161 71.4022 87.3499C70.9516 87.8653 70.8053 88.6876 71.0465 89.4352C71.1493 89.6358 71.2995 89.8994 71.4576 89.9466C71.5525 89.9742 71.6908 89.9348 71.8727 89.8286L71.928 89.805C71.9596 89.7932 71.9912 89.7893 72.0189 89.7893L72.0229 89.7853ZM74.1812 87.3302C74.1812 87.3302 74.1812 87.3341 74.1851 87.3381C74.193 87.3263 74.2009 87.3145 74.2049 87.3027C74.197 87.3145 74.1891 87.3223 74.1812 87.3341V87.3302ZM74.027 86.4803C74.1891 86.563 74.2879 86.6731 74.3274 86.8187C74.3472 86.8935 74.3472 86.9682 74.3353 87.0351C74.4618 86.7361 74.4895 86.4685 74.4223 86.2285C74.3156 85.839 73.9598 85.481 73.2997 85.1033C73.6633 85.5203 73.9282 85.9728 74.027 86.4803ZM71.2955 86.1144C71.1809 86.3938 71.0583 86.6731 70.9318 86.9525C70.9398 86.9407 70.9516 86.9328 70.9595 86.921C71.3034 86.5905 71.8489 86.5236 72.2521 86.6417L72.2442 86.622C72.2047 86.5748 71.9438 86.4449 71.758 86.3505C71.6157 86.2797 71.4576 86.201 71.2995 86.1105L71.2955 86.1144ZM72.936 84.2219C73.5764 84.517 74.28 84.9065 74.699 85.4416L76.6281 85.1229C76.0628 85.0442 75.4698 84.9656 74.8729 84.8869L74.0349 84.7767L74.367 84.4462C74.2919 84.3872 74.1772 84.3124 74.0389 84.2337L73.5922 84.1354V83.9898C73.4262 83.9032 73.2562 83.8167 73.0941 83.7341C72.6435 83.5019 72.1494 83.2501 71.6513 82.9629C72.2205 83.3681 72.7028 83.7734 72.936 84.2259V84.2219ZM58.6184 76.1522C59.5513 76.4788 60.5237 76.7778 61.5436 77.0926C62.765 77.4664 64.026 77.8559 65.2435 78.3044C66.1171 78.6271 66.8761 78.9457 67.5639 79.2802L67.6469 79.3195L67.6944 79.3982C68.2557 80.3386 69.0107 81.0507 69.7183 81.6015C68.481 80.5432 67.4928 79.2723 66.7654 77.7969C66.3385 77.3247 65.9432 77.0178 65.4886 76.8054C64.9668 76.6362 64.4213 76.467 63.8719 76.3017C63.6465 76.2624 63.4212 76.2231 63.1959 76.1837C62.3618 76.0342 61.3815 75.8414 60.4012 75.566L60.3102 75.5385L60.2509 75.4676C59.1204 74.1378 58.8121 72.6427 58.484 71.057C58.4444 70.8682 58.4049 70.6754 58.3654 70.4865V70.7265C58.3654 71.4623 58.4682 72.1626 58.567 72.8394C58.7132 73.8387 58.8674 74.8735 58.6816 76.0106L58.6658 76.109L58.6184 76.1562V76.1522ZM58.0175 73.3981C57.9859 73.6538 57.9424 73.9096 57.9029 74.1653C57.7922 74.8657 57.6855 75.5306 57.7408 76.1483L58.0847 75.8099C58.2073 74.9719 58.1322 74.1929 58.0215 73.3981H58.0175Z" fill="currentColor"/>
<path d="M68.4017 86.5715H68.382C66.4766 86.4456 65.8007 84.9977 65.8007 83.6836C65.8007 82.8927 66.0299 82.1924 66.4845 81.6061C66.8601 81.1183 67.283 80.8783 67.789 80.8979C67.3858 80.4573 66.9905 80.1307 66.6031 79.9182C66.026 79.7176 65.5121 79.6743 65.1801 79.6743L65.097 79.6625C64.2748 79.4382 63.4368 79.2494 62.6264 79.0644C61.7686 78.8677 60.8832 78.6671 60.0214 78.4271C58.9818 78.1398 58.2228 77.8605 57.5587 77.526L57.4402 77.467L57.4006 77.3372C57.0488 76.145 56.8235 74.8899 56.6061 73.6781C56.0803 70.7547 55.5348 67.733 53.1828 65.3881L52.918 65.1245L53.2303 64.9159C53.2303 64.9159 53.922 64.432 53.7441 64.0779L54.0208 63.9402V63.6766L54.1711 63.8654L54.2976 63.8025C54.5861 64.3769 54.8707 64.6563 55.1712 64.9553L55.7009 65.4825H55.3649C57.0844 68.2209 58.0489 72.0689 58.0489 76.2827C58.0489 76.6054 58.6458 76.8887 59.2111 76.9988L59.2743 77.0185C60.14 77.3883 61.065 77.6992 62.0216 77.9392C62.9545 78.1752 63.923 78.3444 64.9033 78.4467H64.9152C65.8046 78.4467 66.8324 78.6434 68.1408 80.0284C68.5796 80.4651 68.9828 80.9373 69.3741 81.3976C69.5639 81.6179 69.7497 81.8383 69.9394 82.0547C70.6035 82.8062 71.1925 83.357 71.7301 83.7386L71.9831 83.9196L73.8647 84.0062C73.8449 83.9905 73.8212 83.9708 73.7975 83.955C73.5327 83.8685 73.2559 83.778 72.9674 83.6796L72.9002 83.656L72.8488 83.6049C72.5839 83.3452 72.1373 82.9872 71.6234 82.574C71.0067 82.0822 70.311 81.5235 69.635 80.9058C68.4966 79.871 67.3739 78.6356 66.2078 77.1326C65.5872 76.9005 64.9073 76.6762 64.0772 76.4362C63.3301 76.2198 62.579 75.9955 61.82 75.7673C61.1362 75.5588 60.2823 75.2991 59.5866 74.8702L59.4443 74.7837V74.6184C59.4206 74.0519 59.3652 73.4853 59.2743 72.9187C58.2782 69.0786 56.5468 65.9153 54.1315 63.5192C53.9299 63.3225 53.7244 63.1257 53.5149 62.9369L53.9299 62.4805C54.1513 62.6772 54.3648 62.8818 54.5782 63.0903C57.452 65.9153 59.3218 69.3501 59.887 72.8086C59.9147 72.9227 59.9463 73.0368 59.974 73.1509C60.1124 74.0361 60.4681 74.583 61.065 74.8584C61.7054 75.0709 62.4407 75.2912 63.421 75.5667C63.844 75.6847 64.2669 75.7988 64.6899 75.9129C65.2433 76.0624 65.8007 76.2159 66.3501 76.3693L66.445 76.3968L66.5082 76.4755C67.4925 77.711 68.4136 78.7497 69.3188 79.6467C70.145 80.4651 71.1213 81.3386 72.3112 82.3104L72.659 82.515C72.6907 82.5347 72.7263 82.5544 72.7579 82.574C72.5958 82.4284 72.4298 82.2829 72.2677 82.1334C72.0582 81.9484 71.8447 81.7557 71.6313 81.5629C70.3387 80.2645 69.2318 78.8559 68.3306 77.3765C67.4135 75.8696 66.6822 74.2368 66.1604 72.5213C65.8125 72.2027 65.4647 71.8918 65.1247 71.5928C64.7215 71.2741 64.3657 70.9633 64.0535 70.6525L56.6179 63.2477L64.4764 70.2039C64.6859 70.3888 64.8994 70.5738 65.1129 70.7626C65.2473 70.8807 65.3856 70.9987 65.524 71.1207C65.6702 71.2348 65.8204 71.3489 65.9786 71.4669L66.0537 71.5299C66.5834 71.9902 67.1842 72.5095 67.7179 74.2053C68.1843 75.8814 68.9868 77.408 70.1015 78.7575C70.8644 79.6782 71.7578 80.5005 72.4733 81.1576C72.7539 81.4173 73.0109 81.6494 73.2243 81.8579L73.5682 82.0271C75.5368 82.995 76.3353 83.4081 76.2721 83.959C76.2721 83.9668 76.2721 83.9787 76.2721 83.9865C78.4106 84.1714 78.4106 84.199 78.3908 84.5019C78.3711 84.8049 78.3711 84.8324 76.4341 84.7459C76.2958 84.797 76.0705 84.7616 75.7542 84.7105L74.683 84.5413C74.6355 84.62 74.5644 84.6987 74.4497 84.7734L73.4655 85.4029L73.6275 85.0961L71.4692 84.2855C71.2044 84.1872 70.9356 84.0573 70.6707 83.9118L70.2201 83.8409L70.5719 83.8567C69.9987 83.5341 69.4611 83.1445 69.0895 82.8376C68.4017 82.4639 68.0539 82.4481 67.9629 82.5504C67.4846 83.0973 67.4767 83.7308 67.9313 84.4272C68.3622 84.8403 68.7575 84.6751 69.4137 84.3485L69.8643 84.1242V84.6239C69.8643 84.6947 69.9117 84.801 69.9592 84.9111C70.0501 85.1197 70.1608 85.3754 70.1252 85.6941L70.1133 85.8121L70.0264 85.8908C69.5441 86.3197 69.0184 86.5558 68.4571 86.5833H68.4373L68.4017 86.5715ZM67.7416 81.5117C67.3858 81.5117 67.1684 81.736 66.9786 81.9799C66.6031 82.4639 66.4213 83.0186 66.4213 83.6836C66.4213 84.3485 66.615 85.8239 68.4057 85.9538C68.7812 85.9302 69.133 85.7807 69.4769 85.5052C69.4651 85.3872 69.4137 85.2731 69.3583 85.1433C69.3465 85.1118 69.3307 85.0842 69.3188 85.0528C68.7456 85.3085 68.0894 85.4698 67.4451 84.8285L67.4056 84.7813C66.777 83.8409 66.8008 82.9006 67.4688 82.1334C67.9511 81.5786 68.884 82.0232 69.2951 82.2475C69.2872 82.2396 69.2793 82.2278 69.2714 82.2199L68.5361 81.7871C68.208 81.5943 67.9511 81.5156 67.7416 81.5156V81.5117ZM72.3468 84.1675L73.6117 85.0646L73.9517 84.4193L73.4734 84.3603L73.5129 84.3524L72.3507 84.1675H72.3468ZM74.43 83.5026C74.7264 83.597 74.9992 83.6836 75.2403 83.7583C75.355 83.7937 75.4617 83.8291 75.5605 83.8606C75.5684 83.8606 75.5763 83.8567 75.5803 83.8527C75.3747 83.6403 74.7027 83.2822 73.9952 82.9281C74.1691 83.1249 74.3153 83.3137 74.426 83.5026H74.43ZM53.8627 65.2032C56.1515 67.6386 56.693 70.6525 57.2148 73.5719C57.2623 73.8433 57.3137 74.1188 57.365 74.3942C57.1121 70.8649 56.1436 67.7134 54.6098 65.455C54.3964 65.4117 54.179 65.2936 54.0762 64.9749C54.009 65.0576 53.9339 65.1363 53.8588 65.2032H53.8627Z" fill="currentColor"/>
<path d="M67.8287 84.7111L64.1881 83.9871C61.3815 83.4284 58.7567 82.2048 56.3849 80.3438C55.6536 79.7693 54.9381 79.1319 54.2622 78.4434L54.1238 78.3057L54.191 78.1247C55.1911 75.402 55.4995 71.2432 54.2582 69.2681C53.8748 68.6583 53.3688 68.3199 52.7482 68.2569C45.4431 67.5959 36.968 65.8097 36.3039 57.7951C36.0865 55.6468 36.0272 54.4861 36.0232 54.4743L35.5449 44.9961L36.6438 54.4232C36.6438 54.4232 36.7624 55.4265 36.9957 57.0003C37.6677 63.5237 43.186 64.4916 48.5225 65.428C50.1748 65.7192 51.7362 65.9946 53.1791 66.4235C57.1281 67.6314 56.377 73.2734 55.8315 77.3889C55.792 77.688 55.7525 77.9752 55.7169 78.2545C56.2901 78.7739 56.9067 79.2775 57.555 79.7575C59.5433 81.2172 61.8321 82.4448 64.358 83.4009L67.8287 84.715V84.7111ZM54.8393 78.1483C54.9184 78.227 54.9974 78.3018 55.0765 78.3804V78.3332C55.1239 78.0067 55.1674 77.6644 55.2148 77.3063C55.2583 76.9876 55.3018 76.6571 55.3453 76.3188C55.2109 76.9601 55.0409 77.5817 54.8393 78.1522V78.1483ZM38.2843 61.8948C40.9368 65.9552 46.9492 67.1081 52.8075 67.6392C53.6297 67.7218 54.2899 68.1586 54.784 68.9376C55.2662 69.7009 55.539 70.7317 55.6457 71.8728C55.5706 69.5711 54.95 67.6038 53.0012 67.0097C51.5979 66.5887 50.0523 66.3212 48.4197 66.0339C44.7 65.3808 40.6363 64.6687 38.2883 61.8988L38.2843 61.8948ZM67.7378 78.6244C66.6784 77.0584 65.9274 76.905 65.1368 76.7476L65.0498 76.7279C64.0655 76.606 63.0773 76.4014 62.1286 76.1299C61.2273 75.8033 60.247 75.3784 59.7884 74.3515L59.7687 74.2964C58.9702 70.8419 57.6855 66.7618 54.7365 64.0667C54.2622 63.6536 53.7641 63.2876 53.2344 62.965C52.8154 62.7565 52.4122 62.6503 52.0169 62.6345C50.9377 62.8824 50.163 63.1854 49.74 63.3781C49.6412 63.4411 49.5424 63.504 49.4435 63.5749C49.2261 64.2477 48.7359 64.2477 48.4355 64.2477H47.5501L48.2418 63.6968C48.4671 63.5198 48.6964 63.3388 48.9336 63.1696C49.0127 63.0752 49.1747 62.969 49.3921 62.8588C50.1709 62.363 51.0049 61.9932 51.9458 62.0207C52.1474 61.9735 52.349 61.9302 52.5466 61.8948L52.6533 61.8752L52.7482 61.9263C53.7088 62.4299 54.5508 63.0437 55.286 63.7362C57.7764 65.971 59.4999 69.3625 60.5434 74.0407C60.9387 74.7371 61.7254 75.0676 62.5041 75.343C63.3619 75.5869 64.2948 75.7955 65.2633 75.9647C66.1132 76.1771 67.05 76.4132 68.2557 78.2899L67.7378 78.6283V78.6244Z" fill="currentColor"/>
<path d="M91.5788 54.0625H91.5709C91.2942 54.0625 91.0649 53.972 90.891 53.7949C90.7171 53.6179 90.6301 53.3897 90.6301 53.1142C90.6301 52.8782 90.6973 52.6775 90.8278 52.5083C90.8594 51.8985 90.6341 48.0387 90.4799 45.6505L90.0728 39.3867L91.0966 45.5796C91.4998 48.023 92.1757 51.9693 92.322 52.4847C92.4722 52.6578 92.5473 52.8742 92.5473 53.126C92.5473 53.3936 92.4485 53.6257 92.2627 53.8028C92.0809 53.9759 91.8516 54.0625 91.5788 54.0625ZM91.4168 51.1116C91.48 52.7208 91.4168 52.7877 91.3417 52.8624C91.3021 52.9018 91.2507 52.9726 91.2507 53.1182C91.2507 53.2637 91.2982 53.3267 91.3298 53.3621C91.3654 53.3975 91.4286 53.4447 91.5749 53.4447C91.7093 53.4526 91.7923 53.3936 91.8318 53.3542C91.8951 53.2952 91.9227 53.2205 91.9227 53.1221C91.9227 52.9805 91.8753 52.9096 91.8318 52.8664C91.7804 52.8152 91.7211 52.7523 91.4168 51.1116Z" fill="currentColor"/>
<path d="M80.1308 77.8333L75.9209 76.9441C75.8814 76.9362 75.8379 76.9205 75.7944 76.8968C75.1896 76.6136 74.4188 75.5945 73.9049 74.4102C73.4227 73.4502 73.0827 72.3918 72.9364 71.3846C72.636 66.3327 76.2253 61.3319 81.3602 59.5024C81.044 59.2033 80.7514 58.7469 81.0123 57.9758C81.2416 57.2872 81.8622 57.0236 82.4117 56.7915C82.5026 56.7521 82.5896 56.7167 82.6726 56.6774C81.0598 56.3941 79.4549 56.4688 77.7709 56.5515C75.9486 56.638 74.063 56.7285 72.1617 56.3233C71.7308 56.2879 71.296 56.2446 70.8572 56.2052C70.1536 56.1384 69.4302 56.0675 68.6791 56.0242C66.4022 55.9101 64.8368 55.8197 63.7577 55.741C63.4612 55.7213 63.2082 55.6977 62.9868 55.678C62.9355 55.7764 62.8445 55.8433 62.7339 55.8629C62.5323 55.9023 62.382 55.7606 62.2397 55.6269C62.2279 55.6151 62.2081 55.5993 62.1923 55.5796C61.6468 55.4892 61.631 55.3908 61.6112 55.2295L61.5796 54.9777L61.7931 54.899C62.0302 54.7573 62.2635 54.8557 62.4453 54.9855C62.469 54.9855 62.4967 54.9934 62.5243 54.9973C62.5362 54.8911 62.5402 54.7652 62.5362 54.6118V54.297L67.3588 54.3127V54.6196C67.3588 54.6905 67.3588 54.8085 67.3311 54.9265C67.509 54.9462 67.7462 54.9659 68.0664 54.9934C68.3787 55.0209 68.7384 55.0524 69.1258 55.08C69.7938 55.1351 70.5528 55.1941 71.3118 55.2728C73.2131 55.4144 75.1343 55.4419 76.9882 55.4655C79.4193 55.497 81.9294 55.5285 84.3684 55.8354C85.7757 55.9377 85.8705 55.977 85.9417 56.217L86.001 56.4216L85.8191 56.5593C85.4278 56.8426 85.0483 57.1062 84.7044 57.2558C84.2142 57.4289 83.5936 57.7358 82.9967 58.0348C82.8307 58.1174 82.803 58.1686 82.803 58.1686C82.8188 58.2118 82.977 58.3732 83.0718 58.4676C83.728 58.9869 84.5028 58.8296 85.3211 58.6604C86.1789 58.4833 87.0643 58.3023 87.8589 58.9279L88.1949 59.1915L87.8391 59.4276C87.3687 59.7384 86.7639 59.9509 85.9891 60.0807H85.9456C80.7435 60.2184 74.8022 63.9051 73.8614 69.8423C73.7112 71.2075 73.8812 72.6358 74.3477 73.8476C74.3872 73.946 74.4267 74.0443 74.4662 74.1427C74.5216 74.2529 74.5769 74.3591 74.6362 74.4653C75.1817 75.4411 75.83 76.1926 76.0435 76.3263C76.0593 76.3342 76.0751 76.3421 76.0909 76.346L80.1308 77.8254V77.8333ZM84.0285 56.4177L83.6924 56.7521C83.4039 57.0394 83.0204 57.2046 82.6528 57.362C82.1627 57.5705 81.7397 57.7515 81.5974 58.1764C81.3958 58.7784 81.6764 58.9948 82.0322 59.2624C82.0875 59.3056 82.1389 59.345 82.1903 59.3843L82.637 59.7502L82.0875 59.9194C79.6486 60.667 77.5416 62.1582 76.0316 64.0428C78.5773 61.2178 82.4038 59.5771 85.9101 59.4788C86.333 59.4079 86.6967 59.3096 87.005 59.1797C86.5425 59.0499 86.0247 59.1561 85.4476 59.2742C84.5661 59.4551 83.5699 59.6597 82.6607 58.9358C82.3998 58.68 82.135 58.4164 82.1943 58.0702C82.2298 57.8381 82.4038 57.6492 82.7161 57.4958C83.3367 57.1849 83.9731 56.8702 84.4791 56.6931C84.5819 56.6459 84.7005 56.5829 84.8349 56.4964C84.6925 56.4846 84.5186 56.4688 84.3052 56.4531C84.2142 56.4413 84.1194 56.4295 84.0285 56.4177ZM63.1371 55.0682C63.3308 55.0878 63.5482 55.1036 63.7972 55.1232C64.4653 55.1705 65.3151 55.2255 66.4062 55.2846C66.4062 55.2806 66.4022 55.2767 66.3982 55.2688L66.3152 55.1272L66.3864 54.9698C66.3864 54.9698 66.4022 54.9423 66.4062 54.9265L63.1489 54.9147C63.1489 54.9659 63.141 55.017 63.1371 55.0642V55.0682ZM63.3821 53.8996H63.3742C63.0975 53.8996 62.8683 53.8091 62.6943 53.6321L62.5481 53.4865L62.6271 53.2976C62.6877 53.1507 63.6733 53.0655 65.5839 53.0419C67.2086 53.0222 69.4104 53.0065 71.7466 52.9868C76.6443 52.9475 83.226 52.8924 84.4751 52.8098C84.5147 52.6524 84.5937 52.5107 84.7123 52.3927C84.8902 52.2117 85.1155 52.1173 85.3922 52.1212C85.665 52.1212 85.9061 52.2196 86.084 52.4006C86.2658 52.5815 86.3567 52.8176 86.3567 53.093C86.3567 53.3396 84.8599 53.4826 81.8662 53.5219C79.3916 53.5534 76.1581 53.5809 73.1143 53.6045C68.94 53.636 64.6273 53.6714 63.983 53.7147C63.817 53.8406 63.6154 53.9035 63.3821 53.9035V53.8996ZM85.3883 52.7389C85.2894 52.7389 85.2143 52.7665 85.155 52.8255C85.1511 52.8294 85.1471 52.8373 85.1392 52.8412C85.3369 52.8334 85.5029 52.8294 85.6334 52.8216C85.5938 52.7822 85.5227 52.7389 85.3883 52.735V52.7389Z" fill="currentColor"/>
<path d="M75.3043 61.2189C74.8378 61.2189 74.3002 61.0497 73.905 60.3927L73.8773 60.3297C73.3753 58.8307 74.32 58.0084 75.1541 57.2805C75.3359 57.1192 75.5217 56.9578 75.6956 56.7887C74.49 56.7139 73.225 56.7572 71.9957 56.8005C70.2287 56.8595 68.3985 56.9224 66.6552 56.6549L64.6194 56.6431C63.9395 56.6431 63.2754 56.6352 62.6311 56.6313H62.5481L62.4769 56.588C59.1327 54.6365 55.4644 53.7669 51.8751 54.062L48.0645 54.3768L51.7763 53.4522C52.132 53.3656 52.3732 53.1453 52.6262 52.9092C52.7448 52.803 52.8634 52.6928 52.9978 52.5905L52.8199 52.5158H53.1084C53.5788 52.2049 54.2232 52.0476 55.3814 52.5394L56.7689 53.1296H56.2985C56.6977 53.2279 57.1049 53.3145 57.5239 53.405C58.7809 53.6765 60.0854 53.9597 61.295 54.5735C62.4097 55.0339 63.3308 55.1598 64.3704 55.203C65.6828 55.2581 67.0861 55.3171 68.4854 55.3722L68.5447 55.3801C70.2326 55.7854 71.8573 55.6988 73.4306 55.6122C75.0908 55.5257 76.8064 55.4312 78.5932 55.9152L79.8581 56.2575L78.5694 56.5132C77.5456 56.7178 76.1858 57.5205 75.8656 58.3507C75.7589 58.63 75.7905 58.8818 75.9644 59.114C76.1305 59.3894 76.253 59.413 76.2965 59.4208C76.5613 59.4759 77.0001 59.169 77.4191 58.87C78.0951 58.39 78.9371 57.788 79.7988 58.2287L80.1309 58.3979L79.8976 58.693C79.4984 59.1966 78.9885 59.6569 78.3323 60.0976L78.2532 60.1369C77.9805 60.2235 77.6524 60.3848 77.3005 60.554C76.9211 60.7389 76.5258 60.9317 76.1542 61.0497C75.9842 61.1048 75.664 61.2111 75.2964 61.2111L75.3043 61.2189ZM74.4544 60.1054C74.7746 60.613 75.2173 60.7192 75.9684 60.4753C76.3004 60.3691 76.672 60.1841 77.0357 60.011C77.3875 59.8379 77.7235 59.6766 78.0279 59.5743C78.439 59.2949 78.7829 59.0117 79.0754 58.7126C78.6643 58.7598 78.2176 59.0746 77.7828 59.3854C77.2294 59.7789 76.7115 60.1527 76.1739 60.0386C75.8893 59.9795 75.6482 59.7868 75.4545 59.4681C75.1699 59.0903 75.1067 58.6221 75.2885 58.1421C75.3241 58.0516 75.3675 57.9611 75.4189 57.8706C74.6046 58.5907 74.1421 59.1258 74.4544 60.1015V60.1054ZM75.6245 56.167C75.8735 56.1827 76.1226 56.1985 76.3716 56.226L76.9171 56.2811L76.5969 56.706C76.8341 56.5526 77.0831 56.4109 77.3401 56.2929C76.7669 56.2064 76.1977 56.1709 75.6245 56.167ZM62.7181 56.0136C63.3347 56.0175 63.9751 56.0214 64.6234 56.0254L66.7303 56.0411C67.7502 56.2024 68.8175 56.2418 69.8769 56.2378C69.4025 56.1906 68.9203 56.1119 68.4301 55.9978C67.0387 55.9427 65.6472 55.8877 64.3427 55.8286C63.2399 55.7814 62.2516 55.6476 61.0341 55.1401C60.7218 54.9827 60.4016 54.845 60.0775 54.727C60.9748 55.085 61.8563 55.5139 62.7181 56.0096V56.0136ZM53.2547 53.3892C53.9425 53.3892 54.6303 53.4286 55.3142 53.5112C54.9386 53.3971 54.5671 53.2673 54.2074 53.1138L53.7172 52.9053C53.4602 52.9919 53.2666 53.1689 53.0452 53.3735L53.0215 53.3932C53.1005 53.3932 53.1756 53.3932 53.2547 53.3932V53.3892ZM61.1211 53.6135L61.0697 53.5938C60.8562 53.5191 60.6388 53.4443 60.4214 53.3774C60.117 53.3224 59.8087 53.2555 59.4727 53.1689C59.2632 53.0942 59.0537 53.0233 58.8521 52.9643C57.7453 52.7164 56.6147 52.5394 55.5395 52.3859C55.1323 52.3348 54.7133 52.2797 54.2785 52.2089L54.3734 51.599L54.8873 51.6699C55.1284 51.7053 55.3735 51.7367 55.6225 51.7722C55.7411 51.7879 55.8636 51.8036 55.9822 51.8154C56.9981 51.9413 57.9706 52.0594 59.0141 52.3663C59.5399 52.4843 60.0617 52.6181 60.5716 52.7755C60.7653 52.8109 60.959 52.8423 61.1567 52.8738C61.3543 52.9053 61.552 52.9407 61.7615 52.9761C62.9315 52.9643 64.2321 52.9564 65.5761 52.9446C69.9797 52.9092 75.747 52.862 77.763 52.7912C76.2016 51.6462 71.7624 48.5931 68.6712 46.4881L59.1169 39.9883L69.0072 45.9687C72.8495 48.2901 78.6564 51.78 79.2691 52.079C79.5182 52.0948 79.7316 52.1853 79.8976 52.3545C80.0755 52.5354 80.1704 52.7755 80.1664 53.0469C80.1664 53.2935 78.6722 53.4365 75.6838 53.4758C73.2132 53.5073 69.9836 53.5348 66.9438 53.5584L64.742 53.5742C63.4415 53.586 62.2279 53.5938 61.1843 53.6056H61.129L61.1211 53.6135ZM77.0317 51.5125C78.0951 52.2718 78.5418 52.6259 78.7276 52.8109C79.0201 52.803 79.2612 52.7951 79.4391 52.7873C79.3956 52.7479 79.3284 52.7046 79.194 52.7007C79.1308 52.7007 79.0517 52.7007 77.0317 51.5125Z" fill="currentColor"/>
<path d="M70.9481 62.2733C69.3235 62.2733 67.9557 61.5257 66.6236 60.7978C66.3192 60.6326 66.0148 60.4673 65.7065 60.3099C64.9041 59.8968 64.2597 59.6371 63.6154 59.4601L63.5245 59.4365L63.4612 59.3657C58.271 53.5072 49.4124 54.719 43.3446 58.9447C42.3366 59.6607 41.1349 59.8614 39.9688 59.5073C38.6248 59.102 37.4982 58.0004 36.9566 56.5643C36.4111 55.3131 36.0593 54.5931 36.0554 54.5892L35.0474 52.5353L36.5693 54.2508C36.5693 54.2508 36.9369 54.6678 37.3915 55.3249C38.0872 56.5485 39.198 57.1269 40.3048 56.8515L41.4907 56.5053C48.776 54.3688 56.3064 52.1576 62.7616 57.3158C63.6866 58.0318 64.3072 58.1735 64.9634 58.323L65.0266 58.3387L65.078 58.3781C67.4498 60.1604 69.8927 61.2031 72.3396 61.4746L73.9563 61.6516L72.387 62.0765C71.881 62.2142 71.4027 62.2733 70.9402 62.2733H70.9481ZM63.8684 58.8896C64.5285 59.0784 65.1847 59.3499 65.9911 59.763C65.999 59.763 66.0069 59.7709 66.0148 59.7748C65.5958 59.5073 65.1768 59.2201 64.7657 58.9132C64.3783 58.8227 63.9791 58.7283 63.5166 58.5119C63.6391 58.6338 63.7577 58.7637 63.8723 58.8935L63.8684 58.8896ZM37.684 56.6941C38.2018 57.7879 39.0991 58.6024 40.1506 58.9211C41.131 59.2161 42.139 59.047 42.9889 58.445C45.9892 56.3518 49.6575 54.9787 53.2626 54.778C49.4757 54.8055 45.5346 55.9623 41.6646 57.0994L40.4669 57.4495C39.4628 57.7013 38.4706 57.4141 37.6879 56.6981L37.684 56.6941ZM61.5124 53.5347H61.4927C60.6981 53.4285 59.8285 53.2986 58.7533 52.9917C58.6702 52.9681 58.5872 52.9485 58.5042 52.9248C55.8874 52.5078 53.3535 52.1655 50.8869 52.4212C50.4204 52.496 49.95 52.5944 49.4836 52.7203C48.8195 52.8855 48.4084 53.0114 48.2661 53.0586C47.8984 53.4442 47.2264 53.4442 46.8944 53.4442H45.412L46.7679 52.854C48.0368 52.3032 49.3334 51.9884 50.6378 51.835C53.5986 51.3353 56.5198 51.7799 58.6307 52.3189C58.9035 52.3622 59.1802 52.4055 59.4529 52.4527C60.4254 52.6101 61.4294 52.7714 62.4137 52.9012L64.4337 52.8855C66.5604 52.8658 71.9522 52.8186 73.0788 52.7439C73.1223 52.5865 73.1974 52.4448 73.316 52.3268C73.4938 52.1458 73.731 52.0553 73.9959 52.0553C74.2686 52.0553 74.5098 52.1537 74.6876 52.3347C74.8695 52.5157 74.9604 52.7478 74.9604 53.0272C74.9604 53.2737 73.4662 53.4167 70.4777 53.456C68.0071 53.4875 64.7776 53.515 61.7338 53.5386H61.5164L61.5124 53.5347ZM73.988 52.6691C73.8891 52.6691 73.818 52.6966 73.7547 52.7557C73.7508 52.7596 73.7468 52.7675 73.7389 52.7714C73.9366 52.7635 74.1026 52.7596 74.233 52.7517C74.1935 52.7124 74.1224 52.6652 73.988 52.6652V52.6691Z" fill="currentColor"/>
<path d="M78.5099 14.7775L78.0514 14.5296C76.2133 13.5303 74.7586 12.4758 73.9363 11.5512C72.7544 11.2365 71.8334 10.961 71.2879 10.5597C70.7068 10.4889 70.3668 10.3236 70.2443 10.0128C70.0624 9.54068 70.4538 8.98198 71.5843 8.0731L76.154 4.42188L71.9954 8.53344C71.6515 8.87181 71.2602 9.34789 71.3511 9.69019C71.3788 9.78855 71.442 9.87905 71.533 9.9656C71.9322 9.98921 72.533 9.98921 73.4304 9.942L73.881 9.91839L73.7427 10.3473C73.6715 10.5637 73.9008 10.784 74.2565 11.0004L74.2842 11.0161C74.5688 11.1853 74.9246 11.3545 75.2804 11.5197C75.4306 11.5906 75.5847 11.6614 75.7389 11.7361C76.4228 12.1217 76.9248 12.4562 77.1699 12.6175C77.2331 12.6607 77.2766 12.6883 77.2964 12.7001C78.0395 13.0699 78.502 13.4595 78.502 14.2582V14.7775H78.5099ZM72.8256 10.5873C72.9283 10.6227 73.0351 10.6541 73.1418 10.6856C73.1299 10.6502 73.122 10.6109 73.1181 10.5755C73.0193 10.5794 72.9204 10.5833 72.8256 10.5873Z" fill="currentColor"/>
<path d="M80.5182 44.2567L79.5181 39.9917C79.5023 39.9288 78.0436 33.7083 77.1463 30.663C76.8854 29.7817 76.7431 29.4 76.668 29.2348L76.6166 29.2466L76.5099 29.0223C75.7707 27.4446 76.0672 26.0636 76.3478 24.7258C76.4269 24.3599 76.5059 23.9861 76.5613 23.6045C73.6835 27.3029 70.363 31.2374 65.3191 32.5398L63.7141 33.7555C60.2988 36.3405 58.5002 37.6743 57.5278 38.3432C57.5515 38.4533 57.5278 38.5635 57.4566 38.6461C57.3222 38.8074 57.1206 38.7956 56.9269 38.7838C56.9072 38.7838 56.8834 38.7838 56.8558 38.7838C56.4209 39.0396 56.3419 38.9884 56.2391 38.9215L56.0573 38.8035L56.1008 38.5753C56.1838 38.2605 56.4565 38.1819 56.6976 38.1661C56.7135 38.1543 56.7293 38.1464 56.7451 38.1346C56.6858 38.0441 56.6028 37.9419 56.5 37.8199L56.2944 37.5838L60.0023 34.507L60.2 34.7392C60.2474 34.7942 60.3225 34.8847 60.3739 34.9949C60.5241 34.8965 60.7178 34.7588 60.9787 34.5778C61.623 34.1214 62.5559 33.4329 63.8367 32.4689L63.9158 32.4257C64.2913 32.288 64.6629 32.1424 65.0344 31.9889L65.0661 31.9771C70.114 29.8407 74.3278 25.9298 77.3044 20.5985L77.6681 19.9493L77.8737 20.6654C78.1583 21.6569 77.9646 22.6169 77.7788 23.5455C77.5653 24.596 77.3795 25.5206 77.8776 26.3744C78.3717 25.615 78.7552 24.8557 78.514 23.9114L78.4192 23.5297H78.8145C79.0793 23.5297 79.2295 23.6635 79.3283 23.754C79.4034 23.8209 79.4311 23.8445 79.5141 23.8445H79.8541L79.8185 24.1868C79.7157 25.1822 79.4825 26.154 79.1505 27.0039C79.1386 27.1337 79.1386 27.7397 79.3442 30.5253C79.6248 34.3339 80.1189 39.854 80.1229 39.9091L80.5103 44.2725L80.5182 44.2567ZM57.172 37.6586C57.2036 37.7018 57.2353 37.7412 57.2629 37.7845C57.9389 37.3123 58.8994 36.6041 59.9035 35.8566C59.8995 35.8566 59.8916 35.8566 59.8877 35.8526L59.7335 35.7975L59.6861 35.6323C59.6861 35.6323 59.6782 35.6008 59.6742 35.5851L57.172 37.6625V37.6586ZM77.0277 28.6603C77.2135 28.8335 77.3953 29.3213 77.7393 30.4899C78.1583 31.9102 78.6959 34.0113 79.1584 35.8644C79.0161 34.1608 78.854 32.1975 78.7314 30.5528C78.4785 27.1259 78.5298 26.9331 78.5575 26.8269L78.5694 26.7914C78.688 26.4964 78.7907 26.1855 78.8777 25.8629C78.6761 26.2878 78.4113 26.6852 78.1464 27.0787L77.9171 27.421L77.6523 27.1023C77.0514 26.3862 76.9131 25.6308 76.9526 24.8714C76.6878 26.1265 76.4387 27.3147 77.0277 28.6564V28.6603ZM77.2689 21.8851V22.5894C77.2689 22.7232 77.2649 22.8569 77.257 22.9907C77.34 22.554 77.4072 22.1094 77.3993 21.6687C77.3558 21.7395 77.3123 21.8143 77.2689 21.8851ZM56.0731 36.9661C56.0454 36.9661 56.0177 36.9661 55.9901 36.9661L55.7845 36.9464L55.7213 36.7497C55.6712 36.5949 56.5461 35.7503 58.346 34.2159C58.7018 33.909 59.1248 33.5549 59.5912 33.1654C59.86 32.9372 60.1486 32.6932 60.4609 32.4257L60.5123 32.3903C60.5439 32.3745 60.5755 32.3548 60.6071 32.3391C60.7652 32.2132 60.9273 32.0834 61.0933 31.9535L61.1882 31.9024C61.3621 31.8434 61.5361 31.7843 61.7061 31.7253C61.9749 31.5837 62.2634 31.442 62.5836 31.3004L62.6192 31.2886C63.0224 31.1706 63.4216 31.0407 63.8169 30.8951C68.6395 28.7744 72.1853 25.5796 73.5293 22.0464C74.1025 20.5395 74.3634 18.8083 74.3278 16.7624C74.2251 16.6561 74.1144 16.487 74.1934 16.2902C74.312 15.9991 74.6876 16.0305 74.8299 16.0423L75.1026 16.066L75.1145 16.3374C75.1935 18.3086 74.9603 20.1146 74.4188 21.7041C72.9838 25.9298 68.9834 29.6597 64.0422 31.4696C63.3702 31.7647 62.6706 32.0401 61.9511 32.2919C61.7021 32.4217 61.4689 32.5555 61.2396 32.6853C61.1408 32.7404 61.0459 32.7955 60.9471 32.8506C60.6111 33.1181 60.2948 33.3818 59.9944 33.6257C58.8639 34.5896 57.3262 35.9038 57.0178 36.1989C56.9704 36.4035 56.8558 36.5844 56.6739 36.734C56.4842 36.8913 56.2786 36.97 56.0652 36.97L56.0731 36.9661Z" fill="currentColor"/>
<path d="M52.3925 43.499C52.3332 43.499 52.2937 43.4754 52.2502 43.4479L52.0605 43.3299L52.1079 43.0938C52.2028 42.7239 52.1909 42.5193 52.1633 42.4092C52.1356 42.299 52.0368 42.0905 51.7403 41.7482L51.5347 41.5121L52.8274 40.4222L53.029 40.6583C53.0724 40.7095 53.1515 40.8 53.1989 40.9062C54.5943 39.954 58.6936 36.8025 62.0773 34.1978L63.2157 33.3205C63.7415 32.9624 64.2237 32.6201 64.6981 32.2857L65.042 32.0496C68.5878 30.4404 71.4814 28.5321 73.6437 26.38L75.4264 24.6055L74.1299 26.7537C73.782 27.3321 73.4697 27.9223 73.1733 28.4889C72.6831 29.4174 72.1771 30.3814 71.5012 31.2981C71.4656 31.3768 71.4537 31.4279 71.4498 31.4594C71.4656 31.4594 71.4893 31.4673 71.5209 31.4673C71.8095 31.4752 72.0822 31.3729 72.355 31.1447C72.5131 31.0148 72.8531 30.704 73.3353 30.1138C73.5211 29.9171 73.6397 29.6653 73.7701 29.3938C74.0389 28.8233 74.3789 28.1112 75.3434 28.0089L75.8573 27.9538L75.6636 28.4299C75.3711 29.1577 74.9916 29.8423 74.6596 30.4443C74.5607 30.6214 74.4698 30.7906 74.3868 30.944C74.2208 31.5539 73.9006 32.0575 73.4381 32.4391C73.0191 32.7854 72.5684 33.0136 72.098 33.1159C71.6237 33.2221 71.1533 33.1906 70.7066 33.0293C70.2639 32.868 69.8686 32.5847 69.5326 32.1834L69.3903 32.0103L69.5089 31.8214C69.7698 31.4083 70.1097 31.0188 70.4378 30.641C70.5524 30.5073 70.6631 30.3774 70.7738 30.2476C70.256 30.5781 69.7144 30.8299 69.1531 31.0935C68.6748 31.3178 68.1807 31.5499 67.6747 31.8411C66.8406 32.2503 66.1726 32.5926 65.5559 32.9624C64.1842 34.0837 62.5912 35.3979 61.0021 36.712C53.8196 42.6452 52.7483 43.4833 52.3925 43.4833V43.499ZM52.4044 41.5908C52.5941 41.8426 52.7127 42.0629 52.7641 42.2597C52.7918 42.358 52.8036 42.4682 52.8036 42.5862C54.0725 41.6537 57.5116 38.8091 60.6068 36.2517C61.4527 35.5513 62.2987 34.851 63.113 34.1821L62.4568 34.6857C53.0804 41.8977 53.0013 41.8701 52.7127 41.7718L52.5546 41.7167L52.5072 41.5475C52.5072 41.5475 52.4993 41.52 52.4993 41.5082L52.4044 41.5869V41.5908ZM70.1571 31.9709C70.3825 32.1991 70.6355 32.3604 70.9082 32.4627C71.2482 32.5847 71.5921 32.6044 71.9557 32.5257C72.3273 32.4431 72.687 32.2581 73.0309 31.9748C73.4065 31.664 73.6555 31.2666 73.786 30.763L73.8136 30.6961C73.9045 30.5269 74.0034 30.346 74.1101 30.1571C74.3196 29.7794 74.5449 29.3702 74.7544 28.9413C74.5924 29.1184 74.4698 29.3623 74.3236 29.6653C74.1813 29.9682 74.031 30.2791 73.7939 30.5269C73.4262 30.9794 73.0468 31.3768 72.7424 31.6286C72.351 31.9512 71.9202 32.1086 71.4893 32.0929C71.1414 32.0811 70.9754 31.9276 70.9003 31.8057C70.7778 31.605 70.7896 31.3414 70.9398 31.0227L70.9517 30.9952C70.9319 31.0188 70.9122 31.0384 70.8924 31.062C70.6236 31.3729 70.3667 31.668 70.1492 31.9748L70.1571 31.9709ZM72.438 28.2961L72.3155 28.784C72.4182 28.5951 72.5171 28.4023 72.6198 28.2095L72.6791 28.0993C72.6001 28.1662 72.521 28.2331 72.438 28.3V28.2961ZM51.3094 40.9023C51.2818 40.9023 51.2541 40.9023 51.2264 40.9023L51.0209 40.8826L50.9576 40.6859C50.9102 40.5337 51.6125 39.836 53.0645 38.5927C54.2979 37.5382 55.9779 36.11 57.7607 34.5992L60.9033 31.9394C61.682 31.5184 62.4133 31.1407 63.4648 30.8299C63.4925 30.822 63.5201 30.8102 63.5478 30.8024C63.8166 30.6804 64.0854 30.5584 64.3542 30.4365C65.7812 29.7912 67.232 29.1341 68.5167 28.3512C69.5761 27.6154 70.5287 26.7774 71.347 25.8645C70.1058 26.5531 68.8329 27.159 67.5442 27.6666C65.5085 28.3236 63.4727 28.7485 61.9231 29.0436L61.8757 29.0515H61.8283C60.8321 28.9335 59.8439 28.8076 58.8398 28.6777C57.9109 28.5597 56.974 28.4377 56.0095 28.3236L44.6685 27.0134L56.0648 27.7098C58.1046 27.8357 60.0692 28.0639 61.9706 28.2882L62.1366 28.3079C63.9668 27.8554 65.8603 27.3872 67.6944 26.6947C69.5207 25.715 71.1098 24.5622 72.4182 23.2638C72.5605 22.9805 72.7147 22.8035 72.8926 22.7091L73.45 22.4258L73.3393 23.0356C73.2721 23.4094 73.1812 23.7675 73.0665 24.1058L73.7464 23.6809L72.8728 24.9242C72.7108 25.1524 72.5447 25.3767 72.3708 25.597C71.5249 26.978 70.252 28.0207 68.7934 28.902C67.3031 29.9289 65.6073 30.7669 63.7731 31.3729C62.6347 31.8922 61.5634 32.4116 60.6028 33.0057L59.0493 34.3237C55.9383 36.9638 52.7246 39.6904 52.2621 40.1311C52.2147 40.3357 52.1 40.5167 51.9182 40.6662C51.7284 40.8236 51.5229 40.9023 51.3094 40.9023ZM72.3985 24.1373C71.9123 24.5858 71.3905 25.0186 70.841 25.4317C71.2877 25.1878 71.7344 24.9321 72.1732 24.6645C72.2562 24.4953 72.3313 24.3183 72.3985 24.1412V24.1373Z" fill="currentColor"/>
<path d="M34.5332 55.5335L36.1381 54.2154C36.1381 54.2154 36.6362 53.8062 37.3003 53.2711C37.6916 52.9564 38.1897 52.5393 38.7668 52.0554C39.1661 51.7209 39.6049 51.355 40.0713 50.9694C40.767 50.3911 41.4272 49.8481 42.0082 49.3681L44.3603 47.4362L72.1733 33.2956L68.924 35.9711L48.6927 47.6644C48.0563 48.0303 47.3487 48.4317 46.5067 48.8684C45.5066 49.4822 44.5342 50.0763 43.5776 50.6665C41.8106 51.7524 40.1425 52.7793 38.2806 53.9006C37.1935 54.4318 36.4899 54.723 36.4583 54.7348L34.5372 55.5295L34.5332 55.5335ZM44.6725 47.9753L42.4075 49.8481C41.8264 50.3281 41.1663 50.8711 40.4705 51.4494C40.0041 51.835 39.5693 52.2009 39.17 52.5354C39 52.677 38.838 52.8147 38.6838 52.9446C40.2492 51.9963 41.7157 51.0953 43.2534 50.1511C44.21 49.5648 45.1825 48.9668 46.2023 48.3412C47.0562 47.9005 47.7519 47.5031 48.3844 47.1411L63.4372 38.4419L44.6765 47.9792L44.6725 47.9753ZM47.3052 44.206C47.2775 44.206 47.2499 44.206 47.2222 44.206L47.0167 44.1863L46.9534 43.9896C46.906 43.8375 47.6083 43.1397 49.0603 41.8964C50.2937 40.842 51.9776 39.4138 53.7564 37.899C55.2862 36.6006 56.8911 35.2392 58.3458 33.9959C59.3222 33.1658 60.2314 32.3867 61.0062 31.7179L61.0694 31.6628L61.1564 31.647C61.3145 31.6195 61.4687 31.588 61.6228 31.5487C62.026 31.3559 62.4292 31.1749 62.9194 31.0175L63.0024 31.0018C63.0696 31.0018 63.1368 30.9939 63.2001 30.986C63.7219 30.7539 64.2476 30.4824 64.7813 30.207C65.5086 29.8332 66.2557 29.4516 67.0265 29.1486C67.4139 28.9716 67.8132 28.8339 68.2282 28.763L75.8851 27.4922L68.3547 29.365C67.9831 29.4555 67.6155 29.5814 67.2558 29.7231C66.8249 29.9237 66.402 30.1795 65.9632 30.4431C65.141 30.9388 64.299 31.4464 63.37 31.5841C62.868 31.8044 62.362 31.9933 61.8442 32.127C61.781 32.1585 61.7177 32.19 61.6545 32.2175C61.4726 32.3041 61.2868 32.3946 61.0931 32.4812C59.338 33.9802 57.2113 35.7861 55.1914 37.5016C52.0132 40.2007 48.7283 42.9863 48.2618 43.4309C48.2144 43.6355 48.0998 43.8165 47.9179 43.966C47.7282 44.1234 47.5226 44.2021 47.3092 44.2021L47.3052 44.206Z" fill="currentColor"/>
</svg>
