<svg width="106" height="63" viewBox="0 0 106 63" fill="none" xmlns="http://www.w3.org/2000/svg">
<path fill-rule="evenodd" clip-rule="evenodd" d="M31.5211 14.7621C29.5733 14.7621 27.7614 15.3607 26.0468 16.6005L25.7762 16.7962C24.4963 17.7855 23.5181 18.9772 22.8309 20.3857L24.8219 21.1185C25.4133 20.0223 26.2181 19.0917 27.2313 18.3367C28.5303 17.3688 29.9629 16.8544 31.514 16.8544C33.4363 16.8544 35.1002 17.3944 36.4109 18.5725C37.7296 19.7579 38.3832 21.3069 38.3832 23.1385C38.3832 24.4584 38.0441 25.6839 37.3583 26.78C36.6736 27.8814 35.4285 29.0461 33.7524 30.2784C32.2376 31.4191 31.2099 32.6307 30.6148 33.8968L30.6138 33.8988C30.116 34.9523 29.813 36.284 29.738 37.925L31.8259 37.9037C31.875 36.6794 32.0579 35.6421 32.4256 34.8513C32.9029 33.8249 33.8289 32.8883 35.033 32.0157C37.0526 30.4692 38.4362 28.9735 39.2494 27.5433C40.0767 26.0882 40.477 24.6268 40.477 23.1458C40.477 21.4475 40.0944 19.9888 39.3633 18.7377C38.6307 17.4838 37.6083 16.5141 36.2644 15.8187C34.9241 15.1287 33.347 14.7621 31.5211 14.7621ZM26.4947 13.8003C28.0717 13.0022 29.7485 12.5977 31.5211 12.5977C33.6385 12.5977 35.5602 13.0245 37.2456 13.8925L37.2473 13.8934C38.9434 14.7709 40.2726 16.0232 41.2177 17.6407C42.1645 19.261 42.6281 21.1067 42.6281 23.1458C42.6281 25.0412 42.1106 26.8698 41.1166 28.6181C40.1099 30.3886 38.4856 32.0935 36.3237 33.7473L36.3123 33.7561L36.3005 33.7646C35.216 34.5489 34.6265 35.2256 34.374 35.7686C34.1151 36.3254 33.9382 37.3411 33.9661 38.9563L33.9849 40.0462L27.5841 40.1115L27.5703 39.0323C27.5403 36.6773 27.8828 34.6382 28.6708 32.9702C29.4519 31.3089 30.7456 29.8381 32.4688 28.5415L32.4737 28.5379L32.4786 28.5343C34.0975 27.3444 35.073 26.3753 35.5351 25.6313L35.5371 25.628C35.9979 24.8921 36.2321 24.0691 36.2321 23.1385C36.2321 21.8822 35.8101 20.9349 34.9778 20.1867C34.1373 19.4312 33.0191 19.0189 31.514 19.0189C30.4693 19.0189 29.4783 19.3558 28.5115 20.0762C27.5411 20.7992 26.8323 21.7257 26.3747 22.8767L25.987 23.852L20.0132 21.6534L20.3878 20.6346C21.2594 18.2644 22.7344 16.331 24.7893 14.8372L26.4947 13.5975V13.8003ZM30.8113 44.1482C30.2861 44.1482 29.9431 44.3015 29.6817 44.5568C29.4165 44.8158 29.2768 45.1064 29.2768 45.6056C29.2768 46.1243 29.4299 46.4657 29.6932 46.7306L29.7724 46.8103C30.0245 47.0233 30.3634 47.1495 30.8041 47.1495C31.2782 47.1495 31.5934 47.0044 31.8464 46.7421C32.1001 46.4791 32.2525 46.134 32.2525 45.6056C32.2525 45.0572 32.103 44.7418 31.8864 44.5238C31.6645 44.3006 31.3475 44.1482 30.8113 44.1482ZM27.2004 46.4136C27.1503 46.1536 27.1257 45.8837 27.1257 45.6056C27.1257 44.5607 27.4736 43.697 28.1835 43.0036C28.8973 42.3065 29.802 41.9837 30.8113 41.9837C31.8095 41.9837 32.7114 42.293 33.4074 42.9933C34.1086 43.6988 34.4036 44.6099 34.4036 45.6056C34.4036 46.6211 34.0828 47.5314 33.39 48.2496C32.6966 48.9685 31.8071 49.314 30.8041 49.314C29.8202 49.314 28.8808 48.9814 28.1649 48.2611L26.3288 46.4136H27.2004Z" fill="currentColor"/>
<path fill-rule="evenodd" clip-rule="evenodd" d="M56.0441 14.7621C54.0963 14.7621 52.2843 15.3607 50.5697 16.6005L50.2991 16.7962C49.0192 17.7855 48.0411 18.9772 47.3539 20.3857L49.3449 21.1185C49.9362 20.0223 50.741 19.0917 51.7543 18.3367C53.0533 17.3688 54.4859 16.8544 56.0369 16.8544C57.9593 16.8544 59.6232 17.3944 60.9338 18.5725C62.2526 19.7579 62.9062 21.3069 62.9062 23.1385C62.9062 24.4584 62.567 25.6839 61.8812 26.78C61.1966 27.8814 59.9514 29.0461 58.2754 30.2784C56.7606 31.4191 55.7328 32.6307 55.1378 33.8968L55.1368 33.8988C54.639 34.9523 54.336 36.284 54.261 37.925L56.3488 37.9037C56.398 36.6794 56.5808 35.6421 56.9485 34.8513C57.4258 33.8249 58.3518 32.8883 59.556 32.0157C61.5756 30.4692 62.9592 28.9735 63.7723 27.5433C64.5996 26.0882 64.9999 24.6268 64.9999 23.1458C64.9999 21.4475 64.6174 19.9888 63.8863 18.7377C63.1537 17.4838 62.1312 16.5141 60.7874 15.8187C59.4471 15.1287 57.87 14.7621 56.0441 14.7621ZM51.0176 13.8003C52.5947 13.0022 54.2714 12.5977 56.0441 12.5977C58.1614 12.5977 60.0831 13.0245 61.7685 13.8925L61.7703 13.8934C63.4663 14.7709 64.7956 16.0232 65.7407 17.6407C66.6875 19.261 67.151 21.1067 67.151 23.1458C67.151 25.0412 66.6335 26.8698 65.6395 28.6181C64.6329 30.3886 63.0085 32.0935 60.8467 33.7473L60.8352 33.7561L60.8235 33.7646C59.7389 34.5489 59.1494 35.2256 58.8969 35.7686C58.638 36.3254 58.4611 37.3411 58.489 38.9563L58.5079 40.0462L52.107 40.1115L52.0933 39.0323C52.0633 36.6773 52.4057 34.6382 53.1937 32.9702C53.9748 31.3089 55.2685 29.8381 56.9918 28.5415L56.9966 28.5379L57.0015 28.5343C58.6205 27.3444 59.5959 26.3753 60.0581 25.6313L60.0601 25.628C60.5208 24.892 60.755 24.0691 60.755 23.1385C60.755 21.8822 60.333 20.9349 59.5007 20.1867C58.6602 19.4312 57.542 19.0189 56.0369 19.0189C54.9923 19.0189 54.0013 19.3558 53.0344 20.0762C52.0641 20.7992 51.3553 21.7257 50.8977 22.8767L50.51 23.852L44.5361 21.6534L44.9108 20.6346C45.7823 18.2644 47.2573 16.331 49.3122 14.8372L51.0176 13.5975V13.8003ZM55.3342 44.1482C54.809 44.1482 54.4661 44.3015 54.2047 44.5568C53.9395 44.8158 53.7997 45.1064 53.7997 45.6056C53.7997 46.1243 53.9528 46.4657 54.2161 46.7306L54.2953 46.8103C54.5475 47.0234 54.8863 47.1495 55.327 47.1495C55.8011 47.1495 56.1163 47.0044 56.3694 46.7421C56.6231 46.4791 56.7755 46.134 56.7755 45.6056C56.7755 45.0572 56.626 44.7418 56.4093 44.5238C56.1875 44.3006 55.8705 44.1482 55.3342 44.1482ZM51.7233 46.4136C51.6732 46.1536 51.6486 45.8837 51.6486 45.6056C51.6486 44.5607 51.9965 43.697 52.7065 43.0036C53.4202 42.3065 54.3249 41.9837 55.3342 41.9837C56.3324 41.9837 57.2344 42.293 57.9304 42.9933C58.6315 43.6988 58.9266 44.6099 58.9266 45.6056C58.9266 46.6211 58.6057 47.5314 57.913 48.2496C57.2195 48.9685 56.3301 49.314 55.327 49.314C54.3431 49.314 53.4037 48.9814 52.6879 48.2611L50.8518 46.4136H51.7233Z" fill="currentColor"/>
<path fill-rule="evenodd" clip-rule="evenodd" d="M72.0366 13.168H79.6426L78.9252 40.0577H72.8554L72.0366 13.168ZM74.2547 15.3324L74.9416 37.8932H76.831L77.433 15.3324H74.2547ZM75.9349 44.1485C75.4097 44.1485 75.0668 44.3019 74.8054 44.5571C74.5402 44.8161 74.4005 45.1068 74.4005 45.6059C74.4005 46.1247 74.5535 46.466 74.8168 46.7309C75.0761 46.9919 75.4417 47.1499 75.9349 47.1499C76.409 47.1499 76.7242 47.0048 76.9772 46.7424C77.2309 46.4794 77.3833 46.1343 77.3833 45.6059C77.3833 45.0663 77.2318 44.7473 77.01 44.5242C76.7882 44.301 76.4712 44.1485 75.9349 44.1485ZM73.3072 43.004C74.021 42.3069 74.9256 41.984 75.9349 41.984C76.9331 41.984 77.8351 42.2933 78.5311 42.9937C79.2271 43.694 79.5345 44.6015 79.5345 45.6059C79.5345 46.6214 79.2136 47.5317 78.5208 48.2499C77.8274 48.9688 76.938 49.3143 75.9349 49.3143C74.951 49.3143 74.0116 48.9817 73.2957 48.2614C72.5839 47.5451 72.2493 46.6311 72.2493 45.6059C72.2493 44.561 72.5972 43.6973 73.3072 43.004Z" fill="currentColor"/>
</svg>
