<svg width="466" height="54" viewBox="0 0 466 54" fill="none" xmlns="http://www.w3.org/2000/svg">
<path d="M420.647 26.6217C418.57 25.9276 417.043 25.1946 415.426 24.5707C413.819 23.9468 412.042 23.4321 409.476 23.1787C407.769 22.8823 405.932 22.6913 404.035 22.6016C398.365 22.3248 392.125 22.9096 387.633 24.0794C392.874 22.9096 398.115 21.6853 402.987 20.2816C404.614 19.8137 406.191 19.3263 407.719 18.8155C408.867 18.3944 409.985 17.9771 411.083 17.5599C417.572 15.1112 425.559 13.1616 432.547 11.212C424.56 13.1616 414.577 13.9415 409.785 16.8893C408.358 17.4975 406.93 18.0902 405.463 18.6595C399.593 20.9405 393.084 22.8706 384.558 24.0014C383.41 24.5356 382.312 25.0542 381.234 25.5611C375.843 28.0878 370.991 30.2557 362.675 31.8817C360.679 30.322 366.668 28.7623 361.677 27.2027L362.675 27.5926C359.68 26.8127 356.685 26.0329 353.411 25.682C351.973 25.4519 350.526 25.253 349.068 25.1049C344.696 24.6682 340.203 24.6682 335.711 25.643C339.455 24.1808 343.757 23.5959 348.01 23.1436C349.428 22.9915 350.835 22.8589 352.223 22.7069C354.339 21.4903 356.915 20.4336 359.68 19.4393C361.058 18.9402 362.486 18.4606 363.923 17.9849C367.657 17.0647 370.652 16.2849 372.359 15.0761C373.687 14.5692 374.954 14.039 376.122 13.4814C378.458 12.3623 380.385 11.1224 381.633 9.66016C380.255 10.245 378.868 10.8494 377.46 11.4616C371.65 13.9493 365.66 16.2888 359.321 18.6907C357.684 19.2366 356.007 19.7552 354.279 20.2387C350.845 21.2057 347.231 22.0323 343.428 22.6484C342.12 22.8316 340.832 23.0422 339.604 23.284C335.901 24.0092 332.616 25.0191 330.19 26.4501C329.222 27.0233 328.393 27.6628 327.724 28.3763C326.227 28.9612 323.731 29.1561 321.355 29.4486C318.979 29.741 316.733 30.1309 315.735 31.1135C316.743 30.3259 316.743 29.5461 317.741 28.7623C318.49 27.9864 318.74 27.2065 316.743 26.4267C307.758 23.6973 294.78 23.6973 286.794 26.8166C289.459 24.2159 295.22 23.3502 301.229 22.317C302.727 22.0596 304.244 21.7906 305.732 21.4786C314.746 17.4586 327.724 15.509 330.719 9.66016C324.73 13.9493 313.748 16.2888 307.519 20.1919C305.372 20.5233 303.436 20.8898 301.639 21.2915C292.654 23.3074 287.053 26.2356 278.348 29.1717C277.5 29.2341 276.631 29.3628 275.763 29.5344C273.596 29.9633 271.61 30.6651 269.543 31.2929C267.826 32.2755 265.829 32.6654 262.834 32.6654C263.833 32.2755 264.831 31.4957 265.889 31.3007C267.676 30.5638 269.593 29.7332 270.601 28.9417C271.61 28.1502 271.699 27.4015 269.833 26.8166C261.846 24.0872 247.87 24.4771 240.882 28.3763C241.88 24.4771 252.861 22.9174 260.868 21.3344C261.806 20.9717 262.854 20.3985 263.913 19.8215C265.869 18.4451 268.106 17.2675 270.711 16.242C272.019 15.7273 273.417 15.2516 274.954 14.8071C279.816 13.9493 283.809 12.3896 285.806 10.44C282.811 11.9997 276.821 13.1694 273.407 14.5887C272.089 15.0294 270.781 15.4778 269.503 15.9418C266.957 16.8737 264.522 17.8797 262.365 19.0689C261.297 19.5446 260.189 19.9891 259.001 20.3985C256.615 21.2174 253.87 21.8841 250.545 22.3209C249.238 22.7576 248.03 23.2411 246.872 23.7558C243.407 25.2998 240.432 27.0935 236.988 28.5401C236.1 28.505 234.742 28.4504 233.265 28.4114C227.744 28.0917 221.864 28.6726 218.01 30.1309C216.723 30.6183 215.664 31.2032 214.916 31.8856C213.917 31.3982 213.728 30.8874 213.937 30.3688C214.546 28.8169 218.659 27.2065 214.916 26.0368C207.928 23.6973 197.944 23.3073 190.956 25.6469C193.951 23.6973 200.939 24.0872 205.372 23.0929C207.119 22.972 208.846 22.8628 210.483 22.7147C211.032 22.6328 211.302 22.6796 212.27 22.2312C216.084 20.2348 219.997 18.1643 224.07 16.1523C225.088 15.6493 226.127 15.1502 227.185 14.6589C230.889 13.5594 232.885 11.2198 238.875 10.44C230.889 10.8299 226.895 13.1694 223.072 14.9943C222.054 15.5479 221.045 16.1172 220.037 16.6865C217.002 18.3866 213.907 20.0554 210.304 21.1433C209.275 21.5059 208.317 21.8179 207.448 21.9777C205.761 21.8997 204.174 21.9114 202.686 21.9972C201.199 22.083 199.781 22.2468 198.454 22.4729C183.978 25.257 180.983 33.4453 165.01 35.0049C173.995 33.4453 181.982 29.5461 175.932 25.5611C174.923 24.9762 173.626 24.5005 172.148 24.1301C166.228 22.6562 157.363 22.9174 152.032 25.2569C155.027 22.9174 162.015 22.5275 166.288 21.0887C167.736 20.7183 169.103 20.3206 170.391 19.8917C176.83 17.7666 181.353 14.8734 181.982 11.2198C177.609 13.9025 173.636 17.1895 167.885 19.568C166.727 20.0437 165.509 20.4882 164.182 20.882C155.027 23.3074 144.046 22.9174 134.003 24.3523C133.114 24.5044 132.246 24.6721 131.407 24.8631C127.075 26.0329 125.078 27.5926 123.081 29.5422H119.088C120.086 29.1523 122.083 28.7623 122.083 28.7623C121.085 26.8127 116.093 26.4228 111.511 26.9024C110.423 26.9648 109.315 27.0428 108.247 27.1013C107.168 27.1598 106.12 27.2027 105.122 27.2027C106.12 25.2531 110.113 24.4732 114.157 23.2684C115.105 22.9876 116.063 22.7069 116.982 22.4144C119.747 21.5332 122.233 20.5272 123.521 19.0962C124.1 18.7804 124.669 18.4684 125.238 18.1565C129.071 15.5051 134.063 13.1655 140.053 11.2159C132.066 11.9958 130.07 15.1151 124.319 17.0608C123.77 17.3533 123.231 17.6496 122.692 17.946C120.596 19.3692 117.591 20.535 114.566 21.6814C113.558 22.0635 112.539 22.4417 111.551 22.8316C108.107 24.867 103.115 26.4267 103.115 28.7662C103.115 27.5965 102.117 26.4267 99.9606 25.2881C98.9922 24.9099 97.8542 24.6019 96.5963 24.3718C92.8227 23.6817 88.0208 23.6661 83.9178 24.4108C82.62 24.4732 81.3421 24.5629 80.1042 24.6955C73.9147 25.3583 68.6736 27.2104 66.1779 30.3298C68.1745 27.6004 69.1728 24.481 76.1609 22.9213C67.1762 24.0911 62.1846 27.6004 56.3345 30.2362C55.5259 30.6417 54.6873 31.0356 53.7889 31.406C52.8904 31.7764 51.942 32.1195 50.9037 32.4315C50.0053 32.7512 49.1168 33.0787 48.2483 33.4141C47.1501 33.8391 46.0819 34.2719 45.0537 34.7203C39.8824 36.9584 35.5398 39.4929 32.8444 42.4251C32.2753 42.9359 31.7462 43.4545 31.2471 43.9731C32.0757 43.552 32.9142 43.127 33.7428 42.702C36.8875 41.3294 40.2518 39.9452 43.8657 38.678C45.0636 38.2569 46.3015 37.8475 47.5594 37.4536C48.7274 37.13 49.9454 36.8532 51.2032 36.6153C52.4611 36.3775 53.7589 36.1747 55.0867 35.9992C58.2613 35.5313 61.5058 35.1609 64.7303 34.8022C65.8085 34.6813 66.8767 34.5643 67.9548 34.4474C72.1577 34.5097 76.3406 33.5583 80.4337 32.5952C81.8014 32.2755 83.1591 31.9519 84.5068 31.6633C86.0542 31.3436 87.9709 30.9615 89.9575 30.6885C90.9459 30.5521 91.9542 30.4468 92.9425 30.3883C97.1454 29.9282 98.1437 31.0979 100.14 31.8778C100.639 30.3181 102.886 29.3433 105.881 28.8559C106.879 28.696 107.967 28.5869 109.095 28.5362C111.122 28.3685 114.117 28.3685 116.113 28.7584C113.118 30.3181 108.127 31.0979 105.172 32.6264C104.303 32.954 103.435 33.2815 102.566 33.6051C99.9606 34.576 97.3051 35.4884 94.41 36.2527C93.2919 36.6582 92.1838 37.0637 91.0756 37.4731C87.7513 38.7014 84.4569 39.953 81.1625 41.2398C80.5036 41.501 79.8347 41.7584 79.1658 42.0196C79.665 41.7272 80.4137 41.5322 81.2822 41.3723C82.1508 41.2125 83.1291 41.0877 84.0875 40.9395C87.1024 40.2338 89.9176 39.1459 92.7328 37.9488C93.6712 37.5511 94.6097 37.1417 95.558 36.7284C96.5164 36.2449 97.5247 35.7965 98.5829 35.3832C99.6411 34.9738 100.749 34.5994 101.887 34.2641C103.285 33.8664 104.723 33.5583 106.17 33.3205C107.618 33.0826 109.095 32.9189 110.583 32.8175C113.458 32.2911 116.992 32.3808 120.745 32.7161C122.622 32.8838 124.559 33.1138 126.496 33.3595C133.074 34.2134 145.054 36.163 149.047 32.2638C150.046 33.4336 152.042 34.2134 153.041 35.3832C152.042 34.9932 152.042 34.6033 150.824 34.0613C150.355 33.5194 150.165 32.9189 150.295 32.4081C150.545 31.3865 152.042 30.7002 155.037 31.4801C156.535 31.87 157.343 32.3808 157.623 32.9306C157.902 33.4804 157.653 34.0652 157.034 34.5994C148.049 37.3289 137.068 38.4986 128.083 41.2281C138.895 40.9044 146.242 37.5979 155.197 36.0577C156.984 35.7497 158.841 35.5118 160.807 35.3832C162.345 35.3169 163.842 35.2077 165.31 35.079C172.008 34.9932 178.997 33.4336 183.988 31.484C185.985 32.2638 186.983 33.4336 187.981 34.2134C186.983 33.4336 187.981 32.6537 189.978 32.2638C198.963 31.8739 210.942 33.0436 214.936 29.1445C214.936 29.8268 214.936 30.5326 214.816 31.2266C214.696 31.9285 214.437 32.6147 213.917 33.2737C212.939 34.2134 211.941 34.9932 209.944 35.3832C196.966 38.1126 178.997 37.7227 172.008 43.9614C176.002 42.4017 178.997 40.842 183.988 40.0622C194.97 38.5025 204.953 36.5529 213.568 33.9054C215.335 33.4297 217.112 32.9735 218.929 32.5485C220.746 32.1234 222.603 31.7335 224.539 31.3943C225.887 31.133 227.265 30.8913 228.692 30.6729C230.12 30.4546 231.587 30.2635 233.125 30.0959C234.423 30.0296 235.71 29.9711 236.659 29.9321C239.893 29.5305 239.893 30.7002 240.892 31.4762C240.892 31.0902 240.892 30.3103 239.893 29.9204C241.221 30.1154 242.529 30.244 243.817 30.3259C249.876 30.7002 256.865 29.9204 262.854 29.9204C257.863 31.0902 249.876 31.87 245.883 33.0398C236.898 35.3793 228.912 38.8885 220.167 41.4425C218.599 41.8987 217.042 42.3666 215.505 42.8501C213.967 43.3336 212.44 43.8327 210.942 44.3513C213.857 44.1876 216.503 43.7898 218.999 43.2362C220.247 42.9593 221.455 42.6435 222.633 42.2964C232.905 36.9467 247.88 33.8274 264.851 33.0475C268.844 32.6576 271.839 31.8778 274.794 30.5677C275.273 30.4468 275.633 30.3259 276.022 30.1972C277.22 30.1309 278.378 30.0296 279.456 29.9555C280.475 29.8853 281.373 29.8424 282.002 29.897C284.827 30.3181 284.827 31.0979 284.827 31.8778C284.827 31.0979 285.825 30.3181 286.824 29.9282C290.148 29.7995 293.702 29.9282 297.246 30.0569C299.023 30.1232 300.8 30.1855 302.547 30.2167C305.173 30.2674 307.728 30.2908 310.124 30.1076C312.52 29.9243 314.776 29.5344 316.773 28.7545C312.78 33.8235 297.805 34.6033 286.794 35.3832C285.137 35.5781 283.529 35.8043 281.962 36.0616C274.145 37.3367 267.347 39.2863 259.859 41.2359C267.846 40.7173 274.055 38.9821 280.465 37.5355C282.062 37.1729 283.679 36.8298 285.336 36.5256C301.788 36.9467 315.765 27.1988 330.739 32.6576C330.739 31.8778 330.739 31.4879 330.739 30.708C333.235 30.903 335.731 31.0005 338.307 31.0434C346.712 31.0979 354.699 31.0979 361.687 29.5383C362.685 35.777 345.714 35.3871 334.263 35.7809C332.466 35.9525 330.699 36.1513 329.012 36.3892C322.264 37.3367 316.773 38.8963 315.775 42.0157C319.269 39.8711 324.011 38.4089 329.392 37.3094C331.189 36.9428 333.045 36.6192 334.962 36.3229C346.722 34.9933 358.702 34.9932 370.682 31.8739C375.673 30.3142 378.668 33.8235 382.661 35.3832V33.8235C384.658 34.0184 386.774 34.2602 388.971 34.4825C391.167 34.7047 393.413 34.9036 395.679 35.0088C397.336 35.0712 398.934 35.0712 400.501 35.0205C402.068 34.9699 403.586 34.8724 405.083 34.7398C406.501 34.5214 408.078 34.3733 409.725 34.2602C411.383 34.1471 413.11 34.0691 414.857 33.9951C421.595 33.4375 436.57 33.4375 434.573 29.5383C434.573 28.7584 430.58 28.3685 427.096 28.2203C423.312 27.4288 420.647 26.6256 420.647 26.6256V26.6217Z" stroke="currentColor" stroke-width="2"/>
</svg>
