<svg xmlns="http://www.w3.org/2000/svg" width="140" height="683" viewBox="0 0 140 683" fill="none">
  <path d="M115.686 72.9394L115.686 86.3672L105.91 86.3672L105.91 72.9394L82.8145 72.9394L82.8145 60.9082L139.533 60.9082L139.533 72.9394L115.686 72.9394ZM132.658 -3.19298e-07L132.658 43.5058L122.99 43.5058L122.99 11.8164L98.6055 11.8164C98.6413 21.4485 98.8561 29.2008 99.25 35.0732C99.6797 40.9456 100.467 46.6569 101.613 52.207L92.0528 53.3887C90.7637 47.4088 89.9222 41.1963 89.5283 34.751C89.1345 28.3415 88.9375 19.3717 88.9375 7.8418L88.9375 -2.23039e-06L132.658 -3.19298e-07ZM61.8672 8.37891C65.8418 8.37891 69.2614 9.70382 72.126 12.3535C74.9906 15.039 77.1748 18.8525 78.6787 23.7939C80.2184 28.7711 80.9883 34.5898 80.9883 41.25C80.9883 47.8743 80.2184 53.6214 78.6787 58.4912C77.1748 63.3968 74.9906 67.1745 72.126 69.8242C69.2614 72.4739 65.8418 73.7988 61.8672 73.7988C57.821 73.7988 54.3477 72.4739 51.4473 69.8242C48.5469 67.1745 46.3448 63.3968 44.8408 58.4912C43.3011 53.6214 42.5313 47.8743 42.5313 41.25C42.5313 34.554 43.3011 28.7353 44.8408 23.7939C46.3448 18.8525 48.5469 15.039 51.4473 12.3535C54.3477 9.70381 57.821 8.37891 61.8672 8.37891ZM61.8672 20.1953C58.752 20.1595 56.335 21.9857 54.6162 25.6738C52.9333 29.362 52.0918 34.554 52.0918 41.25C52.0918 47.8027 52.9333 52.9232 54.6162 56.6113C56.335 60.2995 58.752 62.1614 61.8672 62.1972C64.9108 62.1614 67.2562 60.3174 68.9033 56.665C70.5863 53.0485 71.4278 48.0176 71.4278 41.5722C71.4278 34.7331 70.6042 29.4515 68.9571 25.7275C67.3099 22.0036 64.9466 20.1595 61.8672 20.1953ZM118.801 126.22C115.184 126.185 111.729 127.08 108.435 128.906C105.14 130.732 102.222 133.418 99.6797 136.963C97.1732 140.508 95.2396 144.769 93.8789 149.746L84.6406 144.267C86.1446 138.717 88.4362 133.919 91.5156 129.873C94.6309 125.827 98.319 122.658 102.58 120.366C97.9252 118.182 93.8789 115.067 90.4414 111.02C87.0397 106.974 84.4974 102.122 82.8145 96.4648L92.1602 90.7715C93.5209 95.7487 95.5619 99.9922 98.2832 103.501C101.005 107.046 104.138 109.731 107.683 111.557C111.228 113.384 114.934 114.297 118.801 114.297L119.768 114.297L119.768 93.9941L129.221 93.9941L129.221 114.297L139.963 114.297L139.963 126.328L129.221 126.328L129.221 146.523L119.768 146.523L119.768 126.22L118.801 126.22ZM77.9805 108.066L77.9805 172.627L43.6055 172.627L43.6055 108.066L77.9805 108.066ZM53.2735 160.918L68.4199 160.918L68.4199 119.99L53.2735 119.99L53.2735 160.918ZM113.43 143.945L113.43 160.703L139.533 160.703L139.533 172.627L82.3848 172.627L82.3848 160.703L103.762 160.703L103.762 143.945L113.43 143.945ZM89.5821 244.17L89.5821 224.512L72.6631 224.512C72.9854 233.213 73.5762 241.556 74.4356 249.541L65.627 250.508C64.2305 241.019 63.3174 231.351 62.8877 221.504C62.458 211.657 62.2253 200.592 62.1895 188.31L72.0723 186.806L72.0723 192.929C72.0723 199.267 72.126 205.82 72.2334 212.588L89.5821 212.588L89.5821 193.574L130.617 193.574L130.617 243.74L121.164 243.74L121.164 205.39L99.25 205.39L99.25 244.17L89.5821 244.17ZM139.533 255.342L139.533 267.265L42.3164 267.265L42.3164 255.342L139.533 255.342ZM76.584 317.002C72.2871 316.93 68.1693 317.897 64.2305 319.902C60.3275 321.907 57.0511 324.933 54.4014 328.979C57.1586 332.954 60.5423 335.98 64.5528 338.056C68.599 340.133 72.6094 341.207 76.584 341.279L81.0957 341.279L81.0957 352.988L76.584 352.988C73.1107 352.952 69.7985 353.615 66.6475 354.975C63.4964 356.372 60.7035 358.484 58.2686 361.313C55.8337 364.178 53.9538 367.705 52.6289 371.894L43.7129 365.879C45.3242 361.26 47.6159 357.374 50.5879 354.223C53.5599 351.072 57.069 348.637 61.1153 346.919C57.0332 345.2 53.4167 342.855 50.2656 339.883C47.1146 336.911 44.6797 333.294 42.961 329.033C44.6081 324.664 46.9535 320.976 49.9971 317.969C53.0407 314.997 56.6035 312.705 60.6856 311.094C56.8184 309.303 53.4346 306.85 50.5342 303.735C47.598 300.62 45.3242 296.878 43.7129 292.51L52.6289 286.709C54.0254 290.755 55.9769 294.175 58.4834 296.968C60.9899 299.761 63.8008 301.855 66.916 303.252C70.0671 304.648 73.2897 305.364 76.584 305.4L81.0957 305.4L81.0957 317.002L76.584 317.002ZM111.281 282.734C115.686 282.734 119.642 283.844 123.151 286.064C126.66 288.284 129.4 291.346 131.369 295.249C133.374 299.188 134.377 303.574 134.377 308.408C134.377 312.49 133.625 316.268 132.121 319.741C130.617 323.25 128.487 326.168 125.729 328.496C123.008 330.859 119.875 332.453 116.33 333.276L116.33 350.84L139.533 350.84L139.533 362.763L84.7481 362.763L84.7481 350.84L106.662 350.84L106.662 333.384C103.01 332.632 99.7871 331.074 96.9942 328.711C94.2012 326.383 92.0349 323.447 90.4951 319.902C88.9554 316.393 88.1856 312.562 88.1856 308.408C88.1856 303.538 89.1703 299.152 91.1397 295.249C93.1091 291.346 95.8483 288.284 99.3574 286.064C102.867 283.844 106.841 282.734 111.281 282.734ZM111.281 294.228C108.703 294.228 106.411 294.819 104.406 296.001C102.401 297.218 100.843 298.901 99.7334 301.05C98.6234 303.234 98.0684 305.687 98.0684 308.408C98.0684 311.058 98.6234 313.439 99.7334 315.552C100.843 317.7 102.401 319.365 104.406 320.547C106.411 321.764 108.703 322.373 111.281 322.373C113.895 322.373 116.187 321.764 118.156 320.547C120.161 319.365 121.701 317.7 122.775 315.552C123.85 313.439 124.387 311.058 124.387 308.408C124.387 305.687 123.85 303.234 122.775 301.05C121.701 298.901 120.161 297.218 118.156 296.001C116.187 294.819 113.895 294.228 111.281 294.228ZM72.0723 398.965L72.0723 441.719L81.3106 441.719L81.3106 453.642L43.6055 453.642L43.6055 387.148L81.3106 387.148L81.3106 398.965L72.0723 398.965ZM96.5645 376.513L96.5645 465.029L86.7891 465.029L86.7891 376.513L96.5645 376.513ZM111.066 381.025C111.89 387.614 113.483 393.45 115.847 398.535C118.21 403.655 121.057 407.612 124.387 410.405C127.717 413.198 131.19 414.612 134.807 414.648L138.459 414.648L138.459 426.894L134.807 426.894C131.298 426.894 127.86 428.291 124.494 431.084C121.128 433.913 118.228 437.869 115.793 442.954C113.394 448.039 111.818 453.821 111.066 460.303L101.613 456.113C102.687 448.056 104.925 440.931 108.327 434.736C111.729 428.577 115.918 423.922 120.895 420.771C115.918 417.62 111.729 412.947 108.327 406.753C104.961 400.558 102.723 393.45 101.613 385.429L111.066 381.025ZM53.0586 441.719L62.9414 441.719L62.9414 398.965L53.0586 398.965L53.0586 441.719ZM42.4238 552.578L42.4239 540.762L139.533 540.762L139.533 552.578L42.4238 552.578ZM130.08 477.168L130.08 488.984L77.0137 488.984C77.2643 504.274 78.7324 518.633 81.418 532.06L71.4277 533.564C68.2766 518.454 66.737 502.448 66.8086 485.547L66.8086 477.168L130.08 477.168ZM102.687 642.705L102.687 657.636L92.912 657.636L92.912 642.705L42.3163 642.705L42.3163 630.781L139.533 630.781L139.533 642.705L102.687 642.705ZM130.295 570.625L130.295 616.064L120.627 616.064L120.627 582.549L76.0468 582.549C76.0826 590.426 76.3333 597.516 76.7988 603.818C77.2642 610.12 78.052 616.494 79.162 622.939L69.0644 624.336C67.8469 617.282 67.0413 610.335 66.6474 603.496C66.2536 596.657 66.0567 588.385 66.0567 578.681L66.0567 570.625L130.295 570.625ZM74.8652 680.517L74.8652 668.379L129.758 667.09L129.758 681.699L74.8652 680.517ZM59.5038 666.123C60.9719 666.123 62.3326 666.499 63.5859 667.251C64.8749 668.003 65.8954 669.023 66.6474 670.312C67.3993 671.601 67.7753 672.998 67.7753 674.502C67.7753 675.97 67.3993 677.331 66.6474 678.584C65.8954 679.873 64.8749 680.893 63.5859 681.645C62.3326 682.397 60.9719 682.773 59.5038 682.773C57.9999 682.773 56.6034 682.397 55.3144 681.645C54.0253 680.893 53.0048 679.873 52.2529 678.584C51.5009 677.331 51.1249 675.97 51.1249 674.502C51.1249 672.998 51.5009 671.601 52.2529 670.312C53.0048 669.023 54.0253 668.003 55.3144 667.251C56.6034 666.499 57.9999 666.123 59.5038 666.123ZM9.37537 284.687C12.8254 284.687 15.9444 285.664 18.7304 287.617L18.7304 289.961C18.0664 289.498 17.2164 289.059 16.1814 288.642C15.1534 288.232 14.0394 287.9 12.8414 287.646C11.6504 287.392 10.4944 287.265 9.37537 287.265C8.25537 287.265 7.09636 287.392 5.89836 287.646C4.70036 287.9 3.58737 288.232 2.55837 288.642C1.52337 289.059 0.670369 289.498 0.000368795 289.961L0.000368898 287.617C1.36737 286.666 2.82537 285.941 4.37537 285.439C5.92437 284.938 7.59137 284.687 9.37537 284.687ZM10.0974 297.148C10.8134 297.806 11.1724 298.6 11.1724 299.531C11.1724 299.876 11.1264 300.208 11.0354 300.527C10.9444 300.853 10.8074 301.263 10.6254 301.758C10.4424 302.239 10.3064 302.643 10.2144 302.969C10.1234 303.294 10.0784 303.626 10.0784 303.965C10.0784 304.42 10.1694 304.844 10.3514 305.234C10.5404 305.631 10.8204 305.983 11.1914 306.289L9.06236 306.289C8.34636 305.631 7.98836 304.837 7.98836 303.906C7.98836 303.561 8.03337 303.222 8.12537 302.89C8.21637 302.558 8.35236 302.155 8.53536 301.679C8.71736 301.198 8.85436 300.794 8.94536 300.469C9.03636 300.143 9.08237 299.811 9.08237 299.472C9.08237 298.541 8.71136 297.767 7.96836 297.148L10.0974 297.148ZM4.29636 324.883L4.29636 308.75L6.09336 308.75L6.09335 315.703L8.96436 315.703L8.96436 310.664L14.7464 310.664L14.7464 320.82L16.9334 320.82L16.9334 310.625L18.6914 310.625L18.6914 322.969L13.0274 322.969L13.0274 312.832L10.7424 312.832L10.7424 323.379L8.96436 323.379L8.96436 317.851L6.09335 317.851L6.09335 324.883L4.29636 324.883ZM6.93337 345.566L6.93337 343.398L11.3084 343.398L11.3084 339.189C10.8334 338.766 10.4624 338.252 10.1954 337.646C9.92836 337.041 9.79136 336.386 9.78536 335.683C9.78536 334.804 9.98035 334.01 10.3714 333.301C10.7614 332.591 11.2984 332.031 11.9824 331.621C12.6724 331.217 13.4444 331.015 14.2964 331.015C15.1624 331.015 15.9374 331.217 16.6214 331.621C17.3114 332.031 17.8514 332.591 18.2424 333.301C18.6324 334.01 18.8284 334.804 18.8284 335.683C18.8214 336.38 18.6884 337.031 18.4274 337.636C18.1674 338.242 17.7994 338.756 17.3244 339.179L17.3244 343.398L19.8824 343.398L19.8824 345.566L6.93337 345.566ZM14.2964 333.086C13.7824 333.086 13.3304 333.196 12.9394 333.418C12.5484 333.639 12.2464 333.945 12.0314 334.336C11.8234 334.733 11.7184 335.182 11.7184 335.683C11.7184 336.165 11.8234 336.598 12.0314 336.982C12.2464 337.373 12.5484 337.679 12.9394 337.9C13.3304 338.128 13.7824 338.242 14.2964 338.242C14.8114 338.242 15.2634 338.128 15.6544 337.9C16.0514 337.679 16.3574 337.373 16.5724 336.982C16.7874 336.598 16.8944 336.165 16.8944 335.683C16.8944 335.182 16.7874 334.733 16.5724 334.336C16.3574 333.945 16.0544 333.639 15.6644 333.418C15.2734 333.196 14.8174 333.086 14.2964 333.086ZM8.26135 333.984L8.26135 336.152L4.35536 336.152L4.35536 346.015L2.59737 346.015L2.59737 333.984L8.26135 333.984ZM15.5664 340.136C15.1304 340.254 14.7074 340.312 14.2964 340.312C13.8804 340.312 13.4704 340.257 13.0664 340.146L13.0664 343.398L15.5664 343.398L15.5664 340.136ZM13.6524 356.797L13.6524 350.918L11.6794 350.918C11.6924 352.519 11.7354 353.877 11.8064 354.99C11.8784 356.11 12.0114 357.239 12.2074 358.379L10.4684 358.613C10.2544 357.383 10.1044 356.159 10.0194 354.941C9.94136 353.73 9.90236 352.275 9.90236 350.576L9.90236 350.195L9.90236 348.75L15.3324 348.75L15.3324 354.668L17.1294 354.668L17.1294 348.73L18.8864 348.73L18.8864 356.797L13.6524 356.797ZM8.32036 350.234L8.32036 361.992L2.26537 361.992L2.26537 359.824L6.58237 359.824L6.58237 350.234L8.32036 350.234ZM19.8824 359.824L19.8824 361.992L15.5664 361.992L15.5664 364.472L13.7694 364.472L13.7694 361.992L9.16035 361.992L9.16035 359.824L19.8824 359.824ZM8.30035 381.445L8.30035 374.433L2.26536 374.433L2.26536 372.285L8.30035 372.285L8.30035 365.351L10.0584 365.351L10.0584 381.445L8.30035 381.445ZM12.9494 366.191C13.0924 367.317 13.3754 368.32 13.7984 369.199C14.2224 370.084 14.7294 370.781 15.3224 371.289C15.9214 371.803 16.5434 372.086 17.1874 372.138L17.1874 366.836L18.9064 366.836L18.9064 379.961L17.1874 379.961L17.1874 374.658C16.5434 374.71 15.9214 374.987 15.3224 375.488C14.7294 375.996 14.2224 376.692 13.7984 377.578C13.3754 378.463 13.0924 379.472 12.9494 380.605L11.2504 379.824C11.4644 378.327 11.8974 377.015 12.5484 375.888C13.1994 374.769 14.0044 373.939 14.9614 373.398C14.0044 372.851 13.1994 372.021 12.5484 370.908C11.8974 369.795 11.4644 368.496 11.2504 367.012L12.9494 366.191ZM15.2734 388.144C14.2834 388.151 13.3234 388.271 12.3924 388.506C11.4614 388.747 10.6084 389.118 9.83436 389.619C9.05936 390.12 8.43135 390.755 7.94935 391.523L6.28935 390.332C6.75135 389.564 7.36936 388.913 8.14436 388.379C8.91936 387.845 9.80836 387.425 10.8104 387.119C9.71036 386.793 8.73736 386.341 7.89036 385.762C7.04436 385.189 6.37336 384.498 5.87936 383.691L7.50036 382.344C8.00136 383.17 8.65536 383.86 9.46336 384.414C10.2764 384.967 11.1724 385.377 12.1484 385.644C13.1314 385.911 14.1404 386.048 15.1754 386.054L18.3394 386.054L18.3394 388.144L15.2734 388.144ZM13.8284 389.629L13.8284 392.148L19.5894 392.148L19.5894 394.199L3.10536 394.199L3.10536 392.148L12.0314 392.148L12.0314 389.629L13.8284 389.629ZM19.9024 395.781L19.9024 397.871L2.24635 397.871L2.24635 395.781L19.9024 395.781ZM4.39436 416.054L4.39436 399.922L6.17236 399.922L6.17236 403.652L10.6344 403.652C11.0454 402.936 11.5624 402.379 12.1874 401.982C12.8124 401.592 13.5094 401.4 14.2774 401.406C15.2014 401.406 16.0154 401.683 16.7184 402.236C17.4284 402.796 17.9754 403.574 18.3594 404.57C18.7504 405.566 18.9454 406.692 18.9454 407.949C18.9454 409.212 18.7504 410.342 18.3594 411.338C17.9754 412.34 17.4284 413.122 16.7184 413.681C16.0154 414.248 15.2014 414.531 14.2774 414.531C13.5224 414.538 12.8384 414.349 12.2264 413.965C11.6144 413.581 11.1004 413.04 10.6834 412.344L6.17236 412.344L6.17236 416.054L4.39436 416.054ZM14.2774 403.535C13.6854 403.535 13.1644 403.717 12.7144 404.082C12.2724 404.453 11.9304 404.97 11.6894 405.635C11.4484 406.305 11.3284 407.077 11.3284 407.949C11.3284 408.821 11.4484 409.593 11.6894 410.263C11.9304 410.941 12.2724 411.465 12.7144 411.836C13.1644 412.213 13.6854 412.402 14.2774 412.402C14.8764 412.402 15.4004 412.213 15.8494 411.836C16.2984 411.465 16.6404 410.941 16.8754 410.263C17.1094 409.593 17.2264 408.821 17.2264 407.949C17.2264 407.07 17.1094 406.295 16.8754 405.625C16.6404 404.961 16.2984 404.446 15.8494 404.082C15.4074 403.717 14.8824 403.535 14.2774 403.535ZM6.17236 410.136L9.85336 410.136C9.70336 409.446 9.62936 408.717 9.62936 407.949C9.62936 407.213 9.70035 406.497 9.84335 405.801L6.17236 405.801L6.17236 410.136ZM9.37536 422.461C7.59136 422.461 5.92436 422.21 4.37536 421.709C2.82536 421.207 1.36736 420.482 0.000363131 419.531L0.000363234 417.187C0.670363 417.65 1.52336 418.086 2.55836 418.496C3.58736 418.913 4.70036 419.248 5.89836 419.502C7.09636 419.756 8.25536 419.883 9.37536 419.883C10.4944 419.883 11.6504 419.756 12.8414 419.502C14.0394 419.248 15.1534 418.913 16.1814 418.496C17.2164 418.086 18.0664 417.65 18.7304 417.187L18.7304 419.531C15.9444 421.484 12.8254 422.461 9.37536 422.461Z" fill="black"/>
</svg>