<svg width="227" height="842" viewBox="0 0 227 842" fill="none" xmlns="http://www.w3.org/2000/svg">
<rect width="226.77" height="841.89" fill="white"/>
<path d="M171.935 706.329L170.83 692.049L162.16 703.099L147.2 699.274L155.19 711.344L147.2 723.244L162.16 719.504L170.83 730.554L171.935 716.274L184.94 711.344L171.935 706.329ZM178.82 701.229L205.17 711.344L178.82 721.374L176.61 749.509L159.355 727.664L130.795 734.889L146.52 711.344L130.795 687.714L159.355 694.939L176.61 673.094L178.82 701.229Z" fill="black"/>
<path d="M166.75 640.306L166.75 631.891L177.8 631.891L177.8 640.306L192.845 640.306L192.845 653.226L177.8 653.226L177.8 663.171L166.75 663.171L166.75 653.226L135.3 653.226L135.3 640.306L166.75 640.306Z" fill="black"/>
<path d="M135.3 607.414C135.3 603.447 136.179 599.905 137.935 596.789C139.749 593.672 142.242 591.235 145.415 589.479C148.645 587.722 152.3 586.844 156.38 586.844C160.517 586.844 164.172 587.722 167.345 589.479C170.575 591.235 173.097 593.672 174.91 596.789C176.724 599.905 177.63 603.447 177.63 607.414C177.63 615.574 173.834 621.552 166.24 625.349C163.747 626.652 160.177 627.304 155.53 627.304L152.045 627.219L152.045 598.914C150.175 599.424 148.674 600.5 147.54 602.144C146.464 603.844 145.925 605.629 145.925 607.499C145.925 609.539 146.265 611.182 146.945 612.429C147.682 613.732 148.532 614.639 149.495 615.149L145.5 625.774C142.724 624.64 140.315 622.487 138.275 619.314C136.292 616.197 135.3 612.23 135.3 607.414ZM159.61 615.404C161.99 614.894 163.832 613.959 165.135 612.599C166.439 611.239 167.09 609.51 167.09 607.414C167.09 605.26 166.439 603.447 165.135 601.974C163.832 600.5 161.99 599.509 159.61 598.999L159.61 615.404Z" fill="black"/>
<path d="M157.825 565.639C160.998 565.639 163.435 565.072 165.135 563.939C166.892 562.805 167.77 561.219 167.77 559.179C167.77 556.629 166.835 554.589 164.965 553.059C163.152 551.529 160.772 550.764 157.825 550.764L137 550.764L137 537.844L197.52 537.844L197.52 550.764L173.72 550.764C175.533 552.124 176.78 553.682 177.46 555.439C178.14 557.195 178.48 558.754 178.48 560.114C178.48 563.797 177.687 567.027 176.1 569.804C174.513 572.637 172.275 574.79 169.385 576.264C166.552 577.794 163.293 578.559 159.61 578.559L137 578.559L137 565.639L157.825 565.639Z" fill="black"/>
<path d="M147.455 514.252C147.455 515.442 147.795 516.689 148.475 517.992C149.212 519.352 150.175 520.599 151.365 521.732L142.27 530.062C140.23 528.305 138.559 525.954 137.255 523.007C135.952 520.06 135.3 517.227 135.3 514.507C135.3 510.37 136.207 506.687 138.02 503.457C139.834 500.227 142.327 497.705 145.5 495.892C148.73 494.079 152.385 493.172 156.465 493.172C160.602 493.172 164.257 494.079 167.43 495.892C170.66 497.705 173.182 500.227 174.995 503.457C176.809 506.687 177.715 510.37 177.715 514.507C177.715 517.51 177.092 520.372 175.845 523.092C174.599 525.812 172.899 528.135 170.745 530.062L161.735 521.732C162.925 520.599 163.86 519.352 164.54 517.992C165.22 516.689 165.56 515.442 165.56 514.252C165.56 511.645 164.767 509.634 163.18 508.217C161.594 506.8 159.355 506.092 156.465 506.092C153.632 506.092 151.422 506.8 149.835 508.217C148.249 509.634 147.455 511.645 147.455 514.252Z" fill="black"/>
<path d="M135.215 461.788C135.215 457.935 136.094 454.563 137.85 451.673C139.664 448.783 142.157 446.545 145.33 444.958C148.56 443.371 152.244 442.578 156.38 442.578C160.517 442.578 164.172 443.371 167.345 444.958C170.575 446.545 173.069 448.783 174.825 451.673C176.639 454.563 177.545 457.935 177.545 461.788C177.545 463.771 177.12 465.783 176.27 467.823C175.477 469.863 174.174 471.535 172.36 472.838L177.63 472.838L177.63 485.758L135.3 485.758L135.3 472.838L140.315 472.838C138.559 471.478 137.284 469.778 136.49 467.738C135.64 465.755 135.215 463.771 135.215 461.788ZM156.38 455.498C152.98 455.498 150.345 456.206 148.475 457.623C146.605 459.096 145.67 461.165 145.67 463.828C145.67 466.321 146.69 468.418 148.73 470.118C150.77 471.875 153.32 472.781 156.38 472.838C159.44 472.781 161.99 471.875 164.03 470.118C166.07 468.418 167.09 466.321 167.09 463.828C167.09 461.165 166.155 459.096 164.285 457.623C162.415 456.206 159.78 455.498 156.38 455.498Z" fill="black"/>
<path d="M155.615 398.443C148.985 402.013 145.67 406.235 145.67 411.108C145.67 414.792 146.378 417.483 147.795 419.183C149.268 420.94 151.252 421.818 153.745 421.818C155.218 421.818 156.465 421.308 157.485 420.288C158.505 419.325 159.355 418.078 160.035 416.548C160.715 415.075 161.508 413.007 162.415 410.343C163.888 406.263 165.277 402.92 166.58 400.313C167.94 397.763 169.895 395.553 172.445 393.683C175.052 391.813 178.395 390.878 182.475 390.878C186.158 390.878 189.36 391.785 192.08 393.598C194.8 395.412 196.897 397.933 198.37 401.163C199.843 404.45 200.58 408.218 200.58 412.468C200.58 415.018 200.013 417.653 198.88 420.373C197.803 423.15 196.075 425.7 193.695 428.023C191.372 430.403 188.425 432.273 184.855 433.633L180.69 422.328C184.033 420.968 186.357 419.41 187.66 417.653C188.963 415.953 189.615 414.225 189.615 412.468C189.615 409.635 188.935 407.453 187.575 405.923C186.215 404.45 184.515 403.713 182.475 403.713C181.002 403.713 179.727 404.223 178.65 405.243C177.573 406.263 176.667 407.538 175.93 409.068C175.193 410.655 174.287 412.837 173.21 415.613C171.623 419.637 170.15 422.895 168.79 425.388C167.43 427.938 165.503 430.12 163.01 431.933C160.573 433.747 157.485 434.653 153.745 434.653C150.005 434.653 146.69 433.69 143.8 431.763C140.967 429.893 138.728 427.173 137.085 423.603C135.498 420.09 134.705 415.925 134.705 411.108C134.705 406.405 136.008 402.07 138.615 398.103C141.278 394.193 144.962 390.822 149.665 387.988L155.615 398.443Z" fill="black"/>
<path d="M118.47 319.292L140.825 329.067L177.545 312.152L177.545 326.432L154.85 335.782L177.545 344.962L177.545 359.072L141.25 343.347L118.47 333.402L118.47 319.292Z" fill="black"/>
<path d="M164.965 278.822L177.63 289.872L177.63 307.297L158.42 290.297L135.3 305.682L135.3 290.212L149.07 281.032L146.435 278.822L135.3 278.822L135.3 265.902L197.52 265.902L197.52 278.822L164.965 278.822Z" fill="black"/>
<path d="M147.455 242.732C147.455 243.922 147.795 245.169 148.475 246.472C149.212 247.832 150.175 249.079 151.365 250.212L142.27 258.542C140.23 256.786 138.559 254.434 137.255 251.487C135.952 248.541 135.3 245.707 135.3 242.987C135.3 238.851 136.207 235.167 138.02 231.937C139.834 228.707 142.327 226.186 145.5 224.372C148.73 222.559 152.385 221.652 156.465 221.652C160.602 221.652 164.257 222.559 167.43 224.372C170.66 226.186 173.182 228.707 174.995 231.937C176.809 235.167 177.715 238.851 177.715 242.987C177.715 245.991 177.092 248.852 175.845 251.572C174.599 254.292 172.899 256.616 170.745 258.542L161.735 250.212C162.925 249.079 163.86 247.832 164.54 246.472C165.22 245.169 165.56 243.922 165.56 242.732C165.56 240.126 164.767 238.114 163.18 236.697C161.594 235.281 159.355 234.572 156.465 234.572C153.632 234.572 151.422 235.281 149.835 236.697C148.249 238.114 147.455 240.126 147.455 242.732Z" fill="black"/>
<path d="M154.425 185.76C148.759 185.76 145.925 188.48 145.925 193.92C145.982 196.3 146.804 198.17 148.39 199.53C150.034 200.89 152.3 201.513 155.19 201.4L177.545 201.4L177.545 214.32L135.3 214.32L135.3 201.4L140.4 201.4C138.7 200.153 137.454 198.538 136.66 196.555C135.81 194.628 135.385 192.56 135.385 190.35C135.385 185.023 137.057 180.773 140.4 177.6C143.8 174.427 148.475 172.84 154.425 172.84L177.545 172.84L177.545 185.76L154.425 185.76Z" fill="black"/>
<path d="M146.52 138.943L146.52 166.228L135.47 166.228L135.47 126.023L199.9 126.023L199.9 138.943L146.52 138.943Z" fill="black"/>
<path d="M171.935 72.8131L170.83 58.5331L162.16 69.5831L147.2 65.7581L155.19 77.8281L147.2 89.7281L162.16 85.9881L170.83 97.0381L171.935 82.7581L184.94 77.8281L171.935 72.8131ZM178.82 67.7131L205.17 77.8281L178.82 87.8581L176.61 115.993L159.355 94.1481L130.795 101.373L146.52 77.8281L130.795 54.1981L159.355 61.4231L176.61 39.5781L178.82 67.7131Z" fill="black"/>
<path d="M31.501 731.98C30.487 732.283 29.551 732.435 28.693 732.435C27.8437 732.435 26.9077 732.283 25.885 731.98C24.871 731.685 23.987 731.299 23.233 730.823L23.233 729.094C23.9697 729.631 24.8493 730.069 25.872 730.407C26.8947 730.753 27.835 730.927 28.693 730.927C29.5597 730.927 30.5043 730.753 31.527 730.407C32.5497 730.069 33.4293 729.631 34.166 729.094L34.166 730.823C33.412 731.299 32.5237 731.685 31.501 731.98Z" fill="black"/>
<path d="M25.4302 726.052C25.4302 726.321 25.3435 726.537 25.1702 726.702C25.0055 726.875 24.7888 726.962 24.5202 726.962C24.2515 726.962 24.0305 726.875 23.8572 726.702C23.6838 726.537 23.5972 726.321 23.5972 726.052C23.5972 725.783 23.6838 725.562 23.8572 725.389C24.0305 725.216 24.2515 725.129 24.5202 725.129C24.7888 725.129 25.0055 725.216 25.1702 725.389C25.3435 725.562 25.4302 725.783 25.4302 726.052Z" fill="black"/>
<path d="M34.6079 722.736L30.3049 722.736L30.3049 724.4L28.8749 724.4L28.8749 722.736L22.8689 722.736L22.8689 720.994L34.6079 720.994L34.6079 722.736ZM33.5159 714L33.5159 719.46L32.1249 719.46L32.1249 715.729L27.1069 715.729C27.1242 716.622 27.1589 717.415 27.2109 718.108C27.2629 718.81 27.3496 719.512 27.4709 720.214L26.0409 720.383C25.8936 719.568 25.7939 718.754 25.7419 717.939C25.6986 717.133 25.6769 716.149 25.6769 714.988L25.6769 714L33.5159 714Z" fill="black"/>
<path d="M34.5952 711.972L22.8952 711.972L22.8952 710.243L34.5952 710.243L34.5952 711.972ZM33.4902 702.781L33.4902 704.497L27.2372 704.497C27.2805 706.265 27.4452 707.886 27.7312 709.359L26.3012 709.554C25.9459 707.847 25.7682 705.94 25.7682 703.834L25.7682 702.781L33.4902 702.781Z" fill="black"/>
<path d="M34.5952 700.541L28.0562 700.541L28.0562 698.812L34.5952 698.812L34.5952 700.541ZM34.0622 691.402L34.0622 696.797L30.5652 696.797L30.5652 693.118L29.6422 693.118C29.6509 694.141 29.6769 695.012 29.7202 695.731C29.7635 696.451 29.8459 697.166 29.9672 697.876L28.5892 698.071C28.4505 697.274 28.3595 696.464 28.3162 695.64C28.2729 694.817 28.2512 693.751 28.2512 692.442L28.2512 691.415L31.8522 691.415L31.8522 695.081L32.6972 695.081L32.6972 691.402L34.0622 691.402ZM27.5752 692.741L27.5752 694.444L26.6262 694.444L26.6262 698.838L27.5752 698.838L27.5752 700.541L23.0122 700.541L23.0122 692.741L27.5752 692.741ZM24.4032 698.838L25.3002 698.838L25.3002 694.444L24.4032 694.444L24.4032 698.838Z" fill="black"/>
<path d="M33.6592 688.83L32.2422 688.83L32.2422 682.395L29.2132 682.395L29.2132 688.921L27.8482 688.921L27.8482 680.679L33.6592 680.679L33.6592 688.83ZM25.7032 679.457L25.7032 690.052L24.2862 690.052L24.2862 679.457L25.7032 679.457Z" fill="black"/>
<path d="M33.841 674.024L32.463 674.024L32.463 670.254L31.566 670.254L31.566 673.777L30.24 673.777L30.24 670.254L29.304 670.254C29.3127 671.224 29.3387 672.035 29.382 672.685C29.4254 673.343 29.5077 673.998 29.629 674.648L28.277 674.817C28.1384 674.08 28.0474 673.322 28.004 672.542C27.9607 671.762 27.939 670.748 27.939 669.5L27.939 668.512L33.841 668.512L33.841 674.024ZM27.042 669.487L27.042 677.313L22.882 677.313L22.882 675.584L25.664 675.584L25.664 669.487L27.042 669.487ZM34.582 675.584L34.582 677.313L31.774 677.313L31.774 678.86L30.357 678.86L30.357 677.313L27.536 677.313L27.536 675.584L34.582 675.584Z" fill="black"/>
<path d="M27.8611 667.325L26.4961 667.325L26.4961 662.853L22.8821 662.853L22.8821 661.124L26.4961 661.124L26.4961 656.73L27.8611 656.73L27.8611 667.325ZM34.1401 657.926L34.1401 659.642L32.8401 659.642L32.8401 664.374L34.1401 664.374L34.1401 666.077L28.9531 666.077L28.9531 657.926L34.1401 657.926ZM30.3311 664.374L31.4881 664.374L31.4881 659.642L30.3311 659.642L30.3311 664.374Z" fill="black"/>
<path d="M34.5952 652.099L28.7322 652.099L28.7322 650.37L34.5952 650.37L34.5952 652.099ZM29.8762 642.531C30.1189 643.901 30.4872 644.91 30.9812 645.56C31.4839 646.21 32.0905 646.579 32.8012 646.665L32.8012 643.155L34.1792 643.155L34.1792 648.576C32.5759 648.576 31.3192 648.134 30.4092 647.25C29.4992 646.375 28.8579 645.001 28.4852 643.129L29.8762 642.531ZM28.2512 644.286L28.2512 652.099L25.0532 652.099L25.0532 646.028L24.3382 646.028L24.3382 652.385L22.9992 652.385L22.9992 644.299L26.2882 644.299L26.2882 650.357L26.9382 650.357L26.9382 644.286L28.2512 644.286Z" fill="black"/>
<path d="M33.6979 635.576L32.0339 635.576C30.8812 635.576 29.8326 635.818 28.8879 636.304C27.9432 636.789 27.2672 637.508 26.8599 638.462L25.4559 637.461C25.7506 636.819 26.1666 636.269 26.7039 635.81C27.2412 635.35 27.8739 634.986 28.6019 634.718C27.8132 634.458 27.1242 634.089 26.5349 633.613C25.9542 633.136 25.5036 632.555 25.1829 631.871L26.6129 630.844C27.0376 631.823 27.7439 632.564 28.7319 633.067C29.7199 633.569 30.8206 633.821 32.0339 633.821L33.6979 633.821L33.6979 635.576ZM34.6079 638.982L34.6079 640.711L22.8689 640.711L22.8689 638.982L34.6079 638.982Z" fill="black"/>
<path d="M34.6079 628.829L30.1489 628.829L30.1489 630.441L28.7319 630.441L28.7319 628.829L22.9079 628.829L22.9079 627.087L34.6079 627.087L34.6079 628.829ZM26.2099 619.508C26.9119 620.868 27.7309 621.908 28.6669 622.628C29.6116 623.356 30.7252 623.793 32.0079 623.941L32.0079 620.171L33.3989 620.171L33.3989 625.709C31.5182 625.709 29.8672 625.301 28.4459 624.487C27.0246 623.681 25.8459 622.346 24.9099 620.483L26.2099 619.508Z" fill="black"/>
<path d="M34.582 618.104L22.882 618.104L22.882 616.388L27.51 616.388L27.51 614.542L28.94 614.542L28.94 616.388L29.967 616.388L29.967 614.542L31.397 614.542L31.397 616.388L34.582 616.388L34.582 618.104ZM26.327 608.133C26.7864 609.06 27.5144 609.762 28.511 610.239C29.5077 610.715 30.5867 610.954 31.748 610.954L32.086 610.954L32.086 608.588L33.477 608.588L33.477 615.023L32.086 615.023L32.086 612.709L31.748 612.709C31.1067 612.709 30.4524 612.813 29.785 613.021C29.1264 613.229 28.5154 613.545 27.952 613.97C27.3887 614.394 26.951 614.914 26.639 615.53L25.3 614.529C25.6034 613.931 26.0454 613.406 26.626 612.956C27.2067 612.505 27.8697 612.145 28.615 611.877C27.7917 611.634 27.068 611.292 26.444 610.85C25.8287 610.408 25.352 609.87 25.014 609.238L26.327 608.133Z" fill="black"/>
<path d="M34.6079 606.102L30.1489 606.102L30.1489 607.714L28.7319 607.714L28.7319 606.102L22.9079 606.102L22.9079 604.36L34.6079 604.36L34.6079 606.102ZM26.2099 596.781C26.9119 598.142 27.7309 599.182 28.6669 599.901C29.6116 600.629 30.7252 601.067 32.0079 601.214L32.0079 597.444L33.3989 597.444L33.3989 602.982C31.5182 602.982 29.8672 602.575 28.4459 601.76C27.0246 600.954 25.8459 599.62 24.9099 597.756L26.2099 596.781Z" fill="black"/>
<path d="M33.6462 588.496L27.9652 588.496L27.9652 582.906L33.6462 582.906L33.6462 588.496ZM26.9122 584.219L26.9122 585.961L24.4682 585.961L24.4682 592.201L23.0902 592.201L23.0902 584.219L26.9122 584.219ZM29.3432 586.793L32.2812 586.793L32.2812 584.609L29.3432 584.609L29.3432 586.793ZM34.5952 590.056L34.5952 591.785L31.2412 591.785L31.2412 593.319L29.8112 593.319L29.8112 591.785L26.0672 591.785L26.0672 590.056L34.5952 590.056Z" fill="black"/>
<path d="M33.477 577.833L32.047 577.833L32.047 575.532L31.462 575.532C30.8554 575.532 30.2444 575.636 29.629 575.844C29.0137 576.052 28.4504 576.368 27.939 576.793C27.4277 577.217 27.029 577.737 26.743 578.353L25.378 577.404C25.664 576.78 26.0757 576.238 26.613 575.779C27.159 575.319 27.7874 574.955 28.498 574.687C27.718 574.427 27.029 574.063 26.431 573.595C25.8417 573.127 25.391 572.568 25.079 571.918L26.444 570.93C26.7387 571.554 27.1547 572.082 27.692 572.516C28.2294 572.949 28.8274 573.27 29.486 573.478C30.1447 573.694 30.8034 573.803 31.462 573.803L32.047 573.803L32.047 571.385L33.477 571.385L33.477 577.833ZM34.582 578.639L34.582 580.381L30.149 580.381L30.149 582.058L28.719 582.058L28.719 580.381L22.882 580.381L22.882 578.639L34.582 578.639Z" fill="black"/>
<path d="M33.4638 562.431L34.6338 562.431L34.6338 564.16L33.4638 564.16L33.4638 566.435L32.0988 566.435L32.0988 564.16C31.4661 564.16 30.8855 564.385 30.3568 564.836C29.8368 565.286 29.4641 565.962 29.2388 566.864L27.8868 566.084C28.0601 565.442 28.3158 564.892 28.6538 564.433C28.9918 563.973 29.3948 563.605 29.8628 563.328C29.3428 563.059 28.8965 562.691 28.5238 562.223C28.1511 561.755 27.8738 561.191 27.6918 560.533L29.0438 559.727C29.2951 560.628 29.6938 561.304 30.2398 561.755C30.7945 562.205 31.4141 562.431 32.0988 562.431L32.0988 560.143L33.4638 560.143L33.4638 562.431ZM27.2498 561.807L27.2498 569.633L23.0118 569.633L23.0118 561.807L27.2498 561.807ZM24.3768 567.943L25.8848 567.943L25.8848 563.51L24.3768 563.51L24.3768 567.943ZM31.5528 566.162L31.5528 567.891L34.5818 567.891L34.5818 569.633L27.7438 569.633L27.7438 567.891L30.1618 567.891L30.1618 566.162L31.5528 566.162Z" fill="black"/>
<path d="M34.5952 557.736L31.8522 557.736L31.8522 559.231L30.4352 559.231L30.4352 557.736L27.8612 557.736L27.8612 555.981L34.5952 555.981L34.5952 557.736ZM33.8282 548.883L33.8282 554.122L32.4372 554.122L32.4372 550.599L29.8242 550.599C29.8329 551.673 29.8589 552.54 29.9022 553.199C29.9542 553.857 30.0452 554.494 30.1752 555.11L28.8102 555.279C28.6629 554.594 28.5632 553.87 28.5112 553.108C28.4679 552.354 28.4462 551.27 28.4462 549.858L28.4462 548.883L33.8282 548.883ZM25.2612 549.897C25.7552 549.897 26.1799 550.057 26.5352 550.378C26.8992 550.707 27.1765 551.171 27.3672 551.769C27.5579 552.367 27.6532 553.069 27.6532 553.875C27.6532 554.672 27.5579 555.37 27.3672 555.968C27.1765 556.566 26.8992 557.025 26.5352 557.346C26.1799 557.675 25.7552 557.84 25.2612 557.84C24.7672 557.84 24.3425 557.675 23.9872 557.346C23.6319 557.025 23.3589 556.566 23.1682 555.968C22.9775 555.37 22.8822 554.672 22.8822 553.875C22.8822 552.653 23.0945 551.682 23.5192 550.963C23.9352 550.252 24.5159 549.897 25.2612 549.897ZM25.2612 551.613C24.9232 551.613 24.6719 551.803 24.5072 552.185C24.3426 552.575 24.2602 553.138 24.2602 553.875C24.2602 554.611 24.3426 555.17 24.5072 555.552C24.6719 555.942 24.9232 556.137 25.2612 556.137C25.9372 556.137 26.2752 555.383 26.2752 553.875C26.2752 552.367 25.9372 551.613 25.2612 551.613Z" fill="black"/>
<path d="M32.8532 536.057L34.2962 536.057L34.2962 537.76L32.8532 537.76L32.8532 539.684L31.4882 539.684L31.4882 534.094L32.8532 534.094L32.8532 536.057ZM28.1862 534.341C28.7235 534.341 29.2045 534.449 29.6292 534.666C30.0539 534.891 30.3832 535.199 30.6172 535.589C30.8599 535.979 30.9812 536.421 30.9812 536.915C30.9812 537.409 30.8599 537.851 30.6172 538.241C30.3832 538.631 30.0539 538.934 29.6292 539.151C29.2045 539.367 28.7235 539.476 28.1862 539.476C27.6402 539.476 27.1549 539.367 26.7302 539.151C26.3142 538.934 25.9849 538.631 25.7422 538.241C25.5082 537.851 25.3912 537.409 25.3912 536.915C25.3912 536.421 25.5082 535.979 25.7422 535.589C25.9849 535.199 26.3142 534.891 26.7302 534.666C27.1549 534.449 27.6402 534.341 28.1862 534.341ZM28.1862 535.875C27.7529 535.875 27.4149 535.97 27.1722 536.161C26.9382 536.351 26.8212 536.603 26.8212 536.915C26.8212 537.227 26.9382 537.478 27.1722 537.669C27.4149 537.859 27.7529 537.955 28.1862 537.955C28.6109 537.955 28.9445 537.855 29.1872 537.656C29.4299 537.465 29.5512 537.218 29.5512 536.915C29.5512 536.603 29.4299 536.351 29.1872 536.161C28.9445 535.97 28.6109 535.875 28.1862 535.875ZM34.3742 540.074L34.3742 541.686L29.8502 541.686L29.8502 542.531L34.5952 542.531L34.5952 544.169L22.8952 544.169L22.8952 542.531L28.4592 542.531L28.4592 541.686L23.3892 541.686L23.3892 540.074L34.3742 540.074Z" fill="black"/>
<path d="M34.1402 526.529C34.1402 527.119 34.0319 527.647 33.8152 528.115C33.6072 528.583 33.3082 528.947 32.9182 529.207C32.5369 529.476 32.1035 529.61 31.6182 529.61C31.1415 529.61 30.7125 529.476 30.3312 529.207C29.9585 528.947 29.6639 528.583 29.4472 528.115C29.2305 527.647 29.1222 527.119 29.1222 526.529C29.1222 525.949 29.2305 525.424 29.4472 524.956C29.6639 524.488 29.9585 524.12 30.3312 523.851C30.7125 523.591 31.1415 523.461 31.6182 523.461C32.1035 523.461 32.5369 523.591 32.9182 523.851C33.3082 524.12 33.6072 524.488 33.8152 524.956C34.0319 525.424 34.1402 525.949 34.1402 526.529ZM28.4592 522.785C28.4592 524.224 28.4809 525.541 28.5242 526.737C28.5762 527.942 28.6889 529.09 28.8622 530.182L27.5882 530.286C27.4062 529.376 27.2762 528.432 27.1982 527.452L23.2462 527.452L23.2462 525.71L27.0942 525.71C27.0595 524.835 27.0422 523.925 27.0422 522.98L28.4592 522.785ZM31.6182 525.125C31.2802 525.125 31.0115 525.255 30.8122 525.515C30.6215 525.775 30.5262 526.113 30.5262 526.529C30.5262 526.954 30.6215 527.296 30.8122 527.556C31.0029 527.825 31.2715 527.959 31.6182 527.959C31.9735 527.959 32.2465 527.825 32.4372 527.556C32.6365 527.296 32.7362 526.954 32.7362 526.529C32.7362 526.113 32.6365 525.775 32.4372 525.515C32.2465 525.255 31.9735 525.125 31.6182 525.125ZM34.5952 530.832L34.5952 532.561L22.8952 532.561L22.8952 530.832L34.5952 530.832Z" fill="black"/>
<path d="M34.4258 513.689C34.4258 515.033 34.2524 516.077 33.9058 516.822C33.5678 517.568 33.0781 517.94 32.4368 517.94C31.7954 517.94 31.3014 517.568 30.9548 516.822C30.6081 516.077 30.4348 515.033 30.4348 513.689C30.4348 512.337 30.6081 511.289 30.9548 510.543C31.3014 509.807 31.7954 509.438 32.4368 509.438C33.0781 509.438 33.5678 509.807 33.9058 510.543C34.2524 511.289 34.4258 512.337 34.4258 513.689ZM29.9148 508.398L29.9148 518.967L28.5498 518.967L28.5498 508.398L29.9148 508.398ZM27.9258 509.594L27.9258 517.693L24.8838 517.693L24.8838 511.31L24.2598 511.31L24.2598 518.005L22.9598 518.005L22.9598 509.62L26.0798 509.62L26.0798 515.99L26.6388 515.99L26.6388 509.594L27.9258 509.594ZM32.4368 511.232C32.1768 511.232 31.9861 511.432 31.8648 511.83C31.7521 512.229 31.6958 512.849 31.6958 513.689C31.6958 514.53 31.7521 515.145 31.8648 515.535C31.9861 515.934 32.1768 516.133 32.4368 516.133C32.6881 516.133 32.8701 515.934 32.9828 515.535C33.1041 515.137 33.1648 514.521 33.1648 513.689C33.1648 512.849 33.1041 512.229 32.9828 511.83C32.8701 511.432 32.6881 511.232 32.4368 511.232Z" fill="black"/>
<path d="M30.0842 507.633L28.7192 507.633L28.7192 497.051L30.0842 497.051L30.0842 507.633ZM28.0952 498.234L28.0952 506.333L24.9622 506.333L24.9622 499.95L24.2992 499.95L24.2992 506.645L22.9862 506.645L22.9862 498.26L26.1842 498.26L26.1842 504.63L26.7952 504.63L26.7952 498.234L28.0952 498.234ZM34.3872 498.351L34.3872 506.281L33.0092 506.281L33.0092 500.067L32.0342 500.067L32.0342 506.385L30.6822 506.385L30.6822 498.351L34.3872 498.351Z" fill="black"/>
<path d="M28.615 496.259L27.263 496.259L27.263 491.982L25.443 491.982L25.443 490.24L27.263 490.24L27.263 485.664L28.615 485.664L28.615 496.259ZM26.314 486.886L26.314 488.602L24.468 488.602L24.468 495.089L23.077 495.089L23.077 486.886L26.314 486.886ZM34.231 487.016L34.231 488.732L33.048 488.732L33.048 493.191L34.231 493.191L34.231 494.907L29.395 494.907L29.395 487.016L34.231 487.016ZM30.747 493.191L31.761 493.191L31.761 488.732L30.747 488.732L30.747 493.191Z" fill="black"/>
<path d="M28.29 481.911L26.912 481.911L26.912 471.316L28.29 471.316L28.29 481.911ZM34.335 472.616L34.335 480.624L31.059 480.624L31.059 474.332L30.279 474.332L30.279 480.858L28.979 480.858L28.979 472.629L32.268 472.629L32.268 478.921L33.035 478.921L33.035 472.616L34.335 472.616ZM26.288 472.642L26.288 474.371L24.468 474.371L24.468 480.897L23.09 480.897L23.09 472.642L26.288 472.642Z" fill="black"/>
<path d="M34.6079 469.146L30.3049 469.146L30.3049 470.81L28.8749 470.81L28.8749 469.146L22.8689 469.146L22.8689 467.404L34.6079 467.404L34.6079 469.146ZM33.5159 460.41L33.5159 465.87L32.1249 465.87L32.1249 462.139L27.1069 462.139C27.1242 463.032 27.1589 463.825 27.2109 464.518C27.2629 465.22 27.3496 465.922 27.4709 466.624L26.0409 466.793C25.8936 465.978 25.7939 465.164 25.7419 464.349C25.6986 463.543 25.6769 462.559 25.6769 461.398L25.6769 460.41L33.5159 460.41Z" fill="black"/>
<path d="M33.5809 451.615L31.9689 451.615L31.9689 453.695L34.6079 453.695L34.6079 455.424L22.8689 455.424L22.8689 453.695L27.4189 453.695L27.4189 451.615L25.7289 451.615L25.7289 446.012L33.5809 446.012L33.5809 451.615ZM27.0809 449.912L32.2159 449.912L32.2159 447.728L27.0809 447.728L27.0809 449.912ZM28.8099 453.695L30.5779 453.695L30.5779 451.615L28.8099 451.615L28.8099 453.695Z" fill="black"/>
<path d="M33.5549 441.059L32.1899 441.059L32.1899 436.73L29.8889 436.73L29.8889 441.124L28.4979 441.124L28.4979 438.914L26.6259 438.914C26.6692 440.032 26.7342 440.938 26.8209 441.631L25.5729 441.761C25.4082 440.756 25.2956 439.72 25.2349 438.654C25.1829 437.597 25.1569 436.453 25.1569 435.222L25.1569 434.468L26.5479 434.273C26.5479 435.539 26.5566 436.509 26.5739 437.185L28.4979 437.185L28.4979 435.001L33.5549 435.001L33.5549 441.059ZM34.6079 442.268L34.6079 443.997L22.8689 443.997L22.8689 442.268L34.6079 442.268Z" fill="black"/>
<path d="M27.315 428.098C27.315 428.939 27.224 429.671 27.042 430.295C26.8687 430.919 26.613 431.4 26.275 431.738C25.937 432.085 25.5427 432.258 25.092 432.258C24.6413 432.258 24.2513 432.085 23.922 431.738C23.584 431.4 23.3283 430.919 23.155 430.295C22.973 429.671 22.882 428.939 22.882 428.098C22.882 427.258 22.973 426.521 23.155 425.888C23.3283 425.264 23.584 424.783 23.922 424.445C24.2513 424.107 24.6413 423.938 25.092 423.938C25.5427 423.938 25.937 424.107 26.275 424.445C26.613 424.783 26.8687 425.264 27.042 425.888C27.224 426.521 27.315 427.258 27.315 428.098ZM29.382 422.898L29.382 426.759L31.397 426.759L31.397 428.488L29.382 428.488L29.382 433.428L28.004 433.428L28.004 422.898L29.382 422.898ZM34.062 424.068L34.062 432.18L33.113 432.18C32.489 432.18 31.943 432.163 31.475 432.128C31.0157 432.094 30.5173 432.007 29.98 431.868L30.162 430.152C30.6213 430.274 31.046 430.352 31.436 430.386C31.826 430.43 32.2507 430.456 32.71 430.464L32.71 424.068L34.062 424.068ZM25.092 425.667C24.7887 425.667 24.559 425.875 24.403 426.291C24.2557 426.707 24.182 427.31 24.182 428.098C24.182 428.887 24.2557 429.489 24.403 429.905C24.559 430.321 24.7887 430.529 25.092 430.529C25.3953 430.529 25.625 430.321 25.781 429.905C25.937 429.489 26.015 428.887 26.015 428.098C26.015 427.31 25.937 426.707 25.781 426.291C25.625 425.875 25.3953 425.667 25.092 425.667Z" fill="black"/>
<path d="M34.5952 421.546L22.8952 421.546L22.8952 419.908L34.5952 419.908L34.5952 421.546ZM26.3272 411.25C26.8472 412.056 27.5622 412.637 28.4722 412.992C29.3909 413.356 30.4005 413.538 31.5012 413.538L32.0342 413.538L32.0342 411.692L33.4382 411.692L33.4382 416.905L32.0342 416.905L32.0342 415.228L31.5012 415.228C30.4265 415.228 29.4559 415.401 28.5892 415.748C27.7225 416.103 27.0595 416.675 26.6002 417.464L25.3522 416.463C25.9155 415.51 26.8516 414.821 28.1602 414.396C26.7042 413.971 25.6729 413.265 25.0662 412.277L26.3272 411.25ZM30.6042 416.086L30.6042 417.542L34.4132 417.542L34.4132 419.154L23.4152 419.154L23.4152 417.542L29.2132 417.542L29.2132 416.086L30.6042 416.086Z" fill="black"/>
<path d="M27.263 407.149L22.882 407.149L22.882 405.394L25.898 405.394L25.898 398.79L27.263 398.79L27.263 407.149ZM29.421 396.918C30.123 398.036 31.4057 398.595 33.269 398.595L33.945 398.595L33.945 400.233L33.269 400.233C31.9344 400.233 30.8944 400.48 30.149 400.974C30.565 401.26 31.033 401.455 31.553 401.559C32.073 401.663 32.645 401.715 33.269 401.715L33.945 401.715L33.945 403.34L33.269 403.34C32.4197 403.34 31.6614 403.461 30.994 403.704C30.3267 403.955 29.8024 404.397 29.421 405.03L28.186 404.081C28.628 403.37 29.317 402.855 30.253 402.534C29.2477 402.213 28.5154 401.693 28.056 400.974C28.5327 400.255 29.2737 399.735 30.279 399.414C29.3257 399.085 28.628 398.565 28.186 397.854L29.421 396.918ZM34.582 405.394L34.582 407.149L27.796 407.149L27.796 405.394L34.582 405.394Z" fill="black"/>
<path d="M34.5952 395.797L22.8952 395.797L22.8952 394.146L28.8232 394.146L28.8232 393.171L23.3892 393.171L23.3892 391.546L34.2962 391.546L34.2962 393.171L30.2142 393.171L30.2142 394.146L34.5952 394.146L34.5952 395.797ZM26.4832 385.605C27.1592 386.741 27.9176 387.586 28.7582 388.14C29.6076 388.695 30.6129 389.024 31.7742 389.128L31.7742 386.216L33.1652 386.216L33.1652 390.831C31.3885 390.831 29.8546 390.515 28.5632 389.882C27.2806 389.258 26.1842 388.171 25.2742 386.619L26.4832 385.605Z" fill="black"/>
<path d="M23.9352 384.173L23.9612 382.496L31.6962 382.496L30.8382 380.689L32.2942 380.078L33.4512 382.509L33.4512 384.173L23.9352 384.173Z" fill="black"/>
<path d="M34.582 375.341L26.197 375.341L26.197 373.612L34.582 373.612L34.582 375.341ZM30.877 365.773C31.449 365.773 31.9604 365.912 32.411 366.189C32.8617 366.475 33.2127 366.861 33.464 367.346C33.724 367.832 33.854 368.369 33.854 368.958C33.854 369.556 33.724 370.098 33.464 370.583C33.2127 371.069 32.8617 371.45 32.411 371.727C31.9604 372.013 31.449 372.156 30.877 372.156C30.3137 372.156 29.8024 372.013 29.343 371.727C28.8924 371.45 28.537 371.069 28.277 370.583C28.0257 370.098 27.9 369.556 27.9 368.958C27.9 368.369 28.03 367.832 28.29 367.346C28.55 366.861 28.9054 366.475 29.356 366.189C29.8067 365.912 30.3137 365.773 30.877 365.773ZM30.877 367.463C30.4264 367.463 30.0667 367.602 29.798 367.879C29.538 368.165 29.408 368.525 29.408 368.958C29.408 369.392 29.538 369.751 29.798 370.037C30.0667 370.323 30.4264 370.466 30.877 370.466C31.3364 370.466 31.696 370.323 31.956 370.037C32.2247 369.751 32.359 369.392 32.359 368.958C32.359 368.525 32.2247 368.165 31.956 367.879C31.696 367.602 31.3364 367.463 30.877 367.463ZM27.029 367.528L27.029 369.257L24.468 369.257L24.468 375.627L23.09 375.627L23.09 367.528L27.029 367.528Z" fill="black"/>
<path d="M23.9352 364.001L23.9612 362.324L31.6962 362.324L30.8382 360.517L32.2942 359.906L33.4512 362.337L33.4512 364.001L23.9352 364.001Z" fill="black"/>
<path d="M32.8532 347.381L34.2962 347.381L34.2962 349.084L32.8532 349.084L32.8532 351.008L31.4882 351.008L31.4882 345.418L32.8532 345.418L32.8532 347.381ZM28.1862 345.665C28.7235 345.665 29.2045 345.773 29.6292 345.99C30.0539 346.215 30.3832 346.523 30.6172 346.913C30.8599 347.303 30.9812 347.745 30.9812 348.239C30.9812 348.733 30.8599 349.175 30.6172 349.565C30.3832 349.955 30.0539 350.258 29.6292 350.475C29.2045 350.692 28.7235 350.8 28.1862 350.8C27.6402 350.8 27.1549 350.692 26.7302 350.475C26.3142 350.258 25.9849 349.955 25.7422 349.565C25.5082 349.175 25.3912 348.733 25.3912 348.239C25.3912 347.745 25.5082 347.303 25.7422 346.913C25.9849 346.523 26.3142 346.215 26.7302 345.99C27.1549 345.773 27.6402 345.665 28.1862 345.665ZM28.1862 347.199C27.7529 347.199 27.4149 347.294 27.1722 347.485C26.9382 347.676 26.8212 347.927 26.8212 348.239C26.8212 348.551 26.9382 348.802 27.1722 348.993C27.4149 349.184 27.7529 349.279 28.1862 349.279C28.6109 349.279 28.9445 349.179 29.1872 348.98C29.4299 348.789 29.5512 348.542 29.5512 348.239C29.5512 347.927 29.4299 347.676 29.1872 347.485C28.9445 347.294 28.6109 347.199 28.1862 347.199ZM34.3742 351.398L34.3742 353.01L29.8502 353.01L29.8502 353.855L34.5952 353.855L34.5952 355.493L22.8952 355.493L22.8952 353.855L28.4592 353.855L28.4592 353.01L23.3892 353.01L23.3892 351.398L34.3742 351.398Z" fill="black"/>
<path d="M28.5759 338.486L29.2519 338.486L29.2519 335.379L34.2959 335.379L34.2959 343.439L32.9829 343.439L32.9829 337.095L32.4239 337.095L32.4239 343.192L31.1499 343.192L31.1499 337.095L30.5649 337.095L30.5649 343.543L29.2519 343.543L29.2519 340.215L28.5759 340.215L28.5759 344.635L27.2239 344.635L27.2239 334.066L28.5759 334.066L28.5759 338.486ZM24.8059 335.275C25.4299 335.275 25.9022 335.626 26.2229 336.328C26.5522 337.039 26.7169 338.044 26.7169 339.344C26.7169 340.636 26.5522 341.632 26.2229 342.334C25.8936 343.045 25.4212 343.4 24.8059 343.4C24.1819 343.4 23.7052 343.045 23.3759 342.334C23.0466 341.632 22.8819 340.636 22.8819 339.344C22.8819 338.044 23.0466 337.039 23.3759 336.328C23.7052 335.626 24.1819 335.275 24.8059 335.275ZM24.8059 337.017C24.5719 337.017 24.4029 337.204 24.2989 337.576C24.1949 337.949 24.1429 338.538 24.1429 339.344C24.1429 340.142 24.1949 340.727 24.2989 341.099C24.4029 341.481 24.5719 341.671 24.8059 341.671C25.0399 341.671 25.2089 341.481 25.3129 341.099C25.4169 340.727 25.4689 340.142 25.4689 339.344C25.4689 338.538 25.4169 337.949 25.3129 337.576C25.2089 337.204 25.0399 337.017 24.8059 337.017Z" fill="black"/>
<path d="M34.4258 325.014C34.4258 326.357 34.2524 327.401 33.9058 328.147C33.5678 328.892 33.0781 329.265 32.4368 329.265C31.7954 329.265 31.3014 328.892 30.9548 328.147C30.6081 327.401 30.4348 326.357 30.4348 325.014C30.4348 323.662 30.6081 322.613 30.9548 321.868C31.3014 321.131 31.7954 320.763 32.4368 320.763C33.0781 320.763 33.5678 321.131 33.9058 321.868C34.2524 322.613 34.4258 323.662 34.4258 325.014ZM29.9148 319.723L29.9148 330.292L28.5498 330.292L28.5498 319.723L29.9148 319.723ZM27.9258 320.919L27.9258 329.018L24.8838 329.018L24.8838 322.635L24.2598 322.635L24.2598 329.33L22.9598 329.33L22.9598 320.945L26.0798 320.945L26.0798 327.315L26.6388 327.315L26.6388 320.919L27.9258 320.919ZM32.4368 322.557C32.1768 322.557 31.9861 322.756 31.8648 323.155C31.7521 323.553 31.6958 324.173 31.6958 325.014C31.6958 325.854 31.7521 326.47 31.8648 326.86C31.9861 327.258 32.1768 327.458 32.4368 327.458C32.6881 327.458 32.8701 327.258 32.9828 326.86C33.1041 326.461 33.1648 325.846 33.1648 325.014C33.1648 324.173 33.1041 323.553 32.9828 323.155C32.8701 322.756 32.6881 322.557 32.4368 322.557Z" fill="black"/>
<path d="M33.4638 310.946L34.6338 310.946L34.6338 312.675L33.4638 312.675L33.4638 314.95L32.0988 314.95L32.0988 312.675C31.4661 312.675 30.8855 312.901 30.3568 313.351C29.8368 313.802 29.4641 314.478 29.2388 315.379L27.8868 314.599C28.0601 313.958 28.3158 313.408 28.6538 312.948C28.9918 312.489 29.3948 312.121 29.8628 311.843C29.3428 311.575 28.8965 311.206 28.5238 310.738C28.1511 310.27 27.8738 309.707 27.6918 309.048L29.0438 308.242C29.2951 309.144 29.6938 309.82 30.2398 310.27C30.7945 310.721 31.4141 310.946 32.0988 310.946L32.0988 308.658L33.4638 308.658L33.4638 310.946ZM27.2498 310.322L27.2498 318.148L23.0118 318.148L23.0118 310.322L27.2498 310.322ZM24.3768 316.458L25.8848 316.458L25.8848 312.025L24.3768 312.025L24.3768 316.458ZM31.5528 314.677L31.5528 316.406L34.5818 316.406L34.5818 318.148L27.7438 318.148L27.7438 316.406L30.1618 316.406L30.1618 314.677L31.5528 314.677Z" fill="black"/>
<path d="M27.6012 307.578L26.1972 307.578L26.1972 303.145L22.8692 303.145L22.8692 301.403L26.1972 301.403L26.1972 296.996L27.6012 296.996L27.6012 307.578ZM29.5252 297.529C29.6118 298.3 29.7765 298.963 30.0192 299.518C30.2618 300.073 30.5478 300.502 30.8772 300.805C31.2065 301.108 31.5488 301.295 31.9042 301.364L31.9042 297.945L33.2692 297.945L33.2692 301.403L34.5562 301.403L34.5562 303.145L33.2692 303.145L33.2692 306.629L31.9042 306.629L31.9042 303.184C31.5575 303.253 31.2195 303.444 30.8902 303.756C30.5608 304.068 30.2705 304.497 30.0192 305.043C29.7765 305.598 29.6118 306.256 29.5252 307.019L28.1731 306.408C28.2771 305.446 28.5112 304.614 28.8752 303.912C29.2392 303.21 29.6898 302.664 30.2272 302.274C29.6898 301.893 29.2392 301.347 28.8752 300.636C28.5198 299.934 28.2858 299.098 28.1731 298.127L29.5252 297.529Z" fill="black"/>
<path d="M29.2781 293.21L27.9131 293.21L27.9131 288.79L27.0681 288.79C26.9901 289.795 26.7691 290.575 26.4051 291.13C26.0497 291.684 25.5774 291.962 24.9881 291.962C24.3207 291.962 23.8051 291.602 23.4411 290.883C23.0684 290.163 22.8821 289.171 22.8821 287.906C22.8821 286.632 23.0684 285.635 23.4411 284.916C23.8051 284.196 24.3207 283.837 24.9881 283.837C25.5861 283.837 26.0627 284.114 26.4181 284.669C26.7821 285.232 27.0031 286.025 27.0811 287.048L27.9131 287.048L27.9131 282.641L29.2781 282.641L29.2781 293.21ZM31.0591 283.07C31.1457 284.084 31.3407 284.885 31.6441 285.475C31.9561 286.073 32.3201 286.458 32.7361 286.632L32.7361 283.59L34.1011 283.59L34.1011 292.274L32.7361 292.274L32.7361 289.219C32.3201 289.383 31.9561 289.76 31.6441 290.35C31.3407 290.948 31.1457 291.758 31.0591 292.781L29.7071 292.183C29.8111 291.099 30.0494 290.198 30.4221 289.479C30.7947 288.759 31.2671 288.244 31.8391 287.932C31.2671 287.611 30.7947 287.091 30.4221 286.372C30.0494 285.652 29.8111 284.751 29.7071 283.668L31.0591 283.07ZM24.9881 285.579C24.7107 285.579 24.5071 285.769 24.3771 286.151C24.2471 286.532 24.1821 287.117 24.1821 287.906C24.1821 288.686 24.2471 289.266 24.3771 289.648C24.5071 290.029 24.7107 290.22 24.9881 290.22C25.2741 290.22 25.4821 290.029 25.6121 289.648C25.7421 289.266 25.8071 288.686 25.8071 287.906C25.8071 287.117 25.7421 286.532 25.6121 286.151C25.4821 285.769 25.2741 285.579 24.9881 285.579Z" fill="black"/>
<path d="M30.0842 278.875L28.7192 278.875L28.7192 268.293L30.0842 268.293L30.0842 278.875ZM28.0952 269.476L28.0952 277.575L24.9622 277.575L24.9622 271.192L24.2992 271.192L24.2992 277.887L22.9862 277.887L22.9862 269.502L26.1842 269.502L26.1842 275.872L26.7952 275.872L26.7952 269.476L28.0952 269.476ZM34.3872 269.593L34.3872 277.523L33.0092 277.523L33.0092 271.309L32.0342 271.309L32.0342 277.627L30.6822 277.627L30.6822 269.593L34.3872 269.593Z" fill="black"/>
<path d="M28.615 267.501L27.263 267.501L27.263 263.224L25.443 263.224L25.443 261.482L27.263 261.482L27.263 256.906L28.615 256.906L28.615 267.501ZM26.314 258.128L26.314 259.844L24.468 259.844L24.468 266.331L23.077 266.331L23.077 258.128L26.314 258.128ZM34.231 258.258L34.231 259.974L33.048 259.974L33.048 264.433L34.231 264.433L34.231 266.149L29.395 266.149L29.395 258.258L34.231 258.258ZM30.747 264.433L31.761 264.433L31.761 259.974L30.747 259.974L30.747 264.433Z" fill="black"/>
<path d="M34.582 252.272L26.067 252.272L26.067 250.543L34.582 250.543L34.582 252.272ZM28.992 242.496C29.3127 243.423 29.8197 244.117 30.513 244.576C31.215 245.035 31.982 245.265 32.814 245.265L33.958 245.265L33.958 247.033L32.814 247.033C32.008 247.033 31.2757 247.254 30.617 247.696C29.9584 248.138 29.486 248.818 29.2 249.737L27.822 248.853C28.2294 247.614 29.018 246.721 30.188 246.175C29.59 245.906 29.07 245.534 28.628 245.057C28.186 244.589 27.8524 244.026 27.627 243.367L28.992 242.496ZM26.886 244.459L26.886 246.201L24.468 246.201L24.468 252.571L23.09 252.571L23.09 244.459L26.886 244.459Z" fill="black"/>
<path d="M34.582 240.389L30.045 240.389L30.045 242.053L28.615 242.053L28.615 240.389L22.882 240.389L22.882 238.66L34.582 238.66L34.582 240.389ZM32.879 231.133L32.879 233.681L34.387 233.681L34.387 235.436L32.879 235.436L32.879 237.958L31.501 237.958L31.501 231.133L32.879 231.133ZM28.069 231.588C28.6064 231.588 29.0874 231.718 29.512 231.978C29.9367 232.238 30.266 232.593 30.5 233.044C30.7427 233.494 30.864 234.001 30.864 234.565C30.864 235.128 30.7427 235.635 30.5 236.086C30.266 236.545 29.9367 236.9 29.512 237.152C29.0874 237.412 28.6064 237.542 28.069 237.542C27.5317 237.542 27.0507 237.412 26.626 237.152C26.2014 236.9 25.8677 236.545 25.625 236.086C25.391 235.635 25.274 235.128 25.274 234.565C25.274 234.001 25.391 233.494 25.625 233.044C25.8677 232.593 26.2014 232.238 26.626 231.978C27.0507 231.718 27.5317 231.588 28.069 231.588ZM28.069 233.252C27.6357 233.252 27.2934 233.369 27.042 233.603C26.7994 233.845 26.678 234.166 26.678 234.565C26.678 234.955 26.7994 235.271 27.042 235.514C27.2934 235.756 27.6357 235.878 28.069 235.878C28.5024 235.878 28.8404 235.756 29.083 235.514C29.3344 235.271 29.46 234.955 29.46 234.565C29.46 234.166 29.3344 233.845 29.083 233.603C28.8404 233.369 28.5024 233.252 28.069 233.252Z" fill="black"/>
<path d="M34.582 229.807L27.263 229.807L27.263 228.169L30.331 228.169L30.331 227.363L27.653 227.363L27.653 225.738L34.361 225.738L34.361 227.363L31.722 227.363L31.722 228.169L34.582 228.169L34.582 229.807ZM33.412 219.758L33.412 221.747L34.465 221.747L34.465 223.45L33.412 223.45L33.412 225.426L32.073 225.426L32.073 219.758L33.412 219.758ZM29.681 220.096C30.0797 220.096 30.4307 220.204 30.734 220.421C31.046 220.637 31.2887 220.936 31.462 221.318C31.6354 221.699 31.722 222.128 31.722 222.605C31.722 223.09 31.6354 223.523 31.462 223.905C31.2887 224.295 31.046 224.598 30.734 224.815C30.4307 225.031 30.0797 225.14 29.681 225.14C29.2824 225.14 28.927 225.031 28.615 224.815C28.303 224.598 28.0604 224.299 27.887 223.918C27.7224 223.536 27.64 223.099 27.64 222.605C27.64 222.119 27.7224 221.686 27.887 221.305C28.0604 220.932 28.303 220.637 28.615 220.421C28.927 220.204 29.2824 220.096 29.681 220.096ZM29.681 221.617C29.421 221.617 29.2174 221.708 29.07 221.89C28.9227 222.072 28.849 222.31 28.849 222.605C28.849 222.908 28.9227 223.151 29.07 223.333C29.2174 223.515 29.421 223.606 29.681 223.606C29.941 223.606 30.1404 223.515 30.279 223.333C30.4177 223.151 30.487 222.908 30.487 222.605C30.487 222.31 30.4177 222.072 30.279 221.89C30.1404 221.708 29.941 221.617 29.681 221.617ZM25.014 221.799C25.6987 221.799 26.2274 222.154 26.6 222.865C26.9727 223.575 27.159 224.563 27.159 225.829C27.159 227.103 26.9727 228.095 26.6 228.806C26.2274 229.516 25.6987 229.872 25.014 229.872C24.338 229.872 23.8137 229.512 23.441 228.793C23.0684 228.082 22.882 227.094 22.882 225.829C22.882 224.572 23.0684 223.584 23.441 222.865C23.8137 222.154 24.338 221.799 25.014 221.799ZM25.014 223.528C24.728 223.528 24.5157 223.714 24.377 224.087C24.247 224.468 24.182 225.049 24.182 225.829C24.182 226.609 24.247 227.185 24.377 227.558C24.5157 227.939 24.728 228.13 25.014 228.13C25.3087 228.13 25.5254 227.939 25.664 227.558C25.8027 227.185 25.872 226.609 25.872 225.829C25.872 225.049 25.8027 224.468 25.664 224.087C25.5254 223.714 25.3087 223.528 25.014 223.528Z" fill="black"/>
<path d="M33.776 215.325L32.411 215.325L32.411 213.05L32.32 213.05C31.5747 213.05 30.89 213.275 30.266 213.726C29.642 214.185 29.187 214.866 28.901 215.767L27.562 214.896C27.7527 214.263 28.043 213.722 28.433 213.271C28.823 212.82 29.2867 212.461 29.824 212.192C29.2434 211.923 28.7407 211.555 28.316 211.087C27.9 210.619 27.5837 210.051 27.367 209.384L28.719 208.5C29.0137 209.427 29.4904 210.121 30.149 210.58C30.8077 211.048 31.5314 211.282 32.32 211.282L32.411 211.282L32.411 208.968L33.776 208.968L33.776 215.325ZM26.912 210.385L26.912 212.114L24.468 212.114L24.468 218.484L23.09 218.484L23.09 210.385L26.912 210.385ZM34.582 216.456L34.582 218.198L26.145 218.198L26.145 216.456L34.582 216.456Z" fill="black"/>
<path d="M29.3559 204.708L28.1079 204.708L28.1079 194.113L29.3559 194.113L29.3559 204.708ZM27.5489 195.296L27.5489 203.447L24.7539 203.447L24.7539 197.025L24.1429 197.025L24.1429 203.772L22.9729 203.772L22.9729 195.309L25.8329 195.309L25.8329 201.744L26.3789 201.744L26.3789 195.296L27.5489 195.296ZM34.3999 195.413L34.3999 203.421L31.6049 203.421L31.6049 197.129L31.0459 197.129L31.0459 203.642L29.8629 203.642L29.8629 195.426L32.6969 195.426L32.6969 201.718L33.2299 201.718L33.2299 195.413L34.3999 195.413Z" fill="black"/>
<path d="M33.7632 192.14L32.3852 192.14L32.3852 185.744L31.1892 185.744L31.1892 191.867L29.8502 191.867L29.8502 185.744L28.6022 185.744L28.6022 192.231L27.2372 192.231L27.2372 183.989L33.7632 183.989L33.7632 192.14ZM25.6252 182.754L25.6252 193.349L24.2212 193.349L24.2212 182.754L25.6252 182.754Z" fill="black"/>
<path d="M33.9321 177.553L33.1001 177.553C32.5195 177.553 31.9518 177.709 31.3971 178.021C30.8425 178.333 30.3615 178.796 29.9541 179.412C29.5468 180.027 29.2738 180.768 29.1351 181.635L27.6921 180.894C27.8915 179.888 28.2511 179.022 28.7711 178.294C29.2911 177.566 29.9281 177.011 30.6821 176.63C29.9281 176.24 29.2868 175.681 28.7581 174.953C28.2381 174.225 27.8828 173.362 27.6921 172.366L29.1351 171.625C29.2825 172.483 29.5598 173.219 29.9671 173.835C30.3831 174.45 30.8685 174.914 31.4231 175.226C31.9778 175.546 32.5368 175.707 33.1001 175.707L33.9321 175.707L33.9321 177.553ZM25.7291 171.391L25.7291 181.986L24.3121 181.986L24.3121 171.391L25.7291 171.391Z" fill="black"/>
<path d="M30.3572 166.02L34.3872 166.02L34.3872 167.632L23.4022 167.632L23.4022 166.02L28.9662 166.02L28.9662 164.772L30.3572 164.772L30.3572 166.02ZM33.3212 160.352L33.3212 164.694L31.9562 164.694L31.9562 161.99L30.1622 161.99L30.1622 164.265L28.8362 164.265L28.8362 161.99L26.8212 161.99C26.8299 162.622 26.8515 163.177 26.8862 163.654C26.9209 164.139 26.9815 164.629 27.0682 165.123L25.6902 165.253C25.5862 164.655 25.5169 164.065 25.4822 163.485C25.4562 162.904 25.4432 162.128 25.4432 161.158L25.4432 160.352L33.3212 160.352ZM34.5952 168.438L34.5952 170.089L22.8952 170.089L22.8952 168.438L34.5952 168.438Z" fill="black"/>
<path d="M34.1792 148.684L31.4622 148.684L31.4622 155.093L30.0972 155.093L30.0972 146.968L34.1792 146.968L34.1792 148.684ZM28.9012 145.668L28.9012 156.263L27.5362 156.263L27.5362 145.668L28.9012 145.668ZM26.6262 146.851L26.6262 148.58L24.5202 148.58L24.5202 155.158L23.1292 155.158L23.1292 146.851L26.6262 146.851Z" fill="black"/>
<path d="M33.802 138.038L33.36 138.038C32.7794 138.038 32.268 138.203 31.826 138.532C31.384 138.861 31.0677 139.355 30.877 140.014L29.629 139.182C29.915 138.281 30.4394 137.631 31.202 137.232C30.3094 136.79 29.694 136.053 29.356 135.022L30.63 134.19C30.8554 134.927 31.2107 135.477 31.696 135.841C32.19 136.205 32.7447 136.387 33.36 136.387L33.802 136.387L33.802 138.038ZM28.914 134.125C28.914 136.69 29.018 138.645 29.226 139.988L27.952 140.105C27.8307 139.533 27.731 138.831 27.653 137.999L23.779 137.999L23.779 136.361L27.549 136.361C27.523 135.85 27.51 135.165 27.51 134.307L28.914 134.125ZM27.12 138.753L27.12 140.573L34.413 140.573L34.413 142.185L23.428 142.185L23.428 140.573L25.82 140.573L25.82 138.753L27.12 138.753ZM34.582 142.913L34.582 144.564L22.882 144.564L22.882 142.913L34.582 142.913Z" fill="black"/>
<path d="M33.698 127.288L32.034 127.288C30.9074 127.288 29.8717 127.509 28.927 127.951C27.991 128.393 27.3064 129.065 26.873 129.966L25.495 128.926C25.7897 128.337 26.2014 127.834 26.73 127.418C27.2674 127.002 27.8914 126.669 28.602 126.417C27.8394 126.166 27.172 125.815 26.6 125.364C26.0367 124.914 25.599 124.368 25.287 123.726L26.691 122.699C27.133 123.644 27.8437 124.355 28.823 124.831C29.8024 125.317 30.8727 125.559 32.034 125.559L33.698 125.559L33.698 127.288ZM34.582 130.382L34.582 132.124L30.11 132.124L30.11 133.801L28.667 133.801L28.667 132.124L22.882 132.124L22.882 130.382L34.582 130.382Z" fill="black"/>
<path d="M33.503 114.553L25.716 114.553L25.716 108.937L33.503 108.937L33.503 114.553ZM27.094 112.85L32.138 112.85L32.138 110.64L27.094 110.64L27.094 112.85ZM34.582 116.035L34.582 117.778L30.201 117.777L30.201 119.442L28.771 119.442L28.771 117.777L22.882 117.777L22.882 116.035L34.582 116.035Z" fill="black"/>
<path d="M25.573 101.643L27.289 101.643L27.289 98.4317L31.28 98.4317L31.28 104.919L32.489 104.919L32.489 98.4187L33.854 98.4187L33.854 106.635L29.928 106.635L29.928 100.148L28.667 100.148L28.667 106.895L27.289 106.895L27.289 103.372L25.573 103.372L25.573 107.818L24.182 107.818L24.182 97.2227L25.573 97.2227L25.573 101.643Z" fill="black"/>
<path d="M33.802 88.9951C33.802 89.5844 33.6287 90.1131 33.282 90.5811C32.944 91.0491 32.4587 91.4131 31.826 91.6731C31.1934 91.9417 30.4567 92.0761 29.616 92.0761C28.7667 92.0761 28.0214 91.9417 27.38 91.6731C26.7474 91.4131 26.2577 91.0491 25.911 90.5811C25.573 90.1131 25.404 89.5844 25.404 88.9951C25.404 88.4057 25.573 87.8771 25.911 87.4091C26.2577 86.9411 26.7474 86.5727 27.38 86.3041C28.0214 86.0441 28.7667 85.9141 29.616 85.9141C30.4567 85.9141 31.1934 86.0441 31.826 86.3041C32.4587 86.5727 32.944 86.9411 33.282 87.4091C33.6287 87.8771 33.802 88.4057 33.802 88.9951ZM29.616 87.5781C28.7667 87.5781 28.1124 87.7037 27.653 87.9551C27.2024 88.2151 26.977 88.5617 26.977 88.9951C26.977 89.4371 27.2024 89.7837 27.653 90.0351C28.1124 90.2951 28.7667 90.4251 29.616 90.4251C30.448 90.4251 31.0894 90.2951 31.54 90.0351C31.9907 89.7837 32.216 89.4371 32.216 88.9951C32.216 88.5617 31.9907 88.2151 31.54 87.9551C31.0894 87.7037 30.448 87.5781 29.616 87.5781ZM34.582 93.3111L34.582 95.0531L30.201 95.0531L30.201 96.7171L28.771 96.7171L28.771 95.0531L22.882 95.0531L22.882 93.3111L34.582 93.3111Z" fill="black"/>
<path d="M33.4902 77.8233C32.1642 77.8233 30.9769 77.676 29.9282 77.3813C28.8795 77.0866 27.9045 76.545 27.0032 75.7563C26.1019 74.9763 25.3002 73.88 24.5982 72.4673L25.9372 71.5703C26.4052 72.5063 26.9079 73.2776 27.4452 73.8843C27.9825 74.491 28.5719 74.9676 29.2132 75.3143L28.9012 71.8823L30.3572 71.6743L30.5912 75.8603C31.0505 75.9816 31.5575 76.064 32.1122 76.1073L32.1122 72.2723L33.4902 72.2723L33.4902 77.8233ZM34.5952 79.5133L34.5952 81.2553L22.8952 81.2553L22.8952 79.5133L34.5952 79.5133Z" fill="black"/>
<path d="M34.582 69.942L27.38 69.942L27.38 68.2L30.513 68.2L30.513 66.406L31.891 66.406L31.891 68.2L34.582 68.2L34.582 69.942ZM33.919 60.543L33.919 65.847L30.24 65.847L30.24 62.298L29.122 62.298C29.1307 63.2686 29.1524 64.0746 29.187 64.716C29.2217 65.3573 29.2954 66.003 29.408 66.653L28.017 66.77C27.9044 66.016 27.8307 65.262 27.796 64.508C27.7614 63.754 27.744 62.7616 27.744 61.531L27.744 60.569L31.514 60.569L31.514 64.144L32.541 64.144L32.541 60.543L33.919 60.543ZM26.847 61.908L26.847 69.942L22.882 69.942L22.882 68.2L25.482 68.2L25.482 61.908L26.847 61.908Z" fill="black"/>
<path d="M25.885 56.0214C26.9077 55.7181 27.8437 55.5664 28.693 55.5664C29.551 55.5664 30.487 55.7181 31.501 56.0214C32.5237 56.3247 33.412 56.7104 34.166 57.1784L34.166 58.9074C33.4207 58.3701 32.5367 57.9281 31.514 57.5814C30.5 57.2434 29.5597 57.0744 28.693 57.0744C27.835 57.0744 26.8947 57.2434 25.872 57.5814C24.8493 57.9281 23.9697 58.3701 23.233 58.9074L23.233 57.1784C23.987 56.7104 24.871 56.3247 25.885 56.0214Z" fill="black"/>
<path d="M55.5701 687.18L55.5701 685.055L65.2261 684.664L65.2261 687.503L55.5701 687.18ZM52.6801 684.919C53.0427 684.919 53.3317 685.032 53.5471 685.259C53.7737 685.486 53.8871 685.775 53.8871 686.126C53.8871 686.477 53.7737 686.761 53.5471 686.976C53.3204 687.203 53.0314 687.316 52.6801 687.316C52.3287 687.316 52.0397 687.203 51.8131 686.976C51.5864 686.761 51.4731 686.477 51.4731 686.126C51.4731 685.775 51.5864 685.486 51.8131 685.259C52.0397 685.032 52.3287 684.919 52.6801 684.919Z" fill="black"/>
<path d="M54.1591 671.661L57.8821 671.661C58.2561 671.083 58.7094 670.636 59.2421 670.318C59.7748 670.001 60.3641 669.842 61.0101 669.842C61.8374 669.842 62.5628 670.086 63.1861 670.573C63.8094 671.072 64.2911 671.752 64.6311 672.613C64.9711 673.486 65.1411 674.472 65.1411 675.571C65.1411 676.671 64.9711 677.651 64.6311 678.512C64.2911 679.385 63.8094 680.065 63.1861 680.552C62.5628 681.051 61.8374 681.3 61.0101 681.3C60.3641 681.3 59.7748 681.142 59.2421 680.824C58.7094 680.507 58.2561 680.059 57.8821 679.481L54.1591 679.481L54.1591 682.507L52.3231 682.507L52.3231 668.652L54.1591 668.652L54.1591 671.661ZM61.0101 672.069C60.2734 672.069 59.6954 672.387 59.2761 673.021C58.8568 673.656 58.6471 674.506 58.6471 675.571C58.6471 676.625 58.8568 677.47 59.2761 678.104C59.6954 678.739 60.2734 679.056 61.0101 679.056C61.7468 679.056 62.3248 678.739 62.7441 678.104C63.1634 677.47 63.3731 676.625 63.3731 675.571C63.3731 674.506 63.1634 673.656 62.7441 673.021C62.3248 672.387 61.7468 672.069 61.0101 672.069ZM54.1591 677.203L57.0321 677.203C56.9414 676.659 56.8961 676.115 56.8961 675.571C56.8961 675.027 56.9414 674.483 57.0321 673.939L54.1591 673.939L54.1591 677.203Z" fill="black"/>
<path d="M60.738 661.663L65.617 661.663L65.617 663.771L51.235 663.771L51.235 661.663L58.902 661.663L58.902 659.81L60.738 659.81L60.738 661.663ZM55.281 653.469C55.927 654.523 56.845 655.288 58.035 655.764C59.2363 656.251 60.5566 656.495 61.996 656.495L64.529 656.495L64.529 658.688L62.098 658.688C59.0153 658.688 56.8733 659.589 55.672 661.391L53.921 660.15C54.6463 658.982 55.8306 658.132 57.474 657.6C55.672 657.044 54.3743 656.126 53.581 654.846L55.281 653.469ZM65.855 664.774L65.855 666.933L50.555 666.933L50.555 664.774L65.855 664.774Z" fill="black"/>
<path d="M54.1588 644.714L56.9298 644.714L56.9298 640.379L64.9028 640.379L64.9028 642.623L62.5738 642.623L62.5738 649.049L64.9028 649.049L64.9028 651.293L56.9298 651.293L56.9298 646.975L54.1588 646.975L54.1588 652.789L52.3228 652.789L52.3228 638.934L54.1588 638.934L54.1588 644.714ZM58.7148 649.049L60.8058 649.049L60.8058 642.623L58.7148 642.623L58.7148 649.049Z" fill="black"/>
<path d="M64.8179 628.174C64.8179 628.944 64.5912 629.636 64.1379 630.248C63.6959 630.86 63.0612 631.336 62.2339 631.676C61.4066 632.027 60.4432 632.203 59.3439 632.203C58.2332 632.203 57.2586 632.027 56.4199 631.676C55.5926 631.336 54.9522 630.86 54.4989 630.248C54.0569 629.636 53.8359 628.944 53.8359 628.174C53.8359 627.403 54.0569 626.712 54.4989 626.1C54.9522 625.488 55.5926 625.006 56.4199 624.655C57.2586 624.315 58.2332 624.145 59.3439 624.145C60.4432 624.145 61.4066 624.315 62.2339 624.655C63.0612 625.006 63.6959 625.488 64.1379 626.1C64.5912 626.712 64.8179 627.403 64.8179 628.174ZM59.3439 626.321C58.2332 626.321 57.3776 626.485 56.7769 626.814C56.1876 627.154 55.8929 627.607 55.8929 628.174C55.8929 628.752 56.1876 629.205 56.7769 629.534C57.3776 629.874 58.2332 630.044 59.3439 630.044C60.4319 630.044 61.2706 629.874 61.8599 629.534C62.4492 629.205 62.7439 628.752 62.7439 628.174C62.7439 627.607 62.4492 627.154 61.8599 626.814C61.2706 626.485 60.4319 626.321 59.3439 626.321ZM65.8379 633.818L65.8379 636.096L60.1089 636.096L60.1089 638.272L58.2389 638.272L58.2389 636.096L50.5379 636.096L50.5379 633.818L65.8379 633.818Z" fill="black"/>
<path d="M64.4098 612.618L65.9058 612.618L65.9058 614.879L64.4098 614.879L64.4098 617.871L62.6418 617.871L62.6418 614.879C61.8484 614.902 61.1288 615.202 60.4828 615.78C59.8481 616.369 59.3834 617.236 59.0888 618.381L57.3548 617.378C57.5588 616.539 57.8761 615.82 58.3068 615.219C58.7488 614.618 59.2701 614.142 59.8708 613.791C59.2021 613.44 58.6241 612.958 58.1368 612.346C57.6608 611.734 57.3094 610.992 57.0828 610.119L58.8508 609.082C59.1454 610.238 59.6328 611.111 60.3128 611.7C61.0041 612.289 61.7804 612.595 62.6418 612.618L62.6418 609.643L64.4098 609.643L64.4098 612.618ZM52.3058 610.527C52.4531 611.796 52.7478 612.805 53.1898 613.553C53.6431 614.301 54.1588 614.783 54.7368 614.998L54.7368 611.19L56.5218 611.19L56.5218 621.458L54.7368 621.458L54.7368 617.65C54.1588 617.877 53.6431 618.364 53.1898 619.112C52.7478 619.871 52.4474 620.874 52.2888 622.121L50.5718 621.322C50.7191 620.143 51.0194 619.129 51.4728 618.279C51.9148 617.44 52.4644 616.794 53.1218 616.341C52.4644 615.899 51.9204 615.253 51.4898 614.403C51.0478 613.564 50.7474 612.544 50.5888 611.343L52.3058 610.527ZM65.8378 618.993L65.8378 621.254L62.4548 621.254L62.4548 623.277L60.6188 623.277L60.6188 621.254L57.1508 621.254L57.1508 618.993L65.8378 618.993Z" fill="black"/>
<path d="M59.0041 604.296L57.3721 604.296L57.3721 590.441L59.0041 590.441L59.0041 604.296ZM56.6411 591.988L56.6411 602.647L52.9861 602.647L52.9861 594.249L52.1871 594.249L52.1871 603.072L50.6571 603.072L50.6571 592.005L54.3971 592.005L54.3971 600.42L55.1111 600.42L55.1111 591.988L56.6411 591.988ZM65.6001 592.141L65.6001 602.613L61.9451 602.613L61.9451 594.385L61.2141 594.385L61.2141 602.902L59.6671 602.902L59.6671 592.158L63.3731 592.158L63.3731 600.386L64.0701 600.386L64.0701 592.141L65.6001 592.141Z" fill="black"/>
<path d="M64.8179 580.461L64.2399 580.461C63.4806 580.461 62.8119 580.676 62.2339 581.107C61.6559 581.537 61.2422 582.183 60.9929 583.045L59.3609 581.957C59.7349 580.778 60.4206 579.928 61.4179 579.407C60.2506 578.829 59.4459 577.865 59.0039 576.517L60.6699 575.429C60.9646 576.392 61.4292 577.112 62.0639 577.588C62.7099 578.064 63.4352 578.302 64.2399 578.302L64.8179 578.302L64.8179 580.461ZM58.4259 575.344C58.4259 578.698 58.5619 581.254 58.8339 583.011L57.1679 583.164C57.0092 582.416 56.8789 581.498 56.7769 580.41L51.7109 580.41L51.7109 578.268L56.6409 578.268C56.6069 577.599 56.5899 576.704 56.5899 575.582L58.4259 575.344ZM56.0799 581.396L56.0799 583.776L65.6169 583.776L65.6169 585.884L51.2519 585.884L51.2519 583.776L54.3799 583.776L54.3799 581.396L56.0799 581.396ZM65.8379 586.836L65.8379 588.995L50.5379 588.995L50.5379 586.836L65.8379 586.836Z" fill="black"/>
<path d="M64.6819 566.403L62.5059 566.403C61.0326 566.403 59.6782 566.692 58.4429 567.27C57.2189 567.848 56.3236 568.727 55.7569 569.905L53.9549 568.545C54.3402 567.775 54.8786 567.117 55.5699 566.573C56.2726 566.029 57.0886 565.593 58.0179 565.264C57.0206 564.936 56.1479 564.477 55.3999 563.887C54.6632 563.298 54.0909 562.584 53.6829 561.745L55.5189 560.402C56.0969 561.638 57.0262 562.567 58.3069 563.19C59.5876 563.825 60.9872 564.142 62.5059 564.142L64.6819 564.142L64.6819 566.403ZM65.8379 570.449L65.8379 572.727L59.9899 572.727L59.9899 574.92L58.1029 574.92L58.1029 572.727L50.5379 572.727L50.5379 570.449L65.8379 570.449Z" fill="black"/>
<path d="M64.7839 550.909L62.9989 550.909L62.9989 547.934L62.8799 547.934C61.9052 547.934 61.0099 548.229 60.1939 548.818C59.3779 549.419 58.7829 550.309 58.4089 551.487L56.6579 550.348C56.9072 549.521 57.2869 548.813 57.7969 548.223C58.3069 547.634 58.9132 547.164 59.6159 546.812C58.8566 546.461 58.1992 545.979 57.6439 545.367C57.0999 544.755 56.6862 544.013 56.4029 543.14L58.1709 541.984C58.5562 543.197 59.1796 544.104 60.0409 544.704C60.9022 545.316 61.8486 545.622 62.8799 545.622L62.9989 545.622L62.9989 542.596L64.7839 542.596L64.7839 550.909ZM55.8079 544.449L55.8079 546.71L52.6119 546.71L52.6119 555.04L50.8099 555.04L50.8099 544.449L55.8079 544.449ZM65.8379 552.388L65.8379 554.666L54.8049 554.666L54.8049 552.388L65.8379 552.388Z" fill="black"/>
<path d="M64.291 534.843C63.4863 534.843 62.71 534.792 61.962 534.69L61.962 537.614L65.855 537.614L65.855 539.892L50.555 539.892L50.555 537.614L55.961 537.614L55.961 534.078L57.78 534.078L57.78 537.614L60.177 537.614L60.177 534.316C58.7036 533.885 57.3776 533.16 56.199 532.14C55.0316 531.131 54.0173 529.771 53.156 528.06L54.924 526.887C55.8533 528.666 56.9243 530.009 58.137 530.916C59.3496 531.822 60.8003 532.366 62.489 532.548L62.489 527.618L64.291 527.618L64.291 534.843Z" fill="black"/>
<path d="M55.9441 517.976L57.2871 517.976L57.2871 512.23L59.0721 512.23L59.0721 526.051L57.2871 526.051L57.2871 520.254L55.9441 520.254L55.9441 524.402L50.7081 524.402L50.7081 513.828L55.9441 513.828L55.9441 517.976ZM61.5371 512.893C61.6731 514.004 61.9281 514.939 62.3021 515.698C62.6874 516.469 63.1351 517.041 63.6451 517.415C64.1664 517.789 64.6991 517.976 65.2431 517.976L65.6851 517.976L65.6851 520.305L65.2431 520.305C64.6991 520.305 64.1664 520.492 63.6451 520.866C63.1351 521.24 62.6874 521.807 62.3021 522.566C61.9281 523.337 61.6731 524.278 61.5371 525.388L59.7861 524.589C59.9561 523.309 60.2904 522.204 60.7891 521.274C61.2877 520.356 61.9111 519.648 62.6591 519.149C61.9111 518.651 61.2877 517.937 60.7891 517.007C60.2904 516.089 59.9561 514.984 59.7861 513.692L61.5371 512.893ZM52.4931 522.192L54.1591 522.192L54.1591 516.038L52.4931 516.038L52.4931 522.192Z" fill="black"/>
<path d="M57.3549 506.255L55.6719 506.255L55.6719 498.214L54.8389 498.214L54.8389 506.085L53.2749 506.085L53.2749 498.214L52.4249 498.214L52.4249 506.527L50.7079 506.527L50.7079 495.987L57.3549 495.987L57.3549 506.255ZM65.0219 494.219L65.0219 501.648L58.5279 501.648L58.5279 494.219L65.0219 494.219ZM60.2789 499.438L63.2369 499.438L63.2369 496.446L60.2789 496.446L60.2789 499.438ZM65.8379 503.909L65.8379 506.17L58.0179 506.17L58.0179 503.909L65.8379 503.909Z" fill="black"/>
<path d="M64.7839 482.431L57.5929 482.431L57.5929 475.121L64.7839 475.121L64.7839 482.431ZM56.0969 476.498L56.0969 486.732L50.5379 486.732L50.5379 484.471L54.3119 484.471L54.3119 476.498L56.0969 476.498ZM59.3779 480.204L62.9989 480.204L62.9989 477.348L59.3779 477.348L59.3779 480.204ZM65.8379 484.471L65.8379 486.732L62.2509 486.732L62.2509 488.738L60.3809 488.738L60.3809 486.732L56.7769 486.732L56.7769 484.471L65.8379 484.471Z" fill="black"/>
<path d="M64.0699 463.203L65.7359 463.203L65.7359 465.464L64.0699 465.464L64.0699 468.456L62.3019 468.456L62.3019 465.464L62.2849 465.464C61.3669 465.464 60.5226 465.758 59.7519 466.348C58.9812 466.937 58.4202 467.821 58.0689 469L56.3009 467.912C56.5389 467.096 56.8959 466.387 57.3719 465.787C57.8592 465.197 58.4372 464.721 59.1059 464.359C58.3919 464.019 57.7686 463.548 57.2359 462.948C56.7146 462.358 56.3179 461.639 56.0459 460.789L57.8309 459.684C58.1936 460.862 58.7772 461.741 59.5819 462.319C60.3979 462.908 61.2989 463.203 62.2849 463.203L62.3019 463.203L62.3019 460.228L64.0699 460.228L64.0699 463.203ZM55.4679 462.489L55.4679 464.767L52.6119 464.767L52.6119 472.978L50.8099 472.978L50.8099 462.489L55.4679 462.489ZM61.4179 467.963L61.4179 470.36L65.8379 470.36L65.8379 472.621L54.5329 472.621L54.5329 470.36L59.5819 470.36L59.5819 467.963L61.4179 467.963Z" fill="black"/>
<path d="M65.583 445.038L64.614 445.038L64.614 450.869L65.583 450.869L65.583 453.113L60.466 453.113L60.466 442.794L65.583 442.794L65.583 445.038ZM59.684 441.043L59.684 454.864L57.899 454.864L57.899 441.043L59.684 441.043ZM57.066 442.607L57.066 453.198L53.139 453.198L53.139 444.851L52.323 444.851L52.323 453.606L50.64 453.606L50.64 442.641L54.686 442.641L54.686 450.971L55.417 450.971L55.417 442.607L57.066 442.607ZM62.115 450.869L62.965 450.869L62.965 445.038L62.115 445.038L62.115 450.869Z" fill="black"/>
<path d="M65.8721 438.885L50.5211 438.885L50.5211 436.607L65.8721 436.607L65.8721 438.885ZM59.3441 426.594C60.4434 426.594 61.4067 426.764 62.2341 427.104C63.0614 427.455 63.6961 427.937 64.1381 428.549C64.5914 429.161 64.8181 429.852 64.8181 430.623C64.8181 431.393 64.5914 432.085 64.1381 432.697C63.6961 433.309 63.0614 433.785 62.2341 434.125C61.4067 434.476 60.4434 434.652 59.3441 434.652C58.2334 434.652 57.2587 434.476 56.4201 434.125C55.5927 433.785 54.9524 433.309 54.4991 432.697C54.0571 432.085 53.8361 431.393 53.8361 430.623C53.8361 429.852 54.0571 429.161 54.4991 428.549C54.9524 427.937 55.5927 427.455 56.4201 427.104C57.2587 426.764 58.2334 426.594 59.3441 426.594ZM59.3441 428.77C58.2334 428.77 57.3777 428.934 56.7771 429.263C56.1877 429.603 55.8931 430.056 55.8931 430.623C55.8931 431.189 56.1877 431.637 56.7771 431.966C57.3777 432.306 58.2334 432.476 59.3441 432.476C60.4321 432.476 61.2707 432.306 61.8601 431.966C62.4494 431.637 62.7441 431.189 62.7441 430.623C62.7441 430.056 62.4494 429.603 61.8601 429.263C61.2707 428.934 60.4321 428.77 59.3441 428.77Z" fill="black"/>
<path d="M60.313 419.166L65.583 419.166L65.583 421.274L51.218 421.274L51.218 419.166L58.494 419.166L58.494 417.534L60.313 417.534L60.313 419.166ZM64.189 411.754L64.189 417.432L62.404 417.432L62.404 413.896L60.058 413.896L60.058 416.871L58.324 416.871L58.324 413.896L55.689 413.896C55.7003 414.723 55.7286 415.449 55.774 416.072C55.8193 416.707 55.8986 417.347 56.012 417.993L54.21 418.163C54.074 417.381 53.9833 416.61 53.938 415.851C53.904 415.092 53.887 414.077 53.887 412.808L53.887 411.754L64.189 411.754ZM65.855 422.328L65.855 424.487L50.555 424.487L50.555 422.328L65.855 422.328Z" fill="black"/>
<path d="M55.5701 404.907L55.5701 402.782L65.2261 402.391L65.2261 405.23L55.5701 404.907ZM52.6801 402.646C53.0427 402.646 53.3317 402.759 53.5471 402.986C53.7737 403.212 53.8871 403.501 53.8871 403.853C53.8871 404.204 53.7737 404.487 53.5471 404.703C53.3204 404.929 53.0314 405.043 52.6801 405.043C52.3287 405.043 52.0397 404.929 51.8131 404.703C51.5864 404.487 51.4731 404.204 51.4731 403.853C51.4731 403.501 51.5864 403.212 51.8131 402.986C52.0397 402.759 52.3287 402.646 52.6801 402.646Z" fill="black"/>
<path d="M65.8721 398.393L60.2451 398.393L60.2451 400.569L58.3751 400.569L58.3751 398.393L50.5211 398.393L50.5211 396.115L65.8721 396.115L65.8721 398.393ZM64.4441 386.969L64.4441 394.109L62.6251 394.109L62.6251 389.23L56.0631 389.23C56.0857 390.397 56.1311 391.434 56.1991 392.341C56.2671 393.259 56.3804 394.177 56.5391 395.095L54.6691 395.316C54.4764 394.25 54.3461 393.185 54.2781 392.12C54.2214 391.066 54.1931 389.779 54.1931 388.261L54.1931 386.969L64.4441 386.969Z" fill="black"/>
<path d="M65.855 384.316L50.555 384.316L50.555 382.055L65.855 382.055L65.855 384.316ZM64.41 372.297L64.41 374.541L56.233 374.541C56.2896 376.853 56.505 378.972 56.879 380.899L55.009 381.154C54.5443 378.921 54.312 376.428 54.312 373.674L54.312 372.297L64.41 372.297Z" fill="black"/>
<path d="M56.6921 360.485L55.4511 360.485L55.4511 366.503L56.6921 366.503L56.6921 368.747L50.7081 368.747L50.7081 358.258L56.6921 358.258L56.6921 360.485ZM59.1911 356.66L59.1911 370.481L57.4231 370.481L57.4231 356.66L59.1911 356.66ZM61.6051 357.323C61.7297 358.445 61.9791 359.386 62.3531 360.145C62.7271 360.904 63.1691 361.471 63.6791 361.845C64.1891 362.219 64.7104 362.406 65.2431 362.406L65.6851 362.406L65.6851 364.735L65.2431 364.735C64.7104 364.735 64.1891 364.922 63.6791 365.296C63.1804 365.67 62.7384 366.237 62.3531 366.996C61.9791 367.767 61.7297 368.707 61.6051 369.818L59.8541 369.019C60.0241 367.738 60.3527 366.633 60.8401 365.704C61.3387 364.786 61.9564 364.078 62.6931 363.579C61.9564 363.08 61.3387 362.366 60.8401 361.437C60.3527 360.519 60.0241 359.414 59.8541 358.122L61.6051 357.323ZM52.4761 366.503L53.7511 366.503L53.7511 360.485L52.4761 360.485L52.4761 366.503Z" fill="black"/>
<path d="M64.3419 352.356L65.8379 352.356L65.8379 354.617L57.0659 354.617L57.0659 352.356L59.7179 352.356L59.7179 349.942L61.5199 349.942L61.5199 352.356L62.5399 352.356L62.5399 349.942L64.3419 349.942L64.3419 352.356ZM58.6979 341.68C59.1286 342.904 59.8142 343.805 60.7549 344.383C61.6956 344.972 62.7496 345.267 63.9169 345.267L65.3109 345.267L65.3109 347.562L63.9169 347.562C62.7949 347.562 61.7806 347.839 60.8739 348.395C59.9672 348.95 59.2986 349.8 58.8679 350.945L57.0829 349.704C57.6722 348.196 58.7319 347.103 60.2619 346.423C58.6412 345.709 57.5306 344.541 56.9299 342.921L58.6979 341.68ZM52.3909 342.581C52.7309 343.533 53.2352 344.241 53.9039 344.706C54.5839 345.17 55.3376 345.403 56.1649 345.403L56.4879 345.403L56.4879 347.596L56.1649 347.596C55.5076 347.596 54.8786 347.732 54.2779 348.004C53.6886 348.276 53.1899 348.695 52.7819 349.262C53.2126 349.84 53.7282 350.265 54.3289 350.537C54.9296 350.82 55.5416 350.962 56.1649 350.962L56.4879 350.962L56.4879 353.206L56.1649 353.206C55.2922 353.206 54.5216 353.432 53.8529 353.886C53.1842 354.35 52.6969 355.064 52.3909 356.028L50.7589 354.906C51.2236 353.546 52.0849 352.594 53.3429 352.05C52.0056 351.472 51.0876 350.548 50.5889 349.279C51.0762 347.987 51.9772 347.057 53.2919 346.491C52.0679 345.913 51.2236 344.978 50.7589 343.686L52.3909 342.581Z" fill="black"/>
<path d="M64.4951 335.866L62.7101 335.866L62.7101 330.205L59.7011 330.205L59.7011 335.951L57.8821 335.951L57.8821 333.061L55.4341 333.061C55.4907 334.523 55.5757 335.708 55.6891 336.614L54.0571 336.784C53.8417 335.47 53.6944 334.115 53.6151 332.721C53.5471 331.339 53.5131 329.843 53.5131 328.233L53.5131 327.247L55.3321 326.992C55.3321 328.647 55.3434 329.916 55.3661 330.8L57.8821 330.8L57.8821 327.944L64.4951 327.944L64.4951 335.866ZM65.8721 337.447L65.8721 339.708L50.5211 339.708L50.5211 337.447L65.8721 337.447Z" fill="black"/>
<path d="M64.3758 315.466L65.9058 315.466L65.9058 317.727L64.3758 317.727L64.3758 320.702L62.5908 320.702L62.5908 317.727C61.7634 317.727 61.0041 318.021 60.3128 318.611C59.6328 319.2 59.1454 320.084 58.8508 321.263L57.0828 320.243C57.3094 319.404 57.6438 318.684 58.0858 318.084C58.5278 317.483 59.0548 317.001 59.6668 316.639C58.9868 316.287 58.4031 315.806 57.9158 315.194C57.4284 314.582 57.0658 313.845 56.8278 312.984L58.5958 311.93C58.9244 313.108 59.4458 313.992 60.1598 314.582C60.8851 315.171 61.6954 315.466 62.5908 315.466L62.5908 312.474L64.3758 312.474L64.3758 315.466ZM56.2498 314.65L56.2498 324.884L50.7078 324.884L50.7078 314.65L56.2498 314.65ZM52.4928 322.674L54.4648 322.674L54.4648 316.877L52.4928 316.877L52.4928 322.674ZM61.8768 320.345L61.8768 322.606L65.8378 322.606L65.8378 324.884L56.8958 324.884L56.8958 322.606L60.0578 322.606L60.0578 320.345L61.8768 320.345Z" fill="black"/>
<path d="M65.855 309.327L62.268 309.327L62.268 311.282L60.415 311.282L60.415 309.327L57.049 309.327L57.049 307.032L65.855 307.032L65.855 309.327ZM64.852 297.75L64.852 304.601L63.033 304.601L63.033 299.994L59.616 299.994C59.6273 301.399 59.6613 302.533 59.718 303.394C59.786 304.255 59.905 305.088 60.075 305.893L58.29 306.114C58.0973 305.219 57.967 304.272 57.899 303.275C57.8423 302.289 57.814 300.872 57.814 299.025L57.814 297.75L64.852 297.75ZM53.649 299.076C54.295 299.076 54.8503 299.286 55.315 299.705C55.791 300.136 56.1536 300.742 56.403 301.524C56.6523 302.306 56.777 303.224 56.777 304.278C56.777 305.321 56.6523 306.233 56.403 307.015C56.1536 307.797 55.791 308.398 55.315 308.817C54.8503 309.248 54.295 309.463 53.649 309.463C53.003 309.463 52.4476 309.248 51.983 308.817C51.5183 308.398 51.1613 307.797 50.912 307.015C50.6626 306.233 50.538 305.321 50.538 304.278C50.538 302.68 50.8156 301.411 51.371 300.47C51.915 299.541 52.6743 299.076 53.649 299.076ZM53.649 301.32C53.207 301.32 52.8783 301.569 52.663 302.068C52.4476 302.578 52.34 303.315 52.34 304.278C52.34 305.241 52.4476 305.972 52.663 306.471C52.8783 306.981 53.207 307.236 53.649 307.236C54.533 307.236 54.975 306.25 54.975 304.278C54.975 302.306 54.533 301.32 53.649 301.32Z" fill="black"/>
<path d="M65.855 291.59L50.555 291.59L50.555 289.448L65.855 289.448L65.855 291.59ZM59.225 278.551C60.3696 278.551 61.3613 278.687 62.2 278.959C63.0386 279.231 63.679 279.616 64.121 280.115C64.5743 280.613 64.801 281.197 64.801 281.866C64.801 282.784 64.3986 283.537 63.594 284.127C62.7893 284.716 61.673 285.067 60.245 285.181L60.245 286.303L65.617 286.303L65.617 288.428L51.235 288.428L51.235 286.303L58.426 286.303L58.426 285.198C56.93 285.107 55.757 284.761 54.907 284.161C54.057 283.571 53.632 282.806 53.632 281.866C53.632 281.197 53.853 280.613 54.295 280.115C54.7483 279.616 55.3943 279.231 56.233 278.959C57.083 278.687 58.0803 278.551 59.225 278.551ZM59.225 280.608C58.069 280.608 57.202 280.715 56.624 280.931C56.0573 281.146 55.774 281.458 55.774 281.866C55.774 282.716 56.9243 283.141 59.225 283.141C61.5143 283.141 62.659 282.716 62.659 281.866C62.659 281.458 62.37 281.146 61.792 280.931C61.2253 280.715 60.3696 280.608 59.225 280.608Z" fill="black"/>
<path d="M64.8179 268.469L64.2399 268.469C63.4806 268.469 62.8119 268.684 62.2339 269.115C61.6559 269.545 61.2422 270.191 60.9929 271.053L59.3609 269.965C59.7349 268.786 60.4206 267.936 61.4179 267.415C60.2506 266.837 59.4459 265.873 59.0039 264.525L60.6699 263.437C60.9646 264.4 61.4292 265.12 62.0639 265.596C62.7099 266.072 63.4352 266.31 64.2399 266.31L64.8179 266.31L64.8179 268.469ZM58.4259 263.352C58.4259 266.706 58.5619 269.262 58.8339 271.019L57.1679 271.172C57.0092 270.424 56.8789 269.506 56.7769 268.418L51.7109 268.418L51.7109 266.276L56.6409 266.276C56.6069 265.607 56.5899 264.712 56.5899 263.59L58.4259 263.352ZM56.0799 269.404L56.0799 271.784L65.6169 271.784L65.6169 273.892L51.2519 273.892L51.2519 271.784L54.3799 271.784L54.3799 269.404L56.0799 269.404ZM65.8379 274.844L65.8379 277.003L50.5379 277.003L50.5379 274.844L65.8379 274.844Z" fill="black"/>
<path d="M64.6819 254.411L62.5059 254.411C61.0326 254.411 59.6782 254.7 58.4429 255.278C57.2189 255.856 56.3236 256.734 55.7569 257.913L53.9549 256.553C54.3402 255.782 54.8786 255.125 55.5699 254.581C56.2726 254.037 57.0886 253.601 58.0179 253.272C57.0206 252.943 56.1479 252.484 55.3999 251.895C54.6632 251.306 54.0909 250.592 53.6829 249.753L55.5189 248.41C56.0969 249.645 57.0262 250.575 58.3069 251.198C59.5876 251.833 60.9872 252.15 62.5059 252.15L64.6819 252.15L64.6819 254.411ZM65.8379 258.457L65.8379 260.735L59.9899 260.735L59.9899 262.928L58.1029 262.928L58.1029 260.735L50.5379 260.735L50.5379 258.457L65.8379 258.457Z" fill="black"/>
<path d="M64.4269 237.758L54.2439 237.758L54.2439 230.414L64.4269 230.414L64.4269 237.758ZM56.0459 235.531L62.6419 235.531L62.6419 232.641L56.0459 232.641L56.0459 235.531ZM65.8379 239.696L65.8379 241.974L60.1089 241.974L60.1089 244.15L58.2389 244.15L58.2389 241.974L50.5379 241.974L50.5379 239.696L65.8379 239.696Z" fill="black"/>
<path d="M54.0572 220.878L56.3012 220.878L56.3012 216.679L61.5202 216.679L61.5202 225.162L63.1012 225.162L63.1012 216.662L64.8862 216.662L64.8862 227.406L59.7522 227.406L59.7522 218.923L58.1032 218.923L58.1032 227.746L56.3012 227.746L56.3012 223.139L54.0572 223.139L54.0572 228.953L52.2382 228.953L52.2382 215.098L54.0572 215.098L54.0572 220.878Z" fill="black"/>
<path d="M64.8179 204.334C64.8179 205.104 64.5912 205.796 64.1379 206.408C63.6959 207.02 63.0612 207.496 62.2339 207.836C61.4066 208.187 60.4432 208.363 59.3439 208.363C58.2332 208.363 57.2586 208.187 56.4199 207.836C55.5926 207.496 54.9522 207.02 54.4989 206.408C54.0569 205.796 53.8359 205.104 53.8359 204.334C53.8359 203.563 54.0569 202.872 54.4989 202.26C54.9522 201.648 55.5926 201.166 56.4199 200.815C57.2586 200.475 58.2332 200.305 59.3439 200.305C60.4432 200.305 61.4066 200.475 62.2339 200.815C63.0612 201.166 63.6959 201.648 64.1379 202.26C64.5912 202.872 64.8179 203.563 64.8179 204.334ZM59.3439 202.481C58.2332 202.481 57.3776 202.645 56.7769 202.974C56.1876 203.314 55.8929 203.767 55.8929 204.334C55.8929 204.912 56.1876 205.365 56.7769 205.694C57.3776 206.034 58.2332 206.204 59.3439 206.204C60.4319 206.204 61.2706 206.034 61.8599 205.694C62.4492 205.365 62.7439 204.912 62.7439 204.334C62.7439 203.767 62.4492 203.314 61.8599 202.974C61.2706 202.645 60.4319 202.481 59.3439 202.481ZM65.8379 209.978L65.8379 212.256L60.1089 212.256L60.1089 214.432L58.2389 214.432L58.2389 212.256L50.5379 212.256L50.5379 209.978L65.8379 209.978Z" fill="black"/>
<path d="M65.8381 193.514L61.2141 193.514L61.2141 195.52L59.3441 195.52L59.3441 193.514L54.4141 193.514L54.4141 191.236L65.8381 191.236L65.8381 193.514ZM64.2741 181.461L64.2741 184.827L65.8721 184.827L65.8721 187.088L64.2741 187.088L64.2741 190.454L62.5061 190.454L62.5061 181.461L64.2741 181.461ZM59.0211 182.192C59.5991 182.192 60.1091 182.351 60.5511 182.668C61.0044 182.997 61.3557 183.444 61.6051 184.011C61.8544 184.589 61.9791 185.241 61.9791 185.966C61.9791 186.691 61.8544 187.337 61.6051 187.904C61.3557 188.482 61.0044 188.93 60.5511 189.247C60.1091 189.576 59.5991 189.74 59.0211 189.74C58.4431 189.74 57.9274 189.576 57.4741 189.247C57.0321 188.93 56.6864 188.482 56.4371 187.904C56.1877 187.337 56.0631 186.691 56.0631 185.966C56.0631 185.241 56.1877 184.589 56.4371 184.011C56.6864 183.444 57.0321 182.997 57.4741 182.668C57.9274 182.351 58.4431 182.192 59.0211 182.192ZM55.2811 183.62L55.2811 185.881L52.6121 185.881L52.6121 194.058L50.8101 194.058L50.8101 183.62L55.2811 183.62ZM59.0211 184.368C58.6244 184.368 58.3184 184.51 58.1031 184.793C57.8877 185.088 57.7801 185.479 57.7801 185.966C57.7801 186.442 57.8877 186.822 58.1031 187.105C58.3184 187.4 58.6244 187.547 59.0211 187.547C59.4177 187.547 59.7237 187.4 59.9391 187.105C60.1544 186.822 60.2621 186.442 60.2621 185.966C60.2621 185.479 60.1544 185.088 59.9391 184.793C59.7237 184.51 59.4177 184.368 59.0211 184.368Z" fill="black"/>
<path d="M65.26 171.533C65.26 172.303 65.1183 172.995 64.835 173.607C64.563 174.219 64.172 174.695 63.662 175.035C63.1633 175.386 62.5966 175.562 61.962 175.562C61.3386 175.562 60.7776 175.386 60.279 175.035C59.7916 174.695 59.4063 174.219 59.123 173.607C58.8396 172.995 58.698 172.303 58.698 171.533C58.698 170.773 58.8396 170.088 59.123 169.476C59.4063 168.864 59.7916 168.382 60.279 168.031C60.7776 167.691 61.3386 167.521 61.962 167.521C62.5966 167.521 63.1633 167.691 63.662 168.031C64.172 168.382 64.563 168.864 64.835 169.476C65.1183 170.088 65.26 170.773 65.26 171.533ZM57.831 166.637C57.831 168.518 57.8593 170.241 57.916 171.805C57.984 173.38 58.1313 174.882 58.358 176.31L56.692 176.446C56.454 175.256 56.284 174.02 56.182 172.74L51.014 172.74L51.014 170.462L56.046 170.462C56.0006 169.317 55.978 168.127 55.978 166.892L57.831 166.637ZM61.962 169.697C61.52 169.697 61.1686 169.867 60.908 170.207C60.6586 170.547 60.534 170.989 60.534 171.533C60.534 172.088 60.6586 172.536 60.908 172.876C61.1573 173.227 61.5086 173.403 61.962 173.403C62.4266 173.403 62.7836 173.227 63.033 172.876C63.2936 172.536 63.424 172.088 63.424 171.533C63.424 170.989 63.2936 170.547 63.033 170.207C62.7836 169.867 62.4266 169.697 61.962 169.697ZM65.855 177.16L65.855 179.421L50.555 179.421L50.555 177.16L65.855 177.16Z" fill="black"/>
<path d="M65.6338 154.747C65.6338 156.504 65.4071 157.869 64.9538 158.844C64.5118 159.819 63.8715 160.306 63.0328 160.306C62.1941 160.306 61.5481 159.819 61.0948 158.844C60.6415 157.869 60.4148 156.504 60.4148 154.747C60.4148 152.979 60.6415 151.608 61.0948 150.633C61.5481 149.67 62.1941 149.188 63.0328 149.188C63.8715 149.188 64.5118 149.67 64.9538 150.633C65.4071 151.608 65.6338 152.979 65.6338 154.747ZM59.7348 147.828L59.7348 161.649L57.9498 161.649L57.9498 147.828L59.7348 147.828ZM57.1338 149.392L57.1338 159.983L53.1558 159.983L53.1558 151.636L52.3398 151.636L52.3398 160.391L50.6398 160.391L50.6398 149.426L54.7198 149.426L54.7198 157.756L55.4508 157.756L55.4508 149.392L57.1338 149.392ZM63.0328 151.534C62.6928 151.534 62.4435 151.795 62.2848 152.316C62.1375 152.837 62.0638 153.648 62.0638 154.747C62.0638 155.846 62.1375 156.651 62.2848 157.161C62.4435 157.682 62.6928 157.943 63.0328 157.943C63.3615 157.943 63.5995 157.682 63.7468 157.161C63.9055 156.64 63.9848 155.835 63.9848 154.747C63.9848 153.648 63.9055 152.837 63.7468 152.316C63.5995 151.795 63.3615 151.534 63.0328 151.534Z" fill="black"/>
<path d="M65.855 145.004L62.319 145.004L62.319 147.027L60.449 147.027L60.449 145.004L57.032 145.004L57.032 142.743L65.855 142.743L65.855 145.004ZM58.443 132.832C58.8736 134.453 59.4913 135.728 60.296 136.657C61.1006 137.586 62.0186 138.136 63.05 138.306L63.05 133.563L64.869 133.563L64.869 140.805C62.8176 140.805 61.0893 140.199 59.684 138.986C58.2786 137.773 57.2643 136.028 56.641 133.75L58.443 132.832ZM53.683 134.889C54.3176 134.889 54.8673 135.099 55.332 135.518C55.808 135.949 56.1706 136.555 56.42 137.337C56.6806 138.119 56.811 139.026 56.811 140.057C56.811 141.077 56.6806 141.972 56.42 142.743C56.1706 143.525 55.808 144.126 55.332 144.545C54.8673 144.976 54.3176 145.191 53.683 145.191C53.0483 145.191 52.493 144.976 52.017 144.545C51.541 144.126 51.1783 143.525 50.929 142.743C50.6683 141.972 50.538 141.077 50.538 140.057C50.538 139.026 50.6683 138.119 50.929 137.337C51.1783 136.555 51.541 135.949 52.017 135.518C52.493 135.099 53.0483 134.889 53.683 134.889ZM53.683 137.133C53.2296 137.133 52.8783 137.388 52.629 137.898C52.391 138.408 52.272 139.128 52.272 140.057C52.272 140.986 52.391 141.7 52.629 142.199C52.8783 142.709 53.2296 142.964 53.683 142.964C54.1363 142.964 54.482 142.709 54.72 142.199C54.958 141.7 55.077 140.986 55.077 140.057C55.077 139.128 54.958 138.408 54.72 137.898C54.482 137.388 54.1363 137.133 53.683 137.133Z" fill="black"/>
<path d="M65.855 130.927L54.686 130.927L54.686 128.649L59.599 128.649L59.599 126.082L61.435 126.082L61.435 128.649L65.855 128.649L65.855 130.927ZM57.933 118.262C58.4203 119.837 59.0946 121.101 59.956 122.053C60.8286 123.005 61.8146 123.571 62.914 123.753L62.914 119.078L64.716 119.078L64.716 126.201C62.6533 126.201 60.8853 125.594 59.412 124.382C57.9386 123.169 56.845 121.441 56.131 119.197L57.933 118.262ZM55.791 120.863L55.791 123.141L52.612 123.141L52.612 131.301L50.81 131.301L50.81 120.863L55.791 120.863Z" fill="black"/>
<path d="M65.855 112.171L50.555 112.171L50.555 109.91L65.855 109.91L65.855 112.171ZM55.4 99.3359C55.4 101.036 55.4113 102.345 55.434 103.263L58.188 103.263L58.188 100.373L64.546 100.373L64.546 102.651L59.973 102.651L59.973 108.414L58.188 108.414L58.188 105.524L55.502 105.524C55.5473 106.691 55.6436 107.876 55.791 109.077L54.142 109.196C53.9153 107.893 53.7623 106.55 53.683 105.167C53.615 103.784 53.581 102.294 53.581 100.696L53.581 99.5739L55.4 99.3359Z" fill="black"/>
</svg>
