<svg xmlns="http://www.w3.org/2000/svg" width="87" height="96" viewBox="0 0 87 96" fill="none">
  <path fill-rule="evenodd" clip-rule="evenodd" d="M39.8815 0.116928C39.9428 1.73066 41.2766 3.01394 42.9025 3.00137C43.021 3.00046 43.1395 3 43.2582 3C43.3769 3 43.4954 3.00046 43.6139 3.00137C45.2398 3.01394 46.5736 1.73066 46.6349 0.116928C46.1375 0.0823649 45.6381 0.055378 45.1367 0.0360826C44.6387 0.0169203 44.1388 0.00534269 43.6371 0.00146397C43.5109 0.000488584 43.3846 0 43.2582 0C43.1318 0 43.0055 0.000488589 42.8793 0.00146398C42.3776 0.00534273 41.8777 0.0169203 41.3797 0.0360828C40.8783 0.0553781 40.3789 0.082365 39.8815 0.116928Z" fill="url(#paint0_linear_246_262)"/>
  <path fill-rule="evenodd" clip-rule="evenodd" d="M46.6349 95.8845C46.5736 94.2708 45.2398 92.9875 43.6139 93.0001C43.4954 93.001 43.3769 93.0015 43.2582 93.0015C43.1395 93.0015 43.021 93.001 42.9026 93.0001C41.2766 92.9875 39.9428 94.2708 39.8816 95.8845C40.3789 95.9191 40.8783 95.9461 41.3798 95.9654C41.8777 95.9845 42.3776 95.9961 42.8794 96C43.0055 96.001 43.1318 96.0015 43.2582 96.0015C43.3846 96.0015 43.5109 96.001 43.6371 96C44.1388 95.9961 44.6387 95.9845 45.1367 95.9654C45.6381 95.9461 46.1375 95.9191 46.6349 95.8845Z" fill="url(#paint1_linear_246_262)"/>
  <path fill-rule="evenodd" clip-rule="evenodd" d="M0.101263 26.9833C1.52942 27.7371 3.30768 27.2236 4.10976 25.8092C4.16819 25.7062 4.22707 25.6033 4.28641 25.5005C4.34575 25.3978 4.40542 25.2953 4.46544 25.1932C5.28929 23.7914 4.84484 21.9946 3.47793 21.1347C3.19932 21.5481 2.92623 21.9672 2.65881 22.3918C2.39324 22.8134 2.13326 23.2406 1.87903 23.6732C1.8151 23.7819 1.75153 23.8911 1.68833 24.0005C1.62513 24.11 1.56241 24.2196 1.50017 24.3294C1.25266 24.7658 1.01273 25.2045 0.780348 25.6454C0.546353 26.0892 0.320006 26.5353 0.101263 26.9833Z" fill="url(#paint2_linear_246_262)"/>
  <path fill-rule="evenodd" clip-rule="evenodd" d="M86.4151 69.0187C84.987 68.2649 83.2087 68.7783 82.4066 70.1927C82.3482 70.2958 82.2893 70.3987 82.23 70.5014C82.1706 70.6042 82.111 70.7066 82.051 70.8088C81.2271 72.2106 81.6715 74.0073 83.0385 74.8672C83.3171 74.4538 83.5902 74.0348 83.8576 73.6102C84.1231 73.1885 84.3831 72.7614 84.6374 72.3288C84.7013 72.22 84.7649 72.1109 84.8281 72.0014C84.8913 71.892 84.954 71.7823 85.0162 71.6726C85.2637 71.2361 85.5037 70.7974 85.736 70.3566C85.97 69.9127 86.1964 69.4667 86.4151 69.0187Z" fill="url(#paint3_linear_246_262)"/>
  <path fill-rule="evenodd" clip-rule="evenodd" d="M83.0384 21.1346C81.6715 21.9945 81.2271 23.7913 82.0509 25.1931C82.111 25.2952 82.1706 25.3977 82.23 25.5005C82.2893 25.6032 82.3482 25.7061 82.4066 25.8092C83.2087 27.2235 84.987 27.737 86.4151 26.9832C86.1964 26.5352 85.97 26.0892 85.736 25.6453C85.5036 25.2045 85.2637 24.7657 85.0162 24.3293C84.954 24.2195 84.8912 24.1099 84.828 24.0005C84.7648 23.891 84.7013 23.7819 84.6373 23.6731C84.3831 23.2405 84.1231 22.8134 83.8576 22.3917C83.5901 21.9671 83.3171 21.5481 83.0384 21.1346Z" fill="url(#paint4_linear_246_262)"/>
  <path fill-rule="evenodd" clip-rule="evenodd" d="M3.47791 74.8668C4.84482 74.0069 5.28927 72.2102 4.46542 70.8083C4.4054 70.7062 4.34573 70.6038 4.28639 70.501C4.22706 70.3982 4.16817 70.2953 4.10975 70.1923C3.30767 68.7779 1.5294 68.2644 0.101245 69.0183C0.319988 69.4663 0.546336 69.9123 0.780332 70.3562C1.01272 70.797 1.25264 71.2357 1.50015 71.6722C1.56239 71.7819 1.62511 71.8915 1.68831 72.001C1.75152 72.1105 1.81508 72.2196 1.87901 72.3284C2.13324 72.761 2.39322 73.1881 2.6588 73.6098C2.92621 74.0344 3.1993 74.4534 3.47791 74.8668Z" fill="url(#paint5_linear_246_262)"/>
  <defs>
    <linearGradient id="paint0_linear_246_262" x1="-4.74182" y1="48" x2="91.2582" y2="48" gradientUnits="userSpaceOnUse">
      <stop stop-color="#F9F3FF"/>
      <stop offset="1" stop-color="#D9D9D9"/>
    </linearGradient>
    <linearGradient id="paint1_linear_246_262" x1="91.2582" y1="48.0015" x2="-4.74175" y2="48.0015" gradientUnits="userSpaceOnUse">
      <stop stop-color="#F9F3FF"/>
      <stop offset="1" stop-color="#D9D9D9"/>
    </linearGradient>
    <linearGradient id="paint2_linear_246_262" x1="19.2576" y1="89.5698" x2="67.2575" y2="6.43132" gradientUnits="userSpaceOnUse">
      <stop stop-color="#F9F3FF"/>
      <stop offset="1" stop-color="#D9D9D9"/>
    </linearGradient>
    <linearGradient id="paint3_linear_246_262" x1="67.2588" y1="6.43219" x2="19.2588" y2="89.5706" gradientUnits="userSpaceOnUse">
      <stop stop-color="#F9F3FF"/>
      <stop offset="1" stop-color="#D9D9D9"/>
    </linearGradient>
    <linearGradient id="paint4_linear_246_262" x1="19.2588" y1="6.43122" x2="67.2588" y2="89.5697" gradientUnits="userSpaceOnUse">
      <stop stop-color="#F9F3FF"/>
      <stop offset="1" stop-color="#D9D9D9"/>
    </linearGradient>
    <linearGradient id="paint5_linear_246_262" x1="67.2575" y1="89.5703" x2="19.2576" y2="6.43181" gradientUnits="userSpaceOnUse">
      <stop stop-color="#F9F3FF"/>
      <stop offset="1" stop-color="#D9D9D9"/>
    </linearGradient>
  </defs>
</svg>