<svg xmlns="http://www.w3.org/2000/svg" width="199" height="45" viewBox="0 0 199 45" fill="none">
  <path d="M19.3594 41.168C29.8582 41.168 38.3692 32.6571 38.3692 22.1582C38.3692 11.6594 29.8582 3.14844 19.3594 3.14844C8.86058 3.14844 0.349609 11.6594 0.349609 22.1582C0.349609 32.6571 8.86058 41.168 19.3594 41.168Z" fill="#231815"/>
  <path d="M111.591 29.2091L105.275 44.1398L108.031 28.1641L94.6403 37.3053L105.593 25.3545L89.3848 25.8034L105.066 21.6702L91.1882 13.2953L106.607 18.2955L99.4624 3.73625L109.734 16.283L111.591 0.175781L113.449 16.283L123.72 3.73625L116.576 18.2955L132.002 13.2953L118.124 21.6702L133.798 25.8034L117.59 25.3545L128.55 37.3053L115.159 28.1641L117.915 44.1398L111.591 29.2091Z" fill="#231815"/>
  <path d="M64.5998 37.523L59.6926 42.3606L57.595 35.7969L51.0081 37.8016L52.2001 31.0135L45.4275 29.7287L49.6459 24.2719L44.251 19.9838L50.5128 17.1122L47.7263 10.8118L54.6073 11.1755L55.0717 4.30229L60.9929 7.82406L64.5998 1.95703L68.2067 7.82406L74.1279 4.30229L74.5923 11.1755L81.4733 10.8118L78.6869 17.1122L84.9487 19.9838L79.5538 24.2719L83.7722 29.7287L76.9995 31.0135L78.1915 37.8016L71.6046 35.7969L69.5071 42.3606L64.5998 37.523Z" fill="#231815"/>
  <path d="M148.759 41.1655L157.9 4.54688H139.618L148.759 41.1655Z" fill="#231815"/>
  <path d="M198.992 4.55078C198.992 14.4504 191.748 22.4847 182.808 22.4847C173.868 22.4847 166.623 14.4582 166.623 4.55078H199H198.992Z" fill="#231815"/>
  <path d="M166.616 40.4105C166.616 30.5108 173.86 22.4766 182.8 22.4766C191.74 22.4766 198.985 30.5031 198.985 40.4105H166.608H166.616Z" fill="#231815"/>
</svg>