<svg width="184" height="125" viewBox="0 0 184 125" fill="none" xmlns="http://www.w3.org/2000/svg">
<g clip-path="url(#clip0_68_101)">
<path d="M159.49 26.2611C159.288 26.8062 158.914 27.2034 158.353 27.476C157.793 27.7486 157.247 27.7953 156.71 27.6084C156.173 27.4215 155.775 27.0477 155.503 26.4869C155.23 25.9262 155.184 25.3655 155.363 24.8281C155.542 24.2829 155.908 23.878 156.476 23.5976C157.045 23.3172 157.59 23.2861 158.143 23.473C158.688 23.6599 159.101 24.0415 159.373 24.6022C159.646 25.163 159.685 25.7159 159.49 26.2533V26.2611Z" fill="white"/>
<path d="M150.62 14.657C150.417 15.2022 150.043 15.5994 149.483 15.8719C148.922 16.1445 148.377 16.1912 147.839 16.0043C147.302 15.8174 146.905 15.4436 146.632 14.8829C146.36 14.3221 146.313 13.7614 146.492 13.224C146.671 12.6789 147.037 12.2739 147.606 11.9935C148.174 11.7132 148.719 11.682 149.272 11.8689C149.818 12.0558 150.23 12.4374 150.503 12.9982C150.775 13.5589 150.814 14.1119 150.62 14.6492V14.657Z" fill="white"/>
<path d="M127.505 4.05752C127.302 4.60268 126.929 4.99987 126.368 5.27245C125.807 5.54503 125.262 5.59176 124.725 5.40484C124.187 5.21793 123.79 4.84411 123.517 4.28337C123.245 3.72264 123.198 3.1619 123.377 2.62453C123.556 2.07937 123.922 1.6744 124.491 1.39403C125.06 1.11366 125.605 1.08251 126.158 1.26942C126.703 1.45633 127.116 1.83795 127.388 2.39868C127.661 2.95942 127.7 3.51236 127.505 4.04973V4.05752Z" fill="white"/>
<path d="M81.47 6.95468C81.2675 7.49984 80.8937 7.89702 80.333 8.1696C79.7722 8.44218 79.2271 8.48891 78.6897 8.302C78.1523 8.11509 77.7552 7.74127 77.4826 7.18053C77.21 6.61979 77.1633 6.05906 77.3424 5.52169C77.5215 4.97653 77.8875 4.57155 78.4561 4.29119C79.0246 4.01082 79.5698 3.97967 80.1227 4.16658C80.6679 4.35349 81.0806 4.7351 81.3532 5.29584C81.6258 5.85657 81.6647 6.40952 81.47 6.94689V6.95468Z" fill="white"/>
<path d="M119.577 2.89712C119.374 3.44228 119 3.83947 118.44 4.11205C117.879 4.38463 117.334 4.43136 116.796 4.24444C116.259 4.05753 115.862 3.68371 115.589 3.12297C115.317 2.56224 115.27 2.0015 115.449 1.46413C115.628 0.918973 115.994 0.513998 116.563 0.23363C117.131 -0.0467373 117.676 -0.0778893 118.229 0.109022C118.775 0.295934 119.187 0.677546 119.46 1.23828C119.732 1.79902 119.771 2.35196 119.577 2.88933V2.89712Z" fill="white"/>
<path d="M6.65093 100.379C6.44844 100.925 6.07462 101.322 5.51388 101.594C4.95315 101.867 4.40799 101.914 3.87062 101.727C3.33325 101.54 2.93606 101.166 2.66348 100.605C2.3909 100.044 2.34417 99.4837 2.5233 98.9464C2.70242 98.4012 3.06845 97.9962 3.63698 97.7159C4.2055 97.4355 4.75066 97.4043 5.30361 97.5913C5.84877 97.7782 6.26153 98.1598 6.53411 98.7205C6.80669 99.2813 6.84563 99.8342 6.65093 100.372V100.379Z" fill="white"/>
<path d="M0.124617 73.1915C0.327105 72.6463 0.700928 72.2491 1.26166 71.9766C1.8224 71.704 2.36756 71.6572 2.90493 71.8442C3.4423 72.0311 3.83949 72.4049 4.11207 72.9656C4.38465 73.5264 4.43137 74.0871 4.25225 74.6245C4.07313 75.1696 3.70709 75.5746 3.13857 75.855C2.57005 76.1353 2.02489 76.1665 1.47194 75.9796C0.92678 75.7927 0.514016 75.4111 0.241437 74.8503C-0.0311427 74.2896 -0.0700827 73.7366 0.124617 73.1993V73.1915Z" fill="white"/>
<path d="M11.0668 109.834C11.2692 109.289 11.6431 108.892 12.2038 108.619C12.7645 108.346 13.3097 108.3 13.8471 108.487C14.3844 108.674 14.7816 109.047 15.0542 109.608C15.3268 110.169 15.3735 110.73 15.1944 111.267C15.0153 111.812 14.6492 112.217 14.0807 112.497C13.5122 112.778 12.967 112.809 12.4141 112.622C11.8689 112.435 11.4562 112.054 11.1836 111.493C10.911 110.932 10.8721 110.379 11.0668 109.842V109.834Z" fill="white"/>
<path d="M34.1737 120.426C34.3762 119.881 34.75 119.483 35.3107 119.211C35.8715 118.938 36.4166 118.891 36.954 119.078C37.4914 119.265 37.8886 119.639 38.1611 120.2C38.4337 120.761 38.4804 121.321 38.3013 121.859C38.1222 122.404 37.7562 122.809 37.1876 123.089C36.6191 123.37 36.074 123.401 35.521 123.214C34.9759 123.027 34.5631 122.645 34.2905 122.085C34.0179 121.524 33.979 120.971 34.1737 120.433V120.426Z" fill="white"/>
<path d="M80.2086 117.536C80.4111 116.991 80.7849 116.594 81.3456 116.321C81.9064 116.049 82.4515 116.002 82.9889 116.189C83.5263 116.376 83.9235 116.75 84.1961 117.31C84.4686 117.871 84.5154 118.432 84.3362 118.969C84.1571 119.514 83.7911 119.919 83.2226 120.2C82.654 120.48 82.1089 120.511 81.5559 120.324C81.0108 120.137 80.598 119.756 80.3254 119.195C80.0528 118.634 80.0139 118.081 80.2086 117.544V117.536Z" fill="white"/>
<path d="M42.1097 121.594C42.3122 121.049 42.686 120.651 43.2468 120.379C43.8075 120.106 44.3527 120.06 44.89 120.246C45.4274 120.433 45.8246 120.807 46.0972 121.368C46.3698 121.929 46.4165 122.489 46.2374 123.027C46.0582 123.572 45.6922 123.977 45.1237 124.257C44.5552 124.538 44.01 124.569 43.457 124.382C42.9119 124.195 42.4991 123.813 42.2265 123.253C41.954 122.692 41.915 122.139 42.1097 121.602V121.594Z" fill="white"/>
<path d="M147.878 71.1121C148.081 70.567 148.455 70.1698 149.015 69.8972C149.576 69.6246 150.121 69.5779 150.659 69.7648C151.196 69.9517 151.593 70.3255 151.866 70.8863C152.138 71.447 152.185 72.0078 152.006 72.5451C151.827 73.0903 151.461 73.4953 150.892 73.7756C150.324 74.056 149.779 74.0871 149.226 73.9002C148.68 73.7133 148.268 73.3317 147.995 72.771C147.723 72.2102 147.684 71.6573 147.878 71.1199V71.1121Z" fill="white"/>
<path d="M37.4915 34.9992H48.4102C50.2871 34.9992 51.9537 35.3964 53.4179 36.1986C54.882 36.9929 56.0191 38.091 56.8212 39.5007C57.6312 40.9025 58.0362 42.5068 58.0362 44.2981C58.0362 46.0893 57.6312 47.6858 56.8212 49.0955C56.0191 50.5051 54.882 51.6032 53.4179 52.3742C51.9537 53.1608 50.2793 53.5502 48.4102 53.5502H41.0739V66.0421H37.4915V35.007V34.9992ZM52.8026 48.7061C53.9708 47.5534 54.5549 46.0815 54.5549 44.2903C54.5549 42.499 53.963 41.0271 52.7871 39.8745C51.6111 38.7219 50.108 38.1456 48.2856 38.1456H41.0428L41.0817 50.4272H48.3323C50.1469 50.4272 51.6422 49.8509 52.8104 48.6983L52.8026 48.7061Z" fill="white"/>
<path d="M63.4878 64.9362C62.0548 64.0795 60.9255 62.8958 60.1233 61.3771C59.3134 59.8507 58.9006 58.1295 58.9006 56.1903C58.9006 54.2511 59.3134 52.53 60.1233 51.0113C60.9255 49.4849 62.0548 48.3011 63.4878 47.4522C64.9207 46.5955 66.564 46.1672 68.4176 46.1672C70.9954 46.1672 72.919 46.8058 74.1729 48.0908C75.419 49.368 76.2367 50.5362 76.6027 51.5876C77.1713 53.0673 77.4594 54.6872 77.4594 56.4473C77.4594 56.9613 77.4594 57.2962 77.436 57.452C77.4127 57.6077 77.4127 57.7012 77.4127 57.7246H62.4909C62.7401 59.2899 63.4255 60.575 64.5314 61.5874C65.645 62.5998 66.9378 63.0983 68.4176 63.0983C70.9409 63.0983 72.8333 62.117 74.0872 60.1544L76.8987 61.603C76.3302 62.8568 75.3177 63.9316 73.8536 64.8428C72.3894 65.754 70.5748 66.2057 68.4176 66.2057C66.564 66.2057 64.9285 65.7773 63.4878 64.9284V64.9362ZM73.9548 54.6561C73.5031 51.0736 71.6574 49.2824 68.4176 49.2824C66.9067 49.2824 65.6061 49.7886 64.508 50.7932C63.4177 51.8057 62.7401 53.1063 62.4909 54.695L73.9548 54.6561Z" fill="white"/>
<path d="M81.3613 46.1672H84.8971V49.4537C85.5512 48.3712 86.4936 47.5145 87.7319 46.8759C88.9702 46.2373 90.2396 45.9413 91.5402 46.0036V49.407C90.372 49.3758 89.2817 49.664 88.2615 50.2636C87.2412 50.8633 86.4235 51.6655 85.8082 52.6701C85.2008 53.6826 84.8893 54.7729 84.8893 55.9333V66.0421H81.3535V46.175L81.3613 46.1672Z" fill="white"/>
<path d="M98.7828 62.226C99.7485 62.8101 100.66 63.0983 101.509 63.0983C102.731 63.0983 103.72 62.8568 104.468 62.374C105.223 61.8911 105.597 61.2214 105.597 60.3725C105.597 59.8663 105.395 59.4379 104.998 59.0952C104.6 58.7526 104.141 58.48 103.635 58.2619C103.121 58.0517 102.295 57.7479 101.158 57.3429C99.7952 56.8601 98.6893 56.424 97.8327 56.0424C96.976 55.653 96.2205 55.0844 95.5741 54.3134C94.92 53.5424 94.5929 52.5767 94.5929 51.4163C94.5929 49.7652 95.2626 48.4491 96.6177 47.4522C97.9651 46.4553 99.6473 45.9569 101.672 45.9569C102.529 45.9569 103.44 46.1282 104.421 46.4631C105.403 46.8058 106.29 47.3432 107.085 48.083C107.879 48.8151 108.424 49.7419 108.705 50.8556L105.589 51.9225C105.301 50.8711 104.78 50.1391 104.016 49.7263C103.245 49.3135 102.467 49.111 101.672 49.111C100.621 49.111 99.7641 49.3213 99.1099 49.7263C98.4557 50.1391 98.1286 50.7076 98.1286 51.4163C98.1286 51.9303 98.3233 52.3509 98.7049 52.6935C99.0865 53.0362 99.5227 53.3088 100.006 53.5035C100.488 53.706 101.345 54.0019 102.568 54.3991C103.938 54.8819 105.044 55.3259 105.909 55.723C106.773 56.1202 107.529 56.7043 108.167 57.4753C108.806 58.2464 109.125 59.2121 109.125 60.3725C109.125 62.1326 108.409 63.55 106.976 64.6169C105.543 65.6839 103.713 66.2135 101.493 66.2135C99.9354 66.2135 98.4401 65.7851 97.0149 64.9362C95.5897 64.0796 94.4916 62.9036 93.6895 61.4005L96.5476 59.6949C97.0539 60.8086 97.7937 61.6497 98.7594 62.2338L98.7828 62.226Z" fill="white"/>
<path d="M113.284 51.0347C114.086 49.5004 115.216 48.3011 116.649 47.4288C118.082 46.5644 119.709 46.1282 121.524 46.1282C123.339 46.1282 125.021 46.5644 126.469 47.4288C127.918 48.2933 129.047 49.5004 129.865 51.0347C130.667 52.5689 131.08 54.3056 131.08 56.2293C131.08 58.1529 130.667 59.8896 129.865 61.4161C129.055 62.9347 127.926 64.1263 126.469 64.9985C125.013 65.8708 123.377 66.2991 121.524 66.2991C119.67 66.2991 118.082 65.8708 116.649 64.9985C115.216 64.1263 114.086 62.9347 113.284 61.4161C112.474 59.8974 112.062 58.1685 112.062 56.2293C112.062 54.29 112.474 52.5689 113.284 51.0347ZM125.838 61.2214C126.952 59.9441 127.505 58.2775 127.505 56.2293C127.505 54.181 126.952 52.5144 125.838 51.2216C124.725 49.9288 123.292 49.2824 121.532 49.2824C119.772 49.2824 118.346 49.921 117.248 51.1982C116.15 52.4832 115.605 54.1576 115.605 56.2293C115.605 58.3009 116.15 59.9753 117.248 61.2369C118.346 62.5064 119.764 63.1372 121.532 63.1372C123.3 63.1372 124.733 62.4986 125.838 61.2136V61.2214Z" fill="white"/>
<path d="M146.617 50.7777C145.76 49.812 144.631 49.3291 143.213 49.3291C141.679 49.3291 140.394 49.8509 139.374 50.8867C138.346 51.9303 137.84 53.1686 137.84 54.6172V66.0421H134.304V46.175H137.84V49.0721C138.517 48.2154 139.374 47.5223 140.394 46.9849C141.422 46.4476 142.411 46.175 143.377 46.175C144.857 46.175 146.212 46.5021 147.427 47.1641C148.649 47.8183 149.623 48.7606 150.347 49.9989C151.071 51.2372 151.438 52.6935 151.438 54.3679V66.0499H147.902V54.625C147.902 53.0362 147.473 51.7512 146.617 50.7855V50.7777Z" fill="white"/>
<path d="M159.257 65.0141C157.839 64.1574 156.726 62.9737 155.916 61.455C155.106 59.9363 154.701 58.2074 154.701 56.276C154.701 54.3446 155.106 52.6078 155.916 51.0736C156.726 49.5394 157.847 48.3478 159.257 47.4911C160.682 46.6345 162.302 46.2139 164.124 46.2139C165.238 46.2139 166.328 46.5021 167.426 47.0628C168.524 47.6313 169.482 48.4724 170.308 49.5783V46.1672H173.844V66.0343H170.308V62.8413C169.482 64.0328 168.532 64.9051 167.45 65.458C166.367 66.011 165.261 66.2835 164.124 66.2835C162.31 66.2835 160.682 65.863 159.257 65.0063V65.0141ZM159.926 61.2369C161.04 62.5375 162.489 63.1761 164.249 63.1761C165.3 63.1761 166.297 62.8802 167.232 62.2805C168.166 61.6808 168.922 60.8553 169.49 59.8039C170.059 58.7526 170.347 57.5766 170.347 56.2682C170.347 54.9598 170.059 53.7838 169.49 52.7324C168.922 51.6811 168.166 50.8478 167.232 50.2403C166.297 49.6328 165.3 49.3213 164.249 49.3213C162.489 49.3213 161.04 49.9599 159.926 51.2372C158.805 52.5144 158.236 54.1966 158.236 56.2682C158.236 58.3398 158.797 59.9441 159.926 61.2369Z" fill="white"/>
<path d="M183.08 35.9415V66.0421H179.544V35.9415H183.08Z" fill="white"/>
<path d="M46.5801 58.9707C46.9929 58.5657 47.5069 58.371 48.1377 58.371C48.7685 58.371 49.2747 58.5657 49.6797 58.9707C50.0847 59.3756 50.2794 59.8818 50.2794 60.5049C50.2794 61.1279 50.0769 61.6497 49.6797 62.0625C49.2747 62.4752 48.7685 62.6777 48.1377 62.6777C47.5069 62.6777 47.0006 62.4752 46.5801 62.0625C46.1673 61.6497 45.9648 61.1357 45.9648 60.5049C45.9648 59.8741 46.1751 59.3678 46.5801 58.9707Z" fill="white"/>
<path d="M120.153 54.9754C120.566 54.5704 121.08 54.3757 121.711 54.3757C122.342 54.3757 122.848 54.5704 123.253 54.9754C123.658 55.3804 123.852 55.8866 123.852 56.5096C123.852 57.1327 123.65 57.6545 123.253 58.0672C122.848 58.48 122.342 58.6825 121.711 58.6825C121.08 58.6825 120.574 58.48 120.153 58.0672C119.74 57.6545 119.538 57.1405 119.538 56.5096C119.538 55.8788 119.748 55.3726 120.153 54.9754Z" fill="white"/>
<path d="M162.707 54.9754C163.12 54.5704 163.634 54.3757 164.264 54.3757C164.895 54.3757 165.401 54.5704 165.806 54.9754C166.211 55.3804 166.406 55.8866 166.406 56.5096C166.406 57.1327 166.204 57.6545 165.806 58.0672C165.401 58.48 164.895 58.6825 164.264 58.6825C163.634 58.6825 163.127 58.48 162.707 58.0672C162.294 57.6545 162.092 57.1405 162.092 56.5096C162.092 55.8788 162.302 55.3726 162.707 54.9754Z" fill="white"/>
<path d="M37.4915 71.0264H47.2109C48.8541 71.0264 50.3261 71.3925 51.6267 72.1167C52.9195 72.841 53.9319 73.8457 54.6484 75.1229C55.3727 76.4001 55.7387 77.8565 55.7387 79.4764C55.7387 80.4421 55.4973 81.4545 55.0066 82.5215C54.5238 83.5885 53.8852 84.523 53.0908 85.3174C53.3166 85.4342 53.6593 85.6367 54.111 85.9171C55.3026 86.6803 56.2839 87.7628 57.0549 89.1569C57.8259 90.5509 58.2075 91.9605 58.2075 93.378C58.2075 95.0524 57.8493 96.5555 57.1172 97.8716C56.3929 99.1956 55.3805 100.224 54.0954 100.963C52.8104 101.703 51.3307 102.069 49.6797 102.069H37.4915V71.0342V71.0264ZM47.7716 84.4607C49.1033 84.3984 50.1937 83.9155 51.0348 82.9888C51.8681 82.062 52.2886 80.8938 52.2886 79.4686C52.2886 77.911 51.8058 76.6338 50.8401 75.6525C49.8744 74.6712 48.6439 74.1806 47.133 74.1806H41.0739V84.4607H47.7716ZM49.5628 98.9074C51.0659 98.9074 52.3042 98.4012 53.2699 97.3732C54.2356 96.353 54.7185 95.029 54.7185 93.4091C54.7185 91.6724 54.2356 90.2705 53.2699 89.188C52.3042 88.1055 51.0737 87.5681 49.5628 87.5681H41.0739V98.9074H49.5628Z" fill="white"/>
<path d="M62.0237 82.2022H65.5594V85.4809C66.2136 84.3984 67.1559 83.5417 68.3942 82.9031C69.6325 82.2645 70.902 81.9685 72.2026 82.0308V85.442C71.0344 85.4108 69.944 85.699 68.9238 86.2987C67.9036 86.8983 67.0858 87.7005 66.4706 88.7051C65.8631 89.7176 65.5516 90.8001 65.5516 91.9683V102.069H62.0159V82.2022H62.0237Z" fill="white"/>
<path d="M78.5108 101.049C77.0934 100.192 75.9797 99.0087 75.1698 97.49C74.3598 95.9713 73.9548 94.2424 73.9548 92.3032C73.9548 90.364 74.3598 88.6428 75.1698 87.1086C75.9797 85.5744 77.1012 84.375 78.5108 83.5261C79.936 82.6772 81.5559 82.2489 83.3783 82.2489C84.492 82.2489 85.5823 82.5371 86.6804 83.1056C87.7785 83.6741 88.7364 84.5152 89.562 85.6211V82.21H93.0977V102.077H89.562V98.884C88.7364 100.076 87.7863 100.948 86.7038 101.501C85.6212 102.054 84.5153 102.334 83.3783 102.334C81.5637 102.334 79.936 101.906 78.5108 101.057V101.049ZM79.1806 97.2719C80.2943 98.5647 81.7428 99.2111 83.5029 99.2111C84.5543 99.2111 85.5511 98.9152 86.4857 98.3155C87.4203 97.7158 88.1757 96.8981 88.7442 95.8389C89.3127 94.7876 89.6009 93.6116 89.6009 92.3032C89.6009 90.9948 89.3127 89.8188 88.7442 88.7675C88.1757 87.7161 87.4203 86.8905 86.4857 86.2753C85.5511 85.66 84.5543 85.3563 83.5029 85.3563C81.7428 85.3563 80.2943 85.9949 79.1806 87.2722C78.0591 88.5494 77.4906 90.2316 77.4906 92.3032C77.4906 94.3748 78.0513 95.9791 79.1806 97.2719Z" fill="white"/>
<path d="M98.814 72.9111C99.2267 72.5062 99.7408 72.3115 100.372 72.3115C101.002 72.3115 101.509 72.5062 101.914 72.9111C102.319 73.3161 102.513 73.8223 102.513 74.4454C102.513 75.0684 102.311 75.5902 101.914 76.003C101.509 76.4157 101.002 76.6182 100.372 76.6182C99.7408 76.6182 99.2345 76.4157 98.814 76.003C98.4012 75.5902 98.1987 75.0762 98.1987 74.4454C98.1987 73.8145 98.409 73.3083 98.814 72.9111ZM102.116 82.1633V102.069H98.5803V82.1633H102.116Z" fill="white"/>
<path d="M82.0076 90.9014C82.4203 90.4964 82.9344 90.3017 83.5652 90.3017C84.196 90.3017 84.7022 90.4964 85.1072 90.9014C85.5122 91.3064 85.7069 91.8126 85.7069 92.4356C85.7069 93.0586 85.5044 93.5804 85.1072 93.9932C84.7022 94.406 84.196 94.6085 83.5652 94.6085C82.9344 94.6085 82.4281 94.406 82.0076 93.9932C81.5948 93.5804 81.3923 93.0664 81.3923 92.4356C81.3923 91.8048 81.6026 91.2986 82.0076 90.9014Z" fill="white"/>
<path d="M120.052 86.8127C119.195 85.847 118.066 85.3641 116.648 85.3641C115.114 85.3641 113.829 85.8781 112.809 86.9217C111.781 87.9575 111.275 89.2036 111.275 90.6521V102.077H107.739V82.21H111.275V85.1071C111.952 84.2504 112.809 83.5573 113.829 83.0199C114.857 82.4825 115.846 82.21 116.812 82.21C118.292 82.21 119.647 82.5371 120.862 83.1912C122.077 83.8454 123.058 84.7878 123.782 86.0261C124.507 87.2644 124.873 88.7207 124.873 90.3951V102.077H121.337V90.6521C121.337 89.0634 120.908 87.7862 120.052 86.8205V86.8127Z" fill="white"/>
</g>
<defs>
<clipPath id="clip0_68_101">
<rect width="183.08" height="124.491" fill="white"/>
</clipPath>
</defs>
</svg>
