<svg width="177" height="184" viewBox="0 0 177 184" fill="none" xmlns="http://www.w3.org/2000/svg">
<path d="M145.808 151.596C145.808 120.105 120.148 94.582 88.5019 94.582C56.8558 94.582 31.1953 120.112 31.1953 151.596H145.815H145.808Z" fill="currentColor"/>
<path d="M31.1895 32.4961C31.1895 63.9868 56.8499 89.5102 88.496 89.5102C120.142 89.5102 145.803 63.9807 145.803 32.4961H31.1895Z" fill="currentColor"/>
<path d="M159.025 92.1321L96.4473 92.0586" stroke="#8D8D8E" stroke-width="1.15" stroke-miterlimit="10"/>
<path d="M80.5527 92.0406L17.9688 91.9609" stroke="#8D8D8E" stroke-width="1.15" stroke-miterlimit="10"/>
<path d="M88.3361 167.111C91.4514 167.111 93.9768 164.598 93.9768 161.499C93.9768 158.399 91.4514 155.887 88.3361 155.887C85.2208 155.887 82.6953 158.399 82.6953 161.499C82.6953 164.598 85.2208 167.111 88.3361 167.111Z" stroke="#8D8D8E" stroke-width="1.15" stroke-miterlimit="10"/>
<path d="M88.2814 169.396C91.3967 169.396 93.9221 166.883 93.9221 163.784C93.9221 160.684 91.3967 158.172 88.2814 158.172C85.1661 158.172 82.6406 160.684 82.6406 163.784C82.6406 166.883 85.1661 169.396 88.2814 169.396Z" stroke="#8D8D8E" stroke-width="1.15" stroke-miterlimit="10"/>
<path d="M88.7111 25.8255C91.8264 25.8255 94.3518 23.3129 94.3518 20.2135C94.3518 17.1141 91.8264 14.6016 88.7111 14.6016C85.5958 14.6016 83.0703 17.1141 83.0703 20.2135C83.0703 23.3129 85.5958 25.8255 88.7111 25.8255Z" stroke="#8D8D8E" stroke-width="1.15" stroke-miterlimit="10"/>
<path d="M88.6622 28.1185C91.7775 28.1185 94.303 25.6059 94.303 22.5065C94.303 19.4071 91.7775 16.8945 88.6622 16.8945C85.5469 16.8945 83.0215 19.4071 83.0215 22.5065C83.0215 25.6059 85.5469 28.1185 88.6622 28.1185Z" stroke="#8D8D8E" stroke-width="1.15" stroke-miterlimit="10"/>
<path d="M88.4668 162.624L88.5653 100.359" stroke="#8D8D8E" stroke-width="1.15" stroke-miterlimit="10"/>
<path d="M88.5898 84.5475L88.6884 22.2891" stroke="#8D8D8E" stroke-width="1.15" stroke-miterlimit="10"/>
</svg>
