<svg width="176" height="184" viewBox="0 0 176 184" fill="none" xmlns="http://www.w3.org/2000/svg">
<path d="M105.129 157.893C103.953 157.893 102.925 157.471 102.165 156.662C101.198 155.633 100.831 154.125 101.167 152.52C101.222 152.238 101.314 151.969 101.437 151.681C102.141 150.039 103.745 149.022 105.625 149.016C107.554 149.016 109.201 150.064 109.93 151.754C110.187 152.355 110.309 152.9 110.303 153.421C110.279 155.173 107.597 157.587 105.87 157.838C105.619 157.875 105.368 157.893 105.129 157.893ZM105.625 150.241C104.541 150.241 103.17 150.75 102.563 152.159C102.472 152.367 102.41 152.569 102.368 152.765C102.116 153.972 102.368 155.081 103.059 155.816C103.69 156.49 104.627 156.772 105.699 156.619C106.948 156.441 109.066 154.42 109.079 153.396C109.079 153.053 108.993 152.667 108.809 152.232C108.178 150.762 106.752 150.235 105.631 150.235L105.625 150.241ZM122.77 139.605C121.754 139.605 120.351 138.607 119.623 137.847C119.102 137.296 118.894 136.848 118.974 136.444C119.311 134.68 120.621 132.462 122.146 131.966C123.131 131.641 124.215 132.333 125.715 133.289C126.413 133.73 127.203 134.239 128.091 134.704C128.275 134.802 128.397 134.98 128.416 135.188C128.434 135.396 128.348 135.593 128.189 135.721C127.412 136.346 126.762 136.953 126.187 137.48C124.962 138.613 124.081 139.434 122.972 139.587C122.911 139.593 122.844 139.599 122.776 139.599L122.77 139.605ZM120.192 136.597C120.431 137.161 122.207 138.454 122.795 138.38C123.523 138.276 124.289 137.565 125.354 136.585C125.764 136.205 126.218 135.789 126.726 135.347C126.12 134.992 125.562 134.643 125.06 134.318C123.983 133.632 122.966 132.983 122.531 133.124C121.545 133.448 120.486 135.231 120.198 136.591L120.192 136.597ZM105.699 124.056C105.699 124.056 105.68 124.056 105.674 124.056C105.478 124.05 105.301 123.952 105.19 123.787C104.743 123.125 104.29 122.555 103.855 121.998C102.919 120.809 102.11 119.786 102.012 118.622C101.908 117.403 103.898 115.871 103.984 115.81C105.001 115.038 105.49 115.087 105.766 115.191C107.45 115.828 109.066 117.458 109.532 118.996C109.789 119.859 109.005 120.699 107.817 121.967C107.303 122.518 106.721 123.137 106.176 123.823C106.06 123.97 105.882 124.056 105.699 124.056ZM105.417 116.373C104.86 116.52 103.262 118.009 103.237 118.53C103.304 119.314 103.978 120.166 104.823 121.244C105.111 121.612 105.423 122.01 105.741 122.439C106.152 121.967 106.556 121.532 106.923 121.134C107.523 120.49 108.344 119.614 108.35 119.32C108.013 118.205 106.703 116.888 105.411 116.367L105.417 116.373ZM143.993 109.175C143.803 109.175 143.626 109.089 143.51 108.936C143.307 108.672 143.099 108.439 142.916 108.243C142.475 107.753 142.089 107.331 142.15 106.791C142.242 106.001 143.13 105.346 143.73 105.125C143.761 105.113 143.785 105.107 143.816 105.1C143.754 104.494 143.565 103.881 143.369 103.25L143.332 103.134C142.732 101.21 142.009 99.1883 140.993 96.5906C140.772 96.0331 140.264 95.494 139.897 95.1448C139.082 94.3544 138.764 93.4538 138.831 92.1427C138.88 91.2973 138.715 90.4273 138.39 89.8024C137.943 88.9508 137.539 88.0624 137.141 87.2047C136.002 84.7296 134.925 82.3953 132.978 80.5451C132.524 80.1101 132.298 79.5036 132.096 78.9644L132.065 78.8787C131.594 77.6227 130.828 76.5812 129.647 75.6132C128.808 74.927 128.293 73.8365 127.901 72.8623C127.491 71.8392 126.965 70.8222 125.936 70.3076C124.766 69.7194 124.032 68.831 123.621 67.5016C123.278 66.3927 122.439 65.6758 121.276 64.9468C120.609 64.524 119.696 63.8256 119.127 62.8821C118.233 61.4117 117.314 60.554 116.047 60.021C114.271 59.2736 113.775 58.2872 114.277 56.5227C114.706 55.0217 114.816 53.4901 114.939 51.8665C115.079 49.9734 115.226 48.0129 115.912 46.132C115.912 46.132 115.912 46.1259 115.912 46.1198C115.882 46.1075 115.857 46.0953 115.826 46.083C115.643 45.9972 115.453 45.9115 115.318 45.9053C113.402 45.8134 111.479 45.599 109.617 45.3968C108.074 45.2314 106.482 45.0537 104.915 44.9496C103.782 44.8761 102.649 44.9496 101.455 45.0354C99.6182 45.164 97.7261 45.2988 95.8157 44.827C95.7422 44.8087 95.6075 44.827 95.485 44.827L95.2952 44.8393C93.1276 44.9618 91.1192 44.4901 89.1658 43.3934C88.48 43.0074 87.7208 42.744 86.9186 42.4561C86.6921 42.3764 86.4594 42.2968 86.2328 42.211C85.7981 42.0517 85.3572 41.9108 84.9163 41.7699C84.2489 41.5554 83.557 41.3349 82.8957 41.0469C81.1567 40.3117 79.1054 39.5704 76.8214 39.5949C76.1172 39.6133 75.4437 39.405 74.7946 39.209C74.6599 39.1661 74.5252 39.1293 74.3905 39.0864C73.821 38.9271 73.2761 38.7372 72.6392 38.5167C72.5474 38.486 72.4494 38.4493 72.3576 38.4186C72.3086 38.6331 72.2596 38.8475 72.2045 39.0558C71.9963 39.9258 71.8126 40.6732 71.8493 41.39C71.9657 43.4302 71.4636 45.1946 70.9309 47.0633L70.7533 47.6943C70.2573 49.4833 69.4001 50.5125 67.8019 51.26C67.4774 51.4131 67.1467 51.5418 66.8161 51.6704C66.4119 51.8297 66.0323 51.9768 65.671 52.1606C64.9975 52.5098 64.3178 52.8896 63.6626 53.2634C63.1237 53.5697 62.5788 53.876 62.0338 54.164C61.3296 54.5377 60.6132 54.8808 59.9029 55.1687C59.3825 55.3832 58.8559 55.5792 58.3293 55.7753C57.5026 56.0816 56.6515 56.4002 55.8555 56.7739C54.986 57.1844 54.0552 57.7297 52.9286 58.5016C50.1241 60.4315 47.2217 62.49 44.8949 64.1442C44.7357 64.2545 44.5826 64.4321 44.4234 64.6159C44.3377 64.714 44.2519 64.812 44.1662 64.9039C43.3212 65.7923 42.3538 66.5642 41.423 67.3055C39.929 68.5002 38.5145 69.6275 37.5409 71.2143C37.4307 71.392 37.2776 71.4777 37.198 71.5267C35.4712 72.6969 34.2099 74.247 32.8689 75.8889C32.7525 76.0298 32.6423 76.1707 32.526 76.3116C32.6974 76.4587 32.826 76.6486 32.973 76.8569C33.0587 76.9794 33.1505 77.1142 33.273 77.2735C33.4077 77.4512 33.4383 77.684 33.3526 77.8923C33.2669 78.1006 33.0709 78.2354 32.8505 78.2599C32.6423 78.2783 32.4647 78.3089 32.3117 78.3395C31.9259 78.4069 31.5585 78.4682 31.2217 78.2599C31.136 78.2109 31.0686 78.1435 31.0135 78.0761C30.6523 78.4682 30.2787 78.848 29.893 79.2095C29.7705 79.3198 29.6664 79.5281 29.5562 79.7486C29.4643 79.9263 29.3725 80.1162 29.25 80.3C29.048 80.6002 28.8275 80.8821 28.6071 81.17C28.4908 81.3232 28.3744 81.4763 28.2581 81.6295L27.4865 82.6649C27.358 82.8364 27.2355 83.0019 27.1069 83.1734L27.3641 83.2898C27.1436 83.7616 26.6844 84.2027 26.1639 84.4477C25.7965 84.944 25.4353 85.4402 25.074 85.9365L24.082 85.2197C24.3576 84.846 24.627 84.4722 24.9025 84.0985C24.627 83.8167 24.3147 83.394 24.4127 82.9651L25.5455 83.2285C25.57 83.1918 25.5945 83.1611 25.619 83.1244C25.619 83.0631 25.6067 83.0202 25.5945 83.0019C25.6067 83.0202 25.6251 83.0509 25.6435 83.0815C25.9312 82.6955 26.2129 82.3157 26.5007 81.9297L27.2722 80.8943C27.3886 80.735 27.511 80.5757 27.6335 80.4164C27.8417 80.1469 28.0438 79.8834 28.2336 79.6077C28.3193 79.4791 28.3867 79.3382 28.4601 79.1972C28.6071 78.9032 28.7724 78.5723 29.0602 78.3089C30.1012 77.347 31.0196 76.2136 31.9136 75.1169C33.2485 73.475 34.6262 71.7779 36.4816 70.522C36.4999 70.5097 36.5244 70.4975 36.5489 70.4791C37.6327 68.7575 39.1697 67.5322 40.6576 66.3436C41.5577 65.6268 42.4885 64.8855 43.2784 64.0523C43.3518 63.9727 43.4253 63.8869 43.4988 63.8011C43.6886 63.5806 43.9091 63.3355 44.1846 63.1394C46.5175 61.4853 49.42 59.4206 52.2366 57.4846C53.4184 56.6759 54.4043 56.0939 55.335 55.6527C56.18 55.2606 57.0556 54.9298 57.9006 54.6173C58.415 54.4274 58.9293 54.2314 59.4376 54.0231C60.105 53.7474 60.7847 53.4288 61.4521 53.0734C61.991 52.7855 62.5237 52.4853 63.0564 52.1851C63.7238 51.8114 64.4096 51.4254 65.1016 51.0639C65.5179 50.8495 65.9466 50.6841 66.3629 50.5187C66.6691 50.3961 66.9753 50.2797 67.2753 50.1388C68.5428 49.5445 69.1674 48.791 69.5654 47.3512L69.743 46.714C70.2451 44.9496 70.7166 43.277 70.6125 41.4452C70.5635 40.5446 70.7717 39.6746 70.9982 38.7556C71.0962 38.3512 71.2003 37.9285 71.2799 37.4935C71.3105 37.322 71.4207 37.1688 71.5738 37.0769C71.7269 36.985 71.9106 36.9666 72.082 37.0279C72.4188 37.1443 72.7311 37.2484 73.0311 37.3526C73.6435 37.567 74.1762 37.7508 74.715 37.904C74.8559 37.9469 74.9967 37.9836 75.1375 38.0265C75.7254 38.2042 76.2703 38.3696 76.7908 38.3574C76.8459 38.3574 76.9071 38.3574 76.9622 38.3574C79.3809 38.3574 81.5485 39.1354 83.361 39.9074C83.9795 40.1708 84.6102 40.373 85.2837 40.5874C85.743 40.7345 86.1961 40.8815 86.6431 41.0469C86.8635 41.1266 87.0901 41.2062 87.3105 41.2859C88.1249 41.5738 88.9699 41.8679 89.7476 42.309C91.4927 43.2893 93.2807 43.7059 95.2095 43.6017L95.3626 43.5895C95.5707 43.5711 95.8279 43.5527 96.0912 43.614C97.8118 44.0367 99.5325 43.9142 101.351 43.7855C102.539 43.6998 103.764 43.6201 104.976 43.6998C106.562 43.8039 108.172 43.9816 109.728 44.1531C111.571 44.3553 113.481 44.5636 115.361 44.6555C115.735 44.6739 116.059 44.8209 116.316 44.9373C116.396 44.9741 116.475 45.0108 116.549 45.0354C116.708 45.0905 116.837 45.213 116.904 45.3723C116.929 45.4397 116.965 45.4948 116.99 45.5439C117.094 45.7277 117.247 46.0095 117.118 46.3403C116.426 48.1109 116.292 49.9673 116.145 51.9216C116.022 53.5329 115.9 55.1994 115.441 56.8168C115.11 57.9808 115.3 58.3423 116.512 58.8569C118.012 59.488 119.139 60.5234 120.162 62.2143C120.511 62.7963 121.135 63.3845 121.919 63.8808C123.119 64.6404 124.295 65.5533 124.779 67.1095C125.091 68.1265 125.599 68.7453 126.475 69.1803C127.877 69.8848 128.55 71.1898 129.028 72.3783C129.34 73.1625 129.787 74.1244 130.418 74.6391C131.771 75.7541 132.659 76.9549 133.204 78.4192L133.235 78.5049C133.388 78.9154 133.559 79.3872 133.81 79.6261C135.929 81.6418 137.105 84.1965 138.244 86.6594C138.635 87.5049 139.033 88.3749 139.468 89.202C139.897 90.0229 140.105 91.1073 140.05 92.1734C139.995 93.1291 140.185 93.6866 140.742 94.2258C141.226 94.6975 141.82 95.3347 142.126 96.1066C143.16 98.7349 143.889 100.775 144.495 102.736L144.532 102.852C144.802 103.716 145.095 104.653 145.053 105.652C145.297 105.897 145.555 106.246 145.567 106.62C145.579 107.128 145.304 107.569 144.979 108.072C144.838 108.286 144.679 108.538 144.52 108.825C144.422 109.009 144.238 109.126 144.03 109.144C144.012 109.144 143.999 109.144 143.981 109.144L143.993 109.175ZM143.381 106.889C143.454 107.012 143.663 107.245 143.822 107.416C143.852 107.447 143.877 107.478 143.908 107.514C143.926 107.49 143.938 107.465 143.957 107.441C144.03 107.318 144.11 107.202 144.177 107.085L143.552 106.791C143.583 106.724 143.614 106.657 143.638 106.583C143.516 106.693 143.418 106.804 143.381 106.883V106.889ZM131.943 108.703C131.373 108.703 130.859 108.47 130.528 108.047C130.179 107.612 130.081 107.024 130.253 106.448C130.461 105.738 131.441 105.039 132.2 105.058C132.739 105.082 133.131 105.468 133.578 105.915C133.755 106.093 133.957 106.295 134.19 106.491C134.337 106.614 134.417 106.804 134.404 106.994C134.392 107.184 134.294 107.361 134.135 107.471C133.878 107.643 133.651 107.821 133.455 107.98C132.99 108.348 132.586 108.666 132.065 108.697C132.022 108.697 131.979 108.697 131.937 108.697L131.943 108.703ZM132.133 106.289C131.955 106.289 131.49 106.626 131.428 106.81C131.373 107 131.392 107.171 131.49 107.294C131.594 107.429 131.784 107.496 131.998 107.484C132.133 107.478 132.439 107.239 132.702 107.024C132.745 106.987 132.794 106.951 132.843 106.914C132.8 106.871 132.763 106.834 132.72 106.798C132.518 106.595 132.243 106.32 132.133 106.295V106.289ZM122.488 103.538C122.28 103.538 121.907 103.446 121.368 102.895C121.031 102.546 120.486 101.878 120.621 101.29C120.774 100.616 121.221 100.058 121.784 99.3599C122.041 99.0413 122.342 98.6737 122.66 98.2326C122.782 98.0672 122.984 97.9691 123.187 97.9814C123.395 97.9936 123.585 98.11 123.683 98.2877C123.964 98.7778 124.258 99.2067 124.515 99.5866C125.115 100.469 125.55 101.1 125.317 101.749C124.962 102.748 123.517 103.361 122.635 103.526C122.605 103.532 122.55 103.544 122.482 103.544L122.488 103.538ZM121.839 101.48C121.931 101.7 122.317 102.147 122.537 102.295C123.266 102.123 124.05 101.67 124.172 101.339C124.154 101.216 123.799 100.695 123.511 100.279C123.382 100.089 123.248 99.8868 123.107 99.6723C122.978 99.8316 122.856 99.9848 122.746 100.126C122.293 100.689 121.956 101.106 121.846 101.48H121.839ZM137.937 102.454C137.827 102.454 137.711 102.423 137.594 102.356C137.196 102.129 136.958 101.749 136.749 101.418C136.682 101.314 136.621 101.204 136.547 101.112C136.449 100.977 136.413 100.806 136.443 100.64C136.474 100.475 136.572 100.328 136.713 100.236C136.798 100.181 136.89 100.107 136.976 100.04C137.252 99.8194 137.594 99.5437 138.035 99.5192C138.452 99.4947 138.819 99.6601 139.248 99.85C139.438 99.9358 139.664 100.034 139.927 100.132C140.148 100.211 140.301 100.414 140.319 100.64C140.344 100.873 140.234 101.1 140.038 101.222C139.603 101.498 139.26 101.737 139.003 101.927C138.562 102.239 138.25 102.46 137.937 102.46V102.454ZM137.864 100.898C137.913 100.977 137.962 101.051 138.011 101.118C138.097 101.057 138.195 100.99 138.293 100.922C138.335 100.892 138.378 100.861 138.421 100.83C138.28 100.775 138.17 100.744 138.097 100.744C138.054 100.757 137.956 100.824 137.858 100.898H137.864ZM131.875 96.3517C131.875 96.3517 131.833 96.3517 131.814 96.3517C131.3 96.3272 131.03 95.8738 130.792 95.4695C130.724 95.3592 130.663 95.2489 130.596 95.1631C130.492 95.0284 130.455 94.8568 130.479 94.6853C130.51 94.5199 130.608 94.3728 130.749 94.2809C130.853 94.2135 130.957 94.1278 131.067 94.0481C131.392 93.7969 131.759 93.5151 132.231 93.4538C132.72 93.3987 133.045 93.754 133.394 94.14C133.523 94.2809 133.669 94.4463 133.841 94.6056C133.988 94.7465 134.061 94.9487 134.031 95.1448C134 95.3469 133.872 95.5185 133.688 95.6043C133.467 95.7084 133.278 95.8126 133.106 95.9106C132.684 96.1434 132.316 96.3517 131.882 96.3517H131.875ZM131.906 94.9487C131.937 94.9977 131.967 95.0529 131.998 95.0958C132.114 95.0529 132.267 94.9732 132.414 94.8875C132.359 94.8262 132.298 94.7649 132.249 94.7159C132.145 94.771 132.022 94.8568 131.9 94.9487H131.906ZM43.6151 91.383C43.4314 91.383 43.2539 91.2973 43.1375 91.1564C42.9477 90.9235 42.7395 90.703 42.5558 90.5008C42.0353 89.9433 41.6251 89.5083 41.8394 88.9753C42.0537 88.4361 42.5191 88.0686 42.9293 87.7438C43.0702 87.6336 43.211 87.5233 43.3396 87.4008C43.4621 87.2905 43.6213 87.2231 43.7866 87.2353C43.9519 87.2415 44.105 87.3211 44.2152 87.4436C44.3193 87.56 44.4418 87.6765 44.5704 87.7929C44.9561 88.1543 45.397 88.5587 45.4399 89.1223C45.4827 89.6676 45.097 90.0719 44.65 90.5376C44.4785 90.7152 44.2887 90.9174 44.105 91.1441C43.9887 91.2911 43.8111 91.3708 43.6274 91.3708L43.6151 91.383ZM43.0824 89.251C43.1804 89.3735 43.3335 89.5328 43.4498 89.6615C43.5049 89.7166 43.56 89.7779 43.6151 89.8391C43.6641 89.7901 43.707 89.7411 43.7498 89.6921C43.909 89.5267 44.1234 89.3 44.1907 89.1836C44.1295 89.0672 43.8784 88.8344 43.7254 88.6873C43.7254 88.6873 43.7131 88.6751 43.707 88.6751C43.7009 88.6812 43.6886 88.6873 43.6825 88.6996C43.4498 88.8834 43.2171 89.0672 43.0763 89.251H43.0824ZM31.883 90.8133C31.3136 90.8133 30.7441 90.268 30.6339 90.1516C30.3155 89.8269 30.1808 89.5267 30.2236 89.2265C30.3216 88.5709 30.8788 87.5417 31.632 87.3762C32.1647 87.266 32.6362 87.5846 33.175 87.9644C33.3955 88.1176 33.6465 88.2952 33.9282 88.4607C34.1058 88.5648 34.216 88.7486 34.2282 88.9508C34.2405 89.153 34.1486 89.3551 33.9833 89.4777C33.7322 89.6676 33.5179 89.8575 33.3281 90.0168C32.8811 90.4028 32.4953 90.7397 31.9871 90.8071C31.9504 90.8071 31.9136 90.8133 31.8769 90.8133H31.883ZM31.4728 89.2571C31.5769 89.3735 31.7728 89.5267 31.8892 89.5757C32.0422 89.5206 32.2933 89.3 32.5321 89.0917C32.5505 89.0733 32.5688 89.0611 32.5872 89.0427C32.5505 89.0182 32.5137 88.9937 32.477 88.9692C32.2749 88.8282 32.0116 88.6445 31.883 88.5893C31.7544 88.6873 31.5646 88.9814 31.4789 89.2571H31.4728ZM105.931 86.0223C105.821 86.0223 105.711 85.9916 105.613 85.9304C105.49 85.8568 105.337 85.7833 105.184 85.7037C104.609 85.4219 104.07 85.1584 104.1 84.5887C104.131 84.025 104.37 83.5104 104.596 83.0141C104.676 82.8364 104.762 82.6526 104.835 82.4627C104.903 82.2973 105.037 82.1686 105.203 82.1074C105.368 82.0461 105.558 82.0645 105.711 82.1564L107.309 83.0815C107.45 83.1611 107.554 83.3021 107.597 83.4613C107.64 83.6206 107.615 83.7922 107.529 83.9331L106.452 85.7159C106.366 85.8569 106.231 85.9549 106.072 85.9978C106.023 86.01 105.974 86.0161 105.925 86.0161L105.931 86.0223ZM105.362 84.4232C105.466 84.4784 105.601 84.5519 105.705 84.6009L106.158 83.8412L105.686 83.5716C105.552 83.8718 105.417 84.1598 105.356 84.4232H105.362ZM49.3526 84.9624C49.3526 84.9624 49.322 84.9624 49.3097 84.9624C48.6484 84.944 48.1096 84.0434 48.0484 83.9392C47.9075 83.7003 47.7483 83.3449 47.932 83.0019C48.2259 82.4505 48.8934 81.8194 49.6159 81.6785C50.1425 81.5682 50.5099 81.9848 50.9324 82.4627C51.0916 82.6404 51.2753 82.8487 51.4896 83.0509C51.6304 83.1857 51.6978 83.3817 51.6733 83.5778C51.6488 83.7738 51.5264 83.9454 51.3549 84.0373C51.1222 84.1598 50.914 84.2946 50.7303 84.411C50.2772 84.6989 49.8486 84.9685 49.3587 84.9685L49.3526 84.9624ZM49.1383 83.3817C49.2179 83.5042 49.3404 83.6452 49.4261 83.7248C49.5853 83.6819 49.8363 83.5165 50.069 83.3695C50.0751 83.3695 50.0813 83.3633 50.0874 83.3572C50.0629 83.3327 50.0384 83.3082 50.02 83.2776C49.9159 83.1611 49.7874 83.0202 49.6955 82.9283C49.5057 83.0141 49.2975 83.1857 49.1444 83.3817H49.1383ZM38.0185 84.5887C38.0185 84.5887 37.9634 84.5887 37.9389 84.5887C37.4613 84.5396 37.0755 84.2578 36.7387 84.0127C36.6285 83.9331 36.5183 83.8535 36.4081 83.7861C36.2673 83.7003 36.1632 83.5533 36.1264 83.3878C36.0897 83.2224 36.1264 83.0509 36.2244 82.9161C36.2856 82.8242 36.3469 82.7139 36.4081 82.5975C36.6347 82.187 36.8857 81.7153 37.4001 81.6724C37.8654 81.6356 38.2757 81.8317 38.7104 82.0461C38.888 82.1319 39.0839 82.2299 39.2983 82.3157C39.482 82.3892 39.6228 82.5546 39.6657 82.7507C39.7085 82.9467 39.6534 83.155 39.5187 83.3021C39.3595 83.4736 39.2187 83.6513 39.0962 83.8106C38.7778 84.2149 38.4839 84.5948 38.0307 84.5948L38.0185 84.5887ZM37.5348 83.0754C37.6634 83.1673 37.7981 83.2592 37.9083 83.3143C37.9634 83.2531 38.0246 83.1734 38.0797 83.0999C37.9144 83.0202 37.7491 82.9406 37.6266 82.9038C37.596 82.9528 37.5593 83.0141 37.5286 83.0692L37.5348 83.0754ZM43.4437 78.7623C43.4437 78.7623 43.3947 78.7623 43.3702 78.7623C43.1988 78.7377 43.0457 78.6458 42.9416 78.5049C42.8926 78.4375 42.8314 78.3702 42.7763 78.2966C42.5619 78.0454 42.2925 77.733 42.2925 77.3041C42.2986 76.8814 42.5864 76.5996 42.8559 76.3239C42.9538 76.2258 43.064 76.1156 43.1743 75.9869C43.2967 75.8399 43.4804 75.7541 43.6641 75.7725C43.8539 75.7786 44.0254 75.8705 44.1356 76.0237C44.2397 76.1646 44.3499 76.2994 44.454 76.4219C44.7663 76.7956 45.0847 77.1816 44.8459 77.6288C44.6561 77.9842 44.3499 78.217 44.0805 78.4192C43.9948 78.4804 43.9152 78.5478 43.8356 78.6152C43.7254 78.7132 43.5784 78.7623 43.4376 78.7623H43.4437Z" fill="currentColor"/>
</svg>
