<svg width="212" height="239" viewBox="0 0 212 239" fill="none" xmlns="http://www.w3.org/2000/svg">
<path d="M31.9117 211.281C29.5511 208.188 32.0988 207.109 33.6822 207.469C32.8329 207.052 33.9197 208.72 35.6037 210.123C36.6977 210.547 38.389 210.705 40.2242 209.698C38.5185 210.403 36.8128 211.122 35.6901 211.41C33.4231 211.475 31.6526 210.324 31.9189 211.281H31.9117Z" stroke="currentColor" stroke-width="2" stroke-miterlimit="50"/>
<path d="M28.8458 195.58C26.6867 187.791 28.414 185.094 37.0143 180.196C30.9041 179.196 31.6742 175.988 36.1651 168.372C32.1204 170.544 31.0337 168.868 31.9909 163.726C27.9822 167.286 26.0174 167.365 25.9958 162.87C26.075 168.091 26.4492 165.43 30.1916 161.755C31.1704 165.934 32.7681 167.638 36.7049 166.487C34.5098 172.033 34.6537 174.73 39.9219 174.162C34.8912 175.881 35.3806 174.665 40.3969 171.083C37.259 176.132 36.6113 178.153 41.6348 178.376C34.6609 182.109 33.3439 184.044 40.0514 187.187C35.7765 183.267 37.698 180.038 42.9014 174.953C40.0226 173.313 40.4329 169.803 41.2605 165.423C40.3321 162.64 39.8355 158.986 39.1806 155.325C38.5257 151.664 37.7268 147.996 37.0719 144.393C38.5257 144.278 39.3749 143.918 41.0014 144.141C44.1105 144.321 44.9238 141.667 45.0749 141.983C45.37 142.674 43.6571 143.163 44.0241 143.443C44.384 143.724 45.0029 143.947 45.8594 144.119L44.9238 148.442C42.1457 149.262 38.7776 143.681 38.4033 146.342C38.2234 150.254 38.8136 154.404 39.3605 158.605C39.9003 162.805 40.3969 167.07 42.2249 169.724C39.6628 175.341 38.4393 179.362 42.0018 182.411C33.9916 185.518 33.5742 186.712 40.2098 189.294C32.7394 189.438 32.4083 190.409 38.8567 193.2C31.8973 189.251 31.4727 188.553 38.2522 190.416C30.861 187.949 31.775 186.158 40.0874 184.13C33.7181 182.505 34.7545 180.649 41.1094 178.463C33.2072 181.296 31.9765 182.843 38.3602 184.303C29.5367 186.079 28.3204 187.769 32.8761 193.013C25.492 190.387 25.9598 190.941 31.8757 196.781C26.586 191.366 25.3769 193.264 29.3856 199.737C24.3477 192.61 23.5921 191.718 28.853 195.566L28.8458 195.58ZM43.6211 193.804C39.5836 192.559 39.231 192.617 42.9302 194.235C38.7344 192.509 39.267 189.654 44.6791 185.533C40.5336 183.238 41.0518 180.721 44.8302 176.988C42.7359 175.363 43.2397 172.658 44.4703 169.364C43.873 167.214 43.9953 164.481 44.348 161.805C44.7006 159.13 45.2764 156.505 46.4999 154.002C47.3707 149.701 47.9393 146.802 47.8889 146.73C47.7018 146.421 47.6514 146.076 47.7378 145.673C47.8241 145.27 48.0112 144.982 48.2991 144.795C48.3711 144.752 47.8241 147.536 46.9749 151.75C45.6938 155.541 45.19 159.252 44.7222 162.985C44.2544 166.718 43.8154 170.472 44.7366 173.392C42.0594 176.398 41.7067 177.88 44.9022 178.448C40.7423 182.375 40.2242 185 44.4775 187.381C39.5261 188.748 39.3461 189.862 43.837 191.056C39.8067 189.963 40.1018 190.157 44.2472 191.574C40.4976 190.754 40.5552 191.092 44.1537 192.696C40.3897 191.876 40.1882 192.171 43.6139 193.811L43.6211 193.804Z" stroke="currentColor" stroke-width="2" stroke-miterlimit="50"/>
<path d="M36.0921 160.396C35.2141 159.008 34.0914 157.21 32.8463 155.383C31.5796 153.606 30.1978 151.815 29.291 149.694C32.1986 149.463 34.0698 150.923 35.5811 152.851C37.0925 154.779 38.2296 157.174 39.6762 158.813C38.5966 156.267 37.3012 153.808 36.2361 151.441C35.1709 149.075 34.3289 146.802 34.1561 144.623C34.0554 139.66 39.2516 142.465 42.2815 142.624C42.9292 140.185 43.5337 137.841 44.0159 135.755C44.9803 131.598 46.319 130.505 46.4917 130.843C47.2905 133.051 49.1042 133.784 50.9178 134.518C49.9534 133.425 48.4852 137.05 48.2046 134.079C47.9671 133.863 46.3549 135.266 45.2106 139.531C44.6349 141.66 43.9224 143.983 42.1016 144.148C40.216 143.566 38.1576 143.436 37.6682 144.645C36.2001 148.27 37.5171 151.974 38.8845 155.778C40.2447 159.583 41.6553 163.496 41.5402 166.552C40.1368 164.632 39.6042 161.604 38.5103 158.907C37.3516 156.296 35.6387 154.023 33.0334 152.621C33.6883 155.347 35.1925 157.713 36.6535 159.748C37.5531 162.618 38.4095 165.15 39.669 166.444C37.2724 166.099 36.6319 163.704 36.0849 160.403L36.0921 160.396ZM45.6784 178.959C42.3678 179.829 42.0152 179.88 45.1171 179.002C41.569 179.786 41.6769 179.067 44.9659 176.852C42.2239 176.276 42.9508 173.622 44.6421 169.674C44.5917 167.811 44.7068 165.229 44.8292 162.697C44.9515 160.166 45.0955 157.663 46.0311 155.404C46.6644 153.995 47.2474 151.211 47.7871 148.6C48.1974 146.594 48.586 144.681 48.9386 142.947C49.3489 141.286 49.7159 139.79 50.5436 139.171C52.1125 138.531 53.2064 137.567 54.3003 136.604C53.811 137.812 51.7526 137.682 51.0329 138.761C49.8742 139.401 49.3992 141.279 48.8811 143.343C48.442 145.515 47.9527 147.874 47.4561 150.298C47.1754 151.686 46.8803 153.096 46.5924 154.505C45.5489 157.648 45.1746 161.036 44.7932 164.409C44.3758 167.818 43.9512 171.213 44.8436 173.457C42.3031 176.305 42.1375 177.132 45.0019 176.183C42.2887 177.161 43.4834 176.111 46.4341 174.032C46.9595 172.932 49.2409 170.803 51.5079 168.674C53.0193 167.257 54.5235 165.833 55.8621 164.567C58.5321 162.05 60.756 161.604 60.756 161.604C60.756 161.604 58.6257 162.215 56.0708 164.884C54.7969 166.243 53.3648 167.768 51.9254 169.3C49.7735 171.601 47.6144 173.91 47.1106 175.284C44.3686 177.434 43.2818 178.643 45.8799 178.067C43.1667 179.139 42.9724 179.434 45.6712 178.959H45.6784Z" stroke="currentColor" stroke-width="2" stroke-miterlimit="50"/>
<path d="M57.7982 89.6595C57.7982 89.6595 56.7259 91.5799 55.0922 94.8308C50.8028 103.526 52.0983 112.488 51.9471 121.572C52.2926 125.93 49.0108 128.829 45.5131 130.03C44.196 130.684 43.2173 132.49 42.2817 134.503C41.562 135.705 40.8855 136.978 40.1874 138.222C33.3431 137.963 25.4768 134.784 18.5534 139.725C16.3655 141.653 17.5602 145.652 20.8276 146.27C17.9201 146.5 14.775 143.825 16.3655 141.653C20.2806 131.979 31.8893 138.078 39.3165 135.136C39.9643 133.734 40.5976 132.274 41.2525 130.821C42.2385 128.361 43.2676 126.089 44.4767 125.132C46.8517 123.722 47.226 121.061 48.2047 118.644C49.5722 110.05 50.4502 102.67 54.5884 94.8811C56.7043 91.3713 57.7982 89.6523 57.7982 89.6523V89.6595ZM57.2801 131.9C56.877 132.001 55.668 131.512 57.3664 130.792C57.7119 135.151 54.4301 138.049 51.1123 139.509C49.7953 140.746 49.2267 142.99 48.6581 145.213C48.176 147.558 47.701 149.888 47.2547 152.096C46.7222 154.685 46.168 156.361 45.8513 157.512C45.9089 159.087 45.4843 160.568 45.2252 161.992C44.9661 163.417 44.8798 164.776 45.6714 166.078C45.6858 167.113 45.693 167.667 45.8154 167.919C45.5203 168.451 45.3332 168.717 45.5059 168.092C44.6782 165.862 44.6926 163.532 45.0165 161.259C45.3404 158.986 45.9809 156.764 46.7078 154.556C46.9741 153.254 47.2547 151.902 47.5426 150.542C47.9744 148.442 48.4134 146.284 48.8525 144.156C49.3706 142.142 49.8888 140.157 51.1483 139.193C52.9691 138.172 55.5168 137.093 56.582 134.511C57.2441 133.022 57.3448 131.957 57.2801 131.907V131.9Z" stroke="currentColor" stroke-width="2" stroke-miterlimit="50"/>
<path d="M116.281 198.385C120.606 193.653 118.908 194.372 110.523 195.947C121.492 193.775 125.954 192.998 129.408 194.688C134.072 189.819 137.728 187.417 147.415 181.131C143.327 181.181 145.263 177.355 148.343 170.371C145.148 175.902 144.047 178.815 148.48 177.822C141.06 184.13 139.174 186.532 143.536 188.043C134.554 190.452 131.819 191.962 126.429 197.565C125.263 193.818 122.78 194.149 116.281 198.385Z" stroke="currentColor" stroke-width="2" stroke-miterlimit="50"/>
<path d="M96.1302 189.275C95.7632 189.088 92.7045 188.606 88.8829 188.096C84.3992 187.455 80.2826 187.197 75.6333 186.369C71.7038 185.873 68.7891 185.521 68.7891 185.521C68.7891 185.521 70.3004 185.492 72.5603 185.434C74.964 185.391 78.4114 185.442 82.0386 185.384C87.717 186.405 92.9636 185.039 97.1306 181.795C98.5268 180.723 99.8006 179.45 100.952 178.249C101.823 179.508 102.967 180.429 102.989 180.975C105.357 182.198 106.595 183.054 104.644 183.536C106.422 180.867 104.644 177.868 102.751 174.696C101.125 171.661 99.3832 168.468 98.3109 164.807C97.5984 163.584 96.8787 162.599 96.123 161.757C92.7836 158.427 88.8253 155.543 85.0613 152.609C83.8163 151.631 82.5928 150.645 81.5348 149.617C82.2617 145.769 86.3999 142.518 86.0473 138.159L84.8238 141.18C85.9178 140.216 86.1625 139.612 87.2564 138.649C85.7882 142.273 85.7738 145.791 83.7371 149.164L82.8519 149.531C86.5223 152.861 90.9196 156.09 94.8348 159.657C96.1374 160.844 97.3897 162.074 98.5484 163.354C98.9802 166.195 100.225 168.633 101.715 170.942C103.205 173.251 104.939 175.43 104.954 177.113C107.789 180.098 108.89 182.579 105.335 184.873C108.516 185.24 107.667 185.6 104.191 185.01C105.868 184.269 104.493 183.025 102.276 181.932C101.924 181.299 100.722 180.81 99.887 181.148C98.4476 181.874 97.2601 183.5 97.1306 185.564C97.2457 187.017 97.6056 187.865 99.1817 187.628C99.2968 187.628 99.5919 189.865 99.4264 189.872C98.39 190.023 97.2313 189.822 96.1302 189.268V189.275ZM116.785 188.455C122.565 188.822 121.715 189.182 113.54 188.937C123.903 187.254 121.485 186.276 113.403 182.493C117.052 183.306 113.791 181.126 107.739 176.948C108.056 176.12 105.587 173.294 103.701 170.122C101.816 166.95 100.52 163.44 100.002 159.564C99.5631 157.838 99.0522 156.687 98.4188 156.075C96.7347 154.982 95.0147 153.939 93.3162 152.868C91.6177 151.796 89.9552 150.696 88.4007 149.487C86.8678 144.841 88.5806 140.605 89.0844 135.887C88.7102 138.548 88.3359 141.209 88.5302 143.597C87.8393 146.654 88.7318 148.962 90.9124 150.717C93.0931 152.472 95.2954 154.213 97.4256 156.004C98.1166 156.744 98.7499 157.708 99.2969 159.262C99.6423 164.239 101.334 168.382 103.809 171.906C106.4 175.495 109.776 178.458 108.768 178.882C117.203 183.68 121.24 185.938 119.103 187.161C124.904 188.311 124.414 188.52 116.785 188.455Z" stroke="currentColor" stroke-width="2" stroke-miterlimit="50"/>
<path d="M95.1446 177.271C91.9635 175.739 91.7332 172.833 92.712 170.41C93.3238 168.899 94.2666 167.871 95.4181 167.195C96.5696 166.519 97.937 166.188 99.4699 168.202C98.8654 165.785 98.0449 164.073 97.1381 162.958C96.2313 162.153 95.2381 161.57 94.3241 161.203C91.3662 158.952 88.2787 157.003 85.3999 154.781C83.9605 153.673 82.5643 152.494 81.3984 151.156C82.2837 142.266 86.5586 133.441 82.5931 124.098C82.5931 124.098 84.8961 123.624 84.781 122.171C84.8961 123.624 85.256 124.472 85.6158 125.321C85.0113 125.077 84.4068 124.832 84.8961 123.624C87.2855 131.629 85.4359 141.425 82.2477 149.286C81.7583 150.494 83.3272 151.832 84.198 152.393C85.6446 153.853 87.228 155.198 88.912 156.428C90.5961 157.658 92.3738 158.765 94.209 159.743C96.0226 160.477 97.6563 161.664 98.9661 165.051C99.7218 166.828 100.247 168.655 100.866 170.417C101.485 172.179 102.212 173.876 103.09 175.264C101.78 174.056 100.456 172.114 99.693 170.668C98.5631 169.273 97.5987 168.633 96.879 169C95.4397 169.733 94.5256 171.122 95.0006 173.43C95.7203 175.128 97.1741 175.013 98.6279 174.898C98.3832 175.502 98.743 176.35 98.3184 177.134C97.1597 177.552 96.109 177.58 95.1374 177.249L95.1446 177.271ZM111.007 179.429C113.533 180.946 110.64 178.839 106.523 175.3C105.832 173.711 103.925 170.69 102.377 167.454C100.83 164.21 99.6355 160.743 98.6711 157.284C97.4332 156.133 96.1737 155.09 94.8927 154.076C93.6116 153.062 92.3162 152.033 91.0207 150.99C89.7253 149.947 88.4154 148.869 87.487 147.596C90.7832 138.684 89.3654 128.263 85.1624 119.531C89.0056 127.414 89.7037 136.138 88.4298 144.819C87.962 146.79 88.2427 148.365 89.3726 149.566C90.6969 150.695 92.0787 151.796 93.4821 152.875C95.1662 154.177 96.879 155.457 98.5559 156.759C99.4052 159.628 100.37 162.484 101.55 165.26C102.73 168.029 104.119 170.719 105.335 172.941C107.523 175.782 109.538 178.163 107.97 178.451C109.459 177.185 107.444 173.869 105.746 170.294C104.349 166.95 103.277 163.347 102.68 159.664C102.082 155.982 101.96 152.213 102.32 148.423C101.427 146.51 100.492 144.711 99.6211 142.949C100.161 144.222 100.837 145.452 101.579 146.661C102.255 147.998 103.004 149.315 102.701 153.004C102.255 156.917 102.687 160.614 103.774 164.059C104.86 167.504 106.588 170.704 107.473 172.761C110.87 176.588 113.425 179.263 110.51 178.81C116.8 181.996 117.11 182.226 111.021 179.429H111.007Z" stroke="currentColor" stroke-width="2" stroke-miterlimit="50"/>
<path d="M57.7992 89.6602C57.7992 89.6602 57.2378 91.6884 56.4318 95.004C51.25 112.855 70.1347 118.379 80.7646 126.895C87.6521 132.49 80.0881 144.207 76.0074 151.543C76.7703 153.168 77.6339 154.758 78.5839 156.304C81.4339 160.943 85.054 165.208 89.077 168.948C83.8665 165.524 79.8866 161.008 76.943 155.88C75.9642 154.168 75.1006 152.384 74.3449 150.557C80.0809 144.214 84.9748 132.123 79.1741 129.074C66.3563 122.486 50.6382 112.618 55.7049 96.3778C56.9931 91.9473 57.7848 89.6673 57.7848 89.6673L57.7992 89.6602ZM75.8491 117.171C75.1006 118.271 74.4961 118.027 73.8915 117.782C77.893 116.588 81.657 115.998 84.5502 119.278C90.4589 127.29 90.4157 137.827 88.8467 147.105C89.0483 149.04 90.4157 150.413 91.8623 151.708C93.4528 152.945 95.1225 154.103 96.8425 155.168C98.2819 156.225 99.7285 157.318 100.535 161.648C99.6205 157.332 98.0372 156.419 96.5115 155.405C94.6907 154.384 92.9562 153.233 91.3297 151.96C89.8543 150.629 88.4941 149.184 88.4221 147.119C90.0414 136.978 90.3293 125.837 83.3915 117.653C78.879 116.746 75.8851 117.092 75.8347 117.163L75.8491 117.171Z" stroke="currentColor" stroke-width="2" stroke-miterlimit="50"/>
<path d="M167.946 130.072C168.09 130.41 168.083 130.763 167.925 131.144C167.766 131.525 167.536 131.755 167.198 131.885C166.867 132.021 166.507 132.007 166.133 131.856C165.758 131.705 165.499 131.468 165.37 131.151C165.24 130.835 165.248 130.489 165.406 130.108C165.564 129.727 165.802 129.475 166.133 129.332C166.464 129.188 171.048 115.328 171.048 115.328C171.048 115.328 167.802 129.734 167.946 130.072Z" stroke="currentColor" stroke-width="2" stroke-miterlimit="50"/>
<path d="M150.351 139.222C139.383 135.115 124.708 138.323 118.245 149.076C116.842 151.672 115.978 154.664 115.928 157.635C115.87 160.598 116.619 163.539 117.569 164.402C117.101 164.086 116.324 161.662 116.014 159.166C115.705 156.671 115.87 154.096 116.424 151.859C119.98 141.337 131.761 134.842 142.794 135.792C142.297 134.885 141.333 133.792 142.672 132.224C144.01 130.656 146.428 131.634 148.127 130.915C141.599 126.168 133.366 125.65 126.543 121.011C124.406 119.94 122.283 118.76 119.936 117.645C116.208 115.919 112.891 114.358 110.566 113.215C108.241 112.071 106.888 111.259 107.162 111.273C107.896 111.1 108.076 112.87 108.414 112.56C108.752 112.251 109.083 111.69 109.4 110.87L117.597 114.215C117.158 115.322 117.101 114.279 116.467 114.855C116.36 114.948 117.324 115.488 118.986 116.322C120.555 117.135 122.837 118.235 125.082 119.429C133.495 123.593 142.204 126.413 150.099 130.829C151.776 131.656 152.682 132.152 152.51 132.203C151.452 132.461 150.617 132.648 149.926 132.67C148.846 132.62 147.385 132.735 145.932 132.85C144.478 132.965 144.838 133.814 145.198 134.662C147.242 138.302 152.344 136.144 154.208 139.409C153.121 139.632 151.84 139.56 150.351 139.229V139.222ZM155.892 125.118C156.036 125.456 156.029 125.809 155.871 126.19C155.712 126.571 112.639 109.187 112.3 109.324C111.969 109.461 111.61 109.446 111.235 109.295C110.861 109.144 110.602 108.907 110.472 108.59C110.343 108.274 153.193 125.535 153.352 125.161C153.51 124.787 153.748 124.528 154.079 124.385C154.41 124.241 154.755 124.241 155.115 124.392C155.475 124.543 155.748 124.794 155.892 125.133V125.118Z" stroke="currentColor" stroke-width="2" stroke-miterlimit="50"/>
<path d="M135.13 133.224C133.805 133.123 131.826 133.462 130.315 133.361C128.696 133.253 127.335 132.706 127.04 130.829C127.299 126.715 131.416 126.974 134.208 125.284C128.4 122.234 121.261 120.753 115.511 117.3C114.165 116.747 112.826 116.2 111.502 115.653C110.178 115.107 108.882 114.575 107.63 114.057C102.65 107.598 96.1222 102.851 88.623 100.521C91.2859 100.895 92.5094 97.874 96.0143 101.398L94.2007 100.665C97.6984 104.189 102.542 106.145 105.91 110.022C107.904 111.993 109.746 112.985 111.632 113.848C114.151 114.992 116.842 116.214 119.527 117.423C125.738 121.853 132.769 121.882 138.685 126.384C135.417 125.766 129.955 127.075 130.797 130.225C131.387 133.979 136.857 129.161 139.11 131.771C137.958 132.426 136.634 132.893 135.13 133.21V133.224ZM143.831 120.163C143.975 120.501 143.967 120.853 143.809 121.235C143.716 121.458 126.853 114.762 114.136 109.741C111.596 108.734 109.213 107.799 107.17 107.001C103.514 103.736 98.9147 101.175 94.9276 98.8594C98.3101 100.931 101.34 102.153 104.348 104.879C105.68 105.886 106.896 106.548 108.263 107.411C120.887 112.381 141.175 120.458 141.283 120.199C141.441 119.825 127.717 99.2046 127.717 99.2046C127.717 99.2046 142.686 119.278 143.046 119.429C143.406 119.58 143.68 119.832 143.824 120.17L143.831 120.163Z" stroke="currentColor" stroke-width="2" stroke-miterlimit="50"/>
<path d="M57.7982 89.6595C57.7982 89.6595 58.1725 90.7096 58.5323 92.3351C58.9569 95.5644 60.8857 97.7509 63.5486 98.1249C79.7776 99.7647 97.7124 100.678 106.521 116.422C107.838 118.688 109.04 119.529 110.213 120.349C113.121 125.197 116.979 129.577 122.182 132.382C116.64 131.727 114.114 127.534 110.955 123.866C109.904 122.636 108.781 121.471 107.45 120.457C101.815 104.447 83.2897 99.7719 67.766 103.346C62.3107 104.655 57.8414 100.038 57.9853 94.2986C57.9134 91.3353 57.791 89.6523 57.791 89.6523L57.7982 89.6595ZM82.0159 95.6795C81.253 96.1326 80.0439 95.6435 79.4394 95.399C90.8321 95.0825 99.8931 102.26 109.631 107.77C110.969 108.302 112.308 108.827 113.632 109.345C122.873 112.984 131.113 116.192 131.178 116.034C131.336 115.66 131.574 115.401 131.905 115.257C132.236 115.113 132.582 115.113 132.941 115.264C133.301 115.415 133.575 115.667 133.719 116.005C133.863 116.343 133.855 116.695 133.697 117.077C133.611 117.278 119.944 111.877 107.939 107.13C106.406 106.259 104.902 105.368 103.096 103.958C97.9571 100.081 91.5518 96.7799 84.8947 95.9816C83.1026 95.7298 82.0807 95.6651 82.0159 95.6867V95.6795Z" stroke="currentColor" stroke-width="2" stroke-miterlimit="50"/>
<path d="M170.353 40.5931C171.49 41.8734 171.85 42.7221 171.36 43.9304C168.769 40.7729 166.596 37.4357 165.747 34.8609C161.536 31.6891 158.636 29.2868 163.551 27.2227C157.305 29.0998 159.751 30.4448 165.286 32.3364C164.221 33.6094 166.236 35.4291 168.093 37.4861C169.439 39.1906 170.266 40.4996 170.353 40.5931Z" stroke="currentColor" stroke-width="2" stroke-miterlimit="50"/>
<path d="M162.614 69.2246C162.369 69.5555 161.347 72.5834 160.095 76.4744C157.591 84.2565 154.172 95.4837 154.172 95.4837C154.172 95.4837 156.274 82.07 156.943 75.3021C157.166 73.0437 157.231 71.5261 157.008 71.4902C156.734 66.1607 160.621 63.5067 162.333 59.2777C153.1 64.6935 143.024 70.4617 131.696 68.9297C130.278 69.3181 128.86 69.6993 127.471 70.0805C117.727 72.7273 109.148 75.0072 109.501 74.5109C109.947 73.9068 111.228 75.1439 111.293 74.6908C111.35 74.2376 111.242 73.5903 110.962 72.7632L119.389 70.0589C119.764 71.1881 119.051 70.4257 118.936 71.2744C118.914 71.4183 120.001 71.2097 121.815 70.7781C123.628 70.3466 126.169 69.6777 129.076 68.901C142.06 69.3685 154.561 64.5784 165.018 56.1418C164.514 60.86 159.174 63.629 160.729 68.4766C162.672 67.1532 164.615 65.8298 164.989 63.1687C165.594 63.4132 165.349 64.0174 166.097 64.3338C165.039 66.3261 163.802 67.9875 162.614 69.2318V69.2246ZM163.096 45.3462C161.779 49.0214 159.98 52.3443 157.605 55.1061C150.466 63.406 138.044 66.7073 127.407 65.65C125.543 65.7004 124.053 65.9593 122.556 66.1463C116.604 68.1314 112.25 69.6058 112.2 69.7065C112.027 70.023 111.753 70.2459 111.365 70.3682C110.976 70.4905 110.631 70.4761 110.328 70.3178C110.249 70.2819 112.941 69.3541 117.014 67.9875C119.051 67.3043 121.448 66.5203 124.146 65.7292C135.23 66.4556 148.854 64.2907 156.569 55.9476C159.145 53.1642 161.06 49.6975 162.549 45.749C162.197 45.1088 162.434 45.0081 163.096 45.3462Z" stroke="currentColor" stroke-width="2" stroke-miterlimit="50"/>
<path d="M150.186 73.1746C149.452 74.1671 148.53 74.836 147.422 75.1884C146.422 75.5049 145.472 75.5912 144.579 75.4402C143.687 75.2891 142.91 74.9223 142.255 74.3325C141.6 73.7428 141.125 72.9804 140.823 72.0382C143.018 70.4631 146.17 69.6288 147.753 67.4567C144.112 69.4993 140.844 68.8808 136.756 69.4634C134.957 69.5928 133.28 69.7367 131.675 69.9956C118.555 74.088 97.5474 81.007 98.0944 80.223C98.5406 79.6189 98.7997 79.0938 98.8572 78.6335C98.9148 78.1804 98.8068 77.5331 98.5262 76.706L100.671 76.0012C101.045 77.1303 100.333 76.368 100.217 77.2167C100.153 77.6913 114.611 73.5989 127.17 70.0819C128.71 69.7511 130.164 69.3914 131.589 69.0534C138.779 68.7441 146.299 67.5574 153.093 64.6805C150.056 66.9676 147.624 69.4993 144.342 71.5132C143.629 72.1749 143.687 72.6639 144.385 72.9732C145.083 73.2825 145.868 73.304 146.731 73.0307C147.386 72.8222 148.358 72.405 149.581 71.7289C151.251 70.9666 152.23 68.5499 154.677 69.2404C153.187 70.7867 151.424 72.1173 150.179 73.1602L150.186 73.1746ZM154.353 56.9488C147.76 67.4495 132.87 64.2418 121.988 66.1405C120.606 66.6008 119.225 67.0611 117.864 67.5142C108.343 70.6861 99.8432 73.5126 99.7712 73.6565C99.5985 73.9729 99.325 74.1959 98.9364 74.3182C98.5478 74.4404 98.2023 74.426 97.9 74.2678C97.7273 74.1815 111.553 69.6144 123.665 65.5651C125.392 65.3709 127.105 65.1983 129.408 65.4141C137.109 65.9535 145.479 64.4144 152.158 60.0846C148.113 60.7966 143.982 61.1563 139.937 61.1347C135.864 60.847 131.884 60.1781 127.998 59.4085C124.428 57.4738 120.952 55.4456 117.224 53.4102C121.24 55.3233 124.946 57.3731 128.667 59.4157C132.755 59.9983 136.857 60.5737 141.031 60.6672C145.119 60.2213 149.279 59.2863 153.295 57.5745C153.712 57.1933 154.065 56.9847 154.367 56.956L154.353 56.9488Z" stroke="currentColor" stroke-width="2" stroke-miterlimit="50"/>
<path d="M57.7988 89.6586C57.7988 89.6586 59.0871 89.2558 60.8071 88.7308C62.5272 88.2057 65.0677 87.357 68.0473 86.4076C71.0268 85.4583 73.7328 84.5952 75.748 83.9551L79.073 82.8978L138.678 77.6474L135.95 78.5177C135.95 78.5177 109.358 82.308 87.1983 85.4655C85.543 85.6956 83.8949 85.9114 82.0093 86.0912C74.9923 87.2707 68.9253 88.3352 61.9227 89.4644C59.4325 89.637 57.806 89.6586 57.806 89.6586H57.7988ZM89.343 76.9714C89.1703 77.2878 88.8968 77.5108 88.5081 77.633C88.1195 77.7553 87.774 77.7409 87.4718 77.5827C87.2847 77.482 104.37 71.8576 117.181 67.5638C119.743 66.7008 122.132 65.8952 124.183 65.1976C129.236 66.298 134.936 64.3776 140.261 65.1256C136.389 64.2626 131.891 66.6648 128.214 65.363C126.458 65.2407 125.061 65.4277 123.399 65.5068C110.38 69.8941 89.4653 76.7556 89.343 76.9785V76.9714Z" stroke="currentColor" stroke-width="2" stroke-miterlimit="50"/>
</svg>
