<svg width="276" height="247" viewBox="0 0 276 247" fill="none" xmlns="http://www.w3.org/2000/svg">
<path d="M227.802 72.0703C225.154 74.8418 222.463 77.5659 219.776 80.2995L211.637 88.4105C206.194 93.8021 200.67 99.1133 195.185 104.458C189.666 109.773 184.128 115.061 178.666 120.429C177.292 121.763 175.913 123.092 174.535 124.425C173.156 125.759 171.608 127.324 170.39 128.403C168.884 129.94 166.901 131.992 166.216 132.357C164.314 134.433 162.496 136.244 162.086 136.348C161.335 137.408 161.273 137.346 162.019 136.282C161.934 136.433 163.124 135.308 164.772 133.69C164.739 133.596 166.018 132.224 167.364 130.791C167.727 130.503 169.035 129.216 170.083 128.152C170.815 127.391 171.877 126.279 172.783 125.376C173.69 124.473 174.591 123.574 175.493 122.671C176.395 121.767 177.292 120.859 178.189 119.946C183.594 114.517 189.109 109.192 194.609 103.862L227.811 72.0798L227.802 72.0703Z" fill="currentColor"/>
<path d="M161.355 134.906C160.67 136.027 159.801 138.704 160.467 137.734C159.801 138.704 162.544 138.094 163.356 137.091C162.544 138.094 160.67 136.027 161.355 134.906Z" fill="currentColor"/>
<path d="M245.015 65.1797C238.751 70.453 232.103 75.3054 225.763 80.4984C219.626 85.5258 213.696 90.8322 207.776 96.1765C205.279 98.4324 202.781 100.688 200.284 102.94C198.985 104.112 197.583 105.191 196.46 106.539C195.936 107.168 195.445 107.83 194.935 108.473C194.425 109.116 193.934 109.75 193.32 110.237C193.197 110.332 192.905 110.521 192.905 110.521C192.905 110.521 193.037 110.261 193.098 110.18C193.188 110.062 193.287 109.949 193.377 109.83C193.49 109.679 193.603 109.523 193.698 109.357C193.745 109.272 193.854 109.116 193.825 109.012C193.811 108.951 193.712 108.927 193.712 108.927C193.712 108.927 189.378 114.215 189.303 113.344C189.227 112.474 188.217 113.604 188.217 113.604L192.56 109.452C192.56 109.452 192.206 110.213 191.923 110.526C190.846 111.736 189.458 112.588 188.212 113.604C188.174 113.638 188.137 113.666 188.099 113.699C186.881 114.711 185.63 115.676 184.397 116.669C181.82 118.745 179.266 120.85 176.735 122.983C171.698 127.23 166.755 131.591 161.916 136.055C167.147 131.893 172.392 127.75 177.651 123.621C182.334 119.947 187.037 116.291 191.706 112.607C192.3 112.138 193.183 110.928 193.183 110.928L193.367 111.244C193.367 111.244 193.613 110.828 193.736 110.611C193.858 110.393 194.269 110.611 194.269 110.611C194.269 110.611 193.948 110.492 194.005 110.346C194.061 110.199 194.302 110.18 194.378 110.318C195.426 109.343 196.479 108.369 197.527 107.395C200.439 104.926 203.296 102.396 206.1 99.804C208.291 97.7797 211.836 95.4671 212.634 92.5064C212.492 93.0125 213.399 92.9321 213.786 92.5774C223.997 83.2272 234.407 74.09 245.001 65.1797H245.015Z" fill="currentColor"/>
<path d="M164.461 137.003C164.183 137.518 158.895 139.363 158.607 138.833C158.711 139.439 159.396 138.124 160.283 135.887C160.505 135.74 161.039 134.302 161.147 133.148C161.313 134.265 164.183 137.518 164.461 137.003Z" fill="currentColor"/>
<path d="M167.954 48.529C167.704 52.3551 167.388 56.1765 167.086 59.9979L166.056 71.4526C165.348 79.0907 164.522 86.7145 163.748 94.3384C162.931 101.962 162.081 109.581 161.34 117.21C161.142 119.116 160.944 121.022 160.741 122.928C160.538 124.834 160.358 127.033 160.117 128.646C159.948 130.793 159.745 133.64 159.457 134.359C159.329 137.173 159.098 139.732 158.852 140.077C158.956 141.373 158.871 141.363 158.758 140.067C158.791 140.238 158.98 138.606 159.202 136.312C159.117 136.26 159.216 134.387 159.329 132.42C159.423 131.961 159.598 130.14 159.716 128.646C159.787 127.591 159.891 126.054 160.004 124.782C160.117 123.51 160.231 122.237 160.344 120.965C160.453 119.693 160.561 118.421 160.66 117.144C161.317 109.501 162.129 101.872 162.917 94.2485L167.959 48.5195L167.954 48.529Z" fill="currentColor"/>
<path d="M157.366 139.457C157.564 140.758 158.612 143.364 158.499 142.195C158.612 143.364 160.317 141.131 160.298 139.845C160.317 141.136 157.56 140.762 157.361 139.457H157.366Z" fill="currentColor"/>
<path d="M176.718 32.168C175.301 40.2411 173.323 48.2386 171.798 56.2976C170.325 64.1012 169.188 71.9804 168.078 79.8928C167.611 83.2271 167.144 86.566 166.681 89.9003C166.44 91.636 166.058 93.3623 166.062 95.1216C166.062 95.9445 166.114 96.7627 166.133 97.5857C166.152 98.4086 166.185 99.2079 166.029 99.9788C165.996 100.13 165.892 100.461 165.892 100.461C165.892 100.461 165.826 100.177 165.822 100.073C165.817 99.922 165.822 99.7754 165.807 99.624C165.798 99.4349 165.784 99.241 165.751 99.0565C165.732 98.9619 165.718 98.7727 165.628 98.7065C165.576 98.6687 165.486 98.716 165.486 98.716C165.486 98.716 165.562 105.559 164.944 104.94C164.325 104.32 164.278 105.839 164.278 105.839L164.944 99.8605C164.944 99.8605 165.161 100.674 165.147 101.095C165.095 102.717 164.585 104.259 164.278 105.839C164.268 105.886 164.259 105.933 164.25 105.985C163.966 107.541 163.626 109.092 163.32 110.644C162.677 113.893 162.073 117.151 161.502 120.415C160.369 126.913 159.382 133.43 158.537 139.971C159.873 133.416 161.233 126.861 162.611 120.315C163.839 114.484 165.095 108.657 166.313 102.826C166.468 102.083 166.369 100.589 166.369 100.589L166.714 100.717C166.714 100.717 166.634 100.239 166.591 99.9929C166.549 99.747 167.002 99.6524 167.002 99.6524C167.002 99.6524 166.681 99.7659 166.629 99.6193C166.577 99.4727 166.752 99.3024 166.898 99.3592C167.077 97.9356 167.257 96.5121 167.436 95.0885C168.083 91.3239 168.65 87.5403 169.136 83.752C169.513 80.7914 170.746 76.7335 169.462 73.9526C169.679 74.4303 170.321 73.7871 170.392 73.2621C172.214 59.5231 174.329 45.8219 176.727 32.1727L176.718 32.168Z" fill="currentColor"/>
<path d="M161.091 139.057C161.209 139.634 158.343 144.449 157.782 144.231C158.249 144.629 157.928 143.181 157.177 140.892C157.253 140.637 156.743 139.19 156.082 138.234C156.927 138.986 161.209 139.63 161.091 139.053V139.057Z" fill="currentColor"/>
<path d="M106.998 69.036C109.264 72.129 111.474 75.2599 113.692 78.3814L120.255 87.8213C124.612 94.1257 128.871 100.501 133.171 106.838C137.439 113.204 141.674 119.589 146.003 125.912C147.075 127.501 148.146 129.09 149.213 130.68C150.28 132.269 151.555 134.071 152.405 135.461C153.656 137.216 155.327 139.528 155.568 140.261C157.277 142.498 158.74 144.608 158.773 145.033C159.685 145.96 159.614 146.008 158.698 145.085C158.835 145.194 157.928 143.823 156.625 141.921C156.526 141.936 155.403 140.436 154.222 138.861C154 138.45 152.967 136.941 152.098 135.721C151.475 134.87 150.568 133.626 149.841 132.576C149.114 131.526 148.382 130.481 147.651 129.431C146.919 128.381 146.182 127.341 145.441 126.3C141.041 120.024 136.769 113.658 132.477 107.307L106.998 69.0312V69.036Z" fill="currentColor"/>
<path d="M157.229 145.508C158.216 146.378 160.695 147.698 159.854 146.875C160.69 147.698 160.567 144.888 159.722 143.914C160.567 144.888 158.211 146.378 157.225 145.508H157.229Z" fill="currentColor"/>
<path d="M103.216 50.8602C107.309 57.9591 110.926 65.356 114.929 72.5116C118.805 79.4402 122.992 86.2081 127.218 92.9806C129.002 95.8372 130.782 98.6938 132.567 101.546C133.492 103.031 134.313 104.601 135.442 105.944C135.971 106.573 136.537 107.169 137.075 107.784C137.613 108.399 138.156 108.99 138.529 109.685C138.605 109.822 138.732 110.144 138.732 110.144C138.732 110.144 138.501 109.969 138.43 109.893C138.331 109.784 138.237 109.666 138.133 109.557C138.001 109.42 137.868 109.278 137.722 109.155C137.647 109.094 137.51 108.961 137.401 108.966C137.34 108.971 137.297 109.065 137.297 109.065C137.297 109.065 141.744 114.258 140.871 114.183C139.998 114.107 140.937 115.299 140.937 115.299L137.609 110.29C137.609 110.29 138.293 110.773 138.553 111.104C139.554 112.376 140.153 113.89 140.932 115.299C140.956 115.341 140.98 115.384 141.003 115.427C141.787 116.803 142.519 118.207 143.283 119.593C144.879 122.497 146.503 125.382 148.16 128.253C151.46 133.961 154.888 139.589 158.438 145.146C155.256 139.263 152.088 133.37 148.949 127.468C146.149 122.209 143.373 116.94 140.559 111.686C140.201 111.019 139.167 109.936 139.167 109.936L139.511 109.808C139.511 109.808 139.143 109.496 138.954 109.335C138.765 109.174 139.049 108.81 139.049 108.81C139.049 108.81 138.874 109.103 138.742 109.023C138.61 108.943 138.633 108.701 138.78 108.649C138.005 107.443 137.226 106.237 136.452 105.031C134.531 101.73 132.538 98.4715 130.48 95.2508C128.87 92.7394 127.213 88.8376 124.442 87.537C124.914 87.7641 124.994 86.856 124.711 86.4114C117.294 74.7108 110.118 62.8588 103.197 50.8555L103.216 50.8602Z" fill="currentColor"/>
<path d="M159.83 142.805C160.288 143.169 161.185 148.702 160.614 148.901C161.227 148.906 160.052 147.998 158.008 146.735C157.904 146.489 156.582 145.713 155.463 145.406C156.591 145.439 160.288 143.174 159.825 142.809L159.83 142.805Z" fill="currentColor"/>
<path d="M73.916 192.902C74.3315 191.658 76.6495 190.84 78.9864 189.909C79.8787 188.901 82.2439 187.87 83.9954 186.825C83.8962 186.834 86.4975 185.274 88.9997 183.722L94.0039 180.62C94.8395 180.104 95.6799 179.594 96.5202 179.088C97.3606 178.581 98.2056 178.075 99.0507 177.574C99.976 177.035 105.235 174.424 102.606 175.64C106.864 173.549 109.135 172.428 104.154 174.613C109.461 172.244 112.005 171.09 107.374 173.143C112.331 170.915 112.161 170.967 106.727 173.157C112.161 170.962 113.001 170.612 109.503 172.074C113.086 170.575 112.812 170.669 108.016 172.433C113.119 170.565 113.327 170.485 109.404 171.809C113.412 170.452 113.535 170.404 112.303 170.868C113.596 170.385 113.634 170.385 115.437 170.66C113.667 170.39 113.648 170.395 114.899 170.854C113.672 170.366 113.761 170.324 117.146 168.579C113.936 170.196 113.894 170.21 116.651 168.635C115.319 169.383 114.828 169.638 115.272 169.302C115.716 168.967 117.581 168.153 119.512 166.413C117.642 168.101 115.942 168.801 115.858 168.848C115.773 168.896 116.825 168.181 119.011 166.696C116.943 168.087 116.467 168.394 117.123 167.912C117.779 167.429 120.937 166.64 122.033 164.417C121.088 166.536 118.846 166.881 118.704 166.791C118.959 166.824 121.414 166.46 122.226 164.355C121.721 166.252 121.188 166.091 121.027 165.202C122.675 165.069 125.55 164.781 124.738 162.657C124.997 165.268 129.36 163.778 127.608 161.187C129.322 162.109 130.738 162.577 131.026 162.662C131.852 162.412 131.895 161.593 130.615 160.037C132.65 161.352 133.996 162.062 133.977 162.407C135.03 161.976 135.166 160.898 133.708 159.181C135.87 160.733 136.89 161.693 136.663 162.274C137.843 161.622 138.178 160.283 136.847 158.562C138.509 160.227 138.608 161.641 137.824 162.449C138.481 161.835 138.197 160.666 136.488 158.945C138.24 160.326 138.58 160.567 137.801 160.562C138.769 159.139 138.906 157.29 137.626 155.804C139.864 157.843 140.478 155.426 139.774 153.322C141.752 154.315 142.63 152.636 142.394 151.43C144.108 151.718 145.024 150.621 145.194 149.874C145.793 150.224 145.779 150.233 145.18 149.883C145.779 150.233 147.158 149.221 146.842 148.781C147.153 149.216 147.257 149.377 146.964 148.961C147.257 149.377 145.926 150.503 145.364 150.143C145.93 150.507 145.926 150.507 145.364 150.143C145.93 150.507 145.921 150.512 145.354 150.148C145.18 150.947 144.283 152.224 142.663 151.832C142.899 153.18 142.073 155.034 140.213 153.794C140.931 156.117 140.388 158.533 138.287 156.188C139.566 157.725 139.401 159.612 138.485 161.031C139.255 160.912 139.019 160.482 137.371 159.035C138.99 160.775 139.109 162.298 138.438 163.13C139.113 162.468 138.972 161.139 137.338 159.352C138.972 161.139 139.042 162.601 138.325 163.343C138.915 162.62 138.679 161.21 137.008 159.413C138.381 161.267 138.098 162.771 137.027 163.443C137.182 162.875 136.172 161.811 133.953 160.104C135.544 161.981 135.516 163.197 134.548 163.655C134.524 163.32 133.155 162.52 130.965 161.016C132.475 162.762 132.603 163.688 131.824 163.958C131.545 163.868 130.039 163.315 128.08 162.185C129.317 163.651 128.779 164.734 127.901 165.065C127.027 165.396 125.753 165.008 125.342 163.646C126.688 166.086 122.382 166.138 120.371 166.55C120.054 167.538 120.286 167.86 121.192 166.29C119.908 168.12 116.991 168.593 116.797 168.773C116.603 168.952 118.822 168.725 120.333 167.335C118.709 168.825 116.018 169.307 115.423 169.671C114.828 170.035 115.22 170.035 116.471 169.846C113.823 170.357 113.79 170.409 115.839 171.71C113.705 170.409 113.695 170.414 115.621 171.941C113.695 170.414 113.681 170.409 115.3 171.908C113.653 170.409 113.62 170.409 112.595 172.097C113.558 170.423 113.45 170.504 109.895 172.958C113.37 170.537 113.185 170.655 108.601 173.535C112.912 170.811 113.157 170.65 109.918 172.793C113.072 170.698 112.307 171.175 107.322 174.249C112.307 171.175 112.458 171.076 107.86 173.942C112.142 171.256 109.767 172.684 104.763 175.673C109.442 172.859 107.298 174.126 103.172 176.553C105.698 175.025 100.58 178.009 99.6408 178.548C98.791 179.036 97.9413 179.523 97.0915 180.015C96.2417 180.506 95.3919 180.994 94.5469 181.485C92.852 182.469 91.1572 183.458 89.4576 184.441C87.758 185.425 85.9735 186.409 84.3447 187.369C82.5555 188.324 80.1478 189.265 79.1799 190.202C76.8242 191.048 74.4164 191.767 73.9396 192.888L73.916 192.902Z" fill="currentColor"/>
<path d="M147.602 151.131C147.819 151.552 149.382 147.749 149.59 147.102C149.382 147.749 145.69 147.939 145.109 147.395C145.69 147.943 147.819 151.557 147.602 151.136V151.131Z" fill="currentColor"/>
<path d="M128.176 236.111C127.694 234.891 128.95 232.772 130.135 230.554C130.173 229.211 131.325 226.894 131.995 224.964C131.924 225.035 132.916 222.164 133.836 219.364L135.678 213.765C135.989 212.833 136.301 211.901 136.622 210.97C136.943 210.038 137.264 209.111 137.59 208.184C137.953 207.177 140.309 201.79 139.072 204.415C140.989 200.073 142.013 197.751 139.596 202.632C142.141 197.401 143.349 194.875 141.121 199.43C143.491 194.53 143.392 194.677 140.635 199.86C143.392 194.681 143.812 193.873 142.065 197.245C143.845 193.788 143.699 194.038 141.154 198.474C143.864 193.759 143.972 193.561 141.815 197.098C144.015 193.475 144.076 193.362 143.434 194.511C144.119 193.31 144.142 193.286 145.7 192.336C144.171 193.267 144.156 193.286 145.412 192.832C144.161 193.253 144.199 193.163 145.672 189.645C144.251 192.95 144.227 192.993 145.332 190.009C144.789 191.437 144.577 191.953 144.704 191.409C144.832 190.865 145.733 189.039 146.097 186.466C145.747 188.968 144.893 190.595 144.865 190.685C144.836 190.775 145.181 189.55 145.903 187.006C145.214 189.403 145.044 189.943 145.238 189.153C145.431 188.363 147.348 185.719 146.753 183.312C147.39 185.539 145.894 187.251 145.724 187.275C145.941 187.133 147.584 185.275 146.857 183.146C147.683 184.925 147.173 185.142 146.484 184.565C147.659 183.402 149.68 181.335 147.693 180.228C149.567 182.059 151.956 178.109 148.948 177.253C150.851 176.861 152.239 176.303 152.517 176.18C152.994 175.456 152.494 174.804 150.516 174.435C152.919 174.132 154.406 173.81 154.614 174.085C155.142 173.073 154.557 172.16 152.338 171.791C154.991 171.588 156.384 171.663 156.587 172.259C157.073 171.001 156.469 169.757 154.344 169.298C156.686 169.507 157.668 170.523 157.588 171.649C157.696 170.755 156.729 170.041 154.316 169.823C156.544 169.753 156.96 169.719 156.36 170.216C156.186 168.504 155.105 166.995 153.174 166.683C156.2 166.801 155.119 164.56 153.226 163.401C155.378 162.885 154.972 161.036 154.019 160.265C155.515 159.381 155.515 157.957 155.161 157.272C155.846 157.153 155.841 157.172 155.156 157.29C155.841 157.172 156.242 155.512 155.723 155.375C156.242 155.507 156.422 155.564 155.931 155.432C156.422 155.564 156.129 157.281 155.463 157.366C156.129 157.281 156.129 157.286 155.463 157.371C156.129 157.286 156.124 157.295 155.463 157.385C155.841 158.109 155.973 159.669 154.481 160.407C155.525 161.292 156.082 163.24 153.868 163.486C155.912 164.806 157.04 167.005 153.929 166.56C155.893 166.915 156.979 168.466 157.191 170.145C157.706 169.559 157.248 169.384 155.057 169.336C157.418 169.625 158.48 170.717 158.504 171.786C158.593 170.845 157.635 169.918 155.237 169.601C157.635 169.918 158.626 170.992 158.556 172.023C158.541 171.091 157.46 170.159 155.024 169.861C157.267 170.396 158.017 171.734 157.621 172.94C157.375 172.406 155.921 172.24 153.122 172.363C155.544 172.779 156.304 173.73 155.855 174.7C155.619 174.454 154.061 174.728 151.417 174.983C153.693 175.347 154.387 175.976 153.967 176.686C153.693 176.795 152.187 177.343 149.963 177.741C151.852 178.067 152.135 179.245 151.672 180.063C151.214 180.876 149.992 181.401 148.802 180.626C151.399 181.628 148.132 184.442 146.857 186.05C147.249 187.01 147.631 187.11 147.32 185.322C147.513 187.549 145.578 189.791 145.544 190.056C145.511 190.321 147.069 188.718 147.334 186.679C147.046 188.864 145.294 190.969 145.068 191.631C144.841 192.293 145.148 192.038 145.984 191.092C144.279 193.192 144.293 193.248 146.696 192.922C144.227 193.3 144.223 193.31 146.677 193.239C144.223 193.31 144.208 193.319 146.408 193.419C144.185 193.334 144.161 193.352 144.454 195.306C144.119 193.404 144.086 193.532 142.938 197.704C144.043 193.613 143.982 193.821 142.315 198.98C143.869 194.119 143.953 193.84 142.849 197.562C143.92 193.925 143.642 194.785 141.796 200.347C143.642 194.781 143.699 194.61 142.013 199.766C143.566 194.951 142.665 197.576 140.753 203.086C142.532 197.916 141.702 200.272 140.096 204.784C141.05 201.988 139.044 207.569 138.671 208.586C138.331 209.508 137.996 210.426 137.66 211.348C137.325 212.27 136.99 213.192 136.655 214.115C135.989 215.959 135.323 217.808 134.653 219.658C133.983 221.502 133.251 223.408 132.614 225.191C131.858 227.073 130.617 229.348 130.47 230.687C129.21 232.853 127.826 234.953 128.181 236.121L128.176 236.111Z" fill="currentColor"/>
<path d="M157.819 156.662C158.254 156.847 157.012 152.926 156.757 152.297C157.017 152.926 154.307 155.447 153.514 155.404C154.307 155.451 158.258 156.847 157.824 156.667L157.819 156.662Z" fill="currentColor"/>
<path d="M197.461 234.278C196.309 233.654 195.913 231.223 195.398 228.759C194.562 227.704 193.963 225.193 193.236 223.277C193.226 223.377 192.145 220.539 191.055 217.805C189.964 215.072 188.873 212.333 188.873 212.333C188.515 211.421 188.156 210.503 187.802 209.586C187.448 208.668 187.098 207.751 186.754 206.828C186.386 205.821 184.733 200.179 185.47 202.988C184.152 198.424 183.449 195.993 184.728 201.281C183.322 195.634 182.628 192.924 183.841 197.847C182.514 192.569 182.533 192.744 183.746 198.49C182.533 192.749 182.335 191.86 183.161 195.567C182.307 191.77 182.354 192.063 183.255 197.095C182.307 191.737 182.259 191.514 182.883 195.615C182.24 191.424 182.217 191.292 182.462 192.593C182.217 191.231 182.217 191.197 182.802 189.466C182.226 191.164 182.231 191.188 182.901 190.034C182.212 191.16 182.184 191.065 181.055 187.423C182.089 190.871 182.094 190.918 181.027 187.92C181.528 189.362 181.698 189.892 181.443 189.396C181.188 188.899 180.711 186.917 179.337 184.713C180.673 186.851 181.065 188.648 181.098 188.738C181.131 188.828 180.612 187.665 179.531 185.253C180.541 187.532 180.753 188.057 180.395 187.329C180.036 186.596 179.809 183.342 177.807 181.876C179.724 183.172 179.677 185.446 179.564 185.574C179.639 185.328 179.71 182.845 177.784 181.677C179.559 182.505 179.309 183.006 178.407 183.006C178.563 181.36 178.78 178.471 176.552 178.906C179.162 179.104 178.459 174.54 175.603 175.817C176.807 174.29 177.515 172.97 177.647 172.701C177.548 171.84 176.75 171.66 174.994 172.653C176.641 170.875 177.571 169.669 177.907 169.745C177.666 168.629 176.627 168.307 174.687 169.451C176.585 167.588 177.704 166.751 178.237 167.073C177.803 165.796 176.542 165.228 174.621 166.25C176.547 164.902 177.954 165.048 178.615 165.961C178.124 165.204 176.925 165.285 174.937 166.671C176.599 165.181 176.896 164.888 176.755 165.658C175.522 164.457 173.728 163.998 172.048 165.006C174.441 163.152 172.171 162.126 169.98 162.457C171.297 160.678 169.801 159.52 168.578 159.543C169.159 157.902 168.243 156.81 167.534 156.512C167.983 155.982 167.992 155.996 167.539 156.531C167.988 156.001 167.232 154.464 166.746 154.696C167.232 154.464 167.402 154.388 166.944 154.606C167.407 154.388 168.28 155.897 167.827 156.389C168.28 155.897 168.285 155.897 167.827 156.393C168.28 155.897 168.285 155.911 167.827 156.408C168.583 156.72 169.683 157.826 169.017 159.354C170.381 159.354 172.062 160.489 170.523 162.111C172.931 161.804 175.211 162.764 172.544 164.429C174.276 163.436 176.103 163.923 177.34 165.077C177.359 164.301 176.896 164.457 175.187 165.833C177.18 164.538 178.695 164.684 179.398 165.493C178.865 164.713 177.534 164.623 175.494 165.919C177.534 164.618 178.983 164.802 179.592 165.635C178.983 164.93 177.557 164.916 175.504 166.254C177.567 165.219 178.997 165.762 179.469 166.935C178.94 166.685 177.718 167.493 175.655 169.39C177.774 168.146 178.969 168.387 179.247 169.418C178.912 169.381 177.888 170.596 176.032 172.492C178.01 171.305 178.945 171.339 179.077 172.157C178.94 172.417 178.138 173.803 176.684 175.543C178.341 174.578 179.313 175.297 179.483 176.219C179.653 177.142 179.054 178.329 177.642 178.499C180.277 177.596 179.578 181.852 179.63 183.909C180.546 184.392 180.904 184.222 179.516 183.053C181.093 184.638 181.051 187.598 181.197 187.821C181.343 188.043 181.504 185.815 180.399 184.08C181.58 185.943 181.589 188.677 181.844 189.329C182.099 189.982 182.165 189.589 182.198 188.327C182.24 191.032 182.288 191.07 183.916 189.273C182.264 191.15 182.274 191.164 184.105 189.528C182.269 191.164 182.264 191.179 184.016 189.84C182.255 191.207 182.25 191.24 183.732 192.545C182.255 191.301 182.316 191.424 184.11 195.355C182.335 191.51 182.415 191.708 184.45 196.731C182.519 192.006 182.406 191.737 183.949 195.303C182.439 191.826 182.774 192.664 184.931 198.117C182.774 192.664 182.703 192.498 184.724 197.535C182.826 192.843 183.817 195.435 185.89 200.888C183.935 195.785 184.809 198.121 186.48 202.61C185.413 199.852 187.462 205.419 187.825 206.44C188.156 207.363 188.486 208.285 188.822 209.207C189.157 210.129 189.492 211.052 189.827 211.974C190.502 213.818 191.177 215.663 191.848 217.507C192.518 219.352 193.179 221.286 193.835 223.06C194.463 224.989 194.968 227.529 195.724 228.65C196.149 231.123 196.432 233.621 197.456 234.287L197.461 234.278Z" fill="currentColor"/>
<path d="M169.191 154.327C169.644 154.185 166.175 151.981 165.575 151.664C166.179 151.981 165.721 155.656 165.084 156.133C165.721 155.656 169.644 154.185 169.191 154.327Z" fill="currentColor"/>
<path d="M111.978 147.916C109.754 148.455 108.862 148.701 108.692 148.635C108.305 148.446 108.612 147.949 109.697 146.601C108.328 147.845 107.247 148.351 105.93 148.181C105.42 148.053 104.537 147.207 103.381 144.927C104.23 147.122 104.216 147.992 102.956 148.266C103.343 148.555 102.238 148.252 99.7266 147.472C102.521 148.758 101.662 148.47 98.8957 147.656C100.345 148.105 99.9627 148.086 98.5511 147.954C99.0421 147.911 97.7815 147.618 96.8562 147.552C96.2708 147.207 94.1369 146.696 93.8961 146.739C92.409 146.218 90.9974 145.859 92.5082 145.958C90.4451 145.537 88.9627 145.239 89.7558 145.386C87.8391 144.738 87.1168 144.284 87.8816 143.75C86.4889 144.114 84.8082 143.366 83.6468 142.222C81.6829 141.593 79.8511 140.359 78.2696 139.129C81.8292 141.952 81.8009 142.222 80.6537 141.508C80.2855 141.669 78.6095 140.775 77.2168 139.947C78.3971 140.742 80.6395 141.825 77.2357 140.311C78.4018 140.983 80.2807 141.839 80.7528 141.938C81.9614 142.695 81.9614 142.799 77.4812 141.049C79.3554 141.91 79.6151 142.165 77.7833 141.976C80.191 142.496 80.564 142.596 78.7795 142.331C80.9228 142.969 82.7121 143.026 79.3554 144.639C80.6018 143.821 82.1833 144.241 84.0906 145.414C85.0018 145.443 86.5597 146.445 87.4944 147.599C86.8335 146.318 85.7713 146.157 86.1962 148.749C85.9318 146.289 86.2481 146.185 88.212 148.115C86.4511 146.403 86.4181 146.781 87.4425 149.316C86.503 146.857 86.6588 146.592 88.6417 148.266C86.6258 146.478 86.5786 146.824 87.8391 149.378C86.8052 147.117 88.5897 147.789 90.7378 149.491C88.6983 147.916 87.0648 147.405 88.3348 149.534C87.046 147.368 88.6464 147.826 90.6953 149.406C88.7266 147.845 87.2301 147.424 88.6511 149.51C87.3481 147.538 89.0241 148.11 90.8983 149.6C89.0618 147.964 87.4236 147.254 88.8919 149.231C87.2726 146.932 88.6653 147.254 90.7047 148.928C88.6841 147.282 87.3245 146.989 88.958 149.255C87.5086 147.353 89.161 148.101 90.9219 149.68C89.1421 148.261 87.4661 147.675 88.7597 149.538C87.3292 147.519 88.7927 147.911 90.7095 149.415C88.7266 147.902 87.1829 147.491 88.5189 149.572C87.249 147.599 88.9013 148.153 90.8133 149.628C88.7927 148.016 86.9893 147.297 88.0893 149.43C86.7202 146.932 86.7249 146.545 88.7361 148.29C86.7769 146.606 86.8335 147.065 88.2215 149.463C87.0696 147.363 88.7361 147.911 90.7095 149.406C88.8163 147.93 87.4142 147.609 88.8541 149.595C87.6266 147.916 89.3498 148.616 90.955 149.912C89.4631 148.559 89.2365 148.465 90.5159 149.969C89.6661 149.326 88.2262 148.025 88.9202 148.276C87.3103 146.776 87.7872 146.696 90.955 149.179C89.3451 147.987 89.8172 148.167 91.4554 149.392C90.1288 147.921 90.2798 147.784 91.8992 148.838C90.3979 147.363 90.497 147.098 92.3807 147.789C90.6009 147.415 90.6056 147.921 91.8472 149.198C90.4781 148.176 90.2279 147.897 91.7622 148.555C90.1713 147.968 90.4592 148.659 91.5498 149.945C90.7095 149.321 90.7661 149.368 91.6206 149.974C90.6386 148.777 90.4356 148.086 91.9983 148.394C90.4876 147.94 90.8605 148.654 91.9322 149.884C91.3468 149.529 91.885 149.903 92.6923 150.603C92.6923 150.035 94.1086 149.453 95.3549 148.356C94.5618 149.387 94.2597 150.082 94.5807 150.726C94.7506 150.39 96.2 150.172 96.8609 149.907C96.1245 150.267 94.6468 150.584 94.5618 151.066C94.373 150.551 95.3597 150.134 96.3322 149.401C95.067 150.324 93.5798 150.915 93.8395 151.624C93.7404 151.217 95.6807 151.014 97.012 150.636C96.03 150.981 94.7837 151.246 94.8403 151.794C95.0481 151.378 96.6957 151.293 97.4086 151.345C96.6957 151.293 95.0622 151.388 94.864 151.861C94.8403 151.373 96.1811 151.246 97.1772 151.132C95.8412 151.345 95.0528 151.477 95.506 151.955C96.4597 151.553 99.2734 151.501 100.331 152.05C99.6086 151.572 98.518 151.629 97.8854 152.031C98.7305 151.7 100.019 151.714 100.496 152.305C100 151.78 97.588 152.017 96.1811 152.948C95.6665 153.062 95.2652 154.244 96.0017 156.084C95.3313 154.897 94.0519 154.131 93.5846 154.381C93.0605 153.733 92.6687 153.89 92.9425 154.76C92.6073 154.608 92.5034 155.124 92.6073 155.928C92.4893 156.075 92.7301 156.864 93.1691 157.366C92.7584 156.841 92.579 156.179 92.7206 156.155C92.664 155.606 92.8717 155.493 93.1408 155.871C93.0275 155.606 93.07 155.89 93.1738 156.415C93.221 156.514 93.4571 157.072 93.7262 157.493C93.424 157.191 93.1502 156.779 93.1219 156.67C92.9519 156.349 92.9095 156.179 93.0605 156.372C92.6167 156.117 92.2343 156.16 92.324 156.462C92.0266 156.618 92.1871 157.167 92.7773 157.422C92.0172 157.12 91.6112 156.467 91.8519 156.302C91.6253 155.904 91.97 155.795 92.5979 156.065C91.8378 155.791 91.3043 155.862 91.4743 156.264C91.1249 156.429 91.4837 157.101 92.3335 157.351C91.4507 157.096 90.9833 156.718 91.2004 156.685C90.8841 157.03 91.2429 157.782 92.1541 157.853C91.224 157.872 90.8464 157.21 91.191 156.732C91.0069 156.704 91.5404 156.718 92.461 156.732C91.564 156.576 91.0447 156.382 91.2713 156.477C90.9644 156.642 91.4082 157.176 92.3288 157.337C91.4695 157.139 91.1013 156.566 91.4412 156.406C91.2571 156.207 91.8 156.306 92.612 156.524C91.9039 156.424 91.5262 156.495 91.7717 156.628C91.4884 156.983 91.8803 157.55 92.7112 157.616C91.8661 157.588 91.4648 157.068 91.7481 156.699C91.4884 156.661 91.8661 156.651 92.6073 156.699C91.7575 156.557 91.2099 156.415 91.4034 156.51C91.0635 156.722 91.4412 157.243 92.324 157.361C91.4176 157.096 90.9361 156.694 91.1438 156.67C90.8228 157.016 91.1768 157.801 92.0738 157.9C91.0919 157.952 90.6386 157.503 90.7897 157.124C90.5253 157.692 90.8416 158.359 91.6584 158.278C90.7378 158.69 90.3601 158.387 90.2798 157.829C90.1949 158.633 90.4215 159.224 90.7236 159.205C90.3365 159.489 90.0721 159.243 89.6661 158.728C89.9116 159.461 90.0296 159.962 89.6519 160.232C89.6897 160.331 88.7833 161.66 87.4803 163.325C86.1773 164.99 84.4966 167.056 83.0614 168.792C81.6262 170.532 80.4318 171.947 80.1013 172.315C80.7576 172.174 95.4258 154.746 79.8653 173.777C98.4991 152.059 80.1438 174.354 79.8134 174.779C82.4288 171.942 89.3451 163.197 80.2619 176.212C80.9606 175.38 88.1176 164.308 86.7721 169.511C87.2017 168.853 88.3112 166.862 89.4914 164.971C90.6717 163.079 91.9228 161.296 92.6451 161.059C92.4893 160.449 93.3155 159.754 94.3966 158.978C94.7837 158.515 95.8365 157.645 96.233 157.276C97.3566 156.358 98.5322 155.408 98.5794 155.294C99.7833 154.353 100.515 153.762 99.9013 154.239C101.285 153.199 101.568 153.048 100.274 154.334C102.432 152.31 103.107 151.671 101.006 154.046C102.975 152.182 103.914 151.364 103.787 151.993C105 151.492 105.368 152.31 105.642 154.793C105.614 152.097 106.067 150.882 106.553 150.692C107.611 149.647 108.819 149.444 110.675 149.633C109.032 149.236 108.531 149.108 108.838 149.056C108.885 148.725 109.778 148.46 111.997 147.921L111.978 147.916Z" fill="currentColor"/>
<path d="M250.794 103.827C249.727 104.134 248.769 104.616 249.071 104.465C247.74 104.99 247.107 105.208 247.674 104.881C246.56 105.312 246.413 105.293 247.405 104.706C246.729 104.962 247.419 104.531 249.066 103.585C247.669 104.266 245.861 105.16 246.012 104.957C244.893 105.581 244.397 105.818 244.766 105.539C244.109 105.955 244.275 105.874 245.261 105.307C244.02 105.979 242.74 106.546 243.057 106.272C241.89 106.721 241.305 106.91 242.079 106.527C241.154 107.147 241.055 107.18 241.924 106.56C241.338 106.972 242.353 106.395 243.623 105.444C242.334 106.347 241.362 106.849 241.905 106.248C241.083 106.872 241.267 106.65 242.046 105.595C241.489 106.371 242.117 105.865 242.948 104.777C242.849 105.104 243.755 104.186 244.6 102.971C243.878 104.049 243.227 104.725 243.293 104.371C242.58 105.364 241.99 105.837 242.4 105.033C241.31 106.541 240.573 107.133 241.083 106.272C240.512 107.255 241.102 106.929 242.589 105.6C241.508 106.612 240.417 106.844 240.705 106.338C239.79 107.709 240.115 106.589 240.219 106.012C239.945 106.83 239.813 106.849 239.643 106.007C239.799 106.683 240.016 106.546 240.502 105.515C240.29 106.262 240.72 105.756 241.414 104.172C240.701 105.737 240.248 106.224 240.366 105.378C239.912 106.442 239.667 106.537 239.247 105.567C239.568 106.603 239.081 107.303 238.222 105.638C238.94 106.74 239.006 106.215 238.548 104.437C239.011 105.468 238.968 103.954 238.496 102.124C238.959 103.954 238.992 105.458 238.496 104.418C238.959 106.196 238.878 106.707 238.057 105.581C238.945 107.246 238.93 107.43 237.958 106.295C238.827 107.237 238.926 107.076 238.491 105.742C238.992 106.688 239.011 105.912 238.515 103.978C238.982 105.908 238.935 106.683 238.307 105.728C238.784 107.066 238.633 107.227 237.495 106.314C238.595 107.435 238.26 107.213 236.556 105.747C237.878 106.702 237.557 106.144 236.14 104.564C237.188 105.43 236.334 104.03 235.177 102.592C236.353 104.527 236.749 105.454 235.135 104.375C236.334 105.439 235.385 104.65 233.903 103.524C234.611 103.817 234.318 103.945 233.27 103.278C233.737 103.306 233.265 102.9 232.345 102.29C233.317 104.087 230.187 101.661 228.927 101.405C228.181 101.381 226.675 100.492 225.763 100.365C223.941 100.114 222.397 99.8964 221.302 99.7451L219.574 99.5039C219.574 99.5039 220.382 100.152 221.595 101.126C222.199 101.613 222.907 102.181 223.663 102.791C224.418 103.401 225.31 104.063 226.037 104.697C226.92 105.354 230.197 106.631 228.412 106.603C230.064 107.085 232.543 107.558 231.901 107.814C233.709 108.078 233.01 108.249 230.48 108.268C231.844 108.286 233.421 108.31 232.425 108.452C234.323 108.395 235.418 108.386 233.822 108.594C236.173 108.466 236.759 108.461 234.696 108.859C236.56 108.556 236.183 108.632 234.096 109.02C235.706 108.722 234.516 108.93 232.562 109.27C234.54 108.939 235.885 108.717 234.323 109.053C236.48 108.646 236.976 108.566 235.22 108.982C237.387 108.528 237.363 108.561 235.196 109.152C236.938 108.693 236.4 108.845 234.271 109.417C235.786 109.01 234.389 109.388 232.496 109.89C234.389 109.388 235.791 109.01 234.275 109.426C236.405 108.854 236.948 108.712 235.22 109.209C237.387 108.618 237.439 108.632 235.357 109.355C237.075 108.807 236.627 108.986 234.568 109.743C236.088 109.228 234.851 109.72 232.963 110.443C234.837 109.738 235.956 109.308 234.422 109.88C236.424 109.143 236.787 109.015 235.045 109.72C237.033 108.996 236.669 109.469 234.615 110.632C236.126 109.928 235.262 110.486 233.567 111.498C234.568 111.034 233.213 111.942 232.019 112.727C233.718 111.678 234.96 110.968 233.761 111.862C235.139 111.148 234.37 111.942 233.138 113.087C233.558 113.092 232.382 114.326 231.457 115.409C233.242 114.052 231.127 117.358 230.82 118.488C230.621 119.784 230.239 121.283 229.979 122.522C229.465 125.005 229.078 126.868 229.078 126.868L230.286 125.606C231.046 124.806 232.127 123.676 233.397 122.347C234.039 121.666 234.866 120.692 235.427 120.219C236.263 119.226 237.292 115.698 237.651 117.892C237.967 116.842 238.09 116.194 237.76 116.483C238.147 115.3 238.274 114.34 237.859 115.087C238.373 113.238 238.657 111.725 238.279 113.366C238.855 111.63 238.978 111.701 238.779 113.475C239.237 112.042 239.454 113.04 239.45 114.804C239.506 112.936 239.318 111.361 239.001 112.647C239.171 110.59 239.072 110.008 238.567 111.503C239.072 109.388 239.199 109.057 238.973 110.505C239.351 109.19 239.582 109.228 240.026 110.467C239.941 109.426 240.469 109.98 241.263 111.696C240.488 109.961 239.988 109.388 240.158 110.344C239.686 109.138 239.487 109.072 239.336 110.23C239.454 108.859 239.572 108.968 239.804 110.68C239.818 109.398 240.186 109.701 240.88 111.257C240.649 110.216 241.527 111.323 242.282 113.04C241.527 111.318 240.654 110.202 240.904 111.219C240.205 109.667 239.842 109.341 239.889 110.547C239.634 108.854 240.583 109.015 240.932 109.913C240.696 109.02 240.96 108.963 241.98 109.474C241.366 108.944 242.027 109.067 243.533 109.786C242.032 109.043 241.376 108.901 242.008 109.303C240.989 108.84 240.72 108.845 241.008 109.374C240.639 108.717 239.771 108.296 240.262 108.57C240.021 108.286 240.446 108.211 241.494 108.249C240.989 108.145 242.004 108.059 243.439 108.13C241.494 108.069 240.814 108.14 241.805 108.419C240.927 108.173 241.834 108.164 243.562 108.48C242.764 108.234 243.481 108.22 244.629 108.424C244.364 108.268 245.299 108.334 246.536 108.584C245.224 108.315 244.246 108.23 244.539 108.348C243.401 108.14 242.792 108.13 243.633 108.286C241.994 108.017 241.418 107.993 242.584 107.932C241.602 107.894 241.758 107.818 242.835 107.639C242.183 107.662 243.264 107.416 244.586 107.17C242.759 107.468 242.466 107.492 243.916 107.137C243.099 107.284 243.581 107.137 244.61 106.872C244.374 106.896 245.224 106.65 246.508 106.3C246.371 106.291 248.032 105.808 249.647 105.321C247.792 105.794 246.989 105.969 247.664 105.685C246.545 105.96 246.597 105.666 247.707 105.184C247.093 105.378 247.726 105.104 249.057 104.545C248.745 104.65 249.713 104.153 250.78 103.846L250.794 103.827Z" fill="currentColor"/>
<path d="M208.797 121.163C208.849 121.083 208.665 121.187 208.287 121.433C208.462 121.414 208.655 121.362 208.797 121.163Z" fill="currentColor"/>
<path d="M223.285 119.291C222.185 116.633 222.006 116.822 222.568 119.518C221.907 117.101 220.731 117.688 218.999 120.246C217.97 119.887 216.804 120.024 215.534 120.426C214.264 120.828 212.89 121.49 211.445 122.19C207.149 123.836 203.74 126.541 199.595 128.3C197.655 129.128 195.871 129.795 194.402 130.537C192.599 131.308 190.913 132.027 189.294 132.202C187.642 132.004 185.739 132.406 185.461 131.838C184.984 133.555 186.188 134.155 187.859 134.52C188.647 135.234 189.903 135.716 191.15 136.246C192.504 136.355 194.025 136.482 195.54 136.615C200.086 137.003 204.6 137.409 204.6 137.409C204.6 137.409 200.162 136.771 195.71 136.099C194.228 135.877 192.74 135.65 191.419 135.437C189.946 134.732 188.6 134.066 187.821 133.474C186.636 133.063 186.018 132.727 186.613 132.354C185.952 132.614 188.232 132.704 191.338 132.117C192.731 131.403 194.365 130.58 196.13 129.8C199.916 128.39 203.316 126.74 207.177 124.474C208.15 123.921 209.085 123.349 210.062 122.843C211.058 122.36 212.04 121.887 212.989 121.424C215.84 120.043 218.413 118.799 220.623 119.972C222.119 116.997 223.248 116.439 224.097 119.031C222.974 116.34 222.724 116.363 223.295 119.277L223.285 119.291Z" fill="currentColor"/>
<path d="M231.235 115.069C229.314 113.173 229.134 113.362 230.565 115.594C229.795 114.629 228.828 114.44 227.723 115.046C226.623 115.594 225.381 116.942 224.069 119.051C219.74 118.257 215.108 120.522 210.486 122.792C208.947 123.549 207.489 124.415 206.025 125.219C203.315 126.741 200.766 127.981 197.829 129.187C196.654 129.693 195.615 130.128 194.765 130.558C193.066 131.419 192.056 131.949 192.074 131.991C192.202 132.256 192.391 132.431 192.641 132.521C192.891 132.611 193.146 132.587 193.415 132.459C193.684 132.332 193.84 132.152 193.92 131.901C194.001 131.655 193.977 131.395 193.85 131.13C193.835 131.097 194.293 130.672 195.124 130.052C200.785 125.867 208.419 123.213 212.21 116.649C213.003 115.764 213.621 115.06 214.655 114.894C216.723 114.568 218.895 115.698 221.354 119.553C221.586 115.386 221.949 112.435 222.025 112.435C223.285 108.911 224.258 108.339 225.004 112.757C227.18 109.55 229.12 111.333 231.75 114.478C230.744 113.319 229.89 112.336 229.158 111.598C229.479 111.215 229.498 110.959 228.955 110.794C228.053 110.425 225.825 110.425 225.542 112.761C225.971 110.704 227.411 110.581 228.044 110.969C228.677 111.357 229.876 112.861 231.424 114.752C228.592 111.196 229.701 112.984 231.226 115.069H231.235Z" fill="currentColor"/>
<path d="M187.208 124.816C186.448 124.419 186.023 124.627 185.391 124.405C195.291 126.434 204.855 121.265 211.078 113.518C212.107 115.646 211.876 117.334 211.847 119.448C213.778 116.932 214.448 113.981 216.384 111.484C217.895 109.502 219.406 108.192 219.462 110.841C220.307 109.824 221.166 109.134 222.021 108.769C224.66 107.975 228.021 109.498 226.501 112.865C229.707 109.734 234.971 110.855 238.988 110.486C238.346 111.323 238.124 111.957 237.275 112.368C238.563 110.694 240.891 110.089 241.977 107.984C239.866 107.956 237.945 109.413 236.245 110.24C237.52 109.621 239.22 108.798 240.494 108.178C237.945 109.417 235.381 111.711 232.421 112.094C235.806 111.503 238.153 109.838 240.919 107.97C239.645 108.59 238.781 110.06 237.303 110.25C241.127 108.396 244.332 105.26 246.702 101.486C247.075 105.511 243.676 107.161 241.745 109.673C244.734 107.171 247.307 103.822 249.46 100.673C250.272 103.435 248.761 105.743 247.255 108.05C248.558 105.317 250.706 102.172 249.266 99.1922C246.896 102.971 244.734 107.171 240.688 109.658C243.454 107.79 245.182 104.849 247.538 102.129C246.651 105.714 244.087 108.008 242.156 110.524C243.884 107.582 247.708 105.728 247.963 101.926C246.457 104.234 244.729 107.176 242.387 108.836C247.5 105.303 249.058 98.7666 249.346 92.8453C251.405 97.1018 250.078 101.95 247.911 106.154C251.773 101.127 251.225 94.5621 251.084 88.8489C254.209 92.0602 254.365 96.7187 254.308 100.947C255.016 94.8222 253.836 88.0402 248.817 84.1668C253.217 86.7585 255.262 92.0744 255.62 97.1538C255.493 90.3813 251.763 84.8384 246.962 80.3359C251.778 83.779 255.724 88.6976 256.069 94.8364C255.71 89.757 252.391 85.0607 248.416 82.2608C252.807 85.912 256.111 91.663 255.823 97.5842C256.097 92.7224 254.053 87.4065 249.648 84.8147C252.75 90.1401 253.723 96.5012 252.382 102.404C253.081 97.3336 253.586 90.7833 248.563 86.9146C252.292 92.4622 252.202 99.8638 249.172 105.534C250.909 101.538 252.24 96.6904 251.235 92.448C253.293 96.7045 251.966 101.552 250.224 105.549C251.962 101.552 252.868 96.9079 250.588 93.2852C250.097 98.7808 248.973 104.054 245.126 108.022C248.331 104.891 249.441 100.673 250.55 96.4586C250.923 100.483 249.606 104.272 247.661 107.842C248.742 105.743 249.195 103.42 250.276 101.316C246.877 102.966 246.4 107.403 243.001 109.048C244.507 106.74 247.481 105.298 246.891 101.907C245.154 105.903 241.33 107.757 238.342 110.259C238.984 109.422 239.408 109.214 240.258 108.802C238.365 108.145 237.284 110.245 235.155 110.604C233.55 111.153 231.34 111.574 231.227 112.364C230.377 110.188 236.642 109.729 236.571 109.299C236.5 108.869 234.702 109.19 230.443 109.829C231.789 109.422 230.764 109.431 228.036 109.361C226.671 109.327 225.269 109.342 224.122 109.597C223.263 110.008 222.559 110.647 222.087 111.541C222.403 106.807 220.921 108.5 219.146 111.65C218.66 112.411 218.098 113.537 217.494 114.946C216.889 116.355 216.242 118.049 215.586 119.945C214.184 117.784 213.179 113.541 212.329 113.953C205.748 116.62 200.805 123.748 192.779 124.514C189.035 124.849 187.203 124.812 187.203 124.812L187.208 124.816Z" fill="currentColor"/>
<path d="M180.098 134.116C171.043 139.106 172.237 137.957 180.919 130.214C174.711 135.918 175.986 135.034 182.024 129.652C175.358 134.816 173.871 135.8 179.588 129.188C171.095 137.933 169.816 139.082 174.376 130.3C168.239 138.534 168.097 136.892 169.872 124.648C168.352 133.62 168.744 131.983 170.864 123.347C168.428 131.87 167.979 133.662 168.768 124.629C167.512 137.309 161.016 131.624 161.795 123.38C159.217 132.239 158.07 130.957 151.234 119.975C156.205 128.181 155.487 126.691 150.771 118.367C155.162 127.112 155.936 128.706 150.115 120.978C157.9 131.695 159.099 133.085 158.523 130.134C158.65 134.873 155.18 142.752 141.952 139.99C151.814 141.754 150.134 140.993 140.328 137.829C150.025 141.31 151.758 142.175 141.811 141.721C155.383 143.438 159.066 135.724 163.612 140.662C159.472 137.105 156.144 146.091 145.361 154.108C152.858 147.425 151.106 147.879 141.697 152.173C151.106 147.879 153.065 147.586 146.602 155.422C156.823 146.682 160.411 137.961 168.758 145.254C161.563 138.718 158.967 148.404 156.545 161.032C156.974 151.336 155.799 152.698 151.744 161.443C162.021 142.733 156.781 139.853 158.315 161.017C159.661 147.936 168.786 145.628 180.348 149.827C170.472 145.859 164.297 140.023 169.783 151.033C164.566 143.57 164.542 145.42 166.52 154.032C164.755 145.32 164.991 143.367 171.1 150.201C164.986 139.56 171.218 145.24 182.279 145.779C172.398 143.878 173.706 144.951 184.04 150.39C175.995 147.519 176.977 149.014 183.473 153.966C176.874 148.801 175.84 147.203 184.319 149.449C173.611 144.214 172.412 142.823 182.425 138.737C172.639 141.66 174.277 141.523 185.645 140.189C177.549 141.508 179.187 141.636 187.043 141.802C179.291 141.849 177.398 141.191 185.367 138.817C173.054 140.515 170.401 140.737 180.107 134.116H180.098Z" fill="currentColor"/>
<path d="M174.329 95.3826C175.787 93.6232 176.51 92.805 176.462 92.8665C176.415 92.928 175.598 93.8739 174.111 95.7042C175.565 94.0016 176.377 93.1172 176.429 93.0557C176.481 92.9942 175.778 93.7556 174.329 95.3826Z" fill="currentColor"/>
<path d="M179.522 90.8022C180.759 89.8705 181.194 88.6077 182.265 87.5625C180.773 88.8111 179.702 89.8563 178.838 91.3271C179.905 90.2819 180.769 88.8111 182.043 88.1963C180.769 88.8158 180.113 90.7123 179.041 91.7528C179.683 90.9157 180.122 89.6529 181.397 89.0334C180.316 91.1332 178.191 92.1643 177.11 94.2689C177.535 94.0608 178.177 93.2236 178.399 92.5946C177.946 94.9168 176.029 96.3735 175.373 98.27L175.59 97.6362C170.85 105.189 172.856 113.678 176.657 121.345C175.476 122.163 174.022 123.379 173.904 122.655C174.636 124.66 175.854 124.197 177.355 123.104C178.219 123.223 178.838 123.312 179.867 123.45C183.922 123.554 188.143 123.606 191.953 122.806C186.882 123.166 181.382 123.729 176.534 122.499C175.349 123.147 174.679 123.331 175.009 122.343C174.556 123.289 176.095 121.912 177.592 120.758C172.446 112.827 171.1 102.446 177.318 94.6992C176.468 95.1107 176.251 95.7444 176.029 96.3735C177.318 94.6992 178.607 93.0203 179.688 90.9204C179.046 91.7575 178.399 92.5946 177.757 93.4365C179.47 91.5542 179.919 89.232 182.11 88.0071C182.388 87.6098 181.585 88.48 179.522 90.8116V90.8022Z" fill="currentColor"/>
<path d="M186.089 86.7369C186.245 82.0264 186.311 80.5981 186.481 76.9375C186.094 80.6832 185.806 82.2014 184.442 87.1105C185.683 82.4757 185.863 81.1987 185.735 78.1908C185.806 79.7704 185.796 80.915 185.627 82.3007C185.457 83.6864 185.126 85.285 184.309 87.2619C185.145 85.3559 185.48 83.9891 185.593 83.1378C185.707 82.2865 185.617 81.9885 185.386 81.719C185.494 82.5986 185.471 83.5067 185.211 85.0863C185.079 85.8762 184.767 86.5336 184.3 87.3565C183.733 88.4395 182.666 89.48 182.02 90.3218C182.445 90.1137 182.662 89.4847 183.087 89.2766C181.798 90.9509 180.509 92.6298 179.428 94.7297C179.645 94.0959 179.442 93.6703 180.292 93.2588C174.702 101.228 173.72 112.214 178.465 120.945C174.145 112.006 174.301 99.3172 181.784 92.0102C181.359 92.2183 180.934 92.4217 180.717 93.0554C182.208 91.8069 182.869 89.9104 184.154 88.2314L183.714 89.4942C184.796 87.3943 186.084 85.7154 185.999 83.7668C186.297 81.946 186.533 80.6123 186.84 78.9901C186.467 81.0663 186.382 81.9791 186.08 86.7416L186.089 86.7369Z" fill="currentColor"/>
<path d="M202.168 36.8645C200.436 36.1788 198.118 35.7295 198.505 38.6948C195.625 32.7357 190.413 27.382 183.667 26.4503C186.216 25.2112 188.34 24.1802 191.083 24.4308C188.562 23.5511 185.791 25.424 183.667 26.4503C189.766 28.2191 195.634 31.6763 198.094 37.8435C198.16 32.556 193.349 29.113 190.866 25.0598C192.976 25.0882 198.231 27.2685 197.669 23.5843C197.461 22.1039 197.136 20.6473 196.682 19.2379C195.323 15.0145 192.835 11.2262 189.171 8.53516C193.076 11.5478 196.021 15.9557 197.306 20.9074C197.627 22.1465 197.844 23.4187 197.933 24.6957C195.913 26.8097 193.609 25.301 191.499 25.2774C200.662 35.545 202.338 53.1244 190.394 62.1103C189.015 63.2643 188.213 64.1014 187.401 64.8534C185.895 66.6695 184.03 67.8188 181.235 67.1897C186.258 67.1708 187.92 65.7378 188.029 64.3615C187.736 66.7215 185.89 69.143 181.452 68.4809C184.474 71.1152 184.903 70.6706 184.148 66.9675C184.304 71.5692 183.279 72.9218 179.979 69.8382C183.209 73.4752 182.916 74.2224 179.366 71.1341C181.367 76.7527 180.669 77.831 175.4 75.8257C178.974 80.3896 177.978 81.8652 171.543 83.3928C176.448 84.1921 175.575 85.5305 170.264 88.4155C173.455 88.7418 172.209 90.6147 169.31 93.3814C168.687 95.9069 166.633 98.9905 165.165 101.194C163.697 103.398 162.819 104.723 162.819 104.723L161.969 106.619L164.664 103.006C166.322 100.783 168.602 97.723 169.862 95.2732C172.336 92.724 173.63 90.9836 171.085 91.3477C176.028 87.8574 177.128 86.467 172.652 86.7034C179.616 83.1327 180.999 81.1889 177.874 77.2634C182.755 79.6897 183.119 80.139 178.884 81.2551C183.747 80.243 184.582 78.4127 184.45 71.9097C185.711 76.2041 186.003 75.8257 185.918 70.8929C187.561 74.1184 187.769 75.6649 189.431 74.9886C187.731 76.9277 187.963 74.8325 187.604 70.8645C187.982 73.5934 188.732 71.7489 189.842 67.3316C189.03 71.0537 188.576 72.2077 188.071 70.051C189.006 71.8719 190.38 69.2234 192.424 65.6763C193.019 66.1682 194.289 65.7614 196.314 65.8418C197.391 67.5634 199.222 69.7767 202.801 72.7516C199.378 69.0295 197.778 65.9979 196.399 64.0778C194.832 62.517 193.491 62.0677 191.768 62.5123C189.894 63.5102 187.642 65.3973 184.049 65.454C185.512 65.454 186.754 64.877 187.84 64.0446C198.254 58.7855 200.1 46.3282 200.313 35.6727C200.752 36.0416 201.484 36.751 202.168 36.8645Z" fill="currentColor"/>
<path d="M146.532 92.3979C146.234 91.9013 146.244 92.1377 146.414 92.814C146.423 92.36 146.494 92.1046 146.532 92.3979Z" fill="currentColor"/>
<path d="M153.367 114.854C153.844 116.306 153.891 115.729 153.844 114.064C154.203 113.676 154.472 112.205 154.878 110.436C154.42 108.937 153.891 107.187 153.325 105.31C152.385 102.184 151.351 98.7075 150.383 95.4725C149.902 93.8551 149.435 92.2944 149.17 91.1167C148.585 89.4709 148.193 88.2128 149.468 89.258C148.335 87.0636 147.664 85.6258 147.641 86.5906C147.532 85.1671 148.07 86.1413 149.364 88.7709C147.999 86.269 147.31 85.0819 147.31 86.4961C147.253 85.1955 147.891 86.496 149.165 88.9695C147.966 86.7798 147.405 85.7346 147.49 86.7372C147.513 85.7677 148.183 86.8413 149.444 88.8844C148.32 86.917 147.872 86.2927 147.929 87.1251C147.938 86.9028 148.453 88.1372 149.26 89.8965C148.774 90.1093 149.331 91.9633 149.94 94.0064C151.158 98.0879 152.598 102.926 153.858 107.131C154.264 109.074 154.566 110.905 154.297 112.659C153.216 114.395 154.245 116.523 152.499 115.809C154.76 117.587 155.308 116.273 155.581 113.917C156.351 113.653 156.847 112.342 157.928 111.529C158.91 110.072 159.504 108.564 160.038 107.069C161.209 102.652 162.389 98.2724 162.389 98.2724C162.389 98.2724 160.992 102.538 159.556 106.814C158.957 108.266 158.353 109.718 157.352 111.127C156.351 112.536 155.506 113.818 154.68 113.96C154.297 115.691 153.929 116.277 153.372 114.859L153.367 114.854Z" fill="currentColor"/>
<path d="M131.933 49.1879C134.766 52.4843 135.687 53.714 133.35 48.8474C135.266 53.137 134.908 54.1774 130.975 51.7371C133.274 54.4328 132.004 53.6477 129.441 51.4486C131.631 54.4565 132.731 56.1307 129.582 53.9504C134.185 56.6509 134.544 55.4922 132.259 49.9635C135.281 57.2327 135.658 60.1318 128.548 57.8617C135.399 60.9122 134.761 58.7887 130.866 51.5384C133.756 57.209 133.775 60.4818 127.057 62.8181C133.029 66.4456 132.259 69.1367 127.727 72.8398C129.7 73.8188 127.911 75.8147 125.489 77.4085C123.067 79.0023 120.022 80.1894 116.227 80.9225C120.419 80.9225 123.804 80.4921 126.618 80.0853C129.431 79.6739 131.674 79.2813 132.387 80.6529C135.493 79.409 137.07 79.9245 137.377 83.6703C140.035 82.748 141.423 85.0513 142.952 88.6882C140.974 83.448 140.016 81.5089 138.883 84.4554C139.539 83.0034 140.025 86.4417 140.936 91.9563C139.638 85.6614 140.044 87.6808 141.106 93.0156C140.7 91.9373 140.946 94.1744 141.177 96.279C142.107 104.702 142.806 111.021 142.806 111.021L143.372 113.021L142.513 97.7829C142.395 95.7067 142.272 93.5406 142.636 93.1339C141.984 89.3692 141.819 87.364 143.925 91.436C142.754 87.3214 142.154 84.7297 142.093 85.7985C142.778 83.5851 144.005 85.0371 146.493 89.0193C144.468 85.6046 143.004 83.3156 141.154 85.0323C140.87 81.1968 140.195 81.3623 139.029 84.7013C139.308 84.3655 139.095 87.2032 138.949 91.4786C139.043 86.2809 139.208 82.521 138.142 83.4905C140.521 77.0869 141.678 75.4079 140.951 82.994C145.832 73.3459 148.839 72.9581 158.768 79.8063C149.708 72.523 146.861 72.8729 141.819 83.0318C141.899 74.6891 139.784 76.1552 135.252 81.717C135.71 80.0191 133.751 82.4217 131.584 85.2073C129.417 87.9882 127.038 91.1522 124.163 94.6095C126.23 92.0414 128.01 89.5963 129.615 87.2268C131.22 84.8574 132.642 82.573 133.057 81.4522C135.347 78.0753 136.626 75.8714 132.859 78.6949C139.26 71.4588 140.606 69.2549 131.339 71.9129C143.585 64.7667 145.214 62.4871 147.673 48.1758C144.307 62.9316 142.409 64.6248 129.488 65.7173C139.799 65.6322 139.09 64.9511 128.742 60.7939C138.278 61.073 138.179 57.8759 134.648 48.8426C136.9 58.4056 135.739 60.4723 128.114 58.1549C132.533 60.1271 130.493 57.7198 127.264 53.6619C130.744 56.2962 132.736 57.2043 129.667 54.0687C135.13 56.2726 135.531 54.4328 133.425 48.9183C135.932 54.2957 134.78 52.4843 131.948 49.1879H131.933Z" fill="currentColor"/>
<path d="M154.879 109.674C155.162 109.593 155.37 109.437 155.497 109.206C155.624 108.974 155.648 108.719 155.568 108.435C155.492 108.16 155.336 107.962 155.11 107.839C154.879 107.716 154.624 107.692 154.34 107.773C154.27 107.792 153.632 105.8 152.712 102.797C151.791 99.7941 150.592 95.793 149.407 91.8013C148.803 89.7913 148.208 87.7907 149.629 88.8927C148.326 86.93 147.528 85.7429 147.424 86.6746C147.259 85.4733 147.788 86.3956 149.133 88.6562C147.339 84.9058 146.362 82.4938 146.697 85.4922C147.089 80.8101 148.788 81.5431 152.773 85.5632C148.359 81.0702 146.225 79.8689 145.139 85.2085C144.818 81.4817 145.545 84.2957 147.278 89.3184C145.507 84.3619 144.709 81.4911 144.964 85.1801C146.064 79.7223 148.208 80.8195 152.797 85.4591C148.222 80.881 146.088 79.85 145.007 85.2179C144.733 81.6756 145.517 84.5369 147.24 89.4035C145.555 84.6788 144.809 81.9546 145.097 85.3172C146.097 80.3561 148.127 81.4864 152.329 85.7902C148.246 81.5526 146.338 80.4885 145.555 85.3693C145.29 82.035 146.149 84.6457 147.953 89.0772C146.22 84.6882 145.46 82.2478 145.8 85.4686C146.527 81.0276 148.354 82.2478 152.013 86.1307C148.751 82.7208 147.325 81.9735 147.108 85.7382C146.815 83.3167 147.736 85.4118 149.393 88.6373C148.194 86.9347 147.736 86.3672 147.825 87.1428C147.868 86.8874 148.458 87.9705 149.364 89.5785C148.708 89.517 149.312 91.5412 149.917 93.5654C152.329 101.653 154.746 109.716 154.883 109.679L154.879 109.674Z" fill="currentColor"/>
<path d="M120.312 119.904C120.132 119.852 120.293 120.013 120.666 120.302C120.576 120.07 120.458 119.857 120.312 119.904Z" fill="currentColor"/>
<path d="M119.366 114.894C115.174 113.504 115.32 113.707 119.342 115.448C115.806 114.038 116.056 114.1 119.607 115.396C116.368 114.043 117.624 114.847 120.574 116.573C121.533 117.406 124.186 119.156 127.042 121.038C129.894 122.92 132.948 124.935 135.696 126.742C137.268 127.962 138.731 129.102 139.647 130.549C140.341 131.452 140.851 132.308 140.138 132.417C141.885 133.959 142.404 134.758 140.124 134.077C143.15 134.134 142.9 132.81 141.375 130.596C142.277 130.152 141.899 128.813 141.748 127.404C141.526 125.687 140.955 124.202 140.389 122.717C138.453 118.579 136.546 114.464 136.546 114.464C136.546 114.464 138.212 118.631 139.855 122.83C140.341 124.32 140.828 125.81 141.035 127.484C141.243 129.158 141.456 130.667 140.695 131.15C141.772 132.866 141.876 133.557 140.242 132.682C141.838 133.632 141.498 133.136 140.143 131.769C140.356 131.372 139.553 130.109 138.604 128.615C137.292 127.763 135.762 126.761 134.124 125.687C131.4 123.899 128.374 121.903 125.555 120.045C122.737 118.186 120.126 116.465 120.112 116.034C116.316 113.977 115.117 113.211 119.366 114.894Z" fill="currentColor"/>
<path d="M132.388 137.856C127.049 129.599 119.316 123.365 111.814 116.692C110.775 115.604 110.077 114.758 109.807 114.181C109.213 113.003 110.346 112.894 113.915 114.067C110.27 111.934 107.707 110.374 108.528 109.489C104.374 107.701 103.604 106.585 108.136 105.223C103.472 104.116 104.114 102.759 107.938 100.182C104.114 102.759 102.967 103.724 107.551 103.029C100.224 104.027 98.6234 103.36 105.096 98.0013C94.4877 100.489 91.9526 98.2851 89.3041 86.0737C90.2341 97.4763 90.1633 97.9729 91.065 86.802C88.5298 97.2919 86.9672 96.1143 83.5586 85.7852C86.9672 96.1143 87.9822 96.9987 88.4637 86.2534C88.4354 97.5567 87.8736 97.2304 84.3895 85.8703C89.7856 99.056 92.2594 101.213 103.599 97.1453C94.4358 104.533 94.1431 105.701 104.926 109.622C95.5405 108.004 98.1371 109.201 106.47 112.885C102.688 111.901 104.638 113.396 107.456 115.642C108.08 116.366 108.92 117.279 109.93 118.352C110.94 119.426 112.083 120.239 113.4 121.27C113.631 121.398 113.424 120.972 113.424 120.972C120.128 125.077 126.189 130.015 131.043 136.523L132.379 137.866L132.388 137.856Z" fill="currentColor"/>
<path d="M118.309 111.361C109.825 109.587 111.619 110.751 119.277 114.26C116.935 114.241 120.457 116.568 123.974 118.886C131.013 123.53 138.038 128.146 138.118 128.028C138.283 127.782 138.34 127.531 138.293 127.271C138.246 127.011 138.095 126.798 137.854 126.632C137.618 126.472 137.377 126.42 137.117 126.472C136.862 126.524 136.65 126.675 136.485 126.916C136.4 127.039 129.413 122.447 122.449 117.859C118.97 115.566 115.49 113.267 119.031 113.503C110.288 109.857 108.56 108.736 117.898 110.046C113.257 109.545 110.972 109.346 111.039 109.526C111.029 109.692 113.371 110.24 117.974 111.233C113.611 110.406 111.496 110.008 111.567 110.032C111.638 110.056 113.904 110.5 118.304 111.356L118.309 111.361Z" fill="currentColor"/>
<path d="M114.494 153.663C114.405 153.725 114.697 153.749 115.297 153.739C115.023 153.607 114.726 153.512 114.494 153.663Z" fill="currentColor"/>
<path d="M106.718 151.049C106.086 151.337 105.878 150.912 105.453 151.115C106.086 151.333 106.511 151.129 107.139 151.347C107.139 151.347 106.289 151.758 106.714 151.555C116.859 150.836 125.971 147.989 135.861 145.473C136.64 146.055 137.65 146.31 137.429 146.759C139.817 146.788 140.979 147.015 138.689 148.405C140.988 146.485 139.784 145.624 137.244 144.849C137.48 143.874 136.404 142.98 135.644 141.855C132.415 139.613 128.421 137.868 125.928 134.879C128.426 137.873 132.193 140.247 135.205 142.536C136.286 143.68 137.386 144.721 137.122 145.605C139.02 146.258 139.534 146.75 137.759 147.123C139.558 146.868 137.207 145.984 133.968 145.672C132.415 145.865 131.579 146.39 130.054 146.868C123.001 149.436 115.806 150.827 108.583 151.011C105.821 150.997 104.306 150.931 106.723 151.054L106.718 151.049Z" fill="currentColor"/>
<path d="M106.177 151.152C104.402 151.1 102.716 150.868 100.601 150.84C102.509 150.443 104.397 151.1 106.304 150.698C104.822 150.892 102.934 150.235 101.026 150.632C112.201 152.041 123.003 149.426 133.814 145.756C133.814 145.756 133.195 144.479 132.77 144.687C123.192 150.911 110.728 151.176 99.7611 150.192C101.857 151.275 103.779 149.818 105.875 150.901C103.968 151.299 101.871 150.216 99.5156 150.599C99.5628 150.674 101.579 150.854 106.172 151.143L106.177 151.152Z" fill="currentColor"/>
<path d="M134.512 157.462L130.041 156.932C127.289 156.606 123.989 156.908 119.829 157.064C114.041 156.932 107.71 156.851 101.828 154.454C103.721 155.111 104.982 155.551 106.875 156.208C103.296 155.319 99.935 153.796 96.3612 152.902C99.9397 153.791 103.301 155.314 106.875 156.208C103.296 155.319 99.2929 154.633 95.9363 153.11C96.3612 152.902 96.9938 153.125 97.3479 153.087C93.8968 153.314 91.4513 153.664 90.9698 153.829C90.4882 153.995 91.98 153.971 96.0401 153.721C83.2037 155.579 80.6449 156.525 76.9908 168.103C74.6775 159.074 71.269 160.668 61.2604 166.504C71.2973 159.628 73.5775 157.66 62.7759 158.847C71.066 156.468 73.5398 155.494 70.2728 154.558C69.4561 154.326 68.2806 154.094 66.8123 153.711C66.4441 153.214 66.411 152.453 67.0295 150.996C70.9243 143.699 72.3029 134.618 67.7518 127.373C62.6295 119.219 53.0553 115.289 43.8446 115.918C40.7759 116.126 37.745 116.84 37.3815 115.095C33.0146 119.002 31.3103 120.354 34.1523 115.105C28.473 123.707 27.3399 125.699 32.1223 120.269C26.018 130.021 25.8339 132.079 30.0167 143.018C26.4193 135.999 27.1841 137.863 31.8438 147.17C29.7854 141.065 31.3575 141.878 36.0644 146.451C34.7802 142.71 36.6262 142.734 40.2236 144.229C37.2399 144.011 35.7622 144.205 36.3476 146.986C32.703 143.845 31.1262 143.297 31.9146 148.48C30.9137 143.406 32.4905 143.954 36.1068 147.142C35.545 144.309 37.0274 144.115 39.8459 144.56C36.206 142.412 34.412 142.233 36.0124 146.276C31.0978 141.344 29.5777 140.639 31.7305 147.009C27.0803 137.29 26.3343 135.262 30.4416 141.221C25.7914 131.166 25.9944 129.099 31.7399 118.694C27.3258 125.263 28.4494 123.49 34.3317 115.185C32.1554 119.938 34.6528 118.396 39.0008 115.649C40.0347 116.339 42.9193 115.828 45.8227 115.8C51.6295 115.743 57.5166 117.611 62.1196 121.163C72.1565 128.905 72.6145 142.871 65.8917 152.898C65.8445 153.739 66.0428 154.037 66.2647 154.156C67.1664 154.643 67.4166 154.941 67.0389 155.21C66.6613 155.48 65.6934 155.664 64.2677 155.759C64.4235 154.785 64.5179 153.806 65.9956 151.573C71.7458 144.337 71.4531 133.97 66.6943 126.294C64.211 122.246 60.439 119.872 56.4497 118.127C53.4377 116.959 50.2793 116.216 47.1446 116.003C44.0098 115.79 40.9034 116.112 39.3643 115.691C35.0729 118.046 32.3536 119.659 34.3176 115.185C28.2227 123.769 27.0472 125.916 32.0893 120.927C25.8953 130.442 25.9189 132.826 30.5738 144.328C27.1652 137.243 28.3833 139.282 33.5575 147.052C27.8215 138.851 26.5657 136.25 30.7674 141.835C25.867 130.787 26.4288 127.926 32.8305 116.784C28.9592 122.88 30.9373 120.695 36.6356 115.204C35.6914 117.867 38.1652 116.954 41.1867 116.088C43.3017 116.017 45.969 115.989 48.627 116.296C51.2802 116.604 53.924 117.247 56.4497 118.127C60.439 119.867 64.211 122.241 66.6943 126.294C71.4531 133.97 71.7458 144.337 66.0003 151.559C64.4943 153.81 64.3904 154.794 64.2252 155.768C65.6226 155.683 66.5527 155.513 66.8831 155.262C67.2136 155.012 66.9115 154.747 65.9673 154.288C65.8351 153.721 65.9201 152.973 66.5243 151.649C73.4737 141.396 71.5475 126.564 59.8111 119.645C55.0948 116.94 49.8308 115.554 44.7369 115.729C42.1875 115.814 39.6807 116.292 38.9017 115.507C34.9266 118.089 32.6794 119.408 34.6575 114.953C29.0489 122.747 27.7082 124.582 31.7446 117.767C25.9661 128.579 25.5695 130.745 29.8987 140.719C26.1361 136.25 27.6893 138.653 33.5103 146.834C32.1412 141.878 35.0305 142.706 39.8412 144.55C36.494 144.101 34.6953 144.446 35.0399 147.657C31.2159 144.03 29.5352 143.268 30.2622 148.651C26.3296 140.8 25.0172 138.927 23.6292 146.82C23.4545 134.817 23.209 132.58 18.1953 129.397C23.582 128.12 24.1957 125.897 25.8858 114.055C24.4743 125.76 23.9077 127.841 19.4747 127.278C23.3884 132.064 23.4309 134.202 22.8786 146.253C24.5545 138.213 25.6309 140.086 29.2283 148.665C28.6948 142.625 30.4794 143.6 34.5583 147.776C34.2704 144.389 36.2768 144.205 39.8364 144.555C35.7292 142.895 33.6047 142.351 35.2051 146.503C29.9506 140.346 28.4305 138.884 31.1875 146.021C26.3438 135.299 25.7867 133.176 31.2442 132.017C26.0133 128.948 26.5657 127.103 32.2262 116.604C28.2464 123.793 29.3747 122.326 34.6575 114.949C33.0523 119.092 35.7622 117.644 39.7231 115.682C41.4746 115.894 44.4725 115.587 47.4562 115.781C53.4141 116.173 59.2965 118.576 63.7909 122.44C71.5097 129.728 72.6286 141.798 67.0106 150.722C66.1514 152.382 66.0192 153.205 66.1419 153.791C67.5205 154.137 68.611 154.326 69.357 154.482C71.5853 154.95 70.5891 155.277 66.3166 155.735C65.6887 155.693 65.1458 155.314 64.9145 154.104C68.5449 147.463 70.9574 140.516 69.9943 133.1C71.3823 140.308 68.3419 147.038 64.99 153.503C64.7681 154.383 64.7681 155.054 64.8673 155.697C65.5093 156.322 66.1939 156.539 66.6849 156.785C70.1123 157.551 66.8548 159.088 59.1218 162.262C69.8007 158.606 73.1621 157.58 67.7424 163.142C79.0728 156.402 81.6316 156.251 95.4122 158.086C86.7681 156.974 89.341 157.849 97.4281 160.555C95.3367 160.782 98.7547 162.834 103.004 165.554C101.578 163.832 100.52 162.404 99.9114 161.245C99.3024 160.086 99.1371 159.193 99.4723 158.559C99.4487 158.228 98.8303 156.951 99.2551 156.743C105.383 156.397 111.69 158.592 117.927 158.015C122.303 157.807 125.58 157.23 128.219 157.4C130.858 157.57 132.439 157.674 132.439 157.674L134.502 157.462H134.512Z" fill="currentColor"/>
<path d="M129.23 178.115C129.201 178.2 129.362 178.048 129.678 177.703C129.489 177.784 129.301 177.897 129.23 178.115Z" fill="currentColor"/>
<path d="M123.866 180.449C123.068 181.659 123.172 181.423 123.837 180.203C123.172 181.111 124.182 180.009 125.778 178.301C128.969 174.887 134.507 169.041 139.015 164.241C140.366 162.803 141.626 161.455 142.698 160.306C144.629 159.426 146.328 158.599 146.295 160.107C146.659 157.653 145.393 157.482 143.179 158.32C142.839 157.359 141.546 157.416 140.12 157.757C138.808 158.116 137.339 158.518 135.871 158.915C131.466 160.107 127.09 161.275 127.09 161.275C127.09 161.275 131.476 160.358 135.89 159.464C137.363 159.166 138.836 158.873 140.148 158.613C142.887 158.206 145.686 158.509 144.794 159.705C145.814 158.622 143.496 159.407 141.362 161.706C137.094 166.298 129.913 173.879 125.655 178.42C123.526 180.69 122.128 182.203 123.46 180.326C122.44 182.199 122.666 182.09 123.875 180.453L123.866 180.449Z" fill="currentColor"/>
<path d="M149.454 168.508C137.746 169.075 131.5 178.936 124.211 186.631C123.272 187.265 122.545 187.653 122.148 187.686C121.355 187.747 121.903 186.376 124.589 182.587C114.58 193.21 113.131 194.16 119.778 180.232C118.116 183.713 116.695 186.508 115.218 188.868C114.481 190.05 113.679 191.119 112.777 192.131C110.072 192.812 107.348 193.791 104.77 195.059C102.192 196.326 99.761 197.897 97.6885 199.646C95.5168 201.614 93.704 203.761 93.5057 201.576C91.0083 208.637 90.1302 211.361 91.6314 204.598C89.7808 216.701 90.1727 218.962 98.8216 222.367C91.7448 223.18 92.925 225.138 100.564 233.561C95.8709 228.576 97.6366 230.057 102.929 234.441C96.9568 230.648 94.7048 229.243 97.8254 235.33C91.0555 225.498 89.6628 223.157 88.7422 220.711C89.4503 223.261 90.6353 225.441 96.7301 235.68C93.8078 229.026 95.7954 230.426 101.583 235.377C100.696 232.426 103.184 232.625 106.488 232.89C107.961 231.901 110.256 230.979 112.47 229.773C114.684 228.562 116.813 227.063 118.872 225.535C118.418 227.858 116.502 229.314 115.213 230.989C116.719 228.681 119.49 226.812 119.528 223.639C119.5 225.753 117.791 227.635 117.13 229.532C118.418 227.858 120.335 226.401 119.528 223.639C117.399 225.02 115.152 226.524 112.805 227.739C110.459 228.955 108.013 229.887 107.074 231.026C102.971 230.388 100.375 229.957 102.976 232.965C95.7623 227.29 94.1855 225.715 101.14 229.934C91.8392 222.069 91.0696 219.988 96.1589 209.9C90.3709 215.656 90.4465 213.4 92.8731 203.118C91.8533 208.164 93.3263 205.445 95.9606 201.113C97.1267 200.772 99.4589 198.814 102.055 197.286C107.253 194.227 113.518 192.864 119.57 193.55C120.42 193.063 121.289 192.562 122.243 192.046C123.088 191.507 123.98 190.944 124.91 190.353C125.769 189.719 126.388 189.043 127.039 188.31C126.218 189.114 125.396 189.752 124.594 190.254C123.73 190.755 123.026 191.124 122.507 191.379C121.464 191.885 121.166 191.933 121.449 191.616C121.733 191.299 122.597 190.609 123.81 189.644C130.41 181.055 135.82 170.546 147.84 169.009L149.445 168.527L149.454 168.508Z" fill="currentColor"/>
<path d="M120.925 179.792C116.917 187.884 117.143 187.775 121.609 180.104C117.549 187.354 117.653 187.118 121.524 179.981C117.653 186.792 119.107 185.221 123.012 180.237C123.455 180.582 126.354 177.512 129.248 174.443C135.036 168.304 140.796 162.179 140.692 162.08C140.479 161.877 140.243 161.773 139.979 161.777C139.714 161.782 139.478 161.891 139.275 162.099C139.077 162.302 138.983 162.534 138.992 162.794C139.002 163.054 139.11 163.286 139.323 163.494C139.426 163.598 133.7 169.695 127.978 175.767C125.117 178.803 122.256 181.835 122.572 180.199C117.998 186.375 116.6 187.889 120.92 179.792H120.925Z" fill="currentColor"/>
<path d="M166.647 189.564C166.666 189.696 166.69 189.318 166.704 188.547C166.652 188.859 166.605 189.218 166.647 189.564Z" fill="currentColor"/>
<path d="M197.721 169.167C197.721 169.167 189.228 161.188 185.224 157.911C186.211 157.887 192.093 162.498 192.509 162.196C193.09 161.775 193.505 161.274 193.76 160.692C194.015 160.105 189.79 154.875 189.69 154.227C189.591 153.579 189.322 152.945 188.878 152.325C188.251 150.637 187.018 148.083 187.217 149.942C184.025 150.585 188.251 150.637 187.722 153.115C187.934 153.82 188.1 154.364 188.043 154.912C187.986 155.466 187.717 155.915 187.24 156.26C186.891 156.511 184.998 156.047 185.031 156.175C183.714 154.629 183.067 153.125 185.21 153.073C182.019 149.98 181.618 148.334 186.424 148.263C182.784 148.036 184.908 147.005 187.84 145.241C186.4 145.756 188.071 147.043 189.69 147.965C190.503 148.495 191.404 148.93 192.348 149.289C193.293 149.649 194.27 149.932 195.266 150.169C200.568 151.432 207.711 154.728 211.865 156.757C213.942 157.769 215.269 158.469 212.696 157.982C215.123 158.218 214.915 158.076 212.724 157.637C214.344 157.93 214.089 157.958 212.625 157.864C213.824 158.105 212.55 157.424 210.59 156.435C206.672 154.463 200.006 151.275 195.016 150.088C193.146 149.644 191.3 149.005 189.695 147.96C188.765 147.279 187.632 146.882 188.222 146.565C185.711 145.681 184.932 144.881 187.892 143.519C185.791 143.41 186.792 143.581 188.831 143.893C188.699 144.087 189.601 144.413 190.46 144.744C191.385 145.122 192.33 145.463 193.269 145.78C194.209 146.097 195.148 146.395 196.064 146.683C201.559 148.32 210.477 154.354 210.321 154.548C209.925 155.026 209.778 154.288 209.575 155.125C209.575 155.125 211.129 155.513 212.658 155.896C214.24 156.293 215.793 156.681 213.154 155.967C215.897 156.227 216.02 155.868 213.527 154.733C215.472 155.366 214.518 155.054 213.196 154.633C212.214 154.326 210.869 153.915 209.401 153.47C210.6 153.82 211.79 154.16 212.937 154.496C214.084 154.832 215.203 155.158 213.584 154.558C216.218 155.513 216.19 155.556 213.522 154.733C216.402 155.698 216.614 155.773 213.536 154.766C216.728 155.754 216.671 155.66 213.602 154.548C218.824 156.232 220.722 156.809 213.791 154.288C223.384 157.67 224.149 157.958 213.772 154.406C223.696 158.512 223.545 157.769 213.333 155.792C223.347 158.611 224.933 158.994 213.381 155.674C225.075 158.374 225.254 157.935 214.396 152.85C225.679 157.419 226.033 157.192 215.467 150.708C226.732 156.908 225.197 156.227 215.156 151.195C220.15 154.203 216.629 152.86 212.847 151.46C205.279 148.66 196.659 145.638 192.825 144.56C197.079 143.779 201.304 143.089 201.304 143.089C201.304 143.089 198.287 143.155 194.596 143.217C193.368 143.217 192.065 143.212 190.786 143.084C191.508 142.621 192.712 141.599 192.839 141.102C193.014 140.407 193.009 139.755 192.835 139.144C192.655 138.53 192.32 138.009 191.829 137.574C191.338 137.139 190.715 136.78 189.875 136.155C188.236 134.354 186.334 134.756 186.707 134.737C185.89 136.548 187.892 136.888 189.431 137.413C190.781 137.981 191.669 138.733 190.696 140.521C189.511 142.408 188.043 141.807 188.293 140.507C184.743 139.603 182.916 137.99 186.117 136.084C181.344 136.917 182.255 136.085 185.81 133.791C183.171 134.453 183.18 133.663 184.332 131.019C182.873 133.02 183.827 132.821 185.89 131.979C185.687 132.429 186.594 132.239 187.727 132.448C188.699 132.462 189.705 132.287 190.677 132.003C191.65 131.719 192.589 131.327 193.505 130.868C198.434 128.607 203.528 126.134 208.202 123.864C203.103 126.337 198.429 128.607 193.264 130.972C191.546 131.837 189.695 132.452 187.727 132.443C186.594 132.235 185.522 132.637 185.772 132.079C183.294 133.077 182.132 133.114 183.567 130.083C182.373 130.892 184.072 130.069 185.904 129.047C187.009 129.038 188.005 129.061 188.982 128.948C193.784 128.754 198.236 127.117 202.484 125.055C202.06 125.264 202.267 125.689 201.842 125.893C203.967 124.862 206.299 124.256 207.805 121.948C205.473 122.554 203.542 125.07 201.214 125.67C204.614 124.02 207.819 120.889 211.393 119.446C212.597 118.997 214.136 119.12 215.552 120.198C218.744 115.488 221.227 114.461 222.506 119.418C221.236 115.18 220.646 114.707 222.006 119.574C221.033 115.478 222.492 114.75 223.913 119.016C222.209 114.182 222.062 113.733 223.913 118.969C222.983 116.017 222.549 114.443 222.69 114.353C222.837 114.244 223.55 115.62 224.919 118.581C223.729 115.289 222.719 113.818 221.746 114.097C220.778 114.357 219.844 116.367 218.805 120.037C217.205 117.573 215.496 116.765 213.692 116.845C211.889 116.926 210.864 118.439 209.221 119.915C203.551 125.065 195.71 127.292 187.882 128.465C190.007 127.434 191.706 126.611 194.039 126.006C187.457 128.673 184.115 126.091 178.388 123.414C177.354 123.537 176.453 124.048 176.694 123.537C175.254 126.99 177.586 126.384 178.931 124.791C178.662 124.814 179.715 124.663 180.782 124.899C181.83 125.202 182.921 125.798 183.166 126.295C183.638 127.765 182.104 128.399 181.622 127.278C178.03 129.459 175.546 129.747 177.043 125.401C174.276 129.837 174.399 128.725 175.844 124.1C173.79 126.919 173.058 126.224 172.624 122.705C173.077 124.635 174.678 123.334 176.207 121.783C176.557 121.471 176.165 120.941 175.716 119.976C171.821 113.662 171.08 105.617 175.173 98.9016L174.748 99.1097C174.777 96.9956 176.679 96.5936 176.911 94.9052C176.897 95.9646 176.047 96.3761 175.405 97.2132C176.047 96.3761 176.061 95.3167 177.336 94.6971C176.061 95.3167 176.254 96.797 174.98 97.4166C175.622 96.5794 175.844 95.9457 176.694 95.5342C176.051 96.3713 175.83 97.0051 175.188 97.8422C175.405 97.2085 176.254 96.797 176.476 96.168C169.626 103.697 176.056 112.66 176.793 120.69C176.528 121.158 176.396 121.423 175.749 121.991C174.144 123.859 172.544 125.159 171.401 122.468C170.863 124.403 164.414 114.75 165.769 112.948C166.652 112.362 167.459 111.567 168.172 110.758C168.885 109.95 169.494 109.122 169.999 108.294C170.58 107.008 170.92 105.75 171.312 104.601C171.703 103.451 172.076 102.42 172.383 101.602C173.252 99.5779 173.795 98.4618 173.195 99.6867C173.955 98.9111 173.521 99.0861 173.389 100.287C173.894 99.2563 174.616 97.6767 174.007 98.4428C175.074 96.5227 175.858 95.2126 176.051 94.8248C176.245 94.437 175.825 94.9194 174.616 96.6362C175.697 94.8958 176.221 94.0303 176.113 93.9641C176.004 93.8978 175.282 94.6167 173.979 96.1018C176.099 93.6661 175.546 94.5411 173.417 97.7382C174.3 96.7119 173.634 98.0172 172.591 100.112C173.497 98.282 174.064 97.1233 173.304 97.9652C175.254 94.9383 175.858 93.9168 173.885 95.9883C175.164 94.489 175.815 93.7465 175.83 93.7607C175.844 93.7749 175.221 94.5505 173.979 96.097C175.282 94.4417 175.995 93.5762 176.033 93.51C176.07 93.4438 175.428 94.158 174.125 95.7092C175.438 94.1107 176.094 93.335 176.061 93.3492C176.028 93.3634 175.306 94.1674 173.946 95.7565C174.885 94.4701 175.679 93.406 176.278 92.5878C176.878 91.7696 177.27 91.1737 177.411 90.8095C177.699 90.0812 176.972 90.2089 175.003 91.273C177.638 88.984 179.063 87.6597 179.196 87.4043C179.328 87.1489 178.181 87.9529 175.674 89.9157C178.412 88.2272 179.597 87.3854 179.621 87.5226C179.649 87.6597 178.511 88.7759 176.599 90.9751C178.884 88.913 180.215 87.5509 180.338 87.2293C180.461 86.9077 179.413 87.6739 176.982 89.9488C181.259 85.1484 180.857 84.8977 174.923 88.4306C180.423 84.3917 180.263 83.9991 173.833 86.9266C180.097 83.2282 179.281 84.8693 173.176 90.0244C175.296 89.4522 176.188 89.5468 176.07 90.3129C176.099 92.1527 173.767 92.7581 173.11 94.6498C173.535 94.4417 174.385 94.0303 174.168 94.664C172.006 98.8685 171.099 103.508 168.899 107.836C168.281 109.094 167.719 110.2 167.058 111.037C167.355 108.956 167.36 106.8 167.37 105.187C167.379 103.574 167.393 102.501 167.393 102.501C167.393 102.501 167.19 103.83 166.883 105.797C166.727 106.781 166.548 107.925 166.251 109.122C166.152 110.763 165.08 111.804 164.041 112.66C164.348 111.373 163.564 110.569 162.512 110.295C161.459 110.021 160.137 110.266 159.391 110.891C158.537 111.832 157.361 112.929 156.502 113.44C155.907 115.341 155.624 116.661 155.812 114.897C157.309 116.892 157.809 114.944 158.461 113.005C159.216 112.158 160.127 111.321 161.7 112.276C163.262 113.478 162.767 115.166 161.855 114.216C164.273 105.234 172.553 154.52 156.903 115.753C157.677 121.447 157.106 120.539 155.095 115.559C155.638 119.673 154.741 119.716 151.719 116.699C153.386 118.538 153.726 116.533 153.834 113.96C154.273 112.418 154.481 110.309 154.023 108.091C153.438 106.128 152.857 104.18 152.309 102.354C150.676 96.8869 149.382 92.5878 149.34 92.6635C149.217 92.881 149.198 93.1317 149.279 93.4154C149.359 93.6992 149.51 93.9073 149.737 94.035C149.812 94.0823 150.983 97.9463 152.489 102.993C152.989 104.676 153.532 106.488 154.08 108.337C154.297 110.536 154.283 112.745 153.839 114.187C153.872 117.115 153.476 119.276 150.676 117.351C152.508 120.534 152.045 119.579 150.497 116.571C151.158 117.64 150.737 116.651 150.199 115.355C150.61 114.537 150.723 113.378 150.752 112.272C150.78 111.165 150.733 110.12 150.61 109.136C149.279 103.546 148.197 98.8401 148.443 98.8827C149.057 98.9867 148.49 99.4881 149.312 99.2421L148.429 96.1585C147.99 94.6167 147.546 93.0749 147.546 93.0749C147.097 93.2074 146.729 93.2783 146.451 93.3209C146.569 94.0019 146.776 94.9903 147.036 96.168C147.296 97.3456 147.612 98.7219 147.961 100.216C147.664 99.0009 147.367 97.7996 147.083 96.6315C146.8 95.4633 146.522 94.3377 146.29 93.3256C146.319 93.2783 146.37 93.283 146.451 93.3209C146.385 93.0276 146.347 92.8053 146.422 92.829C146.276 92.7202 146.224 92.8148 146.248 93.0513C145.639 90.6629 145.185 88.7286 146.753 90.7007C145.676 88.3455 145.105 86.9645 145.082 87.2246C145.124 86.6523 145.719 87.7212 146.97 90.2609C146.073 87.778 145.483 86.6618 145.478 87.1678C145.535 86.6996 146.182 87.8584 147.754 89.9204C146.592 87.7354 145.898 86.2503 145.776 86.8652C145.738 85.8389 146.271 86.9077 147.574 89.8353C145.969 87.0023 145.049 85.6024 144.709 86.6665C144.558 85.7963 144.978 87.3996 146.059 90.5636C144.652 87.3428 143.854 85.6828 143.51 86.5861C143.439 85.749 143.821 87.4705 144.775 91.0176C143.51 87.2293 142.985 85.7774 142.952 86.6996C143.151 86.3591 143.84 88.388 145.016 91.552C143.925 89.8778 144.572 92.1858 145.27 94.6735C146.673 99.6441 148.301 105.315 149.449 109.5C149.774 110.867 150.053 112.083 150.039 113.189C148.981 111.354 147.603 109.699 146.578 108.455C145.554 107.211 144.874 106.384 144.874 106.384C144.874 106.384 145.568 107.533 146.597 109.235C147.112 110.087 147.702 111.085 148.245 112.196C148.58 113.497 148.773 114.982 148.75 116.122C148.245 114.977 147.348 114.755 146.498 115.166C145.648 115.578 143.056 124.734 142.513 125.784C142.074 127.047 141.947 128.683 141.64 129.596C142.707 131.606 143.59 132.883 142.079 131.199C145.185 131.847 144.312 130.036 143.151 127.964C143.344 127.222 145.039 118.108 146.37 117.819C148.632 117.942 149.51 119.484 147.843 118.803C150.459 123.622 148.745 134.32 143.019 131.752C148.415 135.271 147.47 134.94 142.041 132.088C145.667 135.29 144.817 135.966 140.073 135.2C142.816 135.626 141.782 133.762 140.049 131.596C139.516 130.182 138.283 128.47 136.419 127.378C134.71 126.252 133.015 125.131 131.428 124.086C126.67 120.95 122.916 118.486 122.935 118.576C122.983 118.822 123.129 119.025 123.37 119.191C123.615 119.356 123.865 119.418 124.12 119.371C124.21 119.356 127.586 121.565 131.976 124.46C133.44 125.424 135.016 126.465 136.626 127.524C138.274 128.858 139.719 130.532 140.148 131.847C142.249 134.183 143.33 136.155 139.676 136.425C142.99 138.161 142.046 137.57 138.949 136.061C140.37 136.203 139.634 135.427 138.231 134.931C138.142 134.127 137.434 133.256 136.707 132.481C135.98 131.705 135.224 131.019 134.488 130.371C132.184 128.659 130.22 126.952 128.723 125.736C127.958 124.961 126.906 124.947 126.495 124.095C125.258 121.541 126.92 123.887 127.345 123.684C125.452 123.026 124.012 120.047 121.255 120.856C122.926 122.147 125.027 123.23 126.906 124.947C124.602 123.438 122.723 121.721 120.419 120.212L120.627 120.638C119.791 119.995 118.956 119.347 118.375 118.713C116.699 117.63 115.712 116.935 115.594 116.779C115.476 116.623 116.227 117.006 118.04 118.042C115.037 115.606 114.924 116.353 118.625 117.384C115.396 115.63 114.036 114.726 118.304 116.992C113.687 115.261 113.371 115.615 117.294 118.548C115.047 117.247 113.819 116.623 113.649 116.751C113.479 116.878 114.367 117.739 116.364 119.29C113.989 117.753 113.073 117.119 113.295 117.304C113.517 117.488 114.881 118.429 117.114 119.858C122.709 122.781 127.732 126.654 132.802 130.485C134.337 131.686 135.725 132.708 136.806 133.479C134.672 133.114 132.873 132.599 131.556 132.145C130.829 131.979 129.989 131.336 129.361 131.114C130.815 133.034 133.133 133.488 134.776 134.103C135.824 134.666 136.961 135.375 137.57 136.326C137.226 136.364 135.932 136.293 135.682 136.709C134.761 137.948 134.747 139.007 135.503 140.384C135.776 140.965 136.145 141.769 136.4 142.578C138.274 144.129 139.742 144.995 138.227 145.387C141.234 143.741 139.346 142.819 136.999 141.892C136.678 141.093 135.895 140.294 136.947 139.149C138.982 138 140.663 138.761 138.548 139.409C143.958 141.5 145.568 143.477 139.388 145.52C145.237 144.423 142.688 145.662 139.27 149.114C142.664 147.776 141.664 147.605 138.231 147.908C139.7 147.114 138.737 146.801 137.009 146.612C136.692 146.196 135.677 146.049 134.776 146.035C128.737 147.17 122.581 149.634 116.236 150.609C122.789 150.055 128.737 147.17 134.861 146.031C135.725 146.049 136.707 146.196 137.004 146.612C138.836 147.014 140.068 147.066 138.397 147.932C142.405 147.506 143.51 147.889 139.907 150.831C143.174 149.365 142.122 149.351 138.817 150.136C140.058 149.365 139.058 149.388 137.519 149.923C136.952 149.653 135.918 149.606 134.908 149.601C133.898 149.597 133.109 149.719 132.292 149.824C129.125 150.14 125.947 151.157 123.19 151.971C123.615 151.763 123.407 151.337 123.832 151.134C121.491 152.798 117.922 150.85 116.198 153.787C119.159 153.399 121.708 152.165 124.451 152.411C121.269 153.427 118.106 153.39 115.141 153.773L115.774 153.99C112.606 153.952 109.646 154.335 106.7 153.664C107.125 153.456 108.786 155.806 107.55 153.252C107.342 152.827 106.714 152.609 105.864 153.021C106.289 152.813 106.922 153.035 107.347 152.827L105.647 153.65L107.54 154.307C107.115 154.515 106.058 154.501 105.633 154.704L107.526 155.362C106.893 155.144 106.69 154.719 105.841 155.13C114.489 155.66 122.964 153.654 131.112 151.28C132.807 150.878 134.389 150.637 135.715 150.533C133.85 151.63 132.085 152.77 130.763 153.645C130.135 154.378 129.285 154.789 128.435 155.201C130.56 154.17 132.259 153.347 134.511 152.406C135.673 151.994 136.905 151.555 137.849 151.389C137.618 151.909 136.834 153.281 136.886 153.787C136.957 154.496 137.183 155.111 137.561 155.627C137.939 156.142 138.434 156.52 139.043 156.757C139.652 156.998 140.337 157.079 140.894 157.154C143.184 157.499 146.149 157.116 143.741 157.755C145.776 153.092 142.981 157.074 140.663 156.043C140.285 155.456 139.719 155.314 139.161 155.054C138.822 154.662 138.567 154.208 138.397 153.678C138.463 153.191 140.191 152.359 139.298 152.718C142.178 151.767 143.878 151.952 141.838 154.662C147.263 152.373 148.948 152.604 145.648 157.816C149.576 153.352 147.437 155.437 147.442 160.408C148.891 157.362 147.933 157.826 145.686 159.997C146.101 158.776 145.223 159.268 144.185 160.12C143.623 160.247 142.782 160.853 141.994 161.51C141.206 162.167 140.464 162.886 139.766 163.634C134.152 169.588 128.652 175.41 128.775 175.41C129.025 175.41 129.252 175.296 129.455 175.088C129.663 174.875 129.762 174.639 129.762 174.379C129.762 174.261 134.667 169.063 139.955 163.459C140.616 162.759 141.314 162.078 142.07 161.449C142.825 160.819 143.637 160.238 144.18 160.124C145.535 159.382 146.47 158.469 145.87 159.893C148.523 157.145 149.637 156.738 148.882 161.212C150.459 158.441 149.708 159.33 147.971 161.713C148.146 160.848 147.324 161.477 146.488 162.243C145.219 163.359 143.76 164.75 142.372 166.064C139.884 168.037 136.9 170.539 134.129 172.407L134.346 171.773C133.265 173.873 130.305 174.261 130.059 177.008C131.773 175.126 133.69 173.669 135.404 171.787C133.898 174.095 131.348 175.334 129.904 177.604C128.464 179.397 127.434 180.972 126.589 181.7C125.357 182.849 124.729 183.369 125.843 181.984C124.479 182.693 125.197 182.934 125.367 181.378C124.569 182.343 123.445 183.526 125.055 181.563C123.908 183.965 124.201 184.339 126.216 182.641C124.432 184.959 124.451 185.384 126.906 183.502C124.347 186.131 125.305 185.228 127.028 182.972C130.937 174.478 139.435 170.354 145.846 164.088C145.393 166.41 143.684 168.292 141.763 169.749C142.613 169.337 143.462 168.926 144.218 168.325C144.831 167.871 145.507 167.602 146.092 166.542C146.677 165.483 147.291 164.381 147.886 163.326C148.164 164.144 148.443 165.7 148.811 166.055C149.321 166.552 149.902 166.736 150.525 166.864C151.148 166.991 151.771 166.996 152.385 166.85C152.999 166.703 153.565 166.353 154.08 165.88C154.679 165.204 155.241 164.494 155.765 164.854C156.417 163.161 156.856 161.898 156.327 164.177C154.335 161.023 154.925 164.414 152.834 165.005C152.47 165.142 151.965 165.398 151.408 165.454C150.86 165.478 150.374 165.294 149.944 164.896C149.642 164.579 149.76 162.579 149.449 163.118C150.837 160.678 152.229 159.84 152.47 162.896C155.161 158.389 156.7 157.774 157.569 163.137C157.762 157.258 157.748 158.313 157.682 163.605C159.844 159.926 160.255 160.777 160.161 164.343C159.745 162.782 158.824 163.931 158.036 165.965C157.876 166.684 157.729 167.682 157.606 168.689C157.484 169.697 157.776 169.943 158.031 170.486C161.128 175.069 164.225 180.395 165.42 186.122C165.075 179.983 160.274 175.481 158.041 170.297C157.635 169.224 157.71 167.611 158.041 165.97C158.706 164.778 158.943 163.567 159.415 164.575C159.769 161.406 162.148 152.354 164.159 155.579C163.73 152.902 163.664 153.853 163.8 156.454C163.456 155.825 161.525 164.958 161.577 166.15C161.346 168.013 161.128 170.004 161.322 171.399C161.78 174.227 163.437 176.578 164.674 179.132C164.466 178.706 163.838 178.489 163.63 178.063C165.07 181.043 165.661 184.434 166.676 187.621C166.713 184.448 165.698 181.265 164.258 178.285C165.906 181.691 166.496 185.082 166.661 188.681L166.879 188.047C167.252 192.072 165.509 196.068 164.197 199.856L163.989 199.431C163.564 199.639 163.347 200.268 163.125 200.902C171.047 192.327 165.491 180.835 162.384 171.683C162.252 170.543 162.323 169.356 162.422 168.363C162.8 169.38 163.173 170.392 163.522 171.338C164.32 172.998 164.938 174.275 165.76 175.977C165.349 175.126 164.938 174.275 164.74 173.168C164.608 172.709 164.612 171.678 164.674 170.364C164.853 166.414 165.486 159.921 165.127 158.034C165.892 158.62 171.411 164.248 171.921 164.286C172.633 164.338 173.276 164.225 173.847 163.941C174.418 163.657 174.876 163.236 175.216 162.673C175.556 162.111 175.754 161.453 175.811 160.697C175.872 159.859 175.82 158.984 176.273 158.672C175.848 156.885 171.34 151.843 172.19 152.931C170.282 151.829 173.946 157.282 174.701 159.59C174.338 159.495 174.215 160.077 174.239 160.706C174.13 161.231 173.908 161.751 173.512 162.139C173.115 162.527 172.624 162.697 172.034 162.655C171.604 162.621 165.835 156.473 165.849 156.781C165.878 154.51 166.548 152.988 168.47 154.487C167.931 149.946 168.635 148.419 172.279 151.502C169.692 148.433 171.996 149.942 175.263 150.06C173.479 149.748 177.756 156.478 178.851 158.162C179.285 158.942 179.805 159.793 180.352 160.645C180.9 161.496 187.963 169.867 188.572 170.69C189.587 172.057 203.042 181.047 207.706 184.916C208.546 185.72 208.457 186.5 208.093 186.912C205.496 189.797 203.344 192.942 201.191 196.092C202.078 192.507 207.824 189.196 203.839 185.115C202.536 184.169 201.054 183.119 199.562 182.059C195.091 178.886 190.536 175.656 190.46 175.036C190.186 173.575 189.577 172.019 188.43 170.472C187.283 168.926 179.748 159.746 178.86 158.166C178.709 157.083 173.672 151.37 174.418 151.583C172.903 149.109 179.337 155.48 182.944 156.327C181.443 156.033 187.424 161.94 188.17 163.624C189.247 165.256 190.361 166.939 191.414 168.533C192.202 169.73 192.443 170.922 192.358 172.028C192.301 172.766 200.284 178.333 205.449 182.192C208.032 184.121 209.826 185.649 209.302 186.004C205.728 188.104 199.973 192.474 204.774 196.976C205.61 197.619 207.106 196.371 207.966 194.9C206.705 194.46 206.294 193.609 205.879 192.757C206.497 194.034 207.541 195.103 208.801 195.543L208.593 195.117C214.504 195.401 220.821 196.541 226.061 199.781C225.429 199.563 224.801 199.341 223.951 199.752C225.419 200.618 227.09 201.909 228.559 202.77L228.148 201.918C228.365 201.285 229.423 201.299 230.055 201.521C226.982 194.077 217.247 195.647 211.176 191.764C209.929 190.27 209.528 188.359 210.586 186.571C210.855 185.209 209.604 184.131 208.192 183.105C202.551 179.004 197.395 175.41 194.766 172.785C193.892 171.073 193.057 169.493 192.301 168.131C191.546 166.774 190.866 165.634 190.304 164.811C194.062 166.954 197.745 169.143 197.745 169.143L197.721 169.167Z" fill="currentColor"/>
<path d="M158.546 164.561C157.588 162.995 156.724 163.615 155.836 165.147C155.166 165.081 154.472 165.937 153.83 167.015C153.056 168.136 152.395 168.33 151.583 168.708C149.77 170.075 147.457 169.621 145.535 171.078C147.452 169.621 149.77 170.075 151.979 168.987C152.857 168.68 153.556 168.694 154.397 167.649C156.082 165.558 158.103 164.05 158.173 165.133C158.277 164.054 157.47 166.102 157.309 169.238C157.257 170.283 157.725 170.411 158.065 171.03C164.858 179.572 168.083 191.665 161.837 201.531C162.262 201.323 162.479 200.694 162.904 200.485C162.479 200.694 162.687 201.119 162.262 201.323C169.796 189.783 162.13 178.266 157.446 167.299C158.254 164.182 159.557 162.101 159.571 164.466C159.188 162.111 158.891 162.205 158.556 164.561H158.546Z" fill="currentColor"/>
<path d="M156.626 169.402C164.656 178.085 168.088 190.609 162.253 201.321L162.47 200.687C161.389 202.787 160.308 204.892 158.387 206.348C160.303 204.892 162.017 203.009 163.523 200.701C162.017 203.009 160.728 204.683 158.387 206.348C160.936 205.109 161.814 202.584 163.523 200.701C162.442 202.801 160.521 204.258 158.812 206.14C160.525 204.258 161.814 202.584 163.523 200.701C162.234 202.376 160.521 204.258 158.604 205.715C169.5 195.698 165.473 179.783 157.282 169.402C156.999 169.336 156.777 169.336 156.621 169.397L156.626 169.402Z" fill="currentColor"/>
<path d="M175.094 167.259C175.094 167.259 172.483 173.587 169.216 181.504C168.81 183.05 169.06 184.507 168.957 186.233C169.122 192.741 166.091 198.411 163.065 204.087C164.339 203.467 164.778 202.205 165.628 201.793C163.065 204.087 161.342 207.029 159.203 209.114C160.888 209.346 161.342 207.024 162.782 207.274C163.933 206.414 165.359 205.26 167.13 203.86C165.803 204.91 164.651 205.912 163.65 206.849C162.649 207.785 161.809 208.67 161.148 209.535C159.831 211.276 159.203 212.926 159.316 214.676C159.538 218.171 162.706 222.049 169.188 227.786C155.634 224.381 155.341 228.415 159.401 237.415C155.341 228.415 155.884 226.774 165.397 233.097C157.702 221.302 158.972 217.471 170.359 209.067C168.239 208.982 166.747 208.608 165.737 208.017C164.727 207.426 164.184 206.631 164.089 205.808C168.206 198.435 169.16 189.563 170.93 181.471C171.256 180.454 171.577 179.48 171.884 178.557C173.72 173.019 174.948 169.325 174.948 169.325L175.099 167.254L175.094 167.259Z" fill="currentColor"/>
<path d="M208.835 196.015C209.033 195.906 208.897 195.712 208.524 195.457C208.377 195.902 208.335 196.294 208.835 196.015Z" fill="currentColor"/>
<path d="M202.575 202.92C200.54 195.882 207.561 191.952 208.094 185.137C207.183 184.375 205.908 183.42 204.412 182.375C198.444 178.189 189.673 172.405 189.016 171.526C187.836 169.941 180.259 160.932 179.31 159.669C178.135 158.397 173.853 151.667 174.726 151.198C172.913 150.806 176.784 156.689 176.86 158.505C176.265 159.276 176.185 160.601 176.359 161.773C176.487 163.131 176.624 164.649 176.761 166.167C177.167 170.717 171.459 178.733 171.459 178.733C171.459 178.733 177.299 167.264 177.204 161.896C177.157 159.21 173.489 152.144 174.037 152.688C173.631 152.036 178.564 158.732 180.453 161.239C183.271 164.98 185.627 168.229 187.586 171.053C188.237 171.994 188.851 172.892 189.418 173.744C190.825 175.11 194.79 178.222 198.864 181.741C200.224 182.914 201.593 184.134 202.882 185.35C205.446 191.924 200.073 199.259 203.614 203.322C207.565 208.236 214.826 201.558 221.776 202.915C225.779 203.601 228.069 206.169 229.933 208.94C225.368 202.749 217.319 204.551 211.356 208.496C209.232 209.527 207.136 208.444 205.545 206.694C204.308 205.677 203.335 204.353 202.57 202.92H202.575Z" fill="currentColor"/>
<path d="M232.387 214.11C230.867 202.187 218.625 201.823 208.711 200.853C202.173 200.347 205.241 191.503 206.086 186.466C205.237 185.776 204.033 184.882 202.574 183.917C196.748 180.058 188.179 174.543 187.802 173.895C183.846 167.104 180.786 161.897 180.706 161.954C180.465 162.129 180.328 162.341 180.286 162.606C180.243 162.871 180.31 163.117 180.48 163.358C180.645 163.59 180.857 163.722 181.117 163.76C181.377 163.798 181.622 163.732 181.863 163.557C181.948 163.495 184.998 168.684 188.925 175.437C189.166 175.835 194.005 178.946 198.835 182.03C200.445 183.056 202.05 184.083 203.49 185.005C204.472 185.563 205.307 186.211 205.298 187.266C205.024 192.127 203.66 200.149 209.566 200.432C219.697 200.773 232.118 203.677 232.604 215.529C233.029 215.321 232.821 214.895 232.703 214.408C232.651 214.157 232.548 214.053 232.397 214.1L232.387 214.11Z" fill="currentColor"/>
<path d="M196.858 162.406L198.449 167.396C198.855 168.673 212.131 177.73 216.941 181.788C217.905 182.601 218.528 183.211 218.641 183.518C221.157 185.358 218.787 189.137 221.091 190.646C234.296 198.426 236.864 212.42 233.153 225.559C234.442 227.682 235.731 229.81 235.731 229.81L234.305 225.752C234.135 224.74 233.923 223.705 234.31 221.917C239.234 208.646 231.359 196.699 221.115 188.532C220.907 188.106 220.921 187.047 221.171 186.191C221.294 185.467 220.477 184.474 219.547 183.457C218.905 181.863 199.941 169.42 199.493 168.153C198.6 165.618 198.067 164.095 198.067 164.095L196.854 162.411L196.858 162.406Z" fill="currentColor"/>
<path d="M213.514 154.905C217.446 156.111 217.239 156.002 213.547 154.754C216.955 156.05 217.139 156.239 213.514 154.905Z" fill="currentColor"/>
<path d="M188.718 147.549C188.128 147.336 189.743 149.029 192.793 149.734C194.317 150.084 196.097 150.5 198 150.949C201.172 151.696 205.171 153.049 209.094 154.515C213.013 155.981 216.856 157.556 212.918 157.362C222.563 159.959 224.428 160.782 212.644 159.41C224.272 160.526 224.065 160.384 212.725 158.72C223.493 160.243 223.238 160.271 212.668 159.074C222.965 160.427 221.029 159.585 212.909 157.282C215.208 157.159 211.318 155.57 207.357 154.094C203.396 152.619 199.359 151.257 196.159 150.5C194.237 150.046 192.448 149.625 190.909 149.27C189.327 148.537 188.076 147.038 188.218 146.461C186.91 147.345 187.585 148.462 188.553 149.649C188.954 150.651 189.648 151.72 190.002 152.784C190.97 153.744 196.357 159.434 197.438 160.507C200.672 163.733 203.868 166.949 203.868 166.949C203.868 166.949 200.88 163.605 197.901 160.224C196.909 159.098 191.608 153.352 190.729 152.335C189.039 150.15 188.09 147.525 188.718 147.553V147.549Z" fill="currentColor"/>
<path d="M222.544 180.91C229.39 170.283 229.135 170.311 221.52 180.177C228.856 170.472 226.614 169.199 214.42 171.186C219.957 165.359 215.538 162.786 211.124 160.223C202.296 155.092 193.487 149.974 193.454 150.116C193.383 150.405 193.411 150.66 193.548 150.887C193.685 151.114 193.893 151.265 194.181 151.336C194.454 151.407 194.705 151.369 194.927 151.232C195.148 151.095 195.295 150.882 195.366 150.599C195.384 150.528 197.584 151.767 200.87 153.663C204.161 155.56 208.537 158.109 212.229 160.625C217.276 163.217 221.638 165.775 215.288 172.936C228.167 169.583 230.329 170.836 223.984 181.813C230.169 170.571 229.961 170.429 222.544 180.914V180.91Z" fill="currentColor"/>
<path d="M196.315 138.457C196.315 138.457 202.901 143.617 210.808 149.807C214.76 152.905 219.042 156.258 212.985 157.237C226.95 162.454 230.571 165.292 226.926 183.178C235.839 169.42 237.487 170.712 240.787 184.167C239.687 179.679 239.399 176.51 239.852 174.509C240.641 172.305 242.175 171.279 240.702 173.497C242.888 172.627 244.743 172.121 245.838 173.545C247.769 172.433 248.945 173.251 249.752 175.228C250.611 176.822 251.098 179.575 251.244 183.599C251.452 181.211 251.612 179.158 251.669 177.47C251.726 175.782 251.683 174.443 251.4 174.675C251.296 170.92 250.489 169.865 247.477 173.63C247.656 170.433 246.801 170.352 244.748 172.83C244.413 170.976 242.874 171.676 241.028 172.622C243.147 171.274 244.96 170.168 245.116 172.755C247.604 169.212 248.435 169.364 247.854 173.615C250.38 168.801 251.499 168.082 251.754 173.79C252.58 168.706 252.547 170.045 251.966 174.419C252.377 172.305 252.24 173.228 251.74 175.238C251.268 176.576 250.432 179.002 249.356 181.92C250.432 179.002 251.286 176.562 251.763 175.224C252.273 173.18 252.41 172.239 251.966 174.405C252.599 169.742 252.651 168.186 251.641 173.71C251.338 167.273 249.974 167.917 246.655 173.209C247.817 167.794 247.019 167.032 243.228 171.596C244.144 166.8 242.066 167.33 238.507 169.288C242.005 167.207 244.026 166.554 242.723 171.303C246.565 166.479 247.085 167.051 244.97 172.547C248.85 166.427 250.097 165.23 248.463 173.048C250.21 165.192 249.077 166.346 245.234 172.636C247.67 166.606 247.396 165.713 243.289 171.421C245.163 165.282 243.199 165.75 238.601 168.858C243.086 165.59 244.908 164.97 242.444 170.943C246.693 164.998 246.655 165.651 243.119 171.624C247.769 164.842 248.916 163.386 244.984 171.804C248.251 162.62 246.438 163.315 239.682 169.321C244.639 162.667 244.653 161.328 237.024 166.266C242.605 159.659 240.541 159.328 233.229 161.125C240.622 159.077 242.43 159.068 235.514 164.28C243.426 159.347 242.623 159.635 234.678 163.584C242.727 158.666 243.634 157.408 233.455 160.009C242.619 155.015 240.692 153.875 231.52 152.536C240.749 152.655 242.732 152.569 232.129 151.827C243.516 151.652 242.312 150.82 232.086 148.058C243.558 149.197 245.999 148.408 237.86 138.428C247.505 144.879 246.561 142.141 241.967 133.902C246.202 141.602 246.75 143.844 238.507 137.459C245.088 146.383 242.883 146.677 233.351 143.886C241.335 147.854 241.995 148.739 232.653 146.87C241.202 149.85 239.758 150.077 231.727 149.32C239.092 151.16 237.94 151.657 231.378 151.808C235.655 152.238 234.522 152.324 230.925 152.243C231.232 152.134 229.187 151.397 227.035 150.153C224.882 148.909 222.62 147.154 219.986 144.988C221.313 149.457 216.714 147.358 212.626 145.494C204.449 141.767 198.312 138.968 198.312 138.968L196.301 138.462L196.315 138.457Z" fill="currentColor"/>
</svg>
