<svg width="254" height="141" viewBox="0 0 254 141" fill="none" xmlns="http://www.w3.org/2000/svg">
<path d="M26.2601 88.4403C25.8001 87.9803 25.5801 87.4003 25.5801 86.6803C25.5801 85.9603 25.8101 85.4203 26.2601 84.9803C26.7201 84.5403 27.3001 84.3203 28.0201 84.3203C28.7401 84.3203 29.3101 84.5303 29.7401 84.9603C30.1701 85.3903 30.3801 85.9603 30.3801 86.6803C30.3801 87.4003 30.1601 87.9903 29.7201 88.4403C29.2801 88.9003 31.1001 114.65 31.1001 114.65C31.1001 114.65 26.7101 88.9003 26.2501 88.4403H26.2601Z" stroke="currentColor" stroke-width="2" stroke-miterlimit="50"/>
<path d="M46.0009 58.7691C47.7709 57.4991 74.2909 19.0391 74.2909 19.0391C74.2909 19.0391 55.2209 57.2291 56.6509 57.9591C58.0809 58.6891 59.1809 59.7291 59.9709 61.0691C60.7609 62.4091 61.1509 63.9591 61.1509 65.6991C61.1509 67.2791 57.5709 71.8491 56.7109 73.3491C55.8509 74.8391 140.241 76.8291 138.281 78.3291C137.201 79.1091 135.711 76.3291 135.361 77.0591C135.011 77.7891 134.851 78.9391 134.881 80.4791L119.241 80.5191C119.211 78.4191 120.011 80.0791 120.661 78.7091C121.311 77.3391 48.5509 75.7191 50.0709 74.5891C51.6209 73.4591 52.6609 72.4591 53.2009 71.5991C53.7409 70.7391 57.1609 66.7491 57.1609 65.6991C57.1609 64.2591 56.6509 63.0891 55.6409 62.1891C54.6309 61.2891 53.3209 60.8391 51.7209 60.8391C50.5009 60.8391 49.3609 61.2291 48.3009 62.0191C47.2309 62.8091 46.4509 63.8291 45.9509 65.0691L42.2109 63.6991C42.9609 61.6791 44.2209 60.0291 45.9909 58.7591L46.0009 58.7691ZM49.3009 88.4291C48.8409 87.9691 48.6209 87.3891 48.6209 86.6691C48.6209 85.9491 130.721 85.4091 131.181 84.9691C131.641 84.5291 132.221 84.3091 132.941 84.3091C133.661 84.3091 134.231 84.5191 134.661 84.9491C135.091 85.3791 53.4309 85.9491 53.4309 86.6691C53.4309 87.3891 53.2109 87.9791 52.7709 88.4291C52.3309 88.8891 51.7609 89.1191 51.0709 89.1191C50.3809 89.1191 49.7609 88.8891 49.3109 88.4291H49.3009Z" stroke="currentColor" stroke-width="2" stroke-miterlimit="50"/>
<path d="M69.0402 58.7694C70.8102 57.4994 72.7202 56.8594 74.7702 56.8594C76.6202 56.8594 78.2602 57.2294 79.6902 57.9594C81.1202 58.6894 82.2202 59.7294 83.0102 61.0694C83.8002 62.4094 84.1902 63.9594 84.1902 65.6994C84.1902 67.2794 80.6102 71.8494 79.7502 73.3494C78.8902 74.8394 162.5 73.2994 160.54 74.7994C159.46 75.5794 158.75 76.3294 158.4 77.0594C158.05 77.7894 157.89 78.9394 157.92 80.4794L153.93 80.5194C153.9 78.4194 154.7 80.0794 155.35 78.7094C156 77.3394 71.5802 75.7194 73.1002 74.5894C74.6502 73.4594 75.6902 72.4594 76.2302 71.5994C76.7702 70.7394 80.1902 66.7494 80.1902 65.6994C80.1902 64.2594 79.6802 63.0894 78.6702 62.1894C77.6602 61.2894 76.3502 60.8394 74.7502 60.8394C73.5302 60.8394 72.3902 61.2294 71.3302 62.0194C70.2602 62.8094 69.4802 63.8294 68.9802 65.0694L65.2402 63.6994C65.9902 61.6794 67.2502 60.0294 69.0202 58.7594L69.0402 58.7694ZM72.3402 88.4294C71.8802 87.9694 71.6602 87.3894 71.6602 86.6694C71.6602 85.9494 153.76 85.4094 154.22 84.9694C154.68 84.5294 155.26 84.3094 155.98 84.3094C156.7 84.3094 157.27 84.5194 157.7 84.9494C158.13 85.3794 76.4702 85.9494 76.4702 86.6694C76.4702 87.3894 112.76 111.889 112.76 111.889C112.76 111.889 74.7902 89.1194 74.1002 89.1194C73.4102 89.1194 72.7902 88.8894 72.3402 88.4294Z" stroke="currentColor" stroke-width="2" stroke-miterlimit="50"/>
<path d="M233.49 80.4902H194.03L90.8301 57.4102H95.9001L233.49 80.4902ZM173.56 84.9702C174.02 84.5302 174.6 84.3102 175.32 84.3102C176.04 84.3102 176.61 84.5202 177.04 84.9502C177.47 85.3802 95.8101 85.9502 95.8101 86.6702C95.8101 87.3902 95.5901 87.9802 95.1501 88.4302C94.7101 88.8902 94.1401 89.1202 93.4501 89.1202C92.7601 89.1202 92.1401 88.8902 91.6901 88.4302C91.2401 87.9702 91.0001 87.3902 91.0001 86.6702C91.0001 85.9502 173.1 85.4102 173.56 84.9702Z" stroke="currentColor" stroke-width="2" stroke-miterlimit="50"/>
</svg>
