<svg width="218" height="216" viewBox="0 0 218 216" fill="none" xmlns="http://www.w3.org/2000/svg">
<path d="M34.3636 151.74L24.59 143.421C20.7409 140.144 14.4788 134.872 13.574 134.267C13.1144 134.195 12.7051 133.951 12.3819 133.562C12.03 133.144 11.8721 132.647 11.9295 132.136C11.9798 131.617 12.2239 131.178 12.6548 130.818C13.0857 130.45 13.5596 130.292 14.0623 130.335C14.565 130.378 15.0031 130.623 15.3621 131.055C15.6709 131.423 15.8361 131.833 15.8505 132.265C16.6045 133.259 22.0478 138.985 25.4445 142.507L34.3564 151.747L34.3636 151.74ZM13.9115 131.588C13.811 131.588 13.6674 131.617 13.4735 131.783C13.2437 131.977 13.2006 132.15 13.1934 132.265C13.179 132.438 13.2293 132.589 13.3586 132.748C13.5453 132.971 13.7248 133.014 13.8397 133.021C13.9905 133.036 14.1629 133.05 16.7984 135.211C14.5722 132.784 14.5866 132.597 14.6009 132.388C14.6081 132.272 14.6009 132.092 14.407 131.869C14.2203 131.646 14.0623 131.603 13.9618 131.595C13.9474 131.595 13.9331 131.595 13.9115 131.595V131.588Z" fill="currentColor"/>
<path d="M23.5263 126.186C23.4689 126.186 23.4114 126.186 23.354 126.179C22.837 126.135 22.3774 125.883 22.0183 125.458C21.6927 125.07 23.8232 122.87 28.4096 118.861C32.2013 115.548 37.1132 111.299 41.86 107.194C48.28 101.641 54.9011 95.908 55.8418 94.9933C55.9351 94.5756 56.1649 94.2011 56.5312 93.8986C56.9621 93.5313 57.436 93.3728 57.9387 93.416L58.3552 93.452L58.4845 93.8554C58.585 94.1675 57.1703 95.6007 54.2404 98.1551C51.7485 100.323 48.359 103.261 44.7684 106.373C37.2425 112.883 27.1241 121.649 25.3001 123.42C25.4437 123.723 25.5084 124.04 25.4868 124.378C25.4509 124.897 25.2068 125.35 24.7902 125.703C24.4025 126.027 23.9788 126.193 23.5263 126.193V126.186ZM23.4904 124.925C23.6125 124.925 23.7777 124.911 23.9859 124.738C24.1439 124.601 24.2229 124.465 24.2373 124.292C24.2373 124.277 24.2373 124.263 24.2373 124.248C23.9357 124.522 23.6915 124.745 23.4976 124.933L23.4904 124.925ZM18.8298 120.143C18.7078 120.143 18.6288 120.093 18.5354 120.035L18.162 119.79L18.2553 119.329C18.5426 118.155 18.5498 117.522 18.5067 117.205C18.4851 117.025 18.4708 116.729 18.4492 116.225C18.4205 115.541 18.3631 113.935 18.1979 113.611C17.8388 113.193 17.3792 112.956 16.8263 112.941C16.2374 112.927 15.6916 113.143 15.1315 113.611C14.7222 113.957 14.4565 114.403 14.32 114.979C14.1764 115.577 14.2051 116.153 14.399 116.744L14.5929 117.327L11.3829 118.494L11.1675 117.896C10.7294 116.672 10.672 115.411 10.9951 114.137C11.1603 112.97 9.81742 97.7085 8.8695 87.7119L8.0293 78.7812L10.1118 87.5031C11.9431 95.1734 15.0597 107.475 16.0292 109.498C16.8622 109.369 17.6808 109.448 18.4708 109.729C19.3756 110.053 20.1799 110.629 20.8621 111.443C21.3433 112.019 21.5156 113.416 21.6951 115.325C21.7095 115.44 21.7167 115.555 21.731 115.664C24.1296 114.093 32.1438 107.9 38.729 102.815C47.9999 95.6559 52.5097 92.2133 54.7933 90.6144C54.7431 90.3911 54.7933 90.1679 54.937 89.995C55.2027 89.6637 55.612 89.6853 56.0141 89.7069C56.0572 89.7069 56.1003 89.7069 56.1506 89.7069C57.0339 89.1812 57.1919 89.2748 57.4073 89.4188L57.7807 89.6565L57.6945 90.1247C57.5294 90.7728 56.9692 90.9385 56.4809 90.9673C56.4522 90.9889 56.4163 91.0105 56.3876 91.0321C56.5096 91.2122 56.6748 91.4282 56.8902 91.6731L57.3068 92.1557L49.8168 98.4936L49.4074 98.0182C49.3141 97.9102 49.1489 97.7229 49.0484 97.4925C46.499 99.2354 39.483 104.673 33.6806 109.174C21.4438 118.66 19.4905 120.129 18.8298 120.129V120.143ZM16.776 111.681C16.776 111.681 16.8406 111.681 16.8765 111.681C17.7957 111.71 18.5785 112.098 19.2033 112.84C19.548 113.258 19.6413 114.165 19.7131 116.182C19.7275 116.542 19.7419 116.909 19.7562 117.032C19.7993 117.37 19.7993 117.774 19.7418 118.242C20.1153 117.975 20.5677 117.644 21.0919 117.255C21.0632 117.248 21.0273 117.234 20.9986 117.219L20.6682 117.09L20.5892 116.722C20.539 116.434 20.4959 115.973 20.4456 115.44C20.3666 114.59 20.1727 112.595 19.8998 112.242C19.3541 111.594 18.7508 111.155 18.0543 110.91C17.3649 110.665 16.6683 110.629 15.9214 110.795C15.1746 110.968 14.794 111.054 11.7133 99.1418C11.4404 98.0758 11.1675 97.0027 10.9018 95.9656C11.6127 103.852 12.4314 113.604 12.2231 114.425C12.0149 115.253 12.0005 116.052 12.18 116.852L13.0561 116.535C12.9412 115.923 12.9556 115.296 13.1064 114.684C13.3075 113.849 13.7168 113.164 14.3344 112.646C15.0956 112.005 15.9143 111.681 16.7688 111.681H16.776ZM50.0106 95.7423C50.0106 95.7423 50.025 95.7423 50.0322 95.7495L50.3553 95.8576L50.4559 96.2033C50.4559 96.2033 50.4702 96.2681 50.4774 96.2969L55.5402 92.0188C55.4755 91.9324 55.4109 91.846 55.3535 91.7667C54.0465 92.703 52.165 94.1074 50.0106 95.7495V95.7423Z" fill="currentColor"/>
<path d="M33.1633 118.072C33.1059 118.072 33.0556 118.072 32.9982 118.065C32.4811 118.022 32.0215 117.77 31.6625 117.345C31.3369 116.956 33.465 114.759 38.0466 110.755C41.8311 107.442 46.743 103.2 51.4898 99.0875C57.9098 93.5347 64.5452 87.7945 65.486 86.8799C65.5793 86.4621 65.8091 86.0948 66.1754 85.7851C66.6062 85.425 67.0874 85.2594 67.5829 85.3026L67.9994 85.3386L68.1287 85.7419C68.2292 86.054 66.8169 87.4872 63.8917 90.0416C61.407 92.2095 58.0175 95.1479 54.4197 98.2521C47.6407 104.122 38.7503 111.814 35.7199 114.579C39.6552 114.306 50.5562 113.218 58.1252 112.426L81.5073 109.97L58.2904 113.679C49.278 115.12 35.6696 117.338 34.3339 117.676C33.982 117.943 33.5799 118.08 33.1633 118.08V118.072ZM33.1346 116.812C33.2423 116.812 33.4147 116.798 33.6229 116.625C33.7235 116.546 33.8456 116.438 38.5421 115.624C35.8922 115.84 34.736 115.876 34.1974 115.84C33.7522 116.236 33.3931 116.567 33.1346 116.812ZM28.4597 112.023C28.3448 112.023 28.2658 111.972 28.1796 111.922L27.8062 111.677L27.9067 111.216C28.1939 110.042 28.2011 109.408 28.158 109.091C28.1365 108.911 28.1221 108.616 28.1006 108.112C28.0719 107.428 28.0144 105.822 27.8564 105.497C27.4974 105.08 27.0378 104.842 26.4848 104.828C25.8816 104.813 25.3502 105.029 24.7972 105.497C24.3879 105.843 24.1222 106.29 23.9858 106.866C23.8421 107.464 23.8709 108.04 24.0648 108.63L24.2586 109.214L21.0486 110.381L20.8332 109.783C20.3952 108.558 20.3377 107.291 20.6609 106.009C20.984 104.727 21.6375 103.668 22.5926 102.861C23.44 102.148 24.352 101.673 25.2999 101.457C26.2694 101.241 27.2245 101.291 28.1293 101.615C29.0341 101.94 29.8384 102.516 30.5207 103.33C31.009 103.906 31.1742 105.303 31.3537 107.212C31.3609 107.312 31.3752 107.406 31.3824 107.5C33.7594 105.778 41.4576 99.2892 47.7915 93.9524C64.7679 79.6489 64.8612 79.7137 65.486 80.0954L65.8738 80.3331L65.7804 80.8156C65.5865 81.5791 65.6152 81.9968 65.6727 82.2201C65.7301 82.4505 65.9312 82.8683 66.5416 83.5741L66.9581 84.0566L64.3442 86.3037L63.9348 85.8283C63.8415 85.7203 63.6907 85.5403 63.583 85.3242C60.7607 87.2904 52.4593 93.8011 45.594 99.1883C31.2747 110.417 29.1419 112.044 28.4597 112.044V112.023ZM26.4202 103.567C26.4202 103.567 26.4848 103.567 26.5207 103.567C27.4471 103.596 28.2299 103.985 28.8474 104.734C29.1921 105.152 29.2855 106.059 29.3573 108.076C29.3717 108.436 29.386 108.803 29.4004 108.926C29.4435 109.257 29.4435 109.653 29.3932 110.107C29.7523 109.848 30.1975 109.516 30.7074 109.135C30.693 109.135 30.6786 109.12 30.6571 109.12L30.3124 108.998L30.2334 108.623C30.1831 108.335 30.1401 107.874 30.0898 107.341C30.0108 106.491 29.8169 104.496 29.544 104.151C29.0054 103.51 28.3878 103.063 27.6984 102.818C27.009 102.573 26.3125 102.53 25.5656 102.703C24.8116 102.876 24.0791 103.258 23.3897 103.841C22.6285 104.482 22.133 105.296 21.8673 106.333C21.659 107.161 21.6447 107.961 21.8242 108.76L22.7003 108.443C22.5854 107.831 22.5998 107.204 22.7506 106.592C22.9517 105.757 23.361 105.073 23.9786 104.554C24.7398 103.913 25.5584 103.589 26.4202 103.589V103.567ZM64.3657 81.8671C61.802 83.7973 54.8434 89.6527 48.5958 94.9247C46.6856 96.5308 44.9908 97.964 43.4756 99.2316C43.928 98.8787 44.3732 98.5258 44.8184 98.18C63.8056 83.286 63.9636 83.3364 64.5524 83.538L64.8756 83.6461L64.9761 83.9918C64.9761 83.9918 64.9905 84.0494 64.9977 84.071L65.1844 83.9054C64.7966 83.394 64.5524 82.9475 64.4519 82.5369C64.3944 82.3353 64.3657 82.112 64.3657 81.8671Z" fill="currentColor"/>
<path d="M41.2573 111.265C41.1998 111.265 41.1424 111.265 41.0849 111.258C40.5679 111.214 40.1083 110.962 39.7492 110.537C39.4237 110.149 41.5541 107.949 46.1405 103.94C49.9322 100.627 54.8441 96.378 59.5909 92.2656C66.0037 86.7127 72.632 80.987 73.5727 80.0651C73.6661 79.6474 73.8959 79.2729 74.2621 78.9704C74.693 78.6103 75.1669 78.4446 75.6696 78.4878L76.0861 78.5238L76.2154 78.9272C76.3159 79.2393 74.9036 80.6725 71.9785 83.2269C69.4938 85.3947 66.1043 88.3332 62.5065 91.4373C54.9806 97.9553 44.8551 106.713 43.031 108.492C43.1747 108.795 43.2393 109.111 43.2177 109.45C43.1818 109.968 42.9377 110.422 42.5212 110.775C42.1334 111.099 41.7097 111.265 41.2573 111.265ZM41.2214 110.004C41.3363 110.012 41.5086 109.99 41.7169 109.817C41.8749 109.68 41.9538 109.544 41.9682 109.371C41.9682 109.356 41.9682 109.342 41.9682 109.327C41.6666 109.601 41.4224 109.824 41.2285 110.012L41.2214 110.004ZM25.1211 101.103L31.6919 95.5858L103.856 52.9922L81.4433 71.833L25.1211 101.103ZM91.4611 61.7716L42.8084 90.4866L80.797 70.7455L91.4539 61.7716H91.4611Z" fill="currentColor"/>
<path d="M81.5569 170.749C81.4277 170.749 81.2984 170.734 81.1691 170.713C80.6306 170.619 80.1997 170.338 79.9053 169.913C79.618 169.488 79.5175 168.991 79.618 168.437C79.7185 167.882 79.9771 167.45 80.3864 167.162C80.8029 166.874 81.2912 166.773 81.8442 166.874C82.3181 166.96 82.7059 167.162 82.9932 167.486C84.214 167.76 92.0487 168.639 96.9032 169.143L109.65 170.475L96.8386 170.403C91.7902 170.374 83.6108 170.374 82.5336 170.489C82.2391 170.662 81.9088 170.749 81.5569 170.749ZM81.442 168.098C81.2697 168.098 81.1691 168.149 81.1117 168.192C81.0327 168.25 80.9106 168.358 80.8604 168.653C80.8101 168.948 80.8891 169.107 80.9537 169.207C81.0543 169.352 81.1907 169.438 81.3918 169.474C81.679 169.524 81.837 169.445 81.9375 169.38C82.0596 169.294 82.2104 169.193 85.6071 169.15C82.3469 168.725 82.2391 168.574 82.1099 168.401C82.0453 168.307 81.9232 168.178 81.6287 168.127C81.5569 168.113 81.4995 168.113 81.442 168.113V168.098Z" fill="currentColor"/>
<path d="M70.734 159.794L70.1882 159.477C69.0679 158.821 68.2134 157.892 67.646 156.711C67.0213 155.71 56.2136 144.885 49.0826 137.842L42.7129 131.547L49.8941 136.884C56.2064 141.58 66.4899 148.991 68.5222 149.92C69.0823 149.286 69.7573 148.818 70.5401 148.522C71.4377 148.184 72.4287 148.112 73.47 148.292C74.2097 148.422 75.2366 149.387 76.5938 150.733C76.68 150.813 76.759 150.899 76.838 150.971C77.6638 148.22 79.8397 138.31 81.6207 130.171C84.1341 118.705 85.3836 113.167 86.1018 110.466C85.9222 110.329 85.8145 110.12 85.8145 109.897C85.8145 109.472 86.1377 109.227 86.4536 108.983C86.4824 108.961 86.5255 108.932 86.5614 108.896C86.8989 107.924 87.0784 107.895 87.3369 107.866L87.775 107.809L88.012 108.226C88.2992 108.831 87.9761 109.314 87.6242 109.652C87.617 109.688 87.6026 109.724 87.5955 109.76C87.8037 109.818 88.0694 109.876 88.3926 109.926L89.0245 110.027L87.3441 119.714L86.7265 119.613C86.5829 119.591 86.3387 119.548 86.1161 119.44C85.2831 122.422 83.3944 131.108 81.8289 138.303C77.9224 156.272 77.8721 156.279 77.1755 156.373L76.7375 156.43L76.5148 156.013C75.9834 154.925 75.5885 154.443 75.3443 154.219C75.215 154.097 75.014 153.881 74.6765 153.506C74.2169 152.995 73.1397 151.807 72.8093 151.663C72.2636 151.569 71.7681 151.691 71.33 152.037C70.8704 152.397 70.5903 152.923 70.4611 153.636C70.3677 154.162 70.4539 154.673 70.7196 155.206C70.9925 155.753 71.3803 156.178 71.9045 156.51L72.4216 156.834L70.7052 159.794H70.734ZM68.7735 156.149C69.1469 156.92 69.6424 157.54 70.2959 158.036L70.7627 157.23C70.2816 156.834 69.8938 156.344 69.6137 155.775C69.2331 155.004 69.1038 154.212 69.2475 153.427C69.427 152.412 69.8722 151.612 70.576 151.05C71.3013 150.474 72.1487 150.273 73.1038 150.438C73.6352 150.532 74.2887 151.173 75.6316 152.664C75.8685 152.93 76.1199 153.204 76.2132 153.29C76.4646 153.521 76.7231 153.83 76.9816 154.227C77.0965 153.787 77.233 153.24 77.3838 152.599C77.355 152.613 77.3191 152.62 77.2904 152.635L76.9529 152.75L76.6585 152.52C76.4359 152.332 76.1055 152.008 75.7249 151.634C75.1145 151.036 73.6926 149.632 73.2618 149.538C72.4431 149.394 71.6747 149.451 70.9925 149.704C70.3031 149.963 69.743 150.381 69.2834 150.986C68.8166 151.598 68.5868 151.915 58.5905 144.77C57.6929 144.129 56.7952 143.488 55.9335 142.862C61.5277 148.443 68.4144 155.393 68.7735 156.149ZM86.0802 117.344L86.3818 117.546C86.3818 117.546 86.4321 117.582 86.4536 117.604L87.5883 111.064C87.4806 111.042 87.38 111.014 87.2867 110.985C86.8845 112.54 86.3459 114.831 85.7427 117.474C85.7499 117.474 85.7571 117.474 85.7642 117.467L86.0802 117.344ZM83.7463 158.325C83.6171 158.325 83.4878 158.31 83.3514 158.289C82.8535 158.202 83.0761 155.146 84.0192 149.12C84.7948 144.143 85.8361 137.719 86.8414 131.518C88.1987 123.128 89.599 114.456 89.7355 113.145C89.5344 112.764 89.4769 112.332 89.5631 111.856C89.6636 111.302 89.9222 110.87 90.3315 110.581L90.6762 110.344L91.0352 110.567C91.3129 110.74 91.1478 112.749 90.5398 116.595C90.0227 119.865 89.3046 124.294 88.5506 128.997C86.9635 138.843 84.8235 152.073 84.565 154.608C84.8666 154.745 85.1251 154.954 85.319 155.228C85.6206 155.645 85.7283 156.157 85.635 156.69C85.5416 157.237 85.2616 157.684 84.8379 157.986C84.5147 158.217 84.1485 158.332 83.7535 158.332L83.7463 158.325ZM84.2634 155.933C84.2059 156.33 84.1628 156.668 84.1341 156.935C84.2275 156.863 84.3424 156.74 84.3926 156.474C84.4285 156.272 84.3926 156.113 84.2921 155.969C84.2849 155.955 84.2777 155.948 84.2634 155.933Z" fill="currentColor"/>
<path d="M72.9171 147.371L72.3714 147.054C71.2511 146.399 70.3965 145.462 69.822 144.274C69.2475 143.078 69.068 141.854 69.2834 140.622C69.4773 139.528 69.8723 138.577 70.4612 137.799C71.0644 137.007 71.8256 136.431 72.7304 136.092C73.6281 135.754 74.6191 135.675 75.6604 135.862C76.4 135.991 77.4269 136.956 78.7914 138.303C78.8632 138.375 78.9278 138.44 78.9924 138.505C79.7106 135.653 81.4484 125.721 82.8775 117.554C86.7122 95.6593 86.8271 95.6377 87.5524 95.5297L87.9977 95.4648L88.2347 95.8898C88.5722 96.5956 88.8666 96.8981 89.0533 97.0277C89.2472 97.1646 89.6709 97.359 90.5829 97.5031L91.2077 97.6039L90.6475 101.003L90.03 100.902C89.8935 100.881 89.6565 100.845 89.4411 100.737C88.5363 104.064 86.3532 114.407 84.5435 122.948C80.1271 143.842 80.0696 143.849 79.3802 143.943L78.935 144L78.7124 143.59C78.181 142.502 77.786 142.02 77.5418 141.796C77.4126 141.674 77.2115 141.458 76.874 141.083C76.4144 140.572 75.3372 139.384 75.0069 139.24C74.4611 139.146 73.9656 139.261 73.5275 139.607C73.0679 139.967 72.7879 140.493 72.6586 141.206C72.5653 141.732 72.6514 142.243 72.91 142.776C73.1828 143.323 73.5706 143.748 74.0949 144.079L74.6119 144.404L72.8956 147.364L72.9171 147.371ZM70.9567 143.727C71.3301 144.497 71.8256 145.124 72.4791 145.613L72.9459 144.807C72.4647 144.411 72.0769 143.921 71.7969 143.352C71.4163 142.581 71.287 141.789 71.4306 141.004C71.6102 139.989 72.0554 139.189 72.7591 138.627C73.4845 138.051 74.339 137.85 75.2869 138.015C75.8183 138.109 76.4718 138.75 77.8147 140.241C78.0517 140.507 78.303 140.781 78.3964 140.867C78.6477 141.091 78.8919 141.393 79.1432 141.782C79.251 141.35 79.3802 140.81 79.531 140.19C79.5167 140.19 79.5023 140.205 79.4808 140.205L79.1432 140.327L78.8416 140.089C78.619 139.902 78.2887 139.578 77.9081 139.204C77.2977 138.606 75.8758 137.194 75.4449 137.108C74.6263 136.964 73.8579 137.021 73.1757 137.273C72.4863 137.533 71.9261 137.95 71.4665 138.555C70.9997 139.168 70.6838 139.938 70.5258 140.831C70.3534 141.811 70.4971 142.754 70.9567 143.719V143.727ZM87.8397 97.6039C87.1072 100.73 85.5345 109.704 84.127 117.77C83.6961 120.233 83.3083 122.423 82.9636 124.367C83.0857 123.805 83.2006 123.244 83.3155 122.696C88.3136 99.0443 88.4716 98.9795 89.0461 98.7562L89.3621 98.6338L89.6565 98.8354C89.6565 98.8354 89.6996 98.8715 89.7212 98.8859L89.7643 98.641C89.1395 98.497 88.6655 98.3097 88.328 98.0648C88.1557 97.9424 87.9905 97.7911 87.8325 97.6111L87.8397 97.6039ZM85.9295 145.894C85.8002 145.894 85.671 145.88 85.5345 145.858C85.0366 145.772 85.2592 142.718 86.2024 136.697C86.9779 131.721 88.0192 125.303 89.0246 119.095C90.3818 110.697 91.7894 102.026 91.9186 100.715C91.7175 100.333 91.6601 99.9014 91.7463 99.426C91.8468 98.8715 92.1053 98.4393 92.5147 98.1512L92.8594 97.9136L93.2184 98.1368C93.4961 98.3097 93.3309 100.319 92.7229 104.165C92.2059 107.435 91.4877 111.864 90.7337 116.567C89.3047 125.433 87.4232 137.05 86.8774 141.119C89.714 138.375 97.3692 130.511 102.655 125.023L118.992 108.069L103.581 125.872C97.599 132.786 88.5937 143.258 87.7894 144.375C87.6745 144.864 87.4088 145.268 87.021 145.541C86.6979 145.772 86.3316 145.88 85.9367 145.88L85.9295 145.894ZM86.504 143.071C86.4178 143.662 86.3532 144.144 86.3101 144.504C86.4034 144.432 86.5183 144.31 86.5686 144.043C86.5902 143.921 86.6189 143.755 89.6924 140.111C87.8038 141.984 86.942 142.761 86.504 143.071Z" fill="currentColor"/>
<path d="M70.1172 137.634L71.6109 129.172L99.5961 50.0273L94.5046 78.9008L70.1172 137.634ZM95.7326 64.7342L76.8675 118.088L93.3125 78.4759L95.7326 64.7342ZM87.7614 135.459C87.6322 135.459 87.5029 135.445 87.3736 135.423C86.8757 135.337 87.0984 132.278 88.0415 126.248C88.8242 121.264 89.8583 114.847 90.8637 108.631C92.221 100.248 93.6213 91.5838 93.7577 90.273C93.5567 89.8913 93.4992 89.4592 93.5854 88.9838C93.6787 88.4293 93.9373 87.9971 94.3538 87.709L94.6985 87.4642L95.0575 87.6874C95.3352 87.8603 95.17 89.8697 94.562 93.7156C94.045 96.9782 93.334 101.415 92.5728 106.111C90.9786 115.956 88.8458 129.193 88.5873 131.729C88.8889 131.865 89.1474 132.074 89.3413 132.348C89.6429 132.766 89.7506 133.27 89.6573 133.81C89.5567 134.357 89.2838 134.804 88.8601 135.106C88.537 135.33 88.1636 135.445 87.7614 135.445V135.459ZM88.2857 133.068C88.2282 133.464 88.1851 133.803 88.1564 134.069C88.2497 133.997 88.3646 133.875 88.4149 133.608C88.4508 133.407 88.4149 133.248 88.3144 133.104C88.3072 133.09 88.3 133.083 88.2857 133.068Z" fill="currentColor"/>
<path d="M156.686 155.105C156.521 155.105 156.349 155.083 156.183 155.033C155.688 154.889 155.293 154.572 155.013 154.09C154.733 153.6 154.654 153.103 154.783 152.62C154.912 152.131 155.228 151.742 155.717 151.461C156.133 151.216 156.557 151.129 156.988 151.187C158.101 150.611 164.664 146.232 168.707 143.488L179.321 136.293L169.461 144.496C165.569 147.73 159.307 153.002 158.56 153.787C158.41 154.226 158.101 154.586 157.663 154.839C157.347 155.019 157.016 155.112 156.686 155.112V155.105ZM156.744 152.426C156.643 152.426 156.514 152.455 156.349 152.548C156.09 152.699 156.025 152.844 156.004 152.944C155.975 153.038 155.961 153.204 156.104 153.456C156.255 153.715 156.42 153.787 156.528 153.816C156.7 153.866 156.851 153.837 157.031 153.737C157.289 153.585 157.354 153.427 157.383 153.312C157.419 153.168 157.469 152.995 160.047 150.769C157.275 152.541 157.095 152.498 156.887 152.447C156.844 152.44 156.794 152.426 156.736 152.426H156.744Z" fill="currentColor"/>
<path d="M140.96 153.398C140.063 153.398 139.186 153.204 138.339 152.822C137.219 152.462 122.002 151.137 112.027 150.33L103.115 149.61L112.041 149.07C119.891 148.595 132.515 147.651 134.662 147.046C134.684 146.203 134.899 145.404 135.316 144.669C135.79 143.834 136.494 143.135 137.413 142.602C138.066 142.221 139.467 142.3 141.377 142.458C141.492 142.466 141.607 142.48 141.714 142.487C140.587 139.844 135.897 130.856 132.048 123.466C126.627 113.066 124.034 108.018 122.856 105.482C122.627 105.49 122.418 105.403 122.275 105.23C121.995 104.906 122.088 104.51 122.181 104.121C122.189 104.085 122.203 104.035 122.21 103.984C121.844 103.019 121.966 102.882 122.145 102.695L122.447 102.371L122.892 102.537C123.503 102.81 123.56 103.394 123.51 103.876C123.524 103.912 123.539 103.948 123.56 103.984C123.761 103.891 123.998 103.768 124.278 103.595L124.824 103.264L129.75 111.77L129.219 112.087C129.097 112.159 128.881 112.288 128.644 112.346C129.916 115.169 134.038 123.041 137.449 129.559C145.98 145.843 145.937 145.887 145.463 146.398L145.161 146.722L144.723 146.549C143.617 146.059 143 145.944 142.677 145.93C142.497 145.93 142.21 145.887 141.707 145.815C141.032 145.721 139.445 145.505 139.093 145.606C138.619 145.887 138.31 146.297 138.195 146.844C138.081 147.421 138.195 148.004 138.555 148.631C138.82 149.092 139.215 149.43 139.754 149.668C140.314 149.913 140.881 149.985 141.499 149.898L142.102 149.812L142.684 153.19L142.059 153.298C141.693 153.362 141.326 153.391 140.967 153.391L140.96 153.398ZM138.842 151.67C139.625 152.023 140.407 152.174 141.219 152.131L141.061 151.209C140.443 151.223 139.833 151.094 139.251 150.842C138.461 150.496 137.865 149.97 137.463 149.279C136.946 148.386 136.781 147.485 136.96 146.607C137.147 145.699 137.671 144.993 138.504 144.511C138.971 144.237 139.883 144.309 141.872 144.583C142.224 144.633 142.59 144.684 142.72 144.684C143.064 144.698 143.452 144.77 143.905 144.907C143.711 144.497 143.466 143.985 143.172 143.402C143.158 143.431 143.143 143.459 143.122 143.488L142.942 143.791L142.569 143.805C142.282 143.805 141.815 143.769 141.283 143.726C140.436 143.654 138.44 143.503 138.052 143.704C137.334 144.122 136.781 144.655 136.422 145.296C136.063 145.937 135.905 146.621 135.941 147.385C135.976 148.155 135.998 148.544 123.768 149.516C122.67 149.603 121.571 149.689 120.508 149.769C128.372 150.438 138.095 151.324 138.863 151.67H138.842ZM124.07 105.137C124.759 106.592 125.815 108.695 127.05 111.1C127.05 111.1 127.057 111.086 127.065 111.079L127.23 110.783L127.589 110.74C127.589 110.74 127.653 110.74 127.682 110.74L124.357 105C124.264 105.05 124.171 105.094 124.077 105.137H124.07ZM151.057 144.036C150.569 144.036 149.872 142.876 146.016 136.452C143.423 132.13 140.098 126.542 136.896 121.14C132.558 113.837 128.084 106.296 127.345 105.209C126.95 105.043 126.627 104.748 126.39 104.337C126.109 103.848 126.03 103.351 126.16 102.868L126.267 102.465L126.684 102.407C127.01 102.359 128.17 104.004 130.167 107.341C131.869 110.178 134.16 114.031 136.587 118.122C141.678 126.686 148.522 138.202 149.951 140.312C150.274 140.218 150.597 140.218 150.921 140.298C151.423 140.427 151.833 140.744 152.105 141.212C152.386 141.695 152.457 142.213 152.328 142.718C152.192 143.222 151.868 143.632 151.387 143.906C151.265 143.978 151.172 144.028 151.064 144.028L151.057 144.036ZM150.569 141.515C150.784 141.853 150.964 142.141 151.107 142.365C151.136 142.249 151.143 142.084 151.007 141.846C150.906 141.666 150.777 141.565 150.612 141.522C150.597 141.522 150.583 141.522 150.569 141.515Z" fill="currentColor"/>
<path d="M134.669 142.464C133.772 142.464 132.889 142.27 132.034 141.881C130.835 141.333 129.901 140.512 129.284 139.425C128.731 138.46 128.422 137.48 128.379 136.508C128.328 135.514 128.551 134.578 129.025 133.735C129.499 132.9 130.203 132.201 131.122 131.668C131.775 131.286 133.176 131.365 135.086 131.524C135.187 131.531 135.28 131.538 135.373 131.545C134.095 128.902 129.061 120.166 124.917 112.986C113.822 93.7414 113.901 93.6549 114.383 93.1004L114.684 92.7619L115.137 92.9347C115.848 93.2588 116.264 93.302 116.494 93.2804C116.731 93.2588 117.176 93.1364 117.973 92.661L118.519 92.3297L120.271 95.297L119.733 95.6211C119.61 95.6931 119.409 95.8156 119.172 95.8804C120.609 99.0061 125.564 108.34 129.657 116.054C139.668 134.909 139.625 134.952 139.158 135.463L138.856 135.795L138.425 135.622C137.319 135.132 136.702 135.017 136.379 135.003C136.199 135.003 135.912 134.959 135.409 134.887C134.734 134.794 133.14 134.578 132.795 134.678C132.321 134.959 132.012 135.37 131.898 135.917C131.775 136.493 131.898 137.077 132.257 137.703C132.522 138.164 132.917 138.503 133.456 138.74C134.016 138.985 134.583 139.057 135.201 138.971L135.804 138.884L136.393 142.262L135.768 142.37C135.402 142.435 135.036 142.464 134.669 142.464ZM132.551 140.735C133.327 141.088 134.102 141.24 134.928 141.196L134.77 140.275C134.16 140.289 133.542 140.159 132.96 139.907C132.17 139.561 131.574 139.036 131.172 138.344C130.655 137.451 130.49 136.551 130.67 135.672C130.856 134.765 131.373 134.059 132.214 133.577C132.68 133.303 133.592 133.375 135.582 133.649C135.933 133.699 136.3 133.749 136.429 133.749C136.766 133.764 137.147 133.836 137.585 133.965C137.391 133.562 137.147 133.065 136.86 132.496C136.853 132.511 136.845 132.525 136.831 132.539L136.651 132.856L136.271 132.871C135.976 132.871 135.517 132.835 134.985 132.791C134.138 132.727 132.142 132.561 131.754 132.77C131.036 133.188 130.483 133.721 130.124 134.362C129.758 135.003 129.6 135.687 129.643 136.45C129.679 137.221 129.93 138.013 130.382 138.798C130.878 139.662 131.589 140.296 132.565 140.735H132.551ZM115.927 94.5192C117.37 97.3856 121.923 105.272 126.002 112.359C127.251 114.527 128.357 116.45 129.341 118.164C129.068 117.66 128.802 117.148 128.537 116.651C117.205 95.3114 117.291 95.1602 117.585 94.6128L117.751 94.3175L118.102 94.2815C118.102 94.2815 118.16 94.2815 118.189 94.2815L118.059 94.0655C117.492 94.3607 117.004 94.5192 116.594 94.5552C116.386 94.5768 116.164 94.5624 115.927 94.5264V94.5192ZM144.766 133.101C144.278 133.101 143.581 131.942 139.725 125.524C137.133 121.21 133.815 115.622 130.605 110.22C126.267 102.917 121.786 95.369 121.047 94.2815C120.652 94.1159 120.329 93.8206 120.092 93.4101C119.812 92.9203 119.733 92.4234 119.862 91.9408L119.97 91.5375L120.386 91.4799C120.712 91.4367 121.873 93.0812 123.869 96.4134C125.571 99.251 127.862 103.104 130.289 107.195C134.878 114.908 140.881 125.02 143.072 128.492C143.488 124.559 144.314 113.598 144.845 105.992L146.497 82.4844L146.102 106.05C145.951 115.204 145.764 129.025 145.865 130.408C146.095 130.854 146.145 131.337 146.023 131.798C145.887 132.302 145.563 132.712 145.082 132.986C144.967 133.058 144.867 133.108 144.759 133.108L144.766 133.101ZM144.048 130.213C144.364 130.717 144.623 131.135 144.824 131.437C144.852 131.322 144.86 131.157 144.723 130.919C144.659 130.811 144.58 130.667 144.601 125.892C144.357 128.542 144.192 129.695 144.055 130.22L144.048 130.213Z" fill="currentColor"/>
<path d="M127.998 136.616L123.718 129.169L94.4258 50.5L109.032 75.902L127.991 136.616H127.998ZM100.896 64.2633L120.644 117.3L107.855 76.3486L100.896 64.2633ZM139.481 123.933C138.992 123.933 138.296 122.774 134.432 116.349C131.833 112.028 128.515 106.439 125.305 101.03C120.975 93.7346 116.494 86.2011 115.761 85.1064C115.366 84.9407 115.043 84.6454 114.806 84.2349C114.526 83.7452 114.447 83.2482 114.576 82.7657L114.684 82.3624L115.1 82.3047C115.426 82.2567 116.587 83.9036 118.583 87.2454C120.285 90.0831 122.576 93.9434 125.011 98.0343C130.095 106.598 136.939 118.107 138.368 120.217C138.691 120.123 139.014 120.123 139.344 120.203C139.847 120.332 140.256 120.649 140.522 121.117C140.802 121.6 140.874 122.118 140.745 122.622C140.608 123.119 140.285 123.537 139.804 123.811C139.689 123.883 139.588 123.933 139.481 123.933ZM138.992 121.412C139.208 121.751 139.387 122.039 139.531 122.262C139.56 122.147 139.567 121.981 139.43 121.744C139.33 121.564 139.201 121.463 139.035 121.42C139.021 121.42 139.007 121.42 138.992 121.412Z" fill="currentColor"/>
<path d="M204.311 94.6293C204.074 94.6293 203.823 94.5861 203.572 94.4925C203.04 94.298 202.667 93.9739 202.451 93.513C202.236 93.052 202.229 92.5551 202.423 92.0221C202.588 91.5684 202.853 91.2227 203.22 90.9922C203.701 89.8327 205.92 82.2488 207.263 77.5386L210.782 65.1797L208.484 77.8267C207.579 82.8106 206.157 90.8842 206.085 91.9717C206.25 92.4039 206.243 92.8864 206.071 93.3617C205.884 93.8731 205.539 94.2548 205.065 94.4709C204.821 94.5789 204.563 94.6365 204.297 94.6365L204.311 94.6293ZM205.302 88.7019C204.318 91.8493 204.153 91.9285 203.959 92.0221C203.859 92.0726 203.708 92.1734 203.608 92.4543C203.507 92.7352 203.55 92.8864 203.593 92.98C203.636 93.0737 203.722 93.2033 204.002 93.3041C204.283 93.405 204.455 93.3545 204.563 93.3041C204.721 93.2321 204.828 93.1097 204.9 92.9152C205.001 92.6415 204.95 92.4687 204.9 92.3606C204.836 92.2238 204.764 92.0654 205.309 88.6947L205.302 88.7019Z" fill="currentColor"/>
<path d="M160.944 124.524L167.436 118.351C173.137 112.928 182.207 104.062 183.471 102.218C182.947 101.556 182.602 100.807 182.451 99.9786C182.279 99.0279 182.372 98.0412 182.739 97.0473C182.997 96.3343 184.117 95.4916 185.676 94.3825C185.769 94.3177 185.863 94.2457 185.949 94.188C183.392 92.8917 174.035 89.0241 166.351 85.8479C155.529 81.3754 150.308 79.1787 147.781 77.9976C147.608 78.1488 147.393 78.2209 147.17 78.1848C146.754 78.12 146.567 77.7527 146.387 77.3926C146.366 77.3566 146.344 77.3134 146.323 77.2702C145.425 76.766 145.432 76.586 145.447 76.3267L145.468 75.8802L145.921 75.7217C146.567 75.5417 146.983 75.945 147.249 76.3555C147.285 76.3699 147.314 76.3915 147.35 76.4059C147.443 76.2042 147.544 75.9594 147.651 75.6497L147.86 75.0447L157.08 78.3865L156.872 78.9771C156.822 79.1139 156.743 79.3516 156.599 79.5533C159.385 80.9001 167.586 84.2707 174.38 87.0651C191.349 94.044 191.342 94.0944 191.313 94.793L191.292 95.2396L190.846 95.3836C189.69 95.7221 189.144 96.0318 188.886 96.2263C188.742 96.3343 188.498 96.4927 188.067 96.7592C187.485 97.1265 186.128 97.9836 185.934 98.2861C185.748 98.8046 185.776 99.3232 186.042 99.8129C186.322 100.331 186.782 100.699 187.464 100.951C187.967 101.131 188.484 101.138 189.044 100.972C189.633 100.8 190.114 100.49 190.53 100.029L190.94 99.5753L193.554 101.786L193.144 102.269C192.304 103.256 191.248 103.94 189.992 104.3C188.9 104.746 176.398 113.54 168.24 119.352L160.951 124.545L160.944 124.524ZM187.636 93.9432C187.636 93.9432 187.651 94.008 187.658 94.044L187.715 94.3969L187.435 94.649C187.213 94.8362 186.839 95.1027 186.401 95.4196C185.705 95.9166 184.082 97.0761 183.916 97.4866C183.629 98.2717 183.557 99.0351 183.687 99.7625C183.816 100.49 184.139 101.109 184.656 101.671C185.18 102.24 185.439 102.521 176.699 111.156C175.917 111.934 175.127 112.705 174.358 113.447C180.814 108.888 188.828 103.299 189.633 103.068C190.451 102.838 191.155 102.449 191.744 101.894L191.033 101.289C190.559 101.7 190.013 101.995 189.41 102.175C188.591 102.42 187.787 102.406 187.04 102.132C186.071 101.779 185.367 101.196 184.943 100.411C184.505 99.5969 184.455 98.7182 184.785 97.8035C184.972 97.2922 185.712 96.7664 187.414 95.6933C187.715 95.506 188.031 95.3044 188.125 95.2324C188.397 95.0235 188.742 94.8218 189.173 94.6418C188.764 94.4473 188.247 94.2241 187.643 93.9576L187.636 93.9432ZM148.492 76.9389C149.949 77.6087 152.111 78.5378 154.596 79.5893C154.596 79.5893 154.596 79.5749 154.596 79.5677L154.531 79.2364L154.775 78.9771C154.775 78.9771 154.825 78.9339 154.847 78.9123L148.621 76.658C148.578 76.7588 148.535 76.8524 148.492 76.9461V76.9389ZM193.769 89.4346C193.065 89.4346 191.162 88.7792 185.367 86.7914C180.613 85.1565 174.487 83.0175 168.57 80.9433C160.57 78.1416 152.305 75.2536 151.041 74.8935C150.632 75.0231 150.201 75.0087 149.748 74.843C149.217 74.6486 148.843 74.3173 148.628 73.8635L148.448 73.4818L148.728 73.1649C148.949 72.9201 150.892 73.4314 154.56 74.699C157.676 75.7721 161.906 77.2486 166.387 78.8186C175.78 82.1028 188.412 86.5105 190.853 87.2092C191.04 86.9283 191.284 86.7194 191.586 86.5682C192.053 86.3449 192.563 86.3233 193.08 86.5105C193.604 86.6978 193.992 87.0507 194.214 87.5188C194.43 87.987 194.444 88.5127 194.257 89.0385C194.171 89.2762 194.114 89.4274 193.769 89.4274V89.4346ZM192.103 87.7277C192.484 87.8501 192.807 87.951 193.065 88.0302C193.015 87.9294 192.907 87.7925 192.656 87.6989C192.462 87.6269 192.304 87.6269 192.146 87.7061C192.132 87.7061 192.117 87.7205 192.11 87.7277H192.103Z" fill="currentColor"/>
<path d="M176.434 100.203C175.759 100.203 175.106 100.088 174.467 99.8503C173.425 99.4686 172.564 98.914 171.903 98.201C171.228 97.4664 170.797 96.6165 170.625 95.6587C170.452 94.7152 170.546 93.7285 170.912 92.7274C171.17 92.0144 172.291 91.1717 173.849 90.0626C173.928 90.005 174.007 89.9473 174.086 89.8969C171.415 88.6942 161.964 85.2515 154.187 82.4211C133.347 74.83 133.347 74.7148 133.369 73.9802L133.383 73.5264L133.842 73.368C134.596 73.1591 134.941 72.9214 135.106 72.7558C135.272 72.5901 135.537 72.2084 135.839 71.3226L136.047 70.7248L139.293 71.8699L139.085 72.4677C139.034 72.6045 138.963 72.8278 138.826 73.0223C141.936 74.4915 151.716 78.4455 159.788 81.7153C179.537 89.7025 179.537 89.7601 179.501 90.4587L179.479 90.9052L179.034 91.0493C177.878 91.3878 177.325 91.6975 177.073 91.8919C176.93 92 176.686 92.1584 176.255 92.4249C175.673 92.7922 174.316 93.642 174.122 93.9445C173.935 94.4631 173.964 94.9816 174.23 95.4714C174.51 95.9899 174.969 96.3573 175.651 96.6093C176.154 96.7894 176.671 96.7966 177.231 96.6309C177.82 96.4581 178.301 96.1484 178.718 95.6875L179.127 95.2337L181.741 97.4448L181.332 97.9273C180.492 98.9212 179.429 99.6054 178.165 99.9583C177.583 100.124 177.016 100.203 176.449 100.203H176.434ZM175.824 89.6593C175.824 89.6593 175.824 89.6953 175.831 89.7097L175.896 90.0698L175.608 90.3291C175.386 90.5163 175.005 90.79 174.574 91.0997C173.878 91.5966 172.255 92.7562 172.09 93.1667C171.802 93.9661 171.723 94.708 171.86 95.4426C171.989 96.17 172.312 96.7894 172.829 97.3512C173.353 97.9201 174.05 98.3667 174.897 98.6764C175.831 99.0149 176.779 99.0437 177.806 98.7556C178.632 98.5251 179.328 98.1362 179.924 97.5816L179.213 96.9766C178.739 97.3872 178.194 97.6825 177.59 97.8625C176.772 98.1074 175.967 98.093 175.221 97.8193C174.251 97.4664 173.547 96.883 173.124 96.098C172.686 95.2841 172.635 94.4055 172.966 93.4908C173.152 92.9794 173.892 92.4537 175.594 91.3806C175.896 91.1933 176.212 90.9917 176.305 90.9196C176.571 90.7108 176.908 90.5235 177.332 90.3363C176.923 90.149 176.42 89.9329 175.838 89.6809L175.824 89.6593ZM135.451 74.0594C138.395 75.327 146.941 78.4383 154.611 81.2327C156.952 82.0826 159.034 82.846 160.887 83.523C160.355 83.3069 159.831 83.0909 159.307 82.882C136.945 73.8361 136.916 73.6705 136.794 73.0583L136.729 72.727L136.981 72.4677C136.981 72.4677 137.024 72.4317 137.038 72.4101L136.801 72.3309C136.55 72.9214 136.284 73.3608 135.99 73.6489C135.839 73.8001 135.659 73.9369 135.458 74.0594H135.451ZM181.949 85.1147C181.246 85.1147 179.343 84.4593 173.547 82.4715C168.793 80.8366 162.668 78.6976 156.751 76.6233C148.751 73.8217 140.485 70.9336 139.221 70.5735C138.812 70.7032 138.381 70.6888 137.929 70.5231C137.397 70.3287 137.024 69.9974 136.808 69.5436L136.629 69.1619L136.909 68.845C137.129 68.6001 139.073 69.1115 142.74 70.3791C145.857 71.4522 150.086 72.9358 154.575 74.4987C163.034 77.4516 174.115 81.3264 178.021 82.5723C175.824 79.2953 169.425 70.3647 164.959 64.1924L151.156 45.1211L165.957 63.4218C171.709 70.5303 180.427 81.2399 181.389 82.2338C181.849 82.4283 182.201 82.7596 182.402 83.1917C182.617 83.6599 182.639 84.1856 182.445 84.7114C182.359 84.949 182.301 85.1003 181.957 85.1003L181.949 85.1147ZM179.867 83.2781C180.434 83.4654 180.901 83.6094 181.238 83.7175C181.188 83.6166 181.088 83.4798 180.829 83.3862C180.707 83.343 180.556 83.2853 177.511 79.6122C179.019 81.8017 179.637 82.7884 179.867 83.2781Z" fill="currentColor"/>
<path d="M171.68 98.5246L163.63 95.5789L90.7695 54.1953L118.238 64.2423L171.673 98.5318L171.68 98.5246ZM104.543 60.5692L153.655 88.4632L117.613 65.3371L104.536 60.562L104.543 60.5692ZM172.018 81.4915C171.314 81.4915 169.411 80.8361 163.616 78.8483C158.862 77.2134 152.736 75.0744 146.819 73.0002C138.819 70.1985 130.553 67.3104 129.29 66.9503C128.88 67.08 128.449 67.0656 127.997 66.8999C127.466 66.7055 127.092 66.3742 126.877 65.9204L126.697 65.5387L126.977 65.2218C127.197 64.9769 129.141 65.4883 132.808 66.7559C135.925 67.829 140.155 69.3054 144.636 70.8755C154.029 74.1597 166.653 78.5674 169.102 79.266C169.289 78.9923 169.54 78.7763 169.842 78.625C170.301 78.4018 170.818 78.3802 171.336 78.5674C171.86 78.7619 172.248 79.1076 172.47 79.5757C172.686 80.0439 172.707 80.5696 172.513 81.0954C172.427 81.3331 172.37 81.4843 172.025 81.4843L172.018 81.4915ZM170.352 79.7846C170.732 79.907 171.055 80.0079 171.314 80.0871C171.264 79.9862 171.163 79.8494 170.905 79.7558C170.711 79.6838 170.553 79.691 170.395 79.763C170.38 79.763 170.366 79.7774 170.359 79.7846H170.352Z" fill="currentColor"/>
</svg>
