<svg width="292" height="261" viewBox="0 0 292 261" fill="none" xmlns="http://www.w3.org/2000/svg">
<path d="M241.009 76.1562C238.207 79.0848 235.36 81.9634 232.519 84.8519L223.908 93.4227C218.149 99.1198 212.305 104.732 206.501 110.379C200.662 115.996 194.804 121.584 189.025 127.256C187.571 128.665 186.113 130.069 184.654 131.479C183.196 132.888 181.558 134.542 180.269 135.682C178.676 137.306 176.578 139.475 175.854 139.86C173.841 142.053 171.918 143.967 171.483 144.077C170.689 145.197 170.624 145.132 171.413 144.007C171.323 144.167 172.582 142.978 174.325 141.269C174.29 141.169 175.644 139.72 177.067 138.205C177.452 137.9 178.835 136.541 179.944 135.417C180.718 134.612 181.842 133.438 182.801 132.483C183.76 131.529 184.714 130.579 185.668 129.625C186.622 128.67 187.571 127.711 188.52 126.746C194.239 121.009 200.073 115.382 205.892 109.75L241.019 76.1662L241.009 76.1562Z" fill="currentColor"/>
<path d="M170.709 142.555C169.985 143.739 169.066 146.568 169.77 145.543C169.066 146.568 171.967 145.923 172.827 144.864C171.967 145.923 169.985 143.739 170.709 142.555Z" fill="currentColor"/>
<path d="M259.221 68.875C252.593 74.4472 245.561 79.5747 238.853 85.0619C232.36 90.3743 226.087 95.9815 219.823 101.629C217.181 104.012 214.539 106.396 211.897 108.775C210.523 110.015 209.04 111.154 207.851 112.578C207.296 113.243 206.777 113.943 206.238 114.622C205.698 115.302 205.179 115.972 204.529 116.486C204.4 116.586 204.09 116.786 204.09 116.786C204.09 116.786 204.23 116.511 204.295 116.426C204.39 116.301 204.494 116.181 204.589 116.056C204.709 115.897 204.829 115.732 204.929 115.557C204.979 115.467 205.094 115.302 205.064 115.192C205.049 115.127 204.944 115.102 204.944 115.102C204.944 115.102 200.359 120.689 200.279 119.77C200.199 118.85 199.13 120.045 199.13 120.045L203.725 115.657C203.725 115.657 203.351 116.461 203.051 116.791C201.912 118.07 200.444 118.97 199.125 120.045C199.085 120.079 199.045 120.109 199.005 120.144C197.717 121.214 196.393 122.233 195.089 123.283C192.362 125.477 189.66 127.701 186.983 129.955C181.654 134.442 176.424 139.05 171.305 143.768C176.839 139.37 182.388 134.992 187.952 130.629C192.907 126.746 197.881 122.883 202.821 118.99C203.451 118.495 204.385 117.216 204.385 117.216L204.579 117.551C204.579 117.551 204.839 117.111 204.969 116.881C205.099 116.651 205.533 116.881 205.533 116.881C205.533 116.881 205.194 116.756 205.254 116.601C205.314 116.446 205.568 116.426 205.648 116.571C206.757 115.542 207.871 114.512 208.98 113.483C212.061 110.874 215.083 108.2 218.05 105.462C220.368 103.323 224.119 100.879 224.963 97.7506C224.813 98.2853 225.772 98.2004 226.181 97.8256C236.985 87.9455 247.998 78.2903 259.206 68.875H259.221Z" fill="currentColor"/>
<path d="M173.996 144.768C173.701 145.313 168.107 147.262 167.803 146.702C167.913 147.342 168.637 145.953 169.576 143.589C169.811 143.434 170.375 141.915 170.49 140.695C170.665 141.875 173.701 145.313 173.996 144.768Z" fill="currentColor"/>
<path d="M177.691 51.2795C177.426 55.3225 177.091 59.3605 176.772 63.3985L175.683 75.5025C174.934 83.5734 174.059 91.6294 173.24 99.6854C172.376 107.741 171.477 115.792 170.693 123.853C170.483 125.867 170.273 127.881 170.059 129.895C169.844 131.909 169.654 134.233 169.399 135.937C169.22 138.206 169.005 141.215 168.7 141.974C168.565 144.948 168.321 147.652 168.061 148.016C168.171 149.386 168.081 149.376 167.961 148.006C167.996 148.186 168.196 146.462 168.43 144.038C168.341 143.983 168.445 142.004 168.565 139.925C168.665 139.441 168.85 137.517 168.975 135.937C169.05 134.823 169.16 133.199 169.28 131.854C169.399 130.51 169.519 129.166 169.639 127.821C169.754 126.477 169.869 125.133 169.974 123.783C170.668 115.707 171.527 107.646 172.361 99.5905L177.696 51.2695L177.691 51.2795Z" fill="currentColor"/>
<path d="M166.487 147.363C166.697 148.738 167.806 151.491 167.686 150.257C167.806 151.491 169.609 149.132 169.589 147.773C169.609 149.137 166.692 148.743 166.482 147.363H166.487Z" fill="currentColor"/>
<path d="M186.961 33.9922C185.463 42.5229 183.37 50.9737 181.757 59.4895C180.198 67.7354 178.995 76.0612 177.821 84.4221C177.326 87.9453 176.832 91.4736 176.342 94.9968C176.088 96.8309 175.683 98.655 175.688 100.514C175.688 101.384 175.743 102.248 175.763 103.118C175.783 103.987 175.818 104.832 175.653 105.647C175.618 105.806 175.508 106.156 175.508 106.156C175.508 106.156 175.438 105.856 175.433 105.746C175.428 105.587 175.433 105.432 175.418 105.272C175.408 105.072 175.393 104.867 175.358 104.672C175.338 104.572 175.323 104.372 175.229 104.302C175.174 104.262 175.079 104.312 175.079 104.312C175.079 104.312 175.159 111.544 174.504 110.889C173.85 110.234 173.8 111.838 173.8 111.838L174.504 105.522C174.504 105.522 174.734 106.381 174.719 106.826C174.664 108.54 174.125 110.169 173.8 111.838C173.79 111.888 173.78 111.938 173.77 111.993C173.47 113.638 173.111 115.277 172.786 116.916C172.107 120.349 171.468 123.792 170.863 127.241C169.665 134.107 168.621 140.994 167.727 147.905C169.14 140.979 170.579 134.052 172.037 127.136C173.336 120.974 174.664 114.817 175.953 108.655C176.118 107.87 176.013 106.291 176.013 106.291L176.377 106.426C176.377 106.426 176.292 105.921 176.248 105.661C176.203 105.402 176.682 105.302 176.682 105.302C176.682 105.302 176.342 105.422 176.287 105.267C176.233 105.112 176.417 104.932 176.572 104.992C176.762 103.488 176.952 101.983 177.142 100.479C177.826 96.5011 178.425 92.503 178.94 88.5C179.339 85.3716 180.643 81.0837 179.284 78.1452C179.514 78.6499 180.193 77.9703 180.268 77.4156C182.196 62.8978 184.434 48.42 186.971 33.9972L186.961 33.9922Z" fill="currentColor"/>
<path d="M170.428 146.94C170.553 147.55 167.521 152.637 166.927 152.407C167.421 152.827 167.082 151.298 166.288 148.879C166.368 148.609 165.828 147.08 165.129 146.07C166.023 146.865 170.553 147.545 170.428 146.935V146.94Z" fill="currentColor"/>
<path d="M113.201 72.9503C115.599 76.2187 117.936 79.527 120.284 82.8254L127.226 92.8004C131.836 99.4621 136.342 106.199 140.892 112.895C145.407 119.622 149.887 126.369 154.467 133.05C155.601 134.73 156.735 136.409 157.864 138.088C158.993 139.767 160.341 141.671 161.24 143.14C162.564 144.994 164.332 147.438 164.587 148.213C166.395 150.577 167.943 152.806 167.978 153.255C168.942 154.235 168.867 154.285 167.898 153.31C168.043 153.425 167.084 151.976 165.705 149.967C165.601 149.982 164.412 148.398 163.163 146.734C162.928 146.299 161.835 144.705 160.916 143.415C160.256 142.516 159.297 141.201 158.528 140.092C157.759 138.982 156.985 137.878 156.211 136.769C155.436 135.659 154.657 134.56 153.873 133.46C149.218 126.828 144.698 120.102 140.158 113.39L113.201 72.9453V72.9503Z" fill="currentColor"/>
<path d="M166.345 153.754C167.389 154.674 170.011 156.068 169.122 155.199C170.006 156.068 169.876 153.1 168.982 152.07C169.876 153.1 167.384 154.674 166.34 153.754H166.345Z" fill="currentColor"/>
<path d="M109.2 53.7433C113.53 61.2445 117.356 69.0607 121.592 76.6219C125.692 83.9432 130.122 91.0947 134.593 98.2511C136.481 101.27 138.364 104.288 140.252 107.302C141.231 108.871 142.1 110.53 143.293 111.949C143.853 112.614 144.452 113.244 145.022 113.893C145.591 114.543 146.165 115.168 146.56 115.902C146.64 116.047 146.775 116.387 146.775 116.387C146.775 116.387 146.53 116.202 146.455 116.122C146.35 116.007 146.25 115.882 146.14 115.767C146.001 115.622 145.861 115.473 145.706 115.343C145.626 115.278 145.481 115.138 145.366 115.143C145.301 115.148 145.256 115.248 145.256 115.248C145.256 115.248 149.961 120.735 149.037 120.655C148.113 120.575 149.107 121.834 149.107 121.834L145.586 116.542C145.586 116.542 146.31 117.052 146.585 117.402C147.644 118.746 148.278 120.345 149.102 121.834C149.127 121.879 149.152 121.924 149.177 121.969C150.006 123.424 150.781 124.908 151.59 126.372C153.278 129.441 154.996 132.489 156.749 135.523C160.24 141.555 163.867 147.502 167.623 153.374C164.256 147.157 160.905 140.93 157.583 134.693C154.621 129.136 151.685 123.568 148.708 118.016C148.328 117.312 147.234 116.167 147.234 116.167L147.599 116.032C147.599 116.032 147.209 115.702 147.01 115.532C146.81 115.363 147.109 114.978 147.109 114.978C147.109 114.978 146.925 115.288 146.785 115.203C146.645 115.118 146.67 114.863 146.825 114.808C146.006 113.533 145.181 112.259 144.362 110.985C142.329 107.497 140.222 104.053 138.044 100.65C136.341 97.9962 134.588 93.8733 131.656 92.499C132.155 92.7389 132.24 91.7793 131.941 91.3096C124.094 78.9457 116.502 66.422 109.18 53.7383L109.2 53.7433Z" fill="currentColor"/>
<path d="M169.097 150.898C169.581 151.283 170.53 157.13 169.926 157.34C170.575 157.345 169.331 156.386 167.169 155.051C167.059 154.791 165.66 153.972 164.477 153.647C165.67 153.682 169.581 151.288 169.092 150.903L169.097 150.898Z" fill="currentColor"/>
<path d="M78.2012 203.833C78.6407 202.518 81.0931 201.654 83.5655 200.669C84.5095 199.605 87.0118 198.515 88.8648 197.411C88.76 197.421 91.512 195.772 94.1592 194.133L99.4536 190.854C100.338 190.309 101.227 189.77 102.116 189.235C103.005 188.7 103.899 188.166 104.793 187.636C105.772 187.066 111.336 184.307 108.554 185.592C113.059 183.383 115.462 182.199 110.192 184.507C115.806 182.004 118.498 180.784 113.599 182.953C118.843 180.599 118.663 180.654 112.914 182.968C118.663 180.649 119.552 180.279 115.851 181.824C119.642 180.239 119.352 180.339 114.278 182.203C119.677 180.229 119.897 180.145 115.746 181.544C119.987 180.11 120.117 180.06 118.813 180.549C120.182 180.04 120.222 180.04 122.13 180.329C120.257 180.045 120.237 180.05 121.56 180.534C120.262 180.02 120.356 179.975 123.938 178.131C120.541 179.84 120.496 179.855 123.413 178.19C122.005 178.98 121.485 179.25 121.955 178.895C122.424 178.54 124.397 177.681 126.44 175.842C124.462 177.626 122.664 178.365 122.574 178.415C122.484 178.465 123.598 177.711 125.911 176.142C123.723 177.611 123.218 177.936 123.913 177.426C124.607 176.916 127.948 176.082 129.107 173.733C128.108 175.972 125.736 176.336 125.586 176.241C125.856 176.276 128.453 175.892 129.312 173.668C128.777 175.672 128.213 175.502 128.043 174.562C129.786 174.422 132.828 174.118 131.969 171.874C132.244 174.632 136.859 173.058 135.006 170.319C136.819 171.294 138.317 171.789 138.622 171.879C139.496 171.614 139.541 170.749 138.187 169.105C140.34 170.494 141.764 171.244 141.744 171.609C142.858 171.154 143.002 170.015 141.459 168.2C143.747 169.84 144.825 170.854 144.586 171.469C145.834 170.779 146.189 169.365 144.78 167.546C146.539 169.305 146.644 170.799 145.814 171.654C146.509 171.004 146.209 169.77 144.401 167.951C146.254 169.41 146.614 169.665 145.789 169.66C146.813 168.155 146.958 166.201 145.605 164.632C147.972 166.786 148.621 164.232 147.877 162.009C149.97 163.058 150.899 161.284 150.649 160.01C152.462 160.314 153.431 159.155 153.611 158.365C154.245 158.735 154.23 158.745 153.596 158.375C154.23 158.745 155.689 157.676 155.354 157.211C155.684 157.671 155.794 157.841 155.484 157.401C155.794 157.841 154.385 159.03 153.791 158.65C154.39 159.035 154.385 159.035 153.791 158.65C154.39 159.035 154.38 159.04 153.781 158.655C153.596 159.5 152.647 160.849 150.934 160.434C151.184 161.859 150.31 163.818 148.342 162.508C149.101 164.962 148.527 167.516 146.304 165.037C147.657 166.661 147.483 168.655 146.514 170.155C147.328 170.03 147.078 169.575 145.335 168.046C147.048 169.885 147.173 171.494 146.464 172.373C147.178 171.674 147.028 170.269 145.3 168.38C147.028 170.269 147.103 171.814 146.344 172.598C146.968 171.834 146.718 170.344 144.95 168.445C146.404 170.404 146.104 171.994 144.97 172.703C145.135 172.104 144.066 170.979 141.719 169.175C143.402 171.159 143.372 172.443 142.348 172.928C142.323 172.573 140.875 171.729 138.557 170.14C140.155 171.984 140.29 172.963 139.466 173.248C139.171 173.153 137.578 172.568 135.505 171.374C136.814 172.923 136.245 174.068 135.316 174.417C134.392 174.767 133.043 174.357 132.608 172.918C134.032 175.497 129.477 175.552 127.349 175.987C127.014 177.031 127.259 177.371 128.218 175.712C126.86 177.646 123.773 178.146 123.568 178.335C123.363 178.525 125.711 178.285 127.309 176.816C125.591 178.39 122.744 178.9 122.115 179.285C121.485 179.67 121.9 179.67 123.223 179.47C120.421 180.01 120.386 180.065 122.554 181.439C120.296 180.065 120.286 180.07 122.324 181.684C120.286 180.07 120.272 180.065 121.985 181.649C120.242 180.065 120.207 180.065 119.123 181.849C120.142 180.08 120.027 180.165 116.266 182.758C119.942 180.199 119.747 180.324 114.897 183.368C119.457 180.489 119.717 180.319 116.291 182.583C119.627 180.369 118.818 180.874 113.544 184.123C118.818 180.874 118.978 180.769 114.113 183.798C118.643 180.959 116.131 182.468 110.837 185.627C115.786 182.653 113.519 183.993 109.153 186.556C111.825 184.942 106.411 188.096 105.417 188.665C104.518 189.18 103.619 189.695 102.72 190.215C101.821 190.734 100.922 191.249 100.028 191.769C98.2349 192.808 96.4418 193.853 94.6437 194.892C92.8456 195.932 90.9576 196.971 89.2345 197.986C87.3415 198.995 84.7942 199.99 83.7703 200.979C81.2779 201.874 78.7306 202.633 78.2261 203.818L78.2012 203.833Z" fill="currentColor"/>
<path d="M156.159 159.695C156.388 160.14 158.042 156.122 158.261 155.438C158.042 156.122 154.136 156.322 153.521 155.747C154.136 156.327 156.388 160.145 156.159 159.7V159.695Z" fill="currentColor"/>
<path d="M135.606 249.496C135.096 248.207 136.425 245.968 137.679 243.624C137.719 242.205 138.937 239.756 139.646 237.717C139.572 237.792 140.62 234.758 141.594 231.8L143.542 225.883C143.872 224.898 144.202 223.914 144.541 222.929C144.881 221.945 145.221 220.965 145.565 219.986C145.95 218.921 148.442 213.229 147.134 216.003C149.161 211.415 150.245 208.961 147.688 214.119C150.38 208.591 151.659 205.923 149.301 210.735C151.809 205.558 151.704 205.713 148.787 211.19C151.704 205.718 152.148 204.863 150.3 208.427C152.183 204.773 152.028 205.038 149.336 209.726C152.203 204.743 152.318 204.533 150.035 208.272C152.363 204.444 152.428 204.324 151.749 205.538C152.473 204.269 152.498 204.244 154.146 203.239C152.528 204.224 152.513 204.244 153.841 203.764C152.518 204.209 152.558 204.114 154.116 200.396C152.613 203.889 152.588 203.934 153.757 200.78C153.182 202.29 152.957 202.834 153.092 202.26C153.227 201.685 154.181 199.756 154.566 197.037C154.196 199.681 153.292 201.4 153.262 201.495C153.232 201.59 153.597 200.296 154.361 197.607C153.632 200.141 153.452 200.71 153.657 199.876C153.861 199.041 155.889 196.248 155.26 193.704C155.934 196.058 154.351 197.867 154.171 197.892C154.401 197.742 156.139 195.778 155.37 193.529C156.244 195.408 155.704 195.638 154.975 195.028C156.219 193.799 158.357 191.615 156.254 190.446C158.237 192.38 160.764 188.207 157.582 187.302C159.595 186.887 161.064 186.298 161.358 186.168C161.863 185.403 161.333 184.713 159.241 184.324C161.783 184.004 163.356 183.664 163.576 183.954C164.135 182.884 163.516 181.92 161.169 181.53C163.976 181.315 165.449 181.395 165.664 182.025C166.178 180.695 165.539 179.381 163.291 178.896C165.769 179.116 166.808 180.191 166.723 181.38C166.838 180.436 165.814 179.681 163.261 179.451C165.619 179.376 166.058 179.341 165.424 179.866C165.239 178.057 164.096 176.462 162.053 176.133C165.254 176.258 164.111 173.889 162.108 172.664C164.385 172.12 163.956 170.166 162.947 169.351C164.53 168.416 164.53 166.912 164.155 166.188C164.88 166.063 164.875 166.083 164.15 166.208C164.875 166.083 165.299 164.329 164.75 164.184C165.299 164.324 165.489 164.383 164.97 164.244C165.489 164.383 165.179 166.198 164.475 166.288C165.179 166.198 165.179 166.203 164.475 166.293C165.179 166.203 165.174 166.213 164.475 166.308C164.875 167.072 165.015 168.721 163.436 169.501C164.54 170.435 165.129 172.494 162.787 172.754C164.95 174.149 166.143 176.472 162.852 176.003C164.93 176.378 166.078 178.017 166.303 179.791C166.848 179.171 166.363 178.986 164.046 178.936C166.543 179.241 167.667 180.396 167.692 181.525C167.787 180.53 166.773 179.551 164.235 179.216C166.773 179.551 167.822 180.685 167.747 181.775C167.732 180.79 166.588 179.806 164.011 179.491C166.383 180.056 167.177 181.47 166.758 182.744C166.498 182.18 164.96 182.005 161.998 182.135C164.56 182.574 165.364 183.579 164.89 184.603C164.64 184.344 162.992 184.633 160.195 184.903C162.602 185.288 163.336 185.953 162.892 186.702C162.602 186.817 161.009 187.397 158.656 187.817C160.654 188.162 160.954 189.406 160.464 190.271C159.98 191.13 158.686 191.685 157.428 190.865C160.175 191.925 156.718 194.898 155.37 196.597C155.784 197.612 156.189 197.717 155.859 195.828C156.064 198.182 154.016 200.55 153.981 200.83C153.946 201.11 155.595 199.416 155.874 197.262C155.57 199.571 153.717 201.795 153.477 202.495C153.237 203.194 153.562 202.924 154.446 201.925C152.643 204.144 152.658 204.204 155.2 203.859C152.588 204.259 152.583 204.269 155.18 204.194C152.583 204.269 152.568 204.279 154.895 204.384C152.543 204.294 152.518 204.314 152.828 206.378C152.473 204.369 152.438 204.504 151.224 208.911C152.393 204.588 152.328 204.808 150.565 210.261C152.208 205.123 152.298 204.828 151.129 208.761C152.263 204.918 151.968 205.828 150.015 211.705C151.968 205.823 152.028 205.643 150.245 211.09C151.888 206.003 150.935 208.776 148.912 214.598C150.795 209.136 149.916 211.625 148.217 216.393C149.226 213.439 147.104 219.336 146.709 220.411C146.349 221.385 145.995 222.355 145.64 223.329C145.286 224.304 144.931 225.278 144.576 226.253C143.872 228.202 143.168 230.156 142.459 232.11C141.749 234.059 140.975 236.073 140.301 237.957C139.502 239.946 138.188 242.35 138.033 243.764C136.7 246.053 135.236 248.272 135.611 249.506L135.606 249.496Z" fill="currentColor"/>
<path d="M166.967 165.542C167.427 165.737 166.113 161.594 165.843 160.93C166.118 161.594 163.251 164.258 162.412 164.213C163.251 164.263 167.432 165.737 166.972 165.547L166.967 165.542Z" fill="currentColor"/>
<path d="M208.908 247.559C207.689 246.899 207.269 244.331 206.725 241.727C205.841 240.612 205.207 237.959 204.437 235.935C204.427 236.04 203.284 233.041 202.13 230.153C200.976 227.264 199.822 224.37 199.822 224.37C199.443 223.406 199.063 222.436 198.688 221.467C198.314 220.497 197.944 219.528 197.58 218.553C197.19 217.489 195.442 211.527 196.221 214.495C194.828 209.673 194.083 207.104 195.437 212.691C193.948 206.724 193.214 203.861 194.498 209.063C193.094 203.486 193.114 203.671 194.398 209.743C193.114 203.676 192.905 202.736 193.779 206.654C192.875 202.641 192.925 202.951 193.879 208.268C192.875 202.606 192.825 202.371 193.484 206.704C192.805 202.276 192.78 202.137 193.039 203.511C192.78 202.072 192.78 202.037 193.399 200.208C192.79 202.002 192.795 202.027 193.504 200.807C192.775 201.997 192.745 201.897 191.551 198.049C192.645 201.692 192.65 201.742 191.521 198.573C192.051 200.098 192.23 200.657 191.961 200.133C191.691 199.608 191.186 197.514 189.733 195.185C191.146 197.444 191.561 199.343 191.596 199.438C191.631 199.533 191.082 198.303 189.938 195.755C191.007 198.164 191.231 198.718 190.852 197.949C190.472 197.174 190.232 193.736 188.115 192.187C190.143 193.556 190.093 195.96 189.973 196.095C190.053 195.835 190.128 193.211 188.09 191.977C189.968 192.851 189.703 193.381 188.749 193.381C188.914 191.642 189.144 188.588 186.786 189.048C189.548 189.258 188.804 184.435 185.782 185.785C187.056 184.171 187.805 182.776 187.945 182.491C187.84 181.582 186.996 181.392 185.138 182.441C186.881 180.562 187.865 179.288 188.22 179.368C187.965 178.188 186.866 177.849 184.813 179.058C186.821 177.089 188.005 176.204 188.569 176.544C188.11 175.195 186.776 174.595 184.743 175.675C186.781 174.25 188.27 174.405 188.969 175.37C188.449 174.57 187.181 174.655 185.078 176.12C186.836 174.545 187.151 174.235 187.001 175.05C185.697 173.781 183.799 173.296 182.021 174.36C184.553 172.401 182.151 171.317 179.833 171.667C181.227 169.788 179.644 168.563 178.35 168.588C178.964 166.854 177.995 165.7 177.246 165.385C177.721 164.825 177.731 164.84 177.251 165.405C177.726 164.845 176.927 163.221 176.412 163.466C176.927 163.221 177.106 163.141 176.622 163.371C177.111 163.141 178.035 164.735 177.556 165.255C178.035 164.735 178.04 164.735 177.556 165.26C178.035 164.735 178.04 164.75 177.556 165.275C178.355 165.605 179.519 166.774 178.815 168.388C180.258 168.388 182.036 169.588 180.408 171.302C182.955 170.977 185.368 171.992 182.546 173.751C184.379 172.701 186.312 173.216 187.62 174.435C187.64 173.616 187.151 173.781 185.343 175.235C187.45 173.866 189.054 174.021 189.798 174.875C189.233 174.051 187.825 173.956 185.667 175.325C187.825 173.951 189.358 174.146 190.003 175.025C189.358 174.28 187.85 174.265 185.677 175.68C187.86 174.585 189.373 175.16 189.873 176.399C189.313 176.135 188.02 176.989 185.837 178.993C188.08 177.679 189.343 177.934 189.638 179.023C189.283 178.983 188.2 180.267 186.237 182.271C188.329 181.017 189.318 181.052 189.458 181.917C189.313 182.192 188.464 183.656 186.926 185.495C188.679 184.475 189.708 185.235 189.888 186.209C190.068 187.184 189.433 188.438 187.94 188.618C190.727 187.664 189.988 192.162 190.043 194.335C191.012 194.845 191.391 194.665 189.923 193.431C191.591 195.105 191.546 198.234 191.701 198.468C191.856 198.703 192.026 196.349 190.857 194.515C192.105 196.484 192.115 199.373 192.385 200.063C192.655 200.752 192.725 200.337 192.76 199.003C192.805 201.862 192.855 201.902 194.578 200.003C192.83 201.987 192.84 202.002 194.778 200.272C192.835 202.002 192.83 202.017 194.683 200.602C192.82 202.047 192.815 202.082 194.383 203.461C192.82 202.147 192.885 202.276 194.783 206.429C192.905 202.366 192.99 202.576 195.142 207.884C193.099 202.891 192.98 202.606 194.613 206.374C193.014 202.701 193.369 203.586 195.652 209.348C193.369 203.586 193.294 203.411 195.432 208.733C193.424 203.776 194.473 206.514 196.666 212.277C194.598 206.884 195.522 209.353 197.29 214.096C196.161 211.182 198.329 217.064 198.713 218.144C199.063 219.118 199.413 220.093 199.767 221.067C200.122 222.042 200.477 223.016 200.831 223.991C201.545 225.94 202.26 227.889 202.969 229.838C203.678 231.787 204.377 233.831 205.072 235.705C205.736 237.744 206.27 240.427 207.07 241.612C207.519 244.226 207.819 246.864 208.903 247.569L208.908 247.559Z" fill="currentColor"/>
<path d="M179 163.075C179.479 162.925 175.808 160.597 175.174 160.262C175.813 160.597 175.329 164.48 174.654 164.984C175.329 164.48 179.479 162.925 179 163.075Z" fill="currentColor"/>
<path d="M118.469 156.301C116.117 156.871 115.173 157.131 114.993 157.061C114.583 156.861 114.908 156.336 116.057 154.912C114.608 156.226 113.465 156.761 112.071 156.581C111.532 156.446 110.598 155.551 109.374 153.143C110.273 155.461 110.258 156.381 108.924 156.671C109.334 156.976 108.165 156.656 105.508 155.831C108.465 157.191 107.556 156.886 104.629 156.026C106.162 156.501 105.758 156.481 104.264 156.341C104.784 156.296 103.45 155.986 102.471 155.916C101.852 155.551 99.5944 155.012 99.3396 155.057C97.7663 154.507 96.2729 154.127 97.8712 154.232C95.6885 153.787 94.1202 153.472 94.9593 153.627C92.9314 152.943 92.1672 152.463 92.9764 151.898C91.5029 152.283 89.7248 151.493 88.4961 150.284C86.4183 149.619 84.4804 148.315 82.8072 147.016C86.5732 149.999 86.5432 150.284 85.3295 149.529C84.9399 149.699 83.1668 148.755 81.6934 147.88C82.942 148.72 85.3145 149.864 81.7133 148.265C82.947 148.975 84.9349 149.879 85.4344 149.984C86.713 150.784 86.713 150.894 81.9731 149.045C83.956 149.954 84.2307 150.224 82.2927 150.024C84.84 150.574 85.2346 150.679 83.3466 150.399C85.6142 151.074 87.5072 151.134 83.956 152.838C85.2746 151.973 86.9478 152.418 88.9656 153.657C89.9296 153.687 91.5779 154.747 92.5668 155.966C91.8676 154.612 90.7438 154.442 91.1933 157.181C90.9136 154.582 91.2482 154.472 93.326 156.511C91.463 154.702 91.428 155.102 92.5119 157.78C91.5179 155.182 91.6828 154.902 93.7805 156.671C91.6478 154.782 91.5978 155.147 92.9314 157.845C91.8376 155.456 93.7256 156.166 95.9982 157.965C93.8405 156.301 92.1123 155.761 93.4559 158.01C92.0923 155.721 93.7855 156.206 95.9532 157.875C93.8704 156.226 92.2871 155.781 93.7905 157.985C92.412 155.901 94.1851 156.506 96.168 158.08C94.2251 156.351 92.4919 155.601 94.0452 157.69C92.3321 155.262 93.8055 155.601 95.9632 157.37C93.8255 155.631 92.387 155.321 94.1152 157.715C92.5818 155.706 94.3299 156.496 96.193 158.165C94.31 156.666 92.5368 156.046 93.9054 158.015C92.392 155.881 93.9404 156.296 95.9682 157.885C93.8704 156.286 92.2372 155.851 93.6507 158.05C92.3071 155.966 94.0552 156.551 96.0781 158.11C93.9404 156.406 92.0324 155.646 93.1961 157.9C91.7477 155.262 91.7527 154.852 93.8804 156.696C91.8076 154.917 91.8676 155.401 93.336 157.935C92.1173 155.716 93.8804 156.296 95.9682 157.875C93.9653 156.316 92.4819 155.976 94.0053 158.075C92.7067 156.301 94.5297 157.041 96.2279 158.41C94.6496 156.981 94.4099 156.881 95.7634 158.47C94.8644 157.79 93.341 156.416 94.0752 156.681C92.372 155.097 92.8765 155.012 96.2279 157.635C94.5247 156.376 95.0242 156.566 96.7574 157.86C95.3539 156.306 95.5137 156.161 97.2269 157.276C95.6386 155.716 95.7434 155.436 97.7363 156.166C95.8533 155.771 95.8583 156.306 97.1719 157.655C95.7235 156.576 95.4587 156.281 97.082 156.976C95.3988 156.356 95.7035 157.086 96.8573 158.445C95.9682 157.785 96.0281 157.835 96.9322 158.475C95.8933 157.211 95.6785 156.481 97.3318 156.806C95.7335 156.326 96.128 157.081 97.2618 158.38C96.6425 158.005 97.2119 158.4 98.066 159.14C98.066 158.54 99.5644 157.925 100.883 156.766C100.044 157.855 99.7242 158.59 100.064 159.27C100.244 158.915 101.777 158.685 102.476 158.405C101.697 158.785 100.134 159.12 100.044 159.629C99.8441 159.085 100.888 158.645 101.917 157.87C100.578 158.845 99.005 159.469 99.2797 160.219C99.1748 159.789 101.228 159.574 102.636 159.175C101.597 159.539 100.279 159.819 100.339 160.399C100.558 159.959 102.301 159.869 103.056 159.924C102.301 159.869 100.573 159.969 100.364 160.469C100.339 159.954 101.757 159.819 102.811 159.699C101.397 159.924 100.563 160.064 101.043 160.569C102.052 160.144 105.029 160.089 106.147 160.669C105.383 160.164 104.229 160.224 103.56 160.649C104.454 160.299 105.818 160.314 106.322 160.939C105.798 160.384 103.245 160.634 101.757 161.618C101.213 161.738 100.788 162.988 101.567 164.932C100.858 163.677 99.5045 162.868 99.01 163.133C98.4556 162.448 98.041 162.613 98.3307 163.532C97.9761 163.372 97.8662 163.917 97.9761 164.767C97.8512 164.922 98.1059 165.756 98.5704 166.286C98.1359 165.731 97.9461 165.032 98.0959 165.007C98.036 164.427 98.2558 164.307 98.5405 164.707C98.4206 164.427 98.4656 164.727 98.5754 165.282C98.6254 165.386 98.8751 165.976 99.1598 166.421C98.8402 166.101 98.5505 165.666 98.5205 165.551C98.3407 165.212 98.2957 165.032 98.4556 165.237C97.9861 164.967 97.5815 165.012 97.6764 165.331C97.3617 165.496 97.5315 166.076 98.1559 166.346C97.3517 166.026 96.9222 165.336 97.1769 165.162C96.9372 164.742 97.3018 164.627 97.9661 164.912C97.1619 164.622 96.5975 164.697 96.7773 165.122C96.4077 165.297 96.7873 166.006 97.6864 166.271C96.7524 166.001 96.2579 165.601 96.4877 165.566C96.153 165.931 96.5326 166.726 97.4966 166.801C96.5126 166.821 96.1131 166.121 96.4777 165.616C96.2829 165.586 96.8473 165.601 97.8212 165.616C96.8722 165.451 96.3228 165.247 96.5626 165.346C96.2379 165.521 96.7074 166.086 97.6814 166.256C96.7724 166.046 96.3828 165.441 96.7424 165.272C96.5476 165.062 97.122 165.167 97.9811 165.396C97.2319 165.292 96.8323 165.366 97.092 165.506C96.7923 165.881 97.2069 166.481 98.086 166.551C97.1919 166.521 96.7674 165.971 97.067 165.581C96.7923 165.541 97.1919 165.531 97.9761 165.581C97.077 165.431 96.4976 165.282 96.7024 165.381C96.3428 165.606 96.7424 166.156 97.6764 166.281C96.7174 166.001 96.208 165.576 96.4277 165.551C96.0881 165.916 96.4627 166.746 97.4117 166.851C96.3728 166.906 95.8933 166.431 96.0531 166.031C95.7734 166.631 96.1081 167.336 96.9721 167.251C95.9982 167.685 95.5986 167.365 95.5137 166.776C95.4238 167.625 95.6635 168.25 95.9832 168.23C95.5736 168.53 95.2939 168.27 94.8644 167.725C95.1241 168.5 95.249 169.03 94.8494 169.315C94.8893 169.419 93.9304 170.824 92.5518 172.583C91.1733 174.342 89.3952 176.526 87.8768 178.36C86.3584 180.199 85.0947 181.693 84.7451 182.083C85.4394 181.933 100.958 163.517 84.4954 183.627C104.209 160.679 84.7901 184.237 84.4404 184.687C87.2075 181.688 94.5247 172.448 84.9149 186.201C85.6542 185.322 93.2261 173.622 91.8026 179.12C92.2571 178.425 93.4309 176.321 94.6796 174.322C95.9282 172.323 97.2518 170.439 98.016 170.189C97.8512 169.544 98.7253 168.81 99.8691 167.99C100.279 167.5 101.392 166.581 101.812 166.191C103.001 165.222 104.244 164.217 104.294 164.097C105.568 163.103 106.342 162.478 105.693 162.983C107.156 161.883 107.456 161.723 106.087 163.083C108.37 160.944 109.084 160.269 106.862 162.778C108.944 160.809 109.938 159.944 109.804 160.609C111.087 160.079 111.477 160.944 111.766 163.567C111.736 160.719 112.216 159.434 112.73 159.235C113.849 158.13 115.128 157.915 117.091 158.115C115.353 157.695 114.823 157.56 115.148 157.505C115.198 157.156 116.142 156.876 118.489 156.306L118.469 156.301Z" fill="currentColor"/>
<path d="M265.333 109.712C264.204 110.037 263.19 110.547 263.51 110.387C262.101 110.942 261.432 111.172 262.031 110.827C260.852 111.281 260.698 111.261 261.746 110.642C261.032 110.912 261.761 110.457 263.505 109.457C262.026 110.177 260.113 111.122 260.273 110.907C259.089 111.566 258.565 111.816 258.954 111.521C258.26 111.961 258.435 111.876 259.479 111.276C258.165 111.986 256.812 112.586 257.146 112.296C255.913 112.771 255.293 112.971 256.112 112.566C255.134 113.221 255.029 113.255 255.948 112.601C255.328 113.036 256.402 112.426 257.746 111.421C256.382 112.376 255.353 112.906 255.928 112.271C255.059 112.931 255.253 112.696 256.077 111.581C255.488 112.401 256.152 111.866 257.031 110.717C256.927 111.062 257.886 110.092 258.78 108.808C258.015 109.947 257.326 110.662 257.396 110.287C256.642 111.336 256.018 111.836 256.452 110.987C255.298 112.581 254.519 113.206 255.059 112.296C254.454 113.335 255.079 112.991 256.652 111.586C255.508 112.656 254.354 112.901 254.659 112.366C253.69 113.815 254.035 112.631 254.145 112.021C253.855 112.886 253.715 112.906 253.535 112.016C253.7 112.731 253.93 112.586 254.444 111.496C254.219 112.286 254.674 111.751 255.408 110.077C254.654 111.731 254.175 112.246 254.299 111.351C253.82 112.476 253.56 112.576 253.116 111.551C253.455 112.646 252.941 113.385 252.032 111.626C252.791 112.791 252.861 112.236 252.376 110.357C252.866 111.446 252.821 109.847 252.321 107.913C252.811 109.847 252.846 111.436 252.321 110.337C252.811 112.216 252.726 112.756 251.857 111.566C252.796 113.325 252.781 113.52 251.752 112.321C252.671 113.315 252.776 113.146 252.316 111.736C252.846 112.736 252.866 111.916 252.341 109.872C252.836 111.911 252.786 112.731 252.122 111.721C252.626 113.136 252.466 113.305 251.263 112.341C252.426 113.525 252.072 113.29 250.269 111.741C251.667 112.751 251.328 112.161 249.829 110.492C250.938 111.406 250.034 109.927 248.81 108.408C250.054 110.452 250.473 111.431 248.765 110.292C250.034 111.416 249.03 110.582 247.462 109.392C248.211 109.702 247.901 109.837 246.792 109.133C247.287 109.163 246.787 108.733 245.813 108.088C246.842 109.987 243.531 107.423 242.197 107.154C241.408 107.129 239.815 106.189 238.851 106.054C236.923 105.789 235.29 105.559 234.131 105.399L232.303 105.145C232.303 105.145 233.157 105.829 234.44 106.859C235.08 107.373 235.829 107.973 236.628 108.618C237.427 109.262 238.371 109.962 239.14 110.632C240.074 111.326 243.541 112.676 241.653 112.646C243.401 113.156 246.023 113.655 245.344 113.925C247.257 114.205 246.518 114.385 243.84 114.405C245.284 114.425 246.952 114.45 245.898 114.6C247.906 114.54 249.065 114.53 247.377 114.75C249.864 114.615 250.483 114.61 248.301 115.03C250.274 114.71 249.874 114.79 247.666 115.2C249.37 114.885 248.111 115.105 246.043 115.464C248.136 115.115 249.559 114.88 247.906 115.235C250.189 114.805 250.713 114.72 248.855 115.16C251.148 114.68 251.123 114.715 248.83 115.339C250.673 114.855 250.104 115.015 247.851 115.619C249.455 115.19 247.976 115.589 245.973 116.119C247.976 115.589 249.46 115.19 247.856 115.629C250.109 115.025 250.683 114.875 248.855 115.399C251.148 114.775 251.203 114.79 249 115.554C250.818 114.975 250.344 115.165 248.166 115.964C249.774 115.419 248.466 115.939 246.468 116.704C248.451 115.959 249.634 115.504 248.011 116.109C250.129 115.329 250.513 115.195 248.67 115.939C250.773 115.175 250.389 115.674 248.216 116.904C249.814 116.159 248.9 116.749 247.107 117.818C248.166 117.328 246.732 118.288 245.469 119.118C247.267 118.008 248.58 117.259 247.312 118.203C248.77 117.448 247.956 118.288 246.652 119.497C247.097 119.502 245.853 120.807 244.874 121.951C246.762 120.517 244.525 124.01 244.2 125.205C243.99 126.574 243.586 128.158 243.311 129.467C242.767 132.091 242.357 134.06 242.357 134.06L243.636 132.726C244.44 131.881 245.584 130.687 246.927 129.283C247.606 128.563 248.481 127.533 249.075 127.034C249.959 125.984 251.048 122.256 251.427 124.575C251.762 123.465 251.892 122.781 251.542 123.086C251.952 121.836 252.087 120.822 251.647 121.611C252.192 119.657 252.491 118.058 252.092 119.792C252.701 117.958 252.831 118.033 252.621 119.907C253.106 118.393 253.335 119.447 253.33 121.311C253.39 119.337 253.191 117.673 252.856 119.033C253.036 116.859 252.931 116.244 252.396 117.823C252.931 115.589 253.066 115.24 252.826 116.769C253.226 115.379 253.47 115.419 253.94 116.729C253.85 115.629 254.409 116.214 255.248 118.028C254.429 116.194 253.9 115.589 254.08 116.599C253.58 115.324 253.37 115.254 253.211 116.479C253.335 115.03 253.46 115.145 253.705 116.954C253.72 115.599 254.11 115.919 254.844 117.563C254.599 116.464 255.528 117.633 256.327 119.447C255.528 117.628 254.604 116.449 254.869 117.523C254.13 115.884 253.745 115.539 253.795 116.814C253.525 115.025 254.529 115.195 254.899 116.144C254.649 115.2 254.929 115.14 256.008 115.679C255.358 115.12 256.057 115.25 257.651 116.009C256.062 115.225 255.368 115.075 256.038 115.499C254.959 115.01 254.674 115.015 254.979 115.574C254.589 114.88 253.67 114.435 254.19 114.725C253.935 114.425 254.384 114.345 255.493 114.385C254.959 114.275 256.033 114.185 257.551 114.26C255.493 114.195 254.774 114.27 255.823 114.565C254.894 114.305 255.853 114.295 257.681 114.63C256.837 114.37 257.596 114.355 258.81 114.57C258.53 114.405 259.519 114.475 260.827 114.74C259.439 114.455 258.405 114.365 258.715 114.49C257.511 114.27 256.867 114.26 257.756 114.425C256.023 114.14 255.413 114.115 256.647 114.05C255.608 114.01 255.773 113.93 256.912 113.74C256.222 113.765 257.366 113.505 258.765 113.245C256.832 113.56 256.522 113.585 258.055 113.211C257.191 113.365 257.701 113.211 258.79 112.931C258.54 112.956 259.439 112.696 260.797 112.326C260.653 112.316 262.411 111.806 264.119 111.291C262.156 111.791 261.307 111.976 262.021 111.676C260.837 111.966 260.892 111.656 262.066 111.147C261.417 111.351 262.086 111.062 263.495 110.472C263.165 110.582 264.189 110.057 265.318 109.732L265.333 109.712Z" fill="currentColor"/>
<path d="M220.901 128.032C220.956 127.947 220.761 128.057 220.361 128.317C220.546 128.297 220.751 128.242 220.901 128.032Z" fill="currentColor"/>
<path d="M236.23 126.051C235.067 123.242 234.877 123.442 235.471 126.29C234.772 123.737 233.528 124.356 231.695 127.06C230.606 126.68 229.373 126.825 228.029 127.25C226.686 127.675 225.232 128.374 223.704 129.114C219.159 130.853 215.552 133.712 211.167 135.571C209.114 136.445 207.226 137.15 205.673 137.935C203.765 138.749 201.982 139.509 200.269 139.694C198.52 139.484 196.508 139.909 196.213 139.309C195.708 141.123 196.982 141.758 198.75 142.143C199.584 142.897 200.913 143.407 202.232 143.967C203.665 144.082 205.273 144.217 206.877 144.356C211.686 144.766 216.461 145.196 216.461 145.196C216.461 145.196 211.766 144.521 207.056 143.812C205.488 143.577 203.915 143.337 202.516 143.112C200.958 142.367 199.534 141.663 198.71 141.038C197.457 140.603 196.802 140.249 197.432 139.854C196.732 140.129 199.145 140.224 202.431 139.604C203.905 138.849 205.633 137.98 207.501 137.155C211.507 135.666 215.103 133.922 219.188 131.528C220.217 130.943 221.206 130.338 222.24 129.804C223.294 129.294 224.333 128.794 225.337 128.304C228.354 126.845 231.076 125.531 233.413 126.77C234.997 123.627 236.19 123.037 237.089 125.776C235.901 122.932 235.636 122.957 236.24 126.036L236.23 126.051Z" fill="currentColor"/>
<path d="M244.64 121.593C242.607 119.589 242.418 119.789 243.931 122.148C243.117 121.128 242.093 120.928 240.924 121.568C239.76 122.148 238.447 123.572 237.058 125.801C232.478 124.961 227.578 127.355 222.689 129.754C221.06 130.554 219.517 131.468 217.969 132.318C215.102 133.927 212.404 135.236 209.298 136.511C208.054 137.045 206.955 137.505 206.056 137.96C204.258 138.869 203.189 139.429 203.209 139.474C203.344 139.754 203.544 139.939 203.809 140.034C204.073 140.129 204.343 140.104 204.628 139.969C204.912 139.834 205.077 139.644 205.162 139.379C205.247 139.119 205.222 138.844 205.087 138.565C205.072 138.53 205.557 138.08 206.436 137.425C212.424 133.002 220.501 130.199 224.512 123.262C225.351 122.328 226.005 121.583 227.099 121.408C229.287 121.063 231.584 122.258 234.186 126.331C234.431 121.928 234.816 118.809 234.896 118.809C236.229 115.086 237.258 114.482 238.047 119.149C240.35 115.761 242.403 117.645 245.185 120.968C244.121 119.744 243.217 118.705 242.443 117.925C242.782 117.52 242.802 117.25 242.228 117.075C241.274 116.686 238.916 116.686 238.617 119.154C239.071 116.98 240.595 116.85 241.264 117.26C241.933 117.67 243.202 119.259 244.84 121.258C241.843 117.5 243.017 119.389 244.63 121.593H244.64Z" fill="currentColor"/>
<path d="M198.06 131.892C197.256 131.472 196.806 131.692 196.137 131.457C206.611 133.601 216.73 128.139 223.313 119.953C224.402 122.202 224.157 123.986 224.127 126.22C226.17 123.561 226.879 120.443 228.927 117.804C230.525 115.71 232.124 114.326 232.183 117.125C233.077 116.05 233.987 115.32 234.891 114.936C237.683 114.096 241.239 115.705 239.631 119.264C243.022 115.955 248.591 117.14 252.842 116.75C252.162 117.634 251.927 118.304 251.028 118.739C252.392 116.97 254.854 116.33 256.003 114.106C253.771 114.076 251.738 115.615 249.94 116.49C251.288 115.835 253.086 114.966 254.435 114.311C251.738 115.62 249.026 118.044 245.894 118.449C249.475 117.824 251.957 116.065 254.884 114.091C253.536 114.746 252.622 116.3 251.058 116.5C255.104 114.541 258.496 111.228 261.003 107.239C261.397 111.492 257.801 113.237 255.758 115.89C258.92 113.246 261.642 109.708 263.92 106.38C264.779 109.298 263.181 111.737 261.587 114.176C262.966 111.287 265.238 107.964 263.715 104.816C261.208 108.809 258.92 113.247 254.64 115.875C257.567 113.901 259.395 110.793 261.887 107.919C260.948 111.707 258.236 114.131 256.193 116.79C258.021 113.681 262.067 111.722 262.336 107.704C260.743 110.143 258.915 113.252 256.438 115.006C261.847 111.272 263.495 104.366 263.8 98.109C265.978 102.607 264.574 107.729 262.281 112.172C266.367 106.86 265.788 99.9231 265.638 93.8861C268.944 97.2795 269.109 102.202 269.049 106.67C269.799 100.198 268.55 93.0316 263.24 88.9386C267.896 91.6772 270.058 97.2944 270.438 102.662C270.303 95.5053 266.357 89.6483 261.278 84.8906C266.372 88.5288 270.548 93.7262 270.912 100.213C270.533 94.8457 267.021 89.8831 262.816 86.9246C267.461 90.7827 270.957 96.8597 270.653 103.117C270.942 97.9791 268.78 92.3619 264.12 89.6233C267.401 95.2505 268.43 101.972 267.011 108.209C267.751 102.852 268.285 95.9301 262.971 91.8422C266.917 97.7042 266.822 105.525 263.615 111.517C265.453 107.294 266.862 102.172 265.798 97.6892C267.975 102.187 266.572 107.309 264.729 111.532C266.567 107.309 267.526 102.402 265.113 98.5738C264.594 104.381 263.405 109.953 259.335 114.146C262.726 110.838 263.9 106.38 265.074 101.927C265.468 106.18 264.075 110.183 262.017 113.956C263.161 111.737 263.64 109.283 264.784 107.06C261.188 108.804 260.683 113.491 257.087 115.231C258.68 112.792 261.827 111.267 261.203 107.684C259.365 111.907 255.319 113.866 252.157 116.51C252.837 115.625 253.286 115.405 254.185 114.971C252.182 114.276 251.038 116.495 248.786 116.875C247.088 117.454 244.75 117.899 244.63 118.734C243.731 116.435 250.359 115.95 250.284 115.495C250.209 115.041 248.306 115.38 243.801 116.055C245.225 115.625 244.141 115.635 241.254 115.56C239.81 115.525 238.327 115.54 237.113 115.81C236.204 116.245 235.46 116.92 234.961 117.864C235.295 112.862 233.727 114.651 231.849 117.979C231.334 118.784 230.74 119.973 230.101 121.462C229.461 122.952 228.777 124.741 228.083 126.745C226.599 124.461 225.536 119.978 224.636 120.413C217.674 123.232 212.444 130.763 203.953 131.572C199.993 131.927 198.055 131.887 198.055 131.887L198.06 131.892Z" fill="currentColor"/>
<path d="M190.538 141.72C180.958 146.992 182.222 145.778 191.407 137.597C184.839 143.624 186.188 142.689 192.576 137.002C185.524 142.459 183.95 143.499 189.999 136.512C181.013 145.753 179.66 146.967 184.485 137.687C177.992 146.388 177.842 144.653 179.72 131.715C178.111 141.195 178.526 139.466 180.769 130.341C178.191 139.346 177.717 141.24 178.551 131.695C177.222 145.093 170.35 139.086 171.174 130.375C168.447 139.736 167.233 138.381 160.001 126.777C165.26 135.448 164.501 133.874 159.511 125.078C164.156 134.319 164.975 136.003 158.817 127.837C167.053 139.161 168.322 140.63 167.712 137.512C167.847 142.519 164.176 150.845 150.181 147.927C160.615 149.791 158.837 148.986 148.463 145.643C158.722 149.321 160.555 150.236 150.031 149.756C164.391 151.57 168.287 143.419 173.097 148.636C168.716 144.878 165.195 154.374 153.787 162.844C161.719 155.783 159.866 156.263 149.911 160.8C159.866 156.263 161.939 155.953 155.101 164.234C165.914 154.998 169.71 145.783 178.541 153.489C170.929 146.582 168.182 156.817 165.62 170.161C166.074 159.916 164.831 161.355 160.54 170.595C171.414 150.825 165.869 147.782 167.493 170.146C168.916 156.323 178.571 153.884 190.803 158.322C180.354 154.129 173.821 147.962 179.625 159.596C174.106 151.71 174.081 153.664 176.173 162.764C174.305 153.559 174.555 151.495 181.018 158.716C174.55 147.472 181.143 153.474 192.846 154.044C182.392 152.035 183.775 153.169 194.709 158.916C186.198 155.883 187.237 157.462 194.109 162.694C187.127 157.237 186.033 155.548 195.003 157.922C183.676 152.39 182.407 150.92 193.001 146.602C182.647 149.691 184.38 149.546 196.407 148.137C187.841 149.531 189.574 149.666 197.885 149.841C189.684 149.891 187.681 149.196 196.112 146.687C183.086 148.481 180.279 148.716 190.548 141.72H190.538Z" fill="currentColor"/>
<path d="M184.435 100.787C185.978 98.928 186.742 98.0634 186.692 98.1284C186.642 98.1934 185.778 99.1929 184.205 101.127C185.743 99.3278 186.603 98.3933 186.657 98.3283C186.712 98.2633 185.968 99.0679 184.435 100.787Z" fill="currentColor"/>
<path d="M189.929 95.9506C191.237 94.9661 191.697 93.6318 192.83 92.5273C191.252 93.8467 190.118 94.9511 189.204 96.5054C190.333 95.4009 191.247 93.8467 192.596 93.197C191.247 93.8517 190.553 95.8557 189.419 96.9551C190.098 96.0706 190.563 94.7362 191.911 94.0816C190.768 96.3005 188.52 97.3899 187.376 99.6138C187.826 99.3939 188.505 98.5094 188.74 97.8447C188.26 100.298 186.232 101.838 185.538 103.842L185.768 103.172C180.753 111.153 182.876 120.124 186.897 128.225C185.648 129.089 184.11 130.373 183.985 129.609C184.759 131.728 186.048 131.238 187.636 130.084C188.55 130.209 189.204 130.304 190.293 130.448C194.584 130.558 199.049 130.613 203.08 129.769C197.715 130.149 191.896 130.743 186.767 129.444C185.513 130.129 184.804 130.324 185.154 129.279C184.674 130.279 186.302 128.824 187.886 127.605C182.441 119.224 181.018 108.255 187.596 100.069C186.697 100.503 186.467 101.173 186.232 101.838C187.596 100.069 188.96 98.2945 190.103 96.0756C189.424 96.9601 188.74 97.8447 188.06 98.7343C189.874 96.7452 190.348 94.2915 192.666 92.9971C192.96 92.5773 192.111 93.4969 189.929 95.9606V95.9506Z" fill="currentColor"/>
<path d="M196.877 91.6517C197.042 86.6742 197.112 85.1649 197.291 81.2969C196.882 85.2549 196.577 86.8591 195.134 92.0465C196.447 87.149 196.637 85.7996 196.502 82.6212C196.577 84.2904 196.567 85.4998 196.387 86.9641C196.208 88.4283 195.858 90.1175 194.994 92.2064C195.878 90.1924 196.233 88.7482 196.352 87.8486C196.472 86.9491 196.377 86.6342 196.133 86.3494C196.248 87.2789 196.223 88.2384 195.948 89.9076C195.808 90.7422 195.478 91.4368 194.984 92.3064C194.385 93.4508 193.256 94.5503 192.571 95.4398C193.021 95.2199 193.251 94.5553 193.7 94.3354C192.337 96.1045 190.973 97.8786 189.829 100.098C190.059 99.4278 189.844 98.9781 190.743 98.5433C184.83 106.964 183.791 118.573 188.81 127.799C184.24 118.353 184.405 104.945 192.322 97.2239C191.872 97.4438 191.423 97.6587 191.193 98.3284C192.771 97.009 193.471 95.005 194.829 93.2309L194.365 94.5653C195.508 92.3464 196.872 90.5723 196.782 88.5133C197.097 86.5892 197.346 85.1799 197.671 83.4658C197.276 85.6597 197.187 86.6242 196.867 91.6567L196.877 91.6517Z" fill="currentColor"/>
<path d="M213.889 38.9546C212.056 38.23 209.604 37.7552 210.013 40.8887C206.967 34.5918 201.452 28.9346 194.315 27.9501C197.012 26.6408 199.26 25.5513 202.162 25.8162C199.495 24.8866 196.563 26.8656 194.315 27.9501C200.768 29.8192 206.977 33.4723 209.579 39.9891C209.649 34.4019 204.559 30.7637 201.932 26.4808C204.165 26.5108 209.724 28.8147 209.129 24.9216C208.91 23.3574 208.565 21.8182 208.085 20.3289C206.647 15.8661 204.015 11.8631 200.139 9.01953C204.269 12.2029 207.386 16.8606 208.745 22.093C209.084 23.4024 209.314 24.7467 209.409 26.096C207.271 28.3299 204.834 26.7357 202.601 26.7107C212.296 37.5603 214.069 56.1361 201.432 65.6313C199.974 66.8507 199.125 67.7353 198.266 68.5299C196.673 70.4489 194.7 71.6633 191.743 70.9987C197.057 70.9787 198.815 69.4644 198.93 68.0101C198.62 70.5039 196.668 73.0626 191.973 72.363C195.169 75.1466 195.624 74.6768 194.824 70.7638C194.989 75.6264 193.905 77.0556 190.414 73.7973C193.831 77.6403 193.521 78.43 189.765 75.1666C191.883 81.1036 191.143 82.2431 185.569 80.1241C189.35 84.9467 188.296 86.5059 181.489 88.1201C186.678 88.9647 185.754 90.379 180.135 93.4275C183.511 93.7723 182.193 95.7513 179.126 98.6749C178.467 101.344 176.294 104.602 174.741 106.931C173.187 109.26 172.258 110.659 172.258 110.659L171.359 112.663L174.211 108.845C175.964 106.496 178.377 103.263 179.711 100.674C182.328 97.9802 183.696 96.1411 181.004 96.5259C186.234 92.8378 187.397 91.3685 182.662 91.6184C190.03 87.8453 191.493 85.7913 188.187 81.6434C193.351 84.2071 193.736 84.6818 189.255 85.8613C194.4 84.7918 195.284 82.8578 195.144 75.9862C196.478 80.5239 196.787 80.1241 196.697 74.9117C198.436 78.32 198.655 79.9542 200.414 79.2396C198.615 81.2885 198.86 79.0746 198.481 74.8817C198.88 77.7653 199.674 75.8163 200.848 71.1486C199.989 75.0816 199.509 76.301 198.975 74.0221C199.964 75.9462 201.417 73.1476 203.58 69.3995C204.21 69.9192 205.553 69.4894 207.696 69.5744C208.835 71.3935 210.773 73.7323 214.559 76.8757C210.937 72.9427 209.244 69.7393 207.786 67.7103C206.127 66.0611 204.709 65.5863 202.886 66.0561C200.903 67.1106 198.521 69.1046 194.72 69.1646C196.268 69.1646 197.582 68.5549 198.73 67.6753C209.749 62.1181 211.702 48.9546 211.926 37.6952C212.391 38.0851 213.165 38.8347 213.889 38.9546Z" fill="currentColor"/>
<path d="M155.026 97.6355C154.711 97.1108 154.721 97.3607 154.901 98.0753C154.911 97.5956 154.986 97.3257 155.026 97.6355Z" fill="currentColor"/>
<path d="M162.258 121.363C162.762 122.897 162.812 122.287 162.762 120.528C163.142 120.118 163.426 118.564 163.856 116.695C163.371 115.111 162.812 113.262 162.213 111.278C161.219 107.974 160.125 104.301 159.101 100.883C158.591 99.1737 158.097 97.5245 157.817 96.2801C157.198 94.541 156.783 93.2116 158.132 94.3161C156.933 91.9973 156.224 90.478 156.199 91.4975C156.084 89.9933 156.654 91.0227 158.022 93.8014C156.579 91.1577 155.849 89.9033 155.849 91.3976C155.789 90.0232 156.464 91.3976 157.812 94.0112C156.544 91.6974 155.949 90.593 156.039 91.6524C156.064 90.6279 156.773 91.7624 158.107 93.9213C156.918 91.8423 156.444 91.1827 156.504 92.0622C156.514 91.8273 157.058 93.1317 157.912 94.9908C157.398 95.2157 157.987 97.1747 158.631 99.3336C159.92 103.646 161.443 108.759 162.777 113.202C163.207 115.256 163.526 117.19 163.242 119.044C162.098 120.878 163.187 123.127 161.339 122.372C163.731 124.251 164.31 122.862 164.6 120.373C165.414 120.093 165.939 118.709 167.082 117.849C168.121 116.31 168.751 114.716 169.315 113.137C170.554 108.469 171.802 103.841 171.802 103.841C171.802 103.841 170.324 108.349 168.806 112.867C168.171 114.401 167.532 115.935 166.473 117.425C165.414 118.914 164.52 120.268 163.646 120.418C163.242 122.247 162.852 122.867 162.263 121.368L162.258 121.363Z" fill="currentColor"/>
<path d="M139.582 51.9796C142.579 55.4629 143.553 56.7622 141.081 51.6198C143.108 56.1525 142.729 57.252 138.568 54.6733C141.001 57.5219 139.657 56.6923 136.945 54.3684C139.263 57.5468 140.426 59.316 137.095 57.0121C141.965 59.8657 142.344 58.6413 139.927 52.7992C143.123 60.4804 143.523 63.5439 136.001 61.1451C143.248 64.3685 142.574 62.1246 138.453 54.4634C141.51 60.4554 141.53 63.9137 134.423 66.3824C140.741 70.2155 139.927 73.0591 135.132 76.9722C137.22 78.0067 135.327 80.1156 132.764 81.7998C130.202 83.4839 126.981 84.7383 122.965 85.5129C127.4 85.5129 130.981 85.0581 133.958 84.6284C136.935 84.1936 139.307 83.7788 140.062 85.2281C143.348 83.9137 145.016 84.4584 145.341 88.4165C148.153 87.442 149.622 89.8757 151.24 93.7188C149.147 88.1816 148.133 86.1326 146.934 89.2461C147.629 87.7118 148.143 91.345 149.107 97.1721C147.734 90.5204 148.163 92.6544 149.287 98.2915C148.857 97.1521 149.117 99.5159 149.362 101.74C150.346 110.64 151.085 117.317 151.085 117.317L151.684 119.431L150.775 103.329C150.65 101.135 150.521 98.8463 150.905 98.4165C150.216 94.4385 150.041 92.3195 152.269 96.6224C151.03 92.2745 150.396 89.5359 150.331 90.6654C151.055 88.3265 152.354 89.8608 154.986 94.0687C152.843 90.4605 151.295 88.0417 149.337 89.8558C149.037 85.8028 148.323 85.9777 147.089 89.5059C147.384 89.1511 147.159 92.1496 147.004 96.6674C147.104 91.1751 147.279 87.2021 146.15 88.2266C148.668 81.4599 149.891 79.6858 149.122 87.7018C154.287 77.5069 157.468 77.0971 167.972 84.3335C158.387 76.6373 155.375 77.0072 150.041 87.7418C150.126 78.9262 147.888 80.4754 143.093 86.3525C143.578 84.5584 141.505 87.0971 139.213 90.0407C136.92 92.9792 134.403 96.3225 131.361 99.9757C133.549 97.2621 135.432 94.6784 137.13 92.1746C138.828 89.6708 140.331 87.257 140.771 86.0726C143.193 82.5044 144.547 80.1756 140.561 83.1591C147.334 75.5129 148.757 73.1841 138.953 75.9927C151.909 68.4414 153.632 66.0326 156.235 50.9102C152.673 66.5024 150.665 68.2915 136.995 69.4459C147.903 69.356 147.154 68.6363 136.206 64.2435C146.295 64.5384 146.19 61.16 142.454 51.6148C144.837 61.7198 143.608 63.9037 135.541 61.4549C140.217 63.5389 138.059 60.9951 134.642 56.7073C138.324 59.4909 140.431 60.4504 137.185 57.1371C142.964 59.4659 143.388 57.5219 141.161 51.6948C143.813 57.3769 142.594 55.4629 139.597 51.9796H139.582Z" fill="currentColor"/>
<path d="M163.856 115.891C164.156 115.806 164.376 115.641 164.511 115.396C164.646 115.151 164.67 114.881 164.586 114.582C164.506 114.292 164.341 114.082 164.101 113.952C163.856 113.822 163.587 113.797 163.287 113.882C163.212 113.902 162.538 111.798 161.564 108.625C160.59 105.451 159.321 101.223 158.068 97.0054C157.428 94.8815 156.799 92.7675 158.302 93.9319C156.924 91.858 156.08 90.6036 155.97 91.5881C155.795 90.3187 156.354 91.2932 157.778 93.6821C155.88 89.719 154.846 87.1703 155.201 90.3387C155.615 85.3912 157.413 86.1658 161.629 90.4137C156.959 85.666 154.701 84.3967 153.552 90.0389C153.213 86.1008 153.982 89.0743 155.815 94.3817C153.942 89.1443 153.098 86.1108 153.367 90.0089C154.531 84.2418 156.799 85.4012 161.654 90.3037C156.814 85.4661 154.556 84.3767 153.412 90.0489C153.123 86.3057 153.952 89.3292 155.775 94.4717C153.992 89.4791 153.203 86.6006 153.507 90.1538C154.566 84.9114 156.714 86.1058 161.159 90.6536C156.839 86.1758 154.821 85.0514 153.992 90.2088C153.712 86.6855 154.621 89.4442 156.529 94.1268C154.696 89.4891 153.892 86.9104 154.252 90.3137C155.021 85.6211 156.954 86.9104 160.825 91.0134C157.373 87.4102 155.865 86.6206 155.635 90.5986C155.325 88.0399 156.299 90.2538 158.053 93.6621C156.784 91.863 156.299 91.2633 156.394 92.0828C156.439 91.813 157.064 92.9574 158.023 94.6566C157.328 94.5916 157.968 96.7305 158.607 98.8695C161.159 107.415 163.717 115.936 163.861 115.896L163.856 115.891Z" fill="currentColor"/>
<path d="M127.285 126.702C127.095 126.647 127.265 126.817 127.659 127.121C127.565 126.877 127.44 126.652 127.285 126.702Z" fill="currentColor"/>
<path d="M126.287 121.408C121.852 119.938 122.007 120.153 126.262 121.992C122.521 120.503 122.786 120.568 126.542 121.937C123.116 120.508 124.444 121.358 127.566 123.182C128.58 124.061 131.387 125.91 134.409 127.899C137.426 129.888 140.657 132.017 143.564 133.926C145.227 135.216 146.776 136.42 147.745 137.949C148.479 138.904 149.018 139.808 148.264 139.923C150.112 141.553 150.661 142.397 148.249 141.677C151.451 141.737 151.186 140.338 149.573 137.999C150.527 137.53 150.127 136.115 149.967 134.626C149.732 132.812 149.128 131.243 148.529 129.673C146.481 125.301 144.463 120.953 144.463 120.953C144.463 120.953 146.226 125.356 147.964 129.793C148.479 131.368 148.993 132.942 149.213 134.711C149.433 136.48 149.658 138.074 148.853 138.584C149.992 140.398 150.102 141.128 148.374 140.203C150.062 141.208 149.702 140.683 148.269 139.239C148.494 138.819 147.645 137.485 146.641 135.905C145.252 135.006 143.634 133.946 141.901 132.812C139.019 130.923 135.817 128.814 132.835 126.85C129.854 124.886 127.091 123.067 127.076 122.612C123.061 120.438 121.792 119.628 126.287 121.408Z" fill="currentColor"/>
<path d="M140.063 145.671C134.414 136.945 126.232 130.359 118.296 123.307C117.197 122.158 116.458 121.263 116.173 120.653C115.544 119.409 116.742 119.294 120.518 120.534C116.662 118.28 113.95 116.63 114.819 115.696C110.424 113.807 109.61 112.627 114.405 111.188C109.47 110.019 110.149 108.585 114.195 105.861C110.149 108.585 108.936 109.604 113.785 108.869C106.034 109.924 104.34 109.219 111.188 103.557C99.9651 106.186 97.2829 103.857 94.4809 90.9533C95.4648 103.002 95.3899 103.527 96.3439 91.7229C93.6618 102.807 92.0085 101.563 88.4023 90.6484C92.0085 101.563 93.0824 102.498 93.5918 91.1432C93.5619 103.087 92.9675 102.742 89.2814 90.7384C94.9903 104.671 97.6076 106.95 109.605 102.652C99.9101 110.459 99.6005 111.693 111.008 115.836C101.079 114.127 103.826 115.391 112.642 119.284C108.641 118.245 110.704 119.824 113.686 122.198C114.345 122.962 115.234 123.927 116.303 125.061C117.372 126.196 118.58 127.055 119.974 128.145C120.219 128.28 119.999 127.83 119.999 127.83C127.091 132.168 133.504 137.385 138.639 144.262L140.053 145.681L140.063 145.671Z" fill="currentColor"/>
<path d="M125.168 117.676C116.192 115.802 118.09 117.031 126.192 120.739C123.714 120.719 127.441 123.178 131.162 125.627C138.609 130.534 146.041 135.412 146.126 135.287C146.3 135.027 146.36 134.762 146.31 134.487C146.261 134.213 146.101 133.988 145.846 133.813C145.596 133.643 145.342 133.588 145.067 133.643C144.797 133.698 144.572 133.858 144.398 134.113C144.308 134.243 136.915 129.39 129.548 124.542C125.867 122.119 122.186 119.69 125.932 119.94C116.682 116.087 114.854 114.902 124.733 116.286C119.824 115.757 117.406 115.547 117.476 115.737C117.466 115.912 119.943 116.491 124.813 117.541C120.198 116.666 117.961 116.246 118.035 116.271C118.11 116.296 120.508 116.766 125.163 117.671L125.168 117.676Z" fill="currentColor"/>
<path d="M121.132 162.375C121.037 162.44 121.347 162.465 121.981 162.455C121.691 162.315 121.377 162.215 121.132 162.375Z" fill="currentColor"/>
<path d="M112.905 159.61C112.236 159.915 112.016 159.465 111.566 159.68C112.236 159.91 112.685 159.695 113.35 159.925C113.35 159.925 112.45 160.36 112.9 160.145C123.634 159.385 133.273 156.377 143.737 153.718C144.561 154.333 145.63 154.602 145.395 155.077C147.923 155.107 149.152 155.347 146.729 156.816C149.161 154.787 147.888 153.878 145.201 153.058C145.45 152.029 144.312 151.084 143.508 149.895C140.091 147.526 135.866 145.682 133.228 142.523C135.871 145.687 139.856 148.196 143.043 150.614C144.187 151.824 145.351 152.923 145.071 153.858C147.079 154.547 147.623 155.067 145.745 155.462C147.648 155.192 145.161 154.258 141.734 153.928C140.091 154.133 139.207 154.687 137.594 155.192C130.132 157.906 122.52 159.375 114.878 159.57C111.956 159.555 110.353 159.485 112.91 159.615L112.905 159.61Z" fill="currentColor"/>
<path d="M112.331 159.719C110.453 159.664 108.67 159.419 106.432 159.389C108.45 158.969 110.448 159.664 112.466 159.239C110.897 159.444 108.899 158.75 106.882 159.169C118.704 160.659 130.132 157.895 141.57 154.017C141.57 154.017 140.915 152.668 140.466 152.888C130.332 159.464 117.146 159.744 105.543 158.705C107.761 159.849 109.793 158.31 112.011 159.454C109.993 159.874 107.776 158.73 105.283 159.134C105.333 159.214 107.466 159.404 112.326 159.709L112.331 159.719Z" fill="currentColor"/>
<path d="M142.309 166.387L137.579 165.827C134.667 165.482 131.176 165.802 126.776 165.967C120.652 165.827 113.954 165.742 107.731 163.208C109.734 163.903 111.068 164.368 113.07 165.062C109.284 164.123 105.728 162.514 101.947 161.569C105.733 162.509 109.289 164.118 113.07 165.062C109.284 164.123 105.049 163.398 101.498 161.789C101.947 161.569 102.616 161.804 102.991 161.764C99.34 162.004 96.7527 162.374 96.2433 162.549C95.7338 162.724 97.3121 162.699 101.608 162.434C88.027 164.398 85.3199 165.397 81.454 177.631C79.0066 168.091 75.4004 169.775 64.8116 175.942C75.4304 168.676 77.8428 166.597 66.4149 167.851C75.1856 165.337 77.8028 164.308 74.3465 163.318C73.4824 163.073 72.2387 162.828 70.6854 162.424C70.2958 161.899 70.2608 161.094 70.9151 159.555C75.0358 151.844 76.4942 142.249 71.6793 134.593C66.2601 125.977 56.1308 121.824 46.3862 122.489C43.1396 122.708 39.933 123.463 39.5484 121.619C34.9284 125.747 33.1253 127.176 36.1321 121.629C30.1235 130.719 28.9247 132.823 33.9844 127.086C27.5262 137.391 27.3314 139.565 31.7567 151.124C27.9508 143.708 28.7599 145.677 33.6897 155.512C31.512 149.06 33.1752 149.92 38.1549 154.752C36.7964 150.799 38.7493 150.824 42.5553 152.404C39.3986 152.174 37.8353 152.379 38.4546 155.317C34.5987 151.999 32.9305 151.419 33.7646 156.896C32.7057 151.534 34.3739 152.114 38.1999 155.482C37.6055 152.489 39.1738 152.284 42.1557 152.753C38.3048 150.485 36.4068 150.295 38.1 154.568C32.9005 149.355 31.2922 148.611 33.5698 155.342C28.65 145.072 27.8609 142.928 32.2062 149.225C27.2865 138.601 27.5012 136.417 33.5798 125.422C28.9097 132.364 30.0985 130.49 36.3219 121.714C34.0193 126.736 36.6615 125.107 41.2616 122.204C42.3555 122.933 45.4072 122.394 48.479 122.364C54.6224 122.304 60.8508 124.278 65.7207 128.031C76.3394 136.212 76.8239 150.969 69.7114 161.564C69.6615 162.454 69.8713 162.768 70.106 162.893C71.06 163.408 71.3247 163.723 70.9251 164.008C70.5256 164.293 69.5017 164.488 67.9933 164.588C68.1581 163.558 68.258 162.524 69.8213 160.165C75.9048 152.519 75.5952 141.564 70.5605 133.453C67.9333 129.175 63.9426 126.666 59.722 124.822C56.5354 123.588 53.194 122.803 49.8775 122.579C46.561 122.354 43.2745 122.693 41.6462 122.249C37.106 124.737 34.2291 126.442 36.3069 121.714C29.8587 130.784 28.6151 133.053 33.9494 127.781C27.3964 137.836 27.4213 140.355 32.3461 152.509C28.7399 145.022 30.0286 147.176 35.5027 155.387C29.4342 146.721 28.1056 143.973 32.5509 149.875C27.3664 138.201 27.9608 135.177 34.7336 123.403C30.6379 129.845 32.7307 127.536 38.7593 121.734C37.7603 124.548 40.3776 123.583 43.5742 122.668C45.8118 122.593 48.6338 122.564 51.4458 122.888C54.2528 123.213 57.0499 123.893 59.722 124.822C63.9426 126.661 67.9333 129.17 70.5605 133.453C75.5952 141.564 75.9049 152.519 69.8263 160.15C68.233 162.529 68.1231 163.568 67.9483 164.598C69.4267 164.508 70.4107 164.328 70.7603 164.063C71.1099 163.798 70.7903 163.518 69.7913 163.033C69.6515 162.434 69.7414 161.644 70.3807 160.245C77.7329 149.41 75.6951 133.738 63.2783 126.427C58.2886 123.568 52.7195 122.104 47.3302 122.289C44.6331 122.379 41.9809 122.883 41.1567 122.054C36.9512 124.782 34.5737 126.177 36.6665 121.469C30.7328 129.705 29.3143 131.644 33.5848 124.443C27.4713 135.867 27.0517 138.156 31.6319 148.696C27.6511 143.973 29.2943 146.512 35.4528 155.157C34.0043 149.92 37.0611 150.794 42.1507 152.743C38.6094 152.269 36.7065 152.634 37.0711 156.027C33.0254 152.194 31.2473 151.389 32.0164 157.076C27.8559 148.78 26.4673 146.801 24.9989 155.142C24.8141 142.459 24.5544 140.095 19.25 136.731C24.9489 135.382 25.5983 133.033 27.3864 120.52C25.8929 132.888 25.2936 135.087 20.6036 134.493C24.7442 139.55 24.7891 141.809 24.2047 154.543C25.9779 146.047 27.1166 148.026 30.9226 157.091C30.3582 150.709 32.2462 151.739 36.5616 156.152C36.2569 152.574 38.3797 152.379 42.1457 152.748C37.8003 150.994 35.5527 150.42 37.2459 154.807C31.6868 148.301 30.0785 146.756 32.9954 154.298C27.8708 142.968 27.2815 140.724 33.0553 139.5C27.5212 136.257 28.1056 134.308 34.0942 123.213C29.8837 130.809 31.0774 129.26 36.6665 121.464C34.9683 125.842 37.8353 124.313 42.0258 122.239C43.8789 122.464 47.0505 122.139 50.2071 122.344C56.5104 122.758 62.7338 125.297 67.4888 129.38C75.6551 137.081 76.8389 149.835 70.8952 159.265C69.9861 161.019 69.8463 161.889 69.9761 162.509C71.4346 162.873 72.5884 163.073 73.3775 163.238C75.735 163.733 74.6812 164.078 70.1609 164.563C69.4967 164.518 68.9223 164.118 68.6775 162.838C72.5184 155.822 75.0707 148.481 74.0518 140.645C75.5203 148.261 72.3037 155.372 68.7574 162.204C68.5227 163.133 68.5227 163.843 68.6276 164.523C69.3069 165.182 70.0311 165.412 70.5505 165.672C74.1767 166.482 70.7303 168.106 62.549 171.459C73.847 167.596 77.4033 166.512 71.6694 172.389C83.6566 165.267 86.3637 165.107 100.943 167.046C91.798 165.872 94.5201 166.796 103.076 169.655C100.863 169.895 104.48 172.064 108.975 174.937C107.466 173.118 106.348 171.609 105.703 170.385C105.059 169.16 104.884 168.216 105.239 167.546C105.214 167.196 104.559 165.847 105.009 165.627C111.492 165.262 118.165 167.581 124.763 166.971C129.393 166.751 132.859 166.142 135.651 166.322C138.443 166.502 140.117 166.612 140.117 166.612L142.299 166.387H142.309Z" fill="currentColor"/>
<path d="M136.72 188.212C136.69 188.302 136.86 188.142 137.195 187.777C136.995 187.862 136.795 187.982 136.72 188.212Z" fill="currentColor"/>
<path d="M131.046 190.677C130.202 191.957 130.311 191.707 131.016 190.417C130.311 191.377 131.38 190.213 133.069 188.408C136.445 184.8 142.304 178.623 147.074 173.551C148.502 172.032 149.836 170.607 150.97 169.393C153.012 168.463 154.81 167.589 154.775 169.183C155.16 166.589 153.821 166.409 151.479 167.294C151.119 166.279 149.751 166.339 148.242 166.699C146.854 167.079 145.301 167.504 143.747 167.924C139.087 169.183 134.457 170.417 134.457 170.417C134.457 170.417 139.097 169.448 143.767 168.503C145.326 168.188 146.884 167.879 148.272 167.604C151.169 167.174 154.131 167.494 153.187 168.758C154.266 167.614 151.814 168.443 149.556 170.872C145.041 175.725 137.444 183.736 132.939 188.533C130.686 190.932 129.208 192.531 130.616 190.547C129.537 192.526 129.777 192.411 131.056 190.682L131.046 190.677Z" fill="currentColor"/>
<path d="M158.119 178.059C145.732 178.658 139.124 189.078 131.412 197.209C130.418 197.879 129.649 198.289 129.229 198.324C128.39 198.388 128.969 196.939 131.811 192.936C121.223 204.161 119.689 205.165 126.722 190.447C124.964 194.126 123.46 197.079 121.897 199.573C121.118 200.822 120.269 201.952 119.315 203.021C116.453 203.741 113.571 204.775 110.844 206.115C108.117 207.454 105.544 209.113 103.352 210.962C101.054 213.041 99.1361 215.31 98.9264 213.001C96.2842 220.462 95.3552 223.341 96.9435 216.195C94.9855 228.983 95.4001 231.372 104.55 234.97C97.0633 235.83 98.312 237.899 106.393 246.799C101.429 241.532 103.297 243.096 108.896 247.729C102.577 243.721 100.195 242.237 103.497 248.668C96.3341 238.279 94.8607 235.805 93.8867 233.221C94.6359 235.915 95.8896 238.219 102.338 249.038C99.246 242.007 101.349 243.486 107.472 248.718C106.533 245.6 109.165 245.81 112.662 246.09C114.22 245.045 116.648 244.071 118.99 242.796C121.333 241.517 123.585 239.933 125.763 238.319C125.283 240.772 123.256 242.312 121.892 244.081C123.485 241.642 126.417 239.668 126.457 236.315C126.427 238.548 124.619 240.537 123.92 242.541C125.283 240.772 127.311 239.233 126.457 236.315C124.205 237.774 121.827 239.363 119.345 240.647C116.862 241.932 114.275 242.916 113.281 244.121C108.941 243.446 106.194 242.991 108.946 246.17C101.314 240.173 99.6456 238.508 107.003 242.966C97.1632 234.655 96.3491 232.457 101.733 221.797C95.6099 227.879 95.6898 225.495 98.2571 214.63C97.1782 219.963 98.7366 217.089 101.524 212.511C102.757 212.152 105.225 210.083 107.972 208.468C113.471 205.235 120.099 203.796 126.502 204.52C127.401 204.006 128.32 203.476 129.329 202.931C130.223 202.361 131.167 201.767 132.151 201.142C133.06 200.472 133.714 199.758 134.404 198.983C133.535 199.833 132.666 200.507 131.816 201.037C130.902 201.567 130.158 201.957 129.609 202.227C128.505 202.761 128.19 202.811 128.49 202.476C128.79 202.142 129.704 201.412 130.987 200.392C137.97 191.317 143.694 180.213 156.41 178.588L158.109 178.079L158.119 178.059Z" fill="currentColor"/>
<path d="M127.935 189.985C123.695 198.536 123.935 198.421 128.66 190.315C124.364 197.976 124.474 197.726 128.57 190.185C124.474 197.381 126.012 195.722 130.143 190.455C130.613 190.819 133.679 187.576 136.741 184.333C142.865 177.846 148.958 171.374 148.848 171.269C148.623 171.054 148.374 170.944 148.094 170.949C147.814 170.954 147.565 171.069 147.35 171.289C147.14 171.504 147.04 171.749 147.05 172.024C147.06 172.299 147.175 172.544 147.4 172.763C147.51 172.873 141.451 179.315 135.398 185.732C132.371 188.94 129.344 192.144 129.679 190.415C124.839 196.941 123.36 198.541 127.93 189.985H127.935Z" fill="currentColor"/>
<path d="M176.308 200.309C176.328 200.449 176.353 200.049 176.368 199.234C176.313 199.564 176.263 199.944 176.308 200.309Z" fill="currentColor"/>
<path d="M209.182 178.754C209.182 178.754 200.197 170.324 195.961 166.86C197.005 166.835 203.229 171.708 203.668 171.388C204.283 170.943 204.722 170.414 204.992 169.799C205.262 169.179 200.791 163.652 200.686 162.967C200.582 162.283 200.297 161.613 199.827 160.958C199.163 159.174 197.859 156.476 198.069 158.44C194.693 159.119 199.163 159.174 198.604 161.793C198.828 162.538 199.003 163.112 198.943 163.692C198.883 164.277 198.599 164.751 198.094 165.116C197.725 165.381 195.722 164.891 195.757 165.026C194.363 163.392 193.679 161.803 195.946 161.748C192.57 158.48 192.146 156.74 197.23 156.665C193.379 156.426 195.627 155.336 198.729 153.472C197.205 154.017 198.973 155.376 200.686 156.351C201.546 156.91 202.5 157.37 203.498 157.75C204.497 158.13 205.531 158.43 206.585 158.679C212.194 160.014 219.751 163.497 224.147 165.641C226.344 166.71 227.748 167.45 225.026 166.935C227.593 167.185 227.373 167.035 225.056 166.571C226.769 166.88 226.499 166.91 224.951 166.81C226.219 167.065 224.871 166.346 222.798 165.301C218.652 163.217 211.6 159.849 206.32 158.595C204.343 158.125 202.39 157.45 200.691 156.346C199.707 155.626 198.509 155.206 199.133 154.871C196.476 153.937 195.652 153.092 198.783 151.653C196.561 151.538 197.62 151.718 199.777 152.048C199.638 152.253 200.592 152.598 201.501 152.947C202.48 153.347 203.478 153.707 204.472 154.042C205.466 154.377 206.46 154.691 207.429 154.996C213.243 156.725 222.678 163.102 222.513 163.307C222.094 163.812 221.939 163.032 221.724 163.917C221.724 163.917 223.367 164.327 224.986 164.731C226.659 165.151 228.302 165.561 225.51 164.806C228.412 165.081 228.542 164.701 225.905 163.502C227.962 164.172 226.954 163.842 225.555 163.397C224.516 163.072 223.093 162.638 221.539 162.168C222.808 162.538 224.067 162.897 225.28 163.252C226.494 163.607 227.678 163.952 225.965 163.317C228.752 164.327 228.722 164.372 225.9 163.502C228.946 164.522 229.171 164.602 225.915 163.537C229.291 164.582 229.231 164.482 225.985 163.307C231.509 165.086 233.517 165.696 226.184 163.032C236.334 166.606 237.143 166.91 226.164 163.157C236.663 167.495 236.503 166.71 225.7 164.622C236.294 167.6 237.972 168.005 225.75 164.497C238.122 167.35 238.312 166.885 226.824 161.513C238.761 166.341 239.136 166.101 227.957 159.249C239.875 165.801 238.252 165.081 227.628 159.764C232.912 162.942 229.186 161.523 225.185 160.044C217.179 157.085 208.059 153.892 204.003 152.752C208.503 151.928 212.973 151.198 212.973 151.198C212.973 151.198 209.782 151.268 205.876 151.333C204.577 151.333 203.199 151.328 201.845 151.193C202.609 150.703 203.883 149.624 204.018 149.099C204.203 148.365 204.198 147.675 204.013 147.03C203.823 146.381 203.468 145.831 202.949 145.371C202.43 144.911 201.77 144.532 200.881 143.872C199.148 141.968 197.135 142.393 197.53 142.373C196.666 144.287 198.783 144.646 200.412 145.201C201.84 145.801 202.779 146.596 201.75 148.485C200.497 150.479 198.943 149.844 199.208 148.47C195.452 147.515 193.519 145.811 196.905 143.797C191.856 144.676 192.82 143.797 196.581 141.373C193.789 142.073 193.799 141.238 195.017 138.445C193.474 140.559 194.483 140.349 196.666 139.459C196.451 139.934 197.41 139.734 198.609 139.954C199.638 139.969 200.701 139.784 201.73 139.484C202.759 139.184 203.753 138.769 204.722 138.285C209.937 135.896 215.326 133.282 220.271 130.883C214.876 133.497 209.932 135.896 204.467 138.395C202.649 139.309 200.691 139.959 198.609 139.949C197.41 139.729 196.276 140.154 196.541 139.564C193.919 140.618 192.69 140.658 194.208 137.455C192.945 138.31 194.743 137.44 196.681 136.361C197.849 136.351 198.903 136.376 199.937 136.256C205.017 136.051 209.727 134.322 214.222 132.143C213.773 132.363 213.992 132.812 213.543 133.027C215.79 131.938 218.258 131.298 219.851 128.859C217.384 129.499 215.341 132.158 212.878 132.792C216.475 131.048 219.866 127.74 223.647 126.216C224.921 125.741 226.549 125.871 228.047 127.01C231.424 122.033 234.051 120.948 235.405 126.186C234.061 121.708 233.437 121.208 234.875 126.351C233.846 122.023 235.39 121.253 236.893 125.761C235.09 120.653 234.935 120.179 236.893 125.711C235.909 122.592 235.45 120.928 235.599 120.833C235.754 120.718 236.508 122.173 237.957 125.301C236.698 121.823 235.629 120.269 234.6 120.563C233.577 120.838 232.588 122.962 231.489 126.84C229.796 124.237 227.987 123.382 226.079 123.467C224.172 123.552 223.088 125.151 221.35 126.71C215.351 132.153 207.055 134.507 198.773 135.746C201.021 134.656 202.819 133.787 205.287 133.147C198.324 135.966 194.788 133.237 188.729 130.409C187.635 130.539 186.681 131.078 186.936 130.539C185.413 134.187 187.88 133.547 189.304 131.863C189.019 131.888 190.133 131.728 191.261 131.978C192.37 132.298 193.524 132.927 193.784 133.452C194.283 135.006 192.66 135.676 192.151 134.492C188.35 136.795 185.722 137.1 187.306 132.508C184.379 137.195 184.509 136.021 186.037 131.133C183.864 134.112 183.09 133.377 182.631 129.659C183.11 131.698 184.803 130.324 186.422 128.684C186.791 128.355 186.377 127.795 185.902 126.775C181.782 120.104 180.997 111.603 185.328 104.506L184.878 104.726C184.908 102.492 186.921 102.068 187.166 100.284C187.151 101.403 186.252 101.838 185.572 102.722C186.252 101.838 186.267 100.718 187.615 100.064C186.267 100.718 186.472 102.283 185.123 102.937C185.802 102.053 186.037 101.383 186.936 100.948C186.257 101.833 186.022 102.502 185.343 103.387C185.572 102.717 186.472 102.283 186.706 101.618C179.459 109.574 186.262 119.044 187.041 127.53C186.761 128.025 186.621 128.305 185.937 128.904C184.239 130.878 182.546 132.253 181.337 129.409C180.768 131.453 173.945 121.253 175.378 119.349C176.312 118.729 177.166 117.89 177.921 117.035C178.675 116.181 179.319 115.306 179.854 114.432C180.468 113.072 180.828 111.743 181.242 110.528C181.657 109.314 182.051 108.225 182.376 107.36C183.295 105.221 183.869 104.042 183.235 105.336C184.039 104.516 183.58 104.701 183.44 105.971C183.974 104.881 184.738 103.212 184.094 104.022C185.223 101.993 186.052 100.608 186.257 100.199C186.462 99.7888 186.017 100.299 184.738 102.113C185.882 100.274 186.437 99.359 186.322 99.2891C186.207 99.2191 185.443 99.9787 184.064 101.548C186.307 98.9742 185.722 99.8988 183.47 103.277C184.404 102.193 183.699 103.572 182.596 105.786C183.555 103.852 184.154 102.627 183.35 103.517C185.413 100.319 186.052 99.2391 183.964 101.428C185.318 99.8438 186.007 99.0592 186.022 99.0742C186.037 99.0892 185.378 99.9088 184.064 101.543C185.443 99.7938 186.197 98.8793 186.237 98.8093C186.277 98.7393 185.597 99.494 184.219 101.133C185.607 99.444 186.302 98.6244 186.267 98.6394C186.232 98.6544 185.468 99.504 184.029 101.183C185.023 99.8238 185.862 98.6994 186.497 97.8348C187.131 96.9702 187.545 96.3405 187.695 95.9557C188 95.1861 187.231 95.3211 185.148 96.4455C187.935 94.0267 189.443 92.6274 189.583 92.3575C189.723 92.0877 188.509 92.9372 185.857 95.0112C188.754 93.2271 190.008 92.3375 190.033 92.4825C190.063 92.6274 188.859 93.8068 186.836 96.1306C189.254 93.9517 190.662 92.5125 190.792 92.1726C190.922 91.8328 189.813 92.6424 187.241 95.0462C191.766 89.9737 191.341 89.7088 185.063 93.442C190.882 89.1741 190.712 88.7593 183.909 91.8528C190.537 87.9447 189.673 89.6789 183.215 95.1262C185.458 94.5215 186.402 94.6214 186.277 95.431C186.307 97.375 183.839 98.0147 183.145 100.014C183.595 99.7938 184.494 99.359 184.264 100.029C181.976 104.471 181.017 109.374 178.69 113.947C178.035 115.276 177.441 116.446 176.742 117.33C177.057 115.131 177.062 112.852 177.072 111.148C177.081 109.444 177.096 108.31 177.096 108.31C177.096 108.31 176.882 109.714 176.557 111.793C176.392 112.832 176.202 114.042 175.888 115.306C175.783 117.04 174.649 118.14 173.55 119.044C173.875 117.685 173.046 116.835 171.932 116.545C170.818 116.256 169.42 116.515 168.63 117.175C167.726 118.17 166.483 119.329 165.574 119.869C164.944 121.878 164.645 123.272 164.845 121.408C166.428 123.517 166.957 121.458 167.647 119.409C168.446 118.514 169.41 117.63 171.073 118.639C172.726 119.909 172.202 121.693 171.238 120.688C173.795 111.198 182.556 163.277 165.998 122.313C166.817 128.33 166.213 127.37 164.085 122.108C164.66 126.456 163.711 126.501 160.514 123.312C162.277 125.256 162.637 123.137 162.752 120.419C163.216 118.789 163.436 116.56 162.952 114.217C162.332 112.143 161.718 110.084 161.138 108.155C159.41 102.378 158.042 97.8348 157.997 97.9148C157.867 98.1446 157.847 98.4095 157.932 98.7094C158.017 99.0092 158.177 99.2291 158.416 99.364C158.496 99.414 159.735 103.497 161.328 108.829C161.858 110.608 162.432 112.522 163.011 114.477C163.241 116.8 163.226 119.134 162.757 120.658C162.792 123.752 162.372 126.036 159.41 124.002C161.348 127.365 160.859 126.356 159.22 123.177C159.92 124.307 159.475 123.262 158.906 121.893C159.34 121.028 159.46 119.804 159.49 118.634C159.52 117.465 159.47 116.361 159.34 115.321C157.932 109.414 156.788 104.442 157.048 104.486C157.697 104.596 157.098 105.126 157.967 104.866L157.033 101.608C156.568 99.9787 156.099 98.3495 156.099 98.3495C155.624 98.4895 155.235 98.5644 154.94 98.6094C155.065 99.3291 155.285 100.374 155.559 101.618C155.834 102.862 156.169 104.317 156.538 105.896C156.224 104.611 155.909 103.342 155.609 102.108C155.31 100.873 155.015 99.6839 154.77 98.6144C154.8 98.5644 154.855 98.5694 154.94 98.6094C154.87 98.2996 154.83 98.0647 154.91 98.0897C154.755 97.9747 154.7 98.0747 154.725 98.3246C154.081 95.8008 153.601 93.7568 155.26 95.8408C154.121 93.352 153.517 91.8928 153.492 92.1676C153.537 91.5629 154.166 92.6924 155.489 95.376C154.54 92.7523 153.916 91.5729 153.911 92.1076C153.971 91.6129 154.655 92.8373 156.319 95.0162C155.09 92.7074 154.356 91.1381 154.226 91.7878C154.186 90.7033 154.75 91.8328 156.129 94.9262C154.431 91.9327 153.457 90.4535 153.097 91.5779C152.937 90.6584 153.382 92.3525 154.525 95.6959C153.037 92.2926 152.193 90.5384 151.828 91.493C151.753 90.6084 152.158 92.4275 153.167 96.1756C151.828 92.1726 151.274 90.6384 151.239 91.6129C151.449 91.2531 152.178 93.397 153.422 96.7403C152.268 94.9712 152.952 97.41 153.691 100.039C155.175 105.291 156.898 111.283 158.112 115.706C158.456 117.15 158.751 118.435 158.736 119.604C157.617 117.665 156.159 115.916 155.075 114.601C153.991 113.287 153.272 112.413 153.272 112.413C153.272 112.413 154.006 113.627 155.095 115.426C155.639 116.326 156.264 117.38 156.838 118.554C157.193 119.929 157.397 121.498 157.372 122.702C156.838 121.493 155.889 121.258 154.99 121.693C154.091 122.128 151.349 131.803 150.774 132.912C150.31 134.247 150.175 135.976 149.85 136.94C150.979 139.064 151.913 140.414 150.315 138.634C153.601 139.319 152.677 137.405 151.449 135.216C151.654 134.432 153.447 124.801 154.855 124.497C157.248 124.626 158.177 126.256 156.413 125.536C159.181 130.628 157.367 141.933 151.309 139.219C157.018 142.937 156.019 142.588 150.275 139.574C154.111 142.957 153.212 143.672 148.192 142.862C151.094 143.312 150 141.343 148.167 139.054C147.603 137.56 146.299 135.751 144.326 134.596C142.518 133.407 140.725 132.223 139.047 131.118C134.012 127.805 130.041 125.201 130.061 125.296C130.111 125.556 130.266 125.771 130.521 125.946C130.781 126.121 131.045 126.186 131.315 126.136C131.41 126.121 134.981 128.455 139.626 131.513C141.175 132.533 142.843 133.632 144.546 134.751C146.289 136.161 147.818 137.93 148.272 139.319C150.495 141.788 151.639 143.872 147.773 144.157C151.279 145.991 150.28 145.366 147.003 143.772C148.507 143.922 147.728 143.102 146.244 142.578C146.149 141.728 145.4 140.808 144.631 139.989C143.862 139.169 143.063 138.445 142.283 137.76C139.846 135.951 137.768 134.147 136.185 132.862C135.376 132.043 134.262 132.028 133.827 131.128C132.519 128.43 134.277 130.908 134.726 130.693C132.724 129.999 131.2 126.85 128.283 127.705C130.051 129.069 132.274 130.214 134.262 132.028C131.825 130.434 129.837 128.619 127.399 127.025L127.619 127.475C126.735 126.795 125.851 126.111 125.237 125.441C123.463 124.297 122.42 123.562 122.295 123.397C122.17 123.232 122.964 123.637 124.882 124.731C121.705 122.158 121.585 122.947 125.501 124.037C122.085 122.183 120.646 121.228 125.162 123.622C120.277 121.793 119.942 122.168 124.093 125.266C121.715 123.892 120.417 123.232 120.237 123.367C120.057 123.502 120.996 124.412 123.109 126.051C120.596 124.427 119.628 123.757 119.862 123.952C120.097 124.147 121.54 125.141 123.903 126.65C129.822 129.739 135.136 133.832 140.5 137.88C142.124 139.149 143.592 140.229 144.736 141.043C142.478 140.658 140.575 140.114 139.182 139.634C138.413 139.459 137.524 138.779 136.859 138.545C138.398 140.574 140.85 141.053 142.588 141.703C143.697 142.298 144.901 143.047 145.545 144.052C145.18 144.092 143.812 144.017 143.547 144.457C142.573 145.766 142.558 146.885 143.357 148.34C143.647 148.954 144.037 149.804 144.306 150.658C146.289 152.298 147.843 153.212 146.239 153.627C149.421 151.888 147.423 150.913 144.941 149.934C144.601 149.089 143.772 148.245 144.886 147.035C147.038 145.821 148.817 146.625 146.579 147.31C152.303 149.519 154.006 151.608 147.468 153.767C153.656 152.608 150.959 153.917 147.343 157.565C150.934 156.151 149.875 155.971 146.244 156.291C147.798 155.451 146.779 155.121 144.951 154.921C144.616 154.482 143.542 154.327 142.588 154.312C136.2 155.511 129.687 158.115 122.974 159.144C129.907 158.56 136.2 155.511 142.678 154.307C143.592 154.327 144.631 154.482 144.946 154.921C146.884 155.346 148.187 155.401 146.419 156.316C150.66 155.866 151.828 156.271 148.017 159.379C151.474 157.83 150.36 157.815 146.864 158.645C148.177 157.83 147.118 157.855 145.49 158.42C144.891 158.135 143.797 158.085 142.728 158.08C141.659 158.075 140.825 158.205 139.961 158.315C136.609 158.65 133.248 159.724 130.331 160.584C130.781 160.364 130.561 159.914 131.01 159.699C128.533 161.458 124.757 159.399 122.934 162.503C126.066 162.093 128.763 160.788 131.665 161.048C128.298 162.123 124.952 162.083 121.815 162.488L122.484 162.717C119.133 162.678 116.001 163.082 112.885 162.373C113.334 162.153 115.092 164.637 113.784 161.938C113.564 161.488 112.9 161.258 112.001 161.693C112.45 161.473 113.119 161.708 113.569 161.488L111.771 162.358L113.774 163.052C113.324 163.272 112.205 163.257 111.756 163.472L113.759 164.167C113.089 163.937 112.875 163.487 111.976 163.922C121.126 164.482 130.091 162.363 138.712 159.854C140.505 159.429 142.179 159.174 143.582 159.064C141.609 160.224 139.741 161.428 138.343 162.353C137.678 163.127 136.779 163.562 135.88 163.997C138.128 162.907 139.926 162.038 142.308 161.043C143.537 160.609 144.841 160.144 145.84 159.969C145.595 160.519 144.766 161.968 144.821 162.503C144.896 163.252 145.135 163.902 145.535 164.447C145.935 164.991 146.459 165.391 147.103 165.641C147.748 165.896 148.472 165.981 149.061 166.061C151.484 166.426 154.62 166.021 152.073 166.695C154.226 161.768 151.269 165.976 148.817 164.886C148.417 164.267 147.818 164.117 147.228 163.842C146.869 163.427 146.599 162.947 146.419 162.388C146.489 161.873 148.317 160.993 147.373 161.373C150.42 160.369 152.218 160.564 150.06 163.427C155.799 161.008 157.582 161.253 154.091 166.76C158.247 162.043 155.984 164.247 155.989 169.499C157.522 166.281 156.508 166.77 154.131 169.064C154.57 167.775 153.641 168.295 152.543 169.194C151.948 169.329 151.059 169.969 150.225 170.664C149.391 171.358 148.607 172.118 147.868 172.907C141.929 179.199 136.11 185.351 136.24 185.351C136.505 185.351 136.744 185.231 136.959 185.011C137.179 184.786 137.284 184.537 137.284 184.262C137.284 184.137 142.473 178.645 148.067 172.722C148.767 171.983 149.506 171.263 150.305 170.599C151.104 169.934 151.963 169.319 152.538 169.199C153.971 168.415 154.96 167.45 154.326 168.954C157.133 166.051 158.311 165.621 157.512 170.349C159.181 167.42 158.386 168.36 156.548 170.878C156.733 169.964 155.864 170.629 154.98 171.438C153.636 172.618 152.093 174.087 150.625 175.476C147.992 177.56 144.836 180.204 141.904 182.178L142.134 181.508C140.99 183.727 137.858 184.137 137.598 187.04C139.411 185.051 141.439 183.512 143.252 181.523C141.659 183.962 138.962 185.271 137.434 187.67C135.91 189.564 134.821 191.228 133.927 191.998C132.624 193.212 131.959 193.762 133.138 192.298C131.695 193.047 132.454 193.302 132.634 191.658C131.79 192.678 130.601 193.927 132.304 191.853C131.09 194.392 131.4 194.787 133.533 192.992C131.645 195.441 131.665 195.891 134.262 193.902C131.555 196.681 132.569 195.726 134.392 193.342C138.527 184.367 147.518 180.009 154.301 173.387C153.821 175.841 152.013 177.83 149.98 179.369C150.879 178.934 151.778 178.5 152.578 177.865C153.227 177.385 153.941 177.1 154.56 175.981C155.18 174.861 155.829 173.697 156.458 172.583C156.753 173.447 157.048 175.091 157.437 175.466C157.977 175.991 158.591 176.186 159.25 176.321C159.91 176.456 160.569 176.461 161.218 176.306C161.868 176.151 162.467 175.781 163.011 175.281C163.646 174.567 164.24 173.817 164.795 174.197C165.484 172.408 165.948 171.073 165.389 173.482C163.281 170.149 163.905 173.732 161.693 174.357C161.308 174.502 160.774 174.771 160.184 174.831C159.605 174.856 159.091 174.662 158.636 174.242C158.316 173.907 158.441 171.793 158.112 172.363C159.58 169.784 161.054 168.899 161.308 172.128C164.155 167.365 165.784 166.715 166.703 172.383C166.907 166.171 166.892 167.285 166.822 172.877C169.11 168.989 169.545 169.889 169.445 173.657C169.005 172.008 168.031 173.222 167.197 175.371C167.027 176.131 166.872 177.185 166.742 178.25C166.613 179.314 166.922 179.574 167.192 180.149C170.469 184.991 173.745 190.619 175.009 196.671C174.644 190.184 169.564 185.426 167.202 179.949C166.772 178.814 166.852 177.11 167.202 175.376C167.906 174.117 168.156 172.837 168.655 173.902C169.03 170.554 171.547 160.988 173.675 164.397C173.221 161.568 173.151 162.573 173.296 165.321C172.931 164.657 170.888 174.307 170.943 175.566C170.698 177.535 170.469 179.639 170.673 181.113C171.158 184.102 172.911 186.586 174.22 189.284C174 188.834 173.335 188.605 173.116 188.155C174.639 191.303 175.263 194.886 176.337 198.255C176.377 194.901 175.303 191.538 173.78 188.39C175.523 191.988 176.147 195.571 176.322 199.374L176.552 198.705C176.947 202.957 175.104 207.18 173.715 211.183L173.495 210.734C173.046 210.953 172.816 211.618 172.581 212.288C180.962 203.227 175.084 191.083 171.797 181.413C171.657 180.209 171.732 178.954 171.837 177.905C172.237 178.979 172.631 180.049 173.001 181.048C173.845 182.802 174.499 184.152 175.368 185.951C174.934 185.051 174.499 184.152 174.289 182.982C174.15 182.498 174.155 181.408 174.22 180.019C174.409 175.846 175.079 168.984 174.699 166.99C175.508 167.61 181.347 173.557 181.886 173.597C182.641 173.652 183.32 173.532 183.924 173.232C184.529 172.932 185.013 172.488 185.373 171.893C185.732 171.298 185.942 170.604 186.002 169.804C186.067 168.919 186.012 167.995 186.492 167.665C186.042 165.776 181.272 160.449 182.171 161.598C180.153 160.434 184.029 166.196 184.828 168.635C184.444 168.535 184.314 169.149 184.339 169.814C184.224 170.369 183.989 170.918 183.57 171.328C183.15 171.738 182.631 171.918 182.006 171.873C181.552 171.838 175.448 165.341 175.463 165.666C175.493 163.267 176.202 161.658 178.235 163.242C177.666 158.445 178.41 156.83 182.266 160.089C179.529 156.845 181.966 158.44 185.423 158.565C183.535 158.235 188.06 165.346 189.219 167.125C189.678 167.95 190.228 168.849 190.807 169.749C191.386 170.649 198.858 179.494 199.503 180.364C200.577 181.808 214.811 191.308 219.746 195.396C220.635 196.246 220.54 197.07 220.156 197.505C217.409 200.554 215.131 203.877 212.854 207.205C213.793 203.417 219.871 199.919 215.656 195.606C214.277 194.607 212.709 193.497 211.13 192.378C206.4 189.024 201.58 185.611 201.501 184.956C201.211 183.412 200.567 181.768 199.353 180.134C198.139 178.5 190.168 168.799 189.229 167.13C189.069 165.986 183.739 159.949 184.529 160.174C182.925 157.56 189.733 164.292 193.549 165.186C191.961 164.876 198.289 171.118 199.078 172.897C200.217 174.622 201.396 176.401 202.51 178.085C203.344 179.349 203.598 180.609 203.508 181.778C203.449 182.558 211.895 188.44 217.359 192.518C220.091 194.557 221.989 196.171 221.434 196.546C217.653 198.765 211.565 203.382 216.645 208.14C217.529 208.82 219.112 207.5 220.021 205.946C218.687 205.481 218.253 204.582 217.813 203.682C218.468 205.031 219.571 206.161 220.905 206.626L220.685 206.176C226.939 206.476 233.621 207.68 239.166 211.103C238.496 210.873 237.832 210.639 236.933 211.073C238.486 211.988 240.254 213.352 241.808 214.262L241.373 213.362C241.603 212.693 242.722 212.708 243.391 212.942C240.14 205.076 229.84 206.736 223.417 202.633C222.099 201.053 221.674 199.034 222.793 197.145C223.078 195.706 221.754 194.567 220.261 193.482C214.292 189.149 208.838 185.351 206.056 182.578C205.132 180.768 204.248 179.099 203.449 177.66C202.649 176.226 201.93 175.021 201.336 174.152C205.312 176.416 209.207 178.73 209.207 178.73L209.182 178.754Z" fill="currentColor"/>
<path d="M167.738 173.886C166.724 172.232 165.81 172.887 164.871 174.506C164.162 174.436 163.428 175.34 162.748 176.48C161.929 177.664 161.23 177.869 160.371 178.269C158.453 179.713 156.005 179.233 153.973 180.773C156.001 179.233 158.453 179.713 160.79 178.564C161.719 178.239 162.459 178.254 163.348 177.149C165.131 174.941 167.269 173.346 167.343 174.491C167.453 173.351 166.599 175.515 166.429 178.829C166.374 179.933 166.869 180.068 167.229 180.723C174.416 189.748 177.827 202.527 171.219 212.952C171.669 212.732 171.899 212.067 172.348 211.847C171.899 212.067 172.118 212.517 171.669 212.732C179.64 200.538 171.529 188.369 166.574 176.78C167.428 173.486 168.807 171.287 168.822 173.786C168.417 171.297 168.103 171.397 167.748 173.886H167.738Z" fill="currentColor"/>
<path d="M165.704 179.006C174.2 188.182 177.831 201.415 171.658 212.734L171.888 212.065C170.744 214.284 169.6 216.508 167.567 218.047C169.595 216.508 171.408 214.519 173.001 212.08C171.408 214.519 170.045 216.288 167.567 218.047C170.264 216.737 171.193 214.069 173.001 212.08C171.858 214.299 169.825 215.838 168.017 217.827C169.83 215.838 171.193 214.069 173.001 212.08C171.638 213.849 169.825 215.838 167.797 217.377C179.325 206.792 175.064 189.976 166.398 179.006C166.099 178.936 165.864 178.936 165.699 179.001L165.704 179.006Z" fill="currentColor"/>
<path d="M185.244 176.739C185.244 176.739 182.482 183.426 179.026 191.792C178.596 193.426 178.861 194.965 178.751 196.789C178.926 203.666 175.719 209.658 172.518 215.655C173.866 215 174.331 213.666 175.23 213.231C172.518 215.655 170.695 218.763 168.432 220.967C170.215 221.212 170.695 218.758 172.218 219.023C173.437 218.114 174.945 216.894 176.818 215.415C175.415 216.525 174.196 217.584 173.137 218.574C172.078 219.563 171.189 220.498 170.49 221.412C169.096 223.251 168.432 224.995 168.552 226.844C168.787 230.538 172.138 234.636 178.996 240.698C164.656 237.099 164.346 241.362 168.642 250.872C164.346 241.362 164.921 239.628 174.985 246.31C166.844 233.846 168.187 229.798 180.234 220.917C177.992 220.827 176.413 220.433 175.345 219.808C174.276 219.183 173.701 218.344 173.601 217.474C177.957 209.683 178.966 200.308 180.839 191.757C181.183 190.682 181.523 189.653 181.848 188.678C183.791 182.826 185.089 178.923 185.089 178.923L185.249 176.734L185.244 176.739Z" fill="currentColor"/>
<path d="M220.941 207.125C221.151 207.01 221.006 206.805 220.611 206.535C220.456 207.005 220.411 207.42 220.941 207.125Z" fill="currentColor"/>
<path d="M214.318 214.423C212.166 206.986 219.593 202.833 220.157 195.632C219.193 194.827 217.845 193.818 216.261 192.713C209.948 188.291 200.668 182.179 199.974 181.249C198.725 179.575 190.709 170.055 189.705 168.72C188.461 167.376 183.931 160.265 184.855 159.77C182.937 159.355 187.032 165.572 187.112 167.491C186.483 168.306 186.398 169.705 186.583 170.944C186.718 172.379 186.863 173.983 187.007 175.587C187.437 180.395 181.398 188.865 181.398 188.865C181.398 188.865 187.577 176.746 187.477 171.074C187.427 168.236 183.546 160.769 184.126 161.344C183.696 160.654 188.915 167.731 190.913 170.38C193.895 174.333 196.388 177.766 198.46 180.749C199.15 181.744 199.799 182.693 200.398 183.593C201.887 185.037 206.082 188.326 210.393 192.044C211.831 193.283 213.28 194.572 214.643 195.857C217.355 202.803 211.671 210.555 215.417 214.847C219.598 220.04 227.28 212.983 234.632 214.418C238.867 215.142 241.29 217.856 243.263 220.784C238.433 214.243 229.917 216.147 223.609 220.315C221.361 221.404 219.143 220.26 217.46 218.411C216.152 217.336 215.123 215.937 214.313 214.423H214.318Z" fill="currentColor"/>
<path d="M245.859 226.246C244.251 213.647 231.3 213.262 220.811 212.238C213.893 211.703 217.14 202.358 218.034 197.035C217.135 196.306 215.861 195.361 214.318 194.342C208.154 190.264 199.089 184.437 198.689 183.752C194.504 176.576 191.267 171.073 191.182 171.133C190.928 171.318 190.783 171.543 190.738 171.823C190.693 172.103 190.763 172.363 190.943 172.618C191.117 172.862 191.342 173.002 191.617 173.042C191.892 173.082 192.151 173.012 192.406 172.827C192.496 172.762 195.723 178.245 199.878 185.381C200.133 185.801 205.252 189.089 210.362 192.348C212.065 193.432 213.763 194.517 215.287 195.491C216.326 196.081 217.21 196.766 217.2 197.88C216.91 203.017 215.467 211.493 221.715 211.793C232.434 212.153 245.575 215.221 246.089 227.745C246.539 227.525 246.319 227.075 246.194 226.561C246.139 226.296 246.029 226.186 245.869 226.236L245.859 226.246Z" fill="currentColor"/>
<path d="M208.269 171.613L209.952 176.886C210.381 178.235 224.427 187.805 229.516 192.093C230.535 192.953 231.194 193.597 231.314 193.922C233.976 195.866 231.469 199.859 233.906 201.453C247.877 209.674 250.594 224.462 246.668 238.345C248.031 240.589 249.395 242.838 249.395 242.838L247.887 238.55C247.707 237.48 247.482 236.386 247.892 234.497C253.101 220.474 244.77 207.85 233.931 199.22C233.712 198.77 233.727 197.65 233.991 196.746C234.121 195.981 233.257 194.932 232.273 193.857C231.594 192.173 211.53 179.025 211.056 177.685C210.112 175.007 209.547 173.397 209.547 173.397L208.264 171.618L208.269 171.613Z" fill="currentColor"/>
<path d="M225.891 163.687C230.051 164.962 229.831 164.847 225.926 163.527C229.532 164.897 229.727 165.097 225.891 163.687Z" fill="currentColor"/>
<path d="M199.659 155.911C199.034 155.686 200.742 157.475 203.969 158.22C205.582 158.59 207.465 159.03 209.478 159.504C212.835 160.294 217.065 161.723 221.216 163.272C225.361 164.822 229.427 166.486 225.261 166.281C235.466 169.025 237.438 169.894 224.972 168.445C237.274 169.624 237.054 169.474 225.057 167.715C236.449 169.324 236.18 169.354 224.997 168.09C235.89 169.519 233.842 168.63 225.251 166.196C227.684 166.066 223.568 164.387 219.378 162.828C215.187 161.268 210.917 159.829 207.53 159.03C205.497 158.55 203.604 158.105 201.976 157.73C200.303 156.956 198.979 155.371 199.129 154.762C197.746 155.696 198.46 156.876 199.484 158.13C199.908 159.19 200.643 160.319 201.017 161.443C202.041 162.458 207.74 168.47 208.884 169.604C212.305 173.013 215.687 176.411 215.687 176.411C215.687 176.411 212.525 172.878 209.373 169.304C208.324 168.115 202.715 162.043 201.786 160.969C199.998 158.66 198.994 155.886 199.659 155.916V155.911Z" fill="currentColor"/>
<path d="M235.446 191.163C242.688 179.934 242.419 179.964 234.362 190.388C242.124 180.133 239.751 178.789 226.85 180.888C232.709 174.731 228.034 172.012 223.364 169.304C214.024 163.882 204.704 158.474 204.669 158.624C204.594 158.929 204.624 159.199 204.768 159.439C204.913 159.679 205.133 159.839 205.438 159.913C205.727 159.988 205.992 159.948 206.227 159.804C206.462 159.659 206.617 159.434 206.691 159.134C206.711 159.059 209.039 160.368 212.515 162.372C215.997 164.376 220.627 167.07 224.533 169.729C229.872 172.467 234.487 175.171 227.769 182.737C241.395 179.194 243.682 180.518 236.969 192.117C243.512 180.238 243.293 180.088 235.446 191.168V191.163Z" fill="currentColor"/>
<path d="M207.695 146.305C207.695 146.305 214.662 151.757 223.028 158.299C227.209 161.572 231.739 165.115 225.331 166.15C240.105 171.662 243.936 174.661 240.08 193.561C249.51 179.023 251.253 180.388 254.745 194.606C253.581 189.863 253.276 186.515 253.756 184.401C254.59 182.072 256.213 180.988 254.655 183.331C256.967 182.412 258.93 181.877 260.089 183.381C262.132 182.207 263.376 183.071 264.23 185.16C265.139 186.845 265.653 189.753 265.808 194.006C266.028 191.482 266.198 189.313 266.258 187.529C266.317 185.745 266.272 184.331 265.973 184.576C265.863 180.608 265.009 179.493 261.822 183.471C262.012 180.093 261.108 180.008 258.935 182.627C258.581 180.668 256.952 181.407 254.999 182.407C257.242 180.983 259.16 179.813 259.325 182.547C261.957 178.804 262.836 178.964 262.222 183.456C264.894 178.369 266.078 177.609 266.347 183.641C267.221 178.269 267.187 179.683 266.572 184.306C267.007 182.072 266.862 183.046 266.332 185.17C265.833 186.585 264.949 189.148 263.81 192.232C264.949 189.148 265.853 186.57 266.357 185.155C266.897 182.997 267.042 182.002 266.572 184.291C267.241 179.363 267.296 177.719 266.228 183.556C265.908 176.755 264.464 177.434 260.953 183.026C262.182 177.304 261.338 176.5 257.327 181.322C258.296 176.255 256.098 176.815 252.332 178.884C256.033 176.685 258.171 175.995 256.793 181.012C260.858 175.915 261.408 176.52 259.17 182.327C263.276 175.86 264.594 174.596 262.866 182.857C264.714 174.556 263.515 175.775 259.45 182.422C262.027 176.05 261.737 175.105 257.392 181.137C259.375 174.651 257.297 175.145 252.432 178.429C257.177 174.976 259.105 174.321 256.498 180.633C260.993 174.351 260.953 175.04 257.212 181.352C262.132 174.186 263.346 172.647 259.185 181.542C262.641 171.837 260.723 172.572 253.576 178.919C258.82 171.887 258.835 170.473 250.764 175.69C256.668 168.709 254.485 168.359 246.748 170.258C254.57 168.094 256.483 168.084 249.166 173.591C257.537 168.379 256.688 168.684 248.282 172.857C256.798 167.659 257.757 166.33 246.988 169.078C256.683 163.801 254.645 162.597 244.94 161.182C254.705 161.307 256.803 161.217 245.584 160.433C257.632 160.248 256.358 159.368 245.54 156.45C257.677 157.654 260.259 156.82 251.648 146.275C261.852 153.091 260.853 150.198 255.993 141.492C260.474 149.628 261.053 151.997 252.332 145.25C259.295 154.681 256.962 154.99 246.878 152.042C255.324 156.235 256.023 157.169 246.139 155.195C255.184 158.344 253.656 158.584 245.16 157.784C252.952 159.728 251.733 160.253 244.79 160.413C249.315 160.868 248.117 160.957 244.311 160.873C244.635 160.758 242.473 159.978 240.195 158.664C237.918 157.349 235.525 155.495 232.738 153.206C234.142 157.929 229.277 155.71 224.951 153.741C216.301 149.803 209.807 146.845 209.807 146.845L207.68 146.31L207.695 146.305Z" fill="currentColor"/>
</svg>
