<svg width="292" height="260" viewBox="0 0 292 260" fill="none" xmlns="http://www.w3.org/2000/svg">
<path d="M230.531 186.656C226.765 185.167 223.029 183.614 219.283 182.076L208.1 177.341C200.653 174.165 193.261 170.869 185.844 167.633C178.447 164.353 171.064 161.037 163.637 157.826C161.784 157.01 159.936 156.193 158.083 155.377C156.235 154.555 154.082 153.669 152.539 152.902C150.436 152.041 147.639 150.916 147.01 150.393C144.223 149.358 141.726 148.297 141.461 147.939C140.127 147.625 140.162 147.541 141.501 147.849C141.316 147.824 142.894 148.541 145.132 149.507C145.212 149.437 147.065 150.144 149.003 150.891C149.432 151.135 151.205 151.897 152.669 152.499C153.708 152.907 155.216 153.51 156.46 154.037C157.704 154.565 158.942 155.088 160.186 155.611C161.43 156.133 162.673 156.651 163.922 157.164C171.389 160.29 178.791 163.571 186.203 166.827L230.526 186.661L230.531 186.656Z" fill="currentColor"/>
<path d="M142.579 146.649C141.205 146.425 138.243 146.639 139.457 146.902C138.243 146.639 139.931 149.073 141.235 149.471C139.931 149.073 141.205 146.429 142.574 146.649H142.579Z" fill="currentColor"/>
<path d="M244.132 200.734C236.48 196.702 229.083 192.132 221.476 188C214.109 183.997 206.562 180.308 198.97 176.644C195.768 175.096 192.567 173.553 189.365 172.004C187.702 171.203 186.088 170.262 184.32 169.694C183.496 169.431 182.652 169.216 181.823 168.973C180.994 168.729 180.175 168.505 179.45 168.096C179.306 168.017 179.011 167.803 179.011 167.803C179.011 167.803 179.316 167.828 179.42 167.857C179.57 167.902 179.725 167.952 179.875 167.992C180.07 168.042 180.265 168.091 180.464 168.121C180.564 168.136 180.764 168.176 180.854 168.106C180.909 168.066 180.894 167.962 180.894 167.962C180.894 167.962 173.991 165.826 174.815 165.408C175.639 164.99 174.131 164.452 174.131 164.452L179.925 167.051C179.925 167.051 179.041 167.006 178.621 166.857C177.008 166.284 175.625 165.269 174.131 164.452C174.086 164.427 174.041 164.402 173.996 164.377C172.523 163.591 171.074 162.75 169.616 161.938C166.559 160.245 163.477 158.583 160.381 156.955C154.217 153.719 147.984 150.617 141.686 147.66C147.844 151.12 153.987 154.6 160.121 158.1C165.58 161.216 171.029 164.363 176.499 167.464C177.193 167.857 178.731 168.241 178.731 168.241L178.491 168.544C178.491 168.544 178.996 168.619 179.256 168.654C179.515 168.689 179.465 169.177 179.465 169.177C179.465 169.177 179.455 168.818 179.62 168.813C179.785 168.808 179.9 169.042 179.795 169.167C181.169 169.804 182.537 170.446 183.911 171.083C187.487 172.95 191.103 174.737 194.754 176.45C197.606 177.784 201.287 180.333 204.494 179.94C203.944 180.005 204.384 180.856 204.883 181.095C218.099 187.363 231.186 193.909 244.127 200.725L244.132 200.734Z" fill="currentColor"/>
<path d="M141.77 150.517C141.151 150.447 137.245 146.016 137.645 145.523C137.09 145.862 138.654 146.011 141.196 145.991C141.426 146.151 143.049 146.101 144.223 145.752C143.194 146.355 141.156 150.447 141.77 150.517Z" fill="currentColor"/>
<path d="M237.363 117.125C233.517 118.399 229.657 119.604 225.796 120.824L214.178 124.359C206.426 126.693 198.639 128.909 190.868 131.179C183.081 133.404 175.294 135.595 167.532 137.895C165.59 138.457 163.642 139.02 161.699 139.577C159.751 140.135 157.528 140.832 155.855 141.235C153.687 141.922 150.82 142.853 150.001 142.858C147.194 143.849 144.602 144.64 144.167 144.536C142.944 145.153 142.914 145.064 144.137 144.441C143.982 144.541 145.656 144.078 147.988 143.386C148.003 143.281 149.876 142.639 151.844 141.967C152.329 141.877 154.182 141.325 155.69 140.852C156.749 140.503 158.292 139.996 159.586 139.602C160.875 139.209 162.168 138.816 163.457 138.417C164.745 138.019 166.034 137.621 167.323 137.213C175.059 134.828 182.846 132.593 190.623 130.338L237.368 117.135L237.363 117.125Z" fill="currentColor"/>
<path d="M144.187 142.832C142.993 143.539 140.861 145.6 141.959 145.027C140.861 145.6 143.723 146.382 144.976 145.854C143.723 146.387 142.988 143.544 144.182 142.837L144.187 142.832Z" fill="currentColor"/>
<path d="M256.857 119.199C248.396 121.016 239.78 122.256 231.289 123.959C223.068 125.611 214.906 127.623 206.725 129.679C203.274 130.545 199.827 131.411 196.376 132.277C194.583 132.73 192.74 133.044 191.022 133.741C190.218 134.07 189.438 134.443 188.644 134.786C187.85 135.13 187.081 135.483 186.262 135.633C186.102 135.663 185.732 135.688 185.732 135.688C185.732 135.688 185.982 135.513 186.082 135.469C186.227 135.404 186.372 135.344 186.516 135.279C186.696 135.195 186.881 135.105 187.051 135.001C187.141 134.946 187.316 134.851 187.341 134.742C187.356 134.677 187.276 134.607 187.276 134.607C187.276 134.607 180.613 137.39 180.972 136.544C181.332 135.698 179.829 136.25 179.829 136.25L185.942 134.528C185.942 134.528 185.233 135.06 184.818 135.215C183.215 135.807 181.497 135.917 179.829 136.25C179.779 136.26 179.729 136.27 179.674 136.28C178.036 136.619 176.387 136.902 174.744 137.221C171.308 137.883 167.881 138.58 164.46 139.322C157.652 140.79 150.879 142.408 144.146 144.181C151.094 142.886 158.042 141.617 164.999 140.367C171.193 139.257 177.391 138.172 183.585 137.047C184.369 136.902 185.797 136.21 185.797 136.21L185.812 136.599C185.812 136.599 186.247 136.33 186.472 136.19C186.696 136.051 186.971 136.454 186.971 136.454C186.971 136.454 186.731 136.185 186.856 136.076C186.981 135.966 187.216 136.071 187.221 136.235C188.684 135.847 190.148 135.459 191.611 135.065C195.552 134.204 199.478 133.258 203.379 132.228C206.425 131.426 210.886 131.018 213.093 128.663C212.714 129.066 213.598 129.44 214.137 129.3C228.307 125.636 242.552 122.266 256.857 119.199Z" fill="currentColor"/>
<path d="M146.06 146.311C145.545 146.655 139.691 145.763 139.681 145.131C139.477 145.744 140.77 144.857 142.703 143.215C142.983 143.185 144.192 142.114 144.866 141.094C144.466 142.214 145.545 146.66 146.06 146.316V146.311Z" fill="currentColor"/>
<path d="M185.363 67.4386C183.24 70.8736 181.057 74.2739 178.885 77.684L172.262 87.8349C167.831 94.5906 163.291 101.277 158.801 107.992C154.271 114.683 149.716 121.354 145.255 128.085C144.127 129.763 143.003 131.435 141.869 133.108C140.74 134.781 139.486 136.742 138.463 138.121C137.244 140.038 135.651 142.587 135.026 143.115C133.518 145.674 132.039 147.939 131.635 148.138C131.09 149.392 131.015 149.343 131.55 148.083C131.495 148.257 132.479 146.834 133.817 144.807C133.763 144.718 134.781 143.025 135.855 141.248C136.17 140.869 137.234 139.256 138.083 137.927C138.667 136.981 139.521 135.602 140.261 134.472C140.995 133.342 141.729 132.217 142.463 131.087C143.198 129.957 143.922 128.822 144.646 127.687C149.036 120.901 153.557 114.2 158.062 107.494L185.358 67.4336L185.363 67.4386Z" fill="currentColor"/>
<path d="M130.565 146.828C130.106 148.137 129.801 151.08 130.276 149.935C129.806 151.08 132.503 149.845 133.123 148.635C132.503 149.845 130.111 148.137 130.57 146.828H130.565Z" fill="currentColor"/>
<path d="M201.635 56.5352C196.321 63.3456 190.522 69.8174 185.117 76.5631C179.883 83.0997 174.928 89.8703 169.989 96.6807C167.906 99.5532 165.823 102.431 163.74 105.303C162.656 106.797 161.448 108.216 160.584 109.858C160.179 110.625 159.824 111.412 159.435 112.183C159.045 112.955 158.686 113.717 158.156 114.359C158.051 114.483 157.787 114.742 157.787 114.742C157.787 114.742 157.866 114.448 157.911 114.349C157.981 114.205 158.056 114.07 158.121 113.926C158.206 113.742 158.286 113.557 158.351 113.368C158.381 113.269 158.461 113.084 158.406 112.98C158.376 112.92 158.266 112.92 158.266 112.92C158.266 112.92 154.955 119.322 154.685 118.441C154.415 117.56 153.621 118.949 153.621 118.949L157.192 113.712C157.192 113.712 156.992 114.573 156.773 114.956C155.923 116.44 154.685 117.625 153.621 118.944C153.586 118.984 153.556 119.024 153.526 119.063C152.492 120.373 151.408 121.647 150.354 122.942C148.147 125.65 145.974 128.383 143.826 131.141C139.561 136.627 135.415 142.208 131.395 147.878C135.88 142.437 140.385 137.01 144.91 131.599C148.941 126.78 152.992 121.981 157.007 117.147C157.517 116.534 158.166 115.091 158.166 115.091L158.426 115.379C158.426 115.379 158.586 114.897 158.666 114.648C158.745 114.399 159.22 114.533 159.22 114.533C159.22 114.533 158.86 114.478 158.885 114.319C158.91 114.16 159.16 114.085 159.265 114.209C160.134 112.975 161.003 111.735 161.877 110.501C164.34 107.314 166.737 104.079 169.065 100.788C170.878 98.219 174.034 95.0528 174.204 91.8318C174.174 92.3844 175.093 92.1006 175.413 91.6475C183.904 79.7642 192.64 68.0551 201.625 56.5352H201.635Z" fill="currentColor"/>
<path d="M134.247 148.295C134.072 148.887 129.017 151.959 128.598 151.476C128.837 152.078 129.257 150.57 129.677 148.07C129.871 147.871 130.111 146.273 129.961 145.059C130.381 146.174 134.067 148.887 134.242 148.29L134.247 148.295Z" fill="currentColor"/>
<path d="M51.0059 84.2295C52.3894 84.1399 54.1126 86.0865 55.9556 87.9932C57.2942 88.4661 59.2471 90.3679 60.9703 91.6672C60.9203 91.5776 63.4826 93.4943 65.9999 95.3263C68.5123 97.1534 71.0296 98.9854 71.0296 98.9854C71.8687 99.5978 72.7028 100.215 73.5319 100.832C74.3611 101.45 75.1902 102.077 76.0193 102.704C76.9134 103.396 81.5634 107.498 79.3258 105.407C83.0668 108.738 85.0647 110.51 80.9491 106.513C85.3794 110.759 87.5271 112.785 83.6712 109.077C87.8268 113.039 87.7119 112.89 83.3965 108.449C87.7069 112.89 88.3812 113.572 85.5642 110.729C88.4611 113.637 88.2563 113.403 84.6202 109.42C88.4811 113.667 88.6459 113.836 85.7839 110.53C88.7108 113.906 88.8057 114.01 87.8567 112.99C88.8457 114.065 88.8607 114.095 89.3102 115.967C88.8707 114.13 88.8557 114.115 88.9056 115.519C88.8906 114.125 88.9656 114.194 92.0273 116.813C89.1653 114.319 89.1354 114.279 91.7726 116.355C90.5139 115.349 90.0644 114.971 90.5689 115.275C91.0733 115.578 92.6167 117.077 95.0841 118.267C92.6866 117.107 91.3231 115.728 91.2431 115.663C91.1632 115.598 92.282 116.345 94.6046 117.893C92.4219 116.425 91.9324 116.081 92.6616 116.529C93.3959 116.977 95.4237 119.755 98.0409 119.939C95.5935 119.86 94.3598 117.804 94.3898 117.629C94.4597 117.893 95.7933 120.143 98.1708 120.104C96.118 120.358 96.058 119.775 96.8672 119.267C97.6513 120.821 99.0798 123.519 100.833 121.881C98.3856 123.17 101.577 126.839 103.415 124.101C103.195 126.142 103.305 127.711 103.335 128.029C103.91 128.741 104.724 128.452 105.738 126.585C105.263 129.095 105.103 130.693 104.759 130.812C105.603 131.668 106.712 131.38 107.806 129.269C107.151 131.997 106.617 133.371 105.958 133.381C107.066 134.277 108.51 134.073 109.664 132.087C108.695 134.367 107.351 135.024 106.247 134.581C107.111 134.979 108.14 134.237 109.144 131.887C108.495 134.148 108.39 134.576 108.085 133.809C109.863 134.187 111.726 133.59 112.67 131.753C111.567 134.75 114.174 134.392 115.952 132.868C115.772 135.193 117.765 135.387 118.844 134.68C119.243 136.468 120.682 136.926 121.481 136.796C121.376 137.518 121.361 137.513 121.466 136.786C121.361 137.513 122.905 138.454 123.204 137.976C122.9 138.454 122.785 138.618 123.079 138.165C122.79 138.618 121.156 137.767 121.286 137.07C121.156 137.767 121.151 137.762 121.281 137.07C121.151 137.767 121.141 137.757 121.271 137.06C120.422 137.204 118.814 136.836 118.554 135.098C117.33 135.86 115.188 135.79 115.657 133.485C113.669 135.108 111.092 135.537 112.546 132.55C111.552 134.406 109.639 134.999 107.885 134.665C108.305 135.367 108.63 134.969 109.389 132.784C108.33 135.059 106.892 135.776 105.808 135.452C106.722 135.845 107.965 135.183 109.064 132.883C107.965 135.183 106.562 135.835 105.553 135.432C106.497 135.721 107.781 134.934 108.869 132.589C107.606 134.67 106.017 134.989 104.934 134.202C105.548 134.128 106.187 132.724 106.976 129.876C105.773 132.171 104.569 132.629 103.74 131.868C104.06 131.708 104.294 130.055 104.894 127.322C103.79 129.488 102.931 129.986 102.356 129.329C102.336 129.02 102.271 127.332 102.596 124.972C101.652 126.76 100.378 126.665 99.7092 125.938C99.0399 125.216 98.91 123.817 100.079 122.877C98.2307 125.162 96.4626 120.975 95.2589 119.173C94.165 119.252 93.9403 119.611 95.8383 119.875C93.5357 119.347 91.9124 116.683 91.6577 116.564C91.403 116.445 92.5118 118.525 94.4747 119.451C92.3719 118.456 90.8236 116.016 90.2342 115.578C89.6448 115.14 89.7997 115.524 90.4789 116.674C88.9206 114.289 88.8607 114.279 88.4062 116.793C88.8307 114.189 88.8207 114.184 88.0965 116.674C88.8207 114.189 88.8207 114.169 88.0016 116.345C88.8107 114.14 88.7957 114.11 86.7379 113.776C88.7608 114.055 88.6409 113.98 84.82 111.481C88.571 113.916 88.3862 113.781 83.7411 110.446C88.1264 113.572 88.3762 113.751 84.9948 111.436C88.3013 113.687 87.5271 113.129 82.5374 109.48C87.5321 113.134 87.6869 113.243 83.0518 109.883C87.3872 113 85.0447 111.247 80.1249 107.548C84.74 111.003 82.6473 109.41 78.6315 106.343C81.1339 108.205 76.1741 104.387 75.2751 103.685C74.461 103.048 73.6418 102.411 72.8277 101.778C72.0136 101.146 71.1894 100.509 70.3753 99.8765C68.737 98.612 67.0938 97.3475 65.4555 96.078C63.8173 94.8086 62.139 93.4544 60.5557 92.2447C58.9075 90.8757 57.0295 88.8943 55.7258 88.3218C53.9577 86.3553 52.2995 84.2893 51.0109 84.2644L51.0059 84.2295Z" fill="currentColor"/>
<path d="M121.232 139.652C120.908 140.031 125.248 140.051 125.967 139.996C125.248 140.051 123.595 136.521 123.899 135.734C123.595 136.516 120.908 140.031 121.232 139.652Z" fill="currentColor"/>
<path d="M30.3479 154.358C31.3518 153.402 33.9241 153.79 36.5663 154.069C37.8949 153.571 40.617 153.78 42.7747 153.671C42.6798 153.631 45.8814 153.462 48.9831 153.253C52.0898 153.044 55.1915 152.834 55.1915 152.834C56.2254 152.77 57.2643 152.705 58.3032 152.645C59.3421 152.586 60.376 152.536 61.4149 152.486C62.5487 152.441 68.7521 152.605 65.6904 152.436C70.705 152.586 73.3822 152.665 67.6433 152.242C73.7718 152.655 76.7236 152.834 71.3843 152.461C77.1182 152.834 76.9384 152.795 70.77 152.157C76.9384 152.795 77.8924 152.884 73.9016 152.516C77.9923 152.884 77.6876 152.839 72.3333 152.118C78.0273 152.894 78.267 152.924 73.9416 152.222C78.3619 152.934 78.5018 152.949 77.1182 152.775C78.5667 152.964 78.6016 152.979 80.15 154.129C78.6266 153.004 78.6066 152.999 79.5506 154.044C78.6416 152.989 78.7465 152.989 82.7722 153.034C78.9713 152.954 78.9213 152.949 82.2827 152.844C80.6695 152.879 80.0801 152.879 80.6645 152.785C81.2488 152.69 83.3916 152.854 86.0537 152.187C83.4665 152.839 81.5335 152.65 81.4336 152.655C81.3337 152.66 82.6723 152.511 85.4444 152.212C82.8222 152.486 82.2278 152.536 83.0769 152.411C83.926 152.287 87.2724 153.108 89.3952 151.58C87.4672 153.083 85.1946 152.302 85.1097 152.147C85.3345 152.302 87.8069 153.173 89.605 151.62C88.1965 153.133 87.7769 152.72 88.0666 151.814C89.6699 152.501 92.5019 153.656 92.7916 151.276C91.7477 153.83 96.5626 154.602 96.203 151.321C97.3467 153.024 98.4456 154.159 98.6703 154.383C99.5694 154.557 100.009 153.815 99.5794 151.734C100.833 153.96 101.742 155.284 101.557 155.597C102.756 155.717 103.42 154.781 102.896 152.461C104.155 154.97 104.629 156.364 104.135 156.792C105.558 156.767 106.537 155.687 106.137 153.427C106.867 155.797 106.262 157.161 105.128 157.524C106.048 157.275 106.357 156.05 105.613 153.606C106.572 155.752 106.772 156.15 106.043 155.757C107.651 154.905 108.695 153.258 108.225 151.241C109.314 154.243 111.077 152.297 111.462 149.992C112.82 151.889 114.474 150.763 114.848 149.524C116.307 150.634 117.705 150.066 118.235 149.454C118.619 150.076 118.604 150.076 118.215 149.454C118.604 150.076 120.392 149.813 120.312 149.25C120.387 149.813 120.407 150.012 120.337 149.479C120.402 150.012 118.604 150.405 118.255 149.788C118.604 150.405 118.599 150.405 118.25 149.788C118.599 150.405 118.584 150.405 118.235 149.788C117.675 150.445 116.207 151.192 114.888 150.027C114.439 151.396 112.755 152.715 111.632 150.644C111.157 153.163 109.454 155.139 108.645 151.923C109.079 153.984 107.995 155.657 106.437 156.528C107.211 156.797 107.206 156.284 106.377 154.124C107.031 156.543 106.392 158.017 105.353 158.465C106.307 158.181 106.837 156.877 106.192 154.408C106.837 156.872 106.182 158.271 105.143 158.609C106.053 158.226 106.527 156.802 105.848 154.303C106.217 156.708 105.208 157.967 103.875 158.062C104.299 157.614 103.88 156.125 102.646 153.437C103.206 155.966 102.576 157.086 101.447 157.036C101.592 156.708 100.708 155.294 99.3996 152.815C99.954 155.179 99.6143 156.11 98.7503 155.976C98.5305 155.752 97.4017 154.497 96.123 152.481C96.5526 154.457 95.5137 155.199 94.5347 155.07C93.5558 154.945 92.5568 153.955 92.8415 152.486C92.8965 155.418 88.8408 153.347 86.758 152.735C85.9738 153.497 86.0288 153.915 87.657 152.899C85.5543 153.969 82.5924 152.969 82.3177 153.044C82.043 153.118 84.2357 153.999 86.3334 153.452C84.0808 154.034 81.3238 153.158 80.5845 153.203C79.8453 153.248 80.2149 153.442 81.4786 153.885C78.7465 153.053 78.6916 153.088 79.9702 155.304C78.6166 153.039 78.6066 153.044 79.6555 155.413C78.6066 153.044 78.5967 153.034 79.3708 155.224C78.5667 153.014 78.5367 152.999 76.7436 154.064C78.4718 152.984 78.3319 153.004 73.7967 153.536C78.242 152.994 78.0123 153.014 72.3033 153.432C77.6776 153.019 77.9873 152.994 73.9016 153.392C77.8874 152.999 76.9334 153.068 70.755 153.467C76.9334 153.063 77.1282 153.049 71.4093 153.447C76.7386 153.058 73.8117 153.218 67.6583 153.531C73.4221 153.218 70.7899 153.342 65.7353 153.566C68.852 153.387 62.5936 153.641 61.4499 153.681C60.416 153.716 59.3771 153.75 58.3432 153.785C57.3093 153.82 56.2704 153.86 55.2365 153.9C53.1637 153.979 51.0909 154.064 49.0181 154.139C46.9453 154.213 44.7875 154.253 42.7947 154.343C40.6519 154.353 37.9348 154.039 36.5663 154.428C33.9441 154.054 31.3418 153.536 30.3379 154.343L30.3479 154.358Z" fill="currentColor"/>
<path d="M119.888 151.819C119.883 152.317 123.224 149.549 123.739 149.046C123.224 149.549 119.678 147.906 119.408 147.109C119.683 147.906 119.888 152.317 119.893 151.819H119.888Z" fill="currentColor"/>
<path d="M59.752 221.315C59.9018 219.941 62.1244 218.587 64.3321 217.114C65.0314 215.879 67.249 214.296 68.8323 212.832C68.7324 212.862 71.0749 210.681 73.3176 208.531L77.8028 204.23C78.552 203.513 79.3062 202.801 80.0654 202.094C80.8246 201.387 81.5838 200.68 82.348 199.978C83.1871 199.216 88.0469 195.368 85.5945 197.2C89.5353 194.104 91.6331 192.451 86.9681 195.801C91.9328 192.192 94.3053 190.434 89.9749 193.576C94.61 190.186 94.4451 190.275 89.3106 193.735C94.4451 190.275 95.2343 189.728 91.9378 192.003C95.3142 189.663 95.0495 189.827 90.4793 192.7C95.3442 189.648 95.544 189.518 91.778 191.749C95.6239 189.464 95.7388 189.389 94.57 190.141C95.8037 189.359 95.8386 189.349 97.7666 189.235C95.8786 189.349 95.8536 189.359 97.2521 189.558C95.8736 189.329 95.9535 189.27 99.0702 186.721C96.1084 189.095 96.0634 189.12 98.5707 186.89C97.357 187.955 96.9075 188.324 97.2921 187.881C97.6767 187.438 99.4248 186.183 101.033 183.968C99.4698 186.123 97.8715 187.218 97.7966 187.283C97.7216 187.348 98.6507 186.382 100.584 184.371C98.7556 186.263 98.326 186.681 98.9004 186.039C99.4748 185.396 102.567 183.883 103.206 181.354C102.701 183.744 100.454 184.6 100.289 184.535C100.564 184.51 103.016 183.594 103.391 181.249C103.286 183.31 102.701 183.266 102.342 182.384C104.015 181.882 106.927 180.951 105.613 178.944C106.462 181.573 110.643 179.074 108.255 176.794C110.233 177.366 111.802 177.531 112.121 177.555C112.921 177.117 112.781 176.266 111.112 174.942C113.51 175.843 115.058 176.276 115.118 176.634C116.112 175.957 116.017 174.817 114.124 173.374C116.706 174.489 117.97 175.25 117.865 175.903C118.939 174.972 118.994 173.513 117.231 172.039C119.319 173.384 119.733 174.817 119.104 175.828C119.648 175.051 119.094 173.911 116.946 172.517C119.064 173.548 119.474 173.722 118.664 173.891C119.349 172.209 119.084 170.277 117.426 169.033C120.193 170.636 120.293 168.012 119.099 166.001C121.367 166.583 121.901 164.661 121.392 163.472C123.225 163.387 123.929 162.058 123.939 161.246C124.633 161.475 124.623 161.49 123.924 161.261C124.623 161.49 125.822 160.141 125.402 159.758C125.822 160.141 125.962 160.281 125.567 159.917C125.962 160.281 124.838 161.734 124.174 161.485C124.838 161.734 124.833 161.739 124.174 161.485C124.838 161.734 124.828 161.744 124.164 161.495C124.164 162.357 123.514 163.87 121.756 163.825C122.296 165.159 121.856 167.25 119.658 166.389C120.917 168.624 120.892 171.228 118.195 169.281C119.858 170.581 120.108 172.557 119.474 174.225C120.243 173.936 119.903 173.543 117.875 172.423C119.938 173.857 120.398 175.395 119.888 176.4C120.438 175.569 119.998 174.235 117.915 172.756C119.998 174.235 120.398 175.723 119.823 176.644C120.273 175.768 119.718 174.369 117.591 172.896C119.424 174.499 119.464 176.112 118.5 177.038C118.535 176.42 117.256 175.549 114.579 174.285C116.637 175.863 116.881 177.122 115.982 177.809C115.882 177.466 114.289 176.948 111.692 175.888C113.64 177.346 113.979 178.277 113.235 178.725C112.926 178.696 111.247 178.462 108.97 177.73C110.573 178.964 110.253 180.199 109.424 180.732C108.59 181.264 107.192 181.145 106.462 179.841C108.395 182.051 103.955 183.062 101.962 183.928C101.852 185.013 102.167 185.297 102.756 183.48C101.837 185.65 98.9204 186.78 98.7605 187.009C98.6007 187.238 100.848 186.512 102.102 184.749C100.753 186.641 98.0763 187.736 97.5368 188.239C96.9974 188.742 97.407 188.657 98.6607 188.189C96.0334 189.304 96.0135 189.364 98.4209 190.245C95.9236 189.379 95.9186 189.389 98.2461 190.529C95.9136 189.384 95.8986 189.384 97.9015 190.564C95.8636 189.389 95.8287 189.394 95.1444 191.36C95.7687 189.424 95.6788 189.528 92.5421 192.844C95.5989 189.583 95.4341 189.742 91.3284 193.72C95.1793 189.962 95.3991 189.742 92.5272 192.665C95.3242 189.812 94.6399 190.469 90.1647 194.741C94.6399 190.474 94.7748 190.34 90.6542 194.308C94.4851 190.594 92.3474 192.59 87.8371 196.777C92.0527 192.844 90.1147 194.626 86.3837 198.036C88.6563 195.906 84.0262 200.107 83.1721 200.869C82.3979 201.556 81.6287 202.248 80.8595 202.94C80.0904 203.632 79.3212 204.324 78.552 205.016C77.0186 206.405 75.4803 207.799 73.9419 209.183C72.4035 210.572 70.7753 211.981 69.3018 213.325C67.6636 214.704 65.381 216.207 64.5868 217.382C62.3342 218.776 60.0067 220.046 59.7619 221.31L59.752 221.315Z" fill="currentColor"/>
<path d="M126.706 162.004C127.026 162.387 127.795 158.131 127.865 157.414C127.795 158.126 124.019 159.142 123.295 158.703C124.014 159.137 127.021 162.387 126.701 161.999L126.706 162.004Z" fill="currentColor"/>
<path d="M110.178 103.577C108.765 101.62 108.17 100.844 108.165 100.65C108.195 100.196 108.805 100.296 110.558 100.824C108.795 99.9774 107.866 99.1261 107.511 97.767C107.431 97.2194 107.911 96.0196 109.679 93.9885C107.871 95.6861 107.011 96.0196 106.242 94.8945C106.112 95.3874 105.968 94.1876 105.733 91.4246C105.593 94.6655 105.528 93.7097 105.218 90.6878C105.358 92.2809 105.218 91.9025 104.789 90.4688C105.029 90.9268 104.809 89.5826 104.509 88.6566C104.614 87.9447 104.264 85.6597 104.125 85.4456C104.04 83.7878 103.83 82.2644 104.334 83.7778C103.925 81.5973 103.625 80.0291 103.8 80.8605C103.67 78.7298 103.825 77.8486 104.654 78.3813C103.745 77.1616 103.805 75.225 104.459 73.6369C104.294 71.4663 104.769 69.1912 105.343 67.1601C104 71.7601 103.725 71.8397 103.965 70.4308C103.66 70.1321 103.87 68.1408 104.12 66.4531C103.81 67.9217 103.645 70.5404 103.77 66.6124C103.58 68.0163 103.49 70.1919 103.58 70.6947C103.32 72.1733 103.22 72.2131 103.146 67.1501C103.051 69.3207 102.906 69.6791 102.356 67.8122C102.806 70.3711 102.856 70.7743 102.401 68.9224C102.631 71.2672 103.285 73.0395 100.374 70.401C101.672 71.2921 101.887 73.0047 101.502 75.3345C101.837 76.2356 101.477 78.1523 100.718 79.5263C101.712 78.3763 101.442 77.2711 99.0749 78.7148C101.377 77.4852 101.602 77.749 100.498 80.4324C101.472 78.0328 101.088 78.1523 99.02 80.1586C101.048 78.2668 101.372 78.3166 100.523 80.9153C101.467 78.2419 101.113 78.3265 99.1149 80.5767C100.913 78.67 100.973 80.6813 100.164 83.4542C100.893 80.8406 100.743 79.0434 99.1648 81.1244C100.773 79.0086 100.958 80.751 100.234 83.3796C100.978 80.8356 100.793 79.2127 99.3146 81.4231C100.728 79.367 100.833 81.2339 100.124 83.6534C100.993 81.209 101.038 79.3272 99.6842 81.5475C101.288 79.0534 101.527 80.5419 100.703 83.2003C101.512 80.5767 101.253 79.128 99.6842 81.6272C100.968 79.4566 100.898 81.3683 100.054 83.7131C100.733 81.4081 100.643 79.5412 99.3296 81.5475C100.733 79.3521 100.933 80.9352 100.224 83.4045C100.913 80.8705 100.698 79.1977 99.1948 81.3285C100.618 79.3023 100.738 81.1393 100.054 83.5936C100.823 80.98 100.808 78.9339 99.1648 80.8555C101.063 78.5257 101.442 78.3763 100.538 81.0348C101.402 78.451 100.978 78.6899 99.1848 80.9949C100.783 79.0384 100.908 80.8804 100.229 83.4045C100.918 80.97 100.673 79.4715 99.3047 81.667C100.458 79.8001 100.463 81.7616 99.8341 83.8426C100.563 81.8512 100.563 81.5923 99.5993 83.4343C99.889 82.349 100.588 80.4274 100.618 81.204C101.442 79.0384 101.712 79.4716 100.543 83.5488C101.068 81.5077 101.078 82.0354 100.533 84.1213C101.442 82.2445 101.642 82.3341 101.253 84.3354C102.097 82.2843 102.401 82.2793 102.471 84.3902C102.127 82.5034 101.637 82.7075 100.883 84.43C101.337 82.6876 101.507 82.3341 101.477 84.0915C101.417 82.3042 100.853 82.8618 100.034 84.44C100.309 83.3696 100.289 83.4443 100.034 84.5246C100.813 83.0908 101.407 82.6228 101.732 84.2657C101.572 82.6079 101.023 83.2601 100.249 84.7934C100.364 84.0815 100.209 84.7536 99.8441 85.819C100.398 85.5949 101.532 86.7449 103.106 87.5265C101.782 87.1581 100.983 87.1382 100.478 87.7058C100.878 87.7356 101.667 89.0698 102.187 89.6075C101.542 89.03 100.643 87.7157 100.139 87.8203C100.568 87.4319 101.367 88.2335 102.476 88.8906C101.073 88.0194 99.899 86.8047 99.3096 87.3374C99.6693 87.0785 100.643 88.8956 101.537 90.0406C100.808 89.2192 100.054 88.109 99.5394 88.3778C100.029 88.4177 100.768 89.9908 101.003 90.7077C100.768 89.9908 100.024 88.4326 99.4845 88.4276C99.949 88.2086 100.608 89.4681 101.118 90.3991C100.374 89.1794 99.934 88.4575 99.6443 89.0947C100.413 89.8664 101.587 92.5945 101.477 93.8441C101.657 92.948 101.168 91.9075 100.518 91.4445C101.178 92.1415 101.677 93.406 101.288 94.103C101.602 93.411 100.408 91.1458 98.94 90.1402C98.6204 89.6871 97.3068 89.7568 95.8034 91.2055C96.6974 90.0804 96.9372 88.5272 96.5026 88.1688C96.9272 87.3971 96.6175 87.0785 95.8733 87.6908C95.8883 87.3025 95.3389 87.4071 94.5946 87.8302C94.4048 87.7755 93.7256 88.3231 93.4159 88.9503C93.7655 88.338 94.3399 87.9049 94.4198 88.0294C94.9343 87.7555 95.1291 87.9149 94.8644 88.3281C95.0791 88.114 94.8194 88.2683 94.3449 88.577C94.265 88.6616 93.8155 89.1146 93.5108 89.5428C93.6856 89.1246 93.9803 88.6965 94.0752 88.6268C94.3249 88.333 94.4698 88.2235 94.3399 88.4525C94.4148 87.9149 94.22 87.5614 93.9603 87.7655C93.6906 87.5415 93.2161 87.9148 93.2011 88.5919C93.1961 87.7306 93.6706 87.0735 93.9304 87.2428C94.23 86.8644 94.4748 87.1581 94.4598 87.88C94.4248 87.0287 94.1451 86.5358 93.8155 86.8594C93.5158 86.5807 93.0013 87.2029 93.0962 88.1339C92.9914 87.1681 93.1762 86.5657 93.296 86.7648C92.8315 86.5906 92.2421 87.2428 92.5318 88.1588C92.1422 87.2577 92.6417 86.6255 93.2461 86.7748C93.1961 86.5807 93.3959 87.1133 93.7555 88.0144C93.5508 87.0785 93.5308 86.491 93.5308 86.7499C93.2461 86.5159 92.8965 87.1631 93.1112 88.1239C92.9614 87.2079 93.3759 86.6155 93.6706 86.8893C93.7955 86.6304 93.9104 87.2029 94.0203 88.0791C93.8355 87.3523 93.6157 87.0088 93.5857 87.2975C93.1262 87.1631 92.7266 87.7705 92.9913 88.6068C92.6817 87.7705 93.0313 87.1731 93.5058 87.3025C93.4359 87.0337 93.6007 87.3971 93.8454 88.1439C93.6457 87.2527 93.5657 86.6653 93.5508 86.8893C93.2061 86.6404 92.8465 87.2179 93.0813 88.1289C92.9814 87.1382 93.1812 86.5109 93.286 86.7001C92.8215 86.5209 92.1922 87.1781 92.4569 88.0991C92.0174 87.1581 92.2771 86.5408 92.7067 86.5358C92.0474 86.501 91.5179 87.0785 91.9225 87.8402C91.1533 87.1034 91.2982 86.6155 91.8126 86.3118C90.9935 86.5508 90.504 87.0038 90.6438 87.2926C90.2143 87.0287 90.3442 86.6752 90.6888 86.0679C90.0695 86.5956 89.6249 86.9092 89.2104 86.6503C89.1255 86.725 87.4672 86.3666 85.3195 85.7542C83.1668 85.1419 80.4846 84.3205 78.207 83.6086C75.9345 82.8967 74.0764 82.2893 73.582 82.1151C73.9815 82.6975 96.8772 90.1203 72.0586 82.4635C100.728 92.0568 71.6091 82.9664 71.0596 82.812C74.8756 84.2408 86.1886 87.5315 69.8359 83.8177C70.9298 84.1711 84.6152 86.7698 78.9862 87.5216C79.8004 87.6809 82.1928 87.9746 84.5104 88.3778C86.8279 88.7811 89.0755 89.2988 89.59 89.9062C90.1244 89.5079 91.1333 90.0456 92.3271 90.7923C92.9364 90.9865 94.2051 91.6735 94.7245 91.9125C96.0681 92.6443 97.4666 93.4159 97.6015 93.4159C99.005 94.2175 99.869 94.7004 99.1598 94.2872C100.728 95.2231 100.993 95.4372 99.2197 94.6904C102.057 95.9947 102.956 96.398 99.7941 95.2878C102.401 96.4727 103.575 97.0651 102.911 97.1895C103.885 98.1753 103.23 98.8573 100.913 100.112C103.54 99.0166 104.909 98.9768 105.288 99.375C106.732 99.9924 107.416 101.093 107.965 102.979C107.701 101.217 107.626 100.674 107.801 100.958C108.145 100.874 108.755 101.64 110.173 103.592L110.178 103.577Z" fill="currentColor"/>
<path d="M208.624 221.697C207.895 220.776 207.046 220.029 207.311 220.268C206.267 219.173 205.802 218.645 206.347 219.069C205.483 218.153 205.438 217.998 206.407 218.735C205.887 218.178 206.586 218.675 208.165 219.915C206.946 218.82 205.343 217.406 205.607 217.476C204.548 216.629 204.119 216.241 204.539 216.49C203.869 216.012 204.014 216.146 204.963 216.883C203.814 215.937 202.745 214.912 203.14 215.111C202.236 214.15 201.816 213.657 202.501 214.255C201.527 213.592 201.457 213.513 202.406 214.115C201.771 213.702 202.74 214.469 204.174 215.335C202.775 214.434 201.896 213.682 202.705 213.976C201.766 213.423 202.061 213.513 203.4 213.856C202.416 213.622 203.165 214.031 204.563 214.414C204.204 214.444 205.463 214.971 206.991 215.315C205.647 215.036 204.728 214.673 205.103 214.593C203.844 214.289 203.15 213.901 204.104 213.986C202.196 213.518 201.322 213.035 202.366 213.189C201.177 213.025 201.731 213.468 203.619 214.394C202.196 213.737 201.542 212.766 202.146 212.846C200.438 212.497 201.667 212.373 202.271 212.243C201.362 212.298 201.287 212.179 202.046 211.681C201.447 212.099 201.667 212.258 202.865 212.323C202.051 212.413 202.715 212.632 204.543 212.681C202.725 212.607 202.071 212.358 202.95 212.139C201.726 212.119 201.542 211.915 202.321 211.123C201.437 211.85 200.558 211.651 201.841 210.152C201.047 211.292 201.587 211.148 203.15 209.993C202.326 210.854 203.789 210.212 205.393 209.027C203.784 210.207 202.326 210.829 203.145 209.933C201.592 211.088 201.057 211.213 201.831 209.963C200.553 211.492 200.368 211.546 201.092 210.147C200.518 211.372 200.718 211.402 201.846 210.451C201.122 211.317 201.886 211.024 203.585 209.774C201.881 210.999 201.107 211.258 201.791 210.262C200.673 211.258 200.458 211.173 200.892 209.699C200.233 211.218 200.318 210.805 201.072 208.559C200.663 210.227 201.082 209.694 202.066 207.683C201.637 209.052 202.665 207.658 203.614 205.961C202.191 207.877 201.442 208.629 201.851 206.623C201.292 208.216 201.682 206.976 202.196 205.079C202.191 205.886 201.951 205.652 202.186 204.363C202.346 204.831 202.556 204.203 202.785 203.068C201.417 204.731 202.541 200.713 202.291 199.374C202.016 198.637 202.291 196.81 202.051 195.874C201.572 193.998 201.167 192.4 200.877 191.274L200.423 189.492C200.423 189.492 200.108 190.538 199.639 192.111C199.404 192.897 199.129 193.813 198.835 194.794C198.54 195.775 198.245 196.91 197.916 197.866C197.621 198.991 197.681 202.695 196.997 200.937C197.186 202.74 197.711 205.348 197.206 204.826C197.666 206.697 197.221 206.08 196.197 203.616C196.722 204.955 197.326 206.503 196.792 205.592C197.606 207.424 198.05 208.49 197.206 207.016C198.265 209.261 198.505 209.834 197.296 207.977C198.335 209.679 198.11 209.341 196.897 207.454C197.826 208.908 197.151 207.828 196.043 206.05C197.151 207.852 197.906 209.077 196.957 207.683C198.215 209.63 198.49 210.083 197.386 208.529C198.695 210.466 198.65 210.456 197.211 208.574C198.35 210.093 197.995 209.63 196.582 207.778C197.586 209.097 196.657 207.882 195.413 206.229C196.657 207.877 197.586 209.097 196.577 207.783C197.985 209.64 198.34 210.108 197.166 208.619C198.605 210.501 198.615 210.556 197.076 208.813C198.295 210.277 197.941 209.908 196.387 208.196C197.496 209.475 196.527 208.46 195.064 206.906C196.497 208.46 197.371 209.381 196.192 208.111C197.711 209.774 197.98 210.078 196.597 208.659C198.1 210.312 197.491 210.142 195.533 208.599C196.822 209.794 195.938 209.172 194.269 207.917C195.119 208.709 193.695 207.748 192.451 206.892C194.155 208.136 195.348 209.067 193.995 208.251C195.243 209.316 194.16 208.878 192.546 208.131C192.706 208.544 191.033 207.887 189.604 207.414C191.642 208.619 187.567 207.862 186.338 208.012C184.989 208.335 183.371 208.554 182.057 208.793C179.42 209.276 177.447 209.635 177.447 209.635L179.165 210.312C180.249 210.74 181.788 211.347 183.596 212.059C184.515 212.418 185.798 212.836 186.488 213.199C187.791 213.622 191.657 213.224 189.649 214.449C190.803 214.344 191.487 214.205 191.073 213.996C192.381 213.901 193.375 213.647 192.476 213.538C194.489 213.304 196.082 212.985 194.329 213.269C196.257 213.144 196.237 213.294 194.424 213.797C196.008 213.677 195.119 214.284 193.395 214.981C195.248 214.299 196.712 213.488 195.328 213.687C197.406 213.04 197.936 212.711 196.272 212.811C198.54 212.467 198.919 212.457 197.411 212.811C198.845 212.657 198.904 212.9 197.871 213.826C198.855 213.334 198.525 214.065 197.156 215.519C198.545 214.075 198.904 213.358 198.04 213.901C199.034 212.965 199.019 212.741 197.821 213.05C199.209 212.622 199.149 212.781 197.566 213.687C198.825 213.189 198.675 213.672 197.431 214.966C198.36 214.329 197.626 215.624 196.247 217.047C197.631 215.629 198.375 214.329 197.481 214.976C198.725 213.677 198.895 213.194 197.731 213.717C199.284 212.801 199.504 213.787 198.765 214.484C199.549 213.896 199.704 214.135 199.614 215.33C199.888 214.518 200.033 215.215 199.928 216.973C200.053 215.21 199.933 214.513 199.794 215.29C199.843 214.105 199.729 213.851 199.324 214.339C199.819 213.717 199.888 212.701 199.814 213.294C199.993 212.945 200.238 213.329 200.618 214.369C200.518 213.831 201.002 214.792 201.512 216.221C200.797 214.299 200.453 213.662 200.578 214.742C200.468 213.787 200.837 214.668 201.222 216.485C201.147 215.609 201.442 216.306 201.702 217.505C201.751 217.187 202.056 218.128 202.306 219.432C202.046 218.043 201.736 217.052 201.741 217.386C201.492 216.191 201.257 215.594 201.442 216.475C201.052 214.767 200.847 214.195 201.372 215.31C201.017 214.334 201.152 214.454 201.756 215.439C201.472 214.812 202.146 215.773 202.91 216.963C201.891 215.295 201.751 215.021 202.675 216.296C202.206 215.554 202.541 215.972 203.215 216.868C203.1 216.644 203.674 217.381 204.529 218.496C204.484 218.362 205.617 219.79 206.736 221.174C205.532 219.552 205.043 218.835 205.587 219.382C204.873 218.402 205.178 218.337 206.097 219.223C205.662 218.705 206.187 219.208 207.261 220.288C207.036 220.024 207.905 220.771 208.634 221.692L208.624 221.697Z" fill="currentColor"/>
<path d="M174.929 187.548C175.029 187.568 174.854 187.429 174.465 187.16C174.555 187.324 174.68 187.494 174.929 187.548Z" fill="currentColor"/>
<path d="M182.537 200.958C184.699 198.832 184.445 198.732 182.027 200.345C184.125 198.742 183.086 197.821 179.889 197.144C179.829 195.999 179.23 194.914 178.331 193.829C177.432 192.743 176.233 191.668 174.975 190.533C171.653 186.988 167.647 184.728 164.276 181.383C162.693 179.814 161.329 178.336 160.021 177.196C158.547 175.737 157.174 174.378 156.354 172.865C155.89 171.172 154.741 169.469 155.181 168.977C153.308 169.191 153.208 170.604 153.512 172.382C153.128 173.437 153.153 174.856 153.133 176.28C153.567 177.649 154.047 179.182 154.521 180.716C155.95 185.311 157.353 189.876 157.353 189.876C157.353 189.876 156.21 185.291 155.096 180.676C154.721 179.137 154.357 177.594 154.032 176.22C154.132 174.503 154.252 172.924 154.516 171.929C154.446 170.609 154.531 169.873 155.131 170.301C154.611 169.758 155.43 172.023 157.243 174.821C158.497 175.901 159.951 177.166 161.419 178.585C164.311 181.726 167.278 184.395 171.029 187.267C171.953 187.999 172.892 188.681 173.776 189.438C174.645 190.219 175.499 190.991 176.328 191.733C178.816 193.973 181.058 195.989 180.788 198.613C184.295 198.897 185.294 199.778 183.091 201.635C185.274 199.469 185.154 199.235 182.527 200.948L182.537 200.958Z" fill="currentColor"/>
<path d="M189.828 207.049C190.917 204.42 190.662 204.321 189.044 206.601C189.683 205.466 189.483 204.445 188.449 203.609C187.475 202.748 185.662 202.076 183.07 201.628C182.121 197.082 178.06 193.458 174 189.839C172.646 188.634 171.223 187.554 169.849 186.444C167.277 184.397 165.054 182.396 162.702 180.012C161.738 179.066 160.899 178.224 160.144 177.562C158.626 176.243 157.702 175.466 157.672 175.501C157.462 175.73 157.367 175.984 157.382 176.263C157.397 176.542 157.517 176.786 157.752 176.995C157.987 177.204 158.221 177.283 158.496 177.268C158.771 177.249 159.011 177.124 159.22 176.895C159.245 176.865 159.845 177.149 160.784 177.712C167.132 181.58 172.771 187.987 180.708 189.087C181.886 189.51 182.825 189.834 183.4 190.78C184.544 192.667 184.304 195.24 181.512 199.173C185.677 197.749 188.714 196.933 188.744 197.008C192.695 196.838 193.639 197.565 189.613 200.044C193.614 200.896 192.65 203.499 190.622 207.318C191.356 205.874 191.976 204.649 192.405 203.644C192.91 203.808 193.164 203.718 193.109 203.126C193.109 202.101 192.225 199.92 189.823 200.572C192.006 200.179 192.7 201.533 192.575 202.305C192.45 203.076 191.456 204.844 190.223 207.109C192.57 202.932 191.266 204.724 189.833 207.044L189.828 207.049Z" fill="currentColor"/>
<path d="M162.752 167.909C162.837 167.008 162.468 166.675 162.428 165.973C164.386 176.447 173.256 183.74 183.316 186.747C181.642 188.594 179.899 189.037 177.816 189.854C181.048 190.745 184.2 190.227 187.416 191.128C189.959 191.815 191.837 192.776 189.274 193.876C190.603 194.3 191.622 194.862 192.321 195.554C194.149 197.819 193.999 201.702 190.098 201.553C194.439 203.445 195.438 209.031 197.406 212.809C196.327 212.51 195.622 212.55 194.883 211.883C197.036 212.476 198.554 214.512 201.042 214.736C200.228 212.665 198.035 211.365 196.551 210.031C197.665 211.032 199.149 212.366 200.263 213.367C198.035 211.365 194.768 209.772 193.215 207.034C195.143 210.106 197.705 211.739 200.637 213.7C199.523 212.7 197.74 212.441 196.966 211.072C200.308 214.074 204.648 215.96 209.288 216.782C205.502 218.738 202.53 216.075 199.304 215.184C202.94 217.11 207.245 218.3 211.181 219.152C208.803 221.038 205.947 220.481 203.09 219.923C206.281 220.112 210.217 220.964 212.56 218.375C207.919 217.558 202.945 217.11 198.899 214.148C201.831 216.11 205.392 216.632 208.993 217.857C205.132 218.41 201.866 216.817 198.639 215.926C202.201 216.448 205.542 219.445 209.368 218.191C206.511 217.633 202.945 217.11 200.387 215.482C205.882 219.077 212.899 218.007 218.803 215.94C215.456 219.639 210.187 220.262 205.212 219.814C211.67 221.596 217.874 218.455 223.408 216.055C221.51 220.381 217.02 222.378 212.859 224C219.133 222.268 225.301 218.425 227.089 211.983C226.305 217.31 221.92 221.417 217.095 223.781C223.668 220.974 227.609 215.129 230.101 208.657C228.647 214.726 225.416 220.531 219.547 223.303C224.377 220.939 227.648 215.836 228.802 210.838C226.979 216.573 222.669 222.084 216.765 224.15C221.63 222.487 226.015 218.385 226.799 213.058C222.824 218.201 216.99 221.671 210.681 222.706C215.916 221.377 222.529 219.276 224.312 212.834C220.371 218.679 213.094 221.521 206.336 220.814C210.941 220.929 216.211 220.302 219.962 217.643C216.615 221.342 211.346 221.964 206.741 221.85C211.346 221.964 216.246 221.003 218.883 217.344C213.314 219.042 207.705 220.038 202.285 217.852C206.626 219.744 211.196 219.152 215.761 218.564C211.975 220.521 207.74 220.74 203.469 220.257C205.957 220.481 208.409 220.003 210.896 220.227C207.929 217.558 203.399 218.853 200.432 216.184C203.289 216.742 205.887 219.077 208.968 217.155C204.363 217.041 201.027 214.039 197.391 212.112C198.469 212.411 198.839 212.744 199.578 213.406C199.468 211.296 196.981 211.072 195.782 209.135C194.604 207.786 193.315 205.79 192.496 205.999C194.284 204.306 197.231 210.24 197.625 210.001C198.02 209.762 196.986 208.134 194.663 204.226C195.593 205.376 195.183 204.381 194.159 201.687C193.65 200.338 193.075 198.974 192.366 197.959C191.617 197.282 190.718 196.848 189.654 196.744C194.409 195.176 192.166 194.399 188.375 193.911C187.436 193.737 186.113 193.632 184.494 193.603C182.876 193.573 180.963 193.608 178.845 193.717C180.404 191.487 184.155 188.828 183.41 188.161C178.181 182.79 169.235 180.788 165.29 173.246C163.472 169.721 162.777 167.914 162.777 167.914L162.752 167.909Z" fill="currentColor"/>
<path d="M186.417 143.651C188.72 144.378 189.809 144.761 189.729 144.736C189.649 144.711 188.4 144.293 186.018 143.566C188.265 144.313 189.454 144.751 189.534 144.781C189.614 144.811 188.59 144.423 186.422 143.651H186.417Z" fill="currentColor"/>
<path d="M192.965 146.918C194.368 147.754 195.782 147.68 197.225 148.312C195.407 147.346 193.959 146.719 192.176 146.46C193.624 147.092 195.407 147.351 196.516 148.352C195.402 147.351 193.284 147.461 191.841 146.833C192.92 147.132 194.328 147.057 195.442 148.058C192.955 147.834 191.102 146.166 188.614 145.942C188.984 146.276 190.063 146.574 190.767 146.535C188.315 147.013 186.127 145.718 184.009 145.828L184.713 145.793C175.433 144.16 167.931 149.482 161.943 156.232C160.669 155.401 158.901 154.465 159.565 154.062C157.897 155.57 158.831 156.581 160.499 157.611C160.729 158.503 160.884 159.145 161.163 160.2C162.677 164.198 164.31 168.345 166.608 171.75C164.235 166.936 161.493 161.793 160.764 156.566C159.66 155.665 159.21 155.082 160.309 155.013C159.2 154.948 161.163 155.904 162.887 156.905C168.596 148.735 178.215 143.304 188.275 146.306C187.53 145.638 186.826 145.673 186.122 145.713C188.275 146.306 190.427 146.903 192.915 147.122C191.836 146.823 190.762 146.53 189.683 146.231C192.205 147.157 194.658 146.679 196.731 148.332C197.23 148.446 196.056 148.008 192.96 146.913L192.965 146.918Z" fill="currentColor"/>
<path d="M199.563 151.717C204.233 150.004 205.661 149.502 209.307 148.212C205.486 149.317 203.888 149.636 198.544 150.253C203.573 149.631 204.892 149.298 207.789 147.978C206.271 148.67 205.147 149.118 203.728 149.502C202.31 149.885 200.607 150.194 198.349 150.184C200.547 150.243 202.015 150.029 202.894 149.805C203.773 149.581 204.028 149.372 204.198 149.044C203.384 149.497 202.48 149.835 200.831 150.209C200.007 150.393 199.238 150.353 198.249 150.219C196.965 150.094 195.517 149.462 194.443 149.168C194.813 149.502 195.522 149.467 195.892 149.8C193.739 149.208 191.586 148.611 189.099 148.391C189.803 148.357 190.138 147.983 190.882 148.65C180.858 146.35 169.719 149.746 163.066 157.845C170.089 150.079 182.566 145.205 192.7 149.616C192.33 149.283 191.956 148.949 191.251 148.984C193.07 149.95 195.187 149.84 197.34 150.433L195.932 150.507C198.419 150.731 200.572 151.324 202.445 150.472C204.343 150.039 205.741 149.741 207.454 149.402C205.277 149.86 204.348 150.139 199.568 151.732L199.563 151.717Z" fill="currentColor"/>
<path d="M254.754 147.654C254.734 145.692 254.255 143.248 251.502 144.801C256.183 139.624 259.344 132.41 257.566 125.45C259.794 127.451 261.647 129.114 262.501 131.892C262.356 129.079 259.424 127.118 257.566 125.45C258.265 132.111 257.221 139.215 252.167 144.059C257.366 142.028 258.82 135.959 261.792 131.927C262.606 133.998 262.566 139.992 265.942 137.991C267.311 137.204 268.604 136.303 269.798 135.302C273.389 132.295 276.101 128.367 277.275 123.723C275.887 128.731 272.745 133.356 268.41 136.577C267.326 137.383 266.167 138.1 264.953 138.688C262.076 137.553 262.636 134.7 261.822 132.629C255.428 145.647 238.901 154.26 225.345 146.15C223.667 145.259 222.528 144.806 221.469 144.313C219.092 143.561 217.224 142.192 216.724 139.215C218.747 144.114 220.81 145.169 222.199 144.726C219.771 145.379 216.669 144.532 215.546 139.932C214.172 143.93 214.781 144.169 218.098 141.968C213.658 143.945 211.93 143.482 213.633 139.036C211.36 143.636 210.516 143.641 212.119 138.951C207.419 143.133 206.086 142.879 205.951 136.935C202.909 142.237 201.071 141.849 197.01 136.169C198.179 141.276 196.526 140.953 191.586 136.91C192.535 140.156 190.208 139.678 186.352 137.951C183.635 138.344 179.794 137.563 177.057 137C174.314 136.442 172.671 136.109 172.671 136.109L170.479 136.029C170.479 136.029 172.252 136.492 175.089 137.229C177.926 137.966 181.821 138.981 184.723 139.24C188.205 140.644 190.417 141.222 189.054 138.882C194.438 142.327 196.236 142.855 194.218 138.573C200.487 143.96 202.944 144.542 205.531 139.927C205.102 145.657 204.807 146.19 202.03 142.496C204.957 146.842 207.085 146.937 213.393 144.229C209.697 147.166 210.181 147.3 214.976 145.259C212.479 148.147 211.045 148.958 212.369 150.312C209.797 149.421 211.939 148.819 215.676 146.892C213.153 148.341 215.256 148.341 220.021 147.674C216.055 148.356 214.747 148.371 216.654 147.026C215.246 148.659 218.383 148.953 222.668 149.54C222.423 150.317 223.327 151.397 224.057 153.409C222.798 155.141 221.369 157.81 219.881 162.489C222.159 157.665 224.491 154.902 225.815 152.801C226.719 150.651 226.619 149.162 225.5 147.654C223.777 146.22 221.035 144.766 219.546 141.281C220.131 142.71 221.19 143.696 222.438 144.423C231.733 152.508 244.655 149.371 255.164 145.359C254.979 145.936 254.574 146.932 254.739 147.644L254.754 147.654Z" fill="currentColor"/>
<path d="M159.015 130.902C157.782 131.943 158.371 131.763 159.979 131.057C160.504 131.256 162.047 130.932 163.94 130.623C165.224 129.578 166.727 128.368 168.335 127.074C171.017 124.918 174.004 122.529 176.786 120.298C178.18 119.183 179.518 118.113 180.562 117.386C181.936 116.161 183.015 115.28 182.5 116.938C184.193 114.962 185.332 113.737 184.378 114.095C185.732 113.423 184.988 114.339 182.93 116.644C184.833 114.319 185.722 113.174 184.333 113.737C185.587 113.164 184.568 114.299 182.655 116.53C184.323 114.489 185.117 113.528 184.173 114.006C185.132 113.647 184.348 114.723 182.85 116.764C184.323 114.887 184.758 114.2 183.969 114.583C184.188 114.503 183.185 115.494 181.786 116.983C181.381 116.594 179.793 117.869 178.035 119.273C174.524 122.081 170.368 125.406 166.757 128.304C165.019 129.468 163.346 130.489 161.523 130.922C159.395 130.554 157.722 132.401 157.727 130.414C156.887 133.332 158.391 133.342 160.808 132.675C161.378 133.317 162.851 133.287 164.08 134.019C165.898 134.397 167.611 134.387 169.284 134.312C174.069 133.705 178.829 133.123 178.829 133.123C178.829 133.123 174.099 133.446 169.344 133.74C167.686 133.73 166.023 133.715 164.245 133.297C162.467 132.879 160.878 132.565 160.409 131.813C158.566 132.122 157.841 131.997 159.01 130.892L159.015 130.902Z" fill="currentColor"/>
<path d="M214.718 83.9307C212.62 88.003 211.781 89.3919 215.612 85.1752C212.175 88.7447 211.016 88.8094 211.841 84.0003C210.117 87.3159 210.377 85.7627 211.511 82.3874C209.438 85.7179 208.239 87.4553 209.123 83.5174C208.314 89.0882 209.593 88.9737 214.088 84.5529C208.179 90.3876 205.497 91.906 204.883 84.0601C204.633 91.9608 206.451 90.4971 211.995 83.8161C207.6 88.8891 204.408 90.2034 199.444 84.5679C198.275 91.8413 195.338 92.1549 189.909 89.1978C189.734 91.5127 187.072 90.5569 184.55 88.8244C182.027 87.0919 179.65 84.5878 177.422 81.1677C179.095 85.2599 180.863 88.3962 182.382 90.985C183.905 93.5688 185.179 95.6049 184.125 96.8445C186.577 99.3835 186.702 101.131 183.161 102.918C185.119 105.148 183.421 107.419 180.474 110.351C184.814 106.338 186.328 104.636 182.991 104.695C184.674 104.76 181.503 106.597 176.468 109.674C182.107 105.91 180.294 107.11 175.499 110.261C176.393 109.435 174.305 110.565 172.338 111.625C164.466 115.877 158.562 119.063 158.562 119.063L156.834 120.407C156.834 120.407 163.457 117.281 171.404 113.527C173.391 112.586 175.459 111.61 175.999 111.805C179.425 109.679 181.318 108.723 178.176 112.387C181.733 109.614 184.03 108.001 182.961 108.364C185.399 108.155 184.465 109.933 181.563 113.94C184.095 110.61 185.753 108.27 183.336 107.14C186.977 105.343 186.542 104.75 182.811 104.934C183.251 105.074 180.389 105.99 176.148 107.543C181.273 105.577 185.014 104.242 183.641 103.585C190.858 103.371 192.956 103.834 185.249 106.134C196.632 107.08 198.21 109.863 195.463 122.274C198.979 110.535 197.501 107.896 185.558 106.995C193.75 103.764 191.477 102.281 184.225 100.056C186.068 99.8315 182.936 98.8707 179.35 97.8551C175.764 96.8395 171.723 95.7692 167.198 94.3354C170.534 95.3361 173.636 96.1077 176.593 96.735C179.55 97.3623 182.352 97.8452 183.616 97.8103C187.831 98.7114 190.498 99.0848 186.233 96.5209C195.863 99.9012 198.555 100.344 192.261 92.3491C204.134 101.479 207.011 102.166 221.99 98.8956C206.212 101.459 203.799 100.275 197.581 88.0876C201.771 98.124 202.156 97.1631 202.101 85.4042C205.627 94.8283 208.714 93.4642 216.141 86.4348C207.68 92.4237 205.198 92.1101 204.423 83.7465C204.254 88.8443 205.797 85.8971 208.479 81.1328C207.285 85.5735 207.196 87.8835 209.039 83.6369C209.059 89.8449 211.016 89.5114 215.577 85.2649C211.316 89.8449 212.625 88.003 214.723 83.9307H214.718Z" fill="currentColor"/>
<path d="M164.684 130.325C164.874 130.569 165.109 130.709 165.389 130.744C165.668 130.778 165.928 130.699 166.173 130.51C166.408 130.325 166.542 130.096 166.572 129.823C166.602 129.549 166.523 129.29 166.328 129.046C166.278 128.986 167.976 127.572 170.543 125.486C173.111 123.401 176.552 120.643 179.983 117.899C181.706 116.515 183.425 115.136 182.92 116.964C184.324 114.912 185.168 113.663 184.209 113.932C185.318 113.294 184.628 114.176 182.95 116.386C185.902 113.145 187.875 111.233 185.073 112.752C189.808 111.278 189.773 113.23 187.425 118.716C190.063 112.622 190.387 110.059 184.733 111.119C188.249 109.327 185.787 111.154 181.562 114.838C185.702 111.144 188.194 109.227 184.688 110.935C190.467 109.844 190.247 112.373 187.535 118.696C190.187 112.408 190.352 109.919 184.668 110.989C188.025 109.317 185.537 111.214 181.467 114.833C185.417 111.313 187.79 109.506 184.613 111.119C189.863 110.128 189.568 112.558 187.031 118.372C189.548 112.707 189.828 110.417 184.743 111.587C187.9 110.004 185.687 111.881 182.071 115.4C185.677 111.965 187.76 110.258 184.743 111.866C189.378 110.815 188.909 113.08 186.571 118.198C188.604 113.658 188.769 111.97 185.003 113.255C187.255 112.01 185.572 113.738 183.08 116.635C184.269 114.793 184.638 114.116 183.919 114.509C184.189 114.449 183.36 115.46 182.151 116.978C181.951 116.316 180.208 117.705 178.47 119.094C171.517 124.655 164.595 130.216 164.684 130.335V130.325Z" fill="currentColor"/>
<path d="M145.426 97.7011C145.116 93.0514 144.971 93.2754 144.876 97.8953C144.846 93.8827 144.886 94.1516 145.031 98.1343C145.061 94.4353 144.776 95.9786 144.267 99.5481C143.837 100.813 143.178 104.098 142.474 107.633C141.769 111.168 141.015 114.946 140.341 118.351C139.777 120.373 139.242 122.254 138.193 123.718C137.584 124.754 136.954 125.59 136.56 124.938C135.746 127.258 135.171 128.079 134.932 125.58C136.08 128.557 137.279 127.79 138.837 125.421C139.632 126.128 140.79 125.227 142.109 124.52C143.702 123.623 144.926 122.478 146.155 121.333C149.431 117.804 152.698 114.309 152.698 114.309C152.698 114.309 149.286 117.59 145.83 120.86C144.566 121.926 143.303 122.991 141.744 123.857C140.186 124.724 138.798 125.53 138.023 124.983C136.775 126.715 136.135 127.088 136.345 125.147C136.05 127.083 136.4 126.551 137.194 124.689C137.669 124.739 138.583 123.454 139.667 121.936C139.976 120.313 140.346 118.426 140.745 116.4C141.41 113.025 142.159 109.286 142.853 105.796C143.548 102.306 144.192 99.0702 144.606 98.891C145.106 94.3656 145.381 92.892 145.426 97.7111V97.7011Z" fill="currentColor"/>
<path d="M128.154 119.525C134.108 111.037 137.12 101.011 140.661 91.0343C141.31 89.5906 141.86 88.57 142.319 88.0772C143.238 87.0317 143.793 88.0921 144.067 92.0449C144.702 87.6391 145.206 84.5176 146.4 84.9657C146.495 80.1964 147.274 79.0016 150.421 82.8947C149.641 77.8964 151.225 77.986 155.276 80.7042C151.225 77.991 149.826 77.2542 152.339 81.4559C148.443 74.6953 148.458 72.8683 156.279 77.065C149.622 67.6908 150.765 64.3354 161.659 56.9126C150.87 62.339 150.361 62.4685 161.649 58.9239C150.381 60.6066 150.905 58.6152 159.656 51.1875C150.91 58.6102 150.451 59.9494 161.154 56.1659C150.086 60.6165 150.181 59.9395 159.906 52.0338C149.157 62.5332 148.033 65.804 156.529 75.2728C145.651 69.249 144.392 69.4282 144.852 81.5157C142.699 71.7083 142.559 74.7202 142.274 84.3185C141.73 80.2313 141.046 82.7354 139.967 86.3746C139.507 87.2707 138.948 88.4505 138.304 89.8644C137.659 91.2783 137.315 92.717 136.83 94.4146C136.8 94.6884 137.135 94.32 137.135 94.32C135.791 102.495 133.374 110.375 128.943 117.693L128.164 119.53L128.154 119.525Z" fill="currentColor"/>
<path d="M148.462 95.2676C146.813 86.2766 146.394 88.492 146.014 97.3635C145.1 95.0684 144.226 99.4295 143.357 103.786C141.619 112.503 139.901 121.195 140.046 121.225C140.35 121.289 140.62 121.245 140.855 121.095C141.09 120.946 141.239 120.717 141.304 120.413C141.364 120.12 141.319 119.861 141.169 119.632C141.015 119.403 140.785 119.258 140.48 119.194C140.325 119.159 142.034 110.511 143.752 101.894C144.611 97.5825 145.47 93.2762 146.649 96.8308C146.734 86.8442 147.138 84.7134 149.581 94.3565C148.222 89.6271 147.508 87.3171 147.358 87.4466C147.193 87.5063 147.588 90.0054 148.452 94.8992C147.523 90.3091 147.068 88.0838 147.073 88.1634C147.078 88.2431 147.548 90.6327 148.462 95.2725V95.2676Z" fill="currentColor"/>
<path d="M105.018 99.6785C104.483 99.1757 104.818 98.8023 104.448 98.4688C104.483 99.1707 104.858 99.5043 104.893 100.206C104.893 100.206 104.149 99.5391 104.523 99.8727C109.268 109.496 115.687 117.272 122.085 125.934C121.825 126.925 121.98 128.015 121.45 127.976C122.374 130.32 122.614 131.545 120.342 129.857C123.134 131.341 123.498 129.822 123.248 127.04C124.297 126.88 124.742 125.481 125.541 124.292C126.45 120.244 126.56 115.659 128.498 112.035C126.565 115.659 125.746 120.284 124.702 124.132C124.018 125.646 123.433 127.129 122.464 127.224C122.579 129.34 122.305 130.037 121.231 128.448C122.195 130.106 122.125 127.458 121.141 124.167C120.332 122.723 119.487 122.116 118.409 120.817C113.084 114.947 108.859 108.47 105.797 101.486C104.708 98.7824 104.169 97.2739 105.013 99.6835L105.018 99.6785Z" fill="currentColor"/>
<path d="M104.699 99.1885C104.04 97.4311 103.595 95.6937 102.781 93.6227C103.93 95.3253 104.04 97.4361 105.189 99.1387C104.409 97.7696 104.3 95.6588 103.151 93.9562C106.223 105.431 113.085 114.945 120.987 124.055C120.987 124.055 121.991 122.945 121.621 122.612C111.712 115.722 106.487 103.654 103.081 92.5523C102.856 95.0315 105.044 96.3259 104.819 98.8051C103.67 97.1025 103.895 94.6233 102.581 92.4727C102.526 92.5523 103.156 94.5885 104.699 99.1885Z" fill="currentColor"/>
<path d="M109.818 129.369L108.554 124.789C107.78 121.971 106.167 118.865 104.354 114.867C102.176 109.162 99.7335 102.944 99.7385 96.2429C99.8484 98.3537 99.9233 99.7576 100.033 101.868C99.4788 98.0202 98.5548 93.8383 98.7046 89.9502C99.0742 90.2838 99.1142 90.9857 99.289 91.3193C97.6957 88.0385 96.3721 85.7883 96.0225 85.3851C95.6728 84.9818 96.2872 86.4305 98.1502 90.2937C91.2176 78.49 89.2696 76.3693 76.4882 77.3849C84.3998 71.5452 81.4779 68.847 71.7832 61.3844C82.5118 68.4636 85.3438 69.9123 79.8796 59.8311C85.5086 66.9851 87.4516 69.0162 87.062 65.4517C86.9671 64.5606 86.7223 63.321 86.5126 61.7379C86.8522 61.1853 87.5814 60.8467 89.2547 60.8766C97.9454 61.7876 107.375 59.5374 112.655 52.2142C118.594 43.9751 118.618 33.0675 114.338 24.3205C112.91 21.4032 111.002 18.7248 112.565 17.6843C107.001 14.9711 104.998 13.841 111.271 14.533C100.593 12.3923 98.1902 12.0787 105.407 14.5977C93.4352 12.5018 91.3474 13.1391 82.312 21.5625C87.7413 15.2648 86.2279 16.7534 78.9756 24.9926C84.1301 20.5618 83.9603 22.4187 81.358 28.8309C84.5047 26.0928 85.2189 27.9049 85.189 32.0121C84.215 29.0151 83.4358 27.646 80.9485 29.3188C82.5668 24.5146 82.4768 22.7573 77.7219 25.58C82.2871 22.588 82.382 24.3454 80.7037 29.1445C83.251 27.4718 84.0302 28.8458 84.7195 31.7731C85.3688 27.3623 84.8293 25.5402 81.5129 28.7064C84.3798 21.9508 84.4647 20.1835 79.0904 24.8183C86.7473 16.4248 88.4355 14.8865 84.24 21.2638C92.2265 12.7308 94.3293 12.1135 106.796 13.6021C98.6097 11.8895 100.792 12.2878 111.261 14.7421C105.742 14.4982 108.249 16.3302 112.67 19.4915C112.405 20.7759 114.053 23.3895 115.242 26.2172C117.615 31.8677 118.129 38.3595 116.491 44.2638C112.915 57.1379 99.4338 63.1218 86.9471 60.5281C86.103 60.8169 85.8932 61.1255 85.8633 61.3943C85.7434 62.4697 85.5536 62.8331 85.139 62.5692C84.7245 62.3054 84.1601 61.4342 83.4958 60.0801C84.5097 59.8461 85.5086 59.5524 88.2757 60.1099C97.6457 62.858 107.675 58.4621 113.284 50.7705C116.256 46.738 117.075 42.1131 117.19 37.5281C117.13 34.1229 116.601 30.7426 115.562 27.6012C114.523 24.4549 112.969 21.5475 112.77 19.8798C108.754 16.6239 106.097 14.6077 111.256 14.7471C100.433 12.1932 97.8605 11.8945 104.753 14.8467C92.9757 12.5666 90.6532 13.5373 81.2531 22.6428C86.8272 16.5044 85.3188 18.5008 79.7747 26.6404C85.5136 17.7839 87.5565 15.5237 83.7655 21.8462C92.6211 12.6811 95.6429 12.0936 109.099 13.9306C101.592 12.5666 104.518 13.6319 112.16 17.0172C109.178 17.1467 111.057 19.2027 113.109 21.8164C114.023 23.8575 115.117 26.4512 115.871 29.1644C116.631 31.8776 117.05 34.7153 117.195 37.5281C117.08 42.1181 116.261 46.743 113.289 50.7705C107.675 58.4621 97.6507 62.858 88.2907 60.1099C85.4887 59.5324 84.4847 59.8212 83.4658 60.0402C84.1051 61.3695 84.6445 62.2108 85.0192 62.4348C85.3938 62.6589 85.5386 62.2606 85.6085 61.1554C86.113 60.8019 86.8772 60.5879 88.4155 60.6575C101.217 63.3807 114.957 55.6194 117.05 41.4112C117.814 35.7309 117.075 30.0406 114.877 25.132C113.779 22.6776 112.31 20.4174 112.77 19.3471C108.659 16.4895 106.471 14.8168 111.621 14.9811C101.761 12.5915 99.4288 12.009 107.71 13.2486C94.8287 11.8945 92.5561 12.3624 84.5197 20.5419C87.3916 15.0956 85.6635 17.5648 79.9745 26.491C84.2799 23.1854 84.6196 26.3417 84.7295 31.7681C83.8354 28.3181 82.7815 26.7001 79.7747 28.3131C81.7976 23.1406 81.8725 21.199 76.9028 24.0417C83.0163 17.0869 84.3249 15.0607 76.0487 16.838C87.7213 11.9094 89.8141 10.7793 90.9279 4.62109C94.3243 9.37543 96.7417 9.09166 109.004 6.05486C96.9914 9.31569 94.7288 9.5895 93.5101 5.0343C90.3884 10.7544 88.3107 11.6456 76.3034 15.8822C84.8343 14.3339 83.4358 16.1261 76.4732 23.041C82.1672 20.1287 81.9274 22.2545 79.47 27.8949C82.6666 26.272 83.6506 28.1588 84.7245 31.7731C84.7095 27.1034 84.3948 24.8084 80.9734 28.0244C84.9043 20.4523 85.7284 18.3863 79.8446 23.9123C88.4056 14.9313 90.2586 13.5423 93.5651 18.4161C94.4841 12.0936 96.507 11.8995 109.034 13.2635C100.413 12.228 102.296 12.7458 111.621 14.986C106.926 15.0607 109.423 17.1367 112.92 20.2233C113.409 22.0155 114.907 24.8283 115.901 27.8153C117.894 33.7943 117.889 40.4902 115.901 46.4095C111.846 56.8391 100.483 62.7186 89.5194 60.7671C87.5515 60.5829 86.6924 60.782 86.1679 61.1355C86.3827 62.619 86.6274 63.7591 86.7723 64.5506C87.2018 66.9104 86.4876 66.069 84.3349 62.0764C84.1251 61.4441 84.2799 60.7671 85.3738 60.0601C93.3153 60.9762 101.077 60.5729 107.945 56.6948C101.447 60.9065 93.65 60.6078 85.9931 59.8959C85.0441 60.0253 84.3848 60.2941 83.8004 60.6476C83.4458 61.5238 83.5058 62.2805 83.4608 62.853C84.0801 66.5021 81.2781 63.9283 75.0897 57.6357C82.9214 66.6167 85.2639 69.4941 77.667 66.4076C88.7752 74.8061 89.9439 77.2455 93.64 91.4338C91.2825 82.5474 91.4523 85.41 92.0317 94.381C90.9778 92.4245 90.3285 96.5814 89.3645 101.809C90.4784 99.7327 91.4573 98.1347 92.3464 97.0793C93.2404 96.0238 94.0496 95.5061 94.7988 95.5857C95.1134 95.4314 96.1174 94.3212 96.487 94.6548C99.269 100.504 99.6336 107.534 102.685 113.398C104.633 117.59 106.506 120.562 107.39 123.211C108.274 125.854 108.809 127.442 108.809 127.442L109.838 129.374L109.818 129.369Z" fill="currentColor"/>
<path d="M83.0875 128.085C81.5841 127.786 81.8538 127.796 83.3173 127.96C82.1635 127.671 83.6419 128.219 85.9495 129.1C90.5596 130.862 98.4912 133.954 104.979 136.458C106.927 137.21 108.745 137.907 110.294 138.494C111.922 140.033 113.41 141.362 111.922 141.929C114.464 141.312 114.135 140.008 112.426 138.176C113.231 137.464 112.661 136.224 111.762 134.965C110.888 133.825 109.909 132.55 108.935 131.271C106.013 127.442 103.126 123.629 103.126 123.629C103.126 123.629 105.773 127.547 108.406 131.505C109.285 132.824 110.159 134.148 110.933 135.328C112.421 137.842 113.24 140.7 111.717 140.296C113.181 140.864 111.492 138.908 108.396 137.733C102.202 135.383 91.9281 131.375 85.7896 129.015C82.7179 127.836 80.6851 127.069 83.0525 127.627C80.8149 127.373 81.0097 127.552 83.0925 128.08L83.0875 128.085Z" fill="currentColor"/>
<path d="M104.963 148.346C99.7433 137.134 87.6061 134.939 77.1722 130.872C76.1783 130.21 75.509 129.647 75.3192 129.274C74.9446 128.527 76.5029 128.517 81.2829 129.637C66.9031 124.071 65.3947 123.036 81.6724 124.002C77.6018 123.758 74.3053 123.479 71.4034 122.971C69.9549 122.717 68.5863 122.364 67.2378 121.881C65.4946 119.506 63.4518 117.236 61.1842 115.22C58.9166 113.203 56.4143 111.456 53.877 110.117C51.0899 108.778 48.2629 107.857 50.3257 106.796C42.4241 107.155 39.4073 107.379 46.6247 106.164C34.048 109.151 31.9902 110.435 32.1101 120.233C28.4939 113.647 27.0454 115.573 21.851 126.371C24.8578 119.81 24.1135 122.12 21.9359 129.03C23.2694 121.697 23.7439 118.939 19.0339 124.4C25.9566 113.89 27.6947 111.595 29.7176 109.729C27.505 111.431 25.8467 113.452 18.2598 123.469C23.6091 117.978 23.0297 120.472 20.4924 128.089C23.0247 126.053 23.8239 128.557 24.8777 131.892C26.4311 132.938 28.2492 134.82 30.312 136.497C32.3798 138.18 34.6923 139.663 37.0099 141.072C34.5575 141.55 32.3698 140.256 30.2171 139.663C33.074 140.221 36.0059 142.183 39.1276 140.963C37.0498 141.774 34.5225 140.848 32.4097 140.958C34.5625 141.55 36.7501 142.85 39.1276 140.963C36.9249 139.429 34.5625 137.831 32.4397 136.019C30.317 134.212 28.429 132.191 26.9405 131.723C25.9316 127.466 25.3173 124.753 23.4093 128.492C26.0865 119.192 26.9955 117.032 25.6419 125.495C29.6327 113.293 31.3559 111.715 43.2532 112.686C35.3167 109.315 37.5543 108.494 48.5776 106.786C43.2333 107.787 46.4798 108.15 51.7692 109.007C52.5683 110.012 55.4103 111.511 57.9426 113.442C63.0073 117.306 66.8382 122.886 68.5764 129.074C69.3905 129.712 70.2296 130.359 71.1137 131.091C71.9777 131.703 72.8868 132.35 73.8358 133.027C74.7997 133.615 75.7038 133.953 76.6827 134.297C75.5689 133.814 74.6149 133.266 73.8108 132.679C72.9767 132.037 72.3374 131.494 71.8778 131.086C70.9638 130.264 70.799 129.995 71.2285 130.145C71.6581 130.294 72.667 130.867 74.0955 131.668C85.1288 134.71 97.5656 135.83 103.859 146.962L104.973 148.341L104.963 148.346Z" fill="currentColor"/>
<path d="M82.5572 124.951C73.0423 124.244 73.2371 124.424 82.5273 125.748C73.8165 124.658 74.0912 124.663 82.6172 125.618C74.4109 124.538 76.5236 125.335 82.9568 127.177C82.797 127.749 86.9576 129.362 91.1082 130.97C99.4193 134.191 107.711 137.387 107.765 137.248C107.88 136.959 107.885 136.685 107.775 136.431C107.666 136.178 107.466 135.988 107.176 135.874C106.896 135.764 106.632 135.759 106.382 135.874C106.132 135.983 105.947 136.183 105.828 136.471C105.768 136.616 97.5214 133.439 89.3001 130.258C85.1894 128.665 81.0838 127.077 82.812 126.734C74.9453 124.717 72.9125 123.951 82.5523 124.956L82.5572 124.951Z" fill="currentColor"/>
<path d="M112.45 155.67C113.599 154.117 112.65 153.514 110.797 153.251C110.592 152.569 109.483 152.23 108.169 152.031C106.766 151.717 106.311 151.155 105.617 150.507C103.559 149.278 103.08 146.838 100.892 145.539C103.08 146.833 103.564 149.278 105.502 151.005C106.151 151.742 106.416 152.429 107.775 152.837C110.487 153.654 112.774 155.033 111.741 155.526C112.834 155.202 110.512 155.222 107.38 156.307C106.336 156.671 106.401 157.174 105.927 157.756C100.278 167.777 89.7289 175.723 77.5918 173.532C77.9614 173.866 78.6706 173.831 79.0403 174.165C78.6706 173.831 78.336 174.199 77.9614 173.866C92.2512 176.654 100.468 164.596 109.328 155.67C112.7 155.227 115.252 155.67 112.944 156.621C115.097 155.312 114.882 155.058 112.45 155.67Z" fill="currentColor"/>
<path d="M106.946 155.707C101.652 166.998 90.7684 175.312 77.962 173.863L78.6663 173.828C76.1789 173.604 73.6916 173.38 71.5039 172.086C73.6916 173.38 76.2189 174.311 79.0759 174.869C76.2189 174.311 74.0662 173.719 71.5039 172.086C73.7315 174.087 76.5535 173.938 79.0759 174.869C76.5885 174.645 74.4008 173.35 71.8735 172.419C74.3958 173.345 76.5486 173.938 79.0759 174.869C76.9232 174.276 74.4008 173.35 72.2082 172.051C86.3481 178.722 100.313 168.482 107.206 156.364C107.161 156.06 107.071 155.846 106.951 155.717L106.946 155.707Z" fill="currentColor"/>
<path d="M116.401 172.899C116.401 172.899 109.169 172.854 100.123 172.805C98.4452 173.024 97.1216 173.84 95.3934 174.428C89.0901 177.166 82.3373 176.459 75.5795 175.752C76.6933 176.753 78.1018 176.678 78.846 177.345C75.5795 175.752 72.0182 175.229 69.1213 173.97C69.5658 175.707 72.0182 175.229 72.3479 176.738C73.6515 177.524 75.3447 178.455 77.4225 179.63C75.8642 178.749 74.4307 178.022 73.1121 177.42C71.7985 176.812 70.5997 176.344 69.4859 176.041C67.2583 175.443 65.3903 175.488 63.727 176.29C60.3956 177.893 57.8633 182.522 54.8365 191.13C52.7687 176.543 48.703 177.858 41.5156 185.39C48.703 177.853 50.5261 177.738 48.1286 189.537C56.6046 177.34 60.8551 177.061 73.6165 184.857C72.8573 182.751 72.6276 181.148 72.7974 179.924C72.9672 178.699 73.5366 177.858 74.3008 177.44C83.1564 178.54 92.2168 175.956 100.838 174.472C101.961 174.388 103.04 174.318 104.069 174.248C110.223 173.845 114.323 173.581 114.323 173.581L116.411 172.904L116.401 172.899Z" fill="currentColor"/>
<path d="M92.4619 213.886C98.5354 209.112 105.178 214.404 112.056 212.223C112.436 211.033 112.865 209.405 113.295 207.534C115.008 200.046 117.176 189.183 117.775 188.198C118.854 186.415 124.648 175.443 125.507 174.014C126.281 172.361 131.161 165.511 131.97 166.178C131.63 164.252 127.42 170.365 125.672 171.162C124.683 170.883 123.354 171.331 122.275 171.968C120.997 172.63 119.568 173.367 118.135 174.104C113.844 176.304 103.73 173.905 103.73 173.905C103.73 173.905 117.281 175.065 122.49 172.839C125.097 171.729 130.551 165.347 130.237 166.094C130.716 165.441 126.126 172.914 124.428 175.747C121.891 179.983 119.653 183.573 117.67 186.604C117.011 187.615 116.376 188.566 115.772 189.462C114.998 191.379 113.534 196.487 111.711 201.863C111.102 203.655 110.458 205.477 109.783 207.22C104.374 212.333 95.0541 209.993 92.4918 215.061C89.2553 220.866 98.6853 225.316 100.129 232.644C101.053 236.826 99.4544 240.082 97.4865 243.004C101.722 236.089 96.7523 228.94 90.5189 224.684C88.6659 223.016 88.8907 220.537 89.9645 218.292C90.464 216.679 91.373 215.205 92.4719 213.891L92.4619 213.886Z" fill="currentColor"/>
<path d="M93.4004 247.445C104.459 241.232 99.9385 229.129 96.9367 219.063C94.8239 212.477 104.703 211.964 109.963 210.794C110.302 209.689 110.692 208.161 111.057 206.353C112.51 199.135 114.493 188.571 114.977 187.948C120.047 181.392 123.918 176.339 123.833 176.284C123.568 176.12 123.299 176.07 123.029 176.13C122.759 176.19 122.539 176.354 122.37 176.618C122.21 176.872 122.165 177.13 122.23 177.399C122.295 177.668 122.46 177.882 122.724 178.046C122.819 178.106 118.958 183.139 113.919 189.656C113.624 190.049 112.51 196.008 111.416 201.948C111.052 203.929 110.687 205.905 110.357 207.673C110.203 208.853 109.903 209.928 108.864 210.336C103.999 211.999 95.6081 213.841 97.6809 219.725C101.387 229.757 103.49 243.044 92.0918 248.217C92.4614 248.55 92.796 248.182 93.2256 247.868C93.4503 247.719 93.5103 247.574 93.4054 247.445H93.4004Z" fill="currentColor"/>
<path d="M129.823 192.235L125.577 195.765C124.488 196.671 120.917 213.224 118.869 219.537C118.46 220.796 118.11 221.653 117.85 221.887C117.051 225.073 112.411 224.256 111.852 227.104C109.499 243.089 96.8326 251.144 82.5028 252.728L79.3711 256.929C79.3711 256.929 80.6447 255.804 82.7725 253.927C83.6965 253.36 84.6205 252.742 86.5285 252.409C101.473 251.956 110.024 239.53 113.929 226.287C114.264 225.919 115.303 225.511 116.242 225.416C117.001 225.252 117.645 224.057 118.27 222.743C119.573 221.483 124.194 198.02 125.252 197.084L128.654 194.082L129.818 192.23L129.823 192.235Z" fill="currentColor"/>
<path d="M143.793 205.53C144.178 209.851 144.208 209.607 143.958 205.5C144.048 209.343 143.938 209.597 143.793 205.53Z" fill="currentColor"/>
<path d="M141.115 178.395C141.09 177.733 140.076 179.983 140.601 183.244C140.865 184.872 141.165 186.779 141.485 188.815C142.019 192.21 142.289 196.656 142.419 201.062C142.549 205.473 142.534 209.849 141.16 205.926C142.464 216.375 142.399 218.526 139.047 206.468C142.589 218.272 142.648 218.013 139.757 206.274C142.559 217.396 142.429 217.157 139.387 206.359C142.169 216.953 142.219 214.732 141.235 205.881C142.274 208.081 142.279 203.651 142.144 199.195C142.009 194.739 141.734 190.259 141.195 186.834C140.875 184.778 140.571 182.861 140.306 181.218C140.396 179.381 141.36 177.569 141.984 177.474C140.601 176.548 139.772 177.649 138.997 179.062C138.178 179.849 137.409 180.954 136.505 181.721C135.956 183.045 132.534 190.567 131.91 192.046C130.042 196.482 128.174 200.883 128.174 200.883C128.174 200.883 130.257 196.636 132.379 192.385C133.089 190.966 136.595 183.513 137.239 182.254C138.703 179.735 140.895 177.768 141.115 178.395Z" fill="currentColor"/>
<path d="M121.955 224.665C135.081 227.139 134.951 226.9 122.265 223.37C134.682 226.691 135.031 223.998 128.229 212.871C136.135 215.972 136.889 210.636 137.644 205.304C139.147 194.645 140.64 184.011 140.491 184.031C140.181 184.076 139.941 184.206 139.776 184.43C139.607 184.654 139.547 184.917 139.587 185.226C139.627 185.52 139.761 185.749 139.981 185.913C140.206 186.077 140.471 186.137 140.775 186.092C140.85 186.082 140.516 188.721 139.971 192.684C139.427 196.646 138.673 201.933 137.684 206.538C137.159 212.498 136.395 217.775 126.86 214.409C135.271 225.66 134.907 228.269 121.641 226.422C135.101 228.005 135.161 227.751 121.945 224.66L121.955 224.665Z" fill="currentColor"/>
<path d="M153.033 182.207C153.033 182.207 150.611 190.69 147.699 200.866C146.245 205.954 144.667 211.465 141.301 205.934C141.765 221.641 140.431 226.305 121.477 229.84C138.489 233.091 137.884 235.212 126.032 243.774C129.983 240.922 132.969 239.384 135.107 239.035C137.579 238.935 139.193 240.026 136.436 239.463C138.159 241.255 139.393 242.863 138.434 244.496C140.292 245.945 139.957 247.419 138.344 248.992C137.125 250.46 134.628 252.034 130.747 253.766C133.169 253.024 135.237 252.367 136.915 251.755C138.593 251.142 139.882 250.565 139.542 250.386C143.174 248.798 143.883 247.588 138.998 246.139C142.2 245.049 141.935 244.183 138.693 243.157C140.371 242.092 139.078 240.872 137.415 239.443C139.582 240.982 141.385 242.311 138.913 243.491C143.368 244.516 143.553 245.387 139.163 246.508C144.882 247.07 146.026 247.877 140.546 250.386C145.851 249.176 144.527 249.674 140.017 250.839C142.249 250.401 141.291 250.635 139.128 250.943C137.629 251.013 134.927 251.157 131.641 251.262C134.927 251.157 137.654 251.023 139.153 250.958C141.355 250.65 142.329 250.406 140.032 250.834C144.847 249.599 146.39 249.032 140.581 250.236C146.76 247.389 145.586 246.308 139.088 245.163C144.847 244.148 145.276 243.068 139.298 241.176C144.357 240.17 143.009 238.348 139.672 235.65C143.104 238.243 144.542 239.956 139.378 240.563C145.631 242.405 145.276 243.137 139.053 243.252C146.585 244.616 148.253 245.358 139.957 246.866C148.338 245.457 146.76 244.81 139.073 243.55C145.946 243.54 146.71 242.918 139.487 241.166C146.24 240.563 145.002 238.831 140.127 235.57C145.111 238.657 146.445 240.19 139.617 240.15C147.124 241.947 146.475 242.166 139.223 241.076C147.709 242.928 149.592 243.471 139.792 242.968C150.081 242.515 148.678 241.021 140.107 236.805C148.593 239.01 149.911 238.492 142.04 232.996C150.726 235.829 150.226 233.683 145.561 227.251C150.511 233.663 151.24 235.426 143.383 230.736C151.365 236.511 150.76 235.839 143.733 229.646C151.749 235.56 153.343 235.948 146.745 227.037C155.281 234.007 155.625 231.677 153.283 222.188C156.844 231.249 157.718 233.151 154.222 222.502C158.932 233.554 159.266 232.05 157.893 220.969C161.349 232.623 163.097 234.699 169.615 222.791C167.148 234.769 169.451 232.762 175.679 225.011C169.835 232.2 167.857 233.624 170.824 223.04C164.716 233.006 163.552 230.97 162.483 220.55C161.779 229.925 161.179 230.915 159.286 221.053C159.776 230.587 158.982 229.263 156.519 221.123C157.653 229.043 156.709 228.118 153.942 221.77C155.226 226.121 154.686 225.046 153.338 221.501C153.567 221.755 153.473 219.47 153.832 216.871C154.192 214.273 155.011 211.37 156.08 207.94C152.239 211.007 152.459 205.685 152.653 200.951C153.043 191.482 153.333 184.383 153.333 184.383L153.028 182.217L153.033 182.207Z" fill="currentColor"/>
<path d="M118.688 148.451C118.713 148.087 119.113 147.843 119.567 147.644C120.022 147.45 120.531 147.301 121.101 147.216C120.851 147.256 120.396 148.814 120.301 149.068C119.737 150.557 119.472 152.035 119.352 153.519C120.341 155.893 121.795 157.93 123.568 159.572C123.568 159.348 123.658 159.109 123.833 158.831C123.618 158.537 123.768 158.094 123.987 157.651C124.212 157.208 124.507 156.77 124.887 156.337C124.722 156.526 125.376 158.014 125.471 158.268C126.015 159.826 126.8 161.166 127.704 162.415C129.881 163.49 132.274 164.108 134.731 164.202C134.596 164.033 134.516 163.794 134.471 163.485C134.117 163.401 133.942 162.963 133.827 162.48C133.712 161.997 133.657 161.474 133.667 160.897C133.662 161.146 135.126 161.867 135.36 162.002C136.734 162.818 138.147 163.331 139.591 163.704C140.39 163.505 141.184 163.251 141.968 162.933C143.487 162.316 144.865 161.509 146.099 160.553C145.944 160.483 145.784 160.379 145.62 160.225C145.295 160.384 144.875 160.16 144.481 159.866C144.081 159.572 143.702 159.204 143.337 158.756C143.492 158.95 145.08 158.567 145.345 158.517C146.783 158.283 148.087 157.84 149.326 157.277C150.824 155.286 151.873 152.996 152.407 150.572C152.302 150.582 152.188 150.587 152.063 150.582C151.918 150.915 151.453 151.01 150.959 151.04C150.464 151.069 149.935 151.035 149.371 150.92C149.615 150.97 150.584 149.661 150.759 149.451C151.608 148.471 152.262 147.43 152.812 146.35C152.757 144.443 152.377 142.512 151.653 140.635C151.513 141.362 151.388 142.088 151.269 142.815C150.599 142.731 149.915 142.472 149.006 142.074C149.51 141.795 150.01 141.501 150.509 141.202C151.024 140.899 151.538 140.585 151.503 140.645C151.548 140.615 151.588 140.59 151.628 140.56C151.598 140.48 151.568 140.401 151.538 140.316C151.348 139.848 151.139 139.4 150.914 138.962C150.874 138.997 150.839 139.027 150.799 139.062C150.904 139.41 150.609 139.778 150.25 140.117C149.89 140.456 149.46 140.769 148.956 141.043C149.176 140.924 149.071 139.301 149.071 139.032C149.086 137.852 148.951 136.737 148.716 135.651C147.413 134.113 145.859 132.834 144.146 131.843C144.486 132.44 144.83 133.038 145.18 133.625C144.611 133.989 143.921 134.228 142.967 134.511C143.172 133.974 143.372 133.431 143.562 132.883C143.757 132.321 143.951 131.753 143.966 131.818C143.971 131.793 143.981 131.773 143.986 131.753C143.477 131.465 142.952 131.206 142.418 130.972C142.413 131.002 142.408 131.032 142.403 131.061C142.708 131.261 142.718 131.733 142.663 132.226C142.608 132.719 142.478 133.232 142.268 133.765C142.358 133.531 141.234 132.356 141.059 132.147C140.32 131.241 139.501 130.479 138.632 129.807C136.649 129.433 134.586 129.404 132.533 129.752C133.218 130.011 133.907 130.26 134.596 130.499C134.396 131.141 134.022 131.768 133.472 132.59C133.283 132.047 133.083 131.504 132.873 130.962C132.658 130.404 132.439 129.847 132.498 129.886C132.478 129.842 132.464 129.802 132.444 129.757C131.869 129.857 131.295 129.986 130.72 130.15C130.75 130.2 130.78 130.25 130.81 130.305C131.17 130.265 131.485 130.618 131.759 131.032C132.034 131.445 132.264 131.918 132.449 132.465C132.369 132.226 130.745 132.052 130.481 132.002C129.227 131.763 128.013 131.719 126.819 131.778C124.472 133.107 122.529 134.925 121.076 137.05C121.19 137.075 121.315 137.115 121.445 137.165C121.695 136.901 122.164 136.971 122.639 137.11C123.113 137.249 123.598 137.464 124.092 137.762C123.878 137.633 122.519 138.534 122.284 138.668C121.026 139.37 119.957 140.227 118.993 141.162C118.164 143.547 117.854 146.111 118.134 148.685C118.274 148.57 118.458 148.481 118.698 148.406L118.688 148.451ZM132.763 162.166C132.773 162.764 132.788 163.361 132.748 163.306C132.748 163.376 132.758 163.446 132.758 163.505C132.174 162.998 131.579 162.505 130.985 162.017C131.395 161.484 131.959 161.021 132.758 160.434C132.753 161.006 132.758 161.584 132.758 162.166H132.763ZM143.467 160.319C143.856 160.772 144.256 161.22 144.191 161.2C144.241 161.25 144.286 161.3 144.326 161.345C143.552 161.33 142.778 161.34 142.008 161.345C141.978 160.673 142.113 159.956 142.348 158.995C142.713 159.438 143.087 159.881 143.467 160.319ZM147.078 156.157C145.814 157.088 144.476 157.895 142.952 158.442C142.952 158.437 142.947 158.432 142.942 158.427C142.837 158.258 142.728 158.089 142.613 157.925C142.683 157.641 142.763 157.337 142.837 157.009C142.373 156.366 141.933 155.709 141.509 155.047C143.362 155.421 145.215 155.804 147.073 156.162L147.078 156.157ZM150.474 152.05C151.064 152.145 151.658 152.234 151.598 152.264C151.668 152.274 151.733 152.279 151.793 152.289C151.194 152.777 150.604 153.275 150.02 153.773C149.565 153.28 149.206 152.643 148.761 151.751C149.326 151.856 149.9 151.961 150.474 152.05ZM138.212 161.29C136.644 161.19 135.096 160.951 133.577 160.399C133.577 160.394 133.577 160.389 133.577 160.379C133.607 160.185 133.627 159.981 133.652 159.782C133.892 159.607 134.147 159.423 134.416 159.224C134.476 158.432 134.561 157.651 134.666 156.869C135.85 158.343 137.019 159.826 138.212 161.29ZM148.866 150.94C148.866 150.94 148.856 150.94 148.846 150.935C148.656 150.875 148.462 150.816 148.267 150.761C148.137 150.497 148.002 150.213 147.847 149.914C147.078 149.72 146.324 149.496 145.575 149.257C147.233 148.356 148.901 147.465 150.549 146.549C150.18 148.067 149.675 149.546 148.861 150.945L148.866 150.94ZM128.108 159.543C126.969 158.462 125.94 157.287 125.131 155.888C125.131 155.888 125.141 155.879 125.146 155.879C125.296 155.744 125.441 155.61 125.586 155.465C125.88 155.485 126.195 155.51 126.53 155.53C127.084 154.962 127.654 154.415 128.238 153.887C128.193 155.774 128.133 157.656 128.103 159.543H128.108ZM123.368 156.72C122.989 157.183 122.614 157.651 122.624 157.581C122.584 157.636 122.544 157.691 122.504 157.74C122.384 156.979 122.239 156.222 122.1 155.465C122.754 155.321 123.488 155.326 124.477 155.391C124.102 155.824 123.733 156.267 123.363 156.72H123.368ZM138.212 145.922C138.048 146.091 138.782 147.171 138.622 147.341C138.612 147.351 138.597 147.356 138.572 147.351C138.807 147.45 139.047 147.535 139.286 147.599C139.451 147.734 139.386 147.724 139.156 147.614C139.286 147.734 139.231 147.734 139.076 147.674C139.111 147.729 139.052 147.729 138.982 147.724C138.937 147.729 138.877 147.734 138.817 147.734C138.577 147.739 138.342 147.754 138.103 147.774C137.868 147.794 137.733 149.093 137.503 149.128C137.488 149.128 137.473 149.123 137.458 149.108C137.573 149.337 137.703 149.556 137.848 149.76C137.888 149.969 137.843 149.919 137.733 149.685C137.758 149.86 137.713 149.82 137.633 149.685C137.623 149.75 137.578 149.71 137.528 149.661C137.488 149.636 137.443 149.601 137.393 149.561C137.208 149.412 137.019 149.267 136.819 149.133C136.624 148.998 135.685 149.909 135.485 149.785C135.475 149.775 135.465 149.76 135.465 149.74C135.405 149.989 135.365 150.238 135.34 150.487C135.236 150.671 135.231 150.606 135.3 150.358C135.206 150.507 135.196 150.447 135.226 150.293C135.176 150.333 135.166 150.278 135.161 150.208C135.146 150.163 135.136 150.104 135.121 150.049C135.076 149.815 135.021 149.586 134.961 149.352C134.901 149.123 133.592 149.222 133.522 148.998C133.522 148.983 133.522 148.969 133.537 148.954C133.333 149.103 133.138 149.272 132.963 149.446C132.763 149.521 132.803 149.466 133.013 149.322C132.843 149.377 132.873 149.322 132.998 149.222C132.933 149.222 132.963 149.173 133.003 149.113C133.023 149.068 133.048 149.018 133.078 148.964C133.193 148.754 133.303 148.545 133.402 148.326C133.502 148.112 132.439 147.351 132.528 147.132C132.533 147.117 132.548 147.112 132.568 147.102C132.314 147.087 132.059 147.092 131.809 147.112C131.604 147.042 131.669 147.027 131.924 147.052C131.759 146.987 131.814 146.967 131.974 146.967C131.924 146.927 131.979 146.907 132.049 146.888C132.089 146.863 132.149 146.843 132.204 146.823C132.424 146.738 132.643 146.644 132.863 146.544C133.078 146.445 132.753 145.175 132.963 145.07C132.978 145.066 132.993 145.07 133.013 145.07C132.828 144.896 132.633 144.737 132.424 144.593C132.314 144.408 132.374 144.438 132.553 144.622C132.469 144.468 132.523 144.488 132.648 144.593C132.638 144.528 132.693 144.548 132.758 144.578C132.803 144.588 132.863 144.608 132.918 144.627C133.143 144.702 133.373 144.772 133.602 144.836C133.832 144.896 134.401 143.721 134.631 143.771C134.646 143.771 134.656 143.786 134.666 143.806C134.636 143.552 134.591 143.308 134.526 143.064C134.561 142.85 134.586 142.915 134.606 143.169C134.641 142.994 134.671 143.049 134.701 143.204C134.731 143.149 134.761 143.199 134.791 143.263C134.821 143.303 134.851 143.353 134.881 143.403C135.006 143.607 135.136 143.806 135.271 144C135.405 144.194 136.604 143.657 136.744 143.841C136.754 143.851 136.754 143.871 136.744 143.891C136.884 143.677 137.009 143.458 137.119 143.228C137.283 143.089 137.258 143.154 137.114 143.363C137.253 143.253 137.243 143.313 137.164 143.453C137.223 143.428 137.213 143.487 137.198 143.557C137.198 143.607 137.188 143.662 137.178 143.721C137.144 143.955 137.114 144.189 137.094 144.428C137.074 144.662 138.337 145.021 138.327 145.255C138.327 145.27 138.317 145.28 138.297 145.295C138.542 145.225 138.777 145.13 139.007 145.026C139.221 145.026 139.166 145.061 138.917 145.125C139.091 145.13 139.047 145.17 138.897 145.225C138.957 145.245 138.912 145.285 138.857 145.324C138.827 145.359 138.782 145.399 138.737 145.439C138.557 145.593 138.382 145.757 138.212 145.927V145.922ZM148.556 141.401C148.556 141.401 148.546 141.401 148.541 141.406C148.357 141.481 148.172 141.561 147.987 141.64C147.717 141.521 147.433 141.391 147.118 141.257C146.399 141.601 145.679 141.919 144.95 142.218C145.64 140.461 146.344 138.708 147.018 136.951C147.717 138.35 148.282 139.808 148.561 141.396L148.556 141.401ZM121.59 147.032C121.79 147.027 121.99 147.012 122.194 147.002C122.409 147.206 122.634 147.425 122.879 147.654C123.673 147.575 124.462 147.52 125.246 147.49C123.997 148.904 122.734 150.313 121.495 151.737C121.32 150.183 121.285 148.62 121.57 147.032C121.575 147.032 121.58 147.032 121.59 147.032ZM142.173 134.292C142.173 134.292 142.168 134.302 142.163 134.307C142.068 134.482 141.978 134.661 141.888 134.845C141.604 134.925 141.304 135.014 140.979 135.109C140.65 135.831 140.305 136.538 139.941 137.235C139.336 135.447 138.747 133.655 138.127 131.873C139.566 132.5 140.94 133.252 142.178 134.292H142.173ZM123.433 136.378C122.909 136.09 122.384 135.801 122.449 135.796C122.384 135.766 122.329 135.736 122.269 135.706C123.004 135.452 123.723 135.183 124.447 134.915C124.707 135.537 124.827 136.259 124.936 137.24C124.442 136.946 123.938 136.657 123.428 136.373L123.433 136.378ZM128.033 133.675C129.537 133.232 131.075 132.928 132.693 132.933C132.693 132.938 132.693 132.943 132.693 132.953C132.733 133.147 132.783 133.341 132.828 133.541C132.663 133.785 132.488 134.043 132.299 134.327C132.513 135.089 132.703 135.856 132.873 136.622C131.26 135.641 129.651 134.646 128.023 133.68L128.033 133.675ZM121.465 141.521C122.334 140.217 123.313 139.002 124.557 137.966C124.557 137.966 124.567 137.976 124.572 137.976C124.727 138.101 124.892 138.22 125.056 138.34C125.086 138.633 125.121 138.942 125.156 139.281C125.816 139.729 126.455 140.192 127.074 140.67C125.206 140.953 123.328 141.222 121.465 141.521ZM119.682 146.539C119.093 146.654 118.503 146.768 118.553 146.723C118.483 146.738 118.418 146.753 118.358 146.768C118.758 146.106 119.138 145.434 119.517 144.767C120.117 145.075 120.671 145.553 121.39 146.23C120.821 146.325 120.251 146.425 119.682 146.534V146.539Z" fill="currentColor"/>
</svg>
