<svg width="160" height="158" viewBox="0 0 160 158" fill="none" xmlns="http://www.w3.org/2000/svg">
<path d="M79.9504 15.7717C80.3204 26.1417 80.3604 42.3817 76.4604 22.7217C76.8204 26.5817 77.1804 30.1017 77.4804 33.2217C77.7804 36.3417 78.0104 39.0617 78.0904 41.2917C78.2604 45.7717 78.2504 53.6517 76.2904 48.4217C76.1304 53.0817 74.9204 50.7917 73.1204 47.1817C72.1104 48.0417 69.7204 43.3717 67.4604 40.6417C69.6604 43.4917 72.8804 52.2717 73.2704 49.7017C75.4604 56.7817 76.8204 62.5917 75.4404 52.9917C77.3104 64.2717 78.5404 74.2717 76.4704 60.7117C78.2104 75.4117 77.2604 73.4617 71.8904 59.4117C75.5204 71.8617 76.8704 77.1117 72.5804 65.9117C76.2904 77.8217 74.7304 75.8217 67.4404 64.6317C73.5204 75.9417 72.4704 75.7117 63.8204 66.3917C69.8604 75.3617 63.3004 70.2817 55.1504 65.1417C63.2504 70.3917 69.7504 75.5517 63.1804 66.9917C71.9404 76.2117 72.8904 76.9017 65.0604 66.7817C74.8004 78.1717 74.3104 78.0817 62.8404 67.8117C72.3804 77.7117 75.1704 80.9117 67.0304 72.7017C75.0604 81.6417 73.5004 81.0217 61.9204 74.3417C72.7204 81.5817 72.1004 81.8717 60.0204 77.2317C70.2604 82.5817 64.1104 81.5317 52.2604 79.8817C63.2304 83.3117 55.8304 84.5817 46.8104 86.3217C52.3404 87.8917 44.9704 90.1017 41.7404 91.8617C42.2304 95.5617 37.3804 100.552 35.3104 104.662C33.2404 108.782 31.2704 112.712 29.4304 116.372C22.0804 131.002 16.9404 141.242 16.9404 141.242C16.9404 141.242 32.3504 131.412 47.7704 121.582C49.7004 120.352 52.0904 118.572 53.5204 117.912C55.8204 116.192 60.6504 111.042 59.0904 114.362C63.7104 109.082 68.5304 102.942 64.4804 110.692C70.7804 101.402 73.5904 97.2717 68.9604 108.072C75.0004 96.3717 77.6504 90.3417 74.0004 101.402C78.4504 89.1817 78.7904 88.5317 76.1304 100.752C79.0904 88.1817 79.4004 86.7317 78.9804 94.7717C79.4604 87.2817 79.4804 87.2017 79.2704 93.6817C79.4504 87.7917 79.3404 89.7117 78.5904 101.922C79.3404 89.7117 79.4604 87.7717 79.5104 93.5817C79.5604 87.1717 79.6104 87.2317 80.1904 94.5517C79.7004 86.6617 79.9104 88.0517 81.5404 100.742C80.1704 88.3617 80.4404 88.6917 84.3704 100.642C81.0304 89.7217 83.1404 95.5917 88.6404 108.052C84.4904 96.4217 86.8604 100.042 93.2404 110.132C89.1304 101.752 94.1104 108.612 98.9504 114.352C97.2504 110.532 102.26 116.002 104.76 117.902C106.12 118.362 108.75 120.342 110.76 121.572C126.85 131.402 142.93 141.232 142.93 141.232C142.93 141.232 137.79 130.992 130.44 116.362C128.6 112.702 126.63 108.772 124.56 104.652C122.49 100.532 118.29 95.7217 118.13 91.8517C115.5 90.1617 106.24 87.6917 111.82 86.0017C102.06 84.2417 96.5104 82.8617 107.93 79.7117C96.3304 81.2117 89.0104 82.5517 99.2304 77.3417C87.0304 81.9117 86.3704 81.6617 97.3704 74.6317C85.7004 81.1217 84.3404 81.5817 92.8904 72.8217C84.4304 80.7417 87.9804 77.0117 97.6904 67.4917C85.9304 77.6317 84.4704 78.8017 94.6704 67.8517C86.2204 77.6317 87.1604 76.9017 96.2804 67.8017C89.3404 76.0717 96.7004 70.2517 104.73 65.1417C96.6704 70.1917 89.3804 75.8417 95.9204 67.2317C86.9204 76.3317 85.9904 76.5617 92.9704 65.6817C84.9904 76.4017 83.5004 78.0117 88.3204 66.4217C83.0804 77.1217 85.0804 71.4517 89.4304 59.4717C83.4304 73.1817 82.1304 75.7417 85.5704 61.3417C81.8004 74.5717 83.8504 64.1517 86.0704 53.0617C84.2104 62.4717 85.7004 56.9817 87.8504 49.9817C87.7404 52.3017 90.6804 43.5017 92.4204 40.6317C90.6304 43.4217 88.5504 48.2017 87.9004 47.4817C86.2704 51.1317 85.1104 53.4217 85.2404 48.6617C83.3004 54.2617 83.3504 46.0717 83.2104 41.5617C83.1404 39.3017 83.1604 36.5617 83.2104 33.3917C83.2704 30.2317 83.3504 26.6417 83.4104 22.7117C81.3604 42.9417 80.2904 26.1317 79.9204 15.7617L79.9504 15.7717Z" fill="currentColor"/>
</svg>
