<svg width="148" height="139" viewBox="0 0 148 139" fill="none" xmlns="http://www.w3.org/2000/svg">
<path d="M77.0702 76.0786C77.1202 75.9886 77.1802 75.9086 77.2402 75.8286C77.2402 75.8086 77.2402 75.7886 77.2402 75.7686C77.2602 75.7186 77.2902 75.6686 77.3202 75.6286C77.2802 75.1986 77.3302 74.8586 77.4302 74.5886C77.5102 74.4486 77.6102 74.3386 77.7302 74.2386C78.0202 73.9386 78.4502 73.8086 79.0102 73.7986C79.2102 73.7886 79.4202 73.8086 79.6502 73.8286C80.0702 73.9286 80.5502 74.0786 81.1202 74.2686C80.6502 74.0986 80.2402 73.9586 79.8702 73.8486C80.2602 73.8986 80.6902 73.9686 81.1802 74.0686C78.5902 72.9586 79.0202 72.8486 81.2102 72.9886C79.8502 72.9186 80.2402 73.1086 81.3402 73.5486C81.0702 73.8486 81.5202 74.3986 82.0202 75.1786C82.5202 75.9586 83.0902 76.9586 83.7702 78.2286C81.8202 71.3586 82.5402 71.0786 85.8902 70.7786C83.9402 70.4786 84.6302 70.1586 85.7502 69.6886C85.9802 69.4686 86.6402 69.1086 87.2802 68.6986C88.5502 67.8886 89.7302 66.9386 90.7702 65.7786C91.1902 65.4586 91.6002 65.1686 92.0702 64.9186C93.9402 63.9386 95.3402 63.1986 95.3402 63.1986L98.6702 61.4486C98.6702 61.4486 99.6402 60.9486 100.93 60.2686C101.57 59.9386 102.29 59.7186 103.04 59.4386C103.65 59.2286 104.26 59.0086 104.87 58.7686C105.47 58.5186 106.07 58.2686 106.67 57.9886C110.02 56.7786 111.98 56.0586 113.34 55.5186C113.34 56.1386 113.34 56.7586 113.32 57.3686C112.36 61.8986 110.64 66.1386 108.29 69.9586C107.96 70.4986 107.61 71.0386 107.25 71.5686C100.82 73.4386 103.5 125.649 98.1202 129.239C96.9302 129.839 94.2402 83.6086 93.1902 84.4186C92.6002 84.5886 92.0302 84.8786 91.4502 85.1586C86.2202 87.6686 80.3702 89.0686 74.1802 89.0686C72.1102 89.0686 73.8502 118.549 71.8602 118.249C71.1802 118.119 66.7402 88.3286 66.0602 88.1386C63.4302 86.9886 60.4102 86.6986 57.6302 85.6586C57.1602 85.4786 56.7002 85.2386 56.2502 84.8686C52.9802 80.6186 56.8102 91.6186 52.6202 89.2286C50.8302 88.0286 41.6102 72.8386 40.4202 70.5386C40.0902 70.0186 39.7702 69.4886 39.4602 68.9586C36.0902 63.0886 34.1602 56.2886 34.1602 49.0386L34.1802 49.0786C34.1802 26.9786 52.1002 9.05859 74.2002 9.05859C76.0102 9.05859 77.8002 9.19859 79.5502 9.42859C84.8402 11.1186 89.8802 13.7586 94.3802 17.2786C94.1902 17.2086 94.0302 17.2086 93.9202 17.2786C92.0702 18.4886 96.2402 30.0486 94.3402 31.1886C92.3902 32.3286 90.4302 33.3986 88.4402 34.4086C87.9402 34.6586 87.4402 34.9086 87.0702 35.1586C86.4502 35.3986 85.9502 35.6386 86.4502 35.9786C84.9502 36.1186 84.4402 36.3586 86.0402 36.8186C83.4402 36.8286 82.9302 37.0586 85.5202 37.6286C82.2002 37.3886 81.9702 37.4986 85.1902 37.9886C81.5202 37.7086 81.2902 37.8186 84.9002 38.1586C83.5402 38.1086 82.6102 38.0986 82.1902 38.0786C81.6302 38.0886 81.5702 38.0886 82.0902 38.0886C82.3602 38.1286 83.2002 38.1586 84.5002 38.1586C83.0502 38.2186 82.0602 38.2586 81.8402 38.2186C81.3502 38.2586 81.0602 38.2786 81.0102 38.2586C81.2002 38.2086 81.6702 38.0786 82.2502 37.9286C81.4602 38.0886 80.9802 38.1886 81.5602 38.0886C81.1302 38.1786 80.9602 38.2286 81.0102 38.2486C80.8702 38.2786 80.9002 38.2586 81.2202 38.1486C79.4102 38.4186 79.0302 38.2286 80.2902 36.5486C79.9302 36.6786 79.6302 36.7586 79.3802 36.7786C79.4102 36.7386 79.4502 36.6986 79.4902 36.6486C79.4202 36.6886 79.3502 36.7386 79.2902 36.7786C79.2602 36.7786 79.2302 36.7786 79.2002 36.7786C79.3502 36.5786 79.5202 36.3386 79.7202 36.0786C79.2702 36.4286 78.9402 36.6086 78.7002 36.6286C78.6902 36.6186 78.6702 36.6086 78.6702 36.6086C78.7602 36.4586 78.8602 36.2886 78.9802 36.1086C78.8402 36.2686 78.7002 36.4086 78.5802 36.5286C78.5402 36.4886 78.5002 36.4386 78.4702 36.3786C78.6002 36.0886 78.7602 35.7486 78.9402 35.3586C78.7102 35.6686 78.5202 35.9186 78.3502 36.0986C78.3402 36.0586 78.3302 36.0186 78.3202 35.9686C78.4402 35.6886 78.5602 35.3786 78.7002 35.0286C78.5402 35.3086 78.4002 35.5486 78.2802 35.7386C78.2202 35.2986 78.2202 34.7086 78.2602 33.9786C78.1902 34.7286 78.1502 35.3386 78.1702 35.7786C78.0702 35.9386 77.9802 36.0986 77.8902 36.2386C77.6702 36.4386 77.5402 36.3386 77.4702 35.9686M77.0702 76.0786C76.7602 76.7286 76.6102 77.5886 76.4302 78.6486C76.5602 77.5686 76.7002 76.7086 77.0702 76.0786ZM77.0702 76.0786C77.1202 75.9686 77.1702 75.8686 77.2302 75.7786C77.1602 75.2686 77.2502 74.8886 77.4202 74.5986C77.5102 74.3686 77.6402 74.1886 77.7902 74.0486C78.0902 73.7586 78.4802 73.6686 79.0102 73.7286C79.2002 73.7486 79.4102 73.7886 79.6402 73.8486C79.7102 73.8486 79.7802 73.8586 79.8602 73.8686C79.4902 73.7586 79.1602 73.6786 78.8702 73.6386C78.2902 73.5586 77.8502 73.6186 77.5802 73.8886C77.1402 74.1786 76.8702 74.6686 77.1502 75.5186C77.0302 75.6286 76.9202 75.7486 76.8202 75.8686C76.8202 75.8686 76.8302 75.8886 76.8402 75.8886C76.8102 75.9086 76.7902 75.9286 76.7602 75.9386M76.7602 75.9386C76.3002 76.5886 76.1202 77.4586 75.9302 78.5786C75.9802 77.3086 76.0302 76.3786 76.7602 75.9386ZM76.7602 75.9386C76.7802 75.9086 76.8002 75.8886 76.8202 75.8586C76.5202 75.5486 76.3202 75.2986 76.2202 75.1086C76.1102 75.1186 76.0102 75.1386 75.9102 75.1486M75.9102 75.1486C76.0202 75.2486 76.1702 75.3686 76.3702 75.5086C74.3502 75.6186 73.7802 76.3286 73.2502 78.6586C73.8102 76.2586 74.2702 75.4286 75.9102 75.1486ZM75.9102 75.1486C75.7802 75.0286 75.7002 74.9386 75.6702 74.8586C75.4702 74.7786 75.3202 74.7086 75.2102 74.6486C75.0502 74.6786 74.9002 74.7186 74.7502 74.7586C74.8902 74.7886 75.0502 74.8186 75.2302 74.8486C75.1202 74.8486 75.0202 74.8486 74.9102 74.8586C75.0502 74.8986 75.2102 74.9386 75.3902 74.9886C74.7702 74.9886 74.3002 75.0286 73.8902 75.1586C74.0602 75.1886 74.2402 75.2386 74.4502 75.3186C74.2402 75.2486 74.0602 75.1986 73.8802 75.1586C73.7702 75.1886 73.6702 75.2286 73.5702 75.2786M73.5702 75.2786C72.8602 75.7386 72.2302 76.4786 71.3102 77.7486C72.2602 76.3286 72.8302 75.6186 73.5702 75.2786ZM73.5702 75.2786C73.6402 75.2286 73.7202 75.1886 73.7902 75.1486C73.6002 75.1286 73.4202 75.1486 73.2302 75.1986M73.2302 75.1986C72.7802 75.3886 72.3702 75.6986 71.8602 76.1686M73.2302 75.1986C72.8502 75.3186 72.4502 75.6186 71.8602 76.1686M73.2302 75.1986C73.2902 75.1786 73.3402 75.1486 73.4002 75.1286C72.6802 75.1786 71.9902 75.6786 70.5002 76.9286C72.1102 75.4186 72.0502 75.4486 70.4802 76.8886C71.5902 75.6786 71.1902 75.8886 69.5602 77.0086C70.0402 76.4886 69.3302 76.8586 68.5902 77.2686C68.1402 77.4886 67.6502 77.7486 67.3102 77.9186C66.9702 78.0986 66.7802 78.1986 66.7802 78.1986C66.7802 78.1986 66.9402 78.0586 67.2102 77.8286C67.4802 77.5886 67.8702 77.2486 68.2602 76.8886C68.8202 76.4386 69.3602 75.9686 68.7302 75.7986C70.2402 75.2086 70.5402 74.9386 69.0402 74.6686C71.0602 74.4186 71.2702 74.1586 69.7702 72.9686C71.3602 73.5486 71.8902 73.5486 71.7402 72.5886C71.5402 72.4186 71.1902 72.0386 70.6702 71.4686C71.0302 71.7086 71.3502 71.8986 71.6202 72.0286C71.5802 71.8986 71.5402 71.7586 71.4902 71.5986C71.5802 71.7786 71.6502 71.9386 71.7102 72.0786C72.4802 72.4186 72.9002 72.2686 73.1802 71.5786C72.9602 71.8086 72.5702 71.3986 71.8602 70.4886C72.4502 70.9486 72.9102 71.2186 73.2802 71.3086C73.3302 71.1686 73.3702 71.0086 73.4102 70.8286C73.3802 71.0286 73.3502 71.1886 73.3202 71.3186C73.7302 71.3986 74.0302 71.2486 74.2802 70.8786C74.1002 70.9486 73.7902 70.5186 73.2102 69.8086C74.2302 70.5786 74.8002 70.8786 75.1202 70.5586C75.2202 70.6186 75.0702 70.0486 74.6502 68.9886C75.7602 70.4286 76.1402 70.7186 75.8502 69.8286C75.7302 69.5586 75.5502 69.1586 75.3202 68.6086C75.7102 70.0986 75.5802 69.8886 75.0402 68.5186C75.2402 69.3686 75.0202 69.0586 74.6002 68.3086C74.5002 68.1686 74.2002 67.6586 73.9002 67.1486C73.0202 65.6186 72.1602 64.1686 71.8802 62.2986C71.4702 59.6286 70.9302 57.0886 69.8302 54.5986C68.8002 52.7886 67.5202 51.0886 66.0502 49.5686C65.0002 48.4686 63.8402 47.4786 62.6002 46.6086C61.9802 46.1686 61.3402 45.7586 60.8802 45.7986C60.0302 44.9986 59.3502 44.6486 58.5302 45.8586C57.9702 43.9986 57.2602 43.7086 55.4502 44.3386C55.8302 43.1886 55.1002 42.9486 54.1602 42.7986C53.6302 42.5386 52.8902 42.3686 52.1402 42.2186C50.6402 41.9286 49.1202 41.7586 47.6002 41.7186C49.0502 41.4486 50.5602 41.3786 52.1002 41.4186C52.8702 41.4386 53.6502 41.4886 54.0402 41.5686C55.2302 41.6286 56.0202 41.7086 54.5302 42.1086C57.6202 41.8886 58.4202 41.9786 60.8402 44.6886C60.0402 42.1586 60.8402 42.2386 63.4002 42.9086C62.4602 42.3686 63.2602 42.4186 64.1002 42.4686C64.8702 42.4586 65.6702 42.4486 66.4702 42.3986C66.8702 42.3786 67.2602 42.3386 67.2202 42.2986C67.9202 42.2586 68.3102 42.2086 67.8302 42.0986C67.8102 42.0986 67.7902 42.0986 67.7702 42.0986C67.7302 42.0986 67.7002 42.0986 67.6602 42.0986C67.6902 42.0986 67.7102 42.0986 67.7402 42.0986C67.7302 42.0986 67.7102 42.0986 67.7002 42.0986C67.7402 42.0986 67.7702 42.0986 67.8102 42.0986C67.7302 42.0786 67.6202 42.0586 67.4802 42.0386C68.1302 42.0386 68.6102 42.0186 68.8802 41.9986C69.0802 41.9786 69.2702 41.9586 69.4302 41.9286C69.6902 41.8786 69.8602 41.8186 69.9202 41.7286C69.9102 41.6286 69.7902 41.4986 69.5602 41.3286C69.5102 41.3286 69.4602 41.3286 69.4002 41.3286M71.8602 76.1686C71.5502 76.4586 71.2002 76.8086 70.7802 77.2486C71.2002 76.8186 71.5502 76.4586 71.8602 76.1686ZM69.4002 41.3286C69.0602 41.3386 68.5102 41.2586 67.7302 41.1186C68.4702 41.2486 69.0302 41.3286 69.4002 41.3286ZM69.4002 41.3286C69.4602 41.3286 69.5102 41.3286 69.5502 41.3186C69.3402 41.1586 69.0402 40.9686 68.6402 40.7386C68.5302 40.6886 68.4302 40.6286 68.3102 40.5786C68.3902 40.6086 68.4602 40.6486 68.5302 40.6786C68.4802 40.6486 68.4402 40.6286 68.3902 40.5986C68.9402 40.8086 69.3902 40.9686 69.7602 41.0886C69.7002 40.8586 69.3302 40.4586 68.6302 39.8286C68.8402 39.9486 69.0302 40.0586 69.2102 40.1586C69.0802 40.0286 68.9402 39.8986 68.7802 39.7386C69.4802 40.1986 70.0102 40.5286 70.3802 40.7186C70.6802 40.8286 70.8802 40.8386 70.9702 40.7386C70.8702 40.3786 70.6002 39.8386 70.1802 39.0686C70.3702 39.2886 70.5302 39.4886 70.6802 39.6686C70.5902 39.4786 70.4802 39.2586 70.3602 39.0186C70.0402 38.9486 69.6802 38.8286 69.2702 38.6486C69.0502 38.6386 68.8302 38.6286 68.6002 38.6086C68.8602 38.6186 69.1202 38.6286 69.3602 38.6386C69.2902 38.6186 69.2202 38.5986 69.1502 38.5686C69.2302 38.5886 69.3102 38.6186 69.3902 38.6386C69.6002 38.6386 69.8102 38.6386 70.0102 38.6186C69.9802 38.5986 69.9502 38.5786 69.9202 38.5486C69.9602 38.5686 69.9902 38.5886 70.0202 38.6186C70.8502 38.5486 71.5302 38.2986 72.0902 37.5986C72.2502 37.7886 72.4002 37.9486 72.5502 38.0686C72.6202 37.9586 72.6902 37.8286 72.7702 37.6986C72.8002 37.7486 72.8202 37.7986 72.8502 37.8386C72.8702 37.8086 72.9002 37.7786 72.9202 37.7386C72.9202 37.7386 72.9202 37.7586 72.9302 37.7686C72.9502 37.7486 72.9702 37.7186 72.9902 37.6986C73.0102 37.7186 73.0202 37.7386 73.0402 37.7586C73.0402 37.7586 73.0602 37.7486 73.0702 37.7386C73.1202 37.8086 73.1702 37.8786 73.2202 37.9486C73.3202 38.0486 73.4202 38.1086 73.5202 38.1486C73.5702 38.0886 73.6102 38.0286 73.6602 37.9686C73.6602 38.0386 73.6702 38.0986 73.6802 38.1686C73.8202 38.0786 73.9502 37.9186 74.0802 37.7386C74.2902 37.5686 74.4402 37.1486 74.4502 36.6186C74.4802 35.5486 73.9802 34.0186 73.1402 31.5886C73.5202 32.4186 73.8502 33.1086 74.1402 33.6686C73.8902 33.0886 73.6102 32.4386 73.2902 31.7286C73.9502 33.1086 74.4802 34.1986 74.9302 35.0386C74.7402 34.2786 74.4402 33.3686 74.0602 32.2386C74.7702 34.0386 75.2402 35.1086 75.5502 35.5386C75.7702 35.3286 75.8002 34.4186 75.7802 32.9586C75.9102 33.6586 76.0202 34.1286 76.1102 34.4086C76.1202 34.0386 76.1302 33.6086 76.1202 33.1086C76.2202 33.9786 76.3002 34.4886 76.3702 34.7186C76.3902 34.6986 76.4102 34.6786 76.4302 34.6386C76.3602 34.2086 76.2802 33.7286 76.2002 33.1886C76.2902 33.7086 76.3702 34.1686 76.4502 34.5786C76.5602 34.3486 76.6702 33.8686 76.8002 33.2186C76.6702 34.0486 76.5802 34.6386 76.5002 34.8086C76.7302 35.9286 76.9602 36.6586 77.2502 37.0386C77.4002 36.9086 77.5602 36.7186 77.7302 36.4786C77.6002 36.4386 77.5202 36.2686 77.4702 35.9686M77.4702 35.9686C77.4702 35.9186 77.4502 35.8586 77.4502 35.7986M77.4702 35.9686C77.4602 35.9186 77.4502 35.8586 77.4502 35.7986M77.4502 35.7986C77.4502 35.7786 77.4502 35.7686 77.4502 35.7486M77.4502 35.7486C77.4502 35.6586 77.4302 35.5586 77.4302 35.4586M77.4502 35.7486C77.4402 35.6686 77.4302 35.5686 77.4302 35.4586M77.4302 35.4586C77.4302 35.4586 77.4302 35.4486 77.4302 35.4386M77.4302 35.4586C77.4302 35.4486 77.4302 35.4386 77.4302 35.4386M77.4302 35.4386C77.4302 35.3486 77.4302 35.2486 77.4302 35.1486C77.4302 35.1086 77.4302 35.0786 77.4302 35.0386M77.4302 35.0386C77.4302 34.9986 77.4302 34.9486 77.4302 34.8986M77.4302 35.0386C77.4302 34.9886 77.4302 34.9386 77.4302 34.8986M77.4302 34.8986C77.4302 34.5286 77.4302 34.0986 77.4602 33.6086C77.4402 34.1086 77.4302 34.5386 77.4302 34.8986Z" stroke="currentColor" stroke-width="2" stroke-miterlimit="10"/>
</svg>
