<svg width="101" height="131" viewBox="0 0 101 131" fill="none" xmlns="http://www.w3.org/2000/svg">
<path d="M41.1396 76.5712C45.7196 70.5312 45.6796 61.3512 47.1296 54.1912C48.8396 45.7512 50.9096 36.8912 49.2596 28.2712C48.6796 25.2512 47.3896 22.8812 45.2396 21.4012C43.0996 19.4212 38.0996 16.4212 36.0996 21.4212C33.6596 29.5512 33.3296 70.0712 31.4496 78.5412C29.5096 92.4712 22.6496 105.341 20.5996 118.711C20.6896 118.931 20.7696 119.151 20.8596 119.371C23.3996 117.631 39.6996 78.4712 41.1396 76.5712Z" fill="currentColor"/>
<path d="M56.0504 56.0219C57.1104 65.4319 54.1104 74.4319 57.9704 81.9419C59.2504 83.5119 61.2904 84.2419 63.7904 85.0919C64.9504 85.2619 66.0303 85.3419 67.0704 85.5119C68.1104 85.6819 69.1104 85.9319 69.8304 85.9319C69.5004 84.7319 69.1103 83.0319 68.8803 81.3219C68.2003 76.2019 68.9504 71.0419 69.2204 65.8119C69.6204 57.8819 69.2204 49.9219 68.5303 42.0119C67.4604 29.7219 63.6404 17.5919 49.1104 16.4219C52.1104 22.8019 53.8404 29.3119 54.8304 35.9219C55.8104 42.5319 56.0504 49.2419 56.0504 56.0119V56.0219Z" fill="currentColor"/>
</svg>
