<svg width="285" height="272" viewBox="0 0 285 272" fill="none" xmlns="http://www.w3.org/2000/svg">
<path d="M84.502 136.875C84.589 136.868 84.676 136.856 84.763 136.85C84.9432 136.738 84.8438 136.751 84.502 136.875Z" fill="currentColor"/>
<path d="M84.7637 136.846C84.6829 136.896 84.5462 136.964 84.3535 137.063C85.2858 137.001 86.1186 136.933 86.8645 136.859C87.4238 136.648 86.8085 136.667 84.7637 136.853V136.846Z" fill="currentColor"/>
<path d="M99.3076 198.655C99.1646 198.302 99.0341 197.93 98.8477 197.559C98.8477 198.079 98.8477 198.586 99.3076 198.655Z" fill="currentColor"/>
<path d="M82.0161 138.223C82.0658 138.154 82.1031 138.099 82.1404 138.043C81.811 138.179 81.4505 138.334 81.0527 138.495C81.3884 138.402 81.7053 138.309 82.0161 138.223Z" fill="currentColor"/>
<path d="M80.2205 138.175C80.1895 138.113 80.1584 138.057 80.1211 138.008C80.1273 138.082 80.1335 138.156 80.1273 138.249C80.1584 138.225 80.1895 138.2 80.2205 138.175Z" fill="currentColor"/>
<path d="M81.5371 138.818C82.3886 138.366 83.0909 138.019 83.6379 137.777C83.1469 137.914 82.6061 138.062 82.0219 138.223C81.8976 138.39 81.7422 138.588 81.5433 138.818H81.5371Z" fill="currentColor"/>
<path d="M96.0326 179.339C95.6473 179.246 95.1936 179.246 94.9512 179.246C95.3241 179.246 95.6846 179.283 96.0326 179.339Z" fill="currentColor"/>
<path d="M103.049 187.246C102.831 187.487 102.614 187.741 102.402 188.001C102.421 187.983 102.44 187.97 102.458 187.952C103.154 187.326 103.726 186.497 104.422 185.902C104.267 186.032 104.112 186.175 103.962 186.317C103.676 186.639 103.366 186.943 103.049 187.246Z" fill="currentColor"/>
<path d="M83.6328 137.776C84.0803 137.652 84.4905 137.54 84.8572 137.441C84.9194 137.28 84.4781 137.398 83.6328 137.776Z" fill="currentColor"/>
<path d="M97.0566 172.739C97.1188 172.677 97.1809 172.615 97.2369 172.553C97.3052 172.355 97.2369 172.423 97.0566 172.739Z" fill="currentColor"/>
<path d="M98.8525 171.22C99.1446 170.7 98.6847 171.109 97.2365 172.557C97.2054 172.644 97.1495 172.787 97.0625 172.985C97.74 172.341 98.3304 171.752 98.8525 171.22Z" fill="currentColor"/>
<path d="M148.266 210.588C147.93 210.414 147.594 210.204 147.209 210.043C147.545 210.439 147.88 210.829 148.266 210.588Z" fill="currentColor"/>
<path d="M96.0246 175.369C96.0246 175.289 96.0121 175.22 95.9997 175.152C95.8381 175.468 95.6579 175.815 95.459 176.193C95.6517 175.908 95.8381 175.635 96.0246 175.369Z" fill="currentColor"/>
<path d="M94.6201 176.484C94.5579 176.453 94.4957 176.434 94.4336 176.422C94.4833 176.471 94.5392 176.533 94.5952 176.601C94.6014 176.558 94.6138 176.527 94.6201 176.484Z" fill="currentColor"/>
<path d="M96.0382 176.131C96.3987 175.239 96.7156 174.521 96.9705 173.988C96.6846 174.403 96.3614 174.868 96.0195 175.369C96.032 175.58 96.0382 175.827 96.032 176.131H96.0382Z" fill="currentColor"/>
<path d="M133.287 197.887C132.933 198.066 132.585 198.351 132.404 198.506C132.69 198.264 132.989 198.066 133.287 197.887Z" fill="currentColor"/>
<path d="M143.759 200.445C143.759 200.445 143.765 200.395 143.771 200.37C143.902 199.448 143.802 198.439 143.952 197.547C143.921 197.745 143.889 197.956 143.865 198.16C143.852 198.587 143.815 199.021 143.765 199.454C143.753 199.782 143.753 200.11 143.765 200.445H143.759Z" fill="currentColor"/>
<path d="M96.9766 173.987C97.2438 173.603 97.48 173.263 97.6975 172.947C97.6416 172.786 97.3806 173.157 96.9766 173.987Z" fill="currentColor"/>
<path d="M129.811 192.181C129.817 192.094 129.824 192.007 129.836 191.921C129.762 191.723 129.749 191.822 129.811 192.181Z" fill="currentColor"/>
<path d="M129.836 191.919C129.867 192.006 129.917 192.155 129.979 192.359C130.078 191.43 130.159 190.601 130.209 189.857C130.097 189.269 130.01 189.882 129.836 191.913V191.919Z" fill="currentColor"/>
<path d="M193.461 188.379C193.088 188.459 192.697 188.521 192.299 188.639C192.808 188.732 193.318 188.812 193.461 188.379Z" fill="currentColor"/>
<path d="M130.72 194.856C130.664 194.8 130.614 194.75 130.564 194.707C130.645 195.054 130.732 195.431 130.819 195.853C130.782 195.506 130.751 195.178 130.72 194.862V194.856Z" fill="currentColor"/>
<path d="M130.358 196.605C130.29 196.624 130.227 196.649 130.178 196.674C130.252 196.674 130.327 196.692 130.414 196.711C130.395 196.674 130.377 196.643 130.358 196.605Z" fill="currentColor"/>
<path d="M131.222 195.429C130.923 194.513 130.7 193.763 130.557 193.188C130.606 193.689 130.656 194.253 130.718 194.853C130.867 195.002 131.029 195.194 131.222 195.429Z" fill="currentColor"/>
<path d="M220.946 199.011C214.662 199.921 186.172 197.89 186.29 194.094C185.898 194.831 185.649 194.837 185.482 194.441C184.848 192.404 184.593 190.67 183.785 188.837L183.685 189.382C183.735 189.11 183.648 188.813 183.487 188.503C183.487 188.243 183.586 188.026 183.779 187.847C187.265 188.317 190.46 189.444 193.493 188.286C193.487 188.324 193.474 188.348 193.462 188.379C194.202 188.218 194.873 187.958 195.426 186.937C191.274 189.438 186.495 186.912 183.468 183.494C183.996 184.336 184.549 185.197 185.42 185.729C184.276 185.036 183.58 183.859 182.828 182.732C182.554 182.385 182.306 182.033 182.07 181.673C181.902 181.463 181.721 181.259 181.529 181.073C181.237 180.447 181.069 179.803 181.578 178.868L180.932 179.32C181.603 177.426 186.134 177.364 187.676 177.203C191.299 176.825 194.947 176.732 198.577 176.429C199.963 176.311 199 173.413 200.317 172.974C200.485 172.918 200.659 172.856 200.784 172.726C201.088 172.423 222.773 176.441 222.748 176.063C222.723 175.692 222.68 175.333 222.736 175.017C223.071 174.701 234.65 176.169 235.297 175.723C234.47 175.005 221.567 172.837 220.536 172.664C218.671 172.354 197.415 170.125 195.526 170.008C191.299 169.754 187.048 169.729 182.822 169.822C182.536 169.828 182.256 169.834 181.97 169.841C181.833 169.841 181.684 169.847 181.572 169.927C181.473 169.995 181.417 170.107 181.355 170.206C180.137 172.119 178.067 170.014 177.731 168.559C177.713 168.485 177.7 168.398 177.731 168.33C177.775 168.255 177.862 168.218 177.943 168.194C181.541 167.023 185.525 167.067 189.285 166.967C191.349 166.912 193.412 166.844 195.476 166.893C197.365 166.937 218.758 169.5 220.604 168.955C220.735 168.918 220.871 168.868 220.964 168.769C221.393 168.317 220.424 168.033 220.15 167.971C219.51 167.841 218.845 167.878 218.205 167.766C214.264 167.091 190.951 164.509 186.986 164.033C185.27 163.828 184.773 163.141 183.779 161.847C183.754 161.816 183.735 161.785 183.71 161.754C184.257 161.692 184.804 161.63 185.351 161.568C187.999 160.899 190.765 160.144 193.599 159.438C194.177 159.32 194.761 159.209 195.364 159.122C198.72 158.639 201.635 161.45 204.73 159.029C206.862 157.159 204.227 154.831 206.16 153.723C207.807 152.138 209.398 153.766 210.989 155.407C211.418 156.163 211.853 156.943 212.655 157.24C213.208 157.395 213.78 157.611 214.42 157.921C216.987 159.166 220.629 161.909 228.267 168.224C213.015 150.627 217.795 158.54 214.134 156.478C211.238 151.19 215.756 155.166 232.09 165.401C207.272 149.023 255.938 134.014 268.592 128.262C253.42 129.296 239.473 138.967 241.661 132.967C237.435 137.686 214.296 154.379 211.94 151.395C212.114 152.212 211.928 152.373 211.542 152.175C209.746 151.023 208.428 149.859 206.626 148.967L206.906 149.45C206.769 149.209 206.508 149.042 206.185 148.906C206.011 148.714 205.955 148.472 205.986 148.218C208.963 146.348 212.133 145.159 213.711 142.336C213.73 142.367 213.736 142.398 213.749 142.429C214.209 141.834 214.557 141.203 214.32 140.063C212.754 144.639 207.465 145.766 202.94 145.085C203.767 145.351 204.612 145.618 205.482 145.58C204.295 145.649 203.127 145.252 201.958 144.906C201.523 144.813 201.101 144.707 200.697 144.584C200.429 144.528 200.162 144.491 199.895 144.466C199.267 144.175 198.726 143.791 198.509 142.745L198.304 143.5C197.595 141.618 201.026 138.664 202.101 137.556C204.631 134.943 207.372 132.54 209.951 129.983C210.933 129.005 208.329 127.407 209.056 126.218C209.149 126.07 209.236 125.909 209.255 125.729C209.292 125.302 228.497 114.497 228.23 114.218C227.969 113.952 227.708 113.698 227.546 113.426C227.596 112.967 237.422 106.676 237.621 105.921C236.521 105.902 225.241 112.497 224.339 113.029C222.711 113.983 204.985 125.89 203.469 127.011C200.069 129.519 196.8 132.224 193.617 135.005C193.406 135.19 193.189 135.376 192.977 135.562C192.872 135.655 192.766 135.754 192.729 135.884C192.698 136.002 192.729 136.119 192.741 136.237C193.039 138.478 190.1 138.193 188.9 137.296C188.838 137.246 188.776 137.197 188.757 137.116C188.738 137.029 188.788 136.949 188.832 136.875C190.833 133.673 193.916 131.153 196.731 128.676C198.279 127.314 199.814 125.94 201.424 124.652C202.897 123.475 220.94 111.735 222.002 110.138C222.077 110.026 222.152 109.902 222.158 109.766C222.195 109.147 221.269 109.543 221.02 109.68C220.442 109.989 219.964 110.441 219.398 110.769C215.949 112.776 196.42 125.723 193.077 127.902C191.629 128.844 190.802 128.633 189.211 128.28C189.174 128.274 189.136 128.262 189.099 128.255C189.478 127.859 189.857 127.463 190.236 127.06C191.827 124.85 193.462 122.503 195.184 120.15C195.557 119.686 195.929 119.228 196.327 118.776C198.59 116.262 202.63 116.546 203.444 112.707C203.873 109.909 200.349 109.816 201.113 107.729C201.349 105.463 203.624 105.692 205.899 105.927C206.713 106.231 207.552 106.553 208.354 106.268C208.876 106.033 209.454 105.828 210.144 105.661C212.91 104.967 217.472 104.738 227.397 104.683C204.364 100.967 213.127 103.971 208.988 104.732C203.357 102.54 209.379 102.689 228.497 100.07C198.919 103.42 226.515 60.7508 232.5 48.243C221.543 58.757 217.105 75.0913 214.905 69.0975C214.712 75.4195 207.757 103.023 204.028 102.249C204.687 102.763 204.649 103.005 204.227 103.104C202.101 103.37 200.342 103.327 198.391 103.797L198.913 103.989C198.652 103.896 198.341 103.927 198.012 104.033C197.757 103.995 197.558 103.853 197.415 103.63C198.49 100.293 200.156 97.3514 199.534 94.1749C199.572 94.1873 199.596 94.2059 199.621 94.2245C199.59 93.4752 199.447 92.7693 198.534 92.0449C200.286 96.5526 196.961 100.8 193.058 103.178C193.86 102.856 194.68 102.515 195.327 101.933C194.463 102.745 193.313 103.19 192.194 103.673C191.803 103.878 191.411 104.07 191.019 104.231C190.783 104.361 190.547 104.503 190.33 104.658C189.658 104.837 188.999 104.893 188.16 104.231L188.496 104.943C186.737 103.952 187.464 99.4938 187.57 97.9582C187.825 94.3359 188.372 90.7446 188.695 87.1285C188.819 85.7477 185.786 86.1935 185.581 84.8189C185.556 84.6455 185.519 84.4659 185.42 84.3173C185.171 83.9644 192.915 63.3885 192.53 63.3452C192.157 63.308 191.79 63.2833 191.492 63.178C191.237 62.7941 194.699 51.6858 194.369 50.9737C193.518 51.661 189.13 63.9396 188.782 64.9241C188.148 66.695 182.256 87.1718 181.815 88.9984C180.826 93.0975 180.068 97.2647 179.428 101.432C179.385 101.711 179.341 101.989 179.298 102.268C179.279 102.404 179.254 102.553 179.316 102.676C179.366 102.788 179.465 102.862 179.552 102.943C181.23 104.466 178.788 106.132 177.296 106.212C177.215 106.212 177.135 106.212 177.072 106.169C177.004 106.113 176.985 106.02 176.973 105.94C176.445 102.206 177.178 98.3049 177.731 94.6022C178.036 92.5712 178.328 90.534 178.732 88.5155C179.105 86.6703 185.351 66.1254 185.134 64.2183C185.121 64.082 185.096 63.9458 185.016 63.8344C184.643 63.3328 184.189 64.2368 184.083 64.4969C183.841 65.1037 183.766 65.7601 183.543 66.3731C182.194 70.1192 175.587 92.5464 174.431 96.3545C173.928 98.0077 173.163 98.3731 171.709 99.1223C171.678 99.1409 171.64 99.1532 171.603 99.1718C171.634 98.6269 171.671 98.0758 171.702 97.531C171.497 94.8189 171.236 91.9706 171.031 89.0728C171.019 88.4845 171.006 87.8901 171.025 87.2833C171.131 83.9087 174.419 81.5371 172.56 78.0758C171.087 75.661 168.328 77.8405 167.563 75.7539C166.283 73.8653 168.172 72.5836 170.068 71.308C170.888 71.017 171.74 70.726 172.169 69.9954C172.417 69.4814 172.728 68.9551 173.151 68.3793C174.823 66.082 178.173 62.9799 185.736 56.5836C165.692 68.4907 174.344 65.178 171.665 68.4102C165.935 70.3359 170.646 66.5898 183.605 52.3421C163.107 73.8467 156.718 23.4938 153.231 10.082C151.621 25.147 158.756 40.5093 153.206 37.3204C157.14 42.2864 169.62 67.8839 166.264 69.6796C167.103 69.6486 167.228 69.8591 166.966 70.2059C165.512 71.7724 164.132 72.8622 162.945 74.4721L163.467 74.2802C163.206 74.3731 162.989 74.6022 162.802 74.8932C162.578 75.0294 162.336 75.048 162.087 74.9675C160.757 71.7229 160.136 68.404 157.613 66.3669C157.65 66.3545 157.681 66.3545 157.712 66.3483C157.202 65.791 156.643 65.3452 155.474 65.3762C159.726 67.7043 159.918 73.0913 158.464 77.4133C158.868 76.6517 159.278 75.8653 159.396 75.0046C159.26 76.1811 158.663 77.2585 158.116 78.3421C157.948 78.7508 157.768 79.147 157.575 79.5248C157.476 79.7786 157.389 80.0325 157.32 80.2926C156.923 80.856 156.45 81.3266 155.381 81.3514L156.096 81.6858C154.113 82.0511 151.789 78.1749 150.881 76.9241C148.737 73.983 146.835 70.8808 144.759 67.9025C143.964 66.7693 141.931 69.048 140.887 68.1254C140.757 68.0077 140.614 67.8901 140.44 67.8467C140.023 67.7353 132.677 47.017 132.36 47.2275C132.049 47.4381 131.757 47.6548 131.459 47.7601C131.017 47.63 126.505 36.8994 125.79 36.5712C125.579 37.6424 130.141 49.8591 130.508 50.8375C131.167 52.6022 139.862 72.0573 140.701 73.7415C142.59 77.5124 144.697 81.1904 146.891 84.7941C147.04 85.0356 147.183 85.2771 147.333 85.5186C147.407 85.6362 147.482 85.7601 147.606 85.822C147.712 85.8715 147.836 85.8653 147.96 85.8715C150.229 85.9644 149.433 88.8065 148.339 89.822C148.283 89.8777 148.215 89.9272 148.14 89.9334C148.053 89.9334 147.979 89.8777 147.917 89.8158C145.101 87.2957 143.143 83.8344 141.179 80.6455C140.104 78.8932 139.01 77.1471 138.016 75.3452C137.108 73.6919 128.637 53.9582 127.245 52.6331C127.145 52.5402 127.04 52.4474 126.903 52.4164C126.294 52.274 126.53 53.2523 126.617 53.5186C126.822 54.1378 127.189 54.6888 127.413 55.2957C128.799 59.0294 138.209 80.4412 139.781 84.1006C140.465 85.6858 140.11 86.4597 139.483 87.9582C139.47 87.9954 139.452 88.0263 139.439 88.0635C139.11 87.6238 138.787 87.1842 138.457 86.7384C136.549 84.7941 134.51 82.7817 132.484 80.6888C132.093 80.243 131.701 79.7972 131.322 79.3266C129.227 76.6703 130.216 72.7508 126.555 71.2895C123.864 70.3854 123.155 73.822 121.228 72.7136C119.028 72.0882 119.65 69.8963 120.278 67.7043C120.719 66.9551 121.185 66.1935 121.042 65.3514C120.899 64.8003 120.8 64.1935 120.75 63.4876C120.545 60.6517 121.11 56.1378 122.782 46.3916C115.113 68.3483 119.6 60.2678 119.637 64.4597C116.492 69.6053 117.686 63.7167 118.419 44.5093C116.592 74.1068 79.2072 39.6238 67.883 31.5867C76.3731 44.1625 91.7496 51.3576 85.4411 52.4659C91.6563 53.7477 117.736 65.37 116.318 68.8932C116.94 68.3359 117.176 68.4164 117.195 68.8436C117.089 70.9737 116.735 72.695 116.865 74.6889L117.145 74.2059C117.008 74.4474 116.99 74.757 117.027 75.0975C116.946 75.3452 116.766 75.5124 116.53 75.6115C113.416 73.9768 110.799 71.8344 107.549 71.8901C107.567 71.8591 107.592 71.8344 107.611 71.8096C106.859 71.7105 106.144 71.7229 105.268 72.4969C110.029 71.5619 113.652 75.5619 115.324 79.8034C115.144 78.9613 114.951 78.0944 114.485 77.3638C115.138 78.3545 115.374 79.5557 115.66 80.7384C115.796 81.1594 115.914 81.5743 116.008 81.9892C116.095 82.243 116.194 82.4969 116.306 82.7384C116.362 83.4257 116.306 84.0882 115.504 84.7941L116.262 84.5898C114.982 86.144 110.7 84.6579 109.196 84.2864C105.659 83.4071 102.204 82.2492 98.6858 81.3019C97.3433 80.9427 97.2563 83.9892 95.8641 83.952C95.69 83.952 95.5036 83.952 95.342 84.0263C94.9504 84.2059 75.9566 73.0418 75.8448 73.4071C75.7391 73.7663 75.6583 74.1192 75.4967 74.3916C75.0741 74.5774 64.6946 69.2461 63.9301 69.4505C64.4647 70.404 75.8385 76.8436 76.746 77.3576C78.3868 78.2864 97.6043 87.6238 99.3322 88.3731C103.21 90.0511 107.201 91.5186 111.209 92.8746C111.477 92.9675 111.744 93.0542 112.017 93.1471C112.148 93.1904 112.291 93.2337 112.421 93.2028C112.54 93.1718 112.627 93.0913 112.726 93.017C114.522 91.6362 115.747 94.3173 115.566 95.7972C115.554 95.8715 115.542 95.9582 115.486 96.0077C115.423 96.0635 115.324 96.0635 115.237 96.0635C111.458 95.9396 107.723 94.5402 104.161 93.3514C102.204 92.7012 100.24 92.0635 98.3191 91.3142C96.554 90.6331 77.3364 80.9365 75.4159 80.8127C75.2792 80.8065 75.1362 80.8003 75.0181 80.8622C74.4588 81.1409 75.273 81.7415 75.5091 81.8901C76.0685 82.2306 76.7025 82.4226 77.2681 82.7446C80.7362 84.7198 101.756 95.0913 105.324 96.8932C106.865 97.6734 107.095 98.4845 107.586 100.039C107.598 100.076 107.605 100.113 107.617 100.15C107.083 100.02 106.548 99.8963 106.014 99.7662C103.298 99.4938 100.438 99.2585 97.536 98.9551C96.9517 98.8684 96.3613 98.7755 95.7708 98.6517C92.4519 97.9582 90.6806 94.3297 86.939 95.5495C84.2913 96.5774 85.9694 99.6672 83.7754 100.051C81.6871 100.98 80.7486 98.9056 79.8163 96.8251C79.6671 95.9706 79.5304 95.0851 78.884 94.5341C78.4179 94.1997 77.9517 93.8034 77.4607 93.2895C75.4781 91.2461 72.9982 87.4257 67.9825 78.8932C76.2736 100.627 74.5023 91.5619 77.2308 94.7508C78.1382 100.707 75.2605 95.4319 63.4205 80.2492C81.1215 104.094 30.2311 101.618 16.3711 102.707C30.9831 106.906 47.41 102.565 43.2955 107.463C48.8893 104.466 76.3606 96.6703 77.5477 100.274C77.6658 99.4443 77.8958 99.3576 78.1879 99.6734C79.4807 101.37 80.3197 102.912 81.7057 104.361L81.6063 103.816C81.656 104.088 81.8425 104.336 82.0973 104.577C82.1905 104.819 82.1657 105.06 82.0476 105.289C78.6105 106.033 75.217 106.063 72.7682 108.187C72.762 108.15 72.7682 108.119 72.7682 108.088C72.1281 108.491 71.5873 108.961 71.4195 110.119C74.4588 106.354 79.8163 107.098 83.8376 109.277C83.1539 108.745 82.4454 108.206 81.6187 107.946C82.7561 108.286 83.7195 109.054 84.6953 109.779C85.0682 110.014 85.4287 110.262 85.7705 110.515C86.0005 110.658 86.2366 110.788 86.4853 110.899C86.9763 111.389 87.3554 111.933 87.2 112.986L87.6537 112.342C87.6724 114.354 83.4336 115.958 82.0414 116.633C78.7659 118.224 75.3662 119.55 72.0597 121.079C70.798 121.661 72.6998 124.057 71.606 124.918C71.4692 125.029 71.3263 125.147 71.2517 125.308C71.0652 125.698 49.3119 129.308 49.4673 129.655C49.6226 129.995 49.7842 130.324 49.834 130.633C49.6289 131.048 38.2425 133.611 37.7888 134.255C38.8143 134.646 51.6799 132.293 52.7116 132.101C54.57 131.76 75.3103 126.608 77.1251 126.076C81.1837 124.875 85.1863 123.45 89.1267 121.921C89.3878 121.816 89.655 121.717 89.9161 121.611C90.0466 121.562 90.1833 121.506 90.2641 121.395C90.3325 121.296 90.3511 121.172 90.376 121.06C90.8608 118.85 93.5334 120.125 94.3475 121.376C94.3911 121.444 94.4346 121.512 94.4221 121.593C94.4097 121.68 94.3351 121.741 94.2667 121.791C91.2896 124.113 87.5294 125.432 84.0302 126.806C82.1097 127.562 80.1954 128.33 78.2376 128.986C76.4476 129.593 55.465 134.472 53.9174 135.611C53.8055 135.692 53.6936 135.779 53.6439 135.909C53.3953 136.478 54.4022 136.423 54.6819 136.379C55.3282 136.286 55.9373 136.02 56.5775 135.909C60.5118 135.203 83.3031 129.686 87.1938 128.776C88.8781 128.385 89.5805 128.862 90.9602 129.741C90.9913 129.76 91.0224 129.785 91.0535 129.803C90.5625 130.051 90.0715 130.293 89.5742 130.534C87.3181 132.063 84.975 133.717 82.5572 135.345C82.0538 135.655 81.5441 135.958 81.0096 136.249C78.0201 137.841 74.322 136.193 72.2399 139.531C70.8788 142.014 74.1542 143.302 72.7185 145.005C71.7178 147.054 69.6606 146.063 67.6033 145.067C66.9383 144.503 66.2671 143.915 65.4094 143.909C64.8376 143.952 64.2223 143.946 63.5137 143.872C60.6796 143.581 56.3102 142.237 46.9625 138.912C67.3361 150.249 60.1264 144.441 64.2782 145.135C68.8153 149.116 63.2092 146.918 44.3459 142.868C73.2903 149.797 32.711 180.491 22.7914 190.206C36.6949 184.063 46.4777 170.224 46.484 176.608C48.8333 170.732 64.85 147.166 68.0819 149.166C67.6344 148.454 67.7587 148.243 68.1876 148.299C70.2759 148.769 71.9105 149.413 73.9056 149.636L73.4768 149.277C73.6881 149.457 73.9926 149.525 74.3407 149.55C74.5706 149.673 74.7074 149.878 74.7633 150.125C72.6066 152.899 70.0335 155.091 69.5239 158.286C69.4928 158.262 69.4804 158.237 69.4555 158.212C69.2255 158.93 69.1137 159.636 69.729 160.633C69.6295 155.803 74.2164 152.943 78.6976 152.039C77.8336 152.07 76.9449 152.107 76.1369 152.435C77.2308 151.964 78.4614 151.94 79.6796 151.865C80.1209 151.803 80.5497 151.76 80.9786 151.741C81.2458 151.698 81.5131 151.649 81.7741 151.58C82.464 151.642 83.1042 151.816 83.6698 152.726L83.6014 151.946C84.9128 153.475 82.7002 157.413 82.0724 158.825C80.587 162.144 78.8405 165.333 77.2929 168.621C76.7025 169.872 79.7044 170.491 79.4247 171.853C79.3875 172.026 79.3626 172.206 79.4061 172.379C79.518 172.794 65.1794 189.494 65.5275 189.661C65.8631 189.822 66.1987 189.971 66.4411 190.175C66.5468 190.621 59.48 199.878 59.5484 200.664C60.5863 200.305 68.921 190.268 69.586 189.463C70.7918 188.014 83.359 170.782 84.3969 169.215C86.7277 165.698 88.8781 162.039 90.9105 158.348C91.0473 158.101 91.184 157.853 91.3207 157.605C91.3891 157.481 91.4575 157.351 91.445 157.215C91.4326 157.098 91.3704 156.992 91.3145 156.887C90.2641 154.881 93.1294 154.15 94.5589 154.584C94.6334 154.608 94.7142 154.633 94.7515 154.701C94.795 154.776 94.7826 154.868 94.764 154.949C93.9808 158.639 91.9547 162.057 90.1585 165.345C89.1765 167.153 88.2007 168.967 87.1316 170.726C86.1496 172.336 73.2281 189.512 72.7744 191.376C72.7434 191.506 72.7123 191.649 72.7558 191.779C72.936 192.373 73.6694 191.686 73.8559 191.475C74.291 190.986 74.5893 190.398 75.0057 189.896C77.5602 186.837 91.4637 168.014 93.8628 164.825C94.9007 163.444 95.746 163.364 97.3682 163.153C97.4054 163.153 97.4427 163.147 97.48 163.141C97.2625 163.642 97.0387 164.144 96.8212 164.652C96.0816 167.271 95.3544 170.033 94.5464 172.831C94.36 173.389 94.1673 173.952 93.9436 174.515C92.6819 177.649 88.7849 178.757 89.3443 182.646C89.9036 185.42 93.2412 184.311 93.2412 186.528C93.7944 188.738 91.5818 189.302 89.3629 189.853C88.4928 189.853 87.5916 189.828 86.939 190.373C86.5288 190.769 86.0564 191.159 85.466 191.556C83.1042 193.147 78.8964 194.918 69.586 198.354C92.5078 193.995 83.2409 194.156 86.8644 192.033C92.9118 192.175 87.1938 194.088 70.1267 203.06C96.7715 189.834 85.4846 239.333 84.1608 253.122C90.8484 239.512 89.4126 222.646 93.5334 227.531C91.5445 221.525 88.6047 193.215 92.3711 192.676C91.5693 192.416 91.5258 192.175 91.8925 191.946C93.7944 190.974 95.4663 190.416 97.1382 189.308H96.5788C96.8585 189.308 97.1382 189.172 97.4117 188.961C97.6665 188.912 97.9027 188.974 98.1078 189.135C98.2445 192.639 97.6913 195.971 99.3632 198.745C99.326 198.745 99.2949 198.738 99.2638 198.732C99.5497 199.426 99.9226 200.045 101.035 200.41C97.8405 196.776 99.5062 191.649 102.359 188.082C101.713 188.658 101.06 189.259 100.656 190.026C101.191 188.968 102.117 188.163 103.005 187.327C103.304 186.998 103.608 186.689 103.919 186.398C104.099 186.194 104.267 185.983 104.422 185.766C104.988 185.37 105.597 185.091 106.61 185.432L106.051 184.875C108.04 185.203 108.891 189.642 109.32 191.122C110.327 194.615 111.048 198.175 111.98 201.686C112.334 203.023 115.032 201.574 115.697 202.794C115.784 202.949 115.877 203.104 116.02 203.209C116.374 203.457 116.163 225.432 116.536 225.339C116.903 225.246 117.251 225.147 117.568 225.147C117.941 225.42 118.5 237.042 119.053 237.593C119.619 236.658 119.525 223.624 119.513 222.584C119.501 220.701 118.009 199.457 117.798 197.587C117.319 193.401 116.598 189.221 115.778 185.091C115.722 184.813 115.666 184.54 115.61 184.262C115.585 184.125 115.554 183.983 115.455 183.884C115.374 183.797 115.249 183.76 115.144 183.717C113.043 182.856 114.765 180.46 116.144 179.878C116.219 179.847 116.294 179.822 116.368 179.841C116.449 179.865 116.499 179.952 116.536 180.026C118.314 183.351 118.966 187.271 119.718 190.937C120.128 192.949 120.557 194.961 120.868 196.998C121.154 198.862 122.335 220.293 123.192 222.008C123.255 222.132 123.323 222.255 123.435 222.33C123.957 222.67 124.075 221.673 124.081 221.389C124.1 220.738 123.945 220.094 123.945 219.444C123.926 215.463 122.434 192.138 122.21 188.163C122.117 186.441 122.708 185.834 123.814 184.639C123.839 184.608 123.87 184.584 123.895 184.559C124.05 185.085 124.206 185.611 124.361 186.138C125.486 188.615 126.71 191.203 127.897 193.859C128.115 194.41 128.326 194.961 128.519 195.537C129.576 198.745 127.307 202.094 130.241 204.714C132.459 206.485 134.299 203.494 135.735 205.19C137.587 206.528 136.251 208.373 134.908 210.218C134.237 210.769 133.535 211.333 133.385 212.169C133.33 212.738 133.211 213.339 133.019 214.02C132.236 216.751 130.154 220.8 125.237 229.395C139.986 211.376 132.988 217.438 134.399 213.488C139.122 209.723 135.977 214.85 128.693 232.652C140.57 205.463 163.865 250.602 171.746 262.014C168.085 247.308 156.102 235.302 162.417 236.41C157.016 233.085 136.499 213.283 139.041 210.454C138.264 210.769 138.072 210.615 138.202 210.2C139.029 208.237 139.955 206.738 140.514 204.819L140.086 205.178C140.297 204.998 140.421 204.714 140.502 204.379C140.664 204.175 140.887 204.076 141.148 204.063C143.516 206.658 145.238 209.568 148.308 210.621C148.277 210.646 148.252 210.658 148.221 210.676C148.893 211.023 149.57 211.259 150.658 210.831C145.866 210.088 143.833 205.098 143.715 200.54C143.597 201.395 143.479 202.274 143.666 203.122C143.392 201.971 143.585 200.757 143.721 199.55C143.74 199.11 143.771 198.676 143.821 198.255C143.827 197.983 143.821 197.717 143.796 197.45C143.976 196.782 144.262 196.181 145.257 195.791L144.473 195.723C146.214 194.701 149.725 197.556 151.006 198.416C154.026 200.447 156.879 202.714 159.856 204.807C160.994 205.605 162.125 202.763 163.418 203.277C163.585 203.339 163.753 203.401 163.933 203.389C164.362 203.351 178.378 220.317 178.608 220.008C178.825 219.704 179.03 219.401 179.273 219.203C179.733 219.172 187.657 227.717 188.44 227.785C188.266 226.707 179.789 216.782 179.111 215.989C177.887 214.559 163.038 199.234 161.665 197.94C158.595 195.042 155.35 192.299 152.05 189.661C151.826 189.481 151.609 189.308 151.385 189.128C151.279 189.042 151.161 188.949 151.024 188.937C150.906 188.924 150.788 188.974 150.676 189.011C148.513 189.698 148.283 186.757 148.967 185.426C149.004 185.358 149.048 185.283 149.116 185.252C149.197 185.221 149.284 185.252 149.365 185.283C152.877 186.689 155.903 189.277 158.843 191.605C160.459 192.887 162.081 194.156 163.635 195.512C165.058 196.757 179.788 212.416 181.554 213.184C181.678 213.24 181.815 213.289 181.945 213.271C182.567 213.197 182.007 212.361 181.833 212.138C181.429 211.624 180.895 211.234 180.472 210.738C177.887 207.698 161.696 190.788 158.967 187.884C157.787 186.627 157.849 185.785 157.923 184.156C157.923 184.119 157.923 184.082 157.929 184.045C158.389 184.348 158.849 184.652 159.309 184.955C161.771 186.132 164.375 187.327 166.998 188.608C167.52 188.893 168.042 189.178 168.558 189.494C171.435 191.277 171.858 195.289 175.792 195.42C178.632 195.358 178.117 191.884 180.311 192.268C182.592 192.107 182.759 194.373 182.921 196.652C182.766 197.506 182.592 198.385 183.014 199.122C183.337 199.593 183.636 200.125 183.928 200.776C185.09 203.37 186.109 207.803 187.887 217.537C187.558 194.293 186.109 203.413 184.643 199.488C185.83 193.581 186.731 199.519 192.635 217.822C184.189 189.389 231.158 209.048 244.558 212.751C232.264 203.828 215.346 202.305 220.89 199.11L220.946 199.011ZM210.989 155.382C210.678 154.906 209.69 154.243 209.423 153.779C210.162 153.977 210.579 154.664 210.989 155.382ZM205.893 105.927C205.346 105.76 204.165 105.884 203.655 105.704C204.351 105.382 205.109 105.642 205.893 105.927ZM170.08 71.3019C169.552 71.5248 168.732 72.3731 168.222 72.5588C168.545 71.8653 169.297 71.5805 170.08 71.3019ZM79.8598 96.8375C79.9841 97.3947 80.6864 98.3483 80.7797 98.8808C80.1519 98.4412 79.9966 97.6548 79.8598 96.8375ZM67.6717 145.048C68.1254 145.395 69.2815 145.673 69.6979 146.02C68.9334 146.088 68.3119 145.58 67.6717 145.048ZM89.4375 189.785C90.0093 189.754 91.0721 189.234 91.6191 189.234C91.0783 189.772 90.2703 189.791 89.4375 189.785ZM134.977 210.119C135.393 209.735 135.878 208.652 136.288 208.305C136.22 209.067 135.617 209.593 134.977 210.119ZM175.885 167.512C175.643 167.803 175.332 167.927 175.003 167.983C174.015 168.138 172.834 167.611 172.616 168.844C175.264 169.872 178.005 170.354 179.167 173.376C176.003 168.875 170.776 169.649 167.358 172.992C166.55 171.159 167.389 169.618 168.073 168.181C168.253 167.729 167.899 167.58 167.526 167.45C167.383 167.401 167.246 167.358 167.103 167.308C167.271 167.141 167.47 166.961 167.675 166.782C168.377 166.187 169.148 165.673 169.956 165.209C172.678 163.803 175.593 163.005 178.577 162.466C178.67 162.447 178.763 162.435 178.856 162.423C178.819 164.41 176.979 165.599 175.885 167.519V167.512ZM176.01 179.512C176.264 179.68 176.519 179.841 176.768 180.002C176.681 180.206 176.594 180.416 176.507 180.621C176.351 180.249 176.184 179.878 176.01 179.512C175.102 178.924 174.182 178.317 173.281 177.735C174.033 176.745 174.617 175.519 175.04 174.336C175.662 174.54 176.134 174.825 176.476 175.172C176.805 175.537 177.01 175.964 177.11 176.454C177.644 177.611 177.284 178.757 176.811 179.902C176.526 179.735 176.24 179.568 175.96 179.395C175.979 179.432 175.997 179.469 176.016 179.506L176.01 179.512ZM161.69 177.153C161.727 177.141 161.764 177.128 161.795 177.122C161.913 177.45 162.032 177.81 162.156 178.194C161.994 177.81 161.839 177.463 161.69 177.159V177.153ZM161.771 178.565C161.485 178.132 161.255 177.958 161.068 177.977C161.043 177.741 161.025 177.543 161.012 177.376C161.105 177.333 161.217 177.302 161.323 177.265C161.441 177.574 161.59 178.008 161.771 178.565ZM160.714 155.933C158.333 157.55 155.823 158.949 152.995 159.853C152.995 159.841 152.982 159.834 152.976 159.822C152.796 159.506 152.603 159.19 152.404 158.875C152.553 158.354 152.715 157.803 152.883 157.209C152.075 155.995 151.31 154.769 150.577 153.525C153.952 154.33 157.327 155.159 160.708 155.933H160.714ZM148.886 120.751C147.898 117.438 146.935 114.119 145.915 110.819C148.513 112.063 150.981 113.531 153.181 115.519C153.181 115.531 153.169 115.537 153.162 115.55C152.982 115.865 152.802 116.187 152.622 116.515C152.093 116.646 151.534 116.782 150.937 116.937C150.291 118.237 149.595 119.5 148.88 120.751H148.886ZM164.866 102.231C164.045 102.002 163.958 101.494 164.443 100.608C165.363 101.153 166.339 101.655 166.954 102.317C166.121 102.317 165.419 102.293 164.866 102.231C165.332 102.361 166.034 102.404 167.004 102.367C167.37 102.782 167.6 103.252 167.582 103.841C167.414 104.305 166.42 104.466 165.804 104.416C161.652 103.19 161.41 102.206 163.318 99.8529C163.374 99.8963 163.43 99.9396 163.492 99.9768C162.647 101.444 163.014 102.033 164.866 102.231ZM164.903 99.4938C164.71 99.6362 164.549 99.7477 164.412 99.8406C164.331 99.7786 164.244 99.7043 164.157 99.6238C164.362 99.37 164.667 99.0232 165.065 98.5898C164.835 99.0542 164.791 99.339 164.903 99.4938ZM165.096 99.6176C165.4 99.7105 165.953 99.6176 166.693 99.4567C167.234 99.7539 168.129 99.9458 169.266 100.15C169.104 100.2 168.943 100.249 168.781 100.293C167.849 100.528 166.867 100.633 165.916 100.435C165.525 100.354 165.152 100.218 164.797 100.045C164.891 99.9087 164.984 99.7663 165.096 99.6176ZM163.884 99.3638C163.884 99.3638 163.828 99.3142 163.803 99.2895C164.033 99.0232 164.281 98.7446 164.555 98.4474C164.3 98.7817 164.076 99.0851 163.89 99.37L163.884 99.3638ZM163.616 99.1285C163.616 99.1285 163.598 99.1161 163.592 99.1099C163.784 98.8808 163.977 98.6517 164.188 98.404C163.983 98.6579 163.797 98.8932 163.616 99.1285ZM165.406 104.553C165.133 104.8 164.884 105.091 164.698 105.5C163.915 107.203 163.25 108.59 162.647 109.735C161.976 107.723 161.292 105.704 160.714 103.624C160.695 103.562 160.683 103.494 160.664 103.432C161.062 102.311 161.858 101.203 163.119 99.6796C163.132 99.6919 163.15 99.7043 163.163 99.7167C160.776 102.862 161.006 103.661 165.406 104.553ZM161.895 120.726C163.082 123.339 164.027 126.045 164.431 128.98C164.418 128.98 164.412 128.986 164.4 128.992C164.058 129.116 163.71 129.252 163.362 129.389C162.877 129.153 162.355 128.899 161.795 128.633C160.459 129.215 159.11 129.754 157.755 130.255C159.135 127.079 160.546 123.915 161.895 120.732V120.726ZM180.864 128.404C180.497 128.416 180.118 128.485 179.708 128.676C178.005 129.481 176.606 130.119 175.407 130.608C176.19 128.639 176.967 126.652 177.868 124.683C177.893 124.621 177.924 124.565 177.955 124.503C178.981 123.896 180.311 123.556 182.256 123.203C182.256 123.221 182.262 123.24 182.268 123.259C178.409 124.138 178.067 124.899 180.864 128.398V128.404ZM178.117 132.825C178.589 132.534 179.061 132.243 179.527 131.946C180.485 130.961 181.628 130.646 182.722 130.639C182.735 130.658 182.747 130.67 182.766 130.689C182.753 130.67 182.741 130.658 182.728 130.639C183.275 130.639 183.81 130.72 184.301 130.831C184.046 131.172 183.797 131.512 183.543 131.859C181.784 134.299 180.081 136.819 178.514 139.494C178.197 140.361 177.725 141.11 177.159 141.785C176.594 142.46 175.929 143.067 175.164 143.067C174.524 144.224 173.785 144.782 172.43 144.373C172.336 145.81 171.578 146.169 170.248 146.07C169.956 146.67 169.104 146.813 168.191 146.837C167.277 146.856 166.314 146.757 165.282 146.515C165.73 146.621 167.588 144.286 167.924 143.915C170.292 141.37 171.926 138.553 173.294 135.618C174.922 134.72 176.532 133.803 178.117 132.831V132.825ZM184.152 123.178C183.741 123.271 183.375 123.364 183.045 123.457C183.045 123.42 183.039 123.382 183.033 123.345C183.381 123.289 183.754 123.234 184.152 123.178ZM182.996 123.104C182.996 123.104 182.996 123.085 182.989 123.073C183.281 123.023 183.586 122.967 183.903 122.918C183.586 122.98 183.288 123.042 182.996 123.104ZM184.456 123.618C183.978 123.828 183.766 124.014 183.748 124.206C183.511 124.187 183.313 124.175 183.145 124.156C183.12 124.057 183.107 123.946 183.089 123.828C183.412 123.766 183.872 123.692 184.45 123.618H184.456ZM183.816 124.423C183.99 124.689 184.481 124.967 185.14 125.32C185.364 125.896 185.923 126.615 186.669 127.5C186.513 127.438 186.358 127.37 186.209 127.302C185.345 126.887 184.518 126.336 183.922 125.574C183.673 125.265 183.48 124.918 183.319 124.559C183.48 124.515 183.642 124.466 183.828 124.423H183.816ZM181.74 153.475C181.74 153.475 181.721 153.512 181.709 153.525C178.185 151.729 177.433 152.094 177.315 156.565C177.029 156.342 176.687 156.15 176.252 156.039C174.431 155.568 172.946 155.159 171.709 154.763C173.579 153.754 175.456 152.732 177.414 151.803C177.476 151.772 177.539 151.748 177.601 151.723C178.775 151.915 180.012 152.509 181.74 153.481V153.475ZM169.633 149.141C168.495 149.995 167.383 150.868 166.277 151.748C165.475 150.813 164.859 149.624 164.107 147.971C165.139 148.206 166.177 148.423 167.227 148.627C168.303 148.837 169.39 149.042 169.272 149.091C169.403 149.11 169.521 149.128 169.639 149.147L169.633 149.141ZM169.297 131.779C168.079 131.574 166.836 131.06 165.195 130.274C166.134 129.791 167.072 129.296 168.011 128.782C168.974 128.255 169.937 127.717 169.875 127.828C169.987 127.76 170.087 127.698 170.186 127.636C169.863 129.017 169.583 130.398 169.297 131.779ZM167.743 138.54C166.966 141.302 165.941 143.983 164.356 146.485L164.325 146.472C163.983 146.348 163.629 146.231 163.275 146.113C163.057 145.618 162.821 145.091 162.566 144.528C161.161 144.119 159.788 143.667 158.427 143.184C161.534 141.636 164.654 140.113 167.743 138.54ZM154.611 116.026C155.021 115.054 155.419 114.076 155.81 113.079C156.208 112.057 156.599 111.029 156.624 111.153C156.668 111.029 156.705 110.918 156.742 110.806C157.389 112.07 158.06 113.308 158.737 114.546C157.675 115.172 156.388 115.568 154.617 116.02L154.611 116.026ZM151.857 160.825C152.497 161.661 153.15 162.497 153.821 163.327C154.511 164.181 155.207 165.029 155.089 164.992C155.176 165.091 155.251 165.178 155.332 165.265C153.914 165.19 152.497 165.153 151.08 165.116C151.068 163.884 151.366 162.577 151.857 160.831V160.825ZM159.583 172.293C159.645 172.311 159.713 172.33 159.775 172.348C160.552 173.252 161.118 174.491 161.808 176.342C161.789 176.342 161.771 176.354 161.752 176.361C160.21 172.726 159.403 172.528 156.425 175.878C156.351 175.525 156.214 175.159 155.953 174.794C154.865 173.265 153.989 172.002 153.293 170.906C155.375 171.333 157.476 171.754 159.577 172.293H159.583ZM162.038 177.048C162.038 177.048 162.056 177.042 162.069 177.036C162.168 177.314 162.274 177.599 162.38 177.902C162.262 177.599 162.15 177.32 162.038 177.048ZM160.559 163.407C159.558 164.447 158.744 164.237 157.793 163.308C157.184 163.58 156.438 163.147 155.723 162.577C155.015 162.008 154.337 161.314 153.703 160.466C153.977 160.831 156.91 160.231 157.401 160.163C160.857 159.729 163.927 158.621 166.867 157.246C168.688 157.599 170.522 157.927 172.361 158.2C172.908 158.28 173.461 158.354 174.015 158.429C175.382 158.293 176.463 158.776 177.302 159.475C177.719 159.822 178.079 160.224 178.384 160.633C177.967 160.732 177.557 160.831 177.141 160.937C174.22 161.673 171.292 162.522 168.359 163.562C167.557 164.026 166.712 164.299 165.841 164.447C164.971 164.602 164.076 164.639 163.486 164.15C162.249 164.627 161.323 164.577 160.552 163.401L160.559 163.407ZM179.807 157.717C179.664 156.899 179.565 156.206 179.527 155.649C179.478 156.132 179.559 156.825 179.764 157.772C179.422 158.206 178.987 158.509 178.409 158.596C177.924 158.509 177.588 157.562 177.532 156.955C178.023 152.664 178.956 152.262 181.616 153.723C181.585 153.785 181.554 153.847 181.523 153.915C179.925 153.339 179.409 153.797 179.534 155.655C179.614 154.813 180.105 154.639 181.063 154.955C180.684 155.952 180.354 156.998 179.807 157.717ZM182.349 159.599C182.275 159.45 182.194 159.302 182.125 159.147C181.728 158.274 181.454 157.327 181.485 156.361C181.498 155.964 181.572 155.574 181.678 155.197C181.827 155.265 181.982 155.333 182.157 155.42C182.119 155.729 182.312 156.262 182.592 156.955C182.393 157.537 182.355 158.447 182.355 159.605L182.349 159.599ZM183.219 154.676C182.846 154.485 182.505 154.317 182.194 154.181C182.212 154.15 182.237 154.119 182.256 154.088C182.56 154.268 182.877 154.466 183.219 154.676ZM182.38 153.878C182.38 153.878 182.386 153.859 182.393 153.847C182.648 153.995 182.915 154.15 183.194 154.311C182.909 154.156 182.641 154.014 182.38 153.878ZM183.163 155.209C182.66 155.06 182.374 155.073 182.244 155.209C182.07 155.042 181.927 154.906 181.815 154.788C181.864 154.695 181.92 154.602 181.982 154.503C182.275 154.664 182.666 154.899 183.163 155.215V155.209ZM196.619 149.358C196.775 149.599 196.955 149.816 197.166 150.008C197.322 150.336 197.446 150.664 197.558 150.998C197.987 152.317 198.117 153.636 198.627 154.924C198.478 154.429 198.509 153.946 199.217 153.902C200.46 153.828 200.535 155.067 200.815 155.55C201.02 154.794 200.46 153.828 200.181 153.351C201.778 154.998 201.069 151.556 203.114 151.376C203.63 151.203 204.165 151.091 204.674 151.036C202.393 152.72 203.786 155.122 203.655 157.122C203.667 160.299 200.815 159.636 198.21 158.534C198.459 158.503 198.72 158.447 199 158.379C198.614 158.429 198.254 158.447 197.937 158.423C197.614 158.28 197.297 158.132 196.992 157.989C196.949 157.927 196.912 157.853 196.887 157.779C196.874 157.834 196.874 157.884 196.874 157.933C196.719 157.859 196.57 157.791 196.427 157.717C196.563 157.673 196.706 157.636 196.849 157.587C196.843 157.506 196.831 157.432 196.837 157.339C196.557 157.42 196.296 157.488 196.06 157.543C195.917 157.475 195.774 157.401 195.644 157.339C195.842 157.259 196.066 157.172 196.327 157.079C195.898 157.122 195.513 157.159 195.14 157.19C195.041 157.19 194.941 157.19 194.842 157.19C194.892 157.147 194.941 157.104 195.003 157.054C193.86 157.11 193.064 157.172 192.586 157.221C192.71 157.259 192.847 157.296 192.971 157.333C193.17 157.327 193.406 157.314 193.667 157.296C193.499 157.327 193.338 157.358 193.17 157.395C193.102 157.376 193.033 157.358 192.971 157.333C192.729 157.345 192.524 157.345 192.374 157.345C192.511 157.382 192.66 157.42 192.809 157.457C190.466 157.915 188.142 158.379 185.917 158.961C184.891 159.178 183.866 159.395 182.846 159.618C184.052 155.983 185.326 155.351 190.156 156.553C190.491 156.553 191.2 156.602 192.244 156.683C192.374 156.534 193.276 156.262 195.134 155.902C188.782 155.971 187.875 155.512 193.99 154.893C186.153 154.478 185.339 153.902 191.983 153.029C187.154 152.788 184.953 152.435 184.531 151.611C185.848 151.995 187.303 152.039 188.359 151.822C189.982 151.42 190.839 150.466 191.218 149.265C193.263 149.314 195.227 149.37 196.626 149.358H196.619ZM195.55 146.615C195.221 146.67 194.898 146.726 194.568 146.769C194.606 146.788 194.643 146.8 194.68 146.819C194.985 146.782 195.283 146.745 195.575 146.707C195.644 146.918 195.706 147.135 195.774 147.351C195.414 147.166 195.047 146.986 194.68 146.819C193.611 146.949 192.511 147.073 191.442 147.203C191.38 145.964 191.038 144.646 190.597 143.475C191.206 143.234 191.747 143.153 192.231 143.197C192.722 143.265 193.157 143.463 193.543 143.772C194.699 144.317 195.165 145.426 195.538 146.608L195.55 146.615ZM193.145 140.094C187.819 138.67 184.313 142.615 183.847 147.364C182.045 146.478 181.697 144.757 181.286 143.221C181.131 142.763 180.764 142.875 180.398 143.011C180.255 143.06 180.124 143.122 179.981 143.172C180 142.937 180.037 142.67 180.081 142.404C180.236 141.5 180.497 140.608 180.814 139.741C181.995 136.918 183.71 134.441 185.643 132.119C185.705 132.045 185.768 131.977 185.83 131.909C187.085 133.457 186.439 135.543 186.843 137.717C186.843 138.094 186.687 138.392 186.47 138.639C185.811 139.389 184.568 139.741 185.196 140.825C187.887 139.921 190.298 138.528 193.139 140.101L193.145 140.094ZM191.001 110.528C191.274 110.608 191.554 110.664 191.84 110.676C192.169 110.831 192.48 110.998 192.778 111.184C193.953 111.921 194.91 112.844 196.135 113.506C195.7 113.221 195.414 112.831 195.929 112.348C196.837 111.494 197.688 112.398 198.217 112.584C197.881 111.872 196.837 111.494 196.315 111.302C198.602 111.537 195.842 109.358 197.284 107.909C197.57 107.444 197.9 107.017 198.26 106.652C197.601 109.407 200.218 110.354 201.405 111.964C203.462 114.385 200.858 115.711 198.148 116.528C198.316 116.342 198.484 116.132 198.646 115.902C198.385 116.187 198.123 116.435 197.862 116.615C197.521 116.714 197.185 116.807 196.856 116.887C196.781 116.868 196.706 116.837 196.638 116.794C196.663 116.844 196.688 116.887 196.713 116.924C196.551 116.967 196.396 117.005 196.246 117.042C196.327 116.924 196.402 116.8 196.489 116.67C196.433 116.615 196.371 116.565 196.321 116.485C196.159 116.732 196.004 116.943 195.855 117.135C195.7 117.172 195.55 117.209 195.407 117.246C195.507 117.054 195.625 116.85 195.762 116.608C195.438 116.943 195.14 117.24 194.86 117.519C194.805 117.568 194.749 117.611 194.699 117.661C194.705 117.593 194.718 117.525 194.736 117.438C193.897 118.212 193.332 118.769 192.996 119.116C193.114 119.06 193.245 119.011 193.369 118.955C193.518 118.819 193.692 118.658 193.878 118.478C193.773 118.608 193.667 118.738 193.561 118.868C193.499 118.893 193.431 118.924 193.369 118.949C193.189 119.116 193.039 119.246 192.921 119.345C193.052 119.283 193.189 119.221 193.332 119.153C191.827 121.005 190.354 122.85 189.024 124.72C188.378 125.543 187.732 126.367 187.091 127.19C185.674 123.63 186.24 122.336 190.715 120.163C190.97 119.946 191.548 119.531 192.399 118.93C192.399 118.732 192.921 117.946 194.108 116.485C189.285 120.602 188.297 120.831 192.579 116.441C186.308 121.147 185.314 121.221 189.839 116.299C185.985 119.197 184.077 120.342 183.213 119.983C184.469 119.432 185.612 118.534 186.283 117.692C187.265 116.342 187.315 115.06 186.83 113.902C188.428 112.633 189.963 111.42 191.026 110.522L191.001 110.528ZM183.673 108.621C184.096 108.361 184.549 108.231 185.053 108.218C186.29 107.896 187.359 108.447 188.409 109.11C188.192 109.358 187.98 109.611 187.763 109.859C187.8 109.847 187.843 109.834 187.881 109.822C188.086 109.599 188.291 109.382 188.496 109.159C188.683 109.277 188.875 109.401 189.062 109.525C188.664 109.611 188.272 109.711 187.881 109.822C187.147 110.608 186.383 111.407 185.649 112.193C184.804 111.283 183.692 110.497 182.598 109.884C182.909 109.308 183.269 108.899 183.673 108.621ZM181.97 126.293C181.491 125.593 181.753 125.147 182.691 124.776C183.045 125.785 183.468 126.794 183.511 127.692C182.877 127.153 182.355 126.689 181.964 126.286C182.237 126.683 182.747 127.166 183.511 127.76C183.524 128.311 183.393 128.819 183.002 129.259C182.573 129.506 181.709 128.992 181.274 128.559C178.881 124.961 179.335 124.051 182.318 123.469C182.331 123.537 182.349 123.605 182.368 123.673C180.777 124.255 180.671 124.937 181.97 126.28V126.293ZM171.473 104.07C173.43 104.454 174.288 106.466 175.997 107.865C176.246 108.156 176.314 108.478 176.308 108.813C176.289 109.81 175.562 110.875 176.743 111.302C178.216 108.887 179.173 106.274 182.362 105.661C177.365 107.983 177.222 113.246 179.931 117.184C177.98 117.655 176.6 116.565 175.301 115.649C174.885 115.395 174.68 115.717 174.481 116.057C174.406 116.187 174.338 116.317 174.269 116.447C174.133 116.255 173.99 116.033 173.853 115.797C173.387 115.005 173.014 114.156 172.691 113.289C171.771 110.373 171.491 107.376 171.473 104.354C171.473 104.262 171.473 104.169 171.473 104.07ZM171.224 117.19C171.224 118.07 171.106 118.961 170.522 119.45C170.776 120.751 170.571 121.649 169.266 122.2C170.124 123.364 169.77 124.119 168.688 124.893C168.856 125.537 168.29 126.194 167.607 126.794C166.923 127.395 166.115 127.933 165.17 128.41C165.58 128.206 165.5 125.221 165.512 124.726C165.686 121.259 165.121 118.057 164.269 114.93C164.934 113.203 165.58 111.463 166.165 109.711C166.339 109.184 166.513 108.658 166.681 108.132C166.78 106.763 167.451 105.785 168.284 105.085C168.303 105.085 168.328 105.091 168.346 105.098C168.328 105.098 168.309 105.085 168.29 105.085C168.707 104.732 169.167 104.454 169.62 104.224C169.645 104.646 169.676 105.073 169.707 105.494C169.931 108.491 170.254 111.506 170.783 114.565C171.1 115.432 171.224 116.311 171.224 117.19ZM161.64 84.3854C161.901 84.274 162.15 84.1378 162.38 83.9644C162.734 83.8715 163.082 83.8034 163.424 83.7539C164.797 83.5619 166.127 83.661 167.495 83.3885C166.979 83.4505 166.507 83.3328 166.587 82.6331C166.73 81.4009 167.967 81.5433 168.489 81.3514C167.774 81.017 166.73 81.4009 166.202 81.5867C168.104 80.3049 164.586 80.404 164.76 78.3669C164.679 77.8282 164.661 77.2895 164.698 76.7817C165.966 79.3142 168.582 78.3669 170.534 78.8375C173.673 79.3762 172.529 82.0573 170.982 84.4164C170.988 84.1687 170.982 83.9025 170.963 83.6176C170.95 84.0015 170.901 84.3607 170.82 84.6641C170.621 84.9551 170.422 85.2399 170.229 85.5186C170.161 85.5495 170.087 85.5743 169.999 85.5867C170.049 85.6115 170.099 85.6238 170.142 85.6362C170.049 85.7663 169.95 85.9025 169.857 86.0263C169.838 85.8839 169.825 85.7415 169.801 85.5867C169.72 85.5867 169.645 85.5805 169.552 85.5557C169.583 85.8467 169.608 86.113 169.614 86.3545C169.521 86.4845 169.428 86.6084 169.341 86.726C169.297 86.5155 169.247 86.2802 169.204 86.0139C169.173 86.4412 169.142 86.8313 169.111 87.1966C169.092 87.2957 169.073 87.3947 169.061 87.4938C169.03 87.4381 168.993 87.3823 168.955 87.3142C168.812 88.4474 168.738 89.2337 168.707 89.7167C168.763 89.5991 168.825 89.4752 168.887 89.3576C168.912 89.1594 168.943 88.9241 168.968 88.6703C168.968 88.8375 168.974 89.0046 168.98 89.1718C168.949 89.2337 168.918 89.2957 168.887 89.3576C168.856 89.5991 168.825 89.7972 168.8 89.9458C168.862 89.8158 168.924 89.6796 168.986 89.5372C169.03 91.9211 169.092 94.274 169.279 96.5588C169.31 97.6053 169.353 98.6455 169.397 99.6858C166.016 97.8715 165.612 96.5093 167.638 91.983C167.694 91.6548 167.868 90.9675 168.129 89.9582C168.004 89.8034 167.893 88.8746 167.855 86.9861C166.817 93.2275 166.208 94.0387 166.656 87.9334C164.884 95.5495 164.176 96.2492 164.462 89.5805C163.38 94.2678 162.653 96.3669 161.764 96.6455C162.373 95.4195 162.666 94.0015 162.641 92.9241C162.523 91.2647 161.727 90.2554 160.608 89.6796C161.012 87.6858 161.404 85.7662 161.64 84.3916V84.3854ZM154.791 87.6176C154.946 87.1471 155.213 86.757 155.586 86.4288C156.326 85.3947 157.507 85.1285 158.737 84.9613C158.737 85.2895 158.737 85.6176 158.725 85.952C158.75 85.9149 158.769 85.8839 158.793 85.8467C158.812 85.5433 158.824 85.2461 158.837 84.9489C159.061 84.918 159.284 84.8932 159.508 84.8622C159.26 85.1842 159.023 85.5124 158.793 85.8467C158.737 86.918 158.669 88.0201 158.613 89.0913C157.376 88.9365 156.015 89.048 154.785 89.2771C154.648 88.6393 154.666 88.0882 154.797 87.6238L154.791 87.6176ZM148.426 91.952C148.799 92.0139 149.067 92.2183 149.272 92.4783C149.899 93.2523 150.03 94.534 151.211 94.1068C150.782 91.308 149.831 88.7012 151.876 86.1873C149.545 91.1656 152.833 95.2895 157.445 96.5712C156.258 98.1811 154.492 98.2307 152.901 98.3607C152.417 98.435 152.466 98.8127 152.535 99.1966C152.56 99.3452 152.597 99.4876 152.622 99.63C152.392 99.5681 152.137 99.4938 151.882 99.4009C151.012 99.0913 150.179 98.6827 149.377 98.2183C146.792 96.5712 144.641 94.4536 142.684 92.1563C142.621 92.082 142.565 92.0077 142.503 91.9396C144.25 90.9799 146.201 91.9706 148.42 91.952H148.426ZM140.726 94.757C140.726 94.757 140.763 94.7384 140.782 94.726C140.763 94.7322 140.744 94.7446 140.726 94.7508C140.819 94.2121 140.993 93.7043 141.192 93.2399C141.484 93.5495 141.776 93.8529 142.074 94.1625C144.175 96.3111 146.375 98.4164 148.75 100.423C149.551 100.887 150.21 101.475 150.782 102.15C151.354 102.825 151.832 103.58 151.702 104.33C152.734 105.159 153.156 105.983 152.516 107.24C153.921 107.58 154.138 108.392 153.809 109.673C154.35 110.063 154.343 110.924 154.207 111.822C154.07 112.72 153.803 113.649 153.38 114.621C153.56 114.2 151.571 111.971 151.267 111.58C149.16 108.813 146.661 106.72 143.995 104.875C143.392 103.122 142.758 101.382 142.074 99.661C141.869 99.1471 141.664 98.6331 141.447 98.1192C140.639 97.0046 140.527 95.8282 140.713 94.757H140.726ZM140.079 132.652C140.315 133.011 142.547 132.113 142.795 132.46C142.808 132.478 142.808 132.509 142.795 132.546C143.069 132.169 143.311 131.772 143.523 131.364C143.827 131.122 143.79 131.24 143.504 131.605C143.765 131.413 143.746 131.519 143.585 131.766C143.697 131.729 143.678 131.834 143.641 131.958C143.641 132.045 143.616 132.15 143.591 132.262C143.51 132.689 143.442 133.122 143.386 133.556C143.336 133.983 145.623 134.72 145.592 135.147C145.592 135.172 145.567 135.197 145.536 135.215C145.99 135.098 146.431 134.949 146.86 134.769C147.252 134.782 147.146 134.844 146.686 134.943C147.009 134.967 146.922 135.029 146.643 135.122C146.754 135.166 146.667 135.234 146.556 135.302C146.493 135.364 146.413 135.432 146.326 135.5C145.99 135.772 145.654 136.057 145.331 136.361C145.014 136.658 146.295 138.683 145.99 138.992C145.971 139.011 145.94 139.017 145.903 139.011C146.326 139.215 146.761 139.382 147.202 139.519C147.494 139.779 147.376 139.76 146.96 139.543C147.196 139.766 147.084 139.766 146.81 139.649C146.866 139.754 146.761 139.748 146.63 139.735C146.543 139.748 146.431 139.741 146.326 139.741C145.891 139.741 145.449 139.741 145.008 139.766C144.573 139.791 144.244 142.163 143.815 142.206C143.79 142.206 143.765 142.193 143.734 142.163C143.927 142.59 144.15 142.998 144.399 143.382C144.455 143.772 144.374 143.673 144.2 143.24C144.237 143.562 144.157 143.488 144.02 143.228C143.995 143.345 143.914 143.271 143.827 143.178C143.753 143.128 143.672 143.06 143.591 142.986C143.262 142.701 142.92 142.429 142.572 142.163C142.224 141.902 140.44 143.512 140.086 143.271C140.067 143.259 140.054 143.228 140.054 143.19C139.93 143.636 139.837 144.094 139.781 144.546C139.576 144.887 139.57 144.763 139.713 144.311C139.532 144.577 139.52 144.472 139.582 144.187C139.489 144.262 139.476 144.156 139.464 144.026C139.439 143.94 139.42 143.834 139.402 143.729C139.333 143.302 139.246 142.875 139.153 142.441C139.054 142.02 136.648 142.113 136.537 141.692C136.53 141.667 136.537 141.636 136.561 141.605C136.176 141.872 135.809 142.163 135.474 142.472C135.101 142.596 135.182 142.503 135.579 142.249C135.269 142.342 135.325 142.249 135.561 142.07C135.443 142.07 135.499 141.977 135.579 141.872C135.617 141.791 135.673 141.698 135.729 141.605C135.952 141.234 136.164 140.85 136.369 140.46C136.561 140.076 134.666 138.602 134.846 138.212C134.859 138.187 134.883 138.175 134.921 138.163C134.455 138.119 133.988 138.107 133.528 138.132C133.156 137.989 133.28 137.964 133.746 138.026C133.448 137.896 133.553 137.865 133.845 137.872C133.758 137.791 133.858 137.76 133.988 137.729C134.069 137.692 134.169 137.655 134.274 137.618C134.684 137.475 135.095 137.32 135.505 137.147C135.903 136.98 135.399 134.633 135.791 134.447C135.816 134.435 135.847 134.447 135.878 134.46C135.548 134.125 135.2 133.822 134.834 133.543C134.647 133.197 134.753 133.259 135.07 133.605C134.927 133.314 135.026 133.358 135.244 133.556C135.225 133.438 135.325 133.481 135.443 133.537C135.53 133.556 135.629 133.599 135.729 133.636C136.139 133.791 136.549 133.933 136.972 134.063C137.388 134.187 138.513 132.07 138.929 132.175C138.954 132.181 138.973 132.206 138.992 132.243C138.954 131.779 138.886 131.32 138.78 130.875C138.861 130.485 138.905 130.602 138.923 131.073C139.004 130.757 139.054 130.856 139.091 131.147C139.153 131.048 139.203 131.147 139.259 131.259C139.309 131.327 139.365 131.426 139.414 131.519C139.626 131.896 139.849 132.274 140.092 132.639L140.079 132.652ZM144.132 164.769C141.266 164.485 138.438 163.946 135.691 162.825C135.691 162.813 135.691 162.8 135.691 162.794C135.754 162.435 135.809 162.07 135.865 161.704C136.319 161.401 136.791 161.085 137.307 160.732C137.469 159.283 137.674 157.853 137.916 156.435C139.986 159.215 142.031 162.008 144.125 164.769H144.132ZM133.982 168.466C132.944 167.5 131.881 166.559 130.825 165.624C131.608 164.676 132.683 163.865 134.181 162.837C134.131 163.89 134.094 164.949 134.075 166.014C134.051 167.11 134.038 168.206 133.976 168.101C133.976 168.231 133.982 168.354 133.982 168.472V168.466ZM131.521 181.785C131.521 181.785 131.54 181.785 131.552 181.791C131.453 182.07 131.347 182.354 131.235 182.658C131.341 182.348 131.434 182.063 131.527 181.785H131.521ZM130.881 182.745C131.005 182.342 131.111 181.983 131.192 181.655C131.229 181.667 131.26 181.686 131.297 181.698C131.173 182.026 131.036 182.373 130.881 182.745ZM131.546 181.005C131.477 180.986 131.409 180.961 131.341 180.943C131.633 179.277 131.086 178.85 129.277 179.296C130.122 179.234 130.384 179.68 130.234 180.676C129.178 180.478 128.09 180.342 127.282 179.927C128.065 179.649 128.73 179.432 129.277 179.296C128.792 179.333 128.121 179.531 127.22 179.896C126.735 179.636 126.356 179.265 126.17 178.707C126.17 178.212 127.046 177.723 127.643 177.562C131.968 177.296 132.534 178.144 131.546 181.005ZM130.185 181.878C130.315 181.68 130.433 181.519 130.526 181.382C130.626 181.413 130.732 181.457 130.837 181.5C130.732 181.81 130.564 182.243 130.34 182.782C130.396 182.268 130.34 181.989 130.178 181.878H130.185ZM114.118 146.15C113.901 143.289 113.944 140.423 114.572 137.531C114.584 137.531 114.597 137.531 114.609 137.531C114.976 137.531 115.343 137.525 115.722 137.512C116.101 137.902 116.499 138.317 116.934 138.757C118.394 138.664 119.842 138.621 121.284 138.615C118.898 141.128 116.486 143.624 114.124 146.15H114.118ZM119.358 153.048C118.637 153.822 117.928 154.608 117.22 155.413C116.499 156.237 115.778 157.073 115.796 156.943C115.716 157.042 115.641 157.135 115.566 157.228C115.392 155.822 115.187 154.423 114.976 153.029C116.194 152.807 117.537 152.868 119.351 153.048H119.358ZM104.969 162.515C105.659 163.011 105.566 163.519 104.808 164.187C104.13 163.358 103.385 162.559 103.03 161.723C103.813 162.008 104.46 162.268 104.963 162.515C104.572 162.237 103.925 161.958 102.999 161.661C102.794 161.147 102.744 160.627 102.962 160.076C103.279 159.698 104.267 159.884 104.826 160.144C108.307 162.707 108.195 163.723 105.597 165.277C105.56 165.221 105.523 165.159 105.479 165.098C106.778 164.008 106.635 163.333 104.963 162.515H104.969ZM104 165.073C104.23 165.005 104.422 164.955 104.584 164.912C104.64 164.998 104.696 165.098 104.746 165.203C104.46 165.37 104.056 165.593 103.54 165.865C103.919 165.506 104.056 165.259 104 165.073ZM102.309 164.497C101.899 164.033 101.128 163.55 100.128 162.967C100.296 162.974 100.463 162.98 100.631 162.998C101.588 163.098 102.552 163.333 103.378 163.841C103.72 164.051 104.018 164.305 104.298 164.59C104.168 164.689 104.025 164.788 103.869 164.887C103.621 164.695 103.061 164.602 102.315 164.491L102.309 164.497ZM104.913 165.543C104.932 165.574 104.945 165.611 104.963 165.642C104.659 165.816 104.329 165.989 103.969 166.181C104.323 165.952 104.634 165.741 104.913 165.543ZM105.081 165.853C105.081 165.853 105.094 165.872 105.1 165.878C104.845 166.026 104.578 166.175 104.298 166.336C104.578 166.169 104.833 166.008 105.081 165.853ZM105.262 160.144C105.597 160.008 105.933 159.816 106.25 159.494C107.574 158.156 108.667 157.079 109.631 156.212C109.569 158.33 109.519 160.466 109.351 162.615C109.351 162.683 109.339 162.751 109.333 162.813C108.574 163.729 107.443 164.503 105.734 165.506C105.728 165.488 105.715 165.469 105.703 165.457C109.028 163.314 109.084 162.485 105.255 160.144H105.262ZM106.324 155.054C105.976 155.488 105.634 155.927 105.299 156.367C104.733 157.618 103.77 158.305 102.744 158.683C102.726 158.67 102.707 158.664 102.688 158.652C102.707 158.664 102.719 158.676 102.738 158.683C102.222 158.868 101.694 158.98 101.197 159.036C101.315 158.627 101.439 158.224 101.551 157.81C102.371 154.918 103.099 151.971 103.658 148.918C103.658 147.995 103.844 147.128 104.143 146.299C104.441 145.469 104.858 144.676 105.578 144.416C105.784 143.11 106.287 142.336 107.698 142.262C107.294 140.881 107.884 140.286 109.165 139.927C109.233 139.265 109.985 138.837 110.837 138.509C111.688 138.181 112.627 137.946 113.683 137.822C113.223 137.878 112.285 140.707 112.092 141.166C110.737 144.367 110.172 147.568 109.898 150.794C108.68 152.187 107.48 153.605 106.324 155.054ZM97.1693 134.088C97.3806 134.912 96.9828 135.24 95.9697 135.265C95.9822 134.193 95.9324 133.104 96.1997 132.243C96.6161 132.961 96.9455 133.58 97.1693 134.088C97.0512 133.618 96.7342 132.998 96.2183 132.175C96.3924 131.655 96.6907 131.221 97.2128 130.937C97.6976 130.85 98.3377 131.624 98.5988 132.181C99.6119 136.379 98.8722 137.079 95.8703 136.608C95.8765 136.54 95.8889 136.466 95.8951 136.398C97.5919 136.398 97.9213 135.785 97.1631 134.088H97.1693ZM106.536 107.797C106.536 107.797 106.473 107.841 106.442 107.865C106.219 107.593 105.989 107.302 105.74 106.986C106.026 107.296 106.287 107.562 106.536 107.803V107.797ZM105.976 106.503C106.399 106.813 106.666 106.899 106.84 106.819C106.946 107.029 107.033 107.215 107.101 107.364C107.027 107.432 106.94 107.506 106.846 107.574C106.629 107.327 106.337 106.967 105.982 106.503H105.976ZM106.256 108.02C106.256 108.02 106.244 108.033 106.231 108.045C106.038 107.816 105.846 107.587 105.641 107.339C105.858 107.58 106.057 107.81 106.256 108.026V108.02ZM106.996 121.153C107.76 120.714 108.593 120.373 109.314 120.633C110.315 119.76 111.203 119.494 112.328 120.342C112.912 119.023 113.745 118.949 114.957 119.494C115.436 119.029 116.287 119.184 117.151 119.475C118.015 119.766 118.885 120.193 119.774 120.769C119.389 120.515 116.841 122.082 116.399 122.311C113.298 123.896 110.799 125.983 108.506 128.28C106.672 128.565 104.839 128.887 103.018 129.259C102.471 129.37 101.93 129.488 101.389 129.605C100.146 130.206 98.9655 130.113 97.94 129.741C97.9337 129.723 97.9275 129.704 97.9151 129.68C97.9151 129.698 97.9275 129.717 97.9337 129.735C97.4179 129.55 96.9455 129.296 96.5229 129.017C96.8772 128.782 97.2314 128.546 97.5857 128.305C100.078 126.615 102.539 124.825 104.932 122.844C105.529 122.138 106.231 121.593 106.996 121.153ZM118.686 118.113C117.748 117.55 116.797 116.986 116.928 116.98C116.816 116.918 116.71 116.862 116.611 116.806C117.972 116.392 119.314 115.946 120.657 115.5C121.092 116.652 121.26 117.983 121.403 119.797C120.514 119.228 119.613 118.664 118.699 118.113H118.686ZM121.533 121.816C121.57 122.354 121.608 122.93 121.657 123.543C122.832 124.404 123.976 125.302 125.088 126.218C121.639 126.615 118.183 126.98 114.74 127.407C116.418 125.073 118.301 122.906 120.65 121.098C120.657 121.104 120.669 121.11 120.675 121.122C120.955 121.358 121.241 121.587 121.539 121.816H121.533ZM98.922 132.466C99.27 132.577 99.6491 132.646 100.103 132.602C101.98 132.429 103.515 132.305 104.808 132.249C103.397 133.834 101.98 135.438 100.463 136.974C100.414 137.023 100.364 137.067 100.32 137.116C99.1457 137.339 97.7846 137.203 95.8268 136.875C95.8268 136.856 95.833 136.837 95.8392 136.819C99.7672 137.308 100.351 136.707 98.922 132.466ZM111.135 136.491C110.047 136.658 108.96 136.837 109.053 136.751C108.922 136.776 108.804 136.8 108.692 136.825C109.469 135.636 110.215 134.435 110.955 133.234C112.03 133.841 113.018 134.751 114.292 136.045C113.242 136.175 112.192 136.33 111.135 136.491ZM120.532 153.977C120.812 153.741 121.092 153.5 121.371 153.252C121.912 153.308 122.484 153.37 123.099 153.432C124.156 152.429 125.237 151.463 126.337 150.534C126.132 153.989 125.896 157.438 125.716 160.893C123.702 158.844 121.887 156.621 120.501 154.002C120.508 153.995 120.52 153.989 120.526 153.977H120.532ZM136.002 119.178C133.106 117.271 130.222 115.339 127.307 113.463C130.098 112.751 132.938 112.299 135.909 112.41C135.909 112.423 135.909 112.435 135.909 112.441C135.971 112.8 136.046 113.159 136.12 113.525C135.803 113.964 135.461 114.423 135.101 114.93C135.443 116.342 135.741 117.76 136.002 119.178ZM127.972 177.289C128.14 176.968 128.277 176.602 128.314 176.156C128.463 174.286 128.612 172.757 128.786 171.475C130.104 173.135 131.446 174.8 132.702 176.559C132.739 176.615 132.776 176.67 132.814 176.726C132.826 177.915 132.459 179.228 131.794 181.091C131.776 181.085 131.757 181.079 131.738 181.073C132.901 177.302 132.41 176.627 127.972 177.289ZM139.52 108.125C139.11 109.283 138.383 110.41 137.32 111.89C137.009 110.887 136.673 109.878 136.332 108.868C135.977 107.834 135.611 106.794 135.71 106.875C135.66 106.751 135.617 106.639 135.573 106.534C136.885 107.091 138.202 107.611 139.514 108.132L139.52 108.125ZM133.354 93.9149C133.553 97.8529 134.249 98.3235 138.196 96.1873C138.146 96.5464 138.146 96.9365 138.264 97.37C138.762 99.178 139.153 100.664 139.427 101.927C137.618 100.813 135.785 99.7043 134.001 98.4845C133.945 98.4474 133.889 98.404 133.839 98.3669C133.417 97.2523 133.311 95.8963 133.298 93.921C133.317 93.921 133.336 93.921 133.361 93.921L133.354 93.9149ZM133.292 93.178C133.292 92.8808 133.292 92.5774 133.292 92.2554C133.298 92.5774 133.311 92.8808 133.317 93.178C133.305 93.178 133.298 93.178 133.286 93.178H133.292ZM139.408 94.243C139.576 94.7074 138.923 95.469 138.42 95.822C134.448 97.5433 133.628 96.9427 133.572 93.9149C133.64 93.9149 133.715 93.9087 133.783 93.9025C134.082 95.5681 134.74 95.7848 136.288 94.7508C135.511 95.0975 135.12 94.7632 134.914 93.7786C135.971 93.6053 137.046 93.3638 137.941 93.4814C137.301 94.0139 136.748 94.4412 136.282 94.757C136.723 94.5588 137.289 94.1378 138.01 93.4938C138.557 93.5743 139.035 93.791 139.402 94.2554L139.408 94.243ZM133.572 93.178C133.572 92.8251 133.591 92.4536 133.603 92.0511C133.622 92.4721 133.653 92.8437 133.684 93.1842C133.647 93.1842 133.609 93.1842 133.572 93.1842V93.178ZM134.094 91.8344C134.218 92.3421 134.368 92.5836 134.554 92.6269C134.498 92.856 134.448 93.048 134.399 93.209C134.293 93.209 134.181 93.209 134.069 93.209C134.063 92.8808 134.069 92.4164 134.094 91.8344ZM138.041 90.7632C137.481 91.5433 136.791 92.2492 135.94 92.7074C135.592 92.8932 135.213 93.0294 134.827 93.1223C134.809 92.9551 134.79 92.7879 134.778 92.6022C135.07 92.4783 135.43 92.0449 135.896 91.4567C136.506 91.339 137.314 90.9118 138.314 90.3359C138.221 90.4783 138.134 90.6207 138.034 90.757L138.041 90.7632ZM125.511 73.209C128.258 71.6115 129.116 74.3978 129.457 77.1966C129.308 77.0046 129.128 76.8003 128.929 76.596C129.165 76.8994 129.364 77.2028 129.495 77.4876C129.532 77.8344 129.563 78.1873 129.588 78.5217C129.557 78.5898 129.513 78.6579 129.457 78.7198C129.513 78.7074 129.557 78.6889 129.6 78.6703C129.613 78.8313 129.625 78.9923 129.638 79.1532C129.532 79.0542 129.426 78.9551 129.315 78.8498C129.252 78.8994 129.19 78.9427 129.103 78.9799C129.321 79.1842 129.501 79.37 129.669 79.5495C129.681 79.7105 129.687 79.8591 129.7 80.0077C129.526 79.8715 129.346 79.7291 129.134 79.5495C129.408 79.9272 129.65 80.2678 129.88 80.596C129.917 80.6579 129.955 80.7198 129.992 80.7817C129.93 80.7632 129.861 80.7384 129.781 80.7074C130.402 81.661 130.85 82.3173 131.136 82.7074C131.105 82.5836 131.073 82.4474 131.042 82.3173C130.937 82.1502 130.806 81.952 130.663 81.7353C130.775 81.8591 130.887 81.9892 130.993 82.113C131.011 82.1811 131.024 82.2492 131.042 82.3173C131.173 82.5217 131.279 82.695 131.353 82.8251C131.316 82.6888 131.279 82.5402 131.235 82.3916C132.807 84.1873 134.374 85.952 135.99 87.5867C136.692 88.3669 137.394 89.1409 138.097 89.9087C134.33 90.6827 133.149 89.9087 131.776 85.1347C131.602 84.8498 131.297 84.2059 130.85 83.2709C130.651 83.2337 129.967 82.5898 128.724 81.1718C131.956 86.6145 132.012 87.63 128.42 82.6641C131.981 89.6362 131.881 90.6207 127.804 85.3266C130.004 89.6115 130.8 91.6858 130.297 92.4659C129.973 91.1347 129.283 89.8653 128.562 89.0542C127.4 87.8591 126.139 87.5867 124.908 87.8591C123.932 86.0758 122.994 84.3545 122.291 83.1532C122.422 82.8994 122.521 82.6393 122.583 82.3545C122.789 82.0573 123.012 81.7848 123.248 81.5248C124.181 80.4969 125.256 79.7229 126.126 78.6393C125.772 79.017 125.331 79.2275 124.945 78.6393C124.262 77.6053 125.299 76.9179 125.579 76.4412C124.821 76.6455 124.262 77.6053 123.982 78.0882C124.616 75.8901 121.981 78.2183 120.8 76.5464C120.389 76.1873 120.029 75.7848 119.724 75.37C122.335 76.4969 123.727 74.0944 125.523 73.209H125.511ZM120.333 67.7229C120.072 68.2306 119.992 69.4071 119.724 69.8777C119.526 69.1409 119.917 68.4412 120.333 67.7229ZM120.42 85.4566C120.632 85.7105 120.849 85.9582 121.054 86.2121C121.054 86.1687 121.042 86.1316 121.042 86.0882C120.862 85.8467 120.675 85.6053 120.495 85.37C120.644 85.2028 120.8 85.0418 120.955 84.8746C120.974 85.2771 120.999 85.6796 121.042 86.0882C121.688 86.9489 122.347 87.8344 122.994 88.6888C121.943 89.3638 120.974 90.3173 120.178 91.2833C119.662 90.8808 119.32 90.4536 119.122 90.0077C118.935 89.5495 118.892 89.0789 118.966 88.5836C118.867 87.3204 119.594 86.3669 120.42 85.4505V85.4566ZM117.039 97.4071C117.369 97.2152 117.704 97.2028 118.028 97.2647C119.01 97.4567 119.936 98.3545 120.563 97.2709C118.432 95.4009 116.02 94.0139 115.964 90.7817C117.394 96.0882 122.571 97.1409 126.928 95.1656C127.058 97.1594 125.741 98.3297 124.603 99.4443C124.28 99.8096 124.566 100.07 124.864 100.317C124.976 100.41 125.094 100.503 125.212 100.596C124.995 100.701 124.753 100.8 124.498 100.893C123.634 101.215 122.733 101.432 121.813 101.593C118.773 101.989 115.759 101.741 112.77 101.234C112.676 101.215 112.583 101.197 112.49 101.178C113.211 99.3204 115.343 98.8313 117.027 97.4009L117.039 97.4071ZM113.602 103.166C116.604 103.469 119.644 103.673 122.757 103.686C123.671 103.525 124.56 103.556 125.43 103.711C126.3 103.859 127.158 104.132 127.543 104.794C128.873 104.769 129.725 105.128 130.042 106.503C131.341 105.865 132.031 106.342 132.602 107.537C133.267 107.488 133.821 108.15 134.293 108.93C134.765 109.704 135.163 110.59 135.468 111.599C135.337 111.159 132.372 110.726 131.888 110.621C128.488 109.847 125.225 109.847 121.993 110.138C120.402 109.184 118.792 108.249 117.157 107.37C116.666 107.104 116.175 106.85 115.684 106.59C114.348 106.255 113.503 105.426 112.95 104.485C112.956 104.466 112.962 104.447 112.968 104.423C112.962 104.441 112.95 104.46 112.944 104.478C112.67 104.008 112.477 103.506 112.328 103.023C112.751 103.067 113.174 103.116 113.596 103.159L113.602 103.166ZM112.757 108.07C114.305 109.135 115.56 110.026 116.592 110.813C114.485 111.122 112.372 111.444 110.209 111.649C110.14 111.655 110.072 111.661 110.01 111.667C108.972 111.085 108.009 110.107 106.728 108.608C106.741 108.596 106.759 108.584 106.772 108.571C109.463 111.457 110.302 111.376 111.943 107.215C112.136 107.525 112.384 107.816 112.757 108.076V108.07ZM109.998 105.296C109.848 106.113 109.705 106.794 109.55 107.333C109.761 106.899 109.923 106.218 110.06 105.259C110.532 104.967 111.042 104.831 111.62 104.949C112.049 105.197 112.036 106.2 111.881 106.788C109.948 110.652 108.929 110.714 106.94 108.435C106.989 108.385 107.045 108.336 107.095 108.286C108.394 109.37 109.04 109.116 109.562 107.327C109.196 108.088 108.674 108.088 107.884 107.463C108.58 106.652 109.252 105.785 110.01 105.296H109.998ZM108.319 103.159C108.388 104.113 108.319 105.098 107.965 105.995C107.816 106.367 107.617 106.707 107.381 107.023C107.263 106.906 107.139 106.788 107.008 106.652C107.151 106.373 107.151 105.81 107.126 105.06C107.511 104.577 107.859 103.735 108.257 102.652C108.276 102.819 108.301 102.986 108.313 103.153L108.319 103.159ZM91.041 106.627C91.01 106.268 91.0037 105.915 91.0162 105.568C91.0659 104.187 91.3953 102.899 91.358 101.512C91.3269 102.033 91.128 102.472 90.4506 102.268C89.2573 101.915 89.6115 100.726 89.5121 100.181C89.0584 100.825 89.251 101.915 89.3505 102.466C88.412 100.379 87.8961 103.847 85.9135 103.327C85.3665 103.314 84.832 103.24 84.3348 103.116C87.0571 102.311 86.5785 99.5743 87.3803 97.7477C88.4555 94.7632 90.9105 96.3483 92.974 98.274C92.7316 98.2245 92.4643 98.1811 92.1784 98.1563C92.5576 98.2368 92.9056 98.3421 93.1915 98.4783C93.4463 98.7198 93.6949 98.9675 93.9311 99.209C93.9498 99.2833 93.9622 99.3638 93.956 99.4443C93.9871 99.4009 94.0119 99.3576 94.0306 99.3142C94.1424 99.4319 94.2605 99.5495 94.3662 99.661C94.2232 99.6548 94.0803 99.6424 93.9249 99.6362C93.9063 99.7105 93.8876 99.791 93.8503 99.8715C94.1424 99.8901 94.4097 99.9149 94.6459 99.9458C94.7578 100.063 94.8634 100.175 94.9691 100.28C94.7515 100.286 94.5154 100.293 94.2357 100.293C94.6521 100.398 95.0312 100.497 95.3855 100.59C95.4787 100.627 95.5719 100.658 95.6714 100.689C95.6155 100.714 95.5533 100.738 95.4725 100.763C96.5664 101.098 97.3309 101.314 97.8032 101.426C97.6976 101.351 97.5857 101.265 97.48 101.184C97.2874 101.122 97.0636 101.054 96.815 100.98C96.9828 101.005 97.1444 101.029 97.3122 101.06C97.3682 101.104 97.4241 101.147 97.48 101.184C97.7162 101.259 97.9027 101.32 98.0456 101.376C97.9275 101.296 97.8032 101.209 97.6727 101.122C100.034 101.494 102.371 101.841 104.665 102.057C105.703 102.206 106.741 102.348 107.779 102.485C105.398 105.488 103.981 105.649 99.8605 102.875C99.5435 102.763 98.8971 102.472 97.9462 102.039C97.7721 102.138 96.8336 102.082 94.9629 101.791C100.954 103.89 101.65 104.633 95.69 103.135C102.912 106.193 103.478 107.011 96.9331 105.568C101.377 107.438 103.329 108.522 103.447 109.438C102.34 108.627 100.992 108.094 99.9226 107.933C98.2632 107.76 97.1258 108.367 96.3613 109.364C94.4594 108.621 92.6321 107.902 91.3145 107.432C91.2524 107.153 91.1591 106.887 91.0224 106.633L91.041 106.627ZM91.3953 110.367C91.7185 110.429 92.0479 110.485 92.3711 110.553C92.34 110.522 92.3089 110.497 92.2779 110.466C91.9795 110.398 91.6874 110.33 91.3953 110.268C91.4077 110.045 91.4202 109.822 91.4264 109.599C91.6999 109.896 91.9858 110.187 92.2717 110.472C93.322 110.714 94.3973 110.967 95.4476 111.209C95.0809 112.398 94.9504 113.748 94.9629 114.998C94.304 115.017 93.7695 114.912 93.3282 114.701C92.8932 114.472 92.5513 114.138 92.2903 113.711C91.3953 112.806 91.3394 111.605 91.3891 110.367H91.3953ZM91.4202 117.314C95.9386 120.466 100.581 117.958 102.651 113.649C104.037 115.098 103.782 116.831 103.633 118.416C103.621 118.899 104.006 118.918 104.398 118.918C104.547 118.918 104.696 118.912 104.845 118.906C104.746 119.122 104.621 119.358 104.491 119.593C104.037 120.392 103.484 121.141 102.887 121.847C100.811 124.094 98.344 125.834 95.7273 127.364C95.6465 127.413 95.5595 127.457 95.4787 127.5C94.8323 125.618 96.15 123.878 96.5167 121.698C96.6472 121.339 96.8896 121.116 97.1817 120.955C98.058 120.472 99.3446 120.565 99.1271 119.333C96.2867 119.271 93.5458 119.748 91.414 117.308L91.4202 117.314ZM94.0554 136.262C94.4719 136.311 94.851 136.354 95.1866 136.379C95.1804 136.416 95.168 136.454 95.1617 136.491C94.8137 136.423 94.447 136.348 94.0554 136.268V136.262ZM95.1182 136.726C95.1182 136.726 95.1182 136.745 95.1182 136.757C94.8261 136.707 94.5278 136.652 94.2046 136.596C94.5278 136.646 94.8261 136.689 95.1182 136.726ZM93.9249 135.741C94.447 135.711 94.7142 135.605 94.7888 135.426C95.0064 135.519 95.1866 135.605 95.3358 135.68C95.3233 135.785 95.2985 135.89 95.2736 136.008C94.9442 135.958 94.4905 135.865 93.9187 135.741H93.9249ZM93.552 131.686C94.2232 132.373 94.8075 133.172 95.112 134.088C95.2363 134.466 95.3047 134.856 95.3296 135.252C95.1617 135.24 94.9939 135.228 94.8075 135.209C94.7391 134.906 94.3724 134.472 93.869 133.915C93.8565 133.296 93.5769 132.429 93.1853 131.345C93.3096 131.457 93.4339 131.568 93.552 131.692V131.686ZM83.2906 145.828C83.0607 145.655 82.8183 145.512 82.5572 145.407C82.2962 145.153 82.0662 144.887 81.8549 144.608C81.0034 143.519 80.4192 142.324 79.4993 141.283C79.8101 141.698 79.9406 142.163 79.2942 142.441C78.1506 142.937 77.6534 141.797 77.2308 141.438C77.2991 142.218 78.1506 142.93 78.5795 143.289C76.516 142.286 78.3557 145.277 76.5036 146.144C76.0809 146.485 75.6148 146.769 75.1549 146.992C76.7211 144.627 74.5893 142.844 74.0237 140.924C72.9236 137.946 75.8261 137.593 78.6541 137.748C78.4365 137.865 78.2003 138.002 77.9642 138.163C78.306 137.983 78.6416 137.841 78.9462 137.76C79.3004 137.785 79.6485 137.816 79.9841 137.847C80.0463 137.89 80.1084 137.946 80.1581 138.008C80.1581 137.946 80.1333 137.909 80.1209 137.859C80.2887 137.878 80.4565 137.89 80.6181 137.909C80.5062 137.995 80.3881 138.082 80.2638 138.175C80.3011 138.249 80.3322 138.317 80.357 138.404C80.5932 138.231 80.8107 138.082 81.0221 137.952C81.1774 137.971 81.3328 137.989 81.482 138.002C81.3204 138.144 81.1402 138.299 80.9288 138.478C81.3515 138.274 81.7306 138.094 82.0911 137.927C82.1595 137.902 82.2278 137.878 82.2962 137.847C82.2651 137.909 82.2278 137.971 82.1843 138.045C83.2409 137.599 83.9619 137.271 84.3969 137.06C84.2664 137.067 84.1297 137.079 83.9929 137.085C83.8065 137.159 83.589 137.252 83.3528 137.358C83.4957 137.271 83.6387 137.184 83.7878 137.098C83.8562 137.098 83.9308 137.091 83.9992 137.085C84.2229 136.992 84.4094 136.918 84.5585 136.868C84.4156 136.881 84.2664 136.893 84.111 136.912C86.1559 135.686 88.1758 134.454 90.0715 133.153C90.9602 132.602 91.849 132.045 92.7316 131.488C92.8435 135.314 91.8677 136.342 86.9141 136.856C86.5971 136.974 85.9135 137.166 84.9066 137.444C84.832 137.63 84.08 138.193 82.4578 139.166C88.3996 136.943 89.4126 137.06 83.8811 139.729C91.3891 137.444 92.3462 137.711 86.4045 140.8C91.0162 139.389 93.2102 138.961 93.8938 139.593C92.5203 139.68 91.1467 140.138 90.2206 140.701C88.8346 141.63 88.3561 142.819 88.412 144.076C86.4728 144.726 84.6083 145.345 83.2968 145.828H83.2906ZM88.0888 150.026C86.8147 149.909 86.0005 149.023 85.236 148.045C85.5219 147.884 85.814 147.723 86.0999 147.562C86.0564 147.562 86.0191 147.562 85.9756 147.556C85.7021 147.692 85.4349 147.828 85.1738 147.964C85.0371 147.785 84.9004 147.605 84.7636 147.432C85.1676 147.481 85.5716 147.525 85.9756 147.556C86.939 147.067 87.9272 146.577 88.8843 146.088C89.3691 147.234 90.1398 148.348 90.9602 149.302C90.4692 149.741 89.9907 150.002 89.5183 150.119C89.0335 150.224 88.5612 150.187 88.0826 150.026H88.0888ZM96.4732 153.444C96.3426 153.085 96.3861 152.757 96.5042 152.447C96.8647 151.519 97.9089 150.763 96.9517 149.958C94.7329 151.729 92.9429 153.853 89.7358 153.345C95.2301 152.868 97.1693 147.971 95.9759 143.345C97.971 143.568 98.8971 145.06 99.8045 146.367C100.109 146.745 100.414 146.515 100.712 146.262C100.824 146.163 100.936 146.063 101.048 145.964C101.11 146.193 101.172 146.454 101.215 146.72C101.383 147.624 101.445 148.546 101.445 149.475C101.309 152.528 100.538 155.438 99.5248 158.286C99.4938 158.373 99.4565 158.46 99.4254 158.553C97.7162 157.525 97.6043 155.345 96.4794 153.444H96.4732ZM101.905 180.404C101.619 180.416 101.34 180.46 101.066 180.553C100.7 180.522 100.351 180.466 100.01 180.392C98.6485 180.101 97.4365 179.562 96.063 179.351C96.5726 179.469 96.9704 179.741 96.6534 180.373C96.094 181.481 94.9815 180.93 94.4283 180.93C94.9877 181.488 96.1002 181.488 96.6534 181.488C94.4283 182.045 97.7659 183.153 96.902 185.005C96.7964 185.537 96.6285 186.051 96.4172 186.522C96.094 183.711 93.3096 183.711 91.6377 182.596C88.8719 181.023 90.867 178.893 93.1294 177.197C93.0361 177.426 92.9491 177.68 92.8745 177.952C93.0175 177.593 93.1853 177.271 93.3718 177.017C93.6577 176.807 93.9436 176.608 94.2232 176.416C94.2978 176.41 94.3786 176.416 94.4594 176.429C94.4221 176.392 94.3786 176.361 94.3413 176.33C94.4781 176.237 94.6086 176.15 94.7391 176.057C94.708 176.193 94.6707 176.336 94.6397 176.491C94.7142 176.522 94.7826 176.553 94.8634 176.608C94.9318 176.324 95.0001 176.07 95.0747 175.841C95.2115 175.754 95.3358 175.667 95.4601 175.587C95.429 175.803 95.3917 176.033 95.3482 176.305C95.5222 175.915 95.6838 175.562 95.8454 175.228C95.8951 175.141 95.9449 175.054 95.9946 174.968C96.007 175.029 96.0194 175.098 96.0319 175.172C96.554 174.156 96.8958 173.438 97.0947 172.998C97.0015 173.091 96.902 173.184 96.8026 173.277C96.7093 173.457 96.6037 173.661 96.4856 173.896C96.5415 173.735 96.5912 173.581 96.6472 173.42C96.6969 173.37 96.7466 173.32 96.7964 173.277C96.9082 173.06 97.0077 172.887 97.0823 172.751C96.9828 172.85 96.8772 172.961 96.7653 173.067C97.5422 170.813 98.2942 168.577 98.9033 166.367C99.2327 165.376 99.5497 164.379 99.8667 163.389C102.421 166.249 102.334 167.661 98.8785 171.228C98.7169 171.519 98.3129 172.107 97.7224 172.961C97.7846 173.147 97.5733 174.063 96.9579 175.847C100.078 170.336 100.929 169.779 98.4123 175.364C102.688 168.806 103.596 168.398 101.035 174.565C103.658 170.528 105.063 168.8 105.995 168.844C105 169.791 104.236 171.017 103.894 172.045C103.434 173.642 103.832 174.862 104.69 175.785C103.627 177.519 102.595 179.19 101.905 180.404ZM109.451 179.698C109.146 180.088 108.761 180.361 108.295 180.546C107.244 181.271 106.045 181.116 104.833 180.85C104.951 180.54 105.063 180.231 105.187 179.927C105.156 179.952 105.119 179.977 105.087 180.002C104.969 180.28 104.851 180.559 104.739 180.831C104.522 180.782 104.298 180.732 104.081 180.683C104.422 180.466 104.758 180.237 105.087 180.002C105.51 179.011 105.951 178.002 106.368 177.017C107.474 177.587 108.792 177.946 110.029 178.15C109.935 178.8 109.736 179.308 109.451 179.698ZM116.921 177.791C116.592 177.605 116.412 177.32 116.306 177.005C115.983 176.063 116.3 174.813 115.044 174.813C114.485 177.587 114.485 180.361 111.701 182.026C115.597 178.144 113.926 173.147 110.029 170.373C111.701 169.265 113.372 169.816 114.908 170.237C115.386 170.336 115.467 169.958 115.535 169.574C115.56 169.426 115.579 169.283 115.604 169.135C115.803 169.271 116.014 169.432 116.219 169.605C116.928 170.194 117.574 170.862 118.171 171.568C120.035 173.995 121.328 176.72 122.378 179.55C122.409 179.636 122.44 179.729 122.472 179.816C120.501 180.119 119.003 178.528 116.915 177.791H116.921ZM125.119 177.779C125.119 177.779 125.076 177.785 125.057 177.791C125.076 177.791 125.094 177.791 125.119 177.785C124.846 178.255 124.51 178.676 124.162 179.048C123.988 178.658 123.82 178.268 123.646 177.884C122.409 175.147 121.067 172.423 119.525 169.723C118.929 169.017 118.512 168.237 118.208 167.407C117.903 166.577 117.711 165.704 118.09 165.042C117.4 163.909 117.288 162.992 118.326 162.033C117.12 161.234 117.195 160.398 117.947 159.302C117.568 158.751 117.872 157.94 118.307 157.147C118.742 156.348 119.314 155.568 120.041 154.8C119.724 155.135 120.831 157.909 120.98 158.379C122.005 161.698 123.64 164.515 125.511 167.159C125.473 169.011 125.473 170.862 125.523 172.714C125.536 173.265 125.56 173.822 125.585 174.373C125.958 175.692 125.666 176.837 125.119 177.785V177.779ZM126.275 182.441C127.071 181.902 127.96 181.469 128.923 181.327C129.315 181.271 129.712 181.271 130.11 181.314C130.073 181.475 130.029 181.636 129.973 181.822C129.656 181.841 129.165 182.119 128.531 182.515C127.916 182.423 127.015 182.546 125.871 182.745C126.008 182.646 126.139 182.54 126.275 182.447V182.441ZM137.929 195.611C137.631 195.822 137.326 196.002 137.021 196.163C135.797 196.813 134.517 197.172 133.323 197.896C133.789 197.661 134.268 197.611 134.436 198.299C134.728 199.506 133.516 199.791 133.087 200.15C133.87 200.218 134.728 199.506 135.151 199.147C133.802 200.998 137.077 199.711 137.612 201.68C137.873 202.156 138.078 202.658 138.215 203.147C136.151 201.197 134.019 202.98 132.024 203.203C128.892 203.766 129.047 200.856 129.687 198.107C129.762 198.342 129.861 198.596 129.98 198.856C129.861 198.491 129.781 198.138 129.756 197.822C129.843 197.481 129.93 197.141 130.023 196.819C130.079 196.763 130.141 196.72 130.216 196.676C130.154 196.676 130.11 196.683 130.06 196.689C130.104 196.528 130.154 196.367 130.197 196.212C130.259 196.336 130.328 196.472 130.402 196.608C130.477 196.59 130.551 196.565 130.645 196.559C130.514 196.293 130.408 196.057 130.309 195.828C130.352 195.673 130.396 195.531 130.439 195.389C130.551 195.574 130.676 195.772 130.812 196.014C130.694 195.599 130.589 195.228 130.495 194.868C130.477 194.769 130.464 194.67 130.439 194.571C130.489 194.608 130.539 194.652 130.601 194.707C130.346 193.599 130.147 192.825 130.011 192.367C129.998 192.497 129.98 192.633 129.967 192.769C130.011 192.961 130.067 193.19 130.122 193.444C130.06 193.289 130.004 193.135 129.942 192.974C129.948 192.906 129.961 192.831 129.967 192.769C129.917 192.528 129.874 192.336 129.849 192.187C129.837 192.33 129.824 192.478 129.812 192.633C128.954 190.41 128.09 188.218 127.127 186.132C126.735 185.159 126.344 184.194 125.946 183.228C129.75 183.785 130.595 184.918 130.247 189.865C130.309 190.194 130.377 190.899 130.477 191.933C130.651 192.039 131.073 192.875 131.751 194.633C130.582 188.416 130.875 187.444 132.553 193.333C131.602 185.568 132.031 184.676 134.044 191.042C133.448 186.262 133.41 184.045 134.156 183.481C134.007 184.844 134.212 186.274 134.61 187.277C135.294 188.794 136.381 189.475 137.631 189.636C137.935 191.649 138.227 193.587 138.476 194.955C138.264 195.147 138.078 195.364 137.929 195.605V195.611ZM143.46 190.986C143.119 192.212 142.105 192.862 141.005 193.438C140.894 193.128 140.782 192.819 140.682 192.503C140.67 192.54 140.664 192.584 140.651 192.621C140.738 192.912 140.831 193.197 140.918 193.481C140.719 193.587 140.521 193.686 140.315 193.791C140.44 193.407 140.552 193.017 140.651 192.621C140.334 191.593 140.023 190.534 139.706 189.512C140.925 189.24 142.161 188.67 143.243 188.033C143.591 188.59 143.765 189.104 143.802 189.593C143.821 190.088 143.703 190.546 143.46 190.98V190.986ZM148.296 183.351C147.923 183.42 147.606 183.32 147.32 183.147C146.462 182.633 145.897 181.475 144.94 182.274C146.301 184.757 148.091 186.881 147.034 189.94C147.513 184.466 143.013 181.711 138.233 182.082C138.799 180.163 140.434 179.519 141.888 178.85C142.317 178.621 142.143 178.28 141.944 177.94C141.869 177.81 141.788 177.686 141.714 177.562C141.95 177.537 142.217 177.525 142.485 177.525C143.404 177.525 144.331 177.618 145.244 177.779C148.24 178.447 150.987 179.704 153.616 181.197C153.697 181.246 153.778 181.296 153.859 181.345C152.547 182.844 150.372 182.577 148.296 183.351ZM154.648 179.686C154.263 179.5 153.89 179.302 153.498 179.116C150.782 177.81 147.998 176.584 145.076 175.506C144.163 175.345 143.342 175.011 142.572 174.577C141.807 174.138 141.092 173.593 140.956 172.844C139.7 172.416 139.017 171.785 139.191 170.385C137.755 170.54 137.27 169.859 137.139 168.54C136.499 168.361 136.207 167.55 136.027 166.658C135.847 165.766 135.778 164.8 135.841 163.748C135.816 164.206 138.445 165.624 138.867 165.89C141.795 167.772 144.859 168.887 148.004 169.717C149.172 171.159 150.359 172.577 151.596 173.964C151.963 174.379 152.336 174.788 152.715 175.197C153.852 175.971 154.368 177.036 154.561 178.107C154.548 178.125 154.536 178.138 154.517 178.156C154.53 178.144 154.542 178.125 154.561 178.113C154.654 178.652 154.673 179.19 154.642 179.698L154.648 179.686ZM157.619 178.342C158.035 177.624 158.408 177.036 158.737 176.584C158.389 176.924 158.004 177.506 157.55 178.361C157.01 178.472 156.481 178.429 155.978 178.119C155.661 177.741 156.015 176.807 156.369 176.299C159.508 173.327 160.49 173.611 161.578 176.435C161.516 176.46 161.447 176.491 161.385 176.522C160.534 175.06 159.838 175.079 158.737 176.584C159.347 175.989 159.831 176.169 160.36 177.029C159.427 177.556 158.501 178.144 157.619 178.342ZM158.464 180.924C158.725 180.002 159.129 179.098 159.769 178.379C160.036 178.082 160.341 177.828 160.67 177.611C160.745 177.76 160.813 177.915 160.894 178.088C160.664 178.305 160.472 178.831 160.235 179.543C159.707 179.865 159.092 180.54 158.346 181.42C158.383 181.259 158.414 181.091 158.464 180.93V180.924ZM176.271 193.153C174.232 195.593 172.473 193.265 171.193 190.751C171.404 190.881 171.64 191.011 171.895 191.128C171.566 190.924 171.28 190.707 171.056 190.478C170.901 190.163 170.752 189.847 170.609 189.537C170.615 189.463 170.633 189.382 170.665 189.308C170.621 189.339 170.584 189.37 170.546 189.407C170.478 189.259 170.416 189.11 170.348 188.967C170.478 189.023 170.615 189.079 170.758 189.141C170.801 189.073 170.845 189.011 170.913 188.943C170.646 188.825 170.403 188.714 170.186 188.602C170.124 188.454 170.062 188.311 169.999 188.181C170.205 188.249 170.428 188.324 170.689 188.416C170.335 188.175 170.012 187.958 169.707 187.741C169.633 187.673 169.552 187.611 169.477 187.55C169.54 187.55 169.608 187.55 169.689 187.55C168.775 186.862 168.129 186.398 167.725 186.132C167.799 186.243 167.874 186.355 167.948 186.466C168.11 186.59 168.297 186.726 168.508 186.881C168.359 186.8 168.216 186.72 168.067 186.639C168.029 186.584 167.986 186.522 167.948 186.466C167.756 186.317 167.6 186.194 167.482 186.094C167.563 186.212 167.65 186.336 167.743 186.46C165.649 185.308 163.573 184.181 161.497 183.197C160.571 182.701 159.645 182.218 158.713 181.735C161.988 179.723 163.368 180.051 166.295 184.063C166.556 184.274 167.066 184.769 167.806 185.5C168.004 185.469 168.868 185.841 170.522 186.751C165.618 182.732 165.214 181.803 170.298 185.24C164.561 179.902 164.313 178.943 169.962 182.528C166.426 179.252 164.965 177.574 165.17 176.67C165.935 177.81 167.016 178.769 167.967 179.283C169.471 180.014 170.745 179.828 171.802 179.153C173.331 180.497 174.804 181.797 175.879 182.689C175.842 182.974 175.842 183.252 175.879 183.537C175.786 183.89 175.668 184.224 175.537 184.54C175.015 185.822 174.269 186.918 173.822 188.237C174.027 187.76 174.363 187.413 174.934 187.834C175.935 188.571 175.195 189.568 175.096 190.119C175.742 189.667 175.935 188.577 176.035 188.033C176.196 190.317 177.874 187.228 179.559 188.398C180.068 188.596 180.547 188.85 180.969 189.135C178.129 188.961 177.65 191.698 176.258 193.141L176.271 193.153ZM183.02 196.54C183.089 195.977 182.759 194.837 182.853 194.305C183.294 194.93 183.17 195.723 183.02 196.54Z" fill="currentColor"/>
<path d="M173.797 188.242C173.642 188.608 173.561 189.047 173.518 189.282C173.58 188.917 173.679 188.57 173.797 188.242Z" fill="currentColor"/>
<path d="M183.468 183.493C183.468 183.493 183.443 183.45 183.43 183.431C182.933 182.638 182.212 181.933 181.746 181.152C181.852 181.326 181.964 181.505 182.076 181.679C182.343 182.013 182.591 182.372 182.834 182.737C183.039 182.998 183.25 183.251 183.468 183.499V183.493Z" fill="currentColor"/>
<path d="M130.558 193.189C130.515 192.725 130.477 192.31 130.44 191.932C130.297 191.846 130.334 192.298 130.558 193.189Z" fill="currentColor"/>
<path d="M167.451 186.092C167.401 186.018 167.352 185.95 167.302 185.882C167.116 185.782 167.172 185.863 167.451 186.092Z" fill="currentColor"/>
<path d="M167.302 185.876C167.383 185.919 167.514 186 167.694 186.124C167.172 185.35 166.699 184.662 166.258 184.062C165.792 183.684 166.121 184.21 167.302 185.876Z" fill="currentColor"/>
<path d="M213.755 142.422C213.525 142.725 213.264 143.016 213.027 143.363C213.475 143.103 213.916 142.843 213.755 142.422Z" fill="currentColor"/>
<path d="M169.868 187.559C169.787 187.553 169.719 187.547 169.65 187.547C169.936 187.764 170.247 187.999 170.583 188.259C170.334 188.017 170.098 187.788 169.862 187.565L169.868 187.559Z" fill="currentColor"/>
<path d="M170.726 189.133C170.689 189.189 170.658 189.244 170.633 189.306C170.695 189.263 170.757 189.219 170.838 189.182C170.801 189.164 170.763 189.151 170.726 189.139V189.133Z" fill="currentColor"/>
<path d="M170.628 187.679C169.807 187.171 169.155 186.737 168.67 186.391C169.03 186.744 169.434 187.14 169.869 187.561C170.081 187.579 170.329 187.623 170.628 187.679Z" fill="currentColor"/>
<path d="M198.602 154.91C198.72 155.288 198.943 155.678 199.061 155.888C198.875 155.567 198.726 155.238 198.602 154.91Z" fill="currentColor"/>
<path d="M202.953 145.076C202.953 145.076 202.904 145.064 202.879 145.052C201.99 144.761 200.977 144.686 200.119 144.383C200.312 144.451 200.511 144.513 200.71 144.575C201.132 144.661 201.555 144.773 201.971 144.897C202.294 144.965 202.618 145.027 202.953 145.076Z" fill="currentColor"/>
<path d="M168.675 186.389C168.339 186.061 168.041 185.77 167.774 185.504C167.606 185.529 167.929 185.851 168.675 186.389Z" fill="currentColor"/>
<path d="M192.356 157.326C192.269 157.301 192.188 157.283 192.107 157.258C191.902 157.301 191.995 157.326 192.356 157.326Z" fill="currentColor"/>
<path d="M192.1 157.264C192.193 157.245 192.342 157.226 192.56 157.202C191.659 156.942 190.857 156.719 190.13 156.539C189.527 156.545 190.117 156.737 192.1 157.264Z" fill="currentColor"/>
<path d="M199.652 94.2227C199.671 94.6004 199.652 94.9966 199.708 95.4115C199.889 94.9223 200.056 94.4456 199.652 94.2227Z" fill="currentColor"/>
<path d="M195.158 156.898C195.09 156.942 195.034 156.985 194.984 157.028C195.345 157.01 195.73 156.991 196.159 156.973C195.811 156.948 195.482 156.923 195.158 156.898Z" fill="currentColor"/>
<path d="M196.824 157.561C196.83 157.629 196.843 157.691 196.862 157.753C196.88 157.684 196.905 157.604 196.936 157.523C196.899 157.536 196.862 157.548 196.824 157.561Z" fill="currentColor"/>
<path d="M195.811 156.508C194.854 156.644 194.077 156.731 193.48 156.774C193.99 156.817 194.549 156.861 195.152 156.904C195.326 156.786 195.544 156.656 195.805 156.508H195.811Z" fill="currentColor"/>
<path d="M196.098 113.492C196.433 113.709 196.856 113.864 197.08 113.944C196.725 113.814 196.408 113.659 196.098 113.492Z" fill="currentColor"/>
<path d="M193.089 103.176C193.089 103.176 193.04 103.194 193.021 103.207C192.151 103.553 191.324 104.142 190.473 104.464C190.665 104.389 190.858 104.315 191.051 104.235C191.43 104.03 191.828 103.851 192.225 103.677C192.517 103.523 192.803 103.362 193.089 103.182V103.176Z" fill="currentColor"/>
<path d="M193.482 156.767C193.015 156.73 192.599 156.693 192.22 156.668C192.108 156.798 192.562 156.835 193.482 156.767Z" fill="currentColor"/>
<path d="M192.872 119.344C192.791 119.381 192.716 119.418 192.636 119.455C192.505 119.616 192.592 119.579 192.872 119.344Z" fill="currentColor"/>
<path d="M192.636 119.454C192.692 119.38 192.798 119.268 192.947 119.113C192.089 119.491 191.331 119.838 190.66 120.16C190.206 120.55 190.778 120.321 192.636 119.454Z" fill="currentColor"/>
<path d="M157.75 66.3281C158.005 66.6067 158.253 66.9163 158.558 67.2011C158.378 66.712 158.197 66.2352 157.75 66.3281Z" fill="currentColor"/>
<path d="M194.743 117.227C194.718 117.301 194.706 117.369 194.693 117.437C194.954 117.196 195.24 116.929 195.557 116.645C195.278 116.849 195.004 117.041 194.743 117.227Z" fill="currentColor"/>
<path d="M196.445 116.658C196.495 116.707 196.545 116.744 196.601 116.782C196.57 116.713 196.539 116.645 196.514 116.559C196.489 116.596 196.47 116.627 196.452 116.658H196.445Z" fill="currentColor"/>
<path d="M194.991 116.5C194.345 117.218 193.804 117.782 193.375 118.197C193.791 117.906 194.251 117.577 194.742 117.224C194.798 117.02 194.879 116.785 194.991 116.5Z" fill="currentColor"/>
<path d="M167.457 83.3669C167.855 83.3173 168.277 83.1687 168.501 83.082C168.147 83.2121 167.799 83.2988 167.457 83.3669Z" fill="currentColor"/>
<path d="M158.495 77.3945C158.495 77.3945 158.47 77.4379 158.458 77.4626C158.016 78.2862 157.762 79.2645 157.32 80.0571C157.42 79.8775 157.519 79.6979 157.612 79.5122C157.768 79.1159 157.954 78.7196 158.153 78.3295C158.277 78.0261 158.389 77.7165 158.495 77.4007V77.3945Z" fill="currentColor"/>
<path d="M193.375 118.199C192.996 118.472 192.655 118.713 192.344 118.93C192.344 119.097 192.71 118.837 193.375 118.199Z" fill="currentColor"/>
<path d="M168.762 89.918C168.725 89.9985 168.688 90.0728 168.65 90.1533C168.65 90.3638 168.694 90.2771 168.762 89.918Z" fill="currentColor"/>
<path d="M168.657 90.148C168.657 90.0551 168.657 89.9003 168.676 89.6836C168.266 90.5195 167.905 91.2749 167.601 91.956C167.501 92.5443 167.793 91.9994 168.657 90.148Z" fill="currentColor"/>
<path d="M107.648 71.7962C108.028 71.8458 108.413 71.9262 108.829 71.951C108.382 71.691 107.934 71.4433 107.648 71.7962Z" fill="currentColor"/>
<path d="M168.83 87.0893C168.862 87.1636 168.893 87.2255 168.924 87.2813C168.967 86.9283 169.017 86.5444 169.073 86.1172C168.986 86.4516 168.905 86.7735 168.824 87.0831L168.83 87.0893Z" fill="currentColor"/>
<path d="M169.77 85.5685C169.839 85.5685 169.907 85.5685 169.969 85.5685C169.901 85.5375 169.832 85.5004 169.758 85.457C169.758 85.5004 169.77 85.5375 169.77 85.5747V85.5685Z" fill="currentColor"/>
<path d="M168.551 86.3828C168.52 87.3426 168.47 88.1228 168.408 88.7172C168.539 88.228 168.675 87.6831 168.825 87.0949C168.738 86.9029 168.644 86.6676 168.551 86.3828Z" fill="currentColor"/>
<path d="M126.082 78.6315C126.356 78.3405 126.579 77.9566 126.697 77.7461C126.511 78.0681 126.3 78.3591 126.082 78.6315Z" fill="currentColor"/>
<path d="M115.361 79.7969C115.361 79.7969 115.374 79.8464 115.38 79.8712C115.573 80.7814 116.014 81.6978 116.182 82.5895C116.144 82.3913 116.101 82.187 116.051 81.9826C115.914 81.574 115.803 81.1529 115.703 80.7319C115.604 80.4223 115.492 80.1065 115.368 79.7969H115.361Z" fill="currentColor"/>
<path d="M168.409 88.7109C168.291 89.1629 168.185 89.5654 168.092 89.9308C168.197 90.0608 168.316 89.6273 168.409 88.7109Z" fill="currentColor"/>
<path d="M131.309 82.8125C131.333 82.8992 131.352 82.9797 131.377 83.0602C131.514 83.2212 131.489 83.1221 131.309 82.8125Z" fill="currentColor"/>
<path d="M131.378 83.0606C131.316 82.9925 131.222 82.8687 131.092 82.6953C131.316 83.5993 131.527 84.4043 131.732 85.1226C132.037 85.6365 131.912 85.0297 131.378 83.0606Z" fill="currentColor"/>
<path d="M72.7989 108.067C73.1221 107.863 73.4701 107.677 73.8058 107.43C73.2961 107.523 72.7927 107.615 72.7989 108.067Z" fill="currentColor"/>
<path d="M129.539 80.6049C129.613 80.642 129.675 80.6668 129.737 80.6916C129.545 80.3943 129.333 80.0662 129.104 79.707C129.259 80.0228 129.402 80.3138 129.539 80.6049Z" fill="currentColor"/>
<path d="M129.271 78.8371C129.327 78.7937 129.376 78.7566 129.42 78.707C129.351 78.7256 129.271 78.7442 129.184 78.7566C129.215 78.7813 129.24 78.8123 129.271 78.8371Z" fill="currentColor"/>
<path d="M128.868 80.2422C129.464 80.9976 129.93 81.6292 130.26 82.1183C130.042 81.6601 129.8 81.1524 129.533 80.6075C129.346 80.5146 129.122 80.397 128.861 80.2422H128.868Z" fill="currentColor"/>
<path d="M91.3338 101.497C91.3587 101.101 91.2779 100.661 91.2344 100.426C91.2965 100.791 91.3214 101.15 91.3338 101.497Z" fill="currentColor"/>
<path d="M83.8691 109.258C83.8691 109.258 83.9064 109.289 83.9313 109.302C84.6709 109.878 85.5908 110.293 86.2993 110.868C86.1439 110.738 85.9761 110.615 85.8083 110.484C85.4416 110.262 85.0873 110.008 84.7331 109.748C84.4534 109.574 84.1675 109.407 83.8754 109.246L83.8691 109.258Z" fill="currentColor"/>
<path d="M130.26 82.1172C130.459 82.5382 130.639 82.916 130.8 83.2565C130.968 83.2875 130.776 82.8788 130.26 82.1172Z" fill="currentColor"/>
<path d="M98.0332 101.355C98.1078 101.405 98.1762 101.455 98.2445 101.504C98.4496 101.535 98.375 101.479 98.0332 101.355Z" fill="currentColor"/>
<path d="M98.2447 101.505C98.1515 101.493 98.0023 101.456 97.791 101.406C98.5493 101.957 99.2267 102.44 99.8483 102.855C100.414 103.053 99.9291 102.669 98.2447 101.505Z" fill="currentColor"/>
<path d="M69.5104 158.168C69.6284 157.803 69.7714 157.438 69.8646 157.035C69.529 157.431 69.2058 157.828 69.5104 158.168Z" fill="currentColor"/>
<path d="M95.2496 100.799C95.3304 100.781 95.3925 100.762 95.4609 100.737C95.1191 100.632 94.7461 100.514 94.3359 100.391C94.6529 100.533 94.9575 100.669 95.2496 100.799Z" fill="currentColor"/>
<path d="M93.9052 99.6177C93.9238 99.5496 93.9301 99.4877 93.9363 99.4258C93.8928 99.4877 93.8493 99.5496 93.7871 99.6115C93.8306 99.6115 93.8679 99.6115 93.9052 99.6115V99.6177Z" fill="currentColor"/>
<path d="M94.4961 100.945C95.4408 101.144 96.2053 101.329 96.7771 101.49C96.3172 101.28 95.8013 101.045 95.2481 100.797C95.043 100.846 94.7944 100.896 94.4961 100.945Z" fill="currentColor"/>
<path d="M78.6914 140.508C78.9773 140.749 79.2259 141.003 79.4621 141.269C79.2259 140.954 78.8779 140.663 78.6914 140.508Z" fill="currentColor"/>
<path d="M78.7543 151.989C78.7543 151.989 78.804 151.989 78.8288 151.989C79.7673 151.958 80.7431 151.686 81.6506 151.68C81.4455 151.68 81.2404 151.692 81.029 151.704C80.6064 151.766 80.1713 151.804 79.7301 151.828C79.4069 151.872 79.0775 151.927 78.748 151.995L78.7543 151.989Z" fill="currentColor"/>
<path d="M96.7773 101.492C97.2 101.684 97.5853 101.858 97.9272 102.018C98.0763 101.938 97.6661 101.746 96.7773 101.492Z" fill="currentColor"/>
</svg>
