<svg width="300" height="300" viewBox="0 0 300 300" fill="none" xmlns="http://www.w3.org/2000/svg">
<rect width="300" height="300" rx="15" fill="black"/>
<path d="M262.609 105.318C261.958 107.066 260.757 108.34 258.954 109.214C257.152 110.088 255.4 110.238 253.673 109.639C251.946 109.039 250.669 107.841 249.793 106.043C248.917 104.244 248.767 102.446 249.342 100.723C249.918 98.975 251.095 97.6764 252.922 96.7774C254.749 95.8783 256.501 95.7784 258.279 96.3778C260.031 96.9772 261.357 98.2009 262.233 99.999C263.11 101.797 263.235 103.57 262.609 105.293V105.318Z" fill="white"/>
<path d="M248.609 88.3183C247.958 90.0665 246.757 91.3401 244.954 92.2142C243.152 93.0883 241.4 93.2381 239.673 92.6388C237.946 92.0394 236.669 90.8407 235.793 89.0426C234.917 87.2445 234.767 85.4464 235.342 83.7232C235.918 81.975 237.095 80.6764 238.922 79.7774C240.749 78.8783 242.501 78.7784 244.279 79.3778C246.031 79.9772 247.357 81.2009 248.233 82.999C249.11 84.7971 249.235 86.5702 248.609 88.2934V88.3183Z" fill="white"/>
<path d="M217.609 76.3183C216.958 78.0665 215.757 79.3401 213.954 80.2142C212.152 81.0883 210.4 81.2381 208.673 80.6388C206.946 80.0394 205.669 78.8407 204.793 77.0426C203.917 75.2445 203.767 73.4464 204.342 71.7232C204.918 69.975 206.095 68.6764 207.922 67.7774C209.749 66.8783 211.501 66.7784 213.279 67.3778C215.031 67.9772 216.357 69.2009 217.233 70.999C218.11 72.7971 218.235 74.5702 217.609 76.2934V76.3183Z" fill="white"/>
<path d="M156.609 80.3183C155.958 82.0665 154.757 83.3401 152.954 84.2142C151.152 85.0883 149.4 85.2381 147.673 84.6388C145.946 84.0394 144.669 82.8407 143.793 81.0426C142.917 79.2445 142.767 77.4464 143.342 75.7232C143.918 73.975 145.095 72.6764 146.922 71.7774C148.749 70.8783 150.501 70.7784 152.279 71.3778C154.031 71.9772 155.357 73.2009 156.233 74.999C157.11 76.7971 157.235 78.5702 156.609 80.2934V80.3183Z" fill="white"/>
<path d="M193.609 75.3183C192.958 77.0665 191.757 78.3401 189.954 79.2142C188.152 80.0883 186.4 80.2381 184.673 79.6388C182.946 79.0394 181.669 77.8407 180.793 76.0426C179.917 74.2445 179.767 72.4464 180.342 70.7232C180.918 68.975 182.095 67.6764 183.922 66.7774C185.749 65.8783 187.501 65.7784 189.279 66.3778C191.031 66.9772 192.357 68.2009 193.233 69.999C194.11 71.7971 194.235 73.5702 193.609 75.2934V75.3183Z" fill="white"/>
<path d="M51.6089 172.318C50.9581 174.066 49.7566 175.34 47.9544 176.214C46.1521 177.088 44.4 177.238 42.6728 176.639C40.9457 176.039 39.6691 174.841 38.793 173.043C37.9169 171.244 37.7667 169.446 38.3425 167.723C38.9182 165.975 40.0946 164.676 41.9219 163.777C43.7492 162.878 45.5013 162.778 47.2785 163.378C49.0307 163.977 50.3573 165.201 51.2334 166.999C52.1095 168.797 52.2347 170.57 51.6089 172.293V172.318Z" fill="white"/>
<path d="M52.3911 137.682C53.0419 135.934 54.2434 134.66 56.0456 133.786C57.8479 132.912 59.6 132.762 61.3272 133.361C63.0543 133.961 64.3309 135.159 65.207 136.957C66.0831 138.756 66.2333 140.554 65.6575 142.277C65.0818 144.025 63.9054 145.324 62.0781 146.223C60.2509 147.122 58.4987 147.222 56.7215 146.622C54.9693 146.023 53.6427 144.799 52.7666 143.001C51.8905 141.203 51.7653 139.43 52.3911 137.707V137.682Z" fill="white"/>
<path d="M37.3911 188.682C38.0419 186.934 39.2434 185.66 41.0456 184.786C42.8479 183.912 44.6 183.762 46.3272 184.361C48.0543 184.961 49.3309 186.159 50.207 187.957C51.0831 189.756 51.2333 191.554 50.6575 193.277C50.0818 195.025 48.9054 196.324 47.0781 197.223C45.2508 198.122 43.4987 198.222 41.7215 197.622C39.9693 197.023 38.6427 195.799 37.7666 194.001C36.8905 192.203 36.7653 190.43 37.3911 188.707V188.682Z" fill="white"/>
<path d="M81.3911 221.682C82.0419 219.934 83.2434 218.66 85.0456 217.786C86.8479 216.912 88.6 216.762 90.3272 217.361C92.0543 217.961 93.3309 219.159 94.207 220.957C95.0831 222.756 95.2333 224.554 94.6575 226.277C94.0818 228.025 92.9054 229.324 91.0781 230.223C89.2508 231.122 87.4987 231.222 85.7215 230.622C83.9693 230.023 82.6427 228.799 81.7666 227.001C80.8905 225.203 80.7653 223.43 81.3911 221.707V221.682Z" fill="white"/>
<path d="M150.391 216.682C151.042 214.934 152.243 213.66 154.046 212.786C155.848 211.912 157.6 211.762 159.327 212.361C161.054 212.961 162.331 214.159 163.207 215.957C164.083 217.756 164.233 219.554 163.658 221.277C163.082 223.025 161.905 224.324 160.078 225.223C158.251 226.122 156.499 226.222 154.721 225.622C152.969 225.023 151.643 223.799 150.767 222.001C149.89 220.203 149.765 218.43 150.391 216.707V216.682Z" fill="white"/>
<path d="M103.391 224.682C104.042 222.934 105.243 221.66 107.046 220.786C108.848 219.912 110.6 219.762 112.327 220.361C114.054 220.961 115.331 222.159 116.207 223.957C117.083 225.756 117.233 227.554 116.658 229.277C116.082 231.025 114.905 232.324 113.078 233.223C111.251 234.122 109.499 234.222 107.721 233.622C105.969 233.023 104.643 231.799 103.767 230.001C102.89 228.203 102.765 226.43 103.391 224.707V224.682Z" fill="white"/>
<path d="M236.391 157.682C237.042 155.934 238.243 154.66 240.046 153.786C241.848 152.912 243.6 152.762 245.327 153.361C247.054 153.961 248.331 155.159 249.207 156.957C250.083 158.756 250.233 160.554 249.658 162.277C249.082 164.025 247.905 165.324 246.078 166.223C244.251 167.122 242.499 167.222 240.721 166.622C238.969 166.023 237.643 164.799 236.767 163.001C235.89 161.203 235.765 159.43 236.391 157.707V157.682Z" fill="white"/>
<path d="M112.996 140.949C114.336 139.633 116.004 139 118.051 139C120.097 139 121.74 139.633 123.054 140.949C124.368 142.266 125 143.911 125 145.937C125 147.962 124.343 149.658 123.054 151C121.74 152.342 120.097 153 118.051 153C116.004 153 114.361 152.342 112.996 151C111.657 149.658 111 147.987 111 145.937C111 143.886 111.682 142.241 112.996 140.949Z" fill="white"/>
<path d="M181.996 135.949C183.336 134.633 185.004 134 187.051 134C189.097 134 190.74 134.633 192.054 135.949C193.368 137.266 194 138.911 194 140.937C194 142.962 193.343 144.658 192.054 146C190.74 147.342 189.097 148 187.051 148C185.004 148 183.361 147.342 181.996 146C180.657 144.658 180 142.987 180 140.937C180 138.886 180.682 137.24 181.996 135.949Z" fill="white"/>
<path d="M248.996 135.949C250.336 134.633 252.004 134 254.051 134C256.097 134 257.74 134.633 259.054 135.949C260.368 137.266 261 138.911 261 140.937C261 142.962 260.343 144.658 259.054 146C257.74 147.342 256.097 148 254.051 148C252.004 148 250.361 147.342 248.996 146C247.657 144.658 247 142.987 247 140.937C247 138.886 247.682 137.24 248.996 135.949Z" fill="white"/>
<path d="M135.996 172.949C137.336 171.633 139.004 171 141.051 171C143.097 171 144.74 171.633 146.054 172.949C147.368 174.266 148 175.911 148 177.937C148 179.962 147.343 181.658 146.054 183C144.74 184.342 143.097 185 141.051 185C139.004 185 137.361 184.342 135.996 183C134.657 181.658 134 179.987 134 177.937C134 175.886 134.682 174.241 135.996 172.949Z" fill="white"/>
</svg>
