<svg width="27" height="27" viewBox="0 0 27 27" fill="none" xmlns="http://www.w3.org/2000/svg">
<g filter="url(#filter0_d_62_21)">
<path d="M24 12.5C24 6.14873 18.8513 1 12.5 1C6.14873 1 1 6.14873 1 12.5C1 18.8513 6.14873 24 12.5 24C18.8513 24 24 18.8513 24 12.5Z" fill="white"/>
<path d="M24 12.5C24 6.14873 18.8513 1 12.5 1C6.14873 1 1 6.14873 1 12.5C1 18.8513 6.14873 24 12.5 24C18.8513 24 24 18.8513 24 12.5Z" stroke="#030303"/>
</g>
<path d="M11.2774 6.0346C10.2694 4.55756 13.5851 5.07835 11.3847 6.96387C11.9967 7.02357 12.3416 7.51164 11.9418 7.67119C11.2809 7.93496 11.5784 8.67129 11.8391 8.60113" stroke="black" stroke-width="0.337302" stroke-linecap="round" stroke-linejoin="round"/>
<path d="M13.8805 6.42857C14.2228 6.42857 14.5003 6.15885 14.5003 5.82614C14.5003 5.49344 14.2228 5.22372 13.8805 5.22372C13.5382 5.22372 13.2607 5.49344 13.2607 5.82614C13.2607 6.15885 13.5382 6.42857 13.8805 6.42857Z" stroke="black" stroke-width="0.337302" stroke-linecap="round" stroke-linejoin="round"/>
<path d="M15.678 8.57279C16.3166 8.57279 16.8343 8.07972 16.8343 7.4715C16.8343 6.86327 16.3166 6.37021 15.678 6.37021C15.0393 6.37021 14.5216 6.86327 14.5216 7.4715C14.5216 8.07972 15.0393 8.57279 15.678 8.57279Z" stroke="black" stroke-width="0.337302" stroke-linecap="round" stroke-linejoin="round"/>
<path d="M13.0953 8.10493C13.662 8.86656 14.6154 10.7484 15.4838 9.64842M9.1864 6.31791C9.5225 6.23021 9.94963 6.31589 10.3516 6.31791C10.1239 5.98364 10.2043 5.63352 10.2939 5.27902C9.70171 5.25136 9.57952 5.98499 9.1864 6.31791ZM9.1864 6.31791L9.15346 6.89166C8.83294 6.86805 8.47346 6.62283 8.17844 6.89166C7.83702 7.20231 8.09415 7.32509 8.14515 7.47148M10.5166 6.70378C10.4975 6.97632 10.3215 7.17432 10.1285 7.36422C10.4239 7.34061 10.7316 7.30452 10.7483 7.54636C10.8283 8.44122 10.1993 9.83394 9.71552 8.19971M7.84021 7.94775C7.29408 8.16059 7.09646 8.4935 7.34367 8.97922" stroke="black" stroke-width="0.337302" stroke-linecap="round" stroke-linejoin="round"/>
<path d="M10.6162 19.0099C10.6162 19.0099 10.2489 18.6436 10.0046 18.5762C9.75807 18.5077 9.43825 18.7819 9.23602 18.6311C9.09082 18.5229 9.145 18.1117 9.145 18.1117M10.9219 17.8597C10.8011 18.9853 12.4154 18.7974 12.0541 17.3322M7.58348 10.4276L8.0053 10.0498C7.54027 9.97901 7.64759 9.50983 7.40852 9.38199C6.90136 9.11046 6.40269 9.27068 7.0749 10.0498C6.9389 10.5389 5.96919 11.9623 5.98832 10.4357M9.15315 6.89169C8.61234 7.40776 8.72709 8.1677 9.15315 8.1053C9.54663 8.04796 9.68157 7.29241 9.15315 6.89169Z" stroke="black" stroke-width="0.337302" stroke-linecap="round" stroke-linejoin="round"/>
<path d="M8.17065 9.2862C8.25353 7.54673 8.98842 9.18737 8.97001 9.56177C8.71394 9.93753 8.61832 10.3517 8.8889 10.853C8.45292 11.3555 6.93674 12.2393 6.32615 11.0992M7.59124 13.1439C8.03642 13.0049 4.65661 10.3986 6.16111 13.0022M5.97163 13.522C6.43205 14.3383 8.02934 13.4461 8.62434 13.522C9.6833 13.6566 7.8094 15.6123 7.49242 14.427M12.1037 13.6242C11.6075 14.766 9.99284 14.4493 10.1285 12.9864M10.1285 12.9864C11.2101 12.7311 12.637 12.3975 12.1037 13.6239M10.1285 12.9864C10.8591 11.4206 10.0375 11.9333 9.55013 12.2464C9.20446 12.4686 9.33799 13.4505 7.95532 12.2622M8.31869 15.1829C8.83578 16.1908 6.47349 17.5133 6.41788 15.6551C7.14746 16.412 7.82676 15.2986 8.31869 15.1829Z" stroke="black" stroke-width="0.337302" stroke-linecap="round" stroke-linejoin="round"/>
<path d="M7.50092 17.4185C7.77945 17.4185 8.00525 17.3287 8.00525 17.2178C8.00525 17.107 7.77945 17.0172 7.50092 17.0172C7.22238 17.0172 6.99658 17.107 6.99658 17.2178C6.99658 17.3287 7.22238 17.4185 7.50092 17.4185Z" stroke="black" stroke-width="0.337302" stroke-linecap="round" stroke-linejoin="round"/>
<path d="M17.4711 10.6246C17.761 10.6246 17.996 10.3567 17.996 10.0262C17.996 9.69576 17.761 9.42786 17.4711 9.42786C17.1812 9.42786 16.9462 9.69576 16.9462 10.0262C16.9462 10.3567 17.1812 10.6246 17.4711 10.6246Z" stroke="black" stroke-width="0.337302" stroke-linecap="round" stroke-linejoin="round"/>
<path d="M18.7812 12.447C19.3741 13.2619 19.3082 14.0769 18.9795 14.8914M16.6573 16.9308C16.5156 17.7865 15.9904 18.1933 15.2771 18.3791M13.1039 17.9147C13.2626 18.6439 13.7754 18.874 14.4837 18.8281M9.87567 17.0094C10.6878 16.3223 10.8337 17.746 11.8392 16.8599M7.64832 17.8125C7.76802 18.4206 8.11936 18.4264 8.476 18.4186" stroke="black" stroke-width="0.337302" stroke-linecap="round" stroke-linejoin="round"/>
<path d="M10.1544 11.419C10.3556 11.419 10.5188 10.9766 10.5188 10.431C10.5188 9.88538 10.3556 9.44305 10.1544 9.44305C9.95308 9.44305 9.78992 9.88538 9.78992 10.431C9.78992 10.9766 9.95308 11.419 10.1544 11.419Z" stroke="black" stroke-width="0.337302" stroke-linecap="round" stroke-linejoin="round"/>
<path d="M11.6182 11.3802C11.8654 10.6094 11.3986 10.5565 10.4569 10.9811M10.42 9.75503L11.4343 9.23121M12.0708 9.04468C12.1682 9.5793 12.0896 10.0053 11.4425 10.0812M9.55833 13.8681L9.58312 14.8759M10.5252 14.742L11.451 14.7734M11.6741 15.3637C9.88381 16.327 12.5379 16.9011 12.1862 15.671M9.57108 15.789C10.0892 16.4481 8.7317 17.2529 8.83937 16.1513M8.4342 16.7733C8.54931 16.7679 9.10712 17.1487 8.85389 17.4897C8.4891 17.9811 10.2376 17.406 10.0212 17.7572M12.8393 12.8919C12.8393 12.7975 12.8227 11.8686 12.8227 11.8686L14.4341 11.8841M14.7316 12.333L14.7649 13.5284M13.8806 13.4586V14.372H13.1864M16.9997 12.8289L18.0704 12.8366M17.4711 12.2895V13.2461M15.0044 11.5377H15.4839C15.7205 12.3573 16.1699 11.7502 16.1448 11.5377M15.7481 13.9861L15.7729 14.7579M16.426 14.4192L16.4419 16.1429M15.4177 15.7496L17.4715 15.7259M17.8143 13.7817L17.8062 14.4708M18.2358 14.5292H17.3061M15.3019 14.7579H16.4341" stroke="black" stroke-width="0.337302" stroke-linecap="round" stroke-linejoin="round"/>
<path d="M14.178 16.496C14.4527 16.496 14.6753 16.2695 14.6753 15.9901C14.6753 15.7106 14.4527 15.4841 14.178 15.4841C13.9034 15.4841 13.6808 15.7106 13.6808 15.9901C13.6808 16.2695 13.9034 16.496 14.178 16.496Z" stroke="black" stroke-width="0.337302" stroke-linecap="round" stroke-linejoin="round"/>
<path d="M14.1781 17.4425V18.2769M16.7812 11.2776C16.7975 12.0682 16.869 12.8902 15.5831 12.9304M17.6365 11.2776H18.3116M18.477 10.0262H19.0025M13.3447 10.944L14.2896 10.9774" stroke="black" stroke-width="0.337302" stroke-linecap="round" stroke-linejoin="round"/>
<defs>
<filter id="filter0_d_62_21" x="0.5" y="0.5" width="26" height="26" filterUnits="userSpaceOnUse" color-interpolation-filters="sRGB">
<feFlood flood-opacity="0" result="BackgroundImageFix"/>
<feColorMatrix in="SourceAlpha" type="matrix" values="0 0 0 0 0 0 0 0 0 0 0 0 0 0 0 0 0 0 127 0" result="hardAlpha"/>
<feOffset dx="2" dy="2"/>
<feComposite in2="hardAlpha" operator="out"/>
<feColorMatrix type="matrix" values="0 0 0 0 0 0 0 0 0 0 0 0 0 0 0 0 0 0 0.8 0"/>
<feBlend mode="normal" in2="BackgroundImageFix" result="effect1_dropShadow_62_21"/>
<feBlend mode="normal" in="SourceGraphic" in2="effect1_dropShadow_62_21" result="shape"/>
</filter>
</defs>
</svg>
