<svg xmlns="http://www.w3.org/2000/svg" width="90" height="90" viewBox="0 0 90 90" fill="none">
  <rect width="90" height="90" fill="black"/>
  <path d="M66.0966 32.8615C66.033 33.0454 65.9156 33.1794 65.7394 33.2714C65.5633 33.3633 65.3921 33.3791 65.2233 33.316C65.0545 33.253 64.9297 33.1269 64.8441 32.9377C64.7585 32.7486 64.7438 32.5594 64.8001 32.3781C64.8563 32.1942 64.9713 32.0576 65.1499 31.9631C65.3285 31.8685 65.4997 31.858 65.6734 31.921C65.8446 31.9841 65.9743 32.1128 66.0599 32.302C66.1455 32.4911 66.1578 32.6776 66.0966 32.8589V32.8615Z" fill="white"/>
  <path d="M63.3105 28.9472C63.2469 29.1311 63.1294 29.265 62.9533 29.357C62.7772 29.4489 62.6059 29.4647 62.4371 29.4016C62.2683 29.3386 62.1436 29.2125 62.058 29.0233C61.9723 28.8342 61.9577 28.645 62.0139 28.4638C62.0702 28.2799 62.1852 28.1433 62.3638 28.0487C62.5423 27.9541 62.7136 27.9436 62.8873 28.0067C63.0585 28.0697 63.1881 28.1984 63.2738 28.3876C63.3594 28.5767 63.3716 28.7633 63.3105 28.9445V28.9472Z" fill="white"/>
  <path d="M56.0497 25.3716C55.9861 25.5555 55.8687 25.6895 55.6926 25.7814C55.5164 25.8734 55.3452 25.8891 55.1764 25.8261C55.0076 25.763 54.8828 25.6369 54.7972 25.4478C54.7116 25.2586 54.6969 25.0695 54.7532 24.8882C54.8095 24.7043 54.9244 24.5677 55.103 24.4731C55.2816 24.3786 55.4528 24.368 55.6265 24.4311C55.7978 24.4941 55.9274 24.6229 56.013 24.812C56.0986 25.0012 56.1109 25.1877 56.0497 25.369V25.3716Z" fill="white"/>
  <path d="M41.5898 26.349C41.5262 26.5329 41.4087 26.6668 41.2326 26.7588C41.0565 26.8507 40.8852 26.8665 40.7164 26.8034C40.5476 26.7404 40.4229 26.6143 40.3373 26.4251C40.2516 26.236 40.237 26.0468 40.2932 25.8656C40.3495 25.6817 40.4645 25.5451 40.6431 25.4505C40.8216 25.3559 40.9929 25.3454 41.1666 25.4085C41.3378 25.4715 41.4674 25.6002 41.5531 25.7894C41.6387 25.9785 41.6509 26.1651 41.5898 26.3463V26.349Z" fill="white"/>
  <path d="M53.5595 24.9802C53.4959 25.1641 53.3785 25.2981 53.2023 25.3901C53.0262 25.482 52.855 25.4978 52.6862 25.4347C52.5174 25.3717 52.3926 25.2456 52.307 25.0564C52.2214 24.8673 52.2067 24.6781 52.263 24.4969C52.3192 24.313 52.4342 24.1763 52.6128 24.0818C52.7914 23.9872 52.9626 23.9767 53.1363 24.0397C53.3075 24.1028 53.4372 24.2315 53.5228 24.4207C53.6084 24.6098 53.6206 24.7963 53.5595 24.9776V24.9802Z" fill="white"/>
  <path d="M18.0878 57.8636C18.0242 58.0475 17.9068 58.1815 17.7307 58.2734C17.5545 58.3654 17.3833 58.3811 17.2145 58.3181C17.0457 58.255 16.9209 58.1289 16.8353 57.9398C16.7497 57.7506 16.735 57.5615 16.7913 57.3802C16.8475 57.1963 16.9625 57.0597 17.1411 56.9651C17.3197 56.8706 17.4909 56.8601 17.6646 56.9231C17.8358 56.9862 17.9655 57.1149 18.0511 57.304C18.1367 57.4932 18.149 57.6797 18.0878 57.861V57.8636Z" fill="white"/>
  <path d="M16.0382 48.6924C16.1018 48.5085 16.2192 48.3745 16.3954 48.2826C16.5715 48.1906 16.7428 48.1748 16.9115 48.2379C17.0803 48.3009 17.2051 48.427 17.2907 48.6162C17.3763 48.8053 17.391 48.9945 17.3348 49.1758C17.2785 49.3597 17.1635 49.4963 16.9849 49.5908C16.8064 49.6854 16.6351 49.6959 16.4614 49.6329C16.2902 49.5698 16.1605 49.4411 16.0749 49.2519C15.9893 49.0628 15.9771 48.8763 16.0382 48.695V48.6924Z" fill="white"/>
  <path d="M19.4747 61.0529C19.5383 60.869 19.6558 60.735 19.8319 60.6431C20.008 60.5511 20.1793 60.5354 20.3481 60.5984C20.5169 60.6615 20.6416 60.7876 20.7272 60.9767C20.8129 61.1659 20.8275 61.355 20.7713 61.5363C20.715 61.7202 20.6 61.8568 20.4215 61.9514C20.2429 62.046 20.0716 62.0565 19.898 61.9934C19.7267 61.9304 19.5971 61.8016 19.5114 61.6125C19.4258 61.4233 19.4136 61.2368 19.4747 61.0555V61.0529Z" fill="white"/>
  <path d="M26.7335 64.6257C26.7971 64.4418 26.9146 64.3079 27.0907 64.2159C27.2668 64.124 27.4381 64.1082 27.6069 64.1712C27.7757 64.2343 27.9004 64.3604 27.986 64.5495C28.0717 64.7387 28.0863 64.9278 28.0301 65.1091C27.9738 65.293 27.8588 65.4296 27.6802 65.5242C27.5017 65.6188 27.3304 65.6293 27.1567 65.5662C26.9855 65.5032 26.8558 65.3744 26.7702 65.1853C26.6846 64.9961 26.6724 64.8096 26.7335 64.6284V64.6257Z" fill="white"/>
  <path d="M41.1925 63.6511C41.2561 63.4672 41.3735 63.3332 41.5497 63.2412C41.7258 63.1493 41.897 63.1335 42.0658 63.1966C42.2346 63.2596 42.3594 63.3857 42.445 63.5749C42.5306 63.764 42.5453 63.9532 42.489 64.1344C42.4328 64.3183 42.3178 64.4549 42.1392 64.5495C41.9607 64.6441 41.7894 64.6546 41.6157 64.5916C41.4445 64.5285 41.3148 64.3998 41.2292 64.2106C41.1436 64.0215 41.1314 63.835 41.1925 63.6537V63.6511Z" fill="white"/>
  <path d="M29.2257 65.0198C29.2893 64.8359 29.4067 64.7019 29.5829 64.6099C29.759 64.518 29.9303 64.5022 30.099 64.5653C30.2678 64.6283 30.3926 64.7544 30.4782 64.9436C30.5638 65.1327 30.5785 65.3219 30.5223 65.5032C30.466 65.6871 30.351 65.8237 30.1724 65.9182C29.9939 66.0128 29.8226 66.0233 29.6489 65.9603C29.4777 65.8972 29.348 65.7685 29.2624 65.5793C29.1768 65.3902 29.1646 65.2037 29.2257 65.0224V65.0198Z" fill="white"/>
  <path d="M62.4494 47.991C62.513 47.8071 62.6304 47.6731 62.8065 47.5811C62.9826 47.4892 63.1539 47.4734 63.3227 47.5365C63.4915 47.5995 63.6162 47.7256 63.7019 47.9148C63.7875 48.1039 63.8021 48.2931 63.7459 48.4743C63.6896 48.6582 63.5746 48.7949 63.3961 48.8894C63.2175 48.984 63.0462 48.9945 62.8726 48.9315C62.7013 48.8684 62.5717 48.7397 62.486 48.5505C62.4004 48.3614 62.3882 48.1749 62.4494 47.9936V47.991Z" fill="white"/>
  <path d="M27.7764 35.8091H31.2061C31.7956 35.8091 32.3191 35.9431 32.779 36.2137C33.2389 36.4816 33.5961 36.852 33.848 37.3275C34.1024 37.8004 34.2297 38.3416 34.2297 38.9458C34.2297 39.5501 34.1024 40.0886 33.848 40.5641C33.5961 41.0396 33.2389 41.4101 32.779 41.6701C32.3191 41.9355 31.7932 42.0668 31.2061 42.0668H28.9017V46.2807H27.7764V35.8117V35.8091ZM32.5858 40.4328C32.9527 40.044 33.1362 39.5474 33.1362 38.9432C33.1362 38.339 32.9502 37.8425 32.5809 37.4536C32.2115 37.0648 31.7393 36.8704 31.1669 36.8704H28.8919L28.9041 41.0134H31.1816C31.7516 41.0134 32.2213 40.819 32.5882 40.4301L32.5858 40.4328Z" fill="white"/>
  <path d="M35.9418 45.9076C35.4917 45.6186 35.137 45.2193 34.885 44.707C34.6306 44.1921 34.501 43.6115 34.501 42.9574C34.501 42.3032 34.6306 41.7226 34.885 41.2103C35.137 40.6954 35.4917 40.2961 35.9418 40.0098C36.392 39.7208 36.9081 39.5763 37.4903 39.5763C38.3 39.5763 38.9043 39.7917 39.2981 40.2252C39.6895 40.656 39.9464 41.0501 40.0614 41.4048C40.2399 41.9039 40.3305 42.4503 40.3305 43.0441C40.3305 43.2175 40.3305 43.3304 40.3231 43.383C40.3158 43.4355 40.3158 43.467 40.3158 43.4749H35.6287C35.707 44.003 35.9223 44.4364 36.2696 44.7779C36.6195 45.1195 37.0255 45.2876 37.4903 45.2876C38.2829 45.2876 38.8774 44.9566 39.2712 44.2946L40.1543 44.7832C39.9758 45.2062 39.6577 45.5687 39.1978 45.8761C38.7379 46.1834 38.168 46.3358 37.4903 46.3358C36.9081 46.3358 36.3944 46.1913 35.9418 45.905V45.9076ZM39.2296 42.4398C39.0878 41.2314 38.508 40.6271 37.4903 40.6271C37.0158 40.6271 36.6072 40.7979 36.2623 41.1368C35.9198 41.4783 35.707 41.917 35.6287 42.453L39.2296 42.4398Z" fill="white"/>
  <path d="M41.5562 39.5763H42.6668V40.685C42.8723 40.3198 43.1683 40.0308 43.5572 39.8154C43.9462 39.6 44.3449 39.5002 44.7534 39.5212V40.6692C44.3865 40.6587 44.044 40.7559 43.7236 40.9582C43.4031 41.1605 43.1462 41.4311 42.953 41.77C42.7622 42.1115 42.6643 42.4793 42.6643 42.8707V46.2807H41.5537V39.579L41.5562 39.5763Z" fill="white"/>
  <path d="M47.0286 44.9934C47.3319 45.1905 47.6181 45.2877 47.8848 45.2877C48.2688 45.2877 48.5795 45.2062 48.8144 45.0434C49.0517 44.8805 49.1691 44.6545 49.1691 44.3682C49.1691 44.1974 49.1055 44.0529 48.9807 43.9373C48.8559 43.8218 48.7116 43.7298 48.5526 43.6562C48.3912 43.5853 48.1318 43.4829 47.7747 43.3462C47.3466 43.1834 46.9992 43.0362 46.7301 42.9075C46.461 42.7762 46.2238 42.5844 46.0207 42.3243C45.8152 42.0642 45.7125 41.7385 45.7125 41.347C45.7125 40.7901 45.9229 40.3461 46.3485 40.0098C46.7717 39.6736 47.3001 39.5054 47.9361 39.5054C48.2052 39.5054 48.4915 39.5632 48.7997 39.6762C49.1079 39.7918 49.3868 39.9731 49.6363 40.2226C49.8858 40.4696 50.0571 40.7822 50.1451 41.1579L49.1666 41.5178C49.0761 41.1631 48.9122 40.9162 48.6725 40.7769C48.4303 40.6377 48.1857 40.5694 47.9361 40.5694C47.6059 40.5694 47.3368 40.6403 47.1313 40.7769C46.9258 40.9162 46.8231 41.108 46.8231 41.347C46.8231 41.5204 46.8842 41.6623 47.0041 41.7779C47.124 41.8935 47.261 41.9854 47.4126 42.0511C47.5643 42.1194 47.8334 42.2192 48.2175 42.3532C48.648 42.5161 48.9954 42.6658 49.2669 42.7998C49.5385 42.9338 49.7757 43.1308 49.9763 43.3909C50.1769 43.651 50.2772 43.9767 50.2772 44.3682C50.2772 44.9619 50.0522 45.44 49.6021 45.8C49.1519 46.1599 48.5771 46.3385 47.8799 46.3385C47.3906 46.3385 46.9209 46.194 46.4733 45.9077C46.0256 45.6187 45.6807 45.222 45.4287 44.715L46.3265 44.1396C46.4855 44.5153 46.7179 44.799 47.0212 44.9961L47.0286 44.9934Z" fill="white"/>
  <path d="M51.5843 41.2182C51.8362 40.7007 52.1909 40.2961 52.6411 40.0019C53.0912 39.7103 53.6024 39.5632 54.1724 39.5632C54.7424 39.5632 55.2708 39.7103 55.7258 40.0019C56.1808 40.2935 56.5355 40.7007 56.7924 41.2182C57.0444 41.7358 57.174 42.3216 57.174 42.9705C57.174 43.6194 57.0444 44.2053 56.7924 44.7202C56.538 45.2324 56.1833 45.6344 55.7258 45.9286C55.2684 46.2229 54.7546 46.3673 54.1724 46.3673C53.5902 46.3673 53.0912 46.2229 52.6411 45.9286C52.1909 45.6344 51.8362 45.2324 51.5843 44.7202C51.3298 44.2079 51.2002 43.6247 51.2002 42.9705C51.2002 42.3164 51.3298 41.7358 51.5843 41.2182ZM55.5277 44.6545C55.8775 44.2236 56.0512 43.6614 56.0512 42.9705C56.0512 42.2796 55.8775 41.7174 55.5277 41.2813C55.1778 40.8452 54.7277 40.6271 54.1749 40.6271C53.622 40.6271 53.1743 40.8426 52.8294 41.2734C52.4845 41.7069 52.3133 42.2717 52.3133 42.9705C52.3133 43.6693 52.4845 44.2341 52.8294 44.6597C53.1743 45.088 53.6196 45.3007 54.1749 45.3007C54.7302 45.3007 55.1803 45.0853 55.5277 44.6519V44.6545Z" fill="white"/>
  <path d="M62.0541 41.1315C61.785 40.8058 61.4303 40.6429 60.9851 40.6429C60.5032 40.6429 60.0995 40.8189 59.7791 41.1683C59.4561 41.5203 59.2971 41.938 59.2971 42.4267V46.2806H58.1865V39.5789H59.2971V40.5562C59.51 40.2672 59.7791 40.0334 60.0995 39.8521C60.4224 39.6709 60.7331 39.5789 61.0364 39.5789C61.5012 39.5789 61.9269 39.6893 62.3085 39.9126C62.6926 40.1332 62.9984 40.4511 63.2259 40.8688C63.4534 41.2865 63.5683 41.7778 63.5683 42.3426V46.2833H62.4577V42.4293C62.4577 41.8934 62.3232 41.4599 62.0541 41.1342V41.1315Z" fill="white"/>
  <path d="M66.0238 45.9339C65.5786 45.6449 65.2288 45.2456 64.9744 44.7333C64.72 44.221 64.5928 43.6378 64.5928 42.9863C64.5928 42.3347 64.72 41.7489 64.9744 41.2314C65.2288 40.7138 65.5811 40.3119 66.0238 40.0229C66.4715 39.7339 66.9803 39.5921 67.5528 39.5921C67.9026 39.5921 68.2451 39.6893 68.59 39.8784C68.9349 40.0702 69.2358 40.3539 69.4951 40.727V39.5763H70.6057V46.278H69.4951V45.2009C69.2358 45.6029 68.9374 45.8971 68.5973 46.0836C68.2573 46.2701 67.9099 46.3621 67.5528 46.3621C66.9828 46.3621 66.4715 46.2202 66.0238 45.9312V45.9339ZM66.2342 44.6597C66.584 45.0984 67.0391 45.3139 67.5919 45.3139C67.9222 45.3139 68.2353 45.214 68.5288 45.0118C68.8224 44.8095 69.0597 44.531 69.2383 44.1763C69.4168 43.8217 69.5073 43.425 69.5073 42.9836C69.5073 42.5423 69.4168 42.1456 69.2383 41.7909C69.0597 41.4363 68.8224 41.1552 68.5288 40.9503C68.2353 40.7454 67.9222 40.6403 67.5919 40.6403C67.0391 40.6403 66.584 40.8557 66.2342 41.2865C65.882 41.7174 65.7034 42.2848 65.7034 42.9836C65.7034 43.6824 65.8795 44.2236 66.2342 44.6597Z" fill="white"/>
  <path d="M73.5071 36.127V46.2807H72.3965V36.127H73.5071Z" fill="white"/>
  <path d="M30.6317 43.8953C30.7614 43.7587 30.9228 43.693 31.121 43.693C31.3191 43.693 31.4781 43.7587 31.6054 43.8953C31.7326 44.0319 31.7937 44.2027 31.7937 44.4128C31.7937 44.623 31.7301 44.799 31.6054 44.9382C31.4781 45.0775 31.3191 45.1458 31.121 45.1458C30.9228 45.1458 30.7638 45.0775 30.6317 44.9382C30.5021 44.799 30.4385 44.6256 30.4385 44.4128C30.4385 44.2 30.5045 44.0293 30.6317 43.8953Z" fill="white"/>
  <path d="M53.7411 42.5476C53.8708 42.411 54.0322 42.3453 54.2304 42.3453C54.4285 42.3453 54.5875 42.411 54.7147 42.5476C54.8419 42.6842 54.9031 42.8549 54.9031 43.0651C54.9031 43.2753 54.8395 43.4513 54.7147 43.5905C54.5875 43.7298 54.4285 43.7981 54.2304 43.7981C54.0322 43.7981 53.8732 43.7298 53.7411 43.5905C53.6115 43.4513 53.5479 43.2779 53.5479 43.0651C53.5479 42.8523 53.6139 42.6815 53.7411 42.5476Z" fill="white"/>
  <path d="M67.1083 42.5476C67.2379 42.411 67.3994 42.3453 67.5975 42.3453C67.7957 42.3453 67.9547 42.411 68.0819 42.5476C68.2091 42.6842 68.2703 42.8549 68.2703 43.0651C68.2703 43.2753 68.2067 43.4513 68.0819 43.5905C67.9547 43.7298 67.7957 43.7981 67.5975 43.7981C67.3994 43.7981 67.2404 43.7298 67.1083 43.5905C66.9786 43.4513 66.915 43.2779 66.915 43.0651C66.915 42.8523 66.9811 42.6815 67.1083 42.5476Z" fill="white"/>
  <path d="M27.7764 47.962H30.8293C31.3455 47.962 31.8078 48.0854 32.2164 48.3298C32.6224 48.5741 32.9405 48.913 33.1655 49.3438C33.393 49.7747 33.508 50.2659 33.508 50.8124C33.508 51.1381 33.4322 51.4797 33.278 51.8396C33.1264 52.1995 32.9258 52.5147 32.6763 52.7827C32.7472 52.8221 32.8548 52.8904 32.9967 52.985C33.371 53.2424 33.6792 53.6076 33.9214 54.0779C34.1636 54.5481 34.2835 55.0236 34.2835 55.5017C34.2835 56.0666 34.1709 56.5736 33.941 57.0176C33.7135 57.4642 33.3955 57.811 32.9918 58.0605C32.5882 58.3101 32.1234 58.4336 31.6048 58.4336H27.7764V47.9646V47.962ZM31.0055 52.4937C31.4238 52.4727 31.7662 52.3098 32.0304 51.9972C32.2922 51.6846 32.4243 51.2905 32.4243 50.8097C32.4243 50.2843 32.2726 49.8535 31.9693 49.5225C31.666 49.1915 31.2794 49.0259 30.8049 49.0259H28.9017V52.4937H31.0055ZM31.5681 57.367C32.0402 57.367 32.4292 57.1962 32.7325 56.8494C33.0359 56.5053 33.1875 56.0587 33.1875 55.5123C33.1875 54.9264 33.0359 54.4535 32.7325 54.0884C32.4292 53.7232 32.0427 53.5419 31.5681 53.5419H28.9017V57.367H31.5681Z" fill="white"/>
  <path d="M35.4819 51.7319H36.5926V52.8379C36.798 52.4727 37.094 52.1837 37.483 51.9683C37.872 51.7529 38.2707 51.6531 38.6792 51.6741V52.8247C38.3123 52.8142 37.9698 52.9114 37.6493 53.1137C37.3289 53.316 37.072 53.5866 36.8788 53.9255C36.688 54.267 36.5901 54.6322 36.5901 55.0262V58.4336H35.4795V51.7319H35.4819Z" fill="white"/>
  <path d="M40.6606 58.0894C40.2153 57.8005 39.8655 57.4011 39.6111 56.8889C39.3567 56.3766 39.2295 55.7934 39.2295 55.1392C39.2295 54.4851 39.3567 53.9045 39.6111 53.3869C39.8655 52.8694 40.2178 52.4648 40.6606 52.1785C41.1082 51.8921 41.6171 51.7476 42.1895 51.7476C42.5393 51.7476 42.8818 51.8448 43.2267 52.0366C43.5716 52.2284 43.8725 52.5121 44.1318 52.8852V51.7345H45.2424V58.4362H44.1318V57.3591C43.8725 57.7611 43.5741 58.0553 43.2341 58.2418C42.894 58.4283 42.5466 58.5229 42.1895 58.5229C41.6195 58.5229 41.1082 58.3784 40.6606 58.0921V58.0894ZM40.8709 56.8153C41.2208 57.2514 41.6758 57.4694 42.2286 57.4694C42.5589 57.4694 42.872 57.3696 43.1656 57.1673C43.4591 56.965 43.6964 56.6892 43.875 56.3319C44.0536 55.9773 44.1441 55.5806 44.1441 55.1392C44.1441 54.6979 44.0536 54.3012 43.875 53.9465C43.6964 53.5919 43.4591 53.3134 43.1656 53.1058C42.872 52.8983 42.5589 52.7958 42.2286 52.7958C41.6758 52.7958 41.2208 53.0113 40.8709 53.4421C40.5187 53.873 40.3401 54.4404 40.3401 55.1392C40.3401 55.838 40.5162 56.3792 40.8709 56.8153Z" fill="white"/>
  <path d="M47.038 48.5978C47.1676 48.4612 47.3291 48.3955 47.5272 48.3955C47.7254 48.3955 47.8844 48.4612 48.0116 48.5978C48.1388 48.7344 48.2 48.9052 48.2 49.1153C48.2 49.3255 48.1364 49.5015 48.0116 49.6408C47.8844 49.78 47.7254 49.8483 47.5272 49.8483C47.3291 49.8483 47.1701 49.78 47.038 49.6408C46.9083 49.5015 46.8447 49.3281 46.8447 49.1153C46.8447 48.9025 46.9108 48.7318 47.038 48.5978ZM48.0752 51.7188V58.4336H46.9646V51.7188H48.0752Z" fill="white"/>
  <path d="M41.7587 54.6663C41.8883 54.5297 42.0498 54.4641 42.2479 54.4641C42.4461 54.4641 42.6051 54.5297 42.7323 54.6663C42.8595 54.8029 42.9207 54.9737 42.9207 55.1839C42.9207 55.394 42.8571 55.5701 42.7323 55.7093C42.6051 55.8485 42.4461 55.9168 42.2479 55.9168C42.0498 55.9168 41.8908 55.8485 41.7587 55.7093C41.629 55.5701 41.5654 55.3967 41.5654 55.1839C41.5654 54.9711 41.6315 54.8003 41.7587 54.6663Z" fill="white"/>
  <path d="M53.7094 53.2871C53.4403 52.9614 53.0856 52.7985 52.6403 52.7985C52.1584 52.7985 51.7548 52.9719 51.4343 53.3239C51.1114 53.6733 50.9524 54.0936 50.9524 54.5823V58.4362H49.8418V51.7345H50.9524V52.7118C51.1652 52.4228 51.4343 52.189 51.7548 52.0077C52.0777 51.8264 52.3884 51.7345 52.6917 51.7345C53.1565 51.7345 53.5822 51.8448 53.9638 52.0655C54.3454 52.2862 54.6536 52.6041 54.8811 53.0218C55.1086 53.4395 55.2236 53.9308 55.2236 54.4956V58.4362H54.113V54.5823C54.113 54.0463 53.9785 53.6155 53.7094 53.2897V53.2871Z" fill="white"/>
</svg>