<svg width="304" height="300" viewBox="0 0 304 300" fill="none" xmlns="http://www.w3.org/2000/svg">
<path d="M120.98 288.361L117.53 286.331C115.1 284.891 114.8 283.431 114.99 282.471C115.23 281.231 116.35 280.341 117.5 279.971C117.67 279.871 117.9 279.801 118.24 279.831L124.92 280.321L119.77 281.151C120.27 281.401 120.9 281.671 121.64 281.911C122.28 281.881 123.5 281.691 124.74 280.751C125.02 280.481 125.3 280.201 125.59 279.911L135.95 269.711L127.09 280.631C126.66 281.161 126.22 281.591 125.77 281.941C124.61 283.081 123.53 284.091 122.67 284.731L122.52 284.821C121.3 285.361 120.11 285.541 119.24 285.671C119.15 285.681 119.06 285.701 118.97 285.711L120.99 288.361H120.98ZM117.59 281.621C117.07 281.871 116.62 282.291 116.53 282.761C116.43 283.271 116.81 283.871 117.57 284.471C117.92 284.281 118.41 284.211 118.99 284.121C119.71 284.011 120.67 283.861 121.62 283.491C121.59 283.491 121.56 283.491 121.53 283.491H121.4L121.28 283.451C120.94 283.341 118.64 282.581 117.59 281.621Z" fill="currentColor"/>
<path d="M131.37 288.67L108.29 273.83C101.96 269.76 101.29 269.34 101.72 268.35C101.98 267.76 102.43 267.62 104.04 267.92C104.06 267.88 104.08 267.84 104.1 267.81C104.2 267.64 104.33 267.47 104.54 267.34C103.45 266.71 103.17 266.26 103.28 265.66C103.33 265.39 103.45 265.17 103.68 265C101.61 260.34 102.8 256.62 106.8 251.08C106.94 250.7 107.18 250.28 107.51 249.81C105.71 249.94 104.4 249.57 103.47 248.71C101.63 247 101.53 243.5 102.22 238.13C101.15 238.99 100.2 239.29 99.28 239.06C98.06 238.75 97.14 237.54 96.42 235.22C96.33 235.16 96.24 235.1 96.15 235.04C94.75 237.37 93.48 238.4 92.23 238.37C91.95 238.37 91.69 238.3 91.45 238.2C91.4 238.2 91.34 238.22 91.29 238.22C90.43 238.27 89.99 237.49 88.98 235.11C88.91 234.96 88.85 234.8 88.79 234.66L90.24 234.06C90.28 234.16 90.34 234.29 90.4 234.43C90.69 235.1 90.96 235.58 91.2 235.93C91.27 235.71 91.34 235.47 91.41 235.25C91.75 234.16 92.21 232.66 92.96 230.92L93.52 229.64L94.32 230.78C94.81 231.48 95.28 232.07 95.73 232.56C95.78 232.46 95.83 232.37 95.88 232.27L96.89 230.22L97.35 232.46C97.48 233.11 97.62 233.68 97.76 234.18C98.08 234.33 98.39 234.42 98.71 234.47C99.83 234.63 101.1 234.14 102.6 232.96L103.86 231.97V233.57C103.87 233.73 103.88 233.89 103.88 234.05L104.54 233.26L104.13 236.03C104.1 236.26 104.06 236.49 104.03 236.71C104.22 238.57 104.64 240.27 105.59 240.83C105.74 240.92 105.91 240.98 106.1 241.02C106.55 240.02 107.35 238.63 108.61 236.63C108.12 235.48 107.74 234.16 107.4 232.74C105.43 230.43 103.73 227.4 102.06 224.44L101.3 223.09C100.21 221.15 99.1 219.18 98.07 217.19C97.5 216.32 96.94 215.46 96.38 214.61C95.2 212.81 94.02 211.01 92.88 209.21L92.42 208.48L93.19 208.09C93.68 207.84 94.09 207.6 94.49 207.36C95.38 206.83 96.21 206.33 97.61 205.97C99.79 205.23 100.21 203.51 100.41 202.69C100.5 202.3 100.61 201.86 101.1 201.72L101.53 201.59L101.9 201.91C102.55 202.55 102.27 203.33 101.96 203.89C102.25 203.87 102.61 203.83 103.05 203.75L103.83 203.6L104.95 210.08L104.59 210.37C102.91 211.71 100.44 211 98.45 210.44C97.86 210.27 97.02 210.03 96.61 210.02C96.61 210.06 96.63 210.11 96.64 210.16C97.37 212.23 98.32 214.28 99.39 216.35C100.09 217.43 100.79 218.51 101.47 219.6C101.97 220.39 102.46 221.19 102.94 221.97C104.77 224.94 106.5 227.74 108.27 229.82L108.4 229.98L108.44 230.18C108.56 230.8 108.69 231.41 108.82 231.99C109.36 232.6 109.92 233.14 110.5 233.6L110.7 233.28L110.63 233.7C110.79 233.82 110.95 233.93 111.11 234.04L111.48 234.28L111.46 234.72C111.41 235.96 111.38 237.11 111.39 238.16C111.6 238.38 111.82 238.57 112.07 238.74L112.88 238.31C112.52 237.11 112.36 235.75 112.28 234.34C112 233.72 111.75 233.08 111.51 232.42C110.44 230.61 109.52 228.19 108.71 225.09C107.86 221.84 107.48 219.15 107.51 216.59C107.32 215.36 107.19 214.11 107.1 212.83C106.36 208.91 106.05 207.42 105.94 206.94C105.55 206.58 105.3 206.1 105.2 205.51C105.08 204.82 105.2 204.21 105.57 203.7L105.87 203.28L106.38 203.39C106.787 203.477 107.54 206.467 108.64 212.36V212.46C108.65 212.52 108.66 212.57 108.66 212.63C108.8 213.36 108.95 214.18 109.12 215.09L109.14 215.19V215.29C109.1 215.69 109.09 216.09 109.08 216.5C109.54 219.54 110.3 222.51 111.19 225.85C111.7 227.78 112.25 229.84 112.94 231.76C113.17 232.14 113.4 232.48 113.64 232.8L113.79 233V233.25C113.8 233.5 113.81 233.74 113.82 233.97C114.31 235.05 114.88 236.04 115.53 236.88L115.94 236.66L115.59 236.96C115.64 237.02 115.68 237.08 115.73 237.13L116.01 237.47L115.86 237.89C115.61 238.6 115.42 239.2 115.28 239.71C115.75 240.28 116.33 240.64 117.06 240.85L117.92 241.09L117.57 241.91C117.49 242.09 117.42 242.27 117.35 242.44C117.38 242.44 117.41 242.43 117.43 242.42L118.95 242.1L118.3 243.52C117.4 245.49 116.88 247.07 116.74 248.32L117.63 248.62L117.06 249.16C117.77 249.81 118.95 250.22 120.63 250.43L121.82 250.57L121.21 251.6C121.03 251.9 120.86 252.2 120.7 252.48C120.88 252.51 121.06 252.53 121.24 252.56L123.14 252.8L121.62 253.96C120.73 254.64 120.09 255.18 119.64 255.61L121.2 256.19L119.16 256.08C119.1 256.15 119.04 256.21 118.98 256.27C118.94 256.39 118.91 256.5 118.88 256.61L121.2 256.58L119.96 257.11C120.4 257.1 120.96 257.06 121.67 256.98C121.77 256.97 121.88 256.95 121.99 256.94L122.04 257.36C122.26 257.35 122.49 257.34 122.73 257.32L136.38 256.58L128.17 257.98L144.61 256.96L128.72 258.81L130.85 258.88L123.56 260.13L133.71 260.76L123.14 261.66C122.92 261.68 122.7 261.7 122.5 261.72V262.25L132.05 263.52L117.47 263.17C113.55 263.08 111.58 262.78 110.77 262.09C109.23 261.7 108.97 261.33 108.97 260.76C108.97 260.44 109.06 260.19 109.38 259.98C108.55 259.69 108.05 259.25 107.84 258.66C107.72 258.33 107.7 257.98 107.79 257.6C106.89 258.52 106.34 259.39 106.38 260.14C106.44 261.29 107.94 262.58 111.08 264.18L113.74 265.54L110.76 265.67C109.5 265.72 107.31 265.82 105.89 265.98C105.98 266.14 106.08 266.3 106.18 266.46C107.21 266.96 108.66 267.58 110.19 268.22C110.63 268.4 111.11 268.59 111.62 268.82L111 270.26C110.51 270.06 110.05 269.86 109.61 269.68C109.01 269.45 108.5 269.26 108.05 269.12L109.38 270.86L107.19 270.31C107.01 270.26 106.79 270.21 106.56 270.15C107.3 270.92 108.48 271.97 110.32 273.32L131.32 288.68L131.37 288.67ZM107.24 253.21C104.12 257.85 103.5 260.88 105.16 264.5C105.85 264.38 106.79 264.3 108.02 264.22C105.88 262.85 104.93 261.62 104.85 260.22C104.74 258.29 106.46 256.38 109.45 254.16C109.33 254.04 109.22 253.92 109.13 253.79C108.26 253.74 107.64 253.55 107.23 253.22L107.24 253.21ZM112.31 260.8C113.53 261.03 115.31 261.29 117.63 261.6L118.34 261.69C118.32 261.61 118.31 261.53 118.31 261.43C118.31 261.36 118.31 261.3 118.31 261.24C118.01 260.98 117.76 260.68 117.57 260.34C117.53 260.27 117.49 260.19 117.46 260.12L115.69 260.33C114.2 260.5 113.12 260.65 112.34 260.78C112.34 260.78 112.32 260.79 112.32 260.8H112.31ZM110.14 256.66C109.29 257.63 109.32 258.02 109.36 258.13C109.39 258.21 109.69 258.77 112.46 258.85C112.85 258.63 113.3 258.39 113.83 258.12C111.91 257.96 110.65 257.55 110.14 256.66ZM117.08 258.35C116.77 258.48 116.49 258.61 116.22 258.73L117.09 258.68C117.09 258.57 117.08 258.46 117.08 258.35ZM111.55 255.26C111.45 255.51 111.42 255.7 111.48 255.84C111.61 256.15 112.49 256.68 116.98 256.63C117.04 256.42 117.13 256.21 117.27 255.97L116.1 255.91C114.18 255.81 112.69 255.6 111.56 255.26H111.55ZM114.08 253.22C114.7 253.65 115.48 254.04 116.41 254.39L117.81 254.91C117.98 254.46 118.18 253.98 118.42 253.49C117.35 253.09 116.56 252.53 116.02 251.81L115.26 252.35C114.84 252.65 114.45 252.94 114.08 253.21V253.22ZM108.2 251.84C108.2 251.9 108.2 251.94 108.21 251.97C108.21 251.97 108.29 252.07 108.62 252.14C108.62 252.06 108.62 251.97 108.62 251.88C108.53 251.79 108.44 251.69 108.37 251.58C108.31 251.66 108.25 251.75 108.19 251.83L108.2 251.84ZM117.7 251.31C118.07 251.62 118.55 251.88 119.14 252.09C119.19 251.99 119.25 251.89 119.31 251.78C118.71 251.66 118.18 251.5 117.7 251.31ZM112.01 248.32C111.9 249.4 112 250.35 112.34 251.16C112.48 251.16 112.64 251.15 112.8 251.14C113.36 250.56 114 249.91 114.75 249.2C113.87 248.77 113.14 248.24 112.53 247.62C112.35 247.86 112.18 248.09 112.02 248.33L112.01 248.32ZM110.43 251.05C110.5 251.06 110.58 251.08 110.66 251.09C110.63 250.97 110.59 250.85 110.57 250.72C110.52 250.83 110.48 250.94 110.43 251.04V251.05ZM115.44 250.71C115.39 250.76 115.33 250.81 115.28 250.87L115.49 250.84C115.49 250.84 115.46 250.76 115.44 250.71ZM103.52 240.87C103.25 244.19 103.46 246.54 104.56 247.56C105.38 248.32 106.81 248.47 109.04 248.02C109.54 247.49 110.11 246.92 110.78 246.28C110.8 246.2 110.82 246.12 110.84 246.04C110.06 246.03 109.45 245.82 108.97 245.41C108.41 244.94 108.09 244.25 107.96 243.32C107.01 243.89 106.44 243.91 105.98 243.52C105.71 243.29 105.56 242.99 105.61 242.5C105.31 242.42 105.04 242.31 104.78 242.15C104.28 241.85 103.87 241.43 103.53 240.86L103.52 240.87ZM113.49 246.38C113.83 246.75 114.22 247.08 114.66 247.37C114.6 246.56 114.71 245.63 114.99 244.56L114.54 245.1C114.19 245.52 113.83 245.95 113.49 246.38ZM109.44 242.26C109.45 243.19 109.6 243.9 109.97 244.22C110.13 244.36 110.36 244.44 110.65 244.47C110.36 243.63 110.17 242.73 110.04 241.77C109.83 241.95 109.63 242.11 109.44 242.27V242.26ZM113.6 242.71C113.42 243.17 113.25 243.62 113.09 244.05C113.28 243.99 113.47 243.93 113.67 243.86L114.28 243.64C114.18 243.56 114.08 243.47 113.99 243.37C113.82 243.17 113.69 242.95 113.6 242.71ZM111.48 240.53C111.55 241.41 111.66 242.21 111.83 242.93C112.09 242.24 112.38 241.52 112.7 240.77C112.34 240.66 112 240.52 111.68 240.35L111.48 240.52V240.53ZM114.98 241.56C114.98 241.98 115.06 242.21 115.17 242.34C115.24 242.42 115.37 242.51 115.62 242.56C115.68 242.4 115.75 242.23 115.82 242.06C115.51 241.92 115.23 241.75 114.98 241.56ZM109.78 238.7C109.71 239.16 109.64 239.62 109.59 240.06C109.64 240.03 109.7 240 109.76 239.97L109.87 239.91C109.85 239.53 109.84 239.15 109.83 238.76C109.81 238.74 109.8 238.72 109.78 238.7ZM113 239.21C113.08 239.24 113.16 239.26 113.24 239.29C113.21 239.22 113.18 239.15 113.15 239.08L113 239.21ZM98.39 235.99C98.9 237.13 99.37 237.46 99.67 237.53C100.28 237.68 101.23 237.08 102.36 235.81C102.34 235.56 102.33 235.3 102.32 235.03C100.95 235.86 99.69 236.18 98.47 236C98.44 236 98.41 236 98.38 235.99H98.39ZM93.89 232.79C93.46 233.92 93.15 234.91 92.91 235.69C92.79 236.09 92.68 236.44 92.57 236.75C93.04 236.59 93.81 235.96 94.95 233.99C94.6 233.64 94.25 233.24 93.89 232.79ZM109.6 234.87C109.6 234.87 109.62 234.93 109.63 234.96L109.66 234.91C109.66 234.91 109.62 234.88 109.6 234.86V234.87ZM94.64 209.06C94.77 209.27 94.91 209.48 95.04 209.69C95.07 209.34 95.2 209.05 95.43 208.84C96.15 208.15 97.35 208.49 98.87 208.92C100.33 209.33 102.11 209.84 103.23 209.35L102.54 205.39C101.9 205.47 101.36 205.47 100.91 205.39C100.34 206.19 99.45 206.98 98.03 207.46C96.8 207.78 96.09 208.2 95.27 208.69C95.07 208.81 94.85 208.94 94.63 209.06H94.64Z" fill="currentColor"/>
<path d="M115.85 246.231C115.66 246.231 115.55 246.101 115.4 245.901C115.12 245.901 114.87 245.801 114.67 245.601C114.12 245.061 114.25 244.261 115.3 242.521C114.83 242.701 114.42 242.701 114.06 242.451C113.63 242.161 113.47 241.691 113.58 240.821C112.77 239.551 112.55 237.501 112.56 234.641C111.79 232.831 111.2 230.731 110.63 228.631C110.3 227.721 109.98 226.801 109.68 225.931C108.73 223.211 107.66 220.131 107.69 216.991C107.76 215.191 107.14 211.771 106.59 208.761C106.14 206.341 105.72 204.031 105.33 201.941C105.03 199.921 104.76 198.031 105.38 196.721C105.49 196.401 105.64 196.111 105.83 195.841C106.08 194.971 106.76 194.351 107.36 193.791C107.5 193.661 107.65 193.521 107.78 193.391C108.04 192.921 108.28 192.441 108.52 191.951L110.01 188.981V192.301C110.01 193.151 109.57 193.791 109.05 194.341C108.48 195.361 107.8 196.381 106.83 197.341C106.48 198.491 106.74 200.351 106.99 202.161L109.47 215.601C109.73 219.551 110.83 223.491 111.89 227.291L111.92 227.381C111.99 227.641 112.06 227.911 112.13 228.171C112.79 230.021 113.47 231.841 114.08 233.231L114.15 233.391V233.561C114.15 233.821 114.14 234.071 114.14 234.331C114.64 235.451 115.2 236.411 115.88 237.121L116.22 237.471L116.06 237.931C115.99 238.111 115.93 238.291 115.88 238.451C116.09 238.111 116.33 237.731 116.6 237.321C116.81 235.671 118.25 232.541 119.78 229.231L119.88 229.001C120.92 226.741 121.96 224.471 122.88 222.461C124.79 218.291 127.17 216.691 127.27 216.621L143.2 206.101L128.19 217.891C128.19 217.891 126.23 219.491 124.69 223.331C123.88 225.411 122.98 227.761 122.07 230.111C120.82 233.351 119.41 237.031 119.46 238.651V238.871L119.36 239.061C119.09 239.531 118.87 239.931 118.67 240.291L118.65 240.321C118.29 240.991 118.05 241.471 117.9 241.831C117.97 241.791 118.04 241.741 118.11 241.691L126.27 236.071L122.12 240.021L139.42 228.141L130.14 235.361L134.44 232.671L119.18 244.061C117.88 245.031 117.09 245.621 116.58 245.941C116.58 245.941 116.58 245.941 116.57 245.951C116.23 246.161 116.02 246.241 115.87 246.241L115.85 246.231ZM116.51 240.381L116.71 240.601C117 240.011 117.38 239.311 117.86 238.461C117.86 238.371 117.86 238.271 117.87 238.171C117.24 239.161 116.8 239.871 116.51 240.381ZM114.25 237.641C114.27 237.791 114.29 237.941 114.31 238.091C114.34 238.001 114.37 237.921 114.4 237.831C114.35 237.771 114.3 237.711 114.25 237.651V237.641ZM110 233.301L108.59 232.421L106.55 232.921C103.19 233.741 101.16 231.011 99.0599 227.581L98.4899 227.171C97.0299 226.121 95.2199 224.821 93.3299 223.561L92.4799 223.021C90.4999 221.781 88.4599 220.491 86.6899 218.721L85.9199 217.951L86.8899 217.461C90.4399 215.691 93.4999 216.771 95.6099 217.911C95.4799 217.791 95.3499 217.671 95.2299 217.551C93.2299 215.641 91.0099 213.321 89.6799 210.671C88.9999 209.091 88.9499 207.861 89.4999 206.851C90.4699 205.091 92.9699 204.681 95.3899 204.291C96.2099 204.161 96.9899 204.031 97.6699 203.861C97.3499 201.361 96.9799 198.561 96.5899 196.111C95.9699 192.221 96.2799 189.311 97.3599 188.701C97.6999 188.511 98.1199 188.541 98.4099 188.791L98.4899 188.861C99.9399 190.481 101.68 190.671 103.67 190.701C104 190.561 104.39 190.561 104.85 190.791L107.82 192.281H104.5C104.38 192.281 104.25 192.281 104.13 192.281C104.01 192.431 103.86 192.701 103.77 192.861C103.45 193.431 103.04 194.151 102.27 194.131C101.9 194.131 101.59 193.951 101.32 193.681C101.06 194.671 100.81 196.561 101.18 199.551C101.48 201.951 101.92 205.591 99.3699 206.891L99.2299 206.961H99.0799C96.7299 207.171 95.0799 207.901 95.0799 208.741C95.0799 213.161 98.0799 216.521 101.25 220.081C102.82 221.841 104.41 223.621 105.78 225.391L106.89 226.501L106.45 226.281C107.66 227.931 108.64 229.561 109.22 231.151L109.99 233.271L110 233.301ZM94.7299 220.941C96.4599 222.781 98.5299 224.211 100.41 225.401L100.6 225.561C102.86 228.311 104.88 230.651 106.69 231.451L107.87 231.971C106.29 230.921 104.94 229.301 103.52 227.591C102.75 226.661 101.96 225.711 101.12 224.841C99.0899 222.881 96.9899 221.591 94.7399 220.941H94.7299ZM103.02 224.591C103.6 225.241 104.15 225.901 104.68 226.541C104.2 225.921 103.69 225.291 103.16 224.661L103.01 224.591H103.02ZM88.6799 218.441C90.1199 219.691 91.7299 220.701 93.2999 221.691C92.8799 221.221 92.4799 220.731 92.1099 220.211L91.0899 218.781L92.8399 218.971C93.5799 219.051 94.3199 219.201 95.0399 219.401C92.6899 218.101 90.6799 217.791 88.6899 218.441H88.6799ZM99.2599 205.031L98.7999 205.191C97.8899 205.511 96.7999 205.681 95.6599 205.871C93.7099 206.191 91.4999 206.541 90.8999 207.631C90.5999 208.171 90.6799 208.981 91.1299 210.031C92.2699 212.311 94.2399 214.401 96.0599 216.171C94.5799 213.961 93.5399 211.561 93.5399 208.771C93.5399 207.001 95.4999 205.761 98.8099 205.451C98.9899 205.341 99.1499 205.191 99.2699 205.021L99.2599 205.031ZM98.0299 190.621C97.8499 191.441 97.6999 193.101 98.1499 195.891C98.5799 198.581 98.9799 201.681 99.3199 204.351L99.3799 204.851C100.04 203.741 99.8799 201.761 99.6399 199.771C99.1499 195.771 99.6499 192.911 100.44 191.901C99.6099 191.651 98.7899 191.261 98.0299 190.621ZM102.17 192.231C102.2 192.281 102.23 192.331 102.26 192.371C102.29 192.331 102.31 192.281 102.33 192.241C102.28 192.241 102.22 192.241 102.16 192.231H102.17Z" fill="currentColor"/>
<path d="M113.71 232.591C113.11 232.591 112.93 232.101 112.86 231.731C111.17 229.811 110.01 227.401 109.21 224.171C108.53 221.401 108.25 218.641 108.09 216.241C108.05 215.921 108.01 215.581 107.95 215.231C107.7 213.901 107.44 212.471 107.19 211.031L105.77 203.321C105.42 200.731 105.07 198.091 106.18 196.211L106.24 196.121C106.44 195.871 106.65 195.611 106.87 195.351C108.33 193.591 109.99 191.591 110.01 188.941C110.04 187.911 109.96 187.141 109.87 186.671C109.46 186.691 109.06 186.561 108.79 186.241C108.43 185.831 108.26 185.081 109.44 183.901L110.21 183.131L110.7 184.101C113.68 190.051 109.63 195.341 107.63 197.431C106.88 199.191 107.24 201.811 107.59 204.341C108.11 207.141 108.63 209.951 109.13 212.611C109.3 213.501 109.43 214.321 109.53 215.061C109.56 215.241 109.6 215.421 109.63 215.591C109.63 215.731 109.65 215.861 109.66 216.001C109.77 216.891 109.85 217.651 109.91 218.291C109.94 218.621 109.97 218.931 110 219.211C110.6 220.581 110.85 221.971 111.1 223.321C111.17 223.731 111.25 224.131 111.33 224.531C111.68 226.211 112.16 227.521 113.37 228.421L113.54 228.551L113.62 228.751C113.96 229.551 114.27 230.311 114.41 230.461L114.66 230.731V231.141C114.58 231.821 114.49 232.591 113.72 232.591H113.71ZM73.53 219.581C72.09 219.581 70.68 219.161 69.67 218.361C68.59 217.491 68.13 216.251 68.42 214.951C68.47 206.501 75.18 204.091 81.67 201.761C85.11 200.531 88.66 199.251 91.07 197.081C91.12 196.051 91.15 195.011 91.19 193.961C91.22 193.221 91.24 192.471 91.27 191.721C91.27 188.051 91.45 185.241 92.4 183.571L92.46 183.481C93.85 181.661 93.73 179.471 93.6 177.161C93.56 176.491 93.53 175.811 93.52 175.131L92.94 172.621C90.77 163.361 88.9 155.361 89.92 145.591C90.69 140.731 91.14 138.281 91.15 138.261L95.96 112.301L92.7 138.501C92.7 138.501 92.37 141.161 92.02 145.451C91.36 154.481 94.56 162.051 97.95 170.061C98.81 172.101 99.71 174.211 100.52 176.341C103.1 181.491 100.4 186.521 96.99 189.511C96.01 190.671 95.76 193.041 95.63 195.441C95.44 196.701 95.29 197.921 95.15 199.141L94.91 201.071L94.46 201.231C92.42 201.971 90.29 202.501 88.02 203.061C81.78 204.611 75.33 206.211 71.43 212.341C70.9 213.401 71.07 214.741 71.92 215.861C72.69 216.871 74.19 217.801 76.1 217.431L81.84 216.281L76.6 218.901C75.66 219.371 74.58 219.601 73.51 219.601L73.53 219.581ZM69.93 215.451C69.84 216.101 70.08 216.671 70.66 217.141C70.88 217.321 71.14 217.471 71.42 217.591C71.16 217.351 70.91 217.091 70.69 216.801C70.37 216.381 70.11 215.921 69.93 215.451ZM75.36 206.131C73.72 207.071 72.34 208.221 71.39 209.731C72.59 208.261 73.93 207.091 75.36 206.131ZM93.74 184.391C92.94 185.851 92.83 188.791 92.84 191.751C92.81 192.531 92.79 193.271 92.76 194.011C92.72 195.171 92.68 196.331 92.63 197.471V197.781L92.39 198.001C90.43 199.881 87.82 201.121 85.1 202.171C85.95 201.951 86.81 201.731 87.66 201.521C89.71 201.011 91.66 200.531 93.49 199.901L93.61 198.941C93.76 197.711 93.91 196.481 94.09 195.271C94.21 192.831 94.47 190.011 95.86 188.431L95.93 188.361C98.91 185.761 101.31 181.411 99.1 176.971C98.26 174.801 97.37 172.701 96.51 170.671C94.62 166.201 92.69 161.641 91.51 156.801C92.04 161.911 93.2 166.871 94.46 172.271L95.09 175.051C95.09 175.731 95.13 176.411 95.17 177.081C95.31 179.561 95.45 182.121 93.75 184.391H93.74Z" fill="currentColor"/>
<path d="M203.239 238.77L205.389 232.99C206.109 231.06 206.489 229.8 206.539 229.23C205.679 229.5 203.509 230.91 201.229 232.39C200.559 232.83 199.829 233.3 199.039 233.8L198.189 232.48C208.899 225.46 213.749 222.41 218.389 222.41C218.449 222.41 218.509 222.41 218.569 222.41C220.819 216.87 223.189 212.9 227.389 206.75C227.509 205.23 228.259 203.17 229.569 200.39C228.839 199.62 228.499 198.32 228.359 196.5C227.599 194.98 227.809 192.06 228.449 187.47L230.449 173.16L229.959 189.13C229.879 191.73 229.799 194.15 229.899 196.01C229.929 196.04 229.959 196.06 229.989 196.08C230.249 196.24 230.989 196.08 232.289 195.18L234.899 193.38L233.429 196.19C232.829 197.33 232.239 198.48 231.699 199.58C231.989 199.54 232.339 199.44 232.739 199.27L235.239 198.22L233.679 200.44C231.859 203.04 230.289 205.28 228.919 207.28C228.929 207.59 228.999 207.84 229.119 208.03C229.439 208.52 230.339 208.73 231.789 208.66L234.349 208.53L232.309 210.07C225.389 215.29 222.489 218.17 219.899 223.31C219.869 223.38 219.849 223.44 219.819 223.51L219.609 224.04H219.539C218.959 225.24 218.399 226.56 217.789 228.06L217.299 229.29L216.459 228.26C215.239 226.77 214.419 226.63 213.929 226.65C212.319 226.71 210.179 228.82 206.779 233.71L203.249 238.77H203.239ZM207.859 228.15C208.059 228.43 208.129 228.79 208.099 229.29C209.109 228.05 209.999 227.11 210.829 226.44C209.919 226.93 208.939 227.5 207.869 228.15H207.859ZM213.989 225.08C214.969 225.08 215.879 225.48 216.789 226.33C217.129 225.5 217.469 224.72 217.809 223.99C216.509 224.07 215.149 224.43 213.569 225.1C213.659 225.09 213.759 225.08 213.849 225.08C213.889 225.08 213.939 225.08 213.989 225.08ZM227.809 208.9C226.299 211.15 225.039 213.11 223.939 215C225.469 213.48 227.319 211.92 229.679 210.09C228.939 209.92 228.249 209.57 227.809 208.9ZM230.939 201.13C230.719 201.6 230.509 202.07 230.309 202.52C230.619 202.08 230.929 201.63 231.259 201.17C231.149 201.17 231.049 201.15 230.949 201.14L230.939 201.13ZM230.069 197.7C230.139 198.11 230.229 198.46 230.349 198.75C230.529 198.38 230.719 198 230.919 197.61C230.629 197.68 230.349 197.71 230.069 197.7Z" fill="currentColor"/>
<path d="M136.87 243.971L147.1 239.601C147.1 239.601 148.77 238.891 151.26 237.801C152.51 237.271 154.01 236.661 155.66 235.991C157.56 235.221 159.66 234.371 161.8 233.471L161.94 233.421C168.37 232.071 173.45 228.471 176.62 222.991C177.7 221.161 178.54 219.151 179.23 217.421L179.59 216.531L180.39 217.061C181 217.461 181.64 217.781 182.21 218.061C182.94 218.431 183.52 218.711 183.88 219.091C184.48 219.151 185.01 219.211 185.47 219.291C184.65 217.181 182.32 215.421 179.89 213.581L179.57 213.321C176.44 210.711 173.2 208.011 170.4 204.501C169.16 203.551 167.98 202.811 166.79 202.221C162.58 200.441 157.92 199.141 153.42 197.891C152.44 197.621 151.45 197.341 150.48 197.061C148.72 196.551 146.85 195.991 145.12 195.291L144.73 195.131L144.65 194.721C144.23 192.631 144.59 190.411 144.93 188.261C145.09 187.271 145.24 186.291 145.33 185.341L144.5 187.001V176.441L145.99 179.411C146.02 179.471 146.05 179.521 146.07 179.581C146.1 179.521 146.12 179.471 146.15 179.411L147.2 177.311C147.09 176.881 146.98 176.451 146.88 176.031L148.4 175.621C148.61 176.361 148.79 177.091 148.96 177.831C149.57 180.151 150.25 182.431 151.2 184.331L151.27 184.551C151.81 187.831 153.55 189.871 156.59 190.791L159.06 191.531C160.01 191.821 160.97 192.101 161.94 192.401C162.27 192.461 162.59 192.511 162.92 192.571C164.38 192.821 165.84 193.081 167.29 193.361L167.44 193.401C168.56 193.851 169.72 194.941 171.11 196.841C173.33 200.731 176.25 204.051 179.83 206.781C181.11 207.761 182.47 208.651 183.68 209.441C185.72 210.781 186.93 211.601 187.44 212.351C187.59 212.431 187.74 212.511 187.87 212.591L188.18 212.661C194.59 214.101 197.02 214.681 197.86 215.351C200.44 215.771 202.21 216.151 203.38 216.611C205.13 216.891 206.04 217.351 206.25 218.221C206.25 218.241 206.26 218.261 206.26 218.281C209.16 217.781 209.6 217.901 209.81 218.631C210 219.271 209.93 219.581 207.36 220.701C207.52 221.371 206.83 221.811 199.08 224.681L191.41 227.521L195.62 224.961L183.33 229.051C183.66 229.541 183.95 230.161 184.18 230.751C184.53 231.641 184.05 231.971 183.82 232.061C182.65 232.751 181.14 233.071 179.51 232.941C179.12 232.951 176.58 233.471 171.15 234.871C169.02 235.401 166.96 235.971 164.96 236.531C161.99 237.361 158.91 238.221 155.57 238.931C151.01 240.141 147.6 241.061 147.6 241.061L136.85 243.961L136.87 243.971ZM162.35 234.951C160.76 235.621 159.2 236.261 157.73 236.851C160.11 236.281 162.35 235.651 164.55 235.041C166.56 234.481 168.63 233.901 170.78 233.371C173.75 232.611 178.9 231.341 179.63 231.401C180.68 231.491 181.69 231.331 182.55 230.971C182.39 230.661 182.17 230.271 181.99 229.971C181.39 230.211 180.84 230.261 180.33 230.111C180.31 230.111 180.29 230.101 180.27 230.091L175.2 231.781L179.9 229.931C179.17 229.521 178.69 228.721 178.31 227.961L178.27 227.861C177.8 226.451 177.75 224.971 178.1 223.631C178.06 223.691 178.03 223.751 177.99 223.811C174.61 229.651 169.2 233.511 162.35 234.961V234.951ZM183.11 230.691C183.11 230.691 183.04 230.721 183.01 230.751C183.04 230.731 183.08 230.711 183.11 230.691ZM182.2 228.201C182.49 228.201 182.77 228.391 183.03 228.681L201.24 221.491C201.75 221.151 202.2 220.851 202.57 220.581L202.28 220.641L203.59 218.991C203.77 218.771 203.77 218.671 203.77 218.671C203.72 218.501 203.49 218.341 203.12 218.181C201.5 217.941 198.94 217.801 196.43 217.671L189.05 217.281C189.39 217.731 189.64 218.221 189.79 218.761C190.06 219.761 189.95 220.821 189.44 221.961C190.37 221.791 190.57 221.921 190.79 222.141L191.11 222.471L190.98 222.931C190.88 223.281 190.75 223.711 186.8 224.581L184.25 225.141L186.06 223.271C186.06 223.271 186.13 223.201 186.16 223.161L185.28 223.801L185.56 222.451C185.05 222.291 184.25 222.121 183.04 222.031L182.8 222.011L182.61 221.861C182.24 221.571 181.13 221.531 180.63 222.011C179.49 223.321 179.12 225.411 179.73 227.311C179.99 227.821 180.37 228.491 180.77 228.611C181.01 228.681 181.36 228.581 181.82 228.311L181.96 228.251C182.04 228.221 182.12 228.211 182.19 228.211L182.2 228.201ZM187.66 221.961C187.66 221.961 187.66 221.971 187.67 221.981C187.69 221.951 187.71 221.921 187.72 221.891C187.7 221.921 187.68 221.941 187.66 221.971V221.961ZM187.27 219.801C187.68 220.011 187.93 220.291 188.03 220.661C188.08 220.851 188.08 221.041 188.05 221.211C188.37 220.451 188.44 219.771 188.27 219.161C188 218.171 187.1 217.261 185.43 216.301C186.35 217.361 187.02 218.511 187.27 219.801ZM180.36 218.871C180.07 219.581 179.76 220.291 179.44 221.001C179.46 220.971 179.49 220.951 179.51 220.921C180.38 220.081 181.76 219.911 182.78 220.211L182.76 220.161C182.66 220.041 182 219.711 181.53 219.471C181.17 219.291 180.77 219.091 180.37 218.861L180.36 218.871ZM184.51 214.061C186.13 214.811 187.91 215.801 188.97 217.161L193.85 216.351C192.42 216.151 190.92 215.951 189.41 215.751L187.29 215.471L188.13 214.631C187.94 214.481 187.65 214.291 187.3 214.091L186.17 213.841V213.471C185.75 213.251 185.32 213.031 184.91 212.821C183.77 212.231 182.52 211.591 181.26 210.861C182.7 211.891 183.92 212.921 184.51 214.071V214.061ZM148.29 193.551C150.65 194.381 153.11 195.141 155.69 195.941C158.78 196.891 161.97 197.881 165.05 199.021C167.26 199.841 169.18 200.651 170.92 201.501L171.13 201.601L171.25 201.801C172.67 204.191 174.58 206.001 176.37 207.401C173.24 204.711 170.74 201.481 168.9 197.731C167.82 196.531 166.82 195.751 165.67 195.211C164.35 194.781 162.97 194.351 161.58 193.931C161.01 193.831 160.44 193.731 159.87 193.631C157.76 193.251 155.28 192.761 152.8 192.061L152.57 191.991L152.42 191.811C149.56 188.431 148.78 184.631 147.95 180.601C147.85 180.121 147.75 179.631 147.65 179.151V179.761C147.65 181.631 147.91 183.411 148.16 185.131C148.53 187.671 148.92 190.301 148.45 193.191L148.41 193.441L148.29 193.561V193.551ZM146.77 186.551C146.69 187.201 146.58 187.851 146.48 188.501C146.2 190.281 145.93 191.971 146.07 193.541L146.94 192.681C147.25 190.551 147.06 188.571 146.78 186.551H146.77Z" fill="currentColor"/>
<path d="M173.04 220.031H172.99C168.17 219.711 166.46 216.031 166.46 212.691C166.46 210.681 167.04 208.901 168.19 207.411C169.14 206.171 170.21 205.561 171.49 205.611C170.47 204.491 169.47 203.661 168.49 203.121C167.03 202.611 165.73 202.501 164.89 202.501L164.68 202.471C162.6 201.901 160.48 201.421 158.43 200.951C156.26 200.451 154.02 199.941 151.84 199.331C149.21 198.601 147.29 197.891 145.61 197.041L145.31 196.891L145.21 196.561C144.32 193.531 143.75 190.341 143.2 187.261C141.87 179.831 140.49 172.151 134.54 166.191L133.87 165.521L134.66 164.991C134.66 164.991 136.41 163.761 135.96 162.861L136.66 162.511V161.841L137.04 162.321L137.36 162.161C138.09 163.621 138.81 164.331 139.57 165.091L140.91 166.431H140.06C144.41 173.391 146.85 183.171 146.85 193.881C146.85 194.701 148.36 195.421 149.79 195.701L149.95 195.751C152.14 196.691 154.48 197.481 156.9 198.091C159.26 198.691 161.71 199.121 164.19 199.381H164.22C166.47 199.381 169.07 199.881 172.38 203.401C173.49 204.511 174.51 205.711 175.5 206.881C175.98 207.441 176.45 208.001 176.93 208.551C178.61 210.461 180.1 211.861 181.46 212.831L182.1 213.291L186.86 213.511C186.81 213.471 186.75 213.421 186.69 213.381C186.02 213.161 185.32 212.931 184.59 212.681L184.42 212.621L184.29 212.491C183.62 211.831 182.49 210.921 181.19 209.871C179.63 208.621 177.87 207.201 176.16 205.631C173.28 203.001 170.44 199.861 167.49 196.041C165.92 195.451 164.2 194.881 162.1 194.271C160.21 193.721 158.31 193.151 156.39 192.571C154.66 192.041 152.5 191.381 150.74 190.291L150.38 190.071V189.651C150.32 188.211 150.18 186.771 149.95 185.331C147.43 175.571 143.05 167.531 136.94 161.441C136.43 160.941 135.91 160.441 135.38 159.961L136.43 158.801C136.99 159.301 137.53 159.821 138.07 160.351C145.34 167.531 150.07 176.261 151.5 185.051C151.57 185.341 151.65 185.631 151.72 185.921C152.07 188.171 152.97 189.561 154.48 190.261C156.1 190.801 157.96 191.361 160.44 192.061C161.51 192.361 162.58 192.651 163.65 192.941C165.05 193.321 166.46 193.711 167.85 194.101L168.09 194.171L168.25 194.371C170.74 197.511 173.07 200.151 175.36 202.431C177.45 204.511 179.92 206.731 182.93 209.201L183.81 209.721C183.89 209.771 183.98 209.821 184.06 209.871C183.65 209.501 183.23 209.131 182.82 208.751C182.29 208.281 181.75 207.791 181.21 207.301C177.94 204.001 175.14 200.421 172.86 196.661C170.54 192.831 168.69 188.681 167.37 184.321C166.49 183.511 165.61 182.721 164.75 181.961C163.73 181.151 162.83 180.361 162.04 179.571L143.23 160.751L163.11 178.431C163.64 178.901 164.18 179.371 164.72 179.851C165.06 180.151 165.41 180.451 165.76 180.761C166.13 181.051 166.51 181.341 166.91 181.641L167.1 181.801C168.44 182.971 169.96 184.291 171.31 188.601C172.49 192.861 174.52 196.741 177.34 200.171C179.27 202.511 181.53 204.601 183.34 206.271C184.05 206.931 184.7 207.521 185.24 208.051L186.11 208.481C191.09 210.941 193.11 211.991 192.95 213.391C192.95 213.411 192.95 213.441 192.95 213.461C198.36 213.931 198.36 214.001 198.31 214.771C198.26 215.541 198.26 215.611 193.36 215.391C193.01 215.521 192.44 215.431 191.64 215.301L188.93 214.871C188.81 215.071 188.63 215.271 188.34 215.461L185.85 217.061L186.26 216.281L180.8 214.221C180.13 213.971 179.45 213.641 178.78 213.271L177.64 213.091L178.53 213.131C177.08 212.311 175.72 211.321 174.78 210.541C173.04 209.591 172.16 209.551 171.93 209.811C170.72 211.201 170.7 212.811 171.85 214.581C172.94 215.631 173.94 215.211 175.6 214.381L176.74 213.811V215.081C176.74 215.261 176.86 215.531 176.98 215.811C177.21 216.341 177.49 216.991 177.4 217.801L177.37 218.101L177.15 218.301C175.93 219.391 174.6 219.991 173.18 220.061H173.13L173.04 220.031ZM171.37 207.171C170.47 207.171 169.92 207.741 169.44 208.361C168.49 209.591 168.03 211.001 168.03 212.691C168.03 214.381 168.52 218.131 173.05 218.461C174 218.401 174.89 218.021 175.76 217.321C175.73 217.021 175.6 216.731 175.46 216.401C175.43 216.321 175.39 216.251 175.36 216.171C173.91 216.821 172.25 217.231 170.62 215.601L170.52 215.481C168.93 213.091 168.99 210.701 170.68 208.751C171.9 207.341 174.26 208.471 175.3 209.041C175.28 209.021 175.26 208.991 175.24 208.971L173.38 207.871C172.55 207.381 171.9 207.181 171.37 207.181V207.171ZM183.02 213.921L186.22 216.201L187.08 214.561L185.87 214.411L185.97 214.391L183.03 213.921H183.02ZM188.29 212.231C189.04 212.471 189.73 212.691 190.34 212.881C190.63 212.971 190.9 213.061 191.15 213.141C191.17 213.141 191.19 213.131 191.2 213.121C190.68 212.581 188.98 211.671 187.19 210.771C187.63 211.271 188 211.751 188.28 212.231H188.29ZM136.26 165.721C142.05 171.911 143.42 179.571 144.74 186.991C144.86 187.681 144.99 188.381 145.12 189.081C144.48 180.111 142.03 172.101 138.15 166.361C137.61 166.251 137.06 165.951 136.8 165.141C136.63 165.351 136.44 165.551 136.25 165.721H136.26Z" fill="currentColor"/>
<path d="M171.59 215.299L162.38 213.459C155.28 212.039 148.64 208.929 142.64 204.199C140.79 202.739 138.98 201.119 137.27 199.369L136.92 199.019L137.09 198.559C139.62 191.639 140.4 181.069 137.26 176.049C136.29 174.499 135.01 173.639 133.44 173.479C114.96 171.799 93.5199 167.259 91.8399 146.889C91.2899 141.429 91.1399 138.479 91.1299 138.449L89.9199 114.359L92.6999 138.319C92.6999 138.319 92.9999 140.869 93.5899 144.869C95.2899 161.449 109.25 163.909 122.75 166.289C126.93 167.029 130.88 167.729 134.53 168.819C144.52 171.889 142.62 186.229 141.24 196.689C141.14 197.449 141.04 198.179 140.95 198.889C142.4 200.209 143.96 201.489 145.6 202.709C150.63 206.419 156.42 209.539 162.81 211.969L171.59 215.309V215.299ZM138.73 198.619C138.93 198.819 139.13 199.009 139.33 199.209V199.089C139.45 198.259 139.56 197.389 139.68 196.479C139.79 195.669 139.9 194.829 140.01 193.969C139.67 195.599 139.24 197.179 138.73 198.629V198.619ZM96.8499 157.309C103.56 167.629 118.77 170.559 133.59 171.909C135.67 172.119 137.34 173.229 138.59 175.209C139.81 177.149 140.5 179.769 140.77 182.669C140.58 176.819 139.01 171.819 134.08 170.309C130.53 169.239 126.62 168.559 122.49 167.829C113.08 166.169 102.8 164.359 96.8599 157.319L96.8499 157.309ZM171.36 199.829C168.68 195.849 166.78 195.459 164.78 195.059L164.56 195.009C162.07 194.699 159.57 194.179 157.17 193.489C154.89 192.659 152.41 191.579 151.25 188.969L151.2 188.829C149.18 180.049 145.93 169.679 138.47 162.829C137.27 161.779 136.01 160.849 134.67 160.029C133.61 159.499 132.59 159.229 131.59 159.189C128.86 159.819 126.9 160.589 125.83 161.079C125.58 161.239 125.33 161.399 125.08 161.579C124.53 163.289 123.29 163.289 122.53 163.289H120.29L122.04 161.889C122.61 161.439 123.19 160.979 123.79 160.549C123.99 160.309 124.4 160.039 124.95 159.759C126.92 158.499 129.03 157.559 131.41 157.629C131.92 157.509 132.43 157.399 132.93 157.309L133.2 157.259L133.44 157.389C135.87 158.669 138 160.229 139.86 161.989C146.16 167.669 150.52 176.289 153.16 188.179C154.16 189.949 156.15 190.789 158.12 191.489C160.29 192.109 162.65 192.639 165.1 193.069C167.25 193.609 169.62 194.209 172.67 198.979L171.36 199.839V199.829Z" fill="currentColor"/>
<path d="M231.67 137.402H231.65C230.95 137.402 230.37 137.172 229.93 136.722C229.49 136.272 229.27 135.692 229.27 134.992C229.27 134.392 229.44 133.882 229.77 133.452C229.85 131.902 229.28 122.092 228.89 116.022L227.86 100.102L230.45 115.842C231.47 122.052 233.18 132.082 233.55 133.392C233.93 133.832 234.12 134.382 234.12 135.022C234.12 135.702 233.87 136.292 233.4 136.742C232.94 137.182 232.36 137.402 231.67 137.402ZM231.26 129.902C231.42 133.992 231.26 134.162 231.07 134.352C230.97 134.452 230.84 134.632 230.84 135.002C230.84 135.372 230.96 135.532 231.04 135.622C231.13 135.712 231.29 135.832 231.66 135.832C232 135.852 232.21 135.702 232.31 135.602C232.47 135.452 232.54 135.262 232.54 135.012C232.54 134.652 232.42 134.472 232.31 134.362C232.18 134.232 232.03 134.072 231.26 129.902Z" fill="currentColor"/>
<path d="M202.71 197.823L192.06 195.563C191.96 195.543 191.85 195.503 191.74 195.443C190.21 194.723 188.26 192.133 186.96 189.123C185.74 186.683 184.88 183.993 184.51 181.433C183.75 168.593 192.83 155.883 205.82 151.233C205.02 150.473 204.28 149.313 204.94 147.353C205.52 145.603 207.09 144.933 208.48 144.343C208.71 144.243 208.93 144.153 209.14 144.053C205.06 143.333 201 143.523 196.74 143.733C192.13 143.953 187.36 144.183 182.55 143.153C181.46 143.063 180.36 142.953 179.25 142.853C177.47 142.683 175.64 142.503 173.74 142.393C167.98 142.103 164.02 141.873 161.29 141.673C160.54 141.623 159.9 141.563 159.34 141.513C159.21 141.763 158.98 141.933 158.7 141.983C158.19 142.083 157.81 141.723 157.45 141.383C157.42 141.353 157.37 141.313 157.33 141.263C155.95 141.033 155.91 140.783 155.86 140.373L155.78 139.733L156.32 139.533C156.92 139.173 157.51 139.423 157.97 139.753C158.03 139.753 158.1 139.773 158.17 139.783C158.2 139.513 158.21 139.193 158.2 138.803V138.003L170.4 138.043V138.823C170.4 139.003 170.4 139.303 170.33 139.603C170.78 139.653 171.38 139.703 172.19 139.773C172.98 139.843 173.89 139.923 174.87 139.993C176.56 140.133 178.48 140.283 180.4 140.483C185.21 140.843 190.07 140.913 194.76 140.973C200.91 141.053 207.26 141.133 213.43 141.913C216.99 142.173 217.23 142.273 217.41 142.883L217.56 143.403L217.1 143.753C216.11 144.473 215.15 145.143 214.28 145.523C213.04 145.963 211.47 146.743 209.96 147.503C209.54 147.713 209.47 147.843 209.47 147.843C209.51 147.953 209.91 148.363 210.15 148.603C211.81 149.923 213.77 149.523 215.84 149.093C218.01 148.643 220.25 148.183 222.26 149.773L223.11 150.443L222.21 151.043C221.02 151.833 219.49 152.373 217.53 152.703H217.42C204.26 153.053 189.23 162.423 186.85 177.513C186.47 180.983 186.9 184.613 188.08 187.693C188.18 187.943 188.28 188.193 188.38 188.443C188.52 188.723 188.66 188.993 188.81 189.263C190.19 191.743 191.83 193.653 192.37 193.993C192.41 194.013 192.45 194.033 192.49 194.043L202.71 197.803V197.823ZM212.57 143.393L211.72 144.243C210.99 144.973 210.02 145.393 209.09 145.793C207.85 146.323 206.78 146.783 206.42 147.863C205.91 149.393 206.62 149.943 207.52 150.623C207.66 150.733 207.79 150.833 207.92 150.933L209.05 151.863L207.66 152.293C201.49 154.193 196.16 157.983 192.34 162.773C198.78 155.593 208.46 151.423 217.33 151.173C218.4 150.993 219.32 150.743 220.1 150.413C218.93 150.083 217.62 150.353 216.16 150.653C213.93 151.113 211.41 151.633 209.11 149.793C208.45 149.143 207.78 148.473 207.93 147.593C208.02 147.003 208.46 146.523 209.25 146.133C210.82 145.343 212.43 144.543 213.71 144.093C213.97 143.973 214.27 143.813 214.61 143.593C214.25 143.563 213.81 143.523 213.27 143.483C213.04 143.453 212.8 143.423 212.57 143.393ZM159.72 139.963C160.21 140.013 160.76 140.053 161.39 140.103C163.08 140.223 165.23 140.363 167.99 140.513C167.99 140.503 167.98 140.493 167.97 140.473L167.76 140.113L167.94 139.713C167.94 139.713 167.98 139.643 167.99 139.603L159.75 139.573C159.75 139.703 159.73 139.833 159.72 139.953V139.963ZM160.34 136.993H160.32C159.62 136.993 159.04 136.763 158.6 136.313L158.23 135.943L158.43 135.463C158.584 135.09 161.077 134.873 165.91 134.813C170.02 134.763 175.59 134.723 181.5 134.673C193.89 134.573 210.54 134.433 213.7 134.223C213.8 133.823 214 133.463 214.3 133.163C214.75 132.703 215.32 132.463 216.02 132.473C216.71 132.473 217.32 132.723 217.77 133.183C218.23 133.643 218.46 134.243 218.46 134.943C218.46 135.57 214.674 135.933 207.1 136.033C200.84 136.113 192.66 136.183 184.96 136.243C174.4 136.323 163.49 136.413 161.86 136.523C161.44 136.843 160.93 137.003 160.34 137.003V136.993ZM216.01 134.043C215.76 134.043 215.57 134.113 215.42 134.263C215.41 134.273 215.4 134.293 215.38 134.303C215.88 134.283 216.3 134.273 216.63 134.253C216.53 134.153 216.35 134.043 216.01 134.033V134.043Z" fill="currentColor"/>
<path d="M190.5 155.593C189.32 155.593 187.96 155.163 186.96 153.493L186.89 153.333C185.62 149.523 188.01 147.433 190.12 145.583C190.58 145.173 191.05 144.763 191.49 144.333C188.44 144.143 185.24 144.253 182.13 144.363C177.66 144.513 173.03 144.673 168.62 143.993L163.47 143.963C161.75 143.963 160.07 143.943 158.44 143.933H158.23L158.05 143.823C149.59 138.863 140.31 136.653 131.23 137.403L121.59 138.203L130.98 135.853C131.88 135.633 132.49 135.073 133.13 134.473C133.43 134.203 133.73 133.923 134.07 133.663L133.62 133.473H134.35C135.54 132.683 137.17 132.283 140.1 133.533L143.61 135.033H142.42C143.43 135.283 144.46 135.503 145.52 135.733C148.7 136.423 152 137.143 155.06 138.703C157.88 139.873 160.21 140.193 162.84 140.303C166.16 140.443 169.71 140.593 173.25 140.733L173.4 140.753C177.67 141.783 181.78 141.563 185.76 141.343C189.96 141.123 194.3 140.883 198.82 142.113L202.02 142.983L198.76 143.633C196.17 144.153 192.73 146.193 191.92 148.303C191.65 149.013 191.73 149.653 192.17 150.243C192.59 150.943 192.9 151.003 193.01 151.023C193.68 151.163 194.79 150.383 195.85 149.623C197.56 148.403 199.69 146.873 201.87 147.993L202.71 148.423L202.12 149.173C201.11 150.453 199.82 151.623 198.16 152.743L197.96 152.843C197.27 153.063 196.44 153.473 195.55 153.903C194.59 154.373 193.59 154.863 192.65 155.163C192.22 155.303 191.41 155.573 190.48 155.573L190.5 155.593ZM188.35 152.763C189.16 154.053 190.28 154.323 192.18 153.703C193.02 153.433 193.96 152.963 194.88 152.523C195.77 152.083 196.62 151.673 197.39 151.413C198.43 150.703 199.3 149.983 200.04 149.223C199 149.343 197.87 150.143 196.77 150.933C195.37 151.933 194.06 152.883 192.7 152.593C191.98 152.443 191.37 151.953 190.88 151.143C190.16 150.183 190 148.993 190.46 147.773C190.55 147.543 190.66 147.313 190.79 147.083C188.73 148.913 187.56 150.273 188.35 152.753V152.763ZM191.31 142.753C191.94 142.793 192.57 142.833 193.2 142.903L194.58 143.043L193.77 144.123C194.37 143.733 195 143.373 195.65 143.073C194.2 142.853 192.76 142.763 191.31 142.753ZM158.66 142.363C160.22 142.373 161.84 142.383 163.48 142.393L168.81 142.433C171.39 142.843 174.09 142.943 176.77 142.933C175.57 142.813 174.35 142.613 173.11 142.323C169.59 142.183 166.07 142.043 162.77 141.893C159.98 141.773 157.48 141.433 154.4 140.143C153.61 139.743 152.8 139.393 151.98 139.093C154.25 140.003 156.48 141.093 158.66 142.353V142.363ZM134.72 135.693C136.46 135.693 138.2 135.793 139.93 136.003C138.98 135.713 138.04 135.383 137.13 134.993L135.89 134.463C135.24 134.683 134.75 135.133 134.19 135.653L134.13 135.703C134.33 135.703 134.52 135.703 134.72 135.703V135.693ZM154.62 136.263L154.49 136.213C153.95 136.023 153.4 135.833 152.85 135.663C152.08 135.523 151.3 135.353 150.45 135.133C149.92 134.943 149.39 134.763 148.88 134.613C146.08 133.983 143.22 133.533 140.5 133.143C139.47 133.013 138.41 132.873 137.31 132.693L137.55 131.143L138.85 131.323C139.46 131.413 140.08 131.493 140.71 131.583C141.01 131.623 141.32 131.663 141.62 131.693C144.19 132.013 146.65 132.313 149.29 133.093C150.62 133.393 151.94 133.733 153.23 134.133C153.72 134.223 154.21 134.303 154.71 134.383C155.21 134.463 155.71 134.553 156.24 134.643C159.2 134.613 162.49 134.593 165.89 134.563C177.03 134.473 191.62 134.353 196.72 134.173C192.77 131.263 181.54 123.503 173.72 118.153L149.55 101.633L174.57 116.833C184.29 122.733 198.98 131.603 200.53 132.363C201.16 132.403 201.7 132.633 202.12 133.063C202.57 133.523 202.81 134.133 202.8 134.823C202.8 135.449 199.02 135.813 191.46 135.913C185.21 135.993 177.04 136.063 169.35 136.123L163.78 136.163C160.49 136.193 157.42 136.213 154.78 136.243H154.64L154.62 136.263ZM194.87 130.923C197.56 132.853 198.69 133.753 199.16 134.223C199.9 134.203 200.51 134.183 200.96 134.163C200.85 134.063 200.68 133.953 200.34 133.943C200.18 133.943 199.98 133.943 194.87 130.923Z" fill="currentColor"/>
<path d="M179.48 158.271C175.37 158.271 171.91 156.371 168.54 154.521C167.77 154.101 167 153.681 166.22 153.281C164.19 152.231 162.56 151.571 160.93 151.121L160.7 151.061L160.54 150.881C147.41 135.991 125 139.071 109.65 149.811C107.1 151.631 104.06 152.141 101.11 151.241C97.7102 150.211 94.8602 147.411 93.4902 143.761C92.1102 140.581 91.2202 138.751 91.2102 138.741L88.6602 133.521L92.5102 137.881C92.5102 137.881 93.4401 138.941 94.5901 140.611C96.3501 143.721 99.1602 145.191 101.96 144.491L104.96 143.611C123.39 138.181 142.44 132.561 158.77 145.671C161.11 147.491 162.68 147.851 164.34 148.231L164.5 148.271L164.63 148.371C170.63 152.901 176.81 155.551 183 156.241L187.09 156.691L183.12 157.771C181.84 158.121 180.63 158.271 179.46 158.271H179.48ZM161.57 149.671C163.24 150.151 164.9 150.841 166.94 151.891C166.96 151.891 166.98 151.911 167 151.921C165.94 151.241 164.88 150.511 163.84 149.731C162.86 149.501 161.85 149.261 160.68 148.711C160.99 149.021 161.29 149.351 161.58 149.681L161.57 149.671ZM95.3302 144.091C96.6402 146.871 98.9102 148.941 101.57 149.751C104.05 150.501 106.6 150.071 108.75 148.541C116.34 143.221 125.62 139.731 134.74 139.221C125.16 139.291 115.19 142.231 105.4 145.121L102.37 146.011C99.8302 146.651 97.3201 145.921 95.3401 144.101L95.3302 144.091ZM155.61 136.061H155.56C153.55 135.791 151.35 135.461 148.63 134.681C148.42 134.621 148.21 134.571 148 134.511C141.38 133.451 134.97 132.581 128.73 133.231C127.55 133.421 126.36 133.671 125.18 133.991C123.5 134.411 122.46 134.731 122.1 134.851C121.17 135.831 119.47 135.831 118.63 135.831H114.88L118.31 134.331C121.52 132.931 124.8 132.131 128.1 131.741C135.59 130.471 142.98 131.601 148.32 132.971C149.01 133.081 149.71 133.191 150.4 133.311C152.86 133.711 155.4 134.121 157.89 134.451L163 134.411C168.38 134.361 182.02 134.241 184.87 134.051C184.98 133.651 185.17 133.291 185.47 132.991C185.92 132.531 186.52 132.301 187.19 132.301C187.88 132.301 188.49 132.551 188.94 133.011C189.4 133.471 189.63 134.061 189.63 134.771C189.63 135.398 185.85 135.761 178.29 135.861C172.04 135.941 163.87 136.011 156.17 136.071H155.62L155.61 136.061ZM187.17 133.861C186.92 133.861 186.74 133.931 186.58 134.081C186.57 134.091 186.56 134.111 186.54 134.121C187.04 134.101 187.46 134.091 187.79 134.071C187.69 133.971 187.51 133.851 187.17 133.851V133.861Z" fill="currentColor"/>
<path d="M198.611 37.5583L197.451 36.9283C192.801 34.3883 189.121 31.7083 187.041 29.3583C184.051 28.5583 181.721 27.8583 180.341 26.8383C178.871 26.6583 178.011 26.2383 177.701 25.4483C177.241 24.2483 178.231 22.8283 181.091 20.5183L192.651 11.2383L182.131 21.6883C181.261 22.5483 180.271 23.7583 180.501 24.6283C180.571 24.8783 180.731 25.1083 180.961 25.3283C181.971 25.3883 183.491 25.3883 185.761 25.2683L186.901 25.2083L186.551 26.2983C186.371 26.8483 186.951 27.4083 187.851 27.9583L187.921 27.9983C188.641 28.4283 189.541 28.8583 190.441 29.2783C190.821 29.4583 191.211 29.6383 191.601 29.8283C193.331 30.8083 194.601 31.6583 195.221 32.0683C195.381 32.1783 195.491 32.2483 195.541 32.2783C197.421 33.2183 198.591 34.2083 198.591 36.2383V37.5583H198.611ZM184.231 26.9083C184.491 26.9983 184.761 27.0783 185.031 27.1583C185.001 27.0683 184.981 26.9683 184.971 26.8783C184.721 26.8883 184.471 26.8983 184.231 26.9083Z" fill="currentColor"/>
<path d="M203.69 112.478L201.16 101.638C201.12 101.478 197.43 85.6683 195.16 77.9283C194.5 75.6883 194.14 74.7183 193.95 74.2983L193.82 74.3283L193.55 73.7583C191.68 69.7483 192.43 66.2383 193.14 62.8383C193.34 61.9083 193.54 60.9583 193.68 59.9883C186.4 69.3883 178 79.3883 165.24 82.6983L161.18 85.7883C152.54 92.3583 147.99 95.7483 145.53 97.4483C145.59 97.7283 145.53 98.0083 145.35 98.2183C145.01 98.6283 144.5 98.5983 144.01 98.5683C143.96 98.5683 143.9 98.5683 143.83 98.5683C142.73 99.2183 142.53 99.0883 142.27 98.9183L141.81 98.6183L141.92 98.0383C142.13 97.2383 142.82 97.0383 143.43 96.9983C143.47 96.9683 143.51 96.9483 143.55 96.9183C143.4 96.6883 143.19 96.4283 142.93 96.1183L142.41 95.5183L151.79 87.6983L152.29 88.2883C152.41 88.4283 152.6 88.6583 152.73 88.9383C153.11 88.6883 153.6 88.3383 154.26 87.8783C155.89 86.7183 158.25 84.9683 161.49 82.5183L161.69 82.4083C162.64 82.0583 163.58 81.6883 164.52 81.2983L164.6 81.2683C177.37 75.8383 188.03 65.8983 195.56 52.3483L196.48 50.6983L197 52.5183C197.72 55.0383 197.23 57.4783 196.76 59.8383C196.22 62.5083 195.75 64.8583 197.01 67.0283C198.26 65.0983 199.23 63.1683 198.62 60.7683L198.38 59.7983H199.38C200.05 59.7983 200.43 60.1383 200.68 60.3683C200.87 60.5383 200.94 60.5983 201.15 60.5983H202.01L201.92 61.4683C201.66 63.9983 201.07 66.4683 200.23 68.6283C200.2 68.9583 200.2 70.4983 200.72 77.5783C201.43 87.2583 202.68 101.288 202.69 101.428L203.67 112.518L203.69 112.478ZM144.63 95.7083C144.71 95.8183 144.79 95.9183 144.86 96.0283C146.57 94.8283 149 93.0283 151.54 91.1283C151.53 91.1283 151.51 91.1283 151.5 91.1183L151.11 90.9783L150.99 90.5583C150.99 90.5583 150.97 90.4783 150.96 90.4383L144.63 95.7183V95.7083ZM194.86 72.8383C195.33 73.2783 195.79 74.5183 196.66 77.4883C197.72 81.0983 199.08 86.4383 200.25 91.1483C199.89 86.8183 199.48 81.8283 199.17 77.6483C198.53 68.9383 198.66 68.4483 198.73 68.1783L198.76 68.0883C199.06 67.3383 199.32 66.5483 199.54 65.7283C199.03 66.8083 198.36 67.8183 197.69 68.8183L197.11 69.6883L196.44 68.8783C194.92 67.0583 194.57 65.1383 194.67 63.2083C194 66.3983 193.37 69.4183 194.86 72.8283V72.8383ZM195.47 55.6183V57.4083C195.47 57.7483 195.46 58.0883 195.44 58.4283C195.65 57.3183 195.82 56.1883 195.8 55.0683C195.69 55.2483 195.58 55.4383 195.47 55.6183ZM141.85 93.9483C141.78 93.9483 141.71 93.9483 141.64 93.9483L141.12 93.8983L140.96 93.3983C140.834 93.005 143.047 90.8583 147.6 86.9583C148.5 86.1783 149.57 85.2783 150.75 84.2883C151.43 83.7083 152.16 83.0883 152.95 82.4083L153.08 82.3183C153.16 82.2783 153.24 82.2283 153.32 82.1883C153.72 81.8683 154.13 81.5383 154.55 81.2083L154.79 81.0783C155.23 80.9283 155.67 80.7783 156.1 80.6283C156.78 80.2683 157.51 79.9083 158.32 79.5483L158.41 79.5183C159.43 79.2183 160.44 78.8883 161.44 78.5183C173.64 73.1283 182.61 65.0083 186.01 56.0283C187.46 52.1983 188.12 47.7983 188.03 42.5983C187.77 42.3283 187.49 41.8983 187.69 41.3983C187.99 40.6583 188.94 40.7383 189.3 40.7683L189.99 40.8283L190.02 41.5183C190.22 46.5283 189.63 51.1183 188.26 55.1583C184.63 65.8983 174.51 75.3783 162.01 79.9783C160.31 80.7283 158.54 81.4283 156.72 82.0683C156.09 82.3983 155.5 82.7383 154.92 83.0683C154.67 83.2083 154.43 83.3483 154.18 83.4883C153.33 84.1683 152.53 84.8383 151.77 85.4583C148.91 87.9083 145.02 91.2483 144.24 91.9983C144.12 92.5183 143.83 92.9783 143.37 93.3583C142.89 93.7583 142.37 93.9583 141.83 93.9583L141.85 93.9483Z" fill="currentColor"/>
<path d="M132.54 110.56C132.39 110.56 132.29 110.5 132.18 110.43L131.7 110.13L131.82 109.53C132.06 108.59 132.03 108.07 131.96 107.79C131.89 107.51 131.64 106.98 130.89 106.11L130.37 105.51L133.64 102.74L134.15 103.34C134.26 103.47 134.46 103.7 134.58 103.97C138.11 101.55 148.48 93.54 157.04 86.92L159.92 84.69C161.25 83.78 162.47 82.91 163.67 82.06L164.54 81.46C173.51 77.37 180.83 72.52 186.3 67.05L190.81 62.54L187.53 68C186.65 69.47 185.86 70.97 185.11 72.41C183.87 74.77 182.59 77.22 180.88 79.55C180.79 79.75 180.76 79.88 180.75 79.96C180.79 79.96 180.85 79.98 180.93 79.98C181.66 80 182.35 79.74 183.04 79.16C183.44 78.83 184.3 78.04 185.52 76.54C185.99 76.04 186.29 75.4 186.62 74.71C187.3 73.26 188.16 71.45 190.6 71.19L191.9 71.05L191.41 72.26C190.67 74.11 189.71 75.85 188.87 77.38C188.62 77.83 188.39 78.26 188.18 78.65C187.76 80.2 186.95 81.48 185.78 82.45C184.72 83.33 183.58 83.91 182.39 84.17C181.19 84.44 180 84.36 178.87 83.95C177.75 83.54 176.75 82.82 175.9 81.8L175.54 81.36L175.84 80.88C176.5 79.83 177.36 78.84 178.19 77.88C178.48 77.54 178.76 77.21 179.04 76.88C177.73 77.72 176.36 78.36 174.94 79.03C173.73 79.6 172.48 80.19 171.2 80.93C169.09 81.97 167.4 82.84 165.84 83.78C162.37 86.63 158.34 89.97 154.32 93.31C136.15 108.39 133.44 110.52 132.54 110.52V110.56ZM132.57 105.71C133.05 106.35 133.35 106.91 133.48 107.41C133.55 107.66 133.58 107.94 133.58 108.24C136.79 105.87 145.49 98.64 153.32 92.14C155.46 90.36 157.6 88.58 159.66 86.88L158 88.16C134.28 106.49 134.08 106.42 133.35 106.17L132.95 106.03L132.83 105.6C132.83 105.6 132.81 105.53 132.81 105.5L132.57 105.7V105.71ZM177.48 81.26C178.05 81.84 178.69 82.25 179.38 82.51C180.24 82.82 181.11 82.87 182.03 82.67C182.97 82.46 183.88 81.99 184.75 81.27C185.7 80.48 186.33 79.47 186.66 78.19L186.73 78.02C186.96 77.59 187.21 77.13 187.48 76.65C188.01 75.69 188.58 74.65 189.11 73.56C188.7 74.01 188.39 74.63 188.02 75.4C187.66 76.17 187.28 76.96 186.68 77.59C185.75 78.74 184.79 79.75 184.02 80.39C183.03 81.21 181.94 81.61 180.85 81.57C179.97 81.54 179.55 81.15 179.36 80.84C179.05 80.33 179.08 79.66 179.46 78.85L179.49 78.78C179.44 78.84 179.39 78.89 179.34 78.95C178.66 79.74 178.01 80.49 177.46 81.27L177.48 81.26ZM183.25 71.92L182.94 73.16C183.2 72.68 183.45 72.19 183.71 71.7L183.86 71.42C183.66 71.59 183.46 71.76 183.25 71.93V71.92ZM129.8 103.96C129.73 103.96 129.66 103.96 129.59 103.96L129.07 103.91L128.91 103.41C128.79 103.023 130.567 101.25 134.24 98.09C137.36 95.41 141.61 91.78 146.12 87.94L154.07 81.18C156.04 80.11 157.89 79.15 160.55 78.36C160.62 78.34 160.69 78.31 160.76 78.29C161.44 77.98 162.12 77.67 162.8 77.36C166.41 75.72 170.08 74.05 173.33 72.06C176.01 70.19 178.42 68.06 180.49 65.74C177.35 67.49 174.13 69.03 170.87 70.32C165.72 71.99 160.57 73.07 156.65 73.82L156.53 73.84H156.41C153.89 73.54 151.39 73.22 148.85 72.89C146.5 72.59 144.13 72.28 141.69 71.99L113 68.66L141.83 70.43C146.99 70.75 151.96 71.33 156.77 71.9L157.19 71.95C161.82 70.8 166.61 69.61 171.25 67.85C175.87 65.36 179.89 62.43 183.2 59.13C183.56 58.41 183.95 57.96 184.4 57.72L185.81 57L185.53 58.55C185.36 59.5 185.13 60.41 184.84 61.27L186.56 60.19L184.35 63.35C183.94 63.93 183.52 64.5 183.08 65.06C180.94 68.57 177.72 71.22 174.03 73.46C170.26 76.07 165.97 78.2 161.33 79.74C158.45 81.06 155.74 82.38 153.31 83.89L149.38 87.24C141.51 93.95 133.38 100.88 132.21 102C132.09 102.52 131.8 102.98 131.34 103.36C130.86 103.76 130.34 103.96 129.8 103.96ZM183.15 61.35C181.92 62.49 180.6 63.59 179.21 64.64C180.34 64.02 181.47 63.37 182.58 62.69C182.79 62.26 182.98 61.81 183.15 61.36V61.35Z" fill="currentColor"/>
<path d="M87.3604 141.149L91.4203 137.799C91.4203 137.799 92.6804 136.759 94.3604 135.399C95.3504 134.599 96.6104 133.539 98.0704 132.309C99.0804 131.459 100.19 130.529 101.37 129.549C103.13 128.079 104.8 126.699 106.27 125.479L112.22 120.569L182.58 84.6289L174.36 91.4289L123.18 121.149C121.57 122.079 119.78 123.099 117.65 124.209C115.12 125.769 112.66 127.279 110.24 128.779C105.77 131.539 101.55 134.149 96.8403 136.999C94.0903 138.349 92.3104 139.089 92.2304 139.119L87.3704 141.139L87.3604 141.149ZM113.01 121.939L107.28 126.699C105.81 127.919 104.14 129.299 102.38 130.769C101.2 131.749 100.1 132.679 99.0903 133.529C98.6603 133.889 98.2504 134.239 97.8604 134.569C101.82 132.159 105.53 129.869 109.42 127.469C111.84 125.979 114.3 124.459 116.88 122.869C119.04 121.749 120.8 120.739 122.4 119.819L160.48 97.7089L113.02 121.949L113.01 121.939ZM119.67 112.359C119.6 112.359 119.53 112.359 119.46 112.359L118.94 112.309L118.78 111.809C118.66 111.422 120.437 109.649 124.11 106.489C127.23 103.809 131.49 100.179 135.99 96.3289C139.86 93.0289 143.92 89.5689 147.6 86.4089C150.07 84.2989 152.37 82.3189 154.33 80.6189L154.49 80.4789L154.71 80.4389C155.11 80.3689 155.5 80.2889 155.89 80.1889C156.91 79.6989 157.93 79.2389 159.17 78.8389L159.38 78.7989C159.55 78.7989 159.72 78.7789 159.88 78.7589C161.2 78.1689 162.53 77.4789 163.88 76.7789C165.72 75.8289 167.61 74.8589 169.56 74.0889C170.54 73.6389 171.55 73.2889 172.6 73.1089L191.97 69.8789L172.92 74.6389C171.98 74.8689 171.05 75.1889 170.14 75.5489C169.05 76.0589 167.98 76.7089 166.87 77.3789C164.79 78.6389 162.66 79.9289 160.31 80.2789C159.04 80.8389 157.76 81.3189 156.45 81.6589C156.29 81.7389 156.13 81.8189 155.97 81.8889C155.51 82.1089 155.04 82.3389 154.55 82.5589C150.11 86.3689 144.73 90.9589 139.62 95.3189C131.58 102.179 123.27 109.259 122.09 110.389C121.97 110.909 121.68 111.369 121.22 111.749C120.74 112.149 120.22 112.349 119.68 112.349L119.67 112.359Z" fill="currentColor"/>
</svg>
