<svg width="322" height="55" viewBox="0 0 322 55" fill="none" xmlns="http://www.w3.org/2000/svg">
<path d="M158.49 30.16C156.52 29 155.66 29 156.18 30.61C152.54 28.99 150.28 28.99 147.89 31.55C144.67 28.99 141.32 28.99 135.52 30.35C133.84 28.99 129.71 28.99 125.35 28.99C121.53 28.99 117.54 28.99 115.21 30.37C109.39 28.99 105.25 28.99 102.25 36.72C100.51 34.14 98.8899 32.42 97.2499 31.39C95.6099 30.36 93.9599 30.01 92.3099 30.07C90.3099 30.35 88.3199 31.04 87.3999 30.89C85.5299 30.52 84.3199 29.75 83.7599 27.82C81.2699 28.99 79.4199 28.99 78.9399 27.37C75.6299 29.3 73.1599 29.14 70.1199 27.53C68.7299 29.84 66.7799 30.69 63.6499 31.28C64.0799 31.54 63.1599 30.9 61.6299 29.95C61.3999 30.01 60.5499 29.75 59.5299 29.54C58.0299 29.49 56.3899 29.99 54.8599 30.85C53.9899 28.99 52.8299 28.99 52.6699 29.42C52.8299 28.99 52.8299 27.24 51.9199 27.97C52.8299 27.23 53.6899 27.23 53.6099 29.03C55.0599 28.23 56.4999 27.73 57.7299 27.94C58.9599 28.15 59.9999 29.07 60.4499 30.58C62.8099 29.07 64.5799 28.15 65.9099 27.03C68.6099 27.82 70.8699 28.42 73.3099 27.31C73.6699 28.42 74.1399 27.82 74.8899 25.75C75.8499 27.47 77.0899 27.7 79.0299 26.27C79.2599 27.48 80.9699 27.73 83.1199 26.82C83.3499 28.07 84.2999 27.93 85.8599 26.98C86.1399 27.77 87.0199 27.77 88.2799 27.41C89.5399 28.05 91.0399 28.64 92.4899 29.86C93.6799 31.25 94.8099 33.25 95.7999 36.25C97.9199 33.26 99.9099 31.25 101.88 30.01C105.83 27.52 109.73 28.09 115.09 29.8C114.05 27.24 116.37 27.24 118.71 27.27C120.93 27.24 123.17 27.24 125.35 27.24C129.71 27.24 133.84 27.24 135.22 28.33C141.32 27.24 144.67 27.24 147.96 29.34C150.28 27.24 152.54 27.24 156.49 28.54C155.66 27.24 156.51 27.24 158.78 28.17C156.52 27.24 156.52 28.99 158.49 30.15V30.16Z" fill="currentColor"/>
<path d="M157.24 32.6095C155.62 31.1795 156.94 30.4095 159.87 30.5395C159.59 28.8895 160.91 28.1195 162.16 28.5595C160.91 28.1295 159.59 27.3595 160.32 27.2095C156.95 25.8395 155.62 25.0795 158.23 25.6295C155.62 25.0695 155.62 26.5995 157.83 29.3395C155.62 29.6495 155.62 31.1795 157.24 32.6095Z" fill="currentColor"/>
<path d="M233.81 30.16C231.84 29 230.98 29 231.5 30.61C227.86 28.99 225.6 28.99 223.21 31.55C219.99 28.99 216.64 28.99 210.84 30.35C209.16 28.99 205.03 28.99 200.67 28.99C196.85 28.99 192.86 28.99 190.53 30.37C184.71 28.99 180.57 28.99 177.57 36.72C175.83 34.14 174.21 32.42 172.57 31.39C170.93 30.36 169.28 30.01 167.63 30.07C165.63 30.35 163.64 31.04 162.72 30.89C160.85 30.52 159.64 29.75 159.08 27.82C156.59 28.99 154.74 28.99 154.26 27.37C150.95 29.3 148.48 29.14 145.44 27.53C144.05 29.84 142.1 30.69 138.97 31.28C139.4 31.54 138.48 30.9 136.95 29.95C136.72 30.01 135.87 29.75 134.85 29.54C133.35 29.49 131.71 29.99 130.18 30.85C129.31 28.99 128.15 28.99 127.99 29.42C128.15 28.99 128.15 27.24 127.24 27.97C128.15 27.23 129.01 27.23 128.93 29.03C130.38 28.23 131.82 27.73 133.05 27.94C134.28 28.15 135.32 29.07 135.77 30.58C138.13 29.07 139.9 28.15 141.23 27.03C143.93 27.82 146.19 28.42 148.63 27.31C148.99 28.42 149.46 27.82 150.21 25.75C151.17 27.47 152.41 27.7 154.35 26.27C154.58 27.48 156.29 27.73 158.44 26.82C158.67 28.07 159.62 27.93 161.18 26.98C161.46 27.77 162.34 27.77 163.6 27.41C164.86 28.05 166.36 28.64 167.81 29.86C169 31.25 170.13 33.25 171.12 36.25C173.24 33.26 175.23 31.25 177.2 30.01C181.15 27.52 185.05 28.09 190.41 29.8C189.37 27.24 191.69 27.24 194.03 27.27C196.25 27.24 198.49 27.24 200.67 27.24C205.03 27.24 209.16 27.24 210.54 28.33C216.64 27.24 219.99 27.24 223.28 29.34C225.6 27.24 227.86 27.24 231.81 28.54C230.98 27.24 231.83 27.24 234.1 28.17C231.84 27.24 231.84 28.99 233.81 30.15V30.16Z" fill="currentColor"/>
<path d="M232.56 32.6095C230.94 31.1795 232.26 30.4095 235.19 30.5395C234.91 28.8895 236.23 28.1195 237.48 28.5595C236.23 28.1295 234.91 27.3595 235.64 27.2095C232.27 25.8395 230.94 25.0795 233.55 25.6295C230.94 25.0695 230.94 26.5995 233.15 29.3395C230.94 29.6495 230.94 31.1795 232.56 32.6095Z" fill="currentColor"/>
<path d="M128.66 24.7191C127.41 24.9591 126.56 24.9591 128.02 24.2891C123.44 24.9491 121.18 24.9491 126.35 21.9991C115.56 24.9591 112.21 24.9591 107.5 11.5891C105.66 20.4991 103.21 23.4691 98.7295 23.9591C96.4895 24.1991 93.7395 23.8291 91.1195 22.9991C91.0895 24.0991 90.3395 24.5291 90.3095 24.3691C87.2695 24.9491 84.9495 24.9491 86.0595 23.6291C83.3495 24.0691 81.0195 24.3591 78.8195 24.4691C74.4195 24.6891 70.5595 24.1591 65.3095 22.5791C64.5695 23.7591 63.0495 24.3591 61.1095 24.6391C59.1695 24.9191 56.7995 24.8991 54.7295 24.6391C52.4295 24.8991 50.4395 24.9291 50.3795 23.2191C46.4695 24.9491 44.5095 24.9491 44.6095 21.1591C38.8895 24.9491 35.5395 24.9491 30.8095 21.0891C29.9295 24.9491 27.6695 24.9491 24.3095 23.4191C24.5595 24.9491 23.6995 24.9491 22.5195 24.1191C23.7095 24.9491 23.7095 23.1991 22.9495 22.5791C23.6995 23.1991 24.5595 23.1991 24.8495 21.9291C27.6795 23.1991 29.9295 23.1991 31.3295 19.8591C35.5395 23.1991 38.8895 23.1991 44.0795 19.9191C44.4995 23.1891 46.4695 23.1891 49.8295 21.7491C50.4695 23.1691 52.4895 23.1391 54.5995 23.0091C56.8595 23.1391 59.1895 23.1691 61.1795 22.8091C63.1695 22.4491 64.7995 21.6891 65.7695 20.1791C68.2395 21.1891 70.4095 21.8591 72.4995 22.2391C74.5895 22.6191 76.5895 22.7191 78.6495 22.8191C80.8195 22.4191 83.0595 22.0391 85.7795 22.4791C85.2795 22.3291 85.6895 22.7591 86.5695 23.0491C87.3895 23.0191 88.6895 22.8391 90.1195 22.4891C90.4995 22.6391 91.4395 22.0791 91.5295 21.1891C92.7795 21.2691 94.1395 21.6091 95.4095 21.8291C96.6795 22.0491 97.8695 22.1391 98.9395 22.0791C103.24 21.8191 105.77 19.0591 107.85 10.7891C112.2 23.1991 115.55 23.1991 125.26 19.3791C121.16 23.1991 123.42 23.1991 127.57 22.3491C126.54 23.1991 127.4 23.1991 128.35 22.9291C127.4 23.1991 127.4 24.9491 128.64 24.7091L128.66 24.7191Z" fill="currentColor"/>
<path d="M128.66 26.9694C126.52 27.1394 127.84 26.3694 129.44 25.5694C130.48 24.8494 131.8 24.0794 131.8 24.0794C131.8 24.0794 130.48 23.3194 129.2 22.5394C127.83 21.7894 126.51 21.0294 127.5 20.6094C126.51 21.0294 126.51 22.5494 128.23 23.6494C126.51 25.6094 126.51 27.1294 128.65 26.9694H128.66Z" fill="currentColor"/>
<path d="M164.22 26.2808C163.17 26.8608 162.18 27.0308 162.84 26.7808C158.95 27.2108 156.71 27.2108 158.36 26.2008C149.55 27.2108 144.6 27.2108 135.76 26.0808C135.25 26.6508 133.77 26.9308 131.81 27.0708C129.85 27.2108 127.41 27.2108 126.51 26.3308C120.13 27.2208 115.34 27.2208 110.48 22.0508C105.97 27.2208 101.39 27.2208 95.4098 26.3108C93.9798 26.7708 92.1997 26.9908 90.2598 27.1108C88.3298 27.2208 86.2397 27.2208 84.2097 27.2208C82.9897 27.2208 81.7897 27.2208 80.6097 27.1408C79.4197 27.1608 78.2497 27.0908 77.1097 26.8808C75.9597 27.0908 74.8398 27.1508 73.7298 27.1108C72.6398 27.2208 71.5597 27.2208 70.4897 27.1808C69.4497 27.2208 68.4098 27.2208 67.4098 27.2208C66.3998 27.2208 65.4298 27.2208 64.4798 27.2108C62.5898 27.1908 60.8197 27.1608 59.2097 27.1008C56.6397 27.1908 54.3997 27.2108 53.2997 26.1008C53.0097 28.9708 55.8397 28.9608 59.5097 28.7008C60.9597 28.8308 62.6498 28.9008 64.5098 28.9308C65.4398 28.9508 66.4097 28.9608 67.3497 28.8108C68.3597 28.8308 69.3497 28.7008 70.2697 28.2608C71.4597 28.6908 72.5898 28.8308 73.6898 28.3608C74.8398 28.6808 75.9697 28.3908 77.1297 27.6608C78.2597 28.3908 79.4197 28.6808 80.6697 28.5708C81.8197 28.8608 83.0597 28.7608 84.3897 28.5108C85.2997 28.7708 86.2997 28.8608 87.2897 28.8908C88.2798 28.9308 89.2697 28.9008 90.2097 28.8408C92.0897 28.7308 93.7598 28.5008 94.9697 28.0408C101.39 28.9608 105.97 28.9608 110.43 23.6208C115.34 28.9608 120.13 28.9608 126.95 28.0708C127.41 28.9608 129.86 28.9608 131.8 28.9408C133.74 28.9208 135.19 28.8808 135.62 28.8008C144.61 28.9608 149.56 28.9608 158.52 28.8208C156.72 28.9608 158.97 28.9608 162.93 28.9008C162.15 28.9408 163.09 28.9108 164.24 28.8308C167.51 28.9108 170.99 28.9408 172.29 28.6108C173.45 28.3108 172.89 27.7408 170.02 26.6408C168.16 26.8708 165.88 26.7008 164.24 26.2808H164.22Z" fill="currentColor"/>
<path d="M170 26.6431C170.17 26.6231 170.35 26.6031 170.52 26.5731C170.6 26.5631 170.67 26.5431 170.74 26.5231C170.11 26.4231 169.47 26.3131 168.81 26.2031C169.25 26.3531 169.64 26.5031 170.01 26.6431H170Z" fill="currentColor"/>
<path d="M249.58 28.112C251.48 28.512 252.44 28.692 252.43 28.682C252.42 28.682 251.73 28.532 250.41 28.262C250.11 28.212 249.79 28.152 249.45 28.082C249.49 28.092 249.53 28.102 249.57 28.112H249.58Z" fill="currentColor"/>
<path d="M274.56 26.5708C274.56 26.5708 274.59 26.5508 274.61 26.5508C274.23 26.7108 274.21 26.7208 274.56 26.5708Z" fill="currentColor"/>
<path d="M253.34 26.6308C253.45 26.6408 253.54 26.6408 253.6 26.6308C253.3 26.5208 252.99 26.4208 252.66 26.3008C252.9 26.4208 253.12 26.5208 253.34 26.6308Z" fill="currentColor"/>
<path d="M251.839 26.8417C251.409 26.9817 249.669 26.8117 246.889 26.3617C248.289 27.2017 247.159 27.2117 245.669 26.7017C246.259 27.2117 245.75 27.2117 245.02 26.7417C243.81 27.2117 242.38 27.2117 242.079 26.2617C238.81 27.2117 236.709 27.2117 235.889 25.0317C231.859 27.2117 229.109 27.2117 225.039 24.6817C223.059 27.2117 219.759 27.2117 214.919 26.4917C212.679 27.2117 208.899 27.2117 204.929 27.2117C201.209 27.2117 197.32 27.2117 200.71 25.8717C189.27 27.2117 185.109 27.2117 173.949 15.5117C175.689 23.1517 174.419 25.8017 170.729 26.5217C185.469 28.9617 189.76 28.9517 200.99 28.7717C197.33 28.9617 201.219 28.9617 204.939 28.9617C208.91 28.9617 212.689 28.9617 214.66 28.3017C219.77 28.9617 223.079 28.9617 224.839 26.6617C229.119 28.9617 231.87 28.9617 236.21 27.0017C236.72 28.9617 238.819 28.9617 242.389 28.1017C242.389 28.9617 243.82 28.9617 245.16 28.5217C245.749 28.9617 246.259 28.9617 245.749 28.5217C247.16 28.9517 248.299 28.9417 246.85 28.3517C248.76 28.7017 250.459 28.8017 250.979 28.7217C251.409 28.6517 251.02 28.4617 249.579 28.1117C249.27 28.0517 248.939 27.9817 248.589 27.9017C248.889 27.9617 249.18 28.0217 249.46 28.0817C249.19 28.0117 248.889 27.9417 248.549 27.8717C249.27 28.0217 249.89 28.1517 250.41 28.2717C251.999 28.5617 253.09 28.6717 253.41 28.6217C253.84 28.5417 252.86 28.1417 249.88 27.3717C256.6 28.8017 257.779 28.8317 253.339 26.6317C252.689 26.5717 251.189 26.1317 249.13 25.3417C251.38 26.2517 252.28 26.7017 251.85 26.8417H251.839Z" fill="currentColor"/>
<path d="M53 25.7205C53.09 25.8605 53.18 25.9805 53.3 26.0905C53.32 25.9005 53.35 25.7005 53.4 25.4805C53.26 25.5605 53.14 25.6405 53 25.7205Z" fill="currentColor"/>
<path d="M272.37 26.1133C269.05 27.9733 269.05 27.9733 272.37 26.1133V26.1133Z" fill="currentColor"/>
<path d="M42.9102 24.8902C42.9202 25.0302 42.9402 25.1702 42.9602 25.2802C42.9702 24.5302 43.0302 23.5802 43.1302 22.4102C43.0402 23.4502 42.9702 24.2502 42.9102 24.8902Z" fill="currentColor"/>
<path d="M42.9698 21.6016C42.6398 26.3216 42.5898 28.2916 42.9098 24.8916C42.8398 24.1916 42.8698 23.1016 42.9698 21.6016Z" fill="currentColor"/>
<path d="M46.3301 25.1211C46.4901 28.7611 48.4701 28.4611 53.0001 25.7111C52.7401 25.3011 52.5801 24.7911 52.5701 24.1211C49.0801 26.3511 47.1301 26.9511 46.3301 25.1111V25.1211Z" fill="currentColor"/>
<path d="M46.4095 22.8516C46.2595 23.1416 46.1195 23.4116 45.9795 23.6716C46.0495 24.2716 46.1695 24.7416 46.3395 25.1216C46.3095 24.4816 46.3395 23.7416 46.4095 22.8516Z" fill="currentColor"/>
<path d="M42.9601 25.2836C42.9101 28.5536 43.7302 27.9436 45.9802 23.6736C45.9202 23.1736 45.9002 22.5936 45.9002 21.9336C44.1202 25.5036 43.2301 26.6436 42.9601 25.2836Z" fill="currentColor"/>
<path d="M262.17 25.4633C262.21 25.3833 262.24 25.2833 262.26 25.1633C262.22 25.0633 262.18 24.9633 262.13 24.8633C262.15 25.0733 262.16 25.2733 262.16 25.4633H262.17Z" fill="currentColor"/>
<path d="M266.92 27.8827C266.92 27.8827 267.64 27.1827 269.16 25.7227C267.73 27.1127 266.99 27.8227 266.92 27.8827Z" fill="currentColor"/>
<path d="M272.37 26.1127C272.45 26.0627 272.52 26.0227 272.61 25.9727C272.53 26.0227 272.46 26.0627 272.37 26.1027V26.1127Z" fill="currentColor"/>
<path d="M267.89 26.9336C267.89 26.9336 267.86 26.9636 267.84 26.9836C267.19 27.6236 266.88 27.9236 266.93 27.8836C266.94 27.8736 267.27 27.5536 267.9 26.9336H267.89Z" fill="currentColor"/>
<path d="M272.37 26.1105C272.45 26.0705 272.52 26.0305 272.6 25.9805C272.52 26.0305 272.45 26.0605 272.37 26.1105Z" fill="currentColor"/>
<path d="M269.16 25.7216C269.16 25.7216 269.24 25.6916 269.28 25.6816C269.44 25.5016 269.62 25.3016 269.81 25.1016C269.58 25.3216 269.37 25.5316 269.16 25.7216Z" fill="currentColor"/>
<path d="M269.15 25.7305C269.15 25.7305 269.13 25.7305 269.12 25.7405C268.62 26.2205 268.22 26.6205 267.89 26.9405C268.23 26.6205 268.65 26.2205 269.15 25.7305Z" fill="currentColor"/>
<path d="M266.81 21.2217C264.99 27.0517 263.67 27.0217 263.52 21.0117C263.67 27.0217 263.67 27.1317 263.52 21.2017C263.52 27.1417 263.37 27.1417 262.29 21.2517C262.41 23.1817 262.42 24.4717 262.26 25.1617C263.78 28.8717 264.23 28.7717 265.92 24.7517C265.13 28.5517 265.46 28.8217 268.69 25.8417C267.11 26.1117 266.73 24.7117 266.81 21.2217Z" fill="currentColor"/>
<path d="M258.4 21.8108C261.06 27.0308 260.17 27.0408 253.45 23.1108C257.86 27.0808 256.88 27.1108 250.42 24.6008C253.14 25.8908 254.02 26.5408 253.6 26.6208C258.5 28.3408 260 28.6108 258.34 27.0108C257.83 26.6508 257.21 26.2008 256.45 25.6608C256.93 25.9708 257.37 26.2508 257.78 26.5008C257.42 26.1908 256.99 25.8308 256.48 25.4208C257.23 25.9908 257.85 26.4608 258.35 26.8408C261.52 28.7108 262.3 28.3808 262.17 25.4508C261.75 26.3808 260.66 25.1208 258.4 21.8008V21.8108Z" fill="currentColor"/>
<path d="M258.34 27.01C260.38 28.46 260.38 28.4 258.34 26.84C258.16 26.73 257.97 26.62 257.77 26.5C257.99 26.69 258.17 26.86 258.33 27.01H258.34Z" fill="currentColor"/>
<path d="M268.79 25.8205C266.58 28.1105 266.25 28.4905 267.83 26.9805C268.17 26.6505 268.59 26.2405 269.11 25.7305C269 25.7605 268.89 25.7905 268.79 25.8105V25.8205Z" fill="currentColor"/>
<path d="M269.769 25.1016C269.539 25.3316 269.319 25.5416 269.109 25.7416C269.319 25.5416 269.529 25.3316 269.769 25.1016Z" fill="currentColor"/>
<path d="M268.689 25.8403C268.689 25.8403 268.759 25.8403 268.789 25.8203C269.009 25.5903 269.249 25.3403 269.509 25.0703C269.209 25.3503 268.939 25.6003 268.689 25.8403Z" fill="currentColor"/>
<path d="M281.6 24.2408C277.49 22.9708 276.2 22.4208 268.71 18.5508C270.38 21.0008 271.72 22.4708 273.1 23.5508C273 23.6208 272.88 23.7008 272.78 23.7608C272.13 23.4408 271.36 23.0408 270.37 22.5308C270.9 23.3108 271.37 23.9008 271.82 24.3708C270.78 25.0108 269.96 25.4508 269.29 25.6808C266.5 28.8008 267.2 28.6508 272.56 25.7008C267.38 28.7808 267.32 28.9508 272.38 26.1108C272.46 25.9408 272.66 25.6908 272.97 25.3708C273.35 25.6308 273.74 25.8508 274.17 26.0608C272.79 26.5108 272.19 26.5508 272.38 26.1108C267.37 28.9408 268.76 28.9008 274.7 26.5008C274.67 26.5108 274.65 26.5308 274.62 26.5408C274.71 26.5008 274.81 26.4608 274.93 26.4108C274.78 26.4708 274.65 26.5208 274.56 26.5608C270.53 28.5808 270.59 28.8708 274.82 27.8908C274.76 27.9508 274.71 28.0108 274.65 28.0608C272.82 28.6008 272.75 28.6708 274.43 28.2908C274.42 28.3008 274.4 28.3208 274.39 28.3308C273.577 28.5308 273.577 28.5308 274.39 28.3308C274.39 28.3308 274.32 28.4008 274.29 28.4408C273.81 28.5808 273.77 28.6208 274.19 28.5508C272.92 29.8908 272.15 30.8408 270.84 32.2908C271.83 31.4508 274.25 30.4308 276.51 29.6108C273.78 32.4608 272.27 34.3308 269.61 37.3008C271.78 35.4708 277.5 33.1708 282.27 31.5308C283.39 29.7708 306.54 28.0708 306.54 28.0708C306.54 28.0708 283.39 26.3708 281.6 24.2308V24.2408ZM273.12 23.9308C273.12 23.9308 273.1 23.9208 273.09 23.9108C273.17 23.8508 273.25 23.7908 273.34 23.7208C273.34 23.7208 273.36 23.7308 273.37 23.7408C273.29 23.8008 273.2 23.8608 273.13 23.9208L273.12 23.9308ZM273.38 23.7608C273.47 23.8308 273.57 23.9008 273.66 23.9708C273.59 24.0208 273.53 24.0608 273.47 24.1008C273.36 24.0508 273.25 24.0008 273.14 23.9408C273.22 23.8808 273.3 23.8208 273.38 23.7608ZM273.68 23.9808C273.79 24.0608 273.9 24.1308 274.01 24.2008C273.96 24.2308 273.92 24.2608 273.87 24.2908C273.75 24.2308 273.62 24.1708 273.49 24.1108C273.55 24.0708 273.61 24.0208 273.68 23.9808ZM274.14 24.2908C274.38 24.4408 274.62 24.5908 274.87 24.7408C274.61 24.6308 274.34 24.5208 274.04 24.3808C274.07 24.3508 274.1 24.3308 274.13 24.3008L274.14 24.2908ZM275.36 26.6208C274.86 26.7908 274.83 26.7808 275.29 26.5908C275.31 26.6008 275.34 26.6108 275.36 26.6208ZM275.39 26.6408C275.104 26.7474 275.104 26.7474 275.39 26.6408V26.6408ZM275.54 26.7108C275.54 26.7108 275.64 26.7508 275.69 26.7808C275.46 26.8208 275.41 26.8008 275.54 26.7108ZM273.15 23.6108C273.21 23.6608 273.27 23.7008 273.33 23.7408C273.25 23.8008 273.16 23.8708 273.08 23.9308C273.01 23.9008 272.94 23.8608 272.87 23.8308C272.96 23.7608 273.05 23.6808 273.14 23.6108H273.15ZM271.97 24.5508C271.97 24.5508 272.05 24.6308 272.1 24.6708C271.84 24.8708 271.6 25.0508 271.39 25.2108C271.6 25.0508 271.83 24.8708 272.09 24.6808C272.09 24.6808 272.09 24.6808 272.1 24.6908C271.84 24.8808 271.6 25.0608 271.38 25.2108C270.75 25.6808 270.35 25.9908 270.21 26.1008C270.33 26.0008 270.73 25.7008 271.37 25.2108C269.41 26.6408 269.61 26.4308 271.95 24.5508H271.97ZM272.14 24.7208C272.2 24.7808 272.26 24.8408 272.33 24.8908C269.79 26.6208 269.74 26.5808 272.14 24.7208ZM272.36 24.9208C272.44 24.9908 272.51 25.0508 272.59 25.1108C270.22 26.6208 270.08 26.5708 272.36 24.9208ZM274.48 26.2308C274.48 26.2308 274.53 26.2608 274.56 26.2708C273.46 26.7308 273.43 26.7208 274.48 26.2308ZM274.59 26.2808C274.59 26.2808 274.59 26.2808 274.6 26.2808C273.894 26.5808 273.89 26.5808 274.59 26.2808ZM274.72 26.3408C274.77 26.3608 274.82 26.3908 274.88 26.4108C273.97 26.7508 273.91 26.7408 274.72 26.3408ZM275.01 26.4708C275.01 26.4708 275.09 26.5108 275.13 26.5208C274.36 26.7908 274.32 26.7708 275.01 26.4708Z" fill="currentColor"/>
<path d="M96.8204 33.7423C96.1004 34.1023 95.4304 34.2023 95.8804 34.0423C93.2604 34.2423 91.7504 34.1923 92.8804 33.5523C86.9404 34.0323 83.6104 33.9123 77.7004 32.9523C77.3404 33.3223 76.3404 33.4723 75.0204 33.5223C73.7004 33.5723 72.0604 33.5223 71.4704 32.9023C67.1604 33.3523 63.9404 33.2423 60.8004 29.6523C57.6504 33.0223 54.5804 32.9123 50.5804 32.1623C49.6104 32.4323 48.4104 32.5523 47.1004 32.5823C45.8004 32.6123 44.4004 32.5623 43.0304 32.5223C42.2104 32.4923 41.4004 32.4723 40.6204 32.3823C39.8204 32.3623 39.0404 32.2923 38.2804 32.1323C37.5004 32.2423 36.7504 32.2623 36.0004 32.2123C35.2604 32.2623 34.5404 32.2323 33.8204 32.1823C33.1204 32.1823 32.4204 32.1623 31.7504 32.1423C31.0704 32.1223 30.4204 32.0923 29.7804 32.0623C28.5104 32.0123 27.3204 31.9423 26.2404 31.8623C24.5104 31.8623 23.0104 31.8223 22.2904 31.0623C22.0304 32.9823 23.9304 33.0423 26.4004 32.9523C27.3704 33.0723 28.5104 33.1623 29.7504 33.2223C30.3704 33.2523 31.0204 33.2823 31.6604 33.2023C32.3404 33.2423 33.0104 33.1723 33.6404 32.9023C34.4304 33.2223 35.1804 33.3423 35.9304 33.0523C36.7004 33.2923 37.4604 33.1223 38.2604 32.6623C39.0004 33.1823 39.7804 33.4023 40.6204 33.3523C41.3904 33.5723 42.2204 33.5423 43.1204 33.3923C43.7304 33.5823 44.3904 33.6723 45.0604 33.7123C45.7204 33.7623 46.3904 33.7623 47.0204 33.7523C48.2804 33.7223 49.4104 33.6023 50.2404 33.3223C54.5304 34.0823 57.6104 34.1923 60.7304 30.7023C63.9104 34.4023 67.1304 34.5123 71.7304 34.0723C72.0204 34.6823 73.6604 34.7423 74.9704 34.7723C76.2804 34.8023 77.2504 34.8123 77.5404 34.7723C83.5804 35.0823 86.9004 35.2023 92.9304 35.3123C91.7204 35.3623 93.2304 35.4223 95.8904 35.4723C95.3704 35.4723 96.0004 35.4823 96.7704 35.4523C98.9704 35.5823 101.3 35.6823 102.19 35.4823C102.98 35.3123 102.61 34.9123 100.71 34.1123C99.4604 34.2223 97.9304 34.0623 96.8304 33.7423H96.8204Z" fill="currentColor"/>
<path d="M100.7 34.1208C100.82 34.1108 100.94 34.1008 101.05 34.0908C101.1 34.0908 101.15 34.0708 101.2 34.0608C100.78 33.9808 100.35 33.8908 99.9102 33.8008C100.2 33.9108 100.46 34.0208 100.7 34.1208Z" fill="currentColor"/>
<path d="M154.131 36.9419C155.401 37.2519 156.041 37.4019 156.031 37.3919C156.031 37.3919 155.561 37.2719 154.691 37.0619C154.491 37.0219 154.281 36.9719 154.051 36.9219C154.081 36.9219 154.101 36.9419 154.131 36.9419Z" fill="currentColor"/>
<path d="M170.95 36.4809C170.95 36.4809 170.97 36.4809 170.98 36.4609C170.72 36.5609 170.71 36.5609 170.95 36.4809Z" fill="currentColor"/>
<path d="M156.69 36.0291C156.76 36.0291 156.83 36.0391 156.87 36.0291C156.67 35.9491 156.47 35.8691 156.25 35.7891C156.41 35.8691 156.55 35.9491 156.7 36.0291H156.69Z" fill="currentColor"/>
<path d="M155.681 36.1305C155.391 36.2105 154.221 36.0605 152.371 35.6905C153.291 36.2905 152.531 36.2705 151.551 35.8905C151.931 36.2505 151.591 36.2405 151.121 35.9005C150.291 36.1905 149.341 36.1605 149.161 35.5105C146.941 36.0705 145.531 36.0205 145.031 34.5405C142.271 35.9105 140.431 35.8505 137.751 34.0505C136.361 35.7105 134.141 35.6305 130.911 35.0405C129.391 35.4705 126.851 35.3905 124.181 35.3005C121.681 35.2105 119.071 35.1305 121.381 34.3105C113.661 34.9405 110.871 34.8505 103.641 26.7305C104.631 31.9005 103.721 33.6505 101.221 34.0505C111.061 36.0305 113.951 36.1205 121.501 36.2605C119.041 36.3005 121.651 36.3905 124.151 36.4805C126.821 36.5705 129.351 36.6605 130.691 36.2605C134.111 36.8205 136.331 36.9005 137.571 35.3905C140.401 37.0305 142.241 37.0905 145.201 35.8805C145.501 37.2105 146.911 37.2605 149.331 36.7605C149.311 37.3405 150.271 37.3705 151.181 37.1105C151.571 37.4205 151.911 37.4305 151.581 37.1205C152.521 37.4405 153.281 37.4605 152.321 37.0305C153.591 37.3105 154.731 37.4105 155.081 37.3705C155.371 37.3405 155.111 37.2005 154.151 36.9305C153.941 36.8805 153.731 36.8305 153.491 36.7705C153.691 36.8205 153.881 36.8705 154.071 36.9105C153.891 36.8605 153.691 36.8105 153.471 36.7405C153.951 36.8605 154.361 36.9605 154.711 37.0505C155.771 37.2805 156.501 37.3805 156.711 37.3505C157.001 37.3105 156.351 37.0105 154.361 36.4305C158.841 37.5405 159.641 37.5905 156.701 36.0205C156.261 35.9605 155.271 35.6305 153.901 35.0605C155.391 35.7205 155.981 36.0505 155.691 36.1305H155.681Z" fill="currentColor"/>
<path d="M22.1104 30.8102C22.1604 30.9002 22.2304 30.9902 22.3004 31.0702C22.3204 30.9402 22.3404 30.8102 22.3804 30.6602C22.2904 30.7102 22.2004 30.7602 22.1104 30.8102Z" fill="currentColor"/>
<path d="M169.49 36.1211C167.217 37.2944 167.217 37.2944 169.49 36.1211V36.1211Z" fill="currentColor"/>
<path d="M15.3506 30.0294C15.3506 30.1294 15.3606 30.2194 15.3806 30.2894C15.4106 29.7794 15.4706 29.1494 15.5606 28.3594C15.4806 29.0594 15.4106 29.5994 15.3606 30.0194L15.3506 30.0294Z" fill="currentColor"/>
<path d="M15.4704 27.8086C15.1404 30.9686 15.0604 32.2886 15.3504 30.0186C15.3204 29.5486 15.3604 28.8186 15.4704 27.8086Z" fill="currentColor"/>
<path d="M17.6504 30.2605C17.6804 32.7105 19.0104 32.5505 22.1204 30.8105C21.9504 30.5305 21.8604 30.1805 21.8704 29.7305C19.4804 31.1505 18.1504 31.5105 17.6604 30.2505L17.6504 30.2605Z" fill="currentColor"/>
<path d="M17.7504 28.7288C17.6404 28.9188 17.5404 29.0988 17.4404 29.2688C17.4704 29.6688 17.5404 29.9888 17.6504 30.2488C17.6504 29.8188 17.6804 29.3188 17.7504 28.7188V28.7288Z" fill="currentColor"/>
<path d="M15.3805 30.2894C15.2705 32.4894 15.8305 32.0994 17.4405 29.2794C17.4105 28.9394 17.4105 28.5594 17.4305 28.1094C16.1505 30.4694 15.5305 31.2194 15.3805 30.2894Z" fill="currentColor"/>
<path d="M162.651 35.4412C162.681 35.3912 162.701 35.3213 162.721 35.2413C162.691 35.1713 162.671 35.1112 162.641 35.0312C162.641 35.1713 162.641 35.3113 162.641 35.4313L162.651 35.4412Z" fill="currentColor"/>
<path d="M165.79 37.1813C165.79 37.1813 166.29 36.7312 167.34 35.7812C166.35 36.6812 165.83 37.1413 165.79 37.1813Z" fill="currentColor"/>
<path d="M167.771 35.3906C167.621 35.5306 167.471 35.6606 167.341 35.7806C167.481 35.6606 167.621 35.5306 167.771 35.3906Z" fill="currentColor"/>
<path d="M169.49 36.1213C169.55 36.0913 169.59 36.0612 169.65 36.0312C169.59 36.0612 169.54 36.0813 169.49 36.1113V36.1213Z" fill="currentColor"/>
<path d="M166.461 36.5703C166.461 36.5703 166.441 36.5903 166.421 36.6003C165.971 37.0103 165.751 37.2103 165.791 37.1803C165.791 37.1803 166.021 36.9603 166.461 36.5703Z" fill="currentColor"/>
<path d="M169.5 36.1191C169.55 36.0891 169.6 36.0691 169.66 36.0391C169.6 36.0691 169.56 36.0891 169.5 36.1191Z" fill="currentColor"/>
<path d="M167.341 35.7789C167.341 35.7789 167.391 35.7589 167.421 35.7589C167.541 35.6389 167.661 35.5089 167.791 35.3789C167.631 35.5189 167.481 35.6589 167.341 35.7789Z" fill="currentColor"/>
<path d="M167.341 35.7812H167.321C166.981 36.0913 166.701 36.3513 166.471 36.5613C166.711 36.3513 166.991 36.0913 167.351 35.7812H167.341Z" fill="currentColor"/>
<path d="M165.87 32.7022C164.51 36.5722 163.63 36.5322 163.67 32.4922C163.63 36.5322 163.63 36.6122 163.67 32.6122C163.54 36.6022 163.43 36.6022 162.84 32.6122C162.88 33.9122 162.86 34.7722 162.73 35.2322C163.67 37.7622 163.97 37.7022 165.2 35.0422C164.58 37.5722 164.8 37.7622 167.04 35.8422C165.98 35.9822 165.75 35.0322 165.88 32.6922L165.87 32.7022Z" fill="currentColor"/>
<path d="M160.201 32.9023C161.871 36.4723 161.27 36.4623 156.84 33.6623C159.71 36.4323 159.051 36.4323 154.771 34.5923C156.571 35.5223 157.141 35.9723 156.861 36.0223C160.111 37.2923 161.11 37.5023 160.04 36.3923C159.71 36.1423 159.301 35.8223 158.801 35.4423C159.121 35.6623 159.401 35.8623 159.671 36.0323C159.441 35.8123 159.151 35.5623 158.821 35.2823C159.311 35.6823 159.71 36.0123 160.04 36.2823C162.12 37.6123 162.661 37.4123 162.641 35.4423C162.341 36.0523 161.631 35.1923 160.191 32.9023H160.201Z" fill="currentColor"/>
<path d="M160.051 36.4008C161.391 37.4208 161.391 37.3808 160.051 36.2908C159.931 36.2108 159.811 36.1308 159.681 36.0508C159.821 36.1808 159.941 36.3008 160.051 36.4108V36.4008Z" fill="currentColor"/>
<path d="M167.101 35.8391C165.571 37.3291 165.331 37.5691 166.431 36.5991C166.661 36.3891 166.961 36.1191 167.321 35.7891C167.241 35.8091 167.171 35.8291 167.101 35.8391Z" fill="currentColor"/>
<path d="M167.771 35.3789C167.611 35.5289 167.461 35.6689 167.311 35.7989C167.451 35.6689 167.601 35.5289 167.771 35.3789Z" fill="currentColor"/>
<path d="M167.03 35.8494C167.03 35.8494 167.07 35.8494 167.1 35.8494C167.26 35.6994 167.42 35.5394 167.6 35.3594C167.39 35.5394 167.21 35.6994 167.03 35.8594V35.8494Z" fill="currentColor"/>
<path d="M175.73 35.0692C173 34.1292 172.14 33.7192 167.2 30.9492C168.27 32.6292 169.13 33.6592 170.03 34.4092C169.96 34.4492 169.88 34.4992 169.81 34.5392C169.38 34.3092 168.87 34.0192 168.22 33.6592C168.56 34.1992 168.86 34.5992 169.15 34.9292C168.44 35.3392 167.87 35.6092 167.42 35.7492C165.48 37.7792 165.95 37.6992 169.62 35.8392C166.07 37.7892 166.02 37.8992 169.49 36.1092C169.55 35.9992 169.69 35.8292 169.9 35.6292C170.15 35.8092 170.41 35.9692 170.69 36.1192C169.75 36.3892 169.35 36.4092 169.48 36.1192C166.05 37.9092 166.99 37.9092 171.03 36.4292C171.01 36.4292 170.99 36.4492 170.97 36.4592C171.03 36.4392 171.1 36.4092 171.18 36.3792C171.08 36.4192 170.99 36.4492 170.93 36.4692C168.17 37.7392 168.21 37.9292 171.07 37.3692C171.03 37.4092 170.99 37.4492 170.95 37.4792C169.71 37.7992 169.66 37.8392 170.8 37.6292C170.8 37.6292 170.78 37.6492 170.77 37.6592C170.217 37.7726 170.217 37.7726 170.77 37.6592C170.77 37.6592 170.72 37.7092 170.7 37.7292C170.37 37.8092 170.35 37.8392 170.63 37.7992C169.75 38.6692 169.21 39.2892 168.3 40.2392C168.99 39.6992 170.63 39.0692 172.17 38.5692C170.27 40.4192 169.22 41.6492 167.36 43.5792C168.86 42.3992 172.75 40.9892 176 39.9892C176.79 38.8292 192.39 38.2192 192.39 38.2192C192.39 38.2192 176.87 36.5392 175.72 35.0692H175.73ZM170.04 34.6692C170.04 34.6692 170.03 34.6692 170.02 34.6592C170.07 34.6192 170.13 34.5792 170.19 34.5392C170.19 34.5392 170.2 34.5392 170.21 34.5492C170.15 34.5892 170.09 34.6292 170.04 34.6692ZM170.22 34.5592C170.28 34.6092 170.34 34.6592 170.41 34.7092C170.36 34.7392 170.32 34.7692 170.28 34.7892C170.21 34.7492 170.14 34.7192 170.06 34.6792C170.11 34.6392 170.17 34.5992 170.22 34.5592ZM170.41 34.7092C170.48 34.7592 170.55 34.8092 170.63 34.8692C170.6 34.8892 170.57 34.9092 170.53 34.9292C170.45 34.8892 170.37 34.8492 170.28 34.7992C170.32 34.7692 170.36 34.7392 170.41 34.7192V34.7092ZM170.71 34.9292C170.87 35.0392 171.03 35.1392 171.19 35.2492C171.02 35.1692 170.84 35.0892 170.64 34.9892C170.66 34.9692 170.68 34.9492 170.71 34.9392V34.9292ZM171.48 36.5192C171.14 36.6192 171.12 36.6192 171.43 36.4992C171.45 36.4992 171.46 36.5192 171.48 36.5192ZM171.5 36.5292C171.307 36.5959 171.307 36.5959 171.5 36.5292V36.5292ZM171.6 36.5792C171.6 36.5792 171.66 36.6092 171.7 36.6292C171.55 36.6492 171.51 36.6292 171.6 36.5792ZM170.07 34.4392C170.07 34.4392 170.15 34.4992 170.19 34.5292C170.13 34.5692 170.07 34.6092 170.02 34.6492C169.98 34.6292 169.93 34.5992 169.88 34.5792C169.94 34.5392 170.01 34.4892 170.07 34.4392ZM169.26 35.0492C169.26 35.0492 169.31 35.1092 169.34 35.1392C169.16 35.2692 169 35.3792 168.85 35.4792C168.99 35.3792 169.16 35.2692 169.34 35.1392C169.16 35.2592 168.99 35.3792 168.85 35.4692C168.42 35.7692 168.14 35.9692 168.04 36.0392C168.12 35.9792 168.4 35.7892 168.84 35.4692C167.49 36.3792 167.63 36.2492 169.25 35.0392L169.26 35.0492ZM169.37 35.1692C169.37 35.1692 169.45 35.2492 169.49 35.2892C167.74 36.3992 167.71 36.3692 169.37 35.1692ZM169.52 35.3092C169.52 35.3092 169.62 35.3992 169.67 35.4392C168.04 36.3992 167.95 36.3692 169.52 35.3092ZM170.91 36.2392C170.91 36.2392 170.95 36.2592 170.96 36.2692C170.21 36.5492 170.19 36.5492 170.91 36.2392ZM170.98 36.2792C170.5 36.4659 170.5 36.4659 170.98 36.2792V36.2792ZM171.07 36.3192C171.07 36.3192 171.14 36.3492 171.17 36.3692C170.55 36.5792 170.51 36.5692 171.07 36.3192ZM171.26 36.4092C171.26 36.4092 171.31 36.4392 171.34 36.4492C170.82 36.6092 170.79 36.5992 171.26 36.4092Z" fill="currentColor"/>
<path d="M249.91 23.5286C251.8 25.5086 251.2 25.4586 248.7 24.0586C249.93 25.3386 249.27 25.2786 247.5 24.5186C248.7 25.2786 248.06 25.2786 246.26 24.9486C245.64 25.2786 243.86 25.2786 241.97 24.9186C239.63 25.2786 237.28 25.2786 235.32 23.7786C231.96 25.2886 228.98 25.2886 225.3 23.4086C222.5 25.2886 218.99 25.2886 214.97 24.9886C211.57 25.2886 207.65 25.2886 203.58 25.2886C199.51 25.2886 195.28 25.2886 196.39 20.7886C189.88 23.7886 185.74 24.7886 181.02 22.5186C178.66 21.3886 176.15 19.4386 173.74 16.8586C173.16 18.7086 172.9 20.3486 172.41 21.5786C171.92 22.8086 171.19 23.6086 170.28 24.1286C169.37 24.6486 168.28 24.8786 167.15 24.9286C165.99 24.9486 164.78 24.7986 164.01 25.4286C161.42 25.0386 159.44 25.1586 159.92 26.1786C157.32 24.5186 155.71 24.8986 154.45 26.6786C153.48 24.4386 152.85 23.5886 151.91 25.8586C150.38 23.0286 148.25 23.7786 145.91 24.7686C144.17 24.6686 142.2 24.7986 140.15 24.6886C138.11 24.5786 135.99 24.2186 133.64 23.6886C132.32 24.4886 130.49 24.8886 128.44 25.0886C126.39 25.2886 124.11 25.2886 122.56 24.4786C117.46 25.2886 113.27 25.2886 109.15 22.3386C105.53 25.2886 101.99 25.2886 98.2403 24.5786C95.7003 25.2886 92.9603 25.2886 90.7003 25.2886H83.6104V23.5386H90.7003C92.9603 23.5386 95.7003 23.5386 98.5903 23.2086C101.99 23.5386 105.53 23.5386 109.24 21.4486C113.27 23.5486 117.46 23.5486 122.19 23.1386C124.11 23.5486 126.39 23.5486 128.5 23.3586C130.61 23.1686 132.56 22.7886 134.13 22.0186C136.31 22.5286 138.32 22.8686 140.28 22.9786C142.24 23.0886 144.14 22.9586 145.27 23.8786C148.06 22.1086 150.09 21.3886 150.95 25.4186C152.64 21.9286 153.37 22.7386 154.2 26.3386C155.6 23.1986 157.11 22.8486 159.76 25.9186C159.55 23.4686 161.66 23.3886 164.62 24.7786C164.99 23.2486 166.18 23.3386 167.63 23.7286C168.46 23.2186 169.54 23.0086 170.5 22.5386C171.45 22.0586 172.28 21.3286 172.94 20.2286C173.6 19.1286 174.09 17.6486 174.66 15.8086C176.99 18.2986 179.22 20.0486 181.35 21.0586C185.62 23.0786 189.49 22.1186 195.2 19.2486C195.3 23.5486 199.52 23.5486 203.6 23.5486C207.68 23.5486 211.59 23.5486 215.18 23.4186C219.01 23.5486 222.51 23.5486 225.46 22.1286C228.99 23.5486 231.97 23.5486 235.08 22.4386C237.29 23.5486 239.63 23.5486 241.77 23.3686C243.87 23.5486 245.64 23.5486 246.58 23.3686C248.06 23.5486 248.7 23.5486 247.96 22.9886C249.36 23.5486 250.06 23.6186 249.39 22.5186C251.4 23.7386 252.04 23.7986 250.71 21.9986C252.5 23.7786 252.57 25.5286 250.1 23.4586C252.49 25.5386 252.41 25.5386 249.91 23.5586V23.5286Z" fill="currentColor"/>
<path d="M247.641 28.3589C249.381 29.0589 250.811 29.0689 251.621 28.3089C252.431 27.5489 252.631 26.0189 251.921 23.6189C257.741 25.7489 259.941 24.4089 258.301 19.6089C259.941 24.4089 257.681 23.1689 253.951 19.5989C253.171 20.6989 250.911 19.4589 250.641 19.1289C250.911 19.4589 250.971 22.0289 249.291 23.1989C250.191 25.1889 250.651 26.8189 250.451 27.7889C250.251 28.7589 249.391 29.0489 247.641 28.3489V28.3589Z" fill="currentColor"/>
</svg>
