<svg width="247" height="243" viewBox="0 0 247 243" fill="none" xmlns="http://www.w3.org/2000/svg">
<path d="M114.04 8.72016C115.78 32.4002 115.61 35.3002 103.82 20.4602C113.33 39.0402 111.22 54.8802 86.5699 55.5302C109.2 58.9202 109.28 62.1102 96.3399 80.3802C106.42 70.0702 103.48 74.8401 96.3599 85.5302C100.11 81.5702 99.6699 83.5202 97.5999 87.9602C97.2499 89.4302 95.2699 93.3801 93.2399 97.4202C90.5399 102.8 87.7599 108.33 85.0099 113.81C82.2499 119.3 79.5299 124.73 78.8999 120.99C74.3199 135.1 71.8399 140.03 60.7399 145.4C67.3399 149 29.9099 186.23 22.8799 196.08C59.2699 161.56 28.8899 198.93 26.1699 203.36C26.9899 202.72 38.2599 187.63 28.2199 203.73C28.9599 202.62 61.9699 155.34 32.6799 203.23C36.6799 197.71 38.8299 196.33 38.2599 202.66C42.2099 192.45 43.4299 189.95 41.4999 197.26C46.8299 187.78 50.2399 173.77 55.1799 196.86C50.1999 186.82 78.5599 149.83 81.9199 152.72C79.7699 149.03 77.0299 156.59 86.7599 161.87C78.1999 155.61 77.3799 153.66 85.6999 149.18C79.1999 152.57 81.5399 153.55 91.4899 155.26C82.1999 153.06 80.5099 151.6 87.0899 146.83C79.6999 151.66 81.8499 152.66 92.3499 152.99C84.1899 151.49 89.1099 142.7 96.5699 136.03C90.0899 142.14 86.1399 150.35 93.8199 150.24C85.8499 150.42 89.4999 142.27 96.0199 136.15C89.7299 141.73 86.3099 149.34 94.0699 148.34C87.2399 148.71 91.5899 140.49 97.3499 135.2C90.6899 140.02 85.4399 147.78 92.7999 146.56C83.1099 148.3 86.0299 141.06 93.3499 135.47C86.2299 140.93 83.4999 148.05 93.0299 146.19C86.2199 147.39 91.6599 139.61 97.8499 135.16C92.6699 140 88.2399 148.16 94.3799 147.72C87.0299 148.86 90.2499 141.39 96.1199 136.08C90.1299 141.84 86.7699 149.76 94.2899 149.2C87.5999 149.47 91.7799 141.28 97.4499 135.74C90.7499 141.82 85.5299 150.56 92.9499 151.54C82.6399 151.88 80.2399 151.08 87.3599 146.26C80.7599 150.82 83.6299 151.38 93.2999 150.83C85.9799 150.17 90.1899 141.8 96.0699 136.09C90.4399 141.3 87.6799 148.57 94.8199 147.27C89.9899 147.56 95.0799 139.29 99.1899 135.3C94.8699 138.44 94.3199 139.25 98.9699 137.97C102.03 137.29 66.5899 159.07 95.0899 134.35C91.4599 138.01 92.6799 136.02 96.9099 131.68C91.5699 133.53 90.7099 132.8 94.3599 128.35C88.1899 131.39 86.5299 130.7 89.0599 124.14C88.7399 130.49 91.9299 130.92 96.3099 129.11C93.3999 132.14 91.6699 132.93 92.5799 128.78C92.0299 133.42 96.3299 132.88 100.13 131.82C100.91 132.17 101.19 131.99 100.38 131.43C97.2499 131.97 93.0199 132.13 91.9599 127.16C92.0999 131.58 96.5199 130.81 100.25 129.49C102.76 128.84 104.59 127.65 105.24 125.95C106.54 122.55 103.12 117.14 95.9099 107.34C110.76 120.75 110.44 116.61 106.49 100.49C111.4 117.92 112.47 122.38 102.98 102.94C113.98 126.8 114.41 126.75 110.75 100.54C115.01 122.13 115.16 117.56 115.22 99.1302C115.16 117.57 115.07 122.13 113.75 100.21C115.42 126.78 115.87 108.57 122.81 82.8002C117.67 104.29 119.03 99.9302 124.46 82.1802C119.81 100.41 119.24 123.55 140.08 113.59C133.52 119.03 129.35 122.82 127.52 125.64C125.69 128.46 126.21 130.3 128.86 129.92C130.36 131.65 132.4 132.82 135.01 133.4C137.88 134.16 141.33 134.33 143.77 131.95C141.2 134.14 138.33 133.89 136.41 133.03C135.11 132.63 134.76 131.62 135.33 130.18C135.63 130.81 136.85 131 138.44 130.69C140.65 130.93 143.23 130.67 145.17 128.84C143.84 131.04 141.87 131.68 139.79 131.32C139.13 132.28 138.37 132.25 138.05 131.28C137.65 133.91 137.68 135.62 137.63 135.75C140.07 137.49 142.43 137.67 143.58 134.31C141.93 138.62 139.08 139.4 136.14 138.31C135.84 138.55 135.46 136.92 135.73 133.59C135.25 137.72 135.43 140.15 135.45 140.48C138.49 142.02 141.37 141.46 142.62 136.81C141.29 141.65 139.71 143.17 137.47 142.63C141.38 144.2 144.62 143.71 145.22 138.53C145.11 143.96 142.33 144.69 137.73 142.76C139.62 143.06 139.71 140.68 139.3 135.26C138.91 140.33 138.02 142.36 136.4 141.95C139.43 143.21 141.72 142.03 142.55 136.84C141.58 141.61 139.14 142.37 136.22 140.85C137.25 140.91 137.79 138.68 138.34 134.1C138.6 138.2 138.87 139.95 137.88 139.19C141.62 140.82 144.11 139.94 144.6 134.93C144.3 140.07 142.02 141.06 138.25 139.42C139.72 140.4 139.7 138.74 139.33 134.36C139.02 139.29 138.35 141.49 136.77 141.22C139.91 142.81 142.13 141.92 142.71 136.89C141.28 141.84 139.6 143.41 137.36 142.96C141.3 144.55 144.67 144.12 145.42 139.06C145.42 144.81 143.61 146.25 139.46 145.63C144.55 147.18 147.28 146.66 147.03 142.02C149.03 147.73 147.93 149.25 142.79 149.57C149.11 150.57 151.39 150.37 151.06 148.73C152.78 151.21 151.88 152.25 147.05 154.35C152.87 153.52 154.77 153.74 155.47 156.39C158.32 155.91 206.49 221.05 211.49 228.38C211.49 224.34 131.82 115.24 219.39 231.66C120.55 93.6302 222.96 230.76 224.96 233.26C212.28 214.16 171.74 162.04 233.57 232.48C229.77 227.27 176.46 170.73 204.01 185.4C197.71 178.63 164.72 148.94 163.85 139.84C160.22 139.97 157.74 135.04 154.33 126.8C152.54 124.67 149.81 119.24 147.06 113.76C144.31 108.28 141.53 102.75 138.83 97.3602C136.8 93.3202 134.82 89.3701 134.54 88.2001C132.36 83.5602 131.89 81.7001 135.53 86.1102C128.52 74.9702 125.61 70.1002 134.82 81.4402C122.49 62.0202 122.27 58.8102 144.76 55.0502C120.25 54.7702 118.44 38.9602 122.01 18.6902C116.2 35.2402 115.78 32.3402 114.04 8.66016V8.72016Z" fill="currentColor"/>
</svg>
