<svg width="451" height="403" viewBox="0 0 451 403" fill="none" xmlns="http://www.w3.org/2000/svg">
<path d="M372.243 117.59C367.915 122.112 363.518 126.556 359.129 131.016L345.829 144.25C336.934 153.047 327.908 161.713 318.944 170.432C309.926 179.105 300.877 187.732 291.951 196.491C289.707 198.667 287.454 200.835 285.201 203.011C282.949 205.187 280.418 207.741 278.428 209.501C275.967 212.008 272.727 215.357 271.609 215.952C268.5 219.339 265.53 222.295 264.858 222.464C263.632 224.193 263.532 224.092 264.75 222.356C264.612 222.603 266.556 220.767 269.248 218.128C269.194 217.973 271.285 215.736 273.483 213.397C274.077 212.927 276.214 210.828 277.927 209.092C279.122 207.849 280.858 206.036 282.339 204.562C283.82 203.088 285.294 201.622 286.767 200.148C288.241 198.674 289.707 197.193 291.172 195.704C300.005 186.845 309.016 178.156 318.003 169.46L372.259 117.605L372.243 117.59Z" fill="currentColor"/>
<path d="M263.663 220.109C262.545 221.938 261.125 226.306 262.213 224.724C261.125 226.306 265.607 225.31 266.934 223.674C265.607 225.31 262.545 221.938 263.663 220.109Z" fill="currentColor"/>
<path d="M400.371 106.348C390.134 114.952 379.272 122.869 368.912 131.341C358.883 139.544 349.194 148.202 339.52 156.921C335.439 160.602 331.358 164.283 327.277 167.956C325.156 169.87 322.864 171.629 321.028 173.828C320.172 174.854 319.37 175.935 318.537 176.984C317.703 178.034 316.901 179.068 315.898 179.862C315.698 180.017 315.219 180.325 315.219 180.325C315.219 180.325 315.435 179.901 315.536 179.77C315.682 179.577 315.844 179.392 315.991 179.199C316.176 178.952 316.361 178.697 316.515 178.427C316.593 178.288 316.77 178.034 316.724 177.864C316.701 177.764 316.539 177.725 316.539 177.725C316.539 177.725 309.457 186.352 309.333 184.932C309.21 183.512 307.559 185.357 307.559 185.357L314.656 178.581C314.656 178.581 314.078 179.824 313.615 180.333C311.856 182.309 309.588 183.697 307.551 185.357C307.49 185.411 307.428 185.457 307.366 185.511C305.376 187.162 303.332 188.736 301.318 190.357C297.106 193.744 292.932 197.178 288.798 200.658C280.566 207.588 272.489 214.702 264.582 221.987C273.13 215.196 281.7 208.436 290.294 201.7C297.947 195.704 305.63 189.739 313.26 183.728C314.232 182.964 315.675 180.989 315.675 180.989L315.975 181.506C315.975 181.506 316.377 180.827 316.577 180.472C316.778 180.117 317.449 180.472 317.449 180.472C317.449 180.472 316.924 180.279 317.017 180.04C317.109 179.801 317.503 179.77 317.626 179.994C319.339 178.404 321.059 176.814 322.772 175.225C327.532 171.197 332.199 167.068 336.781 162.84C340.361 159.537 346.154 155.764 347.458 150.933C347.227 151.759 348.708 151.628 349.34 151.049C366.027 135.794 383.037 120.885 400.348 106.348H400.371Z" fill="currentColor"/>
<path d="M268.74 223.531C268.285 224.372 259.644 227.382 259.174 226.517C259.344 227.505 260.462 225.36 261.912 221.71C262.275 221.471 263.147 219.125 263.324 217.242C263.594 219.063 268.285 224.372 268.74 223.531Z" fill="currentColor"/>
<path d="M274.448 79.1795C274.039 85.4221 273.522 91.657 273.028 97.8919L271.346 116.581C270.189 129.043 268.839 141.482 267.574 153.921C266.239 166.36 264.851 178.791 263.64 191.238C263.316 194.348 262.992 197.457 262.66 200.567C262.328 203.677 262.035 207.265 261.642 209.896C261.364 213.4 261.032 218.045 260.562 219.218C260.353 223.809 259.975 227.984 259.574 228.547C259.744 230.661 259.605 230.646 259.42 228.532C259.474 228.809 259.783 226.147 260.145 222.405C260.006 222.32 260.168 219.264 260.353 216.054C260.508 215.306 260.793 212.335 260.986 209.896C261.102 208.176 261.271 205.668 261.457 203.592C261.642 201.516 261.827 199.441 262.012 197.365C262.189 195.289 262.367 193.213 262.529 191.13C263.601 178.66 264.928 166.213 266.216 153.775L274.455 79.1641L274.448 79.1795Z" fill="currentColor"/>
<path d="M257.144 227.535C257.468 229.657 259.181 233.909 258.996 232.003C259.181 233.909 261.966 230.267 261.935 228.168C261.966 230.275 257.461 229.665 257.137 227.535H257.144Z" fill="currentColor"/>
<path d="M288.766 52.4883C286.452 65.6603 283.219 78.7088 280.727 91.8577C278.321 104.59 276.461 117.445 274.648 130.355C273.885 135.795 273.121 141.243 272.365 146.683C271.972 149.515 271.347 152.332 271.354 155.202C271.354 156.545 271.439 157.88 271.47 159.222C271.501 160.565 271.555 161.869 271.3 163.127C271.246 163.374 271.077 163.914 271.077 163.914C271.077 163.914 270.969 163.451 270.961 163.281C270.953 163.034 270.961 162.795 270.938 162.548C270.922 162.24 270.899 161.923 270.845 161.622C270.814 161.468 270.791 161.159 270.645 161.051C270.56 160.989 270.413 161.067 270.413 161.067C270.413 161.067 270.537 172.232 269.526 171.221C268.515 170.211 268.438 172.688 268.438 172.688L269.526 162.934C269.526 162.934 269.881 164.261 269.858 164.948C269.773 167.595 268.94 170.11 268.438 172.688C268.423 172.765 268.407 172.842 268.392 172.927C267.929 175.466 267.374 177.997 266.872 180.528C265.823 185.829 264.836 191.145 263.902 196.47C262.051 207.072 260.438 217.705 259.058 228.377C261.241 217.682 263.463 206.987 265.715 196.308C267.721 186.793 269.773 177.287 271.763 167.772C272.018 166.561 271.856 164.122 271.856 164.122L272.419 164.331C272.419 164.331 272.288 163.551 272.218 163.15C272.149 162.749 272.89 162.594 272.89 162.594C272.89 162.594 272.365 162.78 272.28 162.54C272.195 162.301 272.481 162.023 272.72 162.116C273.013 159.793 273.306 157.471 273.599 155.148C274.656 149.006 275.582 142.833 276.376 136.652C276.994 131.821 279.007 125.201 276.909 120.663C277.264 121.443 278.313 120.393 278.429 119.537C281.406 97.1203 284.862 74.7657 288.781 52.496L288.766 52.4883Z" fill="currentColor"/>
<path d="M263.231 226.89C263.424 227.831 258.741 235.686 257.823 235.331C258.587 235.98 258.062 233.618 256.836 229.884C256.959 229.467 256.126 227.106 255.046 225.547C256.427 226.774 263.424 227.823 263.231 226.882V226.89Z" fill="currentColor"/>
<path d="M174.839 112.641C178.542 117.687 182.152 122.795 185.778 127.888L196.501 143.29C203.621 153.576 210.58 163.978 217.608 174.318C224.581 184.705 231.501 195.122 238.575 205.439C240.327 208.031 242.078 210.624 243.821 213.217C245.565 215.81 247.648 218.75 249.036 221.018C251.08 223.881 253.811 227.654 254.205 228.85C256.997 232.5 259.389 235.942 259.443 236.636C260.932 238.149 260.816 238.226 259.319 236.721C259.543 236.899 258.062 234.661 255.933 231.559C255.771 231.582 253.935 229.136 252.006 226.566C251.644 225.895 249.954 223.434 248.535 221.443C247.516 220.054 246.035 218.024 244.847 216.311C243.659 214.598 242.463 212.893 241.268 211.18C240.072 209.467 238.868 207.769 237.657 206.071C230.468 195.832 223.486 185.445 216.474 175.082L174.839 112.633V112.641Z" fill="currentColor"/>
<path d="M256.92 237.409C258.532 238.829 262.582 240.982 261.209 239.639C262.574 240.982 262.374 236.398 260.993 234.809C262.374 236.398 258.524 238.829 256.912 237.409H256.92Z" fill="currentColor"/>
<path d="M168.66 82.9843C175.348 94.5667 181.257 106.635 187.799 118.31C194.133 129.615 200.975 140.657 207.88 151.707C210.796 156.368 213.704 161.029 216.62 165.682C218.132 168.105 219.475 170.666 221.318 172.858C222.182 173.884 223.108 174.856 223.988 175.86C224.867 176.863 225.754 177.827 226.364 178.962C226.487 179.185 226.695 179.71 226.695 179.71C226.695 179.71 226.317 179.425 226.202 179.301C226.04 179.124 225.885 178.931 225.716 178.753C225.5 178.53 225.284 178.298 225.044 178.097C224.921 177.997 224.697 177.781 224.52 177.789C224.42 177.796 224.35 177.951 224.35 177.951C224.35 177.951 231.617 186.423 230.19 186.3C228.763 186.177 230.298 188.121 230.298 188.121L224.859 179.949C224.859 179.949 225.978 180.736 226.402 181.277C228.038 183.352 229.017 185.822 230.29 188.121C230.329 188.191 230.367 188.26 230.406 188.329C231.687 190.575 232.882 192.867 234.132 195.128C236.739 199.866 239.393 204.573 242.101 209.256C247.493 218.57 253.094 227.753 258.895 236.82C253.696 227.22 248.519 217.606 243.389 207.976C238.815 199.395 234.279 190.799 229.681 182.226C229.094 181.138 227.405 179.371 227.405 179.371L227.968 179.162C227.968 179.162 227.366 178.653 227.058 178.391C226.749 178.128 227.212 177.534 227.212 177.534C227.212 177.534 226.927 178.013 226.711 177.881C226.495 177.75 226.533 177.357 226.772 177.272C225.507 175.304 224.234 173.336 222.969 171.369C219.829 165.983 216.574 160.666 213.211 155.411C210.58 151.314 207.872 144.947 203.344 142.825C204.115 143.196 204.246 141.714 203.783 140.989C191.664 121.898 179.938 102.561 168.629 82.9766L168.66 82.9843Z" fill="currentColor"/>
<path d="M261.171 233C261.919 233.594 263.385 242.622 262.452 242.947C263.454 242.954 261.534 241.473 258.193 239.412C258.024 239.011 255.863 237.746 254.035 237.244C255.879 237.298 261.919 233.602 261.163 233.008L261.171 233Z" fill="currentColor"/>
<path d="M120.784 314.729C121.463 312.7 125.251 311.365 129.069 309.845C130.527 308.201 134.392 306.519 137.254 304.813C137.092 304.829 141.343 302.282 145.432 299.751L153.609 294.689C154.974 293.848 156.348 293.015 157.721 292.189C159.094 291.364 160.475 290.538 161.856 289.72C163.368 288.84 171.962 284.581 167.665 286.564C174.623 283.153 178.334 281.325 170.195 284.89C178.866 281.024 183.024 279.141 175.456 282.49C183.556 278.855 183.279 278.94 174.399 282.513C183.279 278.932 184.652 278.361 178.935 280.746C184.791 278.3 184.343 278.454 176.505 281.332C184.845 278.284 185.184 278.153 178.773 280.314C185.323 278.099 185.524 278.022 183.51 278.778C185.624 277.991 185.686 277.991 188.632 278.439C185.74 277.999 185.709 278.006 187.753 278.755C185.747 277.96 185.894 277.891 191.425 275.043C186.179 277.682 186.11 277.705 190.615 275.136C188.44 276.355 187.637 276.772 188.362 276.224C189.088 275.676 192.135 274.349 195.29 271.509C192.235 274.264 189.458 275.406 189.319 275.483C189.18 275.56 190.9 274.395 194.472 271.972C191.093 274.241 190.314 274.742 191.386 273.955C192.459 273.168 197.62 271.88 199.409 268.253C197.867 271.71 194.202 272.273 193.971 272.126C194.387 272.181 198.399 271.586 199.726 268.153C198.9 271.247 198.029 270.984 197.766 269.534C200.459 269.318 205.157 268.847 203.83 265.382C204.254 269.642 211.382 267.211 208.52 262.982C211.321 264.487 213.635 265.251 214.105 265.39C215.455 264.981 215.525 263.646 213.434 261.107C216.759 263.253 218.958 264.41 218.927 264.973C220.647 264.271 220.871 262.512 218.487 259.711C222.02 262.242 223.687 263.808 223.316 264.757C225.245 263.692 225.793 261.509 223.617 258.7C226.333 261.416 226.495 263.723 225.214 265.043C226.286 264.04 225.824 262.134 223.031 259.325C225.893 261.578 226.448 261.972 225.176 261.964C226.757 259.641 226.981 256.624 224.89 254.201C228.547 257.527 229.55 253.584 228.4 250.15C231.633 251.77 233.067 249.031 232.682 247.063C235.482 247.534 236.979 245.744 237.256 244.525C238.236 245.096 238.213 245.111 237.233 244.54C238.213 245.111 240.466 243.46 239.949 242.742C240.458 243.452 240.628 243.714 240.149 243.035C240.628 243.714 238.452 245.551 237.534 244.965C238.46 245.559 238.452 245.559 237.534 244.965C238.46 245.559 238.444 245.566 237.519 244.972C237.233 246.276 235.767 248.36 233.121 247.719C233.507 249.919 232.157 252.943 229.118 250.922C230.29 254.71 229.403 258.654 225.97 254.826C228.061 257.334 227.791 260.413 226.294 262.728C227.552 262.535 227.166 261.833 224.474 259.471C227.12 262.311 227.312 264.796 226.217 266.154C227.32 265.074 227.089 262.905 224.42 259.988C227.089 262.905 227.204 265.29 226.032 266.501C226.996 265.321 226.61 263.021 223.88 260.089C226.124 263.114 225.662 265.567 223.91 266.663C224.165 265.737 222.514 264.001 218.888 261.215C221.488 264.279 221.442 266.262 219.86 267.01C219.822 266.463 217.585 265.159 214.005 262.705C216.474 265.552 216.682 267.065 215.409 267.504C214.954 267.358 212.493 266.455 209.292 264.611C211.313 267.003 210.433 268.77 208.998 269.31C207.571 269.85 205.488 269.217 204.817 266.995C207.016 270.977 199.98 271.062 196.694 271.733C196.177 273.346 196.555 273.87 198.036 271.309C195.938 274.295 191.17 275.066 190.854 275.36C190.538 275.653 194.164 275.283 196.632 273.014C193.979 275.445 189.581 276.232 188.609 276.826C187.637 277.42 188.278 277.42 190.322 277.111C185.994 277.945 185.94 278.03 189.288 280.152C185.801 278.03 185.786 278.037 188.933 280.53C185.786 278.037 185.763 278.03 188.409 280.476C185.716 278.03 185.662 278.03 183.988 280.784C185.562 278.053 185.385 278.184 179.576 282.189C185.254 278.238 184.953 278.431 177.462 283.13C184.505 278.685 184.906 278.423 179.614 281.919C184.768 278.5 183.518 279.28 175.371 284.295C183.518 279.28 183.765 279.118 176.251 283.794C183.248 279.411 179.367 281.741 171.19 286.618C178.835 282.027 175.333 284.095 168.59 288.053C172.718 285.561 164.355 290.43 162.82 291.31C161.431 292.104 160.043 292.899 158.654 293.702C157.266 294.504 155.877 295.299 154.496 296.102C151.727 297.707 148.957 299.319 146.18 300.924C143.403 302.529 140.487 304.134 137.825 305.701C134.902 307.26 130.967 308.795 129.386 310.323C125.536 311.704 121.602 312.877 120.823 314.706L120.784 314.729Z" fill="currentColor"/>
<path d="M241.19 246.578C241.545 247.265 244.099 241.061 244.438 240.004C244.099 241.061 238.066 241.37 237.117 240.482C238.066 241.377 241.545 247.273 241.19 246.586V246.578Z" fill="currentColor"/>
<path d="M209.446 385.236C208.659 383.245 210.711 379.788 212.647 376.169C212.709 373.977 214.591 370.196 215.687 367.048C215.571 367.164 217.191 362.48 218.695 357.912L221.704 348.775C222.213 347.255 222.722 345.735 223.247 344.215C223.772 342.695 224.296 341.182 224.828 339.67C225.422 338.026 229.272 329.237 227.251 333.52C230.383 326.436 232.057 322.647 228.107 330.611C232.265 322.076 234.24 317.956 230.599 325.387C234.471 317.392 234.309 317.632 229.804 326.089C234.309 317.639 234.996 316.32 232.142 321.822C235.05 316.181 234.811 316.59 230.653 323.828C235.081 316.135 235.258 315.811 231.733 321.582C235.328 315.672 235.428 315.486 234.379 317.362C235.497 315.402 235.536 315.363 238.082 313.812C235.582 315.332 235.559 315.363 237.611 314.622C235.567 315.309 235.629 315.162 238.035 309.421C235.713 314.815 235.675 314.885 237.48 310.015C236.593 312.346 236.246 313.187 236.454 312.3C236.662 311.412 238.136 308.434 238.73 304.236C238.159 308.318 236.763 310.972 236.716 311.119C236.67 311.266 237.233 309.267 238.413 305.116C237.287 309.028 237.009 309.907 237.326 308.619C237.642 307.33 240.774 303.017 239.802 299.089C240.844 302.723 238.398 305.517 238.12 305.555C238.475 305.324 241.16 302.291 239.972 298.819C241.322 301.72 240.489 302.075 239.362 301.134C241.283 299.236 244.585 295.863 241.337 294.058C244.4 297.044 248.303 290.601 243.389 289.204C246.498 288.564 248.766 287.653 249.221 287.453C250.001 286.272 249.183 285.207 245.95 284.605C249.877 284.111 252.307 283.587 252.647 284.034C253.511 282.383 252.554 280.894 248.928 280.292C253.264 279.96 255.539 280.083 255.871 281.056C256.666 279.003 255.678 276.974 252.207 276.225C256.033 276.565 257.638 278.224 257.507 280.06C257.684 278.602 256.103 277.437 252.161 277.082C255.802 276.966 256.481 276.912 255.501 277.722C255.215 274.929 253.449 272.467 250.294 271.958C255.239 272.151 253.472 268.493 250.379 266.603C253.896 265.762 253.233 262.744 251.675 261.487C254.12 260.044 254.12 257.721 253.541 256.602C254.66 256.409 254.652 256.44 253.534 256.633C254.652 256.44 255.308 253.732 254.459 253.508C255.308 253.724 255.601 253.816 254.799 253.6C255.601 253.816 255.123 256.618 254.035 256.756C255.123 256.618 255.123 256.625 254.035 256.764C255.123 256.625 255.115 256.641 254.035 256.787C254.652 257.968 254.868 260.514 252.431 261.718C254.135 263.161 255.046 266.34 251.428 266.742C254.768 268.894 256.612 272.483 251.528 271.757C254.737 272.336 256.512 274.867 256.859 277.606C257.7 276.649 256.951 276.364 253.372 276.287C257.229 276.758 258.965 278.54 259.003 280.284C259.15 278.748 257.584 277.236 253.665 276.719C257.584 277.236 259.204 278.988 259.088 280.67C259.065 279.15 257.298 277.629 253.318 277.143C256.982 278.015 258.209 280.199 257.561 282.167C257.16 281.295 254.783 281.025 250.209 281.225C254.166 281.904 255.408 283.455 254.675 285.037C254.29 284.636 251.744 285.084 247.424 285.5C251.142 286.094 252.276 287.121 251.59 288.278C251.142 288.456 248.681 289.351 245.048 289.999C248.134 290.531 248.597 292.453 247.84 293.788C247.092 295.115 245.094 295.972 243.15 294.706C247.393 296.342 242.055 300.933 239.972 303.557C240.612 305.123 241.237 305.285 240.728 302.368C241.044 306.003 237.881 309.661 237.827 310.093C237.773 310.525 240.319 307.909 240.751 304.583C240.28 308.148 237.418 311.582 237.048 312.662C236.678 313.743 237.179 313.326 238.545 311.783C235.76 315.209 235.783 315.301 239.71 314.769C235.675 315.386 235.667 315.402 239.679 315.286C235.667 315.402 235.644 315.417 239.239 315.579C235.605 315.44 235.567 315.471 236.045 318.658C235.497 315.556 235.443 315.764 233.569 322.57C235.374 315.895 235.274 316.235 232.551 324.654C235.089 316.721 235.227 316.266 233.422 322.339C235.173 316.405 234.718 317.809 231.702 326.884C234.718 317.801 234.811 317.524 232.057 325.935C234.595 318.079 233.121 322.362 229.997 331.351C232.905 322.917 231.548 326.76 228.925 334.122C230.483 329.561 227.204 338.667 226.595 340.326C226.04 341.83 225.492 343.327 224.944 344.832C224.396 346.337 223.849 347.842 223.301 349.346C222.213 352.356 221.125 355.373 220.03 358.39C218.935 361.399 217.739 364.509 216.697 367.418C215.463 370.489 213.434 374.201 213.195 376.385C211.135 379.919 208.875 383.345 209.454 385.251L209.446 385.236Z" fill="currentColor"/>
<path d="M257.885 255.607C258.595 255.908 256.566 249.511 256.149 248.484C256.574 249.511 252.146 253.624 250.85 253.554C252.146 253.631 258.603 255.908 257.893 255.614L257.885 255.607Z" fill="currentColor"/>
<path d="M322.664 382.245C320.781 381.227 320.133 377.26 319.292 373.24C317.927 371.519 316.947 367.422 315.759 364.297C315.744 364.459 313.977 359.829 312.195 355.369C310.413 350.909 308.631 346.441 308.631 346.441C308.045 344.952 307.458 343.455 306.88 341.958C306.301 340.461 305.73 338.964 305.167 337.459C304.566 335.815 301.866 326.61 303.069 331.193C300.917 323.747 299.767 319.78 301.858 328.407C299.559 319.194 298.425 314.772 300.408 322.805C298.24 314.194 298.271 314.479 300.253 323.855C298.271 314.487 297.947 313.036 299.297 319.086C297.9 312.89 297.977 313.368 299.451 321.578C297.9 312.836 297.823 312.473 298.841 319.163C297.792 312.326 297.754 312.11 298.155 314.232C297.754 312.01 297.754 311.956 298.71 309.132C297.769 311.902 297.777 311.941 298.872 310.058C297.746 311.894 297.7 311.74 295.856 305.798C297.545 311.424 297.553 311.501 295.81 306.608C296.627 308.962 296.905 309.826 296.489 309.016C296.072 308.206 295.293 304.973 293.048 301.377C295.231 304.865 295.871 307.797 295.925 307.943C295.979 308.09 295.131 306.192 293.364 302.256C295.015 305.976 295.362 306.832 294.776 305.644C294.19 304.448 293.819 299.139 290.548 296.747C293.681 298.861 293.603 302.573 293.418 302.781C293.542 302.38 293.657 298.329 290.51 296.423C293.411 297.773 293.002 298.591 291.528 298.591C291.783 295.906 292.138 291.191 288.496 291.901C292.763 292.225 291.613 284.779 286.946 286.862C288.913 284.37 290.07 282.217 290.286 281.777C290.124 280.373 288.82 280.079 285.951 281.7C288.643 278.798 290.163 276.831 290.71 276.954C290.317 275.133 288.62 274.608 285.449 276.476C288.55 273.435 290.379 272.07 291.251 272.594C290.541 270.511 288.481 269.585 285.341 271.252C288.489 269.052 290.788 269.292 291.868 270.781C291.065 269.546 289.106 269.678 285.858 271.938C288.574 269.508 289.06 269.029 288.828 270.287C286.815 268.327 283.883 267.579 281.137 269.222C285.048 266.197 281.337 264.523 277.758 265.063C279.91 262.162 277.465 260.271 275.467 260.31C276.416 257.632 274.919 255.85 273.762 255.363C274.495 254.499 274.51 254.522 273.77 255.394C274.503 254.53 273.268 252.022 272.474 252.4C273.268 252.022 273.546 251.899 272.798 252.254C273.554 251.899 274.981 254.36 274.24 255.163C274.981 254.36 274.989 254.36 274.24 255.171C274.981 254.36 274.989 254.383 274.24 255.194C275.475 255.703 277.272 257.509 276.184 260.001C278.414 260.001 281.16 261.853 278.645 264.5C282.58 263.998 286.306 265.565 281.947 268.281C284.778 266.66 287.764 267.455 289.785 269.338C289.816 268.072 289.06 268.327 286.267 270.573C289.522 268.458 291.999 268.698 293.148 270.017C292.277 268.744 290.101 268.597 286.768 270.712C290.101 268.589 292.469 268.89 293.465 270.249C292.469 269.099 290.14 269.076 286.784 271.259C290.155 269.569 292.493 270.457 293.264 272.371C292.4 271.962 290.402 273.281 287.031 276.375C290.494 274.346 292.446 274.74 292.901 276.422C292.354 276.36 290.68 278.343 287.648 281.437C290.88 279.501 292.408 279.555 292.624 280.89C292.4 281.314 291.089 283.575 288.712 286.415C291.42 284.84 293.009 286.013 293.287 287.518C293.565 289.023 292.585 290.96 290.278 291.237C294.583 289.763 293.441 296.708 293.526 300.065C295.023 300.852 295.609 300.574 293.341 298.668C295.918 301.253 295.848 306.084 296.087 306.446C296.327 306.809 296.589 303.175 294.784 300.343C296.712 303.383 296.728 307.843 297.144 308.908C297.561 309.973 297.669 309.332 297.723 307.272C297.792 311.686 297.869 311.748 300.531 308.815C297.831 311.879 297.846 311.902 300.84 309.232C297.839 311.902 297.831 311.925 300.693 309.741C297.815 311.971 297.808 312.025 300.23 314.155C297.815 312.126 297.916 312.326 300.847 318.739C297.947 312.465 298.078 312.789 301.403 320.984C298.247 313.276 298.062 312.836 300.585 318.654C298.116 312.982 298.664 314.348 302.19 323.245C298.664 314.348 298.548 314.078 301.85 322.296C298.749 314.641 300.369 318.87 303.756 327.767C300.562 319.441 301.989 323.253 304.72 330.576C302.976 326.077 306.324 335.159 306.918 336.826C307.458 338.331 307.998 339.836 308.546 341.34C309.094 342.845 309.642 344.35 310.189 345.854C311.293 348.864 312.396 351.873 313.491 354.883C314.587 357.892 315.667 361.048 316.739 363.942C317.765 367.09 318.59 371.234 319.825 373.063C320.519 377.098 320.982 381.173 322.656 382.261L322.664 382.245Z" fill="currentColor"/>
<path d="M276.469 251.797C277.21 251.566 271.54 247.97 270.56 247.453C271.548 247.97 270.799 253.966 269.758 254.745C270.799 253.966 277.21 251.566 276.469 251.797Z" fill="currentColor"/>
<path d="M182.978 241.341C179.344 242.221 177.886 242.622 177.609 242.514C176.976 242.205 177.478 241.395 179.252 239.196C177.015 241.225 175.248 242.051 173.096 241.773C172.263 241.565 170.82 240.184 168.93 236.464C170.319 240.045 170.295 241.465 168.236 241.912C168.868 242.383 167.063 241.889 162.959 240.616C167.526 242.715 166.122 242.244 161.601 240.917C163.97 241.65 163.345 241.619 161.038 241.403C161.84 241.333 159.781 240.855 158.269 240.747C157.312 240.184 153.825 239.35 153.432 239.42C151.002 238.571 148.695 237.984 151.164 238.146C147.793 237.46 145.37 236.974 146.666 237.213C143.534 236.156 142.354 235.415 143.604 234.543C141.328 235.137 138.582 233.918 136.684 232.05C133.475 231.024 130.481 229.01 127.897 227.004C133.714 231.611 133.667 232.05 131.793 230.885C131.191 231.148 128.453 229.689 126.177 228.339C128.105 229.635 131.77 231.402 126.208 228.933C128.113 230.029 131.183 231.425 131.955 231.587C133.93 232.822 133.93 232.992 126.609 230.137C129.671 231.541 130.096 231.958 127.102 231.649C131.037 232.498 131.646 232.66 128.73 232.228C132.233 233.27 135.156 233.362 129.671 235.994C131.708 234.659 134.292 235.345 137.409 237.259C138.898 237.305 141.444 238.941 142.971 240.824C141.891 238.733 140.155 238.471 140.85 242.699C140.418 238.687 140.934 238.517 144.144 241.665C141.266 238.872 141.212 239.489 142.886 243.625C141.351 239.613 141.606 239.18 144.846 241.912C141.552 238.995 141.474 239.559 143.534 243.725C141.845 240.037 144.761 241.133 148.271 243.911C144.938 241.341 142.269 240.508 144.344 243.98C142.238 240.446 144.853 241.194 148.201 243.772C144.984 241.225 142.539 240.539 144.861 243.942C142.732 240.724 145.471 241.657 148.533 244.088C145.532 241.418 142.855 240.261 145.254 243.486C142.608 239.736 144.884 240.261 148.217 242.992C144.915 240.307 142.693 239.829 145.362 243.525C142.994 240.423 145.694 241.642 148.572 244.219C145.663 241.904 142.925 240.948 145.038 243.988C142.701 240.693 145.092 241.333 148.225 243.787C144.984 241.318 142.462 240.647 144.645 244.042C142.57 240.824 145.27 241.727 148.394 244.134C145.093 241.503 142.146 240.33 143.943 243.81C141.706 239.736 141.714 239.103 145 241.951C141.798 239.204 141.891 239.952 144.159 243.864C142.277 240.438 145 241.333 148.225 243.772C145.131 241.364 142.84 240.84 145.193 244.08C143.187 241.341 146.003 242.483 148.626 244.597C146.188 242.391 145.818 242.236 147.908 244.69C146.52 243.641 144.167 241.519 145.301 241.928C142.67 239.481 143.449 239.35 148.626 243.401C145.995 241.457 146.767 241.75 149.443 243.749C147.276 241.349 147.523 241.125 150.169 242.846C147.715 240.438 147.877 240.006 150.955 241.133C148.047 240.523 148.055 241.349 150.084 243.432C147.847 241.766 147.438 241.31 149.945 242.383C147.345 241.426 147.816 242.553 149.598 244.651C148.225 243.633 148.317 243.71 149.713 244.698C148.109 242.745 147.777 241.619 150.331 242.12C147.862 241.38 148.471 242.545 150.223 244.551C149.266 243.972 150.145 244.582 151.465 245.724C151.465 244.798 153.779 243.849 155.816 242.059C154.52 243.741 154.026 244.875 154.55 245.925C154.828 245.377 157.196 245.022 158.276 244.59C157.073 245.176 154.658 245.693 154.52 246.48C154.211 245.639 155.823 244.96 157.412 243.764C155.345 245.269 152.915 246.233 153.339 247.391C153.177 246.727 156.348 246.395 158.523 245.778C156.919 246.341 154.882 246.773 154.975 247.669C155.314 246.99 158.006 246.851 159.171 246.936C158.006 246.851 155.337 247.005 155.013 247.777C154.975 246.982 157.166 246.773 158.793 246.588C156.61 246.936 155.322 247.152 156.062 247.931C157.621 247.275 162.218 247.19 163.947 248.085C162.766 247.306 160.984 247.399 159.95 248.054C161.331 247.514 163.437 247.537 164.217 248.502C163.407 247.645 159.464 248.031 157.166 249.551C156.325 249.737 155.669 251.666 156.872 254.667C155.777 252.731 153.686 251.481 152.923 251.889C152.066 250.832 151.426 251.087 151.873 252.507C151.326 252.26 151.156 253.101 151.326 254.413C151.133 254.652 151.526 255.941 152.244 256.759C151.573 255.902 151.279 254.822 151.511 254.783C151.418 253.888 151.758 253.703 152.197 254.32C152.012 253.888 152.082 254.351 152.251 255.208C152.329 255.37 152.714 256.28 153.154 256.967C152.66 256.473 152.213 255.802 152.167 255.624C151.889 255.1 151.819 254.822 152.066 255.138C151.341 254.721 150.716 254.791 150.863 255.285C150.377 255.539 150.639 256.434 151.603 256.851C150.361 256.357 149.698 255.292 150.091 255.022C149.721 254.374 150.284 254.197 151.31 254.637C150.068 254.189 149.197 254.305 149.474 254.961C148.903 255.231 149.49 256.326 150.878 256.735C149.436 256.319 148.672 255.701 149.027 255.647C148.51 256.211 149.096 257.438 150.585 257.553C149.065 257.584 148.448 256.504 149.011 255.725C148.711 255.678 149.582 255.701 151.087 255.725C149.621 255.47 148.772 255.154 149.143 255.308C148.641 255.578 149.366 256.45 150.871 256.712C149.467 256.388 148.865 255.455 149.42 255.192C149.119 254.868 150.007 255.03 151.333 255.385C150.176 255.223 149.559 255.339 149.96 255.555C149.497 256.134 150.138 257.06 151.495 257.168C150.115 257.121 149.459 256.272 149.922 255.671C149.497 255.609 150.115 255.593 151.326 255.671C149.937 255.439 149.042 255.208 149.359 255.362C148.803 255.709 149.42 256.558 150.863 256.751C149.382 256.319 148.595 255.663 148.934 255.624C148.41 256.188 148.988 257.469 150.454 257.631C148.849 257.715 148.109 256.982 148.356 256.365C147.924 257.291 148.441 258.379 149.775 258.248C148.271 258.919 147.654 258.425 147.523 257.515C147.384 258.827 147.754 259.791 148.248 259.76C147.615 260.223 147.183 259.822 146.52 258.981C146.921 260.177 147.114 260.995 146.497 261.435C146.558 261.597 145.077 263.765 142.948 266.481C140.819 269.198 138.072 272.57 135.727 275.402C133.382 278.241 131.43 280.548 130.89 281.15C131.963 280.919 155.931 252.484 130.505 283.535C160.953 248.101 130.96 284.476 130.42 285.171C134.693 280.541 145.995 266.273 131.153 287.509C132.294 286.151 143.989 268.086 141.791 276.574C142.493 275.502 144.306 272.253 146.234 269.167C148.163 266.08 150.207 263.171 151.387 262.785C151.133 261.79 152.483 260.655 154.25 259.39C154.882 258.634 156.602 257.214 157.25 256.612C159.086 255.115 161.007 253.564 161.084 253.379C163.052 251.843 164.247 250.879 163.245 251.658C165.505 249.96 165.968 249.713 163.854 251.812C167.379 248.51 168.483 247.468 165.05 251.342C168.267 248.301 169.802 246.966 169.593 247.993C171.576 247.175 172.178 248.51 172.625 252.561C172.579 248.162 173.32 246.179 174.114 245.871C175.842 244.165 177.817 243.834 180.849 244.142C178.164 243.494 177.346 243.286 177.848 243.201C177.925 242.661 179.383 242.228 183.009 241.349L182.978 241.341Z" fill="currentColor"/>
<path d="M409.812 169.401C408.069 169.902 406.503 170.689 406.997 170.442C404.821 171.299 403.787 171.654 404.713 171.121C402.892 171.823 402.653 171.793 404.273 170.836C403.17 171.252 404.296 170.55 406.989 169.007C404.705 170.118 401.751 171.577 401.998 171.245C400.169 172.263 399.359 172.649 399.961 172.194C398.889 172.873 399.159 172.742 400.771 171.816C398.742 172.911 396.652 173.837 397.168 173.39C395.263 174.123 394.306 174.432 395.571 173.807C394.059 174.817 393.897 174.871 395.317 173.861C394.36 174.532 396.019 173.591 398.094 172.04C395.988 173.513 394.399 174.331 395.286 173.351C393.944 174.37 394.245 174.007 395.517 172.286C394.607 173.552 395.633 172.726 396.991 170.952C396.829 171.484 398.31 169.987 399.691 168.004C398.511 169.763 397.446 170.867 397.554 170.288C396.389 171.908 395.425 172.68 396.096 171.368C394.314 173.83 393.111 174.794 393.944 173.39C393.01 174.995 393.975 174.463 396.405 172.294C394.638 173.945 392.856 174.324 393.327 173.498C391.83 175.736 392.362 173.907 392.532 172.966C392.085 174.3 391.869 174.331 391.591 172.958C391.845 174.061 392.2 173.837 392.995 172.155C392.648 173.374 393.35 172.549 394.484 169.964C393.319 172.518 392.578 173.313 392.771 171.932C392.031 173.668 391.629 173.822 390.943 172.24C391.467 173.93 390.673 175.072 389.269 172.356C390.441 174.154 390.549 173.297 389.801 170.396C390.557 172.078 390.488 169.609 389.716 166.623C390.472 169.609 390.526 172.063 389.716 170.365C390.472 173.266 390.341 174.1 388.999 172.263C390.449 174.98 390.426 175.28 388.837 173.428C390.256 174.964 390.418 174.702 389.709 172.526C390.526 174.069 390.557 172.803 389.747 169.647C390.511 172.796 390.434 174.061 389.408 172.503C390.187 174.686 389.94 174.949 388.081 173.459C389.878 175.288 389.331 174.925 386.546 172.533C388.706 174.092 388.181 173.182 385.867 170.604C387.579 172.016 386.183 169.732 384.293 167.387C386.214 170.543 386.862 172.055 384.224 170.296C386.183 172.032 384.632 170.743 382.21 168.907C383.367 169.385 382.889 169.593 381.176 168.505C381.94 168.552 381.169 167.888 379.664 166.893C381.254 169.825 376.139 165.866 374.079 165.45C372.86 165.411 370.399 163.96 368.91 163.752C365.933 163.343 363.41 162.988 361.62 162.741L358.797 162.348C358.797 162.348 360.116 163.405 362.099 164.994C363.086 165.789 364.243 166.715 365.478 167.711C366.712 168.706 368.17 169.786 369.358 170.82C370.801 171.893 376.154 173.976 373.238 173.93C375.938 174.717 379.988 175.489 378.939 175.905C381.894 176.338 380.752 176.615 376.617 176.646C378.847 176.677 381.423 176.716 379.796 176.947C382.897 176.855 384.686 176.839 382.079 177.179C385.921 176.97 386.877 176.963 383.506 177.611C386.553 177.117 385.936 177.24 382.526 177.873C385.157 177.387 383.213 177.727 380.019 178.282C383.252 177.742 385.45 177.379 382.897 177.927C386.422 177.264 387.232 177.132 384.362 177.811C387.903 177.071 387.865 177.125 384.324 178.089C387.17 177.341 386.291 177.588 382.812 178.521C385.288 177.858 383.005 178.475 379.911 179.293C383.005 178.475 385.296 177.858 382.82 178.537C386.299 177.603 387.186 177.372 384.362 178.182C387.903 177.217 387.988 177.24 384.586 178.421C387.394 177.526 386.661 177.819 383.298 179.054C385.782 178.213 383.761 179.015 380.675 180.196C383.738 179.046 385.566 178.344 383.059 179.278C386.33 178.074 386.924 177.865 384.077 179.015C387.325 177.835 386.731 178.606 383.375 180.504C385.844 179.355 384.432 180.265 381.662 181.917C383.298 181.16 381.084 182.642 379.132 183.923C381.909 182.21 383.938 181.052 381.979 182.511C384.231 181.346 382.974 182.642 380.96 184.509C381.647 184.517 379.726 186.531 378.214 188.298C381.13 186.083 377.674 191.477 377.173 193.322C376.849 195.436 376.224 197.882 375.799 199.904C374.959 203.955 374.326 206.995 374.326 206.995L376.301 204.935C377.543 203.631 379.309 201.786 381.385 199.618C382.434 198.507 383.784 196.917 384.702 196.146C386.067 194.525 387.749 188.769 388.335 192.349C388.852 190.636 389.053 189.579 388.513 190.05C389.145 188.121 389.354 186.554 388.675 187.773C389.516 184.756 389.979 182.287 389.361 184.965C390.303 182.133 390.503 182.248 390.179 185.142C390.927 182.804 391.282 184.432 391.275 187.31C391.367 184.262 391.059 181.693 390.542 183.792C390.819 180.435 390.657 179.486 389.832 181.924C390.657 178.475 390.866 177.935 390.495 180.296C391.113 178.151 391.491 178.213 392.216 180.234C392.077 178.537 392.941 179.44 394.237 182.241C392.972 179.409 392.154 178.475 392.432 180.034C391.66 178.066 391.336 177.958 391.089 179.849C391.282 177.611 391.475 177.788 391.853 180.582C391.876 178.49 392.478 178.984 393.612 181.523C393.234 179.825 394.669 181.631 395.903 184.432C394.669 181.623 393.242 179.802 393.651 181.461C392.509 178.93 391.915 178.398 391.992 180.366C391.575 177.603 393.126 177.865 393.697 179.332C393.311 177.873 393.743 177.781 395.409 178.614C394.407 177.75 395.487 177.95 397.947 179.123C395.494 177.912 394.422 177.68 395.456 178.336C393.789 177.58 393.35 177.588 393.82 178.452C393.219 177.379 391.799 176.693 392.601 177.14C392.208 176.677 392.902 176.554 394.615 176.615C393.789 176.446 395.448 176.307 397.793 176.422C394.615 176.322 393.504 176.438 395.124 176.893C393.689 176.492 395.17 176.476 397.994 176.993C396.69 176.592 397.863 176.569 399.737 176.901C399.305 176.646 400.833 176.754 402.854 177.163C400.709 176.723 399.112 176.585 399.591 176.777C397.731 176.438 396.736 176.422 398.11 176.677C395.433 176.237 394.491 176.199 396.397 176.098C394.792 176.037 395.047 175.913 396.806 175.62C395.741 175.659 397.508 175.257 399.668 174.856C396.682 175.342 396.204 175.381 398.572 174.802C397.238 175.041 398.025 174.802 399.706 174.37C399.321 174.408 400.709 174.007 402.808 173.436C402.584 173.421 405.299 172.634 407.938 171.839C404.906 172.611 403.594 172.896 404.698 172.433C402.869 172.881 402.954 172.402 404.767 171.615C403.764 171.931 404.798 171.484 406.973 170.573C406.464 170.743 408.046 169.933 409.789 169.431L409.812 169.401Z" fill="currentColor"/>
<path d="M341.186 197.688C341.271 197.557 340.97 197.727 340.353 198.128C340.638 198.097 340.954 198.012 341.186 197.688Z" fill="currentColor"/>
<path d="M364.861 194.635C363.063 190.299 362.77 190.607 363.688 195.006C362.608 191.063 360.687 192.019 357.856 196.194C356.174 195.608 354.269 195.831 352.194 196.487C350.118 197.143 347.874 198.223 345.513 199.365C338.493 202.051 332.923 206.465 326.15 209.335C322.979 210.685 320.063 211.774 317.664 212.985C314.717 214.243 311.963 215.416 309.317 215.701C306.617 215.377 303.508 216.033 303.053 215.107C302.274 217.908 304.241 218.888 306.972 219.482C308.26 220.647 310.312 221.435 312.349 222.299C314.563 222.476 317.047 222.685 319.523 222.901C326.952 223.533 334.327 224.197 334.327 224.197C334.327 224.197 327.075 223.155 319.801 222.06C317.378 221.697 314.948 221.326 312.788 220.979C310.381 219.829 308.183 218.741 306.91 217.777C304.974 217.106 303.963 216.558 304.935 215.948C303.855 216.373 307.581 216.519 312.657 215.562C314.933 214.397 317.602 213.054 320.487 211.781C326.674 209.482 332.229 206.789 338.539 203.092C340.128 202.19 341.656 201.256 343.253 200.43C344.88 199.643 346.485 198.872 348.036 198.115C352.695 195.862 356.899 193.833 360.51 195.746C362.955 190.893 364.799 189.982 366.188 194.211C364.352 189.82 363.943 189.859 364.876 194.612L364.861 194.635Z" fill="currentColor"/>
<path d="M377.852 187.751C374.712 184.657 374.419 184.965 376.756 188.607C375.499 187.033 373.917 186.725 372.112 187.712C370.315 188.607 368.286 190.807 366.141 194.248C359.067 192.952 351.499 196.648 343.947 200.352C341.432 201.586 339.048 202.999 336.657 204.31C332.229 206.795 328.063 208.817 323.265 210.785C321.344 211.61 319.647 212.32 318.258 213.022C315.481 214.427 313.83 215.291 313.861 215.36C314.069 215.792 314.378 216.078 314.786 216.225C315.195 216.371 315.612 216.333 316.052 216.124C316.491 215.916 316.746 215.623 316.877 215.214C317.008 214.812 316.97 214.388 316.761 213.956C316.738 213.902 317.487 213.207 318.844 212.197C328.094 205.368 340.568 201.039 346.763 190.328C348.059 188.885 349.069 187.735 350.759 187.465C354.138 186.933 357.686 188.777 361.706 195.066C362.084 188.268 362.678 183.453 362.801 183.453C364.861 177.704 366.45 176.77 367.669 183.978C371.225 178.746 374.396 181.655 378.693 186.786C377.05 184.896 375.653 183.291 374.457 182.087C374.982 181.462 375.013 181.045 374.126 180.775C372.652 180.173 369.011 180.173 368.548 183.985C369.25 180.629 371.603 180.428 372.637 181.061C373.671 181.693 375.63 184.147 378.16 187.234C373.532 181.431 375.345 184.348 377.836 187.751H377.852Z" fill="currentColor"/>
<path d="M305.908 203.655C304.666 203.007 303.971 203.347 302.938 202.984C319.115 206.294 334.744 197.86 344.912 185.221C346.593 188.693 346.215 191.448 346.169 194.897C349.324 190.792 350.42 185.977 353.583 181.903C356.051 178.669 358.52 176.532 358.612 180.853C359.993 179.194 361.397 178.068 362.794 177.473C367.106 176.177 372.599 178.662 370.115 184.156C375.353 179.048 383.954 180.876 390.519 180.274C389.47 181.64 389.107 182.674 387.719 183.346C389.825 180.614 393.628 179.626 395.402 176.192C391.954 176.146 388.814 178.523 386.037 179.873C388.12 178.862 390.897 177.52 392.98 176.509C388.814 178.531 384.625 182.273 379.788 182.898C385.32 181.934 389.154 179.217 393.674 176.169C391.592 177.18 390.18 179.58 387.765 179.889C394.014 176.864 399.252 171.748 403.125 165.59C403.734 172.157 398.18 174.85 395.024 178.947C399.908 174.865 404.112 169.402 407.63 164.263C408.957 168.769 406.488 172.535 404.027 176.301C406.156 171.84 409.666 166.709 407.313 161.848C403.441 168.013 399.908 174.865 393.296 178.924C397.817 175.876 400.641 171.076 404.49 166.639C403.04 172.489 398.851 176.231 395.696 180.336C398.519 175.537 404.768 172.512 405.184 166.308C402.723 170.073 399.9 174.873 396.074 177.581C404.428 171.817 406.974 161.153 407.445 151.492C410.808 158.437 408.64 166.346 405.099 173.206C411.41 165.004 410.515 154.293 410.284 144.972C415.391 150.211 415.645 157.812 415.552 164.71C416.71 154.718 414.781 143.652 406.581 137.332C413.77 141.561 417.111 150.234 417.697 158.522C417.489 147.472 411.394 138.428 403.549 131.082C411.418 136.7 417.867 144.725 418.43 154.741C417.844 146.453 412.42 138.791 405.925 134.223C413.099 140.18 418.499 149.563 418.029 159.224C418.476 151.291 415.136 142.618 407.938 138.39C413.007 147.078 414.596 157.457 412.405 167.087C413.547 158.815 414.372 148.128 406.164 141.816C412.258 150.867 412.112 162.943 407.159 172.195C409.998 165.675 412.174 157.766 410.53 150.844C413.894 157.789 411.726 165.698 408.88 172.218C411.718 165.698 413.2 158.121 409.474 152.21C408.671 161.176 406.835 169.78 400.548 176.254C405.786 171.146 407.599 164.263 409.412 157.387C410.021 163.954 407.869 170.135 404.691 175.961C406.457 172.535 407.198 168.746 408.964 165.312C403.41 168.005 402.631 175.243 397.076 177.929C399.537 174.163 404.397 171.81 403.433 166.277C400.594 172.797 394.346 175.822 389.462 179.904C390.512 178.538 391.206 178.199 392.594 177.527C389.501 176.455 387.734 179.881 384.255 180.467C381.632 181.363 378.022 182.049 377.837 183.338C376.448 179.788 386.685 179.04 386.569 178.338C386.454 177.635 383.515 178.16 376.556 179.202C378.755 178.538 377.081 178.554 372.622 178.438C370.392 178.384 368.101 178.407 366.227 178.824C364.823 179.495 363.673 180.537 362.902 181.995C363.419 174.271 360.996 177.034 358.096 182.173C357.301 183.415 356.383 185.252 355.396 187.551C354.408 189.851 353.351 192.613 352.279 195.707C349.988 192.181 348.345 185.259 346.956 185.931C336.202 190.283 328.125 201.911 315.011 203.162C308.893 203.709 305.9 203.648 305.9 203.648L305.908 203.655Z" fill="currentColor"/>
<path d="M294.29 218.825C279.494 226.966 281.445 225.09 295.632 212.459C285.488 221.765 287.571 220.322 297.437 211.54C286.545 219.967 284.115 221.572 293.457 210.784C279.579 225.052 277.488 226.927 284.94 212.598C274.911 226.032 274.68 223.354 277.581 203.376C275.096 218.014 275.737 215.345 279.201 201.254C275.22 215.159 274.487 218.084 275.775 203.345C273.723 224.033 263.108 214.758 264.381 201.308C260.169 215.761 258.294 213.67 247.124 195.752C255.247 209.141 254.075 206.71 246.368 193.129C253.542 207.397 254.808 209.997 245.296 197.388C258.017 214.874 259.976 217.143 259.035 212.327C259.243 220.059 253.573 232.915 231.957 228.409C248.073 231.287 245.327 230.044 229.304 224.882C245.149 230.561 247.98 231.974 231.726 231.233C253.905 234.034 259.922 221.448 267.351 229.504C260.586 223.702 255.147 238.363 237.527 251.442C249.778 240.539 246.916 241.28 231.541 248.286C246.916 241.28 250.117 240.801 239.556 253.587C256.258 239.327 262.121 225.098 275.76 236.997C264.003 226.333 259.76 242.136 255.803 262.739C256.505 246.92 254.584 249.143 247.957 263.41C264.751 232.884 256.188 228.185 258.696 262.716C260.894 241.372 275.806 237.607 294.699 244.459C278.56 237.985 268.47 228.463 277.434 246.427C268.91 234.25 268.871 237.267 272.103 251.319C269.218 237.105 269.604 233.918 279.586 245.068C269.596 227.706 279.779 236.974 297.854 237.854C281.708 234.751 283.845 236.503 300.731 245.377C287.586 240.693 289.191 243.132 299.806 251.211C289.021 242.784 287.332 240.176 301.187 243.841C283.69 235.299 281.731 233.031 298.093 226.364C282.101 231.132 284.778 230.909 303.354 228.733C290.124 230.886 292.801 231.094 305.638 231.364C292.971 231.441 289.877 230.369 302.899 226.495C282.78 229.265 278.445 229.628 294.305 218.825H294.29Z" fill="currentColor"/>
<path d="M284.863 155.626C287.246 152.756 288.427 151.421 288.35 151.521C288.272 151.621 286.938 153.164 284.508 156.151C286.884 153.373 288.211 151.93 288.296 151.83C288.38 151.729 287.231 152.972 284.863 155.626Z" fill="currentColor"/>
<path d="M293.348 148.157C295.369 146.637 296.079 144.576 297.83 142.871C295.392 144.908 293.641 146.614 292.229 149.013C293.973 147.308 295.385 144.908 297.468 143.905C295.385 144.916 294.312 148.01 292.561 149.708C293.61 148.342 294.328 146.282 296.411 145.271C294.644 148.697 291.173 150.379 289.406 153.813C290.1 153.474 291.149 152.108 291.512 151.081C290.771 154.87 287.639 157.247 286.567 160.341L286.922 159.307C279.177 171.63 282.455 185.481 288.665 197.99C286.737 199.325 284.361 201.308 284.168 200.127C285.364 203.399 287.354 202.643 289.807 200.86C291.219 201.053 292.229 201.2 293.911 201.424C300.538 201.593 307.435 201.678 313.66 200.374C305.375 200.961 296.388 201.879 288.465 199.873C286.529 200.93 285.433 201.231 285.973 199.618C285.233 201.161 287.747 198.916 290.193 197.033C281.784 184.092 279.586 167.155 289.745 154.515C288.357 155.187 288.002 156.221 287.639 157.247C289.745 154.515 291.851 151.776 293.618 148.35C292.569 149.716 291.512 151.081 290.463 152.455C293.263 149.384 293.996 145.595 297.576 143.596C298.031 142.948 296.719 144.368 293.348 148.172V148.157Z" fill="currentColor"/>
<path d="M304.079 141.52C304.334 133.834 304.442 131.504 304.719 125.531C304.087 131.643 303.616 134.12 301.387 142.129C303.416 134.567 303.709 132.484 303.5 127.576C303.616 130.153 303.601 132.021 303.323 134.282C303.045 136.543 302.505 139.151 301.171 142.376C302.536 139.267 303.084 137.036 303.269 135.648C303.454 134.259 303.308 133.772 302.93 133.333C303.107 134.768 303.068 136.249 302.644 138.827C302.428 140.115 301.919 141.188 301.155 142.531C300.23 144.298 298.486 145.995 297.429 147.369C298.124 147.029 298.478 146.003 299.173 145.664C297.067 148.395 294.961 151.134 293.194 154.561C293.549 153.527 293.217 152.832 294.606 152.161C285.472 165.163 283.867 183.088 291.62 197.333C284.562 182.749 284.816 162.046 297.044 150.124C296.349 150.463 295.655 150.795 295.3 151.829C297.738 149.792 298.818 146.698 300.916 143.958L300.199 146.018C301.965 142.592 304.071 139.853 303.933 136.674C304.419 133.703 304.804 131.527 305.306 128.88C304.696 132.268 304.557 133.757 304.064 141.527L304.079 141.52Z" fill="currentColor"/>
<path d="M330.354 60.1513C327.523 59.0324 323.735 58.2993 324.368 63.1376C319.662 53.4148 311.145 44.6798 300.121 43.1596C304.287 41.1379 307.759 39.4557 312.241 39.8647C308.121 38.4295 303.593 41.4852 300.121 43.1596C310.088 46.0456 319.678 51.6863 323.697 61.7486C323.805 53.1216 315.944 47.504 311.886 40.891C315.334 40.9373 323.92 44.4946 323.002 38.4835C322.663 36.0682 322.131 33.6915 321.39 31.392C319.168 24.5012 315.103 18.3204 309.116 13.9297C315.496 18.8451 320.31 26.0368 322.408 34.116C322.933 36.1377 323.288 38.2134 323.434 40.2968C320.133 43.7461 316.368 41.2845 312.92 41.246C327.893 57.9984 330.632 86.6805 311.115 101.342C308.862 103.225 307.55 104.59 306.224 105.817C303.763 108.78 300.715 110.656 296.149 109.629C304.357 109.598 307.072 107.26 307.25 105.015C306.771 108.865 303.755 112.816 296.503 111.736C301.441 116.034 302.143 115.309 300.908 109.267C301.163 116.775 299.489 118.982 294.097 113.95C299.373 119.884 298.895 121.104 293.094 116.065C296.365 125.232 295.223 126.991 286.614 123.72C292.453 131.166 290.826 133.573 280.311 136.066C288.326 137.37 286.899 139.554 278.22 144.261C283.435 144.793 281.399 147.849 276.662 152.363C275.644 156.484 272.288 161.515 269.889 165.111C267.49 168.706 266.055 170.867 266.055 170.867L264.666 173.961L269.071 168.066C271.779 164.439 275.505 159.447 277.565 155.45C281.607 151.29 283.721 148.451 279.563 149.045C287.64 143.35 289.437 141.082 282.124 141.467C293.502 135.641 295.763 132.47 290.656 126.065C298.633 130.024 299.227 130.757 292.307 132.578C300.253 130.927 301.618 127.94 301.402 117.33C303.462 124.337 303.94 123.72 303.801 115.671C306.486 120.934 306.825 123.457 309.541 122.354C306.764 125.517 307.142 122.099 306.555 115.625C307.172 120.077 308.399 117.068 310.212 109.861C308.885 115.934 308.144 117.816 307.319 114.298C308.846 117.269 311.091 112.947 314.432 107.16C315.404 107.962 317.479 107.299 320.788 107.43C322.547 110.239 325.54 113.85 331.388 118.704C325.795 112.631 323.18 107.685 320.927 104.552C318.366 102.005 316.175 101.272 313.359 101.998C310.297 103.626 306.617 106.705 300.746 106.797C303.138 106.797 305.167 105.856 306.941 104.498C323.959 95.9171 326.975 75.5919 327.322 58.2068C328.04 58.8086 329.236 59.9661 330.354 60.1513Z" fill="currentColor"/>
<path d="M239.44 150.757C238.954 149.946 238.97 150.332 239.248 151.436C239.263 150.695 239.379 150.278 239.44 150.757Z" fill="currentColor"/>
<path d="M250.61 187.396C251.389 189.765 251.467 188.824 251.389 186.108C251.976 185.475 252.415 183.075 253.079 180.189C252.331 177.743 251.467 174.888 250.541 171.825C249.006 166.724 247.316 161.052 245.735 155.774C244.948 153.135 244.184 150.589 243.752 148.667C242.796 145.982 242.155 143.929 244.238 145.635C242.387 142.054 241.291 139.709 241.253 141.283C241.075 138.96 241.955 140.55 244.068 144.84C241.839 140.758 240.713 138.821 240.713 141.128C240.62 139.006 241.662 141.128 243.744 145.164C241.785 141.591 240.867 139.886 241.006 141.522C241.044 139.94 242.14 141.692 244.2 145.025C242.364 141.815 241.631 140.797 241.723 142.155C241.739 141.792 242.58 143.806 243.899 146.677C243.104 147.024 244.014 150.049 245.01 153.382C247 160.041 249.353 167.935 251.413 174.795C252.076 177.967 252.57 180.953 252.13 183.816C250.363 186.648 252.045 190.12 249.191 188.955C252.886 191.856 253.781 189.711 254.228 185.868C255.486 185.436 256.296 183.299 258.062 181.972C259.667 179.595 260.639 177.133 261.511 174.695C263.424 167.488 265.353 160.342 265.353 160.342C265.353 160.342 263.069 167.303 260.724 174.278C259.744 176.647 258.757 179.016 257.121 181.316C255.486 183.615 254.105 185.706 252.755 185.938C252.13 188.762 251.528 189.719 250.618 187.404L250.61 187.396Z" fill="currentColor"/>
<path d="M215.587 80.2607C220.215 85.6391 221.72 87.6454 217.901 79.7051C221.033 86.7039 220.447 88.4016 214.021 84.4199C217.778 88.8183 215.702 87.5373 211.514 83.9492C215.093 88.8568 216.89 91.5885 211.745 88.0312C219.267 92.4373 219.853 90.5467 216.119 81.5262C221.056 93.3864 221.673 98.1166 210.056 94.4127C221.249 99.3898 220.208 95.9251 213.843 84.0958C218.565 93.3478 218.595 98.6876 207.618 102.5C217.376 108.418 216.119 112.809 208.713 118.851C211.938 120.448 209.014 123.704 205.057 126.305C201.099 128.905 196.123 130.842 189.921 132.038C196.771 132.038 202.303 131.336 206.9 130.672C211.498 130.001 215.162 129.361 216.327 131.598C221.403 129.569 223.98 130.41 224.481 136.521C228.825 135.017 231.093 138.775 233.592 144.709C230.36 136.159 228.794 132.995 226.942 137.802C228.015 135.433 228.809 141.043 230.298 150.041C228.177 139.77 228.84 143.065 230.576 151.769C229.912 150.01 230.314 153.66 230.692 157.094C232.211 170.837 233.353 181.146 233.353 181.146L234.279 184.41L232.875 159.547C232.682 156.16 232.481 152.626 233.075 151.962C232.011 145.82 231.741 142.548 235.181 149.192C233.268 142.479 232.288 138.25 232.188 139.994C233.307 136.383 235.312 138.751 239.378 145.249C236.069 139.677 233.677 135.943 230.653 138.744C230.19 132.486 229.087 132.756 227.182 138.204C227.637 137.656 227.29 142.286 227.05 149.261C227.205 140.781 227.475 134.646 225.731 136.228C229.619 125.78 231.509 123.041 230.321 135.418C238.298 119.676 243.212 119.044 259.435 130.217C244.632 118.334 239.98 118.905 231.741 135.48C231.872 121.868 228.416 124.26 221.01 133.335C221.758 130.564 218.557 134.484 215.016 139.029C211.475 143.567 207.587 148.729 202.889 154.37C206.268 150.18 209.176 146.19 211.799 142.324C214.422 138.458 216.744 134.731 217.423 132.902C221.164 127.393 223.255 123.797 217.099 128.404C227.56 116.598 229.758 113.002 214.615 117.338C234.626 105.679 237.287 101.959 241.307 78.6094C235.806 102.685 232.705 105.447 211.591 107.23C228.439 107.091 227.282 105.98 210.372 99.1969C225.955 99.6522 225.793 94.4358 220.023 79.6974C223.702 95.3001 221.805 98.6722 209.346 94.8911C216.566 98.1089 213.234 94.1812 207.957 87.5605C213.643 91.8585 216.898 93.3401 211.884 88.2241C220.809 91.82 221.465 88.8183 218.024 79.8209C222.121 88.5945 220.239 85.6391 215.61 80.2607H215.587Z" fill="currentColor"/>
<path d="M253.079 178.946C253.542 178.815 253.881 178.561 254.089 178.182C254.298 177.804 254.336 177.388 254.205 176.925C254.082 176.477 253.827 176.153 253.457 175.952C253.079 175.752 252.662 175.713 252.199 175.844C252.084 175.875 251.042 172.627 249.538 167.727C248.034 162.827 246.074 156.299 244.138 149.786C243.15 146.506 242.178 143.242 244.5 145.04C242.371 141.838 241.068 139.901 240.898 141.421C240.628 139.461 241.492 140.966 243.69 144.654C240.759 138.535 239.162 134.6 239.71 139.492C240.35 131.853 243.127 133.049 249.638 139.608C242.425 132.277 238.938 130.317 237.164 139.029C236.639 132.948 237.827 137.54 240.659 145.735C237.766 137.648 236.462 132.964 236.879 138.983C238.676 130.078 242.178 131.868 249.677 139.438C242.202 131.968 238.715 130.286 236.948 139.044C236.501 133.265 237.781 137.933 240.597 145.874C237.843 138.165 236.624 133.72 237.095 139.207C238.73 131.112 242.047 132.956 248.913 139.978C242.24 133.064 239.124 131.328 237.843 139.291C237.411 133.851 238.815 138.111 241.762 145.341C238.931 138.18 237.689 134.199 238.244 139.453C239.432 132.208 242.418 134.199 248.396 140.534C243.066 134.97 240.736 133.751 240.381 139.893C239.903 135.942 241.407 139.361 244.115 144.623C242.155 141.846 241.407 140.92 241.554 142.185C241.623 141.768 242.587 143.535 244.068 146.159C242.996 146.059 243.984 149.361 244.971 152.664C248.913 165.859 252.863 179.016 253.087 178.954L253.079 178.946Z" fill="currentColor"/>
<path d="M196.594 195.637C196.301 195.552 196.563 195.814 197.172 196.285C197.026 195.907 196.833 195.56 196.594 195.637Z" fill="currentColor"/>
<path d="M195.051 187.465C188.201 185.196 188.44 185.528 195.013 188.368C189.235 186.068 189.643 186.168 195.445 188.283C190.153 186.076 192.205 187.388 197.026 190.204C198.592 191.562 202.928 194.417 207.595 197.489C212.254 200.56 217.246 203.847 221.735 206.795C224.304 208.785 226.696 210.645 228.192 213.006C229.326 214.48 230.16 215.877 228.995 216.054C231.849 218.57 232.698 219.874 228.972 218.763C233.916 218.855 233.508 216.695 231.016 213.084C232.489 212.358 231.872 210.174 231.625 207.875C231.263 205.074 230.329 202.651 229.404 200.228C226.241 193.476 223.124 186.763 223.124 186.763C223.124 186.763 225.847 193.561 228.532 200.413C229.326 202.844 230.121 205.274 230.46 208.006C230.8 210.738 231.147 213.199 229.905 213.986C231.664 216.787 231.834 217.914 229.164 216.486C231.772 218.037 231.216 217.227 229.002 214.997C229.35 214.349 228.038 212.289 226.488 209.85C224.343 208.461 221.843 206.825 219.167 205.074C214.715 202.157 209.77 198.901 205.165 195.868C200.559 192.835 196.293 190.027 196.27 189.325C190.068 185.968 188.108 184.718 195.051 187.465Z" fill="currentColor"/>
<path d="M216.327 224.927C207.602 211.454 194.966 201.284 182.708 190.396C181.011 188.621 179.869 187.24 179.429 186.298C178.457 184.377 180.309 184.2 186.141 186.113C180.185 182.633 175.996 180.087 177.339 178.644C170.55 175.727 169.293 173.906 176.698 171.683C169.077 169.878 170.126 167.663 176.374 163.458C170.126 167.663 168.251 169.237 175.742 168.103C163.769 169.731 161.154 168.643 171.73 159.9C154.396 163.959 150.253 160.363 145.926 140.439C147.445 159.044 147.33 159.854 148.803 141.628C144.66 158.743 142.107 156.822 136.537 139.969C142.107 156.822 143.766 158.264 144.552 140.733C144.506 159.175 143.588 158.643 137.895 140.108C146.712 161.621 150.755 165.14 169.285 158.504C154.311 170.557 153.833 172.463 171.453 178.86C156.116 176.221 160.359 178.173 173.975 184.184C167.796 182.579 170.982 185.017 175.587 188.683C176.606 189.863 177.979 191.353 179.63 193.104C181.281 194.856 183.148 196.183 185.3 197.865C185.678 198.074 185.338 197.379 185.338 197.379C196.293 204.077 206.198 212.133 214.129 222.751L216.312 224.942L216.327 224.927Z" fill="currentColor"/>
<path d="M193.323 181.702C179.46 178.808 182.392 180.706 194.904 186.432C191.078 186.401 196.833 190.198 202.58 193.979C214.082 201.556 225.561 209.087 225.693 208.895C225.963 208.493 226.055 208.084 225.978 207.66C225.901 207.235 225.654 206.888 225.261 206.618C224.875 206.356 224.481 206.271 224.057 206.356C223.641 206.441 223.293 206.688 223.023 207.081C222.885 207.282 211.467 199.789 200.088 192.304C194.403 188.562 188.717 184.811 194.503 185.197C180.216 179.248 177.393 177.419 192.652 179.557C185.068 178.739 181.335 178.415 181.443 178.708C181.427 178.978 185.254 179.873 192.775 181.493C185.647 180.143 182.191 179.495 182.307 179.533C182.422 179.572 186.125 180.297 193.315 181.694L193.323 181.702Z" fill="currentColor"/>
<path d="M187.09 250.716C186.944 250.817 187.422 250.855 188.402 250.84C187.954 250.624 187.468 250.469 187.09 250.716Z" fill="currentColor"/>
<path d="M174.385 246.449C173.351 246.92 173.012 246.225 172.317 246.557C173.351 246.912 174.045 246.58 175.071 246.935C175.071 246.935 173.683 247.606 174.377 247.275C190.955 246.102 205.844 241.456 222.006 237.351C223.279 238.3 224.93 238.717 224.567 239.45C228.471 239.496 230.368 239.867 226.627 242.135C230.384 239.003 228.417 237.598 224.266 236.333C224.652 234.743 222.893 233.285 221.651 231.448C216.374 227.791 209.848 224.943 205.775 220.066C209.856 224.951 216.012 228.825 220.934 232.559C222.7 234.427 224.498 236.124 224.066 237.567C227.167 238.632 228.008 239.435 225.107 240.044C228.046 239.628 224.205 238.185 218.912 237.675C216.374 237.992 215.009 238.848 212.517 239.628C200.992 243.818 189.235 246.086 177.432 246.387C172.919 246.364 170.443 246.256 174.393 246.457L174.385 246.449Z" fill="currentColor"/>
<path d="M173.497 246.621C170.597 246.536 167.843 246.158 164.387 246.112C167.503 245.464 170.589 246.536 173.706 245.88C171.283 246.197 168.198 245.124 165.081 245.772C183.341 248.072 200.992 243.804 218.658 237.816C218.658 237.816 217.647 235.733 216.953 236.073C201.3 246.227 180.934 246.66 163.013 245.055C166.439 246.822 169.578 244.445 173.004 246.212C169.887 246.86 166.462 245.093 162.612 245.718C162.689 245.842 165.984 246.135 173.49 246.606L173.497 246.621Z" fill="currentColor"/>
<path d="M219.799 256.912L212.494 256.047C207.996 255.515 202.604 256.009 195.807 256.263C186.349 256.047 176.004 255.916 166.392 252.004C169.486 253.076 171.545 253.794 174.639 254.867C168.791 253.416 163.299 250.931 157.459 249.473C163.307 250.924 168.799 253.408 174.639 254.867C168.791 253.416 162.25 252.297 156.765 249.812C157.459 249.473 158.493 249.836 159.071 249.774C153.432 250.144 149.436 250.715 148.649 250.985C147.862 251.255 150.3 251.217 156.934 250.808C135.959 253.84 131.778 255.384 125.807 274.274C122.027 259.543 116.457 262.143 100.102 271.665C116.503 260.446 120.229 257.236 102.579 259.172C116.125 255.291 120.168 253.701 114.829 252.174C113.495 251.796 111.574 251.417 109.174 250.792C108.573 249.982 108.519 248.74 109.529 246.363C115.894 234.457 118.146 219.641 110.71 207.819C102.339 194.516 86.6947 188.104 71.6439 189.13C66.6295 189.47 61.6768 190.635 61.0828 187.787C53.947 194.161 51.1621 196.368 55.8062 187.803C46.5257 201.839 44.6743 205.088 52.489 196.229C42.5142 212.141 42.2134 215.497 49.0483 233.345C43.17 221.894 44.4197 224.935 52.0338 240.121C48.6703 230.159 51.2392 231.486 58.9305 238.948C56.8322 232.844 59.8485 232.882 65.7269 235.321C60.8514 234.966 58.4368 235.282 59.3934 239.82C53.4378 234.696 50.8612 233.801 52.1495 242.258C50.5141 233.978 53.0907 234.873 58.9999 240.074C58.0819 235.452 60.5042 235.136 65.1097 235.861C59.1619 232.358 56.2305 232.065 58.8456 238.662C50.8149 230.614 48.3309 229.464 51.8487 239.858C44.25 224.001 43.0311 220.69 49.7426 230.413C42.1439 214.008 42.4757 210.636 51.8641 193.66C44.6511 204.378 46.4872 201.484 56.0993 187.934C52.543 195.689 56.6239 193.174 63.7289 188.69C65.4183 189.817 70.1318 188.984 74.8762 188.937C84.3649 188.845 93.9848 191.893 101.506 197.688C117.907 210.32 118.655 233.106 107.67 249.465C107.593 250.839 107.917 251.325 108.28 251.518C109.753 252.313 110.162 252.799 109.545 253.238C108.928 253.678 107.346 253.979 105.016 254.134C105.271 252.544 105.425 250.947 107.84 247.305C117.236 235.498 116.758 218.584 108.982 206.06C104.924 199.455 98.76 195.581 92.2413 192.734C87.3195 190.828 82.1586 189.616 77.0362 189.269C71.9139 188.922 66.8378 189.446 64.3229 188.76C57.3105 192.603 52.867 195.234 56.0762 187.934C46.1169 201.939 44.196 205.443 52.435 197.302C42.3137 212.827 42.3522 216.716 49.9586 235.483C44.3888 223.924 46.3791 227.249 54.8341 239.928C45.4611 226.547 43.4091 222.303 50.2749 231.416C42.2674 213.391 43.1854 208.722 53.6461 190.542C47.3203 200.489 50.5526 196.924 59.8639 187.965C58.3211 192.309 62.3634 190.82 67.3006 189.408C70.7567 189.292 75.1153 189.246 79.4585 189.747C83.794 190.249 88.1141 191.298 92.2413 192.734C98.76 195.573 104.924 199.447 108.982 206.06C116.758 218.584 117.236 235.498 107.848 247.281C105.387 250.954 105.217 252.559 104.947 254.149C107.23 254.01 108.75 253.732 109.29 253.323C109.83 252.914 109.336 252.482 107.794 251.734C107.578 250.808 107.716 249.589 108.704 247.428C120.06 230.699 116.912 206.5 97.734 195.211C90.0273 190.797 81.4257 188.536 73.1019 188.821C68.9361 188.96 64.8397 189.74 63.5669 188.459C57.0713 192.672 53.3993 194.825 56.6316 187.556C47.4669 200.273 45.276 203.267 51.8718 192.147C42.4294 209.787 41.7814 213.321 48.8555 229.595C42.7071 222.303 45.2451 226.223 54.757 239.573C52.5198 231.486 57.241 232.836 65.102 235.846C59.6325 235.113 56.6933 235.676 57.2565 240.915C51.0078 234.997 48.2615 233.754 49.4495 242.536C43.0234 229.726 40.8788 226.671 38.6107 239.549C38.3253 219.965 37.9242 216.315 29.7314 211.122C38.5336 209.039 39.5365 205.412 42.2982 186.09C39.9916 205.188 39.0659 208.583 31.8221 207.665C38.2173 215.474 38.2867 218.962 37.3841 238.624C40.1228 225.506 41.8816 228.561 47.76 242.559C46.8883 232.705 49.8043 234.295 56.4696 241.108C55.999 235.583 59.2776 235.282 65.0943 235.853C58.3828 233.145 54.9113 232.257 57.5265 239.032C48.9403 228.986 46.4563 226.601 50.9615 238.245C43.0465 220.752 42.1362 217.288 51.0541 215.397C42.5065 210.389 43.4091 207.38 52.6587 190.249C46.1554 201.978 47.9992 199.586 56.6316 187.548C54.0087 194.308 58.4368 191.947 64.9092 188.744C67.7712 189.092 72.6699 188.59 77.5454 188.906C87.281 189.547 96.8931 193.467 104.237 199.771C116.85 211.662 118.679 231.355 109.498 245.916C108.094 248.624 107.878 249.967 108.079 250.924C110.332 251.487 112.114 251.796 113.333 252.05C116.974 252.814 115.346 253.347 108.364 254.095C107.338 254.026 106.451 253.408 106.073 251.433C112.006 240.599 115.948 229.263 114.374 217.164C116.642 228.924 111.674 239.904 106.197 250.453C105.834 251.888 105.834 252.984 105.996 254.033C107.045 255.052 108.164 255.407 108.966 255.808C114.567 257.058 109.244 259.566 96.6077 264.744C114.058 258.779 119.55 257.104 110.694 266.179C129.209 255.183 133.39 254.936 155.908 257.93C141.783 256.117 145.988 257.544 159.202 261.958C155.785 262.329 161.37 265.677 168.313 270.114C165.983 267.306 164.255 264.975 163.26 263.085C162.265 261.194 161.995 259.736 162.543 258.702C162.504 258.162 161.494 256.078 162.188 255.739C172.201 255.175 182.508 258.756 192.698 257.814C199.85 257.475 205.203 256.533 209.516 256.811C213.828 257.089 216.413 257.259 216.413 257.259L219.784 256.912H219.799Z" fill="currentColor"/>
<path d="M211.166 290.613C211.12 290.752 211.382 290.505 211.899 289.941C211.591 290.073 211.282 290.258 211.166 290.613Z" fill="currentColor"/>
<path d="M202.403 294.423C201.099 296.398 201.269 296.012 202.357 294.022C201.269 295.503 202.92 293.705 205.528 290.92C210.742 285.348 219.791 275.811 227.159 267.978C229.365 265.633 231.425 263.433 233.176 261.558C236.331 260.123 239.108 258.773 239.054 261.234C239.648 257.229 237.581 256.952 233.963 258.317C233.407 256.751 231.294 256.844 228.964 257.399C226.819 257.986 224.42 258.642 222.021 259.29C214.823 261.234 207.672 263.14 207.672 263.14C207.672 263.14 214.839 261.643 222.052 260.185C224.459 259.699 226.866 259.22 229.01 258.796C233.485 258.132 238.059 258.626 236.601 260.578C238.267 258.811 234.48 260.092 230.993 263.842C224.019 271.335 212.285 283.705 205.327 291.112C201.848 294.816 199.564 297.286 201.74 294.222C200.073 297.278 200.444 297.1 202.419 294.43L202.403 294.423Z" fill="currentColor"/>
<path d="M244.215 274.938C225.083 275.863 214.877 291.952 202.966 304.507C201.431 305.541 200.243 306.174 199.595 306.228C198.299 306.328 199.194 304.09 203.583 297.909C187.229 315.241 184.86 316.792 195.722 294.067C193.007 299.746 190.685 304.306 188.27 308.157C187.067 310.086 185.755 311.83 184.282 313.481C179.862 314.592 175.41 316.19 171.198 318.258C166.986 320.326 163.013 322.888 159.627 325.743C156.078 328.953 153.116 332.456 152.792 328.891C148.711 340.412 147.276 344.856 149.729 333.822C146.705 353.568 147.345 357.257 161.478 362.813C149.914 364.14 151.843 367.334 164.325 381.077C156.657 372.944 159.542 375.36 168.19 382.513C158.431 376.324 154.751 374.032 159.85 383.963C148.788 367.921 146.512 364.101 145.008 360.112C146.165 364.271 148.101 367.828 158.061 384.534C153.285 373.677 156.533 375.961 165.991 384.041C164.541 379.226 168.606 379.55 174.006 379.982C176.413 378.369 180.162 376.864 183.78 374.897C187.399 372.921 190.878 370.475 194.241 367.983C193.501 371.771 190.369 374.148 188.263 376.88C190.723 373.114 195.252 370.066 195.313 364.888C195.267 368.338 192.475 371.409 191.395 374.503C193.501 371.771 196.633 369.395 195.313 364.888C191.834 367.142 188.162 369.595 184.328 371.579C180.494 373.562 176.498 375.082 174.963 376.941C168.259 375.9 164.016 375.198 168.267 380.105C156.479 370.845 153.903 368.276 165.266 375.159C150.068 362.326 148.811 358.931 157.127 342.472C147.669 351.863 147.793 348.182 151.758 331.407C150.092 339.64 152.499 335.203 156.803 328.135C158.709 327.579 162.52 324.385 166.762 321.892C175.256 316.9 185.493 314.677 195.383 315.796C196.772 315.001 198.191 314.183 199.749 313.342C201.13 312.463 202.588 311.544 204.108 310.58C205.512 309.546 206.523 308.442 207.587 307.246C206.245 308.558 204.903 309.6 203.591 310.418C202.179 311.236 201.03 311.838 200.181 312.254C198.476 313.08 197.99 313.157 198.453 312.64C198.916 312.123 200.328 310.997 202.31 309.422C213.095 295.409 221.936 278.263 241.577 275.755L244.2 274.968L244.215 274.938Z" fill="currentColor"/>
<path d="M197.597 293.349C191.047 306.552 191.417 306.375 198.715 293.859C192.081 305.688 192.251 305.302 198.576 293.658C192.251 304.77 194.627 302.208 201.006 294.075C201.732 294.638 206.468 289.63 211.197 284.622C220.655 274.606 230.067 264.613 229.897 264.451C229.55 264.119 229.164 263.95 228.732 263.957C228.3 263.965 227.914 264.142 227.583 264.482C227.259 264.814 227.104 265.192 227.12 265.616C227.135 266.041 227.313 266.419 227.66 266.758C227.829 266.928 218.472 276.875 209.122 286.783C204.447 291.737 199.772 296.683 200.289 294.013C192.814 304.091 190.53 306.56 197.589 293.349H197.597Z" fill="currentColor"/>
<path d="M272.311 309.292C272.342 309.508 272.381 308.891 272.404 307.633C272.319 308.142 272.242 308.729 272.311 309.292Z" fill="currentColor"/>
<path d="M323.088 276.011C323.088 276.011 309.209 262.993 302.668 257.646C304.28 257.607 313.892 265.131 314.571 264.637C315.52 263.95 316.199 263.132 316.615 262.183C317.032 261.226 310.127 252.692 309.965 251.635C309.803 250.578 309.364 249.544 308.639 248.533C307.613 245.778 305.599 241.611 305.923 244.644C300.708 245.693 307.613 245.778 306.749 249.821C307.096 250.971 307.366 251.859 307.273 252.754C307.181 253.657 306.741 254.39 305.962 254.953C305.391 255.362 302.297 254.606 302.351 254.814C300.199 252.291 299.142 249.837 302.644 249.752C297.43 244.705 296.774 242.02 304.627 241.904C298.679 241.534 302.151 239.852 306.941 236.974C304.589 237.815 307.319 239.913 309.965 241.418C311.292 242.282 312.766 242.992 314.309 243.579C315.852 244.165 317.448 244.628 319.076 245.014C327.739 247.074 339.411 252.453 346.2 255.763C349.594 257.414 351.762 258.556 347.558 257.762C351.523 258.148 351.184 257.916 347.604 257.198C350.25 257.677 349.834 257.723 347.442 257.569C349.402 257.962 347.319 256.851 344.117 255.238C337.714 252.021 326.821 246.82 318.667 244.883C315.612 244.158 312.596 243.116 309.973 241.411C308.453 240.299 306.602 239.651 307.566 239.134C303.462 237.691 302.189 236.387 307.026 234.165C303.593 233.987 305.229 234.265 308.561 234.774C308.345 235.091 309.819 235.623 311.223 236.163C312.735 236.781 314.278 237.336 315.813 237.853C317.348 238.37 318.883 238.856 320.38 239.327C329.359 241.997 343.932 251.843 343.677 252.16C343.029 252.939 342.79 251.735 342.459 253.101C342.459 253.101 344.997 253.734 347.496 254.359C350.08 255.007 352.618 255.64 348.306 254.474C352.788 254.899 352.989 254.312 348.916 252.46C352.094 253.494 350.536 252.985 348.376 252.298C346.771 251.797 344.572 251.126 342.173 250.4C344.133 250.971 346.077 251.527 347.951 252.075C349.826 252.623 351.654 253.155 349.008 252.175C353.313 253.734 353.266 253.803 348.908 252.46C353.614 254.035 353.961 254.158 348.931 252.514C354.146 254.127 354.053 253.973 349.039 252.16C357.571 254.907 360.672 255.848 349.348 251.735C365.023 257.252 366.273 257.723 349.317 251.928C365.532 258.626 365.286 257.414 348.599 254.189C364.962 258.788 367.554 259.413 348.676 253.996C367.785 258.402 368.078 257.685 350.335 249.389C368.772 256.843 369.351 256.473 352.086 245.894C370.493 256.01 367.986 254.899 351.577 246.689C359.739 251.596 353.984 249.405 347.805 247.121C335.438 242.553 321.352 237.622 315.088 235.862C322.039 234.589 328.943 233.463 328.943 233.463C328.943 233.463 324.013 233.571 317.981 233.671C315.975 233.671 313.846 233.663 311.755 233.455C312.936 232.699 314.903 231.032 315.111 230.222C315.396 229.087 315.389 228.022 315.103 227.027C314.81 226.024 314.262 225.175 313.46 224.465C312.658 223.755 311.64 223.169 310.266 222.15C307.589 219.21 304.481 219.866 305.09 219.835C303.755 222.791 307.026 223.346 309.541 224.203C311.748 225.129 313.198 226.356 311.609 229.272C309.672 232.351 307.273 231.371 307.682 229.249C301.881 227.776 298.895 225.144 304.126 222.034C296.326 223.393 297.815 222.034 303.624 218.292C299.312 219.372 299.327 218.084 301.21 213.77C298.826 217.034 300.384 216.71 303.755 215.337C303.424 216.07 304.905 215.761 306.756 216.1C308.345 216.124 309.989 215.838 311.578 215.375C313.167 214.912 314.702 214.272 316.199 213.523C324.253 209.835 332.576 205.799 340.214 202.095C331.882 206.131 324.245 209.835 315.805 213.693C312.997 215.105 309.973 216.108 306.756 216.093C304.905 215.753 303.154 216.409 303.563 215.499C299.512 217.127 297.615 217.189 299.96 212.242C298.008 213.562 300.785 212.219 303.779 210.552C305.584 210.537 307.211 210.576 308.808 210.39C316.654 210.074 323.929 207.404 330.872 204.04C330.177 204.379 330.517 205.074 329.822 205.405C333.294 203.723 337.105 202.736 339.566 198.97C335.755 199.958 332.6 204.063 328.796 205.043C334.351 202.35 339.589 197.241 345.429 194.888C347.396 194.155 349.911 194.356 352.225 196.115C357.44 188.429 361.498 186.755 363.588 194.842C361.513 187.928 360.549 187.156 362.771 195.096C361.181 188.414 363.565 187.225 365.887 194.186C363.102 186.3 362.863 185.566 365.887 194.109C364.368 189.294 363.658 186.724 363.889 186.577C364.128 186.4 365.293 188.645 367.53 193.476C365.586 188.105 363.936 185.705 362.346 186.161C360.765 186.585 359.237 189.865 357.54 195.852C354.925 191.832 352.132 190.513 349.186 190.644C346.239 190.775 344.565 193.244 341.88 195.652C332.615 204.055 319.801 207.69 307.011 209.603C310.482 207.921 313.26 206.578 317.07 205.591C306.317 209.943 300.855 205.73 291.497 201.362C289.808 201.563 288.334 202.396 288.728 201.563C286.375 207.196 290.186 206.208 292.384 203.608C291.945 203.646 293.665 203.399 295.408 203.785C297.121 204.279 298.903 205.251 299.304 206.061C300.076 208.461 297.568 209.495 296.782 207.666C290.911 211.224 286.853 211.694 289.299 204.603C284.778 211.841 284.978 210.028 287.339 202.481C283.983 207.08 282.788 205.946 282.078 200.205C282.818 203.353 285.434 201.231 287.933 198.7C288.504 198.191 287.864 197.326 287.131 195.752C280.766 185.451 279.555 172.325 286.244 161.368L285.549 161.707C285.596 158.258 288.705 157.602 289.083 154.847C289.059 156.576 287.671 157.247 286.622 158.613C287.671 157.247 287.694 155.519 289.777 154.508C287.694 155.519 288.01 157.934 285.927 158.945C286.977 157.579 287.339 156.545 288.728 155.874C287.679 157.239 287.316 158.273 286.267 159.639C286.622 158.605 288.01 157.934 288.373 156.908C277.179 169.192 287.686 183.815 288.89 196.917C288.458 197.681 288.242 198.113 287.185 199.039C284.562 202.087 281.947 204.209 280.08 199.819C279.2 202.975 268.663 187.225 270.877 184.286C272.319 183.329 273.638 182.032 274.803 180.713C275.968 179.393 276.963 178.043 277.789 176.693C278.738 174.594 279.293 172.541 279.933 170.666C280.574 168.791 281.183 167.109 281.684 165.774C283.104 162.471 283.991 160.65 283.011 162.649C284.253 161.383 283.544 161.669 283.328 163.629C284.153 161.946 285.333 159.369 284.338 160.619C286.082 157.486 287.362 155.349 287.679 154.716C287.995 154.083 287.308 154.87 285.333 157.671C287.1 154.832 287.956 153.42 287.779 153.312C287.601 153.204 286.421 154.377 284.292 156.799C287.756 152.825 286.853 154.253 283.374 159.469C284.816 157.795 283.729 159.925 282.024 163.343C283.505 160.357 284.431 158.466 283.189 159.84C286.375 154.901 287.362 153.234 284.138 156.614C286.228 154.168 287.293 152.957 287.316 152.98C287.339 153.003 286.321 154.268 284.292 156.792C286.421 154.091 287.586 152.679 287.648 152.571C287.709 152.463 286.66 153.628 284.531 156.159C286.676 153.551 287.748 152.285 287.694 152.308C287.64 152.332 286.46 153.643 284.238 156.236C285.773 154.137 287.069 152.401 288.049 151.066C289.029 149.731 289.669 148.759 289.9 148.165C290.371 146.976 289.183 147.185 285.966 148.921C290.271 145.186 292.6 143.026 292.816 142.609C293.032 142.192 291.158 143.504 287.061 146.706C291.536 143.952 293.472 142.578 293.511 142.802C293.557 143.026 291.698 144.847 288.573 148.435C292.307 145.07 294.483 142.848 294.683 142.323C294.884 141.799 293.171 143.049 289.198 146.76C296.188 138.928 295.532 138.519 285.835 144.283C294.822 137.694 294.56 137.053 284.053 141.83C294.29 135.795 292.955 138.473 282.98 146.884C286.444 145.95 287.902 146.104 287.709 147.355C287.756 150.356 283.945 151.344 282.872 154.431C283.567 154.091 284.955 153.42 284.6 154.454C281.067 161.314 279.586 168.883 275.991 175.944C274.981 177.997 274.063 179.802 272.983 181.168C273.469 177.773 273.476 174.254 273.492 171.623C273.507 168.991 273.53 167.24 273.53 167.24C273.53 167.24 273.199 169.408 272.697 172.618C272.443 174.223 272.149 176.091 271.663 178.043C271.501 180.721 269.75 182.418 268.053 183.815C268.555 181.716 267.274 180.404 265.554 179.957C263.833 179.509 261.673 179.91 260.454 180.929C259.058 182.464 257.137 184.255 255.733 185.088C254.761 188.19 254.298 190.343 254.607 187.465C257.052 190.721 257.87 187.542 258.935 184.378C260.169 182.997 261.658 181.631 264.227 183.19C266.78 185.15 265.97 187.905 264.481 186.354C268.431 171.7 281.962 252.113 256.389 188.861C257.654 198.152 256.721 196.67 253.434 188.545C254.321 195.258 252.856 195.328 247.918 190.405C250.642 193.406 251.197 190.135 251.375 185.937C252.092 183.421 252.431 179.98 251.683 176.361C250.726 173.158 249.778 169.979 248.883 167.001C246.214 158.08 244.1 151.066 244.03 151.19C243.83 151.545 243.799 151.954 243.93 152.417C244.061 152.88 244.308 153.219 244.678 153.427C244.802 153.505 246.715 159.809 249.176 168.042C249.994 170.789 250.881 173.745 251.776 176.762C252.131 180.35 252.107 183.954 251.382 186.307C251.436 191.084 250.788 194.61 246.214 191.47C249.207 196.663 248.451 195.104 245.92 190.196C247 191.94 246.314 190.328 245.434 188.213C246.106 186.878 246.291 184.988 246.337 183.182C246.383 181.376 246.306 179.671 246.106 178.066C243.93 168.945 242.163 161.267 242.565 161.337C243.568 161.507 242.642 162.324 243.984 161.923L242.541 156.892C241.824 154.377 241.099 151.861 241.099 151.861C240.366 152.077 239.764 152.193 239.309 152.262C239.502 153.373 239.841 154.986 240.266 156.908C240.69 158.829 241.207 161.074 241.778 163.513C241.292 161.53 240.806 159.57 240.343 157.664C239.88 155.758 239.425 153.921 239.047 152.27C239.093 152.193 239.178 152.2 239.309 152.262C239.201 151.784 239.139 151.421 239.263 151.46C239.024 151.282 238.939 151.437 238.977 151.822C237.982 147.926 237.242 144.77 239.803 147.987C238.044 144.144 237.111 141.891 237.072 142.316C237.141 141.382 238.113 143.126 240.158 147.27C238.692 143.219 237.728 141.397 237.72 142.223C237.813 141.459 238.869 143.35 241.438 146.714C239.541 143.149 238.407 140.726 238.206 141.729C238.144 140.055 239.016 141.799 241.145 146.575C238.522 141.953 237.018 139.669 236.463 141.405C236.216 139.985 236.902 142.601 238.669 147.764C236.37 142.509 235.066 139.8 234.503 141.274C234.387 139.908 235.012 142.717 236.571 148.504C234.503 142.323 233.647 139.954 233.593 141.459C233.917 140.904 235.043 144.214 236.964 149.376C235.182 146.645 236.239 150.41 237.381 154.469C239.672 162.579 242.333 171.831 244.208 178.66C244.74 180.89 245.195 182.873 245.172 184.679C243.444 181.685 241.191 178.984 239.517 176.955C237.843 174.925 236.733 173.575 236.733 173.575C236.733 173.575 237.867 175.45 239.548 178.228C240.389 179.617 241.353 181.245 242.241 183.059C242.788 185.181 243.105 187.604 243.066 189.463C242.241 187.596 240.775 187.233 239.386 187.905C237.998 188.576 233.762 203.515 232.875 205.228C232.158 207.288 231.95 209.958 231.448 211.447C233.192 214.727 234.634 216.81 232.166 214.063C237.242 215.121 235.815 212.165 233.917 208.785C234.233 207.574 237.003 192.704 239.178 192.233C242.873 192.434 244.308 194.95 241.585 193.838C245.859 201.702 243.058 219.156 233.701 214.966C242.518 220.707 240.975 220.167 232.104 215.514C238.029 220.738 236.64 221.842 228.887 220.591C233.369 221.286 231.68 218.246 228.848 214.712C227.977 212.404 225.963 209.611 222.916 207.828C220.123 205.992 217.354 204.163 214.762 202.458C206.986 197.342 200.853 193.321 200.884 193.468C200.961 193.869 201.2 194.201 201.593 194.471C201.995 194.741 202.403 194.842 202.82 194.764C202.967 194.741 208.482 198.345 215.657 203.067C218.048 204.642 220.625 206.339 223.255 208.068C225.948 210.244 228.308 212.975 229.01 215.121C232.443 218.932 234.21 222.15 228.239 222.59C233.654 225.422 232.112 224.457 227.051 221.996C229.373 222.227 228.17 220.962 225.878 220.152C225.732 218.84 224.575 217.42 223.387 216.155C222.199 214.889 220.964 213.77 219.761 212.713C215.996 209.92 212.787 207.134 210.342 205.151C209.092 203.885 207.371 203.862 206.7 202.473C204.679 198.306 207.395 202.134 208.089 201.802C204.995 200.729 202.643 195.868 198.137 197.187C200.868 199.294 204.301 201.061 207.371 203.862C203.607 201.401 200.537 198.6 196.772 196.138L197.111 196.832C195.746 195.783 194.38 194.726 193.432 193.692C190.693 191.925 189.081 190.79 188.888 190.536C188.695 190.281 189.921 190.906 192.884 192.596C187.977 188.622 187.792 189.841 193.84 191.524C188.564 188.661 186.342 187.187 193.316 190.883C185.771 188.059 185.254 188.638 191.665 193.422C187.993 191.3 185.987 190.281 185.709 190.49C185.432 190.698 186.882 192.102 190.145 194.633C186.265 192.125 184.768 191.091 185.131 191.392C185.493 191.693 187.723 193.229 191.372 195.559C200.513 200.328 208.722 206.648 217.007 212.898C219.514 214.858 221.782 216.525 223.549 217.783C220.062 217.189 217.123 216.347 214.97 215.607C213.782 215.337 212.409 214.287 211.383 213.924C213.759 217.057 217.547 217.798 220.231 218.801C221.944 219.72 223.803 220.877 224.798 222.428C224.235 222.49 222.121 222.374 221.713 223.053C220.208 225.075 220.185 226.803 221.419 229.049C221.867 229.998 222.469 231.31 222.885 232.629C225.948 235.16 228.347 236.572 225.871 237.213C230.785 234.527 227.699 233.023 223.865 231.51C223.34 230.206 222.06 228.902 223.78 227.035C227.105 225.16 229.851 226.402 226.395 227.459C235.236 230.87 237.867 234.095 227.768 237.429C237.327 235.639 233.161 237.66 227.576 243.293C233.122 241.11 231.487 240.832 225.878 241.326C228.278 240.029 226.704 239.52 223.88 239.211C223.363 238.532 221.705 238.293 220.231 238.27C210.365 240.122 200.305 244.142 189.937 245.732C200.645 244.829 210.365 240.122 220.37 238.262C221.782 238.293 223.387 238.532 223.873 239.211C226.866 239.867 228.879 239.952 226.148 241.364C232.698 240.67 234.503 241.295 228.617 246.094C233.955 243.702 232.235 243.679 226.835 244.96C228.864 243.702 227.228 243.741 224.714 244.613C223.788 244.173 222.098 244.096 220.447 244.088C218.797 244.08 217.508 244.281 216.174 244.451C210.997 244.968 205.805 246.627 201.3 247.954C201.995 247.615 201.655 246.92 202.349 246.588C198.523 249.304 192.691 246.125 189.875 250.917C194.712 250.284 198.878 248.27 203.36 248.672C198.16 250.331 192.992 250.269 188.147 250.894L189.181 251.249C184.005 251.187 179.168 251.812 174.354 250.717C175.048 250.377 177.764 254.212 175.742 250.045C175.403 249.351 174.377 248.996 172.988 249.667C173.683 249.328 174.716 249.69 175.411 249.351L172.633 250.693L175.727 251.766C175.033 252.106 173.305 252.082 172.61 252.414L175.704 253.487C174.67 253.132 174.338 252.437 172.95 253.109C187.083 253.973 200.93 250.701 214.245 246.827C217.015 246.172 219.599 245.778 221.767 245.608C218.719 247.398 215.834 249.258 213.674 250.686C212.648 251.882 211.26 252.553 209.871 253.224C213.342 251.542 216.12 250.2 219.799 248.664C221.697 247.993 223.711 247.275 225.253 247.005C224.875 247.854 223.595 250.092 223.68 250.917C223.795 252.075 224.166 253.078 224.783 253.919C225.4 254.76 226.21 255.377 227.205 255.763C228.2 256.157 229.319 256.288 230.229 256.411C233.971 256.975 238.815 256.35 234.881 257.391C238.206 249.783 233.639 256.28 229.851 254.598C229.234 253.641 228.308 253.41 227.398 252.985C226.843 252.345 226.426 251.604 226.148 250.74C226.256 249.945 229.08 248.587 227.622 249.173C232.328 247.622 235.105 247.923 231.772 252.345C240.636 248.61 243.39 248.988 237.998 257.492C244.416 250.207 240.921 253.61 240.929 261.72C243.298 256.751 241.731 257.507 238.059 261.049C238.738 259.058 237.303 259.861 235.606 261.25C234.688 261.458 233.315 262.446 232.027 263.518C230.738 264.591 229.527 265.764 228.386 266.983C219.213 276.698 210.226 286.197 210.426 286.197C210.835 286.197 211.206 286.012 211.537 285.672C211.877 285.325 212.039 284.939 212.039 284.515C212.039 284.322 220.054 275.841 228.694 266.697C229.774 265.555 230.916 264.444 232.15 263.418C233.384 262.392 234.711 261.442 235.599 261.257C237.813 260.046 239.34 258.556 238.36 260.879C242.696 256.396 244.516 255.732 243.282 263.032C245.859 258.51 244.632 259.961 241.793 263.85C242.079 262.438 240.736 263.464 239.371 264.714C237.296 266.535 234.912 268.804 232.644 270.949C228.578 274.167 223.703 278.249 219.175 281.297L219.529 280.263C217.763 283.689 212.926 284.322 212.525 288.805C215.325 285.734 218.457 283.357 221.257 280.286C218.797 284.052 214.631 286.073 212.27 289.777C209.917 292.702 208.236 295.271 206.855 296.46C204.841 298.335 203.815 299.184 205.636 296.923C203.406 298.08 204.579 298.474 204.857 295.935C203.553 297.509 201.717 299.438 204.347 296.236C202.473 300.156 202.951 300.766 206.245 297.995C203.329 301.776 203.36 302.471 207.371 299.4C203.19 303.69 204.756 302.216 207.572 298.535C213.96 284.677 227.846 277.948 238.322 267.724C237.581 271.512 234.789 274.584 231.649 276.96C233.037 276.289 234.426 275.618 235.66 274.638C236.663 273.897 237.766 273.457 238.723 271.728C239.679 270 240.682 268.202 241.654 266.481C242.109 267.816 242.565 270.355 243.166 270.934C244 271.744 244.948 272.045 245.967 272.253C246.985 272.462 248.003 272.469 249.006 272.23C250.009 271.991 250.935 271.42 251.776 270.648C252.755 269.545 253.673 268.387 254.53 268.974C255.594 266.211 256.312 264.151 255.448 267.87C252.192 262.723 253.157 268.256 249.739 269.221C249.145 269.444 248.32 269.861 247.409 269.954C246.514 269.992 245.72 269.691 245.018 269.043C244.524 268.526 244.717 265.262 244.208 266.142C246.476 262.16 248.752 260.794 249.145 265.779C253.542 258.425 256.057 257.422 257.477 266.173C257.793 256.581 257.77 258.302 257.662 266.937C261.195 260.933 261.866 262.322 261.712 268.14C261.033 265.594 259.529 267.469 258.24 270.787C257.978 271.96 257.739 273.588 257.538 275.232C257.338 276.875 257.816 277.277 258.233 278.164C263.293 285.641 268.354 294.33 270.306 303.675C269.743 293.659 261.897 286.313 258.248 277.855C257.585 276.104 257.708 273.472 258.248 270.795C259.336 268.85 259.722 266.875 260.493 268.518C261.072 263.348 264.96 248.579 268.246 253.842C267.544 249.474 267.436 251.025 267.66 255.269C267.096 254.243 263.941 269.143 264.026 271.088C263.648 274.128 263.293 277.377 263.61 279.653C264.358 284.268 267.066 288.103 269.087 292.27C268.747 291.575 267.721 291.22 267.382 290.526C269.735 295.387 270.699 300.92 272.358 306.121C272.419 300.943 270.761 295.75 268.408 290.888C271.1 296.444 272.065 301.977 272.335 307.849L272.689 306.815C273.299 313.382 270.452 319.902 268.308 326.083L267.968 325.389C267.274 325.728 266.919 326.755 266.556 327.789C279.501 313.799 270.421 295.048 265.345 280.116C265.129 278.257 265.245 276.32 265.407 274.699C266.024 276.358 266.634 278.01 267.204 279.553C268.508 282.261 269.519 284.345 270.861 287.123C270.19 285.734 269.519 284.345 269.195 282.539C268.979 281.791 268.987 280.109 269.087 277.963C269.38 271.52 270.414 260.925 269.827 257.847C271.077 258.803 280.095 267.986 280.928 268.048C282.093 268.133 283.142 267.947 284.076 267.484C285.009 267.021 285.758 266.335 286.313 265.416C286.869 264.498 287.193 263.426 287.285 262.191C287.385 260.825 287.301 259.398 288.041 258.888C287.347 255.971 279.98 247.746 281.368 249.52C278.252 247.723 284.238 256.62 285.472 260.385C284.878 260.231 284.678 261.18 284.716 262.206C284.539 263.063 284.176 263.912 283.528 264.544C282.88 265.177 282.078 265.455 281.114 265.386C280.412 265.332 270.985 255.3 271.008 255.802C271.054 252.098 272.149 249.613 275.289 252.059C274.41 244.651 275.559 242.159 281.515 247.19C277.287 242.182 281.052 244.644 286.39 244.837C283.474 244.327 290.463 255.308 292.253 258.055C292.963 259.328 293.811 260.717 294.706 262.106C295.601 263.495 307.142 277.153 308.137 278.496C309.796 280.726 331.782 295.395 339.404 301.707C340.777 303.019 340.63 304.292 340.036 304.963C335.793 309.67 332.276 314.802 328.758 319.941C330.208 314.092 339.597 308.69 333.086 302.031C330.956 300.488 328.534 298.775 326.096 297.046C318.791 291.868 311.346 286.598 311.223 285.587C310.775 283.203 309.78 280.664 307.906 278.141C306.031 275.618 293.719 260.64 292.269 258.063C292.022 256.296 283.79 246.974 285.009 247.321C282.533 243.286 293.048 253.68 298.942 255.061C296.488 254.583 306.263 264.22 307.481 266.967C309.24 269.63 311.061 272.377 312.781 274.977C314.07 276.929 314.463 278.874 314.324 280.68C314.232 281.883 327.277 290.966 335.716 297.262C339.936 300.411 342.867 302.903 342.011 303.482C336.171 306.908 326.767 314.038 334.613 321.384C335.978 322.433 338.424 320.396 339.828 317.996C337.768 317.279 337.097 315.89 336.418 314.501C337.429 316.584 339.134 318.328 341.193 319.046L340.854 318.351C350.512 318.814 360.834 320.674 369.397 325.96C368.364 325.605 367.338 325.242 365.949 325.913C368.348 327.326 371.079 329.432 373.478 330.837L372.807 329.448C373.162 328.414 374.89 328.437 375.924 328.799C370.902 316.654 354.994 319.216 345.074 312.88C343.037 310.442 342.381 307.325 344.109 304.408C344.549 302.185 342.505 300.426 340.198 298.752C330.98 292.061 322.555 286.197 318.258 281.914C316.831 279.121 315.466 276.544 314.232 274.321C312.997 272.107 311.886 270.247 310.968 268.904C317.109 272.4 323.126 275.973 323.126 275.973L323.088 276.011Z" fill="currentColor"/>
<path d="M259.073 268.496C257.507 265.941 256.096 266.952 254.645 269.452C253.55 269.344 252.416 270.741 251.367 272.5C250.102 274.329 249.022 274.646 247.695 275.263C244.732 277.493 240.952 276.752 237.812 279.129C240.945 276.752 244.732 277.493 248.343 275.718C249.778 275.217 250.919 275.24 252.292 273.534C255.047 270.124 258.348 267.662 258.464 269.429C258.634 267.67 257.315 271.011 257.052 276.127C256.967 277.832 257.731 278.041 258.287 279.052C269.388 292.988 274.657 312.719 264.45 328.815C265.145 328.476 265.5 327.449 266.194 327.11C265.5 327.449 265.839 328.144 265.145 328.476C277.457 309.647 264.929 290.858 257.276 272.963C258.595 267.878 260.724 264.483 260.747 268.341C260.123 264.498 259.637 264.653 259.089 268.496H259.073Z" fill="currentColor"/>
<path d="M255.934 276.398C269.056 290.566 274.664 310.999 265.129 328.477L265.484 327.443C263.717 330.869 261.951 334.303 258.811 336.679C261.943 334.303 264.743 331.232 267.204 327.466C264.743 331.232 262.637 333.963 258.811 336.679C262.977 334.658 264.412 330.537 267.204 327.466C265.438 330.892 262.298 333.269 259.505 336.34C262.306 333.269 264.412 330.537 267.204 327.466C265.098 330.198 262.298 333.269 259.166 335.645C276.971 319.302 270.39 293.336 257.006 276.398C256.543 276.29 256.18 276.29 255.926 276.391L255.934 276.398Z" fill="currentColor"/>
<path d="M286.113 272.902C286.113 272.902 281.847 283.227 276.508 296.144C275.845 298.668 276.254 301.044 276.084 303.861C276.354 314.479 271.401 323.731 266.456 332.99C268.539 331.979 269.257 329.919 270.645 329.248C266.456 332.99 263.641 337.79 260.146 341.193C262.9 341.571 263.641 337.782 265.993 338.191C267.876 336.787 270.205 334.904 273.098 332.62C270.931 334.333 269.048 335.969 267.413 337.497C265.777 339.025 264.404 340.468 263.324 341.88C261.172 344.719 260.146 347.412 260.331 350.268C260.694 355.97 265.87 362.297 276.462 371.658C254.314 366.102 253.836 372.684 260.47 387.368C253.836 372.684 254.723 370.006 270.267 380.323C257.693 361.078 259.768 354.828 278.375 341.116C274.911 340.977 272.474 340.367 270.823 339.403C269.172 338.438 268.285 337.142 268.13 335.799C274.857 323.769 276.416 309.293 279.308 296.09C279.841 294.431 280.365 292.842 280.867 291.337C283.868 282.301 285.873 276.274 285.873 276.274L286.12 272.895L286.113 272.902Z" fill="currentColor"/>
<path d="M341.247 319.817C341.571 319.639 341.347 319.323 340.738 318.906C340.499 319.632 340.429 320.272 341.247 319.817Z" fill="currentColor"/>
<path d="M331.018 331.086C327.693 319.604 339.164 313.191 340.036 302.072C338.547 300.83 336.464 299.271 334.018 297.565C324.267 290.736 309.934 281.299 308.862 279.864C306.933 277.279 294.552 262.579 293.001 260.519C291.08 258.443 284.083 247.462 285.51 246.699C282.548 246.058 288.874 255.657 288.997 258.62C288.025 259.878 287.894 262.039 288.179 263.953C288.388 266.167 288.611 268.644 288.835 271.121C289.499 278.544 280.172 291.624 280.172 291.624C280.172 291.624 289.715 272.911 289.56 264.153C289.483 259.77 283.489 248.242 284.384 249.129C283.721 248.064 291.782 258.991 294.868 263.081C299.473 269.184 303.323 274.486 306.524 279.092C307.589 280.628 308.592 282.094 309.518 283.483C311.816 285.713 318.297 290.79 324.954 296.531C327.176 298.445 329.413 300.436 331.519 302.419C335.708 313.145 326.929 325.113 332.715 331.742C339.172 339.759 351.036 328.863 362.392 331.078C368.934 332.197 372.675 336.387 375.723 340.909C368.263 330.808 355.11 333.748 345.366 340.183C341.895 341.866 338.47 340.099 335.87 337.244C333.849 335.584 332.26 333.424 331.01 331.086H331.018Z" fill="currentColor"/>
<path d="M379.735 349.34C377.251 329.887 357.247 329.293 341.047 327.711C330.363 326.885 335.377 312.455 336.758 304.237C335.369 303.111 333.402 301.652 331.018 300.078C321.499 293.782 307.497 284.784 306.88 283.727C300.415 272.646 295.416 264.15 295.285 264.243C294.892 264.528 294.668 264.876 294.599 265.308C294.529 265.74 294.637 266.141 294.915 266.535C295.185 266.913 295.532 267.129 295.956 267.191C296.381 267.252 296.782 267.144 297.175 266.859C297.314 266.758 302.298 275.223 308.716 286.243C309.109 286.891 317.017 291.968 324.908 296.999C327.539 298.674 330.162 300.348 332.515 301.853C334.119 302.764 335.485 303.821 335.47 305.541C335.022 313.474 332.793 326.561 342.443 327.024C358.998 327.58 379.295 332.318 380.09 351.655C380.784 351.316 380.445 350.621 380.252 349.826C380.167 349.417 379.997 349.248 379.75 349.325L379.735 349.34Z" fill="currentColor"/>
<path d="M321.676 264.984L324.275 273.125C324.939 275.209 346.632 289.986 354.493 296.606C356.067 297.934 357.085 298.929 357.27 299.431C361.382 302.432 357.509 308.598 361.274 311.059C382.851 323.753 387.048 346.586 380.984 368.022C383.09 371.487 385.196 374.959 385.196 374.959L382.866 368.339C382.589 366.687 382.242 364.997 382.874 362.081C390.92 340.428 378.053 320.936 361.312 307.61C360.973 306.916 360.996 305.187 361.405 303.79C361.605 302.61 360.271 300.989 358.751 299.33C357.702 296.73 326.713 276.428 325.98 274.36C324.522 270.224 323.651 267.739 323.651 267.739L321.668 264.992L321.676 264.984Z" fill="currentColor"/>
<path d="M348.893 252.747C355.319 254.715 354.979 254.537 348.947 252.5C354.516 254.614 354.817 254.923 348.893 252.747Z" fill="currentColor"/>
<path d="M308.376 240.74C307.411 240.392 310.05 243.155 315.033 244.305C317.525 244.876 320.433 245.555 323.542 246.288C328.726 247.507 335.26 249.714 341.671 252.106C348.074 254.498 354.354 257.068 347.92 256.751C363.68 260.988 366.727 262.33 347.472 260.093C366.473 261.914 366.133 261.682 347.603 258.966C365.2 261.451 364.783 261.497 347.511 259.545C364.336 261.752 361.173 260.378 347.904 256.62C351.661 256.419 345.305 253.827 338.832 251.419C332.36 249.012 325.764 246.789 320.534 245.555C317.394 244.814 314.47 244.127 311.955 243.548C309.371 242.352 307.326 239.906 307.558 238.965C305.421 240.408 306.524 242.229 308.106 244.166C308.761 245.802 309.895 247.546 310.474 249.282C312.055 250.848 320.858 260.131 322.624 261.883C327.909 267.145 333.131 272.393 333.131 272.393C333.131 272.393 328.248 266.937 323.38 261.42C321.76 259.583 313.097 250.208 311.662 248.549C308.9 244.984 307.35 240.701 308.376 240.747V240.74Z" fill="currentColor"/>
<path d="M363.65 295.172C374.836 277.833 374.42 277.88 361.976 293.976C373.964 278.142 370.3 276.066 350.374 279.307C359.423 269.801 352.202 265.603 344.989 261.421C330.563 253.048 316.168 244.699 316.114 244.93C315.998 245.401 316.045 245.818 316.268 246.188C316.492 246.559 316.831 246.806 317.302 246.921C317.749 247.037 318.158 246.975 318.521 246.752C318.884 246.528 319.123 246.181 319.238 245.718C319.269 245.602 322.864 247.624 328.233 250.718C333.61 253.812 340.762 257.971 346.794 262.076C355.041 266.305 362.169 270.48 351.793 282.162C372.838 276.691 376.371 278.736 366.003 296.646C376.109 278.304 375.77 278.073 363.65 295.18V295.172Z" fill="currentColor"/>
<path d="M320.789 225.908C320.789 225.908 331.55 234.326 344.472 244.427C350.929 249.481 357.926 254.952 348.028 256.55C370.848 265.061 376.765 269.691 370.809 298.874C385.374 276.427 388.066 278.534 393.459 300.487C391.661 293.164 391.191 287.994 391.931 284.73C393.219 281.134 395.727 279.46 393.32 283.079C396.891 281.659 399.923 280.833 401.713 283.156C404.868 281.343 406.789 282.678 408.108 285.903C409.512 288.503 410.307 292.994 410.546 299.561C410.885 295.664 411.148 292.315 411.24 289.561C411.333 286.806 411.263 284.622 410.801 285C410.631 278.873 409.312 277.153 404.39 283.295C404.683 278.079 403.287 277.947 399.931 281.991C399.383 278.966 396.868 280.108 393.852 281.651C397.316 279.452 400.278 277.646 400.533 281.867C404.598 276.088 405.956 276.335 405.007 283.272C409.134 275.416 410.963 274.243 411.379 283.557C412.729 275.262 412.675 277.446 411.726 284.583C412.397 281.134 412.174 282.639 411.356 285.918C410.585 288.102 409.219 292.061 407.46 296.822C409.219 292.061 410.615 288.079 411.395 285.895C412.228 282.562 412.451 281.026 411.726 284.56C412.76 276.952 412.845 274.413 411.194 283.426C410.7 272.924 408.471 273.973 403.048 282.608C404.945 273.773 403.642 272.53 397.447 279.977C398.944 272.152 395.549 273.017 389.732 276.211C395.449 272.816 398.751 271.751 396.621 279.498C402.901 271.628 403.75 272.561 400.294 281.528C406.635 271.543 408.671 269.59 406.002 282.346C408.857 269.529 407.005 271.411 400.726 281.674C404.706 271.836 404.259 270.377 397.547 279.691C400.61 269.675 397.401 270.439 389.887 275.509C397.215 270.177 400.193 269.166 396.166 278.912C403.109 269.212 403.048 270.277 397.269 280.023C404.868 268.958 406.743 266.581 400.317 280.316C405.655 265.331 402.693 266.465 391.653 276.265C399.754 265.408 399.777 263.224 387.31 271.28C396.429 260.5 393.057 259.96 381.108 262.893C393.189 259.551 396.143 259.536 384.842 268.039C397.771 259.991 396.459 260.462 383.476 266.905C396.629 258.88 398.11 256.827 381.478 261.071C396.452 252.923 393.304 251.063 378.315 248.879C393.397 249.072 396.637 248.933 379.31 247.722C397.917 247.436 395.95 246.078 379.241 241.572C397.987 243.432 401.975 242.143 388.676 225.861C404.436 236.386 402.893 231.919 395.387 218.477C402.307 231.039 403.202 234.697 389.732 224.279C400.486 238.84 396.884 239.319 381.308 234.766C394.353 241.24 395.433 242.683 380.167 239.635C394.137 244.496 391.777 244.867 378.655 243.632C390.689 246.634 388.807 247.444 378.084 247.691C385.073 248.393 383.222 248.532 377.343 248.401C377.845 248.224 374.504 247.02 370.986 244.99C367.469 242.961 363.773 240.098 359.469 236.564C361.637 243.856 354.123 240.43 347.442 237.39C334.081 231.309 324.052 226.741 324.052 226.741L320.766 225.915L320.789 225.908Z" fill="currentColor"/>
</svg>
