<svg width="288" height="301" viewBox="0 0 288 301" fill="none" xmlns="http://www.w3.org/2000/svg">
<path d="M171.688 257.721C169.768 257.721 168.088 257.031 166.848 255.711C165.268 254.031 164.668 251.571 165.218 248.951C165.308 248.491 165.458 248.051 165.658 247.581C166.808 244.901 169.428 243.241 172.498 243.231C175.648 243.231 178.338 244.941 179.528 247.701C179.948 248.681 180.148 249.571 180.138 250.421C180.098 253.281 175.718 257.221 172.898 257.631C172.488 257.691 172.078 257.721 171.688 257.721ZM172.498 245.231C170.728 245.231 168.488 246.061 167.498 248.361C167.348 248.701 167.248 249.031 167.178 249.351C166.768 251.321 167.178 253.131 168.308 254.331C169.338 255.431 170.868 255.891 172.618 255.641C174.658 255.351 178.118 252.051 178.138 250.381C178.138 249.821 177.998 249.191 177.698 248.481C176.668 246.081 174.338 245.221 172.508 245.221L172.498 245.231ZM200.498 227.871C198.838 227.871 196.548 226.241 195.358 225.001C194.508 224.101 194.168 223.371 194.298 222.711C194.848 219.831 196.988 216.211 199.478 215.401C201.088 214.871 202.858 216.001 205.308 217.561C206.448 218.281 207.738 219.111 209.188 219.871C209.488 220.031 209.688 220.321 209.718 220.661C209.748 221.001 209.608 221.321 209.348 221.531C208.078 222.551 207.018 223.541 206.078 224.401C204.078 226.251 202.638 227.591 200.828 227.841C200.728 227.851 200.618 227.861 200.508 227.861L200.498 227.871ZM196.288 222.961C196.678 223.881 199.578 225.991 200.538 225.871C201.728 225.701 202.978 224.541 204.718 222.941C205.388 222.321 206.128 221.641 206.958 220.921C205.968 220.341 205.058 219.771 204.238 219.241C202.478 218.121 200.818 217.061 200.108 217.291C198.498 217.821 196.768 220.731 196.298 222.951L196.288 222.961ZM172.618 202.491C172.618 202.491 172.588 202.491 172.578 202.491C172.258 202.481 171.968 202.321 171.788 202.051C171.058 200.971 170.318 200.041 169.608 199.131C168.078 197.191 166.758 195.521 166.598 193.621C166.428 191.631 169.678 189.131 169.818 189.031C171.478 187.771 172.278 187.851 172.728 188.021C175.478 189.061 178.118 191.721 178.878 194.231C179.298 195.641 178.018 197.011 176.078 199.081C175.238 199.981 174.288 200.991 173.398 202.111C173.208 202.351 172.918 202.491 172.618 202.491ZM172.158 189.951C171.248 190.191 168.638 192.621 168.598 193.471C168.708 194.751 169.808 196.141 171.188 197.901C171.658 198.501 172.168 199.151 172.688 199.851C173.358 199.081 174.018 198.371 174.618 197.721C175.598 196.671 176.938 195.241 176.948 194.761C176.398 192.941 174.258 190.791 172.148 189.941L172.158 189.951ZM235.158 178.201C234.848 178.201 234.558 178.061 234.368 177.811C234.038 177.381 233.698 177.001 233.398 176.681C232.678 175.881 232.048 175.191 232.148 174.311C232.298 173.021 233.748 171.951 234.728 171.591C234.778 171.571 234.818 171.561 234.868 171.551C234.768 170.561 234.458 169.561 234.138 168.531L234.078 168.341C233.098 165.201 231.918 161.901 230.258 157.661C229.898 156.751 229.068 155.871 228.468 155.301C227.138 154.011 226.618 152.541 226.728 150.401C226.808 149.021 226.538 147.601 226.008 146.581C225.278 145.191 224.618 143.741 223.968 142.341C222.108 138.301 220.348 134.491 217.168 131.471C216.428 130.761 216.058 129.771 215.728 128.891L215.678 128.751C214.908 126.701 213.658 125.001 211.728 123.421C210.358 122.301 209.518 120.521 208.878 118.931C208.208 117.261 207.348 115.601 205.668 114.761C203.758 113.801 202.558 112.351 201.888 110.181C201.328 108.371 199.958 107.201 198.058 106.011C196.968 105.321 195.478 104.181 194.548 102.641C193.088 100.241 191.588 98.8411 189.518 97.9711C186.618 96.7511 185.808 95.1411 186.628 92.2611C187.328 89.8111 187.508 87.3111 187.708 84.6611C187.938 81.5711 188.178 78.3711 189.298 75.3011C189.298 75.3011 189.298 75.2911 189.298 75.2811C189.248 75.2611 189.208 75.2411 189.158 75.2211C188.858 75.0811 188.548 74.9411 188.328 74.9311C185.198 74.7811 182.058 74.4311 179.018 74.1011C176.498 73.8311 173.898 73.5411 171.338 73.3711C169.488 73.2511 167.638 73.3711 165.688 73.5111C162.688 73.7211 159.598 73.9411 156.478 73.1711C156.358 73.1411 156.138 73.1711 155.938 73.1711L155.628 73.1911C152.088 73.3911 148.808 72.6211 145.618 70.8311C144.498 70.2011 143.258 69.7711 141.948 69.3011C141.578 69.1711 141.198 69.0411 140.828 68.9011C140.118 68.6411 139.398 68.4111 138.678 68.1811C137.588 67.8311 136.458 67.4711 135.378 67.0011C132.538 65.8011 129.188 64.5911 125.458 64.6311C124.308 64.6611 123.208 64.3211 122.148 64.0011C121.928 63.9311 121.708 63.8711 121.488 63.8011C120.558 63.5411 119.668 63.2311 118.628 62.8711C118.478 62.8211 118.318 62.7611 118.168 62.7111C118.088 63.0611 118.008 63.4111 117.918 63.7511C117.578 65.1711 117.278 66.3911 117.338 67.5611C117.528 70.8911 116.708 73.7711 115.838 76.8211L115.548 77.8511C114.738 80.7711 113.338 82.4511 110.728 83.6711C110.198 83.9211 109.658 84.1311 109.118 84.3411C108.458 84.6011 107.838 84.8411 107.248 85.1411C106.148 85.7111 105.038 86.3311 103.968 86.9411C103.088 87.4411 102.198 87.9411 101.308 88.4111C100.158 89.0211 98.9881 89.5811 97.8281 90.0511C96.9781 90.4011 96.1181 90.7211 95.2581 91.0411C93.9081 91.5411 92.5181 92.0611 91.2181 92.6711C89.7981 93.3411 88.2781 94.2311 86.4381 95.4911C81.8581 98.6411 77.1181 102.001 73.3181 104.701C73.0581 104.881 72.8081 105.171 72.5481 105.471C72.4081 105.631 72.2681 105.791 72.1281 105.941C70.7481 107.391 69.1681 108.651 67.6481 109.861C65.2081 111.811 62.8981 113.651 61.3081 116.241C61.1281 116.531 60.8781 116.671 60.7481 116.751C57.9281 118.661 55.8681 121.191 53.6781 123.871C53.4881 124.101 53.3081 124.331 53.1181 124.561C53.3981 124.801 53.6081 125.111 53.8481 125.451C53.9881 125.651 54.1381 125.871 54.3381 126.131C54.5581 126.421 54.6081 126.801 54.4681 127.141C54.3281 127.481 54.0081 127.701 53.6481 127.741C53.3081 127.771 53.0181 127.821 52.7681 127.871C52.1381 127.981 51.5381 128.081 50.9881 127.741C50.8481 127.661 50.7381 127.551 50.6481 127.441C50.0581 128.081 49.4481 128.701 48.8181 129.291C48.6181 129.471 48.4481 129.811 48.2681 130.171C48.1181 130.461 47.9681 130.771 47.7681 131.071C47.4381 131.561 47.0781 132.021 46.7181 132.491C46.5281 132.741 46.3381 132.991 46.1481 133.241L44.8881 134.931C44.6781 135.211 44.4781 135.481 44.2681 135.761L44.6881 135.951C44.3281 136.721 43.5781 137.441 42.7281 137.841C42.1281 138.651 41.5381 139.461 40.9481 140.271L39.3281 139.101C39.7781 138.491 40.2181 137.881 40.6681 137.271C40.2181 136.811 39.7081 136.121 39.8681 135.421L41.7181 135.851C41.7581 135.791 41.7981 135.741 41.8381 135.681C41.8381 135.581 41.8181 135.511 41.7981 135.481C41.8181 135.511 41.8481 135.561 41.8781 135.611C42.3481 134.981 42.8081 134.361 43.2781 133.731L44.5381 132.041C44.7281 131.781 44.9281 131.521 45.1281 131.261C45.4681 130.821 45.7981 130.391 46.1081 129.941C46.2481 129.731 46.3581 129.501 46.4781 129.271C46.7181 128.791 46.9881 128.251 47.4581 127.821C49.1581 126.251 50.6581 124.401 52.1181 122.611C54.2981 119.931 56.5481 117.161 59.5781 115.111C59.6081 115.091 59.6481 115.071 59.6881 115.041C61.4581 112.231 63.9681 110.231 66.3981 108.291C67.8681 107.121 69.3881 105.911 70.6781 104.551C70.7981 104.421 70.9181 104.281 71.0381 104.141C71.3481 103.781 71.7081 103.381 72.1581 103.061C75.9681 100.361 80.7081 96.9911 85.3081 93.8311C87.2381 92.5111 88.8481 91.5611 90.3681 90.8411C91.7481 90.2011 93.1781 89.6611 94.5581 89.1511C95.3981 88.8411 96.2381 88.5211 97.0681 88.1811C98.1581 87.7311 99.2681 87.2111 100.358 86.6311C101.238 86.1611 102.108 85.6711 102.978 85.1811C104.068 84.5711 105.188 83.9411 106.318 83.3511C106.998 83.0011 107.698 82.7311 108.378 82.4611C108.878 82.2611 109.378 82.0711 109.868 81.8411C111.938 80.8711 112.958 79.6411 113.608 77.2911L113.898 76.2511C114.718 73.3711 115.488 70.6411 115.318 67.6511C115.238 66.1811 115.578 64.7611 115.948 63.2611C116.108 62.6011 116.278 61.9111 116.408 61.2011C116.458 60.9211 116.638 60.6711 116.888 60.5211C117.138 60.3711 117.438 60.3411 117.718 60.4411C118.268 60.6311 118.778 60.8011 119.268 60.9711C120.268 61.3211 121.138 61.6211 122.018 61.8711C122.248 61.9411 122.478 62.0011 122.708 62.0711C123.668 62.3611 124.558 62.6311 125.408 62.6111C125.498 62.6111 125.598 62.6111 125.688 62.6111C129.638 62.6111 133.178 63.8811 136.138 65.1411C137.148 65.5711 138.178 65.9011 139.278 66.2511C140.028 66.4911 140.768 66.7311 141.498 67.0011C141.858 67.1311 142.228 67.2611 142.588 67.3911C143.918 67.8611 145.298 68.3411 146.568 69.0611C149.418 70.6611 152.338 71.3411 155.488 71.1711L155.738 71.1511C156.078 71.1211 156.498 71.0911 156.928 71.1911C159.738 71.8811 162.548 71.6811 165.518 71.4711C167.458 71.3311 169.458 71.2011 171.438 71.3311C174.028 71.5011 176.658 71.7911 179.198 72.0711C182.208 72.4011 185.328 72.7411 188.398 72.8911C189.008 72.9211 189.538 73.1611 189.958 73.3511C190.088 73.4111 190.218 73.4711 190.338 73.5111C190.598 73.6011 190.808 73.8011 190.918 74.0611C190.958 74.1711 191.018 74.2611 191.058 74.3411C191.228 74.6411 191.478 75.1011 191.268 75.6411C190.138 78.5311 189.918 81.5611 189.678 84.7511C189.478 87.3811 189.278 90.1011 188.528 92.7411C187.988 94.6411 188.298 95.2311 190.278 96.0711C192.728 97.1011 194.568 98.7911 196.238 101.551C196.808 102.501 197.828 103.461 199.108 104.271C201.068 105.511 202.988 107.001 203.778 109.541C204.288 111.201 205.118 112.211 206.548 112.921C208.838 114.071 209.938 116.201 210.718 118.141C211.228 119.421 211.958 120.991 212.988 121.831C215.198 123.651 216.648 125.611 217.538 128.001L217.588 128.141C217.838 128.811 218.118 129.581 218.528 129.971C221.988 133.261 223.908 137.431 225.768 141.451C226.408 142.831 227.058 144.251 227.768 145.601C228.468 146.941 228.808 148.711 228.718 150.451C228.628 152.011 228.938 152.921 229.848 153.801C230.638 154.571 231.608 155.611 232.108 156.871C233.798 161.161 234.988 164.491 235.978 167.691L236.038 167.881C236.478 169.291 236.958 170.821 236.888 172.451C237.288 172.851 237.708 173.421 237.728 174.031C237.748 174.861 237.298 175.581 236.768 176.401C236.538 176.751 236.278 177.161 236.018 177.631C235.858 177.931 235.558 178.121 235.218 178.151C235.188 178.151 235.168 178.151 235.138 178.151L235.158 178.201ZM234.158 174.471C234.278 174.671 234.618 175.051 234.878 175.331C234.928 175.381 234.968 175.431 235.018 175.491C235.048 175.451 235.068 175.411 235.098 175.371C235.218 175.171 235.348 174.981 235.458 174.791L234.438 174.311C234.488 174.201 234.538 174.091 234.578 173.971C234.378 174.151 234.218 174.331 234.158 174.461V174.471ZM215.478 177.431C214.548 177.431 213.708 177.051 213.168 176.361C212.598 175.651 212.438 174.691 212.718 173.751C213.058 172.591 214.658 171.451 215.898 171.481C216.778 171.521 217.418 172.151 218.148 172.881C218.438 173.171 218.768 173.501 219.148 173.821C219.388 174.021 219.518 174.331 219.498 174.641C219.478 174.951 219.318 175.241 219.058 175.421C218.638 175.701 218.268 175.991 217.948 176.251C217.188 176.851 216.528 177.371 215.678 177.421C215.608 177.421 215.538 177.421 215.468 177.421L215.478 177.431ZM215.788 173.491C215.498 173.491 214.738 174.041 214.638 174.341C214.548 174.651 214.578 174.931 214.738 175.131C214.908 175.351 215.218 175.461 215.568 175.441C215.788 175.431 216.288 175.041 216.718 174.691C216.788 174.631 216.868 174.571 216.948 174.511C216.878 174.441 216.818 174.381 216.748 174.321C216.418 173.991 215.968 173.541 215.788 173.501V173.491ZM200.038 169.001C199.698 169.001 199.088 168.851 198.208 167.951C197.658 167.381 196.768 166.291 196.988 165.331C197.238 164.231 197.968 163.321 198.888 162.181C199.308 161.661 199.798 161.061 200.318 160.341C200.518 160.071 200.848 159.911 201.178 159.931C201.518 159.951 201.828 160.141 201.988 160.431C202.448 161.231 202.928 161.931 203.348 162.551C204.328 163.991 205.038 165.021 204.658 166.081C204.078 167.711 201.718 168.711 200.278 168.981C200.228 168.991 200.138 169.011 200.028 169.011L200.038 169.001ZM198.978 165.641C199.128 166.001 199.758 166.731 200.118 166.971C201.308 166.691 202.588 165.951 202.788 165.411C202.758 165.211 202.178 164.361 201.708 163.681C201.498 163.371 201.278 163.041 201.048 162.691C200.838 162.951 200.638 163.201 200.458 163.431C199.718 164.351 199.168 165.031 198.988 165.641H198.978ZM225.268 167.231C225.088 167.231 224.898 167.181 224.708 167.071C224.058 166.701 223.668 166.081 223.328 165.541C223.218 165.371 223.118 165.191 222.998 165.041C222.838 164.821 222.778 164.541 222.828 164.271C222.878 164.001 223.038 163.761 223.268 163.611C223.408 163.521 223.558 163.401 223.698 163.291C224.148 162.931 224.708 162.481 225.428 162.441C226.108 162.401 226.708 162.671 227.408 162.981C227.718 163.121 228.088 163.281 228.518 163.441C228.878 163.571 229.128 163.901 229.158 164.271C229.198 164.651 229.018 165.021 228.698 165.221C227.988 165.671 227.428 166.061 227.008 166.371C226.288 166.881 225.778 167.241 225.268 167.241V167.231ZM225.148 164.691C225.228 164.821 225.308 164.941 225.388 165.051C225.528 164.951 225.688 164.841 225.848 164.731C225.918 164.681 225.988 164.631 226.058 164.581C225.828 164.491 225.648 164.441 225.528 164.441C225.458 164.461 225.298 164.571 225.138 164.691H225.148ZM215.368 157.271C215.368 157.271 215.298 157.271 215.268 157.271C214.428 157.231 213.988 156.491 213.598 155.831C213.488 155.651 213.388 155.471 213.278 155.331C213.108 155.111 213.048 154.831 213.088 154.551C213.138 154.281 213.298 154.041 213.528 153.891C213.698 153.781 213.868 153.641 214.048 153.511C214.578 153.101 215.178 152.641 215.948 152.541C216.748 152.451 217.278 153.031 217.848 153.661C218.058 153.891 218.298 154.161 218.578 154.421C218.818 154.651 218.938 154.981 218.888 155.301C218.838 155.631 218.628 155.911 218.328 156.051C217.968 156.221 217.658 156.391 217.378 156.551C216.688 156.931 216.088 157.271 215.378 157.271H215.368ZM215.418 154.981C215.468 155.061 215.518 155.151 215.568 155.221C215.758 155.151 216.008 155.021 216.248 154.881C216.158 154.781 216.058 154.681 215.978 154.601C215.808 154.691 215.608 154.831 215.408 154.981H215.418ZM71.2281 149.161C70.9281 149.161 70.6381 149.021 70.4481 148.791C70.1381 148.411 69.7981 148.051 69.4981 147.721C68.6481 146.811 67.9781 146.101 68.3281 145.231C68.6781 144.351 69.4381 143.751 70.1081 143.221C70.3381 143.041 70.5681 142.861 70.7781 142.661C70.9781 142.481 71.2381 142.371 71.5081 142.391C71.7781 142.401 72.0281 142.531 72.2081 142.731C72.3781 142.921 72.5781 143.111 72.7881 143.301C73.4181 143.891 74.1381 144.551 74.2081 145.471C74.2781 146.361 73.6481 147.021 72.9181 147.781C72.6381 148.071 72.3281 148.401 72.0281 148.771C71.8381 149.011 71.5481 149.141 71.2481 149.141L71.2281 149.161ZM70.3581 145.681C70.5181 145.881 70.7681 146.141 70.9581 146.351C71.0481 146.441 71.1381 146.541 71.2281 146.641C71.3081 146.561 71.3781 146.481 71.4481 146.401C71.7081 146.131 72.0581 145.761 72.1681 145.571C72.0681 145.381 71.6581 145.001 71.4081 144.761C71.4081 144.761 71.3881 144.741 71.3781 144.741C71.3681 144.751 71.3481 144.761 71.3381 144.781C70.9581 145.081 70.5781 145.381 70.3481 145.681H70.3581ZM52.0681 148.231C51.1381 148.231 50.2081 147.341 50.0281 147.151C49.5081 146.621 49.2881 146.131 49.3581 145.641C49.5181 144.571 50.4281 142.891 51.6581 142.621C52.5281 142.441 53.2981 142.961 54.1781 143.581C54.5381 143.831 54.9481 144.121 55.4081 144.391C55.6981 144.561 55.8781 144.861 55.8981 145.191C55.9181 145.521 55.7681 145.851 55.4981 146.051C55.0881 146.361 54.7381 146.671 54.4281 146.931C53.6981 147.561 53.0681 148.111 52.2381 148.221C52.1781 148.221 52.1181 148.231 52.0581 148.231H52.0681ZM51.3981 145.691C51.5681 145.881 51.8881 146.131 52.0781 146.211C52.3281 146.121 52.7381 145.761 53.1281 145.421C53.1581 145.391 53.1881 145.371 53.2181 145.341C53.1581 145.301 53.0981 145.261 53.0381 145.221C52.7081 144.991 52.2781 144.691 52.0681 144.601C51.8581 144.761 51.5481 145.241 51.4081 145.691H51.3981ZM172.998 140.411C172.818 140.411 172.638 140.361 172.478 140.261C172.278 140.141 172.028 140.021 171.778 139.891C170.838 139.431 169.958 139.001 170.008 138.071C170.058 137.151 170.448 136.311 170.818 135.501C170.948 135.211 171.088 134.911 171.208 134.601C171.318 134.331 171.538 134.121 171.808 134.021C172.078 133.921 172.388 133.951 172.638 134.101L175.248 135.611C175.478 135.741 175.648 135.971 175.718 136.231C175.788 136.491 175.748 136.771 175.608 137.001L173.848 139.911C173.708 140.141 173.488 140.301 173.228 140.371C173.148 140.391 173.068 140.401 172.988 140.401L172.998 140.411ZM172.068 137.801C172.238 137.891 172.458 138.011 172.628 138.091L173.368 136.851L172.598 136.411C172.378 136.901 172.158 137.371 172.058 137.801H172.068ZM80.5981 138.681C80.5981 138.681 80.5481 138.681 80.5281 138.681C79.4481 138.651 78.5681 137.181 78.4681 137.011C78.2381 136.621 77.9781 136.041 78.2781 135.481C78.7581 134.581 79.8481 133.551 81.0281 133.321C81.8881 133.141 82.4881 133.821 83.1781 134.601C83.4381 134.891 83.7381 135.231 84.0881 135.561C84.3181 135.781 84.4281 136.101 84.3881 136.421C84.3481 136.741 84.1481 137.021 83.8681 137.171C83.4881 137.371 83.1481 137.591 82.8481 137.781C82.1081 138.251 81.4081 138.691 80.6081 138.691L80.5981 138.681ZM80.2481 136.101C80.3781 136.301 80.5781 136.531 80.7181 136.661C80.9781 136.591 81.3881 136.321 81.7681 136.081C81.7781 136.081 81.7881 136.071 81.7981 136.061C81.7581 136.021 81.7181 135.981 81.6881 135.931C81.5181 135.741 81.3081 135.511 81.1581 135.361C80.8481 135.501 80.5081 135.781 80.2581 136.101H80.2481ZM62.0881 138.071C62.0881 138.071 61.9981 138.071 61.9581 138.071C61.1781 137.991 60.5481 137.531 59.9981 137.131C59.8181 137.001 59.6381 136.871 59.4581 136.761C59.2281 136.621 59.0581 136.381 58.9981 136.111C58.9381 135.841 58.9981 135.561 59.1581 135.341C59.2581 135.191 59.3581 135.011 59.4581 134.821C59.8281 134.151 60.2381 133.381 61.0781 133.311C61.8381 133.251 62.5081 133.571 63.2181 133.921C63.5081 134.061 63.8281 134.221 64.1781 134.361C64.4781 134.481 64.7081 134.751 64.7781 135.071C64.8481 135.391 64.7581 135.731 64.5381 135.971C64.2781 136.251 64.0481 136.541 63.8481 136.801C63.3281 137.461 62.8481 138.081 62.1081 138.081L62.0881 138.071ZM61.2981 135.601C61.5081 135.751 61.7281 135.901 61.9081 135.991C61.9981 135.891 62.0981 135.761 62.1881 135.641C61.9181 135.511 61.6481 135.381 61.4481 135.321C61.3981 135.401 61.3381 135.501 61.2881 135.591L61.2981 135.601ZM70.9481 128.561C70.9481 128.561 70.8681 128.561 70.8281 128.561C70.5481 128.521 70.2981 128.371 70.1281 128.141C70.0481 128.031 69.9481 127.921 69.8581 127.801C69.5081 127.391 69.0681 126.881 69.0681 126.181C69.0781 125.491 69.5481 125.031 69.9881 124.581C70.1481 124.421 70.3281 124.241 70.5081 124.031C70.7081 123.791 71.0081 123.651 71.3081 123.681C71.6181 123.691 71.8981 123.841 72.0781 124.091C72.2481 124.321 72.4281 124.541 72.5981 124.741C73.1081 125.351 73.6281 125.981 73.2381 126.711C72.9281 127.291 72.4281 127.671 71.9881 128.001C71.8481 128.101 71.7181 128.211 71.5881 128.321C71.4081 128.481 71.1681 128.561 70.9381 128.561H70.9481Z" fill="currentColor"/>
</svg>
