<svg width="101" height="131" viewBox="0 0 101 131" fill="none" xmlns="http://www.w3.org/2000/svg">
<path d="M41.6416 77.0712C46.2216 71.0312 46.1816 61.8512 47.6316 54.6912C49.3416 46.2512 51.4116 37.3912 49.7616 28.7712C49.1816 25.7512 47.8916 23.3812 45.7416 21.9012C43.6016 19.9212 38.6016 16.9212 36.6016 21.9212C34.1616 30.0512 33.8316 70.5712 31.9516 79.0412C30.0116 92.9712 23.1516 105.841 21.1016 119.211C21.1916 119.431 21.2716 119.651 21.3616 119.871C23.9016 118.131 40.2016 78.9712 41.6416 77.0712Z" fill="currentColor"/>
<path d="M56.5494 56.5219C57.6094 65.9319 54.6094 74.9319 58.4694 82.4419C59.7494 84.0119 61.7894 84.7419 64.2894 85.5919C65.4494 85.7619 66.5294 85.8419 67.5694 86.0119C68.6094 86.1819 69.6094 86.4319 70.3294 86.4319C69.9994 85.2319 69.6094 83.5319 69.3794 81.8219C68.6994 76.7019 69.4494 71.5419 69.7194 66.3119C70.1194 58.3819 69.7194 50.4219 69.0294 42.5119C67.9594 30.2219 64.1394 18.0919 49.6094 16.9219C52.6094 23.3019 54.3394 29.8119 55.3294 36.4219C56.3094 43.0319 56.5494 49.7419 56.5494 56.5119V56.5219Z" fill="currentColor"/>
</svg>
