<svg width="176" height="184" viewBox="0 0 176 184" fill="none" xmlns="http://www.w3.org/2000/svg">
<path d="M144.989 151.596C144.989 120.105 119.473 94.582 88.0062 94.582C56.5389 94.582 31.0234 120.112 31.0234 151.596H144.995H144.989Z" fill="currentColor"/>
<path d="M31.0156 32.4961C31.0156 63.9868 56.5311 89.5102 87.9984 89.5102C119.466 89.5102 144.981 63.9807 144.981 32.4961H31.0156Z" fill="currentColor"/>
<path d="M158.127 92.1321L95.9023 92.0586" stroke="#8D8D8E" stroke-width="1.15" stroke-miterlimit="10"/>
<path d="M80.0976 92.0406L17.8672 91.9609" stroke="#8D8D8E" stroke-width="1.15" stroke-miterlimit="10"/>
<path d="M87.8354 167.111C90.9331 167.111 93.4443 164.598 93.4443 161.499C93.4443 158.399 90.9331 155.887 87.8354 155.887C84.7377 155.887 82.2266 158.399 82.2266 161.499C82.2266 164.598 84.7377 167.111 87.8354 167.111Z" stroke="#8D8D8E" stroke-width="1.15" stroke-miterlimit="10"/>
<path d="M87.7808 169.396C90.8785 169.396 93.3896 166.883 93.3896 163.784C93.3896 160.684 90.8785 158.172 87.7808 158.172C84.6831 158.172 82.1719 160.684 82.1719 163.784C82.1719 166.883 84.6831 169.396 87.7808 169.396Z" stroke="#8D8D8E" stroke-width="1.15" stroke-miterlimit="10"/>
<path d="M88.2104 25.8255C91.3081 25.8255 93.8193 23.3129 93.8193 20.2135C93.8193 17.1141 91.3081 14.6016 88.2104 14.6016C85.1127 14.6016 82.6016 17.1141 82.6016 20.2135C82.6016 23.3129 85.1127 25.8255 88.2104 25.8255Z" stroke="#8D8D8E" stroke-width="1.15" stroke-miterlimit="10"/>
<path d="M88.1597 28.1185C91.2574 28.1185 93.7685 25.6059 93.7685 22.5065C93.7685 19.4071 91.2574 16.8945 88.1597 16.8945C85.062 16.8945 82.5508 19.4071 82.5508 22.5065C82.5508 25.6059 85.062 28.1185 88.1597 28.1185Z" stroke="#8D8D8E" stroke-width="1.15" stroke-miterlimit="10"/>
<path d="M87.9648 162.624L88.0628 100.359" stroke="#8D8D8E" stroke-width="1.15" stroke-miterlimit="10"/>
<path d="M88.0859 84.5475L88.1839 22.2891" stroke="#8D8D8E" stroke-width="1.15" stroke-miterlimit="10"/>
</svg>
