<svg width="220" height="94" viewBox="0 0 220 94" fill="none" xmlns="http://www.w3.org/2000/svg">
<path d="M47.0109 46.9697C53.0509 51.5497 62.2309 51.5097 69.3909 52.9597C77.8309 54.6697 86.6909 56.7397 95.3109 55.0897C98.3309 54.5097 100.701 53.2197 102.181 51.0697C104.161 48.9297 107.161 43.9297 102.161 41.9297C94.0309 39.4897 53.5109 39.1597 45.0409 37.2797C31.1109 35.3397 18.2409 28.4797 4.87094 26.4297C4.65094 26.5197 4.43094 26.5997 4.21094 26.6897C5.95094 29.2297 45.1109 45.5297 47.0109 46.9697Z" fill="currentColor"/>
<path d="M67.5584 61.8697C58.1484 62.9297 49.1484 59.9297 41.6384 63.7897C40.0684 65.0697 39.3384 67.1097 38.4884 69.6097C38.3184 70.7697 38.2384 71.8497 38.0684 72.8897C37.8984 73.9297 37.6484 74.9297 37.6484 75.6497C38.8484 75.3197 40.5484 74.9297 42.2584 74.6997C47.3784 74.0197 52.5384 74.7697 57.7684 75.0397C65.6984 75.4397 73.6584 75.0397 81.5684 74.3497C93.8584 73.2797 105.988 69.4597 107.158 54.9297C100.778 57.9297 94.2684 59.6597 87.6584 60.6497C81.0484 61.6297 74.3384 61.8697 67.5684 61.8697H67.5584Z" fill="currentColor"/>
<path d="M170.559 47.6603C163.909 44.0203 154.839 45.4203 147.539 45.0503C138.939 44.6103 129.869 43.8803 121.599 46.7803C118.699 47.8003 116.549 49.4303 115.399 51.7803C113.759 54.1903 111.539 59.5803 116.779 60.8103C125.179 62.0203 165.299 56.3403 173.959 56.9403C188.019 56.7903 201.769 61.6703 215.289 61.7103C215.489 61.5903 215.699 61.4803 215.899 61.3603C213.799 59.1103 172.659 48.8003 170.569 47.6503L170.559 47.6603Z" fill="currentColor"/>
<path d="M148.031 35.9584C157.181 33.5184 166.521 35.1484 173.381 30.2184C174.741 28.7184 175.161 26.5984 175.641 23.9884C175.641 22.8184 175.561 21.7384 175.571 20.6884C175.581 19.6384 175.681 18.6084 175.571 17.8984C174.431 18.4084 172.811 19.0384 171.151 19.5184C166.191 20.9484 160.981 20.9684 155.761 21.4884C147.861 22.2684 140.041 23.8384 132.331 25.6984C120.331 28.5784 108.901 34.1484 109.901 48.6984C115.761 44.7884 121.951 42.1084 128.341 40.1484C134.731 38.1984 141.341 36.9684 148.021 35.9584H148.031Z" fill="currentColor"/>
</svg>
