<svg width="543" height="218" viewBox="0 0 543 218" fill="none" xmlns="http://www.w3.org/2000/svg">
<path d="M37.2984 85.5898C41.3484 88.8298 47.6184 88.9598 52.4884 90.0698C58.2184 91.3798 64.2384 92.9498 70.1584 91.9698C72.2284 91.6298 73.8684 90.7798 74.9184 89.3398C76.3084 87.9098 78.4384 84.5498 75.0584 83.0998C69.5484 81.2898 41.8684 80.3598 36.1084 78.9398C26.6284 77.3698 17.9484 72.4598 8.84844 70.8398C8.69844 70.8898 8.54844 70.9498 8.39844 70.9998C9.53844 72.7598 36.0184 84.5798 37.2884 85.5998L37.2984 85.5898Z" fill="currentColor"/>
<path d="M51.0784 96.1325C44.6284 96.6925 38.5384 94.4925 33.3384 96.9925C32.2484 97.8425 31.7084 99.2225 31.0784 100.913C30.9484 101.703 30.8684 102.433 30.7384 103.143C30.6084 103.853 30.4184 104.532 30.3984 105.022C31.2284 104.812 32.3984 104.582 33.5584 104.452C37.0684 104.072 40.5784 104.682 44.1484 104.952C49.5584 105.362 55.0084 105.233 60.4184 104.893C68.8384 104.373 77.1884 101.972 78.2384 92.0625C73.8284 94.0025 69.3484 95.0725 64.8184 95.6325C60.2784 96.1925 55.6984 96.2325 51.0684 96.1225L51.0784 96.1325Z" fill="currentColor"/>
<path d="M121.708 88.2001C117.228 85.6001 110.998 86.4001 106.028 86.0201C100.158 85.5701 93.9781 84.9101 88.2681 86.7601C86.2681 87.4101 84.7681 88.4801 83.9481 90.0701C82.7881 91.6901 81.1781 95.3301 84.7281 96.2701C90.4481 97.2401 117.958 94.0601 123.858 94.6101C133.468 94.7501 142.778 98.3201 152.018 98.5801C152.158 98.5001 152.298 98.4301 152.438 98.3501C151.048 96.7801 123.118 89.0201 121.698 88.2001H121.708Z" fill="currentColor"/>
<path d="M106.508 79.8209C112.798 78.3109 119.158 79.5909 123.928 76.3409C124.888 75.3409 125.208 73.9009 125.578 72.1309C125.598 71.3309 125.558 70.5909 125.578 69.8709C125.608 69.1509 125.688 68.4509 125.628 67.9609C124.838 68.2909 123.718 68.6909 122.578 68.9909C119.168 69.8809 115.598 69.8109 112.028 70.0709C106.618 70.4709 101.248 71.4009 95.9477 72.5409C87.6977 74.3009 79.7977 77.9109 80.2277 87.8709C84.2977 85.3009 88.5677 83.5709 92.9777 82.3509C97.3777 81.1309 101.908 80.4009 106.498 79.8309L106.508 79.8209Z" fill="currentColor"/>
<path d="M141.077 67.8397C143.387 72.4797 149.017 75.2397 152.957 78.3097C157.607 81.9197 162.397 85.8797 168.177 87.4897C170.197 88.0497 172.047 87.9797 173.607 87.1097C175.467 86.3997 178.827 84.2497 176.367 81.5097C172.137 77.5497 147.427 65.0297 142.807 61.3097C134.867 55.8897 129.067 47.7797 121.507 42.4697C121.347 42.4597 121.187 42.4397 121.027 42.4297C121.317 44.5097 140.347 66.3797 141.067 67.8497L141.077 67.8397Z" fill="currentColor"/>
<path d="M149.129 83.2088C143.049 80.9988 138.449 76.4288 132.679 76.5088C131.329 76.8188 130.259 77.8389 128.979 79.1188C128.529 79.7789 128.149 80.4088 127.729 80.9988C127.309 81.5888 126.859 82.1188 126.629 82.5588C127.469 82.7188 128.629 82.9988 129.739 83.3788C133.079 84.5188 136.009 86.5489 139.139 88.2989C143.879 90.9489 148.869 93.1288 153.919 95.1088C161.769 98.1888 170.359 99.5388 175.489 90.9888C170.679 90.8888 166.159 89.9688 161.809 88.5688C157.459 87.1588 153.279 85.2688 149.139 83.2188L149.129 83.2088Z" fill="currentColor"/>
<path d="M216.518 105.8C213.548 101.55 207.568 99.6505 203.218 97.2105C198.088 94.3305 192.758 91.1205 186.808 90.3905C184.718 90.1305 182.908 90.4805 181.498 91.5705C179.768 92.5505 176.768 95.1705 179.598 97.5205C184.368 100.81 210.668 109.52 215.778 112.52C224.428 116.7 231.368 123.86 239.638 128C239.798 128 239.958 127.98 240.118 127.97C239.518 125.96 217.458 107.14 216.528 105.81L216.518 105.8Z" fill="currentColor"/>
<path d="M206.269 91.7903C212.609 93.0703 217.839 96.9103 223.529 95.9703C224.819 95.4703 225.719 94.2903 226.799 92.8403C227.149 92.1203 227.429 91.4403 227.759 90.8003C228.089 90.1603 228.459 89.5603 228.609 89.1003C227.759 89.0703 226.569 88.9603 225.409 88.7503C221.939 88.1203 218.739 86.5503 215.389 85.2803C210.309 83.3603 205.049 81.9403 199.759 80.7403C191.539 78.8603 182.849 78.8003 179.039 88.0103C183.819 87.3903 188.419 87.6303 192.929 88.3803C197.439 89.1303 201.849 90.3803 206.249 91.8003L206.269 91.7903Z" fill="currentColor"/>
<path d="M237.509 92.1881C238.899 97.1981 243.929 101.008 247.239 104.778C251.139 109.228 255.119 114.048 260.519 116.758C262.409 117.708 264.249 117.998 265.959 117.448C267.929 117.118 271.659 115.658 269.759 112.488C266.339 107.778 244.319 90.6681 240.479 86.1181C233.669 79.2481 229.499 70.1581 223.049 63.4681C222.889 63.4181 222.739 63.3781 222.579 63.3281C222.469 65.4281 237.079 90.6081 237.509 92.1881Z" fill="currentColor"/>
<path d="M242.518 108.846C236.938 105.486 233.268 100.106 227.548 99.0664C226.158 99.1064 224.908 99.9064 223.398 100.906C222.828 101.466 222.328 102.016 221.798 102.506C221.268 102.996 220.718 103.436 220.418 103.826C221.218 104.146 222.308 104.646 223.328 105.236C226.408 107.006 228.918 109.566 231.668 111.896C235.838 115.426 240.348 118.536 244.968 121.466C252.138 126.016 260.358 129.016 267.058 121.626C262.318 120.586 258.038 118.806 254.008 116.576C249.978 114.346 246.218 111.676 242.518 108.846Z" fill="currentColor"/>
<path d="M304.759 144.158C302.639 139.408 297.099 136.378 293.259 133.128C288.739 129.298 284.089 125.118 278.349 123.238C276.339 122.578 274.479 122.568 272.879 123.358C270.979 123.978 267.509 125.968 269.859 128.828C273.949 132.988 298.249 146.668 302.729 150.608C310.479 156.398 315.959 164.788 323.329 170.448C323.489 170.468 323.649 170.488 323.809 170.518C323.599 168.428 305.419 145.658 304.749 144.158H304.759Z" fill="currentColor"/>
<path d="M297.316 128.407C303.336 130.907 307.766 135.687 313.566 135.877C314.936 135.637 316.056 134.657 317.396 133.447C317.886 132.807 318.286 132.197 318.736 131.627C319.186 131.057 319.666 130.547 319.906 130.117C319.066 129.917 317.916 129.587 316.816 129.147C313.506 127.857 310.646 125.687 307.586 123.787C302.936 120.907 298.016 118.497 293.016 116.277C285.256 112.827 276.676 111.077 271.156 119.377C275.996 119.707 280.496 120.837 284.806 122.447C289.116 124.057 293.236 126.147 297.316 128.397V128.407Z" fill="currentColor"/>
<path d="M323.549 128.641C326.579 132.841 332.589 134.651 336.979 137.031C342.149 139.831 347.529 142.961 353.489 143.601C355.579 143.831 357.389 143.451 358.779 142.341C360.499 141.341 363.459 138.671 360.589 136.361C355.769 133.141 329.349 124.821 324.189 121.901C315.469 117.851 308.429 110.791 300.109 106.781C299.949 106.791 299.789 106.801 299.629 106.821C300.259 108.831 322.589 127.311 323.549 128.631V128.641Z" fill="currentColor"/>
<path d="M333.997 142.49C327.637 141.3 322.357 137.54 316.677 138.56C315.397 139.08 314.508 140.27 313.448 141.73C313.108 142.45 312.837 143.14 312.517 143.79C312.197 144.44 311.838 145.04 311.688 145.51C312.538 145.53 313.728 145.62 314.888 145.81C318.368 146.39 321.587 147.91 324.957 149.13C330.067 150.98 335.347 152.31 340.647 153.44C348.897 155.2 357.588 155.13 361.258 145.86C356.488 146.55 351.887 146.38 347.367 145.7C342.847 145.02 338.417 143.83 333.997 142.48V142.49Z" fill="currentColor"/>
<path d="M404.16 153.793C400.54 150.083 394.33 149.183 389.64 147.483C384.11 145.483 378.33 143.183 372.34 143.433C370.24 143.523 368.51 144.153 367.29 145.463C365.74 146.713 363.21 149.783 366.38 151.643C371.63 154.113 398.99 158.423 404.52 160.543C413.74 163.253 421.75 169.193 430.58 171.923C430.74 171.883 430.89 171.853 431.05 171.813C430.13 169.923 405.3 154.963 404.16 153.793Z" fill="currentColor"/>
<path d="M391.771 141.641C398.241 141.871 404.021 144.811 409.481 142.951C410.671 142.241 411.371 140.941 412.201 139.332C412.431 138.562 412.601 137.842 412.811 137.162C413.031 136.472 413.301 135.821 413.371 135.341C412.521 135.441 411.341 135.532 410.161 135.522C406.631 135.462 403.221 134.431 399.711 133.731C394.391 132.661 388.971 132.121 383.551 131.791C375.131 131.281 366.551 132.631 364.301 142.341C368.911 140.951 373.491 140.442 378.061 140.442C382.631 140.442 387.191 140.961 391.761 141.641H391.771Z" fill="currentColor"/>
<path d="M414.148 133.099C418.288 136.209 424.568 136.149 429.468 137.119C435.238 138.259 441.308 139.639 447.188 138.479C449.248 138.069 450.868 137.179 451.868 135.709C453.208 134.239 455.248 130.809 451.818 129.459C446.258 127.819 418.558 127.739 412.768 126.489C403.238 125.209 394.418 120.569 385.278 119.219C385.128 119.279 384.978 119.339 384.828 119.399C386.028 121.129 412.848 132.129 414.148 133.109V133.099Z" fill="currentColor"/>
<path d="M428.248 143.21C421.818 143.97 415.658 141.95 410.538 144.61C409.468 145.49 408.978 146.89 408.398 148.6C408.288 149.39 408.238 150.13 408.128 150.84C408.018 151.55 407.848 152.24 407.848 152.73C408.668 152.5 409.828 152.23 410.998 152.07C414.488 151.59 418.018 152.08 421.598 152.24C427.018 152.48 432.458 152.19 437.858 151.69C446.258 150.91 454.538 148.26 455.278 138.32C450.928 140.39 446.488 141.6 441.968 142.3C437.448 143 432.868 143.18 428.248 143.21Z" fill="currentColor"/>
<path d="M498.598 133.12C494.038 130.66 487.838 131.65 482.858 131.42C476.978 131.15 470.778 130.68 465.128 132.7C463.148 133.41 461.688 134.53 460.908 136.14C459.798 137.79 458.298 141.48 461.878 142.31C467.618 143.1 495.028 139.08 500.938 139.46C510.548 139.31 519.958 142.59 529.198 142.57C529.338 142.49 529.478 142.41 529.618 142.33C528.178 140.8 500.018 133.9 498.588 133.12H498.598Z" fill="currentColor"/>
<path d="M483.158 125.21C489.398 123.51 495.798 124.59 500.458 121.2C501.378 120.17 501.668 118.72 501.978 116.94C501.978 116.14 501.918 115.4 501.918 114.68C501.918 113.96 501.988 113.26 501.918 112.77C501.138 113.12 500.038 113.56 498.908 113.89C495.528 114.89 491.958 114.92 488.398 115.29C482.998 115.85 477.668 116.95 472.398 118.25C464.208 120.26 456.418 124.11 457.158 134.05C461.148 131.36 465.368 129.5 469.728 128.14C474.088 126.78 478.598 125.92 483.168 125.21H483.158Z" fill="currentColor"/>
<path d="M137.346 84.7567L85.8242 89.0469L85.9902 91.04L137.512 86.7498L137.346 84.7567Z" fill="currentColor"/>
<path d="M72.7248 90.1122L21.2031 94.4023L21.3691 96.3954L72.8908 92.1053L72.7248 90.1122Z" fill="currentColor"/>
<path d="M84.1933 153.07C82.8133 153.07 81.4933 152.57 80.4533 151.65C79.3233 150.65 78.6433 149.27 78.5533 147.76C78.4633 146.25 78.9633 144.8 79.9633 143.66C80.9633 142.53 82.3433 141.85 83.8533 141.76C86.9633 141.58 89.6633 143.95 89.8533 147.06C89.9433 148.57 89.4433 150.02 88.4433 151.16C87.4433 152.29 86.0633 152.97 84.5533 153.06C84.4333 153.06 84.3133 153.07 84.1933 153.07ZM84.2033 143.75C84.1233 143.75 84.0533 143.75 83.9733 143.75C82.9933 143.81 82.1033 144.25 81.4533 144.98C80.8033 145.71 80.4833 146.65 80.5433 147.63C80.6033 148.61 81.0433 149.5 81.7733 150.15C82.5033 150.8 83.4333 151.12 84.4233 151.06C85.4033 151 86.2933 150.56 86.9433 149.83C87.5933 149.1 87.9133 148.16 87.8533 147.18C87.7333 145.24 86.1233 143.75 84.2033 143.75Z" fill="currentColor"/>
<path d="M84.313 154.971C81.353 154.971 78.853 152.661 78.663 149.661C78.473 146.551 80.853 143.861 83.963 143.661C85.463 143.561 86.923 144.071 88.063 145.071C89.193 146.071 89.873 147.451 89.963 148.961C90.053 150.471 89.553 151.921 88.553 153.061C87.553 154.191 86.173 154.871 84.663 154.961C84.543 154.961 84.423 154.971 84.313 154.971ZM84.313 145.651C84.233 145.651 84.163 145.651 84.083 145.651C82.073 145.771 80.533 147.521 80.653 149.531C80.773 151.541 82.493 153.081 84.533 152.961C86.543 152.841 88.083 151.091 87.963 149.081C87.843 147.141 86.223 145.641 84.313 145.641V145.651Z" fill="currentColor"/>
<path d="M74.6216 36.1488C71.6616 36.1488 69.1616 33.8388 68.9716 30.8388C68.7816 27.7188 71.1616 25.0288 74.2716 24.8388C77.4016 24.6488 80.0816 27.0288 80.2716 30.1388C80.3616 31.6488 79.8616 33.0988 78.8616 34.2388C77.8616 35.3688 76.4816 36.0488 74.9716 36.1388C74.8516 36.1388 74.7316 36.1488 74.6216 36.1488ZM74.6216 26.8288C74.5416 26.8288 74.4716 26.8288 74.3916 26.8288C72.3816 26.9488 70.8416 28.6888 70.9616 30.7088C71.0816 32.7188 72.8416 34.2688 74.8416 34.1388C76.8516 34.0188 78.3916 32.2788 78.2716 30.2588C78.1516 28.3188 76.5316 26.8288 74.6216 26.8288Z" fill="currentColor"/>
<path d="M74.7402 38.0374C73.3602 38.0374 72.0402 37.5374 71.0002 36.6174C69.8702 35.6174 69.1902 34.2374 69.1002 32.7274C69.0102 31.2174 69.5102 29.7674 70.5102 28.6274C71.5102 27.4974 72.8902 26.8174 74.4002 26.7274C77.5202 26.5574 80.2102 28.9174 80.4002 32.0274C80.4902 33.5374 79.9902 34.9874 78.9902 36.1274C77.9902 37.2574 76.6102 37.9374 75.1002 38.0274C74.9802 38.0274 74.8602 38.0374 74.7402 38.0374ZM74.7402 28.7174C74.6602 28.7174 74.5902 28.7174 74.5102 28.7174C73.5302 28.7774 72.6402 29.2174 71.9902 29.9474C71.3402 30.6774 71.0202 31.6174 71.0802 32.5974C71.2002 34.6074 72.9402 36.1474 74.9602 36.0274C76.9702 35.9074 78.5102 34.1674 78.3902 32.1474C78.2702 30.2074 76.6502 28.7174 74.7402 28.7174Z" fill="currentColor"/>
<path d="M81.1103 96.7293L79.1172 96.8945L83.3894 148.418L85.3825 148.252L81.1103 96.7293Z" fill="currentColor"/>
<path d="M75.751 32.1316L73.7578 32.2969L78.03 83.8201L80.0232 83.6548L75.751 32.1316Z" fill="currentColor"/>
<path d="M184.435 89.6162L184.047 91.5781L242.502 103.153L242.89 101.191L184.435 89.6162Z" fill="currentColor"/>
<path d="M111.123 75.1006L110.734 77.0625L169.189 88.6369L169.578 86.675L111.123 75.1006Z" fill="currentColor"/>
<path d="M164.186 160.011C163.726 160.011 163.266 159.961 162.806 159.861C159.376 159.111 157.196 155.701 157.956 152.271C158.706 148.841 162.116 146.661 165.546 147.421C167.206 147.791 168.626 148.781 169.546 150.211C170.466 151.641 170.766 153.351 170.406 155.011C170.036 156.671 169.046 158.091 167.616 159.011C166.576 159.671 165.396 160.021 164.196 160.021L164.186 160.011ZM164.176 149.261C162.166 149.261 160.356 150.651 159.906 152.691C159.386 155.041 160.886 157.381 163.236 157.901C164.376 158.151 165.546 157.941 166.526 157.311C167.506 156.681 168.186 155.711 168.446 154.571C168.696 153.431 168.486 152.261 167.856 151.281C167.226 150.301 166.256 149.621 165.116 149.371C164.796 149.301 164.486 149.271 164.176 149.271V149.261Z" fill="currentColor"/>
<path d="M163.706 162.151C163.256 162.151 162.796 162.101 162.336 162.001C160.676 161.631 159.256 160.641 158.336 159.211C157.416 157.781 157.116 156.071 157.486 154.411C157.856 152.751 158.846 151.331 160.276 150.411C161.706 149.491 163.416 149.191 165.076 149.561C168.506 150.311 170.686 153.721 169.926 157.151C169.276 160.121 166.626 162.151 163.706 162.151ZM163.696 151.411C162.876 151.411 162.066 151.641 161.346 152.101C160.366 152.731 159.686 153.701 159.436 154.841C159.186 155.981 159.396 157.151 160.026 158.131C160.656 159.111 161.626 159.791 162.766 160.041C165.116 160.551 167.456 159.061 167.976 156.711C168.496 154.361 166.996 152.021 164.646 151.501C164.326 151.431 164.016 151.401 163.696 151.401V151.411Z" fill="currentColor"/>
<path d="M190.567 27.4014C190.117 27.4014 189.657 27.3514 189.197 27.2514C185.767 26.5014 183.587 23.0914 184.347 19.6614C185.107 16.2314 188.517 14.0514 191.937 14.8114C195.367 15.5614 197.547 18.9714 196.787 22.4014C196.137 25.3714 193.487 27.4014 190.567 27.4014ZM189.627 25.3014C191.977 25.8114 194.317 24.3214 194.837 21.9714C195.087 20.8314 194.877 19.6614 194.247 18.6814C193.617 17.7014 192.647 17.0214 191.507 16.7614C189.157 16.2414 186.817 17.7414 186.297 20.0914C186.047 21.2314 186.257 22.4014 186.887 23.3814C187.517 24.3614 188.487 25.0414 189.627 25.3014Z" fill="currentColor"/>
<path d="M190.108 29.542C189.648 29.542 189.188 29.492 188.728 29.392C185.298 28.642 183.118 25.232 183.878 21.802C184.638 18.372 188.038 16.192 191.468 16.952C193.128 17.322 194.548 18.312 195.468 19.742C196.388 21.172 196.688 22.882 196.318 24.542C195.948 26.202 194.958 27.622 193.528 28.542C192.488 29.202 191.308 29.552 190.108 29.552V29.542ZM189.158 27.442C190.298 27.692 191.468 27.482 192.448 26.852C193.428 26.222 194.108 25.252 194.358 24.112C194.608 22.972 194.398 21.802 193.768 20.822C193.138 19.842 192.168 19.162 191.028 18.902C188.678 18.382 186.338 19.872 185.818 22.232C185.298 24.582 186.798 26.922 189.148 27.442H189.158Z" fill="currentColor"/>
<path d="M174.68 96.0644L163.105 154.52L165.067 154.908L176.642 96.4529L174.68 96.0644Z" fill="currentColor"/>
<path d="M189.184 22.7636L177.609 81.2188L179.571 81.6072L191.146 23.1521L189.184 22.7636Z" fill="currentColor"/>
<path d="M275.916 119.632L275.527 121.594L324.654 131.321L325.042 129.359L275.916 119.632Z" fill="currentColor"/>
<path d="M214.31 107.44L213.922 109.402L263.048 119.13L263.437 117.168L214.31 107.44Z" fill="currentColor"/>
<path d="M258.871 179.099C258.471 179.099 258.071 179.059 257.671 178.969C256.231 178.649 255.001 177.799 254.211 176.559C253.421 175.319 253.151 173.839 253.471 172.399C254.121 169.429 257.071 167.549 260.041 168.199C263.011 168.849 264.891 171.799 264.241 174.769C263.921 176.209 263.071 177.439 261.821 178.229C260.921 178.799 259.901 179.099 258.861 179.099H258.871ZM258.861 170.069C257.251 170.069 255.791 171.189 255.431 172.829C255.231 173.749 255.401 174.689 255.901 175.479C256.411 176.269 257.191 176.819 258.111 177.019C259.031 177.219 259.971 177.049 260.761 176.549C261.551 176.039 262.101 175.259 262.301 174.339C262.501 173.419 262.331 172.479 261.831 171.689C261.321 170.899 260.541 170.349 259.621 170.149C259.371 170.089 259.111 170.069 258.871 170.069H258.861Z" fill="currentColor"/>
<path d="M258.47 180.899C258.07 180.899 257.67 180.859 257.27 180.769C254.3 180.119 252.42 177.169 253.07 174.199C253.72 171.229 256.67 169.339 259.64 169.999C262.61 170.649 264.49 173.599 263.84 176.569C263.52 178.009 262.67 179.239 261.43 180.029C260.53 180.599 259.51 180.899 258.47 180.899ZM258.45 171.869C257.79 171.869 257.14 172.059 256.57 172.419C255.78 172.929 255.23 173.709 255.03 174.629C254.61 176.519 255.82 178.399 257.71 178.819C258.63 179.019 259.57 178.849 260.36 178.349C261.15 177.839 261.7 177.059 261.9 176.139C262.1 175.219 261.93 174.279 261.43 173.489C260.92 172.699 260.14 172.149 259.22 171.949C258.97 171.889 258.71 171.869 258.46 171.869H258.45Z" fill="currentColor"/>
<path d="M281.038 67.6604C280.648 67.6604 280.248 67.6204 279.848 67.5304C276.878 66.8804 274.998 63.9304 275.648 60.9604C276.298 57.9904 279.248 56.1004 282.218 56.7604C283.658 57.0804 284.888 57.9304 285.678 59.1704C286.468 60.4104 286.738 61.8904 286.418 63.3304C285.848 65.9004 283.568 67.6604 281.038 67.6604ZM280.278 65.5804C282.178 66.0004 284.048 64.7904 284.468 62.9004C284.668 61.9804 284.498 61.0404 283.998 60.2504C283.488 59.4604 282.708 58.9104 281.788 58.7104C280.868 58.5104 279.928 58.6804 279.138 59.1804C278.348 59.6904 277.798 60.4704 277.598 61.3904C277.178 63.2804 278.388 65.1604 280.278 65.5804Z" fill="currentColor"/>
<path d="M280.649 69.4612C280.249 69.4612 279.849 69.4212 279.449 69.3312C278.009 69.0112 276.779 68.1612 275.989 66.9212C275.199 65.6812 274.929 64.2012 275.249 62.7612C275.899 59.7912 278.849 57.9012 281.819 58.5612C284.789 59.2112 286.669 62.1612 286.019 65.1312C285.699 66.5712 284.849 67.8012 283.599 68.5912C282.699 69.1612 281.679 69.4612 280.639 69.4612H280.649ZM280.639 60.4312C279.029 60.4312 277.569 61.5512 277.209 63.1912C277.009 64.1112 277.179 65.0512 277.679 65.8412C278.189 66.6312 278.969 67.1812 279.889 67.3812C280.809 67.5812 281.749 67.4112 282.539 66.9112C283.329 66.4012 283.879 65.6212 284.079 64.7012C284.279 63.7812 284.109 62.8412 283.609 62.0512C283.099 61.2612 282.319 60.7112 281.399 60.5112C281.149 60.4512 280.889 60.4312 280.649 60.4312H280.639Z" fill="currentColor"/>
<path d="M267.526 125.18L257.801 174.297L259.763 174.685L269.488 125.569L267.526 125.18Z" fill="currentColor"/>
<path d="M279.718 63.5867L269.992 112.703L271.954 113.092L281.679 63.9752L279.718 63.5867Z" fill="currentColor"/>
<path d="M368.964 142.447L368.883 144.445L421.63 146.582L421.711 144.584L368.964 142.447Z" fill="currentColor"/>
<path d="M302.819 139.767L302.738 141.766L355.485 143.903L355.566 141.904L302.819 139.767Z" fill="currentColor"/>
<path d="M360.02 207.141C359.9 207.141 359.78 207.141 359.66 207.131C358.12 207.041 356.72 206.351 355.7 205.201C354.68 204.051 354.17 202.571 354.27 201.031C354.37 199.491 355.05 198.091 356.2 197.071C357.35 196.051 358.84 195.541 360.37 195.641C361.91 195.731 363.31 196.421 364.33 197.571C365.35 198.721 365.86 200.201 365.76 201.741C365.66 203.281 364.98 204.681 363.83 205.701C362.77 206.641 361.43 207.141 360.03 207.141H360.02ZM360.01 197.621C358.04 197.621 356.38 199.161 356.26 201.151C356.13 203.221 357.71 205.011 359.78 205.131C361.84 205.251 363.64 203.681 363.76 201.611C363.82 200.611 363.49 199.641 362.83 198.891C362.16 198.141 361.25 197.691 360.25 197.631C360.17 197.631 360.09 197.631 360.02 197.631L360.01 197.621Z" fill="currentColor"/>
<path d="M359.899 209.083C359.779 209.083 359.659 209.083 359.539 209.073C357.999 208.983 356.599 208.293 355.579 207.143C354.559 205.993 354.049 204.513 354.149 202.973C354.249 201.433 354.929 200.033 356.079 199.013C357.229 197.993 358.719 197.483 360.249 197.583C361.789 197.673 363.189 198.363 364.209 199.513C365.229 200.663 365.739 202.143 365.639 203.683C365.539 205.223 364.859 206.623 363.709 207.643C362.649 208.583 361.309 209.083 359.909 209.083H359.899ZM359.889 199.563C358.969 199.563 358.099 199.893 357.409 200.503C356.659 201.173 356.209 202.083 356.149 203.083C356.019 205.153 357.599 206.943 359.669 207.063C360.669 207.123 361.639 206.793 362.389 206.133C363.139 205.463 363.589 204.553 363.649 203.553C363.779 201.483 362.199 199.693 360.129 199.573C360.049 199.573 359.969 199.573 359.889 199.573V199.563Z" fill="currentColor"/>
<path d="M364.989 87.4616C364.869 87.4616 364.749 87.4616 364.629 87.4516C363.089 87.3616 361.689 86.6716 360.669 85.5216C359.649 84.3716 359.139 82.8916 359.239 81.3516C359.339 79.8116 360.019 78.4116 361.169 77.3916C362.319 76.3716 363.809 75.8616 365.339 75.9616C366.879 76.0516 368.279 76.7416 369.299 77.8916C370.319 79.0416 370.829 80.5216 370.729 82.0616C370.539 85.1116 367.999 87.4616 364.979 87.4616H364.989ZM364.759 85.4516C366.859 85.5716 368.619 84.0016 368.739 81.9316C368.869 79.8616 367.289 78.0716 365.219 77.9516C364.219 77.8816 363.249 78.2216 362.499 78.8816C361.749 79.5516 361.299 80.4616 361.239 81.4616C361.179 82.4616 361.509 83.4316 362.169 84.1816C362.839 84.9316 363.749 85.3816 364.749 85.4416L364.759 85.4516Z" fill="currentColor"/>
<path d="M364.88 89.3913C364.76 89.3913 364.64 89.3913 364.52 89.3813C362.98 89.2913 361.58 88.6013 360.56 87.4513C359.54 86.3013 359.03 84.8213 359.13 83.2813C359.23 81.7413 359.91 80.3413 361.06 79.3213C362.21 78.3013 363.7 77.7913 365.23 77.8913C366.77 77.9813 368.17 78.6713 369.19 79.8213C370.21 80.9713 370.72 82.4513 370.62 83.9913C370.52 85.5313 369.84 86.9313 368.69 87.9513C367.63 88.8913 366.29 89.3913 364.89 89.3913H364.88ZM364.87 79.8713C362.9 79.8713 361.24 81.4113 361.12 83.4013C360.99 85.4713 362.57 87.2613 364.64 87.3813C366.7 87.4913 368.5 85.9313 368.62 83.8613C368.68 82.8613 368.35 81.8913 367.69 81.1413C367.02 80.3913 366.11 79.9413 365.11 79.8813C365.03 79.8813 364.95 79.8813 364.88 79.8813L364.87 79.8713Z" fill="currentColor"/>
<path d="M361.24 149.573L359.121 202.32L361.119 202.401L363.238 149.653L361.24 149.573Z" fill="currentColor"/>
<path d="M363.912 83.4205L361.793 136.168L363.791 136.248L365.91 83.5008L363.912 83.4205Z" fill="currentColor"/>
<path d="M524.568 119.38L466.172 131.25L466.57 133.21L524.966 121.34L524.568 119.38Z" fill="currentColor"/>
<path d="M451.337 134.247L392.941 146.117L393.34 148.077L451.736 136.207L451.337 134.247Z" fill="currentColor"/>
<path d="M472.162 204.54C470.882 204.54 469.622 204.15 468.542 203.4C467.142 202.43 466.202 200.97 465.902 199.3C465.282 195.84 467.582 192.52 471.032 191.89C474.482 191.27 477.812 193.57 478.442 197.02C478.742 198.69 478.382 200.39 477.412 201.79C476.442 203.19 474.982 204.13 473.312 204.43C472.932 204.5 472.542 204.53 472.162 204.53V204.54ZM472.182 193.8C471.922 193.8 471.662 193.82 471.402 193.87C469.032 194.3 467.452 196.58 467.882 198.95C468.312 201.32 470.582 202.91 472.962 202.47C474.112 202.26 475.112 201.62 475.772 200.66C476.442 199.7 476.692 198.54 476.482 197.39C476.102 195.28 474.252 193.8 472.182 193.8Z" fill="currentColor"/>
<path d="M472.562 206.688C471.272 206.688 470.022 206.298 468.942 205.548C467.542 204.578 466.602 203.118 466.302 201.448C466.002 199.778 466.362 198.078 467.332 196.678C468.302 195.278 469.762 194.348 471.432 194.038C474.882 193.418 478.212 195.718 478.842 199.168C479.462 202.628 477.162 205.948 473.712 206.578C473.332 206.648 472.942 206.678 472.562 206.678V206.688ZM472.582 195.938C472.322 195.938 472.062 195.958 471.802 196.008C470.652 196.218 469.652 196.858 468.992 197.818C468.322 198.778 468.072 199.938 468.282 201.088C468.492 202.238 469.132 203.238 470.092 203.898C471.052 204.568 472.212 204.818 473.362 204.608C475.732 204.178 477.312 201.898 476.882 199.528C476.502 197.418 474.652 195.938 472.582 195.938Z" fill="currentColor"/>
<path d="M445.392 71.999C444.112 71.999 442.852 71.609 441.772 70.859C440.372 69.889 439.432 68.429 439.132 66.759C438.512 63.299 440.812 59.979 444.262 59.349C445.942 59.049 447.632 59.409 449.032 60.379C450.432 61.349 451.372 62.809 451.672 64.479C451.972 66.149 451.612 67.849 450.642 69.249C449.672 70.649 448.212 71.579 446.542 71.889C446.162 71.959 445.772 71.989 445.392 71.989V71.999ZM445.412 61.249C445.152 61.249 444.892 61.269 444.622 61.319C442.252 61.749 440.672 64.029 441.102 66.399C441.312 67.549 441.952 68.549 442.912 69.209C443.872 69.879 445.042 70.129 446.182 69.919C447.332 69.709 448.332 69.069 448.992 68.109C449.662 67.149 449.912 65.989 449.702 64.839C449.492 63.689 448.852 62.689 447.892 62.029C447.152 61.519 446.292 61.249 445.412 61.249Z" fill="currentColor"/>
<path d="M445.791 74.1572C444.511 74.1572 443.251 73.7672 442.171 73.0172C440.771 72.0472 439.831 70.5872 439.531 68.9172C438.911 65.4572 441.211 62.1372 444.661 61.5072C448.121 60.8872 451.441 63.1872 452.071 66.6372C452.371 68.3072 452.011 70.0072 451.041 71.4072C450.071 72.8072 448.611 73.7472 446.941 74.0472C446.561 74.1172 446.171 74.1472 445.791 74.1472V74.1572ZM445.811 63.4172C445.551 63.4172 445.291 63.4372 445.031 63.4872C442.661 63.9172 441.081 66.1972 441.511 68.5672C441.941 70.9372 444.211 72.5172 446.591 72.0872C447.741 71.8772 448.741 71.2372 449.401 70.2772C450.071 69.3172 450.321 68.1572 450.111 67.0072C449.731 64.8972 447.881 63.4172 445.811 63.4172Z" fill="currentColor"/>
<path d="M461.632 140.621L459.672 141.02L471.532 199.417L473.492 199.019L461.632 140.621Z" fill="currentColor"/>
<path d="M446.765 67.3871L444.805 67.7852L456.665 126.183L458.625 125.785L446.765 67.3871Z" fill="currentColor"/>
</svg>
