<svg width="212" height="261" viewBox="0 0 212 261" fill="none" xmlns="http://www.w3.org/2000/svg">
<path d="M55.6381 34.2806C56.0481 34.1106 56.3781 33.9806 56.6381 33.8906C55.5381 33.9906 54.2281 34.1106 52.7181 34.2506C52.6881 34.3106 52.6381 34.3806 52.5781 34.4606C53.6581 34.4006 54.6781 34.3406 55.6381 34.2806Z" fill="currentColor"/>
<path d="M51.7188 34.35C52.0588 34.32 52.3887 34.29 52.7087 34.26C52.9187 33.86 52.5288 33.9 51.7188 34.35Z" fill="currentColor"/>
<path d="M56.6406 33.8892C56.8006 33.8792 56.9506 33.8592 57.1006 33.8492C57.4206 33.6492 57.2506 33.6692 56.6406 33.8892Z" fill="currentColor"/>
<path d="M60.8694 33.8585C61.8794 33.4785 60.7594 33.5185 57.0994 33.8385C56.9594 33.9285 56.7094 34.0585 56.3594 34.2285C58.0394 34.1185 59.5294 33.9985 60.8694 33.8585Z" fill="currentColor"/>
<path d="M83.2184 145.23C82.9584 144.6 82.7284 143.93 82.3984 143.25C82.3984 144.18 82.4084 145.1 83.2184 145.23Z" fill="currentColor"/>
<path d="M50.4414 36.8217C51.0414 36.6517 51.6114 36.4917 52.1714 36.3317C52.2514 36.2117 52.3214 36.1117 52.3914 36.0117C51.8014 36.2617 51.1514 36.5317 50.4414 36.8217Z" fill="currentColor"/>
<path d="M47.1719 34.7716C48.6719 34.6916 50.0719 34.6116 51.3919 34.5416C51.5019 34.4716 51.6119 34.4116 51.7219 34.3516C50.3619 34.4816 48.8519 34.6216 47.1719 34.7716Z" fill="currentColor"/>
<path d="M48.7795 36.3714C48.8395 36.3214 48.8895 36.2814 48.9495 36.2414C48.8995 36.1314 48.8395 36.0314 48.7695 35.9414C48.7795 36.0714 48.7895 36.2114 48.7795 36.3714Z" fill="currentColor"/>
<path d="M44.8281 36.2091C46.4681 35.3391 48.0181 34.9691 48.7681 35.9391C48.5981 34.2291 46.7881 34.8591 44.8281 36.2091Z" fill="currentColor"/>
<path d="M51.3086 37.3995C52.8386 36.5795 54.0986 35.9595 55.0786 35.5195C54.1986 35.7595 53.2186 36.0295 52.1786 36.3295C51.9586 36.6395 51.6786 36.9895 51.3186 37.3995H51.3086Z" fill="currentColor"/>
<path d="M148.46 112.842C147.87 113.182 147.27 113.502 146.68 113.802C146.09 114.102 145.46 114.282 144.61 114.172C143.76 114.062 142.87 113.932 142.1 113.832C141.42 113.432 140.65 113.272 139.78 113.022C136.4 112.242 132.4 112.242 131.4 109.242C131.4 108.242 133.4 107.242 134.42 107.102C134.83 106.422 135.17 105.652 135.25 104.662C136.83 85.0819 138 86.0119 151.4 76.8619C153.2 60.7019 157.87 45.4619 164.87 31.7219C154.68 30.6519 155.55 31.7819 127.64 31.1719C125.75 31.2519 123.85 31.4119 121.74 31.5519C116.02 31.5619 110.26 32.2919 104.42 33.2019C102.47 33.5019 100.52 33.8219 100.69 33.6719C97.5702 34.3019 96.5802 34.4619 100.08 33.5419C94.6202 34.7819 93.6502 34.9219 99.4802 33.0519C91.6502 35.2319 90.6301 35.3819 98.5302 30.7919C89.2802 35.4619 88.9402 35.3919 96.2602 25.3819C87.3602 35.4519 86.1202 35.6019 73.9902 33.3819C85.3002 35.0819 85.7202 34.4319 80.6902 20.9219C84.5902 34.2819 83.0302 34.7819 73.7302 32.7819C79.6102 33.5219 81.1002 32.8419 79.3502 28.8719C79.8502 30.8319 78.4302 31.2419 75.0702 30.8719C74.9402 30.3219 74.2902 29.5419 73.3902 28.5319C73.3602 26.9319 72.3402 24.4119 71.1302 21.0919C71.8602 30.5819 70.9602 32.8119 60.8702 33.8719C60.3102 34.0819 59.0702 34.4319 57.2702 34.9319C57.1402 35.2719 55.7902 36.2819 52.8802 38.0319C63.5502 34.0219 65.3702 34.2319 55.4302 39.0419C68.9102 34.9319 70.6302 35.4119 59.9602 40.9619C73.9402 36.6619 75.5302 37.4519 72.6402 43.8519C74.4002 42.2219 75.6702 41.2119 76.0102 41.0919C77.6302 40.3519 78.3202 40.5119 77.1602 42.2119C78.6202 42.0419 79.3702 42.4619 79.7202 43.4119C79.5402 43.5919 79.3202 43.8319 79.0502 44.1619C79.3302 43.9919 79.5802 43.8719 79.8102 43.7619C79.9402 44.3019 79.9902 44.9619 79.9702 45.7619C80.1802 44.7619 80.3302 44.0119 80.3502 43.5719C81.9402 43.1619 82.5502 44.5019 82.9302 47.3419C82.9502 47.2719 82.9602 47.2019 82.9802 47.1319C84.3702 45.6419 84.9502 46.6119 85.3702 48.6319C85.6902 48.1119 85.8602 48.6619 86.0002 49.4919C86.2202 50.0119 86.4102 50.8119 86.5602 51.6319C86.8602 53.2619 86.9702 54.9319 86.9702 56.5919C86.7202 62.0919 85.3502 67.3419 83.5202 72.4719C82.1302 76.2519 80.4702 80.0319 78.8102 83.8419C77.4802 88.5619 76.1802 93.5419 74.7302 98.5819C74.3902 99.5919 74.0502 100.602 73.6402 101.612C71.3802 107.262 64.3802 109.262 65.3802 116.262C66.3802 121.262 72.3802 119.262 72.3802 123.262C73.3802 127.252 69.4002 128.252 65.4202 129.252C63.8602 129.252 62.2402 129.212 61.0702 130.182C60.3302 130.902 59.4802 131.602 58.4202 132.312C54.1802 135.182 46.6302 138.372 29.9102 144.562C71.0602 136.702 54.4202 137.002 60.9302 133.172C71.7802 133.432 61.5302 136.872 30.8902 153.042C78.7202 129.212 58.4602 218.402 56.0802 243.252C68.0802 218.732 65.5102 188.332 72.9102 197.142C69.3402 186.322 64.0602 135.312 70.8302 134.332C69.4002 133.862 69.3102 133.432 69.9702 133.012C73.3902 131.252 76.3902 130.252 79.3902 128.252H78.3902C78.8902 128.252 79.3902 128.002 79.8902 127.632C80.3502 127.542 80.7702 127.662 81.1402 127.942C81.3902 134.252 80.3902 140.252 83.3902 145.252C83.3202 145.252 83.2702 145.232 83.2102 145.232C83.7302 146.482 84.4002 147.592 86.3902 148.252C80.6502 141.702 83.6502 132.462 88.7702 126.032C87.4402 127.232 86.0802 128.482 85.4102 130.182C86.2902 127.942 88.1602 126.342 89.9202 124.662C90.4502 124.072 91.0002 123.512 91.5602 122.992C91.8802 122.622 92.1902 122.252 92.4602 121.852C93.4802 121.142 94.5602 120.642 96.3902 121.242L95.3902 120.242C98.9602 120.842 100.49 128.832 101.25 131.502C103.05 137.792 104.35 144.212 106.02 150.532C106.66 152.942 111.5 150.332 112.7 152.532C112.85 152.812 113.02 153.092 113.28 153.282C113.91 153.732 113.54 193.322 114.21 193.152C114.86 192.992 115.49 192.802 116.06 192.802C116.73 193.292 117.73 214.232 118.73 215.232C119.74 213.542 119.57 190.062 119.56 188.182C119.53 184.792 116.86 146.502 116.48 143.142C115.62 135.592 114.33 128.072 112.85 120.622C112.75 120.122 112.65 119.622 112.55 119.122C112.5 118.882 112.45 118.622 112.27 118.442C112.12 118.292 111.91 118.222 111.71 118.142C107.94 116.592 111.03 112.272 113.5 111.222C113.63 111.172 113.77 111.112 113.91 111.162C114.06 111.212 114.14 111.362 114.22 111.492C117.42 117.482 118.58 124.542 119.93 131.162C120.67 134.792 121.43 138.422 122 142.082C122.51 145.442 124.64 184.062 126.17 187.152C126.28 187.372 126.4 187.592 126.61 187.732C127.55 188.342 127.75 186.552 127.77 186.042C127.8 184.872 127.53 183.712 127.52 182.542C127.49 175.372 124.81 133.342 124.41 126.182C124.24 123.082 125.31 121.992 127.29 119.832C128.59 118.422 129.98 117.072 131.57 115.992C133 115.022 134.59 114.242 136.32 113.982C137.18 113.852 138.05 113.862 138.91 114.002C139.73 114.132 140.88 114.922 141.63 114.912C142.58 114.892 143.55 115.022 144.54 115.332C145.52 115.642 146.52 116.122 147.54 116.812C148.32 116.702 149.09 116.582 149.87 116.462C149.36 114.082 148.88 112.612 148.47 112.842H148.46ZM75.0502 31.2719C78.2602 32.6819 77.2202 32.6419 73.5002 31.8319C74.4402 31.7719 74.9102 31.5819 75.0502 31.2719ZM83.0602 46.8819C83.5102 44.9819 83.6102 44.9419 83.0602 46.8819V46.8819ZM65.4902 129.242C66.5102 129.192 68.4302 128.252 69.4002 128.252C68.4302 129.222 66.9802 129.252 65.4902 129.242ZM101.36 111.042C100.81 111.742 100.12 112.242 99.2802 112.562C95.4002 115.242 90.4002 111.242 86.3102 112.562C85.6602 112.512 85.0302 112.402 84.4202 112.272C81.9802 111.752 79.8002 110.772 77.3302 110.392C78.2402 110.602 78.9602 111.092 78.3902 112.232C77.3902 114.232 75.3902 113.232 74.3902 113.232C75.3902 114.232 77.3902 114.232 78.3902 114.232C74.3902 115.232 80.3902 117.232 78.8402 120.572C78.6502 121.532 78.3502 122.462 77.9702 123.302C77.3902 118.232 72.3902 118.232 69.3902 116.232C62.3902 112.232 72.3902 106.232 76.7502 103.272C77.3002 102.412 77.6802 101.512 78.0602 100.622C79.6402 96.0419 81.2002 91.5019 82.4302 87.0119C84.1102 81.9019 85.7302 76.8019 87.2002 71.5919C88.6702 66.3819 89.9802 61.0719 90.9802 55.5719C90.9802 53.9019 91.3102 52.3519 91.8502 50.8619C92.3902 49.3719 93.1402 47.9419 94.4302 47.4719C94.8002 45.1119 95.7002 43.7219 98.2402 43.5819C97.5102 41.0919 98.5802 40.0219 100.88 39.3719C101 38.1819 102.35 37.4119 103.88 36.8119C105.4 36.2119 107.1 35.7919 108.99 35.5719C108.17 35.6719 106.47 40.7719 106.14 41.6019C100.78 54.3319 102.25 67.0819 101.21 80.2519C101.04 82.4519 100.79 84.6519 100.44 86.8719C100.32 87.6119 99.9902 88.3419 98.9302 89.0919C95.4002 90.2419 92.4002 94.2419 91.4002 97.2419C89.4002 104.242 96.4002 107.242 102.4 108.242C102.23 109.412 101.87 110.322 101.36 111.032V111.042ZM127.4 110.252C122.4 113.252 119.4 109.252 114.77 107.612C114.18 107.272 113.86 106.762 113.66 106.202C113.08 104.502 113.64 102.252 111.39 102.252C110.39 107.252 110.39 112.252 105.39 115.252C112.39 108.252 109.39 99.2519 102.39 94.2519C105.39 92.2519 108.39 93.2519 111.15 94.0119C112.01 94.1919 112.16 93.5119 112.28 92.8219C112.76 90.0419 112.98 87.2619 112.98 84.6019C113.98 67.6019 106.98 51.6019 110.56 35.0619C110.58 35.0619 110.6 35.0619 110.62 35.0619C115.25 35.0719 120.42 34.2419 124.53 36.8319C130.97 40.6019 131.97 47.6019 131.97 53.6019C131.18 68.5519 129.78 83.5119 130.19 98.4619C130.22 99.4619 130.25 100.452 130.3 101.452C131.38 105.262 129.38 108.262 127.38 110.262L127.4 110.252Z" fill="currentColor"/>
<path d="M77.3306 110.41C76.6306 110.25 75.8306 110.25 75.3906 110.25C76.0606 110.25 76.7006 110.32 77.3306 110.41Z" fill="currentColor"/>
<path d="M162.239 146.421C161.369 144.481 160.539 142.521 159.749 140.531C159.589 140.641 159.479 140.611 159.439 140.401C159.439 140.371 159.429 140.341 159.419 140.311C159.439 140.161 159.469 140.021 159.489 139.871C158.759 137.971 158.059 136.061 157.409 134.121C157.389 134.191 157.379 134.271 157.359 134.341C159.029 139.801 160.689 144.781 162.229 146.421H162.239Z" fill="currentColor"/>
<path d="M149.919 116.451C149.919 116.451 149.879 116.451 149.859 116.451C151.559 124.421 153.609 142.681 154.489 142.031C155.759 139.561 156.689 136.991 157.369 134.321C154.759 125.771 152.129 116.091 149.919 116.431V116.451Z" fill="currentColor"/>
<path d="M89.9295 124.67C89.5295 125.11 89.1495 125.56 88.7695 126.03C88.7995 126 88.8395 125.97 88.8695 125.94C90.1195 124.82 91.1495 123.31 92.3895 122.25C92.1095 122.49 91.8395 122.74 91.5595 123C91.0495 123.58 90.4895 124.13 89.9195 124.67H89.9295Z" fill="currentColor"/>
<path d="M55.6406 34.2805C54.8806 34.5905 53.8606 35.0405 52.6206 35.6105C52.5606 35.7305 52.4906 35.8605 52.3906 36.0005C54.2806 35.2005 55.5806 34.6105 56.3606 34.2305C56.1306 34.2505 55.8806 34.2605 55.6406 34.2805Z" fill="currentColor"/>
<path d="M52.2006 34.9004C51.7706 35.3504 51.1106 35.9704 50.1406 36.7904C51.0406 36.3504 51.8706 35.9604 52.6106 35.6204C52.9106 35.0104 52.7306 34.7904 52.2006 34.9104V34.9004Z" fill="currentColor"/>
<path d="M51.4009 34.5287C50.7609 34.9087 49.9209 35.4888 48.9609 36.2388C49.0209 36.3688 49.0909 36.4887 49.1309 36.6587C50.4809 35.6587 51.5809 35.0487 52.2109 34.9087C52.3709 34.7387 52.4909 34.5987 52.5809 34.4688C52.1909 34.4887 51.8009 34.5087 51.4009 34.5387V34.5287Z" fill="currentColor"/>
<path d="M55.0781 35.5181C55.8881 35.2981 56.6081 35.0981 57.2681 34.9181C57.3781 34.6281 56.5881 34.8481 55.0781 35.5181Z" fill="currentColor"/>
<path d="M79.3511 28.8598C79.0611 27.7398 78.1611 26.1198 76.6211 23.8398C77.8511 25.9098 78.7811 27.5598 79.3511 28.8598Z" fill="currentColor"/>
</svg>
