<svg width="724" height="137" viewBox="0 0 724 137" fill="none" xmlns="http://www.w3.org/2000/svg">
<path d="M85.0806 85.7516C90.5506 88.6616 97.9506 87.4216 103.921 87.6516C110.951 87.9216 118.371 88.4316 125.111 85.9716C127.471 85.1116 129.211 83.7516 130.121 81.8216C131.431 79.8416 133.201 75.4116 128.901 74.4516C122.031 73.5516 89.2906 78.5916 82.2106 78.1916C70.7206 78.4516 59.4406 74.6016 48.3906 74.7116C48.2206 74.8116 48.0606 74.9016 47.8906 75.0016C49.6306 76.8216 83.3506 84.8316 85.0706 85.7516H85.0806Z" fill="currentColor"/>
<path d="M103.62 95.0808C96.1697 97.1708 88.5197 95.9308 82.9597 100.031C81.8597 101.271 81.5397 103.011 81.1797 105.141C81.1997 106.101 81.2697 106.981 81.2697 107.841C81.2697 108.701 81.1997 109.541 81.2897 110.121C82.2197 109.691 83.5397 109.161 84.8797 108.751C88.9197 107.531 93.1797 107.461 97.4397 106.991C103.89 106.271 110.26 104.911 116.55 103.321C126.32 100.841 135.61 96.1808 134.65 84.3008C129.9 87.5608 124.87 89.8108 119.67 91.4708C114.46 93.1308 109.08 94.2008 103.63 95.0908L103.62 95.0808Z" fill="currentColor"/>
<path d="M184.84 70.1005C179 68.0405 171.86 70.3605 165.93 71.0105C158.94 71.7805 151.52 72.3805 145.23 75.8105C143.02 77.0105 141.5 78.6105 140.89 80.6505C139.88 82.8105 138.8 87.4505 143.19 87.7605C150.12 87.6305 181.75 77.7905 188.81 77.1405C200.14 75.1805 211.86 77.3105 222.78 75.5705C222.93 75.4505 223.08 75.3305 223.23 75.2105C221.24 73.6705 186.7 70.7405 184.86 70.0905L184.84 70.1005Z" fill="currentColor"/>
<path d="M165.13 63.6309C172.19 60.4609 179.94 60.5509 184.83 55.6809C185.73 54.2909 185.8 52.5209 185.83 50.3609C185.67 49.4209 185.47 48.5609 185.34 47.7109C185.21 46.8609 185.16 46.0209 184.98 45.4609C184.13 46.0209 182.9 46.7409 181.63 47.3509C177.82 49.1509 173.61 49.8509 169.47 50.9509C163.2 52.6209 157.1 54.9109 151.12 57.4209C141.82 61.3209 133.33 67.3109 136.05 78.9109C140.26 74.9909 144.9 72.0109 149.8 69.6009C154.7 67.1909 159.87 65.3309 165.13 63.6409V63.6309Z" fill="currentColor"/>
<path d="M203.09 41.9019C206.83 46.8419 214.06 48.8419 219.37 51.5719C225.63 54.7819 232.14 58.3719 239.29 58.9819C241.79 59.1919 243.94 58.7019 245.59 57.3319C247.62 56.0919 251.09 52.8219 247.59 50.1419C241.74 46.4219 209.93 37.1919 203.68 33.8419C193.15 29.2319 184.54 20.9919 174.48 16.4219C174.29 16.4419 174.1 16.4619 173.91 16.4819C174.72 18.8619 201.92 40.3519 203.09 41.9019Z" fill="currentColor"/>
<path d="M215.959 58.1709C208.319 56.9209 201.909 52.5709 195.139 53.9509C193.619 54.6109 192.589 56.0509 191.369 57.8309C190.979 58.7009 190.679 59.5309 190.319 60.3209C189.959 61.1009 189.539 61.8309 189.379 62.4009C190.399 62.4009 191.819 62.4809 193.209 62.6709C197.379 63.2709 201.279 65.0009 205.339 66.3709C211.489 68.4409 217.839 69.8909 224.219 71.1009C234.129 72.9809 244.519 72.6609 248.649 61.4809C242.969 62.4309 237.459 62.3509 232.039 61.6609C226.619 60.9709 221.289 59.6709 215.969 58.1809L215.959 58.1709Z" fill="currentColor"/>
<path d="M300.149 69.773C295.719 65.443 288.269 64.533 282.619 62.623C275.949 60.373 268.979 57.793 261.819 58.243C259.309 58.403 257.259 59.213 255.839 60.803C254.019 62.333 251.069 66.083 254.919 68.213C261.259 71.023 294.079 75.433 300.759 77.823C311.859 80.823 321.589 87.703 332.219 90.723C332.409 90.673 332.589 90.633 332.779 90.583C331.629 88.353 301.539 71.133 300.149 69.763V69.773Z" fill="currentColor"/>
<path d="M285.011 55.5927C292.751 55.6927 299.741 59.0527 306.221 56.6827C307.621 55.8027 308.431 54.2327 309.371 52.2827C309.621 51.3627 309.801 50.4927 310.041 49.6727C310.281 48.8427 310.591 48.0627 310.661 47.4827C309.651 47.6327 308.231 47.7727 306.831 47.7827C302.611 47.8127 298.511 46.6727 294.291 45.9227C287.901 44.7927 281.401 44.2927 274.921 44.0427C264.841 43.6527 254.621 45.5127 252.191 57.1727C257.671 55.3927 263.131 54.6527 268.591 54.5327C274.051 54.4127 279.521 54.9027 285.001 55.5927H285.011Z" fill="currentColor"/>
<path d="M321.801 49.1295C324.541 54.6995 331.301 58.0695 336.031 61.7695C341.601 66.1295 347.341 70.9195 354.291 72.8995C356.721 73.5895 358.941 73.5295 360.831 72.4995C363.071 71.6695 367.131 69.1295 364.201 65.8295C359.131 61.0495 329.481 45.8295 323.951 41.3295C314.431 34.7695 307.511 25.0095 298.451 18.5795C298.261 18.5595 298.061 18.5395 297.871 18.5195C298.211 21.0095 320.951 47.3695 321.811 49.1195L321.801 49.1295Z" fill="currentColor"/>
<path d="M331.381 67.5982C324.071 64.8882 318.571 59.3782 311.621 59.4182C309.991 59.7682 308.701 60.9882 307.151 62.4982C306.601 63.2782 306.141 64.0382 305.631 64.7282C305.121 65.4282 304.571 66.0582 304.301 66.5782C305.311 66.7782 306.701 67.1282 308.041 67.5882C312.051 68.9782 315.561 71.4382 319.321 73.5682C325.001 76.7882 331.001 79.4482 337.061 81.8582C346.491 85.6182 356.821 87.3182 363.061 77.1582C357.261 76.9882 351.831 75.8482 346.611 74.1182C341.391 72.3882 336.371 70.0882 331.401 67.5882L331.381 67.5982Z" fill="currentColor"/>
<path d="M412.34 95.2984C408.8 90.1884 401.61 87.8584 396.39 84.8884C390.24 81.3884 383.84 77.5084 376.68 76.5684C374.17 76.2384 371.99 76.6284 370.27 77.9184C368.17 79.0684 364.54 82.1784 367.94 85.0184C373.66 88.9984 405.25 99.6884 411.39 103.328C421.78 108.418 430.08 117.058 440 122.078C440.19 122.078 440.39 122.058 440.58 122.048C439.87 119.628 413.46 96.9084 412.34 95.2984Z" fill="currentColor"/>
<path d="M400.111 78.4395C407.741 80.0395 414.001 84.6795 420.861 83.6195C422.411 83.0295 423.511 81.6395 424.821 79.9095C425.251 79.0495 425.591 78.2395 425.991 77.4795C426.391 76.7195 426.841 75.9995 427.031 75.4495C426.001 75.3995 424.581 75.2595 423.191 74.9995C419.021 74.2095 415.181 72.2995 411.151 70.7495C405.051 68.3995 398.731 66.6495 392.371 65.1595C382.491 62.8295 372.021 62.6695 367.371 73.6395C373.121 72.9495 378.661 73.2795 384.091 74.2195C389.511 75.1595 394.821 76.6995 400.111 78.4395Z" fill="currentColor"/>
<path d="M430.981 72.9019C435.471 77.1719 442.931 77.9619 448.621 79.7819C455.321 81.9319 462.331 84.4119 469.481 83.8519C471.981 83.6519 474.031 82.8219 475.421 81.2019C477.221 79.6419 480.111 75.8519 476.221 73.7719C469.841 71.0619 436.951 67.1419 430.241 64.8519C419.101 62.0219 409.261 55.2919 398.591 52.4219C398.401 52.4719 398.221 52.5219 398.031 52.5719C399.211 54.7919 429.551 71.5519 430.971 72.9019H430.981Z" fill="currentColor"/>
<path d="M446.333 86.8608C438.593 86.8708 431.553 83.6208 425.103 86.0908C423.713 86.9908 422.933 88.5808 422.013 90.5408C421.773 91.4708 421.603 92.3308 421.383 93.1608C421.153 93.9908 420.863 94.7808 420.793 95.3608C421.803 95.2008 423.213 95.0408 424.623 95.0108C428.843 94.9208 432.963 96.0008 437.193 96.6808C443.603 97.7208 450.103 98.1208 456.583 98.2708C466.663 98.5108 476.863 96.5008 479.113 84.8008C473.663 86.6608 468.213 87.4808 462.753 87.6908C457.293 87.8908 451.823 87.4808 446.323 86.8708L446.333 86.8608Z" fill="currentColor"/>
<path d="M531.282 84.5922C526.202 81.0422 518.712 81.3622 512.812 80.4022C505.872 79.2722 498.561 77.8622 491.581 79.4722C489.131 80.0422 487.242 81.1722 486.102 82.9722C484.552 84.7822 482.262 88.9622 486.412 90.4322C493.122 92.1722 526.232 91.1722 533.202 92.4422C544.642 93.5922 555.362 98.7922 566.342 100.042C566.522 99.9622 566.691 99.8922 566.871 99.8122C565.371 97.7922 532.882 85.7122 531.282 84.5922Z" fill="currentColor"/>
<path d="M514.032 73.0628C521.682 71.9028 529.122 74.0728 535.142 70.6828C536.382 69.5928 536.922 67.9028 537.532 65.8328C537.632 64.8828 537.672 64.0028 537.772 63.1428C537.872 62.2928 538.052 61.4628 538.032 60.8828C537.062 61.1928 535.682 61.5628 534.302 61.8028C530.142 62.5228 525.912 62.0628 521.622 62.0128C515.132 61.9328 508.642 62.5028 502.212 63.3228C492.212 64.5828 482.422 68.0828 481.922 79.9828C487.032 77.3328 492.302 75.7128 497.672 74.7028C503.042 73.6928 508.512 73.2928 514.042 73.0728L514.032 73.0628Z" fill="currentColor"/>
<path d="M538.431 58.0599C543.991 60.7999 551.351 59.3399 557.321 59.3799C564.351 59.4399 571.791 59.7199 578.441 57.0599C580.771 56.1299 582.471 54.7199 583.331 52.7599C584.581 50.7399 586.211 46.2599 581.891 45.4299C574.991 44.7399 542.431 50.7799 535.341 50.5899C523.861 51.1999 512.471 47.6999 501.431 48.1399C501.271 48.2399 501.101 48.3399 500.941 48.4499C502.731 50.2099 536.681 57.1999 538.431 58.0599Z" fill="currentColor"/>
<path d="M557.241 66.8081C549.861 69.1181 542.171 68.1181 536.741 72.3781C535.681 73.6481 535.411 75.3981 535.121 77.5381C535.171 78.4981 535.271 79.3681 535.291 80.2281C535.321 81.0881 535.271 81.9281 535.381 82.5081C536.291 82.0481 537.601 81.4781 538.931 81.0281C542.931 79.6881 547.191 79.4881 551.431 78.8881C557.861 77.9681 564.181 76.4181 570.421 74.6381C580.111 71.8681 589.261 66.9181 587.931 55.0781C583.281 58.4781 578.321 60.8781 573.171 62.6981C568.021 64.5181 562.671 65.7481 557.241 66.8081Z" fill="currentColor"/>
<path d="M637.67 39.3707C631.77 37.4907 624.71 40.0207 618.79 40.8607C611.83 41.8507 604.43 42.6707 598.24 46.2907C596.07 47.5607 594.6 49.2007 594.05 51.2607C593.11 53.4507 592.16 58.1207 596.56 58.2907C603.48 57.9507 634.8 47.1507 641.83 46.2907C653.09 43.9807 664.88 45.7607 675.73 43.6807C675.88 43.5507 676.02 43.4307 676.17 43.3007C674.14 41.8207 639.52 39.9507 637.67 39.3607V39.3707Z" fill="currentColor"/>
<path d="M617.772 33.4987C624.732 30.1187 632.482 29.9688 637.212 24.9488C638.072 23.5388 638.082 21.7688 638.052 19.5988C637.862 18.6588 637.632 17.8087 637.482 16.9587C637.322 16.1087 637.242 15.2788 637.052 14.7188C636.222 15.3087 635.012 16.0687 633.762 16.7087C630.002 18.6287 625.822 19.4587 621.722 20.6788C615.502 22.5388 609.472 25.0088 603.572 27.6988C594.392 31.8787 586.092 38.1287 589.162 49.6387C593.252 45.5887 597.802 42.4787 602.622 39.9087C607.452 37.3487 612.552 35.3288 617.762 33.4888L617.772 33.4987Z" fill="currentColor"/>
</svg>
