<svg width="724" height="136" viewBox="0 0 724 136" fill="none" xmlns="http://www.w3.org/2000/svg">
<path d="M84.5806 85.2516C90.0506 88.1616 97.4506 86.9216 103.421 87.1516C110.451 87.4216 117.871 87.9316 124.611 85.4716C126.971 84.6116 128.711 83.2516 129.621 81.3216C130.931 79.3416 132.701 74.9116 128.401 73.9516C121.531 73.0516 88.7906 78.0916 81.7106 77.6916C70.2206 77.9516 58.9406 74.1016 47.8906 74.2116C47.7206 74.3116 47.5606 74.4016 47.3906 74.5016C49.1306 76.3216 82.8506 84.3316 84.5706 85.2516H84.5806Z" fill="currentColor"/>
<path d="M103.12 94.5808C95.6697 96.6708 88.0197 95.4308 82.4597 99.5308C81.3597 100.771 81.0397 102.511 80.6797 104.641C80.6997 105.601 80.7697 106.481 80.7697 107.341C80.7697 108.201 80.6997 109.041 80.7897 109.621C81.7197 109.191 83.0397 108.661 84.3797 108.251C88.4197 107.031 92.6797 106.961 96.9397 106.491C103.39 105.771 109.76 104.411 116.05 102.821C125.82 100.341 135.11 95.6808 134.15 83.8008C129.4 87.0608 124.37 89.3108 119.17 90.9708C113.96 92.6308 108.58 93.7008 103.13 94.5908L103.12 94.5808Z" fill="currentColor"/>
<path d="M184.34 69.6005C178.5 67.5405 171.36 69.8605 165.43 70.5105C158.44 71.2805 151.02 71.8805 144.73 75.3105C142.52 76.5105 141 78.1105 140.39 80.1505C139.38 82.3105 138.3 86.9505 142.69 87.2605C149.62 87.1305 181.25 77.2905 188.31 76.6405C199.64 74.6805 211.36 76.8105 222.28 75.0705C222.43 74.9505 222.58 74.8305 222.73 74.7105C220.74 73.1705 186.2 70.2405 184.36 69.5905L184.34 69.6005Z" fill="currentColor"/>
<path d="M164.63 63.1309C171.69 59.9609 179.44 60.0509 184.33 55.1809C185.23 53.7909 185.3 52.0209 185.33 49.8609C185.17 48.9209 184.97 48.0609 184.84 47.2109C184.71 46.3609 184.66 45.5209 184.48 44.9609C183.63 45.5209 182.4 46.2409 181.13 46.8509C177.32 48.6509 173.11 49.3509 168.97 50.4509C162.7 52.1209 156.6 54.4109 150.62 56.9209C141.32 60.8209 132.83 66.8109 135.55 78.4109C139.76 74.4909 144.4 71.5109 149.3 69.1009C154.2 66.6909 159.37 64.8309 164.63 63.1409V63.1309Z" fill="currentColor"/>
<path d="M202.59 41.4019C206.33 46.3419 213.56 48.3419 218.87 51.0719C225.13 54.2819 231.64 57.8719 238.79 58.4819C241.29 58.6919 243.44 58.2019 245.09 56.8319C247.12 55.5919 250.59 52.3219 247.09 49.6419C241.24 45.9219 209.43 36.6919 203.18 33.3419C192.65 28.7319 184.04 20.4919 173.98 15.9219C173.79 15.9419 173.6 15.9619 173.41 15.9819C174.22 18.3619 201.42 39.8519 202.59 41.4019Z" fill="currentColor"/>
<path d="M215.461 57.6709C207.821 56.4209 201.411 52.0709 194.641 53.4509C193.121 54.1109 192.091 55.5509 190.871 57.3309C190.481 58.2009 190.181 59.0309 189.821 59.8209C189.461 60.6009 189.041 61.3309 188.881 61.9009C189.901 61.9009 191.321 61.9809 192.711 62.1709C196.881 62.7709 200.781 64.5009 204.841 65.8709C210.991 67.9409 217.341 69.3909 223.721 70.6009C233.631 72.4809 244.021 72.1609 248.151 60.9809C242.471 61.9309 236.961 61.8509 231.541 61.1609C226.121 60.4709 220.791 59.1709 215.471 57.6809L215.461 57.6709Z" fill="currentColor"/>
<path d="M299.649 69.273C295.219 64.943 287.769 64.033 282.119 62.123C275.449 59.873 268.479 57.293 261.319 57.743C258.809 57.903 256.759 58.713 255.339 60.303C253.519 61.833 250.569 65.583 254.419 67.713C260.759 70.523 293.579 74.933 300.259 77.323C311.359 80.323 321.089 87.203 331.719 90.223C331.909 90.173 332.089 90.133 332.279 90.083C331.129 87.853 301.039 70.633 299.649 69.263V69.273Z" fill="currentColor"/>
<path d="M284.509 55.0927C292.249 55.1927 299.239 58.5527 305.719 56.1827C307.119 55.3027 307.929 53.7327 308.869 51.7827C309.119 50.8627 309.299 49.9927 309.539 49.1727C309.779 48.3427 310.089 47.5627 310.159 46.9827C309.149 47.1327 307.729 47.2727 306.329 47.2827C302.109 47.3127 298.009 46.1727 293.789 45.4227C287.399 44.2927 280.899 43.7927 274.419 43.5427C264.339 43.1527 254.119 45.0127 251.689 56.6727C257.169 54.8927 262.629 54.1527 268.089 54.0327C273.549 53.9127 279.019 54.4027 284.499 55.0927H284.509Z" fill="currentColor"/>
<path d="M321.299 48.6295C324.039 54.1995 330.799 57.5695 335.529 61.2695C341.099 65.6295 346.839 70.4195 353.789 72.3995C356.219 73.0895 358.439 73.0295 360.329 71.9995C362.569 71.1695 366.629 68.6295 363.699 65.3295C358.629 60.5495 328.979 45.3295 323.449 40.8295C313.929 34.2695 307.009 24.5095 297.949 18.0795C297.759 18.0595 297.559 18.0395 297.369 18.0195C297.709 20.5095 320.449 46.8695 321.309 48.6195L321.299 48.6295Z" fill="currentColor"/>
<path d="M330.879 67.0982C323.569 64.3882 318.069 58.8782 311.119 58.9182C309.489 59.2682 308.199 60.4882 306.649 61.9982C306.099 62.7782 305.639 63.5382 305.129 64.2282C304.619 64.9282 304.069 65.5582 303.799 66.0782C304.809 66.2782 306.199 66.6282 307.539 67.0882C311.549 68.4782 315.059 70.9382 318.819 73.0682C324.499 76.2882 330.499 78.9482 336.559 81.3582C345.989 85.1182 356.319 86.8182 362.559 76.6582C356.759 76.4882 351.329 75.3482 346.109 73.6182C340.889 71.8882 335.869 69.5882 330.899 67.0882L330.879 67.0982Z" fill="currentColor"/>
<path d="M411.838 94.7984C408.298 89.6884 401.108 87.3584 395.888 84.3884C389.738 80.8884 383.338 77.0084 376.178 76.0684C373.668 75.7384 371.488 76.1284 369.768 77.4184C367.668 78.5684 364.038 81.6784 367.438 84.5184C373.158 88.4984 404.748 99.1884 410.888 102.828C421.278 107.918 429.578 116.558 439.498 121.578C439.688 121.578 439.888 121.558 440.078 121.548C439.368 119.128 412.958 96.4084 411.838 94.7984Z" fill="currentColor"/>
<path d="M399.609 77.9395C407.239 79.5395 413.499 84.1795 420.359 83.1195C421.909 82.5295 423.009 81.1395 424.319 79.4095C424.749 78.5495 425.089 77.7395 425.489 76.9795C425.889 76.2195 426.339 75.4995 426.529 74.9495C425.499 74.8995 424.079 74.7595 422.689 74.4995C418.519 73.7095 414.679 71.7995 410.649 70.2495C404.549 67.8995 398.229 66.1495 391.869 64.6595C381.989 62.3295 371.519 62.1695 366.869 73.1395C372.619 72.4495 378.159 72.7795 383.589 73.7195C389.009 74.6595 394.319 76.1995 399.609 77.9395Z" fill="currentColor"/>
<path d="M430.479 72.4019C434.969 76.6719 442.429 77.4619 448.119 79.2819C454.819 81.4319 461.829 83.9119 468.979 83.3519C471.479 83.1519 473.529 82.3219 474.919 80.7019C476.719 79.1419 479.609 75.3519 475.719 73.2719C469.339 70.5619 436.449 66.6419 429.739 64.3519C418.599 61.5219 408.759 54.7919 398.089 51.9219C397.899 51.9719 397.719 52.0219 397.529 52.0719C398.709 54.2919 429.049 71.0519 430.469 72.4019H430.479Z" fill="currentColor"/>
<path d="M445.829 86.3608C438.089 86.3708 431.049 83.1208 424.599 85.5908C423.209 86.4908 422.429 88.0808 421.509 90.0408C421.269 90.9708 421.099 91.8308 420.879 92.6608C420.649 93.4908 420.359 94.2808 420.289 94.8608C421.299 94.7008 422.709 94.5408 424.119 94.5108C428.339 94.4208 432.459 95.5008 436.689 96.1808C443.099 97.2208 449.599 97.6208 456.079 97.7708C466.159 98.0108 476.359 96.0008 478.609 84.3008C473.159 86.1608 467.709 86.9808 462.249 87.1908C456.789 87.3908 451.319 86.9808 445.819 86.3708L445.829 86.3608Z" fill="currentColor"/>
<path d="M530.78 84.0922C525.7 80.5422 518.21 80.8622 512.31 79.9022C505.37 78.7722 498.06 77.3622 491.08 78.9722C488.63 79.5422 486.74 80.6722 485.6 82.4722C484.05 84.2822 481.76 88.4622 485.91 89.9322C492.62 91.6722 525.73 90.6722 532.7 91.9422C544.14 93.0922 554.86 98.2922 565.84 99.5422C566.02 99.4622 566.19 99.3922 566.37 99.3122C564.87 97.2922 532.38 85.2122 530.78 84.0922Z" fill="currentColor"/>
<path d="M513.53 72.5628C521.18 71.4028 528.62 73.5728 534.64 70.1828C535.88 69.0928 536.42 67.4028 537.03 65.3328C537.13 64.3828 537.17 63.5028 537.27 62.6428C537.37 61.7928 537.55 60.9628 537.53 60.3828C536.56 60.6928 535.18 61.0628 533.8 61.3028C529.64 62.0228 525.41 61.5628 521.12 61.5128C514.63 61.4328 508.14 62.0028 501.71 62.8228C491.71 64.0828 481.92 67.5828 481.42 79.4828C486.53 76.8328 491.8 75.2128 497.17 74.2028C502.54 73.1928 508.01 72.7928 513.54 72.5728L513.53 72.5628Z" fill="currentColor"/>
<path d="M537.929 57.5599C543.489 60.2999 550.849 58.8399 556.819 58.8799C563.849 58.9399 571.289 59.2199 577.939 56.5599C580.269 55.6299 581.969 54.2199 582.829 52.2599C584.079 50.2399 585.709 45.7599 581.389 44.9299C574.489 44.2399 541.929 50.2799 534.839 50.0899C523.359 50.6999 511.969 47.1999 500.929 47.6399C500.769 47.7399 500.599 47.8399 500.439 47.9499C502.229 49.7099 536.179 56.6999 537.929 57.5599Z" fill="currentColor"/>
<path d="M556.739 66.3081C549.359 68.6181 541.669 67.6181 536.239 71.8781C535.179 73.1481 534.909 74.8981 534.619 77.0381C534.669 77.9981 534.769 78.8681 534.789 79.7281C534.819 80.5881 534.769 81.4281 534.879 82.0081C535.789 81.5481 537.099 80.9781 538.429 80.5281C542.429 79.1881 546.689 78.9881 550.929 78.3881C557.359 77.4681 563.679 75.9181 569.919 74.1381C579.609 71.3681 588.759 66.4181 587.429 54.5781C582.779 57.9781 577.819 60.3781 572.669 62.1981C567.519 64.0181 562.169 65.2481 556.739 66.3081Z" fill="currentColor"/>
<path d="M637.17 38.8707C631.27 36.9907 624.21 39.5207 618.29 40.3607C611.33 41.3507 603.93 42.1707 597.74 45.7907C595.57 47.0607 594.1 48.7007 593.55 50.7607C592.61 52.9507 591.66 57.6207 596.06 57.7907C602.98 57.4507 634.3 46.6507 641.33 45.7907C652.59 43.4807 664.38 45.2607 675.23 43.1807C675.38 43.0507 675.52 42.9307 675.67 42.8007C673.64 41.3207 639.02 39.4507 637.17 38.8607V38.8707Z" fill="currentColor"/>
<path d="M617.27 32.9987C624.23 29.6187 631.98 29.4688 636.71 24.4488C637.57 23.0388 637.58 21.2688 637.55 19.0988C637.36 18.1588 637.13 17.3087 636.98 16.4587C636.82 15.6087 636.74 14.7788 636.55 14.2188C635.72 14.8087 634.51 15.5687 633.26 16.2087C629.5 18.1287 625.32 18.9587 621.22 20.1788C615 22.0388 608.97 24.5088 603.07 27.1988C593.89 31.3787 585.59 37.6287 588.66 49.1387C592.75 45.0887 597.3 41.9787 602.12 39.4087C606.95 36.8487 612.05 34.8288 617.26 32.9888L617.27 32.9987Z" fill="currentColor"/>
</svg>
