<svg width="412" height="401" viewBox="0 0 412 401" fill="none" xmlns="http://www.w3.org/2000/svg">
<path d="M130.056 104.509C130.459 106.102 133.232 108.528 135.326 110.652C136.819 112.483 138.992 114.615 140.833 116.589C142.674 118.57 145.155 120.782 146.316 122.565C148.71 124.713 151.507 126.885 151.705 128.629C154.849 130.721 157.338 132.64 156.967 134.811C160.451 136.389 163.311 138.521 162.039 141.16C166.132 142.183 169.023 144.6 166.89 147.692C171.544 148.159 173.756 150.719 171.457 154.429C174.91 152.503 174.925 152.527 171.473 154.461C174.925 152.535 174.941 152.566 171.489 154.492C175.257 153.177 175.4 154.318 172.136 157.084C175.415 155.745 174.91 157.013 171.686 159.644C174.681 157.671 174.167 156.807 171.109 158.749C174.791 156.886 175.889 156.839 173.408 159.209C177.106 157.235 178.015 157.631 175.558 160.524C178.971 158.685 179.113 159.859 176.514 162.902C179.224 161.174 178.868 162.411 176.363 165.272C178.757 163.045 178.133 162.387 175.637 164.575C178.631 162.284 179.429 161.951 177.517 164.416C180.48 162.03 181.207 162.197 179.429 165.169C182.068 162.974 182.25 163.806 180.464 166.881C182.566 164.789 182.51 165.708 180.82 168.68C182.566 166.2 182.178 165.748 180.353 168.229C182.85 165.819 183.553 166.287 182.423 169.251C184.43 167.127 184.786 168.015 183.759 170.908C185.426 168.958 185.765 169.972 184.865 172.62C186.066 170.44 187.14 172.43 186.042 174.269C187.14 172.422 191.731 180.847 190.696 180.911C191.731 180.847 191.494 181.093 190.419 181.133C191.494 181.093 190.79 179.991 189.724 180.269C190.688 179.872 190.538 179.571 189.368 179.857C190.435 179.468 190.395 179.413 189.329 179.817C190.395 179.413 190.411 179.421 189.345 179.817C190.419 179.421 190.411 179.413 189.345 179.817C190.419 179.421 190.459 179.436 189.463 179.793C190.569 179.349 190.553 179.254 189.511 179.666C190.206 179.381 190.206 179.381 189.511 179.666C190.553 179.238 190.617 179.381 189.574 179.777C190.617 179.381 190.775 179.674 189.724 180.007C190.775 179.674 190.601 179.833 189.526 180.15C190.601 179.833 190.427 179.547 189.36 179.92C190.435 179.547 190.348 179.381 189.281 179.793C190.34 179.365 190.324 179.326 189.25 179.722C190.316 179.278 190.301 179.183 189.297 179.587C190.411 179.088 190.451 179.104 189.424 179.563C190.467 179.112 190.49 179.127 189.447 179.571C190.49 179.119 190.53 179.159 189.487 179.595C190.522 179.151 190.585 179.23 189.55 179.65C190.704 179.341 190.862 179.643 189.937 180.063C190.972 179.761 191.707 180.824 190.68 180.895C191.715 180.824 191.478 181.069 190.403 181.117C191.478 181.077 186.571 172.929 185.41 174.689C186.563 172.929 185.426 170.995 184.17 173.072C185.094 170.519 184.73 169.544 183.008 171.415C183.759 168.205 182.905 166.929 180.235 169.243C181.973 166.865 181.602 166.881 179.832 169.219C181.602 166.881 181.586 166.421 179.777 168.791C181.467 165.518 181.412 164.028 178.678 166.009C180.33 163.092 179.105 163.409 175.881 165.748C178.228 163.616 177.343 163.948 175.012 165.954C177.343 163.956 177.588 162.958 175.147 165.05C177.762 161.808 178.094 159.819 174.57 161.38C177.122 158.796 176.458 158.527 172.982 160.461C175.423 158.21 174.444 158.281 170.959 160.088C173.859 158.218 172.95 158.234 170.114 160.001C172.95 158.234 173.337 157.346 170.382 159.185C173.527 156.767 173.938 155.729 170.722 157.092C173.906 154.611 173.804 153.763 170.209 155.127C173.543 153.264 173.582 153.319 170.248 155.19C172.397 151.52 170.177 148.992 165.681 148.532C167.593 145.385 164.765 143.023 160.878 142.04C161.928 139.306 159.234 137.237 155.876 135.691C156.145 133.416 153.751 131.514 150.733 129.453C150.472 127.606 147.77 125.442 145.495 123.279C144.317 121.416 141.979 119.181 140.217 117.136C138.455 115.091 136.353 112.871 134.971 110.945C133.817 109.74 132.45 108.528 132.434 107.775C131.684 107.442 128.847 104.073 130.048 104.493L130.056 104.509Z" fill="currentColor"/>
<path d="M187.219 180.826C188.475 180.516 192.963 183.465 191.872 183.053C192.971 183.465 192.188 177.187 191.469 177.901C192.188 177.187 188.475 180.516 187.219 180.826Z" fill="currentColor"/>
<path d="M101.93 106.583C103.818 106.226 106.133 108.866 108.875 112.005C110.51 112.155 113.354 114.922 116.088 117.014C116.973 117.236 118.529 118.417 119.746 119.59C120.75 120.438 121.903 121.58 123.009 122.547C125.19 124.497 127.426 126.399 129.67 128.285C131.921 130.164 134.292 132.003 136.472 133.858C138.851 135.665 141.64 137.29 143.362 139.327C143.899 139.065 147.66 141.491 150.291 144.764C154.384 146.754 158.476 149.425 157.22 150.202C158.476 149.425 158.508 149.449 157.244 150.218C158.5 149.441 158.524 149.457 157.26 150.233C159.44 150.328 160.894 151.446 159.978 153.325C161.953 153.142 162.308 154.054 160.681 155.544C162.277 155.298 161.913 155.924 160.278 156.796C161.463 156.606 160.878 157.05 159.424 157.66C160.578 157.264 160.507 156.099 159.282 156.559C162.008 156.709 164.584 157.153 163.999 158.659C167.396 158.58 169.577 159.238 168.392 161.528C171.331 160.831 171.947 161.489 170.099 163.605C172.769 162.852 172.888 163.756 171.102 166.102C173.449 166.07 172.682 168.408 171.331 171.325C172.548 169.994 172.019 169.796 170.802 171.072C172.493 169.367 173.377 168.511 172.382 169.748C174.381 167.766 175.289 166.95 174.183 168.67C176.182 166.609 176.672 166.332 175.282 168.511C177.352 166.435 177.676 166.625 176.238 169.098C178.252 167.386 178.213 168.282 177.012 171.04C178.355 168.876 178.118 168.963 176.783 171.095C177.96 168.393 177.936 167.56 175.985 169.312C177.407 166.926 177.162 166.815 175.234 168.892C176.656 166.768 176.253 167.005 174.349 169.066C175.479 167.338 174.634 168.147 172.714 170.16C173.701 168.924 172.856 169.788 171.236 171.523C172.414 170.224 171.75 170.905 170.675 172.078C171.75 170.905 171.892 170.025 170.707 171.27C171.947 168.456 172.572 166.268 170.296 166.3C171.805 163.423 170.999 162.099 167.72 162.281C168.787 160.205 166.685 159.658 163.501 159.682C163.881 158.326 161.368 157.969 158.824 157.724C159.851 157.383 158.619 157.026 157.757 157.312C158.611 157.026 159.772 156.218 158.682 156.622C160.199 155.901 160.712 155.338 159.385 155.481C160.728 154.522 160.483 153.864 158.848 154.014C159.567 152.461 158.231 151.43 156.319 151.24C157.331 150.606 157.378 150.638 156.359 151.272C155.166 148.918 152.243 147.118 149.39 145.882C147.7 143.607 145.1 142.061 142.445 140.46C140.557 138.463 137.879 136.79 135.564 134.944C133.288 133.081 131.029 131.194 128.809 129.26C126.58 127.334 124.384 125.376 122.243 123.355C121.16 122.357 120.023 121.191 119.051 120.312C117.968 119.194 116.523 118.021 115.606 117.704C112.936 115.572 110.17 112.639 108.574 112.361C105.935 109.128 103.699 106.345 101.93 106.567V106.583Z" fill="currentColor"/>
<path d="M174.168 170.772C175.567 168.98 178.419 173.134 177.439 174.767C178.411 173.142 180.639 167.379 179.248 169.924C180.639 167.379 175.559 168.98 174.16 170.772H174.168Z" fill="currentColor"/>
<path d="M117.123 274.589C120.031 271.862 122.993 269.207 125.94 266.528L134.758 258.474C137.673 255.764 140.581 253.061 143.37 250.239C144.752 248.82 146.127 247.393 147.376 245.887C148.055 245.111 149.398 243.993 149.161 243.573C150.449 242.44 152.108 241.116 150.433 241.1C152.345 240.307 152.503 240.054 150.504 240.886C152.503 240.054 152.835 239.856 150.694 240.743C154.234 238.825 159.669 236.178 155.079 237.295C161.795 234.275 166.251 232.23 158.69 233.213C167.475 230.352 169.301 228.957 160.799 228.267C169.735 227.118 168.684 225.81 161.352 222.814C168.692 224.914 168.352 224.407 161.352 221.958C168.352 224.415 169.996 224.811 162.182 222.116C170.746 224.954 174.792 226.008 166.796 222.41C171.426 224.146 174.104 225.089 174.823 224.946C175.542 224.803 174.31 223.599 171.118 221.031C174.768 223.337 176.751 224.375 177.217 224.011C177.762 223.567 176.941 221.593 174.713 218.082C177.296 221.213 178.6 222.529 178.813 222.116C179.382 221.363 179.327 218.502 177.754 214.388C179.501 218.264 179.809 220.626 179.532 220.872C179.832 220.579 179.58 218.153 177.841 214.269C179.58 218.153 179.864 220.555 179.588 220.817C179.904 220.539 179.682 218.114 177.976 214.23C179.817 218.074 180.251 220.325 180.18 220.492C180.82 219.992 181.263 217.163 180.069 213.239C181.523 217.004 181.523 219.342 181.27 219.533C182.06 218.811 182.922 215.688 182.013 211.828C183.309 215.379 183.38 217.281 182.977 217.274C184.447 215.918 186.248 212.217 185.64 208.562C186.532 211.939 185.521 214.753 184.265 215.601C185.584 214.84 186.706 212.121 185.837 208.761C186.438 212.407 184.605 216.164 183.143 217.559C183.585 217.606 183.57 215.736 182.392 212.264C183.214 216.069 182.282 219.231 181.5 219.968C181.752 219.81 181.8 217.503 180.472 213.841C181.547 217.678 181.033 220.531 180.401 221.046C180.417 220.928 179.998 218.756 178.213 215.038C179.848 218.811 180.093 221.142 179.856 221.379C180.164 221.086 180.022 218.661 178.434 214.88C179.856 218.898 179.801 221.784 179.248 222.568C179.042 223.012 177.873 221.752 175.479 218.787C177.525 222.14 178.252 224.074 177.691 224.566C177.201 224.978 175.274 224.09 171.718 222.069C174.807 224.375 175.969 225.477 175.179 225.66C174.389 225.842 171.647 225.097 166.93 223.718C175.013 226.642 170.802 225.66 161.921 223.496C170.004 225.517 171.189 225.382 162.751 222.798C171.213 226.325 171.868 227.522 162.206 228.6C171.426 229.456 169.222 230.812 159.922 234.03C167.926 232.793 163.13 235.076 156.035 238.381C160.918 237.026 155.237 239.856 151.5 241.885C153.799 240.854 154.305 240.418 151.761 241.536C153.981 241.377 151.879 242.986 150.259 244.334C150.741 244.611 149.106 245.919 148.355 246.72C147.052 248.265 145.622 249.676 144.199 251.087C141.323 253.869 138.369 256.54 135.366 259.164C132.372 261.796 129.338 264.372 126.288 266.932L117.131 274.605L117.123 274.589Z" fill="currentColor"/>
<path d="M187.031 211.037C187.695 214.239 186.936 215.428 185.688 215.047C187.647 212.899 189.377 208.944 188.374 206.043C189.377 208.944 187.07 211.972 184.645 213.264C185.143 212.836 184.582 210.965 183.396 207.375C184.582 210.957 184.384 214.484 183.831 216.109C185.617 216.197 187.695 214.247 187.031 211.037Z" fill="currentColor"/>
<path d="M221.115 89.9885C220.569 94.2925 219.74 98.5648 218.887 102.821C218.452 104.945 217.986 107.07 217.52 109.186C217.054 111.302 216.58 113.419 216.121 115.535C215.647 117.651 215.149 119.776 214.762 121.884C214.249 124.048 213.158 126.806 213.53 128.249C212.4 130.936 210.986 133.98 212.503 134.645C210.433 137.903 209.2 140.638 211.752 141.066C209.042 142.5 209.05 142.453 211.752 141.01C208.979 145.1 210.196 148.057 213.925 149.816C211.389 150.363 211.918 151.005 214.304 150.546C211.918 150.997 210.859 151.18 213.514 150.775C210.196 151.37 208.576 151.592 211.302 151.695C207.509 152.25 206.609 152.686 209.903 153.296C206.229 153.748 206.285 154.406 209.84 155.547C206.53 155.682 207.146 156.411 210.575 157.925C207.399 157.053 207.715 157.552 210.804 158.504C207.715 157.56 207.035 157.655 210.227 158.67C206.648 157.766 205.921 157.869 208.963 159.336C205.352 158.377 205.021 158.694 208.157 160.533C204.546 159.827 204.673 160.866 207.604 163.687C204.625 161.769 204.625 161.833 207.604 163.759C204.633 161.833 204.618 161.872 207.588 163.806C204.159 163.259 204.317 165.59 206.332 169.061C204.033 167.08 203.804 173.35 205.344 174.435C203.804 173.35 203.543 173.254 205.076 174.396C203.543 173.262 203.464 166.905 205.755 168.974C203.654 165.407 203.369 162.99 206.775 163.553C203.796 161.555 203.788 161.658 206.759 163.664C203.812 160.731 203.598 159.613 207.241 160.176C204.096 158.226 204.436 157.79 208.26 158.575C205.21 157.077 206.119 156.91 209.919 157.624C206.601 156.76 206.245 157.354 209.571 158.361C205.969 156.688 205.313 155.912 208.702 155.793C204.997 154.485 204.878 153.661 208.734 152.9C205.384 152.091 206.553 151.425 210.614 150.609C207.873 150.593 209.643 150.3 213.158 149.491C210.369 150.07 209.848 150.894 212.748 150.45C209.2 149.697 208.054 148.334 210.907 145.901C207.359 145.687 207.367 143.975 210.306 140.994C207.383 142.572 207.383 142.556 210.306 140.971C207.383 142.556 207.391 142.524 210.306 140.939C207.541 140.677 208.734 137.863 211.049 134.439C209.295 133.972 210.764 130.817 212.116 127.995C211.523 126.711 212.771 123.818 213.427 121.599C213.712 119.593 214.407 117.366 214.912 115.25C214.912 115.25 215.71 112.095 216.516 108.94L218.12 102.631C219.211 98.438 220.206 94.2212 221.107 89.9727L221.115 89.9885Z" fill="currentColor"/>
<path d="M202.784 173.277C201.275 171.557 203.614 177.906 204.657 178.096C203.622 177.906 206.229 173.221 207.88 174.062C206.229 173.221 201.275 171.557 202.784 173.277Z" fill="currentColor"/>
<path d="M260.043 89.6641C257.199 96.1716 254.094 102.56 250.823 108.862C250.009 110.439 249.187 112.008 248.358 113.578C247.528 115.147 246.69 116.709 245.845 118.27C245 119.832 244.178 121.647 243.309 122.947C242.495 124.738 241.784 127.021 240.749 127.607C240.954 128.527 239.983 131.769 238.181 132.26C237.581 136.128 236.814 139.148 235.613 136.913C236.822 139.14 234.966 143.904 233.054 141.566C234.231 145.251 233.859 146.94 230.581 146.266C233.164 148.271 232.176 150.356 228.108 150.974C229.925 154.295 228.258 156.221 225.635 155.682C227.554 157.537 225.84 158.821 223.098 160.367C224.355 161.484 222.316 162.919 220.38 164.956C221.439 164.298 221.455 164.274 220.396 164.932C221.463 164.274 220.625 165.566 219.804 166.208C220.625 165.566 220.254 165.448 219.543 166.097C220.254 165.455 220.965 164.14 220.057 164.798C220.973 164.14 220.973 164.132 220.057 164.798C220.973 164.14 220.981 164.124 220.064 164.782C221.763 162.705 223.557 161.223 222.498 160.066C224.892 158.48 226.44 157.149 224.813 155.278C227.104 155.793 228.716 153.804 227.136 150.491C230.991 149.753 231.924 147.574 229.459 145.703C232.595 146.195 232.959 144.459 231.86 140.939C234.405 141.661 234.728 139.616 234.365 136.239C236.277 136.778 236.664 134.464 236.909 131.563C238.276 131.507 238.821 129.145 239.477 126.902C240.788 125.61 241.784 122.804 242.93 120.711C244.083 118.651 245.237 116.59 246.39 114.521C251.004 106.27 255.603 98.0184 260.043 89.6641Z" fill="currentColor"/>
<path d="M217.725 164.187C217.575 163.434 217.709 169.022 217.765 169.355C217.709 169.014 223.998 166.05 222.205 166.739C223.998 166.058 217.575 163.442 217.725 164.187Z" fill="currentColor"/>
<path d="M69.125 167.449C74.0631 168.186 78.9853 169.027 83.9076 169.851L98.6585 172.498C108.487 174.298 118.284 176.279 128.097 178.182C137.902 180.147 147.684 182.168 157.504 184.023C159.954 184.507 162.411 184.99 164.86 185.482C167.309 185.973 170.193 186.504 172.208 186.98C175.029 187.487 178.631 188.2 179.548 188.525C183.222 189.175 186.572 189.976 186.896 189.992C188.737 190.364 188.721 190.507 186.872 190.134C187.212 190.523 185.055 189.928 182.045 189.096C181.973 189.492 179.587 189.049 177.012 188.549C176.451 188.51 174.144 187.978 172.161 187.598C170.865 187.447 168.826 187.091 167.183 186.797C165.548 186.504 163.904 186.211 162.269 185.918C160.633 185.624 158.99 185.347 157.346 185.077C147.51 183.357 137.697 181.4 127.892 179.474L69.125 167.441V167.449Z" fill="currentColor"/>
<path d="M185.916 192.257C187.82 192.542 191.391 191.179 189.598 190.727C191.399 191.179 188.492 188.08 186.746 187.699C188.492 188.088 187.82 192.542 185.916 192.257Z" fill="currentColor"/>
<path d="M332.651 92.3242C328.053 96.1764 323.399 99.9493 318.745 103.73L304.682 114.938C295.288 122.389 285.783 129.689 276.325 137.052C266.829 144.368 257.3 151.629 247.874 159.032C245.504 160.863 243.134 162.702 240.764 164.533C238.393 166.364 236.007 168.322 233.629 170.002C231.267 171.952 228.509 174.433 226.463 175.432C223.871 177.936 220.656 180.861 219.344 180.925C218.523 182.573 218.436 182.454 219.249 180.814C219.692 181.075 221.849 179.197 223.974 177.255C224.804 176.676 226.866 174.702 228.509 173.188C229.931 172.229 231.638 170.834 233.195 169.55C234.751 168.266 236.307 166.95 237.872 165.706C240.993 163.217 244.114 160.72 247.219 158.192C256.565 150.686 266.062 143.354 275.528 136.014L332.651 92.3242Z" fill="currentColor"/>
<path d="M218.468 178.555C217.749 180.069 215.711 184.626 216.596 182.803C215.711 184.626 220.341 183.945 221.194 182.304C220.341 183.937 217.749 180.061 218.46 178.555H218.468Z" fill="currentColor"/>
<path d="M61.5957 185.594C67.5846 185.744 73.5656 185.998 79.5465 186.228L97.4816 187.116C109.436 187.742 121.382 188.55 133.336 189.28C141.3 189.811 149.264 190.366 157.22 190.873C161.202 191.126 165.184 191.372 169.166 191.602C172.311 191.824 176.522 192.284 178.126 192.181C182.203 192.664 186.374 193.124 187.086 192.799C191.668 193.488 195.018 193.774 196.037 193.473C199.932 194.154 202.469 194.281 204.997 194.059C204.863 194.4 204.855 194.527 204.997 194.202C203.227 194.701 201.6 194.574 199.111 193.742C198.313 194.511 196.409 194.432 193.035 193.79C193.051 194.289 190.791 194.02 187.125 193.417C187.22 193.901 184.518 193.655 181.081 193.211C180.804 193.465 177.921 193.179 175.1 192.926C174.049 192.997 171.284 192.775 169.119 192.672C165.129 192.49 161.147 192.284 157.157 192.054C149.185 191.602 141.221 191.087 133.257 190.587L61.6036 185.586L61.5957 185.594Z" fill="currentColor"/>
<path d="M204.111 196.414C204.119 196.469 207.532 194.71 208.315 194.464C207.54 194.71 204.522 192.38 204.53 191.793C204.522 192.387 204.127 196.469 204.111 196.422V196.414Z" fill="currentColor"/>
<path d="M339.107 140.422C333.687 142.974 328.219 145.423 322.768 147.904L306.326 155.149C295.351 159.952 284.306 164.581 273.292 169.289C265.929 172.389 258.565 175.456 251.209 178.571C247.535 180.125 243.861 181.694 240.195 183.279C237.438 184.445 233.898 185.935 231.923 186.775C228.526 188.202 224.465 189.985 223.635 190.239C219.424 192.093 215.987 193.71 215.323 193.655C211.318 195.621 208.781 196.802 207.051 197.15C206.601 197.777 206.553 197.658 206.996 197.016C207.928 196.77 209.556 196.08 212.463 194.788C212.566 194.638 214.517 193.639 217.875 192.014C217.662 192.228 220.001 191.19 223.327 189.692C223.359 189.644 226.013 188.416 228.826 187.163C229.505 186.87 232.144 185.697 234.301 184.738C235.747 184.096 237.944 183.113 239.769 182.289C243.419 180.664 247.077 179.063 250.743 177.477C258.075 174.307 265.431 171.192 272.779 168.077L339.107 140.422Z" fill="currentColor"/>
<path d="M206.79 194.629C206.348 195.58 204.08 198.648 203.906 198.259C204.088 198.648 207.801 199.361 208.481 198.957C207.801 199.361 206.356 195.588 206.79 194.629Z" fill="currentColor"/>
<path d="M290.721 308.097C286.992 304.221 283.334 300.273 279.66 296.334L268.78 284.397C261.551 276.415 254.456 268.315 247.298 260.261C240.195 252.169 233.131 244.036 225.942 236.023C224.156 234.002 222.307 231.853 220.601 229.967C218.768 227.827 216.421 224.862 215.283 223.88C213.024 220.971 210.701 217.951 210.005 217.761C207.556 214.289 205.731 211.776 204.664 211.697C204.198 210.104 204.293 210.001 204.767 211.594C205.526 210.944 206.632 212.585 208.228 215.628C208.876 214.867 210.306 216.675 212.154 219.417C212.534 219.092 214.019 221.137 215.686 223.404C216.405 223.658 218.025 225.671 219.415 227.359C220.403 228.287 221.825 229.999 223.05 231.33C224.267 232.654 225.483 233.97 226.708 235.278C233.993 243.204 241.111 251.297 248.254 259.358L290.713 308.081L290.721 308.097Z" fill="currentColor"/>
<path d="M206.868 210.562C206.189 208.969 202.673 207.93 202.823 209.325C202.673 207.93 202.989 212.028 203.4 213.629C202.989 212.028 206.189 208.969 206.868 210.562Z" fill="currentColor"/>
<path d="M255.831 305.267C254.962 303.975 254.101 302.683 253.382 301.288C252.663 299.909 252.031 298.434 251.802 296.841L251.873 297.008C250.545 295.636 249.257 294.122 248.491 292.276C248.112 291.356 247.867 290.349 247.843 289.335C247.812 288.32 247.985 287.306 248.286 286.355L248.57 287.005C247.559 286.561 246.571 286.014 245.67 285.324C244.778 284.635 243.964 283.778 243.371 282.788C242.771 281.797 242.321 280.56 242.123 279.609C241.815 278.373 241.467 276.677 241.681 276.296C241.404 275.599 241.941 276.375 242.155 276.914C241.056 276.114 240.045 275.163 239.682 275.63C238.623 274.077 237.793 272.713 237.762 273.696C236.229 270.716 234.767 267.593 234.996 269.25C234.048 266.285 234.119 266.388 235.052 269.329C233.234 265.16 230.896 262.425 232.034 265.088C229.355 260.245 227.277 258.184 229.031 260.832C226.621 257.241 226.653 257.273 229.063 260.871C227.23 256.274 225.002 256.076 221.754 259.183C222.339 255.141 222.3 253.952 221.612 255.727C221.573 253.674 219.266 255.188 216.232 257.963C218.926 255.133 220.925 253.611 220.846 255.434C220.917 253.603 218.934 254.935 216.137 257.55C219.187 254.657 221.494 252.969 221.28 254.737C221.604 252.787 220.269 253.587 217.559 256.013C220.806 252.929 222.876 251.296 222.331 252.581C221.352 251.701 222.102 250.813 222.315 250.448C221.818 250.108 221.399 249.886 220.87 248.72C220.712 249.362 219.7 249.561 218.752 247.428C219.305 249.355 218.831 249.331 218.207 247.151C218.823 249.331 219.321 248.792 218.523 246.652C219.463 248.562 220.222 247.73 219.029 245.312C220.293 247.199 220.569 246.549 218.847 243.877C220.277 245.701 219.866 244.71 217.172 241.151C219.44 244.163 219.408 244.123 217.132 241.095C219.408 244.115 219.4 244.076 217.117 241.048C218.958 243.037 218.183 240.501 214.573 236.284C217.496 239.359 214.407 233.605 211.752 231.608C214.407 233.605 214.62 233.454 211.973 231.465C214.62 233.454 218.017 238.963 215.047 235.975C218.76 240.073 219.732 242.474 217.875 240.707C220.238 243.552 220.198 243.473 217.812 240.612C220.664 244.02 221.194 245.011 219.756 243.537C221.596 246.033 221.296 246.842 220.056 245.415C221.233 247.587 220.261 248.641 219.44 247.23C220.079 248.934 220.095 248.372 219.218 246.454C220.546 248.586 221.652 248.356 221.565 247.793C222.466 248.958 223.042 249.22 223.453 249.973C223.508 250.258 222.576 251.455 223.564 252.937C222.292 252.462 220.498 253.865 222.402 255.466C222.379 253.302 220.593 254.396 217.725 257.146C220.498 254.055 222.292 252.604 222.071 254.483C221.043 253.92 223.659 253.548 226.456 256.663C225.27 254.618 227.404 255.458 230.145 259.936C228.123 256.298 228.146 256.322 230.161 259.96C228.138 256.322 228.154 256.338 230.177 259.976C228.834 257.289 230.825 259.334 233.211 264.216C232.389 261.529 234.428 264.24 236.221 268.473C235.297 265.477 235.328 265.532 236.253 268.52C235.328 265.54 235.352 265.588 236.276 268.56C236.087 266.895 237.335 269.868 238.876 272.816C239.192 272.262 240.788 274.418 242.55 275.614C242.226 274.869 242.708 275.083 243.008 275.757C242.7 275.083 242.763 275.646 243.024 276.233C242.842 277.691 243.427 280.41 244.43 282.146C245.41 283.897 247.116 285.15 248.997 286.037L249.431 286.244L249.281 286.687C248.989 287.544 248.815 288.431 248.799 289.327C248.783 290.223 248.957 291.11 249.273 291.966C249.913 293.671 251.059 295.192 252.291 296.619L252.363 296.698V296.786C252.497 298.284 253.026 299.758 253.658 301.161C254.306 302.564 255.049 303.927 255.823 305.275L255.831 305.267Z" fill="currentColor"/>
<path d="M214.438 230.768C217.022 233.091 211.775 229.484 209.855 228.406C211.775 229.484 212.731 236.119 210.108 233.574C212.731 236.126 217.022 233.091 214.438 230.768Z" fill="currentColor"/>
<path d="M166.029 319.764C168.36 306.171 172.05 292.767 176.229 279.641C176.561 278.587 178.102 277.406 178.868 278.397C178.291 278.484 177.715 278.571 177.138 278.651C178.481 273.911 179.816 269.171 181.16 264.431C181.239 264.138 181.42 263.789 181.792 263.813C182.163 263.836 182.021 264.478 181.76 264.241C181.231 260.658 181.294 257.067 181.965 253.611C182.479 254 182.993 254.388 183.506 254.785C183.079 254 182.653 253.207 182.234 252.423C182.645 253.271 183.056 254.119 183.467 254.975L181.878 251.456C181.752 251.923 183.095 253.12 183.364 253.318C183.158 252.216 182.123 250.726 180.591 250.75C182.368 250.56 184.225 252.359 183.704 253.762C184.028 252.121 182.55 250.227 180.551 249.712C182.329 249.197 184.628 251.091 184.035 252.581C184.383 250.758 182.779 248.658 180.583 248.039C181.294 247.413 182.605 247.326 183.577 247.841C184.549 248.356 185.07 249.418 184.778 250.267C185.339 248.103 183.261 245.487 180.551 244.948C181.531 244.488 182.566 244.013 183.735 244.029C184.905 244.044 186.256 244.726 186.445 245.709C185.979 243.593 183.253 241.817 180.749 241.999C182.874 241.104 185.379 240.747 187.875 240.985C187.014 239.289 184.968 237.973 182.835 237.751C184.841 237.41 186.856 237.077 188.863 236.736C187.844 236.205 186.817 235.674 185.797 235.143C187.496 234.945 189.037 234.224 190.072 233.146C189.147 232.615 188.365 232.052 187.915 231.243C188.902 231.18 190.032 230.911 190.696 230.308C193.746 227.526 194.22 221.217 195.436 217.555C195.468 221.328 194.417 225.005 192.387 228.2C191.668 229.333 190.807 230.467 190.783 231.806C190.775 232.496 190.988 233.201 190.878 233.875C190.656 235.23 188.95 236.166 187.291 235.841C188.057 236.316 188.823 236.792 189.59 237.259C188.507 238.084 187.069 238.583 185.545 238.678C186.903 238.98 188.16 239.796 188.863 240.834C187.291 241.024 185.782 241.429 184.415 242.031C186.169 242.634 187.615 243.981 188.112 245.487C186.682 244.861 184.905 245.011 183.83 245.836C185.473 246.803 186.627 248.364 186.872 249.957C186.311 249.157 185.055 248.713 184.075 248.975C184.999 249.831 185.663 250.877 185.987 251.955C185.489 251.432 184.525 252.375 185.213 252.716C185.371 251.511 187.994 252.462 187.994 252.462C187.994 252.462 185.418 252.113 185.489 253.635C181.46 270.296 176.103 286.553 171.046 302.921L168.502 311.331C167.681 314.153 166.859 316.966 166.053 319.788V319.772L166.029 319.764Z" fill="currentColor"/>
<path d="M198.747 218.425C199.268 220.787 196.732 212.282 196.677 211.973C196.74 212.282 191.77 217.497 191.162 216.094C191.77 217.497 199.276 220.787 198.755 218.417L198.747 218.425Z" fill="currentColor"/>
<path d="M22.2734 209.352C35.0176 208.202 47.7222 206.165 60.4664 204.85C72.7996 203.574 85.212 202.836 97.6638 202.155C102.918 201.869 108.164 201.576 113.418 201.291C116.152 201.14 118.886 200.776 121.619 201.013C122.899 201.124 124.163 201.315 125.443 201.449C126.723 201.584 127.956 201.75 129.18 201.6C129.417 201.568 129.955 201.449 129.955 201.449C129.955 201.449 129.52 201.315 129.362 201.291C129.133 201.259 128.896 201.243 128.667 201.212C128.375 201.172 128.074 201.124 127.79 201.045C127.64 201.005 127.347 200.95 127.261 200.807C127.213 200.72 127.292 200.585 127.292 200.585C127.292 200.585 137.927 201.608 137.042 200.562C136.157 199.515 138.527 199.642 138.527 199.642L129.141 199.888C129.141 199.888 130.373 200.332 131.029 200.363C133.558 200.498 136.03 199.904 138.527 199.634C138.606 199.626 138.677 199.618 138.756 199.61C141.213 199.373 143.671 199.048 146.128 198.778C151.271 198.207 156.423 197.684 161.574 197.232C171.829 196.321 182.108 195.639 192.395 195.188C182.022 196.408 171.648 197.668 161.282 198.96C152.046 200.11 142.817 201.307 133.581 202.432C132.412 202.575 130.089 202.218 130.089 202.218L130.239 202.773C130.239 202.773 129.504 202.583 129.133 202.488C128.762 202.393 128.548 203.082 128.548 203.082C128.548 203.082 128.77 202.591 128.548 202.496C128.327 202.4 128.035 202.646 128.106 202.884C125.87 202.979 123.634 203.066 121.39 203.161C115.449 203.677 109.491 204.057 103.526 204.319C98.8726 204.517 92.3939 205.912 88.238 203.534C88.9491 203.938 87.8666 204.858 87.045 204.897C65.4281 205.928 43.835 207.418 22.2813 209.368L22.2734 209.352Z" fill="currentColor"/>
<path d="M190.634 199.063C191.511 199.325 199.38 195.48 199.119 194.577C199.68 195.362 197.46 194.672 194.008 193.19C193.605 193.277 191.416 192.286 190.018 191.129C191.076 192.548 191.511 199.333 190.634 199.071V199.063Z" fill="currentColor"/>
<path d="M387.608 181.02C374.856 182.129 361.993 182.367 349.226 183.318C336.458 184.269 324.512 185.696 312.139 187.218C306.916 187.86 301.702 188.502 296.479 189.144C293.769 189.477 291.004 189.596 288.357 190.317C287.117 190.65 285.9 191.062 284.675 191.419C283.451 191.776 282.25 192.156 281.025 192.227C280.78 192.243 280.243 192.212 280.243 192.212C280.243 192.212 280.646 191.998 280.796 191.95C281.017 191.879 281.246 191.823 281.468 191.752C281.752 191.657 282.036 191.562 282.305 191.435C282.447 191.371 282.724 191.268 282.779 191.102C282.811 191.007 282.708 190.888 282.708 190.888C282.708 190.888 272.421 193.765 273.101 192.576C273.78 191.387 271.481 191.934 271.481 191.934L280.764 190.523C280.764 190.523 279.627 191.173 278.987 191.324C276.522 191.902 273.985 191.752 271.481 191.926C271.402 191.926 271.331 191.934 271.252 191.942C268.787 192.14 266.314 192.251 263.849 192.418C258.689 192.759 253.53 193.155 248.371 193.615C238.115 194.526 227.876 195.66 217.676 197.023C228.105 196.397 238.534 195.81 248.971 195.255C258.263 194.764 267.554 194.312 276.846 193.797C278.023 193.733 280.243 192.973 280.243 192.973L280.196 193.543C280.196 193.543 280.883 193.226 281.238 193.06C281.594 192.893 281.918 193.543 281.918 193.543C281.918 193.543 281.618 193.099 281.815 192.965C282.013 192.83 282.345 193.02 282.321 193.266C284.541 192.965 286.761 192.655 288.981 192.354C294.923 191.815 300.856 191.142 306.766 190.349C311.38 189.731 318.001 189.953 321.675 186.885C321.043 187.408 322.276 188.122 323.089 188.019C344.548 185.229 366.07 182.89 387.624 181.012L387.608 181.02Z" fill="currentColor"/>
<path d="M220.063 200.536C219.241 200.948 210.819 198.546 210.921 197.611C210.51 198.483 212.565 197.413 215.709 195.344C216.128 195.352 218.103 193.996 219.273 192.609C218.482 194.195 219.241 200.948 220.055 200.536H220.063Z" fill="currentColor"/>
<path d="M336.198 213.272C326.251 212.052 316.359 209.943 306.42 208.548C296.796 207.201 287.11 206.392 277.384 205.639C273.283 205.322 269.183 205.005 265.082 204.68C262.949 204.514 260.816 204.133 258.667 204.355C257.663 204.458 256.668 204.641 255.672 204.775C254.677 204.91 253.697 205.061 252.749 204.91C252.559 204.878 252.148 204.752 252.148 204.752C252.148 204.752 252.488 204.617 252.615 204.593C252.796 204.569 252.978 204.553 253.16 204.522C253.389 204.482 253.626 204.434 253.855 204.363C253.974 204.323 254.203 204.276 254.274 204.125C254.313 204.038 254.25 203.903 254.25 203.903C254.25 203.903 245.907 204.862 246.626 203.816C247.337 202.778 245.488 202.889 245.488 202.889L252.828 203.19C252.828 203.19 251.856 203.626 251.335 203.658C249.352 203.777 247.432 203.166 245.488 202.889C245.425 202.881 245.37 202.873 245.306 202.865C243.386 202.611 241.474 202.279 239.554 201.985C235.541 201.383 231.527 200.836 227.506 200.344C219.502 199.37 211.483 198.632 203.439 198.117C211.53 199.401 219.613 200.717 227.695 202.072C234.893 203.277 242.083 204.522 249.288 205.703C250.205 205.853 252.022 205.512 252.022 205.512L251.896 206.067C251.896 206.067 252.472 205.885 252.773 205.782C253.073 205.679 253.215 206.384 253.215 206.384C253.215 206.384 253.057 205.893 253.231 205.798C253.405 205.703 253.626 205.948 253.571 206.186C255.317 206.289 257.071 206.392 258.817 206.503C263.455 207.05 268.108 207.47 272.762 207.764C276.396 207.993 281.437 209.42 284.74 207.066C284.171 207.462 285 208.39 285.64 208.437C302.525 209.594 319.385 211.211 336.198 213.28V213.272Z" fill="currentColor"/>
<path d="M204.728 201.993C204.033 202.246 197.965 198.362 198.186 197.459C197.735 198.236 199.482 197.562 202.215 196.103C202.531 196.191 204.262 195.216 205.384 194.066C204.53 195.477 204.033 202.262 204.728 202.001V201.993Z" fill="currentColor"/>
<path d="M205.045 20.1562C204.713 32.9889 203.496 45.8375 202.998 58.6781C202.516 71.1066 202.572 83.5826 202.682 96.0903C202.73 101.369 202.777 106.64 202.824 111.919C202.848 114.662 202.659 117.428 203.069 120.155C203.259 121.423 203.528 122.683 203.749 123.951C203.97 125.22 204.207 126.448 204.136 127.685C204.12 127.93 204.033 128.469 204.033 128.469C204.033 128.469 203.867 128.049 203.836 127.883C203.788 127.653 203.757 127.423 203.709 127.193C203.646 126.9 203.583 126.607 203.488 126.321C203.441 126.179 203.37 125.885 203.212 125.806C203.125 125.758 202.99 125.854 202.99 125.854C202.99 125.854 204.681 136.435 203.583 135.619C202.485 134.802 202.761 137.164 202.761 137.164L202.414 127.748C202.414 127.748 202.935 128.953 203.014 129.611C203.314 132.131 202.872 134.644 202.769 137.164C202.769 137.244 202.769 137.315 202.761 137.394C202.682 139.875 202.516 142.348 202.398 144.829C202.153 150.013 201.963 155.205 201.837 160.389C201.584 170.717 201.552 181.045 201.758 191.372C202.311 180.91 202.904 170.439 203.528 159.976C204.089 150.655 204.689 141.342 205.218 132.028C205.29 130.847 204.784 128.549 204.784 128.549L205.345 128.667C205.345 128.667 205.108 127.946 204.989 127.574C204.871 127.201 205.542 126.947 205.542 126.947C205.542 126.947 205.068 127.201 204.958 126.979C204.847 126.757 205.076 126.456 205.313 126.511C205.266 124.268 205.211 122.017 205.163 119.774C205.297 113.79 205.297 107.805 205.179 101.813C205.084 97.1445 206.056 90.5657 203.425 86.5629C203.875 87.2525 204.721 86.1032 204.705 85.2788C204.357 63.5687 204.468 41.8585 205.029 20.1562H205.045Z" fill="currentColor"/>
<path d="M205.519 189.369C205.835 190.233 202.508 198.357 201.592 198.151C202.406 198.658 201.576 196.487 199.885 193.118C199.94 192.706 198.819 190.582 197.578 189.258C199.056 190.225 205.835 190.233 205.519 189.369Z" fill="currentColor"/>
<path d="M208.063 358.237C207.565 352.252 207.178 346.26 206.767 340.268L205.716 322.283C205.053 310.29 204.571 298.29 204.01 286.29C203.512 274.289 203.077 262.289 202.461 250.296C202.327 247.3 202.2 244.296 202.074 241.3C201.948 238.304 201.718 234.848 201.726 232.296C201.489 228.927 201.15 224.472 201.426 223.291C200.976 218.9 200.739 214.881 201.047 214.295C200.589 212.313 200.723 212.305 201.189 214.287C201.102 214.025 201.189 216.601 201.371 220.208C201.521 220.271 201.79 223.196 202.074 226.264C202.034 226.993 202.185 229.862 202.343 232.2C202.477 233.849 202.674 236.251 202.785 238.248C202.904 240.246 203.022 242.243 203.141 244.24C203.267 246.238 203.393 248.235 203.528 250.233C204.27 262.225 204.776 274.226 205.321 286.226L208.063 358.237Z" fill="currentColor"/>
<path d="M203.48 214.928C202.879 212.954 200.651 209.166 201.094 210.949C200.651 209.166 198.526 213.018 198.85 215.007C198.526 213.01 202.871 212.954 203.48 214.928Z" fill="currentColor"/>
<path d="M198.281 385.615C198.613 372.782 199.83 359.933 200.327 347.093C200.809 334.664 200.754 322.188 200.643 309.681C200.596 304.402 200.549 299.131 200.501 293.852C200.477 291.109 200.667 288.343 200.256 285.616C200.067 284.348 199.798 283.088 199.577 281.82C199.355 280.551 199.118 279.323 199.19 278.086C199.205 277.841 199.292 277.302 199.292 277.302C199.292 277.302 199.458 277.722 199.49 277.888C199.537 278.118 199.569 278.348 199.616 278.578C199.679 278.871 199.743 279.164 199.837 279.45C199.885 279.592 199.956 279.886 200.114 279.965C200.201 280.012 200.335 279.917 200.335 279.917C200.335 279.917 198.644 269.336 199.743 270.152C200.841 270.969 200.564 268.606 200.564 268.606L200.912 278.023C200.912 278.023 200.39 276.818 200.311 276.16C200.011 273.64 200.454 271.127 200.556 268.606C200.556 268.527 200.556 268.456 200.564 268.377C200.643 265.896 200.809 263.423 200.928 260.942C201.173 255.758 201.362 250.566 201.489 245.382C201.742 235.054 201.773 224.726 201.568 214.398C201.015 224.861 200.422 235.332 199.798 245.795C199.237 255.116 198.637 264.429 198.107 273.743C198.036 274.924 198.542 277.222 198.542 277.222L197.981 277.103C197.981 277.103 198.218 277.825 198.336 278.197C198.455 278.57 197.783 278.823 197.783 278.823C197.783 278.823 198.257 278.57 198.368 278.792C198.478 279.014 198.249 279.315 198.012 279.259C198.06 281.503 198.115 283.754 198.162 285.997C198.028 291.981 198.028 297.966 198.147 303.958C198.241 308.626 197.27 315.205 199.901 319.208C199.45 318.518 198.605 319.668 198.621 320.492C198.968 342.202 198.858 363.912 198.297 385.615H198.281Z" fill="currentColor"/>
<path d="M197.806 216.403C197.49 215.539 200.816 207.414 201.733 207.62C200.919 207.113 201.749 209.285 203.44 212.653C203.384 213.066 204.506 215.19 205.747 216.514C204.269 215.547 197.49 215.539 197.806 216.403Z" fill="currentColor"/>
<path d="M289.363 114.328C286.203 117.11 281.415 121.7 280.917 122.033C278.918 124.101 269.745 133.248 272.724 129.951C267.557 135.349 264.491 138.567 264.396 137.79C260.517 142.165 258.455 144.099 255.737 145.344C256.527 145.748 256.503 145.772 255.705 145.375C256.503 145.772 256.472 145.796 255.658 145.407C255.603 146.382 254.599 146.945 251.336 147.642C252.466 147.698 251.028 147.959 246.303 148.387C249.819 147.88 250.585 147.452 247.299 147.801C249.945 149.006 248.768 150.821 244.036 154.372C246.872 153.928 244.573 156.242 239.2 160.237C241.468 159.001 237.668 161.426 232.532 164.422C233.417 163.281 228.645 165.175 224.987 166.848C226.235 165.738 226.93 164.858 225.453 166.039C227.365 166 227.254 167.648 226.203 169.876C227.238 170.129 225.998 172.238 225.255 173.704C224.244 175.67 220.515 178.943 219.819 179.57C218.571 180.473 218.603 180.441 219.851 179.538C218.611 180.441 217.623 181.519 218.974 180.505C217.623 181.519 217.315 181.321 218.674 180.299C217.323 181.321 218.223 180.204 219.48 179.292C218.223 180.204 218.239 180.188 219.488 179.284C218.231 180.196 218.255 180.172 219.511 179.268C220.096 178.555 223.462 175.274 224.354 173.379C224.86 172.079 225.848 170.209 225.034 169.915C225.753 167.997 225.682 166.491 224.189 166.491C225.263 165.437 224.979 164.811 223.928 165.873C224.979 164.811 225.943 164.557 224.655 165.683C228.289 163.979 232.974 162.116 231.829 163.146C236.925 160.261 240.543 158.081 237.952 159.136C243.38 155.458 245.568 153.357 242.384 153.595C247.378 150.369 248.563 148.609 245.481 147.246C249.187 147.072 249.385 146.62 245.734 146.62C249.385 146.62 249.961 146.652 246.477 146.66C250.949 146.707 252.134 146.541 250.672 146.041C253.983 145.899 254.907 145.415 254.552 144.052C255.721 144.868 255.674 144.908 254.473 144.115C257.617 143.259 259.672 141.325 263.211 136.712C263.701 137.798 266.735 134.58 271.752 129.103C271.27 130.506 275.742 125.877 280.356 121.517C281.099 121.359 285.974 116.872 289.387 114.336L289.363 114.328Z" fill="currentColor"/>
<path d="M216.801 177.777C215.497 178.737 214.162 185.07 215.647 183.801C214.154 185.062 220.807 182.438 222.023 181.582C220.807 182.438 215.489 178.729 216.793 177.77L216.801 177.777Z" fill="currentColor"/>
<path d="M79.3242 245.881C80.2328 244.042 84.0015 243.273 87.8177 242.338C89.4137 240.967 93.3009 239.881 96.2479 238.636C96.0978 238.636 100.459 236.774 104.67 234.911L113.093 231.186C114.499 230.567 115.905 229.957 117.32 229.355C118.734 228.752 120.148 228.15 121.562 227.555C123.111 226.921 131.826 224.012 127.48 225.328C134.528 223.006 138.281 221.761 130.103 224.068C138.834 221.547 143.021 220.303 135.413 222.483C143.574 220.105 143.298 220.144 134.409 222.372C143.306 220.144 144.68 219.788 138.936 221.294C144.815 219.74 144.364 219.835 136.558 221.524C144.862 219.732 145.21 219.645 138.842 220.85C145.344 219.613 145.542 219.566 143.535 220.017C145.644 219.55 145.7 219.558 148.433 220.374C145.747 219.574 145.715 219.574 147.556 220.564C145.755 219.542 145.905 219.502 151.523 217.521C146.197 219.336 146.126 219.352 150.748 217.505C148.52 218.377 147.706 218.662 148.473 218.242C149.239 217.822 152.297 216.958 155.663 214.675C152.4 216.895 149.618 217.608 149.476 217.663C149.334 217.719 151.12 216.839 154.825 215.008C151.325 216.72 150.519 217.085 151.641 216.482C152.763 215.88 157.827 215.341 160 212.123C158.088 215.206 154.533 215.262 154.327 215.087C154.715 215.19 158.594 215.159 160.308 212.075C159.115 214.905 158.325 214.54 158.27 213.13C160.846 213.28 165.365 213.462 164.567 209.983C164.409 214.089 171.488 212.725 169.331 208.318C171.788 210.125 173.882 211.156 174.309 211.346C175.644 211.14 175.881 209.88 174.238 207.185C177.106 209.666 179.041 211.061 178.939 211.592C180.669 211.148 181.111 209.507 179.215 206.527C182.233 209.404 183.6 211.108 183.126 211.964C185.093 211.211 185.907 209.198 184.209 206.242C186.421 209.182 186.271 211.402 184.88 212.487C186.034 211.679 185.844 209.8 183.569 206.757C185.986 209.277 186.46 209.729 185.251 209.547C187.053 207.549 187.669 204.704 186.002 202.128C189.036 205.774 190.506 202.16 189.866 198.743C192.718 200.709 194.44 198.299 194.33 196.373C196.921 197.19 198.572 195.692 198.999 194.566C199.852 195.24 199.829 195.256 198.975 194.574C199.829 195.248 202.175 193.972 201.788 193.227C202.175 193.972 202.302 194.241 201.938 193.528C202.302 194.241 200.002 195.7 199.204 195.01C200.002 195.692 199.995 195.7 199.204 195.01C200.002 195.692 199.987 195.707 199.189 195.01C198.746 196.207 197.079 197.998 194.661 197.039C194.733 199.179 193.058 201.874 190.442 199.552C191.059 203.317 189.692 206.939 186.942 202.849C188.594 205.512 187.93 208.405 186.207 210.411C187.424 210.395 187.148 209.682 184.912 207.074C187.045 210.125 186.903 212.511 185.686 213.661C186.871 212.781 186.942 210.688 184.801 207.565C186.942 210.688 186.745 212.979 185.473 213.97C186.539 212.979 186.484 210.736 184.28 207.589C186.01 210.76 185.244 213.034 183.434 213.843C183.798 213.003 182.462 211.132 179.389 207.993C181.443 211.251 181.143 213.13 179.547 213.629C179.587 213.098 177.635 211.568 174.569 208.762C176.537 211.79 176.537 213.264 175.265 213.518C174.846 213.312 172.642 212.139 169.853 209.959C171.449 212.503 170.382 214.065 168.952 214.39C167.522 214.707 165.641 213.835 165.294 211.631C166.858 215.706 160.174 214.857 156.966 215.056C156.263 216.522 156.555 217.069 158.294 214.834C155.908 217.394 151.293 217.497 150.946 217.735C150.598 217.973 154.098 218.099 156.737 216.276C153.901 218.234 149.626 218.401 148.623 218.836C147.62 219.272 148.236 219.36 150.211 219.336C145.992 219.558 145.937 219.629 148.828 222.086C145.802 219.605 145.787 219.613 148.441 222.395C145.787 219.613 145.763 219.597 147.951 222.269C145.715 219.589 145.668 219.582 143.716 221.975C145.573 219.589 145.384 219.685 139.347 222.728C145.249 219.724 144.941 219.867 137.214 223.339C144.475 220.041 144.894 219.851 139.418 222.475C144.759 219.907 143.472 220.485 135.081 224.171C143.464 220.485 143.724 220.358 135.982 223.814C143.195 220.572 139.205 222.277 130.814 225.835C138.668 222.483 135.073 223.981 128.16 226.858C132.402 225.035 123.83 228.554 122.258 229.188C120.836 229.759 119.413 230.33 117.991 230.908C116.569 231.487 115.147 232.065 113.733 232.636C110.896 233.801 108.052 234.967 105.215 236.116C102.371 237.273 99.3925 238.414 96.6667 239.548C93.6959 240.642 89.7534 241.577 88.0547 242.821C84.2228 243.622 80.3355 244.217 79.3558 245.857L79.3242 245.881Z" fill="currentColor"/>
<path d="M202.476 197.032C202.72 197.73 205.96 192.174 206.426 191.207C205.968 192.166 200.208 191.658 199.426 190.691C200.208 191.666 202.72 197.73 202.476 197.032Z" fill="currentColor"/>
<path d="M306.712 136.824C304.673 138.203 302.532 139.408 300.375 140.613C298.305 141.913 296.132 143.11 294.015 144.362C293.92 144.386 289.235 146.542 287.623 148.056C283.151 150.053 278.213 151.971 281.231 151.749C278.205 151.971 273.725 153.573 274.808 155.38C268.669 156.434 265.501 157.559 268.384 159.01C264.718 157.987 263.81 158.368 265.184 160.873C262.293 159.264 261.55 159.739 261.921 162.712C260.31 160.302 259.883 160.492 260.073 163.393C258.951 160.722 258.413 160.793 257.829 163.409C257.679 160.564 257.552 160.437 257.244 163.108C257.291 160.27 257.181 160.12 256.77 162.656C256.904 159.771 256.802 159.446 256.225 161.602C256.565 158.709 256.572 158.138 255.956 159.557C256.557 157.686 257.418 158.011 257.228 160.009C256.351 159.295 255.04 161.206 252.282 165.517C252.44 163.782 250.236 166.286 246.42 170.154C246.681 168.371 243.378 170.622 239.483 172.889C239.048 171.74 235.264 173.341 232.246 174.268C232.878 173.721 233.059 172.905 232.317 173.523C233.818 173.19 234.845 173.388 234.545 174.799C235.651 174.157 235.793 174.371 234.964 175.41C235.983 174.847 235.88 175.251 234.979 176.218C235.604 175.972 234.964 176.535 234.102 177.272C233.968 177.288 232.704 178.073 231.922 178.477C231.234 178.731 230.041 179.341 229.654 179.404C229.299 179.618 229.204 179.357 229.551 179.151C229.931 179.04 231.108 178.39 231.748 178.112C232.514 177.661 233.739 176.852 233.771 176.852C234.6 176.131 235.09 175.647 234.411 176.036C235.256 175.116 235.169 174.807 234.094 175.275C234.387 174.141 233.36 173.991 232.048 174.252C232.649 173.729 231.132 173.357 230.737 173.769C231.132 173.357 232.822 172.905 232.119 173.507C235.153 172.453 239.001 170.765 239.206 171.882C243.157 169.552 246.365 167.372 245.788 169.084C249.667 165.335 251.816 162.989 251.318 164.55C254.281 160.46 255.617 158.622 256.114 159.089C256.667 157.345 257.481 156.307 257.307 157.639C257.481 156.315 257.521 157.67 257.386 159.549C257.544 158.051 257.552 158.534 257.592 161.158C257.773 159.184 257.924 159.454 258.311 162.03C258.398 159.604 258.761 159.581 259.701 161.966C259.496 159.39 259.867 159.224 261.297 161.364C260.981 158.717 261.732 158.249 264.466 159.597C263.201 157.393 264.078 157.013 267.65 157.766C264.853 156.592 267.981 155.443 274.12 154.215C273.014 152.685 277.502 151.036 280.591 150.664C277.494 151.036 282.511 149.134 287.094 147.168C288.674 145.813 293.485 143.696 293.596 143.673C295.65 142.555 297.973 141.398 300.13 140.233C302.327 139.115 304.563 138.061 306.688 136.832L306.712 136.824Z" fill="currentColor"/>
<path d="M228.912 176.727C228.667 176.806 225.657 181.95 226.526 181.308C225.657 181.95 231.417 181.245 231.678 181.086C231.417 181.237 228.667 176.798 228.912 176.719V176.727Z" fill="currentColor"/>
<path d="M317.757 201.742C317.623 202.511 315.545 202.344 310.417 201.56C312.037 202.249 308.995 201.98 303.077 201.353C305.116 201.877 301.007 201.544 295.737 201.124C296.693 201.409 292.063 201.1 288.405 200.918C287.37 200.989 283.23 200.616 281.073 200.751C278.371 200.505 275.179 199.776 273.749 200.608C270.502 199.713 267.579 198.944 266.441 200.553C263.075 198.944 260.626 198.508 259.156 200.6C258.437 198.54 258.619 198.516 259.362 200.577C257.979 198.674 257.584 199.174 258.003 201.457C257.3 199.927 257.592 201.013 258.311 203.097C257.876 201.575 258.611 203.224 258.975 204.421C258.611 203.224 257.015 202.471 257.347 203.834C255.04 201.766 253.025 200.537 251.026 201.789C249.122 199.499 247.107 199.285 244.698 200.941C243.299 199.435 240.968 200.957 239.127 202.606C237.808 202.725 235.232 204.651 234.616 205.871C233.881 205.792 232.072 207.163 233.265 207.005C232.064 207.163 232.57 205.34 233.494 205.396C232.712 204.35 233.241 202.836 233.684 202.289C233.123 201.377 233.091 200.688 233.281 200.886C232.617 199.966 232.017 199.808 232.064 200.299C230.926 199.76 229.844 200.046 230.271 200.521C228.714 200.307 227.624 200.704 228.485 201.044C225.988 201.258 223.942 202.178 225.016 202.352C222.923 202.59 220.513 203.684 222.907 203.208C220.521 203.692 222.393 202.067 224.487 201.845C222.844 201.678 223.784 200.91 225.933 200.489C224.384 200.268 224.787 199.895 226.51 199.76C224.993 199.554 225.119 199.372 226.652 199.396C225.135 199.158 225.119 199.11 226.565 199.197C224.858 198.968 224.234 199.007 225.554 199.079C223.555 199.031 222.939 199.158 224.4 199.174C221.904 199.277 220.726 199.618 222.109 199.538C220.063 199.736 219.952 199.459 221.983 199.269C220.608 199.316 221.785 198.944 224.266 198.817C222.828 198.777 223.468 198.627 225.459 198.674C224.218 198.595 224.914 198.452 226.834 198.833C225.68 198.777 225.854 199.134 227.26 199.483C225.822 199.499 225.649 199.744 227.102 200.014C225.435 200.172 225.009 200.593 226.526 200.846C224.424 201.29 223.484 202.114 225.127 202.305C223.049 202.527 222.52 202.003 224.59 201.797C223.515 201.567 225.538 200.624 228.043 200.386C227.189 200.014 228.319 199.586 229.883 199.8C229.512 199.277 230.729 198.92 231.985 199.499C231.835 198.936 232.538 198.92 233.241 199.752C233.336 199.269 233.802 199.602 234.221 200.553C234.403 200.474 234.442 201.282 234.829 202.336C234.648 202.915 234.182 204.476 234.75 205.626C234.071 205.507 232.759 205.055 233.628 205.15C234.087 203.85 236.836 201.781 238.243 201.678C240.163 199.879 242.912 198.104 244.421 199.792C247.178 197.898 249.351 198.096 251.326 200.648C253.373 199.126 255.419 200.386 257.837 202.701C257.402 201.084 256.541 201.98 256.873 203.438C256.367 201.631 256.146 200.91 256.423 202.265C255.964 200.141 255.869 199.316 256.47 200.957C256.162 198.524 256.415 197.858 257.402 199.895C257.157 197.414 257.537 197.153 258.738 199.38C257.94 197.057 258.026 197.034 258.832 199.356C258.019 197.034 258.113 197.042 258.935 199.356C260.27 197.026 262.72 197.509 266.259 199.356C267.168 197.541 270.146 198.381 273.599 199.467C274.792 198.476 278.118 199.308 280.947 199.665C282.962 199.475 287.22 200.006 288.303 199.974C291.945 200.244 296.583 200.672 295.658 200.347C300.912 200.902 305.029 201.346 303.022 200.759C308.932 201.583 311.997 201.948 310.386 201.235C315.513 202.178 317.615 202.424 317.749 201.742H317.757Z" fill="currentColor"/>
<path d="M223.547 197.262C221.833 197.301 216.231 198.427 218.246 198.054C216.231 198.427 220.11 201.756 222.346 201.423C220.118 201.756 221.833 197.301 223.547 197.262Z" fill="currentColor"/>
<path d="M149.389 39.5195C151.578 46.2331 153.679 52.9784 155.828 59.7078C155.828 59.7078 157.417 64.7648 159.005 69.8218C160.593 74.8788 162.197 79.9833 162.181 79.9358C162.197 79.9833 164.172 86.3561 165.373 90.0418C167.245 96.0896 169.157 102.328 168.565 100.148C170.129 105.355 171.338 109.287 171.82 110.214C172.499 112.568 173.163 114.661 173.613 116.151C174.23 117.927 175.091 119.861 175.122 120.265C175.486 121.39 175.446 121.303 175.091 120.178C175.699 121.842 176.26 122.865 176.157 121.953C176.718 123.324 176.876 123.451 176.529 122.151C176.955 123.42 177.074 123.198 176.94 121.652C177.192 122.976 177.746 121.398 177.817 119.972C177.738 121.398 178.188 123.372 178.085 121.906C178.504 125.655 180.163 130.157 179.452 130.743C180.906 134.271 182.636 138.226 181.522 139.272C183.821 141.832 185.473 144.947 185.038 146.945C187.306 147.983 188.854 150.464 189.889 153.555C190.008 151.835 190.648 152.691 190.758 154.586C190.648 152.691 189.786 152.604 189.534 154.546C189.384 152.588 188.917 152.549 187.78 154.689C188.183 152.747 187.874 153.04 186.737 155.648C187.748 153.761 187.851 154.57 186.974 157.574C188.127 155.489 188.317 156.306 187.716 159.564C189.328 158.612 190.442 162.163 191.604 167.141C191.485 164.089 192.892 167.403 193.152 169.987C192.892 167.395 191.13 164.605 191.13 167.632C190.608 164.002 190.016 162.734 189.067 165.437C189.336 162.147 189.162 161.957 188.57 165.128C188.912 163.009 188.912 163.009 188.57 165.128C189.091 161.949 189.107 161.926 188.609 165.096C189.115 161.918 189.115 161.902 188.609 165.08C189.107 161.91 189.107 161.933 188.609 165.128C189.107 162.013 189.115 162.187 188.633 165.469C189.194 162.679 189.336 163.495 189.075 167.03C190.039 165.5 191.051 169.408 191.533 173.118C191.746 171.049 192.188 172.317 191.959 174.116C192.188 172.317 191.604 171.239 191.343 173.284C191.43 171.009 191.169 170.399 190.671 172.507C190.924 170.201 190.885 170.177 190.577 172.468C190.885 170.209 190.877 170.383 190.553 172.689C190.893 170.605 190.956 171.001 190.616 173.26C190.972 171.16 190.853 171.207 190.474 173.308C190.821 171.049 190.75 170.644 190.379 172.705C190.735 170.383 190.703 170.145 190.426 172.341C190.79 169.963 190.869 169.899 190.624 172.238C190.964 169.923 191.019 169.971 190.766 172.301C191.296 170.177 191.548 170.795 191.517 173.102C191.73 171.025 191.588 171.215 191.327 173.268C190.837 169.606 189.786 165.746 188.68 167.26C189.004 163.733 188.854 162.9 188.167 165.619C188.736 162.322 188.72 162.084 188.119 165.112C188.736 161.854 188.751 161.672 188.23 164.739C188.854 161.513 188.909 161.434 188.412 164.581C189.004 161.394 189.052 161.379 188.593 164.549C189.376 161.41 189.526 161.64 189.36 164.93C190.308 162.243 190.908 163.455 191.556 167.109C191.446 164.05 191.09 164.565 191.082 167.601C190.521 163.622 189.913 161.672 188.973 163.899C188.87 159.778 188.42 158.153 187.005 160.047C187.764 156.718 187.566 155.862 186.184 157.962C187.25 154.839 187.092 153.888 185.876 155.466C187.242 152.897 187.44 152.398 186.547 154.197C187.89 152.01 188.167 151.875 187.574 153.643C188.838 151.669 189.344 151.716 189.557 153.421C189.771 151.716 189.542 152.485 189.202 154.411C188.341 151.122 186.745 148.601 184.122 147.785C184.793 145.471 183.055 142.237 180.424 139.843C181.807 138.487 179.989 134.469 178.243 131.124C179.199 130.284 177.469 125.813 176.813 122.215C177.145 123.523 178.141 123.919 177.959 122.468C177.959 124.236 177.809 124.743 176.829 123.634C177.113 125.029 176.774 124.87 175.936 123.618C176.379 124.712 176.118 124.402 175.304 123.182C175.723 124.014 175.336 123.412 174.506 122.112C174.988 122.833 174.672 122.262 173.921 120.994C174.53 121.969 174.506 121.929 173.906 120.962C174.506 121.937 174.49 121.882 173.89 120.915C173.977 120.415 173.147 118.481 172.531 116.722C172.081 115.216 171.362 113.163 170.595 110.848C170.311 109.818 169.055 105.902 167.395 100.742C167.158 99.8308 165.633 95.0354 164.243 90.6125C163.619 88.52 162.189 83.891 161.162 80.451C161.177 80.4986 159.66 75.3544 158.159 70.2498L155.157 60.0487C153.213 53.2241 151.238 46.4075 149.342 39.5671L149.389 39.5195Z" fill="currentColor"/>
<path d="M188.246 173.308C188.926 171.096 192.046 175.931 191.525 177.017C192.046 175.923 192.568 169.313 192.623 171.627C192.568 169.313 188.933 171.096 188.246 173.308Z" fill="currentColor"/>
<path d="M289.031 82.2504C285.357 87.0221 281.612 91.7303 277.906 96.4782L272.312 103.564C269.515 107.107 266.687 110.682 266.718 110.65C266.687 110.682 263.155 115.129 261.14 117.744C257.783 121.961 254.306 126.289 255.562 124.839C252.639 128.421 250.458 131.156 250.04 131.98C247.377 135.166 245.686 137.33 244.556 139.146C244.209 139.256 244.248 139.201 244.604 139.082C243.988 139.661 243.687 140.223 243.877 140.77C243.585 140.842 243.6 140.961 243.916 141.183C243.664 141.024 243.877 141.08 244.477 141.333C244.098 141.087 245.449 141.095 246.097 141.381C245.449 141.095 244.391 142.015 244.857 142.435C242.858 143.323 240.977 145.146 239.279 147.397C238.054 147.904 236.023 150.266 234.262 152.842C233.543 153.5 231.67 156.449 230.556 159.183C230.011 160.317 228.66 163.527 228.257 166.238C228.123 165.659 227.759 166.88 227.957 167.435C227.759 166.872 227.301 165.825 227.388 166.349C227.056 165.35 226.835 164.795 226.424 164.874C226.171 164.05 225.744 163.86 225.239 164.375C225.002 164.113 224.433 164.668 223.998 165.405C223.769 165.485 223.279 166.19 222.955 166.903C221.849 168.528 220.261 171.731 219.503 173.53C219.297 173.704 217.915 176.455 218.246 176.098C217.915 176.455 218.744 173.53 218.918 173.332C218.942 172.729 219.274 171.429 219.463 170.589C219.368 170.439 219.368 170.114 219.439 170.018C219.337 170.026 219.329 170.026 219.439 170.018C219.337 170.042 219.368 170.05 219.479 170.034C219.376 170.05 219.392 170.042 219.495 170.034C219.384 170.05 219.368 170.05 219.463 170.05C219.305 170.09 219.202 170.177 219.234 170.217C218.847 170.502 218.483 171.025 218.349 171.263C217.275 172.69 215.955 175.171 215.252 176.003C215.086 176.558 214.58 177.445 214.754 176.795C214.573 177.438 214.896 176.463 215.039 175.908C214.976 176.201 215.126 175.702 215.26 174.988C215.141 175.385 215.126 175.329 215.244 174.885C215.102 175.337 215.015 175.385 215.078 174.957C214.849 175.496 214.699 175.67 214.707 175.258C214.596 175.765 214.494 175.646 214.604 175.147C214.604 175.543 214.746 175.353 214.983 174.814C214.936 175.226 215.031 175.139 215.26 174.703C215.205 175.131 215.292 175.218 215.434 174.83C215.323 175.321 215.331 175.4 215.465 174.98C215.331 175.757 215.181 176.249 215.268 175.979C215.102 176.534 214.912 176.439 215.062 175.884C215.734 175.02 216.974 172.476 218.017 171.009C218.152 170.732 218.499 170.185 218.926 169.86C218.902 169.781 219.029 169.654 219.266 169.598C219.226 169.551 219.353 169.503 219.582 169.535C219.542 169.527 219.629 169.575 219.779 169.63C219.716 169.654 219.763 169.717 219.89 169.773C219.914 170.066 219.882 170.415 219.993 170.605C219.819 171.509 219.495 172.809 219.526 173.451C219.321 173.625 218.776 173.451 218.95 173.252C219.218 172.436 219.953 170.819 220.53 169.828C220.917 168.806 221.747 167.197 222.292 166.468C222.608 165.738 223.113 165.001 223.366 164.858C223.84 164.098 224.496 163.408 224.978 163.527C225.492 163.035 226.053 162.988 226.203 163.574C226.708 163.281 226.977 163.519 227.095 164.24C227.601 164.193 227.838 164.803 228.225 165.881C228.115 165.302 227.293 165.477 227.356 165.992C227.799 163.305 229.142 160.047 229.561 158.724C230.809 156.013 232.768 152.945 233.361 152.105C235.312 149.577 237.406 147.167 238.465 146.485C240.345 144.345 242.226 142.506 244.059 141.436C243.751 141.183 244.043 142.102 244.438 142.546C243.711 142.086 243.292 142.078 243.063 142.062C242.716 141.571 242.621 141.301 242.637 141.27C242.534 140.858 242.573 140.636 242.637 140.533C242.66 140.105 242.81 139.764 243 139.383C243.047 139.201 243.221 138.908 243.506 138.4C243.363 138.654 243.379 138.63 243.521 138.369C243.371 138.63 243.395 138.599 243.545 138.329C244.857 136.649 246.532 134.469 249.052 131.164C249.645 130.474 251.794 127.716 254.63 124.062C255.159 123.467 257.806 120.083 260.256 116.991C261.425 115.557 264.001 112.331 265.936 109.969C265.913 110 268.804 106.481 271.68 103.002L277.424 96.0343C281.296 91.4291 285.151 86.8002 289.054 82.2188L289.031 82.2504Z" fill="currentColor"/>
<path d="M213.474 173.211C213.403 173.465 212.367 178.474 212.454 177.658C212.367 178.474 216.539 176.809 216.8 176.318C216.539 176.802 213.403 173.465 213.474 173.211Z" fill="currentColor"/>
<path d="M216.604 201.527C215.032 203.818 215.356 203.961 217.529 201.678C215.83 203.881 216.138 203.683 218.374 201.305C216.739 203.223 217.205 202.328 219.646 199.791C217.497 201.86 217.75 201.384 219.915 199.363C217.75 201.384 218.011 201.876 220.199 199.807C219.156 203.659 220.965 207.179 225.248 205.57C222.64 208.368 222.672 208.399 225.287 205.593C222.68 208.399 222.719 208.455 225.335 205.641C223.889 207.488 224.9 209.271 226.994 210.484C226.757 210.46 228.677 210.381 231.434 209.311C229.585 211.345 229.591 211.345 231.45 209.311C228.677 212.362 228.724 212.378 231.489 209.327C230.881 211.166 232.327 212.362 234.176 212.703C235.385 212.735 237.85 212.291 240.354 211.372C238.102 213.575 238.869 213.551 241.073 211.467C238.869 213.551 238.735 214.328 241.073 212.188C238.735 215.438 238.671 216.857 242.116 215.699C239.849 218.783 240.797 219.567 244.676 218.664C241.674 220.376 241.595 220.32 244.589 218.593C243.515 221.628 246.754 222.397 251.052 222.992C250.776 225.14 254.355 226.162 257.491 227.414C258.511 229.055 261.758 230.347 263.97 231.822C266.103 233.335 268.237 234.818 270.393 236.292L283.327 245.106L289.79 249.537C291.947 251.011 294.096 252.493 296.221 254.015C293.962 252.699 291.718 251.36 289.474 250.012C287.238 248.665 284.979 247.341 282.758 245.962C278.294 243.235 273.87 240.453 269.493 237.6C269.493 237.6 266.238 235.428 262.975 233.256C259.553 231.1 255.082 229.111 256.456 228.913C252.988 227.7 249.266 226.677 249.985 224.49C245.308 223.951 242.029 223.174 243.53 220.035C240.149 221.874 240.109 221.85 243.491 220.003C240.109 221.85 240.062 221.819 243.444 219.964C239.122 220.962 238.118 220.075 240.607 216.563C236.791 217.808 236.902 215.977 239.414 212.172C236.941 214.598 237.565 215.343 240.125 212.989C237.463 213.956 234.934 214.4 233.638 214.32C231.766 213.924 230.296 212.576 230.921 210.595C228.013 213.829 228.068 213.845 230.976 210.619C227.057 213.488 225.516 212.687 227.444 208.93C223.739 211.546 222.561 210.056 224.505 206.362C221.898 209.271 221.969 209.35 224.584 206.434C221.598 206.893 220.254 206.338 221.337 205.966C218.911 204.048 218.097 202.003 219.638 200.132C217.481 202.241 217.987 202.256 220.191 200.148C217.655 202.732 217.102 203.675 218.674 201.733C216.351 204.175 215.956 204.389 217.576 202.13C215.324 204.444 214.921 204.222 216.446 201.876C214.668 204.095 214.803 203.739 216.612 201.543L216.604 201.527Z" fill="currentColor"/>
<path d="M215.174 204.269C213.688 206.623 212.195 199.87 213.625 198.055C212.195 199.87 217.71 201.947 219.883 199.862C217.71 201.947 213.696 206.623 215.174 204.269Z" fill="currentColor"/>
<path d="M188.136 186.125C187.512 188.78 187.078 188.527 187.259 185.42C186.706 188.051 186.525 187.615 186.785 184.468C186.296 186.767 186.485 185.467 186.706 182.479C186.548 184.912 186.651 184.302 186.762 181.995C186.651 184.302 186.066 184.381 186.224 182.011C185.039 183.073 183.333 184.167 181.8 184.12C180.283 184.04 178.932 182.986 178.158 181.052C177.289 184.429 177.241 184.421 178.11 181.036C177.241 184.421 177.17 184.413 178.039 181.028C176.846 182.614 174.918 183.05 173.449 182.447C172.461 182.098 171.236 180.505 170.462 177.929C169.901 181.734 169.893 181.726 170.446 177.921C169.885 181.726 169.846 181.702 170.399 177.898C168.787 179.055 167.333 178.785 165.903 177.565C164.473 176.344 163.067 174.148 161.55 171.445C162.008 174.687 161.368 174.014 160.878 170.883C161.368 174.014 160.973 174.584 160.412 171.311C160.254 175.25 159.377 176.13 157.22 172.476C157.11 176.249 155.798 175.892 153.104 172.008C154.518 175.607 154.629 175.646 153.222 172.04C152.14 174.759 148.885 172.413 144.855 169.052C143.678 170.55 139.981 168.069 136.488 166.095C134.545 166.182 130.95 164.137 128.105 163.091C125.301 162.14 122.52 161.165 119.731 160.174L102.981 154.198L94.5978 151.225C91.8009 150.235 89.0039 149.252 86.207 148.309C88.9881 149.49 91.7693 150.631 94.5504 151.772C97.3315 152.914 100.113 154.079 102.902 155.189C108.472 157.44 114.05 159.612 119.636 161.72L128.011 164.787C132.325 166.468 137.421 169.163 136.386 167.855C140.123 170.138 143.947 172.745 144.776 170.835C149.09 174.553 152.377 176.931 153.175 173.784C154.826 177.787 154.874 177.81 153.23 173.8C154.882 177.81 154.937 177.826 153.294 173.815C156.296 178.135 157.726 178.484 157.939 174.259C160.349 178.294 161.455 177.113 161.842 172.706C162.332 176.265 161.321 176.17 160.705 172.571C162.324 175.44 163.81 177.715 165.319 178.952C166.828 180.188 168.361 180.386 170.067 179.102C169.506 183.176 169.451 183.145 170.004 179.071C170.573 183.826 171.979 184.548 174.104 181.124C174.342 185.451 176.222 185.554 178.284 182.146C177.368 185.673 177.241 185.657 178.166 182.122C179.28 184.468 180.915 185.404 181.215 184.651C183.704 185.206 185.908 184.476 186.493 182.685C186.296 185.19 185.814 184.659 186.019 182.217C185.79 185.269 185.656 186.704 186.264 184.461C185.987 187.702 186.256 188.249 186.936 185.642C186.778 188.852 187.362 189.137 188.065 186.474C187.686 189.296 187.797 188.939 188.144 186.133L188.136 186.125Z" fill="currentColor"/>
<path d="M187.544 188.978C186.873 191.792 192.949 189.058 192.949 186.656C192.949 189.05 186.288 184.738 186.462 182.32C186.296 184.746 186.881 191.792 187.552 188.978H187.544Z" fill="currentColor"/>
<path d="M211.057 199.949C210.432 201.772 210.875 202.605 212.321 201.305C211.546 203.223 212.044 203.873 213.822 202.208C212.455 203.968 212.526 203.992 213.909 202.224C212.526 203.992 212.574 204.087 213.956 202.311C212.811 204.539 213.229 205.577 215.165 203.889C213.798 205.949 214.067 206.108 215.987 204.063C214.486 206.013 214.746 205.799 216.808 203.643C214.936 205.648 215.276 205.331 217.219 203.334C215.276 205.331 215.339 205.894 217.282 203.857C215.378 206.227 215.457 206.98 217.488 205.149C215.6 207.59 215.766 208.264 217.938 206.219C215.995 208.526 216.105 208.613 218.27 206.377C216.287 208.629 216.453 208.549 218.728 206.243C216.816 208.367 217.156 207.939 219.708 205.498C217.393 207.725 218.049 207.004 220.451 204.816C218.049 207.004 217.97 208.097 220.38 205.831C217.946 208.446 217.907 209.247 220.356 207.226C217.954 209.905 218.12 210.475 220.696 208.074C218.349 210.523 218.823 210.293 221.699 207.733C219.376 209.96 219.842 209.477 222.829 206.909C220.127 209.247 221.265 208.208 224.006 205.965C221.265 208.208 220.798 209.794 223.587 207.432C220.688 210.198 220.443 211.07 223.192 208.993C220.309 211.815 220.23 212.639 223.169 210.325C220.364 212.901 220.38 212.933 223.382 210.444C220.546 212.956 220.68 212.925 223.651 210.428C220.735 212.925 221.043 212.829 223.982 210.341C221.383 212.719 222.015 212.314 225.389 209.683C222.371 212.124 223.903 211.205 226.906 208.858C223.903 211.197 223.074 212.885 226.171 210.444C222.892 213.289 222.497 214.114 225.539 212.013C222.339 214.684 222.252 215.041 225.428 212.711C222.268 215.342 222.292 215.39 225.515 212.94C222.331 215.429 222.442 215.445 225.697 212.996C222.568 215.453 222.695 215.469 226.029 212.996C222.971 215.445 223.335 215.35 226.803 212.869C223.935 215.215 224.749 214.867 228.431 212.354C225.168 214.724 227.277 213.876 230.398 211.656C227.277 213.884 225.823 215.667 229.158 213.353C225.563 216.032 224.97 216.721 228.209 214.756C224.678 217.252 224.472 217.577 227.878 215.445C224.378 217.823 224.338 217.95 227.799 215.746C224.322 218.077 224.306 218.164 227.806 215.905C224.33 218.188 224.37 218.235 228.012 216.032C224.646 218.322 224.978 218.33 228.699 216.119C225.563 218.346 226.408 218.18 230.351 215.976C226.843 218.116 228.889 217.736 232.263 215.715C228.889 217.736 227.356 219.139 230.927 217.118C227.072 219.432 226.479 219.939 229.971 218.275C226.218 220.367 226.068 220.597 229.766 218.766C226.068 220.764 226.045 220.74 229.813 218.917C226.226 220.922 226.898 221.017 230.991 219.289C227.648 221.128 228.47 221.065 232.555 219.416C228.889 221.089 230.698 221.025 234.238 219.496C230.698 221.025 229.268 222.119 232.997 220.653C229.039 222.333 228.565 222.658 232.255 221.493C228.304 223.102 228.209 223.268 232.128 222.064C228.312 223.467 228.66 223.641 232.792 222.626C229.173 223.91 229.734 223.982 233.89 223.102C230.042 224.093 230.327 224.148 234.167 223.205C230.327 224.156 230.453 224.362 234.301 223.475C231.33 226.13 233.471 227.834 238.172 229.887C235.012 229.982 235.786 230.473 239.294 231.377C236.11 230.886 237.69 232.225 240.527 232.812C238.409 233.081 240.258 234.191 243.039 235.649C242.613 236.807 246.152 239.208 248.294 241.126C249.708 242.735 251.92 244.662 253.761 246.405C257.443 249.893 261.227 253.277 265.028 256.654C268.788 260.07 272.597 263.447 276.247 266.982C272.36 263.708 268.464 260.451 264.538 257.225C260.643 253.959 256.763 250.67 252.971 247.277C251.075 245.581 248.744 243.615 247.385 242.062C245.149 240.104 241.483 237.575 242.036 236.585C239.097 234.991 237.201 233.834 239.468 233.739C236.474 232.978 234.862 231.615 238.204 232.289C234.506 231.171 233.716 230.664 237.019 230.751C234.57 229.633 232.792 228.635 232.01 227.588C231.228 226.542 231.441 225.448 232.989 224.124C229.039 224.957 229.442 225.226 233.4 224.489C229.11 225.091 228.462 225.012 232.081 223.903C227.806 224.64 227.174 224.402 230.833 222.69C226.811 223.681 226.795 223.3 230.698 221.62C226.89 222.793 227.135 222.507 231.054 220.764C227.475 221.976 228.083 221.556 232.065 219.622C228.36 221.303 228.739 222.325 232.508 220.851C228.296 222.301 227.419 222.357 230.777 220.692C226.748 222.246 226.313 222.214 229.869 220.486C225.855 222.072 225.397 221.945 228.881 219.955C225.089 221.659 224.986 221.58 228.644 219.694C224.891 221.43 224.82 221.303 228.462 219.345C224.725 221.041 224.725 220.74 228.407 218.616C224.804 220.264 225.081 219.876 228.818 217.577C225.46 219.258 226.139 218.663 229.979 216.19C226.448 218.346 226.953 219.361 230.556 217.332C226.487 219.416 225.563 219.583 228.676 217.474C224.828 219.567 224.346 219.543 227.609 217.316C223.919 219.4 223.666 219.313 227.001 216.983C223.437 219.123 223.335 219.004 226.732 216.682C223.224 218.822 223.153 218.671 226.558 216.309C223.074 218.378 223.113 218.077 226.511 215.588C223.153 217.775 223.232 217.506 226.661 215.033C223.374 217.149 223.627 216.729 227.103 214.129C223.99 216.111 224.599 215.358 228.162 212.6C224.883 214.985 225.539 215.929 228.889 213.59C225.089 216.079 224.219 216.428 227.103 214.137C223.516 216.579 223.074 216.69 226.116 214.288C222.568 216.713 222.063 216.682 224.899 214.058C221.573 216.42 221.344 216.087 224.362 213.456C221.193 215.738 221.178 215.413 224.219 212.766C221.178 214.962 221.304 214.439 224.409 211.704C221.525 213.741 221.936 212.845 225.16 209.968C222.142 212.425 222.845 213.186 225.942 210.729C222.45 213.384 221.739 213.796 224.314 211.434C221.296 213.939 220.869 214.05 223.84 211.545C220.735 214.058 220.538 214.09 223.287 211.561C220.316 214.05 220.198 214.034 222.971 211.506C220.04 213.979 219.913 213.892 222.647 211.347C219.771 213.796 219.676 213.654 222.379 211.086C219.566 213.519 219.518 213.361 222.213 210.792C219.368 213.004 219.368 212.441 222.078 209.738C219.4 211.981 219.471 211.498 222.213 208.835C219.605 210.856 219.85 209.944 222.679 207.178C219.977 209.54 220.648 210.087 223.437 207.701C220.34 210.317 219.827 210.816 222.173 208.573C219.321 211.109 219.036 211.292 221.423 208.914C218.626 211.411 218.278 211.474 220.419 208.954C217.701 211.284 217.441 210.753 219.676 208.169C217.298 210.333 217.251 209.857 219.518 207.329C217.211 209.271 217.251 208.407 219.59 205.791C217.29 208.034 217.867 208.407 220.261 206.124C217.599 208.636 217.203 209.104 219.076 206.972C216.69 209.35 216.429 209.461 218.246 207.17C215.955 209.437 215.639 209.128 217.409 206.742C215.244 208.629 215.094 207.788 216.856 205.331C214.96 207.107 214.881 206.314 216.698 203.952C214.857 205.973 215.252 206.219 217.172 204.166C215.015 206.377 214.683 206.631 216.089 204.642C214.075 206.734 213.648 206.465 214.896 204.34C212.937 205.926 212.542 204.768 213.609 202.525C212.305 204.285 212.416 204.412 213.743 202.636C211.918 204.277 211.396 203.516 212.115 201.566C210.725 202.834 210.29 201.963 210.891 200.132C209.998 201.59 210.132 201.447 211.072 199.981L211.057 199.949Z" fill="currentColor"/>
<path d="M209.611 202.349C209.144 203.792 207.833 198.513 208.41 197.324C207.833 198.513 211.949 200.305 213.348 198.791C211.941 200.305 209.144 203.792 209.611 202.349Z" fill="currentColor"/>
<path d="M305.726 152.271C266.727 146.247 316.937 100.94 328.962 86.9185C311.28 96.6282 299.879 116.119 299.168 107.63C296.711 115.707 278.167 148.823 273.672 146.524C274.335 147.42 274.201 147.713 273.632 147.689C270.827 147.293 268.591 146.619 265.929 146.54L266.529 146.968C266.229 146.754 265.818 146.691 265.36 146.707C265.044 146.564 264.839 146.31 264.736 145.985C267.272 142.062 270.432 138.852 270.756 134.548C270.796 134.579 270.82 134.611 270.851 134.635C271.072 133.652 271.143 132.701 270.219 131.448C270.883 137.869 265.147 142.173 259.324 143.877C260.461 143.742 261.631 143.592 262.658 143.061C261.267 143.806 259.64 143.972 258.044 144.21C257.475 144.337 256.906 144.44 256.345 144.519C255.997 144.606 255.65 144.701 255.318 144.828C254.401 144.828 253.532 144.662 252.695 143.512L252.869 144.543C250.965 142.656 253.453 137.171 254.125 135.221C255.721 130.648 257.672 126.209 259.355 121.667C259.995 119.939 255.966 119.448 256.179 117.601C256.203 117.363 256.227 117.126 256.148 116.904C255.958 116.365 273.048 92.562 272.574 92.3797C272.107 92.1974 271.649 92.0468 271.309 91.8011C271.12 91.2145 279.432 78.1203 279.258 77.0898C277.922 77.6764 268.023 91.9596 267.233 93.101C265.802 95.1618 251.107 119.472 249.906 121.675C247.212 126.613 244.786 131.71 242.503 136.854C242.353 137.195 242.195 137.544 242.045 137.885C241.973 138.051 241.894 138.233 241.926 138.416C241.95 138.574 242.052 138.701 242.139 138.836C243.751 141.388 240.046 142.68 238.11 142.26C238.007 142.236 237.897 142.204 237.841 142.125C237.77 142.03 237.786 141.903 237.794 141.792C238.418 136.799 240.725 132.027 242.732 127.454C243.83 124.941 244.913 122.42 246.137 119.963C247.259 117.712 262.429 93.4339 262.816 90.9054C262.84 90.7231 262.863 90.5408 262.8 90.3664C262.492 89.5896 261.607 90.5963 261.378 90.8975C260.857 91.595 260.533 92.4114 260.035 93.1248C257.001 97.4763 240.709 124.053 237.897 128.555C236.68 130.505 235.574 130.711 233.448 131.171C232.066 131.472 230.651 131.686 229.237 131.662C227.965 131.639 226.669 131.433 225.516 130.846L204.547 190.317C206.427 191.379 208.363 192.378 210.338 193.361L228.376 191.363C228.463 190.959 228.692 190.389 228.945 189.834C229.458 188.724 230.098 187.662 230.809 186.655C233.306 183.437 236.372 180.845 239.658 178.523C242.108 176.827 244.715 175.257 247.346 173.656C250.159 171.365 253.066 168.916 256.084 166.483C256.716 166.015 257.356 165.555 258.028 165.112C261.797 162.662 266.869 164.446 269.247 159.777C270.772 156.321 266.3 154.974 268.007 152.548C269.105 149.711 271.926 150.797 274.762 151.898C275.702 152.572 276.658 153.285 277.788 153.19C278.539 153.071 279.353 153.016 280.293 153.032C284.069 153.111 289.987 154.411 302.7 157.803C274.533 144.971 284.694 151.906 279.139 151.439C272.7 146.643 280.356 148.942 305.726 152.255V152.271ZM207.375 189.588C204.586 187.606 216.343 175.218 214.96 171.896L217.615 158.572C224.457 149.861 216.454 152.089 222.577 142.87C222.988 142.252 223.39 141.634 223.786 141.016C224.757 138.249 227.238 137.29 229.3 136.933C233.591 137.258 233.701 140.96 235.795 143.924C236.008 144.384 235.985 144.828 235.858 145.248C235.487 146.524 234.183 147.642 235.542 148.609C238.276 146.009 240.401 142.989 244.699 143.306C237.494 144.551 235.471 151.28 237.565 157.296C234.902 157.225 233.519 155.338 232.176 153.698C231.734 153.222 231.355 153.571 230.983 153.935C229.506 155.41 228.194 156.995 227.057 158.612C219.211 168.472 216.619 181.146 207.415 189.62C207.399 189.612 207.391 189.604 207.375 189.596V189.588ZM266.838 158.081C269.358 163.495 260.77 162.853 256.874 162.773C256.179 163.059 255.563 163.439 254.955 163.82C252.047 165.92 249.179 167.997 246.524 170.192C243.34 172.57 240.18 174.956 237.083 177.484C233.978 180.005 230.92 182.66 227.981 185.561C227.27 186.568 226.409 187.369 225.445 188.042C224.481 188.716 223.422 189.263 222.442 188.993C221.218 190.262 220.072 190.721 218.492 189.715C217.868 191.538 216.77 191.728 215.11 191.134C214.534 191.807 213.388 191.688 212.211 191.403C211.041 191.11 209.84 190.642 208.6 189.968C209.137 190.262 212.329 187.9 212.89 187.543C221.55 182.129 226.085 173.791 232.326 166.261C233.369 165.008 234.452 163.772 235.613 162.583C236 162.187 236.514 161.886 237.47 161.886C240.093 162.702 243.601 161.561 245.481 160.173C249.669 156.789 246.722 151.986 243.53 148.815C244.13 148.181 244.739 147.777 245.347 147.571C245.979 147.38 246.603 147.38 247.251 147.539C250.735 147.579 252.047 152.136 255.073 153.071C255.444 153.381 255.776 153.713 256.092 154.054C257.341 155.41 258.241 156.932 259.569 158.224C259.11 157.708 258.881 157.098 259.711 156.654C261.165 155.869 261.947 157.328 262.547 157.756C262.373 156.725 261.165 155.869 260.564 155.441C263.401 156.543 260.635 152.77 262.99 151.415C263.511 150.916 264.088 150.487 264.681 150.139C262.871 153.452 265.889 155.592 266.845 158.081H266.838ZM271.949 150.82C272.953 150.646 273.83 151.248 274.73 151.89C274.091 151.486 272.534 151.233 271.949 150.82Z" fill="currentColor"/>
<path d="M216.697 84.2395C191.999 115.112 177.991 48.8326 171.899 31.3789C171.441 51.5989 182.565 71.2482 174.886 67.618C180.63 73.7847 199.947 106.465 195.712 109.223C196.818 109.088 197.008 109.358 196.7 109.841C194.954 112.085 193.247 113.686 191.857 115.961L192.528 115.651C192.196 115.81 191.936 116.127 191.714 116.539C191.438 116.745 191.114 116.793 190.782 116.721C188.665 112.552 187.48 108.209 183.916 105.775C183.964 105.751 184.003 105.751 184.043 105.736C183.308 105.054 182.518 104.515 180.977 104.689C186.848 107.321 187.701 114.462 186.255 120.376C186.705 119.313 187.164 118.227 187.219 117.07C187.164 118.648 186.5 120.146 185.899 121.652C185.726 122.214 185.528 122.761 185.315 123.284C185.212 123.633 185.125 123.982 185.062 124.331C184.596 125.123 184.027 125.797 182.613 125.956L183.592 126.32C181.009 127.026 177.517 122.127 176.173 120.566C173.021 116.896 170.161 112.98 167.087 109.247C165.91 107.828 163.477 111.086 161.991 109.976C161.802 109.834 161.604 109.699 161.367 109.651C160.806 109.548 148.805 82.7969 148.41 83.1139C148.023 83.4231 147.659 83.748 147.28 83.9224C146.679 83.7956 139.529 70.0276 138.549 69.663C138.391 71.1135 145.771 86.8552 146.363 88.1154C147.43 90.3903 161.067 115.311 162.363 117.459C165.278 122.27 168.462 126.931 171.765 131.48C171.986 131.781 172.207 132.091 172.428 132.392C172.539 132.542 172.658 132.701 172.823 132.764C172.974 132.82 173.139 132.796 173.298 132.796C176.308 132.669 175.565 136.537 174.238 138.012C174.167 138.091 174.088 138.17 173.985 138.178C173.874 138.194 173.764 138.123 173.677 138.051C169.679 135.015 166.716 130.624 163.769 126.598C162.149 124.386 160.514 122.183 159.005 119.892C157.622 117.792 144.254 92.4749 142.263 90.8738C142.121 90.7628 141.97 90.6439 141.789 90.6202C140.967 90.5013 141.386 91.7695 141.536 92.1182C141.876 92.9188 142.421 93.6084 142.784 94.401C145.028 99.2202 159.826 126.653 162.307 131.346C163.382 133.383 163.003 134.445 162.339 136.513C161.904 137.861 161.391 139.201 160.656 140.421C160 141.515 159.171 142.537 158.096 143.243L198.952 191.197C200.808 190.095 202.641 188.906 204.474 187.686L211.767 171.017C211.459 170.731 211.08 170.256 210.732 169.756C210.029 168.75 209.436 167.664 208.923 166.546C207.39 162.765 206.687 158.81 206.323 154.799C206.086 151.827 206.031 148.768 205.968 145.692C205.399 142.109 204.735 138.352 204.143 134.508C204.056 133.723 203.977 132.939 203.937 132.13C203.708 127.628 207.785 124.109 204.948 119.718C202.728 116.666 199.323 119.876 198.091 117.181C196.186 114.811 198.541 112.901 200.903 110.991C201.954 110.515 203.044 110.032 203.534 109.009C203.803 108.296 204.158 107.567 204.648 106.75C206.6 103.508 210.685 99.0141 219.976 89.669C194.82 107.725 205.881 102.359 202.697 106.956C195.341 110.151 201.148 104.65 216.689 84.2633L216.697 84.2395ZM199.742 188.344C196.637 189.77 191.817 173.371 188.262 172.903L178.085 163.931C173.985 153.626 171.915 161.695 167.008 151.764C166.684 151.098 166.353 150.44 166.013 149.782C164.109 147.555 164.528 144.915 165.246 142.95C167.672 139.383 170.919 141.142 174.53 140.81C175.036 140.857 175.407 141.095 175.707 141.42C176.624 142.387 176.94 144.067 178.449 143.37C177.572 139.7 176.023 136.331 178.449 132.764C175.921 139.644 180.716 144.765 186.958 145.962C185.568 148.237 183.245 148.498 181.159 148.847C180.527 148.997 180.637 149.497 180.772 149.996C181.309 152.017 182.02 153.951 182.842 155.743C187.432 167.49 197.071 176.082 199.789 188.312C199.773 188.312 199.766 188.328 199.75 188.328L199.742 188.344ZM202.27 120.93C208.204 121.446 203.353 128.587 201.338 131.932C201.235 132.677 201.259 133.406 201.275 134.128C201.63 137.702 201.994 141.238 202.555 144.638C203.013 148.593 203.503 152.533 204.127 156.488C204.751 160.443 205.517 164.43 206.544 168.441C207.058 169.558 207.319 170.708 207.414 171.881C207.508 173.054 207.453 174.243 206.734 174.964C207.216 176.66 207.042 177.881 205.383 178.761C206.639 180.211 206.26 181.258 204.917 182.407C205.209 183.247 204.538 184.182 203.7 185.054C202.863 185.926 201.859 186.735 200.658 187.472C201.18 187.155 200.737 183.199 200.706 182.534C200.358 172.309 195.436 164.192 192.054 155.006C191.493 153.476 190.972 151.914 190.521 150.313C190.371 149.782 190.371 149.188 190.845 148.355C192.86 146.485 193.634 142.862 193.374 140.54C192.552 135.214 186.927 135.364 182.597 136.553C182.344 135.713 182.305 134.992 182.431 134.35C182.581 133.708 182.897 133.161 183.355 132.677C185.133 129.665 189.723 130.807 192.046 128.651C192.505 128.484 192.955 128.357 193.405 128.254C195.199 127.85 196.969 127.826 198.738 127.319C198.059 127.462 197.427 127.351 197.458 126.415C197.514 124.759 199.157 124.814 199.829 124.505C198.849 124.141 197.506 124.767 196.834 125.076C199.205 123.166 194.567 123.681 194.567 120.954C194.401 120.249 194.314 119.535 194.306 118.846C196.265 122.072 199.615 120.526 202.246 120.938L202.27 120.93ZM198.557 112.861C198.904 111.902 199.868 111.443 200.872 110.983C200.2 111.332 199.205 112.56 198.557 112.861Z" fill="currentColor"/>
<path d="M113.449 127.564C127.749 164.461 63.5308 143.488 45.4141 140.056C62.638 150.566 85.1635 150.717 78.187 155.584C86.3881 153.682 124.249 153.23 124.518 158.287C124.96 157.256 125.284 157.225 125.545 157.74C126.604 160.379 127.141 162.662 128.405 165.008L128.476 164.271C128.445 164.644 128.595 165.024 128.832 165.42C128.871 165.761 128.753 166.07 128.516 166.324C123.854 166.078 119.509 164.937 115.629 166.815C115.629 166.768 115.645 166.728 115.661 166.689C114.705 166.99 113.844 167.402 113.22 168.829C118.426 165.04 125.016 167.87 129.401 172.086C128.713 171.167 127.994 170.224 127.03 169.598C128.366 170.438 129.322 171.761 130.325 173.038C130.72 173.474 131.099 173.909 131.439 174.361C131.684 174.623 131.945 174.876 132.221 175.106C132.672 175.907 132.972 176.739 132.403 178.047L133.209 177.373C132.529 179.973 126.548 180.552 124.534 180.94C119.785 181.844 114.981 182.367 110.217 183.175C108.4 183.484 109.996 187.234 108.297 187.963C108.084 188.058 107.863 188.161 107.705 188.343C107.333 188.779 78.2423 185.831 78.3213 186.33C78.4003 186.821 78.4951 187.297 78.4556 187.717C78.0448 188.177 62.5827 187.503 61.7847 188.169C62.9619 189.033 80.2333 190.491 81.6239 190.61C84.1205 190.816 112.453 191.435 114.95 191.379C120.559 191.252 126.177 190.808 131.755 190.222C132.126 190.182 132.506 190.143 132.877 190.103C133.059 190.087 133.256 190.063 133.398 189.944C133.525 189.841 133.588 189.691 133.659 189.548C135.058 186.869 138.02 189.445 138.629 191.339C138.66 191.435 138.692 191.546 138.645 191.641C138.597 191.744 138.487 191.799 138.376 191.847C133.754 193.797 128.484 194.185 123.53 194.732C120.812 195.033 118.094 195.35 115.361 195.517C112.856 195.667 84.3181 194.629 81.9399 195.548C81.774 195.612 81.6002 195.691 81.4895 195.834C80.976 196.484 82.2796 196.761 82.6589 196.801C83.5201 196.904 84.3892 196.777 85.2504 196.856C90.5282 197.316 121.61 198.18 126.904 198.37C129.195 198.457 129.93 199.313 131.384 200.922C132.332 201.977 133.232 203.094 133.92 204.339C134.536 205.456 135.002 206.685 135.073 207.977L196.898 196.46C196.874 194.296 196.771 192.108 196.629 189.905L185.884 175.233C185.489 175.36 184.881 175.447 184.272 175.503C183.056 175.614 181.823 175.582 180.598 175.471C176.569 174.916 172.8 173.545 169.158 171.849C166.472 170.572 163.809 169.09 161.115 167.608C157.733 166.308 154.162 165.008 150.551 163.605C149.832 163.288 149.113 162.963 148.394 162.599C144.396 160.546 143.393 155.251 138.178 155.512C134.433 155.909 135.5 160.474 132.561 160.205C129.559 160.673 129.092 157.668 128.626 154.664C128.737 153.515 128.871 152.326 128.231 151.391C127.749 150.796 127.299 150.123 126.841 149.29C125.016 145.969 123.183 140.183 119.754 127.438C122.764 158.326 123.665 146.033 126.043 151.09C125.126 159.079 123.277 151.28 113.457 127.588L113.449 127.564ZM194.836 194.351C194.512 197.76 177.944 193.749 175.771 196.61L162.94 200.97C151.997 199.377 157.923 205.218 146.901 204.513C146.166 204.465 145.431 204.426 144.697 204.386C141.821 204.925 139.751 203.245 138.415 201.636C136.543 197.744 139.688 195.802 141.205 192.497C141.497 192.084 141.884 191.878 142.319 191.775C143.606 191.466 145.226 192.029 145.376 190.372C141.765 189.294 138.092 188.962 136.219 185.07C140.896 190.705 147.715 189.104 151.863 184.277C153.135 186.623 152.195 188.771 151.452 190.761C151.262 191.379 151.752 191.538 152.25 191.672C154.257 192.211 156.287 192.568 158.247 192.75C170.683 194.637 182.913 190.555 194.836 194.312C194.836 194.328 194.836 194.344 194.836 194.359V194.351ZM137.902 158.445C141.315 153.555 145.052 161.33 146.933 164.755C147.525 165.222 148.165 165.563 148.797 165.904C152.06 167.378 155.292 168.837 158.507 170.041C162.15 171.627 165.792 173.164 169.521 174.599C173.251 176.034 177.067 177.357 181.049 178.467C182.273 178.578 183.395 178.927 184.454 179.426C185.513 179.926 186.516 180.575 186.777 181.558C188.483 181.986 189.455 182.755 189.376 184.634C191.257 184.269 191.976 185.125 192.292 186.861C193.161 187.028 193.635 188.082 193.975 189.247C194.306 190.412 194.504 191.688 194.543 193.099C194.528 192.489 190.893 190.896 190.301 190.586C181.302 185.775 171.828 185.997 162.213 184.34C160.609 184.063 159.005 183.738 157.393 183.326C156.856 183.191 156.343 182.89 155.869 182.058C155.26 179.371 152.526 176.89 150.385 175.947C145.376 173.997 142.698 178.959 141.552 183.318C140.707 183.12 140.059 182.787 139.569 182.367C139.087 181.915 138.771 181.368 138.589 180.734C136.883 177.69 140.154 174.266 139.458 171.167C139.545 170.691 139.656 170.232 139.798 169.788C140.343 168.028 141.212 166.483 141.655 164.683C141.434 165.341 141.031 165.84 140.233 165.341C138.826 164.469 139.695 163.058 139.767 162.321C138.961 162.995 138.826 164.469 138.763 165.206C138.297 162.186 136.424 166.483 134.07 165.111C133.375 164.905 132.719 164.62 132.118 164.287C135.887 164.2 136.219 160.514 137.894 158.437L137.902 158.445ZM129.077 157.637C128.429 156.852 128.508 155.79 128.61 154.688C128.579 155.449 129.14 156.923 129.077 157.637Z" fill="currentColor"/>
<path d="M99.2346 238.93C138.233 244.954 88.0232 290.261 75.998 304.282C93.6802 294.573 105.081 275.082 105.792 283.571C108.249 275.494 126.793 242.378 131.288 244.676C130.625 243.781 130.759 243.487 131.328 243.511C134.133 243.908 136.369 244.581 139.031 244.661L138.431 244.233C138.731 244.447 139.142 244.51 139.6 244.494C139.916 244.637 140.122 244.89 140.224 245.215C137.688 249.139 134.528 252.349 134.204 256.653C134.164 256.621 134.141 256.59 134.109 256.566C133.888 257.549 133.817 258.5 134.741 259.752C134.078 253.332 139.814 249.028 145.637 247.324C144.499 247.459 143.329 247.609 142.302 248.14C143.693 247.395 145.32 247.229 146.916 246.991C147.485 246.864 148.054 246.761 148.615 246.682C148.963 246.595 149.31 246.499 149.642 246.373C150.559 246.373 151.428 246.539 152.265 247.688L152.092 246.658C153.996 248.544 151.507 254.029 150.835 255.979C149.239 260.553 147.288 264.992 145.605 269.533C144.965 271.261 148.994 271.753 148.781 273.6C148.757 273.837 148.734 274.075 148.813 274.297C149.002 274.836 131.913 298.639 132.387 298.821C132.853 299.003 133.311 299.154 133.651 299.4C133.84 299.986 125.529 313.08 125.703 314.111C127.038 313.524 136.938 299.241 137.728 298.1C139.158 296.039 153.853 271.729 155.054 269.525C157.749 264.587 160.174 259.491 162.458 254.347C162.608 254.006 162.766 253.657 162.916 253.316C162.987 253.15 163.066 252.967 163.034 252.785C163.011 252.627 162.908 252.5 162.821 252.365C161.209 249.813 164.915 248.521 166.85 248.941C166.953 248.965 167.064 248.996 167.119 249.076C167.19 249.171 167.174 249.297 167.166 249.408C166.542 254.402 164.235 259.174 162.228 263.747C161.13 266.26 160.048 268.78 158.823 271.237C157.701 273.489 142.531 297.767 142.144 300.295C142.121 300.478 142.097 300.66 142.16 300.834C142.468 301.611 143.353 300.604 143.582 300.303C144.104 299.606 144.428 298.789 144.925 298.076C147.959 293.724 164.251 267.147 167.064 262.645C168.28 260.695 169.387 260.489 171.512 260.03C172.895 259.728 174.309 259.514 175.723 259.538C176.995 259.562 178.291 259.768 179.444 260.355L200.413 200.884C198.533 199.821 196.597 198.823 194.622 197.84L176.584 199.837C176.497 200.242 176.268 200.812 176.015 201.367C175.502 202.477 174.862 203.539 174.151 204.545C171.654 207.764 168.589 210.355 165.302 212.678C162.853 214.374 160.245 215.944 157.614 217.545C154.802 219.835 151.894 222.285 148.876 224.718C148.244 225.186 147.604 225.645 146.932 226.089C143.164 228.538 138.091 226.755 135.713 231.424C134.188 234.879 138.66 236.227 136.953 238.652C135.855 241.49 133.035 240.404 130.198 239.302C129.258 238.629 128.302 237.915 127.172 238.01C126.422 238.129 125.608 238.185 124.668 238.169C120.891 238.09 114.973 236.79 102.261 233.397C130.427 246.23 120.267 239.294 125.821 239.762C132.26 244.558 124.604 242.259 99.2346 238.946V238.93ZM197.585 201.613C200.374 203.594 188.617 215.983 190 219.304L187.345 232.628C180.503 241.339 188.507 239.112 182.384 248.33C181.973 248.949 181.57 249.567 181.175 250.185C180.203 252.951 177.722 253.911 175.66 254.267C171.37 253.942 171.259 250.241 169.165 247.276C168.952 246.817 168.976 246.373 169.102 245.953C169.474 244.676 170.777 243.559 169.418 242.592C166.684 245.192 164.559 248.212 160.261 247.894C167.467 246.65 169.489 239.921 167.396 233.905C170.058 233.976 171.441 235.862 172.784 237.503C173.226 237.979 173.606 237.63 173.977 237.265C175.454 235.791 176.766 234.206 177.904 232.589C185.749 222.728 188.341 210.054 197.545 201.581C197.561 201.589 197.569 201.597 197.585 201.605V201.613ZM138.123 233.12C135.602 227.706 144.191 228.348 148.086 228.427C148.781 228.142 149.397 227.762 150.006 227.381C152.913 225.281 155.781 223.204 158.436 221.008C161.62 218.631 164.78 216.245 167.878 213.716C170.983 211.196 174.04 208.54 176.979 205.639C177.69 204.633 178.552 203.832 179.516 203.158C180.479 202.485 181.538 201.938 182.518 202.207C183.743 200.939 184.888 200.479 186.468 201.486C187.092 199.663 188.191 199.473 189.85 200.067C190.427 199.393 191.572 199.512 192.75 199.798C193.919 200.091 195.12 200.559 196.36 201.232C195.823 200.939 192.631 203.301 192.07 203.658C183.411 209.071 178.876 217.41 172.634 224.94C171.591 226.192 170.509 227.429 169.347 228.618C168.96 229.014 168.446 229.315 167.49 229.315C164.867 228.499 161.359 229.64 159.479 231.027C155.291 234.412 158.238 239.215 161.43 242.386C160.83 243.02 160.222 243.424 159.613 243.63C158.981 243.82 158.357 243.82 157.709 243.662C154.225 243.622 152.913 239.065 149.887 238.129C149.516 237.82 149.184 237.487 148.868 237.146C147.62 235.791 146.719 234.269 145.392 232.977C145.85 233.492 146.079 234.103 145.249 234.547C143.796 235.331 143.013 233.873 142.413 233.445C142.587 234.475 143.796 235.331 144.396 235.759C141.56 234.658 144.325 238.43 141.971 239.786C141.449 240.285 140.872 240.713 140.28 241.062C142.089 237.749 139.071 235.609 138.115 233.12H138.123ZM133.011 240.38C132.007 240.555 131.13 239.952 130.23 239.31C130.87 239.715 132.426 239.968 133.011 240.38Z" fill="currentColor"/>
<path d="M188.263 306.969C212.961 276.096 226.97 342.376 233.061 359.83C233.52 339.61 222.395 319.961 230.075 323.591C224.331 317.424 205.013 284.744 209.248 281.986C208.142 282.12 207.952 281.851 208.26 281.367C210.006 279.124 211.713 277.523 213.104 275.248L212.432 275.557C212.764 275.399 213.025 275.082 213.246 274.67C213.522 274.464 213.846 274.416 214.178 274.487C216.296 278.657 217.481 283 221.044 285.434C220.997 285.457 220.957 285.457 220.918 285.473C221.652 286.155 222.443 286.694 223.983 286.519C218.113 283.888 217.26 276.746 218.705 270.833C218.255 271.895 217.797 272.981 217.741 274.139C217.797 272.561 218.46 271.063 219.061 269.557C219.235 268.994 219.432 268.447 219.646 267.924C219.748 267.576 219.835 267.227 219.898 266.878C220.365 266.085 220.933 265.412 222.348 265.253L221.368 264.889C223.952 264.183 227.444 269.082 228.787 270.643C231.939 274.313 234.8 278.229 237.873 281.962C239.05 283.381 241.484 280.123 242.969 281.233C243.159 281.375 243.356 281.51 243.593 281.558C244.154 281.661 256.156 308.412 256.551 308.095C256.938 307.786 257.301 307.461 257.681 307.286C258.281 307.413 265.431 321.181 266.411 321.546C266.569 320.095 259.19 304.354 258.597 303.093C257.53 300.819 243.893 275.898 242.598 273.75C239.682 268.939 236.498 264.278 233.196 259.729C232.974 259.427 232.753 259.118 232.532 258.817C232.421 258.666 232.303 258.508 232.137 258.444C231.987 258.389 231.821 258.413 231.663 258.413C228.653 258.54 229.395 254.672 230.723 253.197C230.794 253.118 230.873 253.039 230.975 253.031C231.086 253.015 231.197 253.086 231.284 253.158C235.281 256.193 238.244 260.585 241.191 264.611C242.811 266.823 244.446 269.026 245.956 271.317C247.338 273.417 260.707 298.734 262.698 300.335C262.84 300.446 262.99 300.565 263.172 300.589C263.993 300.708 263.575 299.439 263.424 299.091C263.085 298.29 262.54 297.6 262.176 296.808C259.932 291.989 245.134 264.556 242.653 259.863C241.578 257.826 241.958 256.764 242.621 254.695C243.056 253.348 243.569 252.008 244.304 250.788C244.96 249.694 245.79 248.671 246.864 247.966L206.009 200.012C204.152 201.113 202.319 202.302 200.486 203.523L193.193 220.192C193.502 220.477 193.881 220.953 194.228 221.452C194.932 222.459 195.524 223.545 196.038 224.663C197.57 228.443 198.274 232.399 198.637 236.409C198.874 239.382 198.929 242.441 198.993 245.517C199.562 249.099 200.225 252.856 200.818 256.701C200.905 257.485 200.984 258.27 201.023 259.079C201.252 263.581 197.175 267.1 200.012 271.491C202.232 274.543 205.637 271.333 206.87 274.028C208.774 276.398 206.419 278.308 204.057 280.218C203.006 280.694 201.916 281.177 201.426 282.2C201.158 282.913 200.802 283.642 200.312 284.459C198.361 287.701 194.276 292.195 184.984 301.54C210.141 283.484 199.08 288.85 202.264 284.253C209.619 281.058 203.812 286.559 188.271 306.946L188.263 306.969ZM205.219 202.865C208.324 201.438 213.143 217.838 216.699 218.306L226.875 227.278C230.975 237.582 233.046 229.513 237.952 239.445C238.276 240.111 238.608 240.769 238.947 241.427C240.852 243.654 240.433 246.293 239.714 248.259C237.288 251.826 234.041 250.066 230.43 250.399C229.925 250.352 229.553 250.114 229.253 249.789C228.337 248.822 228.021 247.142 226.511 247.839C227.388 251.509 228.937 254.878 226.511 258.444C229.04 251.564 224.244 246.444 218.002 245.247C219.393 242.972 221.716 242.711 223.801 242.362C224.434 242.211 224.323 241.712 224.189 241.213C223.651 239.191 222.94 237.257 222.119 235.466C217.528 223.719 207.889 215.127 205.171 202.897C205.187 202.897 205.195 202.881 205.211 202.881L205.219 202.865ZM202.69 270.278C196.757 269.763 201.608 262.622 203.623 259.277C203.725 258.532 203.702 257.802 203.686 257.081C203.33 253.506 202.967 249.971 202.406 246.571C201.948 242.616 201.458 238.676 200.834 234.721C200.209 230.766 199.443 226.779 198.416 222.768C197.902 221.651 197.642 220.501 197.547 219.328C197.452 218.155 197.507 216.966 198.226 216.245C197.744 214.549 197.918 213.328 199.577 212.448C198.321 210.998 198.7 209.951 200.043 208.802C199.751 207.962 200.423 207.027 201.26 206.155C202.098 205.283 203.101 204.474 204.302 203.737C203.781 204.054 204.223 208.009 204.255 208.675C204.602 218.9 209.525 227.017 212.906 236.203C213.467 237.733 213.989 239.295 214.439 240.896C214.589 241.427 214.589 242.021 214.115 242.853C212.1 244.724 211.326 248.346 211.587 250.669C212.408 255.995 218.034 255.845 222.364 254.656C222.616 255.496 222.656 256.217 222.529 256.859C222.379 257.501 222.063 258.048 221.605 258.532C219.827 261.544 215.237 260.402 212.914 262.558C212.456 262.725 212.005 262.852 211.555 262.955C209.762 263.359 207.992 263.383 206.222 263.89C206.901 263.747 207.534 263.858 207.502 264.793C207.447 266.45 205.803 266.395 205.132 266.704C206.111 267.068 207.455 266.442 208.126 266.133C205.756 268.043 210.394 267.528 210.394 270.255C210.56 270.96 210.646 271.673 210.654 272.363C208.695 269.137 205.345 270.683 202.714 270.271L202.69 270.278ZM206.404 278.347C206.056 279.307 205.092 279.766 204.089 280.226C204.76 279.877 205.756 278.649 206.404 278.347Z" fill="currentColor"/>
<path d="M291.504 263.639C277.203 226.742 341.422 247.715 359.539 251.147C342.315 240.637 319.789 240.486 326.766 235.619C318.564 237.522 280.703 237.974 280.435 232.917C279.992 233.947 279.668 233.979 279.408 233.464C278.349 230.824 277.812 228.541 276.548 226.195L276.476 226.932C276.508 226.56 276.358 226.179 276.121 225.783C276.081 225.442 276.2 225.133 276.437 224.879C281.098 225.125 285.444 226.266 289.323 224.388C289.323 224.435 289.307 224.475 289.292 224.515C290.248 224.214 291.109 223.801 291.733 222.375C286.526 226.163 279.937 223.334 275.552 219.117C276.239 220.036 276.958 220.98 277.922 221.606C276.587 220.766 275.631 219.442 274.628 218.166C274.233 217.73 273.853 217.294 273.514 216.842C273.269 216.58 273.008 216.327 272.731 216.097C272.281 215.296 271.981 214.464 272.55 213.156L271.744 213.83C272.423 211.23 278.404 210.652 280.419 210.263C285.167 209.36 289.971 208.836 294.735 208.028C296.553 207.719 294.957 203.97 296.655 203.24C296.869 203.145 297.09 203.042 297.248 202.86C297.619 202.424 326.71 205.373 326.631 204.873C326.552 204.382 326.457 203.906 326.497 203.486C326.908 203.026 342.37 203.7 343.168 203.034C341.991 202.17 324.719 200.712 323.329 200.593C320.832 200.387 292.499 199.769 290.003 199.824C284.393 199.951 278.776 200.395 273.198 200.981C272.826 201.021 272.447 201.061 272.076 201.1C271.894 201.116 271.696 201.14 271.554 201.259C271.428 201.362 271.365 201.513 271.293 201.655C269.895 204.334 266.932 201.758 266.324 199.864C266.292 199.769 266.261 199.658 266.308 199.563C266.355 199.46 266.466 199.404 266.577 199.357C271.199 197.407 276.469 197.018 281.422 196.471C284.14 196.17 286.858 195.853 289.592 195.687C292.097 195.536 320.635 196.574 323.013 195.655C323.179 195.592 323.352 195.512 323.463 195.37C323.977 194.72 322.673 194.442 322.294 194.403C321.433 194.3 320.563 194.426 319.702 194.347C314.424 193.887 283.342 193.023 278.049 192.833C275.757 192.746 275.023 191.89 273.569 190.281C272.621 189.227 271.72 188.109 271.033 186.865C270.416 185.747 269.95 184.519 269.879 183.227L208.055 194.743C208.078 196.907 208.181 199.095 208.323 201.299L219.069 215.97C219.464 215.843 220.072 215.756 220.68 215.701C221.897 215.59 223.13 215.621 224.354 215.732C228.384 216.287 232.152 217.658 235.795 219.355C238.481 220.631 241.144 222.113 243.838 223.595C247.219 224.895 250.791 226.195 254.401 227.598C255.12 227.915 255.839 228.24 256.558 228.605C260.556 230.658 261.56 235.952 266.774 235.691C270.519 235.294 269.453 230.729 272.392 230.998C275.394 230.531 275.86 233.535 276.326 236.539C276.216 237.688 276.081 238.877 276.721 239.812C277.203 240.407 277.654 241.081 278.112 241.913C279.937 245.234 281.77 251.02 285.199 263.766C282.189 232.877 281.288 245.171 278.91 240.114C279.826 232.124 281.675 239.923 291.496 263.615L291.504 263.639ZM210.117 196.852C210.441 193.444 227.009 197.454 229.182 194.593L242.013 190.233C252.955 191.827 247.03 185.985 258.052 186.69C258.786 186.738 259.521 186.778 260.256 186.817C263.132 186.278 265.202 187.959 266.537 189.568C268.41 193.459 265.265 195.401 263.748 198.707C263.456 199.119 263.069 199.325 262.634 199.428C261.346 199.737 259.727 199.174 259.576 200.831C263.187 201.909 266.861 202.242 268.734 206.134C264.056 200.498 257.238 202.099 253.09 206.926C251.818 204.58 252.758 202.432 253.501 200.443C253.69 199.824 253.2 199.666 252.703 199.531C250.696 198.992 248.665 198.635 246.706 198.453C234.27 196.567 222.039 200.649 210.117 196.892C210.117 196.876 210.117 196.86 210.117 196.844V196.852ZM267.051 232.758C263.637 237.649 259.9 229.873 258.02 226.449C257.427 225.981 256.787 225.64 256.155 225.299C252.892 223.825 249.661 222.367 246.445 221.162C242.803 219.577 239.161 218.039 235.431 216.604C231.702 215.17 227.886 213.846 223.904 212.736C222.679 212.625 221.557 212.276 220.499 211.777C219.44 211.278 218.436 210.628 218.176 209.645C216.469 209.217 215.497 208.448 215.576 206.57C213.696 206.934 212.977 206.078 212.661 204.342C211.792 204.176 211.318 203.122 210.978 201.956C210.646 200.791 210.449 199.515 210.409 198.104C210.425 198.715 214.059 200.308 214.652 200.617C223.651 205.428 233.124 205.206 242.74 206.863C244.344 207.14 245.947 207.465 247.559 207.877C248.096 208.012 248.61 208.313 249.084 209.146C249.692 211.833 252.426 214.314 254.567 215.257C259.576 217.207 262.255 212.245 263.4 207.885C264.246 208.083 264.894 208.416 265.384 208.836C265.866 209.288 266.182 209.835 266.363 210.469C268.07 213.513 264.799 216.937 265.494 220.036C265.407 220.512 265.297 220.972 265.154 221.416C264.609 223.175 263.74 224.721 263.298 226.52C263.519 225.862 263.922 225.363 264.72 225.862C266.126 226.734 265.257 228.145 265.186 228.882C265.992 228.208 266.126 226.734 266.189 225.997C266.656 229.017 268.528 224.721 270.883 226.092C271.578 226.298 272.234 226.583 272.834 226.916C269.065 227.004 268.734 230.689 267.059 232.766L267.051 232.758ZM275.876 233.567C276.524 234.351 276.445 235.413 276.342 236.515C276.374 235.754 275.813 234.28 275.876 233.567Z" fill="currentColor"/>
</svg>
