<svg width="467" height="139" viewBox="0 0 467 139" fill="none" xmlns="http://www.w3.org/2000/svg">
<path d="M412.76 72.8594L397.37 74.4394L427.79 31.7394L425.85 30.3594L394.21 74.7594L360.36 78.2394L363.74 75.4294L365.68 75.2294L365.55 73.9194L366.33 73.2694L364.8 71.4394L362.77 73.1294L350.05 74.4394L380.47 31.7394L378.53 30.3594L346.89 74.7594L313.04 78.2394L316.42 75.4294L318.37 75.2294L318.23 73.9194L319.01 73.2694L317.48 71.4394L315.45 73.1294L302.73 74.4394L333.15 31.7394L331.21 30.3594L299.57 74.7594L265.72 78.2394L269.1 75.4294L271.05 75.2294L270.91 73.9194L271.69 73.2694L270.16 71.4394L268.13 73.1294L255.41 74.4394L285.83 31.7394L283.89 30.3594L252.25 74.7594L218.4 78.2394L221.78 75.4294L223.73 75.2294L223.59 73.9194L224.37 73.2694L222.84 71.4394L220.81 73.1294L208.09 74.4394L238.52 31.7394L236.57 30.3594L204.93 74.7594L171.08 78.2394L174.46 75.4294L176.41 75.2294L176.27 73.9194L177.05 73.2694L175.53 71.4394L173.5 73.1294L160.77 74.4394L191.2 31.7394L189.26 30.3594L157.61 74.7594L123.76 78.2394L127.14 75.4294L129.09 75.2294L128.95 73.9194L129.73 73.2694L128.21 71.4394L126.18 73.1294L113.45 74.4394L143.88 31.7394L141.94 30.3594L110.3 74.7594L76.44 78.2394L82.41 73.2694L80.89 71.4394L72.19 78.6794L69.92 78.9094L70.08 80.4394L39 106.299L40.52 108.129L73.16 80.9694L108.45 77.3494L107.56 78.5994L109.5 79.9794L111.61 77.0194L122.89 75.8594L119.51 78.6794L117.24 78.9094L117.4 80.4394L86.31 106.299L87.84 108.129L120.48 80.9694L155.77 77.3494L154.88 78.5994L156.82 79.9794L158.93 77.0194L170.21 75.8594L166.83 78.6794L164.56 78.9094L164.72 80.4394L133.63 106.299L135.16 108.129L167.79 80.9694L203.09 77.3494L202.2 78.5994L204.14 79.9794L206.25 77.0194L217.53 75.8594L214.15 78.6794L211.88 78.9094L212.04 80.4394L180.95 106.299L182.48 108.129L215.11 80.9694L250.41 77.3494L249.52 78.5994L251.46 79.9794L253.57 77.0194L264.85 75.8594L261.47 78.6794L259.2 78.9094L259.35 80.4394L228.27 106.299L229.8 108.129L262.43 80.9694L297.73 77.3494L296.84 78.5994L298.78 79.9794L300.89 77.0194L312.17 75.8594L308.79 78.6794L306.52 78.9094L306.67 80.4394L275.59 106.299L277.12 108.129L309.75 80.9694L345.05 77.3494L344.16 78.5994L346.1 79.9794L348.21 77.0194L359.49 75.8594L356.1 78.6794L353.84 78.9094L353.99 80.4394L322.91 106.299L324.43 108.129L357.07 80.9694L392.37 77.3494L391.48 78.5994L393.42 79.9794L395.53 77.0194L413 75.2294L412.76 72.8594Z" stroke="currentColor"/>
</svg>
