<svg width="467" height="139" viewBox="0 0 467 139" fill="none" xmlns="http://www.w3.org/2000/svg">
<path d="M421.361 68.2695C419.281 66.4895 417.751 64.6095 416.131 63.0095C414.521 61.4095 412.741 60.0895 410.171 59.4395C408.461 58.6795 406.621 58.1895 404.721 57.9595C399.041 57.2495 392.791 58.7495 388.291 61.7495C393.541 58.7495 398.791 55.6095 403.671 52.0095C405.301 50.8095 406.881 49.5595 408.411 48.2495C409.561 47.1695 410.681 46.0995 411.781 45.0295C418.281 38.7495 426.281 33.7495 433.281 28.7495C425.281 33.7495 415.281 35.7495 410.481 43.3095C409.051 44.8695 407.621 46.3895 406.151 47.8495C400.271 53.6995 393.751 58.6495 385.211 61.5495C384.061 62.9195 382.961 64.2495 381.881 65.5495C376.481 72.0295 371.621 77.5895 363.291 81.7595C361.291 77.7595 367.291 73.7595 362.291 69.7595L363.291 70.7595C360.291 68.7595 357.291 66.7595 354.011 65.8595C352.571 65.2695 351.121 64.7595 349.661 64.3795C345.281 63.2595 340.781 63.2595 336.281 65.7595C340.031 62.0095 344.341 60.5095 348.601 59.3495C350.021 58.9595 351.431 58.6195 352.821 58.2295C354.941 55.1095 357.521 52.3995 360.291 49.8495C361.671 48.5695 363.101 47.3395 364.541 46.1195C368.281 43.7595 371.281 41.7595 372.991 38.6595C374.321 37.3595 375.591 35.9995 376.761 34.5695C379.101 31.6995 381.031 28.5195 382.281 24.7695C380.901 26.2695 379.511 27.8195 378.101 29.3895C372.281 35.7695 366.281 41.7695 359.931 47.9295C358.291 49.3295 356.611 50.6595 354.881 51.8995C351.441 54.3795 347.821 56.4995 344.011 58.0795C342.701 58.5495 341.411 59.0895 340.181 59.7095C336.471 61.5695 333.181 64.1595 330.751 67.8295C329.781 69.2995 328.951 70.9395 328.281 72.7695C326.781 74.2695 324.281 74.7695 321.901 75.5195C319.521 76.2695 317.271 77.2695 316.271 79.7895C317.281 77.7695 317.281 75.7695 318.281 73.7595C319.031 71.7695 319.281 69.7695 317.281 67.7695C308.281 60.7695 295.281 60.7695 287.281 68.7695C289.951 62.0995 295.721 59.8795 301.741 57.2295C303.241 56.5695 304.761 55.8795 306.251 55.0795C315.281 44.7695 328.281 39.7695 331.281 24.7695C325.281 35.7695 314.281 41.7695 308.041 51.7795C305.891 52.6295 303.951 53.5695 302.151 54.5995C293.151 59.7695 287.541 67.2795 278.821 74.8095C277.971 74.9695 277.101 75.2995 276.231 75.7395C274.061 76.8395 272.071 78.6395 270.001 80.2495C268.281 82.7695 266.281 83.7695 263.281 83.7695C264.281 82.7695 265.281 80.7695 266.341 80.2695C268.131 78.3795 270.051 76.2495 271.061 74.2195C272.071 72.1895 272.161 70.2695 270.291 68.7695C262.291 61.7695 248.291 62.7695 241.291 72.7695C242.291 62.7695 253.291 58.7695 261.311 54.7095C262.251 53.7795 263.301 52.3095 264.361 50.8295C266.321 47.2995 268.561 44.2795 271.171 41.6495C272.481 40.3295 273.881 39.1095 275.421 37.9695C280.291 35.7695 284.291 31.7695 286.291 26.7695C283.291 30.7695 277.291 33.7695 273.871 37.4095C272.551 38.5395 271.241 39.6895 269.961 40.8795C267.411 43.2695 264.971 45.8495 262.811 48.8995C261.741 50.1195 260.631 51.2595 259.441 52.3095C257.051 54.4095 254.301 56.1195 250.971 57.2395C249.661 58.3595 248.451 59.5995 247.291 60.9195C243.821 64.8795 240.841 69.4795 237.391 73.1895C236.501 73.0995 235.141 72.9595 233.661 72.8595C228.131 72.0395 222.241 73.5295 218.381 77.2695C217.091 78.5195 216.031 80.0195 215.281 81.7695C214.281 80.5195 214.091 79.2095 214.301 77.8795C214.911 73.8995 219.031 69.7695 215.281 66.7695C208.281 60.7695 198.281 59.7695 191.281 65.7695C194.281 60.7695 201.281 61.7695 205.721 59.2195C207.471 58.9095 209.201 58.6295 210.841 58.2495C211.391 58.0395 211.661 58.1595 212.631 57.0095C216.451 51.8895 220.371 46.5795 224.451 41.4195C225.471 40.1295 226.511 38.8495 227.571 37.5895C231.281 34.7695 233.281 28.7695 239.281 26.7695C231.281 27.7695 227.281 33.7695 223.451 38.4495C222.431 39.8695 221.421 41.3295 220.411 42.7895C217.371 47.1495 214.271 51.4295 210.661 54.2195C209.631 55.1495 208.671 55.9495 207.801 56.3595C206.111 56.1595 204.521 56.1895 203.031 56.4095C201.541 56.6295 200.121 57.0495 198.791 57.6295C184.291 64.7695 181.291 85.7695 165.291 89.7695C174.291 85.7695 182.291 75.7695 176.231 65.5495C175.221 64.0495 173.921 62.8295 172.441 61.8795C166.511 58.0995 157.631 58.7695 152.291 64.7695C155.291 58.7695 162.291 57.7695 166.571 54.0795C168.021 53.1295 169.391 52.1095 170.681 51.0095C177.131 45.5595 181.661 38.1395 182.291 28.7695C177.911 35.6495 173.931 44.0795 168.171 50.1795C167.011 51.3995 165.791 52.5395 164.461 53.5495C155.291 59.7695 144.291 58.7695 134.231 62.4495C133.341 62.8395 132.471 63.2695 131.631 63.7595C127.291 66.7595 125.291 70.7595 123.291 75.7595H119.291C120.291 74.7595 122.291 73.7595 122.291 73.7595C121.291 68.7595 116.291 67.7595 111.701 68.9895C110.611 69.1495 109.501 69.3495 108.431 69.4995C107.351 69.6495 106.301 69.7595 105.301 69.7595C106.301 64.7595 110.301 62.7595 114.351 59.6695C115.301 58.9495 116.261 58.2295 117.181 57.4795C119.951 55.2195 122.441 52.6395 123.731 48.9695C124.311 48.1595 124.881 47.3595 125.451 46.5595C129.291 39.7595 134.291 33.7595 140.291 28.7595C132.291 30.7595 130.291 38.7595 124.531 43.7495C123.981 44.4995 123.441 45.2595 122.901 46.0195C120.801 49.6695 117.791 52.6595 114.761 55.5995C113.751 56.5795 112.731 57.5495 111.741 58.5495C108.291 63.7695 103.291 67.7695 103.291 73.7695C103.291 70.7695 102.291 67.7695 100.131 64.8495C99.1608 63.8795 98.0208 63.0895 96.7608 62.4995C92.9808 60.7295 88.1708 60.6895 84.0608 62.5995C82.7608 62.7595 81.4808 62.9895 80.2408 63.3295C74.0408 65.0295 68.7908 69.7795 66.2908 77.7795C68.2908 70.7795 69.2908 62.7795 76.2908 58.7795C67.2908 61.7795 62.2908 70.7795 56.4308 77.5395C55.6208 78.5795 54.7808 79.5895 53.8808 80.5395C52.9808 81.4895 52.0308 82.3695 50.9908 83.1695C50.0908 83.9895 49.2008 84.8295 48.3308 85.6895C47.2308 86.7795 46.1608 87.8895 45.1308 89.0395C39.9508 94.7795 35.6008 101.28 32.9008 108.8C32.3308 110.11 31.8008 111.44 31.3008 112.77C32.1308 111.69 32.9708 110.6 33.8008 109.51C36.9508 105.99 40.3208 102.44 43.9408 99.1895C45.1408 98.1095 46.3808 97.0595 47.6408 96.0495C48.8108 95.2195 50.0308 94.5095 51.2908 93.8995C52.5508 93.2895 53.8508 92.7695 55.1808 92.3195C58.3608 91.1195 61.6108 90.1695 64.8408 89.2495C65.9208 88.9395 66.9908 88.6395 68.0708 88.3395C72.2808 88.4995 76.4708 86.0595 80.5708 83.5895C81.9408 82.7695 83.3008 81.9395 84.6508 81.1995C86.2008 80.3795 88.1208 79.3995 90.1108 78.6995C91.1008 78.3495 92.1108 78.0795 93.1008 77.9295C97.3108 76.7495 98.3108 79.7495 100.311 81.7495C100.811 77.7495 103.061 75.2495 106.061 73.9995C107.061 73.5895 108.151 73.3095 109.281 73.1795C111.311 72.7495 114.311 72.7495 116.311 73.7495C113.311 77.7495 108.311 79.7495 105.351 83.6695C104.481 84.5095 103.611 85.3495 102.741 86.1795C100.131 88.6695 97.4708 91.0095 94.5708 92.9695C93.4508 94.0095 92.3408 95.0495 91.2308 96.0995C87.9008 99.2495 84.6008 102.46 81.3008 105.76C80.6408 106.43 79.9708 107.09 79.3008 107.76C79.8008 107.01 80.5508 106.51 81.4208 106.1C82.2908 105.69 83.2708 105.37 84.2308 104.99C87.2508 103.18 90.0708 100.39 92.8908 97.3195C93.8308 96.2995 94.7708 95.2495 95.7208 94.1895C96.6808 92.9495 97.6908 91.7995 98.7508 90.7395C99.8108 89.6895 100.921 88.7295 102.061 87.8695C103.461 86.8495 104.901 86.0595 106.351 85.4495C107.801 84.8395 109.281 84.4195 110.771 84.1595C113.651 82.8095 117.191 83.0395 120.951 83.8995C122.831 84.3295 124.771 84.9195 126.711 85.5495C133.301 87.7395 145.301 92.7395 149.301 82.7395C150.301 85.7395 152.301 87.7395 153.301 90.7395C152.301 89.7395 152.301 88.7395 151.081 87.3495C150.611 85.9595 150.421 84.4195 150.551 83.1095C150.801 80.4895 152.301 78.7295 155.301 80.7295C156.801 81.7295 157.611 83.0395 157.891 84.4495C158.171 85.8595 157.921 87.3595 157.301 88.7295C148.301 95.7295 137.301 98.7295 128.301 105.73C139.131 104.9 146.491 96.4195 155.461 92.4695C157.251 91.6795 159.111 91.0695 161.081 90.7395C162.621 90.5695 164.121 90.2895 165.591 89.9595C172.301 89.7395 179.301 85.7395 184.301 80.7395C186.301 82.7395 187.301 85.7395 188.301 87.7395C187.301 85.7395 188.301 83.7395 190.301 82.7395C199.301 81.7395 211.301 84.7395 215.301 74.7395C215.301 76.4895 215.301 78.2995 215.181 80.0795C215.061 81.8795 214.801 83.6395 214.281 85.3295C213.301 87.7395 212.301 89.7395 210.301 90.7395C197.301 97.7395 179.301 96.7395 172.301 112.74C176.301 108.74 179.301 104.74 184.301 102.74C195.301 98.7395 205.301 93.7395 213.931 86.9495C215.701 85.7295 217.481 84.5595 219.301 83.4695C221.121 82.3795 222.981 81.3795 224.921 80.5095C226.271 79.8395 227.651 79.2195 229.081 78.6595C230.511 78.0995 231.981 77.6095 233.521 77.1795C234.821 77.0095 236.111 76.8595 237.061 76.7595C240.301 75.7295 240.301 78.7295 241.301 80.7195C241.301 79.7295 241.301 77.7295 240.301 76.7295C241.631 77.2295 242.941 77.5595 244.231 77.7695C250.301 78.7295 257.301 76.7295 263.301 76.7295C258.301 79.7295 250.301 81.7295 246.301 84.7295C237.301 90.7295 229.301 99.7295 220.541 106.28C218.971 107.45 217.411 108.65 215.871 109.89C214.331 111.13 212.801 112.41 211.301 113.74C214.221 113.32 216.871 112.3 219.371 110.88C220.621 110.17 221.831 109.36 223.011 108.47C233.301 94.7495 248.301 86.7495 265.301 84.7495C269.301 83.7495 272.301 81.7495 275.261 78.3895C275.741 78.0795 276.101 77.7695 276.491 77.4395C277.691 77.2695 278.851 77.0095 279.931 76.8195C280.951 76.6395 281.851 76.5295 282.481 76.6695C285.311 77.7495 285.311 79.7495 285.311 81.7495C285.311 79.7495 286.311 77.7495 287.311 76.7495C290.641 76.4195 294.201 76.7495 297.751 77.0795C299.531 77.2495 301.311 77.4095 303.061 77.4895C305.691 77.6195 308.251 77.6795 310.651 77.2095C313.051 76.7395 315.311 75.7395 317.311 73.7395C313.311 86.7395 298.311 88.7395 287.281 90.7395C285.621 91.2395 284.011 91.8195 282.441 92.4795C274.611 95.7495 267.801 100.75 260.301 105.75C268.301 104.42 274.521 99.9695 280.941 96.2595C282.541 95.3295 284.161 94.4495 285.821 93.6695C302.301 94.7495 316.301 69.7495 331.301 83.7495C331.301 81.7495 331.301 80.7495 331.301 78.7495C333.801 79.2495 336.301 79.4995 338.881 79.6095C347.301 79.7495 355.301 79.7495 362.301 75.7495C363.301 91.7495 346.301 90.7495 334.831 91.7595C333.031 92.1995 331.261 92.7095 329.571 93.3195C322.811 95.7495 317.311 99.7495 316.311 107.75C319.811 102.25 324.561 98.4995 329.951 95.6795C331.751 94.7395 333.611 93.9095 335.531 93.1495C347.311 89.7395 359.311 89.7395 371.311 81.7395C376.311 77.7395 379.311 86.7395 383.311 90.7395V86.7395C385.311 87.2395 387.431 87.8595 389.631 88.4295C391.831 88.9995 394.081 89.5095 396.351 89.7795C398.011 89.9395 399.611 89.9395 401.181 89.8095C402.751 89.6795 404.271 89.4295 405.771 89.0895C407.191 88.5295 408.771 88.1495 410.421 87.8595C412.081 87.5695 413.811 87.3695 415.561 87.1795C422.311 85.7495 437.311 85.7495 435.311 75.7495C435.311 73.7495 431.311 72.7495 427.821 72.3695C424.031 70.3395 421.361 68.2795 421.361 68.2795V68.2695Z" stroke="currentColor" stroke-width="2"/>
</svg>
