<svg width="501" height="157" viewBox="0 0 501 157" fill="none" xmlns="http://www.w3.org/2000/svg">
<path d="M438.53 99.3717C432.27 89.3217 422.61 77.9917 407.61 77.5417C429.63 77.2817 440.23 57.3417 454.58 45.8117C433.04 63.5817 408.58 78.4917 382.26 88.7517C381.37 85.0417 386.48 81.5117 381.56 78.6017L382.53 79.5517C379.11 76.6917 374.94 74.2617 370.35 72.8617C365.76 71.4617 360.77 71.0817 355.74 72.3017C360.04 70.6017 364.59 69.0117 369.14 67.3217C373.69 65.6317 378.25 63.8417 382.56 61.7217C385.44 60.3117 388.21 58.7617 390.8 56.9917C396.32 53.2717 400.46 48.7917 403.62 43.3617C401.73 45.3017 399.73 47.1317 397.63 48.8617C389.76 55.3417 380.5 60.3317 370.34 63.8617C366.95 65.0417 363.47 66.0517 359.9 66.9017C354.82 69.5117 350.71 73.0717 347.55 78.5017C344.47 81.1717 338.58 77.3117 336.42 82.7717C337.53 79.1217 340.67 74.6117 337.75 71.7617C328.97 64.1317 310.8 62.4917 300.64 67.7117C300.78 63.1117 310.98 63.5917 314.01 62.7617C328.11 59.5017 340.33 52.5017 348.15 41.2917C349.58 39.1217 350.83 36.8317 351.88 34.4417C349.93 36.8717 347.92 39.2617 345.85 41.5517C342.53 46.1317 338.42 49.6917 333.31 53.2217C315.93 65.5917 295.78 70.5117 281.31 85.7217C286.42 82.1917 290.69 73.1117 283.75 71.0617C270.87 66.9917 258.54 77.6717 257.18 89.6017C257.84 67.5317 284.08 60.0317 298.48 46.6517C272.02 61.5117 250.34 83.8717 232.63 107.282C235.1 91.7017 244.98 62.5417 219.04 59.9217C231.09 58.4417 238.39 48.5317 250.44 47.0517C238.47 45.7717 228.28 51.9117 220.9 59.7917C218.99 61.7117 217.17 63.7017 215.36 65.6817C209.93 71.6217 204.5 77.4417 196.41 80.4217C209.46 78.9717 214.82 67.1617 208.12 56.8417C202.34 49.3017 190.43 46.1817 182.27 51.4617C192.38 48.0817 206.53 42.9817 204.89 30.9617C203.75 35.5317 200.62 40.0417 195.54 42.6517C180.35 48.6417 155.56 41.4517 149.01 59.6717C147.04 58.6917 146.04 58.6617 144.04 58.6017C147.01 59.6117 149.07 57.8317 149.12 55.9917C149.15 55.0717 148.18 54.1217 147.2 53.1617C143.76 51.2217 140.26 51.1217 136.74 51.7017C133.22 52.2817 129.68 53.5617 126.16 54.3717C140.48 43.7517 152.84 32.1517 166.16 21.5117C148.89 30.2017 133.51 42.6317 124.02 58.9117C126.29 49.7717 112.33 48.4317 106.2 51.9917C103.41 53.2717 100.8 54.8517 98.4197 56.6717C91.2797 62.1317 86.1697 69.7417 84.4297 77.9717C87.6997 68.8617 88.0097 58.7517 97.1997 52.5817C92.3097 57.0417 87.7297 61.7917 83.3597 66.7517C81.1797 69.2317 79.0397 71.7617 76.9497 74.3417C67.0797 89.4217 55.6397 103.812 47.1797 119.202C58.6197 104.812 76.8297 97.9917 91.3197 85.8017C93.2497 83.9917 95.0597 82.0817 96.8697 80.1817C103.64 71.1817 115.66 70.6217 122.83 65.3117C124.87 63.9917 127.46 61.0817 130.52 58.9817C133.58 56.8817 137.12 55.6117 141.07 57.5717C136.29 61.4217 131.94 65.5817 127.88 69.9317C119.76 78.6317 112.81 88.0817 105.86 97.1817C104.22 99.3517 102.59 101.492 100.88 103.572C99.1697 105.652 97.3797 107.702 95.4697 109.712C98.5697 106.952 101.63 105.182 103.71 102.482C106.19 94.9617 110.25 88.7517 115.45 83.7717C120.65 78.7917 126.98 75.0417 134 72.4317C141.46 69.6617 150.17 68.2917 158.17 67.7817C162.39 67.5117 166.65 67.5717 170.86 68.0117C174.1 68.3517 177.07 69.9417 180.39 69.4817C180.89 69.4117 181.46 69.2517 181.64 68.8217C181.78 68.4817 181.64 68.0817 181.74 67.7317C181.89 67.2617 182.49 67.0217 183.02 67.1017C183.55 67.1817 183.98 67.5117 184.33 67.8817C186.09 69.7417 185.95 72.5117 185.53 74.9517C184.87 73.5617 184.2 72.1617 183.74 70.7017C183.46 69.8117 183.26 68.8617 183.51 67.9617C183.79 66.9517 184.62 66.1417 185.58 65.6017C187.1 64.7617 191.07 63.5017 190.82 66.4317C189.27 84.7917 163.23 85.8617 150.87 97.4517C151.39 96.9617 153.48 96.7817 154.23 96.5317C155.34 96.1717 156.43 95.7617 157.52 95.3417C160.05 94.3717 162.5 93.2217 164.9 92.0017C169.61 89.6017 174.14 86.9217 178.97 84.7317C186.84 81.1817 196.22 79.0217 204.34 82.1217C204.99 82.3717 205.66 82.6517 206.36 82.6517C208.38 82.6417 209.59 80.3717 211.58 80.0417C210.49 85.4217 209.87 90.8917 209.73 96.3717C210.96 94.8717 211.09 92.8617 211.17 90.9817C213.73 92.7617 216.32 94.5617 219.25 95.7717C222.18 96.9817 225.52 97.5617 228.61 96.8017C231.7 96.0417 234.45 93.7517 234.98 90.8517C234.98 94.1717 234.96 97.6017 233.49 100.622C231.96 103.782 229 106.162 225.83 108.022C222.44 110.012 218.22 112.812 214.27 113.582C209.31 114.552 204.38 112.122 199.38 111.302C192.71 110.212 190.5 112.532 184.09 114.502C182.99 114.842 177.94 116.452 177.94 116.452C177.94 116.452 193.15 118.472 200.05 118.112C207.65 117.722 215.2 116.412 222.41 114.182C234.32 110.492 244.22 103.072 254.72 96.9717C255.11 96.7417 257.97 95.4417 257.98 95.1317C257.95 96.0517 256.9 97.8617 256.87 98.7817C260.17 88.7517 273.25 86.3817 279.47 79.2017C264.01 94.3917 258.35 116.312 238.88 129.072C236.66 130.462 234.31 131.652 231.8 132.592C229.29 133.532 226.64 134.212 223.79 134.582C227.53 134.712 231.01 134.272 234.28 133.402C238.1 132.372 241.64 130.732 244.98 128.642C260.31 117.302 269.78 101.932 282.24 86.6517C296.73 70.5117 317.64 73.9017 336.52 78.1517C337.49 79.1017 334.36 83.6117 331.33 84.4417C306.29 85.5317 285.91 97.8117 275.31 117.742C290.91 97.9517 323.67 73.1617 350.21 88.6817C350.27 86.8417 350.29 85.9217 350.68 84.0517C353.15 84.6817 355.64 85.0117 358.21 85.1817C362.26 85.3317 366.28 85.4617 370.18 85.2417C374.08 85.0217 377.85 84.4417 381.39 83.1717C381.81 85.9517 380.73 88.4417 378.95 90.4317C377.17 92.4217 374.69 93.8917 372.3 94.6117C369.5 95.3817 366.32 95.7217 363.12 95.9017C359.92 96.0817 356.71 96.1017 353.83 96.2517C345.93 97.7717 335.83 101.142 334.55 110.312C338.77 103.072 347.85 100.582 354.48 97.5517C357.45 96.8617 360.42 96.3617 363.41 95.8917C366.4 95.4217 369.39 94.9917 372.39 94.4417C375.08 93.7117 377.92 92.6117 380.76 91.6217C389.24 88.0217 402.15 91.1717 400.85 101.262C400.88 100.342 400.93 98.5017 400.96 97.5817C416.7 106.342 431.2 123.342 450.44 115.632C456.49 113.972 449.72 106.402 444.43 105.692C440.9 102.502 438.48 99.3617 438.48 99.3617L438.53 99.3717Z" stroke="currentColor" stroke-width="2" stroke-miterlimit="50"/>
</svg>
