<svg width="288" height="301" viewBox="0 0 288 301" fill="none" xmlns="http://www.w3.org/2000/svg">
<path d="M171.69 257.721C169.77 257.721 168.09 257.031 166.85 255.711C165.27 254.031 164.67 251.571 165.22 248.951C165.31 248.491 165.46 248.051 165.66 247.581C166.81 244.901 169.43 243.241 172.5 243.231C175.65 243.231 178.34 244.941 179.53 247.701C179.95 248.681 180.15 249.571 180.14 250.421C180.1 253.281 175.72 257.221 172.9 257.631C172.49 257.691 172.08 257.721 171.69 257.721ZM172.5 245.231C170.73 245.231 168.49 246.061 167.5 248.361C167.35 248.701 167.25 249.031 167.18 249.351C166.77 251.321 167.18 253.131 168.31 254.331C169.34 255.431 170.87 255.891 172.62 255.641C174.66 255.351 178.12 252.051 178.14 250.381C178.14 249.821 178 249.191 177.7 248.481C176.67 246.081 174.34 245.221 172.51 245.221L172.5 245.231ZM200.5 227.871C198.84 227.871 196.55 226.241 195.36 225.001C194.51 224.101 194.17 223.371 194.3 222.711C194.85 219.831 196.99 216.211 199.48 215.401C201.09 214.871 202.86 216.001 205.31 217.561C206.45 218.281 207.74 219.111 209.19 219.871C209.49 220.031 209.69 220.321 209.72 220.661C209.75 221.001 209.61 221.321 209.35 221.531C208.08 222.551 207.02 223.541 206.08 224.401C204.08 226.251 202.64 227.591 200.83 227.841C200.73 227.851 200.62 227.861 200.51 227.861L200.5 227.871ZM196.29 222.961C196.68 223.881 199.58 225.991 200.54 225.871C201.73 225.701 202.98 224.541 204.72 222.941C205.39 222.321 206.13 221.641 206.96 220.921C205.97 220.341 205.06 219.771 204.24 219.241C202.48 218.121 200.82 217.061 200.11 217.291C198.5 217.821 196.77 220.731 196.3 222.951L196.29 222.961ZM172.62 202.491C172.62 202.491 172.59 202.491 172.58 202.491C172.26 202.481 171.97 202.321 171.79 202.051C171.06 200.971 170.32 200.041 169.61 199.131C168.08 197.191 166.76 195.521 166.6 193.621C166.43 191.631 169.68 189.131 169.82 189.031C171.48 187.771 172.28 187.851 172.73 188.021C175.48 189.061 178.12 191.721 178.88 194.231C179.3 195.641 178.02 197.011 176.08 199.081C175.24 199.981 174.29 200.991 173.4 202.111C173.21 202.351 172.92 202.491 172.62 202.491ZM172.16 189.951C171.25 190.191 168.64 192.621 168.6 193.471C168.71 194.751 169.81 196.141 171.19 197.901C171.66 198.501 172.17 199.151 172.69 199.851C173.36 199.081 174.02 198.371 174.62 197.721C175.6 196.671 176.94 195.241 176.95 194.761C176.4 192.941 174.26 190.791 172.15 189.941L172.16 189.951ZM235.16 178.201C234.85 178.201 234.56 178.061 234.37 177.811C234.04 177.381 233.7 177.001 233.4 176.681C232.68 175.881 232.05 175.191 232.15 174.311C232.3 173.021 233.75 171.951 234.73 171.591C234.78 171.571 234.82 171.561 234.87 171.551C234.77 170.561 234.46 169.561 234.14 168.531L234.08 168.341C233.1 165.201 231.92 161.901 230.26 157.661C229.9 156.751 229.07 155.871 228.47 155.301C227.14 154.011 226.62 152.541 226.73 150.401C226.81 149.021 226.54 147.601 226.01 146.581C225.28 145.191 224.62 143.741 223.97 142.341C222.11 138.301 220.35 134.491 217.17 131.471C216.43 130.761 216.06 129.771 215.73 128.891L215.68 128.751C214.91 126.701 213.66 125.001 211.73 123.421C210.36 122.301 209.52 120.521 208.88 118.931C208.21 117.261 207.35 115.601 205.67 114.761C203.76 113.801 202.56 112.351 201.89 110.181C201.33 108.371 199.96 107.201 198.06 106.011C196.97 105.321 195.48 104.181 194.55 102.641C193.09 100.241 191.59 98.8411 189.52 97.9711C186.62 96.7511 185.81 95.1411 186.63 92.2611C187.33 89.8111 187.51 87.3111 187.71 84.6611C187.94 81.5711 188.18 78.3711 189.3 75.3011C189.3 75.3011 189.3 75.2911 189.3 75.2811C189.25 75.2611 189.21 75.2411 189.16 75.2211C188.86 75.0811 188.55 74.9411 188.33 74.9311C185.2 74.7811 182.06 74.4311 179.02 74.1011C176.5 73.8311 173.9 73.5411 171.34 73.3711C169.49 73.2511 167.64 73.3711 165.69 73.5111C162.69 73.7211 159.6 73.9411 156.48 73.1711C156.36 73.1411 156.14 73.1711 155.94 73.1711L155.63 73.1911C152.09 73.3911 148.81 72.6211 145.62 70.8311C144.5 70.2011 143.26 69.7711 141.95 69.3011C141.58 69.1711 141.2 69.0411 140.83 68.9011C140.12 68.6411 139.4 68.4111 138.68 68.1811C137.59 67.8311 136.46 67.4711 135.38 67.0011C132.54 65.8011 129.19 64.5911 125.46 64.6311C124.31 64.6611 123.21 64.3211 122.15 64.0011C121.93 63.9311 121.71 63.8711 121.49 63.8011C120.56 63.5411 119.67 63.2311 118.63 62.8711C118.48 62.8211 118.32 62.7611 118.17 62.7111C118.09 63.0611 118.01 63.4111 117.92 63.7511C117.58 65.1711 117.28 66.3911 117.34 67.5611C117.53 70.8911 116.71 73.7711 115.84 76.8211L115.55 77.8511C114.74 80.7711 113.34 82.4511 110.73 83.6711C110.2 83.9211 109.66 84.1311 109.12 84.3411C108.46 84.6011 107.84 84.8411 107.25 85.1411C106.15 85.7111 105.04 86.3311 103.97 86.9411C103.09 87.4411 102.2 87.9411 101.31 88.4111C100.16 89.0211 98.9901 89.5811 97.8301 90.0511C96.9801 90.4011 96.1201 90.7211 95.2601 91.0411C93.9101 91.5411 92.5201 92.0611 91.2201 92.6711C89.8001 93.3411 88.2801 94.2311 86.4401 95.4911C81.8601 98.6411 77.1201 102.001 73.3201 104.701C73.0601 104.881 72.8101 105.171 72.5501 105.471C72.4101 105.631 72.2701 105.791 72.1301 105.941C70.7501 107.391 69.1701 108.651 67.6501 109.861C65.2101 111.811 62.9001 113.651 61.3101 116.241C61.1301 116.531 60.8801 116.671 60.7501 116.751C57.9301 118.661 55.8701 121.191 53.6801 123.871C53.4901 124.101 53.3101 124.331 53.1201 124.561C53.4001 124.801 53.6101 125.111 53.8501 125.451C53.9901 125.651 54.1401 125.871 54.3401 126.131C54.5601 126.421 54.6101 126.801 54.4701 127.141C54.3301 127.481 54.0101 127.701 53.6501 127.741C53.3101 127.771 53.0201 127.821 52.7701 127.871C52.1401 127.981 51.5401 128.081 50.9901 127.741C50.8501 127.661 50.7401 127.551 50.6501 127.441C50.0601 128.081 49.4501 128.701 48.8201 129.291C48.6201 129.471 48.4501 129.811 48.2701 130.171C48.1201 130.461 47.9701 130.771 47.7701 131.071C47.4401 131.561 47.0801 132.021 46.7201 132.491C46.5301 132.741 46.3401 132.991 46.1501 133.241L44.8901 134.931C44.6801 135.211 44.4801 135.481 44.2701 135.761L44.6901 135.951C44.3301 136.721 43.5801 137.441 42.7301 137.841C42.1301 138.651 41.5401 139.461 40.9501 140.271L39.3301 139.101C39.7801 138.491 40.2201 137.881 40.6701 137.271C40.2201 136.811 39.7101 136.121 39.8701 135.421L41.7201 135.851C41.7601 135.791 41.8001 135.741 41.8401 135.681C41.8401 135.581 41.8201 135.511 41.8001 135.481C41.8201 135.511 41.8501 135.561 41.8801 135.611C42.3501 134.981 42.8101 134.361 43.2801 133.731L44.5401 132.041C44.7301 131.781 44.9301 131.521 45.1301 131.261C45.4701 130.821 45.8001 130.391 46.1101 129.941C46.2501 129.731 46.3601 129.501 46.4801 129.271C46.7201 128.791 46.9901 128.251 47.4601 127.821C49.1601 126.251 50.6601 124.401 52.1201 122.611C54.3001 119.931 56.5501 117.161 59.5801 115.111C59.6101 115.091 59.6501 115.071 59.6901 115.041C61.4601 112.231 63.9701 110.231 66.4001 108.291C67.8701 107.121 69.3901 105.911 70.6801 104.551C70.8001 104.421 70.9201 104.281 71.0401 104.141C71.3501 103.781 71.7101 103.381 72.1601 103.061C75.9701 100.361 80.7101 96.9911 85.3101 93.8311C87.2401 92.5111 88.8501 91.5611 90.3701 90.8411C91.7501 90.2011 93.1801 89.6611 94.5601 89.1511C95.4001 88.8411 96.2401 88.5211 97.0701 88.1811C98.1601 87.7311 99.2701 87.2111 100.36 86.6311C101.24 86.1611 102.11 85.6711 102.98 85.1811C104.07 84.5711 105.19 83.9411 106.32 83.3511C107 83.0011 107.7 82.7311 108.38 82.4611C108.88 82.2611 109.38 82.0711 109.87 81.8411C111.94 80.8711 112.96 79.6411 113.61 77.2911L113.9 76.2511C114.72 73.3711 115.49 70.6411 115.32 67.6511C115.24 66.1811 115.58 64.7611 115.95 63.2611C116.11 62.6011 116.28 61.9111 116.41 61.2011C116.46 60.9211 116.64 60.6711 116.89 60.5211C117.14 60.3711 117.44 60.3411 117.72 60.4411C118.27 60.6311 118.78 60.8011 119.27 60.9711C120.27 61.3211 121.14 61.6211 122.02 61.8711C122.25 61.9411 122.48 62.0011 122.71 62.0711C123.67 62.3611 124.56 62.6311 125.41 62.6111C125.5 62.6111 125.6 62.6111 125.69 62.6111C129.64 62.6111 133.18 63.8811 136.14 65.1411C137.15 65.5711 138.18 65.9011 139.28 66.2511C140.03 66.4911 140.77 66.7311 141.5 67.0011C141.86 67.1311 142.23 67.2611 142.59 67.3911C143.92 67.8611 145.3 68.3411 146.57 69.0611C149.42 70.6611 152.34 71.3411 155.49 71.1711L155.74 71.1511C156.08 71.1211 156.5 71.0911 156.93 71.1911C159.74 71.8811 162.55 71.6811 165.52 71.4711C167.46 71.3311 169.46 71.2011 171.44 71.3311C174.03 71.5011 176.66 71.7911 179.2 72.0711C182.21 72.4011 185.33 72.7411 188.4 72.8911C189.01 72.9211 189.54 73.1611 189.96 73.3511C190.09 73.4111 190.22 73.4711 190.34 73.5111C190.6 73.6011 190.81 73.8011 190.92 74.0611C190.96 74.1711 191.02 74.2611 191.06 74.3411C191.23 74.6411 191.48 75.1011 191.27 75.6411C190.14 78.5311 189.92 81.5611 189.68 84.7511C189.48 87.3811 189.28 90.1011 188.53 92.7411C187.99 94.6411 188.3 95.2311 190.28 96.0711C192.73 97.1011 194.57 98.7911 196.24 101.551C196.81 102.501 197.83 103.461 199.11 104.271C201.07 105.511 202.99 107.001 203.78 109.541C204.29 111.201 205.12 112.211 206.55 112.921C208.84 114.071 209.94 116.201 210.72 118.141C211.23 119.421 211.96 120.991 212.99 121.831C215.2 123.651 216.65 125.611 217.54 128.001L217.59 128.141C217.84 128.811 218.12 129.581 218.53 129.971C221.99 133.261 223.91 137.431 225.77 141.451C226.41 142.831 227.06 144.251 227.77 145.601C228.47 146.941 228.81 148.711 228.72 150.451C228.63 152.011 228.94 152.921 229.85 153.801C230.64 154.571 231.61 155.611 232.11 156.871C233.8 161.161 234.99 164.491 235.98 167.691L236.04 167.881C236.48 169.291 236.96 170.821 236.89 172.451C237.29 172.851 237.71 173.421 237.73 174.031C237.75 174.861 237.3 175.581 236.77 176.401C236.54 176.751 236.28 177.161 236.02 177.631C235.86 177.931 235.56 178.121 235.22 178.151C235.19 178.151 235.17 178.151 235.14 178.151L235.16 178.201ZM234.16 174.471C234.28 174.671 234.62 175.051 234.88 175.331C234.93 175.381 234.97 175.431 235.02 175.491C235.05 175.451 235.07 175.411 235.1 175.371C235.22 175.171 235.35 174.981 235.46 174.791L234.44 174.311C234.49 174.201 234.54 174.091 234.58 173.971C234.38 174.151 234.22 174.331 234.16 174.461V174.471ZM215.48 177.431C214.55 177.431 213.71 177.051 213.17 176.361C212.6 175.651 212.44 174.691 212.72 173.751C213.06 172.591 214.66 171.451 215.9 171.481C216.78 171.521 217.42 172.151 218.15 172.881C218.44 173.171 218.77 173.501 219.15 173.821C219.39 174.021 219.52 174.331 219.5 174.641C219.48 174.951 219.32 175.241 219.06 175.421C218.64 175.701 218.27 175.991 217.95 176.251C217.19 176.851 216.53 177.371 215.68 177.421C215.61 177.421 215.54 177.421 215.47 177.421L215.48 177.431ZM215.79 173.491C215.5 173.491 214.74 174.041 214.64 174.341C214.55 174.651 214.58 174.931 214.74 175.131C214.91 175.351 215.22 175.461 215.57 175.441C215.79 175.431 216.29 175.041 216.72 174.691C216.79 174.631 216.87 174.571 216.95 174.511C216.88 174.441 216.82 174.381 216.75 174.321C216.42 173.991 215.97 173.541 215.79 173.501V173.491ZM200.04 169.001C199.7 169.001 199.09 168.851 198.21 167.951C197.66 167.381 196.77 166.291 196.99 165.331C197.24 164.231 197.97 163.321 198.89 162.181C199.31 161.661 199.8 161.061 200.32 160.341C200.52 160.071 200.85 159.911 201.18 159.931C201.52 159.951 201.83 160.141 201.99 160.431C202.45 161.231 202.93 161.931 203.35 162.551C204.33 163.991 205.04 165.021 204.66 166.081C204.08 167.711 201.72 168.711 200.28 168.981C200.23 168.991 200.14 169.011 200.03 169.011L200.04 169.001ZM198.98 165.641C199.13 166.001 199.76 166.731 200.12 166.971C201.31 166.691 202.59 165.951 202.79 165.411C202.76 165.211 202.18 164.361 201.71 163.681C201.5 163.371 201.28 163.041 201.05 162.691C200.84 162.951 200.64 163.201 200.46 163.431C199.72 164.351 199.17 165.031 198.99 165.641H198.98ZM225.27 167.231C225.09 167.231 224.9 167.181 224.71 167.071C224.06 166.701 223.67 166.081 223.33 165.541C223.22 165.371 223.12 165.191 223 165.041C222.84 164.821 222.78 164.541 222.83 164.271C222.88 164.001 223.04 163.761 223.27 163.611C223.41 163.521 223.56 163.401 223.7 163.291C224.15 162.931 224.71 162.481 225.43 162.441C226.11 162.401 226.71 162.671 227.41 162.981C227.72 163.121 228.09 163.281 228.52 163.441C228.88 163.571 229.13 163.901 229.16 164.271C229.2 164.651 229.02 165.021 228.7 165.221C227.99 165.671 227.43 166.061 227.01 166.371C226.29 166.881 225.78 167.241 225.27 167.241V167.231ZM225.15 164.691C225.23 164.821 225.31 164.941 225.39 165.051C225.53 164.951 225.69 164.841 225.85 164.731C225.92 164.681 225.99 164.631 226.06 164.581C225.83 164.491 225.65 164.441 225.53 164.441C225.46 164.461 225.3 164.571 225.14 164.691H225.15ZM215.37 157.271C215.37 157.271 215.3 157.271 215.27 157.271C214.43 157.231 213.99 156.491 213.6 155.831C213.49 155.651 213.39 155.471 213.28 155.331C213.11 155.111 213.05 154.831 213.09 154.551C213.14 154.281 213.3 154.041 213.53 153.891C213.7 153.781 213.87 153.641 214.05 153.511C214.58 153.101 215.18 152.641 215.95 152.541C216.75 152.451 217.28 153.031 217.85 153.661C218.06 153.891 218.3 154.161 218.58 154.421C218.82 154.651 218.94 154.981 218.89 155.301C218.84 155.631 218.63 155.911 218.33 156.051C217.97 156.221 217.66 156.391 217.38 156.551C216.69 156.931 216.09 157.271 215.38 157.271H215.37ZM215.42 154.981C215.47 155.061 215.52 155.151 215.57 155.221C215.76 155.151 216.01 155.021 216.25 154.881C216.16 154.781 216.06 154.681 215.98 154.601C215.81 154.691 215.61 154.831 215.41 154.981H215.42ZM71.2301 149.161C70.9301 149.161 70.6401 149.021 70.4501 148.791C70.1401 148.411 69.8001 148.051 69.5001 147.721C68.6501 146.811 67.9801 146.101 68.3301 145.231C68.6801 144.351 69.4401 143.751 70.1101 143.221C70.3401 143.041 70.5701 142.861 70.7801 142.661C70.9801 142.481 71.2401 142.371 71.5101 142.391C71.7801 142.401 72.0301 142.531 72.2101 142.731C72.3801 142.921 72.5801 143.111 72.7901 143.301C73.4201 143.891 74.1401 144.551 74.2101 145.471C74.2801 146.361 73.6501 147.021 72.9201 147.781C72.6401 148.071 72.3301 148.401 72.0301 148.771C71.8401 149.011 71.5501 149.141 71.2501 149.141L71.2301 149.161ZM70.3601 145.681C70.5201 145.881 70.7701 146.141 70.9601 146.351C71.0501 146.441 71.1401 146.541 71.2301 146.641C71.3101 146.561 71.3801 146.481 71.4501 146.401C71.7101 146.131 72.0601 145.761 72.1701 145.571C72.0701 145.381 71.6601 145.001 71.4101 144.761C71.4101 144.761 71.3901 144.741 71.3801 144.741C71.3701 144.751 71.3501 144.761 71.3401 144.781C70.9601 145.081 70.5801 145.381 70.3501 145.681H70.3601ZM52.0701 148.231C51.1401 148.231 50.2101 147.341 50.0301 147.151C49.5101 146.621 49.2901 146.131 49.3601 145.641C49.5201 144.571 50.4301 142.891 51.6601 142.621C52.5301 142.441 53.3001 142.961 54.1801 143.581C54.5401 143.831 54.9501 144.121 55.4101 144.391C55.7001 144.561 55.8801 144.861 55.9001 145.191C55.9201 145.521 55.7701 145.851 55.5001 146.051C55.0901 146.361 54.7401 146.671 54.4301 146.931C53.7001 147.561 53.0701 148.111 52.2401 148.221C52.1801 148.221 52.1201 148.231 52.0601 148.231H52.0701ZM51.4001 145.691C51.5701 145.881 51.8901 146.131 52.0801 146.211C52.3301 146.121 52.7401 145.761 53.1301 145.421C53.1601 145.391 53.1901 145.371 53.2201 145.341C53.1601 145.301 53.1001 145.261 53.0401 145.221C52.7101 144.991 52.2801 144.691 52.0701 144.601C51.8601 144.761 51.5501 145.241 51.4101 145.691H51.4001ZM173 140.411C172.82 140.411 172.64 140.361 172.48 140.261C172.28 140.141 172.03 140.021 171.78 139.891C170.84 139.431 169.96 139.001 170.01 138.071C170.06 137.151 170.45 136.311 170.82 135.501C170.95 135.211 171.09 134.911 171.21 134.601C171.32 134.331 171.54 134.121 171.81 134.021C172.08 133.921 172.39 133.951 172.64 134.101L175.25 135.611C175.48 135.741 175.65 135.971 175.72 136.231C175.79 136.491 175.75 136.771 175.61 137.001L173.85 139.911C173.71 140.141 173.49 140.301 173.23 140.371C173.15 140.391 173.07 140.401 172.99 140.401L173 140.411ZM172.07 137.801C172.24 137.891 172.46 138.011 172.63 138.091L173.37 136.851L172.6 136.411C172.38 136.901 172.16 137.371 172.06 137.801H172.07ZM80.6001 138.681C80.6001 138.681 80.5501 138.681 80.5301 138.681C79.4501 138.651 78.5701 137.181 78.4701 137.011C78.2401 136.621 77.9801 136.041 78.2801 135.481C78.7601 134.581 79.8501 133.551 81.0301 133.321C81.8901 133.141 82.4901 133.821 83.1801 134.601C83.4401 134.891 83.7401 135.231 84.0901 135.561C84.3201 135.781 84.4301 136.101 84.3901 136.421C84.3501 136.741 84.1501 137.021 83.8701 137.171C83.4901 137.371 83.1501 137.591 82.8501 137.781C82.1101 138.251 81.4101 138.691 80.6101 138.691L80.6001 138.681ZM80.2501 136.101C80.3801 136.301 80.5801 136.531 80.7201 136.661C80.9801 136.591 81.3901 136.321 81.7701 136.081C81.7801 136.081 81.7901 136.071 81.8001 136.061C81.7601 136.021 81.7201 135.981 81.6901 135.931C81.5201 135.741 81.3101 135.511 81.1601 135.361C80.8501 135.501 80.5101 135.781 80.2601 136.101H80.2501ZM62.0901 138.071C62.0901 138.071 62.0001 138.071 61.9601 138.071C61.1801 137.991 60.5501 137.531 60.0001 137.131C59.8201 137.001 59.6401 136.871 59.4601 136.761C59.2301 136.621 59.0601 136.381 59.0001 136.111C58.9401 135.841 59.0001 135.561 59.1601 135.341C59.2601 135.191 59.3601 135.011 59.4601 134.821C59.8301 134.151 60.2401 133.381 61.0801 133.311C61.8401 133.251 62.5101 133.571 63.2201 133.921C63.5101 134.061 63.8301 134.221 64.1801 134.361C64.4801 134.481 64.7101 134.751 64.7801 135.071C64.8501 135.391 64.7601 135.731 64.5401 135.971C64.2801 136.251 64.0501 136.541 63.8501 136.801C63.3301 137.461 62.8501 138.081 62.1101 138.081L62.0901 138.071ZM61.3001 135.601C61.5101 135.751 61.7301 135.901 61.9101 135.991C62.0001 135.891 62.1001 135.761 62.1901 135.641C61.9201 135.511 61.6501 135.381 61.4501 135.321C61.4001 135.401 61.3401 135.501 61.2901 135.591L61.3001 135.601ZM70.9501 128.561C70.9501 128.561 70.8701 128.561 70.8301 128.561C70.5501 128.521 70.3001 128.371 70.1301 128.141C70.0501 128.031 69.9501 127.921 69.8601 127.801C69.5101 127.391 69.0701 126.881 69.0701 126.181C69.0801 125.491 69.5501 125.031 69.9901 124.581C70.1501 124.421 70.3301 124.241 70.5101 124.031C70.7101 123.791 71.0101 123.651 71.3101 123.681C71.6201 123.691 71.9001 123.841 72.0801 124.091C72.2501 124.321 72.4301 124.541 72.6001 124.741C73.1101 125.351 73.6301 125.981 73.2401 126.711C72.9301 127.291 72.4301 127.671 71.9901 128.001C71.8501 128.101 71.7201 128.211 71.5901 128.321C71.4101 128.481 71.1701 128.561 70.9401 128.561H70.9501Z" fill="currentColor"/>
</svg>
