<svg width="211" height="238" viewBox="0 0 211 238" fill="none" xmlns="http://www.w3.org/2000/svg">
<path d="M125.551 221.841C125.191 221.841 124.841 221.791 124.491 221.681C123.201 221.291 122.181 220.231 121.701 218.771C121.611 218.501 121.561 218.241 121.521 217.951C121.321 216.261 122.151 214.661 123.691 213.771C125.251 212.871 127.141 212.961 128.521 213.991C129.021 214.361 129.381 214.761 129.621 215.201C130.461 216.721 129.461 219.841 128.121 220.901C127.341 221.521 126.441 221.841 125.541 221.841H125.551ZM126.001 215.151C125.521 215.151 125.061 215.301 124.701 215.511C123.851 216.001 123.411 216.831 123.511 217.721C123.531 217.871 123.561 218.021 123.601 218.151C123.871 218.981 124.411 219.571 125.071 219.771C125.651 219.951 126.301 219.791 126.891 219.331C127.631 218.751 128.141 216.641 127.881 216.181C127.771 215.991 127.591 215.801 127.331 215.601C126.901 215.281 126.441 215.161 126.001 215.161V215.151ZM45.1009 203.331C44.7709 203.331 44.4809 203.261 44.3509 203.221C43.8309 203.081 43.5009 202.811 43.3509 202.431C43.1009 201.801 43.0509 200.571 43.7209 199.961C44.2209 199.511 44.8509 199.561 45.4609 199.611C45.6709 199.631 45.9209 199.651 46.1809 199.651C46.5109 199.651 46.8309 199.821 47.0109 200.101C47.1909 200.381 47.2309 200.731 47.1009 201.041C47.0009 201.271 46.9309 201.491 46.8609 201.681C46.6809 202.201 46.5109 202.701 46.0509 203.051C45.7609 203.271 45.4109 203.331 45.1009 203.331ZM39.1409 202.101L37.1509 201.891C37.1809 201.631 37.2109 201.361 37.2309 201.101C36.9009 200.951 36.5809 200.701 36.4609 200.301L37.3509 200.031C37.4109 199.551 37.4609 199.061 37.5209 198.581L37.7209 196.901C37.7609 196.621 37.8009 196.351 37.8209 196.071C37.8209 195.961 37.8209 195.851 37.8209 195.741C37.8009 195.441 37.7809 195.061 37.9109 194.671C38.2509 193.571 38.4409 192.421 38.6409 191.211C38.9309 189.431 39.2309 187.591 40.0709 185.841C40.1609 184.081 40.7709 182.541 41.3609 181.051C41.7309 180.121 42.0709 179.251 42.2909 178.341C42.3109 178.261 42.3309 178.171 42.3409 178.091C42.3909 177.821 42.4509 177.521 42.6009 177.211C43.8309 174.531 44.9409 172.121 46.1009 169.701C46.6309 168.591 47.1209 167.731 47.6309 167.001C48.0909 166.341 48.6009 165.731 49.0909 165.141C49.3809 164.791 49.6809 164.431 49.9609 164.071C50.3209 163.601 50.6809 163.101 51.0009 162.571C51.2709 162.131 51.5409 161.691 51.8009 161.241C52.1309 160.681 52.4709 160.111 52.8209 159.561C53.0409 159.221 53.2909 158.911 53.5409 158.591C53.7109 158.381 53.8809 158.171 54.0309 157.951C54.6209 157.111 54.7309 156.431 54.4609 155.351L54.3209 154.811C53.9509 153.351 53.6109 151.971 52.8109 150.751C52.3609 150.061 52.1209 149.261 51.9009 148.501C51.8009 148.171 51.7009 147.831 51.5809 147.481C51.4809 147.211 51.5109 146.901 51.6509 146.651C51.7909 146.401 52.0409 146.221 52.3209 146.161L53.1409 146.001C53.6709 145.901 54.1309 145.811 54.5809 145.701L54.9509 145.611C55.4109 145.501 55.8509 145.401 56.1609 145.211C58.0409 144.091 60.0609 143.721 61.7909 143.511C62.3309 143.441 62.8709 143.331 63.4409 143.211C63.8409 143.121 64.2409 143.041 64.6409 142.971L65.2209 142.861C65.9609 142.721 66.7209 142.581 67.5109 142.571C69.1009 142.551 70.5009 142.131 71.7809 141.291L71.8709 141.231C72.0309 141.121 72.2609 140.961 72.5609 140.871C73.9209 140.481 75.0909 139.691 76.3309 138.851C77.1709 138.281 78.0509 137.691 79.0009 137.231C80.2109 136.641 81.4609 136.091 82.6709 135.561C84.0909 134.931 85.5709 134.291 86.9609 133.571C87.3209 133.381 87.6909 133.351 87.9509 133.321C88.0109 133.321 88.0709 133.321 88.1209 133.301C88.3909 133.251 88.6709 133.321 88.8909 133.481C88.9209 133.511 88.9609 133.521 88.9909 133.541C89.1809 133.651 89.5709 133.891 89.6409 134.411C89.8709 135.921 90.5309 137.301 91.2309 138.761C91.8309 140.011 92.4509 141.301 92.8109 142.721C92.9909 143.431 93.0109 143.511 93.9209 143.391C95.3909 143.211 96.7409 143.511 98.2909 144.361C98.7209 144.601 99.3509 144.751 100.061 144.781C101.351 144.831 102.691 145.031 103.811 146.061C104.371 146.581 104.881 146.761 105.561 146.731C107.031 146.641 108.181 147.371 109.091 148.091C109.601 148.491 110.261 148.971 110.831 149.061C112.371 149.321 113.601 149.851 114.681 150.751C114.961 150.981 115.261 151.241 115.441 151.281C117.921 151.881 119.891 153.281 121.791 154.621C122.431 155.071 123.071 155.531 123.731 155.951C124.461 156.421 125.131 157.191 125.571 158.071C125.871 158.661 126.131 158.901 126.621 159.021C127.221 159.171 127.981 159.411 128.601 159.901C130.431 161.361 131.881 162.591 133.141 163.761L133.221 163.831C133.741 164.321 134.341 164.871 134.771 165.601C135.091 165.721 135.441 165.911 135.641 166.241C135.941 166.731 135.921 167.261 135.891 167.821C135.891 168.031 135.871 168.261 135.881 168.531C135.881 168.871 135.721 169.191 135.441 169.381C135.161 169.571 134.801 169.611 134.491 169.481C134.241 169.381 134.011 169.301 133.801 169.241C133.211 169.051 132.601 168.851 132.341 168.231C132.041 167.521 132.341 166.651 132.671 166.121C132.431 165.851 132.151 165.591 131.851 165.311L131.771 165.241C130.541 164.111 129.141 162.911 127.341 161.481C127.021 161.221 126.491 161.071 126.111 160.981C124.741 160.641 124.141 159.731 123.761 158.991C123.481 158.441 123.051 157.931 122.631 157.661C121.941 157.221 121.281 156.751 120.611 156.281C118.781 154.981 117.051 153.761 114.941 153.251C114.321 153.101 113.831 152.691 113.431 152.361C112.571 151.651 111.651 151.251 110.471 151.061C109.461 150.891 108.561 150.271 107.821 149.691C106.921 148.991 106.301 148.731 105.641 148.761C104.411 148.831 103.361 148.441 102.411 147.561C101.801 147.001 101.011 146.851 99.9409 146.811C99.2209 146.781 98.1809 146.641 97.2909 146.151C96.1209 145.511 95.1809 145.281 94.1409 145.411C92.3009 145.641 91.2809 144.971 90.8509 143.241C90.5409 142.021 89.9909 140.871 89.4109 139.661C88.7709 138.321 88.1109 136.951 87.7709 135.411C86.3509 136.131 84.8709 136.781 83.4409 137.411C82.2509 137.931 81.0209 138.471 79.8409 139.051C79.0109 139.461 78.2309 139.981 77.4109 140.541C76.0909 141.431 74.7409 142.341 73.0709 142.821C73.0609 142.821 73.0209 142.861 72.9709 142.901L72.8309 143.001C71.2209 144.051 69.4709 144.581 67.4909 144.601C66.8709 144.601 66.2209 144.731 65.5409 144.851L64.9409 144.961C64.5609 145.031 64.1909 145.111 63.8209 145.191C63.2309 145.321 62.6209 145.451 61.9909 145.521C60.3909 145.721 58.6909 146.031 57.1409 146.951C56.5609 147.291 55.9309 147.441 55.3609 147.571L55.0209 147.651C54.6109 147.751 54.2009 147.831 53.7509 147.921C53.7509 147.921 53.7509 147.931 53.7509 147.941C53.9509 148.621 54.1209 149.211 54.4109 149.661C55.4009 151.171 55.8009 152.781 56.1909 154.331L56.3209 154.861C56.7409 156.511 56.5209 157.771 55.5909 159.101C55.4109 159.351 55.2209 159.601 55.0209 159.841C54.8109 160.101 54.6009 160.361 54.4209 160.631C54.0809 161.161 53.7609 161.711 53.4309 162.251C53.1609 162.711 52.8909 163.171 52.6109 163.621C52.2509 164.201 51.8609 164.771 51.4509 165.291C51.1609 165.671 50.8509 166.041 50.5409 166.411C50.0509 167.001 49.5909 167.551 49.1809 168.141C48.7309 168.781 48.3009 169.551 47.8109 170.561C46.6609 172.971 45.5509 175.371 44.3209 178.041C44.2809 178.141 44.2409 178.301 44.2109 178.471C44.1909 178.581 44.1709 178.701 44.1409 178.811C43.8909 179.851 43.5009 180.831 43.1309 181.781C42.5609 183.241 42.0109 184.611 41.9709 186.101C41.9709 186.391 41.8409 186.601 41.7909 186.701C41.0709 188.181 40.8009 189.811 40.5209 191.541C40.5209 191.551 40.5209 191.571 40.5209 191.581C40.5909 191.611 40.6709 191.651 40.7409 191.681C40.8409 191.731 40.9709 191.791 41.1109 191.851C41.4509 191.991 41.6809 192.301 41.7209 192.661C41.7609 193.021 41.6109 193.381 41.3109 193.591C41.1809 193.681 41.0709 193.781 40.9809 193.851C40.7309 194.061 40.4209 194.321 39.9909 194.361C39.9109 194.671 39.8309 194.971 39.7409 195.281C39.7309 195.341 39.7409 195.521 39.7409 195.641C39.7509 195.841 39.7609 196.041 39.7409 196.241C39.7209 196.551 39.6709 196.871 39.6309 197.181L39.4309 198.831C39.4209 198.941 39.4109 199.041 39.3909 199.151L39.6209 199.131C39.6609 199.641 39.5109 200.221 39.2109 200.691C39.1609 201.171 39.1009 201.641 39.0509 202.121L39.1409 202.101ZM40.0509 186.021C40.0509 186.021 40.0509 186.041 40.0509 186.051C40.0509 186.051 40.0509 186.031 40.0509 186.021ZM131.151 200.881C130.401 200.881 129.681 200.731 129.321 200.631C128.831 200.491 128.151 200.221 127.931 199.571C127.471 198.221 127.321 195.761 128.461 194.491C129.201 193.671 130.441 193.731 132.001 193.801C132.691 193.831 133.461 193.861 134.291 193.841C134.621 193.801 134.951 193.991 135.141 194.261C135.341 194.531 135.381 194.891 135.261 195.201C134.961 195.971 134.741 196.671 134.551 197.291C134.121 198.661 133.791 199.751 132.921 200.421C132.461 200.771 131.801 200.891 131.151 200.891V200.881ZM129.751 198.671C130.241 198.851 131.401 198.971 131.741 198.811C132.071 198.551 132.321 197.731 132.651 196.691C132.731 196.421 132.821 196.131 132.921 195.831C132.571 195.831 132.241 195.811 131.921 195.791C131.181 195.761 130.161 195.711 129.921 195.851C129.551 196.261 129.471 197.631 129.751 198.661V198.671ZM54.2209 198.761C54.1009 198.761 53.9709 198.741 53.8609 198.691C53.6309 198.601 53.4009 198.531 53.2009 198.471C52.5509 198.271 51.8109 198.051 51.7009 197.261C51.6109 196.651 51.8309 196.101 52.0109 195.661C52.0609 195.531 52.1109 195.401 52.1509 195.281C52.2309 195.021 52.4109 194.811 52.6509 194.691C52.8909 194.571 53.1709 194.551 53.4309 194.641C53.5409 194.681 53.6609 194.701 53.7909 194.731C54.2609 194.841 54.9009 194.991 55.2709 195.541C55.6509 196.101 55.4909 196.731 55.3609 197.291C55.3109 197.481 55.2609 197.701 55.2209 197.921C55.1709 198.221 54.9909 198.481 54.7309 198.631C54.5809 198.721 54.4009 198.761 54.2309 198.761H54.2209ZM113.251 196.511C113.101 196.511 112.951 196.481 112.811 196.411C112.221 196.121 111.661 195.901 111.121 195.681C109.871 195.181 108.781 194.741 108.141 193.821C107.431 192.791 108.191 190.851 108.351 190.471C108.741 189.551 109.181 189.081 109.761 188.981C111.391 188.711 113.431 189.281 114.511 190.301C115.261 191.011 115.011 192.121 114.651 193.651C114.511 194.261 114.351 194.951 114.241 195.651C114.191 195.961 114.001 196.241 113.721 196.381C113.571 196.461 113.411 196.501 113.251 196.501V196.511ZM109.841 192.751C110.181 193.151 110.971 193.461 111.871 193.821C112.071 193.901 112.291 193.991 112.511 194.081C112.581 193.771 112.641 193.481 112.711 193.201C112.831 192.671 113.001 191.961 113.011 191.641C112.391 191.161 111.271 190.861 110.351 190.931C110.101 191.361 109.811 192.361 109.851 192.751H109.841ZM46.8509 196.231C46.6609 196.231 46.4709 196.211 46.3009 196.191C46.2009 196.181 46.1009 196.171 46.0009 196.161C45.7309 196.161 45.4709 196.031 45.2809 195.831C45.1009 195.621 45.0109 195.351 45.0309 195.081C45.0309 195.001 45.0309 194.911 45.0309 194.821C45.0209 194.381 45.0009 193.721 45.5709 193.321C46.0009 193.021 46.4709 192.991 46.9309 192.961C47.0909 192.961 47.2609 192.941 47.4409 192.911C47.7709 192.871 48.0909 192.981 48.3109 193.231C48.5309 193.471 48.6209 193.811 48.5509 194.131C48.5109 194.311 48.4809 194.481 48.4609 194.641C48.3909 195.151 48.2909 195.781 47.6709 196.061C47.3909 196.191 47.1109 196.221 46.8409 196.221L46.8509 196.231ZM55.5509 191.691C55.0209 191.691 54.5209 191.431 54.3409 191.321C53.8809 191.051 53.6309 190.701 53.6209 190.281C53.6009 189.641 53.8509 188.761 54.4609 188.231C55.0109 187.761 55.6509 187.971 56.2209 188.151C56.4009 188.211 56.6109 188.281 56.8409 188.331C57.1509 188.411 57.4109 188.631 57.5309 188.921C57.6509 189.221 57.6209 189.551 57.4509 189.831C57.3409 190.011 57.2509 190.181 57.1709 190.341C56.9309 190.801 56.6809 191.271 56.1709 191.541C55.9809 191.641 55.7709 191.681 55.5609 191.681L55.5509 191.691ZM48.7909 189.611C48.6409 189.611 48.5009 189.581 48.3609 189.521C48.3109 189.501 48.2509 189.481 48.2009 189.461C47.8909 189.351 47.4309 189.191 47.1709 188.721C46.9009 188.241 47.0309 187.761 47.1309 187.411C47.1609 187.311 47.1909 187.191 47.2109 187.071C47.2609 186.771 47.4609 186.511 47.7309 186.361C48.0009 186.221 48.3309 186.211 48.6109 186.331C48.7309 186.391 48.8609 186.431 48.9809 186.481C49.3909 186.631 50.0709 186.881 50.0909 187.631C50.1109 188.071 49.9509 188.441 49.8309 188.731C49.8009 188.801 49.7709 188.871 49.7409 188.941C49.6509 189.211 49.4409 189.421 49.1809 189.531C49.0609 189.581 48.9309 189.611 48.7909 189.611ZM116.681 174.501C116.451 174.501 116.191 174.461 115.911 174.381C115.321 174.211 114.571 173.871 114.361 173.201C114.151 172.541 114.251 171.901 114.381 171.081C114.431 170.741 114.491 170.361 114.541 169.911C114.581 169.571 114.781 169.281 115.081 169.121C115.381 168.971 115.741 168.981 116.041 169.151C116.441 169.381 116.831 169.571 117.161 169.731C118.031 170.151 118.771 170.511 118.921 171.321C119.131 172.481 118.121 173.711 117.551 174.201C117.321 174.401 117.031 174.491 116.681 174.491V174.501ZM116.241 172.381C116.311 172.411 116.401 172.441 116.481 172.461C116.671 172.251 116.821 172.011 116.901 171.841C116.741 171.751 116.521 171.651 116.341 171.561C116.291 171.891 116.251 172.171 116.251 172.381H116.241ZM125.411 174.421C125.171 174.421 124.941 174.381 124.711 174.291C124.121 174.061 123.701 173.551 123.551 172.901C123.361 172.091 123.901 170.911 124.641 170.531C125.211 170.241 125.791 170.391 126.351 170.531C126.551 170.581 126.761 170.641 127.001 170.681C127.311 170.731 127.581 170.931 127.721 171.211C127.861 171.491 127.861 171.821 127.721 172.101C127.611 172.321 127.531 172.531 127.451 172.721C127.251 173.221 127.051 173.731 126.551 174.051C126.191 174.281 125.801 174.401 125.411 174.401V174.421ZM96.6009 168.691C96.1109 168.691 95.5909 168.591 95.3209 168.051C95.0709 167.541 95.0209 167.001 94.9709 166.521C94.9609 166.361 94.9409 166.201 94.9209 166.051C94.8809 165.761 94.9609 165.471 95.1509 165.251C95.3409 165.031 95.6209 164.911 95.9109 164.911H97.4709C97.7409 164.911 98.0009 165.021 98.1809 165.211C98.3609 165.401 98.4709 165.661 98.4709 165.931L98.4309 167.681C98.4309 167.951 98.3109 168.201 98.1209 168.381C97.9309 168.561 97.6709 168.671 97.4109 168.661C97.3009 168.651 97.1809 168.661 97.0509 168.681C96.9109 168.681 96.7609 168.701 96.6109 168.701L96.6009 168.691ZM127.641 167.201C127.141 167.201 126.741 166.991 126.421 166.811C126.341 166.771 126.261 166.721 126.181 166.691C125.931 166.581 125.731 166.371 125.641 166.111C125.551 165.851 125.571 165.571 125.691 165.321C125.721 165.251 125.751 165.181 125.781 165.111C125.911 164.791 126.081 164.341 126.521 164.061C126.911 163.801 127.321 163.761 127.751 163.711C127.921 163.691 128.111 163.671 128.341 163.631C128.721 163.571 129.091 163.721 129.311 164.031C129.531 164.341 129.561 164.741 129.391 165.081C129.191 165.461 129.051 165.771 128.941 166.011C128.671 166.591 128.391 167.191 127.671 167.201H127.651H127.641ZM120.591 165.321C120.191 165.321 119.821 165.121 119.551 164.971C119.471 164.931 119.401 164.881 119.331 164.851C119.081 164.741 118.881 164.531 118.781 164.271C118.691 164.011 118.701 163.721 118.831 163.471C118.871 163.391 118.911 163.291 118.951 163.201C119.101 162.841 119.281 162.401 119.701 162.081C120.231 161.681 120.811 161.871 121.281 162.021C121.421 162.071 121.591 162.121 121.761 162.161C122.081 162.241 122.351 162.471 122.471 162.781C122.591 163.091 122.551 163.441 122.361 163.711C122.251 163.871 122.161 164.021 122.081 164.151C121.841 164.541 121.601 164.951 121.131 165.191C120.951 165.291 120.761 165.321 120.591 165.321Z" fill="currentColor"/>
<path d="M93.8901 201.129C93.7401 200.909 93.5901 200.689 93.4501 200.469C93.1001 200.559 92.6901 200.579 92.3401 200.349L92.8501 199.569C92.5601 199.119 92.2601 198.679 91.9701 198.229L91.3901 197.349C91.3001 197.209 91.2001 197.059 91.1101 196.909C90.9601 196.679 90.8201 196.449 90.6601 196.229C90.6001 196.139 90.5201 196.059 90.4401 195.979C90.2301 195.759 89.9801 195.489 89.8201 195.099C89.3701 194.029 88.7801 193.039 88.1501 191.979C87.2301 190.429 86.2701 188.829 85.7901 186.939C84.7401 185.549 84.2101 183.969 83.7001 182.439C83.3801 181.499 83.0901 180.599 82.6701 179.769C82.6301 179.699 82.5901 179.619 82.5501 179.549C82.4201 179.309 82.2701 179.039 82.1801 178.699C81.4001 175.869 80.7101 173.299 80.0401 170.699C79.7301 169.509 79.5501 168.539 79.4801 167.639C79.4101 166.839 79.4001 166.039 79.4001 165.269C79.4001 164.809 79.4001 164.349 79.3801 163.899C79.3601 163.309 79.3001 162.699 79.2201 162.079C79.1501 161.569 79.0601 161.059 78.9801 160.549C78.8701 159.899 78.7701 159.259 78.6801 158.609C78.6301 158.209 78.6201 157.809 78.6101 157.399C78.6101 157.129 78.6001 156.859 78.5801 156.599C78.4901 155.569 78.1401 154.979 77.2401 154.339L76.7801 154.009C75.5601 153.129 74.4101 152.299 73.0101 151.869C72.2201 151.629 71.5301 151.169 70.8701 150.729C70.5801 150.539 70.2901 150.339 69.9701 150.149C69.7201 149.999 69.5501 149.749 69.5001 149.469C69.4501 149.179 69.5201 148.889 69.7001 148.669L70.2401 147.999C70.5701 147.589 70.8701 147.229 71.1401 146.859L71.3601 146.559C71.6501 146.179 71.9201 145.819 72.0301 145.479C72.7401 143.419 74.0601 141.839 75.2501 140.559C75.6201 140.159 75.9601 139.729 76.3201 139.259C76.5701 138.939 76.8201 138.619 77.0901 138.309L77.4701 137.849C77.9501 137.269 78.4401 136.669 79.0401 136.159C80.2401 135.119 81.0501 133.909 81.4901 132.439L81.5201 132.339C81.5701 132.149 81.6401 131.879 81.8201 131.619C82.6101 130.439 83.0001 129.079 83.4101 127.639C83.6901 126.659 83.9801 125.649 84.4101 124.679C84.9601 123.449 85.5601 122.219 86.1501 121.039C86.8401 119.639 87.5501 118.199 88.1601 116.759C88.3201 116.379 88.5701 116.119 88.7601 115.929C88.8001 115.889 88.8401 115.839 88.8801 115.799C89.0601 115.589 89.3201 115.459 89.5901 115.439C89.6301 115.439 89.6701 115.439 89.7101 115.429C89.9101 115.399 90.3801 115.329 90.7701 115.679C91.9201 116.689 93.3101 117.319 94.7801 117.979C96.0401 118.549 97.3501 119.139 98.5301 119.999C99.1201 120.429 99.1901 120.469 99.8101 119.799C100.82 118.719 102.04 118.079 103.78 117.739C104.27 117.639 104.84 117.349 105.4 116.919C106.42 116.129 107.59 115.399 109.1 115.489C109.85 115.529 110.37 115.349 110.87 114.879C111.95 113.859 113.29 113.689 114.45 113.649C115.1 113.629 115.91 113.569 116.41 113.269C117.74 112.489 119.06 112.099 120.45 112.089C120.82 112.089 121.21 112.089 121.37 112.009C123.66 110.879 126.06 110.679 128.38 110.489C129.16 110.419 129.95 110.359 130.72 110.259C131.58 110.149 132.59 110.309 133.49 110.689C134.1 110.949 134.46 110.959 134.91 110.739C135.46 110.469 136.2 110.159 136.99 110.139C139.38 110.079 141.21 110.089 142.95 110.179C143.72 110.219 144.57 110.259 145.38 110.539C145.7 110.419 146.09 110.349 146.46 110.469C147.01 110.649 147.33 111.069 147.67 111.519C147.8 111.689 147.94 111.869 148.11 112.069C148.33 112.319 148.41 112.669 148.32 112.999C148.23 113.329 147.98 113.579 147.66 113.679C147.41 113.759 147.18 113.849 146.98 113.929C146.41 114.159 145.82 114.399 145.21 114.099C144.52 113.749 144.19 112.889 144.11 112.269C143.75 112.209 143.37 112.189 142.96 112.179C141.18 112.089 139.38 112.079 137.05 112.139C136.64 112.149 136.13 112.369 135.79 112.539C134.52 113.149 133.48 112.849 132.71 112.519C132.14 112.279 131.48 112.169 130.99 112.229C130.18 112.339 129.37 112.399 128.55 112.469C126.31 112.649 124.2 112.829 122.26 113.789C121.68 114.069 121.05 114.079 120.54 114.079C119.42 114.079 118.46 114.369 117.43 114.979C116.55 115.499 115.46 115.599 114.52 115.629C113.38 115.669 112.73 115.869 112.25 116.319C111.36 117.159 110.29 117.539 109.01 117.469C108.2 117.419 107.48 117.829 106.63 118.479C106.06 118.919 105.18 119.479 104.17 119.679C102.86 119.939 101.99 120.379 101.28 121.139C100.02 122.499 98.8101 122.639 97.3601 121.589C96.3401 120.849 95.1801 120.329 93.9601 119.769C92.6101 119.159 91.2201 118.529 89.9701 117.569C89.3501 119.039 88.6301 120.489 87.9401 121.889C87.3601 123.059 86.7701 124.259 86.2401 125.459C85.8701 126.299 85.6101 127.199 85.3301 128.159C84.8901 129.679 84.4401 131.259 83.4701 132.699C83.4701 132.719 83.4601 132.769 83.4401 132.829L83.4001 132.989C82.8401 134.839 81.8401 136.359 80.3401 137.649C79.8701 138.059 79.4501 138.559 79.0101 139.099L78.6201 139.569C78.3701 139.859 78.1401 140.159 77.9001 140.459C77.5301 140.939 77.1501 141.429 76.7101 141.889C75.6101 143.069 74.5001 144.399 73.9101 146.099C73.6901 146.729 73.3001 147.259 72.9501 147.719L72.7401 147.999C72.4901 148.339 72.2301 148.659 71.9401 149.019C71.9401 149.019 71.9501 149.019 71.9601 149.029C72.5501 149.429 73.0601 149.769 73.5701 149.919C75.2901 150.439 76.6401 151.409 77.9301 152.349L78.3801 152.669C79.7601 153.659 80.4101 154.769 80.5501 156.389C80.5801 156.699 80.5801 157.009 80.5901 157.319C80.5901 157.649 80.6001 157.989 80.6401 158.309C80.7201 158.929 80.8201 159.559 80.9201 160.179C81.0101 160.709 81.0901 161.229 81.1701 161.759C81.2701 162.439 81.3301 163.119 81.3501 163.779C81.3701 164.259 81.3701 164.729 81.3801 165.209C81.3801 165.979 81.3901 166.699 81.4501 167.419C81.5201 168.199 81.6801 169.069 81.9601 170.159C82.6301 172.759 83.3201 175.309 84.1001 178.139C84.1301 178.239 84.2101 178.389 84.3001 178.549C84.3501 178.649 84.4101 178.749 84.4601 178.849C84.9301 179.809 85.2701 180.809 85.5901 181.779C86.0901 183.269 86.5601 184.669 87.4801 185.829C87.6601 186.069 87.7101 186.309 87.7201 186.409C88.1201 188.009 88.9601 189.419 89.8601 190.919C89.8601 190.929 89.8801 190.949 89.8801 190.959C89.9601 190.939 90.0401 190.919 90.1101 190.899C90.2201 190.869 90.3501 190.839 90.5001 190.789C90.8401 190.679 91.2201 190.769 91.4901 191.019C91.7501 191.269 91.8601 191.639 91.7701 191.989C91.7301 192.149 91.7101 192.279 91.6801 192.399C91.6201 192.719 91.5501 193.119 91.2501 193.429C91.3901 193.709 91.5201 193.999 91.6401 194.299C91.6701 194.349 91.7901 194.489 91.8701 194.579C92.0101 194.729 92.1401 194.869 92.2601 195.029C92.4401 195.279 92.6101 195.539 92.7701 195.809L93.6101 197.089C93.7001 197.219 93.7801 197.349 93.8701 197.479L94.0301 197.319C94.3901 197.679 94.6501 198.229 94.7201 198.779C94.9801 199.179 95.2501 199.579 95.5201 199.969L93.8601 201.089L93.8901 201.129ZM99.5401 197.699C99.3401 197.699 99.1601 197.649 98.9901 197.559C98.3901 197.229 97.5601 196.329 97.6801 195.419C97.7701 194.749 98.2901 194.389 98.7901 194.039C98.9701 193.919 99.1701 193.779 99.3701 193.609C99.6301 193.399 99.9701 193.319 100.29 193.419C100.61 193.519 100.86 193.769 100.96 194.089C101.03 194.329 101.12 194.549 101.19 194.729C101.39 195.249 101.57 195.729 101.45 196.299C101.29 197.009 100.5 197.419 100.26 197.519C100 197.639 99.7601 197.699 99.5301 197.699H99.5401ZM96.3801 191.269C96.3801 191.269 96.2901 191.269 96.2401 191.269C95.9701 191.229 95.7201 191.079 95.5701 190.859C95.5301 190.799 95.4601 190.729 95.4001 190.669C95.1101 190.339 94.6701 189.839 94.8501 189.169C94.9901 188.669 95.3301 188.339 95.6601 188.019C95.7701 187.909 95.9001 187.789 96.0201 187.659C96.2401 187.419 96.5601 187.299 96.8901 187.339C97.2201 187.379 97.5001 187.579 97.6501 187.879C97.7301 188.039 97.8301 188.189 97.9101 188.329C98.1801 188.769 98.5101 189.309 98.2201 189.929C97.9901 190.419 97.5801 190.689 97.2501 190.909C97.1701 190.969 97.0801 191.019 97.0001 191.079C96.8201 191.219 96.6001 191.299 96.3801 191.299V191.269ZM102.81 188.529C102.55 188.529 102.29 188.449 102.05 188.239C101.59 187.829 101.41 187.269 101.26 186.819C101.22 186.689 101.17 186.559 101.12 186.429C101.02 186.179 101.02 185.899 101.12 185.649C101.23 185.399 101.43 185.209 101.68 185.109C101.79 185.069 101.9 185.009 102.01 184.949C102.44 184.729 103.02 184.439 103.67 184.619C104.32 184.799 104.61 185.389 104.86 185.909C104.95 186.089 105.04 186.279 105.16 186.479C105.32 186.739 105.35 187.059 105.24 187.339C105.13 187.619 104.91 187.849 104.62 187.939C104.39 188.019 104.17 188.109 103.97 188.199C103.59 188.359 103.19 188.529 102.8 188.529H102.81ZM93.5901 184.689C93.4401 184.689 93.2801 184.669 93.1201 184.599C92.6101 184.399 92.4001 183.949 92.2401 183.619C92.2001 183.519 92.1501 183.419 92.0901 183.309C91.9401 183.039 91.9201 182.719 92.0301 182.439C92.1501 182.149 92.3901 181.939 92.6801 181.859C92.8101 181.819 92.9401 181.779 93.0601 181.729C93.4701 181.579 94.1401 181.339 94.6501 181.899C94.9501 182.229 95.0701 182.629 95.1601 182.909C95.1801 182.979 95.2001 183.059 95.2301 183.129C95.3301 183.389 95.3101 183.689 95.1901 183.939C95.0601 184.189 94.8301 184.379 94.5601 184.449C94.5101 184.459 94.4501 184.489 94.4001 184.509C94.2001 184.589 93.9201 184.689 93.6101 184.689H93.5901ZM99.9401 182.029C99.5801 182.029 99.2801 181.909 99.0601 181.669C98.6301 181.189 98.2501 180.349 98.3801 179.549C98.5001 178.839 99.1201 178.589 99.6801 178.359C99.8601 178.289 100.06 178.209 100.27 178.109C100.56 177.969 100.9 177.969 101.18 178.119C101.46 178.269 101.66 178.549 101.7 178.859C101.73 179.069 101.77 179.259 101.81 179.429C101.92 179.929 102.03 180.449 101.81 180.989C101.52 181.709 100.56 181.939 100.27 181.989C100.15 182.009 100.03 182.019 99.9301 182.019L99.9401 182.029ZM171.99 160.469C171.16 160.469 170.31 160.219 169.51 159.719C169.28 159.569 169.06 159.409 168.85 159.209C167.61 158.039 167.22 156.279 167.83 154.609C168.44 152.919 169.95 151.769 171.66 151.679C172.29 151.649 172.81 151.719 173.28 151.899C174.9 152.519 176.14 155.559 175.79 157.229C175.5 158.599 174.67 159.669 173.51 160.169C173.03 160.379 172.51 160.479 171.98 160.479L171.99 160.469ZM171.96 153.669C171.9 153.669 171.84 153.669 171.78 153.669C170.67 153.729 169.98 154.549 169.71 155.289C169.37 156.209 169.56 157.129 170.22 157.749C170.33 157.849 170.45 157.949 170.57 158.019C171.31 158.479 172.1 158.589 172.74 158.319C173.3 158.079 173.7 157.539 173.85 156.809C174.04 155.889 173.08 153.949 172.58 153.759C172.41 153.699 172.21 153.659 171.96 153.659V153.669ZM143.92 149.439C143.64 149.439 143.37 149.409 143.09 149.329C141.88 148.999 141.22 147.019 141.1 146.629C140.81 145.669 140.84 145.029 141.22 144.589C142.3 143.339 144.22 142.459 145.71 142.539C146.74 142.599 147.26 143.609 147.97 145.019C148.25 145.579 148.57 146.209 148.94 146.819C149.11 147.089 149.13 147.419 149.01 147.719C148.89 148.009 148.64 148.229 148.33 148.309C147.7 148.469 147.12 148.659 146.57 148.839C145.61 149.159 144.75 149.439 143.92 149.439ZM143.7 147.419C144.21 147.509 145.02 147.239 145.94 146.939C146.15 146.869 146.37 146.799 146.59 146.729C146.44 146.449 146.3 146.179 146.18 145.919C145.93 145.429 145.61 144.789 145.41 144.539C144.62 144.569 143.57 145.059 142.92 145.699C143 146.199 143.43 147.139 143.71 147.419H143.7ZM162.64 141.189C162.41 141.189 162.17 141.139 161.95 141.009C160.73 140.279 159.03 138.479 159.09 136.779C159.13 135.679 160.11 134.929 161.36 133.969C161.9 133.549 162.52 133.079 163.14 132.519C163.39 132.289 163.73 132.209 164.06 132.289C164.39 132.369 164.65 132.619 164.76 132.939C165.03 133.719 165.31 134.399 165.56 134.999C166.11 136.329 166.55 137.369 166.32 138.439C166.06 139.649 164.34 140.639 163.7 140.919C163.41 141.049 163.03 141.179 162.64 141.179V141.189ZM163.36 134.939C163.08 135.159 162.82 135.359 162.57 135.549C161.98 135.999 161.17 136.619 161.08 136.879C161.07 137.429 161.88 138.529 162.76 139.139C163.25 138.969 164.22 138.309 164.37 137.969C164.45 137.559 164.12 136.759 163.7 135.759C163.59 135.499 163.48 135.219 163.36 134.929V134.939ZM117.15 137.919C117.01 137.919 116.87 137.889 116.71 137.829C116.18 137.599 115.8 137.219 115.46 136.879C115.35 136.769 115.24 136.659 115.12 136.549C114.9 136.359 114.78 136.079 114.79 135.789C114.79 135.499 114.93 135.219 115.15 135.039L116.34 134.039C116.55 133.869 116.8 133.789 117.08 133.809C117.35 133.839 117.59 133.969 117.76 134.179L118.86 135.549C119.03 135.759 119.11 136.019 119.08 136.289C119.05 136.559 118.92 136.799 118.71 136.959C118.63 137.029 118.54 137.119 118.44 137.209C118.11 137.529 117.69 137.929 117.16 137.929L117.15 137.919ZM135.36 129.739C135.1 129.739 134.84 129.679 134.61 129.539C134.03 129.159 133.69 128.609 133.27 127.909C133.09 127.619 132.89 127.289 132.64 126.909C132.45 126.629 132.42 126.269 132.55 125.959C132.68 125.649 132.97 125.419 133.3 125.369C133.76 125.289 134.17 125.189 134.53 125.089C135.46 124.849 136.26 124.649 136.9 125.179C137.81 125.939 137.82 127.529 137.7 128.269C137.62 128.759 137.24 129.149 136.55 129.459C136.21 129.609 135.78 129.749 135.36 129.749V129.739ZM135.07 127.009C135.24 127.299 135.39 127.539 135.53 127.699C135.61 127.679 135.69 127.639 135.76 127.609C135.76 127.329 135.73 127.049 135.68 126.869C135.5 126.899 135.27 126.959 135.07 127.009ZM142.65 123.799C142.23 123.799 141.82 123.659 141.46 123.389C140.79 122.889 140.45 121.639 140.77 120.869C141.02 120.279 141.56 120.019 142.08 119.779C142.26 119.689 142.47 119.599 142.68 119.479C142.95 119.319 143.28 119.299 143.57 119.429C143.86 119.549 144.07 119.809 144.15 120.109C144.21 120.349 144.28 120.569 144.34 120.759C144.51 121.269 144.68 121.789 144.51 122.359C144.31 123.019 143.85 123.509 143.24 123.709C143.05 123.769 142.85 123.809 142.65 123.809V123.799ZM132.76 119.979C132.59 119.979 132.41 119.929 132.26 119.849C132.02 119.709 131.85 119.479 131.79 119.209C131.77 119.119 131.74 119.019 131.71 118.929C131.59 118.559 131.45 118.099 131.56 117.589C131.71 116.939 132.27 116.709 132.73 116.519C132.87 116.459 133.03 116.399 133.19 116.319C133.49 116.169 133.84 116.179 134.13 116.339C134.42 116.499 134.61 116.799 134.64 117.129C134.66 117.319 134.68 117.489 134.71 117.649C134.78 118.099 134.86 118.569 134.65 119.059C134.39 119.699 133.73 119.819 133.3 119.899C133.21 119.919 133.13 119.929 133.05 119.949C132.96 119.979 132.86 119.989 132.76 119.989V119.979ZM139.19 116.989C139.01 116.989 138.84 116.939 138.68 116.849C138.44 116.709 138.27 116.479 138.21 116.209C138.19 116.139 138.17 116.069 138.14 115.989C138.03 115.659 137.88 115.209 138.03 114.699C138.16 114.249 138.45 113.959 138.75 113.639C138.87 113.519 139 113.379 139.15 113.209C139.4 112.919 139.79 112.799 140.15 112.889C140.52 112.979 140.8 113.269 140.88 113.649C140.97 114.069 141.06 114.389 141.13 114.649C141.3 115.269 141.47 115.909 140.92 116.389C140.54 116.719 140.09 116.809 139.72 116.889C139.63 116.909 139.54 116.929 139.45 116.949C139.36 116.979 139.27 116.989 139.17 116.989H139.19Z" fill="currentColor"/>
<path d="M135.169 164.481L135.059 163.551C134.539 163.391 134.009 163.241 133.489 163.081L132.029 162.641C131.769 162.561 131.499 162.471 131.239 162.401C131.139 162.371 131.019 162.361 130.909 162.351C130.609 162.311 130.239 162.271 129.869 162.081C128.839 161.551 127.749 161.171 126.589 160.761C124.889 160.171 123.119 159.551 121.549 158.421C119.849 158.031 118.429 157.161 117.049 156.321C116.199 155.801 115.399 155.311 114.549 154.931C114.469 154.901 114.389 154.861 114.309 154.831C114.059 154.731 113.769 154.621 113.479 154.421C111.209 152.851 108.939 151.271 106.689 149.671C105.669 148.941 104.929 148.331 104.289 147.691C103.729 147.131 103.209 146.521 102.709 145.941C102.409 145.591 102.109 145.241 101.799 144.901C101.399 144.461 100.969 144.031 100.509 143.611C100.129 143.271 99.7493 142.941 99.3593 142.611C98.8593 142.181 98.3493 141.741 97.8593 141.291C97.5693 141.021 97.2993 140.721 97.0293 140.411C96.8493 140.211 96.6793 140.011 96.4893 139.821C95.7593 139.091 95.1093 138.861 94.0093 138.951L93.4493 138.991C91.9493 139.101 90.5393 139.201 89.1893 139.771C88.4293 140.101 87.6093 140.191 86.8093 140.271C86.4693 140.311 86.1193 140.351 85.7593 140.401C85.4693 140.451 85.1793 140.371 84.9593 140.181C84.7393 140.001 84.6093 139.721 84.5993 139.431V138.591C84.5793 138.061 84.5693 137.591 84.5393 137.131L84.5193 136.751C84.4893 136.271 84.4693 135.821 84.3393 135.491C83.5593 133.451 83.5493 131.391 83.6393 129.651C83.6693 129.111 83.6393 128.561 83.6293 127.981C83.6193 127.571 83.5993 127.161 83.5993 126.751V126.161C83.5993 125.411 83.5793 124.641 83.7093 123.851C83.9693 122.281 83.7993 120.831 83.1993 119.421L83.1493 119.321C83.0693 119.141 82.9493 118.891 82.9193 118.581C82.7693 117.171 82.1893 115.881 81.5893 114.511C81.1793 113.581 80.7493 112.621 80.4593 111.601C80.0793 110.301 79.7593 108.971 79.4393 107.681C79.0693 106.171 78.6893 104.611 78.2293 103.121C78.1093 102.731 78.1393 102.371 78.1593 102.101C78.1593 102.041 78.1693 101.981 78.1693 101.921C78.1693 101.641 78.2793 101.381 78.4893 101.181C78.5193 101.151 78.5493 101.121 78.5693 101.091C78.6993 100.941 79.0193 100.601 79.5393 100.601C81.0693 100.641 82.5393 100.221 84.0993 99.7907C85.4293 99.4207 86.8093 99.0307 88.2693 98.9207C88.9993 98.8707 89.0793 98.8607 89.1293 97.9507C89.2093 96.4707 89.7293 95.2007 90.8393 93.8207C91.1493 93.4307 91.4093 92.8407 91.5593 92.1507C91.8393 90.8907 92.2593 89.6007 93.4793 88.6807C94.0793 88.2207 94.3593 87.7607 94.4393 87.0707C94.6093 85.6007 95.5193 84.6007 96.3893 83.8307C96.8693 83.4007 97.4593 82.8307 97.6493 82.2807C98.1693 80.8007 98.9093 79.6907 99.9793 78.7807C100.259 78.5407 100.559 78.2907 100.629 78.1307C101.649 75.7907 103.369 74.0907 105.029 72.4507C105.589 71.9007 106.149 71.3507 106.669 70.7707C107.249 70.1307 108.129 69.6107 109.069 69.3207C109.699 69.1307 109.989 68.9107 110.189 68.4507C110.439 67.8907 110.809 67.1707 111.399 66.6507C113.189 65.0707 114.599 63.9007 115.989 62.8507C116.609 62.3807 117.279 61.8707 118.079 61.5707C118.249 61.2707 118.499 60.9707 118.869 60.8207C119.409 60.6107 119.919 60.7207 120.469 60.8507C120.669 60.8907 120.899 60.9507 121.169 60.9907C121.499 61.0407 121.789 61.2607 121.929 61.5707C122.069 61.8807 122.049 62.2407 121.859 62.5207C121.719 62.7507 121.599 62.9607 121.499 63.1607C121.209 63.7107 120.909 64.2707 120.249 64.4307C119.499 64.6107 118.689 64.1607 118.229 63.7307C117.919 63.9207 117.609 64.1507 117.289 64.4007L117.209 64.4607C115.859 65.4807 114.479 66.6307 112.739 68.1707C112.429 68.4407 112.189 68.9407 112.029 69.2907C111.449 70.5707 110.459 71.0207 109.659 71.2607C109.069 71.4407 108.489 71.7807 108.149 72.1407C107.599 72.7407 107.019 73.3107 106.439 73.8907C104.839 75.4707 103.339 76.9607 102.469 78.9507C102.209 79.5407 101.729 79.9507 101.339 80.2707C100.489 80.9907 99.9293 81.8307 99.5293 82.9607C99.1893 83.9307 98.4193 84.7007 97.7193 85.3307C96.8693 86.0907 96.4993 86.6607 96.4193 87.3207C96.2793 88.5407 95.7093 89.5107 94.6793 90.2907C94.0193 90.7907 93.7393 91.5407 93.5093 92.6007C93.3593 93.3007 93.0393 94.3007 92.3993 95.1007C91.5593 96.1407 91.1793 97.0307 91.1293 98.0807C91.0293 99.9307 90.1993 100.821 88.4193 100.941C87.1593 101.031 85.9393 101.371 84.6493 101.741C83.2193 102.141 81.7493 102.551 80.1793 102.621C80.6493 104.141 81.0293 105.711 81.3993 107.221C81.7093 108.491 82.0293 109.801 82.3893 111.061C82.6393 111.941 83.0293 112.801 83.4293 113.711C84.0693 115.161 84.7393 116.661 84.9193 118.381C84.9193 118.381 84.9593 118.441 84.9793 118.491L85.0493 118.651C85.8093 120.421 86.0193 122.231 85.6993 124.191C85.5993 124.801 85.6093 125.461 85.6093 126.161V126.781C85.6093 127.161 85.6293 127.551 85.6393 127.931C85.6593 128.531 85.6793 129.151 85.6493 129.781C85.5593 131.391 85.5693 133.121 86.2193 134.811C86.4593 135.441 86.4993 136.091 86.5293 136.671L86.5493 137.011C86.5793 137.431 86.5893 137.841 86.5993 138.301C86.5993 138.301 86.6093 138.301 86.6193 138.301C87.3293 138.221 87.9393 138.151 88.4293 137.951C90.0893 137.241 91.7393 137.121 93.3293 137.011L93.8793 136.971C95.5693 136.841 96.7793 137.281 97.9293 138.431C98.1493 138.651 98.3493 138.881 98.5593 139.121C98.7793 139.371 98.9993 139.621 99.2393 139.851C99.7093 140.291 100.199 140.701 100.679 141.121C101.079 141.461 101.469 141.801 101.859 142.151C102.369 142.611 102.859 143.091 103.299 143.581C103.619 143.941 103.929 144.301 104.249 144.671C104.739 145.251 105.209 145.801 105.719 146.311C106.279 146.871 106.939 147.421 107.869 148.081C110.109 149.681 112.369 151.251 114.629 152.821C114.719 152.881 114.869 152.941 115.039 153.001C115.149 153.041 115.259 153.081 115.359 153.131C116.339 153.561 117.239 154.111 118.109 154.641C119.449 155.461 120.709 156.231 122.159 156.531C122.449 156.591 122.639 156.751 122.709 156.811C124.049 157.781 125.609 158.321 127.249 158.901C127.259 158.901 127.279 158.911 127.289 158.921C127.329 158.851 127.379 158.791 127.429 158.721C127.499 158.631 127.579 158.521 127.659 158.381C127.849 158.071 128.199 157.901 128.559 157.921C128.919 157.941 129.249 158.161 129.399 158.481C129.469 158.631 129.539 158.751 129.599 158.851C129.759 159.141 129.959 159.481 129.929 159.921C130.219 160.051 130.509 160.181 130.789 160.331C130.839 160.351 131.029 160.381 131.149 160.391C131.349 160.411 131.549 160.441 131.739 160.491C132.039 160.571 132.349 160.661 132.649 160.761L134.069 161.191C134.229 161.241 134.389 161.291 134.549 161.331L134.569 161.101C135.079 161.141 135.619 161.401 136.029 161.771C136.489 161.911 136.949 162.041 137.409 162.171L136.859 164.091C136.609 164.021 136.349 163.941 136.099 163.871C135.889 164.171 135.589 164.441 135.179 164.491L135.169 164.481ZM137.999 158.111C137.329 158.111 136.489 157.881 136.099 157.271C135.739 156.701 135.909 156.091 136.059 155.501C136.109 155.291 136.179 155.061 136.229 154.801C136.289 154.471 136.509 154.191 136.819 154.061C137.129 153.931 137.479 153.961 137.759 154.141C137.969 154.281 138.169 154.391 138.349 154.491C138.829 154.761 139.289 155.011 139.559 155.531C139.889 156.181 139.559 156.991 139.439 157.231C139.209 157.711 138.889 158.001 138.479 158.081C138.339 158.111 138.179 158.121 138.009 158.121L137.999 158.111ZM131.789 155.161C131.709 155.161 131.619 155.151 131.539 155.131C131.459 155.111 131.379 155.101 131.289 155.091C130.859 155.031 130.199 154.931 129.909 154.301C129.689 153.821 129.739 153.351 129.789 152.891C129.809 152.741 129.829 152.561 129.829 152.381C129.839 152.051 130.019 151.751 130.289 151.581C130.569 151.401 130.909 151.381 131.209 151.501C131.379 151.571 131.549 151.631 131.699 151.681C132.189 151.841 132.789 152.041 132.959 152.711C133.089 153.231 132.959 153.701 132.839 154.081C132.809 154.181 132.779 154.271 132.759 154.371C132.699 154.641 132.539 154.871 132.309 155.021C132.149 155.121 131.969 155.171 131.779 155.171L131.789 155.161ZM125.229 151.991C124.879 151.991 124.579 151.851 124.339 151.731C124.239 151.691 124.139 151.631 124.019 151.591C123.729 151.481 123.509 151.251 123.409 150.961C123.309 150.671 123.359 150.351 123.529 150.091C123.609 149.981 123.669 149.861 123.739 149.751C123.959 149.381 124.319 148.771 125.059 148.861C125.499 148.921 125.839 149.141 126.099 149.311C126.169 149.351 126.229 149.391 126.299 149.431C126.549 149.571 126.719 149.811 126.789 150.081C126.849 150.361 126.789 150.651 126.629 150.881C126.599 150.921 126.569 150.981 126.539 151.031C126.379 151.311 126.139 151.741 125.629 151.911C125.489 151.961 125.349 151.981 125.219 151.981L125.229 151.991ZM134.869 148.961H134.829C134.209 148.941 133.709 148.631 133.299 148.381C133.179 148.311 133.059 148.231 132.939 148.171C132.699 148.051 132.519 147.831 132.439 147.571C132.359 147.311 132.389 147.031 132.519 146.801C132.579 146.701 132.619 146.581 132.669 146.461C132.859 146.021 133.119 145.411 133.719 145.141C134.339 144.861 134.929 145.131 135.459 145.361C135.639 145.441 135.839 145.531 136.059 145.601C136.349 145.701 136.569 145.921 136.679 146.201C136.789 146.481 136.749 146.801 136.599 147.061C136.479 147.271 136.369 147.481 136.269 147.681C135.969 148.281 135.619 148.951 134.859 148.951L134.869 148.961ZM128.449 145.861C128.399 145.861 128.349 145.861 128.299 145.851C127.669 145.761 126.839 145.361 126.419 144.671C126.049 144.051 126.369 143.461 126.649 142.931C126.739 142.761 126.839 142.571 126.939 142.361C127.069 142.071 127.329 141.851 127.639 141.781C127.949 141.711 128.279 141.801 128.519 142.011C128.679 142.151 128.829 142.271 128.969 142.381C129.379 142.701 129.799 143.021 129.979 143.571C130.219 144.321 129.629 145.101 129.439 145.331C129.139 145.691 128.809 145.871 128.449 145.871V145.861ZM112.759 101.031C112.519 101.031 112.289 101.011 112.069 100.991C111.909 100.981 111.759 100.961 111.589 100.961C111.299 100.961 111.029 100.821 110.839 100.591C110.659 100.361 110.579 100.071 110.629 99.7807L110.899 98.2507C110.949 97.9907 111.099 97.7507 111.319 97.6007C111.539 97.4507 111.809 97.3907 112.079 97.4407L113.799 97.7807C114.059 97.8307 114.289 97.9907 114.439 98.2107C114.589 98.4307 114.639 98.7007 114.589 98.9607C114.569 99.0607 114.559 99.1907 114.539 99.3207C114.479 99.8907 114.389 100.681 113.619 100.911C113.329 101.001 113.029 101.031 112.749 101.031H112.759ZM140.539 92.9107C139.479 92.9107 138.259 92.1607 137.979 91.9807C137.139 91.4407 136.749 90.9207 136.759 90.3407C136.779 88.6907 137.689 86.7707 138.879 85.8907C139.709 85.2707 140.759 85.7207 142.199 86.3307C142.769 86.5807 143.429 86.8507 144.099 87.0807C144.399 87.1807 144.639 87.4207 144.729 87.7207C144.819 88.0207 144.769 88.3507 144.589 88.6107C144.209 89.1407 143.889 89.6607 143.579 90.1507C142.869 91.3007 142.249 92.2907 141.239 92.7607C141.019 92.8607 140.779 92.9007 140.539 92.9007V92.9107ZM138.769 90.1007C139.149 90.4307 140.089 90.8807 140.479 90.9107C140.929 90.6407 141.369 89.9307 141.889 89.1007C142.009 88.9107 142.129 88.7207 142.259 88.5207C141.969 88.4007 141.689 88.2807 141.419 88.1707C140.919 87.9607 140.249 87.6707 139.939 87.6107C139.359 88.1407 138.869 89.1907 138.779 90.1007H138.769ZM167.569 83.7907C167.489 83.7907 167.399 83.7907 167.309 83.7907C165.609 83.6907 164.179 82.6007 163.569 80.9207C162.959 79.2307 163.369 77.3807 164.619 76.2107C165.069 75.7907 165.519 75.5007 166.009 75.3307C167.649 74.7607 170.549 76.2907 171.359 77.8007C172.019 79.0307 172.069 80.3907 171.499 81.5207C170.889 82.7307 169.669 83.5407 168.149 83.7607C167.959 83.7907 167.759 83.8007 167.569 83.8007V83.7907ZM166.839 77.1907C166.769 77.1907 166.719 77.1907 166.669 77.2107C166.459 77.2807 166.239 77.4307 165.999 77.6507C165.189 78.4107 165.189 79.4807 165.459 80.2207C165.799 81.1407 166.529 81.7207 167.429 81.7707C167.579 81.7707 167.729 81.7707 167.869 81.7507C168.729 81.6307 169.409 81.2007 169.719 80.5907C169.999 80.0407 169.959 79.3807 169.599 78.7207C169.199 77.9707 167.509 77.1807 166.829 77.1807L166.839 77.1907ZM121.699 83.0807C121.129 83.0807 120.599 82.8907 119.939 82.6707C119.619 82.5607 119.249 82.4307 118.819 82.3107C118.489 82.2207 118.239 81.9607 118.139 81.6407C118.039 81.3207 118.109 80.9607 118.329 80.7007C118.629 80.3507 118.879 80.0007 119.099 79.7007C119.659 78.9207 120.149 78.2507 120.969 78.2407C122.149 78.2407 123.179 79.4507 123.559 80.0907C123.809 80.5207 123.779 81.0607 123.439 81.7407C123.169 82.2907 122.699 82.9707 122.009 83.0507C121.899 83.0607 121.799 83.0707 121.689 83.0707L121.699 83.0807ZM120.749 80.8307C121.069 80.9407 121.339 81.0307 121.539 81.0607C121.579 80.9907 121.629 80.9207 121.659 80.8407C121.479 80.6207 121.279 80.4307 121.119 80.3207C121.009 80.4607 120.859 80.6607 120.739 80.8207L120.749 80.8307ZM113.819 77.1607C113.599 77.1607 113.389 77.0907 113.219 76.9607C113.139 76.9007 113.059 76.8507 112.979 76.8007C112.649 76.5907 112.249 76.3407 112.009 75.8707C111.709 75.2807 111.989 74.7407 112.219 74.3007C112.289 74.1707 112.369 74.0207 112.439 73.8507C112.569 73.5507 112.839 73.3207 113.169 73.2607C113.499 73.1907 113.829 73.3007 114.069 73.5307C114.209 73.6607 114.339 73.7807 114.459 73.8807C114.809 74.1807 115.169 74.4907 115.319 75.0007C115.529 75.6607 115.109 76.1707 114.829 76.5107C114.769 76.5807 114.709 76.6507 114.669 76.7107C114.519 76.9407 114.279 77.1007 113.999 77.1507C113.939 77.1507 113.879 77.1607 113.829 77.1607H113.819ZM149.399 74.3307C148.019 74.3307 146.269 73.9307 145.429 72.8607C144.749 71.9907 145.019 70.7807 145.359 69.2507C145.509 68.5807 145.679 67.8207 145.789 67.0007C145.839 66.6707 146.049 66.3807 146.349 66.2307C146.659 66.0907 147.009 66.1007 147.299 66.2807C148.009 66.7107 148.659 67.0407 149.239 67.3407C150.519 68.0007 151.529 68.5207 152.039 69.4807C152.619 70.5707 151.939 72.4407 151.619 73.0707C151.389 73.5307 151.009 74.1407 150.339 74.2507C150.059 74.2907 149.739 74.3207 149.399 74.3207V74.3307ZM147.519 68.7107C147.449 69.0507 147.379 69.3807 147.309 69.6907C147.149 70.4207 146.929 71.4107 147.019 71.6707C147.359 72.1007 148.689 72.4207 149.759 72.3307C150.019 71.8807 150.339 70.7507 150.249 70.4007C150.049 70.0307 149.289 69.6407 148.319 69.1407C148.069 69.0107 147.799 68.8707 147.519 68.7207V68.7107ZM123.239 73.9507C122.409 73.9507 121.409 73.2407 121.169 72.4607C120.979 71.8507 121.229 71.3007 121.469 70.7807C121.549 70.6007 121.649 70.3907 121.729 70.1607C121.839 69.8607 122.079 69.6407 122.379 69.5407C122.679 69.4507 123.009 69.5107 123.259 69.6907C123.459 69.8407 123.649 69.9607 123.819 70.0607C124.269 70.3407 124.739 70.6307 124.979 71.1807C125.249 71.8107 125.209 72.4807 124.879 73.0307C124.549 73.5707 123.979 73.9007 123.309 73.9407C123.279 73.9407 123.259 73.9407 123.229 73.9407L123.239 73.9507ZM116.829 70.7307C116.609 70.7307 116.399 70.6607 116.229 70.5307C116.169 70.4907 116.099 70.4507 116.039 70.4107C115.739 70.2307 115.339 69.9807 115.129 69.5007C114.949 69.0707 114.969 68.6607 114.999 68.2207C115.009 68.0507 115.029 67.8607 115.029 67.6307C115.029 67.2507 115.249 66.9107 115.589 66.7407C115.929 66.5707 116.339 66.6207 116.639 66.8507C116.979 67.1107 117.259 67.3107 117.469 67.4607C117.999 67.8307 118.539 68.2007 118.419 68.9207C118.339 69.4207 118.049 69.7807 117.819 70.0807C117.759 70.1507 117.699 70.2307 117.649 70.3007C117.499 70.5307 117.259 70.6807 116.979 70.7307C116.929 70.7307 116.869 70.7407 116.819 70.7407L116.829 70.7307Z" fill="currentColor"/>
<path d="M90.8601 123.141C90.5701 123.141 90.3001 123.021 90.1101 122.801L89.5601 122.171C89.2101 121.761 88.9101 121.411 88.5801 121.081L88.3201 120.801C87.9901 120.451 87.6901 120.131 87.3701 119.951C85.4601 118.891 84.1301 117.321 83.0801 115.921C82.7501 115.491 82.3801 115.081 81.9901 114.651C81.7201 114.351 81.4401 114.041 81.1801 113.731L80.8001 113.281C80.3102 112.711 79.8102 112.121 79.4102 111.441C78.6002 110.071 77.5401 109.071 76.1701 108.381L76.0701 108.331C75.8901 108.241 75.6401 108.131 75.4101 107.911C74.3902 106.931 73.1201 106.311 71.7801 105.651C70.8701 105.201 69.9201 104.741 69.0401 104.151C67.9201 103.401 66.8201 102.591 65.7501 101.811C64.5001 100.891 63.2001 99.9412 61.8801 99.0912C61.5401 98.8712 61.3301 98.5713 61.1701 98.3512C61.1301 98.3012 61.1001 98.2513 61.0701 98.2113C60.8901 98.0013 60.8101 97.7212 60.8401 97.4512C60.8401 97.4112 60.8401 97.3713 60.8401 97.3313C60.8401 97.1113 60.8601 96.6613 61.2601 96.3313C62.4601 95.3713 63.3201 94.1113 64.2301 92.7812C65.0101 91.6413 65.8201 90.4512 66.8701 89.4313C67.4001 88.9212 67.4501 88.8713 66.9001 88.1413C66.0101 86.9613 65.5901 85.6413 65.5601 83.8812C65.5601 83.3812 65.3601 82.7713 65.0401 82.1413C64.4401 81.0013 63.9401 79.7413 64.2801 78.2513C64.4501 77.5113 64.3601 76.9713 63.9901 76.4013C63.1801 75.1613 63.2301 73.8113 63.4001 72.6613C63.4901 72.0113 63.5701 71.2013 63.3701 70.6713C62.8201 69.2013 62.6701 67.8813 62.9101 66.4913C62.9701 66.1313 63.0401 65.7413 62.9901 65.5713C62.2701 63.1213 62.4901 60.7213 62.7101 58.3913C62.7801 57.6113 62.8501 56.8313 62.8901 56.0513C62.9301 55.1913 63.2601 54.2213 63.8001 53.4013C64.1601 52.8513 64.2401 52.5013 64.1001 52.0113C63.9401 51.4713 63.7501 50.6513 63.8701 49.8513C64.2201 47.5313 64.5601 45.6713 64.9401 43.9913L64.9601 43.8913C65.1201 43.1913 65.3001 42.4013 65.7101 41.6613C65.6501 41.3213 65.6501 40.9313 65.8301 40.5913C66.1101 40.0813 66.5801 39.8413 67.0701 39.5813C67.2501 39.4813 67.4601 39.3813 67.6901 39.2413C67.9801 39.0713 68.3401 39.0513 68.6401 39.1913C68.9401 39.3413 69.1501 39.6313 69.2001 39.9613C69.2401 40.2313 69.2901 40.4713 69.3301 40.6813C69.4601 41.2813 69.5901 41.9113 69.1901 42.4513C68.7201 43.0713 67.8301 43.2313 67.1901 43.2213C67.0701 43.5613 66.9901 43.9413 66.9001 44.3313L66.8801 44.4313C66.5101 46.0613 66.1801 47.8713 65.8401 50.1413C65.7801 50.5513 65.9101 51.0813 66.0101 51.4513C66.3901 52.8113 65.9201 53.7813 65.4601 54.4813C65.1201 55.0013 64.9001 55.6313 64.8801 56.1313C64.8401 56.9413 64.7701 57.7513 64.6901 58.5713C64.4801 60.8113 64.2901 62.9213 64.9001 65.0013C65.0801 65.6213 64.9701 66.2413 64.8901 66.7413C64.7001 67.8413 64.8201 68.8413 65.2401 69.9613C65.6001 70.9213 65.5101 72.0013 65.3801 72.9413C65.2201 74.0713 65.3001 74.7513 65.6602 75.3013C66.3302 76.3213 66.5201 77.4313 66.2301 78.7013C66.0501 79.5113 66.3201 80.2613 66.8201 81.2213C67.1501 81.8513 67.5501 82.8213 67.5701 83.8512C67.6001 85.1912 67.8801 86.1113 68.5101 86.9512C69.6301 88.4313 69.5601 89.6513 68.2801 90.8913C67.3701 91.7712 66.6601 92.8213 65.9001 93.9313C65.0701 95.1513 64.2001 96.4213 63.0401 97.4813C64.3801 98.3513 65.6801 99.3013 66.9401 100.231C67.9901 101.001 69.0701 101.801 70.1601 102.531C70.9301 103.041 71.7701 103.461 72.6601 103.891C74.0801 104.591 75.5601 105.311 76.8001 106.501C76.8101 106.501 76.8701 106.521 76.9201 106.551L77.0701 106.621C78.7901 107.491 80.1201 108.741 81.1301 110.451C81.4501 110.981 81.8701 111.481 82.3201 112.011L82.7201 112.481C82.9701 112.771 83.2201 113.061 83.4802 113.341C83.8801 113.791 84.3001 114.251 84.6801 114.751C85.6501 116.041 86.7701 117.361 88.3501 118.241C88.9301 118.571 89.3901 119.041 89.7801 119.471L90.0201 119.721C90.3101 120.021 90.5901 120.331 90.8901 120.681H90.9001C91.3901 120.151 91.8201 119.711 92.0601 119.231C92.8701 117.621 94.0601 116.471 95.2101 115.361L95.6101 114.971C96.8201 113.781 98.0301 113.341 99.6501 113.481C99.9601 113.511 100.27 113.551 100.58 113.601C100.91 113.651 101.24 113.701 101.57 113.721C102.2 113.751 102.84 113.761 103.48 113.761C104.01 113.761 104.53 113.771 105.06 113.791C105.75 113.811 106.43 113.871 107.08 113.961C107.55 114.031 108.03 114.101 108.5 114.181C109.25 114.311 109.96 114.431 110.68 114.491C111.46 114.561 112.34 114.551 113.46 114.461C116.1 114.261 118.75 114.011 121.68 113.741C121.79 113.741 121.94 113.681 122.11 113.621C122.22 113.581 122.33 113.551 122.43 113.511C123.46 113.211 124.5 113.051 125.51 112.901C127.06 112.671 128.52 112.451 129.83 111.751C130.09 111.611 130.34 111.611 130.45 111.611C132.09 111.491 133.63 110.911 135.26 110.291C135.27 110.291 135.29 110.281 135.3 110.271C135.3 110.191 135.28 110.111 135.28 110.031C135.28 109.911 135.26 109.781 135.24 109.621C135.19 109.261 135.34 108.901 135.63 108.691C135.92 108.471 136.31 108.431 136.64 108.581C136.79 108.651 136.92 108.701 137.03 108.741C137.34 108.851 137.71 108.991 137.96 109.351C138.26 109.261 138.57 109.181 138.88 109.111C138.94 109.091 139.09 108.991 139.19 108.931C139.36 108.821 139.52 108.711 139.7 108.631C139.98 108.491 140.27 108.381 140.56 108.261L142.03 107.631C142.15 107.581 142.27 107.531 142.39 107.471L142.26 107.281C142.68 106.991 143.26 106.831 143.81 106.851C144.25 106.661 144.69 106.471 145.12 106.271L145.93 108.101C145.69 108.211 145.44 108.311 145.2 108.421C145.23 108.781 145.18 109.191 144.89 109.491L144.21 108.851C143.74 109.051 143.27 109.261 142.8 109.461L141.3 110.101C141.05 110.201 140.8 110.311 140.55 110.431C140.45 110.481 140.36 110.541 140.27 110.601C140.02 110.771 139.7 110.971 139.3 111.061C138.17 111.311 137.09 111.731 135.94 112.161C134.25 112.801 132.51 113.461 130.57 113.611C129.01 114.401 127.36 114.651 125.78 114.891C124.79 115.041 123.86 115.181 122.97 115.441C122.89 115.461 122.81 115.491 122.73 115.521C122.47 115.611 122.18 115.711 121.83 115.741C118.89 116.011 116.23 116.261 113.57 116.461C112.34 116.551 111.35 116.561 110.46 116.481C109.66 116.411 108.88 116.281 108.12 116.151C107.67 116.071 107.21 116.001 106.76 115.931C106.17 115.851 105.56 115.801 104.94 115.771C104.43 115.751 103.92 115.751 103.4 115.741C102.74 115.741 102.08 115.731 101.42 115.691C101.02 115.671 100.62 115.611 100.22 115.551C99.9601 115.511 99.6901 115.471 99.4201 115.441C98.3801 115.351 97.7501 115.591 96.9601 116.371L96.5501 116.771C95.4701 117.811 94.4501 118.801 93.8001 120.101C93.4301 120.841 92.8601 121.441 92.3001 122.021C92.0602 122.271 91.8201 122.521 91.5801 122.801C91.3901 123.021 91.1201 123.151 90.8301 123.151L90.8601 123.141ZM127.76 106.831C127.57 106.831 127.39 106.781 127.23 106.681C126.97 106.521 126.8 106.241 126.77 105.941C126.76 105.801 126.73 105.671 126.71 105.551C126.64 105.121 126.51 104.411 127.15 104.011C127.53 103.771 127.92 103.721 128.24 103.681C128.32 103.681 128.39 103.661 128.47 103.651C128.75 103.591 129.04 103.671 129.26 103.841C129.48 104.011 129.63 104.271 129.65 104.551C129.65 104.601 129.67 104.661 129.68 104.721C129.74 105.041 129.83 105.521 129.55 105.981C129.27 106.451 128.79 106.581 128.44 106.671C128.34 106.701 128.22 106.731 128.11 106.771C128 106.811 127.89 106.831 127.77 106.831H127.76ZM134.84 105.171C134.68 105.171 134.51 105.141 134.34 105.061C133.87 104.841 133.6 104.451 133.35 104.071C133.26 103.941 133.17 103.801 133.05 103.651C132.85 103.391 132.79 103.051 132.89 102.741C132.99 102.431 133.24 102.181 133.55 102.091C133.73 102.041 133.89 101.971 134.04 101.911C134.52 101.721 135.11 101.481 135.67 101.881C136.11 102.191 136.31 102.641 136.46 103.001C136.5 103.091 136.54 103.191 136.59 103.271C136.72 103.511 136.75 103.801 136.66 104.061C136.57 104.321 136.39 104.531 136.14 104.651C136.07 104.681 135.99 104.731 135.92 104.781C135.65 104.951 135.27 105.181 134.85 105.181L134.84 105.171ZM141.44 103.421C141.29 103.421 141.14 103.401 141 103.351C140.36 103.151 140.09 102.571 139.83 102.021C139.74 101.831 139.64 101.601 139.51 101.381C139.34 101.091 139.34 100.741 139.49 100.441C139.64 100.141 139.93 99.9413 140.26 99.9013C140.51 99.8713 140.73 99.8213 140.93 99.7913C141.47 99.6813 141.99 99.5912 142.52 99.8112C143.19 100.091 143.45 100.941 143.52 101.191C143.65 101.711 143.59 102.141 143.34 102.461C142.98 102.911 142.2 103.441 141.45 103.441L141.44 103.421ZM126.21 100.031C125.97 100.031 125.72 99.9913 125.49 99.9113C124.81 99.6713 124.67 99.0113 124.55 98.4313C124.51 98.2412 124.47 98.0312 124.4 97.8112C124.31 97.5013 124.37 97.1712 124.57 96.9212C124.77 96.6712 125.07 96.5113 125.39 96.5312C125.6 96.5312 125.79 96.5312 125.97 96.5312C126.49 96.5113 127.02 96.4913 127.51 96.8013C128.17 97.2113 128.22 98.1913 128.22 98.4813C128.22 99.0213 128.04 99.4012 127.68 99.6312C127.3 99.8712 126.76 100.051 126.21 100.051V100.031ZM132.52 98.4313C132.33 98.4313 132.14 98.3712 131.97 98.2712C131.74 98.1212 131.59 97.8913 131.53 97.6312C131.51 97.5212 131.47 97.3913 131.43 97.2712C131.29 96.8112 131.1 96.1813 131.39 95.5813C131.68 94.9713 132.31 94.7913 132.86 94.6312C133.05 94.5713 133.26 94.5113 133.48 94.4313C133.76 94.3213 134.08 94.3512 134.34 94.5013C134.6 94.6513 134.78 94.9112 134.83 95.2113C134.87 95.4512 134.92 95.6813 134.97 95.9013C135.12 96.5713 135.3 97.3213 134.68 97.8112C134.2 98.1912 133.61 98.2812 133.14 98.3512C133 98.3712 132.86 98.3913 132.73 98.4212C132.66 98.4412 132.58 98.4413 132.51 98.4413L132.52 98.4313ZM85.4201 76.1813C85.3601 76.1813 85.2901 76.1813 85.2302 76.1613C84.9401 76.1013 84.7001 75.9313 84.5501 75.6813L83.7701 74.3313C83.6401 74.1013 83.6001 73.8213 83.6701 73.5613C83.7401 73.3013 83.9201 73.0813 84.1501 72.9513L85.6801 72.1013C85.9101 71.9713 86.1901 71.9412 86.4401 72.0213C86.7001 72.0913 86.9101 72.2713 87.0401 72.5013C87.0901 72.5913 87.1602 72.7013 87.2302 72.8113C87.5501 73.2913 87.9902 73.9513 87.5501 74.6113C87.2402 75.0913 86.7901 75.4013 86.4001 75.6813C86.2701 75.7713 86.1401 75.8613 86.0101 75.9613C85.8301 76.1013 85.6101 76.1813 85.3901 76.1813H85.4201ZM79.1801 57.1213C78.9901 57.1213 78.8001 57.0713 78.6301 56.9613C78.3501 56.7713 78.1701 56.4613 78.1801 56.1213C78.1801 55.6613 78.1502 55.2313 78.1201 54.8613C78.0501 53.9013 77.9902 53.0813 78.6201 52.5413C79.5201 51.7813 81.0902 52.0413 81.8001 52.2913C82.2701 52.4613 82.5901 52.8913 82.7701 53.6213C82.9201 54.2213 83.0001 55.0413 82.5201 55.5513C82.0501 56.0613 81.4401 56.2913 80.6801 56.5913C80.3601 56.7113 80.0001 56.8513 79.5901 57.0313C79.4601 57.0913 79.3201 57.1213 79.1801 57.1213ZM80.0801 54.0413C80.0801 54.2213 80.1001 54.4613 80.1201 54.6713C80.4301 54.5513 80.7001 54.4413 80.8701 54.3413C80.8601 54.2613 80.8401 54.1713 80.8201 54.1013C80.5401 54.0413 80.2701 54.0313 80.0801 54.0513V54.0413ZM70.9701 56.6313C70.7301 56.6313 70.4701 56.6013 70.2101 56.4913C69.6001 56.2413 69.4701 55.6413 69.3701 55.1613C69.3401 55.0113 69.3001 54.8513 69.2501 54.6713C69.1501 54.3513 69.2201 54.0113 69.4301 53.7513C69.6401 53.4913 69.9501 53.3513 70.2901 53.3813C70.4801 53.4013 70.6501 53.4013 70.8101 53.4013C71.2701 53.4013 71.7401 53.4213 72.1901 53.7013C72.7701 54.0813 72.7801 54.7413 72.7901 55.1713C72.7901 55.2613 72.7901 55.3513 72.7901 55.4213C72.8201 55.7013 72.7401 55.9713 72.5601 56.1913C72.3801 56.4113 72.1201 56.5313 71.8501 56.5513C71.7601 56.5513 71.6601 56.5713 71.5601 56.5813C71.3901 56.6013 71.1801 56.6313 70.9701 56.6313ZM99.8601 52.1813C99.2101 52.1813 98.7701 52.0113 98.4801 51.6613C97.4301 50.3813 96.9001 48.3313 97.2401 46.8813C97.4801 45.8713 98.5701 45.5413 100.07 45.0913C100.67 44.9113 101.34 44.7013 102.01 44.4413C102.31 44.3213 102.64 44.3613 102.91 44.5313C103.18 44.7013 103.35 44.9913 103.37 45.3013C103.42 45.9513 103.5 46.5513 103.59 47.1313C103.78 48.4713 103.95 49.6213 103.47 50.6413C102.94 51.7713 100.87 52.0813 100.47 52.1313C100.25 52.1613 100.04 52.1713 99.8601 52.1713V52.1813ZM99.8601 50.1913H99.8801C100.39 50.1913 101.38 49.9413 101.7 49.7213C101.87 49.2313 101.75 48.3913 101.62 47.4313C101.59 47.2113 101.56 46.9913 101.53 46.7513C101.23 46.8513 100.94 46.9313 100.67 47.0213C100.15 47.1813 99.4501 47.3913 99.1701 47.5413C99.0601 48.3213 99.3701 49.4413 99.8801 50.2013L99.8601 50.1913ZM69.2401 49.7813C69.0101 49.7813 68.7501 49.7413 68.5001 49.6113C68.0801 49.4013 67.8401 49.0713 67.5801 48.7113C67.4801 48.5713 67.3701 48.4213 67.2201 48.2413C66.9801 47.9513 66.9301 47.5413 67.0801 47.2013C67.2401 46.8513 67.5701 46.6213 67.9501 46.6113C68.3701 46.5913 68.7101 46.5613 68.9801 46.5413C69.6201 46.4813 70.2801 46.4213 70.6501 47.0513C70.9101 47.4913 70.9301 47.9513 70.9401 48.3213C70.9401 48.4113 70.9401 48.5013 70.9501 48.5913C70.9801 48.8613 70.8901 49.1413 70.7201 49.3413C70.5401 49.5513 70.2801 49.6713 70.0101 49.6913C69.9401 49.6913 69.8601 49.7113 69.7801 49.7213C69.6201 49.7413 69.4401 49.7713 69.2401 49.7713V49.7813ZM76.1301 48.2813C75.7301 48.2813 75.3401 48.1913 75.0501 48.0113C74.5101 47.6613 74.3501 47.0813 74.2001 46.5213C74.1501 46.3313 74.0901 46.1113 74.0101 45.8813C73.9001 45.5813 73.9401 45.2613 74.1101 44.9913C74.2801 44.7313 74.5701 44.5613 74.8801 44.5413C75.1301 44.5213 75.3501 44.4913 75.5501 44.4613C76.0801 44.3813 76.6301 44.3113 77.1501 44.5713C77.7601 44.8813 78.1701 45.4213 78.2601 46.0613C78.3501 46.6813 78.1301 47.3113 77.6401 47.7613C77.2801 48.1013 76.6901 48.2813 76.1201 48.2813H76.1301ZM94.4401 32.7713C94.2501 32.7713 94.0601 32.7513 93.8801 32.7113C92.8001 32.4813 92.2301 31.3813 91.5101 29.9913C91.1901 29.3813 90.8401 28.6913 90.4001 27.9913C90.2201 27.7013 90.2001 27.3513 90.3401 27.0413C90.4801 26.7313 90.7601 26.5213 91.1001 26.4713C91.9101 26.3413 92.6301 26.1813 93.2701 26.0413C94.6701 25.7213 95.7801 25.4813 96.7901 25.8913C97.9301 26.3513 98.6101 28.2213 98.7801 28.9013C98.9001 29.4013 99.0101 30.1213 98.5601 30.6313C97.7301 31.5913 96.0001 32.7713 94.4601 32.7713H94.4401ZM92.8201 28.1913C92.9901 28.5013 93.1401 28.7913 93.2901 29.0713C93.6301 29.7313 94.1001 30.6313 94.3401 30.7713C94.8801 30.8913 96.1001 30.2713 96.8601 29.5113C96.7801 29.0013 96.3001 27.9313 95.9901 27.7213C95.6001 27.5613 94.7601 27.7513 93.7001 27.9913C93.4201 28.0513 93.1301 28.1213 92.8201 28.1813V28.1913ZM115.21 27.8313C114.45 27.8313 113.68 27.6213 112.97 27.2113C111.42 26.3113 110.54 24.6313 110.75 22.9213C110.82 22.3113 110.99 21.8013 111.25 21.3613C112.14 19.8713 115.35 19.1813 116.94 19.8113C118.24 20.3313 119.15 21.3413 119.44 22.5713C119.75 23.8813 119.34 25.2913 118.31 26.4413C118.13 26.6413 117.92 26.8313 117.69 27.0113C116.96 27.5613 116.1 27.8313 115.23 27.8313H115.21ZM115.52 21.5713C114.53 21.5713 113.18 22.0313 112.96 22.3913C112.85 22.5813 112.77 22.8313 112.73 23.1613C112.6 24.2713 113.28 25.0813 113.97 25.4813C114.82 25.9713 115.76 25.9413 116.48 25.4013C116.6 25.3113 116.71 25.2113 116.81 25.1013C117.39 24.4513 117.64 23.6913 117.48 23.0213C117.34 22.4213 116.88 21.9413 116.19 21.6613C116.01 21.5913 115.78 21.5613 115.52 21.5613V21.5713Z" fill="currentColor"/>
</svg>
