<svg width="247" height="243" viewBox="0 0 247 243" fill="none" xmlns="http://www.w3.org/2000/svg">
<path d="M100.14 228.772C106.7 209.622 107.81 207.412 112.08 222.982C110.84 205.232 117.8 193.522 137.34 201.272C120.73 191.042 121.74 188.512 138 178.522C126.64 183.232 130.55 180.472 139.71 174.482C135.44 176.332 136.44 174.942 139.55 172.162C140.32 171.122 143.2 168.692 146.14 166.202C150.06 162.892 154.09 159.482 158.08 156.112C162.08 152.732 166.04 149.382 165.27 152.522C173.58 143.002 177.18 139.962 187.68 139.462C183.71 134.432 225.52 117.772 234.33 112.412C194.24 127.282 230.58 108.172 234.19 105.602C233.33 105.832 219.44 113.882 232.7 104.622C231.75 105.242 190.04 131.252 229.04 103.522C224.06 106.512 221.91 106.872 224.47 102.102C217.96 108.782 216.17 110.332 220.13 105.252C212.78 110.892 205.41 120.742 209.27 100.982C209.81 110.522 175.2 130.032 173.53 126.632C173.98 130.252 178.66 125.232 172.8 117.842C177.41 125.612 177.4 127.412 169.38 128.152C175.61 127.672 174.1 126.112 166.88 121.442C173.43 126.272 174.26 127.992 167.5 129.522C174.91 128.212 173.56 126.702 165.44 122.932C171.33 126.842 164.53 132.082 156.45 134.812C163.58 132.192 169.42 127.072 163.37 124.592C169.68 127.122 164.09 132.292 156.93 134.902C163.73 132.632 168.95 127.812 162.54 125.992C168.02 127.982 161.86 132.982 155.57 135.192C162.41 133.642 169.12 129.322 162.94 127.812C171.12 129.692 166.4 134.392 158.8 136.322C166.21 134.422 170.73 129.762 162.64 128.032C168.38 129.372 161.51 133.652 155.17 135.062C160.85 133.002 167.06 128.082 162.1 126.372C168.24 127.942 163.22 132.712 156.84 134.922C163.47 132.412 168.75 127.322 162.67 125.242C168.01 127.262 161.99 132.292 155.69 134.732C162.98 132.212 170 127.102 164.5 123.852C172.69 127.032 174.31 128.472 167.12 129.862C173.82 128.492 171.76 127.102 163.99 124.292C169.51 127.262 163.41 132.412 156.88 134.922C163.04 132.722 167.64 127.952 161.6 126.572C165.48 127.962 158.73 132.742 154.17 134.492C158.61 133.482 159.31 133.032 155.23 132.472C152.61 131.982 187.68 126.772 157.06 136.612C161.13 134.962 159.51 136.112 154.73 138.092C159.54 138.432 159.97 139.292 155.61 141.562C161.47 141.242 162.53 142.332 158.36 146.642C160.74 141.772 158.37 140.372 154.34 140.322C157.64 138.922 159.26 138.882 157.15 141.822C159.13 138.372 155.58 137.352 152.25 136.902C151.75 136.372 151.47 136.412 151.92 137.122C154.56 137.742 157.93 139.042 157.09 143.282C158.46 139.772 154.74 138.902 151.37 138.682C149.18 138.352 147.35 138.672 146.27 139.782C144.12 142.012 144.98 147.402 147.35 157.492C140.2 142.012 139.06 145.362 136.76 159.312C138.74 144.002 139.4 140.142 140.33 158.572C139.7 136.192 139.34 136.082 133.44 157.852C137.33 139.502 135.68 143.032 129.46 157.462C135.68 143.022 137.28 139.482 130.97 157.102C138.56 135.712 132.11 149.842 118.04 167.712C129.26 152.582 126.74 155.552 116.54 167.652C126.29 154.912 134.48 136.972 114.81 137.802C121.77 135.732 126.31 134.152 128.69 132.562C131.07 130.972 131.28 129.342 129.07 128.762C128.47 126.902 127.27 125.302 125.41 123.972C123.41 122.412 120.76 121.132 118.05 122.182C120.8 121.332 122.96 122.482 124.18 123.792C125.06 124.542 125 125.452 124.08 126.382C124.06 125.792 123.17 125.232 121.82 124.942C120.17 124.012 118.06 123.352 115.92 124.142C117.7 122.862 119.46 123.022 120.97 123.992C121.81 123.462 122.39 123.742 122.32 124.602C123.52 122.672 124.06 121.322 124.15 121.242C122.82 119.052 121.03 118.132 119 120.372C121.74 117.552 124.23 117.892 126.17 119.722C126.48 119.632 126.24 121.042 124.91 123.552C126.67 120.472 127.34 118.512 127.44 118.242C125.58 116.012 123.13 115.492 120.59 118.722C123.25 115.372 125 114.702 126.57 115.882C124.04 113.342 121.33 112.642 119.12 116.502C121.02 112.282 123.45 112.642 126.4 115.692C125.01 114.822 124.15 116.662 122.66 121.042C124.67 117.192 126.04 115.902 127.18 116.772C125.22 114.772 123.03 114.932 120.65 118.722C123.01 115.312 125.17 115.522 126.96 117.702C126.17 117.312 125 118.872 123.04 122.282C124.21 118.982 124.58 117.522 125.11 118.442C122.72 115.912 120.48 115.772 118.41 119.532C120.36 115.602 122.49 115.582 124.89 118.132C124.07 116.872 123.53 118.172 122.35 121.732C124.24 117.972 125.51 116.472 126.66 117.212C124.73 114.922 122.69 114.872 120.56 118.612C123.34 115.212 125.18 114.542 126.79 115.642C124.23 113.082 121.45 112.282 119.17 116.002C121.1 111.502 122.99 110.972 126.04 112.852C122.57 109.932 120.25 109.432 118.9 113.152C119.24 108.002 120.61 107.182 124.75 108.652C120.13 105.752 118.27 105.142 117.99 106.542C117.47 104.022 118.53 103.502 123.01 103.482C118.17 102.182 116.75 101.382 117.09 99.0617C114.7 98.4917 98.7498 31.2917 97.2798 23.8717C95.9198 27.0317 121.85 139.242 92.1798 18.6517C123.45 159.952 89.0798 18.1617 88.3498 15.5317C91.8998 34.7517 106.23 89.1817 81.3398 13.2617C82.5698 18.6117 105.44 80.7917 88.7598 60.0617C91.4298 67.4817 107.36 101.802 104.99 109.232C107.88 110.342 108.17 115.042 108.09 122.642C108.78 124.912 109.1 130.082 109.43 135.302C109.76 140.522 110.08 145.792 110.39 150.912C110.63 154.752 110.86 158.522 110.68 159.532C110.83 163.902 110.58 165.522 109.21 160.842C110.98 171.922 111.63 176.712 108.2 164.742C111.37 184.092 110.46 186.692 91.5798 182.102C110.7 190.532 106.83 203.532 97.2398 218.222C107.33 207.192 106.69 209.612 100.13 228.752L100.14 228.772Z" fill="currentColor"/>
<path d="M106.35 219.088C105.28 217.358 104.07 215.378 103.04 213.558C102.01 211.738 100.99 209.858 100.71 209.008C100.16 207.728 100.15 207.168 101.13 207.968C101.71 208.188 103.47 210.018 106.06 212.978C104.31 210.498 100.49 205.098 99.3796 203.338C98.0196 201.448 96.8096 199.738 96.5696 199.418C96.0196 198.628 96.4197 199.218 97.6897 200.978C95.8197 198.248 92.5396 193.388 92.9496 193.998C91.1196 189.918 89.8596 187.598 91.4496 190.788C88.7496 187.118 88.5396 186.738 91.2396 190.268C89.6496 187.758 92.8496 191.618 96.1796 195.408C93.0396 191.508 90.1796 187.778 92.3096 190.008C89.8596 186.618 90.9496 187.238 94.6396 190.078C92.2896 187.958 94.8796 190.218 98.0396 192.658C98.6496 192.688 102.8 195.678 105.33 197.198C103.47 196.068 100.49 193.998 99.6796 193.598C97.3196 191.788 94.9396 189.678 96.8396 190.948C91.4596 187.368 88.3997 184.698 91.7197 187.198C87.8097 184.528 89.6696 186.768 94.9896 191.958C91.2996 188.238 89.4796 183.818 91.2396 185.948C85.3196 181.838 90.2997 182.388 92.0497 184.068C89.1597 181.848 88.9596 181.358 91.6996 182.078C89.6496 181.168 90.3997 181.948 93.9397 184.718C91.7997 182.868 94.2197 184.328 99.1497 186.998C94.2797 184.238 91.9196 182.688 94.3396 184.168C90.7596 181.448 90.1696 180.568 92.9596 180.438C89.7996 180.228 86.5296 178.888 92.0596 176.958C88.7496 177.878 90.9397 177.798 96.4097 177.308C94.0097 177.238 99.8796 176.328 104.34 175.648C99.8796 176.308 94.0396 177.168 96.4496 177.108C90.9996 177.588 88.8397 177.608 92.1597 176.338C86.6797 178.288 85.9096 178.348 89.6396 176.448C86.6396 177.768 87.3696 177.998 91.8796 177.938C89.0096 177.978 92.1797 177.628 97.9697 176.888C92.1797 177.528 88.9896 177.768 91.8196 177.298C87.2996 177.448 86.5496 177.068 89.2696 174.878C85.6496 177.058 86.3297 175.788 90.6197 171.288C88.0997 173.868 90.0796 172.408 94.4196 169.098C92.6496 170.418 97.2896 166.768 100.59 164.508C95.4096 167.208 92.1896 169.058 94.4296 165.498C91.9396 167.438 94.1696 163.868 96.5696 160.698C96.7896 160.318 96.0096 159.678 97.0196 158.358C98.0296 157.038 98.9996 155.738 99.8196 154.538C94.6696 156.768 100.83 145.808 100.66 142.188C100.49 138.568 102.36 133.838 102.21 130.618C101.61 117.748 101.18 108.738 101.18 108.738L96.8896 116.738C94.3196 121.538 90.8896 127.938 87.4596 134.338C85.7496 137.538 83.3296 148.718 82.4196 143.738C81.6396 148.538 81.2297 155.798 80.5097 156.538C80.0997 160.518 79.1996 158.818 78.0296 151.938C78.2696 154.598 78.9596 159.348 78.6396 158.768C79.2696 162.808 79.8696 166.338 79.0396 163.678C80.0796 169.308 80.4097 171.278 78.6897 166.868C79.8897 170.578 79.4196 169.408 77.7496 164.898C78.7196 167.608 77.3697 163.918 75.9097 159.768C77.3597 164.008 78.8396 168.208 77.7896 165.688C79.5496 170.468 80.0996 172.028 78.6096 168.728C80.5396 173.618 80.3996 173.558 78.0196 168.758C79.5696 171.988 78.7597 170.348 76.5097 165.748C77.6697 168.088 75.6196 163.848 73.7396 159.938C75.6196 163.848 77.6697 168.108 76.4797 165.778C78.7197 170.388 79.5096 172.048 77.8396 168.888C80.1996 173.708 80.1796 173.898 77.4196 169.458C79.2096 172.598 78.3297 171.268 75.5797 166.998C77.0097 169.358 74.6397 165.698 72.1497 161.918C74.5597 165.668 76.6596 168.978 75.0196 166.588C77.6296 170.668 78.2697 171.768 75.9697 168.638C78.5197 172.718 76.5496 171.888 72.5596 167.748C74.3896 170.118 71.9997 167.728 68.9097 164.688C69.4297 165.488 65.7996 161.988 63.6896 160.148C67.1096 163.658 69.9697 166.938 67.7896 165.598C69.4196 167.748 66.3196 165.908 63.1696 164.248C61.4796 163.688 57.3896 161.448 54.0896 159.948C58.9296 164.318 46.8396 159.798 43.0896 159.718L28.6696 159.418L13.1396 159.098C13.1396 159.098 20.6896 164.028 31.4796 171.068L40.1096 176.698C43.1396 178.678 54.8396 179.478 49.5496 182.858C51.0996 182.738 52.7897 182.538 54.4697 182.338C56.1697 182.128 59.2096 181.728 59.3396 181.778C63.4996 181.308 68.9196 180.998 65.5296 182.128C69.4496 181.738 69.1997 182.238 65.4797 183.918C68.0497 183.508 64.6396 185.218 61.3496 187.088C65.1096 185.348 70.5697 183.228 68.4797 184.158C73.5297 182.058 75.6596 181.108 72.1296 181.928C78.1496 180.658 79.4696 180.748 75.8196 182.688C79.0296 181.478 78.9696 182.378 76.6296 186.298C78.4196 184.038 76.6497 186.688 73.1897 191.348C76.7297 186.748 78.5896 184.168 77.1296 186.668C79.3896 182.728 79.5696 181.898 76.9896 183.758C80.4096 181.588 80.0596 182.158 75.7396 185.658C78.4796 183.498 77.5096 185.268 74.4496 189.748C75.7496 187.598 72.2197 192.058 69.2197 195.728C72.2397 192.068 75.8096 187.598 74.5996 189.808C77.6696 185.338 78.6996 183.568 76.2496 185.878C80.5496 182.338 80.5196 186.308 79.0996 189.058C80.5996 186.788 80.9896 187.838 81.2896 192.378C81.3896 189.518 81.4397 192.398 81.2197 197.938C81.5397 192.398 81.5897 189.528 81.8997 192.368C81.5397 187.828 81.3296 186.718 80.9996 188.958C81.7796 186.268 82.8696 182.268 83.2796 185.868C83.0996 183.318 83.7096 184.998 85.1796 189.898C84.4396 187.238 85.5996 191.478 86.8396 196.528C85.1496 189.338 84.3096 186.508 84.7896 191.098C84.2496 187.018 85.0297 190.858 85.7197 197.188C85.4797 194.848 86.1096 197.848 86.5996 200.828C86.6096 201.588 87.0896 205.268 87.2796 207.508C87.1196 204.948 86.6796 201.068 86.8096 200.478C86.3996 197.448 85.9297 194.898 86.4397 197.318C85.7997 191.448 85.4197 188.978 86.9797 193.478C85.9797 189.678 86.4297 190.278 88.1497 194.158C87.4297 191.978 89.3196 196.328 90.8796 199.888C88.6996 194.238 88.3696 193.038 90.5596 197.548C89.7496 195.528 90.7296 197.428 91.9296 199.778C92.3896 200.568 93.9496 203.688 95.1096 205.948C96.2996 208.138 99.0096 213.438 100.5 216.138C98.8896 212.498 97.9397 210.078 97.9697 209.538C97.6197 208.288 98.8097 208.218 99.7197 209.358C100.34 209.998 101.61 211.828 102.79 213.598C103.97 215.368 105.24 217.358 106.31 219.088H106.35Z" fill="currentColor"/>
</svg>
