<svg width="114" height="112" viewBox="0 0 114 112" fill="none" xmlns="http://www.w3.org/2000/svg">
<path d="M51.5607 51.6399C51.4173 51.4964 51.3109 51.3854 51.223 51.2974L51.1675 51.3437C50.9409 51.08 50.7837 50.8995 50.7605 50.7375C49.5719 49.4002 48.6515 48.336 47.893 47.4059L47.6802 47.1328C46.9356 46.1796 46.399 45.4901 45.6868 45.4809H45.4L45.3445 45.194C45.1826 44.3842 44.9468 43.9076 44.5952 43.6947C44.2761 43.505 43.809 43.505 43.1661 43.704L42.6573 43.8613L42.7082 43.3338C42.7961 42.4176 42.6805 41.816 42.3382 41.432C41.9728 41.0248 41.2837 40.8119 40.2338 40.7934L39.7851 40.7841L39.8961 40.3492C40.317 38.6972 39.688 37.6098 37.5743 36.3188L37.0748 36.0134L37.5743 35.7126C37.6021 35.6987 37.6576 35.6571 37.6622 35.6247C37.6946 35.3331 36.8204 34.5234 36.5337 34.2596L36.4782 34.1902C35.8815 33.2601 34.8917 32.0848 33.9343 30.9464L22.9404 17.9112L23.4816 17.4531L34.4662 30.4791C35.4375 31.6313 36.4319 32.8066 37.0517 33.7691C37.949 34.602 38.4253 35.1619 38.3698 35.6987C38.3606 35.7681 38.3421 35.8514 38.3051 35.9393C39.7851 36.8972 40.9969 38.091 40.6731 40.0993C41.7138 40.1733 42.4168 40.451 42.8655 40.9554C43.2725 41.4135 43.4621 42.0382 43.4436 42.9035C44.0587 42.7878 44.5582 42.8479 44.956 43.0886C45.4463 43.3801 45.7747 43.9261 45.9828 44.8007C46.8754 44.958 47.5137 45.7724 48.2352 46.6979L48.4433 46.9616C49.3452 48.0722 50.5062 49.391 52.0741 51.154L51.5561 51.6352L51.5607 51.6399Z" fill="currentColor"/>
<path d="M50.2793 51.6484L52.6196 52.4489L52.1386 50.0195L50.2793 51.6484Z" fill="currentColor"/>
<path d="M42.1714 51.6155L42.2315 50.7132C42.509 46.5717 41.0521 45.3547 35.8859 43.3326L35.2846 43.0966L35.8072 42.7172C36.1449 42.4719 36.1911 42.2498 36.1958 42.1064C36.2328 41.1624 34.466 39.6539 32.9073 38.3258C30.7566 36.4379 28.4441 34.4435 26.2101 32.5093L13.6807 21.6813L14.1432 21.1445L26.6726 31.9725C28.9066 33.9021 31.2191 35.9011 33.3698 37.7891C35.2106 39.3577 36.9543 40.8431 36.9034 42.1295C36.8941 42.3979 36.8063 42.6478 36.6444 42.8699C41.2788 44.7347 42.9947 46.1738 42.9669 49.9127C43.9336 49.0983 44.5811 48.8345 45.1222 49.0011C45.7975 49.2139 46.0565 50.0654 46.2045 50.7872L45.5108 50.9307C45.3165 49.9913 45.076 49.7322 44.9049 49.6767C44.5626 49.5702 43.8596 50.0098 42.8189 50.9955L42.1622 51.6155H42.1714Z" fill="currentColor"/>
<path d="M44.5576 50.6958L46.107 52.6254L47.0043 50.3164L44.5576 50.6958Z" fill="currentColor"/>
<path d="M45.8302 58.2731C45.6498 58.2684 45.4602 58.2592 45.2567 58.2546H45.2104C44.5352 58.1435 43.6934 58.0371 42.5741 57.9214L41.8063 57.8427C40.9738 57.7594 40.1182 57.6715 39.2116 57.5558C37.8935 57.4772 36.6123 57.3337 35.6734 56.5286C34.2581 56.9635 32.5237 57.1486 31.1408 55.3902C28.19 56.7229 25.5629 56.2139 23.3614 55.5059C21.2569 55.9316 18.8565 55.7095 16.7382 55.5106L5.20312 54.4416L5.26788 53.7383L16.7983 54.8072C19.0045 55.0108 21.2847 55.2237 23.3059 54.7933L23.3984 54.7748L23.4862 54.8026C26.5712 55.8021 28.7774 55.7512 31.0899 54.6267L31.3628 54.4925L31.5386 54.7378C32.5098 56.1214 33.6985 56.4221 35.6503 55.7882L35.8538 55.7234L36.0064 55.8761C36.7835 56.6442 37.9444 56.7692 39.2718 56.8525C40.1922 56.9682 41.0478 57.0561 41.8711 57.1394L42.6435 57.218C43.7674 57.3337 44.6092 57.4402 45.2937 57.5512C45.4926 57.5558 45.6776 57.5605 45.8533 57.5697L45.8256 58.2777L45.8302 58.2731Z" fill="currentColor"/>
<path d="M45.4004 59.1429L47.6158 58.0462L45.5576 56.6719L45.4004 59.1429Z" fill="currentColor"/>
<path d="M11.6598 61.6825L11.6182 60.9745L13.8613 60.8496C15.272 60.7709 17.2053 60.6599 18.4402 59.9472L18.5466 59.8871L18.6668 59.9056C22.3022 60.4285 24.6333 60.1046 26.5388 56.9163L26.7562 56.5508L27.0753 56.833C30.5118 59.8825 33.2545 59.776 37.4171 58.4665L37.5743 58.4156L37.7131 58.5081C39.1376 59.4336 41.774 59.2855 44.1004 59.156L50.3582 58.8043L50.3998 59.5123L44.142 59.864C41.7786 59.9981 39.1053 60.1462 37.4726 59.193C33.3609 60.4701 30.4054 60.5766 26.9181 57.6382C24.6518 61.0995 21.6177 61.0393 18.6807 60.6275C17.3024 61.3678 15.3414 61.4789 13.903 61.5622L11.6552 61.6871L11.6598 61.6825Z" fill="currentColor"/>
<path d="M50.0899 60.4085L52.162 59.0527L49.9512 57.9375L50.0899 60.4085Z" fill="currentColor"/>
<path d="M19.8695 101.581L19.333 101.119L24.9895 94.5387C26.6407 92.6183 28.5092 90.4435 28.8885 88.8748L28.9163 88.7591L29.0088 88.6851C32.7967 85.5339 34.5219 83.1971 34.0964 78.4402L34.0594 78.0098L34.4895 78.0561C38.8926 78.5466 40.6918 76.2052 42.5789 73.0956L42.6436 72.9892L42.7592 72.9475C43.9387 72.5033 45.3539 70.856 46.2928 69.7639L46.7137 69.2734L47.2502 69.7362L46.8294 70.2267C45.8165 71.4066 44.4382 73.0077 43.1246 73.563C41.2515 76.6309 39.295 79.125 34.8364 78.8011C35.1694 83.9884 32.7505 86.4871 29.5499 89.1571C29.0781 90.8738 27.1957 93.0672 25.5307 95.0014L19.8741 101.581H19.8695Z" fill="currentColor"/>
<path d="M47.671 70.5863L48.1289 68.1523L45.7979 68.9714L47.671 70.5863Z" fill="currentColor"/>
<path d="M59.0582 49.6524L58.3506 49.5969L58.3876 49.1018C58.4431 48.3845 58.5078 47.5192 58.5865 46.5336C58.6605 45.6127 58.7483 44.4698 58.9935 43.4009C58.9519 42.4754 58.9056 40.8744 60.2191 40.134C59.641 38.9124 59.5115 38.0147 59.8075 37.2558C60.0665 36.5848 60.6631 36.0527 61.6252 35.627C59.6872 32.3416 59.8769 29.4217 60.7834 26.09C60.3163 23.6607 60.5198 20.9444 60.7001 18.5428L61.3153 10.4219L62.0229 10.4774L61.4078 18.5937C61.2274 20.9768 61.0239 23.6792 61.4957 26.0345L61.5142 26.1178L61.491 26.2011C60.5845 29.505 60.3995 32.3739 62.4484 35.6131L62.6843 35.9833L62.2773 36.136C61.2829 36.5062 60.6955 36.9596 60.4781 37.5149C60.2423 38.1257 60.4134 38.9633 61.0239 40.1432L61.2043 40.4949L60.8343 40.6384C59.8075 41.0271 59.6456 41.9572 59.715 43.424V43.4749L59.7057 43.5212C59.4652 44.5577 59.3774 45.6914 59.3034 46.5984C59.2247 47.584 59.16 48.4493 59.1045 49.1665L59.0675 49.6617L59.0582 49.6524Z" fill="currentColor"/>
<path d="M57.5 49.1719L58.5684 51.4023L59.9652 49.3616L57.5 49.1719Z" fill="currentColor"/>
<path d="M65.5796 43.2813L64.9229 43.0129C65.0385 42.7306 65.1587 42.416 65.2929 42.0689L65.316 42.0227C66.1393 40.5465 67.1429 38.3763 68.3084 35.8637L79.9545 10.7188L80.5974 11.0149L68.9606 36.1413C67.7858 38.6771 66.7822 40.8473 65.9496 42.3466C65.8201 42.689 65.6953 43.0037 65.5842 43.2813H65.5796Z" fill="currentColor"/>
<path d="M64.2939 42.2227L64.3679 44.6937L66.4724 43.3934L64.2939 42.2227Z" fill="currentColor"/>
<path d="M63.1792 53.478L62.6611 52.9968C62.8323 52.8117 63.0173 52.6081 63.2069 52.3906L63.2531 52.3444C64.8581 51.0903 66.5 49.5263 65.7091 46.8332L65.5981 46.4538L65.9866 46.3843C70.7597 45.519 73.1047 43.5848 75.2877 38.7354L75.3987 38.4855L75.667 38.5271C78.0813 38.9205 80.38 36.8011 82.4104 34.9317L89.7551 28.1758L90.2361 28.6987L82.8914 35.4546C80.8101 37.3657 78.4652 39.5266 75.8242 39.2629C73.6412 44.0059 71.1529 46.0789 66.4907 47.0044C67.1984 50.1232 64.9644 51.9001 63.7203 52.8765C63.5307 53.0893 63.3503 53.2883 63.1838 53.4688L63.1792 53.478Z" fill="currentColor"/>
<path d="M62.2675 52.1055L61.6709 54.5024L64.0482 53.8222L62.2675 52.1055Z" fill="currentColor"/>
<path d="M66.0557 54.6001L65.7412 53.9661C68.0075 52.8417 68.4608 52.3373 68.4423 52.1106C68.4423 52.0782 68.3822 51.7959 67.2166 51.4627L65.9401 51.0972L67.2305 50.7779C73.8167 49.1583 75.8147 47.7747 79.8108 42.0739L80.3751 41.2687L80.4537 42.2497C80.5138 42.9947 80.6942 43.4389 80.9995 43.5777C81.8181 43.9526 83.9226 42.3931 85.3101 41.3613L85.3749 41.3242C86.6745 40.7273 88.6772 39.4178 90.4394 38.2656L96.415 34.3555L96.8035 34.9478L90.8371 38.8486C89.0564 40.0147 87.0491 41.3242 85.7032 41.9489C83.5479 43.5454 81.8135 44.7207 80.7081 44.2163C80.3242 44.0405 80.0606 43.6981 79.8987 43.1705C76.3466 48.1172 74.1173 49.6951 68.4747 51.1897C68.84 51.3979 69.1129 51.671 69.1499 52.0458C69.2239 52.8648 68.0723 53.6052 66.0603 54.6001H66.0557Z" fill="currentColor"/>
<path d="M65.4448 53.1133L64.5244 55.4084L66.9711 55.0568L65.4448 53.1133Z" fill="currentColor"/>
<path d="M74.8298 60.4535L74.7234 59.255C74.6633 58.5887 74.4875 56.5665 73.8492 56.3305C73.2156 56.0945 71.7309 57.4318 70.3619 58.7691L68.7893 60.3054L69.8022 58.3527C70.3989 57.2005 70.496 56.7655 70.5006 56.6128C70.3018 56.6313 69.7699 56.8349 68.35 57.7372L67.9707 57.1403C69.8531 55.9465 70.5885 55.6873 71.0048 56.0714C71.2222 56.275 71.273 56.5758 71.1297 57.0848C72.4386 55.928 73.359 55.3958 74.099 55.6688C74.7095 55.8956 75.0795 56.6174 75.3015 58.0889C77.8731 53.6652 80.2596 53.0266 85.6155 53.6698C85.4398 53.221 85.4213 52.8045 85.5647 52.4251C85.9902 51.3053 87.6922 50.7962 89.8707 50.241C92.026 49.5515 94.3848 48.8852 96.6696 48.2373L108.602 44.8594L108.797 45.5396L96.8638 48.9175C94.5883 49.5607 92.2295 50.2271 90.0695 50.9212C88.4924 51.3191 86.5591 51.8096 86.2307 52.6749C86.1058 53.0035 86.2076 53.4061 86.5452 53.9058L86.9846 54.5583L86.2029 54.4565C80.255 53.6698 78.1136 54.2205 75.3894 59.3938L74.8298 60.4581V60.4535Z" fill="currentColor"/>
<path d="M68.7196 56.0469L66.4395 57.0094L68.4144 58.504L68.7196 56.0469Z" fill="currentColor"/>
<path d="M97.2658 79.84L88.6353 75.1757C86.1794 73.8476 83.395 72.3437 80.8281 70.8769C78.1687 69.5072 75.1577 67.957 74.7784 65.4953C73.1874 65.3842 71.9802 65.1667 71.0043 64.8243C69.8018 64.5143 68.8537 64.0053 68.0535 63.2325C67.332 62.7652 66.666 62.0942 65.9352 61.0993C65.4033 61.8027 64.8668 61.8304 64.4875 61.7101C64.3534 61.6731 64.21 61.6037 64.0713 61.5065L64.469 60.9189C64.5477 60.9744 64.6263 61.0114 64.6957 61.0299C64.8113 61.0669 65.1397 61.1687 65.6115 60.2942L65.8843 59.7852L66.2127 60.2618C67.0221 61.4371 67.7205 62.1729 68.4698 62.6541L68.5253 62.7004C69.2422 63.3991 70.0932 63.8572 71.2125 64.1487C72.2161 64.5004 73.451 64.7086 75.1253 64.8104L75.4398 64.829L75.4583 65.1436C75.5925 67.3879 78.5572 68.9149 81.1704 70.2568C83.7419 71.7237 86.5216 73.2276 88.9776 74.5556L97.608 79.22L97.2704 79.8447L97.2658 79.84Z" fill="currentColor"/>
<path d="M63.6786 62.2514L63.1328 59.8359L65.4962 60.5717L63.6786 62.2514Z" fill="currentColor"/>
<path d="M87.8814 87.2318L80.805 80.3139C79.7921 79.3237 78.7191 78.2733 77.7848 77.3386C76.8459 76.3992 76.1012 75.6264 75.8052 75.048C75.2965 74.701 74.4501 74.0717 74.6582 73.2249C74.1633 73.0583 73.6499 72.7853 73.5112 72.2994C73.4372 72.031 73.4881 71.7395 73.6638 71.4248C72.7989 71.3924 72.3503 71.2027 72.1606 70.8186C71.9988 70.4901 72.1005 70.1199 72.304 69.759C71.6519 69.8238 71.2587 69.7035 71.046 69.3934C70.8286 69.0788 70.8517 68.6623 71.1524 68.0376C70.4586 68.2551 70.0331 68.2227 69.751 67.9543C69.4873 67.7045 69.4318 67.3111 69.5891 66.7003C69.2006 66.8576 68.8167 66.9132 68.5253 66.7049C68.2154 66.4875 68.1044 66.071 68.1923 65.3491C67.8315 65.5759 67.4754 65.6916 67.1516 65.5435C66.8048 65.3862 66.6567 64.9882 66.6059 64.544C66.3561 64.7059 66.074 64.7985 65.7872 64.7106C65.3293 64.5717 65.1027 64.0442 64.964 63.4473C64.7605 63.5306 64.5616 63.5537 64.3627 63.5213C63.9372 63.4519 63.5672 63.1373 63.174 62.5126C62.5219 62.3321 61.9391 61.7213 61.3286 61.0781L61.5552 60.8606H61.2315L61.1621 59.875L61.842 60.5922C62.397 61.1753 62.9705 61.7815 63.4515 61.8555L63.618 61.8786L63.7059 62.0221C63.9973 62.5218 64.2609 62.7902 64.4829 62.8272C64.6263 62.8504 64.7928 62.7763 64.9917 62.6098L65.4727 62.1979L65.5745 62.8226C65.7549 63.9332 65.9769 64.0303 66.0046 64.0396C66.0046 64.0396 66.1896 64.0859 66.6845 63.5537L67.3228 62.8689L67.2996 63.8082C67.2719 64.78 67.4523 64.9095 67.4569 64.9095C67.4569 64.9095 67.6789 64.9789 68.4883 64.2247L69.3439 63.4242L69.0757 64.5625C68.7427 65.9646 68.9462 66.1312 68.9508 66.1312C68.9508 66.1312 69.1589 66.233 70.047 65.6592L70.9997 65.0391L70.5696 66.0895C70.0886 67.2556 70.2643 67.4453 70.2643 67.4453C70.2736 67.4546 70.4817 67.635 71.8461 67.0103L72.9608 66.5013L72.2902 67.5286C71.4946 68.7456 71.6426 68.9816 71.6473 68.9908C71.6473 68.9908 71.8138 69.2037 73.0487 68.9168L74.0939 68.6762L73.3956 69.4906C72.7203 70.2819 72.8174 70.4994 72.8174 70.5086C72.8313 70.5364 72.9885 70.7724 74.39 70.7122L75.2687 70.6752L74.6582 71.3091C74.1864 71.7996 74.1865 72.031 74.205 72.105C74.2281 72.193 74.3807 72.4243 75.241 72.6511L75.7081 72.7714L75.4537 73.1786C75.2317 73.5349 75.3011 73.8357 76.2955 74.5113L76.3788 74.5668L76.4204 74.6593C76.6285 75.1313 77.4287 75.955 78.2982 76.8296C79.2278 77.7596 80.3009 78.8101 81.3091 79.7957L88.3856 86.7135L87.8907 87.2225L87.8814 87.2318Z" fill="currentColor"/>
<path d="M61.0283 62.0069L60.2559 59.6562L62.6748 60.1653L61.0283 62.0069Z" fill="currentColor"/>
</svg>
