<svg width="161" height="158" viewBox="0 0 161 158" fill="none" xmlns="http://www.w3.org/2000/svg">
<path d="M80.4504 15.7717C80.8204 26.1417 80.8604 42.3817 76.9604 22.7217C77.3204 26.5817 77.6804 30.1017 77.9804 33.2217C78.2804 36.3417 78.5104 39.0617 78.5904 41.2917C78.7604 45.7717 78.7504 53.6517 76.7904 48.4217C76.6304 53.0817 75.4204 50.7917 73.6204 47.1817C72.6104 48.0417 70.2204 43.3717 67.9604 40.6417C70.1604 43.4917 73.3804 52.2717 73.7704 49.7017C75.9604 56.7817 77.3204 62.5917 75.9404 52.9917C77.8104 64.2717 79.0404 74.2717 76.9704 60.7117C78.7104 75.4117 77.7604 73.4617 72.3904 59.4117C76.0204 71.8617 77.3704 77.1117 73.0804 65.9117C76.7904 77.8217 75.2304 75.8217 67.9404 64.6317C74.0204 75.9417 72.9704 75.7117 64.3204 66.3917C70.3604 75.3617 63.8004 70.2817 55.6504 65.1417C63.7504 70.3917 70.2504 75.5517 63.6804 66.9917C72.4404 76.2117 73.3904 76.9017 65.5604 66.7817C75.3004 78.1717 74.8104 78.0817 63.3404 67.8117C72.8804 77.7117 75.6704 80.9117 67.5304 72.7017C75.5604 81.6417 74.0004 81.0217 62.4204 74.3417C73.2204 81.5817 72.6004 81.8717 60.5204 77.2317C70.7604 82.5817 64.6104 81.5317 52.7604 79.8817C63.7304 83.3117 56.3304 84.5817 47.3104 86.3217C52.8404 87.8917 45.4704 90.1017 42.2404 91.8617C42.7304 95.5617 37.8804 100.552 35.8104 104.662C33.7404 108.782 31.7704 112.712 29.9304 116.372C22.5804 131.002 17.4404 141.242 17.4404 141.242C17.4404 141.242 32.8504 131.412 48.2704 121.582C50.2004 120.352 52.5904 118.572 54.0204 117.912C56.3204 116.192 61.1504 111.042 59.5904 114.362C64.2104 109.082 69.0304 102.942 64.9804 110.692C71.2804 101.402 74.0904 97.2717 69.4604 108.072C75.5004 96.3717 78.1504 90.3417 74.5004 101.402C78.9504 89.1817 79.2904 88.5317 76.6304 100.752C79.5904 88.1817 79.9004 86.7317 79.4804 94.7717C79.9604 87.2817 79.9804 87.2017 79.7704 93.6817C79.9504 87.7917 79.8404 89.7117 79.0904 101.922C79.8404 89.7117 79.9604 87.7717 80.0104 93.5817C80.0604 87.1717 80.1104 87.2317 80.6904 94.5517C80.2004 86.6617 80.4104 88.0517 82.0404 100.742C80.6704 88.3617 80.9404 88.6917 84.8704 100.642C81.5304 89.7217 83.6404 95.5917 89.1404 108.052C84.9904 96.4217 87.3604 100.042 93.7404 110.132C89.6304 101.752 94.6104 108.612 99.4504 114.352C97.7504 110.532 102.76 116.002 105.26 117.902C106.62 118.362 109.25 120.342 111.26 121.572C127.35 131.402 143.43 141.232 143.43 141.232C143.43 141.232 138.29 130.992 130.94 116.362C129.1 112.702 127.13 108.772 125.06 104.652C122.99 100.532 118.79 95.7217 118.63 91.8517C116 90.1617 106.74 87.6917 112.32 86.0017C102.56 84.2417 97.0104 82.8617 108.43 79.7117C96.8304 81.2117 89.5104 82.5517 99.7304 77.3417C87.5304 81.9117 86.8704 81.6617 97.8704 74.6317C86.2004 81.1217 84.8404 81.5817 93.3904 72.8217C84.9304 80.7417 88.4804 77.0117 98.1904 67.4917C86.4304 77.6317 84.9704 78.8017 95.1704 67.8517C86.7204 77.6317 87.6604 76.9017 96.7804 67.8017C89.8404 76.0717 97.2004 70.2517 105.23 65.1417C97.1704 70.1917 89.8804 75.8417 96.4204 67.2317C87.4204 76.3317 86.4904 76.5617 93.4704 65.6817C85.4904 76.4017 84.0004 78.0117 88.8204 66.4217C83.5804 77.1217 85.5804 71.4517 89.9304 59.4717C83.9304 73.1817 82.6304 75.7417 86.0704 61.3417C82.3004 74.5717 84.3504 64.1517 86.5704 53.0617C84.7104 62.4717 86.2004 56.9817 88.3504 49.9817C88.2404 52.3017 91.1804 43.5017 92.9204 40.6317C91.1304 43.4217 89.0504 48.2017 88.4004 47.4817C86.7704 51.1317 85.6104 53.4217 85.7404 48.6617C83.8004 54.2617 83.8504 46.0717 83.7104 41.5617C83.6404 39.3017 83.6604 36.5617 83.7104 33.3917C83.7704 30.2317 83.8504 26.6417 83.9104 22.7117C81.8604 42.9417 80.7904 26.1317 80.4204 15.7617L80.4504 15.7717Z" fill="currentColor"/>
</svg>
