<svg width="100" height="99" viewBox="0 0 100 99" fill="none" xmlns="http://www.w3.org/2000/svg">
<path d="M49.9996 9.94381C50.231 16.482 50.256 26.7212 47.817 14.3257C48.0422 16.7594 48.2673 18.9788 48.4549 20.9459C48.6425 22.913 48.7864 24.628 48.8364 26.034C48.9427 28.8586 48.9365 33.8269 47.7107 30.5294C47.6106 33.4675 46.8539 32.0237 45.7282 29.7476C45.0966 30.2898 43.6019 27.3454 42.1885 25.6242C43.5644 27.4211 45.5781 32.9568 45.822 31.3364C47.1916 35.8003 48.0422 39.4635 47.1791 33.4108C48.3486 40.5227 49.1178 46.8276 47.8233 38.2782C48.9114 47.5464 48.3173 46.3169 44.959 37.4585C47.2291 45.3082 48.0734 48.6182 45.3905 41.5567C47.7107 49.0659 46.7351 47.8049 42.176 40.7497C45.9784 47.8806 45.3217 47.7355 39.9121 41.8594C43.6894 47.5149 39.5869 44.312 34.4899 41.0712C39.5556 44.3813 43.6206 47.6347 39.5118 42.2376C44.9902 48.0508 45.5844 48.4858 40.6876 42.1052C46.7789 49.2866 46.4724 49.2298 39.2992 42.7547C45.2654 48.9965 47.0103 51.0141 41.9196 45.8378C46.9415 51.4744 45.9659 51.0835 38.7238 46.8718C45.4781 51.4365 45.0903 51.6194 37.5356 48.6939C43.9396 52.067 40.0934 51.405 32.6826 50.3647C39.5431 52.5273 34.9152 53.328 29.2742 54.4251C32.7326 55.4149 28.1235 56.8083 26.1034 57.918C26.4099 60.2508 23.3767 63.397 22.0822 65.9883C20.7876 68.5859 19.5556 71.0638 18.4049 73.3714C13.8083 82.5955 10.5938 89.0518 10.5938 89.0518C10.5938 89.0518 20.231 82.854 29.8746 76.6563C31.0816 75.8807 32.5762 74.7585 33.4706 74.3423C34.9089 73.2579 37.9296 70.0109 36.954 72.1041C39.8433 68.7751 42.8577 64.9039 40.3248 69.7902C44.2648 63.9329 46.0221 61.329 43.1266 68.1383C46.9039 60.7615 48.5612 56.9597 46.2786 63.9329C49.0615 56.2283 49.2742 55.8185 47.6106 63.5231C49.4618 55.5978 49.6557 54.6836 49.393 59.7527C49.6932 55.0303 49.7057 54.9799 49.5744 59.0655C49.6869 55.3519 49.6181 56.5624 49.1491 64.2608C49.6181 56.5624 49.6932 55.3393 49.7245 59.0025C49.7557 54.961 49.787 54.9988 50.1497 59.614C49.8433 54.6394 49.9746 55.5158 50.994 63.5168C50.1372 55.7113 50.3061 55.9193 52.7639 63.4537C50.6751 56.5688 51.9946 60.2697 55.4343 68.1257C52.8389 60.7931 54.3211 63.0754 58.3111 69.4371C55.7407 64.1536 58.8552 68.4788 61.8821 72.0978C60.8189 69.6893 63.9521 73.1381 65.5156 74.336C66.3661 74.6261 68.0109 75.8744 69.2679 76.6499C79.3305 82.8477 89.3867 89.0454 89.3867 89.0454C89.3867 89.0454 86.1722 82.5892 81.5756 73.3651C80.4249 71.0575 79.1929 68.5796 77.8983 65.982C76.6038 63.3844 73.9771 60.3517 73.8771 57.9117C72.2323 56.8462 66.4412 55.2888 69.9308 54.2233C63.827 53.1137 60.3561 52.2436 67.4981 50.2575C60.2435 51.2033 55.6657 52.0481 62.0572 48.7632C54.4274 51.6446 54.0146 51.487 60.8939 47.0546C53.5956 51.1465 52.7451 51.4365 58.0922 45.9134C52.8014 50.9069 55.0215 48.5552 61.0941 42.5529C53.7395 48.9461 52.8264 49.6838 59.2054 42.7799C53.9208 48.9461 54.5087 48.4858 60.2123 42.7483C55.872 47.9625 60.4749 44.2931 65.4968 41.0712C60.4562 44.2552 55.8971 47.8175 59.9871 42.389C54.3586 48.1265 53.777 48.2715 58.1422 41.4117C53.1516 48.1706 52.2198 49.1857 55.2341 41.8783C51.9571 48.6245 53.2079 45.0496 55.9283 37.4963C52.176 46.1404 51.363 47.7545 53.5143 38.6754C51.1566 47.0168 52.4387 40.4471 53.827 33.4549C52.6638 39.3878 53.5956 35.9264 54.9402 31.513C54.8714 32.9757 56.7101 27.4274 57.7983 25.6179C56.6788 27.3769 55.378 30.3907 54.9715 29.9367C53.9521 32.238 53.2266 33.6819 53.3079 30.6807C52.0947 34.2115 52.126 29.0477 52.0384 26.2042C51.9946 24.7793 52.0071 23.0518 52.0384 21.0531C52.0759 19.0607 52.126 16.7973 52.1635 14.3194C50.8814 27.0743 50.2123 16.4757 49.9809 9.9375L49.9996 9.94381Z" fill="currentColor"/>
</svg>
