<svg width="247" height="243" viewBox="0 0 247 243" fill="none" xmlns="http://www.w3.org/2000/svg">
<path d="M111.48 111.599C111.17 111.289 110.94 111.049 110.75 110.859L110.63 110.959C110.14 110.389 109.8 109.999 109.75 109.649C107.18 106.759 105.19 104.459 103.55 102.449L103.09 101.859C101.48 99.7987 100.32 98.3087 98.7796 98.2887H98.1596L98.0396 97.6687C97.6896 95.9187 97.1796 94.8887 96.4196 94.4287C95.7296 94.0187 94.7196 94.0187 93.3296 94.4487L92.2296 94.7887L92.3396 93.6488C92.5296 91.6688 92.2796 90.3687 91.5396 89.5387C90.7496 88.6587 89.2596 88.1988 86.9896 88.1588L86.0196 88.1387L86.2596 87.1987C87.1696 83.6287 85.8096 81.2787 81.2396 78.4887L80.1596 77.8288L81.2396 77.1787C81.2996 77.1487 81.4196 77.0587 81.4296 76.9887C81.4996 76.3587 79.6096 74.6087 78.9896 74.0387L78.8696 73.8887C77.5796 71.8787 75.4396 69.3387 73.3696 66.8787L49.5996 38.7087L50.7696 37.7188L74.5196 65.8688C76.6196 68.3588 78.7696 70.8988 80.1096 72.9788C82.0496 74.7788 83.0796 75.9888 82.9596 77.1488C82.9396 77.2988 82.8996 77.4787 82.8196 77.6687C86.0196 79.7387 88.6396 82.3188 87.9396 86.6588C90.1896 86.8188 91.7096 87.4188 92.6796 88.5088C93.5596 89.4988 93.9696 90.8487 93.9296 92.7188C95.2596 92.4688 96.3396 92.5988 97.1996 93.1188C98.2596 93.7488 98.9696 94.9287 99.4196 96.8187C101.35 97.1587 102.73 98.9187 104.29 100.919L104.74 101.489C106.69 103.889 109.2 106.739 112.59 110.549L111.47 111.589L111.48 111.599Z" fill="currentColor"/>
<path d="M108.71 111.618L113.77 113.348L112.73 108.098L108.71 111.618Z" fill="currentColor"/>
<path d="M91.1801 111.541L91.3101 109.591C91.9101 100.641 88.7601 98.0114 77.5901 93.6414L76.2901 93.1314L77.4201 92.3114C78.1501 91.7814 78.2501 91.3014 78.2601 90.9914C78.3401 88.9514 74.5201 85.6914 71.1501 82.8214C66.5001 78.7414 61.5001 74.4314 56.6701 70.2514L29.5801 46.8514L30.5801 45.6914L57.6701 69.0914C62.5001 73.2614 67.5001 77.5814 72.1501 81.6614C76.1301 85.0514 79.9001 88.2614 79.7901 91.0414C79.7701 91.6214 79.5801 92.1614 79.2301 92.6414C89.2501 96.6714 92.9601 99.7814 92.9001 107.861C94.9901 106.101 96.3901 105.531 97.5601 105.891C99.0201 106.351 99.5801 108.191 99.9001 109.751L98.4001 110.061C97.9801 108.031 97.4601 107.471 97.0901 107.351C96.3501 107.121 94.8301 108.071 92.5801 110.201L91.1601 111.541H91.1801Z" fill="currentColor"/>
<path d="M96.3398 109.55L99.6898 113.72L101.63 108.73L96.3398 109.55Z" fill="currentColor"/>
<path d="M99.09 125.929C98.7 125.919 98.29 125.899 97.85 125.889H97.75C96.29 125.649 94.47 125.419 92.05 125.169L90.39 124.999C88.59 124.819 86.74 124.629 84.78 124.379C81.93 124.209 79.16 123.899 77.13 122.159C74.07 123.099 70.32 123.499 67.33 119.699C60.95 122.579 55.27 121.479 50.51 119.949C45.96 120.869 40.77 120.389 36.19 119.959L11.25 117.649L11.39 116.129L36.32 118.439C41.09 118.879 46.02 119.339 50.39 118.409L50.59 118.369L50.78 118.429C57.45 120.589 62.22 120.479 67.22 118.049L67.81 117.759L68.19 118.289C70.29 121.279 72.86 121.929 77.08 120.559L77.52 120.419L77.85 120.749C79.53 122.409 82.04 122.679 84.91 122.859C86.9 123.109 88.75 123.299 90.53 123.479L92.2 123.649C94.63 123.899 96.45 124.129 97.93 124.369C98.36 124.379 98.76 124.389 99.14 124.409L99.08 125.939L99.09 125.929Z" fill="currentColor"/>
<path d="M98.1602 127.809L102.95 125.439L98.5002 122.469L98.1602 127.809Z" fill="currentColor"/>
<path d="M25.2101 133.301L25.1201 131.771L29.9701 131.501C33.0201 131.331 37.2001 131.091 39.8701 129.551L40.1001 129.421L40.3601 129.461C48.2201 130.591 53.2601 129.891 57.3801 123.001L57.8501 122.211L58.5401 122.821C65.9701 129.411 71.9001 129.181 80.9001 126.351L81.2401 126.241L81.5401 126.441C84.6201 128.441 90.3201 128.121 95.3501 127.841L108.88 127.081L108.97 128.611L95.4401 129.371C90.3301 129.661 84.5501 129.981 81.0201 127.921C72.1301 130.681 65.7401 130.911 58.2001 124.561C53.3001 132.041 46.7401 131.911 40.3901 131.021C37.4101 132.621 33.1701 132.861 30.0601 133.041L25.2001 133.311L25.2101 133.301Z" fill="currentColor"/>
<path d="M108.3 130.551L112.78 127.621L108 125.211L108.3 130.551Z" fill="currentColor"/>
<path d="M42.9598 219.523L41.7998 218.523L54.0298 204.303C57.5998 200.153 61.6398 195.453 62.4598 192.063L62.5198 191.813L62.7198 191.653C70.9098 184.843 74.6398 179.793 73.7198 169.513L73.6398 168.583L74.5698 168.683C84.0898 169.743 87.9798 164.683 92.0598 157.963L92.1998 157.733L92.4498 157.643C94.9998 156.683 98.0598 153.123 100.09 150.763L101 149.703L102.16 150.703L101.25 151.763C99.0598 154.313 96.0798 157.773 93.2398 158.973C89.1898 165.603 84.9598 170.993 75.3198 170.293C76.0398 181.503 70.8098 186.903 63.8898 192.673C62.8698 196.383 58.7998 201.123 55.1998 205.303L42.9698 219.523H42.9598Z" fill="currentColor"/>
<path d="M103.07 152.541L104.06 147.281L99.0195 149.051L103.07 152.541Z" fill="currentColor"/>
<path d="M127.69 107.3L126.16 107.18L126.24 106.11C126.36 104.56 126.5 102.69 126.67 100.56C126.83 98.5695 127.02 96.0995 127.55 93.7895C127.46 91.7895 127.36 88.3295 130.2 86.7295C128.95 84.0895 128.67 82.1495 129.31 80.5095C129.87 79.0595 131.16 77.9095 133.24 76.9895C129.05 69.8895 129.46 63.5795 131.42 56.3795C130.41 51.1295 130.85 45.2595 131.24 40.0695L132.57 22.5195L134.1 22.6395L132.77 40.1795C132.38 45.3295 131.94 51.1695 132.96 56.2595L133 56.4395L132.95 56.6195C130.99 63.7595 130.59 69.9595 135.02 76.9595L135.53 77.7595L134.65 78.0895C132.5 78.8895 131.23 79.8695 130.76 81.0695C130.25 82.3895 130.62 84.1995 131.94 86.7495L132.33 87.5095L131.53 87.8195C129.31 88.6595 128.96 90.6695 129.11 93.8395V93.9495L129.09 94.0495C128.57 96.2895 128.38 98.7395 128.22 100.7C128.05 102.83 127.91 104.7 127.79 106.25L127.71 107.32L127.69 107.3Z" fill="currentColor"/>
<path d="M124.32 106.258L126.63 111.078L129.65 106.668L124.32 106.258Z" fill="currentColor"/>
<path d="M141.79 93.5302L140.37 92.9501C140.62 92.3401 140.88 91.6602 141.17 90.9102L141.22 90.8102C143 87.6202 145.17 82.9302 147.69 77.5002L172.87 23.1602L174.26 23.8002L149.1 78.1002C146.56 83.5802 144.39 88.2702 142.59 91.5102C142.31 92.2502 142.04 92.9302 141.8 93.5302H141.79Z" fill="currentColor"/>
<path d="M139.01 91.2383L139.17 96.5783L143.72 93.7683L139.01 91.2383Z" fill="currentColor"/>
<path d="M136.6 115.571L135.479 114.531C135.849 114.131 136.25 113.691 136.66 113.221L136.759 113.121C140.229 110.411 143.78 107.031 142.07 101.211L141.829 100.391L142.669 100.241C152.989 98.3706 158.059 94.1906 162.779 83.7106L163.02 83.1706L163.6 83.2606C168.82 84.1106 173.789 79.5306 178.179 75.4906L194.059 60.8906L195.1 62.0206L179.219 76.6206C174.719 80.7506 169.649 85.4206 163.939 84.8506C159.219 95.1006 153.839 99.5806 143.759 101.581C145.289 108.321 140.46 112.161 137.77 114.271C137.36 114.731 136.969 115.161 136.609 115.551L136.6 115.571Z" fill="currentColor"/>
<path d="M134.63 112.602L133.34 117.782L138.48 116.312L134.63 112.602Z" fill="currentColor"/>
<path d="M142.82 117.988L142.14 116.618C147.04 114.188 148.02 113.098 147.98 112.608C147.98 112.538 147.85 111.928 145.33 111.208L142.57 110.418L145.36 109.728C159.6 106.228 163.92 103.238 172.56 90.9183L173.78 89.1783L173.95 91.2983C174.08 92.9083 174.47 93.8683 175.13 94.1683C176.9 94.9783 181.45 91.6083 184.45 89.3783L184.59 89.2983C187.4 88.0083 191.73 85.1783 195.54 82.6883L208.46 74.2383L209.3 75.5183L196.4 83.9483C192.55 86.4683 188.21 89.2983 185.3 90.6483C180.64 94.0983 176.89 96.6383 174.5 95.5483C173.67 95.1683 173.1 94.4283 172.75 93.2883C165.07 103.978 160.25 107.388 148.05 110.618C148.84 111.068 149.43 111.658 149.51 112.468C149.67 114.238 147.18 115.838 142.83 117.988H142.82Z" fill="currentColor"/>
<path d="M141.5 114.777L139.51 119.737L144.8 118.977L141.5 114.777Z" fill="currentColor"/>
<path d="M161.79 130.641L161.56 128.051C161.43 126.611 161.05 122.241 159.67 121.731C158.3 121.221 155.09 124.111 152.13 127.001L148.73 130.321L150.92 126.101C152.21 123.611 152.42 122.671 152.43 122.341C152 122.381 150.85 122.821 147.78 124.771L146.96 123.481C151.03 120.901 152.62 120.341 153.52 121.171C153.99 121.611 154.1 122.261 153.79 123.361C156.62 120.861 158.61 119.711 160.21 120.301C161.53 120.791 162.33 122.351 162.81 125.531C168.37 115.971 173.53 114.591 185.11 115.981C184.73 115.011 184.69 114.111 185 113.291C185.92 110.871 189.6 109.771 194.31 108.571C198.97 107.081 204.07 105.641 209.01 104.241L234.81 96.9414L235.23 98.4114L209.43 105.711C204.51 107.101 199.41 108.541 194.74 110.041C191.33 110.901 187.15 111.961 186.44 113.831C186.17 114.541 186.39 115.411 187.12 116.491L188.07 117.901L186.38 117.681C173.52 115.981 168.89 117.171 163 128.351L161.79 130.651V130.641Z" fill="currentColor"/>
<path d="M148.58 121.121L143.65 123.201L147.92 126.431L148.58 121.121Z" fill="currentColor"/>
<path d="M210.3 172.539L191.64 162.459C186.33 159.589 180.31 156.339 174.76 153.169C169.01 150.209 162.5 146.859 161.68 141.539C158.24 141.299 155.63 140.829 153.52 140.089C150.92 139.419 148.87 138.319 147.14 136.649C145.58 135.639 144.14 134.189 142.56 132.039C141.41 133.559 140.25 133.619 139.43 133.359C139.14 133.279 138.83 133.129 138.53 132.919L139.39 131.649C139.56 131.769 139.73 131.849 139.88 131.889C140.13 131.969 140.84 132.189 141.86 130.299L142.45 129.199L143.16 130.229C144.91 132.769 146.42 134.359 148.04 135.399L148.16 135.499C149.71 137.009 151.55 137.999 153.97 138.629C156.14 139.389 158.81 139.839 162.43 140.059L163.11 140.099L163.15 140.779C163.44 145.629 169.85 148.929 175.5 151.829C181.06 154.999 187.07 158.249 192.38 161.119L211.04 171.199L210.31 172.549L210.3 172.539Z" fill="currentColor"/>
<path d="M137.68 134.529L136.5 129.309L141.61 130.899L137.68 134.529Z" fill="currentColor"/>
<path d="M190.01 188.511L174.71 173.561C172.52 171.421 170.2 169.151 168.18 167.131C166.15 165.101 164.54 163.431 163.9 162.181C162.8 161.431 160.97 160.071 161.42 158.241C160.35 157.881 159.24 157.291 158.94 156.241C158.78 155.661 158.89 155.031 159.27 154.351C157.4 154.281 156.43 153.871 156.02 153.041C155.67 152.331 155.89 151.531 156.33 150.751C154.92 150.891 154.07 150.631 153.61 149.961C153.14 149.281 153.19 148.381 153.84 147.031C152.34 147.501 151.42 147.431 150.81 146.851C150.24 146.311 150.12 145.461 150.46 144.141C149.62 144.481 148.79 144.601 148.16 144.151C147.49 143.681 147.25 142.781 147.44 141.221C146.66 141.711 145.89 141.961 145.19 141.641C144.44 141.301 144.12 140.441 144.01 139.481C143.47 139.831 142.86 140.031 142.24 139.841C141.25 139.541 140.76 138.401 140.46 137.111C140.02 137.291 139.59 137.341 139.16 137.271C138.24 137.121 137.44 136.441 136.59 135.091C135.18 134.701 133.92 133.381 132.6 131.991L133.09 131.521H132.39L132.24 129.391L133.71 130.941C134.91 132.201 136.15 133.511 137.19 133.671L137.55 133.721L137.74 134.031C138.37 135.111 138.94 135.691 139.42 135.771C139.73 135.821 140.09 135.661 140.52 135.301L141.56 134.411L141.78 135.761C142.17 138.161 142.65 138.371 142.71 138.391C142.71 138.391 143.11 138.491 144.18 137.341L145.56 135.861L145.51 137.891C145.45 139.991 145.84 140.271 145.85 140.271C145.85 140.271 146.33 140.421 148.08 138.791L149.93 137.061L149.35 139.521C148.63 142.551 149.07 142.911 149.08 142.911C149.08 142.911 149.53 143.131 151.45 141.891L153.51 140.551L152.58 142.821C151.54 145.341 151.92 145.751 151.92 145.751C151.94 145.771 152.39 146.161 155.34 144.811L157.75 143.711L156.3 145.931C154.58 148.561 154.9 149.071 154.91 149.091C154.91 149.091 155.27 149.551 157.94 148.931L160.2 148.411L158.69 150.171C157.23 151.881 157.44 152.351 157.44 152.371C157.47 152.431 157.81 152.941 160.84 152.811L162.74 152.731L161.42 154.101C160.4 155.161 160.4 155.661 160.44 155.821C160.49 156.011 160.82 156.511 162.68 157.001L163.69 157.261L163.14 158.141C162.66 158.911 162.81 159.561 164.96 161.021L165.14 161.141L165.23 161.341C165.68 162.361 167.41 164.141 169.29 166.031C171.3 168.041 173.62 170.311 175.8 172.441L191.1 187.391L190.03 188.491L190.01 188.511Z" fill="currentColor"/>
<path d="M131.95 134.002L130.28 128.922L135.51 130.022L131.95 134.002Z" fill="currentColor"/>
</svg>
