<svg width="92" height="90" viewBox="0 0 92 90" fill="none" xmlns="http://www.w3.org/2000/svg">
<path d="M42.566 3.24106C43.2155 12.0462 43.152 13.1246 38.7513 7.60645C42.301 14.5152 41.5134 20.4052 32.3127 20.6469C40.7594 21.9074 40.7893 23.0936 35.9594 29.8871C39.7218 26.0534 38.6244 27.8271 35.9669 31.802C37.3666 30.3296 37.2023 31.0546 36.4297 32.7056C36.299 33.2522 35.56 34.721 34.8023 36.2232C33.7945 38.2237 32.7569 40.28 31.7304 42.3177C30.7002 44.3591 29.685 46.3781 29.4498 44.9875C27.7403 50.2341 26.8146 52.0673 22.6715 54.0641C25.135 55.4027 11.164 69.2463 8.54004 72.9089C22.1228 60.073 10.7833 73.9686 9.76805 75.6159C10.0741 75.3779 14.2807 69.7668 10.5332 75.7535C10.8094 75.3407 23.1306 57.7601 12.1979 75.5675C13.691 73.515 14.4935 73.0018 14.2807 75.3556C15.7551 71.5591 16.2104 70.6295 15.4901 73.3477C17.4795 69.8226 18.7523 64.6131 20.5962 73.1989C18.7374 69.4657 29.3229 55.7113 30.577 56.7859C29.7745 55.4138 28.7518 58.2249 32.3836 60.1883C29.1885 57.8605 28.8825 57.1355 31.9879 55.4696C29.5618 56.7302 30.4352 57.0946 34.1491 57.7304C30.6816 56.9124 30.0507 56.3695 32.5068 54.5958C29.7484 56.3918 30.5509 56.7636 34.4701 56.8863C31.4243 56.3286 33.2607 53.0601 36.0452 50.5799C33.6265 52.8519 32.1522 55.9047 35.0188 55.8638C32.0439 55.9307 33.4063 52.9002 35.8399 50.6245C33.4922 52.6994 32.2156 55.5291 35.1121 55.1573C32.5628 55.2949 34.1864 52.2383 36.3364 50.2713C33.8505 52.0636 31.8909 54.949 34.6381 54.4954C31.0212 55.1424 32.1111 52.4503 34.8433 50.3717C32.1858 52.4019 31.1668 55.0494 34.7239 54.3578C32.182 54.804 34.2125 51.9111 36.523 50.2564C34.5895 52.0561 32.936 55.0903 35.2278 54.9267C32.4844 55.3506 33.6863 52.573 35.8773 50.5985C33.6415 52.7403 32.3873 55.6853 35.1942 55.4771C32.6971 55.5774 34.2573 52.5321 36.3737 50.4721C33.8729 52.7329 31.9245 55.9828 34.694 56.3472C30.8458 56.4736 29.95 56.1761 32.6075 54.3838C30.1441 56.0794 31.2153 56.2877 34.8247 56.0832C32.0925 55.8377 33.6639 52.7254 35.8586 50.6022C33.7572 52.5395 32.727 55.2428 35.392 54.7594C33.5892 54.8672 35.4891 51.7921 37.0232 50.3085C35.4107 51.4761 35.2054 51.7773 36.941 51.3013C38.0832 51.0484 24.855 59.1471 35.4928 49.9552C34.1379 51.3162 34.5933 50.5762 36.1721 48.9624C34.179 49.6503 33.858 49.3789 35.2203 47.7242C32.9174 48.8546 32.2977 48.598 33.2421 46.1588C33.1226 48.5199 34.3133 48.6798 35.9482 48.0068C34.862 49.1335 34.2163 49.4272 34.5559 47.8841C34.3507 49.6094 35.9557 49.4086 37.374 49.0145C37.6652 49.1446 37.7697 49.0777 37.4673 48.8695C36.299 49.0703 34.7202 49.1298 34.3245 47.2817C34.3768 48.9252 36.0266 48.6389 37.4188 48.1481C38.3557 47.9064 39.0387 47.4639 39.2814 46.8318C39.7666 45.5675 38.4901 43.5559 35.7989 39.9119C41.3417 44.8982 41.2223 43.3588 39.7479 37.3648C41.5806 43.8459 41.98 45.5043 38.4378 38.2758C42.5436 47.1479 42.7041 47.1293 41.338 37.3834C42.9281 45.4114 42.9841 43.7121 43.0064 36.8591C42.9841 43.7158 42.9505 45.4114 42.4578 37.2606C43.0811 47.1404 43.2491 40.3692 45.8395 30.7869C43.9209 38.7777 44.4286 37.1565 46.4553 30.5564C44.7197 37.335 44.5069 45.9394 52.2856 42.2359C49.837 44.2587 48.2805 45.6679 47.5975 46.7165C46.9144 47.7651 47.1085 48.4493 48.0977 48.308C48.6575 48.9513 49.419 49.3863 50.3932 49.602C51.4644 49.8846 52.7521 49.9478 53.6629 49.0628C52.7036 49.8772 51.6324 49.7842 50.9157 49.4644C50.4305 49.3157 50.2999 48.9401 50.5126 48.4047C50.6246 48.6389 51.08 48.7096 51.6734 48.5943C52.4983 48.6835 53.4613 48.5869 54.1854 47.9064C53.689 48.7244 52.9537 48.9624 52.1773 48.8286C51.931 49.1855 51.6473 49.1744 51.5279 48.8137C51.3786 49.7916 51.3898 50.4275 51.3711 50.4758C52.2818 51.1228 53.1627 51.1897 53.592 49.9404C52.9761 51.543 51.9123 51.833 50.8149 51.4277C50.703 51.517 50.5611 50.9109 50.6619 49.6726C50.4827 51.2083 50.5499 52.1119 50.5574 52.2346C51.6921 52.8072 52.7671 52.599 53.2336 50.87C52.7372 52.6697 52.1475 53.2349 51.3114 53.0341C52.7708 53.6179 53.9802 53.4357 54.2041 51.5095C54.1631 53.5286 53.1254 53.8001 51.4084 53.0824C52.1139 53.194 52.1475 52.309 51.9944 50.2936C51.8489 52.1788 51.5167 52.9337 50.912 52.7812C52.043 53.2497 52.8977 52.811 53.2075 50.8811C52.8455 52.6548 51.9347 52.9374 50.8448 52.3722C51.2293 52.3945 51.4308 51.5653 51.6361 49.8623C51.7332 51.3868 51.8339 52.0375 51.4644 51.7549C52.8604 52.361 53.7898 52.0338 53.9727 50.1709C53.8607 52.0822 53.0097 52.4503 51.6025 51.8405C52.1512 52.2049 52.1437 51.5876 52.0056 49.959C51.8899 51.7921 51.6398 52.6102 51.0501 52.5098C52.2221 53.101 53.0508 52.7701 53.2672 50.8997C52.7335 52.7403 52.1064 53.3241 51.2703 53.1568C52.7409 53.748 53.9988 53.5881 54.2788 51.7066C54.2788 53.8447 53.6032 54.3801 52.0542 54.1496C53.954 54.7259 54.973 54.5326 54.8797 52.8073C55.6262 54.9305 55.2156 55.4956 53.2971 55.6146C55.6561 55.9865 56.5071 55.9121 56.3839 55.3023C57.0259 56.2244 56.69 56.6112 54.8872 57.392C57.0595 57.0834 57.7687 57.1652 58.03 58.1506C59.0938 57.9721 77.0735 82.1937 78.9397 84.9193C78.9397 83.4171 49.2025 42.8494 81.8885 86.1389C44.9959 34.8139 83.221 85.8043 83.9675 86.7339C79.2346 79.6317 64.1028 60.2515 87.1812 86.4438C85.7629 84.5066 65.8646 63.4828 76.1478 68.9376C73.7963 66.4203 61.4826 55.3804 61.1579 51.9966C59.8029 52.045 58.8773 50.2118 57.6045 47.1479C56.9363 46.3558 55.9174 44.3368 54.8909 42.2991C53.8644 40.2614 52.8268 38.2051 51.819 36.2009C51.0613 34.6987 50.3223 33.2299 50.2177 32.7949C49.404 31.0695 49.2286 30.3779 50.5873 32.0177C47.9707 27.8754 46.8846 26.0646 50.3223 30.2812C45.72 23.0601 45.6379 21.8665 54.0324 20.4684C44.8839 20.3643 44.2083 14.4855 45.5409 6.9483C43.3722 13.1022 43.2155 12.0239 42.566 3.21875V3.24106Z" fill="currentColor"/>
</svg>
