<svg width="433" height="425" viewBox="0 0 433 425" fill="none" xmlns="http://www.w3.org/2000/svg">
<path d="M112.61 131.702C113.52 133.412 117.37 135.412 120.37 137.252C122.59 138.922 125.68 140.752 128.34 142.502C131.01 144.252 134.47 146.092 136.29 147.802C139.64 149.592 143.45 151.292 144.16 153.232C148.35 154.742 151.66 156.232 151.92 158.832C156.29 159.662 158.95 161.232 159.51 164.672C163.37 164.742 165.99 166.962 166.89 170.782C170.23 170.622 172.91 173.532 174.01 177.202C174.98 175.472 175.01 175.502 174.04 177.232C175.01 175.502 175.03 175.542 174.07 177.262C175.65 176.232 176.29 177.612 175.54 180.042C176.76 179.442 176.86 180.902 175.74 183.092C176.78 181.812 175.87 180.862 174.83 182.222C176.69 180.762 177.7 180.712 177.59 182.102C179.4 180.832 180.52 181.272 180.42 183.012C182.12 182.342 182.81 183.632 182.18 185.462C183.37 185.292 183.56 186.512 182.66 188.212C183.61 187.342 182.6 186.712 181.63 187.622C183.2 186.432 183.92 186.132 183.75 186.912C185.32 185.892 186.25 186.032 186.15 187.242C187.61 186.772 188.18 187.542 187.81 188.902C188.89 188.692 189.19 189.452 188.72 190.862C189.41 190.062 188.79 189.672 188.06 190.472C189.66 189.552 190.6 189.842 190.72 191.062C191.97 190.642 192.55 191.162 192.72 192.582C193.66 192.162 194.18 192.712 194.47 194.232C194.71 193.212 196.37 194.692 196.28 195.792C196.37 194.692 203.14 200.952 203.47 202.092C203.14 200.962 202.9 201.282 203.22 202.422C202.91 201.282 201.91 200.472 202.18 201.622C201.74 200.342 201.57 200.182 201.66 201.242C201.41 200.072 201.36 200.042 201.61 201.212C201.36 200.042 201.38 200.042 201.63 201.212C201.39 200.042 201.38 200.042 201.63 201.212C201.39 200.042 201.45 200.052 201.76 201.152C201.56 199.902 201.52 199.842 201.77 200.992C201.596 200.212 201.596 200.212 201.77 200.992C201.51 199.822 201.61 199.932 201.87 201.102C201.61 199.932 201.83 200.162 202.11 201.322C201.84 200.162 201.66 200.372 201.92 201.542C201.66 200.382 201.42 200.162 201.67 201.332C201.42 200.162 201.3 200.042 201.54 201.212C201.28 200.022 201.26 200.002 201.49 201.142C201.24 199.952 201.21 199.882 201.51 200.972C201.33 199.732 201.38 199.742 201.65 200.902C201.4 199.732 201.42 199.742 201.68 200.902C201.42 199.732 201.48 199.752 201.74 200.922C201.48 199.752 201.57 199.802 201.83 200.972C201.75 199.912 201.93 200.062 202.39 201.332C202.1 200.172 203.14 200.942 203.47 202.082C203.14 200.952 202.9 201.272 203.22 202.412C202.91 201.272 195.83 195.332 195.7 196.452C195.83 195.332 194.11 193.902 193.83 194.952C193.55 193.412 193.02 192.882 192.04 193.382C191.39 191.502 190.16 190.642 188.26 191.672C188.97 190.852 188.53 190.932 187.79 191.752C188.53 190.932 188.36 190.472 187.6 191.282C187.92 189.372 187.25 188.012 185.56 188.412C185.56 187.162 184.28 187.522 182.28 188.892C183.25 188.042 182.34 188.542 181.34 189.372C182.34 188.542 182.24 187.422 181.25 188.302C182.11 185.932 181.58 183.792 179.57 184.262C180.02 182.782 179.21 182.482 177.49 183.662C177.79 182.402 176.87 182.472 175.07 183.802C176.12 182.572 175.14 182.722 174.08 183.942C175.14 182.722 175.21 181.632 174.16 182.932C175.28 180.842 175.2 179.642 173.97 180.442C174.81 178.232 174.35 177.222 172.83 178.342C173.86 176.672 173.92 176.732 172.89 178.402C171.85 174.792 169.18 171.952 165.79 172.062C164.89 168.282 162.28 166.092 158.47 165.982C157.86 162.532 155.22 160.952 150.96 160.122C150.61 157.442 147.36 155.942 143.32 154.422C142.51 152.382 138.81 150.662 135.59 148.822C133.72 147.012 130.41 145.122 127.82 143.272C125.23 141.422 122.2 139.472 120.08 137.662C118.42 136.612 116.51 135.602 116.29 134.742C115.34 134.572 111.14 131.512 112.64 131.662L112.61 131.702Z" fill="currentColor"/>
<path d="M199.46 202.993C199.35 201.823 205.05 203.183 205.42 204.243C205.05 203.183 203.12 197.343 203.53 198.463C203.13 197.343 199.36 201.823 199.47 202.993H199.46Z" fill="currentColor"/>
<path d="M87.6797 147.58C89.7497 146.64 93.1397 149.01 97.1497 151.84C99.0697 151.56 103.1 153.93 106.82 155.55C107.89 155.55 110.02 156.47 111.74 157.48C113.13 158.17 114.77 159.15 116.31 159.95C119.36 161.57 122.45 163.12 125.55 164.65C128.65 166.17 131.89 167.61 134.91 169.12C138.14 170.52 141.79 171.6 144.34 173.45C144.88 173 149.88 174.72 153.81 177.73C159.06 178.86 164.16 180.88 163.28 182.01C164.16 180.88 164.2 180.89 163.31 182.03C164.2 180.9 164.22 180.91 163.33 182.04C165.52 181.65 167.09 182.7 167.31 184.81C168.82 184.37 169.45 185.36 168.74 187.15C169.77 186.82 169.67 187.58 168.63 188.7C169.34 188.5 168.98 189.07 167.89 189.93C168.69 189.4 168.24 188.09 167.42 188.71C170.17 188.37 172.53 188.65 173.42 189.8C176.31 189.53 178.53 190.19 179.26 191.85C181.14 191.61 182.03 192.29 181.8 193.75C183.45 193.71 184.01 194.57 183.65 196.32C185.37 197.21 185.64 199.35 185.37 202.23C185.94 201.26 185.28 201.14 184.69 202.09C185.71 200.51 186.26 199.73 186.13 200.13C187.24 198.53 187.83 197.81 187.9 198.4C188.82 197.14 189.22 196.89 189.12 197.92C190.09 196.81 190.53 196.98 190.38 198.33C191.47 197.75 191.81 198.52 191.81 200.34C192.15 199.19 191.92 199.33 191.56 200.47C191.56 198.69 191.17 197.96 190.14 198.65C190.33 197.35 190.01 197.25 189.16 198.38C189.37 197.34 189.04 197.57 188.19 198.83C188.19 198.21 187.65 198.92 186.62 200.53C186.76 200.11 186.26 200.89 185.3 202.51C185.86 201.54 185.36 202.36 184.81 203.3C185.35 202.36 185.2 201.43 184.62 202.37C184.82 199.57 184.47 197.54 182.76 196.8C182.71 194.34 181.3 193.05 178.68 192.92C178.05 191.41 175.93 190.9 173.11 191.13C172.22 190.14 169.88 189.97 167.2 190.2C167.95 189.72 166.55 189.58 165.87 190.03C166.56 189.58 167.51 188.42 166.74 188.98C167.92 187.92 168.19 187.22 167.23 187.48C167.98 186.27 167.55 185.56 166.21 185.95C166.09 184.18 164.59 183.24 162.53 183.48C163.31 182.54 163.37 182.57 162.59 183.51C160.34 181.22 156.71 179.91 153.1 179.3C150.53 177.17 147.12 176.13 143.62 175.04C140.89 173.29 137.36 172.12 134.19 170.65C131.06 169.16 127.94 167.63 124.86 166.04C121.77 164.46 118.7 162.83 115.68 161.12C114.16 160.28 112.53 159.26 111.17 158.53C109.62 157.55 107.63 156.62 106.49 156.51C102.83 154.81 98.8397 152.24 96.9297 152.36C93.0097 149.4 89.6597 146.84 87.6897 147.59L87.6797 147.58Z" fill="currentColor"/>
<path d="M188.449 200.79C188.949 199.72 193.519 203.31 193.319 204.44C193.519 203.31 194.279 197.24 194.049 198.4C194.279 197.24 188.949 199.72 188.449 200.79Z" fill="currentColor"/>
<path d="M89.2405 246.659C89.4105 247.849 89.5705 249.089 90.1105 250.139C90.2505 250.389 90.4405 250.619 90.6705 250.699C90.9005 250.779 91.1705 250.699 91.4005 250.549C91.8805 250.249 92.2805 249.789 92.6605 249.339C93.4205 248.419 94.1005 247.419 94.8005 246.429C95.4905 245.439 96.2005 244.449 96.9405 243.479L97.3605 242.929L97.5905 243.619C97.7405 244.059 97.9805 244.379 98.3505 244.449C98.7205 244.539 99.2005 244.429 99.6605 244.279C100.59 243.959 101.51 243.429 102.41 242.909C104.23 241.859 105.96 240.629 108.09 239.849C112.17 238.609 116.19 237.389 120.26 236.199L126.31 234.359L129.33 233.439C130.32 233.149 131.38 232.749 132.46 232.529C134.61 232.049 136.78 231.939 138.86 231.769C140.95 231.599 142.97 231.329 144.87 230.669L144.81 230.689C146.37 229.999 147.73 228.899 148.8 227.519C149.88 226.139 150.71 224.539 151.38 222.859L151.75 221.949L152.58 222.449C154.31 223.509 156.11 224.389 158 225.049C159.88 225.679 161.84 226.029 163.81 225.949C165.78 225.879 167.74 225.459 169.65 224.789C171.56 224.149 173.43 223.329 175.27 222.439L175.55 222.299L175.83 222.419C177.74 223.259 180.07 223.229 182.27 223.049C184.52 222.819 186.78 222.269 188.98 221.939C189.01 221.819 192.38 221.029 195.71 220.609C199.07 219.709 202.4 218.979 202.44 219.279C202.4 218.979 202.46 219.269 202.5 219.549C202.46 219.269 199.16 220.169 195.83 221.189C192.52 221.809 189.19 222.799 189.16 222.829C186.97 223.319 184.68 223.869 182.37 224.159C180.07 224.409 177.64 224.559 175.28 223.629H175.83C173.98 224.579 172.09 225.479 170.1 226.199C168.11 226.909 166 227.399 163.84 227.489C161.68 227.599 159.5 227.229 157.46 226.559C155.44 225.879 153.5 224.949 151.7 223.869L152.89 223.459C152.19 225.239 151.32 226.989 150.12 228.559C148.92 230.119 147.34 231.489 145.47 232.269L145.43 232.289H145.4C143.29 233.009 141.09 233.279 138.96 233.429C136.83 233.579 134.76 233.669 132.77 234.099C131.77 234.289 130.84 234.639 129.8 234.929L126.75 235.829L120.65 237.629L108.43 240.959C106.54 241.579 104.74 242.749 102.88 243.759C101.94 244.269 101 244.789 99.9205 245.129C99.3805 245.279 98.7805 245.429 98.1205 245.249C97.7905 245.169 97.4805 244.949 97.2705 244.689C97.0505 244.429 96.9505 244.129 96.8605 243.839L97.5105 243.969C96.7405 244.889 95.9905 245.839 95.2505 246.799C94.5105 247.759 93.7805 248.729 92.9605 249.639C92.5405 250.089 92.1205 250.539 91.5505 250.869C91.2705 251.019 90.9005 251.139 90.5605 251.009C90.2205 250.869 90.0305 250.569 89.8905 250.289C89.3905 249.139 89.3305 247.909 89.2305 246.709L89.2405 246.659Z" fill="currentColor"/>
<path d="M202.251 222.551C202.221 222.661 206.661 218.141 206.741 218.441C206.671 218.151 200.891 216.121 200.941 216.611C200.891 216.121 202.231 222.661 202.261 222.551H202.251Z" fill="currentColor"/>
<path d="M140.96 330.781C143.53 326.851 146.2 322.981 148.83 319.101L156.7 307.431C159.29 303.521 161.87 299.611 164.29 295.611C165.48 293.601 166.66 291.591 167.67 289.511C168.23 288.431 169.46 286.781 169.07 286.371C170.23 284.711 171.76 282.731 169.84 283.191C171.82 281.751 171.92 281.421 169.86 282.931C171.92 281.421 172.25 281.101 170.04 282.721C173.57 279.541 179.06 274.991 174.11 277.551C180.98 272.221 185.52 268.631 177.11 271.871C186.39 266.141 188.1 264.031 178.16 265.621C188.09 261.811 186.52 260.601 177.27 259.231C186.27 259.581 185.74 259.101 177.03 258.251C185.74 259.101 187.74 259.101 178.03 258.201C188.65 259.051 193.58 259.131 183.4 257.251C195 258.641 196.73 258.551 187.98 254.471C197.64 257.701 198.1 257.241 191.29 250.091C198.72 256.151 198.58 254.971 193.75 245.011C198.86 254.311 198.87 254.211 193.82 244.851C198.87 254.221 198.93 254.181 193.96 244.771C196.59 249.391 197.95 251.591 198.24 251.311C198.53 251.041 197.74 248.291 196.09 243.051C198.01 248.031 199.03 250.291 199.23 249.911C199.51 249.521 198.98 246.501 197.93 240.891C199.35 246.011 200.32 247.791 200.55 246.851C201.19 245.871 201.33 242.141 201.18 236.141C201.62 241.711 201.9 244.511 201.57 244.581C202.01 244.611 201.88 241.901 201.47 236.321C201.63 242.341 201.47 246.111 200.83 247.141C200.67 248.121 199.77 246.381 198.49 241.291C199.43 246.891 199.9 249.931 199.61 250.351C199.44 250.751 198.48 248.551 196.73 243.631C198.24 248.831 198.96 251.571 198.65 251.891C198.35 252.211 197.03 250.101 194.46 245.631C199.26 254.781 199.32 254.661 194.67 245.391C199.07 255.321 199.24 256.521 192.37 250.681C198.67 257.611 198.26 258.111 188.97 255.481C197.35 259.031 195.53 259.231 183.94 258.701C194.02 259.781 188.92 259.841 178.13 259.851C187.97 259.901 189.29 259.421 178.89 258.821C189.58 260.491 190.67 261.671 179.88 265.611C190.7 264.011 188.55 266.181 178.77 272.461C187.61 268.811 182.75 272.761 175.52 278.521C180.75 275.601 175.02 280.431 171.29 283.791C173.65 281.971 174.1 281.321 171.49 283.311C173.99 282.511 172.03 284.931 170.55 286.931C171.18 287.121 169.67 289.061 169.03 290.191C167.97 292.321 166.72 294.341 165.48 296.341C162.96 300.321 160.31 304.201 157.59 308.041C154.89 311.881 152.13 315.681 149.34 319.461L140.98 330.791L140.96 330.781Z" fill="currentColor"/>
<path d="M203.44 238.56C203.77 244.17 203.62 245.16 203.01 243.53C203.73 241.88 203.79 237.59 203.58 232.48C203.79 237.59 202.71 240.97 201.31 241.78C200.61 242.6 199.06 240.8 198.24 235.4C199.07 240.81 200.5 244.4 201.18 245.26C202.49 246.08 203.78 244.17 203.44 238.57V238.56Z" fill="currentColor"/>
<path d="M212.02 94.5898C212.59 99.6698 212.84 104.78 213.04 109.89C213.13 112.44 213.19 115 213.25 117.55C213.31 120.1 213.35 122.65 213.41 125.2C213.46 127.75 213.48 130.32 213.62 132.84C213.66 135.4 213.65 137.98 213.98 140.47C213.94 143.05 213.97 145.88 214.59 148.07C214.47 150.86 214.62 153.77 215.52 155.63C215.01 156.22 215 156.16 215.51 155.57C215.74 159.58 218.26 162.98 220.46 165.03C220.53 165.57 221.3 166.25 221.1 165.76C221.3 166.25 220.23 166.76 220.26 166.24C219.44 167.21 218 167.88 217.98 167.91C216.8 169.1 216.06 169.92 216.82 170.14C215.9 171.49 216.1 172.36 217.37 172.73C216.84 173.99 217.53 174.73 218.87 175.24C218.07 175.5 218.53 176.04 219.29 175.83C218.53 176.04 217.79 176.4 218.67 176.18C217.31 176.68 216.62 177.09 217.41 177.29C216.03 177.94 215.73 178.49 216.81 178.88C215.46 180.15 215.64 181.37 217.06 182.64C215.87 182.57 215.88 182.64 217.07 182.72C215.88 182.65 215.87 182.7 217.07 182.78C215.71 184.67 215.89 186.7 217.1 189.14C215.99 188.71 216.56 194.93 217.46 195.56C216.55 194.92 216.23 194.94 217.14 195.59C216.23 194.94 215.3 188.75 216.41 189.2C215.08 186.74 214.78 184.69 216.07 182.72C214.88 182.64 214.89 182.77 216.07 182.86C214.61 181.55 214.33 180.28 215.65 178.74C214.54 178.25 214.82 177.53 216.38 176.62C215.64 176.3 216.51 175.74 218.02 175.07C217.1 175.38 216.84 176.29 217.83 176.01C216.25 175.5 215.53 174.71 216.11 173.32C214.61 172.88 214.3 171.79 215.34 170.01C214.47 169.49 215.41 168.28 216.86 166.86C216.91 166.73 218.44 165.97 219.46 164.87C219.3 165.45 219.01 166.65 219.26 166.08C217.79 165.29 216.16 163.75 215.88 161.39C214.38 160.47 213.56 158.42 213.83 155.95C213.15 156.59 213.14 156.57 213.83 155.92C213.15 156.56 213.14 156.53 213.83 155.89C212.76 154.08 212.55 151.12 212.87 148.25C212.07 146.12 212.09 143.22 212.3 140.58C211.81 138.16 211.94 135.51 212.03 132.9C211.85 130.41 211.97 127.78 211.97 125.23C211.97 125.23 212.01 121.4 212.05 117.57L212.13 109.91C212.21 104.81 212.18 99.7098 212.03 94.5998L212.02 94.5898Z" fill="currentColor"/>
<path d="M214.21 194.961C213.29 194.221 216.97 199.291 217.7 199.951C216.97 199.291 219.37 193.931 220.28 194.441C219.38 193.931 213.29 194.231 214.22 194.971L214.21 194.961Z" fill="currentColor"/>
<path d="M253.379 79.3516C251.929 87.5816 250.149 95.7616 248.149 103.882C247.659 105.912 247.149 107.942 246.639 109.972C246.129 112.002 245.599 114.022 245.069 116.042C244.539 118.062 244.099 120.362 243.459 122.102C243.019 124.372 242.849 127.192 241.829 128.152C242.319 129.142 242.109 133.122 240.179 134.192C240.559 138.782 240.529 142.442 238.529 140.232C240.529 142.442 239.739 148.402 236.889 146.272C239.269 150.152 239.309 152.192 235.359 152.332C238.879 153.902 238.329 156.562 233.829 158.412C237.039 161.682 235.929 164.372 232.299 164.492C235.489 166.092 234.059 168.082 230.689 170.552C233.079 171.592 231.179 173.852 228.849 176.562C230.569 175.652 230.579 175.622 228.849 176.532C230.569 175.622 229.949 177.232 228.529 178.152C229.949 177.232 229.539 177.222 228.199 178.092C229.539 177.212 230.039 175.602 228.419 176.462C230.039 175.612 230.039 175.602 228.419 176.462C230.039 175.612 230.049 175.582 228.419 176.442C230.539 173.772 232.209 171.532 229.889 170.372C232.989 167.962 234.249 165.962 231.209 164.252C234.629 164.202 235.619 161.452 232.539 158.132C236.759 156.212 237.219 153.452 233.869 152.012C237.609 151.692 237.529 149.612 235.289 145.892C238.409 146.012 238.209 143.582 236.859 139.812C239.209 139.892 238.999 137.132 238.469 133.752C240.019 133.312 239.989 130.452 240.119 127.702C241.259 125.862 241.619 122.372 242.359 119.652C243.109 116.972 243.859 114.292 244.609 111.612C247.609 100.892 250.579 90.1616 253.349 79.3716L253.379 79.3516Z" fill="currentColor"/>
<path d="M225.6 176.4C226.45 175.9 227.59 181.55 227.09 182.3C227.59 181.55 233.6 176.74 231.46 178.06C233.6 176.74 226.45 175.9 225.61 176.4H225.6Z" fill="currentColor"/>
<path d="M27.5598 226.341C34.5898 225.611 41.6398 225.011 48.6798 224.381L69.8198 222.721C83.9198 221.651 98.0298 220.801 112.13 219.851C126.24 218.981 140.35 218.181 154.45 217.171C157.98 216.941 161.5 216.721 165.03 216.501C168.56 216.281 172.18 215.941 175.61 215.871C179.21 215.521 182.86 215.041 186.2 215.311C189.83 214.691 193.34 214.291 196.78 214.651C196.79 214.021 196.81 214.201 196.79 214.821C192.2 214.691 187.5 215.451 182.71 216.151C178.19 216.241 173.32 216.911 168.62 217.281C163.92 217.651 159.22 218.021 154.53 218.441C140.44 219.601 126.32 220.481 112.22 221.401L27.5498 226.341H27.5598Z" fill="currentColor"/>
<path d="M196.099 217.539C196.119 217.099 200.659 214.009 200.729 214.629C200.669 214.009 195.939 211.279 195.899 212.079C195.939 211.279 196.119 217.109 196.109 217.539H196.099Z" fill="currentColor"/>
<path d="M334.93 67.0117C330.73 72.7017 326.44 78.3117 322.16 83.9417L309.15 100.692C300.45 111.832 291.57 122.842 282.78 133.912C273.92 144.932 265.02 155.902 256.27 167.002C254.06 169.762 251.86 172.522 249.64 175.282C247.42 178.042 245.24 180.942 242.98 183.532C240.81 186.422 238.71 189.452 236.27 191.742C234.28 194.842 232.22 197.702 229.64 200.012C230.1 200.452 229.96 200.332 229.5 199.902C232.69 196.602 235.29 192.612 238 188.602C240.98 185.202 243.76 181.142 246.65 177.422C249.54 173.702 252.43 169.972 255.28 166.222C263.91 155.022 272.76 143.992 281.58 132.942L334.94 67.0117H334.93Z" fill="currentColor"/>
<path d="M227.95 197.551C228.26 197.851 227.49 203.301 226.99 202.931C227.49 203.301 232.7 201.641 232.13 201.071C232.69 201.641 228.26 197.851 227.95 197.551Z" fill="currentColor"/>
<path d="M358.35 314.3C352.99 310.91 347.69 307.42 342.38 303.95L326.57 293.34C316.05 286.24 305.65 278.95 295.2 271.75C284.79 264.48 274.43 257.16 263.94 250C261.33 248.19 258.73 246.38 256.12 244.56C253.52 242.74 250.78 240.97 248.33 239.09C245.6 237.34 242.75 235.66 240.57 233.56C237.65 232.01 234.96 230.34 232.76 228.12C232.37 228.62 232.47 228.47 232.85 227.98C235.99 230.67 239.74 232.72 243.51 234.87C246.73 237.35 250.55 239.57 254.06 241.92C257.57 244.28 261.09 246.63 264.63 248.94C275.2 255.97 285.62 263.23 296.05 270.45L358.34 314.29L358.35 314.3Z" fill="currentColor"/>
<path d="M234.98 226.2C234.71 226.54 229.67 226.44 230 225.91C229.67 226.44 231.35 231.29 231.86 230.67C231.35 231.29 234.71 226.53 234.98 226.19V226.2Z" fill="currentColor"/>
<path d="M307.33 306.241C305.98 305.011 304.63 303.761 303.41 302.381C302.2 301.001 301.07 299.501 300.36 297.731L300.49 297.901C298.58 296.701 296.69 295.331 295.29 293.431C294.59 292.481 294.04 291.401 293.73 290.251C293.41 289.101 293.33 287.891 293.41 286.721L293.92 287.381C292.64 287.151 291.35 286.811 290.13 286.271C288.91 285.731 287.74 284.981 286.79 284.011C285.83 283.041 284.97 281.751 284.47 280.721C283.77 279.391 282.9 277.551 283.04 277.051C282.53 276.331 283.36 277.071 283.76 277.631C282.27 277.021 280.85 276.221 280.56 276.861C278.91 275.381 277.58 274.051 277.82 275.191C275.23 272.211 272.68 269.051 273.41 270.881C271.5 267.761 271.6 267.861 273.49 270.961C270.24 266.701 266.79 264.221 268.84 266.951C264.42 262.161 261.46 260.381 264.21 262.921C260.44 259.491 260.49 259.521 264.26 262.961C260.88 258.211 258.27 258.611 255.41 263.071C254.96 258.291 254.58 256.941 254.28 259.161C253.66 256.821 251.44 259.201 248.73 263.221C251.03 259.231 252.9 256.931 253.32 259.041C252.89 256.931 250.99 259.011 248.51 262.781C251.2 258.621 253.38 256.041 253.63 258.131C253.46 255.811 252.15 257.101 249.71 260.631C252.57 256.201 254.5 253.751 254.23 255.371C252.86 254.631 253.47 253.411 253.62 252.931C252.95 252.681 252.41 252.541 251.48 251.361C251.48 252.131 250.38 252.651 248.69 250.481C249.86 252.531 249.31 252.631 247.99 250.321C249.31 252.641 249.73 251.881 248.22 249.661C249.83 251.581 250.47 250.421 248.42 247.991C250.39 249.801 250.53 248.971 247.81 246.401C249.96 248.091 249.21 247.071 245.13 243.751C248.57 246.561 248.52 246.521 245.07 243.701C248.52 246.521 248.5 246.481 245.04 243.651C247.71 245.411 246.11 242.731 240.8 238.911C245.01 241.611 240.05 236.211 236.26 234.351C240.05 236.211 240.26 235.991 236.48 234.121C240.27 235.991 245.5 241.011 241.27 238.421C246.68 242.071 248.45 244.551 245.83 243.041C249.33 245.631 249.26 245.551 245.73 242.951C249.95 246.051 250.84 247.041 248.78 245.751C251.59 248.091 251.47 249.101 249.64 247.811C251.59 249.971 250.77 251.451 249.44 250.051C250.65 251.821 250.51 251.181 248.97 249.231C251.08 251.291 252.29 250.731 252.04 250.101C253.4 251.181 254.13 251.311 254.81 252.061C254.95 252.371 254.22 254.001 255.77 255.421C254.18 255.231 252.51 257.341 255.14 258.631C254.51 256.161 252.76 257.911 250.24 261.861C252.56 257.551 254.21 255.391 254.49 257.601C253.15 257.241 256.05 256.091 260.13 258.861C258.2 256.861 260.88 257.221 265.28 261.571C261.95 257.981 261.98 257.991 265.31 261.591C261.98 257.991 262 258.011 265.33 261.611C263.04 258.911 265.89 260.701 269.99 265.621C268.3 262.781 271.39 265.311 274.63 269.651C272.73 266.481 272.79 266.541 274.68 269.691C272.79 266.541 272.83 266.581 274.71 269.731C274.02 267.881 276.29 270.931 278.88 273.871C279.09 273.151 281.52 275.161 283.88 276.041C283.3 275.281 283.91 275.391 284.45 276.081C283.91 275.391 284.14 276.021 284.6 276.621C284.8 278.341 286.22 281.291 287.86 282.991C289.47 284.721 291.78 285.681 294.18 286.171L294.74 286.281L294.69 286.831C294.59 287.891 294.64 288.961 294.87 289.981C295.1 291.011 295.55 291.981 296.15 292.861C297.36 294.631 299.1 296.051 300.91 297.341L301.01 297.411L301.04 297.511C301.61 299.191 302.62 300.721 303.74 302.151C304.87 303.571 306.11 304.921 307.37 306.251L307.33 306.241Z" fill="currentColor"/>
<path d="M239.08 232.619C242.91 234.869 236.09 232.699 233.16 231.199C236.09 232.699 238.69 239.379 234.89 237.029C238.69 239.369 242.91 234.859 239.08 232.609V232.619Z" fill="currentColor"/>
<path d="M239.61 389.33C234.92 369.77 231.79 349.71 229.32 329.76C229.12 328.16 230.14 325.71 231.48 326.62C230.91 327.06 230.34 327.49 229.78 327.93C228.71 320.82 227.63 313.71 226.56 306.59C226.49 306.15 226.5 305.58 226.9 305.41C227.3 305.24 227.49 306.18 227.09 306C224.63 301.48 222.81 296.62 221.7 291.61C222.45 291.85 223.21 292.08 223.96 292.32C223.09 291.5 222.22 290.67 221.36 289.85L224.02 292.59L220.47 288.75C220.58 289.44 222.64 290.31 223.03 290.43C222.23 289.07 220.34 287.64 218.72 288.53C220.52 287.29 223.44 288.67 223.62 290.85C223.1 288.47 220.52 286.74 218.12 287.17C219.74 285.49 223.18 286.75 223.34 289.08C222.75 286.44 219.94 284.51 217.27 284.91C217.7 283.67 219.05 282.82 220.35 282.97C221.65 283.12 222.77 284.25 222.91 285.55C222.37 282.32 218.78 279.97 215.6 280.76C216.4 279.6 217.25 278.38 218.51 277.75C219.77 277.12 221.56 277.29 222.28 278.5C220.67 275.91 216.83 275.05 214.26 276.69C216.05 274.3 218.53 272.43 221.32 271.36C219.51 269.56 216.64 268.94 214.25 269.82C216.21 268.25 218.17 266.68 220.14 265.11C218.77 264.96 217.4 264.82 216.04 264.67C217.75 263.46 219.01 261.63 219.54 259.6C218.27 259.41 217.14 259.08 216.24 258.25C217.26 257.62 218.32 256.62 218.71 255.45C220.49 250.01 217.67 241.28 217.03 235.68C219.05 240.73 219.87 246.26 219.4 251.68C219.23 253.6 218.92 255.61 219.6 257.41C219.95 258.34 220.55 259.17 220.79 260.14C221.27 262.08 219.95 264.29 218.01 264.78C219.08 264.99 220.14 265.2 221.21 265.41C220.49 267.12 219.23 268.6 217.65 269.57C219.26 269.22 221.02 269.61 222.32 270.62C220.74 271.75 219.35 273.14 218.21 274.7C220.4 274.53 222.64 275.54 223.97 277.28C222.12 277.24 220.31 278.42 219.6 280.13C221.86 280.51 223.91 281.97 225.01 283.98C223.99 283.22 222.42 283.32 221.51 284.22C222.94 284.86 224.2 285.89 225.12 287.16C224.31 286.73 223.78 288.53 224.69 288.61C224.22 286.91 227.52 286.72 227.52 286.72C227.52 286.72 224.6 287.69 225.47 289.69C229.97 314.32 232.83 339.13 236.08 363.93L237.81 376.64C238.43 380.88 239.03 385.13 239.66 389.36C239.66 389.36 239.66 389.34 239.66 389.33H239.61Z" fill="currentColor"/>
<path d="M221.03 234.998C222.84 237.878 215.88 228.198 215.42 227.488C215.88 228.198 213.15 237.708 211.72 236.098C213.14 237.708 222.83 237.878 221.03 234.998Z" fill="currentColor"/>
<path d="M172.59 12.2019C174.05 17.2019 175.42 22.2319 176.75 27.2719C178.08 32.3119 179.4 37.3619 180.62 42.4319C181.86 47.5019 183.08 52.5719 184.24 57.6619C185.4 62.7519 186.49 67.9219 187.57 73.0719L187.55 72.9519C188.07 75.1919 188.59 77.4319 189.08 79.7019C189.32 80.8319 189.56 81.9719 189.78 83.1419C189.89 83.7319 189.98 84.3219 190.06 84.9519C190.1 85.2819 190.13 85.6019 190.14 86.0119C190.14 86.2219 190.14 86.4519 190.05 86.8819C190 87.0419 189.98 87.1419 189.88 87.3219C189.74 87.5519 189.64 87.7419 189.32 87.9119C188.99 88.1119 188.72 88.1219 188.46 88.0219C188.23 88.0119 188.12 87.9419 187.98 87.8019C187.96 87.8519 189.78 86.0619 189.78 86.0619C190.4 88.3119 190.94 90.7519 191.6 92.8519C192.09 95.2919 192.39 98.0019 193.21 99.7519C193.35 102.582 193.4 105.362 194.48 106.742C194.12 109.892 194.01 112.562 195.43 113.742C194.27 114.782 192.89 113.412 194.02 112.262C193.27 113.412 193.68 113.522 194.98 112.632C194.08 113.862 194.21 113.992 195.43 113.112C194.49 114.392 194.61 114.622 195.83 113.812C194.88 115.202 194.96 115.562 196.26 114.932C195.29 116.562 195.39 117.242 196.82 116.942C195.85 119.112 195.98 120.412 197.68 120.822C196.72 124.072 197 126.842 199.15 128.512C197.44 129.232 197.34 128.862 199.04 128.132C197.54 129.372 197.61 129.732 199.43 129.382C197.72 130.092 197.98 131.182 199.71 130.472C197.99 131.182 198.46 133.312 200.2 132.612C198.46 133.322 199.36 137.572 201.1 136.852C199.89 140.192 200.77 143.442 202.94 145.262C201.35 146.032 202.67 150.642 204.85 153.682C204.43 158.372 205.73 162.872 206.76 162.102C206.32 165.452 207.09 168.332 208.65 170.532C208.24 173.502 208.84 176.092 210.49 178.972C209.96 181.292 210.68 184.002 212.23 187.452C211.7 189.302 212.46 192.272 213.73 195.992C212.89 194.992 212.87 194.932 213.72 195.932C212.88 194.932 213.78 197.952 214.53 198.932C213.78 197.952 213.3 198.102 214.04 199.102C213.3 198.102 212.27 195.132 213.1 196.162C212.27 195.122 212.26 195.112 213.1 196.142C212.27 195.102 212.26 195.062 213.1 196.102C211.73 192.392 210.83 189.462 211.2 187.702C209.56 184.262 208.72 181.582 209.11 179.342C208.08 179.022 207.06 175.182 206.98 170.982C205.1 167.512 203.81 163.292 204.85 162.622C203.16 160.752 201.97 157.492 202.74 154.252C200.7 152.432 199.52 149.092 200.67 145.862C198.3 144.022 197.28 140.712 198.69 137.432C196.73 138.162 195.75 134.012 197.73 133.242C195.75 134.012 195.27 131.972 197.24 131.172C195.28 131.972 195.03 130.992 196.98 130.172C194.95 130.722 194.84 130.312 196.74 129.372C194.8 130.202 194.73 130.042 196.67 129.212C194.73 130.052 194.69 129.842 196.63 129.002C194.25 127.502 193.95 124.752 195.14 121.392C193.22 121.242 193.09 119.962 194.3 117.672C192.66 118.262 192.57 117.662 193.81 115.942C192.32 116.912 192.25 116.652 193.55 115.262C192.14 116.412 192.11 116.382 193.49 115.142C192.15 116.412 192.17 116.442 193.63 115.292C192.35 116.592 192.6 116.682 194.21 115.492C192.86 116.662 191.49 115.312 192.8 114.012C190.92 110.982 191.12 105.532 190.66 100.322C189.32 96.7319 188.56 91.3619 187.37 86.8519C187.36 86.8819 189.17 85.1119 189.17 85.1119C189.07 85.0419 189.01 85.0119 188.86 84.9719C188.64 84.9219 188.44 84.9319 188.17 85.0619C187.9 85.2419 187.83 85.3419 187.73 85.5219C187.66 85.6619 187.65 85.6819 187.63 85.7719C187.59 85.9319 187.62 85.8819 187.61 85.8019C187.61 85.6519 187.59 85.3919 187.57 85.1519C187.52 84.6419 187.43 84.1019 187.34 83.5519C187.16 82.4519 186.94 81.3419 186.72 80.2219C186.27 77.9919 185.79 75.7519 185.3 73.5119L185.28 73.3919C184.26 68.3119 183.35 63.2319 182.32 58.1219L179.17 42.7919L175.96 27.4719L172.63 12.1719L172.59 12.2019Z" fill="currentColor"/>
<path d="M209.24 198.372C208.56 197.162 215.27 206.372 215.73 207.132C215.27 206.382 217.61 195.662 218.42 196.442C217.61 195.662 208.57 197.162 209.25 198.372H209.24Z" fill="currentColor"/>
<path d="M405.21 168.559C400.52 169.969 395.8 171.289 391.07 172.559C386.34 173.839 381.6 175.109 376.84 176.279C372.08 177.469 367.32 178.639 362.54 179.749C357.76 180.859 352.9 181.889 348.07 182.929L348.18 182.909C346.08 183.409 343.97 183.909 341.85 184.379C340.79 184.609 339.72 184.839 338.62 185.039C338.07 185.139 337.51 185.229 336.92 185.309C336.61 185.339 336.31 185.379 335.92 185.379C335.72 185.379 335.5 185.379 335.1 185.279C334.95 185.229 334.86 185.199 334.68 185.109C334.46 184.969 334.28 184.859 334.12 184.539C333.93 184.209 333.91 183.939 334.01 183.679C334.01 183.449 334.08 183.339 334.21 183.199C334.16 183.179 335.86 185.009 335.86 185.009C333.75 185.609 331.45 186.119 329.49 186.759C327.19 187.229 324.65 187.499 323.01 188.299C320.35 188.409 317.73 188.439 316.44 189.499C313.48 189.109 310.96 188.979 309.86 190.389C308.87 189.229 310.15 187.859 311.24 188.999C310.15 188.239 310.05 188.649 310.9 189.949C309.73 189.039 309.61 189.169 310.45 190.399C309.24 189.449 309.02 189.569 309.79 190.789C308.47 189.819 308.13 189.909 308.74 191.209C307.2 190.229 306.56 190.319 306.86 191.749C304.81 190.759 303.58 190.869 303.22 192.569C300.15 191.579 297.55 191.839 296 193.959C295.3 192.249 295.65 192.149 296.35 193.849C295.17 192.339 294.83 192.409 295.17 194.229C294.48 192.509 293.46 192.769 294.15 194.499C293.47 192.769 291.46 193.229 292.14 194.969C291.46 193.219 287.47 194.089 288.16 195.829C285.01 194.589 281.95 195.439 280.26 197.589C279.52 195.999 275.2 197.269 272.36 199.409C267.94 198.939 263.72 200.199 264.46 201.229C261.3 200.759 258.6 201.499 256.55 203.029C253.75 202.589 251.31 203.169 248.62 204.789C246.43 204.239 243.88 204.929 240.66 206.439C238.91 205.889 236.13 206.629 232.64 207.859C233.58 207.029 233.63 207.009 232.69 207.849C233.63 207.019 230.79 207.889 229.88 208.629C230.79 207.889 230.65 207.409 229.71 208.139C230.65 207.409 233.43 206.409 232.46 207.219C233.43 206.399 233.44 206.399 232.48 207.219C233.45 206.399 233.48 206.389 232.52 207.219C236 205.889 238.75 205.019 240.41 205.399C243.63 203.789 246.15 202.979 248.26 203.389C248.55 202.369 252.16 201.389 256.11 201.349C259.36 199.499 263.32 198.249 263.96 199.309C265.7 197.639 268.76 196.489 271.82 197.289C273.52 195.269 276.64 194.129 279.69 195.309C281.4 192.959 284.51 191.969 287.6 193.409C286.9 191.439 290.79 190.509 291.53 192.489C290.79 190.509 292.7 190.049 293.47 192.019C292.7 190.049 293.62 189.809 294.41 191.769C293.87 189.739 294.26 189.629 295.16 191.529C294.36 189.579 294.51 189.509 295.31 191.459C294.5 189.509 294.7 189.479 295.51 191.419C296.9 189.059 299.49 188.779 302.66 189.999C302.79 188.079 303.99 187.969 306.15 189.199C305.58 187.559 306.15 187.469 307.77 188.729C306.84 187.239 307.08 187.169 308.41 188.469C307.31 187.049 307.35 187.029 308.52 188.409C307.31 187.059 307.29 187.079 308.38 188.549C307.14 187.259 307.07 187.509 308.19 189.129C307.07 187.769 308.33 186.409 309.57 187.739C312.4 185.899 317.53 186.139 322.43 185.739C325.8 184.429 330.84 183.729 335.08 182.589C335.05 182.579 336.73 184.399 336.73 184.399C336.79 184.299 336.82 184.239 336.86 184.089C336.91 183.869 336.89 183.669 336.77 183.399C336.6 183.129 336.5 183.059 336.34 182.959C336.21 182.889 336.18 182.879 336.1 182.859C335.95 182.819 336 182.849 336.07 182.839C336.21 182.839 336.45 182.829 336.68 182.799C337.16 182.749 337.67 182.669 338.18 182.589C339.21 182.419 340.26 182.209 341.3 181.999C343.4 181.569 345.5 181.109 347.6 180.649L347.71 180.629C352.48 179.659 357.25 178.799 362.05 177.819L376.44 174.819L390.83 171.759L405.2 168.579L405.21 168.559Z" fill="currentColor"/>
<path d="M230.34 203.359C231.48 202.699 222.86 209.299 222.16 209.749C222.86 209.299 232.97 211.729 232.25 212.539C232.97 211.739 231.48 202.699 230.34 203.359Z" fill="currentColor"/>
<path d="M261.099 412.78C259.639 407.76 258.259 402.71 256.929 397.64C255.599 392.58 254.279 387.51 253.049 382.41C251.799 377.32 250.579 372.22 249.419 367.11C248.259 362 247.169 356.8 246.079 351.64L246.099 351.76C245.579 349.51 245.049 347.26 244.559 344.98C244.309 343.84 244.079 342.7 243.859 341.53C243.749 340.94 243.649 340.35 243.579 339.71C243.539 339.38 243.509 339.06 243.499 338.64C243.499 338.43 243.499 338.19 243.589 337.77C243.639 337.61 243.659 337.51 243.759 337.32C243.899 337.09 243.999 336.89 244.319 336.73C244.649 336.53 244.919 336.52 245.179 336.62C245.409 336.63 245.519 336.7 245.659 336.84C245.679 336.79 243.859 338.58 243.859 338.58C243.229 336.32 242.699 333.86 242.039 331.76C241.549 329.31 241.239 326.58 240.429 324.83C240.289 321.99 240.229 319.2 239.159 317.81C239.519 314.65 239.619 311.97 238.199 310.78C239.359 309.74 240.739 311.12 239.609 312.27C240.359 311.11 239.949 311 238.649 311.9C239.539 310.66 239.419 310.53 238.199 311.42C239.129 310.14 239.019 309.9 237.799 310.71C238.749 309.31 238.659 308.95 237.369 309.59C238.339 307.95 238.239 307.27 236.809 307.57C237.779 305.39 237.649 304.08 235.949 303.67C236.909 300.41 236.619 297.63 234.469 295.95C236.169 295.23 236.279 295.6 234.579 296.33C236.079 295.09 235.999 294.73 234.179 295.07C235.889 294.35 235.629 293.27 233.899 293.98C235.619 293.27 235.149 291.13 233.409 291.84C235.149 291.13 234.239 286.86 232.499 287.58C233.709 284.23 232.819 280.96 230.649 279.13C232.239 278.36 230.909 273.73 228.739 270.68C229.159 265.97 227.849 261.45 226.829 262.23C227.269 258.87 226.489 255.97 224.939 253.77C225.349 250.78 224.739 248.18 223.089 245.29C223.619 242.96 222.899 240.23 221.339 236.77C221.869 234.91 221.099 231.93 219.829 228.19C220.669 229.2 220.689 229.26 219.839 228.25C220.679 229.26 219.779 226.22 219.029 225.24C219.779 226.22 220.259 226.08 219.519 225.07C220.259 226.08 221.299 229.06 220.469 228.02C221.299 229.06 221.309 229.08 220.469 228.04C221.299 229.08 221.309 229.12 220.469 228.08C221.839 231.81 222.749 234.75 222.379 236.52C224.019 239.98 224.859 242.67 224.479 244.92C225.509 245.25 226.529 249.1 226.609 253.32C228.489 256.8 229.789 261.04 228.739 261.72C230.429 263.6 231.619 266.88 230.849 270.13C232.889 271.96 234.069 275.31 232.919 278.55C235.299 280.4 236.319 283.73 234.909 287.02C236.869 286.29 237.849 290.46 235.869 291.23C237.849 290.46 238.329 292.5 236.369 293.31C238.329 292.51 238.579 293.5 236.629 294.31C238.659 293.76 238.769 294.17 236.879 295.11C238.819 294.28 238.889 294.44 236.949 295.27C238.889 294.43 238.929 294.64 236.989 295.48C239.369 296.98 239.679 299.75 238.489 303.12C240.409 303.28 240.539 304.56 239.329 306.85C240.969 306.26 241.059 306.86 239.819 308.59C241.309 307.62 241.379 307.87 240.079 309.28C241.489 308.13 241.509 308.16 240.139 309.4C241.479 308.12 241.459 308.1 239.999 309.25C241.279 307.94 241.029 307.86 239.419 309.04C240.769 307.86 242.139 309.22 240.829 310.53C242.709 313.57 242.519 319.04 242.979 324.28C244.329 327.89 245.089 333.28 246.279 337.81C246.289 337.78 244.479 339.55 244.479 339.55C244.579 339.62 244.639 339.65 244.799 339.69C245.019 339.74 245.219 339.73 245.489 339.6C245.759 339.42 245.829 339.32 245.929 339.14C245.999 339 246.009 338.98 246.029 338.89C246.069 338.73 246.039 338.78 246.049 338.86C246.049 339.01 246.069 339.27 246.089 339.51C246.139 340.02 246.229 340.56 246.319 341.11C246.499 342.21 246.719 343.33 246.939 344.45C247.389 346.69 247.879 348.94 248.359 351.19L248.379 351.31C249.399 356.41 250.309 361.51 251.349 366.65L254.509 382.04L257.729 397.42L261.069 412.79L261.099 412.78Z" fill="currentColor"/>
<path d="M224.31 225.8C224.99 227.02 218.27 217.76 217.82 217C218.28 217.76 215.95 228.52 215.14 227.73C215.95 228.51 224.99 227.01 224.31 225.79V225.8Z" fill="currentColor"/>
<path d="M34.5403 276.87C39.0703 274.97 43.6403 273.15 48.2203 271.38C52.8003 269.6 57.4003 267.84 62.0203 266.16C66.6403 264.46 71.2703 262.8 75.9203 261.18C80.5703 259.57 85.3003 258.02 90.0103 256.47L89.9003 256.5C91.9403 255.78 93.9903 255.06 96.0603 254.37C97.1003 254.02 98.1403 253.68 99.2103 253.37C99.7503 253.21 100.29 253.06 100.88 252.92C101.18 252.85 101.48 252.79 101.87 252.75C102.07 252.73 102.29 252.7 102.7 252.75C102.85 252.78 102.95 252.8 103.14 252.88C103.37 253 103.57 253.08 103.76 253.39C103.98 253.7 104.03 253.96 103.96 254.23C103.98 254.46 103.93 254.58 103.81 254.73C103.86 254.74 101.97 253.1 101.97 253.1C104.01 252.28 106.25 251.53 108.14 250.68C110.38 249.97 112.89 249.43 114.44 248.46C117.08 248.06 119.69 247.76 120.86 246.57C123.86 246.65 126.38 246.5 127.33 244.99C128.44 246.04 127.31 247.54 126.1 246.52C127.27 247.16 127.33 246.74 126.33 245.53C127.59 246.31 127.7 246.17 126.73 245.04C128.04 245.85 128.24 245.72 127.34 244.58C128.76 245.4 129.09 245.28 128.34 244.05C129.98 244.86 130.61 244.7 130.16 243.31C132.31 244.07 133.52 243.83 133.71 242.1C136.87 242.76 139.44 242.22 140.76 239.94C141.63 241.57 141.3 241.71 140.42 240.08C141.76 241.46 142.08 241.35 141.55 239.57C142.42 241.2 143.41 240.84 142.54 239.2C143.4 240.85 145.35 240.18 144.49 238.52C145.35 240.18 149.24 238.9 148.37 237.24C151.65 238.14 154.6 236.97 156.06 234.65C156.96 236.15 161.14 234.42 163.75 231.99C168.21 231.99 172.28 230.28 171.44 229.33C174.64 229.46 177.26 228.43 179.14 226.69C181.98 226.83 184.35 225.99 186.86 224.09C189.1 224.41 191.57 223.45 194.63 221.59C196.43 221.95 199.13 220.92 202.48 219.32C201.63 220.25 201.58 220.27 202.43 219.34C201.58 220.27 204.32 219.1 205.15 218.27C204.32 219.1 204.51 219.57 205.37 218.74C204.51 219.57 201.84 220.86 202.72 219.94C201.84 220.86 201.83 220.86 202.7 219.94C201.82 220.86 201.79 220.87 202.66 219.95C199.33 221.65 196.68 222.81 194.99 222.6C191.95 224.54 189.52 225.62 187.38 225.44C187.19 226.49 183.7 227.85 179.77 228.31C176.73 230.49 172.91 232.16 172.16 231.18C170.6 233.02 167.67 234.5 164.54 234.03C163.06 236.22 160.06 237.69 156.9 236.84C155.45 239.36 152.45 240.67 149.21 239.57C150.12 241.45 146.33 242.79 145.38 240.9C146.33 242.79 144.47 243.45 143.5 241.58C144.48 243.45 143.58 243.79 142.59 241.93C143.34 243.89 142.97 244.04 141.87 242.25C142.88 244.1 142.73 244.19 141.72 242.34C142.73 244.19 142.54 244.25 141.52 242.4C140.39 244.9 137.83 245.45 134.54 244.57C134.62 246.49 133.43 246.73 131.15 245.74C131.89 247.31 131.34 247.46 129.58 246.39C130.66 247.78 130.43 247.87 128.97 246.71C130.21 248 130.18 248.03 128.86 246.78C130.21 248 130.23 247.97 128.98 246.62C130.35 247.77 130.4 247.51 129.11 246.03C130.37 247.26 129.26 248.75 127.88 247.56C125.25 249.7 120.11 250 115.27 250.93C112.05 252.59 107.1 253.83 102.99 255.41C103.02 255.41 101.15 253.78 101.15 253.78C101.1 253.89 101.07 253.95 101.05 254.11C101.02 254.34 101.05 254.53 101.21 254.78C101.41 255.03 101.51 255.09 101.69 255.17C101.82 255.22 101.85 255.23 101.94 255.24C102.09 255.26 102.04 255.24 101.97 255.25C101.83 255.26 101.59 255.3 101.36 255.35C100.89 255.45 100.39 255.58 99.8903 255.72C98.8803 256 97.8603 256.32 96.8403 256.64C94.7903 257.29 92.7403 257.97 90.7003 258.66L90.5903 258.69C85.9303 260.16 81.2703 261.53 76.5803 263.02L62.5403 267.54L48.5203 272.12L34.5303 276.81L34.5403 276.87Z" fill="currentColor"/>
<path d="M205.241 223.58C204.181 224.36 212.071 216.87 212.721 216.35C212.071 216.87 201.731 215.53 202.371 214.66C201.731 215.54 204.181 224.37 205.241 223.58Z" fill="currentColor"/>
<path d="M295.92 103.6C293.07 107.67 288.85 114.25 288.37 114.77C286.65 117.7 278.68 130.72 281.17 126.12C276.75 133.74 274.13 138.28 273.8 137.42C270.57 143.51 268.74 146.29 265.97 148.48C266.99 148.73 266.97 148.75 265.94 148.52C266.97 148.75 266.94 148.79 265.89 148.57C266.09 149.7 265.1 150.62 261.56 152.34C262.87 152.08 261.29 152.79 255.99 154.6C259.89 153.03 260.65 152.33 256.97 153.65C260.34 154.29 259.5 156.69 255.06 162.08C258.19 160.78 256.2 164.07 251.14 170.14C253.39 168.09 249.72 171.92 244.66 176.79C245.36 175.24 240.41 178.74 236.68 181.67C237.82 180.06 238.36 178.85 236.99 180.61C239.17 180.03 239.56 181.81 238.92 184.79C240.24 184.66 239.61 187.01 238.9 189.43C238.55 191.48 235.82 195 234.29 197.66C233.89 197.44 233.91 197.4 234.32 197.62C233.92 197.4 233.16 198.77 233.59 198.97C233.16 198.77 232.73 198.61 233.18 198.82C232.72 198.61 233.38 197.22 233.82 197.44C233.38 197.22 233.39 197.2 233.82 197.42C233.38 197.2 233.4 197.17 233.84 197.39C235.16 194.65 237.53 191.2 237.76 189.3C238.25 187.08 238.68 185.07 237.57 185.15C237.95 182.54 237.44 181.04 235.65 181.47C236.65 179.98 236.2 179.36 235.18 180.84C236.2 179.36 237.19 178.79 235.96 180.42C239.66 177.45 244.51 174.01 243.49 175.51C248.53 170.79 252.07 167.28 249.4 169.21C254.6 163.48 256.53 160.47 252.94 161.64C257.77 156.55 258.64 154.21 254.72 153.51C258.92 152.27 259.02 151.71 254.83 152.72C259.02 151.7 259.69 151.58 255.69 152.56C260.83 151.36 262.15 150.85 260.33 150.68C264.09 149.59 265.01 148.78 264.22 147.32C265.79 147.93 265.74 147.99 264.14 147.41C267.5 145.55 269.33 142.77 272.1 136.5C272.97 137.61 275.55 133.08 279.77 125.41C279.6 127.15 283.45 120.6 287.53 114.33C288.34 113.94 292.68 107.45 295.89 103.59L295.92 103.6Z" fill="currentColor"/>
<path d="M230.36 196.438C229.66 196.158 230.3 203.428 230.72 203.648C230.3 203.418 237.23 199.178 237.42 199.328C237.23 199.168 229.67 196.148 230.36 196.428V196.438Z" fill="currentColor"/>
<path d="M88.9604 306.521C89.4904 304.161 93.6004 302.231 97.7204 300.091C99.1704 298.081 103.33 295.751 106.36 293.501C106.18 293.541 110.67 290.191 114.98 286.881L123.6 280.261C125.04 279.161 126.49 278.071 127.94 276.981C129.39 275.891 130.85 274.811 132.31 273.741C133.91 272.581 143.09 266.821 138.48 269.531C145.91 264.901 149.88 262.431 141.13 267.361C150.44 262.031 154.9 259.441 146.78 264.061C155.48 259.061 155.18 259.181 145.59 264.211C155.17 259.181 156.65 258.381 150.49 261.711C156.8 258.291 156.31 258.521 147.82 262.641C156.85 258.271 157.22 258.081 150.26 261.231C157.38 257.991 157.59 257.881 155.41 258.971C157.7 257.851 157.76 257.841 161.13 258.011C157.83 257.841 157.79 257.851 160.17 258.471C157.82 257.811 157.98 257.711 163.88 253.881C158.28 257.441 158.2 257.481 162.98 254.081C160.67 255.701 159.82 256.261 160.57 255.561C161.32 254.861 164.6 253.021 167.82 249.481C164.69 252.931 161.7 254.521 161.56 254.631C161.42 254.741 163.22 253.231 166.96 250.101C163.42 253.041 162.6 253.681 163.71 252.681C164.83 251.681 170.49 249.641 172.09 245.351C170.75 249.411 166.69 250.461 166.41 250.321C166.89 250.321 171.33 249.211 172.43 245.201C171.85 248.771 170.84 248.571 170.39 246.971C173.39 246.421 178.62 245.361 176.74 241.611C177.7 246.351 185.33 242.901 181.74 238.381C188.15 241.291 191.04 241.891 187.05 235.711C193.79 240.691 196.12 241.371 192.57 233.571C198.76 240.471 200.5 240.901 198.22 231.851C201.79 240.561 201.54 241.431 197.63 232.621C201.59 240.051 200.4 234.441 199.14 226.651C201.86 231.491 202.06 226.721 202.63 221.701C204.54 224.081 205.66 220.431 207.09 217.741C208.69 218.091 210.29 215.461 211.94 214.361C211.91 214.391 211.89 214.421 211.91 214.381C211.88 214.411 214.72 211.821 214.76 212.051C214.71 211.821 214.97 212.151 215.02 212.361C214.98 212.151 212.26 214.981 212.3 214.821C212.27 214.981 212.26 214.991 212.3 214.821C212.27 214.981 212.25 215.001 212.28 214.831C210.68 216.141 209.14 219.161 207.65 218.421C206.32 221.561 205.31 225.561 203.51 222.471C203.1 228.121 202.97 232.881 200.41 227.221C201.78 235.551 202.79 240.701 199.25 232.621C202.8 241.891 202.96 242.671 199.25 233.211C202.95 242.661 202.56 242.731 198.66 233.391C201.39 243.091 199.83 242.791 193.17 235.221C197.45 243.671 195.34 243.111 187.85 237.451C192.88 244.261 190.18 243.711 182.77 240.131C187.64 245.221 180.03 248.161 178 243.321C180.93 247.551 173.02 248.441 169.4 249.571C169 251.441 169.49 251.991 170.86 248.941C168.84 252.541 163.57 253.941 163.24 254.311C162.91 254.681 166.95 253.851 169.48 251.021C166.77 254.051 161.92 255.441 160.89 256.211C159.86 256.981 160.59 256.921 162.85 256.341C158.07 257.771 158.03 257.871 162.03 259.871C157.87 257.881 157.85 257.891 161.67 260.331C157.85 257.891 157.82 257.881 161.07 260.331C157.76 257.891 157.7 257.891 156.13 261.181C157.59 257.931 157.41 258.101 151.33 263.261C157.26 258.171 156.95 258.421 149.06 264.551C156.47 258.751 156.89 258.421 151.34 262.941C156.75 258.511 155.43 259.531 146.84 266.091C155.43 259.531 155.69 259.321 147.77 265.431C155.14 259.711 151.04 262.771 142.4 269.181C150.48 263.151 146.77 265.871 139.64 271.091C144 267.821 135.15 274.241 133.52 275.401C132.05 276.451 130.58 277.501 129.11 278.561C127.64 279.621 126.17 280.671 124.7 281.731C121.77 283.851 118.83 285.981 115.9 288.101C112.97 290.221 109.86 292.361 107.05 294.411C103.94 296.491 99.6904 298.671 98.0804 300.561C93.9004 302.551 89.6204 304.311 88.9404 306.461L88.9604 306.521Z" fill="currentColor"/>
<path d="M216.631 216.23C216.761 216.9 219.411 208.12 219.541 208.47C219.421 208.13 211.321 209.43 211.361 209.83C211.311 209.43 216.761 216.9 216.631 216.23Z" fill="currentColor"/>
<path d="M311.34 133.09C309.39 135.24 307.27 137.22 305.13 139.19C303.12 141.25 300.96 143.23 298.88 145.25C298.78 145.3 294 149.08 292.58 151.26C288.01 154.8 282.87 158.37 286.28 157.27C282.87 158.37 278.17 161.46 279.93 163.22C273.18 166.14 269.86 168.32 273.58 169.17C269.09 169.03 268.16 169.72 270.42 172.2C266.65 171.17 265.93 171.92 267.18 175.22C264.66 172.92 264.22 173.25 265.25 176.52C263.21 173.78 262.62 174.01 262.68 177.16C261.72 173.95 261.53 173.84 261.92 176.98C261.19 173.72 261.02 173.58 261.25 176.6C260.6 173.26 260.39 172.92 260.33 175.54C259.91 172.14 259.77 171.48 259.46 173.27C259.63 170.97 260.71 171.09 261.05 173.44C259.85 172.87 258.87 175.42 256.91 181.12C256.6 179.09 254.78 182.57 251.48 188.06C251.28 185.95 248.12 189.44 244.29 193.13C243.47 191.94 239.57 194.83 236.37 196.73C236.98 195.88 236.94 194.91 236.24 195.86C237.87 195.06 239.1 195 239.15 196.69C240.24 195.65 240.46 195.85 239.8 197.27C240.81 196.34 240.81 196.83 240.04 198.19C240.7 197.72 240.17 198.49 239.33 199.64C239.24 199.63 238.17 200.69 237.17 201.63C236.67 201.87 235.69 202.63 234.83 203.33C234.91 203.17 234.71 202.91 234.64 203.07C235.47 202.33 236.42 201.53 236.87 201.27C237.83 200.29 238.86 199.21 238.84 199.26C239.65 198.14 240.03 197.49 239.35 198.14C240.08 196.83 239.88 196.52 238.77 197.36C238.8 195.96 237.61 196.04 236.14 196.76C236.72 195.94 234.91 195.89 234.5 196.57C234.91 195.89 236.68 194.97 236.01 195.89C239.2 193.83 243.14 190.83 243.69 192.05C247.57 188.28 250.65 184.89 250.46 187.01C253.86 181.64 255.68 178.36 255.54 180.28C257.8 174.78 258.82 172.3 259.52 172.7C259.67 170.55 260.31 169.14 260.49 170.7C260.32 169.14 260.75 170.67 261.11 172.86C260.87 171.1 261.02 171.65 261.79 174.64C261.45 172.33 261.69 172.6 262.86 175.44C262.28 172.64 262.69 172.51 264.43 174.98C263.47 172.09 263.86 171.79 266.1 173.84C265 170.9 265.73 170.15 269.24 170.93C267.18 168.76 268.08 168.08 272.38 167.95C268.85 167.39 272.12 165.2 278.82 162.08C277.13 160.64 281.81 157.5 285.26 156.21C281.82 157.5 287.03 153.92 291.75 150.39C293.19 148.4 298.11 144.64 298.24 144.57C300.29 142.72 302.63 140.75 304.78 138.81C306.99 136.92 309.26 135.09 311.36 133.09H311.34Z" fill="currentColor"/>
<path d="M233.21 200.479C233.24 200.229 231.71 206.409 231.75 206.389C231.71 206.419 237.72 204.559 237.6 204.699C237.73 204.559 233.24 200.229 233.21 200.479Z" fill="currentColor"/>
<path d="M344.42 203.869C344.25 204.949 341.97 204.959 336.37 204.429C338.13 205.199 334.79 205.169 328.32 204.949C330.54 205.449 326.04 205.439 320.27 205.439C321.31 205.739 316.24 205.809 312.22 205.959C311.08 206.179 306.55 206.109 304.18 206.529C301.22 206.489 297.74 205.829 296.15 207.139C292.62 206.249 289.43 205.509 288.13 207.869C284.49 205.999 281.81 205.679 280.13 208.739C279.41 205.959 279.61 205.909 280.35 208.679C278.89 206.189 278.44 206.929 278.83 210.049C278.11 208.009 278.4 209.479 279.12 212.289C278.69 210.229 279.44 212.439 279.8 214.049C279.44 212.429 277.71 211.559 278.03 213.419C275.57 210.799 273.4 209.319 271.16 211.279C269.15 208.309 266.94 208.229 264.24 210.799C262.75 208.859 260.33 211.229 258.07 213.729C256.78 214.049 254.38 217.099 253 218.759C252.81 218.869 250.9 221.059 251.48 220.479C250.9 221.059 251.55 218.419 251.78 218.229C251.74 216.999 252.46 214.779 252.09 213.899C252.38 212.719 252.47 211.749 251.7 211.999C251.96 210.769 251.53 210.609 250.38 211.319C250.29 210.659 249.38 211.199 248.41 211.829C248.08 211.709 247.15 212.429 246.43 212.749C245.22 213.439 243.38 215.119 242.58 214.949C242.15 215.859 239.52 217.909 240.23 216.369C239.52 217.909 241.63 215.149 242.01 214.299C242.19 214.499 243.11 213.199 243.64 212.259C243.84 212.169 244.24 211.549 244.3 211.179C244.5 211.009 244.63 210.729 244.47 210.659C244.66 210.409 244.67 210.339 244.38 210.389C244.36 210.139 243.81 210.269 243.27 210.329C242.99 210.379 242.46 210.639 242 210.589C241.21 210.949 240.15 211.609 239.47 211.349C239.32 211.879 239.23 211.469 239.34 210.989C240.04 211.159 241.1 210.449 241.86 210.109C242.37 210.069 242.92 209.779 243.18 209.779C243.82 209.649 244.39 209.369 244.68 209.849C245.28 209.769 245.39 210.289 245.12 210.709C245.32 210.839 245.14 211.219 244.93 211.459C244.87 211.879 244.45 212.559 244.27 212.679C243.73 213.679 242.8 215.049 242.68 214.859C242.26 215.729 241.75 215.019 242.11 214.209C242.97 214.239 244.79 212.539 245.95 211.869C246.74 211.439 247.72 210.679 247.99 210.849C249.11 210.089 250.1 209.449 250.31 210.199C251.36 209.349 251.92 209.259 251.68 210.419C252.81 209.679 253.13 210.109 252.73 211.429C253.78 211.289 253.66 212.429 253.34 213.839C253.83 214.729 253.17 216.979 253.15 218.419C253.02 218.459 251.77 218.009 251.93 217.889C253.29 216.139 255.83 212.869 257.12 212.559C259.58 209.839 262.37 207.079 263.97 209.259C267.06 206.319 269.44 206.359 271.52 209.689C273.82 207.349 276.03 208.869 278.6 211.819C278.17 209.619 277.2 210.959 277.51 212.949C277.02 210.499 276.8 209.519 277.06 211.369C276.63 208.469 276.55 207.339 277.16 209.549C276.91 206.199 277.2 205.259 278.22 207.969C278.03 204.549 278.46 204.149 279.71 207.099C278.91 203.969 279 203.919 279.82 207.059C279.01 203.929 279.11 203.919 279.93 207.049C281.48 203.659 284.15 204.069 287.97 206.249C289.03 203.629 292.27 204.459 296.02 205.589C297.37 204.089 300.99 204.869 304.08 205.049C306.3 204.559 310.96 204.829 312.15 204.659C316.14 204.629 321.22 204.709 320.22 204.359C325.97 204.549 330.48 204.709 328.29 204.119C334.75 204.609 338.1 204.779 336.36 203.969C341.96 204.709 344.25 204.819 344.43 203.859L344.42 203.869Z" fill="currentColor"/>
<path d="M241.14 208.07C241.35 207.96 235.16 210.32 235.29 209.76C235.16 210.32 239.25 215.05 239.67 213.98C239.25 215.05 241.34 207.97 241.13 208.07H241.14Z" fill="currentColor"/>
<path d="M123.86 78.5391C128.02 84.2891 132.1 90.0891 136.22 95.8691L142.35 104.559C145.42 108.909 148.51 113.299 148.48 113.249C148.51 113.289 152.35 118.779 154.63 121.929C158.27 127.139 162 132.509 160.78 130.609C163.86 135.109 166.21 138.489 167 139.239C169.72 143.309 171.59 145.949 173.27 147.829C173.28 148.259 173.23 148.199 173.21 147.759C173.66 148.649 174.19 149.179 174.87 149.149C174.85 149.509 174.99 149.519 175.35 149.239C175.09 149.469 175.22 149.259 175.7 148.659C175.3 149.009 175.76 147.479 176.3 146.839C175.76 147.479 176.45 148.979 177.08 148.589C177.41 151.149 178.84 153.889 180.83 156.559C181 158.109 182.98 161.199 185.31 164.049C185.81 165.089 188.52 168.179 191.24 170.349C192.34 171.339 195.51 173.939 198.44 175.299C197.74 175.259 199 176.079 199.69 176.039C198.99 176.079 197.66 176.249 198.28 176.329C197.04 176.379 196.34 176.439 196.3 176.929C195.29 176.929 194.98 177.309 195.34 178.109C195.02 178.229 195.5 179.029 196.09 179.859C196.2 180.049 196.78 180.759 197.43 181.539C198.95 183.169 201.22 185.289 203.77 187.649C203.2 187.099 205.52 189.229 206.25 189.919C205.52 189.229 202.81 187.629 203.35 188.239C201.95 187.129 201.05 186.579 200.44 186.709C199.94 186.129 199.68 186.049 199.79 186.549C199.57 186.069 199.56 186.069 199.79 186.549C199.58 186.069 199.59 186.039 199.83 186.509C199.61 186.029 199.6 186.009 199.83 186.499C199.6 186.029 199.6 186.049 199.83 186.539C199.61 186.129 199.65 186.239 199.94 186.849C199.91 186.759 200.22 187.179 200.83 188.199C201.74 189.169 203.19 190.839 205.15 193.289C204.55 192.379 205.25 193.179 205.88 194.119C205.25 193.179 204.39 192.569 204.97 193.499C204.1 192.379 203.78 192.139 204 192.939C203.39 191.999 203.35 192.009 203.88 192.929C203.35 192.039 203.36 192.139 203.91 193.139C203.44 192.369 203.53 192.549 204.13 193.659C203.61 192.709 203.46 192.789 203.97 193.739C203.37 192.629 203.28 192.449 203.72 193.199C203.19 192.179 203.14 192.079 203.69 192.849C203.2 191.859 203.3 191.799 203.89 192.699C203.43 191.789 203.49 191.799 204.07 192.719C203.91 191.939 204.22 192.169 205.13 193.269C204.53 192.359 204.37 192.549 204.95 193.479C202.95 191.059 201.45 189.449 200.43 188.519C199.83 187.469 199.51 187.059 199.44 187.109C199.18 186.449 199.12 186.319 199.26 186.639C199.06 186.049 199.05 185.939 199.3 186.259C199.14 185.729 199.21 185.659 199.47 186.059C199.32 185.579 199.38 185.559 199.67 185.979C199.84 185.499 200.07 185.619 200.65 186.139C201.33 186.059 202.24 186.579 203.71 187.609C203.14 187.059 202.76 187.599 203.29 188.199C201.73 186.729 200.68 185.789 199.95 185.269C198.7 183.979 197.52 182.789 196.74 182.159C196.14 181.319 195.52 180.569 195.28 180.409C194.74 179.449 194.11 178.549 194.32 178.139C194.02 177.289 194.09 176.709 194.78 176.769C194.64 176.069 194.98 175.879 195.83 175.979C195.95 175.389 196.71 175.329 198.06 175.249C197.37 175.179 197.29 176.169 197.9 176.279C195.01 174.889 191.78 172.279 190.43 171.369C187.79 169.059 184.97 165.819 184.22 164.869C182.01 161.819 179.99 158.649 179.57 157.229C177.78 154.389 176.33 151.649 175.73 149.219C175.34 149.479 176.48 149.459 177.11 149.149C176.35 149.819 176.2 150.289 176.1 150.549C175.43 150.779 175.09 150.799 175.07 150.769C174.57 150.749 174.33 150.629 174.24 150.519C173.76 150.359 173.43 150.069 173.06 149.719C172.87 149.609 172.6 149.309 172.12 148.819C172.36 149.069 172.33 149.039 172.09 148.789C172.33 149.039 172.3 148.999 172.06 148.749C170.6 146.699 168.7 144.089 165.8 140.139C165.22 139.239 162.82 135.889 159.64 131.459C159.14 130.669 156.21 126.549 153.53 122.739C152.3 120.939 149.51 116.949 147.49 113.979C147.52 114.019 144.51 109.569 141.54 105.159L135.59 96.3391C131.68 90.4191 127.74 84.5191 123.87 78.5691L123.86 78.5391Z" fill="currentColor"/>
<path d="M201.41 194.331C201.09 193.311 205.51 195.931 206.09 196.961C205.51 195.921 205.34 190.791 206.03 191.591C205.34 190.781 201.1 193.311 201.41 194.331Z" fill="currentColor"/>
<path d="M284.58 62.7695C281.69 69.2495 278.711 75.6895 275.781 82.1495L271.33 91.8195C269.11 96.6495 266.861 101.53 266.881 101.49C266.861 101.54 264.041 107.61 262.451 111.16C259.771 116.92 256.99 122.84 258.02 120.83C255.67 125.75 253.921 129.48 253.671 130.54C251.511 134.93 250.171 137.87 249.381 140.27C249.021 140.5 249.041 140.42 249.411 140.18C248.871 141.02 248.67 141.74 249.04 142.32C248.72 142.49 248.781 142.61 249.201 142.78C248.871 142.67 249.121 142.68 249.881 142.79C249.381 142.62 250.931 142.25 251.751 142.39C250.931 142.25 249.97 143.59 250.62 143.94C248.57 145.51 246.921 148.12 245.601 151.18C244.341 152.1 242.661 155.37 241.361 158.81C240.711 159.76 239.391 163.66 238.881 167.1C238.571 168.55 237.911 172.6 238.211 175.81C237.891 175.18 237.821 176.68 238.201 177.27C237.821 176.69 237.001 175.62 237.241 176.19C236.581 175.14 236.18 174.57 235.73 174.77C235.22 173.9 234.74 173.82 234.23 174.53C233.96 174.32 233.52 175.12 233.09 176.05C232.98 176.23 232.651 177.1 232.311 178.05C231.661 180.18 230.961 183.21 230.191 186.6C230.381 185.83 229.701 188.91 229.471 189.89C229.701 188.91 229.731 185.77 229.471 186.53C229.731 184.76 229.751 183.71 229.331 183.24C229.581 182.52 229.511 182.25 229.141 182.6C229.451 182.16 229.441 182.16 229.141 182.6C229.451 182.17 229.481 182.17 229.191 182.61C229.491 182.18 229.511 182.17 229.201 182.61C229.491 182.18 229.481 182.19 229.161 182.63C229.401 182.24 229.331 182.33 228.951 182.88C229.021 182.81 228.8 183.29 228.23 184.33C227.84 185.6 227.131 187.69 226.001 190.62C226.491 189.64 226.15 190.65 225.65 191.67C226.15 190.65 226.24 189.6 225.73 190.57C226.26 189.25 226.31 188.85 225.73 189.45C226.24 188.45 226.21 188.42 225.68 189.34C226.18 188.44 226.1 188.5 225.51 189.47C225.94 188.68 225.831 188.84 225.171 189.92C225.731 188.99 225.591 188.9 225.021 189.83C225.681 188.75 225.791 188.58 225.361 189.34C225.981 188.37 226.04 188.28 225.65 189.13C226.26 188.21 226.361 188.27 225.881 189.23C226.431 188.38 226.461 188.44 225.961 189.4C226.561 188.87 226.51 189.26 226.01 190.59C226.5 189.61 226.251 189.57 225.741 190.54C226.831 187.59 227.481 185.49 227.771 184.14C228.381 183.1 228.581 182.61 228.491 182.57C228.931 182.02 229.011 181.89 228.811 182.18C229.221 181.72 229.311 181.64 229.161 182.02C229.541 181.62 229.631 181.64 229.411 182.07C229.751 181.7 229.801 181.74 229.581 182.2C230.081 182.1 230.09 182.37 229.93 183.12C230.34 183.67 230.351 184.72 230.191 186.51C230.381 185.74 229.721 185.68 229.471 186.44C229.961 184.36 230.251 182.98 230.331 182.09C230.821 180.37 231.261 178.74 231.411 177.76C231.841 176.82 232.171 175.91 232.191 175.62C232.751 174.67 233.221 173.67 233.671 173.65C234.251 172.97 234.79 172.74 235.09 173.36C235.62 172.89 235.961 173.08 236.301 173.87C236.871 173.68 237.311 174.3 238.051 175.43C237.761 174.8 236.871 175.23 237.081 175.81C236.841 172.61 237.471 168.51 237.581 166.89C238.261 163.44 239.651 159.38 240.101 158.26C241.631 154.82 243.361 151.48 244.391 150.41C245.951 147.43 247.59 144.81 249.4 143.07C248.98 142.86 249.57 143.84 250.15 144.23C249.19 143.9 248.711 144.02 248.441 144.06C247.911 143.59 247.72 143.31 247.73 143.28C247.5 142.84 247.481 142.57 247.521 142.44C247.421 141.95 247.5 141.52 247.62 141.02C247.62 140.8 247.74 140.41 247.93 139.75C247.84 140.08 247.841 140.05 247.941 139.71C247.841 140.05 247.861 140 247.961 139.66C249.001 137.37 250.311 134.41 252.281 129.93C252.771 128.98 254.461 125.22 256.701 120.25C257.141 119.42 259.23 114.82 261.18 110.59C262.12 108.62 264.18 104.21 265.74 100.97C265.72 101.02 268.061 96.1795 270.391 91.3995L275.041 81.8295C278.201 75.4795 281.331 69.1095 284.541 62.7795L284.58 62.7695Z" fill="currentColor"/>
<path d="M223.24 187.911C223.96 187.131 223.91 192.261 223.31 193.281C223.92 192.261 228.28 189.541 227.92 190.541C228.27 189.541 223.96 187.131 223.24 187.911Z" fill="currentColor"/>
<path d="M233.81 218.832C234.77 221.742 235.05 221.782 234.68 218.772C235.53 221.592 235.72 221.282 235.37 218.242C236.24 220.642 236.37 219.562 236.18 216.562C236.55 219.002 236.66 218.432 236.32 216.102C236.66 218.432 237.01 218.882 236.68 216.452C238.64 220.462 240.45 223.462 242.54 220.662C242.37 224.262 242.4 224.272 242.58 220.682C242.4 224.282 242.45 224.322 242.63 220.712C244.09 225.422 245.96 226.292 248.98 222.752C248.267 225.198 248.27 225.198 248.99 222.752C247.92 226.422 247.95 226.422 249.03 222.752C250.35 226.782 253.4 225.482 257.53 222.672C255.98 225.212 256.67 225.022 258.2 222.602C256.67 225.022 256.72 225.772 258.36 223.272C256.96 226.802 257.23 228.122 260.09 226.292C258.73 229.652 259.76 230.162 263.07 228.462C260.73 230.712 260.64 230.682 262.98 228.422C262.68 231.472 265.8 231.462 269.82 231.052C270.05 233.102 273.52 233.252 276.65 233.712C277.94 235.002 281.17 235.472 283.51 236.342C285.78 237.262 288.05 238.162 290.33 239.052L304.03 244.332L310.88 246.992C313.16 247.882 315.44 248.772 317.71 249.702C315.37 248.992 313.03 248.242 310.7 247.502C308.37 246.752 306.03 246.032 303.71 245.252C299.06 243.722 294.42 242.132 289.81 240.462L282.93 237.892C279.34 236.652 274.85 235.812 276.05 235.322C272.63 234.972 269.03 234.852 269.19 232.662C264.83 233.202 261.68 233.212 262.34 229.972C259.68 232.432 259.64 232.422 262.3 229.952C259.65 232.412 259.6 232.392 262.25 229.922C258.55 231.802 257.44 231.212 258.92 227.402C255.74 229.412 255.44 227.682 256.86 223.602C255.17 226.402 255.9 226.952 257.69 224.202C253.3 227.182 250.16 228.412 248.81 224.032C247.64 227.932 247.69 227.942 248.86 224.032C246.66 227.822 245.63 227.632 245.28 223.252C243.66 226.932 242.77 225.952 242.04 221.532C241.92 225.332 242 225.392 242.13 221.582C239.95 224.442 238.16 221.072 236.24 216.852C236.62 219.372 237.08 219.262 236.74 216.742C236.85 219.842 236.67 220.992 235.72 218.542C236.02 221.712 235.76 222.062 234.81 219.152C235.12 222.282 234.75 222.182 233.73 219.172C234.45 222.112 234.49 221.692 233.81 218.832Z" fill="currentColor"/>
<path d="M233.13 221.691C234.12 225.141 230.96 218.211 230.33 216.281C230.96 218.211 236.76 219.021 236.41 216.561C236.76 219.021 234.12 225.131 233.13 221.691Z" fill="currentColor"/>
<path d="M197.77 209.758C195.55 212.308 195.14 212.198 196.56 209.198C194.52 211.708 194.35 211.278 195.75 208.238C193.81 210.298 193.95 209.068 195.11 205.988C193.87 208.378 193.88 207.698 195.04 205.418C193.87 207.698 193.24 207.988 194.43 205.578C190.47 208.728 187.03 210.898 184.91 206.728C184.08 210.648 184.03 210.648 184.85 206.728C184.03 210.658 183.96 210.678 184.77 206.728C181.31 210.918 178.42 210.768 175.21 205.298C175.63 209.808 175.61 209.798 175.19 205.298C175.61 209.808 175.56 209.788 175.13 205.278C172.08 208.818 168.16 205.698 163.18 200.368C164.6 203.948 163.69 203.358 162.25 199.908C163.69 203.348 163.39 204.118 161.83 200.528C162.75 205.078 161.98 206.328 158.49 202.758C159.41 207.098 157.81 207.068 153.64 203.378C156.26 207.098 156.4 207.118 153.78 203.378C153.29 206.788 148.91 205.008 143.35 202.298C142.42 204.348 137.48 202.538 132.93 201.258C130.72 201.898 126.03 200.568 122.47 200.168C118.99 199.858 115.53 199.528 112.05 199.178L91.1703 197.028L80.7203 195.978C77.2403 195.628 73.7603 195.288 70.2803 194.988C73.8003 195.558 77.3103 196.088 80.8203 196.618C84.3303 197.148 87.8503 197.698 91.3503 198.188C98.3703 199.198 105.37 200.138 112.37 200.978C112.37 200.978 117.6 201.558 122.83 202.148C128.25 202.868 134.84 204.518 133.29 203.318C138.21 204.878 143.33 206.798 143.75 204.388C149.74 207.438 154.17 209.228 154.2 205.418C157.21 209.538 157.28 209.548 154.27 205.418C157.28 209.538 157.35 209.548 154.35 205.418C159 209.518 160.74 209.518 159.8 204.628C163.69 208.568 164.63 206.908 163.84 201.758C165.39 205.688 164.2 205.858 162.49 201.918C167.8 207.578 171.86 210.658 175.06 206.768C175.55 211.578 175.48 211.558 174.98 206.748C176.95 212.028 178.46 212.408 180.26 207.948C181.44 212.778 183 212.238 185.34 207.948C184.38 212.058 184.25 212.078 185.2 207.948C187.43 212.228 190.95 209.658 194.92 206.268C193.63 208.738 193.02 208.348 194.24 205.868C193.16 209.108 193.07 210.428 195.15 208.368C193.79 211.568 194.04 212.088 196.25 209.528C194.88 212.688 195.43 212.788 197.77 210.158C195.88 212.878 195.95 212.408 197.77 209.748V209.758Z" fill="currentColor"/>
<path d="M197.89 213.189C195.47 216.289 201.98 210.719 203.44 209.029C201.98 210.719 193.56 208.289 194.79 205.879C193.56 208.289 195.47 216.289 197.89 213.189Z" fill="currentColor"/>
<path d="M227.921 219.16C229.481 221.87 230.281 222.84 229.751 220.36C231.411 223.48 232.171 224.15 231.721 220.97C232.761 224.13 232.861 224.14 231.831 220.97C232.861 224.14 232.951 224.25 231.911 221.06C233.431 224.79 234.151 225.98 233.741 222.53C235.041 226.3 235.351 226.37 234.731 222.5C235.891 226.12 236.091 225.71 235.561 221.79C236.301 225.45 236.611 224.91 235.941 221.32C236.601 224.91 236.831 225.63 236.161 221.9C236.991 226.05 237.241 226.97 236.761 223.32C237.631 227.72 237.921 228.49 237.581 224.42C238.321 228.76 238.431 228.81 238.001 224.51C238.661 228.77 238.801 228.6 238.491 224.22C239.221 228.23 239.441 227.54 239.411 223.09C239.681 227.18 240.231 226.02 240.071 222.1C240.231 226.01 240.411 227.43 240.271 223.28C240.491 227.89 240.591 228.87 240.631 224.88C240.851 229.7 241.111 230.31 241.261 225.76C241.421 230.31 241.821 229.81 242.321 225.09C242.421 229.21 242.741 228.41 243.391 223.83C243.031 228.04 244.001 226.34 244.481 222.43C244.001 226.35 243.871 228.46 244.401 224.22C243.841 228.99 243.731 230.11 244.381 226.12C243.791 231.09 243.811 232.06 244.731 227.65C244.061 232.36 244.041 232.36 245.011 227.73C244.261 232.34 244.371 232.24 245.321 227.63C244.451 232.22 244.751 231.99 245.681 227.44C245.141 231.75 245.621 230.99 247.111 226.29C246.001 230.64 247.401 228.99 248.621 224.93C247.391 228.99 246.881 231.27 248.221 226.95C246.771 231.81 246.491 232.9 247.931 228.92C246.461 233.64 246.401 234.07 247.991 229.75C246.501 234.43 246.511 234.46 248.151 229.99C246.561 234.49 246.671 234.46 248.381 229.99C246.831 234.43 246.941 234.37 248.761 229.9C247.261 234.26 247.561 233.99 249.611 229.53C248.241 233.64 248.901 232.89 251.331 228.48C249.351 232.59 251.351 230.88 253.401 227.13C251.361 230.88 250.201 233.43 252.441 229.41C249.991 233.92 249.501 234.91 251.741 231.28C249.301 235.62 249.131 236.06 251.551 232.16C249.081 236.37 249.061 236.52 251.541 232.53C249.071 236.67 249.061 236.77 251.591 232.71C249.091 236.8 249.111 236.81 251.861 232.8C249.461 236.84 249.751 236.7 252.671 232.71C250.441 236.55 251.191 236 254.521 232.08C251.671 235.81 253.741 234.68 256.641 231.25C253.741 234.68 252.391 236.77 255.501 233.23C252.151 237.19 251.621 237.95 254.721 234.82C251.431 238.52 251.301 238.82 254.621 235.44C251.341 239.01 251.301 238.98 254.721 235.59C251.561 239.13 252.241 238.97 256.171 235.69C253.121 238.89 253.931 238.51 258.001 235.39C254.411 238.41 256.381 237.77 259.951 235.01C256.381 237.78 255.051 239.44 258.851 236.68C254.851 239.76 254.401 240.26 258.231 237.85C254.221 240.84 254.141 241.04 258.251 238.54C254.321 241.25 254.731 241.32 259.161 239C255.391 241.5 256.031 241.4 260.561 239.24C256.421 241.45 256.761 241.44 260.911 239.28C256.771 241.44 256.971 241.64 261.141 239.55C258.471 243.42 261.401 244.77 267.371 245.8C263.771 246.79 264.801 247.14 269.081 247.19C265.291 247.51 267.481 248.61 270.891 248.49C268.531 249.39 270.961 250.15 274.561 251.03C274.391 252.47 279.131 254.23 282.121 255.82C284.191 257.27 287.271 258.85 289.871 260.33C295.071 263.29 300.351 266.1 305.651 268.9C310.921 271.75 316.221 274.55 321.401 277.57C316.031 274.91 310.651 272.28 305.251 269.68C299.881 267.03 294.511 264.36 289.201 261.54C286.551 260.13 283.331 258.54 281.341 257.14C278.231 255.53 273.321 253.66 273.681 252.37C269.861 251.37 267.371 250.57 269.941 249.83C266.301 249.8 264.061 248.68 268.081 248.53C263.531 248.28 262.481 247.93 266.291 247.1C260.061 245.91 257.021 244.53 259.831 240.65C255.531 242.71 256.071 242.9 260.401 240.96C255.641 242.85 254.891 242.95 258.721 240.66C254.031 242.7 253.321 242.66 256.951 239.62C252.711 241.94 252.641 241.55 256.501 238.43C252.611 240.93 252.841 240.56 256.661 237.35C253.071 239.85 253.651 239.19 257.501 235.77C253.891 238.83 254.521 239.85 258.351 237.05C254.011 239.94 253.131 240.32 256.321 237.36C252.331 240.39 251.901 240.53 255.221 237.38C251.331 240.5 250.901 240.56 253.941 237.05C250.461 240.33 250.361 240.29 253.591 236.82C250.201 240.15 250.131 240.05 253.291 236.47C249.961 239.77 249.941 239.47 253.021 235.66C249.891 238.9 250.151 238.41 253.201 234.36C250.421 237.57 251.021 236.68 254.141 232.45C251.291 236.22 252.001 237.17 255.121 233.59C251.481 237.36 250.651 237.94 253.001 234.28C249.781 238.13 249.361 238.34 251.741 234.4C248.821 238.29 248.611 238.33 250.951 234.19C248.291 238.18 248.201 238.1 250.561 233.92C248.011 237.93 247.951 237.8 250.261 233.54C247.781 237.48 247.821 237.17 250.001 232.73C247.781 236.8 247.841 236.48 250.021 232.05C247.901 236 248.111 235.45 250.271 230.89C248.351 234.61 248.851 233.53 251.061 228.85C249.081 233.01 249.921 233.84 252.171 229.78C249.431 234.15 248.721 234.92 250.281 230.9C247.931 235.31 247.571 235.64 249.191 231.35C246.971 235.81 246.561 236.06 247.731 231.43C245.891 235.89 245.671 235.65 246.951 230.89C245.391 235.27 245.371 234.93 246.601 230.14C245.241 234.39 245.331 233.76 246.521 228.87C245.381 232.84 245.671 231.65 246.901 226.67C245.801 231.07 246.671 231.7 248.011 227.32C246.251 232.05 245.711 232.87 246.341 228.58C245.211 233.16 244.791 233.46 245.831 228.84C244.631 233.51 244.481 233.66 245.201 229.01C244.191 233.68 244.101 233.72 244.831 229.03C243.891 233.7 243.781 233.67 244.411 228.94C243.581 233.59 243.481 233.49 244.031 228.72C243.301 233.36 243.251 233.21 243.761 228.43C242.971 232.81 242.921 232.18 243.311 227.26C242.821 231.6 242.831 231.01 243.211 226.19C242.801 230.17 242.901 228.98 243.291 224.16C242.941 228.42 243.771 228.84 244.301 224.55C243.451 229.22 243.101 230.06 243.091 225.9C242.541 230.58 242.331 230.94 242.331 226.5C241.861 231.22 241.591 231.49 241.191 226.82C240.801 231.41 240.491 230.93 240.121 226.13C240.171 230.43 240.061 229.89 239.701 225.21C239.821 229.15 239.701 228.07 239.351 223.43C239.641 227.58 240.371 227.83 240.211 223.63C240.101 228.21 239.841 228.98 239.081 224.93C239.251 229.46 239.041 229.74 238.181 225.39C238.421 229.86 238.051 229.64 237.101 225.13C237.371 229.1 237.071 228.14 236.071 223.68C236.671 227.3 236.421 226.32 235.501 222.15C236.271 225.88 236.801 226.05 236.101 222.26C236.541 226.34 236.281 226.81 234.991 223.11C235.501 227.15 234.991 227 233.541 223.1C233.861 226.52 233.131 225.18 231.561 221.38C232.661 224.6 232.841 224.72 231.741 221.46C232.111 224.7 231.291 223.89 229.571 220.69C230.141 223.18 229.341 222.16 227.761 219.39C228.801 221.74 228.931 221.49 227.921 219.17V219.16Z" fill="currentColor"/>
<path d="M226.93 222.308C228.4 225.118 224.85 218.238 224.15 216.898C224.85 218.238 230.95 219.338 230.23 217.198C230.95 219.338 228.4 225.118 226.93 222.308Z" fill="currentColor"/>
</svg>
