<svg width="132" height="130" viewBox="0 0 132 130" fill="none" xmlns="http://www.w3.org/2000/svg">
<path d="M47.0205 74.313C51.9635 77.4658 52.5098 77.9277 47.8399 78.0781C52.9168 78.9374 55.7445 81.6981 52.2367 86.6878C56.2425 82.6971 56.8852 83.1537 58.5935 88.4226C58.0366 84.8939 58.5507 86.1883 59.6164 89.1799C59.3861 87.8479 59.7075 88.2239 60.2805 89.2927C60.5215 89.5774 61.0088 90.5603 61.5122 91.5593C62.1817 92.8913 62.8618 94.2609 63.5419 95.6144C64.2221 96.9733 64.8968 98.316 64.0614 97.8864C66.1768 100.883 66.7873 102.103 66.2143 105.1C67.8959 104.321 69.7488 117.254 70.6646 120.106C69.1972 107.78 72.1159 119.333 72.5872 120.531C72.5818 120.273 71.2591 115.804 72.9621 120.176C72.855 119.865 68.3618 106.324 73.519 119.22C73.0156 117.609 73.0585 116.98 74.2313 118.028C72.7961 115.734 72.4801 115.122 73.6422 116.588C72.5551 114.128 70.2844 111.378 75.5809 113.817C72.8603 113.323 69.7167 102.226 70.7878 101.984C69.7381 101.866 70.8306 103.526 73.3102 102.377C70.8092 103.15 70.3058 103.026 70.6432 100.712C70.354 102.5 70.8949 102.183 72.6997 100.459C70.8949 101.979 70.354 102.097 70.3861 100.083C70.2522 102.264 70.7664 101.984 72.3783 99.9488C70.8788 101.345 69.8667 99.0734 69.6471 96.6027C69.8988 98.7941 70.9431 100.792 72.0517 99.2506C70.911 100.857 69.8399 98.9283 69.5882 96.7316C69.7649 98.8048 70.7664 100.609 71.7143 98.923C70.7824 100.336 69.797 98.257 69.5989 96.3288C69.5721 98.3644 70.3326 100.55 71.1787 98.9122C70.0969 101.093 69.0901 99.444 69.0634 97.1667C69.0955 99.3849 70.1023 100.98 71.1359 98.8155C70.3701 100.346 69.631 98.1173 69.6632 96.2267C69.856 97.9723 70.8199 100.056 71.6393 98.7726C70.7824 100.4 69.781 98.6544 69.5935 96.7047C69.8506 98.7457 70.9217 100.583 71.9231 99.0089C70.9913 100.379 69.9845 98.3375 69.7274 96.3932C69.9416 98.6222 70.9003 100.948 72.1909 99.6212C70.7396 101.716 70.2255 102.076 70.3219 99.9488C70.2523 101.931 70.7824 101.447 72.0999 99.444C70.8895 100.803 69.8559 98.7296 69.5935 96.7155C69.797 98.6007 70.8253 100.228 71.6232 98.6168C70.9699 99.6158 70.0809 97.3869 69.8988 95.9797C69.8827 97.3009 69.9631 97.5319 70.3968 96.4201C70.7128 95.7111 69.797 105.964 69.1062 96.6564C69.2936 97.9186 69.0794 97.3815 68.8438 95.8991C68.4207 97.2365 68.1529 97.2956 67.8102 95.9098C67.5049 97.5856 67.1247 97.8112 66.1929 96.3395C67.4032 97.3385 67.9601 96.7692 68.244 95.6359C68.4153 96.6618 68.3136 97.1237 67.6281 96.3288C68.4635 97.1237 68.9937 96.1891 69.3418 95.2814C69.5239 95.1794 69.5346 95.0934 69.299 95.174C68.9455 95.8776 68.3511 96.737 67.2157 96.216C68.1101 96.839 68.6081 95.8508 68.8973 94.9162C69.1383 94.32 69.1705 93.7829 68.9348 93.4016C68.4528 92.6443 66.8783 92.5207 63.874 92.4992C68.7152 91.5325 67.8477 90.9846 64.0775 89.3841C68.2493 90.9846 69.2936 91.4304 64.0453 90.4421C70.3861 91.7849 70.4397 91.6936 64.7148 88.5462C69.615 90.8933 68.7313 90.1897 65.095 87.4505C68.7367 90.1897 69.6257 90.8826 65.095 87.9017C70.6004 91.5002 67.0604 88.718 62.985 83.5296C66.482 87.7244 65.818 86.8113 63.1028 83.1107C66.0268 86.7308 70.52 90.2649 71.6232 84.6522C71.7357 86.7576 71.8696 88.1487 72.1588 88.9275C72.448 89.7063 72.8871 89.8782 73.2031 89.2927C73.7654 89.2498 74.3009 89.0188 74.799 88.5838C75.372 88.1272 75.9129 87.4666 75.8004 86.6287C75.854 87.4612 75.3827 87.993 74.9275 88.2508C74.6544 88.4495 74.4027 88.3689 74.2045 88.0467C74.3706 88.0789 74.5901 87.8694 74.7615 87.5042C75.1364 87.1014 75.4631 86.5482 75.3881 85.8929C75.6291 86.4837 75.4631 86.9671 75.0882 87.327C75.1792 87.6009 75.0614 87.7459 74.8258 87.6653C75.2863 88.1326 75.6291 88.3797 75.6505 88.4119C76.3574 88.1863 76.7376 87.7459 76.2449 87.0208C76.8555 87.9822 76.5877 88.6643 75.9397 89.0886C75.9397 89.1853 75.5648 89.0188 74.9436 88.471C75.688 89.1746 76.1968 89.5022 76.2664 89.5452C77.0215 89.1692 77.3321 88.5139 76.5984 87.5794C77.3589 88.5569 77.4285 89.0994 76.9893 89.4592C77.8783 88.9168 78.2586 88.2024 77.3214 87.3162C78.3818 88.138 78.114 88.804 77.0536 89.427C77.391 89.094 76.9358 88.7288 75.8004 88.0037C76.7484 88.8308 77.0161 89.3089 76.6948 89.5667C77.391 89.1531 77.4928 88.5193 76.5877 87.5901C77.3856 88.4871 77.1821 89.0833 76.4485 89.4378C76.6145 89.2444 76.2503 88.804 75.4256 88.0198C76.2771 88.573 76.6627 88.7771 76.3628 88.8631C77.2357 88.3636 77.4285 87.7405 76.5127 86.8973C77.4874 87.7137 77.3482 88.3152 76.4645 88.8201C76.8769 88.6751 76.5449 88.4334 75.6237 87.8587C76.5502 88.6482 76.893 89.1101 76.6038 89.3787C77.3803 88.992 77.5302 88.4173 76.6252 87.5633C77.3964 88.5784 77.4553 89.1424 77.0376 89.5237C77.9319 88.9759 78.3443 88.2454 77.4553 87.3484C78.5906 88.1971 78.612 88.7718 77.8783 89.5022C78.9334 88.7234 79.2333 88.1004 78.28 87.4666C79.7045 87.9124 79.8438 88.3582 79.1476 89.427C80.2776 88.3206 80.5721 87.8372 80.2026 87.66C80.947 87.6868 81.022 88.0198 80.7221 89.2874C81.4129 88.0091 81.7396 87.6653 82.3662 87.9178C82.6929 87.2786 102.685 87.3538 104.87 87.4451C104.072 86.8436 70.7342 86.532 106.685 86.3602C64.8005 85.5706 107.033 85.5169 107.82 85.4901C102.17 85.1839 85.8793 85.5223 108.934 83.6639C107.344 83.6478 88.2946 85.8714 95.262 82.5736C92.9913 82.8207 82.2537 84.9798 80.3258 83.8089C79.817 84.5501 78.4782 84.3138 76.3413 83.7713C75.6559 83.8143 74.1778 83.5511 72.689 83.288C71.2002 83.0248 69.6953 82.7562 68.2333 82.4984C67.1354 82.3051 66.059 82.1117 65.7858 81.9935C64.5487 81.7411 64.1096 81.5585 65.5181 81.4887C62.2781 81.2309 60.8856 81.0912 64.4898 80.9408C58.8292 80.5165 58.1597 80.0868 60.7303 75.0703C57.0619 79.8935 53.6666 77.9169 50.1802 74.2109C52.6008 77.8095 51.9635 77.4658 47.0205 74.3076V74.313Z" fill="currentColor"/>
<path d="M49.3184 76.7248C49.8753 76.5368 50.518 76.3327 51.1017 76.1662C51.6854 75.9997 52.2853 75.8386 52.5423 75.8171C52.9386 75.7472 53.0993 75.7848 52.8047 76.005C52.703 76.1554 52.071 76.526 51.0589 77.0578C51.8782 76.7301 53.6562 76.0212 54.2239 75.8278C54.8505 75.5754 55.4128 75.3498 55.5146 75.3014C55.7716 75.1994 55.5788 75.2746 55.0004 75.5109C55.8948 75.1672 57.4854 74.571 57.2872 74.6462C58.5564 74.4045 59.3008 74.2111 58.294 74.4421C59.5097 73.9318 59.6329 73.8942 58.4547 74.4152C59.2687 74.1359 57.962 74.7805 56.6713 75.4572C57.9834 74.8342 59.2259 74.281 58.4547 74.7321C59.574 74.2702 59.3276 74.5388 58.278 75.3874C59.0331 74.8664 58.219 75.4465 57.3193 76.1716C57.2658 76.3434 56.1465 77.3102 55.5467 77.9171C55.9912 77.4713 56.7784 76.7677 56.9445 76.569C57.6139 76.0265 58.369 75.5002 57.8817 75.946C59.2526 74.673 60.2113 73.9909 59.2848 74.759C60.3023 73.8352 59.5472 74.2111 57.7263 75.3605C59.0224 74.571 60.3933 74.3562 59.6757 74.7106C61.2341 73.3195 60.7414 74.6891 60.1523 75.0651C60.9717 74.3991 61.1217 74.3776 60.7361 75.1027C61.1324 74.5871 60.8593 74.7429 59.8417 75.5539C60.5058 75.0759 59.9328 75.6613 58.8456 76.8698C59.9542 75.6828 60.5486 75.1242 59.9703 75.7043C60.9771 74.8771 61.2663 74.7751 61.111 75.57C61.3841 74.6945 61.9839 73.862 62.1499 75.5539C62.1178 74.5549 61.9892 75.1833 61.759 76.757C61.941 76.0856 61.8018 77.8043 61.6893 79.1095C61.8072 77.8043 61.9571 76.1017 61.8125 76.7838C62.0482 75.2155 62.1874 74.6032 62.3213 75.6291C62.1446 73.948 62.182 73.7277 62.4605 74.9094C62.2945 73.9748 62.1767 74.1628 61.8928 75.4411C62.0749 74.6247 61.9571 75.5485 61.775 77.2296C61.9892 75.5539 62.1392 74.6354 62.0803 75.4679C62.3481 74.1843 62.5034 73.9963 62.9372 74.9147C62.5676 73.7439 62.8836 74.0231 63.8583 75.5431C63.3013 74.6569 63.5798 75.3122 64.2171 76.7677C63.9654 76.1769 64.6777 77.7399 65.09 78.8195C64.683 77.1706 64.3778 76.1393 65.2293 77.0148C64.8544 76.1769 65.7059 77.0524 66.4342 77.944C66.5253 78.0299 66.7609 77.858 67.0608 78.2286C67.3607 78.5992 67.666 78.9645 67.9445 79.2814C67.666 77.6754 70.333 80.1622 71.3612 80.3609C72.3894 80.5597 73.5944 81.4083 74.5102 81.5855C78.1733 82.2891 80.7385 82.7833 80.7385 82.7833L78.7784 81.0269C77.6003 79.9742 76.0311 78.5724 74.462 77.1706C73.6801 76.467 70.6971 75.0275 72.1592 75.1081C70.8632 74.5602 68.8442 73.948 68.6835 73.6955C67.591 73.3088 68.1319 73.1745 70.1455 73.3088C69.3797 73.196 67.998 73.0671 68.1801 73.0188C67.0019 72.9221 65.9683 72.8523 66.7716 72.7986C65.1168 72.7072 64.5384 72.6696 65.8987 72.4817C64.7741 72.5676 65.1329 72.5139 66.5146 72.3474C65.6845 72.4387 66.8145 72.3098 68.0837 72.1755C66.793 72.2937 65.5077 72.428 66.2896 72.3044C64.8276 72.4763 64.351 72.5246 65.3792 72.3313C63.8744 72.5407 63.9011 72.5085 65.4114 72.1594C64.3992 72.3796 64.9133 72.2615 66.3593 71.9392C65.6202 72.1057 66.9537 71.8157 68.1801 71.5525C66.9537 71.8157 65.6149 72.1057 66.3539 71.9284C64.9026 72.2507 64.3831 72.3581 65.3846 72.1003C63.869 72.4387 63.8154 72.4172 65.256 71.9446C64.2492 72.2346 64.6884 72.0788 66.0754 71.5954C65.315 71.8371 66.5039 71.4182 67.7409 70.9724C66.5199 71.3967 65.4488 71.7673 66.2307 71.4665C64.9079 71.9231 64.5545 72.0305 65.5881 71.5954C64.2653 72.0359 64.6348 71.5417 66.0701 70.6931C65.2775 71.0476 66.1129 70.5374 67.1786 69.8714C66.9162 69.9627 68.148 69.1785 68.812 68.7058C67.591 69.4309 66.4771 70.0164 67.0019 69.49C66.2843 69.8015 67.0126 69.055 67.6981 68.2815C67.9712 67.8411 68.8763 66.8421 69.5243 66.015C67.9659 67.0838 70.0598 63.9794 70.333 62.9266C70.7025 61.5248 71.0667 60.123 71.3933 58.8769L72.5394 54.5156C72.5394 54.5156 70.6382 56.3095 67.9284 58.8769L65.7595 60.9286C64.9936 61.6483 63.9761 64.8978 63.387 63.1737C63.3174 63.6195 63.2585 64.1083 63.1996 64.597C63.1407 65.0911 63.0496 65.9774 63.0282 66.0096C62.8782 67.2181 62.5944 68.7649 62.5087 67.7337C62.3534 68.867 62.2302 68.7649 62.0107 67.5994C61.9518 68.3514 61.7001 67.2772 61.4002 66.2191C61.6358 67.3953 61.8607 69.0872 61.7375 68.4319C61.9839 70.0003 62.1071 70.6663 62.1178 69.6135C62.0696 71.4021 61.9518 71.7673 61.6519 70.6018C61.775 71.5901 61.5233 71.5149 60.5808 70.5857C61.0949 71.2463 60.4683 70.5642 59.3919 69.2698C60.4469 70.5803 61.0467 71.2839 60.4415 70.7039C61.3948 71.6116 61.6197 71.719 61.2716 70.865C61.6519 71.9768 61.5126 71.8371 60.8218 70.3816C61.2448 71.3 60.8111 70.908 59.7614 69.7425C60.2809 70.2581 59.2633 68.9583 58.4333 67.8572C59.258 68.9583 60.2755 70.2688 59.7346 69.78C60.7843 70.9509 61.2127 71.3645 60.7307 70.5105C61.4376 71.966 60.3184 71.6868 59.6436 71.1013C60.1791 71.6814 59.8578 71.719 58.5618 71.4934C59.3597 71.719 58.5457 71.5364 57.0034 71.0959C58.5404 71.5632 59.3437 71.7727 58.5243 71.6653C59.8257 71.8747 60.1523 71.8855 59.5418 71.6438C60.2487 72.0466 61.2984 72.6267 60.2541 72.4978C60.9878 72.6213 60.4683 72.6804 58.9902 72.761C59.7882 72.7341 58.5136 72.7717 57.0141 72.7771C59.1509 72.7932 60.0077 72.7448 58.685 72.5676C59.8685 72.6911 58.7332 72.6535 56.907 72.4118C57.5818 72.5032 56.6928 72.4763 55.8198 72.4118C55.6056 72.3635 54.5345 72.2453 53.8919 72.1487C54.6202 72.2776 55.7448 72.4172 55.9002 72.4924C56.7784 72.5837 57.5282 72.6267 56.8159 72.6052C58.5082 72.8254 59.2312 72.8845 57.8602 73.0188C59.0009 72.9973 58.7974 73.0832 57.5871 73.3034C58.2512 73.2497 56.8963 73.486 55.7877 73.6848C57.5228 73.4538 57.887 73.4431 56.4678 73.7546C57.0891 73.6633 56.4892 73.8083 55.7502 73.9909C55.4985 74.0661 54.5131 74.2971 53.7955 74.4689C53.0993 74.6569 51.423 75.0598 50.5662 75.2961C51.7015 75.0866 52.4459 74.9846 52.5959 75.0329C52.9707 75.0222 52.9118 75.3605 52.5262 75.5378C52.3013 75.672 51.7015 75.903 51.1231 76.1178C50.5447 76.3327 49.8967 76.5529 49.3398 76.7355L49.3184 76.7248Z" fill="currentColor"/>
<path d="M47.2236 76.8159C53.0342 76.0479 53.7465 76.0479 50.2601 79.1738C54.6998 76.5581 58.6306 76.8535 59.1448 82.9335C59.6589 77.2939 60.4408 77.2295 65.1267 80.1621C62.4437 77.8203 63.6594 78.4756 66.396 80.0869C65.3677 79.2168 65.8551 79.2973 66.9744 79.7431C67.3439 79.8076 68.3453 80.2426 69.3682 80.683C70.7339 81.2739 72.137 81.8808 73.524 82.4823C74.9164 83.0839 76.2928 83.6801 75.3823 83.8895C78.9223 84.8187 80.1754 85.3612 81.6535 88.0252C82.4461 86.3441 92.1501 95.0559 94.6779 96.6511C85.654 88.1541 95.2937 95.1257 96.4237 95.7326C96.2524 95.5393 92.375 92.9719 96.488 95.2224C96.2042 95.0559 84.0849 87.5741 96.3006 94.1267C94.8814 93.219 94.5119 92.7034 96.081 92.7571C93.5104 91.9299 92.8784 91.6614 94.7046 92.0374C92.2947 90.8557 88.7923 90.2166 94.4101 88.6644C92.0055 90.0394 82.489 83.5619 83.153 82.6918C82.2748 83.2772 84.1759 83.8466 85.338 81.3652C83.9189 83.5673 83.4529 83.7982 82.2266 81.811C83.153 83.3686 83.3619 82.7777 83.6404 80.291C83.2334 82.6166 82.896 83.057 81.6267 81.4994C82.9228 83.2558 83.137 82.7133 83.0674 80.1137C82.8156 82.1493 80.5824 81.059 78.8312 79.3134C80.4271 80.8281 82.5104 81.6821 82.3711 79.7915C82.5265 81.7572 80.47 80.9731 78.8687 79.4477C80.3307 80.9194 82.2533 81.6552 81.8999 79.7539C82.0873 81.435 79.9987 80.479 78.617 79.1308C79.897 80.7099 81.8838 81.8915 81.4821 80.0922C82.0498 82.4608 80.2236 81.8432 78.7455 80.1137C80.1915 81.7948 81.9856 82.3695 81.3911 80.0385C81.7821 81.7035 79.7898 80.4736 78.6063 79.0073C79.8702 80.2211 81.9481 81.1933 81.7499 79.684C82.1355 81.4833 80.2504 80.7958 78.858 79.4209C80.3629 80.8173 82.3604 81.5317 82.1194 79.684C82.2801 81.3329 80.2022 80.4199 78.7616 79.0986C80.3522 80.6669 82.58 81.8324 82.7193 79.9848C82.9495 82.5253 82.7889 83.1322 81.4982 81.4404C82.7139 83.0033 82.8103 82.289 82.5372 79.9096C82.4783 81.7304 80.3575 80.8066 78.8634 79.437C80.229 80.7529 82.0552 81.3329 81.6375 79.5874C81.7767 80.7743 79.6667 79.6357 78.6277 78.6797C79.4632 79.7002 79.6667 79.8291 79.2918 78.6958C79.0829 77.9492 84.9525 86.3924 78.4563 79.7055C79.4096 80.5488 78.9008 80.2749 77.7709 79.292C78.3064 80.5864 78.135 80.8066 76.9836 79.9687C77.8191 81.4511 77.6745 81.87 76.0196 81.3383C77.5888 81.3276 77.6477 80.5327 77.1389 79.4746C77.9262 80.1513 78.1457 80.5649 77.1121 80.3984C78.2636 80.4682 78.0708 79.4155 77.7548 78.4863C77.8298 78.2876 77.7816 78.2231 77.653 78.4272C77.8298 79.1953 77.9315 80.2373 76.7212 80.5703C77.8083 80.4736 77.5566 79.394 77.1764 78.4917C76.9783 77.8794 76.6623 77.4443 76.2339 77.3101C75.377 77.0361 74.0917 77.9599 71.7835 79.8828C74.8736 76.021 73.8614 76.1606 69.9466 77.3638C74.172 75.9028 75.2538 75.5698 70.6 78.1963C76.3195 75.1348 76.3035 75.0327 69.8984 76.311C75.1574 74.9522 74.0274 74.979 69.486 75.2261C74.0274 74.9737 75.1574 74.9361 69.7752 75.5752C76.2981 74.7803 71.8049 74.9307 65.357 73.5826C70.7231 74.544 69.6306 74.2701 65.1803 73.1851C69.7378 74.0713 75.4466 73.8833 72.6939 68.8722C74.1292 70.4137 75.1199 71.3912 75.8429 71.8048C76.5659 72.2183 77.0104 72.0626 76.8765 71.4127C77.2782 71.0152 77.5406 70.4942 77.6477 69.8443C77.7923 69.1246 77.7869 68.2706 77.1657 67.7013C77.7387 68.3029 77.7227 69.0172 77.5406 69.506C77.4602 69.8336 77.2192 69.9356 76.8551 69.8121C77.005 69.7315 77.0372 69.4254 76.9354 69.0387C76.9622 68.4908 76.8604 67.8571 76.3838 67.4005C76.9461 67.6959 77.1282 68.174 77.0747 68.6949C77.321 68.8453 77.321 69.0333 77.0907 69.1246C77.7441 69.1891 78.1672 69.1515 78.1993 69.1622C78.5956 68.5338 78.6009 67.9484 77.7601 67.712C78.8419 68.0558 79.0776 68.7487 78.8527 69.4899C78.9169 69.5597 78.5206 69.6778 77.6959 69.6564C78.7188 69.7154 79.3186 69.6349 79.3989 69.6241C79.7363 68.8507 79.5542 68.1471 78.3921 67.9054C79.6024 68.1632 79.9987 68.5338 79.897 69.0924C80.229 68.1041 80.063 67.3092 78.7777 67.234C80.1165 67.1857 80.3361 67.8624 79.9237 69.0226C79.9719 68.5499 79.3828 68.5607 78.0547 68.7433C79.3079 68.7648 79.822 68.9581 79.7416 69.3663C80.0094 68.5983 79.6827 68.0504 78.3921 67.9215C79.581 68.0934 79.8059 68.6842 79.4685 69.4254C79.4685 69.1676 78.9116 69.0655 77.7762 69.0011C78.783 68.8776 79.2061 68.7863 79.0347 69.0441C79.3828 68.0988 79.1311 67.4972 77.8887 67.4435C79.1579 67.4435 79.4364 67.9913 79.0883 68.9474C79.3079 68.5714 78.9008 68.5983 77.8298 68.754C79.0454 68.7594 79.6024 68.8937 79.5542 69.2911C79.9023 68.4962 79.6506 67.9537 78.4028 67.8839C79.6452 68.1686 80.0523 68.5607 79.9773 69.1193C80.3093 68.1256 80.1594 67.2985 78.9008 67.1857C80.3147 67.1051 80.7003 67.5294 80.6039 68.566C80.9145 67.2877 80.7431 66.6217 79.6078 66.7506C80.9841 66.1759 81.375 66.423 81.5304 67.6906C81.6857 66.1169 81.6053 65.5529 81.2037 65.6603C81.7928 65.1984 82.0605 65.4079 82.6443 66.568C82.3551 65.1393 82.3819 64.6721 83.0245 64.4572C82.8638 63.759 98.2231 50.9276 99.9583 49.5849C98.9622 49.6386 73.2241 70.8863 100.654 47.5869C68.0615 73.9854 100.381 46.7168 100.97 46.1904C96.4451 49.5956 84.1866 60.3591 100.654 44.0742C99.4281 45.0893 86.2592 59.0701 89.4778 52.0555C87.8979 53.7098 81.0591 62.2873 78.8259 62.6311C78.9116 63.528 77.728 64.2101 75.7519 65.1716C75.2538 65.6442 73.9525 66.3962 72.6457 67.1535C71.3337 67.9108 70.0109 68.6788 68.7256 69.42C67.7616 69.9786 66.8137 70.5265 66.5299 70.6124C65.4159 71.2193 64.9661 71.359 65.9997 70.3976C63.3541 72.2882 62.1973 73.0777 64.859 70.6393C60.2533 73.9639 59.4607 74.066 58.2183 68.5607C58.4968 74.6192 54.6302 75.2959 49.5854 74.6997C53.7465 75.8975 53.0342 76.0425 47.229 76.8105L47.2236 76.8159Z" fill="currentColor"/>
<path d="M50.5278 77.1753C50.8384 76.6704 51.1972 76.1065 51.5346 75.5962C51.872 75.086 52.2308 74.5865 52.4129 74.4039C52.6753 74.0977 52.8199 74.0171 52.7342 74.377C52.7502 74.5542 52.5039 75.2525 52.0701 76.3052C52.4878 75.5318 53.3929 73.8399 53.7089 73.3243C54.0248 72.7281 54.314 72.191 54.3622 72.089C54.4961 71.8419 54.3944 72.0245 54.0998 72.5831C54.5657 71.7452 55.4012 70.2628 55.2994 70.4454C56.1188 69.441 56.5579 68.8126 55.9367 69.6398C56.5419 68.4635 56.6115 68.3615 56.0438 69.5162C56.4883 68.775 55.8992 70.1124 55.3476 71.4659C55.9528 70.1446 56.5526 68.9201 56.2473 69.7633C56.8096 68.6891 56.7882 69.049 56.5312 70.381C56.7775 69.4948 56.5258 70.4615 56.3009 71.6002C56.3705 71.7667 56.1295 73.2276 56.0652 74.0816C56.1188 73.4532 56.2687 72.4112 56.2687 72.148C56.4348 71.2994 56.6758 70.4078 56.5901 71.0685C56.8257 69.2101 57.1203 68.0661 56.9007 69.2531C57.0881 67.8942 56.7507 68.6622 56.092 70.7193C56.5794 69.2799 57.4898 68.2326 57.1685 68.9684C57.4684 66.9006 57.9718 68.2648 57.7629 68.9362C57.9664 67.8996 58.0682 67.7814 58.2342 68.5871C58.2074 67.9372 58.1003 68.2326 57.8379 69.5109C58.0414 68.716 57.9771 69.5324 57.9182 71.1598C58.0039 69.5377 58.1056 68.7213 58.0307 69.5431C58.2717 68.2594 58.427 67.9962 58.8179 68.7052C58.4645 67.8566 58.3895 66.8307 59.6052 68.0231C58.9411 67.2819 59.241 67.8405 60.0764 69.1993C59.7819 68.5656 60.778 69.9728 61.5278 71.047C60.7833 69.9728 59.8033 68.5656 60.13 69.1832C59.3053 67.8297 59.0214 67.2712 59.7765 67.9694C58.5662 66.7985 58.4484 66.6052 59.4231 67.3302C58.6947 66.7233 58.7322 66.9435 59.3267 68.1037C58.9464 67.3625 59.4445 68.1413 60.3817 69.5485C59.4713 68.1251 59 67.3302 59.482 68.0016C58.8608 66.8468 58.8608 66.5998 59.7819 67.0241C58.7483 66.3635 59.166 66.3796 60.8851 66.9113C59.8944 66.589 60.5263 66.9113 61.9455 67.6149C61.3778 67.3249 62.9202 68.0607 63.9323 68.6246C62.5667 67.6256 61.667 67.0295 62.8827 67.153C62.0579 66.7555 63.2736 66.8737 64.4036 67.0885C64.5321 67.0939 64.5964 66.8092 65.0677 66.9006C65.5389 66.9919 65.9995 67.0778 66.4172 67.1369C65.1748 66.0842 68.8111 66.2721 69.7269 65.7565C70.6426 65.2463 72.11 65.1174 72.9241 64.6662C76.1801 62.8454 78.4615 61.5725 78.4615 61.5725C78.4615 61.5725 77.4119 61.5403 75.8374 61.4919C74.2629 61.4436 72.1582 61.3792 70.0589 61.3147C69.0093 61.2825 65.796 62.0989 66.9742 61.2234C65.63 61.6423 63.6967 62.4748 63.4075 62.3835C62.3257 62.7917 62.647 62.3406 64.2804 61.1428C63.6217 61.551 62.481 62.3406 62.5881 62.1848C61.6188 62.8723 60.7833 63.4846 61.3671 62.926C60.0443 63.925 59.573 64.2634 60.4942 63.2483C59.6908 64.0378 59.9318 63.7639 60.8797 62.7488C60.3014 63.3503 61.0833 62.5232 61.9723 61.6047C61.0565 62.5285 60.1621 63.4577 60.6816 62.8616C59.6694 63.9358 59.3374 64.2795 60.0015 63.4685C58.9839 64.6018 58.9786 64.5588 59.9158 63.3181C59.2785 64.1399 59.5998 63.7155 60.4995 62.5393C60.0443 63.1462 60.8744 62.0613 61.6509 61.0676C60.8797 62.0613 60.0389 63.1462 60.4888 62.5339C59.5837 63.7155 59.2571 64.1345 59.8569 63.2912C58.9143 64.5266 58.8608 64.548 59.6587 63.2536C59.075 64.1237 59.3053 63.7209 60.0604 62.4587C59.6319 63.1355 60.2746 62.0452 60.9333 60.9065C60.2692 62.0183 59.6855 62.9905 60.0925 62.2546C59.3695 63.4577 59.1714 63.7693 59.6855 62.7702C58.9572 63.9626 58.9197 63.3396 59.4766 61.7659C59.0964 62.55 59.4124 61.6208 59.798 60.4231C59.6587 60.6594 60.0979 59.263 60.3014 58.4788C59.8301 59.8216 59.3535 60.9924 59.4177 60.2512C59.0696 60.9548 59.15 59.9075 59.1714 58.8763C59.0964 58.366 59.15 57.0125 59.1125 55.9598C58.6037 57.7806 58.2181 54.0531 57.7522 53.0702C57.1363 51.7597 56.5205 50.4491 55.9688 49.2836L54.0516 45.207C54.0516 45.207 53.7464 47.8066 53.3126 51.5233C53.2055 52.4525 53.0876 53.4515 52.9645 54.4935C52.8413 55.5355 54.1427 58.6829 52.5842 57.743C52.8145 58.1297 53.0876 58.5433 53.3554 58.9568C53.6285 59.3704 54.1266 60.1062 54.1266 60.1492C54.7853 61.1697 55.5618 62.5393 54.8335 61.8035C55.4387 62.7702 55.278 62.7702 54.3622 62.0237C54.8014 62.636 53.9177 61.9753 53.0073 61.3577C53.9391 62.1096 55.1977 63.2536 54.6835 62.8347C55.8778 63.8767 56.3973 64.3064 55.7332 63.4953C56.8364 64.8972 56.9864 65.2517 56.0117 64.5534C56.74 65.2302 56.499 65.3322 55.1816 65.2302C56.001 65.402 55.0852 65.2839 53.4304 64.9885C55.0798 65.3107 55.9903 65.4611 55.1495 65.4074C56.4615 65.488 56.7025 65.4289 55.8885 64.9938C56.89 65.6008 56.6972 65.5847 55.2352 64.9133C56.1456 65.3483 55.5618 65.3215 54.0088 65.1066C54.7371 65.1657 53.1198 64.8273 51.7809 64.5212C53.1198 64.8327 54.7371 65.1818 54.0088 65.155C55.5618 65.3752 56.1563 65.4128 55.2405 65.0744C56.7132 65.735 55.6797 66.2399 54.7853 66.2292C55.5672 66.3259 55.3476 66.5622 54.2069 67.2282C54.962 66.8844 54.223 67.2712 52.7556 67.9264C54.2337 67.2926 54.9834 66.9328 54.2872 67.3839C55.4172 66.7018 55.6797 66.5031 55.0531 66.7126C55.851 66.5676 57.0292 66.3366 56.1456 66.9059C56.7829 66.53 56.424 66.9059 55.3423 67.921C55.9367 67.3839 54.9834 68.2326 53.8374 69.2101C55.4815 67.8405 56.1081 67.255 54.9834 67.9748C55.9688 67.3088 55.0745 68.007 53.5214 69.006C54.0945 68.6408 53.4036 69.194 52.6913 69.7042C52.4985 69.8063 51.6042 70.4078 51.0472 70.7462C51.6899 70.3756 52.6378 69.7579 52.8092 69.715C53.5375 69.2155 54.1427 68.7643 53.5803 69.2101C55.0156 68.2863 55.61 67.8673 54.6461 68.8556C55.5029 68.1037 55.4065 68.297 54.6193 69.2477C55.0906 68.7804 54.2069 69.8331 53.4839 70.6979C54.6675 69.4035 54.9352 69.1618 54.0463 70.3111C54.464 69.8385 54.0998 70.338 53.6446 70.9557C53.5 71.1759 52.8895 71.9869 52.4557 72.5831C52.0433 73.1739 51.0204 74.565 50.5117 75.3008C51.2507 74.4092 51.7541 73.8506 51.8987 73.7916C52.1772 73.5391 52.3486 73.8399 52.1719 74.2266C52.0862 74.4737 51.7756 75.0376 51.4703 75.5747C51.165 76.1118 50.8116 76.6973 50.501 77.1968L50.5278 77.1753Z" fill="currentColor"/>
<path d="M48.9814 78.6002C52.9391 74.2658 53.4853 73.8039 52.8213 78.4444C54.5457 73.5783 57.7482 71.2687 62.0379 75.5978C58.814 70.9465 59.3763 70.3933 64.8442 69.6198C61.2828 69.5554 62.6377 69.2761 65.7653 68.7444C64.4211 68.7444 64.8442 68.4866 65.9902 68.1052C66.3115 67.9172 67.3612 67.6057 68.4269 67.2835C69.8515 66.8538 71.3135 66.4187 72.7648 65.9837C74.2161 65.5486 75.6514 65.1189 75.089 65.8655C78.3987 64.2972 79.7 63.9051 82.5438 64.99C82.0725 63.1907 95.0915 63.6097 98.053 63.2015C85.6927 62.5086 97.5496 61.6385 98.8028 61.3753C98.5511 61.3377 93.9294 61.8695 98.5243 60.9403C98.1976 60.994 84.1236 63.078 97.6781 60.2206C96.0072 60.4408 95.3967 60.285 96.6338 59.3129C94.1329 60.3334 93.4795 60.5375 95.1183 59.6459C92.5155 60.2958 89.4201 62.0628 92.7297 57.2504C91.7711 59.85 80.3266 61.0262 80.2784 59.9305C79.9785 60.9457 81.8047 60.1561 81.1032 57.5028C81.4298 60.1078 81.2156 60.5858 79.0038 59.85C80.7122 60.4462 80.4926 59.8553 79.1163 57.7768C80.2945 59.8231 80.3159 60.3763 78.3451 60.0004C80.4605 60.5106 80.2784 59.952 78.5593 58.0077C79.6733 59.7318 77.2633 60.3387 74.7998 60.1239C76.9956 60.2528 79.1377 59.5707 77.8203 58.2064C79.202 59.6137 77.1187 60.3387 74.9177 60.2045C76.9849 60.3871 78.9289 59.7157 77.4347 58.4857C78.6557 59.6512 76.444 60.2635 74.5214 60.1239C76.5136 60.5052 78.795 60.1346 77.333 59.0121C79.2877 60.4623 77.4883 61.1659 75.2497 60.7953C77.4347 61.1498 79.1752 60.4354 77.2312 59.0336C78.6022 60.0594 76.2833 60.3978 74.4357 60.038C76.1815 60.1507 78.3987 59.5599 77.2794 58.5287C78.7254 59.6566 76.8403 60.3441 74.8962 60.1937C76.9474 60.2958 78.9342 59.5546 77.5632 58.2924C78.7468 59.4525 76.5671 60.0917 74.6124 60.0111C76.8403 60.1884 79.293 59.6405 78.2112 58.1366C80.016 59.9359 80.2784 60.5052 78.2112 60.038C80.1499 60.4515 79.7643 59.8392 78.0238 58.1957C79.1484 59.6244 76.9313 60.2904 74.907 60.1991C76.7974 60.328 78.57 59.5922 77.1241 58.5233C77.9917 59.3451 75.646 59.8339 74.2375 59.7694C75.5335 60.0165 75.7692 59.9789 74.7517 59.3558C74.1144 58.9208 84.0219 61.6063 74.757 60.6717C76.0262 60.704 75.4639 60.8221 73.9698 60.7953C75.2069 61.4452 75.2229 61.7191 73.8037 61.8211C75.3943 62.4173 75.5496 62.8309 73.9483 63.4915C75.1426 62.471 74.6767 61.8211 73.6109 61.3431C74.6445 61.3539 75.0837 61.5311 74.184 62.0682C75.1105 61.3807 74.2857 60.6986 73.4503 60.1937C73.3807 59.995 73.3003 59.9735 73.3378 60.2152C73.9644 60.6879 74.7088 61.4237 73.9965 62.4549C74.7677 61.6815 73.8787 61.0155 73.0111 60.5697C72.4702 60.2259 71.9454 60.1024 71.5331 60.2743C70.703 60.618 70.312 62.1541 69.7711 65.1136C69.664 60.1615 68.9732 60.9242 66.7507 64.3724C69.0481 60.5267 69.6694 59.576 67.7843 64.5872C70.2049 58.5556 70.1246 58.4857 66.0384 63.5989C69.1927 59.1679 68.3466 59.9144 65.0262 63.035C68.3466 59.9144 69.182 59.1571 65.4707 63.1156C69.9586 58.3031 66.6114 61.3163 60.8115 64.4368C65.5404 61.7137 64.5282 62.2078 60.4206 64.2435C64.48 61.9823 68.7322 58.1581 63.4143 56.0956C65.5029 56.3534 66.8899 56.4609 67.7039 56.3105C68.518 56.1601 68.7643 55.7573 68.2448 55.3437C68.2984 54.7797 68.1645 54.2158 67.8271 53.6465C67.479 53.0019 66.922 52.352 66.0813 52.3144C66.906 52.4058 67.3505 52.9643 67.5219 53.4531C67.6718 53.7539 67.5486 53.9902 67.1952 54.1298C67.2594 53.9687 67.0881 53.7163 66.7614 53.4853C66.4294 53.0449 65.9474 52.626 65.2887 52.5884C65.9099 52.4541 66.3597 52.7012 66.6436 53.1362C66.9274 53.0932 67.0506 53.2329 66.9328 53.4531C67.4737 53.0771 67.7736 52.7817 67.8057 52.771C67.7039 52.0351 67.3398 51.584 66.5418 51.9438C67.5968 51.5088 68.2181 51.8901 68.518 52.6045C68.609 52.6152 68.3841 52.9643 67.7414 53.48C68.5608 52.8677 68.9678 52.4219 69.0267 52.3628C68.7911 51.5518 68.202 51.1328 67.1523 51.6968C68.2448 51.1113 68.7857 51.1382 69.0696 51.6377C68.6893 50.6655 68.052 50.166 67.0184 50.9395C68.0092 50.0371 68.6144 50.4131 69.0428 51.5679C68.775 51.1758 68.3359 51.5679 67.4308 52.5561C68.4055 51.7666 68.9196 51.5786 69.1231 51.9438C68.8339 51.1865 68.2341 50.9717 67.163 51.7021C68.1859 51.0684 68.7322 51.3745 68.9571 52.1587C68.7911 51.9653 68.3037 52.2446 67.388 52.9214C68.0788 52.1802 68.3466 51.8364 68.3787 52.1372C68.036 51.1865 67.4576 50.8911 66.4775 51.6484C67.4522 50.832 68.0146 51.0737 68.3573 52.0298C68.2877 51.6001 67.9878 51.8848 67.2648 52.6958C68.202 51.917 68.7108 51.6592 68.9303 51.9922C68.684 51.1597 68.1484 50.9072 67.147 51.6592C68.277 51.0791 68.8446 51.1113 69.1445 51.5894C68.7643 50.6118 68.1163 50.0747 67.0827 50.7998C68.1163 49.8277 68.6786 49.9029 69.2677 50.7568C68.684 49.5752 68.127 49.1724 67.3398 50.0049C68.0253 48.6729 68.4858 48.6138 69.4123 49.4893C68.5233 48.1841 68.1002 47.8028 67.8646 48.1412C68.0199 47.4107 68.3573 47.3946 69.5515 47.9102C68.4162 47.0025 68.1324 46.6265 68.4912 46.0465C67.9235 45.6168 71.4634 25.8837 71.9347 23.7353C71.2064 24.4174 65.1066 57.288 71.1849 21.7534C63.1358 62.9866 70.4191 21.2646 70.5316 20.4804C69.2516 26.0072 66.756 42.1579 68.9357 19.0625C68.6465 20.6308 67.5165 39.8322 65.4868 32.3772C65.3368 34.6599 65.5939 45.6436 64.1051 47.3463C64.7424 47.9747 64.2765 49.2583 63.3768 51.2725C63.2964 51.9546 62.7877 53.3672 62.2682 54.7958C61.7487 56.2245 61.2293 57.664 60.7205 59.0604C60.3403 60.1132 59.9654 61.139 59.7994 61.3861C59.3334 62.5677 59.0817 62.9652 59.2585 61.5633C58.4444 64.7161 58.0642 66.0696 58.5408 62.4871C57.1431 68.0032 56.6022 68.5886 52.1197 65.178C56.2166 69.6413 53.6888 72.6491 49.442 75.4474C53.3943 73.6857 52.9444 74.255 48.9922 78.5841L48.9814 78.6002Z" fill="currentColor"/>
<path d="M51.7501 76.7481C51.6644 76.1626 51.5734 75.4966 51.5091 74.8897C51.4449 74.2828 51.3913 73.6651 51.4181 73.4073C51.4181 73.0045 51.4823 72.8487 51.6484 73.1817C51.7769 73.3106 52.0339 73.9981 52.3767 75.0884C52.2 74.2237 51.809 72.3439 51.718 71.7477C51.5787 71.087 51.4556 70.4909 51.4234 70.3781C51.3699 70.1041 51.4074 70.3082 51.5412 70.9259C51.3592 69.9806 51.0539 68.3102 51.0914 68.5197C51.0753 67.2199 51.0111 66.4572 51.0646 67.4885C50.7754 66.1994 50.7594 66.0705 51.0646 67.3273C50.9307 66.4733 51.3377 67.8752 51.7769 69.2663C51.3967 67.8644 51.07 66.5378 51.3752 67.381C51.1182 66.194 51.3324 66.4841 51.9857 67.6711C51.6055 66.8332 52.0339 67.7355 52.5909 68.7506C52.7516 68.8312 53.5067 70.1095 53.9994 70.8024C53.6352 70.2868 53.0836 69.3898 52.9176 69.1857C52.4999 68.4284 52.1143 67.5905 52.4677 68.1491C51.4556 66.5754 50.9522 65.5066 51.5412 66.5593C50.8129 65.3938 51.0486 66.2048 51.8572 68.2028C51.311 66.7849 51.3377 65.3938 51.5573 66.1672C50.4595 64.3894 51.7233 65.1091 51.9911 65.759C51.4823 64.8352 51.4877 64.6794 52.125 65.1897C51.6858 64.7116 51.793 65.0017 52.4142 66.1511C52.0607 65.4099 52.5374 66.0813 53.5335 67.3596C52.5588 66.0598 52.1143 65.3723 52.5856 66.049C51.9483 64.9104 51.8947 64.6096 52.6498 64.8996C51.8358 64.4753 51.1235 63.7395 52.8105 63.8684C51.8251 63.7288 52.4142 63.9651 53.9244 64.4646C53.2978 64.1692 54.958 64.6042 56.2219 64.9426C54.9634 64.5989 53.3139 64.1531 53.9565 64.4162C52.457 63.9114 51.8786 63.6643 52.9069 63.7126C51.2253 63.5945 51.0164 63.5193 52.2267 63.4495C51.2788 63.4495 51.4448 63.5998 52.6498 64.1047C51.884 63.7825 52.7676 64.0564 54.385 64.5344C52.773 64.0349 51.9001 63.7234 52.7087 63.9275C51.493 63.4441 51.3377 63.2561 52.3124 62.9875C51.0967 63.1487 51.4288 62.8855 53.089 62.1873C52.125 62.5794 52.8158 62.4236 54.3528 62.0423C53.7316 62.1873 55.3864 61.7576 56.5218 61.5374C54.8348 61.6555 53.7637 61.7737 54.7706 61.0862C53.8869 61.3118 54.8884 60.6189 55.8952 60.055C55.9969 59.9798 55.8684 59.7166 56.2861 59.4857C56.7039 59.2547 57.1162 59.0184 57.4697 58.7928C55.847 58.7874 58.7496 56.5853 59.1245 55.6024C59.4994 54.6195 60.5437 53.5775 60.8757 52.7021L63.1357 46.7617L61.0739 48.3945C59.8368 49.372 58.1873 50.6772 56.5378 51.9877C55.7131 52.643 53.7798 55.3339 54.1118 53.9052C53.346 55.0922 52.3981 56.9774 52.125 57.0902C51.5573 58.0999 51.5145 57.5467 52.0018 55.5756C51.7555 56.3114 51.3913 57.6541 51.3752 57.4661C51.0753 58.6155 50.8236 59.6253 50.9147 58.8196C50.5398 60.4363 50.4005 61.0003 50.4541 59.6253C50.347 60.7532 50.3523 60.3826 50.4327 58.9915C50.3738 59.824 50.4434 58.6854 50.5398 57.4124C50.4327 58.7122 50.3416 60.0013 50.3523 59.2064C50.2667 60.6834 50.2292 61.1614 50.2185 60.1141C50.1649 61.6394 50.1328 61.6072 50.0578 60.055C50.0953 61.0916 50.0739 60.5652 50.0042 59.0775C50.0417 59.8348 49.9882 58.4705 49.9453 57.2083C49.9882 58.4652 50.0417 59.8348 49.9989 59.0775C50.0632 60.5652 50.0792 61.097 49.9989 60.0603C50.0685 61.6179 50.0417 61.6663 49.8222 60.1624C49.9346 61.2097 49.8543 60.7478 49.6187 59.2923C49.7258 60.0872 49.5169 58.8358 49.2973 57.5413C49.5008 58.8196 49.6776 59.9422 49.5169 59.1204C49.7365 60.5061 49.7793 60.8767 49.533 59.7757C49.7365 61.156 49.3134 60.7049 48.7297 59.1419C48.9439 59.9852 48.5851 59.0721 48.1138 57.9066C48.1566 58.1805 47.5997 56.827 47.2516 56.0912C47.755 57.4232 48.1352 58.6263 47.7068 58.0194C47.8889 58.782 47.2837 57.9334 46.6357 57.1224C46.2501 56.7787 45.4254 55.7045 44.7238 54.9257C45.5004 56.6498 42.8173 54.0448 41.8319 53.5883L38.0403 51.8373C35.7053 50.7578 33.9541 49.9521 33.9541 49.9521L37.4351 55.264C37.9492 56.0482 38.4955 56.8861 39.0739 57.7669C39.6523 58.6478 42.662 60.2161 40.8679 60.5008C41.2964 60.6458 41.7676 60.7908 42.2336 60.9305C42.7048 61.0701 43.5617 61.3172 43.5885 61.344C44.7506 61.6985 46.218 62.2464 45.1897 62.155C46.2769 62.5042 46.1537 62.6116 44.9702 62.6277C45.6985 62.8157 44.6006 62.8748 43.5081 62.9929C44.7078 62.9661 46.4001 63.0359 45.7413 63.0413C47.3265 63.0681 48.0013 63.0627 46.9677 62.8694C48.7136 63.2292 49.051 63.4065 47.8567 63.4978C48.8475 63.5461 48.7297 63.7825 47.6532 64.5505C48.3923 64.1584 47.6157 64.6579 46.1591 65.4958C47.6318 64.6794 48.4244 64.2121 47.7443 64.7063C48.7993 63.9221 48.9439 63.7234 48.0442 63.9167C49.2009 63.7341 49.0456 63.8469 47.4926 64.2766C48.4672 64.0188 48.0067 64.3786 46.6785 65.2165C47.273 64.7922 45.8217 65.5764 44.5953 66.1994C45.8217 65.5764 47.2837 64.803 46.7107 65.2487C48.0442 64.4162 48.5208 64.0618 47.605 64.3948C49.1581 63.949 48.6868 65.0071 47.996 65.571C48.66 65.1413 48.6386 65.4636 48.1941 66.7097C48.5529 65.9577 48.2316 66.7311 47.5354 68.1813C48.2637 66.7419 48.6065 65.9846 48.3601 66.7795C48.7886 65.528 48.8635 65.2111 48.5154 65.7697C49.0349 65.1413 49.7847 64.2068 49.4794 65.2112C49.7258 64.5129 49.6936 65.0285 49.5169 66.5056C49.6294 65.7107 49.4419 66.9728 49.1902 68.4606C49.5758 66.3498 49.6776 65.5012 49.2759 66.7741C49.6026 65.6247 49.367 66.7365 48.8153 68.5036C49.0189 67.8537 48.8421 68.7238 48.6279 69.5724C48.5422 69.7765 48.2423 70.8131 48.0335 71.4308C48.2905 70.7326 48.6172 69.6476 48.7243 69.5026C48.9653 68.6486 49.1367 67.9181 48.9921 68.6164C49.5008 66.9836 49.6883 66.28 49.5812 67.6603C49.7579 66.5324 49.8061 66.7419 49.8115 67.9772C49.8704 67.3166 49.8704 68.6916 49.8704 69.8195C49.9453 68.0632 49.9989 67.7033 50.0578 69.1588C50.0739 68.5251 50.1167 69.1481 50.1649 69.9108C50.197 70.174 50.2506 71.1891 50.2934 71.9195C50.3577 72.6393 50.4648 74.3634 50.5451 75.2549C50.5398 74.1002 50.5666 73.3429 50.6362 73.2032C50.6897 72.8326 51.0111 72.9508 51.1235 73.359C51.2146 73.6007 51.3377 74.2345 51.4502 74.8468C51.5627 75.459 51.6644 76.1304 51.7501 76.7159V76.7481Z" fill="currentColor"/>
<path d="M51.471 78.8346C51.7227 72.9641 51.8513 72.2551 54.3147 76.2404C52.5153 71.4011 53.49 67.5662 59.5523 68.1194C54.1059 66.637 54.1755 65.8475 57.8707 61.7279C55.102 63.973 55.9589 62.8827 58.0153 60.4603C56.9817 61.3251 57.1478 60.8578 57.7797 59.8266C57.9082 59.4774 58.508 58.559 59.1185 57.6244C59.9379 56.3784 60.7734 55.1001 61.6035 53.8325C62.4389 52.5649 63.2583 51.3081 63.3065 52.2427C64.8328 48.9073 65.5825 47.7686 68.4584 46.7643C66.9428 45.6901 77.1877 37.6174 79.1906 35.3992C69.2777 42.8327 77.7982 34.5237 78.5961 33.514C78.3766 33.6482 75.1794 37.032 78.1035 33.3636C77.8892 33.616 68.4423 44.2882 76.9949 33.3582C75.8542 34.5989 75.2865 34.8782 75.6132 33.3367C74.3547 35.7322 73.9798 36.3123 74.6653 34.5721C73.0854 36.7473 71.8483 40.0935 71.3021 34.2766C72.2339 36.887 64.2222 45.1637 63.4832 44.358C63.9063 45.3302 64.7953 43.547 62.5567 41.9679C64.4739 43.7511 64.6185 44.256 62.4496 45.1207C64.1419 44.4762 63.5957 44.1647 61.2072 43.4611C63.4189 44.2667 63.7938 44.6803 62.0426 45.6578C63.992 44.6857 63.4939 44.3742 60.9287 43.9928C62.8834 44.5944 61.4267 46.6139 59.4077 48.0372C61.1697 46.7213 62.3746 44.8146 60.4895 44.6212C62.4496 44.8092 61.3196 46.7052 59.547 48.0211C61.25 46.8287 62.305 45.0616 60.3717 45.0778C62.0587 45.1798 60.7519 47.0811 59.1882 48.2144C60.9608 47.2208 62.471 45.4645 60.6288 45.5504C63.0548 45.4 62.1283 47.0973 60.1736 48.2574C62.0747 47.1187 62.9477 45.4484 60.5592 45.631C62.2622 45.5343 60.7091 47.2906 59.0596 48.2037C60.4681 47.1671 61.7855 45.2819 60.27 45.2174C62.1015 45.1476 61.1 46.8932 59.5095 48.0318C61.1429 46.7857 62.1926 44.9381 60.3342 44.8575C61.9837 44.9811 60.7198 46.877 59.1721 48.0748C60.9876 46.775 62.5192 44.777 60.7252 44.3204C63.2636 44.5353 63.8259 44.7985 61.9462 45.7814C63.6921 44.8522 63.0066 44.632 60.6234 44.4869C62.4014 44.8575 61.1268 46.7965 59.5202 48.0318C61.0465 46.9146 61.9355 45.2067 60.1468 45.3195C61.3357 45.3893 59.8522 47.2745 58.733 48.1339C59.879 47.4893 60.0397 47.3067 58.8615 47.484C58.0903 47.5645 67.4034 43.2301 59.7076 48.483C60.7037 47.6881 60.3449 48.1446 59.1828 49.0899C60.5484 48.7891 60.7359 48.9932 59.713 49.9815C61.3143 49.4122 61.6998 49.627 60.8912 51.1685C61.1536 49.6163 60.3824 49.4229 59.2578 49.7398C60.0557 49.0792 60.5056 48.9341 60.1628 49.9278C60.4306 48.8052 59.3595 48.8106 58.4009 48.961C58.2188 48.8536 58.1439 48.8912 58.3259 49.0523C59.1078 49.0093 60.1521 49.0899 60.2646 50.3413C60.3556 49.251 59.2524 49.3155 58.2992 49.5303C57.6619 49.6163 57.1799 49.858 56.9764 50.2554C56.5587 51.0503 57.2442 52.4844 58.7276 55.1001C55.4715 51.378 55.434 52.4038 55.9374 56.4804C55.2359 52.0547 55.0966 50.9268 56.8693 55.9809C54.861 49.7989 54.7485 49.7989 54.8985 56.3461C54.4754 50.916 54.3094 52.0332 53.7631 56.5664C54.3094 52.0332 54.4593 50.916 54.1541 56.3408C54.5075 49.7613 53.8756 54.2246 51.4335 60.3583C53.3079 55.2236 52.8527 56.2548 51.0105 60.4657C52.6706 56.1206 53.4793 50.4488 48.0811 52.2964C49.843 51.147 50.9783 50.336 51.5032 49.6968C52.028 49.0577 51.9584 48.5904 51.2997 48.6065C50.9783 48.1392 50.5178 47.7901 49.8912 47.5753C49.2111 47.3067 48.3702 47.1671 47.7008 47.6827C48.3917 47.2208 49.0879 47.3604 49.5377 47.629C49.843 47.7633 49.9019 48.0211 49.7198 48.3594C49.6663 48.1983 49.3717 48.1124 48.9754 48.1446C48.4399 48.0211 47.8026 48.0103 47.2724 48.4078C47.6633 47.9029 48.1614 47.8062 48.6648 47.9512C48.8522 47.7364 49.0397 47.7633 49.0879 48.0103C49.2646 47.3765 49.3021 46.9522 49.3182 46.9254C48.7719 46.4259 48.1989 46.3185 47.8186 47.108C48.3488 46.0982 49.0665 45.9855 49.7573 46.3399C49.8376 46.2916 49.8858 46.6998 49.7252 47.5108C49.9608 46.5118 49.9876 45.9049 49.9929 45.8243C49.2914 45.357 48.5738 45.4108 48.1293 46.5226C48.5952 45.3732 49.0236 45.0402 49.5592 45.2389C48.6487 44.7394 47.8401 44.7662 47.5402 46.0231C47.7222 44.691 48.4238 44.589 49.4949 45.2013C49.0397 45.0724 48.9486 45.6525 48.8951 47.0006C49.1361 45.7652 49.4092 45.2926 49.8001 45.4376C49.0932 45.0402 48.4988 45.2657 48.1453 46.5172C48.5202 45.3732 49.1414 45.255 49.8109 45.7115C49.5592 45.6686 49.361 46.2003 49.0986 47.3067C49.1521 46.2916 49.1361 45.8566 49.3556 46.066C48.4881 45.5611 47.8508 45.7008 47.583 46.92C47.8026 45.6686 48.3917 45.486 49.27 45.9962C48.9379 45.7115 48.8951 46.1197 48.8629 47.21C49.0825 46.0069 49.3074 45.486 49.6877 45.5987C48.9647 45.1207 48.3917 45.2711 48.1078 46.4903C48.6005 45.3141 49.0557 44.9757 49.5913 45.1529C48.6702 44.6481 47.8347 44.6588 47.5027 45.878C47.6687 44.4655 48.1507 44.1647 49.1521 44.4332C47.9525 43.9069 47.267 43.9552 47.1921 45.1046C46.8654 43.6437 47.1814 43.2999 48.4506 43.3698C46.9296 42.9455 46.362 42.924 46.3995 43.3375C46.0514 42.6769 46.2977 42.446 47.5402 42.07C46.0888 42.1076 45.6283 42.0002 45.5372 41.3234C44.825 41.361 34.8907 23.9589 33.8732 22.0146C33.7554 23.0083 50.1482 52.1192 32.0309 20.978C52.2904 57.7533 31.1312 21.0962 30.7135 20.4248C33.2734 25.4843 41.7135 39.465 28.582 20.3711C29.3639 21.7622 40.8084 37.1931 34.4783 32.7942C35.8279 34.6419 43.063 42.8864 43.0148 45.1476C43.9092 45.2174 44.3751 46.5011 44.9749 48.628C45.3552 49.2027 45.8639 50.6153 46.3834 52.044C46.9029 53.4726 47.4223 54.9121 47.9311 56.3139C48.3113 57.3666 48.6862 58.3925 48.7184 58.6879C49.12 59.891 49.1789 60.3637 48.4184 59.1713C49.8162 62.1146 50.3892 63.3929 48.4613 60.3422C50.9248 65.4715 50.8873 66.2664 45.2695 66.5403C51.2675 67.3138 51.2568 71.2561 49.8001 76.133C51.696 72.2336 51.7174 72.9587 51.4657 78.8292L51.471 78.8346Z" fill="currentColor"/>
<path d="M52.4029 75.6324C51.9638 75.2403 51.4657 74.7837 51.0319 74.3648C50.5981 73.9459 50.159 73.5001 50.0144 73.2906C49.7573 72.9791 49.7091 72.8233 50.0465 72.9683C50.2233 72.9845 50.8659 73.3443 51.8245 73.9566C51.1337 73.4088 49.6342 72.2218 49.179 71.8189C48.6488 71.4054 48.1721 71.024 48.0757 70.9596C47.8562 70.7877 48.0168 70.9166 48.5149 71.3033C47.7705 70.6964 46.4638 69.6168 46.6244 69.7511C45.7836 68.7682 45.2427 68.2204 45.9443 68.983C44.8946 68.1828 44.8036 68.0968 45.8425 68.8541C45.1945 68.2848 46.3995 69.1012 47.6366 69.88C46.4423 69.0529 45.3445 68.2472 46.121 68.693C45.1624 67.9518 45.5159 68.0324 46.7744 68.5211C45.9497 68.1237 46.8547 68.5426 47.9312 68.9616C48.1025 68.9186 49.5003 69.4127 50.325 69.6276C49.7145 69.4664 48.7184 69.1334 48.4613 69.0905C47.658 68.7789 46.8226 68.3869 47.4545 68.5856C45.6712 68.0324 44.6001 67.5382 45.7247 67.9625C44.418 67.5382 45.1196 68.0109 47.0207 69.0153C45.6926 68.2794 44.825 67.1999 45.4837 67.651C43.5022 66.9958 44.9321 66.738 45.5534 67.0602C44.568 66.6789 44.4769 66.5607 45.2909 66.5339C44.6483 66.4479 44.9214 66.6037 46.1264 67.0871C45.382 66.7487 46.1746 66.9528 47.7598 67.2912C46.1853 66.9259 45.398 66.6842 46.1906 66.8991C44.975 66.4372 44.7393 66.2385 45.5052 65.9753C44.6108 66.174 43.5933 66.072 44.9696 65.0837C44.1235 65.61 44.7286 65.4113 46.2067 64.8259C45.5373 65.0031 47.0904 64.2673 48.2685 63.7087C47.085 64.2566 45.5373 64.9816 46.196 64.7614C44.7233 65.3415 44.1235 65.5241 44.9428 64.9011C43.5826 65.8947 43.3737 65.9753 44.252 65.1374C43.529 65.7497 43.7486 65.7551 44.9964 65.3683C44.2038 65.6154 45.0553 65.2556 46.603 64.5788C45.0499 65.2341 44.1824 65.5617 44.9268 65.1965C43.6843 65.61 43.4433 65.5671 44.0217 64.7292C43.197 65.6369 43.2827 65.2233 44.102 63.6174C43.6147 64.5412 44.0431 63.9719 44.9803 62.6936C44.6001 63.2038 45.5855 61.8074 46.3192 60.9104C45.1035 62.0867 44.3591 62.8708 44.6911 61.6946C44.1556 62.4358 44.4823 61.2595 44.8893 60.1853C44.9214 60.0618 44.6483 59.9436 44.8197 59.4978C44.991 59.052 45.1571 58.6062 45.2856 58.2034C44.0378 59.2454 44.8518 55.6898 44.5091 54.6961C44.1663 53.7025 44.2948 52.2309 43.9896 51.35C42.7685 47.8159 41.9117 45.3398 41.9117 45.3398L41.3761 47.9179C41.0548 49.4648 40.6264 51.5326 40.2033 53.5951C39.9891 54.6263 40.2354 57.9402 39.5767 56.6243C39.7535 58.0262 40.2354 60.0833 40.0962 60.3465C40.3104 61.4905 39.9195 61.0877 39.0305 59.2669C39.3143 59.9866 39.8927 61.2542 39.7588 61.1199C40.2622 62.1941 40.7228 63.1286 40.2729 62.4519C41.0227 63.9343 41.2744 64.4553 40.4336 63.3703C41.0709 64.3049 40.846 64.0149 40.0105 62.9031C40.5032 63.5798 39.8231 62.6614 39.0787 61.6248C39.8284 62.6882 40.5835 63.7356 40.0855 63.1179C40.9638 64.3049 41.2476 64.6916 40.5621 63.8967C41.4993 65.0998 41.4565 65.0944 40.4015 63.9558C41.0977 64.7238 40.7388 64.3371 39.7374 63.2414C40.2515 63.8 39.3357 62.7849 38.4949 61.8503C39.3357 62.7849 40.2569 63.8 39.732 63.2522C40.7335 64.3532 41.0869 64.7453 40.364 64.0041C41.4136 65.1535 41.4243 65.2072 40.2943 64.1975C41.0495 64.9279 40.696 64.6271 39.5821 63.6604C40.1712 64.1975 39.2126 63.3757 38.2111 62.5271C39.1858 63.3757 40.0426 64.1223 39.3893 63.5905C40.4497 64.5144 40.7174 64.7668 39.8231 64.0847C40.8674 65.0139 40.2515 64.9387 38.8002 64.1169C39.5017 64.6272 38.6449 64.1599 37.5363 63.5637C37.7452 63.7463 36.4492 63.0696 35.7155 62.7312C36.9526 63.4294 38.0183 64.1062 37.3007 63.9128C37.9273 64.3747 36.9204 64.1223 35.9083 63.9128C35.3942 63.8967 34.0714 63.6067 33.0378 63.4616C34.7408 64.2834 31.0134 64.0149 29.9638 64.3049C28.5714 64.6862 27.1736 65.0676 25.9365 65.4059L21.5986 66.5929C21.5986 66.5929 24.0996 67.3449 27.6717 68.4191C28.566 68.6876 29.5246 68.9777 30.5314 69.2784C31.5383 69.5792 34.8479 68.8434 33.659 70.2184C34.0821 70.0572 34.5319 69.8639 34.9818 69.6705C35.437 69.4718 36.2457 69.1119 36.2885 69.1119C37.4078 68.6393 38.8859 68.1076 38.0344 68.6984C39.0894 68.2687 39.0626 68.4298 38.1682 69.1979C38.8484 68.8703 38.0451 69.6276 37.2793 70.4225C38.179 69.6276 39.5232 68.591 39.0198 69.0206C40.2515 68.0216 40.7656 67.5812 39.8499 68.0968C41.419 67.2482 41.7939 67.1676 40.937 68.0055C41.7296 67.404 41.7885 67.6618 41.4565 68.9454C41.7671 68.1666 41.494 69.0529 40.9156 70.6319C41.5207 69.0582 41.826 68.1881 41.6278 69.0045C41.9331 67.7209 41.917 67.4738 41.3494 68.2042C42.1205 67.318 42.0723 67.506 41.1566 68.838C41.7403 68.0109 41.6171 68.5856 41.1351 70.0841C41.3172 69.3751 40.7067 70.9112 40.1712 72.1788C40.7121 70.9112 41.3333 69.3751 41.178 70.0895C41.6653 68.591 41.8046 68.0163 41.3119 68.8595C42.2169 67.5168 42.5329 68.6286 42.3615 69.5094C42.5918 68.7521 42.7846 69.0153 43.2398 70.256C43.0363 69.4503 43.2827 70.2452 43.6736 71.8082C43.3094 70.2399 43.0845 69.4342 43.4058 70.2023C42.9346 68.9669 42.7846 68.6769 42.8757 69.3268C42.8757 68.5158 42.8489 67.3127 43.2559 68.2794C42.9935 67.5812 43.3041 68.0001 44.1128 69.2462C43.6897 68.5641 44.3591 69.6544 45.1196 70.9542C44.0646 69.0905 43.5933 68.3708 44.1074 69.6115C43.6254 68.5211 44.1556 69.5255 44.8625 71.2335C44.6054 70.6051 45.0285 71.3839 45.4034 72.1734C45.4677 72.3829 45.9015 73.3712 46.1425 73.9781C45.8907 73.2799 45.4462 72.2325 45.4355 72.0606C45.0714 71.2496 44.734 70.5782 45.0714 71.212C44.4127 69.6329 44.1074 68.9723 44.9053 70.1002C44.3163 69.1227 44.4876 69.2516 45.2856 70.1915C44.9053 69.6437 45.789 70.7018 46.512 71.5611C45.4462 70.17 45.2535 69.8585 46.2335 70.9381C45.8425 70.444 46.271 70.8898 46.7958 71.4483C46.9886 71.631 47.6795 72.3721 48.1829 72.9039C48.6916 73.4141 49.8805 74.6656 50.5125 75.2994C49.7681 74.4185 49.3021 73.8223 49.27 73.6666C49.0719 73.3497 49.3932 73.2315 49.7413 73.4732C49.9662 73.6021 50.4696 74.0049 50.9409 74.4024C51.4122 74.7999 51.9263 75.2456 52.3654 75.6431L52.4029 75.6324Z" fill="currentColor"/>
</svg>
