<svg width="304" height="234" viewBox="0 0 304 234" fill="none" xmlns="http://www.w3.org/2000/svg">
<path d="M61.8901 44.0391L127.99 122.389" stroke="currentColor" stroke-width="1.75" stroke-miterlimit="10"/>
<path d="M125.08 123.67L130.83 125.74L129.75 119.73L125.08 123.67Z" fill="currentColor"/>
<path d="M38.9102 53.2305L114.22 118.28" stroke="currentColor" stroke-width="1.75" stroke-miterlimit="10"/>
<path d="M111.55 119.999L117.55 121.149L115.54 115.379L111.55 119.999Z" fill="currentColor"/>
<path d="M17.4702 133.91L117.77 143.21" stroke="currentColor" stroke-width="1.75" stroke-miterlimit="10"/>
<path d="M116.6 146.17L122.15 143.62L117.16 140.09L116.6 146.17Z" fill="currentColor"/>
<path d="M33.2998 151.792L128.99 146.422" stroke="currentColor" stroke-width="1.75" stroke-miterlimit="10"/>
<path d="M128.27 149.522L133.38 146.172L127.93 143.422L128.27 149.522Z" fill="currentColor"/>
<path d="M163.001 16.9805L155.671 113.7" stroke="currentColor" stroke-width="1.75" stroke-miterlimit="10"/>
<path d="M152.69 112.582L155.34 118.092L158.78 113.042L152.69 112.582Z" fill="currentColor"/>
<path d="M202.83 27.1914L165.87 106.951" stroke="currentColor" stroke-width="1.75" stroke-miterlimit="10"/>
<path d="M163.47 104.852L164.02 110.942L169.01 107.422L163.47 104.852Z" fill="currentColor"/>
<path d="M236.02 62.9414L169.3 124.301" stroke="currentColor" stroke-width="1.75" stroke-miterlimit="10"/>
<path d="M167.89 121.453L166.06 127.283L172.02 125.943L167.89 121.453Z" fill="currentColor"/>
<path d="M252.36 78.2617L177.91 126.912" stroke="currentColor" stroke-width="1.75" stroke-miterlimit="10"/>
<path d="M176.99 123.871L174.23 129.321L180.33 128.981L176.99 123.871Z" fill="currentColor"/>
<path d="M284.53 108.891L187.65 136.291" stroke="currentColor" stroke-width="1.75" stroke-miterlimit="10"/>
<path d="M187.68 133.109L183.42 137.489L189.34 138.989L187.68 133.109Z" fill="currentColor"/>
<path d="M174.521 155.922L252.87 198.262" stroke="currentColor" stroke-width="1.75" stroke-miterlimit="10"/>
<path d="M173.86 159.03L170.66 153.83L176.76 153.66L173.86 159.03Z" fill="currentColor"/>
<path d="M165.63 153.84L229.89 216.64" stroke="currentColor" stroke-width="1.75" stroke-miterlimit="10"/>
<path d="M164.13 156.65L162.49 150.77L168.4 152.28L164.13 156.65Z" fill="currentColor"/>
</svg>
