<svg width="247" height="243" viewBox="0 0 247 243" fill="none" xmlns="http://www.w3.org/2000/svg">
<path d="M114.54 8.72016C116.28 32.4002 116.11 35.3002 104.32 20.4602C113.83 39.0402 111.72 54.8802 87.0699 55.5302C109.7 58.9202 109.78 62.1102 96.8399 80.3802C106.92 70.0702 103.98 74.8402 96.8599 85.5302C100.61 81.5702 100.17 83.5202 98.0999 87.9602C97.7499 89.4302 95.7699 93.3802 93.7399 97.4202C91.0399 102.8 88.2599 108.33 85.5099 113.81C82.7499 119.3 80.0299 124.73 79.3999 120.99C74.8199 135.1 72.3399 140.03 61.2399 145.4C67.8399 149 30.4099 186.23 23.3799 196.08C59.7699 161.56 29.3899 198.93 26.6699 203.36C27.4899 202.72 38.7599 187.63 28.7199 203.73C29.4599 202.62 62.4699 155.34 33.1799 203.23C37.1799 197.71 39.3299 196.33 38.7599 202.66C42.7099 192.45 43.9299 189.95 41.9999 197.26C47.3299 187.78 50.7399 173.77 55.6799 196.86C50.6999 186.82 79.0599 149.83 82.4199 152.72C80.2699 149.03 77.5299 156.59 87.2599 161.87C78.6999 155.61 77.8799 153.66 86.1999 149.18C79.6999 152.57 82.0399 153.55 91.9899 155.26C82.6999 153.06 81.0099 151.6 87.5899 146.83C80.1999 151.66 82.3499 152.66 92.8499 152.99C84.6899 151.49 89.6099 142.7 97.0699 136.03C90.5899 142.14 86.6399 150.35 94.3199 150.24C86.3499 150.42 89.9999 142.27 96.5199 136.15C90.2299 141.73 86.8099 149.34 94.5699 148.34C87.7399 148.71 92.0899 140.49 97.8499 135.2C91.1899 140.02 85.9399 147.78 93.2999 146.56C83.6099 148.3 86.5299 141.06 93.8499 135.47C86.7299 140.93 83.9999 148.05 93.5299 146.19C86.7199 147.39 92.1599 139.61 98.3499 135.16C93.1699 140 88.7399 148.16 94.8799 147.72C87.5299 148.86 90.7499 141.39 96.6199 136.08C90.6299 141.84 87.2699 149.76 94.7899 149.2C88.0999 149.47 92.2799 141.28 97.9499 135.74C91.2499 141.82 86.0299 150.56 93.4499 151.54C83.1399 151.88 80.7399 151.08 87.8599 146.26C81.2599 150.82 84.1299 151.38 93.7999 150.83C86.4799 150.17 90.6899 141.8 96.5699 136.09C90.9399 141.3 88.1799 148.57 95.3199 147.27C90.4899 147.56 95.5799 139.29 99.6899 135.3C95.3699 138.44 94.8199 139.25 99.4699 137.97C102.53 137.29 67.0899 159.07 95.5899 134.35C91.9599 138.01 93.1799 136.02 97.4099 131.68C92.0699 133.53 91.2099 132.8 94.8599 128.35C88.6899 131.39 87.0299 130.7 89.5599 124.14C89.2399 130.49 92.4299 130.92 96.8099 129.11C93.8999 132.14 92.1699 132.93 93.0799 128.78C92.5299 133.42 96.8299 132.88 100.63 131.82C101.41 132.17 101.69 131.99 100.88 131.43C97.7499 131.97 93.5199 132.13 92.4599 127.16C92.5999 131.58 97.0199 130.81 100.75 129.49C103.26 128.84 105.09 127.65 105.74 125.95C107.04 122.55 103.62 117.14 96.4099 107.34C111.26 120.75 110.94 116.61 106.99 100.49C111.9 117.92 112.97 122.38 103.48 102.94C114.48 126.8 114.91 126.75 111.25 100.54C115.51 122.13 115.66 117.56 115.72 99.1302C115.66 117.57 115.57 122.13 114.25 100.21C115.92 126.78 116.37 108.57 123.31 82.8002C118.17 104.29 119.53 99.9302 124.96 82.1802C120.31 100.41 119.74 123.55 140.58 113.59C134.02 119.03 129.85 122.82 128.02 125.64C126.19 128.46 126.71 130.3 129.36 129.92C130.86 131.65 132.9 132.82 135.51 133.4C138.38 134.16 141.83 134.33 144.27 131.95C141.7 134.14 138.83 133.89 136.91 133.03C135.61 132.63 135.26 131.62 135.83 130.18C136.13 130.81 137.35 131 138.94 130.69C141.15 130.93 143.73 130.67 145.67 128.84C144.34 131.04 142.37 131.68 140.29 131.32C139.63 132.28 138.87 132.25 138.55 131.28C138.15 133.91 138.18 135.62 138.13 135.75C140.57 137.49 142.93 137.67 144.08 134.31C142.43 138.62 139.58 139.4 136.64 138.31C136.34 138.55 135.96 136.92 136.23 133.59C135.75 137.72 135.93 140.15 135.95 140.48C138.99 142.02 141.87 141.46 143.12 136.81C141.79 141.65 140.21 143.17 137.97 142.63C141.88 144.2 145.12 143.71 145.72 138.53C145.61 143.96 142.83 144.69 138.23 142.76C140.12 143.06 140.21 140.68 139.8 135.26C139.41 140.33 138.52 142.36 136.9 141.95C139.93 143.21 142.22 142.03 143.05 136.84C142.08 141.61 139.64 142.37 136.72 140.85C137.75 140.91 138.29 138.68 138.84 134.1C139.1 138.2 139.37 139.95 138.38 139.19C142.12 140.82 144.61 139.94 145.1 134.93C144.8 140.07 142.52 141.06 138.75 139.42C140.22 140.4 140.2 138.74 139.83 134.36C139.52 139.29 138.85 141.49 137.27 141.22C140.41 142.81 142.63 141.92 143.21 136.89C141.78 141.84 140.1 143.41 137.86 142.96C141.8 144.55 145.17 144.12 145.92 139.06C145.92 144.81 144.11 146.25 139.96 145.63C145.05 147.18 147.78 146.66 147.53 142.02C149.53 147.73 148.43 149.25 143.29 149.57C149.61 150.57 151.89 150.37 151.56 148.73C153.28 151.21 152.38 152.25 147.55 154.35C153.37 153.52 155.27 153.74 155.97 156.39C158.82 155.91 206.99 221.05 211.99 228.38C211.99 224.34 132.32 115.24 219.89 231.66C121.05 93.6302 223.46 230.76 225.46 233.26C212.78 214.16 172.24 162.04 234.07 232.48C230.27 227.27 176.96 170.73 204.51 185.4C198.21 178.63 165.22 148.94 164.35 139.84C160.72 139.97 158.24 135.04 154.83 126.8C153.04 124.67 150.31 119.24 147.56 113.76C144.81 108.28 142.03 102.75 139.33 97.3602C137.3 93.3202 135.32 89.3701 135.04 88.2001C132.86 83.5601 132.39 81.7002 136.03 86.1102C129.02 74.9702 126.11 70.1002 135.32 81.4402C122.99 62.0202 122.77 58.8102 145.26 55.0502C120.75 54.7702 118.94 38.9602 122.51 18.6902C116.7 35.2402 116.28 32.3402 114.54 8.66016V8.72016Z" fill="currentColor"/>
</svg>
