<svg width="247" height="243" viewBox="0 0 247 243" fill="none" xmlns="http://www.w3.org/2000/svg">
<path d="M88.2998 138.362C97.5298 144.232 98.5498 145.092 89.8298 145.372C99.3098 146.972 104.59 152.112 98.0398 161.402C105.52 153.972 106.72 154.822 109.91 164.632C108.87 158.062 109.83 160.472 111.82 166.042C111.39 163.562 111.99 164.262 113.06 166.252C113.51 166.782 114.42 168.612 115.36 170.472C116.61 172.952 117.88 175.502 119.15 178.022C120.42 180.552 121.68 183.052 120.12 182.252C124.07 187.832 125.21 190.102 124.14 195.682C127.28 194.232 130.74 218.312 132.45 223.622C129.71 200.672 135.16 222.182 136.04 224.412C136.03 223.932 133.56 215.612 136.74 223.752C136.54 223.172 128.15 197.962 137.78 221.972C136.84 218.972 136.92 217.802 139.11 219.752C136.43 215.482 135.84 214.342 138.01 217.072C135.98 212.492 131.74 207.372 141.63 211.912C136.55 210.992 130.68 190.332 132.68 189.882C130.72 189.662 132.76 192.752 137.39 190.612C132.72 192.052 131.78 191.822 132.41 187.512C131.87 190.842 132.88 190.252 136.25 187.042C132.88 189.872 131.87 190.092 131.93 186.342C131.68 190.402 132.64 189.882 135.65 186.092C132.85 188.692 130.96 184.462 130.55 179.862C131.02 183.942 132.97 187.662 135.04 184.792C132.91 187.782 130.91 184.192 130.44 180.102C130.77 183.962 132.64 187.322 134.41 184.182C132.67 186.812 130.83 182.942 130.46 179.352C130.41 183.142 131.83 187.212 133.41 184.162C131.39 188.222 129.51 185.152 129.46 180.912C129.52 185.042 131.4 188.012 133.33 183.982C131.9 186.832 130.52 182.682 130.58 179.162C130.94 182.412 132.74 186.292 134.27 183.902C132.67 186.932 130.8 183.682 130.45 180.052C130.93 183.852 132.93 187.272 134.8 184.342C133.06 186.892 131.18 183.092 130.7 179.472C131.1 183.622 132.89 187.952 135.3 185.482C132.59 189.382 131.63 190.052 131.81 186.092C131.68 189.782 132.67 188.882 135.13 185.152C132.87 187.682 130.94 183.822 130.45 180.072C130.83 183.582 132.75 186.612 134.24 183.612C133.02 185.472 131.36 181.322 131.02 178.702C130.99 181.162 131.14 181.592 131.95 179.522C132.54 178.202 130.83 197.292 129.54 179.962C129.89 182.312 129.49 181.312 129.05 178.552C128.26 181.042 127.76 181.152 127.12 178.572C126.55 181.692 125.84 182.112 124.1 179.372C126.36 181.232 127.4 180.172 127.93 178.062C128.25 179.972 128.06 180.832 126.78 179.352C128.34 180.832 129.33 179.092 129.98 177.402C130.32 177.212 130.34 177.052 129.9 177.202C129.24 178.512 128.13 180.112 126.01 179.142C127.68 180.302 128.61 178.462 129.15 176.722C129.6 175.612 129.66 174.612 129.22 173.902C128.32 172.492 125.38 172.262 119.77 172.222C128.81 170.422 127.19 169.402 120.15 166.422C127.94 169.402 129.89 170.232 120.09 168.392C131.93 170.892 132.03 170.722 121.34 164.862C130.49 169.232 128.84 167.922 122.05 162.822C128.85 167.922 130.51 169.212 122.05 163.662C132.33 170.362 125.72 165.182 118.11 155.522C124.64 163.332 123.4 161.632 118.33 154.742C123.79 161.482 132.18 168.062 134.24 157.612C134.45 161.532 134.7 164.122 135.24 165.572C135.78 167.022 136.6 167.342 137.19 166.252C138.24 166.172 139.24 165.742 140.17 164.932C141.24 164.082 142.25 162.852 142.04 161.292C142.14 162.842 141.26 163.832 140.41 164.312C139.9 164.682 139.43 164.532 139.06 163.932C139.37 163.992 139.78 163.602 140.1 162.922C140.8 162.172 141.41 161.142 141.27 159.922C141.72 161.022 141.41 161.922 140.71 162.592C140.88 163.102 140.66 163.372 140.22 163.222C141.08 164.092 141.72 164.552 141.76 164.612C143.08 164.192 143.79 163.372 142.87 162.022C144.01 163.812 143.51 165.082 142.3 165.872C142.3 166.052 141.6 165.742 140.44 164.722C141.83 166.032 142.78 166.642 142.91 166.722C144.32 166.022 144.9 164.802 143.53 163.062C144.95 164.882 145.08 165.892 144.26 166.562C145.92 165.552 146.63 164.222 144.88 162.572C146.86 164.102 146.36 165.342 144.38 166.502C145.01 165.882 144.16 165.202 142.04 163.852C143.81 165.392 144.31 166.282 143.71 166.762C145.01 165.992 145.2 164.812 143.51 163.082C145 164.752 144.62 165.862 143.25 166.522C143.56 166.162 142.88 165.342 141.34 163.882C142.93 164.912 143.65 165.292 143.09 165.452C144.72 164.522 145.08 163.362 143.37 161.792C145.19 163.312 144.93 164.432 143.28 165.372C144.05 165.102 143.43 164.652 141.71 163.582C143.44 165.052 144.08 165.912 143.54 166.412C144.99 165.692 145.27 164.622 143.58 163.032C145.02 164.922 145.13 165.972 144.35 166.682C146.02 165.662 146.79 164.302 145.13 162.632C147.25 164.212 147.29 165.282 145.92 166.642C147.89 165.192 148.45 164.032 146.67 162.852C149.33 163.682 149.59 164.512 148.29 166.502C150.4 164.442 150.95 163.542 150.26 163.212C151.65 163.262 151.79 163.882 151.23 166.242C152.52 163.862 153.13 163.222 154.3 163.692C154.91 162.502 192.24 162.642 196.32 162.812C194.83 161.692 132.58 161.112 199.71 160.792C121.5 159.322 200.36 159.222 201.83 159.172C191.28 158.602 160.86 159.232 203.91 155.772C200.94 155.742 165.37 159.882 178.38 153.742C174.14 154.202 154.09 158.222 150.49 156.042C149.54 157.422 147.04 156.982 143.05 155.972C141.77 156.052 139.01 155.562 136.23 155.072C133.45 154.582 130.64 154.082 127.91 153.602C125.86 153.242 123.85 152.882 123.34 152.662C121.03 152.192 120.21 151.852 122.84 151.722C116.79 151.242 114.19 150.982 120.92 150.702C110.35 149.912 109.1 149.112 113.9 139.772C107.05 148.752 100.71 145.072 94.1998 138.172C98.7198 144.872 97.5298 144.232 88.2998 138.352V138.362Z" fill="currentColor"/>
<path d="M92.5898 142.85C93.6298 142.5 94.8298 142.12 95.9198 141.81C97.0098 141.5 98.1298 141.2 98.6098 141.16C99.3498 141.03 99.6498 141.1 99.0998 141.51C98.9098 141.79 97.7298 142.48 95.8398 143.47C97.3698 142.86 100.69 141.54 101.75 141.18C102.92 140.71 103.97 140.29 104.16 140.2C104.64 140.01 104.28 140.15 103.2 140.59C104.87 139.95 107.84 138.84 107.47 138.98C109.84 138.53 111.23 138.17 109.35 138.6C111.62 137.65 111.85 137.58 109.65 138.55C111.17 138.03 108.73 139.23 106.32 140.49C108.77 139.33 111.09 138.3 109.65 139.14C111.74 138.28 111.28 138.78 109.32 140.36C110.73 139.39 109.21 140.47 107.53 141.82C107.43 142.14 105.34 143.94 104.22 145.07C105.05 144.24 106.52 142.93 106.83 142.56C108.08 141.55 109.49 140.57 108.58 141.4C111.14 139.03 112.93 137.76 111.2 139.19C113.1 137.47 111.69 138.17 108.29 140.31C110.71 138.84 113.27 138.44 111.93 139.1C114.84 136.51 113.92 139.06 112.82 139.76C114.35 138.52 114.63 138.48 113.91 139.83C114.65 138.87 114.14 139.16 112.24 140.67C113.48 139.78 112.41 140.87 110.38 143.12C112.45 140.91 113.56 139.87 112.48 140.95C114.36 139.41 114.9 139.22 114.61 140.7C115.12 139.07 116.24 137.52 116.55 140.67C116.49 138.81 116.25 139.98 115.82 142.91C116.16 141.66 115.9 144.86 115.69 147.29C115.91 144.86 116.19 141.69 115.92 142.96C116.36 140.04 116.62 138.9 116.87 140.81C116.54 137.68 116.61 137.27 117.13 139.47C116.82 137.73 116.6 138.08 116.07 140.46C116.41 138.94 116.19 140.66 115.85 143.79C116.25 140.67 116.53 138.96 116.42 140.51C116.92 138.12 117.21 137.77 118.02 139.48C117.33 137.3 117.92 137.82 119.74 140.65C118.7 139 119.22 140.22 120.41 142.93C119.94 141.83 121.27 144.74 122.04 146.75C121.28 143.68 120.71 141.76 122.3 143.39C121.6 141.83 123.19 143.46 124.55 145.12C124.72 145.28 125.16 144.96 125.72 145.65C126.28 146.34 126.85 147.02 127.37 147.61C126.85 144.62 131.83 149.25 133.75 149.62C135.67 149.99 137.92 151.57 139.63 151.9C146.47 153.21 151.26 154.13 151.26 154.13L147.6 150.86C145.4 148.9 142.47 146.29 139.54 143.68C138.08 142.37 132.51 139.69 135.24 139.84C132.82 138.82 129.05 137.68 128.75 137.21C126.71 136.49 127.72 136.24 131.48 136.49C130.05 136.28 127.47 136.04 127.81 135.95C125.61 135.77 123.68 135.64 125.18 135.54C122.09 135.37 121.01 135.3 123.55 134.95C121.45 135.11 122.12 135.01 124.7 134.7C123.15 134.87 125.26 134.63 127.63 134.38C125.22 134.6 122.82 134.85 124.28 134.62C121.55 134.94 120.66 135.03 122.58 134.67C119.77 135.06 119.82 135 122.64 134.35C120.75 134.76 121.71 134.54 124.41 133.94C123.03 134.25 125.52 133.71 127.81 133.22C125.52 133.71 123.02 134.25 124.4 133.92C121.69 134.52 120.72 134.72 122.59 134.24C119.76 134.87 119.66 134.83 122.35 133.95C120.47 134.49 121.29 134.2 123.88 133.3C122.46 133.75 124.68 132.97 126.99 132.14C124.71 132.93 122.71 133.62 124.17 133.06C121.7 133.91 121.04 134.11 122.97 133.3C120.5 134.12 121.19 133.2 123.87 131.62C122.39 132.28 123.95 131.33 125.94 130.09C125.45 130.26 127.75 128.8 128.99 127.92C126.71 129.27 124.63 130.36 125.61 129.38C124.27 129.96 125.63 128.57 126.91 127.13C127.42 126.31 129.11 124.45 130.32 122.91C127.41 124.9 131.32 119.12 131.83 117.16C132.52 114.55 133.2 111.94 133.81 109.62L135.95 101.5C135.95 101.5 132.4 104.84 127.34 109.62L123.29 113.44C121.86 114.78 119.96 120.83 118.86 117.62C118.73 118.45 118.62 119.36 118.51 120.27C118.4 121.19 118.23 122.84 118.19 122.9C117.91 125.15 117.38 128.03 117.22 126.11C116.93 128.22 116.7 128.03 116.29 125.86C116.18 127.26 115.71 125.26 115.15 123.29C115.59 125.48 116.01 128.63 115.78 127.41C116.24 130.33 116.47 131.57 116.49 129.61C116.4 132.94 116.18 133.62 115.62 131.45C115.85 133.29 115.38 133.15 113.62 131.42C114.58 132.65 113.41 131.38 111.4 128.97C113.37 131.41 114.49 132.72 113.36 131.64C115.14 133.33 115.56 133.53 114.91 131.94C115.62 134.01 115.36 133.75 114.07 131.04C114.86 132.75 114.05 132.02 112.09 129.85C113.06 130.81 111.16 128.39 109.61 126.34C111.15 128.39 113.05 130.83 112.04 129.92C114 132.1 114.8 132.87 113.9 131.28C115.22 133.99 113.13 133.47 111.87 132.38C112.87 133.46 112.27 133.53 109.85 133.11C111.34 133.53 109.82 133.19 106.94 132.37C109.81 133.24 111.31 133.63 109.78 133.43C112.21 133.82 112.82 133.84 111.68 133.39C113 134.14 114.96 135.22 113.01 134.98C114.38 135.21 113.41 135.32 110.65 135.47C112.14 135.42 109.76 135.49 106.96 135.5C110.95 135.53 112.55 135.44 110.08 135.11C112.29 135.34 110.17 135.27 106.76 134.82C108.02 134.99 106.36 134.94 104.73 134.82C104.33 134.73 102.33 134.51 101.13 134.33C102.49 134.57 104.59 134.83 104.88 134.97C106.52 135.14 107.92 135.22 106.59 135.18C109.75 135.59 111.1 135.7 108.54 135.95C110.67 135.91 110.29 136.07 108.03 136.48C109.27 136.38 106.74 136.82 104.67 137.19C107.91 136.76 108.59 136.74 105.94 137.32C107.1 137.15 105.98 137.42 104.6 137.76C104.13 137.9 102.29 138.33 100.95 138.65C99.6498 139 96.5198 139.75 94.9198 140.19C97.0398 139.8 98.4298 139.61 98.7098 139.7C99.4098 139.68 99.2998 140.31 98.5798 140.64C98.1598 140.89 97.0398 141.32 95.9598 141.72C94.8798 142.12 93.6698 142.53 92.6298 142.87L92.5898 142.85Z" fill="currentColor"/>
<path d="M88.6797 143.019C99.5297 141.589 100.86 141.589 94.3497 147.409C102.64 142.539 109.98 143.089 110.94 154.409C111.9 143.909 113.36 143.789 122.11 149.249C117.1 144.889 119.37 146.109 124.48 149.109C122.56 147.489 123.47 147.639 125.56 148.469C126.25 148.589 128.12 149.399 130.03 150.219C132.58 151.319 135.2 152.449 137.79 153.569C140.39 154.689 142.96 155.799 141.26 156.189C147.87 157.919 150.21 158.929 152.97 163.889C154.45 160.759 172.57 176.979 177.29 179.949C160.44 164.129 178.44 177.109 180.55 178.239C180.23 177.879 172.99 173.099 180.67 177.289C180.14 176.979 157.51 163.049 180.32 175.249C177.67 173.559 176.98 172.599 179.91 172.699C175.11 171.159 173.93 170.659 177.34 171.359C172.84 169.159 166.3 167.969 176.79 165.079C172.3 167.639 154.53 155.579 155.77 153.959C154.13 155.049 157.68 156.109 159.85 151.489C157.2 155.589 156.33 156.019 154.04 152.319C155.77 155.219 156.16 154.119 156.68 149.489C155.92 153.819 155.29 154.639 152.92 151.739C155.34 155.009 155.74 153.999 155.61 149.159C155.14 152.949 150.97 150.919 147.7 147.669C150.68 150.489 154.57 152.079 154.31 148.559C154.6 152.219 150.76 150.759 147.77 147.919C150.5 150.659 154.09 152.029 153.43 148.489C153.78 151.619 149.88 149.839 147.3 147.329C149.69 150.269 153.4 152.469 152.65 149.119C153.71 153.529 150.3 152.379 147.54 149.159C150.24 152.289 153.59 153.359 152.48 149.019C153.21 152.119 149.49 149.829 147.28 147.099C149.64 149.359 153.52 151.169 153.15 148.359C153.87 151.709 150.35 150.429 147.75 147.869C150.56 150.469 154.29 151.799 153.84 148.359C154.14 151.429 150.26 149.729 147.57 147.269C150.54 150.189 154.7 152.359 154.96 148.919C155.39 153.649 155.09 154.779 152.68 151.629C154.95 154.539 155.13 153.209 154.62 148.779C154.51 152.169 150.55 150.449 147.76 147.899C150.31 150.349 153.72 151.429 152.94 148.179C153.2 150.389 149.26 148.269 147.32 146.489C148.88 148.389 149.26 148.629 148.56 146.519C148.17 145.129 159.13 160.849 147 148.399C148.78 149.969 147.83 149.459 145.72 147.629C146.72 150.039 146.4 150.449 144.25 148.889C145.81 151.649 145.54 152.429 142.45 151.439C145.38 151.419 145.49 149.939 144.54 147.969C146.01 149.229 146.42 149.999 144.49 149.689C146.64 149.819 146.28 147.859 145.69 146.129C145.83 145.759 145.74 145.639 145.5 146.019C145.83 147.449 146.02 149.389 143.76 150.009C145.79 149.829 145.32 147.819 144.61 146.139C144.24 144.999 143.65 144.189 142.85 143.939C141.25 143.429 138.85 145.149 134.54 148.729C140.31 141.539 138.42 141.799 131.11 144.039C139 141.319 141.02 140.699 132.33 145.589C143.01 139.889 142.98 139.699 131.02 142.079C140.84 139.549 138.73 139.599 130.25 140.059C138.73 139.589 140.84 139.519 130.79 140.709C142.97 139.229 134.58 139.509 122.54 136.999C132.56 138.789 130.52 138.279 122.21 136.259C130.72 137.909 141.38 137.559 136.24 128.229C138.92 131.099 140.77 132.919 142.12 133.689C143.47 134.459 144.3 134.169 144.05 132.959C144.8 132.219 145.29 131.249 145.49 130.039C145.76 128.699 145.75 127.109 144.59 126.049C145.66 127.169 145.63 128.499 145.29 129.409C145.14 130.019 144.69 130.209 144.01 129.979C144.29 129.829 144.35 129.259 144.16 128.539C144.21 127.519 144.02 126.339 143.13 125.489C144.18 126.039 144.52 126.929 144.42 127.899C144.88 128.179 144.88 128.529 144.45 128.699C145.67 128.819 146.46 128.749 146.52 128.769C147.26 127.599 147.27 126.509 145.7 126.069C147.72 126.709 148.16 127.999 147.74 129.379C147.86 129.509 147.12 129.729 145.58 129.689C147.49 129.799 148.61 129.649 148.76 129.629C149.39 128.189 149.05 126.879 146.88 126.429C149.14 126.909 149.88 127.599 149.69 128.639C150.31 126.799 150 125.319 147.6 125.179C150.1 125.089 150.51 126.349 149.74 128.509C149.83 127.629 148.73 127.649 146.25 127.989C148.59 128.029 149.55 128.389 149.4 129.149C149.9 127.719 149.29 126.699 146.88 126.459C149.1 126.779 149.52 127.879 148.89 129.259C148.89 128.779 147.85 128.589 145.73 128.469C147.61 128.239 148.4 128.069 148.08 128.549C148.73 126.789 148.26 125.669 145.94 125.569C148.31 125.569 148.83 126.589 148.18 128.369C148.59 127.669 147.83 127.719 145.83 128.009C148.1 128.019 149.14 128.269 149.05 129.009C149.7 127.529 149.23 126.519 146.9 126.389C149.22 126.919 149.98 127.649 149.84 128.689C150.46 126.839 150.18 125.299 147.83 125.089C150.47 124.939 151.19 125.729 151.01 127.659C151.59 125.279 151.27 124.039 149.15 124.279C151.72 123.209 152.45 123.669 152.74 126.029C153.03 123.099 152.88 122.049 152.13 122.249C153.23 121.389 153.73 121.779 154.82 123.939C154.28 121.279 154.33 120.409 155.53 120.009C155.23 118.709 183.91 94.8186 187.15 92.3186C185.29 92.4186 137.23 131.979 188.45 88.5986C127.59 137.749 187.94 86.9786 189.04 85.9986C180.59 92.3386 157.7 112.379 188.45 82.0586C186.16 83.9486 161.57 109.979 167.58 96.9186C164.63 99.9986 151.86 115.969 147.69 116.609C147.85 118.279 145.64 119.549 141.95 121.339C141.02 122.219 138.59 123.619 136.15 125.029C133.7 126.439 131.23 127.869 128.83 129.249C127.03 130.289 125.26 131.309 124.73 131.469C122.65 132.599 121.81 132.859 123.74 131.069C118.8 134.589 116.64 136.059 121.61 131.519C113.01 137.709 111.53 137.899 109.21 127.649C109.73 138.929 102.51 140.189 93.0897 139.079C100.86 141.309 99.5297 141.579 88.6897 143.009L88.6797 143.019Z" fill="currentColor"/>
<path d="M94.8498 143.688C95.4298 142.748 96.0998 141.698 96.7298 140.748C97.3598 139.798 98.0298 138.868 98.3698 138.528C98.8598 137.958 99.1298 137.808 98.9698 138.478C98.9998 138.808 98.5398 140.108 97.7298 142.068C98.5098 140.628 100.2 137.478 100.79 136.518C101.38 135.408 101.92 134.408 102.01 134.218C102.26 133.758 102.07 134.098 101.52 135.138C102.39 133.578 103.95 130.818 103.76 131.158C105.29 129.288 106.11 128.118 104.95 129.658C106.08 127.468 106.21 127.278 105.15 129.428C105.98 128.048 104.88 130.538 103.85 133.058C104.98 130.598 106.1 128.318 105.53 129.888C106.58 127.888 106.54 128.558 106.06 131.038C106.52 129.388 106.05 131.188 105.63 133.308C105.76 133.618 105.31 136.338 105.19 137.928C105.29 136.758 105.57 134.818 105.57 134.328C105.88 132.748 106.33 131.088 106.17 132.318C106.61 128.858 107.16 126.728 106.75 128.938C107.1 126.408 106.47 127.838 105.24 131.668C106.15 128.988 107.85 127.038 107.25 128.408C107.81 124.558 108.75 127.098 108.36 128.348C108.74 126.418 108.93 126.198 109.24 127.698C109.19 126.488 108.99 127.038 108.5 129.418C108.88 127.938 108.76 129.458 108.65 132.488C108.81 129.468 109 127.948 108.86 129.478C109.31 127.088 109.6 126.598 110.33 127.918C109.67 126.338 109.53 124.428 111.8 126.648C110.56 125.268 111.12 126.308 112.68 128.838C112.13 127.658 113.99 130.278 115.39 132.278C114 130.278 112.17 127.658 112.78 128.808C111.24 126.288 110.71 125.248 112.12 126.548C109.86 124.368 109.64 124.008 111.46 125.358C110.1 124.228 110.17 124.638 111.28 126.798C110.57 125.418 111.5 126.868 113.25 129.488C111.55 126.838 110.67 125.358 111.57 126.608C110.41 124.458 110.41 123.998 112.13 124.788C110.2 123.558 110.98 123.588 114.19 124.578C112.34 123.978 113.52 124.578 116.17 125.888C115.11 125.348 117.99 126.718 119.88 127.768C117.33 125.908 115.65 124.798 117.92 125.028C116.38 124.288 118.65 124.508 120.76 124.908C121 124.918 121.12 124.388 122 124.558C122.88 124.728 123.74 124.888 124.52 124.998C122.2 123.038 128.99 123.388 130.7 122.428C132.41 121.478 135.15 121.238 136.67 120.398C142.75 117.008 147.01 114.638 147.01 114.638C147.01 114.638 145.05 114.578 142.11 114.488C139.17 114.398 135.24 114.278 131.32 114.158C129.36 114.098 123.36 115.618 125.56 113.988C123.05 114.768 119.44 116.318 118.9 116.148C116.88 116.908 117.48 116.068 120.53 113.838C119.3 114.598 117.17 116.068 117.37 115.778C115.56 117.058 114 118.198 115.09 117.158C112.62 119.018 111.74 119.648 113.46 117.758C111.96 119.228 112.41 118.718 114.18 116.828C113.1 117.948 114.56 116.408 116.22 114.698C114.51 116.418 112.84 118.148 113.81 117.038C111.92 119.038 111.3 119.678 112.54 118.168C110.64 120.278 110.63 120.198 112.38 117.888C111.19 119.418 111.79 118.628 113.47 116.438C112.62 117.568 114.17 115.548 115.62 113.698C114.18 115.548 112.61 117.568 113.45 116.428C111.76 118.628 111.15 119.408 112.27 117.838C110.51 120.138 110.41 120.178 111.9 117.768C110.81 119.388 111.24 118.638 112.65 116.288C111.85 117.548 113.05 115.518 114.28 113.398C113.04 115.468 111.95 117.278 112.71 115.908C111.36 118.148 110.99 118.728 111.95 116.868C110.59 119.088 110.52 117.928 111.56 114.998C110.85 116.458 111.44 114.728 112.16 112.498C111.9 112.938 112.72 110.338 113.1 108.878C112.22 111.378 111.33 113.558 111.45 112.178C110.8 113.488 110.95 111.538 110.99 109.618C110.85 108.668 110.95 106.148 110.88 104.188C109.93 107.578 109.21 100.638 108.34 98.808C107.19 96.368 106.04 93.928 105.01 91.758L101.43 84.168C101.43 84.168 100.86 89.008 100.05 95.928C99.8498 97.658 99.6298 99.518 99.3998 101.458C99.1698 103.398 101.6 109.258 98.6898 107.508C99.1198 108.228 99.6298 108.998 100.13 109.768C100.64 110.538 101.57 111.908 101.57 111.988C102.8 113.888 104.25 116.438 102.89 115.068C104.02 116.868 103.72 116.868 102.01 115.478C102.83 116.618 101.18 115.388 99.4798 114.238C101.22 115.638 103.57 117.768 102.61 116.988C104.84 118.928 105.81 119.728 104.57 118.218C106.63 120.828 106.91 121.488 105.09 120.188C106.45 121.448 106 121.638 103.54 121.448C105.07 121.768 103.36 121.548 100.27 120.998C103.35 121.598 105.05 121.878 103.48 121.778C105.93 121.928 106.38 121.818 104.86 121.008C106.73 122.138 106.37 122.108 103.64 120.858C105.34 121.668 104.25 121.618 101.35 121.218C102.71 121.328 99.6898 120.698 97.1898 120.128C99.6898 120.708 102.71 121.358 101.35 121.308C104.25 121.718 105.36 121.788 103.65 121.158C106.4 122.388 104.47 123.328 102.8 123.308C104.26 123.488 103.85 123.928 101.72 125.168C103.13 124.528 101.75 125.248 99.0098 126.468C101.77 125.288 103.17 124.618 101.87 125.458C103.98 124.188 104.47 123.818 103.3 124.208C104.79 123.938 106.99 123.508 105.34 124.568C106.53 123.868 105.86 124.568 103.84 126.458C104.95 125.458 103.17 127.038 101.03 128.858C104.1 126.308 105.27 125.218 103.17 126.558C105.01 125.318 103.34 126.618 100.44 128.478C101.51 127.798 100.22 128.828 98.8898 129.778C98.5298 129.968 96.8598 131.088 95.8198 131.718C97.0198 131.028 98.7898 129.878 99.1098 129.798C100.47 128.868 101.6 128.028 100.55 128.858C103.23 127.138 104.34 126.358 102.54 128.198C104.14 126.798 103.96 127.158 102.49 128.928C103.37 128.058 101.72 130.018 100.37 131.628C102.58 129.218 103.08 128.768 101.42 130.908C102.2 130.028 101.52 130.958 100.67 132.108C100.4 132.518 99.2598 134.028 98.4498 135.138C97.6798 136.238 95.7698 138.828 94.8198 140.198C96.1998 138.538 97.1398 137.498 97.4098 137.388C97.9298 136.918 98.2498 137.478 97.9198 138.198C97.7598 138.658 97.1798 139.708 96.6098 140.708C96.0398 141.708 95.3798 142.798 94.7998 143.728L94.8498 143.688Z" fill="currentColor"/>
<path d="M91.96 146.338C99.35 138.268 100.37 137.408 99.13 146.048C102.35 136.988 108.33 132.688 116.34 140.748C110.32 132.088 111.37 131.058 121.58 129.618C114.93 129.498 117.46 128.978 123.3 127.988C120.79 127.988 121.58 127.508 123.72 126.798C124.32 126.448 126.28 125.868 128.27 125.268C130.93 124.468 133.66 123.658 136.37 122.848C139.08 122.038 141.76 121.238 140.71 122.628C146.89 119.708 149.32 118.978 154.63 120.998C153.75 117.648 178.06 118.428 183.59 117.668C160.51 116.378 182.65 114.758 184.99 114.268C184.52 114.198 175.89 115.188 184.47 113.458C183.86 113.558 157.58 117.438 182.89 112.118C179.77 112.528 178.63 112.238 180.94 110.428C176.27 112.328 175.05 112.708 178.11 111.048C173.25 112.258 167.47 115.548 173.65 106.588C171.86 111.428 150.49 113.618 150.4 111.578C149.84 113.468 153.25 111.998 151.94 107.058C152.55 111.908 152.15 112.798 148.02 111.428C151.21 112.538 150.8 111.438 148.23 107.568C150.43 111.378 150.47 112.408 146.79 111.708C150.74 112.658 150.4 111.618 147.19 107.998C149.27 111.208 144.77 112.338 140.17 111.938C144.27 112.178 148.27 110.908 145.81 108.368C148.39 110.988 144.5 112.338 140.39 112.088C144.25 112.428 147.88 111.178 145.09 108.888C147.37 111.058 143.24 112.198 139.65 111.938C143.37 112.648 147.63 111.958 144.9 109.868C148.55 112.568 145.19 113.878 141.01 113.188C145.09 113.848 148.34 112.518 144.71 109.908C147.27 111.818 142.94 112.448 139.49 111.778C142.75 111.988 146.89 110.888 144.8 108.968C147.5 111.068 143.98 112.348 140.35 112.068C144.18 112.258 147.89 110.878 145.33 108.528C147.54 110.688 143.47 111.878 139.82 111.728C143.98 112.058 148.56 111.038 146.54 108.238C149.91 111.588 150.4 112.648 146.54 111.778C150.16 112.548 149.44 111.408 146.19 108.348C148.29 111.008 144.15 112.248 140.37 112.078C143.9 112.318 147.21 110.948 144.51 108.958C146.13 110.488 141.75 111.398 139.12 111.278C141.54 111.738 141.98 111.668 140.08 110.508C138.89 109.698 157.39 114.698 140.09 112.958C142.46 113.018 141.41 113.238 138.62 113.188C140.93 114.398 140.96 114.908 138.31 115.098C141.28 116.208 141.57 116.978 138.58 118.208C140.81 116.308 139.94 115.098 137.95 114.208C139.88 114.228 140.7 114.558 139.02 115.558C140.75 114.278 139.21 113.008 137.65 112.068C137.52 111.698 137.37 111.658 137.44 112.108C138.61 112.988 140 114.358 138.67 116.278C140.11 114.838 138.45 113.598 136.83 112.768C135.82 112.128 134.84 111.898 134.07 112.218C132.52 112.858 131.79 115.718 130.78 121.228C130.58 112.008 129.29 113.428 125.14 119.848C129.43 112.688 130.59 110.918 127.07 120.248C131.59 109.018 131.44 108.888 123.81 118.408C129.7 110.158 128.12 111.548 121.92 117.358C128.12 111.548 129.68 110.138 122.75 117.508C131.13 108.548 124.88 114.158 114.05 119.968C122.88 114.898 120.99 115.818 113.32 119.608C120.9 115.398 128.84 108.278 118.91 104.438C122.81 104.918 125.4 105.118 126.92 104.838C128.44 104.558 128.9 103.808 127.93 103.038C128.03 101.988 127.78 100.938 127.15 99.8783C126.5 98.6783 125.46 97.4683 123.89 97.3983C125.43 97.5683 126.26 98.6083 126.58 99.5183C126.86 100.078 126.63 100.518 125.97 100.778C126.09 100.478 125.77 100.008 125.16 99.5783C124.54 98.7583 123.64 97.9783 122.41 97.9083C123.57 97.6583 124.41 98.1183 124.94 98.9283C125.47 98.8483 125.7 99.1083 125.48 99.5183C126.49 98.8183 127.05 98.2683 127.11 98.2483C126.92 96.8783 126.24 96.0383 124.75 96.7083C126.72 95.8983 127.88 96.6083 128.44 97.9383C128.61 97.9583 128.19 98.6083 126.99 99.5683C128.52 98.4283 129.28 97.5983 129.39 97.4883C128.95 95.9783 127.85 95.1983 125.89 96.2483C127.93 95.1583 128.94 95.2083 129.47 96.1383C128.76 94.3283 127.57 93.3983 125.64 94.8383C127.49 93.1583 128.62 93.8583 129.42 96.0083C128.92 95.2783 128.1 96.0083 126.41 97.8483C128.23 96.3783 129.19 96.0283 129.57 96.7083C129.03 95.2983 127.91 94.8983 125.91 96.2583C127.82 95.0783 128.84 95.6483 129.26 97.1083C128.95 96.7483 128.04 97.2683 126.33 98.5283C127.62 97.1483 128.12 96.5083 128.18 97.0683C127.54 95.2983 126.46 94.7483 124.63 96.1583C126.45 94.6383 127.5 95.0883 128.14 96.8683C128.01 96.0683 127.45 96.5983 126.1 98.1083C127.85 96.6583 128.8 96.1783 129.21 96.7983C128.75 95.2483 127.75 94.7783 125.88 96.1783C127.99 95.0983 129.05 95.1583 129.61 96.0483C128.9 94.2283 127.69 93.2283 125.76 94.5783C127.69 92.7683 128.74 92.9083 129.84 94.4983C128.75 92.2983 127.71 91.5483 126.24 93.0983C127.52 90.6183 128.38 90.5083 130.11 92.1383C128.45 89.7083 127.66 88.9983 127.22 89.6283C127.51 88.2683 128.14 88.2383 130.37 89.1983C128.25 87.5083 127.72 86.8083 128.39 85.7283C127.33 84.9283 133.94 48.1883 134.82 44.1883C133.46 45.4583 122.07 106.658 133.42 40.4983C118.39 117.268 131.99 39.5883 132.2 38.1283C129.81 48.4183 125.15 78.4883 129.22 35.4883C128.68 38.4083 126.57 74.1583 122.78 60.2783C122.5 64.5283 122.98 84.9783 120.2 88.1483C121.39 89.3183 120.52 91.7083 118.84 95.4583C118.69 96.7283 117.74 99.3583 116.77 102.018C115.8 104.678 114.83 107.358 113.88 109.958C113.17 111.918 112.47 113.828 112.16 114.288C111.29 116.488 110.82 117.228 111.15 114.618C109.63 120.488 108.92 123.008 109.81 116.338C107.2 126.608 106.19 127.698 97.82 121.348C105.47 129.658 100.75 135.258 92.82 140.468C100.2 137.188 99.36 138.248 91.98 146.308L91.96 146.338Z" fill="currentColor"/>
<path d="M97.1304 142.889C96.9704 141.799 96.8004 140.559 96.6804 139.429C96.5604 138.299 96.4604 137.149 96.5104 136.669C96.5104 135.919 96.6304 135.629 96.9404 136.249C97.1804 136.489 97.6604 137.769 98.3004 139.799C97.9704 138.189 97.2404 134.689 97.0704 133.579C96.8104 132.349 96.5804 131.239 96.5204 131.029C96.4204 130.519 96.4904 130.899 96.7404 132.049C96.4004 130.289 95.8304 127.179 95.9004 127.569C95.8704 125.149 95.7504 123.729 95.8504 125.649C95.3104 123.249 95.2804 123.009 95.8504 125.349C95.6004 123.759 96.3604 126.369 97.1804 128.959C96.4704 126.349 95.8604 123.879 96.4304 125.449C95.9504 123.239 96.3504 123.779 97.5704 125.989C96.8604 124.429 97.6604 126.109 98.7004 127.999C99.0004 128.149 100.41 130.529 101.33 131.819C100.65 130.859 99.6204 129.189 99.3104 128.809C98.5304 127.399 97.8104 125.839 98.4704 126.879C96.5804 123.949 95.6404 121.959 96.7404 123.919C95.3804 121.749 95.8204 123.259 97.3304 126.979C96.3104 124.339 96.3604 121.749 96.7704 123.189C94.7204 119.879 97.0804 121.219 97.5804 122.429C96.6304 120.709 96.6404 120.419 97.8304 121.369C97.0104 120.479 97.2104 121.019 98.3704 123.159C97.7104 121.779 98.6004 123.029 100.46 125.409C98.6404 122.989 97.8104 121.709 98.6904 122.969C97.5004 120.849 97.4004 120.289 98.8104 120.829C97.2904 120.039 95.9604 118.669 99.1104 118.909C97.2704 118.649 98.3704 119.089 101.19 120.019C100.02 119.469 103.12 120.279 105.48 120.909C103.13 120.269 100.05 119.439 101.25 119.929C98.4504 118.989 97.3704 118.529 99.2904 118.619C96.1504 118.399 95.7604 118.259 98.0204 118.129C96.2504 118.129 96.5604 118.409 98.8104 119.349C97.3804 118.749 99.0304 119.259 102.05 120.149C99.0404 119.219 97.4104 118.639 98.9204 119.019C96.6504 118.119 96.3604 117.769 98.1804 117.269C95.9104 117.569 96.5304 117.079 99.6304 115.779C97.8304 116.509 99.1204 116.219 101.99 115.509C100.83 115.779 103.92 114.979 106.04 114.569C102.89 114.789 100.89 115.009 102.77 113.729C101.12 114.149 102.99 112.859 104.87 111.809C105.06 111.669 104.82 111.179 105.6 110.749C106.38 110.319 107.15 109.879 107.81 109.459C104.78 109.449 110.2 105.349 110.9 103.519C111.6 101.689 113.55 99.7486 114.17 98.1186L118.39 87.0586L114.54 90.0986C112.23 91.9186 109.15 94.3486 106.07 96.7886C104.53 98.0086 100.92 103.019 101.54 100.359C100.11 102.569 98.3404 106.079 97.8304 106.289C96.7704 108.169 96.6904 107.139 97.6004 103.469C97.1404 104.839 96.4604 107.339 96.4304 106.989C95.8704 109.129 95.4004 111.009 95.5704 109.509C94.8704 112.519 94.6104 113.569 94.7104 111.009C94.5104 113.109 94.5204 112.419 94.6704 109.829C94.5604 111.379 94.6904 109.259 94.8704 106.889C94.6704 109.309 94.5004 111.709 94.5204 110.229C94.3604 112.979 94.2904 113.869 94.2704 111.919C94.1704 114.759 94.1104 114.699 93.9704 111.809C94.0404 113.739 94.0004 112.759 93.8704 109.989C93.9404 111.399 93.8404 108.859 93.7604 106.509C93.8404 108.849 93.9404 111.399 93.8604 109.989C93.9804 112.759 94.0104 113.749 93.8604 111.819C93.9904 114.719 93.9404 114.809 93.5304 112.009C93.7404 113.959 93.5904 113.099 93.1504 110.389C93.3504 111.869 92.9604 109.539 92.5504 107.129C92.9304 109.509 93.2604 111.599 92.9604 110.069C93.3704 112.649 93.4504 113.339 92.9904 111.289C93.3704 113.859 92.5804 113.019 91.4904 110.109C91.8904 111.679 91.2204 109.979 90.3404 107.809C90.4204 108.319 89.3804 105.799 88.7304 104.429C89.6704 106.909 90.3804 109.149 89.5804 108.019C89.9204 109.439 88.7904 107.859 87.5804 106.349C86.8604 105.709 85.3204 103.709 84.0104 102.259C85.4604 105.469 80.4504 100.619 78.6104 99.7686L71.5304 96.5086C67.1704 94.4986 63.9004 92.9986 63.9004 92.9986L70.4004 102.889C71.3604 104.349 72.3804 105.909 73.4604 107.549C74.5404 109.189 80.1604 112.109 76.8104 112.639C77.6104 112.909 78.4904 113.179 79.3604 113.439C80.2404 113.699 81.8404 114.159 81.8904 114.209C84.0604 114.869 86.8004 115.889 84.8804 115.719C86.9104 116.369 86.6804 116.569 84.4704 116.599C85.8304 116.949 83.7804 117.059 81.7404 117.279C83.9804 117.229 87.1404 117.359 85.9104 117.369C88.8704 117.419 90.1304 117.409 88.2004 117.049C91.4604 117.719 92.0904 118.049 89.8604 118.219C91.7104 118.309 91.4904 118.749 89.4804 120.179C90.8604 119.449 89.4104 120.379 86.6904 121.939C89.4404 120.419 90.9204 119.549 89.6504 120.469C91.6204 119.009 91.8904 118.639 90.2104 118.999C92.3704 118.659 92.0804 118.869 89.1804 119.669C91.0004 119.189 90.1404 119.859 87.6604 121.419C88.7704 120.629 86.0604 122.089 83.7704 123.249C86.0604 122.089 88.7904 120.649 87.7204 121.479C90.2104 119.929 91.1004 119.269 89.3904 119.889C92.2904 119.059 91.4104 121.029 90.1204 122.079C91.3604 121.279 91.3204 121.879 90.4904 124.199C91.1604 122.799 90.5604 124.239 89.2604 126.939C90.6204 124.259 91.2604 122.849 90.8004 124.329C91.6004 121.999 91.7404 121.409 91.0904 122.449C92.0604 121.279 93.4604 119.539 92.8904 121.409C93.3504 120.109 93.2904 121.069 92.9604 123.819C93.1704 122.339 92.8204 124.689 92.3504 127.459C93.0704 123.529 93.2604 121.949 92.5104 124.319C93.1204 122.179 92.6804 124.249 91.6504 127.539C92.0304 126.329 91.7004 127.949 91.3004 129.529C91.1404 129.909 90.5804 131.839 90.1904 132.989C90.6704 131.689 91.2804 129.669 91.4804 129.399C91.9304 127.809 92.2504 126.449 91.9804 127.749C92.9304 124.709 93.2804 123.399 93.0804 125.969C93.4104 123.869 93.5004 124.259 93.5104 126.559C93.6204 125.329 93.6204 127.889 93.6204 129.989C93.7604 126.719 93.8604 126.049 93.9704 128.759C94.0004 127.579 94.0804 128.739 94.1704 130.159C94.2304 130.649 94.3304 132.539 94.4104 133.899C94.5304 135.239 94.7304 138.449 94.8804 140.109C94.8704 137.959 94.9204 136.549 95.0504 136.289C95.1504 135.599 95.7504 135.819 95.9604 136.579C96.1304 137.029 96.3604 138.209 96.5704 139.349C96.7804 140.489 96.9704 141.739 97.1304 142.829V142.889Z" fill="currentColor"/>
<path d="M96.6101 146.772C97.0801 135.842 97.3201 134.522 101.92 141.942C98.5601 132.932 100.38 125.792 111.7 126.822C101.53 124.062 101.66 122.592 108.56 114.922C103.39 119.102 104.99 117.072 108.83 112.562C106.9 114.172 107.21 113.302 108.39 111.382C108.63 110.732 109.75 109.022 110.89 107.282C112.42 104.962 113.98 102.582 115.53 100.222C117.09 97.8619 118.62 95.5219 118.71 97.2619C121.56 91.0519 122.96 88.9319 128.33 87.0619C125.5 85.0619 144.63 70.0319 148.37 65.9019C129.86 79.7419 145.77 64.2719 147.26 62.3919C146.85 62.6419 140.88 68.9419 146.34 62.1119C145.94 62.5819 128.3 82.4519 144.27 62.1019C142.14 64.4119 141.08 64.9319 141.69 62.0619C139.34 66.5219 138.64 67.6019 139.92 64.3619C136.97 68.4119 134.66 74.6419 133.64 63.8119C135.38 68.6719 120.42 84.0819 119.04 82.5819C119.83 84.3919 121.49 81.0719 117.31 78.1319C120.89 81.4519 121.16 82.3919 117.11 84.0019C120.27 82.8019 119.25 82.2219 114.79 80.9119C118.92 82.4119 119.62 83.1819 116.35 85.0019C119.99 83.1919 119.06 82.6119 114.27 81.9019C117.92 83.0219 115.2 86.7819 111.43 89.4319C114.72 86.9819 116.97 83.4319 113.45 83.0719C117.11 83.4219 115 86.9519 111.69 89.4019C114.87 87.1819 116.84 83.8919 113.23 83.9219C116.38 84.1119 113.94 87.6519 111.02 89.7619C114.33 87.9119 117.15 84.6419 113.71 84.8019C118.24 84.5219 116.51 87.6819 112.86 89.8419C116.41 87.7219 118.04 84.6119 113.58 84.9519C116.76 84.7719 113.86 88.0419 110.78 89.7419C113.41 87.8119 115.87 84.3019 113.04 84.1819C116.46 84.0519 114.59 87.3019 111.62 89.4219C114.67 87.1019 116.63 83.6619 113.16 83.5119C116.24 83.7419 113.88 87.2719 110.99 89.5019C114.38 87.0819 117.24 83.3619 113.89 82.5119C118.63 82.9119 119.68 83.4019 116.17 85.2319C119.43 83.5019 118.15 83.0919 113.7 82.8219C117.02 83.5119 114.64 87.1219 111.64 89.4219C114.49 87.3419 116.15 84.1619 112.81 84.3719C115.03 84.5019 112.26 88.0119 110.17 89.6119C112.31 88.4119 112.61 88.0719 110.41 88.4019C108.97 88.5519 126.36 80.4819 111.99 90.2619C113.85 88.7819 113.18 89.6319 111.01 91.3919C113.56 90.8319 113.91 91.2119 112 93.0519C114.99 91.9919 115.71 92.3919 114.2 95.2619C114.69 92.3719 113.25 92.0119 111.15 92.6019C112.64 91.3719 113.48 91.1019 112.84 92.9519C113.34 90.8619 111.34 90.8719 109.55 91.1519C109.21 90.9519 109.07 91.0219 109.41 91.3219C110.87 91.2419 112.82 91.3919 113.03 93.7219C113.2 91.6919 111.14 91.8119 109.36 92.2119C108.17 92.3719 107.27 92.8219 106.89 93.5619C106.11 95.0419 107.39 97.7119 110.16 102.582C104.08 95.6519 104.01 97.5619 104.95 105.152C103.64 96.9119 103.38 94.8119 106.69 104.222C102.94 92.7119 102.73 92.7119 103.01 104.902C102.22 94.7919 101.91 96.8719 100.89 105.312C101.91 96.8719 102.19 94.7919 101.62 104.892C102.28 92.6419 101.1 100.952 96.5401 112.372C100.04 102.812 99.1901 104.732 95.7501 112.572C98.8501 104.482 100.36 93.9219 90.2801 97.3619C93.5701 95.2219 95.6901 93.7119 96.6701 92.5219C97.6501 91.3319 97.5201 90.4619 96.2901 90.4919C95.6901 89.6219 94.8301 88.9719 93.6601 88.5719C92.3901 88.0719 90.8201 87.8119 89.5701 88.7719C90.8601 87.9119 92.1601 88.1719 93.0001 88.6719C93.5701 88.9219 93.6801 89.4019 93.3401 90.0319C93.2401 89.7319 92.6901 89.5719 91.9501 89.6319C90.9501 89.4019 89.7601 89.3819 88.7701 90.1219C89.5001 89.1819 90.4301 89.0019 91.3701 89.2719C91.7201 88.8719 92.0701 88.9219 92.1601 89.3819C92.4901 88.2019 92.5601 87.4119 92.5901 87.3619C91.5701 86.4319 90.5001 86.2319 89.7901 87.7019C90.7801 85.8219 92.1201 85.6119 93.4101 86.2719C93.5601 86.1819 93.6501 86.9419 93.3501 88.4519C93.7901 86.5919 93.8401 85.4619 93.8501 85.3119C92.5401 84.4419 91.2001 84.5419 90.3701 86.6119C91.2401 84.4719 92.0401 83.8519 93.0401 84.2219C91.3401 83.2919 89.8301 83.3419 89.2701 85.6819C89.6101 83.2019 90.9201 83.0119 92.9201 84.1519C92.0701 83.9119 91.9001 84.9919 91.8001 87.5019C92.2501 85.2019 92.7601 84.3219 93.4901 84.5919C92.1701 83.8519 91.0601 84.2719 90.4001 86.6019C91.1001 84.4719 92.2601 84.2519 93.5101 85.1019C93.0401 85.0219 92.6701 86.0119 92.1801 88.0719C92.2801 86.1819 92.2501 85.3719 92.6601 85.7619C91.0401 84.8219 89.8501 85.0819 89.3501 87.3519C89.7601 85.0219 90.8601 84.6819 92.5001 85.6319C91.8801 85.1019 91.8001 85.8619 91.7401 87.8919C92.1501 85.6519 92.5701 84.6819 93.2801 84.8919C91.9301 84.0019 90.8601 84.2819 90.3301 86.5519C91.2501 84.3619 92.1001 83.7319 93.1001 84.0619C91.3801 83.1219 89.8201 83.1419 89.2001 85.4119C89.5101 82.7819 90.4101 82.2219 92.2801 82.7219C90.0401 81.7419 88.7601 81.8319 88.6201 83.9719C88.0101 81.2519 88.6001 80.6119 90.9701 80.7419C88.1301 79.9519 87.0701 79.9119 87.1401 80.6819C86.4901 79.4519 86.9501 79.0219 89.2701 78.3219C86.5601 78.3919 85.7001 78.1919 85.5301 76.9319C84.2001 77.0019 65.6501 44.6019 63.7501 40.9819C63.5301 42.8319 94.1401 97.0319 60.3101 39.0519C98.1401 107.522 58.6301 39.2719 57.8501 38.0219C62.6301 47.4419 78.3901 73.4719 53.8701 37.9219C55.3301 40.5119 76.7001 69.2419 64.8801 61.0519C67.4001 64.4919 80.9101 79.8419 80.8201 84.0519C82.4901 84.1819 83.3601 86.5719 84.4801 90.5319C85.1901 91.6019 86.1401 94.2319 87.1101 96.8919C88.0801 99.5519 89.0501 102.232 90.0001 104.842C90.7101 106.802 91.4101 108.712 91.4701 109.262C92.2201 111.502 92.3301 112.382 90.9101 110.162C93.5201 115.642 94.5901 118.022 90.9901 112.342C95.5901 121.892 95.5201 123.372 85.0301 123.882C96.2301 125.322 96.2101 132.662 93.4901 141.742C97.0301 134.482 97.0701 135.832 96.6001 146.762L96.6101 146.772Z" fill="currentColor"/>
<path d="M98.3501 140.81C97.5301 140.08 96.6001 139.23 95.7901 138.45C94.9801 137.67 94.1601 136.84 93.8901 136.45C93.4101 135.87 93.3201 135.58 93.9501 135.85C94.2801 135.88 95.4801 136.55 97.2701 137.69C95.9801 136.67 93.1801 134.46 92.3301 133.71C91.3401 132.94 90.4501 132.23 90.2701 132.11C89.8601 131.79 90.1601 132.03 91.0901 132.75C89.7001 131.62 87.2601 129.61 87.5601 129.86C85.9901 128.03 84.9801 127.01 86.2901 128.43C84.3301 126.94 84.1601 126.78 86.1001 128.19C84.8901 127.13 87.1401 128.65 89.4501 130.1C87.2201 128.56 85.1701 127.06 86.6201 127.89C84.8301 126.51 85.4901 126.66 87.8401 127.57C86.3001 126.83 87.9901 127.61 90.0001 128.39C90.3201 128.31 92.9301 129.23 94.4701 129.63C93.3301 129.33 91.4701 128.71 90.9901 128.63C89.4901 128.05 87.9301 127.32 89.1101 127.69C85.7801 126.66 83.7801 125.74 85.8801 126.53C83.4401 125.74 84.7501 126.62 88.3001 128.49C85.8201 127.12 84.2001 125.11 85.4301 125.95C81.7301 124.73 84.4001 124.25 85.5601 124.85C83.7201 124.14 83.5501 123.92 85.0701 123.87C83.8701 123.71 84.3801 124 86.6301 124.9C85.2401 124.27 86.7201 124.65 89.6801 125.28C86.7401 124.6 85.2701 124.15 86.7501 124.55C84.4801 123.69 84.0401 123.32 85.4701 122.83C83.8001 123.2 81.9001 123.01 84.4701 121.17C82.8901 122.15 84.0201 121.78 86.7801 120.69C85.5301 121.02 88.4301 119.65 90.6301 118.61C88.4201 119.63 85.5301 120.98 86.7601 120.57C84.0101 121.65 82.8901 121.99 84.4201 120.83C81.8801 122.68 81.4901 122.83 83.1301 121.27C81.7801 122.41 82.1901 122.42 84.5201 121.7C83.0401 122.16 84.6301 121.49 87.5201 120.23C84.6201 121.45 83.0001 122.06 84.3901 121.38C82.0701 122.15 81.6201 122.07 82.7001 120.51C81.1601 122.2 81.3201 121.43 82.8501 118.44C81.9401 120.16 82.7401 119.1 84.4901 116.72C83.7801 117.67 85.6201 115.07 86.9901 113.4C84.7201 115.59 83.3301 117.05 83.9501 114.86C82.9501 116.24 83.5601 114.05 84.3201 112.05C84.3801 111.82 83.8701 111.6 84.1901 110.77C84.5101 109.94 84.8201 109.11 85.0601 108.36C82.7301 110.3 84.2501 103.68 83.6101 101.83C82.9701 99.9802 83.2101 97.2402 82.6401 95.6002C80.3601 89.0202 78.7601 84.4102 78.7601 84.4102L77.7601 89.2102C77.1601 92.0902 76.3601 95.9402 75.5701 99.7802C75.1701 101.7 75.6301 107.87 74.4001 105.42C74.7301 108.03 75.6301 111.86 75.3701 112.35C75.7701 114.48 75.0401 113.73 73.3801 110.34C73.9101 111.68 74.9901 114.04 74.7401 113.79C75.6801 115.79 76.5401 117.53 75.7001 116.27C77.1001 119.03 77.5701 120 76.0001 117.98C77.1901 119.72 76.7701 119.18 75.2101 117.11C76.1301 118.37 74.8601 116.66 73.4701 114.73C74.8701 116.71 76.2801 118.66 75.3501 117.51C76.9901 119.72 77.5201 120.44 76.2401 118.96C77.9901 121.2 77.9101 121.19 75.9401 119.07C77.2401 120.5 76.5701 119.78 74.7001 117.74C75.6601 118.78 73.9501 116.89 72.3801 115.15C73.9501 116.89 75.6701 118.78 74.6901 117.76C76.5601 119.81 77.2201 120.54 75.8701 119.16C77.8301 121.3 77.8501 121.4 75.7401 119.52C77.1501 120.88 76.4901 120.32 74.4101 118.52C75.5101 119.52 73.7201 117.99 71.8501 116.41C73.6701 117.99 75.2701 119.38 74.0501 118.39C76.0301 120.11 76.5301 120.58 74.8601 119.31C76.8101 121.04 75.6601 120.9 72.9501 119.37C74.2601 120.32 72.6601 119.45 70.5901 118.34C70.9801 118.68 68.5601 117.42 67.1901 116.79C69.5001 118.09 71.4901 119.35 70.1501 118.99C71.3201 119.85 69.4401 119.38 67.5501 118.99C66.5901 118.96 64.1201 118.42 62.1901 118.15C65.3701 119.68 58.4101 119.18 56.4501 119.72C53.8501 120.43 51.2401 121.14 48.9301 121.77L40.8301 123.98C40.8301 123.98 45.5001 125.38 52.1701 127.38C53.8401 127.88 55.6301 128.42 57.5101 128.98C59.3901 129.54 65.5701 128.17 63.3501 130.73C64.1401 130.43 64.9801 130.07 65.8201 129.71C66.6701 129.34 68.1801 128.67 68.2601 128.67C70.3501 127.79 73.1101 126.8 71.5201 127.9C73.4901 127.1 73.4401 127.4 71.7701 128.83C73.0401 128.22 71.5401 129.63 70.1101 131.11C71.7901 129.63 74.3001 127.7 73.3601 128.5C75.6601 126.64 76.6201 125.82 74.9101 126.78C77.8401 125.2 78.5401 125.05 76.9401 126.61C78.4201 125.49 78.5301 125.97 77.9101 128.36C78.4901 126.91 77.9801 128.56 76.9001 131.5C78.0301 128.57 78.6001 126.95 78.2301 128.47C78.8001 126.08 78.7701 125.62 77.7101 126.98C79.1501 125.33 79.0601 125.68 77.3501 128.16C78.4401 126.62 78.2101 127.69 77.3101 130.48C77.6501 129.16 76.5101 132.02 75.5101 134.38C76.5201 132.02 77.6801 129.16 77.3901 130.49C78.3001 127.7 78.5601 126.63 77.6401 128.2C79.3301 125.7 79.9201 127.77 79.6001 129.41C80.0301 128 80.3901 128.49 81.2401 130.8C80.8601 129.3 81.3201 130.78 82.0501 133.69C81.3701 130.77 80.9501 129.27 81.5501 130.7C80.6701 128.4 80.3901 127.86 80.5601 129.07C80.5601 127.56 80.5101 125.32 81.2701 127.12C80.7801 125.82 81.3601 126.6 82.8701 128.92C82.0801 127.65 83.3301 129.68 84.7501 132.1C82.7801 128.63 81.9001 127.29 82.8601 129.6C81.9601 127.57 82.9501 129.44 84.2701 132.62C83.7901 131.45 84.5801 132.9 85.2801 134.37C85.4001 134.76 86.2101 136.6 86.6601 137.73C86.1901 136.43 85.3601 134.48 85.3401 134.16C84.6601 132.65 84.0301 131.4 84.6601 132.58C83.4301 129.64 82.8601 128.41 84.3501 130.51C83.2501 128.69 83.5701 128.93 85.0601 130.68C84.3501 129.66 86.0001 131.63 87.3501 133.23C85.3601 130.64 85.0001 130.06 86.8301 132.07C86.1001 131.15 86.9001 131.98 87.8801 133.02C88.2401 133.36 89.5301 134.74 90.4701 135.73C91.4201 136.68 93.6401 139.01 94.8201 140.19C93.4301 138.55 92.5601 137.44 92.5001 137.15C92.1301 136.56 92.7301 136.34 93.3801 136.79C93.8001 137.03 94.7401 137.78 95.6201 138.52C96.5001 139.26 97.4601 140.09 98.2801 140.83L98.3501 140.81Z" fill="currentColor"/>
</svg>
