<svg width="135" height="132" viewBox="0 0 135 132" fill="none" xmlns="http://www.w3.org/2000/svg">
<path d="M35.508 40.8305C35.7902 41.3606 36.9838 41.9807 37.9139 42.5512C38.6022 43.0689 39.5602 43.6363 40.3849 44.1789C41.2127 44.7214 42.2854 45.2919 42.8497 45.8221C43.8883 46.377 45.0696 46.9041 45.2897 47.5056C46.5887 47.9737 47.615 48.4357 47.6956 49.2418C49.0504 49.4991 49.8751 49.9858 50.0487 51.0524C51.2455 51.0741 52.0578 51.7624 52.3368 52.9467C53.3723 52.8971 54.2032 53.7993 54.5443 54.9371C54.845 54.4008 54.8543 54.4101 54.5536 54.9464C54.8543 54.4101 54.8605 54.4225 54.5629 54.9557C55.0527 54.6364 55.2512 55.0642 55.0186 55.8176C55.3969 55.6316 55.4279 56.0843 55.0806 56.7632C55.4031 56.3664 55.121 56.0719 54.7985 56.4935C55.3752 56.0409 55.6883 56.0254 55.6542 56.4563C56.2154 56.0626 56.5626 56.199 56.5316 56.7384C57.0587 56.5307 57.2726 56.9307 57.0773 57.498C57.4462 57.4453 57.5051 57.8236 57.2261 58.3506C57.5206 58.0809 57.2075 57.8856 56.9068 58.1677C57.3935 57.7988 57.6167 57.7058 57.564 57.9476C58.0508 57.6314 58.3391 57.6748 58.3081 58.0499C58.7608 57.9042 58.9375 58.1429 58.8228 58.5646C59.1576 58.4995 59.2506 58.7351 59.1049 59.1722C59.3188 58.9242 59.1266 58.8033 58.9003 59.0513C59.3964 58.7661 59.6878 58.856 59.725 59.2342C60.1125 59.104 60.2924 59.2652 60.3451 59.7055C60.6365 59.5753 60.7977 59.7458 60.8876 60.2171C60.962 59.9008 61.4767 60.3597 61.4488 60.7007C61.4767 60.3597 63.5757 62.3005 63.678 62.6539C63.5757 62.3036 63.5012 62.4028 63.6005 62.7563C63.5043 62.4028 63.1943 62.1517 63.278 62.5082C63.1416 62.1114 63.0889 62.0618 63.1168 62.3904C63.0393 62.0277 63.0238 62.0184 63.1013 62.3811C63.0238 62.0184 63.03 62.0184 63.1075 62.3811C63.0331 62.0184 63.03 62.0184 63.1075 62.3811C63.0331 62.0184 63.0517 62.0215 63.1478 62.3625C63.0858 61.975 63.0734 61.9564 63.1509 62.3129C63.0972 62.0711 63.0972 62.0711 63.1509 62.3129C63.0703 61.9502 63.1013 61.9843 63.1819 62.347C63.1013 61.9843 63.1695 62.0556 63.2563 62.4152C63.1726 62.0556 63.1168 62.1207 63.1974 62.4834C63.1168 62.1238 63.0424 62.0556 63.1199 62.4183C63.0424 62.0556 63.0052 62.0184 63.0796 62.3811C62.999 62.0122 62.9928 62.006 63.0641 62.3594C62.9866 61.9905 62.9773 61.9688 63.0703 62.3067C63.0145 61.9223 63.03 61.9254 63.1137 62.285C63.0362 61.9223 63.0424 61.9254 63.123 62.285C63.0424 61.9223 63.061 61.9285 63.1416 62.2912C63.061 61.9285 63.0889 61.944 63.1695 62.3067C63.1447 61.9781 63.2005 62.0246 63.3431 62.4183C63.2532 62.0587 63.5757 62.2974 63.678 62.6508C63.5757 62.3005 63.5012 62.3997 63.6005 62.7532C63.5043 62.3997 61.3093 60.5581 61.269 60.9053C61.3093 60.5581 60.776 60.1147 60.6892 60.4403C60.6024 59.9628 60.4381 59.7985 60.1342 59.9535C59.9327 59.3707 59.5514 59.104 58.9623 59.4234C59.1824 59.1691 59.046 59.1939 58.8166 59.4482C59.046 59.1939 58.9933 59.0513 58.7577 59.3025C58.8569 58.7103 58.6492 58.2886 58.1252 58.4126C58.1252 58.0251 57.7284 58.1367 57.1083 58.5615C57.409 58.2979 57.1269 58.4529 56.8169 58.7103C57.1269 58.4529 57.0959 58.1057 56.7889 58.3785C57.0556 57.6438 56.8913 56.9803 56.2681 57.126C56.4076 56.6671 56.1565 56.5741 55.6232 56.94C55.7162 56.5493 55.431 56.571 54.8729 56.9834C55.1985 56.602 54.8946 56.6485 54.566 57.0268C54.8946 56.6485 54.9163 56.3106 54.5908 56.7136C54.938 56.0657 54.9132 55.6936 54.5319 55.9417C54.7923 55.2565 54.6497 54.9433 54.1784 55.2906C54.4978 54.7728 54.5164 54.7914 54.197 55.3092C53.8746 54.1899 53.0468 53.3094 51.9958 53.3435C51.7167 52.1716 50.9076 51.4926 49.7263 51.4585C49.5372 50.3889 48.7187 49.899 47.3979 49.6417C47.2894 48.8108 46.2818 48.3458 45.0293 47.8745C44.7781 47.242 43.631 46.7088 42.6327 46.1383C42.0529 45.5771 41.0267 44.9912 40.2237 44.4176C39.4207 43.844 38.4813 43.2394 37.824 42.6783C37.3093 42.3527 36.7172 42.0396 36.649 41.773C36.3544 41.7203 35.0523 40.7716 35.5173 40.8181L35.508 40.8305Z" fill="currentColor"/>
<path d="M62.4351 62.9363C62.401 62.5735 64.1682 62.9952 64.2829 63.3238C64.1682 62.9952 63.5698 61.1846 63.6969 61.5318C63.5729 61.1846 62.4041 62.5735 62.4382 62.9363H62.4351Z" fill="currentColor"/>
<path d="M27.7783 45.7524C28.4201 45.4609 29.4711 46.1957 30.7144 47.0731C31.3096 46.9863 32.5591 47.7211 33.7124 48.2234C34.0442 48.2234 34.7045 48.5086 35.2378 48.8217C35.6688 49.0357 36.1772 49.3395 36.6547 49.5875C37.6003 50.0898 38.5583 50.5703 39.5194 51.0447C40.4805 51.5159 41.485 51.9624 42.4214 52.4306C43.4228 52.8646 44.5544 53.1994 45.345 53.773C45.5124 53.6335 47.0626 54.1668 48.281 55.1C49.9087 55.4503 51.4899 56.0766 51.2171 56.4269C51.4899 56.0766 51.5023 56.0797 51.2264 56.4331C51.5023 56.0828 51.5085 56.0859 51.2326 56.4362C51.9116 56.3153 52.3983 56.6409 52.4665 57.295C52.9347 57.1586 53.13 57.4656 52.9099 58.0205C53.2292 57.9182 53.1982 58.1538 52.8758 58.5011C53.0959 58.4391 52.9843 58.6158 52.6464 58.8824C52.8944 58.7181 52.7549 58.312 52.5006 58.5042C53.3533 58.3988 54.0849 58.4856 54.3609 58.8421C55.2569 58.7584 55.9452 58.963 56.1715 59.4777C56.7544 59.4033 57.0303 59.6141 56.959 60.0668C57.4705 60.0544 57.6442 60.321 57.5325 60.8636C58.0658 61.1395 58.1495 61.803 58.0658 62.6959C58.2425 62.3951 58.0379 62.3579 57.855 62.6525C58.1712 62.1626 58.3417 61.9208 58.3014 62.0448C58.6456 61.5487 58.8285 61.3255 58.8502 61.5084C59.1354 61.1178 59.2595 61.0403 59.2284 61.3596C59.5292 61.0155 59.6656 61.0682 59.6191 61.4867C59.957 61.3069 60.0624 61.5456 60.0624 62.1099C60.1679 61.7534 60.0966 61.7968 59.9849 62.1502C59.9849 61.5983 59.864 61.372 59.5447 61.5859C59.6036 61.1829 59.5044 61.1519 59.2409 61.5022C59.306 61.1798 59.2036 61.2511 58.9401 61.6418C58.9401 61.4495 58.7727 61.6697 58.4534 62.1688C58.4968 62.0386 58.3417 62.2804 58.0441 62.7827C58.2177 62.4819 58.0627 62.7362 57.8922 63.0276C58.0596 62.7362 58.0131 62.4478 57.8333 62.7393C57.8953 61.8712 57.7868 61.2418 57.2566 61.0124C57.2411 60.2497 56.804 59.8497 55.9917 59.8094C55.7963 59.3413 55.1391 59.1832 54.2648 59.2545C53.9888 58.9475 53.2633 58.8948 52.4324 58.9661C52.665 58.8173 52.2309 58.7739 52.0201 58.9134C52.234 58.7739 52.5286 58.4143 52.2898 58.5879C52.6557 58.2592 52.7394 58.0422 52.4417 58.1228C52.6743 57.7477 52.541 57.5276 52.1255 57.6485C52.0883 57.0997 51.6232 56.8083 50.9846 56.8827C51.2264 56.5913 51.245 56.6006 51.0032 56.892C50.3056 56.182 49.1802 55.7759 48.0609 55.5867C47.2641 54.9264 46.2069 54.6039 45.1218 54.266C44.2754 53.7234 43.1809 53.3607 42.1981 52.9049C41.2277 52.443 40.2604 51.9686 39.3055 51.4756C38.3475 50.9858 37.3957 50.4804 36.4593 49.9503C35.9881 49.6898 35.4827 49.3736 35.0611 49.1473C34.5805 48.8434 33.9636 48.5551 33.6101 48.521C32.4754 47.9939 31.2383 47.1971 30.6462 47.2343C29.4308 46.3166 28.3922 45.5229 27.7814 45.7555L27.7783 45.7524Z" fill="currentColor"/>
<path d="M59.0215 62.2487C59.1765 61.917 60.5934 63.03 60.5314 63.3803C60.5934 63.03 60.829 61.1481 60.7577 61.5077C60.829 61.1481 59.1765 61.917 59.0215 62.2487Z" fill="currentColor"/>
<path d="M28.2629 76.4696C28.3156 76.8385 28.3652 77.2229 28.5326 77.5485C28.576 77.626 28.6349 77.6973 28.7062 77.7221C28.7775 77.7469 28.8612 77.7221 28.9325 77.6756C29.0814 77.5826 29.2054 77.44 29.3232 77.3005C29.5588 77.0152 29.7696 76.7052 29.9867 76.3982C30.2006 76.0913 30.4207 75.7844 30.6501 75.4836L30.7804 75.3131L30.8517 75.527C30.8982 75.6635 30.9726 75.7627 31.0873 75.7844C31.202 75.8123 31.3508 75.7782 31.4934 75.7317C31.7818 75.6325 32.067 75.4681 32.346 75.3069C32.9103 74.9814 33.4467 74.6 34.1071 74.3582C35.372 73.9738 36.6184 73.5955 37.8802 73.2266L39.7559 72.6561L40.6922 72.3709C40.9992 72.281 41.3278 72.1569 41.6627 72.0887C42.3292 71.9399 43.002 71.9058 43.6469 71.8531C44.2949 71.8004 44.9211 71.7167 45.5102 71.5121L45.4916 71.5183C45.9753 71.3043 46.3969 70.9633 46.7287 70.5355C47.0635 70.1076 47.3208 69.6115 47.5285 69.0907L47.6433 68.8085L47.9006 68.9636C48.437 69.2922 48.995 69.565 49.581 69.7697C50.1639 69.965 50.7715 70.0735 51.3823 70.0487C51.9931 70.027 52.6007 69.8968 53.1929 69.6891C53.7851 69.4906 54.3649 69.2364 54.9353 68.9605L55.0221 68.9171L55.1089 68.9543C55.7011 69.2147 56.4235 69.2054 57.1056 69.1496C57.8032 69.0783 58.5038 68.9078 59.1859 68.8054C59.1952 68.7682 60.2401 68.5233 61.2725 68.3931C62.3142 68.1141 63.3466 67.8877 63.359 67.9807C63.3466 67.8877 63.3652 67.9777 63.3776 68.0645C63.3652 67.9777 62.3421 68.2567 61.3097 68.5729C60.2835 68.7651 59.251 69.0721 59.2417 69.0814C58.5628 69.2333 57.8528 69.4038 57.1366 69.4937C56.4235 69.5712 55.6701 69.6177 54.9384 69.3294H55.1089C54.5354 69.6239 53.9494 69.903 53.3324 70.1262C52.7155 70.3463 52.0613 70.4983 51.3916 70.5262C50.7219 70.5603 50.046 70.4455 49.4136 70.2378C48.7873 70.027 48.1858 69.7387 47.6278 69.4038L47.9967 69.2767C47.7797 69.8286 47.5099 70.3711 47.1379 70.8579C46.7659 71.3415 46.276 71.7663 45.6962 72.0081L45.6838 72.0143H45.6745C45.0203 72.2376 44.3383 72.3213 43.6779 72.3678C43.0175 72.4143 42.3757 72.4422 41.7588 72.5755C41.4487 72.6344 41.1604 72.7429 40.838 72.8328L39.8923 73.1119L38.0011 73.6699L34.2125 74.7023C33.6265 74.8946 33.0684 75.2573 32.4918 75.5704C32.2003 75.7286 31.9089 75.8898 31.5741 75.9952C31.4066 76.0417 31.2206 76.0882 31.016 76.0324C30.9137 76.0076 30.8176 75.9394 30.7525 75.8588C30.6843 75.7782 30.6532 75.6852 30.6253 75.5953L30.8269 75.6356C30.5881 75.9208 30.3556 76.2153 30.1262 76.513C29.8968 76.8106 29.6704 77.1113 29.4162 77.3935C29.286 77.533 29.1558 77.6725 28.9791 77.7748C28.8922 77.8213 28.7775 77.8585 28.6721 77.8182C28.5667 77.7748 28.5078 77.6818 28.4644 77.595C28.3094 77.2384 28.2908 76.8571 28.2598 76.4851L28.2629 76.4696Z" fill="currentColor"/>
<path d="M63.3001 68.9941C63.2908 69.0282 64.6674 67.6268 64.6922 67.7198C64.6705 67.6299 62.8785 67.0005 62.894 67.1525C62.8785 67.0005 63.2939 69.0282 63.3032 68.9941H63.3001Z" fill="currentColor"/>
<path d="M44.2979 102.549C45.0946 101.33 45.9224 100.131 46.7378 98.9277L49.1778 95.3095C49.9808 94.0973 50.7807 92.8851 51.531 91.6449C51.8999 91.0217 52.2658 90.3986 52.5789 89.7537C52.7526 89.4189 53.1339 88.9073 53.013 88.7802C53.3726 88.2655 53.847 87.6516 53.2517 87.7943C53.8656 87.3478 53.8966 87.2455 53.2579 87.7136C53.8966 87.2455 53.9989 87.1463 53.3137 87.6485C54.4081 86.6626 56.1102 85.252 54.5756 86.0456C56.7055 84.3932 58.1131 83.2801 55.5057 84.2846C58.3828 82.5081 58.913 81.854 55.8312 82.3469C58.9099 81.1657 58.4231 80.7905 55.5553 80.3658C58.3456 80.4743 58.1813 80.3255 55.4809 80.0619C58.1813 80.3255 58.8014 80.3255 55.7909 80.0464C59.0835 80.31 60.612 80.3348 57.4558 79.7519C61.0522 80.1829 61.5886 80.155 58.8758 78.89C61.8707 79.8914 62.0133 79.7488 59.902 77.532C62.2056 79.4109 62.1622 79.045 60.6647 75.9571C62.249 78.8404 62.2521 78.8094 60.6864 75.9075C62.2521 78.8125 62.2707 78.8001 60.7298 75.8826C61.5452 77.315 61.9668 77.9971 62.0568 77.9103C62.1467 77.8266 61.9017 76.974 61.3902 75.3494C61.9854 76.8934 62.3017 77.5941 62.3637 77.4762C62.4505 77.3553 62.2862 76.419 61.9606 74.6797C62.4009 76.2671 62.7016 76.819 62.7729 76.5275C62.9714 76.2237 63.0148 75.0673 62.9683 73.207C63.1047 74.9339 63.1915 75.802 63.0892 75.8237C63.2256 75.833 63.1853 74.9928 63.0582 73.2628C63.1078 75.1293 63.0582 76.2981 62.8598 76.6174C62.8101 76.9213 62.5311 76.3818 62.1343 74.8037C62.4257 76.5399 62.5714 77.4824 62.4815 77.6127C62.4288 77.7367 62.1312 77.0546 61.5886 75.5292C62.0568 77.1414 62.28 77.9909 62.1839 78.0901C62.0909 78.1893 61.6816 77.5351 60.8848 76.1493C62.373 78.9861 62.3916 78.9489 60.9499 76.0749C62.3141 79.1535 62.3668 79.5256 60.2368 77.715C62.1901 79.8635 62.063 80.0185 59.1827 79.2031C61.7808 80.3038 61.2166 80.3658 57.6232 80.2015C60.7484 80.5363 59.1672 80.5549 55.8219 80.558C58.8727 80.5735 59.2819 80.4247 56.0575 80.2387C59.3718 80.7564 59.7098 81.1223 56.3645 82.3438C59.7191 81.8478 59.0525 82.5205 56.0203 84.4676C58.7611 83.3359 57.2543 84.5606 55.0127 86.3464C56.6342 85.4411 54.8577 86.9386 53.7013 87.9803C54.4329 87.416 54.5725 87.2145 53.7633 87.8315C54.5384 87.5834 53.9307 88.3337 53.4718 88.9538C53.6672 89.0127 53.199 89.6142 53.0006 89.9645C52.6719 90.6249 52.2844 91.2512 51.8999 91.8712C51.1187 93.1052 50.2971 94.3081 49.4538 95.4987C48.6167 96.6892 47.761 97.8674 46.896 99.0393L44.304 102.552L44.2979 102.549Z" fill="currentColor"/>
<path d="M63.6688 73.9592C63.7711 75.6985 63.7246 76.0055 63.5355 75.5001C63.7587 74.9886 63.7773 73.6585 63.7122 72.0742C63.7773 73.6585 63.4425 74.7064 63.0085 74.9576C62.7914 75.2118 62.3109 74.6537 62.0566 72.9795C62.314 74.6568 62.7573 75.7699 62.9681 76.0365C63.3743 76.2907 63.7742 75.6986 63.6688 73.9623V73.9592Z" fill="currentColor"/>
<path d="M66.3304 29.3242C66.5071 30.8992 66.5846 32.4835 66.6466 34.0678C66.6745 34.8584 66.6931 35.6521 66.7117 36.4427C66.7303 37.2333 66.7427 38.0239 66.7613 38.8144C66.7768 39.605 66.783 40.4018 66.8264 41.1831C66.8388 41.9768 66.8357 42.7767 66.9381 43.5487C66.9257 44.3486 66.935 45.226 67.1272 45.905C67.09 46.77 67.1365 47.6722 67.4155 48.2489C67.2574 48.4318 67.2543 48.4132 67.4124 48.2303C67.4837 49.4735 68.265 50.5276 68.9471 51.1632C68.9688 51.3306 69.2075 51.5415 69.1455 51.3895C69.2075 51.5415 68.8758 51.6996 68.8851 51.5384C68.6309 51.8391 68.1844 52.0468 68.1782 52.0561C67.8124 52.4251 67.5829 52.6793 67.8186 52.7475C67.5333 53.166 67.5953 53.4358 67.9891 53.5505C67.8248 53.9411 68.0387 54.1706 68.4541 54.3287C68.2061 54.4093 68.3487 54.5767 68.5843 54.5116C68.3487 54.5767 68.1193 54.6883 68.3921 54.6201C67.9705 54.7751 67.7566 54.9022 68.0015 54.9643C67.5736 55.1658 67.4806 55.3363 67.8155 55.4572C67.3969 55.851 67.4527 56.2292 67.893 56.623C67.524 56.6013 67.5271 56.623 67.8961 56.6478C67.5271 56.6261 67.524 56.6416 67.8961 56.6664C67.4744 57.2523 67.5302 57.8817 67.9054 58.6382C67.5612 58.5049 67.738 60.4333 68.017 60.6286C67.7349 60.4302 67.6356 60.4364 67.9178 60.6379C67.6356 60.4364 67.3473 58.5173 67.6914 58.6568C67.2791 57.8941 67.1861 57.2585 67.586 56.6478C67.2171 56.623 67.2202 56.6633 67.586 56.6912C67.1334 56.285 67.0466 55.8913 67.4558 55.4138C67.1117 55.2619 67.1985 55.0387 67.6821 54.7565C67.4527 54.6573 67.7225 54.4837 68.1906 54.276C67.9054 54.3721 67.8248 54.6542 68.1317 54.5674C67.6418 54.4093 67.4186 54.1644 67.5984 53.7334C67.1334 53.597 67.0373 53.2591 67.3597 52.7072C67.09 52.546 67.3814 52.1708 67.831 51.7306C67.8465 51.6903 68.3208 51.4546 68.6371 51.1136C68.5875 51.2934 68.4975 51.6655 68.575 51.4887C68.1193 51.2438 67.6139 50.7664 67.5271 50.0347C67.0621 49.7494 66.8078 49.1139 66.8916 48.3481C66.6807 48.5465 66.6776 48.5403 66.8916 48.3388C66.6807 48.5372 66.6776 48.5279 66.8916 48.3295C66.5598 47.7683 66.4947 46.8506 66.5939 45.9608C66.3459 45.3004 66.3521 44.4013 66.4172 43.5828C66.2653 42.8325 66.3056 42.0109 66.3335 41.2017C66.2777 40.4297 66.3149 39.6143 66.3149 38.8237C66.3149 38.8237 66.3273 37.6363 66.3397 36.4489L66.3645 34.074C66.3893 32.4928 66.38 30.9116 66.3335 29.3273L66.3304 29.3242Z" fill="currentColor"/>
<path d="M67.0093 60.443C66.7241 60.2136 67.865 61.7855 68.0914 61.9901C67.865 61.7855 68.6091 60.1237 68.8913 60.2818C68.6122 60.1237 66.7241 60.2167 67.0124 60.4461L67.0093 60.443Z" fill="currentColor"/>
<path d="M79.1524 24.6016C78.7029 27.1532 78.151 29.6893 77.5309 32.2068C77.379 32.8361 77.2209 33.4655 77.0628 34.0949C76.9047 34.7243 76.7403 35.3505 76.576 35.9768C76.4117 36.6031 76.2753 37.3162 76.0769 37.8556C75.9405 38.5594 75.8877 39.4337 75.5715 39.7314C75.7234 40.0383 75.6583 41.2722 75.0599 41.604C75.1778 43.027 75.1685 44.1618 74.5484 43.4766C75.1685 44.1618 74.9235 46.0096 74.0399 45.3492C74.7778 46.5522 74.7902 47.1846 73.5656 47.228C74.6569 47.7148 74.4864 48.5395 73.0912 49.1131C74.0864 50.1269 73.7423 50.9609 72.6169 50.9981C73.6059 51.4942 73.1625 52.1111 72.1177 52.8769C72.8587 53.1994 72.2696 53.9 71.5472 54.7402C72.0805 54.4581 72.0836 54.4488 71.5472 54.7309C72.0805 54.4488 71.8883 54.948 71.448 55.2332C71.8883 54.948 71.7612 54.9449 71.3457 55.2146C71.7612 54.9418 71.9162 54.4426 71.4139 54.7092C71.9162 54.4457 71.9162 54.4426 71.4139 54.7092C71.9162 54.4457 71.9193 54.4364 71.4139 54.703C72.0712 53.8752 72.589 53.1807 71.8697 52.8211C72.8308 52.0739 73.2214 51.4538 72.2789 50.9237C73.3392 50.9082 73.6462 50.0556 72.6913 49.0263C73.9996 48.431 74.1422 47.5753 73.1036 47.1288C74.2631 47.0296 74.2383 46.3847 73.5439 45.2314C74.5112 45.2686 74.4492 44.5152 74.0306 43.3464C74.7592 43.3712 74.6941 42.5155 74.5298 41.4676C75.0103 41.3311 75.001 40.4444 75.0413 39.5918C75.3948 39.0214 75.5064 37.9393 75.7358 37.096C75.9684 36.2651 76.2009 35.4342 76.4334 34.6033C77.3635 31.2798 78.2843 27.9531 79.1431 24.6078L79.1524 24.6016Z" fill="currentColor"/>
<path d="M70.54 54.6898C70.8036 54.5348 71.157 56.2865 71.002 56.519C71.157 56.2865 73.0203 54.7952 72.3569 55.2045C73.0203 54.7952 70.8036 54.5348 70.5431 54.6898H70.54Z" fill="currentColor"/>
<path d="M9.13982 70.168C11.3194 69.9417 13.5051 69.7556 15.6878 69.5603L22.242 69.0457C26.6135 68.7139 30.9881 68.4504 35.3596 68.1559C39.7342 67.8861 44.1089 67.6381 48.4804 67.325C49.5748 67.2536 50.6661 67.1854 51.7606 67.1172C52.855 67.049 53.9773 66.9436 55.0408 66.9219C56.1569 66.8134 57.2885 66.6646 58.3241 66.7483C59.4495 66.5561 60.5377 66.432 61.6042 66.5437C61.6073 66.3483 61.6135 66.4041 61.6073 66.5964C60.1843 66.5561 58.7271 66.7917 57.242 67.0087C55.8407 67.0366 54.3308 67.2443 52.8736 67.3591C51.4164 67.4738 49.9593 67.5885 48.5052 67.7187C44.1368 68.0783 39.7591 68.3512 35.3875 68.6364L9.13672 70.168H9.13982Z" fill="currentColor"/>
<path d="M61.3931 67.4411C61.3993 67.3046 62.8068 66.3466 62.8285 66.5388C62.8099 66.3466 61.3435 65.5002 61.3311 65.7483C61.3435 65.5002 61.3993 67.3077 61.3962 67.4411H61.3931Z" fill="currentColor"/>
<path d="M104.437 20.7734C103.135 22.5375 101.805 24.2769 100.478 26.0224L96.4444 31.2155C93.7471 34.6693 90.994 38.0828 88.2688 41.5149C85.5218 44.9315 82.7625 48.3326 80.0497 51.774C79.3645 52.6297 78.6824 53.4854 77.9941 54.3411C77.3059 55.1968 76.63 56.0959 75.9293 56.8989C75.2565 57.7949 74.6054 58.7343 73.8489 59.4443C73.232 60.4054 72.5933 61.2921 71.7934 62.0083C71.936 62.1447 71.8926 62.1075 71.75 61.9742C72.739 60.9511 73.5451 59.7141 74.3853 58.4708C75.3092 57.4167 76.1711 56.1579 77.0671 55.0046C77.9631 53.8513 78.8591 52.6948 79.7427 51.5322C82.4184 48.0598 85.1622 44.6401 87.8967 41.2142L104.44 20.7734H104.437Z" fill="currentColor"/>
<path d="M71.2693 61.2461C71.3654 61.3391 71.1267 63.0288 70.9717 62.9141C71.1267 63.0288 72.742 62.5141 72.5653 62.3374C72.7389 62.5141 71.3654 61.3391 71.2693 61.2461Z" fill="currentColor"/>
<path d="M111.697 97.4421C110.035 96.391 108.392 95.309 106.746 94.2332L101.844 90.9437C98.5825 88.7424 95.3581 86.4823 92.1182 84.25C88.8908 81.996 85.6788 79.7266 82.4265 77.5067C81.6173 76.9455 80.8112 76.3844 80.002 75.8201C79.1959 75.2558 78.3464 74.7071 77.5868 74.1242C76.7404 73.5816 75.8568 73.0608 75.1809 72.4097C74.2756 71.9291 73.4416 71.4114 72.7595 70.7231C72.6386 70.8781 72.6696 70.8316 72.7874 70.6797C73.761 71.5137 74.9236 72.1493 76.0924 72.8158C77.0907 73.5847 78.2751 74.273 79.3633 75.0016C80.4515 75.7333 81.5429 76.4619 82.6404 77.1781C85.9175 79.3576 89.1481 81.6085 92.3818 83.847L111.694 97.439L111.697 97.4421Z" fill="currentColor"/>
<path d="M73.4478 70.129C73.3641 70.2344 71.8015 70.2034 71.9038 70.0391C71.8015 70.2034 72.3224 71.7071 72.4805 71.5148C72.3224 71.7071 73.3641 70.2313 73.4478 70.1259V70.129Z" fill="currentColor"/>
<path d="M95.879 94.9458C95.4605 94.5644 95.0419 94.1769 94.6637 93.749C94.2886 93.3212 93.9382 92.8561 93.7181 92.3074L93.7584 92.3601C93.1662 91.988 92.5803 91.5633 92.1462 90.9742C91.9292 90.6797 91.7587 90.3448 91.6625 89.9883C91.5633 89.6318 91.5385 89.2566 91.5633 88.8939L91.7215 89.0985C91.3246 89.0272 90.9247 88.9218 90.5464 88.7544C90.1682 88.5869 89.8054 88.3544 89.5109 88.0537C89.2133 87.7529 88.9466 87.353 88.7916 87.0337C88.5746 86.6213 88.3048 86.0508 88.3483 85.8958C88.1901 85.6726 88.4475 85.902 88.5715 86.0756C88.1095 85.8865 87.6693 85.6385 87.5794 85.8369C87.0678 85.3781 86.6554 84.9657 86.7299 85.3191C85.9269 84.3952 85.1363 83.4155 85.3626 83.9829C84.7704 83.0156 84.8014 83.0466 85.3874 84.0077C84.3798 82.6869 83.3101 81.918 83.9457 82.7644C82.5754 81.2794 81.6577 80.7275 82.5103 81.515C81.3414 80.4516 81.3569 80.4609 82.5258 81.5274C81.4778 80.0547 80.6686 80.1787 79.7819 81.5615C79.6424 80.0795 79.5246 79.661 79.4316 80.3493C79.2394 79.6238 78.5511 80.3617 77.7109 81.608C78.424 80.371 79.0037 79.6579 79.134 80.3121C79.0006 79.6579 78.4116 80.3028 77.6427 81.4716C78.4767 80.1818 79.1526 79.3819 79.2301 80.0299C79.1774 79.3106 78.7712 79.7106 78.0147 80.805C78.9014 79.4316 79.4998 78.672 79.4161 79.1742C78.9913 78.9448 79.1805 78.5665 79.227 78.4177C79.0192 78.3402 78.8518 78.2968 78.5635 77.931C78.5635 78.1697 78.2224 78.3309 77.6985 77.6581C78.0612 78.2937 77.8907 78.3247 77.4815 77.6085C77.8907 78.3278 78.0209 78.0922 77.5528 77.4039C78.0519 77.9992 78.2503 77.6395 77.6148 76.8862C78.2255 77.4473 78.269 77.19 77.4257 76.3932C78.0922 76.9172 77.8597 76.6009 76.5948 75.5716C77.6613 76.4428 77.6458 76.4304 76.5762 75.5561C77.6458 76.4304 77.6396 76.418 76.5668 75.5406C77.3946 76.0863 76.8986 75.2554 75.2523 74.071C76.5576 74.9081 75.0198 73.2339 73.8447 72.6572C75.0198 73.2339 75.0849 73.1657 73.9129 72.5859C75.088 73.1657 76.7095 74.7221 75.398 73.9191C77.0753 75.0507 77.6241 75.8196 76.8118 75.3515C77.8969 76.1545 77.8752 76.1297 76.7808 75.3236C78.0891 76.2847 78.3651 76.5916 77.7264 76.1917C78.5976 76.9172 78.5604 77.2303 77.993 76.8303C78.5976 77.5 78.3434 77.9589 77.931 77.5248C78.3062 78.0736 78.2628 77.8752 77.7853 77.2706C78.4395 77.9093 78.8146 77.7357 78.7371 77.5403C79.1588 77.8752 79.3851 77.9155 79.5959 78.148C79.6393 78.2441 79.413 78.7495 79.8935 79.1897C79.4006 79.1308 78.8828 79.785 79.6982 80.1849C79.5029 79.4192 78.9603 79.9617 78.179 81.1864C78.8983 79.8501 79.4099 79.1804 79.4967 79.8656C79.0813 79.754 79.9804 79.3974 81.2453 80.2562C80.6469 79.6362 81.4778 79.7478 82.842 81.0965C81.8096 79.9834 81.8189 79.9865 82.8513 81.1026C81.8189 79.9865 81.8251 79.9927 82.8575 81.1088C82.1475 80.2717 83.0311 80.8267 84.3023 82.3521C83.7783 81.4716 84.7363 82.256 85.7408 83.6015C85.1518 82.6187 85.1704 82.6373 85.7563 83.6139C85.1704 82.6373 85.1828 82.6497 85.7656 83.6264C85.5517 83.0528 86.2555 83.9984 87.0585 84.9099C87.1236 84.6867 87.877 85.3098 88.6087 85.5827C88.4289 85.3471 88.618 85.3812 88.7854 85.5951C88.618 85.3812 88.6893 85.5765 88.8319 85.7625C88.8939 86.2958 89.3342 87.2104 89.8426 87.7374C90.3418 88.2738 91.058 88.5714 91.8021 88.7234L91.9757 88.7575L91.9602 88.928C91.9292 89.2566 91.9447 89.5884 92.016 89.9046C92.0873 90.2239 92.2268 90.5247 92.4128 90.7975C92.788 91.3463 93.3274 91.7865 93.8886 92.1865L93.9196 92.2082L93.9289 92.2392C94.1056 92.76 94.4188 93.2344 94.766 93.6777C95.1163 94.118 95.5008 94.5365 95.8914 94.9489L95.879 94.9458Z" fill="currentColor"/>
<path d="M74.7192 72.1199C75.9066 72.8175 73.7922 72.1447 72.8838 71.6797C73.7922 72.1447 74.5983 74.2158 73.4202 73.4872C74.5983 74.2127 75.9066 72.8144 74.7192 72.1168V72.1199Z" fill="currentColor"/>
<path d="M74.885 120.704C73.4309 114.639 72.4605 108.42 71.6947 102.235C71.6327 101.739 71.9489 100.979 72.3644 101.261C72.1877 101.398 72.011 101.531 71.8373 101.667C71.5056 99.4629 71.1708 97.2586 70.839 95.0511C70.8173 94.9147 70.8204 94.738 70.9444 94.6853C71.0684 94.6326 71.1273 94.924 71.0033 94.8682C70.2406 93.4668 69.6764 91.96 69.3322 90.4068C69.5648 90.4812 69.8004 90.5525 70.0329 90.6269C69.7632 90.3727 69.4935 90.1153 69.2268 89.8611L70.0515 90.7106L68.9509 89.5201C68.985 89.734 69.6237 90.0037 69.7446 90.0409C69.4966 89.6193 68.9106 89.1759 68.4083 89.4518C68.9664 89.0674 69.8717 89.4953 69.9275 90.1711C69.7663 89.4332 68.9664 88.8969 68.2223 89.0302C68.7246 88.5093 69.7911 88.9 69.8407 89.6224C69.6578 88.8039 68.7866 88.2055 67.9588 88.3295C68.0921 87.9451 68.5106 87.6815 68.9137 87.728C69.3167 87.7746 69.664 88.1249 69.7074 88.5279C69.54 87.5265 68.4269 86.7979 67.441 87.0429C67.689 86.6832 67.9526 86.305 68.3432 86.1097C68.7339 85.9143 69.2888 85.967 69.5121 86.3422C69.0129 85.5392 67.8224 85.2726 67.0256 85.781C67.5805 85.04 68.3494 84.4603 69.2144 84.1285C68.6533 83.5704 67.7634 83.3782 67.0225 83.6511C67.6301 83.1643 68.2378 82.6775 68.8486 82.1908C68.4238 82.1443 67.9991 82.1009 67.5774 82.0544C68.1076 81.6792 68.4982 81.1119 68.6626 80.4825C68.2688 80.4236 67.9185 80.3213 67.6394 80.0639C67.9557 79.8686 68.2843 79.5586 68.4052 79.1958C68.9571 77.5092 68.0828 74.8026 67.8844 73.0664C68.5106 74.6321 68.7649 76.3466 68.6191 78.027C68.5664 78.6223 68.4703 79.2454 68.6812 79.8035C68.7897 80.0918 68.9757 80.3492 69.0501 80.6499C69.1989 81.2514 68.7897 81.9366 68.1882 82.0885C68.5199 82.1536 68.8486 82.2187 69.1803 82.2838C68.9571 82.814 68.5664 83.2728 68.0766 83.5736C68.5757 83.465 69.1214 83.586 69.5245 83.8991C69.0346 84.2494 68.6037 84.6804 68.2502 85.164C68.9292 85.1113 69.6237 85.4245 70.036 85.9639C69.4625 85.9515 68.9013 86.3174 68.6812 86.8475C69.3818 86.9654 70.0174 87.418 70.3585 88.0412C70.0422 87.8056 69.5555 87.8366 69.2733 88.1156C69.7167 88.314 70.1073 88.6334 70.3926 89.0271C70.1414 88.8938 69.9771 89.4518 70.2592 89.4766C70.1135 88.9496 71.1366 88.8907 71.1366 88.8907C71.1366 88.8907 70.2313 89.1914 70.5011 89.8115C71.8962 97.4477 72.7829 105.14 73.7906 112.829L74.3269 116.769C74.5191 118.084 74.7052 119.401 74.9005 120.713C74.9005 120.713 74.9005 120.707 74.9005 120.704H74.885Z" fill="currentColor"/>
<path d="M69.1237 72.8557C69.6849 73.7486 67.5271 70.7475 67.3844 70.5273C67.5271 70.7475 66.6807 73.6959 66.2373 73.1968C66.6776 73.6959 69.6818 73.7486 69.1237 72.8557Z" fill="currentColor"/>
<path d="M54.1045 3.77883C54.5571 5.32902 54.9819 6.8885 55.3942 8.45109C55.8066 10.0137 56.2158 11.5794 56.5941 13.1512C56.9785 14.7231 57.3568 16.295 57.7164 17.8731C58.0761 19.4512 58.414 21.0541 58.7488 22.6508L58.7426 22.6136C58.9039 23.308 59.0651 24.0025 59.217 24.7063C59.2914 25.0567 59.3658 25.4101 59.434 25.7728C59.4681 25.9558 59.496 26.1387 59.5208 26.334C59.5332 26.4363 59.5425 26.5355 59.5456 26.6626C59.5456 26.7278 59.5456 26.7991 59.5177 26.9324C59.5022 26.982 59.496 27.013 59.465 27.0688C59.4216 27.1401 59.3906 27.199 59.2914 27.2517C59.1891 27.3137 59.1054 27.3168 59.0248 27.2858C58.9535 27.2827 58.9194 27.261 58.876 27.2176C58.8698 27.2331 59.434 26.6781 59.434 26.6781C59.6262 27.3757 59.7937 28.1322 59.9983 28.7833C60.1502 29.5398 60.2432 30.38 60.4975 30.9226C60.5409 31.8 60.5564 32.6619 60.8912 33.0897C60.7796 34.0663 60.7455 34.8941 61.1857 35.26C60.8261 35.5824 60.3982 35.1577 60.7486 34.8011C60.5161 35.1577 60.6432 35.1918 61.0462 34.9158C60.7672 35.2972 60.8075 35.3375 61.1857 35.0646C60.8943 35.4615 60.9315 35.5328 61.3097 35.2817C61.0152 35.7126 61.04 35.8242 61.4431 35.6289C61.1423 36.1343 61.1733 36.3451 61.6167 36.2521C61.3159 36.9249 61.3562 37.3279 61.8833 37.455C61.5857 38.4626 61.6725 39.3214 62.3391 39.8392C61.8089 40.0624 61.7779 39.9477 62.305 39.7214C61.8399 40.1058 61.8616 40.2175 62.4259 40.1089C61.8957 40.3291 61.9763 40.667 62.5127 40.4469C61.9794 40.667 62.1251 41.3274 62.6646 41.1104C62.1251 41.3305 62.4042 42.6481 62.9436 42.4249C62.5685 43.4604 62.8413 44.4681 63.5141 45.0323C63.0212 45.271 63.4304 46.7003 64.1063 47.6428C63.9761 49.0969 64.3791 50.4921 64.6984 50.2533C64.562 51.292 64.8008 52.1849 65.2844 52.867C65.1573 53.7878 65.3433 54.5908 65.8549 55.4837C65.6906 56.2029 65.9138 57.0431 66.3943 58.1128C66.23 58.6863 66.4657 59.6072 66.8594 60.7605C66.599 60.4505 66.5928 60.4318 66.8563 60.7419C66.5959 60.4318 66.8749 61.3682 67.1074 61.672C66.8749 61.3682 66.7261 61.4147 66.9555 61.7247C66.7261 61.4147 66.4068 60.4939 66.6641 60.8132C66.4068 60.4908 66.4037 60.4877 66.6641 60.807C66.4068 60.4846 66.4037 60.4722 66.6641 60.7946C66.2393 59.6444 65.9603 58.7359 66.075 58.1903C65.5665 57.1238 65.3061 56.2929 65.427 55.5984C65.1077 55.4992 64.7915 54.3086 64.7667 53.0065C64.1838 51.9306 63.7838 50.6223 64.1063 50.4146C63.5823 49.8348 63.2134 48.8241 63.4521 47.8196C62.8196 47.2553 62.4538 46.2198 62.8103 45.2183C62.0755 44.6479 61.7593 43.6217 62.1965 42.6047C61.5888 42.8311 61.2849 41.5444 61.8988 41.3057C61.2849 41.5444 61.1361 40.9119 61.7469 40.6639C61.1392 40.9119 61.0617 40.6081 61.6663 40.3539C61.0369 40.5244 61.0028 40.3973 61.5919 40.1058C60.9904 40.3632 60.9687 40.3136 61.5702 40.0562C60.9687 40.3167 60.9563 40.2516 61.5578 39.9911C60.8199 39.5261 60.7269 38.6735 61.0958 37.6317C60.5006 37.5852 60.4602 37.1884 60.8354 36.4784C60.3269 36.6613 60.299 36.4753 60.6835 35.942C60.2215 36.2428 60.1998 36.1622 60.6029 35.7312C60.1657 36.0878 60.1564 36.0785 60.5843 35.694C60.1688 36.0878 60.175 36.0971 60.6277 35.7405C60.2308 36.1436 60.3083 36.1715 60.8075 35.8025C60.3889 36.1653 59.9642 35.7467 60.3703 35.3437C59.7875 34.4043 59.8495 32.7146 59.7069 31.0993C59.2914 29.9862 59.0558 28.3213 58.6868 26.9231C58.6837 26.9324 59.2449 26.3836 59.2449 26.3836C59.2139 26.3619 59.1953 26.3526 59.1488 26.3402C59.0806 26.3247 59.0186 26.3278 58.9349 26.3681C58.8512 26.4239 58.8295 26.4549 58.7984 26.5107C58.7767 26.5541 58.7736 26.5603 58.7674 26.5882C58.755 26.6378 58.7643 26.6223 58.7612 26.5975C58.7612 26.551 58.755 26.4704 58.7488 26.396C58.7333 26.2379 58.7054 26.0705 58.6775 25.9C58.6217 25.5589 58.5535 25.2148 58.4853 24.8675C58.3458 24.1762 58.197 23.4817 58.0451 22.7872L58.0389 22.75C57.7226 21.175 57.4405 19.6 57.1212 18.0157L56.1445 13.2629L55.1493 8.51309L54.1169 3.76953L54.1045 3.77883Z" fill="currentColor"/>
<path d="M65.4681 61.4972C65.2573 61.122 67.3376 63.9775 67.4803 64.2131C67.3376 63.9806 68.0631 60.657 68.3143 60.8988C68.0631 60.657 65.2604 61.122 65.4712 61.4972H65.4681Z" fill="currentColor"/>
<path d="M126.226 52.2578C124.772 52.695 123.308 53.1042 121.842 53.498C120.376 53.8948 118.906 54.2886 117.43 54.6513C115.954 55.0202 114.479 55.383 112.997 55.7271C111.515 56.0713 110.008 56.3906 108.51 56.713L108.545 56.7068C107.893 56.8619 107.239 57.0169 106.582 57.1626C106.253 57.2339 105.922 57.3052 105.581 57.3672C105.41 57.3982 105.236 57.4261 105.053 57.4509C104.957 57.4602 104.864 57.4726 104.743 57.4726C104.681 57.4726 104.613 57.4726 104.489 57.4416C104.443 57.4261 104.415 57.4168 104.359 57.3889C104.291 57.3455 104.235 57.3114 104.185 57.2122C104.126 57.1099 104.12 57.0262 104.151 56.9456C104.151 56.8743 104.173 56.8402 104.213 56.7968C104.198 56.7905 104.725 57.3579 104.725 57.3579C104.071 57.5439 103.358 57.7021 102.75 57.9005C102.037 58.0462 101.249 58.1299 100.741 58.3779C99.9162 58.412 99.1039 58.4213 98.7039 58.75C97.7862 58.6291 97.0049 58.5888 96.6639 59.0259C96.357 58.6663 96.7538 58.2415 97.0917 58.595C96.7538 58.3593 96.7228 58.4865 96.9863 58.8895C96.6236 58.6074 96.5864 58.6477 96.8468 59.029C96.4717 58.7345 96.4035 58.7717 96.6422 59.1499C96.2329 58.8492 96.1275 58.8771 96.3167 59.2801C95.8392 58.9763 95.6408 59.0042 95.7338 59.4476C95.0982 59.1406 94.7169 59.1747 94.6053 59.7018C93.6534 59.3949 92.8473 59.4755 92.3668 60.1327C92.1498 59.6026 92.2583 59.5716 92.4753 60.0986C92.1095 59.6305 92.004 59.6522 92.1095 60.2165C91.8955 59.6832 91.5793 59.7638 91.7932 60.3002C91.5824 59.7638 90.9592 59.9064 91.17 60.4459C90.9592 59.9033 89.7222 60.1731 89.9361 60.7125C88.9595 60.3281 88.0108 60.5916 87.4868 61.2582C87.2574 60.7652 85.918 61.159 85.0375 61.8224C83.6672 61.6767 82.3588 62.0674 82.5882 62.3867C81.6085 62.241 80.7714 62.4704 80.1358 62.9448C79.2677 62.8084 78.5112 62.9882 77.6772 63.4904C76.9983 63.3199 76.2077 63.5339 75.2094 64.002C74.6668 63.8315 73.8049 64.0609 72.7229 64.4423C73.0143 64.1849 73.0298 64.1787 72.7384 64.4392C73.0298 64.1818 72.1493 64.4516 71.8672 64.681C72.1493 64.4516 72.1059 64.3027 71.8145 64.5291C72.1059 64.3027 72.9678 63.9927 72.6671 64.2438C72.9678 63.9896 72.9709 63.9896 72.6733 64.2438C72.974 63.9896 72.9833 63.9865 72.6857 64.2438C73.7646 63.8315 74.6172 63.5618 75.1318 63.6796C76.1302 63.1804 76.9115 62.9293 77.5656 63.0564C77.6555 62.7402 78.7748 62.4363 79.9994 62.4239C81.007 61.8504 82.2348 61.4628 82.4332 61.7914C82.9727 61.2737 83.9214 60.9171 84.8701 61.1652C85.3972 60.5389 86.3645 60.1855 87.3101 60.5513C87.8403 59.8227 88.8045 59.5158 89.7625 59.9622C89.5455 59.3515 90.7515 59.0631 90.9809 59.677C90.7515 59.0631 91.3437 58.9205 91.5824 59.5313C91.3437 58.9205 91.6289 58.8461 91.8738 59.4538C91.7064 58.8244 91.8273 58.7903 92.1064 59.3794C91.8583 58.7748 91.9048 58.7531 92.1529 59.3577C91.9017 58.7531 91.9637 58.7438 92.2149 59.3453C92.6458 58.6136 93.4488 58.5268 94.4316 58.905C94.4719 58.3097 94.844 58.2756 95.5137 58.657C95.3369 58.1485 95.5137 58.1206 96.0159 58.5113C95.7276 58.0493 95.802 58.0276 96.2143 58.4306C95.8733 57.9904 95.8857 57.9842 96.2484 58.412C95.8733 57.9935 95.8671 57.9997 96.205 58.4554C95.8206 58.0555 95.7989 58.133 96.1461 58.6353C95.7989 58.2136 96.1895 57.792 96.574 58.2043C97.4514 57.6339 99.0419 57.7083 100.561 57.5842C101.606 57.1781 103.168 56.9611 104.483 56.6076C104.474 56.6045 104.995 57.1688 104.995 57.1688C105.013 57.1378 105.022 57.1192 105.035 57.0727C105.05 57.0045 105.044 56.9425 105.007 56.8588C104.954 56.775 104.923 56.7533 104.874 56.7223C104.833 56.7006 104.824 56.6975 104.799 56.6913C104.753 56.6789 104.768 56.6882 104.79 56.6851C104.833 56.6851 104.908 56.682 104.979 56.6727C105.128 56.6572 105.286 56.6324 105.444 56.6076C105.763 56.5549 106.089 56.4898 106.411 56.4247C107.063 56.2914 107.714 56.1488 108.365 56.0062L108.399 56C109.878 55.6992 111.357 55.4326 112.845 55.1288L117.306 54.1986L121.768 53.2499L126.223 52.264L126.226 52.2578Z" fill="currentColor"/>
<path d="M72.0097 63.0456C72.3632 62.841 69.6907 64.8872 69.4736 65.0268C69.6907 64.8872 72.8251 65.6406 72.6019 65.8918C72.8251 65.6437 72.3632 62.841 72.0097 63.0456Z" fill="currentColor"/>
<path d="M81.5462 127.974C81.0935 126.418 80.6657 124.852 80.2533 123.28C79.841 121.712 79.4317 120.14 79.0504 118.559C78.6628 116.98 78.2846 115.399 77.9249 113.815C77.5653 112.231 77.2274 110.618 76.8894 109.019L76.8956 109.056C76.7344 108.358 76.5701 107.661 76.4182 106.954C76.3407 106.6 76.2694 106.247 76.2011 105.884C76.167 105.701 76.136 105.518 76.1143 105.32C76.1019 105.218 76.0926 105.118 76.0895 104.988C76.0895 104.923 76.0895 104.849 76.1174 104.718C76.1329 104.669 76.1391 104.638 76.1701 104.579C76.2135 104.508 76.2445 104.446 76.3438 104.396C76.4461 104.334 76.5298 104.331 76.6104 104.362C76.6817 104.365 76.7158 104.387 76.7592 104.43C76.7654 104.415 76.2011 104.97 76.2011 104.97C76.0058 104.269 75.8415 103.506 75.6369 102.855C75.485 102.096 75.3888 101.249 75.1377 100.707C75.0943 99.8261 75.0757 98.9611 74.744 98.5301C74.8556 97.5504 74.8866 96.7195 74.4463 96.3506C74.806 96.0282 75.2338 96.456 74.8835 96.8125C75.116 96.4529 74.9889 96.4188 74.5858 96.6978C74.8618 96.3134 74.8246 96.2731 74.4463 96.549C74.7347 96.1522 74.7006 96.0778 74.3223 96.3289C74.6169 95.8948 74.5889 95.7832 74.189 95.9816C74.4897 95.4732 74.4587 95.2624 74.0154 95.3554C74.3161 94.6795 74.2758 94.2733 73.7488 94.1462C74.0464 93.1355 73.9565 92.2736 73.2899 91.7528C73.817 91.5295 73.8511 91.6442 73.324 91.8706C73.7891 91.4861 73.7643 91.3745 73.2 91.4799C73.7301 91.2567 73.6495 90.9219 73.1132 91.142C73.6464 90.9219 73.5007 90.2584 72.9613 90.4785C73.5007 90.2584 73.2186 88.9345 72.6791 89.1577C73.0543 88.1191 72.7783 87.1053 72.1056 86.5379C72.5985 86.2992 72.1862 84.8637 71.5134 83.9181C71.6436 82.4578 71.2375 81.0565 70.9212 81.2983C71.0576 80.2566 70.8158 79.3575 70.3352 78.6754C70.4624 77.7484 70.2732 76.9423 69.7617 76.0463C69.926 75.3239 69.7028 74.4775 69.2191 73.4048C69.3834 72.8281 69.1447 71.9042 68.751 70.7447C69.0114 71.0578 69.0176 71.0764 68.7541 70.7633C69.0145 71.0764 68.7355 70.1339 68.5029 69.83C68.7355 70.1339 68.8843 70.0905 68.6548 69.7773C68.8843 70.0905 69.2067 71.0144 68.9494 70.692C69.2067 71.0144 69.2098 71.0206 68.9494 70.6981C69.2067 71.0206 69.2098 71.033 68.9494 70.7106C69.3741 71.867 69.6563 72.7785 69.5416 73.3273C70.05 74.4 70.3104 75.234 70.1926 75.9316C70.512 76.0339 70.8282 77.2275 70.853 78.5359C71.4359 79.6148 71.8389 80.9294 71.5134 81.1402C72.0374 81.7231 72.4063 82.74 72.1676 83.7476C72.8 84.315 73.1659 85.3536 72.8093 86.3581C73.5472 86.9317 73.8635 87.9641 73.4263 88.9841C74.034 88.7578 74.3378 90.0506 73.7239 90.2894C74.3378 90.0506 74.4866 90.6831 73.879 90.9342C74.4866 90.6862 74.5642 90.9932 73.9596 91.2443C74.589 91.0738 74.6231 91.2009 74.0371 91.4923C74.6386 91.235 74.6603 91.2846 74.0588 91.5419C74.6603 91.2815 74.6727 91.3466 74.0712 91.607C74.8091 92.0721 74.9052 92.9309 74.5362 93.9757C75.1315 94.0253 75.1718 94.4222 74.7967 95.1321C75.3051 94.9492 75.333 95.1352 74.9486 95.6716C75.4106 95.3709 75.4323 95.4484 75.0292 95.8855C75.4664 95.529 75.4726 95.5383 75.0478 95.9227C75.4633 95.5259 75.4571 95.5197 75.0044 95.8762C75.4012 95.4701 75.3237 95.4453 74.8246 95.8111C75.2431 95.4453 75.6679 95.8669 75.2617 96.2731C75.8446 97.2156 75.7857 98.9115 75.9283 100.536C76.3469 101.655 76.5825 103.326 76.9514 104.731C76.9545 104.722 76.3934 105.27 76.3934 105.27C76.4244 105.292 76.443 105.301 76.4926 105.314C76.5608 105.329 76.6228 105.326 76.7065 105.286C76.7902 105.23 76.8119 105.199 76.8429 105.143C76.8646 105.1 76.8677 105.094 76.8739 105.066C76.8863 105.016 76.877 105.032 76.8801 105.056C76.8801 105.103 76.8863 105.184 76.8925 105.258C76.908 105.416 76.9359 105.583 76.9638 105.754C77.0196 106.095 77.0878 106.442 77.1561 106.79C77.2956 107.484 77.4475 108.182 77.5963 108.879L77.6025 108.916C77.9187 110.498 78.2009 112.079 78.5233 113.672L79.503 118.444L80.5014 123.212L81.5369 127.977L81.5462 127.974Z" fill="currentColor"/>
<path d="M70.1389 70.0018C70.3498 70.38 68.2663 67.5091 68.1268 67.2734C68.2694 67.5091 67.547 70.8451 67.2959 70.6001C67.547 70.842 70.3498 70.3769 70.1389 69.9987V70.0018Z" fill="currentColor"/>
<path d="M11.3049 85.8361C12.7093 85.2471 14.1262 84.6828 15.5462 84.134C16.9661 83.5822 18.3923 83.0365 19.8247 82.5156C21.257 81.9886 22.6925 81.4739 24.1342 80.9716C25.5758 80.4725 27.0423 79.9919 28.5026 79.5114L28.4685 79.5207C29.101 79.2974 29.7365 79.0742 30.3783 78.8603C30.7008 78.7518 31.0232 78.6464 31.3549 78.5503C31.5224 78.5007 31.6898 78.4541 31.8727 78.4107C31.9657 78.389 32.0587 78.3704 32.1796 78.358C32.2416 78.3518 32.3098 78.3425 32.437 78.358C32.4835 78.3673 32.5145 78.3735 32.5734 78.3983C32.6447 78.4355 32.7067 78.4603 32.7656 78.5565C32.8338 78.6526 32.8493 78.7332 32.8276 78.8169C32.8338 78.8882 32.8183 78.9254 32.7811 78.9719C32.7966 78.975 32.2106 78.4666 32.2106 78.4666C32.8431 78.2123 33.5376 77.9798 34.1236 77.7163C34.818 77.4961 35.5962 77.3287 36.0768 77.028C36.8953 76.904 37.7045 76.811 38.0672 76.442C38.9973 76.4668 39.7786 76.4203 40.0732 75.9522C40.4173 76.2777 40.067 76.7427 39.6918 76.4265C40.0546 76.6249 40.0732 76.4947 39.7631 76.1196C40.1538 76.3614 40.1879 76.318 39.8871 75.9676C40.2933 76.2188 40.3553 76.1785 40.0763 75.825C40.5165 76.0793 40.6188 76.0421 40.3863 75.6607C40.8948 75.9118 41.0901 75.8622 40.9506 75.4313C41.6172 75.6669 41.9923 75.5925 42.0512 75.0561C43.0309 75.2608 43.8277 75.0933 44.237 74.3865C44.5067 74.8918 44.4044 74.9352 44.1315 74.4299C44.547 74.8577 44.6462 74.8236 44.4819 74.2718C44.7516 74.7771 45.0586 74.6655 44.7888 74.157C45.0555 74.6686 45.66 74.4609 45.3934 73.9462C45.66 74.4609 46.8661 74.064 46.5963 73.5494C47.6133 73.8284 48.5279 73.4657 48.9805 72.7464C49.2596 73.2114 50.5555 72.6751 51.3647 71.9217C52.7475 71.9217 54.0093 71.3915 53.7489 71.097C54.741 71.1373 55.5533 70.8179 56.1362 70.2785C57.0167 70.3219 57.7515 70.0615 58.5297 69.4724C59.2241 69.5716 59.9899 69.274 60.9386 68.6973C61.4967 68.8089 62.3338 68.4896 63.3724 67.9935C63.1089 68.2818 63.0934 68.288 63.3569 67.9997C63.0934 68.288 63.9429 67.9253 64.2002 67.668C63.9429 67.9253 64.0018 68.071 64.2684 67.8137C64.0018 68.071 63.174 68.471 63.4468 68.1857C63.174 68.471 63.1709 68.471 63.4406 68.1857C63.1678 68.471 63.1585 68.4741 63.4282 68.1888C62.3958 68.7159 61.5742 69.0755 61.0503 69.0104C60.1077 69.6119 59.3544 69.9467 58.6909 69.8909C58.632 70.2165 57.5499 70.6381 56.3315 70.7807C55.389 71.4566 54.2046 71.9744 53.9721 71.6705C53.4885 72.241 52.58 72.6999 51.6096 72.5541C51.1508 73.2331 50.2207 73.6889 49.241 73.4253C48.7914 74.2066 47.8613 74.6128 46.8568 74.2718C47.1389 74.8546 45.9639 75.2701 45.6693 74.6841C45.9639 75.2701 45.3872 75.4747 45.0865 74.8949C45.3903 75.4747 45.1113 75.5801 44.8043 75.0034C45.0369 75.6111 44.9221 75.6576 44.5811 75.1026C44.8942 75.6762 44.8477 75.7041 44.5346 75.1306C44.8477 75.7041 44.7888 75.7227 44.4726 75.1492C44.1222 75.9242 43.3286 76.0948 42.3085 75.8219C42.3333 76.4172 41.9644 76.4916 41.2575 76.1847C41.4869 76.6714 41.3164 76.7179 40.7708 76.3862C41.1056 76.8172 41.0343 76.8451 40.5816 76.4854C40.9661 76.8854 40.9568 76.8947 40.5475 76.5071C40.9661 76.8854 40.9723 76.8761 40.5847 76.4575C41.0095 76.8141 41.025 76.7334 40.625 76.2746C41.0157 76.6559 40.6715 77.1179 40.2437 76.7489C39.4283 77.4124 37.8347 77.5054 36.3341 77.7938C35.3358 78.3084 33.8011 78.6929 32.5269 79.1827C32.5362 79.1827 31.9564 78.6774 31.9564 78.6774C31.9409 78.7115 31.9316 78.7301 31.9254 78.7797C31.9161 78.851 31.9254 78.9099 31.975 78.9874C32.037 79.0649 32.068 79.0835 32.1238 79.1083C32.1641 79.1238 32.1734 79.1269 32.2013 79.13C32.2478 79.1362 32.2323 79.13 32.2106 79.1331C32.1672 79.1362 32.0928 79.1486 32.0215 79.1641C31.8758 79.1951 31.7208 79.2354 31.5658 79.2788C31.2526 79.3657 30.9364 79.4649 30.6201 79.5641C29.9846 79.7656 29.349 79.9764 28.7165 80.1904L28.6824 80.1997C27.2376 80.6554 25.7929 81.0802 24.3388 81.5421L19.9859 82.9435L15.6392 84.3634L11.3018 85.8175L11.3049 85.8361Z" fill="currentColor"/>
<path d="M64.228 69.3163C63.8994 69.5581 66.3456 67.236 66.5471 67.0747C66.3456 67.236 63.1398 66.8205 63.3382 66.5508C63.1398 66.8236 63.8994 69.5612 64.228 69.3163Z" fill="currentColor"/>
<path d="M92.342 32.1164C91.4584 33.3782 90.1501 35.4183 90.0013 35.5795C89.468 36.4879 86.997 40.5246 87.769 39.0984C86.3986 41.4609 85.5863 42.8685 85.484 42.6018C84.4826 44.4899 83.9152 45.3519 83.0564 46.0308C83.3727 46.1083 83.3665 46.1145 83.0471 46.0432C83.3665 46.1145 83.3572 46.1269 83.0316 46.0587C83.0936 46.4091 82.7867 46.6943 81.6892 47.2276C82.0953 47.147 81.6055 47.3671 79.9623 47.9283C81.1714 47.4415 81.407 47.2245 80.2661 47.6337C81.3109 47.8321 81.0505 48.5762 79.6739 50.2473C80.6443 49.8443 80.0274 50.8643 78.4586 52.7462C79.1562 52.1107 78.0183 53.2981 76.4495 54.808C76.6666 54.3274 75.1319 55.4125 73.9755 56.321C74.3289 55.8218 74.4963 55.4466 74.0716 55.9923C74.7474 55.8125 74.8684 56.3644 74.6699 57.2883C75.0792 57.248 74.8839 57.9765 74.6637 58.7268C74.5552 59.3624 73.7088 60.4537 73.2345 61.2784C73.1104 61.2102 73.1167 61.1978 73.2438 61.266C73.1198 61.1978 72.8841 61.6226 73.0174 61.6846C72.8841 61.6226 72.7508 61.573 72.8903 61.6381C72.7477 61.573 72.9523 61.142 73.0887 61.2102C72.9523 61.142 72.9554 61.1358 73.0887 61.204C72.9523 61.1358 72.9585 61.1265 73.0949 61.1947C73.5042 60.3452 74.239 59.2756 74.3103 58.6865C74.4622 57.9983 74.5955 57.3751 74.2514 57.3999C74.3692 56.5907 74.2111 56.1256 73.6561 56.2589C73.9661 55.797 73.8266 55.6048 73.5104 56.0636C73.8266 55.6048 74.1336 55.428 73.7522 55.9334C74.8994 55.0126 76.403 53.9461 76.0868 54.4111C77.6494 52.9478 78.7469 51.8595 77.9191 52.4579C79.5313 50.6814 80.1297 49.7482 79.0167 50.1109C80.5141 48.5328 80.7839 47.8073 79.5685 47.5903C80.8707 47.2059 80.9017 47.0323 79.6026 47.3454C80.9017 47.0292 81.1094 46.9919 79.8693 47.2958C81.4628 46.9237 81.8721 46.7656 81.3078 46.7129C82.4736 46.375 82.7588 46.1238 82.5139 45.6712C83.0006 45.8603 82.9851 45.8789 82.4891 45.6991C83.5308 45.1224 84.0982 44.2605 84.957 42.3166C85.2267 42.6607 86.0266 41.2563 87.3349 38.8783C87.2822 39.4177 88.4759 37.387 89.7408 35.4431C89.992 35.3222 91.3375 33.31 92.3327 32.1133L92.342 32.1164Z" fill="currentColor"/>
<path d="M72.0155 60.8994C71.7985 60.8126 71.9969 63.0666 72.1271 63.1348C71.9969 63.0635 74.1455 61.7489 74.2044 61.7954C74.1455 61.7458 71.8016 60.8095 72.0155 60.8963V60.8994Z" fill="currentColor"/>
<path d="M28.1761 95.0283C28.3404 94.2966 29.6147 93.6982 30.892 93.0347C31.3416 92.4116 32.6314 91.6892 33.5708 90.9916C33.515 91.004 34.907 89.9654 36.2433 88.9391L38.9158 86.8867C39.3622 86.5457 39.8118 86.2077 40.2614 85.8698C40.7109 85.5318 41.1636 85.197 41.6162 84.8653C42.1123 84.5056 44.9584 82.7198 43.5291 83.56C45.8327 82.1245 47.0636 81.3587 44.3507 82.8872C47.2372 81.2347 48.6199 80.4317 46.1024 81.8641C48.7998 80.3139 48.7068 80.3511 45.7335 81.9106C48.7037 80.3511 49.1625 80.1031 47.2527 81.1355C49.209 80.0752 49.0571 80.1465 46.4249 81.4239C49.2245 80.069 49.3392 80.0101 47.1814 80.9867C49.3888 79.9822 49.4539 79.9481 48.7781 80.286C49.488 79.9388 49.5067 79.9357 50.5515 79.9884C49.5284 79.9357 49.516 79.9388 50.2538 80.131C49.5253 79.9264 49.5749 79.8954 51.4041 78.7079C49.6679 79.8117 49.6431 79.8241 51.125 78.7699C50.4089 79.2722 50.1453 79.4458 50.3779 79.2288C50.6104 79.0118 51.6273 78.4413 52.6256 77.3438C51.6552 78.4134 50.7282 78.9064 50.6848 78.9405C50.6414 78.9746 51.1995 78.5064 52.359 77.536C51.2615 78.4475 51.0072 78.6459 51.3514 78.3359C51.6986 78.0259 53.4534 77.3934 53.9495 76.0633C53.534 77.3221 52.2753 77.6476 52.1885 77.6042C52.3373 77.6042 53.7138 77.2601 54.0549 76.0168C53.8751 77.1236 53.5619 77.0616 53.4224 76.5656C54.3525 76.3951 55.974 76.0664 55.3911 74.9038C55.6888 76.3734 58.0544 75.3037 56.9413 73.9024C58.9287 74.8046 59.8247 74.9906 58.5876 73.0746C60.6773 74.6186 61.3997 74.8294 60.299 72.4111C62.2182 74.5503 62.7576 74.6837 62.0507 71.8778C63.1576 74.5782 63.0801 74.848 61.8678 72.1166C63.0956 74.4201 62.7266 72.6808 62.336 70.2656C63.1793 71.7662 63.2413 70.2873 63.418 68.731C64.0102 69.4688 64.3574 68.3372 64.8008 67.5032C65.2968 67.6117 65.7929 66.7963 66.3044 66.4553C66.2951 66.4646 66.2889 66.4739 66.2951 66.4615C66.2858 66.4708 67.1663 65.6678 67.1787 65.7391C67.1632 65.6678 67.2439 65.7701 67.2594 65.8352C67.247 65.7701 66.4037 66.6475 66.4161 66.5979C66.4068 66.6475 66.4037 66.6506 66.4161 66.5979C66.4068 66.6475 66.4006 66.6537 66.4099 66.601C65.9138 67.0071 65.4363 67.9435 64.9744 67.714C64.562 68.6875 64.2489 69.9277 63.6908 68.9697C63.5637 70.7214 63.5234 72.1972 62.7297 70.4424C63.1545 73.025 63.4676 74.6216 62.3701 72.1166C63.4707 74.9906 63.5203 75.2324 62.3701 72.2995C63.5172 75.2293 63.3963 75.251 62.1872 72.3553C63.0336 75.3626 62.5499 75.2696 60.4851 72.9226C61.812 75.5425 61.1578 75.3688 58.8357 73.614C60.3951 75.7254 59.558 75.5549 57.2607 74.4449C58.7705 76.023 56.4112 76.9345 55.7818 75.4339C56.6902 76.7454 54.2378 77.0213 53.1155 77.3717C52.9915 77.9514 53.1434 78.122 53.5681 77.1764C52.9419 78.2925 51.308 78.7265 51.2057 78.8412C51.1033 78.956 52.3559 78.6986 53.1403 77.8212C52.3001 78.7606 50.7964 79.1916 50.4771 79.4303C50.1577 79.669 50.3841 79.6504 51.0847 79.4706C49.6028 79.914 49.5904 79.945 50.8305 80.5651C49.5408 79.9481 49.5346 79.9512 50.7189 80.7077C49.5346 79.9512 49.5253 79.9481 50.5329 80.7077C49.5067 79.9512 49.488 79.9512 49.0013 80.9712C49.4539 79.9636 49.3981 80.0163 47.5131 81.6161C49.3516 80.038 49.2555 80.1155 46.8093 82.016C49.1067 80.2178 49.2369 80.1155 47.5162 81.5169C49.1935 80.1434 48.7843 80.4596 46.121 82.4935C48.7843 80.4596 48.8649 80.3945 46.4094 82.2889C48.6944 80.5154 47.4232 81.4642 44.7445 83.4515C47.2496 81.582 46.0993 82.4253 43.8888 84.0437C45.2405 83.0298 42.4967 85.0203 41.9914 85.3799C41.5356 85.7055 41.0799 86.031 40.6241 86.3596C40.1683 86.6883 39.7126 87.0138 39.2568 87.3425C38.3484 87.9997 37.4369 88.6601 36.5285 89.3174C35.6201 89.9747 34.6559 90.6381 33.7847 91.2737C32.8205 91.9186 31.5028 92.5945 31.0037 93.1804C29.7077 93.7974 28.3807 94.3431 28.1699 95.0097L28.1761 95.0283Z" fill="currentColor"/>
<path d="M67.758 67.0366C67.7983 67.2443 68.6199 64.5222 68.6602 64.6307C68.623 64.5253 66.1117 64.9283 66.1241 65.0523C66.1086 64.9283 67.7983 67.2443 67.758 67.0366Z" fill="currentColor"/>
<path d="M97.123 41.2578C96.5185 41.9244 95.8612 42.5383 95.1977 43.149C94.5745 43.7877 93.9048 44.4016 93.26 45.0279C93.229 45.0434 91.747 46.2153 91.3067 46.8912C89.8899 47.9887 88.2963 49.0955 89.3535 48.7545C88.2963 49.0955 86.8391 50.0536 87.3848 50.5992C85.292 51.5045 84.2627 52.1804 85.416 52.4439C84.024 52.4005 83.7356 52.6145 84.4363 53.3833C83.2675 53.064 83.0443 53.2965 83.4318 54.3197C82.6505 53.6066 82.5141 53.7089 82.8334 54.7227C82.201 53.8732 82.018 53.9445 82.0366 54.9211C81.739 53.9259 81.6801 53.8918 81.801 54.8653C81.5747 53.8546 81.522 53.8112 81.5933 54.7475C81.3918 53.712 81.3267 53.6066 81.308 54.4189C81.1778 53.3647 81.1344 53.1601 81.0383 53.7151C81.091 53.002 81.4259 53.0392 81.5313 53.7678C81.1592 53.5911 80.8554 54.3817 80.2477 56.1489C80.1516 55.5195 79.5873 56.5984 78.5642 58.3005C78.5022 57.6464 77.5225 58.7284 76.3351 59.8724C76.0808 59.5035 74.8717 60.3995 73.8796 60.9885C74.0687 60.725 74.0563 60.4243 73.8393 60.7188C74.3446 60.4708 74.726 60.4522 74.7415 60.9761C75.0794 60.6537 75.1476 60.7157 74.943 61.156C75.2561 60.8676 75.2561 61.0196 75.0174 61.4412C75.222 61.2955 75.0577 61.5342 74.7973 61.8908C74.7694 61.8877 74.4376 62.2163 74.1276 62.5077C73.9726 62.5821 73.6687 62.8178 73.4021 63.0348C73.4269 62.9852 73.3649 62.9046 73.3432 62.9542C73.6005 62.7248 73.8951 62.4767 74.0346 62.3961C74.3322 62.0923 74.6516 61.7574 74.6454 61.7729C74.8965 61.4257 75.0143 61.2242 74.8035 61.4257C75.0298 61.0196 74.9678 60.9234 74.6237 61.1839C74.633 60.7498 74.264 60.7746 73.8083 60.9978C73.9881 60.7436 73.4269 60.7281 73.2998 60.9389C73.4269 60.7281 73.9757 60.4429 73.768 60.7281C74.757 60.0894 75.9785 59.1593 76.149 59.5376C77.352 58.3687 78.3069 57.3177 78.248 57.975C79.3021 56.3101 79.8664 55.2932 79.823 55.8884C80.5237 54.1832 80.8399 53.4144 81.0569 53.5384C81.1034 52.8718 81.3019 52.4346 81.3577 52.9183C81.305 52.4346 81.4383 52.909 81.5499 53.588C81.4755 53.0423 81.522 53.2128 81.7607 54.1398C81.6553 53.4237 81.7297 53.5074 82.0924 54.3879C81.9126 53.5198 82.0397 53.4795 82.5792 54.2453C82.2816 53.3492 82.4025 53.2562 83.097 53.8918C82.7559 52.9803 82.9822 52.7478 84.0705 52.9896C83.4318 52.3168 83.7108 52.106 85.044 52.0657C83.9496 51.8921 84.9634 51.2131 87.0406 50.2458C86.5167 49.7993 87.9676 48.8258 89.0373 48.4259C87.9707 48.8258 89.586 47.7159 91.0494 46.6214C91.4959 46.0045 93.0212 44.8387 93.0615 44.817C93.6971 44.2435 94.4226 43.6327 95.0892 43.0312C95.7744 42.4453 96.4781 41.8779 97.1292 41.2578H97.123Z" fill="currentColor"/>
<path d="M72.8992 62.1517C72.9085 62.0742 72.4341 63.9902 72.4465 63.984C72.4341 63.9933 74.2974 63.4166 74.2602 63.46C74.3005 63.4166 72.9085 62.0742 72.8992 62.1517Z" fill="currentColor"/>
<path d="M107.378 63.2062C107.325 63.5411 106.618 63.5442 104.882 63.3798C105.428 63.6186 104.392 63.6093 102.386 63.5411C103.075 63.6961 101.679 63.693 99.8906 63.693C100.213 63.786 98.6411 63.8077 97.3948 63.8542C97.0414 63.9224 95.6369 63.9007 94.9021 64.0309C93.9844 64.0185 92.9055 63.8139 92.4125 64.22C91.3181 63.9441 90.3291 63.7147 89.926 64.4464C88.7975 63.8666 87.9666 63.7674 87.4457 64.7161C87.2225 63.8542 87.2845 63.8387 87.5139 64.6975C87.0613 63.9255 86.9217 64.1549 87.0427 65.1223C86.8194 64.4898 86.9093 64.9455 87.1326 65.8167C86.9993 65.1781 87.2318 65.8632 87.3434 66.3624C87.2318 65.8601 86.6954 65.5904 86.7946 66.1671C86.0319 65.3548 85.3592 64.8959 84.6647 65.5036C84.0415 64.5828 83.3563 64.558 82.5192 65.3548C82.0573 64.7533 81.307 65.4881 80.6063 66.2632C80.2064 66.3624 79.4623 67.308 79.0344 67.8227C78.9755 67.8568 78.3833 68.5358 78.5632 68.3559C78.3833 68.5358 78.5849 67.7173 78.6562 67.6584C78.6438 67.277 78.867 66.5887 78.7523 66.3159C78.8422 65.95 78.8701 65.6493 78.6314 65.7268C78.712 65.3455 78.5787 65.2959 78.2221 65.516C78.1942 65.3114 77.9121 65.4788 77.6113 65.6741C77.509 65.6369 77.2207 65.8601 76.9975 65.9594C76.6223 66.1733 76.0519 66.6941 75.8038 66.6414C75.6705 66.9236 74.8551 67.5591 75.0752 67.0817C74.8551 67.5591 75.5093 66.7034 75.6271 66.4399C75.6829 66.5019 75.9682 66.0989 76.1325 65.8074C76.1945 65.7795 76.3185 65.5873 76.3371 65.4726C76.3991 65.4199 76.4394 65.3331 76.3898 65.3114C76.4487 65.2339 76.4518 65.2122 76.3619 65.2277C76.3557 65.1502 76.1852 65.1905 76.0178 65.2091C75.9309 65.2246 75.7666 65.3052 75.624 65.2897C75.3791 65.4013 75.0504 65.6059 74.8396 65.5253C74.7931 65.6896 74.7652 65.5625 74.7993 65.4137C75.0163 65.4664 75.345 65.2463 75.5806 65.1409C75.7387 65.1285 75.9092 65.0385 75.9899 65.0385C76.1883 64.9982 76.365 64.9114 76.4549 65.0602C76.6409 65.0354 76.675 65.1967 76.5913 65.3269C76.6533 65.3672 76.5975 65.485 76.5324 65.5594C76.5138 65.6896 76.3836 65.9004 76.3278 65.9376C76.1604 66.2477 75.872 66.6724 75.8348 66.6135C75.7046 66.8833 75.5465 66.6631 75.6581 66.412C75.9247 66.4213 76.489 65.8942 76.8487 65.6865C77.0936 65.5532 77.3974 65.3176 77.4811 65.3703C77.8284 65.1347 78.1353 64.9362 78.2004 65.1688C78.526 64.9052 78.6996 64.8773 78.6252 65.237C78.9755 65.0075 79.0747 65.1409 78.9507 65.5501C79.2762 65.5067 79.239 65.8601 79.1398 66.2973C79.2917 66.5732 79.0871 67.2708 79.0809 67.7173C79.0406 67.7297 78.6531 67.5901 78.7027 67.5529C79.1243 67.0104 79.9118 65.9966 80.3118 65.9004C81.0745 65.0571 81.9395 64.2014 82.4355 64.8773C83.3935 63.9658 84.1314 63.9782 84.7763 65.0106C85.4894 64.2852 86.1746 64.7564 86.9714 65.671C86.838 64.9889 86.5373 65.4044 86.6334 66.0214C86.4815 65.2618 86.4133 64.9579 86.4939 65.5315C86.3606 64.6324 86.3358 64.2821 86.5249 64.9672C86.4474 63.9286 86.5373 63.6372 86.8535 64.4774C86.7946 63.4171 86.9279 63.293 87.3155 64.2076C87.0675 63.2372 87.0954 63.2217 87.3496 64.1952C87.0985 63.2248 87.1295 63.2217 87.3837 64.1921C87.8643 63.1411 88.6921 63.2682 89.8764 63.9441C90.205 63.1318 91.2096 63.3891 92.3722 63.7395C92.7907 63.2744 93.9131 63.5163 94.8711 63.5721C95.5594 63.4202 97.0041 63.5039 97.3731 63.4512C98.6101 63.4419 100.185 63.4667 99.8751 63.3581C101.658 63.4171 103.056 63.4667 102.377 63.2837C104.38 63.4357 105.419 63.4884 104.879 63.2372C106.615 63.4667 107.325 63.5008 107.381 63.2031L107.378 63.2062Z" fill="currentColor"/>
<path d="M75.3576 64.509C75.4227 64.4749 73.5036 65.2065 73.5439 65.0329C73.5036 65.2065 74.7717 66.673 74.9019 66.3413C74.7717 66.673 75.4196 64.478 75.3545 64.509H75.3576Z" fill="currentColor"/>
<path d="M38.9971 24.3438C40.2868 26.1265 41.5518 27.9247 42.8291 29.7167L44.7297 32.4109C45.6815 33.7596 46.6395 35.1206 46.6302 35.1051C46.6395 35.1175 47.83 36.8196 48.5369 37.7962C49.6654 39.4115 50.8219 41.0764 50.4436 40.4874C51.3985 41.8825 52.1271 42.9305 52.3721 43.163C53.2154 44.4248 53.7951 45.2433 54.316 45.8262C54.3191 45.9595 54.3036 45.9409 54.2974 45.8045C54.4369 46.0804 54.6012 46.2447 54.812 46.2354C54.8058 46.3471 54.8492 46.3502 54.9609 46.2633C54.8803 46.3347 54.9206 46.2695 55.0694 46.0835C54.9454 46.192 55.088 45.7177 55.2554 45.5193C55.088 45.7177 55.3019 46.1827 55.4972 46.0618C55.5995 46.8555 56.0429 47.705 56.6599 48.5328C56.7126 49.0134 57.3264 49.9714 58.0488 50.855C58.2038 51.1774 59.044 52.1354 59.8873 52.8082C60.2284 53.1152 61.2112 53.9213 62.1196 54.3429C61.9026 54.3305 62.2932 54.5847 62.5072 54.5723C62.2901 54.5847 61.8778 54.6374 62.07 54.6622C61.6856 54.6777 61.4685 54.6963 61.4561 54.8483C61.143 54.8483 61.0469 54.9661 61.1585 55.2141C61.0593 55.2513 61.2081 55.4993 61.391 55.7567C61.4251 55.8156 61.6049 56.0357 61.8065 56.2775C62.2777 56.7829 62.9815 57.4402 63.7721 58.1719C63.5954 58.0013 64.3147 58.6617 64.541 58.8756C64.3147 58.6617 63.4745 58.1657 63.6419 58.3548C63.2078 58.0106 62.9288 57.8401 62.7397 57.8804C62.5847 57.7006 62.5041 57.6758 62.5382 57.8308C62.4699 57.682 62.4668 57.682 62.5382 57.8308C62.473 57.682 62.4762 57.6727 62.5506 57.8184C62.4824 57.6696 62.4793 57.6634 62.5506 57.8153C62.4793 57.6696 62.4793 57.6758 62.5506 57.8277C62.4824 57.7006 62.4948 57.7347 62.5847 57.9238C62.5754 57.8959 62.6715 58.0261 62.8606 58.3424C63.1427 58.6431 63.5923 59.1609 64.2 59.9205C64.0139 59.6383 64.231 59.8864 64.4263 60.1778C64.231 59.8864 63.9643 59.6972 64.1441 59.9856C63.8744 59.6383 63.7752 59.5639 63.8434 59.812C63.6543 59.5205 63.6419 59.5236 63.8062 59.8089C63.6419 59.5329 63.645 59.5639 63.8155 59.874C63.6698 59.6352 63.6977 59.691 63.8837 60.0352C63.7225 59.7406 63.676 59.7654 63.8341 60.06C63.6481 59.7158 63.6202 59.66 63.7566 59.8926C63.5923 59.5763 63.5768 59.5453 63.7473 59.7841C63.5954 59.4771 63.6264 59.4585 63.8093 59.7375C63.6667 59.4554 63.6853 59.4585 63.8651 59.7437C63.8155 59.5019 63.9116 59.5732 64.1938 59.9143C64.0077 59.6321 63.9581 59.691 64.1379 59.9794C63.5179 59.2291 63.0528 58.7299 62.7366 58.4416C62.5506 58.1161 62.4513 57.9889 62.4296 58.0044C62.349 57.7998 62.3304 57.7595 62.3738 57.8587C62.3118 57.6758 62.3087 57.6417 62.3862 57.7409C62.3366 57.5766 62.3583 57.5549 62.4389 57.6789C62.3924 57.5301 62.411 57.5239 62.501 57.6541C62.5537 57.5053 62.625 57.5425 62.8048 57.7037C63.0156 57.6789 63.2978 57.8401 63.7535 58.1595C63.5768 57.9889 63.459 58.1564 63.6233 58.3424C63.1396 57.8866 62.8141 57.5952 62.5878 57.434C62.2002 57.034 61.8344 56.6651 61.5925 56.4698C61.4065 56.2093 61.2143 55.9768 61.1399 55.9272C60.9725 55.6296 60.7772 55.3505 60.8423 55.2234C60.7492 54.9599 60.7709 54.7801 60.9849 54.7987C60.9415 54.5816 61.0469 54.5227 61.3104 54.5537C61.3476 54.3708 61.5832 54.3522 62.0018 54.3274C61.7879 54.3057 61.7631 54.6126 61.9522 54.6467C61.0562 54.2158 60.0548 53.4066 59.6362 53.1245C58.8177 52.4083 57.9434 51.4038 57.7109 51.1092C57.0257 50.1636 56.3994 49.1808 56.2692 48.7405C55.7143 47.86 55.2647 47.0105 55.0787 46.2571C54.9578 46.3378 55.3112 46.3316 55.5065 46.2354C55.2709 46.4432 55.2244 46.5889 55.1934 46.6695C54.9857 46.7408 54.8803 46.747 54.8741 46.7377C54.719 46.7315 54.6446 46.6943 54.6167 46.6602C54.4679 46.6106 54.3656 46.5207 54.2509 46.4122C54.192 46.3781 54.1083 46.2851 53.9594 46.1331C54.0338 46.2106 54.0245 46.2013 53.9501 46.1238C54.0245 46.2013 54.0152 46.1889 53.9408 46.1114C53.4882 45.4759 52.8991 44.6667 52 43.442C51.8202 43.163 51.0761 42.1244 50.0902 40.7509C49.9352 40.506 49.0268 39.2286 48.1959 38.0474C47.8145 37.4893 46.9495 36.2523 46.3232 35.3315C46.3325 35.3439 45.3993 33.9642 44.4785 32.5969L42.6338 29.8624C41.4216 28.027 40.2 26.1978 39.0002 24.3531L38.9971 24.3438Z" fill="currentColor"/>
<path d="M63.0403 60.242C62.9411 59.9258 64.3114 60.7381 64.4913 61.0574C64.3114 60.735 64.2587 59.1445 64.4727 59.3925C64.2587 59.1414 62.9442 59.9258 63.0403 60.242Z" fill="currentColor"/>
<path d="M88.8252 19.457C87.9292 21.4661 87.0052 23.4627 86.0968 25.4655L84.7172 28.4636C84.0289 29.9611 83.3313 31.4741 83.3375 31.4617C83.3313 31.4772 82.457 33.3591 81.9641 34.4597C81.1332 36.2455 80.2712 38.0809 80.5906 37.4578C79.862 38.9831 79.3194 40.1396 79.2419 40.4682C78.5722 41.8293 78.1568 42.7408 77.9119 43.4849C77.8003 43.5562 77.8065 43.5314 77.9212 43.457C77.7538 43.7174 77.6917 43.9406 77.8065 44.1205C77.7072 44.1732 77.7258 44.2104 77.8561 44.2631C77.7537 44.229 77.8313 44.2321 78.0669 44.2662C77.9119 44.2135 78.3924 44.0988 78.6467 44.1422C78.3924 44.0988 78.0948 44.5142 78.2963 44.6227C77.6607 45.1095 77.1492 45.9187 76.7399 46.8674C76.3493 47.1526 75.8284 48.1664 75.4254 49.233C75.2238 49.5275 74.8146 50.7366 74.6565 51.8032C74.5604 52.2527 74.3557 53.5084 74.4488 54.5036C74.3495 54.3083 74.3278 54.7733 74.4457 54.9562C74.3278 54.7764 74.0736 54.4447 74.148 54.6214C73.9434 54.2959 73.8194 54.1191 73.6799 54.1811C73.5217 53.9114 73.3729 53.8866 73.2148 54.1067C73.1311 54.0416 72.9947 54.2897 72.8614 54.578C72.8273 54.6338 72.725 54.9035 72.6195 55.1981C72.418 55.8584 72.201 56.7979 71.9623 57.8489C72.0212 57.6102 71.8103 58.5651 71.739 58.8689C71.8103 58.5651 71.8196 57.5915 71.739 57.8272C71.8196 57.2784 71.8258 56.9529 71.6956 56.8072C71.7731 56.5839 71.7514 56.5002 71.6367 56.6087C71.7328 56.4723 71.7297 56.4723 71.6367 56.6087C71.7328 56.4754 71.7421 56.4754 71.6522 56.6118C71.7452 56.4785 71.7514 56.4754 71.6553 56.6118C71.7452 56.4785 71.7421 56.4816 71.6429 56.618C71.7173 56.4971 71.6956 56.525 71.5778 56.6955C71.5995 56.6738 71.5313 56.8227 71.3546 57.1451C71.2337 57.5388 71.0136 58.1868 70.6632 59.0952C70.8151 58.7914 70.7097 59.1045 70.5547 59.4208C70.7097 59.1045 70.7376 58.779 70.5795 59.0797C70.7438 58.6705 70.7593 58.5465 70.5795 58.7325C70.7376 58.4224 70.7283 58.4131 70.564 58.6984C70.719 58.4193 70.6942 58.438 70.5113 58.7387C70.6446 58.4938 70.6105 58.5434 70.4059 58.8782C70.5795 58.5899 70.5361 58.562 70.3594 58.8503C70.564 58.5155 70.5981 58.4628 70.4648 58.6984C70.657 58.3976 70.6756 58.3697 70.5547 58.6333C70.7438 58.348 70.7748 58.3666 70.626 58.6643C70.7965 58.4007 70.8058 58.4193 70.6508 58.717C70.8368 58.5527 70.8213 58.6736 70.6663 59.0859C70.8182 58.7821 70.7407 58.7697 70.5826 59.0704C70.9205 58.1558 71.1221 57.5047 71.212 57.0862C71.4011 56.7638 71.4631 56.6118 71.4352 56.5994C71.5716 56.4289 71.5964 56.3886 71.5344 56.4785C71.6615 56.3359 71.6894 56.3111 71.6429 56.4289C71.7607 56.3049 71.7886 56.3111 71.7204 56.4444C71.8258 56.3297 71.8413 56.3421 71.7731 56.4847C71.9282 56.4537 71.9313 56.5374 71.8817 56.77C72.0088 56.9405 72.0119 57.266 71.9623 57.821C72.0212 57.5822 71.8165 57.5636 71.739 57.7993C71.891 57.1544 71.9809 56.7265 72.0057 56.4506C72.1576 55.9174 72.294 55.412 72.3405 55.1082C72.4738 54.8167 72.5761 54.5346 72.5823 54.4447C72.756 54.1501 72.9017 53.8401 73.0412 53.8339C73.221 53.6231 73.3884 53.5518 73.4814 53.744C73.6458 53.5983 73.7512 53.6572 73.8566 53.9021C74.0333 53.8432 74.1697 54.0354 74.3992 54.3858C74.3092 54.1904 74.0333 54.3238 74.0984 54.5036C74.024 53.5115 74.2193 52.2403 74.2534 51.7381C74.4643 50.6684 74.8952 49.4097 75.0347 49.0624C75.5091 47.9959 76.0454 46.9604 76.3648 46.6287C76.8484 45.7047 77.3569 44.8924 77.9181 44.353C77.7879 44.2879 77.9708 44.5917 78.1506 44.7126C77.853 44.6103 77.7041 44.6475 77.6204 44.6599C77.4561 44.5142 77.3972 44.4274 77.4003 44.4181C77.329 44.2817 77.3228 44.198 77.3352 44.1577C77.3042 44.0057 77.329 43.8724 77.3662 43.7174C77.3662 43.6492 77.4034 43.5283 77.4623 43.3237C77.4344 43.426 77.4344 43.4167 77.4654 43.3113C77.4344 43.4167 77.4406 43.4012 77.4716 43.2958C77.7941 42.5858 78.2002 41.6681 78.811 40.2791C78.9629 39.9846 79.4869 38.8188 80.1813 37.2779C80.3178 37.0206 80.9657 35.5944 81.5703 34.283C81.8617 33.6722 82.5004 32.305 82.9841 31.3004C82.9779 31.3159 83.7034 29.8154 84.4257 28.3334L85.8674 25.3663C86.8471 23.3976 87.8175 21.4227 88.8128 19.4601L88.8252 19.457Z" fill="currentColor"/>
<path d="M69.8076 58.2544C70.0308 58.0126 70.0153 59.6031 69.8293 59.9193C70.0184 59.6031 71.3702 58.7598 71.2586 59.0698C71.3671 58.7598 70.0308 58.0126 69.8076 58.2544Z" fill="currentColor"/>
<path d="M73.0863 67.8425C73.384 68.7447 73.4708 68.7571 73.3561 67.8239C73.6196 68.6982 73.6785 68.6021 73.57 67.6596C73.8397 68.4037 73.88 68.0688 73.8211 67.1387C73.9358 67.8952 73.9699 67.7185 73.8645 66.9961C73.9699 67.7185 74.0784 67.858 73.9761 67.1046C74.5838 68.3479 75.145 69.278 75.7929 68.4099C75.7402 69.526 75.7495 69.5291 75.8054 68.4161C75.7495 69.5322 75.765 69.5446 75.8209 68.4254C76.2735 69.8856 76.8533 70.1554 77.7896 69.0578C77.5684 69.8164 77.5695 69.8164 77.7927 69.0578C77.4609 70.1957 77.4702 70.1957 77.8051 69.0578C78.2143 70.3073 79.1599 69.9042 80.4404 69.033C79.9598 69.8205 80.1738 69.7616 80.6481 69.0113C80.1738 69.7616 80.1893 69.9941 80.6977 69.2191C80.2637 70.3135 80.3474 70.7227 81.2341 70.1554C80.8124 71.1971 81.1318 71.3552 82.158 70.8281C81.4325 71.5257 81.4046 71.5164 82.1301 70.8157C82.0371 71.7614 83.0044 71.7583 84.2508 71.6311C84.3221 72.2667 85.3979 72.3132 86.3683 72.4558C86.7682 72.8558 87.7697 73.0015 88.4952 73.2712C89.1989 73.5565 89.9027 73.8355 90.6096 74.1114L94.8571 75.7484L96.9809 76.5731C97.6877 76.8491 98.3946 77.125 99.0984 77.4133C98.3729 77.1932 97.6474 76.9607 96.9251 76.7312C96.2027 76.4987 95.4772 76.2755 94.7579 76.0337C93.3162 75.5593 91.8777 75.0664 90.4484 74.5486L88.3153 73.7518C87.2023 73.3673 85.8102 73.1069 86.1823 72.955C85.122 72.8465 84.0058 72.8093 84.0554 72.1303C82.7037 72.2977 81.7271 72.3008 81.9317 71.2963C81.107 72.059 81.0946 72.0559 81.9193 71.2901C81.0977 72.0528 81.0822 72.0466 81.9038 71.2808C80.7566 71.8637 80.4125 71.6807 80.8714 70.4995C79.8854 71.1227 79.7924 70.5863 80.2327 69.3214C79.7087 70.1895 79.935 70.36 80.49 69.5074C79.1289 70.4313 78.1554 70.8126 77.7369 69.4547C77.3741 70.6638 77.3896 70.6669 77.7524 69.4547C77.0703 70.6297 76.751 70.5708 76.6424 69.2129C76.1402 70.3538 75.8643 70.05 75.6379 68.6796C75.6007 69.8577 75.6255 69.8763 75.6658 68.6951C74.99 69.5818 74.435 68.537 73.8397 67.2286C73.9575 68.0099 74.1001 67.9758 73.9947 67.1945C74.0288 68.1556 73.973 68.5122 73.6785 67.7526C73.7715 68.7354 73.6909 68.8439 73.3964 67.9417C73.4925 68.9121 73.3778 68.8811 73.0615 67.9479C73.2847 68.8594 73.2972 68.7292 73.0863 67.8425Z" fill="currentColor"/>
<path d="M72.8749 68.732C73.1819 69.8016 72.2022 67.6531 72.0068 67.0547C72.2022 67.6531 74.0004 67.9042 73.8919 67.1415C74.0004 67.9042 73.1819 69.7985 72.8749 68.732Z" fill="currentColor"/>
<path d="M61.9123 65.0285C61.224 65.8191 61.0969 65.7849 61.5372 64.8548C60.9047 65.633 60.852 65.4997 61.2861 64.5572C60.6846 65.1959 60.728 64.8145 61.0876 63.8596C60.7032 64.6006 60.7063 64.3898 61.0659 63.6829C60.7032 64.3898 60.5079 64.4797 60.8768 63.7325C59.6491 64.7091 58.5825 65.3819 57.9253 64.089C57.6679 65.3044 57.6524 65.3044 57.9067 64.089C57.6524 65.3075 57.6307 65.3137 57.8819 64.089C56.8091 65.3881 55.9131 65.3416 54.9179 63.6457C55.0481 65.044 55.0419 65.0409 54.9117 63.6457C55.0419 65.044 55.0264 65.0378 54.8931 63.6395C53.9475 64.737 52.7321 63.7697 51.1882 62.1172C51.6284 63.2271 51.3463 63.0442 50.8998 61.9746C51.3463 63.0411 51.2533 63.2799 50.7696 62.1668C51.0548 63.5775 50.8161 63.965 49.7341 62.8582C50.0193 64.2038 49.5233 64.1945 48.2304 63.0504C49.0427 64.2038 49.0861 64.21 48.2738 63.0504C48.1219 64.1077 46.7639 63.5558 45.0401 62.7156C44.7518 63.3512 43.2202 62.79 41.8095 62.3931C41.1244 62.5916 39.6703 62.1792 38.5666 62.0552C37.4876 61.9591 36.4149 61.8568 35.336 61.7483L28.8624 61.0817L25.6225 60.7562C24.5436 60.6476 23.4647 60.5422 22.3857 60.4492C23.4771 60.6259 24.5653 60.7903 25.6535 60.9546C26.7418 61.1189 27.8331 61.2894 28.9182 61.4413C31.0947 61.7545 33.2649 62.0459 35.4352 62.3063C35.4352 62.3063 37.0567 62.4862 38.6782 62.6691C40.3586 62.8923 42.4017 63.4039 41.9212 63.0318C43.4465 63.5155 45.0339 64.1108 45.1641 63.3636C47.0213 64.3092 48.3947 64.8641 48.404 63.6829C49.3372 64.9603 49.3589 64.9634 48.4257 63.6829C49.3589 64.9603 49.3806 64.9634 48.4505 63.6829C49.8922 64.9541 50.4317 64.9541 50.1402 63.438C51.3463 64.6595 51.6377 64.1449 51.3928 62.5482C51.8733 63.7666 51.5044 63.8193 50.9742 62.5978C52.6205 64.3526 53.8793 65.3075 54.8714 64.1015C55.0233 65.5927 55.0016 65.5865 54.8466 64.0952C55.4574 65.7322 55.9255 65.8501 56.4836 64.4673C56.8494 65.9648 57.3331 65.7974 58.0586 64.4673C57.7609 65.7415 57.7206 65.7477 58.0152 64.4673C58.7065 65.7942 59.7979 64.9975 61.0287 63.9464C60.6288 64.7122 60.4397 64.5913 60.8179 63.8224C60.4831 64.8269 60.4552 65.2362 61.1 64.5975C60.6784 65.5896 60.7559 65.7508 61.4411 64.9572C61.0163 65.9369 61.1868 65.9679 61.9123 65.1525C61.3264 65.9958 61.3481 65.8501 61.9123 65.0254V65.0285Z" fill="currentColor"/>
<path d="M61.9493 66.0945C61.199 67.0556 63.2174 65.3287 63.67 64.8047C63.2174 65.3287 60.6069 64.5753 60.9882 63.8281C60.6069 64.5753 61.199 67.0556 61.9493 66.0945Z" fill="currentColor"/>
<path d="M71.2596 67.9453C71.7432 68.7855 71.9913 69.0862 71.8269 68.3174C72.3416 69.2847 72.5772 69.4924 72.4377 68.5065C72.7601 69.4862 72.7912 69.4893 72.4718 68.5065C72.7912 69.4893 72.8191 69.5234 72.4966 68.5344C72.9679 69.6908 73.1911 70.0598 73.064 68.9901C73.467 70.159 73.5631 70.1807 73.3709 68.9808C73.7306 70.1032 73.7926 69.9761 73.6282 68.7607C73.8577 69.8954 73.9538 69.728 73.7461 68.615C73.9507 69.728 74.022 69.9512 73.8143 68.7948C74.0716 70.0815 74.1491 70.3667 74.0003 69.2351C74.27 70.5992 74.3599 70.838 74.2545 69.5761C74.484 70.9217 74.5181 70.9372 74.3847 69.604C74.5894 70.9248 74.6328 70.8721 74.5367 69.5141C74.763 70.7573 74.8312 70.5434 74.8219 69.1638C74.9056 70.4318 75.0761 70.0722 75.0265 68.8568C75.0761 70.0691 75.1319 70.5093 75.0885 69.2227C75.1567 70.6519 75.1877 70.9558 75.2001 69.7187C75.2683 71.2131 75.349 71.4022 75.3955 69.9916C75.4451 71.4022 75.5691 71.2472 75.7241 69.7838C75.7551 71.0612 75.8543 70.8132 76.0558 69.3932C75.9442 70.6984 76.245 70.1714 76.3938 68.9591C76.245 70.1745 76.2047 70.8287 76.369 69.5141C76.1954 70.993 76.1613 71.3402 76.3628 70.1032C76.1799 71.644 76.1861 71.9448 76.4713 70.5775C76.2636 72.0378 76.2574 72.0378 76.5581 70.6023C76.3256 72.0316 76.3597 72.0006 76.6542 70.5713C76.3845 71.9944 76.4775 71.9231 76.7658 70.5124C76.5984 71.8487 76.7472 71.613 77.2092 70.1559C76.865 71.5045 77.2991 70.993 77.6773 69.7342C77.296 70.993 77.1379 71.6999 77.5533 70.3605C77.1038 71.8673 77.0169 72.2052 77.4634 70.9713C77.0076 72.4346 76.989 72.568 77.482 71.2286C77.0201 72.6796 77.0231 72.6889 77.5316 71.303C77.0387 72.6982 77.0728 72.6889 77.6029 71.303C77.1224 72.6796 77.1565 72.661 77.7207 71.2751C77.2557 72.6269 77.3487 72.5432 77.9843 71.1604C77.5595 72.4346 77.7641 72.2021 78.5175 70.8349C77.9037 72.1091 78.5237 71.5789 79.1593 70.4163C78.5268 71.5789 78.1672 72.3695 78.8617 71.1232C78.1021 72.5215 77.9502 72.8284 78.6446 71.703C77.8882 73.0485 77.8354 73.1849 78.5857 71.9758C77.8199 73.281 77.8137 73.3275 78.5826 72.0905C77.8168 73.3741 77.8137 73.4051 78.5981 72.1463C77.823 73.4144 77.8292 73.4175 78.6818 72.1742C77.9378 73.4268 78.0277 73.3834 78.933 72.1463C78.2416 73.3369 78.4741 73.1663 79.5065 71.951C78.6229 73.1074 79.2647 72.7571 80.1638 71.6937C79.2647 72.7571 78.8462 73.4051 79.8104 72.3075C78.7718 73.5353 78.6074 73.7709 79.5686 72.8005C78.5485 73.9476 78.5082 74.0406 79.5375 72.9927C78.5206 74.0995 78.5082 74.0902 79.5686 73.0392C78.5888 74.1367 78.7997 74.0871 80.0181 73.0702C79.0725 74.0623 79.3236 73.9445 80.5855 72.9772C79.4724 73.9135 80.0832 73.7151 81.19 72.8594C80.0832 73.7182 79.6709 74.2329 80.849 73.3772C79.6089 74.3321 79.4693 74.4871 80.6568 73.7399C79.4135 74.6669 79.3887 74.7289 80.663 73.9538C79.4445 74.794 79.5717 74.8157 80.9451 74.0964C79.7763 74.8715 79.9747 74.8405 81.3792 74.1709C80.0956 74.856 80.201 74.8529 81.4877 74.1833C80.2041 74.8529 80.2661 74.9149 81.559 74.267C80.7312 75.4668 81.6396 75.8854 83.4905 76.2047C82.3744 76.5116 82.6937 76.6201 84.0207 76.6356C82.8456 76.7349 83.5246 77.0759 84.5819 77.0387C83.8502 77.3177 84.6035 77.5534 85.7197 77.8262C85.667 78.2726 87.1365 78.8183 88.0636 79.3113C88.7053 79.7608 89.6602 80.2507 90.4663 80.7095C92.0785 81.6272 93.7155 82.4984 95.3587 83.3665C96.9926 84.2501 98.6358 85.1183 100.242 86.0546C98.5769 85.2299 96.9089 84.4145 95.2347 83.6084C93.5698 82.7868 91.9049 81.959 90.2586 81.0847C89.437 80.6475 88.4387 80.1546 87.8217 79.7205C86.8575 79.2214 85.3352 78.6416 85.4468 78.2416C84.2625 77.9316 83.4905 77.6836 84.2873 77.4541C83.1588 77.4448 82.4643 77.0976 83.7106 77.0511C82.3 76.9736 81.9744 76.8651 83.1557 76.6077C81.2242 76.2388 80.2816 75.8109 81.1528 74.608C79.8197 75.2467 79.9871 75.3056 81.3296 74.7041C79.8538 75.2901 79.6213 75.3211 80.8087 74.6111C79.3546 75.2436 79.1345 75.2312 80.2599 74.2887C78.9454 75.0079 78.9237 74.887 80.1204 73.9197C78.9144 74.6948 78.9857 74.5801 80.17 73.5849C79.057 74.36 79.2368 74.1553 80.4305 73.095C79.3112 74.0437 79.5065 74.36 80.694 73.4919C79.3484 74.3879 79.0756 74.5057 80.0646 73.588C78.8276 74.5274 78.6943 74.5708 79.7236 73.5942C78.5175 74.5615 78.3842 74.5801 79.3267 73.4919C78.2478 74.5088 78.2168 74.4964 79.2182 73.4206C78.1672 74.453 78.1455 74.422 79.1252 73.312C78.0928 74.3352 78.0866 74.2422 79.0415 73.0609C78.0711 74.0654 78.1517 73.9135 79.0973 72.6579C78.2354 73.6531 78.4214 73.3772 79.3887 72.0657C78.5051 73.2345 78.7253 73.5291 79.6926 72.4191C78.564 73.588 78.3067 73.7678 79.0353 72.6331C78.037 73.8267 77.9068 73.8918 78.6446 72.6703C77.7393 73.8763 77.6742 73.8887 78.3997 72.6052C77.575 73.8422 77.5471 73.8174 78.2788 72.5215C77.4882 73.7647 77.4696 73.7244 78.1858 72.4036C77.4169 73.6252 77.4293 73.5291 78.1052 72.1525C77.4169 73.4144 77.4355 73.3151 78.1114 71.9417C77.4541 73.1663 77.5192 72.9958 78.1889 71.582C77.5936 72.7354 77.7486 72.4005 78.4338 70.9496C77.8199 72.2393 78.0804 72.4967 78.778 71.2379C77.9285 72.5928 77.7083 72.8315 78.192 71.5851C77.4634 72.9524 77.3518 73.0547 77.8541 71.7247C77.1658 73.1074 77.0387 73.1849 77.4014 71.7495C76.8309 73.1322 76.7627 73.0578 77.1596 71.582C76.6759 72.94 76.6697 72.8346 77.0511 71.3495C76.6294 72.6672 76.6573 72.4718 77.0263 70.9558C76.6728 72.1866 76.7627 71.8177 77.1441 70.2737C76.803 71.6378 77.0728 71.8332 77.4882 70.4752C76.9425 71.9417 76.7751 72.1959 76.9704 70.8659C76.6201 72.2858 76.4899 72.3788 76.8123 70.9465C76.4403 72.3943 76.3938 72.4408 76.617 70.9992C76.3039 72.447 76.276 72.4594 76.5023 71.0054C76.2109 72.4532 76.1768 72.4439 76.3721 70.9775C76.1147 72.4191 76.0837 72.3881 76.2543 70.9093C76.0279 72.3478 76.0124 72.3013 76.1705 70.8194C75.9256 72.1773 75.9101 71.982 76.031 70.4566C75.8791 71.8022 75.8822 71.6192 76 70.1249C75.8729 71.3588 75.9039 70.9899 76.0248 69.4955C75.9163 70.8163 76.1737 70.9465 76.338 69.6164C76.0744 71.0643 75.9659 71.3247 75.9628 70.035C75.7923 71.4859 75.7272 71.5975 75.7272 70.221C75.5815 71.6844 75.4978 71.7681 75.3738 70.3202C75.2528 71.7433 75.1567 71.5944 75.042 70.1063C75.0575 71.4394 75.0234 71.272 74.9118 69.821C74.949 71.0426 74.9118 70.7077 74.8033 69.2692C74.8932 70.5558 75.1195 70.6333 75.0699 69.3312C75.0358 70.7511 74.9552 70.9899 74.7196 69.7342C74.7723 71.1387 74.7072 71.2255 74.4405 69.8768C74.515 71.2627 74.4002 71.1945 74.1057 69.7962C74.1894 71.0271 74.0964 70.7294 73.7864 69.3467C73.9724 70.469 73.8949 70.1652 73.6096 68.8723C73.8484 70.0288 74.0127 70.0815 73.7957 68.9064C73.9321 70.1714 73.8515 70.3171 73.4515 69.17C73.6096 70.4225 73.4515 70.376 73.002 69.1669C73.1012 70.2272 72.8749 69.8117 72.3881 68.6336C72.7291 69.6319 72.785 69.6691 72.4439 68.6584C72.5586 69.6629 72.3044 69.4118 71.7711 68.4197C71.9479 69.1917 71.6998 68.8754 71.21 68.0166C71.5324 68.7452 71.5727 68.6677 71.2596 67.9484V67.9453Z" fill="currentColor"/>
<path d="M70.9527 68.9195C71.4085 69.7907 70.3078 67.6576 70.0908 67.2422C70.3078 67.6576 72.1991 67.9987 71.9758 67.3352C72.1991 67.9987 71.4085 69.7907 70.9527 68.9195Z" fill="currentColor"/>
</svg>
