<svg width="104" height="102" viewBox="0 0 104 102" fill="none" xmlns="http://www.w3.org/2000/svg">
<path d="M42.0419 96.4096C44.8098 88.3395 45.2782 87.4081 47.0798 93.9696C46.5566 86.4894 49.4933 81.5546 57.7381 84.8206C50.7296 80.5095 51.1558 79.4433 58.0166 75.2334C53.2233 77.2183 54.8731 76.0551 58.7381 73.5308C56.9364 74.3105 57.3583 73.7247 58.6706 72.5532C58.9955 72.1149 60.2106 71.0908 61.4512 70.0415C63.1052 68.6466 64.8056 67.2096 66.4891 65.7894C68.1769 64.365 69.8478 62.9533 69.5229 64.2765C73.0292 60.2646 74.5482 58.9835 78.9786 58.7728C77.3035 56.6531 94.9448 49.6322 98.6621 47.3734C81.7465 53.6399 97.0798 45.5866 98.6031 44.5036C98.2402 44.6005 92.3794 47.9929 97.9744 44.0906C97.5735 44.3519 79.9744 55.3129 96.4301 43.627C94.3288 44.8871 93.4216 45.0388 94.5018 43.0286C91.755 45.8437 90.9997 46.4969 92.6706 44.3561C89.5693 46.7329 86.4596 50.8838 88.0883 42.5566C88.3161 46.577 73.7128 54.7988 73.0081 53.366C73.198 54.8915 75.1727 52.776 72.7001 49.6617C74.6452 52.9361 74.641 53.6947 71.2571 54.0065C73.8858 53.8043 73.2486 53.1469 70.2022 51.1788C72.9659 53.2143 73.3161 53.9391 70.4638 54.5839C73.5904 54.0318 73.0208 53.3955 69.5946 51.8068C72.0798 53.4545 69.2106 55.6627 65.8014 56.8132C68.8098 55.7091 71.2739 53.5514 68.7212 52.5063C71.3836 53.5725 69.025 55.7512 66.0039 56.8511C68.8731 55.8945 71.0756 53.8633 68.371 53.0963C70.6832 53.9349 68.0841 56.042 65.4301 56.9733C68.3161 56.3201 71.1474 54.4996 68.5398 53.8633C71.9912 54.6555 69.9997 56.6362 66.7929 57.4495C69.9195 56.6488 71.8267 54.685 68.4132 53.956C70.8351 54.5207 67.9364 56.3243 65.2613 56.9185C67.6579 56.0504 70.2782 53.9771 68.1853 53.2564C70.776 53.9181 68.6579 55.9282 65.9659 56.8596C68.7634 55.8018 70.9912 53.6568 68.4258 52.7802C70.679 53.6315 68.1389 55.7512 65.4807 56.7795C68.5566 55.7175 71.5187 53.5641 69.198 52.1945C72.6537 53.5346 73.3372 54.1414 70.3035 54.7272C73.1305 54.1498 72.2613 53.5641 68.9828 52.3799C71.3119 53.6315 68.7381 55.8018 65.9828 56.8596C68.582 55.9324 70.5229 53.9223 67.9744 53.3407C69.6115 53.9265 66.7634 55.9409 64.8393 56.6783C66.7128 56.2527 67.0081 56.0631 65.2866 55.8271C64.1811 55.6206 78.9786 53.425 66.0587 57.5717C67.776 56.8764 67.0925 57.361 65.0756 58.1954C67.1052 58.3387 67.2866 58.7011 65.4469 59.6578C67.9195 59.5229 68.3668 59.9823 66.6073 61.7986C67.6115 59.7463 66.6115 59.1563 64.9111 59.1352C66.3035 58.5452 66.987 58.5284 66.0967 59.7673C66.9322 58.3134 65.4343 57.8836 64.0292 57.694C63.8182 57.4706 63.7001 57.4875 63.89 57.7867C65.0039 58.0479 66.4258 58.5958 66.0714 60.3826C66.6495 58.9034 65.0798 58.5368 63.6579 58.4441C62.7338 58.305 61.9617 58.4399 61.506 58.9076C60.5988 59.8474 60.9617 62.1189 61.9617 66.371C58.9448 59.8474 58.4638 61.2592 57.4933 67.1379C58.3288 60.686 58.6073 59.0594 58.9997 66.8261C58.7339 57.3948 58.582 57.3484 56.0925 66.5227C57.7339 58.7896 57.0377 60.2773 54.4132 66.3583C57.0377 60.273 57.7128 58.7812 55.0503 66.2066C58.2528 57.1925 55.5313 63.1471 49.5946 70.6778C54.3288 64.3018 53.2655 65.5534 48.9617 70.6526C53.0756 65.2837 56.5313 57.7235 48.2317 58.0732C51.1684 57.2009 53.0841 56.5351 54.0883 55.865C55.0925 55.195 55.1811 54.508 54.2486 54.2636C53.9955 53.4798 53.4891 52.8055 52.7043 52.245C51.8604 51.5876 50.7423 51.0482 49.5988 51.4907C50.7592 51.1325 51.6706 51.6171 52.1853 52.1692C52.5566 52.4852 52.5313 52.8687 52.1431 53.2606C52.1347 53.012 51.7592 52.776 51.1895 52.6538C50.4933 52.2619 49.603 51.9837 48.7001 52.3167C49.4511 51.7772 50.1938 51.8447 50.8309 52.2535C51.1853 52.0301 51.4301 52.1481 51.4005 52.5105C51.9068 51.6972 52.1347 51.1283 52.1727 51.0946C51.6115 50.1716 50.8562 49.7839 49.9997 50.7279C51.1558 49.5395 52.2064 49.6828 53.025 50.454C53.1558 50.4161 53.0545 51.0103 52.4933 52.068C53.236 50.7701 53.5187 49.9441 53.5609 49.8303C52.776 48.8905 51.7423 48.6714 50.6706 50.0326C51.7929 48.6208 52.5313 48.3385 53.1938 48.8358C52.1263 47.7654 50.9828 47.4704 50.0503 49.097C50.852 47.3186 51.8773 47.4704 53.122 48.7557C52.5355 48.389 52.1727 49.1645 51.544 51.0103C52.3921 49.3878 52.9701 48.8442 53.4511 49.2108C52.6241 48.368 51.7001 48.4354 50.6959 50.0326C51.6917 48.5955 52.603 48.684 53.3583 49.6027C53.025 49.4384 52.5313 50.0958 51.7043 51.5328C52.198 50.1421 52.3541 49.5269 52.5777 49.9146C51.5693 48.8484 50.6241 48.7894 49.7507 50.3739C50.5735 48.7178 51.4722 48.7093 52.4849 49.7839C52.1389 49.253 51.9111 49.8008 51.4132 51.301C52.2106 49.7165 52.7465 49.0844 53.2317 49.3962C52.4174 48.4312 51.5566 48.4101 50.6579 49.9862C51.8309 48.5534 52.6073 48.2711 53.2866 48.7346C52.2064 47.6558 51.0334 47.3186 50.0714 48.8863C50.8857 46.9899 51.6832 46.7666 52.9701 47.5589C51.506 46.3283 50.5271 46.1176 49.9575 47.6853C50.1009 45.515 50.679 45.1694 52.4258 45.7889C50.4765 44.5668 49.6917 44.3097 49.5735 44.8997C49.3541 43.8377 49.8014 43.6186 51.6917 43.6102C49.6495 43.0623 49.0503 42.7252 49.1938 41.7475C48.1853 41.5073 41.4554 13.188 40.8351 10.0611C40.2613 11.3928 51.2022 58.6801 38.6832 7.86129C51.8773 67.4076 37.3752 7.65479 37.0672 6.54646C38.5651 14.6461 44.6115 37.5839 34.1094 5.58984C34.6284 7.84443 44.2782 34.0482 37.2402 25.3122C38.3668 28.4391 45.0883 42.9022 44.0883 46.0333C45.3077 46.5011 45.4301 48.4818 45.3963 51.6845C45.6874 52.6412 45.8225 54.8199 45.9617 57.0197C46.1009 59.2195 46.236 61.4404 46.3668 63.598C46.468 65.2163 46.5651 66.805 46.4891 67.2306C46.5524 69.0722 46.4469 69.7549 45.8689 67.7827C46.6157 72.452 46.89 74.4706 45.4427 69.4262C46.7803 77.5807 46.3963 78.6764 38.4301 76.7421C46.4976 80.2946 44.8647 85.773 40.8182 91.9637C45.0756 87.3154 44.8056 88.3353 42.0376 96.4012L42.0419 96.4096Z" fill="currentColor"/>
<path d="M44.6621 92.3277C44.2106 91.5986 43.7001 90.7642 43.2655 89.9972C42.8309 89.2303 42.4005 88.438 42.2824 88.0798C42.0503 87.5404 42.0461 87.3044 42.4596 87.6415C42.7043 87.7342 43.4469 88.5054 44.5398 89.7528C43.8014 88.7077 42.1895 86.4321 41.7212 85.6904C41.1474 84.8939 40.6368 84.1733 40.5355 84.0384C40.3035 83.7055 40.4723 83.9541 41.0081 84.6958C40.2191 83.5453 38.8351 81.4972 39.0081 81.7543C38.236 80.0349 37.7043 79.0572 38.3752 80.4016C37.236 78.855 37.1474 78.6948 38.2866 80.1824C37.6157 79.1247 38.9659 80.7513 40.371 82.3485C39.0461 80.705 37.8393 79.1331 38.7381 80.0729C37.7043 78.6442 38.1642 78.9055 39.7212 80.1024C38.7296 79.209 39.8225 80.1614 41.1558 81.1896C41.4132 81.2023 43.1642 82.4623 44.2317 83.1029C43.4469 82.6266 42.1896 81.7543 41.8478 81.5858C40.852 80.823 39.8478 79.9338 40.6495 80.469C38.3794 78.9603 37.0883 77.8351 38.4891 78.8887C36.8393 77.7635 37.6241 78.7075 39.8689 80.8946C38.3119 79.327 37.544 77.4643 38.2866 78.3619C35.7887 76.6299 37.89 76.8617 38.6284 77.5696C37.409 76.6341 37.3246 76.4276 38.4807 76.731C37.6157 76.3475 37.9322 76.6762 39.4258 77.8436C38.5229 77.0639 39.544 77.6792 41.6241 78.8044C39.5693 77.6413 38.5735 76.9881 39.5946 77.6118C38.0841 76.4655 37.8351 76.0947 39.0123 76.0399C37.679 75.9514 36.2993 75.3867 38.6326 74.5734C37.236 74.9611 38.16 74.9273 40.468 74.7208C39.4554 74.6913 41.9322 74.3079 43.814 74.0213C41.9322 74.2994 39.468 74.6618 40.4849 74.6366C38.1853 74.8388 37.2739 74.8473 38.6748 74.3121C36.3625 75.1338 36.0377 75.1591 37.6115 74.3584C36.3457 74.9147 36.6537 75.0116 38.5566 74.9863C37.3457 75.0032 38.6832 74.8557 41.1263 74.5439C38.6832 74.8136 37.3372 74.9147 38.5313 74.7166C36.6241 74.7798 36.3077 74.6197 37.4554 73.6968C35.9279 74.6155 36.2149 74.0803 38.025 72.1839C36.9617 73.2712 37.7971 72.6559 39.6284 71.261C38.8815 71.8173 40.8393 70.2791 42.2317 69.3267C40.0461 70.4645 38.6874 71.2442 39.6326 69.7439C38.582 70.5615 39.5229 69.057 40.5355 67.7211C40.6284 67.561 40.2993 67.2913 40.7254 66.735C41.1516 66.1787 41.5609 65.6309 41.9068 65.1252C39.7339 66.0649 42.333 61.4462 42.2613 59.9207C42.1896 58.3951 42.9786 56.4018 42.9153 55.0448C42.6621 49.6212 42.4807 45.8242 42.4807 45.8242L40.6706 49.1956C39.5862 51.2184 38.1389 53.9154 36.6917 56.6125C35.9701 57.9611 34.949 62.6725 34.5651 60.5739C34.236 62.5967 34.063 65.6561 33.7592 65.968C33.5862 67.6452 33.2064 66.9288 32.7128 64.0295C32.814 65.1504 33.1052 67.1522 32.9701 66.9078C33.236 68.6103 33.4891 70.0979 33.1389 68.9769C33.5777 71.3495 33.717 72.1797 32.9912 70.3212C33.4976 71.8847 33.2993 71.3916 32.5946 69.491C33.0039 70.6331 32.4343 69.0781 31.8182 67.3292C32.4301 69.116 33.0545 70.8859 32.6115 69.824C33.3541 71.8384 33.5862 72.4958 32.9575 71.1051C33.7718 73.1658 33.7128 73.1405 32.7085 71.1177C33.3625 72.4789 33.0208 71.7878 32.0714 69.8493C32.5609 70.8354 31.6959 69.0486 30.9026 67.4008C31.6959 69.0486 32.5609 70.8438 32.0588 69.8619C33.0039 71.8046 33.3372 72.5042 32.6326 71.1725C33.6284 73.2037 33.6199 73.2838 32.4554 71.4127C33.2106 72.736 32.8393 72.1755 31.679 70.376C32.2824 71.3706 31.2824 69.8282 30.2317 68.2352C31.2486 69.8155 32.1347 71.2104 31.4427 70.2032C32.544 71.9226 32.814 72.3862 31.8436 71.0672C32.9195 72.7865 32.0883 72.4368 30.4047 70.6921C31.1769 71.6909 30.1685 70.6837 28.8647 69.4026C29.0841 69.7397 27.5524 68.2647 26.6621 67.4893C28.1052 68.9685 29.3119 70.3507 28.3921 69.786C29.0798 70.6921 27.7718 69.9167 26.4427 69.2171C25.7296 68.9811 24.0039 68.0372 22.6115 67.405C24.6537 69.2466 19.5524 67.3418 17.9701 67.3081L11.8858 67.1817L5.33301 67.0468C5.33301 67.0468 8.51866 69.1244 13.0714 72.0912L16.7128 74.4638C17.9912 75.2982 22.9279 75.6353 20.6959 77.0597C21.3499 77.0091 22.063 76.9249 22.7718 76.8406C23.4891 76.7521 24.7718 76.5835 24.8267 76.6046C26.582 76.4065 28.8689 76.2759 27.4385 76.7521C29.0925 76.5877 28.987 76.7984 27.4174 77.5064C28.5018 77.3336 27.063 78.0543 25.6748 78.8423C27.2613 78.109 29.5651 77.2156 28.6832 77.6076C30.814 76.7226 31.7128 76.3222 30.2233 76.6678C32.7634 76.1326 33.3204 76.1705 31.7803 76.9881C33.1347 76.4782 33.1094 76.8574 32.122 78.5094C32.8773 77.557 32.1305 78.6738 30.6706 80.6376C32.1642 78.699 32.949 77.6118 32.333 78.6653C33.2866 77.0049 33.3625 76.6552 32.2739 77.439C33.717 76.5245 33.5693 76.7647 31.7465 78.2397C32.9026 77.3294 32.4933 78.0753 31.2022 79.9633C31.7507 79.0572 30.2613 80.9368 28.9955 82.4834C30.2697 80.941 31.776 79.0572 31.2655 79.9886C32.5609 78.1048 32.9955 77.3589 31.9617 78.3324C33.776 76.8406 33.7634 78.5136 33.1642 79.6725C33.7971 78.7159 33.9617 79.1584 34.0883 81.0716C34.1305 79.8664 34.1516 81.08 34.0587 83.4147C34.1938 81.08 34.2149 79.8706 34.3457 81.0674C34.1938 79.1542 34.1052 78.6864 33.9659 79.6304C34.295 78.4968 34.7549 76.8111 34.9279 78.3282C34.852 77.2536 35.1094 77.9616 35.7296 80.0265C35.4174 78.9055 35.9068 80.6923 36.4301 82.8205C35.717 79.7905 35.3625 78.5979 35.5651 80.5322C35.3372 78.8128 35.6663 80.4311 35.9575 83.0986C35.8562 82.1125 36.122 83.3768 36.3288 84.6326C36.333 84.9529 36.5355 86.5037 36.6157 87.4477C36.5482 86.3688 36.3625 84.7337 36.4174 84.4851C36.2444 83.2082 36.0461 82.1336 36.2613 83.1534C35.9912 80.6797 35.8309 79.6388 36.4891 81.5352C36.0672 79.9338 36.2571 80.1866 36.9828 81.8217C36.679 80.9031 37.4765 82.7362 38.1347 84.2365C37.2149 81.8555 37.0756 81.3498 37.9997 83.2504C37.6579 82.3991 38.0714 83.1998 38.5777 84.1901C38.7718 84.523 39.4301 85.8379 39.9195 86.7903C40.4216 87.7132 41.5651 89.9467 42.1938 91.0845C41.5144 89.5505 41.1136 88.5307 41.1263 88.3031C40.9786 87.7764 41.4807 87.7469 41.8647 88.2273C42.1263 88.497 42.6621 89.2682 43.16 90.0141C43.6579 90.76 44.1938 91.5986 44.6452 92.3277H44.6621Z" fill="currentColor"/>
</svg>
