<svg width="129" height="131" viewBox="0 0 129 131" fill="none" xmlns="http://www.w3.org/2000/svg">
<path d="M99.1297 95.6598C110.27 82.9998 112.5 65.4398 106.46 50.2098C105.41 51.1798 103.87 52.5198 101.24 54.7898C100.79 55.2498 100.33 55.6998 99.8698 56.1298C99.3997 56.5598 98.9198 56.9798 98.4398 57.3798C97.8597 57.8898 97.2698 58.3398 96.7998 58.8798C95.8597 59.9498 95.1598 60.7498 95.1598 60.7498L92.7298 63.5098L90.3497 66.2198C90.0098 66.6098 89.7397 67.0198 89.4697 67.4598C88.9297 68.8798 88.1897 70.1598 87.3097 71.3498C86.8697 71.9398 86.3997 72.5098 86.2598 72.7898C85.4098 73.6098 84.8797 74.1398 86.7697 73.7298C83.8197 75.1698 83.2598 75.6798 87.4398 81.2698C86.3798 80.3498 85.5098 79.6298 84.7797 79.0998C84.0497 78.5698 83.4497 78.2098 83.5897 77.8498C82.4297 77.8298 82.0097 77.7998 83.2697 77.3798C81.2197 78.0198 80.8698 78.2598 83.6198 78.3798C83.1397 78.4698 82.7197 78.5498 82.3497 78.6398C82.7297 78.6098 83.1497 78.5998 83.6397 78.5798C83.0498 78.5998 82.5597 78.6398 82.1497 78.6898C81.9297 78.7498 81.7297 78.8098 81.5597 78.8798C81.0497 79.0898 80.7098 79.3498 80.5498 79.7298C80.4798 79.8598 80.4297 79.9998 80.3997 80.1498C80.3997 80.4298 80.4698 80.7598 80.6598 81.1398C80.6498 81.1898 80.6397 81.2398 80.6297 81.2898C80.6297 81.3098 80.6498 81.3198 80.6598 81.3398C80.6298 81.4298 80.6097 81.5298 80.5897 81.6198C80.5397 82.3198 80.6997 83.1598 80.8997 84.1898C80.6398 83.1498 80.4597 82.3198 80.5897 81.6198C80.5897 81.4998 80.6097 81.3898 80.6297 81.2798C80.3897 80.8298 80.3397 80.4598 80.3997 80.1398C80.3997 79.8998 80.4497 79.6898 80.5397 79.5098C80.7097 79.1398 81.0397 78.9198 81.5397 78.7898C81.7197 78.7398 81.9297 78.7098 82.1497 78.6798C82.2197 78.6598 82.2797 78.6398 82.3597 78.6298C81.9897 78.6598 81.6597 78.6998 81.3797 78.7598C80.8197 78.8898 80.4398 79.0998 80.2897 79.4298C79.9897 79.8498 79.9198 80.3898 80.4697 81.0698C80.3897 81.2098 80.3398 81.3598 80.2998 81.4998C80.3097 81.4998 80.3198 81.4998 80.3298 81.5098C80.3097 81.5298 80.2997 81.5598 80.2797 81.5898C80.0797 82.3398 80.2297 83.2098 80.4497 84.2798C80.0497 83.1098 79.7697 82.2398 80.2797 81.5898C80.2797 81.5598 80.2998 81.5298 80.2998 81.4998C79.9198 81.3198 79.6497 81.1598 79.4897 81.0198C79.3997 81.0698 79.3097 81.1198 79.2197 81.1698C79.3597 81.2198 79.5397 81.2798 79.7598 81.3398C77.9497 82.1398 77.6898 82.9898 78.0098 85.3098C77.6797 82.9198 77.8097 82.0098 79.2097 81.1798C79.0497 81.1198 78.9497 81.0598 78.8897 80.9998C78.6797 80.9998 78.5098 80.9898 78.3997 80.9698C78.2697 81.0598 78.1397 81.1398 78.0197 81.2298C78.1497 81.2098 78.3097 81.1798 78.4897 81.1498C78.3897 81.1898 78.2997 81.2298 78.2097 81.2698C78.3497 81.2598 78.5098 81.2398 78.6898 81.2198C78.1297 81.4398 77.7097 81.6398 77.3797 81.8998C77.5497 81.8698 77.7297 81.8498 77.9497 81.8498C77.7397 81.8498 77.5497 81.8698 77.3797 81.8998C77.2897 81.9698 77.2197 82.0398 77.1397 82.1198C76.6497 82.7898 76.3398 83.6798 75.9398 85.1598C76.3097 83.5298 76.5797 82.6898 77.1397 82.1198C77.1897 82.0498 77.2397 81.9798 77.2897 81.9198C77.1097 81.9698 76.9497 82.0398 76.7897 82.1598C76.4497 82.4898 76.1797 82.9198 75.8797 83.5198C75.6997 83.8898 75.4997 84.3298 75.2697 84.8798C75.4997 84.3398 75.6897 83.8998 75.8797 83.5198C76.2197 82.8098 76.4897 82.3998 76.7897 82.1598C76.8298 82.1198 76.8797 82.0798 76.9197 82.0398C76.2797 82.3298 75.8298 83.0398 74.8997 84.6898C75.8397 82.7498 75.7897 82.7898 74.8698 84.6598C75.4598 83.1698 75.1697 83.4998 74.0697 85.0998C74.3297 84.4598 73.8097 85.0398 73.2797 85.6698C72.9497 86.0298 72.5897 86.4298 72.3397 86.7098L71.9497 87.1498C71.9497 87.1498 72.0497 86.9698 72.2097 86.6598C72.3697 86.3498 72.6097 85.8998 72.8397 85.4398C73.1897 84.8398 73.5197 84.2098 72.8897 84.2798C74.0597 83.2098 74.2497 82.8698 72.7797 83.1398C74.5297 82.2098 74.6397 81.8998 72.8597 81.3298C74.5098 81.2998 74.9897 81.1198 74.5297 80.2998C74.2897 80.2098 73.8398 79.9898 73.1598 79.6598C73.5798 79.7498 73.9297 79.8098 74.2197 79.8398C74.1397 79.7298 74.0497 79.6198 73.9497 79.4898C74.0897 79.6298 74.2197 79.7398 74.3197 79.8498C75.1397 79.8898 75.4697 79.6098 75.4897 78.8798C75.3697 79.1598 74.8698 78.9198 73.8997 78.3498C74.5998 78.5698 75.1098 78.6498 75.4798 78.5998C75.4798 78.4498 75.4597 78.2998 75.4297 78.1198C75.4797 78.3098 75.4998 78.4698 75.5098 78.5998C75.9198 78.5298 76.1397 78.2898 76.2397 77.8598C76.0997 77.9798 75.6597 77.6998 74.8897 77.2598C76.0897 77.6098 76.7197 77.6798 76.8997 77.2798C77.0098 77.2998 76.6697 76.8398 75.9197 76.0098C77.4297 76.9298 77.8797 77.0698 77.3097 76.3598C77.1097 76.1598 76.8097 75.8498 76.3997 75.4298C77.2697 76.6498 77.0798 76.4998 76.1097 75.4498C76.5897 76.1498 76.2797 75.9498 75.6397 75.4098C75.4997 75.3198 75.0497 74.9498 74.5997 74.5898C73.2597 73.4998 71.9697 72.4798 71.0597 70.8798C69.7497 68.5798 68.3697 66.4598 66.4997 64.5698C64.9197 63.2798 63.1697 62.1698 61.2997 61.2998C59.9497 60.6598 58.5497 60.1698 57.1097 59.7998C56.3897 59.6198 55.6597 59.4698 55.2497 59.6598C54.1897 59.2298 53.4497 59.1498 53.1297 60.5398C51.9697 59.0398 51.2197 59.0198 49.7897 60.2298C49.7297 59.0398 48.9897 59.0798 48.0797 59.2798C47.5097 59.2298 46.7697 59.3298 46.0297 59.4598C44.5597 59.7198 43.1197 60.0998 41.7197 60.5898C42.9497 59.8298 44.2997 59.2398 45.7197 58.7398C46.4297 58.4898 47.1597 58.2598 47.5397 58.1998C48.6497 57.8398 49.3997 57.6398 48.1797 58.5198C50.9197 57.2398 51.6897 57.0398 54.8397 58.6698C53.2197 56.6398 53.9897 56.4398 56.5497 56.1598C55.4997 55.9998 56.2497 55.7598 57.0297 55.5198C57.7297 55.2398 58.4597 54.9498 59.1697 54.6298C59.5197 54.4698 59.8697 54.2998 59.8197 54.2798C60.4497 53.9898 60.7798 53.8098 60.3097 53.8898C60.2897 53.8898 60.2697 53.9098 60.2497 53.9098C60.2197 53.9298 60.1797 53.9398 60.1497 53.9598C60.1698 53.9498 60.1898 53.9398 60.2197 53.9298C60.2098 53.9298 60.1997 53.9398 60.1797 53.9498C60.2197 53.9298 60.2497 53.9198 60.2797 53.8998C60.1997 53.9098 60.0897 53.9298 59.9597 53.9598C60.5497 53.7298 60.9797 53.5398 61.2297 53.4398C61.4097 53.3498 61.5697 53.2598 61.7097 53.1898C61.9297 53.0498 62.0597 52.9398 62.0897 52.8398C62.0397 52.7498 61.8897 52.6698 61.6197 52.5998C61.5797 52.6198 61.5298 52.6398 61.4697 52.6598C61.1698 52.7898 60.6297 52.9098 59.8797 53.0498C60.5998 52.9098 61.1397 52.7798 61.4697 52.6598C61.5197 52.6398 61.5697 52.6198 61.5997 52.5898C61.3497 52.5198 61.0097 52.4498 60.5697 52.3798C60.4497 52.3698 60.3397 52.3598 60.2097 52.3498C60.2897 52.3498 60.3697 52.3498 60.4497 52.3598C60.3997 52.3598 60.3498 52.3398 60.2897 52.3298C60.8597 52.3298 61.3297 52.3298 61.7097 52.2998C61.5797 52.1098 61.0998 51.8798 60.2397 51.5498C60.4798 51.5898 60.6897 51.6198 60.8897 51.6398C60.7297 51.5698 60.5497 51.4898 60.3497 51.4098C61.1497 51.5798 61.7397 51.6998 62.1497 51.7398C62.4598 51.7398 62.6397 51.6698 62.6897 51.5498C62.4797 51.2598 62.0397 50.8598 61.3897 50.2998C61.6397 50.4398 61.8597 50.5598 62.0597 50.6698C61.9097 50.5298 61.7297 50.3598 61.5397 50.1898C61.2197 50.2398 60.8597 50.2498 60.4197 50.2298C60.2197 50.2998 60.0098 50.3598 59.7897 50.4298C60.0397 50.3498 60.2697 50.2698 60.4897 50.1898C60.4198 50.1898 60.3497 50.1898 60.2797 50.1998C60.3697 50.1998 60.4497 50.1898 60.5297 50.1798C60.7297 50.1098 60.9097 50.0298 61.0897 49.9498C61.0497 49.9398 61.0197 49.9298 60.9797 49.9198C61.0197 49.9198 61.0597 49.9398 61.0997 49.9498C61.8297 49.5998 62.3597 49.1298 62.6297 48.2998C62.8397 48.4198 63.0397 48.5098 63.2097 48.5698C63.2397 48.4398 63.2597 48.3098 63.2797 48.1598C63.3197 48.1998 63.3597 48.2298 63.3997 48.2598C63.4097 48.2198 63.4198 48.1798 63.4297 48.1398C63.4297 48.1398 63.4398 48.1498 63.4497 48.1598C63.4497 48.1298 63.4697 48.0998 63.4797 48.0698C63.4997 48.0798 63.5197 48.0998 63.5497 48.1098C63.5497 48.1098 63.5597 48.0898 63.5697 48.0798C63.6397 48.1298 63.7097 48.1798 63.7797 48.2198C63.9097 48.2698 64.0197 48.2998 64.1297 48.2998C64.1497 48.2298 64.1698 48.1598 64.1898 48.0898C64.2197 48.1498 64.2497 48.2098 64.2697 48.2598C64.3597 48.1298 64.4297 47.9398 64.4897 47.7298C64.6297 47.4998 64.6097 47.0698 64.4398 46.5698C64.0898 45.5798 63.0998 44.3598 61.4897 42.4398C62.1297 43.0598 62.6698 43.5798 63.1297 43.9898C62.6997 43.5498 62.2197 43.0598 61.6797 42.5198C62.7598 43.5498 63.6297 44.3598 64.3298 44.9598C63.8898 44.3398 63.2998 43.6098 62.5597 42.7098C63.8397 44.0998 64.6398 44.9098 65.0798 45.1998C65.1997 44.9398 64.9197 44.0898 64.3897 42.7698C64.7497 43.3698 65.0097 43.7498 65.1997 43.9798C65.0797 43.6398 64.9297 43.2498 64.7598 42.7898C65.1598 43.5498 65.3997 43.9898 65.5498 44.1798C65.5597 44.1598 65.5698 44.1298 65.5798 44.0798C65.3597 43.7198 65.1297 43.3098 64.8698 42.8398C65.1297 43.2798 65.3697 43.6698 65.5897 44.0198C65.5997 43.7698 65.5397 43.2898 65.4398 42.6598C65.6097 43.4598 65.7297 44.0298 65.7197 44.2198C66.3197 45.1598 66.7797 45.7398 67.1797 45.9898C67.2697 45.8198 67.3497 45.5898 67.4197 45.3098C67.2897 45.3098 67.1497 45.1898 66.9997 44.9298C66.9697 44.8898 66.9497 44.8298 66.9197 44.7798C66.9197 44.7598 66.8997 44.7498 66.8997 44.7398C66.8597 44.6598 66.8197 44.5798 66.7797 44.4798C66.7797 44.4798 66.7797 44.4698 66.7797 44.4598C66.7397 44.3798 66.7097 44.2898 66.6697 44.1998C66.6597 44.1698 66.6397 44.1398 66.6297 44.0998C66.6397 44.1298 66.6597 44.1598 66.6697 44.1998C66.7097 44.2898 66.7397 44.3798 66.7797 44.4598C66.7797 44.4598 66.7797 44.4698 66.7797 44.4798C66.8197 44.5698 66.8597 44.6598 66.8997 44.7398C66.8997 44.7598 66.9197 44.7698 66.9197 44.7798C66.9497 44.8298 66.9797 44.8798 66.9997 44.9298C67.1897 45.2398 67.3398 45.2898 67.4798 45.0298C67.5098 44.8698 67.5397 44.6998 67.5697 44.5098C67.3997 44.1098 67.2197 43.5498 67.0297 42.8398C67.2497 43.5198 67.4497 44.0598 67.6697 44.4398C67.7197 44.2198 67.7598 43.9598 67.7998 43.6398C67.7998 44.0098 67.7997 44.3398 67.7897 44.6298C67.8197 44.6698 67.8398 44.6998 67.8698 44.7398C67.9598 44.5098 68.0498 44.2298 68.1497 43.8598C68.1198 44.2798 68.0998 44.6398 68.0798 44.9598C68.1297 44.9998 68.1798 45.0298 68.2298 45.0598C68.2998 44.8998 68.3697 44.7298 68.4497 44.5398C68.4097 44.7498 68.3697 44.9298 68.3397 45.1098C68.3497 45.1098 68.3598 45.1098 68.3698 45.1098C68.5798 45.0098 68.8197 44.7298 69.1097 44.2498C69.0197 44.5598 68.9497 44.8298 68.8797 45.0798C68.9097 45.0798 68.9397 45.0598 68.9597 45.0498C68.9997 44.9898 69.0497 44.9298 69.0897 44.8598C69.0697 44.9198 69.0497 44.9698 69.0297 45.0198C69.2497 44.9098 69.4997 44.7398 69.7797 44.4898C69.2197 46.4698 69.6297 46.4998 71.1898 45.6198C70.9398 45.8298 70.9097 45.8598 71.0397 45.7798C70.9897 45.7798 71.1298 45.6798 71.4798 45.4398C70.9798 45.7298 71.3898 45.4798 72.0498 45.0498C71.5798 45.3898 71.1897 45.6798 71.0297 45.7798C71.0797 45.7798 71.3397 45.6598 71.7697 45.4498C71.9897 45.4098 72.8697 45.0198 74.1797 44.4598C72.9897 44.9098 72.2197 45.1798 71.9597 45.2398C71.4897 45.4298 71.5398 45.3998 72.0498 45.1898C72.4398 45.0598 73.2998 44.7498 74.5498 44.3098C71.1398 45.2598 71.3097 45.0798 74.7598 44.0498C71.6497 44.7298 71.8197 44.5498 74.9297 43.5998C72.3697 43.9798 72.7498 43.5998 75.1198 42.6798C73.4998 42.8198 73.8797 42.4198 75.1997 41.7698C74.6197 41.6398 74.9897 41.2398 75.4798 40.8098C75.7298 40.4498 76.0997 40.0498 76.4597 39.6498C77.9197 38.0298 79.3397 36.3698 80.7097 34.6498C82.0397 32.9498 74.1997 23.8598 75.4697 22.0998C75.5498 21.9898 75.6897 21.9498 75.8897 21.9398C59.4397 16.8998 41.2497 21.1498 29.6097 34.3798C13.4997 52.6898 16.0197 81.2498 35.2497 98.1798C54.4797 115.11 83.1297 113.99 99.2497 95.6798L99.1297 95.6598Z" fill="currentColor"/>
</svg>
