<svg width="459" height="440" viewBox="0 0 459 440" fill="none" xmlns="http://www.w3.org/2000/svg">
<path d="M135.96 221.05C136.1 221.04 136.24 221.02 136.38 221.01C136.67 220.83 136.51 220.85 135.96 221.05Z" fill="currentColor"/>
<path d="M136.38 221.01C136.25 221.09 136.03 221.2 135.72 221.36C137.22 221.26 138.56 221.15 139.76 221.03C140.66 220.69 139.67 220.72 136.38 221.02V221.01Z" fill="currentColor"/>
<path d="M159.78 320.829C159.55 320.259 159.34 319.659 159.04 319.059C159.04 319.899 159.04 320.719 159.78 320.829Z" fill="currentColor"/>
<path d="M131.96 223.231C132.04 223.121 132.1 223.031 132.16 222.941C131.63 223.161 131.05 223.411 130.41 223.671C130.95 223.521 131.46 223.371 131.96 223.231Z" fill="currentColor"/>
<path d="M129.07 223.149C129.02 223.049 128.97 222.959 128.91 222.879C128.92 222.999 128.93 223.119 128.92 223.269C128.97 223.229 129.02 223.189 129.07 223.149Z" fill="currentColor"/>
<path d="M131.19 224.192C132.56 223.462 133.69 222.902 134.57 222.512C133.78 222.732 132.91 222.972 131.97 223.232C131.77 223.502 131.52 223.822 131.2 224.192H131.19Z" fill="currentColor"/>
<path d="M154.51 289.63C153.89 289.48 153.16 289.48 152.77 289.48C153.37 289.48 153.95 289.54 154.51 289.63Z" fill="currentColor"/>
<path d="M165.8 302.4C165.45 302.79 165.1 303.2 164.76 303.62C164.79 303.59 164.82 303.57 164.85 303.54C165.97 302.53 166.89 301.19 168.01 300.23C167.76 300.44 167.51 300.67 167.27 300.9C166.81 301.42 166.31 301.91 165.8 302.4Z" fill="currentColor"/>
<path d="M134.56 222.509C135.28 222.309 135.94 222.129 136.53 221.969C136.63 221.709 135.92 221.899 134.56 222.509Z" fill="currentColor"/>
<path d="M156.16 278.968C156.26 278.868 156.36 278.768 156.45 278.668C156.56 278.348 156.45 278.458 156.16 278.968Z" fill="currentColor"/>
<path d="M159.05 276.521C159.52 275.681 158.78 276.341 156.45 278.681C156.4 278.821 156.31 279.051 156.17 279.371C157.26 278.331 158.21 277.381 159.05 276.521Z" fill="currentColor"/>
<path d="M238.55 340.099C238.01 339.819 237.47 339.479 236.85 339.219C237.39 339.859 237.93 340.489 238.55 340.099Z" fill="currentColor"/>
<path d="M154.5 283.221C154.5 283.091 154.48 282.981 154.46 282.871C154.2 283.381 153.91 283.941 153.59 284.551C153.9 284.091 154.2 283.651 154.5 283.221Z" fill="currentColor"/>
<path d="M152.24 285.022C152.14 284.972 152.04 284.942 151.94 284.922C152.02 285.002 152.11 285.102 152.2 285.212C152.21 285.142 152.23 285.092 152.24 285.022Z" fill="currentColor"/>
<path d="M154.52 284.448C155.1 283.008 155.61 281.848 156.02 280.988C155.56 281.658 155.04 282.408 154.49 283.218C154.51 283.558 154.52 283.958 154.51 284.448H154.52Z" fill="currentColor"/>
<path d="M214.45 319.59C213.88 319.88 213.32 320.34 213.03 320.59C213.49 320.2 213.97 319.88 214.45 319.59Z" fill="currentColor"/>
<path d="M231.3 323.719C231.3 323.719 231.31 323.639 231.32 323.599C231.53 322.109 231.37 320.479 231.61 319.039C231.56 319.359 231.51 319.699 231.47 320.029C231.45 320.719 231.39 321.419 231.31 322.119C231.29 322.649 231.29 323.179 231.31 323.719H231.3Z" fill="currentColor"/>
<path d="M156.03 280.989C156.46 280.369 156.84 279.819 157.19 279.309C157.1 279.049 156.68 279.649 156.03 280.989Z" fill="currentColor"/>
<path d="M208.86 310.371C208.87 310.231 208.88 310.091 208.9 309.951C208.78 309.631 208.76 309.791 208.86 310.371Z" fill="currentColor"/>
<path d="M208.9 309.951C208.95 310.091 209.03 310.331 209.13 310.661C209.29 309.161 209.42 307.821 209.5 306.621C209.32 305.671 209.18 306.661 208.9 309.941V309.951Z" fill="currentColor"/>
<path d="M311.27 304.23C310.67 304.36 310.04 304.46 309.4 304.65C310.22 304.8 311.04 304.93 311.27 304.23Z" fill="currentColor"/>
<path d="M210.32 314.689C210.23 314.599 210.15 314.519 210.07 314.449C210.2 315.009 210.34 315.619 210.48 316.299C210.42 315.739 210.37 315.209 210.32 314.699V314.689Z" fill="currentColor"/>
<path d="M209.74 317.52C209.63 317.55 209.53 317.59 209.45 317.63C209.57 317.63 209.69 317.66 209.83 317.69C209.8 317.63 209.77 317.58 209.74 317.52Z" fill="currentColor"/>
<path d="M211.13 315.62C210.65 314.14 210.29 312.93 210.06 312C210.14 312.81 210.22 313.72 210.32 314.69C210.56 314.93 210.82 315.24 211.13 315.62Z" fill="currentColor"/>
<path d="M355.49 321.401C345.38 322.871 299.54 319.591 299.73 313.461C299.1 314.651 298.7 314.661 298.43 314.021C297.41 310.731 297 307.931 295.7 304.971L295.54 305.851C295.62 305.411 295.48 304.931 295.22 304.431C295.22 304.011 295.38 303.661 295.69 303.371C301.3 304.131 306.44 305.951 311.32 304.081C311.31 304.141 311.29 304.181 311.27 304.231C312.46 303.971 313.54 303.551 314.43 301.901C307.75 305.941 300.06 301.861 295.19 296.341C296.04 297.701 296.93 299.091 298.33 299.951C296.49 298.831 295.37 296.931 294.16 295.111C293.72 294.551 293.32 293.981 292.94 293.401C292.67 293.061 292.38 292.731 292.07 292.431C291.6 291.421 291.33 290.381 292.15 288.871L291.11 289.601C292.19 286.541 299.48 286.441 301.96 286.181C307.79 285.571 313.66 285.421 319.5 284.931C321.73 284.741 320.18 280.061 322.3 279.351C322.57 279.261 322.85 279.161 323.05 278.951C323.54 278.461 358.43 284.951 358.39 284.341C358.35 283.741 358.28 283.161 358.37 282.651C358.91 282.141 377.54 284.511 378.58 283.791C377.25 282.631 356.49 279.131 354.83 278.851C351.83 278.351 317.63 274.751 314.59 274.561C307.79 274.151 300.95 274.111 294.15 274.261C293.69 274.271 293.24 274.281 292.78 274.291C292.56 274.291 292.32 274.301 292.14 274.431C291.98 274.541 291.89 274.721 291.79 274.881C289.83 277.971 286.5 274.571 285.96 272.221C285.93 272.101 285.91 271.961 285.96 271.851C286.03 271.731 286.17 271.671 286.3 271.631C292.09 269.741 298.5 269.811 304.55 269.651C307.87 269.561 311.19 269.451 314.51 269.531C317.55 269.601 351.97 273.741 354.94 272.861C355.15 272.801 355.37 272.721 355.52 272.561C356.21 271.831 354.65 271.371 354.21 271.271C353.18 271.061 352.11 271.121 351.08 270.941C344.74 269.851 307.23 265.681 300.85 264.911C298.09 264.581 297.29 263.471 295.69 261.381C295.65 261.331 295.62 261.281 295.58 261.231C296.46 261.131 297.34 261.031 298.22 260.931C302.48 259.851 306.93 258.631 311.49 257.491C312.42 257.301 313.36 257.121 314.33 256.981C319.73 256.201 324.42 260.741 329.4 256.831C332.83 253.811 328.59 250.051 331.7 248.261C334.35 245.701 336.91 248.331 339.47 250.981C340.16 252.201 340.86 253.461 342.15 253.941C343.04 254.191 343.96 254.541 344.99 255.041C349.12 257.051 354.98 261.481 367.27 271.681C342.73 243.261 350.42 256.041 344.53 252.711C339.87 244.171 347.14 250.591 373.42 267.121C333.49 240.671 411.79 216.431 432.15 207.141C407.74 208.811 385.3 224.431 388.82 214.741C382.02 222.361 344.79 249.321 341 244.501C341.28 245.821 340.98 246.081 340.36 245.761C337.47 243.901 335.35 242.021 332.45 240.581L332.9 241.361C332.68 240.971 332.26 240.701 331.74 240.481C331.46 240.171 331.37 239.781 331.42 239.371C336.21 236.351 341.31 234.431 343.85 229.871C343.88 229.921 343.89 229.971 343.91 230.021C344.65 229.061 345.21 228.041 344.83 226.201C342.31 233.591 333.8 235.411 326.52 234.311C327.85 234.741 329.21 235.171 330.61 235.111C328.7 235.221 326.82 234.581 324.94 234.021C324.24 233.871 323.56 233.701 322.91 233.501C322.48 233.411 322.05 233.351 321.62 233.311C320.61 232.841 319.74 232.221 319.39 230.531L319.06 231.751C317.92 228.711 323.44 223.941 325.17 222.151C329.24 217.931 333.65 214.051 337.8 209.921C339.38 208.341 335.19 205.761 336.36 203.841C336.51 203.601 336.65 203.341 336.68 203.051C336.74 202.361 367.64 184.911 367.21 184.461C366.79 184.031 366.37 183.621 366.11 183.181C366.19 182.441 382 172.281 382.32 171.061C380.55 171.031 362.4 181.681 360.95 182.541C358.33 184.081 329.81 203.311 327.37 205.121C321.9 209.171 316.64 213.541 311.52 218.031C311.18 218.331 310.83 218.631 310.49 218.931C310.32 219.081 310.15 219.241 310.09 219.451C310.04 219.641 310.09 219.831 310.11 220.021C310.59 223.641 305.86 223.181 303.93 221.731C303.83 221.651 303.73 221.571 303.7 221.441C303.67 221.301 303.75 221.171 303.82 221.051C307.04 215.881 312 211.811 316.53 207.811C319.02 205.611 321.49 203.391 324.08 201.311C326.45 199.411 355.48 180.451 357.19 177.871C357.31 177.691 357.43 177.491 357.44 177.271C357.5 176.271 356.01 176.911 355.61 177.131C354.68 177.631 353.91 178.361 353 178.891C347.45 182.131 316.03 203.041 310.65 206.561C308.32 208.081 306.99 207.741 304.43 207.171C304.37 207.161 304.31 207.141 304.25 207.131C304.86 206.491 305.47 205.851 306.08 205.201C308.64 201.631 311.27 197.841 314.04 194.041C314.64 193.291 315.24 192.551 315.88 191.821C319.52 187.761 326.02 188.221 327.33 182.021C328.02 177.501 322.35 177.351 323.58 173.981C323.96 170.321 327.62 170.691 331.28 171.071C332.59 171.561 333.94 172.081 335.23 171.621C336.07 171.241 337 170.911 338.11 170.641C342.56 169.521 349.9 169.151 365.87 169.061C328.81 163.061 342.91 167.911 336.25 169.141C327.19 165.601 336.88 165.841 367.64 161.611C320.05 167.021 364.45 98.1113 374.08 77.9113C356.45 94.8913 349.31 121.271 345.77 111.591C345.46 121.801 334.27 166.381 328.27 165.131C329.33 165.961 329.27 166.351 328.59 166.511C325.17 166.941 322.34 166.871 319.2 167.631L320.04 167.941C319.62 167.791 319.12 167.841 318.59 168.011C318.18 167.951 317.86 167.721 317.63 167.361C319.36 161.971 322.04 157.221 321.04 152.091C321.1 152.111 321.14 152.141 321.18 152.171C321.13 150.961 320.9 149.821 319.43 148.651C322.25 155.931 316.9 162.791 310.62 166.631C311.91 166.111 313.23 165.561 314.27 164.621C312.88 165.931 311.03 166.651 309.23 167.431C308.6 167.761 307.97 168.071 307.34 168.331C306.96 168.541 306.58 168.771 306.23 169.021C305.15 169.311 304.09 169.401 302.74 168.331L303.28 169.481C300.45 167.881 301.62 160.681 301.79 158.201C302.2 152.351 303.08 146.551 303.6 140.711C303.8 138.481 298.92 139.201 298.59 136.981C298.55 136.701 298.49 136.411 298.33 136.171C297.93 135.601 310.39 102.371 309.77 102.301C309.17 102.241 308.58 102.201 308.1 102.031C307.69 101.411 313.26 83.4713 312.73 82.3213C311.36 83.4313 304.3 103.261 303.74 104.851C302.72 107.711 293.24 140.781 292.53 143.731C290.94 150.351 289.72 157.081 288.69 163.811C288.62 164.261 288.55 164.711 288.48 165.161C288.45 165.381 288.41 165.621 288.51 165.821C288.59 166.001 288.75 166.121 288.89 166.251C291.59 168.711 287.66 171.401 285.26 171.531C285.13 171.531 285 171.531 284.9 171.461C284.79 171.371 284.76 171.221 284.74 171.091C283.89 165.061 285.07 158.761 285.96 152.781C286.45 149.501 286.92 146.211 287.57 142.951C288.17 139.971 298.22 106.791 297.87 103.711C297.85 103.491 297.81 103.271 297.68 103.091C297.08 102.281 296.35 103.741 296.18 104.161C295.79 105.141 295.67 106.201 295.31 107.191C293.14 113.241 282.51 149.461 280.65 155.611C279.84 158.281 278.61 158.871 276.27 160.081C276.22 160.111 276.16 160.131 276.1 160.161C276.15 159.281 276.21 158.391 276.26 157.511C275.93 153.131 275.51 148.531 275.18 143.851C275.16 142.901 275.14 141.941 275.17 140.961C275.34 135.511 280.63 131.681 277.64 126.091C275.27 122.191 270.83 125.711 269.6 122.341C267.54 119.291 270.58 117.221 273.63 115.161C274.95 114.691 276.32 114.221 277.01 113.041C277.41 112.211 277.91 111.361 278.59 110.431C281.28 106.721 286.67 101.711 298.84 91.3812C266.59 110.611 280.51 105.261 276.2 110.481C266.98 113.591 274.56 107.541 295.41 84.5312C262.43 119.261 252.15 37.9412 246.54 16.2812C243.95 40.6112 255.43 65.4212 246.5 60.2712C252.83 68.2912 272.91 109.631 267.51 112.531C268.86 112.481 269.06 112.821 268.64 113.381C266.3 115.911 264.08 117.671 262.17 120.271L263.01 119.961C262.59 120.111 262.24 120.481 261.94 120.951C261.58 121.171 261.19 121.201 260.79 121.071C258.65 115.831 257.65 110.471 253.59 107.181C253.65 107.161 253.7 107.161 253.75 107.151C252.93 106.251 252.03 105.531 250.15 105.581C256.99 109.341 257.3 118.041 254.96 125.021C255.61 123.791 256.27 122.521 256.46 121.131C256.24 123.031 255.28 124.771 254.4 126.521C254.13 127.181 253.84 127.821 253.53 128.431C253.37 128.841 253.23 129.251 253.12 129.671C252.48 130.581 251.72 131.341 250 131.381L251.15 131.921C247.96 132.511 244.22 126.251 242.76 124.231C239.31 119.481 236.25 114.471 232.91 109.661C231.63 107.831 228.36 111.511 226.68 110.021C226.47 109.831 226.24 109.641 225.96 109.571C225.29 109.391 213.47 75.9312 212.96 76.2712C212.46 76.6112 211.99 76.9613 211.51 77.1312C210.8 76.9212 203.54 59.5912 202.39 59.0612C202.05 60.7912 209.39 80.5212 209.98 82.1012C211.04 84.9512 225.03 116.371 226.38 119.091C229.42 125.181 232.81 131.121 236.34 136.941C236.58 137.331 236.81 137.721 237.05 138.111C237.17 138.301 237.29 138.501 237.49 138.601C237.66 138.681 237.86 138.671 238.06 138.681C241.71 138.831 240.43 143.421 238.67 145.061C238.58 145.151 238.47 145.231 238.35 145.241C238.21 145.241 238.09 145.151 237.99 145.051C233.46 140.981 230.31 135.391 227.15 130.241C225.42 127.411 223.66 124.591 222.06 121.681C220.6 119.011 206.97 87.1413 204.73 85.0013C204.57 84.8512 204.4 84.7013 204.18 84.6513C203.2 84.4212 203.58 86.0013 203.72 86.4313C204.05 87.4313 204.64 88.3213 205 89.3013C207.23 95.3313 222.37 129.911 224.9 135.821C226 138.381 225.43 139.631 224.42 142.051C224.4 142.111 224.37 142.161 224.35 142.221C223.82 141.511 223.3 140.801 222.77 140.081C219.7 136.941 216.42 133.691 213.16 130.311C212.53 129.591 211.9 128.871 211.29 128.111C207.92 123.821 209.51 117.491 203.62 115.131C199.29 113.671 198.15 119.221 195.05 117.431C191.51 116.421 192.51 112.881 193.52 109.341C194.23 108.131 194.98 106.901 194.75 105.541C194.52 104.651 194.36 103.671 194.28 102.531C193.95 97.9512 194.86 90.6612 197.55 74.9212C185.21 110.381 192.43 97.3313 192.49 104.101C187.43 112.411 189.35 102.901 190.53 71.8812C187.59 119.681 127.44 63.9912 109.22 51.0112C122.88 71.3212 147.62 82.9413 137.47 84.7313C147.47 86.8013 189.43 105.571 187.15 111.261C188.15 110.361 188.53 110.491 188.56 111.181C188.39 114.621 187.82 117.401 188.03 120.621L188.48 119.841C188.26 120.231 188.23 120.731 188.29 121.281C188.16 121.681 187.87 121.951 187.49 122.111C182.48 119.471 178.27 116.011 173.04 116.101C173.07 116.051 173.11 116.011 173.14 115.971C171.93 115.811 170.78 115.831 169.37 117.081C177.03 115.571 182.86 122.031 185.55 128.881C185.26 127.521 184.95 126.121 184.2 124.941C185.25 126.541 185.63 128.481 186.09 130.391C186.31 131.071 186.5 131.741 186.65 132.411C186.79 132.821 186.95 133.231 187.13 133.621C187.22 134.731 187.13 135.801 185.84 136.941L187.06 136.611C185 139.121 178.11 136.721 175.69 136.121C170 134.701 164.44 132.831 158.78 131.301C156.62 130.721 156.48 135.641 154.24 135.581C153.96 135.581 153.66 135.581 153.4 135.701C152.77 135.991 122.21 117.961 122.03 118.551C121.86 119.131 121.73 119.701 121.47 120.141C120.79 120.441 104.09 111.831 102.86 112.161C103.72 113.701 122.02 124.101 123.48 124.931C126.12 126.431 157.04 141.511 159.82 142.721C166.06 145.431 172.48 147.801 178.93 149.991C179.36 150.141 179.79 150.281 180.23 150.431C180.44 150.501 180.67 150.571 180.88 150.521C181.07 150.471 181.21 150.341 181.37 150.221C184.26 147.991 186.23 152.321 185.94 154.711C185.92 154.831 185.9 154.971 185.81 155.051C185.71 155.141 185.55 155.141 185.41 155.141C179.33 154.941 173.32 152.681 167.59 150.761C164.44 149.711 161.28 148.681 158.19 147.471C155.35 146.371 124.43 130.711 121.34 130.511C121.12 130.501 120.89 130.491 120.7 130.591C119.8 131.041 121.11 132.011 121.49 132.251C122.39 132.801 123.41 133.111 124.32 133.631C129.9 136.821 163.72 153.571 169.46 156.481C171.94 157.741 172.31 159.051 173.1 161.561C173.12 161.621 173.13 161.681 173.15 161.741C172.29 161.531 171.43 161.331 170.57 161.121C166.2 160.681 161.6 160.301 156.93 159.811C155.99 159.671 155.04 159.521 154.09 159.321C148.75 158.201 145.9 152.341 139.88 154.311C135.62 155.971 138.32 160.961 134.79 161.581C131.43 163.081 129.92 159.731 128.42 156.371C128.18 154.991 127.96 153.561 126.92 152.671C126.17 152.131 125.42 151.491 124.63 150.661C121.44 147.361 117.45 141.191 109.38 127.411C122.72 162.511 119.87 147.871 124.26 153.021C125.72 162.641 121.09 154.121 102.04 129.601C130.52 168.111 48.6398 164.111 26.3398 165.871C49.8498 172.651 76.2798 165.641 69.6598 173.551C78.6598 168.711 122.86 156.121 124.77 161.941C124.96 160.601 125.33 160.461 125.8 160.971C127.88 163.711 129.23 166.201 131.46 168.541L131.3 167.661C131.38 168.101 131.68 168.501 132.09 168.891C132.24 169.281 132.2 169.671 132.01 170.041C126.48 171.241 121.02 171.291 117.08 174.721C117.07 174.661 117.08 174.611 117.08 174.561C116.05 175.211 115.18 175.971 114.91 177.841C119.8 171.761 128.42 172.961 134.89 176.481C133.79 175.621 132.65 174.751 131.32 174.331C133.15 174.881 134.7 176.121 136.27 177.291C136.87 177.671 137.45 178.071 138 178.481C138.37 178.711 138.75 178.921 139.15 179.101C139.94 179.891 140.55 180.771 140.3 182.471L141.03 181.431C141.06 184.681 134.24 187.271 132 188.361C126.73 190.931 121.26 193.071 115.94 195.541C113.91 196.481 116.97 200.351 115.21 201.741C114.99 201.921 114.76 202.111 114.64 202.371C114.34 203.001 79.3398 208.831 79.5898 209.391C79.8398 209.941 80.0998 210.471 80.1798 210.971C79.8498 211.641 61.5298 215.781 60.7998 216.821C62.4498 217.451 83.1498 213.651 84.8098 213.341C87.7998 212.791 121.17 204.471 124.09 203.611C130.62 201.671 137.06 199.371 143.4 196.901C143.82 196.731 144.25 196.571 144.67 196.401C144.88 196.321 145.1 196.231 145.23 196.051C145.34 195.891 145.37 195.691 145.41 195.511C146.19 191.941 150.49 194.001 151.8 196.021C151.87 196.131 151.94 196.241 151.92 196.371C151.9 196.511 151.78 196.611 151.67 196.691C146.88 200.441 140.83 202.571 135.2 204.791C132.11 206.011 129.03 207.251 125.88 208.311C123 209.291 89.2398 217.171 86.7498 219.011C86.5698 219.141 86.3898 219.281 86.3098 219.491C85.9098 220.411 87.5298 220.321 87.9798 220.251C89.0198 220.101 89.9998 219.671 91.0298 219.491C97.3598 218.351 134.03 209.441 140.29 207.971C143 207.341 144.13 208.111 146.35 209.531C146.4 209.561 146.45 209.601 146.5 209.631C145.71 210.031 144.92 210.421 144.12 210.811C140.49 213.281 136.72 215.951 132.83 218.581C132.02 219.081 131.2 219.571 130.34 220.041C125.53 222.611 119.58 219.951 116.23 225.341C114.04 229.351 119.31 231.431 117 234.181C115.39 237.491 112.08 235.891 108.77 234.281C107.7 233.371 106.62 232.421 105.24 232.411C104.32 232.481 103.33 232.471 102.19 232.351C97.6299 231.881 90.5998 229.711 75.5598 224.341C108.34 242.651 96.7398 233.271 103.42 234.391C110.72 240.821 101.7 237.271 71.3498 230.731C117.92 241.921 52.6298 291.491 36.6698 307.181C59.0398 297.261 74.7798 274.911 74.7898 285.221C78.5698 275.731 104.34 237.671 109.54 240.901C108.82 239.751 109.02 239.411 109.71 239.501C113.07 240.261 115.7 241.301 118.91 241.661L118.22 241.081C118.56 241.371 119.05 241.481 119.61 241.521C119.98 241.721 120.2 242.051 120.29 242.451C116.82 246.931 112.68 250.471 111.86 255.631C111.81 255.591 111.79 255.551 111.75 255.511C111.38 256.671 111.2 257.811 112.19 259.421C112.03 251.621 119.41 247.001 126.62 245.541C125.23 245.591 123.8 245.651 122.5 246.181C124.26 245.421 126.24 245.381 128.2 245.261C128.91 245.161 129.6 245.091 130.29 245.061C130.72 244.991 131.15 244.911 131.57 244.801C132.68 244.901 133.71 245.181 134.62 246.651L134.51 245.391C136.62 247.861 133.06 254.221 132.05 256.501C129.66 261.861 126.85 267.011 124.36 272.321C123.41 274.341 128.24 275.341 127.79 277.541C127.73 277.821 127.69 278.111 127.76 278.391C127.94 279.061 104.87 306.031 105.43 306.301C105.97 306.561 106.51 306.801 106.9 307.131C107.07 307.851 95.6998 322.801 95.8098 324.071C97.4798 323.491 110.89 307.281 111.96 305.981C113.9 303.641 134.12 275.811 135.79 273.281C139.54 267.601 143 261.691 146.27 255.731C146.49 255.331 146.71 254.931 146.93 254.531C147.04 254.331 147.15 254.121 147.13 253.901C147.11 253.711 147.01 253.541 146.92 253.371C145.23 250.131 149.84 248.951 152.14 249.651C152.26 249.691 152.39 249.731 152.45 249.841C152.52 249.961 152.5 250.111 152.47 250.241C151.21 256.201 147.95 261.721 145.06 267.031C143.48 269.951 141.91 272.881 140.19 275.721C138.61 278.321 117.82 306.061 117.09 309.071C117.04 309.281 116.99 309.511 117.06 309.721C117.35 310.681 118.53 309.571 118.83 309.231C119.53 308.441 120.01 307.491 120.68 306.681C124.79 301.741 147.16 271.341 151.02 266.191C152.69 263.961 154.05 263.831 156.66 263.491C156.72 263.491 156.78 263.481 156.84 263.471C156.49 264.281 156.13 265.091 155.78 265.911C154.59 270.141 153.42 274.601 152.12 279.121C151.82 280.021 151.51 280.931 151.15 281.841C149.12 286.901 142.85 288.691 143.75 294.971C144.65 299.451 150.02 297.661 150.02 301.241C150.91 304.811 147.35 305.721 143.78 306.611C142.38 306.611 140.93 306.571 139.88 307.451C139.22 308.091 138.46 308.721 137.51 309.361C133.71 311.931 126.94 314.791 111.96 320.341C148.84 313.301 133.93 313.561 139.76 310.131C149.49 310.361 140.29 313.451 112.83 327.941C155.7 306.581 137.54 386.521 135.41 408.791C146.17 386.811 143.86 359.571 150.49 367.461C147.29 357.761 142.56 312.041 148.62 311.171C147.33 310.751 147.26 310.361 147.85 309.991C150.91 308.421 153.6 307.521 156.29 305.731H155.39C155.84 305.731 156.29 305.511 156.73 305.171C157.14 305.091 157.52 305.191 157.85 305.451C158.07 311.111 157.18 316.491 159.87 320.971C159.81 320.971 159.76 320.961 159.71 320.951C160.17 322.071 160.77 323.071 162.56 323.661C157.42 317.791 160.1 309.511 164.69 303.751C163.65 304.681 162.6 305.651 161.95 306.891C162.81 305.181 164.3 303.881 165.73 302.531C166.21 302.001 166.7 301.501 167.2 301.031C167.49 300.701 167.76 300.361 168.01 300.011C168.92 299.371 169.9 298.921 171.53 299.471L170.63 298.571C173.83 299.101 175.2 306.271 175.89 308.661C177.51 314.301 178.67 320.051 180.17 325.721C180.74 327.881 185.08 325.541 186.15 327.511C186.29 327.761 186.44 328.011 186.67 328.181C187.24 328.581 186.9 364.071 187.5 363.921C188.09 363.771 188.65 363.611 189.16 363.611C189.76 364.051 190.66 382.821 191.55 383.711C192.46 382.201 192.31 361.151 192.29 359.471C192.27 356.431 189.87 322.121 189.53 319.101C188.76 312.341 187.6 305.591 186.28 298.921C186.19 298.471 186.1 298.031 186.01 297.581C185.97 297.361 185.92 297.131 185.76 296.971C185.63 296.831 185.43 296.771 185.26 296.701C181.88 295.311 184.65 291.441 186.87 290.501C186.99 290.451 187.11 290.411 187.23 290.441C187.36 290.481 187.44 290.621 187.5 290.741C190.36 296.111 191.41 302.441 192.62 308.361C193.28 311.611 193.97 314.861 194.47 318.151C194.93 321.161 196.83 355.771 198.21 358.541C198.31 358.741 198.42 358.941 198.6 359.061C199.44 359.611 199.63 358.001 199.64 357.541C199.67 356.491 199.42 355.451 199.42 354.401C199.39 347.971 196.99 310.301 196.63 303.881C196.48 301.101 197.43 300.121 199.21 298.191C199.25 298.141 199.3 298.101 199.34 298.061C199.59 298.911 199.84 299.761 200.09 300.611C201.9 304.611 203.87 308.791 205.78 313.081C206.13 313.971 206.47 314.861 206.78 315.791C208.48 320.971 204.83 326.381 209.55 330.611C213.12 333.471 216.08 328.641 218.39 331.381C221.37 333.541 219.22 336.521 217.06 339.501C215.98 340.391 214.85 341.301 214.61 342.651C214.52 343.571 214.33 344.541 214.02 345.641C212.76 350.051 209.41 356.591 201.5 370.471C225.23 341.371 213.97 351.161 216.24 344.781C223.84 338.701 218.78 346.981 207.06 375.731C226.17 331.821 263.65 404.721 276.33 423.151C270.44 399.401 251.16 380.011 261.32 381.801C252.63 376.431 219.62 344.451 223.71 339.881C222.46 340.391 222.15 340.141 222.36 339.471C223.69 336.301 225.18 333.881 226.08 330.781L225.39 331.361C225.73 331.071 225.93 330.611 226.06 330.071C226.32 329.741 226.68 329.581 227.1 329.561C230.91 333.751 233.68 338.451 238.62 340.151C238.57 340.191 238.53 340.211 238.48 340.241C239.56 340.801 240.65 341.181 242.4 340.491C234.69 339.291 231.42 331.231 231.23 323.871C231.04 325.251 230.85 326.671 231.15 328.041C230.71 326.181 231.02 324.221 231.24 322.271C231.27 321.561 231.32 320.861 231.4 320.181C231.41 319.741 231.4 319.311 231.36 318.881C231.65 317.801 232.11 316.831 233.71 316.201L232.45 316.091C235.25 314.441 240.9 319.051 242.96 320.441C247.82 323.721 252.41 327.381 257.2 330.761C259.03 332.051 260.85 327.461 262.93 328.291C263.2 328.391 263.47 328.491 263.76 328.471C264.45 328.411 287 355.811 287.37 355.311C287.72 354.821 288.05 354.331 288.44 354.011C289.18 353.961 301.93 367.761 303.19 367.871C302.91 366.131 289.27 350.101 288.18 348.821C286.21 346.511 262.32 321.761 260.11 319.671C255.17 314.991 249.95 310.561 244.64 306.301C244.28 306.011 243.93 305.731 243.57 305.441C243.4 305.301 243.21 305.151 242.99 305.131C242.8 305.111 242.61 305.191 242.43 305.251C238.95 306.361 238.58 301.611 239.68 299.461C239.74 299.351 239.81 299.231 239.92 299.181C240.05 299.131 240.19 299.181 240.32 299.231C245.97 301.501 250.84 305.681 255.57 309.441C258.17 311.511 260.78 313.561 263.28 315.751C265.57 317.761 289.27 343.051 292.11 344.291C292.31 344.381 292.53 344.461 292.74 344.431C293.74 344.311 292.84 342.961 292.56 342.601C291.91 341.771 291.05 341.141 290.37 340.341C286.21 335.431 260.16 308.121 255.77 303.431C253.87 301.401 253.97 300.041 254.09 297.411C254.09 297.351 254.09 297.291 254.1 297.231C254.84 297.721 255.58 298.211 256.32 298.701C260.28 300.601 264.47 302.531 268.69 304.601C269.53 305.061 270.37 305.521 271.2 306.031C275.83 308.911 276.51 315.391 282.84 315.601C287.41 315.501 286.58 309.891 290.11 310.511C293.78 310.251 294.05 313.911 294.31 317.591C294.06 318.971 293.78 320.391 294.46 321.581C294.98 322.341 295.46 323.201 295.93 324.251C297.8 328.441 299.44 335.601 302.3 351.321C301.77 313.781 299.44 328.511 297.08 322.171C298.99 312.631 300.44 322.221 309.94 351.781C296.35 305.861 371.92 337.611 393.48 343.591C373.7 329.181 346.48 326.721 355.4 321.561L355.49 321.401ZM339.47 250.941C338.97 250.171 337.38 249.101 336.95 248.351C338.14 248.671 338.81 249.781 339.47 250.941ZM331.27 171.071C330.39 170.801 328.49 171.001 327.67 170.711C328.79 170.191 330.01 170.611 331.27 171.071ZM273.65 115.151C272.8 115.511 271.48 116.881 270.66 117.181C271.18 116.061 272.39 115.601 273.65 115.151ZM128.49 156.391C128.69 157.291 129.82 158.831 129.97 159.691C128.96 158.981 128.71 157.711 128.49 156.391ZM108.88 234.251C109.61 234.811 111.47 235.261 112.14 235.821C110.91 235.931 109.91 235.111 108.88 234.251ZM143.9 306.501C144.82 306.451 146.53 305.611 147.41 305.611C146.54 306.481 145.24 306.511 143.9 306.501ZM217.17 339.341C217.84 338.721 218.62 336.971 219.28 336.411C219.17 337.641 218.2 338.491 217.17 339.341ZM282.99 270.531C282.6 271.001 282.1 271.201 281.57 271.291C279.98 271.541 278.08 270.691 277.73 272.681C281.99 274.341 286.4 275.121 288.27 280.001C283.18 272.731 274.77 273.981 269.27 279.381C267.97 276.421 269.32 273.931 270.42 271.611C270.71 270.881 270.14 270.641 269.54 270.431C269.31 270.351 269.09 270.281 268.86 270.201C269.13 269.931 269.45 269.641 269.78 269.351C270.91 268.391 272.15 267.561 273.45 266.811C277.83 264.541 282.52 263.251 287.32 262.381C287.47 262.351 287.62 262.331 287.77 262.311C287.71 265.521 284.75 267.441 282.99 270.541V270.531ZM283.19 289.911C283.6 290.181 284.01 290.441 284.41 290.701C284.27 291.031 284.13 291.371 283.99 291.701C283.74 291.101 283.47 290.501 283.19 289.911C281.73 288.961 280.25 287.981 278.8 287.041C280.01 285.441 280.95 283.461 281.63 281.551C282.63 281.881 283.39 282.341 283.94 282.901C284.47 283.491 284.8 284.181 284.96 284.971C285.82 286.841 285.24 288.691 284.48 290.541C284.02 290.271 283.56 290.001 283.11 289.721C283.14 289.781 283.17 289.841 283.2 289.901L283.19 289.911ZM260.15 286.101C260.21 286.081 260.27 286.061 260.32 286.051C260.51 286.581 260.7 287.161 260.9 287.781C260.64 287.161 260.39 286.601 260.15 286.111V286.101ZM260.28 288.381C259.82 287.681 259.45 287.401 259.15 287.431C259.11 287.051 259.08 286.731 259.06 286.461C259.21 286.391 259.39 286.341 259.56 286.281C259.75 286.781 259.99 287.481 260.28 288.381ZM258.58 251.831C254.75 254.441 250.71 256.701 246.16 258.161C246.16 258.141 246.14 258.131 246.13 258.111C245.84 257.601 245.53 257.091 245.21 256.581C245.45 255.741 245.71 254.851 245.98 253.891C244.68 251.931 243.45 249.951 242.27 247.941C247.7 249.241 253.13 250.581 258.57 251.831H258.58ZM239.55 195.011C237.96 189.661 236.41 184.301 234.77 178.971C238.95 180.981 242.92 183.351 246.46 186.561C246.46 186.581 246.44 186.591 246.43 186.611C246.14 187.121 245.85 187.641 245.56 188.171C244.71 188.381 243.81 188.601 242.85 188.851C241.81 190.951 240.69 192.991 239.54 195.011H239.55ZM265.26 165.101C263.94 164.731 263.8 163.911 264.58 162.481C266.06 163.361 267.63 164.171 268.62 165.241C267.28 165.241 266.15 165.201 265.26 165.101C266.01 165.311 267.14 165.381 268.7 165.321C269.29 165.991 269.66 166.751 269.63 167.701C269.36 168.451 267.76 168.711 266.77 168.631C260.09 166.651 259.7 165.061 262.77 161.261C262.86 161.331 262.95 161.401 263.05 161.461C261.69 163.831 262.28 164.781 265.26 165.101ZM265.32 160.681C265.01 160.911 264.75 161.091 264.53 161.241C264.4 161.141 264.26 161.021 264.12 160.891C264.45 160.481 264.94 159.921 265.58 159.221C265.21 159.971 265.14 160.431 265.32 160.681ZM265.63 160.881C266.12 161.031 267.01 160.881 268.2 160.621C269.07 161.101 270.51 161.411 272.34 161.741C272.08 161.821 271.82 161.901 271.56 161.971C270.06 162.351 268.48 162.521 266.95 162.201C266.32 162.071 265.72 161.851 265.15 161.571C265.3 161.351 265.45 161.121 265.63 160.881ZM263.68 160.471C263.68 160.471 263.59 160.391 263.55 160.351C263.92 159.921 264.32 159.471 264.76 158.991C264.35 159.531 263.99 160.021 263.69 160.481L263.68 160.471ZM263.25 160.091C263.25 160.091 263.22 160.071 263.21 160.061C263.52 159.691 263.83 159.321 264.17 158.921C263.84 159.331 263.54 159.711 263.25 160.091ZM266.13 168.851C265.69 169.251 265.29 169.721 264.99 170.381C263.73 173.131 262.66 175.371 261.69 177.221C260.61 173.971 259.51 170.711 258.58 167.351C258.55 167.251 258.53 167.141 258.5 167.041C259.14 165.231 260.42 163.441 262.45 160.981C262.47 161.001 262.5 161.021 262.52 161.041C258.68 166.121 259.05 167.411 266.13 168.851ZM260.48 194.971C262.39 199.191 263.91 203.561 264.56 208.301C264.54 208.301 264.53 208.311 264.51 208.321C263.96 208.521 263.4 208.741 262.84 208.961C262.06 208.581 261.22 208.171 260.32 207.741C258.17 208.681 256 209.551 253.82 210.361C256.04 205.231 258.31 200.121 260.48 194.981V194.971ZM291 207.371C290.41 207.391 289.8 207.501 289.14 207.811C286.4 209.111 284.15 210.141 282.22 210.931C283.48 207.751 284.73 204.541 286.18 201.361C286.22 201.261 286.27 201.171 286.32 201.071C287.97 200.091 290.11 199.541 293.24 198.971C293.24 199.001 293.25 199.031 293.26 199.061C287.05 200.481 286.5 201.711 291 207.361V207.371ZM286.58 214.511C287.34 214.041 288.1 213.571 288.85 213.091C290.39 211.501 292.23 210.991 293.99 210.981C294.01 211.011 294.03 211.031 294.06 211.061C294.04 211.031 294.02 211.011 294 210.981C294.88 210.981 295.74 211.111 296.53 211.291C296.12 211.841 295.72 212.391 295.31 212.951C292.48 216.891 289.74 220.961 287.22 225.281C286.71 226.681 285.95 227.891 285.04 228.981C284.13 230.071 283.06 231.051 281.83 231.051C280.8 232.921 279.61 233.821 277.43 233.161C277.28 235.481 276.06 236.061 273.92 235.901C273.45 236.871 272.08 237.101 270.61 237.141C269.14 237.171 267.59 237.011 265.93 236.621C266.65 236.791 269.64 233.021 270.18 232.421C273.99 228.311 276.62 223.761 278.82 219.021C281.44 217.571 284.03 216.091 286.58 214.521V214.511ZM296.29 198.931C295.63 199.081 295.04 199.231 294.51 199.381C294.51 199.321 294.5 199.261 294.49 199.201C295.05 199.111 295.65 199.021 296.29 198.931ZM294.43 198.811C294.43 198.811 294.43 198.781 294.42 198.761C294.89 198.681 295.38 198.591 295.89 198.511C295.38 198.611 294.9 198.711 294.43 198.811ZM296.78 199.641C296.01 199.981 295.67 200.281 295.64 200.591C295.26 200.561 294.94 200.541 294.67 200.511C294.63 200.351 294.61 200.171 294.58 199.981C295.1 199.881 295.84 199.761 296.77 199.641H296.78ZM295.75 200.941C296.03 201.371 296.82 201.821 297.88 202.391C298.24 203.321 299.14 204.481 300.34 205.911C300.09 205.811 299.84 205.701 299.6 205.591C298.21 204.921 296.88 204.031 295.92 202.801C295.52 202.301 295.21 201.741 294.95 201.161C295.21 201.091 295.47 201.011 295.77 200.941H295.75ZM292.41 247.861C292.41 247.861 292.38 247.921 292.36 247.941C286.69 245.041 285.48 245.631 285.29 252.851C284.83 252.491 284.28 252.181 283.58 252.001C280.65 251.241 278.26 250.581 276.27 249.941C279.28 248.311 282.3 246.661 285.45 245.161C285.55 245.111 285.65 245.071 285.75 245.031C287.64 245.341 289.63 246.301 292.41 247.871V247.861ZM272.93 240.861C271.1 242.241 269.31 243.651 267.53 245.071C266.24 243.561 265.25 241.641 264.04 238.971C265.7 239.351 267.37 239.701 269.06 240.031C270.79 240.371 272.54 240.701 272.35 240.781C272.56 240.811 272.75 240.841 272.94 240.871L272.93 240.861ZM272.39 212.821C270.43 212.491 268.43 211.661 265.79 210.391C267.3 209.611 268.81 208.811 270.32 207.981C271.87 207.131 273.42 206.261 273.32 206.441C273.5 206.331 273.66 206.231 273.82 206.131C273.3 208.361 272.85 210.591 272.39 212.821ZM269.89 223.741C268.64 228.201 266.99 232.531 264.44 236.571L264.39 236.551C263.84 236.351 263.27 236.161 262.7 235.971C262.35 235.171 261.97 234.321 261.56 233.411C259.3 232.751 257.09 232.021 254.9 231.241C259.9 228.741 264.92 226.281 269.89 223.741ZM248.76 187.381C249.42 185.811 250.06 184.231 250.69 182.621C251.33 180.971 251.96 179.311 252 179.511C252.07 179.311 252.13 179.131 252.19 178.951C253.23 180.991 254.31 182.991 255.4 184.991C253.69 186.001 251.62 186.641 248.77 187.371L248.76 187.381ZM244.33 259.731C245.36 261.081 246.41 262.431 247.49 263.771C248.6 265.151 249.72 266.521 249.53 266.461C249.67 266.621 249.79 266.761 249.92 266.901C247.64 266.781 245.36 266.721 243.08 266.661C243.06 264.671 243.54 262.561 244.33 259.741V259.731ZM256.76 278.251C256.86 278.281 256.97 278.311 257.07 278.341C258.32 279.801 259.23 281.801 260.34 284.791C260.31 284.791 260.28 284.811 260.25 284.821C257.77 278.951 256.47 278.631 251.68 284.041C251.56 283.471 251.34 282.881 250.92 282.291C249.17 279.821 247.76 277.781 246.64 276.011C249.99 276.701 253.37 277.381 256.75 278.251H256.76ZM260.71 285.931C260.71 285.931 260.74 285.921 260.76 285.911C260.92 286.361 261.09 286.821 261.26 287.311C261.07 286.821 260.89 286.371 260.71 285.931ZM258.33 263.901C256.72 265.581 255.41 265.241 253.88 263.741C252.9 264.181 251.7 263.481 250.55 262.561C249.41 261.641 248.32 260.521 247.3 259.151C247.74 259.741 252.46 258.771 253.25 258.661C258.81 257.961 263.75 256.171 268.48 253.951C271.41 254.521 274.36 255.051 277.32 255.491C278.2 255.621 279.09 255.741 279.98 255.861C282.18 255.641 283.92 256.421 285.27 257.551C285.94 258.111 286.52 258.761 287.01 259.421C286.34 259.581 285.68 259.741 285.01 259.911C280.31 261.101 275.6 262.471 270.88 264.151C269.59 264.901 268.23 265.341 266.83 265.581C265.43 265.831 263.99 265.891 263.04 265.101C261.05 265.871 259.56 265.791 258.32 263.891L258.33 263.901ZM289.3 254.711C289.07 253.391 288.91 252.271 288.85 251.371C288.77 252.151 288.9 253.271 289.23 254.801C288.68 255.501 287.98 255.991 287.05 256.131C286.27 255.991 285.73 254.461 285.64 253.481C286.43 246.551 287.93 245.901 292.21 248.261C292.16 248.361 292.11 248.461 292.06 248.571C289.49 247.641 288.66 248.381 288.86 251.381C288.99 250.021 289.78 249.741 291.32 250.251C290.71 251.861 290.18 253.551 289.3 254.711ZM293.39 257.751C293.27 257.511 293.14 257.271 293.03 257.021C292.39 255.611 291.95 254.081 292 252.521C292.02 251.881 292.14 251.251 292.31 250.641C292.55 250.751 292.8 250.861 293.08 251.001C293.02 251.501 293.33 252.361 293.78 253.481C293.46 254.421 293.4 255.891 293.4 257.761L293.39 257.751ZM294.79 249.801C294.19 249.491 293.64 249.221 293.14 249.001C293.17 248.951 293.21 248.901 293.24 248.851C293.73 249.141 294.24 249.461 294.79 249.801ZM293.44 248.511C293.44 248.511 293.45 248.481 293.46 248.461C293.87 248.701 294.3 248.951 294.75 249.211C294.29 248.961 293.86 248.731 293.44 248.511ZM294.7 250.661C293.89 250.421 293.43 250.441 293.22 250.661C292.94 250.391 292.71 250.171 292.53 249.981C292.61 249.831 292.7 249.681 292.8 249.521C293.27 249.781 293.9 250.161 294.7 250.671V250.661ZM316.35 241.211C316.6 241.601 316.89 241.951 317.23 242.261C317.48 242.791 317.68 243.321 317.86 243.861C318.55 245.991 318.76 248.121 319.58 250.201C319.34 249.401 319.39 248.621 320.53 248.551C322.53 248.431 322.65 250.431 323.1 251.211C323.43 249.991 322.53 248.431 322.08 247.661C324.65 250.321 323.51 244.761 326.8 244.471C327.63 244.191 328.49 244.011 329.31 243.921C325.64 246.641 327.88 250.521 327.67 253.751C327.69 258.881 323.1 257.811 318.91 256.031C319.31 255.981 319.73 255.891 320.18 255.781C319.56 255.861 318.98 255.891 318.47 255.851C317.95 255.621 317.44 255.381 316.95 255.151C316.88 255.051 316.82 254.931 316.78 254.811C316.76 254.901 316.76 254.981 316.76 255.061C316.51 254.941 316.27 254.831 316.04 254.711C316.26 254.641 316.49 254.581 316.72 254.501C316.71 254.371 316.69 254.251 316.7 254.101C316.25 254.231 315.83 254.341 315.45 254.431C315.22 254.321 314.99 254.201 314.78 254.101C315.1 253.971 315.46 253.831 315.88 253.681C315.19 253.751 314.57 253.811 313.97 253.861C313.81 253.861 313.65 253.861 313.49 253.861C313.57 253.791 313.65 253.721 313.75 253.641C311.91 253.731 310.63 253.831 309.86 253.911C310.06 253.971 310.28 254.031 310.48 254.091C310.8 254.081 311.18 254.061 311.6 254.031C311.33 254.081 311.07 254.131 310.8 254.191C310.69 254.161 310.58 254.131 310.48 254.091C310.09 254.111 309.76 254.111 309.52 254.111C309.74 254.171 309.98 254.231 310.22 254.291C306.45 255.031 302.71 255.781 299.13 256.721C297.48 257.071 295.83 257.421 294.19 257.781C296.13 251.911 298.18 250.891 305.95 252.831C306.49 252.831 307.63 252.911 309.31 253.041C309.52 252.801 310.97 252.361 313.96 251.781C303.74 251.891 302.28 251.151 312.12 250.151C299.51 249.481 298.2 248.551 308.89 247.141C301.12 246.751 297.58 246.181 296.9 244.851C299.02 245.471 301.36 245.541 303.06 245.191C305.67 244.541 307.05 243.001 307.66 241.061C310.95 241.141 314.11 241.231 316.36 241.211H316.35ZM314.63 236.781C314.1 236.871 313.58 236.961 313.05 237.031C313.11 237.061 313.17 237.081 313.23 237.111C313.72 237.051 314.2 236.991 314.67 236.931C314.78 237.271 314.88 237.621 314.99 237.971C314.41 237.671 313.82 237.381 313.23 237.111C311.51 237.321 309.74 237.521 308.02 237.731C307.92 235.731 307.37 233.601 306.66 231.711C307.64 231.321 308.51 231.191 309.29 231.261C310.08 231.371 310.78 231.691 311.4 232.191C313.26 233.071 314.01 234.861 314.61 236.771L314.63 236.781ZM310.76 226.251C302.19 223.951 296.55 230.321 295.8 237.991C292.9 236.561 292.34 233.781 291.68 231.301C291.43 230.561 290.84 230.741 290.25 230.961C290.02 231.041 289.81 231.141 289.58 231.221C289.61 230.841 289.67 230.411 289.74 229.981C289.99 228.521 290.41 227.081 290.92 225.681C292.82 221.121 295.58 217.121 298.69 213.371C298.79 213.251 298.89 213.141 298.99 213.031C301.01 215.531 299.97 218.901 300.62 222.411C300.62 223.021 300.37 223.501 300.02 223.901C298.96 225.111 296.96 225.681 297.97 227.431C302.3 225.971 306.18 223.721 310.75 226.261L310.76 226.251ZM307.31 178.501C307.75 178.631 308.2 178.721 308.66 178.741C309.19 178.991 309.69 179.261 310.17 179.561C312.06 180.751 313.6 182.241 315.57 183.311C314.87 182.851 314.41 182.221 315.24 181.441C316.7 180.061 318.07 181.521 318.92 181.821C318.38 180.671 316.7 180.061 315.86 179.751C319.54 180.131 315.1 176.611 317.42 174.271C317.88 173.521 318.41 172.831 318.99 172.241C317.93 176.691 322.14 178.221 324.05 180.821C327.36 184.731 323.17 186.871 318.81 188.191C319.08 187.891 319.35 187.551 319.61 187.181C319.19 187.641 318.77 188.041 318.35 188.331C317.8 188.491 317.26 188.641 316.73 188.771C316.61 188.741 316.49 188.691 316.38 188.621C316.42 188.701 316.46 188.771 316.5 188.831C316.24 188.901 315.99 188.961 315.75 189.021C315.88 188.831 316 188.631 316.14 188.421C316.05 188.331 315.95 188.251 315.87 188.121C315.61 188.521 315.36 188.861 315.12 189.171C314.87 189.231 314.63 189.291 314.4 189.351C314.56 189.041 314.75 188.711 314.97 188.321C314.45 188.861 313.97 189.341 313.52 189.791C313.43 189.871 313.34 189.941 313.26 190.021C313.27 189.911 313.29 189.801 313.32 189.661C311.97 190.911 311.06 191.811 310.52 192.371C310.71 192.281 310.92 192.201 311.12 192.111C311.36 191.891 311.64 191.631 311.94 191.341C311.77 191.551 311.6 191.761 311.43 191.971C311.33 192.011 311.22 192.061 311.12 192.101C310.83 192.371 310.59 192.581 310.4 192.741C310.61 192.641 310.83 192.541 311.06 192.431C308.64 195.421 306.27 198.401 304.13 201.421C303.09 202.751 302.05 204.081 301.02 205.411C298.74 199.661 299.65 197.571 306.85 194.061C307.26 193.711 308.19 193.041 309.56 192.071C309.56 191.751 310.4 190.481 312.31 188.121C304.55 194.771 302.96 195.141 309.85 188.051C299.76 195.651 298.16 195.771 305.44 187.821C299.24 192.501 296.17 194.351 294.78 193.771C296.8 192.881 298.64 191.431 299.72 190.071C301.3 187.891 301.38 185.821 300.6 183.951C303.17 181.901 305.64 179.941 307.35 178.491L307.31 178.501ZM295.52 175.421C296.2 175.001 296.93 174.791 297.74 174.771C299.73 174.251 301.45 175.141 303.14 176.211C302.79 176.611 302.45 177.021 302.1 177.421C302.16 177.401 302.23 177.381 302.29 177.361C302.62 177.001 302.95 176.651 303.28 176.291C303.58 176.481 303.89 176.681 304.19 176.881C303.55 177.021 302.92 177.181 302.29 177.361C301.11 178.631 299.88 179.921 298.7 181.191C297.34 179.721 295.55 178.451 293.79 177.461C294.29 176.531 294.87 175.871 295.52 175.421ZM292.78 203.961C292.01 202.831 292.43 202.111 293.94 201.511C294.51 203.141 295.19 204.771 295.26 206.221C294.24 205.351 293.4 204.601 292.77 203.951C293.21 204.591 294.03 205.371 295.26 206.331C295.28 207.221 295.07 208.041 294.44 208.751C293.75 209.151 292.36 208.321 291.66 207.621C287.81 201.811 288.54 200.341 293.34 199.401C293.36 199.511 293.39 199.621 293.42 199.731C290.86 200.671 290.69 201.771 292.78 203.941V203.961ZM275.89 168.071C279.04 168.691 280.42 171.941 283.17 174.201C283.57 174.671 283.68 175.191 283.67 175.731C283.64 177.341 282.47 179.061 284.37 179.751C286.74 175.851 288.28 171.631 293.41 170.641C285.37 174.391 285.14 182.891 289.5 189.251C286.36 190.011 284.14 188.251 282.05 186.771C281.38 186.361 281.05 186.881 280.73 187.431C280.61 187.641 280.5 187.851 280.39 188.061C280.17 187.751 279.94 187.391 279.72 187.011C278.97 185.731 278.37 184.361 277.85 182.961C276.37 178.251 275.92 173.411 275.89 168.531C275.89 168.381 275.89 168.231 275.89 168.071ZM275.49 189.261C275.49 190.681 275.3 192.121 274.36 192.911C274.77 195.011 274.44 196.461 272.34 197.351C273.72 199.231 273.15 200.451 271.41 201.701C271.68 202.741 270.77 203.801 269.67 204.771C268.57 205.741 267.27 206.611 265.75 207.381C266.41 207.051 266.28 202.231 266.3 201.431C266.58 195.831 265.67 190.661 264.3 185.611C265.37 182.821 266.41 180.011 267.35 177.181C267.63 176.331 267.91 175.481 268.18 174.631C268.34 172.421 269.42 170.841 270.76 169.711C270.79 169.711 270.83 169.721 270.86 169.731C270.83 169.731 270.8 169.711 270.77 169.711C271.44 169.141 272.18 168.691 272.91 168.321C272.95 169.001 273 169.691 273.05 170.371C273.41 175.211 273.93 180.081 274.78 185.021C275.29 186.421 275.49 187.841 275.49 189.261ZM260.07 136.281C260.49 136.101 260.89 135.881 261.26 135.601C261.83 135.451 262.39 135.341 262.94 135.261C265.15 134.951 267.29 135.111 269.49 134.671C268.66 134.771 267.9 134.581 268.03 133.451C268.26 131.461 270.25 131.691 271.09 131.381C269.94 130.841 268.26 131.461 267.41 131.761C270.47 129.691 264.81 129.851 265.09 126.561C264.96 125.691 264.93 124.821 264.99 124.001C267.03 128.091 271.24 126.561 274.38 127.321C279.43 128.191 277.59 132.521 275.1 136.331C275.11 135.931 275.1 135.501 275.07 135.041C275.05 135.661 274.97 136.241 274.84 136.731C274.52 137.201 274.2 137.661 273.89 138.111C273.78 138.161 273.66 138.201 273.52 138.221C273.6 138.261 273.68 138.281 273.75 138.301C273.6 138.511 273.44 138.731 273.29 138.931C273.26 138.701 273.24 138.471 273.2 138.221C273.07 138.221 272.95 138.211 272.8 138.171C272.85 138.641 272.89 139.071 272.9 139.461C272.75 139.671 272.6 139.871 272.46 140.061C272.39 139.721 272.31 139.341 272.24 138.911C272.19 139.601 272.14 140.231 272.09 140.821C272.06 140.981 272.03 141.141 272.01 141.301C271.96 141.211 271.9 141.121 271.84 141.011C271.61 142.841 271.49 144.111 271.44 144.891C271.53 144.701 271.63 144.501 271.73 144.311C271.77 143.991 271.82 143.611 271.86 143.201C271.86 143.471 271.87 143.741 271.88 144.011C271.83 144.111 271.78 144.211 271.73 144.311C271.68 144.701 271.63 145.021 271.59 145.261C271.69 145.051 271.79 144.831 271.89 144.601C271.96 148.451 272.06 152.251 272.36 155.941C272.41 157.631 272.48 159.311 272.55 160.991C267.11 158.061 266.46 155.861 269.72 148.551C269.81 148.021 270.09 146.911 270.51 145.281C270.31 145.031 270.13 143.531 270.07 140.481C268.4 150.561 267.42 151.871 268.14 142.011C265.29 154.311 264.15 155.441 264.61 144.671C262.87 152.241 261.7 155.631 260.27 156.081C261.25 154.101 261.72 151.811 261.68 150.071C261.49 147.391 260.21 145.761 258.41 144.831C259.06 141.611 259.69 138.511 260.07 136.291V136.281ZM249.05 141.501C249.3 140.741 249.73 140.111 250.33 139.581C251.52 137.911 253.42 137.481 255.4 137.211C255.4 137.741 255.4 138.271 255.38 138.811C255.42 138.751 255.45 138.701 255.49 138.641C255.52 138.151 255.54 137.671 255.56 137.191C255.92 137.141 256.28 137.101 256.64 137.051C256.24 137.571 255.86 138.101 255.49 138.641C255.4 140.371 255.29 142.151 255.2 143.881C253.21 143.631 251.02 143.811 249.04 144.181C248.82 143.151 248.85 142.261 249.06 141.511L249.05 141.501ZM238.81 148.501C239.41 148.601 239.84 148.931 240.17 149.351C241.18 150.601 241.39 152.671 243.29 151.981C242.6 147.461 241.07 143.251 244.36 139.191C240.61 147.231 245.9 153.891 253.32 155.961C251.41 158.561 248.57 158.641 246.01 158.851C245.23 158.971 245.31 159.581 245.42 160.201C245.46 160.441 245.52 160.671 245.56 160.901C245.19 160.801 244.78 160.681 244.37 160.531C242.97 160.031 241.63 159.371 240.34 158.621C236.18 155.961 232.72 152.541 229.57 148.831C229.47 148.711 229.38 148.591 229.28 148.481C232.09 146.931 235.23 148.531 238.8 148.501H238.81ZM226.42 153.031C226.42 153.031 226.48 153.001 226.51 152.981C226.48 152.991 226.45 153.011 226.42 153.021C226.57 152.151 226.85 151.331 227.17 150.581C227.64 151.081 228.11 151.571 228.59 152.071C231.97 155.541 235.51 158.941 239.33 162.181C240.62 162.931 241.68 163.881 242.6 164.971C243.52 166.061 244.29 167.281 244.08 168.491C245.74 169.831 246.42 171.161 245.39 173.191C247.65 173.741 248 175.051 247.47 177.121C248.34 177.751 248.33 179.141 248.11 180.591C247.89 182.041 247.46 183.541 246.78 185.111C247.07 184.431 243.87 180.831 243.38 180.201C239.99 175.731 235.97 172.351 231.68 169.371C230.71 166.541 229.69 163.731 228.59 160.951C228.26 160.121 227.93 159.291 227.58 158.461C226.28 156.661 226.1 154.761 226.4 153.031H226.42ZM225.38 214.231C225.76 214.811 229.35 213.361 229.75 213.921C229.77 213.951 229.77 214.001 229.75 214.061C230.19 213.451 230.58 212.811 230.92 212.151C231.41 211.761 231.35 211.951 230.89 212.541C231.31 212.231 231.28 212.401 231.02 212.801C231.2 212.741 231.17 212.911 231.11 213.111C231.11 213.251 231.07 213.421 231.03 213.601C230.9 214.291 230.79 214.991 230.7 215.691C230.62 216.381 234.3 217.571 234.25 218.261C234.25 218.301 234.21 218.341 234.16 218.371C234.89 218.181 235.6 217.941 236.29 217.651C236.92 217.671 236.75 217.771 236.01 217.931C236.53 217.971 236.39 218.071 235.94 218.221C236.12 218.291 235.98 218.401 235.8 218.511C235.7 218.611 235.57 218.721 235.43 218.831C234.89 219.271 234.35 219.731 233.83 220.221C233.32 220.701 235.38 223.971 234.89 224.471C234.86 224.501 234.81 224.511 234.75 224.501C235.43 224.831 236.13 225.101 236.84 225.321C237.31 225.741 237.12 225.711 236.45 225.361C236.83 225.721 236.65 225.721 236.21 225.531C236.3 225.701 236.13 225.691 235.92 225.671C235.78 225.691 235.6 225.681 235.43 225.681C234.73 225.681 234.02 225.681 233.31 225.721C232.61 225.761 232.08 229.591 231.39 229.661C231.35 229.661 231.31 229.641 231.26 229.591C231.57 230.281 231.93 230.941 232.33 231.561C232.42 232.191 232.29 232.031 232.01 231.331C232.07 231.851 231.94 231.731 231.72 231.311C231.68 231.501 231.55 231.381 231.41 231.231C231.29 231.151 231.16 231.041 231.03 230.921C230.5 230.461 229.95 230.021 229.39 229.591C228.83 229.171 225.96 231.771 225.39 231.381C225.36 231.361 225.34 231.311 225.34 231.251C225.14 231.971 224.99 232.711 224.9 233.441C224.57 233.991 224.56 233.791 224.79 233.061C224.5 233.491 224.48 233.321 224.58 232.861C224.43 232.981 224.41 232.811 224.39 232.601C224.35 232.461 224.32 232.291 224.29 232.121C224.18 231.431 224.04 230.741 223.89 230.041C223.73 229.361 219.86 229.511 219.68 228.831C219.67 228.791 219.68 228.741 219.72 228.691C219.1 229.121 218.51 229.591 217.97 230.091C217.37 230.291 217.5 230.141 218.14 229.731C217.64 229.881 217.73 229.731 218.11 229.441C217.92 229.441 218.01 229.291 218.14 229.121C218.2 228.991 218.29 228.841 218.38 228.691C218.74 228.091 219.08 227.471 219.41 226.841C219.72 226.221 216.67 223.841 216.96 223.211C216.98 223.171 217.02 223.151 217.08 223.131C216.33 223.061 215.58 223.041 214.84 223.081C214.24 222.851 214.44 222.811 215.19 222.911C214.71 222.701 214.88 222.651 215.35 222.661C215.21 222.531 215.37 222.481 215.58 222.431C215.71 222.371 215.87 222.311 216.04 222.251C216.7 222.021 217.36 221.771 218.02 221.491C218.66 221.221 217.85 217.431 218.48 217.131C218.52 217.111 218.57 217.131 218.62 217.151C218.09 216.611 217.53 216.121 216.94 215.671C216.64 215.111 216.81 215.211 217.32 215.771C217.09 215.301 217.25 215.371 217.6 215.691C217.57 215.501 217.73 215.571 217.92 215.661C218.06 215.691 218.22 215.761 218.38 215.821C219.04 216.071 219.7 216.301 220.38 216.511C221.05 216.711 222.86 213.291 223.53 213.461C223.57 213.471 223.6 213.511 223.63 213.571C223.57 212.821 223.46 212.081 223.29 211.361C223.42 210.731 223.49 210.921 223.52 211.681C223.65 211.171 223.73 211.331 223.79 211.801C223.89 211.641 223.97 211.801 224.06 211.981C224.14 212.091 224.23 212.251 224.31 212.401C224.65 213.011 225.01 213.621 225.4 214.211L225.38 214.231ZM231.9 266.101C227.29 265.641 222.74 264.771 218.32 262.961C218.32 262.941 218.32 262.921 218.32 262.911C218.42 262.331 218.51 261.741 218.6 261.151C219.33 260.661 220.09 260.151 220.92 259.581C221.18 257.241 221.51 254.931 221.9 252.641C225.23 257.131 228.52 261.641 231.89 266.101H231.9ZM215.57 272.071C213.9 270.511 212.19 268.991 210.49 267.481C211.75 265.951 213.48 264.641 215.89 262.981C215.81 264.681 215.75 266.391 215.72 268.111C215.68 269.881 215.66 271.651 215.56 271.481C215.56 271.691 215.57 271.891 215.57 272.081V272.071ZM211.61 293.581C211.61 293.581 211.64 293.581 211.66 293.591C211.5 294.041 211.33 294.501 211.15 294.991C211.32 294.491 211.47 294.031 211.62 293.581H211.61ZM210.58 295.131C210.78 294.481 210.95 293.901 211.08 293.371C211.14 293.391 211.19 293.421 211.25 293.441C211.05 293.971 210.83 294.531 210.58 295.131ZM211.65 292.321C211.54 292.291 211.43 292.251 211.32 292.221C211.79 289.531 210.91 288.841 208 289.561C209.36 289.461 209.78 290.181 209.54 291.791C207.84 291.471 206.09 291.251 204.79 290.581C206.05 290.131 207.12 289.781 208 289.561C207.22 289.621 206.14 289.941 204.69 290.531C203.91 290.111 203.3 289.511 203 288.611C203 287.811 204.41 287.021 205.37 286.761C212.33 286.331 213.24 287.701 211.65 292.321ZM209.46 293.731C209.67 293.411 209.86 293.151 210.01 292.931C210.17 292.981 210.34 293.051 210.51 293.121C210.34 293.621 210.07 294.321 209.71 295.191C209.8 294.361 209.71 293.911 209.45 293.731H209.46ZM183.61 236.031C183.26 231.411 183.33 226.781 184.34 222.111C184.36 222.111 184.38 222.111 184.4 222.111C184.99 222.111 185.58 222.101 186.19 222.081C186.8 222.711 187.44 223.381 188.14 224.091C190.49 223.941 192.82 223.871 195.14 223.861C191.3 227.921 187.42 231.951 183.62 236.031H183.61ZM192.04 247.171C190.88 248.421 189.74 249.691 188.6 250.991C187.44 252.321 186.28 253.671 186.31 253.461C186.18 253.621 186.06 253.771 185.94 253.921C185.66 251.651 185.33 249.391 184.99 247.141C186.95 246.781 189.11 246.881 192.03 247.171H192.04ZM168.89 262.461C170 263.261 169.85 264.081 168.63 265.161C167.54 263.821 166.34 262.531 165.77 261.181C167.03 261.641 168.07 262.061 168.88 262.461C168.25 262.011 167.21 261.561 165.72 261.081C165.39 260.251 165.31 259.411 165.66 258.521C166.17 257.911 167.76 258.211 168.66 258.631C174.26 262.771 174.08 264.411 169.9 266.921C169.84 266.831 169.78 266.731 169.71 266.631C171.8 264.871 171.57 263.781 168.88 262.461H168.89ZM167.33 266.591C167.7 266.481 168.01 266.401 168.27 266.331C168.36 266.471 168.45 266.631 168.53 266.801C168.07 267.071 167.42 267.431 166.59 267.871C167.2 267.291 167.42 266.891 167.33 266.591ZM164.61 265.661C163.95 264.911 162.71 264.131 161.1 263.191C161.37 263.201 161.64 263.211 161.91 263.241C163.45 263.401 165 263.781 166.33 264.601C166.88 264.941 167.36 265.351 167.81 265.811C167.6 265.971 167.37 266.131 167.12 266.291C166.72 265.981 165.82 265.831 164.62 265.651L164.61 265.661ZM168.8 267.351C168.83 267.401 168.85 267.461 168.88 267.511C168.39 267.791 167.86 268.071 167.28 268.381C167.85 268.011 168.35 267.671 168.8 267.351ZM169.07 267.851C169.07 267.851 169.09 267.881 169.1 267.891C168.69 268.131 168.26 268.371 167.81 268.631C168.26 268.361 168.67 268.101 169.07 267.851ZM169.36 258.631C169.9 258.411 170.44 258.101 170.95 257.581C173.08 255.421 174.84 253.681 176.39 252.281C176.29 255.701 176.21 259.151 175.94 262.621C175.94 262.731 175.92 262.841 175.91 262.941C174.69 264.421 172.87 265.671 170.12 267.291C170.11 267.261 170.09 267.231 170.07 267.211C175.42 263.751 175.51 262.411 169.35 258.631H169.36ZM171.07 250.411C170.51 251.111 169.96 251.821 169.42 252.531C168.51 254.551 166.96 255.661 165.31 256.271C165.28 256.251 165.25 256.241 165.22 256.221C165.25 256.241 165.27 256.261 165.3 256.271C164.47 256.571 163.62 256.751 162.82 256.841C163.01 256.181 163.21 255.531 163.39 254.861C164.71 250.191 165.88 245.431 166.78 240.501C166.78 239.011 167.08 237.611 167.56 236.271C168.04 234.931 168.71 233.651 169.87 233.231C170.2 231.121 171.01 229.871 173.28 229.751C172.63 227.521 173.58 226.561 175.64 225.981C175.75 224.911 176.96 224.221 178.33 223.691C179.7 223.161 181.21 222.781 182.91 222.581C182.17 222.671 180.66 227.241 180.35 227.981C178.17 233.151 177.26 238.321 176.82 243.531C174.86 245.781 172.93 248.071 171.07 250.411ZM156.34 216.551C156.68 217.881 156.04 218.411 154.41 218.451C154.43 216.721 154.35 214.961 154.78 213.571C155.45 214.731 155.98 215.731 156.34 216.551C156.15 215.791 155.64 214.791 154.81 213.461C155.09 212.621 155.57 211.921 156.41 211.461C157.19 211.321 158.22 212.571 158.64 213.471C160.27 220.251 159.08 221.381 154.25 220.621C154.26 220.511 154.28 220.391 154.29 220.281C157.02 220.281 157.55 219.291 156.33 216.551H156.34ZM171.41 174.091C171.41 174.091 171.31 174.161 171.26 174.201C170.9 173.761 170.53 173.291 170.13 172.781C170.59 173.281 171.01 173.711 171.41 174.101V174.091ZM170.51 172.001C171.19 172.501 171.62 172.641 171.9 172.511C172.07 172.851 172.21 173.151 172.32 173.391C172.2 173.501 172.06 173.621 171.91 173.731C171.56 173.331 171.09 172.751 170.52 172.001H170.51ZM170.96 174.451C170.96 174.451 170.94 174.471 170.92 174.491C170.61 174.121 170.3 173.751 169.97 173.351C170.32 173.741 170.64 174.111 170.96 174.461V174.451ZM172.15 195.661C173.38 194.951 174.72 194.401 175.88 194.821C177.49 193.411 178.92 192.981 180.73 194.351C181.67 192.221 183.01 192.101 184.96 192.981C185.73 192.231 187.1 192.481 188.49 192.951C189.88 193.421 191.28 194.111 192.71 195.041C192.09 194.631 187.99 197.161 187.28 197.531C182.29 200.091 178.27 203.461 174.58 207.171C171.63 207.631 168.68 208.151 165.75 208.751C164.87 208.931 164 209.121 163.13 209.311C161.13 210.281 159.23 210.131 157.58 209.531C157.57 209.501 157.56 209.471 157.54 209.431C157.54 209.461 157.56 209.491 157.57 209.521C156.74 209.221 155.98 208.811 155.3 208.361C155.87 207.981 156.44 207.601 157.01 207.211C161.02 204.481 164.98 201.591 168.83 198.391C169.79 197.251 170.92 196.371 172.15 195.661ZM190.96 190.751C189.45 189.841 187.92 188.931 188.13 188.921C187.95 188.821 187.78 188.731 187.62 188.641C189.81 187.971 191.97 187.251 194.13 186.531C194.83 188.391 195.1 190.541 195.33 193.471C193.9 192.551 192.45 191.641 190.98 190.751H190.96ZM195.54 196.731C195.6 197.601 195.66 198.531 195.74 199.521C197.63 200.911 199.47 202.361 201.26 203.841C195.71 204.481 190.15 205.071 184.61 205.761C187.31 201.991 190.34 198.491 194.12 195.571C194.13 195.581 194.15 195.591 194.16 195.611C194.61 195.991 195.07 196.361 195.55 196.731H195.54ZM159.16 213.931C159.72 214.111 160.33 214.221 161.06 214.151C164.08 213.871 166.55 213.671 168.63 213.581C166.36 216.141 164.08 218.731 161.64 221.211C161.56 221.291 161.48 221.361 161.41 221.441C159.52 221.801 157.33 221.581 154.18 221.051C154.18 221.021 154.19 220.991 154.2 220.961C160.52 221.751 161.46 220.781 159.16 213.931ZM178.81 220.431C177.06 220.701 175.31 220.991 175.46 220.851C175.25 220.891 175.06 220.931 174.88 220.971C176.13 219.051 177.33 217.111 178.52 215.171C180.25 216.151 181.84 217.621 183.89 219.711C182.2 219.921 180.51 220.171 178.81 220.431ZM193.93 248.671C194.38 248.291 194.83 247.901 195.28 247.501C196.15 247.591 197.07 247.691 198.06 247.791C199.76 246.171 201.5 244.611 203.27 243.111C202.94 248.691 202.56 254.261 202.27 259.841C199.03 256.531 196.11 252.941 193.88 248.711C193.89 248.701 193.91 248.691 193.92 248.671H193.93ZM218.82 192.471C214.16 189.391 209.52 186.271 204.83 183.241C209.32 182.091 213.89 181.361 218.67 181.541C218.67 181.561 218.67 181.581 218.67 181.591C218.77 182.171 218.89 182.751 219.01 183.341C218.5 184.051 217.95 184.791 217.37 185.611C217.92 187.891 218.4 190.181 218.82 192.471ZM205.9 286.321C206.17 285.801 206.39 285.211 206.45 284.491C206.69 281.471 206.93 279.001 207.21 276.931C209.33 279.611 211.49 282.301 213.51 285.141C213.57 285.231 213.63 285.321 213.69 285.411C213.71 287.331 213.12 289.451 212.05 292.461C212.02 292.451 211.99 292.441 211.96 292.431C213.83 286.341 213.04 285.251 205.9 286.321ZM224.48 174.621C223.82 176.491 222.65 178.311 220.94 180.701C220.44 179.081 219.9 177.451 219.35 175.821C218.78 174.151 218.19 172.471 218.35 172.601C218.27 172.401 218.2 172.221 218.13 172.051C220.24 172.951 222.36 173.791 224.47 174.631L224.48 174.621ZM214.56 151.671C214.88 158.031 216 158.791 222.35 155.341C222.27 155.921 222.27 156.551 222.46 157.251C223.26 160.171 223.89 162.571 224.33 164.611C221.42 162.811 218.47 161.021 215.6 159.051C215.51 158.991 215.42 158.921 215.34 158.861C214.66 157.061 214.49 154.871 214.47 151.681C214.5 151.681 214.53 151.681 214.57 151.681L214.56 151.671ZM214.46 150.481C214.46 150.001 214.46 149.511 214.46 148.991C214.47 149.511 214.49 150.001 214.5 150.481C214.48 150.481 214.47 150.481 214.45 150.481H214.46ZM224.3 152.201C224.57 152.951 223.52 154.181 222.71 154.751C216.32 157.531 215 156.561 214.91 151.671C215.02 151.671 215.14 151.661 215.25 151.651C215.73 154.341 216.79 154.691 219.28 153.021C218.03 153.581 217.4 153.041 217.07 151.451C218.77 151.171 220.5 150.781 221.94 150.971C220.91 151.831 220.02 152.521 219.27 153.031C219.98 152.711 220.89 152.031 222.05 150.991C222.93 151.121 223.7 151.471 224.29 152.221L224.3 152.201ZM214.91 150.481C214.91 149.911 214.94 149.311 214.96 148.661C214.99 149.341 215.04 149.941 215.09 150.491C215.03 150.491 214.97 150.491 214.91 150.491V150.481ZM215.75 148.311C215.95 149.131 216.19 149.521 216.49 149.591C216.4 149.961 216.32 150.271 216.24 150.531C216.07 150.531 215.89 150.531 215.71 150.531C215.7 150.001 215.71 149.251 215.75 148.311ZM222.1 146.581C221.2 147.841 220.09 148.981 218.72 149.721C218.16 150.021 217.55 150.241 216.93 150.391C216.9 150.121 216.87 149.851 216.85 149.551C217.32 149.351 217.9 148.651 218.65 147.701C219.63 147.511 220.93 146.821 222.54 145.891C222.39 146.121 222.25 146.351 222.09 146.571L222.1 146.581ZM201.94 118.231C206.36 115.651 207.74 120.151 208.29 124.671C208.05 124.361 207.76 124.031 207.44 123.701C207.82 124.191 208.14 124.681 208.35 125.141C208.41 125.701 208.46 126.271 208.5 126.811C208.45 126.921 208.38 127.031 208.29 127.131C208.38 127.111 208.45 127.081 208.52 127.051C208.54 127.311 208.56 127.571 208.58 127.831C208.41 127.671 208.24 127.511 208.06 127.341C207.96 127.421 207.86 127.491 207.72 127.551C208.07 127.881 208.36 128.181 208.63 128.471C208.65 128.731 208.66 128.971 208.68 129.211C208.4 128.991 208.11 128.761 207.77 128.471C208.21 129.081 208.6 129.631 208.97 130.161C209.03 130.261 209.09 130.361 209.15 130.461C209.05 130.431 208.94 130.391 208.81 130.341C209.81 131.881 210.53 132.941 210.99 133.571C210.94 133.371 210.89 133.151 210.84 132.941C210.67 132.671 210.46 132.351 210.23 132.001C210.41 132.201 210.59 132.411 210.76 132.611C210.79 132.721 210.81 132.831 210.84 132.941C211.05 133.271 211.22 133.551 211.34 133.761C211.28 133.541 211.22 133.301 211.15 133.061C213.68 135.961 216.2 138.811 218.8 141.451C219.93 142.711 221.06 143.961 222.19 145.201C216.13 146.451 214.23 145.201 212.02 137.491C211.74 137.031 211.25 135.991 210.53 134.481C210.21 134.421 209.11 133.381 207.11 131.091C212.31 139.881 212.4 141.521 206.62 133.501C212.35 144.761 212.19 146.351 205.63 137.801C209.17 144.721 210.45 148.071 209.64 149.331C209.12 147.181 208.01 145.131 206.85 143.821C204.98 141.891 202.95 141.451 200.97 141.891C199.4 139.011 197.89 136.231 196.76 134.291C196.97 133.881 197.13 133.461 197.23 133.001C197.56 132.521 197.92 132.081 198.3 131.661C199.8 130.001 201.53 128.751 202.93 127.001C202.36 127.611 201.65 127.951 201.03 127.001C199.93 125.331 201.6 124.221 202.05 123.451C200.83 123.781 199.93 125.331 199.48 126.111C200.5 122.561 196.26 126.321 194.36 123.621C193.7 123.041 193.12 122.391 192.63 121.721C196.83 123.541 199.07 119.661 201.96 118.231H201.94ZM193.61 109.371C193.19 110.191 193.06 112.091 192.63 112.851C192.31 111.661 192.94 110.531 193.61 109.371ZM193.75 138.011C194.09 138.421 194.44 138.821 194.77 139.231C194.77 139.161 194.75 139.101 194.75 139.031C194.46 138.641 194.16 138.251 193.87 137.871C194.11 137.601 194.36 137.341 194.61 137.071C194.64 137.721 194.68 138.371 194.75 139.031C195.79 140.421 196.85 141.851 197.89 143.231C196.2 144.321 194.64 145.861 193.36 147.421C192.53 146.771 191.98 146.081 191.66 145.361C191.36 144.621 191.29 143.861 191.41 143.061C191.25 141.021 192.42 139.481 193.75 138.001V138.011ZM188.31 157.311C188.84 157.001 189.38 156.981 189.9 157.081C191.48 157.391 192.97 158.841 193.98 157.091C190.55 154.071 186.67 151.831 186.58 146.611C188.88 155.181 197.21 156.881 204.22 153.691C204.43 156.911 202.31 158.801 200.48 160.601C199.96 161.191 200.42 161.611 200.9 162.011C201.08 162.161 201.27 162.311 201.46 162.461C201.11 162.631 200.72 162.791 200.31 162.941C198.92 163.461 197.47 163.811 195.99 164.071C191.1 164.711 186.25 164.311 181.44 163.491C181.29 163.461 181.14 163.431 180.99 163.401C182.15 160.401 185.58 159.611 188.29 157.301L188.31 157.311ZM182.78 166.611C187.61 167.101 192.5 167.431 197.51 167.451C198.98 167.191 200.41 167.241 201.81 167.491C203.21 167.731 204.59 168.171 205.21 169.241C207.35 169.201 208.72 169.781 209.23 172.001C211.32 170.971 212.43 171.741 213.35 173.671C214.42 173.591 215.31 174.661 216.07 175.921C216.83 177.171 217.47 178.601 217.96 180.231C217.75 179.521 212.98 178.821 212.2 178.651C206.73 177.401 201.48 177.401 196.28 177.871C193.72 176.331 191.13 174.821 188.5 173.401C187.71 172.971 186.92 172.561 186.13 172.141C183.98 171.601 182.62 170.261 181.73 168.741C181.74 168.711 181.75 168.681 181.76 168.641C181.75 168.671 181.73 168.701 181.72 168.731C181.28 167.971 180.97 167.161 180.73 166.381C181.41 166.451 182.09 166.531 182.77 166.601L182.78 166.611ZM181.42 174.531C183.91 176.251 185.93 177.691 187.59 178.961C184.2 179.461 180.8 179.981 177.32 180.311C177.21 180.321 177.1 180.331 177 180.341C175.33 179.401 173.78 177.821 171.72 175.401C171.74 175.381 171.77 175.361 171.79 175.341C176.12 180.001 177.47 179.871 180.11 173.151C180.42 173.651 180.82 174.121 181.42 174.541V174.531ZM176.98 170.051C176.74 171.371 176.51 172.471 176.26 173.341C176.6 172.641 176.86 171.541 177.08 169.991C177.84 169.521 178.66 169.301 179.59 169.491C180.28 169.891 180.26 171.511 180.01 172.461C176.9 178.701 175.26 178.801 172.06 175.121C172.14 175.041 172.23 174.961 172.31 174.881C174.4 176.631 175.44 176.221 176.28 173.331C175.69 174.561 174.85 174.561 173.58 173.551C174.7 172.241 175.78 170.841 177 170.051H176.98ZM174.28 166.601C174.39 168.141 174.28 169.731 173.71 171.181C173.47 171.781 173.15 172.331 172.77 172.841C172.58 172.651 172.38 172.461 172.17 172.241C172.4 171.791 172.4 170.881 172.36 169.671C172.98 168.891 173.54 167.531 174.18 165.781C174.21 166.051 174.25 166.321 174.27 166.591L174.28 166.601ZM146.48 172.201C146.43 171.621 146.42 171.051 146.44 170.491C146.52 168.261 147.05 166.181 146.99 163.941C146.94 164.781 146.62 165.491 145.53 165.161C143.61 164.591 144.18 162.671 144.02 161.791C143.29 162.831 143.6 164.591 143.76 165.481C142.25 162.111 141.42 167.711 138.23 166.871C137.35 166.851 136.49 166.731 135.69 166.531C140.07 165.231 139.3 160.811 140.59 157.861C142.32 153.041 146.27 155.601 149.59 158.711C149.2 158.631 148.77 158.561 148.31 158.521C148.92 158.651 149.48 158.821 149.94 159.041C150.35 159.431 150.75 159.831 151.13 160.221C151.16 160.341 151.18 160.471 151.17 160.601C151.22 160.531 151.26 160.461 151.29 160.391C151.47 160.581 151.66 160.771 151.83 160.951C151.6 160.941 151.37 160.921 151.12 160.911C151.09 161.031 151.06 161.161 151 161.291C151.47 161.321 151.9 161.361 152.28 161.411C152.46 161.601 152.63 161.781 152.8 161.951C152.45 161.961 152.07 161.971 151.62 161.971C152.29 162.141 152.9 162.301 153.47 162.451C153.62 162.511 153.77 162.561 153.93 162.611C153.84 162.651 153.74 162.691 153.61 162.731C155.37 163.271 156.6 163.621 157.36 163.801C157.19 163.681 157.01 163.541 156.84 163.411C156.53 163.311 156.17 163.201 155.77 163.081C156.04 163.121 156.3 163.161 156.57 163.211C156.66 163.281 156.75 163.351 156.84 163.411C157.22 163.531 157.52 163.631 157.75 163.721C157.56 163.591 157.36 163.451 157.15 163.311C160.95 163.911 164.71 164.471 168.4 164.821C170.07 165.061 171.74 165.291 173.41 165.511C169.58 170.361 167.3 170.621 160.67 166.141C160.16 165.961 159.12 165.491 157.59 164.791C157.31 164.951 155.8 164.861 152.79 164.391C162.43 167.781 163.55 168.981 153.96 166.561C165.58 171.501 166.49 172.821 155.96 170.491C163.11 173.511 166.25 175.261 166.44 176.741C164.66 175.431 162.49 174.571 160.77 174.311C158.1 174.031 156.27 175.011 155.04 176.621C151.98 175.421 149.04 174.261 146.92 173.501C146.82 173.051 146.67 172.621 146.45 172.211L146.48 172.201ZM147.05 178.241C147.57 178.341 148.1 178.431 148.62 178.541C148.57 178.491 148.52 178.451 148.47 178.401C147.99 178.291 147.52 178.181 147.05 178.081C147.07 177.721 147.09 177.361 147.1 177.001C147.54 177.481 148 177.951 148.46 178.411C150.15 178.801 151.88 179.211 153.57 179.601C152.98 181.521 152.77 183.701 152.79 185.721C151.73 185.751 150.87 185.581 150.16 185.241C149.46 184.871 148.91 184.331 148.49 183.641C147.05 182.181 146.96 180.241 147.04 178.241H147.05ZM147.09 189.461C154.36 194.551 161.83 190.501 165.16 183.541C167.39 185.881 166.98 188.681 166.74 191.241C166.72 192.021 167.34 192.051 167.97 192.051C168.21 192.051 168.45 192.041 168.69 192.031C168.53 192.381 168.33 192.761 168.12 193.141C167.39 194.431 166.5 195.641 165.54 196.781C162.2 200.411 158.23 203.221 154.02 205.691C153.89 205.771 153.75 205.841 153.62 205.911C152.58 202.871 154.7 200.061 155.29 196.541C155.5 195.961 155.89 195.601 156.36 195.341C157.77 194.561 159.84 194.711 159.49 192.721C154.92 192.621 150.51 193.391 147.08 189.451L147.09 189.461ZM151.33 220.061C152 220.141 152.61 220.211 153.15 220.251C153.14 220.311 153.12 220.371 153.11 220.431C152.55 220.321 151.96 220.201 151.33 220.071V220.061ZM153.04 220.811C153.04 220.811 153.04 220.841 153.04 220.861C152.57 220.781 152.09 220.691 151.57 220.601C152.09 220.681 152.57 220.751 153.04 220.811ZM151.12 219.221C151.96 219.171 152.39 219.001 152.51 218.711C152.86 218.861 153.15 219.001 153.39 219.121C153.37 219.291 153.33 219.461 153.29 219.651C152.76 219.571 152.03 219.421 151.11 219.221H151.12ZM150.52 212.671C151.6 213.781 152.54 215.071 153.03 216.551C153.23 217.161 153.34 217.791 153.38 218.431C153.11 218.411 152.84 218.391 152.54 218.361C152.43 217.871 151.84 217.171 151.03 216.271C151.01 215.271 150.56 213.871 149.93 212.121C150.13 212.301 150.33 212.481 150.52 212.681V212.671ZM134.01 235.511C133.64 235.231 133.25 235.001 132.83 234.831C132.41 234.421 132.04 233.991 131.7 233.541C130.33 231.781 129.39 229.851 127.91 228.171C128.41 228.841 128.62 229.591 127.58 230.041C125.74 230.841 124.94 229.001 124.26 228.421C124.37 229.681 125.74 230.831 126.43 231.411C123.11 229.791 126.07 234.621 123.09 236.021C122.41 236.571 121.66 237.031 120.92 237.391C123.44 233.571 120.01 230.691 119.1 227.591C117.33 222.781 122 222.211 126.55 222.461C126.2 222.651 125.82 222.871 125.44 223.131C125.99 222.841 126.53 222.611 127.02 222.481C127.59 222.521 128.15 222.571 128.69 222.621C128.79 222.691 128.89 222.781 128.97 222.881C128.97 222.781 128.93 222.721 128.91 222.641C129.18 222.671 129.45 222.691 129.71 222.721C129.53 222.861 129.34 223.001 129.14 223.151C129.2 223.271 129.25 223.381 129.29 223.521C129.67 223.241 130.02 223.001 130.36 222.791C130.61 222.821 130.86 222.851 131.1 222.871C130.84 223.101 130.55 223.351 130.21 223.641C130.89 223.311 131.5 223.021 132.08 222.751C132.19 222.711 132.3 222.671 132.41 222.621C132.36 222.721 132.3 222.821 132.23 222.941C133.93 222.221 135.09 221.691 135.79 221.351C135.58 221.361 135.36 221.381 135.14 221.391C134.84 221.511 134.49 221.661 134.11 221.831C134.34 221.691 134.57 221.551 134.81 221.411C134.92 221.411 135.04 221.401 135.15 221.391C135.51 221.241 135.81 221.121 136.05 221.041C135.82 221.061 135.58 221.081 135.33 221.111C138.62 219.131 141.87 217.141 144.92 215.041C146.35 214.151 147.78 213.251 149.2 212.351C149.38 218.531 147.81 220.191 139.84 221.021C139.33 221.211 138.23 221.521 136.61 221.971C136.49 222.271 135.28 223.181 132.67 224.751C142.23 221.161 143.86 221.351 134.96 225.661C147.04 221.971 148.58 222.401 139.02 227.391C146.44 225.111 149.97 224.421 151.07 225.441C148.86 225.581 146.65 226.321 145.16 227.231C142.93 228.731 142.16 230.651 142.25 232.681C139.13 233.731 136.13 234.731 134.02 235.511H134.01ZM141.73 242.291C139.68 242.101 138.37 240.671 137.14 239.091C137.6 238.831 138.07 238.571 138.53 238.311C138.46 238.311 138.4 238.311 138.33 238.301C137.89 238.521 137.46 238.741 137.04 238.961C136.82 238.671 136.6 238.381 136.38 238.101C137.03 238.181 137.68 238.251 138.33 238.301C139.88 237.511 141.47 236.721 143.01 235.931C143.79 237.781 145.03 239.581 146.35 241.121C145.56 241.831 144.79 242.251 144.03 242.441C143.25 242.611 142.49 242.551 141.72 242.291H141.73ZM155.22 247.811C155.01 247.231 155.08 246.701 155.27 246.201C155.85 244.701 157.53 243.481 155.99 242.181C152.42 245.041 149.54 248.471 144.38 247.651C153.22 246.881 156.34 238.971 154.42 231.501C157.63 231.861 159.12 234.271 160.58 236.381C161.07 236.991 161.56 236.621 162.04 236.211C162.22 236.051 162.4 235.891 162.58 235.731C162.68 236.101 162.78 236.521 162.85 236.951C163.12 238.411 163.22 239.901 163.22 241.401C163 246.331 161.76 251.031 160.13 255.631C160.08 255.771 160.02 255.911 159.97 256.061C157.22 254.401 157.04 250.881 155.23 247.811H155.22ZM163.96 291.351C163.5 291.371 163.05 291.441 162.61 291.591C162.02 291.541 161.46 291.451 160.91 291.331C158.72 290.861 156.77 289.991 154.56 289.651C155.38 289.841 156.02 290.281 155.51 291.301C154.61 293.091 152.82 292.201 151.93 292.201C152.83 293.101 154.62 293.101 155.51 293.101C151.93 294.001 157.3 295.791 155.91 298.781C155.74 299.641 155.47 300.471 155.13 301.231C154.61 296.691 150.13 296.691 147.44 294.891C142.99 292.351 146.2 288.911 149.84 286.171C149.69 286.541 149.55 286.951 149.43 287.391C149.66 286.811 149.93 286.291 150.23 285.881C150.69 285.541 151.15 285.221 151.6 284.911C151.72 284.901 151.85 284.911 151.98 284.931C151.92 284.871 151.85 284.821 151.79 284.771C152.01 284.621 152.22 284.481 152.43 284.331C152.38 284.551 152.32 284.781 152.27 285.031C152.39 285.081 152.5 285.131 152.63 285.221C152.74 284.761 152.85 284.351 152.97 283.981C153.19 283.841 153.39 283.701 153.59 283.571C153.54 283.921 153.48 284.291 153.41 284.731C153.69 284.101 153.95 283.531 154.21 282.991C154.29 282.851 154.37 282.711 154.45 282.571C154.47 282.671 154.49 282.781 154.51 282.901C155.35 281.261 155.9 280.101 156.22 279.391C156.07 279.541 155.91 279.691 155.75 279.841C155.6 280.131 155.43 280.461 155.24 280.841C155.33 280.581 155.41 280.331 155.5 280.071C155.58 279.991 155.66 279.911 155.74 279.841C155.92 279.491 156.08 279.211 156.2 278.991C156.04 279.151 155.87 279.331 155.69 279.501C156.94 275.861 158.15 272.251 159.13 268.681C159.66 267.081 160.17 265.471 160.68 263.871C164.79 268.491 164.65 270.771 159.09 276.531C158.83 277.001 158.18 277.951 157.23 279.331C157.33 279.631 156.99 281.111 156 283.991C161.02 275.091 162.39 274.191 158.34 283.211C165.22 272.621 166.68 271.961 162.56 281.921C166.78 275.401 169.04 272.611 170.54 272.681C168.94 274.211 167.71 276.191 167.16 277.851C166.42 280.431 167.06 282.401 168.44 283.891C166.73 286.691 165.07 289.391 163.96 291.351ZM176.1 290.211C175.61 290.841 174.99 291.281 174.24 291.581C172.55 292.751 170.62 292.501 168.67 292.071C168.86 291.571 169.04 291.071 169.24 290.581C169.19 290.621 169.13 290.661 169.08 290.701C168.89 291.151 168.7 291.601 168.52 292.041C168.17 291.961 167.81 291.881 167.46 291.801C168.01 291.451 168.55 291.081 169.08 290.701C169.76 289.101 170.47 287.471 171.14 285.881C172.92 286.801 175.04 287.381 177.03 287.711C176.88 288.761 176.56 289.581 176.1 290.211ZM188.12 287.131C187.59 286.831 187.3 286.371 187.13 285.861C186.61 284.341 187.12 282.321 185.1 282.321C184.2 286.801 184.2 291.281 179.72 293.971C185.99 287.701 183.3 279.631 177.03 275.151C179.72 273.361 182.41 274.251 184.88 274.931C185.65 275.091 185.78 274.481 185.89 273.861C185.93 273.621 185.96 273.391 186 273.151C186.32 273.371 186.66 273.631 186.99 273.911C188.13 274.861 189.17 275.941 190.13 277.081C193.13 281.001 195.21 285.401 196.9 289.971C196.95 290.111 197 290.261 197.05 290.401C193.88 290.891 191.47 288.321 188.11 287.131H188.12ZM201.31 287.111C201.31 287.111 201.24 287.121 201.21 287.131C201.24 287.131 201.27 287.131 201.31 287.121C200.87 287.881 200.33 288.561 199.77 289.161C199.49 288.531 199.22 287.901 198.94 287.281C196.95 282.861 194.79 278.461 192.31 274.101C191.35 272.961 190.68 271.701 190.19 270.361C189.7 269.021 189.39 267.611 190 266.541C188.89 264.711 188.71 263.231 190.38 261.681C188.44 260.391 188.56 259.041 189.77 257.271C189.16 256.381 189.65 255.071 190.35 253.791C191.05 252.501 191.97 251.241 193.14 250.001C192.63 250.541 194.41 255.021 194.65 255.781C196.3 261.141 198.93 265.691 201.94 269.961C201.88 272.951 201.88 275.941 201.96 278.931C201.98 279.821 202.02 280.721 202.06 281.611C202.66 283.741 202.19 285.591 201.31 287.121V287.111ZM203.17 294.641C204.45 293.771 205.88 293.071 207.43 292.841C208.06 292.751 208.7 292.751 209.34 292.821C209.28 293.081 209.21 293.341 209.12 293.641C208.61 293.671 207.82 294.121 206.8 294.761C205.81 294.611 204.36 294.811 202.52 295.131C202.74 294.971 202.95 294.801 203.17 294.651V294.641ZM221.92 315.911C221.44 316.251 220.95 316.541 220.46 316.801C218.49 317.851 216.43 318.431 214.51 319.601C215.26 319.221 216.03 319.141 216.3 320.251C216.77 322.201 214.82 322.661 214.13 323.241C215.39 323.351 216.77 322.201 217.45 321.621C215.28 324.611 220.55 322.531 221.41 325.711C221.83 326.481 222.16 327.291 222.38 328.081C219.06 324.931 215.63 327.811 212.42 328.171C207.38 329.081 207.63 324.381 208.66 319.941C208.78 320.321 208.94 320.731 209.13 321.151C208.94 320.561 208.81 319.991 208.77 319.481C208.91 318.931 209.05 318.381 209.2 317.861C209.29 317.771 209.39 317.701 209.51 317.631C209.41 317.631 209.34 317.641 209.26 317.651C209.33 317.391 209.41 317.131 209.48 316.881C209.58 317.081 209.69 317.301 209.81 317.521C209.93 317.491 210.05 317.451 210.2 317.441C209.99 317.011 209.82 316.631 209.66 316.261C209.73 316.011 209.8 315.781 209.87 315.551C210.05 315.851 210.25 316.171 210.47 316.561C210.28 315.891 210.11 315.291 209.96 314.711C209.93 314.551 209.91 314.391 209.87 314.231C209.95 314.291 210.03 314.361 210.13 314.451C209.72 312.661 209.4 311.411 209.18 310.671C209.16 310.881 209.13 311.101 209.11 311.321C209.18 311.631 209.27 312.001 209.36 312.411C209.26 312.161 209.17 311.911 209.07 311.651C209.08 311.541 209.1 311.421 209.11 311.321C209.03 310.931 208.96 310.621 208.92 310.381C208.9 310.611 208.88 310.851 208.86 311.101C207.48 307.511 206.09 303.971 204.54 300.601C203.91 299.031 203.28 297.471 202.64 295.911C208.76 296.811 210.12 298.641 209.56 306.631C209.66 307.161 209.77 308.301 209.93 309.971C210.21 310.141 210.89 311.491 211.98 314.331C210.1 304.291 210.57 302.721 213.27 312.231C211.74 299.691 212.43 298.251 215.67 308.531C214.71 300.811 214.65 297.231 215.85 296.321C215.61 298.521 215.94 300.831 216.58 302.451C217.68 304.901 219.43 306.001 221.44 306.261C221.93 309.511 222.4 312.641 222.8 314.851C222.46 315.161 222.16 315.511 221.92 315.901V315.911ZM230.82 308.441C230.27 310.421 228.64 311.471 226.87 312.401C226.69 311.901 226.51 311.401 226.35 310.891C226.33 310.951 226.32 311.021 226.3 311.081C226.44 311.551 226.59 312.011 226.73 312.471C226.41 312.641 226.09 312.801 225.76 312.971C225.96 312.351 226.14 311.721 226.3 311.081C225.79 309.421 225.29 307.711 224.78 306.061C226.74 305.621 228.73 304.701 230.47 303.671C231.03 304.571 231.31 305.401 231.37 306.191C231.4 306.991 231.21 307.731 230.82 308.431V308.441ZM238.6 296.111C238 296.221 237.49 296.061 237.03 295.781C235.65 294.951 234.74 293.081 233.2 294.371C235.39 298.381 238.27 301.811 236.57 306.751C237.34 297.911 230.1 293.461 222.41 294.061C223.32 290.961 225.95 289.921 228.29 288.841C228.98 288.471 228.7 287.921 228.38 287.371C228.26 287.161 228.13 286.961 228.01 286.761C228.39 286.721 228.82 286.701 229.25 286.701C230.73 286.701 232.22 286.851 233.69 287.111C238.51 288.191 242.93 290.221 247.16 292.631C247.29 292.711 247.42 292.791 247.55 292.871C245.44 295.291 241.94 294.861 238.6 296.111ZM248.82 290.191C248.2 289.891 247.6 289.571 246.97 289.271C242.6 287.161 238.12 285.181 233.42 283.441C231.95 283.181 230.63 282.641 229.39 281.941C228.16 281.231 227.01 280.351 226.79 279.141C224.77 278.451 223.67 277.431 223.95 275.171C221.64 275.421 220.86 274.321 220.65 272.191C219.62 271.901 219.15 270.591 218.86 269.151C218.57 267.711 218.46 266.151 218.56 264.451C218.52 265.191 222.75 267.481 223.43 267.911C228.14 270.951 233.07 272.751 238.13 274.091C240.01 276.421 241.92 278.711 243.91 280.951C244.5 281.621 245.1 282.281 245.71 282.941C247.54 284.191 248.37 285.911 248.68 287.641C248.66 287.671 248.64 287.691 248.61 287.721C248.63 287.701 248.65 287.671 248.68 287.651C248.83 288.521 248.86 289.391 248.81 290.211L248.82 290.191ZM253.6 288.021C254.27 286.861 254.87 285.911 255.4 285.181C254.84 285.731 254.22 286.671 253.49 288.051C252.62 288.231 251.77 288.161 250.96 287.661C250.45 287.051 251.02 285.541 251.59 284.721C256.64 279.921 258.22 280.381 259.97 284.941C259.87 284.981 259.76 285.031 259.66 285.081C258.29 282.721 257.17 282.751 255.4 285.181C256.38 284.221 257.16 284.511 258.01 285.901C256.51 286.751 255.02 287.701 253.6 288.021ZM254.96 292.191C255.38 290.701 256.03 289.241 257.06 288.081C257.49 287.601 257.98 287.191 258.51 286.841C258.63 287.081 258.74 287.331 258.87 287.611C258.5 287.961 258.19 288.811 257.81 289.961C256.96 290.481 255.97 291.571 254.77 292.991C254.83 292.731 254.88 292.461 254.96 292.201V292.191ZM283.61 311.941C280.33 315.881 277.5 312.121 275.44 308.061C275.78 308.271 276.16 308.481 276.57 308.671C276.04 308.341 275.58 307.991 275.22 307.621C274.97 307.111 274.73 306.601 274.5 306.101C274.51 305.981 274.54 305.851 274.59 305.731C274.52 305.781 274.46 305.831 274.4 305.891C274.29 305.651 274.19 305.411 274.08 305.181C274.29 305.271 274.51 305.361 274.74 305.461C274.81 305.351 274.88 305.251 274.99 305.141C274.56 304.951 274.17 304.771 273.82 304.591C273.72 304.351 273.62 304.121 273.52 303.911C273.85 304.021 274.21 304.141 274.63 304.291C274.06 303.901 273.54 303.551 273.05 303.201C272.93 303.091 272.8 302.991 272.68 302.891C272.78 302.891 272.89 302.891 273.02 302.891C271.55 301.781 270.51 301.031 269.86 300.601C269.98 300.781 270.1 300.961 270.22 301.141C270.48 301.341 270.78 301.561 271.12 301.811C270.88 301.681 270.65 301.551 270.41 301.421C270.35 301.331 270.28 301.231 270.22 301.141C269.91 300.901 269.66 300.701 269.47 300.541C269.6 300.731 269.74 300.931 269.89 301.131C266.52 299.271 263.18 297.451 259.84 295.861C258.35 295.061 256.86 294.281 255.36 293.501C260.63 290.251 262.85 290.781 267.56 297.261C267.98 297.601 268.8 298.401 269.99 299.581C270.31 299.531 271.7 300.131 274.36 301.601C266.47 295.111 265.82 293.611 274 299.161C264.77 290.541 264.37 288.991 273.46 294.781C267.77 289.491 265.42 286.781 265.75 285.321C266.98 287.161 268.72 288.711 270.25 289.541C272.67 290.721 274.72 290.421 276.42 289.331C278.88 291.501 281.25 293.601 282.98 295.041C282.92 295.501 282.92 295.951 282.98 296.411C282.83 296.981 282.64 297.521 282.43 298.031C281.59 300.101 280.39 301.871 279.67 304.001C280 303.231 280.54 302.671 281.46 303.351C283.07 304.541 281.88 306.151 281.72 307.041C282.76 306.311 283.07 304.551 283.23 303.671C283.49 307.361 286.19 302.371 288.9 304.261C289.72 304.581 290.49 304.991 291.17 305.451C286.6 305.171 285.83 309.591 283.59 311.921L283.61 311.941ZM294.47 317.411C294.58 316.501 294.05 314.661 294.2 313.801C294.91 314.811 294.71 316.091 294.47 317.411Z" fill="currentColor"/>
<path d="M279.63 304.012C279.38 304.602 279.25 305.312 279.18 305.692C279.28 305.102 279.44 304.542 279.63 304.012Z" fill="currentColor"/>
<path d="M295.19 296.339C295.19 296.339 295.15 296.269 295.13 296.239C294.33 294.959 293.17 293.819 292.42 292.559C292.59 292.839 292.77 293.129 292.95 293.409C293.38 293.949 293.78 294.529 294.17 295.119C294.5 295.539 294.84 295.949 295.19 296.349V296.339Z" fill="currentColor"/>
<path d="M210.06 312C209.99 311.25 209.93 310.58 209.87 309.97C209.64 309.83 209.7 310.56 210.06 312Z" fill="currentColor"/>
<path d="M269.42 300.54C269.34 300.42 269.26 300.31 269.18 300.2C268.88 300.04 268.97 300.17 269.42 300.54Z" fill="currentColor"/>
<path d="M269.18 300.188C269.31 300.258 269.52 300.388 269.81 300.588C268.97 299.338 268.21 298.228 267.5 297.258C266.75 296.648 267.28 297.498 269.18 300.188Z" fill="currentColor"/>
<path d="M343.92 230.012C343.55 230.502 343.13 230.972 342.75 231.532C343.47 231.112 344.18 230.692 343.92 230.012Z" fill="currentColor"/>
<path d="M273.31 302.911C273.18 302.901 273.07 302.891 272.96 302.891C273.42 303.241 273.92 303.621 274.46 304.041C274.06 303.651 273.68 303.281 273.3 302.921L273.31 302.911Z" fill="currentColor"/>
<path d="M274.69 305.449C274.63 305.539 274.58 305.629 274.54 305.729C274.64 305.659 274.74 305.589 274.87 305.529C274.81 305.499 274.75 305.479 274.69 305.459V305.449Z" fill="currentColor"/>
<path d="M274.53 303.1C273.21 302.28 272.16 301.58 271.38 301.02C271.96 301.59 272.61 302.23 273.31 302.91C273.65 302.94 274.05 303.01 274.53 303.1Z" fill="currentColor"/>
<path d="M319.54 250.18C319.73 250.79 320.09 251.42 320.28 251.76C319.98 251.24 319.74 250.71 319.54 250.18Z" fill="currentColor"/>
<path d="M326.54 234.3C326.54 234.3 326.46 234.28 326.42 234.26C324.99 233.79 323.36 233.67 321.98 233.18C322.29 233.29 322.61 233.39 322.93 233.49C323.61 233.63 324.29 233.81 324.96 234.01C325.48 234.12 326 234.22 326.54 234.3Z" fill="currentColor"/>
<path d="M271.39 301.02C270.85 300.49 270.37 300.02 269.94 299.59C269.67 299.63 270.19 300.15 271.39 301.02Z" fill="currentColor"/>
<path d="M309.49 254.079C309.35 254.039 309.22 254.009 309.09 253.969C308.76 254.039 308.91 254.079 309.49 254.079Z" fill="currentColor"/>
<path d="M309.08 253.979C309.23 253.949 309.47 253.919 309.82 253.879C308.37 253.459 307.08 253.099 305.91 252.809C304.94 252.819 305.89 253.129 309.08 253.979Z" fill="currentColor"/>
<path d="M321.23 152.172C321.26 152.782 321.23 153.422 321.32 154.092C321.61 153.302 321.88 152.532 321.23 152.172Z" fill="currentColor"/>
<path d="M314 253.391C313.89 253.461 313.8 253.531 313.72 253.601C314.3 253.571 314.92 253.541 315.61 253.511C315.05 253.471 314.52 253.431 314 253.391Z" fill="currentColor"/>
<path d="M316.68 254.458C316.69 254.568 316.71 254.668 316.74 254.768C316.77 254.658 316.81 254.528 316.86 254.398C316.8 254.418 316.74 254.438 316.68 254.458Z" fill="currentColor"/>
<path d="M315.05 252.762C313.51 252.982 312.26 253.122 311.3 253.192C312.12 253.262 313.02 253.332 313.99 253.402C314.27 253.212 314.62 253.002 315.04 252.762H315.05Z" fill="currentColor"/>
<path d="M315.51 183.289C316.05 183.639 316.73 183.889 317.09 184.019C316.52 183.809 316.01 183.559 315.51 183.289Z" fill="currentColor"/>
<path d="M310.67 166.629C310.67 166.629 310.59 166.659 310.56 166.679C309.16 167.239 307.83 168.189 306.46 168.709C306.77 168.589 307.08 168.469 307.39 168.339C308 168.009 308.64 167.719 309.28 167.439C309.75 167.189 310.21 166.929 310.67 166.639V166.629Z" fill="currentColor"/>
<path d="M311.3 253.18C310.55 253.12 309.88 253.06 309.27 253.02C309.09 253.23 309.82 253.29 311.3 253.18Z" fill="currentColor"/>
<path d="M310.32 192.738C310.19 192.798 310.07 192.858 309.94 192.918C309.73 193.178 309.87 193.118 310.32 192.738Z" fill="currentColor"/>
<path d="M309.94 192.921C310.03 192.801 310.2 192.621 310.44 192.371C309.06 192.981 307.84 193.541 306.76 194.061C306.03 194.691 306.95 194.321 309.94 192.921Z" fill="currentColor"/>
<path d="M253.81 107.12C254.22 107.57 254.62 108.07 255.11 108.53C254.82 107.74 254.53 106.97 253.81 107.12Z" fill="currentColor"/>
<path d="M313.33 189.319C313.29 189.439 313.27 189.549 313.25 189.659C313.67 189.269 314.13 188.839 314.64 188.379C314.19 188.709 313.75 189.019 313.33 189.319Z" fill="currentColor"/>
<path d="M316.07 188.398C316.15 188.478 316.23 188.538 316.32 188.598C316.27 188.488 316.22 188.378 316.18 188.238C316.14 188.298 316.11 188.348 316.08 188.398H316.07Z" fill="currentColor"/>
<path d="M313.73 188.148C312.69 189.308 311.82 190.218 311.13 190.888C311.8 190.418 312.54 189.888 313.33 189.318C313.42 188.988 313.55 188.608 313.73 188.148Z" fill="currentColor"/>
<path d="M269.43 134.64C270.07 134.56 270.75 134.32 271.11 134.18C270.54 134.39 269.98 134.53 269.43 134.64Z" fill="currentColor"/>
<path d="M255.01 124.988C255.01 124.988 254.97 125.058 254.95 125.098C254.24 126.428 253.83 128.008 253.12 129.288C253.28 128.998 253.44 128.708 253.59 128.408C253.84 127.768 254.14 127.128 254.46 126.498C254.66 126.008 254.84 125.508 255.01 124.998V124.988Z" fill="currentColor"/>
<path d="M311.13 190.891C310.52 191.331 309.97 191.721 309.47 192.071C309.47 192.341 310.06 191.921 311.13 190.891Z" fill="currentColor"/>
<path d="M271.53 145.219C271.47 145.349 271.41 145.469 271.35 145.599C271.35 145.939 271.42 145.799 271.53 145.219Z" fill="currentColor"/>
<path d="M271.36 145.59C271.36 145.44 271.36 145.19 271.39 144.84C270.73 146.19 270.15 147.41 269.66 148.51C269.5 149.46 269.97 148.58 271.36 145.59Z" fill="currentColor"/>
<path d="M173.2 115.951C173.81 116.031 174.43 116.161 175.1 116.201C174.38 115.781 173.66 115.381 173.2 115.951Z" fill="currentColor"/>
<path d="M271.64 140.648C271.69 140.768 271.74 140.868 271.79 140.958C271.86 140.388 271.94 139.768 272.03 139.078C271.89 139.618 271.76 140.138 271.63 140.638L271.64 140.648Z" fill="currentColor"/>
<path d="M273.15 138.192C273.26 138.192 273.37 138.192 273.47 138.192C273.36 138.142 273.25 138.082 273.13 138.012C273.13 138.082 273.15 138.142 273.15 138.202V138.192Z" fill="currentColor"/>
<path d="M271.19 139.512C271.14 141.062 271.06 142.322 270.96 143.282C271.17 142.492 271.39 141.612 271.63 140.662C271.49 140.352 271.34 139.972 271.19 139.512Z" fill="currentColor"/>
<path d="M202.86 126.989C203.3 126.519 203.66 125.899 203.85 125.559C203.55 126.079 203.21 126.549 202.86 126.989Z" fill="currentColor"/>
<path d="M185.61 128.871C185.61 128.871 185.63 128.951 185.64 128.991C185.95 130.461 186.66 131.941 186.93 133.381C186.87 133.061 186.8 132.731 186.72 132.401C186.5 131.741 186.32 131.061 186.16 130.381C186 129.881 185.82 129.371 185.62 128.871H185.61Z" fill="currentColor"/>
<path d="M270.96 143.27C270.77 144 270.6 144.65 270.45 145.24C270.62 145.45 270.81 144.75 270.96 143.27Z" fill="currentColor"/>
<path d="M211.27 133.738C211.31 133.878 211.34 134.008 211.38 134.138C211.6 134.398 211.56 134.238 211.27 133.738Z" fill="currentColor"/>
<path d="M211.38 134.141C211.28 134.031 211.13 133.831 210.92 133.551C211.28 135.011 211.62 136.311 211.95 137.471C212.44 138.301 212.24 137.321 211.38 134.141Z" fill="currentColor"/>
<path d="M117.13 174.53C117.65 174.2 118.21 173.9 118.75 173.5C117.93 173.65 117.12 173.8 117.13 174.53Z" fill="currentColor"/>
<path d="M208.42 130.18C208.54 130.24 208.64 130.28 208.74 130.32C208.43 129.84 208.09 129.31 207.72 128.73C207.97 129.24 208.2 129.71 208.42 130.18Z" fill="currentColor"/>
<path d="M207.99 127.319C208.08 127.249 208.16 127.189 208.23 127.109C208.12 127.139 207.99 127.169 207.85 127.189C207.9 127.229 207.94 127.279 207.99 127.319Z" fill="currentColor"/>
<path d="M207.34 129.59C208.3 130.81 209.05 131.83 209.58 132.62C209.23 131.88 208.84 131.06 208.41 130.18C208.11 130.03 207.75 129.84 207.33 129.59H207.34Z" fill="currentColor"/>
<path d="M146.95 163.921C146.99 163.281 146.86 162.571 146.79 162.191C146.89 162.781 146.93 163.361 146.95 163.921Z" fill="currentColor"/>
<path d="M134.94 176.45C134.94 176.45 135 176.5 135.04 176.52C136.23 177.45 137.71 178.12 138.85 179.05C138.6 178.84 138.33 178.64 138.06 178.43C137.47 178.07 136.9 177.66 136.33 177.24C135.88 176.96 135.42 176.69 134.95 176.43L134.94 176.45Z" fill="currentColor"/>
<path d="M209.58 132.621C209.9 133.301 210.19 133.911 210.45 134.461C210.72 134.511 210.41 133.851 209.58 132.621Z" fill="currentColor"/>
<path d="M157.73 163.691C157.85 163.771 157.96 163.851 158.07 163.931C158.4 163.981 158.28 163.891 157.73 163.691Z" fill="currentColor"/>
<path d="M158.07 163.93C157.92 163.91 157.68 163.85 157.34 163.77C158.56 164.66 159.65 165.44 160.65 166.11C161.56 166.43 160.78 165.81 158.07 163.93Z" fill="currentColor"/>
<path d="M111.84 255.439C112.03 254.849 112.26 254.259 112.41 253.609C111.87 254.249 111.35 254.889 111.84 255.439Z" fill="currentColor"/>
<path d="M153.25 162.789C153.38 162.759 153.48 162.729 153.59 162.689C153.04 162.519 152.44 162.329 151.78 162.129C152.29 162.359 152.78 162.579 153.25 162.789Z" fill="currentColor"/>
<path d="M151.09 160.88C151.12 160.77 151.13 160.67 151.14 160.57C151.07 160.67 151 160.77 150.9 160.87C150.97 160.87 151.03 160.87 151.09 160.87V160.88Z" fill="currentColor"/>
<path d="M152.04 163.029C153.56 163.349 154.79 163.649 155.71 163.909C154.97 163.569 154.14 163.189 153.25 162.789C152.92 162.869 152.52 162.949 152.04 163.029Z" fill="currentColor"/>
<path d="M126.61 226.922C127.07 227.312 127.47 227.722 127.85 228.152C127.47 227.642 126.91 227.172 126.61 226.922Z" fill="currentColor"/>
<path d="M126.71 245.461C126.71 245.461 126.79 245.461 126.83 245.461C128.34 245.411 129.91 244.971 131.37 244.961C131.04 244.961 130.71 244.981 130.37 245.001C129.69 245.101 128.99 245.161 128.28 245.201C127.76 245.271 127.23 245.361 126.7 245.471L126.71 245.461Z" fill="currentColor"/>
<path d="M155.71 163.91C156.39 164.22 157.01 164.5 157.56 164.76C157.8 164.63 157.14 164.32 155.71 163.91Z" fill="currentColor"/>
</svg>
