<svg width="306" height="261" viewBox="0 0 306 261" fill="none" xmlns="http://www.w3.org/2000/svg">
<path d="M257.53 48.7992C257.98 42.7392 258.58 42.8792 259.67 49.1092C260.01 46.0492 260.34 44.5192 260.51 44.7792C261.67 44.4192 262.65 45.8392 264.12 48.9592C263.47 45.8092 263.3 44.3492 262.34 45.4292C264.68 43.7992 266.25 44.7092 268.17 49.0192C267.33 44.5592 266.85 43.5092 264.92 46.2792C267.91 42.7592 269.44 43.0692 272.22 48.1692C270.77 42.7892 270.58 42.1992 270.43 46.8492C271.37 41.5292 272.34 41.4592 276.22 45.7292C274.14 41.0292 274.97 40.6792 280.08 42.6092C276.84 40.0892 277.89 39.8392 282.22 40.3192C280.93 39.1292 282.82 38.6792 284.71 38.3092C286.07 37.9192 287.42 37.5992 288.37 37.3792L289.86 37.0292H288.25C287.22 37.0292 285.74 37.0292 284.4 36.9892C282.12 37.0292 279.99 37.0292 281.77 36.3892C276.49 37.0292 275.27 37.0292 279.41 35.5292C273.87 37.0092 273.68 36.9892 279.41 35.4092C272.02 36.9892 270.54 37.0092 268 34.2792C270.35 36.8892 271.63 36.7492 279.14 34.3092C272.1 36.6592 270.38 36.7792 265.56 34.3992C268.58 36.8192 268.49 36.7492 265.35 33.8692C270.11 36.3492 271.83 36.0192 278.48 32.4092C271.24 35.9892 268.95 36.2892 263.22 34.2092C266.5 36.2792 266.33 35.9592 263.41 32.5292C268.29 34.4192 270.41 33.1892 275.02 27.8292C270.83 32.7092 268.6 33.6992 263.66 31.4292C265.41 34.8192 264.46 34.9392 261.31 33.2192C263.73 34.1192 263.95 33.1592 263.01 29.9492C265.46 29.9792 266.76 27.7492 268.52 24.6792C266.26 27.6792 264.46 29.8492 261.82 30.4692C261.42 32.8392 260.17 33.6692 258.77 33.8092C257.8 34.0992 256.67 33.7092 255.39 32.7792C254.11 31.8492 252.68 30.3892 250.88 28.4492C252.6 30.2492 253.96 31.5792 255.16 32.3792C256.36 33.1792 257.41 33.4592 258.47 33.1392C259.61 32.8492 260.76 31.9592 261.59 29.9492C263.61 28.9092 265.29 26.7492 267.45 23.8992C265.55 26.6392 264.01 28.7092 262.01 29.5792C261.31 31.6092 260.14 32.4592 258.87 32.7292C257.8 33.0792 256.63 32.8592 255.28 32.1792C253.93 31.4992 252.38 30.3592 250.47 28.8392C255.24 34.7192 254.08 34.4392 249.05 31.3692C252.21 33.2192 251.51 32.2892 249.44 29.8692C250.44 29.4892 250.09 27.6192 249.86 25.1392C249.63 22.6592 249.53 19.5592 249.5 15.6992C245.55 34.4792 243.51 34.2592 235.17 30.7792C239.43 33.9192 237.39 33.8092 234.14 33.5292C233.31 33.7392 231.28 33.7992 229.26 33.9692C225.22 34.3092 221.22 35.0992 217.31 36.5692C215.91 36.7992 214.56 36.9992 213.14 36.9992H186.27C184.31 36.9992 182.33 36.6192 180.21 36.3492C178.5 36.0692 176.77 35.8392 175.03 35.6592C173.29 35.4792 171.53 35.3392 169.77 35.2492C135.71 30.6092 152.25 33.1192 113.6 32.2592C111.71 32.3392 109.81 32.4992 107.7 32.6392C101.98 32.6492 96.2203 33.3792 90.3803 34.2892C88.4303 34.5892 86.4804 34.9092 86.6504 34.7592C83.5304 35.3892 82.5404 35.5492 86.0404 34.6292C80.5804 35.8692 79.6104 36.0092 85.4404 34.1392C77.6104 36.3192 76.5903 36.4692 84.4903 31.8792C75.2403 36.5492 74.9004 36.4792 82.2204 26.4692C73.3204 36.5392 72.0804 36.6892 59.9504 34.4692C71.2604 36.1692 71.6804 35.5192 66.6504 22.0092C70.5504 35.3692 68.9903 35.8692 59.6903 33.8692C67.5003 34.8492 67.5804 33.3292 62.5804 24.9392C67.1704 31.7392 66.2204 32.7392 59.6404 31.7892C64.4404 33.7892 63.6404 33.8392 59.4504 32.9392C61.9904 32.7792 61.1703 31.6592 59.3503 29.6292C59.3203 28.0292 58.3004 25.5092 57.0904 22.1892C58.0604 34.8892 56.1404 34.5992 33.1304 35.8692C52.2904 34.1292 50.3604 33.9492 36.4004 37.9192C46.4904 33.7692 44.5503 33.7792 36.1003 37.8892C40.6703 34.0592 38.7304 34.3392 34.7404 37.4692C34.8404 35.2292 32.9004 35.8592 30.7904 37.3092C32.7604 36.2692 34.6004 35.9092 35.0804 37.7592C38.3204 35.3492 40.2004 35.1492 37.2704 38.4992C43.9504 34.9192 45.8204 34.9092 38.8404 39.1192C49.5104 35.1092 51.3303 35.3192 41.3904 40.1292C54.8703 36.0192 56.5903 36.4992 45.9203 42.0492C59.9003 37.7492 61.4903 38.5392 58.6003 44.9392C60.3603 43.3092 61.6304 42.2992 61.9704 42.1792C63.5904 41.4392 64.2803 41.5992 63.1203 43.2992C65.4803 43.0192 65.9904 44.2892 65.9304 46.8492C66.5004 44.0892 66.6404 43.2792 65.0004 45.2492C67.5904 43.6892 68.4204 44.9092 68.8904 48.4292C69.4504 45.9892 69.6003 45.8692 68.9203 48.2392C70.3203 46.7192 70.9004 47.6892 71.3304 49.7192C71.6504 49.1992 71.8204 49.7492 71.9604 50.5792C72.1804 51.0992 72.3703 51.8992 72.5203 52.7192C72.8203 54.3492 72.9304 56.0192 72.9304 57.6792C72.6804 63.1792 71.3104 68.4292 69.4804 73.5592C68.0904 77.3392 66.4303 81.1192 64.7703 84.9292C63.4403 89.6492 62.1403 94.6292 60.6903 99.6692C60.3503 100.679 60.0103 101.689 59.6003 102.699C57.3403 108.349 50.3404 110.349 51.3404 117.349C52.3404 122.349 58.3404 120.349 58.3404 124.349C59.3404 128.349 55.3404 129.349 51.3404 130.349C52.3404 130.349 54.3404 129.349 55.3404 129.349C53.3404 131.349 49.3404 129.349 47.0204 131.269C46.2804 131.989 45.4303 132.689 44.3703 133.399C40.1304 136.269 32.5804 139.459 15.8604 145.649C57.0104 137.789 40.3704 138.089 46.8804 134.259C57.7304 134.519 47.4804 137.959 16.8404 154.129C64.6704 130.299 44.4103 219.489 42.0303 244.339C54.0303 219.819 51.4604 189.419 58.8604 198.229C55.2904 187.409 50.0103 136.399 56.7803 135.419C55.3503 134.949 55.2603 134.519 55.9203 134.099C59.3403 132.339 62.3403 131.339 65.3403 129.339H64.3403C64.8403 129.339 65.3403 129.089 65.8403 128.719C66.3003 128.629 66.7203 128.749 67.0903 129.029C66.3003 128.629 66.3403 128.339 65.3403 129.339C66.3403 128.339 66.3003 128.619 67.0903 129.029C67.3403 135.339 66.3403 141.339 69.3403 146.339C68.3403 146.339 68.3403 145.339 68.3403 144.339C69.3403 146.339 69.3403 148.339 72.3403 149.339C65.3403 141.339 71.3403 129.339 78.3403 123.339C77.1003 124.399 76.0704 125.909 74.8204 127.029C73.4604 128.259 72.0504 129.529 71.3604 131.269C72.9004 127.349 77.4804 125.369 79.2104 121.549C78.1604 122.309 77.2603 123.419 76.3403 124.339C78.3403 123.339 79.3403 121.339 82.3403 122.339L81.3403 121.339C84.9103 121.939 86.4403 129.929 87.2003 132.599C89.0003 138.889 90.3004 145.309 91.9704 151.629C92.6104 154.039 97.4504 151.429 98.6504 153.629C98.8004 153.909 98.9704 154.189 99.2304 154.379C99.8604 154.829 99.4904 194.419 100.16 194.249C100.81 194.089 101.44 193.899 102.01 193.899C102.68 194.389 103.68 215.329 104.68 216.329C105.69 214.639 105.52 191.159 105.51 189.279C105.48 185.889 102.81 147.599 102.43 144.239C101.57 136.689 100.28 129.169 98.8004 121.719L98.5004 120.219C98.4504 119.979 98.4004 119.719 98.2204 119.539C98.0704 119.389 97.8604 119.319 97.6604 119.239C93.8904 117.689 96.9803 113.369 99.4503 112.319C99.5803 112.269 99.7204 112.209 99.8604 112.259C100.01 112.309 100.09 112.459 100.17 112.589C103.37 118.579 104.53 125.639 105.88 132.259C106.62 135.889 107.38 139.519 107.94 143.179C108.45 146.539 110.58 185.159 112.11 188.249C112.22 188.469 112.34 188.689 112.55 188.829C113.49 189.439 113.69 187.649 113.71 187.139C113.74 185.969 113.47 184.809 113.46 183.639C113.43 176.469 110.75 134.439 110.35 127.279C110.18 124.179 111.25 123.089 113.23 120.929C114.53 119.519 115.92 118.169 117.51 117.089C118.94 116.119 120.53 115.339 122.26 115.079C123.12 114.949 123.99 114.959 124.85 115.099C125.71 115.239 126.82 116.019 127.57 116.009C128.52 115.989 129.49 116.119 130.48 116.429C131.46 116.739 132.46 117.219 133.48 117.909C134.28 117.789 135.08 117.669 135.87 117.549C139.83 116.939 145.13 148.499 149.28 148.089C155.19 147.509 159.72 114.819 165.64 114.479C171.69 114.179 177.7 114.099 183.69 114.169C185.19 114.189 186.68 114.219 187.88 114.079C189.67 114.289 191.16 114.329 190.38 112.899C194.14 114.439 195.62 114.499 192.41 111.409C198.6 114.639 200.08 114.719 194.64 110.129C202.24 114.819 202.91 114.849 195.87 109.669C204.27 114.899 204.94 114.939 196.78 109.619C199.95 111.409 202.14 112.619 203.13 113.179C204.48 113.849 204.62 113.889 203.39 113.269C202.79 112.839 200.82 111.749 197.73 110.099C201.25 111.769 203.66 112.889 204.14 113.269C206.53 114.269 206.98 114.519 204.66 113.909C206.17 114.399 204.91 114.029 202.82 113.429C205.62 114.069 207.57 114.479 205.56 114.179C210.2 115.799 210.86 116.699 205.77 119.139C211.13 119.859 210.73 122.109 207.35 127.799C211 122.219 211.89 120.039 206.52 120.969C213.31 117.699 213.86 117.529 207.78 119.909C214.69 119.059 214.98 120.749 211.25 132.259C215.2 120.899 215.14 119.349 208.29 121.819C214.76 118.039 214.44 118.279 207.43 123.659C213.49 120.599 212.86 122.689 208.85 129.719C212.74 122.879 213.38 120.929 207.6 124.759C214.62 118.719 215.21 118.449 209.62 123.759C216.44 119.429 217.07 120.679 216.37 139.419C216.92 131.529 217.27 126.579 218.19 123.339C218.65 121.719 219.25 120.519 219.66 119.729C220.93 118.669 222 118.019 220.36 118.169C224.82 116.959 226.56 116.549 221.81 117.409C226.18 116.649 224.3 117.139 220.34 118.379C222.06 118.269 221.7 118.909 220.56 120.429C222.68 120.619 224.01 121.679 224.39 125.389C228.54 124.479 231.74 126.209 236.1 128.879C232.6 126.789 229.89 125.469 226.53 126.939C225.76 123.419 224.35 122.679 222.11 123.329C222.83 121.769 222.72 121.609 221.72 122.739C223.8 121.829 224.98 122.209 224.75 125.569C228.64 123.519 231.11 124.449 234.74 128.299C230.97 124.619 228.35 123.859 224.52 125.589C224.1 122.999 222.47 122.879 221.01 123.259C219.92 123.399 218.99 124.039 218.26 125.119C216.81 127.269 216.16 131.159 215.16 137.249C216.59 123.789 215.75 124.109 211.34 132.579C213.92 125.869 212.93 127.309 209.86 131.429C212.98 127.669 214.09 126.519 211.96 133.369C216.27 124.889 217.33 124.419 216.55 139.949C217.58 133.129 218.31 128.859 219.71 126.349C220.41 125.089 221.28 124.269 222 124.139C223.61 123.299 225.06 123.159 225.05 125.869C228.79 123.329 231.06 123.649 234.59 128.029C229.77 122.969 227.15 122.209 223.27 124.109C224.54 121.179 224.55 120.909 222.66 123.189C226.89 120.629 229.22 120.619 232.87 127.399C229.69 120.369 227.84 120.129 222.92 123.019C225.91 119.589 225.82 119.269 222.02 121.469C227.17 118.469 228.63 117.989 225.81 123.399C228.18 117.949 227.1 118.229 222.04 120.979C227.32 118.179 228.62 117.859 225.8 123.159C229.32 117.809 228.72 118.079 223.29 122.229C228.93 118.069 229.73 117.789 226.55 123.629C229.81 118.389 230.61 118.529 232.06 126.269C232.33 118.929 233.25 119.169 237.58 125.939C235.27 119.759 236.36 120.089 241.33 123.969C236.04 119.939 234.83 119.509 237.11 125.969C233.06 118.739 232.51 118.409 232.42 126.089C231.01 117.979 231.18 117.879 232.93 125.819C232.81 117.939 233.47 118.069 239.09 124.399C235.22 118.359 236.32 118.519 242.65 121.709C235.22 118.489 234.39 118.469 239.26 124.539C234.83 118.599 236.11 118.759 242.74 121.739C237.12 119.399 238.53 119.809 243.07 122.129C240.96 120.569 241.97 120.919 244.02 121.839C243.96 121.689 244.95 122.099 245.93 122.539C247.88 123.409 249.8 124.389 251.65 125.329C253.57 126.489 255.43 127.609 253.85 125.149C259.09 129.929 260.91 131.129 262.15 124.109C264.52 133.559 266.31 134.789 273.93 138.119C269.88 137.209 271.66 138.399 274.42 140.019C275.24 140.679 277.04 141.779 278.85 142.789C282.47 144.819 286.14 146.539 289.94 147.699C286.38 145.699 282.98 143.399 279.77 140.849C278.17 139.569 276.61 138.229 275.68 136.949C273.63 135.419 272.19 133.959 274.53 131.689C269.44 130.919 268.13 129.349 269.11 124.229C265.65 126.099 264.48 124.419 263.45 121.449C262.3 120.959 261.29 119.189 260.36 117.379C258.5 113.749 256.98 109.949 255.84 106.019C254.24 100.559 253.34 94.9292 253.14 89.3392C253.64 82.0392 255.49 75.3392 257.87 68.4692C259.52 63.6792 259.3 59.1592 259.1 54.4192C259.04 52.8392 258.97 51.2392 258.9 50.7892C258.84 48.4692 258.69 47.4792 258.11 49.7392C258.52 45.8192 258.49 45.1492 257.55 49.1792C258.05 43.3292 257.94 42.7392 257.48 48.7992H257.53ZM63.9804 124.439C63.4004 119.369 58.4004 119.369 55.4004 117.369C48.4004 113.369 58.4003 107.369 62.7603 104.409C63.3103 103.549 63.6904 102.649 64.0704 101.759C65.6504 97.1792 67.2104 92.6392 68.4404 88.1492C70.1204 83.0392 71.7404 77.9392 73.2104 72.7292C74.6804 67.5192 75.9903 62.2092 76.9903 56.7092C76.9903 55.0392 77.3204 53.4892 77.8604 51.9992C78.4004 50.5092 79.1504 49.0792 80.4404 48.6092C80.8104 46.2492 81.7104 44.8592 84.2504 44.7192C83.5204 42.2292 84.5904 41.1592 86.8904 40.5092C87.0104 39.3192 88.3604 38.5492 89.8904 37.9492C91.4104 37.3492 93.1104 36.9292 95.0004 36.7092C94.1804 36.8092 92.4804 41.9092 92.1504 42.7392C86.7904 55.4692 88.2604 68.2192 87.2204 81.3892C87.0504 83.5892 86.8003 85.7892 86.4503 88.0092C86.3303 88.7492 86.0004 89.4792 84.9404 90.2292C81.4104 91.3792 78.4104 95.3792 77.4104 98.3792C75.4104 105.379 82.4104 108.379 88.4104 109.379C88.2404 110.549 87.8804 111.459 87.3704 112.169C86.8204 112.869 86.1304 113.369 85.2904 113.689C81.4104 116.369 76.4104 112.369 72.3204 113.689C71.6704 113.639 71.0404 113.529 70.4304 113.399C67.3804 112.749 64.7404 111.359 61.4004 111.359C62.4004 111.359 65.4004 111.359 64.4004 113.359C63.4004 115.359 61.4004 114.359 60.4004 114.359C61.4004 115.359 63.4004 115.359 64.4004 115.359C60.4004 116.359 66.4003 118.359 64.8503 121.699C64.6603 122.659 64.3604 123.589 63.9804 124.429V124.439ZM96.6404 36.1692C101.27 36.1792 106.44 35.3492 110.55 37.9392C116.99 41.7092 117.99 48.7092 117.99 54.7092C117.2 69.6592 115.8 84.6192 116.21 99.5692C116.24 100.569 116.27 101.559 116.32 102.559C117.4 106.369 115.4 109.369 113.4 111.369C108.4 114.369 105.4 110.369 100.77 108.729C100.18 108.389 99.8604 107.879 99.6604 107.319C99.0804 105.619 99.6404 103.369 97.3904 103.369C96.3904 108.369 96.3904 113.369 91.3904 116.369C98.3904 109.369 95.3904 100.369 88.3904 95.3692C91.3904 93.3692 94.3904 94.3692 97.1504 95.1292C98.0104 95.3092 98.1603 94.6292 98.2803 93.9392C98.7603 91.1592 98.9804 88.3792 98.9804 85.7192C99.9804 68.7192 92.9803 52.7192 96.5603 36.1792H96.6204L96.6404 36.1692ZM128.1 114.959C127.42 114.559 126.65 114.399 125.78 114.149C122.4 113.369 118.4 113.369 117.4 110.369C117.4 109.369 119.4 108.369 120.42 108.229C120.83 107.549 121.17 106.779 121.25 105.789C122.94 84.8492 124.16 87.3692 140.38 75.9192C140.38 97.9192 150.38 123.919 140.49 143.179C139.34 144.019 136.24 112.959 134.46 113.979C133.87 114.319 133.27 114.639 132.68 114.939C132.09 115.239 131.46 115.419 130.61 115.309C129.76 115.199 128.87 115.069 128.1 114.969V114.959ZM145.42 141.429C147.38 127.909 154.38 114.909 156.34 100.829C158.22 92.3592 158.55 51.8392 160.99 43.7092C162.99 38.7092 167.99 41.7092 170.13 43.6892C172.28 45.1692 173.58 47.5392 174.15 50.5592C175.8 59.1792 173.73 68.0392 172.02 76.4792C170.57 83.6392 170.61 92.8192 166.03 98.8592C164.5 100.879 146.18 144.979 145.44 141.529C145.44 141.499 145.43 141.469 145.42 141.439V141.429ZM182.85 104.219C178.99 96.7092 181.99 87.7092 180.93 78.2992C180.93 71.5392 180.69 64.8292 179.71 58.2092C178.73 51.5892 176.99 45.0792 173.99 38.7092C188.52 39.8692 192.34 52.0092 193.41 64.2992C194.1 72.2092 194.49 80.1692 194.1 88.0992C193.84 93.3392 193.08 98.4992 193.76 103.609C193.99 105.319 194.37 107.019 194.71 108.219C193.99 108.219 192.99 107.959 191.95 107.799C190.91 107.639 189.83 107.549 188.67 107.379C186.16 106.529 184.13 105.789 182.85 104.229V104.219ZM216.41 100.849C216.15 102.299 215.83 103.119 215.35 103.219C214.87 103.389 214.24 102.849 213.35 101.589C213.42 103.089 213.23 103.879 212.71 103.899C212.23 104.119 211.42 103.579 210.23 102.439C210.54 103.689 210.48 104.329 210.05 104.429C209.64 104.579 208.85 104.179 207.72 103.339C208.24 105.179 207.36 105.259 205.63 104.119C205.33 105.459 204.16 105.589 202.61 105.019C201.83 105.959 200.66 106.189 199.28 106.069C198.33 106.809 197.17 107.189 195.85 107.409C195.99 105.529 196.16 103.419 196.45 101.349C197.87 90.9992 202.25 81.6892 203.53 71.6292C204.11 66.4492 203.85 61.1992 204.61 56.0392C205.84 47.6892 210.12 40.9592 218.99 39.6992C217.57 39.8992 215.81 49.6092 215.54 50.9992C214.79 54.9092 214.43 58.8792 214.35 62.8592C214.05 72.7192 215.39 82.6992 216.35 92.7092C216.54 94.7092 216.72 96.7092 216.86 98.5392C216.91 100.259 216.94 101.549 216.74 100.409C216.85 101.879 216.91 102.749 216.87 102.869C216.83 102.989 216.69 102.359 216.4 100.839L216.41 100.849ZM219.96 39.4892C223.98 38.2992 229.32 37.9092 232.44 38.3692C234 38.5992 235 39.0392 234.3 39.8192C235.66 41.1292 236.28 42.5592 236.12 44.4392C237.4 45.4692 237.92 46.9492 238.34 48.4892C238.85 49.9292 239.27 51.4392 239.66 52.9592C240.74 57.8992 241.62 62.8492 242.42 67.8192C243.22 72.7892 243.95 77.7592 244.73 82.7592C245.36 88.2392 246.44 93.7292 248.07 99.4792C250 105.709 252.04 112.729 255.17 118.819C253.47 117.959 251.77 117.059 250.11 116.089C248.45 115.119 246.81 114.089 245.56 112.909C243.66 111.879 242.14 110.699 242.38 108.219C239.28 108.179 237.92 106.829 237.24 104.089C235.43 103.949 234.29 102.399 233.27 100.749C232.26 99.0992 231.38 97.3492 230.65 95.4692C228.69 90.9492 227.16 85.9892 225.55 81.1492C223.95 76.3092 222.26 71.5892 220.02 67.5392C217.71 59.9492 217.59 53.1492 218.92 45.4892C219.59 41.5692 219.95 39.5092 219.95 39.5092L219.96 39.4892Z" fill="currentColor"/>
</svg>
