<svg width="212" height="261" viewBox="0 0 212 261" fill="none" xmlns="http://www.w3.org/2000/svg">
<path d="M55.1401 33.7806C55.5501 33.6106 55.8801 33.4806 56.1401 33.3906C55.0401 33.4906 53.7301 33.6106 52.2201 33.7506C52.1901 33.8106 52.1401 33.8806 52.0801 33.9606C53.1601 33.9006 54.1801 33.8406 55.1401 33.7806Z" fill="currentColor"/>
<path d="M51.2197 33.85C51.5597 33.82 51.8897 33.79 52.2097 33.76C52.4197 33.36 52.0297 33.4 51.2197 33.85Z" fill="currentColor"/>
<path d="M56.1396 33.3892C56.2996 33.3792 56.4496 33.3592 56.5996 33.3492C56.9196 33.1492 56.7496 33.1692 56.1396 33.3892Z" fill="currentColor"/>
<path d="M60.3703 33.3585C61.3803 32.9785 60.2603 33.0185 56.6003 33.3385C56.4603 33.4285 56.2104 33.5585 55.8604 33.7285C57.5404 33.6185 59.0303 33.4985 60.3703 33.3585Z" fill="currentColor"/>
<path d="M82.7204 144.73C82.4604 144.1 82.2304 143.43 81.9004 142.75C81.9004 143.68 81.9104 144.6 82.7204 144.73Z" fill="currentColor"/>
<path d="M49.9404 36.3217C50.5404 36.1517 51.1104 35.9917 51.6704 35.8317C51.7504 35.7117 51.8204 35.6117 51.8904 35.5117C51.3004 35.7617 50.6504 36.0317 49.9404 36.3217Z" fill="currentColor"/>
<path d="M46.6699 34.2716C48.1699 34.1916 49.5699 34.1116 50.8899 34.0416C50.9999 33.9716 51.1099 33.9116 51.2199 33.8516C49.8599 33.9816 48.3499 34.1216 46.6699 34.2716Z" fill="currentColor"/>
<path d="M48.2795 35.8714C48.3395 35.8214 48.3895 35.7814 48.4495 35.7414C48.3995 35.6314 48.3395 35.5314 48.2695 35.4414C48.2795 35.5714 48.2895 35.7114 48.2795 35.8714Z" fill="currentColor"/>
<path d="M44.3301 35.7091C45.9701 34.8391 47.5201 34.4691 48.2701 35.4391C48.1001 33.7291 46.2901 34.3591 44.3301 35.7091Z" fill="currentColor"/>
<path d="M50.8096 36.8995C52.3396 36.0795 53.5996 35.4595 54.5796 35.0195C53.6996 35.2595 52.7196 35.5295 51.6796 35.8295C51.4596 36.1395 51.1796 36.4895 50.8196 36.8995H50.8096Z" fill="currentColor"/>
<path d="M147.96 112.342C147.37 112.682 146.77 113.002 146.18 113.302C145.59 113.602 144.96 113.782 144.11 113.672C143.26 113.562 142.37 113.432 141.6 113.332C140.92 112.932 140.15 112.772 139.28 112.522C135.9 111.742 131.9 111.742 130.9 108.742C130.9 107.742 132.9 106.742 133.92 106.602C134.33 105.922 134.67 105.152 134.75 104.162C136.33 84.5819 137.5 85.5119 150.9 76.3619C152.7 60.2019 157.37 44.9619 164.37 31.2219C154.18 30.1519 155.05 31.2819 127.14 30.6719C125.25 30.7519 123.35 30.9119 121.24 31.0519C115.52 31.0619 109.76 31.7919 103.92 32.7019C101.97 33.0019 100.02 33.3219 100.19 33.1719C97.0702 33.8019 96.0802 33.9619 99.5802 33.0419C94.1202 34.2819 93.1502 34.4219 98.9802 32.5519C91.1502 34.7319 90.1302 34.8819 98.0302 30.2919C88.7802 34.9619 88.4402 34.8919 95.7602 24.8819C86.8602 34.9519 85.6202 35.1019 73.4902 32.8819C84.8002 34.5819 85.2202 33.9319 80.1902 20.4219C84.0902 33.7819 82.5302 34.2819 73.2302 32.2819C79.1102 33.0219 80.6002 32.3419 78.8502 28.3719C79.3502 30.3319 77.9302 30.7419 74.5702 30.3719C74.4402 29.8219 73.7902 29.0419 72.8902 28.0319C72.8602 26.4319 71.8402 23.9119 70.6302 20.5919C71.3602 30.0819 70.4602 32.3119 60.3702 33.3719C59.8102 33.5819 58.5702 33.9319 56.7702 34.4319C56.6402 34.7719 55.2902 35.7819 52.3802 37.5319C63.0502 33.5219 64.8702 33.7319 54.9302 38.5419C68.4102 34.4319 70.1302 34.9119 59.4602 40.4619C73.4402 36.1619 75.0302 36.9519 72.1402 43.3519C73.9002 41.7219 75.1702 40.7119 75.5102 40.5919C77.1302 39.8519 77.8202 40.0119 76.6602 41.7119C78.1202 41.5419 78.8702 41.9619 79.2202 42.9119C79.0402 43.0919 78.8202 43.3319 78.5502 43.6619C78.8302 43.4919 79.0802 43.3719 79.3102 43.2619C79.4402 43.8019 79.4902 44.4619 79.4702 45.2619C79.6802 44.2619 79.8302 43.5119 79.8502 43.0719C81.4402 42.6619 82.0502 44.0019 82.4302 46.8419C82.4502 46.7719 82.4602 46.7019 82.4802 46.6319C83.8702 45.1419 84.4502 46.1119 84.8702 48.1319C85.1902 47.6119 85.3602 48.1619 85.5002 48.9919C85.7202 49.5119 85.9102 50.3119 86.0602 51.1319C86.3602 52.7619 86.4702 54.4319 86.4702 56.0919C86.2202 61.5919 84.8502 66.8419 83.0202 71.9719C81.6302 75.7519 79.9702 79.5319 78.3102 83.3419C76.9802 88.0619 75.6802 93.0419 74.2302 98.0819C73.8902 99.0919 73.5502 100.102 73.1402 101.112C70.8802 106.762 63.8802 108.762 64.8802 115.762C65.8802 120.762 71.8802 118.762 71.8802 122.762C72.8802 126.752 68.9002 127.752 64.9202 128.752C63.3602 128.752 61.7402 128.712 60.5702 129.682C59.8302 130.402 58.9802 131.102 57.9202 131.812C53.6802 134.682 46.1302 137.872 29.4102 144.062C70.5602 136.202 53.9202 136.502 60.4302 132.672C71.2802 132.932 61.0302 136.372 30.3902 152.542C78.2202 128.712 57.9602 217.902 55.5802 242.752C67.5802 218.232 65.0102 187.832 72.4102 196.642C68.8402 185.822 63.5602 134.812 70.3302 133.832C68.9002 133.362 68.8102 132.932 69.4702 132.512C72.8902 130.752 75.8902 129.752 78.8902 127.752H77.8902C78.3902 127.752 78.8902 127.502 79.3902 127.132C79.8502 127.042 80.2702 127.162 80.6402 127.442C80.8902 133.752 79.8902 139.752 82.8902 144.752C82.8202 144.752 82.7702 144.732 82.7102 144.732C83.2302 145.982 83.9002 147.092 85.8902 147.752C80.1502 141.202 83.1502 131.962 88.2702 125.532C86.9402 126.732 85.5802 127.982 84.9102 129.682C85.7902 127.442 87.6602 125.842 89.4202 124.162C89.9502 123.572 90.5002 123.012 91.0602 122.492C91.3802 122.122 91.6902 121.752 91.9602 121.352C92.9802 120.642 94.0602 120.142 95.8902 120.742L94.8902 119.742C98.4602 120.342 99.9902 128.332 100.75 131.002C102.55 137.292 103.85 143.712 105.52 150.032C106.16 152.442 111 149.832 112.2 152.032C112.35 152.312 112.52 152.592 112.78 152.782C113.41 153.232 113.04 192.822 113.71 192.652C114.36 192.492 114.99 192.302 115.56 192.302C116.23 192.792 117.23 213.732 118.23 214.732C119.24 213.042 119.07 189.562 119.06 187.682C119.03 184.292 116.36 146.002 115.98 142.642C115.12 135.092 113.83 127.572 112.35 120.122C112.25 119.622 112.15 119.122 112.05 118.622C112 118.382 111.95 118.122 111.77 117.942C111.62 117.792 111.41 117.722 111.21 117.642C107.44 116.092 110.53 111.772 113 110.722C113.13 110.672 113.27 110.612 113.41 110.662C113.56 110.712 113.64 110.862 113.72 110.992C116.92 116.982 118.08 124.042 119.43 130.662C120.17 134.292 120.93 137.922 121.5 141.582C122.01 144.942 124.14 183.562 125.67 186.652C125.78 186.872 125.9 187.092 126.11 187.232C127.05 187.842 127.25 186.052 127.27 185.542C127.3 184.372 127.03 183.212 127.02 182.042C126.99 174.872 124.31 132.842 123.91 125.682C123.74 122.582 124.81 121.492 126.79 119.332C128.09 117.922 129.48 116.572 131.07 115.492C132.5 114.522 134.09 113.742 135.82 113.482C136.68 113.352 137.55 113.362 138.41 113.502C139.23 113.632 140.38 114.422 141.13 114.412C142.08 114.392 143.05 114.522 144.04 114.832C145.02 115.142 146.02 115.622 147.04 116.312C147.82 116.202 148.59 116.082 149.37 115.962C148.86 113.582 148.38 112.112 147.97 112.342H147.96ZM74.5502 30.7719C77.7602 32.1819 76.7202 32.1419 73.0002 31.3319C73.9402 31.2719 74.4102 31.0819 74.5502 30.7719ZM82.5602 46.3819C83.1102 44.4419 83.0102 44.4819 82.5602 46.3819ZM64.9902 128.742C66.0102 128.692 67.9302 127.752 68.9002 127.752C67.9302 128.722 66.4802 128.752 64.9902 128.742ZM100.86 110.542C100.31 111.242 99.6202 111.742 98.7802 112.062C94.9002 114.742 89.9002 110.742 85.8102 112.062C85.1602 112.012 84.5302 111.902 83.9202 111.772C81.4802 111.252 79.3002 110.272 76.8302 109.892C77.7402 110.102 78.4602 110.592 77.8902 111.732C76.8902 113.732 74.8902 112.732 73.8902 112.732C74.8902 113.732 76.8902 113.732 77.8902 113.732C73.8902 114.732 79.8902 116.732 78.3402 120.072C78.1502 121.032 77.8502 121.962 77.4702 122.802C76.8902 117.732 71.8902 117.732 68.8902 115.732C61.8902 111.732 71.8902 105.732 76.2502 102.772C76.8002 101.912 77.1802 101.012 77.5602 100.122C79.1402 95.5419 80.7002 91.0019 81.9302 86.5119C83.6102 81.4019 85.2302 76.3019 86.7002 71.0919C88.1702 65.8819 89.4802 60.5719 90.4802 55.0719C90.4802 53.4019 90.8102 51.8519 91.3502 50.3619C91.8902 48.8719 92.6402 47.4419 93.9302 46.9719C94.3002 44.6119 95.2002 43.2219 97.7402 43.0819C97.0102 40.5919 98.0802 39.5219 100.38 38.8719C100.5 37.6819 101.85 36.9119 103.38 36.3119C104.9 35.7119 106.6 35.2919 108.49 35.0719C107.67 35.1719 105.97 40.2719 105.64 41.1019C100.28 53.8319 101.75 66.5819 100.71 79.7519C100.54 81.9519 100.29 84.1519 99.9402 86.3719C99.8202 87.1119 99.4902 87.8419 98.4302 88.5919C94.9002 89.7419 91.9002 93.7419 90.9002 96.7419C88.9002 103.742 95.9002 106.742 101.9 107.742C101.73 108.912 101.37 109.822 100.86 110.532V110.542ZM126.9 109.752C121.9 112.752 118.9 108.752 114.27 107.112C113.68 106.772 113.36 106.262 113.16 105.702C112.58 104.002 113.14 101.752 110.89 101.752C109.89 106.752 109.89 111.752 104.89 114.752C111.89 107.752 108.89 98.7519 101.89 93.7519C104.89 91.7519 107.89 92.7519 110.65 93.5119C111.51 93.6919 111.66 93.0119 111.78 92.3219C112.26 89.5419 112.48 86.7619 112.48 84.1019C113.48 67.1019 106.48 51.1019 110.06 34.5619C110.08 34.5619 110.1 34.5619 110.12 34.5619C114.75 34.5719 119.92 33.7419 124.03 36.3319C130.47 40.1019 131.47 47.1019 131.47 53.1019C130.68 68.0519 129.28 83.0119 129.69 97.9619C129.72 98.9619 129.75 99.9519 129.8 100.952C130.88 104.762 128.88 107.762 126.88 109.762L126.9 109.752Z" fill="currentColor"/>
<path d="M76.8297 109.91C76.1297 109.75 75.3296 109.75 74.8896 109.75C75.5596 109.75 76.1997 109.82 76.8297 109.91Z" fill="currentColor"/>
<path d="M161.74 145.921C160.87 143.981 160.04 142.021 159.25 140.031C159.09 140.141 158.98 140.111 158.94 139.901C158.94 139.871 158.93 139.841 158.92 139.811C158.94 139.661 158.97 139.521 158.99 139.371C158.26 137.471 157.56 135.561 156.91 133.621C156.89 133.691 156.88 133.771 156.86 133.841C158.53 139.301 160.19 144.281 161.73 145.921H161.74Z" fill="currentColor"/>
<path d="M149.42 115.951C149.42 115.951 149.38 115.951 149.36 115.951C151.06 123.921 153.11 142.181 153.99 141.531C155.26 139.061 156.19 136.491 156.87 133.821C154.26 125.271 151.63 115.591 149.42 115.931V115.951Z" fill="currentColor"/>
<path d="M89.4295 124.17C89.0295 124.61 88.6495 125.06 88.2695 125.53C88.2995 125.5 88.3395 125.47 88.3695 125.44C89.6195 124.32 90.6495 122.81 91.8895 121.75C91.6095 121.99 91.3395 122.24 91.0595 122.5C90.5495 123.08 89.9895 123.63 89.4195 124.17H89.4295Z" fill="currentColor"/>
<path d="M55.1396 33.7805C54.3796 34.0905 53.3596 34.5405 52.1196 35.1105C52.0596 35.2305 51.9896 35.3605 51.8896 35.5005C53.7796 34.7005 55.0796 34.1105 55.8596 33.7305C55.6296 33.7505 55.3796 33.7605 55.1396 33.7805Z" fill="currentColor"/>
<path d="M51.6996 34.4004C51.2696 34.8504 50.6096 35.4704 49.6396 36.2904C50.5396 35.8504 51.3696 35.4604 52.1096 35.1204C52.4096 34.5104 52.2296 34.2904 51.6996 34.4104V34.4004Z" fill="currentColor"/>
<path d="M50.9 34.0287C50.26 34.4087 49.42 34.9888 48.46 35.7388C48.52 35.8688 48.59 35.9887 48.63 36.1587C49.98 35.1587 51.08 34.5487 51.71 34.4087C51.87 34.2387 51.99 34.0987 52.08 33.9688C51.69 33.9887 51.3 34.0087 50.9 34.0387V34.0287Z" fill="currentColor"/>
<path d="M54.5801 35.0181C55.3901 34.7981 56.1101 34.5981 56.7701 34.4181C56.8801 34.1281 56.0901 34.3481 54.5801 35.0181Z" fill="currentColor"/>
<path d="M78.8501 28.3598C78.5601 27.2398 77.6601 25.6198 76.1201 23.3398C77.3501 25.4098 78.2801 27.0598 78.8501 28.3598Z" fill="currentColor"/>
</svg>
