<svg width="724" height="136" viewBox="0 0 724 136" fill="none" xmlns="http://www.w3.org/2000/svg">
<path d="M84.5797 85.2516C90.0497 88.1616 97.4496 86.9216 103.42 87.1516C110.45 87.4216 117.87 87.9316 124.61 85.4716C126.97 84.6116 128.71 83.2516 129.62 81.3216C130.93 79.3416 132.7 74.9116 128.4 73.9516C121.53 73.0516 88.7896 78.0916 81.7096 77.6916C70.2196 77.9516 58.9396 74.1016 47.8896 74.2116C47.7196 74.3116 47.5596 74.4016 47.3896 74.5016C49.1296 76.3216 82.8496 84.3316 84.5696 85.2516H84.5797Z" fill="currentColor"/>
<path d="M103.12 94.5808C95.6697 96.6708 88.0197 95.4308 82.4597 99.5308C81.3597 100.771 81.0397 102.511 80.6797 104.641C80.6997 105.601 80.7697 106.481 80.7697 107.341C80.7697 108.201 80.6997 109.041 80.7897 109.621C81.7197 109.191 83.0397 108.661 84.3797 108.251C88.4197 107.031 92.6797 106.961 96.9397 106.491C103.39 105.771 109.76 104.411 116.05 102.821C125.82 100.341 135.11 95.6808 134.15 83.8008C129.4 87.0608 124.37 89.3108 119.17 90.9708C113.96 92.6308 108.58 93.7008 103.13 94.5908L103.12 94.5808Z" fill="currentColor"/>
<path d="M184.339 69.6005C178.499 67.5405 171.359 69.8605 165.429 70.5105C158.439 71.2805 151.019 71.8805 144.729 75.3105C142.519 76.5105 140.999 78.1105 140.389 80.1505C139.379 82.3105 138.299 86.9505 142.689 87.2605C149.619 87.1305 181.249 77.2905 188.309 76.6405C199.639 74.6805 211.359 76.8105 222.279 75.0705C222.429 74.9505 222.579 74.8305 222.729 74.7105C220.739 73.1705 186.199 70.2405 184.359 69.5905L184.339 69.6005Z" fill="currentColor"/>
<path d="M164.63 63.1309C171.69 59.9609 179.44 60.0509 184.33 55.1809C185.23 53.7909 185.3 52.0209 185.33 49.8609C185.17 48.9209 184.97 48.0609 184.84 47.2109C184.709 46.3609 184.66 45.5209 184.479 44.9609C183.63 45.5209 182.4 46.2409 181.13 46.8509C177.32 48.6509 173.11 49.3509 168.97 50.4509C162.7 52.1209 156.6 54.4109 150.62 56.9209C141.32 60.8209 132.83 66.8109 135.55 78.4109C139.76 74.4909 144.4 71.5109 149.3 69.1009C154.2 66.6909 159.37 64.8309 164.63 63.1409V63.1309Z" fill="currentColor"/>
<path d="M202.59 41.4019C206.33 46.3419 213.56 48.3419 218.87 51.0719C225.13 54.2819 231.64 57.8719 238.79 58.4819C241.29 58.6919 243.44 58.2019 245.09 56.8319C247.12 55.5919 250.59 52.3219 247.09 49.6419C241.24 45.9219 209.43 36.6919 203.18 33.3419C192.65 28.7319 184.04 20.4919 173.98 15.9219C173.79 15.9419 173.6 15.9619 173.41 15.9819C174.22 18.3619 201.42 39.8519 202.59 41.4019Z" fill="currentColor"/>
<path d="M215.46 57.6709C207.82 56.4209 201.41 52.0709 194.64 53.4509C193.12 54.1109 192.09 55.5509 190.87 57.3309C190.48 58.2009 190.18 59.0309 189.82 59.8209C189.46 60.6009 189.04 61.3309 188.88 61.9009C189.9 61.9009 191.32 61.9809 192.71 62.1709C196.88 62.7709 200.78 64.5009 204.84 65.8709C210.99 67.9409 217.34 69.3909 223.72 70.6009C233.63 72.4809 244.02 72.1609 248.15 60.9809C242.47 61.9309 236.96 61.8509 231.54 61.1609C226.12 60.4709 220.79 59.1709 215.47 57.6809L215.46 57.6709Z" fill="currentColor"/>
<path d="M299.65 69.273C295.22 64.943 287.77 64.033 282.12 62.123C275.45 59.873 268.48 57.293 261.32 57.743C258.81 57.903 256.76 58.713 255.34 60.303C253.52 61.833 250.57 65.583 254.42 67.713C260.76 70.523 293.58 74.933 300.26 77.323C311.36 80.323 321.09 87.203 331.72 90.223C331.91 90.173 332.09 90.133 332.28 90.083C331.13 87.853 301.04 70.633 299.65 69.263V69.273Z" fill="currentColor"/>
<path d="M284.51 55.0927C292.25 55.1927 299.24 58.5527 305.72 56.1827C307.12 55.3027 307.93 53.7327 308.87 51.7827C309.12 50.8627 309.3 49.9927 309.54 49.1727C309.78 48.3427 310.09 47.5627 310.16 46.9827C309.15 47.1327 307.73 47.2727 306.33 47.2827C302.11 47.3127 298.01 46.1727 293.79 45.4227C287.4 44.2927 280.9 43.7927 274.42 43.5427C264.34 43.1527 254.12 45.0127 251.69 56.6727C257.17 54.8927 262.63 54.1527 268.09 54.0327C273.55 53.9127 279.02 54.4027 284.5 55.0927H284.51Z" fill="currentColor"/>
<path d="M321.3 48.6295C324.04 54.1995 330.8 57.5695 335.53 61.2695C341.1 65.6295 346.84 70.4195 353.79 72.3995C356.22 73.0895 358.44 73.0295 360.33 71.9995C362.57 71.1695 366.63 68.6295 363.7 65.3295C358.63 60.5495 328.98 45.3295 323.45 40.8295C313.93 34.2695 307.01 24.5095 297.95 18.0795C297.76 18.0595 297.56 18.0395 297.37 18.0195C297.71 20.5095 320.45 46.8695 321.31 48.6195L321.3 48.6295Z" fill="currentColor"/>
<path d="M330.88 67.0982C323.57 64.3882 318.07 58.8782 311.12 58.9182C309.49 59.2682 308.2 60.4882 306.65 61.9982C306.1 62.7782 305.64 63.5382 305.13 64.2282C304.62 64.9282 304.07 65.5582 303.8 66.0782C304.81 66.2782 306.2 66.6282 307.54 67.0882C311.55 68.4782 315.06 70.9382 318.82 73.0682C324.5 76.2882 330.5 78.9482 336.56 81.3582C345.99 85.1182 356.32 86.8182 362.56 76.6582C356.76 76.4882 351.33 75.3482 346.11 73.6182C340.89 71.8882 335.87 69.5882 330.9 67.0882L330.88 67.0982Z" fill="currentColor"/>
<path d="M411.84 94.7984C408.3 89.6884 401.11 87.3584 395.89 84.3884C389.74 80.8884 383.34 77.0084 376.18 76.0684C373.67 75.7384 371.49 76.1284 369.77 77.4184C367.67 78.5684 364.04 81.6784 367.44 84.5184C373.16 88.4984 404.75 99.1884 410.89 102.828C421.28 107.918 429.58 116.558 439.5 121.578C439.69 121.578 439.89 121.558 440.08 121.548C439.37 119.128 412.96 96.4084 411.84 94.7984Z" fill="currentColor"/>
<path d="M399.61 77.9395C407.24 79.5395 413.5 84.1795 420.36 83.1195C421.91 82.5295 423.01 81.1395 424.32 79.4095C424.75 78.5495 425.09 77.7395 425.49 76.9795C425.89 76.2195 426.34 75.4995 426.53 74.9495C425.5 74.8995 424.08 74.7595 422.69 74.4995C418.52 73.7095 414.68 71.7995 410.65 70.2495C404.55 67.8995 398.23 66.1495 391.87 64.6595C381.99 62.3295 371.52 62.1695 366.87 73.1395C372.62 72.4495 378.16 72.7795 383.59 73.7195C389.01 74.6595 394.32 76.1995 399.61 77.9395Z" fill="currentColor"/>
<path d="M430.48 72.4019C434.97 76.6719 442.43 77.4619 448.12 79.2819C454.82 81.4319 461.83 83.9119 468.98 83.3519C471.48 83.1519 473.53 82.3219 474.92 80.7019C476.72 79.1419 479.61 75.3519 475.72 73.2719C469.34 70.5619 436.45 66.6419 429.74 64.3519C418.6 61.5219 408.76 54.7919 398.09 51.9219C397.9 51.9719 397.72 52.0219 397.53 52.0719C398.71 54.2919 429.05 71.0519 430.47 72.4019H430.48Z" fill="currentColor"/>
<path d="M445.83 86.3608C438.09 86.3708 431.05 83.1208 424.6 85.5908C423.21 86.4908 422.43 88.0808 421.51 90.0408C421.27 90.9708 421.1 91.8308 420.88 92.6608C420.65 93.4908 420.36 94.2808 420.29 94.8608C421.3 94.7008 422.71 94.5408 424.12 94.5108C428.34 94.4208 432.46 95.5008 436.69 96.1808C443.1 97.2208 449.6 97.6208 456.08 97.7708C466.16 98.0108 476.36 96.0008 478.61 84.3008C473.16 86.1608 467.71 86.9808 462.25 87.1908C456.79 87.3908 451.32 86.9808 445.82 86.3708L445.83 86.3608Z" fill="currentColor"/>
<path d="M530.781 84.0922C525.701 80.5422 518.211 80.8622 512.311 79.9022C505.371 78.7722 498.061 77.3622 491.081 78.9722C488.631 79.5422 486.741 80.6722 485.601 82.4722C484.051 84.2822 481.761 88.4622 485.911 89.9322C492.621 91.6722 525.731 90.6722 532.701 91.9422C544.141 93.0922 554.861 98.2922 565.841 99.5422C566.021 99.4622 566.191 99.3922 566.371 99.3122C564.871 97.2922 532.381 85.2122 530.781 84.0922Z" fill="currentColor"/>
<path d="M513.53 72.5628C521.18 71.4028 528.62 73.5728 534.64 70.1828C535.88 69.0928 536.42 67.4028 537.03 65.3328C537.13 64.3828 537.17 63.5028 537.27 62.6428C537.37 61.7928 537.55 60.9628 537.53 60.3828C536.56 60.6928 535.18 61.0628 533.8 61.3028C529.64 62.0228 525.41 61.5628 521.12 61.5128C514.63 61.4328 508.14 62.0028 501.71 62.8228C491.71 64.0828 481.92 67.5828 481.42 79.4828C486.53 76.8328 491.8 75.2128 497.17 74.2028C502.54 73.1928 508.01 72.7928 513.54 72.5728L513.53 72.5628Z" fill="currentColor"/>
<path d="M537.93 57.5599C543.49 60.2999 550.85 58.8399 556.82 58.8799C563.85 58.9399 571.29 59.2199 577.94 56.5599C580.27 55.6299 581.97 54.2199 582.83 52.2599C584.08 50.2399 585.71 45.7599 581.39 44.9299C574.49 44.2399 541.93 50.2799 534.84 50.0899C523.36 50.6999 511.97 47.1999 500.93 47.6399C500.77 47.7399 500.6 47.8399 500.44 47.9499C502.23 49.7099 536.18 56.6999 537.93 57.5599Z" fill="currentColor"/>
<path d="M556.74 66.3081C549.36 68.6181 541.67 67.6181 536.24 71.8781C535.18 73.1481 534.91 74.8981 534.62 77.0381C534.67 77.9981 534.77 78.8681 534.79 79.7281C534.82 80.5881 534.77 81.4281 534.88 82.0081C535.79 81.5481 537.1 80.9781 538.43 80.5281C542.43 79.1881 546.69 78.9881 550.93 78.3881C557.36 77.4681 563.68 75.9181 569.92 74.1381C579.61 71.3681 588.76 66.4181 587.43 54.5781C582.78 57.9781 577.82 60.3781 572.67 62.1981C567.52 64.0181 562.17 65.2481 556.74 66.3081Z" fill="currentColor"/>
<path d="M637.17 38.8707C631.27 36.9907 624.21 39.5207 618.29 40.3607C611.33 41.3507 603.93 42.1707 597.74 45.7907C595.57 47.0607 594.1 48.7007 593.55 50.7607C592.61 52.9507 591.66 57.6207 596.06 57.7907C602.98 57.4507 634.3 46.6507 641.33 45.7907C652.59 43.4807 664.38 45.2607 675.23 43.1807C675.38 43.0507 675.52 42.9307 675.67 42.8007C673.64 41.3207 639.02 39.4507 637.17 38.8607V38.8707Z" fill="currentColor"/>
<path d="M617.27 32.9987C624.23 29.6187 631.98 29.4688 636.71 24.4488C637.57 23.0388 637.58 21.2688 637.55 19.0988C637.36 18.1588 637.13 17.3087 636.98 16.4587C636.82 15.6087 636.74 14.7788 636.55 14.2188C635.72 14.8087 634.51 15.5687 633.26 16.2087C629.5 18.1287 625.32 18.9587 621.22 20.1788C615 22.0388 608.97 24.5088 603.07 27.1988C593.89 31.3787 585.59 37.6287 588.66 49.1387C592.75 45.0887 597.3 41.9787 602.12 39.4087C606.95 36.8487 612.05 34.8288 617.26 32.9888L617.27 32.9987Z" fill="currentColor"/>
</svg>
