<svg width="129" height="177" viewBox="0 0 129 177" fill="none" xmlns="http://www.w3.org/2000/svg">
<path d="M20.7702 66.0586C20.7702 74.0286 22.8902 81.5086 26.6002 87.9586C26.9402 88.5486 27.2902 89.1186 27.6502 89.6886C28.9602 92.2186 39.0902 108.919 41.0702 110.239C45.6702 112.869 41.4602 100.769 45.0602 105.439C45.5502 105.839 46.0602 106.109 46.5702 106.299C49.6302 107.439 52.9502 107.759 55.8402 109.029C56.5902 109.239 61.4702 141.999 62.2202 142.139C64.4102 142.469 62.4902 110.059 64.7702 110.059C71.5702 110.059 78.0102 108.519 83.7602 105.759C84.4002 105.449 85.0302 105.129 85.6702 104.949C86.8302 104.059 89.7802 154.899 91.0902 154.239C97.0102 150.289 94.0602 92.8786 101.13 90.8286C101.53 90.2486 101.91 89.6586 102.28 89.0586C104.86 84.8586 106.75 80.1886 107.81 75.2086C107.83 74.5286 107.84 73.8586 107.83 73.1786C106.33 73.7786 104.18 74.5686 100.5 75.8986C99.8502 76.1986 99.1802 76.4886 98.5202 76.7486C97.8502 77.0086 97.1802 77.2586 96.5102 77.4786C95.6902 77.7886 94.9002 78.0186 94.1902 78.3986C92.7702 79.1386 91.7102 79.6986 91.7102 79.6986L88.0402 81.6186C88.0402 81.6186 86.5002 82.4286 84.4402 83.5086C83.9302 83.7786 83.4802 84.1086 83.0102 84.4586C81.8702 85.7386 80.5702 86.7786 79.1702 87.6786C78.4702 88.1286 77.7402 88.5286 77.4802 88.7686C76.2502 89.2886 75.4902 89.6386 77.6302 89.9586C73.9402 90.2886 73.1602 90.5886 75.3002 98.1486C74.5602 96.7586 73.9302 95.6486 73.3802 94.7886C72.8202 93.9286 72.3402 93.3186 72.6302 92.9986C71.4202 92.5086 70.9902 92.3086 72.4902 92.3786C70.0802 92.2186 69.6102 92.3386 72.4602 93.5686C71.9202 93.4686 71.4402 93.3886 71.0202 93.3286C71.4302 93.4486 71.8802 93.6086 72.3902 93.7886C71.7602 93.5786 71.2402 93.4186 70.7802 93.3086C70.5302 93.2886 70.2902 93.2686 70.0802 93.2686C69.4602 93.2786 68.9902 93.4186 68.6702 93.7586C68.5402 93.8686 68.4302 93.9886 68.3402 94.1386C68.2302 94.4386 68.1702 94.8086 68.2202 95.2786C68.1902 95.3286 68.1602 95.3786 68.1302 95.4286C68.1302 95.4486 68.1302 95.4686 68.1302 95.4886C68.0602 95.5786 68.0002 95.6686 67.9402 95.7586C67.6002 96.4786 67.4302 97.4186 67.2402 98.5786C67.3902 97.3886 67.5302 96.4386 67.9402 95.7586C68.0002 95.6386 68.0602 95.5286 68.1202 95.4186C68.0502 94.8486 68.1402 94.4386 68.3302 94.1286C68.4302 93.8686 68.5702 93.6686 68.7302 93.5286C69.0602 93.2086 69.4902 93.1086 70.0802 93.1786C70.2902 93.1986 70.5202 93.2486 70.7702 93.3086C70.8502 93.3086 70.9302 93.3186 71.0102 93.3286C70.6002 93.2086 70.2502 93.1186 69.9302 93.0686C69.2902 92.9786 68.8102 93.0486 68.5102 93.3386C68.0302 93.6586 67.7302 94.1986 68.0402 95.1286C67.9002 95.2486 67.7902 95.3786 67.6802 95.5186C67.6802 95.5186 67.7002 95.5386 67.7102 95.5486C67.6802 95.5686 67.6502 95.5886 67.6202 95.6086C67.1102 96.3186 66.9102 97.2886 66.7102 98.5086C66.7602 97.1186 66.8202 96.0886 67.6202 95.6086C67.6402 95.5786 67.6602 95.5486 67.6802 95.5186C67.3502 95.1686 67.1302 94.8986 67.0202 94.6886C66.9002 94.6986 66.7902 94.7186 66.6802 94.7386C66.8102 94.8486 66.9702 94.9786 67.1802 95.1286C64.9602 95.2486 64.3402 96.0286 63.7502 98.5986C64.3602 95.9586 64.8702 95.0486 66.6802 94.7386C66.5402 94.6086 66.4502 94.5086 66.4102 94.4186C66.1902 94.3286 66.0202 94.2486 65.9002 94.1886C65.7202 94.2286 65.5602 94.2686 65.4002 94.3086C65.5502 94.3386 65.7202 94.3686 65.9302 94.4086C65.8102 94.4086 65.6902 94.4086 65.5802 94.4186C65.7302 94.4586 65.9102 94.5086 66.1002 94.5586C65.4202 94.5586 64.9002 94.6086 64.4502 94.7386C64.6402 94.7686 64.8402 94.8286 65.0602 94.9186C64.8302 94.8386 64.6302 94.7786 64.4402 94.7486C64.3202 94.7886 64.2102 94.8286 64.1002 94.8786C63.3202 95.3886 62.6202 96.1986 61.6202 97.5886C62.6702 96.0286 63.2902 95.2486 64.1002 94.8786C64.1802 94.8286 64.2602 94.7786 64.3402 94.7286C64.1302 94.6986 63.9302 94.7286 63.7202 94.7786C63.2302 94.9886 62.7702 95.3286 62.2102 95.8386C61.8702 96.1586 61.4902 96.5386 61.0202 97.0186C61.4802 96.5386 61.8602 96.1586 62.2102 95.8386C62.8502 95.2286 63.3002 94.8986 63.7202 94.7786C63.7802 94.7486 63.8402 94.7286 63.9002 94.7086C63.1102 94.7586 62.3502 95.3186 60.7102 96.6886C62.4802 95.0286 62.4102 95.0586 60.6802 96.6486C61.9002 95.3186 61.4602 95.5486 59.6602 96.7886C60.1902 96.2186 59.4102 96.6286 58.5902 97.0686C58.1002 97.3086 57.5602 97.5886 57.1902 97.7886C56.8202 97.9886 56.6102 98.0986 56.6102 98.0986C56.6102 98.0986 56.7802 97.9486 57.0802 97.6886C57.3802 97.4286 57.8102 97.0586 58.2302 96.6586C58.8402 96.1686 59.4402 95.6386 58.7502 95.4586C60.4102 94.8086 60.7402 94.5186 59.0902 94.2186C61.3102 93.9386 61.5402 93.6586 59.9002 92.3486C61.6502 92.9886 62.2302 92.9886 62.0702 91.9286C61.8502 91.7386 61.4702 91.3286 60.8902 90.6986C61.2902 90.9686 61.6302 91.1686 61.9302 91.3086C61.8902 91.1586 61.8402 91.0086 61.7902 90.8386C61.8902 91.0386 61.9702 91.2086 62.0402 91.3586C62.8902 91.7386 63.3402 91.5686 63.6502 90.8086C63.4102 91.0586 62.9802 90.6086 62.2002 89.6086C62.8502 90.1186 63.3502 90.4186 63.7602 90.5086C63.8102 90.3486 63.8602 90.1786 63.9002 89.9786C63.8702 90.1986 63.8402 90.3786 63.8002 90.5186C64.2502 90.6086 64.5802 90.4486 64.8602 90.0286C64.6702 90.0986 64.3202 89.6286 63.6802 88.8586C64.8002 89.7086 65.4302 90.0386 65.7802 89.6886C65.8902 89.7486 65.7202 89.1286 65.2602 87.9586C66.4802 89.5386 66.9002 89.8586 66.5802 88.8786C66.4502 88.5886 66.2602 88.1386 66.0002 87.5386C66.4302 89.1786 66.2902 88.9386 65.6902 87.4386C65.9102 88.3686 65.6702 88.0386 65.2102 87.2086C65.1002 87.0586 64.7702 86.4886 64.4502 85.9286C63.4802 84.2486 62.5402 82.6486 62.2202 80.5986C61.7702 77.6586 61.1702 74.8686 59.9602 72.1286C58.8202 70.1386 57.4202 68.2686 55.8102 66.5986C54.6502 65.3886 53.3802 64.2986 52.0102 63.3386C51.3302 62.8586 50.6202 62.4086 50.1102 62.4486C49.1702 61.5686 48.4302 61.1886 47.5302 62.5186C46.9102 60.4786 46.1402 60.1486 44.1402 60.8386C44.5602 59.5686 43.7602 59.3086 42.7202 59.1486C42.1402 58.8586 41.3202 58.6686 40.4902 58.5086C38.8402 58.1886 37.1702 58.0086 35.5002 57.9586C37.1002 57.6586 38.7602 57.5786 40.4502 57.6286C41.3002 57.6486 42.1602 57.7086 42.5802 57.7886C43.8902 57.8486 44.7602 57.9486 43.1202 58.3886C46.5202 58.1486 47.4002 58.2486 50.0602 61.2286C49.1702 58.4486 50.0602 58.5386 52.8702 59.2786C51.8302 58.6886 52.7202 58.7386 53.6402 58.7986C54.4902 58.7886 55.3702 58.7786 56.2402 58.7186C56.6802 58.6886 57.1102 58.6486 57.0602 58.6086C57.8302 58.5586 58.2602 58.5086 57.7402 58.3886C57.7202 58.3886 57.7002 58.3886 57.6702 58.3886C57.6302 58.3886 57.5902 58.3886 57.5502 58.3886C57.5802 58.3886 57.6102 58.3886 57.6302 58.3886C57.6102 58.3886 57.6002 58.3886 57.5802 58.3886C57.6202 58.3886 57.6602 58.3886 57.7102 58.3886C57.6202 58.3686 57.5002 58.3486 57.3502 58.3286C58.0602 58.3286 58.5902 58.2986 58.8902 58.2886C59.1102 58.2686 59.3202 58.2386 59.4902 58.2186C59.7802 58.1586 59.9602 58.0886 60.0302 57.9986C60.0202 57.8886 59.8802 57.7386 59.6402 57.5586C59.5902 57.5586 59.5302 57.5586 59.4602 57.5586C59.0902 57.5686 58.4802 57.4786 57.6302 57.3286C58.4502 57.4686 59.0602 57.5586 59.4602 57.5586C59.5202 57.5586 59.5802 57.5586 59.6302 57.5386C59.4002 57.3686 59.0702 57.1586 58.6302 56.8986C58.5102 56.8386 58.4002 56.7786 58.2602 56.7186C58.3502 56.7586 58.4202 56.7886 58.5002 56.8286C58.4502 56.7986 58.4002 56.7686 58.3502 56.7386C58.9502 56.9686 59.4502 57.1486 59.8502 57.2786C59.7902 57.0286 59.3802 56.5886 58.6002 55.8986C58.8302 56.0286 59.0402 56.1486 59.2402 56.2586C59.1002 56.1186 58.9402 55.9686 58.7602 55.7986C59.5302 56.2986 60.1102 56.6686 60.5202 56.8786C60.8502 56.9986 61.0702 57.0086 61.1702 56.8986C61.0602 56.5086 60.7702 55.9086 60.3102 55.0586C60.5202 55.2986 60.7002 55.5186 60.8602 55.7086C60.7602 55.4986 60.6402 55.2586 60.5102 54.9886C60.1602 54.9086 59.7702 54.7786 59.3202 54.5786C59.0802 54.5686 58.8302 54.5486 58.5802 54.5386C58.8702 54.5586 59.1502 54.5686 59.4102 54.5686C59.3302 54.5486 59.2602 54.5186 59.1802 54.4986C59.2702 54.5286 59.3602 54.5486 59.4502 54.5786C59.6902 54.5786 59.9102 54.5786 60.1302 54.5586C60.1002 54.5286 60.0702 54.5086 60.0302 54.4786C60.0702 54.5086 60.1102 54.5286 60.1402 54.5486C61.0502 54.4686 61.8002 54.1986 62.4102 53.4286C62.5902 53.6386 62.7502 53.8086 62.9102 53.9486C62.9902 53.8186 63.0702 53.6886 63.1502 53.5386C63.1802 53.5986 63.2102 53.6486 63.2402 53.6986C63.2702 53.6586 63.2902 53.6286 63.3202 53.5886C63.3202 53.5986 63.3202 53.6086 63.3302 53.6186C63.3502 53.5886 63.3702 53.5686 63.4002 53.5386C63.4202 53.5586 63.4402 53.5786 63.4502 53.6086C63.4502 53.6086 63.4702 53.5986 63.4802 53.5886C63.5302 53.6686 63.5902 53.7486 63.6402 53.8186C63.7502 53.9186 63.8602 53.9986 63.9702 54.0386C64.0202 53.9786 64.0702 53.9086 64.1202 53.8386C64.1202 53.9186 64.1302 53.9886 64.1402 54.0586C64.2902 53.9586 64.4402 53.7886 64.5802 53.5886C64.8102 53.4086 64.9702 52.9386 64.9902 52.3486C65.0202 51.1686 64.4802 49.4886 63.5502 46.8186C63.9702 47.7286 64.3302 48.4886 64.6502 49.1086C64.3702 48.4686 64.0602 47.7586 63.7202 46.9786C64.4402 48.4986 65.0302 49.6986 65.5302 50.6186C65.3202 49.7886 64.9902 48.7886 64.5802 47.5486C65.3602 49.5286 65.8802 50.6986 66.2202 51.1786C66.4602 50.9486 66.5002 49.9486 66.4702 48.3486C66.6102 49.1186 66.7302 49.6386 66.8302 49.9486C66.8402 49.5486 66.8502 49.0686 66.8502 48.5186C66.9602 49.4786 67.0502 50.0386 67.1202 50.2986C67.1402 50.2786 67.1702 50.2486 67.1902 50.2086C67.1102 49.7386 67.0302 49.2086 66.9402 48.6186C67.0402 49.1886 67.1302 49.6986 67.2202 50.1486C67.3402 49.8886 67.4602 49.3586 67.6102 48.6586C67.4702 49.5686 67.3702 50.2186 67.2802 50.4086C67.5402 51.6486 67.7802 52.4386 68.1002 52.8686C68.2702 52.7286 68.4402 52.5186 68.6302 52.2486C68.4902 52.1986 68.4002 52.0086 68.3402 51.6786C68.3302 51.6186 68.3202 51.5586 68.3102 51.4886C68.3102 51.4686 68.3102 51.4486 68.3102 51.4286C68.3102 51.3286 68.2902 51.2186 68.2902 51.1086C68.2902 51.1086 68.2902 51.0986 68.2902 51.0886C68.2902 50.9886 68.2902 50.8786 68.2902 50.7686C68.2902 50.7286 68.2902 50.6886 68.2902 50.6486C68.2902 50.5986 68.2902 50.5486 68.2902 50.4986C68.2902 50.0886 68.2902 49.6186 68.3202 49.0786C68.3002 49.6286 68.2902 50.0986 68.2902 50.4986C68.2902 50.5486 68.2902 50.5986 68.2902 50.6486C68.2902 50.6886 68.2902 50.7286 68.2902 50.7686C68.2902 50.8786 68.2902 50.9886 68.2902 51.0886C68.2902 51.0886 68.2902 51.0986 68.2902 51.1086C68.2902 51.2286 68.3002 51.3386 68.3102 51.4286C68.3102 51.4486 68.3102 51.4686 68.3102 51.4886C68.3102 51.5586 68.3302 51.6186 68.3402 51.6786C68.4102 52.0886 68.5602 52.1986 68.8002 51.9786C68.9002 51.8186 69.0002 51.6486 69.1102 51.4686C69.0902 50.9786 69.1302 50.3186 69.2102 49.4886C69.1702 50.2986 69.1602 50.9386 69.2302 51.4286C69.3702 51.2186 69.5202 50.9586 69.6902 50.6486C69.5402 51.0386 69.4002 51.3786 69.2802 51.6886C69.2902 51.7386 69.3002 51.7886 69.3202 51.8286C69.5102 51.6286 69.7202 51.3586 69.9702 51.0086C69.7702 51.4386 69.6002 51.8086 69.4502 52.1286C69.4902 52.1886 69.5202 52.2486 69.5702 52.2986C69.7102 52.1586 69.8502 52.0086 70.0102 51.8386C69.8802 52.0386 69.7702 52.2186 69.6602 52.3886C69.6602 52.3886 69.6802 52.3986 69.6902 52.4086C69.9502 52.3786 70.3102 52.1886 70.8102 51.8086C70.5902 52.0986 70.4002 52.3586 70.2302 52.5786C70.2602 52.5786 70.3002 52.5786 70.3302 52.5786C70.4002 52.5286 70.4702 52.4786 70.5502 52.4286C70.5002 52.4786 70.4702 52.5286 70.4202 52.5786C70.7002 52.5586 71.0302 52.4686 71.4202 52.3286C70.0402 54.1786 70.4502 54.3786 72.4402 54.0886C72.0902 54.2086 72.0502 54.2286 72.2102 54.1986C72.1602 54.1786 72.3402 54.1286 72.8102 54.0186C72.1702 54.1286 72.7002 54.0186 73.5702 53.8386C72.9402 54.0086 72.4102 54.1486 72.2102 54.1986C72.2702 54.2186 72.5802 54.1986 73.1202 54.1486C73.3702 54.1886 74.4502 54.1486 76.0502 54.0786C74.6202 54.0686 73.6902 54.0486 73.4002 54.0086C72.8302 54.0086 72.8902 54.0086 73.5102 53.9886C73.9802 54.0086 75.0002 54.0286 76.4902 54.0686C72.5202 53.6986 72.7702 53.5786 76.8102 53.8786C73.2702 53.3386 73.5202 53.2186 77.1702 53.4786C74.3302 52.8486 74.8802 52.5986 77.7402 52.5886C75.9902 52.0786 76.5402 51.8186 78.1902 51.6586C77.6302 51.2886 78.1902 51.0186 78.8702 50.7586C79.2802 50.4786 79.8302 50.2086 80.3702 49.9286C82.5502 48.8186 84.7202 47.6386 86.8602 46.3886C88.9502 45.1386 84.3702 32.4186 86.4002 31.0886C86.5202 31.0086 86.7002 31.0186 86.9102 31.0886C81.9602 27.2186 76.4202 24.3086 70.6002 22.4586C68.6702 22.1986 66.7102 22.0586 64.7102 22.0586C40.4102 22.0586 20.7002 41.7586 20.7002 66.0686L20.7702 66.0586Z" fill="currentColor"/>
</svg>
