<svg width="267" height="156" viewBox="0 0 267 156" fill="none" xmlns="http://www.w3.org/2000/svg">
<path d="M222.09 41.4016C222.09 41.4016 224.27 41.8916 228.19 41.3716C230.15 41.1116 232.74 40.5216 235.37 39.9016L251.16 36.1816H229.11C214.8 34.9816 199.3 30.4216 185.02 35.7916C183.74 36.0016 182.51 36.1816 181.22 36.1816H156.71C154.93 36.1816 153.11 35.8316 151.18 35.5816C149.62 35.3316 148.05 35.1216 146.46 34.9516C144.87 34.7816 143.27 34.6616 141.67 34.5816C124.51 32.2416 108.1 32.2416 90.4396 31.8516C88.7196 31.9216 86.9796 32.0716 85.0596 32.2016C74.6196 32.2216 64.0596 34.8616 52.9996 36.1716C50.9296 35.9716 48.8596 35.6816 46.7696 35.3516C36.3396 33.7316 25.6996 31.3216 15.0596 35.8816C24.9396 33.6016 36.0896 33.2216 44.2796 38.4316C45.9196 39.4716 47.4296 40.7416 48.7596 42.2816C52.4496 45.9116 53.3596 50.4716 53.3596 55.0316C53.1296 60.0516 51.8796 64.8316 50.2096 69.5116C48.9496 72.9616 47.4296 76.4016 45.9096 79.8816C40.5896 98.8116 35.5796 122.432 18.6996 134.382C38.7696 122.522 61.5696 112.492 85.4096 112.162C91.4496 111.532 98.0696 111.252 104.12 110.552C110.17 109.852 115.65 108.712 121.72 108.122C127.11 107.592 132.5 107.142 137.91 106.832C143.43 106.562 148.91 106.482 154.37 106.552C159.83 106.622 165.26 106.832 170.66 107.132C174.37 107.262 178.06 107.482 181.75 107.752C185.89 107.932 189.94 108.412 193.92 109.152C197.9 109.882 201.81 110.872 205.67 112.082C222.38 117.312 235.68 132.362 251.26 137.122C236.67 128.912 224.81 115.232 220.16 99.1016C218.7 94.1216 217.88 88.9916 217.69 83.8916C218.14 77.2416 219.84 71.1216 222 64.8516C224.01 59.0316 222.98 53.6316 223.02 47.6316C222.46 43.5216 222.06 41.3816 222.06 41.3816L222.09 41.4016ZM38.8896 118.062C40.6096 106.132 46.0796 94.2716 49.2296 82.8216C50.7596 78.1616 52.2396 73.5116 53.5796 68.7616C54.9196 64.0116 56.1196 59.1716 57.0296 54.1516C57.0296 49.5916 59.7696 45.9416 62.1296 42.0216C64.7096 38.7516 68.2796 36.5116 73.4496 35.9016C72.6996 35.9916 71.1596 40.6416 70.8496 41.4016C65.9596 53.0116 67.2996 64.6416 66.3596 76.6516C66.0396 80.6516 65.4696 84.7016 64.3296 88.8116C61.5896 97.0216 57.0296 103.402 51.3996 110.042C47.5196 114.352 42.4796 117.222 38.8996 118.082L38.8896 118.062ZM74.9396 35.4116C79.1596 35.4216 83.8796 34.6616 87.6296 37.0216C93.5096 40.4616 94.4196 46.8416 94.4196 52.3216C93.5096 69.6516 91.6796 86.9816 93.5096 104.312C89.8596 103.852 85.9896 103.852 82.1096 103.742C78.2296 103.632 74.3596 103.412 70.7096 102.512C72.9896 99.2916 74.5896 95.6416 75.6096 91.8816C76.6296 88.1216 77.0896 84.2416 77.0896 80.5916C77.9996 65.0916 71.6196 50.4916 74.8896 35.4116H74.9496H74.9396ZM104.87 108.432C99.8896 107.952 96.2396 105.222 97.1496 101.572C98.9696 82.4216 98.0596 53.2316 113.57 42.2916C113.57 62.3616 122.69 86.0716 113.67 103.632C111.58 105.162 107.41 107.782 104.87 108.432ZM118.17 102.042C119.96 89.7116 126.34 77.8516 128.13 65.0116C129.84 57.2916 131.42 49.6916 133.64 42.2816C135.46 37.7216 140.02 40.4616 141.97 42.2616C143.93 43.6116 145.11 45.7716 145.64 48.5316C147.14 56.3916 145.25 64.4716 143.7 72.1716C142.38 78.7016 142.42 87.0716 138.23 92.5816C136.83 94.4216 118.86 105.282 118.19 102.132C118.19 102.102 118.18 102.072 118.17 102.042ZM153.58 97.4716C150.06 90.6216 152.79 82.4116 151.83 73.8316C151.83 67.6616 151.61 61.5416 150.72 55.5116C149.83 49.4816 148.24 43.5416 145.5 37.7216C158.76 38.7816 162.23 49.8516 163.21 61.0616C163.84 68.2716 164.2 75.5316 163.84 82.7716C163.52 89.1416 162.4 95.3816 164.65 101.572C162.83 100.662 161 100.662 158.89 100.352C156.6 99.5716 154.75 98.9016 153.58 97.4716ZM184.71 97.1716C178.33 98.8316 171.95 97.9216 165.57 100.662C165.57 88.8016 171.04 78.7716 172.44 67.7616C172.97 63.0316 172.74 58.2516 173.43 53.5416C174.55 45.9216 178.46 39.7916 186.55 38.6316C185.26 38.8116 183.65 47.6616 183.41 48.9416C182.72 52.5016 182.4 56.1316 182.32 59.7616C181.99 70.5516 183.81 81.5016 184.62 92.4616C184.7 95.2816 184.72 97.1716 184.72 97.1716H184.71ZM187.42 38.4416C192.92 36.8116 201.13 36.8116 201.13 38.6416C202.95 42.5216 204.32 46.5616 205.38 50.7216C206.37 55.2216 207.17 59.7416 207.9 64.2716C208.63 68.8016 209.29 73.3416 210.01 77.8916C210.59 82.8916 211.57 87.9016 213.05 93.1416C214.81 98.8316 216.68 105.232 219.53 110.782C214.88 108.442 210.27 105.672 206.34 102.222C202.43 98.7716 199.16 94.6116 197.18 89.4716C195.39 85.3416 194 80.8216 192.53 76.4116C191.07 72.0016 189.53 67.6916 187.49 64.0016C185.38 57.0716 185.27 50.8816 186.49 43.8916C187.1 40.3216 187.43 38.4316 187.43 38.4316L187.42 38.4416Z" fill="currentColor"/>
</svg>
