<svg width="220" height="93" viewBox="0 0 220 93" fill="none" xmlns="http://www.w3.org/2000/svg">
<path d="M46.51 46.4697C52.55 51.0497 61.73 51.0097 68.89 52.4597C77.33 54.1697 86.19 56.2397 94.81 54.5897C97.83 54.0097 100.2 52.7197 101.68 50.5697C103.66 48.4297 106.66 43.4297 101.66 41.4297C93.53 38.9897 53.01 38.6597 44.54 36.7797C30.61 34.8397 17.74 27.9797 4.36996 25.9297C4.14996 26.0197 3.92996 26.0997 3.70996 26.1897C5.44996 28.7297 44.61 45.0297 46.51 46.4697Z" fill="currentColor"/>
<path d="M67.0604 61.3697C57.6504 62.4297 48.6504 59.4297 41.1404 63.2897C39.5704 64.5697 38.8404 66.6097 37.9904 69.1097C37.8204 70.2697 37.7404 71.3497 37.5704 72.3897C37.4004 73.4297 37.1504 74.4297 37.1504 75.1497C38.3504 74.8197 40.0504 74.4297 41.7604 74.1997C46.8804 73.5197 52.0404 74.2697 57.2704 74.5397C65.2004 74.9397 73.1604 74.5397 81.0704 73.8497C93.3604 72.7797 105.49 68.9597 106.66 54.4297C100.28 57.4297 93.7704 59.1597 87.1604 60.1497C80.5504 61.1297 73.8404 61.3697 67.0704 61.3697H67.0604Z" fill="currentColor"/>
<path d="M170.06 47.1603C163.41 43.5203 154.34 44.9203 147.04 44.5503C138.44 44.1103 129.37 43.3803 121.1 46.2803C118.2 47.3003 116.05 48.9303 114.9 51.2803C113.26 53.6903 111.04 59.0803 116.28 60.3103C124.68 61.5203 164.8 55.8403 173.46 56.4403C187.52 56.2903 201.27 61.1703 214.79 61.2103C214.99 61.0903 215.2 60.9803 215.4 60.8603C213.3 58.6103 172.16 48.3003 170.07 47.1503L170.06 47.1603Z" fill="currentColor"/>
<path d="M147.53 35.4584C156.68 33.0184 166.02 34.6484 172.88 29.7184C174.24 28.2184 174.66 26.0984 175.14 23.4884C175.14 22.3184 175.06 21.2384 175.07 20.1884C175.08 19.1384 175.18 18.1084 175.07 17.3984C173.93 17.9084 172.31 18.5384 170.65 19.0184C165.69 20.4484 160.48 20.4684 155.26 20.9884C147.36 21.7684 139.54 23.3384 131.83 25.1984C119.83 28.0784 108.4 33.6484 109.4 48.1984C115.26 44.2884 121.45 41.6084 127.84 39.6484C134.23 37.6984 140.84 36.4684 147.52 35.4584H147.53Z" fill="currentColor"/>
</svg>
