<svg width="295" height="131" viewBox="0 0 295 131" fill="none" xmlns="http://www.w3.org/2000/svg">
<path d="M61.6203 101.84L70.3003 34.9898L104.92 26.8398H18.3203L52.1703 34.9898L61.6203 101.84Z" fill="currentColor"/>
<path d="M84.8 28.1914L76.12 95.0414L41.5 103.191H128.1L94.25 95.0414L84.8 28.1914Z" fill="currentColor"/>
<path d="M109.98 101.84L118.66 34.9898L153.28 26.8398H66.6699L100.53 34.9898L109.98 101.84Z" fill="currentColor"/>
<path d="M136.38 101.84L145.06 34.9898L179.68 26.8398H93.0703L126.93 34.9898L136.38 101.84Z" fill="currentColor"/>
<path d="M159.56 28.1914L150.88 95.0414L116.26 103.191H202.86L169.01 95.0414L159.56 28.1914Z" fill="currentColor"/>
<path d="M184.73 101.84L193.41 34.9898L228.03 26.8398H141.43L175.29 34.9898L184.73 101.84Z" fill="currentColor"/>
<path d="M207.92 28.1914L199.24 95.0414L164.62 103.191H251.22L217.36 95.0414L207.92 28.1914Z" fill="currentColor"/>
<path d="M233.09 101.84L241.77 34.9898L276.39 26.8398H189.79L223.64 34.9898L233.09 101.84Z" fill="currentColor"/>
</svg>
