<svg xmlns="http://www.w3.org/2000/svg" width="104" height="103" viewBox="0 0 104 103" fill="none">
  <path d="M7.89882 37.3529C7.88572 37.3529 7.86999 37.3529 7.85689 37.3529C7.61055 37.3399 7.39042 37.2076 7.26201 36.9973C7.15456 36.865 6.61995 36.364 6.17182 36.0837C6.04079 36.0007 2.93009 34.0282 2.55796 31.4431C2.17797 28.435 5.97527 25.676 6.13513 25.5592C6.70119 25.1518 7.14408 24.8247 7.20959 24.7702C7.48214 24.5418 7.78089 24.3394 8.14516 24.3965C8.33385 24.425 8.50157 24.5237 8.61688 24.6716C8.74529 24.7832 9.26417 25.131 9.78044 25.4191C9.90099 25.4866 12.7182 27.0957 13.2187 29.5666C13.5987 31.822 11.7774 34.2877 11.6987 34.3915C11.1982 35.0585 11.0279 35.3077 10.9728 35.3908C10.8523 35.7074 10.4906 35.8761 9.8774 36.0682C9.67823 36.1382 8.9759 36.6469 8.79508 36.8234C8.69549 36.9558 8.35743 37.3529 7.90144 37.3529H7.89882ZM7.24366 36.9636C7.24366 36.9636 7.25152 36.9766 7.25676 36.9844C7.25152 36.9766 7.2489 36.9714 7.24366 36.9636ZM8.81866 36.7871C8.81866 36.7871 8.8108 36.8001 8.80294 36.8105C8.8108 36.8001 8.81604 36.7923 8.81866 36.7871ZM7.98006 25.824C7.75731 25.9953 7.24104 26.3716 6.9056 26.613C5.97789 27.28 3.62456 29.4187 3.8578 31.2744C4.09628 32.9225 6.11679 34.5161 6.87415 34.9911C7.19387 35.1909 7.62103 35.5283 7.94861 35.8372C8.33123 35.492 9.08859 34.9573 9.48431 34.8327C9.65465 34.7782 9.78568 34.7289 9.86954 34.6952C9.99533 34.5005 10.2233 34.1865 10.6479 33.6233C10.6636 33.6025 12.215 31.495 11.932 29.8054C11.5546 27.9393 9.15935 26.5663 9.13576 26.5533C8.92349 26.4339 8.38364 26.1224 7.9853 25.8266L7.98006 25.824ZM7.54765 25.4217C7.56862 25.4528 7.58958 25.4814 7.61317 25.5073C7.58696 25.4788 7.566 25.4502 7.54765 25.4217Z" fill="currentColor"/>
  <path d="M47.2057 96.1327C47.0589 96.1327 46.9122 96.1275 46.7654 96.1171C46.5479 96.1015 46.3304 96.073 46.1181 96.0392C44.986 95.9043 44.0373 95.4319 43.1647 94.9595C43.0205 94.8817 42.879 94.8038 42.7375 94.7259L42.6615 94.6844C42.1112 94.4249 41.6525 94.0953 41.249 93.8072C41.1861 93.763 41.1232 93.7189 41.0629 93.6748L41.0315 93.667L40.9423 93.6099C40.7589 93.4931 40.5964 93.3893 40.4602 93.2907L40.4235 93.2699V93.2647C40.0828 93.0026 39.9439 92.7586 40.1719 92.3719L40.4916 91.832L41.2594 92.2473C41.3826 92.32 41.5005 92.3952 41.6159 92.4757L43.0389 92.8468C43.2459 92.9429 43.466 93.0337 43.6521 93.1012L43.8513 92.9325C44.2941 92.5588 45.2952 92.9818 45.3372 93C45.5389 93.0856 45.6936 93.1531 45.7722 93.1843C45.801 93.1946 45.822 93.2024 45.8377 93.2102L46.4273 93.4801L46.312 93.7553C46.4378 93.7838 46.5741 93.8123 46.7104 93.8409C47.4206 93.9811 48.2356 93.9759 48.2408 93.9759H48.2539C48.2723 93.7916 48.385 93.4204 48.9746 93.3711L49.1109 93.3556C49.4594 93.314 49.58 93.2959 49.6062 93.2907C50.3085 93.1246 50.5915 93.3971 50.7068 93.6566C50.7645 93.7864 50.809 93.9914 50.6964 94.2198C51.8416 94.3937 53.0287 94.565 53.0445 94.5676C53.296 94.604 53.9669 94.7 53.9197 95.3359C53.8726 95.9718 53.1965 95.9718 52.9422 95.9718C52.8741 95.9718 51.1707 95.9718 49.9233 95.9198L49.7162 95.9121C49.5695 95.9043 49.1056 95.9406 48.6759 96.0159C48.6418 96.0211 47.9447 96.1431 47.2004 96.1431L47.2057 96.1327ZM49.4699 94.0278C49.504 94.0304 49.5354 94.0356 49.5669 94.0407C49.5669 94.0304 49.5669 94.0226 49.5669 94.0122C49.5642 93.9084 49.5354 93.8149 49.4935 93.7345C49.4647 93.8175 49.4516 93.9188 49.4699 94.0278Z" fill="currentColor"/>
  <path d="M71.5459 88.5875C69.4677 88.5875 67.4157 87.1003 67.3214 87.0302C66.6479 86.5371 66.3989 86.3658 66.3124 86.3113C65.9927 86.1919 65.8224 85.8337 65.6285 85.2264C65.5577 85.0291 65.0441 84.3335 64.8659 84.1545C64.727 84.0532 64.305 83.7003 64.3312 83.2279C64.3443 82.9839 64.478 82.7659 64.6903 82.6387C64.8239 82.5323 65.3297 82.0028 65.6127 81.559C65.6966 81.4292 67.6883 78.3485 70.2984 77.9799C73.3358 77.601 76.1215 81.3644 76.2394 81.5227C76.6509 82.0833 76.9811 82.5219 77.0361 82.5868C77.2667 82.8567 77.4685 83.1526 77.4135 83.5134C77.3846 83.6977 77.2851 83.8638 77.1357 83.978C77.0204 84.1051 76.6718 84.619 76.3809 85.1303C76.3128 85.2497 74.688 88.0398 72.1932 88.5356C71.9783 88.5719 71.7634 88.5875 71.5459 88.5875ZM67.02 85.2186C67.2166 85.3432 67.5337 85.5716 68.1023 85.9894C68.1233 86.005 70.2513 87.5415 71.9573 87.2612C73.5244 86.9497 74.861 85.1563 75.241 84.4919C75.3615 84.2816 75.676 83.747 75.9747 83.3499C75.8149 83.1474 75.469 82.6803 75.1781 82.2857C74.5046 81.367 72.3478 79.0363 70.4714 79.2673C68.4719 79.5502 66.737 82.2287 66.7186 82.2546C66.5169 82.5687 66.1762 82.9943 65.8643 83.3161C66.2155 83.6951 66.7553 84.4477 66.8785 84.8371C66.9335 85.0058 66.9833 85.1355 67.0174 85.216L67.02 85.2186ZM64.879 84.1674C64.879 84.1674 64.8973 84.1804 64.9025 84.183C64.8973 84.1804 64.8894 84.1726 64.879 84.1674ZM65.3533 83.7626C65.3533 83.7626 65.3454 83.7677 65.3402 83.7703C65.3454 83.7703 65.3481 83.7651 65.3533 83.7626ZM76.3783 82.9242C76.3443 82.945 76.3154 82.9683 76.2892 82.9917C76.3207 82.9632 76.3495 82.9424 76.3783 82.9242ZM64.7243 82.6232C64.7243 82.6232 64.7112 82.6309 64.7034 82.6361C64.7112 82.6309 64.7165 82.6283 64.7243 82.6232Z" fill="currentColor"/>
  <path d="M60.3165 60.3048C59.8055 60.3048 59.4596 60.2685 59.4176 60.2633C58.5843 60.1672 58.2829 60.1465 58.1807 60.1387C57.8426 60.1932 57.5151 59.9674 57.0407 59.5391C56.8809 59.4016 56.0842 59.0538 55.8405 58.9889C55.6701 58.9682 55.125 58.8721 54.9101 58.4517C54.7975 58.2336 54.8027 57.9793 54.9233 57.7639C54.9835 57.6055 55.1539 56.897 55.1775 56.3727C55.1827 56.217 55.353 52.5652 57.4286 50.9508C59.8684 49.1211 64.1793 50.9976 64.3628 51.078C65.0022 51.3609 65.508 51.5763 65.5919 51.6049C65.9247 51.7243 66.2523 51.88 66.3859 52.22C66.4541 52.3965 66.4514 52.5886 66.3807 52.7599C66.3466 52.926 66.3021 53.5437 66.3073 54.1303C66.3073 54.2652 66.3099 57.4888 64.3995 59.1524C63.1914 60.1361 61.3962 60.3022 60.3218 60.3022L60.3165 60.3048ZM58.2384 58.8436C58.4716 58.854 58.8594 58.8929 59.5644 58.9733C59.5906 58.9759 62.2112 59.2536 63.5451 58.1662C64.9865 56.91 64.9917 54.1692 64.9917 54.1406C64.9917 53.8993 64.9917 53.2815 65.052 52.791C64.8109 52.695 64.2763 52.4614 63.8256 52.2641C62.7799 51.8021 59.7321 50.8522 58.2253 51.9812C56.6371 53.2167 56.4852 56.3961 56.4825 56.4272C56.4668 56.801 56.3856 57.3356 56.2807 57.7691C56.776 57.9248 57.6225 58.3063 57.9265 58.584C58.0575 58.7034 58.1676 58.7917 58.2384 58.8436ZM55.8536 58.9915C55.8536 58.9915 55.8745 58.9915 55.8824 58.9941C55.8772 58.9941 55.8667 58.9941 55.8536 58.9915ZM56.0606 58.4023C56.0606 58.4023 56.0554 58.4127 56.0501 58.4179C56.0527 58.4127 56.0554 58.4075 56.0606 58.4023ZM54.939 57.7327C54.939 57.7327 54.9311 57.7457 54.9259 57.7535C54.9311 57.7457 54.9337 57.7405 54.939 57.7327ZM65.1857 52.2226C65.1673 52.2538 65.1542 52.2875 65.1437 52.3212C65.1568 52.2849 65.1699 52.2512 65.1857 52.2226Z" fill="currentColor"/>
  <path d="M34.7211 41.7917C34.5612 41.7917 34.3882 41.7579 34.2362 41.6593C34.0292 41.5243 33.906 41.3011 33.9008 41.0572C33.8746 40.891 33.6649 40.1929 33.416 39.7257C33.3426 39.5881 31.6471 36.3412 32.6298 33.9171C33.8196 31.1244 38.5 30.6131 38.6992 30.5923C39.3937 30.5223 39.9414 30.4574 40.0279 30.4418C40.3764 30.3795 40.738 30.3536 41.0263 30.582C41.1731 30.6988 41.27 30.8675 41.2936 31.0543C41.3487 31.2152 41.6212 31.7707 41.9226 32.2768C41.9933 32.3936 43.6207 35.1837 42.8057 37.5715C41.996 39.7127 39.1735 40.9455 39.053 40.9949C38.2851 41.3245 38.01 41.4543 37.9182 41.501C37.6536 41.7164 37.2552 41.6827 36.6289 41.5451C36.4219 41.5062 35.5544 41.5996 35.3107 41.6645C35.2137 41.706 34.9779 41.7917 34.7184 41.7917H34.7211ZM35.3553 41.6437C35.3553 41.6437 35.3422 41.6515 35.3291 41.6541C35.3395 41.6489 35.3474 41.6463 35.3553 41.6437ZM33.9008 41.0182C33.9008 41.0182 33.9008 41.0338 33.9008 41.0416C33.9008 41.0338 33.9008 41.026 33.9008 41.0182ZM40.1615 31.7343C39.8837 31.7733 39.2443 31.8433 38.8328 31.8849C37.6929 32.0043 34.5743 32.6895 33.8405 34.4102C33.2142 35.9545 34.1602 38.3371 34.5769 39.1236C34.7525 39.4532 34.9517 39.9593 35.0801 40.3875C35.5859 40.2759 36.5136 40.1903 36.9172 40.2785C37.0927 40.3175 37.2316 40.3382 37.3181 40.3486C37.5251 40.2422 37.8816 40.0839 38.5341 39.8036C38.5577 39.7932 40.966 38.7368 41.574 37.1329C42.1899 35.3316 40.8088 32.9542 40.7957 32.9308C40.6725 32.7232 40.3607 32.1859 40.1641 31.7317L40.1615 31.7343ZM39.9912 31.1711C39.9912 31.2075 39.9964 31.2438 40.0043 31.2775C39.9964 31.2386 39.9912 31.2023 39.9912 31.1711Z" fill="currentColor"/>
  <path d="M72.5499 102.15C66.1477 102.15 60.6627 97.7503 59.3079 91.6121C58.7837 91.7419 55.8067 93.1953 54.7375 93.8805C53.4193 94.7266 50.0675 94.1401 49.2237 92.9124C48.7257 92.1909 48.2462 91.7341 48.0575 91.6121H47.895H19.6367C17.3882 91.6121 15.1082 90.8438 15.1082 89.3748C15.1082 88.4742 14.9536 87.7112 14.8697 87.5528C14.7492 87.3478 14.4347 87.0363 14.225 86.9169C14.0835 86.8365 13.4126 86.6833 12.6789 86.6833C11.3188 86.6833 10.7108 84.4305 10.7108 82.1984V50.3005C10.7108 50.22 10.7186 50.0228 10.7291 49.7762C10.7475 49.3064 10.7789 48.5174 10.7606 48.2319C10.7344 47.7647 10.7108 47.0406 10.7108 46.6176V42.9061C4.51034 41.5616 0.0683594 36.1294 0.0683594 29.7887C0.0683594 27.6423 0.592487 25.5089 1.58309 23.6142L1.92901 22.9627C2.35356 22.3424 3.63767 20.8293 4.79599 19.5809L6.30024 17.7563C6.61209 17.3514 6.84271 15.3789 6.46534 13.2428C6.43651 13.0715 5.76038 9.0382 8.14778 5.73161C8.65357 5.02565 9.2799 4.33527 10.0661 3.5203C14.0416 -0.455915 20.0612 3.04793 20.3154 3.20106C20.7714 3.47098 21.1226 3.689 21.3584 3.84473C21.6519 4.03679 22.1944 4.39756 21.8825 4.95038C21.5707 5.50321 20.9758 5.23588 20.6561 5.09054C20.4176 4.98413 20.0848 4.82061 19.6681 4.61038L16.408 4.33007C14.5186 4.83878 12.0604 6.56734 10.9938 8.15575C10.9414 8.23621 9.68348 10.1906 10.4802 13.0144L10.4906 13.0533C10.6426 13.7567 10.868 14.4159 11.1641 15.0129C13.0117 18.6984 19.1178 19.6432 19.178 19.651C21.2221 19.952 23.7642 20.8838 24.1704 21.3613C24.4219 21.6572 24.9592 22.4099 25.3339 22.9679L25.3706 23.0302L25.6772 23.6168C26.6678 25.5089 27.192 27.6449 27.192 29.7887C27.192 36.1294 22.75 41.5616 16.5522 42.9035V42.958C16.6439 43.2824 17.5113 44.6139 18.9841 46.2205C19.1099 46.3554 20.166 47.6324 18.8872 50.4199C18.5727 51.0454 18.1377 51.5048 17.7184 51.9512C17.1287 52.5767 16.6177 53.1165 16.56 53.9523L16.5548 54.7127V76.2912C16.5548 76.8285 16.6151 77.1321 16.6675 77.2931C16.7933 77.1789 16.9977 76.9479 17.2702 76.4833L30.3603 54.0327L31.1648 52.7558C32.0401 51.1985 32.8918 49.688 33.0674 49.3843L34.0502 47.6999C29.3618 43.4667 28.2559 36.5628 31.4557 31.0709C32.5381 29.2125 34.0711 27.6241 35.8846 26.4744L36.5136 26.0824C37.1871 25.758 39.3727 24.9171 41.3958 24.2034C41.4718 24.167 41.8466 23.9827 43.4845 23.1262L43.8304 22.9264C44.1134 22.7629 44.3938 22.602 44.6742 22.4333C44.9363 22.2827 44.9625 21.9687 44.9625 21.2887C44.9625 16.5079 49.0035 13.4842 49.1765 13.357C50.9795 12.0333 54.271 10.868 56.5143 10.7616C56.7213 10.7538 57.8298 10.8031 59.5463 12.7445L59.5647 12.7653L60.6182 14.0708V14.2992C60.6182 15.2024 60.3404 15.7292 59.7901 15.8642C59.1297 16.0277 58.4719 15.5086 57.7355 14.2343L55.7726 14.0396C53.0524 13.6529 50.4973 15.1271 49.4123 17.7044C47.7771 21.7533 51.8653 25.9994 51.9072 26.0409C52.7301 26.8792 53.8124 27.8811 54.6012 28.613C55.5368 29.4799 55.7648 29.6979 55.867 29.8406C56.0426 30.0924 56.095 30.4584 56.2705 32.6411C56.3282 33.3445 56.3806 34.0063 56.4304 34.393C56.5719 35.4624 56.7292 36.9314 56.7816 37.6659V37.7022L56.7527 38.4004C56.6558 40.5313 56.0295 42.6388 54.9471 44.4971C53.131 47.6142 50.1959 49.8385 46.6843 50.7599L46.2885 50.8637C45.809 50.9571 43.626 51.131 41.7889 51.2452L41.6867 51.2504L40.0436 50.8429C40.3659 51.3646 40.8193 52.0524 41.4115 52.8726C41.464 52.9452 42.6511 54.666 39.8156 57.059C38.9429 57.7961 37.8553 58.0297 36.8045 58.2555C35.9554 58.4372 35.1535 58.6111 34.6136 59.0367L34.3227 59.2651C34.0659 59.4494 33.7645 59.7635 33.6754 59.914L33.5418 60.1398L22.2547 79.5018C21.9821 79.9664 21.8825 80.2596 21.8459 80.4232C22.011 80.3868 22.3071 80.2882 22.7762 80.0183L44.8315 67.407L45.0542 67.2876C45.2455 67.1786 45.5757 66.971 45.7644 66.8386L45.809 66.8101L46.2047 66.5739C46.2519 66.5479 46.4117 66.4441 46.5296 66.3663C46.9411 66.0963 47.2031 65.925 47.4128 65.8576C47.5753 65.803 48.0208 65.5902 48.3772 65.3852L48.6943 65.2009L51.8391 63.4023C49.9155 57.4146 52.4418 50.8871 57.9871 47.718C59.8634 46.6461 61.9914 46.0258 64.1429 45.9298L64.8479 45.896H64.8846C65.6341 45.9479 66.7505 46.0907 67.3873 46.2205L68.5508 46.3814C69.206 46.4437 71.3785 46.5734 73.3728 46.6643H76.093C76.5517 46.685 77.9406 46.2023 79.1723 45.3692L80.3752 44.5672C80.9936 44.1545 81.6436 43.747 82.414 43.2902C82.9434 42.9658 83.5199 42.6881 84.1227 42.4675L84.7647 42.2391C84.8276 42.2261 84.9377 42.2001 85.0845 42.1664C87.5085 41.6032 90.9101 40.8998 92.4563 41.2813C92.9464 41.4033 93.4784 41.611 94.0235 41.8861C95.1136 42.1145 96.2117 42.5557 97.239 43.3058C101.183 46.2334 100.006 51.5126 99.954 51.7358C99.5792 53.3449 99.4534 53.8874 98.7511 53.7524C98.0671 53.6227 98.1326 53.0958 98.3737 51.5567L97.1708 46.0621C96.3165 44.9617 94.9118 43.8327 93.6068 43.1345C90.2917 42.5116 86.9975 44.0611 86.9556 44.0792C85.0163 45.0162 83.2631 46.005 82.8176 46.3528L81.5885 47.8634C80.9858 49.3557 80.3647 51.0635 80.2048 51.6709L80.121 52.2185C79.775 54.461 79.7357 55.4343 79.7357 55.4421C79.6807 57.046 79.4475 59.6986 79.0255 60.4227L78.1214 62.0708C77.6052 63.5606 76.9238 65.2969 76.5936 65.964L76.5569 66.0288L76.1953 66.5869C75.0369 68.3829 73.4305 69.8987 71.5541 70.9706C66.0088 74.1396 59.0406 73.0469 54.7663 68.4011C54.5802 68.5075 54.3234 68.658 54.022 68.8527C53.1808 69.4574 53.1939 70.2776 53.283 71.5623C53.359 72.655 53.4481 73.8956 52.5545 74.8897C51.0214 76.5975 48.8096 75.4243 47.3473 74.6483C46.9358 74.4303 46.548 74.2252 46.2335 74.1033C46.0081 74.0176 45.809 73.9631 45.6255 73.9423C45.4368 73.9216 45.2586 73.932 45.0857 73.9813L44.9022 74.0384C44.6166 74.2071 44.2156 74.4381 43.9771 74.573L43.7465 74.7028L25.5698 85.0949C25.1007 85.3649 24.8648 85.5673 24.7521 85.6919C24.9146 85.7438 25.2186 85.8035 25.7611 85.8035H50.7489C50.8091 85.8035 51.066 85.8113 51.4407 85.8243C52.7012 85.8658 55.3219 85.954 56.4173 85.9099C57.4996 85.8658 58.6265 85.8295 59.3157 85.8113C60.668 79.6679 66.1556 75.2634 72.5604 75.2634C75.4641 75.2634 78.2341 76.1589 80.5717 77.8563L81.1614 78.2897C81.6907 78.7673 83.4072 80.2103 85.0085 81.521L87.2491 82.6319C87.6396 82.8187 89.6417 82.9355 91.8745 82.6864C92.1549 82.6552 98.7956 81.9752 102.394 86.9637C104.27 89.5176 104.461 92.8865 102.902 95.975L102.889 96.001C101.663 98.1863 100.536 98.4978 100.323 98.5367C99.8098 98.6328 98.2427 98.9286 97.826 97.9917C97.4093 97.0547 98.6829 96.1074 99.1022 95.7959C99.1468 95.7622 100.329 94.8201 100.525 92.4738C100.748 89.842 98.772 87.8902 97.0136 87.0208C94.5947 85.8217 93.0486 86.2759 92.9857 86.2966C90.9809 86.9585 85.9388 91.337 85.6217 92.9825C85.2469 94.9213 84.217 97.3039 83.0377 97.9268L81.7065 98.7184C81.0513 99.2167 79.9926 99.8993 79.3269 100.252L78.124 100.852C77.4322 101.179 76.2686 101.615 75.5217 101.83L75.4458 101.849L74.7644 101.958C74.0411 102.074 73.3021 102.134 72.5657 102.134L72.5499 102.15ZM59.4913 90.3144H60.3928L60.4898 90.849C61.5275 96.6447 66.5985 100.852 72.5499 100.852C73.2156 100.852 73.8865 100.797 74.539 100.694L75.1811 100.59C75.8624 100.39 76.929 99.9876 77.5344 99.7021L78.7111 99.1181C79.3086 98.8015 80.328 98.1422 80.9229 97.6854L80.9884 97.6413L82.4062 96.8004C82.9329 96.533 83.9156 94.8642 84.3245 92.7567C84.7909 90.3481 90.5275 85.7542 92.5664 85.082C92.6502 85.0534 94.6472 84.4227 97.5901 85.8788C100.386 87.2647 102.048 89.9017 101.82 92.601C101.571 95.5624 99.9461 96.803 99.878 96.8523C99.5818 97.0703 99.3905 97.2468 99.2647 97.3766C99.4429 97.3714 99.6945 97.348 100.046 97.2831C100.124 97.2546 100.848 96.9613 101.728 95.3988C103.057 92.7567 102.905 89.8965 101.322 87.7397C98.1745 83.3768 92.0711 83.9867 92.0108 83.9919C90.0558 84.2099 87.5138 84.2203 86.6595 83.8102L84.2799 82.6319L84.2223 82.5852C82.6158 81.2719 80.8731 79.808 80.2939 79.2889L79.7881 78.9204C77.6785 77.3891 75.1758 76.5793 72.5526 76.5793C66.6011 76.5793 61.5302 80.7865 60.4924 86.5821L60.3981 87.1168H59.8503C59.4258 87.1194 57.9058 87.1661 56.4619 87.2258C55.3193 87.2725 52.6646 87.1817 51.3883 87.1402C51.0371 87.1298 50.7987 87.1194 50.741 87.1194H25.7532C24.359 87.1194 23.5571 86.769 23.3711 86.076C23.185 85.383 23.7013 84.6823 24.9068 83.9919L43.322 73.4648C43.5736 73.322 44.0086 73.0729 44.289 72.9042L44.3571 72.8652L44.7083 72.7562C45.0621 72.6576 45.4132 72.6342 45.7697 72.6732C46.0658 72.7069 46.3672 72.7874 46.6974 72.912C47.0852 73.0599 47.5098 73.2857 47.9579 73.5219C49.5748 74.381 50.7803 74.9182 51.5665 74.0462C52.0933 73.4596 52.0356 72.6291 51.9675 71.6713C51.881 70.4229 51.7709 68.8683 53.2621 67.8093L53.2883 67.7912C53.6735 67.5446 53.9801 67.3681 54.2369 67.2202L55.0415 66.7608L55.3953 67.176C59.2188 71.6817 65.7363 72.8133 70.8885 69.8675C72.6076 68.8838 74.0201 67.5524 75.0815 65.9069L75.4222 65.38C75.7366 64.7311 76.4023 63.0285 76.8871 61.6192L76.9316 61.518L77.8698 59.8076C78.0454 59.4806 78.3389 57.617 78.4149 55.4161C78.4149 55.3746 78.4542 54.3753 78.8133 52.0394L78.9155 51.3958C79.0832 50.7365 79.7357 48.9405 80.3988 47.3054L80.4354 47.2145L81.9109 45.4185C82.3642 45.0292 83.8397 44.2038 85.3072 43.4563C85.2129 43.4771 85.1342 43.4952 85.0792 43.5082L84.5682 43.6951C84.0493 43.8846 83.5488 44.1259 83.0875 44.4088C82.3275 44.8579 81.6986 45.2524 81.1011 45.6521L79.9035 46.4515C78.7766 47.2171 77.047 48.0113 76.0459 47.9724H73.3204C71.3025 47.8763 69.0907 47.7466 68.391 47.6765L67.1357 47.5026C66.5723 47.3858 65.5266 47.2508 64.8296 47.2015L64.2006 47.2301C62.2299 47.3183 60.3587 47.8634 58.6396 48.8444C53.4874 51.7903 51.218 57.9467 53.2463 63.4801L53.4324 63.9914L49.0376 66.5064C48.6812 66.714 48.1335 66.9892 47.8269 67.0904C47.743 67.1267 47.4259 67.337 47.2556 67.4486C47.0616 67.5757 46.9332 67.6588 46.8363 67.7133L46.5034 67.9105C46.2781 68.0689 45.9269 68.2895 45.691 68.4244L45.4709 68.5438L23.4313 81.1473C22.2258 81.8377 21.3532 81.9311 20.8395 81.4224C20.3285 80.9163 20.4202 80.052 21.1173 78.8581L32.5433 59.2625C32.7529 58.907 33.2116 58.4657 33.5391 58.2296L33.7933 58.0297C34.5717 57.4172 35.5623 57.2018 36.5214 56.9967C37.457 56.7969 38.3375 56.6048 38.9612 56.0805C40.4393 54.8347 40.5022 53.9315 40.3292 53.6201C37.8501 50.1785 38.0728 49.7814 38.2379 49.4933L38.5105 49.0106L39.0346 49.2C39.3753 49.322 39.7238 49.431 40.0724 49.5219L41.8073 49.9527C43.8776 49.8229 45.6544 49.6672 46.0134 49.6049L46.3462 49.5167C49.5198 48.6835 52.1693 46.6747 53.8124 43.8586C54.8056 42.156 55.3533 40.3029 55.4424 38.3511L55.4713 37.7282C55.4162 37.0015 55.2668 35.5999 55.1306 34.5695C55.0755 34.1517 55.0205 33.4717 54.9629 32.7527C54.9026 32.0026 54.8135 30.8996 54.7453 30.5466C54.575 30.3727 54.1321 29.9652 53.7049 29.5681C52.9057 28.8284 51.8102 27.8136 50.9664 26.9519C50.7725 26.7547 46.2414 22.0647 48.199 17.219C49.5198 14.0811 52.6279 12.2929 55.943 12.7575L57.932 12.9547C57.1065 12.1865 56.6217 12.0775 56.5431 12.0645C54.554 12.1683 51.5482 13.235 49.9574 14.403C49.9207 14.4289 46.2728 17.1749 46.2728 21.2939C46.2728 22.0232 46.2728 23.0198 45.3399 23.5571C45.0647 23.7206 44.7764 23.8867 44.4908 24.0528L44.1082 24.2734C42.0221 25.3661 41.9095 25.405 41.8623 25.4232C39.9361 26.1006 37.7898 26.9234 37.1216 27.24L36.5922 27.5748C34.9307 28.626 33.5863 30.0249 32.5931 31.7275C29.6187 36.8302 30.7613 43.285 35.3107 47.0718L35.73 47.4221L34.2048 50.0383C34.0344 50.3316 33.1644 51.8733 32.3048 53.4046L32.2891 53.4332L31.364 54.9152L31.1439 55.2941L18.4102 77.1347C17.7131 78.3312 17.0055 78.8425 16.3058 78.6557C15.6061 78.4714 15.2523 77.6772 15.2523 76.2964V54.4662L15.2576 53.8926C15.3414 52.5845 16.0988 51.7799 16.7697 51.0713C17.1418 50.6768 17.4956 50.3031 17.7131 49.8671C18.6172 47.8997 18.0119 47.0873 18.0066 47.0795C17.7393 46.7889 15.2523 44.0403 15.2523 42.9995V41.8342L15.7922 41.7381C21.6441 40.7103 25.8921 35.6882 25.8921 29.7939C25.8921 27.8266 25.4309 25.9501 24.5241 24.2189L24.2333 23.6635C23.8323 23.0691 23.3999 22.4748 23.2086 22.2438C22.8469 22.0102 20.8841 21.2212 18.992 20.9435C18.7142 20.902 12.1495 19.8923 9.99533 15.5969C9.65465 14.9091 9.39259 14.1538 9.21963 13.3544C8.26833 9.94401 9.84334 7.54582 9.91147 7.4472C11.1563 5.59665 13.9237 3.65266 16.1198 3.07907C14.4557 2.79877 12.5111 2.94411 11.0121 4.43908C10.2548 5.2281 9.6861 5.851 9.22225 6.49986C7.1467 9.37301 7.75469 12.9988 7.76255 13.0352C8.10847 15.0025 8.07703 17.6135 7.33277 18.5738L5.77611 20.4581C4.68854 21.6261 3.44898 23.0821 3.03754 23.6713L2.74927 24.2215C1.84253 25.9553 1.3813 27.8318 1.3813 29.7965C1.3813 35.6908 5.62935 40.7129 11.4812 41.7407L12.0211 41.8368V46.6253C12.0211 47.0276 12.0421 47.718 12.0683 48.167C12.0866 48.4863 12.063 49.1377 12.0368 49.8333C12.0289 50.0591 12.0211 50.2382 12.0211 50.3109V51.24V82.2088C12.0211 84.1139 12.5059 85.2091 12.7339 85.396C13.4677 85.4038 14.4242 85.5414 14.8802 85.8035C15.2864 86.0345 15.7712 86.5147 16.0045 86.9169C16.2875 87.4023 16.4159 88.5365 16.4159 89.3852C16.4159 89.6188 17.5559 90.3248 19.634 90.3248H48.1649C48.938 90.3351 49.9181 91.6329 50.3034 92.1909C50.7069 92.7774 53.2621 93.2887 54.0247 92.8008C54.7532 92.3336 58.506 90.3325 59.2555 90.3248H59.4939L59.4913 90.3144ZM100.067 97.2805C100.067 97.2805 100.061 97.2805 100.048 97.2831C100.054 97.2831 100.059 97.2831 100.067 97.2805ZM56.5457 12.0645C56.5614 12.0645 56.5693 12.0645 56.5693 12.0645C56.5614 12.0645 56.5536 12.0645 56.5457 12.0645Z" fill="currentColor"/>
  <path d="M40.9709 79.3901C40.6145 79.3901 40.2816 79.3563 39.9777 79.3252C39.9226 79.32 39.8676 79.3148 39.8152 79.3096L39.7942 79.3148L39.6894 79.3096C39.5269 79.3018 39.3723 79.2966 39.2308 79.2785H39.1888V79.2733C38.7957 79.2188 38.5153 79.0786 38.5206 78.6244L38.5258 77.9989L39.3566 77.9782C39.4692 77.9782 39.5819 77.9859 39.692 77.9937L40.8556 77.6823C41.0102 77.6693 41.1727 77.6485 41.3142 77.6278L41.3614 77.4954C41.5422 76.9893 42.4384 76.8751 42.5406 76.8621C42.7188 76.8414 42.8551 76.8258 42.9232 76.818C42.9495 76.8128 42.9678 76.8102 42.9835 76.8102L43.6282 76.7505L43.657 76.9659C43.7147 76.9478 43.775 76.927 43.8326 76.9088C44.2624 76.7635 44.7027 76.5325 44.8756 76.4391C44.8232 76.2496 44.8258 75.9433 45.2137 75.676L45.3002 75.6111C45.5072 75.458 45.5884 75.3957 45.6146 75.3723C46.1283 74.8896 46.5109 75.0427 46.697 75.1777C46.7703 75.2322 46.8857 75.3386 46.9407 75.5125C47.7845 75.1855 48.61 74.861 48.61 74.861C49.1473 74.6482 49.5142 74.7313 49.6976 75.1076C49.881 75.4839 49.7212 75.8213 49.2206 76.1068C49.1709 76.1354 47.9654 76.8258 47.0586 77.293L46.9066 77.3708C46.8044 77.4227 46.4978 77.633 46.2357 77.851C46.2095 77.8743 45.5675 78.4038 44.9018 78.7204C44.7367 78.7983 44.569 78.8684 44.4039 78.9281C43.5286 79.2966 42.6533 79.3485 41.8304 79.3667C41.7073 79.3693 41.5841 79.3719 41.4609 79.3745H41.3614C41.2303 79.3849 41.0993 79.3901 40.9735 79.3901H40.9709ZM45.6671 75.65C45.654 75.7331 45.6592 75.8603 45.7195 75.99C45.7981 75.9537 45.8688 75.9226 45.9291 75.8992L46.013 75.8681C45.9894 75.8395 45.9658 75.8136 45.9396 75.7902L45.6644 75.6526L45.6671 75.65Z" fill="currentColor"/>
  <path d="M30.6587 67.8229C30.4647 67.8229 30.3075 67.7295 30.1712 67.4907L29.8594 66.9457L30.6063 66.4967C30.732 66.4266 30.8578 66.3643 30.9836 66.3046L32.0188 65.269C32.2075 65.1392 32.3962 64.9939 32.5455 64.8693L32.4984 64.615C32.3909 64.0466 33.2636 63.4003 33.3003 63.3718C33.4759 63.242 33.6147 63.1408 33.6803 63.0914C33.7039 63.0733 33.7222 63.0577 33.7353 63.0473L34.2647 62.6762L34.4481 62.9124C34.5372 62.8189 34.6289 62.7177 34.7207 62.6139C35.2002 62.0714 35.6012 61.3759 35.6064 61.3681C35.6064 61.3655 35.6117 61.3603 35.6117 61.3577C35.4597 61.2487 35.1924 60.9684 35.444 60.4363L35.4964 60.3117C35.6353 59.9899 35.6798 59.8783 35.6877 59.8523C35.8921 59.1645 36.2747 59.0581 36.5577 59.0919C36.6992 59.1074 36.901 59.1697 37.0452 59.3826C37.7685 58.4871 38.5127 57.5528 38.5232 57.5424C38.6804 57.3451 39.0997 56.8183 39.6317 57.1764C40.1637 57.5346 39.8257 58.1134 39.6999 58.3314C39.6632 58.3937 38.8141 59.8497 38.1432 60.8957L38.0305 61.0696C37.9493 61.1942 37.7501 61.6069 37.6007 62.0143C37.585 62.0533 37.2417 62.9876 36.7412 63.7118C36.618 63.8908 36.4843 64.0647 36.3481 64.2257C35.6641 65.1289 34.7783 65.7051 33.9292 66.219C33.7956 66.2994 33.6619 66.3799 33.5256 66.4603L33.4365 66.5148C32.9334 66.8548 32.4171 67.0858 31.9611 67.2883C31.8904 67.3194 31.8196 67.3506 31.7515 67.3817L31.7305 67.4051L31.6362 67.4544C31.4449 67.553 31.2719 67.6412 31.1173 67.7061L31.078 67.7295V67.7243C30.9181 67.7892 30.7792 67.8281 30.6534 67.8281L30.6587 67.8229ZM36.0205 60.182C36.0781 60.2468 36.1594 60.3091 36.2668 60.3481C36.2878 60.3195 36.3061 60.2936 36.3271 60.2728C36.3192 60.2676 36.3114 60.2624 36.3009 60.2598C36.2092 60.2105 36.1148 60.1872 36.0205 60.1846V60.182Z" fill="currentColor"/>
  <path d="M17.6682 62.1189C17.5634 62.1189 17.4481 62.0826 17.3171 62.0073L16.772 61.6881L17.1913 60.9302C17.2647 60.8082 17.3407 60.6914 17.4219 60.5746L17.7966 59.1653C17.8936 58.9603 17.9853 58.7422 18.0535 58.558L17.8831 58.3607C17.5031 57.9221 17.9329 56.9306 17.9513 56.8891C18.0377 56.6918 18.1059 56.5361 18.1373 56.4583C18.1478 56.4297 18.1557 56.4063 18.1635 56.3908L18.4335 55.8068L18.7112 55.921C18.7401 55.7964 18.7689 55.6615 18.7977 55.5265C18.9392 54.8205 18.934 54.0159 18.934 54.0082C18.934 54.003 18.934 54.0004 18.934 53.9952C18.7479 53.977 18.3732 53.8654 18.3234 53.2788L18.3077 53.1439C18.2657 52.7961 18.2474 52.6767 18.2422 52.6533C18.0718 51.9552 18.3496 51.6749 18.6117 51.5633C18.7427 51.5062 18.9497 51.462 19.1803 51.5736C19.3559 50.4394 19.5289 49.2637 19.5315 49.2481C19.5682 48.999 19.6625 48.3345 20.3072 48.3812C20.9466 48.428 20.9493 49.0976 20.9493 49.3493C20.9493 49.4194 20.9493 51.1039 20.8969 52.3393L20.889 52.5443C20.8811 52.6923 20.9178 53.1491 20.9938 53.5747C21.0017 53.6162 21.1746 54.5973 21.1065 55.472C21.0908 55.6874 21.062 55.9028 21.0279 56.1131C20.8916 57.2343 20.4147 58.1738 19.9377 59.0381C19.8591 59.1783 19.7805 59.3184 19.7018 59.4586L19.6573 59.5364C19.3952 60.0815 19.0624 60.5357 18.7715 60.9354C18.727 60.9977 18.6824 61.06 18.6379 61.1197L18.63 61.1508L18.5724 61.2391C18.4544 61.4207 18.3522 61.5817 18.25 61.714L18.229 61.7529H18.2238C18.0482 61.9762 17.8805 62.1137 17.6735 62.1137L17.6682 62.1189ZM18.6929 52.7805C18.7768 52.8091 18.879 52.822 18.989 52.8039C18.9943 52.7701 18.9969 52.7364 19.0021 52.7078C18.9943 52.7078 18.9838 52.7078 18.9733 52.7078C18.8685 52.7104 18.7741 52.739 18.6929 52.7805Z" fill="currentColor"/>
</svg>