<svg xmlns="http://www.w3.org/2000/svg" width="310" height="60" viewBox="0 0 310 60" fill="none">
  <path d="M270.017 59.5571H218.671C216.915 59.5571 215.487 58.5054 215.487 57.2128C215.487 55.9202 216.915 54.8685 218.671 54.8685H220.403C220.418 54.8685 220.431 54.8685 220.443 54.8685C220.216 54.5505 219.662 54.0369 219.368 53.7641C219.286 53.6888 219.207 53.6154 219.133 53.5458C218.361 52.8196 216.556 52.2062 215.193 52.2062H202.102C201.052 52.2062 198.621 53.5477 197.314 54.2702C196.921 54.4866 196.583 54.6747 196.348 54.7914C196.319 54.8064 196.293 54.8196 196.266 54.8328C196.415 54.8534 196.617 54.8685 196.892 54.8685H198.625C200.38 54.8685 201.808 55.9202 201.808 57.2128C201.808 58.5054 200.38 59.5571 198.625 59.5571H147.278C145.522 59.5571 144.094 58.5054 144.094 57.2128C144.094 55.9202 145.522 54.8685 147.278 54.8685H149.01C149.025 54.8685 149.039 54.8685 149.05 54.8685C148.823 54.5505 148.269 54.0369 147.975 53.7641C147.893 53.6888 147.814 53.6154 147.74 53.5458C146.968 52.8196 145.163 52.2062 143.8 52.2062H130.564C129.514 52.2062 127.083 53.5477 125.776 54.2702C125.383 54.4866 125.045 54.6747 124.81 54.7914C124.781 54.8064 124.755 54.8196 124.728 54.8328C124.877 54.8534 125.079 54.8685 125.354 54.8685H127.087C128.842 54.8685 130.27 55.9202 130.27 57.2128C130.27 58.5054 128.842 59.5571 127.087 59.5571H75.7396C73.9845 59.5571 72.5559 58.5054 72.5559 57.2128C72.5559 55.9202 73.9845 54.8685 75.7396 54.8685H77.4719C77.4872 54.8685 77.5005 54.8685 77.512 54.8685C77.2847 54.5505 76.7308 54.0369 76.4367 53.7641C76.3546 53.6888 76.2763 53.6154 76.2018 53.5458C75.4302 52.8196 73.6254 52.2062 72.2617 52.2062H59.0244C57.974 52.2062 55.5427 53.5477 54.2364 54.2702C53.8429 54.4866 53.5049 54.6747 53.27 54.7914C53.2413 54.8064 53.2146 54.8196 53.1879 54.8328C53.3368 54.8534 53.5393 54.8685 53.8143 54.8685H55.5466C57.3017 54.8685 58.7303 55.9202 58.7303 57.2128C58.7303 58.5054 57.3017 59.5571 55.5466 59.5571H4.21304C2.45786 59.5571 1.02928 58.5054 1.02928 57.2128C1.02928 55.9202 2.45786 54.8685 4.21304 54.8685H5.94529C6.44949 54.8685 6.6825 54.7763 6.75316 54.7274C6.72643 54.6465 6.59274 54.4358 6.18593 54.1441C5.96057 53.9823 0.683594 50.1178 0.683594 45.1921C0.683594 39.051 5.7543 34.0557 11.9881 34.0557C14.7804 34.0557 16.8736 35.273 16.9614 35.3238C17.4484 35.6117 17.9565 35.6756 18.3938 35.5044C18.8312 35.3332 19.1559 34.9419 19.3106 34.4038L19.3373 34.3304L20.5558 31.7697L20.5864 31.7302C21.3618 30.7312 21.3942 29.0228 20.6551 27.9974C20.5768 27.8901 18.751 25.3201 18.751 22.1573C18.751 17.2316 24.0279 13.3671 24.2533 13.2053C24.6601 12.9118 24.7938 12.701 24.8205 12.622C24.7518 12.5731 24.5169 12.4809 24.0127 12.4809H22.2804C20.5252 12.4809 19.0967 11.4292 19.0967 10.1366C19.0967 8.84404 20.5252 7.7923 22.2804 7.7923H36.5051C37.5556 7.7923 39.9868 6.44893 41.2951 5.72833C41.6866 5.51196 42.0266 5.32381 42.2615 5.20716C42.2901 5.19211 42.3169 5.17894 42.3436 5.16577C42.1946 5.14508 41.9922 5.13002 41.7172 5.13002H39.9849C38.2297 5.13002 36.8012 4.07828 36.8012 2.78571C36.8012 1.49315 38.2297 0.441406 39.9849 0.441406H91.3318C93.087 0.441406 94.5156 1.49315 94.5156 2.78571C94.5156 4.07828 93.087 5.13002 91.3318 5.13002H89.5996C89.5843 5.13002 89.5709 5.13002 89.5594 5.13002C89.7867 5.44799 90.3406 5.96163 90.6347 6.23444C90.7168 6.3097 90.7951 6.38308 90.8696 6.45269C91.6412 7.17894 93.446 7.7923 94.8097 7.7923H107.9C108.95 7.7923 111.384 6.44893 112.69 5.72833C113.081 5.51196 113.421 5.32381 113.656 5.20716C113.685 5.19211 113.712 5.17894 113.738 5.16577C113.589 5.14508 113.387 5.13002 113.112 5.13002H111.38C109.625 5.13002 108.196 4.07828 108.196 2.78571C108.196 1.49315 109.625 0.441406 111.38 0.441406H162.727C164.482 0.441406 165.91 1.49315 165.91 2.78571C165.91 4.07828 164.482 5.13002 162.727 5.13002H160.994C160.979 5.13002 160.966 5.13002 160.954 5.13002C161.182 5.44799 161.735 5.96163 162.029 6.23444C162.112 6.3097 162.19 6.38308 162.264 6.45269C163.036 7.17894 164.841 7.7923 166.204 7.7923H179.44C180.49 7.7923 182.922 6.44893 184.23 5.72833C184.621 5.51196 184.961 5.32381 185.196 5.20716C185.225 5.19211 185.252 5.17894 185.278 5.16577C185.129 5.14508 184.927 5.13002 184.652 5.13002H182.92C181.165 5.13002 179.736 4.07828 179.736 2.78571C179.736 1.49315 181.165 0.441406 182.92 0.441406H234.267C236.022 0.441406 237.45 1.49315 237.45 2.78571C237.45 4.07828 236.022 5.13002 234.267 5.13002H232.534C232.519 5.13002 232.506 5.13002 232.494 5.13002C232.721 5.44799 233.275 5.96163 233.569 6.23444C233.652 6.3097 233.73 6.38308 233.804 6.45269C234.576 7.17894 236.381 7.7923 237.744 7.7923H250.982C252.032 7.7923 254.465 6.44893 255.772 5.72833C256.163 5.51196 256.503 5.32381 256.738 5.20716C256.767 5.19211 256.793 5.17894 256.82 5.16577C256.671 5.14508 256.469 5.13002 256.194 5.13002H254.462C252.706 5.13002 251.278 4.07828 251.278 2.78571C251.278 1.49315 252.706 0.441406 254.462 0.441406H305.808C307.564 0.441406 308.992 1.49315 308.992 2.78571C308.992 4.07828 307.564 5.13002 305.808 5.13002H304.076C303.572 5.13002 303.339 5.22222 303.268 5.27113C303.295 5.35204 303.429 5.56276 303.836 5.85439C304.061 6.01619 309.338 9.88073 309.338 14.8064C309.338 20.9475 304.267 25.9428 298.033 25.9428C295.241 25.9428 293.148 24.7255 293.06 24.6747C292.573 24.3868 292.065 24.3229 291.628 24.4941C291.19 24.6653 290.866 25.0566 290.711 25.5947L290.684 25.6681L289.466 28.2288L289.435 28.2683C288.66 29.2674 288.627 30.9757 289.366 32.0011C289.445 32.1084 291.27 34.6785 291.27 37.8412C291.27 42.7669 285.993 46.6314 285.768 46.7932C285.361 47.0867 285.228 47.2975 285.201 47.3784C285.27 47.4273 285.505 47.5195 286.009 47.5195H287.741C289.496 47.5195 290.925 48.5712 290.925 49.8638C290.925 51.1564 289.496 52.2081 287.741 52.2081H273.516C272.466 52.2081 270.035 53.5496 268.728 54.2721C268.335 54.4884 267.997 54.6766 267.762 54.7932C267.733 54.8083 267.706 54.8215 267.68 54.8346C267.829 54.8553 268.031 54.8704 268.306 54.8704H270.038C271.794 54.8704 273.222 55.9221 273.222 57.2147C273.222 58.5073 271.794 59.559 270.038 59.559L270.017 59.5571ZM218.671 55.8092C217.462 55.8092 216.442 56.4527 216.442 57.2128C216.442 57.9729 217.464 58.6164 218.671 58.6164H270.017C271.226 58.6164 272.246 57.9729 272.246 57.2128C272.246 56.4527 271.224 55.8092 270.017 55.8092H268.285C267.569 55.8092 266.599 55.734 266.442 55.0849C266.341 54.6691 266.633 54.2871 267.309 53.9503C267.525 53.8431 267.855 53.6606 268.239 53.448C270.241 52.3436 272.296 51.2636 273.495 51.2636H287.72C288.929 51.2636 289.949 50.6201 289.949 49.86C289.949 49.0999 288.927 48.4565 287.72 48.4565H285.988C284.779 48.4565 284.383 48.0294 284.263 47.67C284.145 47.3106 284.206 46.7349 285.182 46.0312C285.233 45.9936 290.293 42.2834 290.293 37.8393C290.293 34.9833 288.581 32.5675 288.564 32.543C287.598 31.2034 287.626 29.0585 288.621 27.7359L289.783 25.2994C290.023 24.4922 290.545 23.8958 291.253 23.6192C291.973 23.337 292.781 23.4254 293.53 23.8676C293.549 23.8788 295.493 25.0021 298.012 25.0021C303.719 25.0021 308.362 20.4282 308.362 14.8064C308.362 10.3605 303.301 6.65025 303.251 6.61262C302.275 5.90895 302.214 5.33322 302.332 4.97386C302.451 4.6145 302.848 4.18741 304.057 4.18741H305.789C306.998 4.18741 308.018 3.54395 308.018 2.78383C308.018 2.02372 306.996 1.38026 305.789 1.38026H254.442C253.233 1.38026 252.214 2.02372 252.214 2.78383C252.214 3.54395 253.235 4.18741 254.442 4.18741H256.175C256.891 4.18741 257.861 4.26267 258.018 4.91177C258.119 5.32758 257.827 5.70951 257.151 6.0463C256.935 6.15354 256.604 6.33604 256.221 6.54677C254.219 7.65119 252.164 8.73115 250.965 8.73115H237.727C236.102 8.73115 234.081 8.02936 233.128 7.1319C233.056 7.06417 232.979 6.99268 232.899 6.91742C231.879 5.97292 231.23 5.30688 231.476 4.6954C231.612 4.35862 231.963 4.18741 232.519 4.18741H234.251C235.46 4.18741 236.48 3.54395 236.48 2.78383C236.48 2.02372 235.458 1.38026 234.251 1.38026H182.904C181.695 1.38026 180.676 2.02372 180.676 2.78383C180.676 3.54395 181.697 4.18741 182.904 4.18741H184.637C185.353 4.18741 186.323 4.26267 186.48 4.91177C186.581 5.32758 186.289 5.70951 185.613 6.0463C185.397 6.15354 185.066 6.33604 184.682 6.54677C182.681 7.65119 180.626 8.73115 179.427 8.73115H166.191C164.566 8.73115 162.545 8.02936 161.592 7.1319C161.52 7.06417 161.443 6.99268 161.363 6.91742C160.343 5.97292 159.694 5.30688 159.94 4.6954C160.076 4.35862 160.427 4.18741 160.983 4.18741H162.715C163.924 4.18741 164.944 3.54395 164.944 2.78383C164.944 2.02372 163.922 1.38026 162.715 1.38026H111.368C110.159 1.38026 109.139 2.02372 109.139 2.78383C109.139 3.54395 110.161 4.18741 111.368 4.18741H113.101C113.817 4.18741 114.787 4.26267 114.944 4.91177C115.045 5.32758 114.753 5.70951 114.076 6.0463C113.861 6.15354 113.53 6.33604 113.146 6.54677C111.145 7.65119 109.09 8.73115 107.89 8.73115H94.8001C93.1748 8.73115 91.1542 8.02936 90.2012 7.1319C90.1286 7.06417 90.0522 6.99268 89.972 6.91742C88.9521 5.97292 88.3027 5.30688 88.5491 4.6954C88.6847 4.35862 89.0361 4.18741 89.5919 4.18741H91.3242C92.5331 4.18741 93.553 3.54395 93.553 2.78383C93.553 2.02372 92.5312 1.38026 91.3242 1.38026H39.983C38.7741 1.38026 37.7542 2.02372 37.7542 2.78383C37.7542 3.54395 38.776 4.18741 39.983 4.18741H41.7153C42.4315 4.18741 43.4017 4.26267 43.5583 4.91177C43.6595 5.32758 43.3673 5.70951 42.6912 6.0463C42.4754 6.15354 42.145 6.33604 41.7611 6.54677C39.7596 7.65119 37.7045 8.73115 36.5051 8.73115H22.2804C21.0715 8.73115 20.0516 9.37461 20.0516 10.1347C20.0516 10.8948 21.0734 11.5383 22.2804 11.5383H24.0127C25.2216 11.5383 25.617 11.9654 25.7373 12.3248C25.8557 12.6841 25.7946 13.2598 24.8186 13.9635C24.7671 14.0011 19.7078 17.7114 19.7078 22.1554C19.7078 25.0209 21.4191 27.4273 21.4363 27.4499C22.4026 28.7895 22.374 30.9344 21.379 32.257L20.2178 34.6935C19.9771 35.5007 19.4557 36.0971 18.7452 36.3756C18.0252 36.6578 17.2173 36.5693 16.4687 36.1272C16.4496 36.1159 14.5053 34.9927 11.9862 34.9927C6.27952 34.9927 1.63662 39.5665 1.63662 45.1884C1.63662 49.6343 6.69778 53.3445 6.74743 53.3821C7.72338 54.0858 7.78449 54.6615 7.66608 55.0209C7.54767 55.3803 7.15042 55.8074 5.94147 55.8074H4.20922C3.00027 55.8074 1.9804 56.4508 1.9804 57.2109C1.9804 57.971 3.00218 58.6145 4.20922 58.6145H55.5561C56.765 58.6145 57.7849 57.971 57.7849 57.2109C57.7849 56.4508 56.7631 55.8074 55.5561 55.8074H53.8239C53.1077 55.8074 52.1374 55.7321 51.9808 55.083C51.8796 54.6672 52.1718 54.2852 52.8479 53.9485C53.0637 53.8412 53.3941 53.6587 53.778 53.4461C55.7796 52.3417 57.8346 51.2617 59.034 51.2617H72.2713C73.8966 51.2617 75.9172 51.9635 76.8703 52.861C76.9428 52.9287 77.0192 53.0002 77.0994 53.0755C78.1193 54.02 78.7687 54.686 78.5223 55.2975C78.3867 55.6343 78.0353 55.8055 77.4795 55.8055H75.7473C74.5383 55.8055 73.5184 56.4489 73.5184 57.209C73.5184 57.9692 74.5402 58.6126 75.7473 58.6126H127.094C128.303 58.6126 129.323 57.9692 129.323 57.209C129.323 56.4489 128.301 55.8055 127.094 55.8055H125.362C124.646 55.8055 123.675 55.7302 123.519 55.0811C123.418 54.6653 123.71 54.2834 124.386 53.9466C124.602 53.8393 124.932 53.6568 125.316 53.4442C127.318 52.3398 129.373 51.2598 130.572 51.2598H143.807C145.433 51.2598 147.453 51.9616 148.406 52.8591C148.479 52.9268 148.555 52.9983 148.636 53.0736C149.655 54.0181 150.305 54.6841 150.058 55.2956C149.923 55.6324 149.571 55.8036 149.016 55.8036H147.283C146.074 55.8036 145.055 56.447 145.055 57.2072C145.055 57.9673 146.076 58.6107 147.283 58.6107H198.63C199.839 58.6107 200.859 57.9673 200.859 57.2072C200.859 56.447 199.837 55.8036 198.63 55.8036H196.898C196.182 55.8036 195.212 55.7283 195.055 55.0792C194.954 54.6634 195.246 54.2815 195.922 53.9447C196.138 53.8375 196.468 53.655 196.852 53.4423C198.854 52.3379 200.909 51.258 202.108 51.258H215.198C216.824 51.258 218.844 51.9598 219.797 52.8572C219.87 52.9249 219.946 52.9964 220.027 53.0717C221.046 54.0162 221.696 54.6822 221.449 55.2937C221.314 55.6305 220.962 55.8017 220.407 55.8017H218.674L218.671 55.8092ZM256.196 55.8111H232.492C231.776 55.8111 230.806 55.7359 230.649 55.0868C230.548 54.6709 230.84 54.289 231.516 53.9522C231.732 53.845 232.063 53.6625 232.446 53.4499C234.448 52.3455 236.503 51.2655 237.702 51.2655H250.987C252.613 51.2655 254.633 51.9673 255.586 52.8647C255.659 52.9325 255.735 53.004 255.816 53.0792C256.836 54.0237 257.485 54.6898 257.238 55.3012C257.103 55.638 256.751 55.8092 256.196 55.8092V55.8111ZM231.866 54.8346C232.015 54.8553 232.217 54.8704 232.492 54.8704H256.196C256.211 54.8704 256.224 54.8704 256.236 54.8704C256.009 54.5524 255.455 54.0388 255.161 53.766C255.078 53.6907 255 53.6173 254.926 53.5477C254.154 52.8215 252.349 52.2081 250.986 52.2081H237.701C236.65 52.2081 234.219 53.5496 232.912 54.2721C232.519 54.4884 232.181 54.6766 231.946 54.7932C231.917 54.8083 231.891 54.8215 231.864 54.8346H231.866ZM184.809 55.8111H161.105C160.389 55.8111 159.419 55.7359 159.262 55.0868C159.161 54.6709 159.453 54.289 160.129 53.9522C160.345 53.845 160.675 53.6625 161.059 53.4499C163.061 52.3455 165.116 51.2655 166.315 51.2655H179.6C181.226 51.2655 183.246 51.9673 184.199 52.8647C184.272 52.9325 184.35 53.004 184.43 53.0792C185.45 54.0237 186.1 54.6879 185.853 55.3012C185.718 55.638 185.366 55.8092 184.81 55.8092L184.809 55.8111ZM160.479 54.8346C160.628 54.8553 160.83 54.8704 161.105 54.8704H184.809C184.824 54.8704 184.837 54.8704 184.849 54.8704C184.621 54.5524 184.068 54.0388 183.773 53.766C183.691 53.6907 183.611 53.6154 183.538 53.5458C182.767 52.8196 180.962 52.2062 179.598 52.2062H166.313C165.263 52.2062 162.832 53.5477 161.525 54.2702C161.132 54.4866 160.794 54.6747 160.559 54.7914C160.53 54.8064 160.504 54.8196 160.477 54.8328L160.479 54.8346ZM113.274 55.8111H89.5709C88.8547 55.8111 87.8845 55.7359 87.7279 55.0868C87.6267 54.6709 87.9189 54.289 88.595 53.9522C88.8108 53.845 89.1412 53.6625 89.5251 53.4499C91.5266 52.3455 93.5816 51.2655 94.781 51.2655H108.066C109.691 51.2655 111.712 51.9673 112.665 52.8647C112.738 52.9325 112.816 53.004 112.896 53.0792C113.916 54.0237 114.565 54.6879 114.319 55.3012C114.183 55.638 113.832 55.8092 113.276 55.8092L113.274 55.8111ZM88.9445 54.8346C89.0934 54.8553 89.2959 54.8704 89.5709 54.8704H113.274C113.29 54.8704 113.303 54.8704 113.314 54.8704C113.087 54.5524 112.533 54.0388 112.239 53.766C112.157 53.6907 112.077 53.6173 112.004 53.5458C111.233 52.8196 109.428 52.2062 108.064 52.2062H94.7791C93.7287 52.2062 91.2974 53.5477 89.9911 54.2702C89.5976 54.4866 89.2596 54.6747 89.0247 54.7914C88.996 54.8064 88.9693 54.8196 88.9426 54.8328L88.9445 54.8346ZM41.7401 55.8111H18.0367C17.3205 55.8111 16.3503 55.7359 16.1937 55.0868C16.0924 54.6709 16.3846 54.289 17.0607 53.9522C17.2766 53.845 17.607 53.6625 17.9908 53.4499C19.9924 52.3455 22.0474 51.2655 23.2468 51.2655H36.5319C38.1572 51.2655 40.1778 51.9673 41.1308 52.8647C41.2034 52.9325 41.2798 53.004 41.36 53.0792C42.3799 54.0237 43.0293 54.6898 42.7829 55.3012C42.6473 55.638 42.2959 55.8092 41.7401 55.8092V55.8111ZM17.4102 54.8346C17.5592 54.8553 17.7617 54.8704 18.0367 54.8704H41.7401C41.7554 54.8704 41.7687 54.8704 41.7802 54.8704C41.5529 54.5524 40.9991 54.0388 40.7049 53.766C40.6228 53.6907 40.5445 53.6173 40.47 53.5477C39.6984 52.8215 37.8936 52.2081 36.53 52.2081H23.2449C22.1945 52.2081 19.7632 53.5496 18.4569 54.2721C18.0634 54.4884 17.7254 54.6766 17.4905 54.7932C17.4618 54.8083 17.4351 54.8215 17.4083 54.8346H17.4102ZM274.649 48.4621C274.265 48.4621 272.98 48.4188 272.519 47.8525C272.376 47.6756 272.323 47.463 272.368 47.2542C272.456 46.8629 272.831 46.4583 273.258 46.2909C273.656 46.1366 274.07 46.1836 274.427 46.4245C275.378 47.0642 275.726 47.527 275.587 47.9692C275.483 48.2965 275.168 48.4621 274.647 48.4621H274.649ZM273.385 47.3295C273.555 47.401 273.875 47.4819 274.315 47.5101C274.204 47.4217 274.064 47.3182 273.889 47.1996C273.795 47.1375 273.715 47.1263 273.618 47.1601C273.522 47.194 273.44 47.2636 273.383 47.3295H273.385ZM249.643 48.4621C249.104 48.4621 248.776 48.2928 248.665 47.9598C248.51 47.4931 248.862 47.0153 249.918 46.2514C250.539 45.8036 251.129 45.6493 251.536 45.8262C251.792 45.9372 251.958 46.1667 251.988 46.4546C252.026 46.8008 251.835 47.241 251.476 47.6343C250.997 48.1592 250.329 48.4621 249.643 48.4621ZM250.961 46.7424C250.842 46.7857 250.68 46.8666 250.481 47.0115C250.191 47.2203 249.994 47.384 249.859 47.5063C250.434 47.4216 250.808 47.0115 250.961 46.7424ZM238.858 48.4621C238.474 48.4621 237.189 48.4188 236.728 47.8525C236.585 47.6756 236.532 47.463 236.577 47.2542C236.6 47.1488 236.679 46.9532 236.933 46.8271C237.523 46.5317 239.078 46.7349 239.742 47.019C240.243 47.2335 240.46 47.5157 240.388 47.8563C240.275 48.3906 239.551 48.4621 238.858 48.4621ZM214.022 48.4621C213.323 48.4621 212.595 48.3906 212.481 47.8525C212.408 47.5101 212.628 47.226 213.132 47.0077C213.239 46.9626 213.367 46.9042 213.508 46.8403C214.988 46.1761 215.546 45.9917 215.93 46.2025C216.09 46.2909 216.195 46.4452 216.218 46.6258C216.256 46.9325 216.094 47.3219 215.783 47.6681C215.33 48.1724 214.688 48.4621 214.022 48.4621ZM203.334 48.4621C202.941 48.4621 201.621 48.4169 201.144 47.8299C200.995 47.6493 200.941 47.4311 200.989 47.2166C201.067 46.861 201.411 46.4019 201.911 46.21C202.312 46.0557 202.735 46.1084 203.096 46.3586C204.089 47.0472 204.434 47.512 204.289 47.9635C204.184 48.2928 203.863 48.4602 203.336 48.4602L203.334 48.4621ZM201.986 47.3012C202.152 47.3803 202.505 47.4856 203.054 47.5138C202.929 47.4085 202.763 47.2787 202.546 47.1281C202.446 47.0604 202.36 47.0472 202.259 47.0849C202.144 47.1281 202.047 47.2203 201.986 47.3012ZM178.326 48.4621C177.795 48.4621 177.471 48.2947 177.364 47.9635C177.215 47.5082 177.568 47.0303 178.58 46.3172C179.188 45.8901 179.765 45.7434 180.164 45.9184C180.414 46.0275 180.576 46.2514 180.609 46.5298C180.647 46.8591 180.467 47.2787 180.129 47.6512C179.661 48.1667 179.004 48.464 178.326 48.464V48.4621ZM179.553 46.8478C179.444 46.8911 179.304 46.9645 179.136 47.083C178.905 47.2448 178.729 47.384 178.6 47.4969C179.069 47.4028 179.394 47.0849 179.553 46.8497V46.8478ZM167.543 48.4621C167.15 48.4621 165.83 48.4169 165.353 47.8299C165.204 47.6493 165.148 47.4311 165.198 47.2166C165.223 47.1093 165.301 46.9099 165.561 46.7801C166.168 46.4772 167.767 46.6935 168.45 46.9889C168.962 47.2109 169.186 47.5007 169.111 47.8469C168.995 48.3906 168.256 48.4621 167.545 48.4621H167.543ZM142.56 48.4621C141.846 48.4621 141.099 48.3887 140.983 47.8431C140.908 47.495 141.132 47.2053 141.649 46.9795C141.768 46.9268 141.913 46.861 142.073 46.7876C143.574 46.1009 144.14 45.9071 144.529 46.1216C144.694 46.2119 144.801 46.3699 144.822 46.5543C144.86 46.8779 144.684 47.2881 144.354 47.655C143.89 48.1686 143.236 48.4621 142.56 48.4621ZM143.441 47.2147C143.213 47.3088 142.971 47.4141 142.768 47.5063C143.042 47.4668 143.267 47.3502 143.441 47.2147ZM131.8 48.4621C131.407 48.4621 130.087 48.4169 129.609 47.8299C129.46 47.6493 129.407 47.4311 129.455 47.2166C129.533 46.861 129.877 46.4019 130.377 46.21C130.78 46.0557 131.2 46.1084 131.561 46.3586C132.554 47.0454 132.9 47.512 132.755 47.9635C132.65 48.2928 132.329 48.4602 131.802 48.4602L131.8 48.4621ZM130.452 47.3012C130.618 47.3803 130.971 47.4856 131.519 47.5138C131.395 47.4085 131.229 47.2787 131.011 47.1281C130.912 47.0604 130.828 47.0472 130.725 47.0849C130.61 47.1281 130.513 47.2203 130.452 47.3012ZM106.792 48.4621C106.261 48.4621 105.937 48.2947 105.83 47.9635C105.681 47.5082 106.034 47.0303 107.046 46.3172C107.654 45.8901 108.23 45.7453 108.63 45.9184C108.88 46.0275 109.042 46.2514 109.075 46.5298C109.113 46.8591 108.933 47.2787 108.595 47.6512C108.127 48.1667 107.47 48.464 106.792 48.464V48.4621ZM108.018 46.8478C107.909 46.8911 107.77 46.9645 107.602 47.083C107.371 47.2448 107.195 47.384 107.065 47.4969C107.535 47.4028 107.86 47.0849 108.018 46.8497V46.8478ZM96.0091 48.4621C95.6156 48.4621 94.2959 48.4169 93.8185 47.8299C93.6695 47.6493 93.616 47.4311 93.6638 47.2166C93.6886 47.1093 93.7669 46.9099 94.0266 46.7801C94.634 46.4772 96.2325 46.6935 96.9163 46.9889C97.4281 47.2109 97.6516 47.5007 97.5771 47.8469C97.4606 48.3906 96.7196 48.4621 96.011 48.4621H96.0091ZM71.0261 48.4621C70.3118 48.4621 69.565 48.3887 69.4485 47.8431C69.374 47.495 69.5975 47.2053 70.1131 46.9795C70.2316 46.9268 70.3786 46.861 70.539 46.7876C72.0402 46.1009 72.6055 45.909 72.9951 46.1216C73.1594 46.2119 73.2663 46.3699 73.2873 46.5543C73.3255 46.8779 73.1498 47.2881 72.8194 47.655C72.3553 48.1686 71.7021 48.4621 71.0261 48.4621ZM71.9065 47.2147C71.6792 47.3088 71.4367 47.4141 71.2342 47.5063C71.5073 47.4668 71.7327 47.3502 71.9065 47.2147ZM60.2658 48.4621C59.8724 48.4621 58.5527 48.4169 58.0752 47.8299C57.9263 47.6493 57.8728 47.4311 57.9205 47.2166C57.9988 46.861 58.3426 46.4019 58.843 46.21C59.2441 46.0557 59.6661 46.1084 60.0271 46.3586C61.0202 47.0472 61.3659 47.512 61.2208 47.9635C61.1157 48.2928 60.7949 48.4602 60.2678 48.4602L60.2658 48.4621ZM58.9175 47.3012C59.0836 47.3803 59.437 47.4856 59.9851 47.5138C59.861 47.4085 59.6948 47.2787 59.4771 47.1281C59.3778 47.0604 59.2918 47.0472 59.1906 47.0849C59.076 47.1281 58.9786 47.2203 58.9175 47.3012ZM35.258 48.4621C34.727 48.4621 34.4024 48.2947 34.2954 47.9635C34.1464 47.5082 34.4998 47.0303 35.512 46.3172C36.1193 45.8901 36.6961 45.7434 37.0953 45.9184C37.3455 46.0275 37.5078 46.2514 37.5403 46.5298C37.5785 46.8591 37.399 47.2768 37.0609 47.6493C36.593 48.1648 35.936 48.4621 35.258 48.4621ZM36.4841 46.8478C36.3753 46.8911 36.2358 46.9645 36.0678 47.083C35.8367 47.2448 35.661 47.384 35.5311 47.4969C36.0009 47.4028 36.3256 47.0849 36.4841 46.8497V46.8478ZM24.4749 48.4621C23.8026 48.4621 23.1532 48.1686 22.6929 47.6587C22.3683 47.2994 22.1983 46.8948 22.2365 46.5769C22.269 46.3041 22.4294 46.0858 22.6758 45.9786C23.0692 45.8055 23.6364 45.9447 24.2361 46.3586C25.2293 47.0472 25.5749 47.512 25.4298 47.9635C25.3247 48.2928 25.0039 48.4602 24.4768 48.4602L24.4749 48.4621ZM23.3117 46.9174C23.4645 47.1281 23.7529 47.3915 24.1597 47.4856C24.0394 47.3859 23.8828 47.2655 23.6842 47.1281C23.5371 47.0265 23.4111 46.9588 23.3098 46.9174H23.3117ZM256.083 36.7105C255.802 36.7105 255.529 36.6597 255.266 36.5562C254.568 36.2834 254.062 35.6851 253.837 34.8685L252.775 32.4903C251.824 31.1564 251.851 29.0491 252.834 27.7377L253.994 25.3031C254.234 24.496 254.756 23.8995 255.464 23.6211C256.184 23.3389 256.992 23.4273 257.741 23.8694C257.76 23.8807 259.704 25.004 262.223 25.004C264.742 25.004 266.784 23.8243 266.805 23.813C267.552 23.3633 268.354 23.2711 269.068 23.5515C269.781 23.8318 270.298 24.4452 270.524 25.2787L270.533 25.3257C270.533 25.3351 270.724 26.4094 271.515 27.4762C272.498 28.8026 272.481 30.9362 271.48 32.2608L270.355 34.59C270.109 35.3934 269.58 35.9917 268.868 36.2721C268.142 36.5581 267.328 36.479 266.576 36.0463C266.559 36.0369 264.7 34.9946 262.244 34.9946C259.611 34.9946 257.535 36.2608 257.514 36.2721C257.046 36.5618 256.557 36.7086 256.081 36.7086L256.083 36.7105ZM256.324 24.4038C256.148 24.4038 255.978 24.4358 255.818 24.4979C255.38 24.6691 255.055 25.0604 254.901 25.5985L254.874 25.6719L253.656 28.2307L253.625 28.2702C252.85 29.2674 252.829 30.9663 253.579 31.9823L253.61 32.0237L254.752 34.5976C254.893 35.1357 255.201 35.5214 255.619 35.6851C256.037 35.8487 256.53 35.7754 257.007 35.48C257.101 35.4216 259.341 34.0576 262.246 34.0576C264.972 34.0576 266.975 35.1883 267.059 35.2354C267.552 35.5176 268.069 35.5759 268.514 35.401C268.961 35.2241 269.294 34.8309 269.452 34.2928L269.479 34.2213L270.663 31.7716L270.694 31.7321C271.471 30.7387 271.494 29.0454 270.745 28.035C269.876 26.8647 269.634 25.7039 269.595 25.5063C269.446 24.9776 269.135 24.5957 268.713 24.4301C268.287 24.2627 267.787 24.3285 267.303 24.6201C267.214 24.6747 265.063 25.9503 262.223 25.9503C259.383 25.9503 257.338 24.733 257.25 24.6822C256.942 24.4997 256.625 24.4075 256.322 24.4075L256.324 24.4038ZM113.318 36.6089C113.03 36.6089 112.747 36.5562 112.476 36.4508C111.771 36.1761 111.256 35.5778 111.021 34.7669L109.892 32.3417C108.918 31.0228 108.914 28.9155 109.88 27.591L110.939 25.3106C111.175 24.5016 111.693 23.9033 112.4 23.623C113.118 23.3407 113.926 23.4273 114.672 23.8694C114.691 23.8807 116.636 25.004 119.155 25.004C121.674 25.004 123.716 23.8243 123.737 23.813C124.481 23.3652 125.287 23.2711 126.002 23.5515C126.706 23.8262 127.222 24.4245 127.457 25.2354L128.586 27.6606C129.56 28.9795 129.564 31.0868 128.597 32.4113L127.539 34.6916C127.302 35.5007 126.785 36.099 126.078 36.3793C125.36 36.6615 124.552 36.575 123.803 36.1328C123.784 36.1216 121.84 34.9983 119.321 34.9983C116.802 34.9983 114.758 36.178 114.739 36.1912C114.277 36.4696 113.79 36.6107 113.316 36.6107L113.318 36.6089ZM113.257 24.4038C113.083 24.4038 112.913 24.4358 112.755 24.4979C112.321 24.6691 111.999 25.0604 111.848 25.5985L111.821 25.67L110.707 28.0708L110.677 28.1103C109.917 29.1169 109.921 30.8158 110.686 31.8186L110.717 31.86L111.93 34.4809C112.079 35.019 112.398 35.4085 112.827 35.5759C113.257 35.7434 113.759 35.6756 114.243 35.3859C114.332 35.3313 116.485 34.0557 119.323 34.0557C122.161 34.0557 124.208 35.273 124.296 35.3238C124.783 35.6117 125.289 35.6756 125.725 35.5044C126.158 35.3332 126.481 34.9419 126.632 34.4038L126.659 34.3323L127.772 31.9315L127.803 31.892C128.563 30.8854 128.559 29.1883 127.793 28.1855L127.763 28.1441L126.55 25.5214C126.401 24.9833 126.082 24.5938 125.652 24.4264C125.222 24.2589 124.72 24.3266 124.237 24.6164C124.147 24.6709 121.995 25.9466 119.157 25.9466C116.319 25.9466 114.271 24.7293 114.183 24.6785C113.876 24.496 113.559 24.4038 113.259 24.4038H113.257ZM184.852 36.6089C184.564 36.6089 184.281 36.5562 184.01 36.4508C183.305 36.1761 182.79 35.5778 182.555 34.7669L181.426 32.3417C180.452 31.0228 180.448 28.9155 181.415 27.591L182.473 25.3106C182.71 24.5016 183.227 23.9033 183.934 23.623C184.652 23.3389 185.46 23.4273 186.208 23.8694C186.228 23.8807 188.172 25.004 190.691 25.004C193.21 25.004 195.254 23.8243 195.273 23.8111C196.018 23.3633 196.822 23.2693 197.538 23.5496C198.243 23.8243 198.758 24.4226 198.993 25.2335L200.122 27.6587C201.096 28.9776 201.1 31.0849 200.133 32.4094L199.075 34.6898C198.838 35.4988 198.321 36.0971 197.614 36.3774C196.896 36.6597 196.088 36.5731 195.34 36.131C195.32 36.1197 193.376 34.9964 190.857 34.9964C188.338 34.9964 186.296 36.1761 186.275 36.1874C185.811 36.4659 185.326 36.6089 184.852 36.6089ZM184.791 24.4038C184.618 24.4038 184.448 24.4358 184.287 24.4979C183.854 24.6691 183.531 25.0604 183.38 25.5985L183.353 25.67L182.24 28.0708L182.209 28.1103C181.449 29.1169 181.453 30.8139 182.219 31.8186L182.249 31.86L183.462 34.4828C183.611 35.0209 183.93 35.4104 184.36 35.5778C184.789 35.7453 185.292 35.6775 185.775 35.3878C185.865 35.3332 188.017 34.0576 190.855 34.0576C193.693 34.0576 195.741 35.2749 195.828 35.3257C196.316 35.6136 196.822 35.6775 197.255 35.5063C197.689 35.3351 198.011 34.9438 198.162 34.4057L198.189 34.3342L199.303 31.9315L199.333 31.892C200.093 30.8854 200.089 29.1883 199.324 28.1855L199.293 28.1441L198.08 25.5214C197.931 24.9833 197.612 24.5938 197.183 24.4264C196.753 24.2589 196.251 24.3266 195.767 24.6164C195.678 24.6709 193.525 25.9466 190.687 25.9466C187.849 25.9466 185.802 24.7293 185.714 24.6785C185.406 24.496 185.089 24.4038 184.789 24.4038H184.791ZM41.7802 36.6089C41.4918 36.6089 41.2072 36.5562 40.9379 36.4489C40.2256 36.1686 39.708 35.5552 39.4826 34.7217L39.4731 34.6747C39.4731 34.6653 39.2821 33.591 38.4914 32.5242C37.5078 31.1978 37.525 29.0642 38.5258 27.7396L39.6507 25.4104C39.8971 24.607 40.4261 24.0087 41.1385 23.7283C41.8642 23.4423 42.6778 23.5214 43.4303 23.9541C43.4475 23.9635 45.3039 25.0058 47.7619 25.0058C50.3842 25.0058 52.4736 23.7396 52.4927 23.7264C53.2337 23.2674 54.032 23.1677 54.7406 23.4442C55.4377 23.717 55.9438 24.3153 56.1692 25.1319L57.2311 27.5101C58.1822 28.844 58.1554 30.9513 57.1719 32.2627L56.0126 34.6973C55.7719 35.5044 55.2505 36.1009 54.542 36.3793C53.8219 36.6615 53.0141 36.5731 52.2654 36.131C52.2463 36.1197 50.302 34.9964 47.7829 34.9964C45.2638 34.9964 43.2222 36.1761 43.2011 36.1874C42.739 36.4659 42.2538 36.607 41.7802 36.607V36.6089ZM40.4089 34.4997C40.5579 35.0284 40.8692 35.4104 41.2913 35.5759C41.7172 35.7434 42.2176 35.6756 42.7008 35.3859C42.7905 35.3313 44.941 34.0557 47.781 34.0557C50.621 34.0557 52.6665 35.273 52.7543 35.3238C53.2413 35.6117 53.7494 35.6756 54.1867 35.5044C54.6241 35.3332 54.9488 34.9419 55.1035 34.4038L55.1302 34.3323L56.3487 31.7735L56.3793 31.734C57.1547 30.7368 57.1757 29.0378 56.4251 28.0218L56.3945 27.9804L55.2524 25.4066C55.1111 24.8685 54.8036 24.4828 54.3854 24.3191C53.9671 24.1554 53.4743 24.2288 52.9969 24.5242C52.9033 24.5825 50.663 25.9466 47.7581 25.9466C45.0327 25.9466 43.0293 24.8158 42.9452 24.7688C42.4525 24.4866 41.9368 24.4282 41.4899 24.6032C41.043 24.7801 40.7107 25.1733 40.5522 25.7114L40.5254 25.7829L39.3413 28.2344L39.3107 28.274C38.5334 29.2674 38.5105 30.9607 39.2592 31.971C40.1282 33.1413 40.3707 34.3022 40.4089 34.4997ZM149.109 36.5769C148.817 36.5769 148.531 36.5242 148.257 36.4169C147.551 36.1404 147.033 35.5421 146.796 34.733L145.679 32.3436C144.705 31.0247 144.699 28.9193 145.666 27.5947L146.724 25.3144C146.961 24.5054 147.478 23.9071 148.185 23.6267C148.903 23.3426 149.709 23.4311 150.46 23.8732C150.479 23.8845 152.423 25.0077 154.942 25.0077C157.461 25.0077 159.455 23.8563 159.474 23.845C160.221 23.3991 161.027 23.3088 161.745 23.591C162.452 23.8676 162.969 24.4659 163.206 25.2749L164.323 27.6644C165.297 28.9833 165.303 31.0886 164.337 32.4132L163.279 34.6935C163.042 35.5026 162.524 36.1009 161.818 36.3812C161.099 36.6634 160.292 36.5769 159.543 36.1347C159.524 36.1234 157.579 35.0002 155.06 35.0002C152.541 35.0002 150.547 36.1517 150.528 36.1629C150.066 36.4376 149.581 36.5788 149.109 36.5788V36.5769ZM150.034 35.3577C150.123 35.305 152.243 34.0576 155.06 34.0576C157.877 34.0576 159.946 35.2749 160.034 35.3257C160.521 35.6136 161.027 35.6775 161.462 35.5063C161.896 35.3351 162.219 34.9438 162.369 34.4057L162.396 34.3342L163.51 31.9315L163.54 31.892C164.3 30.8854 164.295 29.1883 163.529 28.1855L163.498 28.146L162.297 25.5609C162.146 25.0228 161.825 24.6333 161.394 24.464C160.962 24.2947 160.456 24.3605 159.971 24.6502C159.881 24.7029 157.761 25.9503 154.944 25.9503C152.127 25.9503 150.058 24.733 149.971 24.6822C149.484 24.3944 148.977 24.3304 148.542 24.5016C148.108 24.6728 147.786 25.0642 147.635 25.6023L147.608 25.6738L146.495 28.0764L146.464 28.1159C145.704 29.1225 145.71 30.8196 146.476 31.8224L146.506 31.8619L147.707 34.4471C147.858 34.9852 148.179 35.3746 148.611 35.5439C149.044 35.7133 149.548 35.6474 150.034 35.3577ZM77.5769 36.5769C77.2847 36.5769 76.9982 36.5242 76.7251 36.4151C76.0108 36.1328 75.4913 35.5195 75.2641 34.6879L75.2545 34.6408C75.2545 34.6408 75.0635 33.5759 74.2767 32.5148C73.295 31.194 73.316 29.0661 74.3168 27.7434L75.4417 25.4141C75.6881 24.6107 76.2171 24.0124 76.9295 23.7321C77.6552 23.4461 78.4688 23.5251 79.2213 23.9579C79.2385 23.9673 81.0949 25.0096 83.5529 25.0096C86.0109 25.0096 87.917 23.9409 87.9361 23.9296C88.6866 23.495 89.4983 23.4122 90.2203 23.6982C90.9307 23.9786 91.4559 24.5769 91.6985 25.384L92.7814 27.6681C93.7593 28.9851 93.7688 31.0905 92.8005 32.4151L91.7424 34.6954C91.5056 35.5044 90.988 36.1027 90.2814 36.3831C89.5633 36.6653 88.7554 36.5788 88.0067 36.1366C87.9876 36.1253 86.0434 35.0021 83.5243 35.0021C81.0051 35.0021 79.0322 36.1423 78.9921 36.1648C78.5299 36.4395 78.0467 36.5806 77.5769 36.5806V36.5769ZM76.1903 34.4621C76.3393 34.9908 76.6564 35.3746 77.0804 35.5421C77.5101 35.7114 78.0143 35.6455 78.4975 35.3577C78.5872 35.305 80.7072 34.0576 83.5243 34.0576C86.3413 34.0576 88.4097 35.2749 88.4976 35.3257C88.9846 35.6136 89.4907 35.6775 89.9261 35.5063C90.3597 35.3351 90.6825 34.9438 90.8333 34.4057L90.8601 34.3342L91.9735 31.9334L92.0041 31.8939C92.7642 30.8873 92.7566 29.1921 91.9888 28.1931L91.9582 28.1535L90.7913 25.6775C90.6366 25.1376 90.3081 24.7462 89.865 24.5712C89.4238 24.3963 88.9101 24.4565 88.4193 24.7406C88.3333 24.7895 86.3012 25.9485 83.5529 25.9485C80.8046 25.9485 78.8241 24.8177 78.74 24.7707C78.2473 24.4884 77.7297 24.4301 77.2847 24.6051C76.8378 24.7819 76.5055 25.1752 76.347 25.7133L76.3202 25.7848L75.1361 28.2363L75.1055 28.2758C74.3282 29.2693 74.3034 30.9569 75.0482 31.9598C75.9134 33.1244 76.1579 34.2664 76.1942 34.4621H76.1903ZM220.661 36.4753C220.359 36.4753 220.063 36.4207 219.782 36.3078C219.072 36.0275 218.546 35.4292 218.304 34.622L217.221 32.3379C216.243 31.0209 216.234 28.9155 217.2 27.591L218.258 25.3106C218.495 24.5016 219.012 23.9033 219.719 23.623C220.437 23.3389 221.245 23.4273 221.994 23.8694C222.013 23.8807 223.957 25.004 226.476 25.004C228.995 25.004 230.989 23.8525 231.008 23.8412C231.755 23.3953 232.559 23.305 233.275 23.5872C233.99 23.8694 234.509 24.4828 234.736 25.3144L234.746 25.3614C234.746 25.3614 234.937 26.4264 235.724 27.4875C236.705 28.8083 236.684 30.9362 235.684 32.2589L234.559 34.5882C234.312 35.3915 233.783 35.9899 233.071 36.2702C232.345 36.5562 231.532 36.4772 230.779 36.0444C230.762 36.035 228.904 34.9927 226.448 34.9927C223.991 34.9927 222.083 36.0614 222.064 36.0726C221.608 36.3379 221.129 36.4715 220.659 36.4715L220.661 36.4753ZM221.581 35.2655C221.667 35.2166 223.699 34.0576 226.448 34.0576C229.196 34.0576 231.176 35.1883 231.26 35.2354C231.753 35.5176 232.271 35.5759 232.716 35.401C233.163 35.2241 233.495 34.8309 233.653 34.2928L233.68 34.2213L234.864 31.7697L234.895 31.7302C235.672 30.7368 235.697 29.0491 234.952 28.0463C234.087 26.8817 233.843 25.7396 233.806 25.5439C233.657 25.0153 233.34 24.6314 232.916 24.464C232.487 24.2947 231.982 24.3605 231.499 24.6484C231.409 24.701 229.289 25.9485 226.472 25.9485C223.655 25.9485 221.587 24.7312 221.499 24.6804C221.012 24.3925 220.506 24.3285 220.07 24.4997C219.637 24.6709 219.314 25.0623 219.163 25.6004L219.137 25.6719L218.023 28.0726L217.993 28.1121C217.232 29.1187 217.24 30.8139 218.008 31.813L218.038 31.8525L219.205 34.3285C219.36 34.8685 219.688 35.2598 220.132 35.4348C220.573 35.6098 221.087 35.5496 221.577 35.2655H221.581ZM58.8392 14.2476C58.7055 14.2476 58.5794 14.2232 58.4687 14.1761C58.2127 14.0651 58.0466 13.8356 58.016 13.5477C57.9778 13.2015 58.1688 12.7613 58.5279 12.368C59.0072 11.8431 59.6757 11.5402 60.3613 11.5402C60.8999 11.5402 61.2284 11.7095 61.3392 12.0425C61.4939 12.5091 61.1425 12.987 60.0863 13.7509C59.6356 14.0764 59.1982 14.2476 58.8373 14.2476H58.8392ZM60.1455 12.496C59.5707 12.5806 59.1963 12.9908 59.0435 13.2598C59.1619 13.2166 59.3243 13.1357 59.5229 12.9908C59.8132 12.782 60.0099 12.6183 60.1455 12.496ZM273.281 14.1554C273.146 14.1554 273.022 14.131 272.911 14.0839C272.661 13.9748 272.498 13.7509 272.466 13.4725C272.428 13.1432 272.607 12.7255 272.945 12.353C273.413 11.8375 274.07 11.5402 274.748 11.5402C275.279 11.5402 275.604 11.7076 275.711 12.0388C275.86 12.4941 275.506 12.972 274.494 13.6851C274.055 13.9936 273.633 14.1554 273.281 14.1554ZM274.475 12.5073C274.005 12.6013 273.681 12.9193 273.524 13.1545C273.633 13.1112 273.772 13.0378 273.94 12.9193C274.171 12.7575 274.347 12.6183 274.477 12.5073H274.475ZM201.747 14.1554C201.612 14.1554 201.487 14.131 201.377 14.0839C201.126 13.9748 200.964 13.7509 200.932 13.4725C200.893 13.1432 201.073 12.7255 201.411 12.3511C201.879 11.8356 202.536 11.5383 203.214 11.5383C203.745 11.5383 204.07 11.7058 204.177 12.0369C204.326 12.4922 203.972 12.9701 202.96 13.6832C202.521 13.9917 202.099 14.1535 201.747 14.1535V14.1554ZM202.941 12.5073C202.471 12.6013 202.146 12.9193 201.99 13.1545C202.099 13.1112 202.238 13.0378 202.406 12.9193C202.637 12.7575 202.811 12.6183 202.943 12.5073H202.941ZM130.213 14.1554C130.077 14.1554 129.953 14.131 129.842 14.0839C129.592 13.9748 129.43 13.7509 129.397 13.4725C129.359 13.1432 129.539 12.7255 129.877 12.3511C130.345 11.8356 131.002 11.5383 131.68 11.5383C132.211 11.5383 132.535 11.7058 132.642 12.0369C132.791 12.4922 132.438 12.9701 131.426 13.6832C130.986 13.9917 130.564 14.1535 130.213 14.1535V14.1554ZM131.407 12.5073C130.937 12.6013 130.612 12.9193 130.456 13.1545C130.564 13.1112 130.704 13.0378 130.872 12.9193C131.103 12.7575 131.277 12.6183 131.409 12.5073H131.407ZM286.964 14.0952C286.618 14.0952 286.206 13.9391 285.774 13.6418C284.781 12.9532 284.435 12.4884 284.58 12.0369C284.685 11.7076 285.006 11.5402 285.533 11.5402C286.206 11.5402 286.855 11.8337 287.315 12.3436C287.64 12.7029 287.81 13.1074 287.772 13.4254C287.739 13.6982 287.579 13.9165 287.332 14.0237C287.222 14.0726 287.097 14.0971 286.962 14.0971L286.964 14.0952ZM285.848 12.5167C285.969 12.6164 286.125 12.7368 286.324 12.8741C286.471 12.9757 286.597 13.0435 286.698 13.0849C286.545 12.8741 286.257 12.6107 285.85 12.5167H285.848ZM165.826 13.9635C165.691 13.9635 165.58 13.9353 165.479 13.8807C165.314 13.7904 165.208 13.6324 165.187 13.448C165.148 13.1244 165.324 12.7142 165.654 12.3473C166.119 11.8337 166.772 11.5402 167.448 11.5402C168.162 11.5402 168.909 11.6136 169.025 12.1592C169.1 12.5073 168.876 12.797 168.359 13.0228C168.24 13.0755 168.093 13.1413 167.933 13.2147C166.818 13.7264 166.22 13.9635 165.824 13.9635H165.826ZM167.238 12.496C166.965 12.5355 166.739 12.6521 166.565 12.7876C166.793 12.6935 167.033 12.5882 167.238 12.496ZM237.361 13.9635C237.225 13.9635 237.114 13.9353 237.013 13.8807C236.849 13.7904 236.742 13.6324 236.721 13.448C236.683 13.1244 236.858 12.7142 237.189 12.3473C237.653 11.8337 238.306 11.5402 238.982 11.5402C239.696 11.5402 240.443 11.6136 240.56 12.1592C240.634 12.5073 240.411 12.797 239.895 13.0228C239.777 13.0755 239.629 13.1413 239.469 13.2147C238.354 13.7264 237.754 13.9635 237.361 13.9635ZM238.772 12.496C238.499 12.5355 238.273 12.6521 238.1 12.7876C238.327 12.6935 238.57 12.5882 238.772 12.496ZM94.4239 13.8807C94.2883 13.8807 94.1775 13.8525 94.0782 13.7979C93.9178 13.7095 93.8127 13.5552 93.7898 13.3746C93.7516 13.0679 93.9139 12.6785 94.2253 12.3323C94.6779 11.828 95.3196 11.5402 95.9862 11.5402C96.6527 11.5402 97.4128 11.6117 97.5274 12.1498C97.6 12.4922 97.3804 12.7763 96.8762 12.9946C96.7692 13.0397 96.6413 13.098 96.4999 13.162C95.4036 13.6531 94.8135 13.8826 94.4258 13.8826L94.4239 13.8807ZM95.4915 12.5731C95.4667 12.5825 95.4438 12.5919 95.4208 12.6032C95.4438 12.5938 95.4686 12.5825 95.4915 12.5731ZM179.174 13.8788C178.92 13.8788 178.672 13.7998 178.447 13.6437C177.454 12.9569 177.108 12.4903 177.253 12.0388C177.358 11.7095 177.679 11.5421 178.206 11.5421C178.6 11.5421 179.919 11.5872 180.397 12.1742C180.546 12.3549 180.599 12.5731 180.551 12.7876C180.473 13.1432 180.129 13.6023 179.629 13.7942C179.478 13.8525 179.325 13.8807 179.173 13.8807L179.174 13.8788ZM178.487 12.4884C178.611 12.5938 178.777 12.7236 178.995 12.8741C179.094 12.9419 179.18 12.955 179.281 12.9174C179.396 12.8741 179.493 12.782 179.554 12.701C179.388 12.622 179.035 12.5167 178.487 12.4884ZM107.64 13.8788C107.386 13.8788 107.138 13.7998 106.913 13.6437C105.919 12.955 105.574 12.4903 105.719 12.0388C105.824 11.7095 106.145 11.5421 106.672 11.5421C107.065 11.5421 108.385 11.5872 108.863 12.1742C109.011 12.3549 109.065 12.5731 109.017 12.7876C108.939 13.1432 108.595 13.6023 108.095 13.7942C107.944 13.8525 107.791 13.8807 107.638 13.8807L107.64 13.8788ZM106.953 12.4884C107.077 12.5938 107.243 12.7236 107.461 12.8741C107.56 12.9419 107.646 12.955 107.747 12.9174C107.862 12.8741 107.959 12.782 108.02 12.701C107.854 12.622 107.501 12.5167 106.953 12.4884ZM250.711 13.8788C250.457 13.8788 250.208 13.7998 249.983 13.6437C248.99 12.955 248.644 12.4903 248.789 12.0388C248.894 11.7095 249.215 11.5421 249.742 11.5421C250.136 11.5421 251.455 11.5872 251.933 12.1742C252.082 12.3549 252.135 12.5731 252.088 12.7876C252.009 13.1432 251.665 13.6023 251.165 13.7942C251.014 13.8525 250.861 13.8807 250.709 13.8807L250.711 13.8788ZM250.023 12.4884C250.147 12.5938 250.313 12.7236 250.531 12.8741C250.63 12.9419 250.716 12.955 250.817 12.9174C250.932 12.8741 251.029 12.782 251.091 12.701C250.924 12.622 250.571 12.5167 250.023 12.4884ZM36.2855 13.8017C36.0391 13.8017 35.7985 13.7264 35.5788 13.5797C34.6277 12.94 34.2801 12.4772 34.4196 12.035C34.5227 11.7076 34.8378 11.5421 35.3592 11.5421C35.7431 11.5421 37.0284 11.5853 37.4887 12.1517C37.632 12.3285 37.6854 12.5411 37.6396 12.75C37.5517 13.1413 37.1774 13.5458 36.7496 13.7133C36.5968 13.7735 36.4402 13.8017 36.2874 13.8017H36.2855ZM35.6915 12.4922C35.8023 12.5806 35.9417 12.6841 36.1155 12.8026C36.2091 12.8647 36.2893 12.876 36.3867 12.8422C36.4822 12.8083 36.5643 12.7387 36.6216 12.6728C36.4517 12.6013 36.1308 12.5204 35.6915 12.4922ZM215.091 13.3709C214.392 13.3709 213.544 13.2109 213.094 13.0153C212.582 12.7932 212.358 12.5035 212.433 12.1573C212.549 11.6136 213.289 11.5421 213.999 11.5421C214.392 11.5421 215.712 11.5872 216.19 12.1742C216.339 12.3549 216.392 12.5731 216.344 12.7876C216.319 12.8948 216.241 13.0943 215.981 13.2241C215.775 13.3276 215.452 13.3709 215.09 13.3709H215.091ZM143.557 13.3709C142.858 13.3709 142.01 13.2109 141.56 13.0153C141.048 12.7932 140.824 12.5035 140.899 12.1573C141.015 11.6136 141.754 11.5421 142.465 11.5421C142.858 11.5421 144.178 11.5872 144.655 12.1742C144.804 12.3549 144.86 12.5731 144.81 12.7876C144.785 12.8948 144.707 13.0943 144.447 13.2241C144.241 13.3276 143.918 13.3709 143.555 13.3709H143.557ZM72.193 13.3219C71.5169 13.3219 70.7014 13.1714 70.2678 12.9852C69.7675 12.7707 69.5497 12.4884 69.6223 12.1479C69.735 11.6136 70.4588 11.5421 71.1521 11.5421C71.536 11.5421 72.8213 11.5853 73.2816 12.1517C73.4249 12.3285 73.4783 12.5411 73.4325 12.75C73.4096 12.8553 73.3313 13.051 73.0773 13.1771C72.8729 13.2787 72.554 13.3219 72.1949 13.3219H72.193ZM286.761 8.73491H273.476C271.851 8.73491 269.83 8.03313 268.877 7.13567C268.805 7.06793 268.726 6.99644 268.646 6.92118C267.626 5.97668 266.977 5.31253 267.223 4.69917C267.359 4.36238 267.71 4.19117 268.266 4.19117H291.969C292.525 4.19117 292.877 4.36238 293.012 4.69917C293.259 5.31064 292.609 5.97668 291.589 6.92118C291.509 6.99644 291.431 7.06793 291.358 7.13567C290.405 8.03313 288.385 8.73491 286.759 8.73491H286.761ZM268.226 5.13191C268.453 5.44987 269.007 5.96163 269.301 6.23633C269.383 6.31158 269.464 6.38496 269.536 6.45646C270.308 7.1827 272.113 7.79606 273.474 7.79606H286.759C288.123 7.79606 289.926 7.1827 290.699 6.45646C290.774 6.38684 290.852 6.31347 290.934 6.23633C291.228 5.96351 291.782 5.45175 292.01 5.13191C291.996 5.13191 291.983 5.13191 291.969 5.13191H268.266C268.251 5.13191 268.237 5.13191 268.226 5.13191ZM215.227 8.73491H201.942C200.317 8.73491 198.296 8.03313 197.343 7.13567C197.27 7.06793 197.192 6.99644 197.112 6.92118C196.092 5.97668 195.443 5.31253 195.689 4.69917C195.825 4.36238 196.176 4.19117 196.732 4.19117H220.435C221.151 4.19117 222.122 4.26643 222.278 4.91554C222.38 5.33134 222.087 5.71328 221.411 6.05006C221.195 6.1573 220.865 6.33981 220.481 6.55053C218.48 7.65495 216.425 8.73491 215.225 8.73491H215.227ZM196.692 5.13191C196.919 5.44987 197.473 5.96163 197.767 6.23633C197.849 6.31158 197.929 6.38496 198.002 6.45646C198.773 7.1827 200.578 7.79606 201.942 7.79606H215.227C216.277 7.79606 218.711 6.45269 220.017 5.73209C220.409 5.51572 220.748 5.32758 220.983 5.21093C221.012 5.19587 221.039 5.1827 221.066 5.16953C220.917 5.14884 220.714 5.13379 220.439 5.13379H196.736C196.72 5.13379 196.707 5.13379 196.696 5.13379L196.692 5.13191ZM143.693 8.73491H130.408C128.782 8.73491 126.762 8.03313 125.809 7.13567C125.736 7.06793 125.658 6.99644 125.578 6.92118C124.558 5.97668 123.908 5.31253 124.155 4.69917C124.29 4.36238 124.642 4.19117 125.198 4.19117H148.901C149.617 4.19117 150.587 4.26643 150.744 4.91554C150.845 5.33134 150.553 5.71328 149.877 6.05006C149.661 6.1573 149.331 6.33981 148.947 6.55053C146.945 7.65495 144.89 8.73491 143.691 8.73491H143.693ZM125.158 5.13191C125.385 5.44987 125.939 5.96351 126.233 6.23633C126.315 6.31158 126.395 6.38496 126.468 6.45646C127.239 7.1827 129.044 7.79606 130.408 7.79606H143.693C144.743 7.79606 147.175 6.45269 148.483 5.73209C148.874 5.51572 149.214 5.32758 149.449 5.21093C149.478 5.19587 149.505 5.1827 149.531 5.16953C149.382 5.14884 149.18 5.13379 148.905 5.13379H125.201C125.186 5.13379 125.173 5.13379 125.161 5.13379L125.158 5.13191ZM72.3038 8.73491H59.0187C57.3934 8.73491 55.3728 8.03313 54.4197 7.13567C54.3472 7.06793 54.2708 6.99644 54.1905 6.92118C53.1707 5.97668 52.5213 5.31064 52.7677 4.69917C52.9033 4.36238 53.2547 4.19117 53.8105 4.19117H77.5139C78.2301 4.19117 79.2003 4.26643 79.3569 4.91554C79.4581 5.33134 79.1659 5.71328 78.4898 6.05006C78.274 6.1573 77.9436 6.33981 77.5597 6.55053C75.5582 7.65495 73.5032 8.73491 72.3038 8.73491ZM53.7685 5.13191C53.9957 5.44987 54.5496 5.96351 54.8437 6.23633C54.9258 6.31158 55.0041 6.38496 55.0786 6.45458C55.8502 7.18082 57.655 7.79418 59.0187 7.79418H72.3038C73.3542 7.79418 75.7855 6.45081 77.0937 5.73021C77.4852 5.51384 77.8252 5.3257 78.0601 5.20904C78.0888 5.19399 78.1155 5.18082 78.1422 5.16765C77.9933 5.14696 77.7908 5.13191 77.5158 5.13191H53.8124C53.7971 5.13191 53.7837 5.13191 53.7723 5.13191H53.7685Z" fill="currentColor"/>
</svg>