<svg xmlns="http://www.w3.org/2000/svg" width="108" height="107" viewBox="0 0 108 107" fill="none">
  <path d="M85.2627 99.0379C78.4687 99.0379 72.6481 94.3678 71.2103 87.8516H24.3004V83.9777L23.7999 83.1181L22.9322 82.6221H19.6395V36.1494C13.0624 34.7222 8.34863 28.9582 8.34863 22.2271C8.34863 14.3637 14.8061 7.96875 22.7403 7.96875C30.6745 7.96875 37.1319 14.3664 37.1319 22.2271C37.1319 28.9582 32.4182 34.7249 25.8411 36.1494V73.0918L44.4015 41.2411C39.4263 36.7473 38.2527 29.4183 41.6483 23.5882C45.6168 16.78 54.4353 14.4381 61.3099 18.3698C68.1818 22.3015 70.5456 31.0384 66.5771 37.8494C63.1788 43.6795 56.1873 46.3356 49.7716 44.3132L31.1278 76.3071L63.2761 57.9186C61.2348 51.5623 63.9157 44.6328 69.8003 41.2687C73.1292 39.3648 77.0087 38.8578 80.7213 39.8442C84.4339 40.8306 87.5375 43.1891 89.462 46.4871C93.4304 53.2953 91.0666 62.035 84.1948 65.9667C78.3102 69.3308 70.9155 68.1709 66.3769 63.239L34.084 81.7102H71.2075C72.648 75.194 78.4659 70.5239 85.2599 70.5239C93.1968 70.5239 99.6515 76.9215 99.6515 84.7823C99.6515 92.643 93.1941 99.0407 85.2599 99.0407L85.2627 99.0379ZM25.6909 86.474H72.3616L72.4645 87.0416C73.5658 93.194 78.947 97.6603 85.2627 97.6603C92.4321 97.6603 98.2638 91.8825 98.2638 84.7795C98.2638 77.6765 92.4321 71.8987 85.2627 71.8987C78.947 71.8987 73.5658 76.365 72.4645 82.5174L72.3616 83.085H28.8946L66.68 61.4701L67.0555 61.911C71.1129 66.6941 78.0293 67.8954 83.4967 64.7682C89.7067 61.2166 91.8397 53.3229 88.255 47.1704C86.5197 44.1892 83.7136 42.0594 80.3598 41.1695C77.0059 40.2795 73.5018 40.7369 70.4928 42.4562C65.0253 45.5834 62.617 52.1188 64.7695 57.993L64.9669 58.5358L27.3234 80.068L49.1403 42.6325L49.6881 42.8281C55.6172 44.9607 62.211 42.5746 65.3702 37.1578C68.9549 31.0054 66.8191 23.1116 60.6119 19.5601C54.4019 16.0086 46.4344 18.1246 42.8497 24.2743C39.6932 29.6911 40.9058 36.5434 45.7336 40.5633L46.1785 40.9353L24.445 78.2303V35.0032L25.0179 34.9013C31.2279 33.8102 35.7359 28.4788 35.7359 22.2216C35.7359 15.1186 29.9041 9.34086 22.7347 9.34086C15.5653 9.34086 9.73357 15.1186 9.73357 22.2216C9.73357 28.4788 14.2416 33.8102 20.4515 34.9013L21.0244 35.0032V81.2418H23.2993L24.8121 82.1069L25.6854 83.6058V86.4712L25.6909 86.474Z" fill="currentColor"/>
</svg>