<svg xmlns="http://www.w3.org/2000/svg" width="311" height="33" viewBox="0 0 311 33" fill="none">
  <path d="M271.606 32.4972H218.653C217.243 32.4972 216.181 31.8669 216.181 31.0297C216.181 30.1925 217.244 29.5622 218.653 29.5622H220.503C220.3 29.4709 220.113 29.3832 219.952 29.3031C219.158 28.9059 217.628 28.5703 216.61 28.5703H202.034C201.016 28.5703 199.485 28.9059 198.692 29.3031C198.497 29.4 198.303 29.4858 198.117 29.5622H199.991C201.401 29.5622 202.463 30.1925 202.463 31.0297C202.463 31.8669 201.4 32.4972 199.991 32.4972H147.038C145.628 32.4972 144.567 31.8669 144.567 31.0297C144.567 30.1925 145.63 29.5622 147.038 29.5622H148.889C148.686 29.4709 148.498 29.3832 148.337 29.3031C147.544 28.9059 146.013 28.5703 144.996 28.5703H130.274C129.256 28.5703 127.725 28.9059 126.932 29.3031C126.737 29.4 126.543 29.4858 126.357 29.5622H128.231C129.641 29.5622 130.703 30.1925 130.703 31.0297C130.703 31.8669 129.639 32.4972 128.231 32.4972H75.2781C73.8679 32.4972 72.8065 31.8669 72.8065 31.0297C72.8065 30.1925 73.8699 29.5622 75.2781 29.5622H77.1289C76.9258 29.4709 76.738 29.3832 76.5771 29.3031C75.7839 28.9059 74.253 28.5703 73.2357 28.5703H58.5135C57.4961 28.5703 55.9653 28.9059 55.1721 29.3031C54.9766 29.4 54.7831 29.4858 54.5973 29.5622H56.4711C57.8812 29.5622 58.9427 30.1925 58.9427 31.0297C58.9427 31.8669 57.8793 32.4972 56.4711 32.4972H3.5103C2.10016 32.4972 1.03872 31.8669 1.03872 31.0297C1.03872 30.1925 2.10207 29.5622 3.5103 29.5622H6.19455C4.73459 28.9432 0.693848 27.017 0.693848 24.6098C0.693848 21.1546 5.67533 18.4471 12.0344 18.4471C14.7799 18.4471 17.2515 19.2154 17.3569 19.2471C18.1769 19.5044 19.1368 19.2228 19.4549 18.6299C19.9319 17.7404 20.7615 17.1941 20.7979 17.1717C21.093 16.9685 21.2654 16.7 21.2693 16.4184C21.275 16.1368 21.1141 15.8627 20.8152 15.6427C20.7328 15.5831 18.8188 14.1491 18.8188 12.3106C18.8188 9.90337 22.8595 7.97533 24.3195 7.35814H21.6352C20.2251 7.35814 19.1636 6.72789 19.1636 5.89067C19.1636 5.05344 20.227 4.42506 21.6352 4.42506H37.3499C38.3672 4.42506 39.8981 4.08943 40.6913 3.69226C40.8867 3.5953 41.0802 3.50952 41.2661 3.43307H39.3923C37.9821 3.43307 36.9207 2.80283 36.9207 1.96747C36.9207 1.13211 37.984 0.5 39.3923 0.5H92.3454C93.7555 0.5 94.817 1.13025 94.817 1.96747C94.817 2.80469 93.7536 3.43307 92.3454 3.43307H90.4946C90.6977 3.52444 90.8854 3.61208 91.0464 3.69226C91.8396 4.08943 93.3704 4.42506 94.3878 4.42506H108.964C109.982 4.42506 111.513 4.08943 112.306 3.69226C112.501 3.5953 112.695 3.50952 112.881 3.43307H111.007C109.597 3.43307 108.535 2.80283 108.535 1.96747C108.535 1.13211 109.599 0.5 111.007 0.5H163.96C165.37 0.5 166.431 1.13025 166.431 1.96747C166.431 2.80469 165.368 3.43307 163.96 3.43307H162.109C162.312 3.52444 162.5 3.61208 162.661 3.69226C163.454 4.08943 164.985 4.42506 166.002 4.42506H180.724C181.742 4.42506 183.273 4.08943 184.066 3.69226C184.261 3.5953 184.455 3.50952 184.641 3.43307H182.767C181.357 3.43307 180.295 2.80283 180.295 1.96747C180.295 1.13211 181.359 0.5 182.767 0.5H235.72C237.13 0.5 238.192 1.13025 238.192 1.96747C238.192 2.80469 237.128 3.43307 235.72 3.43307H233.869C234.072 3.52444 234.26 3.61208 234.421 3.69226C235.214 4.08943 236.745 4.42506 237.762 4.42506H252.485C253.502 4.42506 255.033 4.08943 255.826 3.69226C256.021 3.5953 256.215 3.50952 256.401 3.43307H254.527C253.117 3.43307 252.055 2.80283 252.055 1.96747C252.055 1.13211 253.119 0.5 254.527 0.5H307.48C308.89 0.5 309.952 1.13025 309.952 1.96747C309.952 2.80469 308.888 3.43307 307.48 3.43307H304.796C306.256 4.05213 310.297 5.9783 310.297 8.38555C310.297 11.8407 305.315 14.5482 298.956 14.5482C296.21 14.5482 293.739 13.7799 293.634 13.7483C292.813 13.4909 291.854 13.7725 291.536 14.3654C291.059 15.2549 290.227 15.8012 290.192 15.8236C289.897 16.0268 289.725 16.2953 289.721 16.5769C289.715 16.8585 289.876 17.1326 290.175 17.3526C290.258 17.4123 292.172 18.8462 292.172 20.6847C292.172 23.0919 288.133 25.0181 286.671 25.6372H289.355C290.765 25.6372 291.827 26.2674 291.827 27.1046C291.827 27.9419 290.763 28.5721 289.355 28.5721H273.641C272.623 28.5721 271.092 28.9078 270.299 29.3049C270.104 29.4019 269.91 29.4877 269.724 29.5641H271.598C273.008 29.5641 274.07 30.1943 274.07 31.0316C274.07 31.8688 273.006 32.499 271.598 32.499L271.606 32.4972ZM218.653 30.4964C217.71 30.4964 217.139 30.8675 217.139 31.0316C217.139 31.1957 217.712 31.5667 218.653 31.5667H271.606C272.548 31.5667 273.119 31.1957 273.119 31.0316C273.119 30.8675 272.547 30.4964 271.606 30.4964H268.423C267.929 30.4964 267.182 30.4964 267.105 29.9426C267.029 29.3888 267.751 29.1968 268.226 29.0718C268.251 29.0662 269.073 28.8742 269.868 28.477C270.805 28.009 272.464 27.6417 273.648 27.6417H289.363C290.306 27.6417 290.876 27.2706 290.876 27.1065C290.876 26.9424 290.304 26.5714 289.363 26.5714H286.18C285.816 26.5714 284.962 26.5714 284.847 25.984C284.732 25.3966 285.527 25.0908 285.866 24.9603C287.357 24.3879 291.223 22.5027 291.223 20.6866C291.223 19.3142 289.622 18.1078 289.606 18.0966C289.068 17.6994 288.763 17.1382 288.775 16.562C288.786 15.9839 289.11 15.4357 289.664 15.0572C289.679 15.0479 290.338 14.6078 290.698 13.9366C291.227 12.9483 292.683 12.4672 293.94 12.8644C293.963 12.8719 296.377 13.6196 298.968 13.6196C304.597 13.6196 309.35 11.2254 309.35 8.38928C309.35 6.57499 305.484 4.68984 303.993 4.11553C303.654 3.98501 302.859 3.68107 302.974 3.09185C303.089 2.50449 303.943 2.50449 304.307 2.50449H307.49C308.432 2.50449 309.003 2.13342 309.003 1.9712C309.003 1.80898 308.43 1.43605 307.49 1.43605H254.537C253.594 1.43605 253.023 1.80711 253.023 1.9712C253.023 2.13529 253.596 2.50449 254.537 2.50449H257.719C258.213 2.50449 258.961 2.50449 259.037 3.05828C259.114 3.61208 258.391 3.80414 257.914 3.92907C257.889 3.93466 257.068 4.12672 256.272 4.52389C255.336 4.99191 253.676 5.35925 252.492 5.35925H237.77C236.588 5.35925 234.927 4.99191 233.99 4.52389C233.802 4.42879 233.559 4.32064 233.3 4.20503C232.154 3.68853 231.631 3.45359 231.744 2.94827C231.844 2.50449 232.371 2.50449 232.543 2.50449H235.726C236.668 2.50449 237.239 2.13342 237.239 1.9712C237.239 1.80898 236.666 1.43605 235.726 1.43605H182.773C181.83 1.43605 181.259 1.80711 181.259 1.9712C181.259 2.13529 181.832 2.50449 182.773 2.50449H185.955C186.449 2.50449 187.197 2.50449 187.273 3.05828C187.35 3.61208 186.628 3.80414 186.15 3.92907C186.126 3.93466 185.304 4.12672 184.508 4.52389C183.572 4.99191 181.912 5.35925 180.728 5.35925H166.006C164.824 5.35925 163.163 4.99191 162.226 4.52389C162.038 4.42879 161.795 4.32064 161.536 4.20503C160.39 3.68853 159.867 3.45359 159.98 2.94827C160.08 2.50449 160.607 2.50449 160.779 2.50449H163.962C164.904 2.50449 165.475 2.13342 165.475 1.9712C165.475 1.80898 164.903 1.43605 163.962 1.43605H111.009C110.066 1.43605 109.495 1.80711 109.495 1.9712C109.495 2.13529 110.068 2.50449 111.009 2.50449H114.191C114.685 2.50449 115.433 2.50449 115.509 3.05828C115.586 3.61208 114.864 3.80414 114.387 3.92907C114.362 3.93466 113.54 4.12672 112.745 4.52389C111.808 4.99191 110.148 5.35925 108.964 5.35925H94.3878C93.2057 5.35925 91.5445 4.99191 90.6076 4.52389C90.4199 4.42879 90.1765 4.32064 89.9179 4.20503C88.7721 3.68853 88.2491 3.45359 88.3621 2.94827C88.4618 2.50449 88.9886 2.50449 89.1611 2.50449H92.3435C93.2861 2.50449 93.8571 2.13342 93.8571 1.9712C93.8571 1.80898 93.2842 1.43605 92.3435 1.43605H39.3942C38.4515 1.43605 37.8806 1.80711 37.8806 1.9712C37.8806 2.13529 38.4535 2.50449 39.3942 2.50449H42.5766C43.0709 2.50449 43.8181 2.50449 43.8948 3.05828C43.9714 3.61208 43.2491 3.80414 42.772 3.92907C42.7471 3.93466 41.9252 4.12672 41.13 4.52389C40.1931 4.99191 38.5339 5.35925 37.3499 5.35925H21.6352C20.6926 5.35925 20.1216 5.73031 20.1216 5.89253C20.1216 6.05476 20.6945 6.42768 21.6352 6.42768H24.8176C25.1816 6.42768 26.0362 6.42768 26.1511 7.01504C26.2661 7.6024 25.471 7.9082 25.1318 8.03873C23.6412 8.61117 19.7748 10.4963 19.7748 12.3125C19.7748 13.6849 21.3766 14.8913 21.3919 14.9025C21.9303 15.2996 22.2349 15.859 22.2234 16.4371C22.2119 17.0151 21.8881 17.5633 21.3344 17.9418C21.3191 17.9511 20.66 18.3912 20.2998 19.0625C19.771 20.0507 18.3149 20.5318 17.058 20.1365C17.035 20.129 14.6209 19.3813 12.0305 19.3813C6.40147 19.3813 1.64799 21.7755 1.64799 24.6116C1.64799 26.4259 5.51439 28.3111 7.005 28.8854C7.34412 29.0159 8.13924 29.3198 8.02428 29.9091C7.90933 30.4964 7.05481 30.4964 6.69078 30.4964H3.50838C2.56573 30.4964 1.99478 30.8675 1.99478 31.0316C1.99478 31.1957 2.56765 31.5667 3.50838 31.5667H56.4615C57.4042 31.5667 57.9751 31.1957 57.9751 31.0316C57.9751 30.8675 57.4022 30.4964 56.4615 30.4964H53.2791C52.7848 30.4964 52.0376 30.4964 51.9609 29.9426C51.8843 29.3888 52.6066 29.1968 53.0818 29.0718C53.1067 29.0662 53.9286 28.8742 54.7237 28.477C55.6606 28.009 57.3199 27.6417 58.5039 27.6417H73.2261C74.4082 27.6417 76.0694 28.009 77.0063 28.477C77.194 28.5721 77.4374 28.6803 77.696 28.7977C78.8418 29.3142 79.3648 29.5492 79.2518 30.0545C79.1521 30.4983 78.6253 30.4983 78.4528 30.4983H75.2704C74.3278 30.4983 73.7568 30.8694 73.7568 31.0334C73.7568 31.1975 74.3297 31.5686 75.2704 31.5686H128.224C129.166 31.5686 129.737 31.1975 129.737 31.0334C129.737 30.8694 129.164 30.4983 128.224 30.4983H125.041C124.547 30.4983 123.8 30.4983 123.723 29.9445C123.646 29.3907 124.369 29.1986 124.846 29.0737C124.871 29.0681 125.693 28.8761 126.488 28.4789C127.425 28.0109 129.084 27.6435 130.268 27.6435H144.99C146.172 27.6435 147.833 28.0109 148.77 28.4789C148.958 28.574 149.201 28.6821 149.46 28.7996C150.606 29.3161 151.129 29.5511 151.016 30.0564C150.916 30.5002 150.389 30.5002 150.217 30.5002H147.034C146.092 30.5002 145.521 30.8712 145.521 31.0353C145.521 31.1994 146.094 31.5705 147.034 31.5705H199.987C200.93 31.5705 201.501 31.1994 201.501 31.0353C201.501 30.8712 200.928 30.5002 199.987 30.5002H196.805C196.311 30.5002 195.564 30.5002 195.487 29.9464C195.41 29.3926 196.133 29.2005 196.608 29.0756C196.633 29.07 197.455 28.8779 198.25 28.4807C199.187 28.0127 200.846 27.6454 202.03 27.6454H216.606C217.789 27.6454 219.45 28.0127 220.387 28.4807C220.574 28.5758 220.818 28.684 221.076 28.8015C222.222 29.318 222.745 29.5529 222.632 30.0582C222.533 30.502 222.006 30.502 221.833 30.502H218.651L218.653 30.4964ZM257.74 30.4964H232.517C232.022 30.4964 231.275 30.4964 231.198 29.9426C231.122 29.3888 231.844 29.1968 232.321 29.0718C232.346 29.0662 233.168 28.8742 233.963 28.477C234.9 28.009 236.559 27.6417 237.743 27.6417H252.515C253.697 27.6417 255.359 28.009 256.295 28.477C256.483 28.5721 256.727 28.6803 256.985 28.7977C258.131 29.3142 258.654 29.5492 258.541 30.0545C258.441 30.4983 257.914 30.4983 257.742 30.4983L257.74 30.4964ZM233.825 29.5641H256.407C256.203 29.4727 256.016 29.3851 255.855 29.3049C255.062 28.9078 253.531 28.5721 252.513 28.5721H237.741C236.724 28.5721 235.193 28.9078 234.4 29.3049C234.204 29.4019 234.011 29.4877 233.825 29.5641ZM186.124 30.4964H160.9C160.406 30.4964 159.659 30.4964 159.582 29.9426C159.505 29.3888 160.228 29.1968 160.705 29.0718C160.73 29.0662 161.552 28.8742 162.347 28.477C163.284 28.009 164.943 27.6417 166.127 27.6417H180.899C182.081 27.6417 183.742 28.009 184.679 28.477C184.867 28.5721 185.112 28.6803 185.369 28.7977C186.514 29.3142 187.038 29.5492 186.925 30.0545C186.825 30.4983 186.298 30.4983 186.126 30.4983L186.124 30.4964ZM162.209 29.5641H184.79C184.589 29.4727 184.399 29.3851 184.238 29.3049C183.445 28.9078 181.914 28.5721 180.897 28.5721H166.125C165.108 28.5721 163.577 28.9078 162.783 29.3049C162.588 29.4019 162.395 29.4877 162.209 29.5641ZM114.36 30.4964H89.1362C88.6419 30.4964 87.8946 30.4964 87.818 29.9426C87.7414 29.3888 88.4637 29.1968 88.9407 29.0718C88.9656 29.0662 89.7876 28.8742 90.5827 28.477C91.5196 28.009 93.1788 27.6417 94.3629 27.6417H109.135C110.317 27.6417 111.978 28.009 112.915 28.477C113.103 28.5721 113.348 28.6803 113.605 28.7977C114.751 29.3142 115.274 29.5492 115.161 30.0545C115.061 30.4983 114.534 30.4983 114.362 30.4983L114.36 30.4964ZM90.4448 29.5641H113.026C112.825 29.4727 112.635 29.3851 112.474 29.3049C111.681 28.9078 110.15 28.5721 109.133 28.5721H94.361C93.3436 28.5721 91.8128 28.9078 91.0196 29.3049C90.8241 29.4019 90.6306 29.4877 90.4448 29.5641ZM42.5957 30.4964H17.3761C16.8817 30.4964 16.1345 30.4964 16.0579 29.9426C15.9812 29.3888 16.7036 29.1968 17.1806 29.0718C17.2055 29.0662 18.0275 28.8742 18.8226 28.477C19.7595 28.009 21.4187 27.6417 22.6028 27.6417H37.3748C38.5569 27.6417 40.218 28.009 41.155 28.477C41.3427 28.5721 41.586 28.6803 41.8447 28.7977C42.9904 29.3142 43.5135 29.5492 43.4004 30.0545C43.3008 30.4983 42.7739 30.4983 42.6015 30.4983L42.5957 30.4964ZM18.6808 29.5641H41.2622C41.0592 29.4727 40.8714 29.3851 40.7104 29.3049C39.9172 28.9078 38.3864 28.5721 37.369 28.5721H22.597C21.5797 28.5721 20.0488 28.9078 19.2556 29.3049C19.0602 29.4019 18.8667 29.4877 18.6808 29.5641ZM275.522 26.5714C273.644 26.5714 273.393 26.2078 273.313 26.0884C273.209 25.9392 273.19 25.7509 273.261 25.5868C273.445 25.1524 274.34 24.7291 275.198 25.0368C276.118 25.3668 276.57 25.6185 276.486 26.0828C276.396 26.5695 275.807 26.5695 275.524 26.5695L275.522 26.5714ZM250.601 26.5714H250.27C250.021 26.5714 249.438 26.5714 249.344 26.094C249.243 25.5775 249.839 25.3202 250.818 24.9454C251.151 24.8167 251.979 24.5464 252.458 24.8018C252.63 24.8932 252.745 25.0424 252.782 25.2214C252.81 25.3593 252.799 25.5756 252.592 25.8236C252.301 26.1686 251.605 26.5732 250.601 26.5732V26.5714ZM239.617 26.5714C237.739 26.5714 237.488 26.2078 237.408 26.0884C237.305 25.9392 237.285 25.7509 237.356 25.5868C237.494 25.2605 237.856 25.1636 238.839 25.1934C239.435 25.212 240.058 25.2773 240.424 25.3612C240.661 25.4153 241.221 25.5421 241.163 26.0288C241.104 26.5341 240.514 26.5714 239.621 26.5714H239.617ZM214.702 26.5714C213.801 26.5714 213.208 26.5341 213.146 26.0269C213.089 25.5402 213.65 25.4116 213.89 25.3575C213.997 25.3332 214.125 25.3015 214.269 25.268C215.953 24.8652 216.377 24.8149 216.658 24.9846C216.781 25.0573 216.865 25.171 216.896 25.3034C216.926 25.4321 216.924 25.6297 216.744 25.8479C216.449 26.2078 215.704 26.5714 214.7 26.5714H214.702ZM204.024 26.5714H203.936C202.683 26.5714 201.932 26.4054 201.706 26.0754C201.601 25.9225 201.58 25.7379 201.651 25.5682C201.84 25.1151 202.756 24.6788 203.634 25.0013C204.616 25.3631 205.069 25.6185 204.98 26.0847C204.888 26.5695 204.283 26.5695 204.024 26.5695V26.5714ZM178.987 26.5714H178.801C178.546 26.5714 177.95 26.5714 177.858 26.0903C177.76 25.5812 178.349 25.3202 179.255 24.9808C179.581 24.8596 180.387 24.6023 180.855 24.8484C181.023 24.9379 181.138 25.0834 181.175 25.2568C181.203 25.391 181.198 25.598 181.002 25.8311C180.696 26.2003 179.952 26.5714 178.987 26.5714ZM168.119 26.5714H168.031C166.778 26.5714 166.027 26.4054 165.801 26.0754C165.696 25.9225 165.675 25.7379 165.746 25.5682C165.885 25.2326 166.255 25.1356 167.263 25.1673C167.876 25.1859 168.52 25.2568 168.901 25.3444C169.146 25.4004 169.721 25.5346 169.662 26.0232C169.6 26.5303 168.984 26.5695 168.119 26.5695V26.5714ZM143.08 26.5714H142.944C142.084 26.5714 141.47 26.5322 141.409 26.025C141.35 25.5346 141.932 25.3985 142.179 25.3407C142.3 25.3127 142.446 25.2773 142.609 25.2381C144.337 24.8167 144.745 24.7664 145.034 24.9417C145.157 25.0163 145.243 25.1319 145.272 25.268C145.3 25.4004 145.297 25.6055 145.105 25.8348C144.8 26.2022 144.057 26.5714 143.08 26.5714ZM132.26 26.5714H132.172C130.919 26.5714 130.168 26.4054 129.942 26.0754C129.837 25.9225 129.816 25.7379 129.887 25.5682C130.076 25.1151 130.992 24.6788 131.87 25.0013C132.852 25.3631 133.305 25.6185 133.217 26.0847C133.125 26.5695 132.519 26.5695 132.26 26.5695V26.5714ZM107.223 26.5714H107.037C106.782 26.5714 106.186 26.5714 106.094 26.0903C105.997 25.5812 106.585 25.3202 107.491 24.9808C107.817 24.8596 108.623 24.6023 109.091 24.8484C109.259 24.9379 109.374 25.0834 109.411 25.2568C109.44 25.391 109.434 25.598 109.238 25.8311C108.932 26.2003 108.188 26.5714 107.223 26.5714ZM96.3555 26.5714H96.2673C95.0143 26.5714 94.2633 26.4054 94.0372 26.0754C93.9318 25.9225 93.9107 25.7379 93.9816 25.5682C94.1215 25.2326 94.4913 25.1356 95.4991 25.1673C96.1122 25.1859 96.7559 25.2568 97.1372 25.3444C97.3824 25.4004 97.9572 25.5346 97.8978 26.0232C97.8365 26.5303 97.2196 26.5695 96.3555 26.5695V26.5714ZM71.3159 26.5714H71.1799C70.3196 26.5714 69.7065 26.5322 69.6452 26.025C69.5858 25.5346 70.1682 25.3985 70.4154 25.3407C70.5361 25.3127 70.6817 25.2773 70.8446 25.2381C72.5728 24.8167 72.9809 24.7664 73.2702 24.9417C73.3947 25.0163 73.479 25.1319 73.5077 25.268C73.5365 25.4004 73.5307 25.6055 73.341 25.8348C73.0364 26.2022 72.293 26.5714 71.3159 26.5714ZM60.4965 26.5714H60.4084C59.1553 26.5714 58.4043 26.4054 58.1782 26.0754C58.0728 25.9225 58.0517 25.7379 58.1226 25.5682C58.3123 25.1151 59.2281 24.6788 60.1056 25.0013C61.0885 25.3631 61.5407 25.6185 61.4526 26.0847C61.3606 26.5695 60.7552 26.5695 60.4965 26.5695V26.5714ZM35.4588 26.5714H35.273C35.0182 26.5714 34.4223 26.5714 34.3303 26.0903C34.2326 25.5812 34.8208 25.3202 35.7271 24.9808C36.0528 24.8596 36.8594 24.6023 37.3269 24.8484C37.4955 24.9379 37.6104 25.0834 37.6468 25.2568C37.6756 25.3892 37.6698 25.598 37.4744 25.8311C37.1679 26.2003 36.4245 26.5714 35.4588 26.5714ZM24.5915 26.5714H24.5034C23.5167 26.5714 22.7714 26.204 22.4706 25.8386C22.2847 25.6129 22.2809 25.4097 22.3096 25.2792C22.348 25.1076 22.461 24.9659 22.6277 24.8783C23.0875 24.6359 23.8807 24.8839 24.2007 25.0032C25.1836 25.3649 25.6357 25.6204 25.5476 26.0866C25.4556 26.5714 24.8502 26.5714 24.5915 26.5714ZM190.178 25.2959C189.375 25.2959 188.572 25.1692 187.806 24.8652C184.765 23.5973 182.539 21.1471 181.985 18.4676C181.932 18.2775 181.928 18.1003 181.924 17.9567C181.918 17.7292 181.907 17.6864 181.859 17.6453L181.489 17.3862C181.09 17.1661 180.862 16.838 180.861 16.4781C180.861 16.1257 181.077 15.8031 181.458 15.5905L181.82 15.3332C181.901 15.2642 181.92 15.1915 181.953 14.9528C181.972 14.813 181.995 14.6545 182.054 14.4848L182.064 14.4605C183.551 10.8562 186.309 8.48065 189.634 7.94177C194.481 7.15676 199.102 9.91269 200.627 14.496C200.683 14.6545 200.708 14.8074 200.729 14.9416C200.769 15.184 200.79 15.2735 200.886 15.3537L201.26 15.6148C201.658 15.8348 201.886 16.163 201.888 16.5228C201.888 16.8752 201.672 17.1978 201.29 17.4104L200.926 17.6677C200.842 17.7386 200.825 17.8057 200.796 18.0444C200.779 18.173 200.762 18.3166 200.714 18.4751C200.568 18.9487 200.438 19.3384 200.304 19.7002L200.141 20.1328C199.892 20.6996 198.895 21.6562 198.085 22.2678C197.89 22.4151 194.014 25.2997 190.18 25.2997L190.178 25.2959ZM181.83 16.4743C181.849 16.4967 181.889 16.5359 181.974 16.5788L182.025 16.6105L182.462 16.9181C182.865 17.2444 182.876 17.6565 182.882 17.9306C182.886 18.0462 182.888 18.1451 182.913 18.229L182.922 18.2681C183.409 20.6586 185.422 22.857 188.176 24.0056C192.075 25.5589 197.443 21.5685 197.497 21.5294C198.401 20.8469 199.123 20.0545 199.254 19.7748L199.401 19.3813C199.53 19.0364 199.654 18.6634 199.794 18.2085C199.819 18.1246 199.832 18.0313 199.844 17.9306C199.88 17.6472 199.93 17.2575 200.327 16.9424L200.348 16.9256L200.798 16.6123C200.865 16.5769 200.899 16.5452 200.917 16.5266C200.898 16.5042 200.857 16.465 200.773 16.4221L200.721 16.3904L200.29 16.0865C199.892 15.7732 199.828 15.3779 199.781 15.0889C199.763 14.9808 199.746 14.8782 199.715 14.7887C198.338 10.6418 194.165 8.15247 189.789 8.86103C186.808 9.34398 184.317 11.507 182.957 14.7943C182.93 14.8782 182.914 14.977 182.901 15.0796C182.861 15.363 182.805 15.7509 182.418 16.0604L182.395 16.0772L181.945 16.3904C181.878 16.4259 181.843 16.4576 181.826 16.4762L181.83 16.4743ZM47.8435 25.281C47.7362 25.281 47.629 25.2773 47.5217 25.2717C42.9215 25.0778 39.3233 19.4988 39.1719 19.262C38.5569 18.2942 38.007 17.5372 37.8825 17.4216C37.779 17.3284 37.256 16.8361 37.3173 16.3587C37.3422 16.1648 37.4552 16.0007 37.6277 15.9019C37.8289 15.7397 38.5301 14.7533 39.0397 13.8098C39.147 13.6103 41.7048 8.93003 45.4908 7.76649L45.5233 7.75717C50.5259 6.58991 55.766 9.60502 57.2049 14.4811C57.2317 14.5594 57.2566 14.6526 57.2815 14.7458C57.3563 15.0199 57.3984 15.1579 57.5574 15.2828L57.9176 15.5439C58.2989 15.7621 58.5135 16.0865 58.5097 16.4389C58.5058 16.8007 58.2721 17.1288 57.8697 17.347L57.4865 17.6099C57.3467 17.7199 57.3103 17.8411 57.247 18.1003C57.2221 18.2029 57.1934 18.3203 57.1512 18.4415C57.0344 18.7772 56.8773 19.2228 56.6914 19.6797L56.5151 20.1123C56.2584 20.6605 55.3177 21.6599 54.5647 22.32C54.4229 22.4449 51.1543 25.2773 47.8435 25.2773V25.281ZM38.3404 16.521C38.3921 16.5918 38.465 16.6757 38.532 16.7354C38.8041 16.9778 39.5513 18.0854 39.9862 18.7697C40.0207 18.8238 43.4713 24.166 47.5715 24.3394C50.5968 24.5128 53.8903 21.658 53.9248 21.6301C54.7467 20.9103 55.4824 20.06 55.6415 19.7356L55.8043 19.3366C55.9825 18.9002 56.1339 18.4695 56.2469 18.1432C56.2757 18.0612 56.2967 17.9754 56.3197 17.8822C56.3964 17.5708 56.4902 17.1829 56.9098 16.8659L56.9271 16.8529L57.3946 16.5359C57.4846 16.4893 57.5268 16.4501 57.544 16.4277C57.5268 16.4091 57.4923 16.3755 57.4233 16.3382L57.3716 16.3047L56.975 16.0175C56.5496 15.6837 56.4443 15.294 56.358 14.9808C56.337 14.9062 56.3178 14.8297 56.291 14.7533C55.0111 10.4143 50.1963 7.6341 45.7666 8.65779C42.3677 9.71317 39.9153 14.1958 39.8923 14.2405C39.6298 14.7272 38.8654 16.0007 38.3442 16.5191L38.3404 16.521ZM38.1048 16.7093H38.1028C38.1028 16.7093 38.1028 16.7093 38.1048 16.7093ZM37.6449 15.8907C37.6449 15.8907 37.6411 15.8926 37.6373 15.8944C37.6392 15.8944 37.643 15.8926 37.6449 15.8907ZM262.137 25.2717H262.116C257.698 25.0759 254.146 19.5249 253.996 19.2881C253.389 18.3259 252.851 17.5092 252.745 17.3768L252.726 17.3526C252.473 17.0356 252.211 16.6683 252.274 16.3084C252.303 16.1443 252.396 16.0026 252.536 15.9094C252.713 15.7546 253.402 14.7906 254.01 13.7986C254.142 13.5823 257.301 8.51048 261.516 8.11891C266.709 7.73106 271.267 13.5748 271.458 13.8247C272.156 14.7328 272.799 15.4376 272.955 15.5439C272.96 15.5476 273.694 16.0436 273.664 16.5993C273.652 16.8174 273.529 17.002 273.33 17.1046C273.137 17.209 272.451 17.8877 272.313 18.2103C272.194 18.4882 271.868 19.0643 271.579 19.5715C271.418 19.8549 271.217 20.2092 271.184 20.2857C270.993 20.7574 269.573 21.9899 269.412 22.1279C269.263 22.2566 265.726 25.268 262.137 25.268V25.2717ZM253.276 16.4986C253.316 16.562 253.379 16.6515 253.483 16.7801L253.504 16.8063C253.663 17.0058 254.293 17.9754 254.812 18.7996C254.847 18.8536 258.242 24.1567 262.149 24.3394C265.367 24.3319 268.743 21.4623 268.778 21.4324C269.64 20.6903 270.211 20.0787 270.299 19.9333C270.347 19.8214 270.464 19.6125 270.742 19.1221C271.004 18.6597 271.332 18.0817 271.43 17.8523C271.612 17.429 272.186 16.81 272.6 16.4762C272.543 16.4147 272.476 16.355 272.42 16.3177C272.066 16.0846 271.192 15.033 270.692 14.3841C270.648 14.3282 266.256 8.70254 261.601 9.04936C257.878 9.39432 254.864 14.2293 254.834 14.2778C254.788 14.3524 253.826 15.915 253.278 16.5005L253.276 16.4986ZM252.55 15.8982C252.55 15.8982 252.544 15.9019 252.542 15.9038L252.55 15.8982ZM156.947 25.1953C153.455 25.1953 149.78 22.6221 149.607 22.499C149.088 22.1298 148.544 21.7196 148.149 21.4212C147.969 21.2851 147.783 21.1453 147.716 21.0968C147.559 21.0241 147.395 20.8656 147.042 19.5771C146.9 19.0625 145.808 17.5838 145.569 17.375C145.463 17.3022 144.818 16.8305 144.841 16.3196C144.85 16.107 144.967 15.9261 145.159 15.8217C145.36 15.6931 146.358 14.675 146.942 13.8172C147.138 13.5301 151.803 6.78196 157.214 7.56138C161.429 8.14688 164.372 13.5058 164.494 13.7333C165.052 14.7645 165.552 15.473 165.677 15.5793C165.906 15.7471 166.297 16.2786 166.238 16.7223C166.209 16.9349 166.079 17.1102 165.889 17.2016C165.69 17.3694 165.039 18.3129 164.537 19.29C164.435 19.4857 162.031 24.0951 158.224 25.0685L158.201 25.0741C157.791 25.158 157.371 25.1953 156.949 25.1953H156.947ZM148.299 20.3565C148.379 20.4143 148.508 20.5113 148.736 20.6847C149.127 20.9812 149.663 21.3858 150.171 21.7457C150.215 21.7774 154.604 24.8484 157.99 24.1641C161.368 23.2896 163.655 18.917 163.678 18.8723C163.688 18.8518 164.588 17.1121 165.24 16.5228C165.198 16.4426 165.134 16.3531 165.092 16.3177C164.722 16.0492 163.985 14.7924 163.646 14.1678C163.617 14.1156 160.806 9.00275 157.074 8.48438C152.263 7.79073 147.784 14.2666 147.738 14.3337C147.268 15.0218 146.414 15.9839 145.902 16.4277C145.967 16.4967 146.048 16.5676 146.115 16.6123C146.456 16.8361 147.757 18.5833 147.964 19.3384C148.105 19.8587 148.236 20.2185 148.297 20.3584L148.299 20.3565ZM147.743 21.108C147.743 21.108 147.747 21.108 147.749 21.1098C147.747 21.1098 147.745 21.1098 147.743 21.108ZM145.571 17.375C145.571 17.375 145.578 17.3806 145.58 17.3824C145.58 17.3824 145.576 17.3806 145.571 17.375ZM119.922 24.9342C118.354 24.9342 116.757 24.5818 115.302 23.8844C112.896 22.7321 111.133 20.7649 110.465 18.4882C110.42 18.367 110.388 18.2513 110.359 18.1469C110.288 17.8877 110.248 17.7554 110.106 17.6435L109.729 17.3787C109.33 17.1587 109.102 16.8305 109.1 16.4706C109.1 16.1182 109.317 15.7956 109.698 15.5831L110.062 15.3257C110.168 15.24 110.187 15.1505 110.223 14.9192C110.24 14.813 110.26 14.6918 110.294 14.5631C111.334 10.0861 116.23 6.79315 120.991 7.37305C125.401 7.95855 128.517 13.5021 128.647 13.7389C129.193 14.7253 129.685 15.501 129.8 15.6222C130.266 16.0753 129.879 17.4943 129.07 18.2905C129.04 18.3278 128.787 18.6672 128.465 19.7132L128.444 19.7673L128.254 20.185C128.001 20.6772 127.107 21.6953 126.386 22.3946C126.338 22.4412 125.212 23.5245 123.428 24.2984C122.332 24.7254 121.136 24.9361 119.924 24.9361L119.922 24.9342ZM110.07 16.4706C110.089 16.493 110.129 16.5322 110.214 16.575L110.265 16.6067L110.693 16.9069C111.097 17.2165 111.2 17.6006 111.285 17.9083C111.311 18.0052 111.336 18.0966 111.369 18.1824L111.38 18.2178C111.971 20.2484 113.555 22.0105 115.724 23.0491C118.061 24.1678 120.801 24.3133 123.052 23.4369C124.65 22.7451 125.696 21.7438 125.708 21.7326C126.499 20.9644 127.223 20.0899 127.392 19.7748L127.555 19.4149C127.955 18.1246 128.289 17.7292 128.381 17.6397C128.908 17.127 129.053 16.4184 129.04 16.1853C128.731 15.8068 128.112 14.7365 127.804 14.1771C127.775 14.123 124.788 8.81442 120.868 8.29418C116.575 7.77022 112.158 10.7406 111.227 14.7757L111.221 14.7999C111.198 14.8782 111.185 14.9659 111.172 15.0572C111.127 15.3425 111.066 15.7341 110.658 16.0548L110.639 16.0697L110.189 16.383C110.122 16.4184 110.087 16.4501 110.07 16.4688V16.4706ZM84.9575 24.7776C81.6275 24.7776 78.2631 22.3815 78.1079 22.2678C76.7917 21.3187 76.3893 21.0576 76.2725 20.9886C76.0732 20.9458 75.8203 20.7444 75.4314 19.5398C75.2723 19.0494 74.1477 17.6211 73.9177 17.4328C73.9177 17.4328 73.1993 16.9386 73.2318 16.3904C73.2433 16.1723 73.366 15.9895 73.5652 15.8851C73.7702 15.7583 74.7876 14.7141 75.3317 13.875C75.4697 13.6643 78.7345 8.70068 82.9285 8.11704C87.7624 7.52968 92.3281 13.5879 92.5217 13.8471C93.2152 14.7794 93.8054 15.5476 93.9203 15.6819C94.2613 16.0753 94.4759 16.4035 94.4223 16.741C94.3955 16.9107 94.2997 17.0561 94.154 17.1493C93.9835 17.2985 93.3168 18.2364 92.7228 19.2564C92.6117 19.4466 89.9639 23.9198 85.9633 24.6993C85.63 24.7533 85.2928 24.7776 84.9556 24.7776H84.9575ZM76.7035 20.157C76.943 20.2875 77.4374 20.6232 78.6789 21.5201C78.7172 21.548 82.5874 24.3021 85.7928 23.7819C89.345 23.0901 91.8664 18.8387 91.8913 18.7958C91.9028 18.7772 92.8455 17.1699 93.4126 16.562C93.3704 16.5005 93.3015 16.411 93.1922 16.2823C93.0256 16.0921 92.3281 15.171 91.7476 14.3915C91.7035 14.3337 87.3179 8.51794 83.0588 9.04004C79.3131 9.56027 76.1747 14.3244 76.1441 14.371C75.6536 15.1262 74.7972 16.079 74.2914 16.5079C74.3488 16.5694 74.4178 16.6347 74.4734 16.672C74.8087 16.8939 76.1192 18.5571 76.3472 19.2583C76.5005 19.73 76.6384 20.0339 76.7055 20.1551L76.7035 20.157ZM94.1464 17.1568L94.1406 17.1605C94.1406 17.1605 94.1445 17.1587 94.1464 17.1568ZM226.665 24.7198C223.717 24.7198 221.191 23.1609 219.478 21.7084L219.16 21.4287C218.708 21.0707 218.218 19.7748 218.02 19.2079C218.02 19.2042 217.812 18.628 217.174 17.5484L217.156 17.5148L217.049 17.2929C216.695 17.017 216.493 16.6925 216.493 16.3867C216.493 16.1667 216.597 15.969 216.777 15.8422C216.928 15.7117 217.635 14.7757 218.103 14.1566L218.369 13.8042C218.576 13.532 223.49 7.13811 228.719 8.31283C232.699 9.28058 235.582 13.5898 235.703 13.7725C236.362 14.7701 236.931 15.4469 237.063 15.5458C237.067 15.5476 237.793 16.0436 237.762 16.5956C237.751 16.8137 237.628 16.9983 237.427 17.1009C237.22 17.2258 236.176 18.2588 235.603 19.0923C235.479 19.2732 232.501 23.5432 228.535 24.5072C227.897 24.6526 227.273 24.7198 226.665 24.7198ZM219.739 20.6847L219.747 20.6884L220.115 21.0129C222.004 22.6146 224.966 24.3692 228.309 23.6029C231.907 22.7283 234.777 18.615 234.806 18.5739C235.302 17.8523 236.189 16.9032 236.701 16.4762C236.643 16.4147 236.576 16.3513 236.519 16.3159C236.128 16.0585 235.285 14.8689 234.894 14.2778C234.867 14.2368 232.091 10.0954 228.493 9.21904C223.879 8.18417 219.185 14.2965 219.137 14.358L218.871 14.7085C218.124 15.6987 217.737 16.1965 217.507 16.4389C217.549 16.4855 217.612 16.5452 217.706 16.6105L217.808 16.6813L218.011 17.1009C218.693 18.2607 218.913 18.8816 218.923 18.9077C219.268 19.8922 219.613 20.5337 219.735 20.6847H219.739ZM59.0404 8.30164C58.8564 8.30164 58.6821 8.27181 58.5384 8.19722C58.366 8.10586 58.251 7.95669 58.2146 7.77768C58.1859 7.6397 58.1974 7.4234 58.4043 7.1754C58.6955 6.83044 59.391 6.42582 60.395 6.42582H60.7264C60.9755 6.42582 61.5579 6.42582 61.6518 6.90316C61.7534 7.41967 61.1575 7.67699 60.1785 8.05365C59.9447 8.14315 59.4695 8.30351 59.0404 8.30351V8.30164ZM274.164 8.25316C273.982 8.25316 273.809 8.22519 273.667 8.14874C273.499 8.05924 273.384 7.9138 273.347 7.74039C273.319 7.608 273.324 7.39916 273.52 7.16608C273.826 6.79688 274.57 6.42582 275.535 6.42582H275.721C275.976 6.42582 276.572 6.42582 276.664 6.90689C276.762 7.41594 276.173 7.67699 275.267 8.01635C275.041 8.10213 274.579 8.2513 274.164 8.2513V8.25316ZM202.402 8.25316C202.22 8.25316 202.047 8.22519 201.905 8.15061C201.737 8.0611 201.622 7.91566 201.585 7.74225C201.557 7.608 201.562 7.40102 201.758 7.16794C202.064 6.79875 202.808 6.42768 203.773 6.42768H203.959C204.214 6.42768 204.81 6.42768 204.902 6.90876C205 7.4178 204.411 7.67885 203.505 8.01822C203.279 8.10399 202.817 8.25316 202.402 8.25316ZM130.64 8.25316C130.458 8.25316 130.285 8.22519 130.143 8.15061C129.975 8.0611 129.86 7.91566 129.823 7.74225C129.795 7.608 129.8 7.40102 129.996 7.16794C130.302 6.79875 131.046 6.42768 132.011 6.42768H132.197C132.452 6.42768 133.048 6.42768 133.14 6.90876C133.238 7.4178 132.649 7.67885 131.743 8.01822C131.517 8.10399 131.055 8.25316 130.64 8.25316ZM287.876 8.22146C287.468 8.22146 287.018 8.07602 286.795 7.99584C285.813 7.6341 285.36 7.37865 285.449 6.91249C285.541 6.42768 286.146 6.42768 286.405 6.42768H286.493C287.479 6.42768 288.225 6.79502 288.526 7.16049C288.711 7.38611 288.715 7.58935 288.687 7.71988C288.648 7.89142 288.535 8.03313 288.368 8.12077C288.229 8.19536 288.056 8.22333 287.876 8.22333V8.22146ZM238.126 8.15061C237.944 8.15061 237.829 8.11704 237.728 8.05551C237.603 7.98093 237.519 7.86532 237.49 7.7292C237.462 7.59681 237.467 7.3917 237.657 7.16235C237.962 6.79502 238.705 6.42582 239.682 6.42582H239.818C240.678 6.42582 241.292 6.46497 241.353 6.97216C241.412 7.46442 240.83 7.59867 240.583 7.65648C240.462 7.68445 240.316 7.71988 240.154 7.75903C239.031 8.03314 238.464 8.15061 238.126 8.15061ZM166.364 8.15061C166.182 8.15061 166.067 8.11704 165.966 8.05551C165.843 7.98093 165.757 7.86532 165.728 7.7292C165.7 7.59681 165.703 7.3917 165.895 7.16235C166.2 6.79502 166.943 6.42582 167.92 6.42582H168.056C168.916 6.42582 169.53 6.46497 169.591 6.97216C169.65 7.46442 169.068 7.59867 168.821 7.65648C168.7 7.68445 168.552 7.71988 168.391 7.75903C167.269 8.03314 166.704 8.14874 166.366 8.14874L166.364 8.15061ZM251.523 8.10586C251.318 8.10586 251.103 8.07229 250.892 7.99398C249.91 7.63224 249.457 7.37678 249.546 6.91062C249.637 6.42582 250.243 6.42582 250.502 6.42582H250.59C251.843 6.42582 252.594 6.59177 252.82 6.92181C252.925 7.07471 252.946 7.25931 252.875 7.42899C252.732 7.77209 252.168 8.10586 251.523 8.10586ZM179.761 8.10586C179.556 8.10586 179.341 8.07229 179.13 7.99398C178.148 7.63224 177.695 7.37678 177.783 6.91062C177.875 6.42582 178.481 6.42582 178.74 6.42582H178.828C180.081 6.42582 180.832 6.59177 181.058 6.92181C181.163 7.07471 181.184 7.25931 181.113 7.42899C180.97 7.77209 180.406 8.10586 179.761 8.10586ZM107.999 8.10586C107.794 8.10586 107.579 8.07229 107.368 7.99398C106.385 7.63224 105.933 7.37678 106.021 6.91062C106.113 6.42582 106.719 6.42582 106.978 6.42582H107.066C108.319 6.42582 109.07 6.59177 109.296 6.92181C109.401 7.07471 109.422 7.25931 109.351 7.42899C109.208 7.77209 108.646 8.10586 107.999 8.10586ZM94.7365 8.10586C94.5564 8.10586 94.4414 8.07416 94.3418 8.01449C94.2192 7.94177 94.1349 7.82803 94.1042 7.69564C94.0736 7.56698 94.0755 7.36932 94.2556 7.15116C94.5507 6.79129 95.296 6.42768 96.2999 6.42768C97.2004 6.42768 97.7944 6.46497 97.8557 6.97216C97.9131 7.45883 97.3518 7.58749 97.1123 7.64156C97.005 7.6658 96.8747 7.6975 96.7329 7.73106C95.637 7.99211 95.0756 8.10586 94.7384 8.10586H94.7365ZM36.4149 8.06483C36.2156 8.06483 36.0087 8.03313 35.8037 7.96041C34.8821 7.63037 34.4319 7.37865 34.5162 6.91435C34.6043 6.42768 35.1944 6.42768 35.478 6.42768C37.3556 6.42768 37.6066 6.79129 37.6871 6.91062C37.7905 7.05979 37.8097 7.24812 37.7388 7.41221C37.5989 7.74225 37.0471 8.0667 36.413 8.0667L36.4149 8.06483ZM215.83 7.83362C215.729 7.83362 215.62 7.83175 215.501 7.82802C214.888 7.80938 214.244 7.73852 213.863 7.65088C213.618 7.59494 213.043 7.46069 213.102 6.97216C213.163 6.46497 213.78 6.42582 214.645 6.42582H214.733C215.986 6.42582 216.737 6.59177 216.963 6.92181C217.068 7.07471 217.089 7.25931 217.018 7.42899C216.894 7.72361 216.593 7.83548 215.83 7.83548V7.83362ZM144.068 7.83362C143.967 7.83362 143.858 7.83175 143.739 7.82802C143.126 7.80938 142.482 7.73852 142.101 7.65088C141.856 7.59494 141.281 7.46069 141.34 6.97216C141.401 6.46497 142.018 6.42582 142.882 6.42582H142.971C144.224 6.42582 144.975 6.59177 145.201 6.92181C145.306 7.07471 145.327 7.25931 145.256 7.42899C145.132 7.72361 144.831 7.83548 144.068 7.83548V7.83362ZM72.475 7.80751C72.3792 7.80751 72.2758 7.80751 72.1646 7.80192C71.5688 7.78327 70.9461 7.71801 70.5802 7.6341C70.3426 7.58003 69.7831 7.45323 69.8406 6.96656C69.9 6.46125 70.4901 6.42395 71.3829 6.42395C73.2606 6.42395 73.5116 6.78756 73.592 6.90689C73.6955 7.05607 73.7147 7.24439 73.6438 7.40848C73.5211 7.6975 73.2242 7.80565 72.4712 7.80565L72.475 7.80751ZM288.403 5.35738H273.631C272.449 5.35738 270.788 4.99005 269.851 4.52202C269.663 4.42693 269.42 4.31878 269.161 4.2013C268.015 3.6848 267.492 3.44986 267.605 2.94454C267.705 2.50076 268.232 2.50076 268.404 2.50076H293.628C293.8 2.50076 294.325 2.50076 294.427 2.94454C294.542 3.44986 294.019 3.6848 292.871 4.2013C292.612 4.31691 292.369 4.42693 292.181 4.52202C291.244 4.99005 289.585 5.35738 288.401 5.35738H288.403ZM269.738 3.43307C269.941 3.52444 270.129 3.61208 270.29 3.69226C271.083 4.08943 272.614 4.42506 273.631 4.42506H288.403C289.42 4.42506 290.951 4.08943 291.744 3.69226C291.905 3.61208 292.095 3.52444 292.296 3.43307H269.738ZM216.641 5.35738H201.869C200.687 5.35738 199.026 4.99005 198.089 4.52202C197.901 4.42693 197.658 4.31878 197.399 4.2013C196.253 3.6848 195.73 3.44986 195.843 2.94454C195.943 2.50076 196.47 2.50076 196.642 2.50076H221.866C222.36 2.50076 223.107 2.50076 223.184 3.05455C223.261 3.60835 222.538 3.80041 222.061 3.92534C222.036 3.93093 221.214 4.12299 220.419 4.52016C219.482 4.98818 217.823 5.35552 216.639 5.35552L216.641 5.35738ZM197.976 3.43307C198.179 3.52444 198.367 3.61208 198.528 3.69226C199.321 4.08943 200.852 4.42506 201.869 4.42506H216.641C217.658 4.42506 219.189 4.08943 219.982 3.69226C220.178 3.5953 220.371 3.50952 220.557 3.43307H197.976ZM144.879 5.35738H130.107C128.925 5.35738 127.264 4.99005 126.327 4.52202C126.139 4.42693 125.896 4.31878 125.637 4.2013C124.491 3.6848 123.968 3.44986 124.081 2.94454C124.181 2.50076 124.708 2.50076 124.88 2.50076H150.104C150.598 2.50076 151.345 2.50076 151.422 3.05455C151.499 3.60835 150.776 3.80041 150.299 3.92534C150.274 3.93093 149.452 4.12299 148.657 4.52016C147.72 4.98818 146.061 5.35552 144.877 5.35552L144.879 5.35738ZM126.214 3.43307C126.417 3.52444 126.605 3.61208 126.765 3.69226C127.559 4.08943 129.09 4.42506 130.107 4.42506H144.879C145.896 4.42506 147.427 4.08943 148.22 3.69226C148.416 3.5953 148.609 3.50952 148.795 3.43307H126.214ZM73.2625 5.35738H58.4905C57.3084 5.35738 55.6472 4.99005 54.7103 4.52202C54.5226 4.42693 54.2792 4.31878 54.0206 4.20317C52.8748 3.68667 52.3518 3.45172 52.4648 2.9464C52.5644 2.50262 53.0913 2.50262 53.2638 2.50262H78.4873C78.9816 2.50262 79.7288 2.50262 79.8055 3.05642C79.8821 3.61022 79.1598 3.80227 78.6827 3.9272C78.6578 3.9328 77.8359 4.12486 77.0408 4.52202C76.1039 4.99005 74.4446 5.35738 73.2606 5.35738H73.2625ZM54.5973 3.43307C54.8004 3.52444 54.9881 3.61208 55.1491 3.69226C55.9423 4.08943 57.4731 4.42506 58.4905 4.42506H73.2625C74.2799 4.42506 75.8107 4.08943 76.6039 3.69226C76.7993 3.5953 76.9929 3.50952 77.1787 3.43307H54.5973Z" fill="currentColor"/>
</svg>