<svg xmlns="http://www.w3.org/2000/svg" width="306" height="42" viewBox="0 0 306 42" fill="none">
  <path d="M102.24 41.3014C99.4929 41.3014 96.7588 41.124 94.1054 40.7709C88.0666 39.9418 78.7483 35.5744 78.3539 35.3887C77.8269 35.14 77.4476 34.9609 77.6171 34.558C77.6372 34.5083 77.6624 34.4668 77.691 34.4337L62.8945 28.4563C62.8945 28.5044 62.8844 28.5541 62.866 28.6088C62.7116 29.0399 62.1812 28.9089 61.7549 28.8028C61.6693 28.7813 53.0559 26.6556 48.046 25.5464C45.3355 25.034 42.8431 24.6228 40.4397 24.2928C37.7442 23.9214 35.2267 23.6595 32.746 23.4903C29.2433 23.2201 25.7876 23.0393 22.4711 22.9531C15.7006 22.7774 3.46699 23.5898 3.34279 23.5981C3.05915 23.6163 2.39116 23.6611 2.26361 23.1753C2.13605 22.6895 2.73858 22.4076 2.99705 22.2866L4.48408 21.5553C3.2723 21.4492 1.07029 20.985 0.92763 19.0002C0.729583 14.8832 6.16916 13.968 8.49201 13.5767C13.3811 12.8753 21.5564 12.4525 23.7886 12.3447C23.7853 12.3364 23.7836 12.3281 23.7802 12.3215C23.5419 11.781 23.5234 11.2487 23.7248 10.743C24.1042 9.78628 25.1833 9.16284 26.0208 8.80801L26.0527 8.7964C26.1316 8.76987 26.2122 8.745 26.2944 8.72179C26.2911 8.70355 26.2894 8.68531 26.2877 8.66541C26.2592 8.20944 26.7996 8.12488 27.2343 8.0569C27.2511 8.05358 28.9999 7.78166 30.5021 7.61751H30.5373C33.6641 7.53792 36.8329 7.71533 39.8976 7.88777L40.6394 7.92923C42.3379 8.02208 44.5416 8.03368 46.2888 8.02374L45.8742 7.94912C45.3455 7.88612 44.8924 7.82974 44.9192 7.39201C44.9461 6.95096 45.4093 6.95096 45.9464 6.95096C46.2384 6.95096 53.1247 6.96422 57.4969 8.1398C58.8496 8.37193 60.0782 8.85775 61.3806 9.37176C61.8791 9.56907 62.3943 9.77301 62.9163 9.95872L62.9365 9.96701C73.8777 14.5533 94.9009 22.3081 95.1107 22.386C95.3272 22.4656 95.9868 22.7094 95.9247 23.2333C95.8626 23.7573 95.1644 23.8435 94.9345 23.8717L93.7881 24.0275C96.1328 24.2845 100.064 24.5565 102.744 23.9148C105.434 23.2565 109.073 21.5852 111.302 20.4875L110.093 20.5986C109.701 20.6285 109.115 20.6732 109.018 20.2106C108.92 19.748 109.477 19.5607 109.845 19.438C109.89 19.4231 114.37 17.9175 117.289 16.9575C119.816 16.1218 122.342 15.2828 124.871 14.4405C137.516 10.171 161.539 2.6731 161.779 2.59683C161.975 2.53548 162.121 2.49072 162.22 2.46253C162.755 2.30667 162.853 2.59683 162.885 2.693C163.014 3.07934 162.62 3.22193 162.49 3.26836C162.398 3.30152 162.26 3.3496 162.077 3.41261L160.569 4.12393L166.285 3.19374L167.806 2.80741C167.979 2.75601 168.151 2.7129 168.324 2.67642L168.366 2.85549L174.615 1.83743L174.59 1.63349C174.786 1.60198 174.997 1.58872 175.219 1.5854L176.976 1.45276L179.601 1.02497L179.022 0.980203C178.826 0.980203 178.676 0.980203 178.577 0.976887C178.018 0.966938 178.015 0.660193 178.013 0.560708C178.008 0.15282 178.43 0.136239 178.567 0.131265C178.67 0.127949 178.824 0.122974 179.029 0.118C179.266 0.113026 184.873 -0.00635598 188.409 0.826001C191.474 1.58209 194.398 2.53714 196.856 3.37116C197.712 3.66132 198.565 3.9548 199.416 4.24828C201.279 4.89162 203.204 5.55485 205.097 6.15176C210.488 7.92923 220.355 8.80469 220.454 8.81298C220.867 8.84946 221.433 8.89755 221.441 9.36181C221.45 9.73322 221.09 9.85426 220.736 9.91395L235.892 10.7496L235.739 10.7049C235.454 10.612 234.821 10.4031 234.888 9.90566C234.957 9.40823 235.623 9.37342 235.909 9.35849C235.981 9.35518 237.704 9.27061 239.415 9.60721C241.67 9.98691 244.059 10.4163 246.702 10.9204C250.51 11.5555 254.369 12.2436 258.1 12.9101C267.093 14.5151 276.392 16.1765 285.868 17.2294C289.237 17.5627 293.965 19.3186 294.165 19.3932C294.875 19.6585 295.002 20.015 294.984 20.267C294.965 20.519 294.789 20.854 294.05 21.0198L294 21.0281L291.588 21.2702C292.24 21.4642 293.676 21.9019 294.906 22.3595C295.625 22.6464 296.429 22.91 297.28 23.1902C300.933 24.3923 305.48 25.8863 305.037 30.1177C304.948 30.8688 304.601 31.4508 304.007 31.8487C302.753 32.6894 300.438 32.6744 297.127 31.8023C290.692 30.2769 280.525 27.2177 276.213 25.8979C276.099 26.2643 275.921 26.581 275.682 26.8463C276.23 26.9192 276.527 26.9889 276.486 27.3785C276.444 27.8013 276.089 27.7781 275.444 27.7317L274.058 27.7168C273.22 27.8925 272.262 27.8345 271.374 27.6886L253.78 27.5012L254.602 27.7582C255.163 27.8577 255.564 27.934 255.509 28.3618C255.453 28.7945 255.032 28.7614 254.451 28.7166C254.381 28.7116 247.315 28.1661 243.181 28.0069L242.684 27.987C238.507 27.8246 234.187 27.6571 229.9 27.3371C223.071 26.8181 212.393 23.3461 208.068 21.8588L206.123 21.2237C205.931 21.1458 205.789 21.0878 205.695 21.0463C205.186 20.8274 205.299 20.5423 205.336 20.4494C205.455 20.1476 205.732 20.1725 205.905 20.2189C204.154 19.3319 201.991 18.3005 200.203 17.6373C197.934 16.6938 194.624 15.5945 192.541 14.928L192.973 15.2381C193.37 15.4652 193.809 15.7239 193.616 16.1284C193.421 16.538 192.927 16.3573 192.491 16.1981C192.447 16.1815 188.045 14.5798 185.2 14.2034C170.882 12.3016 144.745 25.9725 144.483 26.1101C143.907 26.4135 143.59 26.581 143.374 26.2096C143.221 25.9443 143.332 25.7752 143.61 25.5762C139.035 27.6952 132.877 30.5803 128.728 32.6579C127.96 33.0575 127.08 33.5151 126.239 33.9528L126.36 33.9147C126.738 33.7986 127.302 33.6278 127.493 34.0556C127.684 34.4834 127.176 34.7786 126.84 34.9725C126.573 35.1268 120.268 38.7662 115.845 39.7246C111.45 40.6896 106.866 41.0295 102.548 41.2948H102.524C102.425 41.2948 102.326 41.2948 102.227 41.2948L102.24 41.3014ZM83.0735 36.5245C86.3647 37.8593 90.8695 39.4892 94.2195 39.9485C96.9233 40.3066 99.7195 40.4807 102.521 40.4707C106.802 40.2088 111.344 39.8722 115.677 38.9204C118.353 38.3418 121.842 36.6903 124.109 35.5181L122.861 35.9193C122.364 36.1083 121.936 36.2675 121.753 35.8679C121.568 35.4667 121.978 35.2528 122.453 35.0041C122.453 35.0041 125.942 33.1802 128.356 31.9267C135.685 28.2573 149.245 22.0826 149.382 22.0196C149.871 21.7974 150.292 21.6051 150.502 21.9947C150.555 22.0942 150.571 22.1854 150.554 22.2683C152.982 21.164 155.94 19.8906 159.149 18.6587C161.51 17.7517 163.764 16.9575 165.907 16.276L160.11 17.4731L159.568 17.7467C159.266 17.9042 158.924 18.08 158.722 17.7169C158.524 17.3621 158.883 17.1465 159.036 17.0553C159.149 16.9873 159.316 16.8912 159.536 16.7651L159.595 16.732L159.83 16.6839L160.673 16.2578C167.176 12.9582 179.803 12.1441 182.486 12.0065L182.95 11.9103H182.995C183.671 11.9169 184.01 11.9202 184.017 12.3447C184.024 12.7708 183.685 12.7841 183.01 12.8106C182.997 12.8106 182.849 12.8173 182.587 12.8322L180.633 13.2351C182.34 13.1456 183.905 13.197 185.326 13.3843C187.082 13.6181 189.342 14.2764 190.917 14.7837L190.453 14.4521C189.982 14.2415 189.586 14.0525 189.739 13.6496C189.896 13.2351 190.339 13.3711 190.851 13.5269C190.893 13.5402 193.693 14.3941 196.596 15.4022L192.788 13.5667L194.122 13.3694C195.192 13.2102 195.918 13.7972 196.504 14.2697C196.762 14.477 197.006 14.6743 197.253 14.797L196.897 15.5083C198.179 15.9577 199.463 16.4319 200.522 16.8713C200.982 17.042 201.467 17.236 201.964 17.4466L202.182 16.9409L202.466 17.0503C202.805 17.1581 203.197 17.2145 203.58 17.2692C204.461 17.3952 205.46 17.5378 205.517 18.4829L205.555 19.113C207.764 20.2073 209.538 21.1939 209.568 21.2121C209.825 21.3547 210.104 21.5106 210.225 21.7112C211.935 22.2783 214.098 22.968 216.441 23.6478C216.609 23.3908 217.051 23.4025 217.418 23.4124C217.495 23.4141 225.174 23.6197 229.673 23.9679C234.19 24.3177 241.56 25.8548 241.635 25.8697C242.182 25.9841 242.615 26.0753 242.548 26.5097C242.481 26.9441 242.041 26.9027 241.482 26.8496C241.43 26.8446 236.167 26.3455 232.772 26.1831C229.781 26.0388 226.711 25.8912 223.714 25.5215C225.953 26.009 228.113 26.3754 229.977 26.5163C234.249 26.8347 238.56 27.0021 242.731 27.1646L243.228 27.1845C245.662 27.2774 249.104 27.5045 251.549 27.677L250.91 27.478L250.376 27.473C249.856 27.488 249.393 27.4996 249.352 27.0585C249.312 26.6175 249.769 26.5462 250.299 26.4649L250.396 26.45L251.046 26.6523L268.325 26.8347C268.004 26.702 267.526 26.4682 267.628 26.0355C267.74 25.5629 268.367 25.6094 268.702 25.6359L268.744 25.6409L274.6 26.6689C274.617 26.6606 274.634 26.6506 274.649 26.6407C275.031 26.4185 275.288 26.0952 275.426 25.6591C274.66 25.4237 274.212 25.2844 274.187 25.2761C273.865 25.1766 273.267 24.9892 273.341 24.51C273.417 24.0309 274.044 24.0309 274.382 24.0309C275.061 24.0309 276.176 24.2564 276.335 25.0705C280.555 26.3621 290.857 29.4661 297.348 31.0064C300.338 31.794 302.536 31.852 303.55 31.1706C303.939 30.9086 304.158 30.5372 304.218 30.0348C304.591 26.4699 300.574 25.1501 297.03 23.9844C296.165 23.7009 295.35 23.4323 294.616 23.1388C293.013 22.5419 291.036 21.9748 291.016 21.9699C290.793 21.9069 290.116 21.7129 290.142 21.1889C290.167 20.665 290.862 20.5389 291.09 20.4958L291.123 20.4909L293.903 20.2106C293.918 20.2073 293.933 20.204 293.948 20.199C293.928 20.1907 293.906 20.1825 293.883 20.1725C293.834 20.1543 289.057 18.3801 285.796 18.0568C276.287 17.0006 266.973 15.3375 257.967 13.7292C254.238 13.0626 250.383 12.3745 246.57 11.7395C243.921 11.2354 241.54 10.8077 239.277 10.4263C238.428 10.2588 237.56 10.2008 236.927 10.1859L239.27 10.8673C239.895 10.8226 240.209 10.8143 240.249 11.2222C240.291 11.645 239.953 11.6848 239.282 11.7644L239.245 11.7693L218.281 10.612L217.425 10.864L217.306 10.8292C216.884 10.7065 216.361 10.5523 216.448 10.1013C216.535 9.65032 217.081 9.70006 217.517 9.73985L218.182 9.77633L219.073 9.51435C216.171 9.21258 209.197 8.37691 204.85 6.94432C202.952 6.34742 201.02 5.68087 199.152 5.03587C198.303 4.74239 197.451 4.44891 196.598 4.15875C196.17 4.01284 195.727 3.86361 195.272 3.71272C195.831 3.93159 196.376 4.14382 196.875 4.33782C199.443 5.33764 202.18 6.40545 204.933 7.523C208.303 8.43826 209.486 8.682 209.503 8.68531C210.166 8.81962 210.498 8.88594 210.421 9.30543C210.345 9.72327 210.01 9.67187 209.342 9.57073C209.08 9.53093 202.867 8.56925 199.21 7.11013C198.359 6.76691 197.389 6.33913 196.405 5.88481C196.413 5.9445 196.405 6.01082 196.38 6.08544C196.239 6.48504 195.908 6.40379 195.109 6.20814L195.035 6.1899C194.334 6.01912 193.924 5.80522 193.819 5.55651C193.745 5.38573 193.785 5.19173 193.919 5.0624C194.028 4.95794 194.188 4.91649 194.364 4.91815C191.902 3.72765 189.799 2.62834 189.764 2.6101C189.307 2.37133 188.94 2.179 189.03 1.83909C188.763 1.76945 188.495 1.70147 188.226 1.63515C186.605 1.25379 184.48 1.07969 182.684 1.00176C182.626 1.39307 182.095 1.471 181.736 1.52405L178.505 2.04967C178.238 2.57694 177.322 2.52056 176.359 2.45921C176.268 2.45424 176.179 2.44761 176.088 2.44263L167.27 3.87853C167.042 3.96641 166.819 4.05926 166.604 4.14714C165.503 4.60145 164.553 4.99442 163.967 4.44228L163.942 4.41907L157.861 5.40894L157.675 5.49682L157.623 5.50677C157.42 5.5449 157.267 5.57309 157.163 5.58967C156.619 5.67755 156.556 5.38075 156.534 5.28293C156.52 5.22158 156.519 5.16686 156.527 5.11878C154.248 5.83507 151.415 6.73043 148.323 7.71036C148.441 7.73689 148.536 7.80819 148.6 7.94912C148.783 8.35204 148.37 8.56427 147.895 8.80801L147.84 8.83122L122.398 17.6655L122.382 17.6688C121.797 17.823 121.409 17.9258 121.278 17.5129C121.147 17.1001 121.525 16.9658 122.097 16.7635C122.22 16.7204 134.394 12.416 141.277 10.1511C143.288 9.42813 144.792 8.88097 145.814 8.5079C138.75 10.7563 130.813 13.3147 125.155 15.2248C122.624 16.0671 120.096 16.9077 117.567 17.7434C115.849 18.3088 113.586 19.0632 112.01 19.5922L113.309 19.4728C113.309 19.4728 113.323 19.4662 113.324 19.4645C113.506 19.3667 113.641 19.2954 113.734 19.249C114.227 18.9986 114.38 19.2639 114.429 19.3501C114.63 19.7033 114.274 19.9188 114.157 19.9901C114.069 20.0432 113.937 20.1211 113.759 20.2239L113.678 20.2703L113.558 20.2819C112.495 20.844 106.868 23.7639 102.957 24.7206C98.7662 25.7238 91.9772 24.6377 91.6902 24.5896C91.2807 24.5233 90.7184 24.4321 90.7469 23.9712C90.7755 23.5185 91.326 23.4887 91.7389 23.4704L94.6105 23.0808C92.3296 22.2368 72.9882 15.0739 62.631 10.733C62.1006 10.5424 61.582 10.3384 61.0819 10.1395C59.8164 9.63871 58.6197 9.16616 57.3475 8.95061L57.3072 8.94231C55.174 8.3653 52.351 8.07514 50.0533 7.92757C50.1893 8.01379 50.2749 8.1398 50.2615 8.32882C50.2312 8.7848 49.6824 8.79806 49.2427 8.80801C49.1907 8.80801 43.9407 8.93568 40.6025 8.75329L39.8606 8.71184C37.4069 8.57422 34.8843 8.43328 32.3818 8.42334C32.9424 8.49795 33.3435 8.55764 33.3083 8.98542C33.2714 9.4215 32.8501 9.40658 32.2677 9.38834L28.243 9.19434C27.5901 9.26232 26.9356 9.38171 26.3448 9.57404C25.7775 9.81612 24.8007 10.3235 24.5154 11.0431C24.3945 11.3465 24.4113 11.6599 24.5657 12.0015L24.5808 12.0396C24.611 12.1291 24.6362 12.2004 24.6563 12.2552C24.7386 12.2552 24.8057 12.2568 24.8594 12.2585C25.4082 12.2751 25.415 12.5785 25.4166 12.678C25.425 13.0792 25.0138 13.1107 24.8779 13.1207C24.7738 13.129 24.6177 13.1373 24.4113 13.1456C24.3106 13.1505 14.2522 13.5883 8.63132 14.3941C5.36858 14.9429 1.63086 15.9593 1.77353 18.9488C1.90947 20.8341 5.21081 20.7545 5.24438 20.7528C5.58005 20.7412 6.20944 20.7213 6.30007 21.1972C6.38903 21.6615 5.82677 21.8687 5.50453 21.9815L3.99736 22.7226C6.70959 22.5535 16.6338 21.9682 22.5013 22.1224C25.8329 22.2086 29.302 22.391 32.8149 22.6613C35.3123 22.8304 37.8466 23.094 40.5622 23.4688C42.9807 23.802 45.4865 24.2149 48.2222 24.7322C51.6579 25.4933 56.7685 26.7269 59.6922 27.4399L57.9215 26.523C57.3089 26.2759 57.0018 26.1482 57.1528 25.7536C57.3055 25.3557 57.6244 25.4651 58.2622 25.6856L58.2824 25.6939L82.486 35.4716L82.5062 35.4832C82.9342 35.7154 83.3772 35.9558 83.1893 36.3653C83.1591 36.4317 83.1205 36.4831 83.0751 36.5229L83.0735 36.5245ZM221.596 24.3791C221.904 24.4271 222.233 24.4785 222.582 24.5316C225.931 25.0241 229.42 25.1915 232.795 25.354C233.46 25.3855 234.193 25.4303 234.945 25.4817C233.106 25.1849 231.177 24.9163 229.605 24.7952C227.289 24.6162 224.123 24.4752 221.594 24.3807L221.596 24.3791ZM175.323 13.4855C171.644 13.9398 167.292 14.6809 163.808 15.8631L175.323 13.4855ZM197.524 5.4819C198.224 5.79693 198.902 6.09041 199.517 6.33747C200.027 6.54141 200.592 6.73541 201.19 6.91945C199.946 6.42866 198.719 5.94782 197.524 5.4819ZM100.403 40.0894C99.0834 40.0894 97.838 40.0181 96.6313 39.8772C92.8332 39.3947 91.3461 39.0945 91.284 39.0813C90.8778 38.9984 90.3206 38.884 90.3676 38.4247C90.4146 37.9654 90.9836 37.9654 91.3998 37.9654C91.4401 37.9654 93.7344 37.9621 96.4668 37.9405C96.2033 37.8609 96.1563 37.7598 96.1143 37.6653C96.0439 37.5111 96.069 37.3353 96.1798 37.2043C96.3258 37.0319 96.4987 36.9921 97.4352 37.0352C97.9287 37.0584 98.4758 37.1015 98.7964 37.1446C99.1253 37.1894 99.5751 37.2491 99.5416 37.6736C99.5332 37.773 99.5046 37.8493 99.4576 37.909C100.552 37.8941 101.614 37.8759 102.539 37.8526C106.688 37.7333 113.709 37.3403 113.779 37.3353C114.268 37.3071 114.773 37.2789 114.831 37.7233C114.89 38.1677 114.395 38.2688 113.917 38.3683C113.868 38.3783 109.103 39.3549 106.03 39.723C103.976 39.9684 102.128 40.0894 100.403 40.0894ZM94.6861 38.7812C95.2768 38.8641 95.9566 38.9553 96.7337 39.0531C99.4493 39.3714 102.373 39.3234 105.929 38.8989C106.921 38.7795 108.093 38.5971 109.224 38.4031C107.039 38.5109 104.493 38.6253 102.563 38.68C100.243 38.7381 97.0609 38.7662 94.6877 38.7795L94.6861 38.7812ZM105.641 37.6006L105.412 36.8031C105.433 36.7964 105.454 36.7915 105.475 36.7865C106.606 36.4764 107.636 36.0768 108.538 35.601L108.956 35.3804L109.127 35.8182C109.286 36.2277 109.19 36.5195 109.081 36.6936C108.731 37.2541 107.814 37.3386 106.842 37.4298C106.426 37.468 105.997 37.5094 105.694 37.5873C105.676 37.5923 105.658 37.5973 105.639 37.6023L105.641 37.6006ZM90.6479 36.5262C86.113 36.5262 82.5414 33.7091 80.2739 31.2253L80.1112 31.0777C79.7083 30.7975 79.084 29.7811 78.9564 29.5689L78.2163 28.4364C77.6641 27.9804 77.6826 27.5758 77.7463 27.3702C77.8118 27.158 78.035 26.7932 78.8104 26.7335C79.4667 26.6821 94.8824 25.5795 95.7552 33.5168C95.9935 35.4037 92.8684 36.241 91.905 36.4532L91.8597 36.4599C91.4502 36.5046 91.0457 36.5262 90.6496 36.5262H90.6479ZM80.5744 30.388L80.6079 30.4045L80.8832 30.6566C83.0315 33.0144 86.41 35.6971 90.6546 35.6971C91.0104 35.6971 91.373 35.6789 91.7422 35.6391C93.4088 35.2693 95.0318 34.5017 94.9194 33.6129C94.1322 26.4616 79.0253 27.5493 78.8742 27.5609C78.7265 27.5725 78.6325 27.5991 78.5788 27.6206C78.6107 27.667 78.6745 27.7417 78.7903 27.8312L78.8457 27.8743L79.6681 29.1328C80.0826 29.8209 80.4619 30.2951 80.5744 30.3896V30.388ZM80.5542 30.378H80.5576C80.5576 30.378 80.5559 30.378 80.5542 30.378ZM116.802 33.9462C113.841 33.9462 110.547 31.6879 110.394 31.5818C109.805 31.1739 109.358 30.9534 109.211 30.9086C109.056 30.9252 108.905 30.8655 108.804 30.7461C108.65 30.5604 108.568 30.242 109.122 29.277C109.266 29.025 112.707 23.1023 116.651 21.4078C118.792 20.5539 122.186 19.9669 124.741 21.1126C126.046 21.6979 126.943 22.6547 127.406 23.9562C128.003 25.2993 127.114 26.4948 127.077 26.5445C126.61 27.158 126.066 27.9638 125.889 28.3021L125.697 28.637C123.903 31.2817 120.848 33.2846 117.727 33.8649C117.425 33.9213 117.114 33.9462 116.8 33.9462H116.802ZM109.607 30.1724C109.88 30.2785 110.281 30.4908 110.876 30.9036C110.914 30.9301 114.769 33.5698 117.572 33.0492C120.474 32.5103 123.316 30.6483 124.991 28.1877L125.148 27.9075C125.345 27.5327 125.899 26.7103 126.404 26.0438C126.429 26.0106 127.038 25.1733 126.632 24.2763L126.619 24.2431C126.236 23.1554 125.487 22.3562 124.393 21.8654C122.228 20.8954 119.108 21.3199 116.975 22.1705C113.299 23.7506 109.885 29.6252 109.85 29.6849C109.731 29.8922 109.654 30.053 109.605 30.1724H109.607ZM77.7765 32.7424L73.3927 30.7262C73.2718 30.6765 73.1527 30.6217 73.0368 30.562L73.4078 29.8192L73.7384 29.9718C74.1748 30.1508 74.6598 30.2752 75.1331 30.3962C76.2341 30.6781 77.2747 30.9451 77.5365 31.8786L77.7782 32.7441L77.7765 32.7424ZM127.369 31.8951L127.53 31.1241C127.782 29.9237 128.876 29.7728 129.933 29.6252C130.428 29.5573 130.939 29.486 131.412 29.3168L131.731 29.1842L132.075 29.9403C131.957 29.995 131.84 30.0447 131.721 30.0878L127.367 31.8935L127.369 31.8951ZM97.4654 27.7234C97.1029 27.7234 96.6783 27.6024 96.1664 27.2708L95.25 26.6772L99.1488 26.0935C99.3251 26.0405 99.5164 26.0073 99.7312 26.0123L99.7866 26.8363L99.3402 26.9027C99.1404 26.9723 98.9575 27.0933 98.7578 27.226C98.407 27.4581 98.0042 27.7234 97.4654 27.7234ZM66.7581 27.6654C66.7581 27.6654 66.7497 27.6604 66.7463 27.6587L62.4397 25.7403L62.8324 25.3175C63.6632 24.4238 64.8683 25.3341 65.8367 26.067C66.273 26.3969 66.7228 26.7385 67.0954 26.9043L67.1022 26.9076C67.1022 26.9076 67.1038 26.9076 67.1055 26.9076L66.7614 27.6654H66.7581ZM138.908 26.4915L138.53 25.752L138.976 25.5066C139.314 25.2844 139.624 24.9975 139.946 24.6991C140.749 23.9562 141.657 23.1139 143.167 23.293L144.455 23.4439L139.411 26.2179C139.252 26.3207 139.085 26.4135 138.908 26.4931V26.4915ZM259.483 26.4682C259.293 26.4682 259.1 26.4533 258.906 26.4301L254.918 26.261L255.448 25.621C255.963 24.9975 256.925 25.1998 257.942 25.4137C258.29 25.4867 258.644 25.5613 258.981 25.6044L259.691 25.6342L259.699 26.4616C259.629 26.4666 259.557 26.4682 259.485 26.4682H259.483ZM105.409 25.3723L105.151 24.583C105.183 24.5731 105.214 24.5631 105.246 24.5532L109.154 23.3378L109.125 23.9297C109.06 25.3142 107.848 25.2744 106.962 25.2462C106.463 25.2297 105.948 25.2131 105.49 25.3457L105.409 25.3706V25.3723ZM245.818 24.3111C244.225 24.3111 242.56 24.1536 241.209 23.6694C239.037 22.9548 236.431 20.7197 236.029 18.5393C235.831 17.4665 236.187 16.528 237.06 15.8283C239.663 13.6131 243.557 13.7624 248.31 16.2677C251.823 18.1198 254.538 20.5638 254.653 20.6666C255.195 21.1574 255.391 21.5835 255.235 21.9301C255.181 22.0511 254.998 22.328 254.49 22.2816C254.273 22.2882 253.568 22.8603 253.241 23.2184C253.179 23.288 253.011 23.4688 251.437 23.7772C251.269 23.8103 248.659 24.3111 245.818 24.3111ZM241.526 15.0955C240.098 15.0955 238.747 15.4851 237.597 16.4634C236.959 16.9757 236.711 17.6224 236.854 18.3901C237.198 20.2538 239.571 22.2551 241.484 22.8851C245.036 24.1619 251.21 22.9747 251.272 22.9631C252.024 22.8155 252.516 22.6729 252.66 22.6149C252.855 22.4109 253.632 21.6333 254.285 21.4791C254.233 21.421 254.168 21.3531 254.082 21.2768C253.996 21.1989 247.169 15.0938 241.523 15.0938L241.526 15.0955ZM234.793 24.064C234.746 24.064 234.699 24.064 234.65 24.0607L233.472 24.006C233.284 23.9977 232.841 23.9761 232.81 23.5716C232.778 23.1355 233.121 23.0708 234.255 22.8536L234.489 22.8089C235.471 22.6165 236.048 22.7061 236.206 23.0725C236.274 23.2333 236.251 23.4157 236.14 23.5732C235.925 23.8767 235.405 24.0624 234.793 24.0624V24.064ZM49.7798 23.6412C49.5985 23.6412 49.3853 23.5964 49.1655 23.5517C49.0681 23.5318 39.3168 21.5272 33.6742 21.0911C30.9502 20.8987 28.1557 20.7694 25.1363 20.6965C22.451 20.6318 19.6447 20.6119 16.5566 20.6384L14.6986 20.6434C14.4049 20.65 13.9668 20.6583 13.9333 20.2388C13.898 19.7994 14.3025 19.7464 15.036 19.6502C15.0829 19.6436 19.8008 19.0268 22.9192 18.8079C26.2592 18.5741 29.4548 18.5211 32.4171 18.6504C38.7781 18.8825 49.0094 22.4192 49.4424 22.5701C49.9258 22.7392 50.384 22.8967 50.2631 23.3262C50.1943 23.5683 50.0147 23.6412 49.7798 23.6412ZM20.9824 19.8044C22.4191 19.8144 23.8037 19.8359 25.1582 19.8674C28.191 19.9404 30.9972 20.0714 33.738 20.2654C36.6331 20.4892 40.5857 21.1193 43.7897 21.688C40.2718 20.6948 35.7235 19.6021 32.3852 19.4794C29.4514 19.3518 26.2877 19.4032 22.9813 19.6353C22.362 19.6784 21.6806 19.7381 20.9841 19.8044H20.9824ZM224.776 23.4472C224.617 23.4472 224.43 23.429 224.226 23.4107L223.559 23.3477C222.045 23.2051 221.95 22.983 221.879 22.8221C221.815 22.6746 221.837 22.5054 221.938 22.3778C222.092 22.1838 222.272 22.1456 223.249 22.2584C223.766 22.3181 224.33 22.4043 224.652 22.4756C225.008 22.5535 225.449 22.6513 225.382 23.0758C225.335 23.3726 225.112 23.4489 224.776 23.4489V23.4472ZM77.3922 22.3827C77.1572 22.3827 76.8216 22.2053 76.2173 21.8704C75.6786 21.5719 75.1012 21.2221 74.779 20.9999C74.3409 20.6981 73.9633 20.4378 74.1983 20.0631C74.4316 19.6883 74.8226 19.8973 75.3161 20.1626L76.4372 20.7628C77.748 21.4642 77.7917 21.7394 77.8118 21.8704C77.8336 22.0097 77.79 22.1456 77.6926 22.2468C77.6037 22.338 77.5114 22.3827 77.3922 22.3827ZM83.3907 22.3529C83.2564 22.3529 83.1255 22.2998 83.0617 22.2716C82.9677 22.2335 82.8267 22.1738 82.6404 22.0926C82.6002 22.076 81.9909 21.814 80.6398 21.1657L57.9618 10.9619L57.9416 10.9503C57.5019 10.6883 57.0874 10.4412 57.2921 10.0466C57.4986 9.65197 57.9433 9.841 58.4133 10.0416C58.5358 10.0947 70.7476 15.3127 77.2898 18.5857C78.8927 19.3965 80.1212 19.9967 81.0208 20.4262L82.9912 21.3133C83.1758 21.3962 83.3151 21.4592 83.4075 21.5006C83.9177 21.7361 83.7918 22.018 83.7498 22.1108C83.6659 22.2982 83.5266 22.3512 83.3924 22.3512L83.3907 22.3529ZM58.1011 21.7775C55.6893 21.7775 49.8905 21.4791 46.8812 18.7764C45.0266 17.173 44.2848 15.3674 44.743 13.5601C45.2012 11.6019 47.1733 10.428 50.0181 10.428C52.8142 10.35 55.4996 11.3018 57.987 13.26C60.2192 15.0159 62.7116 18.5476 62.8156 18.6968C63.1244 19.1362 63.1949 19.6038 63.0069 19.9769C62.8274 20.335 62.4346 20.5588 61.9261 20.597C61.8724 20.6285 61.7163 20.7396 61.4511 21.0596L61.431 21.0828L61.243 21.2768C60.7999 21.6631 59.2491 21.7493 59.1836 21.7543C59.1131 21.7576 58.7187 21.7775 58.1011 21.7775ZM50.3252 11.252C50.2262 11.252 50.1272 11.252 50.0282 11.257C48.8516 11.257 46.084 11.5007 45.557 13.7541C45.0803 15.6393 46.3173 17.188 47.4384 18.1579C50.9664 21.3265 59.0561 20.9302 59.1366 20.9269C59.9305 20.8838 60.5398 20.7329 60.6858 20.6534L60.8083 20.5257C61.2128 20.0382 61.5518 19.7862 61.8203 19.7746C62.0402 19.7646 62.2064 19.7016 62.2534 19.6104C62.3004 19.5176 62.25 19.3501 62.1241 19.171C62.099 19.1362 59.5965 15.5896 57.4616 13.9099C55.221 12.1474 52.821 11.2553 50.3236 11.2553L50.3252 11.252ZM271.169 21.2983C270.931 21.2983 270.508 21.2237 269.728 20.9402L267.42 20.1642C266.871 19.9934 266.47 19.8674 266.582 19.4463C266.695 19.0251 267.108 19.113 267.678 19.2357L269.669 19.6618L248.495 13.1754C247.89 12.9814 247.528 12.867 247.647 12.4541C247.766 12.0413 248.135 12.1325 248.748 12.2833L278.247 19.0616C278.648 19.1511 279.204 19.2738 279.148 19.7331C279.095 20.1874 278.536 20.1858 278.123 20.1808L274.538 20.3317C273.694 20.4527 272.348 20.408 271.523 20.2305L271.488 20.2206L270.983 20.0664C271.403 20.2803 271.732 20.5738 271.69 20.8987C271.673 21.0347 271.594 21.1524 271.475 21.2237C271.428 21.2519 271.352 21.2983 271.166 21.2983H271.169ZM271.722 19.4231C272.46 19.5789 273.699 19.617 274.439 19.5076L274.482 19.5026L276.161 19.4313L258.526 15.379L271.72 19.4214L271.722 19.4231ZM213.763 19.5491C211.349 19.5491 208.879 19.0765 207.318 17.5047C207.23 17.4284 207.011 17.2427 206.893 17.183L206.888 17.1797C206.487 16.9707 205.268 16.3374 205.525 15.0706C206.086 12.6713 208.689 11.4211 210.971 11.4211C215.439 11.4211 221.132 16.1798 221.372 16.3821C221.785 16.7303 221.973 17.1631 221.888 17.571C221.802 17.9789 221.456 18.3038 220.938 18.4614C220.701 18.5327 217.296 19.5474 213.763 19.5474V19.5491ZM207.276 16.4451C207.428 16.5231 207.605 16.6524 207.882 16.8912L207.907 16.9144C211.386 20.4428 220.599 17.6986 220.691 17.6705C220.943 17.5942 221.05 17.4831 221.067 17.4052C221.084 17.3272 221.03 17.183 220.829 17.0139C220.771 16.9658 215.129 12.2518 210.971 12.2518C209.02 12.2518 206.804 13.2799 206.346 15.2463C206.282 15.5597 206.341 15.9593 207.276 16.4451ZM42.348 19.5176C42.2137 19.5176 42.0727 19.5076 41.9267 19.4861L40.1174 19.2241C39.9546 19.2009 39.5233 19.1379 39.5417 18.7333C39.5619 18.3221 39.9832 18.2889 40.4732 18.2508C40.7888 18.2259 41.1781 18.206 41.4886 18.1911L41.6917 18.1811C43.308 18.0966 43.4658 18.4945 43.5178 18.6255C43.5849 18.7946 43.5497 18.987 43.4272 19.1395C43.2291 19.3849 42.833 19.5192 42.3463 19.5192L42.348 19.5176ZM146.412 19.1511L146.177 19.1362C145.759 19.1627 145.01 18.8311 144.688 18.6753C144.392 18.5327 143.419 18.0137 143.307 17.3073C143.261 17.0155 143.367 16.7303 143.604 16.5065L143.656 16.4584L143.719 16.4302L164.083 7.30579L164.147 7.2975C164.894 7.20464 165.182 7.46331 165.293 7.69544C165.404 7.92923 165.422 8.3139 164.875 8.82293C164.442 9.22585 154.162 18.7151 146.437 19.1511H146.41H146.412ZM146.121 18.3005L146.417 18.3204C153.835 17.8794 164.197 8.3139 164.301 8.21773C164.347 8.17462 164.383 8.13814 164.412 8.10498C164.383 8.10498 164.35 8.1083 164.313 8.11161L144.146 17.1482C144.134 17.1664 144.136 17.1747 144.136 17.1797C144.161 17.3405 144.537 17.6804 145.054 17.9308C145.561 18.1745 145.963 18.2939 146.093 18.3105L146.121 18.3022V18.3005ZM127.966 18.9903C127.879 18.9903 127.829 18.9737 127.797 18.9621C127.661 18.9173 127.555 18.8162 127.505 18.6869C127.471 18.5973 127.449 18.4531 127.535 18.269C127.678 17.9606 128.156 17.5113 128.863 17.2559L130.081 16.8149C130.239 16.7585 130.658 16.606 130.84 16.9707C131.021 17.3388 130.67 17.571 130.298 17.8164C130.051 17.9789 129.739 18.1712 129.485 18.3271L129.338 18.4183C128.559 18.8991 128.168 18.992 127.966 18.992V18.9903ZM28.5518 18.2259C28.436 18.2259 28.3101 18.2193 28.1759 18.2127L25.0121 18.0535C24.3324 18.0187 23.8272 17.7865 23.6594 17.4284C23.5721 17.2427 23.5906 17.0404 23.7081 16.8878C23.7886 16.7817 24.037 16.4617 25.7322 16.8049L28.285 17.246C28.8304 17.3289 29.2685 17.3952 29.2248 17.8296C29.1913 18.1613 28.9244 18.2276 28.5518 18.2276V18.2259ZM257.271 17.9324C257.058 17.9324 256.787 17.9175 256.447 17.9009L256.25 17.891C255.737 17.8661 254.846 17.76 254.646 17.3372C254.56 17.1565 254.592 16.9459 254.728 16.7867C254.982 16.4932 255.532 16.4319 256.203 16.6192L257.472 16.9757C257.655 17.0271 258.087 17.1482 258.018 17.5494C257.967 17.8528 257.779 17.9341 257.269 17.9341L257.271 17.9324ZM66.3889 16.48C66.2512 16.48 66.1035 16.4451 65.976 16.4153C65.7679 16.3655 65.506 16.2959 65.2543 16.2296C65.1015 16.1881 64.9538 16.1483 64.8313 16.1185C64.1801 15.9527 63.3795 15.6658 63.2705 15.2397C63.2218 15.0457 63.2923 14.8451 63.4567 14.7141C63.7605 14.472 64.2959 14.5118 64.9253 14.8235L66.409 15.5564C66.5751 15.6393 66.9645 15.8316 66.8185 16.2097C66.7363 16.4219 66.5701 16.4816 66.3889 16.4816V16.48ZM138.861 14.3493C138.661 14.3493 138.5 14.2797 138.424 14.0608C138.28 13.6413 138.703 13.4689 139.238 13.2517L140.5 12.741C141.882 12.1822 142.055 12.3646 142.194 12.5122C142.323 12.6465 142.352 12.8454 142.266 13.0179C142.036 13.4855 139.478 14.2333 139.451 14.2399C139.245 14.2946 139.037 14.351 138.859 14.351L138.861 14.3493ZM234.064 13.711C233.692 13.711 233.247 13.5949 232.762 13.4689C232.386 13.3711 231.978 13.2649 231.615 13.2202L231.048 13.2135L231.001 12.3878C231.213 12.3613 231.436 12.3663 231.667 12.3928L235.024 12.4359L235.016 12.8521C235.009 13.2235 234.838 13.4274 234.695 13.5335C234.521 13.6629 234.307 13.7126 234.062 13.7126L234.064 13.711ZM222.973 13.6131C222.589 13.6131 222.154 13.4622 221.673 12.998L220.914 12.2635L224.182 12.3364C224.566 12.2054 225.016 12.1557 225.55 12.4027L227.349 13.2367L224.328 13.1688C224.236 13.2069 224.138 13.2517 224.033 13.3031C223.735 13.444 223.383 13.6131 222.975 13.6131H222.973ZM166.617 11.9982C166.379 11.9982 166.282 11.9186 166.201 11.8191C166.082 11.6715 166.07 11.4692 166.173 11.3034C166.446 10.8557 169.059 10.2406 169.085 10.2356C169.502 10.1544 169.976 10.0632 170.09 10.486C170.207 10.9171 169.751 11.0696 169.224 11.2487L167.9 11.6964C167.243 11.9186 166.859 11.9982 166.617 11.9982ZM191.212 10.5639C191.167 10.5639 191.123 10.5639 191.085 10.5639C190.887 10.5606 186.199 10.491 183.851 9.37507C181.137 8.08509 179.633 6.79012 179.383 5.52501C179.252 4.86509 179.455 4.23502 179.986 3.65635C180.959 2.59352 182.943 2.05132 185.162 2.23869L185.195 2.24366C189.178 2.90524 192.822 5.1337 193.671 7.42517C194.025 8.37857 193.872 9.28222 193.23 10.0383L193.1 10.2025C192.798 10.5208 191.761 10.5639 191.212 10.5639ZM184.312 3.03125C182.696 3.03125 181.291 3.46898 180.61 4.21346C180.261 4.59316 180.13 4.97121 180.209 5.36749C180.4 6.33415 181.823 7.49149 184.217 8.62894C186.399 9.66524 191.051 9.73488 191.098 9.73488C191.823 9.74317 192.348 9.66026 192.511 9.60555L192.583 9.51104C193.031 8.98708 193.134 8.38188 192.884 7.71036C192.144 5.71237 188.715 3.67293 185.074 3.06441C184.816 3.04286 184.562 3.03291 184.312 3.03291V3.03125ZM205.101 10.4611C204.896 10.4611 204.607 10.3567 204.13 10.1693C203.652 9.98027 203.164 9.76141 202.885 9.61218C202.588 9.453 202.182 9.23414 202.365 8.84614C202.555 8.44323 202.984 8.60738 203.578 8.8362L204.008 9.00201C205.43 9.54751 205.483 9.76638 205.522 9.9239C205.555 10.0615 205.52 10.2074 205.426 10.3135C205.337 10.4147 205.238 10.4611 205.102 10.4611H205.101ZM43.2627 10.1892C42.8095 10.1892 42.3127 10.0383 41.873 9.904C41.6078 9.82276 41.3376 9.74151 41.0858 9.68845L36.3394 9.41487L40.3289 8.82293C40.6075 8.78148 40.8995 8.80635 41.1966 8.86438L44.7447 9.06999L44.3284 9.67519C44.0616 10.0632 43.6806 10.1909 43.2627 10.1909V10.1892ZM177.822 9.61052C177.59 9.61052 177.238 9.56907 177.184 9.21424C177.122 8.80469 177.518 8.62728 178.433 8.38354C179.762 8.02871 179.895 8.46976 179.939 8.61567C179.98 8.75661 179.952 8.90418 179.86 9.03351C179.638 9.3386 178.989 9.57073 178.28 9.5956L177.935 9.60886C177.903 9.60886 177.866 9.61218 177.824 9.61218L177.822 9.61052Z" fill="currentColor"/>
</svg>