<svg xmlns="http://www.w3.org/2000/svg" width="113" height="113" viewBox="0 0 113 113" fill="none">
  <path d="M66.5774 22.7055C66.3697 22.7055 66.1179 22.6006 65.7864 22.4285C65.6332 22.3551 64.945 22.2481 64.7415 22.2481C64.6052 22.2691 64.1645 22.3047 63.9107 22.0215C63.7785 21.8746 63.7302 21.6732 63.7764 21.4823C63.7911 21.3459 63.7764 20.7584 63.6799 20.343C63.6526 20.2213 63.019 17.3322 64.2862 15.6432C65.7906 13.7088 69.5168 14.2795 69.6742 14.3047C70.2281 14.3928 70.6645 14.4557 70.7337 14.462C71.017 14.4851 71.3023 14.5396 71.4765 14.7767C71.5667 14.8984 71.6044 15.0516 71.5856 15.2005C71.594 15.339 71.6884 15.8279 71.8164 16.2874C71.8457 16.3944 72.5213 18.91 71.3925 20.6053C70.3183 22.1096 67.8782 22.4873 67.7754 22.502C67.1124 22.6006 66.8732 22.6446 66.7914 22.6614C66.7242 22.6929 66.6529 22.7055 66.5753 22.7055H66.5774ZM64.7793 22.2397C64.7793 22.2397 64.7667 22.2418 64.7562 22.2439C64.7646 22.2439 64.773 22.2418 64.7793 22.2397ZM64.7919 21.7445C64.7919 21.7445 64.7919 21.7508 64.7898 21.755C64.7898 21.7508 64.7898 21.7487 64.7919 21.7445ZM64.8296 21.2011C65.2451 21.22 65.9794 21.3438 66.2731 21.497C66.4011 21.5641 66.5039 21.6082 66.569 21.6354C66.7515 21.5956 67.0599 21.5452 67.6222 21.4634C67.6432 21.4613 69.7266 21.134 70.5302 20.0094C71.382 18.7296 70.8114 16.5874 70.8072 16.5664C70.7547 16.3797 70.6267 15.895 70.5701 15.5006C70.3456 15.4733 69.8399 15.3957 69.5105 15.3432C68.6041 15.2005 66.0487 15.0893 65.1213 16.2811C64.152 17.5735 64.6996 20.0891 64.7038 20.1143C64.7709 20.4081 64.8192 20.8445 64.8276 21.2053L64.8296 21.2011ZM63.7869 21.4487C63.7869 21.4487 63.7827 21.4613 63.7806 21.4676C63.7806 21.4613 63.7848 21.455 63.7869 21.4487ZM70.5575 15.0222C70.5512 15.0516 70.547 15.081 70.5449 15.1103C70.5449 15.0768 70.5512 15.0474 70.5575 15.0222Z" fill="currentColor"/>
  <path d="M56.5211 81.3766C56.2609 81.3766 56.0385 81.1542 55.9357 81.0513C55.8959 81.0115 54.9328 80.0505 54.2551 79.312L54.1418 79.1903C54.0621 79.1001 53.7789 78.8588 53.4935 78.6595C53.4663 78.6406 52.8221 78.1874 52.3585 77.6566C51.2863 76.5887 50.8017 75.2648 50.3338 73.987C50.1743 73.5527 50.0254 73.1436 49.8533 72.7407L49.7757 72.6086L49.5029 72.1742L49.9351 71.8847C50.2436 71.6854 50.4429 71.7903 50.659 72.0609L50.6674 72.0547L50.7156 72.1344C50.7891 72.233 50.8646 72.3484 50.9485 72.4764C50.959 72.4932 51.4416 73.2254 52.1151 74.1758H52.3648C52.8368 74.1821 53.2418 75.0151 53.246 75.0235C53.3131 75.1641 53.3655 75.2773 53.3991 75.3445C53.4201 75.3844 53.4369 75.4158 53.4453 75.4347L53.6446 75.9068L53.4537 75.9991C53.7894 76.4355 54.1293 76.8593 54.4503 77.2328C54.5804 77.1405 54.8384 77.0377 55.1741 77.3188L55.2601 77.3859C55.4825 77.5601 55.5623 77.6188 55.5791 77.6293C56.0721 77.9315 56.0784 78.2483 55.9924 78.4623C55.9504 78.5672 55.8602 78.7099 55.6651 78.7791C56.2148 79.526 56.7897 80.296 56.796 80.3065C56.9177 80.4702 57.2408 80.9045 56.8526 81.2402C56.7393 81.3367 56.6281 81.3745 56.5211 81.3745V81.3766ZM55.0734 77.9713C55.0881 77.9923 55.1049 78.0133 55.1196 78.0343C55.1259 78.028 55.1301 78.0238 55.1364 78.0175C55.193 77.9566 55.2308 77.8874 55.2538 77.8161C55.1909 77.8475 55.1259 77.8958 55.0734 77.9692V77.9713Z" fill="currentColor"/>
  <path d="M73.5725 88.3504C72.771 88.3504 71.8395 88.2077 71.0758 87.6979C69.5714 86.6236 69.1937 84.1835 69.1791 84.0807C69.0804 83.4156 69.0364 83.1785 69.0196 83.0967C68.9063 82.847 69.0154 82.5449 69.2525 82.0896C69.3259 81.9364 69.4329 81.2483 69.4329 81.0447C69.414 80.9084 69.3763 80.4678 69.6595 80.2139C69.8064 80.0817 70.0078 80.0314 70.1987 80.0796C70.333 80.0943 70.9226 80.0796 71.338 79.9831C71.4597 79.9558 74.3488 79.3222 76.0378 80.5895C77.9722 82.0938 77.4016 85.82 77.3764 85.9774C77.2883 86.5292 77.2253 86.9677 77.219 87.037C77.1959 87.3202 77.1414 87.6055 76.9043 87.7797C76.7826 87.8699 76.6294 87.9077 76.4805 87.8888C76.342 87.8972 75.8531 87.9916 75.3958 88.1196C75.337 88.1364 74.5523 88.3462 73.5767 88.3462L73.5725 88.3504ZM70.0435 82.8722C70.0833 83.0547 70.1337 83.3632 70.2155 83.9255C70.2176 83.9464 70.5449 86.0299 71.6695 86.8334C72.9494 87.6853 75.0894 87.1146 75.1125 87.1104C75.2992 87.0579 75.7839 86.9299 76.1783 86.8733C76.2056 86.6488 76.2833 86.1411 76.3357 85.8138C76.4784 84.9074 76.5896 82.3519 75.3979 81.4245C74.1054 80.4552 71.5898 81.0028 71.5646 81.007C71.2709 81.0741 70.8345 81.1224 70.4736 81.1308C70.4547 81.5462 70.3309 82.2805 70.1778 82.5743C70.1106 82.7023 70.0666 82.8051 70.0393 82.8701L70.0435 82.8722ZM76.5749 86.8481C76.6022 86.8481 76.6294 86.8544 76.6504 86.8586C76.6252 86.8523 76.598 86.8502 76.5749 86.8481ZM69.435 81.0594C69.435 81.0594 69.4371 81.0762 69.4392 81.0825C69.4392 81.0783 69.4371 81.0699 69.435 81.0594ZM70.2092 80.0838C70.2092 80.0838 70.2218 80.088 70.2281 80.0901C70.2239 80.0901 70.2176 80.0859 70.2092 80.0838Z" fill="currentColor"/>
  <path d="M83.6642 66.4922C83.595 66.4922 83.5258 66.4901 83.4565 66.4859C81.6165 66.3076 80.0702 64.3836 80.0051 64.3018C79.5876 63.7752 79.4303 63.5905 79.3757 63.5297C79.1533 63.3702 79.0967 63.0555 79.0736 62.5415C79.061 62.3715 78.8092 61.7232 78.7085 61.547C78.6225 61.4379 78.3707 61.0749 78.4882 60.714C78.549 60.5252 78.698 60.3825 78.8889 60.328C79.0127 60.2734 79.5163 59.965 79.8268 59.6755C79.9191 59.5894 82.1032 57.5983 84.1993 57.8501C86.6268 58.1858 87.9947 61.6981 88.0514 61.8491C88.2507 62.3736 88.4165 62.7828 88.4458 62.8457C88.5675 63.1038 88.6619 63.3786 88.5444 63.6472C88.4836 63.7857 88.3703 63.8948 88.2318 63.9535C88.1164 64.0291 87.7409 64.3564 87.4073 64.6962C87.3317 64.7718 85.6134 66.4943 83.6642 66.4943V66.4922ZM80.1499 62.8226C80.2758 62.9611 80.473 63.2045 80.8276 63.6493C80.8402 63.6661 82.1662 65.3068 83.5425 65.4411C85.0784 65.5418 86.6457 63.9745 86.6624 63.9598C86.7988 63.8213 87.1534 63.4689 87.4681 63.2213C87.38 63.0136 87.1933 62.5352 87.0758 62.2247C86.7464 61.3686 85.5651 59.1006 84.0692 58.8929C82.7327 58.7313 81.0689 59.9608 80.5423 60.4476C80.3199 60.6532 79.9674 60.9113 79.659 61.1001C79.8499 61.4694 80.11 62.168 80.1247 62.4974C80.131 62.6401 80.1436 62.7534 80.1541 62.8226H80.1499ZM87.8689 62.9695C87.8395 62.9779 87.8122 62.9905 87.787 63.0031C87.8164 62.9884 87.8437 62.9779 87.8689 62.9695ZM78.7169 61.5575C78.7169 61.5575 78.7274 61.5701 78.7316 61.5764C78.7295 61.5722 78.7232 61.5659 78.7169 61.5575ZM78.9183 60.3196C78.9183 60.3196 78.9057 60.3217 78.8994 60.3238C78.9057 60.3238 78.912 60.3196 78.9183 60.3196Z" fill="currentColor"/>
  <path d="M81.9773 42.2385C80.7121 42.2385 79.5582 41.7895 79.4889 41.7643C78.8658 41.5168 78.635 41.437 78.5574 41.4118C78.2846 41.3846 78.0769 41.1412 77.8021 40.7069C77.7077 40.5663 77.1621 40.1299 76.988 40.0271C76.86 39.9746 76.4593 39.7879 76.3816 39.4144C76.3418 39.2193 76.3984 39.0221 76.5348 38.8815C76.6145 38.7724 76.8957 38.2521 77.0216 37.8472C77.0593 37.7276 77.9552 34.9098 79.896 34.0811C82.1661 33.1579 85.1077 35.5162 85.2315 35.6169C85.6658 35.9694 86.012 36.2421 86.0707 36.282C86.3036 36.4435 86.5239 36.6345 86.5554 36.9261C86.5722 37.0772 86.5302 37.2282 86.4379 37.3478C86.377 37.4716 86.2134 37.9437 86.0938 38.4032C86.0665 38.5102 85.393 41.0258 83.5677 41.9301C83.0662 42.1588 82.5102 42.2385 81.9731 42.2385H81.9773ZM78.8763 40.4111C79.0546 40.4677 79.3463 40.5789 79.875 40.7887C79.8939 40.7971 81.8619 41.5545 83.1208 40.9838C84.4992 40.3019 85.0762 38.1619 85.0804 38.1409C85.1287 37.9521 85.2608 37.4695 85.4077 37.0981C85.242 36.9722 84.8748 36.6806 84.5706 36.4309C83.8572 35.854 81.7004 34.4797 80.3009 35.0483C78.8155 35.684 78.0308 38.1346 78.0245 38.1577C77.9342 38.4451 77.7601 38.8459 77.586 39.1648C77.9363 39.3893 78.5112 39.8634 78.6875 40.1425C78.7651 40.2642 78.8301 40.3544 78.8742 40.4111H78.8763ZM77.0006 40.0313C77.0006 40.0313 77.0174 40.0376 77.0237 40.0397C77.0195 40.0397 77.0111 40.0355 77.0006 40.0313ZM76.5579 38.8584C76.5579 38.8584 76.5495 38.8668 76.5432 38.8731C76.5474 38.8689 76.5516 38.8647 76.5579 38.8584ZM85.6322 36.6785C85.6112 36.6995 85.5944 36.7226 85.5798 36.7477C85.5965 36.7205 85.6154 36.6974 85.6322 36.6785Z" fill="currentColor"/>
  <path d="M83.9328 109.289C82.7075 109.289 81.4214 108.809 80.2632 107.894C79.9989 107.684 79.9108 107.323 80.0513 107.017C80.1919 106.707 80.5234 106.535 80.857 106.597C83.0222 107.005 84.6944 106.725 85.8274 105.769C87.4577 104.388 87.4556 102.156 86.9583 100.664C86.3163 98.7337 84.707 97.3007 82.4306 96.6252C79.5016 96.0503 76.9734 97.5525 74.6781 99.2604C74.485 99.4031 74.2354 99.4429 74.0088 99.3674C73.287 99.1303 72.7142 98.9582 72.2023 98.8303C71.5645 98.6708 71.0211 98.5764 70.5448 98.5449C70.4944 98.5407 70.4441 98.5323 70.3958 98.5197C69.9028 98.375 69.4013 98.2197 68.8621 98.0414C68.4089 97.8903 67.9201 97.7225 67.3661 97.5231C67.341 97.5147 67.3116 97.5022 67.2864 97.4896C66.7745 97.2315 66.2835 96.9357 65.8219 96.6042C65.3478 96.2622 64.8946 95.8782 64.4771 95.4607C60.8725 91.8561 60.2703 86.2101 63.0042 81.9405C62.9035 81.8398 62.7797 81.7181 62.6307 81.5733C62.0579 81.418 61.4264 81.4202 60.7592 81.4202C59.4605 81.4202 57.9897 81.4222 57.0099 80.0732C56.9889 80.0438 56.9679 80.0102 56.9511 79.9788C56.5252 79.1899 56.6574 78.2877 56.7833 77.4149C56.8693 76.8295 56.949 76.2777 56.863 75.7951C55.9419 74.7356 54.8719 73.739 53.6823 72.8326C52.5577 71.9766 51.3282 71.1919 49.9225 70.4365L49.9036 70.4261C48.6489 69.6833 47.3586 68.9679 46.0682 68.3007C46.0389 68.286 46.0137 68.2692 45.9885 68.2524C45.0989 67.6356 44.1527 67.0229 43.1749 66.4313L43.1267 66.3998C36.1861 61.5175 27.7874 58.9578 15.9016 58.1101C15.5219 58.0829 15.1442 58.0577 14.7644 58.0346C14.7057 58.0304 14.6469 58.0199 14.5903 58.001C11.3487 56.9709 7.46512 57.5793 7.42525 57.5856C5.66704 57.871 4.18157 58.1458 3.83329 58.2381L3.52487 58.3703C2.78004 58.6494 2.00583 58.4521 1.45403 57.8416C0.728086 57.0401 0.553943 55.7393 1.0407 54.7469C1.05329 54.7217 1.06798 54.6944 1.08267 54.6713C2.2681 52.7579 4.56973 51.7067 7.73577 51.6291C8.08196 51.6207 8.43864 51.6249 8.79951 51.6396C9.12053 51.6606 9.41636 51.6543 9.7017 51.6459C10.2346 51.6333 10.7864 51.6186 11.4243 51.7864C11.7599 51.7424 12.1124 51.6815 12.4439 51.6228C12.8363 51.5536 13.2265 51.4843 13.6168 51.4193C14.7435 51.2263 15.8639 51.0416 16.9821 50.857C22.1372 50.0093 27.0048 49.2079 31.9417 47.6658C33.4502 47.1853 34.9692 46.6482 36.4526 46.0733C39.5012 44.8921 42.4469 43.5262 45.208 42.0177C46.5046 41.3651 47.7509 40.6581 48.9301 39.907C50.1784 39.1327 51.3534 38.2914 52.4255 37.3997C53.5627 36.4556 54.6285 35.4233 55.5958 34.326L55.6251 34.2945L59.3535 30.5683C59.3703 30.5515 59.3912 30.5326 59.4122 30.5158C59.9011 30.1256 60.262 29.7647 60.7424 29.1835L60.7844 29.1374L63.3294 26.5902C60.5976 22.3206 61.1977 16.6746 64.8023 13.07C66.0297 11.8426 67.5466 10.9195 69.1873 10.3991C69.7118 10.2334 70.2532 10.1054 70.7966 10.0215C70.8406 10.0152 70.8889 10.011 70.9371 10.0131C71.9862 10.0508 73.1024 9.93545 74.2857 9.81586L74.569 9.78648C75.1187 9.73193 75.6789 9.6585 76.174 9.59346C77.6951 6.49245 80.2842 4.36916 83.1251 3.89709C83.8153 3.7796 84.5644 3.73973 85.4749 3.71875H85.5064C87.5919 3.71875 89.667 4.67549 91.0748 6.28054C92.3127 7.69257 92.8645 9.40882 92.6316 11.1125C92.5812 11.4818 92.2749 11.7482 91.9035 11.7482C91.5322 11.7482 91.2259 11.4797 91.1776 11.1104C90.8419 8.56119 88.7291 6.49035 86.2638 6.29523C83.6139 6.29943 81.3731 7.45129 80.2863 9.37945L80.2695 9.40673C79.9527 9.89559 79.7051 10.3991 79.531 10.9069C78.4085 14.2408 80.45 18.3573 83.0726 20.4134C83.274 20.5708 83.3789 20.8246 83.3496 21.0785C83.2908 21.5779 83.2509 21.9807 83.2279 22.3479C83.2279 22.373 83.2237 22.3961 83.2195 22.4192C83.1251 22.9836 82.995 23.5312 82.8313 24.0452C82.311 25.6881 81.3857 27.205 80.1604 28.4303C76.5706 32.0202 70.9036 32.6307 66.6402 29.9032L66.1912 30.3522C66.0087 30.8053 65.9185 31.3572 65.8219 31.9383C65.5954 33.3231 65.3373 34.8925 63.6651 35.5219C63.1301 35.7002 62.6202 35.717 62.1272 35.7338C61.4369 35.7569 60.8389 35.7779 60.327 36.2206L59.9074 36.636C58.0547 38.8495 55.8265 40.8406 53.2815 42.5611C52.1003 43.3604 50.8205 44.12 49.4819 44.8186L49.4609 44.8291C47.9691 45.5215 46.4753 46.1782 45.0234 46.7762C43.5757 47.4035 42.3903 47.9091 41.3055 48.3602C39.9397 48.9288 38.7039 49.424 37.5247 49.8751C36.2512 50.3849 34.8979 50.8528 33.4544 51.2808C35.242 50.9682 36.9813 50.6094 38.6892 50.1982C40.0236 49.9065 41.1041 49.682 42.0965 49.489C43.282 49.2603 44.545 49.0421 46.1941 48.7778L47.1593 48.6372C48.181 48.4882 49.2385 48.3351 50.2749 48.1735C51.6513 47.9574 53.013 47.7224 54.3201 47.4748C55.7699 47.1916 57.2071 46.8853 58.5877 46.5643C60.027 46.2286 61.4537 45.8656 62.8279 45.4837C64.5064 45.0347 66.1031 44.6067 67.5466 44.2207L68.0942 44.0759C68.2956 44.0297 68.4823 43.9878 68.6712 43.9437C69.6846 43.715 70.7336 43.4758 71.7407 43.1003L71.81 43.0793L73.8011 42.5464C73.5703 37.4815 76.9126 32.893 81.8368 31.5733C83.5132 31.1243 85.2882 31.0823 86.9709 31.4516C87.5059 31.5691 88.0367 31.7285 88.5487 31.9278C88.6053 31.9488 88.6557 31.9782 88.7039 32.0097C89.7719 32.7524 91.3643 33.279 93.1834 33.8392L93.5107 33.9252C93.7583 33.9903 94.0059 34.0553 94.2555 34.1183C94.4905 34.1812 94.6856 34.0155 95.0738 33.6273C97.8076 30.8935 101.823 31.4537 101.993 31.4788C103.77 31.7432 106.301 32.9412 107.631 34.1497C107.753 34.2609 108.353 34.9176 108.214 36.999V37.022C108.046 38.5117 107.526 39.4789 106.624 39.9762C106.378 40.1126 106.08 40.0958 105.85 39.9342C105.617 39.7727 105.499 39.4978 105.543 39.2188C105.579 38.9796 105.627 38.7404 105.673 38.5075C105.887 37.4312 106.07 36.4996 105.35 35.6205L105.338 35.6037C104.018 33.8434 101.729 33.2392 99.6414 34.0994C96.469 35.459 94.929 39.5356 96.2131 43.1842C96.2215 43.2115 96.2299 43.2366 96.2361 43.2618C96.4376 44.1137 96.3641 44.5857 96.2991 45.0033C96.2718 45.1837 96.1879 45.339 96.0641 45.4502C95.0046 46.4111 93.9072 47.4601 93.175 48.7757C93.154 48.8134 93.1288 48.8491 93.1037 48.8827C92.7596 49.3107 92.3756 49.7177 91.9686 50.0912C90.695 51.2535 89.1382 52.1054 87.4618 52.5544C84.6525 53.3076 81.7193 52.9173 79.2037 51.457L78.9204 51.2913C78.5952 51.0731 77.2608 49.9359 76.1551 48.9624L76.0943 48.9078L75.2907 47.5672C74.8711 49.317 74.2857 51.3752 71.7155 51.1696C70.7987 51.0962 70.0496 50.6136 69.3258 50.1478C68.7404 49.7723 68.1865 49.4156 67.641 49.3547C67.3976 49.3275 67.1521 49.2918 66.9046 49.2498C63.8602 50.1226 60.6921 50.8801 57.226 51.562C55.6356 51.8746 53.9634 52.1746 52.2556 52.4536C51.2443 52.6299 50.1868 52.7998 49.1231 52.9572C47.8558 53.1586 46.5697 53.3495 45.3066 53.5237C44.9458 53.574 44.5849 53.6223 44.2219 53.6726C43.3365 53.7943 42.4217 53.9181 41.5216 54.0524C39.1235 54.6273 36.226 54.9903 33.3999 55.2169C35.6553 55.3364 37.9339 55.4581 39.9145 55.5672C41.2573 55.6491 42.6546 55.7498 44.1904 55.8757C45.4703 55.9806 46.7187 56.0981 47.902 56.224C49.3434 56.375 50.7533 56.545 52.0919 56.7317C53.5732 56.9058 54.939 57.0842 56.2546 57.2793C60.8368 57.9549 64.8925 58.8214 68.6502 59.9292C68.8159 59.9796 68.9817 60.0236 69.1453 60.0698H69.1475C69.3321 60.0971 69.5104 60.1306 69.6951 60.1768C69.8293 60.2104 69.9636 60.2481 70.1315 60.2985C70.5469 60.3048 70.9686 60.4307 71.2833 60.6384C71.5414 60.7055 71.7911 60.7706 72.0282 60.8335L72.0848 60.8482L74.8921 61.6014C77.2231 57.0989 82.4138 54.7972 87.3381 56.1169C89.0145 56.5659 90.5713 57.4178 91.8448 58.5801C92.2476 58.9473 92.6316 59.3543 92.9883 59.7886C93.0093 59.8159 93.0302 59.8432 93.0491 59.8747C93.2442 60.1936 93.4876 60.5481 93.7939 60.9531C94.0562 61.3014 94.3541 61.6727 94.7024 62.0882L94.736 62.1322C95.2668 62.8959 96.1082 63.7163 96.9957 64.5849C97.26 64.843 97.5265 65.1031 97.7887 65.3675C98.1958 65.7745 98.5189 66.1144 98.7979 66.4313C99.3225 66.5634 99.9309 66.6662 100.573 66.7732C100.976 66.8404 101.393 66.9096 101.811 66.9914C102.398 67.1047 102.996 67.2411 103.695 67.4174C104.18 67.5307 104.664 67.6985 105.132 67.9146C105.56 68.1118 105.978 68.351 106.374 68.6259C108.928 69.5071 110.896 71.5171 111.92 74.2866C111.926 74.3034 111.932 74.3222 111.936 74.339C112.15 75.0839 112.201 75.7951 112.134 76.4623C112.232 79.9808 108.944 82.0811 108.795 82.1734C107.694 82.8615 107.283 83.1196 106.962 82.6454C106.641 82.1713 107.035 81.8859 108.082 81.1201C108.114 81.097 110.778 79.1059 111.078 76.3742C111.072 76.242 111.059 76.1077 111.038 75.9714C110.468 72.2053 107.113 69.4651 103.061 69.4609C103.032 69.4609 103.003 69.4609 102.973 69.4546C102.585 69.4001 102.203 69.3959 101.798 69.4378C100.833 69.5406 99.8994 69.9141 98.9952 70.275C98.7916 70.3568 98.5902 70.4365 98.3888 70.5142C98.03 70.7093 97.6692 70.9422 97.2852 71.2233C96.4942 71.8045 95.7305 72.5095 94.9899 73.1935C94.3353 73.7977 93.6576 74.425 92.9568 74.9685C92.8792 75.0293 92.789 75.0734 92.6924 75.0985C92.2539 75.2139 91.9203 75.3084 91.6077 75.4007C90.2964 75.7888 89.3585 76.1833 88.5634 76.6763C88.5277 76.6994 88.4836 76.7225 88.4375 76.7393C87.9192 76.9365 87.3842 77.098 86.8471 77.2134C85.1644 77.5827 83.3894 77.5407 81.713 77.0918C76.7888 75.772 73.4465 71.1835 73.6773 66.1186C73.4884 66.0683 73.2681 66.0137 72.9975 65.955C72.175 65.8249 71.7134 66.3012 71.0315 67.0859C70.4504 67.7552 69.7895 68.5126 68.7152 68.5755C66.8752 68.6846 66.2898 66.7628 65.9059 65.4934C65.8219 65.2185 65.7422 64.9542 65.6604 64.736C62.2447 63.326 58.4114 62.2875 53.9445 61.5615C52.671 61.3538 51.2988 61.165 49.7525 60.9825C48.7161 60.9132 47.6586 60.8188 46.5214 60.6908C45.529 60.5796 44.4716 60.4432 43.2924 60.2733C40.2963 59.8432 37.2981 59.1928 34.3986 58.5654L33.6852 58.4102C30.8318 57.7933 27.7958 57.1933 24.6906 56.8807C25.4795 57.1261 26.3019 57.273 27.1559 57.4262C27.4748 57.4828 27.7958 57.5416 28.1168 57.6045C29.7051 57.9171 31.4192 58.3346 33.5153 58.9179C36.6771 59.7991 38.1437 60.4642 40.1726 61.3874C41.016 61.7714 41.9727 62.2057 43.2001 62.726L43.9869 63.0596C44.6457 63.3386 45.3024 63.6177 45.9591 63.8925C46.8781 64.266 47.8579 64.6709 48.9468 65.1283C50.5162 65.7745 52.0248 66.4942 53.4221 67.2663C54.9307 68.1307 56.3364 69.0812 57.6036 70.0966C58.959 71.1814 60.2116 72.3815 61.3299 73.6655L61.7579 74.0956C63.0902 75.665 64.5988 77.1757 66.1262 78.466L66.1702 78.5059L66.3066 78.6402C70.5763 75.9063 76.2244 76.5085 79.8289 80.113C81.4738 81.7579 82.5292 83.8372 82.8817 86.1304C82.9635 86.6612 83.0076 87.2004 83.016 87.7816V87.8089L83.0139 87.853C82.9006 89.2923 83.3097 90.7672 83.7692 92.1478C83.8699 92.452 83.9748 92.7541 84.0776 93.0521L84.2119 93.4423C87.4639 95.8803 90.8293 98.8869 90.0299 103.689C89.6313 106.211 87.8143 108.247 85.1665 109.128L85.1455 109.134C84.7532 109.247 84.3441 109.302 83.9286 109.302L83.9328 109.289ZM82.1054 107.812C83.0411 108.244 83.9979 108.358 84.8497 108.117C87.1115 107.359 88.662 105.637 88.9977 103.509C89.7089 99.2457 86.6772 96.579 83.509 94.2123C83.3915 94.1242 83.3034 94.0025 83.2551 93.8619L83.0894 93.3836C82.9845 93.0793 82.8796 92.7751 82.7768 92.4667C82.2837 90.9875 81.8452 89.3951 81.969 87.7711C81.9606 87.2445 81.9207 86.7556 81.8473 86.2794C81.5284 84.2106 80.5738 82.3307 79.0883 80.8453C75.7775 77.5344 70.5574 77.0288 66.678 79.6431C66.3884 79.8382 65.9982 79.8025 65.7506 79.557L65.4401 79.2486C63.877 77.9247 62.3328 76.3805 60.9732 74.7796L60.5557 74.36C59.471 73.1137 58.2604 71.9535 56.9511 70.9065C55.7258 69.9246 54.3663 69.0056 52.9102 68.1727C51.5548 67.4237 50.084 66.7208 48.5461 66.0893C47.4572 65.6319 46.4816 65.229 45.5605 64.8535C44.8975 64.5744 44.2387 64.2954 43.5799 64.0163L42.7931 63.6827C41.551 63.1582 40.588 62.7197 39.7382 62.3336C37.6779 61.3979 36.3183 60.7789 33.2341 59.9208C31.1654 59.3438 29.4743 58.9326 27.9154 58.6263C27.6007 58.5633 27.286 58.5088 26.9712 58.4521C25.555 58.1983 24.0905 57.936 22.7289 57.1807C22.5841 57.0989 22.4393 57.0149 22.305 56.9268C22.0994 56.7946 21.9819 56.6226 21.9568 56.4191C21.9337 56.2323 21.9945 56.0456 22.1225 55.9071C22.2463 55.775 22.4016 55.7141 22.5358 55.6868C22.0281 55.6596 21.7344 55.6449 21.7176 55.6449C21.2875 55.6218 20.9644 55.6029 20.7483 55.5882C20.4209 55.5651 19.9237 55.5274 19.9447 55.0091C19.9636 54.4909 20.4608 54.493 20.7902 54.493C21.0063 54.493 21.3294 54.4993 21.7595 54.5098C21.8812 54.5119 33.9831 54.7784 41.2804 53.0201L41.3454 53.0075C42.2518 52.8712 43.1749 52.7453 44.0687 52.6236C44.4296 52.5732 44.7905 52.525 45.1514 52.4746C46.406 52.3026 47.6838 52.1138 48.951 51.9102C50.0127 51.755 51.0596 51.5871 52.0688 51.4109C53.7725 51.1339 55.4321 50.836 57.012 50.5255C60.476 49.8436 63.6357 49.0883 66.6738 48.2134C66.7787 48.1819 66.892 48.1777 67.0011 48.1966C67.2508 48.2406 67.5004 48.2763 67.7459 48.3036C68.5369 48.3917 69.2209 48.8323 69.8818 49.2582C70.5259 49.6716 71.1344 50.0639 71.789 50.1164C73.4738 50.2527 73.843 49.0673 74.3067 47.1224C74.355 46.9167 74.4032 46.7132 74.4557 46.5139C74.5207 46.2621 74.7179 46.0607 74.9718 45.9873C75.3138 45.8908 75.6747 46.0523 75.832 46.3733C75.9348 46.5831 76.046 46.7929 76.1635 46.9944L76.9 48.2218C78.1462 49.3191 79.2394 50.2359 79.4806 50.4038L79.7198 50.5423C81.9921 51.862 84.642 52.2145 87.1807 51.5347C88.7165 51.1234 90.0866 50.3744 91.251 49.3107C91.6119 48.9792 91.9539 48.6183 92.2623 48.2364C93.0512 46.8307 94.2178 45.6977 95.2689 44.7431C95.3193 44.4074 95.3445 44.0927 95.2102 43.5115C93.7562 39.3593 95.5564 34.7015 99.2281 33.128C101.767 32.081 104.551 32.8195 106.162 34.9617C107.09 36.101 106.964 37.2927 106.76 38.3711C106.96 38.004 107.092 37.5214 107.161 36.9129C107.255 35.4611 106.943 34.9659 106.899 34.903C105.713 33.8371 103.401 32.744 101.834 32.5111C101.798 32.5069 98.1643 32.0097 95.8102 34.3637C95.3927 34.7813 94.822 35.3499 93.987 35.1296C93.7415 35.0687 93.4897 35.0016 93.238 34.9365L92.8813 34.8421C90.9888 34.2588 89.325 33.707 88.1311 32.8888C87.6801 32.7167 87.2122 32.5762 86.7401 32.4733C85.198 32.1356 83.6391 32.1712 82.1033 32.5824C77.5798 33.7952 74.5333 38.0606 74.8564 42.7268C74.8816 43.0772 74.6529 43.3982 74.3151 43.4884L72.0869 44.0864C71.019 44.485 69.9405 44.7284 68.8957 44.9634C68.7089 45.0054 68.5222 45.0473 68.3397 45.0893L67.8089 45.2299C66.3654 45.6159 64.7708 46.0439 63.0965 46.4908C61.7138 46.8748 60.2724 47.2419 58.8185 47.5797C57.4253 47.9049 55.9755 48.2134 54.511 48.4987C53.1913 48.7505 51.8192 48.9876 50.4302 49.2037C49.3875 49.3673 48.3279 49.5205 47.304 49.6695L46.3452 49.8079C44.715 50.0681 43.4624 50.2842 42.2895 50.5108C41.3034 50.7017 40.2313 50.9241 38.9158 51.2116C35.2189 52.1012 31.3773 52.7516 27.1832 53.2027C26.7845 53.2446 26.4383 52.9782 26.3775 52.5795C26.3187 52.183 26.5705 51.8242 26.965 51.7487C30.8947 50.9913 34.2223 50.0555 37.1345 48.8869C38.3115 48.4358 39.5389 47.9448 40.8943 47.3804C41.9748 46.9314 43.154 46.4279 44.6059 45.7984C46.0494 45.2026 47.5264 44.5564 48.9993 43.8703C50.3001 43.1905 51.5422 42.4541 52.6878 41.6799C55.1573 40.0098 57.3162 38.0795 59.1059 35.9373L59.1583 35.8807L59.6157 35.4296C60.4109 34.7288 61.3005 34.6994 62.0831 34.6722C62.5195 34.6575 62.9328 34.6428 63.3063 34.519C64.3931 34.112 64.5715 33.0189 64.7792 31.7558C64.8841 31.1159 64.9932 30.455 65.2408 29.8738C65.2785 29.7878 65.3331 29.7059 65.4002 29.6388L65.9793 29.0597C66.2772 28.7618 66.7514 28.7156 67.106 28.9485C70.9665 31.4809 76.1425 30.9459 79.4114 27.6771C80.536 26.5525 81.348 25.2202 81.8242 23.7158C81.9711 23.2522 82.0886 22.7612 82.1746 22.2535C82.1977 21.9199 82.2313 21.5548 82.2795 21.1205C79.4743 18.8377 77.2336 14.417 78.5302 10.5628C78.7316 9.97531 79.0149 9.39833 79.3736 8.84233C80.6514 6.58896 83.2279 5.24198 86.2722 5.23988C86.2953 5.23988 86.3163 5.23988 86.3373 5.24198C88.1207 5.38255 89.7152 6.29103 90.802 7.65271C90.6489 7.41562 90.4747 7.18693 90.2817 6.96453C89.0711 5.58187 87.2898 4.75941 85.5127 4.75941C85.5043 4.75941 85.4959 4.75941 85.4854 4.75941C84.6315 4.78039 83.9244 4.81606 83.295 4.92307C80.7416 5.34688 78.4064 7.31491 77.0426 10.1893C76.9356 10.4138 76.7258 10.5691 76.4803 10.6026C75.939 10.6761 75.2991 10.76 74.6718 10.823L74.3885 10.8523C73.2325 10.9698 72.0386 11.0915 70.9266 11.0558C70.442 11.1335 69.9657 11.2468 69.502 11.3936C67.9977 11.8699 66.6654 12.6819 65.5408 13.8065C62.23 17.1173 61.7243 22.3374 64.3386 26.2147C64.5358 26.5063 64.498 26.8966 64.2505 27.1441L61.5397 29.857C61.0257 30.4801 60.6123 30.8914 60.0773 31.3194L56.3721 35.0225C55.3713 36.1555 54.2677 37.2256 53.0927 38.2012C51.9828 39.1223 50.7701 39.993 49.4861 40.7882C48.2817 41.554 47.004 42.2799 45.6927 42.9387C42.9085 44.4619 39.9208 45.8446 36.8282 47.0447C35.3259 47.628 33.7859 48.1714 32.2522 48.6603C27.2419 50.2234 22.3386 51.0311 17.1458 51.8851C16.0296 52.0697 14.9113 52.2522 13.7867 52.4453C13.3986 52.5124 13.0083 52.5795 12.6181 52.6488C12.2509 52.7138 11.8607 52.781 11.483 52.8292C11.3865 52.8418 11.29 52.8334 11.1935 52.8061C10.6815 52.6614 10.2367 52.6739 9.72059 52.6865C9.41006 52.6949 9.09115 52.7033 8.73238 52.6781C8.40927 52.6635 8.07357 52.6614 7.75256 52.6677C5.80551 52.7138 3.22274 53.1922 1.96807 55.2064C1.63237 55.9029 1.84638 56.7149 2.21984 57.1261C2.4863 57.4199 2.79472 57.5059 3.13672 57.38L3.50598 57.2268C3.91302 57.1115 5.72788 56.7862 7.24901 56.5408C7.41686 56.5135 11.3865 55.8903 14.861 56.9793C15.2302 57.0023 15.5995 57.0275 15.9667 57.0527C28.0476 57.915 36.6079 60.5293 43.7205 65.5312C44.7045 66.1291 45.6612 66.7481 46.5613 67.3712C47.8579 68.0426 49.1567 68.7623 50.4197 69.5092C51.8695 70.2897 53.1431 71.0995 54.3096 71.9891C55.579 72.9564 56.7203 74.0243 57.7002 75.1615C57.782 75.2559 57.8386 75.3692 57.8638 75.4888C58.0149 76.1749 57.9121 76.8798 57.8114 77.5596C57.7044 78.2877 57.6036 78.9758 57.8575 79.4626C58.5226 80.3669 59.5549 80.3648 60.7466 80.3648C61.4852 80.3648 62.2489 80.3648 62.9874 80.5809C63.1007 80.6145 63.2077 80.6753 63.2937 80.7613C63.5308 80.99 63.7133 81.1726 63.8371 81.2964L63.9148 81.374C64.1623 81.6216 64.2001 82.0118 64.0029 82.3035C61.3886 86.1829 61.8943 91.4009 65.2051 94.7117C65.5828 95.0893 65.9919 95.4376 66.422 95.746C66.8332 96.0419 67.2717 96.3083 67.7228 96.5349C68.262 96.728 68.7383 96.8916 69.1789 97.0385C69.693 97.2105 70.1713 97.3595 70.6371 97.4959C71.1658 97.5336 71.7575 97.6364 72.4415 97.8085C72.9408 97.9323 73.4926 98.0959 74.1682 98.3162C76.6272 96.5014 79.3548 94.9425 82.632 95.5929C82.6593 95.5992 82.6803 95.6034 82.7012 95.6097C85.326 96.386 87.1849 98.0603 87.9402 100.326C88.6955 102.592 88.1626 105.15 86.4925 106.564C85.3868 107.5 83.9118 107.915 82.0949 107.806L82.1054 107.812ZM67.7165 96.5349C67.7165 96.5349 67.7165 96.5349 67.7186 96.5349C67.7186 96.5349 67.7186 96.5349 67.7165 96.5349ZM72.7394 64.8703C72.88 64.8703 73.029 64.8828 73.1842 64.908L73.2094 64.9122C73.5996 64.9961 73.9081 65.0801 74.0738 65.1241L74.1997 65.1577C74.5375 65.2479 74.7662 65.5689 74.741 65.9193C74.4158 70.5855 77.4644 74.8531 81.9879 76.0637C83.5237 76.4749 85.0847 76.5127 86.6247 76.1728C87.101 76.0679 87.5751 75.9273 88.0367 75.7532C88.9116 75.2118 89.9229 74.788 91.3119 74.3768C91.6182 74.2866 91.9455 74.1943 92.363 74.0831C93.0114 73.5732 93.6555 72.9795 94.2786 72.4046C95.0381 71.7017 95.8249 70.9758 96.6642 70.3589C97.0901 70.0463 97.4971 69.7861 97.9062 69.5637C97.9377 69.5469 97.965 69.5344 97.9944 69.5239C98.1979 69.4462 98.4014 69.3644 98.607 69.2826C99.5763 68.8944 100.579 68.4958 101.687 68.3762C102.17 68.3237 102.627 68.33 103.089 68.393C103.183 68.393 103.275 68.393 103.37 68.3972C102.717 68.2335 102.157 68.1076 101.612 68.0027C101.209 67.9251 100.797 67.8559 100.401 67.7887C99.6959 67.6712 99.0308 67.56 98.4371 67.4027C98.2965 67.3649 98.1706 67.2873 98.0741 67.1782C97.795 66.8593 97.4677 66.5131 97.046 66.0914C96.7879 65.8333 96.5236 65.5752 96.2613 65.3193C95.3402 64.4192 94.4695 63.5694 93.8842 62.7323C93.5296 62.3085 93.2254 61.9266 92.9526 61.5678C92.6316 61.1419 92.3735 60.7664 92.1595 60.4181C91.8406 60.0278 91.4965 59.6648 91.1356 59.3375C89.9691 58.2738 88.599 57.5248 87.0653 57.1135C82.5418 55.9008 77.7686 58.0724 75.7166 62.277C75.5614 62.5938 75.2047 62.7554 74.8669 62.6651L71.7596 61.8322C71.5057 61.7651 71.2393 61.6958 70.9623 61.6224C70.8763 61.5993 70.7945 61.5615 70.7189 61.507C70.5951 61.4168 70.3497 61.3349 70.0853 61.3286C70.0119 61.3286 69.9363 61.3182 69.8671 61.2972C69.6992 61.2447 69.5671 61.207 69.4433 61.1755C69.2859 61.1356 69.1349 61.1063 68.9838 61.0874C68.9565 61.0832 68.925 61.0769 68.8936 61.0685L68.8663 61.0601C68.6964 61.0139 68.5243 60.9657 68.3523 60.9153C64.6428 59.8222 60.6354 58.9641 56.1014 58.2969C54.7943 58.1039 53.4389 57.9255 51.9576 57.7535C50.619 57.5667 49.2217 57.3968 47.7929 57.2478C46.6158 57.124 45.3759 57.0065 44.1044 56.9016C42.577 56.7758 41.1859 56.6771 39.8536 56.5953C34.8266 56.3226 27.8965 55.9575 24.2311 55.7666C27.5881 56.0645 30.8548 56.7065 33.9139 57.3674L34.6272 57.5227C37.5079 58.1479 40.4894 58.792 43.4477 59.2179C44.6163 59.3858 45.6612 59.5201 46.6452 59.6313C47.7719 59.7572 48.8168 59.8516 49.8427 59.9187H49.87C51.4373 60.1054 52.8284 60.2985 54.1208 60.5083C58.7219 61.2573 62.6706 62.3336 66.1933 63.8002C66.3758 63.8758 66.5164 64.0163 66.592 64.1968C66.7094 64.4842 66.8123 64.8178 66.9193 65.1703C67.3452 66.5739 67.7207 67.5621 68.6628 67.5097C69.2964 67.4719 69.737 66.9663 70.249 66.3788C70.8427 65.6969 71.5645 64.8661 72.7457 64.8661L72.7394 64.8703ZM88.0136 75.7699C88.0136 75.7699 88.0095 75.772 88.0074 75.7741C88.0074 75.7741 88.0116 75.772 88.0136 75.7699ZM92.149 60.4013C92.149 60.4013 92.149 60.4013 92.149 60.4055C92.149 60.4055 92.149 60.4034 92.149 60.4013ZM69.1202 60.0509C69.1202 60.0509 69.1265 60.0509 69.1286 60.0509C69.1265 60.0509 69.1223 60.0509 69.1202 60.0509ZM92.2833 48.2092C92.2833 48.2092 92.2833 48.2092 92.2812 48.2113C92.2812 48.2113 92.2812 48.2113 92.2833 48.2092ZM106.907 34.903L106.922 34.9155C106.918 34.9114 106.911 34.9072 106.907 34.903ZM70.9623 11.0474C70.9623 11.0474 70.9602 11.0474 70.9581 11.0474C70.9581 11.0474 70.9602 11.0474 70.9623 11.0474Z" fill="currentColor"/>
  <path d="M65.5007 67.6341C65.4042 67.6341 65.2951 67.6174 65.1734 67.5859L63.7677 67.1872C63.4949 67.1096 63.0501 66.9774 62.7795 66.8956L62.6997 66.8641L57.4838 64.2877L57.4461 64.2583C57.2363 64.1009 56.9215 63.8743 56.8754 63.8429L56.46 63.5638L56.7222 63.1316C56.9153 62.8169 57.1544 62.8358 57.4587 62.9742V62.97H57.4629C57.4629 62.97 57.4754 62.9784 57.4859 62.9868C57.5866 63.0351 57.6957 63.0938 57.8111 63.1589L59.6365 63.9645C60.01 63.8114 60.5764 64.166 60.6918 64.2436C60.8135 64.3254 60.91 64.3884 60.9625 64.4219C60.9898 64.4366 61.0108 64.4513 61.0233 64.4597L61.4451 64.7576V64.7618L61.7052 64.8772L63.218 65.087C63.5012 65.1269 63.7719 65.1437 64.0216 65.1353L64.6132 65.1185L64.5587 65.7081C64.5461 65.8382 64.5062 65.9536 64.4433 66.0522L65.5406 66.5263C65.9644 66.7089 66.126 66.9627 66.0148 67.2838C65.935 67.5166 65.7609 67.6341 65.5007 67.6341Z" fill="currentColor"/>
  <path d="M66.4222 52.8293L59.9411 52.7936L59.8845 52.781C59.5572 52.7055 59.0851 52.6048 59.0327 52.5943L58.5459 52.5061L58.6046 52.0131C58.6487 51.6522 58.848 51.5662 59.2194 51.5641C59.2194 51.5641 59.2236 51.5641 59.2257 51.5641C59.3537 51.5641 59.5173 51.5746 59.6978 51.5872L62.2176 51.4718C62.5596 51.2158 63.296 51.306 63.3296 51.3102C63.5142 51.3333 63.659 51.3522 63.7324 51.3606C63.7597 51.3606 63.7828 51.3648 63.7975 51.3669L63.9569 51.3921L65.0563 51.3417L66.439 50.792C66.7642 50.6619 67.0621 50.515 67.3244 50.3535L67.83 50.043L68.0755 50.5822C68.1699 50.7899 68.1657 50.9682 68.1322 51.1004L69.7372 50.9179C69.9365 50.8948 70.4757 50.8298 70.5723 51.3354C70.6688 51.841 70.1463 51.9816 69.9491 52.0341C69.8946 52.0488 68.5791 52.4012 67.6034 52.6194L67.4398 52.6551C67.2447 52.6971 66.8166 52.7684 66.46 52.823L66.4201 52.8293H66.4222Z" fill="currentColor"/>
  <path d="M55.3923 41.9105L55.1846 40.8845C55.3168 40.8489 55.5538 40.8006 55.7909 40.7566C56.4141 40.5803 56.9722 40.274 57.5324 39.9299L57.5512 39.7033C57.5911 39.2396 58.4136 38.9144 58.4492 38.9018C58.6192 38.8368 58.7493 38.7843 58.8122 38.7592C58.8332 38.7508 58.8479 38.7424 58.8605 38.7382L59.3472 38.5577L59.4395 38.7801C59.5319 38.7235 59.6242 38.6647 59.7144 38.6039C60.2011 38.2787 60.6543 37.8192 60.6585 37.815C60.6606 37.8129 60.6627 37.8108 60.6669 37.8066C60.5725 37.6912 60.4236 37.4164 60.7299 37.0513L60.797 36.9653C60.9733 36.7429 61.0299 36.6631 61.0404 36.6464C61.3425 36.1512 61.6593 36.147 61.8733 36.233C61.9783 36.275 62.123 36.3652 62.1902 36.5603C62.9371 36.0106 63.7071 35.4358 63.7176 35.4295C63.8812 35.3078 64.3155 34.9847 64.6512 35.3728C64.9869 35.761 64.6051 36.1449 64.4603 36.2897C64.4205 36.3295 63.4574 37.2926 62.721 37.9703L62.5972 38.0836C62.5091 38.1633 62.2678 38.4444 62.0664 38.7319C62.0475 38.7592 61.5838 39.418 61.0446 39.8796C60.9082 39.997 60.7655 40.1061 60.6208 40.209C59.0724 41.2706 56.4246 41.7133 56.3134 41.7322C56.2189 41.7469 56.1203 41.7657 56.0259 41.7825C55.8224 41.8371 55.6105 41.8832 55.3902 41.9126L55.3923 41.9105ZM61.2271 36.9716C61.2586 37.0345 61.309 37.0996 61.3824 37.152C61.4034 37.1352 61.4244 37.1184 61.4432 37.1037C61.4369 37.0975 61.4327 37.0933 61.4264 37.087C61.3656 37.0303 61.2964 36.9926 61.225 36.9695L61.2271 36.9716Z" fill="currentColor"/>
</svg>