<svg xmlns="http://www.w3.org/2000/svg" width="105" height="105" viewBox="0 0 105 105" fill="none">
  <path d="M43.0815 102.109L38.5527 99.494L41.5484 94.3055C37.9768 96.5902 33.2831 96.8579 29.3654 94.5948C26.6562 93.0321 24.7176 90.5068 23.9092 87.484C23.2441 85.0046 23.4063 82.4361 24.3472 80.0973L13.854 83.9177L12.0668 79.005L17.6825 76.961C16.5036 76.8069 15.341 76.4716 14.2325 75.9552C11.3963 74.6331 9.24678 72.2862 8.17609 69.3472C7.10541 66.4083 7.24601 63.2287 8.56814 60.3924C9.65234 58.0672 11.4287 56.2016 13.6539 55.0147L3.16064 51.1943L4.94782 46.2816L10.5797 48.331C7.70835 45.2109 6.63226 40.6335 8.1788 36.3832C9.24948 33.4442 11.399 31.0973 14.2352 29.7752C16.5604 28.691 19.1209 28.4017 21.5867 28.9235L16.0034 19.2522L20.5322 16.6377L23.5199 21.8127C23.4658 20.6257 23.5956 19.4226 23.9119 18.241C24.7203 15.2182 26.6589 12.6929 29.3681 11.1302C32.0772 9.56741 35.2325 9.15103 38.2553 9.95945C40.7346 10.6246 42.8787 12.0467 44.4333 14.034L46.3719 3.03516L51.5199 3.94362L50.4816 9.82967C51.2035 8.88606 52.0768 8.0479 53.0772 7.34493C55.6404 5.54964 58.747 4.86019 61.8292 5.40634C64.9088 5.9498 67.5936 7.65856 69.3889 10.2217C70.8598 12.3252 71.5898 14.7937 71.5032 17.3136L80.0579 10.1352L83.4187 14.1394L78.8412 17.9815C80.0011 17.7219 81.207 17.6408 82.4264 17.7462C85.5438 18.0193 88.3665 19.4875 90.3781 21.8857C94.166 26.4009 93.9579 32.9602 90.1321 37.2267H101.301V42.4558H95.3097C99.0733 44.4052 101.653 48.3391 101.653 52.8625C101.653 58.7567 97.2781 63.6477 91.6029 64.4562L100.16 71.6346L96.7995 75.6389L92.2221 71.7968C92.679 72.8946 92.9683 74.068 93.0737 75.2874C93.3468 78.4048 92.3897 81.4384 90.3781 83.8366C88.3665 86.2321 85.5438 87.703 82.4264 87.9761C79.8686 88.2005 77.3677 87.5948 75.2263 86.2619L77.1649 97.2607L72.017 98.1692L70.9787 92.2831C70.6218 93.4187 70.0892 94.5029 69.3889 95.506C67.5936 98.0691 64.9088 99.7779 61.8292 100.321C56.027 101.346 50.4492 97.8853 48.6674 92.4372L43.0815 102.111V102.109ZM40.3993 98.9992L42.5867 100.262L49.2703 88.6844L49.5921 90.5798C50.5844 96.2117 55.9702 99.9807 61.594 98.9884C64.3194 98.5071 66.6933 96.9958 68.2804 94.7273C69.8675 92.4616 70.4758 89.7119 69.9973 86.9865C69.5187 84.2611 68.0046 81.8872 65.7362 80.3001C63.4704 78.713 60.7207 78.102 57.9953 78.5832C57.3951 78.6887 56.7922 78.8536 56.2 79.0699L54.4453 79.7161L63.2271 64.5048L67.1962 63.061L73.1093 96.601L75.5967 96.163L73.2769 83.0066L74.7423 84.2449C76.8648 86.0266 79.5496 86.8729 82.3074 86.6323C85.0652 86.3917 87.5608 85.0912 89.3399 82.9714C91.1189 80.8517 91.9652 78.1669 91.7246 75.409C91.4839 72.6512 90.1834 70.1557 88.0637 68.3766C83.689 64.7049 77.1406 65.2781 73.4689 69.6528C73.0768 70.1205 72.7199 70.6342 72.4063 71.1804L71.4789 72.8026L68.4291 55.5041L70.5407 51.8459L96.6292 73.7381L98.2514 71.805L88.0069 63.2097L89.932 63.2233L89.9374 63.8316V63.2233C95.6504 63.2233 100.295 58.5755 100.295 52.8652C100.295 47.1549 95.6477 42.5072 89.9374 42.5072C84.2271 42.5072 79.5793 47.1549 79.5793 52.8652C79.5793 53.4735 79.6361 54.0981 79.747 54.7173L80.0795 56.5558L66.623 45.265L65.8903 41.1066H99.9467V38.5813H86.5739L88.0583 37.3538C92.4357 33.6794 93.0089 27.1336 89.3372 22.7563C87.5581 20.6365 85.0598 19.336 82.3047 19.0954C79.5496 18.8548 76.8621 19.701 74.7423 21.4801C72.6226 23.2592 71.3221 25.7574 71.0815 28.5126C70.8408 31.2677 71.6871 33.9552 73.4662 36.0749C73.8582 36.5427 74.3016 36.9834 74.7856 37.3863L76.2213 38.5813H58.655L55.4214 35.8667L81.5098 13.9745L79.8876 12.0413L69.6431 20.6392L69.9919 18.7466C70.4731 16.0158 69.8648 13.2661 68.2777 11.0004C66.6906 8.73465 64.3167 7.22056 61.5913 6.73929C58.8659 6.25802 56.1162 6.86907 53.8505 8.45617C51.5847 10.0433 50.0706 12.4172 49.5894 15.1425C49.1081 17.8679 49.7192 20.6176 51.3063 22.8834C52.8934 25.1491 55.2673 26.6632 57.9926 27.1445C58.5929 27.2499 59.2174 27.3094 59.8447 27.3013L61.713 27.2932L48.2564 38.584H44.0332L49.9463 5.04404L47.4588 4.60603L45.139 17.7571L44.1846 16.0997C42.8003 13.6987 40.5643 11.9873 37.893 11.2708C35.2217 10.5543 32.4287 10.922 30.0332 12.3063C27.6377 13.6906 25.9235 15.9239 25.207 18.5952C24.4905 21.2692 24.8582 24.0595 26.2425 26.455C27.6268 28.8505 29.8601 30.5647 32.5314 31.2812C35.2054 31.9977 37.9957 31.63 40.3912 30.2457C40.9185 29.9401 41.4295 29.5805 41.9107 29.175L43.3383 27.9691L40.2885 45.2677L37.0548 47.9822L20.0266 18.4871L17.8393 19.7497L24.5256 31.3326L22.7195 30.6566C20.1158 29.7076 17.3012 29.832 14.7949 31C12.2885 32.168 10.3851 34.2445 9.43874 36.8455C7.48394 42.2124 10.2634 48.1688 15.6303 50.1236C20.9973 52.0757 26.9536 49.299 28.9084 43.932C29.1166 43.3588 29.2761 42.7532 29.3843 42.134L29.7006 40.2928L38.4824 55.5041L37.7497 59.6624L5.74543 48.0147L4.88293 50.3859L17.4499 54.9606L15.6357 55.6041C13.032 56.5531 10.9555 58.4538 9.78482 60.9629C8.6141 63.472 8.49243 66.2839 9.43874 68.8849C10.3851 71.4859 12.2885 73.5597 14.7949 74.7304C17.3039 75.9011 20.1158 76.0228 22.7168 75.0765C28.0838 73.1217 30.8605 67.1653 28.9084 61.7984C28.7002 61.2252 28.4326 60.6601 28.1162 60.1167L27.1753 58.5025L43.6817 64.5102L45.7933 68.1684L13.7891 79.8162L14.6516 82.1873L27.2213 77.6126L26.2425 79.2727C24.8555 81.6736 24.4878 84.4666 25.2043 87.1379C25.9208 89.8119 27.635 92.0452 30.0305 93.4268C32.426 94.8111 35.219 95.1788 37.8903 94.4623C40.5643 93.7458 42.7976 92.0317 44.1792 89.6362C47.0343 84.6883 45.3337 78.3426 40.3885 75.4847C39.8613 75.1792 39.2935 74.917 38.7014 74.7034L36.944 74.0707L53.4503 68.063L57.4194 69.5068L40.3912 99.0019L40.3993 98.9992ZM40.7454 74.1275C40.8563 74.187 40.9671 74.2491 41.0753 74.3113C44.993 76.5744 47.11 80.7733 46.9154 85.0073L55.4484 70.226L53.4557 69.5014L40.7427 74.1275H40.7454ZM59.8177 77.0718C62.1997 77.0718 64.5195 77.7992 66.5094 79.1916C67.5125 79.8946 68.3831 80.73 69.105 81.6763L66.1444 64.8834L64.1518 65.608L57.387 77.3233C57.5114 77.2963 57.633 77.2719 57.7574 77.2503C58.4441 77.1286 59.1336 77.0691 59.8149 77.0691L59.8177 77.0718ZM30.0494 60.9818C30.0954 61.0981 30.1413 61.2171 30.1846 61.3333C31.7311 65.5836 30.655 70.1611 27.7837 73.2812L43.8223 67.4438L42.7624 65.608L30.0494 60.9818ZM69.8431 55.7528L72.1927 69.0769C72.2711 68.9768 72.3495 68.8795 72.4306 68.7849C75.3372 65.3187 79.8416 63.9641 83.9783 64.8888L70.903 53.917L69.8431 55.7528ZM20.6647 52.0027L36.7033 57.8401L37.071 55.7528L30.3063 44.0375C30.2657 44.1564 30.2251 44.2754 30.1819 44.3944C28.6353 48.6447 24.8663 51.4593 20.662 52.0054L20.6647 52.0027ZM67.8667 44.5458L78.2302 53.241C78.2248 53.1139 78.2248 52.9896 78.2248 52.8625C78.2248 48.3391 80.8041 44.4052 84.5677 42.4558H67.499L67.8667 44.5431V44.5458ZM28.8976 31.1406L37.4252 45.9085L39.0502 44.5458L41.3997 31.2217C41.2916 31.2893 41.1861 31.3542 41.0753 31.4164C38.3661 32.9819 35.2109 33.3955 32.1881 32.5871C31.0065 32.2708 29.9007 31.7814 28.8976 31.1406ZM59.1471 37.2294H72.6767C72.5928 37.1348 72.509 37.0402 72.4306 36.9455C70.419 34.55 69.4619 31.5137 69.735 28.3963C69.8404 27.1769 70.1324 26.0035 70.5867 24.9058L57.5249 35.8667L59.1498 37.2294H59.1471ZM45.6473 37.2294H47.7671L58.1305 28.5342C58.0061 28.5153 57.8818 28.4963 57.7574 28.4747C53.3016 27.6879 49.876 24.4678 48.6106 20.4202L45.6473 37.2294ZM53.4584 65.3781L45.4148 62.45L41.1348 55.0363L42.6218 46.606L49.1784 41.1039H57.7385L64.2951 46.606L65.7821 55.0363L61.5021 62.45L53.4584 65.3781ZM46.3395 61.3496L53.4584 63.9398L60.5774 61.3496L64.3654 54.7903L63.0486 47.3306L57.2464 42.4612H49.6705L43.8683 47.3306L42.5515 54.7903L46.3395 61.3496Z" fill="currentColor"/>
  <path d="M53.4612 64.5725C53.4206 64.5725 53.3801 64.5725 53.3368 64.5725L52.8853 64.5617C52.8447 64.5617 52.8069 64.5563 52.7663 64.5536L52.6609 64.5455C52.6284 64.5455 52.596 64.5428 52.5636 64.5401L52.3094 64.5184C52.277 64.5157 52.2445 64.5103 52.2148 64.5076L52.1093 64.4968C52.0715 64.4941 52.0309 64.4887 51.9931 64.4833C51.9552 64.4779 51.9201 64.4725 51.8849 64.4671L51.5469 64.4157C51.5064 64.4103 51.4631 64.4022 51.4226 64.3968C51.382 64.3886 51.3442 64.3805 51.3036 64.3751L50.9629 64.3075C50.9278 64.3021 50.8953 64.294 50.8602 64.2859C50.8196 64.2778 50.7818 64.267 50.7439 64.2562L50.6412 64.2318C50.6088 64.2237 50.579 64.2183 50.5493 64.2102L50.3059 64.1453C50.2735 64.1372 50.241 64.1264 50.2113 64.1183L50.1113 64.0885C50.0734 64.0777 50.0356 64.0669 49.9977 64.0561C49.9653 64.0453 49.9301 64.0345 49.8977 64.0236L49.5678 63.9128C49.53 63.8993 49.4894 63.8857 49.4515 63.8722C49.4137 63.8587 49.3758 63.8425 49.338 63.829L48.9189 63.664C48.8811 63.6478 48.8432 63.6316 48.8081 63.6154L48.7134 63.5748C48.6837 63.5613 48.6512 63.5505 48.6215 63.5343L48.3917 63.4261C48.3619 63.4126 48.3349 63.3991 48.3052 63.3828L48.2078 63.3342C48.1727 63.318 48.1375 63.3017 48.1024 63.2828C48.0699 63.2666 48.0402 63.2504 48.0105 63.2341L47.7022 63.0665C47.6671 63.0476 47.6319 63.0287 47.5995 63.0097C47.5643 62.9908 47.5319 62.9692 47.4967 62.9475L47.1966 62.7637C47.1669 62.7448 47.1371 62.7285 47.1101 62.7096C47.0777 62.688 47.0425 62.6664 47.0101 62.642L46.6342 62.3852C46.6072 62.3662 46.5829 62.3473 46.5558 62.3257L46.4747 62.2662C46.4423 62.2419 46.4098 62.2202 46.3774 62.1959C46.3503 62.1743 46.3233 62.1553 46.2963 62.1337L46.0232 61.9174C45.9908 61.8904 45.9583 61.866 45.9259 61.839C45.8961 61.8147 45.8637 61.7876 45.8339 61.7579L45.5744 61.5281C45.5473 61.5065 45.523 61.4821 45.496 61.4578C45.4662 61.4307 45.4392 61.4037 45.4094 61.374L45.085 61.0576C45.0634 61.036 45.039 61.0117 45.0174 60.9873L44.9471 60.9143C44.9201 60.8846 44.8903 60.8575 44.8633 60.8278C44.839 60.8035 44.8173 60.7764 44.793 60.7494L44.5632 60.4898C44.5361 60.4601 44.5091 60.4277 44.4821 60.3979C44.455 60.3682 44.4307 60.3357 44.4064 60.3033L44.1901 60.0302C44.1684 60.0032 44.1468 59.9761 44.1252 59.9491C44.1008 59.9166 44.0792 59.8869 44.0549 59.8545L43.9927 59.7706C43.9738 59.7436 43.9521 59.7193 43.9332 59.6922L43.6763 59.3164C43.6547 59.284 43.6331 59.2515 43.6115 59.2191C43.5925 59.1893 43.5736 59.1596 43.5547 59.1272L43.3735 58.8297C43.3519 58.7946 43.3303 58.7621 43.3113 58.727C43.2897 58.6919 43.2708 58.6567 43.2519 58.6216L43.0842 58.316C43.068 58.2863 43.0518 58.2538 43.0356 58.2241C43.0166 58.189 43.0004 58.1538 42.9842 58.1187L42.9355 58.0213C42.9193 57.9916 42.9058 57.9645 42.8923 57.9348L42.7841 57.705C42.7706 57.6752 42.7571 57.6455 42.7463 57.6158L42.7057 57.5211C42.6895 57.486 42.6733 57.4481 42.657 57.413C42.6435 57.3805 42.63 57.3481 42.6192 57.3156L42.4921 56.9885C42.4786 56.9506 42.4624 56.9155 42.4488 56.8776C42.4353 56.8371 42.4218 56.7992 42.4083 56.7587L42.265 56.3315C42.2542 56.2936 42.2434 56.2558 42.2325 56.2179L42.2028 56.1179C42.192 56.0881 42.1839 56.0557 42.1758 56.026L42.0622 55.5852C42.0514 55.5474 42.0433 55.5095 42.0325 55.469C42.0244 55.4365 42.0189 55.4014 42.0108 55.3662L41.9405 55.0229C41.9324 54.985 41.9243 54.9445 41.9189 54.9039C41.9108 54.8633 41.9054 54.8228 41.9 54.7849L41.8486 54.4389C41.8432 54.4037 41.8378 54.3686 41.8324 54.3334C41.827 54.2956 41.8243 54.2577 41.8189 54.2171L41.7729 53.7629C41.7729 53.7305 41.7675 53.698 41.7675 53.6656L41.7621 53.5601C41.7594 53.5223 41.7567 53.4817 41.754 53.4439L41.7432 52.9924C41.7432 52.9518 41.7432 52.9112 41.7432 52.868C41.7432 52.8247 41.7432 52.7869 41.7432 52.7436V52.5706L41.7459 52.5489L41.754 52.2948C41.754 52.2542 41.7594 52.2164 41.7621 52.1758L41.7702 52.0704C41.7702 52.0379 41.7729 52.0055 41.7756 51.973L41.8216 51.5215C41.8243 51.481 41.8297 51.4404 41.8351 51.4025C41.8405 51.3674 41.8459 51.3322 41.8513 51.2971L41.9027 50.9537C41.9081 50.9132 41.9135 50.8726 41.9216 50.8321C41.9297 50.7915 41.9378 50.7537 41.9459 50.7131L42.0135 50.3724C42.0216 50.3373 42.0271 50.3021 42.0352 50.267C42.0433 50.2291 42.0541 50.1913 42.0622 50.1507L42.0865 50.048C42.0947 50.0155 42.1001 49.9858 42.1082 49.9533L42.1731 49.71C42.1812 49.6776 42.192 49.6451 42.2001 49.6154L42.2298 49.5153C42.2407 49.4775 42.2515 49.4396 42.2623 49.4018L42.4056 48.9692C42.4191 48.9313 42.4299 48.8935 42.4434 48.8556C42.457 48.8151 42.4732 48.7799 42.4867 48.7421L42.6138 48.4203C42.6273 48.3879 42.6381 48.3554 42.6516 48.323C42.6678 48.2878 42.6841 48.2527 42.7003 48.2148L42.7435 48.1175C42.7571 48.0878 42.7679 48.058 42.7814 48.0283L42.8896 47.7985C42.9031 47.7687 42.9193 47.7417 42.9328 47.7119L42.9788 47.6173C42.995 47.5822 43.0139 47.547 43.0301 47.5119C43.0464 47.4794 43.0653 47.447 43.0815 47.4145L43.2437 47.1144C43.2627 47.0766 43.2843 47.0414 43.3032 47.0036C43.3249 46.9684 43.3465 46.9306 43.3681 46.8954L43.6033 46.5115C43.625 46.4763 43.6466 46.4439 43.6682 46.4141L43.725 46.3303C43.7439 46.3006 43.7629 46.2735 43.7818 46.2438L43.9278 46.0356C43.9467 46.0113 43.9656 45.9842 43.9846 45.9599L44.0468 45.8761C44.0684 45.8436 44.0927 45.8112 44.1171 45.7788C44.1387 45.7517 44.1603 45.722 44.1819 45.6949L44.3982 45.4246C44.4226 45.3921 44.4496 45.3597 44.4767 45.3299C44.501 45.3002 44.528 45.2677 44.5578 45.238L44.7849 44.9784C44.8092 44.9514 44.8308 44.9244 44.8579 44.8973C44.8849 44.8676 44.912 44.8406 44.9417 44.8108L45.4067 44.3458C45.4338 44.3187 45.4608 44.2917 45.4906 44.2647C45.5176 44.2403 45.5419 44.216 45.569 44.1944L45.8285 43.9645C45.8583 43.9375 45.8907 43.9105 45.9205 43.8834C45.9529 43.8564 45.9826 43.8321 46.0151 43.805L46.2855 43.5887C46.3125 43.5671 46.3395 43.5455 46.3666 43.5238C46.399 43.4995 46.4315 43.4752 46.4639 43.4508L46.545 43.3913C46.5721 43.3724 46.5991 43.3508 46.6234 43.3319L46.8316 43.1859C46.8587 43.1669 46.8857 43.1507 46.9154 43.1318L47.002 43.075C47.0344 43.0534 47.0641 43.0317 47.0966 43.0101C47.129 42.9912 47.1588 42.9723 47.1885 42.9533L47.4805 42.7749C47.5157 42.7533 47.5508 42.7316 47.586 42.71C47.6211 42.6884 47.6563 42.6694 47.6914 42.6505L47.9942 42.4856C48.0267 42.4694 48.0564 42.4504 48.0889 42.4342C48.124 42.418 48.1565 42.3991 48.1916 42.3828L48.6053 42.1828C48.635 42.1693 48.6648 42.1557 48.6945 42.1449L48.7891 42.1044C48.8243 42.0881 48.8621 42.0719 48.8973 42.0557C48.9297 42.0422 48.9595 42.0287 48.9919 42.0178L49.3164 41.8908C49.3542 41.8745 49.3921 41.861 49.4299 41.8475C49.4705 41.834 49.5083 41.8205 49.5462 41.807L49.8733 41.6961C49.9058 41.6853 49.9409 41.6745 49.9734 41.6637C50.0112 41.6528 50.0491 41.642 50.0869 41.6312L50.1843 41.6015C50.2167 41.5907 50.2464 41.5825 50.2789 41.5717L50.5222 41.5068C50.552 41.4987 50.5844 41.4906 50.6142 41.4852L50.7169 41.4609C50.7548 41.4501 50.7926 41.4419 50.8305 41.4338C50.8656 41.4257 50.9008 41.4176 50.9359 41.4122L51.2739 41.3446C51.3144 41.3365 51.3523 41.3284 51.3928 41.3203C51.4334 41.3122 51.4739 41.3068 51.5145 41.3013L51.8579 41.25C51.893 41.2446 51.9282 41.2392 51.9633 41.2338C52.0039 41.2283 52.0417 41.2256 52.0823 41.2202L52.185 41.2094C52.2175 41.204 52.2472 41.2013 52.2797 41.1986L52.7366 41.1635C52.7745 41.1608 52.815 41.1581 52.8529 41.1553L53.3044 41.1445C53.3855 41.1445 53.4693 41.1445 53.5504 41.1445H53.7262L53.7478 41.1472L54.002 41.1553C54.0425 41.1553 54.0804 41.1608 54.1209 41.1635L54.5778 41.1986C54.6103 41.2013 54.6427 41.2067 54.6725 41.2094L54.7752 41.2202C54.8158 41.2229 54.8563 41.2283 54.8942 41.2338C54.9293 41.2392 54.9645 41.2446 54.9996 41.25L55.343 41.3013C55.3836 41.3068 55.4214 41.3122 55.462 41.3203C55.5025 41.3284 55.5431 41.3365 55.5836 41.3446L55.9216 41.4122C55.9568 41.4203 55.9919 41.4257 56.0271 41.4338C56.0649 41.4419 56.1028 41.4528 56.1433 41.4609L56.2461 41.4852C56.2785 41.4933 56.3082 41.4987 56.3407 41.5068L56.5867 41.5717C56.6165 41.5798 56.6489 41.5907 56.6814 41.5988L56.7787 41.6285C56.8166 41.6393 56.8544 41.6501 56.8923 41.6609L57.3194 41.8042C57.36 41.8178 57.3979 41.8313 57.4384 41.8448C57.4763 41.8583 57.5141 41.8745 57.5547 41.8881L57.8764 42.0151C57.9089 42.0287 57.9413 42.0422 57.9765 42.0557C58.0116 42.0719 58.0495 42.0881 58.0846 42.1044L58.1792 42.1449C58.209 42.1584 58.2387 42.1693 58.2685 42.1828L58.6821 42.3828C58.7173 42.3991 58.7497 42.4153 58.7849 42.4342C58.8173 42.4504 58.8498 42.4694 58.8822 42.4856L59.185 42.6505C59.2202 42.6694 59.2553 42.6884 59.2905 42.71C59.3256 42.7316 59.3608 42.7533 59.3959 42.7749L59.6906 42.956C59.7204 42.975 59.7501 42.9939 59.7799 43.0128C59.8123 43.0345 59.8447 43.0561 59.8772 43.0777L60.2557 43.3346C60.2828 43.3535 60.3098 43.3751 60.3368 43.3941L60.4179 43.4535C60.4504 43.4779 60.4828 43.4995 60.5153 43.5238L60.8722 43.8077C60.9046 43.8321 60.9344 43.8591 60.9668 43.8834C60.9992 43.9105 61.029 43.9375 61.0587 43.9645L61.3183 44.1944C61.3453 44.216 61.3697 44.2403 61.3967 44.2647C61.4264 44.2917 61.4535 44.3187 61.4805 44.3458L61.9483 44.8135C61.9753 44.8406 62.0023 44.8703 62.0294 44.9C62.0537 44.9271 62.078 44.9514 62.0997 44.9784L62.3268 45.238C62.3538 45.2677 62.3809 45.3002 62.4079 45.3299C62.4322 45.3597 62.4593 45.3921 62.4836 45.4246L62.6999 45.6949C62.7215 45.722 62.7432 45.7517 62.7648 45.7788C62.7891 45.8085 62.8108 45.8409 62.8351 45.8734L62.8973 45.9599C62.9162 45.9842 62.9351 46.0113 62.9541 46.0383L63.2109 46.4168C63.2325 46.4493 63.2542 46.4817 63.2758 46.5142C63.2947 46.5439 63.3137 46.5737 63.3326 46.6034L63.5137 46.9008C63.5354 46.9333 63.5543 46.9684 63.5759 47.0036C63.5975 47.0387 63.6165 47.0738 63.6354 47.1117L63.803 47.4172C63.8193 47.447 63.8355 47.4794 63.8517 47.5092C63.8706 47.5443 63.8869 47.5795 63.9031 47.6119L64.1031 48.0256C64.1167 48.0553 64.1302 48.0851 64.141 48.1148L64.1816 48.2094C64.1978 48.2446 64.214 48.2797 64.2302 48.3176C64.2437 48.35 64.2573 48.3852 64.2708 48.4176L64.3952 48.7367C64.4114 48.7745 64.4249 48.8124 64.4384 48.8502C64.4519 48.8908 64.4654 48.9286 64.479 48.9665L64.6223 49.3937C64.6331 49.4315 64.6439 49.4694 64.6547 49.5072L64.6845 49.6073C64.6953 49.6397 64.7034 49.6721 64.7142 49.7046L64.7791 49.9479C64.7872 49.9804 64.7953 50.0101 64.8007 50.0426L64.825 50.1453C64.8359 50.1832 64.844 50.221 64.8521 50.2589C64.8602 50.294 64.8683 50.3292 64.8737 50.3643L64.9413 50.705C64.9494 50.7455 64.9575 50.7834 64.9656 50.8239C64.9738 50.8645 64.9792 50.9051 64.9846 50.9429L65.0359 51.2863C65.0413 51.3214 65.0468 51.3566 65.0522 51.3917C65.0576 51.4296 65.0603 51.4674 65.0657 51.508L65.1116 51.9649C65.1116 51.9947 65.1171 52.0271 65.1171 52.0596L65.1252 52.165C65.1279 52.2029 65.1306 52.2434 65.1333 52.2813L65.1441 52.6165V52.7328C65.1441 52.7733 65.1468 52.8139 65.1468 52.8572C65.1468 52.9004 65.1468 52.9383 65.1468 52.9815V53.1573L65.1441 53.1789L65.136 53.4331C65.136 53.4736 65.1306 53.5115 65.1279 53.552L65.1225 53.6575C65.1225 53.6899 65.1198 53.7251 65.1171 53.7575L65.0954 54.009C65.0927 54.0414 65.0873 54.0711 65.0846 54.1036L65.0738 54.2063C65.0711 54.2469 65.0657 54.2874 65.0603 54.3253C65.0549 54.3604 65.0495 54.3956 65.0468 54.428L64.9954 54.7741C64.99 54.8147 64.9846 54.8525 64.9765 54.8931C64.9683 54.9336 64.9602 54.9742 64.9521 55.012L64.8818 55.3554C64.8737 55.3906 64.8683 55.423 64.8602 55.4582C64.8521 55.496 64.8413 55.5339 64.8332 55.5717L64.7196 56.0124C64.7115 56.0422 64.7007 56.0746 64.6926 56.1071L64.6628 56.2044C64.652 56.2423 64.6412 56.2801 64.6304 56.318L64.4871 56.7452C64.4736 56.7857 64.46 56.8236 64.4465 56.8614C64.433 56.8993 64.4168 56.9371 64.4033 56.975L64.2762 57.2967C64.2627 57.3292 64.2519 57.3616 64.2356 57.3941C64.2194 57.4292 64.2032 57.467 64.187 57.5022L64.1464 57.5941C64.1329 57.6239 64.1194 57.6563 64.1059 57.6861L63.9085 58.0997C63.8923 58.1349 63.876 58.1673 63.8571 58.2025C63.8409 58.2349 63.8247 58.2647 63.8057 58.2971L63.6381 58.6026C63.6192 58.6378 63.6003 58.6729 63.5786 58.7081C63.557 58.7432 63.5381 58.7784 63.5164 58.8135L63.3353 59.1082C63.3164 59.138 63.2974 59.1704 63.2785 59.2002C63.2569 59.2326 63.2352 59.265 63.2136 59.2975L62.9568 59.6733C62.9378 59.7003 62.9189 59.7247 62.8973 59.7517L62.8378 59.8355C62.8162 59.868 62.7918 59.9004 62.7675 59.9302C62.7459 59.9599 62.7242 59.9869 62.7026 60.014L62.4863 60.2871C62.462 60.3195 62.4349 60.3492 62.4106 60.3817C62.3836 60.4141 62.3565 60.4439 62.3295 60.4736L62.0997 60.7332C62.078 60.7602 62.0537 60.7845 62.0294 60.8116C62.0023 60.8413 61.9753 60.8684 61.9456 60.8981L61.8753 60.9711C61.8536 60.9954 61.8293 61.0198 61.8077 61.0441L61.4832 61.3604C61.4562 61.3875 61.4264 61.4145 61.3967 61.4416C61.3697 61.4659 61.3453 61.4902 61.3183 61.5119L61.0587 61.7417C61.029 61.7687 60.9965 61.7957 60.9668 61.8228C60.9344 61.8498 60.9019 61.8769 60.8695 61.9012L60.5991 62.1175C60.5721 62.1391 60.545 62.1608 60.518 62.1797C60.4855 62.204 60.4531 62.2283 60.4206 62.25L60.3368 62.3122C60.3098 62.3311 60.2855 62.3527 60.2584 62.3689L59.8826 62.6258C59.8502 62.6474 59.815 62.6718 59.7826 62.6934C59.7555 62.7123 59.7258 62.7285 59.696 62.7475L59.3986 62.9286C59.3635 62.9502 59.3283 62.9719 59.2932 62.9935C59.258 63.0124 59.2229 63.0341 59.1877 63.053L58.8822 63.2206C58.8525 63.2368 58.82 63.2531 58.7903 63.2693C58.7551 63.2882 58.72 63.3044 58.6848 63.3207L58.5902 63.3666C58.5605 63.3828 58.5334 63.3964 58.5037 63.4099L58.2739 63.518C58.2468 63.5316 58.2171 63.5424 58.1874 63.5559L58.09 63.5991C58.0549 63.6154 58.017 63.6316 57.9819 63.6478C57.9521 63.6613 57.9197 63.6721 57.8872 63.6857L57.5601 63.8154C57.5222 63.829 57.4871 63.8452 57.4492 63.8587C57.4087 63.8722 57.3708 63.8857 57.3303 63.8993L56.9031 64.0426C56.8652 64.0534 56.8274 64.0642 56.7895 64.075L56.6895 64.1048C56.6597 64.1156 56.6273 64.1237 56.5975 64.1318L56.3515 64.1967C56.3218 64.2048 56.2893 64.2102 56.2596 64.2183L56.1595 64.2426C56.119 64.2535 56.0811 64.2616 56.0406 64.2724C56.0081 64.2805 55.973 64.2859 55.9405 64.294L55.5972 64.3643C55.5593 64.3724 55.5188 64.3805 55.4782 64.3859C55.4376 64.3941 55.3944 64.3995 55.3538 64.4049L55.0159 64.4562C54.9807 64.4616 54.9429 64.4671 54.9077 64.4725C54.8672 64.4779 54.8293 64.4806 54.7914 64.486L54.686 64.4968C54.6536 64.5022 54.6211 64.5049 54.5914 64.5076L54.3372 64.5292C54.3048 64.5292 54.2723 64.5346 54.2399 64.5346L54.1344 64.5428C54.0966 64.5455 54.056 64.5482 54.0182 64.5509L53.5666 64.5617C53.5261 64.5617 53.4855 64.5617 53.4423 64.5617L53.4612 64.5725ZM45.35 59.3029L46.737 60.7386L48.2105 61.7876L49.8382 62.5636L51.5794 63.0449L53.3747 63.2179H53.4612L55.2592 63.0611L57.0058 62.5934L58.6443 61.8309L60.1232 60.7954L61.3994 59.5192L62.4349 58.0375L63.1974 56.3991L63.6057 54.9607L64.2735 55.0661L63.6111 54.9282L63.8193 53.0681L63.6651 51.0565L63.1974 49.3126L62.4349 47.6768L61.3994 46.1978L60.1205 44.919L58.6416 43.8834L57.0058 43.121L55.2592 42.6532L53.6721 42.4991L51.6605 42.6532L49.9166 43.121L48.2808 43.8834L46.8019 44.919L45.5257 46.1951L44.4902 47.6768L43.7277 49.3126L43.26 51.0565L43.1059 52.6436L43.26 54.6552L43.7277 56.3991L44.4902 58.0375L45.3283 59.2732L44.8173 59.7193L45.35 59.3029ZM63.9355 53.0681L64.1518 53.0789L64.4952 53.0599L63.9355 53.0654V53.0681ZM42.749 52.6382L42.4272 52.6544L42.9328 52.649L42.749 52.6382ZM53.6667 41.8259L53.6721 42.3964L53.6829 42.1747L53.664 41.8259H53.6667Z" fill="currentColor"/>
</svg>