<svg xmlns="http://www.w3.org/2000/svg" width="122" height="106" viewBox="0 0 122 106" fill="none">
  <path d="M73.6752 103.166L69.9435 80.2467L69.3999 77.1949C68.6539 79.5568 66.6343 81.4387 64.0073 81.8981C60.5562 82.5012 57.2406 80.4393 56.2204 77.2107L39.0924 102.25L38.4165 101.832L50.4834 81.074L52.0504 78.3853C49.9446 79.7194 47.1774 79.8757 44.8676 78.5542C41.831 76.8176 40.6291 73.1248 41.9457 70.0019L3.35718 80.703L3.12285 79.9483L35.0515 69.312L37.9798 68.2574C37.2848 68.1674 36.5993 67.9716 35.9458 67.67C34.2736 66.898 33.0064 65.5276 32.3751 63.8115C31.7439 62.0953 31.8268 60.2387 32.6063 58.5825C33.2471 57.2216 34.2959 56.1307 35.6126 55.4392L1.11914 42.7362L1.36941 41.9879L30.8337 50.4754L33.7827 51.538C33.3076 51.0264 32.9107 50.4407 32.6063 49.7934C31.8268 48.1372 31.7455 46.2806 32.3751 44.5644C33.0064 42.8483 34.2736 41.4779 35.9458 40.7059C37.339 40.0617 38.8756 39.8991 40.3517 40.2243L24.4591 8.88062L25.1589 8.50487L39.856 33.374L41.4197 36.0563C41.3878 35.3633 41.4643 34.6607 41.6508 33.9708C42.1275 32.2057 43.2704 30.7311 44.8676 29.8185C47.8979 28.085 51.7172 28.8934 53.7927 31.571L60.6407 2.80859L61.4218 2.95858L57.8591 26.001L57.3155 29.0576C57.7411 28.5066 58.256 28.0171 58.8458 27.6067C60.3569 26.5583 62.1885 26.1557 64.0057 26.4747C67.4377 27.0746 69.8335 30.1027 69.7076 33.4592L101.214 8.50961L101.73 9.10955L76.4408 31.8173L74.0354 33.8176C74.7193 33.6661 75.4318 33.6187 76.1491 33.6803C77.987 33.8397 79.6512 34.697 80.8372 36.0974C83.0816 38.7466 82.9461 42.6004 80.6587 45.0918L120.758 46.6406L120.75 47.43L86.8866 48.1073H83.7447C85.9636 49.2456 87.4843 51.5427 87.4843 54.184C87.4843 57.6416 84.8797 60.5071 81.5131 60.9602L110.55 86.9629L110.034 87.5644L84.3249 67.2375L81.9227 65.2419C82.1921 65.8829 82.3627 66.5681 82.4249 67.2801C82.5859 69.1004 82.0216 70.8718 80.8356 72.2722C78.5784 74.9356 74.6937 75.4645 71.8149 73.6316L74.4626 103.067L73.672 103.164L73.6752 103.166ZM60.6917 63.7278L61.5015 63.8178L61.1779 64.3451C61.1779 64.3451 60.7666 65.0145 60.137 66.096L51.1753 81.4687L44.552 92.8612L56.6237 75.2135L56.7943 76.2081C57.3793 79.4968 60.5546 81.6976 63.8702 81.1182C67.1874 80.5388 69.4095 77.3954 68.8245 74.1099C68.2395 70.8245 65.0657 68.6252 61.7485 69.2031C61.3947 69.2646 61.0392 69.3609 60.6901 69.4872L59.6556 69.8646L63.5737 63.1437C63.7028 62.8832 63.8527 62.6416 64.0184 62.419C62.9951 63.0616 61.8633 63.4973 60.6917 63.7246V63.7278ZM67.1619 60.0697L70.7294 80.1157L72.6757 92.0718L70.8585 71.8728L71.6204 72.5106C74.2028 74.6562 78.062 74.3215 80.2267 71.767C81.2756 70.5292 81.7745 68.9615 81.6326 67.3511C81.4907 65.7408 80.724 64.2835 79.4743 63.2447C78.2245 62.2058 76.6401 61.7117 75.0157 61.8522C73.3898 61.9927 71.9185 62.7521 70.8696 63.9899C70.6385 64.263 70.4281 64.563 70.2432 64.8819L69.6964 65.8292L68.3303 58.1578C68.2554 57.6084 68.2124 57.1206 68.1885 56.7353C67.8075 58.232 67.0758 59.6135 66.0222 60.6918C66.0222 60.6918 66.019 60.695 66.0174 60.6965C66.2421 60.5623 66.4621 60.4392 66.6741 60.3271L67.1587 60.0697H67.1619ZM69.0939 53.5509L84.8303 66.6296L100.391 78.9331L79.503 60.2276L80.5758 60.2355L80.5789 60.5939V60.2355C83.9472 60.2355 86.6857 57.5216 86.6857 54.1872C86.6857 50.8528 83.9456 48.1388 80.5789 48.1388C77.2123 48.1388 74.4722 50.8528 74.4722 54.1872C74.4722 54.5424 74.5056 54.9071 74.571 55.2686L74.7671 56.3422L68.7543 51.3454C68.3128 50.9507 67.9478 50.5844 67.6736 50.297C68.3335 51.7906 68.5886 53.4309 68.469 55.0239L69.0939 53.5525V53.5509ZM43.5414 68.742L43.0329 69.6072C41.348 72.498 42.3506 76.205 45.2677 77.8722C48.1848 79.5394 51.926 78.5463 53.6109 75.6587C54.4271 74.2599 54.6439 72.629 54.2215 71.0692C53.799 69.5078 52.7884 68.2037 51.3761 67.3969C51.0653 67.2185 50.7305 67.0654 50.3814 66.9406L49.3453 66.5712L56.7209 63.9125C56.866 63.8604 57.0063 63.8162 57.1418 63.7767C56.1981 63.6204 55.2719 63.33 54.3952 62.9021L54.7156 63.21L54.0286 63.3868C54.0286 63.3868 53.3272 63.5683 52.1604 63.9899L35.3193 70.0603L18.0511 75.8119L43.543 68.7436L43.5414 68.742ZM51.5785 66.6044C51.6439 66.6391 51.7093 66.6754 51.773 66.7117C53.3702 67.6243 54.5132 69.0989 54.9898 70.8639C55.1763 71.5539 55.2528 72.2564 55.2209 72.9495L59.4451 65.7029C59.7448 65.1882 59.9951 64.7667 60.1768 64.4651L59.0466 64.3388C59.0339 64.3372 58.1428 64.2393 56.9903 64.653L51.5785 66.6044ZM62.8118 68.3252C64.9956 68.3252 67.0168 69.3578 68.3016 71.0218L66.5689 61.2902C65.7097 61.7906 64.7868 62.4821 64.2847 63.5068L64.2719 63.532L61.3915 68.4721C61.4648 68.4563 61.5365 68.4421 61.6098 68.4294C62.0131 68.3584 62.4164 68.3252 62.8118 68.3252ZM11.6318 45.7643L37.8363 55.4139L36.7779 55.7865C35.2412 56.3406 34.0186 57.4505 33.3284 58.9157C32.6381 60.3808 32.5664 62.0227 33.1243 63.5415C33.6822 65.0603 34.8044 66.2712 36.2821 66.9548C37.7614 67.6385 39.4192 67.7095 40.9527 67.1569C42.4861 66.6044 43.7104 65.4929 44.399 64.0294C45.0876 62.5658 45.1609 60.9223 44.603 59.4035C44.4803 59.0688 44.3225 58.7388 44.136 58.4215L43.5812 57.479L50.9569 60.1376C50.9569 60.1376 50.9648 60.1408 50.9696 60.1424C50.5058 59.5503 50.1168 58.9078 49.8076 58.2226L49.8267 58.401L49.1524 58.0284C49.1524 58.0284 48.5642 57.7063 47.4133 57.2911L30.585 51.2238L11.6303 45.7643H11.6318ZM45.2725 58.9267C45.2996 58.9946 45.3267 59.0641 45.3522 59.1319C45.9835 60.8481 45.9006 62.7048 45.1211 64.3609C44.8166 65.0082 44.4197 65.5939 43.9447 66.1055L51.883 63.2431C52.4074 63.0537 52.8362 62.9132 53.1566 62.8137L52.3517 62.0401L52.3293 62.0069C52.3293 62.0069 51.8049 61.2791 50.6859 60.8765L45.2741 58.9251L45.2725 58.9267ZM69.1194 58.0442L70.1188 63.6536C70.1651 63.5952 70.2113 63.5383 70.2591 63.4831C71.9727 61.4591 74.6284 60.6681 77.0673 61.2081L69.4095 54.844L68.9536 55.9191C68.9568 56.1686 68.9791 56.9974 69.121 58.0457L69.1194 58.0442ZM58.7549 45.3128C55.9175 45.3128 53.1965 46.6769 51.4319 49.1398C50.0196 51.1306 49.4792 53.5272 49.9096 55.8875C50.332 58.1957 51.6519 60.2039 53.6269 61.5428C57.0716 63.8873 61.7661 63.5936 64.7963 60.8434C64.8394 60.8007 65.0896 60.545 65.4324 60.1613L65.4451 60.1487C67.825 57.7174 68.4021 53.5888 66.8144 50.3333C65.646 48.1341 63.9356 46.5885 61.8776 45.8748C60.8495 45.4959 59.7942 45.3128 58.7549 45.3128ZM39.7492 53.6867L47.6875 56.549C48.1832 56.7275 48.5786 56.8901 48.875 57.0195L48.7539 55.9112L48.7635 55.8575C48.7635 55.8575 48.8926 54.9813 48.3044 53.974L45.4239 49.034C45.4 49.1035 45.3761 49.1729 45.3506 49.2424C44.7194 50.9585 43.4521 52.3289 41.78 53.101C41.1264 53.4025 40.441 53.5983 39.746 53.6883L39.7492 53.6867ZM67.774 49.2266C67.9334 49.4129 68.4834 50.0381 69.2788 50.7501L73.6799 54.4066C73.6768 54.3324 73.6768 54.2598 73.6768 54.1856C73.6768 51.5443 75.1975 49.2471 77.4164 48.1088H67.4217L67.7756 49.225L67.774 49.2266ZM45.0701 46.8458L48.9946 53.5778C49.0568 52.7647 49.2225 51.9642 49.4888 51.1891L49.2704 51.4985L48.9978 50.8212C48.9978 50.8212 48.7427 50.1976 48.129 49.1429L39.1673 33.7703L30.7476 19.5233L41.933 41.5805L40.9558 41.219C39.4208 40.6648 37.7614 40.7375 36.2837 41.4195C34.8044 42.1031 33.6838 43.314 33.1259 44.8328C32.568 46.3516 32.6397 47.9936 33.3299 49.4587C34.0202 50.9238 35.2428 52.0337 36.7763 52.5863C39.9404 53.7262 43.4521 52.1048 44.6046 48.9709C44.7274 48.6362 44.8214 48.2841 44.8852 47.921L45.0717 46.8458H45.0701ZM44.5887 41.4937L48.8177 48.7482C49.0886 49.214 49.2927 49.5976 49.4377 49.8866L50.0993 48.9519L50.1296 48.9235C50.1296 48.9235 50.756 48.322 50.9617 47.1663L51.9611 41.549C51.8974 41.5884 51.8336 41.6263 51.7698 41.6626C49.4601 42.9841 46.6912 42.8278 44.5871 41.4937H44.5887ZM63.3872 45.6743C64.7087 46.3785 65.8628 47.4284 66.7937 48.7751L66.333 47.321H86.8786L107.279 46.9121L78.647 45.8054L79.4727 45.1297C80.724 44.0892 81.4907 42.6304 81.6326 41.0216C81.7745 39.4129 81.2756 37.8435 80.2267 36.6058C79.1778 35.368 77.7049 34.6086 76.0806 34.4681C74.4546 34.3276 72.8718 34.8217 71.622 35.8606C70.3723 36.8994 69.6056 38.3582 69.4637 39.967C69.3218 41.5758 69.8208 43.1451 70.8696 44.3829C71.1008 44.656 71.3622 44.9134 71.6475 45.1486L72.494 45.8464L64.5891 45.8433C64.4648 45.8259 64.3388 45.8085 64.2097 45.7912C63.9419 45.7549 63.6662 45.7185 63.3872 45.6728V45.6743ZM53.1104 39.6481L51.7475 47.3036C51.73 47.4 51.7108 47.4931 51.6885 47.5831C52.3788 46.8553 53.1598 46.249 53.9999 45.7738L53.4213 45.8733L53.5663 45.2859C53.5663 45.2859 53.7433 44.5708 53.96 43.3519L57.0716 25.8716L59.1184 12.6287L54.1226 33.614L53.6078 32.7156C51.9229 29.8233 48.18 28.8302 45.263 30.499C43.8506 31.3073 42.84 32.6114 42.4176 34.1713C41.9952 35.7327 42.212 37.362 43.0281 38.7608C44.7114 41.65 48.4542 42.6431 51.3713 40.9743C51.6822 40.7959 51.9834 40.5859 52.2672 40.3491L53.1088 39.6449L53.1104 39.6481ZM64.672 45.057H70.4042C70.3548 45.0018 70.3054 44.9465 70.2591 44.8913C69.0732 43.4924 68.5089 41.7195 68.6699 39.8991C68.732 39.1871 68.9042 38.5019 69.1736 37.8609L62.7018 43.2398C62.1869 43.6677 61.774 44.0087 61.4967 44.2361C62.3017 44.7413 63.3234 44.877 64.3165 45.0097C64.4377 45.0255 64.5556 45.0412 64.6736 45.0586L64.672 45.057ZM56.2156 35.2417L54.7475 43.4909C54.6423 44.0798 54.5482 44.5487 54.4765 44.8818C55.4999 44.6702 56.5807 44.3339 57.4175 43.644L61.8282 39.9781C61.7549 39.967 61.6816 39.956 61.6083 39.9433C58.9813 39.4839 56.9616 37.6036 56.2156 35.2401V35.2417ZM58.7501 44.5218C59.4451 44.5218 60.1465 44.5976 60.8447 44.7507C60.757 44.6876 60.6726 44.6197 60.5897 44.5471L60.239 44.2408L60.5992 43.9471C60.5992 43.9471 61.2097 43.4498 62.1869 42.6367L75.9164 31.2268L91.6751 17.0761L68.63 35.3254L68.8213 34.2644C69.4063 30.9774 67.1842 27.834 63.867 27.2546C62.2602 26.9736 60.6391 27.3304 59.3033 28.2571C57.9675 29.1839 57.0748 30.57 56.7911 32.1615C56.206 35.4469 58.4281 38.5903 61.7453 39.1697C62.0992 39.2313 62.4659 39.2597 62.8373 39.2613L63.9387 39.2566L57.926 44.2534C57.7666 44.3845 57.6008 44.5045 57.4303 44.615C57.8654 44.555 58.3054 44.525 58.7485 44.525L58.7501 44.5218Z" fill="currentColor"/>
  <path d="M58.881 63.8761C55.4793 63.8761 52.2864 62.1868 50.4246 59.2361C48.8943 56.8553 48.5548 53.9234 49.4921 51.1953C50.458 48.3866 52.6849 46.1195 55.4458 45.1296C58.4378 44.0623 61.5781 44.4412 64.2911 46.1937L64.3071 46.2047C66.9548 48.1119 68.4867 50.9474 68.509 53.9866V54.0245C68.7226 58.2256 65.7784 62.2973 61.6594 63.4972C60.7316 63.753 59.7975 63.8761 58.8794 63.8761H58.881ZM58.8475 45.3143C57.8114 45.3143 56.7625 45.499 55.7168 45.8732C53.1807 46.781 51.1355 48.8666 50.246 51.4511C49.3853 53.9503 49.6961 56.6342 51.0973 58.8161C52.8108 61.5332 55.7535 63.0867 58.8826 63.0883C59.729 63.0883 60.5882 62.9746 61.441 62.7394C65.2093 61.6422 67.9096 57.913 67.7136 54.0671V53.9961C67.6912 51.2127 66.2821 48.6092 63.8464 46.8505C62.2635 45.8306 60.5722 45.3159 58.8459 45.3159L58.8475 45.3143Z" fill="currentColor"/>
</svg>