<svg xmlns="http://www.w3.org/2000/svg" width="308" height="36" viewBox="0 0 308 36" fill="none">
  <path d="M276.461 35.7089C270.496 35.7089 265.485 31.2544 264.661 25.4022C262.609 26.9438 260.113 27.7836 257.537 27.7836C254.961 27.7836 252.541 26.9682 250.506 25.4691C249.65 31.2807 244.642 35.7069 238.716 35.7069C232.791 35.7069 227.762 31.2665 226.922 25.4346C224.878 26.954 222.401 27.7816 219.845 27.7816C217.289 27.7816 214.848 26.9661 212.814 25.4671C211.958 31.2787 206.949 35.7049 201.024 35.7049C195.098 35.7049 190.047 31.2503 189.223 25.3981C187.171 26.9398 184.676 27.7796 182.1 27.7796C179.524 27.7796 177.103 26.9641 175.069 25.4651C174.213 31.2767 169.204 35.7028 163.279 35.7028C157.353 35.7028 152.324 31.2625 151.484 25.4306C149.44 26.9499 146.963 27.7775 144.407 27.7775C141.851 27.7775 139.41 26.9621 137.376 25.463C136.52 31.2746 131.511 35.7008 125.586 35.7008C119.661 35.7008 114.609 31.2463 113.786 25.3941C111.733 26.9357 109.238 27.7755 106.662 27.7755C104.086 27.7755 101.665 26.9601 99.6311 25.461C98.7752 31.2726 93.7663 35.6988 87.841 35.6988C81.9157 35.6988 76.9491 31.301 76.0629 25.53C74.0469 26.9844 71.6159 27.7755 69.1246 27.7755C66.6332 27.7755 64.2365 26.9966 62.2325 25.5645C61.3323 31.3152 56.3254 35.6988 50.4585 35.6988C44.5916 35.6988 39.4196 31.2016 38.6422 25.2906C36.5657 26.8992 34.024 27.7735 31.3816 27.7735C28.9083 27.7735 26.4935 26.9945 24.4895 25.5624C23.5893 31.3132 18.5824 35.6968 12.7155 35.6968C6.14169 35.6968 0.794434 30.3111 0.794434 23.6901C0.794434 19.3005 3.13474 15.3591 6.80834 13.2556H1.15696V8.20264H22.1271C23.0696 7.03423 24.2036 6.06462 25.4804 5.33233H19.823V0.277344H80.6851V5.33233H75.0277C76.3046 6.06462 77.4385 7.03423 78.3811 8.20264H97.4076C98.3502 7.03423 99.4841 6.06462 100.761 5.33233H95.1036V0.277344H155.966V5.33233H150.308C151.585 6.06462 152.719 7.03423 153.662 8.20264H172.843C173.786 7.03423 174.92 6.06462 176.197 5.33233H170.539V0.277344H231.401V5.33233H225.744C227.021 6.06462 228.155 7.03423 229.097 8.20264H248.279C249.219 7.03423 250.355 6.06462 251.632 5.33233H245.975V0.277344H306.837V5.33233H301.186C304.859 7.43385 307.199 11.3772 307.199 15.7669C307.199 22.3878 301.852 27.7735 295.278 27.7735C292.745 27.7735 290.282 26.958 288.247 25.459C287.391 31.2706 282.383 35.6968 276.457 35.6968L276.461 35.7089ZM265.507 23.3554L265.569 24.3879C265.924 30.1671 270.707 34.6947 276.461 34.6947C282.215 34.6947 286.954 30.2036 287.347 24.4691L287.416 23.4609L288.177 24.1202C290.155 25.8302 292.678 26.7714 295.282 26.7714C301.3 26.7714 306.197 21.8402 306.197 15.779C306.197 10.9959 303.161 6.79284 298.646 5.32016L295.611 4.33026H305.834V1.30376H246.986V4.33026H257.209L254.174 5.32016C252.092 5.99971 250.275 7.28374 248.923 9.03432L248.772 9.22906H228.612L228.461 9.03432C227.107 7.28374 225.293 5.99971 223.21 5.32016L220.175 4.33026H230.398V1.30376H171.55V4.33026H181.773L178.738 5.32016C176.656 5.99971 174.839 7.28374 173.488 9.03432L173.337 9.22906H153.176L153.025 9.03432C151.672 7.28374 149.857 5.99971 147.775 5.32016L144.739 4.33026H154.963V1.30376H96.1146V4.33026H106.338L103.303 5.32016C101.22 5.99971 99.4035 7.28374 98.0521 9.03432L97.9011 9.22906H77.8957L77.7446 9.03432C76.3912 7.28374 74.5766 5.99971 72.494 5.32016L69.4589 4.33026H79.6821V1.30376H20.8321V4.33026H31.0553L28.0201 5.32016C25.9376 5.99971 24.121 7.28374 22.7696 9.03432L22.6185 9.22906H2.16398V12.2535H12.3872L9.35206 13.2434C4.8366 14.7161 1.80145 18.9191 1.80145 23.7023C1.80145 29.7634 6.69757 34.6947 12.7155 34.6947C18.3649 34.6947 23.1422 30.2563 23.5913 24.5888L23.6678 23.6151L24.415 24.2399C26.3666 25.8728 28.8419 26.7714 31.3816 26.7714C34.1005 26.7714 36.7067 25.7572 38.7167 23.9173L39.5042 23.1972L39.5585 24.2683C39.8526 30.1164 44.64 34.6967 50.4585 34.6967C56.277 34.6967 60.8852 30.2584 61.3343 24.5908L61.4108 23.6171L62.158 24.2419C64.1096 25.8748 66.5849 26.7734 69.1246 26.7734C71.6643 26.7734 74.1758 25.8606 76.1374 24.2013L76.8887 23.5664L76.9632 24.5522C77.3942 30.2422 82.1735 34.6987 87.843 34.6987C93.5125 34.6987 98.3361 30.2077 98.7289 24.4731L98.7973 23.465L99.5586 24.1242C101.536 25.8342 104.06 26.7755 106.664 26.7755C109.268 26.7755 111.87 25.8058 113.862 24.0431L114.634 23.3595L114.696 24.392C115.051 30.1712 119.834 34.6987 125.588 34.6987C131.342 34.6987 136.081 30.2077 136.474 24.4731L136.542 23.465L137.304 24.1242C139.281 25.8342 141.805 26.7755 144.409 26.7755C147.013 26.7755 149.575 25.8201 151.561 24.0837L152.328 23.4143L152.395 24.4346C152.767 30.1914 157.551 34.7008 163.283 34.7008C169.015 34.7008 173.776 30.2097 174.169 24.4752L174.237 23.467L174.998 24.1263C176.976 25.8363 179.5 26.7775 182.104 26.7775C184.708 26.7775 187.31 25.8079 189.302 24.0451L190.073 23.3615L190.136 24.394C190.49 30.1732 195.274 34.7008 201.028 34.7008C206.782 34.7008 211.521 30.2097 211.914 24.4752L211.982 23.467L212.743 24.1263C214.721 25.8363 217.245 26.7775 219.849 26.7775C222.453 26.7775 225.015 25.8221 227.001 24.0857L227.768 23.4163L227.834 24.4366C228.207 30.1935 232.99 34.7028 238.722 34.7028C244.454 34.7028 249.215 30.2117 249.608 24.4772L249.677 23.469L250.438 24.1283C252.416 25.8383 254.939 26.7795 257.543 26.7795C260.148 26.7795 262.75 25.8099 264.742 24.0472L265.513 23.3636L265.507 23.3554ZM42.3379 16.2821L42.2835 15.2111C42.2453 14.4342 42.1204 13.6532 41.915 12.8925L41.7418 12.2535H50.1302L47.0951 13.2434C45.6127 13.7262 44.2774 14.5072 43.1234 15.562L42.3359 16.2821H42.3379ZM43.0428 13.2678C43.1073 13.57 43.1596 13.8743 43.1999 14.1786C43.6329 13.8439 44.0861 13.5396 44.5574 13.2678H43.0428ZM268.494 16.1239L268.431 15.0914C268.385 14.349 268.266 13.6086 268.073 12.8945L267.9 12.2556H276.133L273.098 13.2455C271.68 13.708 270.391 14.4463 269.265 15.4443L268.494 16.1279V16.1239ZM269.197 13.2678C269.253 13.5355 269.301 13.8053 269.34 14.0751C269.732 13.779 270.139 13.5092 270.562 13.2678H269.199H269.197ZM193.056 16.1239L192.994 15.0914C192.947 14.349 192.827 13.6086 192.635 12.8925L192.462 12.2535H200.695L197.66 13.2434C196.242 13.7059 194.953 14.4443 193.827 15.4423L193.056 16.1259V16.1239ZM193.759 13.2678C193.815 13.5355 193.864 13.8053 193.902 14.0751C194.295 13.779 194.702 13.5092 195.125 13.2678H193.761H193.759ZM117.618 16.1239L117.556 15.0914C117.51 14.349 117.389 13.6086 117.198 12.8925L117.024 12.2535H125.258L122.223 13.2434C120.805 13.7059 119.516 14.4443 118.39 15.4423L117.618 16.1259V16.1239ZM118.321 13.2678C118.378 13.5355 118.426 13.8053 118.464 14.0751C118.857 13.779 119.264 13.5092 119.687 13.2678H118.323H118.321ZM230.797 16.0711L230.731 15.0508C230.682 14.3206 230.563 13.5944 230.374 12.8925L230.201 12.2535H238.384L235.349 13.2434C233.951 13.6998 232.678 14.424 231.562 15.4017L230.795 16.0732L230.797 16.0711ZM231.5 13.2678C231.554 13.5234 231.599 13.781 231.637 14.0406C232.016 13.7587 232.408 13.501 232.813 13.2678H231.5ZM155.359 16.0711L155.293 15.0508C155.245 14.3206 155.126 13.5944 154.936 12.8925L154.763 12.2535H162.946L159.911 13.2434C158.513 13.6998 157.241 14.424 156.125 15.4017L155.357 16.0732L155.359 16.0711ZM156.062 13.2678C156.117 13.5234 156.161 13.781 156.199 14.0406C156.578 13.7587 156.971 13.501 157.375 13.2678H156.062ZM284.322 16.0184L283.561 15.3591C282.455 14.4037 281.196 13.6897 279.821 13.2414L276.786 12.2515H284.916L284.743 12.8905C284.558 13.5761 284.439 14.2881 284.391 15.0082L284.322 16.0164V16.0184ZM282.356 13.2678C282.745 13.4909 283.124 13.7384 283.486 14.0061C283.522 13.7587 283.567 13.5112 283.617 13.2678H282.354H282.356ZM171.141 16.0184L170.38 15.3591C169.274 14.4037 168.016 13.6897 166.64 13.2414L163.605 12.2515H171.736L171.562 12.8905C171.377 13.5761 171.258 14.2881 171.21 15.0082L171.141 16.0164V16.0184ZM169.176 13.2678C169.564 13.4909 169.943 13.7384 170.306 14.0061C170.342 13.7587 170.386 13.5112 170.437 13.2678H169.174H169.176ZM133.449 16.0184L132.687 15.3591C131.582 14.4037 130.323 13.6897 128.947 13.2414L125.912 12.2515H134.043L133.87 12.8905C133.684 13.5761 133.566 14.2881 133.517 15.0082L133.449 16.0164V16.0184ZM131.483 13.2678C131.872 13.4909 132.25 13.7384 132.613 14.0061C132.649 13.7587 132.694 13.5112 132.744 13.2678H131.481H131.483ZM246.577 16.0184L245.816 15.3591C244.71 14.4037 243.451 13.6897 242.076 13.2414L239.041 12.2515H247.171L246.998 12.8905C246.813 13.5761 246.694 14.2881 246.646 15.0082L246.577 16.0164V16.0184ZM244.611 13.2678C245 13.4909 245.379 13.7384 245.741 14.0082C245.778 13.7607 245.822 13.5132 245.872 13.2678H244.609H244.611ZM208.884 16.0184L208.123 15.3591C207.017 14.4037 205.759 13.6897 204.383 13.2414L201.348 12.2515H209.479L209.305 12.8905C209.12 13.5761 209.001 14.2881 208.953 15.0082L208.884 16.0164V16.0184ZM206.919 13.2678C207.307 13.4909 207.686 13.7384 208.049 14.0082C208.085 13.7607 208.129 13.5132 208.18 13.2678H206.917H206.919ZM95.7038 16.0184L94.9425 15.3591C93.8368 14.4037 92.578 13.6897 91.2024 13.2414L88.1673 12.2515H96.2979L96.1247 12.8905C95.9394 13.5761 95.8206 14.2881 95.7722 15.0082L95.7038 16.0164V16.0184ZM93.7381 13.2678C94.1268 13.4909 94.5054 13.7384 94.8679 14.0082C94.9042 13.7607 94.9485 13.5132 94.9989 13.2678H93.7361H93.7381ZM80.0729 15.9149L79.9983 14.9291C79.946 14.2374 79.8292 13.5518 79.6519 12.8925L79.4787 12.2535H87.5067L84.4715 13.2434C83.1322 13.6796 81.9036 14.3652 80.8221 15.28L80.0708 15.9149H80.0729ZM80.7778 13.2678C80.8241 13.4889 80.8644 13.714 80.8986 13.9392C81.2329 13.6978 81.5794 13.4726 81.9358 13.2678H80.7778ZM58.1662 15.8642L57.419 15.2395C56.3495 14.3449 55.1371 13.6735 53.8159 13.2434L50.7828 12.2535H58.7583L58.5851 12.8925C58.4119 13.5396 58.2951 14.211 58.2407 14.8885L58.1642 15.8622L58.1662 15.8642ZM56.3556 13.2678C56.696 13.4625 57.0263 13.6755 57.3465 13.9047C57.3787 13.6917 57.419 13.4787 57.4633 13.2678H56.3576H56.3556ZM20.4232 15.8642L19.676 15.2395C18.6066 14.3449 17.3941 13.6735 16.0729 13.2434L13.0377 12.2535H21.0133L20.8401 12.8925C20.6669 13.5396 20.5501 14.211 20.4957 14.8885L20.4192 15.8622L20.4232 15.8642ZM18.6126 13.2678C18.953 13.4625 19.2833 13.6755 19.6035 13.9047C19.6357 13.6917 19.676 13.4787 19.7203 13.2678H18.6146H18.6126ZM286.509 9.22906H266.298L266.147 9.03432C264.794 7.28374 262.979 5.99971 260.897 5.32016L257.862 4.33026H294.948L291.913 5.32016C289.83 5.99971 288.014 7.28374 286.662 9.03432L286.511 9.22906H286.509ZM266.788 8.21481H286.02C286.962 7.0464 288.096 6.07679 289.373 5.3445H263.435C264.711 6.07679 265.845 7.0464 266.788 8.21481ZM211.074 9.22906H190.863L190.712 9.03432C189.358 7.28374 187.544 5.99971 185.461 5.32016L182.426 4.33026H219.512L216.477 5.32016C214.395 5.99971 212.578 7.28374 211.227 9.03432L211.076 9.22906H211.074ZM191.352 8.21481H210.584C211.525 7.0464 212.661 6.07679 213.938 5.3445H187.999C189.276 6.07679 190.41 7.0464 191.352 8.21481ZM135.638 9.22906H115.427L115.276 9.03432C113.923 7.28374 112.108 5.99971 110.026 5.32016L106.99 4.33026H144.077L141.042 5.32016C138.959 5.99971 137.143 7.28374 135.791 9.03432L135.64 9.22906H135.638ZM115.917 8.21481H135.149C136.089 7.0464 137.225 6.07679 138.502 5.3445H112.563C113.84 6.07679 114.974 7.0464 115.917 8.21481ZM60.3555 9.22906H40.1446L39.9936 9.03432C38.6401 7.28374 36.8255 5.99971 34.743 5.32016L31.7078 4.33026H68.7943L65.7591 5.32016C63.6766 5.99971 61.862 7.28374 60.5085 9.03432L60.3575 9.22906H60.3555ZM40.634 8.21481H59.8661C60.8086 7.0464 61.9425 6.07679 63.2194 5.3445H37.2807C38.5576 6.07679 39.6915 7.0464 40.634 8.21481Z" fill="currentColor"/>
</svg>