
<svg xmlns="http://www.w3.org/2000/svg" width="110" height="64" viewBox="0 0 150 64" fill="none">
  <path d="M107.339 51.4737C97.9026 51.4737 89.8184 45.0955 87.8215 36.1962H22.6689V27.8049H87.8176C89.8184 18.9055 97.8988 12.5273 107.335 12.5273C118.358 12.5273 127.323 21.2649 127.323 32.0005C127.323 42.7362 118.355 51.4737 107.335 51.4737H107.339ZM24.6002 34.3147H89.4206L89.5635 35.0899C91.093 43.4925 98.567 49.5923 107.339 49.5923C117.296 49.5923 125.396 41.7014 125.396 32.0005C125.396 22.2997 117.296 14.4088 107.339 14.4088C98.567 14.4088 91.093 20.5085 89.5635 28.9112L89.4206 29.6863H24.6002V34.3147Z" fill="currentColor"/>
</svg>