<svg xmlns="http://www.w3.org/2000/svg" width="133" height="58" viewBox="0 0 133 58" fill="none">
    <path
        d="M118.246 13.8736H14.7539V5.37891H118.246V13.877V13.8736ZM16.4663 12.1685H116.534V7.08058H16.4663V12.1685Z"
        fill="currentColor"
    />
    <path
        d="M34.4083 52.6234C23.2299 52.6234 14.1372 43.5694 14.1372 32.4386C14.1372 21.3079 23.2299 12.2539 34.4083 12.2539C45.5866 12.2539 54.6793 21.3079 54.6793 32.4386C54.6793 43.5694 45.5866 52.6234 34.4083 52.6234ZM34.4083 13.9556C24.1751 13.9556 15.8496 22.2457 15.8496 32.4352C15.8496 42.6248 24.1751 50.9149 34.4083 50.9149C44.6414 50.9149 52.967 42.6248 52.967 32.4352C52.967 22.2457 44.6414 13.9556 34.4083 13.9556Z"
        fill="currentColor"
    />
    <path
        d="M98.5914 52.6234C87.413 52.6234 78.3203 43.5694 78.3203 32.4386C78.3203 21.3079 87.413 12.2539 98.5914 12.2539C109.77 12.2539 118.862 21.3079 118.862 32.4386C118.862 43.5694 109.77 52.6234 98.5914 52.6234ZM98.5914 13.9556C88.3582 13.9556 80.0327 22.2457 80.0327 32.4352C80.0327 42.6248 88.3582 50.9149 98.5914 50.9149C108.825 50.9149 117.15 42.6248 117.15 32.4352C117.15 22.2457 108.825 13.9556 98.5914 13.9556Z"
        fill="currentColor"
    />
</svg>
