<svg xmlns="http://www.w3.org/2000/svg" width="123" height="113" viewBox="0 0 123 113" fill="none">
  <path d="M74.2933 73.6538C73.9361 73.6538 73.571 73.602 73.2233 73.4671C71.8858 72.9009 71.1793 71.0924 71.1494 71.0155C70.9559 70.512 70.8803 70.3379 70.8552 70.2799C70.7293 70.1136 70.7623 69.8674 70.8662 69.4831C70.8992 69.3513 70.8615 68.7929 70.8268 68.6361C70.7891 68.5388 70.6852 68.2126 70.8552 67.9757C70.9433 67.8534 71.0833 67.7828 71.2328 67.7906C71.3382 67.7796 71.7961 67.6651 72.1061 67.5193C72.1958 67.4769 74.3106 66.4997 75.8259 67.1836C77.5678 68.0071 77.7629 70.9638 77.7708 71.0892C77.7975 71.5331 77.8243 71.8798 77.8305 71.9347C77.8604 72.1527 77.8667 72.3754 77.7188 72.5433C77.6433 72.6295 77.5363 72.6829 77.423 72.6923C77.3192 72.7221 76.9541 72.8789 76.6174 73.0578C76.5591 73.0891 75.4734 73.6538 74.2949 73.6538H74.2933ZM71.568 69.9489C71.6293 70.0807 71.7206 70.3097 71.8842 70.7363C71.8905 70.752 72.5026 72.3111 73.5191 72.7425C74.6646 73.1848 76.2319 72.3739 76.2476 72.366C76.3861 72.2923 76.748 72.1057 77.0454 71.9959C77.0296 71.8421 77.0029 71.4594 76.984 71.1363C76.9399 70.4101 76.5843 68.4118 75.4939 67.8957C74.3185 67.3656 72.4586 68.2204 72.4413 68.2298C72.2225 68.3318 71.8842 68.4463 71.6026 68.5153C71.6608 68.8306 71.6938 69.4407 71.6262 69.6885C71.5963 69.8015 71.5774 69.8925 71.5695 69.9489H71.568ZM77.3837 71.9112C77.3648 71.9112 77.3459 71.9112 77.3286 71.9159C77.3491 71.9127 77.3695 71.9096 77.3852 71.9112H77.3837ZM70.83 68.647C70.83 68.647 70.8347 68.658 70.8363 68.6612C70.8363 68.658 70.8331 68.6533 70.83 68.647ZM71.1935 68.5733C71.1935 68.5733 71.2013 68.5733 71.2061 68.5733C71.2013 68.5733 71.1966 68.5733 71.1935 68.5733ZM71.2407 67.7906C71.2407 67.7906 71.2501 67.7906 71.2548 67.7906C71.2501 67.7906 71.247 67.7906 71.2407 67.7906Z" fill="currentColor"/>
  <path d="M79.8968 61.0858C78.7214 61.0858 77.5743 60.4599 77.5161 60.427C77.0424 60.165 76.8725 60.0788 76.8158 60.0521C76.6129 60.0051 76.4775 59.7964 76.3092 59.4341C76.2494 59.3118 75.8607 58.9071 75.7333 58.8098C75.642 58.7596 75.3525 58.5761 75.3289 58.2844C75.3179 58.1354 75.3808 57.9926 75.4988 57.9001C75.5728 57.8232 75.8497 57.4436 75.9929 57.1331C76.0338 57.0437 77.0251 54.9403 78.6254 54.4932C80.49 54.0086 82.5482 56.148 82.6347 56.239C82.9415 56.5621 83.1854 56.8115 83.2263 56.8476C83.39 56.995 83.5395 57.1629 83.5332 57.3856C83.53 57.5001 83.4828 57.6099 83.4026 57.6899C83.3428 57.7793 83.1634 58.1338 83.0202 58.4867C82.9872 58.5667 82.2036 60.4584 80.6851 60.9744C80.4286 61.0528 80.1627 61.0842 79.8968 61.0842V61.0858ZM77.1479 59.3416C77.28 59.4027 77.4972 59.5204 77.8984 59.7415C77.9126 59.7494 79.3885 60.5509 80.4444 60.2294C81.6072 59.8341 82.2854 58.2091 82.2917 58.1934C82.3499 58.0491 82.5072 57.6742 82.6646 57.3997C82.545 57.2837 82.2508 56.9778 82.0635 56.7817C81.5616 56.2531 80.0006 54.9497 78.8315 55.254C77.5884 55.6006 76.7167 57.4468 76.7073 57.4656C76.605 57.6868 76.4209 57.9911 76.2494 58.2216C76.4964 58.4255 76.915 58.871 77.0235 59.1047C77.0739 59.2114 77.118 59.2929 77.1479 59.3416ZM75.7411 58.8177C75.7411 58.8177 75.7522 58.8239 75.7569 58.8255C75.7537 58.8239 75.749 58.8208 75.7411 58.8177ZM75.5161 57.8907C75.5161 57.8907 75.5098 57.8954 75.5051 57.8985C75.5083 57.8954 75.513 57.8922 75.5161 57.8907ZM82.8676 57.119C82.8518 57.1315 82.8393 57.1441 82.8267 57.1582C82.8408 57.1425 82.8534 57.1299 82.8676 57.119Z" fill="currentColor"/>
  <path d="M74.6019 48.4395C74.4445 48.4395 74.2526 48.3673 73.9992 48.2497C73.8749 48.1948 73.3163 48.1336 73.1558 48.1415C73.0535 48.1618 72.7137 48.2073 72.5075 47.9987C72.4021 47.8921 72.3596 47.743 72.3895 47.5956C72.3974 47.4889 72.3643 47.0215 72.2731 46.6921C72.2479 46.5965 71.6484 44.3503 72.5878 42.9826C73.7034 41.4156 76.6585 41.7372 76.7843 41.7513C77.2265 41.803 77.5742 41.836 77.6293 41.8391C77.848 41.8469 78.0715 41.8799 78.2115 42.054C78.2839 42.1434 78.3185 42.2579 78.3075 42.3708C78.3185 42.4775 78.4114 42.8649 78.5278 43.2257C78.5545 43.3088 79.1729 45.2601 78.3437 46.6263C77.5522 47.8403 75.642 48.2214 75.5617 48.2371C75.0299 48.3391 74.8458 48.383 74.7844 48.3987C74.7293 48.4269 74.668 48.4395 74.6019 48.4395ZM73.181 48.1352C73.181 48.1352 73.1716 48.1368 73.1653 48.1383C73.1716 48.1383 73.1763 48.1352 73.181 48.1352ZM73.1794 47.3572C73.5036 47.3572 74.0999 47.4293 74.3312 47.5376C74.4382 47.5878 74.5248 47.6207 74.5798 47.6395C74.7199 47.6019 74.9622 47.5517 75.4122 47.4654C75.428 47.4623 77.0754 47.1313 77.6781 46.2075C78.3169 45.1534 77.7851 43.4814 77.7804 43.4641C77.7316 43.3151 77.6104 42.9277 77.5538 42.6171C77.3996 42.6061 77.0156 42.5653 76.6946 42.5277C75.9693 42.4461 73.9331 42.4461 73.2345 43.428C72.506 44.4899 73.0284 46.4631 73.0347 46.4835C73.0992 46.7188 73.1527 47.0701 73.1715 47.3556H73.1826L73.1794 47.3572ZM72.3927 47.5721C72.3927 47.5721 72.3911 47.5799 72.3895 47.5862C72.3895 47.5815 72.3911 47.5768 72.3927 47.5721ZM77.527 42.2689C77.5239 42.2877 77.5223 42.3081 77.5207 42.3253C77.5207 42.305 77.5239 42.2846 77.527 42.2689Z" fill="currentColor"/>
  <path d="M63.7586 41.9236C63.7429 41.9236 63.7287 41.9236 63.713 41.9221C63.5635 41.908 63.4344 41.8217 63.3636 41.6899C63.3007 41.6037 62.9734 41.2664 62.6917 41.0719C62.6099 41.0155 60.7044 39.6775 60.5408 38.029C60.385 36.1138 62.857 34.4653 62.9608 34.3963C63.3322 34.1516 63.6217 33.9555 63.6642 33.921C63.8373 33.7877 64.0292 33.6685 64.248 33.7124C64.3612 33.7344 64.4604 33.8002 64.5265 33.8928C64.6036 33.9681 64.923 34.2049 65.2471 34.4057C65.3211 34.4512 67.0535 35.5491 67.299 37.1287C67.4752 38.567 66.2589 40.0806 66.207 40.1449C65.8655 40.5637 65.7522 40.7159 65.716 40.7661C65.6342 40.9574 65.4045 41.0531 65.019 41.1551C64.8884 41.1927 64.421 41.5033 64.3015 41.6131C64.2385 41.6899 64.0277 41.9205 63.7586 41.9205V41.9236ZM63.3526 41.6695C63.3526 41.6695 63.3558 41.6774 63.3589 41.6821C63.3573 41.6774 63.3542 41.6743 63.3526 41.6695ZM64.3172 41.5958C64.3172 41.5958 64.3125 41.6037 64.3077 41.6084C64.3125 41.6037 64.3156 41.599 64.3172 41.5958ZM64.1095 34.5688C63.9836 34.6582 63.6642 34.8731 63.3935 35.0504C62.7846 35.4519 61.2252 36.7569 61.3228 37.9584C61.4282 39.0234 62.6697 40.1026 63.1386 40.4273C63.3385 40.5653 63.6075 40.8006 63.8058 41.0076C64.0513 40.8006 64.5627 40.468 64.8128 40.4006C64.9261 40.3708 65.0143 40.341 65.0678 40.319C65.1511 40.1998 65.3038 40.0069 65.5933 39.6524C65.6043 39.6399 66.6523 38.3317 66.5185 37.2384C66.3297 36.0213 64.8427 35.0817 64.8286 35.0723C64.6948 34.9892 64.3518 34.7696 64.1079 34.5688H64.1095ZM63.8656 34.3178C63.875 34.3351 63.886 34.3508 63.8971 34.3649C63.8845 34.3492 63.8735 34.3335 63.8656 34.3178Z" fill="currentColor"/>
  <path d="M52.8071 42.983C52.7505 42.983 52.6939 42.972 52.6404 42.9516C52.5365 42.9265 52.0692 42.8763 51.7277 42.9077C51.6286 42.9171 49.3061 43.1131 48.1181 41.9556C46.7633 40.5878 47.5941 37.7425 47.6303 37.6217C47.7577 37.1966 47.8521 36.861 47.8632 36.8077C47.9104 36.5928 47.9812 36.381 48.1763 36.2728C48.277 36.2179 48.395 36.2038 48.5052 36.2336C48.6122 36.2414 49.0103 36.2179 49.3879 36.1646C49.4744 36.152 51.509 35.8838 52.7159 36.9363C53.778 37.9244 53.8221 39.8647 53.8236 39.9463C53.8331 40.4859 53.8425 40.6756 53.8488 40.7368C53.9102 40.936 53.7953 41.1572 53.5656 41.4819C53.49 41.5948 53.3327 42.1312 53.3122 42.2912C53.3138 42.3948 53.2997 42.7367 53.0589 42.903C52.9834 42.9547 52.8953 42.9814 52.8071 42.9814V42.983ZM52.6199 42.9422C52.6199 42.9422 52.6278 42.9453 52.6325 42.9484C52.6278 42.9469 52.6246 42.9453 52.6199 42.9422ZM53.3122 42.2677C53.3122 42.2677 53.3122 42.2771 53.3122 42.2834C53.3122 42.2771 53.3122 42.2708 53.3122 42.2677ZM51.9795 42.114C52.1651 42.114 52.3666 42.125 52.5428 42.1438C52.5963 41.8285 52.7741 41.245 52.9236 41.0333C52.9912 40.936 53.04 40.8576 53.0668 40.8074C53.0542 40.6631 53.0463 40.4168 53.04 39.9588C53.04 39.9431 52.9991 38.268 52.1919 37.5166C51.2667 36.7104 49.5169 36.9378 49.4996 36.9394C49.3438 36.9614 48.9394 37.0131 48.6232 37.0147C48.5854 37.1637 48.4784 37.5339 48.3856 37.8429C48.1779 38.5409 47.8254 40.5392 48.6751 41.3972C49.5987 42.2975 51.638 42.1265 51.6585 42.125C51.7529 42.1171 51.863 42.1124 51.981 42.1124L51.9795 42.114ZM48.2739 36.9818C48.2927 36.988 48.3116 36.9943 48.3289 36.9974C48.3085 36.9927 48.2896 36.988 48.2739 36.9818Z" fill="currentColor"/>
  <path d="M41.3171 52.9274C41.2557 52.9274 41.1944 52.9258 41.133 52.9211C39.2133 52.7407 38.0143 50.0288 37.9655 49.9143C37.7893 49.5064 37.6445 49.1896 37.6194 49.141C37.5171 48.9465 37.4337 48.7394 37.5155 48.5308C37.558 48.4241 37.6398 48.3379 37.7421 48.2893C37.8302 48.2265 38.1197 47.9536 38.3746 47.6713C38.4329 47.6069 39.8191 46.098 41.421 46.1294C42.8717 46.2062 44.1573 47.6634 44.2108 47.7262C44.5649 48.134 44.6955 48.272 44.7395 48.3159C44.9142 48.4289 44.9692 48.672 45.0039 49.0688C45.018 49.2037 45.2446 49.7166 45.3312 49.8515C45.3988 49.9299 45.6097 50.2013 45.531 50.4821C45.4901 50.6264 45.3831 50.7377 45.2399 50.7848C45.1439 50.8318 44.7537 51.0938 44.5129 51.3369C44.4453 51.4044 42.9111 52.9274 41.3171 52.9274ZM38.3353 48.8163C38.403 48.9543 38.5587 49.3072 38.6878 49.6021C38.9789 50.2687 39.9985 52.0271 41.2007 52.14C42.491 52.2388 43.9402 50.8005 43.9559 50.7848C44.1274 50.6122 44.4059 50.3895 44.6451 50.2295C44.483 49.9535 44.2423 49.3919 44.2203 49.1347C44.2092 49.0171 44.1951 48.9261 44.1841 48.8696C44.0818 48.7677 43.9166 48.5826 43.616 48.2375C43.605 48.2249 42.4941 46.9685 41.3911 46.9105C41.3785 46.9105 41.3675 46.9105 41.3549 46.9105C40.1323 46.9105 38.9679 48.181 38.9568 48.1936C38.8514 48.3096 38.5745 48.6092 38.3337 48.8131L38.3353 48.8163ZM45.232 50.7895C45.232 50.7895 45.2226 50.7926 45.2194 50.7926C45.2226 50.7926 45.2273 50.7911 45.232 50.7895ZM45.3138 49.8343C45.3138 49.8343 45.3201 49.8405 45.3249 49.8452C45.3201 49.8405 45.317 49.8374 45.3138 49.8343ZM38.0961 48.9888C38.0773 48.9982 38.0599 49.0061 38.0442 49.0123C38.0631 49.0061 38.0804 48.9982 38.0961 48.9888ZM44.6278 48.2673C44.6278 48.2673 44.6278 48.2673 44.6294 48.2673C44.6294 48.2673 44.6294 48.2673 44.6278 48.2673Z" fill="currentColor"/>
  <path d="M41.2763 66.232C39.9262 66.232 38.5683 65.5654 38.488 65.5246C38.0899 65.3254 37.7737 65.1748 37.7233 65.1544C37.5188 65.0713 37.3221 64.9646 37.2497 64.7545C37.2135 64.6462 37.2198 64.527 37.2686 64.4235C37.2953 64.32 37.3409 63.9247 37.3551 63.5451C37.3583 63.4588 37.4464 61.4135 38.6957 60.4112C39.857 59.5407 41.7814 59.834 41.8632 59.8465C42.3966 59.9312 42.587 59.9532 42.6484 59.9595C42.8561 59.9344 43.0544 60.0849 43.336 60.3673C43.4336 60.4614 43.9371 60.7092 44.0913 60.7563C44.1952 60.7735 44.5303 60.8457 44.6515 61.1123C44.7129 61.2488 44.7034 61.4041 44.6247 61.5311C44.5823 61.6284 44.4517 62.0801 44.4233 62.4205C44.4155 62.5177 44.2062 64.8329 42.8545 65.7991C42.3904 66.1191 41.8349 66.232 41.2763 66.232ZM38.0648 64.447C38.2174 64.516 38.5982 64.7027 38.8421 64.8235C39.4951 65.1482 41.4085 65.8414 42.4029 65.1576C43.4525 64.4078 43.6381 62.375 43.6397 62.3546C43.6602 62.1131 43.7294 61.7633 43.8112 61.4872C43.5091 61.379 42.9631 61.1029 42.7806 60.921C42.6972 60.8378 42.628 60.7767 42.5823 60.7406C42.4376 60.728 42.1937 60.692 41.7405 60.6198C41.7248 60.6167 40.0631 60.3673 39.1804 61.0292C38.2174 61.8009 38.1434 63.5545 38.1434 63.5718C38.1371 63.7286 38.1183 64.1349 38.0663 64.4455L38.0648 64.447ZM37.9924 64.7325C37.9845 64.7513 37.9766 64.7686 37.9672 64.7843C37.9766 64.767 37.9861 64.7497 37.9924 64.7325ZM44.62 61.539C44.62 61.539 44.6153 61.5468 44.6122 61.5499C44.6137 61.5468 44.6169 61.5421 44.62 61.539ZM43.9639 61.1076C43.9639 61.1076 43.9623 61.1108 43.9607 61.1123C43.9607 61.1123 43.9623 61.1092 43.9639 61.1076ZM44.0661 60.7547C44.0661 60.7547 44.0756 60.7547 44.0835 60.7563C44.0772 60.7563 44.0709 60.7547 44.0661 60.7547Z" fill="currentColor"/>
  <path d="M47.7796 77.4233C47.6868 77.4233 47.5955 77.4045 47.5106 77.3527C47.4114 77.2931 47.3406 77.1974 47.3107 77.0876C47.2635 76.9904 47.0448 76.6594 46.8104 76.3598C46.7569 76.2908 45.5059 74.669 45.8159 73.1004C46.1432 71.6888 47.8064 70.6802 47.8772 70.6378C48.3414 70.3602 48.5003 70.2567 48.5522 70.2206C48.6954 70.0685 48.944 70.0575 49.3421 70.092C49.4775 70.0998 50.0235 69.9681 50.173 69.9069C50.2627 69.8536 50.5663 69.6952 50.8307 69.8206C50.966 69.885 51.0589 70.0104 51.0793 70.1594C51.1092 70.2614 51.3012 70.6912 51.4979 70.9688C51.5545 71.0488 52.8873 72.9561 52.475 74.5623C51.9636 76.4147 49.0762 77.1206 48.9535 77.1504C48.5192 77.2539 48.1809 77.3402 48.129 77.3559C48.0125 77.3935 47.8929 77.4233 47.7781 77.4233H47.7796ZM48.0645 76.8602C48.0707 76.8806 48.0755 76.8994 48.0786 76.9167C48.0755 76.8963 48.0707 76.879 48.0645 76.8602ZM49.007 70.8637C48.889 70.9468 48.6781 71.0755 48.2847 71.3107C48.2706 71.3186 46.8371 72.1923 46.5869 73.2651C46.3493 74.4666 47.4209 75.8642 47.4319 75.8783C47.5279 76.0007 47.7749 76.3253 47.9354 76.5967C48.0959 76.5512 48.5098 76.4508 48.7725 76.3881C49.4822 76.2187 51.3956 75.5222 51.715 74.3615C52.036 73.1146 50.8669 71.4394 50.8559 71.4221C50.7158 71.2229 50.5427 70.9123 50.4279 70.6488C50.1273 70.7602 49.531 70.8982 49.2729 70.8763C49.1549 70.8653 49.0621 70.8637 49.0054 70.8653L49.007 70.8637ZM51.0825 70.1689C51.0825 70.1689 51.0825 70.1783 51.0825 70.183C51.0825 70.1798 51.0825 70.1751 51.0825 70.1689ZM50.1667 69.9132C50.1667 69.9132 50.1557 69.9195 50.1525 69.9226C50.1557 69.921 50.1604 69.9179 50.1667 69.9132Z" fill="currentColor"/>
  <path d="M63.4251 80.4322C63.3338 80.4322 63.2441 80.404 63.1686 80.3522C63.071 80.3083 62.6887 80.1954 62.3158 80.1154C62.2308 80.0966 60.2261 79.6558 59.4535 78.2551C58.7942 76.9642 59.4189 75.1259 59.4457 75.0475C59.6219 74.5377 59.677 74.3557 59.6943 74.2961C59.7053 74.0891 59.8894 73.9197 60.2167 73.6923C60.3268 73.6123 60.6588 73.1605 60.7328 73.0178C60.7674 72.9205 60.8964 72.6021 61.1812 72.53C61.3276 72.4923 61.4786 72.53 61.5904 72.6288C61.6785 72.6884 62.1018 72.8939 62.4338 72.9817C62.5297 73.0068 64.7799 73.6138 65.499 75.1071C66.303 76.8544 64.5454 79.2448 64.4699 79.3452C64.204 79.7029 64.001 79.9852 63.9711 80.0307C63.8531 80.2158 63.7146 80.3914 63.4927 80.4259C63.4707 80.4291 63.4471 80.4307 63.4251 80.4307V80.4322ZM63.5997 79.695C63.617 79.706 63.6328 79.717 63.6454 79.728C63.6296 79.7154 63.6155 79.7044 63.5997 79.695ZM60.4543 74.4969C60.4165 74.6365 60.3394 74.8702 60.1884 75.3031C60.1836 75.3188 59.6471 76.9062 60.1474 77.8881C60.7407 78.9609 62.4621 79.3437 62.4794 79.3484C62.632 79.3813 63.0301 79.4707 63.3291 79.5758C63.4235 79.4378 63.6737 79.0958 63.8358 78.8794C64.2701 78.2943 65.2865 76.536 64.783 75.4412C64.2244 74.2804 62.2497 73.7456 62.2292 73.7409C61.9932 73.6781 61.6612 73.5495 61.4031 73.4225C61.2442 73.7017 60.876 74.1879 60.6651 74.3353C60.5692 74.4028 60.4968 74.4608 60.4527 74.4985L60.4543 74.4969ZM61.0554 73.2044C61.0554 73.2044 61.0585 73.2076 61.0601 73.2091C61.0601 73.2091 61.0569 73.206 61.0554 73.2044ZM60.7297 73.0272C60.7297 73.0272 60.7265 73.0382 60.7249 73.0413C60.7249 73.0382 60.7281 73.0335 60.7297 73.0272ZM61.5967 72.6351C61.5967 72.6351 61.6029 72.6413 61.6061 72.6445C61.6029 72.6413 61.5998 72.6382 61.5967 72.6351Z" fill="currentColor"/>
  <path d="M75.2014 110.688L74.4178 110.644C74.4178 107.535 74.6586 104.39 76.07 101.845C76.5814 100.77 77.2926 99.7633 78.2965 98.8629C78.7481 98.1304 78.756 97.5281 78.7214 96.9274C78.5703 95.5377 78.1376 94.2029 77.472 92.9872C76.3312 91.4328 74.6775 90.3317 72.9576 89.1867C72.6854 89.0047 72.4116 88.8228 72.1378 88.6377C71.6359 88.4354 71.3715 87.8378 71.3652 87.3201C71.2205 86.5045 71.0961 85.7469 70.9939 85.1117L70.654 83.0098L70.119 79.9873C69.9113 80.646 69.6013 81.275 69.1938 81.857C68.1489 83.3439 66.5864 84.3352 64.7942 84.6505C63.0004 84.9658 61.1924 84.5658 59.7008 83.5243C58.453 82.6538 57.5513 81.4209 57.106 79.9935L50.7553 89.3388C50.1023 90.3004 49.5138 91.1677 48.9458 92.0461C48.7585 92.3849 48.7601 92.6704 48.7633 93.0296C48.7633 93.1535 48.7648 93.2806 48.7585 93.4186C49.0449 98.9963 45.2921 104.234 40.0208 105.604L39.8178 104.847C46.0364 103.156 48.6075 96.4255 47.4982 90.8948L47.4793 90.8007L47.506 90.7082C47.6099 90.3552 47.8176 89.9835 48.1575 89.538C48.5209 88.8918 48.8797 88.2707 49.196 87.7233L52.985 81.1699C52.4012 81.5417 51.7577 81.8256 51.07 82.0091C49.3108 82.4781 47.4746 82.2381 45.8979 81.3299C42.9003 79.6046 41.7139 75.9358 43.0136 72.8332L21.1402 78.9364C20.3126 79.1167 20.0451 79.3191 20.012 79.3818L20.0042 79.4022C19.4534 80.7276 18.6793 81.9464 17.7005 83.0255C17.5825 83.1557 17.4676 83.2843 17.3528 83.4129C17.0129 83.7925 16.6919 84.1517 16.3394 84.5015C14.4843 86.6221 11.6299 87.9366 8.70003 88.0166C6.04079 88.0872 3.63017 87.1586 1.91504 85.3956L2.47521 84.845C4.044 86.4088 6.22175 87.2009 8.60719 87.0786C11.4191 86.9343 14.2514 85.5116 15.9996 83.3674L16.0121 83.3533C16.33 82.9988 16.6274 82.6302 16.9405 82.2397C17.0601 82.0907 17.1813 81.9417 17.304 81.7895C18.1883 80.7088 18.8885 79.5026 19.3873 78.2054L19.4031 78.1709C19.6076 77.7631 20.2323 77.5168 20.5911 77.4306C20.8271 77.3427 21.0647 77.2565 21.3007 77.1702C21.5792 77.0682 21.8546 76.9678 22.1237 76.8659L36.2098 72.1431L39.1082 71.0906C36.6614 70.7753 34.4679 69.1425 33.5678 66.6752C32.9447 64.9702 33.0266 63.1256 33.796 61.4802C34.4286 60.1281 35.4639 59.0443 36.7636 58.3573L30.8551 56.1676C30.4523 56.0217 30.0369 55.8711 29.6167 55.7237C29.4311 55.6735 29.2564 55.5998 29.088 55.5292C28.701 55.3676 28.5043 55.3018 28.3768 55.3974C24.207 58.4325 19.1387 58.5596 15.1483 55.7315C14.7203 55.4272 14.1129 54.9582 13.7935 54.3842L13.7494 54.3042L13.7447 54.2132C13.5905 50.9977 12.7109 48.3249 11.1264 46.2529C10.4498 45.4875 9.66302 44.8177 8.79916 44.2844C7.80313 43.668 6.74101 43.2617 5.6663 43.0735C4.61361 42.9025 3.54048 42.9245 2.51612 43.1598L2.33674 42.3959C3.53418 42.1104 4.77569 42.0947 5.99673 42.3363C7.8881 42.6861 9.70236 43.6037 11.0886 44.984L11.1012 44.9981C11.3278 45.2459 11.5434 45.5047 11.7479 45.7714C12.9674 47.1611 13.8564 48.8394 14.2671 50.6009C14.3159 50.7467 14.3615 50.8911 14.4087 51.0354C14.5252 51.4008 14.6353 51.7459 14.7958 52.1051C15.1121 52.4141 15.4551 52.709 15.8155 52.9788C16.577 53.5513 17.4204 54.0234 18.3221 54.3826C21.9884 55.7111 25.6389 54.2681 28.7718 52.8109C29.3099 52.5427 29.8213 52.7325 30.2745 52.8988C30.3295 52.9192 30.3846 52.9395 30.4413 52.9599L32.0651 53.4321L34.9635 54.4846C34.4946 53.9763 34.1028 53.3944 33.8023 52.7513C33.0328 51.1059 32.9526 49.2613 33.5741 47.5564C34.1957 45.8514 35.4482 44.4899 37.0988 43.7229C38.4741 43.0829 39.9909 42.9214 41.448 43.2445L33.8165 28.0956C33.7488 27.989 33.6922 27.8792 33.6418 27.7835C33.5867 27.6768 33.5049 27.52 33.4545 27.4745L33.3948 27.4666C32.6253 27.3176 31.8716 27.1012 31.1509 26.822C30.479 26.5616 29.8071 26.2338 29.1541 25.8495C27.1007 24.9146 25.3211 23.2614 24.1425 21.1909C23.768 20.5337 23.4517 19.8295 23.2 19.097C22.0513 16.1011 22.333 12.7162 23.96 10.0528L24.6382 10.4512C23.0033 13.3028 23.1968 17.1488 25.1432 20.4867C25.5036 21.0921 25.908 21.6568 26.347 22.1634C27.2801 23.2379 28.3815 24.0739 29.6215 24.6464C30.1864 24.9272 30.7859 25.1656 31.4137 25.357C32.0494 25.5687 32.7071 25.713 33.3822 25.7883C34.0997 25.7977 34.8833 26.2275 35.294 26.8392C35.5001 27.1372 35.7566 27.5733 36.0036 27.9968L40.9618 36.4402L42.5101 39.113C42.3968 36.6566 43.6289 34.2207 45.9089 32.9079C47.4856 32.0012 49.3219 31.7597 51.081 32.2287C52.5476 32.6208 53.8127 33.4663 54.7206 34.6474L57.2524 23.9437C57.3625 23.3712 57.4695 22.7987 57.5749 22.2277C55.8755 19.911 54.9377 17.072 54.9346 14.2094C54.9346 13.6102 54.9975 12.8479 55.4759 12.1735C55.4916 12.1374 55.5089 12.1013 55.5278 12.0652L55.575 11.9696L55.6647 11.9115C55.7544 11.8535 55.8441 11.7939 55.9322 11.7327C58.9769 9.11013 60.5977 5.45075 61.8785 2.20703L62.6212 2.46113C61.2302 7.17613 59.1972 10.4167 56.4137 12.3523C56.3303 12.4229 56.2469 12.4934 56.1619 12.5625C56.1619 12.5625 56.1603 12.5656 56.1588 12.5656C55.9495 13.0675 55.918 13.5961 55.9165 14.0557C55.9652 16.6783 57.1643 19.3432 59.4789 21.9642L59.5104 22.005C59.7322 22.3375 59.6834 22.6293 59.652 22.8222C59.6362 22.921 59.6268 22.9791 59.6394 23.0355L59.6551 23.1061L58.733 29.112L58.1965 32.1487C58.6166 31.6013 59.1249 31.115 59.7071 30.7072C61.1987 29.6657 63.0067 29.2673 64.8005 29.581C66.5928 29.8963 68.1552 30.8876 69.2001 32.3746C70.0623 33.6027 70.4856 35.0473 70.429 36.5186L85.6024 24.4252C85.9139 24.1523 86.3152 23.7963 86.6755 23.4496C86.9336 23.2018 87.0311 23.0214 87.1413 22.8018C87.4261 19.3762 89.1774 16.3316 92.0774 14.2251L92.1026 14.2078C92.5809 13.913 93.3488 13.5616 94.4707 13.9098C97.7798 14.9796 101.415 14.0855 103.523 11.6841L104.126 12.1876C101.918 14.9372 97.9104 16.1481 94.1481 15.2023C93.4747 15.105 93.0199 15.3968 92.5416 15.7607C89.9579 18.0115 88.3906 21.1125 88.1263 24.4943C88.1184 24.9256 87.7927 25.1342 87.5771 25.2738C87.4103 25.3805 87.3081 25.4511 87.2734 25.5624L87.2435 25.6628L87.168 25.735C86.8454 26.0393 86.4898 26.3702 86.0791 26.7467C85.7109 27.0839 85.3412 27.4196 84.9745 27.7505L77.0755 34.8889L74.7011 36.8762C75.3761 36.7257 76.0795 36.6786 76.7875 36.7398C78.6018 36.8982 80.2445 37.7499 81.4152 39.1412C82.5859 40.5325 83.143 42.2924 82.984 44.1009C82.8519 45.6004 82.2413 46.9838 81.2406 48.0771L98.8812 48.7626C99.2668 48.772 99.561 48.7579 99.8741 48.7437C99.9811 48.739 100.088 48.7343 100.201 48.7296C100.315 48.7202 100.423 48.7249 100.519 48.7296C100.645 48.7343 100.776 48.7406 100.818 48.7077C104.609 44.3722 111.361 43.5064 116.198 46.7376C117.062 47.2819 117.859 47.9014 118.575 48.5853C118.879 48.7939 119.175 49.0088 119.463 49.23C119.859 49.379 120.325 49.5029 120.887 49.6111L120.748 50.3828C120.604 50.3593 120.459 50.3389 120.317 50.3185C119.762 50.2401 119.238 50.1664 118.786 49.9044L118.733 49.8731L118.692 49.8276C118.495 49.6111 118.291 49.3994 118.078 49.1939C117.339 48.6888 116.544 48.2198 115.674 47.7697L115.655 47.7587C110.753 44.8616 104.112 46.129 100.851 50.5821L100.744 50.7279L100.563 50.742C100.442 50.7515 100.354 50.764 100.266 50.775C100.107 50.7954 99.9434 50.8173 99.6476 50.8236L87.3899 51.0699H84.2885C86.4788 52.2008 87.9799 54.483 87.9799 57.1071C87.9799 60.5422 85.4088 63.3891 82.0856 63.8393L93.599 74.2167C93.7327 74.2888 93.846 74.3719 93.9467 74.4472C94.1387 74.5884 94.2488 74.6653 94.4015 74.6715C98.2188 74.2496 102.121 75.815 104.592 78.7623C105.122 79.3755 105.556 79.9073 105.938 80.4955C106.226 80.9441 106.477 81.4193 106.703 81.9495C106.894 82.3965 107.07 82.8859 107.241 83.4474L107.255 83.4929L107.259 83.5557C107.336 83.8098 107.389 84.0749 107.389 84.3227C107.389 85.0379 107.436 85.8661 107.584 86.7194C107.897 88.2801 108.453 89.5945 109.237 90.6376L108.617 91.1207C107.597 89.869 107.071 88.3413 106.816 86.8919C106.768 86.6551 106.725 86.412 106.689 86.1641C106.563 85.3877 106.524 84.5925 106.486 83.8239L106.48 83.6968C106.387 83.4161 106.267 83.1573 106.212 83.0396C105.882 82.2601 105.529 81.5919 105.13 80.9833C104.689 80.3135 104.204 79.7363 103.649 79.2203L103.632 79.2046C103.158 78.7089 102.713 78.2917 102.269 77.9309C99.6948 75.8291 96.5745 75.1593 93.4841 76.0424L93.4385 76.055H93.3913C93.3362 76.0597 93.2811 76.0738 93.2103 76.0942C93.012 76.1491 92.7131 76.2322 92.3103 76.0016L92.2599 75.9671L84.8612 70.0789L82.49 68.0963C82.7559 68.7331 82.9243 69.4138 82.9856 70.1212C83.1445 71.9297 82.5875 73.6896 81.4168 75.0809C80.2461 76.4722 78.6034 77.3239 76.7891 77.4823C75.266 77.6157 73.7758 77.2455 72.5123 76.4314L73.3825 86.161C73.4328 86.7241 73.5068 87.5507 73.6515 87.9868C75.5523 89.0942 77.0881 90.6674 78.1187 92.5057C78.6569 93.2398 79.0943 94.0727 79.3901 95.0546C79.7536 96.1384 79.8889 97.2615 79.7898 98.3783L79.7804 98.4771L79.7269 98.5587C79.4216 99.0214 79.1289 99.4449 78.627 99.9358L78.6081 99.9531C77.8843 100.574 77.3131 101.28 76.8646 102.041C75.8198 104.15 75.598 106.582 75.3824 108.956C75.3305 109.523 75.277 110.109 75.214 110.68L75.2014 110.688ZM48.2881 90.8415C48.3274 91.0438 48.362 91.2477 48.3919 91.4516C48.9301 90.625 49.4871 89.8031 50.1007 88.8981L57.501 78.0094L57.6693 78.9991C57.9494 80.5833 58.8306 81.9605 60.1492 82.8812C61.4678 83.8019 63.0681 84.1549 64.6542 83.8772C66.2403 83.598 67.6218 82.7212 68.5455 81.4052C69.4691 80.0908 69.8232 78.4956 69.5447 76.9145C69.2661 75.3334 68.385 73.9563 67.0648 73.0356C65.7462 72.1148 64.1459 71.7619 62.5598 72.0395C62.2105 72.1007 61.8596 72.1964 61.515 72.3219L60.4938 72.6967L63.3198 67.8171L63.3733 67.7731C63.7903 67.4249 64.1931 67.0532 64.5818 66.6579C63.6833 67.3653 62.6889 67.9645 61.7164 68.5511C61.4505 68.7111 61.183 68.8727 60.9187 69.0358L49.8757 88.1123C49.5563 88.6659 49.1944 89.2918 48.8278 89.9443L48.7963 89.9913C48.5382 90.327 48.373 90.5999 48.2865 90.8415H48.2881ZM68.3692 65.596L71.4266 82.8781L71.768 84.9846C71.8719 85.6261 71.9978 86.3931 72.1441 87.215L72.1504 87.2511V87.2872C72.1472 87.5884 72.3015 87.866 72.4431 87.913L72.495 87.9303L72.5406 87.9601C72.6539 88.037 72.7656 88.1123 72.8789 88.1875C72.7294 87.7076 72.6586 87.0143 72.5878 86.2363L71.5556 74.6794L72.3077 75.3193C73.5445 76.353 75.107 76.8455 76.712 76.7043C78.3154 76.5647 79.7694 75.8103 80.8047 74.5806C81.8401 73.3508 82.3326 71.7933 82.1926 70.1934C82.0525 68.5935 81.2957 67.1457 80.062 66.1136C78.8284 65.0815 77.2659 64.5906 75.6609 64.7302C74.0559 64.8698 72.6036 65.6242 71.5682 66.854C71.34 67.1253 71.1323 67.4234 70.9498 67.7402L70.4101 68.6813L69.4282 63.135L69.4392 63.0691C69.5399 62.4637 69.6328 61.7453 69.6847 60.9516C69.5352 61.9931 69.2064 62.9797 68.8854 63.9428C68.706 64.4839 68.5203 65.0408 68.3708 65.5944L68.3692 65.596ZM44.5934 71.5768L44.0868 72.4379C42.4236 75.3099 43.4133 78.9928 46.2913 80.6492C47.6854 81.4523 49.3108 81.6656 50.8655 81.2499C52.4217 80.8343 53.7214 79.8398 54.5255 78.4501C55.3311 77.0604 55.5451 75.4401 55.1281 73.8904C54.7111 72.3391 53.7135 71.0435 52.3194 70.242C52.0126 70.0648 51.6821 69.9126 51.3375 69.7903L50.3132 69.4232L54.0094 68.0821C54.5349 67.9033 55.1124 67.7057 55.9338 67.5865L55.9762 67.5833C56.464 67.5661 56.9943 67.53 57.5561 67.4688C56.6607 67.4877 55.7843 67.3763 54.9251 67.2665C54.3917 67.1991 53.841 67.1285 53.295 67.0908C52.4579 67.1206 51.786 67.3496 51.0071 67.6131L36.4678 72.8881L22.3849 77.6094C22.1268 77.7066 21.8499 77.807 21.5698 77.9105C21.3275 77.9999 21.0836 78.0893 20.8413 78.1788L20.7925 78.1929C20.676 78.2195 20.5675 78.2572 20.4731 78.298C20.621 78.2541 20.783 78.2133 20.9609 78.174L44.5919 71.5799L44.5934 71.5768ZM52.5224 69.4546C52.5869 69.4891 52.6514 69.5252 52.7144 69.5613C54.291 70.4679 55.4192 71.9344 55.8897 73.6865C56.0738 74.3719 56.1493 75.0699 56.1179 75.7585L60.3365 68.4743L60.4199 68.4225C60.7157 68.2406 61.0131 68.0602 61.3089 67.8814C61.7542 67.6131 62.1916 67.3481 62.6165 67.0783C60.2106 67.9927 57.8361 68.2954 56.0266 68.3645C55.2886 68.4743 54.7757 68.6484 54.2784 68.8178L52.5224 69.4546ZM92.7115 75.3413C92.8106 75.3946 92.8468 75.3836 92.9869 75.346C93.0703 75.3225 93.171 75.2942 93.2937 75.2848C93.4007 75.255 93.5093 75.2252 93.6179 75.1985C93.5644 75.1625 93.514 75.1248 93.4652 75.0888C93.3677 75.0166 93.2764 74.9507 93.182 74.9021L93.1332 74.8786L80.0951 63.1271H81.1493C84.4742 63.1271 87.1775 60.4324 87.1775 57.1181C87.1775 53.8038 84.4726 51.1091 81.1493 51.1091C77.8261 51.1091 75.1212 53.8054 75.1212 57.1181C75.1212 57.471 75.1542 57.8334 75.2188 58.1926L75.4123 59.2592L71.071 55.628L71.0348 55.5527C70.665 54.7904 70.2213 54.0673 69.7004 53.3803C70.6398 54.8798 71.3038 56.5581 71.8782 58.2145L85.3475 69.4797L92.7131 75.3413H92.7115ZM63.6219 71.1627C65.0082 71.1627 66.3583 71.5847 67.5164 72.3925C68.1002 72.7987 68.6068 73.285 69.027 73.8339L67.5636 65.5631L67.5856 65.4799C67.743 64.8745 67.9428 64.2753 68.1364 63.6965C68.2481 63.3624 68.3582 63.0315 68.4589 62.7036C67.2379 64.9278 65.7021 66.8414 63.9335 68.33L62.2074 71.3102C62.2797 71.2945 62.3506 71.2819 62.4229 71.2678C62.8226 71.1972 63.2239 71.1627 63.6204 71.1627H63.6219ZM28.5058 54.5708C28.8174 54.5708 29.1227 54.6994 29.3902 54.8108C29.5459 54.8767 29.6939 54.9379 29.8339 54.9739L29.8638 54.9833C30.2902 55.1339 30.7135 55.2876 31.121 55.4351L31.1997 55.4633L38.9571 58.3384L37.9123 58.7086C36.3954 59.2592 35.1886 60.3618 34.5072 61.8174C33.8259 63.2715 33.7551 64.9043 34.3058 66.4132C35.4435 69.5267 38.9099 71.1376 42.0333 70.0051C43.5471 69.4562 44.7539 68.3519 45.4353 66.8979C46.1166 65.4439 46.1874 63.811 45.6367 62.3021C45.5155 61.9696 45.3598 61.6418 45.1757 61.3265L44.6281 60.3901L48.3242 61.7312C48.8577 61.9429 49.4493 62.1766 50.4375 63.0221C50.9583 63.4236 51.5075 63.7906 52.0865 64.1247C50.8733 63.3216 49.8159 62.2347 48.7853 61.1759L48.5194 60.903C47.7358 60.0073 47.0812 59.7485 46.3227 59.4474L31.7992 54.1787L30.1801 53.7081C30.1171 53.6862 30.0542 53.6626 29.9912 53.6391C29.5916 53.4917 29.3351 53.407 29.1054 53.5215C25.8199 55.0492 21.9931 56.555 18.0341 55.1198C17.057 54.7308 16.1522 54.2226 15.334 53.6093C15.0145 53.3693 14.7077 53.1121 14.4182 52.8423C14.4638 53.247 14.4984 53.6611 14.5205 54.083C14.7769 54.4893 15.2553 54.8547 15.5999 55.0994C19.3622 57.7659 23.9615 57.6436 27.9032 54.7747C28.0983 54.6289 28.3029 54.574 28.5027 54.574L28.5058 54.5708ZM46.2976 61.8284C46.3243 61.8959 46.3511 61.9649 46.3762 62.0323C47.2763 64.498 46.65 67.1536 44.979 68.9636L50.7459 66.8712C51.5625 66.5936 52.3257 66.3348 53.2887 66.3034H53.3076H53.3265C53.9024 66.3426 54.472 66.4148 55.0227 66.4854C55.4255 66.5371 55.822 66.5873 56.2154 66.625C53.7781 65.9834 51.7089 64.9937 49.945 63.6338L49.9292 63.6212C49.0355 62.8558 48.5304 62.655 48.0426 62.4621L46.296 61.8284H46.2976ZM59.8707 67.0783L59.7511 67.1112C59.7999 67.1002 59.8487 67.0893 59.899 67.0783C59.8896 67.0783 59.8801 67.0783 59.8707 67.0783ZM70.2244 63.1334L70.8239 66.5246C70.8696 66.4665 70.9152 66.4101 70.9624 66.3552C72.1331 64.9655 73.7758 64.1122 75.5901 63.9538C76.2998 63.891 77.0015 63.9396 77.6766 64.0887L71.2047 58.6757L71.1685 58.5721C70.8412 57.6185 70.4825 56.6585 70.0608 55.7315C70.6021 57.9212 70.665 60.4293 70.2244 63.1334ZM59.663 48.3108C58.0014 48.3108 56.3539 48.7343 54.9582 49.5547C50.9756 51.8526 49.5705 57.1918 51.8206 61.4551C53.7875 65.1584 58.1729 67.0704 62.2467 66.0007C64.7171 65.3043 66.865 63.4503 67.9869 61.041C69.038 58.7823 69.0836 56.2617 68.1096 54.1238V54.1207C68.1096 54.1207 67.8846 53.6219 67.4928 52.8988L67.4849 52.8847C66.5031 50.8785 64.7014 49.3947 62.4103 48.7077C61.5182 48.4394 60.5882 48.3092 59.663 48.3092V48.3108ZM49.1047 60.3775L49.3486 60.6285C49.9166 61.212 50.4926 61.8033 51.0936 62.346C49.624 60.401 48.576 58.2396 48.0158 55.9715L48.0095 55.9386C47.8333 54.8343 47.6256 54.0705 47.3754 53.5999L46.447 51.9969C46.4234 52.0674 46.3998 52.1349 46.3747 52.2039C45.7516 53.9089 44.5006 55.2704 42.85 56.0374C42.2049 56.337 41.5282 56.5315 40.8422 56.6209L46.6013 58.7102C47.3912 59.0239 48.1968 59.3439 49.1031 60.3744L49.1047 60.3775ZM69.595 57.5463C69.5903 57.7989 69.5761 58.0514 69.551 58.3039L69.6501 58.0514C69.6344 57.8836 69.617 57.7157 69.595 57.5463ZM71.7051 55.1371L74.3376 57.3393C74.3344 57.2656 74.3344 57.1934 74.3344 57.1197C74.3344 54.4955 75.8356 52.2133 78.0259 51.0824H69.573L69.4833 51.0307C69.1985 50.8691 68.9121 50.7028 68.6242 50.5366C67.9979 50.1727 67.3638 49.8056 66.7155 49.4715C68.975 51.0934 70.6477 52.9897 71.7051 55.1355V55.1371ZM48.7853 55.8005C48.8781 56.1754 48.9851 56.5456 49.1047 56.9142C48.7617 55.3943 48.7082 53.9026 48.7161 52.6462C48.7444 51.4698 48.4202 50.9099 48.0095 50.2009L40.2694 36.837L35.3129 28.3952C35.0721 27.9858 34.8235 27.5607 34.63 27.2815C34.3546 26.8706 33.8149 26.5741 33.3475 26.5741H33.3051C33.0313 26.5412 32.7575 26.502 32.49 26.4502C32.8236 26.5459 33.1634 26.6275 33.5065 26.6949C33.9644 26.72 34.1768 27.1263 34.3326 27.4258C34.3798 27.5184 34.4301 27.6125 34.4836 27.6956L34.5041 27.7301L43.0011 44.5965L42.0381 44.2374C40.5212 43.6868 38.8847 43.7574 37.4245 44.4366C35.9643 45.1142 34.8581 46.3188 34.3074 47.8277C33.7567 49.3366 33.8275 50.9679 34.5088 52.4235C35.1901 53.8791 36.397 54.9818 37.9107 55.5308C39.4245 56.0797 41.0609 56.0092 42.5211 55.33C43.9814 54.6508 45.0875 53.4478 45.6383 51.9388C45.7012 51.7647 45.7563 51.5906 45.8145 51.3726C45.868 51.1718 45.9105 50.9522 45.9372 50.7405L46.2866 47.9406L46.7161 50.7295C46.7256 50.7875 46.768 50.982 46.8357 51.1012L48.0646 53.2235C48.3652 53.7881 48.5918 54.6038 48.7853 55.8021V55.8005ZM45.6241 44.5103L48.6925 49.8088C49.1267 50.5585 49.5374 51.2675 49.5044 52.6588C49.4997 53.4227 49.517 54.2775 49.6145 55.1716C49.7467 52.8219 50.4611 50.4817 51.7199 48.394L51.7293 48.3798C52.3698 47.4168 52.4768 46.8976 52.579 46.3972L52.9032 44.5683C52.8402 44.6075 52.7789 44.6452 52.7144 44.6812C50.4343 45.9941 47.7027 45.8388 45.6241 44.5134V44.5103ZM50.8875 52.2839C50.7585 52.7466 50.653 53.2156 50.5728 53.6862C50.7286 53.2642 50.9111 52.8533 51.1235 52.458L50.8875 52.2839ZM66.7753 50.4848C66.9657 50.6887 67.1451 50.9005 67.3134 51.1216L67.4283 51.0087C67.2174 50.8314 67.0003 50.6558 66.7753 50.4832V50.4848ZM52.3902 48.8049C52.0425 49.3821 51.7388 49.9782 51.4807 50.5899C51.498 50.5617 51.5138 50.535 51.5311 50.5068C52.3997 49.0559 53.2981 47.5579 54.5695 46.3423C55.0054 45.638 55.1234 44.9667 55.2619 44.1903L57.9494 28.9944L58.8495 23.1296C58.8275 22.9587 58.8511 22.8128 58.8699 22.703C58.8935 22.5634 58.8967 22.5258 58.8621 22.4693C58.412 21.958 58.0029 21.445 57.6332 20.929C57.8393 21.2631 58.0612 21.5878 58.2972 21.9015L58.401 22.0395L58.3696 22.2089C58.2531 22.841 58.1351 23.4732 58.014 24.1068L58.0108 24.1225L55.04 36.6833L54.5318 35.7971C53.7245 34.4042 52.4248 33.4098 50.8702 32.9941C49.3156 32.5785 47.6901 32.7918 46.296 33.5949C43.4165 35.2512 42.4267 38.9341 44.0899 41.8046C44.8956 43.1943 46.1953 44.1887 47.7499 44.6044C49.3061 45.02 50.93 44.8067 52.3241 44.0036C52.631 43.8264 52.9284 43.6178 53.2084 43.3825L54.0393 42.6814L53.3563 46.5415C53.2415 47.1031 53.114 47.7226 52.3934 48.808L52.3902 48.8049ZM69.7823 50.3013H87.3694L99.6192 50.055C99.8726 50.0503 100.002 50.0331 100.151 50.0127C100.201 50.0064 100.253 50.0001 100.308 49.9923C100.428 49.8339 100.552 49.6801 100.68 49.5296C100.607 49.5296 100.538 49.528 100.474 49.5249C100.392 49.5217 100.313 49.5186 100.247 49.5249H100.228C100.115 49.5296 100.006 49.5358 99.8993 49.5405C99.5862 49.5547 99.2636 49.5704 98.8451 49.5594L79.2359 48.7971L80.0573 48.1273C81.2925 47.0936 82.0494 45.6443 82.191 44.046C82.3326 42.4477 81.8385 40.8885 80.8032 39.6588C79.7678 38.4291 78.3139 37.6746 76.7104 37.535C75.1055 37.3954 73.543 37.8864 72.3093 38.9185C69.7634 41.0485 69.4298 44.8459 71.5666 47.3854C71.7948 47.6567 72.0528 47.9124 72.3345 48.1461L73.17 48.8394H69.2205C68.6824 48.8284 68.0719 48.8143 67.2898 48.6575L67.2489 48.6496L67.2111 48.6324C66.47 48.3092 65.7021 48.0504 64.9232 47.8591C66.3835 48.3343 67.7194 49.1092 69.0222 49.8652C69.2772 50.0127 69.5305 50.1601 69.7838 50.3044L69.7823 50.3013ZM55.2351 48.3375C55.0463 48.4912 54.8606 48.6512 54.6765 48.8159C54.8858 48.6967 55.1014 48.5853 55.3201 48.4834L55.2351 48.3391V48.3375ZM57.0997 38.3099L56.036 44.3252C55.8881 45.1612 55.7481 45.9518 55.2084 46.8019L55.1816 46.8427L55.1454 46.8756C54.5349 47.4528 54.0109 48.1116 53.531 48.8033C55.1769 47.2285 57.1674 45.798 59.6174 45.1847C60.3931 44.8553 60.8085 44.5228 61.2113 44.2013L62.6401 43.0061C62.5677 42.9951 62.4953 42.9841 62.4229 42.9715C60.6307 42.6563 59.0682 41.665 58.0234 40.178C57.6143 39.5961 57.3043 38.9671 57.0982 38.3083L57.0997 38.3099ZM67.4881 47.8936C68.1804 48.0301 68.7186 48.041 69.2378 48.052H71.1072C71.0584 47.9971 71.0096 47.9422 70.964 47.8873C69.2709 45.8765 68.9499 43.1676 69.8987 40.8964L65.197 44.8287C64.533 45.362 63.9115 45.8608 63.1405 46.2262L63.0964 46.2482L62.5362 46.358C62.0296 46.4568 61.5182 46.5556 61.0083 46.6654C63.2065 46.5964 65.4362 47.0058 67.4881 47.8936ZM59.8613 47.5328C60.7424 47.5485 61.6252 47.6756 62.478 47.9156L61.526 47.4419C60.9674 47.4387 60.412 47.4701 59.8613 47.5328ZM64.7281 42.2861L61.7149 44.8052C61.2774 45.1549 60.7928 45.5424 59.8974 45.9188L59.8392 45.9376C58.9345 46.1619 58.1021 46.4945 57.3232 46.9164C58.9486 46.256 60.6874 45.9172 62.3867 45.5863L62.8478 45.4969C63.5165 45.1706 64.0909 44.7095 64.6998 44.2232L76.5515 34.3101L84.4395 27.1812C84.8046 26.8518 85.1744 26.5161 85.541 26.1804C85.9202 25.8338 86.2522 25.5248 86.5528 25.2409C86.6881 24.9178 86.9493 24.7515 87.1444 24.626C87.2136 24.5821 87.3175 24.5147 87.3364 24.4833V24.4598C87.3505 24.2511 87.371 24.0441 87.3962 23.8371C87.3427 23.8967 87.2829 23.9594 87.2152 24.0253C86.8407 24.386 86.4269 24.7531 86.1075 25.0307L86.0933 25.0417L69.359 38.3789L69.5462 37.3248C69.8263 35.7406 69.4723 34.147 68.5486 32.831C67.625 31.5166 66.2434 30.6382 64.6573 30.359C63.0712 30.0814 61.471 30.4343 60.1524 31.355C58.8337 32.2757 57.9526 33.6529 57.6725 35.234C57.3924 36.8151 57.748 38.4103 58.6717 39.7247C59.5953 41.0391 60.9769 41.9175 62.563 42.1967C62.9123 42.2579 63.2821 42.2924 63.6408 42.2877L64.7281 42.283V42.2861Z" fill="currentColor"/>
  <path d="M59.627 66.944C57.3658 66.944 55.1865 66.0845 53.3959 64.4673C51.1772 62.4643 49.8885 59.5437 49.9483 56.6576C50.0049 53.8829 51.5108 51.1615 53.9765 49.3796C56.4044 47.6244 59.2902 47.0708 61.8975 47.8582L61.9274 47.8644C64.4136 48.2801 66.6606 49.858 68.0956 52.1951C69.5983 54.6436 69.9933 57.5109 69.1798 60.0598C68.0327 63.7176 64.7031 66.395 60.6954 66.8797C60.3366 66.9221 59.9794 66.944 59.6238 66.944H59.627ZM59.5137 48.2926C57.7765 48.2926 56.0063 48.8824 54.4391 50.0149C52.1717 51.654 50.787 54.1433 50.735 56.6749C50.68 59.3382 51.8711 62.033 53.923 63.887C55.8238 65.6029 58.1951 66.3903 60.6025 66.1017C64.3019 65.6547 67.375 63.1905 68.4308 59.8245C69.1766 57.4905 68.81 54.8601 67.4253 52.6045C66.1067 50.4572 64.0517 49.011 61.7858 48.6362L61.6804 48.6111C60.9755 48.3977 60.2469 48.2911 59.5121 48.2911L59.5137 48.2926Z" fill="currentColor"/>
</svg>