<svg width="143" height="143" viewBox="0 0 143 143" fill="none" xmlns="http://www.w3.org/2000/svg">
<path d="M61.0419 111.408C63.8098 103.338 64.2782 102.406 66.0798 108.968C65.5566 101.487 68.4933 96.5527 76.7381 99.8187C69.7296 95.5076 70.1558 94.4414 77.0166 90.2314C72.2233 92.2163 73.8731 91.0532 77.7381 88.5289C75.9364 89.3085 76.3583 88.7227 77.6706 87.5512C77.9955 87.1129 79.2106 86.0889 80.4512 85.0396C82.1052 83.6447 83.8056 82.2076 85.4891 80.7874C87.1769 79.3631 88.8478 77.9513 88.5229 79.2746C92.0292 75.2627 93.5482 73.9815 97.9786 73.7708C96.3035 71.6511 113.945 64.6303 117.662 62.3715C100.747 68.638 116.08 60.5847 117.603 59.5016C117.24 59.5985 111.379 62.991 116.974 59.0886C116.574 59.3499 98.9744 70.311 115.43 58.6251C113.329 59.8851 112.422 60.0368 113.502 58.0267C110.755 60.8417 110 61.4949 111.671 59.3541C108.569 61.7309 105.46 65.8819 107.088 57.5547C107.316 61.575 92.7128 69.7969 92.0081 68.364C92.198 69.8896 94.1727 67.7741 91.7001 64.6598C93.6452 67.9342 93.641 68.6927 90.2571 69.0046C92.8858 68.8023 92.2486 68.1449 89.2022 66.1769C91.9659 68.2123 92.3161 68.9372 89.4638 69.5819C92.5904 69.0299 92.0208 68.3935 88.5946 66.8048C91.0798 68.4525 88.2106 70.6608 84.8014 71.8112C87.8098 70.7071 90.2739 68.5495 87.7212 67.5043C90.3836 68.5705 88.025 70.7493 85.0039 71.8492C87.8731 70.8925 90.0756 68.8613 87.371 68.0943C89.6832 68.933 87.0841 71.04 84.4301 71.9714C87.3161 71.3182 90.1474 69.4977 87.5398 68.8613C90.9912 69.6536 88.9997 71.6342 85.7929 72.4476C88.9195 71.6469 90.8267 69.6831 87.4132 68.954C89.8351 69.5187 86.9364 71.3224 84.2613 71.9166C86.6579 71.0485 89.2782 68.9751 87.1853 68.2545C89.776 68.9161 87.6579 70.9263 84.9659 71.8576C87.7634 70.7998 89.9912 68.6548 87.4258 67.7783C89.679 68.6295 87.1389 70.7493 84.4807 71.7775C87.5566 70.7156 90.5187 68.5621 88.198 67.1925C91.6537 68.5326 92.3372 69.1395 89.3035 69.7252C92.1305 69.1479 91.2613 68.5621 87.9828 67.3779C90.3119 68.6295 87.7381 70.7998 84.9828 71.8576C87.582 70.9305 89.5229 68.9203 86.9744 68.3388C88.6115 68.9245 85.7634 70.9389 83.8393 71.6764C85.7128 71.2508 86.0081 71.0611 84.2866 70.8251C83.1811 70.6186 97.9786 68.423 85.0587 72.5698C86.776 71.8745 86.0925 72.3591 84.0756 73.1935C86.1052 73.3368 86.2866 73.6992 84.4469 74.6558C86.9195 74.521 87.3668 74.9803 85.6073 76.7966C86.6115 74.7443 85.6115 74.1543 83.9111 74.1333C85.3035 73.5433 85.987 73.5264 85.0967 74.7654C85.9322 73.3115 84.4343 72.8816 83.0292 72.692C82.8182 72.4687 82.7001 72.4855 82.89 72.7847C84.0039 73.046 85.4258 73.5938 85.0714 75.3807C85.6495 73.9015 84.0798 73.5348 82.6579 73.4421C81.7338 73.3031 80.9617 73.4379 80.506 73.9057C79.5988 74.8455 79.9617 77.1169 80.9617 81.369C77.9448 74.8455 77.4638 76.2572 76.4933 82.136C77.3288 75.6841 77.6073 74.0574 77.9997 81.8241C77.7339 72.3928 77.582 72.3464 75.0925 81.5207C76.7339 73.7877 76.0377 75.2753 73.4132 81.3564C76.0377 75.2711 76.7128 73.7793 74.0503 81.2047C77.2528 72.1905 74.5313 78.1452 68.5946 85.6759C73.3288 79.2998 72.2655 80.5515 67.9617 85.6506C72.0756 80.2817 75.5313 72.7215 67.2317 73.0713C70.1684 72.1989 72.0841 71.5331 73.0883 70.8631C74.0925 70.193 74.1811 69.5061 73.2486 69.2617C72.9955 68.4778 72.4891 67.8036 71.7043 67.2431C70.8604 66.5857 69.7423 66.0462 68.5988 66.4887C69.7592 66.1305 70.6706 66.6152 71.1853 67.1672C71.5566 67.4833 71.5313 67.8668 71.1431 68.2587C71.1347 68.0101 70.7592 67.7741 70.1895 67.6518C69.4933 67.2599 68.603 66.9818 67.7001 67.3147C68.4511 66.7753 69.1938 66.8427 69.8309 67.2515C70.1853 67.0281 70.4301 67.1461 70.4005 67.5086C70.9068 66.6952 71.1347 66.1263 71.1727 66.0926C70.6115 65.1697 69.8562 64.782 68.9997 65.726C70.1558 64.5376 71.2064 64.6809 72.025 65.452C72.1558 65.4141 72.0545 66.0083 71.4933 67.0661C72.236 65.7681 72.5187 64.9421 72.5609 64.8283C71.776 63.8886 70.7423 63.6694 69.6706 65.0306C70.7929 63.6189 71.5313 63.3365 72.1938 63.8338C71.1263 62.7634 69.9828 62.4684 69.0503 64.0951C69.852 62.3167 70.8773 62.4684 72.122 63.7537C71.5355 63.3871 71.1727 64.1625 70.544 66.0083C71.3921 64.3859 71.9701 63.8422 72.4511 64.2089C71.6241 63.366 70.7001 63.4335 69.6959 65.0306C70.6917 63.5936 71.603 63.6821 72.3583 64.6008C72.025 64.4364 71.5313 65.0938 70.7043 66.5309C71.198 65.1402 71.3541 64.5249 71.5777 64.9126C70.5693 63.8464 69.6241 63.7874 68.7507 65.372C69.5735 63.7158 70.4722 63.7074 71.4849 64.782C71.1389 64.251 70.9111 64.7988 70.4132 66.2991C71.2106 64.7146 71.7465 64.0824 72.2317 64.3943C71.4174 63.4292 70.5566 63.4082 69.6579 64.9843C70.8309 63.5515 71.6073 63.2691 72.2866 63.7327C71.2064 62.6538 70.0334 62.3167 69.0714 63.8844C69.8857 61.988 70.6832 61.7646 71.9701 62.5569C70.506 61.3264 69.5271 61.1157 68.9575 62.6833C69.1009 60.513 69.679 60.1675 71.4258 60.7869C69.4765 59.5648 68.6917 59.3078 68.5735 59.8978C68.3541 58.8358 68.8014 58.6166 70.6917 58.6082C68.6495 58.0604 68.0503 57.7232 68.1938 56.7455C67.1853 56.5053 60.4554 28.1861 59.8351 25.0591C59.2613 26.3908 70.2022 73.6781 57.6832 22.8593C70.8773 82.4057 56.3752 22.6528 56.0672 21.5445C57.5651 29.6442 63.6115 52.5819 53.1094 20.5879C53.6284 22.8425 63.2782 49.0462 56.2402 40.3103C57.3668 43.4372 64.0883 57.9002 63.0883 61.0314C64.3077 61.4991 64.4301 63.4798 64.3963 66.6826C64.6874 67.6392 64.8225 69.8179 64.9617 72.0177C65.1009 74.2175 65.236 76.4384 65.3668 78.5961C65.468 80.2143 65.5651 81.8031 65.4891 82.2287C65.5524 84.0703 65.4469 84.753 64.8689 82.7808C65.6157 87.4501 65.89 89.4687 64.4427 84.4243C65.7803 92.5787 65.3963 93.6744 57.4301 91.7401C65.4976 95.2927 63.8647 100.771 59.8182 106.962C64.0756 102.313 63.8056 103.333 61.0376 111.399L61.0419 111.408Z" fill="currentColor"/>
<path d="M63.6631 107.328C63.2116 106.599 62.7011 105.765 62.2665 104.998C61.8319 104.231 61.4015 103.439 61.2834 103.081C61.0513 102.541 61.0471 102.305 61.4606 102.642C61.7053 102.735 62.4479 103.506 63.5407 104.754C62.8023 103.708 61.1905 101.433 60.7222 100.691C60.1483 99.8946 59.6378 99.174 59.5365 99.0391C59.3045 98.7062 59.4732 98.9548 60.0091 99.6965C59.2201 98.5461 57.8361 96.498 58.0091 96.755C57.2369 95.0357 56.7053 94.058 57.3762 95.4023C56.2369 93.8557 56.1483 93.6956 57.2876 95.1832C56.6167 94.1254 57.9669 95.7521 59.372 97.3492C58.0471 95.7057 56.8403 94.1338 57.739 95.0736C56.7053 93.645 57.1652 93.9063 58.7222 95.1031C57.7306 94.2097 58.8234 95.1621 60.1568 96.1903C60.4142 96.203 62.1652 97.463 63.2327 98.1036C62.4479 97.6274 61.1905 96.755 60.8488 96.5865C59.853 95.8237 58.8488 94.9345 59.6504 95.4697C57.3804 93.961 56.0893 92.8359 57.4901 93.8894C55.8403 92.7642 56.6251 93.7082 58.8699 95.8954C57.3129 94.3277 56.545 92.465 57.2876 93.3626C54.7897 91.6306 56.8909 91.8624 57.6293 92.5704C56.4099 91.6348 56.3255 91.4283 57.4817 91.7317C56.6167 91.3483 56.9331 91.677 58.4268 92.8443C57.5239 92.0647 58.545 92.6799 60.6251 93.8051C58.5703 92.642 57.5745 91.9888 58.5956 92.6125C57.085 91.4663 56.8361 91.0954 58.0133 91.0406C56.68 90.9521 55.3002 90.3874 57.6336 89.5741C56.2369 89.9618 57.161 89.9281 59.469 89.7216C58.4564 89.6921 60.9331 89.3086 62.815 89.022C60.9331 89.3002 58.469 89.6626 59.4859 89.6373C57.1863 89.8396 56.2749 89.848 57.6758 89.3128C55.3635 90.1346 55.0386 90.1599 56.6125 89.3592C55.3466 89.9154 55.6547 90.0124 57.5576 89.9871C56.3466 90.0039 57.6842 89.8564 60.1272 89.5446C57.6842 89.8143 56.3382 89.9154 57.5323 89.7174C55.6251 89.7806 55.3087 89.6204 56.4563 88.6975C54.9289 89.6162 55.2158 89.081 57.026 87.1846C55.9627 88.2719 56.7981 87.6566 58.6293 86.2617C57.8825 86.818 59.8403 85.2798 61.2327 84.3274C59.0471 85.4653 57.6884 86.2449 58.6336 84.7446C57.5829 85.5622 58.5239 84.0577 59.5365 82.7218C59.6293 82.5617 59.3002 82.292 59.7264 81.7357C60.1526 81.1794 60.5618 80.6316 60.9078 80.1259C58.7348 81.0657 61.334 76.4469 61.2623 74.9214C61.1905 73.3959 61.9796 71.4025 61.9163 70.0456C61.6631 64.6219 61.4817 60.825 61.4817 60.825L59.6715 64.1963C58.5872 66.2191 57.1399 68.9162 55.6926 71.6133C54.9711 72.9618 53.95 77.6732 53.5661 75.5746C53.2369 77.5974 53.0639 80.6569 52.7601 80.9687C52.5872 82.646 52.2074 81.9296 51.7137 79.0302C51.815 80.1512 52.1061 82.1529 51.9711 81.9085C52.2369 83.611 52.4901 85.0986 52.1399 83.9777C52.5787 86.3502 52.718 87.1804 51.9922 85.322C52.4985 86.8854 52.3002 86.3924 51.5956 84.4918C52.0049 85.6338 51.4353 84.0788 50.8192 82.3299C51.431 84.1167 52.0555 85.8867 51.6125 84.8247C52.3551 86.8391 52.5872 87.4965 51.9585 86.1058C52.7728 88.1665 52.7137 88.1413 51.7095 86.1185C52.3635 87.4796 52.0218 86.7885 51.0724 84.85C51.5618 85.8361 50.6969 84.0493 49.9036 82.4016C50.6969 84.0493 51.5618 85.8445 51.0597 84.8626C52.0049 86.8054 52.3382 87.5049 51.6336 86.1732C52.6293 88.2045 52.6209 88.2845 51.4563 86.4135C52.2116 87.7367 51.8403 87.1762 50.68 85.3768C51.2834 86.3713 50.2834 84.8289 49.2327 83.236C50.2496 84.8163 51.1357 86.2112 50.4437 85.204C51.545 86.9234 51.815 87.3869 50.8445 86.0679C51.9205 87.7873 51.0893 87.4375 49.4057 85.6928C50.1779 86.6916 49.1694 85.6844 47.8656 84.4033C48.085 84.7404 46.5534 83.2655 45.6631 82.49C47.1061 83.9692 48.3129 85.3515 47.3931 84.7868C48.0808 85.6928 46.7728 84.9174 45.4437 84.2179C44.7306 83.9819 43.0049 83.0379 41.6125 82.4058C43.6547 84.2474 38.5534 82.3426 36.9711 82.3088L30.8867 82.1824L24.334 82.0476C24.334 82.0476 27.5196 84.1252 32.0724 87.0919L35.7137 89.4645C36.9922 90.2989 41.9289 90.6361 39.6969 92.0605C40.3509 92.0099 41.0639 91.9256 41.7728 91.8413C42.4901 91.7528 43.7728 91.5842 43.8277 91.6053C45.5829 91.4073 47.8699 91.2766 46.4395 91.7528C48.0935 91.5885 47.988 91.7992 46.4184 92.5072C47.5028 92.3344 46.0639 93.055 44.6758 93.843C46.2623 93.1098 48.5661 92.2164 47.6842 92.6083C49.815 91.7233 50.7137 91.323 49.2243 91.6685C51.7644 91.1333 52.3213 91.1713 50.7812 91.9888C52.1357 91.4789 52.1104 91.8582 51.123 93.5101C51.8783 92.5577 51.1315 93.6745 49.6715 95.6383C51.1652 93.6998 51.95 92.6125 51.334 93.6661C52.2876 92.0057 52.3635 91.6559 51.2749 92.4397C52.718 91.5252 52.5703 91.7655 50.7475 93.2404C51.9036 92.3302 51.4943 93.0761 50.2032 94.964C50.7517 94.058 49.2623 95.9375 47.9964 97.4841C49.2707 95.9417 50.777 94.058 50.2665 94.9893C51.5618 93.1056 51.9964 92.3597 50.9627 93.3331C52.777 91.8413 52.7644 93.5143 52.1652 94.6732C52.7981 93.7166 52.9627 94.1591 53.0893 96.0724C53.1315 94.8671 53.1526 96.0808 53.0597 98.4154C53.1947 96.0808 53.2158 94.8713 53.3466 96.0681C53.1947 94.1549 53.1061 93.6871 52.9669 94.6311C53.296 93.4975 53.7559 91.8118 53.9289 93.3289C53.853 92.2543 54.1104 92.9623 54.7306 95.0272C54.4184 93.9063 54.9078 95.6931 55.431 97.8212C54.718 94.7912 54.3635 93.5986 54.5661 95.5329C54.3382 93.8136 54.6673 95.4318 54.9585 98.0994C54.8572 97.1133 55.123 98.3775 55.3298 99.6333C55.334 99.9536 55.5365 101.504 55.6167 102.448C55.5492 101.37 55.3635 99.7345 55.4184 99.4858C55.2454 98.2089 55.0471 97.1343 55.2623 98.1542C54.9922 95.6804 54.8319 94.6395 55.4901 96.5359C55.0682 94.9345 55.258 95.1874 55.9838 96.8225C55.68 95.9038 56.4774 97.737 57.1357 99.2372C56.2158 96.8562 56.0766 96.3505 57.0007 98.2511C56.6589 97.3998 57.0724 98.2005 57.5787 99.1908C57.7728 99.5238 58.431 100.839 58.9205 101.791C59.4226 102.714 60.5661 104.947 61.1947 106.085C60.5154 104.551 60.1146 103.531 60.1272 103.304C59.9796 102.777 60.4817 102.748 60.8656 103.228C61.1272 103.498 61.6631 104.269 62.161 105.015C62.6589 105.761 63.1947 106.599 63.6462 107.328H63.6631Z" fill="currentColor"/>
</svg>
