<svg width="143" height="143" viewBox="0 0 143 143" fill="none" xmlns="http://www.w3.org/2000/svg">
<g clip-path="url(#clip0_675_7133)">
<path d="M48.8229 32.1955C49.0075 32.119 49.156 32.0605 49.2731 32.02C48.7779 32.065 48.1881 32.119 47.5083 32.182C47.4948 32.209 47.4723 32.2405 47.4453 32.2765C47.9315 32.2495 48.3907 32.2225 48.8229 32.1955Z" fill="currentColor"/>
<path d="M47.0586 32.2267C47.2117 32.2132 47.3602 32.1997 47.5043 32.1862C47.5988 32.0062 47.4233 32.0242 47.0586 32.2267Z" fill="currentColor"/>
<path d="M49.2773 32.0194C49.3494 32.0149 49.4169 32.0059 49.4844 32.0014C49.6285 31.9114 49.552 31.9204 49.2773 32.0194Z" fill="currentColor"/>
<path d="M51.1788 32.0056C51.6335 31.8346 51.1293 31.8526 49.4816 31.9966C49.4186 32.0371 49.306 32.0956 49.1484 32.1721C49.9048 32.1226 50.5756 32.0686 51.1788 32.0056Z" fill="currentColor"/>
<path d="M61.2403 82.1038C61.1232 81.8203 61.0197 81.5188 60.8711 81.2128C60.8711 81.6313 60.8756 82.0453 61.2403 82.1038Z" fill="currentColor"/>
<path d="M46.4844 33.3386C46.7545 33.2621 47.0111 33.1901 47.2632 33.1181C47.2992 33.0641 47.3307 33.0191 47.3623 32.9741C47.0966 33.0866 46.804 33.2081 46.4844 33.3386Z" fill="currentColor"/>
<path d="M45.0117 32.4163C45.687 32.3803 46.3173 32.3443 46.9115 32.3128C46.9611 32.2813 47.0106 32.2543 47.0601 32.2273C46.4478 32.2858 45.768 32.3488 45.0117 32.4163Z" fill="currentColor"/>
<path d="M45.7389 33.1359C45.7659 33.1134 45.7884 33.0954 45.8154 33.0774C45.7929 33.0279 45.7659 32.9829 45.7344 32.9424C45.7389 33.0009 45.7434 33.0639 45.7389 33.1359Z" fill="currentColor"/>
<path d="M43.957 33.0631C44.6953 32.6716 45.3932 32.5051 45.7308 32.9416C45.6543 32.1721 44.8394 32.4556 43.957 33.0631Z" fill="currentColor"/>
<path d="M46.875 33.5987C47.5638 33.2297 48.131 32.9507 48.5722 32.7527C48.1761 32.8607 47.7349 32.9822 47.2667 33.1172C47.1676 33.2567 47.0416 33.4142 46.8795 33.5987H46.875Z" fill="currentColor"/>
<path d="M90.6127 67.5344C90.3471 67.6873 90.077 67.8313 89.8114 67.9662C89.5458 68.1012 89.2621 68.1821 88.8795 68.1326C88.4968 68.0832 88.0961 68.0247 87.7495 67.9797C87.4434 67.7998 87.0967 67.7278 86.705 67.6153C85.1834 67.2645 83.3826 67.2645 82.9324 65.915C82.9324 65.4652 83.8328 65.0153 84.292 64.9524C84.4766 64.6465 84.6296 64.3001 84.6657 63.8548C85.377 55.0472 85.9037 55.4655 91.9363 51.3496C92.7466 44.0804 94.849 37.225 98.0004 31.0444C93.4129 30.5631 93.8046 31.0714 81.2397 30.797C80.3888 30.833 79.5334 30.905 78.5835 30.9679C76.0084 30.9724 73.4153 31.3008 70.7862 31.7102C69.9083 31.8451 69.0304 31.989 69.1069 31.9216C67.7023 32.205 67.2566 32.2769 68.8323 31.8631C66.3743 32.4209 65.9376 32.4839 68.5622 31.6427C65.0372 32.6233 64.578 32.6908 68.1345 30.6261C63.9702 32.7268 63.8172 32.6953 67.1126 28.1925C63.1059 32.7223 62.5476 32.7897 57.0868 31.7911C62.1784 32.5558 62.3675 32.2634 60.1031 26.1863C61.8588 32.196 61.1565 32.4209 56.9697 31.5212C59.6168 31.8541 60.2876 31.5482 59.4998 29.7624C59.7249 30.6441 59.0856 30.8285 57.573 30.6621C57.5144 30.4147 57.2218 30.0638 56.8166 29.6095C56.8031 28.8897 56.3439 27.7562 55.7992 26.2627C56.1278 30.5316 55.7227 31.5347 51.1802 32.0115C50.9281 32.106 50.3699 32.2634 49.5595 32.4884C49.501 32.6413 48.8932 33.0956 47.5832 33.8828C52.3867 32.079 53.2061 32.1735 48.7311 34.3371C54.7998 32.4884 55.5741 32.7043 50.7705 35.2008C57.0642 33.2666 57.7801 33.6219 56.479 36.5008C57.2713 35.7676 57.8431 35.3133 57.9961 35.2593C58.7255 34.9264 59.0361 34.9984 58.5139 35.7631C59.1712 35.6866 59.5088 35.8756 59.6664 36.3029C59.5853 36.3839 59.4863 36.4918 59.3647 36.6403C59.4908 36.5638 59.6033 36.5098 59.7069 36.4603C59.7654 36.7032 59.7879 37.0001 59.7789 37.36C59.8735 36.9102 59.941 36.5728 59.95 36.3749C60.6658 36.1904 60.9404 36.7932 61.1115 38.0707C61.1205 38.0392 61.125 38.0077 61.134 37.9762C61.7598 37.306 62.0209 37.7423 62.21 38.651C62.354 38.4171 62.4306 38.6645 62.4936 39.0378C62.5926 39.2717 62.6782 39.6316 62.7457 40.0005C62.8808 40.7337 62.9303 41.4849 62.9303 42.2316C62.8177 44.7057 62.201 47.0672 61.3771 49.3749C60.7513 51.0752 60.004 52.7756 59.2567 54.4894C58.6579 56.6126 58.0727 58.8527 57.4199 61.1198C57.2668 61.5742 57.1138 62.0285 56.9292 62.4828C55.9117 65.0243 52.7604 65.924 53.2106 69.0728C53.6608 71.3219 56.3619 70.4223 56.3619 72.2216C56.8121 74.0164 55.0204 74.4662 53.2286 74.916C52.5263 74.916 51.797 74.898 51.2702 75.3344C50.9371 75.6582 50.5544 75.9731 50.0772 76.2925C48.1684 77.5835 44.7694 79.0185 37.2422 81.8029C55.7677 78.2672 48.2764 78.4022 51.2072 76.6794C56.0918 76.7963 51.4773 78.3437 37.6834 85.6174C59.2162 74.898 50.0952 115.018 49.0238 126.196C54.4261 115.167 53.2691 101.492 56.6005 105.455C54.9934 100.588 52.6163 77.642 55.6641 77.2012C55.0204 76.9897 54.9798 76.7963 55.277 76.6074C56.8166 75.8157 58.1672 75.3659 59.5178 74.4662H59.0676C59.2927 74.4662 59.5178 74.3538 59.7429 74.1873C59.95 74.1468 60.1391 74.2008 60.3056 74.3268C60.4182 77.1652 59.968 79.8641 61.3186 82.1133C61.2871 82.1133 61.2646 82.1043 61.2375 82.1043C61.4716 82.6666 61.7733 83.1659 62.6692 83.4628C60.085 80.5164 61.4356 76.36 63.7406 73.4676C63.1419 74.0074 62.5296 74.5697 62.228 75.3344C62.6241 74.3268 63.466 73.607 64.2583 72.8513C64.4969 72.5859 64.7446 72.334 64.9967 72.1001C65.1407 71.9337 65.2803 71.7672 65.4018 71.5873C65.861 71.2679 66.3472 71.043 67.1711 71.3129L66.7209 70.8631C68.3281 71.133 69.0169 74.7271 69.359 75.9281C70.1694 78.7576 70.7547 81.6454 71.5065 84.4884C71.7946 85.5724 73.9735 84.3984 74.5138 85.388C74.5813 85.514 74.6578 85.6399 74.7749 85.7254C75.0585 85.9278 74.8919 103.736 75.1936 103.66C75.4862 103.588 75.7698 103.503 76.0264 103.503C76.3281 103.723 76.7783 113.142 77.2284 113.592C77.6831 112.832 77.6066 102.27 77.6021 101.424C77.5886 99.8994 76.3866 82.6756 76.2155 81.1641C75.8283 77.7679 75.2476 74.3852 74.5813 71.034C74.5363 70.8091 74.4913 70.5842 74.4462 70.3593C74.4237 70.2513 74.4012 70.1344 74.3202 70.0534C74.2527 69.9859 74.1581 69.9544 74.0681 69.9185C72.3709 69.2212 73.7619 67.278 74.8739 66.8057C74.9325 66.7832 74.9955 66.7562 75.0585 66.7787C75.126 66.8012 75.1621 66.8686 75.1981 66.9271C76.6387 69.6216 77.1609 72.7974 77.7687 75.7752C78.1018 77.4081 78.444 79.041 78.7006 80.6873C78.9302 82.1987 79.8891 99.5711 80.5779 100.961C80.6274 101.06 80.6814 101.159 80.776 101.222C81.1992 101.496 81.2892 100.691 81.2982 100.462C81.3117 99.9354 81.1902 99.4136 81.1857 98.8873C81.1721 95.6621 79.9656 76.7558 79.7855 73.5351C79.709 72.1406 80.1907 71.6503 81.0821 70.6787C81.6674 70.0444 82.2931 69.4371 83.0089 68.9513C83.6527 68.515 84.3685 68.1641 85.1474 68.0472C85.5345 67.9887 85.9262 67.9932 86.3134 68.0562C86.6825 68.1147 87.2002 68.47 87.5379 68.4655C87.9656 68.4565 88.4023 68.515 88.848 68.6544C89.2891 68.7939 89.7393 69.0098 90.1985 69.3202C90.5497 69.2707 90.8963 69.2167 91.2475 69.1627C91.0179 68.0922 90.8018 67.4309 90.6172 67.5344H90.6127ZM57.564 30.842C59.0091 31.4762 58.5409 31.4583 56.8662 31.0939C57.2893 31.0669 57.5009 30.9814 57.564 30.842ZM61.17 37.8638C61.4176 36.9911 61.3726 37.0091 61.17 37.8638ZM53.2601 74.9115C53.7193 74.8891 54.5837 74.4662 55.0204 74.4662C54.5837 74.9025 53.9309 74.916 53.2601 74.9115ZM69.4086 66.7247C69.161 67.0396 68.8503 67.2645 68.4722 67.4084C66.7254 68.614 64.4744 66.8147 62.6331 67.4084C62.3405 67.3859 62.0569 67.3365 61.7823 67.278C60.6838 67.0441 59.7024 66.6032 58.5904 66.4323C59.0001 66.5268 59.3242 66.7472 59.0676 67.26C58.6174 68.1596 57.717 67.7098 57.2668 67.7098C57.717 68.1596 58.6174 68.1596 59.0676 68.1596C57.2668 68.6095 59.968 69.5091 59.2702 71.0115C59.1847 71.4434 59.0496 71.8617 58.8785 72.2396C58.6174 69.9589 56.3664 69.9589 55.0159 69.0593C51.8645 67.26 56.3664 64.561 58.3293 63.2295C58.5769 62.8427 58.748 62.4378 58.919 62.0375C59.6303 59.9773 60.3327 57.9351 60.8864 55.9153C61.6427 53.6167 62.372 51.3226 63.0338 48.979C63.6956 46.6354 64.2854 44.2468 64.7356 41.7728C64.7356 41.0216 64.8841 40.3243 65.1272 39.6541C65.3703 38.9839 65.708 38.3406 66.2887 38.1292C66.4553 37.0676 66.8605 36.4423 68.004 36.3794C67.6753 35.2593 68.157 34.778 69.1925 34.4856C69.2465 33.9503 69.8543 33.6039 70.5431 33.334C71.2274 33.0641 71.9927 32.8752 72.8436 32.7762C72.4744 32.8212 71.7091 35.1153 71.5605 35.4887C69.1475 41.215 69.8092 46.9503 69.341 52.8745C69.2645 53.8641 69.152 54.8538 68.9944 55.8524C68.9404 56.1852 68.7918 56.5136 68.3146 56.851C66.7254 57.3683 65.3748 59.1676 64.9246 60.5171C64.0242 63.6659 67.1756 65.0153 69.8768 65.4652C69.8002 65.9915 69.6382 66.4008 69.4086 66.7202V66.7247ZM81.1316 66.3693C78.8807 67.7188 77.5301 65.9195 75.4457 65.1818C75.1801 65.0288 75.036 64.7994 74.946 64.5475C74.6848 63.7828 74.937 62.7707 73.924 62.7707C73.4738 65.0198 73.4738 67.269 71.2229 68.6185C74.3742 65.4697 73.0236 61.4212 69.8723 59.1721C71.2229 58.2724 72.5734 58.7223 73.816 59.0641C74.2031 59.1451 74.2707 58.8392 74.3247 58.5288C74.5408 57.2783 74.6398 56.0278 74.6398 54.8313C75.09 47.1842 71.9387 39.987 73.5504 32.5468C73.5594 32.5468 73.5684 32.5468 73.5774 32.5468C75.6618 32.5513 77.9893 32.178 79.8396 33.343C82.7388 35.0389 83.189 38.1877 83.189 40.8866C82.8334 47.6115 82.2031 54.341 82.3877 61.0659C82.4012 61.5157 82.4147 61.961 82.4372 62.4108C82.9234 64.1247 82.023 65.4742 81.1226 66.3738L81.1316 66.3693Z" fill="currentColor"/>
<path d="M58.5921 66.4405C58.277 66.3685 57.9168 66.3685 57.7188 66.3685C58.0204 66.3685 58.3085 66.4 58.5921 66.4405Z" fill="currentColor"/>
<path d="M96.8141 82.6392C96.4225 81.7665 96.0488 80.8849 95.6932 79.9897C95.6211 80.0392 95.5716 80.0257 95.5536 79.9312C95.5536 79.9177 95.5491 79.9042 95.5446 79.8908C95.5536 79.8233 95.5671 79.7603 95.5761 79.6928C95.2475 78.8382 94.9323 77.979 94.6397 77.1063C94.6307 77.1378 94.6262 77.1738 94.6172 77.2053C95.369 79.6613 96.1163 81.9015 96.8096 82.6392H96.8141Z" fill="currentColor"/>
<path d="M91.2692 69.1577C91.2692 69.1577 91.2512 69.1577 91.2422 69.1577C92.0075 72.7428 92.9304 80.9566 93.3266 80.6643C93.8983 79.5532 94.317 78.3971 94.6231 77.1961C93.4481 73.3501 92.2641 68.9958 91.2692 69.1487V69.1577Z" fill="currentColor"/>
<path d="M64.2644 72.855C64.0843 73.0529 63.9133 73.2553 63.7422 73.4668C63.7557 73.4533 63.7737 73.4398 63.7872 73.4263C64.35 72.9225 64.8137 72.2432 65.3719 71.7664C65.2458 71.8744 65.1243 71.9868 64.9982 72.1038C64.7686 72.3647 64.5165 72.6121 64.2599 72.855H64.2644Z" fill="currentColor"/>
<path d="M48.8264 32.1954C48.4843 32.3349 48.0251 32.5374 47.4668 32.7939C47.4398 32.8479 47.4083 32.9064 47.3633 32.9694C48.2141 32.6094 48.7994 32.3439 49.1506 32.1729C49.047 32.1819 48.9345 32.1864 48.8264 32.1954Z" fill="currentColor"/>
<path d="M47.279 32.4742C47.0854 32.6767 46.7883 32.9557 46.3516 33.3247C46.7567 33.1267 47.1304 32.9512 47.4635 32.7982C47.5986 32.5237 47.5176 32.4247 47.279 32.4787V32.4742Z" fill="currentColor"/>
<path d="M46.9188 32.307C46.6307 32.478 46.2525 32.739 45.8203 33.0765C45.8473 33.135 45.8788 33.189 45.8968 33.2655C46.5046 32.8155 46.9998 32.541 47.2834 32.478C47.3555 32.4015 47.4095 32.3385 47.45 32.28C47.2744 32.289 47.0989 32.298 46.9188 32.3115V32.307Z" fill="currentColor"/>
<path d="M48.5742 32.7521C48.9389 32.6531 49.263 32.5631 49.5601 32.4821C49.6097 32.3516 49.254 32.4506 48.5742 32.7521Z" fill="currentColor"/>
<path d="M59.4986 29.757C59.368 29.2532 58.9628 28.5244 58.2695 27.4988C58.8233 28.43 59.2419 29.1722 59.4986 29.757Z" fill="currentColor"/>
</g>
<defs>
<clipPath id="clip0_675_7133">
<rect width="142.1" height="142.1" fill="white"/>
</clipPath>
</defs>
</svg>
