<svg width="279" height="97" viewBox="0 0 279 97" fill="none" xmlns="http://www.w3.org/2000/svg">
<path d="M231.44 72.0142H190.395C188.992 72.0142 187.85 71.1596 187.85 70.1094C187.85 69.0592 188.992 68.2047 190.395 68.2047H191.78C191.792 68.2047 191.803 68.2047 191.812 68.2047C191.63 67.9463 191.188 67.529 190.952 67.3073C190.887 67.2462 190.824 67.1866 190.765 67.13C190.148 66.5399 188.705 66.0416 187.615 66.0416H177.151C176.312 66.0416 174.368 67.1315 173.324 67.7186C173.009 67.8944 172.739 68.0472 172.551 68.142C172.529 68.1542 172.507 68.1649 172.486 68.1756C172.605 68.1924 172.767 68.2047 172.987 68.2047H174.371C175.774 68.2047 176.916 69.0592 176.916 70.1094C176.916 71.1596 175.774 72.0142 174.371 72.0142H133.326C131.923 72.0142 130.781 71.1596 130.781 70.1094C130.781 69.0592 131.923 68.2047 133.326 68.2047H134.711C134.723 68.2047 134.734 68.2047 134.743 68.2047C134.562 67.9463 134.119 67.529 133.884 67.3073C133.818 67.2462 133.755 67.1866 133.696 67.13C133.079 66.5399 131.636 66.0416 130.546 66.0416H119.966C119.127 66.0416 117.183 67.1315 116.139 67.7186C115.825 67.8944 115.554 68.0472 115.367 68.142C115.344 68.1542 115.322 68.1649 115.301 68.1756C115.42 68.1924 115.582 68.2047 115.802 68.2047H117.186C118.589 68.2047 119.731 69.0592 119.731 70.1094C119.731 71.1596 118.589 72.0142 117.186 72.0142H76.1415C74.7385 72.0142 73.5966 71.1596 73.5966 70.1094C73.5966 69.0592 74.7385 68.2047 76.1415 68.2047H77.5262C77.5385 68.2047 77.5491 68.2047 77.5583 68.2047C77.3766 67.9463 76.9339 67.529 76.6988 67.3073C76.6331 67.2462 76.5705 67.1866 76.511 67.13C75.8942 66.5399 74.4515 66.0416 73.3615 66.0416H62.78C61.9404 66.0416 59.9969 67.1315 58.9527 67.7186C58.6382 67.8944 58.3679 68.0472 58.1802 68.142C58.1573 68.1542 58.1359 68.1649 58.1145 68.1756C58.2336 68.1924 58.3954 68.2047 58.6153 68.2047H60C61.403 68.2047 62.5449 69.0592 62.5449 70.1094C62.5449 71.1596 61.403 72.0142 60 72.0142H18.9658C17.5628 72.0142 16.4209 71.1596 16.4209 70.1094C16.4209 69.0592 17.5628 68.2047 18.9658 68.2047H20.3505C20.7536 68.2047 20.9398 68.1298 20.9963 68.09C20.9749 68.0243 20.8681 67.8531 20.5429 67.6161C20.3627 67.4847 16.1445 64.3447 16.1445 60.3426C16.1445 55.353 20.1979 51.2943 25.181 51.2943C27.413 51.2943 29.0862 52.2833 29.1564 52.3246C29.5457 52.5585 29.9518 52.6105 30.3014 52.4714C30.651 52.3323 30.9106 52.0143 31.0342 51.5771L31.0556 51.5175L32.0296 49.4369L32.0541 49.4048C32.6739 48.5931 32.6999 47.205 32.109 46.3719C32.0464 46.2848 30.5869 44.1966 30.5869 41.6268C30.5869 37.6247 34.8051 34.4848 34.9853 34.3533C35.3105 34.1148 35.4173 33.9436 35.4387 33.8794C35.3838 33.8397 35.196 33.7648 34.7929 33.7648H33.4082C32.0052 33.7648 30.8633 32.9102 30.8633 31.86C30.8633 30.8098 32.0052 29.9553 33.4082 29.9553H44.7789C45.6186 29.9553 47.5621 28.8638 48.6079 28.2783C48.9208 28.1025 49.1926 27.9496 49.3804 27.8548C49.4033 27.8426 49.4246 27.8319 49.446 27.8212C49.3269 27.8044 49.1651 27.7922 48.9453 27.7922H47.5606C46.1575 27.7922 45.0156 26.9376 45.0156 25.8874C45.0156 24.8372 46.1575 23.9827 47.5606 23.9827H88.6054C90.0084 23.9827 91.1503 24.8372 91.1503 25.8874C91.1503 26.9376 90.0084 27.7922 88.6054 27.7922H87.2207C87.2085 27.7922 87.1978 27.7922 87.1886 27.7922C87.3703 28.0505 87.813 28.4678 88.0481 28.6895C88.1138 28.7507 88.1764 28.8103 88.2359 28.8668C88.8527 29.4569 90.2954 29.9553 91.3855 29.9553H101.849C102.689 29.9553 104.634 28.8638 105.678 28.2783C105.991 28.1025 106.263 27.9496 106.451 27.8548C106.474 27.8426 106.495 27.8319 106.516 27.8212C106.397 27.8044 106.235 27.7922 106.016 27.7922H104.631C103.228 27.7922 102.086 26.9376 102.086 25.8874C102.086 24.8372 103.228 23.9827 104.631 23.9827H145.676C147.079 23.9827 148.221 24.8372 148.221 25.8874C148.221 26.9376 147.079 27.7922 145.676 27.7922H144.291C144.279 27.7922 144.268 27.7922 144.259 27.7922C144.441 28.0505 144.883 28.4678 145.118 28.6895C145.184 28.7507 145.247 28.8103 145.306 28.8668C145.923 29.4569 147.366 29.9553 148.456 29.9553H159.036C159.875 29.9553 161.819 28.8638 162.865 28.2783C163.178 28.1025 163.449 27.9496 163.637 27.8548C163.66 27.8426 163.681 27.8319 163.703 27.8212C163.584 27.8044 163.422 27.7922 163.202 27.7922H161.817C160.414 27.7922 159.272 26.9376 159.272 25.8874C159.272 24.8372 160.414 23.9827 161.817 23.9827H202.862C204.265 23.9827 205.407 24.8372 205.407 25.8874C205.407 26.9376 204.265 27.7922 202.862 27.7922H201.477C201.465 27.7922 201.455 27.7922 201.445 27.7922C201.627 28.0505 202.07 28.4678 202.305 28.6895C202.371 28.7507 202.433 28.8103 202.493 28.8668C203.109 29.4569 204.552 29.9553 205.642 29.9553H216.224C217.063 29.9553 219.008 28.8638 220.053 28.2783C220.366 28.1025 220.637 27.9496 220.825 27.8548C220.848 27.8426 220.869 27.8319 220.891 27.8212C220.772 27.8044 220.61 27.7922 220.39 27.7922H219.005C217.602 27.7922 216.46 26.9376 216.46 25.8874C216.46 24.8372 217.602 23.9827 219.005 23.9827H260.05C261.453 23.9827 262.595 24.8372 262.595 25.8874C262.595 26.9376 261.453 27.7922 260.05 27.7922H258.665C258.262 27.7922 258.076 27.8671 258.02 27.9068C258.041 27.9726 258.148 28.1438 258.473 28.3807C258.653 28.5122 262.871 31.6521 262.871 35.6542C262.871 40.6439 258.818 44.7026 253.835 44.7026C251.603 44.7026 249.93 43.7135 249.859 43.6722C249.47 43.4383 249.064 43.3864 248.714 43.5255C248.365 43.6646 248.105 43.9825 247.982 44.4198L247.96 44.4794L246.986 46.5599L246.962 46.592C246.342 47.4038 246.316 48.7918 246.907 49.625C246.969 49.7121 248.429 51.8003 248.429 54.37C248.429 58.3721 244.211 61.5121 244.031 61.6435C243.705 61.882 243.599 62.0532 243.577 62.119C243.632 62.1587 243.82 62.2336 244.223 62.2336H245.608C247.011 62.2336 248.153 63.0881 248.153 64.1384C248.153 65.1886 247.011 66.0431 245.608 66.0431H234.237C233.397 66.0431 231.454 67.1331 230.41 67.7201C230.095 67.8959 229.825 68.0488 229.637 68.1435C229.614 68.1558 229.593 68.1665 229.571 68.1772C229.69 68.194 229.852 68.2062 230.072 68.2062H231.457C232.86 68.2062 234.002 69.0607 234.002 70.111C234.002 71.1612 232.86 72.0157 231.457 72.0157L231.44 72.0142ZM190.395 68.969C189.429 68.969 188.614 69.4918 188.614 70.1094C188.614 70.727 189.43 71.2498 190.395 71.2498H231.44C232.406 71.2498 233.222 70.727 233.222 70.1094C233.222 69.4918 232.405 68.969 231.44 68.969H230.055C229.483 68.969 228.707 68.9079 228.582 68.3805C228.501 68.0426 228.735 67.7323 229.275 67.4587C229.448 67.3715 229.712 67.2233 230.019 67.0505C231.619 66.1532 233.261 65.2757 234.22 65.2757H245.591C246.557 65.2757 247.372 64.7529 247.372 64.1353C247.372 63.5177 246.556 62.9949 245.591 62.9949H244.206C243.24 62.9949 242.924 62.6479 242.828 62.3559C242.733 62.0639 242.782 61.5961 243.562 61.0244C243.603 60.9938 247.647 57.9793 247.647 54.3685C247.647 52.0479 246.279 50.0851 246.266 50.0652C245.493 48.9768 245.516 47.2341 246.311 46.1594L247.24 44.1797C247.432 43.5239 247.849 43.0393 248.415 42.8146C248.991 42.5853 249.637 42.6572 250.235 43.0164C250.25 43.0256 251.804 43.9382 253.818 43.9382C258.38 43.9382 262.091 40.222 262.091 35.6542C262.091 32.0419 258.046 29.0274 258.006 28.9968C257.226 28.425 257.177 27.9573 257.271 27.6653C257.366 27.3733 257.684 27.0263 258.65 27.0263H260.035C261.001 27.0263 261.816 26.5035 261.816 25.8859C261.816 25.2683 261 24.7455 260.035 24.7455H218.99C218.024 24.7455 217.208 25.2683 217.208 25.8859C217.208 26.5035 218.025 27.0263 218.99 27.0263H220.375C220.947 27.0263 221.723 27.0874 221.848 27.6148C221.929 27.9527 221.695 28.263 221.155 28.5366C220.982 28.6238 220.718 28.7721 220.411 28.9433C218.811 29.8406 217.169 30.7181 216.21 30.7181H205.628C204.329 30.7181 202.714 30.1479 201.952 29.4187C201.894 29.3637 201.833 29.3056 201.769 29.2444C200.954 28.477 200.435 27.9359 200.632 27.439C200.74 27.1654 201.021 27.0263 201.465 27.0263H202.85C203.816 27.0263 204.632 26.5035 204.632 25.8859C204.632 25.2683 203.815 24.7455 202.85 24.7455H161.805C160.839 24.7455 160.023 25.2683 160.023 25.8859C160.023 26.5035 160.84 27.0263 161.805 27.0263H163.19C163.762 27.0263 164.538 27.0874 164.663 27.6148C164.744 27.9527 164.51 28.263 163.97 28.5366C163.797 28.6238 163.533 28.7721 163.226 28.9433C161.626 29.8406 159.984 30.7181 159.025 30.7181H148.445C147.146 30.7181 145.531 30.1479 144.769 29.4187C144.711 29.3637 144.65 29.3056 144.586 29.2444C143.77 28.477 143.251 27.9359 143.448 27.439C143.557 27.1654 143.838 27.0263 144.282 27.0263H145.667C146.633 27.0263 147.448 26.5035 147.448 25.8859C147.448 25.2683 146.631 24.7455 145.667 24.7455H104.622C103.655 24.7455 102.84 25.2683 102.84 25.8859C102.84 26.5035 103.657 27.0263 104.622 27.0263H106.006C106.579 27.0263 107.355 27.0874 107.48 27.6148C107.561 27.9527 107.327 28.263 106.787 28.5366C106.614 28.6238 106.35 28.7721 106.043 28.9433C104.443 29.8406 102.8 30.7181 101.842 30.7181H91.3778C90.0786 30.7181 88.4634 30.1479 87.7016 29.4187C87.6436 29.3637 87.5825 29.3056 87.5184 29.2444C86.7031 28.477 86.184 27.9359 86.381 27.439C86.4894 27.1654 86.7703 27.0263 87.2146 27.0263H88.5993C89.5657 27.0263 90.3809 26.5035 90.3809 25.8859C90.3809 25.2683 89.5641 24.7455 88.5993 24.7455H47.559C46.5926 24.7455 45.7774 25.2683 45.7774 25.8859C45.7774 26.5035 46.5942 27.0263 47.559 27.0263H48.9437C49.5162 27.0263 50.2918 27.0874 50.417 27.6148C50.4979 27.9527 50.2643 28.263 49.7239 28.5366C49.5514 28.6238 49.2872 28.7721 48.9804 28.9433C47.3804 29.8406 45.7377 30.7181 44.7789 30.7181H33.4082C32.4418 30.7181 31.6266 31.2409 31.6266 31.8585C31.6266 32.4761 32.4434 32.9989 33.4082 32.9989H34.7929C35.7593 32.9989 36.0753 33.3459 36.1715 33.6379C36.2662 33.9299 36.2173 34.3976 35.4372 34.9694C35.396 35 31.3518 38.0145 31.3518 41.6253C31.3518 43.9535 32.7197 45.9087 32.7334 45.927C33.5059 47.0155 33.483 48.7582 32.6876 49.8329L31.7594 51.8125C31.5671 52.4683 31.1503 52.9529 30.5823 53.1792C30.0068 53.4085 29.361 53.3366 28.7625 52.9774C28.7473 52.9682 27.1931 52.0556 25.1794 52.0556C20.6177 52.0556 16.9063 55.7718 16.9063 60.3396C16.9063 63.9519 20.952 66.9664 20.9917 66.997C21.7719 67.5687 21.8207 68.0365 21.7261 68.3285C21.6314 68.6205 21.3139 68.9675 20.3475 68.9675H18.9628C17.9964 68.9675 17.1811 69.4903 17.1811 70.1079C17.1811 70.7255 17.9979 71.2483 18.9628 71.2483H60.0076C60.974 71.2483 61.7892 70.7255 61.7892 70.1079C61.7892 69.4903 60.9724 68.9675 60.0076 68.9675H58.6229C58.0504 68.9675 57.2748 68.9064 57.1496 68.379C57.0687 68.0411 57.3023 67.7308 57.8428 67.4571C58.0153 67.37 58.2794 67.2217 58.5862 67.049C60.1862 66.1516 61.8289 65.2742 62.7877 65.2742H73.3691C74.6683 65.2742 76.2835 65.8444 77.0453 66.5736C77.1034 66.6286 77.1644 66.6867 77.2285 66.7478C78.0438 67.5152 78.5629 68.0564 78.3659 68.5532C78.2575 68.8269 77.9766 68.966 77.5324 68.966H76.1477C75.1813 68.966 74.366 69.4888 74.366 70.1064C74.366 70.724 75.1828 71.2468 76.1477 71.2468H117.192C118.159 71.2468 118.974 70.724 118.974 70.1064C118.974 69.4888 118.157 68.966 117.192 68.966H115.808C115.235 68.966 114.46 68.9048 114.335 68.3774C114.254 68.0396 114.487 67.7293 115.028 67.4556C115.2 67.3685 115.464 67.2202 115.771 67.0475C117.371 66.1501 119.014 65.2726 119.973 65.2726H130.552C131.852 65.2726 133.467 65.8429 134.229 66.572C134.287 66.6271 134.348 66.6852 134.412 66.7463C135.227 67.5137 135.746 68.0549 135.549 68.5517C135.441 68.8253 135.16 68.9644 134.716 68.9644H133.331C132.365 68.9644 131.549 69.4873 131.549 70.1048C131.549 70.7224 132.366 71.2453 133.331 71.2453H174.376C175.342 71.2453 176.157 70.7224 176.157 70.1048C176.157 69.4873 175.341 68.9644 174.376 68.9644H172.991C172.419 68.9644 171.643 68.9033 171.518 68.3759C171.437 68.0381 171.671 67.7277 172.211 67.4541C172.383 67.367 172.648 67.2187 172.954 67.0459C174.554 66.1486 176.197 65.2711 177.156 65.2711H187.62C188.919 65.2711 190.534 65.8413 191.296 66.5705C191.354 66.6255 191.415 66.6836 191.479 66.7448C192.294 67.5122 192.814 68.0533 192.617 68.5502C192.508 68.8238 192.227 68.9629 191.783 68.9629H190.398L190.395 68.969ZM220.391 68.9706H201.444C200.871 68.9706 200.096 68.9094 199.971 68.382C199.89 68.0442 200.123 67.7338 200.664 67.4602C200.836 67.3731 201.1 67.2248 201.407 67.052C203.007 66.1547 204.65 65.2772 205.609 65.2772H216.228C217.527 65.2772 219.143 65.8474 219.904 66.5766C219.962 66.6317 220.024 66.6897 220.088 66.7509C220.903 67.5183 221.422 68.0595 221.225 68.5563C221.117 68.8299 220.836 68.969 220.391 68.969V68.9706ZM200.943 68.1772C201.062 68.194 201.224 68.2062 201.444 68.2062H220.391C220.404 68.2062 220.414 68.2062 220.424 68.2062C220.242 67.9479 219.799 67.5305 219.564 67.3089C219.498 67.2477 219.436 67.1881 219.376 67.1315C218.759 66.5415 217.317 66.0431 216.227 66.0431H205.607C204.767 66.0431 202.824 67.1331 201.78 67.7201C201.465 67.8959 201.195 68.0488 201.007 68.1435C200.984 68.1558 200.963 68.1665 200.942 68.1772H200.943ZM163.327 68.9706H144.38C143.807 68.9706 143.032 68.9094 142.906 68.382C142.825 68.0442 143.059 67.7338 143.599 67.4602C143.772 67.3731 144.036 67.2248 144.343 67.052C145.943 66.1547 147.586 65.2772 148.544 65.2772H159.164C160.463 65.2772 162.078 65.8474 162.84 66.5766C162.898 66.6317 162.961 66.6897 163.025 66.7509C163.84 67.5183 164.359 68.0579 164.162 68.5563C164.054 68.8299 163.773 68.969 163.329 68.969L163.327 68.9706ZM143.879 68.1772C143.998 68.194 144.16 68.2062 144.38 68.2062H163.327C163.339 68.2062 163.35 68.2062 163.359 68.2062C163.178 67.9479 162.735 67.5305 162.5 67.3089C162.434 67.2477 162.37 67.1866 162.312 67.13C161.695 66.5399 160.252 66.0416 159.162 66.0416H148.543C147.703 66.0416 145.76 67.1315 144.715 67.7186C144.401 67.8944 144.131 68.0472 143.943 68.142C143.92 68.1542 143.899 68.1649 143.877 68.1756L143.879 68.1772ZM106.145 68.9706H87.1978C86.6253 68.9706 85.8497 68.9094 85.7245 68.382C85.6436 68.0442 85.8772 67.7338 86.4176 67.4602C86.5901 67.3731 86.8543 67.2248 87.1611 67.052C88.7611 66.1547 90.4038 65.2772 91.3626 65.2772H101.982C103.281 65.2772 104.897 65.8474 105.658 66.5766C105.716 66.6317 105.779 66.6897 105.843 66.7509C106.658 67.5183 107.177 68.0579 106.98 68.5563C106.872 68.8299 106.591 68.969 106.147 68.969L106.145 68.9706ZM86.697 68.1772C86.8161 68.194 86.9779 68.2062 87.1978 68.2062H106.145C106.158 68.2062 106.168 68.2062 106.177 68.2062C105.996 67.9479 105.553 67.5305 105.318 67.3089C105.252 67.2477 105.188 67.1881 105.13 67.13C104.513 66.5399 103.071 66.0416 101.981 66.0416H91.361C90.5214 66.0416 88.5779 67.1315 87.5336 67.7186C87.2191 67.8944 86.9489 68.0472 86.7611 68.142C86.7382 68.1542 86.7169 68.1649 86.6955 68.1756L86.697 68.1772ZM48.9636 68.9706H30.0159C29.4434 68.9706 28.6679 68.9094 28.5427 68.382C28.4618 68.0442 28.6954 67.7338 29.2358 67.4602C29.4083 67.3731 29.6724 67.2248 29.9793 67.052C31.5793 66.1547 33.222 65.2772 34.1807 65.2772H44.8003C46.0995 65.2772 47.7148 65.8474 48.4766 66.5766C48.5346 66.6317 48.5957 66.6897 48.6598 66.7509C49.475 67.5183 49.9941 68.0595 49.7971 68.5563C49.6888 68.8299 49.4078 68.969 48.9636 68.969V68.9706ZM29.5152 68.1772C29.6343 68.194 29.7961 68.2062 30.0159 68.2062H48.9636C48.9758 68.2062 48.9865 68.2062 48.9956 68.2062C48.814 67.9479 48.3712 67.5305 48.1361 67.3089C48.0705 67.2477 48.0079 67.1881 47.9483 67.1315C47.3316 66.5415 45.8888 66.0431 44.7988 66.0431H34.1792C33.3395 66.0431 31.3961 67.1331 30.3518 67.7201C30.0373 67.8959 29.7671 68.0488 29.5793 68.1435C29.5564 68.1558 29.535 68.1665 29.5137 68.1772H29.5152ZM235.142 62.9995C234.835 62.9995 233.808 62.9643 233.44 62.5042C233.326 62.3605 233.283 62.1877 233.319 62.0181C233.39 61.7001 233.689 61.3714 234.031 61.2354C234.348 61.11 234.68 61.1482 234.965 61.3439C235.725 61.8637 236.003 62.2397 235.892 62.599C235.809 62.865 235.558 62.9995 235.141 62.9995H235.142ZM234.132 62.0792C234.267 62.1373 234.524 62.203 234.875 62.226C234.787 62.1541 234.675 62.07 234.535 61.9737C234.46 61.9233 234.396 61.9141 234.318 61.9416C234.242 61.9691 234.176 62.0257 234.13 62.0792H234.132ZM215.153 62.9995C214.723 62.9995 214.46 62.8619 214.372 62.5913C214.248 62.2122 214.529 61.8239 215.373 61.2033C215.869 60.8394 216.341 60.7141 216.666 60.8578C216.871 60.948 217.004 61.1345 217.028 61.3684C217.059 61.6496 216.906 62.0074 216.619 62.3269C216.236 62.7534 215.701 62.9995 215.153 62.9995ZM216.207 61.6023C216.112 61.6374 215.982 61.7031 215.824 61.8209C215.592 61.9905 215.434 62.1235 215.326 62.2229C215.785 62.1541 216.085 61.8209 216.207 61.6023ZM206.532 62.9995C206.225 62.9995 205.198 62.9643 204.83 62.5042C204.716 62.3605 204.673 62.1877 204.709 62.0181C204.728 61.9325 204.79 61.7735 204.993 61.671C205.465 61.431 206.708 61.5961 207.239 61.827C207.639 62.0012 207.813 62.2306 207.755 62.5072C207.665 62.9414 207.086 62.9995 206.532 62.9995ZM186.679 62.9995C186.121 62.9995 185.539 62.9414 185.447 62.5042C185.389 62.226 185.565 61.9951 185.968 61.8178C186.053 61.7811 186.156 61.7337 186.269 61.6817C187.452 61.1421 187.898 60.9923 188.204 61.1635C188.333 61.2354 188.417 61.3607 188.435 61.5075C188.466 61.7567 188.336 62.0731 188.087 62.3544C187.725 62.7641 187.212 62.9995 186.679 62.9995ZM178.136 62.9995C177.822 62.9995 176.767 62.9628 176.385 62.4858C176.266 62.3391 176.223 62.1618 176.261 61.9875C176.324 61.6986 176.599 61.3256 176.999 61.1696C177.319 61.0443 177.657 61.0871 177.945 61.2904C178.739 61.8499 179.015 62.2275 178.899 62.5944C178.815 62.8619 178.559 62.998 178.138 62.998L178.136 62.9995ZM177.058 62.0563C177.191 62.1205 177.473 62.2061 177.912 62.229C177.812 62.1434 177.68 62.0379 177.505 61.9156C177.426 61.8606 177.357 61.8499 177.276 61.8805C177.185 61.9156 177.107 61.9905 177.058 62.0563ZM158.146 62.9995C157.721 62.9995 157.462 62.8634 157.376 62.5944C157.257 62.2244 157.54 61.8361 158.349 61.2568C158.834 60.9098 159.295 60.7905 159.614 60.9327C159.814 61.0214 159.944 61.2033 159.97 61.4295C160.001 61.697 159.857 62.0379 159.587 62.3406C159.213 62.7595 158.688 63.001 158.146 63.001V62.9995ZM159.126 61.6879C159.039 61.723 158.927 61.7826 158.793 61.8789C158.608 62.0104 158.468 62.1235 158.364 62.2153C158.74 62.1388 158.999 61.8805 159.126 61.6894V61.6879ZM149.526 62.9995C149.212 62.9995 148.157 62.9628 147.775 62.4858C147.656 62.3391 147.612 62.1618 147.651 61.9875C147.671 61.9003 147.734 61.7383 147.941 61.6328C148.427 61.3867 149.705 61.5625 150.251 61.8025C150.66 61.9829 150.839 62.2183 150.779 62.4996C150.686 62.9414 150.095 62.9995 149.528 62.9995H149.526ZM129.556 62.9995C128.985 62.9995 128.388 62.9399 128.294 62.4965C128.235 62.2137 128.414 61.9783 128.827 61.7949C128.922 61.7521 129.038 61.6986 129.166 61.6389C130.366 61.081 130.818 60.9235 131.13 61.0978C131.261 61.1712 131.346 61.2996 131.363 61.4494C131.394 61.7123 131.253 62.0456 130.989 62.3437C130.618 62.761 130.096 62.9995 129.556 62.9995ZM130.259 61.986C130.078 62.0624 129.884 62.148 129.722 62.2229C129.94 62.1908 130.12 62.096 130.259 61.986ZM120.954 62.9995C120.64 62.9995 119.585 62.9628 119.203 62.4858C119.084 62.3391 119.041 62.1618 119.079 61.9875C119.142 61.6986 119.417 61.3256 119.817 61.1696C120.139 61.0443 120.475 61.0871 120.763 61.2904C121.557 61.8484 121.834 62.2275 121.718 62.5944C121.634 62.8619 121.377 62.998 120.956 62.998L120.954 62.9995ZM119.876 62.0563C120.009 62.1205 120.292 62.2061 120.73 62.229C120.631 62.1434 120.498 62.0379 120.324 61.9156C120.244 61.8606 120.177 61.8499 120.095 61.8805C120.003 61.9156 119.925 61.9905 119.876 62.0563ZM100.964 62.9995C100.539 62.9995 100.28 62.8634 100.194 62.5944C100.075 62.2244 100.358 61.8361 101.167 61.2568C101.652 60.9098 102.113 60.792 102.433 60.9327C102.633 61.0214 102.762 61.2033 102.788 61.4295C102.819 61.697 102.675 62.0379 102.405 62.3406C102.031 62.7595 101.506 63.001 100.964 63.001V62.9995ZM101.944 61.6879C101.857 61.723 101.746 61.7826 101.611 61.8789C101.426 62.0104 101.286 62.1235 101.182 62.2153C101.558 62.1388 101.817 61.8805 101.944 61.6894V61.6879ZM92.3442 62.9995C92.0297 62.9995 90.9748 62.9628 90.5931 62.4858C90.474 62.3391 90.4313 62.1618 90.4694 61.9875C90.4893 61.9003 90.5519 61.7383 90.7595 61.6328C91.245 61.3867 92.5228 61.5625 93.0694 61.8025C93.4785 61.9829 93.6572 62.2183 93.5976 62.4996C93.5045 62.9414 92.9121 62.9995 92.3457 62.9995H92.3442ZM72.3737 62.9995C71.8027 62.9995 71.2058 62.9399 71.1127 62.4965C71.0531 62.2137 71.2317 61.9783 71.6439 61.7949C71.7386 61.7521 71.8562 61.6986 71.9844 61.6389C73.1844 61.081 73.6363 60.925 73.9477 61.0978C74.079 61.1712 74.1645 61.2996 74.1813 61.4494C74.2118 61.7123 74.0714 62.0456 73.8073 62.3437C73.4363 62.761 72.9141 62.9995 72.3737 62.9995ZM73.0775 61.986C72.8958 62.0624 72.7019 62.148 72.5401 62.2229C72.7584 62.1908 72.9386 62.096 73.0775 61.986ZM63.7724 62.9995C63.4579 62.9995 62.4029 62.9628 62.0213 62.4858C61.9022 62.3391 61.8595 62.1618 61.8976 61.9875C61.9602 61.6986 62.235 61.3256 62.635 61.1696C62.9556 61.0443 63.293 61.0871 63.5815 61.2904C64.3754 61.8499 64.6517 62.2275 64.5357 62.5944C64.4518 62.8619 64.1953 62.998 63.7739 62.998L63.7724 62.9995ZM62.6945 62.0563C62.8274 62.1205 63.1098 62.2061 63.548 62.229C63.4487 62.1434 63.3159 62.0379 63.1419 61.9156C63.0625 61.8606 62.9938 61.8499 62.9129 61.8805C62.8213 61.9156 62.7434 61.9905 62.6945 62.0563ZM43.782 62.9995C43.3576 62.9995 43.0981 62.8634 43.0126 62.5944C42.8935 62.2244 43.1759 61.8361 43.9851 61.2568C44.4706 60.9098 44.9316 60.7905 45.2507 60.9327C45.4507 61.0214 45.5805 61.2033 45.6064 61.4295C45.6369 61.697 45.4934 62.0364 45.2232 62.3391C44.8492 62.7579 44.324 62.9995 43.782 62.9995ZM44.7622 61.6879C44.6751 61.723 44.5637 61.7826 44.4293 61.8789C44.2446 62.0104 44.1042 62.1235 44.0003 62.2153C44.3759 62.1388 44.6354 61.8805 44.7622 61.6894V61.6879ZM35.1624 62.9995C34.625 62.9995 34.1059 62.761 33.738 62.3467C33.4785 62.0547 33.3426 61.7261 33.3731 61.4677C33.3991 61.2461 33.5273 61.0687 33.7243 60.9816C34.0388 60.841 34.4922 60.9541 34.9716 61.2904C35.7654 61.8499 36.0418 62.2275 35.9257 62.5944C35.8418 62.8619 35.5853 62.998 35.1639 62.998L35.1624 62.9995ZM34.2326 61.7444C34.3548 61.9156 34.5853 62.1297 34.9105 62.2061C34.8143 62.1251 34.6891 62.0272 34.5303 61.9156C34.4128 61.8331 34.312 61.7781 34.2311 61.7444H34.2326ZM220.301 53.4513C220.077 53.4513 219.859 53.41 219.648 53.3259C219.091 53.1043 218.686 52.6181 218.506 51.9547L217.657 50.0224C216.897 48.9386 216.918 47.2264 217.705 46.1609L218.631 44.1828C218.824 43.527 219.24 43.0424 219.807 42.8162C220.382 42.5869 221.028 42.6587 221.627 43.0179C221.642 43.0271 223.196 43.9397 225.21 43.9397C227.223 43.9397 228.855 42.9813 228.872 42.9721C229.469 42.6067 230.11 42.5318 230.681 42.7596C231.251 42.9874 231.664 43.4857 231.845 44.1629L231.852 44.2012C231.852 44.2088 232.005 45.0817 232.637 45.9484C233.423 47.0262 233.409 48.7597 232.609 49.8359L231.71 51.7284C231.513 52.3812 231.09 52.8673 230.521 53.0951C229.941 53.3274 229.29 53.2632 228.689 52.9116C228.675 52.904 227.19 52.0571 225.226 52.0571C223.121 52.0571 221.462 53.0859 221.445 53.0951C221.071 53.3305 220.68 53.4497 220.3 53.4497L220.301 53.4513ZM220.494 43.4521C220.353 43.4521 220.217 43.4781 220.089 43.5285C219.74 43.6676 219.48 43.9856 219.356 44.4228L219.335 44.4824L218.361 46.5615L218.337 46.5936C217.717 47.4038 217.7 48.7842 218.3 49.6097L218.324 49.6433L219.237 51.7345C219.35 52.1718 219.596 52.4851 219.93 52.6181C220.265 52.7511 220.659 52.6915 221.04 52.4515C221.115 52.4041 222.906 51.2958 225.228 51.2958C227.407 51.2958 229.008 52.2146 229.075 52.2528C229.469 52.4821 229.883 52.5295 230.239 52.3873C230.596 52.2436 230.861 51.9241 230.988 51.4869L231.01 51.4288L231.956 49.4385L231.981 49.4063C232.602 48.5992 232.62 47.2234 232.022 46.4025C231.327 45.4516 231.133 44.5084 231.103 44.3479C230.984 43.9183 230.735 43.608 230.397 43.4735C230.057 43.3374 229.657 43.3909 229.271 43.6279C229.199 43.6722 227.48 44.7087 225.21 44.7087C222.939 44.7087 221.304 43.7196 221.234 43.6783C220.988 43.5301 220.735 43.4552 220.492 43.4552L220.494 43.4521ZM106.181 53.3687C105.95 53.3687 105.724 53.3259 105.507 53.2403C104.944 53.0171 104.532 52.531 104.344 51.8721L103.442 49.9016C102.663 48.83 102.66 47.1179 103.432 46.0417L104.278 44.1889C104.468 43.5316 104.881 43.0455 105.446 42.8177C106.02 42.5884 106.666 42.6587 107.263 43.0179C107.278 43.0271 108.832 43.9397 110.846 43.9397C112.86 43.9397 114.492 42.9813 114.509 42.9721C115.104 42.6083 115.748 42.5318 116.319 42.7596C116.883 42.9828 117.295 43.4689 117.483 44.1278L118.385 46.0983C119.163 47.1699 119.166 48.882 118.394 49.9582L117.548 51.811C117.359 52.4683 116.945 52.9544 116.38 53.1822C115.806 53.4115 115.16 53.3412 114.562 52.982C114.547 52.9728 112.993 52.0602 110.979 52.0602C108.965 52.0602 107.332 53.0186 107.316 53.0293C106.947 53.2556 106.558 53.3702 106.179 53.3702L106.181 53.3687ZM106.132 43.4521C105.993 43.4521 105.857 43.4781 105.73 43.5285C105.384 43.6676 105.126 43.9856 105.005 44.4228L104.984 44.4809L104.094 46.4315L104.069 46.4636C103.461 47.2815 103.465 48.6619 104.077 49.4767L104.101 49.5103L105.071 51.6398C105.19 52.077 105.445 52.3934 105.788 52.5295C106.132 52.6655 106.533 52.6105 106.919 52.3751C106.991 52.3307 108.712 51.2943 110.98 51.2943C113.249 51.2943 114.886 52.2833 114.956 52.3246C115.345 52.5585 115.75 52.6105 116.098 52.4714C116.444 52.3323 116.702 52.0143 116.823 51.5771L116.844 51.519L117.734 49.5684L117.759 49.5363C118.366 48.7184 118.363 47.3396 117.751 46.5248L117.727 46.4911L116.757 44.3601C116.638 43.9229 116.383 43.6065 116.04 43.4704C115.696 43.3344 115.295 43.3894 114.909 43.6248C114.837 43.6692 113.116 44.7056 110.848 44.7056C108.579 44.7056 106.942 43.7166 106.872 43.6753C106.626 43.527 106.373 43.4521 106.133 43.4521H106.132ZM163.362 53.3687C163.132 53.3687 162.906 53.3259 162.689 53.2403C162.126 53.0171 161.714 52.531 161.526 51.8721L160.623 49.9016C159.845 48.83 159.842 47.1179 160.614 46.0417L161.46 44.1889C161.649 43.5316 162.063 43.0455 162.628 42.8177C163.202 42.5869 163.848 42.6587 164.446 43.0179C164.462 43.0271 166.016 43.9397 168.029 43.9397C170.043 43.9397 171.677 42.9813 171.692 42.9706C172.287 42.6067 172.93 42.5303 173.503 42.7581C174.066 42.9813 174.478 43.4674 174.666 44.1262L175.568 46.0967C176.347 47.1683 176.35 48.8805 175.577 49.9567L174.731 51.8095C174.542 52.4668 174.128 52.9529 173.564 53.1807C172.99 53.41 172.344 53.3397 171.745 52.9804C171.73 52.9713 170.176 52.0586 168.162 52.0586C166.149 52.0586 164.516 53.0171 164.5 53.0263C164.129 53.2525 163.741 53.3687 163.362 53.3687ZM163.313 43.4521C163.175 43.4521 163.039 43.4781 162.91 43.5285C162.564 43.6676 162.306 43.9856 162.185 44.4228L162.164 44.4809L161.274 46.4315L161.249 46.4636C160.642 47.2815 160.645 48.6603 161.257 49.4767L161.281 49.5103L162.251 51.6413C162.37 52.0785 162.625 52.3949 162.968 52.531C163.312 52.6671 163.713 52.612 164.1 52.3766C164.171 52.3323 165.892 51.2958 168.161 51.2958C170.429 51.2958 172.066 52.2849 172.136 52.3262C172.525 52.56 172.93 52.612 173.277 52.4729C173.623 52.3338 173.881 52.0158 174.002 51.5786L174.023 51.5205L174.913 49.5684L174.938 49.5363C175.545 48.7184 175.542 47.3396 174.93 46.5248L174.906 46.4911L173.936 44.3601C173.817 43.9229 173.562 43.6065 173.219 43.4704C172.875 43.3344 172.474 43.3894 172.087 43.6248C172.016 43.6692 170.295 44.7056 168.026 44.7056C165.758 44.7056 164.121 43.7166 164.051 43.6753C163.805 43.527 163.552 43.4521 163.312 43.4521H163.313ZM48.9956 53.3687C48.7651 53.3687 48.5376 53.3259 48.3224 53.2388C47.7529 53.011 47.3392 52.5127 47.159 51.8354L47.1514 51.7972C47.1514 51.7896 46.9987 50.9167 46.3667 50.0499C45.5805 48.9722 45.5942 47.2387 46.3942 46.1625L47.2934 44.2699C47.4903 43.6172 47.9132 43.1311 48.4827 42.9033C49.0628 42.6709 49.7132 42.7351 50.3147 43.0867C50.3284 43.0944 51.8124 43.9413 53.7772 43.9413C55.8733 43.9413 57.5435 42.9125 57.5588 42.9018C58.1511 42.5288 58.7893 42.4477 59.3557 42.6725C59.9129 42.8941 60.3175 43.3802 60.4977 44.0437L61.3465 45.976C62.1068 47.0598 62.0854 48.7719 61.2992 49.8374L60.3725 51.8156C60.1801 52.4714 59.7633 52.956 59.1969 53.1822C58.6214 53.4115 57.9756 53.3397 57.3771 52.9804C57.3619 52.9713 55.8077 52.0586 53.794 52.0586C51.7803 52.0586 50.1483 53.0171 50.1315 53.0263C49.762 53.2525 49.3743 53.3672 48.9956 53.3672V53.3687ZM47.8995 51.6551C48.0186 52.0846 48.2674 52.3949 48.6048 52.5295C48.9453 52.6655 49.3453 52.6105 49.7315 52.3751C49.8033 52.3307 51.5223 51.2943 53.7925 51.2943C56.0626 51.2943 57.6977 52.2833 57.7679 52.3246C58.1573 52.5585 58.5633 52.6105 58.913 52.4714C59.2626 52.3323 59.5221 52.0143 59.6458 51.5771L59.6671 51.519L60.6412 49.44L60.6656 49.4079C61.2854 48.5977 61.3022 47.2173 60.7022 46.3918L60.6778 46.3581L59.7648 44.2669C59.6519 43.8297 59.4061 43.5163 59.0717 43.3833C58.7374 43.2503 58.3435 43.3099 57.9618 43.5499C57.887 43.5973 56.0962 44.7056 53.7742 44.7056C51.5956 44.7056 49.9941 43.7869 49.9269 43.7487C49.533 43.5194 49.1208 43.472 48.7636 43.6141C48.4063 43.7578 48.1407 44.0773 48.014 44.5145L47.9926 44.5726L47.0461 46.5645L47.0216 46.5966C46.4003 47.4038 46.382 48.7796 46.9804 49.6005C47.6751 50.5513 47.869 51.4945 47.8995 51.6551ZM134.791 53.3427C134.557 53.3427 134.328 53.2999 134.11 53.2128C133.545 52.9881 133.131 52.502 132.942 51.8446L132.049 49.9032C131.27 48.8316 131.265 47.121 132.038 46.0448L132.884 44.192C133.073 43.5346 133.487 43.0485 134.052 42.8207C134.626 42.5899 135.27 42.6618 135.87 43.021C135.885 43.0302 137.439 43.9428 139.453 43.9428C141.467 43.9428 143.061 43.0072 143.076 42.9981C143.673 42.6358 144.317 42.5624 144.891 42.7917C145.456 43.0164 145.87 43.5025 146.059 44.1599L146.952 46.1013C147.731 47.1729 147.735 48.8835 146.963 49.9597L146.117 51.8125C145.928 52.4698 145.514 52.956 144.949 53.1837C144.375 53.4131 143.729 53.3427 143.131 52.9835C143.115 52.9743 141.561 52.0617 139.548 52.0617C137.534 52.0617 135.94 52.9972 135.925 53.0064C135.555 53.2296 135.168 53.3443 134.791 53.3443V53.3427ZM135.529 52.3521C135.601 52.3093 137.296 51.2958 139.548 51.2958C141.799 51.2958 143.453 52.2849 143.523 52.3262C143.912 52.56 144.317 52.612 144.665 52.4729C145.012 52.3338 145.27 52.0158 145.39 51.5786L145.412 51.5205L146.302 49.5684L146.326 49.5363C146.934 48.7184 146.929 47.3396 146.317 46.5248L146.293 46.4927L145.332 44.3922C145.212 43.955 144.955 43.6386 144.61 43.501C144.265 43.3634 143.861 43.4169 143.473 43.6524C143.401 43.6952 141.706 44.7087 139.455 44.7087C137.203 44.7087 135.549 43.7196 135.479 43.6783C135.09 43.4444 134.685 43.3925 134.337 43.5316C133.991 43.6707 133.733 43.9887 133.612 44.4259L133.591 44.484L132.7 46.4361L132.676 46.4682C132.068 47.2861 132.073 48.6649 132.685 49.4797L132.71 49.5118L133.67 51.6123C133.791 52.0495 134.047 52.3659 134.392 52.5035C134.739 52.6411 135.142 52.5876 135.529 52.3521ZM77.6102 53.3427C77.3766 53.3427 77.1476 53.2999 76.9293 53.2113C76.3583 52.982 75.9431 52.4836 75.7614 51.8079L75.7538 51.7697C75.7538 51.7697 75.6011 50.9045 74.9721 50.0423C74.1874 48.9691 74.2042 47.2402 75.0042 46.1655L75.9034 44.273C76.1003 43.6202 76.5232 43.1341 77.0927 42.9063C77.6728 42.674 78.3232 42.7382 78.9247 43.0898C78.9384 43.0974 80.4224 43.9443 82.3872 43.9443C84.352 43.9443 85.8757 43.076 85.8909 43.0669C86.4909 42.7137 87.1398 42.6465 87.7168 42.8788C88.2848 43.1066 88.7046 43.5927 88.8985 44.2485L89.7641 46.1044C90.5458 47.1745 90.5534 48.8851 89.7794 49.9613L88.9336 51.814C88.7443 52.4714 88.3306 52.9575 87.7657 53.1853C87.1917 53.4146 86.5459 53.3443 85.9474 52.985C85.9321 52.9758 84.378 52.0632 82.3643 52.0632C80.3506 52.0632 78.7735 52.9896 78.7415 53.0079C78.372 53.2311 77.9858 53.3458 77.6102 53.3458V53.3427ZM76.5018 51.6245C76.6209 52.054 76.8744 52.3659 77.2133 52.502C77.5568 52.6395 77.9598 52.586 78.3461 52.3521C78.4178 52.3093 80.1124 51.2958 82.3643 51.2958C84.6161 51.2958 86.2695 52.2849 86.3398 52.3262C86.7291 52.56 87.1336 52.612 87.4817 52.4729C87.8283 52.3338 88.0863 52.0158 88.2069 51.5786L88.2283 51.5205L89.1183 49.5699L89.1428 49.5378C89.7504 48.72 89.7443 47.3426 89.1305 46.5309L89.1061 46.4988L88.1733 44.487C88.0497 44.0483 87.7871 43.7303 87.4329 43.5881C87.0802 43.446 86.6695 43.4949 86.2772 43.7257C86.2085 43.7655 84.5841 44.7071 82.3872 44.7071C80.1903 44.7071 78.6071 43.7884 78.54 43.7502C78.1461 43.5209 77.7323 43.4735 77.3766 43.6157C77.0194 43.7594 76.7537 44.0789 76.627 44.5161L76.6057 44.5742L75.6591 46.566L75.6347 46.5981C75.0133 47.4053 74.9935 48.7765 75.5889 49.5913C76.2805 50.5376 76.4759 51.4655 76.5049 51.6245H76.5018ZM191.986 53.2602C191.745 53.2602 191.508 53.2159 191.284 53.1241C190.716 52.8964 190.296 52.4102 190.102 51.7544L189.236 49.8986C188.455 48.8285 188.447 47.1179 189.22 46.0417L190.065 44.1889C190.255 43.5316 190.669 43.0455 191.233 42.8177C191.807 42.5869 192.453 42.6587 193.052 43.0179C193.067 43.0271 194.621 43.9397 196.635 43.9397C198.648 43.9397 200.242 43.0042 200.258 42.995C200.855 42.6327 201.497 42.5593 202.07 42.7886C202.641 43.0179 203.056 43.5163 203.238 44.192L203.245 44.2302C203.245 44.2302 203.398 45.0954 204.027 45.9576C204.812 47.0308 204.795 48.7597 203.995 49.8344L203.096 51.7269C202.899 52.3797 202.476 52.8658 201.906 53.0936C201.326 53.3259 200.676 53.2617 200.074 52.9101C200.061 52.9025 198.575 52.0556 196.612 52.0556C194.649 52.0556 193.123 52.9239 193.108 52.933C192.743 53.1486 192.36 53.2571 191.985 53.2571L191.986 53.2602ZM192.722 52.2772C192.791 52.2375 194.415 51.2958 196.612 51.2958C198.809 51.2958 200.392 52.2146 200.459 52.2528C200.853 52.4821 201.267 52.5295 201.622 52.3873C201.98 52.2436 202.245 51.9241 202.372 51.4869L202.393 51.4288L203.34 49.4369L203.364 49.4048C203.986 48.5977 204.006 47.2264 203.41 46.4116C202.719 45.4654 202.523 44.5375 202.494 44.3785C202.375 43.9489 202.122 43.6371 201.783 43.501C201.439 43.3634 201.036 43.4169 200.65 43.6508C200.578 43.6936 198.884 44.7071 196.632 44.7071C194.38 44.7071 192.726 43.7181 192.656 43.6768C192.267 43.4429 191.862 43.3909 191.514 43.5301C191.168 43.6692 190.91 43.9871 190.789 44.4243L190.768 44.4824L189.878 46.433L189.853 46.4651C189.246 47.283 189.252 48.6603 189.865 49.4721L189.89 49.5042L190.823 51.5159C190.946 51.9547 191.209 52.2726 191.563 52.4148C191.916 52.557 192.327 52.5081 192.719 52.2772H192.722ZM62.632 35.2002C62.5251 35.2002 62.4243 35.1803 62.3358 35.1421C62.1312 35.0519 61.9984 34.8654 61.974 34.6315C61.9434 34.3503 62.0961 33.9925 62.3831 33.673C62.7663 33.2465 63.3006 33.0004 63.8487 33.0004C64.2792 33.0004 64.5418 33.138 64.6304 33.4086C64.754 33.7877 64.4731 34.176 63.6289 34.7966C63.2686 35.0611 62.919 35.2002 62.6304 35.2002H62.632ZM63.6762 33.777C63.2167 33.8458 62.9174 34.179 62.7953 34.3976C62.89 34.3625 63.0197 34.2968 63.1785 34.179C63.4106 34.0094 63.5678 33.8764 63.6762 33.777ZM234.049 35.1253C233.941 35.1253 233.842 35.1054 233.753 35.0672C233.553 34.9786 233.423 34.7966 233.397 34.5704C233.367 34.3029 233.51 33.9635 233.78 33.6608C234.154 33.242 234.68 33.0004 235.222 33.0004C235.646 33.0004 235.906 33.1365 235.991 33.4055C236.11 33.7755 235.828 34.1638 235.019 34.7431C234.667 34.9938 234.33 35.1253 234.049 35.1253ZM235.003 33.7862C234.628 33.8626 234.368 34.121 234.243 34.312C234.33 34.2769 234.442 34.2173 234.576 34.121C234.761 33.9895 234.901 33.8764 235.005 33.7862H235.003ZM176.867 35.1253C176.759 35.1253 176.66 35.1054 176.571 35.0672C176.371 34.9786 176.241 34.7966 176.215 34.5704C176.185 34.3029 176.328 33.9635 176.599 33.6593C176.973 33.2404 177.498 32.9989 178.04 32.9989C178.464 32.9989 178.724 33.1349 178.809 33.404C178.928 33.7739 178.646 34.1622 177.837 34.7416C177.486 34.9923 177.148 35.1238 176.867 35.1238V35.1253ZM177.822 33.7862C177.446 33.8626 177.186 34.121 177.061 34.312C177.148 34.2769 177.26 34.2173 177.394 34.121C177.579 33.9895 177.718 33.8764 177.823 33.7862H177.822ZM119.686 35.1253C119.577 35.1253 119.478 35.1054 119.389 35.0672C119.189 34.9786 119.06 34.7966 119.034 34.5704C119.003 34.3029 119.147 33.9635 119.417 33.6593C119.791 33.2404 120.316 32.9989 120.858 32.9989C121.282 32.9989 121.542 33.1349 121.627 33.404C121.747 33.7739 121.464 34.1622 120.655 34.7416C120.304 34.9923 119.966 35.1238 119.686 35.1238V35.1253ZM120.64 33.7862C120.264 33.8626 120.005 34.121 119.879 34.312C119.966 34.2769 120.078 34.2173 120.212 34.121C120.397 33.9895 120.536 33.8764 120.641 33.7862H120.64ZM244.986 35.0764C244.71 35.0764 244.38 34.9495 244.035 34.708C243.241 34.1485 242.965 33.7709 243.081 33.404C243.165 33.1365 243.421 33.0004 243.843 33.0004C244.38 33.0004 244.899 33.2389 245.267 33.6532C245.527 33.9452 245.663 34.2738 245.632 34.5322C245.606 34.7538 245.478 34.9312 245.281 35.0183C245.192 35.058 245.093 35.0779 244.985 35.0779L244.986 35.0764ZM244.095 33.7938C244.191 33.8748 244.316 33.9727 244.475 34.0843C244.592 34.1668 244.693 34.2218 244.774 34.2555C244.652 34.0843 244.421 33.8702 244.096 33.7938H244.095ZM148.154 34.9694C148.045 34.9694 147.957 34.9464 147.876 34.9021C147.744 34.8287 147.659 34.7003 147.642 34.5505C147.612 34.2876 147.752 33.9543 148.016 33.6562C148.387 33.2389 148.909 33.0004 149.45 33.0004C150.021 33.0004 150.618 33.06 150.711 33.5034C150.77 33.7862 150.592 34.0216 150.178 34.205C150.083 34.2478 149.966 34.3013 149.837 34.361C148.946 34.7768 148.468 34.9694 148.152 34.9694H148.154ZM149.282 33.777C149.063 33.8091 148.883 33.9039 148.744 34.0139C148.926 33.9375 149.118 33.8519 149.282 33.777ZM205.335 34.9694C205.227 34.9694 205.138 34.9464 205.057 34.9021C204.926 34.8287 204.841 34.7003 204.824 34.5505C204.793 34.2876 204.934 33.9543 205.198 33.6562C205.569 33.2389 206.091 33.0004 206.631 33.0004C207.202 33.0004 207.799 33.06 207.893 33.5034C207.952 33.7862 207.773 34.0216 207.361 34.205C207.267 34.2478 207.149 34.3013 207.021 34.361C206.129 34.7768 205.65 34.9694 205.335 34.9694ZM206.464 33.777C206.245 33.8091 206.065 33.9039 205.926 34.0139C206.108 33.9375 206.302 33.8519 206.464 33.777ZM91.0771 34.9021C90.9687 34.9021 90.8801 34.8792 90.8007 34.8349C90.6725 34.763 90.5885 34.6377 90.5702 34.4909C90.5397 34.2417 90.6694 33.9253 90.9183 33.644C91.2801 33.2343 91.7931 33.0004 92.3259 33.0004C92.8587 33.0004 93.4663 33.0585 93.5579 33.4957C93.6159 33.7739 93.4404 34.0048 93.0373 34.1821C92.9518 34.2188 92.8495 34.2662 92.7366 34.3182C91.8602 34.7171 91.3885 34.9036 91.0786 34.9036L91.0771 34.9021ZM91.9305 33.8397C91.9106 33.8473 91.8923 33.855 91.874 33.8641C91.8923 33.8565 91.9122 33.8473 91.9305 33.8397ZM158.824 34.9006C158.62 34.9006 158.422 34.8364 158.242 34.7095C157.448 34.1515 157.172 33.7724 157.288 33.4055C157.372 33.138 157.628 33.002 158.049 33.002C158.364 33.002 159.419 33.0386 159.801 33.5156C159.92 33.6623 159.962 33.8397 159.924 34.0139C159.862 34.3029 159.587 34.6759 159.187 34.8318C159.066 34.8792 158.944 34.9021 158.822 34.9021L158.824 34.9006ZM158.274 33.7709C158.373 33.8565 158.506 33.962 158.68 34.0843C158.759 34.1393 158.828 34.15 158.909 34.1194C159.001 34.0843 159.078 34.0094 159.127 33.9436C158.994 33.8794 158.712 33.7938 158.274 33.7709ZM101.642 34.9006C101.439 34.9006 101.24 34.8364 101.06 34.7095C100.266 34.15 99.9898 33.7724 100.106 33.4055C100.19 33.138 100.446 33.002 100.868 33.002C101.182 33.002 102.237 33.0386 102.619 33.5156C102.738 33.6623 102.781 33.8397 102.742 34.0139C102.68 34.3029 102.405 34.6759 102.005 34.8318C101.884 34.8792 101.762 34.9021 101.64 34.9021L101.642 34.9006ZM101.092 33.7709C101.191 33.8565 101.324 33.962 101.498 34.0843C101.578 34.1393 101.646 34.15 101.727 34.1194C101.819 34.0843 101.897 34.0094 101.946 33.9436C101.813 33.8794 101.53 33.7938 101.092 33.7709ZM216.007 34.9006C215.804 34.9006 215.605 34.8364 215.425 34.7095C214.631 34.15 214.355 33.7724 214.471 33.4055C214.555 33.138 214.811 33.002 215.233 33.002C215.547 33.002 216.602 33.0386 216.984 33.5156C217.103 33.6623 217.146 33.8397 217.108 34.0139C217.045 34.3029 216.77 34.6759 216.37 34.8318C216.25 34.8792 216.127 34.9021 216.005 34.9021L216.007 34.9006ZM215.457 33.7709C215.556 33.8565 215.689 33.962 215.863 34.0843C215.943 34.1393 216.011 34.15 216.092 34.1194C216.184 34.0843 216.262 34.0094 216.311 33.9436C216.178 33.8794 215.895 33.7938 215.457 33.7709ZM44.6034 34.8379C44.4064 34.8379 44.2141 34.7768 44.0385 34.6575C43.2782 34.1378 43.0004 33.7617 43.1118 33.4025C43.1943 33.1365 43.4462 33.002 43.8629 33.002C44.1698 33.002 45.1973 33.0371 45.5652 33.4972C45.6797 33.6409 45.7224 33.8137 45.6858 33.9834C45.6156 34.3013 45.3163 34.63 44.9744 34.7661C44.8522 34.815 44.727 34.8379 44.6049 34.8379H44.6034ZM44.1286 33.7739C44.2171 33.8458 44.3286 33.9299 44.4675 34.0262C44.5423 34.0766 44.6064 34.0858 44.6843 34.0583C44.7606 34.0308 44.8263 33.9742 44.8721 33.9207C44.7362 33.8626 44.4797 33.7969 44.1286 33.7739ZM187.534 34.4878C186.975 34.4878 186.298 34.3579 185.937 34.1989C185.528 34.0185 185.35 33.7831 185.409 33.5018C185.502 33.06 186.093 33.002 186.661 33.002C186.975 33.002 188.03 33.0386 188.412 33.5156C188.531 33.6623 188.574 33.8397 188.536 34.0139C188.516 34.1011 188.453 34.2631 188.246 34.3686C188.081 34.4527 187.823 34.4878 187.533 34.4878H187.534ZM130.352 34.4878C129.794 34.4878 129.116 34.3579 128.756 34.1989C128.346 34.0185 128.168 33.7831 128.227 33.5018C128.32 33.06 128.911 33.002 129.479 33.002C129.794 33.002 130.849 33.0386 131.23 33.5156C131.349 33.6623 131.394 33.8397 131.354 34.0139C131.334 34.1011 131.272 34.2631 131.064 34.3686C130.899 34.4527 130.641 34.4878 130.351 34.4878H130.352ZM73.3065 34.4481C72.7661 34.4481 72.1142 34.3258 71.7676 34.1745C71.3676 34.0002 71.1936 33.7709 71.2516 33.4942C71.3417 33.06 71.9203 33.002 72.4745 33.002C72.7813 33.002 73.8088 33.0371 74.1767 33.4972C74.2912 33.6409 74.334 33.8137 74.2973 33.9834C74.279 34.069 74.2164 34.228 74.0134 34.3304C73.85 34.4129 73.595 34.4481 73.308 34.4481H73.3065ZM244.824 30.7211H234.205C232.906 30.7211 231.29 30.1509 230.529 29.4218C230.471 29.3667 230.408 29.3086 230.344 29.2475C229.529 28.4801 229.01 27.9405 229.207 27.4421C229.315 27.1685 229.596 27.0294 230.04 27.0294H248.988C249.432 27.0294 249.713 27.1685 249.821 27.4421C250.018 27.9389 249.499 28.4801 248.684 29.2475C248.62 29.3086 248.557 29.3667 248.499 29.4218C247.737 30.1509 246.122 30.7211 244.823 30.7211H244.824ZM230.008 27.7937C230.19 28.052 230.632 28.4678 230.868 28.691C230.933 28.7522 230.997 28.8118 231.055 28.8699C231.672 29.46 233.115 29.9583 234.203 29.9583H244.823C245.913 29.9583 247.354 29.46 247.972 28.8699C248.032 28.8133 248.095 28.7537 248.16 28.691C248.395 28.4694 248.838 28.0536 249.02 27.7937C249.009 27.7937 248.998 27.7937 248.988 27.7937H230.04C230.028 27.7937 230.017 27.7937 230.008 27.7937ZM187.643 30.7211H177.023C175.724 30.7211 174.109 30.1509 173.347 29.4218C173.289 29.3667 173.226 29.3086 173.162 29.2475C172.347 28.4801 171.828 27.9405 172.025 27.4421C172.133 27.1685 172.414 27.0294 172.858 27.0294H191.806C192.378 27.0294 193.154 27.0905 193.279 27.6179C193.36 27.9557 193.126 28.2661 192.586 28.5397C192.414 28.6268 192.149 28.7751 191.843 28.9463C190.243 29.8437 188.6 30.7211 187.641 30.7211H187.643ZM172.826 27.7937C173.008 28.052 173.451 28.4678 173.686 28.691C173.751 28.7522 173.815 28.8118 173.874 28.8699C174.49 29.46 175.933 29.9583 177.023 29.9583H187.643C188.482 29.9583 190.427 28.8668 191.472 28.2813C191.785 28.1055 192.056 27.9527 192.244 27.8579C192.267 27.8457 192.288 27.835 192.31 27.8243C192.191 27.8075 192.029 27.7952 191.809 27.7952H172.861C172.849 27.7952 172.838 27.7952 172.829 27.7952L172.826 27.7937ZM130.461 30.7211H119.841C118.542 30.7211 116.927 30.1509 116.165 29.4218C116.107 29.3667 116.044 29.3086 115.98 29.2475C115.165 28.4801 114.646 27.9405 114.843 27.4421C114.951 27.1685 115.232 27.0294 115.676 27.0294H134.624C135.197 27.0294 135.972 27.0905 136.097 27.6179C136.178 27.9557 135.945 28.2661 135.404 28.5397C135.232 28.6268 134.968 28.7751 134.661 28.9463C133.061 29.8437 131.418 30.7211 130.459 30.7211H130.461ZM115.644 27.7937C115.826 28.052 116.269 28.4694 116.504 28.691C116.57 28.7522 116.634 28.8118 116.692 28.8699C117.308 29.46 118.751 29.9583 119.841 29.9583H130.461C131.301 29.9583 133.244 28.8668 134.29 28.2813C134.603 28.1055 134.874 27.9527 135.062 27.8579C135.085 27.8457 135.107 27.835 135.128 27.8243C135.009 27.8075 134.847 27.7952 134.627 27.7952H115.68C115.667 27.7952 115.657 27.7952 115.647 27.7952L115.644 27.7937ZM73.395 30.7211H62.7755C61.4763 30.7211 59.861 30.1509 59.0992 29.4218C59.0412 29.3667 58.9801 29.3086 58.916 29.2475C58.1008 28.4801 57.5817 27.9389 57.7786 27.4421C57.887 27.1685 58.1679 27.0294 58.6122 27.0294H77.5598C78.1323 27.0294 78.9079 27.0905 79.0331 27.6179C79.114 27.9557 78.8804 28.2661 78.34 28.5397C78.1675 28.6268 77.9033 28.7751 77.5965 28.9463C75.9965 29.8437 74.3538 30.7211 73.395 30.7211ZM58.5786 27.7937C58.7603 28.052 59.203 28.4694 59.4381 28.691C59.5038 28.7522 59.5664 28.8118 59.6259 28.8684C60.2427 29.4584 61.6854 29.9568 62.7755 29.9568H73.395C74.2347 29.9568 76.1782 28.8653 77.224 28.2798C77.5369 28.104 77.8087 27.9512 77.9965 27.8564C78.0194 27.8441 78.0407 27.8334 78.0621 27.8227C77.943 27.8059 77.7812 27.7937 77.5614 27.7937H58.6137C58.6015 27.7937 58.5908 27.7937 58.5817 27.7937H58.5786Z" fill="currentColor"/>
</svg>
