<svg width="279" height="97" viewBox="0 0 279 97" fill="none" xmlns="http://www.w3.org/2000/svg">
<g clip-path="url(#clip0_675_3260)">
<path d="M251.854 50.2971L242.128 51.301L261.352 24.1684L260.126 23.2915L240.131 51.5044L218.738 53.7156L220.874 51.9301L222.1 51.803L222.018 50.9706L222.511 50.5576L221.544 49.3948L220.261 50.4686L212.223 51.301L231.447 24.1684L230.221 23.2915L210.226 51.5044L188.833 53.7156L190.969 51.9301L192.202 51.803L192.113 50.9706L192.606 50.5576L191.639 49.3948L190.356 50.4686L182.317 51.301L201.542 24.1684L200.316 23.2915L180.32 51.5044L158.928 53.7156L161.064 51.9301L162.296 51.803L162.208 50.9706L162.701 50.5576L161.734 49.3948L160.451 50.4686L152.412 51.301L171.637 24.1684L170.411 23.2915L150.415 51.5044L129.023 53.7156L131.159 51.9301L132.391 51.803L132.303 50.9706L132.796 50.5576L131.829 49.3948L130.546 50.4686L122.507 51.301L141.738 24.1684L140.506 23.2915L120.51 51.5044L99.1179 53.7156L101.254 51.9301L102.486 51.803L102.398 50.9706L102.891 50.5576L101.93 49.3948L100.647 50.4686L92.6022 51.301L111.833 24.1684L110.607 23.2915L90.6051 51.5044L69.2128 53.7156L71.3488 51.9301L72.5812 51.803L72.4927 50.9706L72.9856 50.5576L72.0251 49.3948L70.7421 50.4686L62.6971 51.301L81.9281 24.1684L80.7021 23.2915L60.7064 51.5044L39.3077 53.7156L43.0806 50.5576L42.12 49.3948L36.6218 53.9952L35.1872 54.1414L35.2883 55.1136L15.6465 71.5457L16.6071 72.7085L37.2348 55.4504L59.5372 53.1501L58.9747 53.9444L60.2008 54.8213L61.5342 52.9404L68.6629 52.2033L66.5269 53.9952L65.0923 54.1414L65.1934 55.1136L45.5453 71.5457L46.5122 72.7085L67.1399 55.4504L89.4423 53.1501L88.8798 53.9444L90.1059 54.8213L91.4393 52.9404L98.568 52.2033L96.432 53.9952L94.9974 54.1414L95.0985 55.1136L75.4504 71.5457L76.4173 72.7085L97.0387 55.4504L119.347 53.1501L118.785 53.9444L120.011 54.8213L121.344 52.9404L128.473 52.2033L126.337 53.9952L124.902 54.1414L125.004 55.1136L105.355 71.5457L106.322 72.7085L126.944 55.4504L149.253 53.1501L148.69 53.9444L149.916 54.8213L151.25 52.9404L158.378 52.2033L156.242 53.9952L154.808 54.1414L154.902 55.1136L135.261 71.5457L136.227 72.7085L156.849 55.4504L179.158 53.1501L178.595 53.9444L179.821 54.8213L181.155 52.9404L188.283 52.2033L186.147 53.9952L184.713 54.1414L184.807 55.1136L165.166 71.5457L166.133 72.7085L186.754 55.4504L209.063 53.1501L208.5 53.9444L209.726 54.8213L211.06 52.9404L218.188 52.2033L216.046 53.9952L214.618 54.1414L214.713 55.1136L195.071 71.5457L196.031 72.7085L216.659 55.4504L238.968 53.1501L238.405 53.9444L239.631 54.8213L240.965 52.9404L252.005 51.803L251.854 50.2971Z" stroke="currentColor"/>
</g>
<defs>
<clipPath id="clip0_675_3260">
<rect width="278.1" height="96.1" fill="white"/>
</clipPath>
</defs>
</svg>
