<svg width="279" height="97" viewBox="0 0 279 97" fill="none" xmlns="http://www.w3.org/2000/svg">
<path d="M239.788 50.2971L231.183 51.301L248.192 24.1684L247.107 23.2915L229.416 51.5044L210.489 53.7156L212.379 51.9301L213.464 51.803L213.391 50.9706L213.827 50.5576L212.972 49.3948L211.837 50.4686L204.725 51.301L221.734 24.1684L220.649 23.2915L202.958 51.5044L184.031 53.7156L185.921 51.9301L187.011 51.803L186.933 50.9706L187.369 50.5576L186.513 49.3948L185.378 50.4686L178.266 51.301L195.275 24.1684L194.19 23.2915L176.499 51.5044L157.572 53.7156L159.462 51.9301L160.553 51.803L160.474 50.9706L160.91 50.5576L160.055 49.3948L158.92 50.4686L151.808 51.301L168.817 24.1684L167.732 23.2915L150.041 51.5044L131.114 53.7156L133.004 51.9301L134.094 51.803L134.016 50.9706L134.452 50.5576L133.597 49.3948L132.462 50.4686L125.349 51.301L142.364 24.1684L141.274 23.2915L123.582 51.5044L104.656 53.7156L106.546 51.9301L107.636 51.803L107.558 50.9706L107.994 50.5576L107.144 49.3948L106.009 50.4686L98.8909 51.301L115.905 24.1684L114.821 23.2915L97.124 51.5044L78.1972 53.7156L80.0871 51.9301L81.1774 51.803L81.0991 50.9706L81.5353 50.5576L80.6854 49.3948L79.5503 50.4686L72.4325 51.301L89.4471 24.1684L88.3623 23.2915L70.6712 51.5044L51.7388 53.7156L55.0769 50.5576L54.227 49.3948L49.3625 53.9952L48.0932 54.1414L48.1827 55.1136L30.8047 71.5457L31.6546 72.7085L49.9048 55.4504L69.6368 53.1501L69.1392 53.9444L70.2239 54.8213L71.4037 52.9404L77.7108 52.2033L75.8209 53.9952L74.5516 54.1414L74.6411 55.1136L57.2575 71.5457L58.113 72.7085L76.3632 55.4504L96.0952 53.1501L95.5976 53.9444L96.6823 54.8213L97.8621 52.9404L104.169 52.2033L102.279 53.9952L101.01 54.1414L101.1 55.1136L83.7159 71.5457L84.5714 72.7085L102.816 55.4504L122.554 53.1501L122.056 53.9444L123.141 54.8213L124.321 52.9404L130.628 52.2033L128.738 53.9952L127.468 54.1414L127.558 55.1136L110.174 71.5457L111.03 72.7085L129.274 55.4504L149.012 53.1501L148.514 53.9444L149.599 54.8213L150.779 52.9404L157.086 52.2033L155.196 53.9952L153.927 54.1414L154.011 55.1136L136.633 71.5457L137.488 72.7085L155.733 55.4504L175.47 53.1501L174.973 53.9444L176.058 54.8213L177.237 52.9404L183.544 52.2033L181.655 53.9952L180.385 54.1414L180.469 55.1136L163.091 71.5457L163.947 72.7085L182.191 55.4504L201.929 53.1501L201.431 53.9444L202.516 54.8213L203.696 52.9404L210.003 52.2033L208.107 53.9952L206.844 54.1414L206.928 55.1136L189.55 71.5457L190.399 72.7085L208.65 55.4504L228.387 53.1501L227.89 53.9444L228.974 54.8213L230.154 52.9404L239.922 51.803L239.788 50.2971Z" stroke="currentColor"/>
</svg>
