<svg width="279" height="97" viewBox="0 0 279 97" fill="none" xmlns="http://www.w3.org/2000/svg">
<g clip-path="url(#clip0_675_9273)">
<path d="M30.3382 55.2717C32.4942 56.4074 35.411 55.9235 37.7641 56.0132C40.535 56.1186 43.4596 56.3177 46.1162 55.3576C47.0464 55.0219 47.7322 54.4912 48.0909 53.7379C48.6072 52.9652 49.3049 51.2362 47.61 50.8616C44.9022 50.5103 31.9976 52.4773 29.207 52.3212C24.6782 52.4227 20.2322 50.9201 15.8768 50.963C15.8098 51.0021 15.7467 51.0372 15.6797 51.0762C16.3655 51.7865 29.6563 54.9127 30.3343 55.2717H30.3382Z" fill="currentColor"/>
<path d="M37.6456 58.913C34.7091 59.7287 31.6939 59.2448 29.5024 60.8449C29.0688 61.3289 28.9427 62.0079 28.8008 62.8392C28.8087 63.2139 28.8363 63.5574 28.8363 63.893C28.8363 64.2286 28.8087 64.5565 28.8441 64.7828C29.2107 64.615 29.731 64.4082 30.2591 64.2482C31.8515 63.772 33.5306 63.7447 35.2097 63.5613C37.752 63.2803 40.2627 62.7495 42.742 62.1289C46.5928 61.161 50.2545 59.3423 49.8761 54.7058C48.0039 55.9781 46.0213 56.8563 43.9717 57.5041C41.9182 58.152 39.7976 58.5696 37.6495 58.9169L37.6456 58.913Z" fill="currentColor"/>
<path d="M69.659 49.1638C67.3571 48.3599 64.5429 49.2653 62.2056 49.519C59.4504 49.8195 56.5258 50.0537 54.0466 51.3923C53.1755 51.8607 52.5764 52.4851 52.336 53.2813C51.9379 54.1243 51.5122 55.9352 53.2425 56.0562C55.974 56.0054 68.441 52.1651 71.2238 51.9114C75.6895 51.1465 80.309 51.9778 84.6131 51.2987C84.6723 51.2518 84.7314 51.205 84.7905 51.1582C84.0061 50.5571 70.3921 49.4136 69.6669 49.1599L69.659 49.1638Z" fill="currentColor"/>
<path d="M61.8916 46.6387C64.6744 45.4015 67.729 45.4367 69.6564 43.536C70.0112 42.9935 70.0388 42.3027 70.0506 41.4597C69.9875 41.0929 69.9087 40.7572 69.8575 40.4255C69.8062 40.0937 69.7865 39.7659 69.7156 39.5473C69.3805 39.7659 68.8957 40.0469 68.3952 40.285C66.8934 40.9875 65.2341 41.2607 63.6023 41.69C61.1309 42.3417 58.7266 43.2355 56.3696 44.2151C52.7039 45.7372 49.3576 48.075 50.4297 52.6022C52.0891 51.0723 53.9179 49.9093 55.8493 48.9687C57.7806 48.0281 59.8184 47.3022 61.8916 46.6426V46.6387Z" fill="currentColor"/>
<path d="M76.8529 38.1583C78.3271 40.0863 81.1768 40.8669 83.2697 41.9323C85.7371 43.1851 88.3031 44.5862 91.1213 44.8243C92.1066 44.9063 92.9541 44.715 93.6044 44.1803C94.4046 43.6964 95.7723 42.4202 94.3927 41.3742C92.0869 39.9224 79.5489 36.3201 77.0855 35.0127C72.9351 33.2135 69.5414 29.9976 65.5762 28.214C65.5013 28.2218 65.4265 28.2296 65.3516 28.2374C65.6708 29.1663 76.3918 37.5534 76.8529 38.1583Z" fill="currentColor"/>
<path d="M81.9258 44.5082C78.9145 44.0203 76.388 42.3226 73.7195 42.8612C73.1204 43.1188 72.7144 43.6808 72.2336 44.3755C72.0799 44.715 71.9616 45.0389 71.8197 45.3473C71.6778 45.6517 71.5123 45.9366 71.4492 46.1591C71.8513 46.1591 72.411 46.1903 72.9588 46.2644C74.6024 46.4986 76.1396 47.1738 77.7399 47.7085C80.1639 48.5163 82.6668 49.0822 85.1815 49.5545C89.0876 50.2882 93.1828 50.1633 94.8106 45.8C92.5719 46.1708 90.4001 46.1395 88.2638 45.8702C86.1275 45.601 84.0266 45.0936 81.9297 44.5121L81.9258 44.5082Z" fill="currentColor"/>
<path d="M115.109 49.0354C113.363 47.3455 110.427 46.9903 108.2 46.2449C105.571 45.3668 102.824 44.3599 100.001 44.5355C99.0121 44.5979 98.204 44.9141 97.6443 45.5346C96.927 46.1317 95.7642 47.5953 97.2817 48.4266C99.7807 49.5233 112.717 51.2444 115.35 52.1772C119.725 53.348 123.56 56.0331 127.75 57.2118C127.825 57.1923 127.896 57.1767 127.97 57.1571C127.517 56.2868 115.657 49.5662 115.109 49.0315V49.0354Z" fill="currentColor"/>
<path d="M109.143 43.5012C112.194 43.5403 114.949 44.8516 117.503 43.9267C118.055 43.5832 118.374 42.9705 118.745 42.2094C118.843 41.8504 118.914 41.5108 119.009 41.1908C119.103 40.8669 119.226 40.5624 119.253 40.3361C118.855 40.3946 118.295 40.4493 117.744 40.4532C116.08 40.4649 114.464 40.0199 112.801 39.7272C110.282 39.2862 107.72 39.0911 105.166 38.9935C101.193 38.8413 97.1648 39.5672 96.207 44.1179C98.367 43.4232 100.519 43.1344 102.671 43.0875C104.823 43.0407 106.979 43.232 109.139 43.5012H109.143Z" fill="currentColor"/>
<path d="M123.643 40.9791C124.723 43.153 127.387 44.4682 129.252 45.9123C131.447 47.6139 133.71 49.4833 136.449 50.2561C137.407 50.5254 138.282 50.502 139.027 50.1C139.91 49.776 141.51 48.7847 140.355 47.4968C138.357 45.6313 126.67 39.6912 124.49 37.9349C120.738 35.3747 118.011 31.5656 114.44 29.0561C114.365 29.0483 114.286 29.0405 114.211 29.0327C114.345 30.0045 123.308 40.2922 123.647 40.9752L123.643 40.9791Z" fill="currentColor"/>
<path d="M127.42 48.1876C124.538 47.1299 122.371 44.9795 119.631 44.9951C118.989 45.1317 118.48 45.6078 117.869 46.1972C117.653 46.5016 117.471 46.7982 117.27 47.0675C117.069 47.3407 116.853 47.5866 116.746 47.7895C117.144 47.8676 117.692 48.0042 118.22 48.1837C119.801 48.7262 121.184 49.6863 122.666 50.5176C124.905 51.7743 127.27 52.8124 129.659 53.753C133.375 55.2204 137.447 55.8839 139.907 51.9187C137.62 51.8523 135.48 51.4074 133.423 50.7322C131.365 50.057 129.387 49.1594 127.428 48.1837L127.42 48.1876Z" fill="currentColor"/>
<path d="M159.331 58.9983C157.936 57.004 155.102 56.0947 153.044 54.9355C150.62 53.5696 148.097 52.0553 145.275 51.6884C144.286 51.5596 143.427 51.7118 142.749 52.2153C141.921 52.6641 140.49 53.8779 141.83 54.9863C144.085 56.5396 156.536 60.7117 158.956 62.1323C163.052 64.1188 166.323 67.4908 170.233 69.45C170.308 69.45 170.387 69.4422 170.462 69.4383C170.182 68.4939 159.772 59.6267 159.331 58.9983Z" fill="currentColor"/>
<path d="M154.51 52.4182C157.517 53.0427 159.985 54.8536 162.689 54.4399C163.3 54.2096 163.733 53.6671 164.25 52.9919C164.419 52.6563 164.553 52.3402 164.711 52.0436C164.868 51.7469 165.046 51.4659 165.121 51.2513C164.715 51.2318 164.155 51.1771 163.607 51.0757C161.963 50.7673 160.45 50.0219 158.861 49.417C156.457 48.4998 153.966 47.8168 151.459 47.2353C147.565 46.326 143.438 46.2635 141.605 50.5449C143.872 50.2756 146.055 50.4044 148.196 50.7712C150.332 51.1381 152.425 51.7391 154.51 52.4182Z" fill="currentColor"/>
<path d="M166.675 50.257C168.445 51.9235 171.385 52.2318 173.628 52.9421C176.269 53.7812 179.032 54.7491 181.85 54.5306C182.835 54.4525 183.643 54.1286 184.191 53.4963C184.9 52.8875 186.04 51.4083 184.506 50.5965C181.992 49.5389 169.028 48.009 166.383 47.1152C161.992 46.0107 158.114 43.3842 153.908 42.2641C153.833 42.2836 153.762 42.3031 153.688 42.3226C154.153 43.189 166.111 49.7301 166.671 50.257H166.675Z" fill="currentColor"/>
<path d="M172.727 55.7053C169.676 55.7092 166.901 54.4408 164.359 55.4048C163.811 55.756 163.504 56.3766 163.141 57.1415C163.046 57.5045 162.979 57.8401 162.893 58.1641C162.802 58.488 162.688 58.7963 162.66 59.0227C163.058 58.9602 163.614 58.8978 164.17 58.8861C165.833 58.851 167.457 59.2725 169.124 59.5378C171.651 59.9437 174.213 60.0998 176.767 60.1584C180.74 60.2521 184.76 59.4676 185.647 54.9013C183.499 55.6272 181.351 55.9473 179.199 56.0292C177.047 56.1073 174.891 55.9473 172.723 55.7092L172.727 55.7053Z" fill="currentColor"/>
<path d="M206.207 54.8194C204.205 53.4339 201.252 53.5588 198.927 53.1841C196.191 52.7431 193.31 52.1928 190.559 52.8211C189.593 53.0436 188.848 53.4846 188.399 54.1871C187.788 54.8935 186.885 56.5249 188.521 57.0986C191.166 57.7777 204.216 57.3874 206.964 57.8831C211.473 58.3319 215.698 60.3613 220.026 60.8492C220.097 60.818 220.164 60.7906 220.235 60.7594C219.643 59.9711 206.837 55.2565 206.207 54.8194Z" fill="currentColor"/>
<path d="M199.41 50.3194C202.425 49.8667 205.358 50.7136 207.731 49.3906C208.219 48.9652 208.432 48.3056 208.673 47.4977C208.712 47.1269 208.728 46.7835 208.767 46.4479C208.807 46.1161 208.878 45.7922 208.87 45.5658C208.487 45.6868 207.944 45.8312 207.4 45.9249C205.76 46.2059 204.093 46.0264 202.402 46.0068C199.844 45.9756 197.286 46.1981 194.751 46.5181C190.81 47.0099 186.951 48.3758 186.754 53.0202C188.768 51.9859 190.845 51.3537 192.962 50.9595C195.078 50.5653 197.234 50.4092 199.414 50.3233L199.41 50.3194Z" fill="currentColor"/>
<path d="M209.027 44.464C211.218 45.5334 214.119 44.9636 216.472 44.9792C219.243 45.0026 222.176 45.1119 224.797 44.0737C225.715 43.7108 226.385 43.1605 226.724 42.3955C227.217 41.6072 227.859 39.8587 226.157 39.5348C223.437 39.2655 210.603 41.6228 207.809 41.5486C203.284 41.7867 198.795 40.4207 194.443 40.5924C194.38 40.6315 194.313 40.6705 194.25 40.7134C194.956 41.4003 208.337 44.1284 209.027 44.464Z" fill="currentColor"/>
<path d="M216.441 47.879C213.532 48.7805 210.501 48.3902 208.361 50.0528C207.943 50.5485 207.837 51.2315 207.723 52.0667C207.742 52.4413 207.782 52.7809 207.79 53.1165C207.801 53.4522 207.782 53.78 207.825 54.0064C208.184 53.8268 208.7 53.6044 209.224 53.4287C210.801 52.9058 212.48 52.8277 214.151 52.5935C216.686 52.2345 219.177 51.6296 221.636 50.9349C225.456 49.8538 229.062 47.9219 228.538 43.301C226.705 44.6279 224.75 45.5646 222.72 46.2749C220.69 46.9852 218.582 47.4653 216.441 47.879Z" fill="currentColor"/>
<path d="M248.142 37.1697C245.817 36.436 243.034 37.4234 240.7 37.7512C237.957 38.1376 235.04 38.4576 232.601 39.8704C231.745 40.3661 231.166 41.0061 230.949 41.8101C230.579 42.6648 230.204 44.4874 231.938 44.5538C234.666 44.4211 247.011 40.2061 249.782 39.8704C254.22 38.9689 258.867 39.6636 263.144 38.8518C263.203 38.8011 263.258 38.7542 263.317 38.7035C262.517 38.1259 248.871 37.396 248.142 37.1658V37.1697Z" fill="currentColor"/>
<path d="M240.299 34.8787C243.042 33.5596 246.097 33.5011 247.961 31.5419C248.3 30.9916 248.304 30.3008 248.292 29.4539C248.217 29.087 248.127 28.7553 248.067 28.4235C248.004 28.0918 247.973 27.7678 247.898 27.5493C247.571 27.7796 247.094 28.0762 246.601 28.3259C245.119 29.0753 243.472 29.3992 241.856 29.8754C239.404 30.6013 237.027 31.5653 234.702 32.6151C231.083 34.2465 227.812 36.6857 229.022 41.1779C230.634 39.5972 232.427 38.3835 234.327 37.3804C236.231 36.3813 238.241 35.593 240.295 34.8748L240.299 34.8787Z" fill="currentColor"/>
</g>
<defs>
<clipPath id="clip0_675_9273">
<rect width="278.1" height="96.1" fill="white"/>
</clipPath>
</defs>
</svg>
