<svg width="143" height="143" viewBox="0 0 143 143" fill="none" xmlns="http://www.w3.org/2000/svg">
<g clip-path="url(#clip0_675_843)">
<path d="M103.34 90.4732C93.9036 90.4732 85.8194 84.0951 83.8225 75.1957H18.6699V66.8044H83.8186C85.8194 57.905 93.8997 51.5269 103.336 51.5269C114.359 51.5269 123.324 60.2644 123.324 71C123.324 81.7357 114.356 90.4732 103.336 90.4732H103.34ZM20.6012 73.3142H85.4216L85.5645 74.0894C87.094 82.492 94.5679 88.5918 103.34 88.5918C113.297 88.5918 121.397 80.7009 121.397 71C121.397 61.2992 113.297 53.4083 103.34 53.4083C94.5679 53.4083 87.094 59.508 85.5645 67.9107L85.4216 68.6858H20.6012V73.3142Z" fill="currentColor"/>
</g>
<defs>
<clipPath id="clip0_675_843">
<rect width="142.1" height="142.1" fill="white"/>
</clipPath>
</defs>
</svg>
