<svg width="143" height="143" viewBox="0 0 143 143" fill="none" xmlns="http://www.w3.org/2000/svg">
<path d="M113.3 39.4309C112.053 40.7549 110.785 42.0563 109.52 43.3623L105.686 47.2372C103.123 49.8129 100.521 52.3502 97.9369 54.9034C95.3375 57.4429 92.7291 59.969 90.1563 62.5334C89.5092 63.1705 88.8599 63.8054 88.2106 64.4426C87.5613 65.0797 86.8319 65.8276 86.2582 66.3428C85.5489 67.0771 84.6149 68.0576 84.2925 68.2316C83.3964 69.2235 82.5402 70.0889 82.3468 70.1386C81.9932 70.6447 81.9643 70.6153 82.3157 70.1069C82.2756 70.1792 82.836 69.6415 83.6121 68.8688C83.5965 68.8236 84.1991 68.1684 84.8329 67.4838C85.0041 67.3459 85.62 66.7314 86.1137 66.223C86.4583 65.8592 86.9587 65.3283 87.3856 64.8967C87.8126 64.4652 88.2373 64.0359 88.662 63.6043C89.0867 63.1728 89.5092 62.739 89.9317 62.3029C92.4778 59.7091 95.0751 57.165 97.6656 54.6187L113.305 39.4354L113.3 39.4309Z" fill="currentColor"/>
<path d="M82.003 69.4495C81.6806 69.9849 81.2714 71.2638 81.585 70.8006C81.2714 71.2638 82.5634 70.9723 82.9458 70.4933C82.5634 70.9723 81.6806 69.9849 82.003 69.4495Z" fill="currentColor"/>
<path d="M121.407 36.1389C118.456 38.6582 115.325 40.9763 112.338 43.4571C109.448 45.8589 106.655 48.394 103.866 50.9471C102.69 52.0248 101.514 53.1026 100.337 54.178C99.7259 54.7384 99.0654 55.2535 98.5362 55.8975C98.2894 56.198 98.0581 56.5143 97.818 56.8216C97.5778 57.1288 97.3465 57.4316 97.0575 57.6643C96.9996 57.7095 96.8618 57.7999 96.8618 57.7999C96.8618 57.7999 96.924 57.6756 96.9529 57.6372C96.9952 57.5807 97.0419 57.5265 97.0841 57.47C97.1375 57.3977 97.1909 57.3231 97.2354 57.2441C97.2576 57.2034 97.3087 57.1288 97.2954 57.0791C97.2887 57.0498 97.242 57.0385 97.242 57.0385C97.242 57.0385 95.2007 59.5645 95.1651 59.1488C95.1295 58.733 94.6537 59.273 94.6537 59.273L96.6994 57.2893C96.6994 57.2893 96.5327 57.653 96.3993 57.8021C95.8923 58.3806 95.2385 58.7872 94.6515 59.273C94.6337 59.2888 94.6159 59.3024 94.5981 59.3182C94.0244 59.8017 93.4351 60.2626 92.8547 60.7371C91.6406 61.729 90.4376 62.7344 89.2457 63.7534C86.8731 65.7824 84.5449 67.8656 82.2656 69.9984C84.7294 68.0102 87.1999 66.0309 89.6771 64.0585C91.883 62.3029 94.0978 60.5564 96.297 58.7963C96.5771 58.5726 96.993 57.9942 96.993 57.9942L97.0797 58.1456C97.0797 58.1456 97.1953 57.9467 97.2531 57.8428C97.311 57.7389 97.5044 57.8428 97.5044 57.8428C97.5044 57.8428 97.3532 57.7863 97.3799 57.7163C97.4066 57.6462 97.52 57.6372 97.5556 57.7027C98.0492 57.2373 98.5451 56.7719 99.0387 56.3064C100.411 55.127 101.756 53.9182 103.077 52.6801C104.109 51.713 105.779 50.6082 106.154 49.1938C106.088 49.4355 106.515 49.3971 106.697 49.2277C111.507 44.7608 116.41 40.3956 121.4 36.1389H121.407Z" fill="currentColor"/>
<path d="M83.4644 70.4503C83.3332 70.6966 80.8427 71.5777 80.707 71.3247C80.756 71.6139 81.0784 70.9858 81.4964 69.9171C81.6009 69.847 81.8522 69.1602 81.9034 68.6089C81.9812 69.1421 83.3332 70.6966 83.4644 70.4503Z" fill="currentColor"/>
<path d="M85.109 28.1835C84.9912 30.0113 84.8422 31.8369 84.6999 33.6625L84.2151 39.1348C83.8816 42.7838 83.4924 46.426 83.1278 50.0681C82.7431 53.7103 82.3428 57.3502 81.9937 60.9946C81.9003 61.9052 81.8069 62.8157 81.7113 63.7263C81.6157 64.6368 81.5312 65.6874 81.4178 66.4579C81.3377 67.4837 81.2421 68.8438 81.1064 69.1873C81.0464 70.5316 80.9375 71.754 80.8218 71.9189C80.8707 72.538 80.8307 72.5334 80.7773 71.9144C80.7929 71.9957 80.8819 71.2162 80.9864 70.1204C80.9463 70.0955 80.993 69.2008 81.0464 68.2609C81.0909 68.0417 81.1732 67.1719 81.2287 66.4579C81.2621 65.954 81.311 65.2197 81.3644 64.612C81.4178 64.0042 81.4711 63.3964 81.5245 62.7886C81.5756 62.1808 81.6268 61.573 81.6735 60.963C81.9826 57.3118 82.365 53.6674 82.7364 50.0252L85.1113 28.179L85.109 28.1835Z" fill="currentColor"/>
<path d="M80.1194 71.6228C80.2128 72.2441 80.7065 73.4891 80.6531 72.931C80.7065 73.4891 81.5092 72.4226 81.5003 71.8081C81.5092 72.4249 80.2106 72.2464 80.1172 71.6228H80.1194Z" fill="currentColor"/>
<path d="M89.2352 20.3682C88.5681 24.225 87.6364 28.0456 86.9182 31.8957C86.2244 35.6237 85.6885 39.3879 85.1659 43.1679C84.9458 44.7608 84.7256 46.3559 84.5077 47.9488C84.3943 48.778 84.2142 49.6027 84.2164 50.4432C84.2164 50.8363 84.2409 51.2272 84.2498 51.6203C84.2586 52.0135 84.2742 52.3953 84.2008 52.7636C84.1853 52.8359 84.1364 52.9941 84.1364 52.9941C84.1364 52.9941 84.1052 52.8585 84.103 52.8088C84.1008 52.7365 84.103 52.6664 84.0963 52.5941C84.0919 52.5038 84.0852 52.4111 84.0696 52.323C84.0607 52.2778 84.0541 52.1874 84.0118 52.1558C83.9874 52.1377 83.9451 52.1603 83.9451 52.1603C83.9451 52.1603 83.9807 55.4297 83.6894 55.1337C83.3981 54.8377 83.3759 55.563 83.3759 55.563L83.6894 52.7071C83.6894 52.7071 83.7917 53.0957 83.785 53.2968C83.7605 54.0718 83.5204 54.8084 83.3759 55.563C83.3714 55.5856 83.367 55.6082 83.3625 55.6331C83.2291 56.3764 83.069 57.1175 82.9245 57.8586C82.622 59.4108 82.3374 60.9675 82.0683 62.5265C81.5347 65.6309 81.0699 68.7444 80.6719 71.8692C81.3012 68.7376 81.9416 65.6061 82.5909 62.4791C83.1691 59.6932 83.7605 56.9096 84.3343 54.1238C84.4076 53.769 84.3609 53.0551 84.3609 53.0551L84.5233 53.1161C84.5233 53.1161 84.4855 52.8879 84.4654 52.7704C84.4454 52.6529 84.6589 52.6077 84.6589 52.6077C84.6589 52.6077 84.5077 52.6619 84.4832 52.5919C84.4588 52.5218 84.5411 52.4405 84.61 52.4676C84.6945 51.7875 84.779 51.1074 84.8635 50.4274C85.1681 48.6289 85.435 46.8213 85.664 45.0116C85.8419 43.5972 86.4223 41.6586 85.8174 40.3301C85.9197 40.5583 86.2222 40.251 86.2555 40.0002C87.1138 33.4366 88.11 26.8911 89.2397 20.3704L89.2352 20.3682Z" fill="currentColor"/>
<path d="M81.8749 71.4332C81.9305 71.7088 80.5808 74.0089 80.3161 73.905C80.5363 74.0948 80.3851 73.4034 80.0315 72.3098C80.0671 72.1878 79.8269 71.4964 79.5156 71.04C79.9137 71.3993 81.9305 71.7066 81.8749 71.4309V71.4332Z" fill="currentColor"/>
<path d="M56.3984 37.9808C57.4658 39.4584 58.5065 40.9542 59.5516 42.4454L62.6425 46.9552C64.6949 49.9669 66.7007 53.0126 68.7264 56.0402C70.7366 59.0814 72.7313 62.1316 74.7704 65.1524C75.2751 65.9116 75.7799 66.6708 76.2825 67.4299C76.785 68.1891 77.3854 69.0499 77.7857 69.7142C78.3749 70.5524 79.1621 71.6573 79.2755 72.0075C80.0805 73.0762 80.7698 74.0839 80.7854 74.2872C81.2146 74.7301 81.1812 74.7527 80.7498 74.3121C80.8143 74.3641 80.3874 73.7088 79.7736 72.8005C79.7269 72.8073 79.1977 72.0911 78.6418 71.3387C78.5373 71.1421 78.0503 70.4214 77.6411 69.8385C77.3476 69.4318 76.9207 68.8375 76.5782 68.336C76.2358 67.8344 75.8911 67.335 75.5464 66.8335C75.2018 66.3319 74.8549 65.8348 74.5058 65.3377C72.4333 62.3395 70.4209 59.2983 68.3996 56.2639L56.3984 37.9785V37.9808Z" fill="currentColor"/>
<path d="M80.0569 74.5131C80.5217 74.9289 81.6891 75.5592 81.2933 75.1661C81.6869 75.5592 81.629 74.2171 81.231 73.7517C81.629 74.2171 80.5194 74.9289 80.0547 74.5131H80.0569Z" fill="currentColor"/>
<path d="M54.6183 29.2979C56.5462 32.6893 58.2495 36.223 60.1352 39.6415C61.9608 42.9515 63.9332 46.1848 65.9234 49.4202C66.7639 50.7849 67.6023 52.1496 68.4428 53.512C68.8786 54.2215 69.2656 54.9716 69.797 55.6133C70.0461 55.9138 70.3129 56.1985 70.5664 56.4922C70.8199 56.7859 71.0756 57.0683 71.2513 57.4005C71.2869 57.466 71.3469 57.6196 71.3469 57.6196C71.3469 57.6196 71.238 57.536 71.2046 57.4999C71.1579 57.4479 71.1134 57.3914 71.0645 57.3395C71.0022 57.2739 70.94 57.2062 70.871 57.1474C70.8355 57.118 70.771 57.0548 70.7198 57.057C70.6909 57.0593 70.6709 57.1045 70.6709 57.1045C70.6709 57.1045 72.7656 59.5853 72.3542 59.5492C71.9429 59.513 72.3854 60.0824 72.3854 60.0824L70.8177 57.6897C70.8177 57.6897 71.1401 57.9201 71.2624 58.0783C71.7338 58.6861 72.0162 59.4091 72.3831 60.0824C72.3943 60.1027 72.4054 60.1231 72.4165 60.1434C72.7856 60.8009 73.1303 61.4719 73.4905 62.1339C74.2421 63.5212 75.0071 64.8995 75.7876 66.2709C77.3419 68.998 78.9563 71.6867 80.6285 74.3415C79.1297 71.5308 77.6377 68.7156 76.1589 65.8958C74.8403 63.3834 73.5328 60.8664 72.2075 58.3562C72.0385 58.0376 71.5515 57.5202 71.5515 57.5202L71.7138 57.4592C71.7138 57.4592 71.5404 57.3101 71.4514 57.2333C71.3625 57.1564 71.4959 56.9825 71.4959 56.9825C71.4959 56.9825 71.4136 57.1226 71.3514 57.0842C71.2891 57.0457 71.3002 56.9305 71.3691 56.9057C71.0045 56.3295 70.6376 55.7534 70.2729 55.1772C69.3679 53.6001 68.4295 52.0434 67.4599 50.5047C66.7017 49.305 65.9212 47.441 64.6159 46.8196C64.8382 46.9281 64.876 46.4943 64.7426 46.2819C61.2492 40.6921 57.8693 35.03 54.6094 29.2957L54.6183 29.2979Z" fill="currentColor"/>
<path d="M81.2835 73.2231C81.4991 73.3971 81.9216 76.0406 81.6526 76.1355C81.9417 76.1378 81.388 75.704 80.4251 75.1007C80.3762 74.9832 79.7536 74.6127 79.2266 74.4658C79.758 74.4816 81.4992 73.3994 81.2812 73.2254L81.2835 73.2231Z" fill="currentColor"/>
<path d="M40.8164 97.1545C41.0121 96.5602 42.1039 96.1694 43.2046 95.7243C43.6249 95.243 44.739 94.7505 45.5639 94.2511C45.5172 94.2556 46.7425 93.51 47.921 92.7689L50.2781 91.2868C50.6717 91.0405 51.0675 90.7965 51.4633 90.5547C51.8591 90.313 52.2572 90.0712 52.6552 89.8317C53.091 89.5741 55.5682 88.3269 54.3296 88.9076C56.3354 87.909 57.405 87.3735 55.059 88.4173C57.5584 87.2854 58.757 86.7341 56.5755 87.7146C58.9104 86.6505 58.8303 86.6753 56.2709 87.7214C58.8303 86.6731 59.2261 86.5059 57.5784 87.204C59.2662 86.4878 59.1372 86.533 56.878 87.3757C59.2817 86.4833 59.3796 86.4449 57.5317 87.0775C59.4196 86.429 59.4774 86.4064 58.897 86.6279C59.5063 86.3974 59.5241 86.3974 60.3736 86.5285C59.5397 86.3997 59.5308 86.4019 60.1201 86.6211C59.5419 86.3884 59.5842 86.368 61.1785 85.5343C59.6664 86.307 59.6464 86.3138 60.945 85.5614C60.318 85.9184 60.0867 86.0404 60.2957 85.88C60.5048 85.7196 61.3831 85.331 62.2926 84.4995C61.412 85.3061 60.6115 85.6405 60.5715 85.6631C60.5314 85.6857 61.0273 85.3445 62.0569 84.6351C61.0829 85.2993 60.8583 85.4462 61.1674 85.2157C61.4765 84.9853 62.9641 84.608 63.48 83.546C63.0353 84.5583 61.979 84.7232 61.9123 84.6803C62.0324 84.6961 63.1887 84.5221 63.5712 83.5167C63.3333 84.4227 63.082 84.3459 63.0064 83.9211C63.7824 83.8578 65.1367 83.72 64.7542 82.7055C64.8765 83.9527 66.9311 83.241 66.1062 82.0029C66.9134 82.4434 67.5805 82.6671 67.7161 82.7078C68.1052 82.588 68.1253 82.1972 67.5226 81.4538C68.481 82.0819 69.1148 82.4208 69.1059 82.5858C69.6018 82.3802 69.6663 81.865 68.9791 81.0449C69.9976 81.786 70.4779 82.2446 70.3712 82.5225C70.9271 82.2107 71.085 81.5713 70.4579 80.7489C71.2406 81.5442 71.2873 82.2198 70.9182 82.6061C71.2273 82.3124 71.0939 81.7543 70.2889 80.9319C71.1139 81.5916 71.274 81.7069 70.9071 81.7046C71.3629 81.0245 71.4274 80.1411 70.8248 79.4316C71.8788 80.4054 72.1679 79.2509 71.8366 78.2455C72.7683 78.7199 73.1819 77.9178 73.0707 77.3417C73.8779 77.4795 74.3093 76.9553 74.3893 76.5983C74.6717 76.7655 74.6651 76.7701 74.3827 76.6029C74.6651 76.7701 75.3144 76.2865 75.1654 76.0764C75.3122 76.2843 75.3611 76.3611 75.2232 76.1623C75.3611 76.3611 74.734 76.8988 74.4694 76.7271C74.7362 76.9011 74.734 76.9011 74.4694 76.7271C74.7362 76.9011 74.7318 76.9034 74.4649 76.7294C74.3827 77.1112 73.9602 77.7213 73.1974 77.5337C73.3086 78.1777 72.9195 79.0634 72.0434 78.4714C72.3814 79.5808 72.1256 80.7353 71.1361 79.6147C71.7387 80.349 71.6609 81.2505 71.2295 81.9283C71.592 81.8718 71.4808 81.6662 70.7047 80.9748C71.4674 81.8063 71.523 82.5338 71.2073 82.9315C71.5252 82.6152 71.4585 81.9803 70.6891 81.1262C71.4585 81.9803 71.4919 82.6784 71.1539 83.0331C71.4319 82.6875 71.3207 82.0142 70.5335 81.1556C71.1806 82.0413 71.0472 82.7598 70.5424 83.0806C70.6158 82.8095 70.1399 82.3011 69.0948 81.4854C69.8442 82.3824 69.8308 82.9631 69.375 83.1823C69.3638 83.0218 68.719 82.64 67.6872 81.9215C68.3988 82.7552 68.4588 83.1981 68.0919 83.3269C67.9607 83.2839 67.2514 83.0196 66.3285 82.4796C66.9111 83.18 66.6576 83.6974 66.244 83.8556C65.8327 84.0137 65.2323 83.8285 65.0388 83.1778C65.6726 84.3436 63.6446 84.3685 62.6973 84.565C62.5483 85.0372 62.6573 85.1909 63.0842 84.4408C62.4794 85.3152 61.1051 85.5411 61.014 85.627C60.9228 85.7128 61.9679 85.6044 62.6795 84.9401C61.9146 85.6518 60.6471 85.8823 60.3669 86.0562C60.0867 86.2302 60.2713 86.2302 60.8605 86.1398C59.6131 86.3839 59.5975 86.4087 60.5626 87.03C59.5575 86.4087 59.553 86.411 60.4603 87.1408C59.553 86.411 59.5464 86.4087 60.3091 87.1249C59.533 86.4087 59.5174 86.4087 59.0349 87.2153C59.4885 86.4155 59.4374 86.4539 57.763 87.6265C59.3996 86.4697 59.3129 86.5262 57.1537 87.9022C59.1839 86.6008 59.2995 86.5239 57.7741 87.5475C59.2595 86.5465 58.8993 86.7747 56.5511 88.2433C58.8993 86.7747 58.9704 86.7273 56.8046 88.0965C58.8214 86.8131 57.7029 87.4955 55.3458 88.9234C57.5495 87.5791 56.54 88.1846 54.5965 89.3437C55.7861 88.6139 53.3757 90.0396 52.9332 90.2972C52.5329 90.5299 52.1326 90.7626 51.7324 90.9976C51.3321 91.2325 50.9319 91.4653 50.5338 91.7003C49.7355 92.1702 48.9372 92.6424 48.1367 93.1124C47.3362 93.5823 46.4957 94.0523 45.7285 94.511C44.8857 94.9674 43.7516 95.417 43.2958 95.8643C42.1862 96.2688 41.0521 96.6122 40.8275 97.1477L40.8164 97.1545Z" fill="currentColor"/>
<path d="M75.5218 77.1994C75.624 77.4005 76.3601 75.584 76.4579 75.2744C76.3601 75.584 74.6212 75.6743 74.3477 75.4145C74.6212 75.6766 75.624 77.4028 75.5218 77.2017V77.1994Z" fill="currentColor"/>
<path d="M66.3739 117.799C66.1471 117.216 66.7386 116.204 67.2967 115.144C67.3145 114.502 67.8571 113.395 68.1729 112.473C68.1395 112.507 68.6065 111.136 69.0401 109.798L69.9073 107.123C70.0541 106.678 70.2009 106.233 70.3521 105.788C70.5033 105.343 70.6545 104.9 70.8079 104.457C70.9791 103.976 72.0887 101.402 71.5061 102.656C72.409 100.582 72.8915 99.4728 71.753 101.805C72.9515 99.3056 73.5208 98.0991 72.4712 100.275C73.5875 97.9342 73.5408 98.0042 72.2422 100.481C73.5408 98.0065 73.7387 97.6201 72.916 99.2311C73.7543 97.5795 73.6853 97.6992 72.4868 99.8185C73.7632 97.5659 73.8143 97.471 72.7981 99.161C73.8343 97.4303 73.8632 97.3761 73.5608 97.9251C73.8832 97.3513 73.8944 97.34 74.6282 96.8858C73.9077 97.3309 73.901 97.34 74.4925 97.1231C73.9033 97.3241 73.921 97.2812 74.6148 95.6002C73.9455 97.1795 73.9344 97.1999 74.4547 95.7742C74.199 96.4565 74.0989 96.7028 74.159 96.443C74.219 96.1831 74.6437 95.311 74.815 94.0819C74.6504 95.2771 74.2479 96.0544 74.2346 96.0973C74.2212 96.1402 74.3836 95.555 74.7238 94.3395C74.3991 95.485 74.3191 95.7426 74.4103 95.3652C74.5014 94.9879 75.4042 93.7249 75.1241 92.5749C75.4242 93.639 74.7193 94.457 74.6393 94.4682C74.7416 94.4005 75.5154 93.5125 75.173 92.4958C75.5621 93.3453 75.322 93.4493 74.9973 93.1736C75.551 92.6178 76.5027 91.6304 75.5666 91.1017C76.4494 91.9761 77.5745 90.0895 76.1581 89.6806C77.0542 89.493 77.708 89.2264 77.8391 89.1677C78.0637 88.822 77.828 88.5102 76.8963 88.3339C78.0282 88.1893 78.7286 88.0357 78.8265 88.1667C79.0755 87.6832 78.7998 87.2472 77.7546 87.0709C79.0043 86.9738 79.6603 87.0099 79.7559 87.2946C79.985 86.6936 79.7004 86.0994 78.6997 85.8802C79.8026 85.9796 80.2652 86.4654 80.2274 87.0032C80.2785 86.5761 79.8227 86.2349 78.6864 86.131C79.7359 86.0971 79.9316 86.0813 79.6492 86.3185C79.5669 85.5006 79.0577 84.7799 78.1482 84.6308C79.5736 84.6873 79.0644 83.6163 78.1727 83.0627C79.1867 82.8165 78.9955 81.933 78.5463 81.5647C79.2512 81.1422 79.2512 80.4622 79.0844 80.1345C79.4068 80.0781 79.4046 80.0871 79.0822 80.1436C79.4046 80.0871 79.5936 79.294 79.349 79.2285C79.5936 79.2918 79.6781 79.3189 79.4469 79.2556C79.6781 79.3189 79.5403 80.1391 79.2267 80.1797C79.5403 80.1391 79.5403 80.1413 79.2267 80.182C79.5403 80.1413 79.538 80.1458 79.2267 80.1888C79.4046 80.5345 79.4669 81.2801 78.7642 81.6325C79.2556 82.055 79.518 82.9859 78.4751 83.1034C79.438 83.7338 79.9694 84.7844 78.504 84.572C79.4291 84.7415 79.9405 85.4826 80.0406 86.2847C80.283 86.0045 80.0673 85.9209 79.0355 85.8983C80.1473 86.0361 80.6476 86.558 80.6588 87.0687C80.701 86.6191 80.2496 86.1762 79.12 86.0248C80.2496 86.1762 80.7166 86.6891 80.6832 87.1816C80.6765 86.7365 80.1673 86.2914 79.0199 86.1491C80.0762 86.4044 80.4297 87.0438 80.2429 87.62C80.1273 87.3647 79.4424 87.2856 78.1238 87.3443C79.2645 87.5432 79.6225 87.9973 79.4113 88.4605C79.3001 88.343 78.5663 88.474 77.321 88.596C78.3928 88.77 78.7197 89.0705 78.5218 89.4094C78.3928 89.4614 77.6835 89.7235 76.6361 89.9133C77.5256 90.0692 77.659 90.6318 77.4411 91.0226C77.2254 91.4113 76.6495 91.6621 76.0891 91.2915C77.3121 91.7705 75.7734 93.1149 75.173 93.8831C75.3575 94.3417 75.5377 94.3892 75.3909 93.5351C75.4821 94.5993 74.5704 95.6702 74.5548 95.7968C74.5392 95.9233 75.273 95.1574 75.3976 94.1836C75.2619 95.2274 74.4369 96.2328 74.3302 96.5492C74.2235 96.8655 74.368 96.7435 74.7616 96.2916C73.9589 97.2948 73.9655 97.3219 75.0974 97.166C73.9344 97.3467 73.9322 97.3513 75.0885 97.3174C73.9322 97.3513 73.9255 97.3558 74.9617 97.4032C73.9144 97.3626 73.9033 97.3716 74.0411 98.3047C73.8832 97.3964 73.8677 97.4574 73.3273 99.4502C73.8477 97.4959 73.8188 97.5953 73.0338 100.06C73.7654 97.7376 73.8054 97.6043 73.2851 99.3825C73.7898 97.645 73.6587 98.0562 72.7892 100.713C73.6587 98.0539 73.6853 97.9726 72.8915 100.435C73.6231 98.1353 73.1984 99.3892 72.2978 102.021C73.1361 99.5519 72.7447 100.677 71.9887 102.833C72.4379 101.497 71.4928 104.163 71.3171 104.649C71.157 105.09 70.9991 105.528 70.8413 105.969C70.6834 106.409 70.5255 106.85 70.3676 107.29C70.0541 108.172 69.7406 109.055 69.4248 109.938C69.109 110.82 68.7644 111.73 68.4642 112.582C68.1084 113.481 67.5236 114.568 67.4546 115.207C66.8609 116.242 66.2094 117.245 66.3761 117.803L66.3739 117.799Z" fill="currentColor"/>
<path d="M80.3366 79.843C80.5412 79.9311 79.9563 78.0581 79.8363 77.7576C79.9586 78.0581 78.6822 79.2623 78.3086 79.242C78.6822 79.2646 80.5434 79.9311 80.3388 79.8453L80.3366 79.843Z" fill="currentColor"/>
<path d="M99.0062 116.923C98.4637 116.625 98.2769 115.463 98.0345 114.286C97.6409 113.782 97.3585 112.583 97.0161 111.668C97.0116 111.715 96.5024 110.359 95.9887 109.054C95.4751 107.748 94.9614 106.439 94.9614 106.439C94.7924 106.003 94.6234 105.565 94.4566 105.127C94.2898 104.688 94.1253 104.25 93.963 103.809C93.7895 103.328 93.0112 100.633 93.3581 101.975C92.7377 99.7945 92.4064 98.6331 93.009 101.159C92.3464 98.4614 92.0195 97.1668 92.591 99.5188C91.9661 96.9973 91.975 97.0809 92.5465 99.8261C91.975 97.0832 91.8816 96.6584 92.2707 98.4298C91.8683 96.6155 91.8905 96.7556 92.3152 99.1596C91.8683 96.5997 91.846 96.4935 92.1396 98.4524C91.8371 96.4505 91.826 96.3873 91.9416 97.0086C91.826 96.3579 91.826 96.3421 92.1017 95.5151C91.8305 96.3263 91.8327 96.3376 92.1484 95.7863C91.8238 96.324 91.8105 96.2788 91.279 94.5391C91.766 96.1862 91.7682 96.2088 91.2657 94.7763C91.5014 95.4654 91.5814 95.7185 91.4613 95.4813C91.3413 95.244 91.1167 94.2973 90.4696 93.2444C91.0989 94.2657 91.2834 95.1243 91.299 95.1672C91.3146 95.2101 91.07 94.6543 90.5607 93.502C91.0366 94.591 91.1367 94.8418 90.9677 94.4939C90.7987 94.1437 90.6919 92.5892 89.7491 91.8888C90.6519 92.5079 90.6297 93.5946 90.5763 93.6557C90.6119 93.5382 90.6452 92.352 89.738 91.7939C90.5741 92.1893 90.4562 92.4288 90.0315 92.4288C90.1049 91.6425 90.2072 90.262 89.1576 90.4699C90.3873 90.5648 90.056 88.3844 88.7107 88.9945C89.2777 88.2647 89.6112 87.6343 89.6735 87.5055C89.6268 87.0943 89.251 87.0085 88.4238 87.4829C89.1999 86.6334 89.6379 86.0573 89.7958 86.0934C89.6824 85.5602 89.1932 85.4065 88.2793 85.9533C89.1732 85.0631 89.7002 84.6632 89.9515 84.8168C89.7469 84.2068 89.1532 83.9357 88.2481 84.4237C89.1554 83.7798 89.818 83.8498 90.1294 84.2859C89.8981 83.9244 89.3333 83.9628 88.3971 84.6248C89.1798 83.9131 89.3199 83.773 89.2532 84.1413C88.6729 83.5674 87.8279 83.3482 87.0362 83.8295C88.1636 82.9438 87.094 82.4535 86.0623 82.6116C86.6827 81.7621 85.9778 81.2086 85.4018 81.2199C85.6754 80.4358 85.244 79.9139 84.9104 79.7716C85.1217 79.5185 85.1261 79.5253 84.9126 79.7806C85.1239 79.5276 84.7681 78.7932 84.5391 78.904C84.7681 78.7932 84.8481 78.7571 84.6325 78.861C84.8504 78.7571 85.2617 79.4778 85.0483 79.7128C85.2617 79.4778 85.264 79.4778 85.0483 79.7151C85.2617 79.4778 85.264 79.4846 85.0483 79.7219C85.4041 79.871 85.9222 80.3997 85.6086 81.1295C86.2513 81.1295 87.0429 81.6717 86.318 82.4467C87.4521 82.2998 88.5261 82.7585 87.2697 83.5538C88.0858 83.0794 88.9464 83.3121 89.529 83.8634C89.5379 83.4928 89.3199 83.5674 88.515 84.2249C89.4534 83.6058 90.1672 83.6758 90.4985 84.0622C90.2472 83.6894 89.6201 83.6465 88.6595 84.2655C89.6201 83.6442 90.3028 83.7323 90.5897 84.13C90.3028 83.7933 89.6313 83.7865 88.664 84.426C89.6357 83.9311 90.3095 84.191 90.5318 84.7513C90.2828 84.6316 89.7069 85.0179 88.7351 85.9239C89.7335 85.3297 90.2961 85.445 90.4273 85.9375C90.2694 85.9194 89.7869 86.5001 88.913 87.4061C89.8447 86.839 90.285 86.8548 90.3473 87.2457C90.2828 87.37 89.9048 88.032 89.2199 88.8634C90.0004 88.4025 90.4585 88.746 90.5385 89.1865C90.6186 89.6271 90.3362 90.1942 89.6713 90.2756C90.9121 89.844 90.583 91.8775 90.6074 92.8603C91.0388 93.0908 91.2078 93.0095 90.5541 92.4514C91.2968 93.2083 91.2768 94.6227 91.3457 94.7289C91.4146 94.8351 91.4902 93.7709 90.9699 92.9417C91.5258 93.8319 91.5303 95.1378 91.6503 95.4496C91.7704 95.7614 91.8016 95.5739 91.8171 94.9706C91.8371 96.263 91.8594 96.2811 92.6265 95.4225C91.8483 96.3195 91.8527 96.3263 92.7155 95.5445C91.8505 96.3263 91.8483 96.3331 92.6732 95.6936C91.8438 96.3466 91.8416 96.3624 92.5398 96.986C91.8438 96.3918 91.8727 96.4505 92.7177 98.3281C91.8816 96.4912 91.9194 96.5861 92.8778 98.9856C91.9683 96.7284 91.915 96.5997 92.6421 98.3033C91.9305 96.6426 92.0884 97.0425 93.1046 99.6476C92.0884 97.0425 92.0551 96.9634 93.0068 99.3697C92.1129 97.1284 92.5798 98.3665 93.556 100.972C92.6354 98.5337 93.0468 99.6499 93.834 101.794C93.3314 100.477 94.2965 103.136 94.4677 103.624C94.6234 104.065 94.779 104.505 94.9369 104.946C95.0948 105.387 95.2527 105.827 95.4106 106.268C95.7285 107.149 96.0465 108.03 96.3623 108.911C96.6781 109.792 96.9894 110.716 97.2985 111.564C97.5942 112.486 97.8321 113.699 98.1879 114.234C98.3881 115.416 98.5215 116.609 99.004 116.928L99.0062 116.923Z" fill="currentColor"/>
<path d="M85.6924 78.7276C85.9059 78.6598 84.2715 77.6069 83.9891 77.4556C84.2737 77.6069 84.058 79.3625 83.7578 79.5907C84.058 79.3625 85.9059 78.6598 85.6924 78.7276Z" fill="currentColor"/>
<path d="M58.744 75.6648C57.6966 75.9224 57.2763 76.0398 57.1963 76.0082C57.0139 75.9178 57.1585 75.6806 57.6699 75.0367C57.0251 75.6309 56.5158 75.8727 55.8954 75.7913C55.6553 75.7303 55.2395 75.3259 54.6947 74.2368C55.0949 75.2852 55.0882 75.7009 54.4945 75.832C54.6769 75.9698 54.1565 75.8252 52.9735 75.4524C54.29 76.067 53.8852 75.9291 52.5822 75.5405C53.2648 75.7552 53.0847 75.7461 52.4198 75.6829C52.6511 75.6625 52.0574 75.5224 51.6215 75.4908C51.3458 75.3259 50.3407 75.0819 50.2273 75.1022C49.5269 74.8537 48.862 74.6819 49.5736 74.7294C48.6018 74.5283 47.9036 74.386 48.2772 74.456C47.3743 74.1465 47.0341 73.9296 47.3944 73.6742C46.7384 73.8482 45.9467 73.4912 45.3997 72.9445C44.4747 72.644 43.6119 72.0542 42.867 71.4668C44.5436 72.8157 44.5303 72.9445 43.9899 72.6033C43.8165 72.6801 43.0271 72.2531 42.3711 71.8577C42.927 72.2373 43.9833 72.7547 42.38 72.0316C42.9292 72.3525 43.8143 72.7614 44.0366 72.8089C44.6059 73.1704 44.6059 73.2201 42.4956 72.3841C43.3784 72.7953 43.5007 72.9173 42.6379 72.827C43.772 73.0755 43.9477 73.1229 43.1071 72.9964C44.1167 73.3014 44.9594 73.3286 43.3784 74.099C43.9655 73.7081 44.7104 73.9092 45.6088 74.4696C46.0379 74.4831 46.7717 74.9621 47.212 75.5134C46.9007 74.9011 46.4004 74.8243 46.6005 76.0624C46.476 74.8875 46.625 74.8378 47.55 75.7597C46.7206 74.9418 46.705 75.1225 47.1876 76.3336C46.745 75.1587 46.8184 75.0321 47.7524 75.832C46.8029 74.9779 46.7806 75.1429 47.3743 76.3629C46.8874 75.2829 47.7279 75.6038 48.7397 76.4172C47.7791 75.6648 47.0097 75.4208 47.6078 76.4375C47.0008 75.4027 47.7546 75.6219 48.7197 76.3765C47.7924 75.6309 47.0875 75.4298 47.7568 76.4262C47.1431 75.484 47.9325 75.7574 48.8153 76.4691C47.9503 75.6874 47.1787 75.3485 47.8702 76.2929C47.1075 75.1948 47.7635 75.3485 48.7241 76.1483C47.7724 75.362 47.132 75.2219 47.9014 76.3042C47.2187 75.3959 47.997 75.7529 48.8264 76.5075C47.9881 75.8297 47.1987 75.5496 47.808 76.4398C47.1342 75.475 47.8235 75.6625 48.7263 76.381C47.7924 75.658 47.0653 75.4614 47.6946 76.4556C47.0964 75.5134 47.8747 75.7778 48.7753 76.4827C47.8235 75.7122 46.9741 75.3688 47.4922 76.3878C46.8473 75.1948 46.8496 75.0096 47.7968 75.8433C46.874 75.0389 46.9007 75.2581 47.5545 76.4036C47.0119 75.4004 47.7968 75.6625 48.7263 76.3765C47.8346 75.6716 47.1742 75.5179 47.8524 76.4669C47.2743 75.6648 48.0859 75.9992 48.842 76.6183C48.1393 75.9721 48.0325 75.9269 48.6352 76.6454C48.2349 76.3381 47.5567 75.7167 47.8836 75.8365C47.1253 75.1203 47.3499 75.0819 48.842 76.268C48.0837 75.6987 48.3061 75.7845 49.0777 76.3697C48.4528 75.667 48.524 75.6015 49.2867 76.1054C48.5796 75.4004 48.6263 75.2739 49.5135 75.6038C48.6752 75.4253 48.6774 75.667 49.2622 76.2771C48.6174 75.7891 48.4995 75.6557 49.2222 75.9698C48.4728 75.6896 48.6085 76.0195 49.1221 76.6341C48.7263 76.3358 48.753 76.3584 49.1555 76.6476C48.693 76.076 48.5974 75.7461 49.3334 75.893C48.6218 75.6761 48.7975 76.0173 49.3023 76.6047C49.0265 76.4352 49.28 76.6137 49.6603 76.9481C49.6603 76.677 50.3274 76.3991 50.9144 75.8749C50.5408 76.3675 50.3985 76.6996 50.5497 77.0069C50.6298 76.8465 51.3125 76.7425 51.6238 76.616C51.2769 76.7877 50.5809 76.9391 50.5408 77.1696C50.4519 76.9233 50.9166 76.7244 51.3747 76.3742C50.7788 76.8148 50.0783 77.0973 50.2006 77.4362C50.1539 77.2419 51.0679 77.1447 51.6949 76.9639C51.2324 77.1289 50.6454 77.2554 50.672 77.5175C50.7699 77.3187 51.5459 77.278 51.8817 77.3029C51.5459 77.278 50.7766 77.3232 50.6832 77.5491C50.672 77.3164 51.3036 77.2554 51.7728 77.2012C51.1435 77.3029 50.7721 77.3661 50.9856 77.5943C51.4348 77.4023 52.7601 77.3774 53.2582 77.6395C52.9179 77.4113 52.4043 77.4384 52.1063 77.6305C52.5043 77.4723 53.1114 77.4791 53.336 77.7615C53.1025 77.5107 51.9662 77.6237 51.3036 78.0688C51.0612 78.123 50.8722 78.6879 51.2191 79.5668C50.9033 78.9997 50.3007 78.6336 50.0805 78.7534C49.8337 78.4439 49.6492 78.5184 49.7781 78.9342C49.6202 78.8619 49.5713 79.1081 49.6202 79.4922C49.5647 79.5623 49.6781 79.9396 49.8849 80.1791C49.6914 79.9283 49.6069 79.612 49.6736 79.6007C49.6469 79.3386 49.7448 79.2844 49.8715 79.4651C49.8182 79.3386 49.8382 79.4742 49.8871 79.7249C49.9093 79.7724 50.0205 80.039 50.1473 80.2401C50.0049 80.0955 49.876 79.8989 49.8626 79.847C49.7826 79.6933 49.7626 79.612 49.8337 79.7046C49.6247 79.5826 49.4446 79.6029 49.4868 79.7475C49.3467 79.8221 49.4223 80.0842 49.7003 80.2062C49.3423 80.0616 49.1511 79.7498 49.2645 79.6707C49.1577 79.4809 49.3201 79.429 49.6158 79.5577C49.2578 79.4267 49.0065 79.4606 49.0866 79.6526C48.922 79.7317 49.091 80.0526 49.4913 80.1723C49.0755 80.0503 48.8553 79.8695 48.9576 79.8537C48.8086 80.0187 48.9776 80.3779 49.4068 80.4118C48.9687 80.4208 48.7908 80.1045 48.9531 79.8763C48.8664 79.8628 49.1177 79.8695 49.5513 79.8763C49.1288 79.8018 48.8842 79.7091 48.991 79.7543C48.8464 79.8334 49.0554 80.0887 49.4891 80.1655C49.0843 80.0706 48.9109 79.7972 49.071 79.7204C48.9843 79.6255 49.24 79.673 49.6225 79.7769C49.2889 79.7295 49.111 79.7634 49.2267 79.8266C49.0932 79.9961 49.2778 80.2672 49.6692 80.2988C49.2711 80.2853 49.0821 80.0367 49.2155 79.8605C49.0932 79.8424 49.2711 79.8379 49.6202 79.8605C49.22 79.7927 48.962 79.7249 49.0532 79.7701C48.8931 79.8718 49.071 80.1203 49.4868 80.1768C49.0599 80.0503 48.8331 79.8582 48.9309 79.847C48.7797 80.0119 48.9465 80.387 49.369 80.4344C48.9065 80.4593 48.693 80.2446 48.7641 80.0639C48.6396 80.335 48.7886 80.6536 49.1733 80.6152C48.7397 80.8117 48.5618 80.6671 48.524 80.4005C48.484 80.7846 48.5907 81.067 48.733 81.058C48.5507 81.1936 48.4261 81.0761 48.2349 80.8298C48.3505 81.18 48.4061 81.4195 48.2282 81.5483C48.246 81.5957 47.8191 82.2306 47.2053 83.0259C46.5916 83.8213 45.8 84.8086 45.124 85.6378C44.448 86.4693 43.8854 87.1449 43.7298 87.3211C44.0388 87.2533 50.9478 78.9274 43.6186 88.0192C52.3954 77.644 43.7498 88.2949 43.5941 88.4982C44.826 87.1426 48.0837 82.9649 43.8054 89.1828C44.1345 88.7852 47.5055 83.4959 46.8718 85.9813C47.0742 85.6672 47.5967 84.716 48.1526 83.8122C48.7085 82.9085 49.2978 82.0567 49.638 81.9437C49.5647 81.6522 49.9538 81.3201 50.463 80.9495C50.6454 80.7281 51.1412 80.3124 51.328 80.1362C51.8573 79.6978 52.4109 79.2437 52.4332 79.1895C53.0002 78.7398 53.3449 78.4574 53.0558 78.6856C53.7073 78.1885 53.8408 78.1162 53.2315 78.7308C54.2477 77.7638 54.5657 77.4588 53.5762 78.593C54.5034 77.7028 54.9459 77.3119 54.8859 77.6124C55.4574 77.3729 55.6308 77.7638 55.7598 78.95C55.7465 77.6621 55.9599 77.0814 56.189 76.9911C56.6871 76.4917 57.2563 76.3946 58.1302 76.485C57.3564 76.2952 57.1207 76.2342 57.2652 76.2093C57.2875 76.0511 57.7077 75.9246 58.7528 75.667L58.744 75.6648Z" fill="currentColor"/>
<path d="M124.127 54.6017C123.624 54.7486 123.173 54.979 123.315 54.9067C122.688 55.1575 122.39 55.2615 122.657 55.1056C122.132 55.3112 122.063 55.3021 122.53 55.022C122.212 55.144 122.537 54.9384 123.313 54.4865C122.655 54.8118 121.803 55.2389 121.874 55.1417C121.347 55.44 121.114 55.5529 121.287 55.4196C120.978 55.6185 121.056 55.58 121.521 55.3089C120.936 55.6298 120.333 55.9009 120.482 55.7698C119.933 55.9845 119.657 56.0749 120.022 55.8918C119.586 56.1878 119.54 56.2036 119.949 55.9077C119.673 56.1042 120.151 55.8286 120.749 55.3744C120.142 55.806 119.684 56.0455 119.94 55.7585C119.553 56.0568 119.64 55.9506 120.007 55.4467C119.744 55.8173 120.04 55.5755 120.431 55.0559C120.385 55.2118 120.811 54.7734 121.21 54.1928C120.869 54.7079 120.562 55.031 120.594 54.8616C120.258 55.336 119.98 55.562 120.173 55.1779C119.66 55.8986 119.313 56.1811 119.553 55.7698C119.284 56.2398 119.562 56.0839 120.262 55.449C119.753 55.9325 119.239 56.0432 119.375 55.8015C118.944 56.4567 119.097 55.9212 119.146 55.6456C119.017 56.0364 118.955 56.0455 118.875 55.6433C118.948 55.9664 119.05 55.9009 119.279 55.4083C119.179 55.7653 119.382 55.5236 119.709 54.7667C119.373 55.5145 119.159 55.7472 119.215 55.3428C119.001 55.8512 118.886 55.8964 118.688 55.4332C118.839 55.928 118.61 56.2624 118.205 55.4671C118.543 55.9935 118.574 55.7427 118.359 54.8932C118.577 55.3857 118.557 54.6627 118.334 53.7883C118.552 54.6627 118.568 55.3812 118.334 54.8841C118.552 55.7337 118.514 55.9777 118.128 55.44C118.546 56.2353 118.539 56.3234 118.081 55.7811C118.49 56.2308 118.537 56.1539 118.332 55.5168C118.568 55.9687 118.577 55.5981 118.343 54.674C118.563 55.5959 118.541 55.9664 118.245 55.51C118.47 56.1494 118.399 56.2262 117.863 55.7902C118.381 56.3257 118.223 56.2195 117.42 55.519C118.043 55.9754 117.892 55.7088 117.225 54.9542C117.718 55.3677 117.316 54.6989 116.771 54.012C117.325 54.9361 117.512 55.379 116.751 54.8638C117.316 55.3722 116.869 54.9949 116.171 54.4571C116.504 54.5972 116.366 54.6582 115.873 54.3396C116.093 54.3532 115.871 54.1589 115.437 53.8674C115.895 54.726 114.421 53.5669 113.827 53.4449C113.476 53.4336 112.766 53.0088 112.337 52.9478C111.479 52.8281 110.752 52.7242 110.236 52.6518L109.422 52.5366C109.422 52.5366 109.802 52.8462 110.374 53.3116C110.658 53.5443 110.992 53.8154 111.348 54.1069C111.703 54.3984 112.124 54.7147 112.466 55.0175C112.882 55.3315 114.425 55.9416 113.585 55.928C114.363 56.1585 115.53 56.3844 115.228 56.5064C116.08 56.6329 115.75 56.7143 114.559 56.7233C115.201 56.7323 115.944 56.7436 115.475 56.8114C116.369 56.7843 116.884 56.7798 116.133 56.8792C117.24 56.8182 117.516 56.8159 116.544 57.0057C117.423 56.8611 117.245 56.8973 116.262 57.0826C117.02 56.9402 116.46 57.0396 115.539 57.2023C116.471 57.0441 117.105 56.938 116.369 57.0984C117.385 56.9041 117.618 56.8657 116.791 57.0645C117.812 56.8476 117.801 56.8634 116.78 57.1458C117.601 56.9267 117.347 56.999 116.344 57.2723C117.058 57.078 116.4 57.2588 115.508 57.4983C116.4 57.2588 117.06 57.078 116.346 57.2769C117.349 57.0035 117.605 56.9357 116.791 57.1729C117.812 56.8905 117.836 56.8973 116.856 57.243C117.665 56.9809 117.454 57.0667 116.484 57.4282C117.2 57.182 116.618 57.417 115.728 57.7626C116.611 57.426 117.138 57.2204 116.415 57.4938C117.358 57.1413 117.529 57.0803 116.709 57.417C117.645 57.0713 117.474 57.2972 116.506 57.853C117.218 57.5164 116.811 57.783 116.013 58.2665C116.484 58.0451 115.846 58.4789 115.283 58.8539C116.084 58.3523 116.669 58.0134 116.104 58.4405C116.753 58.0993 116.391 58.4789 115.81 59.0256C116.008 59.0279 115.455 59.6176 115.019 60.135C115.859 59.4866 114.863 61.0659 114.719 61.6059C114.625 62.225 114.445 62.9412 114.323 63.5332C114.08 64.7194 113.898 65.6096 113.898 65.6096L114.467 65.0063C114.825 64.6245 115.335 64.0845 115.933 63.4496C116.235 63.1242 116.624 62.6588 116.889 62.4328C117.283 61.9584 117.767 60.2728 117.936 61.3212C118.085 60.8196 118.143 60.5101 117.987 60.6479C118.17 60.0831 118.23 59.6244 118.034 59.9814C118.277 59.098 118.41 58.3749 118.232 59.159C118.503 58.3298 118.561 58.3636 118.468 59.2109C118.683 58.5263 118.786 59.0031 118.784 59.8458C118.81 58.9533 118.721 58.201 118.572 58.8155C118.652 57.8327 118.606 57.5548 118.368 58.2687C118.606 57.2588 118.666 57.1006 118.559 57.792C118.737 57.1639 118.846 57.182 119.055 57.7739C119.015 57.2769 119.264 57.5412 119.637 58.3614C119.273 57.5322 119.037 57.2588 119.117 57.7152C118.895 57.139 118.801 57.1074 118.73 57.661C118.786 57.0057 118.841 57.0577 118.95 57.8756C118.957 57.2633 119.13 57.4079 119.457 58.1513C119.348 57.6542 119.762 58.1829 120.118 59.0031C119.762 58.1806 119.351 57.6474 119.468 58.1332C119.139 57.3921 118.968 57.2362 118.99 57.8123C118.87 57.0035 119.317 57.0803 119.482 57.5096C119.371 57.0826 119.495 57.0554 119.975 57.2995C119.686 57.0464 119.998 57.1052 120.707 57.4486C120 57.0939 119.691 57.0261 119.989 57.2181C119.508 56.9967 119.382 56.999 119.517 57.252C119.344 56.938 118.935 56.7369 119.166 56.8679C119.053 56.7323 119.253 56.6962 119.746 56.7143C119.508 56.6646 119.987 56.6239 120.663 56.6578C119.746 56.6284 119.426 56.6623 119.893 56.7956C119.48 56.6781 119.906 56.6736 120.72 56.825C120.345 56.7075 120.683 56.7007 121.223 56.7979C121.098 56.7233 121.539 56.7549 122.121 56.8747C121.503 56.7459 121.043 56.7052 121.181 56.7617C120.645 56.6623 120.358 56.6578 120.754 56.7323C119.982 56.6036 119.711 56.5923 120.26 56.5629C119.798 56.5448 119.871 56.5087 120.378 56.4228C120.071 56.4341 120.58 56.3166 121.203 56.1991C120.342 56.3415 120.204 56.3528 120.887 56.1833C120.502 56.2534 120.729 56.1833 121.214 56.0568C121.103 56.0681 121.503 55.9506 122.108 55.7834C122.043 55.7789 122.826 55.5484 123.587 55.3157C122.713 55.5416 122.335 55.6252 122.653 55.4897C122.126 55.6207 122.15 55.4806 122.673 55.2502C122.384 55.3428 122.682 55.2118 123.309 54.9452C123.162 54.9949 123.618 54.7576 124.12 54.6108L124.127 54.6017Z" fill="currentColor"/>
<path d="M104.346 62.8834C104.37 62.845 104.283 62.8947 104.105 63.0122C104.188 63.0031 104.279 62.9783 104.346 62.8834Z" fill="currentColor"/>
<path d="M111.17 61.9888C110.652 60.719 110.568 60.8094 110.832 62.0973C110.521 60.9427 109.967 61.2229 109.151 62.4452C108.666 62.2735 108.117 62.339 107.519 62.5311C106.921 62.7231 106.274 63.0395 105.593 63.3738C103.57 64.1601 101.964 65.4525 100.012 66.293C99.098 66.6884 98.2574 67.007 97.5659 67.3617C96.7164 67.73 95.9226 68.0734 95.1599 68.157C94.3816 68.0621 93.4854 68.2542 93.3542 67.9831C93.1297 68.8032 93.6967 69.0902 94.4839 69.2641C94.8552 69.6053 95.4467 69.8358 96.0338 70.0888C96.672 70.1408 97.388 70.2018 98.1018 70.265C100.243 70.4503 102.369 70.6446 102.369 70.6446C102.369 70.6446 100.279 70.3396 98.1818 70.0188C97.4836 69.9126 96.7831 69.8041 96.1605 69.7025C95.4667 69.3658 94.833 69.0472 94.4661 68.7648C93.9079 68.5682 93.6166 68.4078 93.8968 68.2293C93.5855 68.3536 94.6595 68.3965 96.1227 68.1164C96.7787 67.7752 97.5481 67.382 98.3797 67.0092C100.163 66.3359 101.764 65.5474 103.583 64.4651C104.041 64.2008 104.481 63.9274 104.942 63.6856C105.411 63.4552 105.873 63.2292 106.32 63.0078C107.664 62.3481 108.875 61.7539 109.916 62.3142C110.621 60.893 111.152 60.6264 111.553 61.8646C111.024 60.579 110.906 60.5903 111.175 61.9821L111.17 61.9888Z" fill="currentColor"/>
<path d="M114.914 59.9733C114.009 59.0672 113.925 59.1576 114.598 60.2241C114.236 59.7631 113.78 59.6728 113.26 59.962C112.742 60.2241 112.157 60.868 111.539 61.8757C109.5 61.4961 107.318 62.5784 105.141 63.6629C104.416 64.0244 103.729 64.4379 103.04 64.822C101.763 65.5495 100.563 66.1415 99.1795 66.7176C98.6258 66.9594 98.1366 67.1672 97.7364 67.3728C96.9358 67.784 96.46 68.0371 96.4689 68.0574C96.5289 68.184 96.6179 68.2676 96.7357 68.3105C96.8536 68.3534 96.9736 68.3421 97.1004 68.2811C97.2271 68.2201 97.3005 68.1343 97.3383 68.0145C97.3761 67.897 97.365 67.7727 97.305 67.6462C97.2983 67.6304 97.514 67.4271 97.9054 67.1311C100.572 65.1315 104.167 63.864 105.953 60.7279C106.326 60.3054 106.618 59.9687 107.105 59.8897C108.079 59.7338 109.102 60.2738 110.26 62.1152C110.369 60.1246 110.54 58.7148 110.576 58.7148C111.17 57.0315 111.628 56.7581 111.979 58.8684C113.004 57.3365 113.918 58.1883 115.157 59.6908C114.683 59.1373 114.28 58.6673 113.936 58.3149C114.087 58.1318 114.096 58.0098 113.84 57.9308C113.415 57.7545 112.366 57.7545 112.232 58.8707C112.435 57.8878 113.113 57.8291 113.411 58.0143C113.709 58.1996 114.274 58.9181 115.003 59.8219C113.669 58.1228 114.191 58.9769 114.91 59.9733H114.914Z" fill="currentColor"/>
<path d="M94.1764 64.6301C93.8184 64.4403 93.6183 64.5397 93.3203 64.4336C97.9833 65.4028 102.488 62.9333 105.419 59.2324C105.904 60.2491 105.795 61.0557 105.782 62.0657C106.691 60.8637 107.007 59.4538 107.919 58.2608C108.63 57.3142 109.342 56.6883 109.369 57.9536C109.767 57.4678 110.171 57.1379 110.574 56.964C111.817 56.5844 113.4 57.3119 112.684 58.9206C114.194 57.4249 116.673 57.9603 118.566 57.7841C118.263 58.184 118.159 58.4868 117.758 58.6834C118.365 57.8835 119.462 57.5943 119.973 56.5889C118.979 56.5753 118.074 57.2712 117.274 57.6666C117.874 57.3706 118.675 56.9775 119.275 56.6815C118.074 57.2735 116.867 58.3693 115.472 58.5523C117.067 58.2699 118.172 57.4746 119.475 56.5821C118.875 56.8781 118.468 57.5808 117.772 57.6711C119.573 56.7855 121.083 55.2875 122.199 53.4845C122.375 55.4072 120.774 56.1957 119.864 57.3955C121.272 56.2003 122.484 54.6006 123.498 53.0958C123.88 54.4153 123.169 55.5179 122.459 56.6205C123.073 55.3146 124.085 53.8121 123.407 52.3886C122.29 54.1939 121.272 56.2003 119.366 57.3887C120.669 56.4962 121.483 55.0909 122.593 53.7917C122.175 55.5044 120.967 56.6002 120.058 57.8022C120.872 56.3968 122.673 55.5111 122.793 53.6946C122.083 54.7972 121.27 56.2025 120.167 56.9956C122.575 55.3078 123.309 52.1853 123.444 49.3565C124.414 51.39 123.789 53.7059 122.768 55.7145C124.587 53.3127 124.329 50.1767 124.263 47.4473C125.735 48.9815 125.808 51.207 125.781 53.2269C126.115 50.3009 125.559 47.061 123.195 45.2105C125.268 46.4487 126.231 48.9882 126.4 51.4148C126.34 48.1794 124.583 45.5313 122.321 43.3804C124.59 45.0252 126.449 47.375 126.611 50.3077C126.442 47.8811 124.879 45.6375 123.006 44.3C125.074 46.0442 126.631 48.7917 126.495 51.6204C126.624 49.2978 125.661 46.7582 123.587 45.52C125.048 48.0641 125.506 51.103 124.874 53.9228C125.203 51.5007 125.441 48.3714 123.075 46.5232C124.832 49.1735 124.79 52.7095 123.362 55.4185C124.18 53.5093 124.807 51.1934 124.334 49.1667C125.303 51.2002 124.678 53.5161 123.858 55.4253C124.676 53.5161 125.103 51.2973 124.029 49.5666C123.798 52.1921 123.269 54.7113 121.456 56.607C122.966 55.1112 123.489 53.0958 124.011 51.0827C124.187 53.0055 123.567 54.8152 122.65 56.5211C123.16 55.5179 123.373 54.4086 123.882 53.4031C122.281 54.1917 122.057 56.311 120.456 57.0973C121.165 55.9947 122.566 55.3055 122.288 53.6855C121.47 55.5947 119.669 56.4804 118.261 57.6757C118.563 57.2757 118.764 57.1763 119.164 56.9798C118.272 56.6657 117.763 57.6689 116.76 57.8406C116.004 58.1027 114.963 58.3038 114.91 58.6811C114.51 57.6418 117.46 57.4226 117.427 57.217C117.394 57.0114 116.547 57.165 114.541 57.4701C115.175 57.2757 114.692 57.2803 113.407 57.2464C112.764 57.2306 112.104 57.2373 111.563 57.3593C111.159 57.5559 110.827 57.8609 110.605 58.288C110.754 56.0263 110.056 56.8352 109.22 58.3399C108.99 58.7037 108.726 59.2414 108.441 59.9147C108.157 60.588 107.852 61.3969 107.543 62.3029C106.882 61.2704 106.409 59.2437 106.009 59.4403C102.909 60.7146 100.581 64.1195 96.8003 64.4855C95.037 64.6459 94.1742 64.6279 94.1742 64.6279L94.1764 64.6301Z" fill="currentColor"/>
<path d="M90.8298 69.0719C86.5648 71.4556 87.1274 70.9066 91.2167 67.2079C88.2926 69.9328 88.893 69.5103 91.7371 66.9391C88.5973 69.4063 87.8968 69.8763 90.5897 66.7176C86.5893 70.8953 85.9867 71.4443 88.1347 67.2486C85.244 71.1822 85.1773 70.3982 86.0134 64.5486C85.2973 68.8347 85.4819 68.0529 86.4803 63.9273C85.3329 67.9987 85.1217 68.855 85.493 64.5396C84.9015 70.597 81.8418 67.8812 82.2087 63.9431C80.9945 68.1749 80.4542 67.5626 77.2343 62.3163C79.5758 66.2364 79.2378 65.5247 77.0164 61.5481C79.0844 65.7257 79.4491 66.4872 76.7073 62.7953C80.3741 67.9151 80.939 68.5794 80.6677 67.1695C80.7277 69.4334 79.0933 73.1976 72.8626 71.8781C77.5078 72.7209 76.7162 72.3571 72.0977 70.8456C76.6651 72.5085 77.4812 72.922 72.7959 72.7051C79.1889 73.5252 80.9234 69.8401 83.0648 72.199C81.1146 70.4999 79.5469 74.7928 74.4681 78.6225C77.9993 75.4299 77.1743 75.6468 72.7425 77.6984C77.1743 75.6468 78.0971 75.5067 75.0529 79.2506C79.8671 75.0752 81.5571 70.9088 85.4886 74.3928C82.0997 71.2703 80.8767 75.8976 79.736 81.9302C79.9383 77.2984 79.3846 77.9492 77.4745 82.1268C82.3154 73.1886 79.8471 71.8126 80.5698 81.9235C81.2036 75.6739 85.5019 74.5713 90.9477 76.5777C86.2958 74.682 83.3872 71.8939 85.9711 77.1538C83.514 73.5885 83.5028 74.4719 84.4346 78.5863C83.6029 74.4245 83.7141 73.4913 86.5915 76.7562C83.7119 71.6725 86.6471 74.3861 91.8572 74.6436C87.203 73.7354 87.819 74.2482 92.6866 76.8466C88.8975 75.4751 89.36 76.1891 92.4197 78.5547C89.3111 76.0874 88.8241 75.3237 92.8178 76.3969C87.7745 73.8958 87.2097 73.2315 91.9261 71.2794C87.3164 72.6757 88.088 72.6102 93.4426 71.973C89.629 72.6034 90.4007 72.6644 94.1008 72.7435C90.4496 72.7661 89.5579 72.452 93.3114 71.3178C87.5121 72.1289 86.2624 72.2351 90.8343 69.0719H90.8298Z" fill="currentColor"/>
<path d="M88.1101 50.5676C88.7972 49.7271 89.1374 49.3362 89.1152 49.3656C89.093 49.3949 88.7083 49.8468 88.0078 50.7212C88.6927 49.9078 89.0752 49.4853 89.0996 49.4559C89.1241 49.4266 88.7928 49.7903 88.1101 50.5676Z" fill="currentColor"/>
<path d="M90.5591 48.3802C91.1417 47.9351 91.3463 47.3318 91.8511 46.8325C91.1484 47.429 90.6436 47.9283 90.2367 48.631C90.7392 48.1317 91.1462 47.429 91.7466 47.1353C91.1462 47.4313 90.8371 48.3373 90.3323 48.8344C90.6347 48.4344 90.8415 47.8312 91.4419 47.5352C90.9327 48.5384 89.932 49.0309 89.4228 50.0364C89.623 49.937 89.9254 49.537 90.0299 49.2365C89.8164 50.3459 88.9136 51.0418 88.6045 51.9478L88.7068 51.6451C86.4742 55.2533 87.4193 59.309 89.2094 62.9715C88.6534 63.3624 87.9686 63.943 87.913 63.5974C88.2576 64.5553 88.8313 64.3339 89.5385 63.812C89.9454 63.8685 90.2367 63.9114 90.7215 63.9769C92.6316 64.0266 94.6195 64.0515 96.414 63.6697C94.0258 63.8414 91.4352 64.1102 89.1515 63.5228C88.5934 63.8323 88.2776 63.9204 88.4333 63.4482C88.2198 63.9001 88.9447 63.2426 89.6496 62.6913C87.2259 58.9023 86.5921 53.9429 89.5207 50.242C89.1204 50.4385 89.0181 50.7413 88.9136 51.0418C89.5207 50.242 90.1277 49.4399 90.637 48.4367C90.3345 48.8366 90.0299 49.2365 89.7275 49.6387C90.5347 48.7395 90.7459 47.6301 91.7777 47.0449C91.9089 46.8551 91.5309 47.2708 90.5591 48.3847V48.3802Z" fill="currentColor"/>
<path d="M93.6488 46.4374C93.7221 44.187 93.7533 43.5046 93.8333 41.7559C93.651 43.5453 93.5153 44.2706 92.8727 46.6159C93.4575 44.4016 93.542 43.7916 93.482 42.3546C93.5153 43.1092 93.5109 43.656 93.4308 44.318C93.3508 44.98 93.1951 45.7437 92.8104 46.6882C93.204 45.7776 93.3619 45.1246 93.4153 44.7179C93.4686 44.3113 93.4264 44.1689 93.3174 44.0401C93.3686 44.4604 93.3575 44.8942 93.2352 45.6488C93.1729 46.0261 93.0261 46.3402 92.806 46.7333C92.5391 47.2507 92.0366 47.7478 91.7319 48.15C91.9321 48.0506 92.0344 47.7501 92.2345 47.6507C91.6274 48.4505 91.0204 49.2526 90.5112 50.2558C90.6134 49.953 90.5178 49.7497 90.9181 49.5531C88.2853 53.3602 87.8227 58.6088 90.0575 62.7797C88.0229 58.5094 88.0963 52.4474 91.6208 48.9566C91.4206 49.056 91.2205 49.1532 91.1182 49.4559C91.8209 48.8594 92.1322 47.9534 92.7371 47.1513L92.5303 47.7546C93.0395 46.7514 93.6465 45.9493 93.6065 45.0184C93.7466 44.1486 93.8578 43.5114 94.0023 42.7364C93.8266 43.7283 93.7866 44.1644 93.6443 46.4396L93.6488 46.4374Z" fill="currentColor"/>
<path d="M101.224 22.6118C100.408 22.2841 99.3157 22.0695 99.498 23.4861C98.1416 20.6393 95.6867 18.0816 92.509 17.6365C93.7098 17.0446 94.7105 16.552 96.0024 16.6718C94.815 16.2515 93.5097 17.1462 92.509 17.6365C95.382 18.4815 98.146 20.1332 99.3046 23.0794C99.3357 20.5534 97.0698 18.9086 95.9001 16.9723C96.8941 16.9858 99.3691 18.0274 99.1044 16.2673C99.0066 15.5601 98.8532 14.8642 98.6397 14.1909C97.9993 12.1733 96.8274 10.3635 95.1018 9.07788C96.9408 10.5171 98.3284 12.6229 98.9332 14.9885C99.0844 15.5805 99.1867 16.1882 99.229 16.7983C98.2772 17.8082 97.1921 17.0875 96.1981 17.0762C100.514 21.9814 101.304 30.3796 95.6778 34.6725C95.0285 35.2238 94.6504 35.6237 94.268 35.9829C93.5586 36.8506 92.6803 37.3996 91.3639 37.0991C93.7298 37.0901 94.5126 36.4055 94.5637 35.748C94.4258 36.8754 93.5564 38.0322 91.4661 37.7159C92.8893 38.9744 93.0916 38.762 92.7359 36.9929C92.8092 39.1913 92.3267 39.8375 90.7724 38.3644C92.2933 40.1019 92.1555 40.4588 90.4833 38.9834C91.4261 41.6676 91.097 42.1828 88.6154 41.2248C90.2987 43.4051 89.8295 44.11 86.7987 44.8398C89.109 45.2217 88.6977 45.8611 86.196 47.2393C87.6992 47.3952 87.1122 48.29 85.7469 49.6117C85.4533 50.8182 84.486 52.2914 83.7945 53.3443C83.1029 54.3971 82.6893 55.0298 82.6893 55.0298L82.2891 55.9358L83.5588 54.2096C84.3393 53.1477 85.4133 51.6859 86.007 50.5155C87.1722 49.2977 87.7815 48.4662 86.583 48.6402C88.9111 46.9727 89.4293 46.3085 87.3212 46.4214C90.6011 44.7156 91.2527 43.7869 89.7806 41.9116C92.0799 43.0707 92.2511 43.2854 90.2565 43.8186C92.5468 43.3351 92.9404 42.4607 92.8782 39.354C93.4719 41.4055 93.6098 41.2248 93.5697 38.8682C94.3436 40.4091 94.4414 41.148 95.2241 40.8249C94.4236 41.7512 94.5326 40.7503 94.3636 38.8547C94.5415 40.1583 94.895 39.2772 95.4176 37.1669C95.0351 38.945 94.8217 39.4963 94.5837 38.466C95.024 39.3359 95.6711 38.0706 96.6339 36.3761C96.9141 36.6111 97.5123 36.4168 98.4662 36.4552C98.9732 37.2776 99.836 38.335 101.522 39.7562C99.9094 37.978 99.1556 36.5297 98.5063 35.6124C97.768 34.8668 97.1365 34.6522 96.3249 34.8645C95.4421 35.3413 94.3814 36.2428 92.6892 36.2699C93.3785 36.2699 93.9633 35.9942 94.4748 35.5966C99.3802 33.0841 100.25 27.1328 100.35 22.0424C100.556 22.2186 100.901 22.5575 101.224 22.6118Z" fill="currentColor"/>
<path d="M75.0177 49.1418C74.8776 48.9045 74.8821 49.0175 74.9621 49.3406C74.9666 49.1237 74.9999 49.0017 75.0177 49.1418Z" fill="currentColor"/>
<path d="M78.2374 59.8694C78.462 60.563 78.4842 60.2874 78.462 59.4921C78.631 59.3068 78.7577 58.6041 78.949 57.7591C78.7333 57.0428 78.4842 56.2069 78.2174 55.3099C77.7749 53.8164 77.2879 52.1557 76.8321 50.6103C76.6052 49.8376 76.3851 49.092 76.2606 48.5294C75.9848 47.7431 75.8003 47.1421 76.4007 47.6414C75.867 46.5931 75.5512 45.9062 75.5401 46.3671C75.489 45.6871 75.7425 46.1525 76.3517 47.4087C75.7091 46.2135 75.3844 45.6464 75.3844 46.3219C75.3578 45.7006 75.658 46.3219 76.2583 47.5036C75.6935 46.4575 75.4289 45.9582 75.4689 46.4372C75.4801 45.974 75.7958 46.4869 76.3895 47.4629C75.8603 46.523 75.6491 46.2248 75.6757 46.6224C75.6802 46.5163 75.9226 47.106 76.3028 47.9465C76.0738 48.0481 76.3362 48.9338 76.623 49.9099C77.1967 51.8598 77.875 54.1711 78.4687 56.1798C78.6599 57.1084 78.8022 57.9828 78.6755 58.821C78.1663 59.6502 78.651 60.6669 77.8283 60.3258C78.8934 61.1753 79.1513 60.5472 79.2803 59.422C79.6428 59.2955 79.8763 58.6696 80.3855 58.281C80.848 57.5851 81.1282 56.8644 81.3795 56.1504C81.9309 54.0401 82.4868 51.9479 82.4868 51.9479C82.4868 51.9479 81.8286 53.9859 81.1526 56.0284C80.8702 56.722 80.5856 57.4157 80.1142 58.089C79.6428 58.7623 79.2447 59.3746 78.8556 59.4423C78.6755 60.2693 78.502 60.5495 78.2396 59.8716L78.2374 59.8694Z" fill="currentColor"/>
<path d="M68.1442 28.4999C69.4784 30.0747 69.912 30.6621 68.8113 28.3372C69.7141 30.3865 69.5451 30.8835 67.6928 29.7177C68.7758 31.0056 68.1776 30.6305 66.9701 29.5799C68.0019 31.0169 68.52 31.8167 67.0368 30.7751C69.2049 32.0652 69.3739 31.5117 68.2977 28.8704C69.7208 32.3431 69.8987 33.7281 66.5499 32.6436C69.7764 34.101 69.4762 33.0865 67.6417 29.6228C69.0026 32.3318 69.0115 33.8953 65.8472 35.0115C68.6601 36.7445 68.2977 38.0301 66.1629 39.7992C67.0924 40.2669 66.2497 41.2204 65.1089 41.9818C63.9682 42.7432 62.5339 43.3103 60.7461 43.6605C62.7207 43.6605 64.3151 43.4549 65.6404 43.2606C66.9657 43.064 68.0219 42.8765 68.3577 43.5317C69.8209 42.9375 70.5636 43.1838 70.7081 44.9732C71.96 44.5327 72.6138 45.633 73.3343 47.3705C72.4026 44.867 71.9511 43.9407 71.4175 45.3483C71.7266 44.6547 71.9556 46.2973 72.3848 48.9317C71.7733 45.9244 71.9645 46.8892 72.4648 49.4378C72.2736 48.9227 72.3892 49.9914 72.4982 50.9968C72.9362 55.0208 73.2653 58.0394 73.2653 58.0394L73.5322 58.9951L73.1275 51.7153C73.0719 50.7234 73.0141 49.6886 73.1853 49.4943C72.8784 47.6958 72.8006 46.7378 73.7923 48.6832C73.2409 46.7175 72.9585 45.4793 72.9296 45.99C73.252 44.9326 73.8301 45.6262 75.002 47.5286C74.0481 45.8973 73.3587 44.8038 72.487 45.6239C72.3536 43.7916 72.0356 43.8706 71.4864 45.4658C71.6176 45.3054 71.5175 46.661 71.4486 48.7035C71.4931 46.2204 71.5709 44.4242 71.0683 44.8874C72.1891 41.8281 72.7339 41.026 72.3914 44.6501C74.6907 40.0409 76.1072 39.8557 80.7835 43.1273C76.5163 39.6478 75.1755 39.815 72.8006 44.6682C72.8384 40.6826 71.8422 41.383 69.7075 44.0401C69.9232 43.229 69.0003 44.3768 67.9797 45.7075C66.959 47.0361 65.8383 48.5476 64.4841 50.1993C65.458 48.9724 66.2964 47.8043 67.0524 46.6723C67.8085 45.5403 68.4778 44.4491 68.6735 43.9136C69.7519 42.3004 70.3546 41.2475 68.5801 42.5963C71.5954 39.1394 72.2291 38.0866 67.8641 39.3563C73.6322 35.9424 74.3994 34.8533 75.5579 28.0164C73.9725 35.0657 73.0785 35.8746 66.9924 36.3965C71.8489 36.3558 71.5153 36.0305 66.641 34.0445C71.1328 34.1778 71.0861 32.6504 69.4228 28.3349C70.4835 32.9035 69.9365 33.8908 66.3453 32.7837C68.4266 33.7259 67.466 32.5758 65.945 30.6373C67.5839 31.8958 68.5223 32.3296 67.0769 30.8316C69.6497 31.8845 69.8387 31.0056 68.8469 28.3711C70.0277 30.94 69.4851 30.0747 68.1509 28.4999H68.1442Z" fill="currentColor"/>
<path d="M78.9494 57.3955C79.0828 57.3571 79.1806 57.2825 79.2407 57.1718C79.3007 57.0611 79.3118 56.9391 79.274 56.8035C79.2385 56.6725 79.1651 56.5776 79.0583 56.5188C78.9494 56.4601 78.8293 56.4488 78.6959 56.4872C78.6625 56.4962 78.3623 55.545 77.9287 54.1103C77.4951 52.6756 76.9303 50.7641 76.3722 48.8572C76.0875 47.8969 75.8073 46.9412 76.4767 47.4676C75.8629 46.53 75.4871 45.9629 75.4382 46.408C75.3604 45.8341 75.6094 46.2747 76.2432 47.3547C75.3982 45.5629 74.9379 44.4106 75.0958 45.8431C75.2803 43.6063 76.0809 43.9565 77.9576 45.877C75.8785 43.7306 74.8734 43.1567 74.362 45.7075C74.2108 43.9271 74.5532 45.2715 75.3693 47.671C74.5354 45.3031 74.1596 43.9317 74.2797 45.694C74.7978 43.0866 75.8073 43.6108 77.9687 45.8273C75.814 43.6402 74.8089 43.1476 74.2997 45.7121C74.1707 44.0198 74.5399 45.3867 75.3515 47.7116C74.5576 45.4545 74.2063 44.1531 74.342 45.7595C74.8134 43.3894 75.7695 43.9294 77.7486 45.9855C75.8251 43.961 74.9268 43.4527 74.5576 45.7844C74.4331 44.1915 74.8378 45.4387 75.6873 47.5557C74.8712 45.459 74.5132 44.2932 74.6733 45.8318C75.0157 43.7102 75.8763 44.2932 77.5996 46.1481C76.0631 44.5191 75.3915 44.1621 75.2892 45.9606C75.1514 44.8038 75.585 45.8047 76.3655 47.3456C75.8007 46.5322 75.585 46.2611 75.6272 46.6316C75.6472 46.5096 75.9252 47.027 76.3521 47.7952C76.0431 47.7659 76.3277 48.7329 76.6123 49.6999C77.7486 53.5635 78.8871 57.4158 78.9516 57.3977L78.9494 57.3955Z" fill="currentColor"/>
<path d="M62.6675 62.2825C62.583 62.2576 62.6586 62.3344 62.8342 62.4723C62.792 62.3615 62.7364 62.2599 62.6675 62.2825Z" fill="currentColor"/>
<path d="M62.2222 59.8898C60.2476 59.2255 60.3165 59.3227 62.2111 60.1542C60.5456 59.4809 60.6634 59.5102 62.3356 60.1293C60.8102 59.4831 61.4017 59.8672 62.7915 60.6919C63.2429 61.0896 64.4926 61.9255 65.8379 62.8248C67.181 63.724 68.6197 64.6865 69.9139 65.5496C70.6544 66.1326 71.3437 66.6771 71.7751 67.3685C72.102 67.8 72.3421 68.209 72.0063 68.2609C72.8291 68.9975 73.0737 69.3793 71.9997 69.054C73.425 69.0811 73.3072 68.4485 72.5889 67.3911C73.0137 67.1787 72.8358 66.5393 72.7646 65.866C72.6601 65.0458 72.391 64.3363 72.1242 63.6269C71.2125 61.6499 70.3141 59.6842 70.3141 59.6842C70.3141 59.6842 71.0991 61.6747 71.8729 63.6811C72.102 64.3928 72.331 65.1045 72.4288 65.9044C72.5267 66.7042 72.6267 67.4249 72.2687 67.6554C72.7757 68.4756 72.8246 68.8054 72.0553 68.3875C72.8069 68.8416 72.6468 68.6044 72.0086 67.9514C72.1086 67.7616 71.7306 67.1583 71.2836 66.4444C70.6655 66.0377 69.945 65.5587 69.1734 65.0458C67.8903 64.1917 66.465 63.2383 65.1374 62.3503C63.8099 61.4624 62.5802 60.6399 62.5735 60.4343C60.7857 59.4515 60.2209 59.0855 62.2222 59.8898Z" fill="currentColor"/>
<path d="M68.3549 70.8593C65.8399 66.9143 62.1975 63.9364 58.6641 60.7484C58.1749 60.2287 57.8458 59.8243 57.7191 59.5487C57.4389 58.9861 57.9726 58.9341 59.6536 59.4944C57.937 58.4754 56.7295 57.7298 57.1164 57.3073C55.1596 56.4533 54.7972 55.92 56.9319 55.2693C54.7349 54.7406 55.0373 54.0922 56.8385 52.8608C55.0373 54.0922 54.497 54.5531 56.6561 54.221C53.205 54.6977 52.4512 54.3791 55.4998 51.8192C50.5033 53.0077 49.3091 51.9548 48.0617 46.121C48.4997 51.5684 48.4664 51.8057 48.8911 46.4689C47.697 51.4803 46.961 50.9177 45.3555 45.9832C46.961 50.9177 47.439 51.3402 47.6659 46.2068C47.6525 51.6068 47.3879 51.4509 45.7468 46.0238C48.2885 52.3231 49.4537 53.3534 54.7949 51.4103C50.4788 54.9395 50.3409 55.4975 55.4198 57.3706C50.9991 56.5979 52.2222 57.1695 56.1469 58.9296C54.3658 58.4596 55.2841 59.1736 56.6117 60.2468C56.9052 60.5925 57.301 61.0286 57.7769 61.5415C58.2527 62.0543 58.7909 62.443 59.4113 62.9355C59.5202 62.9965 59.4224 62.7932 59.4224 62.7932C62.58 64.7543 65.4352 67.1132 67.7211 70.2221L68.3504 70.8638L68.3549 70.8593Z" fill="currentColor"/>
<path d="M61.7259 58.2019C57.73 57.3547 58.5749 57.9105 62.1817 59.587C61.0788 59.5779 62.7377 60.6895 64.3943 61.7967C67.7098 64.0154 71.0186 66.2206 71.0564 66.1641C71.1342 66.0466 71.1609 65.9269 71.1387 65.8026C71.1164 65.6783 71.0453 65.5766 70.9319 65.4976C70.8207 65.4207 70.7073 65.3959 70.585 65.4208C70.4649 65.4456 70.3648 65.5179 70.287 65.6331C70.247 65.6919 66.9559 63.498 63.676 61.3064C62.0372 60.2105 60.3984 59.1125 62.0661 59.2254C57.9479 57.4834 57.134 56.948 61.5324 57.5738C59.3466 57.3343 58.2703 57.2394 58.3014 57.3253C58.297 57.4044 59.3999 57.6664 61.568 58.1409C59.5133 57.7455 58.5171 57.5557 58.5505 57.567C58.5838 57.5783 59.6512 57.7907 61.7237 58.1997L61.7259 58.2019Z" fill="currentColor"/>
<path d="M59.9294 78.4101C59.8871 78.4395 60.025 78.4508 60.3074 78.4462C60.1784 78.383 60.0383 78.3378 59.9294 78.4101Z" fill="currentColor"/>
<path d="M56.2678 77.1607C55.9698 77.2985 55.872 77.0952 55.6719 77.1923C55.9698 77.2963 56.17 77.1991 56.4657 77.3031C56.4657 77.3031 56.0655 77.4996 56.2656 77.4025C61.0443 77.059 65.3359 75.6989 69.9945 74.4969C70.3614 74.7748 70.8373 74.8968 70.7328 75.1114C71.8579 75.125 72.405 75.2334 71.3265 75.8977C72.4094 74.9804 71.8424 74.5692 70.646 74.1986C70.7572 73.7332 70.2502 73.3062 69.8922 72.7684C68.3712 71.6975 66.49 70.8637 65.3159 69.4358C66.4922 70.866 68.2667 72.0002 69.6854 73.0938C70.1946 73.6406 70.7128 74.1376 70.5882 74.5601C71.4821 74.8719 71.7245 75.1069 70.8884 75.2854C71.7356 75.1634 70.6283 74.7409 69.1028 74.5918C68.3712 74.6844 67.9777 74.9352 67.2594 75.1634C63.9372 76.3903 60.5484 77.0545 57.1462 77.1426C55.8453 77.1359 55.1315 77.1042 56.27 77.163L56.2678 77.1607Z" fill="currentColor"/>
<path d="M56.0087 77.2104C55.1726 77.1856 54.3787 77.0748 53.3825 77.0613C54.2809 76.8715 55.1704 77.1856 56.0687 76.9935C55.3705 77.0861 54.481 76.7721 53.5827 76.9619C58.8461 77.6352 63.9338 76.3857 69.026 74.6324C69.026 74.6324 68.7347 74.0224 68.5346 74.1218C64.0228 77.0952 58.1523 77.2217 52.9867 76.7518C53.974 77.2692 54.8791 76.5733 55.8664 77.0907C54.968 77.2805 53.9807 76.763 52.8711 76.9461C52.8933 76.9822 53.8428 77.0681 56.0065 77.2059L56.0087 77.2104Z" fill="currentColor"/>
<path d="M69.357 80.2244L67.2512 79.9714C65.9548 79.8155 64.4005 79.9601 62.4414 80.0346C59.7152 79.9714 56.7333 79.933 53.9626 78.7874C54.8543 79.1015 55.448 79.3116 56.3397 79.6257C54.6541 79.2009 53.0709 78.4734 51.3876 78.0463C53.0731 78.4711 54.6563 79.1987 56.3397 79.6257C54.6541 79.2009 52.7685 78.8733 51.1874 78.1458C51.3876 78.0463 51.6855 78.1525 51.8523 78.1345C50.2268 78.2429 49.0749 78.4101 48.8481 78.4892C48.6213 78.5683 49.324 78.557 51.2363 78.4372C45.1902 79.3252 43.985 79.7771 42.2639 85.3081C41.1743 80.9949 39.5688 81.7563 34.8546 84.5444C39.5821 81.2592 40.6561 80.3193 35.5684 80.8864C39.4732 79.7499 40.6384 79.2845 39.0996 78.8371C38.7149 78.7264 38.1612 78.6157 37.4696 78.4327C37.2962 78.1955 37.2806 77.8317 37.5719 77.1358C39.4064 73.6495 40.0558 69.3115 37.9121 65.8501C35.4995 61.9548 30.9899 60.0773 26.6515 60.3778C25.2061 60.4772 23.7785 60.8183 23.6073 59.9846C21.5504 61.8509 20.7477 62.4971 22.0863 59.9891C19.4112 64.099 18.8776 65.0502 21.1301 62.4564C18.2549 67.1153 18.1682 68.0982 20.1384 73.3242C18.4439 69.9712 18.8042 70.8614 20.9989 75.3079C20.0294 72.391 20.7699 72.7797 22.9869 74.9645C22.3821 73.1773 23.2515 73.1886 24.9459 73.9026C23.5406 73.7987 22.8446 73.8913 23.1203 75.2198C21.4036 73.7196 20.6609 73.4575 21.0323 75.9338C20.5609 73.5095 21.3036 73.7715 23.0069 75.2944C22.7423 73.941 23.4405 73.8484 24.768 74.0607C23.0536 73.035 22.2086 72.9491 22.9624 74.8809C20.6476 72.5244 19.9316 72.1877 20.9456 75.2311C18.7553 70.588 18.4039 69.6187 20.3385 72.4656C18.1482 67.6621 18.2438 66.6747 20.95 61.704C18.8709 64.8424 19.4001 63.9951 22.1708 60.0275C21.1457 62.2983 22.322 61.5617 24.37 60.249C24.857 60.5788 26.2157 60.3348 27.5832 60.3213C30.3183 60.2942 33.0912 61.1866 35.2593 62.8834C39.9868 66.5821 40.2025 73.2541 37.036 78.0441C37.0138 78.4463 37.1072 78.5886 37.2117 78.6451C37.6364 78.8778 37.7543 79.0202 37.5764 79.1489C37.3985 79.2777 36.9426 79.3658 36.2711 79.411C36.3445 78.9456 36.3889 78.4779 37.0849 77.4115C39.7934 73.9546 39.6555 69.0019 37.414 65.3349C36.2444 63.4008 34.4677 62.2666 32.5887 61.4329C31.17 60.8748 29.6824 60.5201 28.2058 60.4184C26.7293 60.3168 25.2661 60.4704 24.5412 60.2693C22.5199 61.3945 21.2391 62.165 22.1641 60.0275C19.2934 64.1284 18.7397 65.1542 21.1146 62.7705C18.1971 67.3164 18.2082 68.4552 20.4008 73.95C18.7953 70.5654 19.369 71.5392 21.8061 75.2515C19.1044 71.3336 18.5129 70.091 20.4919 72.7593C18.1838 67.4813 18.4484 66.1144 21.4637 60.7912C19.6403 63.7036 20.572 62.6598 23.256 60.0366C22.8112 61.3086 23.9764 60.8726 25.3996 60.4591C26.3958 60.4252 27.6521 60.4116 28.9041 60.5585C30.1538 60.7054 31.399 61.0127 32.5887 61.4329C34.4677 62.2644 36.2444 63.3986 37.414 65.3349C39.6555 69.0019 39.7934 73.9546 37.0872 77.4047C36.3778 78.4802 36.3289 78.9501 36.2511 79.4155C36.9093 79.3749 37.3473 79.2935 37.503 79.1738C37.6586 79.054 37.5163 78.9275 37.0716 78.7084C37.0093 78.4372 37.0494 78.0802 37.334 77.4476C40.6072 72.5492 39.7 65.4637 34.1719 62.1582C31.9505 60.8658 29.4711 60.2038 27.0718 60.2874C25.871 60.328 24.6902 60.5562 24.3233 60.1812C22.451 61.4148 21.3925 62.0452 22.3242 59.9168C19.6825 63.6403 19.051 64.517 20.9522 61.2612C18.2305 66.4262 18.0437 67.461 20.0828 72.2261C18.3105 70.091 19.0421 71.2387 21.7839 75.1475C21.139 72.7797 22.4999 73.1751 24.7658 74.0562C23.1892 73.8416 22.342 74.0065 22.5044 75.5407C20.7032 73.8077 19.9116 73.4439 20.254 76.0151C18.4017 72.2645 17.7835 71.3698 17.1298 75.1407C17.0475 69.4064 16.9318 68.3377 14.5703 66.8171C17.1075 66.207 17.3966 65.1451 18.1927 59.4875C17.5278 65.0796 17.2609 66.0737 15.1729 65.8049C17.0163 68.0914 17.0364 69.1126 16.7762 74.8696C17.5656 71.0286 18.0726 71.9233 19.767 76.0219C19.5157 73.1366 20.3563 73.6021 22.2775 75.5971C22.1419 73.9794 23.087 73.8913 24.7636 74.0585C22.829 73.2654 21.8284 73.0056 22.5822 74.9894C20.1072 72.0476 19.3912 71.3495 20.6898 74.7589C18.4084 69.6368 18.146 68.6223 20.7165 68.0688C18.2527 66.6024 18.5129 65.7213 21.179 60.7054C19.3045 64.1397 19.836 63.4393 22.3242 59.9146C21.5682 61.8938 22.8446 61.2024 24.7102 60.2648C25.5352 60.3665 26.9472 60.2196 28.3526 60.3122C31.1589 60.4998 33.9296 61.6475 36.0465 63.4935C39.6822 66.9752 40.2092 72.7413 37.563 77.0048C37.1583 77.7978 37.0961 78.1909 37.1539 78.4711C37.8032 78.6361 38.3168 78.7264 38.6682 78.801C39.7178 79.0247 39.2486 79.1806 37.2361 79.3997C36.9404 79.3794 36.6847 79.1986 36.5757 78.6202C38.2857 75.448 39.422 72.129 38.9684 68.5862C39.6221 72.0295 38.1901 75.2447 36.6113 78.3333C36.5068 78.7535 36.5068 79.0744 36.5535 79.3817C36.8559 79.6799 37.1783 79.7838 37.4096 79.9013C39.024 80.2674 37.4896 81.0017 33.8473 82.5177C38.8772 80.7712 40.4605 80.2809 37.9077 82.938C43.2445 79.7183 44.4497 79.646 50.9406 80.5227C46.8691 79.9917 48.081 80.4097 51.8901 81.7021C50.905 81.8105 52.515 82.7911 54.5163 84.0903C53.8447 83.2678 53.3466 82.5855 53.0598 82.032C52.7729 81.4784 52.6951 81.0514 52.853 80.7486C52.8418 80.5904 52.5505 79.9804 52.7507 79.881C55.637 79.7161 58.6078 80.7644 61.5453 80.4888C63.6066 80.3894 65.1498 80.1137 66.3929 80.195C67.6359 80.2764 68.3808 80.3261 68.3808 80.3261L69.3526 80.2244H69.357Z" fill="currentColor"/>
<path d="M66.8687 90.0913C66.8554 90.132 66.931 90.0597 67.0799 89.8948C66.991 89.9332 66.9021 89.9874 66.8687 90.0913Z" fill="currentColor"/>
<path d="M64.3428 91.2074C63.967 91.7858 64.0159 91.6729 64.3294 91.0899C64.0159 91.5237 64.4917 90.9973 65.2433 90.1817C66.7465 88.5504 69.3549 85.7577 71.4785 83.4644C72.1145 82.7776 72.7082 82.1336 73.213 81.5846C74.1224 81.1643 74.923 80.7689 74.9074 81.4897C75.0786 80.3171 74.4827 80.2357 73.4398 80.6356C73.2797 80.177 72.6704 80.2041 71.9988 80.3668C71.3807 80.5385 70.6891 80.7305 69.9975 80.9203C67.9229 81.4897 65.8615 82.0478 65.8615 82.0478C65.8615 82.0478 67.9273 81.6094 70.0064 81.1824C70.7002 81.0401 71.394 80.9 72.0122 80.7757C73.3019 80.5814 74.6205 80.726 74.2003 81.2976C74.6806 80.7802 73.5888 81.1553 72.5837 82.2534C70.5735 84.4473 67.1913 88.0691 65.1855 90.2381C64.1827 91.3227 63.5245 92.0457 64.1515 91.1487C63.6712 92.0434 63.778 91.9914 64.3472 91.2097L64.3428 91.2074Z" fill="currentColor"/>
<path d="M76.3932 85.5024C70.8785 85.7736 67.9366 90.4844 64.5033 94.1605C64.0608 94.4633 63.7183 94.6485 63.5315 94.6644C63.158 94.6937 63.4159 94.0385 64.6812 92.2287C59.967 97.3033 59.2843 97.7575 62.4153 91.1035C61.6325 92.7664 60.9632 94.1018 60.2672 95.2292C59.9203 95.7941 59.5423 96.3047 59.1176 96.7882C57.8434 97.1136 56.5603 97.5813 55.3462 98.1868C54.1321 98.7923 52.9869 99.5424 52.0107 100.378C50.9878 101.318 50.1339 102.344 50.0406 101.3C48.8642 104.674 48.4506 105.975 49.1578 102.744C48.2861 108.526 48.4706 109.606 52.5444 111.233C49.2111 111.621 49.767 112.557 53.3649 116.581C51.1546 114.199 51.9863 114.906 54.479 117.001C51.6661 115.189 50.6054 114.518 52.0752 117.426C48.8865 112.728 48.2305 111.61 47.7969 110.442C48.1304 111.66 48.6886 112.701 51.5593 117.593C50.1829 114.414 51.119 115.083 53.8452 117.448C53.4272 116.038 54.5991 116.133 56.1556 116.26C56.8494 115.788 57.9301 115.347 58.973 114.771C60.0159 114.192 61.0188 113.476 61.9883 112.746C61.7748 113.856 60.872 114.552 60.265 115.352C60.9743 114.249 62.2796 113.356 62.2974 111.84C62.2841 112.85 61.4791 113.75 61.1678 114.656C61.7748 113.856 62.6777 113.16 62.2974 111.84C61.2945 112.5 60.2361 113.219 59.1309 113.799C58.0257 114.38 56.8739 114.825 56.4314 115.37C54.499 115.065 53.276 114.859 54.5012 116.296C51.1035 113.585 50.3608 112.832 53.6362 114.848C49.2556 111.09 48.8931 110.096 51.2903 105.277C48.564 108.027 48.5996 106.949 49.7426 102.037C49.2623 104.448 49.9561 103.148 51.1969 101.079C51.7461 100.916 52.8446 99.9807 54.0676 99.251C56.5159 97.7891 59.4667 97.1384 62.3174 97.466C62.7177 97.2333 63.1268 96.9938 63.576 96.7475C63.974 96.49 64.3943 96.2211 64.8324 95.9387C65.2371 95.6359 65.5284 95.3128 65.8353 94.9626C65.4483 95.3467 65.0614 95.6517 64.6834 95.8912C64.2765 96.1307 63.9451 96.3069 63.7005 96.429C63.2091 96.6707 63.069 96.6933 63.2024 96.5419C63.3359 96.3905 63.7428 96.0607 64.3143 95.5997C67.423 91.4967 69.9713 86.4762 75.6327 85.7419L76.3888 85.5115L76.3932 85.5024Z" fill="currentColor"/>
<path d="M62.9571 90.8935C61.0692 94.7594 61.1759 94.7074 63.2795 91.0426C61.3672 94.5063 61.4161 94.3933 63.2395 90.9839C61.4161 94.2375 62.101 93.4873 63.94 91.1059C64.149 91.2708 65.5143 89.8045 66.8774 88.3381C69.6036 85.4054 72.3165 82.4795 72.2676 82.432C72.1675 82.3349 72.0563 82.2852 71.9318 82.2874C71.8073 82.2897 71.6961 82.3417 71.6005 82.4411C71.5071 82.5382 71.4626 82.6489 71.4671 82.7732C71.4715 82.8975 71.5227 83.0082 71.6227 83.1076C71.6716 83.1573 68.9743 86.0697 66.2793 88.9708C64.9317 90.4213 63.5842 91.8696 63.7332 91.0878C61.5784 94.0386 60.9202 94.7616 62.9549 90.8935H62.9571Z" fill="currentColor"/>
<path d="M84.4922 95.5615C84.5013 95.6247 84.5125 95.444 84.5193 95.0757C84.4945 95.2248 84.4719 95.3965 84.4922 95.5615Z" fill="currentColor"/>
<path d="M99.1287 85.8165C99.1287 85.8165 95.1284 82.0048 93.2427 80.4391C93.7074 80.4278 96.4781 82.6307 96.6738 82.4861C96.9473 82.285 97.143 82.0455 97.2631 81.7676C97.3832 81.4874 95.393 78.9885 95.3463 78.679C95.2996 78.3695 95.1728 78.0667 94.9638 77.7707C94.6681 76.9641 94.0877 75.744 94.1811 76.632C92.6779 76.9392 94.6681 76.9641 94.419 78.148C94.5191 78.4847 94.5969 78.7445 94.5702 79.0066C94.5435 79.271 94.4168 79.4856 94.1922 79.6505C94.0277 79.7703 93.136 79.5489 93.1515 79.6099C92.5311 78.871 92.2265 78.1525 93.236 78.1277C91.7328 76.65 91.5438 75.8638 93.8075 75.8299C92.0931 75.7214 93.0937 75.2289 94.4746 74.3861C93.7964 74.6324 94.5836 75.2469 95.3463 75.6875C95.7288 75.9406 96.1535 76.1485 96.5982 76.3202C97.0429 76.4919 97.5032 76.6274 97.9724 76.7404C100.47 77.3437 103.834 78.9185 105.791 79.8878C106.769 80.3713 107.394 80.7057 106.182 80.473C107.325 80.5859 107.227 80.5181 106.196 80.308C106.958 80.4481 106.838 80.4617 106.149 80.4165C106.714 80.5317 106.113 80.2063 105.19 79.7341C103.345 78.792 100.205 77.2691 97.8546 76.702C96.974 76.4896 96.1046 76.1846 95.3485 75.6853C94.9104 75.3599 94.3768 75.1701 94.6547 75.0187C93.4717 74.5962 93.1048 74.2144 94.4991 73.5637C93.5095 73.5117 93.981 73.5931 94.9416 73.7422C94.8793 73.8348 95.304 73.9907 95.7087 74.1489C96.1446 74.3296 96.5893 74.4923 97.0318 74.6437C97.4743 74.7951 97.9168 74.9374 98.3482 75.0752C100.937 75.857 105.137 78.74 105.064 78.8326C104.877 79.0608 104.808 78.7084 104.712 79.1083C104.712 79.1083 105.444 79.2936 106.164 79.4766C106.909 79.6664 107.641 79.8516 106.398 79.5105C107.69 79.6347 107.748 79.463 106.574 78.9207C107.49 79.2235 107.041 79.0744 106.418 78.8733C105.955 78.7264 105.322 78.5299 104.63 78.3175C105.195 78.4847 105.755 78.6474 106.296 78.8078C106.836 78.9682 107.363 79.1241 106.6 78.8371C107.841 79.2935 107.828 79.3139 106.571 78.9207C107.928 79.3817 108.028 79.4178 106.578 78.9366C108.081 79.4088 108.055 79.3636 106.609 78.8326C109.069 79.637 109.962 79.9126 106.698 78.7084C111.217 80.3238 111.577 80.4617 106.689 78.7648C111.363 80.726 111.292 80.3713 106.482 79.4269C111.199 80.7735 111.946 80.9565 106.505 79.3704C112.013 80.6605 112.097 80.4504 106.983 78.0215C112.297 80.2041 112.464 80.0956 107.488 76.998C112.793 79.9601 112.07 79.6347 107.341 77.2307C109.693 78.6677 108.035 78.026 106.253 77.3572C102.689 76.0197 98.6284 74.5759 96.8228 74.0608C98.8263 73.688 100.817 73.3581 100.817 73.3581C100.817 73.3581 99.3956 73.3897 97.6567 73.4191C97.0785 73.4191 96.4648 73.4168 95.8622 73.3558C96.2024 73.1344 96.7694 72.6464 96.8295 72.4091C96.9117 72.077 96.9095 71.7652 96.8272 71.4737C96.7427 71.18 96.5849 70.9315 96.3536 70.7236C96.1223 70.5157 95.8288 70.344 95.433 70.0458C94.6614 69.1849 93.7653 69.377 93.9409 69.368C93.5562 70.2333 94.4991 70.396 95.224 70.6468C95.86 70.9179 96.278 71.2772 95.8199 72.1312C95.2618 73.0327 94.5702 72.7458 94.6881 72.1244C93.0159 71.6929 92.1553 70.9224 93.663 70.0119C91.4148 70.4095 91.844 70.0119 93.5184 68.9161C92.2754 69.2324 92.2799 68.8551 92.8224 67.5921C92.1353 68.5478 92.5845 68.4529 93.5562 68.0507C93.4606 68.2654 93.8876 68.175 94.4212 68.2744C94.8793 68.2812 95.353 68.1976 95.811 68.062C96.2691 67.9264 96.7116 67.7389 97.143 67.5198C99.4645 66.4398 101.864 65.2581 104.065 64.1736C101.664 65.3552 99.4623 66.4398 97.0296 67.5695C96.2202 67.9829 95.3485 68.2767 94.4212 68.2721C93.8876 68.1727 93.3828 68.3648 93.5006 68.0982C92.3332 68.5749 91.7862 68.593 92.4622 67.1447C91.8996 67.5311 92.7001 67.1379 93.5629 66.6499C94.0832 66.6454 94.5524 66.6567 95.0127 66.6024C97.2742 66.5098 99.3711 65.728 101.372 64.7429C101.172 64.8424 101.27 65.0457 101.07 65.1429C102.071 64.6503 103.169 64.3611 103.878 63.2585C102.78 63.5477 101.871 64.7497 100.774 65.0367C102.375 64.2481 103.885 62.7524 105.568 62.0633C106.136 61.8486 106.86 61.9074 107.528 62.4225C109.031 60.1722 110.2 59.6819 110.803 62.0497C110.205 60.0253 109.927 59.7994 110.567 62.1243C110.109 60.1676 110.796 59.8197 111.466 61.8577C110.663 59.5486 110.594 59.3339 111.466 61.8351C111.028 60.4252 110.823 59.6728 110.89 59.6299C110.959 59.5779 111.294 60.2354 111.939 61.6498C111.379 60.0773 110.903 59.3746 110.445 59.5079C109.989 59.6322 109.549 60.5924 109.06 62.3457C108.306 61.1686 107.501 60.7822 106.651 60.8206C105.802 60.859 105.319 61.582 104.546 62.287C101.875 64.7475 98.1815 65.8116 94.4946 66.372C95.4953 65.8794 96.2958 65.4863 97.3943 65.1971C94.2945 66.4714 92.7201 65.2378 90.0228 63.9589C89.5358 64.0177 89.1111 64.2617 89.2245 64.0177C88.5463 65.667 89.6448 65.3778 90.2786 64.6164C90.1518 64.6277 90.6477 64.5554 91.1502 64.6684C91.6439 64.813 92.1576 65.0977 92.2732 65.3349C92.4955 66.0376 91.7729 66.3403 91.546 65.8049C89.8538 66.8465 88.6842 66.9843 89.3891 64.9079C88.086 67.0272 88.1438 66.4962 88.8243 64.2865C87.857 65.6331 87.5123 65.301 87.3077 63.62C87.5212 64.5419 88.275 63.9205 88.9955 63.1794C89.16 63.0303 88.9755 62.7773 88.7642 62.3163C86.9297 59.3 86.5806 55.4568 88.5085 52.2484L88.3084 52.3478C88.3217 51.3379 89.2179 51.1458 89.3268 50.3392C89.3202 50.8453 88.9199 51.0419 88.6175 51.4418C88.9199 51.0419 88.9266 50.5358 89.527 50.2398C88.9266 50.5358 89.0177 51.243 88.4173 51.5389C88.7198 51.139 88.8243 50.8363 89.2245 50.6397C88.9221 51.0396 88.8176 51.3424 88.5152 51.7423C88.6175 51.4395 89.0177 51.243 89.1222 50.9425C85.8957 54.5394 88.9243 58.821 89.2712 62.6575C89.1467 62.8812 89.0844 63.0077 88.7798 63.2788C88.0238 64.1713 87.2699 64.7927 86.7318 63.507C86.4783 64.4311 83.4408 59.8197 84.079 58.9589C84.4948 58.6787 84.875 58.2991 85.2108 57.9127C85.5466 57.5264 85.8334 57.131 86.0714 56.7356C86.3449 56.121 86.505 55.52 86.6896 54.971C86.8741 54.422 87.0498 53.9294 87.1943 53.5385C87.6035 52.5715 87.8592 52.0383 87.5768 52.6235C87.9348 52.2529 87.7302 52.3365 87.668 52.9104C87.9059 52.4179 88.2461 51.6632 87.9593 52.0292C88.4618 51.1119 88.8309 50.4861 88.9221 50.3008C89.0133 50.1155 88.8154 50.346 88.2461 51.1661C88.7553 50.3347 89.0022 49.9212 88.951 49.8896C88.8999 49.8579 88.5597 50.2014 87.9459 50.9108C88.9443 49.7472 88.6842 50.1652 87.6813 51.6926C88.0971 51.2023 87.7836 51.8259 87.2922 52.8268C87.7191 51.9524 87.986 51.3989 87.6279 51.801C88.5463 50.355 88.8309 49.867 87.9015 50.8566C88.5041 50.1404 88.8109 49.7856 88.8176 49.7924C88.8243 49.7992 88.5307 50.1697 87.9459 50.9086C88.5597 50.1178 88.8954 49.7043 88.9132 49.6727C88.931 49.641 88.6286 49.9822 88.0149 50.7233C88.633 49.9596 88.9421 49.5891 88.9266 49.5959C88.911 49.6026 88.5708 49.9867 87.9304 50.7459C88.3729 50.1313 88.7464 49.623 89.0289 49.2321C89.3113 48.8412 89.4958 48.5565 89.5625 48.3825C89.6982 48.0346 89.3557 48.0956 88.4285 48.604C89.6693 47.5104 90.3408 46.8778 90.4031 46.7558C90.4653 46.6338 89.925 47.0179 88.7442 47.9555C90.0339 47.1489 90.5921 46.7467 90.6032 46.8123C90.6165 46.8778 90.0806 47.411 89.1801 48.4616C90.2563 47.4765 90.8834 46.8258 90.9412 46.6722C90.999 46.5185 90.5054 46.8846 89.3602 47.9713C91.3748 45.678 91.1858 45.5583 88.3907 47.2461C90.9812 45.3165 90.9056 45.129 87.877 46.5276C90.8278 44.7607 90.4431 45.5447 87.5679 48.0075C88.5663 47.7341 88.9866 47.7793 88.931 48.1453C88.9444 49.0242 87.8459 49.3134 87.5368 50.2172C87.7369 50.1178 88.1372 49.9212 88.0349 50.224C87.0164 52.2326 86.5895 54.4491 85.5533 56.5164C85.262 57.1174 84.9973 57.6461 84.686 58.046C84.8261 57.0519 84.8283 56.0216 84.8328 55.2512C84.8372 54.4807 84.8439 53.9678 84.8439 53.9678C84.8439 53.9678 84.7483 54.6027 84.6038 55.5426C84.5304 56.0126 84.4459 56.5594 84.3058 57.131C84.2591 57.915 83.7543 58.4121 83.2651 58.821C83.4096 58.2065 83.0405 57.8224 82.5446 57.6913C82.0488 57.5603 81.4261 57.6778 81.0748 57.976C80.6723 58.4256 80.1186 58.9498 79.7139 59.1938C79.4337 60.1021 79.3003 60.7325 79.3893 59.8897C80.0942 60.8432 80.3299 59.9123 80.6367 58.986C80.9925 58.5815 81.4217 58.1816 82.1622 58.638C82.8982 59.2119 82.6647 60.0185 82.2355 59.5644C83.3741 55.2737 87.2744 78.8191 79.9029 60.2987C80.2676 63.019 79.9985 62.5852 79.0513 60.206C79.307 62.1717 78.8845 62.1921 77.4613 60.7506C78.2463 61.6295 78.4064 60.6715 78.4575 59.4424C78.6643 58.7058 78.7622 57.6981 78.5465 56.6384C78.2708 55.7008 77.9972 54.7699 77.7393 53.8978C76.9699 51.2859 76.3606 49.2321 76.3406 49.2682C76.2828 49.3722 76.2739 49.4919 76.3117 49.6275C76.3495 49.763 76.4207 49.8625 76.5274 49.9235C76.563 49.9461 77.1144 51.792 77.8238 54.2028C78.0595 55.0071 78.3152 55.8725 78.5732 56.7559C78.6755 57.8066 78.6688 58.8617 78.4598 59.5508C78.4753 60.9494 78.2885 61.9819 76.9699 61.0624C77.8327 62.5829 77.6148 62.1265 76.8854 60.6896C77.1967 61.2002 76.9988 60.728 76.7453 60.1089C76.9388 59.718 76.9921 59.1645 77.0055 58.6358C77.0188 58.1071 76.9966 57.6077 76.9388 57.1378C76.3117 54.4671 75.8025 52.219 75.9181 52.2394C76.2072 52.2891 75.9403 52.5286 76.3273 52.4111L75.9114 50.9379C75.7046 50.2014 75.4956 49.4648 75.4956 49.4648C75.2844 49.5281 75.1109 49.562 74.9797 49.5823C75.0353 49.9077 75.1332 50.3799 75.2555 50.9425C75.3778 51.5051 75.5267 52.1625 75.6913 52.8765C75.5512 52.2958 75.4111 51.722 75.2777 51.1639C75.1443 50.6058 75.0131 50.0681 74.9041 49.5846C74.9175 49.562 74.9419 49.5642 74.9797 49.5823C74.9486 49.4422 74.9308 49.336 74.9664 49.3473C74.8974 49.2953 74.873 49.3405 74.8841 49.4535C74.5973 48.3125 74.3838 47.3884 75.122 48.3306C74.615 47.2054 74.346 46.5456 74.3349 46.6699C74.3549 46.3965 74.6351 46.9072 75.2243 48.1205C74.8018 46.9343 74.5239 46.401 74.5216 46.6428C74.5483 46.4191 74.853 46.9727 75.5935 47.9578C75.0464 46.9139 74.7196 46.2045 74.6617 46.4982C74.644 46.0079 74.8952 46.5185 75.509 47.9171C74.7529 46.5637 74.3193 45.8949 74.1592 46.4033C74.088 45.9876 74.2859 46.7535 74.7952 48.2651C74.1325 46.7264 73.7567 45.9333 73.5944 46.3649C73.561 45.965 73.7411 46.7874 74.1903 48.482C73.5944 46.6722 73.3476 45.9785 73.332 46.4191C73.4254 46.2564 73.75 47.2257 74.3037 48.7373C73.7901 47.9374 74.0947 49.04 74.4238 50.2285C75.0842 52.6031 75.8514 55.3122 76.3918 57.3117C76.5452 57.9647 76.6764 58.5454 76.6697 59.0741C76.1716 58.1974 75.5223 57.4066 75.0398 56.8124C74.5572 56.2182 74.237 55.8228 74.237 55.8228C74.237 55.8228 74.5639 56.3718 75.0487 57.1852C75.291 57.5919 75.569 58.0686 75.8247 58.5996C75.9826 59.2209 76.0738 59.9304 76.0626 60.4749C75.8247 59.9281 75.4022 59.8219 75.002 60.0185C74.6017 60.2151 73.3809 64.5893 73.1252 65.0909C72.9184 65.6942 72.8583 66.4759 72.7138 66.912C73.2164 67.8722 73.6322 68.4823 72.9206 67.6779C74.3838 67.9875 73.9724 67.1221 73.4254 66.1325C73.5166 65.7778 74.3149 61.4239 74.9419 61.286C76.0071 61.3448 76.4207 62.0814 75.6357 61.756C76.8676 64.0583 76.0604 69.1691 73.3631 67.9423C75.9048 69.6233 75.46 69.4651 72.9028 68.1027C74.6106 69.6323 74.2103 69.9554 71.9756 69.5894C73.2675 69.7927 72.7805 68.9025 71.9644 67.8677C71.7132 67.1921 71.1328 66.3742 70.2544 65.8523C69.4495 65.3146 68.6512 64.7791 67.904 64.2798C65.6626 62.7818 63.8947 61.6046 63.9036 61.6475C63.9259 61.765 63.9948 61.8622 64.1082 61.9413C64.2239 62.0204 64.3417 62.0497 64.4618 62.0271C64.504 62.0204 66.094 63.0755 68.162 64.4583C68.8513 64.9192 69.594 65.4163 70.3523 65.9224C71.1283 66.5595 71.8088 67.3593 72.0111 67.9875C73.0007 69.1036 73.5099 70.0458 71.7888 70.1746C73.3498 71.0038 72.905 70.7213 71.4463 70.0006C72.1156 70.0684 71.7687 69.6978 71.1083 69.4606C71.0661 69.0765 70.7325 68.6608 70.3901 68.2902C70.0476 67.9197 69.6918 67.5921 69.345 67.2825C68.2598 66.4646 67.3348 65.649 66.6299 65.0683C66.2696 64.6978 65.7737 64.691 65.5803 64.2843C64.9977 63.0642 65.7804 64.1849 65.9805 64.0877C65.0889 63.7737 64.4106 62.3502 63.112 62.7366C63.8992 63.3534 64.8887 63.8708 65.7737 64.691C64.6886 63.9702 63.8036 63.1501 62.7184 62.4293L62.8163 62.6327C62.4227 62.3254 62.0291 62.0158 61.7556 61.7131C60.9662 61.1957 60.5014 60.8635 60.4458 60.789C60.3903 60.7144 60.7438 60.8974 61.5977 61.3922C60.1834 60.2286 60.1301 60.5856 61.8734 61.0782C60.3524 60.2399 59.712 59.8084 61.7222 60.8906C59.5475 60.0637 59.3985 60.2332 61.2464 61.634C60.1879 61.0127 59.6097 60.7144 59.5297 60.7754C59.4496 60.8364 59.8677 61.2476 60.8083 61.9887C59.6898 61.2544 59.2584 60.9517 59.3629 61.0398C59.4674 61.1279 60.1101 61.5775 61.1619 62.2598C63.7969 63.6562 66.1629 65.5066 68.5511 67.3367C69.2738 67.9106 69.9276 68.3987 70.4368 68.767C69.4317 68.593 68.5845 68.3467 67.9641 68.1298C67.6216 68.0507 67.2258 67.7434 66.9301 67.6373C67.6149 68.5546 68.7068 68.7715 69.4806 69.0652C69.9743 69.3341 70.5102 69.673 70.797 70.1271C70.6347 70.1452 70.0254 70.1113 69.9075 70.3101C69.4739 70.9021 69.4673 71.4082 69.823 72.0657C69.952 72.3436 70.1255 72.7277 70.2455 73.1141C71.1283 73.8551 71.8199 74.2686 71.1061 74.4562C72.5226 73.6699 71.6331 73.2293 70.5279 72.7864C70.3767 72.4046 70.0076 72.0228 70.5035 71.476C71.4619 70.927 72.2535 71.2907 71.2573 71.6003C73.8056 72.5989 74.5639 73.5433 71.6531 74.5194C74.4082 73.9952 73.2075 74.5872 71.5975 76.2366C73.1963 75.5972 72.7249 75.5158 71.1083 75.6604C71.7999 75.2808 71.3463 75.1317 70.5324 75.0413C70.3834 74.8425 69.9053 74.7725 69.4806 74.7657C66.6365 75.3079 63.7369 76.4851 60.7483 76.9505C63.8347 76.6862 66.6365 75.3079 69.5206 74.7634C69.9276 74.7725 70.3901 74.8425 70.5302 75.0413C71.393 75.2334 71.9733 75.2582 71.1862 75.6717C73.074 75.4684 73.5944 75.6514 71.8977 77.0567C73.4365 76.3563 72.9406 76.3495 71.3841 76.7246C71.9689 76.3563 71.4975 76.3676 70.7726 76.6229C70.5057 76.4941 70.0187 76.4715 69.5429 76.4693C69.067 76.467 68.6956 76.5258 68.311 76.5755C66.8189 76.7269 65.3223 77.2126 64.0237 77.6012C64.2239 77.5018 64.126 77.2985 64.3261 77.2013C63.2232 77.9966 61.5421 77.0658 60.7305 78.4689C62.1247 78.2836 63.3255 77.6939 64.6174 77.8114C63.1187 78.2972 61.6288 78.2791 60.2324 78.4621L60.5303 78.566C59.0383 78.5479 57.644 78.731 56.2565 78.4101C56.4566 78.3107 57.2393 79.4336 56.6567 78.2136C56.5589 78.0102 56.2631 77.9063 55.8629 78.1028C56.063 78.0034 56.361 78.1096 56.5611 78.0102L55.7606 78.4033L56.6523 78.7174C56.4521 78.8168 55.954 78.81 55.7539 78.9072L56.6456 79.2212C56.3476 79.1173 56.252 78.914 55.8517 79.1105C59.9255 79.3636 63.917 78.4056 67.755 77.2714C68.5533 77.0793 69.2983 76.9641 69.9231 76.9144C69.0448 77.4386 68.2131 77.9831 67.5905 78.4011C67.2947 78.7513 66.8945 78.9479 66.4942 79.1444C67.4949 78.6519 68.2954 78.2587 69.3561 77.8091C69.9031 77.6125 70.4835 77.4024 70.9282 77.3233C70.8192 77.5719 70.4501 78.2271 70.4746 78.4689C70.5079 78.8078 70.6147 79.1015 70.7926 79.3478C70.9705 79.5941 71.2039 79.7748 71.4908 79.8878C71.7776 80.003 72.1001 80.0414 72.3625 80.0776C73.4409 80.2425 74.8374 80.0595 73.7033 80.3645C74.6617 78.1367 73.3453 80.0392 72.2535 79.5466C72.0756 79.2664 71.8088 79.1987 71.5464 79.0744C71.3863 78.8869 71.2662 78.67 71.1862 78.4169C71.2173 78.1842 72.0311 77.7865 71.6109 77.9582C72.9673 77.5041 73.7678 77.5922 72.8072 78.8869C75.3622 77.7933 76.156 77.904 74.6017 80.3939C76.4518 78.261 75.4445 79.2574 75.4467 81.632C76.1294 80.177 75.678 80.3984 74.6195 81.4355C74.8152 80.8525 74.4016 81.0875 73.9124 81.4942C73.6478 81.5552 73.2519 81.8444 72.8806 82.1585C72.5092 82.4725 72.1601 82.816 71.831 83.173C69.1871 86.0176 66.5965 88.7989 66.6543 88.7989C66.7722 88.7989 66.8789 88.7447 66.9745 88.6453C67.0724 88.5436 67.1191 88.4306 67.1191 88.3063C67.1191 88.2499 69.4295 85.7668 71.92 83.0894C72.2313 82.755 72.5604 82.4296 72.9162 82.1291C73.2719 81.8286 73.6544 81.5507 73.9101 81.4965C74.5483 81.1417 74.9886 80.7057 74.7062 81.3858C75.9559 80.073 76.4807 79.8787 76.1249 82.0161C76.8676 80.6921 76.5141 81.1169 75.6957 82.2556C75.778 81.8422 75.3911 82.1427 74.9975 82.5087C74.3994 83.0419 73.7122 83.7062 73.0585 84.3343C71.8866 85.2765 70.4812 86.4717 69.176 87.3642L69.2782 87.0614C68.769 88.0646 67.3748 88.2499 67.2592 89.5626C68.0663 88.6633 68.9692 87.9674 69.7763 87.0682C69.067 88.1708 67.8662 88.7627 67.1858 89.8473C66.5076 90.7036 66.0228 91.456 65.6248 91.8039C65.0444 92.3529 64.7486 92.6015 65.2734 91.9395C64.6308 92.2784 64.9688 92.3936 65.0488 91.6503C64.673 92.1112 64.1438 92.676 64.9021 91.7384C64.3617 92.8862 64.4996 93.0647 65.4491 92.2535C64.6085 93.3606 64.6174 93.564 65.7737 92.6647C64.5685 93.921 65.0199 93.4894 65.8316 92.4117C67.6728 88.3538 71.6754 86.3836 74.6951 83.3899C74.4816 84.4992 73.6767 85.3985 72.7716 86.0944C73.1719 85.8978 73.5721 85.7012 73.9279 85.4143C74.217 85.1974 74.535 85.0686 74.8107 84.5625C75.0865 84.0564 75.3755 83.5299 75.6557 83.0261C75.7869 83.417 75.9181 84.1603 76.0916 84.3298C76.3317 84.567 76.6052 84.6551 76.8987 84.7161C77.1923 84.7771 77.4858 84.7794 77.7749 84.7094C78.064 84.6393 78.3308 84.4721 78.5732 84.2462C78.8556 83.9231 79.1202 83.5842 79.367 83.7559C79.6739 82.947 79.8807 82.3438 79.6316 83.4328C78.6933 81.9258 78.9712 83.5458 77.9861 83.8282C77.8149 83.8937 77.577 84.0157 77.3146 84.0428C77.0566 84.0541 76.8276 83.966 76.6252 83.7762C76.4829 83.6248 76.5385 82.6691 76.3918 82.9267C77.0455 81.7608 77.7015 81.3609 77.8149 82.8205C79.0824 80.6673 79.8073 80.3735 80.2165 82.9357C80.3076 80.1273 80.301 80.6311 80.2698 83.1594C81.2883 81.4016 81.4817 81.8083 81.4373 83.5119C81.2416 82.7663 80.808 83.3153 80.4366 84.2869C80.361 84.6303 80.2921 85.107 80.2342 85.5883C80.1764 86.0695 80.3143 86.187 80.4344 86.4468C81.8931 88.6362 83.3518 91.1803 83.9144 93.9165C83.7521 90.9837 81.4906 88.8328 80.4388 86.3565C80.2476 85.8436 80.2832 85.0731 80.4388 84.2891C80.7524 83.7197 80.8636 83.1413 81.0859 83.6226C81.2527 82.1088 82.3734 77.7843 83.3207 79.3252C83.1183 78.0464 83.0872 78.5005 83.1517 79.7432C82.9894 79.4427 82.0799 83.8056 82.1044 84.375C81.9954 85.2652 81.8931 86.2164 81.9843 86.8829C82.2 88.234 82.9805 89.357 83.5631 90.5771C83.4652 90.3737 83.1695 90.2698 83.0717 90.0664C83.7499 91.4899 84.0278 93.1098 84.5059 94.6327C84.5237 93.1166 84.0456 91.596 83.3674 90.1726C84.1435 91.7994 84.4214 93.4194 84.4992 95.1388L84.6015 94.836C84.7772 96.7588 83.9567 98.668 83.3385 100.478L83.2406 100.274C83.0405 100.374 82.9382 100.674 82.8337 100.977C86.565 96.8808 83.9478 91.3904 82.4846 87.0185C82.4223 86.474 82.4557 85.9068 82.5024 85.4324C82.6803 85.9181 82.856 86.4017 83.0205 86.8535C83.3963 87.6466 83.6876 88.2566 84.0745 89.07C83.8811 88.6633 83.6876 88.2566 83.5942 87.7279C83.532 87.5088 83.5342 87.0162 83.5631 86.3881C83.6476 84.5015 83.9455 81.3993 83.7765 80.4978C84.1368 80.778 86.7363 83.4667 86.9764 83.4848C87.3122 83.5096 87.6146 83.4554 87.8837 83.3198C88.1527 83.1843 88.3684 82.9832 88.5285 82.7143C88.6886 82.4454 88.782 82.1314 88.8087 81.7699C88.8376 81.3699 88.8132 80.952 89.0266 80.8028C88.8265 79.9488 86.7029 77.5402 87.1032 78.0599C86.2048 77.5335 87.9304 80.1386 88.2861 81.2412C88.1149 81.196 88.0571 81.4739 88.0682 81.7744C88.0171 82.0252 87.9126 82.2737 87.7258 82.459C87.539 82.6443 87.3077 82.7256 87.0298 82.7053C86.8274 82.6894 84.1101 79.7522 84.1168 79.8991C84.1301 78.8146 84.4459 78.087 85.3509 78.8033C85.0974 76.6342 85.4287 75.9044 87.1454 77.3776C85.9268 75.9112 87.012 76.632 88.5508 76.6885C87.7102 76.5393 89.7249 79.7545 90.2407 80.5588C90.4453 80.9316 90.6899 81.3383 90.9479 81.745C91.2058 82.1517 94.5324 86.1509 94.8193 86.544C95.2974 87.197 101.635 91.4921 103.832 93.3403C104.228 93.7244 104.185 94.0972 104.014 94.2938C102.791 95.672 101.777 97.1745 100.763 98.6793C101.181 96.9667 103.887 95.3851 102.011 93.4352C101.397 92.9833 100.699 92.4817 99.996 91.9756C97.8902 90.4596 95.7443 88.9164 95.7087 88.6204C95.5798 87.9222 95.2929 87.1789 94.7526 86.4401C94.2122 85.7012 90.6632 81.3157 90.2452 80.5611C90.174 80.0437 87.8014 77.3143 88.1527 77.416C87.4389 76.2343 90.4698 79.2777 92.1687 79.6822C91.4615 79.5421 94.2789 82.3641 94.6303 83.1684C95.1373 83.9479 95.6621 84.7523 96.1579 85.5137C96.5293 86.0853 96.6427 86.6547 96.6027 87.1834C96.576 87.5359 100.336 90.1952 102.769 92.0389C103.985 92.9607 104.83 93.6905 104.583 93.86C102.9 94.8632 100.189 96.9508 102.451 99.1018C102.844 99.4091 103.549 98.8126 103.954 98.1099C103.36 97.8998 103.167 97.4931 102.971 97.0864C103.263 97.6965 103.754 98.2071 104.348 98.4172L104.25 98.2139C107.034 98.3494 110.009 98.8939 112.477 100.442C112.179 100.338 111.884 100.232 111.483 100.428C112.175 100.842 112.962 101.458 113.654 101.87L113.46 101.463C113.563 101.16 114.061 101.167 114.359 101.273C112.911 97.7168 108.326 98.4669 105.466 96.6119C104.879 95.898 104.69 94.9852 105.188 94.1311C105.315 93.4804 104.726 92.9652 104.061 92.475C101.404 90.516 98.9753 88.7989 97.7367 87.5449C97.3253 86.727 96.9318 85.9724 96.576 85.3217C96.2202 84.6732 95.9 84.1287 95.6354 83.7356C97.4054 84.7591 99.1399 85.8052 99.1399 85.8052L99.1287 85.8165Z" fill="currentColor"/>
<path d="M80.6792 83.6158C80.2278 82.868 79.8209 83.164 79.4028 83.896C79.0871 83.8644 78.7602 84.2733 78.4578 84.7885C78.0931 85.324 77.7818 85.4166 77.3993 85.5973C76.5454 86.2503 75.4558 86.0334 74.5508 86.7293C75.4536 86.0334 76.5454 86.2503 77.5861 85.7307C77.9997 85.5838 78.3288 85.5906 78.7246 85.0912C79.5185 84.0926 80.4702 83.3718 80.5035 83.8892C80.5525 83.3741 80.1722 84.3524 80.0966 85.8504C80.0721 86.3497 80.2923 86.4107 80.4524 86.7067C83.6523 90.7872 85.171 96.5645 82.2291 101.278C82.4292 101.178 82.5315 100.878 82.7317 100.778C82.5315 100.878 82.6294 101.081 82.4292 101.178C85.9782 95.6653 82.367 90.1636 80.1611 84.924C80.5413 83.4351 81.1551 82.441 81.1617 83.5707C80.9816 82.4455 80.8415 82.4907 80.6837 83.6158H80.6792Z" fill="currentColor"/>
<path d="M79.7718 85.9295C83.5542 90.0778 85.1708 96.0607 82.4224 101.178L82.5247 100.876C82.0154 101.879 81.5062 102.884 80.6012 103.58C81.504 102.884 82.3112 101.985 83.0205 100.882C82.3112 101.985 81.7041 102.785 80.6012 103.58C81.802 102.988 82.2156 101.782 83.0205 100.882C82.5113 101.885 81.6063 102.581 80.8013 103.481C81.6085 102.581 82.2156 101.782 83.0205 100.882C82.4135 101.682 81.6063 102.581 80.7035 103.277C85.8357 98.4919 83.9389 90.8889 80.0808 85.9295C79.9474 85.8979 79.8429 85.8979 79.7695 85.9273L79.7718 85.9295Z" fill="currentColor"/>
<path d="M88.4729 84.9061C88.4729 84.9061 87.2432 87.9292 85.7044 91.7114C85.5132 92.4502 85.631 93.1461 85.5821 93.9708C85.6599 97.0798 84.2323 99.7888 82.807 102.5C83.4074 102.204 83.6142 101.601 84.0144 101.404C82.807 102.5 81.9953 103.905 80.988 104.902C81.7819 105.013 81.9953 103.903 82.6735 104.023C83.2161 103.612 83.8877 103.06 84.7215 102.392C84.0967 102.893 83.5541 103.372 83.0827 103.82C82.6113 104.267 82.2155 104.689 81.9042 105.103C81.2838 105.934 80.988 106.723 81.0414 107.559C81.1459 109.229 82.638 111.081 85.6911 113.822C79.3069 112.195 79.169 114.123 81.0814 118.422C79.169 114.123 79.4248 113.338 83.9055 116.359C80.2809 110.724 80.879 108.894 86.2425 104.879C85.2441 104.839 84.5414 104.66 84.0656 104.378C83.5897 104.095 83.334 103.716 83.2895 103.323C85.2285 99.8001 85.6777 95.5615 86.5116 91.6956C86.665 91.2098 86.8162 90.7444 86.9608 90.3038C87.8258 87.658 88.4039 85.8934 88.4039 85.8934L88.4751 84.9038L88.4729 84.9061Z" fill="currentColor"/>
<path d="M104.365 98.6431C104.458 98.5911 104.394 98.4985 104.218 98.3765C104.149 98.5888 104.129 98.7764 104.365 98.6431Z" fill="currentColor"/>
<path d="M101.414 101.942C100.456 98.58 103.762 96.7024 104.013 93.4466C103.584 93.0828 102.984 92.6264 102.279 92.1271C99.4683 90.1275 95.3367 87.3643 95.0276 86.944C94.4717 86.1871 90.9027 81.8829 90.4558 81.2797C89.9021 80.6719 87.8852 77.4568 88.2966 77.2331C87.4427 77.0455 89.2661 79.8562 89.3017 80.7239C89.0215 81.0921 88.9837 81.7248 89.066 82.2851C89.126 82.9336 89.1905 83.6588 89.255 84.3841C89.4462 86.5577 86.7578 90.3874 86.7578 90.3874C86.7578 90.3874 89.5085 84.9083 89.464 82.3439C89.4418 81.0605 87.714 77.685 87.9719 77.9448C87.7807 77.633 90.1044 80.8323 90.9939 82.0298C92.3214 83.817 93.431 85.3692 94.3539 86.7181C94.6607 87.1677 94.9498 87.597 95.2166 88.0037C95.8793 88.6567 97.7472 90.1433 99.6662 91.8243C100.307 92.3847 100.951 92.9676 101.559 93.5483C102.766 96.6889 100.235 100.193 101.903 102.134C103.764 104.482 107.184 101.291 110.458 101.94C112.343 102.267 113.422 103.494 114.3 104.818C112.15 101.861 108.359 102.721 105.55 104.606C104.549 105.098 103.562 104.581 102.813 103.745C102.23 103.259 101.772 102.627 101.412 101.942H101.414Z" fill="currentColor"/>
<path d="M115.456 107.288C114.74 101.592 108.974 101.418 104.305 100.954C101.225 100.713 102.67 96.4876 103.068 94.0813C102.668 93.7515 102.101 93.3244 101.414 92.8635C98.67 91.0199 94.634 88.3854 94.4561 88.0758C92.5927 84.8313 91.1518 82.3437 91.1139 82.3708C91.0005 82.4544 90.9361 82.5561 90.916 82.6826C90.896 82.8092 90.9272 82.9266 91.0072 83.0419C91.085 83.1526 91.1851 83.2158 91.3074 83.2339C91.4297 83.252 91.5453 83.2204 91.6588 83.1368C91.6988 83.1074 93.1353 85.586 94.9854 88.8124C95.0988 89.0022 97.378 90.4889 99.6528 91.962C100.411 92.4523 101.167 92.9426 101.845 93.3832C102.308 93.6498 102.701 93.9593 102.697 94.4632C102.568 96.7859 101.925 100.618 104.707 100.753C109.479 100.916 115.33 102.303 115.559 107.965C115.759 107.866 115.661 107.663 115.605 107.43C115.581 107.31 115.532 107.26 115.461 107.283L115.456 107.288Z" fill="currentColor"/>
<path d="M98.721 82.5879L99.4704 84.9716C99.6616 85.5816 105.915 89.9084 108.18 91.847C108.634 92.2356 108.928 92.527 108.981 92.6739C110.166 93.5528 109.05 95.3581 110.135 96.0788C116.355 99.7956 117.564 106.481 115.817 112.758C116.424 113.772 117.031 114.789 117.031 114.789L116.359 112.85C116.279 112.367 116.179 111.872 116.361 111.018C118.681 104.678 114.972 98.9709 110.146 95.0689C110.048 94.8655 110.055 94.3594 110.173 93.9505C110.231 93.6048 109.846 93.1303 109.408 92.6445C109.105 91.8831 100.173 85.9386 99.9618 85.3331C99.5415 84.122 99.2902 83.3945 99.2902 83.3945L98.7188 82.5902L98.721 82.5879Z" fill="currentColor"/>
<path d="M106.566 79.0044C108.419 79.5806 108.321 79.5286 106.582 78.9321C108.187 79.5512 108.274 79.6416 106.566 79.0044Z" fill="currentColor"/>
<path d="M94.89 75.4887C94.6121 75.387 95.3726 76.1959 96.8091 76.5325C97.5273 76.6997 98.3656 76.8985 99.2618 77.1132C100.756 77.4702 102.64 78.1164 104.487 78.8168C106.333 79.5172 108.143 80.2696 106.289 80.1769C110.831 81.4174 111.71 81.8105 106.16 81.1553C111.636 81.6885 111.539 81.6207 106.197 80.8254C111.27 81.5529 111.149 81.5665 106.171 80.9948C111.021 81.641 110.109 81.2389 106.284 80.1385C107.367 80.0798 105.535 79.3206 103.669 78.6157C101.803 77.9108 99.9022 77.26 98.3945 76.8985C97.4895 76.6816 96.6467 76.4805 95.9218 76.3111C95.1769 75.9609 94.5876 75.2446 94.6543 74.969C94.0384 75.3915 94.3564 75.9247 94.8122 76.4918C95.0012 76.9708 95.3281 77.4815 95.4949 77.9898C95.9507 78.4485 98.4879 81.1666 98.9971 81.6794C100.52 83.2204 102.026 84.7568 102.026 84.7568C102.026 84.7568 100.618 83.1594 99.2151 81.5439C98.7481 81.0061 96.2509 78.261 95.8373 77.7752C95.0412 76.7313 94.5943 75.4774 94.89 75.4909V75.4887Z" fill="currentColor"/>
<path d="M110.821 91.4268C114.046 86.3499 113.926 86.3634 110.339 91.0765C113.795 86.4402 112.738 85.8325 106.995 86.7814C109.603 83.9978 107.522 82.7687 105.442 81.5441C101.284 79.0926 97.1348 76.648 97.1192 76.7157C97.0859 76.8536 97.0992 76.9756 97.1637 77.084C97.2282 77.1925 97.326 77.2648 97.4617 77.2987C97.5907 77.3325 97.7085 77.3145 97.813 77.249C97.9175 77.1834 97.9865 77.0818 98.0198 76.9462C98.0287 76.9123 99.0649 77.5043 100.613 78.4103C102.163 79.3163 104.224 80.5341 105.963 81.7361C108.34 82.9743 110.395 84.1966 107.404 87.6174C113.47 86.0155 114.488 86.6142 111.5 91.8583C114.413 86.4877 114.315 86.4199 110.821 91.429V91.4268Z" fill="currentColor"/>
<path d="M98.4676 71.1463C98.4676 71.1463 101.57 73.6113 105.294 76.5689C107.155 78.0488 109.172 79.6507 106.319 80.1184C112.897 82.6105 114.603 83.9662 112.886 92.5113C117.084 85.9386 117.86 86.5555 119.415 92.9835C118.896 90.8393 118.761 89.3255 118.974 88.3698C119.346 87.3169 120.068 86.8266 119.375 87.8862C120.404 87.4705 121.278 87.2288 121.794 87.9088C122.703 87.3779 123.257 87.7688 123.637 88.7132C124.042 89.4746 124.271 90.7896 124.34 92.7123C124.438 91.5713 124.513 90.5908 124.54 89.7842C124.567 88.9775 124.547 88.3381 124.413 88.4488C124.364 86.6549 123.984 86.151 122.565 87.9495C122.65 86.4221 122.247 86.3837 121.28 87.5677C121.122 86.682 120.397 87.0164 119.528 87.4683C120.526 86.8243 121.38 86.2956 121.454 87.5315C122.626 85.8392 123.017 85.9115 122.743 87.9427C123.933 85.6427 124.46 85.2992 124.58 88.0263C124.969 85.5975 124.954 86.2369 124.68 88.3268C124.874 87.3169 124.809 87.7575 124.573 88.7177C124.351 89.3571 123.957 90.5162 123.451 91.9103C123.957 90.5162 124.36 89.3503 124.585 88.7109C124.825 87.7349 124.889 87.2852 124.68 88.3201C124.978 86.0923 125.003 85.3489 124.527 87.9879C124.384 84.9129 123.742 85.2201 122.179 87.7484C122.726 85.1614 122.35 84.7976 120.564 86.978C120.996 84.6869 120.017 84.94 118.341 85.8754C119.988 84.8812 120.94 84.5694 120.326 86.8379C122.136 84.5333 122.381 84.8067 121.385 87.4321C123.213 84.5084 123.8 83.9368 123.03 87.6716C123.853 83.9187 123.319 84.47 121.509 87.475C122.657 84.5943 122.528 84.1673 120.593 86.8944C121.476 83.9616 120.551 84.1853 118.385 85.6698C120.497 84.1085 121.356 83.8125 120.195 86.6662C122.196 83.8261 122.179 84.1379 120.513 86.9915C122.703 83.7515 123.244 83.0556 121.391 87.0774C122.93 82.6896 122.076 83.0217 118.894 85.8912C121.229 82.7122 121.236 82.0728 117.642 84.4316C120.271 81.2752 119.299 81.1171 115.854 81.9756C119.337 80.9973 120.188 80.9928 116.931 83.4827C120.658 81.1261 120.28 81.2639 116.537 83.1505C120.328 80.8007 120.755 80.1997 115.961 81.4424C120.277 79.0565 119.37 78.5119 115.049 77.8725C119.397 77.929 120.331 77.8884 115.336 77.5336C120.7 77.45 120.133 77.0524 115.316 75.7329C120.72 76.2774 121.869 75.9001 118.036 71.1327C122.579 74.2146 122.134 72.9064 119.97 68.9705C121.965 72.6488 122.223 73.7197 118.341 70.6695C121.44 74.933 120.402 75.0731 115.912 73.7401C119.672 75.6357 119.984 76.0582 115.583 75.1658C119.61 76.5892 118.93 76.6976 115.147 76.3361C118.616 77.2151 118.074 77.4523 114.983 77.5246C116.997 77.7302 116.464 77.7709 114.769 77.7325C114.914 77.6805 113.951 77.328 112.937 76.7338C111.923 76.1396 110.858 75.3013 109.617 74.2665C110.242 76.4017 108.076 75.3985 106.15 74.5083C102.299 72.7279 99.4082 71.3903 99.4082 71.3903L98.4609 71.1485L98.4676 71.1463Z" fill="currentColor"/>
</svg>
