<svg width="279" height="97" viewBox="0 0 279 97" fill="none" xmlns="http://www.w3.org/2000/svg">
<g clip-path="url(#clip0_675_9364)">
<path d="M251.846 47.4086C250.602 46.329 249.688 45.1887 248.72 44.2182C247.757 43.2477 246.693 42.4471 245.157 42.0529C244.135 41.5919 243.035 41.2947 241.9 41.1552C238.505 40.7245 234.769 41.6343 232.08 43.454C235.218 41.6343 238.356 39.7298 241.272 37.5462C242.247 36.8184 243.191 36.0602 244.105 35.2657C244.793 34.6106 245.462 33.9616 246.12 33.3126C250.005 29.5035 254.786 26.4708 258.97 23.4381C254.189 26.4708 248.212 27.6839 245.343 32.2693C244.488 33.2155 243.633 34.1375 242.755 35.023C239.24 38.5713 235.343 41.5737 230.239 43.3327C229.551 44.1636 228.894 44.9703 228.248 45.7588C225.021 49.6892 222.116 53.0616 217.137 55.5909C215.942 53.1647 219.528 50.7385 216.539 48.3124L217.137 48.9189C215.344 47.7058 213.551 46.4927 211.591 45.9469C210.73 45.589 209.863 45.2797 208.991 45.0492C206.373 44.3698 203.683 44.3698 200.993 45.8862C203.235 43.6117 205.811 42.7019 208.357 41.9983C209.206 41.7617 210.048 41.5555 210.879 41.3189C212.146 39.4265 213.688 37.7828 215.344 36.2361C216.169 35.4597 217.024 34.7137 217.884 33.9737C220.12 32.5423 221.913 31.3292 222.935 29.4489C223.73 28.6604 224.489 27.8355 225.188 26.9682C226.587 25.2274 227.74 23.2986 228.487 21.024C227.663 21.9339 226.832 22.874 225.989 23.8263C222.511 27.696 218.924 31.3353 215.129 35.0716C214.149 35.9207 213.145 36.7274 212.111 37.4795C210.054 38.9838 207.891 40.2696 205.614 41.228C204.831 41.513 204.06 41.8406 203.324 42.2166C201.107 43.3448 199.14 44.9157 197.688 47.1417C197.108 48.0334 196.612 49.0281 196.212 50.1381C195.315 51.0479 193.821 51.3511 192.398 51.806C190.976 52.261 189.631 52.8675 189.033 54.396C189.637 53.1708 189.637 51.9577 190.235 50.7385C190.683 49.5315 190.832 48.3184 189.637 47.1053C184.258 42.8596 176.488 42.8596 171.706 47.7119C173.302 43.6663 176.751 42.3197 180.349 40.7124C181.245 40.3121 182.154 39.8936 183.044 39.4083C188.442 33.1549 196.212 30.1222 198.005 21.024C194.419 27.696 187.844 31.3353 184.114 37.4067C182.829 37.9223 181.67 38.4925 180.594 39.1172C175.215 42.253 171.861 46.8081 166.65 51.3754C166.141 51.4725 165.621 51.6726 165.101 51.9395C163.804 52.6067 162.615 53.6985 161.378 54.675C160.35 56.2035 159.154 56.81 157.361 56.81C157.959 56.2035 158.557 54.9904 159.19 54.6871C160.26 53.5408 161.408 52.2488 162.011 51.0175C162.615 49.7863 162.669 48.6217 161.551 47.7119C156.77 43.4661 148.402 44.0726 144.218 50.1381C144.816 44.0726 151.39 41.6465 156.184 39.1839C156.746 38.6198 157.373 37.7282 158.007 36.8305C159.178 34.6894 160.517 32.8577 162.077 31.2625C162.86 30.4618 163.697 29.7219 164.617 29.0304C167.528 27.696 169.919 25.2698 171.114 22.2371C169.321 24.6633 165.735 26.4829 163.691 28.6907C162.902 29.3761 162.119 30.0737 161.354 30.7954C159.83 32.2451 158.371 33.81 157.08 35.6599C156.441 36.3999 155.777 37.0913 155.066 37.7282C153.638 39.002 151.994 40.0391 150.004 40.7185C149.221 41.3978 148.497 42.1499 147.804 42.9505C145.73 45.3524 143.949 48.1425 141.887 50.3928C141.355 50.3382 140.542 50.2533 139.657 50.1926C136.352 49.6953 132.832 50.599 130.525 52.8675C129.754 53.6257 129.12 54.5355 128.672 55.5969C128.074 54.8388 127.96 54.0442 128.086 53.2375C128.451 50.8235 130.913 48.3184 128.672 46.4988C124.488 42.8596 118.511 42.253 114.327 45.8923C116.12 42.8596 120.304 43.4661 122.958 41.9194C124.004 41.7314 125.038 41.5616 126.018 41.3311C126.347 41.2037 126.508 41.2765 127.088 40.579C129.371 37.4735 131.714 34.2527 134.153 31.123C134.762 30.3405 135.384 29.5642 136.017 28.7999C138.235 27.0895 139.43 23.4502 143.017 22.2371C138.235 22.8437 135.844 26.4829 133.555 29.3215C132.945 30.1828 132.342 31.0684 131.738 31.9539C129.921 34.5985 128.068 37.1945 125.91 38.8867C125.295 39.4508 124.721 39.936 124.201 40.1847C123.191 40.0634 122.24 40.0816 121.35 40.215C120.459 40.3485 119.611 40.6032 118.816 40.955C110.149 45.2857 108.356 58.0231 98.7927 60.4493C104.172 58.0231 108.954 51.9577 105.332 45.7588C104.728 44.849 103.951 44.109 103.066 43.5328C99.5219 41.2401 94.2144 41.6465 91.0226 45.2857C92.8157 41.6465 96.9996 41.0399 99.5578 38.8018C100.424 38.2256 101.243 37.6069 102.014 36.9397C105.869 33.6341 108.577 29.1335 108.954 23.4502C106.336 27.6232 103.957 32.7364 100.514 36.4363C99.8208 37.1763 99.0916 37.8677 98.2967 38.4803C92.8158 42.253 86.2411 41.6465 80.2282 43.8785C79.6962 44.1151 79.1763 44.3759 78.6742 44.6731C76.0802 46.4927 74.8848 48.9189 73.6894 51.9516H71.2986C71.8963 51.3451 73.0917 50.7385 73.0917 50.7385C72.494 47.7058 69.5055 47.0993 66.762 47.8453C66.1105 47.9424 65.4471 48.0637 64.8076 48.1547C64.1621 48.2456 63.5345 48.3124 62.9368 48.3124C63.5345 45.2797 65.9253 44.0666 68.3459 42.1924C68.9138 41.7556 69.4876 41.3189 70.0374 40.864C71.6931 39.4932 73.1813 37.9284 73.9524 35.7024C74.299 35.2111 74.6397 34.7258 74.9804 34.2406C77.2756 30.1161 80.2641 26.4769 83.8503 23.4442C79.0687 24.6572 77.8733 29.5096 74.4305 32.5362C74.1018 32.9911 73.779 33.4521 73.4563 33.9131C72.2011 36.1269 70.402 37.9405 68.591 39.7237C67.9873 40.3181 67.3777 40.9065 66.786 41.513C64.7239 44.6792 61.7354 47.1053 61.7354 50.7446C61.7354 48.925 61.1377 47.1053 59.8467 45.3342C59.2669 44.7459 58.5855 44.2667 57.8324 43.9089C55.5731 42.8353 52.6982 42.811 50.2416 43.9695C49.4646 44.0666 48.6996 44.2061 47.9584 44.4123C44.2527 45.4434 41.1148 48.3245 39.6205 53.1768C40.8159 48.931 41.4136 44.0787 45.5975 41.6525C40.2182 43.4722 37.2297 48.931 33.7272 53.0313C33.2431 53.6621 32.741 54.2747 32.2031 54.8509C31.6652 55.4271 31.0973 55.9609 30.4757 56.4461C29.9378 56.9435 29.4058 57.453 28.8858 57.9746C28.2284 58.6357 27.5888 59.309 26.9732 60.0065C23.8771 63.4881 21.2771 67.4306 19.6634 71.9918C19.3227 72.7863 19.0059 73.593 18.707 74.3997C19.2031 73.7447 19.7052 73.0835 20.2013 72.4224C22.084 70.2874 24.0983 68.1342 26.2619 66.1629C26.9792 65.5078 27.7203 64.871 28.4734 64.2584C29.1727 63.7549 29.9019 63.3243 30.655 62.9543C31.4081 62.5843 32.1851 62.2689 32.9801 61.996C34.8808 61.2681 36.8233 60.6919 38.7539 60.1339C39.3994 59.9458 40.0389 59.7639 40.6844 59.5819C43.2007 59.679 45.7051 58.199 48.1557 56.7008C48.9745 56.2035 49.7874 55.7 50.5943 55.2512C51.5207 54.7538 52.6683 54.1594 53.8577 53.7349C54.4494 53.5226 55.0531 53.3588 55.6448 53.2678C58.1612 52.5521 58.7588 54.3717 59.9542 55.5848C60.2531 53.1586 61.5979 51.6423 63.391 50.8841C63.9887 50.6354 64.6402 50.4656 65.3156 50.3867C66.5289 50.1259 68.322 50.1259 69.5174 50.7325C67.7243 53.1586 64.7358 54.3717 62.9667 56.7494C62.4467 57.2589 61.9267 57.7684 61.4067 58.2718C59.8467 59.7821 58.2568 61.2014 56.5235 62.3902C55.854 63.021 55.1906 63.6518 54.5271 64.2887C52.5368 66.1993 50.5644 68.1463 48.592 70.1479C48.1975 70.5543 47.7971 70.9546 47.3966 71.361C47.6954 70.9061 48.1437 70.6028 48.6637 70.3541C49.1837 70.1054 49.7695 69.9113 50.3433 69.6808C52.1483 68.583 53.8338 66.8908 55.5193 65.0287C56.0812 64.41 56.643 63.7731 57.2108 63.1302C57.7846 62.3781 58.3883 61.6806 59.0218 61.0376C59.6554 60.4008 60.3188 59.8185 61.0002 59.2968C61.837 58.6782 62.6977 58.199 63.5644 57.829C64.431 57.459 65.3156 57.2043 66.2062 57.0466C67.9276 56.2277 70.0434 56.3672 72.2908 56.8889C73.4144 57.1497 74.574 57.5075 75.7335 57.8897C79.6723 59.218 86.8447 62.2507 89.2355 56.1853C89.8332 58.0049 91.0286 59.218 91.6263 61.0376C91.0286 60.4311 91.0286 59.8245 90.2994 58.9814C90.0185 58.1383 89.905 57.2043 89.9827 56.4097C90.1321 54.8206 91.0286 53.7531 92.8217 54.9661C93.7183 55.5727 94.2024 56.3672 94.3698 57.2225C94.5371 58.0777 94.3877 58.9875 94.0171 59.8185C88.6378 64.0643 82.0631 65.8839 76.6839 70.1297C83.1569 69.6263 87.556 64.4828 92.9174 62.0869C93.9872 61.6078 95.099 61.2378 96.2764 61.0376C97.1969 60.9345 98.0934 60.7647 98.972 60.5645C102.983 60.4311 107.167 58.0049 110.155 54.9722C111.35 56.1853 111.948 58.0049 112.546 59.218C111.948 58.0049 112.546 56.7918 113.741 56.1853C119.12 55.5787 126.293 57.3984 128.684 51.3329C128.684 52.3944 128.684 53.4922 128.612 54.5719C128.54 55.6637 128.385 56.7312 128.074 57.7562C127.488 59.218 126.891 60.4311 125.695 61.0376C117.925 65.2834 107.167 64.6769 102.983 74.3815C105.373 71.9554 107.167 69.5292 110.155 68.3161C116.73 65.89 122.707 62.8572 127.865 58.7388C128.923 57.9988 129.987 57.2892 131.074 56.6281C132.162 55.9669 133.274 55.3604 134.434 54.8327C135.24 54.4263 136.065 54.0503 136.92 53.7106C137.775 53.3709 138.653 53.0737 139.574 52.8129C140.351 52.7098 141.122 52.6188 141.69 52.5582C143.626 51.9334 143.626 53.7531 144.224 54.9601C144.224 54.3596 144.224 53.1465 143.626 52.54C144.421 52.8432 145.204 53.0434 145.975 53.1708C149.603 53.753 153.787 52.54 157.373 52.54C154.385 54.3596 149.603 55.5727 147.212 57.3923C141.833 61.0316 137.051 66.4904 131.816 70.4633C130.877 71.1729 129.945 71.9008 129.024 72.6529C128.104 73.405 127.189 74.1814 126.293 74.9881C128.038 74.7333 129.622 74.1147 131.116 73.2534C131.863 72.8227 132.587 72.3314 133.292 71.7916C139.442 63.4699 148.408 58.6175 158.569 57.4044C160.959 56.7979 162.753 55.5848 164.522 53.5468C164.809 53.3588 165.024 53.1708 165.257 52.9706C165.974 52.8675 166.667 52.7098 167.313 52.5946C167.923 52.4854 168.461 52.4187 168.837 52.5036C170.529 53.1586 170.529 54.3717 170.529 55.5848C170.529 54.3717 171.126 53.1586 171.724 52.5521C173.714 52.3519 175.842 52.5521 177.964 52.7523C179.028 52.8554 180.092 52.9524 181.138 53.0009C182.71 53.0798 184.24 53.1162 185.674 52.8311C187.109 52.546 188.46 51.9395 189.655 50.7264C187.264 58.6114 178.299 59.8245 171.706 61.0376C170.714 61.3409 169.752 61.6927 168.813 62.093C164.133 64.0764 160.063 67.1091 155.58 70.1418C160.362 69.3351 164.079 66.636 167.917 64.3857C168.873 63.8216 169.841 63.2879 170.833 62.8148C180.684 63.4698 189.051 48.3063 198.017 56.7979C198.017 55.5848 198.017 54.9783 198.017 53.7652C199.511 54.0685 201.005 54.2201 202.547 54.2868C207.58 54.3717 212.362 54.3717 216.545 51.9456C217.143 61.6502 206.982 61.0437 200.127 61.6563C199.051 61.9232 197.993 62.2325 196.983 62.6025C192.942 64.0764 189.655 66.5026 189.057 71.3549C191.149 68.0189 193.988 65.7444 197.21 64.0339C198.286 63.4638 199.397 62.9604 200.545 62.4994C207.586 60.4311 214.758 60.4311 221.931 55.5787C224.919 53.1526 226.712 58.6115 229.103 61.0376V58.6114C230.299 58.9147 231.566 59.2908 232.881 59.6365C234.196 59.9822 235.54 60.2916 236.897 60.4553C237.889 60.5524 238.846 60.5524 239.784 60.4735C240.722 60.3947 241.631 60.243 242.527 60.0368C243.376 59.6972 244.321 59.4667 245.307 59.2908C246.299 59.1149 247.333 58.9936 248.379 58.8783C252.413 58.011 261.379 58.011 260.183 51.9456C260.183 50.7325 257.793 50.1259 255.707 49.8954C253.441 48.6642 251.846 47.4147 251.846 47.4147V47.4086Z" stroke="currentColor" stroke-width="2"/>
</g>
<defs>
<clipPath id="clip0_675_9364">
<rect width="278.1" height="96.1" fill="white"/>
</clipPath>
</defs>
</svg>
