<svg width="143" height="143" viewBox="0 0 143 143" fill="none" xmlns="http://www.w3.org/2000/svg">
<path d="M83.2645 118.272C82.4229 118.272 81.6864 117.969 81.1428 117.389C80.4502 116.65 80.1872 115.569 80.4283 114.418C80.4677 114.216 80.5335 114.022 80.6212 113.816C81.1253 112.638 82.2738 111.908 83.6196 111.904C85.0005 111.904 86.1797 112.655 86.7013 113.868C86.8854 114.299 86.9731 114.69 86.9687 115.064C86.9512 116.321 85.0311 118.052 83.7949 118.233C83.6152 118.259 83.4355 118.272 83.2645 118.272ZM83.6196 112.783C82.8437 112.783 81.8617 113.147 81.4278 114.158C81.362 114.308 81.3182 114.453 81.2875 114.594C81.1078 115.459 81.2875 116.255 81.7828 116.782C82.2344 117.266 82.9051 117.468 83.6722 117.358C84.5665 117.231 86.0832 115.78 86.092 115.046C86.092 114.8 86.0306 114.523 85.8991 114.211C85.4476 113.156 84.4262 112.778 83.624 112.778L83.6196 112.783ZM95.8939 105.153C95.1662 105.153 94.1623 104.436 93.6407 103.891C93.2681 103.496 93.119 103.175 93.176 102.885C93.4171 101.619 94.3552 100.028 95.4468 99.6719C96.1525 99.439 96.9284 99.9356 98.0024 100.621C98.5022 100.938 99.0677 101.303 99.7033 101.637C99.8348 101.707 99.9225 101.834 99.9356 101.984C99.9488 102.133 99.8874 102.274 99.7734 102.366C99.2167 102.814 98.7521 103.25 98.34 103.628C97.4633 104.441 96.832 105.03 96.0386 105.139C95.9947 105.144 95.9465 105.148 95.8983 105.148L95.8939 105.153ZM94.0484 102.995C94.2193 103.399 95.4906 104.326 95.9114 104.274C96.4331 104.199 96.981 103.689 97.7438 102.986C98.0375 102.713 98.3619 102.414 98.7258 102.098C98.2918 101.843 97.8929 101.593 97.5334 101.36C96.7619 100.867 96.0342 100.402 95.7229 100.503C95.0172 100.736 94.2588 102.015 94.0528 102.99L94.0484 102.995ZM83.6722 93.9978C83.6722 93.9978 83.6591 93.9978 83.6547 93.9978C83.5144 93.9934 83.3873 93.923 83.3084 93.8044C82.9883 93.3297 82.664 92.9209 82.3527 92.521C81.682 91.6683 81.1034 90.9343 81.0332 90.0992C80.9587 89.2246 82.3834 88.1258 82.4448 88.0819C83.1725 87.5281 83.5232 87.5632 83.7204 87.638C84.9259 88.0951 86.0832 89.2642 86.4164 90.3673C86.6005 90.9871 86.0394 91.5892 85.189 92.499C84.8207 92.8946 84.4043 93.3385 84.0141 93.8307C83.9308 93.9362 83.8037 93.9978 83.6722 93.9978ZM83.4706 88.4862C83.0716 88.5917 81.9275 89.6597 81.91 90.0333C81.9582 90.5959 82.4404 91.2068 83.0453 91.9804C83.2514 92.2441 83.4749 92.5298 83.7029 92.8374C83.9966 92.499 84.2859 92.1869 84.5489 91.9013C84.9785 91.4398 85.566 90.8113 85.5703 90.6003C85.3292 89.8004 84.3911 88.8554 83.4662 88.4818L83.4706 88.4862ZM111.088 83.3219C110.952 83.3219 110.825 83.2604 110.741 83.1505C110.597 82.9615 110.448 82.7945 110.316 82.6538C110.001 82.3022 109.724 81.999 109.768 81.6122C109.834 81.0452 110.47 80.5749 110.899 80.4167C110.921 80.4079 110.939 80.4035 110.961 80.3991C110.917 79.964 110.781 79.5245 110.641 79.0718L110.614 78.9883C110.185 77.6082 109.667 76.1578 108.94 74.2942C108.782 73.8943 108.418 73.5075 108.155 73.257C107.572 72.69 107.344 72.0439 107.392 71.1033C107.427 70.4968 107.309 69.8727 107.077 69.4244C106.757 68.8135 106.467 68.1762 106.182 67.5608C105.367 65.7852 104.595 64.1106 103.201 62.7833C102.877 62.4712 102.715 62.0361 102.57 61.6493L102.548 61.5878C102.211 60.6868 101.663 59.9396 100.817 59.2452C100.216 58.7529 99.848 57.9706 99.5674 57.2718C99.2737 56.5378 98.8967 55.8082 98.1603 55.439C97.323 55.017 96.7969 54.3797 96.5032 53.426C96.2577 52.6305 95.6572 52.1162 94.8243 51.5932C94.3465 51.2899 93.6933 50.7889 93.2856 50.112C92.6456 49.0572 91.988 48.4419 91.0806 48.0595C89.8094 47.5233 89.4543 46.8157 89.8137 45.5498C90.1206 44.473 90.1995 43.3742 90.2872 42.2095C90.388 40.8514 90.4932 39.445 90.9842 38.0956C90.9842 38.0956 90.9842 38.0913 90.9842 38.0869C90.9623 38.0781 90.9447 38.0693 90.9228 38.0605C90.7913 37.999 90.6554 37.9374 90.559 37.933C89.1869 37.8671 87.8104 37.7133 86.4778 37.5682C85.3731 37.4496 84.2333 37.3221 83.1111 37.2474C82.3001 37.1946 81.4891 37.2474 80.6343 37.3089C79.3192 37.4012 77.9647 37.4979 76.5969 37.1595C76.5443 37.1463 76.4479 37.1595 76.3602 37.1595L76.2243 37.1683C74.6725 37.2562 73.2347 36.9177 71.8363 36.131C71.3453 35.8541 70.8017 35.6651 70.2275 35.4585C70.0653 35.4014 69.8987 35.3443 69.7365 35.2827C69.4253 35.1685 69.1096 35.0674 68.794 34.9663C68.3162 34.8125 67.8208 34.6542 67.3474 34.4477C66.1024 33.9202 64.6339 33.3884 62.9988 33.406C62.4947 33.4192 62.0125 33.2698 61.5478 33.1291C61.4514 33.0983 61.3549 33.072 61.2585 33.0412C60.8508 32.9269 60.4606 32.7907 60.0047 32.6325C59.939 32.6105 59.8688 32.5841 59.8031 32.5621C59.768 32.716 59.7329 32.8698 59.6935 33.0192C59.5445 33.6433 59.4129 34.1796 59.4392 34.6938C59.5225 36.1574 59.1631 37.4232 58.7817 38.7637L58.6546 39.2164C58.2995 40.4998 57.6858 41.2382 56.5416 41.7744C56.3093 41.8843 56.0726 41.9766 55.8359 42.0689C55.5465 42.1831 55.2748 42.2886 55.0161 42.4205C54.5339 42.671 54.0473 42.9435 53.5783 43.2116C53.1925 43.4314 52.8024 43.6511 52.4122 43.8577C51.9081 44.1258 51.3952 44.3719 50.8867 44.5785C50.5141 44.7323 50.1371 44.873 49.7601 45.0136C49.1683 45.2334 48.559 45.4619 47.9891 45.73C47.3666 46.0245 46.7003 46.4157 45.8937 46.9695C43.886 48.354 41.8081 49.8307 40.1423 51.0174C40.0283 51.0965 39.9187 51.224 39.8048 51.3559C39.7434 51.4262 39.682 51.4965 39.6206 51.5624C39.0157 52.1997 38.3231 52.7535 37.6568 53.2853C36.5871 54.1424 35.5745 54.9511 34.8775 56.0895C34.7986 56.2169 34.689 56.2784 34.632 56.3136C33.3958 57.1531 32.4928 58.2651 31.5328 59.443C31.4495 59.5441 31.3706 59.6451 31.2873 59.7462C31.41 59.8517 31.5021 59.988 31.6073 60.1374C31.6687 60.2253 31.7344 60.322 31.8221 60.4363C31.9185 60.5637 31.9404 60.7308 31.8791 60.8802C31.8177 61.0296 31.6774 61.1263 31.5196 61.1439C31.3706 61.1571 31.2434 61.1791 31.1338 61.201C30.8577 61.2494 30.5947 61.2933 30.3536 61.1439C30.2922 61.1087 30.244 61.0604 30.2045 61.012C29.9459 61.2933 29.6785 61.5658 29.4023 61.8251C29.3146 61.9043 29.2401 62.0537 29.1612 62.2119C29.0954 62.3394 29.0297 62.4756 28.942 62.6075C28.7973 62.8229 28.6395 63.025 28.4817 63.2316C28.3984 63.3415 28.3151 63.4514 28.2319 63.5612L27.6795 64.304C27.5875 64.4271 27.4998 64.5458 27.4077 64.6688L27.5918 64.7523C27.434 65.0908 27.1052 65.4072 26.7326 65.583C26.4696 65.939 26.211 66.295 25.9523 66.651L25.2422 66.1368C25.4395 65.8687 25.6323 65.6006 25.8296 65.3325C25.6323 65.1303 25.4088 64.827 25.4789 64.5194L26.2899 64.7084C26.3074 64.682 26.325 64.66 26.3425 64.6337C26.3425 64.5897 26.3337 64.5589 26.325 64.5458C26.3337 64.5589 26.3469 64.5809 26.36 64.6029C26.5661 64.326 26.7677 64.0535 26.9737 63.7766L27.5261 63.0338C27.6094 62.9195 27.697 62.8053 27.7847 62.691C27.9338 62.4976 28.0784 62.3086 28.2143 62.1108C28.2757 62.0185 28.3239 61.9174 28.3765 61.8164C28.4817 61.6054 28.6001 61.368 28.8061 61.1791C29.5513 60.489 30.2089 59.6759 30.8489 58.8892C31.8045 57.7113 32.7909 56.4938 34.1191 55.5928C34.1323 55.584 34.1498 55.5752 34.1674 55.562C34.9433 54.327 36.0436 53.448 37.1088 52.5953C37.7532 52.0811 38.4195 51.5492 38.985 50.9515C39.0376 50.8944 39.0902 50.8328 39.1428 50.7713C39.2787 50.6131 39.4365 50.4373 39.6338 50.2966C41.304 49.1099 43.3818 47.6288 45.3983 46.2399C46.2444 45.6597 46.9502 45.2422 47.6165 44.9257C48.2214 44.6444 48.8483 44.4071 49.4532 44.183C49.8215 44.0467 50.1897 43.9061 50.5535 43.7566C51.0314 43.5588 51.5179 43.3303 51.9958 43.0754C52.3815 42.8688 52.7629 42.6534 53.1443 42.4381C53.6221 42.17 54.1131 41.8931 54.6084 41.6338C54.9065 41.4799 55.2134 41.3613 55.5115 41.2426C55.7307 41.1547 55.9498 41.0712 56.1646 40.9701C57.0721 40.5438 57.5192 40.0031 57.8041 38.9703L57.9313 38.5132C58.2907 37.2474 58.6283 36.0475 58.5537 34.7333C58.5187 34.0873 58.6677 33.4631 58.8299 32.8039C58.9001 32.5138 58.9746 32.2105 59.0316 31.8985C59.0535 31.7754 59.1324 31.6655 59.242 31.5996C59.3516 31.5337 59.4831 31.5205 59.6058 31.5644C59.8469 31.6479 60.0705 31.7227 60.2853 31.7974C60.7237 31.9512 61.105 32.0831 61.4908 32.1929C61.5916 32.2237 61.6925 32.2501 61.7933 32.2808C62.2141 32.4083 62.6043 32.527 62.9769 32.5182C63.0163 32.5182 63.0602 32.5182 63.0996 32.5182C64.8312 32.5182 66.383 33.0764 67.6806 33.6302C68.1233 33.8192 68.5748 33.9642 69.057 34.118C69.3858 34.2235 69.7102 34.329 70.0302 34.4477C70.188 34.5048 70.3502 34.5619 70.508 34.6191C71.0911 34.8256 71.696 35.0366 72.2527 35.3531C73.5021 36.0563 74.7821 36.3552 76.163 36.2804L76.2726 36.2717C76.4216 36.2585 76.6057 36.2453 76.7942 36.2892C78.026 36.5925 79.2578 36.5046 80.5598 36.4123C81.4102 36.3508 82.287 36.2936 83.1549 36.3508C84.2903 36.4255 85.4432 36.5529 86.5567 36.676C87.8761 36.821 89.2439 36.9705 90.5896 37.0364C90.857 37.0496 91.0894 37.1551 91.2735 37.2386C91.3305 37.265 91.3875 37.2913 91.4401 37.3089C91.5541 37.3485 91.6461 37.4364 91.6943 37.5506C91.7119 37.599 91.7382 37.6385 91.7557 37.6737C91.8302 37.8056 91.9398 38.0077 91.8478 38.2451C91.3524 39.5153 91.256 40.847 91.1508 42.2491C91.0631 43.405 90.9754 44.6005 90.6466 45.7608C90.4099 46.5959 90.5458 46.8552 91.4138 47.2244C92.4878 47.6771 93.2944 48.4199 94.0265 49.633C94.2763 50.0505 94.7235 50.4724 95.2846 50.8284C96.1438 51.3734 96.9854 52.0283 97.3317 53.1447C97.5553 53.8743 97.9192 54.3182 98.546 54.6303C99.5499 55.1357 100.032 56.0719 100.374 56.9245C100.598 57.4871 100.918 58.1772 101.369 58.5464C102.338 59.3463 102.974 60.2077 103.364 61.2582L103.386 61.3197C103.495 61.6142 103.618 61.9526 103.798 62.124C105.314 63.57 106.156 65.4028 106.971 67.1697C107.252 67.7762 107.537 68.4003 107.848 68.9937C108.155 69.5826 108.304 70.3606 108.265 71.1253C108.225 71.811 108.361 72.2109 108.76 72.5977C109.106 72.9361 109.532 73.3932 109.751 73.947C110.492 75.8325 111.013 77.2961 111.447 78.7026L111.473 78.7861C111.666 79.4058 111.877 80.0783 111.846 80.7947C112.021 80.9705 112.206 81.221 112.214 81.4891C112.223 81.8539 112.026 82.1704 111.793 82.5308C111.693 82.6846 111.579 82.8648 111.465 83.0714C111.395 83.2032 111.263 83.2867 111.114 83.2999C111.101 83.2999 111.092 83.2999 111.079 83.2999L111.088 83.3219ZM110.649 81.6825C110.702 81.7704 110.851 81.9374 110.965 82.0605C110.987 82.0825 111.004 82.1044 111.026 82.1308C111.039 82.1132 111.048 82.0956 111.061 82.0781C111.114 81.9902 111.171 81.9067 111.219 81.8231L110.772 81.6122C110.794 81.5638 110.816 81.5155 110.833 81.4627C110.746 81.5419 110.676 81.621 110.649 81.6781V81.6825ZM102.461 82.9835C102.053 82.9835 101.685 82.8165 101.448 82.5132C101.198 82.2011 101.128 81.7792 101.251 81.3661C101.4 80.8562 102.101 80.3552 102.645 80.3683C103.031 80.3859 103.311 80.6628 103.631 80.9837C103.758 81.1111 103.903 81.2562 104.069 81.3968C104.175 81.4847 104.232 81.621 104.223 81.7572C104.214 81.8935 104.144 82.0209 104.03 82.1C103.846 82.2231 103.684 82.3506 103.543 82.4648C103.21 82.7286 102.921 82.9571 102.548 82.9791C102.518 82.9791 102.487 82.9791 102.456 82.9791L102.461 82.9835ZM102.597 81.2518C102.469 81.2518 102.136 81.4935 102.092 81.6254C102.053 81.7616 102.066 81.8847 102.136 81.9726C102.211 82.0693 102.347 82.1176 102.5 82.1088C102.597 82.1044 102.816 81.933 103.004 81.7792C103.035 81.7528 103.07 81.7265 103.105 81.7001C103.074 81.6693 103.048 81.643 103.017 81.6166C102.873 81.4715 102.675 81.2738 102.597 81.2562V81.2518ZM95.6922 79.2783C95.5432 79.2783 95.2758 79.2124 94.89 78.8169C94.6489 78.5663 94.2588 78.0873 94.3552 77.6653C94.4648 77.1819 94.7848 76.7819 95.1881 76.2808C95.3722 76.0523 95.587 75.7886 95.815 75.4721C95.9027 75.3535 96.0473 75.2831 96.192 75.2919C96.341 75.3007 96.4769 75.3842 96.5471 75.5117C96.7487 75.8633 96.9591 76.171 97.1432 76.4435C97.5728 77.0764 97.8841 77.5291 97.7175 77.995C97.4633 78.7114 96.4287 79.1509 95.7975 79.2696C95.7755 79.274 95.7361 79.2827 95.6879 79.2827L95.6922 79.2783ZM95.2276 77.8016C95.2933 77.9598 95.5695 78.2806 95.7273 78.3861C96.249 78.2631 96.8101 77.9378 96.8978 77.7005C96.8846 77.6126 96.6304 77.239 96.4243 76.9401C96.3323 76.8039 96.2358 76.6588 96.135 76.505C96.0429 76.6193 95.9553 76.7291 95.8764 76.8302C95.552 77.2346 95.3109 77.5335 95.232 77.8016H95.2276ZM106.752 78.5004C106.673 78.5004 106.59 78.4784 106.507 78.4301C106.222 78.2675 106.051 77.995 105.902 77.7576C105.854 77.6829 105.81 77.6038 105.757 77.5379C105.687 77.4412 105.661 77.3181 105.683 77.1994C105.705 77.0808 105.775 76.9753 105.876 76.9094C105.937 76.8698 106.003 76.8171 106.064 76.7687C106.261 76.6105 106.507 76.4127 106.822 76.3951C107.12 76.3775 107.384 76.4962 107.69 76.6325C107.826 76.694 107.988 76.7643 108.177 76.8346C108.335 76.8918 108.444 77.0368 108.458 77.1994C108.475 77.3665 108.396 77.5291 108.256 77.617C107.945 77.8148 107.699 77.9862 107.515 78.1224C107.199 78.3466 106.976 78.5048 106.752 78.5048V78.5004ZM106.7 77.384C106.735 77.4412 106.77 77.4939 106.805 77.5423C106.866 77.4983 106.936 77.45 107.007 77.4016C107.037 77.3796 107.068 77.3577 107.099 77.3357C106.998 77.2961 106.919 77.2742 106.866 77.2742C106.836 77.2829 106.765 77.3313 106.695 77.384H106.7ZM102.412 74.1228C102.412 74.1228 102.382 74.1228 102.369 74.1228C102 74.1052 101.807 73.78 101.637 73.4899C101.588 73.4108 101.544 73.3317 101.496 73.2702C101.422 73.1735 101.395 73.0504 101.413 72.9273C101.435 72.8087 101.505 72.7032 101.606 72.6373C101.68 72.5889 101.755 72.5274 101.834 72.4702C102.066 72.29 102.329 72.0879 102.667 72.0439C103.017 72.0043 103.25 72.2593 103.5 72.5362C103.592 72.6373 103.697 72.7559 103.82 72.8702C103.925 72.9713 103.977 73.1163 103.955 73.257C103.934 73.402 103.841 73.5251 103.71 73.5866C103.552 73.6613 103.416 73.736 103.294 73.8064C102.991 73.9734 102.728 74.1228 102.417 74.1228H102.412ZM102.434 73.1163C102.456 73.1515 102.478 73.191 102.5 73.2218C102.583 73.191 102.693 73.1339 102.798 73.0724C102.759 73.0284 102.715 72.9845 102.68 72.9493C102.605 72.9889 102.518 73.0504 102.43 73.1163H102.434ZM39.2261 70.5583C39.0946 70.5583 38.9675 70.4968 38.8842 70.3957C38.7483 70.2287 38.5992 70.0705 38.4677 69.9254C38.0951 69.5255 37.8014 69.2134 37.9548 68.831C38.1083 68.4443 38.4414 68.1806 38.7351 67.9476C38.836 67.8685 38.9368 67.7894 39.0288 67.7015C39.1165 67.6224 39.2305 67.574 39.3489 67.5828C39.4672 67.5872 39.5768 67.6443 39.6557 67.7322C39.7302 67.8158 39.8179 67.8993 39.91 67.9828C40.1861 68.2421 40.5018 68.5322 40.5324 68.9365C40.5631 69.3277 40.287 69.6178 39.967 69.9518C39.8442 70.0793 39.7083 70.2243 39.5768 70.3869C39.4935 70.4924 39.3664 70.5495 39.2349 70.5495L39.2261 70.5583ZM38.8447 69.0288C38.9149 69.1167 39.0245 69.231 39.1078 69.3233C39.1472 69.3629 39.1867 69.4068 39.2261 69.4508C39.2612 69.4156 39.2919 69.3804 39.3226 69.3453C39.4365 69.2266 39.59 69.064 39.6382 68.9805C39.5943 68.897 39.4146 68.7299 39.305 68.6245C39.305 68.6245 39.2963 68.6157 39.2919 68.6157C39.2875 68.6201 39.2787 68.6245 39.2743 68.6333C39.1078 68.7651 38.9412 68.897 38.8403 69.0288H38.8447ZM30.827 70.1496C30.4193 70.1496 30.0116 69.7584 29.9327 69.6749C29.7048 69.442 29.6083 69.2266 29.639 69.0112C29.7092 68.541 30.1081 67.8026 30.6473 67.6839C31.0286 67.6048 31.3662 67.8333 31.7519 68.1058C31.9098 68.2157 32.0895 68.3432 32.2911 68.4618C32.4183 68.5366 32.4972 68.6684 32.5059 68.8135C32.5147 68.9585 32.449 69.1035 32.3306 69.1914C32.1509 69.3277 31.9974 69.4639 31.8615 69.5782C31.5415 69.8551 31.2654 70.0968 30.9015 70.1452C30.8752 70.1452 30.8489 70.1496 30.8226 70.1496H30.827ZM30.5333 69.0332C30.6078 69.1167 30.7481 69.2266 30.8314 69.2618C30.941 69.2222 31.1207 69.064 31.2917 68.9145C31.3048 68.9014 31.318 68.8926 31.3311 68.8794C31.3048 68.8618 31.2785 68.8442 31.2522 68.8266C31.1075 68.7256 30.919 68.5937 30.827 68.5541C30.7349 68.6245 30.599 68.8354 30.5377 69.0332H30.5333ZM83.8388 66.7126C83.7599 66.7126 83.681 66.6906 83.6108 66.6466C83.5232 66.5939 83.4136 66.5412 83.304 66.484C82.8919 66.2818 82.5061 66.0929 82.5281 65.6841C82.55 65.2798 82.721 64.9106 82.8831 64.5545C82.9401 64.4271 83.0015 64.2952 83.0541 64.159C83.1023 64.0403 83.1988 63.948 83.3171 63.9041C83.4355 63.8601 83.5714 63.8733 83.681 63.9392L84.8251 64.6029C84.9259 64.66 85.0005 64.7611 85.0311 64.8754C85.0618 64.9897 85.0443 65.1127 84.9829 65.2138L84.2114 66.4928C84.15 66.5939 84.0536 66.6642 83.9396 66.695C83.9045 66.7038 83.8695 66.7082 83.8344 66.7082L83.8388 66.7126ZM83.4311 65.5654C83.5056 65.605 83.6021 65.6577 83.6766 65.6929L84.001 65.1479L83.6634 64.9545C83.567 65.1699 83.4706 65.3764 83.4267 65.5654H83.4311ZM43.3336 65.9522C43.3336 65.9522 43.3117 65.9522 43.3029 65.9522C42.8295 65.939 42.4437 65.2929 42.3999 65.2182C42.2991 65.0468 42.1851 64.7919 42.3166 64.5458C42.527 64.1502 43.0048 63.6975 43.5221 63.5964C43.8991 63.5173 44.1621 63.8162 44.4646 64.159C44.5786 64.2864 44.7101 64.4359 44.8635 64.5809C44.9643 64.6776 45.0126 64.8183 44.995 64.9589C44.9775 65.0995 44.8898 65.2226 44.7671 65.2885C44.6005 65.3764 44.4515 65.4731 44.3199 65.5566C43.9956 65.7632 43.6887 65.9566 43.338 65.9566L43.3336 65.9522ZM43.1802 64.8183C43.2372 64.9062 43.3249 65.0072 43.3862 65.0644C43.5002 65.0336 43.6799 64.9149 43.8465 64.8095C43.8509 64.8095 43.8553 64.8051 43.8597 64.8007C43.8421 64.7831 43.8246 64.7655 43.8114 64.7435C43.7369 64.66 43.6449 64.5589 43.5791 64.493C43.4432 64.5545 43.2942 64.6776 43.1846 64.8183H43.1802ZM35.2194 65.6841C35.2194 65.6841 35.18 65.6841 35.1624 65.6841C34.8205 65.6489 34.5443 65.4468 34.3032 65.271C34.2243 65.2138 34.1454 65.1567 34.0665 65.1083C33.9657 65.0468 33.8912 64.9413 33.8649 64.8226C33.8386 64.704 33.8649 64.5809 33.935 64.4842C33.9789 64.4183 34.0227 64.3392 34.0665 64.2557C34.2287 63.9612 34.4085 63.6228 34.7767 63.592C35.1098 63.5656 35.4035 63.7063 35.7148 63.8601C35.8419 63.9216 35.9822 63.992 36.1356 64.0535C36.2671 64.1062 36.368 64.2249 36.3986 64.3656C36.4293 64.5062 36.3899 64.6556 36.2934 64.7611C36.1795 64.8842 36.0786 65.0116 35.991 65.1259C35.763 65.416 35.5526 65.6885 35.2282 65.6885L35.2194 65.6841ZM34.8731 64.5985C34.9652 64.6644 35.0616 64.7304 35.1405 64.7699C35.18 64.726 35.2238 64.6688 35.2633 64.6161C35.1449 64.5589 35.0266 64.5018 34.9389 64.4754C34.917 64.5106 34.8907 64.5545 34.8687 64.5941L34.8731 64.5985ZM39.1034 61.5043C39.1034 61.5043 39.0683 61.5043 39.0508 61.5043C38.928 61.4867 38.8184 61.4208 38.7439 61.3197C38.7088 61.2714 38.665 61.223 38.6255 61.1703C38.4721 60.9901 38.2792 60.7659 38.2792 60.4583C38.2836 60.155 38.4897 59.9528 38.6825 59.755C38.7527 59.6847 38.8316 59.6056 38.9105 59.5133C38.9982 59.4078 39.1297 59.3463 39.2612 59.3595C39.3971 59.3639 39.5198 59.4298 39.5987 59.5397C39.6732 59.6407 39.7522 59.7374 39.8267 59.8253C40.0502 60.0935 40.2782 60.3703 40.1072 60.6912C39.9713 60.9461 39.7522 61.1131 39.5593 61.2582C39.4979 61.3021 39.4409 61.3505 39.3839 61.3988C39.305 61.4691 39.1998 61.5043 39.099 61.5043H39.1034Z" fill="currentColor"/>
</svg>
