<svg width="279" height="97" viewBox="0 0 279 97" fill="none" xmlns="http://www.w3.org/2000/svg">
<g clip-path="url(#clip0_675_4131)">
<path d="M207.623 56.7148H112.217V58.3239H207.623V56.7148Z" fill="currentColor"/>
<path d="M206.805 60.3283L211.672 57.524L206.805 54.7104V60.3283Z" fill="currentColor"/>
<path d="M228.813 52.7065H71.9707V54.3156H228.813V52.7065Z" fill="currentColor"/>
<path d="M227.434 58.2417L235.632 53.5157L227.434 48.7805V58.2417Z" fill="currentColor"/>
<path d="M172.393 43.3396H76.9863V44.9486H172.393V43.3396Z" fill="currentColor"/>
<path d="M171.564 46.9531L176.432 44.1395L171.564 41.3352V46.9531Z" fill="currentColor"/>
<path d="M242.127 46.3708H26.8672V47.9799H242.127V46.3708Z" fill="currentColor"/>
<path d="M240.297 53.4322L251.136 47.1708L240.297 40.9185V53.4322Z" fill="currentColor"/>
<path d="M220.356 39.5972H64.9219V41.2062H220.356V39.5972Z" fill="currentColor"/>
<path d="M218.977 45.1415L227.175 40.4063L218.977 35.6711V45.1415Z" fill="currentColor"/>
</g>
<defs>
<clipPath id="clip0_675_4131">
<rect width="278.1" height="96.1" fill="white"/>
</clipPath>
</defs>
</svg>
