<svg width="143" height="143" viewBox="0 0 143 143" fill="none" xmlns="http://www.w3.org/2000/svg">
<g clip-path="url(#clip0_675_7908)">
<path d="M82.8757 116.84C82.0607 116.84 81.3477 116.546 80.8213 115.983C80.1507 115.267 79.896 114.219 80.1295 113.102C80.1677 112.906 80.2313 112.718 80.3162 112.518C80.8044 111.376 81.9164 110.668 83.2195 110.664C84.5565 110.664 85.6983 111.393 86.2034 112.569C86.3816 112.987 86.4665 113.366 86.4623 113.728C86.4453 114.947 84.5862 116.627 83.3893 116.801C83.2152 116.827 83.0412 116.84 82.8757 116.84ZM83.2195 111.516C82.4682 111.516 81.5174 111.87 81.0972 112.85C81.0336 112.995 80.9911 113.136 80.9614 113.272C80.7874 114.112 80.9614 114.883 81.441 115.395C81.8782 115.864 82.5276 116.06 83.2704 115.953C84.1363 115.83 85.6049 114.423 85.6134 113.711C85.6134 113.473 85.554 113.204 85.4266 112.902C84.9894 111.879 84.0005 111.512 83.2237 111.512L83.2195 111.516ZM95.1041 104.118C94.3995 104.118 93.4275 103.423 92.9224 102.895C92.5616 102.511 92.4173 102.2 92.4725 101.919C92.706 100.691 93.6143 99.1482 94.6712 98.803C95.3545 98.5771 96.1058 99.0587 97.1457 99.7236C97.6296 100.03 98.1771 100.384 98.7926 100.708C98.9199 100.776 99.0048 100.9 99.0176 101.045C99.0303 101.19 98.9709 101.326 98.8605 101.416C98.3215 101.85 97.8715 102.272 97.4726 102.639C96.6236 103.427 96.0124 103.998 95.2442 104.105C95.2017 104.109 95.155 104.113 95.1084 104.113L95.1041 104.118ZM93.3172 102.025C93.4827 102.417 94.7136 103.316 95.1211 103.265C95.6262 103.193 96.1568 102.698 96.8953 102.017C97.1797 101.752 97.4938 101.462 97.8461 101.156C97.4259 100.908 97.0396 100.665 96.6916 100.44C95.9445 99.9623 95.2399 99.5105 94.9386 99.6085C94.2552 99.8344 93.5209 101.075 93.3214 102.021L93.3172 102.025ZM83.2704 93.3008C83.2704 93.3008 83.2577 93.3008 83.2534 93.3008C83.1176 93.2965 82.9945 93.2283 82.9181 93.1133C82.6083 92.653 82.2942 92.2566 81.9928 91.8688C81.3434 91.042 80.7831 90.3302 80.7152 89.5204C80.6431 88.6723 82.0225 87.6068 82.082 87.5642C82.7865 87.0272 83.1261 87.0613 83.3171 87.1337C84.4843 87.577 85.6049 88.7106 85.9275 89.7804C86.1057 90.3813 85.5624 90.9652 84.739 91.8475C84.3825 92.231 83.9792 92.6615 83.6015 93.1388C83.5208 93.2411 83.3977 93.3008 83.2704 93.3008ZM83.0752 87.9563C82.6889 88.0586 81.5811 89.0942 81.5641 89.4565C81.6108 90.002 82.0777 90.5944 82.6634 91.3445C82.8629 91.6003 83.0794 91.8773 83.3001 92.1756C83.5845 91.8475 83.8646 91.5449 84.1193 91.2678C84.5353 90.8203 85.104 90.2109 85.1083 90.0063C84.8748 89.2306 83.9665 88.3143 83.0709 87.952L83.0752 87.9563ZM109.816 82.9485C109.684 82.9485 109.561 82.8888 109.48 82.7822C109.34 82.599 109.196 82.437 109.069 82.3006C108.763 81.9597 108.496 81.6656 108.538 81.2905C108.602 80.7407 109.217 80.2847 109.633 80.1313C109.654 80.1228 109.671 80.1185 109.692 80.1142C109.65 79.6923 109.518 79.2661 109.383 78.8271L109.357 78.7461C108.941 77.4079 108.44 76.0014 107.736 74.1944C107.583 73.8065 107.231 73.4315 106.976 73.1885C106.411 72.6387 106.191 72.0122 106.237 71.1002C106.271 70.512 106.157 69.9068 105.932 69.4721C105.622 68.8797 105.342 68.2617 105.066 67.665C104.277 65.9432 103.529 64.3193 102.18 63.0322C101.866 62.7296 101.709 62.3077 101.569 61.9326L101.547 61.873C101.22 60.9993 100.69 60.2747 99.8707 59.6013C99.2892 59.124 98.9327 58.3654 98.661 57.6877C98.3766 56.976 98.0116 56.2685 97.2985 55.9105C96.4878 55.5013 95.9785 54.8833 95.6941 53.9585C95.4564 53.1871 94.8749 52.6884 94.0685 52.1812C93.6058 51.8872 92.9734 51.4013 92.5786 50.7449C91.9589 49.7221 91.3223 49.1254 90.4436 48.7546C89.2127 48.2346 88.8689 47.5485 89.217 46.321C89.5141 45.2768 89.5905 44.2113 89.6754 43.0819C89.773 41.765 89.8749 40.4011 90.3503 39.0927C90.3503 39.0927 90.3503 39.0884 90.3503 39.0842C90.329 39.0756 90.3121 39.0671 90.2908 39.0586C90.1635 38.9989 90.0319 38.9393 89.9385 38.935C88.61 38.8711 87.2772 38.7219 85.9869 38.5813C84.9173 38.4662 83.8137 38.3426 82.7271 38.2701C81.9419 38.219 81.1566 38.2701 80.329 38.3298C79.0556 38.4193 77.7441 38.5131 76.4198 38.1849C76.3688 38.1721 76.2755 38.1849 76.1906 38.1849L76.059 38.1934C74.5564 38.2787 73.1642 37.9505 71.8102 37.1876C71.3348 36.9191 70.8085 36.7358 70.2525 36.5355C70.0954 36.4801 69.9342 36.4247 69.7771 36.365C69.4757 36.2542 69.1701 36.1562 68.8645 36.0582C68.4019 35.909 67.9223 35.7556 67.4639 35.5553C66.2584 35.0438 64.8365 34.5281 63.2533 34.5452C62.7652 34.5579 62.2983 34.413 61.8484 34.2767C61.755 34.2468 61.6616 34.2213 61.5682 34.1914C61.1735 34.0806 60.7957 33.9485 60.3543 33.7951C60.2906 33.7737 60.2227 33.7482 60.159 33.7269C60.1251 33.876 60.0911 34.0252 60.0529 34.1701C59.9086 34.7753 59.7813 35.2953 59.8067 35.7939C59.8874 37.2132 59.5393 38.4406 59.1701 39.7405L59.047 40.1795C58.7032 41.424 58.1089 42.14 57.0011 42.66C56.7762 42.7665 56.547 42.856 56.3178 42.9455C56.0376 43.0563 55.7745 43.1586 55.524 43.2865C55.0571 43.5294 54.586 43.7937 54.1318 44.0536C53.7583 44.2667 53.3806 44.4798 53.0028 44.6802C52.5147 44.9401 52.0181 45.1788 51.5257 45.3791C51.1649 45.5283 50.7999 45.6647 50.4349 45.801C49.8619 46.0141 49.2719 46.2358 48.7201 46.4958C48.1174 46.7813 47.4722 47.1606 46.6912 47.6976C44.7472 49.0402 42.7353 50.4722 41.1224 51.6229C41.0121 51.6996 40.9059 51.8232 40.7956 51.9511C40.7362 52.0193 40.6767 52.0875 40.6173 52.1514C40.0316 52.7694 39.3609 53.3064 38.7158 53.8221C37.6801 54.6532 36.6996 55.4374 36.0247 56.5412C35.9483 56.6648 35.8422 56.7245 35.7871 56.7586C34.5901 57.5726 33.7157 58.6509 32.7862 59.7931C32.7055 59.8912 32.6291 59.9892 32.5485 60.0872C32.6673 60.1895 32.7565 60.3216 32.8583 60.4665C32.9178 60.5518 32.9814 60.6455 33.0663 60.7563C33.1597 60.8799 33.1809 61.0419 33.1215 61.1868C33.0621 61.3317 32.9263 61.4255 32.7735 61.4425C32.6291 61.4553 32.506 61.4766 32.3999 61.4979C32.1325 61.5448 31.8779 61.5874 31.6444 61.4425C31.585 61.4084 31.5383 61.3615 31.5001 61.3147C31.2497 61.5874 30.9908 61.8517 30.7234 62.1031C30.6385 62.1798 30.5663 62.3247 30.4899 62.4782C30.4262 62.6018 30.3626 62.7339 30.2777 62.8618C30.1376 63.0706 29.9848 63.2666 29.832 63.467C29.7514 63.5735 29.6707 63.6801 29.5901 63.7866L29.0553 64.5069C28.9661 64.6262 28.8812 64.7413 28.7921 64.8606L28.9704 64.9416C28.8176 65.2698 28.4992 65.5766 28.1384 65.7471C27.8838 66.0923 27.6333 66.4376 27.3829 66.7828L26.6953 66.2841C26.8863 66.0241 27.0731 65.7642 27.2641 65.5042C27.0731 65.3081 26.8566 65.014 26.9245 64.7157L27.7098 64.899C27.7267 64.8734 27.7437 64.8521 27.7607 64.8265C27.7607 64.7839 27.7522 64.7541 27.7437 64.7413C27.7522 64.7541 27.7649 64.7754 27.7777 64.7967C27.9772 64.5282 28.1724 64.2639 28.3719 63.9954L28.9067 63.2752C28.9873 63.1643 29.0722 63.0535 29.1571 62.9427C29.3014 62.7552 29.4415 62.5719 29.5731 62.3801C29.6325 62.2906 29.6792 62.1926 29.7301 62.0946C29.832 61.89 29.9466 61.6599 30.1461 61.4766C30.8677 60.8075 31.5043 60.019 32.124 59.2561C33.0493 58.1139 34.0044 56.9333 35.2904 56.0596C35.3032 56.0511 35.3202 56.0426 35.3371 56.0298C36.0884 54.8322 37.1538 53.9798 38.1852 53.153C38.8091 52.6543 39.4543 52.1386 40.0019 51.559C40.0528 51.5036 40.1037 51.4439 40.1547 51.3842C40.2862 51.2308 40.439 51.0603 40.63 50.9239C42.2472 49.7732 44.2591 48.3369 46.2116 46.9901C47.0308 46.4276 47.7141 46.0227 48.3593 45.7158C48.945 45.443 49.552 45.2129 50.1378 44.9955C50.4943 44.8634 50.8508 44.727 51.2031 44.5821C51.6658 44.3903 52.1369 44.1687 52.5996 43.9215C52.9731 43.7212 53.3424 43.5124 53.7116 43.3035C54.1743 43.0435 54.6497 42.775 55.1293 42.5236C55.4179 42.3744 55.715 42.2593 56.0037 42.1443C56.2159 42.059 56.4281 41.9781 56.6361 41.88C57.5147 41.4666 57.9477 40.9424 58.2235 39.9408L58.3466 39.4976C58.6947 38.2701 59.0215 37.1066 58.9494 35.8323C58.9154 35.2058 59.0597 34.6006 59.2168 33.9613C59.2847 33.68 59.3568 33.3859 59.412 33.0833C59.4332 32.964 59.5096 32.8574 59.6157 32.7935C59.7219 32.7296 59.8492 32.7168 59.968 32.7594C60.2015 32.8404 60.418 32.9128 60.6259 32.9853C61.0504 33.1344 61.4197 33.2623 61.7932 33.3689C61.8908 33.3987 61.9884 33.4243 62.0861 33.4541C62.4935 33.5777 62.8713 33.6928 63.2321 33.6842C63.2703 33.6842 63.3127 33.6842 63.3509 33.6842C65.0275 33.6842 66.5301 34.2255 67.7864 34.7625C68.2151 34.9458 68.6523 35.0864 69.1192 35.2356C69.4375 35.3379 69.7516 35.4402 70.0615 35.5553C70.2143 35.6107 70.3713 35.6661 70.5241 35.7215C71.0887 35.9218 71.6744 36.1264 72.2135 36.4332C73.4231 37.1151 74.6625 37.405 75.9996 37.3325L76.1057 37.324C76.25 37.3112 76.4283 37.2984 76.6108 37.341C77.8035 37.6351 78.9962 37.5499 80.2568 37.4604C81.0802 37.4007 81.9291 37.3453 82.7696 37.4007C83.8689 37.4731 84.9852 37.5967 86.0633 37.7161C87.3409 37.8567 88.6652 38.0016 89.9682 38.0656C90.2272 38.0783 90.4521 38.1806 90.6304 38.2616C90.6856 38.2872 90.7408 38.3128 90.7917 38.3298C90.902 38.3682 90.9912 38.4534 91.0379 38.5642C91.0548 38.6111 91.0803 38.6494 91.0973 38.6835C91.1694 38.8114 91.2756 39.0075 91.1864 39.2376C90.7068 40.4693 90.6134 41.7607 90.5115 43.1203C90.4267 44.2412 90.3418 45.4004 90.0234 46.5256C89.7942 47.3354 89.9258 47.5868 90.7662 47.9448C91.8061 48.3838 92.5871 49.1041 93.296 50.2804C93.5379 50.6853 93.9708 51.0944 94.5141 51.4396C95.346 51.9681 96.161 52.6032 96.4963 53.6857C96.7128 54.3932 97.0651 54.8237 97.672 55.1263C98.644 55.6164 99.1109 56.5242 99.442 57.351C99.6585 57.8965 99.9683 58.5657 100.406 58.9237C101.344 59.6994 101.959 60.5347 102.337 61.5533L102.358 61.613C102.464 61.8985 102.583 62.2267 102.757 62.3929C104.226 63.7951 105.041 65.5724 105.83 67.2857C106.102 67.8738 106.378 68.479 106.679 69.0544C106.976 69.6255 107.12 70.3799 107.082 71.1215C107.044 71.7863 107.176 72.1742 107.562 72.5492C107.897 72.8774 108.309 73.3206 108.521 73.8577C109.238 75.686 109.743 77.1053 110.164 78.4691L110.189 78.5501C110.376 79.151 110.58 79.8031 110.55 80.4978C110.72 80.6683 110.898 80.9112 110.906 81.1712C110.915 81.525 110.724 81.8318 110.499 82.1813C110.401 82.3305 110.291 82.5052 110.181 82.7055C110.113 82.8334 109.985 82.9144 109.841 82.9271C109.828 82.9271 109.82 82.9271 109.807 82.9271L109.816 82.9485ZM109.391 81.3587C109.442 81.444 109.586 81.6059 109.697 81.7253C109.718 81.7466 109.735 81.7679 109.756 81.7935C109.769 81.7764 109.777 81.7594 109.79 81.7423C109.841 81.6571 109.896 81.5761 109.943 81.4951L109.51 81.2905C109.531 81.2437 109.552 81.1968 109.569 81.1456C109.485 81.2224 109.417 81.2991 109.391 81.3545V81.3587ZM101.462 82.6203C101.068 82.6203 100.711 82.4583 100.482 82.1643C100.24 81.8617 100.172 81.4525 100.291 81.0519C100.435 80.5575 101.114 80.0716 101.641 80.0844C102.014 80.1015 102.286 80.37 102.596 80.6811C102.719 80.8047 102.859 80.9453 103.02 81.0817C103.122 81.167 103.177 81.2991 103.169 81.4312C103.16 81.5633 103.092 81.6869 102.982 81.7636C102.804 81.883 102.647 82.0066 102.511 82.1174C102.188 82.3731 101.908 82.5947 101.547 82.616C101.518 82.616 101.488 82.616 101.458 82.616L101.462 82.6203ZM101.594 80.9411C101.471 80.9411 101.148 81.1755 101.106 81.3033C101.068 81.4355 101.08 81.5548 101.148 81.64C101.22 81.7338 101.352 81.7807 101.501 81.7722C101.594 81.7679 101.806 81.6017 101.989 81.4525C102.018 81.4269 102.052 81.4014 102.086 81.3758C102.057 81.3459 102.031 81.3204 102.001 81.2948C101.861 81.1542 101.67 80.9624 101.594 80.9453V80.9411ZM94.9089 79.0274C94.7645 79.0274 94.5056 78.9635 94.1321 78.5799C93.8987 78.337 93.5209 77.8724 93.6143 77.4633C93.7204 76.9945 94.0303 76.6066 94.4207 76.1208C94.599 75.8991 94.807 75.6434 95.0277 75.3366C95.1126 75.2215 95.2527 75.1533 95.3927 75.1618C95.537 75.1703 95.6686 75.2513 95.7365 75.3749C95.9318 75.7159 96.1355 76.0142 96.3138 76.2785C96.7298 76.8922 97.0311 77.3312 96.8698 77.7829C96.6236 78.4776 95.6219 78.9038 95.0107 79.0189C94.9895 79.0232 94.9513 79.0317 94.9046 79.0317L94.9089 79.0274ZM94.4589 77.5954C94.5226 77.7488 94.79 78.06 94.9428 78.1623C95.4479 78.0429 95.9912 77.7275 96.0761 77.4974C96.0634 77.4121 95.8172 77.0499 95.6177 76.7601C95.5286 76.6279 95.4352 76.4873 95.3376 76.3381C95.2484 76.4489 95.1635 76.5555 95.0871 76.6535C94.773 77.0456 94.5396 77.3354 94.4632 77.5954H94.4589ZM105.618 78.2731C105.541 78.2731 105.461 78.2518 105.38 78.2049C105.104 78.0472 104.939 77.7829 104.794 77.5528C104.748 77.4803 104.705 77.4036 104.654 77.3397C104.586 77.2459 104.561 77.1266 104.582 77.0115C104.603 76.8964 104.671 76.7942 104.769 76.7302C104.828 76.6919 104.892 76.6407 104.951 76.5938C105.142 76.4404 105.38 76.2486 105.686 76.2316C105.974 76.2145 106.229 76.3296 106.526 76.4617C106.658 76.5214 106.815 76.5896 106.997 76.6578C107.15 76.7132 107.256 76.8538 107.269 77.0115C107.286 77.1735 107.209 77.3312 107.074 77.4164C106.772 77.6082 106.535 77.7744 106.356 77.9065C106.051 78.1239 105.834 78.2773 105.618 78.2773V78.2731ZM105.567 77.1905C105.601 77.2459 105.635 77.2971 105.669 77.344C105.728 77.3013 105.796 77.2545 105.864 77.2076C105.894 77.1863 105.923 77.165 105.953 77.1436C105.855 77.1053 105.779 77.084 105.728 77.084C105.698 77.0925 105.631 77.1394 105.563 77.1905H105.567ZM101.416 74.0281C101.416 74.0281 101.386 74.0281 101.373 74.0281C101.017 74.0111 100.83 73.6957 100.664 73.4144C100.618 73.3377 100.575 73.261 100.529 73.2013C100.456 73.1075 100.431 72.9882 100.448 72.8689C100.469 72.7538 100.537 72.6515 100.635 72.5876C100.707 72.5407 100.779 72.481 100.855 72.4256C101.08 72.2509 101.335 72.0548 101.662 72.0122C102.001 71.9739 102.226 72.2211 102.468 72.4896C102.557 72.5876 102.659 72.7027 102.778 72.8135C102.88 72.9115 102.931 73.0521 102.91 73.1885C102.889 73.3292 102.799 73.4485 102.672 73.5082C102.519 73.5806 102.388 73.6531 102.269 73.7213C101.976 73.8832 101.721 74.0281 101.42 74.0281H101.416ZM101.437 73.0521C101.458 73.0862 101.479 73.1246 101.501 73.1544C101.581 73.1246 101.687 73.0692 101.789 73.0095C101.751 72.9669 101.709 72.9243 101.675 72.8902C101.602 72.9285 101.518 72.9882 101.433 73.0521H101.437ZM40.2353 70.5717C40.108 70.5717 39.9849 70.512 39.9042 70.414C39.7727 70.252 39.6283 70.0986 39.501 69.9579C39.1402 69.5701 38.8558 69.2675 39.0044 68.8967C39.153 68.5217 39.4755 68.2659 39.7599 68.0401C39.8575 67.9633 39.9552 67.8866 40.0443 67.8014C40.1292 67.7247 40.2396 67.6778 40.3542 67.6863C40.4688 67.6906 40.5749 67.746 40.6513 67.8312C40.7234 67.9122 40.8083 67.9932 40.8974 68.0742C41.1649 68.3256 41.4705 68.6069 41.5002 68.999C41.5299 69.3783 41.2625 69.6596 40.9526 69.9835C40.8338 70.1071 40.7022 70.2478 40.5749 70.4055C40.4942 70.5077 40.3711 70.5631 40.2438 70.5631L40.2353 70.5717ZM39.866 69.0885C39.9339 69.1737 40.0401 69.2846 40.1207 69.3741C40.1589 69.4124 40.1971 69.455 40.2353 69.4977C40.2693 69.4636 40.299 69.4295 40.3287 69.3954C40.439 69.2803 40.5876 69.1226 40.6343 69.0416C40.5918 68.9606 40.4178 68.7987 40.3117 68.6964C40.3117 68.6964 40.3032 68.6879 40.299 68.6879C40.2947 68.6921 40.2862 68.6964 40.282 68.7049C40.1207 68.8328 39.9594 68.9606 39.8618 69.0885H39.866ZM32.1028 70.1753C31.7081 70.1753 31.3133 69.796 31.2369 69.715C31.0162 69.4891 30.9228 69.2803 30.9526 69.0715C31.0205 68.6154 31.4067 67.8994 31.9288 67.7843C32.2981 67.7076 32.6249 67.9292 32.9984 68.1935C33.1512 68.3 33.3252 68.4236 33.5205 68.5387C33.6436 68.6112 33.72 68.739 33.7285 68.8797C33.737 69.0203 33.6733 69.161 33.5587 69.2462C33.3847 69.3783 33.2361 69.5104 33.1045 69.6212C32.7947 69.8898 32.5273 70.1242 32.175 70.171C32.1495 70.171 32.124 70.1753 32.0986 70.1753H32.1028ZM31.8184 69.0928C31.8906 69.1737 32.0264 69.2803 32.1071 69.3144C32.2132 69.276 32.3872 69.1226 32.5527 68.9777C32.5655 68.9649 32.5782 68.9564 32.5909 68.9436C32.5655 68.9265 32.54 68.9095 32.5145 68.8925C32.3745 68.7944 32.192 68.6666 32.1028 68.6282C32.0137 68.6964 31.8821 68.901 31.8227 69.0928H31.8184ZM83.4317 66.8424C83.3553 66.8424 83.2789 66.8211 83.211 66.7785C83.1261 66.7274 83.02 66.6762 82.9139 66.6208C82.5149 66.4248 82.1414 66.2415 82.1626 65.8451C82.1838 65.453 82.3494 65.095 82.5064 64.7498C82.5616 64.6262 82.621 64.4984 82.6719 64.3662C82.7186 64.2512 82.812 64.1617 82.9266 64.119C83.0412 64.0764 83.1728 64.0892 83.2789 64.1531L84.3867 64.7967C84.4843 64.8521 84.5565 64.9501 84.5862 65.0609C84.6159 65.1717 84.5989 65.2911 84.5395 65.3891L83.7925 66.6293C83.7331 66.7274 83.6397 66.7956 83.5293 66.8254C83.4954 66.8339 83.4614 66.8382 83.4275 66.8382L83.4317 66.8424ZM83.037 65.7301C83.1091 65.7684 83.2025 65.8196 83.2747 65.8537L83.5887 65.3252L83.2619 65.1376C83.1685 65.3465 83.0752 65.5468 83.0327 65.7301H83.037ZM44.2124 66.1051C44.2124 66.1051 44.1912 66.1051 44.1827 66.1051C43.7243 66.0923 43.3508 65.4658 43.3083 65.3934C43.2107 65.2271 43.1004 64.98 43.2277 64.7413C43.4314 64.3577 43.8941 63.9187 44.3949 63.8207C44.76 63.744 45.0146 64.0338 45.3075 64.3662C45.4179 64.4898 45.5452 64.6347 45.6937 64.7754C45.7914 64.8691 45.8381 65.0055 45.8211 65.1419C45.8041 65.2783 45.7192 65.3976 45.6004 65.4616C45.4391 65.5468 45.2948 65.6406 45.1674 65.7215C44.8533 65.9219 44.5562 66.1094 44.2167 66.1094L44.2124 66.1051ZM44.0639 65.0055C44.119 65.0908 44.2039 65.1888 44.2633 65.2442C44.3737 65.2144 44.5477 65.0993 44.709 64.997C44.7133 64.997 44.7175 64.9927 44.7218 64.9885C44.7048 64.9714 44.6878 64.9544 44.6751 64.9331C44.6029 64.8521 44.5138 64.7541 44.4501 64.6901C44.3185 64.7498 44.1742 64.8691 44.0681 65.0055H44.0639ZM36.3558 65.8451C36.3558 65.8451 36.3176 65.8451 36.3006 65.8451C35.9696 65.811 35.7022 65.615 35.4687 65.4445C35.3923 65.3891 35.3159 65.3337 35.2395 65.2868C35.1419 65.2271 35.0697 65.1249 35.0443 65.0098C35.0188 64.8947 35.0443 64.7754 35.1122 64.6816C35.1546 64.6177 35.1971 64.541 35.2395 64.46C35.3966 64.1744 35.5706 63.8463 35.9271 63.8164C36.2497 63.7909 36.5341 63.9272 36.8355 64.0764C36.9585 64.1361 37.0944 64.2043 37.2429 64.2639C37.3703 64.3151 37.4679 64.4302 37.4976 64.5665C37.5273 64.7029 37.4891 64.8478 37.3957 64.9501C37.2854 65.0695 37.1877 65.1931 37.1029 65.3039C36.8821 65.5852 36.6784 65.8494 36.3643 65.8494L36.3558 65.8451ZM36.0205 64.7924C36.1096 64.8564 36.203 64.9203 36.2794 64.9586C36.3176 64.916 36.3601 64.8606 36.3983 64.8095C36.2837 64.7541 36.1691 64.6987 36.0842 64.6731C36.063 64.7072 36.0375 64.7498 36.0163 64.7882L36.0205 64.7924ZM40.1165 61.792C40.1165 61.792 40.0825 61.792 40.0655 61.792C39.9467 61.7749 39.8406 61.711 39.7684 61.613C39.7345 61.5661 39.692 61.5192 39.6538 61.4681C39.5052 61.2933 39.3185 61.076 39.3185 60.7776C39.3227 60.4836 39.5222 60.2875 39.709 60.0957C39.7769 60.0275 39.8533 59.9508 39.9297 59.8613C40.0146 59.759 40.1419 59.6994 40.2693 59.7121C40.4008 59.7164 40.5197 59.7803 40.5961 59.8869C40.6682 59.9849 40.7446 60.0787 40.8168 60.1639C41.0333 60.4239 41.254 60.6924 41.0885 61.0035C40.9569 61.2507 40.7446 61.4127 40.5579 61.5533C40.4985 61.5959 40.4433 61.6428 40.3881 61.6897C40.3117 61.7579 40.2098 61.792 40.1122 61.792H40.1165Z" fill="currentColor"/>
</g>
<defs>
<clipPath id="clip0_675_7908">
<rect width="142.1" height="142.1" fill="white"/>
</clipPath>
</defs>
</svg>
