<svg width="143" height="143" viewBox="0 0 143 143" fill="none" xmlns="http://www.w3.org/2000/svg">
<g clip-path="url(#clip0_675_8948)">
<path d="M62.7195 81.4924C66.9188 76.0108 66.8821 67.6794 68.2116 61.1814C69.7795 53.5216 71.6774 45.4807 70.1646 37.6576C69.6328 34.9168 68.45 32.7659 66.4787 31.4227C64.5166 29.6258 59.9322 26.9031 58.0984 31.4409C55.8612 38.8193 55.5586 75.5933 53.8349 83.2803C52.0561 95.9225 45.7663 107.603 43.8867 119.737C43.9692 119.936 44.0426 120.136 44.1251 120.336C46.454 118.756 61.3992 83.2167 62.7195 81.4924Z" fill="currentColor"/>
<path d="M76.3905 62.8428C77.3624 71.3829 74.6118 79.5509 78.1509 86.3666C79.3245 87.7914 81.195 88.4539 83.4872 89.2254C84.5508 89.3796 85.541 89.4522 86.4946 89.6065C87.4481 89.7608 88.365 89.9877 89.0252 89.9877C88.7226 88.8986 88.365 87.3558 88.1541 85.8039C87.5306 81.1572 88.2183 76.4742 88.4659 71.7277C88.8326 64.5308 88.4659 57.3067 87.8332 50.128C86.8521 38.9742 83.3496 27.9656 70.0273 26.9037C72.778 32.6939 74.3642 38.6021 75.2719 44.601C76.1705 50.5999 76.3905 56.6896 76.3905 62.8337V62.8428Z" fill="currentColor"/>
</g>
<defs>
<clipPath id="clip0_675_8948">
<rect width="142.1" height="142.1" fill="white"/>
</clipPath>
</defs>
</svg>
