<svg width="143" height="143" viewBox="0 0 143 143" fill="none" xmlns="http://www.w3.org/2000/svg">
<path d="M30.6026 94.4913L25.3123 90.024C23.2288 88.2641 19.8393 85.4329 19.3495 85.108C19.1007 85.0693 18.8792 84.9378 18.7043 84.7289C18.5138 84.5046 18.4283 84.2377 18.4594 83.9631C18.4866 83.6846 18.6187 83.4487 18.852 83.2553C19.0852 83.058 19.3417 82.9729 19.6138 82.9962C19.8859 83.0194 20.123 83.1509 20.3174 83.3829C20.4845 83.5802 20.5739 83.8007 20.5817 84.0327C20.9899 84.5665 23.9363 87.6414 25.7749 89.5328L30.5987 94.4952L30.6026 94.4913ZM19.5322 83.6692C19.4778 83.6692 19.4 83.6846 19.2951 83.7736C19.1707 83.878 19.1474 83.9708 19.1435 84.0327C19.1357 84.1256 19.1629 84.2068 19.2329 84.2919C19.334 84.4118 19.4311 84.435 19.4933 84.4389C19.575 84.4466 19.6683 84.4543 21.0948 85.6147C19.8898 84.3112 19.8976 84.2107 19.9054 84.0985C19.9093 84.0366 19.9054 83.9399 19.8004 83.82C19.6993 83.7001 19.6138 83.6769 19.5594 83.673C19.5516 83.673 19.5439 83.673 19.5322 83.673V83.6692Z" fill="currentColor"/>
<path d="M24.736 80.7681C24.7049 80.7681 24.6738 80.7681 24.6427 80.7642C24.3628 80.741 24.114 80.6056 23.9197 80.3774C23.7435 80.1686 24.8966 78.9876 27.3792 76.8345C29.4316 75.0553 32.0903 72.7733 34.6597 70.5686C38.1347 67.5865 41.7186 64.5077 42.2278 64.0165C42.2783 63.7922 42.4027 63.5911 42.601 63.4286C42.8342 63.2314 43.0907 63.1463 43.3628 63.1695L43.5883 63.1888L43.6583 63.4054C43.7127 63.573 42.9469 64.3427 41.361 65.7145C40.0122 66.8787 38.1775 68.4568 36.2339 70.1277C32.1603 73.6242 26.6834 78.3314 25.6961 79.2828C25.7738 79.4453 25.8088 79.6155 25.7971 79.7973C25.7777 80.0758 25.6455 80.3194 25.4201 80.5089C25.2102 80.683 24.9809 80.772 24.736 80.772V80.7681ZM24.7165 80.0912C24.7826 80.0912 24.872 80.0835 24.9847 79.9907C25.0703 79.9172 25.113 79.8437 25.1208 79.7509C25.1208 79.7431 25.1208 79.7354 25.1208 79.7277C24.9575 79.8746 24.8254 79.9945 24.7204 80.0951L24.7165 80.0912ZM22.1938 77.523C22.1277 77.523 22.085 77.4959 22.0344 77.465L21.8323 77.3335L21.8829 77.0859C22.0383 76.4555 22.0422 76.1151 22.0189 75.9449C22.0072 75.8482 21.9995 75.6896 21.9878 75.4189C21.9723 75.0514 21.9412 74.1889 21.8518 74.0149C21.6574 73.7905 21.4086 73.6629 21.1093 73.6552C20.7906 73.6474 20.4952 73.7635 20.192 74.0149C19.9704 74.2005 19.8266 74.4403 19.7527 74.7498C19.675 75.0708 19.6905 75.3802 19.7955 75.6974L19.9004 76.0107L18.1629 76.6373L18.0463 76.3162C17.8092 75.6587 17.7781 74.9818 17.953 74.2972C18.0424 73.6706 17.3155 65.4747 16.8024 60.1062L16.3477 55.3101L17.4749 59.994C18.4661 64.1132 20.1531 70.7195 20.6779 71.8063C21.1288 71.7367 21.5719 71.7793 21.9995 71.9301C22.4892 72.1042 22.9246 72.4136 23.2939 72.8507C23.5543 73.1601 23.6476 73.9104 23.7448 74.9354C23.7525 74.9973 23.7564 75.0592 23.7642 75.1172C25.0625 74.274 29.4005 70.9477 32.9649 68.217C37.9831 64.3724 40.4242 62.5236 41.6603 61.6649C41.6331 61.545 41.6603 61.4251 41.738 61.3323C41.8819 61.1543 42.1034 61.1659 42.3211 61.1776C42.3444 61.1776 42.3678 61.1776 42.395 61.1776C42.8731 60.8952 42.9586 60.9455 43.0752 61.0228L43.2773 61.1505L43.2307 61.4019C43.1413 61.75 42.8381 61.8389 42.5738 61.8544C42.5582 61.866 42.5388 61.8776 42.5232 61.8892C42.5893 61.9859 42.6787 62.102 42.7953 62.2335L43.0208 62.4926L38.9666 65.8963L38.745 65.641C38.6945 65.583 38.6051 65.4824 38.5506 65.3587C37.1707 66.2947 33.3731 69.2149 30.2323 71.6323C23.6087 76.7262 22.5514 77.5153 22.1938 77.5153V77.523ZM21.0821 72.9783C21.0821 72.9783 21.1171 72.9783 21.1365 72.9783C21.6341 72.9938 22.0578 73.2026 22.3959 73.601C22.5825 73.8253 22.6331 74.3127 22.6719 75.3957C22.6797 75.5891 22.6875 75.7863 22.6953 75.8521C22.7186 76.0339 22.7186 76.2505 22.6875 76.5019C22.8896 76.3588 23.1345 76.1809 23.4183 75.972C23.4027 75.9681 23.3833 75.9604 23.3677 75.9526L23.1889 75.883L23.1462 75.6858C23.1189 75.5311 23.0956 75.2835 23.0684 74.9973C23.0257 74.5409 22.9207 73.4695 22.773 73.28C22.4776 72.9319 22.1511 72.6959 21.774 72.5644C21.4009 72.4329 21.0238 72.4136 20.6196 72.5025C20.2153 72.5954 20.0093 72.6418 18.3417 66.2444C18.194 65.672 18.0463 65.0957 17.9025 64.5387C18.2873 68.774 18.7304 74.011 18.6177 74.4519C18.505 74.8967 18.4972 75.3261 18.5944 75.7554L19.0686 75.5852C19.0064 75.2564 19.0142 74.9199 19.0958 74.5912C19.2047 74.1425 19.4262 73.7751 19.7605 73.4966C20.1725 73.1523 20.6157 72.9783 21.0782 72.9783H21.0821ZM39.0715 64.4188C39.0715 64.4188 39.0793 64.4188 39.0832 64.4227L39.2581 64.4807L39.3125 64.6663C39.3125 64.6663 39.3203 64.7011 39.3242 64.7166L42.0646 62.4191C42.0296 62.3727 41.9946 62.3263 41.9635 62.2837C41.256 62.7866 40.2376 63.5408 39.0715 64.4227V64.4188Z" fill="currentColor"/>
<path d="M29.953 76.4092C29.9219 76.4092 29.8947 76.4092 29.8636 76.4054C29.5837 76.3822 29.335 76.2468 29.1406 76.0186C28.9644 75.8097 30.1163 74.63 32.5962 72.4795C34.6447 70.7003 37.3035 68.4222 39.8728 66.2136C43.3479 63.2315 46.9395 60.1489 47.4487 59.6577C47.4993 59.4333 47.6237 59.2361 47.8219 59.0698C48.0551 58.8764 48.3156 58.7874 48.5838 58.8106L48.8092 58.83L48.8792 59.0466C48.9336 59.2142 48.1691 59.9839 46.5858 61.3556C45.2409 62.5199 43.4062 64.0979 41.4588 65.765C37.7894 68.9172 32.9772 73.0481 31.3368 74.5333C33.4669 74.3864 39.3675 73.8023 43.4645 73.3769L56.1208 72.0579L43.5539 74.0499C38.6756 74.8234 31.3096 76.0147 30.5866 76.1965C30.3961 76.3396 30.1785 76.4131 29.953 76.4131V76.4092ZM29.9375 75.7324C29.9958 75.7324 30.0891 75.7246 30.2018 75.6318C30.2562 75.5892 30.3223 75.5312 32.8644 75.0942C31.4301 75.2102 30.8043 75.2295 30.5127 75.2102C30.2717 75.4229 30.0774 75.6009 29.9375 75.7324ZM27.407 73.1603C27.3448 73.1603 27.302 73.1332 27.2554 73.1061L27.0532 72.9746L27.1077 72.7271C27.2631 72.0966 27.267 71.7562 27.2437 71.5861C27.2321 71.4894 27.2243 71.3308 27.2126 71.06C27.1971 70.6926 27.166 69.8301 27.0805 69.656C26.8861 69.4317 26.6373 69.304 26.338 69.2963C26.0115 69.2886 25.7239 69.4046 25.4246 69.656C25.203 69.8417 25.0592 70.0815 24.9853 70.3909C24.9076 70.7119 24.9231 71.0213 25.0281 71.3385L25.133 71.6518L23.3955 72.2784L23.2789 71.9574C23.0418 71.2998 23.0107 70.6191 23.1856 69.9306C23.3605 69.2421 23.7142 68.6736 24.2312 68.2404C24.6899 67.8575 25.1836 67.6022 25.6967 67.4862C26.2214 67.3701 26.7384 67.3972 27.2282 67.5712C27.7179 67.7453 28.1533 68.0547 28.5226 68.4918C28.7869 68.8012 28.8763 69.5516 28.9735 70.5765C28.9773 70.6307 28.9851 70.681 28.989 70.7313C30.2756 69.8068 34.4426 66.3219 37.871 63.4559C47.06 55.7744 47.1106 55.8092 47.4487 56.0142L47.6586 56.1418L47.6081 56.401C47.5032 56.811 47.5187 57.0353 47.5498 57.1552C47.5809 57.279 47.6897 57.5033 48.0201 57.8823L48.2456 58.1415L46.8307 59.3482L46.6091 59.093C46.5586 59.035 46.477 58.9383 46.4187 58.8222C44.891 59.8781 40.3976 63.3747 36.6815 66.2678C28.9307 72.2977 27.7762 73.1719 27.407 73.1719V73.1603ZM26.303 68.6194C26.303 68.6194 26.338 68.6194 26.3575 68.6194C26.8589 68.6349 27.2826 68.8438 27.6169 69.246C27.8035 69.4703 27.854 69.9577 27.8929 71.0407C27.9006 71.2341 27.9084 71.4313 27.9162 71.4971C27.9395 71.675 27.9395 71.8877 27.9123 72.1314C28.1066 71.9922 28.3476 71.8143 28.6236 71.6093C28.6159 71.6093 28.6081 71.6015 28.5964 71.6015L28.4098 71.5358L28.3671 71.3346C28.3399 71.1799 28.3165 70.9324 28.2893 70.6462C28.2466 70.1898 28.1416 69.1184 27.9939 68.9327C27.7024 68.5885 27.3681 68.3487 26.9949 68.2172C26.6218 68.0857 26.2447 68.0625 25.8405 68.1553C25.4323 68.2481 25.0359 68.4531 24.6627 68.7664C24.2507 69.1106 23.9825 69.5477 23.8386 70.1047C23.7259 70.5495 23.7181 70.9788 23.8153 71.4081L24.2895 71.2379C24.2273 70.9092 24.2351 70.5727 24.3167 70.2439C24.4256 69.7952 24.6471 69.4278 24.9814 69.1493C25.3935 68.8051 25.8366 68.631 26.303 68.631V68.6194ZM46.8424 56.9657C45.4547 58.0022 41.6881 61.1468 38.3063 63.978C37.2724 64.8406 36.355 65.6103 35.5348 66.291C35.7797 66.1015 36.0207 65.912 36.2617 65.7263C46.5392 57.7276 46.6247 57.7547 46.9434 57.863L47.1183 57.921L47.1728 58.1067C47.1728 58.1067 47.1805 58.1376 47.1844 58.1492L47.2855 58.0603C47.0756 57.7856 46.9434 57.5458 46.889 57.3254C46.8579 57.2171 46.8424 57.0972 46.8424 56.9657Z" fill="currentColor"/>
<path d="M34.3319 72.7541C34.3008 72.7541 34.2697 72.7541 34.2386 72.7502C33.9588 72.727 33.71 72.5916 33.5156 72.3634C33.3394 72.1545 34.4926 70.9736 36.9751 68.8205C39.0275 67.0413 41.6863 64.7593 44.2556 62.5507C47.7268 59.5686 51.3146 56.4937 51.8238 55.9986C51.8743 55.7743 51.9987 55.5732 52.1969 55.4107C52.4302 55.2173 52.6867 55.1284 52.9588 55.1516L53.1842 55.1709L53.2542 55.3875C53.3086 55.5551 52.5442 56.3248 50.9608 57.6966C49.6159 58.8608 47.7812 60.4389 45.8338 62.1059C41.7601 65.6063 36.2793 70.3096 35.292 71.2649C35.3698 71.4274 35.4048 71.5976 35.3931 71.7794C35.3737 72.0578 35.2415 72.3015 35.016 72.491C34.8061 72.6651 34.5768 72.7541 34.3319 72.7541ZM34.3125 72.0772C34.3747 72.0811 34.468 72.0695 34.5807 71.9766C34.6662 71.9031 34.709 71.8296 34.7167 71.7368C34.7167 71.7291 34.7167 71.7213 34.7167 71.7136C34.5535 71.8606 34.4213 71.9805 34.3164 72.0811L34.3125 72.0772ZM25.5977 67.2966L29.1543 64.3338L68.2156 41.4595L56.084 51.5777L25.5977 67.2966ZM61.5065 46.1744L35.1715 61.5954L55.7342 50.9937L61.5026 46.1744H61.5065Z" fill="currentColor"/>
<path d="M56.1482 104.698C56.0782 104.698 56.0082 104.691 55.9383 104.679C55.6467 104.629 55.4135 104.478 55.2541 104.25C55.0987 104.022 55.0442 103.755 55.0987 103.457C55.1531 103.159 55.293 102.927 55.5146 102.772C55.74 102.618 56.0043 102.563 56.3036 102.618C56.5602 102.664 56.7701 102.772 56.9256 102.946C57.5864 103.093 61.8272 103.565 64.4549 103.836L71.3544 104.552L64.4199 104.513C61.6873 104.497 57.2599 104.497 56.6768 104.559C56.5174 104.652 56.3386 104.698 56.1482 104.698ZM56.086 103.275C55.9927 103.275 55.9383 103.302 55.9072 103.325C55.8644 103.356 55.7983 103.414 55.7711 103.573C55.7439 103.732 55.7867 103.817 55.8217 103.871C55.8761 103.948 55.9499 103.995 56.0588 104.014C56.2142 104.041 56.2998 103.998 56.3542 103.964C56.4203 103.917 56.5019 103.863 58.3405 103.84C56.5757 103.612 56.5174 103.53 56.4475 103.438C56.4125 103.387 56.3464 103.318 56.187 103.291C56.1482 103.283 56.1171 103.283 56.086 103.283V103.275Z" fill="currentColor"/>
<path d="M50.2885 98.8154L49.993 98.6452C49.3867 98.2933 48.9241 97.7943 48.617 97.16C48.2788 96.6224 42.4288 90.809 38.5689 87.0263L35.1211 83.6458L39.0082 86.5119C42.4249 89.0337 47.9912 93.0137 49.0912 93.5126C49.3944 93.1723 49.7598 92.9209 50.1835 92.7623C50.6694 92.5805 51.2058 92.5418 51.7694 92.6385C52.1698 92.7081 52.7257 93.2264 53.4603 93.9497C53.507 93.9923 53.5497 94.0387 53.5925 94.0773C54.0395 92.5998 55.2173 87.2777 56.1813 82.9071C57.5418 76.7495 58.2181 73.7751 58.6068 72.3247C58.5096 72.2512 58.4513 72.139 58.4513 72.0191C58.4513 71.7909 58.6262 71.6594 58.7973 71.5279C58.8128 71.5163 58.8362 71.5008 58.8556 71.4815C59.0383 70.9593 59.1355 70.9439 59.2754 70.9284L59.5125 70.8975L59.6408 71.1218C59.7963 71.4467 59.6213 71.7058 59.4309 71.8876C59.427 71.907 59.4192 71.9263 59.4153 71.9456C59.5281 71.9766 59.6719 72.0075 59.8468 72.0346L60.1889 72.0888L59.2793 77.291L58.945 77.2368C58.8672 77.2252 58.7351 77.202 58.6146 77.144C58.1637 78.7453 57.1414 83.4099 56.294 87.2738C54.1794 96.9241 54.1522 96.9279 53.7752 96.9782L53.5381 97.0092L53.4176 96.7848C53.1299 96.2008 52.9161 95.9416 52.784 95.8217C52.714 95.756 52.6052 95.6399 52.4225 95.4388C52.1737 95.1642 51.5906 94.526 51.4118 94.4487C51.1164 94.3984 50.8482 94.4641 50.6111 94.6498C50.3623 94.8432 50.2107 95.1255 50.1408 95.5084C50.0902 95.7908 50.1369 96.0654 50.2807 96.3516C50.4284 96.6456 50.6383 96.8738 50.9221 97.0517L51.2019 97.2258L50.2729 98.8154H50.2885ZM49.2273 96.8583C49.4294 97.2722 49.6976 97.6048 50.0514 97.8717L50.304 97.4385C50.0436 97.2258 49.8337 96.9627 49.6821 96.6572C49.4761 96.2433 49.4061 95.8179 49.4838 95.3963C49.581 94.8509 49.822 94.4216 50.203 94.1199C50.5955 93.8105 51.0542 93.7022 51.5712 93.7911C51.8588 93.8414 52.2126 94.1856 52.9395 94.9863C53.0677 95.1294 53.2038 95.2764 53.2543 95.3228C53.3904 95.4466 53.5303 95.6129 53.6702 95.8256C53.7324 95.5897 53.8063 95.2957 53.8879 94.9515C53.8724 94.9592 53.8529 94.9631 53.8374 94.9708L53.6547 95.0327L53.4953 94.9089C53.3748 94.8084 53.196 94.6343 52.99 94.4332C52.6596 94.1122 51.8899 93.3579 51.6567 93.3077C51.2136 93.2303 50.7977 93.2612 50.4284 93.3966C50.0552 93.5359 49.7521 93.7602 49.5033 94.0851C49.2506 94.4138 49.1262 94.584 43.7154 90.7471C43.2295 90.4029 42.7437 90.0587 42.2772 89.7222C45.3052 92.7197 49.0329 96.4522 49.2273 96.8583ZM58.5952 76.0185L58.7584 76.1268C58.7584 76.1268 58.7856 76.1461 58.7973 76.1577L59.4114 72.6457C59.3531 72.6341 59.2987 72.6186 59.2482 72.6032C59.0305 73.4386 58.739 74.6686 58.4125 76.0881C58.4163 76.0881 58.4202 76.0881 58.4241 76.0842L58.5952 76.0185ZM57.3319 98.0264C57.2619 98.0264 57.1919 98.0187 57.1181 98.0071C56.8486 97.9606 56.9691 96.3194 57.4796 93.0833C57.8994 90.4106 58.463 86.9605 59.0072 83.6303C59.7418 79.1243 60.4998 74.4675 60.5737 73.7635C60.4648 73.5585 60.4337 73.3265 60.4804 73.0712C60.5348 72.7734 60.6747 72.5413 60.8963 72.3866L61.0829 72.2589L61.2772 72.3788C61.4275 72.4717 61.3381 73.5508 61.009 75.6162C60.7292 77.3722 60.3404 79.7509 59.9323 82.2766C59.0733 87.5639 57.9149 94.6691 57.775 96.0306C57.9382 96.1041 58.0782 96.2163 58.1831 96.3632C58.3464 96.5876 58.4047 96.8622 58.3542 97.1484C58.3036 97.4424 58.152 97.6822 57.9227 97.8446C57.7478 97.9684 57.5495 98.0303 57.3357 98.0303L57.3319 98.0264ZM57.6117 96.7423C57.5806 96.955 57.5573 97.1368 57.5418 97.2799C57.5923 97.2412 57.6545 97.1755 57.6817 97.0324C57.7011 96.9241 57.6817 96.839 57.6273 96.7616C57.6234 96.7539 57.6195 96.75 57.6117 96.7423Z" fill="currentColor"/>
<path d="M51.4716 92.1435L51.1762 91.9733C50.5698 91.6213 50.1072 91.1185 49.7963 90.4803C49.4853 89.8383 49.3881 89.1807 49.5047 88.5193C49.6097 87.9314 49.8235 87.4209 50.1422 87.0032C50.4687 86.5777 50.8808 86.2683 51.3705 86.0865C51.8564 85.9047 52.3928 85.8621 52.9565 85.9627C53.3568 86.0323 53.9127 86.5506 54.6512 87.2739C54.6901 87.3126 54.7251 87.3474 54.7601 87.3822C55.1488 85.8505 56.0894 80.5168 56.863 76.1307C58.9387 64.3725 59.0009 64.3609 59.3935 64.3029L59.6345 64.2681L59.7627 64.4963C59.9454 64.8753 60.1048 65.0378 60.2059 65.1074C60.3108 65.1809 60.5401 65.2853 61.0338 65.3627L61.372 65.4168L61.0688 67.2424L60.7345 67.1883C60.6606 67.1767 60.5324 67.1573 60.4158 67.0993C59.926 68.8862 58.7443 74.4405 57.7648 79.0277C55.3742 90.2483 55.3431 90.2521 54.97 90.3024L54.729 90.3334L54.6085 90.1129C54.3208 89.5288 54.107 89.2697 53.9749 89.1498C53.9049 89.084 53.7961 88.968 53.6134 88.7669C53.3646 88.4923 52.7815 87.8541 52.6027 87.7767C52.3073 87.7264 52.0391 87.7883 51.802 87.974C51.5532 88.1674 51.4016 88.4497 51.3317 88.8326C51.2811 89.115 51.3278 89.3896 51.4677 89.6758C51.6154 89.9698 51.8253 90.198 52.1091 90.3759L52.3889 90.5499L51.4599 92.1396L51.4716 92.1435ZM50.4104 90.1864C50.6126 90.6002 50.8808 90.9367 51.2345 91.1997L51.4871 90.7665C51.2267 90.5538 51.0168 90.2908 50.8652 89.9852C50.6592 89.5714 50.5892 89.1459 50.667 88.7243C50.7641 88.179 51.0051 87.7496 51.3861 87.4479C51.7787 87.1385 52.2412 87.0302 52.7543 87.1192C53.042 87.1695 53.3957 87.5137 54.1226 88.3143C54.2509 88.4575 54.3869 88.6044 54.4374 88.6508C54.5735 88.7707 54.7056 88.9332 54.8417 89.1421C54.9 88.91 54.97 88.6199 55.0516 88.2873C55.0438 88.2873 55.036 88.295 55.0244 88.295L54.8417 88.3608L54.6784 88.2331C54.5579 88.1326 54.3791 87.9585 54.1731 87.7574C53.8427 87.4363 53.0731 86.6783 52.8398 86.6318C52.3967 86.5545 51.9808 86.5854 51.6115 86.7208C51.2384 86.86 50.9352 87.0844 50.6864 87.4093C50.4337 87.738 50.2627 88.1519 50.1772 88.6315C50.0839 89.1575 50.1617 89.6642 50.4104 90.1825V90.1864ZM59.5489 65.4168C59.1525 67.0954 58.3012 71.9148 57.5393 76.2467C57.3061 77.5695 57.0962 78.7453 56.9096 79.7897C56.9757 79.488 57.0379 79.1863 57.1001 78.8923C59.8055 66.1904 59.891 66.1556 60.202 66.0357L60.373 65.9699L60.5324 66.0782C60.5324 66.0782 60.5557 66.0975 60.5674 66.1053L60.5907 65.9738C60.2525 65.8964 59.996 65.7959 59.8133 65.6644C59.72 65.5986 59.6306 65.5174 59.5451 65.4207L59.5489 65.4168ZM58.515 91.3506C58.445 91.3506 58.375 91.3429 58.3012 91.3313C58.0317 91.2848 58.1522 89.6449 58.6627 86.4114C59.0825 83.7387 59.6461 80.2925 60.1903 76.9584C60.925 72.4485 61.6868 67.7917 61.7568 67.0877C61.648 66.8827 61.6169 66.6506 61.6635 66.3954C61.7179 66.0975 61.8579 65.8655 62.0794 65.7108L62.266 65.5831L62.4604 65.703C62.6107 65.7959 62.5213 66.875 62.1922 68.9404C61.9123 70.6964 61.5236 73.0751 61.1154 75.6008C60.3419 80.3621 59.3235 86.6009 59.0281 88.7862C60.5635 87.3126 64.7071 83.0889 67.568 80.1416L76.4111 71.0368L68.0694 80.598C64.8315 84.3111 59.9571 89.935 59.5217 90.5345C59.4595 90.7975 59.3157 91.0141 59.1058 91.1611C58.9309 91.2848 58.7327 91.3429 58.5189 91.3429L58.515 91.3506ZM58.8259 89.8344C58.7793 90.1516 58.7443 90.4107 58.721 90.6041C58.7715 90.5654 58.8337 90.4997 58.8609 90.3566C58.8726 90.2908 58.8881 90.2018 60.5518 88.2447C59.5295 89.2504 59.0631 89.6681 58.8259 89.8344Z" fill="currentColor"/>
<path d="M49.9531 86.9142L50.7616 82.3695L65.9096 39.866L63.1536 55.3721L49.9531 86.9142ZM63.8183 47.7641L53.607 76.4169L62.5084 55.1439L63.8183 47.7641ZM59.5037 85.7461C59.4337 85.7461 59.3637 85.7384 59.2938 85.7268C59.0243 85.6804 59.1448 84.0378 59.6553 80.7992C60.079 78.1226 60.6387 74.6764 61.1829 71.3385C61.9175 66.8363 62.6755 62.1833 62.7494 61.4794C62.6405 61.2744 62.6095 61.0423 62.6561 60.787C62.7066 60.4892 62.8466 60.2571 63.072 60.1024L63.2586 59.9709L63.4529 60.0908C63.6032 60.1837 63.5138 61.2628 63.1847 63.3282C62.9049 65.0803 62.52 67.4629 62.108 69.9847C61.2451 75.2721 60.0906 82.3811 59.9507 83.7426C60.1139 83.8161 60.2539 83.9282 60.3588 84.0752C60.5221 84.2996 60.5804 84.5703 60.5299 84.8604C60.4754 85.1543 60.3277 85.3942 60.0984 85.5566C59.9235 85.6765 59.7213 85.7384 59.5037 85.7384V85.7461ZM59.7874 84.462C59.7563 84.6747 59.733 84.8565 59.7175 84.9996C59.768 84.961 59.8302 84.8952 59.8574 84.7521C59.8768 84.6438 59.8574 84.5587 59.803 84.4813C59.7991 84.4736 59.7952 84.4697 59.7874 84.462Z" fill="currentColor"/>
<path d="M96.8089 96.2973C96.7195 96.2973 96.6262 96.2857 96.5368 96.2587C96.2686 96.1813 96.0548 96.0111 95.9032 95.752C95.7516 95.489 95.7088 95.2221 95.7788 94.9629C95.8487 94.6999 96.0198 94.4911 96.2841 94.3402C96.5096 94.2087 96.7389 94.1623 96.9721 94.1932C97.5746 93.8838 101.127 91.5322 103.316 90.0585L109.061 86.1946L103.724 90.6C101.617 92.3367 98.2276 95.1679 97.8234 95.5895C97.7418 95.8255 97.5746 96.0189 97.3375 96.1542C97.1665 96.2509 96.9877 96.3012 96.8089 96.3012V96.2973ZM96.84 94.8585C96.7855 94.8585 96.7156 94.874 96.6262 94.9243C96.4862 95.0055 96.4513 95.0828 96.4396 95.137C96.424 95.1873 96.4163 95.2762 96.494 95.4116C96.5756 95.5509 96.665 95.5895 96.7233 95.605C96.8166 95.6321 96.8983 95.6166 96.9954 95.5625C97.1354 95.4812 97.1704 95.3961 97.1859 95.3343C97.2053 95.2569 97.2325 95.1641 98.628 93.9689C97.1276 94.9204 97.0304 94.8972 96.9177 94.8701C96.8944 94.8662 96.8672 94.8585 96.8361 94.8585H96.84Z" fill="currentColor"/>
<path d="M88.2974 95.3809C87.8115 95.3809 87.3373 95.2764 86.8786 95.0714C86.2722 94.878 78.0355 94.1664 72.6364 93.7332L67.8125 93.3464L72.6441 93.0563C76.8927 92.801 83.7262 92.2943 84.8884 91.9694C84.9001 91.5169 85.0167 91.0876 85.2422 90.693C85.4987 90.2444 85.8796 89.8692 86.3772 89.583C86.7309 89.378 87.4889 89.4205 88.5228 89.5056C88.585 89.5095 88.6472 89.5172 88.7055 89.5211C88.0953 88.1016 85.557 83.2745 83.4735 79.3062C80.5388 73.721 79.1356 71.0097 78.4981 69.6482C78.3737 69.6521 78.261 69.6057 78.1832 69.5128C78.0316 69.3388 78.0822 69.126 78.1327 68.9172C78.1366 68.8978 78.1443 68.8708 78.1482 68.8437C77.95 68.3254 78.0161 68.2519 78.1133 68.1513L78.2765 67.9773L78.5175 68.0663C78.8479 68.2132 78.879 68.5265 78.8518 68.7857C78.8596 68.805 78.8673 68.8244 78.879 68.8437C78.9878 68.7934 79.1161 68.7277 79.2677 68.6348L79.5631 68.4569L82.2297 73.0248L81.942 73.195C81.8759 73.2337 81.7593 73.3033 81.6311 73.3342C82.3191 74.8504 84.5503 79.078 86.3966 82.5783C91.0145 91.3235 90.9911 91.3467 90.7346 91.6213L90.5713 91.7954L90.3342 91.7025C89.7356 91.4395 89.4013 91.3776 89.2264 91.3699C89.1292 91.3699 88.9738 91.3467 88.7017 91.308C88.3363 91.2577 87.4772 91.1417 87.2868 91.1959C87.0302 91.3467 86.8631 91.5672 86.8009 91.8611C86.7387 92.1706 86.8009 92.4838 86.9952 92.8203C87.1391 93.0679 87.3528 93.2497 87.6444 93.3773C87.9476 93.5088 88.2546 93.5475 88.5889 93.5011L88.9154 93.4547L89.2303 95.2687L88.8921 95.3267C88.6939 95.3615 88.4956 95.377 88.3013 95.377L88.2974 95.3809ZM87.1507 94.4526C87.5744 94.6421 87.9981 94.7233 88.4373 94.7001L88.3518 94.205C88.0175 94.2128 87.6871 94.1431 87.3723 94.0078C86.9447 93.8221 86.6221 93.5398 86.4044 93.1685C86.1245 92.6888 86.0351 92.2054 86.1323 91.7335C86.2334 91.2461 86.5171 90.8671 86.968 90.6079C87.2207 90.461 87.7143 90.4997 88.7911 90.6466C88.9815 90.6737 89.1798 90.7008 89.2497 90.7008C89.4363 90.7085 89.6462 90.7472 89.8911 90.8207C89.7861 90.6002 89.654 90.3256 89.4946 90.0123C89.4868 90.0278 89.4791 90.0432 89.4674 90.0587L89.3702 90.2212L89.1681 90.2289C89.0126 90.2289 88.76 90.2096 88.4723 90.1864C88.0136 90.1477 86.933 90.0665 86.7231 90.1748C86.3344 90.3991 86.0351 90.6853 85.8408 91.0295C85.6464 91.3738 85.5609 91.7412 85.5803 92.1512C85.5998 92.5651 85.6114 92.7739 78.9917 93.2961C78.397 93.3425 77.8023 93.3889 77.227 93.4315C81.4834 93.7912 86.7465 94.2669 87.1624 94.4526H87.1507ZM79.155 69.4625C79.5282 70.2438 80.0996 71.3732 80.7681 72.6651C80.7681 72.6651 80.772 72.6574 80.7759 72.6535L80.8653 72.4949L81.0597 72.4717C81.0597 72.4717 81.0946 72.4717 81.1102 72.4717L79.3105 69.389C79.2599 69.4161 79.2094 69.4393 79.1589 69.4625H79.155ZM93.7626 90.3527C93.4983 90.3527 93.1213 89.73 91.0339 86.2799C89.6307 83.9592 87.831 80.9577 86.0973 78.0569C83.7495 74.1349 81.3279 70.0853 80.9275 69.5012C80.7137 69.4123 80.5388 69.2537 80.4105 69.0332C80.2589 68.7702 80.2162 68.5033 80.2861 68.2442L80.3444 68.0276L80.5699 67.9966C80.7461 67.9708 81.3745 68.854 82.4551 70.6461C83.3764 72.17 84.6163 74.2393 85.9302 76.4362C88.6861 81.0351 92.3905 87.2197 93.164 88.353C93.3389 88.3027 93.5139 88.3027 93.6888 88.3453C93.9609 88.4149 94.1824 88.5851 94.3301 88.8365C94.4817 89.0956 94.5206 89.3741 94.4506 89.6449C94.3768 89.9156 94.2019 90.1361 93.9414 90.2831C93.8754 90.3217 93.8248 90.3488 93.7665 90.3488L93.7626 90.3527ZM93.4983 88.9989C93.6149 89.1807 93.7121 89.3354 93.7898 89.4553C93.8054 89.3935 93.8093 89.3045 93.7354 89.1769C93.681 89.0802 93.611 89.026 93.5216 89.0028C93.5139 89.0028 93.5061 89.0028 93.4983 88.9989Z" fill="currentColor"/>
<path d="M84.8907 89.5094C84.4048 89.5094 83.9267 89.4049 83.4642 89.1961C82.815 88.9021 82.3097 88.4612 81.9754 87.8771C81.6761 87.3588 81.509 86.8328 81.4856 86.3107C81.4584 85.7769 81.5789 85.2741 81.8355 84.8216C82.092 84.3729 82.4729 83.9977 82.9705 83.7115C83.3242 83.5065 84.0822 83.549 85.1162 83.6341C85.1706 83.638 85.2211 83.6419 85.2716 83.6457C84.5797 82.2262 81.8549 77.5346 79.6121 73.6783C73.6065 63.3435 73.6493 63.2971 73.9097 62.9993L74.073 62.8175L74.3179 62.9103C74.7027 63.0844 74.9281 63.1076 75.0525 63.096C75.1808 63.0844 75.4218 63.0186 75.8533 62.7633L76.1487 62.5854L77.0971 64.179L76.8056 64.353C76.7395 64.3917 76.6307 64.4574 76.5024 64.4923C77.2798 66.1709 79.9619 71.1836 82.1775 75.326C87.5961 85.452 87.5728 85.4752 87.3201 85.7498L87.1569 85.9278L86.9237 85.8349C86.325 85.5719 85.9908 85.51 85.8158 85.5023C85.7187 85.5023 85.5632 85.4791 85.2911 85.4404C84.9257 85.3901 84.0628 85.2741 83.8762 85.3282C83.6196 85.4791 83.4525 85.6995 83.3903 85.9935C83.3242 86.3029 83.3903 86.6162 83.5847 86.9527C83.7285 87.2003 83.9423 87.3821 84.2338 87.5097C84.537 87.6412 84.8441 87.6799 85.1784 87.6335L85.5049 87.587L85.8236 89.4011L85.4854 89.4591C85.2872 89.4939 85.089 89.5094 84.8907 89.5094ZM83.744 88.5811C84.1638 88.7706 84.5836 88.8518 85.0306 88.8286L84.9451 88.3335C84.6147 88.3413 84.2804 88.2717 83.9656 88.1363C83.538 87.9506 83.2154 87.6683 82.9977 87.297C82.7178 86.8173 82.6284 86.3339 82.7256 85.862C82.8267 85.3747 83.1065 84.9956 83.5613 84.7365C83.814 84.5895 84.3077 84.6282 85.3844 84.7751C85.5748 84.8022 85.7731 84.8293 85.843 84.8293C86.0257 84.837 86.2318 84.8757 86.4689 84.9453C86.3639 84.7287 86.2318 84.4618 86.0763 84.1563C86.0724 84.164 86.0685 84.1718 86.0607 84.1795L85.9635 84.3497L85.7575 84.3574C85.5982 84.3574 85.3494 84.3381 85.0617 84.3149C84.6031 84.2801 83.5225 84.1911 83.3126 84.3033C82.9239 84.5276 82.6245 84.8138 82.4302 85.1581C82.232 85.5023 82.1464 85.8697 82.1698 86.2797C82.1892 86.6936 82.3252 87.119 82.5701 87.5406C82.8383 88.0048 83.2232 88.3451 83.7518 88.5811H83.744ZM74.7454 63.7612C75.5267 65.3006 77.9912 69.5359 80.199 73.3418C80.8754 74.5061 81.474 75.5388 82.0065 76.4593C81.8588 76.1886 81.715 75.9139 81.5712 75.6471C75.4373 64.1867 75.484 64.1055 75.6434 63.8115L75.7328 63.6529L75.9232 63.6336C75.9232 63.6336 75.9543 63.6336 75.9699 63.6336L75.8999 63.5176C75.5928 63.6761 75.3285 63.7612 75.1069 63.7806C74.9942 63.7922 74.8737 63.7844 74.7454 63.7651V63.7612ZM90.3559 84.4812C90.0916 84.4812 89.7146 83.8585 87.6272 80.4122C86.224 78.0954 84.4281 75.094 82.6906 72.1931C80.3428 68.2711 77.9173 64.2176 77.5169 63.6336C77.3031 63.5446 77.1282 63.3861 76.9999 63.1656C76.8483 62.9026 76.8056 62.6357 76.8756 62.3766L76.9339 62.16L77.1593 62.129C77.3355 62.1058 77.9639 62.989 79.0446 64.7785C79.9658 66.3024 81.2058 68.3717 82.5196 70.5686C85.0034 74.7111 88.253 80.1415 89.4386 82.0058C89.664 79.8939 90.1111 74.0071 90.3987 69.9227L91.2927 57.2981L91.0789 69.9536C90.9973 74.8696 90.8962 82.292 90.9507 83.0346C91.0751 83.2744 91.1023 83.5336 91.0362 83.7811C90.9623 84.0519 90.7874 84.2723 90.527 84.4193C90.4648 84.458 90.4104 84.4851 90.3521 84.4851L90.3559 84.4812ZM89.9672 82.9302C90.1383 83.2009 90.2782 83.4253 90.387 83.5877C90.4026 83.5258 90.4065 83.4369 90.3326 83.3092C90.2976 83.2512 90.2549 83.1739 90.2665 80.6095C90.1344 82.0328 90.045 82.6517 89.9711 82.9341L89.9672 82.9302Z" fill="currentColor"/>
<path d="M81.2815 86.3687L78.9648 82.3694L63.1094 40.1211L71.0157 53.7629L81.2776 86.3687H81.2815ZM66.6116 47.5125L77.3011 75.9952L70.3782 54.0027L66.6116 47.5125ZM87.4969 79.5575C87.2326 79.5575 86.8555 78.9347 84.7643 75.4846C83.3572 73.1639 81.5613 70.1625 79.8238 67.2578C77.4799 63.3397 75.0544 59.2939 74.6579 58.706C74.4441 58.617 74.2692 58.4585 74.1409 58.238C73.9893 57.975 73.9465 57.7081 74.0165 57.449L74.0748 57.2324L74.3003 57.2014C74.4765 57.1756 75.1049 58.0601 76.1855 59.8547C77.1067 61.3787 78.3467 63.4518 79.6644 65.6487C82.4165 70.2476 86.1209 76.4284 86.8944 77.5617C87.0693 77.5114 87.2442 77.5114 87.423 77.5539C87.6951 77.6235 87.9167 77.7937 88.0605 78.0451C88.2121 78.3043 88.251 78.5828 88.181 78.8535C88.1072 79.1204 87.9322 79.3447 87.6718 79.4917C87.6096 79.5304 87.5552 79.5575 87.4969 79.5575ZM87.2326 78.2037C87.3492 78.3855 87.4464 78.5402 87.5241 78.6601C87.5397 78.5982 87.5435 78.5093 87.4697 78.3816C87.4153 78.2849 87.3453 78.2308 87.2559 78.2076C87.2481 78.2076 87.2403 78.2076 87.2326 78.2037Z" fill="currentColor"/>
<path d="M122.59 63.8195C122.462 63.8195 122.326 63.7962 122.19 63.746C121.902 63.6415 121.7 63.4675 121.583 63.2199C121.467 62.9724 121.463 62.7055 121.568 62.4193C121.657 62.1756 121.801 61.99 121.999 61.8662C122.26 61.2435 123.461 57.1707 124.188 54.6411L126.092 48.0039L124.848 54.7958C124.359 57.4723 123.589 61.8082 123.55 62.3922C123.639 62.6243 123.636 62.8834 123.542 63.1387C123.441 63.4133 123.255 63.6183 122.998 63.7344C122.866 63.7924 122.726 63.8233 122.582 63.8233L122.59 63.8195ZM123.126 60.6362C122.594 62.3265 122.504 62.369 122.399 62.4193C122.345 62.4464 122.263 62.5005 122.209 62.6514C122.155 62.8022 122.178 62.8834 122.201 62.9337C122.225 62.984 122.271 63.0536 122.423 63.1078C122.574 63.1619 122.668 63.1348 122.726 63.1078C122.812 63.0691 122.87 63.0033 122.909 62.8989C122.963 62.7519 122.936 62.6591 122.909 62.6011C122.874 62.5276 122.835 62.4425 123.13 60.6324L123.126 60.6362Z" fill="currentColor"/>
<path d="M99.1167 79.8746L102.631 76.5599C105.717 73.6474 110.626 68.8861 111.31 67.896C111.027 67.5401 110.84 67.1379 110.758 66.6931C110.665 66.1825 110.716 65.6526 110.914 65.1189C111.054 64.736 111.66 64.2834 112.504 63.6878C112.554 63.653 112.605 63.6143 112.651 63.5834C111.268 62.8871 106.203 60.8101 102.044 59.1044C96.1858 56.7025 93.3599 55.5228 91.9917 54.8885C91.8984 54.9697 91.7818 55.0084 91.6613 54.989C91.4358 54.9542 91.3347 54.757 91.2376 54.5636C91.2259 54.5442 91.2142 54.521 91.2026 54.4978C90.7167 54.2271 90.7206 54.1304 90.7284 53.9911L90.74 53.7513L90.9849 53.6662C91.3347 53.5696 91.5602 53.7861 91.704 54.0066C91.7234 54.0144 91.739 54.026 91.7584 54.0337C91.809 53.9254 91.8634 53.7939 91.9217 53.6276L92.0344 53.3027L97.0254 55.0973L96.9127 55.4145C96.8855 55.488 96.8427 55.6156 96.765 55.7239C98.2732 56.4472 102.712 58.2574 106.389 59.7581C115.575 63.506 115.571 63.5331 115.555 63.9083L115.543 64.1481L115.302 64.2254C114.677 64.4072 114.381 64.5735 114.241 64.678C114.164 64.736 114.031 64.8211 113.798 64.9642C113.483 65.1614 112.749 65.6217 112.644 65.7842C112.543 66.0626 112.558 66.3411 112.702 66.6041C112.854 66.8826 113.102 67.0799 113.472 67.2152C113.744 67.3119 114.024 67.3158 114.327 67.2268C114.646 67.134 114.906 66.9677 115.131 66.7202L115.353 66.4765L116.768 67.6639L116.546 67.9231C116.092 68.453 115.52 68.8204 114.84 69.0138C114.249 69.2536 107.482 73.9762 103.066 77.0975L99.1206 79.8862L99.1167 79.8746ZM113.565 63.4519C113.565 63.4519 113.573 63.4867 113.577 63.506L113.608 63.6955L113.456 63.8309C113.336 63.9315 113.133 64.0746 112.896 64.2448C112.519 64.5116 111.641 65.1344 111.551 65.3548C111.396 65.7764 111.357 66.1864 111.427 66.5771C111.497 66.9677 111.672 67.3003 111.952 67.602C112.236 67.9076 112.375 68.0584 107.645 72.696C107.221 73.1137 106.794 73.5275 106.378 73.9259C109.872 71.4776 114.21 68.4762 114.646 68.3524C115.089 68.2286 115.47 68.0198 115.788 67.7219L115.404 67.397C115.147 67.6175 114.852 67.7761 114.525 67.8728C114.082 68.0043 113.647 67.9965 113.242 67.8496C112.718 67.66 112.337 67.3468 112.107 66.9252C111.87 66.4881 111.843 66.0162 112.022 65.525C112.123 65.2504 112.523 64.968 113.444 64.3917C113.608 64.2912 113.779 64.1829 113.829 64.1442C113.977 64.032 114.164 63.9237 114.397 63.827C114.175 63.7226 113.895 63.6027 113.569 63.4596L113.565 63.4519ZM92.3765 54.3199C93.1656 54.6796 94.3356 55.1786 95.6805 55.7433C95.6805 55.7433 95.6805 55.7355 95.6805 55.7317L95.6455 55.5537L95.7777 55.4145C95.7777 55.4145 95.8049 55.3913 95.8165 55.3797L92.4464 54.1691C92.4231 54.2232 92.3998 54.2735 92.3765 54.3238V54.3199ZM116.884 61.0306C116.504 61.0306 115.473 60.6786 112.337 59.6111C109.763 58.7331 106.448 57.5844 103.245 56.4704C98.9145 54.9658 94.4405 53.4148 93.7564 53.2214C93.5348 53.2911 93.3016 53.2833 93.0567 53.1944C92.7691 53.0899 92.5669 52.912 92.4503 52.6683L92.3532 52.4634L92.5048 52.2932C92.624 52.1617 93.6761 52.4363 95.6611 53.117C97.348 53.6933 99.6375 54.4862 102.063 55.3294C107.147 57.0931 113.985 59.4603 115.306 59.8354C115.407 59.6846 115.54 59.5724 115.703 59.4912C115.955 59.3713 116.231 59.3597 116.511 59.4603C116.795 59.5608 117.005 59.7503 117.126 60.0017C117.242 60.2532 117.25 60.5355 117.149 60.8179C117.102 60.9455 117.071 61.0267 116.884 61.0267V61.0306ZM115.983 60.1139C116.189 60.1797 116.364 60.2338 116.504 60.2764C116.476 60.2222 116.418 60.1487 116.282 60.0984C116.177 60.0598 116.092 60.0598 116.006 60.1023C115.998 60.1023 115.99 60.11 115.987 60.1139H115.983Z" fill="currentColor"/>
<path d="M107.503 66.8131C107.138 66.8131 106.784 66.7512 106.438 66.6236C105.874 66.4186 105.408 66.1207 105.05 65.7378C104.685 65.3433 104.452 64.8869 104.358 64.3725C104.265 63.8658 104.316 63.3359 104.514 62.7983C104.654 62.4154 105.26 61.9628 106.104 61.3672C106.146 61.3362 106.189 61.3053 106.232 61.2782C104.786 60.6323 99.6705 58.7835 95.4608 57.2634C84.1805 53.1867 84.1805 53.1248 84.1921 52.7303L84.1999 52.4866L84.4487 52.4016C84.8568 52.2894 85.0434 52.1617 85.1328 52.0728C85.2222 51.9838 85.366 51.7788 85.5293 51.3031L85.642 50.9821L87.399 51.597L87.2862 51.9181C87.259 51.9916 87.2202 52.1115 87.1463 52.2159C88.8294 53.0049 94.1236 55.1284 98.4927 56.8844C109.182 61.1738 109.182 61.2047 109.163 61.5799L109.151 61.8197L108.91 61.8971C108.284 62.0789 107.985 62.2452 107.849 62.3496C107.771 62.4076 107.639 62.4927 107.406 62.6358C107.091 62.8331 106.356 63.2895 106.251 63.4519C106.15 63.7304 106.166 64.0089 106.31 64.2719C106.461 64.5504 106.71 64.7477 107.079 64.883C107.351 64.9797 107.631 64.9836 107.934 64.8946C108.253 64.8018 108.514 64.6355 108.739 64.3879L108.961 64.1443L110.375 65.3317L110.154 65.5908C109.699 66.1246 109.124 66.492 108.44 66.6816C108.125 66.7705 107.818 66.8131 107.511 66.8131H107.503ZM107.173 61.1506C107.173 61.1506 107.173 61.1699 107.176 61.1776L107.211 61.371L107.056 61.5103C106.935 61.6108 106.729 61.7578 106.496 61.9241C106.119 62.191 105.241 62.8137 105.151 63.0342C104.996 63.4635 104.953 63.8619 105.027 64.2564C105.097 64.6471 105.272 64.9797 105.552 65.2814C105.835 65.587 106.212 65.8268 106.671 65.9931C107.176 66.1749 107.69 66.1904 108.245 66.0356C108.692 65.9119 109.069 65.703 109.392 65.4052L109.007 65.0803C108.751 65.3008 108.455 65.4593 108.129 65.556C107.686 65.6875 107.25 65.6798 106.846 65.5328C106.321 65.3433 105.94 65.03 105.711 64.6084C105.474 64.1713 105.447 63.6995 105.625 63.2083C105.727 62.9336 106.127 62.6513 107.048 62.075C107.211 61.9744 107.382 61.8661 107.433 61.8274C107.577 61.7153 107.759 61.6147 107.989 61.5142C107.767 61.4136 107.495 61.2976 107.18 61.1622L107.173 61.1506ZM85.3194 52.7729C86.9131 53.4536 91.5387 55.1245 95.6901 56.6252C96.9573 57.0816 98.0845 57.4916 99.0874 57.8552C98.7998 57.7392 98.516 57.6231 98.2322 57.511C86.1279 52.653 86.1123 52.564 86.0463 52.2352L86.0113 52.0573L86.1473 51.9181C86.1473 51.9181 86.1706 51.8987 86.1784 51.8871L86.0501 51.8446C85.9141 52.1617 85.7703 52.3977 85.6109 52.5524C85.5293 52.6336 85.4321 52.7071 85.3233 52.7729H85.3194ZM110.488 58.71C110.107 58.71 109.077 58.358 105.94 57.2905C103.367 56.4125 100.051 55.2637 96.8484 54.1498C92.5182 52.6452 88.0442 51.0942 87.3601 50.9008C87.1385 50.9705 86.9053 50.9627 86.6604 50.8738C86.3728 50.7693 86.1706 50.5914 86.054 50.3477L85.9569 50.1427L86.1084 49.9726C86.2277 49.841 87.2798 50.1157 89.2648 50.7964C90.9517 51.3727 93.2412 52.1695 95.6707 53.0088C100.25 54.5946 106.247 56.6755 108.362 57.3446C107.173 55.5848 103.709 50.7887 101.291 47.4739L93.8204 37.2319L101.832 47.0601C104.945 50.8776 109.664 56.6291 110.185 57.1628C110.434 57.2673 110.624 57.4452 110.733 57.6773C110.85 57.9287 110.861 58.211 110.756 58.4934C110.71 58.621 110.679 58.7022 110.492 58.7022L110.488 58.71ZM109.361 57.7237C109.668 57.8242 109.921 57.9016 110.103 57.9596C110.076 57.9055 110.022 57.832 109.882 57.7817C109.816 57.7585 109.734 57.7275 108.086 55.755C108.902 56.9308 109.237 57.4607 109.361 57.7237Z" fill="currentColor"/>
<path d="M104.929 65.9119L100.571 64.33L61.1328 42.1055L76.0009 47.5011L104.925 65.9158L104.929 65.9119ZM68.5882 45.5285L95.1719 60.5086L75.6627 48.089L68.5843 45.5246L68.5882 45.5285ZM105.111 56.7645C104.73 56.7645 103.7 56.4126 100.563 55.345C97.9901 54.467 94.6744 53.3183 91.4714 52.2044C87.1412 50.6998 82.6672 49.1488 81.9831 48.9554C81.7615 49.025 81.5283 49.0173 81.2834 48.9283C80.9958 48.8239 80.7936 48.646 80.677 48.4023L80.5799 48.1973L80.7315 48.0271C80.8507 47.8956 81.9028 48.1702 83.8878 48.851C85.5748 49.4273 87.8642 50.2202 90.2898 51.0634C95.3741 52.8271 102.208 55.1942 103.533 55.5694C103.634 55.4224 103.77 55.3064 103.933 55.2251C104.182 55.1052 104.462 55.0936 104.742 55.1942C105.026 55.2986 105.236 55.4843 105.356 55.7357C105.473 55.9871 105.484 56.2694 105.379 56.5518C105.333 56.6794 105.302 56.7607 105.115 56.7607L105.111 56.7645ZM104.209 55.8479C104.415 55.9136 104.59 55.9678 104.73 56.0103C104.703 55.9562 104.649 55.8827 104.509 55.8324C104.404 55.7937 104.318 55.7976 104.233 55.8363C104.225 55.8363 104.217 55.844 104.213 55.8479H104.209Z" fill="currentColor"/>
</svg>
