<svg width="143" height="143" viewBox="0 0 143 143" fill="none" xmlns="http://www.w3.org/2000/svg">
<path d="M58.6176 126.379L57.2311 125.566C56.2545 124.99 56.1339 124.406 56.2103 124.022C56.3067 123.526 56.7568 123.17 57.219 123.022C57.2873 122.982 57.3797 122.954 57.5164 122.966L60.201 123.162L58.1313 123.494C58.3322 123.594 58.5854 123.702 58.8828 123.798C59.14 123.786 59.6303 123.71 60.1286 123.334C60.2412 123.226 60.3537 123.114 60.4702 122.998L64.6338 118.917L61.0731 123.286C60.9003 123.498 60.7234 123.67 60.5426 123.81C60.0764 124.266 59.6424 124.67 59.2967 124.926L59.2365 124.962C58.7462 125.178 58.2679 125.25 57.9183 125.302C57.8821 125.306 57.8459 125.314 57.8098 125.318L58.6216 126.379H58.6176ZM57.2552 123.682C57.0462 123.782 56.8653 123.95 56.8292 124.138C56.789 124.342 56.9417 124.582 57.2471 124.822C57.3878 124.746 57.5847 124.718 57.8178 124.682C58.1072 124.638 58.493 124.578 58.8748 124.43C58.8627 124.43 58.8506 124.43 58.8386 124.43H58.7863L58.7381 124.414C58.6015 124.37 57.6771 124.066 57.2552 123.682Z" fill="currentColor"/>
<path d="M62.7919 126.503L53.5164 120.565C50.9725 118.937 50.7032 118.769 50.8761 118.372C50.9805 118.136 51.1614 118.08 51.8084 118.2C51.8165 118.184 51.8245 118.168 51.8325 118.156C51.8727 118.088 51.925 118.02 52.0094 117.968C51.5713 117.716 51.4588 117.536 51.503 117.296C51.5231 117.188 51.5713 117.1 51.6637 117.032C50.8318 115.167 51.3101 113.679 52.9176 111.462C52.9739 111.31 53.0703 111.142 53.203 110.954C52.4796 111.006 51.9531 110.858 51.5793 110.514C50.8399 109.83 50.7997 108.429 51.077 106.281C50.647 106.625 50.2652 106.745 49.8955 106.653C49.4052 106.529 49.0354 106.045 48.7461 105.116C48.7099 105.092 48.6737 105.068 48.6376 105.044C48.0749 105.977 47.5645 106.389 47.0622 106.377C46.9496 106.377 46.8452 106.349 46.7487 106.309C46.7286 106.309 46.7045 106.317 46.6844 106.317C46.3388 106.337 46.1619 106.025 45.756 105.072C45.7279 105.012 45.7038 104.948 45.6797 104.892L46.2624 104.652C46.2785 104.692 46.3026 104.744 46.3267 104.8C46.4433 105.068 46.5518 105.26 46.6482 105.401C46.6764 105.312 46.7045 105.216 46.7326 105.128C46.8693 104.692 47.0541 104.092 47.3555 103.396L47.5806 102.884L47.9021 103.34C48.099 103.62 48.2879 103.856 48.4688 104.052C48.4889 104.012 48.509 103.976 48.529 103.936L48.9349 103.116L49.1198 104.012C49.1721 104.272 49.2283 104.5 49.2846 104.7C49.4132 104.76 49.5378 104.796 49.6664 104.816C50.1165 104.88 50.6269 104.684 51.2297 104.212L51.7361 103.816V104.456C51.7401 104.52 51.7441 104.584 51.7441 104.648L52.0094 104.332L51.8446 105.441C51.8325 105.533 51.8165 105.625 51.8044 105.713C51.8808 106.457 52.0496 107.137 52.4313 107.361C52.4916 107.397 52.5599 107.421 52.6363 107.437C52.8172 107.037 53.1387 106.481 53.645 105.681C53.4481 105.22 53.2954 104.692 53.1588 104.124C52.367 103.2 51.6838 101.988 51.0127 100.803L50.7073 100.263C50.2692 99.4867 49.8231 98.6985 49.4092 97.9023C49.1801 97.5542 48.955 97.2101 48.73 96.87C48.2558 96.1497 47.7815 95.4295 47.3234 94.7093L47.1385 94.4172L47.448 94.2612C47.6449 94.1612 47.8097 94.0651 47.9704 93.9691C48.3281 93.757 48.6617 93.557 49.2243 93.4129C50.1004 93.1168 50.2692 92.4286 50.3496 92.1005C50.3858 91.9445 50.43 91.7684 50.6269 91.7124L50.7997 91.6604L50.9484 91.7884C51.2096 92.0445 51.0971 92.3566 50.9725 92.5807C51.089 92.5727 51.2337 92.5567 51.4106 92.5247L51.724 92.4646L52.1741 95.0574L52.0295 95.1735C51.3543 95.7096 50.3616 95.4255 49.5619 95.2015C49.3248 95.1334 48.9872 95.0374 48.8224 95.0334C48.8224 95.0494 48.8305 95.0694 48.8345 95.0894C49.1279 95.9177 49.5096 96.7379 49.9397 97.5662C50.221 97.9983 50.5023 98.4304 50.7756 98.8666C50.9765 99.1827 51.1734 99.5028 51.3663 99.8148C52.1018 101.003 52.7971 102.124 53.5084 102.956L53.5606 103.02L53.5767 103.1C53.6249 103.348 53.6772 103.592 53.7294 103.824C53.9464 104.068 54.1715 104.284 54.4046 104.468L54.485 104.34L54.4568 104.508C54.5211 104.556 54.5854 104.6 54.6497 104.644L54.7984 104.74L54.7904 104.916C54.7703 105.413 54.7583 105.873 54.7623 106.293C54.8467 106.381 54.9351 106.457 55.0356 106.525L55.3611 106.353C55.2164 105.873 55.1521 105.329 55.1199 104.764C55.0074 104.516 54.9069 104.26 54.8105 103.996C54.3805 103.272 54.0107 102.304 53.6852 101.063C53.3436 99.7628 53.1909 98.6865 53.203 97.6622C53.1266 97.1701 53.0744 96.6699 53.0382 96.1578C52.7408 94.5893 52.6162 93.9931 52.572 93.801C52.4153 93.657 52.3148 93.4649 52.2746 93.2289C52.2264 92.9528 52.2746 92.7087 52.4233 92.5047L52.5439 92.3366L52.7488 92.3806C52.9123 92.4153 53.215 93.6117 53.6571 95.9697V96.0097C53.6611 96.0337 53.6651 96.0537 53.6651 96.0777C53.7214 96.3698 53.7817 96.6979 53.85 97.062L53.858 97.102V97.142C53.842 97.3021 53.8379 97.4621 53.8339 97.6262C54.0188 98.8426 54.3242 100.031 54.6819 101.367C54.8869 102.14 55.1079 102.964 55.3852 103.732C55.4776 103.884 55.5701 104.02 55.6665 104.148L55.7268 104.228V104.328C55.7308 104.428 55.7348 104.524 55.7388 104.616C55.9358 105.048 56.1648 105.445 56.4261 105.781L56.5908 105.693L56.4502 105.813C56.4703 105.837 56.4864 105.861 56.5064 105.881L56.619 106.017L56.5587 106.185C56.4582 106.469 56.3819 106.709 56.3256 106.913C56.5145 107.141 56.7476 107.285 57.041 107.369L57.3866 107.465L57.2459 107.793C57.2138 107.865 57.1856 107.937 57.1575 108.005C57.1696 108.005 57.1816 108.001 57.1897 107.997L57.8005 107.869L57.5393 108.437C57.1776 109.226 56.9686 109.858 56.9124 110.358L57.27 110.478L57.041 110.694C57.3263 110.954 57.8005 111.118 58.4757 111.202L58.9539 111.258L58.7088 111.67C58.6364 111.79 58.5681 111.91 58.5038 112.023C58.5762 112.035 58.6485 112.043 58.7208 112.055L59.4844 112.151L58.8735 112.615C58.5159 112.887 58.2587 113.103 58.0778 113.275L58.7048 113.507L57.8849 113.463C57.8608 113.491 57.8367 113.515 57.8126 113.539C57.7965 113.587 57.7844 113.631 57.7724 113.675L58.7048 113.663L58.2064 113.875C58.3832 113.871 58.6083 113.855 58.8936 113.823C58.9338 113.819 58.978 113.811 59.0222 113.807L59.0423 113.975C59.1308 113.971 59.2232 113.967 59.3196 113.959L64.8054 113.663L61.5059 114.223L68.1129 113.815L61.7269 114.555L62.5829 114.583L59.6532 115.083L63.7323 115.336L59.4844 115.696C59.396 115.704 59.3076 115.712 59.2272 115.72V115.932L63.0652 116.44L57.2057 116.3C55.6303 116.264 54.8386 116.144 54.5131 115.868C53.8942 115.712 53.7897 115.564 53.7897 115.336C53.7897 115.207 53.8259 115.107 53.9545 115.023C53.6209 114.907 53.42 114.731 53.3356 114.495C53.2874 114.363 53.2793 114.223 53.3155 114.071C52.9538 114.439 52.7328 114.787 52.7488 115.087C52.7729 115.548 53.3758 116.064 54.6377 116.704L55.7067 117.248L54.5091 117.3C54.0027 117.32 53.1226 117.36 52.5519 117.424C52.5881 117.488 52.6283 117.552 52.6685 117.616C53.0824 117.816 53.6651 118.064 54.28 118.32C54.4568 118.392 54.6497 118.468 54.8547 118.56L54.6055 119.137C54.4086 119.057 54.2237 118.977 54.0469 118.905C53.8058 118.813 53.6008 118.737 53.42 118.681L53.9545 119.377L53.0744 119.157C53.002 119.137 52.9136 119.117 52.8212 119.093C53.1186 119.401 53.5928 119.821 54.3323 120.361L62.7718 126.507L62.7919 126.503ZM53.0945 112.315C51.8406 114.171 51.5914 115.384 52.2585 116.832C52.5358 116.784 52.9136 116.752 53.4079 116.72C52.5479 116.172 52.1661 115.68 52.1339 115.119C52.0897 114.347 52.781 113.583 53.9826 112.695C53.9344 112.647 53.8902 112.599 53.854 112.547C53.5044 112.527 53.2552 112.451 53.0904 112.319L53.0945 112.315ZM55.132 115.352C55.6223 115.444 56.3377 115.548 57.27 115.672L57.5554 115.708C57.5473 115.676 57.5433 115.644 57.5433 115.604C57.5433 115.576 57.5433 115.552 57.5433 115.528C57.4227 115.424 57.3223 115.303 57.2459 115.167C57.2298 115.139 57.2138 115.107 57.2017 115.079L56.4904 115.163C55.8916 115.231 55.4575 115.291 55.1441 115.344C55.1441 115.344 55.136 115.348 55.136 115.352H55.132ZM54.2599 113.695C53.9183 114.083 53.9304 114.239 53.9464 114.283C53.9585 114.315 54.0791 114.539 55.1923 114.571C55.349 114.483 55.5299 114.387 55.7429 114.279C54.9713 114.215 54.4649 114.051 54.2599 113.695ZM57.049 114.371C56.9244 114.423 56.8119 114.475 56.7034 114.523L57.053 114.503C57.053 114.459 57.049 114.415 57.049 114.371ZM54.8266 113.135C54.7864 113.235 54.7743 113.311 54.7984 113.367C54.8507 113.491 55.2043 113.703 57.0088 113.683C57.0329 113.599 57.0691 113.515 57.1253 113.419L56.6551 113.395C55.8835 113.355 55.2847 113.271 54.8306 113.135H54.8266ZM55.8433 112.319C56.0925 112.491 56.406 112.647 56.7797 112.787L57.3424 112.995C57.4107 112.815 57.4911 112.623 57.5875 112.427C57.1575 112.267 56.84 112.043 56.623 111.754L56.3176 111.97C56.1488 112.091 55.992 112.207 55.8433 112.315V112.319ZM53.4803 111.766C53.4803 111.79 53.4803 111.806 53.4843 111.818C53.4843 111.818 53.5164 111.858 53.6491 111.886C53.6491 111.854 53.6491 111.818 53.6491 111.782C53.6129 111.746 53.5767 111.706 53.5486 111.662C53.5245 111.694 53.5004 111.73 53.4762 111.762L53.4803 111.766ZM57.2982 111.554C57.4469 111.678 57.6398 111.782 57.8769 111.866C57.897 111.826 57.9211 111.786 57.9452 111.742C57.7041 111.694 57.4911 111.63 57.2982 111.554ZM55.0114 110.358C54.9672 110.79 55.0074 111.17 55.1441 111.494C55.2003 111.494 55.2646 111.49 55.3289 111.486C55.554 111.254 55.8112 110.994 56.1126 110.71C55.7589 110.538 55.4656 110.326 55.2204 110.078C55.1481 110.174 55.0798 110.266 55.0155 110.362L55.0114 110.358ZM54.3765 111.45C54.4046 111.454 54.4367 111.462 54.4689 111.466C54.4568 111.418 54.4408 111.37 54.4327 111.318C54.4126 111.362 54.3966 111.406 54.3765 111.446V111.45ZM56.3899 111.314C56.3698 111.334 56.3457 111.354 56.3256 111.378L56.41 111.366C56.41 111.366 56.3979 111.334 56.3899 111.314ZM51.5994 107.377C51.4909 108.706 51.5753 109.646 52.0174 110.054C52.3469 110.358 52.9216 110.418 53.8178 110.238C54.0188 110.026 54.2479 109.798 54.5171 109.542C54.5252 109.51 54.5332 109.478 54.5412 109.446C54.2278 109.442 53.9826 109.358 53.7897 109.194C53.5647 109.006 53.4361 108.73 53.3838 108.357C53.002 108.585 52.7729 108.593 52.5881 108.437C52.4796 108.345 52.4193 108.225 52.4394 108.029C52.3188 107.997 52.2103 107.953 52.1058 107.889C51.9049 107.769 51.7401 107.601 51.6035 107.373L51.5994 107.377ZM55.6062 109.582C55.7429 109.73 55.8996 109.862 56.0764 109.978C56.0523 109.654 56.0965 109.282 56.2091 108.854L56.0282 109.07C55.8875 109.238 55.7429 109.41 55.6062 109.582ZM53.9786 107.933C53.9826 108.305 54.0429 108.589 54.1916 108.718C54.2559 108.774 54.3483 108.806 54.4649 108.818C54.3483 108.481 54.272 108.121 54.2197 107.737C54.1353 107.809 54.055 107.873 53.9786 107.937V107.933ZM55.6504 108.113C55.5781 108.297 55.5098 108.477 55.4455 108.649C55.5218 108.625 55.5982 108.601 55.6786 108.573L55.9237 108.485C55.8835 108.453 55.8433 108.417 55.8072 108.377C55.7388 108.297 55.6866 108.209 55.6504 108.113ZM54.7984 107.241C54.8266 107.593 54.8708 107.913 54.9391 108.201C55.0436 107.925 55.1601 107.637 55.2887 107.337C55.1441 107.293 55.0074 107.237 54.8788 107.169L54.7984 107.237V107.241ZM56.205 107.653C56.205 107.821 56.2372 107.913 56.2814 107.965C56.3095 107.997 56.3618 108.033 56.4622 108.053C56.4864 107.989 56.5145 107.921 56.5426 107.853C56.418 107.797 56.3055 107.729 56.205 107.653ZM54.1152 106.509C54.0871 106.693 54.059 106.877 54.0389 107.053C54.059 107.041 54.0831 107.029 54.1072 107.017L54.1514 106.993C54.1434 106.841 54.1394 106.689 54.1353 106.533C54.1273 106.525 54.1233 106.517 54.1152 106.509ZM55.4093 106.713C55.4415 106.725 55.4736 106.733 55.5058 106.745C55.4937 106.717 55.4816 106.689 55.4696 106.661L55.4093 106.713ZM49.5378 105.425C49.7427 105.881 49.9316 106.013 50.0522 106.041C50.2973 106.101 50.6791 105.861 51.1333 105.353C51.1252 105.252 51.1212 105.148 51.1172 105.04C50.5666 105.373 50.0602 105.501 49.5699 105.429C49.5579 105.429 49.5458 105.429 49.5338 105.425H49.5378ZM47.7293 104.144C47.5565 104.596 47.4319 104.992 47.3355 105.304C47.2872 105.465 47.243 105.605 47.1988 105.729C47.3877 105.665 47.6971 105.413 48.1553 104.624C48.0146 104.484 47.874 104.324 47.7293 104.144ZM54.0429 104.976C54.0429 104.976 54.0509 105 54.055 105.012L54.067 104.992C54.067 104.992 54.0509 104.98 54.0429 104.972V104.976ZM48.0307 94.6493C48.083 94.7333 48.1392 94.8173 48.1915 94.9014C48.2035 94.7613 48.2558 94.6453 48.3482 94.5613C48.6376 94.2852 49.1198 94.4212 49.7307 94.5933C50.3174 94.7573 51.0328 94.9614 51.4829 94.7653L51.2056 93.1809C50.9484 93.2129 50.7314 93.2129 50.5505 93.1809C50.3215 93.501 49.9638 93.8171 49.3931 94.0091C48.8988 94.1371 48.6134 94.3052 48.2839 94.5013C48.2035 94.5493 48.1151 94.6013 48.0267 94.6493H48.0307Z" fill="currentColor"/>
<path d="M56.5557 109.522C56.4794 109.522 56.4352 109.47 56.3749 109.39C56.2624 109.39 56.1619 109.35 56.0815 109.27C55.8605 109.054 55.9127 108.734 56.3347 108.037C56.1458 108.109 55.981 108.109 55.8364 108.009C55.6636 107.893 55.5993 107.705 55.6435 107.357C55.3179 106.849 55.2295 106.029 55.2335 104.884C54.9241 104.16 54.687 103.32 54.4579 102.48C54.3253 102.116 54.1967 101.747 54.0761 101.399C53.6943 100.311 53.2643 99.0786 53.2764 97.8223C53.3045 97.102 53.0553 95.7336 52.8343 94.5293C52.6534 93.561 52.4847 92.6367 52.3279 91.8004C52.2074 90.9922 52.0988 90.236 52.348 89.7118C52.3922 89.5838 52.4525 89.4677 52.5289 89.3597C52.6293 89.0116 52.9026 88.7635 53.1437 88.5395C53.2 88.4874 53.2603 88.4314 53.3125 88.3794C53.417 88.1914 53.5135 87.9993 53.6099 87.8032L54.2087 86.6149V87.9433C54.2087 88.2834 54.0319 88.5395 53.8229 88.7595C53.5939 89.1677 53.3206 89.5758 52.9307 89.9599C52.7901 90.42 52.8946 91.1643 52.995 91.8885L53.9917 97.2661C54.0962 98.8466 54.5383 100.423 54.9643 101.943L54.9763 101.98C55.0045 102.084 55.0326 102.192 55.0607 102.296C55.326 103.036 55.5993 103.764 55.8444 104.32L55.8725 104.384V104.452C55.8725 104.556 55.8685 104.656 55.8685 104.76C56.0695 105.208 56.2945 105.593 56.5678 105.877L56.7044 106.017L56.6401 106.201C56.612 106.273 56.5879 106.345 56.5678 106.409C56.6522 106.273 56.7486 106.121 56.8572 105.957C56.9415 105.296 57.5203 104.044 58.1351 102.72L58.1753 102.628C58.5933 101.723 59.0113 100.815 59.381 100.011C60.1486 98.3424 61.1051 97.7022 61.1453 97.6742L67.5473 93.4649L61.515 98.1824C61.515 98.1824 60.7273 98.8226 60.1084 100.359C59.7829 101.191 59.4212 102.132 59.0555 103.072C58.5531 104.368 57.9864 105.841 58.0065 106.489V106.577L57.9664 106.653C57.8578 106.841 57.7694 107.001 57.6891 107.145L57.681 107.157C57.5363 107.425 57.4399 107.617 57.3796 107.761C57.4077 107.745 57.4359 107.725 57.464 107.705L60.7434 105.457L59.0756 107.037L66.0281 102.284L62.2987 105.172L64.0268 104.096L57.894 108.654C57.3716 109.042 57.0541 109.278 56.8491 109.406C56.8491 109.406 56.8491 109.406 56.8451 109.41C56.7085 109.494 56.6241 109.526 56.5638 109.526L56.5557 109.522ZM56.821 107.181L56.9014 107.269C57.0179 107.033 57.1706 106.753 57.3635 106.413C57.3635 106.377 57.3635 106.337 57.3675 106.297C57.1144 106.693 56.9375 106.977 56.821 107.181ZM55.9127 106.085C55.9208 106.145 55.9288 106.205 55.9368 106.265C55.9489 106.229 55.961 106.197 55.973 106.161C55.9529 106.137 55.9328 106.113 55.9127 106.089V106.085ZM54.2047 104.348L53.6381 103.996L52.8182 104.196C51.4679 104.524 50.6521 103.432 49.8081 102.06L49.579 101.895C48.9923 101.475 48.2649 100.955 47.5053 100.451L47.1637 100.235C46.368 99.7388 45.5481 99.2227 44.8368 98.5145L44.5273 98.2064L44.9172 98.0103C46.3439 97.3021 47.5736 97.7342 48.4216 98.1904C48.3694 98.1424 48.3171 98.0943 48.2689 98.0463C47.4651 97.2821 46.5729 96.3538 46.0384 95.2935C45.7651 94.6613 45.7451 94.1692 45.9661 93.765C46.3559 93.0608 47.3606 92.8968 48.3332 92.7407C48.6627 92.6887 48.9762 92.6367 49.2495 92.5687C49.1209 91.5684 48.9722 90.448 48.8154 89.4677C48.5663 87.9113 48.6909 86.7469 49.1249 86.5029C49.2615 86.4268 49.4303 86.4388 49.5469 86.5389L49.579 86.5669C50.1618 87.2151 50.861 87.2911 51.6608 87.3031C51.7934 87.2471 51.9501 87.2471 52.135 87.3391L53.3286 87.9353H51.9944C51.9461 87.9353 51.8939 87.9353 51.8457 87.9353C51.7974 87.9953 51.7371 88.1033 51.701 88.1674C51.5724 88.3954 51.4076 88.6835 51.0982 88.6755C50.9495 88.6755 50.8249 88.6035 50.7164 88.4955C50.6119 88.8916 50.5114 89.6478 50.6601 90.8442C50.7807 91.8044 50.9575 93.2609 49.9327 93.781L49.8764 93.8091H49.8161C48.8717 93.8931 48.2086 94.1852 48.2086 94.5213C48.2086 96.2898 49.4143 97.6342 50.6882 99.0586C51.3192 99.7628 51.9582 100.475 52.5088 101.183L52.9549 101.627L52.778 101.539C53.2643 102.2 53.6582 102.852 53.8912 103.488L54.2007 104.336L54.2047 104.348ZM48.0679 99.4027C48.7632 100.139 49.5951 100.711 50.3506 101.187L50.427 101.251C51.3353 102.352 52.1471 103.288 52.8745 103.608L53.3487 103.816C52.7137 103.396 52.1712 102.748 51.6005 102.064C51.2911 101.691 50.9736 101.311 50.636 100.963C49.8202 100.179 48.9762 99.6628 48.072 99.4027H48.0679ZM51.3996 100.863C51.6327 101.123 51.8537 101.387 52.0667 101.643C51.8738 101.395 51.6688 101.143 51.4558 100.891L51.3955 100.863H51.3996ZM45.6365 98.4024C46.2153 98.9026 46.8623 99.3067 47.4933 99.7028C47.3245 99.5148 47.1637 99.3187 47.015 99.1106L46.6051 98.5385L47.3084 98.6145C47.6058 98.6465 47.9032 98.7065 48.1925 98.7865C47.2481 98.2664 46.4403 98.1424 45.6406 98.4024H45.6365ZM49.8885 93.0368L49.7036 93.1008C49.3379 93.2289 48.8998 93.2969 48.4417 93.3729C47.658 93.501 46.7699 93.641 46.5287 94.0771C46.4082 94.2932 46.4403 94.6173 46.6212 95.0374C47.0793 95.9497 47.871 96.7859 48.6024 97.4942C48.0077 96.6099 47.5897 95.6496 47.5897 94.5333C47.5897 93.8251 48.3774 93.3289 49.7076 93.2049C49.78 93.1609 49.8443 93.1008 49.8925 93.0328L49.8885 93.0368ZM49.3942 87.2711C49.3218 87.5992 49.2615 88.2634 49.4424 89.3797C49.6152 90.456 49.776 91.6964 49.9126 92.7647L49.9367 92.9648C50.2019 92.5207 50.1376 91.7284 50.0412 90.9322C49.8443 89.3317 50.0452 88.1874 50.3627 87.7832C50.0291 87.6832 49.6996 87.5272 49.3942 87.2711ZM51.058 87.9153C51.07 87.9353 51.0821 87.9553 51.0941 87.9713C51.1062 87.9553 51.1142 87.9353 51.1223 87.9193C51.1022 87.9193 51.0781 87.9193 51.0539 87.9153H51.058Z" fill="currentColor"/>
<path d="M55.6965 104.064C55.4553 104.064 55.383 103.868 55.3549 103.72C54.6757 102.952 54.2095 101.987 53.888 100.695C53.6147 99.5867 53.5022 98.4824 53.4379 97.5221C53.4218 97.394 53.4057 97.258 53.3816 97.1179C53.2811 96.5858 53.1766 96.0136 53.0762 95.4374L52.5055 92.3525C52.3648 91.3162 52.2242 90.2599 52.6703 89.5077L52.6944 89.4717C52.7748 89.3716 52.8592 89.2676 52.9476 89.1636C53.5343 88.4594 54.2015 87.6591 54.2095 86.5988C54.2215 86.1867 54.1894 85.8786 54.1532 85.6905C53.9885 85.6985 53.8277 85.6465 53.7192 85.5185C53.5745 85.3544 53.5062 85.0543 53.9804 84.5822L54.2899 84.2741L54.4868 84.6622C55.6844 87.0429 54.0568 89.1596 53.253 89.9958C52.9516 90.7 53.0963 91.7483 53.2369 92.7606C53.4459 93.881 53.6549 95.0053 53.8558 96.0696C53.9242 96.4257 53.9764 96.7538 54.0166 97.0499C54.0286 97.1219 54.0447 97.194 54.0568 97.262C54.0568 97.318 54.0648 97.37 54.0688 97.426C54.113 97.7821 54.1452 98.0862 54.1693 98.3423C54.1814 98.4744 54.1934 98.5984 54.2055 98.7104C54.4466 99.2586 54.5471 99.8148 54.6475 100.355C54.6757 100.519 54.7078 100.679 54.74 100.839C54.8806 101.511 55.0735 102.035 55.5598 102.396L55.6281 102.448L55.6603 102.528C55.7969 102.848 55.9215 103.152 55.9778 103.212L56.0783 103.32V103.484C56.0461 103.756 56.0099 104.064 55.7005 104.064H55.6965ZM39.5488 98.8585C38.97 98.8585 38.4034 98.6904 37.9975 98.3703C37.5634 98.0222 37.3786 97.5261 37.4951 97.0059C37.5152 93.6249 40.2119 92.6606 42.8201 91.7283C44.2026 91.2362 45.6293 90.724 46.5978 89.8558C46.6179 89.4436 46.63 89.0275 46.646 88.6074C46.6581 88.3113 46.6661 88.0112 46.6782 87.7111C46.6782 86.2427 46.7505 85.1183 47.1323 84.4501L47.1564 84.4141C47.715 83.6859 47.6668 82.8097 47.6146 81.8854C47.5985 81.6173 47.5864 81.3452 47.5824 81.0731L47.3493 80.0688C46.4772 76.3637 45.7257 73.1628 46.1356 69.2536C46.4451 67.309 46.6259 66.3287 46.63 66.3207L48.563 55.9336L47.2529 66.4167C47.2529 66.4167 47.1202 67.4811 46.9796 69.1976C46.7143 72.8107 48.0004 75.8396 49.3628 79.0445C49.7084 79.8608 50.0701 80.705 50.3956 81.5573C51.4325 83.6179 50.3474 85.6305 48.977 86.8269C48.5831 87.291 48.4826 88.2393 48.4304 89.1996C48.354 89.7037 48.2938 90.1919 48.2375 90.68L48.141 91.4522L47.9602 91.5163C47.1403 91.8124 46.2843 92.0244 45.3721 92.2485C42.8643 92.8687 40.2721 93.5089 38.7048 95.9616C38.4918 96.3857 38.5601 96.9219 38.9017 97.37C39.2112 97.7741 39.814 98.1463 40.5816 97.9982L42.8884 97.5381L40.7825 98.5864C40.4048 98.7744 39.9707 98.8665 39.5407 98.8665L39.5488 98.8585ZM38.102 97.206C38.0658 97.466 38.1623 97.6941 38.3953 97.8822C38.4838 97.9542 38.5882 98.0142 38.7008 98.0622C38.5963 97.9662 38.4958 97.8622 38.4074 97.7461C38.2788 97.5781 38.1743 97.394 38.102 97.206ZM40.2842 93.4769C39.6251 93.853 39.0705 94.3131 38.6887 94.9173C39.171 94.3291 39.7095 93.861 40.2842 93.4769ZM47.6708 84.7782C47.3493 85.3624 47.3051 86.5388 47.3091 87.7231C47.2971 88.0352 47.289 88.3313 47.277 88.6274C47.2609 89.0915 47.2448 89.5557 47.2247 90.0118V90.1359L47.1283 90.2239C46.3406 90.9761 45.2917 91.4723 44.1986 91.8924C44.5402 91.8044 44.8858 91.7163 45.2274 91.6323C46.0512 91.4282 46.8349 91.2362 47.5704 90.9841L47.6186 90.6C47.6789 90.1078 47.7392 89.6157 47.8115 89.1316C47.8597 88.1553 47.9642 87.0269 48.5228 86.3947L48.551 86.3667C49.7486 85.3264 50.7131 83.5859 49.8249 81.8094C49.4873 80.9411 49.1297 80.1008 48.7841 79.2886C48.0245 77.5001 47.2489 75.6755 46.7746 73.7389C46.9876 75.7835 47.4538 77.7681 47.9602 79.9288L48.2134 81.0411C48.2134 81.3132 48.2295 81.5853 48.2455 81.8534C48.3018 82.8457 48.3581 83.87 47.6749 84.7782H47.6708Z" fill="currentColor"/>
<path d="M91.678 106.536L92.542 104.224C92.8314 103.451 92.9841 102.947 93.0042 102.719C92.6585 102.827 91.7865 103.391 90.8702 103.984C90.6009 104.16 90.3075 104.348 89.99 104.548L89.6484 104.02C93.9526 101.211 95.9018 99.9903 97.7665 99.9903C97.7906 99.9903 97.8147 99.9903 97.8388 99.9903C98.7431 97.7737 99.6955 96.1852 101.383 93.7245C101.432 93.1163 101.733 92.292 102.26 91.1797C101.966 90.8716 101.83 90.3514 101.773 89.6232C101.468 89.015 101.552 87.8467 101.809 86.0101L102.613 80.2844L102.416 86.6743C102.384 87.7147 102.352 88.6829 102.392 89.4272C102.404 89.4392 102.416 89.4472 102.428 89.4552C102.533 89.5192 102.83 89.4552 103.353 89.0951L104.402 88.3749L103.811 89.4992C103.57 89.9553 103.333 90.4155 103.116 90.8556C103.232 90.8396 103.373 90.7996 103.534 90.7316L104.538 90.3114L103.911 91.1997C103.18 92.24 102.549 93.1363 101.998 93.9365C102.002 94.0606 102.03 94.1606 102.079 94.2366C102.207 94.4327 102.569 94.5167 103.152 94.4887L104.181 94.4367L103.361 95.0529C100.58 97.1415 99.4142 98.2938 98.3733 100.35C98.3613 100.378 98.3533 100.402 98.3412 100.43L98.2568 100.643H98.2287C97.9956 101.123 97.7705 101.651 97.5254 102.251L97.3284 102.743L96.9909 102.331C96.5006 101.735 96.171 101.679 95.9741 101.687C95.3271 101.711 94.467 102.555 93.1006 104.512L91.682 106.536H91.678ZM93.5347 102.287C93.615 102.399 93.6432 102.543 93.6311 102.743C94.037 102.247 94.3947 101.871 94.7283 101.603C94.3625 101.799 93.9687 102.027 93.5387 102.287H93.5347ZM95.9982 101.059C96.3921 101.059 96.7578 101.219 97.1235 101.559C97.2601 101.227 97.3968 100.915 97.5334 100.623C97.011 100.655 96.4644 100.799 95.8294 101.067C95.8656 101.063 95.9058 101.059 95.9419 101.059C95.958 101.059 95.9781 101.059 95.9982 101.059ZM101.552 94.5847C100.945 95.485 100.439 96.2692 99.997 97.0254C100.612 96.4173 101.355 95.7931 102.304 95.0609C102.006 94.9928 101.729 94.8528 101.552 94.5847ZM102.81 91.4758C102.722 91.6638 102.637 91.8519 102.557 92.0319C102.682 91.8559 102.806 91.6758 102.939 91.4918C102.895 91.4918 102.854 91.4838 102.814 91.4798L102.81 91.4758ZM102.461 90.1034C102.489 90.2674 102.525 90.4075 102.573 90.5235C102.645 90.3754 102.722 90.2234 102.802 90.0674C102.686 90.0954 102.573 90.1074 102.461 90.1034Z" fill="currentColor"/>
<path d="M65.0041 108.617L69.1154 106.868C69.1154 106.868 69.7865 106.584 70.7872 106.148C71.2896 105.936 71.8924 105.692 72.5555 105.424C73.3191 105.116 74.1631 104.776 75.0231 104.416L75.0794 104.395C77.6635 103.855 79.7051 102.415 80.979 100.222C81.4131 99.49 81.7506 98.6858 82.0279 97.9936L82.1726 97.6375L82.4941 97.8495C82.7393 98.0096 82.9965 98.1376 83.2256 98.2497C83.5189 98.3977 83.752 98.5097 83.8967 98.6618C84.1378 98.6858 84.3508 98.7098 84.5357 98.7418C84.2062 97.8975 83.2698 97.1933 82.2932 96.4571L82.1646 96.3531C80.9067 95.3088 79.6046 94.2284 78.4793 92.824C77.981 92.4439 77.5067 92.1478 77.0285 91.9118C75.3366 91.1995 73.4638 90.6794 71.6553 90.1792C71.2615 90.0712 70.8636 89.9592 70.4738 89.8471C69.7665 89.6431 69.0149 89.419 68.3197 89.1389L68.1629 89.0749L68.1308 88.9109C67.962 88.0746 68.1067 87.1863 68.2433 86.3261C68.3076 85.93 68.3679 85.5378 68.4041 85.1577L68.0705 85.8219V81.5967L68.6693 82.785C68.6814 82.809 68.6934 82.829 68.7015 82.853C68.7135 82.829 68.7216 82.809 68.7336 82.785L69.1556 81.9448C69.1114 81.7727 69.0672 81.6007 69.027 81.4326L69.6379 81.2686C69.7222 81.5646 69.7946 81.8567 69.8629 82.1528C70.1081 83.0811 70.3813 83.9934 70.7631 84.7536L70.7913 84.8416C71.0083 86.154 71.7076 86.9703 72.9293 87.3384L73.9219 87.6345C74.3037 87.7505 74.6895 87.8625 75.0794 87.9826C75.212 88.0066 75.3406 88.0266 75.4732 88.0506C76.06 88.1506 76.6467 88.2547 77.2294 88.3667L77.2897 88.3827C77.7398 88.5627 78.206 88.9989 78.7646 89.7591C79.6568 91.3156 80.8303 92.644 82.2691 93.7363C82.7835 94.1284 83.33 94.4845 83.8163 94.8006C84.6362 95.3368 85.1225 95.6649 85.3274 95.965C85.3877 95.997 85.448 96.029 85.5002 96.061L85.6248 96.089C88.2009 96.6652 89.1775 96.8972 89.515 97.1653C90.5519 97.3334 91.2632 97.4854 91.7335 97.6695C92.4367 97.7815 92.8025 97.9656 92.8869 98.3137C92.8869 98.3217 92.8909 98.3297 92.8909 98.3377C94.0563 98.1376 94.2332 98.1856 94.3176 98.4777C94.3939 98.7338 94.3658 98.8578 93.3329 99.306C93.3972 99.574 93.12 99.7501 90.0053 100.898L86.9229 102.035L88.6148 101.01L83.6757 102.647C83.8083 102.843 83.9248 103.091 84.0173 103.327C84.1579 103.683 83.965 103.815 83.8726 103.851C83.4024 104.127 82.7955 104.255 82.1405 104.203C81.9837 104.207 80.9629 104.415 78.7807 104.976C77.9247 105.188 77.0968 105.416 76.2931 105.64C75.0995 105.972 73.8617 106.316 72.5194 106.6C70.6868 107.084 69.3163 107.452 69.3163 107.452L64.9961 108.613L65.0041 108.617ZM75.2441 105.008C74.6051 105.276 73.9782 105.532 73.3874 105.768C74.3439 105.54 75.2441 105.288 76.1283 105.044C76.9361 104.82 77.768 104.588 78.632 104.375C79.8256 104.071 81.8953 103.563 82.1887 103.587C82.6107 103.623 83.0166 103.559 83.3622 103.415C83.2979 103.291 83.2095 103.135 83.1371 103.015C82.896 103.111 82.675 103.131 82.47 103.071C82.462 103.071 82.4539 103.067 82.4459 103.063L80.4084 103.739L82.2972 102.999C82.0038 102.835 81.8109 102.515 81.6582 102.211L81.6421 102.171C81.4533 101.607 81.4332 101.014 81.5738 100.478C81.5577 100.502 81.5457 100.526 81.5296 100.55C80.1712 102.887 77.997 104.432 75.2441 105.012V105.008ZM83.5873 103.303C83.5873 103.303 83.5591 103.315 83.5471 103.327C83.5591 103.319 83.5752 103.311 83.5873 103.303ZM83.2215 102.307C83.3381 102.307 83.4506 102.383 83.5551 102.499L90.8734 99.6221C91.0784 99.486 91.2592 99.366 91.4079 99.258L91.2914 99.282L91.8178 98.6218C91.8902 98.5337 91.8902 98.4937 91.8902 98.4937C91.8701 98.4257 91.7777 98.3617 91.629 98.2977C90.9779 98.2016 89.9491 98.1456 88.9404 98.0936L85.9744 97.9376C86.1111 98.1176 86.2116 98.3137 86.2718 98.5297C86.3803 98.9299 86.3361 99.354 86.1312 99.8101C86.5049 99.7421 86.5853 99.7941 86.6737 99.8821L86.8023 100.014L86.7501 100.198C86.7099 100.338 86.6577 100.51 85.0702 100.858L84.0454 101.083L84.7728 100.334C84.7728 100.334 84.8009 100.306 84.813 100.29L84.4593 100.546L84.5719 100.006C84.3669 99.9422 84.0454 99.8741 83.5591 99.8381L83.4627 99.8301L83.3863 99.7701C83.2376 99.6541 82.7915 99.6381 82.5906 99.8301C82.1324 100.354 81.9837 101.191 82.2289 101.951C82.3334 102.155 82.4861 102.423 82.6468 102.471C82.7433 102.499 82.884 102.459 83.0688 102.351L83.1251 102.327C83.1572 102.315 83.1894 102.311 83.2175 102.311L83.2215 102.307ZM85.4158 99.8101C85.4158 99.8101 85.4158 99.8141 85.4198 99.8181C85.4279 99.8061 85.4359 99.7941 85.4399 99.7821C85.4319 99.7941 85.4239 99.8021 85.4158 99.8141V99.8101ZM85.2591 98.9459C85.4239 99.0299 85.5243 99.1419 85.5645 99.29C85.5846 99.366 85.5846 99.442 85.5726 99.51C85.7012 99.2059 85.7293 98.9339 85.661 98.6898C85.5525 98.2937 85.1908 97.9296 84.5196 97.5454C84.8894 97.9696 85.1586 98.4297 85.2591 98.9459ZM82.4821 98.5737C82.3655 98.8578 82.2409 99.1419 82.1123 99.426C82.1204 99.414 82.1324 99.406 82.1405 99.394C82.4901 99.0579 83.0447 98.9899 83.4546 99.1099L83.4466 99.0899C83.4064 99.0419 83.1412 98.9099 82.9523 98.8138C82.8076 98.7418 82.6468 98.6618 82.4861 98.5697L82.4821 98.5737ZM84.1499 96.6492C84.8009 96.9493 85.5163 97.3454 85.9423 97.8895L87.9035 97.5654C87.3288 97.4854 86.726 97.4054 86.1191 97.3254L85.2671 97.2133L85.6047 96.8772C85.5284 96.8172 85.4118 96.7412 85.2712 96.6612L84.817 96.5611V96.4131C84.6482 96.3251 84.4754 96.2371 84.3106 96.153C83.8525 95.917 83.3501 95.6609 82.8438 95.3688C83.4225 95.7809 83.9128 96.193 84.1499 96.6532V96.6492ZM69.5936 88.4427C70.5421 88.7748 71.5307 89.0789 72.5676 89.399C73.8094 89.7791 75.0914 90.1752 76.3292 90.6314C77.2174 90.9595 77.989 91.2836 78.6883 91.6237L78.7727 91.6637L78.8209 91.7437C79.3916 92.7 80.1592 93.4242 80.8786 93.9844C79.6207 92.908 78.6159 91.6157 77.8765 90.1152C77.4424 89.6351 77.0406 89.323 76.5784 89.1069C76.0479 88.9349 75.4933 88.7628 74.9347 88.5948C74.7056 88.5547 74.4765 88.5147 74.2475 88.4747C73.3995 88.3227 72.4028 88.1266 71.4061 87.8465L71.3137 87.8185L71.2534 87.7465C70.104 86.3941 69.7906 84.8736 69.457 83.2612C69.4168 83.0691 69.3766 82.873 69.3364 82.681V82.9251C69.3364 83.6733 69.4409 84.3855 69.5414 85.0737C69.6901 86.09 69.8468 87.1423 69.6579 88.2987L69.6419 88.3987L69.5936 88.4467V88.4427ZM68.9828 85.6419C68.9506 85.9019 68.9064 86.162 68.8662 86.4221C68.7537 87.1343 68.6452 87.8105 68.7015 88.4387L69.0511 88.0946C69.1757 87.2423 69.0993 86.4501 68.9868 85.6419H68.9828Z" fill="currentColor"/>
<path d="M79.5426 99.0379H79.5225C77.5854 98.9099 76.8982 97.4374 76.8982 96.101C76.8982 95.2968 77.1313 94.5846 77.5935 93.9884C77.9752 93.4923 78.4053 93.2482 78.9197 93.2682C78.5097 92.8201 78.1079 92.488 77.714 92.2719C77.1273 92.0678 76.6048 92.0238 76.2672 92.0238L76.1828 92.0118C75.3469 91.7837 74.4949 91.5917 73.6711 91.4036C72.799 91.2036 71.8987 90.9995 71.0226 90.7554C69.9657 90.4634 69.1941 90.1793 68.5189 89.8392L68.3983 89.7791L68.3582 89.6471C68.0005 88.4347 67.7714 87.1584 67.5504 85.926C67.0159 82.9531 66.4613 79.8802 64.07 77.4955L63.8008 77.2274L64.1183 77.0153C64.1183 77.0153 64.8216 76.5232 64.6407 76.1631L64.922 76.023V75.7549L65.0748 75.947L65.2034 75.883C65.4967 76.4672 65.7861 76.7512 66.0915 77.0553L66.63 77.5915H66.2884C68.0366 80.3763 69.0172 84.2895 69.0172 88.5748C69.0172 88.9029 69.6241 89.191 70.1988 89.303L70.2631 89.323C71.1432 89.6991 72.0836 90.0152 73.0562 90.2593C74.0046 90.4994 74.9892 90.6714 75.9859 90.7754H75.998C76.9022 90.7754 77.9471 90.9755 79.2773 92.3839C79.7234 92.8281 80.1334 93.3082 80.5312 93.7763C80.7241 94.0004 80.913 94.2245 81.1059 94.4445C81.7811 95.2088 82.3799 95.7689 82.9265 96.1571L83.1837 96.3411L85.0966 96.4291C85.0765 96.4131 85.0524 96.3931 85.0283 96.3771C84.759 96.2891 84.4777 96.1971 84.1843 96.097L84.116 96.073L84.0638 96.021C83.7945 95.7569 83.3404 95.3928 82.8179 94.9727C82.191 94.4726 81.4837 93.9044 80.7965 93.2762C79.639 92.2239 78.4977 90.9675 77.3121 89.439C76.6812 89.203 75.9899 88.9749 75.146 88.7308C74.3864 88.5108 73.6228 88.2827 72.8512 88.0506C72.156 87.8386 71.2879 87.5745 70.5806 87.1383L70.4359 87.0503V86.8823C70.4118 86.3061 70.3555 85.7299 70.2631 85.1538C69.2503 81.2486 67.4901 78.0316 65.0346 75.5949C64.8296 75.3948 64.6206 75.1948 64.4076 75.0027L64.8296 74.5386C65.0547 74.7386 65.2717 74.9467 65.4887 75.1588C68.4104 78.0316 70.3113 81.5247 70.886 85.0417C70.9141 85.1578 70.9463 85.2738 70.9744 85.3898C71.1151 86.2901 71.4768 86.8463 72.0836 87.1263C72.7347 87.3424 73.4822 87.5665 74.4788 87.8466C74.9089 87.9666 75.3389 88.0826 75.7689 88.1987C76.3315 88.3507 76.8982 88.5068 77.4568 88.6628L77.5533 88.6908L77.6176 88.7708C78.6183 90.0272 79.5546 91.0835 80.475 91.9958C81.3149 92.8281 82.3075 93.7163 83.5172 94.7046L83.8709 94.9127C83.903 94.9327 83.9392 94.9527 83.9714 94.9727C83.8066 94.8247 83.6378 94.6766 83.473 94.5246C83.26 94.3365 83.043 94.1405 82.826 93.9444C81.5118 92.624 80.3865 91.1916 79.4702 89.6871C78.5379 88.1547 77.7944 86.4942 77.2639 84.7496C76.9102 84.4255 76.5566 84.1094 76.211 83.8054C75.801 83.4813 75.4393 83.1652 75.1219 82.8491L67.5624 75.3188L75.5519 82.3929C75.7649 82.581 75.9819 82.769 76.1989 82.9611C76.3356 83.0811 76.4762 83.2012 76.6169 83.3252C76.7656 83.4412 76.9183 83.5573 77.079 83.6773L77.1554 83.7413C77.6939 84.2095 78.3048 84.7376 78.8473 86.4622C79.3216 88.1667 80.1374 89.7191 81.2707 91.0915C82.0463 92.0278 82.9546 92.8641 83.682 93.5323C83.9673 93.7964 84.2286 94.0324 84.4456 94.2445L84.7952 94.4165C86.7966 95.4008 87.6084 95.821 87.5441 96.3811C87.5441 96.3891 87.5441 96.4011 87.5441 96.4091C89.7183 96.5972 89.7183 96.6252 89.6982 96.9333C89.6781 97.2414 89.6781 97.2694 87.7089 97.1814C87.5682 97.2334 87.3391 97.1974 87.0176 97.1454L85.9285 96.9733C85.8803 97.0533 85.808 97.1334 85.6914 97.2094L84.6907 97.8496L84.8555 97.5375L82.6612 96.7132C82.3919 96.6132 82.1187 96.4812 81.8494 96.3331L81.3913 96.2611L81.7489 96.2771C81.1662 95.949 80.6196 95.5529 80.2419 95.2408C79.5426 94.8607 79.1889 94.8447 79.0965 94.9487C78.6102 95.5049 78.6022 96.1491 79.0643 96.8573C79.5024 97.2774 79.9043 97.1093 80.5714 96.7772L81.0296 96.5492V97.0573C81.0296 97.1294 81.0778 97.2374 81.126 97.3494C81.2184 97.5615 81.331 97.8216 81.2948 98.1457L81.2827 98.2657L81.1943 98.3457C80.704 98.7818 80.1695 99.0219 79.5988 99.0499H79.5788L79.5426 99.0379ZM78.8714 93.8924C78.5097 93.8924 78.2887 94.1204 78.0958 94.3685C77.714 94.8607 77.5291 95.4248 77.5291 96.101C77.5291 96.7772 77.7261 98.2777 79.5466 98.4097C79.9284 98.3857 80.2861 98.2337 80.6357 97.9536C80.6237 97.8336 80.5714 97.7175 80.5152 97.5855C80.5031 97.5535 80.487 97.5255 80.475 97.4935C79.8922 97.7535 79.2251 97.9176 78.57 97.2654L78.5298 97.2174C77.8908 96.2611 77.915 95.3048 78.5941 94.5246C79.0844 93.9604 80.0329 94.4125 80.4508 94.6406C80.4428 94.6326 80.4348 94.6206 80.4267 94.6126L79.6792 94.1725C79.3457 93.9764 79.0844 93.8964 78.8714 93.8964V93.8924ZM83.5534 96.5932L84.8394 97.5055L85.185 96.8493L84.6988 96.7892L84.739 96.7812L83.5574 96.5932H83.5534ZM85.6713 95.917C85.9727 96.013 86.25 96.101 86.4952 96.1771C86.6117 96.2131 86.7202 96.2491 86.8207 96.2811C86.8287 96.2811 86.8368 96.2771 86.8408 96.2731C86.6318 96.057 85.9486 95.6929 85.2293 95.3328C85.4061 95.5329 85.5548 95.7249 85.6673 95.917H85.6713ZM64.7613 77.3074C67.0882 79.7841 67.6388 82.8491 68.1693 85.818C68.2175 86.094 68.2697 86.3741 68.322 86.6542C68.0648 83.0651 67.0802 79.8602 65.5208 77.5635C65.3038 77.5195 65.0828 77.3994 64.9783 77.0753C64.91 77.1594 64.8336 77.2394 64.7573 77.3074H64.7613Z" fill="currentColor"/>
<path d="M78.9586 97.1454L75.2573 96.4092C72.4039 95.8411 69.7354 94.5967 67.3241 92.7041C66.5806 92.1199 65.8532 91.4717 65.1659 90.7715L65.0253 90.6315L65.0936 90.4474C66.1104 87.6786 66.4238 83.4493 65.1619 81.4407C64.7721 80.8205 64.2577 80.4764 63.6267 80.4124C56.1999 79.7402 47.5835 77.9237 46.9083 69.7732C46.6873 67.5886 46.627 66.4082 46.623 66.3962L46.1367 56.7573L47.254 66.3442C47.254 66.3442 47.3745 67.3645 47.6116 68.965C48.2948 75.599 53.9051 76.5833 59.3306 77.5356C61.0105 77.8316 62.5979 78.1117 64.0648 78.5479C68.0796 79.7762 67.316 85.514 66.7614 89.6992C66.7212 90.0033 66.681 90.2954 66.6449 90.5795C67.2276 91.1076 67.8545 91.6198 68.5136 92.1079C70.5351 93.5924 72.862 94.8408 75.4301 95.813L78.9586 97.1494V97.1454ZM65.7527 90.4714C65.8331 90.5515 65.9134 90.6275 65.9938 90.7075V90.6595C66.042 90.3274 66.0862 89.9793 66.1345 89.6152C66.1787 89.2911 66.2229 88.955 66.2671 88.6109C66.1305 89.2631 65.9576 89.8953 65.7527 90.4754V90.4714ZM48.9218 73.9425C51.6184 78.0717 57.7311 79.2441 63.687 79.7842C64.5229 79.8683 65.1941 80.3124 65.6964 81.1046C66.1867 81.8809 66.464 82.9292 66.5725 84.0895C66.4962 81.7488 65.8652 79.7482 63.8839 79.144C62.4572 78.7159 60.8859 78.4438 59.2261 78.1517C55.4444 77.4875 51.313 76.7633 48.9258 73.9465L48.9218 73.9425ZM78.8662 90.9556C77.7891 89.3631 77.0255 89.2071 76.2218 89.047L76.1334 89.027C75.1327 88.903 74.128 88.6949 73.1634 88.4188C72.2471 88.0867 71.2505 87.6546 70.7843 86.6103L70.7642 86.5543C69.9524 83.0412 68.6463 78.892 65.6482 76.1511C65.1659 75.731 64.6596 75.3589 64.121 75.0308C63.695 74.8187 63.2851 74.7107 62.8832 74.6947C61.7861 74.9468 60.9984 75.2549 60.5684 75.4509C60.4679 75.515 60.3674 75.579 60.267 75.651C60.0459 76.3352 59.5476 76.3352 59.2422 76.3352H58.3419L59.0452 75.775C59.2743 75.595 59.5074 75.4109 59.7485 75.2389C59.8289 75.1428 59.9937 75.0348 60.2147 74.9228C61.0064 74.4186 61.8544 74.0425 62.8109 74.0705C63.0159 74.0225 63.2208 73.9785 63.4218 73.9425L63.5303 73.9225L63.6267 73.9745C64.6033 74.4866 65.4593 75.1108 66.2068 75.815C68.7387 78.0877 70.4909 81.5368 71.5519 86.2942C71.9538 87.0024 72.7535 87.3385 73.5452 87.6186C74.4173 87.8667 75.3658 88.0787 76.3504 88.2508C77.2144 88.4668 78.1669 88.7069 79.3926 90.6155L78.8662 90.9596V90.9556Z" fill="currentColor"/>
<path d="M103.101 65.977H103.093C102.812 65.977 102.579 65.8849 102.402 65.7049C102.225 65.5248 102.137 65.2928 102.137 65.0127C102.137 64.7726 102.205 64.5685 102.338 64.3965C102.37 63.7763 102.141 59.8511 101.984 57.4224L101.57 51.0525L102.611 57.3504C103.021 59.8351 103.708 63.8483 103.857 64.3725C104.01 64.5485 104.086 64.7686 104.086 65.0247C104.086 65.2968 103.986 65.5328 103.797 65.7129C103.612 65.8889 103.379 65.977 103.101 65.977ZM102.937 62.9761C103.001 64.6126 102.937 64.6806 102.86 64.7566C102.82 64.7966 102.768 64.8686 102.768 65.0167C102.768 65.1647 102.816 65.2287 102.848 65.2648C102.884 65.3008 102.949 65.3488 103.097 65.3488C103.234 65.3568 103.319 65.2968 103.359 65.2568C103.423 65.1967 103.451 65.1207 103.451 65.0207C103.451 64.8766 103.403 64.8046 103.359 64.7606C103.306 64.7086 103.246 64.6446 102.937 62.9761Z" fill="currentColor"/>
<path d="M91.462 90.1521L87.1819 89.2478C87.1417 89.2398 87.0975 89.2238 87.0533 89.1998C86.4384 88.9117 85.6548 87.8754 85.1323 86.6711C84.642 85.6948 84.2964 84.6185 84.1477 83.5941C83.8423 78.4566 87.4914 73.3711 92.7119 71.5105C92.3903 71.2064 92.0929 70.7423 92.3582 69.9581C92.5913 69.2578 93.2222 68.9898 93.7809 68.7537C93.8733 68.7137 93.9617 68.6777 94.0461 68.6377C92.4064 68.3496 90.7748 68.4256 89.0627 68.5096C87.2101 68.5976 85.2931 68.6897 83.36 68.2775C82.922 68.2415 82.4799 68.1975 82.0338 68.1575C81.3184 68.0895 80.583 68.0175 79.8194 67.9735C77.5046 67.8574 75.9131 67.7654 74.8159 67.6854C74.5145 67.6654 74.2573 67.6414 74.0323 67.6214C73.98 67.7214 73.8876 67.7894 73.7751 67.8094C73.5701 67.8494 73.4174 67.7054 73.2727 67.5693C73.2607 67.5573 73.2406 67.5413 73.2245 67.5213C72.6699 67.4293 72.6538 67.3293 72.6337 67.1652L72.6016 66.9091L72.8186 66.8291C73.0597 66.6851 73.2968 66.7851 73.4817 66.9171C73.5058 66.9171 73.5339 66.9251 73.5621 66.9291C73.5741 66.8211 73.5781 66.6931 73.5741 66.537V66.2169L78.4771 66.2329V66.545C78.4771 66.6171 78.4771 66.7371 78.449 66.8571C78.6298 66.8771 78.871 66.8971 79.1965 66.9251C79.514 66.9532 79.8797 66.9852 80.2735 67.0132C80.9527 67.0692 81.7243 67.1292 82.496 67.2092C84.429 67.3533 86.3822 67.3813 88.267 67.4053C90.7386 67.4373 93.2906 67.4693 95.7702 67.7814C97.2009 67.8854 97.2974 67.9254 97.3697 68.1695L97.43 68.3776L97.2451 68.5176C96.8472 68.8057 96.4614 69.0738 96.1118 69.2258C95.6135 69.4019 94.9825 69.714 94.3757 70.0181C94.2069 70.1021 94.1787 70.1541 94.1787 70.1541C94.1948 70.1981 94.3556 70.3622 94.452 70.4582C95.1191 70.9864 95.9068 70.8263 96.7387 70.6543C97.6108 70.4742 98.511 70.2902 99.3188 70.9263L99.6604 71.1944L99.2987 71.4345C98.8205 71.7506 98.2056 71.9667 97.4179 72.0987H97.3737C92.0849 72.2387 86.0446 75.9879 85.0881 82.0257C84.9354 83.4141 85.1082 84.8665 85.5824 86.0989C85.6226 86.1989 85.6628 86.299 85.703 86.399C85.7593 86.511 85.8155 86.6191 85.8758 86.7271C86.4304 87.7194 87.0895 88.4836 87.3065 88.6197C87.3226 88.6277 87.3387 88.6357 87.3547 88.6397L91.462 90.1441V90.1521ZM95.4246 68.3736L95.083 68.7137C94.7896 69.0058 94.3998 69.1738 94.026 69.3339C93.5277 69.5459 93.0977 69.73 92.953 70.1621C92.748 70.7743 93.0334 70.9944 93.3951 71.2664C93.4513 71.3105 93.5036 71.3505 93.5558 71.3905L94.0099 71.7626L93.4513 71.9346C90.9717 72.6949 88.8296 74.2113 87.2944 76.1279C89.8826 73.255 93.7728 71.5865 97.3375 71.4865C97.7676 71.4145 98.1373 71.3145 98.4508 71.1824C97.9806 71.0504 97.4541 71.1584 96.8673 71.2784C95.9711 71.4625 94.9584 71.6706 94.034 70.9343C93.7688 70.6743 93.4995 70.4062 93.5598 70.0541C93.596 69.818 93.7728 69.626 94.0903 69.4699C94.7213 69.1538 95.3683 68.8337 95.8827 68.6537C95.9872 68.6056 96.1078 68.5416 96.2444 68.4536C96.0997 68.4416 95.9229 68.4256 95.7059 68.4096C95.6135 68.3976 95.517 68.3856 95.4246 68.3736ZM74.185 67.0012C74.3819 67.0212 74.6029 67.0372 74.8561 67.0572C75.5353 67.1052 76.3994 67.1612 77.5086 67.2212C77.5086 67.2172 77.5046 67.2132 77.5005 67.2052L77.4161 67.0612L77.4885 66.9011C77.4885 66.9011 77.5046 66.8731 77.5086 66.8571L74.197 66.8451C74.197 66.8971 74.189 66.9492 74.185 66.9972V67.0012ZM74.4342 65.8128H74.4261C74.1448 65.8128 73.9117 65.7208 73.7349 65.5407L73.5862 65.3927L73.6666 65.2006C73.7282 65.0513 74.7302 64.9646 76.6727 64.9405C78.3244 64.9205 80.5629 64.9045 82.938 64.8845C87.9174 64.8445 94.6087 64.7885 95.8787 64.7045C95.9189 64.5444 95.9993 64.4004 96.1198 64.2804C96.3007 64.0963 96.5298 64.0003 96.8111 64.0043C97.0884 64.0043 97.3335 64.1043 97.5144 64.2884C97.6992 64.4724 97.7917 64.7125 97.7917 64.9926C97.7917 65.2433 96.2699 65.3887 93.2263 65.4287C90.7105 65.4607 87.4231 65.4887 84.3285 65.5127C80.0846 65.5447 75.7001 65.5807 75.045 65.6248C74.8762 65.7528 74.6713 65.8168 74.4342 65.8168V65.8128ZM96.807 64.6325C96.7066 64.6325 96.6302 64.6605 96.5699 64.7205C96.5659 64.7245 96.5619 64.7325 96.5539 64.7365C96.7548 64.7285 96.9236 64.7245 97.0562 64.7165C97.016 64.6765 96.9437 64.6325 96.807 64.6285V64.6325Z" fill="currentColor"/>
<path d="M86.5571 73.255C86.0829 73.255 85.5363 73.083 85.1345 72.4148L85.1063 72.3508C84.5959 70.8263 85.5564 69.9901 86.4044 69.2498C86.5893 69.0858 86.7782 68.9217 86.955 68.7497C85.7292 68.6737 84.4432 68.7177 83.1934 68.7617C81.3969 68.8217 79.5362 68.8857 77.7639 68.6136L75.6942 68.6016C75.003 68.6016 74.3278 68.5936 73.6727 68.5896H73.5883L73.516 68.5456C70.116 66.561 66.3866 65.6768 62.7374 65.9768L58.8633 66.2969L62.637 65.3567C62.9987 65.2686 63.2438 65.0446 63.501 64.8045C63.6216 64.6965 63.7422 64.5844 63.8788 64.4804L63.6979 64.4044H63.9913C64.4696 64.0883 65.1246 63.9282 66.3022 64.4284L67.7128 65.0286H67.2345C67.6404 65.1286 68.0544 65.2166 68.4804 65.3086C69.7584 65.5847 71.0846 65.8728 72.3143 66.497C73.4477 66.9651 74.3841 67.0932 75.441 67.1372C76.7753 67.1932 78.202 67.2532 79.6246 67.3092L79.6849 67.3172C81.4009 67.7294 83.0527 67.6413 84.6522 67.5533C86.3401 67.4653 88.0843 67.3693 89.9008 67.8614L91.1868 68.2095L89.8767 68.4696C88.8358 68.6777 87.4533 69.4939 87.1278 70.3382C87.0193 70.6222 87.0514 70.8783 87.2283 71.1144C87.3971 71.3945 87.5216 71.4185 87.5659 71.4265C87.8351 71.4825 88.2812 71.1704 88.7072 70.8663C89.3944 70.3782 90.2504 69.766 91.1265 70.2141L91.4641 70.3862L91.227 70.6863C90.8211 71.1984 90.3027 71.6666 89.6356 72.1147L89.5552 72.1547C89.2779 72.2427 88.9443 72.4068 88.5866 72.5788C88.2008 72.7669 87.7989 72.9629 87.4212 73.083C87.2484 73.139 86.9228 73.247 86.5491 73.247L86.5571 73.255ZM85.6931 72.1227C86.0186 72.6388 86.4687 72.7469 87.2323 72.4988C87.5699 72.3908 87.9476 72.2027 88.3174 72.0267C88.6751 71.8506 89.0167 71.6866 89.3261 71.5825C89.7441 71.2984 90.0937 71.0104 90.3911 70.7063C89.9731 70.7543 89.519 71.0744 89.0769 71.3905C88.5143 71.7906 87.9878 72.1707 87.4413 72.0547C87.1519 71.9947 86.9068 71.7986 86.7098 71.4745C86.4205 71.0904 86.3562 70.6142 86.5411 70.1261C86.5772 70.0341 86.6214 69.942 86.6737 69.85C85.8458 70.5822 85.3756 71.1264 85.6931 72.1187V72.1227ZM86.8827 68.1175C87.1358 68.1335 87.389 68.1495 87.6422 68.1775L88.1968 68.2335L87.8713 68.6657C88.1124 68.5096 88.3656 68.3656 88.6268 68.2455C88.0441 68.1575 87.4654 68.1215 86.8827 68.1175ZM73.7611 67.9614C74.3881 67.9654 75.0391 67.9694 75.6982 67.9734L77.8403 67.9894C78.8771 68.1535 79.9622 68.1935 81.0393 68.1895C80.557 68.1415 80.0667 68.0615 79.5684 67.9454C78.1537 67.8894 76.7391 67.8334 75.4129 67.7734C74.2916 67.7254 73.2869 67.5893 72.0491 67.0732C71.7316 66.9131 71.4061 66.7731 71.0765 66.653C71.9888 67.0172 72.885 67.4533 73.7611 67.9574V67.9614ZM64.14 65.2926C64.8393 65.2926 65.5386 65.3327 66.2338 65.4167C65.852 65.3006 65.4743 65.1686 65.1086 65.0126L64.6102 64.8005C64.349 64.8885 64.1521 65.0686 63.927 65.2766L63.9029 65.2966C63.9833 65.2966 64.0596 65.2966 64.14 65.2966V65.2926ZM72.1375 65.5207L72.0853 65.5007C71.8683 65.4247 71.6472 65.3487 71.4262 65.2806C71.1167 65.2246 70.8033 65.1566 70.4617 65.0686C70.2487 64.9926 70.0357 64.9205 69.8307 64.8605C68.7054 64.6084 67.556 64.4284 66.4629 64.2723C66.049 64.2203 65.623 64.1643 65.1809 64.0923L65.2774 63.4721L65.7998 63.5441C66.045 63.5801 66.2941 63.6121 66.5473 63.6481C66.6679 63.6642 66.7925 63.6802 66.913 63.6922C67.9459 63.8202 68.9345 63.9402 69.9955 64.2523C70.53 64.3724 71.0605 64.5084 71.5789 64.6685C71.7758 64.7045 71.9727 64.7365 72.1737 64.7685C72.3746 64.8005 72.5756 64.8365 72.7886 64.8725C73.9782 64.8605 75.3003 64.8525 76.6668 64.8405C81.1437 64.8045 87.0072 64.7565 89.0568 64.6845C87.4694 63.5201 82.9562 60.4152 79.8135 58.2745L70.1 51.6646L80.1551 57.7464C84.0614 60.1071 89.9651 63.6562 90.588 63.9602C90.8412 63.9762 91.0582 64.0683 91.227 64.2403C91.4079 64.4244 91.5043 64.6685 91.5003 64.9445C91.5003 65.1953 89.9812 65.3407 86.9429 65.3807C84.4312 65.4127 81.1478 65.4407 78.0573 65.4647L75.8188 65.4807C74.4966 65.4927 73.2628 65.5007 72.2018 65.5127H72.1456L72.1375 65.5207ZM88.3134 63.3841C89.3944 64.1563 89.8486 64.5164 90.0374 64.7045C90.3348 64.6965 90.58 64.6885 90.7608 64.6805C90.7166 64.6404 90.6483 64.5964 90.5117 64.5924C90.4474 64.5924 90.367 64.5924 88.3134 63.3841Z" fill="currentColor"/>
<path d="M82.128 74.3274C80.4763 74.3274 79.0858 73.5672 77.7314 72.827C77.422 72.6589 77.1125 72.4909 76.799 72.3308C75.9832 71.9107 75.3281 71.6466 74.6731 71.4665L74.5806 71.4425L74.5163 71.3705C69.2396 65.4127 60.2334 66.6451 54.0645 70.9424C53.0397 71.6706 51.8179 71.8747 50.6324 71.5146C49.266 71.1024 48.1206 69.9821 47.57 68.5217C47.0154 67.2493 46.6577 66.5171 46.6537 66.5131L45.6289 64.4244L47.1762 66.169C47.1762 66.169 47.5499 66.5931 48.0121 67.2613C48.7194 68.5057 49.8487 69.0938 50.974 68.8137L52.1796 68.4616C59.5863 66.289 67.2422 64.0403 73.805 69.2859C74.7454 70.0141 75.3764 70.1581 76.0435 70.3102L76.1078 70.3262L76.1601 70.3662C78.5714 72.1788 81.055 73.2391 83.5427 73.5152L85.1864 73.6952L83.5909 74.1273C83.0765 74.2674 82.5902 74.3274 82.12 74.3274H82.128ZM74.9303 70.8864C75.6014 71.0784 76.2686 71.3545 77.0884 71.7746C77.0964 71.7746 77.1045 71.7826 77.1125 71.7866C76.6865 71.5146 76.2605 71.2225 75.8426 70.9104C75.4487 70.8183 75.0428 70.7223 74.5726 70.5023C74.6972 70.6263 74.8178 70.7583 74.9343 70.8904L74.9303 70.8864ZM48.3095 68.6537C48.8359 69.766 49.7482 70.5943 50.8172 70.9184C51.8139 71.2185 52.8387 71.0464 53.7028 70.4342C56.7531 68.3056 60.4825 66.9092 64.1477 66.7051C60.2977 66.7331 56.2909 67.9095 52.3564 69.0658L51.1387 69.4219C50.118 69.678 49.1092 69.3859 48.3135 68.6577L48.3095 68.6537ZM72.5351 65.4407H72.515C71.7072 65.3327 70.823 65.2007 69.7299 64.8886C69.6455 64.8646 69.5611 64.8446 69.4767 64.8205C66.8162 64.3964 64.2402 64.0483 61.7324 64.3084C61.2582 64.3844 60.7799 64.4845 60.3057 64.6125C59.6306 64.7805 59.2126 64.9086 59.0679 64.9566C58.6942 65.3487 58.011 65.3487 57.6734 65.3487H56.1663L57.5448 64.7485C58.8348 64.1884 60.153 63.8683 61.4792 63.7122C64.4893 63.2041 67.4593 63.6562 69.6053 64.2044C69.8826 64.2484 70.1639 64.2924 70.4412 64.3404C71.4299 64.5005 72.4507 64.6645 73.4513 64.7965L75.505 64.7805C77.6671 64.7605 83.1488 64.7125 84.2942 64.6365C84.3384 64.4764 84.4148 64.3324 84.5353 64.2124C84.7162 64.0283 84.9573 63.9363 85.2266 63.9363C85.5039 63.9363 85.749 64.0363 85.9299 64.2204C86.1147 64.4044 86.2072 64.6405 86.2072 64.9246C86.2072 65.1753 84.688 65.3207 81.6498 65.3607C79.138 65.3927 75.8546 65.4207 72.7601 65.4447H72.5391L72.5351 65.4407ZM85.2185 64.5605C85.118 64.5605 85.0457 64.5885 84.9814 64.6485C84.9774 64.6525 84.9734 64.6605 84.9653 64.6645C85.1663 64.6565 85.3351 64.6525 85.4677 64.6445C85.4275 64.6045 85.3552 64.5565 85.2185 64.5565V64.5605Z" fill="currentColor"/>
<path d="M89.8139 26.0277L89.3477 25.7757C87.479 24.7594 86 23.687 85.1641 22.7468C83.9625 22.4267 83.0261 22.1466 82.4715 21.7385C81.8807 21.6664 81.5351 21.4984 81.4105 21.1823C81.2257 20.7021 81.6235 20.134 82.7729 19.2097L87.4187 15.4966L83.1909 19.6778C82.8412 20.0219 82.4434 20.5061 82.5358 20.8542C82.5639 20.9542 82.6282 21.0462 82.7207 21.1343C83.1266 21.1583 83.7374 21.1583 84.6497 21.1103L85.1079 21.0863L84.9672 21.5224C84.8949 21.7425 85.128 21.9665 85.4897 22.1866L85.5178 22.2026C85.8071 22.3746 86.1688 22.5467 86.5305 22.7147C86.6832 22.7868 86.84 22.8588 86.9967 22.9348C87.692 23.3269 88.2024 23.667 88.4515 23.8311C88.5158 23.8751 88.56 23.9031 88.5801 23.9151C89.3357 24.2912 89.8059 24.6873 89.8059 25.4996V26.0277H89.8139ZM84.0348 21.7665C84.1393 21.8025 84.2478 21.8345 84.3563 21.8665C84.3443 21.8305 84.3362 21.7905 84.3322 21.7545C84.2318 21.7585 84.1313 21.7625 84.0348 21.7665Z" fill="currentColor"/>
<path d="M91.8568 56.0049L90.84 51.6676C90.824 51.6035 89.341 45.2776 88.4287 42.1807C88.1635 41.2844 88.0188 40.8963 87.9424 40.7283L87.8902 40.7403L87.7817 40.5122C87.0302 38.9077 87.3316 37.5033 87.6169 36.1429C87.6973 35.7708 87.7777 35.3907 87.8339 35.0026C84.9082 38.7637 81.5324 42.7649 76.4043 44.0893L74.7727 45.3257C71.3004 47.9544 69.4718 49.3108 68.4832 49.9911C68.5073 50.1031 68.4832 50.2151 68.4109 50.2991C68.2742 50.4632 68.0693 50.4512 67.8723 50.4392C67.8522 50.4392 67.8281 50.4392 67.8 50.4392C67.3579 50.6993 67.2776 50.6472 67.1731 50.5792L66.9882 50.4592L67.0324 50.2271C67.1168 49.907 67.3941 49.827 67.6392 49.811C67.6553 49.799 67.6714 49.791 67.6875 49.779C67.6272 49.687 67.5428 49.5829 67.4383 49.4589L67.2293 49.2188L70.999 46.0899L71.1999 46.326C71.2482 46.382 71.3245 46.474 71.3768 46.586C71.5295 46.486 71.7264 46.346 71.9917 46.1619C72.6467 45.6978 73.5952 44.9976 74.8973 44.0173L74.9777 43.9732C75.3594 43.8332 75.7372 43.6852 76.115 43.5291L76.1471 43.5171C81.2792 41.3445 85.5633 37.3673 88.5895 31.9456L88.9592 31.2854L89.1682 32.0137C89.4575 33.022 89.2606 33.9983 89.0717 34.9425C88.8547 36.0109 88.6658 36.9511 89.1722 37.8194C89.6746 37.0472 90.0644 36.2749 89.8192 35.3146L89.7228 34.9265H90.1247C90.3939 34.9265 90.5466 35.0626 90.6471 35.1546C90.7235 35.2226 90.7516 35.2466 90.836 35.2466H91.1816L91.1455 35.5947C91.041 36.607 90.8039 37.5953 90.4663 38.4596C90.4542 38.5916 90.4542 39.2078 90.6632 42.0407C90.9485 45.9138 91.4509 51.5275 91.4549 51.5835L91.8488 56.0209L91.8568 56.0049ZM68.1215 49.2948C68.1537 49.3389 68.1858 49.3789 68.2139 49.4229C68.9012 48.9427 69.8777 48.2225 70.8985 47.4623C70.8945 47.4623 70.8865 47.4623 70.8825 47.4583L70.7257 47.4023L70.6775 47.2342C70.6775 47.2342 70.6695 47.2022 70.6654 47.1862L68.1215 49.2988V49.2948ZM88.3082 40.1441C88.497 40.3201 88.6819 40.8163 89.0315 42.0047C89.4575 43.4491 90.0041 45.5857 90.4743 47.4703C90.3296 45.7378 90.1649 43.7412 90.0403 42.0687C89.7831 38.5836 89.8353 38.3876 89.8634 38.2795L89.8755 38.2435C89.9961 37.9434 90.1006 37.6273 90.189 37.2992C89.984 37.7314 89.7148 38.1355 89.4455 38.5356L89.2124 38.8837L88.9431 38.5596C88.3323 37.8314 88.1916 37.0632 88.2318 36.2909C87.9625 37.5673 87.7093 38.7757 88.3082 40.1401V40.1441ZM88.5533 33.254V33.9702C88.5533 34.1063 88.5493 34.2423 88.5412 34.3784C88.6256 33.9342 88.694 33.4821 88.6859 33.034C88.6417 33.106 88.5975 33.182 88.5533 33.254ZM67.0043 48.5906C66.9761 48.5906 66.948 48.5906 66.9199 48.5906L66.7109 48.5706L66.6466 48.3706C66.5957 48.2132 67.4852 47.3543 69.3151 45.7938C69.6768 45.4817 70.1068 45.1216 70.581 44.7255C70.8543 44.4934 71.1477 44.2453 71.4652 43.9732L71.5174 43.9372C71.5496 43.9212 71.5817 43.9012 71.6139 43.8852C71.7746 43.7572 71.9394 43.6251 72.1082 43.4931L72.2047 43.4411C72.3815 43.3811 72.5583 43.321 72.7311 43.261C73.0044 43.117 73.2978 42.9729 73.6233 42.8289L73.6595 42.8169C74.0694 42.6969 74.4753 42.5648 74.8772 42.4168C79.7802 40.2601 83.3851 37.0112 84.7515 33.4181C85.3342 31.8856 85.5995 30.1251 85.5633 28.0445C85.4588 27.9364 85.3463 27.7644 85.4266 27.5643C85.5472 27.2682 85.929 27.3002 86.0737 27.3122L86.351 27.3363L86.363 27.6123C86.4434 29.6169 86.2063 31.4535 85.6557 33.07C84.1969 37.3673 80.1298 41.1604 75.1063 43.001C74.4231 43.301 73.7117 43.5811 72.9803 43.8372C72.7271 43.9692 72.49 44.1053 72.2569 44.2373C72.1564 44.2933 72.06 44.3494 71.9595 44.4054C71.6179 44.6775 71.2964 44.9455 70.991 45.1936C69.8416 46.1739 68.2782 47.5103 67.9648 47.8104C67.9166 48.0185 67.8 48.2025 67.6151 48.3546C67.4222 48.5146 67.2133 48.5946 66.9962 48.5946L67.0043 48.5906Z" fill="currentColor"/>
<path d="M63.263 55.2366C63.2027 55.2366 63.1625 55.2126 63.1183 55.1846L62.9254 55.0645L62.9736 54.8245C63.0701 54.4483 63.058 54.2403 63.0299 54.1282C63.0018 54.0162 62.9013 53.8042 62.5999 53.456L62.3909 53.216L63.705 52.1076L63.91 52.3477C63.9542 52.3997 64.0346 52.4918 64.0828 52.5998C65.5015 51.6315 69.669 48.4265 73.1091 45.7777L74.2666 44.8855C74.8011 44.5214 75.2914 44.1733 75.7736 43.8332L76.1233 43.5931C79.7282 41.9566 82.67 40.016 84.8683 37.8274L86.6808 36.0228L85.3626 38.2075C85.0089 38.7956 84.6914 39.3958 84.39 39.972C83.8917 40.9163 83.3773 41.8966 82.6901 42.8289C82.6539 42.9089 82.6418 42.9609 82.6378 42.9929C82.6539 42.9929 82.678 43.0009 82.7101 43.0009C83.0035 43.0089 83.2808 42.9049 83.5581 42.6728C83.7189 42.5408 84.0645 42.2247 84.5548 41.6245C84.7437 41.4244 84.8642 41.1684 84.9969 40.8923C85.2702 40.3121 85.6158 39.5879 86.5964 39.4839L87.1188 39.4278L86.9219 39.912C86.6245 40.6522 86.2387 41.3484 85.9011 41.9606C85.8006 42.1407 85.7082 42.3127 85.6238 42.4688C85.455 43.0889 85.1295 43.6011 84.6593 43.9892C84.2333 44.3413 83.7751 44.5734 83.2969 44.6774C82.8146 44.7854 82.3364 44.7534 81.8823 44.5894C81.4322 44.4253 81.0303 44.1373 80.6887 43.7291L80.544 43.5531L80.6646 43.361C80.9298 42.9409 81.2754 42.5448 81.609 42.1607C81.7255 42.0246 81.8381 41.8926 81.9506 41.7605C81.4241 42.0966 80.8735 42.3527 80.3029 42.6208C79.8166 42.8489 79.3142 43.0849 78.7998 43.381C77.9518 43.7971 77.2727 44.1453 76.6457 44.5214C75.2512 45.6617 73.6316 46.9981 72.016 48.3345C64.7138 54.3683 63.6247 55.2206 63.263 55.2206V55.2366ZM63.275 53.296C63.4679 53.5521 63.5885 53.7761 63.6407 53.9762C63.6689 54.0762 63.6809 54.1883 63.6809 54.3083C64.971 53.36 68.4674 50.4671 71.6141 47.8664C72.4742 47.1542 73.3342 46.4419 74.1621 45.7617L73.4949 46.2739C63.9623 53.6081 63.8819 53.5801 63.5885 53.4801L63.4277 53.424L63.3795 53.252C63.3795 53.252 63.3715 53.224 63.3715 53.212L63.275 53.292V53.296ZM81.3236 43.5131C81.5527 43.7451 81.8099 43.9092 82.0872 44.0132C82.4329 44.1373 82.7825 44.1573 83.1522 44.0772C83.53 43.9932 83.8957 43.8052 84.2453 43.5171C84.6271 43.201 84.8803 42.7969 85.0129 42.2847L85.0411 42.2167C85.1335 42.0446 85.234 41.8606 85.3425 41.6685C85.5555 41.2844 85.7846 40.8683 85.9976 40.4321C85.8328 40.6122 85.7082 40.8603 85.5595 41.1684C85.4148 41.4765 85.2621 41.7925 85.021 42.0446C84.6472 42.5048 84.2614 42.9089 83.952 43.165C83.5541 43.4931 83.1161 43.6531 82.678 43.6371C82.3243 43.6251 82.1556 43.469 82.0792 43.345C81.9546 43.141 81.9667 42.8729 82.1194 42.5488L82.1314 42.5208C82.1113 42.5448 82.0912 42.5648 82.0712 42.5888C81.7979 42.9049 81.5367 43.205 81.3156 43.5171L81.3236 43.5131ZM83.6425 39.7759L83.5179 40.2721C83.6224 40.08 83.7229 39.884 83.8274 39.6879L83.8877 39.5759C83.8073 39.6439 83.7269 39.7119 83.6425 39.7799V39.7759ZM62.1618 52.5958C62.1337 52.5958 62.1055 52.5958 62.0774 52.5958L61.8684 52.5758L61.8041 52.3757C61.7559 52.221 62.4699 51.5115 63.9462 50.2471C65.2001 49.1748 66.9081 47.7223 68.7206 46.1859L71.9155 43.4811C72.7073 43.0529 73.4507 42.6688 74.5198 42.3527C74.5479 42.3447 74.576 42.3327 74.6041 42.3247C74.8774 42.2007 75.1507 42.0766 75.424 41.9526C76.8748 41.2964 78.3497 40.6282 79.6558 39.832C80.7329 39.0837 81.7014 38.2315 82.5333 37.3032C81.2714 38.0034 79.9773 38.6196 78.6672 39.1358C76.5975 39.804 74.5278 40.2361 72.9524 40.5362L72.9042 40.5442H72.856C71.8432 40.4241 70.8385 40.2961 69.8177 40.1641C68.8733 40.044 67.9208 39.92 66.9402 39.804L55.4102 38.4716L66.9965 39.1798C69.0702 39.3078 71.0676 39.5399 73.0006 39.7679L73.1694 39.7879C75.0301 39.3278 76.9552 38.8517 78.8199 38.1475C80.6766 37.1512 82.2922 35.9788 83.6224 34.6584C83.7671 34.3703 83.9238 34.1903 84.1047 34.0942L84.6713 33.8062L84.5588 34.4263C84.4905 34.8065 84.3981 35.1706 84.2815 35.5147L84.9728 35.0825L84.0846 36.3469C83.9198 36.579 83.751 36.8071 83.5742 37.0311C82.7142 38.4355 81.4201 39.4959 79.9372 40.3921C78.422 41.4364 76.698 42.2887 74.8332 42.9049C73.6758 43.433 72.5867 43.9612 71.6101 44.5654L70.0307 45.9058C66.8679 48.5906 63.6006 51.3634 63.1304 51.8116C63.0821 52.0196 62.9656 52.2037 62.7807 52.3557C62.5878 52.5158 62.3788 52.5958 62.1618 52.5958ZM83.6023 35.5467C83.108 36.0028 82.5775 36.4429 82.0189 36.8631C82.473 36.615 82.9272 36.3549 83.3733 36.0828C83.4577 35.9108 83.534 35.7307 83.6023 35.5507V35.5467Z" fill="currentColor"/>
<path d="M45.1055 67.4763L46.7371 66.1359C46.7371 66.1359 47.2435 65.7197 47.9187 65.1756C48.3165 64.8555 48.8229 64.4314 49.4096 63.9392C49.8156 63.5991 50.2616 63.227 50.7359 62.8349C51.4432 62.2467 52.1143 61.6945 52.7051 61.2064L55.0963 59.2418L83.3729 44.8615L80.0694 47.5823L59.501 59.4739C58.8539 59.846 58.1346 60.2541 57.2785 60.6982C56.2618 61.3224 55.2731 61.9266 54.3006 62.5268C52.5042 63.6311 50.8082 64.6754 48.9153 65.8158C47.8101 66.3559 47.0948 66.652 47.0626 66.664L45.1095 67.4723L45.1055 67.4763ZM55.4138 59.79L53.111 61.6945C52.5202 62.1827 51.8491 62.7349 51.1418 63.323C50.6675 63.7151 50.2255 64.0873 49.8196 64.4274C49.6468 64.5714 49.482 64.7114 49.3253 64.8435C50.9167 63.8792 52.4077 62.9629 53.971 62.0026C54.9436 61.4065 55.9322 60.7983 56.9691 60.1621C57.8372 59.7139 58.5445 59.3098 59.1875 58.9417L74.4912 50.0951L55.4178 59.794L55.4138 59.79ZM58.0903 55.9568C58.0622 55.9568 58.0341 55.9568 58.006 55.9568L57.797 55.9368L57.7327 55.7368C57.6844 55.582 58.3985 54.8725 59.8747 53.6081C61.1286 52.5358 62.8406 51.0834 64.6491 49.5429C66.2044 48.2225 67.836 46.8381 69.315 45.5737C70.3076 44.7295 71.232 43.9372 72.0197 43.257L72.084 43.201L72.1724 43.185C72.3331 43.157 72.4899 43.125 72.6466 43.085C73.0565 42.8889 73.4664 42.7048 73.9648 42.5448L74.0492 42.5288C74.1175 42.5288 74.1858 42.5208 74.2501 42.5128C74.7806 42.2767 75.3151 42.0006 75.8577 41.7205C76.5971 41.3404 77.3567 40.9523 78.1404 40.6442C78.5342 40.4642 78.9401 40.3241 79.3621 40.2521L87.1466 38.9597L79.4907 40.8643C79.1129 40.9563 78.7392 41.0844 78.3734 41.2284C77.9354 41.4325 77.5054 41.6925 77.0593 41.9606C76.2234 42.4648 75.3674 42.9809 74.4229 43.121C73.9125 43.345 73.3981 43.5371 72.8717 43.6731C72.8073 43.7051 72.743 43.7372 72.6787 43.7652C72.4939 43.8532 72.305 43.9452 72.1081 44.0332C70.3237 45.5577 68.1616 47.3942 66.1079 49.1388C62.8768 51.8836 59.5371 54.7164 59.0629 55.1686C59.0147 55.3766 58.8981 55.5607 58.7133 55.7127C58.5204 55.8728 58.3114 55.9528 58.0944 55.9528L58.0903 55.9568Z" fill="currentColor"/>
</svg>
