<svg width="143" height="143" viewBox="0 0 143 143" fill="none" xmlns="http://www.w3.org/2000/svg">
<path d="M62.081 121.107L57.5522 118.493L60.548 113.304C56.9763 115.589 52.2826 115.856 48.3649 113.593C45.6557 112.031 43.7171 109.505 42.9087 106.483C42.2436 104.003 42.4058 101.435 43.3467 99.0959L32.8535 102.916L31.0663 98.0036L36.682 95.9595C35.5031 95.8054 34.3405 95.4701 33.232 94.9537C30.3958 93.6316 28.2463 91.2847 27.1756 88.3458C26.1049 85.4068 26.2455 82.2272 27.5676 79.391C28.6519 77.0657 30.4282 75.2002 32.6534 74.0132L22.1602 70.1928L23.9473 65.2801L29.5792 67.3296C26.7079 64.2094 25.6318 59.632 27.1783 55.3817C28.249 52.4427 30.3985 50.0959 33.2347 48.7737C35.5599 47.6895 38.1204 47.4002 40.5862 47.9221L35.003 38.2508L39.5317 35.6362L42.5194 40.8112C42.4653 39.6243 42.5951 38.4211 42.9114 37.2396C43.7198 34.2168 45.6584 31.6915 48.3676 30.1287C51.0767 28.5659 54.232 28.1496 57.2548 28.958C59.7341 29.6231 61.8782 31.0453 63.4329 33.0325L65.3714 22.0337L70.5194 22.9422L69.4811 28.8282C70.203 27.8846 71.0763 27.0464 72.0767 26.3435C74.6399 24.5482 77.7465 23.8587 80.8288 24.4049C83.9083 24.9483 86.5932 26.6571 88.3884 29.2202C89.8593 31.3238 90.5893 33.7923 90.5028 36.3122L99.0574 29.1337L102.418 33.138L97.8407 36.98C99.0006 36.7204 100.207 36.6393 101.426 36.7448C104.543 37.0179 107.366 38.486 109.378 40.8842C113.166 45.3995 112.957 51.9588 109.132 56.2253H120.301V61.4543H114.309C118.073 63.4037 120.652 67.3377 120.652 71.861C120.652 77.7552 116.278 82.6463 110.602 83.4547L119.16 90.6331L115.799 94.6374L111.222 90.7954C111.679 91.8931 111.968 93.0665 112.073 94.2859C112.346 97.4033 111.389 100.437 109.378 102.835C107.366 105.231 104.543 106.702 101.426 106.975C98.8682 107.199 96.3672 106.593 94.2258 105.26L96.1644 116.259L91.0165 117.168L89.9782 111.282C89.6213 112.417 89.0887 113.501 88.3884 114.505C86.5932 117.068 83.9083 118.776 80.8288 119.32C75.0265 120.345 69.4487 116.884 67.6669 111.436L62.081 121.11V121.107ZM59.3989 117.998L61.5862 119.26L68.2699 107.683L68.5916 109.578C69.5839 115.21 74.9697 118.979 80.5935 117.987C83.3189 117.506 85.6928 115.994 87.2799 113.726C88.867 111.46 89.4753 108.71 88.9968 105.985C88.5182 103.26 87.0041 100.886 84.7357 99.2986C82.4699 97.7115 79.7202 97.1005 76.9948 97.5818C76.3946 97.6872 75.7917 97.8521 75.1996 98.0684L73.4448 98.7146L82.2266 83.5034L86.1957 82.0596L92.1088 115.6L94.5962 115.162L92.2764 102.005L93.7419 103.243C95.8643 105.025 98.5491 105.871 101.307 105.631C104.065 105.39 106.56 104.09 108.339 101.97C110.118 99.8502 110.965 97.1654 110.724 94.4076C110.483 91.6497 109.183 89.1542 107.063 87.3751C102.689 83.7034 96.1401 84.2766 92.4684 88.6513C92.0763 89.119 91.7194 89.6328 91.4058 90.1789L90.4784 91.8012L87.4286 74.5026L89.5402 70.8444L115.629 92.7367L117.251 90.8035L107.006 82.2083L108.932 82.2218L108.937 82.8301V82.2218C114.65 82.2218 119.295 77.574 119.295 71.8637C119.295 66.1534 114.647 61.5057 108.937 61.5057C103.227 61.5057 98.5789 66.1534 98.5789 71.8637C98.5789 72.4721 98.6356 73.0966 98.7465 73.7158L99.079 75.5543L85.6225 64.2635L84.8898 60.1051H118.946V57.5798H105.573L107.058 56.3523C111.435 52.6779 112.008 46.1322 108.337 41.7548C106.558 39.6351 104.059 38.3346 101.304 38.0939C98.5491 37.8533 95.8616 38.6996 93.7419 40.4786C91.6221 42.2577 90.3216 44.756 90.081 47.5111C89.8403 50.2662 90.6866 52.9537 92.4657 55.0735C92.8577 55.5412 93.3011 55.9819 93.7851 56.3848L95.2208 57.5798H77.6546L74.4209 54.8653L100.509 32.973L98.8871 31.0399L88.6426 39.6378L88.9914 37.7452C89.4726 35.0144 88.8643 32.2647 87.2772 29.9989C85.6901 27.7332 83.3162 26.2191 80.5908 25.7378C77.8655 25.2566 75.1157 25.8676 72.85 27.4547C70.5843 29.0418 69.0702 31.4157 68.5889 34.1411C68.1076 36.8664 68.7187 39.6162 70.3058 41.8819C71.8929 44.1476 74.2668 45.6617 76.9921 46.143C77.5924 46.2484 78.2169 46.3079 78.8442 46.2998L80.7125 46.2917L67.2559 57.5825H63.0327L68.9458 24.0426L66.4583 23.6046L64.1385 36.7556L63.1841 35.0982C61.7998 32.6973 59.5638 30.9858 56.8925 30.2693C54.2212 29.5528 51.4282 29.9205 49.0327 31.3048C46.6372 32.6892 44.923 34.9224 44.2065 37.5937C43.49 40.2678 43.8577 43.058 45.242 45.4535C46.6264 47.8491 48.8597 49.5632 51.531 50.2797C54.205 50.9962 56.9952 50.6285 59.3907 49.2442C59.918 48.9387 60.429 48.5791 60.9103 48.1735L62.3378 46.9676L59.288 64.2662L56.0543 66.9808L39.0261 37.4856L36.8388 38.7483L43.5252 50.3311L41.7191 49.6552C39.1154 48.7061 36.3008 48.8305 33.7944 49.9985C31.288 51.1666 29.3846 53.243 28.4383 55.844C26.4834 61.211 29.2629 67.1673 34.6298 69.1221C39.9968 71.0742 45.9531 68.2975 47.9079 62.9306C48.1161 62.3574 48.2756 61.7517 48.3838 61.1326L48.7001 59.2913L57.4819 74.5026L56.7492 78.661L24.7449 67.0132L23.8824 69.3844L36.4495 73.9591L34.6352 74.6026C32.0315 75.5516 29.9551 77.4524 28.7843 79.9615C27.6136 82.4705 27.4919 85.2824 28.4383 87.8834C29.3846 90.4844 31.288 92.5582 33.7944 93.7289C36.3035 94.8997 39.1154 95.0213 41.7164 94.075C47.0833 92.1202 49.86 86.1638 47.9079 80.7969C47.6997 80.2237 47.4321 79.6586 47.1157 79.1152L46.1748 77.501L62.6812 83.5088L64.7928 87.1669L32.7886 98.8147L33.6511 101.186L46.2208 96.6111L45.242 98.2712C43.855 100.672 43.4873 103.465 44.2038 106.136C44.9203 108.81 46.6345 111.044 49.03 112.425C51.4255 113.81 54.2185 114.177 56.8898 113.461C59.5638 112.744 61.7971 111.03 63.1787 108.635C66.0339 103.687 64.3332 97.3411 59.388 94.4833C58.8608 94.1778 58.293 93.9155 57.7009 93.7019L55.9435 93.0692L72.4498 87.0615L76.4189 88.5053L59.3907 118L59.3989 117.998ZM59.7449 93.126C59.8558 93.1855 59.9666 93.2477 60.0748 93.3098C63.9925 95.5729 66.1096 99.7718 65.9149 104.006L74.4479 89.2245L72.4553 88.4999L59.7422 93.126H59.7449ZM78.8172 96.0704C81.1992 96.0704 83.519 96.7977 85.5089 98.1901C86.512 98.8931 87.3826 99.7285 88.1045 100.675L85.1439 83.8819L83.1513 84.6065L76.3865 96.3218C76.5109 96.2948 76.6325 96.2704 76.7569 96.2488C77.4437 96.1272 78.1331 96.0677 78.8145 96.0677L78.8172 96.0704ZM49.0489 79.9804C49.0949 80.0966 49.1408 80.2156 49.1841 80.3319C50.7306 84.5822 49.6546 89.1596 46.7832 92.2797L62.8218 86.4423L61.7619 84.6065L49.0489 79.9804ZM88.8427 74.7513L91.1922 88.0754C91.2706 87.9754 91.349 87.878 91.4302 87.7834C94.3367 84.3172 98.8411 82.9626 102.978 83.8873L89.9025 72.9155L88.8427 74.7513ZM39.6642 71.0012L55.7028 76.8386L56.0705 74.7513L49.3058 63.036C49.2652 63.155 49.2247 63.2739 49.1814 63.3929C47.6349 67.6432 43.8658 70.4578 39.6615 71.0039L39.6642 71.0012ZM86.8662 63.5443L97.2297 72.2396C97.2243 72.1125 97.2243 71.9881 97.2243 71.861C97.2243 67.3377 99.8037 63.4037 103.567 61.4543H86.4985L86.8662 63.5416V63.5443ZM47.8971 50.1391L56.4247 64.907L58.0497 63.5443L60.3992 50.2202C60.2911 50.2878 60.1857 50.3527 60.0748 50.4149C57.3656 51.9804 54.2104 52.3941 51.1876 51.5856C50.006 51.2693 48.9002 50.7799 47.8971 50.1391ZM78.1466 56.228H91.6762C91.5924 56.1333 91.5086 56.0387 91.4302 55.9441C89.4186 53.5486 88.4614 50.5122 88.7345 47.3948C88.84 46.1754 89.132 45.002 89.5862 43.9043L76.5244 54.8653L78.1493 56.228H78.1466ZM64.6468 56.228H66.7666L77.13 47.5327C77.0057 47.5138 76.8813 47.4949 76.7569 47.4732C72.3011 46.6864 68.8755 43.4663 67.6101 39.4188L64.6468 56.228ZM72.458 84.3767L64.4143 81.4485L60.1343 74.0348L61.6213 65.6046L68.1779 60.1024H76.738L83.2946 65.6046L84.7816 74.0348L80.5016 81.4485L72.458 84.3767ZM65.339 80.3481L72.458 82.9383L79.5769 80.3481L83.3649 73.7888L82.0481 66.3292L76.2459 61.4597H68.67L62.8678 66.3292L61.551 73.7888L65.339 80.3481Z" fill="currentColor"/>
<path d="M72.4602 83.5735C72.4197 83.5735 72.3791 83.5735 72.3359 83.5735L71.8843 83.5627C71.8438 83.5627 71.8059 83.5572 71.7654 83.5545L71.6599 83.5464C71.6275 83.5464 71.595 83.5437 71.5626 83.541L71.3084 83.5194C71.276 83.5167 71.2435 83.5113 71.2138 83.5086L71.1083 83.4978C71.0705 83.4951 71.0299 83.4897 70.9921 83.4843C70.9542 83.4788 70.9191 83.4734 70.8839 83.468L70.546 83.4167C70.5054 83.4112 70.4622 83.4031 70.4216 83.3977C70.381 83.3896 70.3432 83.3815 70.3026 83.3761L69.962 83.3085C69.9268 83.3031 69.8944 83.295 69.8592 83.2869C69.8187 83.2788 69.7808 83.268 69.743 83.2571L69.6402 83.2328C69.6078 83.2247 69.578 83.2193 69.5483 83.2112L69.305 83.1463C69.2725 83.1382 69.2401 83.1274 69.2103 83.1192L69.1103 83.0895C69.0724 83.0787 69.0346 83.0679 68.9967 83.0571C68.9643 83.0462 68.9291 83.0354 68.8967 83.0246L68.5668 82.9138C68.529 82.9002 68.4884 82.8867 68.4506 82.8732C68.4127 82.8597 68.3749 82.8435 68.337 82.8299L67.9179 82.665C67.8801 82.6488 67.8422 82.6326 67.8071 82.6163L67.7124 82.5758C67.6827 82.5623 67.6503 82.5515 67.6205 82.5352L67.3907 82.4271C67.361 82.4136 67.3339 82.4 67.3042 82.3838L67.2068 82.3352C67.1717 82.3189 67.1365 82.3027 67.1014 82.2838C67.069 82.2676 67.0392 82.2513 67.0095 82.2351L66.7012 82.0675C66.6661 82.0486 66.6309 82.0296 66.5985 82.0107C66.5634 81.9918 66.5309 81.9702 66.4958 81.9485L66.1956 81.7647C66.1659 81.7457 66.1362 81.7295 66.1091 81.7106C66.0767 81.689 66.0415 81.6673 66.0091 81.643L65.6333 81.3861C65.6062 81.3672 65.5819 81.3483 65.5549 81.3267L65.4737 81.2672C65.4413 81.2428 65.4089 81.2212 65.3764 81.1969C65.3494 81.1752 65.3223 81.1563 65.2953 81.1347L65.0222 80.9184C64.9898 80.8914 64.9573 80.867 64.9249 80.84C64.8951 80.8157 64.8627 80.7886 64.833 80.7589L64.5734 80.5291C64.5464 80.5074 64.522 80.4831 64.495 80.4588C64.4652 80.4317 64.4382 80.4047 64.4085 80.3749L64.084 80.0586C64.0624 80.037 64.0381 80.0126 64.0164 79.9883L63.9461 79.9153C63.9191 79.8856 63.8893 79.8585 63.8623 79.8288C63.838 79.8044 63.8163 79.7774 63.792 79.7504L63.5622 79.4908C63.5352 79.4611 63.5081 79.4286 63.4811 79.3989C63.454 79.3691 63.4297 79.3367 63.4054 79.3043L63.1891 79.0312C63.1674 79.0041 63.1458 78.9771 63.1242 78.9501C63.0999 78.9176 63.0782 78.8879 63.0539 78.8554L62.9917 78.7716C62.9728 78.7446 62.9511 78.7202 62.9322 78.6932L62.6754 78.3174C62.6537 78.2849 62.6321 78.2525 62.6105 78.2201C62.5916 78.1903 62.5726 78.1606 62.5537 78.1281L62.3725 77.8307C62.3509 77.7956 62.3293 77.7631 62.3104 77.728C62.2887 77.6928 62.2698 77.6577 62.2509 77.6225L62.0832 77.317C62.067 77.2873 62.0508 77.2548 62.0346 77.2251C62.0157 77.1899 61.9994 77.1548 61.9832 77.1196L61.9345 77.0223C61.9183 76.9926 61.9048 76.9655 61.8913 76.9358L61.7831 76.706C61.7696 76.6762 61.7561 76.6465 61.7453 76.6167L61.7047 76.5221C61.6885 76.487 61.6723 76.4491 61.6561 76.414C61.6425 76.3815 61.629 76.3491 61.6182 76.3166L61.4911 75.9895C61.4776 75.9516 61.4614 75.9165 61.4479 75.8786C61.4343 75.8381 61.4208 75.8002 61.4073 75.7596L61.264 75.3325C61.2532 75.2946 61.2424 75.2567 61.2316 75.2189L61.2018 75.1189C61.191 75.0891 61.1829 75.0567 61.1748 75.0269L61.0612 74.5862C61.0504 74.5484 61.0423 74.5105 61.0315 74.47C61.0234 74.4375 61.018 74.4024 61.0099 74.3672L60.9396 74.0238C60.9314 73.986 60.9233 73.9454 60.9179 73.9049C60.9098 73.8643 60.9044 73.8238 60.899 73.7859L60.8476 73.4398C60.8422 73.4047 60.8368 73.3695 60.8314 73.3344C60.826 73.2965 60.8233 73.2587 60.8179 73.2181L60.7719 72.7639C60.7719 72.7315 60.7665 72.699 60.7665 72.6666L60.7611 72.5611C60.7584 72.5233 60.7557 72.4827 60.753 72.4449L60.7422 71.9933C60.7422 71.9528 60.7422 71.9122 60.7422 71.869C60.7422 71.8257 60.7422 71.7878 60.7422 71.7446V71.5715L60.7449 71.5499L60.753 71.2958C60.753 71.2552 60.7584 71.2174 60.7611 71.1768L60.7692 71.0713C60.7692 71.0389 60.7719 71.0065 60.7746 70.974L60.8206 70.5225C60.8233 70.4819 60.8287 70.4414 60.8341 70.4035C60.8395 70.3684 60.8449 70.3332 60.8503 70.2981L60.9017 69.9547C60.9071 69.9141 60.9125 69.8736 60.9206 69.833C60.9287 69.7925 60.9369 69.7546 60.945 69.7141L61.0126 69.3734C61.0207 69.3382 61.0261 69.3031 61.0342 69.268C61.0423 69.2301 61.0531 69.1922 61.0612 69.1517L61.0856 69.0489C61.0937 69.0165 61.0991 68.9868 61.1072 68.9543L61.1721 68.711C61.1802 68.6785 61.191 68.6461 61.1991 68.6163L61.2289 68.5163C61.2397 68.4785 61.2505 68.4406 61.2613 68.4028L61.4046 67.9702C61.4181 67.9323 61.4289 67.8944 61.4425 67.8566C61.456 67.816 61.4722 67.7809 61.4857 67.743L61.6128 67.4213C61.6263 67.3888 61.6371 67.3564 61.6506 67.324C61.6669 67.2888 61.6831 67.2537 61.6993 67.2158L61.7426 67.1185C61.7561 67.0887 61.7669 67.059 61.7804 67.0292L61.8886 66.7994C61.9021 66.7697 61.9183 66.7427 61.9318 66.7129L61.9778 66.6183C61.994 66.5831 62.0129 66.548 62.0292 66.5128C62.0454 66.4804 62.0643 66.4479 62.0805 66.4155L62.2428 66.1154C62.2617 66.0775 62.2833 66.0424 62.3023 66.0045C62.3239 65.9694 62.3455 65.9315 62.3671 65.8964L62.6024 65.5124C62.624 65.4773 62.6456 65.4449 62.6673 65.4151L62.724 65.3313C62.743 65.3016 62.7619 65.2745 62.7808 65.2448L62.9268 65.0366C62.9457 65.0123 62.9647 64.9852 62.9836 64.9609L63.0458 64.8771C63.0674 64.8446 63.0917 64.8122 63.1161 64.7797C63.1377 64.7527 63.1593 64.723 63.181 64.6959L63.3973 64.4255C63.4216 64.3931 63.4486 64.3607 63.4757 64.3309C63.5 64.3012 63.527 64.2687 63.5568 64.239L63.7839 63.9794C63.8082 63.9524 63.8299 63.9253 63.8569 63.8983C63.8839 63.8686 63.911 63.8415 63.9407 63.8118L64.4058 63.3467C64.4328 63.3197 64.4598 63.2927 64.4896 63.2656C64.5166 63.2413 64.5409 63.217 64.568 63.1953L64.8275 62.9655C64.8573 62.9385 64.8897 62.9114 64.9195 62.8844C64.9519 62.8574 64.9817 62.833 65.0141 62.806L65.2845 62.5897C65.3115 62.5681 65.3386 62.5464 65.3656 62.5248C65.398 62.5005 65.4305 62.4761 65.4629 62.4518L65.544 62.3923C65.5711 62.3734 65.5981 62.3518 65.6225 62.3328L65.8306 62.1868C65.8577 62.1679 65.8847 62.1517 65.9145 62.1328L66.001 62.076C66.0334 62.0544 66.0632 62.0327 66.0956 62.0111C66.1281 61.9922 66.1578 61.9732 66.1875 61.9543L66.4795 61.7759C66.5147 61.7542 66.5498 61.7326 66.585 61.711C66.6201 61.6893 66.6553 61.6704 66.6904 61.6515L66.9932 61.4866C67.0257 61.4703 67.0554 61.4514 67.0879 61.4352C67.123 61.419 67.1555 61.4 67.1906 61.3838L67.6043 61.1837C67.634 61.1702 67.6638 61.1567 67.6935 61.1459L67.7881 61.1053C67.8233 61.0891 67.8612 61.0729 67.8963 61.0567C67.9287 61.0432 67.9585 61.0296 67.9909 61.0188L68.3154 60.8917C68.3532 60.8755 68.3911 60.862 68.4289 60.8485C68.4695 60.835 68.5073 60.8214 68.5452 60.8079L68.8724 60.6971C68.9048 60.6863 68.9399 60.6754 68.9724 60.6646C69.0102 60.6538 69.0481 60.643 69.0859 60.6322L69.1833 60.6024C69.2157 60.5916 69.2455 60.5835 69.2779 60.5727L69.5213 60.5078C69.551 60.4997 69.5834 60.4916 69.6132 60.4862L69.7159 60.4618C69.7538 60.451 69.7916 60.4429 69.8295 60.4348C69.8646 60.4267 69.8998 60.4186 69.9349 60.4132L70.2729 60.3456C70.3134 60.3375 70.3513 60.3294 70.3919 60.3213C70.4324 60.3131 70.473 60.3077 70.5135 60.3023L70.8569 60.251C70.8921 60.2456 70.9272 60.2401 70.9623 60.2347C71.0029 60.2293 71.0408 60.2266 71.0813 60.2212L71.1841 60.2104C71.2165 60.205 71.2462 60.2023 71.2787 60.1996L71.7356 60.1644C71.7735 60.1617 71.814 60.159 71.8519 60.1563L72.3034 60.1455C72.3845 60.1455 72.4683 60.1455 72.5494 60.1455H72.7252L72.7468 60.1482L73.001 60.1563C73.0415 60.1563 73.0794 60.1617 73.1199 60.1644L73.5769 60.1996C73.6093 60.2023 73.6418 60.2077 73.6715 60.2104L73.7742 60.2212C73.8148 60.2239 73.8554 60.2293 73.8932 60.2347C73.9284 60.2401 73.9635 60.2456 73.9987 60.251L74.342 60.3023C74.3826 60.3077 74.4204 60.3131 74.461 60.3213C74.5016 60.3294 74.5421 60.3375 74.5827 60.3456L74.9206 60.4132C74.9558 60.4213 74.9909 60.4267 75.0261 60.4348C75.0639 60.4429 75.1018 60.4537 75.1423 60.4618L75.2451 60.4862C75.2775 60.4943 75.3073 60.4997 75.3397 60.5078L75.5858 60.5727C75.6155 60.5808 75.6479 60.5916 75.6804 60.5997L75.7777 60.6295C75.8156 60.6403 75.8534 60.6511 75.8913 60.6619L76.3185 60.8052C76.359 60.8187 76.3969 60.8323 76.4374 60.8458C76.4753 60.8593 76.5131 60.8755 76.5537 60.889L76.8754 61.0161C76.9079 61.0296 76.9403 61.0432 76.9755 61.0567C77.0106 61.0729 77.0485 61.0891 77.0836 61.1053L77.1783 61.1459C77.208 61.1594 77.2377 61.1702 77.2675 61.1837L77.6812 61.3838C77.7163 61.4 77.7488 61.4163 77.7839 61.4352C77.8163 61.4514 77.8488 61.4703 77.8812 61.4866L78.1841 61.6515C78.2192 61.6704 78.2544 61.6893 78.2895 61.711C78.3246 61.7326 78.3598 61.7542 78.3949 61.7759L78.6897 61.957C78.7194 61.9759 78.7491 61.9949 78.7789 62.0138C78.8113 62.0354 78.8438 62.0571 78.8762 62.0787L79.2547 62.3355C79.2818 62.3545 79.3088 62.3761 79.3359 62.395L79.417 62.4545C79.4494 62.4788 79.4819 62.5005 79.5143 62.5248L79.8712 62.8087C79.9036 62.833 79.9334 62.8601 79.9658 62.8844C79.9983 62.9114 80.028 62.9385 80.0578 62.9655L80.3173 63.1953C80.3443 63.217 80.3687 63.2413 80.3957 63.2656C80.4255 63.2927 80.4525 63.3197 80.4795 63.3467L80.9473 63.8145C80.9743 63.8415 81.0014 63.8713 81.0284 63.901C81.0527 63.9281 81.0771 63.9524 81.0987 63.9794L81.3258 64.239C81.3528 64.2687 81.3799 64.3012 81.4069 64.3309C81.4313 64.3607 81.4583 64.3931 81.4826 64.4255L81.6989 64.6959C81.7206 64.723 81.7422 64.7527 81.7638 64.7797C81.7881 64.8095 81.8098 64.8419 81.8341 64.8744L81.8963 64.9609C81.9152 64.9852 81.9341 65.0123 81.9531 65.0393L82.2099 65.4178C82.2316 65.4503 82.2532 65.4827 82.2748 65.5151C82.2937 65.5449 82.3127 65.5746 82.3316 65.6044L82.5128 65.9018C82.5344 65.9342 82.5533 65.9694 82.5749 66.0045C82.5966 66.0397 82.6155 66.0748 82.6344 66.1127L82.8021 66.4182C82.8183 66.4479 82.8345 66.4804 82.8507 66.5101C82.8696 66.5453 82.8859 66.5804 82.9021 66.6129L83.1022 67.0265C83.1157 67.0563 83.1292 67.086 83.14 67.1158L83.1806 67.2104C83.1968 67.2455 83.213 67.2807 83.2292 67.3186C83.2428 67.351 83.2563 67.3861 83.2698 67.4186L83.3942 67.7376C83.4104 67.7755 83.4239 67.8133 83.4374 67.8512C83.451 67.8917 83.4645 67.9296 83.478 67.9674L83.6213 68.3946C83.6321 68.4325 83.6429 68.4703 83.6537 68.5082L83.6835 68.6082C83.6943 68.6407 83.7024 68.6731 83.7132 68.7056L83.7781 68.9489C83.7862 68.9814 83.7943 69.0111 83.7997 69.0435L83.8241 69.1463C83.8349 69.1841 83.843 69.222 83.8511 69.2598C83.8592 69.295 83.8673 69.3301 83.8727 69.3653L83.9403 69.706C83.9484 69.7465 83.9566 69.7844 83.9647 69.8249C83.9728 69.8655 83.9782 69.906 83.9836 69.9439L84.035 70.2873C84.0404 70.3224 84.0458 70.3576 84.0512 70.3927C84.0566 70.4306 84.0593 70.4684 84.0647 70.509L84.1107 70.9659C84.1107 70.9956 84.1161 71.0281 84.1161 71.0605L84.1242 71.166C84.1269 71.2038 84.1296 71.2444 84.1323 71.2822L84.1431 71.6175V71.7338C84.1431 71.7743 84.1458 71.8149 84.1458 71.8581C84.1458 71.9014 84.1458 71.9393 84.1458 71.9825V72.1583L84.1431 72.1799L84.135 72.434C84.135 72.4746 84.1296 72.5124 84.1269 72.553L84.1215 72.6585C84.1215 72.6909 84.1188 72.726 84.1161 72.7585L84.0944 73.0099C84.0917 73.0424 84.0863 73.0721 84.0836 73.1046L84.0728 73.2073C84.0701 73.2479 84.0647 73.2884 84.0593 73.3263C84.0539 73.3614 84.0485 73.3966 84.0458 73.429L83.9944 73.7751C83.989 73.8157 83.9836 73.8535 83.9755 73.8941C83.9674 73.9346 83.9593 73.9752 83.9511 74.013L83.8808 74.3564C83.8727 74.3916 83.8673 74.424 83.8592 74.4591C83.8511 74.497 83.8403 74.5348 83.8322 74.5727L83.7186 75.0134C83.7105 75.0432 83.6997 75.0756 83.6916 75.108L83.6618 75.2054C83.651 75.2432 83.6402 75.2811 83.6294 75.3189L83.4861 75.7461C83.4726 75.7867 83.4591 75.8245 83.4455 75.8624C83.432 75.9002 83.4158 75.9381 83.4023 75.9759L83.2752 76.2977C83.2617 76.3301 83.2509 76.3626 83.2347 76.395C83.2184 76.4302 83.2022 76.468 83.186 76.5032L83.1454 76.5951C83.1319 76.6248 83.1184 76.6573 83.1049 76.687L82.9075 77.1007C82.8913 77.1359 82.8751 77.1683 82.8561 77.2034C82.8399 77.2359 82.8237 77.2656 82.8048 77.2981L82.6371 77.6036C82.6182 77.6388 82.5993 77.6739 82.5776 77.709C82.556 77.7442 82.5371 77.7793 82.5155 77.8145L82.3343 78.1092C82.3154 78.1389 82.2965 78.1714 82.2775 78.2011C82.2559 78.2336 82.2343 78.266 82.2126 78.2985L81.9558 78.6743C81.9369 78.7013 81.9179 78.7257 81.8963 78.7527L81.8368 78.8365C81.8152 78.869 81.7909 78.9014 81.7665 78.9311C81.7449 78.9609 81.7233 78.9879 81.7016 79.015L81.4853 79.288C81.461 79.3205 81.434 79.3502 81.4096 79.3827C81.3826 79.4151 81.3555 79.4449 81.3285 79.4746L81.0987 79.7342C81.0771 79.7612 81.0527 79.7855 81.0284 79.8126C81.0014 79.8423 80.9743 79.8693 80.9446 79.8991L80.8743 79.9721C80.8527 79.9964 80.8283 80.0208 80.8067 80.0451L80.4822 80.3614C80.4552 80.3885 80.4255 80.4155 80.3957 80.4425C80.3687 80.4669 80.3443 80.4912 80.3173 80.5128L80.0578 80.7427C80.028 80.7697 79.9956 80.7967 79.9658 80.8238C79.9334 80.8508 79.9009 80.8778 79.8685 80.9022L79.5981 81.1185C79.5711 81.1401 79.544 81.1617 79.517 81.1807C79.4846 81.205 79.4521 81.2293 79.4197 81.251L79.3359 81.3131C79.3088 81.3321 79.2845 81.3537 79.2574 81.3699L78.8816 81.6268C78.8492 81.6484 78.814 81.6727 78.7816 81.6944C78.7545 81.7133 78.7248 81.7295 78.6951 81.7484L78.3977 81.9296C78.3625 81.9512 78.3274 81.9729 78.2922 81.9945C78.2571 82.0134 78.2219 82.035 78.1868 82.054L77.8812 82.2216C77.8515 82.2378 77.819 82.254 77.7893 82.2703C77.7542 82.2892 77.719 82.3054 77.6839 82.3216L77.5892 82.3676C77.5595 82.3838 77.5325 82.3973 77.5027 82.4109L77.2729 82.519C77.2459 82.5325 77.2161 82.5433 77.1864 82.5569L77.089 82.6001C77.0539 82.6163 77.016 82.6326 76.9809 82.6488C76.9511 82.6623 76.9187 82.6731 76.8863 82.6866L76.5591 82.8164C76.5213 82.8299 76.4861 82.8462 76.4482 82.8597C76.4077 82.8732 76.3698 82.8867 76.3293 82.9002L75.9021 83.0435C75.8642 83.0544 75.8264 83.0652 75.7885 83.076L75.6885 83.1057C75.6588 83.1165 75.6263 83.1247 75.5966 83.1328L75.3505 83.1977C75.3208 83.2058 75.2883 83.2112 75.2586 83.2193L75.1586 83.2436C75.118 83.2544 75.0802 83.2625 75.0396 83.2734C75.0072 83.2815 74.972 83.2869 74.9396 83.295L74.5962 83.3653C74.5583 83.3734 74.5178 83.3815 74.4772 83.3869C74.4367 83.395 74.3934 83.4004 74.3528 83.4058L74.0149 83.4572C73.9797 83.4626 73.9419 83.468 73.9067 83.4734C73.8662 83.4788 73.8283 83.4815 73.7905 83.487L73.685 83.4978C73.6526 83.5032 73.6201 83.5059 73.5904 83.5086L73.3362 83.5302C73.3038 83.5302 73.2713 83.5356 73.2389 83.5356L73.1335 83.5437C73.0956 83.5464 73.055 83.5491 73.0172 83.5518L72.5657 83.5627C72.5251 83.5627 72.4846 83.5627 72.4413 83.5627L72.4602 83.5735ZM64.349 78.3039L65.736 79.7396L67.2095 80.7886L68.8372 81.5646L70.5784 82.0459L72.3737 82.2189H72.4602L74.2582 82.0621L76.0048 81.5943L77.6433 80.8319L79.1223 79.7963L80.3984 78.5202L81.434 77.0385L82.1964 75.4L82.6047 73.9617L83.2725 74.0671L82.6101 73.9292L82.8183 72.069L82.6642 70.0574L82.1964 68.3135L81.434 66.6778L80.3984 65.1988L79.1196 63.9199L77.6406 62.8844L76.0048 62.122L74.2582 61.6542L72.6711 61.5001L70.6595 61.6542L68.9156 62.122L67.2798 62.8844L65.8009 63.9199L64.5247 65.1961L63.4892 66.6778L62.7267 68.3135L62.259 70.0574L62.1049 71.6445L62.259 73.6561L62.7267 75.4L63.4892 77.0385L64.3274 78.2741L63.8163 78.7202L64.349 78.3039ZM82.9345 72.069L83.1508 72.0798L83.4942 72.0609L82.9345 72.0663V72.069ZM61.748 71.6391L61.4262 71.6554L61.9318 71.65L61.748 71.6391ZM72.6657 60.8269L72.6711 61.3973L72.6819 61.1756L72.663 60.8269H72.6657Z" fill="currentColor"/>
</svg>
