<svg width="143" height="143" viewBox="0 0 143 143" fill="none" xmlns="http://www.w3.org/2000/svg">
<path d="M100.779 97.6663C110.306 86.8582 112.213 71.867 107.048 58.8649C106.15 59.693 104.833 60.837 102.583 62.7749C102.198 63.1677 101.805 63.5518 101.412 63.9189C101.01 64.286 100.599 64.6446 100.189 64.9861C99.6926 65.4215 99.188 65.8056 98.786 66.2666C97.9821 67.1801 97.3835 67.8631 97.3835 67.8631L95.3052 70.2193L93.2698 72.5329C92.979 72.8659 92.7481 73.2159 92.5172 73.5915C92.0554 74.8038 91.4225 75.8965 90.6699 76.9125C90.2936 77.4162 89.8916 77.9028 89.7719 78.1418C89.0449 78.8419 88.5917 79.2943 90.2081 78.9443C87.6851 80.1737 87.2062 80.609 90.7811 85.3813C89.8745 84.5959 89.1305 83.9812 88.5061 83.5288C87.8818 83.0763 87.3687 82.7689 87.4884 82.4616C86.4963 82.4445 86.1371 82.4189 87.2147 82.0604C85.4615 82.6067 85.1622 82.8116 87.5141 82.9141C87.1036 82.9909 86.7444 83.0592 86.4279 83.136C86.7529 83.1104 87.1121 83.1019 87.5312 83.0848C87.0266 83.1019 86.6075 83.136 86.2569 83.1787C86.0687 83.23 85.8977 83.2812 85.7523 83.3409C85.3161 83.5202 85.0254 83.7422 84.8885 84.0666C84.8286 84.1776 84.7859 84.2971 84.7602 84.4252C84.7602 84.6642 84.8201 84.9459 84.9826 85.2703C84.974 85.313 84.9655 85.3557 84.9569 85.3984C84.9569 85.4155 84.974 85.424 84.9826 85.4411C84.9569 85.5179 84.9398 85.6033 84.9227 85.6801C84.88 86.2777 85.0168 86.9948 85.1878 87.8742C84.9655 86.9863 84.8115 86.2777 84.9227 85.6801C84.9227 85.5777 84.9398 85.4838 84.9569 85.3899C84.7517 85.0057 84.7089 84.6898 84.7602 84.4166C84.7602 84.2117 84.803 84.0324 84.88 83.8788C85.0254 83.5629 85.3076 83.3751 85.7352 83.2641C85.8891 83.2214 86.0687 83.1958 86.2569 83.1702C86.3168 83.1531 86.3681 83.136 86.4365 83.1275C86.12 83.1531 85.8378 83.1873 85.5984 83.2385C85.1194 83.3495 84.7944 83.5288 84.6662 83.8105C84.4096 84.169 84.3497 84.63 84.8201 85.2106C84.7517 85.3301 84.7089 85.4581 84.6747 85.5777C84.6833 85.5777 84.6918 85.5777 84.7004 85.5862C84.6833 85.6033 84.6747 85.6289 84.6576 85.6545C84.4866 86.2948 84.6148 87.0375 84.803 87.951C84.4609 86.9521 84.2214 86.2094 84.6576 85.6545C84.6576 85.6289 84.6747 85.6033 84.6747 85.5777C84.3497 85.424 84.1188 85.2874 83.982 85.1679C83.905 85.2106 83.828 85.2533 83.7511 85.2959C83.8708 85.3386 84.0247 85.3898 84.2129 85.4411C82.6649 86.124 82.4425 86.8497 82.7162 88.8303C82.434 86.7899 82.5452 86.0131 83.7425 85.3045C83.6057 85.2533 83.5201 85.202 83.4688 85.1508C83.2892 85.1508 83.1438 85.1423 83.0498 85.1252C82.9386 85.202 82.8274 85.2703 82.7248 85.3472C82.836 85.3301 82.9728 85.3045 83.1267 85.2789C83.0412 85.313 82.9642 85.3472 82.8873 85.3813C83.007 85.3728 83.1438 85.3557 83.2978 85.3386C82.8189 85.5264 82.4596 85.6972 82.1774 85.9192C82.3228 85.8935 82.4768 85.8765 82.6649 85.8765C82.4853 85.8765 82.3228 85.8935 82.1774 85.9192C82.1005 85.9789 82.0406 86.0387 81.9722 86.107C81.5531 86.679 81.288 87.4388 80.9459 88.7023C81.2623 87.3107 81.4932 86.5936 81.9722 86.107C82.0149 86.0472 82.0577 85.9875 82.1005 85.9362C81.9465 85.9789 81.8097 86.0387 81.6728 86.1411C81.3821 86.4229 81.1511 86.7899 80.8946 87.3022C80.7406 87.618 80.5696 87.9937 80.3729 88.4632C80.5696 88.0022 80.7321 87.6266 80.8946 87.3022C81.1854 86.696 81.4163 86.346 81.6728 86.1411C81.707 86.107 81.7498 86.0728 81.784 86.0387C81.2367 86.2863 80.8518 86.8924 80.0564 88.301C80.8604 86.6448 80.8176 86.679 80.0308 88.2754C80.5354 87.0034 80.2874 87.2851 79.3466 88.651C79.569 88.1047 79.1242 88.5998 78.671 89.1377C78.3887 89.445 78.0809 89.7865 77.867 90.0255L77.5335 90.4012C77.5335 90.4012 77.619 90.2475 77.7559 89.9828C77.8927 89.7182 78.098 89.334 78.2947 88.9413C78.594 88.4291 78.8762 87.8912 78.3374 87.951C79.3381 87.0375 79.5005 86.7473 78.2434 86.9778C79.74 86.1838 79.8341 85.9192 78.3118 85.4325C79.7229 85.4069 80.1334 85.2533 79.74 84.5532C79.5348 84.4764 79.1499 84.2886 78.5683 84.0068C78.9275 84.0837 79.2269 84.1349 79.4749 84.1605C79.4065 84.0666 79.3295 83.9727 79.244 83.8617C79.3637 83.9812 79.4749 84.0751 79.5604 84.169C80.2617 84.2032 80.5439 83.9641 80.561 83.3409C80.4584 83.58 80.0308 83.3751 79.2012 82.8885C79.7999 83.0763 80.236 83.1446 80.5525 83.1019C80.5525 82.9738 80.5354 82.8458 80.5097 82.6921C80.5525 82.8543 80.5696 82.9909 80.5781 83.1019C80.9288 83.0421 81.1169 82.8372 81.2025 82.4701C81.0827 82.5726 80.7064 82.3336 80.0479 81.9579C81.0742 82.2567 81.613 82.3165 81.7669 81.975C81.861 81.9921 81.5702 81.5994 80.9288 80.8908C82.2202 81.6762 82.605 81.7957 82.1176 81.1896C81.9465 81.0188 81.6899 80.7542 81.3393 80.3956C82.0834 81.4372 81.9209 81.3091 81.0913 80.4127C81.5018 81.0103 81.2367 80.8396 80.6893 80.3785C80.5696 80.3017 80.1847 79.9858 79.7999 79.6785C78.6539 78.7479 77.5506 77.8772 76.7724 76.5112C75.652 74.5477 74.4718 72.7378 72.8725 71.1243C71.5212 70.023 70.0246 69.0754 68.4253 68.3326C67.2707 67.7863 66.0734 67.3679 64.8419 67.0521C64.2261 66.8984 63.6018 66.7703 63.2511 66.9325C62.3446 66.5654 61.7117 66.4971 61.438 67.6838C60.446 66.4032 59.8045 66.3862 58.5816 67.4192C58.5302 66.4032 57.8974 66.4374 57.1191 66.6081C56.6316 66.5654 55.9988 66.6508 55.3659 66.7618C54.1087 66.9838 52.8772 67.3082 51.6798 67.7265C52.7318 67.0777 53.8863 66.574 55.1008 66.1471C55.708 65.9337 56.3323 65.7373 56.6573 65.6861C57.6066 65.3788 58.248 65.208 57.2046 65.9593C59.548 64.8665 60.2065 64.6958 62.9005 66.0874C61.515 64.3543 62.1735 64.1836 64.3629 63.9445C63.4649 63.8079 64.1064 63.6031 64.7734 63.3982C65.3721 63.1591 65.9964 62.9115 66.6036 62.6384C66.903 62.5018 67.2023 62.3566 67.1595 62.3396C67.6983 62.092 67.9806 61.9383 67.5786 62.0066C67.5615 62.0066 67.5444 62.0237 67.5273 62.0237C67.5016 62.0408 67.4674 62.0493 67.4418 62.0664C67.4589 62.0578 67.476 62.0493 67.5016 62.0408C67.4931 62.0408 67.4845 62.0493 67.4674 62.0578C67.5016 62.0408 67.5273 62.0322 67.5529 62.0151C67.4845 62.0237 67.3905 62.0408 67.2793 62.0664C67.7839 61.87 68.1516 61.7078 68.3654 61.6224C68.5194 61.5456 68.6562 61.4688 68.7759 61.409C68.9641 61.2895 69.0753 61.1956 69.1009 61.1102C69.0582 61.0334 68.9299 60.9651 68.699 60.9053C68.6647 60.9224 68.622 60.9395 68.5707 60.9565C68.3141 61.0675 67.8523 61.17 67.2109 61.2895C67.8266 61.17 68.2884 61.059 68.5707 60.9565C68.6134 60.9395 68.6562 60.9224 68.6819 60.8968C68.468 60.837 68.1773 60.7773 67.801 60.7175C67.6983 60.709 67.6043 60.7004 67.4931 60.6919C67.5615 60.6919 67.6299 60.6919 67.6983 60.7004C67.6556 60.7004 67.6128 60.6833 67.5615 60.6748C68.049 60.6748 68.4509 60.6748 68.7759 60.6492C68.6648 60.487 68.2542 60.2906 67.5187 60.0089C67.724 60.0431 67.9036 60.0687 68.0746 60.0857C67.9378 60.026 67.7839 59.9577 67.6128 59.8894C68.297 60.0345 68.8016 60.137 69.1522 60.1711C69.4174 60.1711 69.5713 60.1114 69.6141 60.0089C69.4345 59.7613 69.0582 59.4198 68.5023 58.9418C68.7161 59.0613 68.9042 59.1637 69.0753 59.2576C68.947 59.1381 68.793 58.993 68.6305 58.8479C68.3569 58.8905 68.049 58.8991 67.6727 58.882C67.5016 58.9418 67.322 58.993 67.1339 59.0528C67.3477 58.9845 67.5444 58.9162 67.7325 58.8479C67.6727 58.8479 67.6128 58.8479 67.5529 58.8564C67.6299 58.8564 67.6983 58.8479 67.7668 58.8393C67.9378 58.7796 68.0917 58.7113 68.2457 58.643C68.2115 58.6344 68.1858 58.6259 68.1516 58.6174C68.1858 58.6174 68.22 58.6344 68.2542 58.643C68.8786 58.3442 69.3318 57.9429 69.5627 57.2343C69.7423 57.3368 69.9134 57.4136 70.0588 57.4648C70.0844 57.3539 70.1015 57.2429 70.1186 57.1148C70.1529 57.149 70.1871 57.1746 70.2213 57.2002C70.2298 57.166 70.2384 57.1319 70.2469 57.0977C70.2469 57.0977 70.2555 57.1063 70.264 57.1148C70.264 57.0892 70.2811 57.0636 70.2897 57.038C70.3068 57.0465 70.3239 57.0636 70.3496 57.0721C70.3496 57.0721 70.3581 57.0551 70.3667 57.0465C70.4265 57.0892 70.4864 57.1319 70.5463 57.166C70.6574 57.2087 70.7515 57.2343 70.8456 57.2343C70.8627 57.1746 70.8798 57.1148 70.8969 57.0551C70.9226 57.1063 70.9482 57.1575 70.9653 57.2002C71.0423 57.0892 71.1022 56.927 71.1535 56.7477C71.2732 56.5514 71.2561 56.1843 71.1107 55.7574C70.8114 54.9122 69.9647 53.8707 68.5878 52.2316C69.1351 52.7609 69.597 53.2048 69.9904 53.5548C69.6226 53.1792 69.2121 52.7609 68.7503 52.2999C69.6739 53.1792 70.418 53.8707 71.0166 54.3829C70.6403 53.8536 70.1358 53.2304 69.5029 52.4621C70.5976 53.6487 71.2818 54.3402 71.6581 54.5878C71.7607 54.3659 71.5212 53.6402 71.068 52.5133C71.3758 53.0255 71.5982 53.3499 71.7607 53.5463C71.6581 53.256 71.5298 52.9231 71.3844 52.5304C71.7265 53.1792 71.9317 53.5548 72.06 53.717C72.0686 53.7 72.0771 53.6743 72.0857 53.6317C71.8975 53.3243 71.7008 52.9743 71.4785 52.5731C71.7008 52.9487 71.9061 53.2816 72.0942 53.5804C72.1028 53.367 72.0515 52.9572 71.966 52.4194C72.1113 53.1024 72.214 53.589 72.2054 53.7512C72.7186 54.5537 73.112 55.0488 73.4541 55.2623C73.531 55.1171 73.5994 54.9208 73.6593 54.6817C73.5481 54.6817 73.4284 54.5793 73.3001 54.3573C73.2745 54.3232 73.2573 54.2719 73.2317 54.2293C73.2317 54.2122 73.2146 54.2037 73.2146 54.1951C73.1804 54.1268 73.1462 54.0585 73.112 53.9731C73.112 53.9731 73.112 53.9646 73.112 53.9561C73.0777 53.8878 73.0521 53.8109 73.0179 53.7341C73.0093 53.7085 72.9922 53.6829 72.9837 53.6487C72.9922 53.6743 73.0093 53.7 73.0179 53.7341C73.0521 53.8109 73.0777 53.8878 73.112 53.9561C73.112 53.9561 73.112 53.9646 73.112 53.9731C73.1462 54.05 73.1804 54.1268 73.2146 54.1951C73.2146 54.2122 73.2317 54.2207 73.2317 54.2293C73.2573 54.2719 73.283 54.3146 73.3001 54.3573C73.4626 54.622 73.5909 54.6647 73.7106 54.4427C73.7363 54.3061 73.7619 54.161 73.7876 53.9988C73.6422 53.6573 73.4883 53.1792 73.3258 52.5731C73.5139 53.1536 73.685 53.6146 73.8731 53.939C73.9159 53.7512 73.9501 53.5292 73.9843 53.256C73.9843 53.5719 73.9843 53.8536 73.9757 54.1012C74.0014 54.1354 74.0185 54.161 74.0442 54.1951C74.1211 53.9988 74.1981 53.7597 74.2836 53.4438C74.258 53.8024 74.2409 54.1097 74.2238 54.3829C74.2665 54.4171 74.3093 54.4427 74.3521 54.4683C74.4119 54.3317 74.4718 54.1866 74.5402 54.0244C74.506 54.2037 74.4718 54.3573 74.4461 54.511C74.4547 54.511 74.4632 54.511 74.4718 54.511C74.6514 54.4256 74.8566 54.1866 75.1047 53.7768C75.0277 54.0414 74.9678 54.2719 74.9079 54.4854C74.9336 54.4854 74.9593 54.4683 74.9764 54.4598C75.0106 54.4085 75.0533 54.3573 75.0875 54.2976C75.0704 54.3488 75.0533 54.3915 75.0362 54.4342C75.2244 54.3402 75.4382 54.1951 75.6777 53.9817C75.1987 55.672 75.5494 55.6976 76.8835 54.9464C76.6697 55.1257 76.6441 55.1513 76.7553 55.083C76.7125 55.083 76.8322 54.9976 77.1316 54.7927C76.7039 55.0403 77.0546 54.8269 77.619 54.4598C77.2171 54.75 76.8835 54.9976 76.7467 55.083C76.7895 55.083 77.0118 54.9805 77.3796 54.8013C77.5677 54.7671 78.3203 54.4342 79.4407 53.9561C78.423 54.3402 77.7644 54.5707 77.5421 54.622C77.1401 54.7842 77.1829 54.7586 77.619 54.5793C77.9526 54.4683 78.6881 54.2037 79.7571 53.828C76.8408 54.639 76.9862 54.4854 79.9367 53.606C77.2769 54.1866 77.4223 54.0329 80.0821 53.2219C77.8927 53.5463 78.2177 53.2219 80.2446 52.4365C78.8591 52.556 79.1841 52.2145 80.313 51.6596C79.817 51.5486 80.1334 51.2071 80.5525 50.84C80.7663 50.5327 81.0827 50.1912 81.3906 49.8497C82.6392 48.4667 83.8537 47.0495 85.0253 45.5811C86.1628 44.1298 79.4578 36.3695 80.5439 34.867C80.6124 34.7731 80.7321 34.739 80.9031 34.7304C66.8346 30.4277 51.2779 34.056 41.323 45.3506C27.5452 60.9821 29.7004 85.3642 46.1465 99.8176C62.5926 114.271 87.095 113.315 100.881 97.6833L100.779 97.6663Z" fill="currentColor"/>
</svg>
