<svg width="143" height="143" viewBox="0 0 143 143" fill="none" xmlns="http://www.w3.org/2000/svg">
<path d="M58.8219 125.455L57.4581 124.656C56.4976 124.089 56.379 123.515 56.4541 123.137C56.549 122.649 56.9917 122.299 57.4463 122.154C57.5135 122.114 57.6044 122.087 57.7388 122.098L60.3794 122.291L58.3436 122.618C58.5413 122.716 58.7903 122.822 59.0828 122.917C59.3358 122.905 59.8181 122.83 60.3082 122.46C60.4189 122.354 60.5296 122.244 60.6442 122.13L64.7395 118.117L61.2372 122.413C61.0672 122.622 60.8933 122.791 60.7154 122.929C60.2568 123.377 59.8299 123.775 59.49 124.026L59.4307 124.062C58.9484 124.274 58.478 124.345 58.1341 124.396C58.0985 124.4 58.063 124.408 58.0274 124.412L58.8259 125.455H58.8219ZM57.4819 122.803C57.2763 122.901 57.0984 123.066 57.0629 123.251C57.0233 123.452 57.1735 123.688 57.474 123.924C57.6123 123.849 57.806 123.822 58.0353 123.786C58.3199 123.743 58.6994 123.684 59.0749 123.538C59.0631 123.538 59.0512 123.538 59.0393 123.538H58.9879L58.9405 123.523C58.8061 123.479 57.8969 123.18 57.4819 122.803Z" fill="currentColor"/>
<path d="M62.9294 125.577L53.8059 119.738C51.3037 118.137 51.0389 117.971 51.2088 117.582C51.3116 117.35 51.4895 117.295 52.1259 117.413C52.1338 117.397 52.1417 117.381 52.1496 117.369C52.1892 117.302 52.2406 117.236 52.3236 117.184C51.8927 116.936 51.782 116.759 51.8255 116.523C51.8453 116.417 51.8927 116.331 51.9836 116.264C51.1654 114.43 51.6358 112.967 53.2169 110.787C53.2723 110.637 53.3671 110.472 53.4976 110.287C52.7861 110.338 52.2682 110.193 51.9006 109.854C51.1733 109.182 51.1337 107.804 51.4065 105.692C50.9835 106.03 50.608 106.148 50.2443 106.058C49.762 105.936 49.3984 105.46 49.1138 104.547C49.0782 104.523 49.0426 104.499 49.007 104.476C48.4536 105.393 47.9516 105.798 47.4575 105.786C47.3468 105.786 47.244 105.759 47.1491 105.719C47.1294 105.719 47.1057 105.727 47.0859 105.727C46.7459 105.747 46.572 105.44 46.1728 104.503C46.1451 104.444 46.1214 104.381 46.0977 104.326L46.6708 104.09C46.6866 104.13 46.7104 104.181 46.7341 104.236C46.8487 104.499 46.9554 104.688 47.0503 104.826C47.078 104.739 47.1057 104.645 47.1333 104.559C47.2677 104.13 47.4496 103.539 47.746 102.855L47.9674 102.351L48.2836 102.8C48.4773 103.075 48.6631 103.307 48.841 103.5C48.8608 103.461 48.8805 103.425 48.9003 103.386L49.2996 102.579L49.4814 103.461C49.5328 103.717 49.5881 103.941 49.6435 104.138C49.77 104.197 49.8925 104.232 50.019 104.252C50.4617 104.315 50.9637 104.122 51.5567 103.658L52.0548 103.268V103.898C52.0587 103.96 52.0627 104.023 52.0627 104.086L52.3236 103.776L52.1615 104.865C52.1496 104.956 52.1338 105.046 52.122 105.133C52.1971 105.865 52.3631 106.534 52.7386 106.754C52.7979 106.789 52.8651 106.813 52.9402 106.829C53.1181 106.435 53.4343 105.888 53.9324 105.101C53.7387 104.649 53.5885 104.13 53.4541 103.571C52.6754 102.662 52.0034 101.47 51.3432 100.305L51.0428 99.7741C50.6119 99.0108 50.1732 98.2358 49.766 97.4528C49.5407 97.1105 49.3193 96.7721 49.098 96.4377C48.6315 95.7295 48.1651 95.0213 47.7144 94.313L47.5326 94.0258L47.837 93.8724C48.0307 93.774 48.1927 93.6796 48.3508 93.5852C48.7027 93.3766 49.0308 93.1799 49.5842 93.0383C50.4459 92.7471 50.6119 92.0704 50.691 91.7477C50.7266 91.5943 50.7701 91.4212 50.9637 91.3661L51.1337 91.3149L51.28 91.4408C51.5369 91.6927 51.4262 91.9995 51.3037 92.2199C51.4183 92.212 51.5606 92.1963 51.7346 92.1648L52.0429 92.1058L52.4856 94.6553L52.3433 94.7694C51.6792 95.2967 50.7029 95.0173 49.9162 94.797C49.683 94.7301 49.3509 94.6357 49.1889 94.6317C49.1889 94.6475 49.1968 94.6671 49.2007 94.6868C49.4893 95.5013 49.8648 96.3078 50.2878 97.1223C50.5645 97.5472 50.8412 97.9721 51.11 98.401C51.3077 98.7118 51.5014 99.0266 51.6911 99.3335C52.4145 100.502 53.0983 101.604 53.798 102.422L53.8494 102.485L53.8652 102.564C53.9127 102.808 53.964 103.048 54.0154 103.276C54.2289 103.516 54.4503 103.728 54.6795 103.909L54.7586 103.783L54.7309 103.949C54.7942 103.996 54.8574 104.039 54.9207 104.082L55.0669 104.177L55.059 104.35C55.0392 104.838 55.0274 105.29 55.0313 105.703C55.1144 105.79 55.2013 105.865 55.3001 105.932L55.6203 105.762C55.478 105.29 55.4148 104.755 55.3832 104.2C55.2725 103.957 55.1737 103.705 55.0788 103.445C54.6558 102.733 54.2921 101.781 53.972 100.561C53.6359 99.2823 53.4857 98.2239 53.4976 97.2167C53.4225 96.7328 53.3711 96.241 53.3355 95.7373C53.043 94.195 52.9205 93.6088 52.877 93.4199C52.7228 93.2783 52.624 93.0894 52.5845 92.8573C52.537 92.5858 52.5845 92.3458 52.7307 92.1451L52.8493 91.9799L53.0509 92.0232C53.2117 92.0573 53.5095 93.2337 53.9443 95.5524V95.5918C53.9482 95.6154 53.9522 95.635 53.9522 95.6586C54.0075 95.9459 54.0668 96.2685 54.134 96.6265L54.1419 96.6659V96.7052C54.1261 96.8626 54.1222 97.02 54.1182 97.1813C54.3 98.3774 54.6005 99.5459 54.9523 100.86C55.1539 101.619 55.3713 102.43 55.6441 103.185C55.735 103.335 55.8259 103.469 55.9208 103.595L55.9801 103.673V103.772C55.984 103.87 55.988 103.964 55.9919 104.055C56.1856 104.48 56.4109 104.869 56.6679 105.2L56.8299 105.113L56.6916 105.231C56.7114 105.255 56.7272 105.279 56.7469 105.298L56.8576 105.432L56.7983 105.597C56.6995 105.877 56.6244 106.113 56.569 106.313C56.7548 106.538 56.9841 106.679 57.2727 106.762L57.6126 106.856L57.4743 107.179C57.4426 107.25 57.415 107.321 57.3873 107.387C57.3992 107.387 57.411 107.383 57.4189 107.38L58.0198 107.254L57.7628 107.812C57.4071 108.587 57.2015 109.209 57.1462 109.701L57.498 109.819L57.2727 110.031C57.5533 110.287 58.0198 110.448 58.6839 110.531L59.1543 110.586L58.9132 110.991C58.842 111.109 58.7748 111.228 58.7115 111.338C58.7827 111.349 58.8539 111.357 58.925 111.369L59.6761 111.464L59.0752 111.92C58.7234 112.188 58.4704 112.4 58.2925 112.569L58.9092 112.797L58.1028 112.754C58.0791 112.782 58.0554 112.805 58.0316 112.829C58.0158 112.876 58.004 112.919 57.9921 112.963L58.9092 112.951L58.419 113.159C58.593 113.155 58.8143 113.14 59.095 113.108C59.1345 113.104 59.178 113.096 59.2215 113.092L59.2412 113.258C59.3282 113.254 59.4191 113.25 59.514 113.242L64.9098 112.951L61.6644 113.502L68.1631 113.1L61.8818 113.828L62.7238 113.856L59.8421 114.348L63.8544 114.595L59.6761 114.95C59.5891 114.957 59.5021 114.965 59.4231 114.973V115.182L63.1982 115.681L57.4347 115.544C55.8852 115.508 55.1064 115.39 54.7863 115.119C54.1775 114.965 54.0747 114.82 54.0747 114.595C54.0747 114.47 54.1103 114.371 54.2368 114.289C53.9087 114.174 53.7111 114.001 53.628 113.769C53.5806 113.639 53.5727 113.502 53.6083 113.352C53.2525 113.714 53.0351 114.056 53.0509 114.352C53.0746 114.804 53.6676 115.312 54.9088 115.941L55.9603 116.476L54.7823 116.527C54.2842 116.547 53.4185 116.586 52.8572 116.649C52.8928 116.712 52.9323 116.775 52.9719 116.838C53.379 117.035 53.9522 117.279 54.557 117.531C54.7309 117.601 54.9207 117.676 55.1223 117.767L54.8772 118.333C54.6835 118.255 54.5016 118.176 54.3277 118.105C54.0905 118.015 53.8889 117.94 53.7111 117.885L54.2368 118.569L53.3711 118.353C53.2999 118.333 53.213 118.314 53.1221 118.29C53.4146 118.593 53.881 119.006 54.6084 119.537L62.9096 125.581L62.9294 125.577ZM53.3909 111.625C52.1575 113.451 51.9125 114.643 52.5687 116.067C52.8414 116.02 53.213 115.988 53.6992 115.957C52.8533 115.418 52.4777 114.934 52.4461 114.383C52.4026 113.624 53.0825 112.872 54.2645 111.999C54.217 111.951 54.1736 111.904 54.138 111.853C53.7941 111.833 53.549 111.759 53.3869 111.629L53.3909 111.625ZM55.395 114.611C55.8773 114.702 56.5809 114.804 57.498 114.926L57.7786 114.961C57.7707 114.93 57.7668 114.898 57.7668 114.859C57.7668 114.832 57.7668 114.808 57.7668 114.784C57.6482 114.682 57.5494 114.564 57.4743 114.43C57.4585 114.403 57.4426 114.371 57.4308 114.344L56.7311 114.426C56.1421 114.493 55.7152 114.552 55.4069 114.603C55.4069 114.603 55.399 114.607 55.399 114.611H55.395ZM54.5372 112.982C54.2012 113.364 54.2131 113.517 54.2289 113.561C54.2408 113.592 54.3593 113.812 55.4543 113.844C55.6085 113.757 55.7864 113.663 55.9959 113.557C55.2369 113.494 54.7388 113.332 54.5372 112.982ZM57.2806 113.647C57.158 113.698 57.0474 113.75 56.9406 113.797L57.2845 113.777C57.2845 113.734 57.2806 113.691 57.2806 113.647ZM55.0946 112.431C55.0551 112.53 55.0432 112.605 55.0669 112.66C55.1183 112.782 55.4662 112.99 57.241 112.971C57.2648 112.888 57.3003 112.805 57.3557 112.711L56.8932 112.687C56.1342 112.648 55.5452 112.565 55.0985 112.431H55.0946ZM56.0947 111.629C56.3398 111.798 56.6481 111.951 57.0157 112.089L57.5691 112.294C57.6363 112.117 57.7154 111.928 57.8103 111.735C57.3873 111.578 57.075 111.357 56.8616 111.074L56.5611 111.287C56.3951 111.405 56.241 111.519 56.0947 111.625V111.629ZM53.7703 111.086C53.7703 111.109 53.7703 111.125 53.7743 111.137C53.7743 111.137 53.8059 111.176 53.9364 111.204C53.9364 111.172 53.9364 111.137 53.9364 111.102C53.9008 111.066 53.8652 111.027 53.8376 110.984C53.8138 111.015 53.7901 111.05 53.7664 111.082L53.7703 111.086ZM57.5257 110.877C57.6719 110.999 57.8617 111.102 58.0949 111.184C58.1147 111.145 58.1384 111.106 58.1621 111.062C57.9249 111.015 57.7154 110.952 57.5257 110.877ZM55.2764 109.701C55.2329 110.126 55.2725 110.5 55.4069 110.818C55.4622 110.818 55.5255 110.814 55.5887 110.81C55.8101 110.582 56.0631 110.327 56.3595 110.047C56.0117 109.878 55.7231 109.669 55.482 109.426C55.4108 109.52 55.3436 109.61 55.2804 109.705L55.2764 109.701ZM54.6519 110.775C54.6795 110.779 54.7112 110.787 54.7428 110.791C54.7309 110.744 54.7151 110.696 54.7072 110.645C54.6874 110.688 54.6716 110.732 54.6519 110.771V110.775ZM56.6323 110.641C56.6125 110.661 56.5888 110.681 56.569 110.704L56.6521 110.692C56.6521 110.692 56.6402 110.661 56.6323 110.641ZM51.9204 106.77C51.8136 108.076 51.8966 109.001 52.3315 109.402C52.6556 109.701 53.2209 109.76 54.1024 109.583C54.3 109.374 54.5254 109.15 54.7902 108.898C54.7981 108.867 54.806 108.835 54.8139 108.804C54.5056 108.8 54.2645 108.717 54.0747 108.556C53.8534 108.371 53.7269 108.1 53.6755 107.734C53.2999 107.958 53.0746 107.966 52.8928 107.812C52.7861 107.722 52.7268 107.604 52.7465 107.411C52.6279 107.38 52.5212 107.336 52.4184 107.273C52.2208 107.155 52.0587 106.99 51.9243 106.766L51.9204 106.77ZM55.8615 108.938C55.9959 109.083 56.15 109.213 56.324 109.327C56.3002 109.008 56.3437 108.643 56.4544 108.222L56.2765 108.434C56.1382 108.599 55.9959 108.768 55.8615 108.938ZM54.2605 107.317C54.2645 107.683 54.3238 107.962 54.47 108.088C54.5333 108.143 54.6242 108.174 54.7388 108.186C54.6242 107.856 54.5491 107.502 54.4977 107.124C54.4147 107.195 54.3356 107.258 54.2605 107.321V107.317ZM55.9049 107.494C55.8338 107.675 55.7666 107.852 55.7033 108.021C55.7785 107.997 55.8536 107.974 55.9326 107.946L56.1737 107.86C56.1342 107.828 56.0947 107.793 56.0591 107.753C55.9919 107.675 55.9405 107.588 55.9049 107.494ZM55.0669 106.636C55.0946 106.982 55.1381 107.297 55.2053 107.58C55.3081 107.309 55.4227 107.025 55.5492 106.73C55.4069 106.687 55.2725 106.632 55.146 106.565L55.0669 106.632V106.636ZM56.4505 107.041C56.4505 107.206 56.4821 107.297 56.5256 107.348C56.5532 107.38 56.6046 107.415 56.7034 107.435C56.7272 107.372 56.7548 107.305 56.7825 107.238C56.66 107.183 56.5493 107.116 56.4505 107.041ZM54.3949 105.916C54.3672 106.097 54.3396 106.278 54.3198 106.451C54.3396 106.439 54.3633 106.427 54.387 106.416L54.4305 106.392C54.4226 106.242 54.4186 106.093 54.4147 105.94C54.4068 105.932 54.4028 105.924 54.3949 105.916ZM55.6678 106.117C55.6994 106.128 55.731 106.136 55.7626 106.148C55.7508 106.121 55.7389 106.093 55.7271 106.065L55.6678 106.117ZM49.8925 104.85C50.0941 105.298 50.2799 105.428 50.3985 105.456C50.6396 105.515 51.0151 105.279 51.4618 104.779C51.4539 104.68 51.45 104.578 51.446 104.472C50.9045 104.799 50.4064 104.924 49.9241 104.854C49.9123 104.854 49.9004 104.854 49.8885 104.85H49.8925ZM48.1137 103.591C47.9437 104.035 47.8211 104.425 47.7263 104.732C47.6788 104.889 47.6354 105.027 47.5919 105.149C47.7777 105.086 48.082 104.838 48.5327 104.063C48.3943 103.925 48.256 103.768 48.1137 103.591ZM54.3238 104.409C54.3238 104.409 54.3317 104.433 54.3356 104.444L54.3475 104.425C54.3475 104.425 54.3317 104.413 54.3238 104.405V104.409ZM48.4101 94.254C48.4615 94.3366 48.5169 94.4193 48.5683 94.5019C48.5801 94.3642 48.6315 94.2501 48.7224 94.1675C49.007 93.896 49.4814 94.0298 50.0822 94.1989C50.6594 94.3603 51.363 94.5609 51.8057 94.3681L51.533 92.8101C51.28 92.8415 51.0665 92.8415 50.8886 92.8101C50.6633 93.1248 50.3115 93.4356 49.7502 93.6245C49.264 93.7504 48.9833 93.9157 48.6592 94.1084C48.5801 94.1557 48.4931 94.2068 48.4062 94.254H48.4101Z" fill="currentColor"/>
<path d="M56.7941 108.879C56.719 108.879 56.6755 108.827 56.6162 108.749C56.5055 108.749 56.4067 108.709 56.3276 108.631C56.1102 108.418 56.1616 108.103 56.5767 107.419C56.3909 107.49 56.2288 107.49 56.0865 107.391C55.9165 107.277 55.8533 107.092 55.8968 106.75C55.5766 106.25 55.4896 105.444 55.4936 104.318C55.1892 103.606 54.956 102.78 54.7307 101.954C54.6002 101.596 54.4737 101.234 54.3551 100.891C53.9796 99.8213 53.5566 98.6094 53.5685 97.374C53.5962 96.6658 53.3511 95.3202 53.1337 94.1359C52.9558 93.1837 52.7898 92.2749 52.6356 91.4525C52.517 90.6578 52.4103 89.9141 52.6553 89.3987C52.6988 89.2728 52.7581 89.1587 52.8332 89.0525C52.9321 88.7102 53.2009 88.4662 53.438 88.2459C53.4934 88.1948 53.5527 88.1397 53.6041 88.0885C53.7068 87.9036 53.8017 87.7148 53.8966 87.522L54.4856 86.3534V87.6597C54.4856 87.9941 54.3116 88.2459 54.1061 88.4623C53.8808 88.8636 53.612 89.265 53.2285 89.6427C53.0902 90.0951 53.193 90.827 53.2918 91.5391L54.2721 96.8271C54.3749 98.3812 54.8097 99.9314 55.2287 101.427L55.2406 101.462C55.2683 101.564 55.2959 101.67 55.3236 101.773C55.5845 102.501 55.8533 103.217 56.0944 103.764L56.1221 103.827V103.893C56.1221 103.996 56.1181 104.094 56.1181 104.196C56.3158 104.637 56.5372 105.015 56.806 105.294L56.9404 105.432L56.8771 105.613C56.8494 105.684 56.8257 105.755 56.806 105.817C56.889 105.684 56.9838 105.534 57.0906 105.373C57.1736 104.724 57.7428 103.492 58.3476 102.19L58.3871 102.099C58.7982 101.21 59.2094 100.317 59.573 99.5262C60.328 97.8855 61.2688 97.2559 61.3084 97.2284L67.6054 93.0893L61.6721 97.7281C61.6721 97.7281 60.8973 98.3576 60.2885 99.8685C59.9683 100.687 59.6126 101.611 59.2528 102.536C58.7587 103.811 58.2014 105.259 58.2211 105.896V105.983L58.1816 106.057C58.0749 106.242 57.9879 106.4 57.9088 106.541L57.9009 106.553C57.7586 106.817 57.6638 107.006 57.6045 107.147C57.6321 107.132 57.6598 107.112 57.6875 107.092L60.9131 104.881L59.2726 106.435L66.1112 101.761L62.4429 104.602L64.1427 103.543L58.1104 108.025C57.5965 108.406 57.2843 108.639 57.0827 108.764C57.0827 108.764 57.0827 108.764 57.0787 108.768C56.9443 108.851 56.8613 108.882 56.802 108.882L56.7941 108.879ZM57.055 106.577L57.1341 106.663C57.2487 106.431 57.3989 106.156 57.5886 105.821C57.5886 105.786 57.5886 105.747 57.5926 105.707C57.3436 106.097 57.1696 106.376 57.055 106.577ZM56.1616 105.499C56.1695 105.558 56.1774 105.617 56.1853 105.676C56.1972 105.64 56.2091 105.609 56.2209 105.574C56.2012 105.55 56.1814 105.526 56.1616 105.503V105.499ZM54.4816 103.791L53.9242 103.445L53.1178 103.642C51.7897 103.964 50.9872 102.89 50.1571 101.541L49.9318 101.379C49.3546 100.966 48.6391 100.455 47.892 99.959L47.556 99.7465C46.7733 99.2586 45.9669 98.7511 45.2673 98.0547L44.9629 97.7517L45.3463 97.5589C46.7496 96.8625 47.9592 97.2874 48.7933 97.736C48.7419 97.6887 48.6905 97.6415 48.6431 97.5943C47.8525 96.8428 46.9749 95.93 46.4492 94.8874C46.1804 94.2657 46.1606 93.7818 46.3781 93.3844C46.7615 92.6919 47.7497 92.5306 48.7063 92.3772C49.0305 92.326 49.3388 92.2749 49.6076 92.208C49.4811 91.2243 49.3349 90.1227 49.1807 89.1587C48.9356 87.6282 49.0582 86.4833 49.4851 86.2432C49.6195 86.1685 49.7855 86.1803 49.9001 86.2787L49.9318 86.3062C50.5049 86.9436 51.1928 87.0183 51.9794 87.0301C52.1098 86.9751 52.264 86.9751 52.4458 87.0656L53.6199 87.6518H52.3075C52.2601 87.6518 52.2087 87.6518 52.1612 87.6518C52.1138 87.7108 52.0545 87.8171 52.0189 87.88C51.8924 88.1043 51.7304 88.3876 51.426 88.3797C51.2797 88.3797 51.1572 88.3089 51.0504 88.2026C50.9477 88.5921 50.8488 89.3358 50.9951 90.5122C51.1137 91.4565 51.2876 92.8886 50.2796 93.4001L50.2243 93.4277H50.165C49.236 93.5103 48.5838 93.7975 48.5838 94.128C48.5838 95.8671 49.7697 97.1891 51.0228 98.5898C51.6434 99.2822 52.2719 99.9826 52.8135 100.679L53.2522 101.116L53.0783 101.029C53.5566 101.678 53.944 102.32 54.1733 102.945L54.4777 103.779L54.4816 103.791ZM48.4454 98.9281C49.1293 99.6521 49.9476 100.215 50.6907 100.683L50.7658 100.746C51.6592 101.828 52.4577 102.749 53.1732 103.063L53.6396 103.268C53.0151 102.855 52.4814 102.217 51.9201 101.545C51.6157 101.179 51.3034 100.805 50.9714 100.463C50.1689 99.6914 49.3388 99.1839 48.4494 98.9281H48.4454ZM51.7225 100.364C51.9517 100.62 52.1691 100.88 52.3786 101.131C52.1889 100.888 51.9873 100.64 51.7778 100.392L51.7185 100.364H51.7225ZM46.0539 97.9445C46.6231 98.4363 47.2596 98.8337 47.8802 99.2232C47.7142 99.0383 47.556 98.8455 47.4098 98.6409L47.0066 98.0783L47.6983 98.153C47.9909 98.1845 48.2834 98.2435 48.568 98.3222C47.639 97.8107 46.8445 97.6887 46.0579 97.9445H46.0539ZM50.2361 92.6683L50.0543 92.7313C49.6946 92.8572 49.2637 92.9241 48.8131 92.9988C48.0422 93.1247 47.1686 93.2624 46.9315 93.6913C46.8129 93.9037 46.8445 94.2224 47.0224 94.6356C47.473 95.5326 48.2518 96.3549 48.9712 97.0514C48.3862 96.1818 47.975 95.2375 47.975 94.1398C47.975 93.4434 48.7498 92.9555 50.0583 92.8336C50.1294 92.7903 50.1927 92.7313 50.2401 92.6644L50.2361 92.6683ZM49.7499 86.9987C49.6788 87.3213 49.6195 87.9744 49.7974 89.0722C49.9673 90.1305 50.1255 91.3502 50.2599 92.4008L50.2836 92.5975C50.5445 92.1608 50.4812 91.3817 50.3864 90.5988C50.1927 89.025 50.3903 87.8997 50.7026 87.5023C50.3745 87.4039 50.0503 87.2505 49.7499 86.9987ZM51.3864 87.6321C51.3983 87.6518 51.4102 87.6715 51.422 87.6872C51.4339 87.6715 51.4418 87.6518 51.4497 87.6361C51.4299 87.6361 51.4062 87.6361 51.3825 87.6321H51.3864Z" fill="currentColor"/>
<path d="M55.9483 103.512C55.7111 103.512 55.64 103.319 55.6123 103.173C54.9442 102.418 54.4857 101.47 54.1695 100.199C53.9007 99.1091 53.79 98.0232 53.7267 97.0789C53.7109 96.953 53.6951 96.8192 53.6714 96.6815C53.5726 96.1582 53.4698 95.5956 53.371 95.029L52.8096 91.9955C52.6713 90.9765 52.5329 89.9378 52.9717 89.1981L52.9954 89.1627C53.0745 89.0643 53.1575 88.962 53.2445 88.8597C53.8216 88.1673 54.4778 87.3804 54.4857 86.3377C54.4976 85.9325 54.4659 85.6295 54.4304 85.4446C54.2683 85.4524 54.1102 85.4013 54.0034 85.2754C53.8611 85.1141 53.7939 84.819 54.2604 84.3547L54.5648 84.0518L54.7585 84.4334C55.9364 86.7744 54.3355 88.8558 53.5449 89.6781C53.2484 90.3706 53.3907 91.4014 53.5291 92.3969C53.7346 93.4985 53.9402 94.6041 54.1378 95.6507C54.205 96.0009 54.2564 96.3235 54.296 96.6147C54.3078 96.6855 54.3236 96.7563 54.3355 96.8232C54.3355 96.8783 54.3434 96.9294 54.3474 96.9845C54.3908 97.3347 54.4225 97.6337 54.4462 97.8855C54.458 98.0153 54.4699 98.1373 54.4818 98.2475C54.7189 98.7865 54.8178 99.3334 54.9166 99.8646C54.9442 100.026 54.9759 100.183 55.0075 100.341C55.1458 101.002 55.3356 101.517 55.8139 101.871L55.8811 101.922L55.9127 102.001C56.0471 102.316 56.1697 102.615 56.225 102.674L56.3238 102.78V102.941C56.2922 103.209 56.2566 103.512 55.9523 103.512H55.9483ZM40.0653 98.3931C39.4961 98.3931 38.9387 98.2278 38.5395 97.913C38.1125 97.5707 37.9307 97.0829 38.0453 96.5714C38.0651 93.2467 40.7175 92.2985 43.283 91.3817C44.6428 90.8978 46.0461 90.3942 46.9988 89.5404C47.0186 89.1351 47.0304 88.726 47.0462 88.3128C47.0581 88.0217 47.066 87.7266 47.0779 87.4315C47.0779 85.9875 47.149 84.8819 47.5245 84.2249L47.5483 84.1895C48.0977 83.4734 48.0503 82.6117 47.9989 81.7028C47.9831 81.4392 47.9712 81.1717 47.9673 80.9041L47.738 79.9166C46.8802 76.2732 46.141 73.1256 46.5442 69.2816C46.8486 67.3694 47.0265 66.4055 47.0304 66.3976L48.9318 56.1836L47.6431 66.492C47.6431 66.492 47.5127 67.5386 47.3743 69.2265C47.1134 72.7794 48.3784 75.7578 49.7184 78.9093C50.0584 79.712 50.4142 80.5422 50.7343 81.3802C51.7542 83.4065 50.6869 85.3856 49.3389 86.562C48.9516 87.0184 48.8527 87.9509 48.8013 88.8951C48.7262 89.3909 48.6669 89.8709 48.6116 90.3509L48.5167 91.1103L48.3389 91.1732C47.5324 91.4644 46.6905 91.6729 45.7931 91.8932C43.3265 92.5031 40.7768 93.1326 39.2352 95.5445C39.0257 95.9615 39.0929 96.4888 39.4289 96.9294C39.7333 97.3268 40.3262 97.6927 41.0812 97.5471L43.3502 97.0947L41.2789 98.1255C40.9073 98.3104 40.4804 98.4009 40.0574 98.4009L40.0653 98.3931ZM38.6422 96.7681C38.6067 97.0238 38.7015 97.2481 38.9308 97.433C39.0178 97.5039 39.1205 97.5629 39.2312 97.6101C39.1285 97.5157 39.0296 97.4134 38.9427 97.2993C38.8162 97.134 38.7134 96.953 38.6422 96.7681ZM40.7887 93.1011C40.1404 93.471 39.5949 93.9234 39.2194 94.5176C39.6937 93.9392 40.2234 93.4788 40.7887 93.1011ZM48.0542 84.5475C47.738 85.1219 47.6945 86.2787 47.6985 87.4433C47.6866 87.7502 47.6787 88.0413 47.6668 88.3325C47.651 88.7889 47.6352 89.2453 47.6155 89.6938V89.8158L47.5206 89.9024C46.7458 90.6421 45.7141 91.1299 44.6389 91.5431C44.9749 91.4565 45.3148 91.3699 45.6508 91.2873C46.4612 91.0867 47.232 90.8978 47.9554 90.6499L48.0029 90.2722C48.0621 89.7883 48.1214 89.3043 48.1926 88.8283C48.24 87.8682 48.3428 86.7587 48.8923 86.137L48.9199 86.1095C50.0979 85.0865 51.0466 83.375 50.173 81.6281C49.841 80.7743 49.4892 79.9481 49.1492 79.1493C48.4021 77.3906 47.6392 75.5965 47.1727 73.6922C47.3822 75.7027 47.8408 77.6542 48.3389 79.7789L48.5879 80.8727C48.5879 81.1402 48.6037 81.4078 48.6195 81.6714C48.6749 82.6471 48.7302 83.6544 48.0582 84.5475H48.0542Z" fill="currentColor"/>
<path d="M91.338 105.945L92.1879 103.671C92.4725 102.912 92.6227 102.416 92.6425 102.192C92.3026 102.298 91.4448 102.853 90.5435 103.435C90.2786 103.608 89.9901 103.793 89.6778 103.99L89.3418 103.471C93.5754 100.709 95.4926 99.5086 97.3268 99.5086C97.3505 99.5086 97.3742 99.5086 97.3979 99.5086C98.2873 97.3289 99.2242 95.7669 100.884 93.3471C100.932 92.7491 101.228 91.9386 101.746 90.8448C101.458 90.5418 101.323 90.0303 101.268 89.3143C100.967 88.7162 101.05 87.5673 101.303 85.7614L102.094 80.1311L101.9 86.4145C101.869 87.4375 101.837 88.3896 101.877 89.1215C101.888 89.1333 101.9 89.1411 101.912 89.149C102.015 89.212 102.308 89.149 102.821 88.7949L103.853 88.0867L103.272 89.1923C103.035 89.6408 102.802 90.0933 102.588 90.5261C102.703 90.5103 102.841 90.471 102.999 90.4041L103.988 89.991L103.371 90.8645C102.651 91.8874 102.031 92.7688 101.489 93.5557C101.493 93.6776 101.521 93.776 101.568 93.8508C101.695 94.0435 102.051 94.1262 102.624 94.0986L103.636 94.0475L102.829 94.6534C100.094 96.7072 98.9475 97.8403 97.9237 99.8627C97.9118 99.8902 97.9039 99.9138 97.8921 99.9414L97.809 100.15H97.7814C97.5521 100.622 97.3307 101.141 97.0896 101.732L96.8959 102.216L96.5639 101.81C96.0816 101.224 95.7574 101.169 95.5638 101.177C94.9273 101.2 94.0814 102.031 92.7374 103.955L91.342 105.945H91.338ZM93.1643 101.767C93.2434 101.877 93.271 102.019 93.2592 102.216C93.6584 101.728 94.0102 101.358 94.3383 101.094C93.9786 101.287 93.5912 101.511 93.1683 101.767H93.1643ZM95.5875 100.559C95.9749 100.559 96.3346 100.716 96.6943 101.051C96.8287 100.724 96.9631 100.417 97.0975 100.13C96.5836 100.162 96.046 100.303 95.4215 100.567C95.457 100.563 95.4966 100.559 95.5321 100.559C95.5479 100.559 95.5677 100.559 95.5875 100.559ZM101.05 94.1931C100.454 95.0783 99.9555 95.8495 99.5207 96.5931C100.125 95.9951 100.857 95.3813 101.79 94.6613C101.497 94.5944 101.224 94.4567 101.05 94.1931ZM102.288 91.1359C102.201 91.3209 102.118 91.5058 102.039 91.6828C102.161 91.5097 102.284 91.3327 102.414 91.1517C102.371 91.1517 102.331 91.1438 102.292 91.1399L102.288 91.1359ZM101.944 89.7864C101.972 89.9477 102.007 90.0854 102.055 90.1995C102.126 90.0539 102.201 89.9044 102.28 89.751C102.165 89.7785 102.055 89.7903 101.944 89.7864Z" fill="currentColor"/>
<path d="M65.1017 107.991L69.1455 106.272C69.1455 106.272 69.8057 105.993 70.79 105.564C71.2841 105.355 71.877 105.115 72.5293 104.852C73.2803 104.549 74.1105 104.214 74.9564 103.86L75.0117 103.84C77.5535 103.309 79.5616 101.893 80.8147 99.7367C81.2416 99.0167 81.5736 98.2258 81.8464 97.5451L81.9887 97.195L82.3049 97.4035C82.5461 97.5609 82.7991 97.6868 83.0244 97.797C83.3129 97.9425 83.5422 98.0527 83.6845 98.2022C83.9217 98.2258 84.1312 98.2494 84.313 98.2809C83.9889 97.4507 83.0679 96.7582 82.1073 96.0343L81.9808 95.932C80.7435 94.9051 79.4628 93.8428 78.3559 92.4618C77.8658 92.088 77.3993 91.7968 76.9289 91.5647C75.2647 90.8643 73.4226 90.3529 71.6438 89.861C71.2564 89.7548 70.8651 89.6446 70.4816 89.5345C69.7859 89.3338 69.0467 89.1135 68.3628 88.8381L68.2087 88.7751L68.1771 88.6138C68.011 87.7915 68.1533 86.918 68.2877 86.0721C68.351 85.6826 68.4103 85.297 68.4459 84.9232L68.1178 85.5764V81.4215L68.7068 82.5901C68.7186 82.6137 68.7305 82.6333 68.7384 82.6569C68.7502 82.6333 68.7581 82.6137 68.77 82.5901L69.1851 81.7638C69.1416 81.5946 69.0981 81.4254 69.0586 81.2602L69.6594 81.0989C69.7424 81.39 69.8136 81.6773 69.8808 81.9684C70.1219 82.8812 70.3907 83.7783 70.7662 84.5258L70.7939 84.6124C71.0074 85.9029 71.6952 86.7056 72.8969 87.0675L73.8733 87.3587C74.2488 87.4728 74.6283 87.583 75.0117 87.701C75.1422 87.7246 75.2687 87.7443 75.3991 87.7679C75.9762 87.8662 76.5534 87.9685 77.1266 88.0787L77.1859 88.0944C77.6286 88.2715 78.0871 88.7004 78.6366 89.4479C79.5141 90.9784 80.6684 92.2847 82.0836 93.3588C82.5895 93.7444 83.1271 94.0946 83.6055 94.4054C84.4119 94.9326 84.8902 95.2553 85.0918 95.5503C85.1511 95.5818 85.2104 95.6133 85.2617 95.6448L85.3843 95.6723C87.9181 96.2389 88.8787 96.4671 89.2108 96.7307C90.2306 96.896 90.9303 97.0455 91.3928 97.2265C92.0846 97.3366 92.4443 97.5176 92.5273 97.8599C92.5273 97.8678 92.5312 97.8756 92.5312 97.8835C93.6776 97.6868 93.8515 97.734 93.9345 98.0212C94.0096 98.273 93.982 98.395 92.9661 98.8357C93.0293 99.0993 92.7566 99.2724 89.693 100.402L86.6611 101.519L88.3253 100.512L83.4671 102.121C83.5976 102.314 83.7122 102.558 83.8031 102.79C83.9415 103.14 83.7517 103.27 83.6608 103.305C83.1983 103.577 82.6014 103.703 81.9571 103.652C81.8029 103.655 80.7989 103.86 78.6524 104.411C77.8104 104.619 76.9961 104.844 76.2055 105.064C75.0315 105.391 73.814 105.729 72.4937 106.008C70.6911 106.484 69.3432 106.846 69.3432 106.846L65.0938 107.987L65.1017 107.991ZM75.1738 104.442C74.5453 104.706 73.9286 104.958 73.3475 105.19C74.2883 104.966 75.1738 104.718 76.0434 104.478C76.838 104.257 77.6563 104.029 78.5061 103.821C79.6802 103.522 81.7159 103.022 82.0045 103.046C82.4196 103.081 82.8188 103.018 83.1588 102.876C83.0955 102.754 83.0086 102.601 82.9374 102.483C82.7002 102.577 82.4828 102.597 82.2812 102.538C82.2733 102.538 82.2654 102.534 82.2575 102.53L80.2533 103.195L82.1112 102.467C81.8227 102.306 81.6329 101.991 81.4827 101.692L81.4669 101.653C81.2811 101.098 81.2614 100.516 81.3997 99.9885C81.3839 100.012 81.372 100.036 81.3562 100.059C80.0201 102.357 77.8816 103.876 75.1738 104.446V104.442ZM83.3801 102.766C83.3801 102.766 83.3525 102.778 83.3406 102.79C83.3525 102.782 83.3683 102.774 83.3801 102.766ZM83.0204 101.787C83.1351 101.787 83.2457 101.861 83.3485 101.975L90.5469 99.1465C90.7485 99.0127 90.9263 98.8947 91.0726 98.7885L90.958 98.8121L91.4758 98.1629C91.547 98.0763 91.547 98.037 91.547 98.037C91.5272 97.9701 91.4363 97.9071 91.29 97.8442C90.6496 97.7497 89.6377 97.6947 88.6455 97.6435L85.7282 97.4901C85.8626 97.6671 85.9614 97.8599 86.0207 98.0724C86.1274 98.4658 86.084 98.8829 85.8824 99.3314C86.25 99.2645 86.329 99.3157 86.416 99.4022L86.5425 99.5321L86.4911 99.7131C86.4516 99.8508 86.4002 100.02 84.8388 100.362L83.8308 100.583L84.5463 99.8468C84.5463 99.8468 84.5739 99.8193 84.5858 99.8036L84.2379 100.055L84.3486 99.5242C84.147 99.4613 83.8308 99.3944 83.3525 99.359L83.2576 99.3511L83.1825 99.2921C83.0362 99.178 82.5975 99.1622 82.3998 99.3511C81.9492 99.8665 81.8029 100.689 82.044 101.436C82.1468 101.637 82.297 101.901 82.4551 101.948C82.55 101.975 82.6884 101.936 82.8702 101.83L82.9256 101.806C82.9572 101.794 82.9888 101.79 83.0165 101.79L83.0204 101.787ZM85.1787 99.3314C85.1787 99.3314 85.1787 99.3353 85.1827 99.3393C85.1906 99.3275 85.1985 99.3157 85.2025 99.3039C85.1945 99.3157 85.1866 99.3235 85.1787 99.3354V99.3314ZM85.0246 98.4816C85.1866 98.5642 85.2855 98.6744 85.325 98.8199C85.3448 98.8947 85.3448 98.9694 85.3329 99.0363C85.4594 98.7373 85.4871 98.4698 85.4199 98.2298C85.3131 97.8402 84.9574 97.4822 84.2972 97.1045C84.6609 97.5215 84.9257 97.974 85.0246 98.4816ZM82.2931 98.1156C82.1784 98.395 82.0559 98.6744 81.9294 98.9537C81.9373 98.9419 81.9492 98.934 81.9571 98.9222C82.301 98.5917 82.8465 98.5248 83.2497 98.6429L83.2418 98.6232C83.2023 98.576 82.9414 98.4461 82.7556 98.3517C82.6133 98.2809 82.4551 98.2022 82.297 98.1117L82.2931 98.1156ZM83.9336 96.2231C84.5739 96.5182 85.2776 96.9078 85.6966 97.4428L87.6256 97.1242C87.0603 97.0455 86.4674 96.9668 85.8705 96.8881L85.0325 96.7779L85.3645 96.4474C85.2894 96.3884 85.1748 96.3136 85.0364 96.235L84.5897 96.1366V95.991C84.4237 95.9045 84.2537 95.8179 84.0917 95.7353C83.641 95.5031 83.1469 95.2513 82.6488 94.9641C83.2181 95.3694 83.7003 95.7746 83.9336 96.2271V96.2231ZM69.6159 88.1535C70.5488 88.48 71.5213 88.7791 72.5411 89.0938C73.7626 89.4676 75.0236 89.8571 76.2411 90.3056C77.1147 90.6283 77.8737 90.947 78.5615 91.2814L78.6445 91.3207L78.6919 91.3994C79.2532 92.3398 80.0083 93.0519 80.7158 93.6028C79.4786 92.5444 78.4903 91.2735 77.763 89.7981C77.3361 89.3259 76.9408 89.0191 76.4862 88.8066C75.9644 88.6374 75.4189 88.4682 74.8694 88.303C74.6441 88.2636 74.4188 88.2243 74.1935 88.1849C73.3594 88.0354 72.3791 87.8426 71.3987 87.5672L71.3078 87.5397L71.2485 87.4689C70.118 86.139 69.8096 84.6439 69.4815 83.0583C69.442 82.8694 69.4025 82.6766 69.3629 82.4878V82.7278C69.3629 83.4635 69.4657 84.1639 69.5645 84.8406C69.7108 85.84 69.865 86.8747 69.6792 88.0118L69.6634 88.1102L69.6159 88.1574V88.1535ZM69.0151 85.3993C68.9835 85.655 68.94 85.9108 68.9004 86.1665C68.7898 86.8669 68.683 87.5318 68.7384 88.1495L69.0823 87.8112C69.2048 86.9731 69.1297 86.1941 69.019 85.3993H69.0151Z" fill="currentColor"/>
<path d="M79.3998 98.572H79.38C77.4747 98.4461 76.7987 96.9982 76.7987 95.684C76.7987 94.8932 77.028 94.1929 77.4826 93.6066C77.8581 93.1187 78.2811 92.8787 78.7871 92.8984C78.3839 92.4577 77.9886 92.1312 77.6012 91.9187C77.024 91.7181 76.5101 91.6748 76.1781 91.6748L76.0951 91.663C75.2729 91.4387 74.4348 91.2499 73.6245 91.0649C72.7667 90.8682 71.8812 90.6675 71.0195 90.4275C69.9799 90.1403 69.2209 89.861 68.5568 89.5265L68.4382 89.4675L68.3987 89.3377C68.0469 88.1455 67.8215 86.8904 67.6041 85.6786C67.0784 82.7552 66.5329 79.7335 64.1809 77.3886L63.916 77.125L64.2283 76.9164C64.2283 76.9164 64.9201 76.4325 64.7422 76.0784L65.0189 75.9407V75.677L65.1691 75.8659L65.2956 75.803C65.5842 76.3774 65.8688 76.6567 66.1692 76.9558L66.6989 77.483H66.3629C68.0824 80.2214 69.047 84.0694 69.047 88.2832C69.047 88.6059 69.6439 88.8891 70.2091 88.9993L70.2724 89.019C71.1381 89.3888 72.0631 89.6997 73.0197 89.9397C73.9526 90.1757 74.9211 90.3449 75.9014 90.4472H75.9133C76.8027 90.4472 77.8304 90.6439 79.1389 92.0289C79.5776 92.4656 79.9808 92.9378 80.3722 93.3981C80.5619 93.6184 80.7477 93.8388 80.9375 94.0552C81.6016 94.8067 82.1906 95.3575 82.7282 95.7391L82.9811 95.9201L84.8628 96.0067C84.843 95.9909 84.8193 95.9713 84.7956 95.9555C84.5307 95.869 84.254 95.7785 83.9654 95.6801L83.8982 95.6565L83.8468 95.6054C83.582 95.3457 83.1353 94.9876 82.6214 94.5745C82.0048 94.0827 81.309 93.524 80.6331 92.9063C79.4946 91.8715 78.372 90.6361 77.2059 89.1331C76.5853 88.9009 75.9053 88.6767 75.0752 88.4367C74.3281 88.2203 73.5771 87.996 72.8181 87.7678C72.1342 87.5593 71.2804 87.2996 70.5847 86.8707L70.4424 86.7842V86.6189C70.4186 86.0524 70.3633 85.4858 70.2724 84.9192C69.2762 81.0791 67.5448 77.9158 65.1296 75.5197C64.928 75.3229 64.7224 75.1262 64.5129 74.9374L64.928 74.481C65.1493 74.6777 65.3628 74.8823 65.5763 75.0908C68.4501 77.9158 70.3198 81.3506 70.8851 84.8091C70.9128 84.9232 70.9444 85.0373 70.9721 85.1514C71.1104 86.0366 71.4662 86.5835 72.0631 86.8589C72.7034 87.0714 73.4387 87.2917 74.419 87.5671C74.842 87.6852 75.265 87.7993 75.6879 87.9134C76.2413 88.0629 76.7987 88.2163 77.3482 88.3698L77.443 88.3973L77.5063 88.476C78.4906 89.7115 79.4116 90.7502 80.3168 91.6472C81.143 92.4656 82.1194 93.3391 83.3092 94.3109L83.6571 94.5155C83.6887 94.5352 83.7243 94.5548 83.7559 94.5745C83.5939 94.4289 83.4278 94.2834 83.2658 94.1338C83.0563 93.9489 82.8428 93.7561 82.6293 93.5633C81.3367 92.265 80.2299 90.8564 79.3286 89.377C78.4115 87.8701 77.6802 86.2373 77.1584 84.5218C76.8106 84.2031 76.4627 83.8923 76.1228 83.5933C75.7196 83.2746 75.3638 82.9638 75.0515 82.6529L67.616 75.2482L75.4745 82.2044C75.684 82.3893 75.8974 82.5743 76.1109 82.7631C76.2453 82.8811 76.3837 82.9992 76.522 83.1211C76.6683 83.2352 76.8185 83.3493 76.9766 83.4674L77.0517 83.5303C77.5814 83.9907 78.1822 84.51 78.7159 86.2058C79.1823 87.8819 79.9848 89.4085 81.0995 90.758C81.8625 91.6787 82.7558 92.501 83.4713 93.1581C83.752 93.4178 84.0089 93.6499 84.2224 93.8584L84.5663 94.0276C86.5349 94.9955 87.3334 95.4086 87.2701 95.9595C87.2701 95.9673 87.2701 95.9791 87.2701 95.987C89.4087 96.1719 89.4087 96.1995 89.3889 96.5024C89.3691 96.8054 89.3691 96.8329 87.4322 96.7464C87.2938 96.7975 87.0685 96.7621 86.7523 96.711L85.681 96.5418C85.6336 96.6205 85.5624 96.6992 85.4478 96.7739L84.4635 97.4034L84.6256 97.0965L82.4673 96.286C82.2024 96.1877 81.9336 96.0578 81.6688 95.9123L81.2181 95.8414L81.5699 95.8572C80.9968 95.5345 80.4592 95.145 80.0876 94.8381C79.3998 94.4643 79.0519 94.4486 78.961 94.5509C78.4827 95.0978 78.4748 95.7313 78.9294 96.4277C79.3602 96.8408 79.7555 96.6755 80.4117 96.349L80.8624 96.1247V96.6244C80.8624 96.6952 80.9098 96.8014 80.9572 96.9116C81.0481 97.1201 81.1588 97.3759 81.1232 97.6946L81.1114 97.8126L81.0244 97.8913C80.5422 98.3202 80.0164 98.5562 79.4551 98.5838H79.4353L79.3998 98.572ZM78.7396 93.5122C78.3838 93.5122 78.1664 93.7365 77.9767 93.9804C77.6012 94.4643 77.4193 95.0191 77.4193 95.684C77.4193 96.349 77.613 97.8244 79.4037 97.9543C79.7792 97.9307 80.1311 97.7811 80.475 97.5057C80.4631 97.3877 80.4117 97.2736 80.3564 97.1438C80.3445 97.1123 80.3287 97.0847 80.3168 97.0533C79.7437 97.309 79.0875 97.4703 78.4431 96.829L78.4036 96.7818C77.7751 95.8414 77.7988 94.9011 78.4669 94.1338C78.9491 93.5791 79.882 94.0237 80.2931 94.2479C80.2852 94.2401 80.2773 94.2283 80.2694 94.2204L79.5342 93.7876C79.2061 93.5948 78.9491 93.5161 78.7396 93.5161V93.5122ZM83.3448 96.168L84.6098 97.0651L84.9497 96.4198L84.4714 96.3608L84.5109 96.3529L83.3488 96.168H83.3448ZM85.428 95.5031C85.7245 95.5975 85.9972 95.6841 86.2384 95.7588C86.353 95.7942 86.4597 95.8296 86.5586 95.8611C86.5665 95.8611 86.5744 95.8572 86.5783 95.8532C86.3728 95.6408 85.7008 95.2827 84.9932 94.9286C85.1671 95.1253 85.3134 95.3142 85.4241 95.5031H85.428ZM64.8608 77.2036C67.1495 79.6391 67.6911 82.6529 68.2129 85.5724C68.2603 85.8438 68.3117 86.1192 68.3631 86.3947C68.1101 82.8654 67.1416 79.7139 65.6079 77.4554C65.3944 77.4122 65.177 77.2941 65.0742 76.9754C65.007 77.0581 64.9319 77.1368 64.8568 77.2036H64.8608Z" fill="currentColor"/>
<path d="M78.8268 96.7111L75.1861 95.9871C72.3795 95.4284 69.7547 94.2048 67.383 92.3438C66.6517 91.7693 65.9362 91.1319 65.2602 90.4434L65.1219 90.3057L65.1891 90.1247C66.1892 87.402 66.4975 83.2432 65.2563 81.2681C64.8728 80.6583 64.3669 80.3199 63.7463 80.2569C56.4412 79.5959 47.966 77.8097 47.3019 69.7951C47.0845 67.6468 47.0252 66.4861 47.0213 66.4743L46.543 56.9961L47.6419 66.4232C47.6419 66.4232 47.7605 67.4265 47.9937 69.0003C48.6657 75.5237 54.184 76.4916 59.5205 77.428C61.1729 77.7192 62.7343 77.9946 64.1771 78.4235C68.1261 79.6314 67.3751 85.2734 66.8296 89.3889C66.79 89.688 66.7505 89.9752 66.7149 90.2545C67.2881 90.7739 67.9048 91.2775 68.5531 91.7575C70.5414 93.2172 72.8301 94.4448 75.3561 95.4009L78.8268 96.715V96.7111ZM65.8374 90.1483C65.9164 90.227 65.9955 90.3018 66.0745 90.3804V90.3332C66.122 90.0067 66.1655 89.6644 66.2129 89.3063C66.2564 88.9876 66.2999 88.6571 66.3433 88.3188C66.2089 88.9601 66.039 89.5817 65.8374 90.1522V90.1483ZM49.2824 73.8948C51.9348 77.9552 57.9473 79.1081 63.8055 79.6392C64.6278 79.7218 65.2879 80.1586 65.782 80.9376C66.2643 81.7009 66.537 82.7317 66.6438 83.8728C66.5687 81.5711 65.948 79.6038 63.9992 79.0097C62.5959 78.5887 61.0503 78.3212 59.4178 78.0339C55.698 77.3808 51.6344 76.6687 49.2863 73.8988L49.2824 73.8948ZM78.7359 90.6244C77.6765 89.0584 76.9254 88.905 76.1348 88.7476L76.0479 88.7279C75.0636 88.606 74.0753 88.4014 73.1266 88.1299C72.2253 87.8033 71.245 87.3784 70.7865 86.3515L70.7667 86.2964C69.9682 82.8419 68.6835 78.7618 65.7346 76.0667C65.2602 75.6536 64.7622 75.2876 64.2325 74.965C63.8134 74.7565 63.4102 74.6503 63.015 74.6345C61.9358 74.8824 61.161 75.1854 60.738 75.3781C60.6392 75.4411 60.5404 75.504 60.4416 75.5749C60.2242 76.2477 59.734 76.2477 59.4336 76.2477H58.5481L59.2399 75.6968C59.4652 75.5198 59.6945 75.3388 59.9316 75.1696C60.0107 75.0752 60.1728 74.9689 60.3902 74.8588C61.1689 74.363 62.003 73.9932 62.9438 74.0207C63.1454 73.9735 63.347 73.9302 63.5446 73.8948L63.6514 73.8752L63.7463 73.9263C64.7068 74.4299 65.5488 75.0437 66.284 75.7362C68.7744 77.971 70.4979 81.3625 71.5415 86.0407C71.9368 86.7371 72.7234 87.0676 73.5022 87.343C74.3599 87.5869 75.2928 87.7955 76.2613 87.9647C77.1112 88.1771 78.0481 88.4132 79.2537 90.2899L78.7359 90.6283V90.6244Z" fill="currentColor"/>
<path d="M102.578 66.0585H102.57C102.294 66.0585 102.064 65.9681 101.891 65.791C101.717 65.6139 101.63 65.3857 101.63 65.1103C101.63 64.8743 101.697 64.6736 101.827 64.5044C101.859 63.8946 101.634 60.0348 101.479 57.6466L101.072 51.3828L102.096 57.5757C102.499 60.0191 103.175 63.9654 103.322 64.4808C103.472 64.6539 103.547 64.8703 103.547 65.1221C103.547 65.3897 103.448 65.6218 103.262 65.7989C103.08 65.972 102.851 66.0585 102.578 66.0585ZM102.416 63.1077C102.48 64.7169 102.416 64.7838 102.341 64.8585C102.302 64.8979 102.25 64.9687 102.25 65.1143C102.25 65.2598 102.298 65.3228 102.329 65.3582C102.365 65.3936 102.428 65.4408 102.574 65.4408C102.709 65.4487 102.792 65.3897 102.831 65.3503C102.895 65.2913 102.922 65.2166 102.922 65.1182C102.922 64.9766 102.875 64.9057 102.831 64.8625C102.78 64.8113 102.721 64.7484 102.416 63.1077Z" fill="currentColor"/>
<path d="M91.1313 89.8308L86.9214 88.9416C86.8819 88.9337 86.8384 88.918 86.7949 88.8944C86.1901 88.6111 85.4193 87.5921 84.9054 86.4078C84.4231 85.4478 84.0832 84.3894 83.9369 83.3821C83.6365 78.3302 87.2258 73.3295 92.3607 71.4999C92.0445 71.2009 91.7519 70.7445 92.0128 69.9733C92.2421 69.2848 92.8627 69.0212 93.4122 68.789C93.5031 68.7497 93.5901 68.7143 93.6731 68.6749C92.0603 68.3917 90.4554 68.4664 88.7714 68.549C86.9491 68.6356 85.0635 68.7261 83.1622 68.3208C82.7313 68.2854 82.2965 68.2421 81.8577 68.2028C81.154 68.1359 80.4307 68.0651 79.6796 68.0218C77.4027 67.9077 75.8373 67.8172 74.7582 67.7385C74.4617 67.7188 74.2087 67.6952 73.9873 67.6756C73.9359 67.7739 73.845 67.8408 73.7343 67.8605C73.5327 67.8998 73.3825 67.7582 73.2402 67.6244C73.2284 67.6126 73.2086 67.5969 73.1928 67.5772C72.6473 67.4867 72.6315 67.3883 72.6117 67.227L72.5801 66.9752L72.7935 66.8965C73.0307 66.7549 73.2639 66.8533 73.4458 66.9831C73.4695 66.9831 73.4972 66.991 73.5248 66.9949C73.5367 66.8887 73.5406 66.7628 73.5367 66.6093V66.2946L78.3593 66.3103V66.6172C78.3593 66.688 78.3593 66.806 78.3316 66.9241C78.5095 66.9438 78.7467 66.9634 79.0669 66.991C79.3792 67.0185 79.7389 67.05 80.1263 67.0775C80.7943 67.1326 81.5533 67.1916 82.3123 67.2703C84.2136 67.412 86.1348 67.4395 87.9887 67.4631C90.4198 67.4946 92.9299 67.5261 95.3689 67.833C96.7761 67.9352 96.871 67.9746 96.9422 68.2146L97.0015 68.4192L96.8196 68.5569C96.4283 68.8402 96.0488 69.1038 95.7049 69.2533C95.2147 69.4264 94.5941 69.7333 93.9972 70.0323C93.8312 70.115 93.8035 70.1661 93.8035 70.1661C93.8193 70.2094 93.9774 70.3707 94.0723 70.4651C94.7285 70.9845 95.5033 70.8271 96.3216 70.6579C97.1793 70.4809 98.0648 70.2999 98.8594 70.9255L99.1954 71.1891L98.8396 71.4252C98.3692 71.736 97.7644 71.9485 96.9896 72.0783H96.9461C91.744 72.216 85.8027 75.9026 84.8619 81.8398C84.7117 83.2051 84.8817 84.6333 85.3481 85.8452C85.3877 85.9435 85.4272 86.0419 85.4667 86.1402C85.5221 86.2504 85.5774 86.3566 85.6367 86.4629C86.1822 87.4386 86.8305 88.1901 87.044 88.3239C87.0598 88.3318 87.0756 88.3396 87.0914 88.3436L91.1313 89.8229V89.8308ZM95.0289 68.4153L94.6929 68.7497C94.4044 69.0369 94.0209 69.2022 93.6533 69.3595C93.1631 69.5681 92.7402 69.7491 92.5979 70.174C92.3963 70.776 92.6769 70.9924 93.0327 71.2599C93.088 71.3032 93.1394 71.3425 93.1908 71.3819L93.6375 71.7478L93.088 71.917C90.6491 72.6645 88.5421 74.1557 87.0321 76.0403C89.5778 73.2154 93.4043 71.5747 96.9105 71.4763C97.3335 71.4055 97.6972 71.3071 98.0055 71.1773C97.543 71.0474 97.0252 71.1537 96.448 71.2717C95.5665 71.4527 94.5704 71.6573 93.6612 70.9333C93.4003 70.6776 93.1355 70.414 93.1948 70.0678C93.2303 69.8356 93.4043 69.6468 93.7166 69.4933C94.3372 69.1825 94.9736 68.8677 95.4796 68.6907C95.5824 68.6435 95.7009 68.5805 95.8353 68.4939C95.693 68.4821 95.5191 68.4664 95.3056 68.4507C95.2147 68.4389 95.1199 68.4271 95.0289 68.4153ZM74.1375 67.0657C74.3312 67.0854 74.5487 67.1011 74.7977 67.1208C75.4657 67.168 76.3156 67.2231 77.4066 67.2821C77.4066 67.2782 77.4027 67.2743 77.3987 67.2664L77.3157 67.1247L77.3869 66.9674C77.3869 66.9674 77.4027 66.9398 77.4066 66.9241L74.1494 66.9123C74.1494 66.9634 74.1415 67.0146 74.1375 67.0618V67.0657ZM74.3826 65.8972H74.3747C74.098 65.8972 73.8687 65.8067 73.6948 65.6296L73.5486 65.484L73.6276 65.2952C73.6882 65.1483 74.6738 65.0631 76.5844 65.0394C78.2091 65.0198 80.4109 65.004 82.7471 64.9844C87.6448 64.945 94.2265 64.8899 95.4756 64.8073C95.5151 64.6499 95.5942 64.5083 95.7128 64.3903C95.8907 64.2093 96.116 64.1148 96.3927 64.1188C96.6655 64.1188 96.9066 64.2171 97.0845 64.3981C97.2663 64.5791 97.3572 64.8152 97.3572 65.0906C97.3572 65.3372 95.8604 65.4801 92.8667 65.5195C90.3921 65.5509 87.1586 65.5785 84.1148 65.6021C79.9405 65.6336 75.6278 65.669 74.9835 65.7122C74.8175 65.8382 74.6159 65.9011 74.3826 65.9011V65.8972ZM96.3888 64.7365C96.2899 64.7365 96.2148 64.764 96.1555 64.823C96.1516 64.827 96.1476 64.8349 96.1397 64.8388C96.3374 64.8309 96.5034 64.827 96.6338 64.8191C96.5943 64.7798 96.5232 64.7365 96.3888 64.7326V64.7365Z" fill="currentColor"/>
<path d="M86.3043 73.2155C85.8378 73.2155 85.3002 73.0463 84.905 72.3893L84.8773 72.3263C84.3753 70.8273 85.32 70.0049 86.1541 69.2771C86.3359 69.1157 86.5217 68.9544 86.6956 68.7852C85.49 68.7105 84.225 68.7538 82.9957 68.797C81.2287 68.8561 79.3985 68.919 77.6552 68.6515L75.6194 68.6397C74.9395 68.6397 74.2754 68.6318 73.6311 68.6279H73.5481L73.4769 68.5846C70.1327 66.6331 66.4644 65.7635 62.8751 66.0586L59.0645 66.3734L62.7763 65.4488C63.132 65.3622 63.3732 65.1419 63.6262 64.9058C63.7448 64.7996 63.8634 64.6894 63.9978 64.5871L63.8199 64.5124H64.1084C64.5788 64.2015 65.2232 64.0441 66.3814 64.536L67.7689 65.1261H67.2985C67.6977 65.2245 68.1049 65.3111 68.5239 65.4016C69.7809 65.673 71.0854 65.9563 72.295 66.5701C73.4097 67.0304 74.3308 67.1564 75.3704 67.1996C76.6828 67.2547 78.0861 67.3137 79.4854 67.3688L79.5447 67.3767C81.2326 67.7819 82.8573 67.6954 84.4306 67.6088C86.0908 67.5223 87.8064 67.4278 89.5932 67.9118L90.8581 68.2541L89.5694 68.5098C88.5456 68.7144 87.1858 69.5171 86.8656 70.3472C86.7589 70.6266 86.7905 70.8784 86.9644 71.1105C87.1305 71.386 87.253 71.4096 87.2965 71.4174C87.5613 71.4725 88.0001 71.1656 88.4191 70.8666C89.0951 70.3866 89.9371 69.7846 90.7988 70.2253L91.1309 70.3945L90.8976 70.6895C90.4984 71.1932 89.9885 71.6535 89.3323 72.0942L89.2532 72.1335C88.9805 72.2201 88.6524 72.3814 88.3005 72.5506C87.9211 72.7355 87.5258 72.9283 87.1542 73.0463C86.9842 73.1014 86.664 73.2076 86.2964 73.2076L86.3043 73.2155ZM85.4544 72.102C85.7746 72.6096 86.2173 72.7158 86.9684 72.4719C87.3004 72.3656 87.672 72.1807 88.0357 72.0076C88.3875 71.8345 88.7235 71.6732 89.0279 71.5709C89.439 71.2915 89.7829 71.0082 90.0754 70.7092C89.6643 70.7564 89.2176 71.0712 88.7828 71.382C88.2294 71.7755 87.7116 72.1492 87.1739 72.0351C86.8893 71.9761 86.6482 71.7833 86.4545 71.4646C86.1699 71.0869 86.1067 70.6187 86.2885 70.1387C86.3241 70.0482 86.3675 69.9577 86.4189 69.8672C85.6046 70.5872 85.1421 71.1223 85.4544 72.0981V72.102ZM86.6245 68.1636C86.8735 68.1793 87.1226 68.1951 87.3716 68.2226L87.9171 68.2777L87.5969 68.7026C87.8341 68.5492 88.0831 68.4075 88.3401 68.2895C87.7669 68.2029 87.1977 68.1675 86.6245 68.1636ZM73.7181 68.0101C74.3347 68.0141 74.9751 68.018 75.6234 68.0219L77.7303 68.0377C78.7502 68.199 79.8175 68.2383 80.8769 68.2344C80.4025 68.1872 79.9203 68.1085 79.4301 67.9944C78.0387 67.9393 76.6472 67.8842 75.3427 67.8252C74.2399 67.778 73.2516 67.6442 72.0341 67.1367C71.7218 66.9793 71.4016 66.8416 71.0775 66.7236C71.9748 67.0816 72.8563 67.5105 73.7181 68.0062V68.0101ZM64.2547 65.3858C64.9425 65.3858 65.6303 65.4252 66.3142 65.5078C65.9386 65.3937 65.5671 65.2639 65.2074 65.1104L64.7172 64.9019C64.4602 64.9884 64.2666 65.1655 64.0452 65.3701L64.0215 65.3898C64.1005 65.3898 64.1756 65.3898 64.2547 65.3898V65.3858ZM72.1211 65.6101L72.0697 65.5904C71.8562 65.5157 71.6388 65.4409 71.4214 65.374C71.117 65.3189 70.8087 65.252 70.4727 65.1655C70.2632 65.0907 70.0537 65.0199 69.8521 64.9609C68.7453 64.713 67.6147 64.536 66.5395 64.3825C66.1323 64.3314 65.7133 64.2763 65.2785 64.2055L65.3734 63.5956L65.8873 63.6664C66.1284 63.7018 66.3735 63.7333 66.6225 63.7687C66.7411 63.7845 66.8636 63.8002 66.9822 63.812C67.9981 63.9379 68.9706 64.056 70.0141 64.3628C70.5399 64.4809 71.0617 64.6147 71.5716 64.772C71.7653 64.8074 71.959 64.8389 72.1567 64.8704C72.3543 64.9019 72.552 64.9373 72.7615 64.9727C73.9315 64.9609 75.2321 64.953 76.5761 64.9412C80.9797 64.9058 86.747 64.8586 88.763 64.7878C87.2016 63.6428 82.7624 60.5896 79.6712 58.4847L70.1169 51.9849L80.0072 57.9653C83.8495 60.2867 89.6564 63.7766 90.2691 64.0756C90.5182 64.0914 90.7316 64.1819 90.8976 64.351C91.0755 64.532 91.1704 64.772 91.1664 65.0435C91.1664 65.2901 89.6722 65.433 86.6838 65.4724C84.2132 65.5039 80.9836 65.5314 77.9438 65.555L75.742 65.5707C74.4415 65.5825 73.2279 65.5904 72.1843 65.6022H72.129L72.1211 65.6101ZM88.0317 63.5091C89.0951 64.2684 89.5418 64.6225 89.7276 64.8074C90.0201 64.7996 90.2612 64.7917 90.4391 64.7838C90.3956 64.7445 90.3284 64.7012 90.194 64.6973C90.1308 64.6973 90.0517 64.6973 88.0317 63.5091Z" fill="currentColor"/>
<path d="M81.9476 74.2698C80.323 74.2698 78.9553 73.5223 77.6231 72.7944C77.3187 72.6291 77.0144 72.4639 76.706 72.3065C75.9036 71.8934 75.2592 71.6337 74.6149 71.4567L74.524 71.4331L74.4607 71.3622C69.2705 65.5037 60.4119 66.7156 54.3441 70.9412C53.3361 71.6573 52.1344 71.858 50.9683 71.5039C49.6243 71.0986 48.4977 69.997 47.9562 68.5609C47.4106 67.3097 47.0588 66.5897 47.0549 66.5857L46.0469 64.5319L47.5688 66.2474C47.5688 66.2474 47.9364 66.6644 48.391 67.3215C49.0867 68.5451 50.1975 69.1235 51.3043 68.8481L52.4902 68.5018C59.7755 66.3654 67.3059 64.1542 73.7611 69.3123C74.6861 70.0284 75.3067 70.1701 75.9629 70.3196L76.0261 70.3353L76.0775 70.3747C78.4493 72.157 80.8922 73.1997 83.3391 73.4711L84.9559 73.6482L83.3865 74.0731C82.8805 74.2108 82.4022 74.2698 81.9397 74.2698H81.9476ZM74.8679 70.8862C75.528 71.075 76.1842 71.3465 76.9906 71.7596C76.9985 71.7596 77.0065 71.7675 77.0144 71.7714C76.5953 71.5039 76.1763 71.2167 75.7652 70.9098C75.3778 70.8193 74.9786 70.7248 74.5161 70.5084C74.6386 70.6304 74.7572 70.7602 74.8719 70.8901L74.8679 70.8862ZM48.6835 68.6907C49.2013 69.7845 50.0987 70.5989 51.1501 70.9176C52.1305 71.2127 53.1385 71.0435 53.9884 70.4416C56.9887 68.3484 60.657 66.9752 64.2621 66.7746C60.4752 66.8021 56.5341 67.9589 52.6641 69.096L51.4664 69.4461C50.4623 69.6979 49.4701 69.4107 48.6874 68.6946L48.6835 68.6907ZM72.5119 65.5313H72.4922C71.6976 65.425 70.828 65.2952 69.7528 64.9883C69.6698 64.9647 69.5867 64.945 69.5037 64.9214C66.8869 64.5044 64.353 64.1621 61.8864 64.4178C61.4199 64.4926 60.9495 64.5909 60.4831 64.7168C59.819 64.8821 59.4079 65.008 59.2656 65.0552C58.8979 65.4408 58.2259 65.4408 57.8939 65.4408H56.4115L57.7674 64.8506C59.0363 64.2998 60.3329 63.985 61.6373 63.8316C64.5981 63.3319 67.5194 63.7765 69.6302 64.3155C69.903 64.3588 70.1797 64.4021 70.4524 64.4493C71.4249 64.6067 72.4289 64.768 73.4132 64.8978L75.4332 64.8821C77.5599 64.8624 82.9517 64.8152 84.0783 64.7404C84.1218 64.5831 84.1969 64.4414 84.3155 64.3234C84.4934 64.1424 84.7305 64.0519 84.9954 64.0519C85.2681 64.0519 85.5093 64.1503 85.6872 64.3313C85.869 64.5122 85.9599 64.7444 85.9599 65.0237C85.9599 65.2703 84.4657 65.4132 81.4772 65.4526C79.0066 65.4841 75.7771 65.5116 72.7333 65.5352H72.5159L72.5119 65.5313ZM84.9875 64.6657C84.8887 64.6657 84.8175 64.6932 84.7543 64.7522C84.7503 64.7562 84.7463 64.7641 84.7384 64.768C84.9361 64.7601 85.1021 64.7562 85.2326 64.7483C85.193 64.709 85.1219 64.6618 84.9875 64.6618V64.6657Z" fill="currentColor"/>
<path d="M89.5075 26.7775L89.0489 26.5296C87.2108 25.5303 85.7561 24.4758 84.9339 23.5512C83.752 23.2365 82.8309 22.961 82.2854 22.5597C81.7043 22.4889 81.3644 22.3236 81.2418 22.0128C81.06 21.5407 81.4513 20.982 82.5819 20.0731L87.1515 16.4219L82.993 20.5334C82.6491 20.8718 82.2578 21.3479 82.3487 21.6902C82.3763 21.7886 82.4396 21.879 82.5305 21.9656C82.9298 21.9892 83.5306 21.9892 84.4279 21.942L84.8786 21.9184L84.7402 22.3473C84.6691 22.5637 84.8983 22.784 85.2541 23.0004L85.2818 23.0161C85.5664 23.1853 85.9221 23.3545 86.2779 23.5197C86.4281 23.5906 86.5823 23.6614 86.7365 23.7361C87.4203 24.1217 87.9223 24.4562 88.1674 24.6175C88.2307 24.6607 88.2742 24.6883 88.2939 24.7001C89.0371 25.0699 89.4996 25.4595 89.4996 26.2582V26.7775H89.5075ZM83.8231 22.5873C83.9259 22.6227 84.0326 22.6541 84.1394 22.6856C84.1275 22.6502 84.1196 22.6109 84.1156 22.5755C84.0168 22.5794 83.918 22.5833 83.8231 22.5873Z" fill="currentColor"/>
<path d="M91.5157 56.2548L90.5156 51.9898C90.4998 51.9268 89.0412 45.7064 88.1439 42.661C87.883 41.7797 87.7407 41.3981 87.6656 41.2328L87.6142 41.2446L87.5074 41.0204C86.7682 39.4426 87.0647 38.0616 87.3454 36.7239C87.4244 36.358 87.5035 35.9842 87.5588 35.6025C84.6811 39.301 81.3606 43.2355 76.3166 44.5378L74.7117 45.7536C71.2964 48.3386 69.4978 49.6724 68.5253 50.3412C68.549 50.4514 68.5253 50.5616 68.4542 50.6442C68.3198 50.8055 68.1182 50.7937 67.9245 50.7819C67.9047 50.7819 67.881 50.7819 67.8533 50.7819C67.4185 51.0376 67.3394 50.9865 67.2367 50.9196L67.0548 50.8016L67.0983 50.5734C67.1813 50.2586 67.4541 50.1799 67.6952 50.1642C67.711 50.1524 67.7268 50.1445 67.7426 50.1327C67.6834 50.0422 67.6003 49.9399 67.4976 49.8179L67.292 49.5819L70.9999 46.5051L71.1975 46.7372C71.245 46.7923 71.3201 46.8828 71.3715 46.9929C71.5217 46.8946 71.7154 46.7569 71.9763 46.5759C72.6206 46.1195 73.5535 45.4309 74.8343 44.467L74.9133 44.4237C75.2888 44.286 75.6604 44.1404 76.032 43.987L76.0636 43.9752C81.1116 41.8387 85.3254 37.9278 88.302 32.5966L88.6657 31.9474L88.8712 32.6635C89.1558 33.6549 88.9621 34.615 88.7763 35.5435C88.5629 36.594 88.3771 37.5186 88.8752 38.3724C89.3693 37.6131 89.7527 36.8537 89.5116 35.9094L89.4167 35.5278H89.812C90.0769 35.5278 90.2271 35.6615 90.3259 35.752C90.401 35.8189 90.4287 35.8425 90.5117 35.8425H90.8516L90.8161 36.1848C90.7133 37.1803 90.4801 38.1521 90.148 39.0019C90.1362 39.1318 90.1362 39.7377 90.3417 42.5233C90.6224 46.332 91.1165 51.8521 91.1204 51.9072L91.5078 56.2705L91.5157 56.2548ZM68.1696 49.6566C68.2012 49.6999 68.2328 49.7392 68.2605 49.7825C68.9364 49.3104 69.897 48.6022 70.9011 47.8546C70.8971 47.8546 70.8892 47.8546 70.8852 47.8507L70.7311 47.7956L70.6836 47.6303C70.6836 47.6303 70.6757 47.5989 70.6718 47.5831L68.1696 49.6605V49.6566ZM88.0253 40.6584C88.2111 40.8315 88.3929 41.3194 88.7368 42.4879C89.1558 43.9083 89.6934 46.0093 90.1559 47.8625C90.0136 46.1588 89.8515 44.1955 89.729 42.5509C89.476 39.1239 89.5274 38.9311 89.5551 38.8249L89.5669 38.7895C89.6855 38.4944 89.7883 38.1836 89.8753 37.8609C89.6737 38.2859 89.4088 38.6833 89.144 39.0767L88.9147 39.419L88.6498 39.1003C88.049 38.3842 87.9106 37.6288 87.9502 36.8694C87.6853 38.1246 87.4363 39.3128 88.0253 40.6544V40.6584ZM88.2664 33.8831V34.5874C88.2664 34.7212 88.2625 34.855 88.2546 34.9887C88.3376 34.552 88.4048 34.1074 88.3969 33.6668C88.3534 33.7376 88.3099 33.8123 88.2664 33.8831ZM67.0706 48.9641C67.043 48.9641 67.0153 48.9641 66.9876 48.9641L66.7821 48.9445L66.7188 48.7477C66.6688 48.593 67.5437 47.7484 69.3436 46.2139C69.6994 45.907 70.1223 45.5529 70.5888 45.1634C70.8576 44.9352 71.1461 44.6913 71.4584 44.4237L71.5098 44.3883C71.5414 44.3726 71.5731 44.3529 71.6047 44.3372C71.7628 44.2112 71.9249 44.0814 72.0909 43.9516L72.1858 43.9004C72.3597 43.8414 72.5336 43.7824 72.7036 43.7234C72.9724 43.5817 73.261 43.4401 73.5812 43.2984L73.6167 43.2866C74.0199 43.1686 74.4192 43.0388 74.8145 42.8932C79.6371 40.7725 83.1829 37.5777 84.5269 34.0445C85.1001 32.5375 85.361 30.8064 85.3254 28.7604C85.2226 28.6542 85.1119 28.485 85.191 28.2883C85.3096 27.9971 85.6851 28.0286 85.8274 28.0404L86.1002 28.064L86.112 28.3355C86.1911 30.3067 85.9579 32.1126 85.4163 33.7022C83.9814 37.9278 79.981 41.6577 75.0398 43.4676C74.3678 43.7627 73.6681 44.0381 72.9487 44.2899C72.6997 44.4198 72.4664 44.5536 72.2372 44.6834C72.1383 44.7385 72.0435 44.7936 71.9446 44.8486C71.6086 45.1162 71.2924 45.3798 70.992 45.6237C69.8614 46.5877 68.3237 47.9018 68.0154 48.1969C67.968 48.4015 67.8533 48.5825 67.6715 48.732C67.4817 48.8894 67.2762 48.9681 67.0627 48.9681L67.0706 48.9641Z" fill="currentColor"/>
<path d="M63.3901 55.4995C63.3308 55.4995 63.2913 55.4759 63.2478 55.4484L63.058 55.3303L63.1055 55.0943C63.2004 54.7244 63.1885 54.5198 63.1608 54.4097C63.1332 54.2995 63.0343 54.091 62.7379 53.7487L62.5323 53.5126L63.8249 52.4227L64.0265 52.6588C64.07 52.71 64.1491 52.8004 64.1965 52.9067C65.5919 51.9545 69.6911 48.803 73.0748 46.1983L74.2133 45.3209C74.739 44.9629 75.2213 44.6206 75.6957 44.2862L76.0396 44.0501C79.5854 42.4409 82.4789 40.5326 84.6412 38.3805L86.424 36.606L85.1274 38.7542C84.7796 39.3326 84.4673 39.9228 84.1708 40.4894C83.6806 41.4179 83.1747 42.3819 82.4987 43.2986C82.4631 43.3773 82.4513 43.4284 82.4473 43.4599C82.4631 43.4599 82.4868 43.4678 82.5185 43.4678C82.807 43.4757 83.0798 43.3734 83.3525 43.1452C83.5107 43.0153 83.8506 42.7045 84.3329 42.1143C84.5187 41.9176 84.6373 41.6658 84.7677 41.3943C85.0365 40.8238 85.3765 40.1116 86.341 40.0093L86.8549 39.9543L86.6612 40.4303C86.3687 41.1582 85.9892 41.8428 85.6571 42.4448C85.5583 42.6219 85.4674 42.791 85.3844 42.9445C85.2183 43.5543 84.8982 44.058 84.4357 44.4396C84.0166 44.7858 83.566 45.014 83.0956 45.1163C82.6212 45.2226 82.1508 45.1911 81.7042 45.0298C81.2614 44.8685 80.8661 44.5852 80.5301 44.1839L80.3878 44.0107L80.5064 43.8219C80.7673 43.4088 81.1073 43.0192 81.4354 42.6415C81.55 42.5078 81.6607 42.3779 81.7714 42.2481C81.2535 42.5786 80.712 42.8304 80.1506 43.094C79.6723 43.3183 79.1782 43.5504 78.6722 43.8416C77.8382 44.2508 77.1701 44.5931 76.5535 44.9629C75.1818 46.0842 73.5887 47.3984 71.9996 48.7125C64.8171 54.6457 63.7459 55.4838 63.3901 55.4838V55.4995ZM63.402 53.5913C63.5917 53.8431 63.7103 54.0634 63.7617 54.2602C63.7893 54.3585 63.8012 54.4687 63.8012 54.5867C65.0701 53.6542 68.5092 50.8096 71.6044 48.2522C72.4503 47.5518 73.2962 46.8515 74.1105 46.1826L73.4543 46.6862C64.0779 53.8982 63.9989 53.8706 63.7103 53.7723L63.5522 53.7172L63.5047 53.548C63.5047 53.548 63.4968 53.5205 63.4968 53.5087L63.402 53.5873V53.5913ZM81.1547 43.9714C81.38 44.1996 81.633 44.3609 81.9058 44.4632C82.2457 44.5852 82.5896 44.6049 82.9533 44.5262C83.3249 44.4435 83.6846 44.2586 84.0285 43.9753C84.404 43.6645 84.6531 43.2671 84.7835 42.7635L84.8112 42.6966C84.9021 42.5274 85.0009 42.3464 85.1077 42.1576C85.3172 41.7799 85.5425 41.3707 85.752 40.9418C85.5899 41.1189 85.4674 41.3628 85.3211 41.6658C85.1788 41.9687 85.0286 42.2796 84.7914 42.5274C84.4238 42.9799 84.0443 43.3773 83.7399 43.6291C83.3486 43.9517 82.9177 44.1091 82.4869 44.0934C82.139 44.0816 81.973 43.9281 81.8979 43.8061C81.7753 43.6055 81.7872 43.3419 81.9374 43.0232L81.9492 42.9956C81.9295 43.0192 81.9097 43.0389 81.8899 43.0625C81.6211 43.3734 81.3642 43.6684 81.1468 43.9753L81.1547 43.9714ZM83.4356 40.2966L83.313 40.7844C83.4158 40.5956 83.5146 40.4028 83.6174 40.21L83.6767 40.0998C83.5976 40.1667 83.5186 40.2336 83.4356 40.3005V40.2966ZM62.307 52.9027C62.2793 52.9027 62.2516 52.9027 62.224 52.9027L62.0184 52.8831L61.9552 52.6863C61.9077 52.5342 62.6101 51.8365 64.0621 50.5932C65.2954 49.5387 66.9754 48.1105 68.7582 46.5997L71.9008 43.9399C72.6796 43.5189 73.4109 43.1412 74.4623 42.8304C74.49 42.8225 74.5177 42.8107 74.5453 42.8028C74.8142 42.6809 75.083 42.5589 75.3518 42.4369C76.7788 41.7917 78.2295 41.1346 79.5142 40.3516C80.5736 39.6159 81.5263 38.7778 82.3445 37.865C81.1033 38.5536 79.8305 39.1595 78.5418 39.667C76.506 40.3241 74.4702 40.749 72.9207 41.0441L72.8732 41.052H72.8258C71.8297 40.934 70.8414 40.8081 69.8374 40.6782C68.9084 40.5602 67.9716 40.4382 67.0071 40.3241L55.666 39.0139L67.0624 39.7103C69.1021 39.8362 71.0667 40.0644 72.9681 40.2887L73.1341 40.3084C74.9644 39.8559 76.8578 39.3877 78.692 38.6952C80.5183 37.7155 82.1074 36.5627 83.4158 35.2643C83.5581 34.981 83.7123 34.804 83.8901 34.7096L84.4475 34.4263L84.3368 35.0361C84.2696 35.4099 84.1787 35.7679 84.0641 36.1063L84.744 35.6814L83.8704 36.9247C83.7083 37.1529 83.5423 37.3772 83.3684 37.5975C82.5224 38.9785 81.2496 40.0211 79.7909 40.9025C78.3007 41.9294 76.6048 42.7674 74.7707 43.3734C73.6322 43.8927 72.561 44.4121 71.6004 45.0062L70.0469 46.3242C66.9359 48.9643 63.7222 51.6909 63.2597 52.1316C63.2122 52.3362 63.0976 52.5172 62.9157 52.6667C62.726 52.8241 62.5204 52.9027 62.307 52.9027ZM83.396 36.1378C82.9098 36.5863 82.388 37.0191 81.8386 37.4322C82.2852 37.1883 82.7319 36.9326 83.1707 36.665C83.2537 36.4958 83.3288 36.3188 83.396 36.1417V36.1378Z" fill="currentColor"/>
<path d="M45.5312 67.5352L47.1362 66.2171C47.1362 66.2171 47.6342 65.8079 48.2983 65.2728C48.6897 64.9581 49.1877 64.541 49.7649 64.0571C50.1641 63.7226 50.6029 63.3567 51.0693 62.9711C51.7651 62.3928 52.4252 61.8498 53.0063 61.3698L55.3583 59.4379L83.1713 45.2973L79.922 47.9728L59.6908 59.6661C59.0543 60.0321 58.3467 60.4334 57.5048 60.8701C56.5047 61.4839 55.5322 62.078 54.5756 62.6682C52.8086 63.7541 51.1405 64.781 49.2787 65.9024C48.1916 66.4335 47.488 66.7247 47.4563 66.7365L45.5352 67.5312L45.5312 67.5352ZM55.6706 59.977L53.4055 61.8498C52.8245 62.3298 52.1643 62.8728 51.4686 63.4512C51.0021 63.8367 50.5673 64.2026 50.1681 64.5371C49.9981 64.6787 49.836 64.8164 49.6819 64.9463C51.2472 63.9981 52.7138 63.097 54.2515 62.1528C55.2081 61.5665 56.1805 60.9685 57.2004 60.3429C58.0542 59.9022 58.7499 59.5048 59.3824 59.1429L74.4353 50.4436L55.6745 59.9809L55.6706 59.977ZM58.3033 56.2077C58.2756 56.2077 58.2479 56.2077 58.2202 56.2077L58.0147 56.188L57.9514 55.9913C57.904 55.8392 58.6063 55.1415 60.0584 53.8982C61.2917 52.8437 62.9757 51.4155 64.7545 49.9007C66.2843 48.6023 67.8892 47.241 69.3439 45.9977C70.3203 45.1675 71.2294 44.3884 72.0042 43.7196L72.0675 43.6645L72.1544 43.6487C72.3126 43.6212 72.4667 43.5897 72.6209 43.5504C73.0241 43.3576 73.4273 43.1766 73.9175 43.0192L74.0005 43.0035C74.0677 43.0035 74.1349 42.9956 74.1981 42.9877C74.7199 42.7556 75.2456 42.4841 75.7793 42.2087C76.5066 41.8349 77.2537 41.4533 78.0246 41.1503C78.412 40.9733 78.8112 40.8356 79.2263 40.7647L86.8832 39.4939L79.3528 41.3667C78.9812 41.4572 78.6136 41.5831 78.2538 41.7248C77.823 41.9254 77.4 42.1812 76.9612 42.4448C76.139 42.9405 75.297 43.4481 74.3681 43.5858C73.8661 43.8061 73.3601 43.995 72.8422 44.1288C72.779 44.1602 72.7158 44.1917 72.6525 44.2192C72.4707 44.3058 72.2849 44.3963 72.0912 44.4829C70.3361 45.9819 68.2094 47.7879 66.1894 49.5033C63.0112 52.2024 59.7263 54.988 59.2599 55.4326C59.2124 55.6372 59.0978 55.8182 58.916 55.9677C58.7262 56.1251 58.5207 56.2038 58.3072 56.2038L58.3033 56.2077Z" fill="currentColor"/>
</svg>
