<svg width="143" height="143" viewBox="0 0 143 143" fill="none" xmlns="http://www.w3.org/2000/svg">
<path d="M108.598 46.6364C108.76 44.4463 108.975 44.4969 109.367 46.7484C109.49 45.6425 109.608 45.0896 109.669 45.1836C110.086 45.0535 110.439 45.5667 110.967 46.6942C110.734 45.5558 110.672 45.0282 110.327 45.4185C111.169 44.8294 111.733 45.1583 112.424 46.7159C112.122 45.1041 111.949 44.7246 111.255 45.7257C112.33 44.4535 112.88 44.5656 113.88 46.4087C113.358 44.4644 113.29 44.2512 113.236 45.9317C113.574 44.009 113.923 43.9837 115.318 45.5269C114.57 43.8283 114.869 43.7018 116.706 44.3993C115.541 43.4886 115.918 43.3983 117.475 43.5717C117.012 43.1417 117.691 42.979 118.371 42.8453C118.86 42.7044 119.345 42.5887 119.687 42.5092L120.222 42.3827H119.644C119.273 42.3827 118.741 42.3827 118.259 42.3683C117.439 42.3827 116.674 42.3827 117.314 42.1514C115.415 42.3827 114.976 42.3827 116.465 41.8406C114.473 42.3755 114.405 42.3683 116.465 41.7973C113.808 42.3683 113.276 42.3755 112.362 41.3889C113.207 42.3321 113.668 42.2815 116.368 41.3997C113.837 42.249 113.218 42.2924 111.485 41.4322C112.571 42.3068 112.539 42.2815 111.41 41.2407C113.121 42.137 113.74 42.0177 116.131 40.7131C113.527 42.0069 112.704 42.1153 110.644 41.3636C111.823 42.1117 111.762 41.996 110.712 40.7564C112.467 41.4395 113.229 40.9949 114.887 39.0578C113.38 40.8215 112.578 41.1793 110.802 40.3589C111.431 41.584 111.09 41.6274 109.957 41.0058C110.827 41.3311 110.906 40.9841 110.568 39.824C111.449 39.8349 111.917 39.0289 112.549 37.9194C111.737 39.0036 111.09 39.7879 110.14 40.0119C109.997 40.8685 109.547 41.1684 109.044 41.219C108.695 41.3238 108.289 41.1829 107.828 40.8468C107.368 40.5107 106.854 39.983 106.207 39.2819C106.825 39.9324 107.314 40.4131 107.746 40.7022C108.177 40.9913 108.555 41.0925 108.936 40.9769C109.346 40.8721 109.759 40.5504 110.058 39.824C110.784 39.4482 111.388 38.6675 112.165 37.6375C111.482 38.6278 110.928 39.3759 110.209 39.6903C109.957 40.4239 109.536 40.7311 109.08 40.8287C108.695 40.9552 108.274 40.8757 107.789 40.6299C107.303 40.3842 106.746 39.9722 106.059 39.4229C107.774 41.5479 107.357 41.4467 105.549 40.3372C106.685 41.0058 106.433 40.6697 105.689 39.7951C106.049 39.6578 105.923 38.982 105.84 38.0857C105.757 37.1894 105.721 36.0691 105.711 34.6741C104.29 41.4612 103.557 41.3816 100.558 40.124C102.09 41.2588 101.356 41.219 100.188 41.1178C99.8893 41.1937 99.1594 41.2154 98.4331 41.2768C96.9805 41.3997 95.5422 41.6852 94.1364 42.2165C93.633 42.2996 93.1476 42.3719 92.637 42.3719H82.9756C82.2709 42.3719 81.559 42.2345 80.7967 42.137C80.1819 42.0358 79.5598 41.9527 78.9342 41.8876C78.3086 41.8226 77.6757 41.772 77.0429 41.7394C64.7963 40.0625 70.7434 40.9696 56.8465 40.6588C56.1669 40.6878 55.4837 40.7456 54.7251 40.7962C52.6684 40.7998 50.5973 41.0636 48.4975 41.3925C47.7963 41.5009 47.0952 41.6166 47.1563 41.5623C46.0345 41.79 45.6785 41.8479 46.937 41.5154C44.9738 41.9635 44.625 42.0141 46.7213 41.3383C43.9059 42.1261 43.5392 42.1803 46.3797 40.5215C43.0538 42.2093 42.9315 42.184 45.5635 38.5663C42.3634 42.2056 41.9176 42.2598 37.5561 41.4575C41.6227 42.0719 41.7737 41.837 39.9651 36.9545C41.3674 41.7828 40.8065 41.9635 37.4626 41.2407C40.2708 41.5949 40.2995 41.0455 38.5017 38.0134C40.1521 40.4709 39.8105 40.8323 37.4446 40.489C39.1705 41.2118 38.8829 41.2299 37.3763 40.9046C38.2896 40.8468 37.9948 40.442 37.3404 39.7084C37.3296 39.1301 36.9628 38.2194 36.5278 37.0196C36.8765 41.6093 36.1862 41.5045 27.9127 41.9635C34.8019 41.3347 34.1079 41.2696 29.0885 42.7044C32.7164 41.2046 32.0189 41.2082 28.9806 42.6935C30.6238 41.3094 29.9262 41.4106 28.4916 42.5417C28.5276 41.7322 27.83 41.9599 27.0713 42.4839C27.7797 42.1081 28.4413 41.978 28.6139 42.6465C29.7788 41.7756 30.4548 41.7033 29.4013 42.914C31.8031 41.6202 32.4755 41.6166 29.9658 43.138C33.8023 41.6888 34.4567 41.7647 30.8827 43.5031C35.7295 42.0177 36.348 42.1912 32.5115 44.1969C37.5381 42.6429 38.1098 42.9284 37.0707 45.2414C37.7035 44.6523 38.1602 44.2873 38.2824 44.2439C38.8649 43.9765 39.113 44.0343 38.6959 44.6487C39.5445 44.5475 39.7278 45.0065 39.7063 45.9317C39.9112 44.9342 39.9616 44.6415 39.3719 45.3534C40.3031 44.7896 40.6016 45.2305 40.7706 46.5027C40.9719 45.6209 41.0258 45.5775 40.7813 46.434C41.2847 45.8847 41.4933 46.2352 41.6479 46.9689C41.7629 46.781 41.8241 46.9797 41.8744 47.2797C41.9535 47.4676 42.0218 47.7567 42.0758 48.0531C42.1836 48.6422 42.2232 49.2457 42.2232 49.8456C42.1333 51.8333 41.6407 53.7307 40.9827 55.5846C40.4829 56.9507 39.886 58.3168 39.2892 59.6938C38.811 61.3996 38.3435 63.1993 37.8222 65.0208C37.6999 65.3858 37.5777 65.7508 37.4303 66.1158C36.6176 68.1577 34.1007 68.8805 34.4603 71.4103C34.8199 73.2173 36.9772 72.4945 36.9772 73.9401C37.3368 75.3857 35.8985 75.7471 34.4603 76.1085C34.8199 76.1085 35.539 75.7471 35.8985 75.7471C35.1794 76.4699 33.7412 75.7471 32.907 76.441C32.6409 76.7012 32.3353 76.9542 31.9542 77.2108C30.4296 78.248 27.715 79.4009 21.7031 81.6379C36.499 78.7973 30.5159 78.9057 32.8567 77.5216C36.7579 77.6156 33.0724 78.8588 22.0555 84.7026C39.2532 76.0905 31.9685 108.324 31.1128 117.304C35.4275 108.443 34.5034 97.4564 37.1642 100.64C35.8806 96.73 33.9821 78.295 36.4163 77.9408C35.9021 77.771 35.8698 77.6156 36.1071 77.4638C37.3368 76.8277 38.4154 76.4663 39.4941 75.7435H39.1346C39.3143 75.7435 39.4941 75.6532 39.6739 75.5194C39.8393 75.4869 39.9903 75.5303 40.1234 75.6315C39.8393 75.4869 39.8537 75.3821 39.4941 75.7435C39.8537 75.3821 39.8393 75.4833 40.1234 75.6315C40.2132 77.9119 39.8537 80.0803 40.9324 81.8873C40.5728 81.8873 40.5728 81.5259 40.5728 81.1645C40.9324 81.8873 40.9324 82.6101 42.011 82.9715C39.4941 80.0803 41.6515 75.7435 44.1684 73.5751C43.7225 73.9582 43.3522 74.5039 42.9027 74.9087C42.4137 75.3532 41.9068 75.8122 41.6587 76.441C42.2124 75.0243 43.8592 74.3088 44.4812 72.9282C44.1037 73.2029 43.7801 73.604 43.4493 73.9365C44.1684 73.5751 44.528 72.8523 45.6066 73.2137L45.2471 72.8523C46.5307 73.0691 47.0808 75.9567 47.3541 76.9217C48.0013 79.1949 48.4687 81.5151 49.0692 83.7991C49.2993 84.6701 51.0396 83.7268 51.471 84.5219C51.525 84.6231 51.5861 84.7243 51.6796 84.7929C51.9061 84.9556 51.7731 99.2634 52.014 99.2019C52.2477 99.1441 52.4742 99.0755 52.6792 99.0755C52.9201 99.2525 53.2796 106.82 53.6392 107.182C54.0023 106.571 53.9412 98.0852 53.9376 97.4058C53.9268 96.1806 52.9668 82.3427 52.8302 81.1284C52.521 78.3998 52.0571 75.6821 51.525 72.9896L51.4171 72.4475C51.3991 72.3608 51.3812 72.2668 51.3164 72.2018C51.2625 72.1476 51.187 72.1223 51.1151 72.0934C49.7595 71.5332 50.8706 69.972 51.7587 69.5925C51.8054 69.5744 51.8558 69.5527 51.9061 69.5708C51.96 69.5889 51.9888 69.6431 52.0176 69.6901C53.1682 71.8548 53.5853 74.4063 54.0707 76.7988C54.3367 78.1107 54.61 79.4225 54.8114 80.7453C54.9947 81.9596 55.7606 95.9168 56.3107 97.0335C56.3503 97.1131 56.3934 97.1926 56.4689 97.2432C56.8069 97.4636 56.8788 96.8167 56.886 96.6324C56.8968 96.2096 56.7997 95.7903 56.7961 95.3675C56.7853 92.7763 55.8217 77.5866 55.6779 74.999C55.6168 73.8787 56.0015 73.4848 56.7134 72.7041C57.1809 72.1946 57.6806 71.7067 58.2523 71.3164C58.7665 70.9658 59.3382 70.6839 59.9602 70.59C60.2695 70.543 60.5823 70.5466 60.8915 70.5972C61.2007 70.6478 61.5998 70.9297 61.8695 70.9261C62.2111 70.9188 62.5599 70.9658 62.9158 71.0778C63.2682 71.1899 63.6277 71.3633 63.9945 71.6127C64.2821 71.5693 64.5698 71.526 64.8538 71.4826C66.2777 71.2622 68.1834 82.6679 69.6755 82.5197C71.8005 82.3101 73.4293 70.496 75.5579 70.3731C77.7333 70.2647 79.8942 70.2358 82.048 70.2611C82.5873 70.2683 83.1231 70.2791 83.5545 70.2286C84.1981 70.3044 84.7339 70.3189 84.4534 69.8021C85.8054 70.3587 86.3375 70.3803 85.1833 69.2636C87.409 70.4309 87.9412 70.4598 85.9852 68.801C88.7178 70.496 88.9587 70.5068 86.4274 68.6348C89.4477 70.5249 89.6886 70.5394 86.7546 68.6167C87.8944 69.2636 88.6818 69.7009 89.0378 69.9033C89.5232 70.1454 89.5736 70.1599 89.1313 69.9358C88.9156 69.7804 88.2072 69.3865 87.0962 68.7902C88.3618 69.3937 89.2284 69.7985 89.401 69.9358C90.2603 70.2972 90.4221 70.3876 89.5879 70.1671C90.1309 70.3442 89.6778 70.2105 88.9264 69.9936C89.9331 70.2249 90.6343 70.3731 89.9115 70.2647C91.5799 70.8502 91.8172 71.1754 89.987 72.0572C91.9143 72.3174 91.7705 73.1306 90.5552 75.187C91.8675 73.1703 92.1876 72.3825 90.2567 72.7186C92.6981 71.5368 92.8959 71.4754 90.7098 72.3355C93.1943 72.0283 93.2986 72.6391 91.9574 76.7988C93.3777 72.6933 93.3561 72.1331 90.8931 73.0258C93.2195 71.6597 93.1044 71.7464 90.5839 73.6908C92.7628 72.5849 92.5363 73.3402 91.0945 75.8808C92.4932 73.4089 92.7233 72.7041 90.645 74.0883C93.1692 71.9054 93.3813 71.8079 91.3713 73.7269C93.8235 72.162 94.0501 72.6138 93.7984 79.3864C93.9961 76.535 94.122 74.746 94.4528 73.5751C94.6182 72.9896 94.8339 72.556 94.9813 72.2705C95.438 71.8874 95.8227 71.6525 95.233 71.7067C96.8367 71.2694 97.4623 71.1212 95.7544 71.432C97.3257 71.1573 96.6497 71.3344 95.2258 71.7826C95.8443 71.7428 95.7148 71.9741 95.3049 72.5234C96.0672 72.5921 96.5454 72.9752 96.682 74.316C98.1742 73.9871 99.3248 74.6123 100.892 75.5773C99.634 74.8219 98.6596 74.3449 97.4515 74.8761C97.1746 73.604 96.6677 73.3366 95.8622 73.5715C96.1211 73.0077 96.0816 72.9499 95.722 73.3583C96.4699 73.0294 96.8942 73.1667 96.8115 74.381C98.2102 73.6402 99.0983 73.9763 100.403 75.3677C99.0479 74.0377 98.1059 73.763 96.7288 74.3883C96.5778 73.4522 95.9917 73.4089 95.4667 73.5462C95.0748 73.5968 94.7404 73.8281 94.4779 74.2184C93.9566 74.9954 93.7229 76.4013 93.3633 78.6022C93.8775 73.7377 93.5754 73.8534 91.9898 76.9144C92.9175 74.4895 92.5615 75.0099 91.4576 76.4988C92.5795 75.14 92.9786 74.7244 92.2127 77.1999C93.7624 74.1353 94.1436 73.9654 93.8631 79.578C94.2334 77.1132 94.4959 75.57 94.9993 74.6629C95.251 74.2076 95.5638 73.9112 95.8227 73.8642C96.4016 73.5607 96.9229 73.5101 96.9194 74.4895C98.2641 73.5715 99.0803 73.6871 100.35 75.2701C98.6165 73.4414 97.6744 73.1667 96.2793 73.8534C96.736 72.7945 96.7396 72.6969 96.06 73.5209C97.5809 72.5957 98.4187 72.5921 99.7311 75.0424C98.5877 72.5018 97.9225 72.415 96.1535 73.4595C97.2286 72.2199 97.1962 72.1042 95.8299 72.8993C97.6816 71.8151 98.2066 71.6416 97.1926 73.5968C98.0448 71.6272 97.6564 71.7284 95.8371 72.7222C97.7356 71.7103 98.203 71.5946 97.189 73.5101C98.4547 71.5766 98.2389 71.6741 96.2865 73.174C98.3144 71.6705 98.6021 71.5693 97.4587 73.6799C98.6309 71.7862 98.9185 71.8368 99.4399 74.634C99.5369 71.9813 99.8677 72.0681 101.425 74.5147C100.594 72.2813 100.986 72.4006 102.773 73.8028C100.871 72.3464 100.436 72.1909 101.256 74.5256C99.7994 71.9127 99.6017 71.7934 99.5693 74.569C99.0623 71.638 99.1234 71.6019 99.7527 74.4714C99.7095 71.6236 99.9468 71.6705 101.968 73.9582C100.576 71.7753 100.972 71.8332 103.248 72.986C100.576 71.8223 100.278 71.8151 102.029 74.0088C100.436 71.8621 100.896 71.9199 103.28 72.9969C101.259 72.1512 101.766 72.2994 103.399 73.1378C102.64 72.574 103.003 72.7005 103.74 73.033C103.719 72.9788 104.075 73.127 104.427 73.286C105.128 73.6004 105.818 73.9546 106.484 74.2943C107.174 74.7135 107.843 75.1183 107.275 74.2292C109.159 75.9567 109.813 76.3904 110.259 73.8534C111.111 77.2686 111.755 77.7131 114.495 78.9166C113.038 78.5877 113.678 79.0178 114.671 79.6033C114.966 79.8418 115.613 80.2393 116.264 80.6043C117.565 81.338 118.885 81.9596 120.251 82.3788C118.971 81.656 117.749 80.8248 116.594 79.9032C116.019 79.4406 115.458 78.9563 115.124 78.4938C114.387 77.9408 113.869 77.4132 114.71 76.5928C112.88 76.3145 112.409 75.7471 112.762 73.8968C111.517 74.5726 111.097 73.9654 110.726 72.8921C110.313 72.715 109.95 72.0753 109.615 71.4212C108.947 70.1093 108.4 68.736 107.99 67.3157C107.415 65.3424 107.091 63.3077 107.019 61.2875C107.199 58.6493 107.864 56.2279 108.72 53.7451C109.313 52.014 109.234 50.3805 109.162 48.6675C109.141 48.0964 109.116 47.5182 109.09 47.3556C109.069 46.5171 109.015 46.1593 108.806 46.9761C108.954 45.5594 108.943 45.3173 108.605 46.7737C108.785 44.6595 108.745 44.4463 108.58 46.6364H108.598ZM39.0051 73.9726C38.7966 72.1404 36.9988 72.1404 35.9201 71.4176C33.4032 69.972 36.9988 67.8036 38.5665 66.7338C38.7642 66.423 38.9009 66.0978 39.0375 65.7761C39.6056 64.1209 40.1665 62.4801 40.6088 60.8575C41.2128 59.0107 41.7953 57.1676 42.3239 55.2847C42.8524 53.4018 43.3234 51.4828 43.683 49.4951C43.683 48.8915 43.8016 48.3314 43.9958 47.7929C44.19 47.2544 44.4596 46.7376 44.9235 46.5677C45.0565 45.7148 45.3801 45.2125 46.2934 45.1619C46.0309 44.262 46.4156 43.8753 47.2426 43.6404C47.2858 43.2103 47.7712 42.932 48.3213 42.7152C48.8678 42.4984 49.4791 42.3466 50.1587 42.2671C49.8638 42.3032 49.2526 44.1464 49.1339 44.4463C47.2067 49.0469 47.7352 53.6548 47.3613 58.4144C47.3002 59.2095 47.2103 60.0046 47.0844 60.8069C47.0413 61.0743 46.9226 61.3381 46.5415 61.6092C45.2722 62.0248 44.1936 63.4704 43.834 64.5546C43.1149 67.0844 45.6318 68.1686 47.7892 68.53C47.728 68.9528 47.5986 69.2817 47.4152 69.5383C47.2175 69.7913 46.9694 69.972 46.6673 70.0876C45.2722 71.0562 43.4744 69.6106 42.0038 70.0876C41.7701 70.0695 41.5436 70.0298 41.3243 69.9828C40.2276 69.7479 39.2784 69.2455 38.0775 69.2455C38.437 69.2455 39.5157 69.2455 39.1561 69.9683C38.7966 70.6911 38.0775 70.3297 37.7179 70.3297C38.0775 70.6911 38.7966 70.6911 39.1561 70.6911C37.7179 71.0525 39.8753 71.7753 39.3179 72.9824C39.2496 73.3294 39.1418 73.6655 39.0051 73.969V73.9726ZM50.7483 42.0719C52.4131 42.0755 54.272 41.7756 55.7498 42.7116C58.0654 44.0741 58.4249 46.6039 58.4249 48.7723C58.1409 54.1752 57.6375 59.5817 57.7849 64.9846C57.7957 65.346 57.8065 65.7038 57.8245 66.0652C58.2128 67.4422 57.4937 68.5264 56.7745 69.2492C54.9768 70.3334 53.8981 68.8878 52.2333 68.2951C52.0212 68.1722 51.9061 67.9879 51.8342 67.7855C51.6257 67.1711 51.827 66.358 51.018 66.358C50.6584 68.165 50.6584 69.972 48.8606 71.0562C51.3776 68.5264 50.2989 65.2738 47.782 63.4668C48.8606 62.744 49.9393 63.1054 50.9317 63.38C51.2409 63.4451 51.2949 63.1993 51.338 62.95C51.5106 61.9453 51.5897 60.9406 51.5897 59.9793C51.9493 53.8355 49.4323 48.0531 50.7196 42.0755H50.7411L50.7483 42.0719ZM62.0601 70.5466C61.8156 70.402 61.5387 70.3442 61.2259 70.2538C60.0106 69.972 58.5723 69.972 58.2128 68.8878C58.2128 68.5264 58.9319 68.165 59.2987 68.1144C59.4461 67.8686 59.5683 67.5903 59.5971 67.2325C60.2047 59.6648 60.6434 60.5756 66.4755 56.4375C66.4755 64.3883 70.0711 73.7847 66.515 80.7453C66.1015 81.0488 64.9869 69.8238 64.3469 70.1924C64.1347 70.3153 63.919 70.4309 63.7068 70.5394C63.4947 70.6478 63.2682 70.7128 62.9626 70.6731C62.6569 70.6333 62.3369 70.5863 62.0601 70.5502V70.5466ZM68.2876 80.1128C68.9924 75.2267 71.5093 70.5285 72.214 65.44C72.89 62.379 73.0087 47.735 73.886 44.7969C74.6051 42.9899 76.4029 44.0741 77.1724 44.7896C77.9454 45.3245 78.4128 46.181 78.6178 47.2725C79.2111 50.3877 78.4668 53.5897 77.8519 56.6399C77.3306 59.2276 77.3449 62.5452 75.6982 64.7281C75.148 65.4581 68.5609 81.3958 68.2948 80.149C68.2948 80.1381 68.2912 80.1273 68.2876 80.1164V80.1128ZM81.7459 66.6652C80.358 63.951 81.4367 60.6984 81.0556 57.2977C81.0556 54.8546 80.9693 52.4296 80.6169 50.0372C80.2646 47.6447 79.6389 45.292 78.5603 42.9899C83.7847 43.4091 85.1582 47.7965 85.5429 52.2381C85.791 55.0968 85.9312 57.9735 85.791 60.8394C85.6975 62.7331 85.4242 64.5979 85.6687 66.4447C85.7514 67.0627 85.8881 67.6771 86.0103 68.1108C85.7514 68.1108 85.3919 68.0168 85.0179 67.959C84.644 67.9011 84.2557 67.8686 83.8386 67.8072C82.9361 67.5 82.2062 67.2326 81.7459 66.6688V66.6652ZM93.8128 65.4472C93.7193 65.9713 93.6042 66.2676 93.4316 66.3038C93.259 66.3652 93.0325 66.17 92.7125 65.7147C92.7377 66.2568 92.6694 66.5423 92.4824 66.5495C92.3098 66.629 92.0186 66.4339 91.5907 66.0219C91.7021 66.4736 91.6806 66.7049 91.526 66.741C91.3785 66.7953 91.0945 66.6507 90.6882 66.3471C90.8752 67.0121 90.5587 67.041 89.9367 66.629C89.8288 67.1133 89.4082 67.1603 88.8508 66.9543C88.5704 67.294 88.1497 67.3771 87.6535 67.3337C87.3119 67.6012 86.8948 67.7385 86.4202 67.818C86.4706 67.1386 86.5317 66.376 86.636 65.6279C87.1465 61.8875 88.7214 58.5228 89.1816 54.8871C89.3902 53.0151 89.2967 51.1177 89.57 49.2529C90.0122 46.2352 91.5511 43.803 94.7404 43.3477C94.2299 43.4199 93.597 46.9291 93.4999 47.4315C93.2303 48.8445 93.1008 50.2793 93.0721 51.7177C92.9642 55.2811 93.446 58.8878 93.7912 62.5054C93.8595 63.2282 93.9242 63.951 93.9746 64.6124C93.9925 65.234 94.0033 65.7002 93.9314 65.2882C93.971 65.8195 93.9925 66.1339 93.9782 66.1773C93.9638 66.2206 93.9134 65.9929 93.8092 65.4436L93.8128 65.4472ZM95.0892 43.2718C96.5346 42.8417 98.4547 42.7008 99.5765 42.867C100.137 42.9501 100.497 43.1091 100.245 43.391C100.734 43.8645 100.957 44.3813 100.9 45.0607C101.36 45.4329 101.547 45.9678 101.698 46.5244C101.881 47.0448 102.032 47.5905 102.173 48.1398C102.561 49.9251 102.877 51.7141 103.165 53.5102C103.453 55.3064 103.715 57.1025 103.995 58.9095C104.222 60.89 104.61 62.8741 105.196 64.9521C105.89 67.2036 106.624 69.7407 107.749 71.9416C107.138 71.6308 106.527 71.3055 105.93 70.955C105.333 70.6044 104.743 70.2322 104.294 69.8057C103.611 69.4335 103.064 69.007 103.151 68.1108C102.036 68.0963 101.547 67.6084 101.302 66.6182C100.652 66.5676 100.242 66.0074 99.8749 65.4111C99.5118 64.8148 99.1954 64.1823 98.9329 63.5029C98.2281 61.8694 97.678 60.0768 97.0991 58.3277C96.5238 56.5785 95.9162 54.8727 95.1108 53.409C94.2802 50.666 94.237 48.2085 94.7153 45.4402C94.9562 44.0235 95.0856 43.279 95.0856 43.279L95.0892 43.2718Z" fill="currentColor"/>
</svg>
