<svg width="143" height="143" viewBox="0 0 143 143" fill="none" xmlns="http://www.w3.org/2000/svg">
<path d="M82.8757 116.84C82.0607 116.84 81.3476 116.546 80.8213 115.983C80.1507 115.267 79.896 114.219 80.1295 113.102C80.1677 112.906 80.2313 112.718 80.3162 112.518C80.8043 111.376 81.9164 110.668 83.2195 110.664C84.5565 110.664 85.6983 111.393 86.2034 112.569C86.3816 112.987 86.4665 113.366 86.4623 113.729C86.4453 114.947 84.5862 116.627 83.3893 116.801C83.2152 116.827 83.0412 116.84 82.8757 116.84ZM83.2195 111.517C82.4682 111.517 81.5174 111.87 81.0972 112.851C81.0336 112.995 80.9911 113.136 80.9614 113.272C80.7874 114.112 80.9614 114.884 81.441 115.395C81.8782 115.864 82.5276 116.06 83.2704 115.953C84.1363 115.83 85.6049 114.423 85.6134 113.711C85.6134 113.473 85.554 113.204 85.4266 112.902C84.9894 111.879 84.0005 111.512 83.2237 111.512L83.2195 111.517ZM95.1041 104.118C94.3995 104.118 93.4275 103.423 92.9224 102.895C92.5616 102.511 92.4173 102.2 92.4725 101.919C92.706 100.691 93.6143 99.1483 94.6712 98.8031C95.3545 98.5772 96.1058 99.0588 97.1457 99.7237C97.6296 100.031 98.1771 100.384 98.7926 100.708C98.9199 100.776 99.0048 100.9 99.0175 101.045C99.0303 101.19 98.9709 101.326 98.8605 101.416C98.3214 101.85 97.8715 102.272 97.4725 102.639C96.6236 103.427 96.0124 103.998 95.2442 104.105C95.2017 104.109 95.155 104.113 95.1083 104.113L95.1041 104.118ZM93.3172 102.025C93.4827 102.417 94.7136 103.317 95.1211 103.265C95.6262 103.193 96.1567 102.699 96.8953 102.017C97.1797 101.752 97.4938 101.463 97.8461 101.156C97.4259 100.908 97.0396 100.666 96.6916 100.44C95.9445 99.9623 95.2399 99.5106 94.9386 99.6086C94.2552 99.8345 93.5209 101.075 93.3214 102.021L93.3172 102.025ZM83.2704 93.3009C83.2704 93.3009 83.2577 93.3009 83.2534 93.3009C83.1176 93.2966 82.9945 93.2284 82.9181 93.1133C82.6083 92.653 82.2942 92.2567 81.9928 91.8688C81.3434 91.042 80.7831 90.3303 80.7152 89.5205C80.6431 88.6723 82.0225 87.6069 82.0819 87.5642C82.7865 87.0272 83.1261 87.0613 83.3171 87.1338C84.4843 87.577 85.6049 88.7107 85.9275 89.7805C86.1057 90.3814 85.5624 90.9653 84.739 91.8475C84.3825 92.2311 83.9792 92.6616 83.6015 93.1389C83.5208 93.2412 83.3977 93.3009 83.2704 93.3009ZM83.0752 87.9563C82.6889 88.0586 81.5811 89.0943 81.5641 89.4566C81.6108 90.0021 82.0777 90.5945 82.6634 91.3446C82.8629 91.6003 83.0794 91.8774 83.3001 92.1757C83.5845 91.8475 83.8646 91.5449 84.1193 91.2679C84.5353 90.8204 85.104 90.2109 85.1083 90.0063C84.8748 89.2307 83.9665 88.3143 83.0709 87.9521L83.0752 87.9563ZM109.816 82.9485C109.684 82.9485 109.561 82.8888 109.48 82.7823C109.34 82.599 109.196 82.4371 109.069 82.3007C108.763 81.9597 108.496 81.6657 108.538 81.2906C108.602 80.7408 109.217 80.2848 109.633 80.1313C109.654 80.1228 109.671 80.1186 109.692 80.1143C109.65 79.6924 109.518 79.2662 109.383 78.8272L109.357 78.7462C108.941 77.4079 108.44 76.0015 107.736 74.1944C107.583 73.8066 107.231 73.4315 106.976 73.1886C106.411 72.6388 106.191 72.0123 106.237 71.1002C106.271 70.5121 106.157 69.9069 105.932 69.4721C105.622 68.8797 105.342 68.2617 105.066 67.6651C104.276 65.9432 103.529 64.3194 102.18 63.0323C101.866 62.7297 101.709 62.3078 101.568 61.9327L101.547 61.873C101.22 60.9993 100.69 60.2748 99.8707 59.6014C99.2892 59.1241 98.9327 58.3654 98.661 57.6878C98.3766 56.976 98.0116 56.2685 97.2985 55.9105C96.4878 55.5014 95.9785 54.8834 95.6941 53.9585C95.4564 53.1871 94.8749 52.6885 94.0684 52.1813C93.6058 51.8872 92.9734 51.4013 92.5786 50.745C91.9589 49.7221 91.3222 49.1255 90.4436 48.7547C89.2127 48.2347 88.8689 47.5485 89.217 46.3211C89.5141 45.2769 89.5905 44.2114 89.6754 43.082C89.773 41.765 89.8749 40.4012 90.3503 39.0928C90.3503 39.0928 90.3503 39.0885 90.3503 39.0842C90.329 39.0757 90.3121 39.0672 90.2908 39.0587C90.1635 38.999 90.0319 38.9393 89.9385 38.9351C88.61 38.8711 87.2772 38.722 85.9869 38.5813C84.9173 38.4662 83.8137 38.3426 82.7271 38.2702C81.9419 38.2191 81.1566 38.2702 80.329 38.3299C79.0556 38.4194 77.7441 38.5131 76.4198 38.185C76.3688 38.1722 76.2755 38.185 76.1906 38.185L76.059 38.1935C74.5564 38.2787 73.1642 37.9505 71.8102 37.1877C71.3348 36.9191 70.8085 36.7359 70.2525 36.5356C70.0954 36.4802 69.9342 36.4248 69.7771 36.3651C69.4757 36.2543 69.1701 36.1563 68.8645 36.0582C68.4019 35.9091 67.9223 35.7556 67.4638 35.5553C66.2584 35.0439 64.8365 34.5282 63.2533 34.5452C62.7652 34.558 62.2983 34.4131 61.8484 34.2767C61.755 34.2469 61.6616 34.2213 61.5682 34.1915C61.1735 34.0807 60.7957 33.9485 60.3543 33.7951C60.2906 33.7738 60.2227 33.7482 60.159 33.7269C60.1251 33.8761 60.0911 34.0253 60.0529 34.1702C59.9086 34.7754 59.7813 35.2953 59.8067 35.794C59.8874 37.2132 59.5393 38.4407 59.1701 39.7406L59.047 40.1796C58.7032 41.4241 58.1089 42.1401 57.0011 42.66C56.7762 42.7666 56.547 42.8561 56.3178 42.9456C56.0376 43.0564 55.7745 43.1587 55.524 43.2865C55.0571 43.5295 54.586 43.7937 54.1318 44.0537C53.7583 44.2668 53.3806 44.4799 53.0028 44.6802C52.5147 44.9402 52.0181 45.1789 51.5257 45.3792C51.1649 45.5283 50.7999 45.6647 50.4349 45.8011C49.8619 46.0142 49.2719 46.2358 48.7201 46.4958C48.1174 46.7814 47.4722 47.1607 46.6912 47.6977C44.7472 49.0402 42.7353 50.4722 41.1224 51.623C41.012 51.6997 40.9059 51.8233 40.7956 51.9511C40.7362 52.0193 40.6767 52.0875 40.6173 52.1515C40.0316 52.7694 39.3609 53.3065 38.7158 53.8222C37.6801 54.6532 36.6996 55.4374 36.0247 56.5413C35.9483 56.6649 35.8422 56.7246 35.7871 56.7587C34.5901 57.5727 33.7157 58.651 32.7862 59.7932C32.7055 59.8912 32.6291 59.9892 32.5485 60.0873C32.6673 60.1896 32.7565 60.3217 32.8583 60.4666C32.9178 60.5518 32.9814 60.6456 33.0663 60.7564C33.1597 60.88 33.1809 61.0419 33.1215 61.1869C33.0621 61.3318 32.9263 61.4255 32.7735 61.4426C32.6291 61.4554 32.506 61.4767 32.3999 61.498C32.1325 61.5449 31.8779 61.5875 31.6444 61.4426C31.585 61.4085 31.5383 61.3616 31.5001 61.3147C31.2497 61.5875 30.9908 61.8517 30.7234 62.1032C30.6385 62.1799 30.5663 62.3248 30.4899 62.4782C30.4262 62.6018 30.3626 62.734 30.2777 62.8618C30.1376 63.0707 29.9848 63.2667 29.832 63.467C29.7514 63.5736 29.6707 63.6801 29.5901 63.7867L29.0553 64.5069C28.9661 64.6263 28.8812 64.7413 28.7921 64.8607L28.9704 64.9417C28.8176 65.2698 28.4992 65.5767 28.1384 65.7472C27.8838 66.0924 27.6333 66.4376 27.3829 66.7828L26.6953 66.2842C26.8863 66.0242 27.0731 65.7642 27.2641 65.5042C27.0731 65.3082 26.8566 65.0141 26.9245 64.7158L27.7098 64.899C27.7267 64.8735 27.7437 64.8522 27.7607 64.8266C27.7607 64.784 27.7522 64.7541 27.7437 64.7413C27.7522 64.7541 27.7649 64.7754 27.7777 64.7968C27.9772 64.5282 28.1724 64.264 28.3719 63.9955L28.9067 63.2752C28.9873 63.1644 29.0722 63.0536 29.1571 62.9428C29.3014 62.7553 29.4415 62.572 29.5731 62.3802C29.6325 62.2907 29.6792 62.1927 29.7301 62.0947C29.832 61.8901 29.9466 61.6599 30.1461 61.4767C30.8677 60.8075 31.5043 60.0191 32.124 59.2562C33.0493 58.114 34.0044 56.9334 35.2904 56.0597C35.3032 56.0512 35.3202 56.0426 35.3371 56.0299C36.0884 54.8322 37.1538 53.9798 38.1852 53.153C38.8091 52.6544 39.4543 52.1387 40.0019 51.559C40.0528 51.5036 40.1037 51.444 40.1547 51.3843C40.2862 51.2309 40.439 51.0604 40.63 50.924C42.2472 49.7733 44.2591 48.337 46.2116 46.9902C47.0308 46.4276 47.7141 46.0227 48.3593 45.7159C48.945 45.4431 49.552 45.213 50.1377 44.9956C50.4943 44.8635 50.8508 44.7271 51.2031 44.5822C51.6658 44.3904 52.1369 44.1688 52.5996 43.9216C52.9731 43.7213 53.3424 43.5124 53.7116 43.3036C54.1743 43.0436 54.6497 42.7751 55.1293 42.5236C55.4179 42.3745 55.715 42.2594 56.0037 42.1443C56.2159 42.0591 56.4281 41.9781 56.6361 41.8801C57.5147 41.4667 57.9477 40.9425 58.2235 39.9409L58.3466 39.4976C58.6947 38.2702 59.0215 37.1067 58.9494 35.8323C58.9154 35.2058 59.0597 34.6006 59.2168 33.9613C59.2847 33.68 59.3568 33.386 59.412 33.0834C59.4332 32.964 59.5096 32.8575 59.6157 32.7936C59.7219 32.7296 59.8492 32.7168 59.968 32.7595C60.2015 32.8404 60.418 32.9129 60.6259 32.9853C61.0504 33.1345 61.4197 33.2624 61.7932 33.3689C61.8908 33.3988 61.9884 33.4243 62.0861 33.4542C62.4935 33.5778 62.8713 33.6928 63.2321 33.6843C63.2703 33.6843 63.3127 33.6843 63.3509 33.6843C65.0275 33.6843 66.5301 34.2256 67.7864 34.7626C68.2151 34.9459 68.6523 35.0865 69.1192 35.2357C69.4375 35.338 69.7516 35.4402 70.0615 35.5553C70.2143 35.6107 70.3713 35.6661 70.5241 35.7215C71.0887 35.9218 71.6744 36.1264 72.2135 36.4333C73.4231 37.1152 74.6625 37.405 75.9996 37.3326L76.1057 37.324C76.25 37.3112 76.4283 37.2985 76.6108 37.3411C77.8035 37.6352 78.9962 37.5499 80.2568 37.4604C81.0802 37.4008 81.9291 37.3453 82.7696 37.4008C83.8689 37.4732 84.9852 37.5968 86.0633 37.7161C87.3409 37.8568 88.6652 38.0017 89.9682 38.0656C90.2272 38.0784 90.4521 38.1807 90.6304 38.2617C90.6856 38.2872 90.7407 38.3128 90.7917 38.3299C90.902 38.3682 90.9912 38.4535 91.0379 38.5643C91.0548 38.6112 91.0803 38.6495 91.0973 38.6836C91.1694 38.8115 91.2756 39.0075 91.1864 39.2377C90.7068 40.4694 90.6134 41.7608 90.5115 43.1203C90.4267 44.2412 90.3418 45.4005 90.0234 46.5256C89.7942 47.3354 89.9258 47.5869 90.7662 47.9449C91.8061 48.3839 92.5871 49.1041 93.2959 50.2805C93.5379 50.6853 93.9708 51.0945 94.5141 51.4397C95.346 51.9682 96.161 52.6032 96.4963 53.6858C96.7128 54.3933 97.0651 54.8237 97.672 55.1263C98.644 55.6164 99.1109 56.5242 99.442 57.3511C99.6585 57.8966 99.9683 58.5657 100.406 58.9237C101.344 59.6994 101.959 60.5348 102.337 61.5534L102.358 61.6131C102.464 61.8986 102.583 62.2268 102.757 62.393C104.226 63.7952 105.041 65.5724 105.83 67.2857C106.102 67.8739 106.378 68.4791 106.679 69.0545C106.976 69.6256 107.12 70.3799 107.082 71.1215C107.044 71.7864 107.176 72.1742 107.562 72.5493C107.897 72.8775 108.309 73.3207 108.521 73.8577C109.238 75.6861 109.743 77.1053 110.164 78.4692L110.189 78.5502C110.376 79.1511 110.58 79.8032 110.55 80.4979C110.72 80.6684 110.898 80.9113 110.906 81.1713C110.915 81.525 110.724 81.8319 110.499 82.1814C110.401 82.3305 110.291 82.5053 110.181 82.7056C110.113 82.8334 109.985 82.9144 109.841 82.9272C109.828 82.9272 109.82 82.9272 109.807 82.9272L109.816 82.9485ZM109.391 81.3588C109.442 81.444 109.586 81.606 109.697 81.7253C109.718 81.7466 109.735 81.768 109.756 81.7935C109.769 81.7765 109.777 81.7594 109.79 81.7424C109.841 81.6571 109.896 81.5762 109.943 81.4952L109.51 81.2906C109.531 81.2437 109.552 81.1968 109.569 81.1457C109.485 81.2224 109.417 81.2991 109.391 81.3545V81.3588ZM101.462 82.6203C101.068 82.6203 100.711 82.4584 100.482 82.1643C100.24 81.8617 100.172 81.4526 100.291 81.0519C100.435 80.5575 101.114 80.0717 101.641 80.0845C102.014 80.1015 102.286 80.37 102.596 80.6811C102.719 80.8047 102.859 80.9454 103.02 81.0818C103.122 81.167 103.177 81.2991 103.169 81.4313C103.16 81.5634 103.092 81.687 102.982 81.7637C102.804 81.883 102.647 82.0066 102.511 82.1174C102.188 82.3731 101.908 82.5948 101.547 82.6161C101.518 82.6161 101.488 82.6161 101.458 82.6161L101.462 82.6203ZM101.594 80.9411C101.471 80.9411 101.148 81.1755 101.106 81.3034C101.068 81.4355 101.08 81.5549 101.148 81.6401C101.22 81.7339 101.352 81.7807 101.501 81.7722C101.594 81.7679 101.806 81.6017 101.989 81.4526C102.018 81.427 102.052 81.4014 102.086 81.3758C102.057 81.346 102.031 81.3204 102.001 81.2949C101.861 81.1542 101.67 80.9624 101.594 80.9454V80.9411ZM94.9089 79.0275C94.7645 79.0275 94.5056 78.9636 94.1321 78.58C93.8987 78.3371 93.5209 77.8725 93.6143 77.4634C93.7204 76.9945 94.0302 76.6067 94.4207 76.1208C94.599 75.8992 94.807 75.6435 95.0277 75.3366C95.1126 75.2215 95.2527 75.1534 95.3927 75.1619C95.537 75.1704 95.6686 75.2514 95.7365 75.375C95.9318 75.7159 96.1355 76.0143 96.3138 76.2785C96.7298 76.8922 97.0311 77.3312 96.8698 77.783C96.6236 78.4777 95.6219 78.9039 95.0107 79.019C94.9895 79.0232 94.9513 79.0318 94.9046 79.0318L94.9089 79.0275ZM94.4589 77.5955C94.5226 77.7489 94.79 78.06 94.9428 78.1623C95.4479 78.043 95.9912 77.7276 96.0761 77.4974C96.0634 77.4122 95.8172 77.0499 95.6177 76.7601C95.5286 76.628 95.4352 76.4874 95.3376 76.3382C95.2484 76.449 95.1635 76.5555 95.0871 76.6536C94.773 77.0457 94.5396 77.3355 94.4632 77.5955H94.4589ZM105.618 78.2731C105.541 78.2731 105.461 78.2518 105.38 78.2049C105.104 78.0472 104.939 77.783 104.794 77.5528C104.748 77.4804 104.705 77.4037 104.654 77.3398C104.586 77.246 104.561 77.1267 104.582 77.0116C104.603 76.8965 104.671 76.7942 104.769 76.7303C104.828 76.6919 104.892 76.6408 104.951 76.5939C105.142 76.4405 105.38 76.2487 105.686 76.2316C105.974 76.2146 106.229 76.3297 106.526 76.4618C106.658 76.5215 106.815 76.5896 106.997 76.6578C107.15 76.7132 107.256 76.8539 107.269 77.0116C107.286 77.1735 107.209 77.3312 107.074 77.4165C106.772 77.6083 106.535 77.7745 106.356 77.9066C106.051 78.124 105.834 78.2774 105.618 78.2774V78.2731ZM105.567 77.1906C105.601 77.246 105.635 77.2971 105.669 77.344C105.728 77.3014 105.796 77.2545 105.864 77.2076C105.894 77.1863 105.923 77.165 105.953 77.1437C105.855 77.1053 105.779 77.084 105.728 77.084C105.698 77.0926 105.63 77.1394 105.563 77.1906H105.567ZM101.416 74.0282C101.416 74.0282 101.386 74.0282 101.373 74.0282C101.017 74.0111 100.83 73.6958 100.664 73.4145C100.618 73.3378 100.575 73.261 100.529 73.2014C100.456 73.1076 100.431 72.9883 100.448 72.8689C100.469 72.7539 100.537 72.6516 100.635 72.5876C100.707 72.5408 100.779 72.4811 100.855 72.4257C101.08 72.2509 101.335 72.0549 101.662 72.0123C102.001 71.9739 102.226 72.2211 102.468 72.4896C102.557 72.5876 102.659 72.7027 102.778 72.8135C102.88 72.9116 102.931 73.0522 102.91 73.1886C102.889 73.3292 102.799 73.4486 102.672 73.5082C102.519 73.5807 102.388 73.6531 102.269 73.7213C101.976 73.8833 101.721 74.0282 101.42 74.0282H101.416ZM101.437 73.0522C101.458 73.0863 101.479 73.1247 101.501 73.1545C101.581 73.1247 101.687 73.0693 101.789 73.0096C101.751 72.967 101.709 72.9243 101.675 72.8903C101.602 72.9286 101.518 72.9883 101.433 73.0522H101.437ZM40.2353 70.5717C40.108 70.5717 39.9849 70.5121 39.9042 70.414C39.7727 70.2521 39.6283 70.0987 39.501 69.958C39.1402 69.5702 38.8558 69.2676 39.0044 68.8968C39.153 68.5217 39.4755 68.266 39.7599 68.0401C39.8575 67.9634 39.9552 67.8867 40.0443 67.8014C40.1292 67.7247 40.2395 67.6778 40.3542 67.6864C40.4688 67.6906 40.5749 67.746 40.6513 67.8313C40.7234 67.9123 40.8083 67.9932 40.8974 68.0742C41.1649 68.3257 41.4705 68.607 41.5002 68.9991C41.5299 69.3784 41.2625 69.6597 40.9526 69.9836C40.8338 70.1072 40.7022 70.2478 40.5749 70.4055C40.4942 70.5078 40.3711 70.5632 40.2438 70.5632L40.2353 70.5717ZM39.866 69.0886C39.9339 69.1738 40.0401 69.2846 40.1207 69.3741C40.1589 69.4125 40.1971 69.4551 40.2353 69.4977C40.2693 69.4636 40.299 69.4295 40.3287 69.3954C40.439 69.2803 40.5876 69.1227 40.6343 69.0417C40.5918 68.9607 40.4178 68.7987 40.3117 68.6965C40.3117 68.6965 40.3032 68.6879 40.299 68.6879C40.2947 68.6922 40.2862 68.6965 40.282 68.705C40.1207 68.8328 39.9594 68.9607 39.8618 69.0886H39.866ZM32.1028 70.1754C31.7081 70.1754 31.3133 69.796 31.2369 69.7151C31.0162 69.4892 30.9228 69.2804 30.9526 69.0715C31.0205 68.6155 31.4067 67.8995 31.9288 67.7844C32.2981 67.7077 32.6249 67.9293 32.9984 68.1935C33.1512 68.3001 33.3252 68.4237 33.5205 68.5388C33.6436 68.6112 33.72 68.7391 33.7285 68.8797C33.737 69.0204 33.6733 69.161 33.5587 69.2463C33.3847 69.3784 33.2361 69.5105 33.1045 69.6213C32.7947 69.8898 32.5273 70.1242 32.175 70.1711C32.1495 70.1711 32.124 70.1754 32.0986 70.1754H32.1028ZM31.8184 69.0928C31.8906 69.1738 32.0264 69.2804 32.1071 69.3145C32.2132 69.2761 32.3872 69.1227 32.5527 68.9778C32.5655 68.965 32.5782 68.9564 32.5909 68.9437C32.5655 68.9266 32.54 68.9096 32.5145 68.8925C32.3745 68.7945 32.192 68.6666 32.1028 68.6283C32.0137 68.6965 31.8821 68.901 31.8227 69.0928H31.8184ZM83.4317 66.8425C83.3553 66.8425 83.2789 66.8212 83.211 66.7786C83.1261 66.7274 83.02 66.6763 82.9139 66.6209C82.5149 66.4248 82.1414 66.2416 82.1626 65.8452C82.1838 65.4531 82.3494 65.0951 82.5064 64.7499C82.5616 64.6263 82.621 64.4984 82.6719 64.3663C82.7186 64.2512 82.812 64.1617 82.9266 64.1191C83.0412 64.0765 83.1728 64.0893 83.2789 64.1532L84.3867 64.7968C84.4843 64.8522 84.5565 64.9502 84.5862 65.061C84.6159 65.1718 84.5989 65.2911 84.5395 65.3892L83.7925 66.6294C83.7331 66.7274 83.6397 66.7956 83.5293 66.8254C83.4954 66.834 83.4614 66.8382 83.4275 66.8382L83.4317 66.8425ZM83.037 65.7301C83.1091 65.7685 83.2025 65.8196 83.2747 65.8537L83.5887 65.3252L83.2619 65.1377C83.1685 65.3465 83.0752 65.5469 83.0327 65.7301H83.037ZM44.2124 66.1052C44.2124 66.1052 44.1912 66.1052 44.1827 66.1052C43.7243 66.0924 43.3508 65.4659 43.3083 65.3934C43.2107 65.2272 43.1003 64.98 43.2277 64.7413C43.4314 64.3578 43.8941 63.9188 44.3949 63.8208C44.76 63.744 45.0146 64.0339 45.3075 64.3663C45.4179 64.4899 45.5452 64.6348 45.6937 64.7754C45.7914 64.8692 45.8381 65.0056 45.8211 65.142C45.8041 65.2784 45.7192 65.3977 45.6004 65.4616C45.4391 65.5469 45.2948 65.6406 45.1674 65.7216C44.8533 65.9219 44.5562 66.1094 44.2167 66.1094L44.2124 66.1052ZM44.0639 65.0056C44.119 65.0908 44.2039 65.1889 44.2633 65.2443C44.3737 65.2144 44.5477 65.0994 44.709 64.9971C44.7133 64.9971 44.7175 64.9928 44.7218 64.9885C44.7048 64.9715 44.6878 64.9544 44.6751 64.9331C44.6029 64.8522 44.5138 64.7541 44.4501 64.6902C44.3185 64.7499 44.1742 64.8692 44.0681 65.0056H44.0639ZM36.3558 65.8452C36.3558 65.8452 36.3176 65.8452 36.3006 65.8452C35.9696 65.8111 35.7022 65.6151 35.4687 65.4446C35.3923 65.3892 35.3159 65.3338 35.2395 65.2869C35.1419 65.2272 35.0697 65.1249 35.0443 65.0098C35.0188 64.8948 35.0443 64.7754 35.1122 64.6817C35.1546 64.6177 35.1971 64.541 35.2395 64.4601C35.3966 64.1745 35.5706 63.8463 35.9271 63.8165C36.2497 63.7909 36.5341 63.9273 36.8355 64.0765C36.9585 64.1361 37.0944 64.2043 37.2429 64.264C37.3703 64.3151 37.4679 64.4302 37.4976 64.5666C37.5273 64.703 37.4891 64.8479 37.3957 64.9502C37.2854 65.0695 37.1877 65.1931 37.1029 65.3039C36.8821 65.5852 36.6784 65.8495 36.3643 65.8495L36.3558 65.8452ZM36.0205 64.7925C36.1096 64.8564 36.203 64.9203 36.2794 64.9587C36.3176 64.9161 36.3601 64.8607 36.3983 64.8095C36.2837 64.7541 36.1691 64.6987 36.0842 64.6732C36.0629 64.7073 36.0375 64.7499 36.0163 64.7882L36.0205 64.7925ZM40.1165 61.7921C40.1165 61.7921 40.0825 61.7921 40.0655 61.7921C39.9467 61.775 39.8406 61.7111 39.7684 61.6131C39.7345 61.5662 39.692 61.5193 39.6538 61.4681C39.5052 61.2934 39.3185 61.076 39.3185 60.7777C39.3227 60.4836 39.5222 60.2876 39.709 60.0958C39.7769 60.0276 39.8533 59.9509 39.9297 59.8614C40.0146 59.7591 40.1419 59.6994 40.2693 59.7122C40.4008 59.7165 40.5197 59.7804 40.5961 59.8869C40.6682 59.985 40.7446 60.0787 40.8168 60.164C41.0333 60.424 41.254 60.6925 41.0885 61.0036C40.9569 61.2508 40.7446 61.4127 40.5579 61.5534C40.4985 61.596 40.4433 61.6429 40.3881 61.6898C40.3117 61.758 40.2098 61.7921 40.1122 61.7921H40.1165Z" fill="currentColor"/>
</svg>
