<svg width="143" height="143" viewBox="0 0 143 143" fill="none" xmlns="http://www.w3.org/2000/svg">
<path d="M73.8845 77.9631C73.9293 77.8884 73.9779 77.8175 74.0302 77.7504C74.0264 77.7317 74.0264 77.7168 74.0264 77.6981C74.0488 77.6571 74.0712 77.616 74.0974 77.5787C74.0638 77.2093 74.1049 76.9145 74.1945 76.6831C74.2654 76.5674 74.3513 76.4667 74.4521 76.3846C74.7023 76.1234 75.0683 76.0114 75.5537 76.004C75.7181 76.0002 75.9048 76.0152 76.1027 76.0338C76.4612 76.1197 76.8719 76.2465 77.3649 76.4107C76.9616 76.2689 76.6068 76.1495 76.2857 76.0525C76.6217 76.0935 76.9914 76.157 77.4171 76.2391C75.1803 75.2801 75.5537 75.1868 77.4433 75.3099C76.267 75.2539 76.6068 75.4144 77.5553 75.795C77.3275 76.0525 77.7047 76.5301 78.1416 77.2018C78.5748 77.8735 79.0677 78.7392 79.6502 79.8326C77.9698 73.9068 78.586 73.6643 81.4763 73.4105C79.7959 73.1531 80.3933 72.8807 81.3568 72.4739C81.5622 72.2911 82.1298 71.9739 82.6787 71.6231C83.7766 70.9253 84.796 70.1044 85.6885 69.1043C86.0507 68.8282 86.4055 68.5744 86.8088 68.3617C88.4183 67.5184 89.6282 66.884 89.6282 66.884L92.5035 65.3765C92.5035 65.3765 93.3363 64.9399 94.4491 64.3578C95.0055 64.0667 95.6291 63.8801 96.2714 63.6413C96.7979 63.4659 97.3245 63.2756 97.8473 63.0666C98.3663 62.8577 98.8891 62.6375 99.4007 62.3987C102.284 61.3538 103.971 60.7344 105.148 60.268C105.155 60.7978 105.148 61.3277 105.133 61.8576C104.308 65.7571 102.821 69.414 100.797 72.7053C100.506 73.1754 100.207 73.6382 99.8974 74.0934C94.3483 75.7017 96.6635 120.69 92.0218 123.783C90.9912 124.302 88.6759 84.4634 87.7685 85.1612C87.2644 85.3068 86.7677 85.5605 86.2673 85.7993C81.7563 87.9599 76.7076 89.169 71.3714 89.169C69.5827 89.169 71.0838 114.573 69.3698 114.312C68.7873 114.2 64.9559 88.5309 64.3696 88.3667C62.0955 87.3741 59.4964 87.1241 57.0953 86.2285C56.692 86.0792 56.2924 85.8665 55.9078 85.5531C53.0847 81.8924 56.3895 91.3743 52.7785 89.3145C51.2288 88.2846 43.286 75.1942 42.2554 73.2128C41.9678 72.765 41.6952 72.3135 41.4301 71.8545C38.5211 66.7982 36.8594 60.9396 36.8594 54.6893H36.8668C36.8668 35.6433 52.3155 20.2058 71.3751 20.2058C72.9398 20.2058 74.4783 20.3215 75.9907 20.523C80.5539 21.9783 84.8969 24.2583 88.7805 27.2884C88.6162 27.2324 88.4817 27.2249 88.3847 27.2884C86.7939 28.3332 90.3825 38.2965 88.7469 39.2779C87.0702 40.263 85.3748 41.1847 83.6608 42.0542C83.2351 42.2706 82.8057 42.487 82.4845 42.7035C81.9468 42.9087 81.5136 43.1177 81.9505 43.4087C80.651 43.5281 80.2216 43.7334 81.5958 44.1327C79.3552 44.1401 78.922 44.3379 81.1514 44.8305C78.291 44.629 78.0968 44.7222 80.8713 45.1439C77.7047 44.9088 77.5068 44.9984 80.6211 45.2932C79.4486 45.2559 78.6494 45.2409 78.2835 45.226C77.798 45.2372 77.7532 45.2447 78.1976 45.2372C78.4291 45.2708 79.1573 45.2857 80.2776 45.2932C79.0266 45.3417 78.1752 45.3827 77.981 45.3491C77.5628 45.3865 77.3126 45.4014 77.2678 45.3865C77.4283 45.3491 77.8391 45.2372 78.3358 45.1066C77.6487 45.2484 77.2342 45.3305 77.7383 45.2447C77.3686 45.3268 77.223 45.3715 77.264 45.3865C77.1371 45.4126 77.1707 45.3939 77.4433 45.3006C75.8861 45.532 75.5612 45.3753 76.6441 43.9237C76.3305 44.0356 76.0728 44.1028 75.8562 44.1215C75.8898 44.0804 75.9197 44.0468 75.9533 44.0058C75.8973 44.0468 75.8413 44.0841 75.7853 44.1215C75.7554 44.1215 75.7293 44.1215 75.7031 44.1215C75.8376 43.9423 75.9869 43.7408 76.155 43.5132C75.7629 43.8117 75.4791 43.961 75.2737 43.9834C75.2662 43.9759 75.2587 43.9722 75.2513 43.9647C75.3372 43.8304 75.423 43.6923 75.5239 43.5319C75.4006 43.6662 75.2886 43.7856 75.1803 43.8938C75.1467 43.8565 75.1131 43.8117 75.087 43.7632C75.2027 43.5095 75.3372 43.2184 75.494 42.8826C75.2961 43.1587 75.1318 43.3677 74.9861 43.5244C74.9749 43.4908 74.9637 43.4498 74.9563 43.4125C75.0534 43.1699 75.1616 42.905 75.2811 42.599C75.1467 42.8453 75.0235 43.0505 74.9189 43.2147C74.8629 42.8303 74.8666 42.3266 74.9002 41.6959C74.8405 42.349 74.8032 42.8677 74.8218 43.2483C74.7397 43.3938 74.6613 43.5244 74.5828 43.6476C74.3924 43.8155 74.2804 43.7334 74.2206 43.4125M73.8845 77.9631C73.6194 78.5265 73.485 79.2616 73.3319 80.1759C73.4476 79.243 73.5596 78.5004 73.8845 77.9631ZM73.8845 77.9631C73.9293 77.8698 73.9742 77.7839 74.0264 77.7018C73.9667 77.2578 74.0414 76.9331 74.1945 76.6869C74.2692 76.4854 74.3812 76.3286 74.5119 76.2129C74.7658 75.9629 75.1056 75.8883 75.5687 75.9368C75.7293 75.9555 75.9122 75.9928 76.1064 76.0376C76.1662 76.045 76.2296 76.0488 76.2931 76.0562C75.9757 75.9629 75.6919 75.892 75.4417 75.8547C74.9413 75.7801 74.5604 75.8398 74.3289 76.0674C73.9517 76.3174 73.7202 76.7391 73.9592 77.4705C73.8509 77.5638 73.7613 77.6645 73.6791 77.7727C73.6866 77.7802 73.6904 77.7877 73.6978 77.7951C73.6717 77.8101 73.653 77.825 73.6269 77.8399M73.6269 77.8399C73.2273 78.3959 73.0742 79.1534 72.9136 80.1124C72.9547 79.0191 72.9958 78.2168 73.6269 77.8399ZM73.6269 77.8399C73.6418 77.8175 73.6605 77.7951 73.6754 77.7727C73.4177 77.5041 73.2422 77.2914 73.1601 77.1235C73.0667 77.1346 72.9771 77.1458 72.895 77.1608M72.895 77.1608C72.9958 77.2503 73.1227 77.3511 73.2908 77.4668C71.5469 77.5563 71.0614 78.172 70.5984 80.1833C71.0764 78.1123 71.4759 77.3996 72.895 77.1608ZM72.895 77.1608C72.7867 77.06 72.7157 76.9779 72.6858 76.9107C72.5141 76.8398 72.3796 76.7801 72.2863 76.7316C72.1481 76.7615 72.0174 76.7913 71.8942 76.8287C72.0099 76.851 72.1481 76.8772 72.3087 76.9107C72.2153 76.9107 72.122 76.9182 72.0361 76.9219C72.1556 76.9555 72.29 76.9891 72.4468 77.0302C71.9128 77.0302 71.5021 77.0675 71.1511 77.172C71.2967 77.1981 71.4535 77.2429 71.6328 77.31C71.4535 77.2466 71.293 77.2018 71.1436 77.1757C71.0502 77.2055 70.9643 77.2391 70.8785 77.2764M70.8785 77.2764C70.266 77.6757 69.7208 78.3101 68.9292 79.3997C69.7507 78.172 70.2362 77.5675 70.8785 77.2764ZM70.8785 77.2764C70.9419 77.2354 71.0054 77.1981 71.0689 77.1608C71.0689 77.1608 71.0652 77.1608 71.0614 77.1608C70.8934 77.1421 70.7403 77.1533 70.576 77.2018M70.576 77.2018C70.1913 77.3697 69.8291 77.6309 69.3922 78.034M70.576 77.2018C70.2474 77.2988 69.8963 77.56 69.3922 78.034M70.576 77.2018C70.6245 77.1794 70.6731 77.1608 70.7216 77.1458C70.1055 77.1869 69.508 77.6235 68.2197 78.6944C69.6088 77.3921 69.5565 77.4145 68.201 78.6609C69.157 77.6197 68.8097 77.7989 67.4019 78.7691C67.8126 78.3213 67.2077 78.6422 66.5654 78.9892C66.1808 79.1795 65.7588 79.3997 65.4638 79.5527C65.1725 79.7057 65.0045 79.7915 65.0045 79.7915C65.0045 79.7915 65.1389 79.6758 65.3742 79.4706C65.6094 79.2654 65.9455 78.9743 66.2779 78.6609C66.7558 78.2728 67.2301 77.866 66.6849 77.7168C67.9881 77.2055 68.2495 76.9779 66.95 76.7466C68.6902 76.5301 68.8732 76.3062 67.5811 75.2838C68.9516 75.7838 69.4034 75.7838 69.2802 74.9591C69.1121 74.8136 68.8097 74.4852 68.3541 73.9964C68.6678 74.2054 68.9366 74.3621 69.1719 74.474C69.1383 74.3584 69.1047 74.2389 69.0599 74.1009C69.1346 74.2576 69.2018 74.3919 69.2541 74.5114C69.9188 74.8061 70.2772 74.6718 70.52 74.0822C70.3295 74.2763 69.9972 73.9218 69.3773 73.1456C69.8851 73.5449 70.281 73.78 70.5984 73.8546C70.6357 73.7314 70.6731 73.5971 70.7067 73.4441C70.6843 73.6195 70.6581 73.7576 70.6245 73.8621C70.9793 73.9367 71.2407 73.8023 71.4573 73.4814C71.3079 73.5374 71.0316 73.168 70.5349 72.5597C71.4162 73.224 71.9091 73.4852 72.1854 73.209C72.2713 73.2575 72.1406 72.7724 71.7784 71.8545C72.7344 73.0934 73.063 73.3434 72.8128 72.5784C72.712 72.347 72.5589 71.9963 72.361 71.5261C72.6933 72.8098 72.585 72.6269 72.1182 71.4515C72.29 72.1791 72.1033 71.9216 71.7373 71.2723C71.6477 71.1567 71.39 70.7089 71.1361 70.2686C70.3743 68.9513 69.6349 67.6975 69.3922 66.0929C69.0412 63.7868 68.5707 61.6039 67.6222 59.4582C66.7297 57.8984 65.6318 56.4356 64.3659 55.1221C63.4585 54.1743 62.4577 53.3235 61.386 52.5697C60.852 52.1928 60.2993 51.8421 59.8997 51.8719C59.1641 51.1853 58.5815 50.8831 57.8758 51.9279C57.3903 50.3271 56.7816 50.0733 55.2207 50.6144C55.5493 49.6181 54.922 49.4166 54.1079 49.2897C53.6486 49.0658 53.01 48.9165 52.364 48.7897C51.072 48.5396 49.7612 48.3978 48.4505 48.3568C49.7015 48.1217 51.0047 48.0583 52.3341 48.0993C52.9988 48.118 53.6747 48.1628 54.0071 48.2262C55.034 48.2784 55.7174 48.3493 54.4291 48.6926C57.0953 48.5023 57.7862 48.5844 59.8699 50.9166C59.1753 48.7374 59.8699 48.8083 62.0768 49.3867C61.2627 48.924 61.9573 48.965 62.678 49.0098C63.3465 49.0024 64.0336 48.9912 64.7207 48.9501C65.0642 48.9277 65.404 48.8979 65.3667 48.8643C65.9716 48.827 66.304 48.7859 65.897 48.6964C65.8783 48.6964 65.8633 48.6964 65.8447 48.6964C65.8111 48.6964 65.7812 48.7001 65.7476 48.7038C65.77 48.7038 65.7924 48.7001 65.8148 48.6964C65.8036 48.6964 65.7924 48.6964 65.7775 48.6964C65.8111 48.6964 65.8409 48.6926 65.8745 48.6889C65.7999 48.674 65.7102 48.6591 65.5945 48.6404C66.1509 48.6329 66.5691 48.618 66.8044 48.6105C66.9799 48.5919 67.1405 48.5732 67.2749 48.5546C67.5027 48.5098 67.6483 48.4575 67.7006 48.3866C67.6894 48.3008 67.5848 48.1851 67.3944 48.0396C67.3496 48.0396 67.3048 48.0471 67.2525 48.0433M69.3922 78.034C69.1271 78.2802 68.8246 78.5862 68.4587 78.9594C68.8171 78.5862 69.1196 78.284 69.3922 78.034ZM67.2525 48.0433C66.965 48.0545 66.4832 47.9836 65.8148 47.8642C66.4534 47.9724 66.9351 48.0433 67.2525 48.0433ZM67.2525 48.0433C67.301 48.0433 67.3459 48.0359 67.3832 48.0321C67.2039 47.8978 66.9425 47.7299 66.6027 47.5321C66.5094 47.4873 66.4198 47.4426 66.3152 47.3903C66.3824 47.4202 66.4422 47.4463 66.5056 47.4761C66.4646 47.4538 66.4272 47.4314 66.3861 47.4052C66.8567 47.5844 67.2488 47.7262 67.5662 47.8269C67.5139 47.6291 67.1965 47.2858 66.5878 46.7448C66.7708 46.8492 66.9351 46.9388 67.0919 47.0246C66.9799 46.9127 66.8604 46.797 66.7185 46.6664C67.3234 47.0619 67.7753 47.3455 68.0964 47.5097C68.3578 47.603 68.5259 47.6105 68.6043 47.5247C68.5221 47.2149 68.2906 46.7485 67.9284 46.0843C68.089 46.2746 68.2309 46.4425 68.3653 46.5955C68.2869 46.4276 68.1935 46.241 68.0852 46.032C67.8089 45.9686 67.5027 45.8641 67.1479 45.7111C66.9612 45.7036 66.767 45.6887 66.5654 45.6775C66.7932 45.6887 67.0098 45.6999 67.2189 45.6999C67.1591 45.6813 67.1031 45.6626 67.0396 45.6402C67.1106 45.6626 67.1815 45.6813 67.2488 45.6999C67.4355 45.6999 67.611 45.6962 67.7828 45.6813C67.7566 45.6589 67.7305 45.6439 67.7043 45.6216C67.7342 45.6439 67.7641 45.6589 67.794 45.6813C68.5072 45.6216 69.0935 45.4051 69.5752 44.8006C69.7134 44.9648 69.8441 45.0991 69.9673 45.2073C70.0308 45.1103 70.0905 45.0058 70.154 44.8902C70.1764 44.9349 70.1988 44.976 70.225 45.0133C70.2474 44.9835 70.266 44.9573 70.2884 44.9275C70.2884 44.9349 70.2959 44.9424 70.2996 44.9499C70.3183 44.9275 70.3333 44.9088 70.3519 44.8864C70.3669 44.9051 70.3818 44.92 70.3967 44.9387C70.4042 44.9312 70.4117 44.9275 70.4191 44.92C70.4602 44.9835 70.505 45.0432 70.5461 45.1029C70.6357 45.185 70.7216 45.2409 70.8075 45.2782C70.8486 45.2297 70.8859 45.1775 70.927 45.1253C70.9307 45.185 70.9345 45.2409 70.9419 45.2932C71.0614 45.2111 71.1772 45.0805 71.2855 44.9237C71.4685 44.7782 71.5954 44.4163 71.6066 43.9535C71.6328 43.0281 71.2033 41.7109 70.4752 39.6175C70.8075 40.3339 71.0913 40.9272 71.334 41.4086C71.1174 40.9048 70.8747 40.3526 70.6059 39.7369C71.1735 40.9235 71.6365 41.8639 72.0211 42.5841C71.8568 41.9348 71.5954 41.1474 71.2743 40.1735C71.8904 41.7221 72.2937 42.6438 72.5626 43.0206C72.7493 42.8415 72.7792 42.0542 72.7605 40.8004C72.8725 41.4049 72.9622 41.8079 73.0443 42.0542C73.0555 41.7407 73.0593 41.3638 73.0555 40.9347C73.1414 41.6847 73.2086 42.1251 73.2684 42.3266C73.2871 42.3116 73.3057 42.2893 73.3244 42.2557C73.2609 41.89 73.1974 41.4758 73.1265 41.0093C73.2049 41.4534 73.2759 41.8527 73.3468 42.2109C73.4402 42.0094 73.5335 41.5952 73.6493 41.0429C73.5372 41.7556 73.4588 42.2631 73.3879 42.4161C73.5895 43.3863 73.78 44.0058 74.0339 44.3416C74.1646 44.2297 74.3028 44.0655 74.4447 43.8565C74.3364 43.8192 74.2617 43.6699 74.2206 43.4125M74.2206 43.4125C74.2131 43.3677 74.2057 43.3154 74.1982 43.2632M74.2206 43.4125C74.2094 43.3677 74.2057 43.3154 74.1982 43.2632M74.1982 43.2632C74.1982 43.2483 74.1982 43.2371 74.1945 43.2184M74.1982 43.2632C74.1945 43.2483 74.1945 43.2333 74.1945 43.2184M74.1945 43.2184C74.187 43.1438 74.1795 43.058 74.1758 42.9647M74.1945 43.2184C74.187 43.1401 74.1795 43.058 74.1758 42.9647M74.1758 42.9647C74.1758 42.9609 74.1758 42.9535 74.1758 42.9498M74.1758 42.9647C74.1758 42.9609 74.1758 42.9572 74.1758 42.9498M74.1758 42.9498C74.1758 42.8714 74.1683 42.7856 74.1683 42.6997M74.1758 42.9498C74.1683 42.8714 74.1683 42.7893 74.1683 42.6997M74.1683 42.6997C74.1683 42.6699 74.1683 42.64 74.1683 42.6102M74.1683 42.6997C74.1683 42.6699 74.1683 42.6438 74.1683 42.6102M74.1683 42.6102C74.1683 42.5729 74.1683 42.5318 74.1683 42.4945M74.1683 42.4945C74.1683 42.1736 74.1758 41.8042 74.1907 41.3788C74.1758 41.8079 74.1683 42.1773 74.1683 42.4945Z" stroke="currentColor" stroke-miterlimit="10"/>
</svg>
