<svg width="143" height="143" viewBox="0 0 143 143" fill="none" xmlns="http://www.w3.org/2000/svg">
<g clip-path="url(#clip0_675_7125)">
<path d="M100.779 97.6664C110.306 86.8583 112.213 71.8671 107.048 58.865C106.15 59.6931 104.833 60.8371 102.583 62.775C102.198 63.1677 101.805 63.5519 101.412 63.919C101.01 64.2861 100.599 64.6447 100.189 64.9862C99.6926 65.4216 99.188 65.8057 98.786 66.2667C97.9821 67.1802 97.3835 67.8632 97.3835 67.8632L95.3052 70.2194L93.2698 72.533C92.979 72.8659 92.7481 73.216 92.5172 73.5916C92.0554 74.8039 91.4225 75.8966 90.6699 76.9126C90.2936 77.4162 89.8916 77.9029 89.7719 78.1419C89.0449 78.842 88.5917 79.2944 90.2081 78.9444C87.6851 80.1737 87.2062 80.6091 90.7811 85.3814C89.8745 84.596 89.1305 83.9813 88.5061 83.5288C87.8818 83.0764 87.3687 82.769 87.4884 82.4617C86.4963 82.4446 86.1371 82.419 87.2147 82.0605C85.4615 82.6068 85.1622 82.8117 87.5141 82.9142C87.1036 82.991 86.7444 83.0593 86.4279 83.1361C86.7529 83.1105 87.1121 83.102 87.5312 83.0849C87.0266 83.102 86.6075 83.1361 86.2569 83.1788C86.0687 83.23 85.8977 83.2813 85.7523 83.341C85.3161 83.5203 85.0254 83.7423 84.8885 84.0667C84.8286 84.1777 84.7859 84.2972 84.7602 84.4252C84.7602 84.6643 84.8201 84.946 84.9826 85.2704C84.974 85.3131 84.9655 85.3558 84.9569 85.3985C84.9569 85.4156 84.974 85.4241 84.9826 85.4412C84.9569 85.518 84.9398 85.6034 84.9227 85.6802C84.88 86.2778 85.0168 86.9949 85.1878 87.8743C84.9655 86.9864 84.8115 86.2778 84.9227 85.6802C84.9227 85.5778 84.9398 85.4839 84.9569 85.3899C84.7517 85.0058 84.7089 84.6899 84.7602 84.4167C84.7602 84.2118 84.803 84.0325 84.88 83.8789C85.0254 83.563 85.3076 83.3752 85.7352 83.2642C85.8891 83.2215 86.0687 83.1959 86.2569 83.1703C86.3168 83.1532 86.3681 83.1361 86.4365 83.1276C86.12 83.1532 85.8378 83.1874 85.5984 83.2386C85.1194 83.3496 84.7944 83.5288 84.6662 83.8106C84.4096 84.1691 84.3497 84.6301 84.8201 85.2107C84.7517 85.3302 84.7089 85.4582 84.6747 85.5778C84.6833 85.5778 84.6918 85.5778 84.7004 85.5863C84.6833 85.6034 84.6747 85.629 84.6576 85.6546C84.4866 86.2949 84.6148 87.0376 84.803 87.9511C84.4609 86.9522 84.2214 86.2095 84.6576 85.6546C84.6576 85.629 84.6747 85.6034 84.6747 85.5778C84.3497 85.4241 84.1188 85.2875 83.982 85.168C83.905 85.2107 83.828 85.2533 83.7511 85.296C83.8708 85.3387 84.0247 85.3899 84.2129 85.4412C82.6649 86.1241 82.4425 86.8498 82.7162 88.8304C82.434 86.79 82.5452 86.0132 83.7425 85.3046C83.6057 85.2533 83.5201 85.2021 83.4688 85.1509C83.2892 85.1509 83.1438 85.1424 83.0498 85.1253C82.9386 85.2021 82.8274 85.2704 82.7248 85.3473C82.836 85.3302 82.9728 85.3046 83.1267 85.279C83.0412 85.3131 82.9642 85.3473 82.8873 85.3814C83.007 85.3729 83.1438 85.3558 83.2978 85.3387C82.8189 85.5265 82.4596 85.6973 82.1774 85.9192C82.3228 85.8936 82.4768 85.8766 82.6649 85.8766C82.4853 85.8766 82.3228 85.8936 82.1774 85.9192C82.1005 85.979 82.0406 86.0388 81.9722 86.1071C81.5531 86.6791 81.288 87.4389 80.9459 88.7024C81.2623 87.3108 81.4932 86.5937 81.9722 86.1071C82.0149 86.0473 82.0577 85.9875 82.1005 85.9363C81.9465 85.979 81.8097 86.0388 81.6728 86.1412C81.3821 86.4229 81.1511 86.79 80.8946 87.3023C80.7406 87.6181 80.5696 87.9938 80.3729 88.4633C80.5696 88.0023 80.7321 87.6267 80.8946 87.3023C81.1854 86.6961 81.4163 86.3461 81.6728 86.1412C81.707 86.1071 81.7498 86.0729 81.784 86.0388C81.2367 86.2863 80.8518 86.8925 80.0564 88.3011C80.8604 86.6449 80.8176 86.6791 80.0308 88.2755C80.5354 87.0035 80.2874 87.2852 79.3466 88.6511C79.569 88.1048 79.1242 88.5999 78.671 89.1378C78.3887 89.4451 78.0809 89.7866 77.867 90.0256L77.5335 90.4013C77.5335 90.4013 77.619 90.2476 77.7559 89.9829C77.8927 89.7183 78.098 89.3341 78.2947 88.9414C78.594 88.4292 78.8762 87.8913 78.3374 87.9511C79.3381 87.0376 79.5005 86.7474 78.2434 86.9779C79.74 86.1839 79.8341 85.9192 78.3118 85.4326C79.7229 85.407 80.1334 85.2534 79.74 84.5533C79.5348 84.4765 79.1499 84.2887 78.5683 84.0069C78.9275 84.0838 79.2269 84.135 79.4749 84.1606C79.4065 84.0667 79.3295 83.9728 79.244 83.8618C79.3637 83.9813 79.4749 84.0752 79.5604 84.1691C80.2617 84.2033 80.5439 83.9642 80.561 83.341C80.4584 83.5801 80.0308 83.3752 79.2012 82.8886C79.7999 83.0764 80.236 83.1447 80.5525 83.102C80.5525 82.9739 80.5354 82.8459 80.5097 82.6922C80.5525 82.8544 80.5696 82.991 80.5781 83.102C80.9288 83.0422 81.1169 82.8373 81.2025 82.4702C81.0827 82.5727 80.7064 82.3336 80.0479 81.958C81.0742 82.2568 81.613 82.3166 81.7669 81.9751C81.861 81.9922 81.5702 81.5995 80.9288 80.8909C82.2202 81.6763 82.605 81.7958 82.1176 81.1897C81.9465 81.0189 81.6899 80.7543 81.3393 80.3957C82.0834 81.4372 81.9209 81.3092 81.0913 80.4128C81.5018 81.0104 81.2367 80.8396 80.6893 80.3786C80.5696 80.3018 80.1847 79.9859 79.7999 79.6786C78.6539 78.748 77.5506 77.8773 76.7724 76.5113C75.652 74.5478 74.4718 72.7379 72.8725 71.1244C71.5212 70.0231 70.0246 69.0755 68.4253 68.3327C67.2707 67.7863 66.0734 67.368 64.8419 67.0521C64.2261 66.8985 63.6018 66.7704 63.2511 66.9326C62.3446 66.5655 61.7117 66.4972 61.438 67.6839C60.446 66.4033 59.8045 66.3863 58.5816 67.4192C58.5302 66.4033 57.8974 66.4375 57.1191 66.6082C56.6316 66.5655 55.9988 66.6509 55.3659 66.7619C54.1087 66.9839 52.8772 67.3083 51.6798 67.7266C52.7318 67.0778 53.8863 66.5741 55.1008 66.1472C55.708 65.9338 56.3323 65.7374 56.6573 65.6862C57.6066 65.3789 58.248 65.2081 57.2046 65.9594C59.548 64.8666 60.2065 64.6959 62.9005 66.0875C61.515 64.3544 62.1735 64.1837 64.3629 63.9446C63.4649 63.808 64.1064 63.6031 64.7734 63.3983C65.3721 63.1592 65.9964 62.9116 66.6036 62.6384C66.903 62.5019 67.2023 62.3567 67.1595 62.3396C67.6983 62.0921 67.9806 61.9384 67.5786 62.0067C67.5615 62.0067 67.5444 62.0238 67.5273 62.0238C67.5016 62.0408 67.4674 62.0494 67.4418 62.0665C67.4589 62.0579 67.476 62.0494 67.5016 62.0408C67.4931 62.0408 67.4845 62.0494 67.4674 62.0579C67.5016 62.0408 67.5273 62.0323 67.5529 62.0152C67.4845 62.0238 67.3905 62.0408 67.2793 62.0665C67.7839 61.8701 68.1516 61.7079 68.3654 61.6225C68.5194 61.5457 68.6562 61.4689 68.7759 61.4091C68.9641 61.2896 69.0753 61.1957 69.1009 61.1103C69.0582 61.0335 68.9299 60.9652 68.699 60.9054C68.6647 60.9225 68.622 60.9396 68.5707 60.9566C68.3141 61.0676 67.8523 61.1701 67.2109 61.2896C67.8266 61.1701 68.2884 61.0591 68.5707 60.9566C68.6134 60.9396 68.6562 60.9225 68.6819 60.8969C68.468 60.8371 68.1773 60.7773 67.801 60.7176C67.6983 60.709 67.6043 60.7005 67.4931 60.692C67.5615 60.692 67.6299 60.692 67.6983 60.7005C67.6556 60.7005 67.6128 60.6834 67.5615 60.6749C68.049 60.6749 68.4509 60.6749 68.7759 60.6493C68.6648 60.4871 68.2542 60.2907 67.5187 60.009C67.724 60.0432 67.9036 60.0688 68.0746 60.0858C67.9378 60.0261 67.7839 59.9578 67.6128 59.8895C68.297 60.0346 68.8016 60.1371 69.1522 60.1712C69.4174 60.1712 69.5713 60.1114 69.6141 60.009C69.4345 59.7614 69.0582 59.4199 68.5023 58.9419C68.7161 59.0614 68.9042 59.1638 69.0753 59.2577C68.947 59.1382 68.793 58.9931 68.6305 58.8479C68.3569 58.8906 68.049 58.8992 67.6727 58.8821C67.5016 58.9419 67.322 58.9931 67.1339 59.0528C67.3477 58.9845 67.5444 58.9162 67.7325 58.8479C67.6727 58.8479 67.6128 58.848 67.5529 58.8565C67.6299 58.8565 67.6983 58.848 67.7668 58.8394C67.9378 58.7797 68.0917 58.7114 68.2457 58.6431C68.2115 58.6345 68.1858 58.626 68.1516 58.6174C68.1858 58.6174 68.22 58.6345 68.2542 58.6431C68.8786 58.3443 69.3318 57.943 69.5627 57.2344C69.7423 57.3369 69.9134 57.4137 70.0588 57.4649C70.0844 57.3539 70.1015 57.243 70.1186 57.1149C70.1529 57.1491 70.1871 57.1747 70.2213 57.2003C70.2298 57.1661 70.2384 57.132 70.2469 57.0978C70.2469 57.0978 70.2555 57.1064 70.264 57.1149C70.264 57.0893 70.2811 57.0637 70.2897 57.0381C70.3068 57.0466 70.3239 57.0637 70.3496 57.0722C70.3496 57.0722 70.3581 57.0552 70.3667 57.0466C70.4265 57.0893 70.4864 57.132 70.5463 57.1661C70.6574 57.2088 70.7515 57.2344 70.8456 57.2344C70.8627 57.1747 70.8798 57.1149 70.8969 57.0551C70.9226 57.1064 70.9482 57.1576 70.9653 57.2003C71.0423 57.0893 71.1022 56.9271 71.1535 56.7478C71.2732 56.5515 71.2561 56.1844 71.1107 55.7575C70.8114 54.9123 69.9647 53.8708 68.5878 52.2317C69.1351 52.761 69.597 53.2049 69.9904 53.5549C69.6226 53.1793 69.2121 52.761 68.7503 52.3C69.6739 53.1793 70.418 53.8708 71.0166 54.383C70.6403 53.8537 70.1358 53.2305 69.5029 52.4622C70.5976 53.6488 71.2818 54.3403 71.6581 54.5879C71.7607 54.3659 71.5212 53.6403 71.068 52.5134C71.3758 53.0256 71.5982 53.35 71.7607 53.5464C71.6581 53.2561 71.5298 52.9232 71.3844 52.5305C71.7265 53.1793 71.9317 53.5549 72.06 53.7171C72.0686 53.7 72.0771 53.6744 72.0857 53.6318C71.8975 53.3244 71.7008 52.9744 71.4785 52.5731C71.7008 52.9488 71.9061 53.2817 72.0942 53.5805C72.1028 53.3671 72.0515 52.9573 71.966 52.4195C72.1113 53.1024 72.214 53.5891 72.2054 53.7513C72.7186 54.5538 73.112 55.0489 73.4541 55.2623C73.531 55.1172 73.5994 54.9209 73.6593 54.6818C73.5481 54.6818 73.4284 54.5794 73.3001 54.3574C73.2745 54.3233 73.2573 54.272 73.2317 54.2294C73.2317 54.2123 73.2146 54.2037 73.2146 54.1952C73.1804 54.1269 73.1462 54.0586 73.112 53.9732C73.112 53.9732 73.112 53.9647 73.112 53.9562C73.0777 53.8879 73.0521 53.811 73.0179 53.7342C73.0093 53.7086 72.9922 53.683 72.9837 53.6488C72.9922 53.6744 73.0093 53.7001 73.0179 53.7342C73.0521 53.811 73.0777 53.8879 73.112 53.9562C73.112 53.9562 73.112 53.9647 73.112 53.9732C73.1462 54.0501 73.1804 54.1269 73.2146 54.1952C73.2146 54.2123 73.2317 54.2208 73.2317 54.2294C73.2573 54.272 73.283 54.3147 73.3001 54.3574C73.4626 54.6221 73.5909 54.6647 73.7106 54.4428C73.7363 54.3062 73.7619 54.1611 73.7876 53.9988C73.6422 53.6574 73.4883 53.1793 73.3258 52.5731C73.5139 53.1537 73.685 53.6147 73.8731 53.9391C73.9159 53.7513 73.9501 53.5293 73.9843 53.2561C73.9843 53.572 73.9843 53.8537 73.9757 54.1013C74.0014 54.1354 74.0185 54.1611 74.0442 54.1952C74.1211 53.9989 74.1981 53.7598 74.2836 53.4439C74.258 53.8025 74.2409 54.1098 74.2238 54.383C74.2665 54.4172 74.3093 54.4428 74.3521 54.4684C74.4119 54.3318 74.4718 54.1867 74.5402 54.0245C74.506 54.2037 74.4718 54.3574 74.4461 54.5111C74.4547 54.5111 74.4632 54.5111 74.4718 54.5111C74.6514 54.4257 74.8566 54.1867 75.1047 53.7769C75.0277 54.0415 74.9678 54.272 74.9079 54.4855C74.9336 54.4855 74.9593 54.4684 74.9764 54.4599C75.0106 54.4086 75.0533 54.3574 75.0875 54.2977C75.0704 54.3489 75.0533 54.3916 75.0362 54.4342C75.2244 54.3403 75.4382 54.1952 75.6777 53.9818C75.1987 55.6721 75.5494 55.6977 76.8835 54.9465C76.6697 55.1258 76.6441 55.1514 76.7553 55.0831C76.7125 55.0831 76.8322 54.9977 77.1316 54.7928C76.7039 55.0404 77.0546 54.827 77.619 54.4599C77.2171 54.7501 76.8835 54.9977 76.7467 55.0831C76.7895 55.0831 77.0118 54.9806 77.3796 54.8013C77.5677 54.7672 78.3203 54.4342 79.4407 53.9562C78.423 54.3403 77.7644 54.5708 77.5421 54.6221C77.1401 54.7843 77.1829 54.7587 77.619 54.5794C77.9526 54.4684 78.6881 54.2037 79.7571 53.8281C76.8408 54.6391 76.9862 54.4855 79.9367 53.6061C77.2769 54.1867 77.4223 54.033 80.0821 53.222C77.8927 53.5464 78.2177 53.222 80.2446 52.4366C78.8591 52.5561 79.1841 52.2146 80.313 51.6597C79.817 51.5487 80.1334 51.2072 80.5525 50.8401C80.7663 50.5328 81.0827 50.1913 81.3906 49.8498C82.6392 48.4668 83.8537 47.0496 85.0253 45.5812C86.1628 44.1299 79.4578 36.3696 80.5439 34.8671C80.6124 34.7732 80.7321 34.739 80.9031 34.7305C66.8346 30.4278 51.2779 34.0561 41.323 45.3507C27.5452 60.9822 29.7004 85.3643 46.1465 99.8177C62.5926 114.271 87.095 113.315 100.881 97.6834L100.779 97.6664Z" fill="currentColor"/>
</g>
<defs>
<clipPath id="clip0_675_7125">
<rect width="142.1" height="142.1" fill="white"/>
</clipPath>
</defs>
</svg>
