<svg width="143" height="143" viewBox="0 0 143 143" fill="none" xmlns="http://www.w3.org/2000/svg">
<path d="M68.4456 15.3232C69.3069 27.0634 69.2227 28.5012 63.387 21.1437C68.0942 30.3554 67.0498 38.2087 54.8488 38.5309C66.05 40.2117 66.0896 41.7932 59.6847 50.8512C64.6739 45.7397 63.2187 48.1046 59.6946 53.4045C61.5507 51.4412 61.3329 52.408 60.3083 54.6093C60.1351 55.3381 59.155 57.2964 58.1502 59.2994C56.8138 61.9667 55.4378 64.7084 54.0767 67.4253C52.7105 70.1472 51.3642 72.8393 51.0524 70.9851C48.7854 77.9806 47.5579 80.4248 42.0638 83.0872C45.3305 84.872 26.8039 103.33 23.3242 108.214C41.3361 91.0991 26.299 109.627 24.9527 111.823C25.3585 111.506 30.9368 104.024 25.9674 112.006C26.3336 111.456 42.6726 88.0153 28.1749 111.759C30.1548 109.022 31.219 108.338 30.9368 111.476C32.892 106.414 33.4958 105.174 32.5405 108.799C35.1787 104.099 36.8666 97.1527 39.3117 108.6C36.8468 103.623 50.8841 85.2835 52.5472 86.7164C51.483 84.8869 50.1268 88.6351 54.9428 91.2528C50.7059 88.1492 50.3 87.1824 54.4182 84.9613C51.2009 86.642 52.3591 87.1279 57.2841 87.9757C52.6858 86.8849 51.8493 86.1611 55.1062 83.7962C51.4484 86.1908 52.5125 86.6866 57.7097 86.8502C53.6708 86.1066 56.106 81.7486 59.7985 78.4417C56.5911 81.471 54.636 85.5414 58.4373 85.4868C54.4924 85.5761 56.2991 81.5354 59.5263 78.5012C56.4129 81.2677 54.7201 85.0406 58.5611 84.5448C55.1804 84.7283 57.3335 80.6529 60.1846 78.0302C56.8881 80.4199 54.2895 84.2672 57.9325 83.6623C53.1362 84.525 54.5815 80.9355 58.2047 78.1641C54.6805 80.8711 53.3292 84.401 58.0463 83.4789C54.6756 84.0738 57.3682 80.2166 60.4321 78.0104C57.8681 80.41 55.6754 84.4556 58.7145 84.2374C55.0765 84.8026 56.6703 81.0991 59.5758 78.4665C56.6109 81.3222 54.9478 85.2488 58.67 84.9712C55.3586 85.1051 57.4276 81.0446 60.2341 78.2979C56.9178 81.3123 54.334 85.6455 58.0067 86.1313C52.9036 86.2999 51.7156 85.9033 55.2398 83.5136C51.973 85.7744 53.3936 86.052 58.1799 85.7793C54.5568 85.4521 56.6406 81.3024 59.551 78.4714C56.7643 81.0545 55.3982 84.6589 58.9323 84.0143C56.5416 84.1581 59.061 80.058 61.0953 78.0798C58.957 79.6365 58.6848 80.0381 60.9864 79.4035C62.501 79.0664 44.9593 89.8646 59.0659 77.6088C57.2692 79.4234 57.8731 78.4367 59.9668 76.285C57.3237 77.2022 56.898 76.8403 58.7046 74.6341C55.6507 76.1413 54.829 75.7992 56.0813 72.5468C55.9229 75.695 57.5018 75.9082 59.6698 75.0109C58.2294 76.5131 57.3731 76.9048 57.8236 74.8473C57.5513 77.1477 59.6797 76.88 61.5606 76.3544C61.9467 76.528 62.0853 76.4387 61.6843 76.1611C60.1351 76.4288 58.0414 76.5081 57.5167 74.0441C57.586 76.2355 59.7737 75.8537 61.62 75.1993C62.8624 74.877 63.7681 74.287 64.0899 73.4442C64.7333 71.7585 63.0405 69.0763 59.4718 64.2176C66.8221 70.8661 66.6637 68.8135 64.7086 60.8215C67.1389 69.463 67.6685 71.6742 62.9712 62.0361C68.4159 73.8656 68.6287 73.8408 66.8172 60.8463C68.9257 71.5503 69 69.2845 69.0297 60.1472C69 69.2895 68.9554 71.5503 68.3021 60.6827C69.1287 73.8557 69.3514 64.8274 72.7865 52.051C70.2423 62.7055 70.9155 60.5438 73.6032 51.7436C71.3016 60.7818 71.0194 72.2543 81.3346 67.3163C78.0876 70.0133 76.0236 71.8924 75.1178 73.2905C74.212 74.6886 74.4694 75.6008 75.781 75.4124C76.5235 76.2702 77.5332 76.8502 78.8251 77.1378C80.2457 77.5146 81.9533 77.5989 83.161 76.4189C81.889 77.5047 80.4684 77.3807 79.5181 76.9543C78.8746 76.756 78.7014 76.2553 78.9835 75.5413C79.132 75.8537 79.7359 75.9479 80.5229 75.7942C81.6167 75.9132 82.8938 75.7843 83.854 74.877C83.1957 75.9677 82.2206 76.285 81.1911 76.1066C80.8644 76.5825 80.4882 76.5676 80.3298 76.0867C80.1318 77.3906 80.1467 78.2384 80.1219 78.3029C81.3297 79.1655 82.4978 79.2548 83.067 77.5889C82.2503 79.7258 80.8396 80.1125 79.3844 79.5721C79.2359 79.6911 79.0478 78.8829 79.1815 77.232C78.9439 79.2796 79.033 80.4843 79.0429 80.6479C80.5476 81.4115 81.9731 81.1338 82.5918 78.8284C81.9335 81.228 81.1515 81.9816 80.0427 81.7139C81.9781 82.4923 83.5818 82.2493 83.8787 79.6812C83.8243 82.3733 82.4483 82.7352 80.1714 81.7783C81.1069 81.9271 81.1515 80.7471 80.9485 78.0599C80.7555 80.5736 80.315 81.58 79.5131 81.3768C81.0129 82.0014 82.1464 81.4164 82.5572 78.8433C82.0771 81.2082 80.8693 81.585 79.424 80.8314C79.9338 80.8611 80.2011 79.7555 80.4734 77.4848C80.602 79.5176 80.7357 80.3852 80.2457 80.0084C82.0969 80.8165 83.3293 80.3802 83.5719 77.8963C83.4234 80.4447 82.2948 80.9355 80.4288 80.1224C81.1564 80.6083 81.1465 79.7853 80.9634 77.6137C80.8099 80.058 80.4783 81.1487 79.6963 81.0148C81.2505 81.8031 82.3493 81.3619 82.6364 78.8681C81.9286 81.3222 81.097 82.1006 79.9883 81.8775C81.9385 82.6658 83.6065 82.4526 83.9777 79.9439C83.9777 82.7947 83.0818 83.5086 81.0277 83.2012C83.5471 83.9697 84.8984 83.7119 84.7746 81.4115C85.7646 84.2424 85.2201 84.996 82.676 85.1546C85.8042 85.6504 86.9327 85.5513 86.7694 84.7382C87.6207 85.9677 87.1752 86.4834 84.7845 87.5245C87.6653 87.113 88.6057 87.2221 88.9522 88.5359C90.3628 88.2979 114.206 120.593 116.68 124.228C116.68 122.225 77.2462 68.1343 120.591 125.854C71.6679 57.4204 122.358 125.407 123.348 126.647C117.071 117.177 97.0053 91.3371 127.609 126.26C125.728 123.677 99.3416 95.6455 112.978 102.919C109.86 99.5622 93.5306 84.8423 93.1 80.3306C91.3033 80.3951 90.0758 77.9509 88.3879 73.8656C87.5019 72.8096 86.1507 70.1175 84.7895 67.4006C83.4283 64.6836 82.0523 61.9419 80.7159 59.2697C79.7111 57.2667 78.7311 55.3083 78.5925 54.7283C77.5134 52.4278 77.2808 51.5057 79.0825 53.6921C75.6128 48.169 74.1724 45.7545 78.7311 51.3768C72.6281 41.7486 72.5192 40.1571 83.6511 38.293C71.5194 38.1541 70.6235 30.3158 72.3905 20.2662C69.5147 28.4714 69.3069 27.0337 68.4456 15.2935V15.3232Z" fill="currentColor"/>
</svg>
