<svg width="143" height="143" viewBox="0 0 143 143" fill="none" xmlns="http://www.w3.org/2000/svg">
<g clip-path="url(#clip0_675_2853)">
<g clip-path="url(#clip1_675_2853)">
<path d="M42.5951 100.436C47.4517 99.7054 51.5847 95.428 55.4956 92.7617C60.1059 89.6191 65.0732 86.4445 68.206 81.6988C69.3027 80.0353 69.776 78.3523 69.4478 76.6933C69.3503 74.8068 68.3872 71.1537 65.198 72.5691C60.3892 75.2377 41.9111 93.8886 37.2083 96.9682C30.0084 102.554 21.0051 105.423 14.0075 110.699C13.9497 110.842 13.8874 110.98 13.8296 111.123C15.795 111.464 41.0677 100.667 42.5951 100.436Z" fill="currentColor"/>
<path d="M58.8013 97.6401C55.0375 102.485 49.5754 105.304 47.9699 110.535C47.8538 111.842 48.4702 113.103 49.2457 114.628C49.707 115.232 50.1719 115.757 50.5776 116.306C50.9832 116.856 51.3341 117.424 51.6682 117.749C52.0578 117.043 52.6456 116.078 53.3123 115.181C55.3123 112.498 57.9938 110.443 60.4844 108.138C64.2563 104.64 67.6705 100.766 70.9277 96.7838C75.9893 90.5977 79.7027 83.2422 73.4903 76.1282C71.9969 80.4451 69.8554 84.2479 67.3254 87.7625C64.7908 91.2725 61.8676 94.4943 58.8059 97.6354L58.8013 97.6401Z" fill="currentColor"/>
<path d="M98.7896 43.425C94.0933 44.8642 90.641 49.7056 87.168 52.9252C83.0745 56.7164 78.6339 60.5945 76.2394 65.7431C75.4011 67.5499 75.1851 69.2846 75.7553 70.8809C76.1318 72.7318 77.6286 76.1994 80.5691 74.3244C84.9294 70.9743 100.438 49.7909 104.633 46.0443C110.922 39.453 119.404 35.2803 125.537 29.0255C125.572 28.8784 125.616 28.7313 125.651 28.5842C123.657 28.541 100.268 42.9662 98.7895 43.4158L98.7896 43.425Z" fill="currentColor"/>
<path d="M83.1707 48.5861C86.1766 43.2373 91.1569 39.6409 91.9719 34.2285C91.891 32.9191 91.0973 31.7655 90.1034 30.3624C89.5606 29.8333 89.0233 29.382 88.5406 28.9025C88.058 28.423 87.6253 27.9108 87.2462 27.6407C86.9672 28.4003 86.5269 29.4369 85.9989 30.4241C84.4192 33.3722 82.0723 35.7985 79.9528 38.4556C76.742 42.4737 73.9339 46.812 71.31 51.2304C67.2193 58.1006 64.6345 65.9228 71.8375 72.039C72.6736 67.5518 74.2295 63.4678 76.21 59.6166C78.1951 55.77 80.6137 52.1468 83.1661 48.5907L83.1707 48.5861Z" fill="currentColor"/>
</g>
</g>
<defs>
<clipPath id="clip0_675_2853">
<rect width="142.1" height="142.1" fill="white"/>
</clipPath>
<clipPath id="clip1_675_2853">
<rect width="141.959" height="59.9648" fill="white" transform="translate(0 101) rotate(-45.7333)"/>
</clipPath>
</defs>
</svg>
