<svg width="143" height="143" viewBox="0 0 143 143" fill="none" xmlns="http://www.w3.org/2000/svg">
<path d="M62.7195 82.0814C66.9188 76.5533 66.8821 68.1514 68.2116 61.5982C69.7795 53.8736 71.6774 45.7645 70.1646 37.8751C69.6328 35.1111 68.45 32.9419 66.4787 31.5874C64.5166 29.7752 59.9322 27.0294 58.0984 31.6057C55.8612 39.0466 55.5586 76.1323 53.8349 83.8844C52.0561 96.6337 45.7663 108.413 43.8867 120.65C43.9692 120.851 44.0426 121.052 44.1251 121.254C46.454 119.661 61.3992 83.8203 62.7195 82.0814Z" fill="currentColor"/>
<path d="M76.3905 63.2737C77.3624 71.8861 74.6118 80.1233 78.1509 86.9968C79.3245 88.4337 81.195 89.1019 83.4872 89.8798C84.5508 90.0354 85.541 90.1086 86.4946 90.2642C87.4481 90.4198 88.365 90.6486 89.0252 90.6486C88.7226 89.5503 88.365 87.9944 88.1541 86.4293C87.5306 81.7433 88.2183 77.0206 88.4659 72.2339C88.8326 64.976 88.4659 57.6907 87.8332 50.4511C86.8521 39.2028 83.3496 28.1009 70.0273 27.03C72.778 32.8693 74.3642 38.8275 75.2719 44.8773C76.1705 50.927 76.3905 57.0683 76.3905 63.2645V63.2737Z" fill="currentColor"/>
</svg>
