<svg width="143" height="143" viewBox="0 0 143 143" fill="none" xmlns="http://www.w3.org/2000/svg">
<path d="M49.7805 31.676C49.9573 31.6022 50.0996 31.5457 50.2118 31.5066C49.7374 31.55 49.1725 31.6022 48.5213 31.663C48.5084 31.6891 48.4868 31.7195 48.4609 31.7542C48.9267 31.7282 49.3665 31.7021 49.7805 31.676Z" fill="currentColor"/>
<path d="M48.0898 31.7062C48.2365 31.6932 48.3788 31.6801 48.5168 31.6671C48.6073 31.4933 48.4391 31.5107 48.0898 31.7062Z" fill="currentColor"/>
<path d="M50.2109 31.5059C50.2799 31.5016 50.3446 31.4929 50.4093 31.4886C50.5473 31.4017 50.474 31.4104 50.2109 31.5059Z" fill="currentColor"/>
<path d="M52.0347 31.4927C52.4703 31.3276 51.9873 31.345 50.409 31.484C50.3486 31.5231 50.2408 31.5796 50.0898 31.6534C50.8143 31.6056 51.4569 31.5535 52.0347 31.4927Z" fill="currentColor"/>
<path d="M61.6739 79.8778C61.5618 79.6041 61.4626 79.313 61.3203 79.0176C61.3203 79.4216 61.3246 79.8213 61.6739 79.8778Z" fill="currentColor"/>
<path d="M47.5352 32.7799C47.7939 32.706 48.0397 32.6365 48.2812 32.567C48.3157 32.5149 48.3459 32.4714 48.3761 32.428C48.1216 32.5366 47.8413 32.6539 47.5352 32.7799Z" fill="currentColor"/>
<path d="M46.125 31.8893C46.7719 31.8545 47.3756 31.8197 47.9448 31.7893C47.9923 31.7589 48.0397 31.7329 48.0871 31.7068C47.5007 31.7633 46.8495 31.8241 46.125 31.8893Z" fill="currentColor"/>
<path d="M46.8207 32.5843C46.8466 32.5626 46.8682 32.5452 46.894 32.5278C46.8725 32.48 46.8466 32.4366 46.8164 32.3975C46.8207 32.4539 46.825 32.5148 46.8207 32.5843Z" fill="currentColor"/>
<path d="M45.1172 32.5137C45.8244 32.1358 46.4928 31.975 46.8163 32.3964C46.743 31.6535 45.9624 31.9272 45.1172 32.5137Z" fill="currentColor"/>
<path d="M47.9102 33.0311C48.57 32.6749 49.1133 32.4055 49.5359 32.2144C49.1564 32.3186 48.7338 32.4359 48.2853 32.5663C48.1905 32.7009 48.0697 32.853 47.9145 33.0311H47.9102Z" fill="currentColor"/>
<path d="M89.8069 65.8068C89.5525 65.9545 89.2938 66.0935 89.0393 66.2239C88.7849 66.3542 88.5132 66.4324 88.1467 66.3846C87.7801 66.3368 87.3963 66.2804 87.0643 66.2369C86.771 66.0631 86.439 65.9936 86.0638 65.885C84.6062 65.5461 82.8812 65.5461 82.45 64.2428C82.45 63.8083 83.3125 63.3739 83.7523 63.3131C83.9292 63.0176 84.0758 62.6831 84.1103 62.253C84.7916 53.7465 85.2962 54.1506 91.0748 50.1754C91.851 43.1547 93.8649 36.5337 96.8836 30.5644C92.4892 30.0995 92.8644 30.5904 80.8286 30.3254C80.0135 30.3602 79.1942 30.4297 78.2842 30.4905C75.8176 30.4948 73.3336 30.812 70.8152 31.2073C69.9743 31.3377 69.1334 31.4767 69.2067 31.4115C67.8612 31.6852 67.4343 31.7547 68.9436 31.3551C66.589 31.8938 66.1708 31.9546 68.6849 31.1422C65.3083 32.0893 64.8684 32.1544 68.2752 30.1603C64.2862 32.1892 64.1396 32.1588 67.2963 27.81C63.4583 32.1848 62.9235 32.25 57.6926 31.2855C62.5699 32.0241 62.751 31.7417 60.5819 25.8723C62.2637 31.6765 61.591 31.8938 57.5805 31.0249C60.1162 31.3464 60.7587 31.0509 60.004 29.3262C60.2197 30.1777 59.6073 30.3558 58.1583 30.1951C58.1023 29.9561 57.822 29.6173 57.4339 29.1785C57.4209 28.4833 56.9811 27.3885 56.4593 25.9462C56.7741 30.0691 56.3859 31.0379 52.0347 31.4984C51.7933 31.5897 51.2585 31.7417 50.4823 31.9589C50.4262 32.1066 49.8441 32.5454 48.5891 33.3057C53.1905 31.5636 53.9753 31.6548 49.6888 33.7445C55.5019 31.9589 56.2436 32.1675 51.6423 34.5787C57.671 32.7105 58.3567 33.0537 57.1104 35.8342C57.8694 35.1261 58.4171 34.6873 58.5637 34.6351C59.2623 34.3136 59.5599 34.3832 59.0596 35.1217C59.6892 35.0479 60.0127 35.2303 60.1636 35.6431C60.086 35.7213 59.9911 35.8255 59.8747 35.9689C59.9954 35.895 60.1032 35.8429 60.2024 35.7951C60.2585 36.0297 60.28 36.3165 60.2714 36.664C60.362 36.2296 60.4266 35.9037 60.4353 35.7126C61.1209 35.5344 61.384 36.1166 61.5479 37.3504C61.5565 37.32 61.5608 37.2896 61.5694 37.2592C62.1689 36.6119 62.419 37.0333 62.6001 37.9109C62.7381 37.685 62.8114 37.9239 62.8718 38.2845C62.9666 38.5104 63.0486 38.858 63.1133 39.2142C63.2426 39.9224 63.2901 40.6479 63.2901 41.3691C63.1823 43.7586 62.5915 46.0394 61.8023 48.2681C61.2029 49.9103 60.487 51.5526 59.7712 53.2078C59.1976 55.2584 58.637 57.422 58.0117 59.6116C57.8651 60.0504 57.7185 60.4892 57.5417 60.9279C56.5671 63.3826 53.5484 64.2515 53.9796 67.2926C54.4109 69.4649 56.9983 68.596 56.9983 70.3338C57.4295 72.0672 55.7132 72.5017 53.9969 72.9361C53.3241 72.9361 52.6255 72.9187 52.121 73.3401C51.8019 73.6529 51.4353 73.9571 50.9782 74.2655C49.1498 75.5124 45.8939 76.8983 38.6836 79.5875C56.4291 76.1727 49.2533 76.3031 52.0606 74.6391C56.7396 74.7521 52.3194 76.2466 39.1062 83.2716C59.7324 72.9187 50.9955 111.667 49.9691 122.463C55.144 111.811 54.0357 98.6033 57.2269 102.431C55.6873 97.7301 53.4104 75.5689 56.3299 75.1431C55.7132 74.9389 55.6744 74.7521 55.959 74.5696C57.4339 73.805 58.7276 73.3705 60.0213 72.5017H59.59C59.8057 72.5017 60.0213 72.393 60.2369 72.2323C60.4353 72.1932 60.6164 72.2453 60.776 72.367C60.8838 75.1083 60.4525 77.715 61.7462 79.8873C61.7161 79.8873 61.6945 79.8786 61.6686 79.8786C61.8929 80.4216 62.1818 80.9039 63.04 81.1906C60.5646 78.345 61.8584 74.3307 64.0663 71.5372C63.4928 72.0585 62.9063 72.6016 62.6173 73.3401C62.9968 72.367 63.8032 71.6719 64.5622 70.942C64.7908 70.6857 65.028 70.4424 65.2695 70.2165C65.4075 70.0557 65.5411 69.895 65.6576 69.7212C66.0974 69.4127 66.5632 69.1955 67.3523 69.4562L66.9211 69.0217C68.4606 69.2824 69.1204 72.7536 69.4482 73.9136C70.2244 76.6463 70.785 79.4354 71.5052 82.1812C71.7812 83.2282 73.8684 82.0943 74.3858 83.0501C74.4505 83.1717 74.5238 83.2933 74.636 83.3759C74.9076 83.5714 74.7481 100.771 75.037 100.697C75.3173 100.628 75.589 100.545 75.8348 100.545C76.1237 100.758 76.555 109.856 76.9862 110.29C77.4218 109.556 77.3485 99.3549 77.3441 98.5381C77.3312 97.0654 76.1798 80.4303 76.0159 78.9706C75.6451 75.6905 75.0888 72.4235 74.4505 69.1868C74.4074 68.9696 74.3643 68.7524 74.3212 68.5351C74.2996 68.4309 74.278 68.3179 74.2004 68.2397C74.1357 68.1745 74.0452 68.1441 73.9589 68.1094C72.3332 67.436 73.6657 65.5592 74.7308 65.103C74.7869 65.0813 74.8473 65.0552 74.9076 65.0769C74.9723 65.0987 75.0068 65.1638 75.0413 65.2203C76.4213 67.8226 76.9215 70.8898 77.5037 73.7659C77.8228 75.3429 78.1506 76.92 78.3964 78.5101C78.6163 79.9698 79.5348 96.7482 80.1946 98.0907C80.2421 98.1862 80.2938 98.2818 80.3844 98.3426C80.7897 98.6076 80.876 97.83 80.8846 97.6084C80.8976 97.1001 80.7811 96.5962 80.7768 96.0878C80.7639 92.9729 79.6081 74.713 79.4357 71.6023C79.3623 70.2556 79.8238 69.782 80.6776 68.8436C81.2382 68.231 81.8377 67.6445 82.5233 67.1753C83.14 66.7539 83.8257 66.415 84.5717 66.3021C84.9426 66.2456 85.3177 66.2499 85.6886 66.3108C86.0422 66.3672 86.5382 66.7105 86.8616 66.7061C87.2713 66.6974 87.6896 66.7539 88.1165 66.8886C88.5391 67.0233 88.9703 67.2318 89.4102 67.5316C89.7466 67.4838 90.0786 67.4316 90.415 67.3795C90.1951 66.3455 89.9881 65.7069 89.8113 65.8068H89.8069ZM58.1497 30.3689C59.534 30.9814 59.0855 30.964 57.4813 30.6121C57.8867 30.5861 58.0893 30.5035 58.1497 30.3689ZM61.6039 37.1506C61.8411 36.3078 61.798 36.3251 61.6039 37.1506ZM54.0271 72.9318C54.4669 72.91 55.2949 72.5017 55.7132 72.5017C55.2949 72.9231 54.6696 72.9361 54.0271 72.9318ZM69.4956 65.0248C69.2584 65.3289 68.9609 65.5461 68.5986 65.6852C66.9254 66.8495 64.7692 65.1117 63.0055 65.6852C62.7252 65.6634 62.4535 65.6156 62.1904 65.5592C61.1382 65.3333 60.1981 64.9075 59.1329 64.7424C59.5254 64.8336 59.8359 65.0465 59.59 65.5418C59.1588 66.4107 58.2963 65.9762 57.8651 65.9762C58.2963 66.4107 59.1588 66.4107 59.59 66.4107C57.8651 66.8451 60.4525 67.714 59.7841 69.1651C59.7022 69.5822 59.5728 69.9862 59.4089 70.3511C59.1588 68.1485 57.0026 68.1485 55.7089 67.2796C52.6902 65.5418 57.0026 62.9351 58.8828 61.6491C59.12 61.2755 59.2839 60.8845 59.4477 60.4978C60.1291 58.5081 60.8018 56.5357 61.3323 54.585C62.0567 52.365 62.7553 50.1493 63.3893 47.8858C64.0232 45.6223 64.5881 43.3154 65.0193 40.9259C65.0193 40.2004 65.1616 39.527 65.3945 38.8797C65.6274 38.2324 65.9508 37.6111 66.5071 37.4069C66.6667 36.3816 67.0548 35.7777 68.1501 35.7169C67.8353 34.6351 68.2968 34.1703 69.2886 33.8879C69.3404 33.3709 69.9225 33.0364 70.5823 32.7757C71.2378 32.515 71.9709 32.3326 72.786 32.237C72.4323 32.2804 71.6992 34.4961 71.5569 34.8567C69.2455 40.3872 69.8794 45.9264 69.4309 51.6481C69.3576 52.6039 69.2498 53.5597 69.0989 54.5242C69.0471 54.8457 68.9048 55.1628 68.4477 55.4887C66.9254 55.9883 65.6317 57.7261 65.2005 59.0294C64.338 62.0705 67.3567 63.3739 69.9441 63.8083C69.8708 64.3166 69.7155 64.712 69.4956 65.0205V65.0248ZM80.7251 64.6816C78.5689 65.9849 77.2751 64.2471 75.2785 63.5346C75.0241 63.3869 74.8861 63.1654 74.7998 62.9221C74.5497 62.1835 74.7912 61.206 73.8209 61.206C73.3897 63.3782 73.3897 65.5505 71.2335 66.8538C74.2522 63.8127 72.9584 59.9027 69.9398 57.7304C71.2335 56.8615 72.5272 57.296 73.7174 57.6261C74.0883 57.7043 74.153 57.4089 74.2047 57.1091C74.4117 55.9014 74.5066 54.6936 74.5066 53.538C74.9378 46.1524 71.9192 39.2012 73.463 32.0154C73.4716 32.0154 73.4802 32.0154 73.4889 32.0154C75.4855 32.0198 77.715 31.6592 79.4874 32.7844C82.2646 34.4223 82.6958 37.4634 82.6958 40.0701C82.3551 46.5651 81.7514 53.0644 81.9282 59.5594C81.9411 59.9939 81.9541 60.424 81.9756 60.8584C82.4414 62.5137 81.5789 63.817 80.7164 64.6859L80.7251 64.6816Z" fill="currentColor"/>
<path d="M59.1335 64.7502C58.8316 64.6807 58.4866 64.6807 58.2969 64.6807C58.5858 64.6807 58.8618 64.7111 59.1335 64.7502Z" fill="currentColor"/>
<path d="M95.749 80.3952C95.3738 79.5524 95.0159 78.7009 94.6752 77.8363C94.6062 77.8841 94.5588 77.8711 94.5415 77.7798C94.5415 77.7668 94.5372 77.7538 94.5329 77.7407C94.5415 77.6756 94.5544 77.6148 94.5631 77.5496C94.2483 76.7241 93.9464 75.8943 93.6661 75.0515C93.6575 75.0819 93.6532 75.1167 93.6445 75.1471C94.3647 77.5192 95.0806 79.6827 95.7447 80.3952H95.749Z" fill="currentColor"/>
<path d="M90.436 67.3745C90.436 67.3745 90.4188 67.3745 90.4102 67.3745C91.1433 70.8371 92.0273 78.7701 92.4068 78.4877C92.9545 77.4146 93.3555 76.2981 93.6488 75.1381C92.5232 71.4236 91.3891 67.2181 90.436 67.3658V67.3745Z" fill="currentColor"/>
<path d="M64.5666 70.9454C64.3941 71.1366 64.2303 71.3321 64.0664 71.5363C64.0793 71.5232 64.0966 71.5102 64.1095 71.4972C64.6486 71.0106 65.0928 70.3546 65.6275 69.894C65.5067 69.9983 65.3903 70.1069 65.2696 70.2199C65.0496 70.4719 64.8081 70.7108 64.5623 70.9454H64.5666Z" fill="currentColor"/>
<path d="M49.7804 31.676C49.4527 31.8107 49.0128 32.0062 48.4781 32.2538C48.4522 32.306 48.422 32.3624 48.3789 32.4233C49.1939 32.0757 49.7546 31.8194 50.0909 31.6543C49.9917 31.663 49.8839 31.6673 49.7804 31.676Z" fill="currentColor"/>
<path d="M48.2946 31.9454C48.1092 32.1409 47.8246 32.4102 47.4062 32.7665C47.7944 32.5753 48.1523 32.4059 48.4714 32.2582C48.6008 31.9932 48.5232 31.8976 48.2946 31.9497V31.9454Z" fill="currentColor"/>
<path d="M47.9507 31.7839C47.6747 31.949 47.3124 32.2009 46.8984 32.5268C46.9243 32.5833 46.9545 32.6354 46.9717 32.7093C47.5539 32.2748 48.0283 32.0098 48.3 31.949C48.369 31.8751 48.4207 31.8143 48.4595 31.7578C48.2913 31.7665 48.1232 31.7752 47.9507 31.7882V31.7839Z" fill="currentColor"/>
<path d="M49.5391 32.2137C49.8884 32.1181 50.1989 32.0312 50.4835 31.953C50.5309 31.827 50.1902 31.9226 49.5391 32.2137Z" fill="currentColor"/>
<path d="M60.0054 29.3211C59.8803 28.8345 59.4922 28.1307 58.8281 27.1401C59.3585 28.0394 59.7596 28.7563 60.0054 29.3211Z" fill="currentColor"/>
</svg>
