<svg width="279" height="97" viewBox="0 0 279 97" fill="none" xmlns="http://www.w3.org/2000/svg">
<path d="M229.48 61.8598C225.072 61.8598 221.37 58.3736 220.762 53.7937C219.245 55.0002 217.401 55.6574 215.498 55.6574C213.595 55.6574 211.806 55.0192 210.303 53.846C209.671 58.3943 205.97 61.8582 201.592 61.8582C197.214 61.8582 193.498 58.3831 192.878 53.8191C191.368 55.0081 189.537 55.6558 187.649 55.6558C185.76 55.6558 183.957 55.0176 182.454 53.8445C181.822 58.3927 178.121 61.8566 173.743 61.8566C169.365 61.8566 165.633 58.3704 165.024 53.7905C163.508 54.997 161.664 55.6542 159.761 55.6542C157.858 55.6542 156.069 55.016 154.566 53.8429C153.934 58.3911 150.233 61.855 145.855 61.855C141.477 61.855 137.761 58.38 137.141 53.8159C135.63 55.0049 133.8 55.6526 131.911 55.6526C130.023 55.6526 128.22 55.0144 126.717 53.8413C126.084 58.3895 122.383 61.8534 118.005 61.8534C113.627 61.8534 109.895 58.3673 109.287 53.7873C107.77 54.9938 105.927 55.651 104.023 55.651C102.12 55.651 100.332 55.0129 98.8286 53.8397C98.1961 58.3879 94.4953 61.8519 90.1174 61.8519C85.7395 61.8519 82.0699 58.4101 81.4151 53.8937C79.9255 55.0319 78.1294 55.651 76.2887 55.651C74.4479 55.651 72.6771 55.0414 71.1965 53.9207C70.5313 58.4212 66.832 61.8519 62.4972 61.8519C58.1624 61.8519 54.3411 58.3323 53.7667 53.7063C52.2325 54.9652 50.3545 55.6495 48.4021 55.6495C46.5748 55.6495 44.7906 55.0398 43.3099 53.9191C42.6448 58.4197 38.9454 61.8503 34.6107 61.8503C29.7536 61.8503 25.8027 57.6354 25.8027 52.4538C25.8027 49.0184 27.5319 45.9339 30.2461 44.2876H26.0706V40.3331H41.5644C42.2609 39.4187 43.0986 38.6599 44.0421 38.0868H39.8621V34.1307H84.8302V38.0868H80.6502C81.5937 38.6599 82.4315 39.4187 83.1279 40.3331H97.1857C97.8822 39.4187 98.7199 38.6599 99.6634 38.0868H95.4834V34.1307H140.452V38.0868H136.272C137.215 38.6599 138.053 39.4187 138.749 40.3331H152.922C153.618 39.4187 154.456 38.6599 155.399 38.0868H151.219V34.1307H196.187V38.0868H192.007C192.951 38.6599 193.789 39.4187 194.485 40.3331H208.658C209.352 39.4187 210.192 38.6599 211.135 38.0868H206.955V34.1307H251.923V38.0868H247.748C250.462 39.7315 252.191 42.8176 252.191 46.253C252.191 51.4346 248.24 55.6495 243.383 55.6495C241.511 55.6495 239.691 55.0113 238.188 53.8381C237.556 58.3863 233.855 61.8503 229.477 61.8503L229.48 61.8598ZM221.387 52.1919L221.433 52.9999C221.695 57.5227 225.229 61.066 229.48 61.066C233.732 61.066 237.233 57.5513 237.523 53.0634L237.574 52.2744L238.136 52.7903C239.598 54.1286 241.462 54.8652 243.386 54.8652C247.833 54.8652 251.45 51.006 251.45 46.2625C251.45 42.5191 249.208 39.2298 245.871 38.0773L243.629 37.3026H251.182V34.934H207.702V37.3026H215.256L213.013 38.0773C211.474 38.6091 210.132 39.614 209.134 40.984L209.022 41.1364H194.126L194.015 40.984C193.015 39.614 191.674 38.6091 190.135 38.0773L187.893 37.3026H195.446V34.934H151.966V37.3026H159.52L157.277 38.0773C155.739 38.6091 154.396 39.614 153.398 40.984L153.286 41.1364H138.391L138.279 40.984C137.279 39.614 135.938 38.6091 134.4 38.0773L132.157 37.3026H139.71V34.934H96.2304V37.3026H103.784L101.541 38.0773C100.003 38.6091 98.6604 39.614 97.6619 40.984L97.5503 41.1364H82.7693L82.6577 40.984C81.6577 39.614 80.3169 38.6091 78.7782 38.0773L76.5357 37.3026H84.0892V34.934H40.6076V37.3026H48.1611L45.9185 38.0773C44.3799 38.6091 43.0376 39.614 42.0391 40.984L41.9275 41.1364H26.8146V43.5034H34.3681L32.1256 44.2781C28.7893 45.4306 26.5468 48.72 26.5468 52.4633C26.5468 57.2068 30.1643 61.066 34.6107 61.066C38.7847 61.066 42.3144 57.5926 42.6463 53.1571L42.7028 52.3951L43.2549 52.884C44.6968 54.162 46.5257 54.8652 48.4021 54.8652C50.411 54.8652 52.3366 54.0715 53.8217 52.6316L54.4036 52.068L54.4437 52.9062C54.661 57.483 58.1981 61.0676 62.4972 61.0676C66.7963 61.0676 70.201 57.5942 70.5328 53.1586L70.5894 52.3966L71.1414 52.8856C72.5834 54.1635 74.4122 54.8668 76.2887 54.8668C78.1652 54.8668 80.0208 54.1524 81.4702 52.8538L82.0252 52.357L82.0803 53.1285C82.3987 57.5815 85.9299 61.0692 90.1189 61.0692C94.3078 61.0692 97.8717 57.5545 98.1619 53.0666L98.2125 52.2776L98.775 52.7935C100.236 54.1318 102.101 54.8684 104.025 54.8684C105.949 54.8684 107.872 54.1096 109.343 52.73L109.913 52.195L109.959 53.0031C110.221 57.5259 113.755 61.0692 118.007 61.0692C122.258 61.0692 125.76 57.5545 126.05 53.0666L126.101 52.2776L126.663 52.7935C128.124 54.1318 129.989 54.8684 131.913 54.8684C133.837 54.8684 135.73 54.1207 137.197 52.7618L137.764 52.2379L137.813 53.0364C138.088 57.5418 141.623 61.0708 145.858 61.0708C150.093 61.0708 153.611 57.5561 153.901 53.0682L153.951 52.2792L154.514 52.7951C155.975 54.1334 157.84 54.87 159.764 54.87C161.688 54.87 163.61 54.1112 165.082 52.7316L165.652 52.1966L165.698 53.0047C165.96 57.5275 169.494 61.0708 173.746 61.0708C177.997 61.0708 181.499 57.5561 181.789 53.0682L181.839 52.2792L182.402 52.7951C183.863 54.1334 185.728 54.87 187.652 54.87C189.576 54.87 191.469 54.1223 192.936 52.7634L193.503 52.2395L193.552 53.038C193.827 57.5434 197.362 61.0724 201.597 61.0724C205.832 61.0724 209.349 57.5576 209.64 53.0697L209.69 52.2808L210.253 52.7967C211.714 54.135 213.579 54.8716 215.503 54.8716C217.427 54.8716 219.349 54.1127 220.821 52.7332L221.391 52.1982L221.387 52.1919ZM56.4973 46.6562L56.4571 45.818C56.4288 45.21 56.3366 44.5988 56.1848 44.0035L56.0568 43.5034H62.2546L60.0121 44.2781C58.9169 44.6559 57.9303 45.2671 57.0776 46.0926L56.4958 46.6562H56.4973ZM57.0181 44.2972C57.0657 44.5337 57.1044 44.7718 57.1342 45.01C57.4541 44.748 57.7889 44.5099 58.1371 44.2972H57.0181ZM223.593 46.5324L223.547 45.7243C223.513 45.1433 223.425 44.5639 223.282 44.0051L223.154 43.505H229.238L226.995 44.2797C225.947 44.6417 224.995 45.2195 224.163 46.0006L223.593 46.5356V46.5324ZM224.113 44.2972C224.154 44.5067 224.19 44.7179 224.218 44.929C224.508 44.6972 224.809 44.4861 225.122 44.2972H224.114H224.113ZM167.856 46.5324L167.81 45.7243C167.776 45.1433 167.686 44.5639 167.545 44.0035L167.417 43.5034H173.5L171.258 44.2781C170.21 44.6401 169.258 45.2179 168.426 45.999L167.856 46.534V46.5324ZM168.375 44.2972C168.417 44.5067 168.453 44.7179 168.481 44.929C168.771 44.6972 169.072 44.4861 169.384 44.2972H168.377H168.375ZM112.119 46.5324L112.072 45.7243C112.038 45.1433 111.949 44.5639 111.808 44.0035L111.68 43.5034H117.763L115.52 44.2781C114.473 44.6401 113.52 45.2179 112.689 45.999L112.119 46.534V46.5324ZM112.638 44.2972C112.68 44.5067 112.715 44.7179 112.744 44.929C113.034 44.6972 113.334 44.4861 113.647 44.2972H112.639H112.638ZM195.741 46.4911L195.692 45.6926C195.656 45.1211 195.568 44.5527 195.429 44.0035L195.301 43.5034H201.347L199.104 44.2781C198.071 44.6353 197.131 45.202 196.306 45.9672L195.74 46.4927L195.741 46.4911ZM196.26 44.2972C196.301 44.4972 196.333 44.6988 196.362 44.902C196.641 44.6813 196.931 44.4797 197.231 44.2972H196.26ZM140.004 46.4911L139.955 45.6926C139.919 45.1211 139.831 44.5527 139.691 44.0035L139.563 43.5034H145.609L143.367 44.2781C142.334 44.6353 141.394 45.202 140.569 45.9672L140.002 46.4927L140.004 46.4911ZM140.523 44.2972C140.563 44.4972 140.596 44.6988 140.624 44.902C140.904 44.6813 141.194 44.4797 141.493 44.2972H140.523ZM235.288 46.4498L234.726 45.9339C233.909 45.1862 232.979 44.6274 231.962 44.2765L229.72 43.5018H235.727L235.599 44.0019C235.462 44.5385 235.374 45.0957 235.339 45.6592L235.288 46.4482V46.4498ZM233.836 44.2972C234.123 44.4718 234.403 44.6655 234.671 44.875C234.697 44.6813 234.73 44.4877 234.767 44.2972H233.834H233.836ZM151.664 46.4498L151.102 45.9339C150.285 45.1862 149.355 44.6274 148.338 44.2765L146.096 43.5018H152.103L151.975 44.0019C151.838 44.5385 151.751 45.0957 151.715 45.6592L151.664 46.4482V46.4498ZM150.212 44.2972C150.499 44.4718 150.779 44.6655 151.047 44.875C151.073 44.6813 151.106 44.4877 151.143 44.2972H150.21H150.212ZM123.815 46.4498L123.252 45.9339C122.435 45.1862 121.505 44.6274 120.489 44.2765L118.246 43.5018H124.254L124.126 44.0019C123.989 44.5385 123.901 45.0957 123.865 45.6592L123.815 46.4482V46.4498ZM122.362 44.2972C122.65 44.4718 122.929 44.6655 123.197 44.875C123.224 44.6813 123.257 44.4877 123.294 44.2972H122.361H122.362ZM207.4 46.4498L206.838 45.9339C206.021 45.1862 205.091 44.6274 204.074 44.2765L201.832 43.5018H207.839L207.711 44.0019C207.574 44.5385 207.486 45.0957 207.451 45.6592L207.4 46.4482V46.4498ZM205.948 44.2972C206.235 44.4718 206.515 44.6655 206.783 44.8766C206.809 44.6829 206.842 44.4892 206.879 44.2972H205.946H205.948ZM179.551 46.4498L178.988 45.9339C178.171 45.1862 177.241 44.6274 176.225 44.2765L173.982 43.5018H179.99L179.862 44.0019C179.725 44.5385 179.637 45.0957 179.601 45.6592L179.551 46.4482V46.4498ZM178.098 44.2972C178.386 44.4718 178.665 44.6655 178.933 44.8766C178.96 44.6829 178.993 44.4892 179.03 44.2972H178.097H178.098ZM95.9268 46.4498L95.3643 45.9339C94.5474 45.1862 93.6173 44.6274 92.601 44.2765L90.3584 43.5018H96.3658L96.2378 44.0019C96.1009 44.5385 96.0131 45.0957 95.9774 45.6592L95.9268 46.4482V46.4498ZM94.4745 44.2972C94.7617 44.4718 95.0414 44.6655 95.3093 44.8766C95.3361 44.6829 95.3688 44.4892 95.406 44.2972H94.473H94.4745ZM84.3779 46.3689L84.3228 45.5973C84.2841 45.056 84.1978 44.5194 84.0669 44.0035L83.9389 43.5034H89.8704L87.6278 44.2781C86.6383 44.6194 85.7305 45.156 84.9314 45.872L84.3764 46.3689H84.3779ZM84.8987 44.2972C84.9329 44.4702 84.9627 44.6464 84.988 44.8226C85.235 44.6337 85.491 44.4575 85.7543 44.2972H84.8987ZM68.1921 46.3292L67.64 45.8402C66.8498 45.1401 65.954 44.6147 64.9778 44.2781L62.7368 43.5034H68.6296L68.5016 44.0035C68.3736 44.5099 68.2873 45.0354 68.2471 45.5656L68.1906 46.3276L68.1921 46.3292ZM66.8543 44.2972C67.1058 44.4496 67.3498 44.6162 67.5864 44.7956C67.6102 44.6289 67.64 44.4623 67.6727 44.2972H66.8558H66.8543ZM40.3055 46.3292L39.7534 45.8402C38.9633 45.1401 38.0675 44.6147 37.0913 44.2781L34.8487 43.5034H40.7415L40.6136 44.0035C40.4856 44.5099 40.3993 45.0354 40.3591 45.5656L40.3025 46.3276L40.3055 46.3292ZM38.9677 44.2972C39.2192 44.4496 39.4633 44.6162 39.6999 44.7956C39.7237 44.6289 39.7534 44.4623 39.7862 44.2972H38.9692H38.9677ZM236.904 41.1364H221.971L221.86 40.984C220.86 39.614 219.519 38.6091 217.98 38.0773L215.738 37.3026H243.139L240.897 38.0773C239.358 38.6091 238.016 39.614 237.017 40.984L236.906 41.1364H236.904ZM222.333 40.3427H236.543C237.239 39.4283 238.077 38.6694 239.02 38.0963H219.855C220.799 38.6694 221.637 39.4283 222.333 40.3427ZM181.168 41.1364H166.235L166.124 40.984C165.124 39.614 163.783 38.6091 162.244 38.0773L160.002 37.3026H187.403L185.161 38.0773C183.622 38.6091 182.28 39.614 181.281 40.984L181.17 41.1364H181.168ZM166.597 40.3427H180.807C181.502 39.4283 182.341 38.6694 183.284 38.0963H164.119C165.063 38.6694 165.901 39.4283 166.597 40.3427ZM125.432 41.1364H110.5L110.388 40.984C109.388 39.614 108.047 38.6091 106.509 38.0773L104.266 37.3026H131.667L129.425 38.0773C127.886 38.6091 126.544 39.614 125.545 40.984L125.434 41.1364H125.432ZM110.861 40.3427H125.071C125.766 39.4283 126.605 38.6694 127.548 38.0963H108.384C109.327 38.6694 110.165 39.4283 110.861 40.3427ZM69.8096 41.1364H54.8768L54.7652 40.984C53.7652 39.614 52.4244 38.6091 50.8857 38.0773L48.6432 37.3026H76.0446L73.8021 38.0773C72.2634 38.6091 70.9227 39.614 69.9227 40.984L69.8111 41.1364H69.8096ZM55.2384 40.3427H69.448C70.1444 39.4283 70.9822 38.6694 71.9257 38.0963H52.7607C53.7042 38.6694 54.5419 39.4283 55.2384 40.3427Z" fill="currentColor"/>
</svg>
