<svg width="143" height="143" viewBox="0 0 143 143" fill="none" xmlns="http://www.w3.org/2000/svg">
<g clip-path="url(#clip0_675_1752)">
<path d="M45.186 100.357C49.7505 99.5404 53.5398 95.3959 57.1613 92.7776C61.4306 89.6917 66.036 86.5661 68.8691 82.0057C69.8608 80.4072 70.2636 78.8064 69.9106 77.2493C69.7695 75.4714 68.7654 72.0487 65.7924 73.4676C61.3234 76.1114 44.3699 94.195 40.0118 97.2239C33.3621 102.683 24.9398 105.625 18.4729 110.787C18.4222 110.923 18.3669 111.055 18.3161 111.192C20.1799 111.463 43.7505 100.614 45.186 100.357Z" fill="currentColor"/>
<path d="M60.4082 97.2956C56.9822 101.967 51.9006 104.769 50.5216 109.747C50.4461 110.984 51.0606 112.158 51.8323 113.577C52.2834 114.135 52.7358 114.619 53.133 115.127C53.5301 115.634 53.8761 116.162 54.1999 116.46C54.5492 115.784 55.0788 114.858 55.6846 113.993C57.5023 111.409 59.9796 109.4 62.2701 107.16C65.7388 103.76 68.8602 100.015 71.8305 96.1717C76.4465 90.2016 79.7595 83.1628 73.7111 76.6106C72.4141 80.7237 70.4921 84.3685 68.1958 87.7514C65.8951 91.1301 63.2201 94.2469 60.4124 97.2911L60.4082 97.2956Z" fill="currentColor"/>
<path d="M96.7369 45.0874C92.3421 46.568 89.21 51.2271 86.016 54.3562C82.2514 58.0408 78.1615 61.8165 76.0357 66.738C75.2916 68.4651 75.1329 70.1079 75.7127 71.5996C76.1162 73.3366 77.6192 76.5703 80.3455 74.7241C84.3733 71.4488 98.4585 51.0525 102.32 47.4072C108.084 41.0227 115.981 36.8638 121.606 30.8009C121.635 30.6612 121.672 30.5211 121.701 30.3814C119.819 30.3926 98.1204 44.6159 96.7365 45.0787L96.7369 45.0874Z" fill="currentColor"/>
<path d="M82.1321 50.3645C84.8297 45.2381 89.4363 41.7143 90.0645 36.5849C89.9541 35.3513 89.175 34.2832 88.2004 32.9849C87.6743 32.4996 87.1555 32.0877 86.6875 31.6477C86.2195 31.2078 85.7978 30.7356 85.4329 30.4906C85.1895 31.2147 84.8009 32.2045 84.3283 33.15C82.9142 35.9734 80.7624 38.3245 78.8313 40.8874C75.9056 44.7632 73.3684 48.9307 71.0071 53.1691C67.3253 59.7595 65.0896 67.2092 72.0469 72.794C72.7191 68.5373 74.0812 64.6424 75.85 60.9562C77.6233 57.2741 79.8116 53.7917 82.1279 50.369L82.1321 50.3645Z" fill="currentColor"/>
</g>
<defs>
<clipPath id="clip0_675_1752">
<rect width="134.028" height="56.6149" fill="white" transform="translate(5 101.998) rotate(-47.314)"/>
</clipPath>
</defs>
</svg>
