<svg width="143" height="143" viewBox="0 0 143 143" fill="none" xmlns="http://www.w3.org/2000/svg">
<path d="M120.89 76.0208C120.89 64.8891 111.871 55.8667 100.748 55.8667C89.6246 55.8667 80.6055 64.8912 80.6055 76.0208H120.892H120.89Z" fill="currentColor"/>
<path d="M80.6037 65.9438C80.6037 77.0756 89.6229 86.098 100.746 86.098C111.869 86.098 120.888 77.0735 120.888 65.9438H80.6016H80.6037Z" fill="currentColor"/>
<path d="M112.288 42.3347C105.137 33.8083 92.4319 32.6951 83.9105 39.8507C75.3892 47.0062 74.2767 59.7189 81.4279 68.2453L112.288 42.3347Z" fill="currentColor"/>
<path d="M74.9531 60.5268C82.1044 69.0532 94.8096 70.1664 103.331 63.0109C111.852 55.8554 112.965 43.1426 105.814 34.6162L74.9531 60.5268Z" fill="currentColor"/>
<path d="M84.0584 22.064C73.1021 20.13 62.6544 27.4501 60.7237 38.413C58.7909 49.3758 66.1067 59.8297 77.063 61.7616L84.0584 22.064Z" fill="currentColor"/>
<path d="M67.1445 60.0118C78.1009 61.9457 88.5485 54.6256 90.4792 43.6628C92.412 32.6999 85.0963 22.246 74.14 20.3142L67.1445 60.0118Z" fill="currentColor"/>
<path d="M49.4102 24.6921C39.7764 30.258 36.4756 42.5853 42.0382 52.2249C47.6008 61.8645 59.9207 65.1672 69.5545 59.6013L49.4102 24.6921Z" fill="currentColor"/>
<path d="M60.8318 64.6408C70.4657 59.0749 73.7664 46.7477 68.2039 37.1081C62.6413 27.4685 50.3214 24.1658 40.6875 29.7317L60.8297 64.6408H60.8318Z" fill="currentColor"/>
<path d="M24.5564 48.9917C20.7513 59.4521 26.1407 71.017 36.5949 74.8243C47.0491 78.6317 58.6071 73.239 62.4122 62.7786L24.5564 48.9917Z" fill="currentColor"/>
<path d="M58.9691 72.2472C62.7742 61.7868 57.3847 50.2218 46.9306 46.4145C36.4764 42.6072 24.9183 47.9998 21.1133 58.4602L58.9691 72.2472Z" fill="currentColor"/>
<path d="M21.1289 83.5897C24.934 94.0501 36.492 99.4427 46.9462 95.6354C57.4004 91.8281 62.7898 80.2631 58.9847 69.8027L21.1289 83.5897Z" fill="currentColor"/>
<path d="M62.4278 79.2734C58.6227 68.813 47.0647 63.4204 36.6105 67.2277C26.1563 71.0351 20.7669 82.6 24.572 93.0604L62.4278 79.2734Z" fill="currentColor"/>
<path d="M40.7305 112.298C50.3643 117.863 62.6842 114.561 68.2468 104.921C73.8094 95.2816 70.5086 82.9543 60.8748 77.3884L40.7326 112.298H40.7305Z" fill="currentColor"/>
<path d="M69.5936 82.428C59.9597 76.8621 47.6398 80.1648 42.0772 89.8044C36.5147 99.444 39.8154 111.771 49.4493 117.337L69.5914 82.428H69.5936Z" fill="currentColor"/>
<path d="M74.1829 121.685C85.1393 119.751 92.4529 109.299 90.5222 98.3363C88.5894 87.3734 78.1438 80.0555 67.1875 81.9873L74.1829 121.685Z" fill="currentColor"/>
<path d="M77.1054 80.2373C66.1491 82.1713 58.8355 92.623 60.7661 103.586C62.699 114.549 73.1445 121.867 84.1008 119.935L77.1054 80.2373Z" fill="currentColor"/>
<path d="M105.841 107.357C112.992 98.8307 111.88 86.118 103.358 78.9625C94.8369 71.8069 82.1317 72.9201 74.9805 81.4465L105.841 107.357Z" fill="currentColor"/>
<path d="M81.4553 73.7258C74.304 82.2522 75.4165 94.965 83.9379 102.121C92.4592 109.276 105.164 108.163 112.316 99.6364L81.4553 73.7258Z" fill="currentColor"/>
</svg>
