<svg width="143" height="143" viewBox="0 0 143 143" fill="none" xmlns="http://www.w3.org/2000/svg">
<g clip-path="url(#clip0_675_3144)">
<path d="M37.5424 50.2936C37.8099 50.7588 38.9414 51.303 39.8232 51.8036C40.4757 52.258 41.3839 52.7559 42.1657 53.2321C42.9504 53.7082 43.9673 54.2088 44.5023 54.6741C45.4869 55.1611 46.6067 55.6236 46.8154 56.1515C48.0469 56.5623 49.0197 56.9677 49.0961 57.6751C50.3805 57.901 51.1623 58.3281 51.3269 59.2641C52.4614 59.2831 53.2315 59.8872 53.496 60.9265C54.4777 60.883 55.2654 61.6747 55.5887 62.6733C55.8738 62.2026 55.8826 62.2107 55.5975 62.6814C55.8826 62.2107 55.8885 62.2216 55.6063 62.6896C56.0707 62.4093 56.2588 62.7848 56.0384 63.446C56.3969 63.2827 56.4263 63.68 56.0972 64.2758C56.4028 63.9276 56.1354 63.6691 55.8297 64.0391C56.3764 63.6419 56.6732 63.6283 56.6409 64.0065C57.1729 63.6609 57.5021 63.7806 57.4727 64.2541C57.9723 64.0718 58.1751 64.4227 57.99 64.9207C58.3397 64.8744 58.3956 65.2063 58.131 65.6689C58.4103 65.4322 58.1134 65.2608 57.8283 65.5083C58.2898 65.1846 58.5014 65.1029 58.4514 65.3152C58.9128 65.0376 59.1862 65.0757 59.1568 65.405C59.5859 65.2771 59.7534 65.4866 59.6447 65.8566C59.9621 65.7995 60.0503 66.0063 59.9122 66.3899C60.115 66.1722 59.9327 66.0661 59.7182 66.2838C60.1884 66.0335 60.4647 66.1124 60.5 66.4443C60.8674 66.33 61.0378 66.4715 61.0878 66.8579C61.3641 66.7436 61.5169 66.8932 61.6022 67.3068C61.6727 67.0293 62.1606 67.432 62.1341 67.7312C62.1606 67.432 64.1504 69.1352 64.2474 69.4454C64.1504 69.1379 64.0798 69.225 64.1739 69.5351C64.0828 69.225 63.7889 69.0046 63.8682 69.3175C63.7389 68.9692 63.6889 68.9257 63.7154 69.2141C63.6419 68.8958 63.6272 68.8876 63.7007 69.2059C63.6272 68.8876 63.6331 68.8876 63.7066 69.2059C63.636 68.8876 63.6331 68.8876 63.7066 69.2059C63.636 68.8876 63.6537 68.8903 63.7448 69.1896C63.686 68.8495 63.6742 68.8332 63.7477 69.1461C63.6968 68.9338 63.6968 68.9338 63.7477 69.1461C63.6713 68.8277 63.7007 68.8577 63.7771 69.176C63.7007 68.8577 63.7654 68.9202 63.8477 69.2359C63.7683 68.9202 63.7154 68.9774 63.7918 69.2957C63.7154 68.9801 63.6449 68.9202 63.7183 69.2386C63.6449 68.9202 63.6096 68.8876 63.6801 69.2059C63.6037 68.8822 63.5978 68.8767 63.6654 69.1869C63.592 68.8631 63.5831 68.8441 63.6713 69.1406C63.6184 68.8032 63.6331 68.806 63.7125 69.1216C63.639 68.8032 63.6449 68.806 63.7213 69.1216C63.6449 68.8032 63.6625 68.8087 63.7389 69.127C63.6625 68.8087 63.6889 68.8223 63.7654 69.1406C63.7418 68.8522 63.7947 68.893 63.9299 69.2386C63.8447 68.923 64.1504 69.1325 64.2474 69.4426C64.1504 69.1352 64.0798 69.2223 64.1739 69.5324C64.0828 69.2223 62.0019 67.6061 61.9637 67.9108C62.0019 67.6061 61.4963 67.217 61.4141 67.5027C61.3318 67.0837 61.176 66.9395 60.8879 67.0755C60.6969 66.564 60.3354 66.33 59.777 66.6103C59.9856 66.3872 59.8563 66.4089 59.6388 66.632C59.8563 66.4089 59.8063 66.2838 59.583 66.5042C59.677 65.9845 59.4801 65.6145 58.9834 65.7233C58.9834 65.3832 58.6072 65.4811 58.0194 65.8539C58.3044 65.6226 58.037 65.7587 57.7431 65.9845C58.037 65.7587 58.0076 65.4539 57.7166 65.6934C57.9694 65.0485 57.8136 64.4663 57.2228 64.5942C57.3551 64.1915 57.117 64.1099 56.6115 64.4309C56.6997 64.0881 56.4293 64.1071 55.9002 64.469C56.2088 64.1343 55.9208 64.1752 55.6093 64.5071C55.9208 64.1752 55.9414 63.8786 55.6328 64.2323C55.962 63.6636 55.9384 63.3371 55.5769 63.5548C55.8238 62.9535 55.6886 62.6787 55.2419 62.9834C55.5446 62.5291 55.5622 62.5454 55.2595 62.9998C54.9538 62.0175 54.1691 61.2448 53.1727 61.2748C52.9082 60.2463 52.1411 59.6504 51.0213 59.6205C50.842 58.6818 50.0661 58.2519 48.814 58.0261C48.7111 57.2969 47.7559 56.8888 46.5685 56.4753C46.3304 55.9202 45.2429 55.4522 44.2965 54.9516C43.7469 54.4591 42.7741 53.9449 42.0128 53.4416C41.2516 52.9382 40.361 52.4077 39.7379 51.9152C39.25 51.6295 38.6887 51.3547 38.624 51.1207C38.3448 51.0745 37.1104 50.2419 37.5512 50.2827L37.5424 50.2936Z" fill="currentColor"/>
<path d="M63.0688 69.6951C63.0365 69.3767 64.7118 69.7468 64.8205 70.0352C64.7118 69.7468 64.1445 68.1578 64.265 68.4625C64.1475 68.1578 63.0394 69.3767 63.0718 69.6951H63.0688Z" fill="currentColor"/>
<path d="M30.2148 54.6155C30.8232 54.3598 31.8196 55.0046 32.9982 55.7746C33.5625 55.6984 34.747 56.3432 35.8403 56.784C36.1548 56.784 36.7809 57.0343 37.2864 57.3091C37.6949 57.4969 38.177 57.7635 38.6296 57.9812C39.526 58.4219 40.4342 58.8437 41.3453 59.2599C42.2565 59.6735 43.2088 60.0653 44.0964 60.4761C45.0457 60.8571 46.1185 61.1509 46.868 61.6543C47.0267 61.5318 48.4963 61.9998 49.6513 62.8188C51.1944 63.1262 52.6933 63.6758 52.4347 63.9833C52.6933 63.6758 52.7051 63.6785 52.4435 63.9887C52.7051 63.6813 52.711 63.684 52.4494 63.9914C53.0931 63.8853 53.5545 64.171 53.6192 64.7451C54.063 64.6254 54.2481 64.8947 54.0395 65.3818C54.3422 65.292 54.3128 65.4988 54.0071 65.8035C54.2158 65.7491 54.11 65.9042 53.7896 66.1381C54.0248 65.9939 53.8925 65.6375 53.6515 65.8062C54.4598 65.7137 55.1534 65.7899 55.415 66.1028C56.2644 66.0293 56.9169 66.2089 57.1314 66.6605C57.684 66.5952 57.9456 66.7803 57.878 67.1775C58.3629 67.1666 58.5275 67.4006 58.4217 67.8767C58.9272 68.1189 59.0066 68.7011 58.9272 69.4847C59.0948 69.2208 58.9008 69.1882 58.7274 69.4466C59.0272 69.0168 59.1888 68.8045 59.1506 68.9134C59.4769 68.478 59.6503 68.2821 59.6708 68.4427C59.9412 68.0998 60.0588 68.0318 60.0294 68.3121C60.3145 68.0101 60.4438 68.0563 60.3998 68.4236C60.7201 68.2658 60.82 68.4753 60.82 68.9705C60.92 68.6576 60.8524 68.6957 60.7466 69.0059C60.7466 68.5216 60.6319 68.323 60.3292 68.5107C60.3851 68.157 60.291 68.1298 60.0412 68.4372C60.1029 68.1543 60.0059 68.2168 59.7561 68.5597C59.7561 68.391 59.5974 68.5842 59.2946 69.0222C59.3358 68.9079 59.1888 69.1202 58.9067 69.5609C59.0713 69.297 58.9243 69.5201 58.7627 69.7759C58.9214 69.5201 58.8773 69.2671 58.7068 69.5228C58.7656 68.761 58.6627 68.2087 58.1601 68.0073C58.1454 67.338 57.731 66.987 56.961 66.9517C56.7758 66.5408 56.1527 66.4021 55.3239 66.4646C55.0623 66.1953 54.3745 66.149 53.5868 66.2116C53.8073 66.081 53.3958 66.0429 53.1959 66.1654C53.3987 66.0429 53.678 65.7273 53.4516 65.8797C53.7985 65.5913 53.8778 65.4008 53.5957 65.4715C53.8161 65.1423 53.6897 64.9492 53.2959 65.0553C53.2606 64.5737 52.8197 64.3179 52.2143 64.3832C52.4435 64.1275 52.4611 64.1356 52.2319 64.3914C51.5706 63.7683 50.5037 63.4119 49.4427 63.2459C48.6873 62.6664 47.6851 62.3834 46.6564 62.0869C45.854 61.6107 44.8165 61.2924 43.8848 60.8924C42.9648 60.487 42.0478 60.0707 41.1425 59.6381C40.2344 59.2082 39.332 58.7648 38.4444 58.2995C37.9977 58.0709 37.5186 57.7934 37.1189 57.5948C36.6633 57.3282 36.0784 57.0751 35.7434 57.0452C34.6676 56.5827 33.4949 55.8834 32.9335 55.9161C31.7814 55.1107 30.7968 54.4142 30.2178 54.6182L30.2148 54.6155Z" fill="currentColor"/>
<path d="M59.834 69.0918C59.9809 68.8007 61.3241 69.7775 61.2653 70.0849C61.3241 69.7775 61.5475 68.126 61.4799 68.4416C61.5475 68.126 59.9809 68.8007 59.834 69.0918Z" fill="currentColor"/>
<path d="M30.6748 81.5739C30.7248 81.8977 30.7718 82.2351 30.9305 82.5208C30.9717 82.5888 31.0275 82.6514 31.0951 82.6732C31.1627 82.6949 31.2421 82.6732 31.3097 82.6323C31.4507 82.5507 31.5683 82.4256 31.68 82.3031C31.9034 82.0528 32.1032 81.7807 32.309 81.5114C32.5118 81.242 32.7205 80.9726 32.9379 80.7087L33.0614 80.5591L33.129 80.7468C33.1731 80.8665 33.2436 80.9536 33.3524 80.9726C33.4611 80.9971 33.6022 80.9672 33.7374 80.9264C34.0107 80.8393 34.2811 80.6951 34.5457 80.5536C35.0806 80.268 35.589 79.9333 36.2151 79.7211C37.4142 79.3837 38.5958 79.0518 39.792 78.728L41.5702 78.2274L42.4578 77.977C42.7488 77.8981 43.0603 77.7893 43.3778 77.7294C44.0097 77.5988 44.6475 77.5689 45.2588 77.5227C45.8731 77.4764 46.4668 77.4029 47.0252 77.2234L47.0076 77.2288C47.4661 77.0411 47.8658 76.7418 48.1803 76.3663C48.4977 75.9908 48.7417 75.5555 48.9386 75.0984L49.0473 74.8508L49.2913 74.9869C49.7998 75.2753 50.3288 75.5147 50.8843 75.6943C51.4369 75.8657 52.0129 75.9609 52.5919 75.9391C53.1709 75.9201 53.747 75.8058 54.3084 75.6235C54.8698 75.4494 55.4194 75.2263 55.9602 74.9841L56.0425 74.9461L56.1248 74.9787C56.6861 75.2073 57.371 75.1991 58.0176 75.1501C58.6789 75.0875 59.3431 74.9379 59.9897 74.8481C59.9986 74.8155 60.989 74.6005 61.9678 74.4862C62.9553 74.2414 63.9341 74.0427 63.9458 74.1244C63.9341 74.0427 63.9517 74.1217 63.9634 74.1978C63.9517 74.1217 62.9818 74.3665 62.003 74.644C61.0302 74.8127 60.0515 75.0821 60.0426 75.0903C59.399 75.2236 58.7259 75.3732 58.047 75.4521C57.371 75.5201 56.6568 75.561 55.9631 75.3079H56.1248C55.581 75.5664 55.0255 75.8113 54.4407 76.0072C53.8558 76.2003 53.2356 76.3337 52.6008 76.3582C51.9659 76.3881 51.3252 76.2874 50.7256 76.1051C50.1319 75.9201 49.5617 75.6671 49.0326 75.3732L49.3824 75.2617C49.1767 75.746 48.921 76.2221 48.5683 76.6493C48.2156 77.0737 47.7512 77.4465 47.2016 77.6587L47.1898 77.6641H47.181C46.5608 77.86 45.9142 77.9335 45.2882 77.9743C44.6622 78.0151 44.0538 78.0396 43.4689 78.1566C43.175 78.2083 42.9016 78.3035 42.5959 78.3824L41.6995 78.6273L39.9066 79.1171L36.315 80.0231C35.7595 80.1918 35.2305 80.5101 34.6838 80.7849C34.4075 80.9237 34.1312 81.0652 33.8138 81.1577C33.6551 81.1985 33.4787 81.2393 33.2848 81.1903C33.1878 81.1685 33.0967 81.1087 33.0349 81.0379C32.9703 80.9672 32.9409 80.8856 32.9144 80.8067L33.1055 80.842C32.8792 81.0924 32.6587 81.3508 32.4412 81.612C32.2237 81.8732 32.0092 82.1372 31.7682 82.3847C31.6447 82.5072 31.5213 82.6296 31.3538 82.7194C31.2715 82.7602 31.1627 82.7929 31.0628 82.7575C30.9628 82.7194 30.907 82.6378 30.8659 82.5616C30.7189 82.2487 30.7013 81.914 30.6719 81.5876L30.6748 81.5739Z" fill="currentColor"/>
<path d="M63.8893 75.0118C63.8805 75.0418 65.1855 73.8119 65.209 73.8936C65.1884 73.8147 63.4896 73.2623 63.5043 73.3957C63.4896 73.2623 63.8835 75.0418 63.8923 75.0118H63.8893Z" fill="currentColor"/>
<path d="M45.875 104.457C46.6304 103.387 47.4151 102.335 48.1881 101.279L50.5012 98.1037C51.2624 97.0398 52.0207 95.976 52.732 94.8877C53.0818 94.3408 53.4286 93.7939 53.7254 93.228C53.89 92.9341 54.2515 92.4852 54.1369 92.3737C54.4778 91.922 54.9275 91.3833 54.3632 91.5084C54.9452 91.1166 54.9746 91.0269 54.3691 91.4377C54.9746 91.0269 55.0715 90.9398 54.422 91.3806C55.4595 90.5153 57.0731 89.2774 55.6182 89.9739C57.6374 88.5237 58.9718 87.5469 56.5 88.4285C59.2275 86.8695 59.7301 86.2954 56.8086 86.728C59.7271 85.6913 59.2657 85.3621 56.547 84.9894C59.1922 85.0846 59.0364 84.954 56.4765 84.7227C59.0364 84.954 59.6243 84.954 56.7704 84.7091C59.8917 84.9404 61.3407 84.9622 58.3487 84.4507C61.7581 84.8289 62.2665 84.8044 59.6948 83.6943C62.534 84.5731 62.6692 84.4479 60.6677 82.5026C62.8514 84.1514 62.8103 83.8303 61.3907 81.1204C62.8926 83.6507 62.8955 83.6235 61.4113 81.0769C62.8955 83.6263 62.9132 83.6154 61.4524 81.0551C62.2254 82.3121 62.6251 82.9107 62.7104 82.8345C62.7956 82.761 62.5634 82.0128 62.0784 80.5871C62.6428 81.9421 62.9425 82.557 63.0013 82.4536C63.0836 82.3475 62.9279 81.5258 62.6192 79.9994C63.0366 81.3925 63.3217 81.8768 63.3893 81.621C63.5774 81.3544 63.6185 80.3395 63.5745 78.707C63.7038 80.2225 63.7861 80.9843 63.6891 81.0034C63.8184 81.0116 63.7802 80.2742 63.6597 78.756C63.7067 80.3939 63.6597 81.4197 63.4716 81.6999C63.4246 81.9666 63.16 81.4931 62.7838 80.1082C63.0601 81.6319 63.1983 82.459 63.113 82.5733C63.0631 82.6821 62.7809 82.0836 62.2665 80.7449C62.7104 82.1597 62.922 82.9052 62.8309 82.9923C62.7427 83.0794 62.3547 82.5053 61.5994 81.2891C63.0102 83.7786 63.0278 83.746 61.6611 81.2238C62.9543 83.9255 63.0043 84.252 60.9851 82.6631C62.8367 84.5486 62.7162 84.6846 59.9858 83.9691C62.4488 84.935 61.9139 84.9894 58.5074 84.8452C61.47 85.139 59.9711 85.1554 56.7998 85.1581C59.6919 85.1717 60.0798 85.0411 57.0231 84.8778C60.1651 85.3322 60.4854 85.6533 57.3141 86.7253C60.4943 86.2899 59.8623 86.8803 56.9879 88.589C59.5861 87.5959 58.1576 88.6706 56.0326 90.2378C57.5698 89.4433 55.8857 90.7575 54.7894 91.6717C55.483 91.1765 55.6153 90.9996 54.8482 91.5411C55.583 91.3234 55.0069 91.9819 54.5719 92.526C54.7571 92.5777 54.3133 93.1056 54.1251 93.413C53.8136 93.9925 53.4462 94.5421 53.0818 95.0863C52.3411 96.1692 51.5622 97.2249 50.7628 98.2697C49.9692 99.3144 49.158 100.348 48.338 101.377L45.8809 104.459L45.875 104.457Z" fill="currentColor"/>
<path d="M64.2393 79.3691C64.3363 80.8955 64.2922 81.1648 64.1129 80.7213C64.3245 80.2724 64.3422 79.1052 64.2804 77.7148C64.3422 79.1052 64.0247 80.0248 63.6132 80.2452C63.4075 80.4683 62.9519 79.9786 62.7109 78.5093C62.9549 79.9813 63.3752 80.958 63.575 81.192C63.9601 81.4151 64.3392 80.8955 64.2393 79.3718V79.3691Z" fill="currentColor"/>
<path d="M66.7625 40.1953C66.9301 41.5775 67.0035 42.9678 67.0623 44.3582C67.0888 45.052 67.1064 45.7485 67.1241 46.4423C67.1417 47.1361 67.1534 47.8299 67.1711 48.5237C67.1858 49.2175 67.1917 49.9168 67.2328 50.6024C67.2446 51.2989 67.2416 52.0009 67.3386 52.6784C67.3269 53.3804 67.3357 54.1503 67.5179 54.7462C67.4826 55.5053 67.5267 56.2971 67.7912 56.8031C67.6413 56.9637 67.6384 56.9473 67.7883 56.7868C67.8559 57.8779 68.5966 58.8029 69.2432 59.3607C69.2637 59.5076 69.4901 59.6926 69.4313 59.5593C69.4901 59.6926 69.1756 59.8314 69.1844 59.6899C68.9434 59.9538 68.5201 60.1361 68.5143 60.1443C68.1674 60.4681 67.95 60.6912 68.1733 60.751C67.9029 61.1183 67.9617 61.355 68.335 61.4557C68.1792 61.7985 68.382 61.9999 68.7758 62.1386C68.5407 62.2094 68.6759 62.3563 68.8993 62.2992C68.6759 62.3563 68.4584 62.4542 68.7171 62.3944C68.3173 62.5304 68.1145 62.642 68.3467 62.6964C67.9411 62.8733 67.853 63.0229 68.1704 63.129C67.7736 63.4746 67.8265 63.8065 68.2439 64.152C67.8941 64.133 67.897 64.152 68.2468 64.1738C67.897 64.1548 67.8941 64.1684 68.2468 64.1901C67.8471 64.7044 67.9 65.2567 68.2556 65.9206C67.9294 65.8036 68.0969 67.4959 68.3614 67.6673C68.094 67.4932 67.9999 67.4986 68.2674 67.6755C67.9999 67.4986 67.7266 65.8145 68.0528 65.9369C67.6619 65.2676 67.5737 64.7098 67.9529 64.1738C67.6031 64.152 67.6061 64.1874 67.9529 64.2119C67.5238 63.8555 67.4415 63.5099 67.8294 63.0909C67.5032 62.9576 67.5855 62.7617 68.044 62.5141C67.8265 62.427 68.0822 62.2747 68.526 62.0924C68.2556 62.1767 68.1792 62.4243 68.4702 62.3481C68.0058 62.2094 67.7942 61.9944 67.9646 61.6162C67.5238 61.4965 67.4327 61.2 67.7383 60.7157C67.4826 60.5742 67.7589 60.245 68.1851 59.8586C68.1998 59.8232 68.6495 59.6164 68.9493 59.3172C68.9022 59.475 68.817 59.8015 68.8905 59.6464C68.4584 59.4314 67.9793 59.0124 67.897 58.3703C67.4562 58.12 67.2152 57.5622 67.2945 56.8902C67.0947 57.0643 67.0917 57.0589 67.2945 56.882C67.0947 57.0562 67.0917 57.048 67.2945 56.8739C66.98 56.3814 66.9183 55.576 67.0124 54.7952C66.7772 54.2156 66.7831 53.4266 66.8448 52.7083C66.7008 52.0499 66.739 51.3289 66.7655 50.6187C66.7126 49.9412 66.7478 49.2257 66.7478 48.5319C66.7478 48.5319 66.7596 47.4898 66.7714 46.4477L66.7949 44.3636C66.8184 42.976 66.8096 41.5884 66.7655 40.198L66.7625 40.1953Z" fill="currentColor"/>
<path d="M67.4064 67.5035C67.136 67.3022 68.2176 68.6816 68.4321 68.8612C68.2176 68.6816 68.923 67.2233 69.1904 67.362C68.9259 67.2233 67.136 67.3049 67.4093 67.5062L67.4064 67.5035Z" fill="currentColor"/>
<path d="M78.9183 36.0508C78.4921 38.29 77.969 40.5156 77.3811 42.7249C77.2371 43.2772 77.0872 43.8296 76.9373 44.3819C76.7874 44.9342 76.6317 45.4838 76.4759 46.0334C76.3201 46.583 76.1908 47.2088 76.0027 47.6822C75.8734 48.2999 75.8234 49.0671 75.5236 49.3283C75.6676 49.5977 75.6059 50.6806 75.0387 50.9717C75.1503 52.2205 75.1415 53.2164 74.5537 52.6151C75.1415 53.2164 74.9093 54.838 74.0717 54.2584C74.7712 55.3141 74.783 55.8692 73.622 55.9072C74.6566 56.3344 74.4949 57.0581 73.1723 57.5615C74.1158 58.4512 73.7895 59.1831 72.7226 59.2157C73.6602 59.6511 73.2399 60.1925 72.2494 60.8646C72.9519 61.1475 72.3934 61.7624 71.7086 62.4998C72.2142 62.2522 72.2171 62.244 71.7086 62.4916C72.2142 62.244 72.0319 62.6821 71.6146 62.9324C72.0319 62.6821 71.9114 62.6793 71.5176 62.916C71.9114 62.6766 72.0584 62.2386 71.5822 62.4726C72.0584 62.2413 72.0584 62.2386 71.5822 62.4726C72.0584 62.2413 72.0613 62.2331 71.5822 62.4671C72.2053 61.7407 72.6962 61.1312 72.0143 60.8156C72.9254 60.1599 73.2958 59.6157 72.4023 59.1504C73.4074 59.1368 73.6984 58.3886 72.7932 57.4853C74.0335 56.9629 74.1687 56.212 73.1841 55.8202C74.2833 55.7331 74.2598 55.1672 73.6014 54.155C74.5184 54.1877 74.4597 53.5265 74.0629 52.5008C74.7536 52.5226 74.6918 51.7716 74.5361 50.852C74.9916 50.7323 74.9828 49.9541 75.021 49.2059C75.3561 48.7053 75.4619 47.7557 75.6794 47.0156C75.8998 46.2865 76.1203 45.5573 76.3407 44.8281C77.2224 41.9114 78.0954 38.992 78.9095 36.0562L78.9183 36.0508Z" fill="currentColor"/>
<path d="M70.7539 62.4538C71.0037 62.3178 71.3388 63.855 71.1918 64.0591C71.3388 63.855 73.1052 62.5463 72.4762 62.9055C73.1052 62.5463 71.0037 62.3178 70.7568 62.4538H70.7539Z" fill="currentColor"/>
<path d="M12.5459 76.0375C14.6121 75.8389 16.6842 75.6756 18.7534 75.5042L24.9667 75.0526C29.1109 74.7614 33.258 74.5302 37.4022 74.2717C41.5493 74.035 45.6964 73.8173 49.8406 73.5425C50.8781 73.4799 51.9127 73.4201 52.9502 73.3602C53.9877 73.3004 55.0517 73.2079 56.0598 73.1888C57.1179 73.0936 58.1907 72.963 59.1723 73.0365C60.2392 72.8678 61.2709 72.7589 62.2819 72.8569C62.2849 72.6855 62.2908 72.7344 62.2849 72.9031C60.9358 72.8678 59.5544 73.0745 58.1466 73.265C56.8181 73.2895 55.3867 73.4718 54.0053 73.5724C52.6239 73.6731 51.2425 73.7738 49.8641 73.8881C45.7229 74.2037 41.5728 74.4431 37.4286 74.6934L12.543 76.0375H12.5459Z" fill="currentColor"/>
<path d="M62.0822 73.6463C62.0881 73.5265 63.4225 72.6858 63.443 72.8545C63.4254 72.6858 62.0352 71.943 62.0234 72.1607C62.0352 71.943 62.0881 73.5293 62.0852 73.6463H62.0822Z" fill="currentColor"/>
<path d="M102.888 32.6914C101.653 34.2395 100.392 35.7659 99.1344 37.2977L95.3106 41.8551C92.7535 44.8861 90.1436 47.8817 87.5601 50.8936C84.956 53.892 82.3402 56.8767 79.7684 59.8968C79.1189 60.6477 78.4723 61.3987 77.8198 62.1496C77.1673 62.9005 76.5266 63.6896 75.8623 64.3943C75.2245 65.1806 74.6073 66.005 73.8902 66.6281C73.3053 67.4715 72.6998 68.2497 71.9415 68.8782C72.0767 68.9979 72.0356 68.9652 71.9004 68.8482C72.838 67.9504 73.6021 66.8648 74.3987 65.7737C75.2745 64.8486 76.0916 63.744 76.941 62.7319C77.7904 61.7197 78.6398 60.7049 79.4775 59.6846C82.0139 56.6372 84.6151 53.6362 87.2074 50.6297L102.891 32.6914H102.888Z" fill="currentColor"/>
<path d="M71.4443 68.2109C71.5354 68.2926 71.3091 69.7754 71.1621 69.6747C71.3091 69.7754 72.8404 69.3237 72.6728 69.1687C72.8374 69.3237 71.5354 68.2926 71.4443 68.2109Z" fill="currentColor"/>
<path d="M109.771 99.9743C108.195 99.0519 106.638 98.1024 105.077 97.1583L100.43 94.2715C97.3381 92.3397 94.2814 90.3562 91.21 88.3973C88.1504 86.4192 85.1054 84.4276 82.0223 82.4795C81.2552 81.987 80.491 81.4946 79.7239 80.9994C78.9597 80.5042 78.1544 80.0226 77.4343 79.5111C76.6319 79.035 75.7943 78.5779 75.1535 78.0065C74.2953 77.5848 73.5047 77.1304 72.8581 76.5264C72.7434 76.6624 72.7728 76.6216 72.8845 76.4883C73.8074 77.2202 74.9096 77.7779 76.0176 78.3629C76.964 79.0377 78.0868 79.6417 79.1184 80.2811C80.1501 80.9232 81.1846 81.5626 82.2251 82.1911C85.3318 84.1038 88.3943 86.0791 91.4599 88.0436L109.768 99.9716L109.771 99.9743Z" fill="currentColor"/>
<path d="M73.5094 76.0047C73.4301 76.0972 71.9487 76.07 72.0457 75.9258C71.9487 76.07 72.4425 77.3896 72.5924 77.2209C72.4425 77.3896 73.4301 76.0945 73.5094 76.002V76.0047Z" fill="currentColor"/>
<path d="M94.7732 97.7826C94.3764 97.448 93.9796 97.1079 93.6211 96.7324C93.2654 96.3569 92.9333 95.9488 92.7246 95.4672L92.7628 95.5135C92.2014 95.187 91.646 94.8142 91.2345 94.2973C91.0287 94.0388 90.8671 93.745 90.776 93.4321C90.6819 93.1192 90.6584 92.7899 90.6819 92.4716L90.8318 92.6512C90.4556 92.5886 90.0765 92.4961 89.7179 92.3492C89.3593 92.2022 89.0154 91.9982 88.7362 91.7343C88.4541 91.4704 88.2013 91.1194 88.0543 90.8391C87.8486 90.4773 87.5929 89.9766 87.634 89.8406C87.4841 89.6447 87.7281 89.846 87.8457 89.9984C87.4077 89.8324 86.9904 89.6148 86.9051 89.7889C86.4202 89.3862 86.0293 89.0243 86.0998 89.3345C85.3386 88.5237 84.5891 87.6639 84.8037 88.1619C84.2423 87.313 84.2717 87.3402 84.8272 88.1836C83.8719 87.0246 82.8579 86.3498 83.4605 87.0926C82.1614 85.7893 81.2914 85.305 82.0996 85.9961C80.9916 85.0629 81.0063 85.071 82.1143 86.007C81.1209 84.7146 80.3538 84.8234 79.5132 86.0369C79.3809 84.7364 79.2693 84.369 79.1811 84.9731C78.9989 84.3364 78.3464 84.9839 77.5499 86.0777C78.2259 84.9921 78.7755 84.3663 78.8989 84.9404C78.7725 84.3663 78.2141 84.9323 77.4852 85.958C78.2758 84.8261 78.9166 84.1242 78.99 84.6928C78.9401 84.0616 78.5551 84.4126 77.8379 85.373C78.6785 84.1677 79.2457 83.5011 79.1664 83.9419C78.7637 83.7405 78.943 83.4086 78.9871 83.278C78.7902 83.21 78.6315 83.1719 78.3581 82.8508C78.3581 83.0603 78.0348 83.2018 77.5381 82.6114C77.882 83.1692 77.7203 83.1964 77.3324 82.5679C77.7203 83.1991 77.8438 82.9923 77.4 82.3883C77.8732 82.9107 78.0613 82.5951 77.4588 81.9339C78.0378 82.4264 78.0789 82.2006 77.2795 81.5013C77.9114 81.9611 77.6909 81.6836 76.4918 80.7803C77.5028 81.5448 77.4881 81.534 76.4741 80.7667C77.4881 81.534 77.4823 81.5231 76.4653 80.7531C77.2501 81.2319 76.7798 80.5028 75.2191 79.4634C76.4565 80.198 74.9987 78.7288 73.8848 78.2227C74.9987 78.7288 75.0604 78.6689 73.9494 78.1602C75.0634 78.6689 76.6005 80.0348 75.3573 79.3301C76.9473 80.3232 77.4676 80.998 76.6975 80.5871C77.7262 81.2918 77.7056 81.27 76.6681 80.5626C77.9084 81.4061 78.17 81.6754 77.5646 81.3245C78.3905 81.9611 78.3552 82.2359 77.8173 81.8849C78.3905 82.4726 78.1495 82.8753 77.7585 82.4944C78.1142 82.976 78.073 82.8019 77.6204 82.2713C78.2406 82.8318 78.5962 82.6794 78.5227 82.508C78.9224 82.8019 79.137 82.8372 79.3369 83.0413C79.378 83.1256 79.1635 83.5691 79.619 83.9555C79.1517 83.9038 78.6609 84.4779 79.4339 84.8289C79.2487 84.1568 78.7343 84.633 77.9937 85.7077C78.6756 84.535 79.1605 83.9473 79.2428 84.5486C78.849 84.4507 79.7013 84.1378 80.9005 84.8914C80.3332 84.3473 81.1209 84.4452 82.4141 85.6288C81.4354 84.652 81.4442 84.6547 82.423 85.6342C81.4442 84.6547 81.4501 84.6602 82.4288 85.6397C81.7558 84.905 82.5934 85.3921 83.7985 86.7307C83.3017 85.958 84.2099 86.6464 85.1622 87.8272C84.6038 86.9647 84.6214 86.981 85.1769 87.8381C84.6214 86.981 84.6332 86.9919 85.1857 87.849C84.9829 87.3456 85.6501 88.1755 86.4114 88.9754C86.4731 88.7795 87.1873 89.3264 87.8809 89.5658C87.7105 89.359 87.8897 89.3889 88.0485 89.5767C87.8897 89.3889 87.9573 89.5603 88.0925 89.7236C88.1513 90.1916 88.5687 90.9942 89.0507 91.4567C89.5239 91.9274 90.2028 92.1887 90.9082 92.322L91.0728 92.3519L91.0581 92.5015C91.0287 92.7899 91.0434 93.0811 91.111 93.3586C91.1786 93.6388 91.3109 93.9028 91.4872 94.1422C91.8429 94.6238 92.3543 95.0101 92.8863 95.3611L92.9157 95.3802L92.9245 95.4074C93.092 95.8645 93.3889 96.2807 93.718 96.6698C94.0502 97.0562 94.4146 97.4235 94.7849 97.7854L94.7732 97.7826Z" fill="currentColor"/>
<path d="M74.7146 77.7496C75.8403 78.3618 73.8358 77.7714 72.9746 77.3633C73.8358 77.7714 74.5999 79.5889 73.4831 78.9495C74.5999 79.5862 75.8403 78.3591 74.7146 77.7469V77.7496Z" fill="currentColor"/>
<path d="M74.8716 120.387C73.4932 115.065 72.5732 109.607 71.8472 104.179C71.7885 103.744 72.0883 103.077 72.4821 103.325C72.3146 103.445 72.147 103.562 71.9824 103.681C71.668 101.747 71.3505 99.8125 71.036 97.8753C71.0155 97.7556 71.0184 97.6005 71.136 97.5542C71.2535 97.508 71.3094 97.7637 71.1918 97.7148C70.4688 96.485 69.9339 95.1626 69.6076 93.7995C69.8281 93.8648 70.0514 93.9274 70.2719 93.9927C70.0162 93.7696 69.7605 93.5438 69.5077 93.3207L70.2895 94.0662L69.2461 93.0214C69.2784 93.2091 69.8839 93.4458 69.9985 93.4785C69.7634 93.1084 69.2079 92.7194 68.7318 92.9615C69.2608 92.6241 70.119 92.9996 70.1719 93.5927C70.0191 92.9452 69.2608 92.4745 68.5554 92.5915C69.0316 92.1344 70.0426 92.4772 70.0896 93.1111C69.9162 92.3929 69.0903 91.8677 68.3056 91.9766C68.432 91.6392 68.8288 91.4079 69.2108 91.4487C69.5929 91.4896 69.9221 91.797 69.9633 92.1507C69.8045 91.2719 68.7494 90.6325 67.8148 90.8474C68.0499 90.5318 68.2997 90.1999 68.67 90.0285C69.0404 89.8571 69.5665 89.9033 69.7781 90.2325C69.3049 89.5278 68.1763 89.2939 67.4209 89.7401C67.947 89.0898 68.6759 88.581 69.4959 88.2899C68.964 87.8001 68.1204 87.6314 67.418 87.8709C67.994 87.4437 68.5701 87.0165 69.1491 86.5894C68.7465 86.5486 68.3438 86.5105 67.9441 86.4697C68.4467 86.1404 68.817 85.6425 68.9728 85.0902C68.5995 85.0385 68.2674 84.9487 68.0029 84.7229C68.3026 84.5515 68.6142 84.2794 68.7288 83.9611C69.252 82.481 68.4232 80.1057 68.235 78.582C68.8288 79.956 69.0698 81.4606 68.9316 82.9353C68.8817 83.4577 68.7905 84.0046 68.9904 84.4944C69.0933 84.7474 69.2696 84.9732 69.3402 85.2371C69.4812 85.765 69.0933 86.3663 68.5231 86.4996C68.8376 86.5567 69.1491 86.6139 69.4636 86.671C69.252 87.1363 68.8817 87.5389 68.4173 87.8029C68.8905 87.7076 69.4078 87.8137 69.7899 88.0885C69.3255 88.396 68.9169 88.7742 68.5819 89.1986C69.2255 89.1524 69.8839 89.4272 70.2748 89.9006C69.7311 89.8897 69.1991 90.2108 68.9904 90.676C69.6547 90.7794 70.2572 91.1767 70.5805 91.7235C70.2807 91.5168 69.8192 91.544 69.5518 91.7888C69.9721 91.963 70.3424 92.2432 70.6128 92.5888C70.3747 92.4718 70.219 92.9615 70.4864 92.9833C70.3483 92.5207 71.3182 92.469 71.3182 92.469C71.3182 92.469 70.46 92.733 70.7157 93.2771C72.0383 99.9785 72.8789 106.729 73.8341 113.476L74.3426 116.935C74.5248 118.088 74.7011 119.245 74.8863 120.395C74.8863 120.395 74.8863 120.39 74.8863 120.387H74.8716Z" fill="currentColor"/>
<path d="M69.4102 78.3988C69.9421 79.1824 67.8965 76.5486 67.7613 76.3555C67.8965 76.5486 67.0941 79.1361 66.6738 78.6981C67.0912 79.1361 69.9392 79.1824 69.4102 78.3988Z" fill="currentColor"/>
<path d="M55.1719 17.7777C55.601 19.1381 56.0037 20.5067 56.3946 21.878C56.7855 23.2492 57.1734 24.6232 57.532 26.0027C57.8965 27.3821 58.255 28.7616 58.596 30.1465C58.9369 31.5314 59.2573 32.938 59.5747 34.3393L59.5688 34.3066C59.7217 34.9161 59.8745 35.5255 60.0185 36.1432C60.089 36.4506 60.1596 36.7608 60.2242 37.0791C60.2566 37.2396 60.283 37.4002 60.3065 37.5716C60.3183 37.6614 60.3271 37.7484 60.3301 37.86C60.3301 37.9171 60.3301 37.9797 60.3036 38.0967C60.2889 38.1402 60.283 38.1674 60.2536 38.2164C60.2125 38.279 60.1831 38.3307 60.089 38.3769C59.9921 38.4314 59.9127 38.4341 59.8363 38.4069C59.7687 38.4041 59.7363 38.3851 59.6952 38.347C59.6893 38.3606 60.2242 37.8736 60.2242 37.8736C60.4065 38.4858 60.5652 39.1496 60.7592 39.721C60.9032 40.3849 60.9914 41.1222 61.2324 41.5984C61.2735 42.3684 61.2882 43.1248 61.6056 43.5002C61.4998 44.3573 61.4675 45.0837 61.8849 45.4048C61.5439 45.6878 61.1383 45.315 61.4704 45.0021C61.25 45.315 61.3705 45.3449 61.7526 45.1028C61.4881 45.4374 61.5263 45.4728 61.8849 45.2334C61.6086 45.5816 61.6438 45.6442 62.0024 45.4238C61.7232 45.802 61.7467 45.9 62.1288 45.7286C61.8437 46.1721 61.8731 46.3571 62.2934 46.2754C62.0083 46.8659 62.0465 47.2196 62.5462 47.3311C62.264 48.2154 62.3463 48.969 62.9782 49.4234C62.4756 49.6193 62.4462 49.5187 62.9459 49.32C62.505 49.6574 62.5256 49.7554 63.0605 49.6601C62.5579 49.8533 62.6343 50.1499 63.1428 49.9567C62.6373 50.1499 62.7754 50.7294 63.2868 50.539C62.7754 50.7321 63.0399 51.8885 63.5513 51.6926C63.1957 52.6013 63.4544 53.4856 64.0921 53.9808C63.6248 54.1903 64.0128 55.4446 64.6535 56.2717C64.5301 57.5478 64.9122 58.7721 65.2149 58.5626C65.0856 59.4741 65.3119 60.2577 65.7704 60.8563C65.6499 61.6643 65.8262 62.369 66.3112 63.1526C66.1554 63.7839 66.367 64.5212 66.8226 65.4599C66.6668 65.9632 66.8902 66.7713 67.2635 67.7834C67.0166 67.5114 67.0107 67.495 67.2605 67.7671C67.0136 67.495 67.2782 68.3167 67.4986 68.5834C67.2782 68.3167 67.1371 68.3575 67.3546 68.6296C67.1371 68.3575 66.8344 67.5495 67.0783 67.8297C66.8344 67.5467 66.8314 67.544 67.0783 67.8243C66.8344 67.5413 66.8314 67.5304 67.0783 67.8134C66.6756 66.804 66.4111 66.0068 66.5199 65.5279C66.0379 64.5919 65.791 63.8628 65.9056 63.2533C65.6029 63.1662 65.3031 62.1214 65.2796 60.9787C64.727 60.0346 64.3479 58.8864 64.6535 58.7041C64.1568 58.1953 63.8071 57.3083 64.0334 56.4268C63.4338 55.9316 63.087 55.0228 63.425 54.144C62.7284 53.6434 62.4286 52.7428 62.843 51.8504C62.2669 52.049 61.9789 50.9199 62.5609 50.7104C61.9789 50.9199 61.8378 50.3648 62.4168 50.1472C61.8408 50.3648 61.7673 50.0982 62.3404 49.8751C61.7438 50.0247 61.7115 49.9132 62.2699 49.6574C61.6997 49.8832 61.6791 49.8397 62.2493 49.6139C61.6791 49.8424 61.6674 49.7853 62.2376 49.5567C61.538 49.1486 61.4499 48.4004 61.7996 47.4862C61.2353 47.4454 61.1971 47.0971 61.5527 46.4741C61.0707 46.6346 61.0443 46.4713 61.4087 46.0034C60.9708 46.2673 60.9502 46.1965 61.3323 45.8184C60.9179 46.1312 60.9091 46.1231 61.3147 45.7857C60.9208 46.1312 60.9267 46.1394 61.3558 45.8265C60.9796 46.1802 61.0531 46.2047 61.5263 45.8809C61.1295 46.1993 60.7268 45.832 61.1119 45.4783C60.5593 44.6538 60.6181 43.171 60.4829 41.7535C60.089 40.7767 59.8657 39.3156 59.5159 38.0885C59.513 38.0967 60.045 37.6151 60.045 37.6151C60.0156 37.5961 59.9979 37.5879 59.9538 37.577C59.8892 37.5634 59.8304 37.5661 59.751 37.6015C59.6717 37.6505 59.6511 37.6777 59.6217 37.7267C59.6011 37.7648 59.5982 37.7702 59.5923 37.7947C59.5806 37.8382 59.5894 37.8246 59.5865 37.8028C59.5865 37.762 59.5806 37.6913 59.5747 37.626C59.56 37.4872 59.5335 37.3403 59.5071 37.1907C59.4542 36.8914 59.3895 36.5894 59.3249 36.2846C59.1926 35.6779 59.0515 35.0684 58.9075 34.459L58.9016 34.4263C58.6018 33.0442 58.3344 31.662 58.0317 30.2716L57.1058 26.1006L56.1624 21.9324L55.1836 17.7695L55.1719 17.7777Z" fill="currentColor"/>
<path d="M65.9439 68.4314C65.744 68.1021 67.7162 70.608 67.8514 70.8148C67.7162 70.6107 68.404 67.694 68.642 67.9062C68.404 67.694 65.747 68.1021 65.9468 68.4314H65.9439Z" fill="currentColor"/>
<path d="M123.543 60.3242C122.164 60.7079 120.777 61.067 119.387 61.4125C117.997 61.7608 116.603 62.1063 115.204 62.4247C113.805 62.7485 112.406 63.0668 111.001 63.3688C109.597 63.6708 108.168 63.9511 106.749 64.234L106.781 64.2286C106.164 64.3646 105.543 64.5007 104.92 64.6285C104.609 64.6911 104.294 64.7537 103.971 64.8081C103.809 64.8353 103.645 64.8598 103.471 64.8816C103.38 64.8897 103.292 64.9006 103.177 64.9006C103.119 64.9006 103.054 64.9006 102.936 64.8734C102.892 64.8598 102.866 64.8516 102.813 64.8272C102.748 64.7891 102.695 64.7591 102.648 64.6721C102.593 64.5823 102.587 64.5088 102.616 64.4381C102.616 64.3755 102.637 64.3456 102.675 64.3075C102.66 64.302 103.16 64.7999 103.16 64.7999C102.54 64.9632 101.864 65.102 101.288 65.2761C100.612 65.404 99.8651 65.4774 99.3831 65.6951C98.6012 65.725 97.8312 65.7332 97.452 66.0216C96.5821 65.9155 95.8414 65.8801 95.5181 66.2637C95.2271 65.9481 95.6033 65.5754 95.9237 65.8856C95.6033 65.6788 95.5739 65.7903 95.8238 66.144C95.4799 65.8964 95.4446 65.9318 95.6915 66.2665C95.3359 66.008 95.2712 66.0406 95.4975 66.3726C95.1096 66.1087 95.0096 66.1331 95.1889 66.4869C94.7363 66.2202 94.5482 66.2447 94.6363 66.6338C94.0338 66.3644 93.6723 66.3943 93.5665 66.8569C92.6642 66.5875 91.9 66.6583 91.4445 67.2351C91.2387 66.7698 91.3416 66.7426 91.5473 67.2051C91.2005 66.7943 91.1006 66.8133 91.2005 67.3085C90.9977 66.8406 90.6979 66.9113 90.9007 67.382C90.7009 66.9113 90.1101 67.0365 90.31 67.5099C90.1101 67.0337 88.9374 67.2704 89.1402 67.7439C88.2143 67.4065 87.315 67.6378 86.8183 68.2227C86.6008 67.7901 85.3311 68.1357 84.4963 68.7179C83.1972 68.59 81.9569 68.9329 82.1744 69.2131C81.2457 69.0852 80.4521 69.2866 79.8496 69.7028C79.0266 69.5831 78.3095 69.7409 77.5188 70.1817C76.8752 70.0321 76.1257 70.2198 75.1793 70.6306C74.6649 70.481 73.8479 70.6823 72.8221 71.017C73.0984 70.7912 73.1131 70.7857 72.8368 71.0143C73.1131 70.7885 72.2784 71.0252 72.0109 71.2265C72.2784 71.0252 72.2372 70.8946 71.9609 71.0932C72.2372 70.8946 73.0543 70.6225 72.7692 70.8429C73.0543 70.6198 73.0572 70.6198 72.7751 70.8429C73.0602 70.6198 73.069 70.617 72.7868 70.8429C73.8097 70.481 74.6179 70.2443 75.1058 70.3477C76.0522 69.9096 76.7929 69.6892 77.413 69.8008C77.4983 69.5233 78.5593 69.2566 79.7202 69.2458C80.6755 68.7424 81.8394 68.4023 82.0275 68.6907C82.5389 68.2363 83.4383 67.9234 84.3376 68.1411C84.8373 67.5915 85.7543 67.2813 86.6507 67.6024C87.1533 66.963 88.0674 66.6936 88.9756 67.0854C88.7698 66.5494 89.9132 66.2964 90.1307 66.8351C89.9132 66.2964 90.4745 66.1712 90.7009 66.7072C90.4745 66.1712 90.7449 66.1059 90.9771 66.6392C90.8184 66.0869 90.933 66.057 91.1976 66.5739C90.9624 66.0434 91.0065 66.0243 91.2417 66.5549C91.0036 66.0243 91.0624 66.0162 91.3004 66.544C91.709 65.9019 92.4702 65.8257 93.4019 66.1576C93.4401 65.6352 93.7928 65.6053 94.4277 65.94C94.2601 65.4938 94.4277 65.4693 94.9038 65.8121C94.6305 65.4067 94.701 65.3876 95.0919 65.7414C94.7686 65.355 94.7804 65.3496 95.1242 65.725C94.7686 65.3577 94.7627 65.3632 95.0831 65.7631C94.7187 65.4121 94.6981 65.4802 95.0273 65.9209C94.6981 65.5509 95.0684 65.1809 95.4329 65.5427C96.2646 65.0421 97.7724 65.1074 99.2126 64.9986C100.203 64.6421 101.684 64.4517 102.931 64.1415C102.922 64.1388 103.416 64.634 103.416 64.634C103.433 64.6068 103.442 64.5904 103.454 64.5496C103.468 64.4898 103.463 64.4354 103.427 64.3619C103.377 64.2884 103.348 64.2694 103.301 64.2422C103.263 64.2231 103.254 64.2204 103.23 64.215C103.186 64.2041 103.201 64.2123 103.222 64.2095C103.263 64.2095 103.333 64.2068 103.401 64.1987C103.542 64.185 103.692 64.1633 103.842 64.1415C104.144 64.0953 104.453 64.0381 104.759 63.981C105.376 63.864 105.993 63.7388 106.61 63.6137L106.643 63.6082C108.045 63.3443 109.447 63.1103 110.857 62.8437L115.087 62.0274L119.316 61.1949L123.54 60.3297L123.543 60.3242Z" fill="currentColor"/>
<path d="M72.1464 69.79C72.4815 69.6104 69.9479 71.4061 69.7422 71.5286C69.9479 71.4061 72.9194 72.0673 72.7078 72.2877C72.9194 72.07 72.4815 69.6104 72.1464 69.79Z" fill="currentColor"/>
<path d="M81.1872 126.772C80.7581 125.406 80.3525 124.032 79.9616 122.652C79.5707 121.275 79.1827 119.896 78.8212 118.508C78.4538 117.124 78.0952 115.736 77.7543 114.346C77.4134 112.955 77.093 111.54 76.7726 110.136L76.7785 110.169C76.6257 109.557 76.4699 108.945 76.3259 108.324C76.2524 108.014 76.1848 107.704 76.1201 107.386C76.0878 107.225 76.0584 107.065 76.0378 106.891C76.0261 106.801 76.0173 106.714 76.0143 106.599C76.0143 106.542 76.0143 106.477 76.0408 106.363C76.0555 106.319 76.0614 106.292 76.0907 106.24C76.1319 106.178 76.1613 106.123 76.2553 106.08C76.3523 106.025 76.4317 106.023 76.5081 106.05C76.5757 106.053 76.608 106.072 76.6492 106.11C76.6551 106.096 76.1201 106.583 76.1201 106.583C75.935 105.968 75.7792 105.299 75.5852 104.728C75.4412 104.061 75.3501 103.318 75.112 102.842C75.0709 102.069 75.0532 101.31 74.7387 100.932C74.8446 100.072 74.8739 99.343 74.4566 99.0193C74.7975 98.7363 75.2031 99.1118 74.871 99.4247C75.0914 99.1091 74.9709 99.0791 74.5888 99.324C74.8504 98.9866 74.8152 98.9513 74.4566 99.1934C74.7299 98.8451 74.6976 98.7798 74.339 99.0002C74.6182 98.6193 74.5918 98.5214 74.2126 98.6955C74.4977 98.2493 74.4683 98.0643 74.048 98.1459C74.3331 97.5528 74.2949 97.1963 73.7953 97.0848C74.0774 96.1978 73.9922 95.4414 73.3603 94.9843C73.8599 94.7884 73.8923 94.8891 73.3926 95.0877C73.8335 94.7503 73.81 94.6524 73.2751 94.7449C73.7776 94.549 73.7012 94.2551 73.1928 94.4483C73.6983 94.2551 73.5602 93.6729 73.0487 93.8661C73.5602 93.6729 73.2927 92.5111 72.7813 92.707C73.1369 91.7955 72.8753 90.9058 72.2375 90.4079C72.7049 90.1984 72.314 88.9387 71.6762 88.1088C71.7996 86.8273 71.4146 85.5975 71.1148 85.8097C71.2441 84.8956 71.0149 84.1065 70.5593 83.5079C70.6798 82.6944 70.5005 81.987 70.0156 81.2007C70.1713 80.5667 69.9597 79.824 69.5012 78.8826C69.657 78.3765 69.4307 77.5657 69.0574 76.5481C69.3043 76.8229 69.3102 76.8392 69.0603 76.5644C69.3072 76.8392 69.0427 76.0121 68.8223 75.7455C69.0427 76.0121 69.1838 75.974 68.9663 75.6992C69.1838 75.974 69.4894 76.7848 69.2455 76.5019C69.4894 76.7848 69.4924 76.7903 69.2455 76.5073C69.4894 76.7903 69.4924 76.8011 69.2455 76.5182C69.6482 77.533 69.9156 78.333 69.8069 78.8145C70.2889 79.7559 70.5358 80.4878 70.4241 81.1C70.7268 81.1898 71.0266 82.2373 71.0501 83.3855C71.6027 84.3323 71.9848 85.486 71.6762 85.671C72.1729 86.1825 72.5226 87.0749 72.2963 87.9592C72.8959 88.4571 73.2427 89.3686 72.9047 90.2501C73.6042 90.7534 73.904 91.6595 73.4896 92.5546C74.0657 92.356 74.3537 93.4906 73.7718 93.7001C74.3537 93.4906 74.4948 94.0456 73.9187 94.266C74.4948 94.0483 74.5683 94.3177 73.9951 94.5381C74.5918 94.3885 74.6241 94.5 74.0686 94.7558C74.6388 94.5299 74.6594 94.5735 74.0892 94.7993C74.6594 94.5707 74.6711 94.6279 74.101 94.8564C74.8005 95.2646 74.8916 96.0182 74.5418 96.9351C75.1061 96.9787 75.1443 97.3269 74.7887 97.95C75.2707 97.7895 75.2972 97.9527 74.9327 98.4234C75.3707 98.1595 75.3912 98.2275 75.0091 98.6111C75.4236 98.2983 75.4294 98.3064 75.0268 98.6438C75.4206 98.2955 75.4147 98.2901 74.9856 98.603C75.3618 98.2466 75.2884 98.2248 74.8152 98.5458C75.2119 98.2248 75.6146 98.5948 75.2296 98.9512C75.7821 99.7784 75.7263 101.267 75.8615 102.692C76.2583 103.675 76.4816 105.141 76.8314 106.374C76.8343 106.365 76.3024 106.847 76.3024 106.847C76.3318 106.866 76.3494 106.874 76.3964 106.885C76.4611 106.899 76.5199 106.896 76.5992 106.861C76.6786 106.812 76.6991 106.784 76.7285 106.735C76.7491 106.697 76.752 106.692 76.7579 106.667C76.7697 106.624 76.7609 106.638 76.7638 106.659C76.7638 106.7 76.7697 106.771 76.7756 106.836C76.7903 106.975 76.8167 107.122 76.8432 107.271C76.8961 107.571 76.9607 107.876 77.0254 108.18C77.1577 108.79 77.3017 109.402 77.4427 110.014L77.4486 110.047C77.7484 111.434 78.0159 112.822 78.3215 114.22L79.2503 118.408L80.1967 122.592L81.1784 126.774L81.1872 126.772Z" fill="currentColor"/>
<path d="M70.3729 75.8943C70.5728 76.2263 68.5977 73.7068 68.4654 73.5C68.6006 73.7068 67.9158 76.6344 67.6777 76.4194C67.9158 76.6317 70.5728 76.2235 70.3729 75.8916V75.8943Z" fill="currentColor"/>
<path d="M14.5986 89.7916C15.9301 89.2746 17.2733 88.7795 18.6194 88.2979C19.9655 87.8136 21.3175 87.3347 22.6754 86.8776C24.0333 86.4151 25.3941 85.9634 26.7608 85.5226C28.1275 85.0846 29.5177 84.6629 30.902 84.2411L30.8697 84.2493C31.4693 84.0534 32.0718 83.8575 32.6802 83.6698C32.9859 83.5745 33.2915 83.482 33.606 83.3977C33.7647 83.3542 33.9234 83.3134 34.0969 83.2753C34.185 83.2562 34.2732 83.2399 34.3878 83.229C34.4466 83.2236 34.5113 83.2154 34.6318 83.229C34.6759 83.2372 34.7053 83.2426 34.7611 83.2644C34.8287 83.297 34.8875 83.3188 34.9433 83.4031C35.008 83.4875 35.0227 83.5582 35.0021 83.6317C35.008 83.6943 34.9933 83.7269 34.958 83.7677C34.9727 83.7704 34.4172 83.3242 34.4172 83.3242C35.0168 83.1011 35.6752 82.8971 36.2307 82.6658C36.889 82.4726 37.6268 82.3257 38.0823 82.0618C38.8583 81.9529 39.6254 81.8713 39.9692 81.5475C40.851 81.5693 41.5917 81.5285 41.8709 81.1177C42.1971 81.4033 41.865 81.8115 41.5094 81.5339C41.8532 81.7081 41.8709 81.5938 41.577 81.2646C41.9473 81.4768 41.9796 81.4387 41.6945 81.1313C42.0795 81.3516 42.1383 81.3163 41.8738 81.0061C42.2912 81.2292 42.3882 81.1966 42.1677 80.8619C42.6497 81.0823 42.8349 81.0388 42.7026 80.6606C43.3346 80.8673 43.6902 80.802 43.746 80.3313C44.6748 80.5109 45.4302 80.364 45.8181 79.7436C46.0738 80.1871 45.9768 80.2252 45.7182 79.7817C46.112 80.1572 46.2061 80.1273 46.0503 79.643C46.306 80.0865 46.597 79.9885 46.3413 79.5423C46.5941 79.9912 47.1672 79.8089 46.9144 79.3573C47.1672 79.8089 48.3105 79.4607 48.0548 79.009C49.0188 79.2539 49.8859 78.9356 50.315 78.3043C50.5795 78.7125 51.8081 78.2418 52.5752 77.5806C53.8861 77.5806 55.0823 77.1153 54.8354 76.8569C55.7759 76.8922 56.546 76.612 57.0985 76.1386C57.9332 76.1767 58.6298 75.9481 59.3675 75.4312C60.0259 75.5182 60.7519 75.257 61.6512 74.751C62.1803 74.8489 62.9739 74.5687 63.9585 74.1333C63.7086 74.3864 63.6939 74.3918 63.9438 74.1388C63.6939 74.3918 64.4993 74.0735 64.7432 73.8477C64.4993 74.0735 64.5551 74.2014 64.8079 73.9755C64.5551 74.2014 63.7704 74.5523 64.029 74.302C63.7704 74.5523 63.7674 74.5523 64.0231 74.302C63.7645 74.5523 63.7557 74.5551 64.0114 74.3048C63.0326 74.7673 62.2538 75.0829 61.7571 75.0258C60.8636 75.5536 60.1493 75.8475 59.5204 75.7985C59.4645 76.0842 58.4388 76.4542 57.2837 76.5793C56.3902 77.1725 55.2674 77.6269 55.047 77.3602C54.5885 77.8608 53.7273 78.2635 52.8074 78.1357C52.3724 78.7315 51.4907 79.1315 50.5619 78.9002C50.1357 79.5858 49.254 79.9423 48.3017 79.643C48.5692 80.1545 47.4552 80.5191 47.176 80.0048C47.4552 80.5191 46.9085 80.6987 46.6234 80.1899C46.9115 80.6987 46.647 80.7912 46.356 80.2851C46.5764 80.8184 46.4677 80.8592 46.1444 80.3722C46.4412 80.8755 46.3971 80.9 46.1003 80.3966C46.3971 80.9 46.3413 80.9163 46.0415 80.413C45.7094 81.0932 44.957 81.2428 43.99 81.0034C44.0135 81.5258 43.6637 81.5911 42.9936 81.3217C43.2111 81.7489 43.0495 81.7897 42.5322 81.4986C42.8496 81.8768 42.782 81.9013 42.3529 81.5856C42.7173 81.9366 42.7085 81.9448 42.3206 81.6047C42.7173 81.9366 42.7232 81.9285 42.3558 81.5611C42.7585 81.874 42.7732 81.8033 42.394 81.4006C42.7644 81.7353 42.4381 82.1407 42.0325 81.8169C41.2595 82.3992 39.7488 82.4808 38.3263 82.7338C37.3799 83.1855 35.925 83.5229 34.717 83.9527C34.7258 83.9527 34.1762 83.5092 34.1762 83.5092C34.1615 83.5392 34.1527 83.5555 34.1468 83.599C34.138 83.6616 34.1468 83.7133 34.1939 83.7813C34.2526 83.8493 34.282 83.8657 34.3349 83.8874C34.3731 83.901 34.382 83.9038 34.4084 83.9065C34.4525 83.9119 34.4378 83.9065 34.4172 83.9092C34.3761 83.9119 34.3055 83.9228 34.2379 83.9364C34.0998 83.9636 33.9528 83.999 33.8059 84.0371C33.509 84.1133 33.2092 84.2003 32.9094 84.2874C32.3069 84.4643 31.7044 84.6493 31.1048 84.837L31.0725 84.8452C29.7029 85.2451 28.3332 85.6179 26.9548 86.0233L22.8282 87.2531L18.7076 88.4992L14.5957 89.7753L14.5986 89.7916Z" fill="currentColor"/>
<path d="M64.7689 75.2941C64.4574 75.5064 66.7764 73.4685 66.9674 73.327C66.7764 73.4685 63.7373 73.1039 63.9254 72.8672C63.7373 73.1066 64.4574 75.5091 64.7689 75.2941Z" fill="currentColor"/>
<path d="M91.4221 42.6433C90.5844 43.7507 89.3441 45.541 89.203 45.6825C88.6975 46.4797 86.355 50.0222 87.0869 48.7706C85.7878 50.8439 85.0177 52.0791 84.9207 51.8451C83.9714 53.5021 83.4335 54.2585 82.6194 54.8543C82.9192 54.9224 82.9133 54.9278 82.6106 54.8652C82.9133 54.9278 82.9045 54.9387 82.5959 54.8788C82.6547 55.1863 82.3637 55.4366 81.3232 55.9046C81.7083 55.8338 81.2439 56.027 79.6861 56.5195C80.8324 56.0923 81.0558 55.9018 79.9742 56.261C80.9647 56.4351 80.7178 57.0881 79.4128 58.5546C80.3327 58.2009 79.7479 59.0961 78.2607 60.7476C78.922 60.1898 77.8433 61.2319 76.3561 62.5569C76.5618 62.1352 75.107 63.0875 74.0107 63.8847C74.3457 63.4467 74.5044 63.1174 74.1018 63.5963C74.7425 63.4385 74.8571 63.9228 74.669 64.7336C75.057 64.6982 74.8718 65.3376 74.6632 65.996C74.5603 66.5538 73.7579 67.5115 73.3082 68.2353C73.1906 68.1754 73.1965 68.1645 73.317 68.2244C73.1995 68.1645 72.9761 68.5373 73.1025 68.5917C72.9761 68.5373 72.8497 68.4938 72.982 68.5509C72.8468 68.4938 73.0408 68.1156 73.1701 68.1754C73.0408 68.1156 73.0437 68.1101 73.1701 68.17C73.0408 68.1101 73.0466 68.102 73.1759 68.1618C73.5639 67.4163 74.2605 66.4776 74.3281 65.9607C74.4721 65.3567 74.5985 64.8098 74.2723 64.8315C74.3839 64.1214 74.234 63.7133 73.7079 63.8303C74.0018 63.4249 73.8696 63.2562 73.5698 63.6589C73.8696 63.2562 74.1606 63.1011 73.799 63.5446C74.8865 62.7365 76.312 61.8006 76.0122 62.2087C77.4935 60.9245 78.534 59.9695 77.7492 60.4946C79.2776 58.9356 79.8448 58.1166 78.7897 58.4349C80.2093 57.05 80.465 56.4134 79.3129 56.2229C80.5473 55.8855 80.5767 55.7332 79.3452 56.008C80.5767 55.7304 80.7736 55.6978 79.598 55.9644C81.1087 55.6379 81.4966 55.4992 80.9617 55.4529C82.0668 55.1563 82.3372 54.936 82.105 54.5387C82.5665 54.7047 82.5518 54.721 82.0815 54.5632C83.0691 54.0571 83.6069 53.3008 84.4211 51.5948C84.6768 51.8968 85.4351 50.6643 86.6754 48.5774C86.6254 49.0509 87.757 47.2687 88.9562 45.5628C89.1942 45.4567 90.4698 43.6909 91.4133 42.6406L91.4221 42.6433Z" fill="currentColor"/>
<path d="M72.1521 67.9022C71.9464 67.8261 72.1345 69.8041 72.2579 69.8639C72.1345 69.8014 74.1713 68.6477 74.2271 68.6886C74.1713 68.645 71.9493 67.8233 72.1521 67.8995V67.9022Z" fill="currentColor"/>
<path d="M30.5918 97.8537C30.7476 97.2116 31.9556 96.6864 33.1665 96.1042C33.5927 95.5573 34.8154 94.9234 35.7059 94.3112C35.653 94.3221 36.9727 93.4106 38.2394 92.51L40.773 90.7088C41.1962 90.4095 41.6224 90.113 42.0486 89.8164C42.4747 89.5198 42.9038 89.226 43.333 88.9349C43.8032 88.6192 46.5013 87.0521 45.1464 87.7894C47.3302 86.5297 48.497 85.8576 45.9253 87.199C48.6616 85.7488 49.9725 85.0441 47.5859 86.3011C50.1429 84.9407 50.0548 84.9734 47.2361 86.3419C50.0518 84.9734 50.4868 84.7557 48.6763 85.6617C50.5309 84.7312 50.3869 84.7938 47.8916 85.9148C50.5456 84.7258 50.6543 84.6741 48.6087 85.5311C50.7014 84.6496 50.7631 84.6197 50.1224 84.9162C50.7954 84.6115 50.8131 84.6088 51.8035 84.655C50.8336 84.6088 50.8219 84.6115 51.5214 84.7802C50.8307 84.6006 50.8777 84.5734 52.6118 83.5313C50.9659 84.4999 50.9424 84.5108 52.3473 83.5858C51.6683 84.0265 51.4185 84.1789 51.639 83.9884C51.8594 83.798 52.8234 83.2973 53.7698 82.3342C52.8499 83.2729 51.9711 83.7055 51.9299 83.7354C51.8888 83.7653 52.4178 83.3545 53.5171 82.5029C52.4766 83.3028 52.2356 83.4769 52.5618 83.2048C52.891 82.9328 54.5546 82.3777 55.0248 81.2105C54.631 82.3151 53.4377 82.6008 53.3554 82.5627C53.4965 82.5627 54.8015 82.2607 55.1248 81.1697C54.9543 82.141 54.6574 82.0866 54.5252 81.6513C55.4069 81.5016 56.9441 81.2132 56.3915 80.1929C56.6737 81.4826 58.9163 80.5439 57.8611 79.3141C59.7451 80.1058 60.5945 80.2691 59.4218 78.5876C61.4028 79.9426 62.0876 80.1276 61.0442 78.0054C62.8635 79.8827 63.3749 79.9997 62.7048 77.5374C63.7541 79.9072 63.6806 80.1439 62.5314 77.7469C63.6953 79.7685 63.3455 78.2421 62.9752 76.1226C63.7746 77.4394 63.8334 76.1416 64.001 74.7758C64.5623 75.4233 64.8915 74.4302 65.3118 73.6983C65.7821 73.7936 66.2523 73.078 66.7373 72.7787C66.7285 72.7869 66.7226 72.795 66.7285 72.7841C66.7197 72.7923 67.5544 72.0876 67.5661 72.1502C67.5514 72.0876 67.6278 72.1774 67.6425 72.2345C67.6308 72.1774 66.8313 72.9474 66.8431 72.9039C66.8343 72.9474 66.8313 72.9501 66.8431 72.9039C66.8343 72.9474 66.8284 72.9528 66.8372 72.9066C66.367 73.263 65.9143 74.0847 65.4764 73.8833C65.0855 74.7377 64.7886 75.826 64.2596 74.9853C64.1391 76.5225 64.1009 77.8176 63.3485 76.2777C63.7511 78.5441 64.048 79.9453 63.0075 77.7469C64.0509 80.2691 64.0979 80.4813 63.0075 77.9074C64.095 80.4786 63.9804 80.4976 62.8341 77.9564C63.6365 80.5956 63.178 80.514 61.2205 78.4543C62.4785 80.7534 61.8583 80.601 59.6569 79.061C61.1353 80.9139 60.3417 80.7643 58.1638 79.7902C59.5952 81.1751 57.3585 81.975 56.7619 80.6582C57.623 81.8091 55.2982 82.0512 54.2342 82.3587C54.1166 82.8675 54.2607 83.0171 54.6633 82.1873C54.0696 83.1667 52.5207 83.5477 52.4237 83.6483C52.3267 83.749 53.5141 83.5232 54.2577 82.7532C53.4612 83.5776 52.0357 83.9558 51.733 84.1653C51.4303 84.3748 51.6448 84.3585 52.3091 84.2007C50.9042 84.5897 50.8924 84.6169 52.0681 85.1611C50.8454 84.6197 50.8395 84.6224 51.9623 85.2863C50.8395 84.6224 50.8307 84.6197 51.7859 85.2863C50.8131 84.6224 50.7954 84.6224 50.334 85.5175C50.7631 84.6333 50.7102 84.6795 48.9232 86.0835C50.6661 84.6986 50.575 84.7666 48.256 86.4344C50.4339 84.8564 50.5574 84.7666 48.9261 85.9964C50.5162 84.7911 50.1282 85.0686 47.6035 86.8534C50.1282 85.0686 50.2047 85.0115 47.8769 86.6739C50.043 85.1176 48.838 85.9501 46.2985 87.6942C48.6734 86.0535 47.5829 86.7936 45.4873 88.2138C46.7688 87.3241 44.1677 89.0709 43.6886 89.3865C43.2565 89.6722 42.8245 89.9579 42.3924 90.2463C41.9604 90.5347 41.5283 90.8204 41.0963 91.1088C40.2351 91.6856 39.371 92.2651 38.5098 92.8419C37.6487 93.4188 36.7346 94.001 35.9087 94.5588C34.9946 95.1247 33.7455 95.7178 33.2723 96.2321C32.0437 96.7735 30.7858 97.2524 30.5859 97.8373L30.5918 97.8537Z" fill="currentColor"/>
<path d="M68.1154 73.2907C68.1536 73.473 68.9325 71.0841 68.9707 71.1793C68.9354 71.0868 66.5548 71.4405 66.5665 71.5494C66.5518 71.4405 68.1536 73.473 68.1154 73.2907Z" fill="currentColor"/>
<path d="M95.9534 50.668C95.3803 51.2529 94.7572 51.7917 94.1282 52.3277C93.5375 52.8882 92.9026 53.4269 92.2913 53.9765C92.2619 53.9901 90.857 55.0185 90.4396 55.6117C89.0964 56.5748 87.5857 57.5462 88.588 57.2469C87.5857 57.5462 86.2043 58.3869 86.7216 58.8658C84.7377 59.6602 83.7619 60.2534 84.8553 60.4846C83.5356 60.4466 83.2623 60.6343 83.9265 61.3091C82.8185 61.0288 82.6068 61.2329 82.9742 62.1307C82.2336 61.505 82.1042 61.5947 82.407 62.4844C81.8074 61.7389 81.634 61.8015 81.6516 62.6586C81.3695 61.7852 81.3136 61.7553 81.4282 62.6096C81.2137 61.7226 81.1637 61.6845 81.2313 62.5062C81.0403 61.5975 80.9786 61.5049 80.9609 62.2178C80.8375 61.2927 80.7963 61.1132 80.7052 61.6002C80.7552 60.9744 81.0726 61.007 81.1725 61.6464C80.8198 61.4913 80.5318 62.1852 79.9557 63.736C79.8646 63.1837 79.3297 64.1305 78.3598 65.6243C78.301 65.0502 77.3722 65.9997 76.2466 67.0037C76.0055 66.6799 74.8593 67.4662 73.9188 67.9832C74.098 67.7519 74.0863 67.488 73.8806 67.7465C74.3596 67.5288 74.7211 67.5125 74.7358 67.9723C75.0562 67.6893 75.1209 67.7438 74.9269 68.1301C75.2237 67.8771 75.2237 68.0104 74.9974 68.3804C75.1914 68.2526 75.0356 68.4621 74.7887 68.775C74.7623 68.7722 74.4478 69.0606 74.1539 69.3164C74.0069 69.3817 73.7189 69.5885 73.4661 69.7789C73.4896 69.7354 73.4309 69.6647 73.4103 69.7082C73.6542 69.5069 73.9335 69.2892 74.0657 69.2184C74.3479 68.9518 74.6506 68.658 74.6447 68.6716C74.8828 68.3668 74.9945 68.19 74.7946 68.3668C75.0092 68.0104 74.9504 67.9261 74.6242 68.1546C74.633 67.7737 74.2832 67.7955 73.8512 67.9914C74.0216 67.7683 73.4896 67.7547 73.3691 67.9397C73.4896 67.7547 74.0099 67.5043 73.8129 67.7546C74.7505 67.1942 75.9086 66.3779 76.0702 66.7099C77.2106 65.6841 78.1158 64.7618 78.06 65.3386C79.0593 63.8775 79.5942 62.9851 79.5531 63.5075C80.2173 62.011 80.5171 61.3363 80.7229 61.4451C80.7669 60.8601 80.955 60.4765 81.0079 60.9009C80.958 60.4765 81.0844 60.8928 81.1902 61.4886C81.1196 61.0098 81.1637 61.1594 81.39 61.9729C81.2901 61.3444 81.3606 61.4179 81.7045 62.1906C81.5341 61.4288 81.6546 61.3934 82.166 62.0654C81.8838 61.2791 81.9984 61.1975 82.6568 61.7553C82.3335 60.9553 82.5481 60.7513 83.5797 60.9635C82.9742 60.3731 83.2388 60.1881 84.5026 60.1527C83.4651 60.0003 84.4262 59.4045 86.3954 58.5556C85.8987 58.1638 87.2742 57.3095 88.2882 56.9585C87.2771 57.3095 88.8084 56.3354 90.1957 55.375C90.6189 54.8335 92.065 53.8105 92.1032 53.7915C92.7057 53.2881 93.3935 52.7521 94.0254 52.2243C94.6749 51.71 95.3421 51.2121 95.9593 50.668H95.9534Z" fill="currentColor"/>
<path d="M72.9899 69.0028C72.9987 68.9348 72.549 70.6163 72.5608 70.6108C72.549 70.619 74.3154 70.1129 74.2802 70.151C74.3184 70.1129 72.9987 68.9348 72.9899 69.0028Z" fill="currentColor"/>
<path d="M105.676 69.9324C105.626 70.2263 104.956 70.229 103.31 70.0848C103.827 70.2943 102.846 70.2861 100.944 70.2263C101.597 70.3623 100.274 70.3596 98.5781 70.3596C98.8838 70.4412 97.3936 70.4602 96.2121 70.5011C95.877 70.5609 94.5456 70.5419 93.849 70.6561C92.9791 70.6453 91.9562 70.4657 91.4889 70.8221C90.4514 70.58 89.5138 70.3786 89.1317 71.0207C88.0619 70.5119 87.2742 70.4249 86.7804 71.2574C86.5688 70.5011 86.6276 70.4875 86.8451 71.2411C86.416 70.5636 86.2837 70.765 86.3983 71.6139C86.1867 71.0588 86.2719 71.4588 86.4836 72.2233C86.3572 71.6628 86.5776 72.2641 86.6834 72.7022C86.5776 72.2614 86.0691 72.0247 86.1632 72.5308C85.4402 71.8179 84.8024 71.4152 84.144 71.9485C83.5533 71.1404 82.9037 71.1187 82.1101 71.8179C81.6722 71.2901 80.9609 71.9349 80.2967 72.6151C79.9175 72.7022 79.2121 73.532 78.8065 73.9837C78.7507 74.0136 78.1893 74.6095 78.3598 74.4517C78.1893 74.6095 78.3804 73.8912 78.448 73.8395C78.4362 73.5048 78.6478 72.9008 78.5391 72.6614C78.6243 72.3403 78.6508 72.0764 78.4245 72.1444C78.5009 71.8098 78.3745 71.7662 78.0365 71.9594C78.01 71.7798 77.7426 71.9268 77.4575 72.0982C77.3605 72.0655 77.0872 72.2614 76.8755 72.3485C76.5199 72.5362 75.9791 72.9933 75.744 72.9471C75.6176 73.1947 74.8446 73.7524 75.0533 73.3334C74.8446 73.7524 75.4648 73.0015 75.5764 72.7702C75.6293 72.8246 75.8997 72.4709 76.0555 72.2152C76.1143 72.1907 76.2319 72.022 76.2495 71.9213C76.3083 71.8751 76.3465 71.7989 76.2995 71.7798C76.3553 71.7118 76.3583 71.6928 76.273 71.7064C76.2671 71.6384 76.1055 71.6737 75.9468 71.6901C75.8645 71.7037 75.7087 71.7744 75.5735 71.7608C75.3413 71.8587 75.0298 72.0383 74.8299 71.9676C74.7858 72.1118 74.7594 72.0002 74.7917 71.8696C74.9974 71.9159 75.309 71.7227 75.5324 71.6302C75.6822 71.6193 75.8439 71.5404 75.9203 71.5404C76.1084 71.505 76.276 71.4289 76.3612 71.5595C76.5375 71.5377 76.5699 71.6792 76.4905 71.7934C76.5493 71.8288 76.4964 71.9322 76.4347 71.9975C76.417 72.1118 76.2936 72.2968 76.2407 72.3294C76.082 72.6015 75.8086 72.9743 75.7734 72.9226C75.6499 73.1593 75.5 72.9661 75.6058 72.7457C75.8586 72.7539 76.3935 72.2913 76.7345 72.1091C76.9666 71.9921 77.2547 71.7853 77.334 71.8315C77.6632 71.6248 77.9542 71.4506 78.0159 71.6547C78.3245 71.4234 78.4891 71.3989 78.4186 71.7145C78.7507 71.5132 78.8448 71.6302 78.7272 71.9893C79.0358 71.9512 79.0005 72.2614 78.9065 72.6451C79.0505 72.8872 78.8565 73.4994 78.8506 73.8912C78.8124 73.9021 78.445 73.7796 78.4921 73.747C78.8918 73.2708 79.6383 72.3811 80.0175 72.2968C80.7405 71.5567 81.5605 70.8058 82.0308 71.3989C82.939 70.599 83.6385 70.6099 84.2498 71.5159C84.9258 70.8793 85.5754 71.2928 86.3307 72.0955C86.2044 71.4969 85.9193 71.8615 86.0104 72.4029C85.8664 71.7363 85.8017 71.4697 85.8781 71.973C85.7517 71.184 85.7282 70.8765 85.9075 71.4778C85.834 70.5664 85.9193 70.3106 86.219 71.0479C86.1632 70.1174 86.2896 70.0086 86.657 70.8112C86.4218 69.9596 86.4483 69.946 86.6893 70.8003C86.4512 69.9487 86.4806 69.946 86.7216 70.7976C87.1772 69.8753 87.962 69.9868 89.0847 70.58C89.3962 69.8671 90.3485 70.0929 91.4507 70.4004C91.8475 69.9923 92.9114 70.2045 93.8196 70.2535C94.4721 70.1201 95.8418 70.1936 96.1915 70.1474C97.3642 70.1392 98.8573 70.161 98.5634 70.0657C100.253 70.1174 101.579 70.161 100.935 70.0004C102.834 70.1337 103.819 70.18 103.307 69.9596C104.953 70.161 105.626 70.1909 105.679 69.9297L105.676 69.9324Z" fill="currentColor"/>
<path d="M75.3199 71.0752C75.3816 71.0453 73.5623 71.6874 73.6005 71.535C73.5623 71.6874 74.7644 72.9744 74.8878 72.6832C74.7644 72.9744 75.3787 71.048 75.317 71.0752H75.3199Z" fill="currentColor"/>
<path d="M40.8496 35.8242C42.0723 37.3887 43.2715 38.9668 44.4824 40.5394L46.2841 42.9038C47.1864 44.0873 48.0946 45.2818 48.0858 45.2681C48.0946 45.279 49.2232 46.7728 49.8933 47.6298C50.9632 49.0474 52.0595 50.5084 51.7009 49.9915C52.6061 51.2158 53.2968 52.1355 53.529 52.3395C54.3285 53.4469 54.8781 54.1652 55.3719 54.6767C55.3748 54.7937 55.3601 54.7774 55.3542 54.6577C55.4865 54.8998 55.6423 55.044 55.8421 55.0358C55.8363 55.1338 55.8774 55.1365 55.9832 55.0603C55.9068 55.1229 55.945 55.0658 56.0861 54.9025C55.9685 54.9978 56.1037 54.5815 56.2624 54.4073C56.1037 54.5815 56.3065 54.9896 56.4917 54.8835C56.5887 55.58 57.009 56.3255 57.5939 57.052C57.6438 57.4737 58.2258 58.3144 58.9106 59.0899C59.0575 59.3728 59.854 60.2136 60.6535 60.804C60.9768 61.0733 61.9085 61.7807 62.7697 62.1508C62.5639 62.1399 62.9343 62.363 63.1371 62.3521C62.9313 62.363 62.5404 62.4092 62.7226 62.431C62.3582 62.4446 62.1525 62.4609 62.1407 62.5943C61.8438 62.5943 61.7527 62.6976 61.8585 62.9153C61.7645 62.948 61.9056 63.1656 62.079 63.3915C62.1113 63.4432 62.2818 63.6363 62.4728 63.8485C62.9196 64.292 63.5867 64.8689 64.3362 65.511C64.1687 65.3613 64.8506 65.9409 65.0651 66.1286C64.8506 65.9409 64.0541 65.5055 64.2128 65.6715C63.8013 65.3695 63.5368 65.2198 63.3575 65.2552C63.2105 65.0974 63.1341 65.0756 63.1664 65.2117C63.1018 65.0811 63.0988 65.0811 63.1664 65.2117C63.1047 65.0811 63.1077 65.0729 63.1782 65.2008C63.1135 65.0702 63.1106 65.0648 63.1782 65.1981C63.1106 65.0702 63.1106 65.0756 63.1782 65.209C63.1135 65.0974 63.1253 65.1273 63.2105 65.2933C63.2017 65.2688 63.2928 65.3831 63.4721 65.6606C63.7396 65.9245 64.1658 66.3789 64.7418 67.0455C64.5655 66.7979 64.7712 67.0156 64.9564 67.2713C64.7712 67.0156 64.5185 66.8496 64.6889 67.1026C64.4332 66.7979 64.3392 66.7326 64.4038 66.9503C64.2245 66.6945 64.2128 66.6972 64.3686 66.9476C64.2128 66.7054 64.2157 66.7326 64.3774 67.0047C64.2392 66.7952 64.2657 66.8442 64.442 67.1462C64.2892 66.8877 64.2451 66.9095 64.395 67.1679C64.2187 66.8659 64.1922 66.817 64.3215 67.021C64.1658 66.7435 64.1511 66.7163 64.3127 66.9258C64.1687 66.6564 64.1981 66.6401 64.3715 66.885C64.2363 66.6374 64.2539 66.6401 64.4244 66.8904C64.3774 66.6782 64.4685 66.7408 64.7359 67.0401C64.5596 66.7925 64.5126 66.8442 64.683 67.0972C64.0952 66.4388 63.6543 66.0007 63.3546 65.7477C63.1782 65.462 63.0842 65.3504 63.0636 65.364C62.9872 65.1845 62.9695 65.1491 63.0107 65.2362C62.9519 65.0756 62.949 65.0457 63.0224 65.1328C62.9754 64.9886 62.996 64.9695 63.0724 65.0784C63.0283 64.9478 63.0459 64.9423 63.1312 65.0566C63.1811 64.926 63.2487 64.9586 63.4192 65.1001C63.6191 65.0784 63.8865 65.2198 64.3186 65.5001C64.1511 65.3504 64.0394 65.4974 64.1951 65.6606C63.7366 65.2607 63.428 65.0049 63.2135 64.8634C62.8461 64.5124 62.4993 64.1887 62.27 64.0172C62.0937 63.7887 61.9114 63.5846 61.8409 63.5411C61.6822 63.2799 61.497 63.035 61.5587 62.9235C61.4706 62.6922 61.4911 62.5344 61.6939 62.5507C61.6528 62.3603 61.7527 62.3086 62.0026 62.3358C62.0378 62.1753 62.2612 62.1589 62.658 62.1372C62.4552 62.1181 62.4317 62.3875 62.611 62.4174C61.7615 62.0392 60.8122 61.3291 60.4154 61.0815C59.6395 60.453 58.8107 59.5714 58.5902 59.313C57.9407 58.4831 57.347 57.6206 57.2235 57.2343C56.6974 56.4616 56.2712 55.7161 56.0949 55.0549C55.9803 55.1256 56.3153 55.1202 56.5005 55.0358C56.2771 55.2181 56.233 55.346 56.2036 55.4168C56.0067 55.4793 55.9068 55.4848 55.9009 55.4766C55.754 55.4712 55.6834 55.4385 55.657 55.4086C55.5159 55.3651 55.4189 55.2862 55.3101 55.1909C55.2543 55.161 55.1749 55.0794 55.0339 54.9461C55.1044 55.0141 55.0956 55.0059 55.025 54.9379C55.0956 55.0059 55.0868 54.995 55.0162 54.927C54.5871 54.3693 54.0287 53.6591 53.1763 52.5844C53.0059 52.3395 52.3005 51.4281 51.3658 50.2227C51.2189 50.0078 50.3577 48.8868 49.57 47.8502C49.2085 47.3604 48.3885 46.2748 47.7948 45.4668C47.8036 45.4776 46.9189 44.2669 46.046 43.067L44.2972 40.6673C43.148 39.0565 41.99 37.4513 40.8525 35.8324L40.8496 35.8242Z" fill="currentColor"/>
<path d="M63.6416 67.3274C63.5475 67.0499 64.8466 67.7627 65.0171 68.043C64.8466 67.76 64.7967 66.3642 64.9995 66.5819C64.7967 66.3615 63.5505 67.0499 63.6416 67.3274Z" fill="currentColor"/>
<path d="M88.0875 31.5391C87.2381 33.3021 86.3622 35.0543 85.5011 36.812L84.1932 39.443C83.5407 40.7572 82.8794 42.0849 82.8852 42.074C82.8794 42.0876 82.0505 43.7392 81.5832 44.7051C80.7955 46.2722 79.9784 47.883 80.2812 47.3361C79.5905 48.6747 79.0761 49.6896 79.0026 49.978C78.3678 51.1724 77.974 51.9723 77.7418 52.6253C77.636 52.6879 77.6418 52.6661 77.7506 52.6008C77.5919 52.8294 77.5331 53.0253 77.6418 53.1831C77.5478 53.2294 77.5654 53.262 77.6889 53.3083C77.5919 53.2783 77.6653 53.281 77.8887 53.311C77.7418 53.2647 78.1973 53.1641 78.4383 53.2021C78.1973 53.1641 77.9152 53.5286 78.1062 53.6239C77.5037 54.051 77.0187 54.7612 76.6308 55.5937C76.2604 55.844 75.7667 56.7338 75.3846 57.6697C75.1935 57.9282 74.8056 58.9893 74.6557 59.9253C74.5646 60.3198 74.3706 61.4217 74.4587 62.2951C74.3647 62.1237 74.3441 62.5318 74.4558 62.6923C74.3441 62.5345 74.1031 62.2434 74.1737 62.3985C73.9797 62.1128 73.8621 61.9577 73.7298 62.0121C73.5799 61.7754 73.4389 61.7536 73.289 61.9468C73.2096 61.8897 73.0803 62.1074 72.9539 62.3604C72.9216 62.4094 72.8246 62.6461 72.7247 62.9045C72.5336 63.4841 72.3279 64.3085 72.1016 65.2308C72.1574 65.0213 71.9575 65.8593 71.8899 66.126C71.9575 65.8593 71.9664 65.005 71.8899 65.2118C71.9664 64.7302 71.9722 64.4445 71.8488 64.3166C71.9223 64.1208 71.9017 64.0473 71.793 64.1425C71.8841 64.0228 71.8811 64.0228 71.793 64.1425C71.8841 64.0255 71.8929 64.0255 71.8076 64.1452C71.8958 64.0282 71.9017 64.0255 71.8106 64.1452C71.8958 64.0282 71.8929 64.031 71.7988 64.1507C71.8694 64.0446 71.8488 64.0691 71.7371 64.2187C71.7577 64.1997 71.693 64.3303 71.5255 64.6132C71.4109 64.9588 71.2022 65.5274 70.8701 66.3246C71.0141 66.058 70.9142 66.3328 70.7672 66.6103C70.9142 66.3328 70.9406 66.0471 70.7907 66.311C70.9465 65.9519 70.9612 65.843 70.7907 66.0063C70.9406 65.7342 70.9318 65.726 70.776 65.9763C70.923 65.7315 70.8995 65.7478 70.726 66.0117C70.8524 65.7968 70.8201 65.8403 70.6261 66.1341C70.7907 65.8811 70.7496 65.8566 70.582 66.1097C70.776 65.8158 70.8083 65.7696 70.682 65.9763C70.8642 65.7124 70.8818 65.6879 70.7672 65.9192C70.9465 65.6689 70.9759 65.6852 70.8348 65.9464C70.9964 65.7151 71.0053 65.7315 70.8583 65.9927C71.0347 65.8485 71.02 65.9546 70.873 66.3164C71.017 66.0498 70.9435 66.0389 70.7936 66.3028C71.114 65.5002 71.3051 64.9288 71.3903 64.5615C71.5696 64.2786 71.6284 64.1452 71.6019 64.1344C71.7312 63.9847 71.7547 63.9493 71.696 64.0282C71.8165 63.9031 71.8429 63.8813 71.7988 63.9847C71.9105 63.8759 71.937 63.8813 71.8723 63.9983C71.9722 63.8976 71.9869 63.9085 71.9223 64.0337C72.0692 64.0065 72.0722 64.0799 72.0251 64.284C72.1456 64.4336 72.1486 64.7193 72.1016 65.2064C72.1574 64.9968 71.9634 64.9805 71.8899 65.1873C72.034 64.6214 72.1192 64.2459 72.1427 64.0038C72.2867 63.5358 72.4161 63.0923 72.4601 62.8256C72.5865 62.5699 72.6835 62.3223 72.6894 62.2434C72.854 61.9849 72.9921 61.7128 73.1244 61.7074C73.2949 61.5224 73.4536 61.4598 73.5417 61.6285C73.6975 61.5006 73.7974 61.5523 73.8974 61.7672C74.0649 61.7156 74.1942 61.8842 74.4117 62.1917C74.3265 62.0203 74.0649 62.1373 74.1266 62.2951C74.0561 61.4244 74.2413 60.3089 74.2736 59.8681C74.4734 58.9294 74.882 57.8248 75.0142 57.5201C75.4639 56.5841 75.9724 55.6754 76.2751 55.3842C76.7336 54.5734 77.2157 53.8606 77.7476 53.3872C77.6242 53.33 77.7976 53.5967 77.9681 53.7028C77.6859 53.613 77.5448 53.6456 77.4655 53.6565C77.3097 53.5286 77.2539 53.4525 77.2568 53.4443C77.1892 53.3246 77.1833 53.2511 77.1951 53.2157C77.1657 53.0824 77.1892 52.9654 77.2245 52.8294C77.2245 52.7695 77.2597 52.6634 77.3156 52.4838C77.2891 52.5736 77.2891 52.5655 77.3185 52.473C77.2891 52.5655 77.295 52.5519 77.3244 52.4594C77.6301 51.8363 78.0151 51.0309 78.5941 49.812C78.7381 49.5535 79.2348 48.5305 79.8932 47.1783C80.0225 46.9524 80.6368 45.7009 81.2099 44.55C81.4862 44.014 82.0917 42.8141 82.5502 41.9326C82.5443 41.9462 83.2321 40.6293 83.9169 39.3287L85.2836 36.7249C86.2123 34.9972 87.1323 33.2641 88.0758 31.5418L88.0875 31.5391Z" fill="currentColor"/>
<path d="M70.0586 65.5885C70.2702 65.3762 70.2555 66.772 70.0792 67.0495C70.2585 66.772 71.5399 66.0319 71.4341 66.304C71.537 66.0319 70.2702 65.3762 70.0586 65.5885Z" fill="currentColor"/>
<path d="M73.1661 74.0006C73.4482 74.7923 73.5305 74.8032 73.4218 73.9843C73.6716 74.7515 73.7275 74.6672 73.6246 73.8401C73.8803 74.4931 73.9185 74.1992 73.8627 73.383C73.9714 74.0468 74.0037 73.8918 73.9038 73.2578C74.0037 73.8918 74.1066 74.0142 74.0096 73.353C74.5857 74.4441 75.1177 75.2603 75.732 74.4985C75.682 75.478 75.6908 75.4807 75.7437 74.5039C75.6908 75.4834 75.7055 75.4943 75.7584 74.5121C76.1875 75.7936 76.7371 76.0303 77.6248 75.0671C77.4151 75.7328 77.4161 75.7328 77.6277 75.0671C77.3132 76.0657 77.322 76.0657 77.6395 75.0671C78.0274 76.1636 78.9239 75.8099 80.1377 75.0454C79.6822 75.7365 79.885 75.6848 80.3346 75.0263C79.885 75.6848 79.8996 75.8888 80.3817 75.2086C79.9702 76.1691 80.0495 76.5282 80.8901 76.0303C80.4904 76.9445 80.7931 77.0833 81.766 76.6207C81.0782 77.2329 81.0518 77.2247 81.7395 76.6098C81.6514 77.4397 82.5684 77.437 83.7499 77.3254C83.8175 77.8832 84.8374 77.924 85.7573 78.0492C86.1365 78.4001 87.0858 78.528 87.7736 78.7647C88.4408 79.015 89.108 79.2599 89.7781 79.5021L93.8047 80.9387L95.818 81.6624C96.4881 81.9045 97.1582 82.1467 97.8254 82.3997C97.1377 82.2066 96.4499 82.0025 95.7651 81.8012C95.0803 81.5971 94.3925 81.4012 93.7106 81.189C92.3439 80.7727 90.9802 80.3401 89.6252 79.8857L87.6031 79.1865C86.548 78.8491 85.2283 78.6205 85.581 78.4872C84.5758 78.392 83.5177 78.3593 83.5647 77.7635C82.2833 77.9104 81.3575 77.9131 81.5514 77.0316C80.7696 77.7009 80.7579 77.6982 81.5397 77.0261C80.7608 77.6954 80.7461 77.69 81.525 77.018C80.4375 77.5295 80.1113 77.369 80.5463 76.3323C79.6116 76.8792 79.5234 76.4085 79.9408 75.2984C79.4441 76.0602 79.6586 76.2099 80.1847 75.4617C78.8945 76.2725 77.9716 76.6071 77.5748 75.4154C77.2309 76.4765 77.2456 76.4792 77.5895 75.4154C76.9429 76.4466 76.6401 76.3949 76.5373 75.2032C76.0611 76.2044 75.7996 75.9378 75.585 74.7352C75.5497 75.7691 75.5732 75.7854 75.6115 74.7488C74.9707 75.527 74.4446 74.6101 73.8803 73.4619C73.992 74.1475 74.1272 74.1176 74.0273 73.4319C74.0596 74.2754 74.0067 74.5883 73.7275 73.9217C73.8156 74.7842 73.7392 74.8794 73.46 74.0877C73.5511 74.9393 73.4424 74.9121 73.1426 74.0931C73.3542 74.893 73.366 74.7787 73.1661 74.0006Z" fill="currentColor"/>
<path d="M72.9655 74.7806C73.2565 75.7192 72.3277 73.8337 72.1426 73.3086C72.3277 73.8337 74.0324 74.0541 73.9296 73.3848C74.0324 74.0541 73.2565 75.7165 72.9655 74.7806Z" fill="currentColor"/>
<path d="M62.5745 71.5264C61.9221 72.2203 61.8015 72.1903 62.2189 71.3741C61.6193 72.057 61.5694 71.94 61.9808 71.1129C61.4106 71.6734 61.4518 71.3387 61.7927 70.5007C61.4283 71.151 61.4312 70.966 61.7722 70.3456C61.4283 70.966 61.2431 71.0449 61.5929 70.3891C60.429 71.2462 59.4179 71.8366 58.7948 70.702C58.5509 71.7686 58.5362 71.7686 58.7772 70.702C58.5362 71.7713 58.5156 71.7768 58.7537 70.702C57.7367 71.8421 56.8873 71.8012 55.9439 70.313C56.0673 71.5401 56.0614 71.5373 55.938 70.313C56.0614 71.5401 56.0467 71.5346 55.9203 70.3075C55.0239 71.2707 53.8718 70.4218 52.4081 68.9716C52.8254 69.9457 52.558 69.7851 52.1347 68.8465C52.558 69.7824 52.4698 69.9919 52.0113 69.0151C52.2817 70.2531 52.0554 70.5932 51.0296 69.6219C51.3 70.8027 50.8298 70.7945 49.6041 69.7906C50.3742 70.8027 50.4153 70.8082 49.6453 69.7906C49.5013 70.7184 48.2139 70.2341 46.5798 69.4967C46.3064 70.0545 44.8545 69.562 43.5172 69.2138C42.8676 69.3879 41.4892 69.026 40.4429 68.9172C39.42 68.8328 38.4031 68.7431 37.3803 68.6478L31.2434 68.0629L28.172 67.7772C27.1492 67.6819 26.1263 67.5894 25.1035 67.5078C26.1381 67.6629 27.1697 67.8071 28.2014 67.9513C29.233 68.0955 30.2676 68.2452 31.2963 68.3785C33.3595 68.6533 35.4169 68.909 37.4743 69.1376C37.4743 69.1376 39.0115 69.2954 40.5487 69.4559C42.1417 69.6518 44.0786 70.1007 43.623 69.7742C45.0691 70.1987 46.5739 70.7211 46.6973 70.0654C48.4579 70.8952 49.7599 71.3822 49.7687 70.3456C50.6534 71.4666 50.674 71.4693 49.7893 70.3456C50.674 71.4666 50.6946 71.4693 49.8128 70.3456C51.1795 71.4611 51.6909 71.4611 51.4146 70.1307C52.558 71.2027 52.8342 70.751 52.6021 69.3498C53.0576 70.4191 52.7079 70.4653 52.2053 69.3933C53.766 70.9333 54.9592 71.7713 55.8998 70.7129C56.0438 72.0216 56.0232 72.0162 55.8763 70.7075C56.4553 72.1441 56.8991 72.2475 57.4281 71.034C57.7749 72.3481 58.2334 72.2012 58.9212 71.034C58.639 72.1522 58.6008 72.1577 58.88 71.034C59.5355 72.1985 60.57 71.4992 61.7369 70.5769C61.3577 71.2489 61.1785 71.1428 61.537 70.468C61.2196 71.3496 61.1931 71.7087 61.8045 71.1483C61.4048 72.0189 61.4782 72.1604 62.1278 71.4639C61.7251 72.3236 61.8868 72.3509 62.5745 71.6353C62.019 72.3753 62.0396 72.2475 62.5745 71.5237V71.5264Z" fill="currentColor"/>
<path d="M62.6099 72.4616C61.8987 73.305 63.8121 71.7895 64.2412 71.3297C63.8121 71.7895 61.3373 71.1284 61.6988 70.4727C61.3373 71.1284 61.8987 73.305 62.6099 72.4616Z" fill="currentColor"/>
<path d="M71.4357 74.0859C71.8942 74.8233 72.1293 75.0872 71.9736 74.4124C72.4615 75.2613 72.6848 75.4436 72.5526 74.5784C72.8582 75.4382 72.8876 75.4409 72.5849 74.5784C72.8876 75.4409 72.9141 75.4708 72.6084 74.6029C73.0552 75.6178 73.2668 75.9415 73.1463 75.0028C73.5284 76.0286 73.6195 76.0476 73.4372 74.9947C73.7782 75.9796 73.837 75.8681 73.6812 74.8015C73.8987 75.7973 73.9898 75.6504 73.7929 74.6736C73.9869 75.6504 74.0545 75.8463 73.8575 74.8314C74.1015 75.9606 74.175 76.2109 74.0339 75.2178C74.2896 76.415 74.3748 76.6245 74.2749 75.5171C74.4924 76.6979 74.5247 76.7115 74.3983 75.5416C74.5923 76.7006 74.6335 76.6544 74.5424 75.4627C74.7569 76.5537 74.8216 76.366 74.8128 75.1552C74.8921 76.268 75.0538 75.9524 75.0067 74.8859C75.0538 75.9497 75.1067 76.336 75.0655 75.2069C75.1302 76.4612 75.1596 76.7278 75.1713 75.6422C75.236 76.9537 75.3124 77.1196 75.3565 75.8817C75.4035 77.1196 75.5211 76.9836 75.6681 75.6994C75.6974 76.8203 75.7915 76.6027 75.9825 75.3566C75.8767 76.502 76.1618 76.0395 76.3029 74.9756C76.1618 76.0422 76.1236 76.6163 76.2794 75.4627C76.1148 76.7605 76.0825 77.0652 76.2735 75.9796C76.1001 77.3319 76.106 77.5958 76.3764 76.3959C76.1795 77.6774 76.1736 77.6774 76.4587 76.4177C76.2382 77.672 76.2706 77.6448 76.5498 76.3905C76.2941 77.6393 76.3823 77.5767 76.6556 76.3388C76.4969 77.5114 76.638 77.3047 77.0759 76.0259C76.7497 77.2094 77.1611 76.7605 77.5197 75.6558C77.1582 76.7605 77.0083 77.3808 77.4021 76.2054C76.976 77.5278 76.8937 77.8243 77.3169 76.7414C76.8849 78.0257 76.8672 78.1427 77.3345 76.9673C76.8966 78.2406 76.8995 78.2488 77.3816 77.0326C76.9142 78.2569 76.9466 78.2488 77.4492 77.0326C76.9936 78.2406 77.0259 78.2243 77.5609 77.0081C77.12 78.1944 77.2082 78.1209 77.8107 76.9074C77.408 78.0257 77.602 77.8216 78.3162 76.6217C77.7343 77.74 78.3221 77.2747 78.9246 76.2544C78.325 77.2747 77.9841 77.9685 78.6425 76.8748C77.9224 78.1019 77.7784 78.3712 78.4367 77.3836C77.7196 78.5644 77.6696 78.6841 78.3809 77.623C77.6549 78.7685 77.649 78.8093 78.3779 77.7237C77.652 78.8501 77.649 78.8773 78.3926 77.7726C77.6578 78.8854 77.6637 78.8882 78.472 77.7971C77.7666 78.8963 77.8518 78.8582 78.7101 77.7726C78.0546 78.8174 78.2751 78.6678 79.2538 77.6012C78.4161 78.6161 79.0245 78.3086 79.8769 77.3754C79.0245 78.3086 78.6278 78.8773 79.5418 77.9141C78.5572 78.9916 78.4014 79.1983 79.3126 78.3467C78.3456 79.3534 78.3074 79.435 79.2832 78.5154C78.3191 79.4867 78.3074 79.4786 79.3126 78.5562C78.3838 79.5194 78.5837 79.4759 79.7388 78.5834C78.8423 79.4541 79.0804 79.3507 80.2766 78.5018C79.2215 79.3235 79.8005 79.1494 80.8497 78.3984C79.8005 79.1521 79.4096 79.6037 80.5264 78.8528C79.3508 79.6908 79.2185 79.8268 80.3442 79.1711C79.1656 79.9847 79.1421 80.0391 80.3501 79.3589C79.195 80.0962 79.3155 80.1152 80.6176 79.484C79.5095 80.1642 79.6976 80.137 81.029 79.5493C79.8122 80.1506 79.9122 80.1479 81.1319 79.5602C79.9151 80.1479 79.9739 80.2023 81.1995 79.6337C80.4148 80.6866 81.2759 81.0539 83.0306 81.3342C81.9725 81.6035 82.2752 81.6988 83.5332 81.7124C82.4192 81.7994 83.0629 82.0987 84.0652 82.0661C83.3715 82.3109 84.0857 82.5177 85.1438 82.7572C85.0939 83.149 86.487 83.6278 87.3658 84.0604C87.9742 84.4549 88.8795 84.8848 89.6436 85.2875C91.172 86.0929 92.7238 86.8574 94.2816 87.6192C95.8305 88.3947 97.3883 89.1565 98.9107 89.9782C97.3324 89.2545 95.7512 88.5389 94.164 87.8315C92.5857 87.1104 91.0074 86.384 89.4467 85.6167C88.6678 85.2331 87.7214 84.8005 87.1366 84.4196C86.2225 83.9815 84.7794 83.4727 84.8852 83.1217C83.7624 82.8497 83.0306 82.632 83.7859 82.4307C82.7161 82.4225 82.0577 82.1178 83.2393 82.077C81.902 82.0089 81.5933 81.9137 82.7132 81.6879C80.8821 81.3641 79.9886 80.9886 80.8145 79.933C79.5506 80.4934 79.7094 80.5451 80.982 80.0173C79.583 80.5315 79.3625 80.5587 80.4882 79.9357C79.1098 80.4907 78.9011 80.4798 79.968 79.6527C78.7218 80.2839 78.7012 80.1778 79.8357 79.3289C78.6924 80.0091 78.76 79.9085 79.8828 79.0351C78.8276 79.7153 78.9981 79.5357 80.1297 78.6052C79.0686 79.4378 79.2538 79.7153 80.3795 78.9535C79.1039 79.7398 78.8453 79.8432 79.7828 79.0378C78.6101 79.8622 78.4837 79.9003 79.4595 79.0433C78.3162 79.8921 78.1898 79.9085 79.0833 78.9535C78.0605 79.8459 78.0311 79.835 78.9805 78.8909C77.9841 79.7969 77.9635 79.7697 78.8923 78.7957C77.9135 79.6935 77.9077 79.6119 78.8129 78.5753C77.893 79.4568 77.9694 79.3235 78.8658 78.2216C78.0488 79.0949 78.2251 78.8528 79.1421 77.7019C78.3045 78.7276 78.5131 78.9861 79.4301 78.0121C78.3603 79.0378 78.1164 79.1956 78.807 78.1998C77.8606 79.2473 77.7372 79.3044 78.4367 78.2324C77.5785 79.2908 77.5168 79.3017 78.2045 78.1753C77.4227 79.2609 77.3963 79.2391 78.0899 78.1019C77.3404 79.1929 77.3228 79.1575 78.0017 77.9985C77.2728 79.0705 77.2846 78.9861 77.9253 77.7781C77.2728 78.8854 77.2905 78.7984 77.9312 77.5931C77.3081 78.6678 77.3698 78.5181 78.0047 77.2774C77.4404 78.2896 77.5873 77.9957 78.2369 76.7224C77.6549 77.8543 77.9018 78.0801 78.5631 76.9754C77.7578 78.1644 77.5491 78.3739 78.0076 77.2802C77.3169 78.48 77.2111 78.5698 77.6872 77.4026C77.0348 78.6161 76.9142 78.6841 77.2581 77.4244C76.7173 78.6378 76.6527 78.5726 77.0289 77.2774C76.5704 78.4692 76.5645 78.3767 76.926 77.0734C76.5263 78.2297 76.5527 78.0583 76.9025 76.7278C76.5674 77.808 76.6527 77.4842 77.0142 76.1293C76.6909 77.3264 76.9466 77.4978 77.3404 76.3061C76.8231 77.5931 76.6644 77.8162 76.8496 76.6489C76.5175 77.8951 76.394 77.9767 76.6997 76.7197C76.347 77.9903 76.3029 78.0311 76.5145 76.7659C76.2177 78.0366 76.1912 78.0474 76.4058 76.7714C76.1295 78.042 76.0972 78.0338 76.2823 76.7469C76.0384 78.0121 76.009 77.9849 76.1706 76.687C75.9561 77.9495 75.9414 77.9087 76.0913 76.6081C75.8591 77.7998 75.8444 77.6284 75.959 76.2898C75.815 77.4706 75.818 77.3101 75.9296 75.9987C75.8091 77.0815 75.8385 76.7578 75.9531 75.4463C75.8503 76.6054 76.0942 76.7197 76.25 75.5525C76.0002 76.8231 75.8973 77.0516 75.8944 75.9198C75.7327 77.1931 75.671 77.291 75.671 76.083C75.5329 77.3672 75.4535 77.4407 75.3359 76.1701C75.2213 77.4189 75.1302 77.2883 75.0214 75.9823C75.0361 77.1523 75.0038 77.0054 74.898 75.732C74.9333 76.804 74.898 76.5102 74.7951 75.2477C74.8804 76.3769 75.0949 76.4449 75.0479 75.3021C75.0156 76.5483 74.9391 76.7578 74.7158 75.6558C74.7657 76.8884 74.704 76.9646 74.4512 75.781C74.5218 76.9972 74.413 76.9373 74.1338 75.7103C74.2132 76.7904 74.125 76.5292 73.8311 75.3157C74.0074 76.3007 73.934 76.034 73.6636 74.8995C73.8899 75.9143 74.0457 75.9606 73.8399 74.9294C73.9692 76.0395 73.8928 76.1674 73.5137 75.1607C73.6636 76.2599 73.5137 76.2191 73.0875 75.1579C73.1815 76.0885 72.967 75.7239 72.5055 74.69C72.8288 75.5661 72.8818 75.5987 72.5585 74.7117C72.6672 75.5933 72.4262 75.3729 71.9207 74.5022C72.0882 75.1797 71.8531 74.9022 71.3887 74.1485C71.6943 74.7879 71.7326 74.7199 71.4357 74.0887V74.0859Z" fill="currentColor"/>
<path d="M71.1452 74.9407C71.5773 75.7053 70.5339 73.8333 70.3281 73.4688C70.5339 73.8333 72.3267 74.1326 72.1151 73.5504C72.3267 74.1326 71.5773 75.7053 71.1452 74.9407Z" fill="currentColor"/>
</g>
<defs>
<clipPath id="clip0_675_3144">
<rect width="142.1" height="142.1" fill="white"/>
</clipPath>
</defs>
</svg>
