<svg width="143" height="143" viewBox="0 0 143 143" fill="none" xmlns="http://www.w3.org/2000/svg">
<path d="M52.0195 80.3135C56.9626 83.4663 57.5088 83.9282 52.8389 84.0786C57.9158 84.9379 60.7435 87.6986 57.2357 92.6883C61.2415 88.6976 61.8842 89.1542 63.5926 94.4231C63.0356 90.8944 63.5497 92.1888 64.6154 95.1804C64.3852 93.8484 64.7065 94.2244 65.2795 95.2932C65.5205 95.5779 66.0078 96.5608 66.5113 97.5598C67.1807 98.8918 67.8608 100.261 68.541 101.615C69.2211 102.974 69.8959 104.317 69.0604 103.887C71.1758 106.884 71.7863 108.103 71.2133 111.1C72.8949 110.321 74.7479 123.255 75.6636 126.107C74.1963 113.78 77.115 125.333 77.5862 126.531C77.5809 126.273 76.2581 121.805 77.9611 126.177C77.854 125.865 73.3608 112.325 78.5181 125.221C78.0147 123.609 78.0575 122.981 79.2303 124.028C77.7951 121.735 77.4791 121.122 78.6412 122.589C77.5541 120.129 75.2834 117.379 80.5799 119.817C77.8594 119.323 74.7157 108.227 75.7868 107.985C74.7372 107.867 75.8297 109.526 78.3092 108.377C75.8082 109.15 75.3048 109.027 75.6422 106.712C75.353 108.501 75.8939 108.184 77.6987 106.46C75.8939 107.98 75.353 108.098 75.3852 106.084C75.2513 108.264 75.7654 107.985 77.3774 105.949C75.8779 107.346 74.8657 105.074 74.6461 102.603C74.8978 104.795 75.9421 106.793 77.0507 105.251C75.91 106.857 74.8389 104.929 74.5872 102.732C74.7639 104.805 75.7654 106.61 76.7133 104.923C75.7815 106.336 74.7961 104.257 74.5979 102.329C74.5711 104.365 75.3316 106.551 76.1778 104.913C75.096 107.093 74.0892 105.444 74.0624 103.167C74.0945 105.385 75.1013 106.981 76.1349 104.816C75.3691 106.347 74.63 104.118 74.6622 102.227C74.855 103.973 75.819 106.057 76.6383 104.773C75.7815 106.4 74.78 104.655 74.5926 102.705C74.8496 104.746 75.9207 106.583 76.9222 105.009C75.9903 106.379 74.9835 104.338 74.7264 102.394C74.9407 104.623 75.8993 106.948 77.1899 105.622C75.7386 107.716 75.2245 108.076 75.3209 105.949C75.2513 107.931 75.7815 107.448 77.0989 105.444C75.8886 106.803 74.855 104.73 74.5926 102.716C74.7961 104.601 75.8243 106.229 76.6223 104.617C75.9689 105.616 75.0799 103.387 74.8978 101.98C74.8818 103.301 74.9621 103.532 75.3959 102.421C75.7118 101.712 74.7961 111.965 74.1052 102.657C74.2927 103.919 74.0784 103.382 73.8428 101.9C73.4197 103.237 73.152 103.296 72.8092 101.91C72.504 103.586 72.1237 103.812 71.1919 102.34C72.4022 103.339 72.9592 102.77 73.243 101.636C73.4144 102.662 73.3126 103.124 72.6271 102.329C73.4626 103.124 73.9928 102.19 74.3409 101.282C74.5229 101.18 74.5336 101.094 74.298 101.174C73.9446 101.878 73.3501 102.737 72.2148 102.216C73.1091 102.84 73.6072 101.851 73.8964 100.917C74.1373 100.321 74.1695 99.7834 73.9338 99.4021C73.4519 98.6447 71.8774 98.5212 68.873 98.4997C73.7143 97.5329 72.8467 96.9851 69.0765 95.3845C73.2484 96.9851 74.2927 97.4309 69.0444 96.4426C75.3852 97.7854 75.4387 97.6941 69.7138 94.5467C74.614 96.8938 73.7303 96.1902 70.094 93.451C73.7357 96.1902 74.6247 96.8831 70.094 93.9021C75.5994 97.5007 72.0595 94.7185 67.984 89.5301C71.4811 93.7249 70.817 92.8118 68.1018 89.1112C71.0259 92.7313 75.519 96.2654 76.6223 90.6527C76.7347 92.7581 76.8686 94.1492 77.1578 94.928C77.447 95.7068 77.8861 95.8787 78.2021 95.2932C78.7644 95.2503 79.3 95.0193 79.798 94.5843C80.371 94.1277 80.9119 93.4671 80.7995 92.6292C80.853 93.4617 80.3818 93.9934 79.9265 94.2513C79.6534 94.45 79.4017 94.3694 79.2036 94.0472C79.3696 94.0794 79.5892 93.8699 79.7605 93.5047C80.1354 93.1019 80.4621 92.5486 80.3871 91.8934C80.6281 92.4842 80.4621 92.9676 80.0872 93.3274C80.1783 93.6014 80.0604 93.7464 79.8248 93.6658C80.2854 94.1331 80.6281 94.3802 80.6495 94.4124C81.3564 94.1868 81.7367 93.7464 81.244 93.0213C81.8545 93.9827 81.5867 94.6648 80.9387 95.0891C80.9387 95.1858 80.5638 95.0193 79.9426 94.4715C80.687 95.1751 81.1958 95.5027 81.2654 95.5457C82.0205 95.1697 82.3311 94.5144 81.5974 93.5799C82.3579 94.5574 82.4275 95.0999 81.9884 95.4597C82.8774 94.9173 83.2576 94.2029 82.3204 93.3167C83.3808 94.1385 83.113 94.8045 82.0526 95.4275C82.39 95.0945 81.9348 94.7293 80.7995 94.0042C81.7474 94.8313 82.0152 95.3093 81.6938 95.5672C82.39 95.1536 82.4918 94.5198 81.5867 93.5906C82.3847 94.4876 82.1812 95.0838 81.4475 95.4383C81.6135 95.2449 81.2493 94.8045 80.4246 94.0203C81.2761 94.5735 81.6617 94.7776 81.3618 94.8635C82.2347 94.364 82.4275 93.741 81.5117 92.8978C82.4864 93.7142 82.3472 94.3157 81.4635 94.8206C81.8759 94.6756 81.5439 94.4339 80.6227 93.8592C81.5492 94.6487 81.892 95.1106 81.6028 95.3792C82.3793 94.9925 82.5293 94.4178 81.6242 93.5638C82.3954 94.5789 82.4543 95.1428 82.0366 95.5242C82.9309 94.9763 83.3433 94.2459 82.4543 93.3489C83.5896 94.1975 83.6111 94.7722 82.8774 95.5027C83.9324 94.7239 84.2323 94.1009 83.279 93.4671C84.7036 93.9129 84.8428 94.3587 84.1466 95.4275C85.2766 94.3211 85.5711 93.8377 85.2016 93.6604C85.946 93.6873 86.021 94.0203 85.7211 95.2879C86.4119 94.0096 86.7386 93.6658 87.3652 93.9183C87.6919 93.2791 107.684 93.3543 109.869 93.4456C109.071 92.844 75.7333 92.5325 111.684 92.3607C69.7995 91.5711 112.032 91.5174 112.819 91.4906C107.169 91.1844 90.8783 91.5228 113.933 89.6644C112.343 89.6483 93.2936 91.8719 100.261 88.5741C97.9903 88.8212 87.2527 90.9803 85.3248 89.8094C84.816 90.5506 83.4772 90.3143 81.3404 89.7718C80.6549 89.8148 79.1768 89.5516 77.688 89.2884C76.1992 89.0253 74.6943 88.7567 73.2323 88.4989C72.1344 88.3055 71.058 88.1122 70.7849 87.994C69.5478 87.7416 69.1086 87.559 70.5171 87.4892C67.2771 87.2313 65.8847 87.0917 69.4889 86.9413C63.8282 86.517 63.1588 86.0873 65.7294 81.0708C62.0609 85.894 58.6656 83.9174 55.1792 80.2114C57.5999 83.81 56.9626 83.4663 52.0195 80.3081V80.3135Z" fill="currentColor"/>
<path d="M54.3164 82.725C54.8734 82.537 55.516 82.3329 56.0998 82.1664C56.6835 81.9999 57.2833 81.8388 57.5404 81.8173C57.9367 81.7475 58.0973 81.7851 57.8028 82.0053C57.701 82.1557 57.0691 82.5263 56.0569 83.058C56.8763 82.7304 58.6543 82.0214 59.222 81.828C59.8485 81.5756 60.4109 81.35 60.5126 81.3017C60.7697 81.1996 60.5769 81.2748 59.9985 81.5112C60.8928 81.1674 62.4834 80.5712 62.2853 80.6464C63.5545 80.4047 64.2989 80.2114 63.2921 80.4423C64.5077 79.9321 64.6309 79.8945 63.4527 80.4155C64.2667 80.1362 62.96 80.7807 61.6694 81.4575C62.9815 80.8344 64.2239 80.2812 63.4527 80.7324C64.572 80.2705 64.3257 80.539 63.276 81.3876C64.0311 80.8666 63.2171 81.4467 62.3174 82.1718C62.2638 82.3437 61.1445 83.3105 60.5447 83.9174C60.9892 83.4716 61.7765 82.768 61.9425 82.5692C62.6119 82.0268 63.367 81.5004 62.8797 81.9462C64.2507 80.6733 65.2093 79.9912 64.2828 80.7592C65.3003 79.8354 64.5452 80.2114 62.7244 81.3608C64.0204 80.5712 65.3914 80.3564 64.6738 80.7109C66.2322 79.3198 65.7395 80.6894 65.1504 81.0654C65.9698 80.3994 66.1197 80.3779 65.7341 81.103C66.1304 80.5873 65.8573 80.7431 64.8398 81.5541C65.5038 81.0761 64.9308 81.6615 63.8437 82.87C64.9522 81.683 65.5467 81.1244 64.9683 81.7045C65.9751 80.8774 66.2643 80.7753 66.109 81.5702C66.3821 80.6948 66.9819 79.8623 67.148 81.5541C67.1158 80.5551 66.9873 81.1835 66.757 82.7572C66.9391 82.0859 66.7999 83.8046 66.6874 85.1097C66.8052 83.8046 66.9552 82.102 66.8106 82.7841C67.0462 81.2158 67.1854 80.6035 67.3193 81.6293C67.1426 79.9482 67.1801 79.728 67.4586 80.9096C67.2926 79.9751 67.1747 80.163 66.8909 81.4413C67.073 80.6249 66.9552 81.5488 66.7731 83.2299C66.9873 81.5541 67.1372 80.6357 67.0783 81.4682C67.3461 80.1845 67.5014 79.9965 67.9352 80.915C67.5657 79.7441 67.8816 80.0234 68.8563 81.5434C68.2994 80.6572 68.5779 81.3124 69.2151 82.768C68.9634 82.1772 69.6757 83.7401 70.0881 84.8197C69.6811 83.1708 69.3758 82.1396 70.2273 83.015C69.8524 82.1772 70.7039 83.0526 71.4323 83.9442C71.5233 84.0302 71.759 83.8583 72.0589 84.2289C72.3588 84.5995 72.664 84.9647 72.9425 85.2816C72.664 83.6757 75.331 86.1625 76.3593 86.3612C77.3875 86.5599 78.5925 87.4085 79.5082 87.5858C83.1713 88.2894 85.7366 88.7835 85.7366 88.7835L83.7765 87.0272C82.5983 85.9745 81.0292 84.5726 79.46 83.1708C78.6781 82.4672 75.6952 81.0278 77.1572 81.1083C75.8612 80.5605 73.8422 79.9482 73.6815 79.6958C72.589 79.309 73.1299 79.1748 75.1436 79.309C74.3777 79.1963 72.9961 79.0673 73.1781 79.019C72 78.9223 70.9664 78.8525 71.7697 78.7988C70.1149 78.7075 69.5365 78.6699 70.8967 78.4819C69.7721 78.5678 70.1309 78.5141 71.5126 78.3476C70.6825 78.4389 71.8125 78.31 73.0817 78.1758C71.7911 78.2939 70.5058 78.4282 71.2877 78.3047C69.8257 78.4765 69.349 78.5249 70.3773 78.3315C68.8724 78.541 68.8992 78.5088 70.4094 78.1597C69.3972 78.3799 69.9113 78.2617 71.3573 77.9394C70.6183 78.1059 71.9518 77.8159 73.1781 77.5527C71.9518 77.8159 70.6129 78.1059 71.3519 77.9287C69.9006 78.251 69.3812 78.3584 70.3826 78.1006C68.867 78.4389 68.8135 78.4175 70.2541 77.9448C69.2473 78.2348 69.6864 78.0791 71.0735 77.5957C70.313 77.8374 71.5019 77.4184 72.739 76.9727C71.518 77.397 70.4469 77.7676 71.2288 77.4668C69.906 77.9233 69.5525 78.0307 70.5861 77.5957C69.2633 78.0361 69.6329 77.542 71.0681 76.6934C70.2755 77.0478 71.111 76.5376 72.1767 75.8716C71.9143 75.9629 73.146 75.1787 73.8101 74.7061C72.589 75.4312 71.4751 76.0166 72 75.4903C71.2823 75.8018 72.0107 75.0552 72.6962 74.2818C72.9693 73.8414 73.8743 72.8423 74.5224 72.0152C72.9639 73.084 75.0579 69.9796 75.331 68.9269C75.7005 67.525 76.0647 66.1232 76.3914 64.8771L77.5374 60.5159C77.5374 60.5159 75.6363 62.3098 72.9264 64.8771L70.7575 66.9289C69.9917 67.6486 68.9741 70.898 68.3851 69.1739C68.3154 69.6197 68.2565 70.1085 68.1976 70.5973C68.1387 71.0914 68.0477 71.9776 68.0262 72.0098C67.8763 73.2183 67.5925 74.7652 67.5068 73.7339C67.3515 74.8672 67.2283 74.7652 67.0087 73.5997C66.9498 74.3516 66.6981 73.2774 66.3982 72.2193C66.6338 73.3956 66.8588 75.0874 66.7356 74.4322C66.9819 76.0005 67.1051 76.6665 67.1158 75.6138C67.0676 77.4023 66.9498 77.7676 66.6499 76.6021C66.7731 77.5903 66.5214 77.5151 65.5788 76.5859C66.0929 77.2466 65.4664 76.5645 64.3899 75.27C65.4449 76.5806 66.0447 77.2842 65.4396 76.7041C66.3928 77.6118 66.6178 77.7192 66.2697 76.8652C66.6499 77.977 66.5107 77.8374 65.8198 76.3818C66.2429 77.3003 65.8091 76.9082 64.7594 75.7427C65.2789 76.2583 64.2614 74.9585 63.4313 73.8575C64.256 74.9585 65.2736 76.2691 64.7327 75.7803C65.7823 76.9512 66.2108 77.3647 65.7288 76.5107C66.4357 77.9663 65.3164 77.687 64.6416 77.1016C65.1772 77.6816 64.8558 77.7192 63.5598 77.4936C64.3578 77.7192 63.5438 77.5366 62.0014 77.0962C63.5384 77.5635 64.3417 77.7729 63.5223 77.6655C64.8237 77.875 65.1504 77.8857 64.5399 77.644C65.2468 78.0469 66.2964 78.6269 65.2521 78.498C65.9858 78.6216 65.4664 78.6806 63.9883 78.7612C64.7862 78.7343 63.5116 78.7719 62.0121 78.7773C64.1489 78.7934 65.0058 78.7451 63.683 78.5678C64.8666 78.6914 63.7312 78.6538 61.905 78.4121C62.5798 78.5034 61.6908 78.4765 60.8179 78.4121C60.6037 78.3638 59.5326 78.2456 58.8899 78.1489C59.6183 78.2778 60.7429 78.4175 60.8982 78.4927C61.7765 78.584 62.5262 78.6269 61.814 78.6054C63.5063 78.8256 64.2293 78.8847 62.8583 79.019C63.999 78.9975 63.7955 79.0835 62.5852 79.3037C63.2492 79.25 61.8943 79.4863 60.7857 79.685C62.5209 79.4541 62.8851 79.4433 61.4659 79.7548C62.0871 79.6635 61.4873 79.8085 60.7482 79.9912C60.4965 80.0664 59.5111 80.2973 58.7935 80.4692C58.0973 80.6572 56.4211 81.06 55.5642 81.2963C56.6996 81.0869 57.444 80.9848 57.5939 81.0331C57.9688 81.0224 57.9099 81.3608 57.5243 81.538C57.2994 81.6723 56.6996 81.9032 56.1212 82.1181C55.5428 82.3329 54.8948 82.5531 54.3378 82.7357L54.3164 82.725Z" fill="currentColor"/>
<path d="M52.2227 82.8154C58.0333 82.0474 58.7455 82.0474 55.2592 85.1733C59.6988 82.5576 63.6297 82.853 64.1438 88.933C64.6579 83.2935 65.4398 83.229 70.1258 86.1616C67.4427 83.8198 68.6584 84.4751 71.395 86.0864C70.3668 85.2163 70.8541 85.2968 71.9734 85.7426C72.3429 85.8071 73.3444 86.2421 74.3673 86.6826C75.7329 87.2734 77.136 87.8803 78.523 88.4819C79.9154 89.0834 81.2918 89.6796 80.3814 89.8891C83.9213 90.8182 85.1745 91.3607 86.6525 94.0247C87.4451 92.3436 97.1491 101.055 99.6769 102.651C90.653 94.1536 100.293 101.125 101.423 101.732C101.251 101.539 97.3741 98.9714 101.487 101.222C101.203 101.055 89.0839 93.5736 101.3 100.126C99.8804 99.2185 99.5109 98.7029 101.08 98.7566C98.5094 97.9295 97.8775 97.6609 99.7037 98.0369C97.2937 96.8553 93.7913 96.2161 99.4091 94.6639C97.0045 96.0389 87.488 89.5614 88.1521 88.6913C87.2738 89.2768 89.1749 89.8461 90.3371 87.3647C88.9179 89.5668 88.452 89.7977 87.2256 87.8105C88.1521 89.3681 88.3609 88.7773 88.6394 86.2905C88.2324 88.6161 87.895 89.0565 86.6258 87.499C87.9218 89.2553 88.136 88.7128 88.0664 86.1132C87.8147 88.1488 85.5815 87.0585 83.8302 85.3129C85.4262 86.8276 87.5094 87.6816 87.3702 85.791C87.5255 87.7568 85.469 86.9726 83.8677 85.4472C85.3298 86.9189 87.2523 87.6547 86.8989 85.7534C87.0863 87.4345 84.9977 86.4785 83.616 85.1303C84.896 86.7094 86.8828 87.891 86.4812 86.0917C87.0488 88.4604 85.2227 87.8427 83.7446 86.1132C85.1905 87.7944 86.9846 88.3691 86.3901 86.038C86.7811 87.7031 84.7889 86.4731 83.6053 85.0068C84.8692 86.2207 86.9471 87.1928 86.7489 85.6836C87.1345 87.4828 85.2494 86.7953 83.857 85.4204C85.3619 86.8168 87.3595 87.5312 87.1185 85.6836C87.2791 87.3325 85.2012 86.4194 83.7606 85.0981C85.3512 86.6664 87.579 87.832 87.7183 85.9843C87.9486 88.5248 87.7879 89.1317 86.4972 87.4399C87.7129 89.0028 87.8093 88.2885 87.5362 85.9091C87.4773 87.7299 85.3565 86.8061 83.8624 85.4365C85.228 86.7524 87.0542 87.3324 86.6365 85.5869C86.7757 86.7739 84.6657 85.6352 83.6267 84.6792C84.4622 85.6997 84.6657 85.8286 84.2908 84.6953C84.082 83.9487 89.9515 92.3919 83.4554 85.705C84.4086 86.5483 83.8999 86.2744 82.7699 85.2915C83.3054 86.5859 83.134 86.8061 81.9826 85.9682C82.8181 87.4506 82.6735 87.8696 81.0187 87.3378C82.5878 87.3271 82.6467 86.5322 82.1379 85.4741C82.9252 86.1508 83.1448 86.5644 82.1112 86.3979C83.2626 86.4677 83.0698 85.415 82.7538 84.4858C82.8288 84.2871 82.7806 84.2226 82.6521 84.4267C82.8288 85.1948 82.9305 86.2368 81.7202 86.5698C82.8074 86.4731 82.5557 85.3935 82.1754 84.4912C81.9773 83.8789 81.6613 83.4438 81.2329 83.3096C80.376 83.0356 79.0907 83.9595 76.7825 85.8823C79.8726 82.0205 78.8604 82.1602 74.9456 83.3633C79.171 81.9024 80.2528 81.5694 75.599 84.1958C81.3186 81.1343 81.3025 81.0323 74.8974 82.3106C80.1564 80.9517 79.0265 80.9785 74.4851 81.2256C79.0265 80.9732 80.1564 80.9356 74.7743 81.5747C81.2971 80.7798 76.804 80.9302 70.3561 79.5821C75.7222 80.5435 74.6297 80.2696 70.1793 79.1846C74.7368 80.0708 80.4456 79.8829 77.693 74.8717C79.1282 76.4132 80.119 77.3907 80.8419 77.8043C81.5649 78.2178 82.0094 78.0621 81.8755 77.4122C82.2772 77.0147 82.5396 76.4937 82.6467 75.8438C82.7913 75.1241 82.7859 74.2701 82.1647 73.7008C82.7377 74.3024 82.7217 75.0167 82.5396 75.5055C82.4593 75.8331 82.2183 75.9352 81.8541 75.8116C82.0041 75.7311 82.0362 75.4249 81.9344 75.0382C81.9612 74.4904 81.8595 73.8566 81.3828 73.4C81.9452 73.6954 82.1272 74.1735 82.0737 74.6945C82.32 74.8448 82.32 75.0328 82.0897 75.1241C82.7431 75.1886 83.1662 75.151 83.1983 75.1617C83.5946 74.5333 83.6 73.9479 82.7592 73.7116C83.841 74.0553 84.0766 74.7482 83.8517 75.4894C83.9159 75.5592 83.5196 75.6774 82.6949 75.6559C83.7178 75.715 84.3176 75.6344 84.3979 75.6236C84.7353 74.8502 84.5532 74.1466 83.3911 73.9049C84.6014 74.1627 84.9977 74.5333 84.896 75.0919C85.228 74.1036 85.062 73.3087 83.7767 73.2335C85.1156 73.1852 85.3351 73.8619 84.9228 75.0221C84.971 74.5494 84.3819 74.5602 83.0537 74.7428C84.3069 74.7643 84.821 74.9576 84.7407 75.3658C85.0084 74.5978 84.6818 74.0499 83.3911 73.921C84.58 74.0929 84.8049 74.6837 84.4675 75.4249C84.4675 75.1671 83.9106 75.0651 82.7752 75.0006C83.782 74.8771 84.2051 74.7858 84.0338 75.0436C84.3819 74.0983 84.1302 73.4967 82.8877 73.443C84.1569 73.443 84.4354 73.9909 84.0873 74.9469C84.3069 74.5709 83.8999 74.5978 82.8288 74.7535C84.0445 74.7589 84.6014 74.8932 84.5532 75.2906C84.9013 74.4957 84.6496 73.9533 83.4018 73.8834C84.6443 74.1681 85.0513 74.5602 84.9763 75.1188C85.3083 74.1251 85.1584 73.298 83.8999 73.1852C85.3137 73.1046 85.6993 73.5289 85.6029 74.5656C85.9135 73.2873 85.7421 72.6212 84.6068 72.7501C85.9831 72.1755 86.3741 72.4225 86.5294 73.6901C86.6847 72.1164 86.6044 71.5524 86.2027 71.6598C86.7918 71.1979 87.0596 71.4074 87.6433 72.5675C87.3541 71.1388 87.3809 70.6716 88.0235 70.4567C87.8629 69.7585 103.222 56.9271 104.957 55.5844C103.961 55.6381 78.2231 76.8858 105.654 53.5864C73.0605 79.9849 105.38 52.7163 105.969 52.1899C101.444 55.5951 89.1857 66.3586 105.654 50.0737C104.427 51.0889 91.2582 65.0696 94.4768 58.0551C92.897 59.7093 86.0581 68.2868 83.8249 68.6306C83.9106 69.5275 82.727 70.2097 80.7509 71.1711C80.2528 71.6437 78.9515 72.3957 77.6448 73.153C76.3327 73.9103 75.0099 74.6783 73.7246 75.4195C72.7606 75.9781 71.8127 76.526 71.5289 76.6119C70.415 77.2188 69.9651 77.3585 70.9987 76.3971C68.3531 78.2877 67.1964 79.0772 69.858 76.6388C65.2524 79.9634 64.4598 80.0655 63.2173 74.5602C63.4958 80.6187 59.6292 81.2954 54.5844 80.6993C58.7455 81.897 58.0333 82.042 52.228 82.8101L52.2227 82.8154Z" fill="currentColor"/>
<path d="M55.5268 83.1753C55.8374 82.6704 56.1962 82.1065 56.5336 81.5962C56.871 81.086 57.2298 80.5865 57.4119 80.4039C57.6743 80.0977 57.8189 80.0171 57.7332 80.377C57.7493 80.5542 57.5029 81.2525 57.0691 82.3052C57.4869 81.5318 58.3919 79.8399 58.7079 79.3243C59.0239 78.7281 59.313 78.191 59.3612 78.089C59.4951 77.8419 59.3934 78.0245 59.0988 78.5831C59.5647 77.7452 60.4002 76.2628 60.2984 76.4454C61.1178 75.441 61.557 74.8126 60.9357 75.6398C61.5409 74.4635 61.6105 74.3615 61.0428 75.5162C61.4873 74.775 60.8982 76.1124 60.3466 77.4659C60.9518 76.1446 61.5516 74.9201 61.2463 75.7633C61.8087 74.6891 61.7872 75.049 61.5302 76.381C61.7765 75.4948 61.5248 76.4615 61.2999 77.6002C61.3695 77.7667 61.1285 79.2276 61.0643 80.0816C61.1178 79.4532 61.2678 78.4112 61.2678 78.148C61.4338 77.2994 61.6748 76.4078 61.5891 77.0685C61.8247 75.2101 62.1193 74.0661 61.8997 75.2531C62.0871 73.8942 61.7498 74.6622 61.091 76.7193C61.5784 75.2799 62.4888 74.2326 62.1675 74.9684C62.4674 72.9006 62.9708 74.2648 62.7619 74.9362C62.9654 73.8996 63.0672 73.7814 63.2332 74.5871C63.2064 73.9372 63.0993 74.2326 62.8369 75.5109C63.0404 74.716 62.9761 75.5324 62.9172 77.1598C63.0029 75.5377 63.1047 74.7213 63.0297 75.5431C63.2707 74.2594 63.426 73.9962 63.8169 74.7052C63.4635 73.8566 63.3885 72.8307 64.6042 74.0231C63.9401 73.2819 64.24 73.8405 65.0755 75.1993C64.7809 74.5656 65.777 75.9728 66.5268 77.047C65.7824 75.9728 64.8023 74.5656 65.129 75.1832C64.3043 73.8297 64.0204 73.2712 64.7756 73.9694C63.5652 72.7985 63.4474 72.6051 64.4221 73.3302C63.6938 72.7233 63.7313 72.9435 64.3257 74.1037C63.9455 73.3625 64.4435 74.1413 65.3807 75.5485C64.4703 74.1251 63.999 73.3302 64.481 74.0016C63.8598 72.8468 63.8598 72.5998 64.7809 73.0241C63.7473 72.3635 64.165 72.3796 65.8841 72.9113C64.8934 72.589 65.5253 72.9113 66.9445 73.6149C66.3768 73.3249 67.9192 74.0607 68.9314 74.6246C67.5657 73.6256 66.666 73.0295 67.8817 73.153C67.057 72.7555 68.2726 72.8737 69.4026 73.0885C69.5312 73.0939 69.5954 72.8092 70.0667 72.9006C70.538 72.9919 70.9985 73.0778 71.4163 73.1369C70.1738 72.0842 73.8101 72.2721 74.7259 71.7565C75.6417 71.2463 77.1091 71.1174 77.9231 70.6662C81.1792 68.8454 83.4606 67.5725 83.4606 67.5725C83.4606 67.5725 82.4109 67.5403 80.8364 67.4919C79.2619 67.4436 77.1573 67.3792 75.0579 67.3147C74.0083 67.2825 70.795 68.0989 71.9732 67.2234C70.629 67.6423 68.6957 68.4748 68.4065 68.3835C67.3247 68.7917 67.6461 68.3406 69.2795 67.1428C68.6207 67.551 67.48 68.3406 67.5871 68.1848C66.6178 68.8723 65.7824 69.4846 66.3661 68.926C65.0433 69.925 64.5721 70.2634 65.4932 69.2483C64.6899 70.0378 64.9309 69.7639 65.8788 68.7488C65.3004 69.3503 66.0823 68.5232 66.9713 67.6047C66.0555 68.5285 65.1611 69.4577 65.6806 68.8616C64.6684 69.9358 64.3364 70.2795 65.0005 69.4685C63.983 70.6018 63.9776 70.5588 64.9148 69.3181C64.2775 70.1399 64.5988 69.7155 65.4985 68.5393C65.0433 69.1462 65.8734 68.0613 66.65 67.0676C65.8788 68.0613 65.038 69.1462 65.4878 68.5339C64.5828 69.7155 64.2561 70.1345 64.8559 69.2912C63.9133 70.5266 63.8598 70.548 64.6577 69.2536C64.074 70.1237 64.3043 69.7209 65.0594 68.4587C64.631 69.1355 65.2736 68.0452 65.9323 66.9065C65.2683 68.0183 64.6845 68.9905 65.0915 68.2546C64.3685 69.4577 64.1704 69.7693 64.6845 68.7702C63.9562 69.9626 63.9187 69.3396 64.4757 67.7659C64.0954 68.55 64.4114 67.6208 64.797 66.4231C64.6577 66.6594 65.0969 65.263 65.3004 64.4788C64.8291 65.8216 64.3525 66.9924 64.4167 66.2512C64.0686 66.9548 64.149 65.9075 64.1704 64.8763C64.0954 64.366 64.149 63.0125 64.1115 61.9598C63.6027 63.7806 63.2171 60.0531 62.7512 59.0702C62.1353 57.7597 61.5195 56.4491 60.9679 55.2836L59.0506 51.207C59.0506 51.207 58.7454 53.8066 58.3116 57.5233C58.2045 58.4525 58.0867 59.4515 57.9635 60.4935C57.8403 61.5355 59.1417 64.6829 57.5833 63.743C57.8135 64.1297 58.0867 64.5433 58.3544 64.9568C58.6276 65.3704 59.1256 66.1062 59.1256 66.1492C59.7843 67.1697 60.5609 68.5393 59.8325 67.8035C60.4377 68.7702 60.277 68.7702 59.3612 68.0237C59.8004 68.636 58.9167 67.9753 58.0063 67.3577C58.9382 68.1096 60.1967 69.2536 59.6826 68.8347C60.8768 69.8767 61.3963 70.3064 60.7322 69.4953C61.8354 70.8972 61.9854 71.2517 61.0107 70.5534C61.739 71.2302 61.4981 71.3322 60.1806 71.2302C61 71.402 60.0842 71.2839 58.4294 70.9885C60.0789 71.3107 60.9893 71.4611 60.1485 71.4074C61.4606 71.488 61.7016 71.4289 60.8875 70.9938C61.889 71.6008 61.6962 71.5847 60.2342 70.9133C61.1446 71.3483 60.5609 71.3215 59.0078 71.1066C59.7361 71.1657 58.1188 70.8273 56.7799 70.5212C58.1188 70.8327 59.7361 71.1818 59.0078 71.155C60.5609 71.3752 61.1553 71.4128 60.2395 71.0744C61.7123 71.735 60.6787 72.2399 59.7843 72.2292C60.5662 72.3259 60.3466 72.5622 59.2059 73.2282C59.9611 72.8844 59.222 73.2712 57.7546 73.9264C59.2327 73.2926 59.9825 72.9328 59.2863 73.3839C60.4163 72.7018 60.6787 72.5031 60.0521 72.7126C60.85 72.5676 62.0282 72.3366 61.1446 72.9059C61.7819 72.53 61.4231 72.9059 60.3413 73.921C60.9357 73.3839 59.9825 74.2326 58.8364 75.2101C60.4805 73.8405 61.1071 73.255 59.9825 73.9748C60.9679 73.3088 60.0735 74.007 58.5204 75.006C59.0935 74.6408 58.4026 75.194 57.6904 75.7042C57.4976 75.8063 56.6032 76.4078 56.0462 76.7462C56.6889 76.3756 57.6368 75.7579 57.8082 75.715C58.5365 75.2155 59.1417 74.7643 58.5794 75.2101C60.0146 74.2863 60.6091 73.8673 59.6451 74.8556C60.5019 74.1037 60.4055 74.297 59.6183 75.2477C60.0896 74.7804 59.2059 75.8331 58.483 76.6979C59.6665 75.4034 59.9343 75.1618 59.0453 76.3112C59.463 75.8385 59.0988 76.338 58.6436 76.9557C58.499 77.1759 57.8885 77.9869 57.4547 78.5831C57.0424 79.1739 56.0195 80.565 55.5107 81.3008C56.2498 80.4092 56.7532 79.8506 56.8978 79.7916C57.1762 79.5391 57.3476 79.8399 57.1709 80.2266C57.0852 80.4737 56.7746 81.0376 56.4693 81.5747C56.1641 82.1118 55.8106 82.6973 55.5 83.1968L55.5268 83.1753Z" fill="currentColor"/>
<path d="M53.9805 84.5985C57.9381 80.2641 58.4844 79.8022 57.8203 84.4427C59.5447 79.5766 62.7473 77.267 67.0369 81.5961C63.813 76.9448 64.3753 76.3916 69.8432 75.6181C66.2818 75.5537 67.6368 75.2744 70.7643 74.7427C69.4201 74.7427 69.8432 74.4849 70.9892 74.1035C71.3106 73.9155 72.3602 73.604 73.4259 73.2817C74.8505 72.8521 76.3125 72.417 77.7638 71.982C79.2151 71.5469 80.6504 71.1172 80.0881 71.8638C83.3977 70.2955 84.6991 69.9034 87.5428 70.9883C87.0715 69.189 100.09 69.608 103.052 69.1998C90.6918 68.5069 102.549 67.6368 103.802 67.3736C103.55 67.336 98.9284 67.8678 103.523 66.9386C103.197 66.9923 89.1226 69.0762 102.677 66.2189C101.006 66.4391 100.396 66.2833 101.633 65.3112C99.1319 66.3317 98.4785 66.5358 100.117 65.6442C97.5145 66.2941 94.4191 68.0611 97.7288 63.2487C96.7701 65.8483 85.3256 67.0245 85.2774 65.9288C84.9775 66.944 86.8037 66.1544 86.1022 63.5011C86.4289 66.1061 86.2146 66.5841 84.0029 65.8483C85.7112 66.4444 85.4917 65.8536 84.1153 63.7751C85.2935 65.8214 85.3149 66.3746 83.3441 65.9987C85.4595 66.5089 85.2775 65.9503 83.5584 64.006C84.6723 65.7301 82.2624 66.337 79.7989 66.1222C81.9946 66.2511 84.1367 65.569 82.8193 64.2047C84.201 65.6119 82.1178 66.337 79.9167 66.2027C81.9839 66.3854 83.9279 65.714 82.4337 64.484C83.6548 65.6495 81.443 66.2618 79.5204 66.1222C81.5126 66.5035 83.794 66.1329 82.332 65.0104C84.2867 66.4606 82.4873 67.1642 80.2487 66.7936C82.4337 67.148 84.1742 66.4337 82.2302 65.0319C83.6012 66.0577 81.2823 66.3961 79.4347 66.0362C81.1806 66.149 83.3977 65.5582 82.2784 64.527C83.7244 65.6549 81.8393 66.3424 79.8953 66.192C81.9464 66.2941 83.9332 65.5529 82.5623 64.2907C83.7458 65.4508 81.5662 66.09 79.6114 66.0094C81.8393 66.1866 84.2921 65.6388 83.2103 64.1349C85.015 65.9342 85.2774 66.5035 83.2103 66.0362C85.1489 66.4498 84.7633 65.8375 83.0228 64.194C84.1475 65.6227 81.9303 66.2887 79.906 66.1974C81.7964 66.3263 83.5691 65.5905 82.1231 64.5216C82.9907 65.3434 80.645 65.8321 79.2366 65.7677C80.5326 66.0148 80.7682 65.9772 79.7507 65.3541C79.1134 64.9191 89.0209 67.6046 79.756 66.67C81.0253 66.7023 80.4629 66.8204 78.9688 66.7936C80.2059 67.4435 80.2219 67.7174 78.8028 67.8194C80.3933 68.4156 80.5486 68.8292 78.9474 69.4898C80.1416 68.4693 79.6757 67.8194 78.61 67.3414C79.6436 67.3522 80.0827 67.5294 79.183 68.0665C80.1095 67.379 79.2847 66.6969 78.4493 66.192C78.3797 65.9933 78.2994 65.9718 78.3368 66.2135C78.9634 66.6861 79.7078 67.422 78.9956 68.4532C79.7667 67.6798 78.8777 67.0138 78.0102 66.568C77.4693 66.2242 76.9444 66.1007 76.5321 66.2726C75.702 66.6163 75.311 68.1524 74.7701 71.1119C74.663 66.1598 73.9722 66.9225 71.7497 70.3707C74.0472 66.525 74.6684 65.5743 72.7833 70.5855C75.2039 64.5538 75.1236 64.484 71.0374 69.5972C74.1918 65.1661 73.3456 65.9127 70.0253 69.0333C73.3456 65.9127 74.1811 65.1554 70.4698 69.1138C74.9576 64.3014 71.6105 67.3146 65.8106 70.4351C70.5394 67.712 69.5272 68.2061 65.4196 70.2418C69.479 67.9806 73.7312 64.1564 68.4133 62.0939C70.5019 62.3517 71.8889 62.4592 72.703 62.3088C73.517 62.1584 73.7633 61.7556 73.2439 61.342C73.2974 60.778 73.1635 60.2141 72.8261 59.6447C72.478 59.0002 71.9211 58.3503 71.0803 58.3127C71.905 58.404 72.3495 58.9626 72.5209 59.4514C72.6708 59.7522 72.5477 59.9885 72.1942 60.1281C72.2585 59.967 72.0871 59.7146 71.7604 59.4836C71.4284 59.0432 70.9464 58.6243 70.2877 58.5867C70.9089 58.4524 71.3588 58.6994 71.6426 59.1345C71.9264 59.0915 72.0496 59.2312 71.9318 59.4514C72.4727 59.0754 72.7726 58.78 72.8047 58.7693C72.703 58.0334 72.3388 57.5823 71.5408 57.9421C72.5959 57.5071 73.2171 57.8884 73.517 58.6028C73.608 58.6135 73.3831 58.9626 72.7404 59.4782C73.5598 58.8659 73.9668 58.4202 74.0257 58.3611C73.7901 57.55 73.201 57.1311 72.1514 57.6951C73.2439 57.1096 73.7848 57.1365 74.0686 57.636C73.6884 56.6638 73.0511 56.1643 72.0175 56.9378C73.0082 56.0354 73.6134 56.4114 74.0418 57.5662C73.774 57.1741 73.3349 57.5662 72.4298 58.5544C73.4045 57.7649 73.9186 57.5769 74.1221 57.9421C73.833 57.1848 73.2331 56.97 72.1621 57.7004C73.1849 57.0667 73.7312 57.3728 73.9561 58.157C73.7901 57.9636 73.3028 58.2429 72.387 58.9197C73.0778 58.1785 73.3456 57.8347 73.3777 58.1355C73.035 57.1848 72.4566 56.8894 71.4766 57.6467C72.4513 56.8303 73.0136 57.072 73.3563 58.0281C73.2867 57.5984 72.9868 57.8831 72.2638 58.6941C73.201 57.9153 73.7098 57.6575 73.9294 57.9905C73.683 57.158 73.1475 56.9055 72.146 57.6575C73.276 57.0774 73.8437 57.1096 74.1436 57.5876C73.7633 56.6101 73.1153 56.073 72.0817 56.7981C73.1153 55.826 73.6776 55.9011 74.2667 56.7551C73.683 55.5735 73.126 55.1707 72.3388 56.0032C73.0243 54.6712 73.4849 54.6121 74.4113 55.4876C73.5223 54.1824 73.0993 53.8011 72.8636 54.1395C73.0189 53.409 73.3563 53.3929 74.5506 53.9085C73.4152 53.0008 73.1314 52.6248 73.4902 52.0448C72.9225 51.6151 76.4625 31.882 76.9337 29.7336C76.2054 30.4157 70.1056 63.2863 76.184 27.7517C68.1348 68.9849 75.4181 27.2629 75.5306 26.4787C74.2507 32.0055 71.7551 48.1561 73.9347 25.0608C73.6455 26.6291 72.5155 45.8305 70.4858 38.3755C70.3359 40.6582 70.5929 51.6419 69.1041 53.3445C69.7414 53.973 69.2755 55.2566 68.3758 57.2708C68.2955 57.9529 67.7867 59.3655 67.2672 60.7941C66.7478 62.2228 66.2283 63.6623 65.7195 65.0587C65.3393 66.1114 64.9644 67.1373 64.7984 67.3844C64.3325 68.566 64.0808 68.9635 64.2575 67.5616C63.4435 70.7144 63.0632 72.0679 63.5399 68.4854C62.1421 74.0015 61.6012 74.5869 57.1187 71.1763C61.2156 75.6396 58.6879 78.6474 54.441 81.4457C58.3933 79.684 57.9435 80.2533 53.9912 84.5824L53.9805 84.5985Z" fill="currentColor"/>
<path d="M56.7491 82.7454C56.6634 82.16 56.5724 81.494 56.5081 80.887C56.4439 80.2801 56.3903 79.6624 56.4171 79.4046C56.4171 79.0018 56.4814 78.846 56.6474 79.179C56.7759 79.308 57.033 79.9954 57.3757 81.0858C57.199 80.221 56.808 78.3412 56.717 77.745C56.5778 77.0844 56.4546 76.4882 56.4225 76.3754C56.3689 76.1015 56.4064 76.3056 56.5403 76.9232C56.3582 75.9779 56.0529 74.3075 56.0904 74.517C56.0744 73.2172 56.0101 72.4545 56.0636 73.4858C55.7744 72.1967 55.7584 72.0678 56.0636 73.3246C55.9298 72.4707 56.3368 73.8725 56.7759 75.2636C56.3957 73.8617 56.069 72.5351 56.3743 73.3784C56.1172 72.1914 56.3314 72.4814 56.9848 73.6684C56.6045 72.8305 57.033 73.7328 57.5899 74.748C57.7506 74.8285 58.5057 76.1068 58.9984 76.7997C58.6342 76.2841 58.0826 75.3871 57.9166 75.183C57.4989 74.4257 57.1133 73.5878 57.4668 74.1464C56.4546 72.5727 55.9512 71.5039 56.5403 72.5566C55.8119 71.3911 56.0476 72.2021 56.8562 74.2001C56.31 72.7822 56.3368 71.3911 56.5563 72.1645C55.4585 70.3867 56.7224 71.1064 56.9901 71.7563C56.4814 70.8325 56.4867 70.6767 57.124 71.187C56.6849 70.709 56.792 70.999 57.4132 72.1484C57.0597 71.4072 57.5364 72.0786 58.5325 73.3569C57.5578 72.0571 57.1133 71.3696 57.5846 72.0463C56.9473 70.9077 56.8937 70.6069 57.6488 70.8969C56.8348 70.4726 56.1225 69.7368 57.8095 69.8657C56.8241 69.7261 57.4132 69.9624 58.9234 70.4619C58.2968 70.1665 59.957 70.6015 61.2209 70.9399C59.9624 70.5962 58.3129 70.1504 58.9556 70.4136C57.456 69.9087 56.8777 69.6616 57.9059 69.71C56.2243 69.5918 56.0154 69.5166 57.2258 69.4468C56.2779 69.4468 56.4439 69.5972 57.6488 70.102C56.883 69.7798 57.7667 70.0537 59.384 70.5317C57.772 70.0322 56.8991 69.7207 57.7077 69.9248C56.4921 69.4414 56.3368 69.2534 57.3114 68.9849C56.0958 69.146 56.4278 68.8828 58.088 68.1846C57.124 68.5767 57.8149 68.4209 59.3519 68.0396C58.7306 68.1846 60.3855 67.7549 61.5208 67.5347C59.8338 67.6529 58.7628 67.771 59.7696 67.0835C58.8859 67.3091 59.8874 66.6162 60.8942 66.0523C60.996 65.9771 60.8674 65.7139 61.2852 65.483C61.7029 65.252 62.1152 65.0157 62.4687 64.7901C60.846 64.7847 63.7486 62.5826 64.1235 61.5997C64.4984 60.6168 65.5427 59.5749 65.8747 58.6994L68.1347 52.759L66.0729 54.3918C64.8358 55.3693 63.1863 56.6745 61.5369 57.985C60.7121 58.6403 58.7788 61.3312 59.1109 59.9025C58.345 61.0895 57.3971 62.9747 57.124 63.0875C56.5563 64.0972 56.5135 63.544 57.0008 61.5729C56.7545 62.3087 56.3903 63.6514 56.3743 63.4635C56.0744 64.6129 55.8226 65.6226 55.9137 64.817C55.5388 66.4336 55.3996 66.9976 55.4531 65.6226C55.346 66.7505 55.3514 66.3799 55.4317 64.9888C55.3728 65.8213 55.4424 64.6827 55.5388 63.4098C55.4317 64.7095 55.3407 65.9986 55.3514 65.2037C55.2657 66.6807 55.2282 67.1587 55.2175 66.1114C55.1639 67.6367 55.1318 67.6045 55.0568 66.0523C55.0943 67.0889 55.0729 66.5625 55.0033 65.0748C55.0408 65.8321 54.9872 64.4678 54.9444 63.2057C54.9872 64.4625 55.0408 65.8321 54.9979 65.0748C55.0622 66.5625 55.0782 67.0943 54.9979 66.0577C55.0675 67.6153 55.0408 67.6636 54.8212 66.1597C54.9336 67.2071 54.8533 66.7452 54.6177 65.2896C54.7248 66.0845 54.5159 64.8331 54.2964 63.5387C54.4999 64.817 54.6766 65.9395 54.5159 65.1177C54.7355 66.5035 54.7783 66.8741 54.532 65.773C54.7355 67.1534 54.3124 66.7022 53.7287 65.1392C53.9429 65.9825 53.5841 65.0694 53.1128 63.9039C53.1557 64.1778 52.5987 62.8243 52.2506 62.0885C52.754 63.4205 53.1342 64.6236 52.7058 64.0167C52.8879 64.7794 52.2827 63.9307 51.6347 63.1197C51.2491 62.776 50.4244 61.7018 49.7228 60.923C50.4994 62.6471 47.8163 60.0421 46.8309 59.5856L43.0393 57.8346C40.7043 56.7551 38.9531 55.9494 38.9531 55.9494L42.4341 61.2613C42.9483 62.0455 43.4945 62.8834 44.0729 63.7642C44.6513 64.6451 47.661 66.2134 45.8669 66.4981C46.2954 66.6431 46.7667 66.7881 47.2326 66.9278C47.7039 67.0674 48.5607 67.3145 48.5875 67.3413C49.7496 67.6958 51.217 68.2437 50.1888 68.1524C51.2759 68.5015 51.1527 68.6089 49.9692 68.625C50.6975 68.813 49.5997 68.8721 48.5072 68.9902C49.7068 68.9634 51.3991 69.0332 50.7404 69.0386C52.3256 69.0654 53.0003 69.0601 51.9668 68.8667C53.7126 69.2266 54.05 69.4038 52.8558 69.4951C53.8465 69.5435 53.7287 69.7798 52.6522 70.5478C53.3913 70.1557 52.6148 70.6553 51.1581 71.4931C52.6308 70.6767 53.4234 70.2095 52.7433 70.7036C53.7983 69.9194 53.9429 69.7207 53.0432 69.9141C54.2 69.7314 54.0447 69.8442 52.4916 70.2739C53.4663 70.0161 53.0057 70.376 51.6776 71.2138C52.272 70.7895 50.8207 71.5737 49.5943 72.1967C50.8207 71.5737 52.2827 70.8003 51.7097 71.2461C53.0432 70.4136 53.5198 70.0591 52.604 70.3921C54.1571 69.9463 53.6858 71.0044 52.995 71.5683C53.6591 71.1386 53.6376 71.4609 53.1931 72.707C53.552 71.955 53.2306 72.7285 52.5344 74.1786C53.2628 72.7392 53.6055 71.9819 53.3592 72.7768C53.7876 71.5254 53.8626 71.2085 53.5145 71.767C54.0339 71.1386 54.7837 70.2041 54.4784 71.2085C54.7248 70.5102 54.6927 71.0259 54.5159 72.5029C54.6284 71.708 54.441 72.9702 54.1892 74.4579C54.5748 72.3471 54.6766 71.4985 54.2749 72.7714C54.6016 71.622 54.366 72.7338 53.8144 74.5009C54.0179 73.851 53.8411 74.7211 53.6269 75.5697C53.5412 75.7738 53.2413 76.8104 53.0325 77.4281C53.2895 76.7299 53.6162 75.6449 53.7233 75.4999C53.9643 74.6459 54.1357 73.9155 53.9911 74.6137C54.4999 72.9809 54.6873 72.2773 54.5802 73.6576C54.7569 72.5297 54.8051 72.7392 54.8105 73.9745C54.8694 73.3139 54.8694 74.6889 54.8694 75.8168C54.9444 74.0605 54.9979 73.7006 55.0568 75.1562C55.0729 74.5224 55.1157 75.1454 55.1639 75.9081C55.1961 76.1713 55.2496 77.1864 55.2925 77.9169C55.3567 78.6366 55.4638 80.3607 55.5442 81.2523C55.5388 80.0975 55.5656 79.3402 55.6352 79.2005C55.6888 78.8299 56.0101 78.9481 56.1225 79.3563C56.2136 79.598 56.3368 80.2318 56.4492 80.8441C56.5617 81.4564 56.6634 82.1277 56.7491 82.7132V82.7454Z" fill="currentColor"/>
<path d="M56.471 84.8314C56.7227 78.9609 56.8513 78.2519 59.3147 82.2372C57.5153 77.3979 58.49 73.563 64.5523 74.1162C59.1059 72.6338 59.1755 71.8443 62.8707 67.7247C60.102 69.9698 60.9589 68.8795 63.0153 66.4572C61.9817 67.3219 62.1478 66.8546 62.7797 65.8234C62.9082 65.4743 63.508 64.5558 64.1185 63.6213C64.9379 62.3752 65.7734 61.0969 66.6035 59.8293C67.4389 58.5618 68.2583 57.305 68.3065 58.2395C69.8328 54.9041 70.5825 53.7655 73.4584 52.7611C71.9428 51.6869 82.1877 43.6142 84.1906 41.396C74.2777 48.8295 82.7982 40.5205 83.5961 39.5108C83.3766 39.6451 80.1794 43.0288 83.1035 39.3604C82.8892 39.6128 73.4423 50.285 81.9949 39.355C80.8542 40.5957 80.2865 40.875 80.6132 39.3335C79.3547 41.729 78.9798 42.3091 79.6653 40.5689C78.0854 42.7441 76.8483 46.0903 76.3021 40.2735C77.2339 42.8838 69.2222 51.1605 68.4832 50.3549C68.9063 51.327 69.7953 49.5438 67.5567 47.9648C69.4739 49.7479 69.6185 50.2528 67.4496 51.1176C69.1419 50.473 68.5957 50.1615 66.2072 49.4579C68.4189 50.2636 68.7938 50.6771 67.0426 51.6547C68.992 50.6825 68.4939 50.371 65.9287 49.9896C67.8834 50.5912 66.4267 52.6107 64.4077 54.034C66.1697 52.7181 67.3746 50.8114 65.4895 50.618C67.4496 50.806 66.3196 52.702 64.547 54.0179C66.25 52.8255 67.305 51.0585 65.3717 51.0746C67.0587 51.1766 65.7519 53.078 64.1882 54.2113C65.9608 53.2176 67.471 51.4613 65.6288 51.5472C68.0548 51.3968 67.1283 53.0941 65.1736 54.2542C67.0747 53.1156 67.9477 51.4452 65.5592 51.6278C67.2622 51.5311 65.7091 53.2874 64.0596 54.2005C65.4681 53.1639 66.7855 51.2787 65.27 51.2142C67.1015 51.1444 66.1 52.89 64.5095 54.0286C66.1429 52.7826 67.1925 50.9349 65.3342 50.8544C66.9837 50.9779 65.7198 52.8739 64.1721 54.0716C65.9876 52.7718 67.5192 50.7738 65.7252 50.3173C68.2636 50.5321 68.8259 50.7953 66.9462 51.7782C68.6921 50.849 68.0066 50.6288 65.6234 50.4838C67.4014 50.8544 66.1268 52.7933 64.5202 54.0286C66.0465 52.9115 66.9355 51.2035 65.1468 51.3163C66.3357 51.3861 64.8522 53.2713 63.733 54.1307C64.879 53.4862 65.0397 53.3036 63.8615 53.4808C63.0903 53.5614 72.4034 49.227 64.7076 54.4798C65.7037 53.6849 65.3449 54.1414 64.1828 55.0867C65.5484 54.786 65.7359 54.9901 64.713 55.9783C66.3143 55.409 66.6998 55.6238 65.8912 57.1653C66.1536 55.6131 65.3824 55.4197 64.2578 55.7366C65.0557 55.076 65.5056 54.931 65.1628 55.9246C65.4306 54.8021 64.3595 54.8074 63.4009 54.9578C63.2188 54.8504 63.1439 54.888 63.3259 55.0491C64.1078 55.0062 65.1521 55.0867 65.2646 56.3382C65.3556 55.2479 64.2524 55.3123 63.2992 55.5272C62.6619 55.6131 62.1799 55.8548 61.9764 56.2522C61.5587 57.0471 62.2442 58.4812 63.7276 61.0969C60.4715 57.3748 60.434 58.4006 60.9374 62.4772C60.2359 58.0515 60.0966 56.9236 61.8693 61.9777C59.861 55.7957 59.7485 55.7957 59.8985 62.343C59.4754 56.9129 59.3094 58.03 58.7631 62.5632C59.3094 58.03 59.4593 56.9129 59.1541 62.3376C59.5075 55.7581 58.8756 60.2214 56.4335 66.3551C58.3079 61.2204 57.8527 62.2517 56.0105 66.4625C57.6706 62.1174 58.4793 56.4456 53.0811 58.2932C54.843 57.1438 55.9783 56.3328 56.5032 55.6937C57.028 55.0545 56.9584 54.5872 56.2997 54.6033C55.9783 54.1361 55.5178 53.7869 54.8912 53.5721C54.2111 53.3036 53.3702 53.1639 52.7008 53.6795C53.3917 53.2176 54.0879 53.3573 54.5377 53.6258C54.843 53.7601 54.9019 54.0179 54.7198 54.3563C54.6663 54.1951 54.3717 54.1092 53.9754 54.1414C53.4399 54.0179 52.8026 54.0072 52.2724 54.4046C52.6633 53.8997 53.1614 53.8031 53.6648 53.9481C53.8522 53.7332 54.0397 53.7601 54.0879 54.0072C54.2646 53.3734 54.3021 52.9491 54.3182 52.9222C53.7719 52.4227 53.1989 52.3153 52.8186 53.1048C53.3488 52.0951 54.0665 51.9823 54.7573 52.3368C54.8376 52.2884 54.8858 52.6966 54.7252 53.5076C54.9608 52.5086 54.9876 51.9017 54.9929 51.8212C54.2914 51.3539 53.5738 51.4076 53.1293 52.5194C53.5952 51.37 54.0236 51.037 54.5591 51.2357C53.6487 50.7362 52.8401 50.7631 52.5402 52.0199C52.7222 50.6879 53.4238 50.5858 54.4949 51.1981C54.0397 51.0692 53.9486 51.6493 53.8951 52.9974C54.1361 51.7621 54.4092 51.2894 54.8001 51.4344C54.0932 51.037 53.4988 51.2626 53.1453 52.514C53.5202 51.37 54.1414 51.2518 54.8109 51.7084C54.5592 51.6654 54.361 52.1971 54.0986 53.3036C54.1521 52.2884 54.1361 51.8534 54.3556 52.0628C53.4881 51.558 52.8508 51.6976 52.583 52.9168C52.8026 51.6654 53.3917 51.4828 54.27 51.993C53.9379 51.7084 53.8951 52.1166 53.8629 53.2069C54.0825 52.0038 54.3074 51.4828 54.6877 51.5956C53.9647 51.1175 53.3917 51.2679 53.1078 52.4872C53.6005 51.3109 54.0557 50.9725 54.5913 51.1498C53.6702 50.6449 52.8347 50.6556 52.5027 51.8749C52.6687 50.4623 53.1507 50.1615 54.1521 50.4301C52.9525 49.9037 52.267 49.952 52.1921 51.1014C51.8654 49.6405 52.1814 49.2968 53.4506 49.3666C51.9296 48.9423 51.362 48.9208 51.3995 49.3344C51.0514 48.6737 51.2977 48.4428 52.5402 48.0668C51.0888 48.1044 50.6283 47.997 50.5372 47.3202C49.825 47.3578 39.8907 29.9558 38.8732 28.0115C38.7554 29.0051 55.1482 58.116 37.0309 26.9748C57.2904 63.7502 36.1312 27.093 35.7135 26.4216C38.2734 31.4811 46.7135 45.4619 33.582 26.3679C34.3639 27.759 45.8084 43.1899 39.4783 38.7911C40.8279 40.6387 48.063 48.8832 48.0148 51.1444C48.9092 51.2142 49.3751 52.4979 49.9749 54.6248C50.3552 55.1995 50.8639 56.6121 51.3834 58.0408C51.9029 59.4695 52.4223 60.9089 52.9311 62.3107C53.3113 63.3635 53.6862 64.3893 53.7184 64.6847C54.12 65.8878 54.1789 66.3605 53.4185 65.1681C54.8162 68.1114 55.3892 69.3897 53.4613 66.339C55.9248 71.4683 55.8873 72.2632 50.2695 72.5371C56.2675 73.3106 56.2568 77.2529 54.8001 82.1298C56.696 78.2304 56.7174 78.9555 56.4657 84.826L56.471 84.8314Z" fill="currentColor"/>
<path d="M57.4019 81.6302C56.9628 81.2381 56.4647 80.7815 56.031 80.3626C55.5972 79.9437 55.158 79.4979 55.0134 79.2884C54.7564 78.9769 54.7082 78.8211 55.0456 78.9661C55.2223 78.9823 55.8649 79.3421 56.8236 79.9544C56.1327 79.4066 54.6332 78.2196 54.178 77.8167C53.6478 77.4032 53.1712 77.0218 53.0748 76.9574C52.8552 76.7855 53.0159 76.9144 53.5139 77.3011C52.7695 76.6942 51.4628 75.6146 51.6235 75.7489C50.7827 74.766 50.2418 74.2182 50.9433 74.9808C49.8937 74.1806 49.8026 74.0946 50.8416 74.8519C50.1936 74.2826 51.3985 75.099 52.6356 75.8778C51.4414 75.0507 50.3435 74.245 51.1201 74.6908C50.1614 73.9496 50.5149 74.0302 51.7734 74.5189C50.9487 74.1215 51.8537 74.5404 52.9302 74.9594C53.1015 74.9164 54.4993 75.4105 55.324 75.6254C54.7135 75.4642 53.7174 75.1312 53.4604 75.0883C52.6571 74.7767 51.8216 74.3847 52.4535 74.5834C50.6702 74.0302 49.5991 73.536 50.7237 73.9604C49.417 73.536 50.1186 74.0087 52.0198 75.0131C50.6916 74.2772 49.824 73.1977 50.4828 73.6488C48.5013 72.9936 49.9311 72.7358 50.5524 73.058C49.567 72.6767 49.4759 72.5585 50.29 72.5317C49.6473 72.4457 49.9204 72.6015 51.1254 73.0849C50.381 72.7465 51.1736 72.9506 52.7588 73.289C51.1843 72.9237 50.3971 72.6821 51.1897 72.8969C49.974 72.435 49.7384 72.2363 50.5042 71.9731C49.6098 72.1718 48.5923 72.0698 49.9686 71.0815C49.1225 71.6078 49.7276 71.4091 51.2057 70.8237C50.5363 71.0009 52.0894 70.2651 53.2676 69.7065C52.084 70.2544 50.5363 70.9794 51.195 70.7592C49.7223 71.3393 49.1225 71.5219 49.9419 70.8989C48.5816 71.8925 48.3727 71.9731 49.251 71.1352C48.528 71.7475 48.7476 71.7529 49.9954 71.3662C49.2028 71.6132 50.0543 71.2534 51.602 70.5766C50.049 71.2319 49.1814 71.5595 49.9258 71.1943C48.6833 71.6078 48.4423 71.5649 49.0207 70.727C48.196 71.6347 48.2817 71.2211 49.1011 69.6152C48.6137 70.539 49.0422 69.9697 49.9793 68.6914C49.5991 69.2016 50.5845 67.8052 51.3182 66.9082C50.1025 68.0845 49.3581 68.8686 49.6902 67.6924C49.1546 68.4336 49.4813 67.2573 49.8883 66.1831C49.9204 66.0596 49.6473 65.9414 49.8187 65.4956C49.9901 65.0498 50.1561 64.604 50.2846 64.2012C49.0368 65.2432 49.8508 61.6876 49.5081 60.694C49.1653 59.7003 49.2939 58.2287 48.9886 57.3478C47.7676 53.8137 46.9107 51.3376 46.9107 51.3376L46.3752 53.9157C46.0538 55.4626 45.6254 57.5304 45.2023 59.5929C44.9881 60.6241 45.2345 63.938 44.5757 62.6221C44.7525 64.024 45.2345 66.0811 45.0952 66.3443C45.3094 67.4883 44.9185 67.0855 44.0295 65.2647C44.3133 65.9844 44.8917 67.252 44.7578 67.1177C45.2612 68.1919 45.7218 69.1264 45.2719 68.4497C46.0217 69.9321 46.2734 70.4531 45.4326 69.3681C46.0699 70.3027 45.845 70.0127 45.0095 68.9009C45.5022 69.5776 44.8221 68.6592 44.0777 67.6226C44.8275 68.686 45.5826 69.7334 45.0845 69.1157C45.9628 70.3027 46.2466 70.6894 45.5611 69.8945C46.4983 71.0976 46.4555 71.0922 45.4005 69.9536C46.0967 70.7216 45.7379 70.3349 44.7364 69.2392C45.2505 69.7978 44.3348 68.7827 43.494 67.8481C44.3348 68.7827 45.2559 69.7978 44.7311 69.25C45.7325 70.351 46.086 70.7431 45.363 70.0019C46.4127 71.1513 46.4234 71.205 45.2934 70.1953C46.0485 70.9257 45.695 70.625 44.5811 69.6582C45.1702 70.1953 44.2116 69.3735 43.2101 68.5249C44.1848 69.3735 45.0417 70.1201 44.3883 69.5883C45.4487 70.5122 45.7164 70.7646 44.8221 70.0825C45.8664 71.0117 45.2505 70.9365 43.7992 70.1147C44.5008 70.625 43.6439 70.1577 42.5353 69.5615C42.7442 69.7441 41.4482 69.0674 40.7145 68.729C41.9516 69.4272 43.0173 70.104 42.2997 69.9106C42.9263 70.3725 41.9195 70.1201 40.9073 69.9106C40.3932 69.8945 39.0704 69.6045 38.0368 69.4594C39.7398 70.2812 36.0125 70.0127 34.9628 70.3027C33.5704 70.684 32.1726 71.0654 30.9355 71.4037L26.5977 72.5907C26.5977 72.5907 29.0986 73.3427 32.6707 74.4169C33.565 74.6854 34.5237 74.9755 35.5305 75.2762C36.5373 75.577 39.8469 74.8412 38.658 76.2162C39.0811 76.055 39.531 75.8617 39.9808 75.6683C40.436 75.4696 41.2447 75.1097 41.2875 75.1097C42.4068 74.6371 43.8849 74.1054 43.0334 74.6962C44.0884 74.2665 44.0616 74.4276 43.1673 75.1957C43.8474 74.8681 43.0441 75.6254 42.2783 76.4203C43.178 75.6254 44.5222 74.5888 44.0188 75.0184C45.2505 74.0194 45.7646 73.579 44.8489 74.0946C46.418 73.246 46.7929 73.1654 45.936 74.0033C46.7286 73.4018 46.7875 73.6596 46.4555 74.9432C46.7661 74.1645 46.493 75.0507 45.9146 76.6297C46.5198 75.056 46.825 74.1859 46.6269 75.0023C46.9321 73.7187 46.9161 73.4716 46.3484 74.202C47.1196 73.3158 47.0714 73.5038 46.1556 74.8358C46.7393 74.0087 46.6162 74.5834 46.1342 76.0819C46.3163 75.3729 45.7057 76.909 45.1702 78.1766C45.7111 76.909 46.3323 75.3729 46.177 76.0873C46.6644 74.5888 46.8036 74.0141 46.3109 74.8573C47.216 73.5146 47.5319 74.6264 47.3606 75.5072C47.5908 74.7499 47.7836 75.0131 48.2388 76.2538C48.0353 75.4481 48.2817 76.243 48.6726 77.806C48.3085 76.2377 48.0835 75.432 48.4049 76.2001C47.9336 74.9647 47.7836 74.6747 47.8747 75.3246C47.8747 74.5136 47.8479 73.3105 48.2549 74.2772C47.9925 73.579 48.3031 73.9979 49.1118 75.244C48.6887 74.5619 49.3581 75.6522 50.1186 76.952C49.0636 75.0883 48.5923 74.3686 49.1064 75.6093C48.6244 74.5189 49.1546 75.5233 49.8615 77.2313C49.6045 76.6029 50.0275 77.3817 50.4024 78.1712C50.4667 78.3807 50.9005 79.369 51.1415 79.9759C50.8898 79.2777 50.4453 78.2303 50.4346 78.0584C50.0704 77.2474 49.733 76.576 50.0704 77.2098C49.4117 75.6307 49.1064 74.9701 49.9044 76.098C49.3153 75.1205 49.4867 75.2494 50.2846 76.1893C49.9044 75.6415 50.788 76.6996 51.511 77.5589C50.4453 76.1678 50.2525 75.8563 51.2325 76.9359C50.8416 76.4418 51.27 76.8876 51.7948 77.4461C51.9876 77.6288 52.6785 78.37 53.1819 78.9017C53.6906 79.4119 54.8795 80.6634 55.5115 81.2972C54.7671 80.4163 54.3012 79.8201 54.269 79.6644C54.0709 79.3475 54.3922 79.2293 54.7403 79.471C54.9652 79.5999 55.4686 80.0027 55.9399 80.4002C56.4112 80.7977 56.9253 81.2434 57.3645 81.6409L57.4019 81.6302Z" fill="currentColor"/>
</svg>
