<svg width="143" height="143" viewBox="0 0 143 143" fill="none" xmlns="http://www.w3.org/2000/svg">
<path d="M82.8081 126.717C82.5993 126.717 82.3964 126.69 82.1934 126.631C81.4453 126.422 80.8538 125.855 80.5755 125.074C80.5233 124.929 80.4943 124.79 80.4711 124.635C80.3551 123.73 80.8364 122.874 81.7295 122.398C82.6341 121.916 83.7301 121.964 84.5304 122.516C84.8204 122.714 85.0291 122.928 85.1683 123.163C85.6554 123.977 85.0755 125.646 84.2984 126.214C83.8461 126.545 83.3242 126.717 82.8023 126.717H82.8081ZM83.0691 123.136C82.7907 123.136 82.5239 123.217 82.3152 123.329C81.8223 123.591 81.5671 124.035 81.6251 124.512C81.6367 124.592 81.6541 124.672 81.6773 124.742C81.8339 125.186 82.147 125.502 82.5297 125.609C82.8661 125.705 83.243 125.62 83.5852 125.373C84.0143 125.063 84.31 123.934 84.1593 123.688C84.0955 123.586 83.9911 123.484 83.8403 123.377C83.591 123.206 83.3242 123.142 83.0691 123.142V123.136ZM36.1549 116.811C35.9635 116.811 35.7954 116.774 35.72 116.752C35.4184 116.677 35.227 116.533 35.1401 116.329C34.9951 115.992 34.9661 115.334 35.3546 115.008C35.6446 114.767 36.0099 114.794 36.3637 114.82C36.4854 114.831 36.6304 114.842 36.7812 114.842C36.9726 114.842 37.1581 114.933 37.2625 115.083C37.3669 115.232 37.3901 115.42 37.3147 115.586C37.2567 115.709 37.2161 115.826 37.1755 115.928C37.0711 116.206 36.9726 116.474 36.7058 116.661C36.5376 116.779 36.3347 116.811 36.1549 116.811ZM32.6987 116.153L31.5447 116.04C31.5621 115.901 31.5795 115.757 31.5911 115.618C31.3997 115.537 31.2141 115.404 31.1445 115.19L31.6606 115.045C31.6954 114.788 31.7244 114.526 31.7592 114.269L31.8752 113.37C31.8984 113.22 31.9216 113.076 31.9332 112.926C31.9332 112.867 31.9332 112.808 31.9332 112.749C31.9216 112.589 31.91 112.385 31.9854 112.177C32.1826 111.588 32.2927 110.973 32.4087 110.325C32.5769 109.373 32.7509 108.388 33.238 107.451C33.2902 106.51 33.6439 105.685 33.9861 104.888C34.2006 104.39 34.3978 103.925 34.5254 103.438C34.537 103.395 34.5486 103.347 34.5544 103.304C34.5834 103.16 34.6182 102.999 34.7051 102.833C35.4184 101.399 36.0621 100.109 36.7348 98.8142C37.0421 98.2202 37.3263 97.76 37.622 97.3693C37.8888 97.0162 38.1846 96.6897 38.4687 96.374C38.6369 96.1867 38.8108 95.994 38.9732 95.8014C39.182 95.5499 39.3908 95.2823 39.5763 94.9987C39.7329 94.7632 39.8895 94.5277 40.0402 94.2869C40.2316 93.9873 40.4288 93.6822 40.6317 93.3879C40.7593 93.2059 40.9043 93.04 41.0493 92.8688C41.1479 92.7564 41.2464 92.644 41.3334 92.5263C41.6756 92.0768 41.7394 91.7129 41.5828 91.1349L41.5016 90.846C41.287 90.0647 41.0899 89.3262 40.6259 88.6733C40.365 88.304 40.2258 87.8759 40.0982 87.4692C40.0402 87.2926 39.9823 87.1107 39.9127 86.9234C39.8547 86.7789 39.8721 86.613 39.9533 86.4792C40.0344 86.3454 40.1794 86.2491 40.3418 86.217L40.8173 86.1314C41.1247 86.0778 41.3914 86.0297 41.6524 85.9708L41.8669 85.9227C42.1337 85.8638 42.3889 85.8103 42.5686 85.7086C43.6588 85.1092 44.8302 84.9112 45.8335 84.7989C46.1466 84.7614 46.4598 84.7025 46.7903 84.6383C47.0223 84.5902 47.2542 84.5473 47.4862 84.5099L47.8225 84.451C48.2517 84.3761 48.6924 84.3012 49.1505 84.2958C50.0726 84.2851 50.8844 84.0604 51.6267 83.6108L51.6789 83.5787C51.7717 83.5199 51.9051 83.4342 52.079 83.3861C52.8677 83.1774 53.5462 82.7546 54.2653 82.3051C54.7524 82.0001 55.2627 81.6843 55.8136 81.4382C56.5153 81.1224 57.2402 80.8281 57.9419 80.5445C58.7653 80.2073 59.6236 79.8648 60.4296 79.4795C60.6384 79.3779 60.853 79.3618 61.0037 79.3458C61.0385 79.3458 61.0733 79.3458 61.1023 79.3351C61.2589 79.3083 61.4213 79.3458 61.5488 79.4314C61.5662 79.4474 61.5894 79.4528 61.6068 79.4635C61.717 79.5223 61.9432 79.6508 61.9838 79.9291C62.1172 80.7371 62.4999 81.4756 62.9058 82.2569C63.2538 82.9259 63.6133 83.6162 63.8221 84.3761C63.9265 84.756 63.938 84.7989 64.4658 84.7346C65.3182 84.6383 66.1011 84.7989 66.9999 85.2537C67.2493 85.3822 67.6146 85.4624 68.0264 85.4785C68.7744 85.5052 69.5515 85.6123 70.201 86.1635C70.5257 86.4417 70.8215 86.5381 71.2158 86.522C72.0683 86.4738 72.7352 86.8645 73.2629 87.2498C73.5586 87.4639 73.9414 87.7207 74.2719 87.7689C75.165 87.908 75.8783 88.1917 76.5045 88.6733C76.6669 88.7964 76.8409 88.9355 76.9453 88.9569C78.3834 89.278 79.5258 90.0272 80.6277 90.7443C80.9988 90.9851 81.3699 91.2313 81.7527 91.456C82.176 91.7075 82.5645 92.1196 82.8197 92.5905C82.9937 92.9063 83.1444 93.0347 83.4286 93.0989C83.7765 93.1792 84.2173 93.3076 84.5768 93.5698C85.638 94.3511 86.4789 95.0094 87.2096 95.6355L87.256 95.6729C87.5575 95.9352 87.9054 96.2295 88.1548 96.6202C88.3404 96.6844 88.5433 96.786 88.6593 96.9626C88.8333 97.2249 88.8217 97.5085 88.8043 97.8082C88.8043 97.9205 88.7927 98.0436 88.7985 98.1881C88.7985 98.3701 88.7057 98.5413 88.5433 98.643C88.381 98.7447 88.1722 98.7661 87.9924 98.6965C87.8475 98.643 87.7141 98.6002 87.5923 98.5681C87.2502 98.4664 86.8964 98.3594 86.7456 98.0276C86.5717 97.6476 86.7456 97.182 86.937 96.8984C86.7978 96.7539 86.6355 96.6148 86.4615 96.465L86.4151 96.4275C85.7018 95.8228 84.8899 95.1806 83.8461 94.4154C83.6606 94.2762 83.3532 94.196 83.1328 94.1478C82.3384 93.9658 81.9904 93.4789 81.7701 93.0829C81.6077 92.7885 81.3583 92.5156 81.1148 92.3711C80.7146 92.1357 80.3319 91.8841 79.9434 91.6326C78.8822 90.9369 77.8789 90.2841 76.6553 90.0111C76.2958 89.9309 76.0116 89.7115 75.7797 89.5349C75.281 89.1549 74.7474 88.9409 74.0632 88.8392C73.4775 88.7482 72.9555 88.4164 72.5264 88.106C72.0045 87.7314 71.645 87.5923 71.2622 87.6083C70.5489 87.6458 69.94 87.4371 69.3891 86.9662C69.0354 86.6665 68.5773 86.5862 67.9568 86.5648C67.5392 86.5488 66.9361 86.4738 66.42 86.2116C65.7415 85.8691 65.1964 85.7461 64.5933 85.8156C63.5263 85.9387 62.9348 85.5802 62.6855 84.6544C62.5057 84.0015 62.1867 83.3861 61.8504 82.7386C61.4793 82.0215 61.0965 81.2883 60.8994 80.4642C60.0759 80.8495 59.2176 81.1973 58.3884 81.5345C57.6983 81.8128 56.985 82.1017 56.3007 82.4121C55.8194 82.6315 55.3671 82.9098 54.8916 83.2095C54.1261 83.6858 53.3432 84.1727 52.3748 84.4296C52.369 84.4296 52.3458 84.451 52.3168 84.4724L52.2356 84.5259C51.302 85.0878 50.2871 85.3715 49.1389 85.3822C48.7794 85.3822 48.4024 85.4517 48.0081 85.5159L47.6602 85.5748C47.4398 85.6123 47.2252 85.6551 47.0107 85.6979C46.6685 85.7675 46.3148 85.837 45.9495 85.8745C45.0216 85.9815 44.0358 86.1474 43.1369 86.6397C42.8006 86.8217 42.4352 86.902 42.1047 86.9715L41.9075 87.0143C41.6698 87.0679 41.432 87.1107 41.1711 87.1588C41.1711 87.1588 41.1711 87.1642 41.1711 87.1695C41.287 87.5334 41.3856 87.8492 41.5538 88.09C42.1279 88.898 42.3599 89.7596 42.586 90.5891L42.6614 90.8727C42.905 91.7557 42.7774 92.43 42.2381 93.1417C42.1337 93.2755 42.0235 93.4093 41.9075 93.5377C41.7858 93.6769 41.664 93.816 41.5596 93.9605C41.3624 94.2441 41.1769 94.5384 40.9855 94.8274C40.8289 95.0736 40.6723 95.3198 40.51 95.5606C40.3012 95.8709 40.075 96.176 39.8373 96.4543C39.6691 96.6576 39.4893 96.8556 39.3096 97.0536C39.0254 97.3694 38.7587 97.6637 38.5209 97.9794C38.2599 98.3219 38.0106 98.734 37.7264 99.2745C37.0595 100.564 36.4159 101.848 35.7026 103.277C35.6794 103.331 35.6562 103.416 35.6388 103.507C35.6272 103.566 35.6156 103.631 35.5982 103.689C35.4532 104.246 35.227 104.77 35.0125 105.279C34.6819 106.06 34.363 106.793 34.3398 107.591C34.3398 107.746 34.2644 107.858 34.2354 107.912C33.8179 108.704 33.6613 109.576 33.4989 110.502C33.4989 110.507 33.4989 110.518 33.4989 110.523C33.5395 110.539 33.5859 110.561 33.6265 110.577C33.6845 110.603 33.7599 110.636 33.8411 110.668C34.0382 110.743 34.1716 110.908 34.1948 111.101C34.218 111.294 34.131 111.486 33.9571 111.599C33.8817 111.647 33.8179 111.7 33.7657 111.738C33.6207 111.85 33.4409 111.989 33.1916 112.011C33.1452 112.177 33.0988 112.337 33.0466 112.503C33.0408 112.535 33.0466 112.632 33.0466 112.696C33.0524 112.803 33.0582 112.91 33.0466 113.017C33.035 113.183 33.006 113.354 32.9828 113.52L32.8668 114.403C32.861 114.462 32.8552 114.515 32.8436 114.574L32.977 114.563C33.0002 114.836 32.9132 115.147 32.7393 115.398C32.7103 115.655 32.6755 115.907 32.6465 116.164L32.6987 116.153ZM33.2264 107.548C33.2264 107.548 33.2264 107.558 33.2264 107.564C33.2264 107.564 33.2264 107.553 33.2264 107.548ZM86.0555 115.5C85.6206 115.5 85.2031 115.42 84.9943 115.366C84.7102 115.291 84.3158 115.147 84.1883 114.799C83.9215 114.076 83.8345 112.76 84.4956 112.08C84.9247 111.642 85.6438 111.674 86.5485 111.711C86.9486 111.727 87.3951 111.743 87.8764 111.733C88.0678 111.711 88.2592 111.813 88.3694 111.957C88.4853 112.102 88.5085 112.294 88.439 112.46C88.265 112.872 88.1374 113.247 88.0272 113.579C87.7779 114.312 87.5865 114.895 87.082 115.254C86.8152 115.441 86.4325 115.505 86.0555 115.505V115.5ZM85.2437 114.317C85.5278 114.414 86.2005 114.478 86.3977 114.392C86.5891 114.253 86.734 113.814 86.9254 113.258C86.9718 113.113 87.024 112.958 87.082 112.798C86.879 112.798 86.6876 112.787 86.5021 112.776C86.0729 112.76 85.4814 112.733 85.3423 112.808C85.1277 113.028 85.0813 113.761 85.2437 114.312V114.317ZM41.4436 114.365C41.374 114.365 41.2986 114.355 41.2348 114.328C41.1015 114.28 40.9681 114.242 40.8521 114.21C40.4752 114.103 40.046 113.986 39.9823 113.563C39.9301 113.236 40.0576 112.942 40.162 112.707C40.191 112.637 40.22 112.567 40.2432 112.503C40.2896 112.364 40.394 112.252 40.5332 112.187C40.6723 112.123 40.8347 112.113 40.9855 112.161C41.0493 112.182 41.1189 112.193 41.1943 112.209C41.4668 112.268 41.8379 112.348 42.0525 112.642C42.2729 112.942 42.1801 113.279 42.1047 113.579C42.0757 113.68 42.0467 113.798 42.0235 113.916C41.9945 114.076 41.8901 114.216 41.7394 114.296C41.6524 114.344 41.548 114.365 41.4494 114.365H41.4436ZM75.6753 113.161C75.5883 113.161 75.5013 113.145 75.4201 113.108C75.078 112.953 74.7532 112.835 74.4401 112.717C73.7152 112.45 73.0831 112.214 72.712 111.722C72.3003 111.171 72.741 110.132 72.8338 109.929C73.0599 109.437 73.3151 109.185 73.6514 109.132C74.5967 108.987 75.7797 109.292 76.406 109.838C76.8409 110.218 76.6959 110.812 76.4872 111.631C76.406 111.957 76.3132 112.327 76.2494 112.701C76.2204 112.867 76.1102 113.017 75.9478 113.092C75.8609 113.135 75.7681 113.156 75.6753 113.156V113.161ZM73.6978 111.149C73.895 111.363 74.3531 111.529 74.875 111.722C74.991 111.765 75.1186 111.813 75.2462 111.861C75.2868 111.695 75.3215 111.54 75.3621 111.39C75.4317 111.106 75.5303 110.727 75.5361 110.555C75.1766 110.298 74.5271 110.138 73.9936 110.175C73.8486 110.405 73.6804 110.941 73.7036 111.149H73.6978ZM37.1697 113.012C37.0595 113.012 36.9494 113.001 36.8508 112.99C36.7928 112.985 36.7348 112.979 36.6768 112.974C36.5202 112.974 36.3695 112.905 36.2593 112.798C36.1549 112.685 36.1027 112.541 36.1143 112.396C36.1143 112.353 36.1143 112.305 36.1143 112.257C36.1085 112.022 36.0969 111.668 36.4274 111.454C36.6768 111.294 36.9494 111.278 37.2161 111.262C37.3089 111.262 37.4075 111.251 37.5119 111.235C37.7032 111.213 37.8888 111.272 38.0164 111.406C38.144 111.535 38.1962 111.717 38.1556 111.888C38.1324 111.984 38.115 112.075 38.1034 112.161C38.0628 112.434 38.0048 112.771 37.6452 112.921C37.4829 112.99 37.3205 113.006 37.1639 113.006L37.1697 113.012ZM42.2149 110.582C41.9075 110.582 41.6176 110.443 41.5132 110.384C41.2464 110.24 41.1015 110.052 41.0957 109.827C41.0841 109.485 41.229 109.014 41.5828 108.73C41.9017 108.479 42.2729 108.591 42.6034 108.688C42.7078 108.72 42.8296 108.757 42.963 108.784C43.1427 108.827 43.2935 108.944 43.3631 109.1C43.4327 109.26 43.4153 109.437 43.3167 109.587C43.2529 109.683 43.2007 109.774 43.1543 109.86C43.0151 110.106 42.8702 110.357 42.5744 110.502C42.4642 110.555 42.3425 110.577 42.2207 110.577L42.2149 110.582ZM38.2947 109.469C38.2078 109.469 38.1266 109.453 38.0454 109.421C38.0164 109.41 37.9816 109.399 37.9526 109.389C37.7728 109.33 37.5061 109.244 37.3553 108.993C37.1987 108.736 37.2741 108.479 37.3321 108.292C37.3495 108.238 37.3669 108.174 37.3785 108.11C37.4075 107.949 37.5235 107.81 37.68 107.73C37.8366 107.655 38.028 107.649 38.1904 107.714C38.2599 107.746 38.3353 107.767 38.4049 107.794C38.6427 107.874 39.037 108.008 39.0486 108.409C39.0602 108.645 38.9674 108.843 38.8978 108.998C38.8804 109.035 38.863 109.073 38.8456 109.11C38.7935 109.255 38.6717 109.367 38.5209 109.426C38.4513 109.453 38.3759 109.469 38.2947 109.469ZM77.6644 101.383C77.531 101.383 77.3802 101.362 77.2178 101.319C76.8757 101.228 76.4408 101.046 76.319 100.687C76.1972 100.334 76.2552 99.9915 76.3306 99.5527C76.3596 99.3708 76.3944 99.1674 76.4234 98.9266C76.4466 98.7447 76.5625 98.5895 76.7365 98.5038C76.9105 98.4236 77.1192 98.4289 77.2932 98.5199C77.5252 98.643 77.7513 98.7447 77.9427 98.8303C78.4472 99.055 78.8764 99.2477 78.9633 99.6812C79.0851 100.302 78.4994 100.96 78.1689 101.222C78.0355 101.329 77.8673 101.378 77.6644 101.378V101.383ZM77.4092 100.248C77.4498 100.264 77.502 100.281 77.5484 100.291C77.6586 100.179 77.7455 100.05 77.7919 99.9594C77.6992 99.9113 77.5716 99.8578 77.4672 99.8096C77.4382 99.9862 77.415 100.136 77.415 100.248H77.4092ZM82.7269 101.34C82.5877 101.34 82.4544 101.319 82.321 101.271C81.9788 101.147 81.7353 100.875 81.6483 100.527C81.5381 100.093 81.8513 99.4618 82.2804 99.2584C82.6109 99.1032 82.9473 99.1835 83.272 99.2584C83.388 99.2852 83.5098 99.3173 83.649 99.3387C83.8287 99.3654 83.9853 99.4725 84.0665 99.6223C84.1477 99.7721 84.1477 99.9487 84.0665 100.099C84.0027 100.216 83.9563 100.329 83.9099 100.43C83.7939 100.698 83.678 100.971 83.388 101.142C83.1792 101.265 82.9531 101.329 82.7269 101.329V101.34ZM66.0199 98.2737C65.7357 98.2737 65.4342 98.2202 65.2776 97.9312C65.1327 97.6583 65.1037 97.3694 65.0747 97.1125C65.0689 97.0269 65.0573 96.9412 65.0457 96.861C65.0225 96.7058 65.0689 96.5506 65.179 96.4329C65.2892 96.3151 65.4516 96.2509 65.6198 96.2509H66.5244C66.681 96.2509 66.8318 96.3098 66.9361 96.4114C67.0405 96.5131 67.1043 96.6523 67.1043 96.7967L67.0811 97.7332C67.0811 97.8777 67.0115 98.0115 66.9014 98.1078C66.7912 98.2042 66.6404 98.263 66.4896 98.2577C66.4258 98.2523 66.3562 98.2577 66.2809 98.2684C66.1997 98.2684 66.1127 98.2791 66.0257 98.2791L66.0199 98.2737ZM84.0201 97.4764C83.7301 97.4764 83.4982 97.364 83.3126 97.2677C83.2662 97.2463 83.2198 97.2195 83.1734 97.2035C83.0285 97.1446 82.9125 97.0322 82.8603 96.8931C82.8081 96.7539 82.8197 96.6041 82.8893 96.4703C82.9067 96.4329 82.9241 96.3954 82.9415 96.3579C83.0169 96.1867 83.1154 95.9459 83.3706 95.796C83.5968 95.6569 83.8345 95.6355 84.0839 95.6087C84.1825 95.598 84.2926 95.5873 84.426 95.5659C84.6464 95.5338 84.861 95.6141 84.9885 95.78C85.1161 95.9459 85.1335 96.1599 85.0349 96.3419C84.9189 96.5452 84.8378 96.7111 84.774 96.8396C84.6174 97.1499 84.455 97.471 84.0375 97.4764H84.0259H84.0201ZM79.9318 96.4703C79.6998 96.4703 79.4853 96.3633 79.3287 96.283C79.2823 96.2616 79.2417 96.2349 79.2011 96.2188C79.0561 96.1599 78.9401 96.0476 78.8822 95.9084C78.83 95.7693 78.8358 95.6141 78.9111 95.4803C78.9343 95.4375 78.9575 95.384 78.9807 95.3358C79.0677 95.1432 79.1721 94.9077 79.4157 94.7365C79.723 94.5224 80.0594 94.6241 80.3319 94.7043C80.4131 94.7311 80.5117 94.7579 80.6103 94.7793C80.7958 94.8221 80.9524 94.9452 81.022 95.111C81.0916 95.2769 81.0684 95.4642 80.9582 95.6087C80.8944 95.6944 80.8422 95.7746 80.7958 95.8442C80.6567 96.0529 80.5175 96.2723 80.2449 96.4007C80.1405 96.4543 80.0304 96.4703 79.9318 96.4703Z" fill="currentColor"/>
<path d="M64.4498 115.633C64.3628 115.515 64.2759 115.397 64.1947 115.28C63.9917 115.328 63.7539 115.339 63.551 115.215L63.8467 114.798C63.6786 114.557 63.5046 114.322 63.3364 114.081L63.0001 113.61C62.9479 113.535 62.8899 113.455 62.8377 113.375C62.7507 113.251 62.6695 113.128 62.5767 113.011C62.5419 112.962 62.4956 112.92 62.4492 112.877C62.3274 112.759 62.1824 112.615 62.0896 112.406C61.8287 111.833 61.4865 111.304 61.1212 110.736C60.5877 109.907 60.031 109.051 59.7526 108.039C59.1437 107.295 58.8364 106.45 58.5406 105.631C58.355 105.128 58.1869 104.646 57.9433 104.202C57.9201 104.165 57.8969 104.122 57.8737 104.084C57.7983 103.956 57.7114 103.812 57.6592 103.63C57.2068 102.115 56.8067 100.74 56.4182 99.3485C56.2384 98.7117 56.134 98.1926 56.0934 97.7109C56.0528 97.2828 56.047 96.8547 56.047 96.4427C56.047 96.1965 56.047 95.9503 56.0354 95.7095C56.0238 95.3938 55.989 95.0673 55.9426 94.7356C55.9021 94.4626 55.8499 94.1897 55.8035 93.9168C55.7397 93.5689 55.6817 93.2264 55.6295 92.8786C55.6005 92.6645 55.5947 92.4505 55.5889 92.2311C55.5889 92.0866 55.5831 91.9421 55.5715 91.803C55.5193 91.2518 55.3164 90.936 54.7944 90.5935L54.5277 90.4169C53.8202 89.946 53.1533 89.5019 52.3415 89.2717C51.8833 89.1433 51.4832 88.8971 51.1005 88.6617C50.9323 88.56 50.7641 88.453 50.5785 88.3513C50.4336 88.271 50.335 88.1372 50.306 87.9874C50.277 87.8322 50.3176 87.677 50.422 87.5593L50.7351 87.2007C50.9265 86.9813 51.1005 86.7887 51.257 86.5907L51.3846 86.4301C51.5528 86.2268 51.7094 86.0341 51.7731 85.8522C52.1849 84.7498 52.9503 83.9043 53.6404 83.2193C53.855 83.0052 54.0522 82.7751 54.2609 82.5236C54.4059 82.3524 54.5509 82.1811 54.7075 82.0152L54.9278 81.7691C55.2062 81.4587 55.4903 81.1376 55.8383 80.8647C56.5341 80.3081 57.0039 79.6606 57.259 78.8739L57.2764 78.8204C57.3054 78.7187 57.346 78.5742 57.4504 78.4351C57.9085 77.8036 58.1347 77.0758 58.3724 76.3052C58.5348 75.7808 58.703 75.2403 58.9523 74.7212C59.2713 74.063 59.6192 73.4048 59.9614 72.7733C60.3615 72.0241 60.7732 71.2535 61.127 70.4829C61.2198 70.2795 61.3647 70.1404 61.4749 70.0387C61.4981 70.0173 61.5213 69.9906 61.5445 69.9692C61.6489 69.8568 61.7997 69.7872 61.9562 69.7765C61.9794 69.7765 62.0026 69.7765 62.0258 69.7712C62.1418 69.7551 62.4144 69.7176 62.6405 69.9049C63.3074 70.4454 64.1135 70.7826 64.9659 71.1358C65.6966 71.4408 66.4563 71.7565 67.1406 72.2168C67.4827 72.4469 67.5233 72.4683 67.8828 72.1097C68.4685 71.5318 69.176 71.1893 70.1851 71.0073C70.4692 70.9538 70.7998 70.7986 71.1245 70.5685C71.716 70.1458 72.3945 69.7551 73.2701 69.8033C73.7051 69.8247 74.0066 69.7283 74.2966 69.4768C74.9229 68.931 75.6999 68.84 76.3726 68.8186C76.7496 68.8079 77.2193 68.7758 77.5092 68.6152C78.2805 68.1978 79.046 67.9891 79.852 67.9838C80.0666 67.9838 80.2928 67.9838 80.3856 67.941C81.7135 67.3363 83.1053 67.2292 84.4507 67.1276C84.903 67.0901 85.3611 67.058 85.8077 67.0045C86.3064 66.9456 86.8921 67.0312 87.414 67.2346C87.7677 67.3737 87.9765 67.3791 88.2374 67.2613C88.5564 67.1168 88.9855 66.951 89.4436 66.9403C90.8296 66.9081 91.8908 66.9135 92.8999 66.9617C93.3464 66.9831 93.8393 67.0045 94.309 67.1543C94.4946 67.0901 94.7208 67.0526 94.9353 67.1168C95.2543 67.2132 95.4398 67.4379 95.637 67.6787C95.7124 67.7697 95.7936 67.866 95.8922 67.9731C96.0197 68.1069 96.0661 68.2942 96.0139 68.4708C95.9618 68.6474 95.8168 68.7811 95.6312 68.8347C95.4862 68.8775 95.3529 68.9256 95.2369 68.9684C94.9063 69.0915 94.5642 69.22 94.2104 69.0594C93.8103 68.8721 93.6189 68.4119 93.5726 68.0801C93.3638 68.048 93.1434 68.0373 92.9057 68.0319C91.8734 67.9838 90.8296 67.9784 89.4784 68.0105C89.2407 68.0159 88.9449 68.1336 88.7478 68.2246C88.0113 68.551 87.4082 68.3905 86.9617 68.2139C86.6311 68.0855 86.2484 68.0266 85.9642 68.0587C85.4945 68.1176 85.0248 68.1497 84.5493 68.1871C83.2503 68.2835 82.0267 68.3798 80.9017 68.8935C80.5653 69.0434 80.2 69.0487 79.9042 69.0487C79.2547 69.0487 78.698 69.2039 78.1007 69.5303C77.5904 69.8086 76.9583 69.8621 76.4132 69.8782C75.7521 69.8996 75.3752 70.0066 75.0968 70.2474C74.5807 70.697 73.9602 70.9003 73.218 70.8628C72.7482 70.8361 72.3307 71.0555 71.8378 71.4033C71.5072 71.6388 70.9969 71.9385 70.4112 72.0455C69.6516 72.1846 69.147 72.4201 68.7353 72.8268C68.0046 73.5546 67.3029 73.6295 66.4621 73.0676C65.8706 72.6716 65.1979 72.3934 64.4904 72.0937C63.7075 71.7672 62.9015 71.4301 62.1766 70.9164C61.8171 71.703 61.3995 72.479 60.9994 73.2282C60.6631 73.8543 60.3209 74.4965 60.0136 75.1386C59.799 75.5882 59.6482 76.0698 59.4859 76.5835C59.2307 77.3969 58.9697 78.2425 58.4072 79.0131C58.4072 79.0238 58.4014 79.0505 58.3898 79.0826L58.3666 79.1683C58.0419 80.1583 57.462 80.9717 56.5921 81.662C56.3196 81.8814 56.076 82.149 55.8209 82.438L55.5947 82.6895C55.4497 82.8447 55.3164 83.0052 55.1772 83.1658C54.9626 83.4226 54.7422 83.6849 54.4871 83.931C53.8492 84.5625 53.2055 85.2742 52.8634 86.184C52.7358 86.5211 52.5096 86.8047 52.3067 87.0509L52.1849 87.2007C52.0399 87.3827 51.8891 87.5539 51.721 87.7466C51.721 87.7466 51.7268 87.7466 51.7326 87.7519C52.0747 87.966 52.3704 88.1479 52.6662 88.2282C53.6636 88.5065 54.4465 89.0256 55.1946 89.5286L55.4555 89.6999C56.2558 90.2296 56.6327 90.8237 56.7139 91.6906C56.7313 91.8565 56.7313 92.0224 56.7371 92.1883C56.7371 92.3649 56.7429 92.5468 56.7661 92.7181C56.8125 93.0498 56.8705 93.387 56.9285 93.7188C56.9807 94.0024 57.0271 94.2807 57.0735 94.5643C57.1314 94.9282 57.1662 95.2921 57.1778 95.6453C57.1894 95.9022 57.1894 96.1537 57.1952 96.4105C57.1952 96.8226 57.201 97.2079 57.2358 97.5932C57.2764 98.0106 57.3692 98.4762 57.5316 99.0595C57.9201 100.451 58.3202 101.815 58.7726 103.33C58.79 103.383 58.8364 103.464 58.8886 103.549C58.9176 103.603 58.9523 103.656 58.9813 103.71C59.2539 104.224 59.4511 104.759 59.6366 105.278C59.9266 106.075 60.1991 106.824 60.7326 107.445C60.837 107.574 60.866 107.702 60.8718 107.756C61.1038 108.612 61.5909 109.366 62.1128 110.169C62.1128 110.174 62.1244 110.185 62.1244 110.19C62.1708 110.18 62.2172 110.169 62.2578 110.158C62.3216 110.142 62.397 110.126 62.484 110.099C62.6811 110.041 62.9015 110.089 63.0581 110.223C63.2088 110.356 63.2726 110.554 63.2204 110.742C63.1972 110.827 63.1856 110.897 63.1682 110.961C63.1334 111.132 63.0929 111.346 62.9189 111.512C63.0001 111.662 63.0755 111.817 63.145 111.978C63.1624 112.005 63.232 112.08 63.2784 112.128C63.3596 112.208 63.435 112.283 63.5046 112.368C63.609 112.502 63.7075 112.641 63.8003 112.786L64.2875 113.471C64.3396 113.54 64.386 113.61 64.4382 113.68L64.531 113.594C64.7398 113.787 64.8906 114.081 64.9311 114.375C65.0819 114.589 65.2385 114.803 65.3951 115.012L64.4324 115.611L64.4498 115.633ZM67.7263 113.797C67.6103 113.797 67.5059 113.771 67.4073 113.722C67.0594 113.546 66.5781 113.064 66.6477 112.577C66.6998 112.219 67.0014 112.026 67.2913 111.839C67.3957 111.774 67.5117 111.7 67.6277 111.609C67.7785 111.496 67.9756 111.453 68.1612 111.507C68.3468 111.56 68.4917 111.694 68.5497 111.865C68.5903 111.994 68.6425 112.112 68.6831 112.208C68.7991 112.486 68.9035 112.743 68.8339 113.048C68.7411 113.428 68.283 113.647 68.1438 113.701C67.993 113.765 67.8539 113.797 67.7205 113.797H67.7263ZM65.8938 110.356C65.8938 110.356 65.8416 110.356 65.8126 110.356C65.656 110.335 65.511 110.255 65.4241 110.137C65.4009 110.105 65.3603 110.067 65.3255 110.035C65.1573 109.859 64.9021 109.591 65.0065 109.233C65.0877 108.965 65.2849 108.788 65.4763 108.617C65.54 108.558 65.6154 108.494 65.685 108.424C65.8126 108.296 65.9982 108.232 66.1895 108.253C66.3809 108.275 66.5433 108.382 66.6303 108.542C66.6767 108.628 66.7346 108.708 66.781 108.783C66.9376 109.019 67.129 109.307 66.9608 109.639C66.8274 109.901 66.5897 110.046 66.3983 110.164C66.3519 110.196 66.2997 110.223 66.2533 110.255C66.1489 110.33 66.0214 110.372 65.8938 110.372V110.356ZM69.6226 108.89C69.4718 108.89 69.321 108.847 69.1818 108.735C68.9151 108.515 68.8107 108.216 68.7237 107.975C68.7005 107.905 68.6715 107.836 68.6425 107.766C68.5845 107.632 68.5845 107.483 68.6425 107.349C68.7063 107.215 68.8223 107.113 68.9673 107.06C69.0311 107.038 69.0948 107.006 69.1586 106.974C69.408 106.857 69.7443 106.701 70.1213 106.798C70.4982 106.894 70.6664 107.21 70.8114 107.488C70.8636 107.584 70.9157 107.686 70.9853 107.793C71.0781 107.932 71.0955 108.103 71.0317 108.253C70.9679 108.403 70.8404 108.526 70.6722 108.574C70.5388 108.617 70.4112 108.665 70.2952 108.713C70.0749 108.799 69.8429 108.89 69.6168 108.89H69.6226ZM64.2759 106.835C64.1889 106.835 64.0961 106.824 64.0033 106.787C63.7075 106.68 63.5858 106.439 63.493 106.263C63.4698 106.209 63.4408 106.155 63.406 106.097C63.319 105.952 63.3074 105.781 63.3712 105.631C63.4408 105.476 63.58 105.363 63.7481 105.321C63.8235 105.299 63.8989 105.278 63.9685 105.251C64.2063 105.171 64.5948 105.042 64.8906 105.342C65.0645 105.519 65.1341 105.733 65.1863 105.883C65.1979 105.92 65.2095 105.963 65.2269 106C65.2849 106.139 65.2733 106.3 65.2037 106.434C65.1283 106.568 64.9949 106.669 64.8384 106.707C64.8094 106.712 64.7746 106.728 64.7456 106.739C64.6296 106.782 64.4672 106.835 64.2875 106.835H64.2759ZM67.9582 105.412C67.7495 105.412 67.5755 105.347 67.4479 105.219C67.1986 104.962 66.9782 104.513 67.0536 104.084C67.1232 103.705 67.4827 103.571 67.8075 103.448C67.9118 103.41 68.0278 103.367 68.1496 103.314C68.3178 103.239 68.5149 103.239 68.6773 103.319C68.8397 103.4 68.9557 103.549 68.9789 103.715C68.9963 103.828 69.0195 103.929 69.0427 104.02C69.1064 104.288 69.1702 104.566 69.0427 104.855C68.8745 105.24 68.3178 105.363 68.1496 105.39C68.08 105.401 68.0104 105.406 67.9524 105.406L67.9582 105.412ZM109.74 93.874C109.259 93.874 108.766 93.7402 108.302 93.4726C108.169 93.3923 108.041 93.3067 107.919 93.1997C107.2 92.5736 106.974 91.6317 107.328 90.738C107.682 89.8336 108.557 89.2182 109.549 89.1701C109.914 89.154 110.216 89.1915 110.488 89.2878C111.428 89.6196 112.147 91.2464 111.944 92.1401C111.776 92.8733 111.294 93.4459 110.622 93.7134C110.343 93.8258 110.042 93.8793 109.734 93.8793L109.74 93.874ZM109.723 90.235C109.688 90.235 109.653 90.235 109.618 90.235C108.975 90.2671 108.575 90.7059 108.418 91.1019C108.221 91.5943 108.331 92.0866 108.714 92.4184C108.778 92.4719 108.847 92.5254 108.917 92.5629C109.346 92.809 109.804 92.8679 110.175 92.7234C110.5 92.595 110.732 92.306 110.819 91.9153C110.929 91.423 110.372 90.3848 110.082 90.2832C109.984 90.2511 109.868 90.2297 109.723 90.2297V90.235ZM93.4624 87.9714C93.3 87.9714 93.1434 87.9553 92.981 87.9125C92.2794 87.7359 91.8966 86.6763 91.827 86.4676C91.6589 85.9539 91.6763 85.6114 91.8966 85.3759C92.5229 84.707 93.6363 84.2361 94.5004 84.2789C95.0977 84.311 95.3992 84.8515 95.811 85.606C95.9734 85.9057 96.1589 86.2428 96.3735 86.5693C96.4721 86.7138 96.4837 86.8904 96.4141 87.0509C96.3445 87.2061 96.1995 87.3238 96.0197 87.3666C95.6544 87.4523 95.3181 87.5539 94.9991 87.6503C94.4424 87.8215 93.9437 87.9714 93.4624 87.9714ZM93.3348 86.8904C93.6305 86.9385 94.1003 86.794 94.6338 86.6335C94.7556 86.596 94.8831 86.5586 95.0107 86.5211C94.9237 86.3713 94.8425 86.2268 94.7729 86.0876C94.628 85.8254 94.4424 85.4829 94.3264 85.3491C93.8683 85.3652 93.2594 85.6274 92.8825 85.9699C92.9289 86.2375 93.1782 86.7405 93.3406 86.8904H93.3348ZM104.318 83.5564C104.185 83.5564 104.046 83.5297 103.918 83.4601C103.211 83.0694 102.225 82.1062 102.259 81.1964C102.283 80.6078 102.851 80.2064 103.576 79.6927C103.889 79.4679 104.249 79.2164 104.608 78.9167C104.753 78.7937 104.95 78.7508 105.142 78.7937C105.333 78.8365 105.484 78.9703 105.548 79.1415C105.704 79.5589 105.866 79.9228 106.011 80.2439C106.33 80.9556 106.586 81.5122 106.452 82.0848C106.301 82.7323 105.304 83.2621 104.933 83.4119C104.765 83.4815 104.544 83.5511 104.318 83.5511V83.5564ZM104.736 80.2118C104.573 80.3295 104.423 80.4365 104.278 80.5382C103.935 80.779 103.466 81.1108 103.414 81.25C103.408 81.5443 103.877 82.1329 104.388 82.4594C104.672 82.3684 105.234 82.0152 105.321 81.8333C105.368 81.6139 105.176 81.1857 104.933 80.6506C104.869 80.5115 104.805 80.3616 104.736 80.2064V80.2118ZM77.9384 81.8065C77.8572 81.8065 77.776 81.7905 77.6832 81.7583C77.3759 81.6353 77.1555 81.4319 76.9583 81.25C76.8945 81.1911 76.8308 81.1322 76.7612 81.0734C76.6336 80.9717 76.564 80.8218 76.5698 80.6667C76.5698 80.5115 76.651 80.3616 76.7786 80.2653L77.4686 79.7302C77.5904 79.6392 77.7354 79.5964 77.8978 79.6071C78.0543 79.6231 78.1935 79.6927 78.2921 79.8051L78.93 80.5382C79.0286 80.6506 79.075 80.7897 79.0576 80.9342C79.0402 81.0787 78.9648 81.2072 78.843 81.2928C78.7966 81.3302 78.7444 81.3784 78.6864 81.4266C78.4951 81.5978 78.2515 81.8119 77.9442 81.8119L77.9384 81.8065ZM88.4984 77.429C88.3476 77.429 88.1969 77.3969 88.0635 77.322C87.7271 77.1187 87.53 76.8243 87.2864 76.4497C87.182 76.2945 87.066 76.1179 86.9211 75.9146C86.8109 75.7648 86.7935 75.5721 86.8689 75.4062C86.9443 75.2403 87.1124 75.1172 87.3038 75.0905C87.5706 75.0477 87.8083 74.9941 88.0171 74.9406C88.5564 74.8122 89.0203 74.7052 89.3914 74.9888C89.9192 75.3955 89.925 76.2464 89.8554 76.6424C89.809 76.9046 89.5886 77.1133 89.1885 77.2792C88.9913 77.3595 88.742 77.4344 88.4984 77.4344V77.429ZM88.3302 75.9681C88.4288 76.1233 88.5158 76.2517 88.597 76.3374C88.6434 76.3266 88.6898 76.3052 88.7304 76.2892C88.7304 76.1394 88.713 75.9895 88.684 75.8932C88.5796 75.9092 88.4462 75.9413 88.3302 75.9681ZM92.7259 74.2503C92.4823 74.2503 92.2446 74.1754 92.0358 74.0309C91.6473 73.7633 91.4501 73.0944 91.6357 72.6823C91.7807 72.3666 92.0938 72.2275 92.3954 72.099C92.4997 72.0509 92.6215 72.0027 92.7433 71.9385C92.8999 71.8529 93.0912 71.8422 93.2594 71.9117C93.4276 71.9759 93.5494 72.1151 93.5957 72.2756C93.6305 72.4041 93.6711 72.5218 93.7059 72.6235C93.8045 72.8964 93.9031 73.1747 93.8045 73.4797C93.6885 73.8329 93.4218 74.0951 93.068 74.2021C92.9579 74.2342 92.8419 74.2556 92.7259 74.2556V74.2503ZM86.9907 72.2061C86.8921 72.2061 86.7877 72.1793 86.7007 72.1365C86.5615 72.0616 86.4629 71.9385 86.4281 71.794C86.4165 71.7458 86.3992 71.6923 86.3818 71.6442C86.3122 71.4462 86.231 71.2 86.2948 70.9271C86.3818 70.5792 86.7065 70.4561 86.9733 70.3545C87.0544 70.3224 87.1472 70.2902 87.24 70.2474C87.414 70.1672 87.617 70.1725 87.7851 70.2581C87.9533 70.3438 88.0635 70.5043 88.0809 70.6809C88.0925 70.7826 88.1041 70.8735 88.1215 70.9592C88.1621 71.2 88.2084 71.4515 88.0867 71.7137C87.9359 72.0562 87.5532 72.1204 87.3038 72.1632C87.2516 72.1739 87.2052 72.1793 87.1588 72.19C87.1066 72.2061 87.0486 72.2114 86.9907 72.2114V72.2061ZM90.7194 70.606C90.615 70.606 90.5165 70.5792 90.4237 70.5311C90.2845 70.4561 90.1859 70.3331 90.1511 70.1886C90.1395 70.1511 90.1279 70.1136 90.1105 70.0708C90.0467 69.8942 89.9598 69.6534 90.0467 69.3805C90.1221 69.1397 90.2903 68.9845 90.4643 68.8132C90.5339 68.749 90.6092 68.6741 90.6962 68.5831C90.8412 68.4279 91.0674 68.3637 91.2761 68.4119C91.4907 68.4601 91.6531 68.6152 91.6995 68.8186C91.7517 69.0434 91.8039 69.2146 91.8444 69.3537C91.943 69.6855 92.0416 70.028 91.7227 70.2849C91.5023 70.4615 91.2413 70.5097 91.0268 70.5525C90.9746 70.5632 90.9224 70.5739 90.8702 70.5846C90.818 70.6006 90.7658 70.606 90.7078 70.606H90.7194Z" fill="currentColor"/>
<path d="M88.3875 96.0206L88.3237 95.5229C88.0221 95.4373 87.7148 95.357 87.4132 95.2714L86.5666 95.0359C86.4158 94.9931 86.2592 94.945 86.1085 94.9075C86.0505 94.8915 85.9809 94.8861 85.9171 94.8808C85.7431 94.8594 85.5286 94.8379 85.314 94.7363C84.7167 94.4526 84.0846 94.2493 83.4119 94.0299C82.4261 93.7141 81.3997 93.3824 80.4892 92.7776C79.5034 92.5689 78.6799 92.1034 77.8796 91.6538C77.3867 91.3756 76.9228 91.1133 76.4299 90.91C76.3835 90.8939 76.3371 90.8725 76.2907 90.8565C76.1457 90.803 75.9776 90.7441 75.8094 90.6371C74.493 89.7969 73.1766 88.9514 71.8718 88.0951C71.2803 87.7045 70.8512 87.3781 70.4801 87.0356C70.1553 86.7359 69.8538 86.4094 69.5638 86.0991C69.3899 85.9118 69.2159 85.7245 69.0361 85.5425C68.8042 85.3071 68.5548 85.0769 68.288 84.8522C68.0677 84.6702 67.8473 84.4936 67.6212 84.317C67.3312 84.0869 67.0355 83.8515 66.7513 83.6107C66.5831 83.4662 66.4266 83.3056 66.27 83.1397C66.1656 83.0327 66.067 82.9257 65.9568 82.824C65.5335 82.4333 65.1566 82.3103 64.5187 82.3584L64.1939 82.3798C63.3241 82.4387 62.5064 82.4922 61.7235 82.7972C61.2828 82.9738 60.8073 83.022 60.3434 83.0648C60.1462 83.0862 59.9432 83.1076 59.7345 83.1344C59.5663 83.1611 59.3981 83.1183 59.2706 83.0166C59.143 82.9203 59.0676 82.7705 59.0618 82.6153V82.1658C59.0502 81.8821 59.0444 81.6306 59.027 81.3845L59.0154 81.1811C58.998 80.9242 58.9864 80.6834 58.911 80.5068C58.4587 79.4151 58.4529 78.3127 58.5051 77.3816C58.5225 77.0926 58.5051 76.7983 58.4993 76.4879C58.4935 76.2685 58.4819 76.0491 58.4819 75.8297V75.514C58.4819 75.1126 58.4703 74.7005 58.5457 74.2778C58.6964 73.4376 58.5979 72.6616 58.2499 71.9071L58.2209 71.8536C58.1745 71.7572 58.1049 71.6235 58.0875 71.4576C58.0006 70.703 57.6642 70.0127 57.3163 69.2795C57.0785 68.7819 56.8292 68.2681 56.661 67.7223C56.4406 67.0266 56.2551 66.3149 56.0695 65.6245C55.8549 64.8165 55.6346 63.9816 55.3678 63.1843C55.2982 62.9756 55.3156 62.7829 55.3272 62.6384C55.3272 62.6063 55.333 62.5742 55.333 62.5421C55.333 62.3923 55.3968 62.2531 55.5186 62.1461C55.536 62.13 55.5534 62.114 55.565 62.0979C55.6404 62.0177 55.8259 61.8357 56.1275 61.8357C57.0147 61.8571 57.8672 61.6324 58.7718 61.4022C59.5431 61.2042 60.3434 60.9955 61.19 60.9367C61.6134 60.9099 61.6598 60.9046 61.6887 60.4176C61.7351 59.6256 62.0367 58.9459 62.6804 58.2074C62.8602 57.9987 63.0109 57.683 63.0979 57.3138C63.2603 56.6395 63.5038 55.9491 64.2113 55.4568C64.5593 55.2106 64.7216 54.9645 64.768 54.5952C64.8666 53.8086 65.3943 53.2734 65.8988 52.8614C66.1772 52.6313 66.5193 52.3262 66.6295 52.0319C66.9311 51.2399 67.3602 50.6459 67.9807 50.1589C68.1431 50.0305 68.317 49.8967 68.3576 49.8111C68.9491 48.5588 69.9466 47.6491 70.9092 46.7714C71.234 46.4771 71.5587 46.1828 71.8602 45.8724C72.1966 45.5299 72.7069 45.2516 73.252 45.0965C73.6174 44.9948 73.7855 44.877 73.9015 44.6309C74.0465 44.3312 74.261 43.9459 74.6032 43.6676C75.6412 42.8221 76.4589 42.196 77.2649 41.6341C77.6245 41.3826 78.013 41.1096 78.4769 40.9491C78.5755 40.7886 78.7205 40.628 78.9351 40.5477C79.2482 40.4354 79.544 40.4942 79.8629 40.5638C79.9789 40.5852 80.1123 40.6173 80.2688 40.6387C80.4602 40.6655 80.6284 40.7832 80.7096 40.9491C80.7908 41.115 80.7792 41.3076 80.669 41.4575C80.5878 41.5806 80.5182 41.6929 80.4602 41.8C80.292 42.0943 80.1181 42.394 79.7353 42.4796C79.3004 42.5759 78.8307 42.3351 78.5639 42.105C78.3842 42.2067 78.2044 42.3298 78.0188 42.4636L77.9724 42.4957C77.1896 43.0415 76.3893 43.6569 75.3803 44.481C75.2005 44.6255 75.0613 44.8931 74.9685 45.0804C74.6322 45.7654 74.0581 46.0062 73.5942 46.1346C73.252 46.231 72.9157 46.4129 72.7185 46.6056C72.3996 46.9266 72.0632 47.2317 71.7269 47.5421C70.799 48.3876 69.9292 49.1849 69.4247 50.2499C69.2739 50.5656 68.9955 50.785 68.7694 50.9563C68.2764 51.3416 67.9517 51.7911 67.7197 52.3958C67.5226 52.9149 67.076 53.3269 66.6701 53.6641C66.1772 54.0708 65.9626 54.3758 65.9162 54.729C65.8351 55.3819 65.5045 55.901 64.9072 56.3184C64.5245 56.586 64.3621 56.9873 64.2287 57.5546C64.1417 57.9292 63.9562 58.4643 63.585 58.8924C63.0979 59.449 62.8775 59.9253 62.8486 60.4872C62.7906 61.4772 62.3092 61.9534 61.277 62.0177C60.5463 62.0658 59.8389 62.2478 59.0908 62.4458C58.2615 62.6598 57.4091 62.8792 56.4986 62.9167C56.7712 63.7301 56.9915 64.5703 57.2061 65.3784C57.3859 66.058 57.5714 66.759 57.7802 67.4333C57.9252 67.9042 58.1513 68.3644 58.3833 68.8514C58.7544 69.6274 59.143 70.4301 59.2474 71.3505C59.2474 71.3505 59.2706 71.3826 59.2822 71.4094L59.3227 71.495C59.7635 72.4422 59.8852 73.4108 59.6997 74.4597C59.6417 74.7862 59.6475 75.1394 59.6475 75.514V75.8457C59.6475 76.0491 59.6591 76.2578 59.6649 76.4612C59.6765 76.7822 59.6881 77.114 59.6707 77.4512C59.6185 78.3127 59.6243 79.2385 60.0012 80.1429C60.1404 80.4801 60.1636 80.8279 60.181 81.1383L60.1926 81.3202C60.21 81.545 60.2158 81.7644 60.2216 82.0106C60.2216 82.0106 60.2274 82.0106 60.2332 82.0106C60.6449 81.9678 60.9987 81.9303 61.2828 81.8233C62.2455 81.4433 63.2023 81.3791 64.1243 81.3202L64.4433 81.2988C65.4233 81.2293 66.125 81.4647 66.7919 82.0801C66.9195 82.1979 67.0355 82.321 67.1572 82.4494C67.2848 82.5832 67.4124 82.717 67.5516 82.8401C67.8241 83.0755 68.1083 83.2949 68.3866 83.5197C68.6186 83.7016 68.8448 83.8836 69.0709 84.0709C69.3667 84.317 69.6508 84.5739 69.906 84.8361C70.0915 85.0288 70.2713 85.2214 70.4569 85.4194C70.741 85.7298 71.0136 86.0241 71.3093 86.2971C71.6341 86.5967 72.0168 86.8911 72.5561 87.2443C73.8551 88.1005 75.1657 88.9407 76.4763 89.7808C76.5285 89.813 76.6155 89.8451 76.714 89.8772C76.7778 89.8986 76.8416 89.92 76.8996 89.9467C77.4679 90.1769 77.9898 90.4712 78.4943 90.7548C79.2714 91.1936 80.0021 91.6057 80.8429 91.7662C81.0111 91.7983 81.1213 91.884 81.1619 91.9161C81.939 92.4352 82.8436 92.7241 83.7947 93.0345C83.8005 93.0345 83.812 93.0399 83.8178 93.0452C83.841 93.0078 83.87 92.9756 83.899 92.9382C83.9396 92.89 83.986 92.8312 84.0324 92.7562C84.1426 92.5903 84.3456 92.4994 84.5543 92.5101C84.7631 92.5208 84.9545 92.6385 85.0414 92.8097C85.082 92.89 85.1226 92.9542 85.1574 93.0078C85.2502 93.1629 85.3662 93.3449 85.3488 93.5804C85.517 93.6499 85.6851 93.7195 85.8475 93.7998C85.8765 93.8105 85.9867 93.8265 86.0563 93.8319C86.1723 93.8426 86.2882 93.8586 86.3984 93.8854C86.5724 93.9282 86.7522 93.9764 86.9261 94.0299L87.7496 94.26C87.8424 94.2867 87.9352 94.3135 88.0279 94.3349L88.0395 94.2118C88.3353 94.2332 88.6484 94.3724 88.8862 94.5704C89.153 94.6453 89.4197 94.7149 89.6865 94.7844L89.3675 95.8119C89.2225 95.7744 89.0718 95.7316 88.9268 95.6942C88.805 95.8547 88.631 95.9992 88.3933 96.026L88.3875 96.0206ZM90.0286 92.6117C89.6401 92.6117 89.153 92.4887 88.9268 92.1622C88.718 91.8572 88.8166 91.5308 88.9036 91.215C88.9326 91.1026 88.9732 90.9796 89.0022 90.8404C89.037 90.6638 89.1646 90.514 89.3443 90.4444C89.5241 90.3749 89.7271 90.3909 89.8894 90.4872C90.0112 90.5622 90.1272 90.621 90.2316 90.6745C90.5099 90.819 90.7767 90.9528 90.9333 91.2311C91.1246 91.5789 90.9333 92.0124 90.8637 92.1408C90.7303 92.3977 90.5447 92.5529 90.307 92.5957C90.2258 92.6118 90.133 92.6171 90.0344 92.6171L90.0286 92.6117ZM86.4274 91.0331C86.381 91.0331 86.3288 91.0277 86.2824 91.017C86.236 91.0063 86.1896 91.001 86.1375 90.9956C85.8881 90.9635 85.5054 90.91 85.3372 90.5729C85.2096 90.316 85.2386 90.0645 85.2676 89.8183C85.2792 89.738 85.2908 89.6417 85.2908 89.5454C85.2966 89.3688 85.401 89.2082 85.5576 89.1173C85.7199 89.0209 85.9171 89.0102 86.0911 89.0745C86.1897 89.1119 86.2882 89.144 86.3752 89.1708C86.6594 89.2564 87.0073 89.3634 87.1059 89.722C87.1813 90.0003 87.1059 90.2518 87.0363 90.4551C87.0189 90.5086 87.0015 90.5568 86.9899 90.6103C86.9551 90.7548 86.8623 90.8779 86.729 90.9582C86.6362 91.0117 86.5318 91.0384 86.4216 91.0384L86.4274 91.0331ZM82.6232 89.3367C82.4203 89.3367 82.2463 89.2618 82.1071 89.1975C82.0491 89.1761 81.9912 89.144 81.9216 89.1226C81.7534 89.0638 81.6258 88.9407 81.5678 88.7855C81.5098 88.6303 81.5388 88.459 81.6374 88.3199C81.6838 88.261 81.7186 88.1968 81.7592 88.138C81.8868 87.94 82.0955 87.6135 82.5247 87.6617C82.7798 87.6938 82.977 87.8115 83.1278 87.9025C83.1684 87.9239 83.2032 87.9453 83.2437 87.9667C83.3887 88.0416 83.4873 88.1701 83.5279 88.3146C83.5627 88.4644 83.5279 88.6196 83.4351 88.7427C83.4177 88.7641 83.4003 88.7962 83.3829 88.8229C83.2901 88.9728 83.151 89.2029 82.8552 89.2939C82.774 89.3206 82.6928 89.3313 82.6174 89.3313L82.6232 89.3367ZM88.2135 87.7152H88.1903C87.8308 87.7045 87.5408 87.5386 87.3031 87.4048C87.2335 87.3674 87.1639 87.3245 87.0943 87.2924C86.9551 87.2282 86.8507 87.1105 86.8043 86.9714C86.758 86.8322 86.7754 86.6824 86.8507 86.5593C86.8855 86.5058 86.9087 86.4416 86.9377 86.3773C87.0479 86.1419 87.1987 85.8154 87.5466 85.671C87.9062 85.5211 88.2483 85.6656 88.5557 85.7887C88.66 85.8315 88.776 85.8797 88.9036 85.9171C89.0718 85.9706 89.1993 86.0884 89.2631 86.2382C89.3269 86.388 89.3037 86.5593 89.2167 86.6984C89.1472 86.8108 89.0834 86.9232 89.0254 87.0302C88.8514 87.3513 88.6484 87.7098 88.2077 87.7098L88.2135 87.7152ZM84.4905 86.0563C84.4615 86.0563 84.4325 86.0563 84.4036 86.0509C84.0382 86.0027 83.5569 85.7887 83.3133 85.4194C83.0988 85.0876 83.2843 84.7719 83.4467 84.4883C83.4989 84.3973 83.5569 84.2956 83.6149 84.1833C83.6903 84.0281 83.841 83.9103 84.0208 83.8729C84.2006 83.8354 84.392 83.8836 84.5311 83.996C84.6239 84.0709 84.7109 84.1351 84.7921 84.194C85.0298 84.3652 85.2734 84.5365 85.3778 84.8308C85.517 85.2321 85.1748 85.6495 85.0646 85.7726C84.8907 85.9653 84.6993 86.0616 84.4905 86.0616V86.0563ZM75.3919 62.0658C75.2527 62.0658 75.1193 62.0551 74.9917 62.0444C74.8989 62.0391 74.812 62.0284 74.7134 62.0284C74.5452 62.0284 74.3886 61.9534 74.2784 61.8304C74.1741 61.7073 74.1277 61.5521 74.1567 61.3969L74.3132 60.5781C74.3422 60.439 74.4292 60.3106 74.5568 60.2303C74.6844 60.15 74.8409 60.1179 74.9975 60.1447L75.995 60.3266C76.1457 60.3534 76.2791 60.439 76.3661 60.5567C76.4531 60.6744 76.4821 60.8189 76.4531 60.9581C76.4415 61.0116 76.4357 61.0812 76.4241 61.1507C76.3893 61.4558 76.3371 61.8785 75.8906 62.0016C75.7224 62.0498 75.5484 62.0658 75.3861 62.0658H75.3919ZM91.5016 57.7205C90.8869 57.7205 90.1794 57.3191 90.017 57.2228C89.5299 56.9338 89.3037 56.6555 89.3095 56.3451C89.3211 55.4622 89.8488 54.4347 90.5389 53.9638C91.0202 53.632 91.6291 53.8728 92.4642 54.1992C92.7947 54.333 93.1775 54.4775 93.566 54.6006C93.74 54.6541 93.8792 54.7825 93.9314 54.9431C93.9835 55.1036 93.9545 55.2802 93.8502 55.4194C93.6298 55.703 93.4442 55.9813 93.2645 56.2435C92.8527 56.8589 92.4932 57.3887 91.9075 57.6402C91.7799 57.6937 91.6407 57.7151 91.5016 57.7151V57.7205ZM90.4751 56.2167C90.6955 56.3933 91.2406 56.6341 91.4668 56.6502C91.7277 56.5057 91.9829 56.1257 92.2844 55.6816C92.354 55.5799 92.4236 55.4782 92.499 55.3712C92.3308 55.307 92.1684 55.2428 92.0119 55.1839C91.7219 55.0715 91.3334 54.9163 91.1536 54.8842C90.8173 55.1678 90.5331 55.7297 90.4809 56.2167H90.4751ZM107.176 52.84C107.13 52.84 107.078 52.84 107.026 52.84C106.04 52.7865 105.21 52.2031 104.857 51.3041C104.503 50.3997 104.741 49.4097 105.466 48.7836C105.727 48.5588 105.988 48.4036 106.272 48.3127C107.223 48.0076 108.904 48.8264 109.374 49.6345C109.757 50.2927 109.786 51.0205 109.455 51.6252C109.102 52.2727 108.394 52.7062 107.513 52.8239C107.402 52.84 107.287 52.8453 107.176 52.8453V52.84ZM106.753 49.308C106.712 49.308 106.683 49.308 106.654 49.3187C106.533 49.3562 106.405 49.4365 106.266 49.5542C105.796 49.9609 105.796 50.5335 105.953 50.9295C106.15 51.4218 106.573 51.7322 107.095 51.759C107.182 51.759 107.269 51.759 107.35 51.7483C107.849 51.6841 108.243 51.4539 108.423 51.1275C108.586 50.8332 108.562 50.48 108.354 50.1268C108.122 49.7254 107.142 49.3027 106.747 49.3027L106.753 49.308ZM80.5762 52.46C80.2456 52.46 79.9383 52.3583 79.5556 52.2406C79.37 52.1817 79.1554 52.1122 78.9061 52.048C78.7147 51.9998 78.5697 51.8607 78.5117 51.6894C78.4537 51.5182 78.4943 51.3255 78.6219 51.1864C78.7959 50.9991 78.9409 50.8118 79.0684 50.6512C79.3932 50.2338 79.6773 49.8753 80.1529 49.8699C80.8371 49.8699 81.4344 50.5174 81.6548 50.8599C81.7998 51.09 81.7824 51.379 81.5852 51.7429C81.4286 52.0372 81.1561 52.4011 80.756 52.444C80.6922 52.4493 80.6342 52.4547 80.5704 52.4547L80.5762 52.46ZM80.0253 51.2559C80.2109 51.3148 80.3674 51.363 80.4834 51.379C80.5066 51.3416 80.5356 51.3041 80.553 51.2613C80.4486 51.1436 80.3326 51.0419 80.2398 50.983C80.1761 51.0579 80.0891 51.165 80.0195 51.2506L80.0253 51.2559ZM76.0066 49.292C75.879 49.292 75.7572 49.2545 75.6586 49.1849C75.6122 49.1528 75.5658 49.1261 75.5194 49.0993C75.3281 48.9869 75.0961 48.8532 74.9569 48.6016C74.783 48.2859 74.9453 47.9969 75.0787 47.7615C75.1193 47.6919 75.1657 47.6116 75.2063 47.5206C75.2817 47.3601 75.4382 47.237 75.6296 47.2049C75.821 47.1675 76.0124 47.2263 76.1515 47.3494C76.2327 47.419 76.3081 47.4832 76.3777 47.5367C76.5807 47.6972 76.7894 47.8631 76.8764 48.1361C76.9982 48.4893 76.7546 48.7622 76.5923 48.9441C76.5575 48.9816 76.5227 49.019 76.4995 49.0512C76.4125 49.1742 76.2733 49.2599 76.1109 49.2866C76.0761 49.2866 76.0413 49.292 76.0124 49.292H76.0066ZM96.6395 47.7775C95.8392 47.7775 94.8244 47.5635 94.3373 46.9909C93.9429 46.5253 94.0995 45.8778 94.2967 45.059C94.3837 44.7004 94.4823 44.2937 94.546 43.8549C94.575 43.6783 94.6968 43.5231 94.8708 43.4429C95.0506 43.3679 95.2535 43.3733 95.4217 43.4696C95.8334 43.6997 96.2104 43.8763 96.5467 44.0369C97.289 44.3901 97.8747 44.6683 98.1704 45.1821C98.5068 45.7654 98.1125 46.7661 97.9269 47.1032C97.7935 47.3494 97.5731 47.6758 97.1846 47.7347C97.0222 47.7561 96.8367 47.7722 96.6395 47.7722V47.7775ZM95.5493 44.77C95.5087 44.952 95.4681 45.1286 95.4275 45.2945C95.3347 45.6851 95.2071 46.2149 95.2593 46.354C95.4565 46.5841 96.2278 46.7554 96.8483 46.7072C96.999 46.4664 97.1846 45.8617 97.1324 45.6744C97.0164 45.4764 96.5757 45.2677 96.0132 45.0001C95.8682 44.9306 95.7117 44.8556 95.5493 44.7754V44.77ZM81.4692 47.5742C80.9879 47.5742 80.408 47.1942 80.2688 46.7768C80.1587 46.4504 80.3036 46.156 80.4428 45.8778C80.4892 45.7814 80.5472 45.6691 80.5936 45.546C80.6574 45.3854 80.7966 45.2677 80.9705 45.2142C81.1445 45.166 81.3359 45.1981 81.4808 45.2945C81.5968 45.3747 81.707 45.4389 81.8056 45.4925C82.0665 45.6423 82.3391 45.7975 82.4783 46.0918C82.6348 46.429 82.6116 46.7875 82.4203 47.0818C82.2289 47.3708 81.8984 47.5474 81.5098 47.5688C81.4924 47.5688 81.4808 47.5688 81.4634 47.5688L81.4692 47.5742ZM77.7521 45.851C77.6245 45.851 77.5027 45.8135 77.4041 45.744C77.3693 45.7226 77.3287 45.7012 77.2939 45.6798C77.12 45.5834 76.888 45.4496 76.7662 45.1928C76.6618 44.9627 76.6734 44.7433 76.6908 44.5078C76.6966 44.4168 76.7082 44.3151 76.7082 44.1921C76.7082 43.9887 76.8358 43.8068 77.033 43.7158C77.2301 43.6248 77.4679 43.6516 77.6419 43.7747C77.839 43.9138 78.0014 44.0208 78.1232 44.1011C78.4305 44.2991 78.7437 44.4971 78.6741 44.8824C78.6277 45.15 78.4595 45.3426 78.3262 45.5032C78.2914 45.5406 78.2566 45.5834 78.2276 45.6209C78.1406 45.744 78.0014 45.8242 77.839 45.851C77.8101 45.851 77.7753 45.8564 77.7463 45.8564L77.7521 45.851Z" fill="currentColor"/>
<path d="M62.6896 73.8981C62.5214 73.8981 62.3649 73.8339 62.2547 73.7162L61.9357 73.379C61.7328 73.1596 61.5588 72.9723 61.3674 72.7957L61.2167 72.6459C61.0253 72.4586 60.8513 72.2873 60.6657 72.191C59.5581 71.6237 58.7869 70.7836 58.178 70.0344C57.9866 69.8043 57.772 69.5849 57.5459 69.3547C57.3893 69.1942 57.2269 69.0283 57.0761 68.8624L56.8558 68.6216C56.5716 68.3166 56.2817 68.0008 56.0497 67.6369C55.58 66.9038 54.9653 66.3686 54.1708 65.9994L54.1128 65.9726C54.0085 65.9245 53.8635 65.8656 53.7301 65.7479C53.1386 65.2234 52.4021 64.8917 51.6251 64.5385C51.0973 64.2976 50.5464 64.0515 50.0361 63.7357C49.3866 63.3344 48.7487 62.9009 48.1282 62.4835C47.4034 61.9912 46.6495 61.4828 45.884 61.0279C45.6868 60.9102 45.5651 60.7497 45.4723 60.6319C45.4491 60.6052 45.4317 60.5784 45.4143 60.557C45.3099 60.4446 45.2635 60.2948 45.2809 60.1503C45.2809 60.1289 45.2809 60.1075 45.2809 60.0861C45.2809 59.9683 45.2925 59.7275 45.5245 59.5509C46.2204 59.0372 46.7191 58.3629 47.2468 57.6512C47.6991 57.0411 48.1688 56.4043 48.7777 55.8585C49.0851 55.5855 49.1141 55.5588 48.7951 55.1681C48.279 54.5367 48.0355 53.8303 48.0181 52.8884C48.0181 52.6208 47.9021 52.2944 47.7165 51.9573C47.3686 51.3472 47.0786 50.6729 47.2758 49.8756C47.3744 49.4796 47.3222 49.1906 47.1076 48.8855C46.6379 48.222 46.6669 47.4995 46.7655 46.8841C46.8177 46.5363 46.8641 46.1028 46.7481 45.8192C46.4291 45.0325 46.3421 44.3261 46.4813 43.5823C46.5161 43.3896 46.5567 43.1809 46.5277 43.09C46.1102 41.7789 46.2378 40.4945 46.3653 39.2476C46.4059 38.8302 46.4465 38.4128 46.4697 37.9954C46.4929 37.5352 46.6843 37.0161 46.9974 36.5773C47.2062 36.2829 47.2526 36.0956 47.1714 35.8334C47.0786 35.5444 46.9684 35.1056 47.038 34.6775C47.241 33.436 47.4382 32.4406 47.6585 31.5416L47.6701 31.4881C47.7629 31.1135 47.8673 30.6907 48.105 30.2947C48.0703 30.1128 48.0703 29.904 48.1746 29.7221C48.337 29.4492 48.6096 29.3207 48.8937 29.1816C48.9981 29.1281 49.1199 29.0746 49.2533 28.9997C49.4214 28.9087 49.6302 28.898 49.8042 28.9729C49.9781 29.0532 50.0999 29.2084 50.1289 29.385C50.1521 29.5294 50.1811 29.6579 50.2043 29.7703C50.2797 30.0913 50.3551 30.4285 50.1231 30.7175C49.8506 31.0493 49.3344 31.1349 48.9633 31.1295C48.8937 31.3115 48.8473 31.5148 48.7951 31.7235L48.7835 31.777C48.569 32.6493 48.3776 33.6179 48.1804 34.8327C48.1456 35.0521 48.221 35.3357 48.279 35.5337C48.4994 36.2615 48.2268 36.7806 47.9601 37.1552C47.7629 37.4335 47.6353 37.7706 47.6237 38.0382C47.6005 38.4717 47.5599 38.9051 47.5135 39.344C47.3918 40.5427 47.2816 41.6718 47.6353 42.7849C47.7397 43.1167 47.6759 43.4485 47.6295 43.7161C47.5193 44.3047 47.5889 44.8399 47.8325 45.4392C48.0413 45.953 47.9891 46.5309 47.9137 47.034C47.8209 47.6387 47.8673 48.0026 48.0761 48.2969C48.4646 48.8427 48.5748 49.4367 48.4066 50.1164C48.3022 50.5498 48.4588 50.9512 48.7487 51.4649C48.9401 51.8021 49.1721 52.3212 49.1837 52.8724C49.2011 53.5894 49.3634 54.0818 49.7288 54.5313C50.3783 55.3233 50.3377 55.9762 49.5954 56.6398C49.0677 57.1107 48.656 57.6726 48.2152 58.2666C47.7339 58.9195 47.2294 59.5991 46.5567 60.1664C47.3338 60.6319 48.0876 61.1403 48.8183 61.638C49.4272 62.0501 50.0535 62.4782 50.6856 62.8688C51.1321 63.1417 51.6193 63.3665 52.1354 63.5966C52.9588 63.9712 53.8171 64.3565 54.5362 64.9933C54.542 64.9933 54.5768 65.004 54.6058 65.0201L54.6927 65.0576C55.6902 65.5231 56.4614 66.1921 57.0471 67.1071C57.2327 67.3908 57.4763 67.6583 57.7372 67.942L57.9692 68.1935C58.1142 68.3487 58.2591 68.5039 58.4099 68.6537C58.6419 68.8945 58.8854 69.1407 59.1058 69.4083C59.6683 70.0986 60.3178 70.805 61.234 71.2759C61.5704 71.4525 61.8371 71.704 62.0633 71.9341L62.2025 72.0679C62.3707 72.2285 62.533 72.3944 62.707 72.5817H62.7128C62.997 72.298 63.2463 72.0626 63.3855 71.8057C63.8552 70.9441 64.5453 70.3287 65.2122 69.7347L65.4441 69.526C66.1458 68.8892 66.8475 68.6537 67.787 68.7286C67.9667 68.7447 68.1465 68.7661 68.3263 68.7928C68.5176 68.8196 68.709 68.8464 68.9004 68.8571C69.2657 68.8731 69.6368 68.8785 70.008 68.8785C70.3153 68.8785 70.6169 68.8838 70.9242 68.8945C71.3244 68.9052 71.7187 68.9373 72.0956 68.9855C72.3682 69.023 72.6465 69.0604 72.9191 69.1032C73.354 69.1728 73.7658 69.237 74.1833 69.2691C74.6356 69.3066 75.1459 69.3012 75.7954 69.2531C77.3264 69.146 78.8631 69.0123 80.5622 68.8678C80.626 68.8678 80.713 68.8357 80.8116 68.8035C80.8754 68.7821 80.9392 68.7661 80.9971 68.7447C81.5944 68.5841 82.1975 68.4985 82.7832 68.4182C83.6821 68.2952 84.5288 68.1774 85.2884 67.8028C85.4392 67.7279 85.5842 67.7279 85.648 67.7279C86.599 67.6637 87.4921 67.3533 88.4373 67.0215C88.4431 67.0215 88.4547 67.0162 88.4605 67.0108C88.4605 66.968 88.4489 66.9252 88.4489 66.8824C88.4489 66.8182 88.4373 66.7486 88.4257 66.663C88.3967 66.4703 88.4837 66.2777 88.6519 66.1653C88.82 66.0476 89.0462 66.0262 89.2376 66.1064C89.3245 66.1439 89.3999 66.1706 89.4637 66.1921C89.6435 66.2509 89.8581 66.3258 90.003 66.5185C90.177 66.4703 90.3568 66.4275 90.5365 66.3901C90.5713 66.3794 90.6583 66.3258 90.7163 66.2937C90.8149 66.2349 90.9077 66.176 91.0121 66.1332C91.1744 66.0583 91.3426 65.9994 91.5108 65.9352L92.3632 65.598C92.4328 65.5713 92.5024 65.5445 92.572 65.5124L92.4966 65.4107C92.7402 65.2556 93.0765 65.1699 93.3955 65.1806C93.6506 65.079 93.9058 64.9773 94.1551 64.8702L94.6249 65.8496C94.4857 65.9084 94.3407 65.9619 94.2015 66.0208C94.2189 66.2135 94.1899 66.4329 94.0218 66.5934L93.6274 66.2509C93.3549 66.3579 93.0823 66.4703 92.8098 66.5774L91.9399 66.9198C91.7949 66.9734 91.65 67.0322 91.505 67.0964C91.447 67.1232 91.3948 67.1553 91.3426 67.1874C91.1976 67.2784 91.0121 67.3854 90.7801 67.4336C90.1248 67.5674 89.4985 67.7921 88.8316 68.0222C87.8516 68.3647 86.8426 68.7179 85.7176 68.7982C84.8129 69.221 83.8561 69.3547 82.9398 69.4832C82.3657 69.5634 81.8264 69.6384 81.3103 69.7775C81.2639 69.7882 81.2175 69.8043 81.1711 69.8203C81.0203 69.8685 80.8522 69.922 80.6492 69.938C78.9443 70.0825 77.4017 70.2163 75.8592 70.3234C75.1459 70.3715 74.5718 70.3769 74.0557 70.3341C73.5918 70.2966 73.1395 70.227 72.6987 70.1575C72.4378 70.1146 72.171 70.0772 71.9101 70.0397C71.5679 69.9969 71.2142 69.9702 70.8546 69.9541C70.5589 69.9434 70.2631 69.9434 69.9616 69.938C69.5789 69.938 69.1961 69.9327 68.8134 69.9113C68.5814 69.9006 68.3495 69.8685 68.1175 69.8364C67.9667 69.815 67.8101 69.7936 67.6536 69.7775C67.0505 69.7293 66.6851 69.8578 66.227 70.2752L65.9893 70.4892C65.363 71.0458 64.7715 71.5756 64.3945 72.2713C64.18 72.6673 63.8494 72.9884 63.5247 73.2987C63.3855 73.4325 63.2463 73.5663 63.1071 73.7162C62.997 73.8339 62.8404 73.9035 62.6722 73.9035L62.6896 73.8981ZM84.088 65.1699C83.9778 65.1699 83.8735 65.1432 83.7807 65.0897C83.6299 65.004 83.5313 64.8542 83.5139 64.6937C83.5081 64.6187 83.4907 64.5492 83.4791 64.4849C83.4385 64.2548 83.3631 63.8749 83.7343 63.6608C83.9546 63.5324 84.1808 63.5056 84.3664 63.4842C84.4128 63.4842 84.4534 63.4735 84.4998 63.4682C84.6621 63.4361 84.8303 63.4789 84.9579 63.5699C85.0855 63.6608 85.1724 63.8 85.184 63.9498C85.184 63.9766 85.1956 64.0087 85.2014 64.0408C85.2362 64.212 85.2884 64.4689 85.1261 64.7151C84.9637 64.9666 84.6853 65.0361 84.4824 65.0843C84.4244 65.1004 84.3548 65.1164 84.291 65.1378C84.2272 65.1592 84.1634 65.1699 84.0938 65.1699H84.088ZM88.1937 64.2816C88.101 64.2816 88.0024 64.2655 87.9038 64.2227C87.6312 64.105 87.4747 63.8963 87.3297 63.6929C87.2775 63.6234 87.2253 63.5484 87.1557 63.4682C87.0397 63.329 87.0049 63.1471 87.0629 62.9812C87.1209 62.8153 87.2659 62.6815 87.4457 62.6334C87.55 62.6066 87.6428 62.5691 87.7298 62.537C88.0082 62.4354 88.3503 62.3069 88.6751 62.521C88.9302 62.6869 89.0462 62.9277 89.1332 63.1203C89.1564 63.1685 89.1796 63.222 89.2086 63.2648C89.284 63.3933 89.3014 63.5484 89.2492 63.6876C89.197 63.8267 89.0926 63.9391 88.9476 64.0033C88.907 64.0194 88.8606 64.0461 88.82 64.0729C88.6635 64.1639 88.4431 64.2869 88.1995 64.2869L88.1937 64.2816ZM92.0211 63.3451C91.9341 63.3451 91.8471 63.3344 91.7659 63.3076C91.3948 63.2006 91.2382 62.8902 91.0875 62.5959C91.0353 62.4942 90.9773 62.3711 90.9019 62.2534C90.8033 62.0982 90.8033 61.9109 90.8903 61.7504C90.9773 61.5898 91.1454 61.4828 91.3368 61.4614C91.4818 61.4453 91.6094 61.4186 91.7253 61.4025C92.0385 61.3437 92.34 61.2955 92.6474 61.4132C93.0359 61.5631 93.1867 62.0179 93.2273 62.1517C93.3027 62.43 93.2679 62.6601 93.1229 62.8314C92.9141 63.0722 92.4618 63.3558 92.0269 63.3558L92.0211 63.3451ZM83.1892 61.531C83.05 61.531 82.905 61.5096 82.7716 61.4667C82.3773 61.3383 82.2961 60.9851 82.2265 60.6747C82.2033 60.5731 82.1801 60.4607 82.1396 60.3429C82.0874 60.1771 82.1222 60.0005 82.2381 59.8667C82.3541 59.7329 82.5281 59.6473 82.7137 59.658C82.8354 59.658 82.9456 59.658 83.05 59.658C83.3515 59.6473 83.6589 59.6366 83.9431 59.8025C84.3258 60.0219 84.3548 60.5463 84.3548 60.7015C84.3548 60.9905 84.2504 61.1938 84.0416 61.3169C83.8213 61.4453 83.5081 61.5417 83.1892 61.5417V61.531ZM86.8484 60.6747C86.7382 60.6747 86.628 60.6426 86.5294 60.5891C86.396 60.5088 86.3091 60.3858 86.2743 60.2466C86.2627 60.1878 86.2395 60.1182 86.2163 60.054C86.1351 59.8078 86.0249 59.4707 86.1931 59.1496C86.3612 58.8231 86.7266 58.7268 87.0455 58.6412C87.1557 58.6091 87.2775 58.577 87.4051 58.5342C87.5674 58.4753 87.753 58.4914 87.9038 58.5716C88.0546 58.6519 88.1589 58.791 88.1879 58.9516C88.2111 59.08 88.2401 59.2031 88.2691 59.3208C88.3561 59.6794 88.4605 60.0807 88.101 60.3429C87.8226 60.5463 87.4805 60.5945 87.2079 60.6319C87.1267 60.6426 87.0455 60.6533 86.9701 60.6694C86.9295 60.6801 86.8832 60.6801 86.8426 60.6801L86.8484 60.6747ZM59.5349 48.7678C59.5001 48.7678 59.4595 48.7678 59.4248 48.7571C59.2566 48.725 59.1174 48.634 59.0304 48.5002L58.5781 47.7778C58.5027 47.6547 58.4795 47.5049 58.5201 47.3657C58.5607 47.2266 58.6651 47.1089 58.7985 47.0393L59.6857 46.5844C59.8191 46.5149 59.9815 46.4988 60.1264 46.5416C60.2772 46.5791 60.399 46.6754 60.4744 46.7985C60.5034 46.8467 60.544 46.9055 60.5846 46.9644C60.7701 47.2213 61.0253 47.5745 60.7701 47.9276C60.5904 48.1845 60.3294 48.3504 60.1032 48.5002C60.0279 48.5484 59.9525 48.5966 59.8771 48.6501C59.7727 48.725 59.6451 48.7678 59.5175 48.7678H59.5349ZM55.9163 38.568C55.8062 38.568 55.696 38.5412 55.5974 38.4824C55.435 38.3807 55.3306 38.2148 55.3364 38.0329C55.3364 37.7867 55.319 37.5566 55.3016 37.3586C55.261 36.8448 55.2263 36.406 55.5916 36.1171C56.1135 35.7103 57.024 35.8495 57.4357 35.9833C57.7082 36.0742 57.8938 36.3043 57.9982 36.695C58.0852 37.0161 58.1316 37.4549 57.8532 37.7278C57.5807 38.0008 57.2269 38.1238 56.7862 38.2844C56.6006 38.3486 56.3919 38.4235 56.1541 38.5198C56.0787 38.5519 55.9975 38.568 55.9163 38.568ZM56.4383 36.9198C56.4383 37.0161 56.4499 37.1445 56.4614 37.2569C56.6412 37.1927 56.7978 37.1338 56.8964 37.0803C56.8906 37.0375 56.879 36.9893 56.8674 36.9519C56.705 36.9198 56.5484 36.9144 56.4383 36.9251V36.9198ZM51.1553 38.3058C51.0162 38.3058 50.8654 38.2897 50.7146 38.2309C50.3609 38.0971 50.2855 37.776 50.2275 37.5191C50.2101 37.4389 50.1869 37.3532 50.1579 37.2569C50.0999 37.0857 50.1405 36.9037 50.2623 36.7646C50.3841 36.6254 50.5638 36.5505 50.761 36.5666C50.8712 36.5773 50.9698 36.5773 51.0625 36.5773C51.3293 36.5773 51.6019 36.588 51.8628 36.7378C52.1992 36.9412 52.205 37.2944 52.2108 37.5245C52.2108 37.5726 52.2108 37.6208 52.2108 37.6583C52.2282 37.8081 52.1818 37.9526 52.0774 38.0703C51.973 38.1881 51.8222 38.2523 51.6656 38.263C51.6135 38.263 51.5555 38.2737 51.4975 38.279C51.3989 38.2897 51.2771 38.3058 51.1553 38.3058ZM67.9087 35.9244C67.5318 35.9244 67.2766 35.8334 67.1085 35.6461C66.4996 34.9611 66.1922 33.8641 66.3894 33.0881C66.5286 32.5477 67.1607 32.3711 68.0305 32.1302C68.3785 32.0339 68.767 31.9215 69.1555 31.7824C69.3295 31.7182 69.5209 31.7396 69.6774 31.8306C69.834 31.9215 69.9326 32.0767 69.9442 32.2426C69.9732 32.5905 70.0196 32.9115 70.0718 33.2219C70.1819 33.939 70.2805 34.5544 70.0022 35.1003C69.6948 35.705 68.4944 35.8709 68.2625 35.8976C68.1349 35.9137 68.0131 35.919 67.9087 35.919V35.9244ZM67.9087 34.8595H67.9203C68.2161 34.8595 68.7902 34.7257 68.9758 34.6079C69.0743 34.3457 69.0047 33.8962 68.9294 33.3825C68.912 33.2647 68.8946 33.147 68.8772 33.0186C68.7032 33.0721 68.535 33.1149 68.3785 33.1631C68.0769 33.2487 67.671 33.3611 67.5086 33.4413C67.4448 33.8587 67.6246 34.4581 67.9203 34.8648L67.9087 34.8595ZM50.1521 34.6401C50.0187 34.6401 49.8679 34.6187 49.723 34.5491C49.4794 34.4367 49.3402 34.2601 49.1895 34.0675C49.1315 33.9925 49.0677 33.9123 48.9807 33.8159C48.8415 33.6607 48.8125 33.4413 48.8995 33.2594C48.9923 33.0721 49.1837 32.949 49.404 32.9437C49.6476 32.933 49.8448 32.9169 50.0013 32.9062C50.3725 32.8741 50.7552 32.842 50.9698 33.1791C51.1205 33.4146 51.1321 33.6607 51.1379 33.8587C51.1379 33.9069 51.1379 33.9551 51.1437 34.0032C51.1611 34.1477 51.1089 34.2976 51.0104 34.4046C50.906 34.517 50.7552 34.5812 50.5986 34.5919C50.558 34.5919 50.5116 34.6026 50.4652 34.6079C50.3725 34.6187 50.2681 34.6347 50.1521 34.6347V34.6401ZM54.1476 33.8373C53.9157 33.8373 53.6895 33.7892 53.5213 33.6929C53.2082 33.5056 53.1154 33.1952 53.0284 32.8955C52.9994 32.7938 52.9646 32.6761 52.9182 32.553C52.8545 32.3925 52.8776 32.2212 52.9762 32.0767C53.0748 31.9376 53.243 31.8466 53.4228 31.8359C53.5677 31.8252 53.6953 31.8092 53.8113 31.7931C54.1186 31.7503 54.4376 31.7128 54.7391 31.852C55.0929 32.0179 55.3306 32.3068 55.3828 32.6493C55.435 32.9811 55.3074 33.3183 55.0233 33.5591C54.8145 33.741 54.4724 33.8373 54.1418 33.8373H54.1476ZM64.7657 25.5373C64.6555 25.5373 64.5453 25.5266 64.4409 25.5052C63.8146 25.3821 63.4841 24.7934 63.0665 24.0496C62.881 23.7232 62.678 23.3539 62.4229 22.9793C62.3185 22.8241 62.3069 22.6368 62.3881 22.4709C62.4692 22.305 62.6316 22.1926 62.8288 22.1659C63.2985 22.0963 63.716 22.0107 64.0872 21.9358C64.899 21.7645 65.5427 21.6361 66.1284 21.8555C66.7895 22.1017 67.1839 23.1024 67.2824 23.4663C67.352 23.7339 67.4158 24.1192 67.1549 24.3921C66.6735 24.9058 65.6703 25.5373 64.7773 25.5373H64.7657ZM63.8262 23.0863C63.9248 23.2522 64.0118 23.4074 64.0988 23.5573C64.2959 23.9105 64.5685 24.3921 64.7077 24.467C65.0208 24.5312 65.7283 24.1994 66.169 23.7927C66.1226 23.5198 65.8443 22.9472 65.6645 22.8348C65.4383 22.7492 64.9512 22.8509 64.3365 22.9793C64.1742 23.0114 64.006 23.0489 63.8262 23.081V23.0863ZM76.8102 22.8937C76.3695 22.8937 75.923 22.7813 75.5113 22.5619C74.6124 22.0803 74.1021 21.1812 74.2239 20.2661C74.2645 19.9397 74.3631 19.6668 74.5138 19.4313C75.0299 18.6339 76.8914 18.2647 77.8135 18.6018C78.5674 18.8801 79.0951 19.4206 79.2632 20.0788C79.443 20.7799 79.2052 21.5344 78.6079 22.1498C78.5036 22.2569 78.3818 22.3585 78.2484 22.4549C77.8251 22.7492 77.3264 22.8937 76.8218 22.8937H76.8102ZM76.99 19.5437C76.4159 19.5437 75.633 19.7899 75.5055 19.9825C75.4417 20.0842 75.3953 20.218 75.3721 20.3946C75.2967 20.9886 75.691 21.422 76.0912 21.6361C76.5841 21.8983 77.1292 21.8823 77.5467 21.5933C77.6163 21.5451 77.6801 21.4916 77.7381 21.4327C78.0744 21.0849 78.2194 20.6782 78.1266 20.3196C78.0454 19.9986 77.7787 19.7417 77.3785 19.5919C77.2742 19.5544 77.1408 19.5383 76.99 19.5383V19.5437Z" fill="currentColor"/>
</svg>
