<svg width="279" height="97" viewBox="0 0 279 97" fill="none" xmlns="http://www.w3.org/2000/svg">
<path d="M137.148 50.8482C135.605 49.931 134.932 49.931 135.339 51.204C132.487 49.9231 130.717 49.9231 128.845 51.9473C126.323 49.9231 123.698 49.9231 119.155 50.9985C117.839 49.9231 114.604 49.9231 111.189 49.9231C108.196 49.9231 105.071 49.9231 103.245 51.0143C98.6864 49.9231 95.4434 49.9231 93.0934 56.0354C91.7304 53.9953 90.4614 52.6353 89.1767 51.8208C87.892 51.0064 86.5995 50.7296 85.307 50.777C83.7403 50.9985 82.1815 51.5441 81.4608 51.4254C79.996 51.1329 79.0481 50.524 78.6095 48.9979C76.659 49.9231 75.2098 49.9231 74.8338 48.6421C72.2409 50.1682 70.3061 50.0417 67.9247 48.7686C66.8359 50.5952 65.3084 51.2673 62.8565 51.7338C63.1934 51.9394 62.4727 51.4334 61.2742 50.6822C61.094 50.7296 60.4282 50.524 59.6292 50.358C58.4542 50.3184 57.1695 50.7138 55.971 51.3938C55.2895 49.9231 54.3808 49.9231 54.2555 50.2631C54.3808 49.9231 54.3808 48.5393 53.668 49.1165C54.3808 48.5314 55.0545 48.5314 54.9918 49.9547C56.1277 49.3221 57.2557 48.9267 58.2192 49.0928C59.1827 49.2588 59.9973 49.9863 60.3498 51.1803C62.1985 49.9863 63.585 49.2588 64.6269 48.3732C66.7419 48.9979 68.5122 49.4723 70.4236 48.5946C70.7056 49.4723 71.0738 48.9979 71.6613 47.3611C72.4133 48.7211 73.3846 48.903 74.9043 47.7723C75.0844 48.7291 76.424 48.9267 78.1081 48.2072C78.2883 49.1956 79.0325 49.0849 80.2545 48.3337C80.4738 48.9584 81.1632 48.9584 82.1502 48.6737C83.1372 49.1798 84.3122 49.6463 85.448 50.611C86.3802 51.7101 87.2654 53.2916 88.0409 55.6638C89.7015 53.2995 91.2604 51.7101 92.8036 50.7296C95.8977 48.7607 98.9528 49.2114 103.151 50.5635C102.337 48.5393 104.154 48.5393 105.987 48.563C107.726 48.5393 109.481 48.5393 111.189 48.5393C114.604 48.5393 117.839 48.5393 118.92 49.4012C123.698 48.5393 126.323 48.5393 128.9 50.1998C130.717 48.5393 132.487 48.5393 135.582 49.5672C134.932 48.5393 135.597 48.5393 137.376 49.2747C135.605 48.5393 135.605 49.9231 137.148 50.8403V50.8482Z" fill="currentColor"/>
<path d="M136.17 52.7854C134.901 51.6546 135.935 51.0458 138.23 51.1486C138.011 49.8439 139.045 49.235 140.024 49.5829C139.045 49.2429 138.011 48.6341 138.583 48.5154C135.943 47.4321 134.901 46.8312 136.946 47.2661C134.901 46.8233 134.901 48.0331 136.632 50.1997C134.901 50.4448 134.901 51.6546 136.17 52.7854Z" fill="currentColor"/>
<path d="M196.152 50.8482C194.609 49.931 193.935 49.931 194.343 51.204C191.491 49.9231 189.721 49.9231 187.849 51.9473C185.327 49.9231 182.702 49.9231 178.159 50.9985C176.843 49.9231 173.608 49.9231 170.192 49.9231C167.2 49.9231 164.075 49.9231 162.249 51.0143C157.69 49.9231 154.447 49.9231 152.097 56.0354C150.734 53.9953 149.465 52.6353 148.181 51.8208C146.896 51.0064 145.603 50.7296 144.311 50.777C142.744 50.9985 141.185 51.5441 140.465 51.4254C139 51.1329 138.052 50.524 137.613 48.9979C135.663 49.9231 134.214 49.9231 133.838 48.6421C131.245 50.1682 129.31 50.0417 126.929 48.7686C125.84 50.5952 124.312 51.2673 121.86 51.7338C122.197 51.9394 121.477 51.4334 120.278 50.6822C120.098 50.7296 119.432 50.524 118.633 50.358C117.458 50.3184 116.173 50.7138 114.975 51.3938C114.293 49.9231 113.385 49.9231 113.259 50.2631C113.385 49.9231 113.385 48.5393 112.672 49.1165C113.385 48.5314 114.058 48.5314 113.996 49.9547C115.132 49.3221 116.26 48.9267 117.223 49.0928C118.187 49.2588 119.001 49.9863 119.354 51.1803C121.202 49.9863 122.589 49.2588 123.631 48.3732C125.746 48.9979 127.516 49.4723 129.427 48.5946C129.709 49.4723 130.078 48.9979 130.665 47.3611C131.417 48.7211 132.389 48.903 133.908 47.7723C134.088 48.7291 135.428 48.9267 137.112 48.2072C137.292 49.1956 138.036 49.0849 139.258 48.3337C139.478 48.9584 140.167 48.9584 141.154 48.6737C142.141 49.1798 143.316 49.6463 144.452 50.611C145.384 51.7101 146.269 53.2916 147.045 55.6638C148.705 53.2995 150.264 51.7101 151.807 50.7296C154.902 48.7607 157.957 49.2114 162.155 50.5635C161.341 48.5393 163.158 48.5393 164.991 48.563C166.73 48.5393 168.485 48.5393 170.192 48.5393C173.608 48.5393 176.843 48.5393 177.924 49.4012C182.702 48.5393 185.327 48.5393 187.904 50.1998C189.721 48.5393 191.491 48.5393 194.586 49.5672C193.935 48.5393 194.601 48.5393 196.379 49.2747C194.609 48.5393 194.609 49.9231 196.152 50.8403V50.8482Z" fill="currentColor"/>
<path d="M195.174 52.7854C193.905 51.6546 194.939 51.0458 197.234 51.1486C197.015 49.8439 198.049 49.235 199.028 49.5829C198.049 49.2429 197.015 48.6341 197.587 48.5154C194.947 47.4321 193.905 46.8312 195.95 47.2661C193.905 46.8233 193.905 48.0331 195.636 50.1997C193.905 50.4448 193.905 51.6546 195.174 52.7854Z" fill="currentColor"/>
<path d="M113.78 46.5461C112.801 46.7359 112.135 46.7359 113.279 46.2061C109.691 46.728 107.921 46.728 111.971 44.3954C103.519 46.7359 100.894 46.7359 97.2048 36.1638C95.7635 43.2093 93.8443 45.5577 90.335 45.9452C88.5803 46.135 86.4261 45.8424 84.3737 45.1861C84.3502 46.0559 83.7627 46.3959 83.7392 46.2694C81.3579 46.728 79.5405 46.728 80.41 45.6842C78.2872 46.0322 76.462 46.2615 74.7387 46.3485C71.292 46.5224 68.2683 46.1033 64.1558 44.854C63.5761 45.787 62.3854 46.2615 60.8658 46.4829C59.3461 46.7043 57.4896 46.6885 55.8681 46.4829C54.0664 46.6885 52.5075 46.7122 52.4605 45.36C49.3977 46.728 47.8623 46.728 47.9407 43.7311C43.46 46.728 40.8358 46.728 37.1306 43.6758C36.4413 46.728 34.6709 46.728 32.0389 45.5182C32.2347 46.728 31.5611 46.728 30.6367 46.0717C31.5689 46.728 31.5689 45.3442 30.9736 44.854C31.5611 45.3442 32.2347 45.3442 32.4619 44.34C34.6787 45.3442 36.4413 45.3442 37.5379 42.7032C40.8358 45.3442 43.46 45.3442 47.5255 42.7506C47.8545 45.3363 49.3977 45.3363 52.0297 44.1977C52.531 45.3205 54.1134 45.2968 55.7662 45.194C57.5366 45.2968 59.3617 45.3205 60.9206 45.0358C62.4794 44.7512 63.7563 44.1502 64.5161 42.9562C66.451 43.7549 68.1508 44.2847 69.788 44.5851C71.4252 44.8856 72.9918 44.9647 74.6055 45.0438C76.3054 44.7275 78.06 44.427 80.1907 44.7749C79.799 44.6563 80.1202 44.9963 80.8096 45.2256C81.4519 45.2019 82.4702 45.0596 83.5904 44.7828C83.8881 44.9014 84.6244 44.4586 84.6949 43.7549C85.6741 43.8181 86.7394 44.087 87.7343 44.2609C88.7291 44.4349 89.6613 44.5061 90.4994 44.4586C93.8678 44.253 95.8496 42.0706 97.479 35.5312C100.887 45.3442 103.511 45.3442 111.117 42.3236C107.905 45.3442 109.676 45.3442 112.926 44.6721C112.12 45.3442 112.793 45.3442 113.537 45.1307C112.793 45.3442 112.793 46.728 113.765 46.5382L113.78 46.5461Z" fill="currentColor"/>
<path d="M113.781 48.3252C112.105 48.4596 113.139 47.8508 114.392 47.2182C115.207 46.6488 116.241 46.04 116.241 46.04C116.241 46.04 115.207 45.439 114.204 44.8223C113.131 44.2292 112.097 43.6282 112.872 43.2961C112.097 43.6282 112.097 44.8302 113.444 45.7C112.097 47.2498 112.097 48.4517 113.773 48.3252H113.781Z" fill="currentColor"/>
<path d="M141.638 47.7818C140.816 48.2404 140.04 48.3749 140.557 48.1772C137.51 48.5172 135.755 48.5172 137.048 47.7186C130.147 48.5172 126.269 48.5172 119.344 47.6237C118.945 48.0744 117.786 48.2958 116.25 48.4065C114.715 48.5172 112.804 48.5172 112.099 47.8213C107.101 48.5251 103.349 48.5251 99.5417 44.437C96.0088 48.5251 92.4211 48.5251 87.7368 47.8055C86.6166 48.1693 85.2223 48.3432 83.7026 48.4381C82.1907 48.5251 80.5536 48.5251 78.9634 48.5251C78.0077 48.5251 77.0677 48.5251 76.1434 48.4618C75.2112 48.4777 74.2947 48.4223 73.4017 48.2562C72.5008 48.4223 71.6235 48.4697 70.754 48.4381C69.9002 48.5251 69.0542 48.5251 68.216 48.4935C67.4013 48.5251 66.5866 48.5251 65.8033 48.5251C65.0121 48.5251 64.2523 48.5251 63.5081 48.5172C62.0276 48.5014 60.6411 48.4777 59.3799 48.4302C57.3667 48.5014 55.6121 48.5172 54.7504 47.6395C54.5232 49.9089 56.7401 49.901 59.6149 49.6954C60.7508 49.7982 62.0746 49.8535 63.5316 49.8772C64.2601 49.8931 65.02 49.901 65.7563 49.7824C66.5475 49.7982 67.323 49.6954 68.0436 49.3475C68.9758 49.6875 69.861 49.7982 70.7227 49.4265C71.6235 49.6796 72.5087 49.4503 73.4173 48.873C74.3025 49.4503 75.2112 49.6796 76.1904 49.5926C77.0912 49.8219 78.0625 49.7428 79.1044 49.5451C79.8172 49.7507 80.6006 49.8219 81.3761 49.8456C82.1516 49.8772 82.9271 49.8535 83.6634 49.8061C85.1361 49.7191 86.4443 49.5372 87.3921 49.1735C92.4211 49.901 96.0088 49.901 99.5025 45.6785C103.349 49.901 107.101 49.901 112.443 49.1972C112.804 49.901 114.723 49.901 116.242 49.8852C117.762 49.8693 118.898 49.8377 119.235 49.7745C126.277 49.901 130.155 49.901 137.173 49.7903C135.763 49.901 137.526 49.901 140.628 49.8535C140.017 49.8852 140.753 49.8614 141.654 49.7982C144.215 49.8614 146.941 49.8852 147.96 49.6242C148.869 49.387 148.43 48.9363 146.182 48.0665C144.725 48.2483 142.939 48.1139 141.654 47.7818H141.638Z" fill="currentColor"/>
<path d="M146.167 48.0664C146.3 48.0506 146.441 48.0348 146.574 48.0111C146.637 48.0032 146.691 47.9874 146.746 47.9715C146.253 47.8925 145.751 47.8055 145.234 47.7185C145.579 47.8371 145.885 47.9557 146.174 48.0664H146.167Z" fill="currentColor"/>
<path d="M208.504 49.2288C209.993 49.5451 210.745 49.6874 210.737 49.6795C210.729 49.6795 210.188 49.5609 209.154 49.3474C208.919 49.3079 208.669 49.2604 208.402 49.2051C208.434 49.213 208.465 49.2209 208.496 49.2288H208.504Z" fill="currentColor"/>
<path d="M228.07 48.0112C228.07 48.0112 228.094 47.9954 228.11 47.9954C227.812 48.1219 227.796 48.1298 228.07 48.0112Z" fill="currentColor"/>
<path d="M211.447 48.0585C211.533 48.0665 211.603 48.0665 211.65 48.0585C211.415 47.9716 211.173 47.8925 210.914 47.7976C211.102 47.8925 211.274 47.9716 211.447 48.0585Z" fill="currentColor"/>
<path d="M210.275 48.2246C209.938 48.3353 208.575 48.2009 206.397 47.8451C207.494 48.5093 206.609 48.5172 205.442 48.1139C205.904 48.5172 205.504 48.5172 204.932 48.1455C203.985 48.5172 202.864 48.5172 202.629 47.766C200.068 48.5172 198.423 48.5172 197.781 46.7934C194.624 48.5172 192.47 48.5172 189.281 46.5166C187.73 48.5172 185.145 48.5172 181.354 47.9479C179.599 48.5172 176.638 48.5172 173.528 48.5172C170.614 48.5172 167.567 48.5172 170.223 47.4576C161.261 48.5172 158.003 48.5172 149.261 39.2656C150.624 45.3068 149.629 47.4023 146.738 47.9716C158.285 49.901 161.645 49.8931 170.442 49.7507C167.575 49.901 170.622 49.901 173.536 49.901C176.646 49.901 179.607 49.901 181.15 49.3791C185.153 49.901 187.746 49.901 189.125 48.0823C192.477 49.901 194.632 49.901 198.031 48.3511C198.431 49.901 200.076 49.901 202.872 49.2209C202.872 49.901 203.992 49.901 205.042 49.553C205.504 49.901 205.904 49.901 205.504 49.553C206.609 49.8931 207.502 49.8852 206.366 49.4186C207.862 49.6954 209.194 49.7745 209.601 49.7112C209.938 49.6558 209.633 49.5056 208.505 49.2288C208.262 49.1814 208.003 49.1261 207.729 49.0628C207.964 49.1102 208.191 49.1577 208.411 49.2051C208.199 49.1498 207.964 49.0944 207.698 49.0391C208.262 49.1577 208.747 49.2605 209.155 49.3554C210.4 49.5847 211.254 49.6717 211.505 49.6321C211.842 49.5689 211.074 49.2526 208.74 48.6437C214.004 49.7745 214.928 49.7982 211.45 48.0586C210.941 48.0111 209.766 47.6632 208.152 47.0385C209.915 47.7581 210.62 48.1139 210.283 48.2246H210.275Z" fill="currentColor"/>
<path d="M54.5156 47.3389C54.5861 47.4496 54.6566 47.5445 54.7506 47.6315C54.7663 47.4813 54.7898 47.3231 54.829 47.1492C54.7193 47.2124 54.6253 47.2757 54.5156 47.3389Z" fill="currentColor"/>
<path d="M226.357 47.6475C223.756 49.1182 223.756 49.1182 226.357 47.6475Z" fill="currentColor"/>
<path d="M46.6094 46.6827C46.6172 46.7934 46.6329 46.9041 46.6485 46.9911C46.6564 46.398 46.7034 45.6468 46.7817 44.7217C46.7112 45.544 46.6564 46.1766 46.6094 46.6827Z" fill="currentColor"/>
<path d="M46.6572 44.0813C46.3987 47.8136 46.3595 49.3713 46.6102 46.6828C46.5554 46.1293 46.5789 45.2674 46.6572 44.0813Z" fill="currentColor"/>
<path d="M49.2891 46.8645C49.4144 49.7427 50.9654 49.5055 54.5139 47.331C54.3103 47.0068 54.1849 46.6035 54.1771 46.0737C51.4432 47.8371 49.9157 48.3115 49.2891 46.8566V46.8645Z" fill="currentColor"/>
<path d="M49.3525 45.0696C49.235 45.2989 49.1253 45.5124 49.0156 45.718C49.0705 46.1924 49.1645 46.5641 49.2976 46.8645C49.2741 46.3585 49.2976 45.7733 49.3525 45.0696Z" fill="currentColor"/>
<path d="M46.6501 46.991C46.6109 49.5767 47.2533 49.0943 49.0158 45.7179C48.9688 45.3225 48.9531 44.8639 48.9531 44.342C47.5588 47.165 46.8616 48.0664 46.6501 46.991Z" fill="currentColor"/>
<path d="M218.363 47.1334C218.395 47.0701 218.418 46.991 218.434 46.8962C218.403 46.8171 218.371 46.738 218.332 46.6589C218.348 46.825 218.356 46.9831 218.356 47.1334H218.363Z" fill="currentColor"/>
<path d="M222.086 49.0471C222.086 49.0471 222.65 48.4936 223.841 47.3391C222.72 48.4382 222.141 48.9996 222.086 49.0471Z" fill="currentColor"/>
<path d="M226.355 47.6473C226.418 47.6078 226.473 47.5762 226.543 47.5366C226.481 47.5762 226.426 47.6078 226.355 47.6394V47.6473Z" fill="currentColor"/>
<path d="M222.846 48.2959C222.846 48.2959 222.822 48.3196 222.807 48.3354C222.298 48.8415 222.055 49.0787 222.094 49.0471C222.102 49.0392 222.36 48.7862 222.854 48.2959H222.846Z" fill="currentColor"/>
<path d="M226.355 47.6475C226.418 47.6158 226.473 47.5842 226.536 47.5447C226.473 47.5842 226.418 47.6079 226.355 47.6475Z" fill="currentColor"/>
<path d="M223.84 47.3389C223.84 47.3389 223.903 47.3152 223.934 47.3073C224.059 47.1649 224.2 47.0068 224.349 46.8486C224.169 47.0226 224.004 47.1886 223.84 47.3389Z" fill="currentColor"/>
<path d="M223.831 47.3469C223.831 47.3469 223.815 47.3469 223.807 47.3548C223.416 47.7344 223.102 48.0507 222.844 48.3037C223.11 48.0507 223.439 47.7344 223.831 47.3469Z" fill="currentColor"/>
<path d="M221.998 43.7808C220.572 48.3908 219.538 48.367 219.421 43.6147C219.538 48.367 219.538 48.454 219.421 43.765C219.421 48.4619 219.303 48.4619 218.457 43.8045C218.551 45.3306 218.559 46.3507 218.434 46.8963C219.624 49.8299 219.977 49.7508 221.301 46.5721C220.682 49.5769 220.94 49.7904 223.47 47.434C222.233 47.6475 221.935 46.5405 221.998 43.7808Z" fill="currentColor"/>
<path d="M215.411 44.2472C217.495 48.3748 216.798 48.3827 211.534 45.2751C214.988 48.4143 214.221 48.438 209.16 46.4533C211.291 47.4734 211.98 47.9873 211.651 48.0506C215.49 49.4106 216.665 49.6241 215.364 48.359C214.965 48.0743 214.479 47.7185 213.884 47.2915C214.26 47.5366 214.604 47.758 214.926 47.9557C214.644 47.7106 214.307 47.4259 213.907 47.1017C214.495 47.5524 214.98 47.9241 215.372 48.2245C217.855 49.7032 218.466 49.4423 218.364 47.1254C218.035 47.8608 217.182 46.8645 215.411 44.2393V44.2472Z" fill="currentColor"/>
<path d="M215.364 48.3591C216.962 49.5056 216.962 49.4582 215.364 48.2247C215.223 48.1377 215.075 48.0507 214.918 47.9558C215.09 48.106 215.231 48.2405 215.357 48.3591H215.364Z" fill="currentColor"/>
<path d="M223.549 47.4181C221.818 49.2289 221.559 49.5293 222.797 48.3353C223.063 48.0744 223.392 47.7502 223.8 47.3469C223.713 47.3706 223.627 47.3944 223.549 47.4102V47.4181Z" fill="currentColor"/>
<path d="M224.318 46.8486C224.138 47.0305 223.965 47.1966 223.801 47.3547C223.965 47.1966 224.13 47.0305 224.318 46.8486Z" fill="currentColor"/>
<path d="M223.473 47.4338C223.473 47.4338 223.527 47.4338 223.551 47.418C223.723 47.2361 223.911 47.0384 224.115 46.825C223.88 47.0464 223.668 47.244 223.473 47.4338Z" fill="currentColor"/>
<path d="M233.584 46.1687C230.364 45.1645 229.353 44.7296 223.486 41.6694C224.794 43.6067 225.844 44.7691 226.925 45.6231C226.847 45.6784 226.753 45.7417 226.674 45.7891C226.165 45.5361 225.562 45.2198 224.787 44.8165C225.202 45.4333 225.57 45.8999 225.922 46.2715C225.108 46.7776 224.465 47.1255 223.941 47.3074C221.755 49.7744 222.303 49.6558 226.502 47.3232C222.444 49.7586 222.397 49.893 226.361 47.6474C226.424 47.5129 226.58 47.3153 226.823 47.0622C227.121 47.2678 227.426 47.4418 227.763 47.6078C226.682 47.9637 226.212 47.9953 226.361 47.6474C222.437 49.8851 223.525 49.8535 228.178 47.9558C228.155 47.9637 228.139 47.9795 228.116 47.9874C228.186 47.9558 228.265 47.9241 228.359 47.8846C228.241 47.932 228.139 47.9716 228.069 48.0032C224.912 49.6005 224.959 49.8298 228.272 49.0549C228.225 49.1023 228.186 49.1498 228.139 49.1893C226.706 49.6163 226.651 49.6716 227.967 49.3712C227.959 49.3791 227.943 49.3949 227.936 49.4028C227.299 49.5609 227.299 49.5609 227.936 49.4028C227.936 49.4028 227.881 49.4581 227.857 49.4898C227.481 49.6005 227.45 49.6321 227.779 49.5768C226.784 50.6363 226.181 51.3875 225.155 52.5341C225.93 51.8699 227.826 51.0633 229.596 50.4149C227.458 52.6685 226.275 54.1472 224.191 56.4957C225.891 55.0486 230.372 53.2299 234.108 51.9331C234.986 50.5414 253.12 49.1972 253.12 49.1972C253.12 49.1972 234.986 47.853 233.584 46.1608V46.1687ZM226.941 45.9236C226.941 45.9236 226.925 45.9157 226.917 45.9078C226.98 45.8603 227.043 45.8129 227.113 45.7575C227.113 45.7575 227.129 45.7654 227.137 45.7733C227.074 45.8208 227.003 45.8682 226.949 45.9157L226.941 45.9236ZM227.144 45.7891C227.215 45.8445 227.293 45.8998 227.364 45.9552C227.309 45.9947 227.262 46.0264 227.215 46.058C227.129 46.0185 227.043 45.9789 226.956 45.9315C227.019 45.884 227.082 45.8366 227.144 45.7891ZM227.379 45.9631C227.466 46.0264 227.552 46.0817 227.638 46.1371C227.599 46.1608 227.567 46.1845 227.528 46.2082C227.434 46.1608 227.332 46.1133 227.231 46.0659C227.278 46.0343 227.325 45.9947 227.379 45.9631ZM227.74 46.2082C227.928 46.3268 228.116 46.4455 228.312 46.5641C228.108 46.4771 227.896 46.3901 227.661 46.2794C227.685 46.2557 227.708 46.2399 227.732 46.2161L227.74 46.2082ZM228.695 48.0506C228.304 48.1851 228.28 48.1772 228.641 48.0269C228.656 48.0348 228.68 48.0427 228.695 48.0506ZM228.719 48.0665C228.494 48.1508 228.494 48.1508 228.719 48.0665ZM228.837 48.1218C228.837 48.1218 228.915 48.1534 228.954 48.1772C228.774 48.2088 228.735 48.193 228.837 48.1218ZM226.964 45.6705C227.011 45.7101 227.058 45.7417 227.105 45.7733C227.043 45.8208 226.972 45.8761 226.909 45.9236C226.855 45.8998 226.8 45.8682 226.745 45.8445C226.815 45.7891 226.886 45.7259 226.956 45.6705H226.964ZM226.04 46.4138C226.04 46.4138 226.103 46.4771 226.142 46.5087C225.938 46.6669 225.75 46.8092 225.586 46.9357C225.75 46.8092 225.93 46.6669 226.134 46.5166C226.134 46.5166 226.134 46.5166 226.142 46.5245C225.938 46.6748 225.75 46.8171 225.578 46.9357C225.084 47.3074 224.771 47.5525 224.661 47.6395C224.755 47.5604 225.069 47.3232 225.57 46.9357C224.035 48.0665 224.191 47.9004 226.024 46.4138H226.04ZM226.173 46.5482C226.22 46.5957 226.267 46.6431 226.322 46.6827C224.332 48.0506 224.293 48.019 226.173 46.5482ZM226.345 46.7064C226.408 46.7617 226.463 46.8092 226.526 46.8566C224.669 48.0506 224.559 48.0111 226.345 46.7064ZM228.006 47.7423C228.006 47.7423 228.045 47.766 228.069 47.7739C227.207 48.1376 227.184 48.1297 228.006 47.7423ZM228.092 47.7818C228.092 47.7818 228.092 47.7818 228.1 47.7818C227.547 48.019 227.544 48.019 228.092 47.7818ZM228.194 47.8292C228.233 47.8451 228.272 47.8688 228.319 47.8846C227.607 48.1534 227.56 48.1455 228.194 47.8292ZM228.421 47.932C228.421 47.932 228.484 47.9637 228.515 47.9716C227.912 48.1851 227.881 48.1692 228.421 47.932Z" fill="currentColor"/>
<path d="M88.8423 53.6797C88.2783 53.9643 87.7535 54.0434 88.106 53.9169C86.0536 54.075 84.8708 54.0355 85.7559 53.5294C81.1029 53.909 78.4944 53.8141 73.8649 53.055C73.5829 53.3475 72.7995 53.4662 71.7655 53.5057C70.7315 53.5452 69.4468 53.5057 68.9847 53.0154C65.6085 53.3713 63.0861 53.2843 60.6264 50.4456C58.1589 53.1103 55.7541 53.0233 52.6207 52.4303C51.8609 52.6438 50.9209 52.7387 49.8947 52.7624C48.8764 52.7861 47.7797 52.7466 46.7065 52.715C46.0642 52.6912 45.4297 52.6754 44.8187 52.6043C44.192 52.5884 43.581 52.5331 42.9857 52.4066C42.3747 52.4936 41.7871 52.5094 41.1996 52.4698C40.62 52.5094 40.056 52.4856 39.492 52.4461C38.9436 52.4461 38.3953 52.4303 37.8705 52.4145C37.3378 52.3987 36.8286 52.3749 36.3273 52.3512C35.3324 52.3117 34.4003 52.2563 33.5543 52.1931C32.1991 52.1931 31.0241 52.1614 30.4601 51.5605C30.2564 53.0787 31.7447 53.1261 33.6796 53.055C34.4394 53.1499 35.3324 53.221 36.3038 53.2685C36.7894 53.2922 37.2986 53.3159 37.8 53.2527C38.3326 53.2843 38.8575 53.2289 39.351 53.0154C39.9698 53.2685 40.5573 53.3634 41.1448 53.134C41.748 53.3238 42.3433 53.1894 42.97 52.8257C43.5497 53.2368 44.1607 53.4108 44.8187 53.3713C45.4218 53.5452 46.072 53.5215 46.777 53.4029C47.2549 53.5531 47.7719 53.6243 48.2967 53.6559C48.8137 53.6955 49.3385 53.6955 49.832 53.6876C50.819 53.6638 51.7042 53.5689 52.3544 53.3475C55.7149 53.9485 58.1276 54.0355 60.5716 51.2758C63.0626 54.2015 65.585 54.2885 69.1883 53.9406C69.4155 54.4229 70.7002 54.4704 71.7263 54.4941C72.7525 54.5178 73.5124 54.5257 73.7395 54.4941C78.4709 54.7392 81.0716 54.8341 85.7951 54.9211C84.8473 54.9606 86.0301 55.0081 88.1138 55.0476C87.7065 55.0476 88.2 55.0555 88.8031 55.0318C90.5265 55.1346 92.3517 55.2137 93.0488 55.0555C93.6677 54.9211 93.3778 54.6048 91.8895 53.9722C90.9103 54.0592 89.7118 53.9327 88.8501 53.6797H88.8423Z" fill="currentColor"/>
<path d="M91.8806 53.9803C91.9746 53.9724 92.0686 53.9645 92.1547 53.9566C92.1939 53.9566 92.2331 53.9408 92.2722 53.9329C91.9432 53.8696 91.6064 53.7985 91.2617 53.7273C91.4889 53.8143 91.6925 53.9013 91.8806 53.9803Z" fill="currentColor"/>
<path d="M133.735 56.2102C134.729 56.4553 135.231 56.5739 135.223 56.566C135.223 56.566 134.855 56.4711 134.173 56.305C134.017 56.2734 133.852 56.2339 133.672 56.1943C133.695 56.1943 133.711 56.2102 133.735 56.2102Z" fill="currentColor"/>
<path d="M146.909 55.8464C146.909 55.8464 146.924 55.8464 146.932 55.8306C146.729 55.9096 146.721 55.9096 146.909 55.8464Z" fill="currentColor"/>
<path d="M135.739 55.4906C135.794 55.4906 135.849 55.4985 135.88 55.4906C135.724 55.4273 135.567 55.364 135.395 55.3008C135.52 55.364 135.63 55.4273 135.747 55.4906H135.739Z" fill="currentColor"/>
<path d="M134.95 55.5696C134.723 55.6329 133.806 55.5142 132.357 55.2217C133.077 55.6961 132.482 55.6803 131.714 55.3798C132.012 55.6645 131.746 55.6566 131.378 55.3877C130.727 55.617 129.983 55.5933 129.842 55.0793C128.103 55.5222 126.999 55.4826 126.607 54.3123C124.445 55.3956 123.004 55.3482 120.904 53.9249C119.816 55.2375 118.077 55.1742 115.546 54.7077C114.356 55.0477 112.366 54.9845 110.275 54.9133C108.316 54.8421 106.272 54.7789 108.081 54.1305C102.034 54.6286 99.8483 54.5575 94.1847 48.1367C94.9602 52.2248 94.2474 53.6086 92.2891 53.9249C99.9971 55.4905 102.261 55.5617 108.175 55.6724C106.248 55.704 108.293 55.7752 110.251 55.8464C112.343 55.9175 114.324 55.9887 115.374 55.6724C118.053 56.1152 119.792 56.1785 120.763 54.9845C122.98 56.2813 124.422 56.3287 126.74 55.3719C126.975 56.4236 128.08 56.4631 129.975 56.0678C129.96 56.5264 130.712 56.5501 131.425 56.3445C131.73 56.5896 131.996 56.5975 131.738 56.3524C132.474 56.6055 133.07 56.6213 132.318 56.2813C133.313 56.5027 134.206 56.5817 134.48 56.5501C134.707 56.5264 134.503 56.4157 133.751 56.2022C133.587 56.1626 133.422 56.1231 133.234 56.0757C133.391 56.1152 133.54 56.1547 133.689 56.1864C133.548 56.1468 133.391 56.1073 133.218 56.0519C133.595 56.1468 133.916 56.2259 134.19 56.2971C135.02 56.4789 135.592 56.558 135.757 56.5343C135.984 56.5027 135.475 56.2654 133.916 55.8068C137.425 56.6845 138.052 56.7241 135.749 55.4826C135.404 55.4352 134.629 55.1742 133.555 54.7235C134.723 55.2454 135.185 55.5063 134.958 55.5696H134.95Z" fill="currentColor"/>
<path d="M30.3164 51.363C30.3556 51.4342 30.4104 51.5053 30.4652 51.5686C30.4809 51.4658 30.4966 51.363 30.5279 51.2444C30.4574 51.2839 30.3869 51.3235 30.3164 51.363Z" fill="currentColor"/>
<path d="M145.765 55.5618C143.984 56.4896 143.984 56.4896 145.765 55.5618Z" fill="currentColor"/>
<path d="M25.0234 50.7461C25.0234 50.8251 25.0313 50.8963 25.0469 50.9516C25.0704 50.5484 25.1174 50.0502 25.1879 49.4255C25.1253 49.979 25.0704 50.406 25.0313 50.7382L25.0234 50.7461Z" fill="currentColor"/>
<path d="M25.1166 48.9907C24.8581 51.4894 24.7955 52.5332 25.0226 50.7382C24.9991 50.3666 25.0305 49.7894 25.1166 48.9907Z" fill="currentColor"/>
<path d="M26.8242 50.9281C26.8477 52.8654 27.8896 52.7389 30.3257 51.363C30.1926 51.1416 30.1221 50.8649 30.1299 50.509C28.2577 51.6319 27.2159 51.9165 26.8321 50.9202L26.8242 50.9281Z" fill="currentColor"/>
<path d="M26.903 49.7181C26.8168 49.8684 26.7385 50.0107 26.6602 50.1451C26.6837 50.4614 26.7385 50.7144 26.8247 50.92C26.8247 50.58 26.8482 50.1846 26.903 49.7102V49.7181Z" fill="currentColor"/>
<path d="M25.0456 50.9518C24.9594 52.6914 25.3981 52.383 26.6593 50.1532C26.6358 49.8843 26.6358 49.5839 26.6515 49.228C25.6488 51.0942 25.1631 51.6872 25.0456 50.9518Z" fill="currentColor"/>
<path d="M140.41 55.0239C140.434 54.9844 140.449 54.929 140.465 54.8658C140.442 54.8104 140.426 54.763 140.402 54.6997C140.402 54.8104 140.402 54.9211 140.402 55.016L140.41 55.0239Z" fill="currentColor"/>
<path d="M142.867 56.3998C142.867 56.3998 143.259 56.0439 144.081 55.2927C143.306 56.0044 142.899 56.3681 142.867 56.3998Z" fill="currentColor"/>
<path d="M144.419 54.9844C144.301 55.0951 144.184 55.1979 144.082 55.2928C144.192 55.1979 144.301 55.0951 144.419 54.9844Z" fill="currentColor"/>
<path d="M145.766 55.5616C145.813 55.5379 145.844 55.5142 145.891 55.4905C145.844 55.5142 145.805 55.53 145.766 55.5537V55.5616Z" fill="currentColor"/>
<path d="M143.392 55.9175C143.392 55.9175 143.376 55.9333 143.36 55.9412C143.008 56.2654 142.836 56.4235 142.867 56.3998C142.867 56.3998 143.047 56.2259 143.392 55.9175Z" fill="currentColor"/>
<path d="M145.773 55.5618C145.813 55.5381 145.852 55.5223 145.899 55.4985C145.852 55.5223 145.82 55.5381 145.773 55.5618Z" fill="currentColor"/>
<path d="M144.082 55.2929C144.082 55.2929 144.121 55.277 144.145 55.277C144.239 55.1822 144.333 55.0794 144.435 54.9766C144.309 55.0873 144.192 55.198 144.082 55.2929Z" fill="currentColor"/>
<path d="M144.084 55.2927H144.068C143.802 55.5379 143.583 55.7434 143.402 55.9095C143.59 55.7434 143.81 55.5379 144.092 55.2927H144.084Z" fill="currentColor"/>
<path d="M142.932 52.8575C141.867 55.9176 141.178 55.886 141.209 52.6914C141.178 55.886 141.178 55.9492 141.209 52.7863C141.107 55.9413 141.021 55.9413 140.559 52.7863C140.59 53.8142 140.574 54.4943 140.473 54.858C141.209 56.8586 141.444 56.8111 142.408 54.7078C141.922 56.7083 142.094 56.8586 143.849 55.3404C143.019 55.4511 142.838 54.6999 142.94 52.8496L142.932 52.8575Z" fill="currentColor"/>
<path d="M138.488 53.0156C139.796 55.8385 139.326 55.8306 135.856 53.6166C138.104 55.8069 137.587 55.8069 134.234 54.352C135.644 55.0873 136.091 55.4432 135.872 55.4827C138.417 56.4869 139.201 56.653 138.363 55.7753C138.104 55.5776 137.783 55.3246 137.391 55.0241C137.642 55.198 137.861 55.3562 138.073 55.4906C137.893 55.3167 137.665 55.119 137.407 54.8976C137.791 55.2139 138.104 55.4748 138.363 55.6883C139.992 56.74 140.415 56.5818 140.399 55.0241C140.164 55.5064 139.608 54.8264 138.48 53.0156H138.488Z" fill="currentColor"/>
<path d="M138.372 55.7831C139.422 56.5897 139.422 56.558 138.372 55.6961C138.278 55.6329 138.184 55.5696 138.082 55.5063C138.192 55.6091 138.286 55.704 138.372 55.791V55.7831Z" fill="currentColor"/>
<path d="M143.894 55.3403C142.696 56.5185 142.508 56.7083 143.369 55.9413C143.549 55.7752 143.784 55.5617 144.066 55.3008C144.004 55.3166 143.949 55.3324 143.894 55.3403Z" fill="currentColor"/>
<path d="M144.419 54.9766C144.294 55.0952 144.176 55.2059 144.059 55.3087C144.168 55.2059 144.286 55.0952 144.419 54.9766Z" fill="currentColor"/>
<path d="M143.84 55.3482C143.84 55.3482 143.871 55.3482 143.895 55.3482C144.02 55.2295 144.145 55.103 144.286 54.9607C144.122 55.103 143.981 55.2295 143.84 55.3561V55.3482Z" fill="currentColor"/>
<path d="M150.656 54.7314C148.517 53.9882 147.844 53.664 143.974 51.4736C144.812 52.8021 145.486 53.6165 146.191 54.2096C146.136 54.2412 146.073 54.2807 146.018 54.3124C145.682 54.1305 145.282 53.9012 144.773 53.6165C145.039 54.0435 145.274 54.3598 145.501 54.6207C144.945 54.9449 144.499 55.1584 144.146 55.2691C142.627 56.8743 142.995 56.8111 145.87 55.3403C143.089 56.8822 143.05 56.9692 145.768 55.5538C145.815 55.4668 145.924 55.3324 146.089 55.1743C146.285 55.3166 146.488 55.4431 146.708 55.5617C145.971 55.7752 145.658 55.791 145.76 55.5617C143.073 56.9771 143.809 56.9771 146.974 55.8068C146.958 55.8068 146.943 55.8227 146.927 55.8306C146.974 55.8147 147.029 55.791 147.092 55.7673C147.013 55.7989 146.943 55.8227 146.896 55.8385C144.734 56.8427 144.765 56.9929 147.005 56.5501C146.974 56.5818 146.943 56.6134 146.911 56.6371C145.94 56.8901 145.901 56.9218 146.794 56.7557C146.794 56.7557 146.778 56.7715 146.77 56.7794C146.337 56.8691 146.337 56.8691 146.77 56.7794C146.77 56.7794 146.731 56.819 146.716 56.8348C146.457 56.8981 146.441 56.9218 146.661 56.8901C145.971 57.5781 145.548 58.0683 144.836 58.8195C145.376 58.3925 146.661 57.8944 147.867 57.499C146.379 58.9619 145.556 59.9345 144.099 61.4606C145.274 60.5275 148.321 59.4126 150.867 58.6218C151.486 57.7046 163.706 57.2223 163.706 57.2223C163.706 57.2223 151.549 55.8938 150.648 54.7314H150.656ZM146.199 54.4152C146.199 54.4152 146.191 54.4152 146.183 54.4072C146.222 54.3756 146.269 54.344 146.316 54.3124C146.316 54.3124 146.324 54.3124 146.332 54.3203C146.285 54.3519 146.238 54.3835 146.199 54.4152ZM146.34 54.3282C146.387 54.3677 146.434 54.4072 146.488 54.4468C146.449 54.4705 146.418 54.4942 146.387 54.51C146.332 54.4784 146.277 54.4547 146.214 54.4231C146.253 54.3914 146.3 54.3598 146.34 54.3282ZM146.488 54.4468C146.543 54.4863 146.598 54.5259 146.661 54.5733C146.637 54.5891 146.614 54.6049 146.582 54.6207C146.52 54.5891 146.457 54.5575 146.387 54.5179C146.418 54.4942 146.449 54.4705 146.488 54.4547V54.4468ZM146.723 54.6207C146.849 54.7077 146.974 54.7868 147.099 54.8738C146.966 54.8105 146.825 54.7473 146.669 54.6682C146.684 54.6524 146.7 54.6366 146.723 54.6287V54.6207ZM147.327 55.878C147.06 55.9571 147.045 55.9571 147.287 55.8622C147.303 55.8622 147.311 55.878 147.327 55.878ZM147.342 55.8859C147.191 55.9386 147.191 55.9386 147.342 55.8859ZM147.421 55.9255C147.421 55.9255 147.468 55.9492 147.499 55.965C147.381 55.9808 147.35 55.965 147.421 55.9255ZM146.222 54.2333C146.222 54.2333 146.285 54.2807 146.316 54.3045C146.269 54.3361 146.222 54.3677 146.183 54.3993C146.152 54.3835 146.112 54.3598 146.073 54.344C146.12 54.3124 146.175 54.2728 146.222 54.2333ZM145.588 54.7156C145.588 54.7156 145.627 54.7631 145.65 54.7868C145.509 54.8896 145.384 54.9766 145.266 55.0556C145.376 54.9766 145.509 54.8896 145.65 54.7868C145.509 54.8817 145.376 54.9766 145.266 55.0477C144.93 55.285 144.71 55.4431 144.632 55.4985C144.695 55.451 144.914 55.3008 145.259 55.0477C144.201 55.7673 144.311 55.6645 145.58 54.7077L145.588 54.7156ZM145.674 54.8105C145.674 54.8105 145.736 54.8738 145.768 54.9054C144.397 55.7831 144.373 55.7594 145.674 54.8105ZM145.791 54.9212C145.791 54.9212 145.87 54.9924 145.909 55.024C144.632 55.7831 144.561 55.7594 145.791 54.9212ZM146.88 55.6566C146.88 55.6566 146.911 55.6724 146.919 55.6803C146.332 55.9017 146.316 55.9017 146.88 55.6566ZM146.935 55.6882C146.559 55.8358 146.559 55.8358 146.935 55.6882ZM147.005 55.7199C147.005 55.7199 147.06 55.7436 147.084 55.7594C146.598 55.9255 146.567 55.9175 147.005 55.7199ZM147.154 55.791C147.154 55.791 147.193 55.8148 147.217 55.8227C146.81 55.9492 146.786 55.9413 147.154 55.791Z" fill="currentColor"/>
<path d="M208.761 45.6047C210.242 47.1703 209.772 47.1308 207.814 46.0238C208.777 47.0359 208.26 46.9885 206.874 46.3875C207.814 46.9885 207.312 46.9885 205.902 46.7275C205.417 46.9885 204.022 46.9885 202.542 46.7038C200.709 46.9885 198.868 46.9885 197.332 45.8024C194.7 46.9964 192.366 46.9964 189.483 45.5098C187.29 46.9964 184.541 46.9964 181.392 46.7592C178.728 46.9964 175.658 46.9964 172.469 46.9964C169.281 46.9964 165.968 46.9964 166.837 43.4381C161.738 45.8103 158.495 46.601 154.797 44.8061C152.949 43.9125 150.982 42.3706 149.094 40.3305C148.64 41.7934 148.436 43.0902 148.053 44.0628C147.669 45.0354 147.097 45.668 146.384 46.0791C145.671 46.4903 144.817 46.6722 143.932 46.7117C143.024 46.7275 142.076 46.6089 141.473 47.1071C139.444 46.7987 137.893 46.8936 138.269 47.7001C136.232 46.3875 134.971 46.688 133.984 48.0955C133.224 46.3243 132.731 45.6521 131.994 47.4471C130.796 45.2093 129.127 45.8024 127.294 46.5852C125.931 46.5061 124.388 46.6089 122.782 46.5219C121.184 46.435 119.523 46.1503 117.683 45.7312C116.649 46.3638 115.215 46.6801 113.609 46.8382C112.003 46.9964 110.217 46.9964 109.003 46.3559C105.008 46.9964 101.726 46.9964 98.4987 44.6637C95.663 46.9964 92.8899 46.9964 89.9524 46.435C87.9627 46.9964 85.8164 46.9964 84.0461 46.9964H78.4922V45.6126H84.0461C85.8164 45.6126 87.9627 45.6126 90.2266 45.3517C92.8899 45.6126 95.663 45.6126 98.5692 43.96C101.726 45.6205 105.008 45.6205 108.713 45.2963C110.217 45.6205 112.003 45.6205 113.656 45.4703C115.309 45.32 116.837 45.0196 118.066 44.4107C119.774 44.814 121.349 45.0828 122.884 45.1698C124.419 45.2568 125.908 45.154 126.793 45.8814C128.978 44.4819 130.569 43.9125 131.242 47.0992C132.566 44.3395 133.138 44.98 133.788 47.8267C134.885 45.3438 136.068 45.067 138.143 47.4945C137.979 45.5572 139.632 45.494 141.95 46.5931C142.24 45.3833 143.172 45.4545 144.308 45.7628C144.958 45.3596 145.804 45.1935 146.556 44.8219C147.301 44.4423 147.951 43.8651 148.468 42.9953C148.985 42.1255 149.369 40.9552 149.815 39.5002C151.64 41.4692 153.387 42.8529 155.056 43.6516C158.401 45.2489 161.432 44.4898 165.905 42.2204C165.983 45.6205 169.289 45.6205 172.485 45.6205C175.681 45.6205 178.744 45.6205 181.556 45.5177C184.556 45.6205 187.298 45.6205 189.609 44.4977C192.374 45.6205 194.708 45.6205 197.144 44.7428C198.876 45.6205 200.709 45.6205 202.385 45.4782C204.03 45.6205 205.417 45.6205 206.153 45.4782C207.312 45.6205 207.814 45.6205 207.234 45.1777C208.331 45.6205 208.879 45.6759 208.354 44.8061C209.929 45.7707 210.43 45.8182 209.388 44.3949C210.79 45.8024 210.845 47.1862 208.91 45.5493C210.782 47.1941 210.72 47.1941 208.761 45.6284V45.6047Z" fill="currentColor"/>
<path d="M206.984 49.4239C208.347 49.9775 209.468 49.9854 210.102 49.3844C210.737 48.7835 210.893 47.5736 210.337 45.6759C214.896 47.3601 216.619 46.3006 215.335 42.505C216.619 46.3006 214.849 45.32 211.927 42.4971C211.316 43.3669 209.546 42.3864 209.334 42.1255C209.546 42.3864 209.593 44.4186 208.277 45.3438C208.982 46.9173 209.342 48.2062 209.186 48.9732C209.029 49.7402 208.355 49.9695 206.984 49.416V49.4239Z" fill="currentColor"/>
</svg>
