<svg width="143" height="143" viewBox="0 0 143 143" fill="none" xmlns="http://www.w3.org/2000/svg">
<path d="M66.4456 17.3232C67.3069 29.0634 67.2227 30.5012 61.387 23.1437C66.0942 32.3554 65.0498 40.2087 52.8488 40.5309C64.05 42.2117 64.0896 43.7932 57.6847 52.8512C62.6739 47.7397 61.2187 50.1046 57.6946 55.4045C59.5507 53.4412 59.3329 54.408 58.3083 56.6093C58.1351 57.3381 57.155 59.2964 56.1503 61.2994C54.8138 63.9667 53.4378 66.7084 52.0767 69.4253C50.7105 72.1472 49.3642 74.8393 49.0524 72.9851C46.7854 79.9806 45.5579 82.4248 40.0638 85.0872C43.3305 86.872 24.8039 105.33 21.3242 110.214C39.3361 93.0991 24.299 111.627 22.9527 113.823C23.3585 113.506 28.9368 106.024 23.9674 114.006C24.3336 113.456 40.6726 90.0153 26.1749 113.759C28.1548 111.022 29.219 110.338 28.9368 113.476C30.892 108.414 31.4958 107.174 30.5405 110.799C33.1787 106.099 34.8666 99.1527 37.3117 110.6C34.8468 105.623 48.8841 87.2835 50.5472 88.7164C49.483 86.8869 48.1268 90.6351 52.9429 93.2528C48.7059 90.1492 48.3 89.1824 52.4182 86.9613C49.2009 88.642 50.3591 89.1279 55.2841 89.9757C50.6858 88.8849 49.8493 88.1611 53.1062 85.7962C49.4484 88.1908 50.5126 88.6866 55.7097 88.8502C51.6708 88.1065 54.106 83.7486 57.7985 80.4417C54.5911 83.4709 52.636 87.5414 56.4373 87.4868C52.4924 87.5761 54.2991 83.5354 57.5263 80.5012C54.4129 83.2677 52.7201 87.0406 56.5611 86.5448C53.1804 86.7283 55.3336 82.6529 58.1846 80.0302C54.8881 82.4199 52.2895 86.2672 55.9325 85.6623C51.1362 86.525 52.5815 82.9355 56.2047 80.1641C52.6805 82.871 51.3293 86.401 56.0463 85.4789C52.6756 86.0738 55.3682 82.2166 58.4321 80.0104C55.8681 82.41 53.6754 86.4556 56.7145 86.2374C53.0765 86.8026 54.6703 83.0991 57.5758 80.4665C54.6109 83.3222 52.9478 87.2488 56.67 86.9712C53.3586 87.1051 55.4276 83.0446 58.2341 80.2979C54.9178 83.3123 52.334 87.6455 56.0067 88.1313C50.9036 88.2999 49.7157 87.9033 53.2398 85.5136C49.973 87.7744 51.3936 88.052 56.18 87.7793C52.5568 87.4521 54.6406 83.3024 57.551 80.4714C54.7643 83.0545 53.3982 86.6589 56.9323 86.0143C54.5416 86.1581 57.061 82.058 59.0953 80.0798C56.9571 81.6365 56.6848 82.0381 58.9864 81.4035C60.501 81.0664 42.9593 91.8646 57.0659 79.6088C55.2692 81.4234 55.8731 80.4367 57.9668 78.285C55.3237 79.2022 54.898 78.8403 56.7046 76.6341C53.6507 78.1413 52.829 77.7992 54.0813 74.5468C53.9229 77.695 55.5018 77.9082 57.6698 77.0109C56.2294 78.5131 55.3732 78.9048 55.8236 76.8472C55.5513 79.1477 57.6797 78.88 59.5606 78.3544C59.9467 78.528 60.0853 78.4387 59.6843 78.1611C58.1351 78.4288 56.0414 78.5081 55.5167 76.0441C55.586 78.2355 57.7738 77.8537 59.62 77.1993C60.8624 76.877 61.7682 76.287 62.0899 75.4442C62.7333 73.7585 61.0405 71.0763 57.4718 66.2176C64.8221 72.8661 64.6637 70.8135 62.7086 62.8215C65.1389 71.463 65.6685 73.6742 60.9713 64.0361C66.4159 75.8656 66.6288 75.8408 64.8172 62.8463C66.9257 73.5503 67 71.2845 67.0297 62.1472C67 71.2895 66.9554 73.5503 66.3021 62.6827C67.1287 75.8557 67.3514 66.8274 70.7865 54.051C68.2423 64.7055 68.9155 62.5438 71.6032 53.7436C69.3016 62.7818 69.0195 74.2543 79.3346 69.3163C76.0876 72.0133 74.0236 73.8924 73.1178 75.2905C72.212 76.6886 72.4694 77.6008 73.7811 77.4124C74.5235 78.2702 75.5332 78.8502 76.8251 79.1378C78.2457 79.5146 79.9533 79.5989 81.161 78.4189C79.889 79.5047 78.4684 79.3807 77.5181 78.9543C76.8746 78.756 76.7014 78.2553 76.9835 77.5413C77.132 77.8537 77.7359 77.9479 78.5229 77.7942C79.6167 77.9132 80.8938 77.7843 81.854 76.877C81.1957 77.9677 80.2206 78.285 79.1911 78.1065C78.8644 78.5825 78.4882 78.5676 78.3298 78.0867C78.1318 79.3906 78.1467 80.2384 78.1219 80.3029C79.3297 81.1655 80.4978 81.2548 81.067 79.5889C80.2503 81.7258 78.8396 82.1125 77.3844 81.5721C77.2359 81.6911 77.0478 80.8829 77.1815 79.232C76.9439 81.2796 77.033 82.4843 77.0429 82.6479C78.5476 83.4115 79.9731 83.1338 80.5918 80.8284C79.9335 83.228 79.1515 83.9816 78.0427 83.7139C79.9781 84.4923 81.5818 84.2493 81.8788 81.6812C81.8243 84.3733 80.4483 84.7352 78.1714 83.7783C79.1069 83.9271 79.1515 82.7471 78.9485 80.0599C78.7555 82.5736 78.315 83.58 77.5131 83.3767C79.0129 84.0014 80.1464 83.4164 80.5572 80.8433C80.0771 83.2082 78.8693 83.585 77.424 82.8314C77.9338 82.8611 78.2011 81.7555 78.4734 79.4848C78.6021 81.5176 78.7357 82.3852 78.2457 82.0084C80.0969 82.8165 81.3293 82.3802 81.5719 79.8963C81.4234 82.4447 80.2948 82.9355 78.4288 82.1224C79.1564 82.6083 79.1465 81.7853 78.9634 79.6137C78.8099 82.058 78.4783 83.1487 77.6963 83.0148C79.2505 83.8031 80.3493 83.3619 80.6364 80.8681C79.9286 83.3222 79.097 84.1006 77.9883 83.8775C79.9385 84.6658 81.6065 84.4526 81.9777 81.9439C81.9777 84.7947 81.0819 85.5086 79.0277 85.2012C81.5471 85.9697 82.8984 85.7119 82.7746 83.4115C83.7646 86.2424 83.2201 86.996 80.676 87.1546C83.8042 87.6504 84.9327 87.5513 84.7694 86.7382C85.6207 87.9677 85.1752 88.4833 82.7845 89.5245C85.6653 89.113 86.6057 89.2221 86.9522 90.5359C88.3628 90.2979 112.206 122.593 114.68 126.228C114.68 124.225 75.2462 70.1343 118.591 127.854C69.6679 59.4204 120.358 127.407 121.348 128.647C115.071 119.177 95.0053 93.3371 125.609 128.26C123.728 125.677 97.3416 97.6455 110.978 104.919C107.86 101.562 91.5306 86.8423 91.1 82.3306C89.3033 82.3951 88.0758 79.9509 86.3879 75.8656C85.5019 74.8096 84.1507 72.1175 82.7895 69.4006C81.4283 66.6836 80.0523 63.9419 78.7159 61.2697C77.7111 59.2667 76.7311 57.3083 76.5925 56.7283C75.5134 54.4278 75.2808 53.5057 77.0825 55.6921C73.6128 50.169 72.1724 47.7545 76.7311 53.3767C70.6281 43.7486 70.5192 42.1571 81.6511 40.293C69.5194 40.1541 68.6235 32.3158 70.3905 22.2662C67.5147 30.4714 67.3069 29.0337 66.4456 17.2935V17.3232Z" fill="currentColor"/>
</svg>
