<svg width="143" height="143" viewBox="0 0 143 143" fill="none" xmlns="http://www.w3.org/2000/svg">
<path d="M71.4983 22.9471C71.7552 30.1458 71.783 41.4192 69.0756 27.7717C69.3255 30.4512 69.5755 32.8947 69.7837 35.0606C69.992 37.2264 70.1516 39.1146 70.2072 40.6626C70.3252 43.7725 70.3182 49.2426 68.9576 45.6121C68.8466 48.8469 68.0066 47.2573 66.7571 44.7513C66.0559 45.3483 64.3968 42.1065 62.828 40.2114C64.3552 42.1898 66.5905 48.2847 66.8612 46.5006C68.3814 51.4154 69.3255 55.4486 68.3676 48.7845C69.6657 56.6148 70.5195 63.5566 69.0826 54.1435C70.2905 64.348 69.631 62.9943 65.9032 53.2411C68.4231 61.8836 69.3603 65.5281 66.3822 57.7533C68.9576 66.0209 67.8747 64.6326 62.8141 56.8647C67.0347 64.7159 66.3058 64.5562 60.3012 58.0865C64.494 64.3133 59.9402 60.7868 54.2826 57.2187C59.9055 60.8632 64.4177 64.4451 59.8569 58.503C65.9379 64.9033 66.5974 65.3823 61.1619 58.3572C67.9233 66.2639 67.5831 66.2014 59.6209 59.0722C66.2434 65.9446 68.1801 68.1659 62.5295 62.4667C68.1038 68.6727 67.0209 68.2423 58.9822 63.6052C66.4794 68.631 66.049 68.8324 57.6633 65.6114C64.7717 69.3252 60.5025 68.5963 52.2764 67.4509C59.8916 69.832 54.7546 70.7136 48.4931 71.9215C52.3319 73.0113 47.2158 74.5455 44.9736 75.7672C45.3137 78.3357 41.9469 81.7996 40.51 84.6527C39.073 87.5127 37.7055 90.2408 36.4282 92.7815C31.3259 102.937 27.7578 110.046 27.7578 110.046C27.7578 110.046 38.4552 103.222 49.1595 96.3982C50.4993 95.5444 52.1584 94.3087 53.1511 93.8506C54.7477 92.6566 58.1006 89.0816 57.0177 91.3862C60.2248 87.721 63.5708 83.4587 60.7593 88.8386C65.1327 82.3897 67.0833 79.5227 63.8693 87.0199C68.0621 78.898 69.9017 74.7121 67.3679 82.3897C70.4571 73.9068 70.6931 73.4556 68.8466 81.9385C70.9013 73.2126 71.1165 72.2061 70.825 77.7873C71.1582 72.5879 71.1721 72.5323 71.0263 77.0306C71.1512 72.9419 71.0749 74.2747 70.5542 82.7507C71.0749 74.2747 71.1582 72.928 71.1929 76.9612C71.2276 72.5115 71.2623 72.5532 71.6649 77.6346C71.3248 72.1575 71.4706 73.1224 72.6021 81.9315C71.6511 73.3376 71.8385 73.5667 74.5666 81.8621C72.2481 74.2817 73.7128 78.3565 77.5308 87.006C74.6499 78.9327 76.2951 81.4456 80.724 88.4499C77.8709 82.6326 81.328 87.3947 84.6878 91.3793C83.5077 88.7275 86.9856 92.5247 88.721 93.8436C89.6651 94.163 91.4908 95.5374 92.8861 96.3913C104.056 103.215 115.218 110.039 115.218 110.039C115.218 110.039 111.65 102.93 106.548 92.7746C105.27 90.2339 103.903 87.5058 102.466 84.6458C101.029 81.7857 98.1133 78.4467 98.0023 75.7603C96.1766 74.5871 89.7484 72.8725 93.622 71.6993C86.8467 70.4776 82.994 69.5196 90.9216 67.3329C82.8691 68.3742 77.7876 69.3044 84.8822 65.6877C76.4132 68.8601 75.955 68.6866 83.591 63.8065C75.4899 68.3117 74.5458 68.631 80.4811 62.55C74.6083 68.0479 77.0726 65.4587 83.8132 58.8501C75.6496 65.889 74.636 66.7012 81.7167 59.1C75.8509 65.889 76.5034 65.3823 82.8344 59.0653C78.0167 64.8061 83.1259 60.766 88.7002 57.2187C83.1051 60.7243 78.0445 64.6465 82.5845 58.6696C76.3368 64.9866 75.6912 65.1463 80.5366 57.5936C74.997 65.0352 73.9627 66.1528 77.3087 58.1073C73.6711 65.535 75.0595 61.599 78.0792 53.2828C73.9141 62.7999 73.0117 64.577 75.3997 54.5809C72.7826 63.7649 74.2057 56.5315 75.7467 48.8331C74.4556 55.3653 75.4899 51.5542 76.9824 46.695C76.906 48.3055 78.9469 42.1967 80.1548 40.2044C78.9122 42.1412 77.4683 45.4594 77.0171 44.9595C75.8856 47.4933 75.0803 49.083 75.1706 45.7787C73.8239 49.6661 73.8586 43.9808 73.7614 40.85C73.7128 39.2812 73.7267 37.3791 73.7614 35.1786C73.803 32.985 73.8586 30.4929 73.9002 27.7647C72.4771 41.808 71.7344 30.1388 71.4775 22.9402L71.4983 22.9471Z" fill="currentColor"/>
</svg>
