<svg width="143" height="143" viewBox="0 0 143 143" fill="none" xmlns="http://www.w3.org/2000/svg">
<path d="M41.5026 84.1212C40.9632 84.1212 40.479 83.5601 39.8704 82.2338L36.2188 74.2666L40.6865 81.8025C41.0047 82.3404 41.3136 82.6465 41.5303 82.6465C41.5902 82.6465 41.6548 82.6233 41.7239 82.5862C41.8392 82.2152 41.9775 81.6494 42.1435 80.7822L42.2726 80.1191L42.8443 80.4762C42.9642 80.5504 43.1717 80.402 43.4114 80.1655L43.4668 80.1098C43.7019 79.8687 43.9601 79.5533 44.1768 79.2844C44.2829 79.1545 44.3935 79.02 44.5042 78.8855C45.0621 78.2966 45.5139 77.8838 45.7306 77.6844C45.7814 77.6381 45.8182 77.6056 45.8367 77.587C46.3992 76.9239 46.9525 76.5251 47.8054 76.743L48.557 76.9332L48.0314 77.5082C46.6113 79.0618 45.2235 80.235 44.1031 80.8286C43.5221 81.886 43.0288 82.7022 42.5031 83.1613C42.2726 83.7549 41.996 84.0609 41.6041 84.1119C41.5718 84.1119 41.5395 84.1166 41.5072 84.1166L41.5026 84.1212Z" fill="currentColor"/>
<path d="M66.4084 105.18L66.0995 105.031C65.8136 104.874 65.7398 104.619 65.749 104.378C65.7029 104.401 65.6476 104.424 65.5923 104.452L65.1727 104.665L62.9273 99.9952L63.3376 99.7912C63.393 99.7633 63.4483 99.7402 63.5036 99.7216C63.4483 99.5779 63.3838 99.397 63.2962 99.179C63.0011 98.4231 62.5538 97.338 61.9268 95.854L61.8899 95.7195C61.8484 95.3253 61.7977 94.9311 61.7377 94.5416L61.7285 94.4767C60.8663 89.0276 58.0676 83.9543 53.586 79.7435L52.7745 78.9783L53.8857 78.9412C54.9692 78.8902 55.8775 79.34 56.7582 79.7574C57.6204 80.1701 58.3857 80.5365 59.2065 80.402C58.6486 79.8316 58.0768 79.4049 57.2331 79.4049H56.6429L56.7858 78.8299C56.8642 78.5099 57.0763 78.3661 57.1916 78.2919C57.2146 78.278 57.2469 78.2548 57.2561 78.2456L57.3852 77.754L57.8694 77.8978C58.8238 78.2456 59.7321 78.714 60.4882 79.2519C60.6404 79.3029 61.2859 79.4559 63.9463 79.9151C67.7547 80.5782 73.2922 81.45 73.3475 81.4593L79.8163 82.4842L73.2691 82.3822C73.2046 82.3822 66.7496 82.2848 63.5451 82.4146C62.7798 82.4471 62.3786 82.4842 62.1665 82.512V82.5584L61.8023 82.628C60.0272 82.9758 58.7177 82.3358 57.4498 81.7144C57.2838 81.6309 57.1178 81.5521 56.9564 81.4732C59.6814 84.9931 62.5907 89.241 62.6507 94.3097L63.4391 96.16C65.0851 100.018 65.9704 102.119 66.4084 103.292C66.5236 103.32 66.6251 103.385 66.6942 103.483C66.8648 103.714 66.7865 103.965 66.7219 104.169C66.7219 104.178 66.7219 104.183 66.7127 104.192C66.8648 104.735 66.7772 104.818 66.6435 104.943L66.4084 105.166V105.18ZM64.3382 100.797L64.7209 101.595C64.6148 101.335 64.5042 101.066 64.3889 100.797H64.3382ZM58.856 81.3573C59.6629 81.6958 60.4928 81.9092 61.4841 81.7468C61.77 81.5845 62.3694 81.5335 63.5036 81.4918C64.541 81.4501 65.915 81.4315 67.3029 81.4222C66.1041 81.2228 64.8776 81.0188 63.7895 80.8286C61.3135 80.3973 60.5205 80.2258 60.23 80.1376C60.2807 80.1887 60.3269 80.2443 60.373 80.2953L60.7879 80.7544L60.23 81.0234C59.7505 81.2553 59.2941 81.3527 58.856 81.3527V81.3573ZM64.2229 104.971C63.9417 104.971 63.8264 104.739 62.3048 101.683C62.0928 101.261 61.8484 100.77 61.5856 100.218C61.4242 99.8932 61.2536 99.5454 61.0646 99.1651L61.0323 99.077C61.0231 99.0445 61.0139 99.0167 61.0092 98.9843C60.9262 98.7988 60.8386 98.6133 60.7557 98.4231L60.7234 98.3489V98.2655C60.7049 98.0846 60.6911 97.9037 60.6727 97.7229C60.5989 97.4214 60.5297 97.1061 60.4698 96.7536V96.698C60.4467 96.276 60.4145 95.8586 60.373 95.4412C59.4739 90.2195 57.2239 85.9855 54.1162 83.8198C52.8022 82.9016 51.2023 82.2338 49.2243 81.77C48.9476 81.9045 48.7494 81.8396 48.6203 81.7468C48.2745 81.4964 48.4312 81.0373 48.482 80.8889L48.6157 80.504L49.0122 80.5875C50.981 81.0002 52.7146 81.6819 54.1623 82.6141C57.9985 85.0858 60.7095 89.9783 61.2905 95.3253C61.415 96.058 61.5164 96.8047 61.5856 97.5698C61.6547 97.8388 61.7239 98.0939 61.7931 98.3489C61.8253 98.4556 61.853 98.5622 61.8807 98.6689C62.0605 99.0631 62.2403 99.4387 62.4063 99.7912C63.0426 101.076 63.9324 102.857 64.1768 103.297C64.3751 103.408 64.5364 103.585 64.6425 103.812C64.7808 104.099 64.8039 104.392 64.707 104.665L64.6056 104.953L64.3013 104.971C64.2736 104.971 64.2506 104.971 64.2275 104.971H64.2229Z" fill="currentColor"/>
<path d="M50.2539 118.485L55.358 102.217C55.9804 100.241 56.6858 98.3628 57.3682 96.5496L57.4189 96.4151C57.4189 94.5184 57.4189 92.5614 57.193 90.609C56.6858 88.601 55.9481 86.7785 55.0075 85.1925C54.7493 84.9652 54.6018 84.7519 54.5511 84.5247L54.3436 83.6157L55.192 83.996C55.4225 84.098 55.6392 84.2093 55.8513 84.3299L55.4963 83.2355L56.9809 84.956C57.1607 85.1646 57.3406 85.3826 57.5112 85.6052C58.6869 86.8017 59.4108 88.3367 59.9318 90.0201C60.5727 91.7452 60.983 93.6187 61.1306 95.5711C61.3611 96.8046 61.6055 97.9779 61.9513 99.0538L62.8596 100.895C64.5748 104.364 66.5066 108.273 66.8847 108.95C67.083 109.061 67.2444 109.238 67.3504 109.465C67.5256 109.827 67.4795 110.128 67.4149 110.318L67.3135 110.606L67.0092 110.624C66.7817 110.64 66.2208 109.751 65.3263 107.958C64.5886 106.483 63.5973 104.48 62.5507 102.36L60.6925 98.5901C60.4666 97.7136 60.273 96.8928 60.2222 95.7659C60.2222 95.7427 60.2222 95.7148 60.2176 95.6917C60.1623 95.3995 60.107 95.1073 60.0563 94.8152C59.7704 93.2524 59.4799 91.671 59.0235 90.2195C58.6777 89.3152 58.2673 88.4572 57.7924 87.6596C58.0552 88.754 58.2627 89.8577 58.4102 90.9522C58.5624 93.1318 58.4794 95.2465 58.3918 96.8464L58.3641 96.9809C58.0137 97.9315 57.6449 98.873 57.276 99.8236C56.9302 100.705 56.5844 101.6 56.2386 102.518L50.2631 118.48L50.2539 118.485ZM67.8806 110.318L66.9954 108.51L67.4057 108.306C67.4611 108.278 67.5118 108.255 67.5625 108.236C66.9078 106.515 64.8744 101.859 63.1915 97.9965L62.6152 96.6794C62.3939 96.0719 62.1772 95.5247 61.9651 94.9821L61.7991 94.5416C61.0891 90.6786 59.9272 87.3813 58.3503 84.7426L56.423 81.515L59.0742 84.1769C59.5537 84.6592 60.0517 85.1044 60.5404 85.5403C61.3196 86.2359 62.1219 86.9547 62.8503 87.8219C62.8734 87.6225 62.8319 87.4092 62.7166 87.1727C62.629 86.9872 62.4123 86.5883 61.9559 85.9808C61.8129 85.7629 61.6055 85.5867 61.3795 85.4012C60.8816 84.9931 60.2038 84.4366 60.3467 83.3746L60.4528 82.6094L61.0752 83.0639C61.7253 83.5369 62.3063 84.0795 62.8227 84.5618C62.9656 84.6963 63.1039 84.8261 63.233 84.942C63.8094 85.2713 64.2428 85.7304 64.5148 86.3008C64.7638 86.8202 64.8837 87.3442 64.8698 87.8497C64.856 88.3738 64.7039 88.8561 64.4226 89.2781C64.1413 89.7001 63.7494 90.034 63.2469 90.2751L62.9472 90.4189L62.7166 90.1731C62.4446 89.8856 62.2002 89.5609 61.9651 89.2317C62.0435 89.5563 62.108 89.8809 62.1726 90.2148C62.274 90.7389 62.3847 91.2768 62.5414 91.8379C62.7397 92.7562 62.9103 93.4935 63.1224 94.1845C63.8878 95.8076 64.7868 97.6858 65.6859 99.5639C70.4995 109.627 70.4811 109.65 70.1214 109.998L69.8863 110.23L69.5728 110.077C69.2454 109.896 69.0656 109.868 68.9826 109.868C68.8996 109.868 68.7013 109.901 68.2956 110.105L67.8806 110.314V110.318ZM67.0138 104.498C68.5446 108.083 68.7428 108.718 68.6737 108.983C68.7843 108.959 68.8904 108.945 68.9826 108.945C69.0103 108.945 69.0379 108.945 69.0656 108.945C68.6691 108.013 67.8945 106.358 67.0138 104.498ZM62.8273 88.8514C62.9333 88.9952 63.0394 89.1389 63.15 89.2688C63.3575 89.1297 63.5281 88.9581 63.6618 88.7633C63.8509 88.4851 63.9431 88.179 63.9523 87.8265C63.9615 87.4648 63.8739 87.0892 63.6895 86.7043C63.542 86.3936 63.3299 86.1339 63.0532 85.9252C63.3068 86.2962 63.459 86.5837 63.5512 86.7738C63.7909 87.2701 63.8417 87.757 63.7079 88.2254C63.5927 88.6288 63.3575 88.7772 63.1823 88.8375C63.0717 88.8746 62.9518 88.8792 62.8319 88.8561L62.8273 88.8514Z" fill="currentColor"/>
<path d="M77.8634 131.247L76.5309 128.437C76.5309 128.437 76.2497 127.848 75.89 127.059C75.678 126.596 75.3875 126.007 75.0555 125.32C74.825 124.847 74.5714 124.328 74.3086 123.776C73.8844 122.886 73.4833 122.051 73.1375 121.323L71.8787 118.661L64.4739 86.5234L66.9038 91.62L73.451 114.381C73.6585 115.104 73.8798 115.897 74.1011 116.834C74.4515 117.947 74.7973 119.037 75.1385 120.108C75.7702 122.097 76.3834 124.026 77.0335 126.146C77.2963 127.361 77.4116 128.131 77.4162 128.163L77.8773 131.242L77.8634 131.247ZM72.7594 118.401L73.9628 120.919C74.3086 121.647 74.7097 122.482 75.1339 123.373C75.1892 123.484 75.2399 123.591 75.2907 123.702C74.9449 122.594 74.599 121.504 74.244 120.395C73.9028 119.319 73.557 118.23 73.1974 117.084C72.9715 116.134 72.7548 115.35 72.5519 114.64L69.2184 103.051L72.7548 118.401H72.7594ZM69.1907 115.382C68.9187 115.382 68.8172 115.183 67.5862 112.716C66.8531 111.246 65.8618 109.247 64.8151 107.128C63.9114 105.3 62.9616 103.381 62.0948 101.637C61.5185 100.473 60.9744 99.3877 60.5087 98.4602L60.4488 98.3443L60.458 98.2144C60.4672 98.0614 60.4765 97.913 60.4765 97.76C60.3889 97.324 60.3059 96.8696 60.269 96.3502V96.2853L60.2782 96.225C60.2874 96.1693 60.2966 96.1137 60.3059 96.058C60.2044 95.4969 60.0707 94.9265 59.9324 94.3422C59.7434 93.5306 59.5497 92.7051 59.4391 91.8658C59.3561 91.4345 59.3192 90.9939 59.3515 90.5534L60.269 78.9829V90.5905C60.269 90.9661 60.3013 91.351 60.352 91.7359C60.4442 92.1997 60.5871 92.6773 60.7393 93.1643C61.0251 94.101 61.3248 95.0656 61.2326 96.0348C61.3248 96.5774 61.3848 97.12 61.394 97.6579C61.4078 97.7229 61.4217 97.7878 61.4355 97.8527C61.477 98.0475 61.5185 98.2423 61.5554 98.4509C62.5974 100.542 63.8515 103.074 65.0364 105.477C66.8761 109.191 68.7711 113.026 69.14 113.699C69.3382 113.81 69.4996 113.986 69.6057 114.214C69.7809 114.575 69.7348 114.877 69.6702 115.067L69.5688 115.359L69.2599 115.378C69.2322 115.378 69.2091 115.378 69.1815 115.378L69.1907 115.382Z" fill="currentColor"/>
<path d="M47.3495 104.378C47.3357 104.285 47.3218 104.197 47.3126 104.104C47.1697 104.072 47.0268 103.997 46.9391 103.849L47.2527 103.659C47.2204 103.432 47.1927 103.204 47.1605 102.977L47.0821 102.37C47.0682 102.263 47.059 102.156 47.0406 102.05C47.036 102.012 47.0221 101.971 47.0083 101.934C46.9714 101.813 46.9207 101.665 46.9299 101.484C46.953 101.025 46.9115 100.566 46.87 100.079C46.8054 99.3552 46.7363 98.6086 46.8884 97.8434C46.7547 97.1525 46.8331 96.4893 46.9161 95.8493C46.9668 95.4551 47.0129 95.0841 47.0083 94.7132V94.6158C46.9991 94.5091 46.9899 94.3746 47.0175 94.2309C47.2158 93.1411 47.4141 92.0513 47.6308 90.9615C47.7276 90.4745 47.829 90.0896 47.9581 89.7464C48.0734 89.4404 48.2071 89.1528 48.3408 88.87C48.4192 88.703 48.493 88.5407 48.5667 88.3738C48.6589 88.1558 48.7465 87.9286 48.8203 87.6921C48.8803 87.4973 48.9402 87.2979 48.9955 87.1031C49.0693 86.848 49.1431 86.593 49.2261 86.3425C49.2768 86.1895 49.3459 86.0365 49.4105 85.8881C49.452 85.7907 49.4981 85.6933 49.535 85.5959C49.6733 85.2249 49.6502 84.9745 49.4474 84.5942L49.3413 84.3995C49.0601 83.8754 48.7927 83.3792 48.3685 82.9897C48.1195 82.7578 47.9489 82.4703 47.7829 82.1874C47.7137 82.0715 47.6446 81.9509 47.5616 81.8257C47.4878 81.7144 47.4648 81.5753 47.5017 81.4454C47.5385 81.3156 47.6261 81.2089 47.746 81.1486L48.0457 81.0048C48.2394 80.9121 48.41 80.8333 48.5713 80.7451L48.705 80.6756C48.871 80.5875 49.0232 80.5086 49.12 80.4113C49.7425 79.7806 50.494 79.4327 51.1487 79.1777C51.347 79.0989 51.5452 79.0015 51.7527 78.8994C51.9003 78.8252 52.0432 78.7557 52.1954 78.6861L52.4074 78.5887C52.6795 78.4589 52.9653 78.329 53.2743 78.2456C53.8736 78.0833 54.3624 77.7864 54.7681 77.3413C54.8511 77.2439 54.9249 77.1558 55.0402 77.0908C55.5197 76.808 55.8885 76.3859 56.285 75.9407C56.5571 75.6347 56.8383 75.3193 57.1611 75.0411C57.5714 74.6886 58.0002 74.3501 58.4152 74.0208C58.9039 73.6359 59.4065 73.2418 59.8722 72.8244C60.0013 72.7084 60.1534 72.6528 60.2503 72.6203C60.2733 72.6111 60.2917 72.6064 60.3102 72.5971C60.4255 72.5415 60.5592 72.5415 60.679 72.5925C60.8035 72.6296 61.0018 72.6945 61.094 72.9171C61.3292 73.469 61.7165 73.9374 62.1268 74.4289C62.4818 74.8556 62.8553 75.2961 63.1366 75.8202C63.2288 75.9871 63.2749 76.0149 63.2749 76.0149C63.2749 76.0149 63.3348 76.0289 63.5515 75.9454C64.114 75.7228 64.6765 75.7042 65.3727 75.8851C65.5572 75.9315 65.8015 75.9268 66.069 75.8712C66.5577 75.7692 67.134 75.6996 67.6873 76.0057C67.9363 76.1402 68.1346 76.1633 68.3789 76.0891C68.9599 75.9036 69.4855 76.0752 69.9235 76.27C70.1356 76.3628 70.4399 76.488 70.6612 76.4694C71.2883 76.4138 71.837 76.5065 72.3487 76.7477C72.464 76.8033 72.6069 76.8729 72.6669 76.8729C73.6905 76.8729 74.5988 77.2068 75.4748 77.5453C75.7653 77.6566 76.0604 77.7679 76.3554 77.8699C76.692 77.9812 77.0378 78.2224 77.3052 78.5284C77.4851 78.7371 77.6049 78.7603 77.7571 78.7742C78.0107 78.7789 78.338 78.7881 78.6377 78.9226C79.4907 79.3075 80.1731 79.6414 80.7771 79.9707C81.0491 80.1191 81.3442 80.2768 81.584 80.5179C81.7223 80.5365 81.8791 80.5828 81.9943 80.6941C82.1742 80.8704 82.2203 81.0976 82.2664 81.3156C82.2848 81.3944 82.3033 81.4871 82.3309 81.5892C82.3724 81.7422 82.3355 81.8999 82.2341 82.0204C82.1327 82.141 81.9759 82.1967 81.8237 82.1735C81.7223 82.1596 81.6255 82.1549 81.5379 82.1457C81.2889 82.1317 81.0076 82.1132 80.8278 81.8767C80.6342 81.6216 80.648 81.2692 80.7218 81.0095C80.6203 80.9446 80.5051 80.8796 80.3714 80.8054C79.7489 80.4669 79.0896 80.1423 78.2597 79.7666C78.1029 79.6971 77.8493 79.6971 77.7617 79.6971C77.1761 79.6971 76.8396 79.3957 76.6136 79.136C76.4569 78.9551 76.2494 78.8113 76.0696 78.751C75.7607 78.649 75.4564 78.5331 75.1474 78.4125C74.3313 78.0972 73.5614 77.8004 72.7222 77.8004C72.7038 77.8004 72.6853 77.8004 72.6669 77.8004C72.3995 77.8004 72.1689 77.6891 71.9799 77.601C71.5926 77.4155 71.2053 77.3552 70.7396 77.3923C70.32 77.4294 69.9005 77.2763 69.55 77.1187C69.1489 76.9424 68.8953 76.9007 68.6602 76.9749C68.1807 77.1326 67.715 77.0816 67.2447 76.8265C66.968 76.6735 66.6637 76.6967 66.258 76.7848C65.9721 76.845 65.548 76.8961 65.1422 76.7894C64.6396 76.6595 64.2662 76.6688 63.8881 76.8126C63.1596 77.1001 62.6801 76.9285 62.3251 76.27C62.0899 75.8294 61.7626 75.4445 61.4214 75.0318C61.0571 74.5912 60.679 74.1414 60.3978 73.6035C59.9413 74.0069 59.4526 74.3872 58.9823 74.7628C58.5766 75.0828 58.1524 75.4167 57.7559 75.7552C57.4792 75.9918 57.2302 76.27 56.972 76.5668C56.5479 77.0445 56.1098 77.5407 55.5058 77.8978C55.5197 77.8978 55.5058 77.9117 55.492 77.9256L55.4459 77.9766C54.9249 78.547 54.2748 78.9412 53.5094 79.1499C53.2743 79.2148 53.0391 79.3214 52.7901 79.4374L52.5642 79.5394C52.4259 79.5997 52.2922 79.6693 52.1539 79.7388C51.9372 79.8455 51.7112 79.9568 51.4761 80.0542C50.8813 80.286 50.2635 80.5736 49.7655 81.079C49.5719 81.2738 49.3321 81.399 49.1246 81.5103L49.0047 81.5753C48.8756 81.6448 48.7419 81.7097 48.599 81.7793C48.7281 81.9973 48.8434 82.1874 48.9817 82.3126C49.5211 82.8088 49.8347 83.3978 50.1436 83.9682L50.2496 84.1629C50.5862 84.7797 50.6277 85.3084 50.3926 85.9345C50.3465 86.0504 50.2957 86.1663 50.245 86.2823C50.1897 86.4028 50.1344 86.5188 50.0975 86.644C50.0191 86.8851 49.9453 87.1263 49.8762 87.3721C49.8162 87.5761 49.7563 87.7802 49.6917 87.9796C49.6087 88.2439 49.5119 88.5036 49.4059 88.7494C49.3275 88.9256 49.2491 89.0972 49.1661 89.2734C49.037 89.5517 48.9125 89.8114 48.8111 90.0803C48.7004 90.3725 48.6128 90.711 48.5252 91.147C48.3131 92.2275 48.1149 93.3126 47.9166 94.4024C47.912 94.4349 47.9166 94.5045 47.9166 94.5694C47.9166 94.6158 47.9212 94.6621 47.9212 94.7085C47.9258 95.1444 47.8751 95.5618 47.8244 95.9699C47.746 96.5867 47.6769 97.171 47.8014 97.7414C47.829 97.8759 47.8014 97.9826 47.7875 98.0243C47.6584 98.6457 47.7137 99.2903 47.7783 99.9767C47.7967 99.9767 47.8106 99.9813 47.829 99.9859C47.8751 99.9952 47.9258 100.004 47.9858 100.014C48.1518 100.037 48.2901 100.148 48.35 100.306C48.41 100.464 48.3823 100.64 48.2716 100.77C48.2301 100.816 48.1979 100.862 48.1702 100.9C48.0964 101.002 48.0042 101.131 47.8475 101.201C47.8475 101.317 47.8475 101.428 47.8382 101.544C47.8382 101.563 47.8567 101.623 47.8705 101.665C47.8936 101.744 47.9166 101.822 47.9304 101.901C47.9535 102.026 47.9673 102.147 47.9812 102.272L48.0595 102.866C48.0688 102.931 48.078 102.996 48.0872 103.056L48.1702 103.028C48.2394 103.228 48.2394 103.478 48.1702 103.701C48.1979 103.886 48.2209 104.072 48.2486 104.257L47.3357 104.392L47.3495 104.378ZM47.5478 103.214C47.5109 103.223 47.4648 103.246 47.4141 103.288L47.5754 103.232C47.5754 103.232 47.557 103.223 47.5478 103.218V103.214ZM50.3511 104.238C50.3511 104.238 50.3326 104.238 50.328 104.238C50.0929 104.234 49.9177 104.155 49.8116 104.007C49.6364 103.761 49.4889 103.269 49.7102 102.935C49.8716 102.685 50.1482 102.643 50.3926 102.601C50.4756 102.588 50.5678 102.574 50.6692 102.546C50.8168 102.509 50.9781 102.546 51.0888 102.652C51.2041 102.754 51.2594 102.912 51.2363 103.065C51.2225 103.163 51.2133 103.255 51.2087 103.334C51.1902 103.557 51.1718 103.784 51.015 103.979C50.8352 104.211 50.5078 104.238 50.3557 104.238H50.3511ZM83.1608 103.445C83.1608 103.445 83.1193 103.445 83.0963 103.445C82.5384 103.422 82.022 103.098 81.6808 102.564C81.6209 102.467 81.5655 102.36 81.524 102.249C81.2705 101.59 81.4411 100.862 81.9667 100.343C82.4969 99.8236 83.2623 99.6613 83.917 99.9349C84.1521 100.032 84.3366 100.158 84.4841 100.311C84.9775 100.835 84.8991 102.193 84.4703 102.754C84.1337 103.195 83.6588 103.445 83.1562 103.445H83.1608ZM83.2577 100.728C82.9995 100.728 82.7643 100.858 82.6122 101.006C82.3494 101.261 82.2664 101.604 82.3862 101.915C82.4093 101.971 82.4324 102.017 82.46 102.064C82.6352 102.342 82.8842 102.509 83.1378 102.518C83.3637 102.527 83.5758 102.416 83.7464 102.189C83.9539 101.915 83.9493 101.108 83.8202 100.946C83.7648 100.89 83.6865 100.839 83.5712 100.793C83.4652 100.746 83.3591 100.728 83.2577 100.728ZM53.597 101.535C53.597 101.535 53.5601 101.535 53.5417 101.535C53.4495 101.521 53.3526 101.521 53.2696 101.516C52.993 101.502 52.6518 101.488 52.5181 101.159C52.4167 100.913 52.4489 100.672 52.472 100.473C52.4766 100.417 52.4858 100.366 52.4904 100.311C52.495 100.185 52.555 100.069 52.6472 99.9859C52.7394 99.9025 52.8593 99.8654 52.9884 99.87C53.0299 99.87 53.0806 99.87 53.1313 99.87C53.3296 99.87 53.6108 99.8607 53.8275 100.051C54.0489 100.25 54.0535 100.524 54.0535 100.77C54.0535 100.848 54.0535 100.932 54.0627 101.025C54.0765 101.164 54.0258 101.303 53.9244 101.4C53.8368 101.484 53.7215 101.53 53.6016 101.53L53.597 101.535ZM50.1805 101.345C50.0883 101.345 50.0007 101.317 49.9269 101.266C49.8208 101.196 49.7517 101.085 49.7286 100.96C49.724 100.932 49.7148 100.9 49.7056 100.867C49.6595 100.695 49.5765 100.408 49.7793 100.171C49.9269 99.9998 50.1251 99.9349 50.2957 99.8746C50.3511 99.8561 50.4156 99.8329 50.4848 99.8051C50.6231 99.7494 50.7845 99.7633 50.909 99.8468C51.0335 99.9303 51.1118 100.069 51.1164 100.222C51.1164 100.297 51.1257 100.362 51.1303 100.422C51.1533 100.631 51.181 100.913 50.9412 101.108C50.7614 101.252 50.5493 101.284 50.3972 101.308C50.3603 101.312 50.3188 101.317 50.2819 101.326C50.2496 101.335 50.2127 101.34 50.1805 101.34V101.345ZM53.3204 98.6689C53.1774 98.6689 53.0483 98.6364 52.993 98.6225C52.7118 98.5437 52.6057 98.3767 52.5688 98.2469C52.4904 97.9872 52.5043 97.5976 52.6979 97.3148C52.8823 97.0458 53.182 97.069 53.4264 97.0829C53.5002 97.0829 53.5832 97.0922 53.6754 97.0922C53.8275 97.0829 53.9613 97.1617 54.0489 97.2777C54.1365 97.3982 54.1641 97.5513 54.118 97.695C54.095 97.7739 54.0765 97.8481 54.0581 97.9176C54.012 98.117 53.9566 98.3443 53.7722 98.5159C53.6385 98.6364 53.4679 98.6689 53.3158 98.6689H53.3204ZM50.6 98.5251C50.5724 98.5251 50.5401 98.5251 50.5124 98.5159C50.494 98.5159 50.4709 98.5159 50.4525 98.5112C50.3234 98.502 50.1067 98.4788 49.9407 98.3072C49.7747 98.1263 49.7747 97.9037 49.7793 97.7553C49.7793 97.7136 49.7793 97.6672 49.7793 97.6208C49.7701 97.4771 49.8254 97.3379 49.9315 97.2452C50.0375 97.1478 50.1805 97.1107 50.3188 97.1339C50.3695 97.1432 50.4248 97.1478 50.4709 97.1524C50.6462 97.171 50.9689 97.2035 51.0657 97.5327C51.1211 97.7182 51.0934 97.8898 51.075 98.015C51.075 98.0428 51.0657 98.0753 51.0611 98.1031C51.0519 98.233 50.9827 98.3536 50.8813 98.4324C50.8029 98.4927 50.7015 98.5251 50.6047 98.5251H50.6ZM76.1756 94.792C76.1434 94.792 76.1157 94.792 76.0834 94.7827C75.8252 94.7317 75.5808 94.6992 75.3595 94.6714C74.8155 94.6019 74.3452 94.5369 73.9902 94.2309C73.589 93.883 73.6951 93.0205 73.7181 92.8489C73.755 92.5846 73.8472 92.2182 74.1515 92.0837C74.7694 91.8101 75.6408 91.8287 76.171 92.1255C76.5629 92.3434 76.5768 92.8396 76.586 93.4657C76.5906 93.7161 76.5952 93.999 76.6275 94.2819C76.6413 94.4303 76.586 94.574 76.4799 94.6714C76.3923 94.7503 76.2817 94.792 76.171 94.792H76.1756ZM74.6403 93.5584C74.8016 93.6604 75.1198 93.7022 75.484 93.7486C75.5486 93.7578 75.6177 93.7671 75.6823 93.7764C75.6823 93.6744 75.6777 93.5816 75.6777 93.4889C75.6777 93.2895 75.6684 93.0298 75.6454 92.8999C75.3826 92.7979 74.9676 92.7932 74.6541 92.8906C74.6126 93.0761 74.6034 93.4147 74.6403 93.5584ZM82.9349 94.7827C82.9073 94.7827 82.8934 94.7827 82.8888 94.7827C82.7643 94.7827 82.3862 94.7642 82.1972 94.4813C81.8745 93.9943 81.5701 93.0205 81.8975 92.3898C82.1142 91.9724 82.6122 91.8658 83.2392 91.7359C83.5066 91.6803 83.8063 91.6153 84.1199 91.5226C84.2674 91.4808 84.4288 91.5133 84.5487 91.6153C84.6685 91.7174 84.7285 91.8704 84.71 92.0234C84.6732 92.3481 84.6547 92.6448 84.6409 92.9045C84.6132 93.4889 84.5856 93.9526 84.3089 94.3143C83.9723 94.7549 83.1332 94.7781 82.9303 94.7781L82.9349 94.7827ZM82.9026 93.8552C83.0963 93.8645 83.4974 93.8042 83.6081 93.7254C83.6865 93.6187 83.7049 93.2663 83.7233 92.8582C83.7233 92.7701 83.7326 92.6773 83.7372 92.5799C83.6311 92.6031 83.5251 92.6263 83.4283 92.6448C83.1516 92.7005 82.7735 92.784 82.6906 92.8535C82.626 92.9927 82.7044 93.4889 82.898 93.8552H82.9026ZM75.1659 85.9252C75.1659 85.9252 75.1336 85.9252 75.1198 85.9252C74.857 85.9159 74.5158 85.8556 74.3544 85.5913C74.2022 85.3409 74.1746 85.0626 74.1423 84.738C74.1285 84.6035 74.1146 84.4505 74.0916 84.2743C74.0685 84.1166 74.1285 83.9635 74.2437 83.8569C74.359 83.7549 74.525 83.7178 74.6725 83.7595C74.8477 83.8105 75.0137 83.843 75.1613 83.8708C75.5347 83.9496 75.8898 84.0192 76.0419 84.3484C76.2494 84.8029 75.982 85.3919 75.7929 85.6655C75.6731 85.8371 75.4702 85.9252 75.1705 85.9252H75.1659ZM75.1013 84.993C75.1013 84.993 75.1059 84.993 75.1106 84.993C75.1382 84.9328 75.1613 84.8725 75.1751 84.8215C75.1428 84.8122 75.1106 84.8076 75.0737 84.7983C75.0829 84.8725 75.0921 84.9374 75.1013 84.9884V84.993ZM66.8851 85.6608C66.7467 85.6608 66.6084 85.6191 66.4931 85.4846C66.3364 85.3038 66.2626 85.0951 66.1981 84.9049C66.1796 84.8446 66.1566 84.789 66.1335 84.7287C66.0828 84.6035 66.0874 84.4644 66.1473 84.3438C66.2073 84.2232 66.3179 84.1351 66.447 84.1027L67.051 83.9496C67.1709 83.9172 67.3 83.9404 67.4015 84.0053C67.5075 84.0702 67.5813 84.1722 67.6089 84.2928L67.7703 84.9745C67.798 85.0951 67.7795 85.2203 67.715 85.3269C67.6504 85.4336 67.5444 85.5078 67.4291 85.5356C67.3876 85.5449 67.3415 85.5588 67.2954 85.5774C67.1801 85.6145 67.0372 85.6608 66.8897 85.6608H66.8851ZM78.6055 85.0162C78.5686 85.0162 78.5363 85.0162 78.4994 85.0116C78.2274 84.9745 77.9969 84.8122 77.8631 84.5571C77.6925 84.2325 77.7894 83.6946 78.0614 83.4488C78.2689 83.2633 78.5317 83.2586 78.7668 83.2679C78.8452 83.2679 78.9328 83.2679 79.0297 83.2633C79.1818 83.2494 79.3155 83.3097 79.4123 83.421C79.5092 83.5323 79.5461 83.6807 79.5138 83.8244C79.4953 83.9218 79.4815 84.0099 79.4723 84.0887C79.4446 84.3113 79.4123 84.5386 79.2417 84.7287C79.0665 84.9189 78.8406 85.0255 78.6009 85.0255L78.6055 85.0162ZM78.7576 81.988C78.6239 81.988 78.5086 81.9602 78.4118 81.9323C78.3795 81.9231 78.3427 81.9138 78.3104 81.9091C78.1859 81.886 78.0752 81.8164 78.0061 81.7097C77.9369 81.6031 77.9093 81.4732 77.9369 81.348C77.9415 81.3202 77.9461 81.2924 77.9507 81.2645C77.9692 81.1254 77.9922 80.9167 78.149 80.7451C78.2827 80.5968 78.4533 80.5318 78.6147 80.4715C78.6792 80.4483 78.7484 80.4205 78.8314 80.3834C78.9928 80.3139 79.1772 80.3371 79.3109 80.4484C79.4446 80.5597 79.5046 80.7405 79.4631 80.9121C79.4262 81.079 79.3985 81.2135 79.3801 81.3156C79.334 81.5753 79.2786 81.8674 78.9605 81.9555C78.8913 81.9741 78.8222 81.9833 78.7576 81.9833V81.988ZM75.899 81.9509C75.7791 81.9509 75.6684 81.9231 75.5808 81.8999C75.5486 81.8906 75.5163 81.8813 75.4886 81.8767C75.3641 81.8581 75.2489 81.7839 75.1797 81.6773C75.1059 81.5706 75.0829 81.4408 75.1106 81.3156C75.1198 81.2785 75.1244 81.2414 75.129 81.2043C75.152 81.0512 75.1797 80.8425 75.3226 80.6617C75.5071 80.4298 75.7791 80.4437 75.9774 80.4576C76.0373 80.4576 76.1065 80.4669 76.171 80.4623C76.3139 80.4623 76.4661 80.5318 76.5583 80.657C76.6459 80.7822 76.669 80.9446 76.6136 81.0883C76.586 81.1579 76.5675 81.2228 76.5491 81.2831C76.4984 81.4593 76.4384 81.6587 76.2678 81.8118C76.1526 81.9184 76.0189 81.9509 75.8944 81.9509H75.899Z" fill="currentColor"/>
<path d="M51.2964 86.6772C50.8676 86.6772 50.2682 86.4825 49.4383 86.0929L41.5586 82.3551L49.7887 85.235C50.3789 85.439 50.8123 85.4761 50.9783 85.3324C51.0244 85.2906 51.0613 85.235 51.0889 85.1654C50.9414 84.8083 50.6832 84.2843 50.259 83.5145L49.9316 82.9255L50.6002 82.8328C50.7385 82.8142 50.8077 82.5638 50.8353 82.2299L50.8261 82.1882L50.8399 82.1557C50.8676 81.8172 50.8584 81.4091 50.8538 81.0613C50.8538 80.8897 50.8538 80.7181 50.8492 80.5465C50.8999 79.735 50.9829 79.1228 51.0198 78.8307C51.029 78.7657 51.0336 78.7194 51.0382 78.6915C51.0474 77.8197 51.2134 77.1612 52.0065 76.7716L52.7027 76.4285L52.6658 77.2076C52.569 79.3176 52.2554 81.1123 51.7805 82.2902C52.0065 83.4774 52.1586 84.4188 52.0479 85.1098C52.2508 85.7126 52.237 86.1254 51.965 86.4175C51.8036 86.5938 51.5869 86.6819 51.2964 86.6819V86.6772Z" fill="currentColor"/>
<path d="M82.4426 87.8366C82.1521 87.8366 81.4605 87.5352 79.0583 86.4917C78.6203 86.3016 78.1085 86.079 77.546 85.8193C77.2233 85.6802 76.8775 85.5271 76.4994 85.3602L76.421 85.3138C76.3933 85.2953 76.3703 85.2767 76.3426 85.2582C76.1582 85.1701 75.9738 85.0819 75.7847 84.9938L75.711 84.9567L75.6556 84.8965C75.5311 84.7666 75.402 84.6414 75.2776 84.5115C75.0286 84.3307 74.7704 84.1313 74.503 83.8994L74.4615 83.8577C74.1756 83.5423 73.8851 83.2409 73.5808 82.9487C69.5603 79.5356 65.134 77.7455 61.3625 78.0933C59.7718 78.2417 58.1119 78.7611 56.3045 79.684C56.18 79.9668 55.9818 80.0457 55.8296 80.055C55.4008 80.0828 55.2302 79.6376 55.1749 79.4892L55.0273 79.1089L55.387 78.9141C57.1621 77.9542 58.9234 77.356 60.6247 77.138C65.1432 76.5583 70.3441 78.5478 74.2033 82.2624C74.7704 82.7447 75.3283 83.2548 75.8723 83.7974C76.0983 83.9597 76.315 84.1127 76.5317 84.2565C76.6239 84.3168 76.7115 84.3817 76.8037 84.442C77.1864 84.6228 77.5506 84.7898 77.901 84.9475C79.2105 85.5179 81.0548 86.3201 81.5251 86.501C81.7464 86.4593 81.9815 86.4917 82.2121 86.5938C82.4979 86.7236 82.7054 86.9369 82.8068 87.2059L82.9129 87.4934L82.6916 87.7067C82.6178 87.7763 82.5671 87.8227 82.4518 87.8227L82.4426 87.8366ZM83.1573 86.9137L78.4497 84.7898L78.6342 84.3678C78.6618 84.3075 78.6849 84.2565 78.7125 84.2055C78.5788 84.1266 78.4128 84.0339 78.2054 83.9226C77.4999 83.5377 76.4579 82.9951 75.0332 82.2624L74.9225 82.1835C74.6367 81.9053 74.3508 81.641 74.0511 81.3813L74.0004 81.3395C69.8554 77.7223 64.4747 75.6447 58.3471 75.3155L57.2359 75.2552L58.0658 74.5086C58.8681 73.7851 59.8455 73.5254 60.7861 73.2796C61.7083 73.0385 62.5336 72.8205 63.073 72.1945C62.28 72.1156 61.5699 72.162 60.9244 72.7046L60.4726 73.0849L60.2144 72.5516C60.0715 72.2594 60.1406 72.009 60.1821 71.8791C60.1913 71.8513 60.2006 71.8142 60.2006 71.8003L59.9885 71.3412L60.4495 71.1418C61.4086 70.7893 62.3999 70.5667 63.322 70.4879C63.4695 70.4276 64.0643 70.1262 66.3973 68.7628C69.7355 66.8058 74.5398 63.8981 74.586 63.8702L80.1926 60.471L75.1162 64.6261C75.0655 64.6679 70.0582 68.7674 67.6883 70.9424C67.1212 71.4618 66.84 71.7493 66.6924 71.9116L66.7201 71.9487L66.4896 72.2362C65.3507 73.6506 63.9398 74.0077 62.5705 74.3509C62.3906 74.3973 62.2154 74.439 62.0402 74.4854C66.3789 75.4175 71.3216 76.7948 74.6044 80.6346L76.3934 81.5436C80.1234 83.4357 82.1383 84.4744 83.2264 85.0866C83.3325 85.0356 83.4523 85.017 83.5676 85.0495C83.8442 85.1191 83.9457 85.3602 84.0287 85.5596C84.0287 85.5642 84.0333 85.5735 84.0379 85.5828C84.499 85.9028 84.4851 86.0187 84.4621 86.1996L84.4252 86.5242L84.0932 86.6077C83.7751 86.6772 83.5538 86.5242 83.4062 86.3341C83.3832 86.3804 83.3601 86.4361 83.3371 86.4917L83.1526 86.923L83.1573 86.9137ZM80.0496 84.493L80.8519 84.8547C80.6029 84.7249 80.3493 84.5904 80.0865 84.4559L80.0496 84.493ZM63.7001 71.3273C63.7692 71.3365 63.8384 71.3458 63.9076 71.3551L64.5208 71.4386L64.2672 72.0043C64.0459 72.4959 63.76 72.8623 63.4234 73.1452C64.2534 72.8855 65.028 72.5098 65.6873 71.7446C65.8026 71.4339 66.2314 71.0119 67.0705 70.2421C67.8405 69.5372 68.8779 68.6375 69.9384 67.7332C68.8917 68.3593 67.822 68.9946 66.8676 69.5511C64.696 70.8218 63.9813 71.2021 63.7001 71.3273Z" fill="currentColor"/>
<path d="M80.5729 107.198L74.0672 91.3935C73.2742 89.469 72.6149 87.5676 71.9786 85.7266L71.9417 85.6153C70.7337 84.1591 69.4796 82.6612 68.0595 81.3163C66.3858 80.106 64.6568 79.1831 62.9232 78.5802C62.582 78.5756 62.333 78.506 62.1486 78.3669L61.4062 77.8058L62.3007 77.5507C62.5451 77.4812 62.7802 77.4255 63.02 77.3791L62.0517 76.767L64.2879 77.1241C64.56 77.1658 64.832 77.2168 65.1086 77.2771C66.7731 77.4348 68.3131 78.1397 69.7793 79.095C71.3746 79.9993 72.8869 81.1726 74.2471 82.5731C75.2107 83.3707 76.1467 84.1081 77.0965 84.7109L78.9684 85.5318C82.6708 87.1549 86.4977 88.8336 87.1985 89.1026C87.4245 89.0609 87.6596 89.0933 87.8855 89.1954C88.1714 89.3252 88.3789 89.5385 88.4803 89.8075L88.5864 90.095L88.365 90.3084C88.199 90.466 87.1985 90.146 85.3635 89.3484C83.8558 88.6945 81.8086 87.7995 79.6416 86.8488L75.8331 85.1701C75.1 84.646 74.4315 84.1405 73.6707 83.3104C73.6523 83.2919 73.6384 83.2733 73.62 83.2548C73.3895 83.0647 73.1635 82.8745 72.933 82.689C71.7158 81.6781 70.4801 80.6532 69.2029 79.837C68.3638 79.3686 67.497 78.9791 66.621 78.673C67.5247 79.3454 68.3869 80.055 69.1983 80.7969C70.7106 82.369 71.997 84.0385 72.9515 85.3231L73.016 85.4437C73.3526 86.399 73.6753 87.3589 73.9981 88.3282C74.2978 89.2278 74.6021 90.1321 74.9248 91.0596L80.5683 107.198H80.5729ZM88.8399 89.4968L87.0049 88.6853L87.1893 88.2586C87.2124 88.203 87.24 88.1519 87.2677 88.1056C85.6678 87.2105 81.1308 84.9521 77.3685 83.0832L76.096 82.4479C75.5427 82.1279 75.0263 81.8496 74.5191 81.5714L74.1041 81.3349C71.0933 78.8399 68.0964 77.0638 65.1962 76.0575L61.6552 74.8332L65.3853 75.1578C66.0584 75.2181 66.7316 75.2366 67.3771 75.2552C68.4191 75.2876 69.4888 75.3155 70.6046 75.5102C70.4939 75.3433 70.3233 75.2042 70.0882 75.0975C69.9038 75.014 69.4842 74.8471 68.7419 74.6755C68.4929 74.5967 68.2209 74.6013 67.9304 74.6059C67.2895 74.6152 66.4135 74.6245 65.8464 73.7202L65.436 73.0663L66.206 73.0107C67.0083 72.955 67.8059 72.9921 68.5067 73.0292C68.7004 73.0385 68.8848 73.0478 69.0554 73.0524C69.7055 72.9318 70.328 73.0014 70.9089 73.2657C71.4299 73.5022 71.8541 73.8269 72.1722 74.2257C72.495 74.6338 72.6886 75.1022 72.7394 75.6076C72.7947 76.1131 72.7025 76.6232 72.4765 77.1287L72.3382 77.4348L72.0063 77.3977C71.6143 77.356 71.2178 77.2632 70.8259 77.1612C71.0887 77.3606 71.3469 77.5693 71.6097 77.778C72.0247 78.1119 72.4489 78.455 72.933 78.7797C73.6753 79.3547 74.2747 79.8092 74.8787 80.2033C76.5017 80.9546 78.3967 81.8125 80.2871 82.6705C90.3984 87.2662 90.3984 87.294 90.3476 87.7902L90.3154 88.1195L89.9788 88.2076C89.6099 88.2818 89.4532 88.3792 89.3932 88.4302C89.3287 88.4858 89.1996 88.6389 89.0198 89.0562L88.8353 89.4829L88.8399 89.4968ZM84.4367 85.5874C87.9132 87.3497 88.4803 87.716 88.5956 87.9572C88.6647 87.8691 88.7339 87.7949 88.803 87.7346C88.8261 87.716 88.8492 87.6975 88.8722 87.6789C87.9685 87.2198 86.3087 86.4454 84.4367 85.5874ZM71.2501 76.3172C71.4253 76.3589 71.5959 76.4006 71.7619 76.4285C71.8311 76.1827 71.8541 75.9462 71.8311 75.7097C71.7942 75.3758 71.6743 75.079 71.4576 74.8054C71.2363 74.5225 70.9274 74.2906 70.5354 74.1144C70.2219 73.9706 69.8946 73.915 69.5488 73.9289C69.9775 74.0541 70.2819 74.17 70.4709 74.2581C70.9688 74.4854 71.3239 74.8239 71.5175 75.2691C71.6881 75.654 71.6051 75.9183 71.5037 76.076C71.4391 76.178 71.3561 76.2569 71.2501 76.3172Z" fill="currentColor"/>
<path d="M109.866 99.0778L107.049 97.7886C107.049 97.7886 106.459 97.5196 105.679 97.1486C105.214 96.9306 104.605 96.657 103.904 96.3417C103.429 96.1284 102.913 95.9011 102.369 95.6507L97.2373 93.3042L71.0254 73.4744L76.1433 75.8117L95.7065 89.0145C96.3244 89.4319 97.0022 89.9003 97.7721 90.4753C98.7496 91.0967 99.7086 91.7089 100.649 92.3071C102.406 93.4247 104.112 94.5099 105.97 95.711C106.947 96.4762 107.528 96.9863 107.551 97.0095L109.875 99.0685L109.866 99.0778ZM97.7445 92.5343L102.742 94.8067C102.853 94.8577 102.964 94.9087 103.074 94.9551C102.097 94.329 101.133 93.7169 100.151 93.0908C99.2061 92.4926 98.247 91.8805 97.2419 91.2359C96.4627 90.6515 95.7941 90.1924 95.1855 89.7843L85.2264 83.06L97.7445 92.5297V92.5343ZM92.894 92.5993C92.6312 92.5993 92.0503 92.3442 90.1553 91.528C88.6568 90.8788 86.6235 89.9884 84.4703 89.0423C82.6029 88.2262 80.648 87.3682 78.8636 86.5891C77.6787 86.0744 76.5721 85.5921 75.6177 85.184L75.4978 85.133L75.4241 85.0263C75.3365 84.9011 75.2442 84.7852 75.1474 84.6646C74.8016 84.391 74.4466 84.0942 74.087 83.7185L74.0132 83.6165C73.9855 83.5655 73.9579 83.5191 73.9302 83.4728C73.4968 83.111 73.0265 82.7586 72.5516 82.3969C71.8876 81.9007 71.2099 81.3905 70.592 80.8201C70.2508 80.5419 69.9419 80.2312 69.6883 79.8695L62.9844 70.3998L70.4168 79.2991C70.6566 79.5866 70.924 79.8602 71.2099 80.1245C71.5741 80.4213 71.9891 80.6903 72.4225 80.9685C73.2432 81.5018 74.0869 82.0491 74.6356 82.8467C75.0506 83.2038 75.4471 83.5794 75.7975 83.9875C75.8482 84.0293 75.899 84.071 75.9543 84.1127C76.111 84.2333 76.2678 84.3585 76.4292 84.493C78.5639 85.4205 81.1459 86.552 83.5896 87.6233C87.3704 89.2788 91.2664 90.9901 91.9811 91.2637C92.207 91.2219 92.4422 91.2544 92.6681 91.3564C92.954 91.4863 93.1614 91.6996 93.2629 91.9686L93.3689 92.2561L93.1476 92.4694C93.0692 92.5436 93.0185 92.5946 92.9032 92.5946L92.894 92.5993Z" fill="currentColor"/>
<path d="M69.3212 98.2199L69.1184 98.0344C68.9893 98.0993 68.8325 98.1364 68.6711 98.0807L68.791 97.7329C68.6296 97.5892 68.4729 97.4408 68.3115 97.297L67.8366 96.8564C67.7582 96.7822 67.6798 96.708 67.5968 96.6385C67.5646 96.6107 67.5323 96.5921 67.4954 96.5689C67.3893 96.4994 67.2556 96.4159 67.1496 96.2721C66.8776 95.9058 66.5502 95.5811 66.2044 95.2333C65.6926 94.7232 65.167 94.1945 64.7889 93.5082C64.2402 93.063 63.8806 92.5019 63.5348 91.9639C63.3227 91.63 63.1198 91.3147 62.8801 91.0364L62.8109 90.9622C62.7372 90.8834 62.6449 90.786 62.5758 90.6608C62.0317 89.7009 61.4876 88.7363 60.9574 87.7624C60.7177 87.3265 60.5517 86.9648 60.4318 86.6216C60.3258 86.3155 60.2428 86.0048 60.1644 85.7034C60.1183 85.5271 60.0722 85.3509 60.0214 85.1747C59.9569 84.9475 59.8739 84.7202 59.7817 84.4884C59.7033 84.2982 59.6249 84.1127 59.5419 83.9272C59.4359 83.6814 59.3298 83.4403 59.233 83.1945C59.1731 83.0415 59.127 82.8838 59.0855 82.7261C59.0578 82.6241 59.0301 82.5221 58.9933 82.4201C58.8642 82.0444 58.6843 81.8682 58.2878 81.7105L58.0803 81.6271C57.5271 81.4091 57.006 81.2004 56.4343 81.1772C56.0931 81.1633 55.7796 81.052 55.4753 80.9453C55.3462 80.899 55.2125 80.8526 55.0742 80.8109C54.9451 80.7738 54.839 80.681 54.7837 80.5604C54.7284 80.4399 54.7284 80.2961 54.7837 80.1755L54.9266 79.8648C55.0142 79.67 55.0926 79.5031 55.1618 79.3315L55.2171 79.1878C55.2863 79.0162 55.3554 78.8539 55.3646 78.7194C55.4384 77.8336 55.7934 77.0824 56.13 76.4609C56.2314 76.2708 56.319 76.0714 56.4113 75.8581C56.4758 75.705 56.5404 75.5566 56.6141 75.4082L56.711 75.1995C56.8401 74.9259 56.9738 74.6384 57.1582 74.3741C57.5132 73.864 57.6976 73.3214 57.7253 72.7185C57.7253 72.5933 57.7253 72.4727 57.776 72.3475C57.9605 71.8235 57.9789 71.2623 57.9927 70.6641C58.0066 70.256 58.0158 69.8294 58.0896 69.4074C58.1772 68.8741 58.2924 68.3361 58.3985 67.8167C58.5276 67.2046 58.6613 66.5785 58.7535 65.9571C58.7812 65.7855 58.8595 65.6464 58.9103 65.5536C58.9241 65.5351 58.9333 65.5165 58.9425 65.498C58.9979 65.3821 59.0993 65.2939 59.2192 65.2522C59.3391 65.2012 59.5327 65.1224 59.7448 65.229C60.2796 65.5026 60.8744 65.6093 61.5061 65.7206C62.0502 65.818 62.6173 65.9154 63.1659 66.1333C63.3458 66.2029 63.3965 66.1936 63.3965 66.189C63.3965 66.189 63.4518 66.1612 63.5625 65.9571C63.8529 65.4238 64.2725 65.0435 64.918 64.7328C65.0886 64.6493 65.273 64.487 65.439 64.2691C65.7618 63.8517 66.1491 63.4482 66.7623 63.323C67.0389 63.2674 67.2095 63.1561 67.3432 62.9381C67.6706 62.4187 68.1824 62.21 68.6389 62.0756C68.8602 62.0106 69.1783 61.904 69.3305 61.7509C69.7731 61.3057 70.2526 61.0182 70.8013 60.8745C70.9258 60.842 71.0825 60.8003 71.124 60.7632C71.9032 60.0861 72.8208 59.7707 73.7014 59.46C73.9965 59.358 74.2916 59.256 74.5821 59.1401C74.914 59.0056 75.3336 58.9685 75.7301 59.0287C76.0021 59.0705 76.1128 59.0288 76.2327 58.9221C76.4079 58.7737 76.6799 58.5604 77.0027 58.4723C77.9202 58.2126 78.6302 58.0317 79.3126 57.8926C79.6123 57.8323 79.9443 57.7627 80.2809 57.7906C80.4008 57.7117 80.5483 57.6468 80.7097 57.6607C80.9587 57.6793 81.1385 57.823 81.3137 57.9621C81.3782 58.0131 81.452 58.0688 81.535 58.1291C81.6641 58.2172 81.7379 58.3656 81.7333 58.5233C81.7286 58.6809 81.6456 58.8247 81.5166 58.9082C81.4289 58.9638 81.3506 59.0241 81.2814 59.0751C81.0831 59.2235 80.8572 59.3951 80.5667 59.3255C80.2578 59.256 80.0411 58.9731 79.9351 58.7273C79.8152 58.7412 79.6861 58.7691 79.5339 58.7969C78.8377 58.9406 78.1461 59.1122 77.2516 59.3673C77.0857 59.4137 76.892 59.5806 76.8275 59.6363C76.3802 60.0165 75.9284 60.0026 75.5872 59.9516C75.3566 59.9145 75.1031 59.9377 74.9232 60.0073C74.6235 60.1278 74.31 60.2345 74.0011 60.3458C73.162 60.6379 72.3689 60.9116 71.7234 61.4727C71.5205 61.6489 71.267 61.7185 71.0595 61.7695C70.6399 61.8808 70.3079 62.0802 69.976 62.4141C69.6763 62.7155 69.2567 62.8639 68.8878 62.9752C68.4683 63.0958 68.2423 63.2349 68.1132 63.439C67.8412 63.8702 67.4585 64.1299 66.9329 64.2366C66.6286 64.3015 66.4073 64.5149 66.1537 64.8441C65.9739 65.076 65.6788 65.3867 65.3007 65.5722C64.8304 65.7948 64.5492 66.0452 64.3555 66.4023C63.982 67.0886 63.5071 67.2741 62.8109 66.9959C62.3499 66.8104 61.8519 66.7269 61.3309 66.6342C60.7684 66.5368 60.192 66.4348 59.6341 66.2029C59.5419 66.8058 59.4128 67.4179 59.2883 68.0069C59.1823 68.517 59.0716 69.0456 58.984 69.5604C58.9241 69.9221 58.9149 70.2931 58.901 70.6919C58.8826 71.3319 58.8642 71.9951 58.629 72.6582C58.6336 72.6489 58.6336 72.6721 58.6336 72.6907V72.7602C58.5967 73.5347 58.3524 74.2581 57.9005 74.9074C57.7622 75.1068 57.6515 75.3433 57.5317 75.5937L57.4256 75.8163C57.3611 75.9555 57.2965 76.0946 57.2366 76.2337C57.1398 76.4563 57.0383 76.6882 56.9184 76.9108C56.628 77.4441 56.3237 78.0887 56.2637 78.8028C56.2407 79.0811 56.1392 79.3269 56.047 79.5495L55.9963 79.6793C55.941 79.8184 55.881 79.9529 55.8165 80.0967C56.0562 80.1802 56.2637 80.2497 56.4528 80.259C57.1812 80.2915 57.7991 80.5373 58.3985 80.7738L58.6013 80.8526C59.2515 81.1077 59.6203 81.4879 59.8416 82.1186C59.8831 82.2392 59.9154 82.3598 59.9523 82.4803C59.9892 82.6056 60.0214 82.7308 60.0676 82.856C60.1598 83.0925 60.2612 83.3244 60.3626 83.5609C60.4456 83.7556 60.5332 83.9458 60.6116 84.1406C60.7177 84.3956 60.8099 84.6599 60.8836 84.915C60.939 85.1005 60.9851 85.286 61.0358 85.4715C61.1142 85.7683 61.188 86.0465 61.2802 86.3155C61.3816 86.6077 61.5291 86.9277 61.7412 87.3172C62.2669 88.2864 62.8109 89.2464 63.355 90.2017C63.3734 90.2342 63.4149 90.2805 63.461 90.3269C63.4933 90.3594 63.5256 90.3965 63.5579 90.4336C63.8391 90.7628 64.0696 91.1199 64.291 91.4631C64.6275 91.9871 64.9457 92.4787 65.4067 92.8358C65.5128 92.9146 65.5589 93.0166 65.5773 93.0584C65.877 93.6195 66.3335 94.0786 66.8176 94.5609C66.8315 94.5516 66.8453 94.5424 66.8591 94.5377C66.9006 94.5145 66.9467 94.4913 66.9974 94.4589C67.1404 94.3708 67.3202 94.3615 67.4631 94.445C67.6107 94.5284 67.7029 94.6815 67.7029 94.8484C67.7029 94.9134 67.7029 94.9644 67.7121 95.0107C67.7213 95.136 67.7305 95.2936 67.6568 95.4513C67.7305 95.5394 67.7997 95.6275 67.8689 95.7203C67.8781 95.7342 67.9334 95.7666 67.9703 95.7898C68.0395 95.8362 68.1086 95.8779 68.1686 95.9336C68.2654 96.0124 68.3576 96.1005 68.4498 96.1886L68.9109 96.6153C68.9478 96.6524 68.9893 96.6849 69.0261 96.7173L69.0723 96.6385C69.2567 96.7498 69.4134 96.9353 69.5057 97.1532C69.644 97.2785 69.7823 97.4037 69.9206 97.5289L69.3074 98.2199H69.3212ZM68.7265 97.1996C68.708 97.2321 68.685 97.2785 68.6711 97.3387L68.7587 97.1903C68.7587 97.1903 68.7357 97.195 68.7265 97.1996ZM64.8581 93.5685C64.8581 93.5685 64.8627 93.5685 64.8673 93.5731C64.8673 93.5731 64.8627 93.5731 64.8581 93.5685ZM71.0917 96.3556C71.0503 96.3556 71.0088 96.351 70.9626 96.3371C70.6768 96.2629 70.248 95.9846 70.2019 95.5811C70.1696 95.2843 70.3494 95.0757 70.5108 94.8855C70.5661 94.8206 70.6261 94.751 70.686 94.6676C70.7782 94.5424 70.9258 94.4728 71.0779 94.4774C71.2301 94.4821 71.373 94.5655 71.4514 94.7C71.5021 94.7835 71.5528 94.8577 71.5989 94.9226C71.728 95.1035 71.8571 95.289 71.8663 95.5394C71.8756 95.8548 71.6174 96.0959 71.5067 96.184C71.3684 96.2953 71.2255 96.351 71.0871 96.351L71.0917 96.3556ZM69.2521 94.1714C69.1414 94.1714 69.04 94.1343 68.9524 94.0601C68.9293 94.0415 68.9017 94.023 68.874 94.0044C68.7265 93.9024 68.4821 93.7354 68.4867 93.4247C68.4867 93.1975 68.5974 93.0213 68.6942 92.8682C68.7265 92.8172 68.7633 92.7569 68.7956 92.692C68.8648 92.5575 68.9985 92.4648 69.1506 92.4462C69.3028 92.4277 69.4503 92.488 69.5518 92.5993C69.5979 92.6549 69.6486 92.7013 69.6947 92.743C69.8469 92.8868 70.0497 93.0862 69.9898 93.3923C69.9437 93.6195 69.8007 93.7818 69.6947 93.8978C69.667 93.9256 69.644 93.9534 69.6209 93.9859C69.5425 94.0879 69.4319 94.1528 69.3028 94.1667C69.2843 94.1667 69.2705 94.1667 69.2521 94.1667V94.1714ZM71.4468 92.4694C71.373 92.4694 71.2946 92.4509 71.2162 92.4091C70.9857 92.2886 70.852 92.0799 70.7459 91.9129C70.7183 91.8665 70.6906 91.8202 70.6583 91.7784C70.5846 91.6764 70.5523 91.5512 70.5707 91.4306C70.5892 91.3054 70.6583 91.1941 70.7598 91.1246C70.7967 91.0967 70.8335 91.0643 70.8658 91.0318C71.018 90.8973 71.2208 90.7257 71.5159 90.7211C71.811 90.7304 71.9908 90.9391 72.1476 91.1246C72.1983 91.1848 72.2536 91.2498 72.3182 91.3147C72.4196 91.4121 72.4657 91.5512 72.4519 91.6903C72.4381 91.8294 72.3597 91.9547 72.2444 92.0335C72.166 92.0845 72.0877 92.1448 72.0231 92.1958C71.8617 92.321 71.6681 92.4694 71.4514 92.4694H71.4468ZM67.4862 91.8944C67.4862 91.8944 67.4401 91.8944 67.417 91.8944C67.1773 91.8665 67.0343 91.695 66.9421 91.579C66.9144 91.5466 66.8868 91.5141 66.8545 91.477C66.7577 91.375 66.7116 91.2312 66.73 91.0921C66.7485 90.953 66.8315 90.8278 66.9559 90.7536C67.0021 90.7257 67.0435 90.6979 67.085 90.6701C67.2326 90.5727 67.5 90.3872 67.7859 90.5773C67.9426 90.684 68.0348 90.8324 68.0994 90.9391C68.1132 90.9622 68.1317 90.9901 68.1455 91.0133C68.2193 91.1199 68.2469 91.2544 68.2193 91.3842C68.1916 91.5141 68.1086 91.6208 67.9934 91.6857C67.9749 91.695 67.9611 91.7089 67.9426 91.7228C67.8458 91.7923 67.6937 91.899 67.4862 91.899V91.8944ZM69.6716 90.2295C69.5518 90.2295 69.4642 90.1924 69.3996 90.1461C69.1737 89.993 68.9293 89.6869 68.9017 89.3438C68.8694 89.0192 69.1138 88.8429 69.312 88.6992C69.372 88.6528 69.4411 88.6018 69.5103 88.5461C69.6209 88.4487 69.7731 88.4116 69.916 88.4487C70.0589 88.4812 70.1788 88.5832 70.2342 88.7224C70.2664 88.7966 70.2987 88.8661 70.331 88.931C70.4232 89.1165 70.5246 89.3252 70.4924 89.5756C70.4462 89.9188 70.0774 90.1136 69.9621 90.1646C69.8515 90.2156 69.7546 90.2342 69.6716 90.2342V90.2295ZM95.0812 74.7265C94.8784 74.7265 94.6663 74.6941 94.4588 74.6291C94.3527 74.5967 94.2467 74.5503 94.1407 74.49C93.5274 74.1468 93.1862 73.4791 93.26 72.7463C93.3338 72.0043 93.8179 71.3876 94.4957 71.1696C94.74 71.0908 94.9614 71.0676 95.1688 71.0908C95.8835 71.1742 96.6904 72.264 96.7227 72.9689C96.7457 73.5486 96.5244 74.068 96.1048 74.388C95.8143 74.6106 95.4593 74.7265 95.0812 74.7265ZM94.7723 72.0507C94.3758 72.1759 94.2052 72.5376 94.1775 72.8344C94.1407 73.2008 94.2928 73.5162 94.5879 73.6785C94.6386 73.7063 94.6847 73.7295 94.7354 73.7434C95.049 73.8408 95.3441 73.8083 95.5469 73.6553C95.7267 73.5161 95.8143 73.2936 95.8051 73.0107C95.7913 72.6675 95.2703 72.0507 95.0674 72.009C94.9936 71.9997 94.8968 72.009 94.7769 72.0507H94.7723ZM83.2594 73.2194H83.2456C82.7153 73.2101 82.245 72.482 82.1528 72.3382C82.0145 72.111 81.8485 71.7725 81.9961 71.471C82.2958 70.8635 82.9735 70.3117 83.5729 70.1957C84.0109 70.1076 84.3383 70.4833 84.7486 70.9516C84.91 71.1371 85.0945 71.3505 85.2973 71.5499C85.4034 71.6519 85.4541 71.8003 85.431 71.9441C85.4126 72.0878 85.325 72.2177 85.1959 72.2872C84.9654 72.4124 84.7579 72.5469 84.5688 72.6675C84.1124 72.9597 83.7159 73.2147 83.2548 73.2147L83.2594 73.2194ZM82.8905 71.7678C82.9735 71.9348 83.1856 72.2038 83.3101 72.2872C83.4992 72.2594 83.7712 72.0878 84.0801 71.8884C84.1354 71.8513 84.1908 71.8188 84.2507 71.7817C84.1861 71.7075 84.1216 71.6333 84.0617 71.5638C83.9326 71.4154 83.762 71.2206 83.6605 71.1325C83.3931 71.2252 83.075 71.4896 82.8951 71.7678H82.8905ZM71.9954 71.3783C71.9678 71.3783 71.9401 71.3783 71.9078 71.369C71.6727 71.3319 71.479 71.216 71.3131 71.1186C71.2577 71.0861 71.207 71.0537 71.1517 71.0258C71.0318 70.9656 70.9442 70.8543 70.9165 70.7198C70.8843 70.5899 70.9165 70.4508 70.9903 70.3395L71.3546 69.834C71.4283 69.732 71.5344 69.6671 71.6589 69.6485C71.7787 69.63 71.9078 69.6624 72.0047 69.7366L72.5672 70.1586C72.664 70.2328 72.7285 70.3441 72.747 70.4647C72.7654 70.5853 72.7332 70.7105 72.6594 70.8079C72.6363 70.8403 72.6087 70.8821 72.5856 70.9238C72.4703 71.1047 72.3044 71.3736 72.0047 71.3736L71.9954 71.3783ZM89.8481 68.1321C89.7974 68.1321 89.742 68.1274 89.6913 68.1089C89.1334 67.9419 88.2758 67.3947 88.1237 66.7037C88.0222 66.2446 88.3358 65.8412 88.7323 65.3357C88.9029 65.1224 89.0919 64.8766 89.2718 64.603C89.3547 64.4731 89.5023 64.3943 89.6544 64.3943C89.8112 64.3943 89.9541 64.4731 90.0371 64.603C90.2169 64.8766 90.3922 65.1131 90.5489 65.3218C90.8993 65.7902 91.1806 66.1612 91.199 66.6203C91.2175 67.1211 90.6919 67.673 90.4106 67.8956C90.3276 67.9605 90.1063 68.1367 89.8481 68.1367V68.1321ZM89.6544 65.6557C89.5853 65.7438 89.5207 65.8273 89.4608 65.9061C89.2856 66.1287 89.0504 66.4348 89.032 66.5414C89.0689 66.6898 89.447 67.0191 89.8343 67.1768C89.9956 67.0562 90.2584 66.7547 90.2907 66.6203C90.2815 66.4858 90.0694 66.2029 89.825 65.8783C89.7697 65.8087 89.7144 65.7345 89.6591 65.6557H89.6544ZM78.1738 66.3977C78.1139 66.3977 78.0585 66.3884 77.9986 66.3698C77.7219 66.2771 77.5237 66.0823 77.2931 65.8551C77.1963 65.7577 77.0857 65.651 76.9566 65.5305C76.8413 65.4284 76.7814 65.2708 76.809 65.1131C76.8367 64.9554 76.9335 64.8256 77.0764 64.7606C77.2424 64.6864 77.39 64.603 77.5191 64.5334C77.8556 64.3479 78.1738 64.1763 78.5011 64.3294C78.953 64.5427 79.119 65.1641 79.1513 65.498C79.1697 65.7206 79.0544 65.9246 78.8008 66.1287C78.6395 66.2585 78.4089 66.393 78.1784 66.393L78.1738 66.3977ZM78.0493 65.2986C78.1 65.3496 78.1507 65.396 78.1922 65.4284C78.1922 65.4284 78.1968 65.4284 78.2015 65.4238C78.183 65.3589 78.1646 65.2986 78.1415 65.2522C78.1139 65.2661 78.0816 65.2847 78.0493 65.2986ZM80.3685 63.3694C80.2578 63.3694 80.1426 63.3462 80.0319 63.2998C79.6953 63.1607 79.4233 62.6831 79.4786 62.3213C79.5201 62.0431 79.723 61.8761 79.9028 61.7277C79.9627 61.6767 80.0319 61.6211 80.1011 61.5562C80.2071 61.4541 80.3547 61.4078 80.493 61.4309C80.6359 61.4541 80.7604 61.5422 80.8296 61.6721C80.8757 61.7602 80.9218 61.8344 80.9633 61.8993C81.0831 62.0895 81.2076 62.2842 81.1984 62.5393C81.1846 62.8361 81.0463 63.0912 80.8111 63.2396C80.6774 63.323 80.5252 63.3694 80.3731 63.3694H80.3685ZM76.2603 62.8546C76.2188 62.8546 76.1774 62.85 76.1359 62.8361C76.0114 62.799 75.9099 62.7155 75.85 62.6042C75.8316 62.5718 75.8131 62.5393 75.7947 62.5068C75.7117 62.377 75.601 62.1961 75.5964 61.9689C75.5872 61.6721 75.8085 61.5051 75.9653 61.3892C76.0114 61.3521 76.0667 61.315 76.1174 61.2686C76.2327 61.1666 76.3894 61.1295 76.537 61.1666C76.6845 61.2037 76.8044 61.315 76.8551 61.4588C76.8782 61.5283 76.9058 61.5933 76.9335 61.6489C77.0073 61.8159 77.0857 62.006 77.0534 62.2332C77.0073 62.5439 76.7399 62.6691 76.5785 62.7433C76.5462 62.7573 76.5185 62.7712 76.4955 62.7851C76.4217 62.8315 76.3387 62.8546 76.2557 62.8546H76.2603ZM78.4504 61.0553C78.4089 61.0553 78.3628 61.0507 78.3213 61.0368C78.2015 60.9997 78.0954 60.9162 78.0401 60.8049C78.0262 60.7817 78.0124 60.7585 77.994 60.7307C77.9202 60.6148 77.8049 60.4385 77.8142 60.2067C77.8234 60.0026 77.911 59.8496 77.9986 59.6965C78.0309 59.6363 78.0677 59.5713 78.1092 59.4879C78.1876 59.3302 78.3444 59.2282 78.5196 59.2282C78.6948 59.2282 78.8516 59.3255 78.9299 59.4832C79.0083 59.6363 79.0729 59.7522 79.1236 59.8449C79.2527 60.0722 79.3956 60.3319 79.2112 60.6055C79.0867 60.7863 78.9023 60.8745 78.7732 60.944C78.7409 60.9579 78.7086 60.9765 78.681 60.9904C78.6072 61.0321 78.5288 61.0553 78.4458 61.0553H78.4504Z" fill="currentColor"/>
<path d="M50.793 85.0965L58.9447 81.9801C59.5303 81.7575 59.8853 81.5025 59.9176 81.2845C59.9268 81.2242 59.9176 81.1593 59.8945 81.0851C59.5533 80.9089 59.0231 80.6724 58.2024 80.357L57.5753 80.1159L58.0272 79.615C58.1194 79.513 58.0133 79.2765 57.8243 78.9983L57.7828 78.938C57.5891 78.6644 57.3217 78.3537 57.0958 78.0893C56.9851 77.9595 56.8745 77.8296 56.7638 77.6998C56.2843 77.0459 55.957 76.5219 55.8002 76.2714C55.7633 76.2158 55.7403 76.1741 55.7264 76.1509C55.1731 75.4784 54.8827 74.8617 55.2423 74.0547L55.5558 73.3406L56.0261 73.962C57.2987 75.6408 58.207 77.2175 58.5943 78.4279C59.5256 79.1884 60.2449 79.8145 60.5999 80.4173C61.1394 80.7466 61.393 81.0758 61.3745 81.4747C61.3423 82.0636 60.7244 82.4671 59.2306 82.8613L50.7976 85.0965H50.793Z" fill="currentColor"/>
<path d="M59.903 74.2634C59.6909 74.2634 59.4927 74.1521 59.405 74.1057L59.05 73.9063L59.2022 73.5261C59.9491 71.6433 60.9128 70.048 62.0793 68.7773C65.1684 65.4105 70.42 63.5695 75.7638 63.9265C76.5015 63.9265 77.2531 63.959 78.0139 64.0239C78.2905 64.0054 78.5533 63.9776 78.8161 63.9497C78.9268 63.9405 79.0328 63.9265 79.1435 63.9173C79.5492 63.8106 79.9411 63.6993 80.31 63.5973C81.6794 63.1892 83.5974 62.6095 84.0723 62.4426C84.2199 62.2663 84.4181 62.1365 84.6579 62.0716C84.9622 61.9881 85.2527 62.0159 85.5062 62.155L85.7737 62.3081L85.7414 62.6141C85.7168 62.8429 84.5288 63.3098 82.1773 64.0147C81.6978 64.1584 81.1676 64.3161 80.5912 64.4784C80.2547 64.5804 79.8858 64.6871 79.4939 64.8077L79.4017 64.8262C79.3694 64.8262 79.3371 64.8308 79.3049 64.8355C79.1112 64.8865 78.9129 64.9375 78.7101 64.9932L78.6317 65.0117L78.5487 65.0024C78.3689 64.9839 78.1891 64.97 78.0092 64.9514C77.7003 64.97 77.373 64.9885 77.0272 64.9839H76.9672C76.5523 64.9236 76.1373 64.8819 75.7223 64.854C75.6947 64.854 75.667 64.854 75.6393 64.854C70.4062 64.854 65.9061 66.3473 63.255 69.0324C62.13 70.1732 61.194 71.6433 60.3964 73.5214C60.484 73.8182 60.3825 74.0084 60.2719 74.115C60.1566 74.2263 60.0275 74.2634 59.903 74.2634ZM58.2754 69.5193L58.4322 68.411C58.5843 67.3351 59.1653 66.5096 59.7324 65.7073C60.2857 64.9236 60.779 64.228 60.7883 63.3932C60.1335 63.8477 59.6171 64.3439 59.4696 65.174L59.3682 65.7583L58.8287 65.5172C58.5336 65.3827 58.4276 65.1508 58.3723 65.021C58.363 64.9978 58.3446 64.9561 58.3354 64.9468L57.8789 64.7335L58.1048 64.279C58.612 63.3932 59.2298 62.577 59.8892 61.9185C59.9629 61.7748 60.2258 61.1626 61.1433 58.6074C62.4527 54.9531 64.2693 49.62 64.2878 49.5644L66.4133 43.3363L65.1777 49.8055C65.1638 49.8704 63.9466 56.2469 63.5224 59.4468C63.421 60.2073 63.3887 60.6154 63.3795 60.8287L63.4256 60.838V61.209C63.4625 63.0315 62.6095 64.2141 61.7796 65.3595C61.6689 65.5125 61.5629 65.6609 61.4568 65.8093C65.3759 63.7225 70.0419 61.58 75.0123 62.3962L76.9626 61.9324C81.0293 60.9725 83.2378 60.4624 84.4642 60.2305C84.5103 60.1192 84.5933 60.0311 84.704 59.9801C84.9576 59.8502 85.1927 59.9754 85.3818 60.0728C85.3864 60.0728 85.3956 60.0821 85.4048 60.0821C85.9673 60.0264 86.0273 60.1285 86.1287 60.2815L86.3039 60.5551L86.1056 60.8334C85.8982 61.0931 85.64 61.1162 85.4048 61.0699C85.4186 61.1209 85.4325 61.1765 85.4509 61.2368L85.5846 61.6867L80.6189 63.1011L80.4898 62.6605C80.4714 62.6002 80.4575 62.5399 80.4483 62.4843C80.2962 62.5121 80.1071 62.5492 79.8766 62.5956C79.0928 62.7579 77.9493 63.013 76.3863 63.3747L76.3171 63.3886H76.248C75.856 63.3561 75.4595 63.3376 75.0676 63.3283H75.0399H74.9985C69.5117 63.2541 64.0619 65.1276 59.1607 68.833L58.2708 69.5054L58.2754 69.5193ZM61.4199 61.8861L61.5859 62.4843C61.7335 63.0037 61.7427 63.4721 61.6689 63.9034C62.1392 63.166 62.4942 62.3823 62.5081 61.3713C62.3974 61.056 62.4573 60.4577 62.6049 59.3262C62.7432 58.292 62.9645 56.9286 63.1997 55.5513C62.7985 56.706 62.3836 57.8839 62.0101 58.9274C61.1571 61.3064 60.8528 62.0576 60.7191 62.3313C60.779 62.2942 60.839 62.2524 60.8989 62.2153L61.4199 61.8861ZM81.6609 61.798L81.6517 61.849L82.5001 61.6078C82.228 61.6681 81.9468 61.733 81.6609 61.798Z" fill="currentColor"/>
<path d="M96.5696 78.8962L81.488 70.994C79.6621 70.0387 77.9562 69.0138 76.3009 68.0261L76.1672 67.9472C74.3137 67.6133 72.3957 67.2748 70.4453 67.1635C68.389 67.3165 66.4755 67.7293 64.7603 68.3878C64.4929 68.6057 64.2578 68.7124 64.0272 68.7217L63.1005 68.7727L63.6215 67.9982C63.7644 67.7895 63.9074 67.5901 64.0595 67.4046L62.9253 67.5669L64.8664 66.3937C65.1015 66.2499 65.3459 66.1154 65.5903 65.9856C66.9643 65.0303 68.5965 64.5758 70.3301 64.3578C72.1283 64.0193 74.0371 63.9405 75.9782 64.1306C77.2277 64.1167 78.4173 64.0796 79.5284 63.9219L81.488 63.3422C85.1858 62.2431 89.3446 61.0096 90.0731 60.7545C90.2207 60.5783 90.4189 60.4485 90.6587 60.3835C90.963 60.2954 91.2535 60.3279 91.5024 60.467L91.7699 60.62L91.7376 60.9261C91.713 61.1549 90.7417 61.5568 88.8236 62.1319C87.2468 62.6049 85.1074 63.2448 82.8389 63.9173L78.8507 65.0952C77.9516 65.1647 77.117 65.2158 76.0059 65.0674C75.9828 65.0674 75.9551 65.0627 75.9321 65.0581C75.637 65.0581 75.3373 65.0627 75.0422 65.0674C73.4654 65.0813 71.8654 65.0905 70.3624 65.2946C69.4172 65.4801 68.5088 65.7398 67.642 66.069C68.7624 65.9995 69.8736 65.9856 70.9756 66.0319C73.138 66.2592 75.1898 66.709 76.7436 67.0707L76.8727 67.1217C77.7395 67.6365 78.5925 68.1605 79.4593 68.6892C80.2661 69.1854 81.0822 69.6863 81.9306 70.1917L96.565 78.9055L96.5696 78.8962ZM61.3945 66.338L64.4607 64.177C65.0139 63.7874 65.5396 63.3654 66.0513 62.962C66.8674 62.3127 67.7112 61.6449 68.6887 61.0699C68.495 61.0142 68.2783 61.0189 68.0293 61.0884C67.8357 61.1441 67.4069 61.2878 66.7291 61.6356C66.4894 61.7377 66.2819 61.9139 66.0652 62.104C65.5811 62.526 64.9171 63.0964 63.9028 62.7718L63.1697 62.5353L63.7229 61.9974C64.2993 61.4362 64.9309 60.9539 65.4935 60.5273C65.6502 60.4067 65.7978 60.2954 65.9361 60.1888C66.3603 59.674 66.8813 59.3262 67.4899 59.1546C68.0432 58.9969 68.5734 58.9691 69.0714 59.0758C69.5831 59.1824 70.0258 59.4143 70.39 59.7668C70.7543 60.1192 71.0125 60.569 71.16 61.1023L71.2522 61.427L70.9756 61.6125C70.6482 61.8351 70.284 62.0206 69.9197 62.1921C70.2471 62.1736 70.5791 62.1643 70.9156 62.1597C71.4459 62.1458 71.9945 62.1365 72.5709 62.0762C73.5115 62.0391 74.263 61.9974 74.9684 61.9093C76.6882 61.4362 78.6801 60.8705 80.6719 60.3093C91.3687 57.2857 91.3872 57.3089 91.6684 57.7216L91.8575 57.9952L91.6546 58.2781C91.4194 58.5749 91.3641 58.7465 91.3503 58.8253C91.3364 58.9088 91.3318 59.1129 91.4655 59.5488L91.5993 59.994L89.6766 60.5598L89.5475 60.1146C89.529 60.0543 89.5152 59.9986 89.506 59.9476C87.7124 60.2954 82.8066 61.4965 78.7354 62.4936L77.3291 62.8367C76.6929 62.9527 76.1119 63.0733 75.5448 63.1892L75.0929 63.2727C71.1877 63.3051 67.7573 63.8848 64.8987 64.9885L61.4038 66.338H61.3945ZM68.412 60.1053C68.7025 60.1053 68.9745 60.1656 69.2281 60.2908C69.6016 60.4763 69.7122 60.736 69.7353 60.9168C69.7491 61.0328 69.7353 61.1533 69.6938 61.2693C69.8552 61.1904 70.0119 61.107 70.1595 61.0235C70.058 60.7916 69.9243 60.5969 69.7537 60.4299C69.514 60.198 69.2281 60.0496 68.8869 59.9754C68.5365 59.9012 68.1492 59.9244 67.7389 60.0404C67.4069 60.1331 67.121 60.2954 66.8674 60.5366C67.2778 60.3511 67.5821 60.249 67.785 60.1934C68.0017 60.1331 68.2138 60.1006 68.4166 60.1006L68.412 60.1053ZM90.4558 58.5796C89.4737 58.8114 87.7217 59.2891 85.7483 59.8363C89.5198 58.9413 90.1792 58.8578 90.4189 58.9691C90.4189 58.8578 90.4189 58.7558 90.4374 58.6677C90.442 58.6398 90.4466 58.6074 90.4558 58.5796Z" fill="currentColor"/>
<path d="M78.5781 65.276L78.4536 65.2436C78.3061 65.2065 78.1586 65.174 78.011 65.1462C77.5684 65.1601 77.1119 65.1601 76.5955 65.1045L76.4757 65.0766C76.4249 65.0581 76.3696 65.0395 76.3189 65.021C75.7518 65.021 75.1708 65.0581 74.576 65.0905C73.7507 65.1369 72.9024 65.1833 72.0632 65.1508C71.6298 65.1508 71.1872 65.1184 70.763 65.0071L59.582 62.0901L70.9566 64.1028C71.3255 64.1677 71.7036 64.2048 72.0909 64.2233C72.5612 64.2141 73.0499 64.1538 73.5571 64.0889C74.5253 63.9683 75.5212 63.8384 76.4526 64.0981C76.9967 64.0981 77.5407 64.1352 78.071 64.2233C78.1355 64.2233 78.2001 64.2233 78.2692 64.2187C78.4675 64.2141 78.6703 64.2048 78.8778 64.2048C81.114 63.5324 83.8205 62.7301 86.3841 61.9695C90.3308 60.7963 94.4021 59.5905 95.1213 59.3401C95.2643 59.1639 95.4671 59.034 95.7069 58.9691C96.0112 58.8856 96.3063 58.9135 96.5553 59.0526L96.8227 59.2056L96.7904 59.5117C96.7658 59.7374 95.8007 60.1378 93.8949 60.7128C92.3319 61.1858 90.2017 61.8165 87.9471 62.4843C85.9968 63.064 83.9496 63.6715 82.0869 64.228C80.8466 64.599 79.6939 64.9468 78.7026 65.2482L78.5781 65.2853V65.276ZM67.7015 59.2474L73.1144 57.7263L96.5368 55.1942C97.2791 55.1154 98.0952 55.0319 99.0497 54.9763C100.202 54.8232 101.337 54.6656 102.452 54.5172C104.504 54.2389 106.496 53.9699 108.681 53.6917C109.917 53.6453 110.692 53.6639 110.724 53.6639L113.822 53.7427L110.839 54.5774C110.839 54.5774 110.212 54.7537 109.378 54.9763C108.889 55.1061 108.262 55.287 107.533 55.5003C107.026 55.6487 106.473 55.8064 105.887 55.9733C104.947 56.2377 104.066 56.4881 103.296 56.706L100.461 57.4944L67.7061 59.252L67.7015 59.2474ZM105.98 54.9763C104.841 55.1293 103.716 55.2823 102.577 55.4354C101.461 55.5884 100.331 55.7414 99.1419 55.8991C98.1736 55.9594 97.3668 56.0382 96.6383 56.1171L84.7104 57.4063L100.35 56.5669L103.038 55.811C103.808 55.593 104.689 55.3473 105.629 55.0783C105.744 55.0458 105.864 55.0134 105.975 54.9809L105.98 54.9763Z" fill="currentColor"/>
<path d="M81.6186 79.6197L81.4849 79.2765C81.2821 79.2672 81.0792 79.258 80.8809 79.2533L80.1986 79.2209C80.051 79.2116 79.9035 79.2023 79.7513 79.2209C79.6268 79.2394 79.4747 79.258 79.2995 79.2209C78.8522 79.1188 78.3958 79.0771 77.9116 79.0354C77.1924 78.9751 76.45 78.9102 75.7262 78.6273C75.0253 78.6365 74.3891 78.4464 73.7758 78.2563C73.3978 78.1403 73.0427 78.029 72.6785 77.9688C72.6416 77.9641 72.6093 77.9595 72.5771 77.9548C72.471 77.9409 72.3419 77.927 72.2082 77.876C71.1754 77.4911 70.1426 77.1062 69.1144 76.7027C68.6533 76.5219 68.2937 76.3549 67.9848 76.1694C67.7082 76.0071 67.45 75.8216 67.201 75.6454C67.0488 75.5387 66.9013 75.4321 66.7491 75.33C66.5509 75.2002 66.3434 75.075 66.1267 74.9637C65.9469 74.8663 65.7624 74.7782 65.578 74.6854C65.3429 74.5695 65.1077 74.4489 64.8726 74.3237C64.7296 74.2449 64.5959 74.1521 64.4622 74.0594C64.3746 73.9991 64.287 73.9388 64.1994 73.8832C63.8582 73.6791 63.6092 73.6606 63.2081 73.795L62.996 73.8692C62.4335 74.0594 61.9033 74.2356 61.4468 74.588C61.1794 74.7967 60.8659 74.9173 60.5616 75.0286C60.4325 75.075 60.3034 75.126 60.1697 75.1863C60.0498 75.2419 59.9068 75.2373 59.787 75.1816C59.6671 75.126 59.5749 75.0147 59.538 74.8895L59.4504 74.5695C59.3951 74.3608 59.3489 74.18 59.289 74.0037L59.2429 73.8553C59.1876 73.6791 59.1322 73.5122 59.0585 73.4009C58.5513 72.6774 58.3392 71.8705 58.2009 71.1749C58.1594 70.9616 58.0948 70.7529 58.0303 70.5303C57.9842 70.3726 57.9381 70.2149 57.8966 70.0526L57.8366 69.8207C57.7583 69.5286 57.6799 69.2272 57.6522 68.9025C57.5969 68.2811 57.394 67.7432 57.0298 67.2655C56.9514 67.1681 56.8776 67.0754 56.8315 66.9502C56.6379 66.4308 56.292 65.9856 55.9232 65.5218C55.6696 65.2018 55.4068 64.8679 55.1947 64.497C54.9227 64.0286 54.6645 63.5463 54.4155 63.0779C54.125 62.526 53.8207 61.9603 53.498 61.4223C53.4057 61.2739 53.3781 61.1163 53.3643 61.0096C53.3643 60.9864 53.355 60.9632 53.3504 60.9447C53.3181 60.8195 53.3412 60.6896 53.4057 60.5783C53.4657 60.4624 53.5625 60.2722 53.7977 60.2212C54.3786 60.0867 54.8996 59.7807 55.4529 59.4607C55.9324 59.1824 56.4304 58.8903 56.9883 58.7048C57.1681 58.6445 57.2004 58.5981 57.2004 58.5981C57.2004 58.5981 57.2234 58.5425 57.1773 58.3106C57.0574 57.7124 57.1358 57.1559 57.4355 56.4973C57.5139 56.3258 57.5508 56.08 57.5415 55.8064C57.5231 55.2777 57.56 54.7212 57.9519 54.225C58.1271 54.0024 58.187 53.8076 58.1548 53.5526C58.0718 52.9451 58.3346 52.4535 58.5974 52.0547C58.7357 51.8413 58.9017 51.5724 58.9202 51.359C58.9755 50.7237 59.1553 50.2043 59.4873 49.7359C59.5656 49.6246 59.6533 49.4994 59.6625 49.4438C59.8285 48.4235 60.3264 47.5888 60.8059 46.7772C60.9673 46.5083 61.1287 46.2393 61.2716 45.9657C61.4376 45.6503 61.7327 45.3489 62.0785 45.1402C62.3136 44.9965 62.369 44.8898 62.3966 44.7321C62.4381 44.5003 62.5119 44.1664 62.6963 43.8881C63.2219 43.109 63.6692 42.4922 64.098 41.9497C64.2916 41.7085 64.4991 41.4442 64.7757 41.2448C64.8172 41.1103 64.891 40.9619 65.0201 40.8645C65.223 40.7161 65.4535 40.7115 65.6748 40.7022C65.7578 40.7022 65.85 40.7022 65.9515 40.6883C66.1082 40.6744 66.2604 40.7393 66.3572 40.8599C66.454 40.9804 66.4863 41.1474 66.4356 41.2958C66.4033 41.3978 66.3803 41.4906 66.3618 41.574C66.3019 41.8152 66.2373 42.0934 65.9745 42.2325C65.6933 42.3809 65.3475 42.3021 65.1077 42.1862C65.0247 42.2743 64.9417 42.3809 64.8449 42.5015C64.4069 43.058 63.9735 43.6562 63.4617 44.4168C63.3649 44.5605 63.3234 44.811 63.3095 44.8944C63.2081 45.4741 62.8577 45.757 62.558 45.9379C62.3551 46.0584 62.1753 46.2393 62.0877 46.4063C61.9356 46.6938 61.765 46.9767 61.599 47.2549C61.1425 48.0201 60.7091 48.7482 60.5708 49.5922C60.5247 49.8612 60.3771 50.0745 60.2573 50.2461C60.0083 50.6031 59.8792 50.9741 59.8377 51.4425C59.8008 51.8645 59.5749 52.2494 59.3628 52.5741C59.1184 52.9451 59.0354 53.1862 59.0677 53.432C59.1369 53.9375 59.0078 54.3873 58.6758 54.8047C58.4821 55.0505 58.4499 55.3565 58.4637 55.7739C58.4729 56.0661 58.4499 56.4973 58.2747 56.8823C58.058 57.3599 58.0026 57.7309 58.081 58.1297C58.2332 58.8996 57.9888 59.3447 57.2741 59.5859C56.8038 59.7436 56.3704 59.9986 55.9094 60.263C55.416 60.5505 54.9088 60.8426 54.3325 61.0328C54.646 61.5522 54.9365 62.104 55.2224 62.6373C55.4667 63.0964 55.7157 63.5695 55.9831 64.0239C56.1676 64.3393 56.3981 64.6314 56.6425 64.9421C57.039 65.443 57.4447 65.9624 57.6891 66.6209C57.6891 66.6116 57.7029 66.6255 57.7121 66.6395L57.7536 66.6951C58.2285 67.3165 58.496 68.0121 58.5651 68.8144C58.5882 69.0556 58.6527 69.3106 58.7219 69.575L58.7864 69.8161C58.8233 69.9645 58.8648 70.1083 58.9109 70.2567C58.9801 70.4885 59.0493 70.7297 59.1 70.9801C59.2245 71.6062 59.3997 72.2693 59.8054 72.8536C59.9622 73.0809 60.0452 73.3359 60.1143 73.5632L60.1558 73.6977C60.2019 73.8368 60.2434 73.9805 60.2849 74.1336C60.5201 74.0455 60.7275 73.962 60.8751 73.8461C61.4514 73.4009 62.0831 73.1875 62.6917 72.9835L62.9038 72.9139C63.5631 72.6913 64.0888 72.7377 64.6651 73.0809C64.7711 73.1458 64.8772 73.2154 64.9786 73.2849C65.0847 73.3591 65.1953 73.4333 65.306 73.4982C65.5273 73.6188 65.7532 73.7301 65.9791 73.8414C66.1682 73.9342 66.3572 74.0316 66.5463 74.1289C66.786 74.2542 67.0258 74.3979 67.2517 74.5463C67.4131 74.653 67.5698 74.7643 67.7266 74.8756C67.9756 75.0518 68.2061 75.2187 68.4505 75.3625C68.7179 75.5202 69.0314 75.6686 69.4464 75.8309C70.47 76.2297 71.4982 76.6146 72.5263 76.9995C72.5586 77.0134 72.6232 77.0181 72.6831 77.0273C72.7292 77.032 72.7799 77.0366 72.826 77.0459C73.2502 77.1155 73.6514 77.2407 74.0433 77.3612C74.6334 77.5421 75.1959 77.7183 75.7723 77.6905C75.906 77.6859 76.0028 77.7322 76.0443 77.7508C76.6345 77.9873 77.2754 78.0429 77.9531 78.0986C77.9578 78.08 77.967 78.0661 77.9716 78.0522C77.99 78.0105 78.0085 77.9595 78.0269 77.9038C78.0776 77.7415 78.2113 77.6256 78.3773 77.5931C78.5433 77.5607 78.7093 77.6209 78.82 77.7508C78.8614 77.7972 78.8983 77.8389 78.9306 77.8714C79.0182 77.9595 79.1289 78.0754 79.1704 78.2424C79.281 78.2609 79.3917 78.2841 79.5023 78.3119C79.5254 78.3119 79.5807 78.3026 79.6222 78.298C79.8297 78.2702 80.0372 78.2795 80.2447 78.2934L80.9132 78.3212C80.9501 78.3212 80.9916 78.3212 81.0285 78.3258L81.0146 78.2377C81.2267 78.2006 81.4665 78.247 81.674 78.3537C81.8584 78.3583 82.0474 78.3676 82.2319 78.3722L82.2042 79.2997C82.112 79.2997 82.0244 79.2951 81.9322 79.2904C81.8722 79.4249 81.7754 79.5548 81.6186 79.6197ZM81.1022 78.9009C81.1022 78.938 81.1207 78.989 81.1484 79.0446L81.1207 78.8731C81.1207 78.8731 81.1069 78.8916 81.1022 78.9009ZM75.8276 78.6226C75.8276 78.6226 75.823 78.6226 75.8184 78.6226C75.8184 78.6226 75.823 78.6226 75.8276 78.6226ZM81.7616 76.9114C81.5587 76.9114 81.3512 76.8604 81.2037 76.7166C80.9916 76.5126 80.9916 76.2343 80.9962 75.9839C80.9962 75.9004 80.9962 75.8031 80.9916 75.701C80.9824 75.548 81.0469 75.395 81.1714 75.3022C81.2959 75.2048 81.4527 75.1816 81.6002 75.228C81.6924 75.2605 81.78 75.2837 81.8584 75.3022C82.0705 75.3579 82.2918 75.4181 82.4578 75.6036C82.6653 75.8355 82.6192 76.188 82.5915 76.3271C82.5454 76.559 82.4394 76.7166 82.2734 76.8001C82.1443 76.865 81.9552 76.9114 81.7662 76.9114H81.7616ZM78.9905 76.3735C78.8292 76.3735 78.6447 76.3364 78.5064 76.1694C78.3635 75.9932 78.3312 75.7891 78.3082 75.6036C78.2989 75.5434 78.2897 75.4784 78.2759 75.4042C78.2436 75.2558 78.2897 75.1028 78.3912 74.9915C78.4926 74.8802 78.6401 74.8292 78.7969 74.8524C78.8661 74.8617 78.9352 74.8663 78.9952 74.8709C79.2026 74.8848 79.4885 74.9034 79.636 75.177C79.7467 75.3811 79.7421 75.5944 79.7375 75.752C79.7375 75.7891 79.7375 75.8309 79.7375 75.868C79.7421 75.9932 79.696 76.1184 79.6084 76.2112C79.5208 76.3039 79.4009 76.3549 79.2764 76.3549C79.2487 76.3549 79.2165 76.3549 79.1842 76.3642C79.1335 76.3688 79.0689 76.3781 78.9998 76.3781L78.9905 76.3735ZM76.3809 75.7752C76.2933 75.7752 76.2103 75.7613 76.1457 75.7474C76.1042 75.7381 76.0628 75.7289 76.012 75.7242C75.8691 75.7103 75.7446 75.6315 75.6708 75.5109C75.5971 75.3903 75.5786 75.2419 75.6293 75.1074C75.6478 75.0564 75.6616 75.0054 75.6755 74.959C75.7216 74.7875 75.8138 74.4721 76.1504 74.435C76.3394 74.4165 76.5054 74.4675 76.6253 74.5092C76.6529 74.5185 76.6806 74.5278 76.7082 74.537C76.8327 74.5695 76.9388 74.6576 76.9987 74.7735C77.0587 74.8895 77.0633 75.0286 77.0172 75.1492C77.0079 75.1677 77.0033 75.1909 76.9987 75.2095C76.9664 75.3347 76.9065 75.548 76.7082 75.6778C76.5976 75.752 76.4823 75.7706 76.3763 75.7706L76.3809 75.7752ZM79.7559 73.6466C79.5761 73.6466 79.4101 73.5956 79.2672 73.5493C79.2165 73.5307 79.1658 73.5168 79.115 73.5029C78.9952 73.4751 78.8891 73.4009 78.8246 73.2896C78.76 73.1829 78.7416 73.0531 78.7738 72.9325C78.7831 72.8907 78.7923 72.8397 78.7969 72.7934C78.8292 72.5939 78.8707 72.3157 79.0966 72.1348C79.3271 71.9493 79.5992 71.9957 79.8389 72.0328C79.9173 72.0467 80.0003 72.0606 80.0879 72.0653C80.2262 72.0746 80.3553 72.1487 80.4337 72.2647C80.5121 72.3806 80.5351 72.529 80.4936 72.6635C80.466 72.7563 80.4475 72.849 80.4291 72.9325C80.3691 73.2015 80.2954 73.54 79.9496 73.6188C79.885 73.6327 79.8205 73.6374 79.7605 73.6374L79.7559 73.6466ZM76.9987 73.0716C76.7451 73.0716 76.4316 72.9835 76.2195 72.7748C75.989 72.5429 76.0627 72.2508 76.1181 72.0143C76.1365 71.9401 76.155 71.8566 76.1734 71.7685C76.1965 71.6201 76.2887 71.4949 76.4224 71.4299C76.5561 71.365 76.7082 71.365 76.842 71.4299C76.9157 71.467 76.9849 71.4995 77.0494 71.5273C77.2385 71.6108 77.4506 71.7036 77.5843 71.9122C77.7687 72.2044 77.6073 72.5939 77.5566 72.7052C77.4552 72.9186 77.3076 73.0391 77.114 73.0623C77.0771 73.0623 77.0402 73.067 76.9987 73.067V73.0716ZM66.1313 57.2996C66.0345 57.2996 65.9376 57.2672 65.8546 57.2069C65.7486 57.128 65.6794 57.0028 65.6702 56.8683L65.6241 56.2469C65.6149 56.1217 65.6564 56.0011 65.7394 55.9084C65.8224 55.8156 65.9376 55.76 66.0621 55.7507L66.7584 55.7136C66.8782 55.7043 67.0027 55.7507 67.0903 55.8296C67.1825 55.913 67.2379 56.029 67.2425 56.1495C67.2425 56.1913 67.2517 56.2377 67.2609 56.2887C67.2932 56.5205 67.3439 56.873 67.035 57.0585C66.8275 57.1837 66.6108 57.2208 66.4172 57.2533C66.3572 57.2625 66.2973 57.2718 66.2327 57.2857C66.2005 57.295 66.1636 57.295 66.1313 57.295V57.2996ZM76.3025 51.3173C75.9521 51.3173 75.5971 51.206 75.5002 51.1736C75.2513 51.0901 74.9055 50.937 74.8271 50.6124C74.6657 49.9539 74.8363 49.096 75.219 48.6183C75.5002 48.2659 75.989 48.3401 76.6022 48.4375C76.8466 48.4746 77.1232 48.5163 77.4091 48.5395C77.5566 48.5488 77.6857 48.6322 77.7641 48.7574C77.8425 48.8827 77.8563 49.0357 77.801 49.1748C77.7042 49.4206 77.6304 49.6571 77.5658 49.8704C77.3999 50.3945 77.2569 50.8489 76.8973 51.1504C76.7405 51.2802 76.5192 51.322 76.3025 51.322V51.3173ZM75.6985 50.26C75.8691 50.3342 76.2057 50.4037 76.3532 50.3898C76.4823 50.2461 76.5791 49.94 76.6852 49.5875C76.7036 49.5226 76.7267 49.4623 76.7451 49.3928C76.6483 49.3789 76.5515 49.3649 76.4593 49.351C76.2656 49.3186 76.0074 49.2815 75.8737 49.2815C75.7262 49.5273 75.6524 49.9307 75.6939 50.26H75.6985ZM68.0171 49.3742C67.8926 49.3742 67.7681 49.3649 67.6298 49.351C67.4961 49.3418 67.3439 49.3278 67.1641 49.3232C67.0073 49.3232 66.8644 49.2351 66.7814 49.1006C66.6984 48.9661 66.6938 48.7992 66.763 48.6554C66.8413 48.4885 66.9059 48.3308 66.9566 48.1917C67.0949 47.8346 67.2286 47.4961 67.5791 47.4033C68.0632 47.2735 68.5888 47.6445 68.8239 47.881C68.9807 48.0386 69.0268 48.2705 68.9577 48.5905C68.9069 48.8456 68.7824 49.1794 68.4966 49.2907C68.3398 49.351 68.1831 49.3742 68.0171 49.3742ZM67.8511 48.4421C67.9202 48.4467 67.9894 48.4467 68.0447 48.4467C68.0447 48.4467 68.0447 48.4421 68.0447 48.4375C67.9894 48.4004 67.9341 48.3679 67.888 48.3447C67.8741 48.3725 67.8603 48.405 67.8511 48.4375V48.4421ZM64.6236 47.8392C64.5637 47.8392 64.5037 47.8253 64.4438 47.8021C64.4115 47.7882 64.3746 47.7789 64.3377 47.765C64.1902 47.7187 63.9919 47.6491 63.8398 47.4821C63.6415 47.2595 63.7061 46.9906 63.7522 46.7958C63.766 46.7401 63.7798 46.6752 63.7937 46.6057C63.8167 46.4526 63.9135 46.3228 64.0519 46.2579C64.1902 46.1929 64.3516 46.1976 64.4853 46.2764C64.5498 46.3135 64.6098 46.346 64.6651 46.3738C64.8265 46.4573 65.0109 46.55 65.1308 46.7448C65.2921 47.0091 65.1677 47.2781 65.0939 47.4404C65.0801 47.4729 65.0662 47.5007 65.057 47.5285C65.0155 47.6491 64.9279 47.7511 64.808 47.8021C64.7481 47.8299 64.6835 47.8439 64.619 47.8439L64.6236 47.8392ZM67.8741 45.6643C67.556 45.6643 67.201 45.4927 67.0442 45.2423C66.8967 45.0011 66.9474 44.7414 66.9889 44.5142C67.0027 44.4353 67.0212 44.3472 67.0304 44.2545C67.0442 44.1107 67.1272 43.9809 67.2517 43.902C67.3762 43.8232 67.5283 43.8139 67.662 43.8696C67.7543 43.9067 67.8373 43.9345 67.911 43.9577C68.1231 44.0226 68.3444 44.0922 68.5012 44.2962C68.681 44.5281 68.7363 44.8156 68.6533 45.0846C68.5704 45.3443 68.3675 45.5437 68.0955 45.6318C68.0263 45.655 67.9525 45.6643 67.8741 45.6643ZM85.7222 45.1124C85.1504 45.1124 84.611 44.8249 84.2652 44.3101C83.8456 43.6933 83.8226 42.9096 84.2053 42.3067C84.3436 42.0888 84.4957 41.9265 84.6709 41.8105C85.2703 41.4117 86.589 41.7271 87.0639 42.2465C87.4558 42.6731 87.6126 43.2157 87.5019 43.7351C87.382 44.2823 86.9763 44.7368 86.3907 44.9826C86.2893 45.0243 86.1786 45.0568 86.0588 45.0799C85.9481 45.1031 85.8374 45.1124 85.7268 45.1124H85.7222ZM85.3764 42.5525C85.2888 42.5525 85.215 42.5618 85.1735 42.585C85.1089 42.6267 85.0444 42.7009 84.9798 42.803C84.7585 43.1554 84.8554 43.5403 85.026 43.7861C85.2334 44.0922 85.5516 44.2359 85.8789 44.1664C85.9343 44.1571 85.985 44.1432 86.0357 44.12C86.34 43.9948 86.5429 43.7768 86.5982 43.5264C86.6489 43.3038 86.5752 43.0766 86.3815 42.8679C86.2017 42.6731 85.6853 42.5479 85.3764 42.5479V42.5525ZM65.1492 45.0475C65.0893 45.0475 65.0293 45.0336 64.974 45.0104C64.951 45.0011 64.9187 44.9918 64.891 44.9826C64.7573 44.9408 64.559 44.8805 64.4161 44.695C64.2916 44.5374 64.2593 44.3565 64.2271 44.1849C64.2132 44.12 64.1994 44.0458 64.181 43.9577C64.1395 43.7861 64.1994 43.6052 64.3285 43.4939C64.4622 43.378 64.6466 43.3502 64.808 43.4197C64.9648 43.4847 65.0893 43.5357 65.1861 43.5728C65.4305 43.6655 65.7071 43.7675 65.7394 44.1014C65.7578 44.324 65.6794 44.5095 65.6195 44.644C65.6057 44.6765 65.5918 44.7089 65.578 44.7414C65.5365 44.862 65.4443 44.9594 65.329 45.0104C65.2691 45.0382 65.2045 45.0521 65.14 45.0521L65.1492 45.0475ZM77.4644 43.2899C77.0955 43.2899 76.7313 43.211 76.4639 43.007C76.0904 42.7195 76.0766 42.2094 76.0581 41.5648C76.0489 41.2911 76.0397 40.9804 76.0028 40.6558C75.9844 40.5028 76.0489 40.3451 76.1642 40.2477C76.2841 40.1503 76.4454 40.1132 76.593 40.1596C76.9065 40.257 77.1924 40.3219 77.4414 40.3776C78.0085 40.5074 78.4603 40.6141 78.7646 40.9526C79.1012 41.3236 79.0505 42.0888 78.9721 42.4412C78.9444 42.5664 78.8661 42.9374 78.5571 43.0766C78.2759 43.1971 77.8655 43.2945 77.4552 43.2945L77.4644 43.2899ZM76.9711 41.2169C76.9711 41.3282 76.9803 41.4349 76.9803 41.5323C76.9895 41.8152 77.0033 42.2047 77.054 42.2975C77.1785 42.3856 77.6765 42.3949 78.073 42.265C78.1191 42.0656 78.1283 41.6668 78.0684 41.5462C77.9762 41.4488 77.635 41.37 77.2385 41.2772C77.1509 41.2587 77.0633 41.2355 76.9711 41.2123V41.2169Z" fill="currentColor"/>
<path d="M59.6347 81.2135L63.8858 73.5617C64.1901 73.0145 64.3007 72.5879 64.1901 72.4024C64.1578 72.3513 64.1071 72.305 64.0425 72.2632C63.6691 72.3467 63.1066 72.5137 62.2813 72.8012L61.645 73.0238L61.668 72.3467C61.6726 72.2076 61.4421 72.0963 61.1194 72.0082H61.0779L61.0456 71.9896C60.7182 71.9062 60.3217 71.8412 59.9805 71.7856C59.8145 71.7578 59.6439 71.7299 59.4733 71.7021C58.6849 71.5073 58.0993 71.3218 57.8181 71.2337C57.7582 71.2152 57.712 71.2013 57.6844 71.192C56.8314 71.0343 56.2182 70.7514 55.9738 69.8981L55.7617 69.1469L56.5179 69.3185C58.565 69.7776 60.271 70.4036 61.3407 71.0807C62.5395 71.0621 63.4939 71.0807 64.1486 71.3079C64.7756 71.2105 65.1768 71.2986 65.4165 71.6186C65.7716 72.0916 65.5502 72.8012 64.6604 74.0672L59.6301 81.2274L59.6347 81.2135ZM57.6705 71.1781H57.6798H57.6752H57.6705Z" fill="currentColor"/>
<path d="M58.8107 67.3104L58.6816 66.9209C58.05 64.9964 57.7687 63.146 57.8517 61.4209C58.0638 56.8437 60.9224 52.0347 65.2334 48.858C65.8006 48.385 66.3953 47.9213 67.0178 47.4761C67.216 47.2813 67.4051 47.0912 67.5849 46.901C67.6633 46.8222 67.737 46.7433 67.8154 46.6645C68.0552 46.3213 68.2857 45.9874 68.5024 45.6675C69.2909 44.4664 70.3928 42.783 70.651 42.3517C70.651 42.1198 70.7202 41.8972 70.8631 41.6885C71.0383 41.4288 71.2827 41.2619 71.5639 41.2062L71.8636 41.1506L72.0342 41.4056C72.1633 41.5973 71.5532 42.7242 70.2038 44.7863C69.9271 45.2083 69.6228 45.6721 69.2862 46.1683C69.0926 46.4651 68.8805 46.7804 68.6546 47.1283L68.5946 47.2025C68.5946 47.2025 68.5485 47.2488 68.5301 47.2674C68.4148 47.4343 68.2949 47.6013 68.1705 47.7729L68.1243 47.8378L68.0552 47.8842C67.9076 47.9862 67.7601 48.0882 67.6126 48.1949C67.3912 48.4082 67.1515 48.6262 66.8795 48.8534L66.8334 48.8859C66.4783 49.1131 66.1325 49.3496 65.7959 49.5954C61.7524 52.99 59.2303 57.0663 58.9168 60.8551C58.7831 62.4597 59.009 64.1894 59.5945 66.1418C59.8527 66.3134 59.8942 66.5221 59.8758 66.6798C59.8297 67.1064 59.364 67.1991 59.2072 67.2316L58.8061 67.3104H58.8107ZM55.4126 64.4445L54.8225 63.4938C54.2507 62.571 54.1677 61.56 54.0894 60.5815C54.011 59.6262 53.9418 58.7729 53.4208 58.1283C53.2087 58.9027 53.1303 59.6123 53.5499 60.345L53.845 60.8598L53.2779 61.0221C52.9644 61.1102 52.7338 60.9989 52.6139 60.9386C52.5909 60.9247 52.554 60.9061 52.5402 60.9061L52.056 61.0406L51.9408 60.549C51.761 59.5427 51.7149 58.5178 51.7978 57.5903C51.7656 57.4327 51.5765 56.7973 50.6406 54.2467C49.3081 50.6017 47.2932 45.3382 47.2701 45.2872L44.9141 39.1426L48.1001 44.8976C48.1323 44.9533 51.2768 50.6295 52.992 53.3517C53.3978 54.001 53.6329 54.3349 53.7666 54.5018L53.8081 54.4786L54.0525 54.7615C55.242 56.1342 55.3435 57.595 55.4403 59.0094C55.4541 59.1949 55.468 59.3804 55.4818 59.5613C57.1509 55.4293 59.3548 50.7687 63.6842 48.181L64.883 46.5671C67.382 43.205 68.7514 41.3825 69.5398 40.4132C69.5076 40.2973 69.5122 40.1767 69.5629 40.0654C69.6782 39.8011 69.9364 39.7454 70.1438 39.6991C70.1531 39.6991 70.1577 39.6991 70.1669 39.6944C70.5588 39.291 70.6741 39.3281 70.8447 39.3791L71.1536 39.4718L71.1812 39.815C71.1905 40.1443 71.0014 40.3344 70.7939 40.4503C70.8354 40.4828 70.8862 40.5152 70.9369 40.5477L71.3288 40.8074L68.4287 45.097L68.0506 44.842C67.9952 44.8049 67.9491 44.7678 67.9076 44.7353C67.8108 44.8559 67.6909 45.0043 67.5434 45.1898C67.0408 45.8298 66.3262 46.7619 65.3671 48.0465L65.2703 48.1439C64.9522 48.3757 64.6387 48.6169 64.3297 48.8673L64.279 48.909C60.0187 52.3871 57.0494 57.3585 55.6616 63.3686L55.408 64.4584L55.4126 64.4445ZM52.9413 56.5655L53.4531 56.9133C53.8957 57.2147 54.2046 57.5672 54.4213 57.9474C54.3107 57.0756 54.0801 56.2455 53.4439 55.4618C53.158 55.2902 52.8214 54.794 52.2128 53.834C51.6549 52.9529 50.9541 51.7657 50.2533 50.56C50.6821 51.7054 51.1201 52.8741 51.4981 53.9175C52.365 56.2919 52.6139 57.0663 52.6831 57.3631C52.7062 57.2935 52.7246 57.224 52.7476 57.1591L52.9367 56.5655H52.9413ZM68.3872 43.409L68.4148 43.4554L68.9128 42.718C68.7422 42.9406 68.567 43.1725 68.3872 43.409Z" fill="currentColor"/>
<path d="M58.6268 60.7624L58.53 59.8349C58.5023 59.5844 58.4885 59.3387 58.4885 59.0929L57.7231 59.9462L58.4608 57.7898C58.5531 57.5254 58.6499 57.2657 58.7559 57.006C59.1986 55.3876 60.1576 53.987 61.3425 52.6978C62.5044 51.2741 63.9153 49.9803 65.5244 48.8719C66.4696 48.0511 67.3595 47.2535 68.1111 46.4187L69.2407 44.7029C71.3708 41.4752 73.7684 37.8348 74.1649 37.1716C74.1649 36.9398 74.2341 36.7125 74.377 36.5085C74.5522 36.2488 74.7966 36.0818 75.0778 36.0262L75.3775 35.9705L75.5481 36.2256C75.6741 36.4173 75.1885 37.351 74.0911 39.0266C73.192 40.4039 71.961 42.2728 70.6562 44.253L68.3416 47.745C67.7007 48.3804 67.0921 48.9554 66.1469 49.5629C66.1285 49.5768 66.1054 49.5907 66.087 49.6046C65.861 49.7994 65.6351 49.9942 65.4138 50.1843C64.2104 51.2138 62.9932 52.2573 61.9696 53.3842C61.3656 54.1354 60.8354 54.9238 60.3835 55.7354C61.195 54.9563 62.0388 54.2282 62.9102 53.5511C64.713 52.3315 66.5711 51.3437 67.9912 50.6203L68.1249 50.5785C69.1208 50.4116 70.1121 50.2585 71.1172 50.1055C72.0486 49.9617 72.9938 49.818 73.9574 49.6603L90.7219 46.8732L74.1326 50.5692C72.1131 51.0191 70.1398 51.3437 68.2263 51.6544L68.1064 51.673C66.4743 52.619 64.7867 53.5975 63.2237 54.7708C61.7483 56.2177 60.5449 57.7712 59.6504 59.3804C59.5859 59.7189 59.4752 59.9508 59.3046 60.1131L58.6268 60.7531V60.7624ZM55.7682 59.9972L56.7364 56.3614C56.9117 55.7029 57.0454 55.0444 57.1791 54.4044C57.3912 53.3795 57.6079 52.3222 57.9906 51.2509C57.8061 51.3298 57.6448 51.4782 57.4972 51.6915C57.3819 51.8585 57.1468 52.248 56.8471 52.9483C56.7272 53.1801 56.6857 53.4491 56.6396 53.7413C56.5382 54.3766 56.3953 55.2484 55.4132 55.6519L54.7031 55.944L54.7815 55.1742C54.8645 54.372 55.0397 53.5929 55.1965 52.9019C55.238 52.7071 55.2795 52.5262 55.3163 52.3547C55.3117 51.6869 55.4869 51.0794 55.8466 50.5553C56.1693 50.0777 56.5612 49.7159 57.0039 49.4702C57.4603 49.2197 57.9537 49.1131 58.4562 49.1455C58.9588 49.1826 59.4429 49.3589 59.8994 49.6696L60.176 49.8597L60.0838 50.1843C59.9732 50.5646 59.8118 50.9402 59.6458 51.3112C59.8856 51.084 60.1345 50.866 60.3881 50.6388C60.7846 50.2864 61.1996 49.9246 61.6007 49.5026C62.2923 48.8673 62.841 48.3525 63.3298 47.8239C64.3441 46.3445 65.5198 44.6148 66.6863 42.8943C72.9385 33.6796 72.9661 33.6843 73.4456 33.8234L73.7638 33.9115L73.7914 34.2593C73.8007 34.6396 73.8698 34.8065 73.9067 34.8761C73.9482 34.9503 74.0773 35.108 74.4554 35.3584L74.8427 35.6135L73.7315 37.2876L73.3488 37.0325C73.2981 37.0001 73.252 36.963 73.2105 36.9305C72.0578 38.3588 69.0562 42.4676 66.5665 45.8715L65.7273 47.017C65.3124 47.5224 64.9389 47.9908 64.5746 48.4546L64.2934 48.7931C61.3241 51.3437 59.0649 54.0056 57.5802 56.7L55.7636 59.9925L55.7682 59.9972ZM58.2718 50.0684C57.9813 50.0684 57.7093 50.1426 57.4419 50.2864C57.1284 50.4579 56.8471 50.7223 56.6073 51.0794C56.4137 51.3669 56.2984 51.6776 56.2569 52.0254C56.4506 51.6173 56.6212 51.3437 56.7364 51.1675C57.0454 50.713 57.4373 50.4208 57.9076 50.3049C58.3133 50.2029 58.5577 50.3327 58.696 50.4579C58.7836 50.5368 58.8481 50.6388 58.8896 50.7547C58.9634 50.5878 59.028 50.4255 59.0879 50.2678C58.862 50.1565 58.6314 50.0916 58.3963 50.0777C58.3548 50.0777 58.3133 50.0777 58.2718 50.0777V50.0684ZM73.0722 35.2703C72.4682 36.0865 71.4215 37.5983 70.2504 39.3049C72.5788 36.1653 73.0353 35.6691 73.2935 35.5949C73.2197 35.5114 73.1598 35.4326 73.1137 35.3491C73.0998 35.3213 73.086 35.2981 73.0722 35.2703Z" fill="currentColor"/>
<path d="M51.6726 57.915L61.664 52.1042C61.9913 51.9141 62.3049 51.6961 62.6092 51.4643C62.9642 51.1536 63.3008 50.7872 63.6466 50.4116C64.3105 49.6928 64.9929 48.9508 65.8689 48.5427C66.2885 48.1949 66.7265 47.8656 67.1876 47.592C67.2383 47.5503 67.2844 47.5039 67.3351 47.4575C67.4827 47.323 67.6302 47.1885 67.787 47.0541C69.0734 45.0878 70.6364 42.7134 72.1211 40.4689C74.3895 37.0279 76.7318 33.4802 77.1191 32.8217C77.1191 32.5898 77.1882 32.3672 77.3311 32.1586C77.5064 31.8989 77.7507 31.7319 78.032 31.6763L78.3317 31.6206L78.5023 31.8803C78.6283 32.072 78.1442 33.0041 77.0499 34.6767C76.1508 36.0494 74.9244 37.9136 73.6241 39.8892C72.5037 41.5911 71.328 43.3766 70.2583 44.9997C69.5483 46.0848 68.8843 47.1004 68.3172 47.9723L68.2481 48.0789L68.1328 48.1346C67.9991 48.1995 67.8654 48.2737 67.7317 48.3479C67.3997 48.6401 67.0493 48.9415 66.6205 49.2337L66.5098 49.2893C66.4591 49.3079 66.4038 49.3264 66.3531 49.3496C65.9197 49.716 65.4955 50.1194 65.0621 50.5321C64.4581 51.1025 63.8448 51.6869 63.1763 52.2016C62.8443 52.4891 62.4847 52.7442 62.0882 52.9343L51.668 57.9242L51.6726 57.915ZM56.0666 50.4858L59.2387 45.8251L75.5652 28.7408C76.0863 28.1982 76.658 27.6092 77.3542 26.9507C78.1426 26.0835 78.9126 25.2302 79.6734 24.3908C81.0658 22.8512 82.4168 21.3579 83.9106 19.7395C84.8282 18.9047 85.4322 18.4178 85.4552 18.3992L87.8758 16.4561L86.1238 19.0253C86.1238 19.0253 85.7549 19.5632 85.2616 20.2728C84.9665 20.6948 84.5976 21.2513 84.1642 21.8912C83.8737 22.3225 83.5602 22.7955 83.2236 23.2918L80.0376 27.9663L56.0758 50.4811L56.0666 50.4858ZM82.6565 22.4709C81.8819 23.3196 81.1211 24.1636 80.3512 25.0169C79.5904 25.8563 78.8204 26.7096 78.0089 27.5999C77.3081 28.2677 76.741 28.8521 76.2292 29.3854L67.9115 38.0899L79.3645 27.331L82.4583 22.777C82.5274 22.675 82.5966 22.5729 82.6611 22.4756L82.6565 22.4709Z" fill="currentColor"/>
<path d="M60.0654 67.8206C59.9732 67.8206 59.881 67.7927 59.8072 67.7417L59.5352 67.5516C59.36 67.4264 59.2078 67.3197 59.0465 67.2223L58.9174 67.1389C58.7606 67.0415 58.6131 66.9441 58.484 66.9116C57.631 66.6844 56.9578 66.2021 56.4045 65.7615C56.2385 65.6271 56.0587 65.5065 55.8651 65.3766C55.7268 65.2839 55.5884 65.1911 55.4593 65.0984L55.2703 64.9639C55.0213 64.7877 54.7677 64.6068 54.5372 64.3796C54.0992 63.939 53.6012 63.6608 53.0157 63.5309C52.8912 63.5077 52.7759 63.4845 52.6606 63.415C52.1811 63.1414 51.6325 63.0254 51.0515 62.9049C50.6504 62.8214 50.24 62.7379 49.8389 62.5942C49.3317 62.4133 48.8245 62.2092 48.3358 62.0098C47.7595 61.778 47.1693 61.5368 46.5745 61.3374C46.4085 61.2818 46.2887 61.1797 46.2057 61.1102C46.1872 61.0963 46.1734 61.0823 46.1549 61.0684C46.0489 60.9942 45.9797 60.8783 45.9659 60.7531C45.9382 60.6232 45.8921 60.4192 46.0351 60.2291C46.3993 59.7468 46.6022 59.1764 46.8235 58.5689C47.0125 58.0448 47.2062 57.5022 47.5151 56.9968C47.6165 56.8344 47.6119 56.7788 47.6119 56.7788C47.6119 56.7788 47.5935 56.7185 47.4137 56.5747C46.9388 56.1945 46.6437 55.7168 46.4546 55.0212C46.4039 54.8403 46.2748 54.627 46.095 54.423C45.7446 54.0288 45.4172 53.579 45.3988 52.9483C45.3896 52.6607 45.3112 52.4752 45.1221 52.3037C44.6703 51.8909 44.555 51.3483 44.5043 50.8707C44.4766 50.6203 44.4305 50.3049 44.306 50.1287C43.9464 49.6139 43.7482 49.0853 43.702 48.5195C43.6928 48.385 43.679 48.2273 43.6513 48.181C43.1257 47.2906 42.9736 46.3306 42.826 45.3985C42.7753 45.0878 42.7292 44.7771 42.6646 44.471C42.5909 44.1232 42.6231 43.7012 42.7568 43.3163C42.8445 43.0566 42.8214 42.936 42.7384 42.7969C42.6093 42.5789 42.4618 42.2821 42.4295 41.9575C42.3327 41.0022 42.2819 40.2648 42.2635 39.5692C42.2543 39.2585 42.2451 38.9246 42.3327 38.5907C42.2773 38.4609 42.2405 38.2985 42.2773 38.1409C42.3373 37.8951 42.5079 37.7421 42.6739 37.5937C42.7338 37.538 42.803 37.4777 42.8767 37.4035C42.9874 37.2922 43.1441 37.2412 43.2963 37.2737C43.4485 37.3061 43.5776 37.4082 43.6329 37.5566C43.6698 37.6539 43.7159 37.7421 43.7528 37.8163C43.8634 38.0389 43.9879 38.2939 43.8726 38.5722C43.7528 38.869 43.4392 39.0313 43.1764 39.0962C43.1718 39.2168 43.1764 39.3513 43.1764 39.5043C43.1949 40.2185 43.2456 40.9326 43.3378 41.8648C43.3562 42.0317 43.4853 42.2589 43.5268 42.3331C43.8219 42.8433 43.7297 43.2884 43.6191 43.6177C43.5407 43.8403 43.5176 44.0954 43.5591 44.2809C43.6237 44.6008 43.679 44.9255 43.7297 45.2501C43.868 46.1312 44.0017 46.9659 44.4398 47.7033C44.5781 47.9352 44.5965 48.1949 44.615 48.4036C44.6518 48.8441 44.7902 49.2105 45.0576 49.5954C45.2973 49.9432 45.3757 50.3837 45.4172 50.7687C45.4633 51.2046 45.5602 51.4504 45.74 51.6173C46.1134 51.9605 46.3025 52.3871 46.3163 52.9251C46.3255 53.2404 46.4961 53.4955 46.7774 53.8062C46.971 54.0241 47.2292 54.3673 47.3399 54.7754C47.4782 55.2809 47.6719 55.6009 47.99 55.8559C48.5986 56.3429 48.6954 56.8484 48.3035 57.4883C48.0453 57.915 47.8701 58.388 47.6903 58.8935C47.4967 59.4314 47.2938 59.9879 46.9756 60.5027C47.5474 60.6974 48.1237 60.934 48.6816 61.1565C49.1611 61.3513 49.6591 61.5507 50.1524 61.727C50.4936 61.8475 50.8579 61.9264 51.2452 62.0052C51.8676 62.1351 52.5131 62.2695 53.1217 62.6173C53.1125 62.6127 53.1355 62.6173 53.154 62.6173L53.2231 62.6313C53.9747 62.7982 54.6386 63.1692 55.1965 63.7303C55.3671 63.9019 55.5792 64.055 55.8051 64.2126L56.0034 64.3564C56.1279 64.4445 56.2524 64.5326 56.3815 64.6161C56.5797 64.7506 56.7872 64.8897 56.9855 65.0474C57.4834 65.4462 58.0367 65.845 58.7237 66.0259C58.9911 66.0954 59.2171 66.2392 59.4153 66.369L59.5306 66.4432C59.6551 66.5221 59.7796 66.6009 59.9087 66.6937C60.0332 66.4711 60.1392 66.2763 60.1761 66.0908C60.3329 65.3766 60.6787 64.8062 61.0198 64.2544L61.1351 64.0642C61.4994 63.466 61.9328 63.1646 62.5921 63.0533C62.7166 63.0347 62.8411 63.0208 62.9656 63.0069C63.0947 62.993 63.2238 62.9837 63.3529 62.9559C63.6018 62.9049 63.8462 62.8446 64.0906 62.7843C64.2935 62.7333 64.5009 62.6823 64.7038 62.6405C64.9712 62.5802 65.2433 62.5339 65.5107 62.506C65.6997 62.4829 65.8934 62.4689 66.0824 62.4504C66.3867 62.4272 66.6726 62.3994 66.9538 62.353C67.2627 62.302 67.5901 62.2139 68.0143 62.0701C69.0517 61.7177 70.0845 61.3467 71.1173 60.9757C71.1496 60.9618 71.2049 60.9293 71.2556 60.8922C71.2971 60.8644 71.334 60.8412 71.3755 60.818C71.7443 60.5954 72.1363 60.4331 72.5097 60.2708C73.0815 60.0296 73.6163 59.8024 74.0451 59.4036C74.1465 59.3108 74.248 59.2877 74.2941 59.2737C74.8981 59.0743 75.4237 58.7033 75.9816 58.3092C75.977 58.2952 75.9724 58.2767 75.9631 58.2628C75.9493 58.221 75.9309 58.17 75.9078 58.1097C75.8433 57.9521 75.8709 57.7758 75.977 57.646C76.083 57.5161 76.249 57.4512 76.415 57.479C76.4749 57.4883 76.5303 57.4976 76.5764 57.5022C76.7009 57.5161 76.8576 57.5301 76.9959 57.6321C77.0928 57.5764 77.1942 57.5208 77.2956 57.4698C77.3095 57.4605 77.351 57.4141 77.3786 57.3817C77.434 57.3214 77.4893 57.2611 77.5538 57.2101C77.6507 57.1266 77.7567 57.0478 77.8581 56.9736L78.4022 56.5562C78.4253 56.5376 78.4483 56.5191 78.4714 56.5005L78.4022 56.4403C78.5405 56.278 78.7526 56.1527 78.9785 56.1017C79.1261 55.9858 79.269 55.8699 79.4166 55.7539L79.9883 56.482C79.9145 56.5376 79.8454 56.5979 79.7716 56.6536C79.8131 56.7927 79.8223 56.955 79.7393 57.1081L79.4166 56.9318C79.2644 57.0524 79.1076 57.173 78.9555 57.2889L78.3976 57.7156C78.31 57.7805 78.2224 57.85 78.1348 57.9196C78.1025 57.9474 78.0748 57.9799 78.0472 58.0077C77.9642 58.1005 77.8581 58.2164 77.7014 58.2952C77.2956 58.5039 76.9176 58.7729 76.521 59.0511C75.9309 59.4685 75.3223 59.8998 74.5845 60.1502C74.0589 60.614 73.4457 60.8737 72.8509 61.1241C72.4867 61.2771 72.1409 61.4255 71.8273 61.611L71.7443 61.6667C71.6567 61.727 71.5461 61.7965 71.4078 61.8475C70.3704 62.2185 69.333 62.5942 68.2909 62.9512C67.8114 63.1136 67.4379 63.2109 67.0829 63.2712C66.7648 63.3222 66.4466 63.3501 66.1377 63.3779C65.9579 63.3918 65.7735 63.4104 65.5937 63.4289C65.3585 63.4567 65.1188 63.4985 64.8836 63.5495C64.6854 63.5912 64.4871 63.6422 64.2888 63.6886C64.0306 63.7535 63.777 63.8138 63.5188 63.8695C63.3621 63.9019 63.1961 63.9205 63.0347 63.9344C62.9287 63.9437 62.8226 63.9529 62.7212 63.9715C62.3339 64.0364 62.1264 64.1802 61.9051 64.5465L61.7852 64.7413C61.4763 65.2514 61.1812 65.7291 61.0567 66.2902C60.983 66.6241 60.8216 66.9163 60.6602 67.1991C60.5957 67.3197 60.5265 67.4403 60.462 67.5701C60.402 67.6907 60.296 67.7788 60.1669 67.8159C60.13 67.8252 60.0885 67.8298 60.0516 67.8298L60.0654 67.8206ZM78.8956 56.8762C78.9232 56.8994 78.9647 56.9318 79.0247 56.955L78.8956 56.8437C78.8956 56.8437 78.8956 56.8669 78.8956 56.8762ZM72.708 57.8129C72.6619 57.8129 72.6112 57.8037 72.5651 57.7898C72.4313 57.748 72.3207 57.6414 72.2746 57.5069C72.2561 57.4559 72.2331 57.4095 72.2146 57.3631C72.1409 57.2008 72.0072 56.8994 72.2469 56.6489C72.3806 56.5098 72.5374 56.4449 72.6573 56.3985C72.6849 56.3892 72.7126 56.3753 72.7403 56.3661C72.8601 56.3104 72.9938 56.3104 73.1137 56.3614C73.2336 56.4124 73.3258 56.5145 73.3673 56.635C73.3719 56.6536 73.3858 56.6721 73.3904 56.6907C73.4457 56.8113 73.5379 57.006 73.4688 57.2379C73.3996 57.4744 73.2059 57.5811 73.0768 57.6553C73.04 57.6738 73.0031 57.697 72.9616 57.7248C72.8832 57.7758 72.7956 57.8037 72.7034 57.8037L72.708 57.8129ZM75.2623 56.4681C75.23 56.4681 75.1978 56.4681 75.1609 56.4588C74.9396 56.4171 74.7828 56.278 74.6491 56.1574C74.603 56.1156 74.5523 56.0693 74.4969 56.0275C74.3771 55.9348 74.3125 55.7864 74.3217 55.6333C74.331 55.4803 74.4139 55.3412 74.543 55.2623C74.603 55.2252 74.6583 55.1835 74.709 55.1464C74.875 55.0258 75.1055 54.8543 75.3914 54.9656C75.6081 55.0537 75.7418 55.2206 75.8387 55.3458C75.8617 55.3783 75.8848 55.4061 75.9124 55.4339C76 55.5267 76.0415 55.6519 76.0323 55.7771C76.0231 55.9023 75.9631 56.0229 75.8663 56.1017C75.8433 56.1203 75.8202 56.1435 75.7972 56.1713C75.6865 56.2826 75.5159 56.4634 75.2623 56.4634V56.4681ZM71.3109 55.3458C71.3109 55.3458 71.2648 55.3458 71.2418 55.3458C70.919 55.318 70.7853 55.049 70.6793 54.8311C70.647 54.7615 70.6055 54.6827 70.564 54.6085C70.4856 54.4786 70.4764 54.3256 70.5363 54.1865C70.5963 54.052 70.7162 53.9499 70.8591 53.9175C70.9375 53.8989 71.0112 53.8758 71.0758 53.8572C71.2741 53.7969 71.4954 53.732 71.7351 53.8062C72.0625 53.9082 72.187 54.3117 72.2192 54.4322C72.2792 54.6641 72.2423 54.8496 72.1086 54.9887C71.9334 55.1742 71.6245 55.3505 71.3063 55.3505L71.3109 55.3458ZM77.6092 55.1371C77.6092 55.1371 77.5861 55.1371 77.5723 55.1371C77.2772 55.1186 77.102 54.9053 76.9452 54.7105C76.8899 54.6456 76.83 54.5714 76.7608 54.4972C76.6547 54.3859 76.6086 54.2282 76.6409 54.0752C76.6732 53.9221 76.7792 53.7969 76.9222 53.7413C77.0144 53.7042 77.0974 53.6671 77.1665 53.6346C77.3648 53.5419 77.5723 53.4445 77.8166 53.4769C78.121 53.5233 78.3146 53.8201 78.3838 53.9453C78.499 54.154 78.5175 54.3441 78.4391 54.5111C78.3192 54.7754 77.9872 55.1371 77.6046 55.1371H77.6092ZM73.7131 54.0798C73.6624 54.0798 73.6117 54.0705 73.5656 54.0566C73.4503 54.0149 73.3535 53.9314 73.2982 53.8155C73.2797 53.7737 73.252 53.732 73.229 53.6949C73.1229 53.5233 72.98 53.2822 73.0353 52.9993C73.0953 52.7071 73.3304 52.5634 73.5425 52.4428C73.6071 52.4057 73.6808 52.3593 73.7546 52.3083C73.8699 52.2248 74.0128 52.2016 74.1465 52.2387C74.2802 52.2758 74.3909 52.3732 74.4462 52.5031C74.4831 52.5912 74.5292 52.6746 74.5661 52.7535C74.6952 52.9993 74.852 53.3053 74.6353 53.5882C74.4785 53.7969 74.248 53.8943 74.0681 53.9685C74.0174 53.987 73.9713 54.0102 73.9252 54.0334C73.8607 54.0659 73.7869 54.0844 73.7131 54.0844V54.0798ZM53.32 50.1194C53.1955 50.1194 53.0756 50.0684 52.988 49.9803L52.5546 49.5351C52.467 49.447 52.4209 49.3264 52.4255 49.2012C52.4301 49.076 52.4808 48.9601 52.573 48.8719L53.0802 48.3896C53.1678 48.3062 53.2877 48.2552 53.4122 48.2644C53.5367 48.2644 53.6519 48.3201 53.7349 48.4128C53.7626 48.4453 53.7995 48.4731 53.8364 48.5102C54.0116 48.6679 54.2744 48.9044 54.1545 49.2476C54.0761 49.4748 53.9332 49.6464 53.8041 49.7948C53.7626 49.8412 53.7257 49.8875 53.6842 49.9386C53.6012 50.0452 53.4813 50.1101 53.343 50.1194C53.3338 50.1194 53.3246 50.1194 53.3154 50.1194H53.32ZM45.6985 43.9702C45.6616 43.9702 45.6293 43.9702 45.5924 43.9609C45.2973 43.9191 45.1775 43.6734 45.0853 43.4925C45.0576 43.4415 45.0299 43.3812 44.993 43.3209C44.9147 43.1911 44.9054 43.0287 44.97 42.885C45.0345 42.7459 45.1636 42.6485 45.3112 42.6207C45.385 42.6067 45.4495 42.5928 45.5094 42.5789C45.6893 42.5372 45.8875 42.4862 46.1042 42.5604C46.3947 42.6578 46.4731 42.9453 46.5192 43.1169C46.5284 43.1493 46.5376 43.1818 46.5468 43.2096C46.593 43.3302 46.5883 43.4647 46.533 43.5806C46.4777 43.6965 46.3763 43.7847 46.2564 43.8218C46.2241 43.831 46.1872 43.8449 46.1503 43.8589C46.0304 43.9052 45.8783 43.9702 45.6985 43.9702ZM49.0274 43.3302C48.9767 43.3302 48.926 43.3209 48.8799 43.307C48.7323 43.256 48.6171 43.1354 48.5802 42.9824C48.5341 42.8062 48.4833 42.6438 48.4326 42.5047C48.3081 42.1384 48.1929 41.7906 48.405 41.4984C48.6908 41.0903 49.3317 41.03 49.6637 41.0578C49.885 41.0764 50.0694 41.2248 50.2216 41.5123C50.3461 41.7442 50.4613 42.0734 50.3184 42.347C50.1801 42.6021 49.9542 42.7691 49.6913 42.9546C49.5807 43.0334 49.4562 43.1215 49.3179 43.2328C49.2349 43.2977 49.1335 43.3348 49.032 43.3348L49.0274 43.3302ZM49.2441 42.0085C49.2533 42.041 49.2626 42.0734 49.2764 42.1059C49.3363 42.0642 49.387 42.0224 49.4285 41.9853C49.4285 41.9853 49.4285 41.9807 49.4285 41.976C49.364 41.9807 49.2994 41.9946 49.2487 42.0085H49.2441ZM44.389 41.4706C44.3429 41.4706 44.2968 41.4706 44.2507 41.4567C44.0525 41.4149 43.9141 41.299 43.7804 41.1877C43.7297 41.1459 43.6698 41.0949 43.6006 41.0439C43.4577 40.9419 43.3885 40.7657 43.4208 40.5895C43.4531 40.4132 43.5729 40.2741 43.7435 40.2231C43.9049 40.1721 44.034 40.1303 44.1308 40.0932C44.3798 40.0051 44.6565 39.9031 44.8916 40.1396C45.0484 40.2927 45.1037 40.4874 45.1452 40.6312C45.1544 40.6636 45.1636 40.7007 45.1775 40.7332C45.2236 40.8538 45.2144 40.9836 45.159 41.0996C45.1037 41.2155 45.0023 41.299 44.8824 41.3361C44.8547 41.3454 44.8317 41.3546 44.804 41.3685C44.7026 41.4103 44.5642 41.4706 44.3983 41.4706H44.389ZM46.8419 40.2092C46.7589 40.2092 46.6852 40.1999 46.6114 40.1721C46.344 40.084 46.2149 39.8521 46.1042 39.6527C46.0673 39.5831 46.0212 39.5043 45.9705 39.4301C45.8875 39.3095 45.8691 39.1565 45.9152 39.0174C45.9613 38.8782 46.0719 38.7716 46.2103 38.7252C46.3025 38.6974 46.3855 38.6603 46.4546 38.6324C46.6621 38.5443 46.8742 38.4562 47.1232 38.5119C47.4091 38.5722 47.635 38.7577 47.741 39.0127C47.8471 39.2631 47.8194 39.5507 47.6672 39.7918C47.5105 40.0376 47.1555 40.2045 46.8465 40.2045L46.8419 40.2092ZM56.3723 39.3744C56.2432 39.3744 56.1187 39.3466 56.008 39.2631C55.464 38.8597 55.0444 38.0945 55.0352 37.4824C55.0259 37.0325 55.4501 36.7728 55.9803 36.4482C56.1924 36.3184 56.4322 36.1746 56.6627 36.0076C56.7826 35.9195 56.9348 35.8963 57.0731 35.9427C57.2114 35.9891 57.3221 36.0958 57.3682 36.2349C57.4512 36.4853 57.5434 36.7125 57.631 36.9212C57.8431 37.4313 58.0229 37.8719 57.9353 38.331C57.8385 38.855 57.0408 39.1936 56.884 39.2585C56.7365 39.3142 56.5567 39.3744 56.3723 39.3744ZM55.9619 37.5612C56.008 37.8441 56.2109 38.2012 56.4506 38.4284C56.6305 38.3727 56.9302 38.2104 57.0316 38.1038C57.0362 37.909 56.9163 37.6122 56.7734 37.2737C56.7503 37.2134 56.7227 37.1531 56.695 37.0882C56.612 37.1392 56.529 37.1902 56.4506 37.2412C56.28 37.3432 56.0587 37.4777 55.9573 37.5658L55.9619 37.5612ZM52.3656 32.3672C51.9137 32.3672 51.5817 31.9963 51.1668 31.5232C50.987 31.3192 50.7795 31.0873 50.5443 30.8601C50.4337 30.7534 50.3783 30.5957 50.406 30.4427C50.4337 30.2897 50.5351 30.1598 50.678 30.0995C50.9777 29.9697 51.2405 29.8352 51.4665 29.7193C51.9875 29.4503 52.3932 29.237 52.8497 29.3019C53.3476 29.3668 53.7949 29.9882 53.9609 30.3082C54.0208 30.4195 54.196 30.7581 54.0485 31.0595C53.7857 31.5835 53.1033 32.3348 52.3978 32.3672C52.384 32.3672 52.3748 32.3672 52.3609 32.3672H52.3656ZM51.6417 30.6699C51.7154 30.7534 51.7846 30.8323 51.8538 30.9065C52.0428 31.1198 52.2964 31.4073 52.3978 31.4444C52.55 31.4305 52.9373 31.1151 53.1586 30.7627C53.0664 30.5818 52.822 30.2711 52.6929 30.2155C52.5638 30.2108 52.2503 30.3592 51.886 30.5494C51.8077 30.5911 51.7247 30.6328 51.6417 30.6746V30.6699ZM59.7242 28.4022C59.5536 28.4022 59.3784 28.379 59.2078 28.328C58.4932 28.1286 57.9722 27.5397 57.88 26.8301C57.8477 26.5751 57.8615 26.3525 57.9215 26.1484C58.1243 25.4574 59.3323 24.8453 60.0332 24.9381C60.6049 25.0122 61.0752 25.3276 61.3195 25.796C61.5777 26.2968 61.5593 26.9043 61.2688 27.4701C61.2181 27.5721 61.1536 27.6649 61.0752 27.7623C60.7432 28.175 60.2545 28.4022 59.7289 28.4022H59.7242ZM59.8533 25.8563C59.4983 25.8563 58.8713 26.2319 58.8021 26.4174C58.779 26.4916 58.779 26.589 58.7929 26.7096C58.8482 27.1223 59.171 27.3542 59.4568 27.4376C59.8118 27.535 60.1438 27.4376 60.3513 27.1779C60.3882 27.1316 60.4205 27.0852 60.4435 27.0435C60.5957 26.7513 60.6141 26.4545 60.4988 26.2273C60.3928 26.0232 60.1899 25.898 59.9133 25.8609C59.8948 25.8609 59.8764 25.8609 59.858 25.8609L59.8533 25.8563Z" fill="currentColor"/>
</svg>
