<svg width="143" height="143" viewBox="0 0 143 143" fill="none" xmlns="http://www.w3.org/2000/svg">
<path d="M69.6699 20.1431C70.4888 31.3942 70.4088 32.772 64.8601 25.7211C69.3357 34.549 68.3427 42.075 56.7418 42.3839C67.3921 43.9946 67.4297 45.5102 61.3398 54.1908C66.0837 49.2922 64.7001 51.5586 61.3492 56.6377C63.1141 54.7562 62.907 55.6827 61.9328 57.7923C61.7681 58.4907 60.8362 60.3675 59.8809 62.287C58.6102 64.8432 57.3018 67.4706 56.0076 70.0743C54.7087 72.6828 53.4286 75.2627 53.1321 73.4858C50.9766 80.1898 49.8094 82.5322 44.5855 85.0836C47.6916 86.7941 30.0761 104.483 26.7676 109.163C43.8937 92.7617 29.596 110.517 28.3159 112.622C28.7019 112.318 34.0058 105.148 29.2807 112.798C29.629 112.27 45.1644 89.8064 31.3797 112.56C33.2622 109.938 34.2741 109.282 34.0058 112.289C35.8648 107.438 36.439 106.251 35.5306 109.724C38.0391 105.22 39.6439 98.563 41.9688 109.534C39.6251 104.763 52.9721 87.1885 54.5534 88.5616C53.5415 86.8084 52.252 90.4003 56.8312 92.909C52.8026 89.9347 52.4167 89.0082 56.3323 86.8796C53.2733 88.4903 54.3745 88.9559 59.0573 89.7684C54.6851 88.7231 53.8898 88.0294 56.9865 85.7631C53.5086 88.0579 54.5204 88.5331 59.462 88.6899C55.6217 87.9772 57.9372 83.8008 61.448 80.6317C58.3984 83.5347 56.5394 87.4355 60.1538 87.3833C56.4029 87.4688 58.1207 83.5965 61.1892 80.6887C58.229 83.3399 56.6194 86.9556 60.2715 86.4805C57.0571 86.6563 59.1043 82.7508 61.8151 80.2373C58.6808 82.5274 56.21 86.2144 59.6738 85.6348C55.1134 86.4615 56.4876 83.0216 59.9326 80.3656C56.5818 82.9598 55.297 86.3427 59.782 85.459C56.5771 86.0291 59.1373 82.3327 62.0504 80.2183C59.6126 82.518 57.5277 86.395 60.4174 86.1859C56.9583 86.7276 58.4737 83.1784 61.2363 80.6554C58.4172 83.3922 56.8359 87.1552 60.375 86.8891C57.2265 87.0174 59.1937 83.1261 61.8622 80.4939C58.709 83.3827 56.2523 87.5353 59.7444 88.0009C54.8922 88.1625 53.7627 87.7824 57.1136 85.4922C54.0074 87.6588 55.3581 87.9249 59.9091 87.6636C56.4641 87.35 58.4454 83.3732 61.2127 80.6602C58.5631 83.1356 57.2642 86.5898 60.6244 85.9721C58.3513 86.1099 60.7468 82.1806 62.6811 80.2848C60.648 81.7768 60.3891 82.1616 62.5775 81.5534C64.0177 81.2304 47.3387 91.5786 60.7515 79.8335C59.0431 81.5724 59.6173 80.6269 61.6081 78.5649C59.0949 79.4439 58.6902 79.097 60.408 76.9827C57.5042 78.4271 56.7229 78.0993 57.9136 74.9824C57.763 77.9995 59.2643 78.2038 61.3257 77.3438C59.9562 78.7834 59.142 79.1588 59.5702 77.187C59.3114 79.3916 61.3351 79.135 63.1235 78.6314C63.4906 78.7977 63.6223 78.7122 63.2411 78.4461C61.7681 78.7027 59.7773 78.7787 59.2785 76.4173C59.3443 78.5174 61.4245 78.1515 63.1799 77.5244C64.3612 77.2155 65.2225 76.6501 65.5284 75.8424C66.1402 74.227 64.5306 71.6565 61.1374 67.0003C68.1262 73.3717 67.9756 71.4047 66.1167 63.7456C68.4274 72.0271 68.931 74.1462 64.4648 64.9097C69.6416 76.2463 69.844 76.2225 68.1215 63.7694C70.1264 74.0274 70.197 71.8561 70.2252 63.0995C70.197 71.8608 70.1546 74.0274 69.5334 63.6126C70.3193 76.2368 70.5311 67.5847 73.7973 55.3406C71.3783 65.5511 72.0183 63.4796 74.5738 55.046C72.3854 63.7076 72.1171 74.7021 81.925 69.9698C78.8377 72.5545 76.8752 74.3552 76.0139 75.6951C75.1527 77.035 75.3974 77.9092 76.6446 77.7287C77.3505 78.5506 78.3106 79.1065 79.5389 79.3821C80.8896 79.7432 82.5133 79.824 83.6616 78.6932C82.4521 79.7337 81.1014 79.6149 80.1978 79.2063C79.586 79.0163 79.4213 78.5364 79.6895 77.8522C79.8307 78.1515 80.4049 78.2418 81.1532 78.0945C82.1933 78.2085 83.4075 78.085 84.3205 77.2155C83.6945 78.2608 82.7674 78.5649 81.7885 78.3938C81.4779 78.85 81.1202 78.8357 80.9696 78.3748C80.7814 79.6244 80.7955 80.4369 80.772 80.4987C81.9203 81.3254 83.031 81.4109 83.5722 79.8145C82.7957 81.8623 81.4544 82.2329 80.0707 81.715C79.9295 81.829 79.7507 81.0546 79.8778 79.4724C79.6519 81.4347 79.7366 82.5892 79.746 82.746C81.1767 83.4777 82.5321 83.2116 83.1204 81.0023C82.4945 83.3019 81.7509 84.0241 80.6967 83.7675C82.5368 84.5135 84.0616 84.2807 84.344 81.8195C84.2922 84.3995 82.9839 84.7463 80.819 83.8293C81.7085 83.9718 81.7509 82.841 81.5579 80.2658C81.3744 82.6747 80.9555 83.6392 80.1931 83.4444C81.6191 84.0431 82.6968 83.4825 83.0874 81.0165C82.6309 83.2829 81.4826 83.644 80.1084 82.9218C80.5931 82.9503 80.8473 81.8908 81.1061 79.7147C81.2285 81.6627 81.3555 82.4942 80.8896 82.1331C82.6498 82.9076 83.8216 82.4894 84.0522 80.109C83.911 82.5512 82.838 83.0216 81.0637 82.2424C81.7556 82.708 81.7462 81.9193 81.572 79.8382C81.4261 82.1806 81.1108 83.2259 80.3672 83.0976C81.845 83.8531 82.8898 83.4302 83.1627 81.0403C82.4897 83.3922 81.6991 84.1381 80.6449 83.9243C82.4992 84.6798 84.0852 84.4755 84.4381 82.0713C84.4381 84.8033 83.5863 85.4875 81.6332 85.1929C84.0287 85.9294 85.3135 85.6823 85.1958 83.4777C86.1371 86.1907 85.6194 86.9129 83.2004 87.0649C86.1747 87.5401 87.2478 87.445 87.0925 86.6658C87.9019 87.8441 87.4784 88.3383 85.2053 89.336C87.9443 88.9417 88.8385 89.0462 89.1679 90.3053C90.5092 90.0772 113.179 121.027 115.532 124.51C115.532 122.59 78.0376 70.7538 119.25 126.068C72.7337 60.4863 120.931 125.641 121.872 126.828C115.904 117.753 96.825 92.9898 125.924 126.458C124.135 123.982 99.0464 97.1186 112.012 104.089C109.047 100.872 93.5212 86.7656 93.1118 82.4419C91.4034 82.5037 90.2363 80.1613 88.6314 76.2463C87.789 75.2342 86.5042 72.6543 85.21 70.0506C83.9157 67.4469 82.6074 64.8194 81.3367 62.2585C80.3813 60.339 79.4495 58.4622 79.3177 57.9063C78.2918 55.7017 78.0706 54.818 79.7836 56.9133C76.4846 51.6204 75.115 49.3065 79.4495 54.6944C73.6467 45.4675 73.5431 43.9423 84.1275 42.1558C72.5925 42.0228 71.7406 34.511 73.4208 24.8802C70.6864 32.7435 70.4888 31.3657 69.6699 20.1146V20.1431Z" fill="currentColor"/>
</svg>
