<svg width="143" height="143" viewBox="0 0 143 143" fill="none" xmlns="http://www.w3.org/2000/svg">
<path d="M65.5597 66.6406C65.4163 66.4972 65.31 66.3861 65.2221 66.2982L65.1666 66.3445C64.9399 66.0807 64.7827 65.9002 64.7596 65.7383C63.5709 64.401 62.6505 63.3367 61.892 62.4066L61.6792 62.1336C60.9346 61.1803 60.3981 60.4909 59.6858 60.4816H59.399L59.3435 60.1947C59.1817 59.3849 58.9458 58.9083 58.5943 58.6955C58.2751 58.5057 57.808 58.5057 57.1651 58.7047L56.6563 58.8621L56.7072 58.3345C56.7951 57.4183 56.6795 56.8168 56.3372 56.4327C55.9718 56.0255 55.2827 55.8126 54.2328 55.7941L53.7841 55.7849L53.8952 55.3499C54.316 53.6979 53.687 52.6105 51.5733 51.3195L51.0738 51.0141L51.5733 50.7133C51.6011 50.6994 51.6566 50.6578 51.6612 50.6254C51.6936 50.3339 50.8194 49.5241 50.5327 49.2603L50.4772 49.1909C49.8805 48.2608 48.8908 47.0855 47.9334 45.9472L36.9395 32.912L37.4806 32.4539L48.4653 45.4798C49.4365 46.632 50.4309 47.8074 51.0507 48.7698C51.948 49.6028 52.4244 50.1627 52.3689 50.6994C52.3596 50.7688 52.3411 50.8521 52.3041 50.9401C53.7841 51.8979 54.9959 53.0918 54.6722 55.1C55.7128 55.1741 56.4158 55.4517 56.8645 55.9561C57.2715 56.4142 57.4611 57.0389 57.4426 57.9042C58.0578 57.7885 58.5573 57.8487 58.955 58.0893C59.4453 58.3808 59.7737 58.9268 59.9818 59.8014C60.8745 59.9587 61.5127 60.7731 62.2342 61.6986L62.4424 61.9624C63.3443 63.0729 64.5052 64.3917 66.0731 66.1547L65.5551 66.636L65.5597 66.6406Z" fill="currentColor"/>
<path d="M64.2793 66.6498L66.6196 67.4503L66.1386 65.021L64.2793 66.6498Z" fill="currentColor"/>
<path d="M56.1724 66.6141L56.2325 65.7117C56.51 61.5703 55.0531 60.3533 49.8868 58.3311L49.2856 58.0951L49.8082 57.7157C50.1459 57.4705 50.1921 57.2483 50.1967 57.1049C50.2337 56.1609 48.4669 54.6524 46.9083 53.3244C44.7576 51.4364 42.445 49.442 40.2111 47.5078L27.6816 36.6798L28.1442 36.1431L40.6736 46.971C42.9075 48.9006 45.2201 50.8996 47.3708 52.7876C49.2116 54.3563 50.9553 55.8416 50.9044 57.128C50.8951 57.3964 50.8073 57.6463 50.6454 57.8684C55.2797 59.7332 56.9957 61.1723 56.9679 64.9112C57.9346 64.0968 58.5821 63.833 59.1232 63.9996C59.7985 64.2125 60.0575 65.0639 60.2055 65.7858L59.5117 65.9292C59.3175 64.9899 59.077 64.7307 58.9058 64.6752C58.5636 64.5688 57.8606 65.0084 56.8199 65.994L56.1631 66.6141H56.1724Z" fill="currentColor"/>
<path d="M58.5586 65.6932L60.108 67.6228L61.0053 65.3137L58.5586 65.6932Z" fill="currentColor"/>
<path d="M59.8302 73.2716C59.6498 73.267 59.4602 73.2577 59.2567 73.2531H59.2104C58.5352 73.142 57.6934 73.0356 56.5741 72.9199L55.8063 72.8413C54.9738 72.758 54.1182 72.6701 53.2116 72.5544C51.8935 72.4757 50.6123 72.3323 49.6734 71.5271C48.2581 71.9621 46.5237 72.1472 45.1408 70.3888C42.19 71.7214 39.5629 71.2124 37.3614 70.5045C35.2569 70.9302 32.8565 70.7081 30.7382 70.5091L19.2031 69.4402L19.2679 68.7368L30.7983 69.8057C33.0045 70.0093 35.2847 70.2222 37.3059 69.7919L37.3984 69.7733L37.4862 69.8011C40.5712 70.8006 42.7774 70.7497 45.0899 69.6253L45.3628 69.4911L45.5386 69.7363C46.5098 71.1199 47.6985 71.4207 49.6503 70.7867L49.8538 70.7219L50.0064 70.8746C50.7835 71.6428 51.9444 71.7677 53.2718 71.851C54.1922 71.9667 55.0478 72.0546 55.8711 72.1379L56.6435 72.2166C57.7674 72.3323 58.6092 72.4387 59.2937 72.5497C59.4926 72.5544 59.6776 72.559 59.8533 72.5683L59.8256 73.2762L59.8302 73.2716Z" fill="currentColor"/>
<path d="M59.4004 74.1416L61.6158 73.045L59.5576 71.6707L59.4004 74.1416Z" fill="currentColor"/>
<path d="M25.6608 76.683L25.6191 75.975L27.8623 75.8501C29.273 75.7714 31.2063 75.6603 32.4412 74.9477L32.5476 74.8876L32.6678 74.9061C36.3032 75.429 38.6342 75.1051 40.5398 71.9168L40.7572 71.5513L41.0763 71.8335C44.5128 74.883 47.2555 74.7765 51.4181 73.467L51.5753 73.4161L51.7141 73.5086C53.1386 74.4341 55.7749 74.286 58.1014 74.1565L64.3592 73.8048L64.4008 74.5128L58.143 74.8644C55.7796 74.9986 53.1062 75.1467 51.4736 74.1935C47.3618 75.4706 44.4064 75.577 40.919 72.6387C38.6527 76.0999 35.6187 76.0398 32.6817 75.628C31.3034 76.3683 29.3424 76.4794 27.904 76.5627L25.6561 76.6876L25.6608 76.683Z" fill="currentColor"/>
<path d="M64.0919 75.4105L66.1639 74.0546L63.9531 72.9395L64.0919 75.4105Z" fill="currentColor"/>
<path d="M33.8685 116.58L33.332 116.117L38.9886 109.537C40.6397 107.617 42.5083 105.442 42.8875 103.873L42.9153 103.758L43.0078 103.684C46.7958 100.532 48.5209 98.1956 48.0954 93.4387L48.0584 93.0084L48.4886 93.0547C52.8917 93.5451 54.6908 91.2037 56.5779 88.0942L56.6426 87.9877L56.7583 87.9461C57.9377 87.5019 59.353 85.8545 60.2919 84.7625L60.7128 84.272L61.2493 84.7347L60.8284 85.2252C59.8155 86.4052 58.4372 88.0062 57.1237 88.5615C55.2505 91.6294 53.2941 94.1236 48.8354 93.7997C49.1684 98.9869 46.7495 101.486 43.5489 104.156C43.0772 105.872 41.1947 108.066 39.5297 110L33.8732 116.58H33.8685Z" fill="currentColor"/>
<path d="M61.6701 85.5861L62.1279 83.1521L59.7969 83.9711L61.6701 85.5861Z" fill="currentColor"/>
<path d="M73.0592 64.6512L72.3516 64.5957L72.3886 64.1005C72.4441 63.3833 72.5088 62.518 72.5874 61.5324C72.6614 60.6115 72.7493 59.4686 72.9945 58.3997C72.9528 57.4742 72.9066 55.8731 74.2201 55.1328C73.642 53.9112 73.5125 53.0134 73.8085 52.2546C74.0675 51.5836 74.6641 51.0515 75.6261 50.6257C73.6882 47.3403 73.8779 44.4205 74.7844 41.0888C74.3172 38.6595 74.5207 35.9432 74.7011 33.5416L75.3163 25.4207L76.0239 25.4762L75.4088 33.5925C75.2284 35.9756 75.0249 38.678 75.4966 41.0333L75.5151 41.1166L75.492 41.1999C74.5855 44.5038 74.4005 47.3727 76.4494 50.6119L76.6853 50.982L76.2783 51.1347C75.2839 51.5049 74.6965 51.9584 74.4791 52.5137C74.2432 53.1245 74.4144 53.962 75.0249 55.142L75.2053 55.4937L74.8353 55.6371C73.8085 56.0258 73.6466 56.9559 73.716 58.4228V58.4737L73.7067 58.52C73.4662 59.5565 73.3783 60.6902 73.3043 61.5971C73.2257 62.5828 73.161 63.4481 73.1055 64.1653L73.0685 64.6604L73.0592 64.6512Z" fill="currentColor"/>
<path d="M71.5 64.1699L72.5684 66.4003L73.9652 64.3596L71.5 64.1699Z" fill="currentColor"/>
<path d="M79.5786 58.2796L78.9219 58.0112C79.0375 57.7289 79.1578 57.4143 79.2919 57.0672L79.315 57.021C80.1383 55.5448 81.1419 53.3746 82.3075 50.862L93.9535 25.717L94.5964 26.0132L82.9596 51.1396C81.7848 53.6754 80.7812 55.8456 79.9487 57.3449C79.8191 57.6873 79.6943 58.002 79.5833 58.2796H79.5786Z" fill="currentColor"/>
<path d="M78.293 57.22L78.367 59.691L80.4714 58.3907L78.293 57.22Z" fill="currentColor"/>
<path d="M77.1801 68.4785L76.6621 67.9973C76.8332 67.8122 77.0182 67.6086 77.2079 67.3911L77.2541 67.3448C78.859 66.0908 80.501 64.5268 79.7101 61.8337L79.5991 61.4542L79.9876 61.3848C84.7607 60.5195 87.1056 58.5853 89.2887 53.7358L89.3997 53.486L89.668 53.5276C92.0823 53.9209 94.381 51.8016 96.4114 49.9322L103.756 43.1763L104.237 43.6992L96.8924 50.4551C94.8111 52.3662 92.4662 54.5271 89.8252 54.2634C87.6422 59.0064 85.1538 61.0794 80.4917 62.0049C81.1994 65.1237 78.9654 66.9006 77.7213 67.877C77.5316 68.0898 77.3513 68.2888 77.1848 68.4693L77.1801 68.4785Z" fill="currentColor"/>
<path d="M76.2685 67.1042L75.6719 69.5012L78.0492 68.821L76.2685 67.1042Z" fill="currentColor"/>
<path d="M80.0567 69.5971L79.7422 68.9632C82.0085 67.8387 82.4618 67.3344 82.4433 67.1076C82.4433 67.0752 82.3831 66.793 81.2176 66.4598L79.9411 66.0942L81.2315 65.775C87.8177 64.1554 89.8157 62.7718 93.8118 57.0709L94.3761 56.2658L94.4547 57.2468C94.5148 57.9918 94.6952 58.436 95.0005 58.5748C95.8191 58.9496 97.9235 57.3902 99.3111 56.3583L99.3758 56.3213C100.675 55.7244 102.678 54.4148 104.44 53.2626L110.416 49.3525L110.805 49.9448L104.838 53.8457C103.057 55.0118 101.05 56.3213 99.7042 56.946C97.5489 58.5424 95.8145 59.7178 94.7091 59.2134C94.3252 59.0376 94.0616 58.6951 93.8997 58.1676C90.3476 63.1142 88.1183 64.6922 82.4756 66.1868C82.841 66.395 83.1139 66.668 83.1509 67.0428C83.2249 67.8619 82.0732 68.6023 80.0613 69.5971H80.0567Z" fill="currentColor"/>
<path d="M79.4458 68.1118L78.5254 70.407L80.9721 70.0553L79.4458 68.1118Z" fill="currentColor"/>
<path d="M88.8298 75.4523L88.7234 74.2538C88.6633 73.5875 88.4875 71.5653 87.8492 71.3293C87.2156 71.0933 85.7309 72.4306 84.3619 73.7679L82.7893 75.3042L83.8022 73.3515C84.3989 72.1993 84.496 71.7643 84.5006 71.6116C84.3018 71.6301 83.7699 71.8337 82.35 72.736L81.9707 72.1391C83.8531 70.9452 84.5885 70.6861 85.0048 71.0702C85.2222 71.2738 85.273 71.5746 85.1297 72.0836C86.4386 70.9267 87.359 70.3946 88.099 70.6676C88.7095 70.8943 89.0795 71.6162 89.3015 73.0877C91.8731 68.664 94.2596 68.0254 99.6155 68.6686C99.4398 68.2197 99.4213 67.8033 99.5647 67.4238C99.9902 66.304 101.692 65.795 103.871 65.2397C106.026 64.5503 108.385 63.8839 110.67 63.2361L122.602 59.8582L122.797 60.5384L110.864 63.9163C108.588 64.5595 106.229 65.2259 104.07 65.92C102.492 66.3179 100.559 66.8084 100.231 67.6737C100.106 68.0023 100.208 68.4048 100.545 68.9046L100.985 69.557L100.203 69.4552C94.255 68.6686 92.1136 69.2193 89.3894 74.3926L88.8298 75.4569V75.4523Z" fill="currentColor"/>
<path d="M82.7196 71.0471L80.4395 72.0096L82.4144 73.5042L82.7196 71.0471Z" fill="currentColor"/>
<path d="M111.267 94.8398L102.636 90.1754C100.18 88.8474 97.396 87.3435 94.8291 85.8766C92.1696 84.5069 89.1587 82.9568 88.7794 80.495C87.1884 80.384 85.9812 80.1665 85.0053 79.8241C83.8028 79.514 82.8546 79.005 82.0545 78.2323C81.333 77.7649 80.667 77.094 79.9362 76.0991C79.4043 76.8024 78.8678 76.8302 78.4885 76.7099C78.3544 76.6729 78.211 76.6035 78.0723 76.5063L78.47 75.9186C78.5487 75.9741 78.6273 76.0112 78.6967 76.0297C78.8123 76.0667 79.1407 76.1685 79.6124 75.2939L79.8853 74.7849L80.2137 75.2615C81.0231 76.4369 81.7215 77.1726 82.4708 77.6539L82.5263 77.7001C83.2432 78.3989 84.0942 78.857 85.2135 79.1485C86.2171 79.5002 87.452 79.7084 89.1263 79.8102L89.4408 79.8287L89.4593 80.1434C89.5934 82.3876 92.5581 83.9146 95.1713 85.2566C97.7429 86.7234 100.523 88.2273 102.979 89.5554L111.609 94.2197L111.271 94.8444L111.267 94.8398Z" fill="currentColor"/>
<path d="M77.6786 77.2512L77.1328 74.8357L79.4962 75.5714L77.6786 77.2512Z" fill="currentColor"/>
<path d="M101.881 102.231L94.805 95.313C93.7921 94.3227 92.7191 93.2723 91.7848 92.3376C90.8459 91.3982 90.1012 90.6255 89.8052 90.047C89.2965 89.7 88.4501 89.0707 88.6582 88.2239C88.1633 88.0573 87.6499 87.7843 87.5112 87.2984C87.4372 87.03 87.4881 86.7385 87.6638 86.4239C86.7989 86.3915 86.3503 86.2017 86.1606 85.8177C85.9988 85.4891 86.1005 85.1189 86.304 84.758C85.6519 84.8228 85.2587 84.7025 85.046 84.3925C84.8286 84.0778 84.8517 83.6613 85.1524 83.0366C84.4586 83.2541 84.0331 83.2217 83.751 82.9534C83.4873 82.7035 83.4318 82.3101 83.5891 81.6993C83.2006 81.8567 82.8167 81.9122 82.5253 81.704C82.2154 81.4865 82.1044 81.07 82.1923 80.3482C81.8315 80.5749 81.4754 80.6906 81.1516 80.5425C80.8048 80.3852 80.6567 79.9872 80.6059 79.543C80.3561 79.705 80.074 79.7975 79.7872 79.7096C79.3293 79.5708 79.1027 79.0433 78.964 78.4463C78.7605 78.5296 78.5616 78.5528 78.3627 78.5204C77.9372 78.451 77.5672 78.1363 77.174 77.5116C76.5219 77.3311 75.9391 76.7203 75.3286 76.0771L75.5552 75.8596H75.2315L75.1621 74.874L75.842 75.5913C76.397 76.1743 76.9705 76.7805 77.4515 76.8545L77.618 76.8777L77.7059 77.0211C77.9973 77.5209 78.2609 77.7892 78.4829 77.8263C78.6263 77.8494 78.7928 77.7754 78.9917 77.6088L79.4727 77.1969L79.5745 77.8216C79.7549 78.9322 79.9769 79.0294 80.0046 79.0386C80.0046 79.0386 80.1896 79.0849 80.6845 78.5528L81.3228 77.8679L81.2996 78.8073C81.2719 79.779 81.4523 79.9086 81.4569 79.9086C81.4569 79.9086 81.6789 79.978 82.4883 79.2237L83.3439 78.4232L83.0757 79.5615C82.7427 80.9636 82.9462 81.1302 82.9508 81.1302C82.9508 81.1302 83.1589 81.232 84.047 80.6582L84.9997 80.0381L84.5696 81.0885C84.0886 82.2546 84.2643 82.4443 84.2643 82.4443C84.2736 82.4536 84.4817 82.6341 85.8461 82.0094L86.9608 81.5004L86.2902 82.5276C85.4946 83.7446 85.6426 83.9806 85.6473 83.9899C85.6473 83.9899 85.8138 84.2027 87.0487 83.9158L88.0939 83.6752L87.3956 84.4896C86.7203 85.2809 86.8174 85.4984 86.8174 85.5076C86.8313 85.5354 86.9885 85.7714 88.39 85.7112L89.2687 85.6742L88.6582 86.3082C88.1864 86.7987 88.1865 87.03 88.205 87.1041C88.2281 87.192 88.3807 87.4234 89.241 87.6501L89.7081 87.7704L89.4537 88.1776C89.2317 88.5339 89.3011 88.8347 90.2955 89.5103L90.3788 89.5658L90.4204 89.6584C90.6285 90.1303 91.4287 90.954 92.2982 91.8286C93.2278 92.7587 94.3009 93.8091 95.3091 94.7947L102.386 101.713L101.891 102.222L101.881 102.231Z" fill="currentColor"/>
<path d="M75.0283 77.0072L74.2559 74.6565L76.6748 75.1655L75.0283 77.0072Z" fill="currentColor"/>
</svg>
