<svg width="143" height="143" viewBox="0 0 143 143" fill="none" xmlns="http://www.w3.org/2000/svg">
<path d="M30.5987 94.4906L25.3084 90.0233C23.2249 88.2634 19.8354 85.4322 19.3456 85.1073C19.0968 85.0686 18.8753 84.9371 18.7004 84.7282C18.5099 84.5039 18.4244 84.237 18.4555 83.9624C18.4827 83.6839 18.6148 83.448 18.8481 83.2546C19.0813 83.0573 19.3378 82.9722 19.6099 82.9954C19.882 83.0186 20.1191 83.1501 20.3135 83.3822C20.4806 83.5795 20.57 83.7999 20.5778 84.032C20.986 84.5658 23.9324 87.6407 25.7709 89.532L30.5948 94.4945L30.5987 94.4906ZM19.5283 83.6684C19.4739 83.6684 19.3961 83.6839 19.2912 83.7729C19.1668 83.8773 19.1435 83.9701 19.1396 84.032C19.1318 84.1248 19.159 84.2061 19.229 84.2911C19.3301 84.4111 19.4272 84.4343 19.4894 84.4381C19.5711 84.4459 19.6643 84.4536 21.0909 85.6139C19.8859 84.3105 19.8937 84.2099 19.9015 84.0978C19.9053 84.0359 19.9015 83.9392 19.7965 83.8193C19.6954 83.6994 19.6099 83.6762 19.5555 83.6723C19.5477 83.6723 19.54 83.6723 19.5283 83.6723V83.6684Z" fill="currentColor"/>
<path d="M24.7321 80.7674C24.701 80.7674 24.6699 80.7674 24.6388 80.7635C24.3589 80.7403 24.1101 80.6049 23.9158 80.3767C23.7396 80.1678 24.8927 78.9869 27.3753 76.8338C29.4277 75.0546 32.0864 72.7726 34.6558 70.5679C38.1308 67.5858 41.7147 64.507 42.2239 64.0158C42.2744 63.7915 42.3988 63.5903 42.5971 63.4279C42.8303 63.2306 43.0868 63.1455 43.3589 63.1688L43.5844 63.1881L43.6544 63.4047C43.7088 63.5723 42.943 64.342 41.3571 65.7138C40.0083 66.878 38.1736 68.4561 36.23 70.127C32.1564 73.6235 26.6795 78.3306 25.6922 79.2821C25.7699 79.4446 25.8049 79.6148 25.7932 79.7965C25.7738 80.075 25.6416 80.3187 25.4162 80.5082C25.2063 80.6823 24.9769 80.7712 24.7321 80.7712V80.7674ZM24.7126 80.0905C24.7787 80.0905 24.8681 80.0828 24.9808 79.9899C25.0664 79.9164 25.1091 79.843 25.1169 79.7501C25.1169 79.7424 25.1169 79.7347 25.1169 79.7269C24.9536 79.8739 24.8215 79.9938 24.7165 80.0944L24.7126 80.0905ZM22.1899 77.5223C22.1238 77.5223 22.0811 77.4952 22.0305 77.4642L21.8284 77.3327L21.8789 77.0852C22.0344 76.4547 22.0383 76.1144 22.015 75.9442C22.0033 75.8475 21.9956 75.6889 21.9839 75.4182C21.9684 75.0507 21.9373 74.1882 21.8479 74.0141C21.6535 73.7898 21.4047 73.6622 21.1054 73.6544C20.7867 73.6467 20.4913 73.7627 20.1881 74.0141C19.9665 74.1998 19.8227 74.4396 19.7488 74.749C19.6711 75.0701 19.6866 75.3795 19.7916 75.6966L19.8965 76.0099L18.159 76.6365L18.0424 76.3155C17.8053 75.658 17.7742 74.9811 17.9491 74.2965C18.0385 73.6699 17.3116 65.474 16.7985 60.1054L16.3438 55.3093L17.471 59.9933C18.4622 64.1125 20.1492 70.7187 20.674 71.8056C21.1249 71.736 21.568 71.7785 21.9956 71.9294C22.4853 72.1034 22.9207 72.4129 23.29 72.8499C23.5504 73.1594 23.6437 73.9097 23.7409 74.9347C23.7486 74.9966 23.7525 75.0585 23.7603 75.1165C25.0586 74.2733 29.3966 70.9469 32.961 68.2163C37.9792 64.3716 40.4203 62.5228 41.6564 61.6642C41.6292 61.5443 41.6564 61.4244 41.7341 61.3315C41.878 61.1536 42.0995 61.1652 42.3172 61.1768C42.3405 61.1768 42.3638 61.1768 42.3911 61.1768C42.8692 60.8945 42.9547 60.9448 43.0713 61.0221L43.2734 61.1497L43.2268 61.4012C43.1374 61.7493 42.8342 61.8382 42.5699 61.8537C42.5543 61.8653 42.5349 61.8769 42.5193 61.8885C42.5854 61.9852 42.6748 62.1012 42.7914 62.2327L43.0169 62.4919L38.9627 65.8956L38.7411 65.6403C38.6906 65.5823 38.6012 65.4817 38.5467 65.3579C37.1668 66.294 33.3691 69.2142 30.2284 71.6316C23.6048 76.7255 22.5475 77.5145 22.1899 77.5145V77.5223ZM21.0782 72.9776C21.0782 72.9776 21.1132 72.9776 21.1326 72.9776C21.6302 72.993 22.0539 73.2019 22.392 73.6003C22.5786 73.8246 22.6292 74.312 22.668 75.395C22.6758 75.5883 22.6836 75.7856 22.6913 75.8514C22.7147 76.0331 22.7147 76.2497 22.6836 76.5011C22.8857 76.358 23.1306 76.1801 23.4143 75.9713C23.3988 75.9674 23.3794 75.9597 23.3638 75.9519L23.185 75.8823L23.1422 75.685C23.115 75.5303 23.0917 75.2828 23.0645 74.9966C23.0217 74.5402 22.9168 73.4688 22.7691 73.2793C22.4737 72.9311 22.1472 72.6952 21.7701 72.5637C21.397 72.4322 21.0199 72.4129 20.6156 72.5018C20.2114 72.5946 20.0054 72.6411 18.3378 66.2437C18.1901 65.6712 18.0424 65.0949 17.8986 64.538C18.2834 68.7732 18.7265 74.0103 18.6138 74.4512C18.5011 74.896 18.4933 75.3253 18.5905 75.7547L19.0647 75.5845C19.0025 75.2557 19.0103 74.9192 19.0919 74.5904C19.2008 74.1418 19.4223 73.7743 19.7566 73.4959C20.1686 73.1516 20.6118 72.9776 21.0743 72.9776H21.0782ZM39.0676 64.4181C39.0676 64.4181 39.0754 64.4181 39.0793 64.4219L39.2542 64.4799L39.3086 64.6656C39.3086 64.6656 39.3164 64.7004 39.3203 64.7159L42.0607 62.4184C42.0257 62.372 41.9907 62.3256 41.9596 62.283C41.2521 62.7858 40.2337 63.5401 39.0676 64.4219V64.4181Z" fill="currentColor"/>
<path d="M29.9491 76.4085C29.918 76.4085 29.8908 76.4085 29.8597 76.4046C29.5798 76.3814 29.3311 76.246 29.1367 76.0178C28.9605 75.809 30.1124 74.6293 32.5923 72.4788C34.6408 70.6996 37.2996 68.4214 39.8689 66.2129C43.344 63.2308 46.9356 60.1482 47.4448 59.6569C47.4954 59.4326 47.6198 59.2353 47.818 59.069C48.0512 58.8756 48.3117 58.7867 48.5799 58.8099L48.8053 58.8292L48.8753 59.0458C48.9297 59.2134 48.1652 59.9831 46.5819 61.3549C45.237 62.5191 43.4023 64.0972 41.4548 65.7642C37.7854 68.9165 32.9732 73.0474 31.3329 74.5326C33.463 74.3856 39.3636 73.8016 43.4606 73.3761L56.1169 72.0572L43.55 74.0491C38.6717 74.8227 31.3057 76.014 30.5827 76.1958C30.3922 76.3389 30.1746 76.4124 29.9491 76.4124V76.4085ZM29.9336 75.7316C29.9919 75.7316 30.0851 75.7239 30.1979 75.6311C30.2523 75.5885 30.3184 75.5305 32.8605 75.0934C31.4262 75.2095 30.8004 75.2288 30.5088 75.2095C30.2678 75.4222 30.0735 75.6001 29.9336 75.7316ZM27.4031 73.1595C27.3409 73.1595 27.2981 73.1324 27.2515 73.1054L27.0493 72.9739L27.1038 72.7263C27.2592 72.0959 27.2631 71.7555 27.2398 71.5853C27.2281 71.4886 27.2204 71.33 27.2087 71.0593C27.1932 70.6918 27.1621 69.8293 27.0766 69.6553C26.8822 69.4309 26.6334 69.3033 26.3341 69.2956C26.0076 69.2878 25.72 69.4039 25.4207 69.6553C25.1991 69.8409 25.0553 70.0807 24.9814 70.3902C24.9037 70.7112 24.9192 71.0206 25.0242 71.3378L25.1291 71.6511L23.3916 72.2777L23.275 71.9566C23.0379 71.2991 23.0068 70.6184 23.1817 69.9299C23.3566 69.2414 23.7103 68.6728 24.2273 68.2396C24.686 67.8567 25.1797 67.6015 25.6928 67.4854C26.2175 67.3694 26.7345 67.3965 27.2243 67.5705C27.714 67.7446 28.1494 68.054 28.5187 68.4911C28.783 68.8005 28.8724 69.5508 28.9696 70.5758C28.9734 70.63 28.9812 70.6802 28.9851 70.7305C30.2717 69.8061 34.4387 66.3212 37.8671 63.4551C47.0561 55.7736 47.1067 55.8085 47.4448 56.0134L47.6547 56.1411L47.6042 56.4002C47.4993 56.8102 47.5148 57.0346 47.5459 57.1545C47.577 57.2782 47.6858 57.5026 48.0162 57.8816L48.2417 58.1408L46.8268 59.3475L46.6052 59.0922C46.5547 59.0342 46.4731 58.9375 46.4148 58.8215C44.8871 59.8774 40.3937 63.3739 36.6776 66.2671C28.9268 72.297 27.7723 73.1711 27.4031 73.1711V73.1595ZM26.2991 68.6187C26.2991 68.6187 26.3341 68.6187 26.3536 68.6187C26.855 68.6342 27.2787 68.843 27.613 69.2453C27.7995 69.4696 27.8501 69.957 27.8889 71.04C27.8967 71.2333 27.9045 71.4306 27.9123 71.4964C27.9356 71.6743 27.9356 71.887 27.9084 72.1307C28.1027 71.9914 28.3437 71.8135 28.6197 71.6085C28.6119 71.6085 28.6042 71.6008 28.5925 71.6008L28.4059 71.535L28.3632 71.3339C28.336 71.1792 28.3126 70.9317 28.2854 70.6454C28.2427 70.189 28.1377 69.1176 27.99 68.932C27.6985 68.5878 27.3642 68.3479 26.991 68.2164C26.6179 68.0849 26.2408 68.0617 25.8366 68.1546C25.4284 68.2474 25.0319 68.4524 24.6588 68.7657C24.2468 69.1099 23.9786 69.547 23.8347 70.1039C23.722 70.5487 23.7142 70.9781 23.8114 71.4074L24.2856 71.2372C24.2234 70.9085 24.2312 70.5719 24.3128 70.2432C24.4217 69.7945 24.6432 69.4271 24.9775 69.1486C25.3896 68.8043 25.8327 68.6303 26.2991 68.6303V68.6187ZM46.8384 56.9649C45.4508 58.0015 41.6842 61.1461 38.3024 63.9773C37.2685 64.8398 36.3511 65.6095 35.5309 66.2903C35.7758 66.1007 36.0168 65.9112 36.2578 65.7256C46.5353 57.7269 46.6208 57.754 46.9395 57.8623L47.1144 57.9203L47.1689 58.1059C47.1689 58.1059 47.1766 58.1369 47.1805 58.1485L47.2816 58.0595C47.0717 57.7849 46.9395 57.5451 46.8851 57.3246C46.854 57.2163 46.8384 57.0964 46.8384 56.9649Z" fill="currentColor"/>
<path d="M34.328 72.7533C34.2969 72.7533 34.2658 72.7533 34.2347 72.7495C33.9549 72.7263 33.7061 72.5909 33.5117 72.3627C33.3355 72.1538 34.4887 70.9728 36.9712 68.8198C39.0236 67.0406 41.6824 64.7585 44.2517 62.55C47.7229 59.5679 51.3107 56.493 51.8199 55.9979C51.8704 55.7736 51.9948 55.5724 52.193 55.41C52.4262 55.2166 52.6828 55.1276 52.9549 55.1508L53.1803 55.1702L53.2503 55.3868C53.3047 55.5544 52.5403 56.3241 50.9569 57.6959C49.612 58.8601 47.7773 60.4382 45.8299 62.1052C41.7562 65.6056 36.2754 70.3089 35.2881 71.2642C35.3659 71.4267 35.4008 71.5968 35.3892 71.7786C35.3697 72.0571 35.2376 72.3008 35.0121 72.4903C34.8022 72.6644 34.5729 72.7533 34.328 72.7533ZM34.3086 72.0765C34.3708 72.0803 34.4641 72.0687 34.5768 71.9759C34.6623 71.9024 34.7051 71.8289 34.7128 71.7361C34.7128 71.7284 34.7128 71.7206 34.7128 71.7129C34.5496 71.8599 34.4174 71.9798 34.3125 72.0803L34.3086 72.0765ZM25.5938 67.2958L29.1504 64.3331L68.2117 41.4587L56.0801 51.577L25.5938 67.2958ZM61.5026 46.1736L35.1676 61.5946L55.7303 50.9929L61.4987 46.1736H61.5026Z" fill="currentColor"/>
<path d="M56.1443 104.699C56.0743 104.699 56.0043 104.691 55.9344 104.68C55.6428 104.629 55.4096 104.479 55.2502 104.25C55.0947 104.022 55.0403 103.755 55.0947 103.457C55.1492 103.16 55.2891 102.928 55.5107 102.773C55.7361 102.618 56.0004 102.564 56.2997 102.618C56.5563 102.664 56.7662 102.773 56.9217 102.947C57.5825 103.094 61.8233 103.566 64.4509 103.836L71.3505 104.552L64.416 104.513C61.6833 104.498 57.256 104.498 56.6729 104.56C56.5135 104.653 56.3347 104.699 56.1443 104.699ZM56.0821 103.276C55.9888 103.276 55.9344 103.303 55.9033 103.326C55.8605 103.357 55.7944 103.415 55.7672 103.573C55.74 103.732 55.7828 103.817 55.8177 103.871C55.8722 103.949 55.946 103.995 56.0549 104.014C56.2103 104.041 56.2959 103.999 56.3503 103.964C56.4164 103.918 56.498 103.864 58.3366 103.84C56.5718 103.612 56.5135 103.531 56.4436 103.438C56.4086 103.388 56.3425 103.318 56.1831 103.291C56.1443 103.283 56.1132 103.283 56.0821 103.283V103.276Z" fill="currentColor"/>
<path d="M50.2846 98.8159L49.9891 98.6457C49.3828 98.2938 48.9202 97.7948 48.6131 97.1605C48.2749 96.6229 42.4249 90.8095 38.565 87.0268L35.1172 83.6463L39.0043 86.5124C42.421 89.0342 47.9873 93.0142 49.0873 93.5131C49.3905 93.1728 49.7559 92.9214 50.1796 92.7628C50.6655 92.581 51.2019 92.5423 51.7655 92.639C52.1659 92.7086 52.7218 93.2269 53.4564 93.9502C53.5031 93.9927 53.5458 94.0392 53.5886 94.0778C54.0356 92.6003 55.2134 87.2782 56.1774 82.9076C57.5378 76.75 58.2142 73.7756 58.6029 72.3252C58.5057 72.2517 58.4474 72.1395 58.4474 72.0196C58.4474 71.7914 58.6223 71.6599 58.7934 71.5284C58.8089 71.5168 58.8322 71.5013 58.8517 71.482C59.0344 70.9598 59.1316 70.9444 59.2715 70.9289L59.5086 70.8979L59.6369 71.1223C59.7924 71.4472 59.6174 71.7063 59.427 71.8881C59.4231 71.9075 59.4153 71.9268 59.4114 71.9461C59.5241 71.9771 59.668 72.008 59.8429 72.0351L60.1849 72.0892L59.2754 77.2915L58.9411 77.2373C58.8633 77.2257 58.7312 77.2025 58.6107 77.1445C58.1598 78.7458 57.1375 83.4104 56.2901 87.2743C54.1755 96.9246 54.1483 96.9284 53.7713 96.9787L53.5342 97.0096L53.4137 96.7853C53.126 96.2013 52.9122 95.9421 52.7801 95.8222C52.7101 95.7565 52.6013 95.6404 52.4186 95.4393C52.1698 95.1647 51.5867 94.5265 51.4079 94.4491C51.1125 94.3989 50.8443 94.4646 50.6072 94.6503C50.3584 94.8437 50.2068 95.126 50.1369 95.5089C50.0863 95.7913 50.133 96.0659 50.2768 96.3521C50.4245 96.6461 50.6344 96.8743 50.9182 97.0522L51.198 97.2262L50.269 98.8159H50.2846ZM49.2234 96.8588C49.4255 97.2727 49.6937 97.6053 50.0475 97.8722L50.3001 97.439C50.0397 97.2262 49.8298 96.9632 49.6782 96.6577C49.4722 96.2438 49.4022 95.8184 49.4799 95.3968C49.5771 94.8514 49.8181 94.4221 50.199 94.1204C50.5916 93.811 51.0503 93.7027 51.5673 93.7916C51.8549 93.8419 52.2087 94.1861 52.9355 94.9868C53.0638 95.1299 53.1999 95.2769 53.2504 95.3233C53.3864 95.447 53.5264 95.6134 53.6663 95.8261C53.7285 95.5902 53.8024 95.2962 53.884 94.952C53.8684 94.9597 53.849 94.9636 53.8335 94.9713L53.6508 95.0332L53.4914 94.9094C53.3709 94.8089 53.1921 94.6348 52.9861 94.4337C52.6557 94.1126 51.886 93.3584 51.6528 93.3081C51.2097 93.2308 50.7938 93.2617 50.4245 93.3971C50.0513 93.5363 49.7481 93.7607 49.4994 94.0856C49.2467 94.4143 49.1223 94.5845 43.7115 90.7476C43.2256 90.4034 42.7397 90.0592 42.2733 89.7227C45.3013 92.7202 49.029 96.4527 49.2234 96.8588ZM58.5912 76.0189L58.7545 76.1273C58.7545 76.1273 58.7817 76.1466 58.7934 76.1582L59.4075 72.6462C59.3492 72.6346 59.2948 72.6191 59.2443 72.6037C59.0266 73.4391 58.7351 74.6691 58.4086 76.0886C58.4124 76.0886 58.4163 76.0886 58.4202 76.0847L58.5912 76.0189ZM57.3279 98.0269C57.258 98.0269 57.188 98.0192 57.1142 98.0075C56.8447 97.9611 56.9652 96.3199 57.4757 93.0838C57.8955 90.4111 58.4591 86.961 59.0033 83.6308C59.7379 79.1248 60.4959 74.468 60.5698 73.764C60.4609 73.559 60.4298 73.3269 60.4765 73.0717C60.5309 72.7738 60.6708 72.5418 60.8924 72.3871L61.079 72.2594L61.2733 72.3793C61.4236 72.4722 61.3342 73.5513 61.0051 75.6167C60.7253 77.3727 60.3365 79.7514 59.9284 82.2771C59.0694 87.5644 57.911 94.6696 57.7711 96.0311C57.9343 96.1046 58.0743 96.2167 58.1792 96.3637C58.3425 96.5881 58.4008 96.8627 58.3502 97.1489C58.2997 97.4428 58.1481 97.6827 57.9188 97.8451C57.7439 97.9689 57.5456 98.0308 57.3318 98.0308L57.3279 98.0269ZM57.6078 96.7428C57.5767 96.9555 57.5534 97.1373 57.5378 97.2804C57.5884 97.2417 57.6506 97.176 57.6778 97.0329C57.6972 96.9246 57.6778 96.8395 57.6234 96.7621C57.6195 96.7544 57.6156 96.7505 57.6078 96.7428Z" fill="currentColor"/>
<path d="M51.4677 92.144L51.1723 91.9738C50.5659 91.6218 50.1033 91.119 49.7924 90.4808C49.4814 89.8388 49.3842 89.1812 49.5008 88.5198C49.6058 87.9319 49.8196 87.4214 50.1383 87.0036C50.4648 86.5782 50.8769 86.2688 51.3666 86.087C51.8525 85.9052 52.3889 85.8626 52.9526 85.9632C53.3529 86.0328 53.9088 86.5511 54.6473 87.2744C54.6862 87.3131 54.7212 87.3479 54.7562 87.3827C55.1449 85.851 56.0855 80.5173 56.8591 76.1312C58.9348 64.373 58.997 64.3614 59.3896 64.3034L59.6306 64.2686L59.7588 64.4968C59.9415 64.8758 60.1009 65.0383 60.202 65.1079C60.3069 65.1814 60.5362 65.2858 61.0299 65.3632L61.3681 65.4173L61.0649 67.2429L60.7306 67.1888C60.6567 67.1772 60.5285 67.1578 60.4119 67.0998C59.9221 68.8867 58.7404 74.4409 57.7609 79.0282C55.3703 90.2487 55.3392 90.2526 54.9661 90.3029L54.7251 90.3338L54.6046 90.1134C54.3169 89.5293 54.1031 89.2702 53.971 89.1503C53.901 89.0845 53.7922 88.9685 53.6095 88.7674C53.3607 88.4928 52.7776 87.8546 52.5988 87.7772C52.3034 87.7269 52.0352 87.7888 51.7981 87.9745C51.5493 88.1679 51.3977 88.4502 51.3278 88.8331C51.2772 89.1155 51.3239 89.3901 51.4638 89.6763C51.6115 89.9703 51.8214 90.1985 52.1052 90.3764L52.385 90.5504L51.456 92.1401L51.4677 92.144ZM50.4065 90.1869C50.6086 90.6007 50.8769 90.9372 51.2306 91.2002L51.4832 90.767C51.2228 90.5543 51.0129 90.2913 50.8613 89.9857C50.6553 89.5719 50.5853 89.1464 50.6631 88.7248C50.7602 88.1795 51.0012 87.7501 51.3822 87.4484C51.7748 87.139 52.2373 87.0307 52.7504 87.1197C53.0381 87.17 53.3918 87.5142 54.1187 88.3148C54.247 88.4579 54.383 88.6049 54.4335 88.6513C54.5696 88.7712 54.7017 88.9337 54.8378 89.1425C54.8961 88.9105 54.9661 88.6204 55.0477 88.2878C55.0399 88.2878 55.0321 88.2955 55.0205 88.2955L54.8378 88.3612L54.6745 88.2336C54.554 88.133 54.3752 87.959 54.1692 87.7579C53.8388 87.4368 53.0692 86.6787 52.8359 86.6323C52.3928 86.555 51.9769 86.5859 51.6076 86.7213C51.2345 86.8605 50.9313 87.0849 50.6825 87.4098C50.4298 87.7385 50.2588 88.1524 50.1733 88.632C50.08 89.158 50.1577 89.6647 50.4065 90.183V90.1869ZM59.545 65.4173C59.1486 67.0959 58.2973 71.9152 57.5354 76.2472C57.3022 77.57 57.0923 78.7458 56.9057 79.7901C56.9718 79.4884 57.034 79.1868 57.0962 78.8928C59.8016 66.1909 59.8871 66.1561 60.1981 66.0361L60.3691 65.9704L60.5285 66.0787C60.5285 66.0787 60.5518 66.098 60.5635 66.1058L60.5868 65.9743C60.2486 65.8969 59.992 65.7963 59.8094 65.6648C59.7161 65.5991 59.6267 65.5179 59.5411 65.4212L59.545 65.4173ZM58.5111 91.3511C58.4411 91.3511 58.3711 91.3433 58.2973 91.3317C58.0278 91.2853 58.1483 89.6454 58.6588 86.4119C59.0786 83.7392 59.6422 80.293 60.1864 76.9589C60.9211 72.449 61.6829 67.7921 61.7529 67.0882C61.6441 66.8832 61.613 66.6511 61.6596 66.3959C61.714 66.098 61.854 65.866 62.0755 65.7113L62.2621 65.5836L62.4565 65.7035C62.6068 65.7963 62.5174 66.8755 62.1882 68.9409C61.9084 70.6969 61.5197 73.0756 61.1115 75.6013C60.338 80.3626 59.3196 86.6014 59.0242 88.7867C60.5596 87.3131 64.7032 83.0894 67.5641 80.1421L76.4072 71.0373L68.0655 80.5985C64.8276 84.3116 59.9532 89.9355 59.5178 90.535C59.4556 90.798 59.3118 91.0146 59.1019 91.1616C58.927 91.2853 58.7287 91.3433 58.515 91.3433L58.5111 91.3511ZM58.822 89.8349C58.7754 90.152 58.7404 90.4112 58.7171 90.6046C58.7676 90.5659 58.8298 90.5002 58.857 90.357C58.8687 90.2913 58.8842 90.2023 60.5479 88.2452C59.5256 89.2508 59.0592 89.6686 58.822 89.8349Z" fill="currentColor"/>
<path d="M49.9492 86.9147L50.7577 82.37L65.9057 39.8665L63.1497 55.3726L49.9492 86.9147ZM63.8144 47.7646L53.6031 76.4174L62.5045 55.1444L63.8144 47.7646ZM59.4998 85.7466C59.4298 85.7466 59.3598 85.7389 59.2899 85.7273C59.0204 85.6809 59.1409 84.0383 59.6514 80.7997C60.0751 78.1231 60.6348 74.6769 61.179 71.339C61.9136 66.8368 62.6716 62.1838 62.7455 61.4799C62.6366 61.2749 62.6055 61.0428 62.6522 60.7875C62.7027 60.4897 62.8427 60.2576 63.0681 60.1029L63.2547 59.9714L63.449 60.0913C63.5993 60.1841 63.5099 61.2633 63.1808 63.3287C62.901 65.0808 62.5161 67.4634 62.1041 69.9852C61.2412 75.2725 60.0867 82.3816 59.9468 83.7431C60.11 83.8166 60.25 83.9287 60.3549 84.0757C60.5182 84.3 60.5765 84.5708 60.526 84.8609C60.4715 85.1548 60.3238 85.3946 60.0945 85.5571C59.9196 85.677 59.7174 85.7389 59.4998 85.7389V85.7466ZM59.7835 84.4625C59.7524 84.6752 59.7291 84.857 59.7136 85.0001C59.7641 84.9614 59.8263 84.8957 59.8535 84.7526C59.8729 84.6443 59.8535 84.5592 59.7991 84.4818C59.7952 84.4741 59.7913 84.4702 59.7835 84.4625Z" fill="currentColor"/>
<path d="M96.8089 96.2981C96.7195 96.2981 96.6262 96.2865 96.5368 96.2594C96.2686 96.182 96.0548 96.0119 95.9032 95.7527C95.7516 95.4897 95.7088 95.2228 95.7788 94.9637C95.8487 94.7007 96.0198 94.4918 96.2841 94.341C96.5096 94.2094 96.7389 94.163 96.9721 94.194C97.5746 93.8845 101.127 91.5329 103.316 90.0593L109.061 86.1953L103.724 90.6008C101.617 92.3374 98.2276 95.1687 97.8234 95.5903C97.7418 95.8262 97.5746 96.0196 97.3375 96.155C97.1665 96.2517 96.9877 96.3019 96.8089 96.3019V96.2981ZM96.84 94.8592C96.7855 94.8592 96.7156 94.8747 96.6262 94.925C96.4862 95.0062 96.4513 95.0836 96.4396 95.1377C96.424 95.188 96.4163 95.277 96.494 95.4123C96.5756 95.5516 96.665 95.5903 96.7233 95.6057C96.8166 95.6328 96.8983 95.6173 96.9954 95.5632C97.1354 95.482 97.1704 95.3969 97.1859 95.335C97.2053 95.2576 97.2325 95.1648 98.628 93.9696C97.1276 94.9211 97.0304 94.8979 96.9177 94.8708C96.8944 94.867 96.8672 94.8592 96.8361 94.8592H96.84Z" fill="currentColor"/>
<path d="M88.2974 95.3816C87.8115 95.3816 87.3373 95.2772 86.8786 95.0722C86.2722 94.8788 78.0355 94.1671 72.6364 93.7339L67.8125 93.3471L72.6441 93.057C76.8927 92.8017 83.7262 92.2951 84.8884 91.9702C84.9001 91.5176 85.0167 91.0883 85.2422 90.6938C85.4987 90.2451 85.8796 89.8699 86.3772 89.5837C86.7309 89.3787 87.4889 89.4213 88.5228 89.5064C88.585 89.5102 88.6472 89.518 88.7055 89.5218C88.0953 88.1023 85.557 83.2753 83.4735 79.3069C80.5388 73.7217 79.1356 71.0104 78.4981 69.6489C78.3737 69.6528 78.261 69.6064 78.1832 69.5136C78.0316 69.3395 78.0822 69.1268 78.1327 68.9179C78.1366 68.8986 78.1443 68.8715 78.1482 68.8444C77.95 68.3261 78.0161 68.2526 78.1133 68.1521L78.2765 67.978L78.5175 68.067C78.8479 68.214 78.879 68.5273 78.8518 68.7864C78.8596 68.8057 78.8673 68.8251 78.879 68.8444C78.9878 68.7941 79.1161 68.7284 79.2677 68.6356L79.5631 68.4576L82.2297 73.0255L81.942 73.1957C81.8759 73.2344 81.7593 73.304 81.6311 73.335C82.3191 74.8512 84.5503 79.0787 86.3966 82.5791C91.0145 91.3242 90.9911 91.3474 90.7346 91.6221L90.5713 91.7961L90.3342 91.7033C89.7356 91.4403 89.4013 91.3784 89.2264 91.3706C89.1292 91.3706 88.9738 91.3474 88.7017 91.3088C88.3363 91.2585 87.4772 91.1424 87.2868 91.1966C87.0302 91.3474 86.8631 91.5679 86.8009 91.8619C86.7387 92.1713 86.8009 92.4846 86.9952 92.8211C87.1391 93.0686 87.3528 93.2504 87.6444 93.378C87.9476 93.5096 88.2546 93.5482 88.5889 93.5018L88.9154 93.4554L89.2303 95.2694L88.8921 95.3274C88.6939 95.3622 88.4956 95.3777 88.3013 95.3777L88.2974 95.3816ZM87.1507 94.4533C87.5744 94.6428 87.9981 94.7241 88.4373 94.7008L88.3518 94.2058C88.0175 94.2135 87.6871 94.1439 87.3723 94.0085C86.9447 93.8228 86.6221 93.5405 86.4044 93.1692C86.1245 92.6896 86.0351 92.2061 86.1323 91.7342C86.2334 91.2469 86.5171 90.8678 86.968 90.6087C87.2207 90.4617 87.7143 90.5004 88.7911 90.6474C88.9815 90.6744 89.1798 90.7015 89.2497 90.7015C89.4363 90.7092 89.6462 90.7479 89.8911 90.8214C89.7861 90.6009 89.654 90.3263 89.4946 90.013C89.4868 90.0285 89.4791 90.044 89.4674 90.0595L89.3702 90.2219L89.1681 90.2296C89.0126 90.2296 88.76 90.2103 88.4723 90.1871C88.0136 90.1484 86.933 90.0672 86.7231 90.1755C86.3344 90.3998 86.0351 90.686 85.8408 91.0303C85.6464 91.3745 85.5609 91.742 85.5803 92.1519C85.5998 92.5658 85.6114 92.7747 78.9917 93.2968C78.397 93.3432 77.8023 93.3897 77.227 93.4322C81.4834 93.7919 86.7465 94.2676 87.1624 94.4533H87.1507ZM79.155 69.4633C79.5282 70.2446 80.0996 71.374 80.7681 72.6658C80.7681 72.6658 80.772 72.6581 80.7759 72.6542L80.8653 72.4957L81.0597 72.4724C81.0597 72.4724 81.0946 72.4724 81.1102 72.4724L79.3105 69.3898C79.2599 69.4169 79.2094 69.4401 79.1589 69.4633H79.155ZM93.7626 90.3534C93.4983 90.3534 93.1213 89.7307 91.0339 86.2806C89.6307 83.9599 87.831 80.9585 86.0973 78.0576C83.7495 74.1356 81.3279 70.086 80.9275 69.502C80.7137 69.413 80.5388 69.2544 80.4105 69.0339C80.2589 68.7709 80.2162 68.5041 80.2861 68.2449L80.3444 68.0283L80.5699 67.9974C80.7461 67.9716 81.3745 68.8547 82.4551 70.6468C83.3764 72.1707 84.6163 74.24 85.9302 76.437C88.6861 81.0358 92.3905 87.2205 93.164 88.3537C93.3389 88.3035 93.5139 88.3035 93.6888 88.346C93.9609 88.4156 94.1824 88.5858 94.3301 88.8372C94.4817 89.0964 94.5206 89.3748 94.4506 89.6456C94.3768 89.9163 94.2019 90.1368 93.9414 90.2838C93.8754 90.3225 93.8248 90.3495 93.7665 90.3495L93.7626 90.3534ZM93.4983 88.9997C93.6149 89.1815 93.7121 89.3362 93.7898 89.4561C93.8054 89.3942 93.8093 89.3052 93.7354 89.1776C93.681 89.0809 93.611 89.0267 93.5216 89.0035C93.5139 89.0035 93.5061 89.0035 93.4983 88.9997Z" fill="currentColor"/>
<path d="M84.8907 89.5101C84.4048 89.5101 83.9267 89.4057 83.4642 89.1968C82.815 88.9028 82.3097 88.4619 81.9754 87.8779C81.6761 87.3596 81.509 86.8336 81.4856 86.3114C81.4584 85.7776 81.5789 85.2748 81.8355 84.8223C82.092 84.3736 82.4729 83.9984 82.9705 83.7122C83.3242 83.5072 84.0822 83.5498 85.1162 83.6349C85.1706 83.6387 85.2211 83.6426 85.2716 83.6465C84.5797 82.227 81.8549 77.5353 79.6121 73.6791C73.6065 63.3442 73.6493 63.2978 73.9097 63L74.073 62.8182L74.3179 62.911C74.7027 63.0851 74.9281 63.1083 75.0525 63.0967C75.1808 63.0851 75.4218 63.0193 75.8533 62.7641L76.1487 62.5861L77.0971 64.1797L76.8056 64.3537C76.7395 64.3924 76.6307 64.4582 76.5024 64.493C77.2798 66.1716 79.9619 71.1843 82.1775 75.3268C87.5961 85.4527 87.5728 85.4759 87.3201 85.7506L87.1569 85.9285L86.9237 85.8357C86.325 85.5726 85.9908 85.5108 85.8158 85.503C85.7187 85.503 85.5632 85.4798 85.2911 85.4411C84.9257 85.3909 84.0628 85.2748 83.8762 85.329C83.6196 85.4798 83.4525 85.7003 83.3903 85.9942C83.3242 86.3037 83.3903 86.617 83.5847 86.9535C83.7285 87.201 83.9423 87.3828 84.2338 87.5104C84.537 87.6419 84.8441 87.6806 85.1784 87.6342L85.5049 87.5878L85.8236 89.4018L85.4854 89.4598C85.2872 89.4946 85.089 89.5101 84.8907 89.5101ZM83.744 88.5818C84.1638 88.7713 84.5836 88.8526 85.0306 88.8294L84.9451 88.3343C84.6147 88.342 84.2804 88.2724 83.9656 88.137C83.538 87.9514 83.2154 87.669 82.9977 87.2977C82.7178 86.8181 82.6284 86.3346 82.7256 85.8627C82.8267 85.3754 83.1065 84.9963 83.5613 84.7372C83.814 84.5902 84.3077 84.6289 85.3844 84.7759C85.5748 84.8029 85.7731 84.83 85.843 84.83C86.0257 84.8378 86.2318 84.8764 86.4689 84.9461C86.3639 84.7295 86.2318 84.4626 86.0763 84.157C86.0724 84.1648 86.0685 84.1725 86.0607 84.1802L85.9635 84.3504L85.7575 84.3581C85.5982 84.3581 85.3494 84.3388 85.0617 84.3156C84.6031 84.2808 83.5225 84.1918 83.3126 84.304C82.9239 84.5283 82.6245 84.8145 82.4302 85.1588C82.232 85.503 82.1464 85.8705 82.1698 86.2805C82.1892 86.6943 82.3252 87.1198 82.5701 87.5414C82.8383 88.0055 83.2232 88.3459 83.7518 88.5818H83.744ZM74.7454 63.762C75.5267 65.3014 77.9912 69.5366 80.199 73.3426C80.8754 74.5068 81.474 75.5395 82.0065 76.46C81.8588 76.1893 81.715 75.9147 81.5712 75.6478C75.4373 64.1874 75.484 64.1062 75.6434 63.8122L75.7328 63.6537L75.9232 63.6343C75.9232 63.6343 75.9543 63.6343 75.9699 63.6343L75.8999 63.5183C75.5928 63.6769 75.3285 63.762 75.1069 63.7813C74.9942 63.7929 74.8737 63.7852 74.7454 63.7658V63.762ZM90.3559 84.4819C90.0916 84.4819 89.7146 83.8592 87.6272 80.413C86.224 78.0961 84.4281 75.0947 82.6906 72.1938C80.3428 68.2719 77.9173 64.2184 77.5169 63.6343C77.3031 63.5454 77.1282 63.3868 76.9999 63.1663C76.8483 62.9033 76.8056 62.6364 76.8756 62.3773L76.9339 62.1607L77.1593 62.1297C77.3355 62.1065 77.9639 62.9897 79.0446 64.7792C79.9658 66.3031 81.2058 68.3724 82.5196 70.5693C85.0034 74.7118 88.253 80.1422 89.4386 82.0065C89.664 79.8947 90.1111 74.0078 90.3987 69.9234L91.2927 57.2988L91.0789 69.9544C90.9973 74.8704 90.8962 82.2927 90.9507 83.0354C91.0751 83.2752 91.1023 83.5343 91.0362 83.7818C90.9623 84.0526 90.7874 84.2731 90.527 84.42C90.4648 84.4587 90.4104 84.4858 90.3521 84.4858L90.3559 84.4819ZM89.9672 82.9309C90.1383 83.2017 90.2782 83.426 90.387 83.5884C90.4026 83.5266 90.4065 83.4376 90.3326 83.31C90.2976 83.2519 90.2549 83.1746 90.2665 80.6102C90.1344 82.0336 90.045 82.6524 89.9711 82.9348L89.9672 82.9309Z" fill="currentColor"/>
<path d="M81.2815 86.3694L78.9648 82.3701L63.1094 40.1218L71.0157 53.7637L81.2776 86.3694H81.2815ZM66.6116 47.5132L77.3011 75.9959L70.3782 54.0035L66.6116 47.5132ZM87.4969 79.5582C87.2326 79.5582 86.8555 78.9355 84.7643 75.4854C83.3572 73.1647 81.5613 70.1632 79.8238 67.2585C77.4799 63.3404 75.0544 59.2946 74.6579 58.7067C74.4441 58.6178 74.2692 58.4592 74.1409 58.2387C73.9893 57.9757 73.9465 57.7088 74.0165 57.4497L74.0748 57.2331L74.3003 57.2021C74.4765 57.1764 75.1049 58.0608 76.1855 59.8555C77.1067 61.3794 78.3467 63.4526 79.6644 65.6495C82.4165 70.2483 86.1209 76.4291 86.8944 77.5624C87.0693 77.5121 87.2442 77.5121 87.423 77.5547C87.6951 77.6243 87.9167 77.7945 88.0605 78.0459C88.2121 78.305 88.251 78.5835 88.181 78.8542C88.1072 79.1211 87.9322 79.3455 87.6718 79.4924C87.6096 79.5311 87.5552 79.5582 87.4969 79.5582ZM87.2326 78.2045C87.3492 78.3862 87.4464 78.5409 87.5241 78.6609C87.5397 78.599 87.5435 78.51 87.4697 78.3824C87.4153 78.2857 87.3453 78.2315 87.2559 78.2083C87.2481 78.2083 87.2403 78.2083 87.2326 78.2045Z" fill="currentColor"/>
<path d="M122.59 63.819C122.462 63.819 122.326 63.7958 122.19 63.7455C121.902 63.641 121.7 63.467 121.583 63.2194C121.467 62.9719 121.463 62.705 121.568 62.4188C121.657 62.1751 121.801 61.9895 121.999 61.8657C122.26 61.243 123.461 57.1702 124.188 54.6406L126.092 48.0034L124.848 54.7953C124.359 57.4719 123.589 61.8077 123.55 62.3917C123.639 62.6238 123.636 62.883 123.542 63.1382C123.441 63.4128 123.255 63.6178 122.998 63.7339C122.866 63.7919 122.726 63.8228 122.582 63.8228L122.59 63.819ZM123.126 60.6357C122.594 62.326 122.504 62.3685 122.399 62.4188C122.345 62.4459 122.263 62.5 122.209 62.6509C122.155 62.8017 122.178 62.883 122.201 62.9332C122.225 62.9835 122.271 63.0531 122.423 63.1073C122.574 63.1614 122.668 63.1344 122.726 63.1073C122.812 63.0686 122.87 63.0028 122.909 62.8984C122.963 62.7514 122.936 62.6586 122.909 62.6006C122.874 62.5271 122.835 62.442 123.13 60.6319L123.126 60.6357Z" fill="currentColor"/>
<path d="M99.1167 79.8742L102.631 76.5594C105.717 73.647 110.626 68.8857 111.31 67.8955C111.027 67.5397 110.84 67.1374 110.758 66.6926C110.665 66.1821 110.716 65.6522 110.914 65.1184C111.054 64.7355 111.66 64.2829 112.504 63.6873C112.554 63.6525 112.605 63.6138 112.651 63.5829C111.268 62.8867 106.203 60.8096 102.044 59.1039C96.1858 56.702 93.3599 55.5223 91.9917 54.888C91.8984 54.9692 91.7818 55.0079 91.6613 54.9886C91.4358 54.9537 91.3347 54.7565 91.2376 54.5631C91.2259 54.5438 91.2142 54.5205 91.2026 54.4973C90.7167 54.2266 90.7206 54.1299 90.7284 53.9907L90.74 53.7509L90.9849 53.6658C91.3347 53.5691 91.5602 53.7857 91.704 54.0061C91.7234 54.0139 91.739 54.0255 91.7584 54.0332C91.809 53.9249 91.8634 53.7934 91.9217 53.6271L92.0344 53.3022L97.0254 55.0969L96.9127 55.414C96.8855 55.4875 96.8427 55.6151 96.765 55.7234C98.2732 56.4467 102.712 58.2569 106.389 59.7576C115.575 63.5055 115.571 63.5326 115.555 63.9078L115.543 64.1476L115.302 64.2249C114.677 64.4067 114.381 64.573 114.241 64.6775C114.164 64.7355 114.031 64.8206 113.798 64.9637C113.483 65.1609 112.749 65.6212 112.644 65.7837C112.543 66.0621 112.558 66.3406 112.702 66.6036C112.854 66.8821 113.102 67.0794 113.472 67.2148C113.744 67.3115 114.024 67.3153 114.327 67.2264C114.646 67.1335 114.906 66.9672 115.131 66.7197L115.353 66.476L116.768 67.6634L116.546 67.9226C116.092 68.4525 115.52 68.8199 114.84 69.0133C114.249 69.2531 107.482 73.9757 103.066 77.0971L99.1206 79.8858L99.1167 79.8742ZM113.565 63.4514C113.565 63.4514 113.573 63.4862 113.577 63.5055L113.608 63.695L113.456 63.8304C113.336 63.931 113.133 64.0741 112.896 64.2443C112.519 64.5111 111.641 65.1339 111.551 65.3543C111.396 65.7759 111.357 66.1859 111.427 66.5766C111.497 66.9672 111.672 67.2998 111.952 67.6015C112.236 67.9071 112.375 68.0579 107.645 72.6955C107.221 73.1132 106.794 73.5271 106.378 73.9254C109.872 71.4771 114.21 68.4757 114.646 68.3519C115.089 68.2281 115.47 68.0193 115.788 67.7214L115.404 67.3965C115.147 67.617 114.852 67.7756 114.525 67.8723C114.082 68.0038 113.647 67.9961 113.242 67.8491C112.718 67.6596 112.337 67.3463 112.107 66.9247C111.87 66.4876 111.843 66.0157 112.022 65.5245C112.123 65.2499 112.523 64.9675 113.444 64.3912C113.608 64.2907 113.779 64.1824 113.829 64.1437C113.977 64.0315 114.164 63.9232 114.397 63.8265C114.175 63.7221 113.895 63.6022 113.569 63.4591L113.565 63.4514ZM92.3765 54.3194C93.1656 54.6791 94.3356 55.1781 95.6805 55.7428C95.6805 55.7428 95.6805 55.735 95.6805 55.7312L95.6455 55.5533L95.7777 55.414C95.7777 55.414 95.8049 55.3908 95.8165 55.3792L92.4464 54.1686C92.4231 54.2227 92.3998 54.273 92.3765 54.3233V54.3194ZM116.884 61.0301C116.504 61.0301 115.473 60.6781 112.337 59.6106C109.763 58.7326 106.448 57.5839 103.245 56.4699C98.9145 54.9653 94.4405 53.4143 93.7564 53.221C93.5348 53.2906 93.3016 53.2828 93.0567 53.1939C92.7691 53.0895 92.5669 52.9115 92.4503 52.6679L92.3532 52.4629L92.5048 52.2927C92.624 52.1612 93.6761 52.4358 95.6611 53.1165C97.348 53.6928 99.6375 54.4857 102.063 55.3289C107.147 57.0927 113.985 59.4598 115.306 59.8349C115.407 59.6841 115.54 59.5719 115.703 59.4907C115.955 59.3708 116.231 59.3592 116.511 59.4598C116.795 59.5603 117.005 59.7498 117.126 60.0013C117.242 60.2527 117.25 60.535 117.149 60.8174C117.102 60.945 117.071 61.0262 116.884 61.0262V61.0301ZM115.983 60.1134C116.189 60.1792 116.364 60.2333 116.504 60.2759C116.476 60.2217 116.418 60.1482 116.282 60.098C116.177 60.0593 116.092 60.0593 116.006 60.1018C115.998 60.1018 115.99 60.1096 115.987 60.1134H115.983Z" fill="currentColor"/>
<path d="M107.503 66.8126C107.138 66.8126 106.784 66.7507 106.438 66.6231C105.874 66.4181 105.408 66.1202 105.05 65.7373C104.685 65.3428 104.452 64.8864 104.358 64.372C104.265 63.8653 104.316 63.3354 104.514 62.7978C104.654 62.4149 105.26 61.9623 106.104 61.3667C106.146 61.3357 106.189 61.3048 106.232 61.2777C104.786 60.6318 99.6705 58.783 95.4608 57.2629C84.1805 53.1862 84.1805 53.1243 84.1921 52.7298L84.1999 52.4862L84.4487 52.4011C84.8568 52.2889 85.0434 52.1613 85.1328 52.0723C85.2222 51.9833 85.366 51.7783 85.5293 51.3026L85.642 50.9816L87.399 51.5966L87.2862 51.9176C87.259 51.9911 87.2202 52.111 87.1463 52.2154C88.8294 53.0044 94.1236 55.1279 98.4927 56.8839C109.182 61.1733 109.182 61.2042 109.163 61.5794L109.151 61.8192L108.91 61.8966C108.284 62.0784 107.985 62.2447 107.849 62.3491C107.771 62.4071 107.639 62.4922 107.406 62.6353C107.091 62.8326 106.356 63.289 106.251 63.4514C106.15 63.7299 106.166 64.0084 106.31 64.2714C106.461 64.5499 106.71 64.7472 107.079 64.8825C107.351 64.9792 107.631 64.9831 107.934 64.8941C108.253 64.8013 108.514 64.635 108.739 64.3875L108.961 64.1438L110.375 65.3312L110.154 65.5904C109.699 66.1241 109.124 66.4916 108.44 66.6811C108.125 66.77 107.818 66.8126 107.511 66.8126H107.503ZM107.173 61.1501C107.173 61.1501 107.173 61.1694 107.176 61.1772L107.211 61.3706L107.056 61.5098C106.935 61.6104 106.729 61.7573 106.496 61.9237C106.119 62.1905 105.241 62.8133 105.151 63.0337C104.996 63.463 104.953 63.8614 105.027 64.256C105.097 64.6466 105.272 64.9792 105.552 65.2809C105.835 65.5865 106.212 65.8263 106.671 65.9926C107.176 66.1744 107.69 66.1899 108.245 66.0352C108.692 65.9114 109.069 65.7025 109.392 65.4047L109.007 65.0798C108.751 65.3003 108.455 65.4588 108.129 65.5555C107.686 65.6871 107.25 65.6793 106.846 65.5323C106.321 65.3428 105.94 65.0295 105.711 64.6079C105.474 64.1709 105.447 63.699 105.625 63.2078C105.727 62.9332 106.127 62.6508 107.048 62.0745C107.211 61.9739 107.382 61.8656 107.433 61.827C107.577 61.7148 107.759 61.6142 107.989 61.5137C107.767 61.4131 107.495 61.2971 107.18 61.1617L107.173 61.1501ZM85.3194 52.7724C86.9131 53.4531 91.5387 55.124 95.6901 56.6247C96.9573 57.0811 98.0845 57.4911 99.0874 57.8547C98.7998 57.7387 98.516 57.6226 98.2322 57.5105C86.1279 52.6525 86.1123 52.5635 86.0463 52.2347L86.0113 52.0568L86.1473 51.9176C86.1473 51.9176 86.1706 51.8982 86.1784 51.8866L86.0501 51.8441C85.9141 52.1613 85.7703 52.3972 85.6109 52.5519C85.5293 52.6331 85.4321 52.7066 85.3233 52.7724H85.3194ZM110.488 58.7095C110.107 58.7095 109.077 58.3575 105.94 57.29C103.367 56.412 100.051 55.2633 96.8484 54.1493C92.5182 52.6447 88.0442 51.0937 87.3601 50.9003C87.1385 50.97 86.9053 50.9622 86.6604 50.8733C86.3728 50.7688 86.1706 50.5909 86.054 50.3472L85.9569 50.1423L86.1084 49.9721C86.2277 49.8406 87.2798 50.1152 89.2648 50.7959C90.9517 51.3722 93.2412 52.169 95.6707 53.0083C100.25 54.5941 106.247 56.675 108.362 57.3441C107.173 55.5843 103.709 50.7882 101.291 47.4734L93.8204 37.2314L101.832 47.0596C104.945 50.8771 109.664 56.6286 110.185 57.1624C110.434 57.2668 110.624 57.4447 110.733 57.6768C110.85 57.9282 110.861 58.2105 110.756 58.4929C110.71 58.6205 110.679 58.7018 110.492 58.7018L110.488 58.7095ZM109.361 57.7232C109.668 57.8238 109.921 57.9011 110.103 57.9591C110.076 57.905 110.022 57.8315 109.882 57.7812C109.816 57.758 109.734 57.7271 108.086 55.7545C108.902 56.9303 109.237 57.4602 109.361 57.7232Z" fill="currentColor"/>
<path d="M104.929 65.9115L100.571 64.3295L61.1328 42.105L76.0009 47.5006L104.925 65.9153L104.929 65.9115ZM68.5882 45.528L95.1719 60.5081L75.6627 48.0885L68.5843 45.5241L68.5882 45.528ZM105.111 56.764C104.73 56.764 103.7 56.4121 100.563 55.3446C97.9901 54.4666 94.6744 53.3178 91.4714 52.2039C87.1412 50.6993 82.6672 49.1483 81.9831 48.9549C81.7615 49.0245 81.5283 49.0168 81.2834 48.9278C80.9958 48.8234 80.7936 48.6455 80.677 48.4018L80.5799 48.1968L80.7315 48.0266C80.8507 47.8951 81.9028 48.1697 83.8878 48.8505C85.5748 49.4268 87.8642 50.2197 90.2898 51.0629C95.3741 52.8266 102.208 55.1937 103.533 55.5689C103.634 55.4219 103.77 55.3059 103.933 55.2246C104.182 55.1047 104.462 55.0931 104.742 55.1937C105.026 55.2981 105.236 55.4838 105.356 55.7352C105.473 55.9866 105.484 56.269 105.379 56.5513C105.333 56.679 105.302 56.7602 105.115 56.7602L105.111 56.764ZM104.209 55.8474C104.415 55.9131 104.59 55.9673 104.73 56.0098C104.703 55.9557 104.649 55.8822 104.509 55.8319C104.404 55.7932 104.318 55.7971 104.233 55.8358C104.225 55.8358 104.217 55.8435 104.213 55.8474H104.209Z" fill="currentColor"/>
</svg>
