<svg width="279" height="97" viewBox="0 0 279 97" fill="none" xmlns="http://www.w3.org/2000/svg">
<path d="M33.4033 54.644C35.4988 55.7583 38.3337 55.2835 40.6207 55.3715C43.3138 55.4749 46.1563 55.6702 48.7384 54.7283C49.6425 54.3989 50.309 53.8782 50.6576 53.1391C51.1595 52.381 51.8376 50.6847 50.1903 50.3171C47.5584 49.9724 35.0161 51.9023 32.3039 51.7492C27.9022 51.8487 23.5809 50.3745 19.3478 50.4166C19.2827 50.4549 19.2214 50.4894 19.1562 50.5277C19.8228 51.2246 32.7406 54.2917 33.3995 54.644H33.4033Z" fill="currentColor"/>
<path d="M40.5067 58.2166C37.6527 59.0169 34.722 58.5421 32.5921 60.112C32.1707 60.5868 32.0481 61.2531 31.9102 62.0687C31.9178 62.4363 31.9446 62.7733 31.9446 63.1026C31.9446 63.4319 31.9178 63.7535 31.9523 63.9756C32.3086 63.811 32.8142 63.608 33.3276 63.451C34.8753 62.9839 36.5072 62.9571 38.1392 62.7771C40.6101 62.5014 43.0504 61.9806 45.46 61.3718C49.2028 60.4222 52.7617 58.6378 52.3939 54.0887C50.5742 55.3371 48.6473 56.1986 46.6552 56.8343C44.6593 57.4699 42.5983 57.8796 40.5105 58.2204L40.5067 58.2166Z" fill="currentColor"/>
<path d="M71.6198 48.6514C69.3825 47.8626 66.6473 48.7509 64.3756 48.9998C61.6978 49.2947 58.8553 49.5244 56.4456 50.8378C55.599 51.2973 55.0167 51.91 54.783 52.6911C54.3961 53.5182 53.9824 55.295 55.6641 55.4137C58.3189 55.3639 70.436 51.596 73.1406 51.3471C77.481 50.5966 81.9708 51.4122 86.1542 50.7459C86.2116 50.7 86.2691 50.654 86.3266 50.6081C85.5642 50.0184 72.3323 48.8964 71.6274 48.6475L71.6198 48.6514Z" fill="currentColor"/>
<path d="M64.0681 46.1739C66.7727 44.96 69.7417 44.9945 71.615 43.1297C71.9597 42.5975 71.9866 41.9197 71.998 41.0926C71.9368 40.7327 71.8601 40.4033 71.8103 40.0779C71.7605 39.7524 71.7414 39.4307 71.6724 39.2163C71.3468 39.4307 70.8756 39.7064 70.3891 39.94C68.9295 40.6293 67.3167 40.8973 65.7307 41.3185C63.3287 41.958 60.9919 42.8349 58.701 43.796C55.1383 45.2894 51.8859 47.583 52.9279 52.0249C54.5407 50.5238 56.3182 49.3827 58.1954 48.4599C60.0725 47.5371 62.0531 46.8249 64.0681 46.1777V46.1739Z" fill="currentColor"/>
<path d="M78.6121 37.8534C80.0449 39.745 82.8146 40.5108 84.8488 41.5562C87.2469 42.7853 89.7409 44.16 92.4799 44.3936C93.4377 44.474 94.2613 44.2864 94.8934 43.7618C95.6711 43.287 97.0004 42.0348 95.6596 41.0086C93.4185 39.5842 81.2324 36.0498 78.8381 34.7671C74.8042 33.0018 71.5058 29.8466 67.652 28.0967C67.5792 28.1043 67.5064 28.112 67.4336 28.1197C67.7439 29.031 78.1639 37.2599 78.6121 37.8534Z" fill="currentColor"/>
<path d="M83.5419 44.0834C80.6151 43.6047 78.1595 41.9391 75.566 42.4675C74.9837 42.7202 74.5891 43.2716 74.1217 43.9532C73.9723 44.2863 73.8574 44.6042 73.7195 44.9067C73.5816 45.2053 73.4207 45.4849 73.3594 45.7031C73.7501 45.7031 74.2941 45.7338 74.8266 45.8065C76.4241 46.0363 77.9181 46.6987 79.4735 47.2233C81.8295 48.0159 84.2621 48.5712 86.7062 49.0345C90.5026 49.7544 94.4829 49.6318 96.065 45.3508C93.8891 45.7146 91.7783 45.684 89.7019 45.4198C87.6256 45.1556 85.5837 44.6578 83.5457 44.0872L83.5419 44.0834Z" fill="currentColor"/>
<path d="M115.795 48.5252C114.098 46.8672 111.244 46.5188 109.079 45.7874C106.524 44.9258 103.854 43.9379 101.111 44.1102C100.15 44.1715 99.3643 44.4816 98.8204 45.0905C98.1231 45.6763 96.993 47.1123 98.4679 47.9279C100.897 49.0039 113.47 50.6925 116.029 51.6077C120.281 52.7565 124.008 55.3909 128.081 56.5473C128.153 56.5282 128.222 56.5129 128.295 56.4937C127.855 55.6398 116.328 49.046 115.795 48.5214V48.5252Z" fill="currentColor"/>
<path d="M109.995 43.0956C112.96 43.1339 115.638 44.4205 118.12 43.5129C118.656 43.176 118.967 42.5748 119.327 41.8281C119.423 41.4758 119.492 41.1427 119.584 40.8287C119.676 40.5109 119.794 40.2122 119.821 39.9901C119.434 40.0476 118.89 40.1012 118.354 40.105C116.737 40.1165 115.167 39.68 113.55 39.3928C111.102 38.9601 108.612 38.7686 106.129 38.6729C102.268 38.5235 98.3528 39.2358 97.4219 43.7006C99.5212 43.019 101.613 42.7356 103.705 42.6897C105.796 42.6437 107.892 42.8314 109.991 43.0956H109.995Z" fill="currentColor"/>
<path d="M124.089 40.621C125.139 42.7538 127.729 44.0442 129.541 45.461C131.674 47.1305 133.873 48.9647 136.536 49.7229C137.467 49.9871 138.317 49.9641 139.041 49.5697C139.899 49.2519 141.455 48.2793 140.332 47.0157C138.39 45.1853 127.031 39.3573 124.913 37.6342C121.266 35.1223 118.615 31.385 115.144 28.9229C115.071 28.9152 114.995 28.9076 114.922 28.8999C115.052 29.8534 123.764 39.947 124.093 40.6171L124.089 40.621Z" fill="currentColor"/>
<path d="M127.761 47.6934C124.96 46.6557 122.853 44.5458 120.191 44.5611C119.566 44.6951 119.072 45.1623 118.479 45.7405C118.268 46.0392 118.092 46.3302 117.896 46.5944C117.701 46.8624 117.49 47.1037 117.387 47.3028C117.774 47.3794 118.306 47.5134 118.819 47.6895C120.356 48.2218 121.7 49.1638 123.141 49.9794C125.317 51.2124 127.615 52.2309 129.937 53.1538C133.549 54.5935 137.507 55.2445 139.897 51.3541C137.675 51.289 135.595 50.8524 133.595 50.19C131.595 49.5275 129.672 48.6468 127.768 47.6895L127.761 47.6934Z" fill="currentColor"/>
<path d="M158.773 58.3002C157.417 56.3435 154.663 55.4513 152.663 54.3141C150.307 52.9739 147.855 51.4882 145.112 51.1282C144.151 51.0019 143.316 51.1512 142.657 51.6451C141.852 52.0855 140.462 53.2764 141.764 54.3639C143.956 55.8879 156.057 59.9812 158.409 61.375C162.39 63.3241 165.569 66.6325 169.37 68.5547C169.442 68.5547 169.519 68.5471 169.592 68.5432C169.32 67.6166 159.202 58.9167 158.773 58.3002Z" fill="currentColor"/>
<path d="M154.089 51.8442C157.012 52.4569 159.41 54.2336 162.038 53.8277C162.632 53.6018 163.053 53.0696 163.555 52.4071C163.72 52.0778 163.85 51.7677 164.004 51.4766C164.157 51.1856 164.329 50.9099 164.402 50.6993C164.007 50.6802 163.463 50.6266 162.931 50.527C161.333 50.2245 159.862 49.4931 158.319 48.8996C155.982 47.9998 153.561 47.3297 151.124 46.7591C147.339 45.8669 143.328 45.8057 141.547 50.0062C143.75 49.742 145.872 49.8684 147.952 50.2283C150.028 50.5883 152.063 51.178 154.089 51.8442Z" fill="currentColor"/>
<path d="M165.912 49.7238C167.632 51.3589 170.49 51.6614 172.67 52.3583C175.236 53.1816 177.922 54.1312 180.661 53.9168C181.618 53.8402 182.404 53.5224 182.936 52.902C183.626 52.3047 184.733 50.8534 183.243 50.057C180.799 49.0193 168.199 47.5182 165.628 46.6414C161.361 45.5577 157.591 42.9807 153.504 41.8817C153.431 41.9009 153.362 41.92 153.289 41.9392C153.741 42.7892 165.364 49.2069 165.908 49.7238H165.912Z" fill="currentColor"/>
<path d="M171.792 55.0693C168.827 55.0732 166.13 53.8287 163.659 54.7745C163.126 55.1191 162.828 55.7279 162.475 56.4785C162.383 56.8346 162.318 57.1639 162.234 57.4817C162.146 57.7995 162.035 58.102 162.008 58.3241C162.395 58.2628 162.935 58.2016 163.475 58.1901C165.092 58.1556 166.67 58.5692 168.29 58.8296C170.746 59.2278 173.236 59.381 175.719 59.4384C179.58 59.5303 183.488 58.7606 184.35 54.2805C182.262 54.9927 180.174 55.3067 178.082 55.3871C175.991 55.4637 173.895 55.3067 171.788 55.0732L171.792 55.0693Z" fill="currentColor"/>
<path d="M204.337 54.2001C202.391 52.8408 199.521 52.9633 197.261 52.5957C194.602 52.163 191.802 51.6231 189.128 52.2396C188.189 52.4578 187.465 52.8905 187.029 53.5798C186.435 54.2729 185.558 55.8734 187.147 56.4363C189.718 57.1026 202.402 56.7197 205.072 57.206C209.455 57.6463 213.561 59.6375 217.768 60.1162C217.837 60.0855 217.902 60.0587 217.971 60.0281C217.396 59.2546 204.95 54.629 204.337 54.2001Z" fill="currentColor"/>
<path d="M197.727 49.7851C200.657 49.3409 203.508 50.1719 205.814 48.8738C206.289 48.4564 206.496 47.8093 206.729 47.0167C206.768 46.6529 206.783 46.3159 206.821 45.9866C206.86 45.6611 206.929 45.3433 206.921 45.1212C206.549 45.2399 206.021 45.3816 205.492 45.4735C203.898 45.7492 202.278 45.5731 200.634 45.5539C198.148 45.5233 195.662 45.7415 193.199 46.0555C189.368 46.538 185.617 47.8782 185.426 52.4349C187.383 51.4202 189.402 50.7999 191.459 50.4131C193.517 50.0264 195.612 49.8732 197.731 49.789L197.727 49.7851Z" fill="currentColor"/>
<path d="M207.077 44.0401C209.207 45.0893 212.026 44.5303 214.313 44.5456C217.007 44.5686 219.857 44.6758 222.404 43.6572C223.297 43.3011 223.948 42.7612 224.278 42.0107C224.756 41.2372 225.381 39.5217 223.726 39.2039C221.083 38.9397 208.609 41.2525 205.893 41.1797C201.495 41.4133 197.132 40.0731 192.903 40.2416C192.841 40.2799 192.776 40.3182 192.715 40.3603C193.401 41.0342 206.406 43.7108 207.077 44.0401Z" fill="currentColor"/>
<path d="M214.283 47.3907C211.455 48.2752 208.509 47.8923 206.429 49.5235C206.023 50.0098 205.92 50.6799 205.809 51.4993C205.828 51.8669 205.866 52.2001 205.874 52.5294C205.885 52.8587 205.866 53.1803 205.908 53.4024C206.257 53.2263 206.759 53.008 207.268 52.8357C208.801 52.3226 210.432 52.246 212.057 52.0163C214.52 51.664 216.941 51.0705 219.332 50.3889C223.044 49.3282 226.549 47.4328 226.04 42.899C224.258 44.201 222.358 45.12 220.385 45.8169C218.412 46.5138 216.363 46.9848 214.283 47.3907Z" fill="currentColor"/>
<path d="M245.096 36.8835C242.836 36.1636 240.131 37.1324 237.863 37.4541C235.197 37.8331 232.362 38.1471 229.991 39.5333C229.159 40.0196 228.596 40.6476 228.386 41.4364C228.026 42.275 227.662 44.0632 229.347 44.1283C231.998 43.9981 243.997 39.8626 246.69 39.5333C251.003 38.6488 255.52 39.3303 259.676 38.5339C259.734 38.4841 259.787 38.4382 259.845 38.3884C259.067 37.8217 245.805 37.1056 245.096 36.8797V36.8835Z" fill="currentColor"/>
<path d="M237.471 34.6357C240.137 33.3415 243.106 33.2841 244.918 31.3618C245.248 30.8219 245.252 30.1441 245.24 29.3132C245.167 28.9533 245.079 28.6278 245.022 28.3023C244.96 27.9768 244.93 27.659 244.857 27.4446C244.539 27.6705 244.075 27.9615 243.597 28.2066C242.156 28.9418 240.555 29.2596 238.984 29.7268C236.601 30.439 234.291 31.3848 232.031 32.4148C228.514 34.0154 225.335 36.4086 226.511 40.816C228.078 39.2652 229.821 38.0743 231.667 37.0902C233.518 36.11 235.471 35.3365 237.467 34.6319L237.471 34.6357Z" fill="currentColor"/>
</svg>
