<svg width="279" height="97" viewBox="0 0 279 97" fill="none" xmlns="http://www.w3.org/2000/svg">
<path d="M137.065 50.5119C135.448 49.5307 134.743 49.5307 135.169 50.8925C132.182 49.5222 130.328 49.5222 128.366 51.6877C125.724 49.5222 122.975 49.5222 118.215 50.6726C116.836 49.5222 113.447 49.5222 109.869 49.5222C106.734 49.5222 103.46 49.5222 101.548 50.6895C96.7716 49.5222 93.3741 49.5222 90.9122 56.061C89.4843 53.8786 88.1548 52.4236 86.809 51.5523C85.4631 50.6811 84.1091 50.385 82.755 50.4358C81.1138 50.6726 79.4807 51.2563 78.7257 51.1294C77.1911 50.8164 76.1981 50.1651 75.7386 48.5325C73.6952 49.5222 72.177 49.5222 71.7831 48.1518C69.0668 49.7844 67.0398 49.6491 64.545 48.2872C63.4043 50.2412 61.8041 50.9602 59.2355 51.4593C59.5884 51.6792 58.8334 51.1379 57.5778 50.3343C57.389 50.385 56.6915 50.1651 55.8544 49.9874C54.6235 49.9451 53.2776 50.3681 52.0221 51.0956C51.3081 49.5222 50.3562 49.5222 50.2249 49.8859C50.3562 49.5222 50.3562 48.0419 49.6094 48.6594C50.3562 48.0334 51.0619 48.0334 50.9963 49.556C52.1862 48.8793 53.3679 48.4564 54.3773 48.634C55.3867 48.8116 56.2402 49.5899 56.6094 50.8672C58.5461 49.5899 59.9987 48.8116 61.0901 47.8642C63.3059 48.5325 65.1605 49.04 67.1629 48.1011C67.4583 49.04 67.844 48.5325 68.4595 46.7815C69.2473 48.2364 70.2649 48.431 71.8569 47.2213C72.0457 48.2449 73.449 48.4564 75.2134 47.6866C75.4021 48.744 76.1817 48.6255 77.4619 47.8219C77.6917 48.4902 78.4138 48.4902 79.4479 48.1857C80.4819 48.727 81.7128 49.2261 82.9028 50.2581C83.8793 51.4339 84.8066 53.1257 85.6191 55.6634C87.3588 53.1342 88.9919 51.4339 90.6086 50.385C93.8501 48.2787 97.0506 48.7609 101.449 50.2074C100.596 48.0419 102.5 48.0419 104.42 48.0672C106.242 48.0419 108.08 48.0419 109.869 48.0419C113.447 48.0419 116.836 48.0419 117.969 48.9639C122.975 48.0419 125.724 48.0419 128.424 49.8183C130.328 48.0419 132.182 48.0419 135.424 49.1415C134.743 48.0419 135.44 48.0419 137.303 48.8286C135.448 48.0419 135.448 49.5222 137.065 50.5034V50.5119Z" fill="currentColor"/>
<path d="M136.037 52.5843C134.708 51.3747 135.791 50.7234 138.196 50.8333C137.966 49.4376 139.049 48.7863 140.075 49.1585C139.049 48.7947 137.966 48.1434 138.565 48.0165C135.799 46.8576 134.708 46.2147 136.85 46.68C134.708 46.2063 134.708 47.5005 136.522 49.8183C134.708 50.0805 134.708 51.3747 136.037 52.5843Z" fill="currentColor"/>
<path d="M198.874 50.5119C197.257 49.5307 196.551 49.5307 196.978 50.8925C193.991 49.5222 192.136 49.5222 190.175 51.6877C187.532 49.5222 184.783 49.5222 180.023 50.6726C178.645 49.5222 175.256 49.5222 171.678 49.5222C168.543 49.5222 165.268 49.5222 163.356 50.6895C158.58 49.5222 155.183 49.5222 152.721 56.061C151.293 53.8786 149.963 52.4236 148.618 51.5523C147.272 50.6811 145.918 50.385 144.564 50.4358C142.922 50.6726 141.289 51.2563 140.534 51.1294C139 50.8164 138.007 50.1651 137.547 48.5325C135.504 49.5222 133.986 49.5222 133.592 48.1518C130.875 49.7844 128.848 49.6491 126.354 48.2872C125.213 50.2412 123.613 50.9602 121.044 51.4593C121.397 51.6792 120.642 51.1379 119.386 50.3343C119.198 50.385 118.5 50.1651 117.663 49.9874C116.432 49.9451 115.086 50.3681 113.831 51.0956C113.117 49.5222 112.165 49.5222 112.033 49.8859C112.165 49.5222 112.165 48.0419 111.418 48.6594C112.165 48.0334 112.87 48.0334 112.805 49.556C113.995 48.8793 115.177 48.4564 116.186 48.634C117.195 48.8116 118.049 49.5899 118.418 50.8672C120.355 49.5899 121.807 48.8116 122.899 47.8642C125.114 48.5325 126.969 49.04 128.971 48.1011C129.267 49.04 129.653 48.5325 130.268 46.7815C131.056 48.2364 132.073 48.431 133.666 47.2213C133.854 48.2449 135.258 48.4564 137.022 47.6866C137.211 48.744 137.99 48.6255 139.27 47.8219C139.5 48.4902 140.222 48.4902 141.256 48.1857C142.29 48.727 143.521 49.2261 144.711 50.2581C145.688 51.4339 146.615 53.1257 147.428 55.6634C149.167 53.1342 150.8 51.4339 152.417 50.385C155.659 48.2787 158.859 48.7609 163.258 50.2074C162.404 48.0419 164.308 48.0419 166.229 48.0672C168.05 48.0419 169.889 48.0419 171.678 48.0419C175.256 48.0419 178.645 48.0419 179.777 48.9639C184.783 48.0419 187.532 48.0419 190.232 49.8183C192.136 48.0419 193.991 48.0419 197.232 49.1415C196.551 48.0419 197.249 48.0419 199.112 48.8286C197.257 48.0419 197.257 49.5222 198.874 50.5034V50.5119Z" fill="currentColor"/>
<path d="M197.846 52.5843C196.516 51.3747 197.6 50.7234 200.004 50.8333C199.774 49.4376 200.858 48.7863 201.883 49.1585C200.858 48.7947 199.774 48.1434 200.373 48.0165C197.608 46.8576 196.516 46.2147 198.658 46.68C196.516 46.2063 196.516 47.5005 198.33 49.8183C196.516 50.0805 196.516 51.3747 197.846 52.5843Z" fill="currentColor"/>
<path d="M112.583 45.9098C111.557 46.1128 110.86 46.1129 112.058 45.5461C108.299 46.1044 106.445 46.1044 110.688 43.609C101.833 46.1128 99.0837 46.1128 95.2185 34.8032C93.7085 42.3401 91.6979 44.8525 88.0215 45.2669C86.1832 45.47 83.9265 45.157 81.7764 44.4549C81.7518 45.3854 81.1363 45.7491 81.1117 45.6138C78.6169 46.1044 76.713 46.1044 77.6239 44.9878C75.4 45.36 73.4879 45.6053 71.6825 45.6984C68.0717 45.8845 64.904 45.4361 60.5957 44.0996C59.9884 45.0978 58.741 45.6053 57.149 45.8422C55.5569 46.079 53.612 46.0621 51.9133 45.8422C50.0258 46.0621 48.3927 46.0875 48.3435 44.641C45.1348 46.1044 43.5263 46.1044 43.6084 42.8984C38.9144 46.1044 36.1652 46.1044 32.2836 42.8392C31.5614 46.1044 29.7068 46.1044 26.9494 44.8102C27.1546 46.1044 26.4488 46.1044 25.4805 45.4023C26.457 46.1044 26.457 44.6241 25.8333 44.0996C26.4488 44.6241 27.1546 44.6241 27.3926 43.5498C29.715 44.6241 31.5614 44.6241 32.7103 41.7988C36.1652 44.6241 38.9144 44.6241 43.1735 41.8495C43.5181 44.6156 45.1348 44.6156 47.8922 43.3975C48.4174 44.5987 50.0751 44.5733 51.8066 44.4633C53.6613 44.5733 55.5733 44.5987 57.2064 44.2942C58.8395 43.9896 60.1771 43.3468 60.9732 42.0695C63.0001 42.9238 64.7809 43.4906 66.4961 43.812C68.2112 44.1334 69.8525 44.218 71.543 44.3026C73.3238 43.9643 75.162 43.6428 77.3942 44.015C76.9839 43.8881 77.3203 44.2519 78.0425 44.4972C78.7154 44.4718 79.7822 44.3195 80.9558 44.0235C81.2676 44.1504 82.039 43.6767 82.1128 42.9238C83.1386 42.9915 84.2547 43.2791 85.2969 43.4652C86.3392 43.6513 87.3157 43.7274 88.1938 43.6767C91.7225 43.4567 93.7988 41.122 95.5057 34.1265C99.0755 44.6241 101.825 44.6241 109.793 41.3927C106.428 44.6241 108.283 44.6241 111.689 43.9051C110.843 44.6241 111.549 44.6241 112.329 44.3957C111.549 44.6241 111.549 46.1044 112.567 45.9014L112.583 45.9098Z" fill="currentColor"/>
<path d="M112.584 47.8131C110.828 47.9569 111.911 47.3056 113.224 46.6288C114.077 46.0198 115.161 45.3685 115.161 45.3685C115.161 45.3685 114.077 44.7256 113.027 44.0658C111.903 43.4314 110.819 42.7885 111.632 42.4332C110.819 42.7885 110.819 44.0742 112.231 45.0047C110.819 46.6627 110.819 47.9485 112.576 47.8131H112.584Z" fill="currentColor"/>
<path d="M141.769 47.2317C140.907 47.7223 140.095 47.8661 140.636 47.6546C137.444 48.0184 135.606 48.0184 136.96 47.164C129.73 48.0184 125.668 48.0184 118.413 47.0625C117.995 47.5447 116.78 47.7815 115.172 47.8999C113.563 48.0184 111.561 48.0184 110.822 47.274C105.587 48.0268 101.656 48.0268 97.6676 43.6535C93.9665 48.0268 90.2079 48.0268 85.3005 47.2571C84.127 47.6462 82.6663 47.8323 81.0742 47.9338C79.4904 48.0268 77.7752 48.0268 76.1093 48.0268C75.1082 48.0268 74.1234 48.0268 73.155 47.9592C72.1785 47.9761 71.2183 47.9169 70.2828 47.7392C69.3391 47.9169 68.4199 47.9676 67.509 47.9338C66.6145 48.0268 65.7282 48.0268 64.8502 47.993C63.9967 48.0268 63.1432 48.0268 62.3226 48.0268C61.4937 48.0268 60.6977 48.0268 59.9181 48.0184C58.3671 48.0014 56.9146 47.9761 55.5933 47.9253C53.4843 48.0014 51.646 48.0184 50.7433 47.0794C50.5054 49.5071 52.8278 49.4987 55.8395 49.2788C57.0294 49.3887 58.4163 49.4479 59.9427 49.4733C60.7059 49.4902 61.5019 49.4987 62.2733 49.3718C63.1022 49.3887 63.9146 49.2788 64.6696 48.9066C65.6462 49.2703 66.5735 49.3887 67.4762 48.9912C68.4199 49.2618 69.3473 49.0165 70.2992 48.399C71.2265 49.0165 72.1785 49.2618 73.2043 49.1688C74.148 49.4141 75.1656 49.3295 76.2571 49.118C77.0038 49.338 77.8245 49.4141 78.6369 49.4395C79.4493 49.4733 80.2618 49.4479 81.0332 49.3972C82.576 49.3041 83.9465 49.1096 84.9394 48.7205C90.2079 49.4987 93.9665 49.4987 97.6265 44.9816C101.656 49.4987 105.587 49.4987 111.184 48.7458C111.561 49.4987 113.572 49.4987 115.164 49.4818C116.756 49.4649 117.946 49.431 118.298 49.3633C125.676 49.4987 129.738 49.4987 137.091 49.3803C135.614 49.4987 137.46 49.4987 140.71 49.4479C140.07 49.4818 140.841 49.4564 141.785 49.3887C144.469 49.4564 147.325 49.4818 148.391 49.2026C149.343 48.9489 148.884 48.4667 146.528 47.5362C145.002 47.7308 143.131 47.587 141.785 47.2317H141.769Z" fill="currentColor"/>
<path d="M146.512 47.5362C146.651 47.5193 146.799 47.5024 146.938 47.477C147.004 47.4685 147.062 47.4516 147.119 47.4347C146.602 47.3501 146.077 47.2571 145.535 47.164C145.896 47.2909 146.216 47.4178 146.52 47.5362H146.512Z" fill="currentColor"/>
<path d="M211.818 48.7797C213.377 49.118 214.165 49.2703 214.156 49.2618C214.148 49.2618 213.582 49.135 212.499 48.9066C212.253 48.8643 211.99 48.8135 211.711 48.7543C211.744 48.7628 211.777 48.7712 211.809 48.7797H211.818Z" fill="currentColor"/>
<path d="M232.318 47.477C232.318 47.477 232.343 47.4601 232.359 47.4601C232.047 47.5954 232.031 47.6039 232.318 47.477Z" fill="currentColor"/>
<path d="M214.902 47.5277C214.992 47.5362 215.066 47.5362 215.115 47.5277C214.869 47.4347 214.615 47.3501 214.344 47.2486C214.541 47.3501 214.721 47.4347 214.902 47.5277Z" fill="currentColor"/>
<path d="M213.672 47.7054C213.319 47.8238 211.891 47.68 209.609 47.2994C210.758 48.0099 209.831 48.0184 208.608 47.587C209.092 48.0184 208.674 48.0184 208.075 47.6208C207.082 48.0184 205.908 48.0184 205.662 47.2148C202.979 48.0184 201.255 48.0184 200.582 46.1743C197.275 48.0184 195.018 48.0184 191.678 45.8782C190.053 48.0184 187.345 48.0184 183.373 47.4093C181.535 48.0184 178.433 48.0184 175.175 48.0184C172.122 48.0184 168.93 48.0184 171.712 46.8849C162.324 48.0184 158.91 48.0184 149.752 38.1213C151.18 44.584 150.138 46.8256 147.109 47.4347C159.206 49.4987 162.726 49.4902 171.942 49.338C168.938 49.4987 172.131 49.4987 175.183 49.4987C178.441 49.4987 181.543 49.4987 183.16 48.9404C187.354 49.4987 190.07 49.4987 191.514 47.5531C195.027 49.4987 197.283 49.4987 200.845 47.8407C201.263 49.4987 202.987 49.4987 205.916 48.7712C205.916 49.4987 207.09 49.4987 208.19 49.1265C208.674 49.4987 209.092 49.4987 208.674 49.1265C209.831 49.4902 210.766 49.4818 209.577 48.9827C211.144 49.2788 212.539 49.3633 212.966 49.2957C213.319 49.2365 212.999 49.0757 211.817 48.7797C211.562 48.7289 211.292 48.6697 211.004 48.602C211.251 48.6528 211.489 48.7035 211.718 48.7543C211.497 48.6951 211.251 48.6359 210.972 48.5767C211.562 48.7035 212.071 48.8135 212.498 48.915C213.803 49.1603 214.697 49.2534 214.96 49.2111C215.313 49.1434 214.509 48.8051 212.063 48.1537C217.578 49.3633 218.546 49.3887 214.902 47.5277C214.369 47.477 213.138 47.1048 211.448 46.4365C213.294 47.2063 214.033 47.587 213.68 47.7054H213.672Z" fill="currentColor"/>
<path d="M50.4961 46.758C50.57 46.8764 50.6438 46.9779 50.7423 47.071C50.7587 46.9102 50.7833 46.7411 50.8244 46.555C50.7095 46.6226 50.611 46.6903 50.4961 46.758Z" fill="currentColor"/>
<path d="M230.52 47.0879C227.795 48.6612 227.795 48.6612 230.52 47.0879Z" fill="currentColor"/>
<path d="M42.2148 46.0559C42.2231 46.1743 42.2395 46.2927 42.2559 46.3858C42.2641 45.7514 42.3133 44.9478 42.3954 43.9581C42.3215 44.8378 42.2641 45.5145 42.2148 46.0559Z" fill="currentColor"/>
<path d="M42.2651 43.2729C41.9943 47.2655 41.9533 48.9319 42.2159 46.0559C42.1585 45.4638 42.1831 44.5417 42.2651 43.2729Z" fill="currentColor"/>
<path d="M45.0234 46.2504C45.1547 49.3295 46.7796 49.0757 50.4971 46.7495C50.2837 46.4027 50.1524 45.9713 50.1442 45.4045C47.2802 47.2909 45.6799 47.7984 45.0234 46.242V46.2504Z" fill="currentColor"/>
<path d="M45.0873 44.3302C44.9642 44.5756 44.8493 44.8039 44.7344 45.0239C44.7918 45.5314 44.8903 45.929 45.0298 46.2504C45.0052 45.7091 45.0298 45.0831 45.0873 44.3302Z" fill="currentColor"/>
<path d="M42.2557 46.3858C42.2146 49.1519 42.8876 48.6359 44.734 45.0239C44.6848 44.6009 44.6683 44.1103 44.6683 43.552C43.2076 46.5719 42.4772 47.5362 42.2557 46.3858Z" fill="currentColor"/>
<path d="M222.15 46.538C222.183 46.4704 222.207 46.3858 222.224 46.2843C222.191 46.1997 222.158 46.1151 222.117 46.0305C222.134 46.2081 222.142 46.3773 222.142 46.538H222.15Z" fill="currentColor"/>
<path d="M226.047 48.5851C226.047 48.5851 226.638 47.993 227.885 46.758C226.712 47.9338 226.104 48.5344 226.047 48.5851Z" fill="currentColor"/>
<path d="M230.52 47.0879C230.585 47.0456 230.643 47.0117 230.716 46.9695C230.651 47.0117 230.593 47.0456 230.52 47.0794V47.0879Z" fill="currentColor"/>
<path d="M226.843 47.7815C226.843 47.7815 226.818 47.8069 226.802 47.8238C226.268 48.3652 226.014 48.619 226.055 48.5851C226.063 48.5767 226.334 48.306 226.851 47.7815H226.843Z" fill="currentColor"/>
<path d="M230.52 47.0879C230.585 47.054 230.643 47.0202 230.708 46.9779C230.643 47.0202 230.585 47.0456 230.52 47.0879Z" fill="currentColor"/>
<path d="M227.887 46.758C227.887 46.758 227.952 46.7326 227.985 46.7241C228.116 46.5719 228.264 46.4027 228.42 46.2335C228.231 46.4196 228.059 46.5973 227.887 46.758Z" fill="currentColor"/>
<path d="M227.878 46.7664C227.878 46.7664 227.861 46.7664 227.853 46.7749C227.443 47.1809 227.115 47.5193 226.844 47.79C227.123 47.5193 227.467 47.1809 227.878 46.7664Z" fill="currentColor"/>
<path d="M225.957 42.9514C224.463 47.883 223.38 47.8576 223.257 42.7738C223.38 47.8576 223.38 47.9507 223.257 42.9345C223.257 47.9592 223.134 47.9592 222.247 42.9768C222.346 44.6094 222.354 45.7006 222.223 46.2843C223.47 49.4226 223.839 49.338 225.226 45.9375C224.578 49.1519 224.849 49.3803 227.499 46.8595C226.203 47.0879 225.891 45.9036 225.957 42.9514Z" fill="currentColor"/>
<path d="M219.057 43.4505C221.239 47.8661 220.509 47.8746 214.994 44.5502C218.613 47.9084 217.809 47.9338 212.508 45.8106C214.74 46.9018 215.462 47.4516 215.117 47.5193C219.139 48.9742 220.37 49.2026 219.007 47.8492C218.589 47.5447 218.08 47.164 217.456 46.7072C217.85 46.9694 218.211 47.2063 218.548 47.4178C218.252 47.1555 217.899 46.851 217.481 46.5042C218.096 46.9864 218.605 47.3839 219.015 47.7054C221.617 49.2872 222.257 49.0081 222.15 46.5296C221.806 47.3163 220.911 46.2504 219.057 43.442V43.4505Z" fill="currentColor"/>
<path d="M219.007 47.8492C220.681 49.0757 220.681 49.025 219.007 47.7054C218.859 47.6123 218.703 47.5193 218.539 47.4178C218.72 47.5785 218.867 47.7223 218.999 47.8492H219.007Z" fill="currentColor"/>
<path d="M227.582 46.8426C225.769 48.7797 225.498 49.1011 226.794 47.8238C227.073 47.5447 227.418 47.1978 227.845 46.7664C227.755 46.7918 227.664 46.8172 227.582 46.8341V46.8426Z" fill="currentColor"/>
<path d="M228.385 46.2335C228.197 46.4281 228.016 46.6057 227.844 46.7749C228.016 46.6057 228.188 46.4281 228.385 46.2335Z" fill="currentColor"/>
<path d="M227.5 46.8595C227.5 46.8595 227.557 46.8595 227.582 46.8426C227.763 46.648 227.96 46.4365 228.173 46.2081C227.927 46.445 227.705 46.6565 227.5 46.8595Z" fill="currentColor"/>
<path d="M238.095 45.506C234.722 44.4318 233.663 43.9665 227.517 40.6929C228.887 42.7653 229.987 44.0088 231.119 44.9224C231.037 44.9816 230.939 45.0493 230.857 45.1C230.323 44.8293 229.691 44.491 228.879 44.0596C229.314 44.7194 229.7 45.2184 230.069 45.616C229.215 46.1574 228.543 46.5296 227.993 46.7241C225.703 49.3633 226.278 49.2365 230.676 46.7411C226.425 49.3464 226.376 49.4902 230.528 47.0879C230.594 46.9441 230.758 46.7326 231.013 46.4619C231.324 46.6818 231.645 46.8679 231.997 47.0456C230.865 47.4262 230.373 47.4601 230.528 47.0879C226.417 49.4818 227.558 49.4479 232.432 47.4178C232.408 47.4262 232.391 47.4432 232.367 47.4516C232.441 47.4178 232.523 47.3839 232.621 47.3416C232.498 47.3924 232.391 47.4347 232.317 47.4685C229.01 49.1772 229.06 49.4226 232.531 48.5936C232.482 48.6443 232.441 48.6951 232.391 48.7374C230.89 49.1942 230.832 49.2534 232.211 48.9319C232.203 48.9404 232.186 48.9573 232.178 48.9658C231.51 49.135 231.51 49.135 232.178 48.9658C232.178 48.9658 232.121 49.025 232.096 49.0588C231.702 49.1772 231.669 49.2111 232.014 49.1519C230.972 50.2854 230.34 51.089 229.265 52.3155C230.077 51.605 232.063 50.7422 233.918 50.0485C231.677 52.4593 230.438 54.0412 228.255 56.5535C230.036 55.0055 234.73 53.0599 238.645 51.6727C239.564 50.1839 258.562 48.7458 258.562 48.7458C258.562 48.7458 239.564 47.3078 238.095 45.4976V45.506ZM231.136 45.2438C231.136 45.2438 231.119 45.2354 231.111 45.2269C231.177 45.1761 231.242 45.1254 231.316 45.0662C231.316 45.0662 231.333 45.0746 231.341 45.0831C231.275 45.1339 231.201 45.1846 231.144 45.2354L231.136 45.2438ZM231.349 45.1C231.423 45.1592 231.505 45.2184 231.579 45.2777C231.521 45.3199 231.472 45.3538 231.423 45.3876C231.333 45.3453 231.242 45.303 231.152 45.2523C231.218 45.2015 231.283 45.1508 231.349 45.1ZM231.595 45.2861C231.686 45.3538 231.776 45.413 231.866 45.4722C231.825 45.4976 231.792 45.523 231.751 45.5483C231.653 45.4976 231.546 45.4468 231.439 45.3961C231.489 45.3622 231.538 45.3199 231.595 45.2861ZM231.973 45.5483C232.17 45.6752 232.367 45.8021 232.572 45.929C232.358 45.8359 232.137 45.7429 231.891 45.6245C231.915 45.5991 231.94 45.5822 231.965 45.5568L231.973 45.5483ZM232.974 47.5193C232.564 47.6631 232.539 47.6546 232.917 47.4939C232.933 47.5024 232.958 47.5108 232.974 47.5193ZM232.999 47.5362C232.763 47.6264 232.763 47.6264 232.999 47.5362ZM233.122 47.5954C233.122 47.5954 233.204 47.6293 233.245 47.6546C233.056 47.6885 233.015 47.6715 233.122 47.5954ZM231.16 44.9731C231.21 45.0154 231.259 45.0493 231.308 45.0831C231.242 45.1339 231.169 45.1931 231.103 45.2438C231.045 45.2184 230.988 45.1846 230.931 45.1592C231.004 45.1 231.078 45.0323 231.152 44.9731H231.16ZM230.192 45.7683C230.192 45.7683 230.258 45.8359 230.299 45.8698C230.085 46.039 229.888 46.1912 229.716 46.3266C229.888 46.1912 230.077 46.039 230.29 45.8782C230.29 45.8782 230.29 45.8782 230.299 45.8867C230.085 46.0474 229.888 46.1997 229.708 46.3266C229.191 46.7241 228.863 46.9864 228.748 47.0794C228.846 46.9948 229.174 46.7411 229.7 46.3266C228.091 47.5362 228.255 47.3586 230.176 45.7683H230.192ZM230.332 45.9121C230.381 45.9628 230.43 46.0136 230.487 46.0559C228.403 47.5193 228.362 47.4854 230.332 45.9121ZM230.512 46.0813C230.578 46.1405 230.635 46.1912 230.701 46.242C228.756 47.5193 228.641 47.477 230.512 46.0813ZM232.252 47.1894C232.252 47.1894 232.293 47.2148 232.317 47.2232C231.415 47.6123 231.39 47.6039 232.252 47.1894ZM232.342 47.2317C232.342 47.2317 232.342 47.2317 232.35 47.2317C231.77 47.4855 231.768 47.4855 232.342 47.2317ZM232.449 47.2824C232.49 47.2994 232.531 47.3247 232.58 47.3416C231.833 47.6293 231.784 47.6208 232.449 47.2824ZM232.687 47.3924C232.687 47.3924 232.752 47.4262 232.785 47.4347C232.153 47.6631 232.121 47.6462 232.687 47.3924Z" fill="currentColor"/>
<path d="M86.4553 53.541C85.8645 53.8456 85.3146 53.9301 85.6839 53.7948C83.5338 53.964 82.2947 53.9217 83.222 53.3803C78.3474 53.7863 75.6147 53.6848 70.7647 52.8728C70.4692 53.1858 69.6486 53.3126 68.5654 53.3549C67.4821 53.3972 66.1363 53.3549 65.6521 52.8305C62.1151 53.2111 59.4727 53.1181 56.8959 50.0813C54.3108 52.932 51.7915 52.8389 48.5089 52.2045C47.7129 52.4329 46.7281 52.5344 45.6531 52.5598C44.5862 52.5852 43.4373 52.5429 42.3131 52.509C41.6401 52.4837 40.9754 52.4667 40.3353 52.3906C39.6788 52.3737 39.0387 52.3145 38.415 52.1791C37.7749 52.2722 37.1595 52.2891 36.544 52.2468C35.9367 52.2891 35.3458 52.2637 34.755 52.2214C34.1805 52.2214 33.6061 52.2045 33.0563 52.1876C32.4982 52.1707 31.9648 52.1453 31.4396 52.1199C30.3974 52.0776 29.4208 52.0184 28.5345 51.9507C27.1148 51.9507 25.8839 51.9169 25.293 51.274C25.0796 52.8982 26.6388 52.9489 28.6658 52.8728C29.4618 52.9743 30.3974 53.0504 31.415 53.1012C31.9238 53.1265 32.4572 53.1519 32.9824 53.0842C33.5404 53.1181 34.0903 53.0589 34.6073 52.8305C35.2556 53.1012 35.871 53.2027 36.4865 52.9574C37.1184 53.1604 37.7421 53.0166 38.3986 52.6275C39.0059 53.0673 39.646 53.2534 40.3353 53.2111C40.9672 53.3972 41.6484 53.3719 42.3869 53.245C42.8875 53.4057 43.4291 53.4818 43.979 53.5157C44.5206 53.558 45.0704 53.558 45.5874 53.5495C46.6214 53.5241 47.5488 53.4226 48.2299 53.1858C51.7504 53.8286 54.278 53.9217 56.8384 50.9695C59.448 54.0993 62.0905 54.1924 65.8655 53.8202C66.1034 54.3362 67.4493 54.3869 68.5243 54.4123C69.5994 54.4377 70.3954 54.4461 70.6334 54.4123C75.59 54.6745 78.3146 54.776 83.263 54.8691C82.2701 54.9114 83.5092 54.9621 85.6921 55.0044C85.2654 55.0044 85.7824 55.0129 86.4143 54.9875C88.2197 55.0975 90.1318 55.1821 90.8622 55.0129C91.5105 54.8691 91.2068 54.5307 89.6476 53.854C88.6218 53.9471 87.3662 53.8117 86.4635 53.541H86.4553Z" fill="currentColor"/>
<path d="M89.6405 53.8625C89.739 53.854 89.8374 53.8456 89.9277 53.8371C89.9687 53.8371 90.0098 53.8202 90.0508 53.8117C89.7061 53.7441 89.3533 53.6679 88.9922 53.5918C89.2302 53.6848 89.4435 53.7779 89.6405 53.8625Z" fill="currentColor"/>
<path d="M133.488 56.2479C134.53 56.5101 135.055 56.637 135.047 56.6286C135.047 56.6286 134.661 56.5271 133.947 56.3494C133.783 56.3156 133.611 56.2733 133.422 56.231C133.446 56.231 133.463 56.2479 133.488 56.2479Z" fill="currentColor"/>
<path d="M147.29 55.8588C147.29 55.8588 147.307 55.8588 147.315 55.8419C147.101 55.9265 147.093 55.9265 147.29 55.8588Z" fill="currentColor"/>
<path d="M135.588 55.4781C135.645 55.4781 135.703 55.4866 135.735 55.4781C135.571 55.4105 135.407 55.3428 135.227 55.2751C135.358 55.3428 135.473 55.4105 135.596 55.4781H135.588Z" fill="currentColor"/>
<path d="M134.758 55.5627C134.52 55.6304 133.56 55.5035 132.042 55.1905C132.797 55.6981 132.173 55.6812 131.369 55.3597C131.681 55.6642 131.402 55.6558 131.016 55.3682C130.335 55.6135 129.556 55.5881 129.408 55.0383C127.586 55.512 126.429 55.4697 126.019 54.2178C123.754 55.3766 122.244 55.3259 120.044 53.8033C118.904 55.2075 117.082 55.1398 114.431 54.6407C113.184 55.0044 111.099 54.9368 108.908 54.8606C106.857 54.7845 104.715 54.7168 106.611 54.0232C100.275 54.5561 97.9856 54.48 92.0524 47.6113C92.8648 51.9846 92.118 53.4649 90.0664 53.8033C98.1415 55.4781 100.513 55.5543 106.709 55.6727C104.69 55.7065 106.832 55.7827 108.884 55.8588C111.075 55.9349 113.151 56.0111 114.251 55.6727C117.057 56.1464 118.879 56.2141 119.897 54.9368C122.219 56.324 123.729 56.3748 126.158 55.3513C126.404 56.4763 127.561 56.5186 129.547 56.0956C129.531 56.5863 130.319 56.6117 131.066 56.3917C131.386 56.6539 131.665 56.6624 131.394 56.4002C132.165 56.6709 132.789 56.6878 132.001 56.324C133.043 56.5609 133.979 56.6455 134.266 56.6116C134.504 56.5863 134.291 56.4678 133.503 56.2395C133.331 56.1972 133.158 56.1549 132.961 56.1041C133.125 56.1464 133.281 56.1887 133.437 56.2225C133.29 56.1802 133.125 56.1379 132.945 56.0787C133.339 56.1802 133.675 56.2648 133.962 56.341C134.832 56.5355 135.431 56.6201 135.604 56.5947C135.842 56.5609 135.308 56.3071 133.675 55.8165C137.352 56.7555 138.008 56.7977 135.596 55.4697C135.234 55.4189 134.422 55.1398 133.298 54.6576C134.52 55.2159 135.005 55.4951 134.767 55.5627H134.758Z" fill="currentColor"/>
<path d="M25.1445 51.0626C25.1856 51.1387 25.243 51.2148 25.3005 51.2825C25.3169 51.1725 25.3333 51.0626 25.3661 50.9357C25.2922 50.978 25.2184 51.0203 25.1445 51.0626Z" fill="currentColor"/>
<path d="M146.091 55.5543C144.225 56.5468 144.225 56.5468 146.091 55.5543Z" fill="currentColor"/>
<path d="M19.5977 50.4027C19.5977 50.4873 19.6059 50.5635 19.6223 50.6227C19.6469 50.1913 19.6961 49.6584 19.77 48.9901C19.7043 49.5822 19.6469 50.039 19.6059 50.3943L19.5977 50.4027Z" fill="currentColor"/>
<path d="M19.6961 48.5249C19.4253 51.1979 19.3597 52.3145 19.5976 50.3943C19.573 49.9967 19.6059 49.3792 19.6961 48.5249Z" fill="currentColor"/>
<path d="M21.4844 50.5973C21.509 52.6698 22.6004 52.5344 25.1526 51.0626C25.0131 50.8257 24.9393 50.5296 24.9475 50.149C22.9861 51.3502 21.8947 51.6547 21.4926 50.5888L21.4844 50.5973Z" fill="currentColor"/>
<path d="M21.5669 49.3031C21.4766 49.4638 21.3946 49.6161 21.3125 49.7599C21.3371 50.0982 21.3946 50.3689 21.4848 50.5889C21.4848 50.2251 21.5095 49.8022 21.5669 49.2946V49.3031Z" fill="currentColor"/>
<path d="M19.6223 50.6227C19.532 52.4837 19.9916 52.1538 21.3128 49.7683C21.2882 49.4807 21.2882 49.1593 21.3046 48.7786C20.2542 50.7749 19.7454 51.4094 19.6223 50.6227Z" fill="currentColor"/>
<path d="M140.477 54.9791C140.502 54.9368 140.518 54.8776 140.534 54.8099C140.51 54.7507 140.493 54.6999 140.469 54.6322C140.469 54.7507 140.469 54.8691 140.469 54.9706L140.477 54.9791Z" fill="currentColor"/>
<path d="M143.055 56.4509C143.055 56.4509 143.465 56.0703 144.327 55.2667C143.514 56.028 143.088 56.4171 143.055 56.4509Z" fill="currentColor"/>
<path d="M144.681 54.9368C144.558 55.0552 144.435 55.1652 144.328 55.2667C144.443 55.1652 144.558 55.0552 144.681 54.9368Z" fill="currentColor"/>
<path d="M146.09 55.5543C146.139 55.5289 146.172 55.5035 146.221 55.4781C146.172 55.5035 146.131 55.5204 146.09 55.5458V55.5543Z" fill="currentColor"/>
<path d="M143.604 55.9349C143.604 55.9349 143.588 55.9518 143.572 55.9603C143.202 56.3071 143.022 56.4763 143.055 56.4509C143.055 56.4509 143.243 56.2648 143.604 55.9349Z" fill="currentColor"/>
<path d="M146.098 55.5543C146.139 55.5289 146.18 55.512 146.229 55.4866C146.18 55.512 146.147 55.5289 146.098 55.5543Z" fill="currentColor"/>
<path d="M144.328 55.2667C144.328 55.2667 144.369 55.2498 144.394 55.2498C144.492 55.1482 144.591 55.0383 144.697 54.9283C144.566 55.0467 144.443 55.1652 144.328 55.2667Z" fill="currentColor"/>
<path d="M144.327 55.2667H144.311C144.032 55.5289 143.802 55.7488 143.613 55.9265C143.81 55.7488 144.04 55.5289 144.335 55.2667H144.327Z" fill="currentColor"/>
<path d="M143.12 52.6613C142.004 55.9349 141.282 55.9011 141.314 52.4837C141.282 55.9011 141.282 55.9688 141.314 52.5852C141.208 55.9603 141.117 55.9603 140.633 52.5852C140.666 53.6848 140.65 54.4123 140.543 54.8014C141.314 56.9416 141.561 56.8908 142.57 54.6407C142.061 56.7808 142.242 56.9416 144.08 55.3174C143.21 55.4359 143.021 54.6322 143.128 52.6528L143.12 52.6613Z" fill="currentColor"/>
<path d="M138.468 52.8305C139.838 55.8503 139.346 55.8419 135.71 53.4734C138.066 55.8165 137.524 55.8165 134.012 54.2601C135.489 55.0467 135.957 55.4274 135.727 55.4697C138.394 56.544 139.215 56.7216 138.336 55.7827C138.066 55.5712 137.729 55.3005 137.319 54.9791C137.582 55.1652 137.811 55.3343 138.033 55.4781C137.844 55.292 137.606 55.0806 137.335 54.8437C137.737 55.1821 138.066 55.4612 138.336 55.6896C140.043 56.8147 140.487 56.6455 140.47 54.9791C140.224 55.4951 139.641 54.7676 138.46 52.8305H138.468Z" fill="currentColor"/>
<path d="M138.343 55.7911C139.442 56.6539 139.442 56.6201 138.343 55.6981C138.244 55.6304 138.146 55.5627 138.039 55.4951C138.154 55.605 138.252 55.7065 138.343 55.7996V55.7911Z" fill="currentColor"/>
<path d="M144.128 55.3174C142.872 56.5778 142.675 56.7808 143.578 55.9603C143.767 55.7827 144.013 55.5543 144.309 55.2751C144.243 55.292 144.185 55.309 144.128 55.3174Z" fill="currentColor"/>
<path d="M144.678 54.9283C144.547 55.0552 144.424 55.1736 144.301 55.2836C144.416 55.1736 144.539 55.0552 144.678 54.9283Z" fill="currentColor"/>
<path d="M144.074 55.3259C144.074 55.3259 144.107 55.3259 144.132 55.3259C144.263 55.199 144.394 55.0637 144.542 54.9114C144.37 55.0637 144.222 55.199 144.074 55.3343V55.3259Z" fill="currentColor"/>
<path d="M151.211 54.6661C148.971 53.8709 148.265 53.5241 144.211 51.181C145.089 52.6021 145.795 53.4734 146.533 54.1078C146.476 54.1416 146.41 54.1839 146.353 54.2178C146 54.0232 145.581 53.7779 145.048 53.4734C145.327 53.9301 145.573 54.2685 145.811 54.5477C145.228 54.8945 144.761 55.1229 144.391 55.2413C142.799 56.9585 143.185 56.8908 146.197 55.3174C143.283 56.9669 143.242 57.06 146.09 55.5458C146.139 55.4528 146.254 55.309 146.427 55.1398C146.632 55.292 146.845 55.4274 147.075 55.5543C146.303 55.7827 145.975 55.7996 146.082 55.5543C143.267 57.0684 144.038 57.0684 147.354 55.8165C147.337 55.8165 147.321 55.8334 147.305 55.8419C147.354 55.825 147.411 55.7996 147.477 55.7742C147.395 55.808 147.321 55.8334 147.272 55.8503C145.007 56.9246 145.04 57.0854 147.387 56.6116C147.354 56.6455 147.321 56.6793 147.288 56.7047C146.271 56.9754 146.23 57.0092 147.165 56.8316C147.165 56.8316 147.149 56.8485 147.141 56.857C146.686 56.9528 146.686 56.9528 147.141 56.857C147.141 56.857 147.099 56.8993 147.083 56.9162C146.812 56.9838 146.796 57.0092 147.026 56.9754C146.303 57.7113 145.86 58.2358 145.114 59.0394C145.68 58.5826 147.026 58.0497 148.289 57.6267C146.73 59.1916 145.869 60.2321 144.342 61.8647C145.573 60.8665 148.765 59.6738 151.432 58.8279C152.081 57.8467 164.883 57.3307 164.883 57.3307C164.883 57.3307 152.146 55.9096 151.203 54.6661H151.211ZM146.541 54.3277C146.541 54.3277 146.533 54.3277 146.525 54.3193C146.566 54.2854 146.615 54.2516 146.665 54.2178C146.665 54.2178 146.673 54.2178 146.681 54.2262C146.632 54.26 146.582 54.2939 146.541 54.3277ZM146.689 54.2347C146.738 54.277 146.788 54.3193 146.845 54.3616C146.804 54.3869 146.771 54.4123 146.738 54.4292C146.681 54.3954 146.623 54.37 146.558 54.3362C146.599 54.3023 146.648 54.2685 146.689 54.2347ZM146.845 54.3616C146.903 54.4039 146.96 54.4461 147.026 54.4969C147.001 54.5138 146.976 54.5307 146.944 54.5477C146.878 54.5138 146.812 54.48 146.738 54.4377C146.771 54.4123 146.804 54.3869 146.845 54.37V54.3616ZM147.091 54.5477C147.223 54.6407 147.354 54.7253 147.485 54.8183C147.346 54.7507 147.198 54.683 147.034 54.5984C147.05 54.5815 147.067 54.5646 147.091 54.5561V54.5477ZM147.723 55.8926C147.444 55.9772 147.428 55.9772 147.682 55.8757C147.699 55.8757 147.707 55.8926 147.723 55.8926ZM147.74 55.9011C147.581 55.9575 147.581 55.9575 147.74 55.9011ZM147.822 55.9434C147.822 55.9434 147.871 55.9688 147.904 55.9857C147.781 56.0026 147.748 55.9857 147.822 55.9434ZM146.566 54.1332C146.566 54.1332 146.632 54.1839 146.665 54.2093C146.615 54.2431 146.566 54.277 146.525 54.3108C146.492 54.2939 146.451 54.2685 146.41 54.2516C146.459 54.2178 146.517 54.1755 146.566 54.1332ZM145.901 54.6492C145.901 54.6492 145.942 54.6999 145.967 54.7253C145.819 54.8353 145.688 54.9283 145.565 55.0129C145.68 54.9283 145.819 54.8353 145.967 54.7253C145.819 54.8268 145.68 54.9283 145.565 55.0044C145.212 55.2582 144.982 55.4274 144.9 55.4866C144.966 55.4359 145.196 55.2751 145.557 55.0044C144.449 55.7742 144.564 55.6642 145.893 54.6407L145.901 54.6492ZM145.992 54.7507C145.992 54.7507 146.057 54.8183 146.09 54.8522C144.654 55.7911 144.629 55.7657 145.992 54.7507ZM146.115 54.8691C146.115 54.8691 146.197 54.9452 146.238 54.9791C144.9 55.7911 144.826 55.7658 146.115 54.8691ZM147.255 55.6558C147.255 55.6558 147.288 55.6727 147.296 55.6812C146.681 55.918 146.665 55.918 147.255 55.6558ZM147.313 55.6896C146.919 55.8475 146.919 55.8475 147.313 55.6896ZM147.387 55.7235C147.387 55.7235 147.444 55.7488 147.469 55.7657C146.96 55.9434 146.927 55.9349 147.387 55.7235ZM147.543 55.7996C147.543 55.7996 147.584 55.825 147.608 55.8334C147.182 55.9688 147.157 55.9603 147.543 55.7996Z" fill="currentColor"/>
<path d="M212.086 44.9028C213.637 46.5777 213.144 46.5354 211.093 45.3511C212.102 46.4339 211.561 46.3831 210.108 45.7403C211.093 46.3831 210.568 46.3831 209.09 46.104C208.582 46.3831 207.121 46.3831 205.57 46.0786C203.65 46.3831 201.721 46.3831 200.113 45.1143C197.355 46.3916 194.91 46.3916 191.89 44.8013C189.592 46.3916 186.712 46.3916 183.413 46.1378C180.622 46.3916 177.406 46.3916 174.066 46.3916C170.725 46.3916 167.254 46.3916 168.165 42.5851C162.823 45.1228 159.425 45.9686 155.552 44.0485C153.615 43.0926 151.555 41.4431 149.578 39.2607C149.102 40.8256 148.888 42.2129 148.486 43.2533C148.084 44.2938 147.485 44.9705 146.738 45.4104C145.991 45.8502 145.097 46.0448 144.17 46.0871C143.218 46.104 142.225 45.9771 141.593 46.51C139.467 46.1801 137.842 46.2816 138.236 47.1444C136.103 45.7403 134.781 46.0617 133.747 47.5674C132.951 45.6726 132.434 44.9536 131.663 46.8738C130.407 44.4799 128.659 45.1143 126.739 45.9517C125.311 45.8671 123.695 45.9771 122.012 45.8841C120.338 45.791 118.598 45.4865 116.67 45.0382C115.587 45.7149 114.085 46.0532 112.403 46.2224C110.72 46.3916 108.849 46.3916 107.577 45.7064C103.392 46.3916 99.9535 46.3916 96.5724 43.8962C93.6017 46.3916 90.6966 46.3916 87.6192 45.791C85.5348 46.3916 83.2863 46.3916 81.4316 46.3916H75.6133V44.9113H81.4316C83.2863 44.9113 85.5348 44.9113 87.9065 44.6321C90.6966 44.9113 93.6017 44.9113 96.6463 43.1433C99.9535 44.9197 103.392 44.9197 107.274 44.5729C108.849 44.9197 110.72 44.9197 112.452 44.759C114.183 44.5983 115.784 44.2769 117.072 43.6255C118.861 44.0569 120.511 44.3445 122.119 44.4376C123.727 44.5306 125.287 44.4207 126.214 45.1989C128.504 43.7016 130.169 43.0926 130.875 46.5016C132.262 43.5494 132.861 44.2346 133.542 47.2798C134.691 44.6237 135.93 44.3276 138.105 46.9245C137.933 44.8521 139.664 44.7844 142.093 45.9602C142.397 44.666 143.374 44.7421 144.563 45.072C145.245 44.6406 146.131 44.4629 146.919 44.0654C147.698 43.6593 148.379 43.0418 148.921 42.1113C149.463 41.1809 149.865 39.9289 150.333 38.3725C152.245 40.4788 154.075 41.9591 155.823 42.8134C159.327 44.5222 162.503 43.7101 167.189 41.2824C167.271 44.9197 170.734 44.9197 174.082 44.9197C177.43 44.9197 180.639 44.9197 183.585 44.8098C186.728 44.9197 189.6 44.9197 192.021 43.7186C194.918 44.9197 197.363 44.9197 199.916 43.9808C201.729 44.9197 203.65 44.9197 205.406 44.7675C207.129 44.9197 208.582 44.9197 209.353 44.7675C210.568 44.9197 211.093 44.9197 210.486 44.446C211.634 44.9197 212.209 44.9789 211.659 44.0485C213.309 45.0805 213.834 45.1312 212.742 43.6086C214.211 45.1143 214.269 46.5946 212.242 44.8436C214.203 46.6031 214.137 46.6031 212.086 44.9282V44.9028Z" fill="currentColor"/>
<path d="M210.223 48.9885C211.651 49.5806 212.824 49.5891 213.489 48.9462C214.154 48.3033 214.318 47.0091 213.735 44.979C218.511 46.7807 220.317 45.6472 218.971 41.5869C220.317 45.6472 218.462 44.5983 215.401 41.5784C214.761 42.5089 212.906 41.46 212.685 41.1809C212.906 41.46 212.955 43.634 211.577 44.6237C212.315 46.307 212.693 47.6858 212.529 48.5064C212.365 49.3269 211.659 49.5722 210.223 48.9801V48.9885Z" fill="currentColor"/>
</svg>
