<svg width="143" height="143" viewBox="0 0 143 143" fill="none" xmlns="http://www.w3.org/2000/svg">
<g clip-path="url(#clip0_675_7090)">
<path d="M108.563 109.868C108.563 89.3303 91.7459 72.6846 71.0061 72.6846C50.2663 72.6846 33.4492 89.3343 33.4492 109.868H108.567H108.563Z" fill="currentColor"/>
<path d="M33.4453 32.1931C33.4453 52.7305 50.2623 69.3762 71.0021 69.3762C91.7419 69.3762 108.559 52.7265 108.559 32.1931H33.4453Z" fill="currentColor"/>
<path d="M117.222 71.0871L76.2109 71.0392" stroke="#8D8D8E" stroke-width="1.15" stroke-miterlimit="10"/>
<path d="M65.7928 71.0272L24.7773 70.9753" stroke="#8D8D8E" stroke-width="1.15" stroke-miterlimit="10"/>
<path d="M70.8921 119.985C72.9337 119.985 74.5888 118.347 74.5888 116.325C74.5888 114.304 72.9337 112.665 70.8921 112.665C68.8504 112.665 67.1953 114.304 67.1953 116.325C67.1953 118.347 68.8504 119.985 70.8921 119.985Z" stroke="#8D8D8E" stroke-width="1.15" stroke-miterlimit="10"/>
<path d="M70.8569 121.476C72.8986 121.476 74.5537 119.837 74.5537 117.816C74.5537 115.794 72.8986 114.156 70.8569 114.156C68.8153 114.156 67.1602 115.794 67.1602 117.816C67.1602 119.837 68.8153 121.476 70.8569 121.476Z" stroke="#8D8D8E" stroke-width="1.15" stroke-miterlimit="10"/>
<path d="M71.1382 27.8427C73.1798 27.8427 74.8349 26.2041 74.8349 24.1827C74.8349 22.1614 73.1798 20.5228 71.1382 20.5228C69.0965 20.5228 67.4414 22.1614 67.4414 24.1827C67.4414 26.2041 69.0965 27.8427 71.1382 27.8427Z" stroke="#8D8D8E" stroke-width="1.15" stroke-miterlimit="10"/>
<path d="M71.1069 29.3371C73.1486 29.3371 74.8037 27.6984 74.8037 25.6771C74.8037 23.6557 73.1486 22.0171 71.1069 22.0171C69.0652 22.0171 67.4102 23.6557 67.4102 25.6771C67.4102 27.6984 69.0652 29.3371 71.1069 29.3371Z" stroke="#8D8D8E" stroke-width="1.15" stroke-miterlimit="10"/>
<path d="M70.9766 117.061L71.0411 76.4532" stroke="#8D8D8E" stroke-width="1.15" stroke-miterlimit="10"/>
<path d="M71.0586 66.1406L71.1232 25.5372" stroke="#8D8D8E" stroke-width="1.15" stroke-miterlimit="10"/>
</g>
<defs>
<clipPath id="clip0_675_7090">
<rect width="142.1" height="142.1" fill="white"/>
</clipPath>
</defs>
</svg>
