<svg width="279" height="97" viewBox="0 0 279 97" fill="none" xmlns="http://www.w3.org/2000/svg">
<path d="M233.491 61.8358H190.625C189.483 61.8358 188.624 61.2908 188.624 60.5667C188.624 59.8426 189.485 59.2975 190.625 59.2975H192.123C191.958 59.2185 191.806 59.1427 191.676 59.0733C191.034 58.7299 189.795 58.4396 188.971 58.4396H177.171C176.347 58.4396 175.108 58.7299 174.466 59.0733C174.308 59.1572 174.151 59.2314 174.001 59.2975H175.518C176.659 59.2975 177.519 59.8426 177.519 60.5667C177.519 61.2908 176.658 61.8358 175.518 61.8358H132.651C131.509 61.8358 130.65 61.2908 130.65 60.5667C130.65 59.8426 131.511 59.2975 132.651 59.2975H134.149C133.985 59.2185 133.833 59.1427 133.702 59.0733C133.06 58.7299 131.821 58.4396 130.998 58.4396H119.08C118.256 58.4396 117.017 58.7299 116.375 59.0733C116.216 59.1572 116.06 59.2314 115.909 59.2975H117.426C118.568 59.2975 119.427 59.8426 119.427 60.5667C119.427 61.2908 118.566 61.8358 117.426 61.8358H74.5594C73.4178 61.8358 72.5586 61.2908 72.5586 60.5667C72.5586 59.8426 73.4194 59.2975 74.5594 59.2975H76.0576C75.8932 59.2185 75.7412 59.1427 75.6109 59.0733C74.9688 58.7299 73.7296 58.4396 72.906 58.4396H60.988C60.1644 58.4396 58.9252 58.7299 58.2831 59.0733C58.1249 59.1572 57.9682 59.2314 57.8178 59.2975H59.3346C60.4762 59.2975 61.3354 59.8426 61.3354 60.5667C61.3354 61.2908 60.4746 61.8358 59.3346 61.8358H16.4616C15.3201 61.8358 14.4608 61.2908 14.4608 60.5667C14.4608 59.8426 15.3216 59.2975 16.4616 59.2975H18.6346C17.4527 58.7621 14.1816 57.0962 14.1816 55.0143C14.1816 52.026 18.2143 49.6844 23.3621 49.6844C25.5847 49.6844 27.5855 50.3489 27.6708 50.3763C28.3346 50.5988 29.1117 50.3553 29.3691 49.8425C29.7553 49.0732 30.4269 48.6007 30.4564 48.5814C30.6952 48.4056 30.8348 48.1734 30.8379 47.9299C30.8426 47.6864 30.7123 47.4493 30.4703 47.259C30.4037 47.2074 28.8542 45.9673 28.8542 44.3772C28.8542 42.2952 32.1253 40.6277 33.3071 40.094H31.1342C29.9926 40.094 29.1334 39.5489 29.1334 38.8248C29.1334 38.1007 29.9942 37.5572 31.1342 37.5572H43.8556C44.6792 37.5572 45.9184 37.267 46.5605 36.9235C46.7187 36.8396 46.8754 36.7654 47.0258 36.6993H45.5089C44.3674 36.6993 43.5081 36.1542 43.5081 35.4318C43.5081 34.7093 44.3689 34.1626 45.5089 34.1626H88.3758C89.5173 34.1626 90.3766 34.7077 90.3766 35.4318C90.3766 36.1558 89.5158 36.6993 88.3758 36.6993H86.8775C87.0419 36.7783 87.1939 36.8541 87.3242 36.9235C87.9663 37.267 89.2055 37.5572 90.0291 37.5572H101.829C102.653 37.5572 103.892 37.267 104.534 36.9235C104.692 36.8396 104.849 36.7654 104.999 36.6993H103.483C102.341 36.6993 101.482 36.1542 101.482 35.4318C101.482 34.7093 102.343 34.1626 103.483 34.1626H146.349C147.491 34.1626 148.35 34.7077 148.35 35.4318C148.35 36.1558 147.489 36.6993 146.349 36.6993H144.851C145.016 36.7783 145.168 36.8541 145.298 36.9235C145.94 37.267 147.179 37.5572 148.003 37.5572H159.921C160.744 37.5572 161.984 37.267 162.626 36.9235C162.784 36.8396 162.941 36.7654 163.091 36.6993H161.574C160.433 36.6993 159.573 36.1542 159.573 35.4318C159.573 34.7093 160.434 34.1626 161.574 34.1626H204.441C205.582 34.1626 206.442 34.7077 206.442 35.4318C206.442 36.1558 205.581 36.6993 204.441 36.6993H202.943C203.107 36.7783 203.259 36.8541 203.389 36.9235C204.031 37.267 205.271 37.5572 206.094 37.5572H218.012C218.836 37.5572 220.075 37.267 220.717 36.9235C220.875 36.8396 221.032 36.7654 221.183 36.6993H219.666C218.524 36.6993 217.665 36.1542 217.665 35.4318C217.665 34.7093 218.526 34.1626 219.666 34.1626H262.532C263.674 34.1626 264.533 34.7077 264.533 35.4318C264.533 36.1558 263.672 36.6993 262.532 36.6993H260.359C261.541 37.2347 264.812 38.9006 264.812 40.9825C264.812 43.9708 260.78 46.3124 255.632 46.3124C253.409 46.3124 251.409 45.648 251.323 45.6205C250.659 45.398 249.882 45.6415 249.625 46.1543C249.239 46.9236 248.566 47.3961 248.538 47.4154C248.299 47.5912 248.159 47.8234 248.156 48.0669C248.151 48.3105 248.282 48.5475 248.524 48.7378C248.59 48.7894 250.14 50.0296 250.14 51.6196C250.14 53.7016 246.87 55.3675 245.687 55.9029H247.86C249.001 55.9029 249.861 56.4479 249.861 57.172C249.861 57.8961 249 58.4412 247.86 58.4412H235.139C234.315 58.4412 233.076 58.7315 232.434 59.075C232.275 59.1588 232.119 59.233 231.968 59.2991H233.485C234.627 59.2991 235.486 59.8442 235.486 60.5683C235.486 61.2924 234.625 61.8374 233.485 61.8374L233.491 61.8358ZM190.625 60.1055C189.861 60.1055 189.399 60.4264 189.399 60.5683C189.399 60.7102 189.863 61.0311 190.625 61.0311H233.491C234.254 61.0311 234.717 60.7102 234.717 60.5683C234.717 60.4264 234.253 60.1055 233.491 60.1055H230.915C230.515 60.1055 229.91 60.1055 229.848 59.6265C229.786 59.1475 230.371 58.9814 230.755 58.8734C230.776 58.8685 231.441 58.7024 232.085 58.3589C232.843 57.9542 234.186 57.6365 235.145 57.6365H247.866C248.629 57.6365 249.091 57.3156 249.091 57.1736C249.091 57.0317 248.628 56.7108 247.866 56.7108H245.29C244.995 56.7108 244.303 56.7108 244.21 56.2028C244.117 55.6948 244.761 55.4304 245.036 55.3175C246.242 54.8224 249.372 53.192 249.372 51.6212C249.372 50.4343 248.075 49.3909 248.063 49.3813C247.627 49.0378 247.381 48.5524 247.39 48.054C247.399 47.5541 247.661 47.08 248.11 46.7526C248.122 46.7446 248.656 46.364 248.947 45.7834C249.375 44.9287 250.554 44.5126 251.571 44.8561C251.59 44.8626 253.544 45.5093 255.641 45.5093C260.198 45.5093 264.046 43.4386 264.046 40.9858C264.046 39.4166 260.916 37.7862 259.71 37.2895C259.435 37.1767 258.791 36.9138 258.884 36.4042C258.978 35.8962 259.669 35.8962 259.964 35.8962H262.54C263.303 35.8962 263.766 35.5753 263.766 35.435C263.766 35.2947 263.302 34.9722 262.54 34.9722H219.673C218.91 34.9722 218.448 35.2931 218.448 35.435C218.448 35.5769 218.912 35.8962 219.673 35.8962H222.25C222.65 35.8962 223.255 35.8962 223.317 36.3752C223.379 36.8541 222.794 37.0202 222.408 37.1283C222.388 37.1331 221.722 37.2992 221.079 37.6427C220.32 38.0475 218.977 38.3652 218.018 38.3652H206.1C205.144 38.3652 203.799 38.0475 203.04 37.6427C202.888 37.5605 202.691 37.4669 202.482 37.367C201.554 36.9202 201.131 36.7171 201.223 36.28C201.303 35.8962 201.73 35.8962 201.869 35.8962H204.446C205.209 35.8962 205.671 35.5753 205.671 35.435C205.671 35.2947 205.207 34.9722 204.446 34.9722H161.579C160.816 34.9722 160.353 35.2931 160.353 35.435C160.353 35.5769 160.817 35.8962 161.579 35.8962H164.155C164.555 35.8962 165.16 35.8962 165.222 36.3752C165.284 36.8541 164.699 37.0202 164.313 37.1283C164.293 37.1331 163.628 37.2992 162.984 37.6427C162.226 38.0475 160.882 38.3652 159.924 38.3652H148.006C147.049 38.3652 145.704 38.0475 144.946 37.6427C144.794 37.5605 144.597 37.4669 144.387 37.367C143.46 36.9202 143.036 36.7171 143.128 36.28C143.209 35.8962 143.635 35.8962 143.775 35.8962H146.351C147.114 35.8962 147.576 35.5753 147.576 35.435C147.576 35.2947 147.113 34.9722 146.351 34.9722H103.484C102.721 34.9722 102.259 35.2931 102.259 35.435C102.259 35.5769 102.723 35.8962 103.484 35.8962H106.06C106.461 35.8962 107.065 35.8962 107.127 36.3752C107.19 36.8541 106.605 37.0202 106.219 37.1283C106.198 37.1331 105.533 37.2992 104.889 37.6427C104.131 38.0475 102.788 38.3652 101.829 38.3652H90.0291C89.0722 38.3652 87.7274 38.0475 86.969 37.6427C86.817 37.5605 86.62 37.4669 86.4106 37.367C85.4831 36.9202 85.0597 36.7171 85.1512 36.28C85.2319 35.8962 85.6584 35.8962 85.798 35.8962H88.3742C89.1373 35.8962 89.5995 35.5753 89.5995 35.435C89.5995 35.2947 89.1358 34.9722 88.3742 34.9722H45.5105C44.7474 34.9722 44.2852 35.2931 44.2852 35.435C44.2852 35.5769 44.7489 35.8962 45.5105 35.8962H48.0867C48.4869 35.8962 49.0918 35.8962 49.1538 36.3752C49.2159 36.8541 48.6311 37.0202 48.2449 37.1283C48.2248 37.1331 47.5594 37.2992 46.9157 37.6427C46.1573 38.0475 44.8141 38.3652 43.8556 38.3652H31.1342C30.3711 38.3652 29.9089 38.6861 29.9089 38.8264C29.9089 38.9667 30.3726 39.2892 31.1342 39.2892H33.7104C34.0051 39.2892 34.6968 39.2892 34.7899 39.7972C34.883 40.3052 34.2393 40.5697 33.9648 40.6826C32.7581 41.1777 29.6281 42.8081 29.6281 44.3788C29.6281 45.5657 30.9248 46.6091 30.9372 46.6188C31.373 46.9623 31.6196 47.4461 31.6103 47.946C31.601 48.4459 31.3389 48.92 30.8907 49.2474C30.8783 49.2555 30.3447 49.6361 30.0531 50.2166C29.625 51.0713 28.4463 51.4874 27.4288 51.1455C27.4102 51.1391 25.4559 50.4924 23.359 50.4924C18.8021 50.4924 14.954 52.563 14.954 55.0159C14.954 56.585 18.084 58.2154 19.2907 58.7121C19.5652 58.825 20.2089 59.0879 20.1158 59.5975C20.0227 60.1055 19.331 60.1055 19.0363 60.1055H16.4601C15.697 60.1055 15.2348 60.4264 15.2348 60.5683C15.2348 60.7102 15.6985 61.0311 16.4601 61.0311H59.3269C60.09 61.0311 60.5522 60.7102 60.5522 60.5683C60.5522 60.4264 60.0884 60.1055 59.3269 60.1055H56.7507C56.3505 60.1055 55.7456 60.1055 55.6836 59.6265C55.6215 59.1475 56.2063 58.9814 56.5909 58.8734C56.6111 58.8685 57.2765 58.7024 57.9201 58.3589C58.6786 57.9542 60.0217 57.6365 60.9803 57.6365H72.8982C73.8552 57.6365 75.1999 57.9542 75.9584 58.3589C76.1104 58.4412 76.3073 58.5347 76.5167 58.6363C77.4442 59.083 77.8677 59.2862 77.7762 59.7233C77.6955 60.1071 77.269 60.1071 77.1294 60.1071H74.5532C73.7901 60.1071 73.3279 60.428 73.3279 60.5699C73.3279 60.7118 73.7916 61.0327 74.5532 61.0327H117.42C118.183 61.0327 118.645 60.7118 118.645 60.5699C118.645 60.428 118.182 60.1071 117.42 60.1071H114.844C114.444 60.1071 113.839 60.1071 113.777 59.6281C113.715 59.1491 114.299 58.983 114.686 58.875C114.706 58.8702 115.371 58.7041 116.015 58.3606C116.773 57.9558 118.116 57.6381 119.075 57.6381H130.993C131.95 57.6381 133.295 57.9558 134.053 58.3606C134.205 58.4428 134.402 58.5363 134.611 58.6379C135.539 59.0846 135.962 59.2878 135.871 59.7249C135.79 60.1087 135.364 60.1087 135.224 60.1087H132.648C131.885 60.1087 131.422 60.4296 131.422 60.5715C131.422 60.7134 131.886 61.0343 132.648 61.0343H175.515C176.278 61.0343 176.74 60.7134 176.74 60.5715C176.74 60.4296 176.276 60.1087 175.515 60.1087H172.938C172.538 60.1087 171.933 60.1087 171.871 59.6297C171.809 59.1508 172.394 58.9847 172.779 58.8766C172.799 58.8718 173.464 58.7057 174.108 58.3622C174.866 57.9574 176.209 57.6397 177.168 57.6397H188.968C189.925 57.6397 191.27 57.9574 192.028 58.3622C192.18 58.4444 192.377 58.5379 192.587 58.6395C193.514 59.0863 193.937 59.2894 193.846 59.7265C193.765 60.1103 193.339 60.1103 193.199 60.1103H190.623L190.625 60.1055ZM222.267 60.1055H201.848C201.447 60.1055 200.843 60.1055 200.781 59.6265C200.719 59.1475 201.303 58.9814 201.689 58.8734C201.71 58.8685 202.375 58.7024 203.019 58.3589C203.777 57.9542 205.12 57.6365 206.079 57.6365H218.037C218.994 57.6365 220.339 57.9542 221.097 58.3589C221.249 58.4412 221.446 58.5347 221.656 58.6363C222.583 59.083 223.007 59.2862 222.915 59.7233C222.834 60.1071 222.408 60.1071 222.268 60.1071L222.267 60.1055ZM202.907 59.2991H221.187C221.023 59.2201 220.871 59.1443 220.74 59.075C220.098 58.7315 218.859 58.4412 218.036 58.4412H206.077C205.254 58.4412 204.014 58.7315 203.372 59.075C203.214 59.1588 203.057 59.233 202.907 59.2991ZM164.291 60.1055H143.872C143.472 60.1055 142.867 60.1055 142.805 59.6265C142.743 59.1475 143.328 58.9814 143.714 58.8734C143.734 58.8685 144.4 58.7024 145.043 58.3589C145.802 57.9542 147.145 57.6365 148.104 57.6365H160.062C161.019 57.6365 162.364 57.9542 163.122 58.3589C163.274 58.4412 163.473 58.5347 163.68 58.6363C164.608 59.083 165.031 59.2862 164.94 59.7233C164.859 60.1071 164.433 60.1071 164.293 60.1071L164.291 60.1055ZM144.932 59.2991H163.212C163.049 59.2201 162.896 59.1443 162.765 59.075C162.123 58.7315 160.884 58.4412 160.06 58.4412H148.102C147.278 58.4412 146.039 58.7315 145.397 59.075C145.239 59.1588 145.082 59.233 144.932 59.2991ZM106.197 60.1055H85.7778C85.3777 60.1055 84.7728 60.1055 84.7107 59.6265C84.6487 59.1475 85.2334 58.9814 85.6196 58.8734C85.6398 58.8685 86.3052 58.7024 86.9488 58.3589C87.7073 57.9542 89.0504 57.6365 90.009 57.6365H101.967C102.924 57.6365 104.269 57.9542 105.027 58.3589C105.179 58.4412 105.378 58.5347 105.586 58.6363C106.513 59.083 106.937 59.2862 106.845 59.7233C106.765 60.1071 106.338 60.1071 106.198 60.1071L106.197 60.1055ZM86.8372 59.2991H105.117C104.954 59.2201 104.801 59.1443 104.671 59.075C104.029 58.7315 102.789 58.4412 101.966 58.4412H90.0074C89.1838 58.4412 87.9446 58.7315 87.3025 59.075C87.1443 59.1588 86.9876 59.233 86.8372 59.2991ZM48.1022 60.1055H27.6863C27.2861 60.1055 26.6812 60.1055 26.6192 59.6265C26.5571 59.1475 27.1419 58.9814 27.5281 58.8734C27.5482 58.8685 28.2136 58.7024 28.8573 58.3589C29.6157 57.9542 30.9589 57.6365 31.9174 57.6365H43.8757C44.8327 57.6365 46.1774 57.9542 46.9359 58.3589C47.0879 58.4412 47.2848 58.5347 47.4942 58.6363C48.4217 59.083 48.8452 59.2862 48.7537 59.7233C48.673 60.1071 48.2465 60.1071 48.1069 60.1071L48.1022 60.1055ZM28.7425 59.2991H47.0227C46.8583 59.2201 46.7063 59.1443 46.576 59.075C45.9339 58.7315 44.6947 58.4412 43.8711 58.4412H31.9128C31.0892 58.4412 29.8499 58.7315 29.2078 59.075C29.0496 59.1588 28.893 59.233 28.7425 59.2991ZM236.662 56.7108C235.142 56.7108 234.938 56.3963 234.873 56.2931C234.79 56.1641 234.774 56.0012 234.831 55.8593C234.98 55.4836 235.705 55.1175 236.399 55.3836C237.144 55.669 237.51 55.8867 237.442 56.2883C237.369 56.7092 236.893 56.7092 236.663 56.7092L236.662 56.7108ZM216.488 56.7108H216.219C216.018 56.7108 215.546 56.7108 215.47 56.298C215.388 55.8513 215.87 55.6287 216.663 55.3046C216.933 55.1933 217.603 54.9595 217.991 55.1804C218.13 55.2594 218.223 55.3884 218.253 55.5432C218.276 55.6626 218.267 55.8496 218.099 56.0641C217.863 56.3625 217.3 56.7124 216.488 56.7124V56.7108ZM207.596 56.7108C206.076 56.7108 205.873 56.3963 205.807 56.2931C205.724 56.1641 205.708 56.0012 205.765 55.8593C205.877 55.5771 206.17 55.4932 206.966 55.519C207.448 55.5352 207.952 55.5916 208.249 55.6642C208.441 55.711 208.894 55.8206 208.847 56.2415C208.799 56.6786 208.322 56.7108 207.599 56.7108H207.596ZM187.426 56.7108C186.697 56.7108 186.217 56.6785 186.167 56.2399C186.12 55.819 186.575 55.7077 186.769 55.661C186.856 55.64 186.959 55.6126 187.076 55.5836C188.439 55.2352 188.782 55.1917 189.01 55.3384C189.109 55.4013 189.177 55.4997 189.202 55.6142C189.227 55.7255 189.226 55.8964 189.08 56.0851C188.841 56.3963 188.238 56.7108 187.425 56.7108H187.426ZM178.783 56.7108H178.711C177.697 56.7108 177.089 56.5673 176.906 56.2818C176.821 56.1496 176.803 55.9899 176.861 55.8432C177.014 55.4513 177.756 55.074 178.466 55.3529C179.262 55.6658 179.628 55.8867 179.557 56.2899C179.482 56.7092 178.992 56.7092 178.783 56.7092V56.7108ZM158.514 56.7108H158.364C158.157 56.7108 157.675 56.7108 157.6 56.2947C157.521 55.8545 157.997 55.6287 158.731 55.3352C158.995 55.2304 159.648 55.0078 160.026 55.2207C160.163 55.2981 160.256 55.4239 160.285 55.5739C160.308 55.69 160.304 55.869 160.146 56.0706C159.897 56.3899 159.296 56.7108 158.514 56.7108ZM149.717 56.7108H149.645C148.631 56.7108 148.023 56.5673 147.84 56.2818C147.755 56.1496 147.738 55.9899 147.795 55.8432C147.908 55.5529 148.208 55.4691 149.023 55.4965C149.52 55.5126 150.041 55.5739 150.349 55.6497C150.548 55.6981 151.013 55.8142 150.965 56.2367C150.916 56.6753 150.416 56.7092 149.717 56.7092V56.7108ZM129.446 56.7108H129.336C128.64 56.7108 128.144 56.6769 128.094 56.2383C128.046 55.8142 128.517 55.6964 128.718 55.6464C128.815 55.6223 128.933 55.5916 129.065 55.5578C130.464 55.1933 130.794 55.1497 131.029 55.3013C131.128 55.3658 131.198 55.4658 131.221 55.5836C131.244 55.6981 131.241 55.8754 131.086 56.0738C130.839 56.3915 130.238 56.7108 129.446 56.7108ZM120.688 56.7108H120.617C119.602 56.7108 118.994 56.5673 118.811 56.2818C118.726 56.1496 118.709 55.9899 118.766 55.8432C118.92 55.4513 119.661 55.074 120.372 55.3529C121.167 55.6658 121.533 55.8867 121.462 56.2899C121.387 56.7092 120.897 56.7092 120.688 56.7092V56.7108ZM100.419 56.7108H100.269C100.063 56.7108 99.5803 56.7108 99.5058 56.2947C99.4267 55.8545 99.9029 55.6287 100.636 55.3352C100.9 55.2304 101.553 55.0078 101.932 55.2207C102.068 55.2981 102.161 55.4239 102.191 55.5739C102.214 55.69 102.209 55.869 102.051 56.0706C101.803 56.3899 101.201 56.7108 100.419 56.7108ZM91.622 56.7108H91.5507C90.5363 56.7108 89.9283 56.5673 89.7453 56.2818C89.66 56.1496 89.6429 55.9899 89.7003 55.8432C89.8135 55.5529 90.1129 55.4691 90.9287 55.4965C91.425 55.5126 91.9462 55.5739 92.2548 55.6497C92.4534 55.6981 92.9187 55.8142 92.8706 56.2367C92.821 56.6753 92.3215 56.7092 91.622 56.7092V56.7108ZM71.3519 56.7108H71.2418C70.5453 56.7108 70.049 56.6769 69.9994 56.2383C69.9513 55.8142 70.4228 55.6964 70.6229 55.6464C70.7206 55.6223 70.8385 55.5916 70.9703 55.5578C72.3693 55.1933 72.6997 55.1497 72.9339 55.3013C73.0347 55.3658 73.103 55.4658 73.1262 55.5836C73.1495 55.6981 73.1448 55.8754 72.9913 56.0738C72.7447 56.3915 72.1429 56.7108 71.3519 56.7108ZM62.5933 56.7108H62.522C61.5076 56.7108 60.8996 56.5673 60.7166 56.2818C60.6313 56.1496 60.6142 55.9899 60.6716 55.8432C60.8252 55.4513 61.5665 55.074 62.2769 55.3529C63.0726 55.6658 63.4386 55.8867 63.3673 56.2899C63.2928 56.7092 62.8027 56.7092 62.5933 56.7092V56.7108ZM42.3247 56.7108H42.1743C41.968 56.7108 41.4856 56.7108 41.4112 56.2947C41.3321 55.8545 41.8082 55.6287 42.5419 55.3352C42.8055 55.2304 43.4585 55.0078 43.837 55.2207C43.9734 55.2981 44.0665 55.4239 44.096 55.5739C44.1192 55.6884 44.1146 55.869 43.9564 56.0706C43.7082 56.3899 43.1064 56.7108 42.3247 56.7108ZM33.5274 56.7108H33.456C32.6573 56.7108 32.0539 56.3931 31.8104 56.077C31.66 55.8819 31.6569 55.7061 31.6801 55.5932C31.7112 55.4449 31.8027 55.3223 31.9376 55.2465C32.3098 55.0369 32.952 55.2513 33.211 55.3546C34.0067 55.6674 34.3727 55.8883 34.3013 56.2915C34.2269 56.7108 33.7368 56.7108 33.5274 56.7108ZM167.573 55.6077C166.924 55.6077 166.274 55.4981 165.653 55.2352C163.192 54.1386 161.39 52.0196 160.941 49.7022C160.898 49.5377 160.895 49.3845 160.892 49.2603C160.887 49.0636 160.878 49.0265 160.839 48.991L160.54 48.7668C160.217 48.5765 160.032 48.2927 160.031 47.9815C160.031 47.6767 160.206 47.3977 160.515 47.2139L160.808 46.9913C160.873 46.9316 160.889 46.8687 160.915 46.6623C160.93 46.5414 160.949 46.4043 160.997 46.2575L161.005 46.2366C162.208 43.1193 164.442 41.0648 167.133 40.5987C171.057 39.9198 174.798 42.3033 176.033 46.2672C176.078 46.4043 176.098 46.5365 176.115 46.6526C176.147 46.8623 176.164 46.9397 176.242 47.009L176.544 47.2348C176.867 47.4251 177.052 47.7089 177.053 48.0202C177.053 48.325 176.878 48.604 176.569 48.7878L176.275 49.0104C176.206 49.0716 176.192 49.1297 176.169 49.3361C176.155 49.4474 176.141 49.5716 176.102 49.7086C175.985 50.1183 175.879 50.4553 175.771 50.7682L175.639 51.1423C175.437 51.6325 174.631 52.4598 173.974 52.9888C173.816 53.1162 170.679 55.611 167.575 55.611L167.573 55.6077ZM160.816 47.9783C160.831 47.9976 160.864 48.0315 160.932 48.0686L160.974 48.096L161.328 48.3621C161.653 48.6443 161.663 49.0007 161.667 49.2377C161.67 49.3377 161.672 49.4232 161.692 49.4958L161.7 49.5296C162.094 51.5971 163.724 53.4984 165.953 54.4918C169.109 55.8351 173.455 52.384 173.498 52.3502C174.23 51.7599 174.815 51.0746 174.921 50.8327L175.04 50.4924C175.144 50.194 175.245 49.8715 175.358 49.478C175.378 49.4055 175.389 49.3248 175.398 49.2377C175.428 48.9926 175.468 48.6556 175.789 48.383L175.806 48.3685L176.171 48.0976C176.225 48.0669 176.253 48.0395 176.267 48.0234C176.251 48.0041 176.219 47.9702 176.15 47.9331L176.109 47.9057L175.76 47.6428C175.437 47.3719 175.386 47.03 175.347 46.78C175.333 46.6865 175.319 46.5978 175.294 46.5204C174.179 42.9339 170.801 40.781 167.259 41.3938C164.845 41.8114 162.829 43.6821 161.728 46.5252C161.706 46.5978 161.694 46.6833 161.683 46.772C161.65 47.0171 161.605 47.3525 161.292 47.6202L161.273 47.6348L160.909 47.9057C160.854 47.9363 160.827 47.9637 160.813 47.9799L160.816 47.9783ZM52.3504 55.5948C52.2636 55.5948 52.1767 55.5916 52.0899 55.5868C48.3659 55.4191 45.4531 50.594 45.3306 50.3892C44.8327 49.5522 44.3876 48.8975 44.2867 48.7975C44.203 48.7169 43.7796 48.2911 43.8292 47.8783C43.8494 47.7106 43.9409 47.5686 44.0805 47.4832C44.2433 47.3429 44.811 46.4898 45.2236 45.6738C45.3104 45.5012 47.381 41.4534 50.4458 40.4471L50.4722 40.4391C54.5219 39.4295 58.7639 42.0372 59.9287 46.2543C59.9504 46.322 59.9706 46.4027 59.9907 46.4833C60.0512 46.7204 60.0853 46.8397 60.2141 46.9478L60.5057 47.1735C60.8143 47.3622 60.988 47.6428 60.9849 47.9476C60.9818 48.2605 60.7926 48.5443 60.4669 48.733L60.1567 48.9604C60.0435 49.0555 60.014 49.1603 59.9628 49.3845C59.9426 49.4732 59.9194 49.5748 59.8853 49.6796C59.7906 49.9699 59.6635 50.3553 59.513 50.7504L59.3703 51.1245C59.1625 51.5987 58.4009 52.4631 57.7914 53.0339C57.6766 53.142 55.0306 55.5916 52.3504 55.5916V55.5948ZM44.6574 48.0186C44.6993 48.0798 44.7583 48.1524 44.8125 48.204C45.0328 48.4137 45.6377 49.3716 45.9898 49.9634C46.0177 50.0102 48.811 54.6305 52.1302 54.7804C54.5792 54.9304 57.2454 52.4614 57.2734 52.4373C57.9387 51.8148 58.5343 51.0794 58.6631 50.7988L58.7949 50.4537C58.9391 50.0763 59.0617 49.7038 59.1532 49.4216C59.1764 49.3506 59.1935 49.2764 59.2121 49.1958C59.2742 48.9265 59.3502 48.5911 59.6898 48.3169L59.7038 48.3056L60.0822 48.0315C60.1551 47.9912 60.1893 47.9573 60.2032 47.9379C60.1893 47.9218 60.1613 47.8928 60.1055 47.8605L60.0636 47.8315L59.7426 47.5832C59.3982 47.2945 59.3129 46.9574 59.2431 46.6865C59.2261 46.622 59.2106 46.5559 59.1888 46.4898C58.1528 42.7371 54.2551 40.3326 50.6692 41.218C47.9177 42.1307 45.9324 46.0076 45.9138 46.0463C45.7013 46.4672 45.0824 47.5686 44.6605 48.017L44.6574 48.0186ZM44.4667 48.1814H44.4651C44.4651 48.1814 44.4651 48.1814 44.4667 48.1814ZM44.0944 47.4735C44.0944 47.4735 44.0913 47.4751 44.0882 47.4767C44.0898 47.4767 44.0929 47.4751 44.0944 47.4735ZM225.826 55.5868H225.809C222.233 55.4174 219.357 50.6166 219.236 50.4118C218.744 49.5796 218.309 48.8733 218.223 48.7588L218.208 48.7378C218.003 48.4637 217.79 48.146 217.842 47.8347C217.865 47.6928 217.941 47.5702 218.054 47.4896C218.197 47.3558 218.755 46.522 219.247 45.6641C219.354 45.477 221.912 41.0906 225.324 40.7519C229.527 40.4165 233.217 45.4706 233.372 45.6867C233.936 46.472 234.458 47.0816 234.583 47.1735C234.588 47.1768 235.182 47.6057 235.157 48.0863C235.148 48.275 235.049 48.4346 234.887 48.5233C234.731 48.6136 234.175 49.2006 234.064 49.4796C233.968 49.7199 233.704 50.2182 233.47 50.6569C233.339 50.902 233.176 51.2084 233.15 51.2745C232.995 51.6825 231.846 52.7485 231.715 52.8678C231.594 52.9791 228.731 55.5836 225.826 55.5836V55.5868ZM218.653 47.9992C218.685 48.054 218.737 48.1315 218.82 48.2427L218.837 48.2653C218.966 48.4379 219.476 49.2764 219.897 49.9892C219.925 50.036 222.673 54.6224 225.836 54.7804C228.441 54.774 231.174 52.2921 231.202 52.2663C231.9 51.6245 232.362 51.0955 232.434 50.9697C232.472 50.873 232.567 50.6924 232.792 50.2682C233.004 49.8683 233.27 49.3684 233.349 49.17C233.496 48.8039 233.961 48.2685 234.296 47.9799C234.25 47.9266 234.196 47.875 234.151 47.8428C233.864 47.6412 233.156 46.7317 232.752 46.1705C232.716 46.1221 229.161 41.2567 225.392 41.5566C222.378 41.855 219.939 46.0366 219.914 46.0785C219.877 46.143 219.098 47.4945 218.654 48.0008L218.653 47.9992ZM218.065 47.4799C218.065 47.4799 218.06 47.4832 218.059 47.4848L218.065 47.4799ZM140.673 55.5207C137.845 55.5207 134.87 53.2952 134.731 53.1888C134.31 52.8694 133.87 52.5147 133.55 52.2566C133.405 52.1389 133.254 52.018 133.2 51.976C133.073 51.9131 132.939 51.7761 132.654 50.6617C132.539 50.2166 131.655 48.9378 131.461 48.7572C131.376 48.6943 130.853 48.2863 130.872 47.8444C130.88 47.6606 130.974 47.5041 131.129 47.4138C131.292 47.3025 132.1 46.422 132.573 45.6802C132.732 45.4319 136.508 39.5956 140.888 40.2697C144.301 40.7761 146.683 45.4109 146.782 45.6076C147.233 46.4994 147.638 47.1123 147.739 47.2042C147.925 47.3493 148.242 47.8089 148.194 48.1927C148.17 48.3766 148.065 48.5282 147.911 48.6072C147.75 48.7523 147.223 49.5683 146.816 50.4134C146.734 50.5827 144.788 54.5692 141.706 55.411L141.687 55.4158C141.355 55.4884 141.015 55.5207 140.674 55.5207H140.673ZM133.671 51.3358C133.737 51.3858 133.841 51.4697 134.025 51.6196C134.341 51.8761 134.776 52.226 135.187 52.5372C135.222 52.5647 138.776 55.2207 141.516 54.6289C144.251 53.8725 146.103 50.0908 146.121 50.0521C146.129 50.0344 146.858 48.5298 147.385 48.0202C147.351 47.9508 147.3 47.8734 147.266 47.8428C146.967 47.6106 146.37 46.5236 146.095 45.9834C146.072 45.9382 143.796 41.5163 140.775 41.068C136.88 40.4681 133.254 46.0689 133.217 46.1269C132.837 46.722 132.145 47.5541 131.731 47.9379C131.784 47.9976 131.849 48.0589 131.903 48.0976C132.179 48.2911 133.233 49.8022 133.4 50.4553C133.515 50.9052 133.62 51.2165 133.67 51.3374L133.671 51.3358ZM133.222 51.9857C133.222 51.9857 133.225 51.9857 133.226 51.9873C133.225 51.9873 133.223 51.9873 133.222 51.9857ZM131.463 48.7572C131.463 48.7572 131.469 48.762 131.471 48.7636C131.471 48.7636 131.467 48.762 131.463 48.7572ZM110.699 55.2949C109.431 55.2949 108.137 54.9901 106.96 54.387C105.012 53.3903 103.585 51.689 103.044 49.7199C103.008 49.6151 102.982 49.5151 102.958 49.4248C102.901 49.2006 102.868 49.0861 102.754 48.9894L102.448 48.7604C102.125 48.5701 101.941 48.2863 101.939 47.975C101.939 47.6702 102.115 47.3912 102.423 47.2074L102.718 46.9849C102.803 46.9107 102.819 46.8333 102.848 46.6333C102.862 46.5414 102.878 46.4365 102.906 46.3253C103.748 42.4533 107.711 39.6053 111.565 40.1069C115.135 40.6132 117.657 45.4077 117.763 45.6125C118.205 46.4656 118.603 47.1364 118.696 47.2413C119.073 47.6331 118.76 48.8604 118.106 49.549C118.081 49.5812 117.876 49.8747 117.615 50.7794L117.598 50.8262L117.445 51.1874C117.24 51.6132 116.516 52.4937 115.933 53.0984C115.894 53.1388 114.982 54.0757 113.538 54.745C112.651 55.1143 111.683 55.2965 110.701 55.2965L110.699 55.2949ZM102.724 47.975C102.74 47.9944 102.772 48.0282 102.84 48.0653L102.882 48.0928L103.228 48.3524C103.555 48.6201 103.639 48.9523 103.707 49.2184C103.729 49.3022 103.749 49.3813 103.776 49.4554L103.785 49.4861C104.263 51.2423 105.545 52.7662 107.301 53.6645C109.193 54.6321 111.411 54.7579 113.234 53.9999C114.527 53.4016 115.374 52.5356 115.383 52.526C116.024 51.8615 116.61 51.1052 116.747 50.8327L116.879 50.5214C117.203 49.4055 117.473 49.0636 117.547 48.9862C117.974 48.5427 118.092 47.9299 118.081 47.7283C117.831 47.4009 117.33 46.4753 117.08 45.9915C117.057 45.9447 114.639 41.3534 111.466 40.9035C107.99 40.4504 104.415 43.0193 103.661 46.5091L103.656 46.5301C103.638 46.5978 103.627 46.6736 103.616 46.7526C103.58 46.9994 103.531 47.338 103.2 47.6154L103.185 47.6283L102.82 47.8992C102.766 47.9299 102.738 47.9573 102.724 47.9734V47.975ZM82.3951 55.1594C79.6994 55.1594 76.9758 53.0872 76.8502 52.9888C75.7847 52.1679 75.4589 51.9422 75.3643 51.8825C75.203 51.8454 74.9983 51.6712 74.6834 50.6295C74.5547 50.2053 73.6443 48.97 73.4581 48.8072C73.4581 48.8072 72.8765 48.3798 72.9029 47.9057C72.9122 47.717 73.0114 47.559 73.1728 47.4687C73.3387 47.359 74.1623 46.4559 74.6028 45.7302C74.7145 45.548 77.3574 41.2551 80.7525 40.7503C84.6657 40.2423 88.3618 45.4819 88.5184 45.706C89.0799 46.5123 89.5576 47.1768 89.6507 47.2929C89.9268 47.6331 90.1005 47.917 90.0571 48.2089C90.0353 48.3556 89.9578 48.4814 89.8399 48.562C89.7019 48.691 89.1621 49.5022 88.6813 50.3843C88.5913 50.5488 86.4478 54.4176 83.2093 55.0917C82.9395 55.1385 82.6665 55.1594 82.3935 55.1594H82.3951ZM75.7133 51.1633C75.9072 51.2761 76.3073 51.5664 77.3124 52.3421C77.3434 52.3663 80.4765 54.7482 83.0713 54.2983C85.9469 53.7 87.988 50.0231 88.0082 49.986C88.0175 49.9699 88.7806 48.5798 89.2397 48.054C89.2055 48.0008 89.1497 47.9234 89.0613 47.8121C88.9264 47.6477 88.3618 46.851 87.8918 46.1769C87.8562 46.1269 84.3059 41.097 80.858 41.5486C77.8258 41.9985 75.2852 46.1189 75.2604 46.1592C74.8634 46.8123 74.1701 47.6364 73.7606 48.0073C73.8071 48.0605 73.863 48.1169 73.9079 48.1492C74.1794 48.3411 75.2403 49.7796 75.4248 50.386C75.5489 50.794 75.6606 51.0568 75.7149 51.1616L75.7133 51.1633ZM89.8337 48.5685L89.8291 48.5717C89.8291 48.5717 89.8322 48.5701 89.8337 48.5685ZM197.111 55.1094C194.724 55.1094 192.68 53.7612 191.293 52.505L191.036 52.2631C190.67 51.9535 190.272 50.8327 190.113 50.3424C190.113 50.3392 189.944 49.8409 189.427 48.9071L189.413 48.8781L189.326 48.6862C189.039 48.4475 188.877 48.1669 188.877 47.9025C188.877 47.7122 188.96 47.5412 189.106 47.4316C189.229 47.3187 189.801 46.5091 190.179 45.9737L190.395 45.6689C190.562 45.4335 194.541 39.9037 198.774 40.9196C201.995 41.7566 204.329 45.4835 204.427 45.6415C204.961 46.5043 205.421 47.0897 205.528 47.1751C205.531 47.1768 206.119 47.6057 206.094 48.0831C206.085 48.2718 205.986 48.4314 205.823 48.5201C205.655 48.6282 204.81 49.5216 204.346 50.2424C204.246 50.3989 201.835 54.0918 198.625 54.9256C198.108 55.0514 197.603 55.1094 197.111 55.1094ZM191.504 51.6196L191.51 51.6229L191.808 51.9035C193.337 53.2887 195.735 54.8063 198.442 54.1434C201.354 53.3871 203.678 49.8296 203.701 49.7941C204.103 49.17 204.821 48.3492 205.235 47.9799C205.189 47.9266 205.134 47.8718 205.088 47.8412C204.771 47.6186 204.089 46.5898 203.772 46.0785C203.751 46.0431 201.503 42.4613 198.591 41.7034C194.856 40.8084 191.056 46.0947 191.017 46.1479L190.801 46.4511C190.196 47.3074 189.883 47.738 189.697 47.9476C189.731 47.9879 189.782 48.0395 189.858 48.096L189.941 48.1573L190.105 48.5201C190.657 49.5232 190.835 50.0602 190.843 50.0828C191.122 50.9343 191.402 51.489 191.501 51.6196H191.504ZM61.4145 40.91C61.2657 40.91 61.1245 40.8842 61.0082 40.8197C60.8686 40.7406 60.7755 40.6116 60.7461 40.4568C60.7228 40.3375 60.7321 40.1504 60.8996 39.9359C61.1354 39.6376 61.6984 39.2876 62.5111 39.2876H62.7794C62.9811 39.2876 63.4526 39.2876 63.5286 39.7005C63.6108 40.1472 63.1284 40.3697 62.3358 40.6955C62.1466 40.7729 61.762 40.9116 61.4145 40.9116V40.91ZM235.562 40.868C235.415 40.868 235.275 40.8438 235.16 40.7777C235.024 40.7003 234.931 40.5745 234.901 40.4246C234.878 40.3101 234.883 40.1294 235.041 39.9279C235.289 39.6085 235.891 39.2876 236.672 39.2876H236.823C237.029 39.2876 237.512 39.2876 237.586 39.7037C237.665 40.144 237.189 40.3697 236.455 40.6632C236.272 40.7374 235.899 40.8664 235.562 40.8664V40.868ZM177.469 40.868C177.322 40.868 177.182 40.8438 177.067 40.7793C176.931 40.7019 176.838 40.5761 176.808 40.4262C176.785 40.3101 176.79 40.1311 176.948 39.9295C177.196 39.6102 177.798 39.2892 178.579 39.2892H178.73C178.936 39.2892 179.418 39.2892 179.493 39.7053C179.572 40.1456 179.096 40.3713 178.362 40.6648C178.179 40.739 177.805 40.868 177.469 40.868ZM119.376 40.868C119.228 40.868 119.089 40.8438 118.974 40.7793C118.838 40.7019 118.745 40.5761 118.715 40.4262C118.692 40.3101 118.696 40.1311 118.855 39.9295C119.103 39.6102 119.705 39.2892 120.486 39.2892H120.637C120.843 39.2892 121.325 39.2892 121.4 39.7053C121.479 40.1456 121.003 40.3713 120.269 40.6648C120.086 40.739 119.712 40.868 119.376 40.868ZM246.663 40.8406C246.332 40.8406 245.968 40.7148 245.788 40.6455C244.992 40.3326 244.626 40.1117 244.697 39.7085C244.772 39.2892 245.262 39.2892 245.471 39.2892H245.543C246.341 39.2892 246.945 39.6069 247.188 39.923C247.339 40.1181 247.342 40.2939 247.319 40.4068C247.288 40.5552 247.196 40.6777 247.061 40.7535C246.948 40.818 246.808 40.8422 246.663 40.8422V40.8406ZM206.389 40.7793C206.242 40.7793 206.149 40.7503 206.066 40.6971C205.966 40.6326 205.897 40.5326 205.874 40.4149C205.851 40.3004 205.855 40.123 206.009 39.9246C206.256 39.6069 206.857 39.2876 207.648 39.2876H207.759C208.455 39.2876 208.951 39.3215 209.001 39.7601C209.049 40.1859 208.577 40.302 208.377 40.352C208.28 40.3762 208.162 40.4068 208.03 40.4407C207.121 40.6777 206.662 40.7793 206.389 40.7793ZM148.296 40.7793C148.149 40.7793 148.056 40.7503 147.973 40.6971C147.874 40.6326 147.804 40.5326 147.781 40.4149C147.758 40.3004 147.761 40.123 147.916 39.9246C148.163 39.6069 148.764 39.2876 149.555 39.2876H149.665C150.362 39.2876 150.858 39.3215 150.908 39.7601C150.956 40.1859 150.484 40.302 150.284 40.352C150.187 40.3762 150.067 40.4068 149.937 40.4407C149.028 40.6777 148.57 40.7777 148.297 40.7777L148.296 40.7793ZM217.234 40.7406C217.068 40.7406 216.894 40.7116 216.723 40.6439C215.928 40.331 215.562 40.1101 215.633 39.7069C215.707 39.2876 216.198 39.2876 216.407 39.2876H216.478C217.493 39.2876 218.101 39.4312 218.284 39.7166C218.369 39.8488 218.386 40.0085 218.329 40.1552C218.212 40.452 217.756 40.7406 217.234 40.7406ZM159.141 40.7406C158.975 40.7406 158.801 40.7116 158.63 40.6439C157.835 40.331 157.469 40.1101 157.54 39.7069C157.614 39.2876 158.105 39.2876 158.314 39.2876H158.385C159.4 39.2876 160.008 39.4312 160.191 39.7166C160.276 39.8488 160.293 40.0085 160.236 40.1552C160.119 40.452 159.663 40.7406 159.141 40.7406ZM101.048 40.7406C100.882 40.7406 100.708 40.7116 100.537 40.6439C99.7416 40.331 99.3755 40.1101 99.4469 39.7069C99.5213 39.2876 100.011 39.2876 100.221 39.2876H100.292C101.307 39.2876 101.915 39.4312 102.098 39.7166C102.183 39.8488 102.2 40.0085 102.143 40.1552C102.026 40.452 101.572 40.7406 101.048 40.7406ZM90.3114 40.7406C90.1656 40.7406 90.0726 40.7132 89.9919 40.6616C89.8926 40.5987 89.8244 40.5003 89.7996 40.3859C89.7748 40.2746 89.7763 40.1036 89.9221 39.915C90.161 39.6037 90.7643 39.2892 91.577 39.2892C92.306 39.2892 92.7868 39.3215 92.8365 39.7601C92.883 40.181 92.4285 40.2923 92.2347 40.3391C92.1478 40.36 92.0423 40.3875 91.9276 40.4165C91.0404 40.6423 90.5859 40.7406 90.313 40.7406H90.3114ZM43.0987 40.7052C42.9374 40.7052 42.7699 40.6777 42.6039 40.6148C41.8579 40.3294 41.4934 40.1117 41.5616 39.7101C41.633 39.2892 42.1107 39.2892 42.3402 39.2892C43.8602 39.2892 44.0634 39.6037 44.1285 39.7069C44.2123 39.8359 44.2278 39.9988 44.1704 40.1407C44.0572 40.4262 43.6105 40.7068 43.0971 40.7068L43.0987 40.7052ZM188.34 40.5052C188.258 40.5052 188.169 40.5036 188.073 40.5003C187.577 40.4842 187.056 40.4229 186.747 40.3471C186.548 40.2988 186.083 40.1827 186.131 39.7601C186.181 39.3215 186.68 39.2876 187.38 39.2876H187.451C188.466 39.2876 189.074 39.4312 189.257 39.7166C189.342 39.8488 189.359 40.0085 189.302 40.1552C189.201 40.41 188.957 40.5068 188.34 40.5068V40.5052ZM130.247 40.5052C130.165 40.5052 130.076 40.5036 129.98 40.5003C129.484 40.4842 128.963 40.4229 128.654 40.3471C128.455 40.2988 127.99 40.1827 128.038 39.7601C128.088 39.3215 128.587 39.2876 129.287 39.2876H129.358C130.372 39.2876 130.98 39.4312 131.163 39.7166C131.249 39.8488 131.266 40.0085 131.208 40.1552C131.108 40.41 130.864 40.5068 130.247 40.5068V40.5052ZM72.2902 40.4826C72.2127 40.4826 72.1289 40.4826 72.039 40.4778C71.5566 40.4616 71.0525 40.4052 70.7563 40.3326C70.564 40.2859 70.1111 40.1762 70.1576 39.7553C70.2057 39.3183 70.6834 39.286 71.4062 39.286C72.9261 39.286 73.1293 39.6005 73.1945 39.7037C73.2782 39.8327 73.2937 39.9956 73.2363 40.1375C73.1371 40.3875 72.8967 40.481 72.2871 40.481L72.2902 40.4826ZM247.089 38.3636H235.131C234.174 38.3636 232.829 38.0459 232.071 37.6411C231.919 37.5589 231.722 37.4653 231.512 37.3637C230.585 36.917 230.161 36.7138 230.253 36.2768C230.333 35.893 230.76 35.893 230.9 35.893H251.319C251.458 35.893 251.883 35.893 251.965 36.2768C252.058 36.7138 251.635 36.917 250.706 37.3637C250.497 37.4637 250.3 37.5589 250.148 37.6411C249.389 38.0459 248.046 38.3636 247.087 38.3636H247.089ZM231.979 36.6993C232.144 36.7783 232.296 36.8541 232.426 36.9235C233.068 37.267 234.307 37.5572 235.131 37.5572H247.089C247.913 37.5572 249.152 37.267 249.794 36.9235C249.924 36.8541 250.078 36.7783 250.241 36.6993H231.979ZM188.996 38.3636H177.038C176.081 38.3636 174.736 38.0459 173.978 37.6411C173.826 37.5589 173.629 37.4653 173.419 37.3637C172.492 36.917 172.068 36.7138 172.16 36.2768C172.24 35.893 172.667 35.893 172.807 35.893H193.226C193.626 35.893 194.231 35.893 194.293 36.3719C194.355 36.8509 193.77 37.017 193.384 37.1251C193.364 37.1299 192.698 37.296 192.055 37.6395C191.296 38.0443 189.953 38.362 188.994 38.362L188.996 38.3636ZM173.886 36.6993C174.05 36.7783 174.202 36.8541 174.333 36.9235C174.975 37.267 176.214 37.5572 177.038 37.5572H188.996C189.82 37.5572 191.059 37.267 191.701 36.9235C191.859 36.8396 192.016 36.7654 192.166 36.6993H173.886ZM130.903 38.3636H118.945C117.988 38.3636 116.643 38.0459 115.884 37.6411C115.732 37.5589 115.535 37.4653 115.326 37.3637C114.399 36.917 113.975 36.7138 114.067 36.2768C114.147 35.893 114.574 35.893 114.713 35.893H135.133C135.533 35.893 136.138 35.893 136.2 36.3719C136.262 36.8509 135.677 37.017 135.291 37.1251C135.271 37.1299 134.605 37.296 133.961 37.6395C133.203 38.0443 131.86 38.362 130.901 38.362L130.903 38.3636ZM115.793 36.6993C115.957 36.7783 116.109 36.8541 116.24 36.9235C116.882 37.267 118.121 37.5572 118.945 37.5572H130.903C131.726 37.5572 132.966 37.267 133.608 36.9235C133.766 36.8396 133.923 36.7654 134.073 36.6993H115.793ZM72.9277 38.3636H60.9694C60.0124 38.3636 58.6677 38.0459 57.9093 37.6411C57.7573 37.5589 57.5603 37.4653 57.3509 37.3653C56.4234 36.9186 56 36.7154 56.0915 36.2784C56.1721 35.8946 56.5987 35.8946 56.7383 35.8946H77.1573C77.5575 35.8946 78.1624 35.8946 78.2244 36.3736C78.2864 36.8525 77.7017 37.0186 77.3155 37.1267C77.2953 37.1315 76.63 37.2976 75.9863 37.6411C75.2278 38.0459 73.8847 38.3636 72.9261 38.3636H72.9277ZM57.8178 36.6993C57.9822 36.7783 58.1342 36.8541 58.2644 36.9235C58.9066 37.267 60.1458 37.5572 60.9694 37.5572H72.9277C73.7513 37.5572 74.9905 37.267 75.6327 36.9235C75.7909 36.8396 75.9475 36.7654 76.098 36.6993H57.8178Z" fill="currentColor"/>
</svg>
