<svg width="143" height="143" viewBox="0 0 143 143" fill="none" xmlns="http://www.w3.org/2000/svg">
<path d="M83.6751 121.165L79.9435 98.2452L79.3999 95.1934C78.6539 97.5553 76.6343 99.4372 74.0073 99.8966C70.5562 100.5 67.2406 98.4378 66.2204 95.2092L49.0924 120.249L48.4165 119.83L60.4834 99.0725L62.0504 96.3838C59.9446 97.7179 57.1774 97.8742 54.8676 96.5528C51.831 94.8161 50.6291 91.1233 51.9457 88.0005L13.3572 98.7015L13.1229 97.9468L45.0515 87.3105L47.9798 86.2559C47.2848 86.1659 46.5993 85.9701 45.9458 85.6686C44.2736 84.8966 43.0064 83.5262 42.3751 81.81C41.7439 80.0939 41.8268 78.2372 42.6062 76.5811C43.2471 75.2201 44.2959 74.1292 45.6126 73.4377L11.1191 60.7347L11.3694 59.9864L40.8337 68.474L43.7827 69.5365C43.3076 69.025 42.9107 68.4392 42.6062 67.7919C41.8268 66.1358 41.7455 64.2791 42.3751 62.563C43.0064 60.8468 44.2736 59.4764 45.9458 58.7044C47.339 58.0603 48.8756 57.8977 50.3517 58.2229L34.4591 26.8792L35.1589 26.5034L49.856 51.3725L51.4197 54.0549C51.3878 53.3618 51.4643 52.6592 51.6508 51.9693C52.1275 50.2042 53.2704 48.7296 54.8676 47.8171C57.8979 46.0836 61.7172 46.8919 63.7927 49.5695L70.6407 20.8071L71.4217 20.9571L67.8591 43.9996L67.3155 47.0561C67.7411 46.5051 68.256 46.0157 68.8458 45.6052C70.3569 44.5569 72.1885 44.1543 74.0057 44.4732C77.4377 45.0731 79.8335 48.1013 79.7076 51.4578L111.214 26.5081L111.73 27.1081L86.4408 49.8158L84.0354 51.8162C84.7192 51.6646 85.4318 51.6172 86.1491 51.6788C87.987 51.8383 89.6512 52.6955 90.8372 54.0959C93.0816 56.7451 92.9461 60.599 90.6586 63.0903L130.758 64.6391L130.75 65.4285L96.8866 66.1058H93.7447C95.9636 67.2441 97.4843 69.5412 97.4843 72.1826C97.4843 75.6401 94.8797 78.5056 91.513 78.9587L120.55 104.961L120.034 105.563L94.3249 85.236L91.9227 83.2404C92.1921 83.8814 92.3627 84.5666 92.4248 85.2786C92.5858 87.099 92.0215 88.8704 90.8356 90.2708C88.5784 92.9342 84.6937 93.4631 81.8149 91.6301L84.4626 121.065L83.672 121.163L83.6751 121.165ZM70.6917 81.7263L71.5015 81.8163L71.1779 82.3436C71.1779 82.3436 70.7666 83.0131 70.137 84.0945L61.1752 99.4672L54.552 110.86L66.6237 93.212L66.7942 94.2067C67.3793 97.4953 70.5546 99.6961 73.8702 99.1167C77.1874 98.5373 79.4095 95.3939 78.8245 92.1085C78.2395 88.823 75.0657 86.6238 71.7485 87.2016C71.3946 87.2632 71.0392 87.3595 70.6901 87.4858L69.6555 87.8631L73.5737 81.1422C73.7028 80.8817 73.8527 80.6401 74.0184 80.4175C72.9951 81.0601 71.8633 81.4958 70.6917 81.7232V81.7263ZM77.1619 78.0683L80.7294 98.1142L82.6757 110.07L80.8585 89.8713L81.6204 90.5092C84.2028 92.6547 88.062 92.32 90.2267 89.7655C91.2755 88.5278 91.7745 86.96 91.6326 85.3497C91.4907 83.7393 90.724 82.2821 89.4743 81.2432C88.2245 80.2044 86.6401 79.7102 85.0157 79.8507C83.3898 79.9913 81.9185 80.7506 80.8696 81.9884C80.6385 82.2615 80.4281 82.5615 80.2432 82.8804L79.6964 83.8277L78.3303 76.1564C78.2554 75.6069 78.2124 75.1191 78.1885 74.7339C77.8075 76.2306 77.0758 77.612 76.0222 78.6903C76.0222 78.6903 76.019 78.6935 76.0174 78.6951C76.2421 78.5609 76.4621 78.4377 76.6741 78.3256L77.1587 78.0683H77.1619ZM79.0939 71.5495L94.8302 84.6282L110.391 96.9317L89.503 78.2262L90.5758 78.2341L90.5789 78.5924V78.2341C93.9472 78.2341 96.6857 75.5201 96.6857 72.1857C96.6857 68.8513 93.9456 66.1374 90.5789 66.1374C87.2123 66.1374 84.4722 68.8513 84.4722 72.1857C84.4722 72.5409 84.5056 72.9056 84.571 73.2672L84.7671 74.3408L78.7543 69.3439C78.3128 68.9492 77.9478 68.5829 77.6736 68.2956C78.3335 69.7891 78.5886 71.4295 78.469 73.0225L79.0939 71.551V71.5495ZM53.5414 86.7406L53.0329 87.6058C51.348 90.4965 52.3506 94.2035 55.2677 95.8707C58.1848 97.5379 61.926 96.5449 63.6109 93.6573C64.4271 92.2585 64.6439 90.6276 64.2215 89.0677C63.799 87.5063 62.7884 86.2022 61.3761 85.3955C61.0653 85.217 60.7305 85.0639 60.3814 84.9392L59.3453 84.5697L66.7209 81.9111C66.866 81.859 67.0063 81.8148 67.1417 81.7753C66.1981 81.619 65.2719 81.3285 64.3952 80.9006L64.7156 81.2085L64.0286 81.3853C64.0286 81.3853 63.3272 81.5669 62.1604 81.9884L45.3193 88.0589L28.0511 93.8104L53.543 86.7422L53.5414 86.7406ZM61.5785 84.6029C61.6439 84.6376 61.7093 84.6739 61.773 84.7103C63.3702 85.6228 64.5132 87.0974 64.9898 88.8625C65.1763 89.5524 65.2528 90.255 65.2209 90.9481L69.4451 83.7014C69.7448 83.1867 69.9951 82.7652 70.1768 82.4636L69.0466 82.3373C69.0339 82.3358 68.1428 82.2379 66.9903 82.6515L61.5785 84.6029ZM72.8118 86.3238C74.9956 86.3238 77.0168 87.3563 78.3016 89.0204L76.5689 79.2887C75.7097 79.7892 74.7868 80.4807 74.2846 81.5053L74.2719 81.5306L71.3915 86.4706C71.4648 86.4548 71.5365 86.4406 71.6098 86.428C72.0131 86.3569 72.4164 86.3238 72.8118 86.3238ZM21.6318 63.7629L47.8363 73.4124L46.7779 73.785C45.2412 74.3392 44.0186 75.4491 43.3284 76.9142C42.6381 78.3793 42.5664 80.0212 43.1243 81.54C43.6822 83.0588 44.8044 84.2698 46.2821 84.9534C47.7614 85.637 49.4192 85.708 50.9527 85.1555C52.4861 84.6029 53.7103 83.4914 54.399 82.0279C55.0876 80.5643 55.1609 78.9208 54.603 77.402C54.4803 77.0673 54.3225 76.7374 54.136 76.42L53.5812 75.4775L60.9569 78.1362C60.9569 78.1362 60.9648 78.1393 60.9696 78.1409C60.5057 77.5489 60.1168 76.9063 59.8076 76.2211L59.8267 76.3995L59.1524 76.0269C59.1524 76.0269 58.5642 75.7048 57.4133 75.2896L40.585 69.2223L21.6303 63.7629H21.6318ZM55.2725 76.9252C55.2996 76.9931 55.3267 77.0626 55.3522 77.1305C55.9835 78.8466 55.9006 80.7033 55.1211 82.3594C54.8166 83.0067 54.4197 83.5925 53.9447 84.104L61.883 81.2417C62.4074 81.0522 62.8362 80.9117 63.1566 80.8122L62.3517 80.0386L62.3293 80.0055C62.3293 80.0055 61.8049 79.2776 60.6859 78.875L55.2741 76.9237L55.2725 76.9252ZM79.1194 76.0427L80.1188 81.6521C80.1651 81.5937 80.2113 81.5369 80.2591 81.4816C81.9727 79.4576 84.6284 78.6666 87.0673 79.2066L79.4095 72.8425L78.9536 73.9176C78.9568 74.1671 78.9791 74.996 79.121 76.0443L79.1194 76.0427ZM68.7549 63.3113C65.9175 63.3113 63.1965 64.6754 61.4319 67.1383C60.0196 69.1292 59.4792 71.5258 59.9096 73.8861C60.332 76.1943 61.6519 78.2025 63.6269 79.5413C67.0716 81.8858 71.7661 81.5921 74.7963 78.8419C74.8394 78.7993 75.0896 78.5435 75.4324 78.1599L75.4451 78.1472C77.825 75.7159 78.4021 71.5873 76.8144 68.3319C75.646 66.1326 73.9355 64.587 71.8776 63.8734C70.8495 63.4945 69.7942 63.3113 68.7549 63.3113ZM49.7492 71.6852L57.6875 74.5476C58.1832 74.726 58.5785 74.8886 58.875 75.0181L58.7539 73.9097L58.7635 73.8561C58.7635 73.8561 58.8926 72.9798 58.3044 71.9726L55.4239 67.0325C55.4 67.102 55.3761 67.1715 55.3506 67.2409C54.7194 68.9571 53.4521 70.3275 51.78 71.0995C51.1264 71.401 50.441 71.5968 49.746 71.6868L49.7492 71.6852ZM77.774 67.2252C77.9334 67.4114 78.4834 68.0366 79.2788 68.7487L83.6799 72.4052C83.6767 72.331 83.6767 72.2583 83.6767 72.1841C83.6767 69.5428 85.1975 67.2457 87.4164 66.1074H77.4217L77.7756 67.2236L77.774 67.2252ZM55.0701 64.8443L58.9946 71.5763C59.0568 70.7632 59.2225 69.9628 59.4887 69.1876L59.2704 69.497L58.9978 68.8197C58.9978 68.8197 58.7427 68.1961 58.129 67.1415L49.1673 51.7688L40.7476 37.5218L51.933 59.5791L50.9558 59.2175C49.4208 58.6634 47.7614 58.736 46.2837 59.418C44.8044 60.1016 43.6838 61.3126 43.1259 62.8314C42.568 64.3502 42.6397 65.9921 43.3299 67.4572C44.0202 68.9224 45.2428 70.0322 46.7763 70.5848C49.9404 71.7247 53.4521 70.1033 54.6046 66.9694C54.7273 66.6347 54.8214 66.2826 54.8852 65.9195L55.0717 64.8443H55.0701ZM54.5887 59.4922L58.8177 66.7468C59.0886 67.2125 59.2927 67.5962 59.4377 67.8851L60.0993 66.9504L60.1296 66.922C60.1296 66.922 60.756 66.3205 60.9616 65.1648L61.9611 59.5475C61.8973 59.587 61.8336 59.6249 61.7698 59.6612C59.4601 60.9826 56.6912 60.8263 54.5871 59.4922H54.5887ZM73.3872 63.6729C74.7087 64.377 75.8627 65.4269 76.7937 66.7736L76.333 65.3195H96.8786L117.279 64.9106L88.647 63.8039L89.4727 63.1282C90.724 62.0878 91.4907 60.629 91.6326 59.0202C91.7745 57.4114 91.2755 55.8421 90.2267 54.6043C89.1778 53.3665 87.7049 52.6071 86.0806 52.4666C84.4546 52.3261 82.8717 52.8203 81.622 53.8591C80.3723 54.898 79.6056 56.3568 79.4637 57.9655C79.3218 59.5743 79.8208 61.1436 80.8696 62.3814C81.1008 62.6545 81.3622 62.9119 81.6475 63.1471L82.494 63.845L74.5891 63.8418C74.4648 63.8244 74.3388 63.8071 74.2097 63.7897C73.9419 63.7534 73.6662 63.7171 73.3872 63.6713V63.6729ZM63.1104 57.6466L61.7475 65.3022C61.73 65.3985 61.7108 65.4916 61.6885 65.5816C62.3787 64.8538 63.1598 64.2476 63.9999 63.7723L63.4213 63.8718L63.5663 63.2845C63.5663 63.2845 63.7432 62.5693 63.96 61.3505L67.0716 43.8701L69.1184 30.6272L64.1226 51.6125L63.6078 50.7142C61.9228 47.8218 58.18 46.8288 55.2629 48.4975C53.8506 49.3059 52.84 50.61 52.4176 52.1698C51.9952 53.7312 52.2119 55.3605 53.0281 56.7593C54.7114 59.6485 58.4542 60.6416 61.3713 58.9728C61.6821 58.7944 61.9834 58.5844 62.2672 58.3476L63.1088 57.6435L63.1104 57.6466ZM74.672 63.0556H80.4042C80.3548 63.0003 80.3053 62.945 80.2591 62.8898C79.0731 61.491 78.5089 59.718 78.6699 57.8977C78.732 57.1856 78.9042 56.5004 79.1736 55.8594L72.7018 61.2384C72.1869 61.6662 71.774 62.0072 71.4967 62.2346C72.3017 62.7398 73.3234 62.8756 74.3165 63.0082C74.4377 63.024 74.5556 63.0398 74.6736 63.0571L74.672 63.0556ZM66.2156 53.2402L64.7475 61.4894C64.6423 62.0783 64.5482 62.5472 64.4765 62.8803C65.4999 62.6688 66.5806 62.3325 67.4175 61.6425L71.8282 57.9766C71.7549 57.9655 71.6816 57.9545 71.6082 57.9419C68.9813 57.4824 66.9616 55.6021 66.2156 53.2386V53.2402ZM68.7501 62.5204C69.4451 62.5204 70.1465 62.5961 70.8447 62.7493C70.757 62.6861 70.6725 62.6182 70.5897 62.5456L70.239 62.2393L70.5992 61.9457C70.5992 61.9457 71.2097 61.4484 72.1869 60.6353L85.9164 49.2254L101.675 35.0747L78.63 53.3239L78.8213 52.263C79.4063 48.9759 77.1842 45.8325 73.867 45.2531C72.2602 44.9721 70.6391 45.3289 69.3033 46.2557C67.9675 47.1824 67.0748 48.5686 66.7911 50.16C66.206 53.4455 68.4281 56.5888 71.7453 57.1683C72.0992 57.2298 72.4658 57.2582 72.8373 57.2598L73.9387 57.2551L67.926 62.252C67.7666 62.383 67.6008 62.503 67.4303 62.6135C67.8654 62.5535 68.3054 62.5235 68.7485 62.5235L68.7501 62.5204Z" fill="currentColor"/>
<path d="M68.88 81.8747C65.4783 81.8747 62.2854 80.1854 60.4236 77.2346C58.8933 74.8538 58.5538 71.922 59.4911 69.1938C60.4571 66.3852 62.6839 64.118 65.4448 63.1281C68.4368 62.0609 71.5771 62.4398 74.2902 64.1922L74.3061 64.2033C76.9538 66.1104 78.4857 68.946 78.508 71.9851V72.023C78.7216 76.2242 75.7774 80.2959 71.6584 81.4958C70.7307 81.7515 69.7966 81.8747 68.8784 81.8747H68.88ZM68.8465 63.3128C67.8104 63.3128 66.7615 63.4976 65.7158 63.8717C63.1797 64.7795 61.1345 66.8651 60.2451 69.4496C59.3843 71.9488 59.6951 74.6328 61.0963 76.8146C62.8099 79.5317 65.7525 81.0853 68.8816 81.0869C69.728 81.0869 70.5872 80.9732 71.44 80.7379C75.2083 79.6407 77.9086 75.9116 77.7126 72.0656V71.9946C77.6903 69.2112 76.2811 66.6078 73.8454 64.849C72.2625 63.8291 70.5713 63.3144 68.8449 63.3144L68.8465 63.3128Z" fill="currentColor"/>
</svg>
