<svg width="143" height="143" viewBox="0 0 143 143" fill="none" xmlns="http://www.w3.org/2000/svg">
<g clip-path="url(#clip0_675_8940)">
<g clip-path="url(#clip1_675_8940)">
<path d="M44.1466 98.6165C48.7377 97.9445 52.7202 93.9277 56.4601 91.4286C60.869 88.483 65.6148 85.5085 68.6645 81.0469C69.7321 79.4829 70.2128 77.8984 69.9377 76.3337C69.8848 74.5554 69.0526 71.1091 66.0184 72.4318C61.4323 74.93 43.637 92.4429 39.1423 95.3289C32.2432 100.568 23.7008 103.24 16.9985 108.188C16.9411 108.323 16.8795 108.453 16.8222 108.587C18.667 108.916 42.7026 98.8282 44.1466 98.6165Z" fill="currentColor"/>
<path d="M59.4754 96.0383C55.8291 100.592 50.6243 103.229 49.0038 108.153C48.8674 109.385 49.4222 110.575 50.1215 112.015C50.5437 112.586 50.971 113.083 51.3419 113.602C51.7128 114.121 52.0317 114.658 52.3398 114.966C52.7214 114.302 53.2952 113.394 53.9418 112.551C55.8816 110.029 58.4507 108.102 60.8448 105.939C64.471 102.655 67.7679 99.0155 70.919 95.274C75.8158 89.4616 79.4663 82.5422 73.7593 75.8158C72.2632 79.879 70.1671 83.4555 67.7107 86.759C65.2501 90.0582 62.4293 93.0844 59.4797 96.034L59.4754 96.0383Z" fill="currentColor"/>
<path d="M98.2707 45.0833C93.816 46.4232 90.4633 50.9739 87.1244 53.9961C83.1893 57.5548 78.9252 61.1942 76.5629 66.0381C75.7358 67.738 75.4964 69.3721 76.0009 70.8786C76.3175 72.6243 77.6564 75.8977 80.4656 74.1409C84.6431 70.9988 99.6928 51.0888 103.723 47.5724C109.784 41.3825 117.863 37.4797 123.77 31.6063C123.806 31.4678 123.851 31.3292 123.886 31.1908C122.009 31.143 99.6734 44.6561 98.2708 45.0746L98.2707 45.0833Z" fill="currentColor"/>
<path d="M83.4485 49.8919C86.3911 44.8614 91.1579 41.4895 92.0374 36.3913C91.9881 35.157 91.2641 34.067 90.3565 32.7412C89.8559 32.2406 89.359 31.8133 88.9141 31.3597C88.4692 30.9061 88.0721 30.4219 87.7204 30.166C87.4419 30.8809 87.0056 31.8563 86.4877 32.7849C84.9385 35.5577 82.6772 37.8362 80.6254 40.333C77.5171 44.1087 74.7818 48.1875 72.2184 52.3425C68.2224 58.803 65.6256 66.166 72.2866 71.9556C73.1668 67.7296 74.7171 63.886 76.6625 60.2634C78.6123 56.645 80.9659 53.2388 83.4442 49.8963L83.4485 49.8919Z" fill="currentColor"/>
</g>
</g>
<defs>
<clipPath id="clip0_675_8940">
<rect width="142.1" height="142.1" fill="white"/>
</clipPath>
<clipPath id="clip1_675_8940">
<rect width="135" height="56" fill="white" transform="translate(4 98.9985) rotate(-45)"/>
</clipPath>
</defs>
</svg>
