<svg width="143" height="143" viewBox="0 0 143 143" fill="none" xmlns="http://www.w3.org/2000/svg">
<g clip-path="url(#clip0_675_7117)">
<g clip-path="url(#clip1_675_7117)">
<path d="M44.1466 98.618C48.7377 97.946 52.7202 93.9293 56.4601 91.4301C60.869 88.4845 65.6148 85.51 68.6645 81.0484C69.7321 79.4845 70.2128 77.8999 69.9377 76.3352C69.8848 74.557 69.0526 71.1106 66.0184 72.4334C61.4323 74.9315 43.637 92.4445 39.1423 95.3304C32.2432 100.569 23.7008 103.242 16.9985 108.19C16.9411 108.324 16.8795 108.454 16.8222 108.589C18.667 108.917 42.7026 98.8297 44.1466 98.618Z" fill="currentColor"/>
<path d="M59.4773 96.0407C55.831 100.594 50.6263 103.232 49.0058 108.155C48.8694 109.387 49.4242 110.578 50.1235 112.018C50.5457 112.588 50.9729 113.085 51.3438 113.604C51.7147 114.123 52.0337 114.66 52.3417 114.968C52.7234 114.304 53.2972 113.396 53.9438 112.553C55.8836 110.031 58.4526 108.104 60.8468 105.941C64.4729 102.657 67.7699 99.0179 70.921 95.2764C75.8178 89.4639 79.4683 82.5446 73.7613 75.8181C72.2652 79.8814 70.169 83.4579 67.7127 86.7614C65.2521 90.0606 62.4313 93.0868 59.4817 96.0364L59.4773 96.0407Z" fill="currentColor"/>
<path d="M98.2726 45.0848C93.8179 46.4247 90.4652 50.9754 87.1264 53.9977C83.1912 57.5563 78.9272 61.1957 76.5648 66.0396C75.7377 67.7395 75.4984 69.3736 76.0028 70.8801C76.3194 72.6258 77.6583 75.8992 80.4676 74.1424C84.6451 71.0004 99.6947 51.0903 103.724 47.5739C109.786 41.384 117.865 37.4812 123.772 31.6078C123.808 31.4693 123.853 31.3308 123.888 31.1923C122.011 31.1446 99.6754 44.6576 98.2727 45.0762L98.2726 45.0848Z" fill="currentColor"/>
<path d="M83.4485 49.8935C86.3911 44.863 91.1579 41.491 92.0374 36.3929C91.9881 35.1586 91.2641 34.0685 90.3565 32.7427C89.8559 32.2421 89.359 31.8149 88.9141 31.3613C88.4692 30.9077 88.0721 30.4234 87.7204 30.1675C87.4419 30.8824 87.0056 31.8578 86.4877 32.7864C84.9385 35.5593 82.6772 37.8378 80.6254 40.3345C77.5171 44.1102 74.7818 48.189 72.2184 52.344C68.2224 58.8045 65.6256 66.1676 72.2866 71.9572C73.1668 67.7311 74.7171 63.8876 76.6625 60.2649C78.6123 56.6465 80.9659 53.2404 83.4442 49.8978L83.4485 49.8935Z" fill="currentColor"/>
</g>
</g>
<defs>
<clipPath id="clip0_675_7117">
<rect width="142.1" height="142.1" fill="white"/>
</clipPath>
<clipPath id="clip1_675_7117">
<rect width="135" height="56" fill="white" transform="translate(4 99) rotate(-45)"/>
</clipPath>
</defs>
</svg>
