<svg width="143" height="143" viewBox="0 0 143 143" fill="none" xmlns="http://www.w3.org/2000/svg">
<g clip-path="url(#clip0_675_7111)">
<path d="M62.7234 81.4924C66.9227 76.0108 66.886 67.6794 68.2155 61.1814C69.7834 53.5216 71.6813 45.4807 70.1685 37.6576C69.6367 34.9168 68.4539 32.7659 66.4826 31.4227C64.5205 29.6258 59.9361 26.9031 58.1023 31.4409C55.8651 38.8193 55.5625 75.5933 53.8388 83.2803C52.06 95.9225 45.7702 107.603 43.8906 119.737C43.9731 119.936 44.0465 120.136 44.129 120.336C46.4579 118.756 61.4031 83.2167 62.7234 81.4924Z" fill="currentColor"/>
<path d="M76.3905 62.8428C77.3624 71.3829 74.6118 79.5509 78.1509 86.3666C79.3245 87.7914 81.195 88.4539 83.4872 89.2254C84.5508 89.3796 85.541 89.4522 86.4946 89.6065C87.4481 89.7608 88.365 89.9877 89.0252 89.9877C88.7226 88.8986 88.365 87.3558 88.1541 85.8039C87.5306 81.1572 88.2183 76.4742 88.4659 71.7277C88.8326 64.5308 88.4659 57.3067 87.8332 50.128C86.8521 38.9742 83.3496 27.9656 70.0273 26.9037C72.778 32.6939 74.3642 38.6021 75.2719 44.601C76.1705 50.5999 76.3905 56.6896 76.3905 62.8337V62.8428Z" fill="currentColor"/>
</g>
<defs>
<clipPath id="clip0_675_7111">
<rect width="142.1" height="142.1" fill="white"/>
</clipPath>
</defs>
</svg>
