<svg width="143" height="143" viewBox="0 0 143 143" fill="none" xmlns="http://www.w3.org/2000/svg">
<g clip-path="url(#clip0_675_2867)">
<path d="M38.5015 60.4607C38.5015 66.428 40.0838 72.0285 42.8529 76.8577C43.1067 77.2995 43.3679 77.7263 43.6366 78.153C44.6144 80.0473 52.1752 92.551 53.6531 93.5393C57.0864 95.5084 53.9442 86.4489 56.6312 89.9454C56.9969 90.2449 57.3775 90.4471 57.7582 90.5893C60.0421 91.4429 62.5201 91.6825 64.6772 92.6334C65.237 92.7906 68.8793 117.319 69.4391 117.424C71.0737 117.671 69.6406 93.4045 71.3424 93.4045C76.4178 93.4045 81.2245 92.2515 85.5162 90.185C85.9939 89.9529 86.4641 89.7133 86.9418 89.5786C87.8076 88.9122 90.0095 126.977 90.9872 126.483C95.4058 123.526 93.204 80.5415 98.4809 79.0066C98.7795 78.5723 99.0631 78.1306 99.3393 77.6813C101.265 74.5367 102.676 71.0402 103.467 67.3115C103.482 66.8024 103.489 66.3007 103.482 65.7916C102.362 66.2408 100.757 66.8323 98.0107 67.8281C97.5256 68.0528 97.0255 68.2699 96.5329 68.4645C96.0328 68.6592 95.5327 68.8464 95.0326 69.0111C94.4206 69.2432 93.831 69.4154 93.301 69.6999C92.2412 70.254 91.45 70.6733 91.45 70.6733L88.7108 72.1108C88.7108 72.1108 87.5613 72.7173 86.0238 73.5259C85.6431 73.7281 85.3073 73.9752 84.9565 74.2372C84.1056 75.1956 83.1353 75.9742 82.0903 76.6481C81.5679 76.985 81.023 77.2845 80.8289 77.4642C79.9109 77.8535 79.3436 78.1156 80.9409 78.3552C78.1867 78.6023 77.6046 78.8269 79.2018 84.4872C78.6495 83.4465 78.1793 82.6154 77.7688 81.9715C77.3508 81.3276 76.9925 80.8709 77.209 80.6313C76.3059 80.2644 75.9849 80.1147 77.1045 80.1671C75.3057 80.0473 74.9549 80.1372 77.0821 81.0581C76.679 80.9832 76.3208 80.9233 76.0073 80.8784C76.3133 80.9682 76.6492 81.088 77.0298 81.2228C76.5596 81.0656 76.1715 80.9458 75.8282 80.8634C75.6416 80.8484 75.4624 80.8335 75.3057 80.8335C74.8429 80.841 74.4921 80.9458 74.2533 81.2003C74.1563 81.2827 74.0742 81.3725 74.007 81.4849C73.9249 81.7095 73.8801 81.9865 73.9174 82.3384C73.895 82.3758 73.8726 82.4133 73.8502 82.4507C73.8502 82.4657 73.8502 82.4807 73.8502 82.4956C73.798 82.563 73.7532 82.6304 73.7084 82.6978C73.4547 83.2369 73.3278 83.9407 73.186 84.8092C73.2979 83.9182 73.4024 83.2069 73.7084 82.6978C73.7532 82.6079 73.798 82.5256 73.8428 82.4432C73.7905 82.0164 73.8577 81.7095 73.9995 81.4774C74.0742 81.2827 74.1787 81.133 74.2981 81.0281C74.5444 80.7885 74.8653 80.7137 75.3057 80.7661C75.4624 80.7811 75.6341 80.8185 75.8207 80.8634C75.8804 80.8634 75.9401 80.8709 75.9998 80.8784C75.6938 80.7885 75.4326 80.7212 75.1937 80.6837C74.7161 80.6163 74.3578 80.6687 74.1339 80.8859C73.7756 81.1255 73.5517 81.5298 73.7831 82.2261C73.6786 82.3159 73.5965 82.4133 73.5144 82.5181C73.5144 82.5181 73.5293 82.5331 73.5368 82.5406C73.5144 82.5555 73.492 82.5705 73.4696 82.5855C73.0889 83.1171 72.9397 83.8433 72.7904 84.7568C72.8277 83.7161 72.8725 82.9449 73.4696 82.5855C73.4845 82.563 73.4994 82.5406 73.5144 82.5181C73.2681 82.256 73.1039 82.0539 73.0218 81.8967C72.9322 81.9041 72.8501 81.9191 72.768 81.9341C72.865 82.0164 72.9844 82.1138 73.1412 82.2261C71.4842 82.3159 71.0214 82.8999 70.5811 84.8242C71.0364 82.8475 71.417 82.1662 72.768 81.9341C72.6635 81.8368 72.5963 81.7619 72.5665 81.6945C72.4023 81.6271 72.2754 81.5672 72.1858 81.5223C72.0515 81.5522 71.932 81.5822 71.8126 81.6121C71.9246 81.6346 72.0515 81.6571 72.2082 81.687C72.1186 81.687 72.0291 81.687 71.947 81.6945C72.0589 81.7244 72.1933 81.7619 72.3351 81.7993C71.8275 81.7993 71.4394 81.8368 71.1035 81.9341C71.2454 81.9565 71.3946 82.0015 71.5588 82.0689C71.3872 82.009 71.2379 81.964 71.0961 81.9416C71.0065 81.9715 70.9244 82.0015 70.8423 82.0389C70.2601 82.4208 69.7377 83.0272 68.9913 84.0679C69.775 82.8999 70.2377 82.3159 70.8423 82.0389C70.902 82.0015 70.9617 81.964 71.0214 81.9266C70.8647 81.9041 70.7154 81.9266 70.5587 81.964C70.193 82.1213 69.8496 82.3758 69.4316 82.7577C69.1779 82.9973 68.8943 83.2818 68.5435 83.6412C68.8868 83.2818 69.1704 82.9973 69.4316 82.7577C69.9093 82.301 70.2452 82.0539 70.5587 81.964C70.6035 81.9416 70.6483 81.9266 70.693 81.9116C70.1034 81.9491 69.5361 82.3684 68.3121 83.3941C69.6332 82.1512 69.5809 82.1737 68.2897 83.3642C69.2003 82.3684 68.8719 82.5406 67.5284 83.469C67.924 83.0422 67.3418 83.3492 66.7297 83.6786C66.364 83.8583 65.961 84.068 65.6848 84.2177C65.4086 84.3674 65.2519 84.4498 65.2519 84.4498C65.2519 84.4498 65.3788 84.3375 65.6027 84.1428C65.8266 83.9482 66.1476 83.6711 66.461 83.3716C66.9163 83.0048 67.3642 82.6079 66.8492 82.4732C68.0882 81.9865 68.3345 81.7694 67.1029 81.5448C68.7599 81.3351 68.9316 81.1255 67.7075 80.1446C69.0137 80.6238 69.4466 80.6238 69.3272 79.8302C69.1629 79.6879 68.8793 79.3809 68.4464 78.9092C68.745 79.1114 68.9987 79.2611 69.2227 79.366C69.1928 79.2537 69.1555 79.1413 69.1182 79.0141C69.1928 79.1638 69.2525 79.2911 69.3048 79.4034C69.9392 79.6879 70.2751 79.5606 70.5064 78.9916C70.3273 79.1788 70.0064 78.8419 69.4242 78.0931C69.9093 78.475 70.2825 78.6996 70.5885 78.767C70.6259 78.6472 70.6632 78.5199 70.693 78.3702C70.6706 78.5349 70.6483 78.6697 70.6184 78.7745C70.9543 78.8419 71.2006 78.7221 71.4096 78.4076C71.2678 78.46 71.0065 78.1081 70.5288 77.5316C71.3648 78.168 71.835 78.4151 72.0962 78.153C72.1783 78.198 72.0515 77.7337 71.7081 76.8577C72.6187 78.0407 72.9322 78.2803 72.6934 77.5466C72.5963 77.3294 72.4545 76.9925 72.2604 76.5433C72.5814 77.7712 72.4769 77.5915 72.0291 76.4684C72.1933 77.1647 72.0141 76.9176 71.6708 76.2962C71.5887 76.1839 71.3424 75.7571 71.1035 75.3378C70.3796 74.08 69.678 72.882 69.4391 71.3471C69.1032 69.1459 68.6554 67.0569 67.7523 65.0054C66.9014 63.5155 65.8565 62.1154 64.6548 60.865C63.789 59.959 62.8411 59.1429 61.8185 58.4242C61.311 58.0648 60.7811 57.7278 60.4004 57.7578C59.6988 57.0989 59.1465 56.8144 58.4747 57.8102C58.012 56.2828 57.4372 56.0357 55.9445 56.5524C56.258 55.6015 55.6609 55.4068 54.8846 55.287C54.4517 55.0699 53.8397 54.9276 53.2202 54.8078C51.9886 54.5682 50.7422 54.4335 49.4957 54.396C50.6899 54.1714 51.9289 54.1115 53.1903 54.1489C53.8247 54.1639 54.4666 54.2088 54.7801 54.2687C55.7579 54.3137 56.4072 54.3885 55.1832 54.718C57.7209 54.5383 58.3777 54.6132 60.3631 56.8444C59.6988 54.7629 60.3631 54.8303 62.4604 55.3843C61.6842 54.9426 62.3485 54.98 63.0351 55.025C63.6696 55.0175 64.3264 55.01 64.9757 54.9651C65.3041 54.9426 65.6251 54.9126 65.5878 54.8827C66.1625 54.8453 66.4834 54.8078 66.0953 54.718C66.0804 54.718 66.0655 54.718 66.0431 54.718C66.0132 54.718 65.9834 54.718 65.9535 54.718C65.9759 54.718 65.9983 54.718 66.0132 54.718C65.9983 54.718 65.9908 54.718 65.9759 54.718C66.0057 54.718 66.0356 54.718 66.0729 54.718C66.0057 54.703 65.9162 54.688 65.8042 54.6731C66.3342 54.6731 66.7297 54.6506 66.9537 54.6431C67.1179 54.6281 67.2746 54.6057 67.4015 54.5907C67.6179 54.5458 67.7523 54.4934 67.8045 54.426C67.7971 54.3436 67.6926 54.2313 67.5134 54.0965C67.4761 54.0965 67.4313 54.0965 67.3791 54.0965C67.1029 54.104 66.6476 54.0366 66.0132 53.9243C66.6252 54.0292 67.0805 54.0965 67.3791 54.0965C67.4239 54.0965 67.4687 54.0965 67.506 54.0816C67.3343 53.9543 67.088 53.7971 66.7596 53.6024C66.67 53.5575 66.5879 53.5125 66.4834 53.4676C66.5506 53.4976 66.6029 53.52 66.6626 53.55C66.6252 53.5275 66.5879 53.505 66.5506 53.4826C66.9984 53.6548 67.3716 53.7896 67.6702 53.8869C67.6254 53.6997 67.3194 53.3703 66.7372 52.8537C66.9089 52.951 67.0656 53.0408 67.2149 53.1232C67.1104 53.0184 66.991 52.9061 66.8566 52.7788C67.4313 53.1531 67.8642 53.4302 68.1703 53.5874C68.4166 53.6773 68.5808 53.6847 68.6554 53.6024C68.5733 53.3104 68.3569 52.8611 68.0135 52.2247C68.1703 52.4044 68.3046 52.5691 68.424 52.7114C68.3494 52.5542 68.2598 52.3745 68.1628 52.1723C67.9016 52.1124 67.6105 52.0151 67.2746 51.8653C67.0955 51.8579 66.9089 51.8429 66.7223 51.8354C66.9387 51.8504 67.1477 51.8579 67.3418 51.8579C67.2821 51.8429 67.2298 51.8204 67.1701 51.8054C67.2373 51.8279 67.3045 51.8429 67.3716 51.8653C67.5508 51.8653 67.715 51.8653 67.8792 51.8504C67.8568 51.8279 67.8344 51.8129 67.8045 51.7905C67.8344 51.8129 67.8642 51.8279 67.8866 51.8429C68.5658 51.783 69.1256 51.5808 69.5809 51.0043C69.7153 51.1615 69.8347 51.2888 69.9541 51.3936C70.0138 51.2963 70.0735 51.199 70.1333 51.0867C70.1556 51.1316 70.178 51.169 70.2004 51.2065C70.2228 51.1765 70.2377 51.1541 70.2601 51.1241C70.2601 51.1316 70.2601 51.1391 70.2676 51.1466C70.2825 51.1241 70.2975 51.1091 70.3198 51.0867C70.3348 51.1016 70.3497 51.1166 70.3572 51.1391C70.3572 51.1391 70.3721 51.1316 70.3796 51.1241C70.4169 51.184 70.4617 51.2439 70.499 51.2963C70.5811 51.3712 70.6632 51.4311 70.7453 51.461C70.7826 51.4161 70.8199 51.3637 70.8572 51.3113C70.8572 51.3712 70.8647 51.4236 70.8722 51.476C70.9841 51.4011 71.0961 51.2739 71.2006 51.1241C71.3723 50.9893 71.4917 50.6374 71.5066 50.1957C71.529 49.3122 71.1259 48.0543 70.4318 46.0552C70.7453 46.7366 71.014 47.3056 71.2528 47.7698C71.0438 47.2906 70.8125 46.759 70.5587 46.175C71.0961 47.3131 71.5365 48.2116 71.9096 48.9004C71.7529 48.279 71.5066 47.5302 71.2006 46.6018C71.7828 48.0843 72.1709 48.9603 72.4247 49.3197C72.6038 49.1475 72.6336 48.3988 72.6112 47.2008C72.7157 47.7773 72.8053 48.1666 72.8799 48.3988C72.8874 48.0993 72.8949 47.7399 72.8949 47.3281C72.977 48.0469 73.0442 48.4661 73.0964 48.6608C73.1113 48.6458 73.1337 48.6234 73.1486 48.5934C73.0889 48.2415 73.0292 47.8447 72.9621 47.4029C73.0367 47.8297 73.1039 48.2116 73.171 48.5485C73.2606 48.3538 73.3502 47.957 73.4621 47.4329C73.3576 48.1142 73.283 48.6009 73.2158 48.7432C73.4099 49.6716 73.589 50.2631 73.8279 50.585C73.9547 50.4802 74.0816 50.323 74.2234 50.1208C74.1189 50.0834 74.0518 49.9411 74.007 49.694C73.9995 49.6491 73.9921 49.6042 73.9846 49.5518C73.9846 49.5368 73.9846 49.5218 73.9846 49.5069C73.9846 49.432 73.9697 49.3496 73.9697 49.2673C73.9697 49.2673 73.9697 49.2598 73.9697 49.2523C73.9697 49.1774 73.9697 49.0951 73.9697 49.0127C73.9697 48.9828 73.9697 48.9528 73.9697 48.9229C73.9697 48.8854 73.9697 48.848 73.9697 48.8105C73.9697 48.5036 73.9697 48.1517 73.9921 47.7474C73.9771 48.1592 73.9697 48.5111 73.9697 48.8105C73.9697 48.848 73.9697 48.8854 73.9697 48.9229C73.9697 48.9528 73.9697 48.9828 73.9697 49.0127C73.9697 49.0951 73.9697 49.1774 73.9697 49.2523C73.9697 49.2523 73.9697 49.2598 73.9697 49.2673C73.9697 49.3571 73.9771 49.4395 73.9846 49.5069C73.9846 49.5218 73.9846 49.5368 73.9846 49.5518C73.9846 49.6042 73.9995 49.6491 74.007 49.694C74.0592 50.001 74.1712 50.0834 74.3503 49.9187C74.425 49.7989 74.4996 49.6716 74.5817 49.5368C74.5668 49.1699 74.5966 48.6758 74.6563 48.0543C74.6265 48.6608 74.619 49.14 74.6713 49.5069C74.7758 49.3496 74.8877 49.155 75.0146 48.9229C74.9027 49.2149 74.7982 49.4694 74.7086 49.7015C74.7161 49.739 74.7235 49.7764 74.7384 49.8064C74.8803 49.6566 75.037 49.4545 75.2236 49.1924C75.0743 49.5143 74.9474 49.7914 74.8355 50.031C74.8653 50.0759 74.8877 50.1208 74.925 50.1583C75.0295 50.0534 75.134 49.9411 75.2535 49.8138C75.1564 49.9636 75.0743 50.0984 74.9922 50.2256C74.9922 50.2256 75.0071 50.2331 75.0146 50.2406C75.2087 50.2181 75.4774 50.0759 75.8506 49.7914C75.6864 50.0085 75.5445 50.2032 75.4177 50.3679C75.44 50.3679 75.4699 50.3679 75.4923 50.3679C75.5445 50.3305 75.5968 50.293 75.6565 50.2556C75.6192 50.293 75.5968 50.3305 75.5595 50.3679C75.7685 50.3529 76.0148 50.2855 76.3059 50.1807C75.2758 51.5659 75.5819 51.7156 77.0672 51.4985C76.8059 51.5883 76.7761 51.6033 76.8955 51.5808C76.8582 51.5659 76.9925 51.5284 77.3433 51.4461C76.8656 51.5284 77.2612 51.4461 77.9106 51.3113C77.4404 51.4386 77.0448 51.5434 76.8955 51.5808C76.9403 51.5958 77.1717 51.5808 77.5747 51.5434C77.7613 51.5733 78.5674 51.5434 79.7616 51.491C78.6943 51.4835 78.0001 51.4685 77.7837 51.4386C77.3583 51.4386 77.403 51.4386 77.8658 51.4236C78.2166 51.4386 78.9779 51.4535 80.09 51.4835C77.1269 51.2065 77.3135 51.1166 80.3289 51.3412C77.6867 50.9369 77.8733 50.8471 80.5976 51.0417C78.4778 50.57 78.8883 50.3829 81.023 50.3754C79.7168 49.9935 80.1273 49.7989 81.3589 49.6791C80.9409 49.402 81.3589 49.1999 81.8664 49.0052C82.1724 48.7956 82.5829 48.5934 82.986 48.3838C84.6131 47.5527 86.2328 46.6692 87.83 45.7333C89.39 44.7974 85.9715 35.2736 87.4867 34.2778C87.5763 34.2179 87.7106 34.2254 87.8674 34.2778C84.1728 31.3803 80.0378 29.2015 75.6938 27.8163C74.2533 27.6217 72.7904 27.5168 71.2976 27.5168C53.1605 27.5168 38.4492 42.2667 38.4492 60.4682L38.5015 60.4607Z" fill="currentColor"/>
</g>
<defs>
<clipPath id="clip0_675_2867">
<rect width="142.1" height="142.1" fill="white"/>
</clipPath>
</defs>
</svg>
