<svg width="143" height="143" viewBox="0 0 143 143" fill="none" xmlns="http://www.w3.org/2000/svg">
<path d="M67.567 29.2425C68.2164 38.0477 68.153 39.126 63.7523 33.6079C67.302 40.5167 66.5144 46.4066 57.3137 46.6483C65.7604 47.9089 65.7903 49.095 60.9604 55.8885C64.7228 52.0549 63.6254 53.8285 60.9678 57.8035C62.3675 56.331 62.2033 57.0561 61.4307 58.7071C61.3 59.2537 60.561 60.7224 59.8033 62.2247C58.7955 64.2252 57.7578 66.2814 56.7314 68.3191C55.7012 70.3605 54.6859 72.3796 54.4508 70.9889C52.7413 76.2356 51.8156 78.0687 47.6725 80.0655C50.136 81.4041 36.165 95.2477 33.541 98.9103C47.1238 86.0745 35.7843 99.9701 34.769 101.617C35.0751 101.379 39.2817 95.7683 35.5342 101.755C35.8104 101.342 48.1316 83.7616 37.1989 101.569C38.6919 99.5164 39.4944 99.0033 39.2817 101.357C40.756 97.5606 41.2114 96.631 40.491 99.3491C42.4805 95.8241 43.7533 90.6146 45.5972 99.2004C43.7384 95.4671 54.3239 81.7128 55.578 82.7874C54.7755 81.4153 53.7528 84.2264 57.3846 86.1897C54.1895 83.862 53.8834 83.1369 56.9889 81.4711C54.5628 82.7316 55.4362 83.096 59.1501 83.7319C55.6825 82.9138 55.0517 82.3709 57.5077 80.5973C54.7494 82.3932 55.5519 82.7651 59.4711 82.8878C56.4253 82.33 58.2617 79.0616 61.0462 76.5814C58.6275 78.8533 57.1532 81.9061 60.0198 81.8652C57.0449 81.9322 58.4073 78.9017 60.8409 76.626C58.4931 78.7009 57.2166 81.5306 60.1131 81.1587C57.5637 81.2963 59.1874 78.2398 61.3373 76.2728C58.8515 78.065 56.8919 80.9505 59.639 80.4969C56.0222 81.1439 57.1121 78.4517 59.8443 76.3732C57.1867 78.4034 56.1678 81.0509 59.7249 80.3593C57.183 80.8055 59.2135 77.9126 61.524 76.2579C59.5905 78.0576 57.937 81.0918 60.2288 80.9282C57.4854 81.3521 58.6872 78.5745 60.8782 76.6C58.6424 78.7418 57.3883 81.6867 60.1952 81.4785C57.6981 81.5789 59.2583 78.5336 61.3747 76.4736C58.8739 78.7343 56.9255 81.9842 59.695 82.3486C55.8468 82.475 54.9509 82.1776 57.6085 80.3853C55.145 82.0809 56.2163 82.2891 59.8257 82.0846C57.0934 81.8392 58.6648 78.7269 60.8596 76.6037C58.7582 78.541 57.728 81.2443 60.393 80.7609C58.5902 80.8687 60.4901 77.7936 62.0241 76.31C60.4117 77.4775 60.2064 77.7787 61.942 77.3028C63.0842 77.0499 49.856 85.1486 60.4938 75.9567C59.1389 77.3176 59.5942 76.5777 61.1731 74.9639C59.1799 75.6518 58.8589 75.3804 60.2213 73.7257C57.9183 74.8561 57.2987 74.5995 58.2431 72.1602C58.1236 74.5214 59.3143 74.6813 60.9492 74.0083C59.863 75.1349 59.2173 75.4287 59.5569 73.8856C59.3516 75.6109 60.9566 75.4101 62.375 75.016C62.6661 75.1461 62.7706 75.0792 62.4683 74.8709C61.3 75.0717 59.7212 75.1312 59.3255 73.2832C59.3778 74.9267 61.0275 74.6404 62.4198 74.1496C63.3567 73.9079 64.0397 73.4654 64.2823 72.8333C64.7676 71.569 63.491 69.5573 60.7999 65.9133C66.3427 70.8997 66.2233 69.3603 64.7489 63.3662C66.5816 69.8474 66.981 71.5058 63.4388 64.2772C67.5446 73.1493 67.7051 73.1307 66.339 63.3848C67.929 71.4128 67.985 69.7135 68.0074 62.8605C67.985 69.7172 67.9514 71.4128 67.4587 63.2621C68.0821 73.1419 68.25 66.3707 70.8404 56.7884C68.9219 64.7792 69.4295 63.158 71.4563 56.5578C69.7207 63.3365 69.5079 71.9408 77.2866 68.2373C74.838 70.2601 73.2815 71.6694 72.5985 72.718C71.9154 73.7666 72.1095 74.4508 73.0986 74.3095C73.6585 74.9527 74.4199 75.3878 75.3941 75.6035C76.4654 75.8861 77.7531 75.9493 78.6639 75.0643C77.7046 75.8786 76.6334 75.7857 75.9167 75.4659C75.4315 75.3171 75.3008 74.9416 75.5136 74.4061C75.6256 74.6404 76.0809 74.711 76.6744 74.5958C77.4993 74.685 78.4623 74.5883 79.1864 73.9079C78.69 74.7259 77.9547 74.9639 77.1783 74.83C76.932 75.187 76.6483 75.1758 76.5288 74.8152C76.3795 75.7931 76.3907 76.4289 76.3721 76.4773C77.2828 77.1243 78.1637 77.1912 78.5929 75.9418C77.9771 77.5445 76.9133 77.8345 75.8159 77.4292C75.7039 77.5184 75.5621 76.9123 75.6629 75.6741C75.4837 77.2098 75.5509 78.1134 75.5584 78.2361C76.6931 78.8087 77.7681 78.6005 78.2346 76.8714C77.7382 78.6711 77.1484 79.2363 76.3124 79.0355C77.7718 79.6193 78.9811 79.4371 79.2051 77.511C79.164 79.5301 78.1264 79.8015 76.4094 79.0839C77.1149 79.1954 77.1484 78.3104 76.9954 76.2951C76.8498 78.1803 76.5176 78.9351 75.913 78.7827C77.0439 79.2512 77.8987 78.8124 78.2085 76.8826C77.8464 78.6563 76.9357 78.9389 75.8458 78.3737C76.2302 78.396 76.4318 77.5668 76.6371 75.8637C76.7341 77.3883 76.8349 78.039 76.4654 77.7564C77.8614 78.3625 78.7908 78.0353 78.9737 76.1724C78.8617 78.0836 78.0107 78.4517 76.6035 77.8419C77.1522 78.2063 77.1447 77.5891 77.0066 75.9604C76.8909 77.7936 76.6408 78.6116 76.0511 78.5112C77.2231 79.1025 78.0517 78.7715 78.2682 76.9012C77.7345 78.7418 77.1074 79.3256 76.2713 79.1582C77.7419 79.7495 78.9998 79.5896 79.2797 77.7081C79.2797 79.8461 78.6041 80.3816 77.0551 80.1511C78.955 80.7274 79.974 80.534 79.8807 78.8087C80.6272 80.9319 80.2166 81.4971 78.2981 81.6161C80.657 81.9879 81.5081 81.9136 81.3849 81.3038C82.0269 82.2259 81.691 82.6126 79.8881 83.3935C82.0605 83.0849 82.7697 83.1667 83.031 84.152C84.0947 83.9736 102.074 108.195 103.941 110.921C103.941 109.419 74.2035 68.8509 106.889 112.14C69.9969 60.8154 108.222 111.806 108.968 112.735C104.236 105.633 89.1038 86.2529 112.182 112.445C110.764 110.508 90.8656 89.4842 101.149 94.9391C98.7973 92.4217 86.4836 81.3818 86.1588 77.9981C84.8039 78.0464 83.8782 76.2133 82.6054 73.1493C81.9373 72.3573 80.9183 70.3382 79.8919 68.3005C78.8654 66.2629 77.8278 64.2066 76.82 62.2024C76.0623 60.7001 75.3232 59.2314 75.2187 58.7963C74.405 57.071 74.2296 56.3794 75.5882 58.0192C72.9717 53.8769 71.8855 52.066 75.3232 56.2827C70.721 49.0616 70.6389 47.868 79.0334 46.4698C69.8849 46.3657 69.2093 40.4869 70.5418 32.9498C68.3732 39.1037 68.2164 38.0254 67.567 29.2202V29.2425Z" fill="currentColor"/>
</svg>
