<svg width="143" height="143" viewBox="0 0 143 143" fill="none" xmlns="http://www.w3.org/2000/svg">
<path d="M84.2943 88.6518C83.9371 88.6518 83.572 88.6001 83.2243 88.4652C81.8868 87.8989 81.1803 86.0904 81.1504 86.0136C80.9568 85.5101 80.8813 85.336 80.8561 85.2779C80.7303 85.1117 80.7633 84.8654 80.8671 84.4811C80.9002 84.3494 80.8624 83.791 80.8278 83.6341C80.79 83.5369 80.6862 83.2106 80.8561 82.9738C80.9442 82.8514 81.0843 82.7808 81.2338 82.7887C81.3392 82.7777 81.7971 82.6632 82.1071 82.5173C82.1968 82.475 84.3116 81.4978 85.8269 82.1817C87.5687 83.0051 87.7639 85.9618 87.7717 86.0873C87.7985 86.5312 87.8252 86.8778 87.8315 86.9327C87.8614 87.1508 87.8677 87.3735 87.7198 87.5413C87.6443 87.6276 87.5373 87.6809 87.424 87.6903C87.3201 87.7201 86.9551 87.877 86.6183 88.0558C86.5601 88.0872 85.4744 88.6518 84.2958 88.6518H84.2943ZM81.5689 84.947C81.6303 85.0787 81.7216 85.3077 81.8852 85.7344C81.8915 85.7501 82.5036 87.3092 83.5201 87.7405C84.6656 88.1828 86.2328 87.3719 86.2486 87.3641C86.387 87.2904 86.7489 87.1037 87.0463 86.9939C87.0306 86.8402 87.0039 86.4575 86.985 86.1343C86.9409 85.4081 86.5853 83.4098 85.4949 82.8938C84.3194 82.3636 82.4595 83.2185 82.4422 83.2279C82.2235 83.3298 81.8852 83.4443 81.6036 83.5133C81.6618 83.8286 81.6948 84.4388 81.6272 84.6866C81.5973 84.7995 81.5784 84.8905 81.5705 84.947H81.5689ZM87.3846 86.9092C87.3658 86.9092 87.3469 86.9092 87.3296 86.9139C87.35 86.9108 87.3705 86.9076 87.3862 86.9092H87.3846ZM80.831 83.6451C80.831 83.6451 80.8357 83.6561 80.8373 83.6592C80.8373 83.6561 80.8341 83.6514 80.831 83.6451ZM81.1944 83.5714C81.1944 83.5714 81.2023 83.5714 81.207 83.5714C81.2023 83.5714 81.1976 83.5714 81.1944 83.5714ZM81.2416 82.7887C81.2416 82.7887 81.2511 82.7887 81.2558 82.7887C81.2511 82.7887 81.2479 82.7887 81.2416 82.7887Z" fill="currentColor"/>
<path d="M89.8973 76.0848C88.7219 76.0848 87.5748 75.4589 87.5165 75.426C87.0429 75.1641 86.873 75.0778 86.8163 75.0511C86.6133 75.0041 86.478 74.7955 86.3097 74.4331C86.2499 74.3108 85.8612 73.9061 85.7338 73.8089C85.6425 73.7587 85.353 73.5751 85.3294 73.2834C85.3183 73.1344 85.3813 72.9917 85.4993 72.8991C85.5733 72.8223 85.8502 72.4427 85.9934 72.1321C86.0343 72.0427 87.0256 69.9393 88.6259 69.4923C90.4905 69.0076 92.5486 71.1471 92.6352 71.238C92.942 71.5612 93.1859 71.8106 93.2268 71.8466C93.3905 71.9941 93.54 72.1619 93.5337 72.3846C93.5305 72.4991 93.4833 72.6089 93.4031 72.6889C93.3433 72.7783 93.1639 73.1328 93.0207 73.4857C92.9877 73.5657 92.204 75.4574 90.6856 75.9734C90.4291 76.0519 90.1632 76.0832 89.8973 76.0832V76.0848ZM87.1483 74.3406C87.2805 74.4018 87.4977 74.5194 87.8989 74.7406C87.9131 74.7484 89.389 75.5499 90.4449 75.2284C91.6077 74.8331 92.2859 73.2081 92.2922 73.1924C92.3504 73.0481 92.5077 72.6732 92.6651 72.3987C92.5455 72.2827 92.2513 71.9768 92.064 71.7807C91.5621 71.2522 90.0011 69.9487 88.832 70.253C87.5889 70.5996 86.7172 72.4458 86.7078 72.4646C86.6055 72.6858 86.4214 72.9901 86.2499 73.2207C86.4969 73.4246 86.9155 73.87 87.024 74.1037C87.0744 74.2104 87.1184 74.292 87.1483 74.3406ZM85.7416 73.8167C85.7416 73.8167 85.7526 73.823 85.7574 73.8245C85.7542 73.823 85.7495 73.8198 85.7416 73.8167ZM85.5166 72.8897C85.5166 72.8897 85.5103 72.8944 85.5056 72.8975C85.5087 72.8944 85.5135 72.8913 85.5166 72.8897ZM92.8681 72.118C92.8523 72.1305 92.8397 72.1431 92.8272 72.1572C92.8413 72.1415 92.8539 72.129 92.8681 72.118Z" fill="currentColor"/>
<path d="M84.6009 63.4378C84.4435 63.4378 84.2516 63.3656 83.9982 63.248C83.8739 63.1931 83.3153 63.1319 83.1548 63.1397C83.0526 63.1601 82.7127 63.2056 82.5066 62.997C82.4011 62.8903 82.3586 62.7413 82.3885 62.5939C82.3964 62.4872 82.3634 62.0198 82.2721 61.6904C82.2469 61.5947 81.6474 59.3486 82.5868 57.9809C83.7024 56.4139 86.6575 56.7354 86.7834 56.7496C87.2255 56.8013 87.5733 56.8343 87.6283 56.8374C87.8471 56.8452 88.0705 56.8782 88.2105 57.0523C88.2829 57.1417 88.3175 57.2562 88.3065 57.3691C88.3175 57.4758 88.4104 57.8632 88.5268 58.224C88.5536 58.3071 89.172 60.2584 88.3427 61.6245C87.5512 62.8386 85.641 63.2197 85.5607 63.2354C85.0289 63.3374 84.8448 63.3813 84.7834 63.397C84.7284 63.4252 84.667 63.4378 84.6009 63.4378ZM83.18 63.1335C83.18 63.1335 83.1706 63.135 83.1643 63.1366C83.1706 63.1366 83.1753 63.1335 83.18 63.1335ZM83.1784 62.3555C83.5026 62.3555 84.099 62.4276 84.3303 62.5359C84.4373 62.5861 84.5238 62.619 84.5789 62.6378C84.7189 62.6002 84.9612 62.55 85.4113 62.4637C85.427 62.4606 87.0745 62.1296 87.6771 61.2057C88.316 60.1517 87.7841 58.4796 87.7794 58.4624C87.7306 58.3134 87.6095 57.926 87.5528 57.6154C87.3986 57.6044 87.0147 57.5636 86.6937 57.526C85.9683 57.4444 83.9322 57.4444 83.2335 58.4263C82.505 59.4882 83.0274 61.4614 83.0337 61.4818C83.0982 61.7171 83.1517 62.0684 83.1706 62.3539H83.1816L83.1784 62.3555ZM82.3917 62.5704C82.3917 62.5704 82.3901 62.5782 82.3885 62.5845C82.3885 62.5798 82.3901 62.5751 82.3917 62.5704ZM87.5261 57.2672C87.5229 57.286 87.5213 57.3064 87.5198 57.3236C87.5198 57.3032 87.5229 57.2829 87.5261 57.2672Z" fill="currentColor"/>
<path d="M73.7581 56.9251C73.7424 56.9251 73.7282 56.9251 73.7125 56.9235C73.563 56.9094 73.434 56.8232 73.3631 56.6914C73.3002 56.6051 72.9729 56.2679 72.6913 56.0734C72.6094 56.0169 70.7039 54.679 70.5403 53.0305C70.3845 51.1153 72.8565 49.4668 72.9603 49.3977C73.3317 49.153 73.6212 48.957 73.6637 48.9225C73.8368 48.7891 74.0287 48.6699 74.2475 48.7139C74.3608 48.7358 74.4599 48.8017 74.526 48.8942C74.6031 48.9695 74.9225 49.2064 75.2466 49.4071C75.3206 49.4526 77.053 50.5506 77.2985 52.1301C77.4747 53.5685 76.2584 55.0821 76.2065 55.1464C75.865 55.5652 75.7517 55.7173 75.7156 55.7675C75.6337 55.9589 75.404 56.0546 75.0185 56.1565C74.8879 56.1942 74.4205 56.5047 74.301 56.6145C74.238 56.6914 74.0272 56.922 73.7581 56.922V56.9251ZM73.3521 56.671C73.3521 56.671 73.3553 56.6789 73.3584 56.6836C73.3569 56.6789 73.3537 56.6757 73.3521 56.671ZM74.3167 56.5973C74.3167 56.5973 74.312 56.6051 74.3073 56.6098C74.312 56.6051 74.3151 56.6004 74.3167 56.5973ZM74.109 49.5703C73.9831 49.6597 73.6637 49.8746 73.393 50.0518C72.7841 50.4534 71.2247 51.7584 71.3223 52.9599C71.4277 54.0249 72.6692 55.104 73.1381 55.4287C73.338 55.5668 73.607 55.802 73.8053 56.0091C74.0508 55.802 74.5622 55.4695 74.8124 55.4021C74.9256 55.3723 75.0138 55.3425 75.0673 55.3205C75.1507 55.2013 75.3033 55.0084 75.5928 54.6539C75.6038 54.6413 76.6518 53.3332 76.518 52.2399C76.3292 51.0227 74.8423 50.0832 74.8281 50.0738C74.6943 49.9906 74.3513 49.771 74.1074 49.5703H74.109ZM73.8651 49.3193C73.8745 49.3366 73.8856 49.3523 73.8966 49.3664C73.884 49.3507 73.873 49.335 73.8651 49.3193Z" fill="currentColor"/>
<path d="M62.8076 57.9825C62.751 57.9825 62.6943 57.9715 62.6408 57.9511C62.537 57.926 62.0697 57.8758 61.7282 57.9072C61.6291 57.9166 59.3066 58.1127 58.1186 56.9551C56.7638 55.5873 57.5946 52.742 57.6308 52.6212C57.7582 52.1962 57.8526 51.8605 57.8636 51.8072C57.9109 51.5923 57.9817 51.3805 58.1768 51.2723C58.2775 51.2174 58.3955 51.2033 58.5056 51.2331C58.6126 51.2409 59.0107 51.2174 59.3884 51.1641C59.4749 51.1515 61.5095 50.8833 62.7164 51.9358C63.7785 52.924 63.8225 54.8642 63.8241 54.9458C63.8336 55.4854 63.843 55.6752 63.8493 55.7363C63.9107 55.9355 63.7958 56.1567 63.5661 56.4814C63.4905 56.5943 63.3332 57.1308 63.3127 57.2907C63.3143 57.3943 63.3001 57.7362 63.0594 57.9025C62.9839 57.9542 62.8957 57.9809 62.8076 57.9809V57.9825ZM62.6204 57.9417C62.6204 57.9417 62.6282 57.9448 62.633 57.948C62.6282 57.9464 62.6251 57.9448 62.6204 57.9417ZM63.3127 57.2672C63.3127 57.2672 63.3127 57.2766 63.3127 57.2829C63.3127 57.2766 63.3127 57.2704 63.3127 57.2672ZM61.98 57.1135C62.1656 57.1135 62.367 57.1245 62.5433 57.1433C62.5968 56.828 62.7746 56.2445 62.9241 56.0328C62.9917 55.9355 63.0405 55.8571 63.0673 55.8069C63.0547 55.6626 63.0468 55.4163 63.0405 54.9583C63.0405 54.9427 62.9996 53.2675 62.1924 52.5161C61.2672 51.7099 59.5174 51.9374 59.5001 51.9389C59.3443 51.9609 58.9399 52.0126 58.6237 52.0142C58.5859 52.1632 58.4789 52.5334 58.3861 52.8424C58.1784 53.5404 57.8259 55.5387 58.6756 56.3967C59.5992 57.297 61.6385 57.126 61.659 57.1245C61.7534 57.1166 61.8635 57.1119 61.9815 57.1119L61.98 57.1135ZM58.2743 51.9813C58.2932 51.9875 58.3121 51.9938 58.3294 51.997C58.309 51.9922 58.2901 51.9875 58.2743 51.9813Z" fill="currentColor"/>
<path d="M51.3171 67.9284C51.2557 67.9284 51.1944 67.9268 51.133 67.9221C49.2133 67.7417 48.0143 65.0297 47.9655 64.9152C47.7893 64.5074 47.6445 64.1906 47.6194 64.1419C47.5171 63.9474 47.4337 63.7404 47.5155 63.5318C47.558 63.4251 47.6398 63.3389 47.7421 63.2902C47.8302 63.2275 48.1197 62.9546 48.3746 62.6722C48.4329 62.6079 49.8191 61.099 51.421 61.1304C52.8717 61.2072 54.1573 62.6644 54.2108 62.7271C54.5649 63.1349 54.6955 63.273 54.7395 63.3169C54.9142 63.4298 54.9692 63.6729 55.0039 64.0698C55.018 64.2047 55.2446 64.7176 55.3312 64.8525C55.3988 64.9309 55.6097 65.2023 55.531 65.483C55.4901 65.6273 55.3831 65.7387 55.2399 65.7858C55.1439 65.8328 54.7537 66.0948 54.5129 66.3379C54.4453 66.4053 52.9111 67.9284 51.3171 67.9284ZM48.3353 63.8173C48.403 63.9553 48.5587 64.3082 48.6878 64.6031C48.9789 65.2697 49.9985 67.028 51.2007 67.141C52.491 67.2398 53.9402 65.8014 53.9559 65.7858C54.1274 65.6132 54.4059 65.3905 54.6451 65.2305C54.483 64.9544 54.2423 64.3929 54.2203 64.1357C54.2092 64.018 54.1951 63.9271 54.1841 63.8706C54.0818 63.7686 53.9166 63.5835 53.616 63.2385C53.605 63.2259 52.4941 61.9695 51.3911 61.9115C51.3785 61.9115 51.3675 61.9115 51.3549 61.9115C50.1323 61.9115 48.9679 63.182 48.9568 63.1946C48.8514 63.3106 48.5745 63.6102 48.3337 63.8141L48.3353 63.8173ZM55.232 65.7905C55.232 65.7905 55.2226 65.7936 55.2194 65.7936C55.2226 65.7936 55.2273 65.792 55.232 65.7905ZM55.3138 64.8352C55.3138 64.8352 55.3201 64.8415 55.3249 64.8462C55.3201 64.8415 55.317 64.8384 55.3138 64.8352ZM48.0961 63.9898C48.0773 63.9992 48.0599 64.007 48.0442 64.0133C48.0631 64.007 48.0804 63.9992 48.0961 63.9898ZM54.6278 63.2683C54.6278 63.2683 54.6278 63.2683 54.6294 63.2683C54.6294 63.2683 54.6294 63.2683 54.6278 63.2683Z" fill="currentColor"/>
<path d="M51.2763 81.2327C49.9262 81.2327 48.5683 80.5661 48.488 80.5253C48.0899 80.3261 47.7737 80.1756 47.7233 80.1552C47.5188 80.072 47.3221 79.9654 47.2497 79.7552C47.2135 79.647 47.2198 79.5278 47.2686 79.4242C47.2953 79.3207 47.3409 78.9254 47.3551 78.5459C47.3583 78.4596 47.4464 76.4142 48.6957 75.4119C49.857 74.5414 51.7814 74.8347 51.8632 74.8473C52.3966 74.932 52.587 74.9539 52.6484 74.9602C52.8561 74.9351 53.0544 75.0857 53.336 75.368C53.4336 75.4621 53.9371 75.7099 54.0913 75.757C54.1952 75.7743 54.5303 75.8464 54.6515 76.1131C54.7129 76.2495 54.7034 76.4048 54.6247 76.5319C54.5823 76.6291 54.4517 77.0808 54.4233 77.4212C54.4155 77.5185 54.2062 79.8336 52.8545 80.7998C52.3904 81.1198 51.8349 81.2327 51.2763 81.2327ZM48.0648 79.4478C48.2174 79.5168 48.5982 79.7034 48.8421 79.8242C49.4951 80.1489 51.4085 80.8422 52.4029 80.1583C53.4525 79.4085 53.6381 77.3757 53.6397 77.3553C53.6602 77.1138 53.7294 76.764 53.8112 76.4879C53.5091 76.3797 52.9631 76.1036 52.7806 75.9217C52.6972 75.8386 52.628 75.7774 52.5823 75.7413C52.4376 75.7288 52.1937 75.6927 51.7405 75.6205C51.7248 75.6174 50.0631 75.368 49.1804 76.0299C48.2174 76.8016 48.1434 78.5553 48.1434 78.5725C48.1371 78.7294 48.1183 79.1356 48.0663 79.4462L48.0648 79.4478ZM47.9924 79.7332C47.9845 79.7521 47.9766 79.7693 47.9672 79.785C47.9766 79.7677 47.9861 79.7505 47.9924 79.7332ZM54.62 76.5397C54.62 76.5397 54.6153 76.5475 54.6122 76.5507C54.6137 76.5475 54.6169 76.5428 54.62 76.5397ZM53.9639 76.1084C53.9639 76.1084 53.9623 76.1115 53.9607 76.1131C53.9607 76.1131 53.9623 76.1099 53.9639 76.1084ZM54.0661 75.7554C54.0661 75.7554 54.0756 75.7554 54.0835 75.757C54.0772 75.757 54.0709 75.7554 54.0661 75.7554Z" fill="currentColor"/>
<path d="M57.7806 92.4226C57.6878 92.4226 57.5965 92.4038 57.5116 92.352C57.4124 92.2924 57.3416 92.1967 57.3117 92.0869C57.2645 91.9897 57.0458 91.6587 56.8113 91.3591C56.7578 91.2901 55.5069 89.6682 55.8169 88.0997C56.1442 86.688 57.8074 85.6795 57.8782 85.6371C58.3424 85.3595 58.5013 85.256 58.5532 85.2199C58.6964 85.0677 58.945 85.0568 59.3431 85.0913C59.4784 85.0991 60.0245 84.9674 60.1739 84.9062C60.2636 84.8529 60.5673 84.6944 60.8317 84.8199C60.967 84.8842 61.0598 85.0097 61.0803 85.1587C61.1102 85.2607 61.3021 85.6904 61.4988 85.9681C61.5555 86.0481 62.8882 87.9554 62.476 89.5616C61.9646 91.414 59.0772 92.1198 58.9545 92.1496C58.5202 92.2532 58.1819 92.3394 58.1299 92.3551C58.0135 92.3928 57.8939 92.4226 57.7791 92.4226H57.7806ZM58.0654 91.8595C58.0717 91.8799 58.0764 91.8987 58.0796 91.9159C58.0764 91.8955 58.0717 91.8783 58.0654 91.8595ZM59.008 85.863C58.89 85.9461 58.6791 86.0747 58.2857 86.31C58.2716 86.3179 56.8381 87.1915 56.5879 88.2644C56.3503 89.4659 57.4219 90.8635 57.4329 90.8776C57.5289 90.9999 57.7759 91.3246 57.9364 91.596C58.0969 91.5505 58.5107 91.4501 58.7735 91.3873C59.4832 91.2179 61.3966 90.5215 61.716 89.3608C62.037 88.1138 60.8679 86.4386 60.8568 86.4214C60.7168 86.2222 60.5437 85.9116 60.4289 85.6481C60.1283 85.7595 59.5319 85.8975 59.2739 85.8755C59.1559 85.8646 59.063 85.863 59.0064 85.8646L59.008 85.863ZM61.0834 85.1681C61.0834 85.1681 61.0834 85.1775 61.0834 85.1822C61.0834 85.1791 61.0834 85.1744 61.0834 85.1681ZM60.1676 84.9125C60.1676 84.9125 60.1566 84.9187 60.1535 84.9219C60.1566 84.9203 60.1614 84.9172 60.1676 84.9125Z" fill="currentColor"/>
<path d="M73.4251 95.431C73.3338 95.431 73.2441 95.4028 73.1686 95.351C73.071 95.3071 72.6887 95.1942 72.3158 95.1142C72.2308 95.0953 70.2261 94.6546 69.4535 93.2539C68.7942 91.963 69.4189 90.1247 69.4457 90.0462C69.6219 89.5365 69.677 89.3545 69.6943 89.2949C69.7053 89.0879 69.8894 88.9185 70.2167 88.691C70.3268 88.611 70.6588 88.1593 70.7328 88.0166C70.7674 87.9193 70.8964 87.6009 71.1812 87.5287C71.3276 87.4911 71.4786 87.5288 71.5904 87.6276C71.6785 87.6872 72.1018 87.8926 72.4338 87.9805C72.5297 88.0056 74.7799 88.6126 75.499 90.1058C76.303 91.8532 74.5454 94.2436 74.4699 94.344C74.204 94.7016 74.001 94.984 73.9711 95.0295C73.8531 95.2145 73.7146 95.3902 73.4927 95.4247C73.4707 95.4279 73.4471 95.4294 73.4251 95.4294V95.431ZM73.5997 94.6938C73.617 94.7048 73.6328 94.7158 73.6454 94.7267C73.6296 94.7142 73.6155 94.7032 73.5997 94.6938ZM70.4543 89.4957C70.4165 89.6353 70.3394 89.869 70.1884 90.3019C70.1836 90.3176 69.6471 91.9049 70.1474 92.8868C70.7407 93.9597 72.4621 94.3424 72.4794 94.3471C72.632 94.3801 73.0301 94.4695 73.3291 94.5746C73.4235 94.4366 73.6737 94.0946 73.8358 93.8782C74.2701 93.2931 75.2865 91.5348 74.783 90.4399C74.2244 89.2792 72.2497 88.7444 72.2292 88.7397C71.9932 88.6769 71.6612 88.5483 71.4031 88.4212C71.2442 88.7004 70.876 89.1867 70.6651 89.3341C70.5692 89.4016 70.4968 89.4596 70.4527 89.4973L70.4543 89.4957ZM71.0554 88.2032C71.0554 88.2032 71.0585 88.2064 71.0601 88.2079C71.0601 88.2079 71.0569 88.2048 71.0554 88.2032ZM70.7297 88.026C70.7297 88.026 70.7265 88.037 70.7249 88.0401C70.7249 88.037 70.7281 88.0322 70.7297 88.026ZM71.5967 87.6338C71.5967 87.6338 71.6029 87.6401 71.6061 87.6433C71.6029 87.6401 71.5998 87.637 71.5967 87.6338Z" fill="currentColor"/>
<path d="M85.2005 125.69L84.4169 125.646C84.4169 122.537 84.6576 119.392 86.069 116.846C86.5804 115.772 87.2917 114.765 88.2956 113.864C88.7472 113.132 88.755 112.53 88.7204 111.929C88.5694 110.539 88.1366 109.204 87.471 107.989C86.3302 106.434 84.6765 105.333 82.9566 104.188C82.6844 104.006 82.4106 103.824 82.1368 103.639C81.6349 103.437 81.3705 102.839 81.3642 102.322C81.2195 101.506 81.0952 100.748 80.9929 100.113L80.653 98.0113L80.118 94.9888C79.9103 95.6475 79.6003 96.2765 79.1928 96.8584C78.148 98.3454 76.5855 99.3367 74.7932 99.652C72.9994 99.9673 71.1915 99.5673 69.6998 98.5258C68.452 97.6552 67.5504 96.4224 67.1051 94.995L60.7544 104.34C60.1013 105.302 59.5129 106.169 58.9448 107.048C58.7576 107.386 58.7591 107.672 58.7623 108.031C58.7623 108.155 58.7639 108.282 58.7576 108.42C59.0439 113.998 55.2911 119.235 50.0198 120.606L49.8169 119.848C56.0354 118.158 58.6065 111.427 57.4972 105.896L57.4783 105.802L57.505 105.71C57.6089 105.357 57.8166 104.985 58.1565 104.54C58.52 103.893 58.8787 103.272 59.195 102.725L62.984 96.1714C62.4003 96.5432 61.7567 96.8271 61.0691 97.0106C59.3099 97.4796 57.4736 97.2396 55.8969 96.3314C52.8994 94.606 51.7129 90.9372 53.0127 87.8347L31.1393 93.9378C30.3116 94.1182 30.0441 94.3206 30.011 94.3833L30.0032 94.4037C29.4524 95.7291 28.6783 96.9478 27.6996 98.027C27.5815 98.1572 27.4667 98.2858 27.3518 98.4144C27.0119 98.794 26.6909 99.1532 26.3385 99.503C24.4833 101.624 21.6289 102.938 18.6991 103.018C16.0398 103.089 13.6292 102.16 11.9141 100.397L12.4742 99.8465C14.043 101.41 16.2208 102.202 18.6062 102.08C21.4181 101.936 24.2504 100.513 25.9986 98.3689L26.0112 98.3548C26.329 98.0003 26.6264 97.6317 26.9395 97.2412C27.0591 97.0922 27.1803 96.9431 27.303 96.791C28.1873 95.7103 28.8876 94.5041 29.3864 93.2069L29.4021 93.1724C29.6067 92.7646 30.2313 92.5183 30.5901 92.432C30.8261 92.3442 31.0637 92.2579 31.2998 92.1717C31.5783 92.0697 31.8536 91.9693 32.1227 91.8674L46.2088 87.1445L49.1072 86.092C46.6604 85.7768 44.4669 84.1439 43.5669 81.6766C42.9438 79.9716 43.0256 78.1271 43.795 76.4817C44.4276 75.1296 45.4629 74.0457 46.7627 73.3587L40.8541 71.1691C40.4513 71.0232 40.0359 70.8726 39.6158 70.7252C39.4301 70.675 39.2554 70.6013 39.0871 70.5307C38.7 70.3691 38.5033 70.3032 38.3758 70.3989C34.206 73.434 29.1377 73.5611 25.1473 70.733C24.7193 70.4287 24.1119 69.9597 23.7925 69.3856L23.7485 69.3056L23.7437 69.2147C23.5895 65.9992 22.7099 63.3264 21.1254 61.2544C20.4488 60.4889 19.662 59.8192 18.7982 59.2859C17.8022 58.6694 16.74 58.2632 15.6653 58.075C14.6126 57.904 13.5395 57.926 12.5151 58.1612L12.3358 57.3974C13.5332 57.1119 14.7747 57.0962 15.9958 57.3378C17.8871 57.6875 19.7014 58.6051 21.0876 59.9854L21.1002 59.9996C21.3268 60.2474 21.5424 60.5062 21.747 60.7728C22.9664 62.1626 23.8555 63.8409 24.2661 65.6023C24.3149 65.7482 24.3606 65.8925 24.4078 66.0368C24.5242 66.4023 24.6343 66.7474 24.7948 67.1066C25.1111 67.4156 25.4541 67.7104 25.8145 67.9802C26.5761 68.5527 27.4195 69.0249 28.3211 69.3841C31.9874 70.7126 35.6379 69.2696 38.7708 67.8124C39.3089 67.5442 39.8203 67.734 40.2735 67.9002C40.3286 67.9206 40.3836 67.941 40.4403 67.9614L42.0642 68.4335L44.9626 69.486C44.4937 68.9778 44.1019 68.3959 43.8013 67.7528C43.0319 66.1074 42.9516 64.2628 43.5732 62.5578C44.1947 60.8528 45.4472 59.4914 47.0978 58.7243C48.4731 58.0844 49.9899 57.9228 51.447 58.2459L43.8155 43.0971C43.7478 42.9904 43.6912 42.8806 43.6408 42.7849C43.5857 42.6783 43.5039 42.5214 43.4536 42.4759L43.3938 42.4681C42.6243 42.3191 41.8706 42.1026 41.1499 41.8234C40.4781 41.5631 39.8062 41.2352 39.1532 40.8509C37.0997 39.9161 35.3201 38.2629 34.1415 36.1924C33.767 35.5352 33.4507 34.8309 33.199 34.0984C32.0503 31.1025 32.332 27.7176 33.959 25.0543L34.6372 25.4527C33.0023 28.3043 33.1958 32.1503 35.1423 35.4881C35.5026 36.0936 35.907 36.6583 36.346 37.1649C37.2791 38.2393 38.3806 39.0754 39.6205 39.6479C40.1854 39.9286 40.7849 40.1671 41.4127 40.3584C42.0484 40.5702 42.7062 40.7145 43.3812 40.7898C44.0987 40.7992 44.8823 41.229 45.293 41.8407C45.4991 42.1387 45.7556 42.5748 46.0027 42.9983L50.9608 51.4417L52.5091 54.1144C52.3958 51.6581 53.6279 49.2222 55.9079 47.9093C57.4846 47.0027 59.3209 46.7612 61.0801 47.2302C62.5466 47.6223 63.8117 48.4677 64.7196 49.6488L67.2514 38.9452C67.3615 38.3727 67.4685 37.8002 67.574 37.2292C65.8746 34.9125 64.9368 32.0735 64.9336 29.2109C64.9336 28.6117 64.9965 27.8494 65.4749 27.1749C65.4906 27.1389 65.5079 27.1028 65.5268 27.0667L65.574 26.971L65.6637 26.913C65.7534 26.855 65.8431 26.7953 65.9312 26.7342C68.976 24.1116 70.5967 20.4522 71.8775 17.2085L72.6202 17.4626C71.2292 22.1776 69.1963 25.4182 66.4127 27.3537C66.3293 27.4243 66.2459 27.4949 66.1609 27.5639C66.1609 27.5639 66.1594 27.5671 66.1578 27.5671C65.9485 28.069 65.917 28.5976 65.9155 29.0572C65.9643 31.6798 67.1633 34.3447 69.4779 36.9657L69.5094 37.0065C69.7313 37.339 69.6825 37.6308 69.651 37.8237C69.6353 37.9225 69.6258 37.9805 69.6384 38.037L69.6541 38.1076L68.7321 44.1135L68.1955 47.1502C68.6156 46.6027 69.1239 46.1165 69.7061 45.7087C71.1978 44.6672 73.0057 44.2688 74.7995 44.5825C76.5918 44.8978 78.1543 45.8891 79.1991 47.376C80.0614 48.6042 80.4846 50.0488 80.428 51.5201L95.6014 39.4267C95.913 39.1538 96.3142 38.7977 96.6745 38.4511C96.9326 38.2033 97.0301 38.0229 97.1403 37.8033C97.4251 34.3776 99.1764 31.3331 102.076 29.2266L102.102 29.2093C102.58 28.9144 103.348 28.5631 104.47 28.9113C107.779 29.981 111.414 29.087 113.522 26.6856L114.125 27.1891C111.917 29.9387 107.909 31.1496 104.147 30.2038C103.474 30.1065 103.019 30.3983 102.541 30.7622C99.9569 33.013 98.3897 36.114 98.1253 39.4957C98.1174 39.9271 97.7917 40.1357 97.5762 40.2753C97.4094 40.382 97.3071 40.4525 97.2725 40.5639L97.2426 40.6643L97.167 40.7364C96.8445 41.0407 96.4889 41.3717 96.0782 41.7481C95.71 42.0854 95.3402 42.421 94.9736 42.752L87.0745 49.8904L84.7001 51.8777C85.3751 51.7271 86.0785 51.6801 86.7866 51.7412C88.6008 51.8997 90.2436 52.7514 91.4143 54.1427C92.585 55.534 93.142 57.2938 92.9831 59.1024C92.8509 60.6019 92.2404 61.9853 91.2396 63.0786L108.88 63.764C109.266 63.7734 109.56 63.7593 109.873 63.7452C109.98 63.7405 110.087 63.7358 110.2 63.7311C110.314 63.7217 110.422 63.7264 110.518 63.7311C110.644 63.7358 110.775 63.7421 110.817 63.7091C114.608 59.3737 121.36 58.5079 126.197 61.7391C127.061 62.2833 127.858 62.9029 128.574 63.5868C128.878 63.7954 129.174 64.0103 129.462 64.2315C129.858 64.3805 130.324 64.5044 130.886 64.6126L130.747 65.3843C130.603 65.3608 130.458 65.3404 130.316 65.32C129.761 65.2416 129.237 65.1679 128.785 64.9059L128.732 64.8745L128.691 64.8291C128.494 64.6126 128.29 64.4009 128.077 64.1954C127.338 63.6903 126.543 63.2213 125.673 62.7712L125.654 62.7602C120.752 59.8631 114.111 61.1305 110.85 65.5835L110.743 65.7294L110.562 65.7435C110.441 65.7529 110.353 65.7655 110.265 65.7765C110.106 65.7968 109.942 65.8188 109.647 65.8251L97.3889 66.0713H94.2875C96.4778 67.2022 97.979 69.4845 97.979 72.1086C97.979 75.5437 95.4078 78.3906 92.0846 78.8407L103.598 89.2181C103.732 89.2903 103.845 89.3734 103.946 89.4487C104.138 89.5899 104.248 89.6667 104.4 89.673C108.218 89.2511 112.12 90.8165 114.591 93.7637C115.121 94.377 115.555 94.9088 115.937 95.497C116.225 95.9456 116.476 96.4208 116.702 96.951C116.893 97.398 117.069 97.8874 117.24 98.4489L117.255 98.4944L117.258 98.5572C117.335 98.8113 117.388 99.0763 117.388 99.3242C117.388 100.039 117.435 100.868 117.583 101.721C117.897 103.282 118.452 104.596 119.236 105.639L118.616 106.122C117.596 104.87 117.07 103.343 116.816 101.893C116.767 101.657 116.724 101.413 116.688 101.166C116.562 100.389 116.523 99.5939 116.485 98.8254L116.479 98.6983C116.386 98.4176 116.266 98.1587 116.211 98.0411C115.881 97.2615 115.528 96.5934 115.129 95.9848C114.688 95.315 114.203 94.7378 113.648 94.2217L113.631 94.2061C113.157 93.7104 112.712 93.2932 112.268 92.9324C109.694 90.8306 106.574 90.1608 103.483 91.0439L103.437 91.0564H103.39C103.335 91.0612 103.28 91.0753 103.209 91.0957C103.011 91.1506 102.712 91.2337 102.309 91.0031L102.259 90.9686L94.8603 85.0804L92.489 83.0977C92.7549 83.7345 92.9233 84.4153 92.9846 85.1227C93.1436 86.9312 92.5865 88.6911 91.4158 90.0824C90.2451 91.4737 88.6024 92.3254 86.7881 92.4838C85.265 92.6171 83.7749 92.247 82.5113 91.4329L83.3815 101.162C83.4318 101.726 83.5058 102.552 83.6506 102.988C85.5514 104.096 87.0871 105.669 88.1178 107.507C88.6559 108.241 89.0933 109.074 89.3892 110.056C89.7526 111.14 89.888 112.263 89.7888 113.38L89.7794 113.479L89.7259 113.56C89.4206 114.023 89.128 114.446 88.626 114.937L88.6071 114.955C87.8833 115.576 87.3121 116.282 86.8637 117.042C85.8189 119.152 85.597 121.583 85.3814 123.958C85.3295 124.524 85.276 125.111 85.2131 125.682L85.2005 125.69ZM58.2871 105.843C58.3264 106.045 58.361 106.249 58.3909 106.453C58.9291 105.627 59.4861 104.805 60.0998 103.9L67.5 93.0108L67.6684 94.0006C67.9485 95.5848 68.8296 96.962 70.1482 97.8827C71.4668 98.8034 73.0671 99.1563 74.6532 98.8787C76.2393 98.5995 77.6208 97.7227 78.5445 96.4067C79.4682 95.0923 79.8222 93.4971 79.5437 91.916C79.2652 90.3349 78.384 88.9578 77.0638 88.037C75.7452 87.1163 74.145 86.7634 72.5589 87.041C72.2095 87.1022 71.8586 87.1979 71.514 87.3233L70.4928 87.6982L73.3189 82.8185L73.3724 82.7746C73.7893 82.4264 74.1922 82.0547 74.5808 81.6594C73.6823 82.3668 72.6879 82.966 71.7155 83.5526C71.4495 83.7126 71.182 83.8742 70.9177 84.0373L59.8748 103.114C59.5553 103.667 59.1934 104.293 58.8268 104.946L58.7953 104.993C58.5373 105.328 58.3721 105.601 58.2855 105.843H58.2871ZM78.3683 80.5975L81.4256 97.8795L81.7671 99.9861C81.8709 100.628 81.9968 101.395 82.1431 102.217L82.1494 102.253V102.289C82.1463 102.59 82.3005 102.867 82.4421 102.915L82.494 102.932L82.5397 102.962C82.6529 103.038 82.7647 103.114 82.878 103.189C82.7285 102.709 82.6577 102.016 82.5869 101.238L81.5546 89.6808L82.3068 90.3208C83.5436 91.3545 85.1061 91.847 86.711 91.7058C88.3144 91.5662 89.7684 90.8118 90.8038 89.582C91.8391 88.3523 92.3316 86.7948 92.1916 85.1949C92.0515 83.5949 91.2947 82.1472 90.061 81.1151C88.8274 80.083 87.2649 79.5921 85.6599 79.7317C84.0549 79.8713 82.6026 80.6257 81.5672 81.8555C81.3391 82.1268 81.1314 82.4248 80.9488 82.7417L80.4091 83.6828L79.4272 78.1365L79.4383 78.0706C79.539 77.4651 79.6318 76.7468 79.6837 75.9531C79.5342 76.9946 79.2054 77.9812 78.8844 78.9443C78.705 79.4854 78.5193 80.0422 78.3698 80.5959L78.3683 80.5975ZM54.5925 86.5783L54.0858 87.4394C52.4226 90.3114 53.4123 93.9943 56.2903 95.6507C57.6844 96.4538 59.3099 96.6671 60.8645 96.2514C62.4207 95.8358 63.7204 94.8413 64.5245 93.4516C65.3301 92.0619 65.5441 90.4416 65.1271 88.8919C64.7102 87.3406 63.7126 86.045 62.3184 85.2435C62.0116 85.0662 61.6812 84.9141 61.3366 84.7917L60.3122 84.4247L64.0084 83.0836C64.5339 82.9048 65.1114 82.7072 65.9328 82.588L65.9753 82.5848C66.4631 82.5676 66.9933 82.5315 67.5551 82.4703C66.6598 82.4891 65.7833 82.3778 64.9242 82.268C64.3907 82.2005 63.84 82.1299 63.294 82.0923C62.4569 82.1221 61.785 82.3511 61.0061 82.6146L46.4669 87.8896L32.3839 92.6109C32.1258 92.7081 31.8489 92.8085 31.5688 92.912C31.3265 93.0014 31.0826 93.0908 30.8403 93.1802L30.7915 93.1944C30.6751 93.221 30.5665 93.2587 30.4721 93.2994C30.62 93.2555 30.7821 93.2147 30.9599 93.1755L54.5909 86.5814L54.5925 86.5783ZM62.5214 84.4561C62.5859 84.4906 62.6504 84.5267 62.7134 84.5627C64.29 85.4693 65.4182 86.9359 65.8887 88.688C66.0728 89.3734 66.1484 90.0714 66.1169 90.76L70.3355 83.4757L70.4189 83.424C70.7147 83.242 71.0121 83.0617 71.3079 82.8828C71.7532 82.6146 72.1907 82.3495 72.6155 82.0798C70.2096 82.9942 67.8352 83.2969 66.0256 83.3659C65.2876 83.4757 64.7747 83.6499 64.2775 83.8193L62.5214 84.4561ZM102.711 90.3428C102.81 90.3961 102.846 90.3851 102.986 90.3475C103.069 90.3239 103.17 90.2957 103.293 90.2863C103.4 90.2565 103.508 90.2267 103.617 90.2C103.563 90.164 103.513 90.1263 103.464 90.0902C103.367 90.0181 103.275 89.9522 103.181 89.9036L103.132 89.8801L90.0941 78.1286H91.1483C94.4732 78.1286 97.1765 75.4339 97.1765 72.1196C97.1765 68.8053 94.4716 66.1106 91.1483 66.1106C87.8251 66.1106 85.1202 68.8069 85.1202 72.1196C85.1202 72.4725 85.1533 72.8348 85.2178 73.194L85.4113 74.2606L81.07 70.6295L81.0338 70.5542C80.664 69.7919 80.2203 69.0688 79.6995 68.3818C80.6388 69.8813 81.3029 71.5596 81.8772 73.216L95.3465 84.4812L102.712 90.3428H102.711ZM73.621 86.1642C75.0072 86.1642 76.3573 86.5861 77.5154 87.3939C78.0992 87.8002 78.6059 88.2864 79.026 88.8354L77.5626 80.5646L77.5847 80.4814C77.742 79.876 77.9418 79.2768 78.1354 78.698C78.2471 78.3639 78.3573 78.0329 78.458 77.7051C77.2369 79.9293 75.7012 81.8429 73.9325 83.3314L72.2064 86.3116C72.2788 86.296 72.3496 86.2834 72.422 86.2693C72.8216 86.1987 73.2229 86.1642 73.6194 86.1642H73.621ZM38.5049 69.5723C38.8164 69.5723 39.1217 69.7009 39.3892 69.8123C39.545 69.8782 39.6929 69.9393 39.8329 69.9754L39.8628 69.9848C40.2892 70.1354 40.7125 70.2891 41.1201 70.4366L41.1987 70.4648L48.9562 73.3399L47.9113 73.7101C46.3945 74.2606 45.1876 75.3633 44.5063 76.8189C43.8249 78.2729 43.7541 79.9058 44.3048 81.4147C45.4425 84.5282 48.9089 86.1391 52.0324 85.0066C53.5461 84.4576 54.753 83.3534 55.4343 81.8994C56.1156 80.4453 56.1864 78.8125 55.6357 77.3036C55.5146 76.971 55.3588 76.6432 55.1747 76.328L54.6271 75.3915L58.3233 76.7326C58.8567 76.9444 59.4483 77.1781 60.4365 78.0235C60.9573 78.4251 61.5065 78.7921 62.0855 79.1262C60.8724 78.3231 59.815 77.2361 58.7843 76.1774L58.5184 75.9045C57.7348 75.0088 57.0802 74.75 56.3218 74.4489L41.7982 69.1802L40.1791 68.7096C40.1162 68.6876 40.0532 68.6641 39.9903 68.6406C39.5906 68.4931 39.3341 68.4084 39.1044 68.523C35.8189 70.0507 31.9921 71.5565 28.0331 70.1213C27.056 69.7323 26.1512 69.2241 25.333 68.6108C25.0136 68.3708 24.7067 68.1136 24.4172 67.8438C24.4628 68.2485 24.4975 68.6625 24.5195 69.0845C24.776 69.4907 25.2543 69.8562 25.5989 70.1009C29.3612 72.7674 33.9606 72.645 37.9022 69.7762C38.0973 69.6303 38.3019 69.5754 38.5017 69.5754L38.5049 69.5723ZM56.2966 76.8299C56.3233 76.8973 56.3501 76.9663 56.3753 77.0338C57.2753 79.4995 56.6491 82.155 54.978 83.9651L60.7449 81.8727C61.5616 81.5951 62.3247 81.3363 63.2877 81.3049H63.3066H63.3255C63.9014 81.3441 64.471 81.4163 65.0217 81.4868C65.4245 81.5386 65.8211 81.5888 66.2144 81.6264C63.7771 80.9849 61.7079 79.9952 59.944 78.6353L59.9283 78.6227C59.0345 77.8573 58.5294 77.6565 58.0416 77.4636L56.295 76.8299H56.2966ZM69.8697 82.0798L69.7501 82.1127C69.7989 82.1017 69.8477 82.0907 69.898 82.0798C69.8886 82.0798 69.8792 82.0798 69.8697 82.0798ZM80.2234 78.1349L80.8229 81.5261C80.8686 81.468 80.9142 81.4116 80.9614 81.3567C82.1321 79.9669 83.7749 79.1137 85.5891 78.9552C86.2988 78.8925 87.0006 78.9411 87.6756 79.0901L81.2037 73.6771L81.1675 73.5736C80.8403 72.6199 80.4815 71.66 80.0598 70.733C80.6011 72.9227 80.664 75.4308 80.2234 78.1349ZM69.662 63.3123C68.0004 63.3123 66.3529 63.7358 64.9572 64.5561C60.9746 66.854 59.5695 72.1933 61.8196 76.4566C63.7865 80.1599 68.1719 82.0719 72.2457 81.0022C74.7161 80.3057 76.864 78.4517 77.9859 76.0425C79.037 73.7838 79.0826 71.2632 78.1086 69.1253V69.1221C78.1086 69.1221 77.8836 68.6233 77.4918 67.9002L77.484 67.8861C76.5021 65.88 74.7004 64.3961 72.4094 63.7091C71.5172 63.4409 70.5872 63.3107 69.662 63.3107V63.3123ZM59.1037 75.379L59.3476 75.63C59.9157 76.2135 60.4916 76.8048 61.0927 77.3475C59.623 75.4025 58.575 73.2411 58.0149 70.973L58.0086 70.9401C57.8323 69.8358 57.6246 69.0719 57.3744 68.6014L56.4461 66.9983C56.4225 67.0689 56.3989 67.1364 56.3737 67.2054C55.7506 68.9104 54.4996 70.2719 52.849 71.0389C52.2039 71.3385 51.5273 71.533 50.8412 71.6224L56.6003 73.7116C57.3902 74.0254 58.1958 74.3453 59.1022 75.3759L59.1037 75.379ZM79.594 72.5478C79.5893 72.8003 79.5752 73.0529 79.55 73.3054L79.6491 73.0529C79.6334 72.885 79.6161 72.7172 79.594 72.5478ZM81.7041 70.1385L84.3366 72.3408C84.3335 72.267 84.3335 72.1949 84.3335 72.1212C84.3335 69.497 85.8346 67.2148 88.0249 66.0839H79.572L79.4823 66.0321C79.1975 65.8706 78.9111 65.7043 78.6232 65.538C77.9969 65.1741 77.3628 64.8071 76.7145 64.473C78.9741 66.0949 80.6467 67.9912 81.7041 70.137V70.1385ZM58.7843 70.802C58.8772 71.1769 58.9842 71.5471 59.1037 71.9157C58.7607 70.3958 58.7072 68.9041 58.7151 67.6477C58.7434 66.4713 58.4193 65.9113 58.0086 65.2024L50.2685 51.8385L45.3119 43.3967C45.0711 42.9873 44.8225 42.5622 44.629 42.283C44.3536 41.8721 43.8139 41.5756 43.3466 41.5756H43.3041C43.0303 41.5427 42.7565 41.5035 42.489 41.4517C42.8226 41.5474 43.1625 41.6289 43.5055 41.6964C43.9634 41.7215 44.1758 42.1277 44.3316 42.4273C44.3788 42.5199 44.4291 42.614 44.4826 42.6971L44.5031 42.7316L53.0001 59.598L52.0371 59.2388C50.5202 58.6883 48.8838 58.7589 47.4235 59.438C45.9633 60.1156 44.8571 61.3203 44.3064 62.8292C43.7557 64.3381 43.8265 65.9694 44.5078 67.425C45.1892 68.8806 46.396 69.9833 47.9098 70.5322C49.4235 71.0812 51.0599 71.0106 52.5202 70.3315C53.9804 69.6523 55.0866 68.4492 55.6373 66.9403C55.7002 66.7662 55.7553 66.5921 55.8135 66.3741C55.867 66.1733 55.9095 65.9537 55.9363 65.7419L56.2856 62.9421L56.7151 65.731C56.7246 65.789 56.7671 65.9835 56.8347 66.1027L58.0636 68.2249C58.3642 68.7896 58.5908 69.6052 58.7843 70.8036V70.802ZM55.6231 59.5117L58.6915 64.8102C59.1258 65.56 59.5365 66.269 59.5034 67.6603C59.4987 68.4241 59.516 69.279 59.6136 70.173C59.7457 67.8234 60.4601 65.4831 61.7189 63.3954L61.7284 63.3813C62.3688 62.4182 62.4758 61.899 62.5781 61.3987L62.9022 59.5698C62.8393 59.609 62.7779 59.6466 62.7134 59.6827C60.4334 60.9956 57.7017 60.8403 55.6231 59.5149V59.5117ZM60.8865 67.2854C60.7575 67.7481 60.6521 68.2171 60.5718 68.6876C60.7276 68.2657 60.9101 67.8548 61.1226 67.4595L60.8865 67.2854ZM76.7743 65.4863C76.9647 65.6902 77.1441 65.9019 77.3124 66.1231L77.4273 66.0102C77.2165 65.8329 76.9993 65.6572 76.7743 65.4847V65.4863ZM62.3892 63.8064C62.0415 64.3836 61.7378 64.9796 61.4797 65.5914C61.4971 65.5631 61.5128 65.5365 61.5301 65.5082C62.3987 64.0573 63.2971 62.5594 64.5685 61.3438C65.0044 60.6395 65.1224 59.9682 65.2609 59.1918L67.9485 43.9958L68.8485 38.1311C68.8265 37.9601 68.8501 37.8143 68.869 37.7045C68.8926 37.5649 68.8957 37.5272 68.8611 37.4708C68.4111 36.9594 68.002 36.4465 67.6322 35.9305C67.8383 36.2646 68.0602 36.5892 68.2962 36.903L68.4001 37.041L68.3686 37.2104C68.2521 37.8425 68.1341 38.4746 68.013 39.1083L68.0098 39.124L65.039 51.6848L64.5308 50.7986C63.7236 49.4057 62.4239 48.4113 60.8692 47.9956C59.3146 47.5799 57.6891 47.7933 56.295 48.5963C53.4155 50.2527 52.4257 53.9356 54.089 56.806C54.8946 58.1957 56.1943 59.1902 57.7489 59.6059C59.3051 60.0215 60.929 59.8082 62.3231 59.0051C62.63 58.8279 62.9274 58.6193 63.2075 58.384L64.0383 57.6828L63.3554 61.543C63.2405 62.1045 63.1131 62.7241 62.3924 63.8095L62.3892 63.8064ZM79.7813 65.3028H97.3684L109.618 65.0565C109.872 65.0518 110.001 65.0345 110.15 65.0141C110.2 65.0079 110.252 65.0016 110.307 64.9938C110.427 64.8353 110.551 64.6816 110.679 64.531C110.606 64.531 110.537 64.5295 110.473 64.5263C110.391 64.5232 110.312 64.5201 110.246 64.5263H110.227C110.114 64.531 110.005 64.5373 109.898 64.542C109.585 64.5561 109.263 64.5718 108.844 64.5608L89.235 63.7985L90.0563 63.1288C91.2915 62.0951 92.0484 60.6458 92.19 59.0475C92.3316 57.4491 91.8375 55.89 90.8022 54.6603C89.7668 53.4306 88.3129 52.6761 86.7095 52.5365C85.1045 52.3969 83.542 52.8878 82.3083 53.9199C79.7624 56.05 79.4288 59.8474 81.5656 62.3869C81.7938 62.6582 82.0519 62.9139 82.3335 63.1476L83.1691 63.8409H79.2195C78.6814 63.8299 78.0709 63.8158 77.2888 63.6589L77.2479 63.6511L77.2102 63.6338C76.469 63.3107 75.7012 63.0519 74.9223 62.8606C76.3825 63.3358 77.7184 64.1107 79.0213 64.8667C79.2762 65.0142 79.5295 65.1616 79.7829 65.3059L79.7813 65.3028ZM65.2341 63.339C65.0453 63.4927 64.8597 63.6527 64.6756 63.8174C64.8848 63.6982 65.1004 63.5868 65.3191 63.4848L65.2341 63.3405V63.339ZM67.0988 53.3113L66.0351 59.3267C65.8872 60.1627 65.7471 60.9532 65.2074 61.8034L65.1806 61.8441L65.1445 61.8771C64.5339 62.4543 64.01 63.1131 63.53 63.8048C65.1759 62.23 67.1664 60.7995 69.6164 60.1862C70.3921 59.8568 70.8075 59.5243 71.2104 59.2027L72.6391 58.0075C72.5667 57.9965 72.4943 57.9856 72.422 57.973C70.6297 57.6577 69.0672 56.6664 68.0224 55.1795C67.6133 54.5975 67.3033 53.9686 67.0972 53.3098L67.0988 53.3113ZM77.4871 62.8951C78.1794 63.0315 78.7176 63.0425 79.2368 63.0535H81.1062C81.0574 62.9986 81.0086 62.9437 80.963 62.8888C79.2699 60.8779 78.9489 58.1691 79.8977 55.8978L75.1961 59.8302C74.532 60.3635 73.9105 60.8623 73.1395 61.2277L73.0954 61.2497L72.5352 61.3595C72.0286 61.4583 71.5172 61.5571 71.0074 61.6669C73.2056 61.5979 75.4352 62.0073 77.4871 62.8951ZM69.8603 62.5343C70.7414 62.55 71.6242 62.677 72.477 62.917L71.5251 62.4433C70.9665 62.4402 70.411 62.4716 69.8603 62.5343ZM74.7272 57.2876L71.7139 59.8066C71.2764 60.1564 70.7918 60.5438 69.8965 60.9203L69.8382 60.9391C68.9335 61.1634 68.1011 61.4959 67.3222 61.9179C68.9476 61.2575 70.6864 60.9187 72.3858 60.5878L72.8468 60.4984C73.5156 60.1721 74.0899 59.711 74.6988 59.2247L86.5505 49.3116L94.4386 42.1826C94.8036 41.8532 95.1734 41.5176 95.54 41.1819C95.9192 40.8353 96.2513 40.5263 96.5518 40.2424C96.6871 39.9192 96.9483 39.753 97.1434 39.6275C97.2127 39.5836 97.3165 39.5161 97.3354 39.4848V39.4612C97.3496 39.2526 97.37 39.0456 97.3952 38.8385C97.3417 38.8981 97.2819 38.9609 97.2142 39.0267C96.8398 39.3875 96.4259 39.7545 96.1065 40.0322L96.0923 40.0432L79.358 53.3804L79.5453 52.3263C79.8253 50.7421 79.4713 49.1485 78.5476 47.8325C77.624 46.518 76.2424 45.6397 74.6563 45.3605C73.0702 45.0828 71.47 45.4358 70.1514 46.3565C68.8328 47.2772 67.9516 48.6544 67.6715 50.2355C67.3914 51.8165 67.747 53.4117 68.6707 54.7262C69.5944 56.0406 70.9759 56.919 72.562 57.1982C72.9113 57.2593 73.2811 57.2938 73.6399 57.2891L74.7272 57.2844V57.2876Z" fill="currentColor"/>
<path d="M69.626 81.9465C67.3648 81.9465 65.1855 81.0869 63.3949 79.4698C61.1762 77.4667 59.8875 74.5461 59.9473 71.6601C60.004 68.8853 61.5098 66.1639 63.9755 64.3821C66.4034 62.6269 69.2893 62.0732 71.8966 62.8606L71.9265 62.8669C74.4126 63.2825 76.6596 64.8605 78.0946 67.1976C79.5973 69.6461 79.9923 72.5133 79.1788 75.0622C78.0317 78.72 74.7021 81.3975 70.6944 81.8822C70.3356 81.9245 69.9785 81.9465 69.6228 81.9465H69.626ZM69.5127 63.2951C67.7755 63.2951 66.0053 63.8849 64.4381 65.0173C62.1707 66.6564 60.786 69.1457 60.7341 71.6773C60.679 74.3407 61.8701 77.0354 63.922 78.8894C65.8228 80.6054 68.1941 81.3928 70.6016 81.1042C74.3009 80.6571 77.374 78.193 78.4298 74.8269C79.1756 72.4929 78.809 69.8625 77.4243 67.607C76.1057 65.4597 74.0507 64.0135 71.7848 63.6386L71.6794 63.6135C70.9745 63.4002 70.246 63.2935 69.5111 63.2935L69.5127 63.2951Z" fill="currentColor"/>
</svg>
