<svg width="143" height="143" viewBox="0 0 143 143" fill="none" xmlns="http://www.w3.org/2000/svg">
<path d="M69.5951 17.1791C70.4281 28.528 70.3468 29.9179 64.7024 22.8057C69.2552 31.7103 68.2451 39.3018 56.4441 39.6133C67.278 41.238 67.3163 42.7668 61.1214 51.5229C65.9471 46.5817 64.5396 48.8678 61.131 53.9911C62.9263 52.0932 62.7156 53.0278 61.7246 55.1557C61.5571 55.8602 60.6092 57.7533 59.6373 59.6895C58.3447 62.2679 57.0138 64.9182 55.6973 67.5445C54.376 70.1757 53.0738 72.7781 52.7722 70.9856C50.5795 77.748 49.3923 80.1107 44.0782 82.6843C47.2379 84.4097 29.3187 102.253 25.9531 106.973C43.3745 90.4292 28.8304 108.339 27.5282 110.462C27.9207 110.156 33.3162 102.923 28.5096 110.64C28.8639 110.108 44.6671 87.4482 30.6448 110.4C32.5597 107.754 33.589 107.093 33.3162 110.127C35.2072 105.234 35.7912 104.035 34.8673 107.539C37.419 102.995 39.0515 96.2809 41.4165 107.347C39.0323 102.535 52.6094 84.8075 54.218 86.1925C53.1887 84.4241 51.8769 88.0473 56.5351 90.5778C52.4371 87.5776 52.0445 86.643 56.0276 84.4959C52.9158 86.1206 54.0361 86.5903 58.7995 87.4098C54.352 86.3555 53.543 85.6558 56.6931 83.3697C53.1552 85.6845 54.1845 86.1638 59.2112 86.3219C55.3047 85.603 57.6601 81.3904 61.2315 78.1937C58.1293 81.122 56.2383 85.0567 59.915 85.004C56.0994 85.0902 57.8468 81.1843 60.9682 78.2512C57.9569 80.9255 56.3196 84.5726 60.0347 84.0934C56.7649 84.2707 58.8474 80.3312 61.6049 77.7959C58.4165 80.1059 55.9031 83.825 59.4267 83.2403C54.7877 84.0742 56.1856 80.6044 59.69 77.9253C56.2813 80.5421 54.9744 83.9544 59.5368 83.063C56.2766 83.6381 58.8809 79.9094 61.8443 77.7767C59.3644 80.0964 57.2436 84.0071 60.1831 83.7962C56.6643 84.3426 58.2059 80.7625 61.0161 78.2177C58.1484 80.9782 56.5399 84.7739 60.14 84.5055C56.9372 84.6349 58.9384 80.7098 61.6528 78.0547C58.4453 80.9686 55.9462 85.1573 59.4985 85.627C54.5627 85.79 53.4137 85.4065 56.8223 83.0965C53.6626 85.2819 55.0366 85.5503 59.666 85.2867C56.1617 84.9704 58.1772 80.959 60.9922 78.2224C58.2968 80.7194 56.9755 84.2036 60.3937 83.5806C58.0814 83.7196 60.5182 79.7561 62.4858 77.8438C60.4177 79.3487 60.1544 79.7369 62.3805 79.1235C63.8455 78.7976 46.8789 89.2358 60.523 77.3885C58.7852 79.1426 59.3692 78.1889 61.3943 76.1089C58.8378 76.9955 58.4261 76.6457 60.1735 74.513C57.2197 75.9699 56.425 75.6392 57.6362 72.4953C57.483 75.5386 59.0102 75.7447 61.1071 74.8772C59.7139 76.3294 58.8857 76.708 59.3214 74.7191C59.058 76.9428 61.1166 76.684 62.9358 76.176C63.3093 76.3438 63.4433 76.2575 63.0555 75.9891C61.5571 76.2479 59.532 76.3246 59.0245 73.9427C59.0916 76.061 61.2076 75.692 62.9933 75.0593C64.1949 74.7478 65.071 74.1775 65.3822 73.3628C66.0046 71.7333 64.3673 69.1405 60.9156 64.4437C68.0249 70.8706 67.8717 68.8865 65.9806 61.1608C68.3313 69.5143 68.8435 71.6518 64.3003 62.335C69.5664 73.7701 69.7723 73.7462 68.0201 61.1848C70.0595 71.532 70.1313 69.3418 70.16 60.509C70.1313 69.3466 70.0882 71.532 69.4563 61.0266C70.2558 73.7605 70.4712 65.0332 73.7937 52.6827C71.333 62.982 71.984 60.8924 74.5836 52.3856C72.3575 61.1225 72.0846 72.2125 82.0615 67.4391C78.921 70.0463 76.9246 71.8627 76.0486 73.2142C75.1725 74.5657 75.4214 75.4475 76.6901 75.2654C77.4082 76.0945 78.3848 76.6553 79.6343 76.9332C81.0083 77.2975 82.66 77.3789 83.8281 76.2383C82.5977 77.2879 81.2237 77.1681 80.3046 76.7559C79.6822 76.5642 79.5146 76.0802 79.7875 75.39C79.9311 75.692 80.5152 75.783 81.2764 75.6344C82.3344 75.7495 83.5696 75.6249 84.4983 74.7478C83.8616 75.8022 82.9185 76.1089 81.9227 75.9364C81.6067 76.3965 81.2429 76.3821 81.0897 75.9172C80.8982 77.1777 80.9126 77.9972 80.8886 78.0595C82.0568 78.8934 83.1866 78.9797 83.7371 77.3694C82.9472 79.435 81.5828 79.8088 80.1753 79.2864C80.0317 79.4014 79.8498 78.6202 79.979 77.0243C79.7492 79.0036 79.8354 80.1682 79.845 80.3264C81.3003 81.0645 82.6791 80.7961 83.2775 78.5675C82.6408 80.8871 81.8844 81.6156 80.812 81.3568C82.6839 82.1092 84.235 81.8744 84.5223 79.3918C84.4696 81.9942 83.1387 82.3441 80.9365 81.4191C81.8413 81.5629 81.8844 80.4222 81.6881 77.8247C81.5014 80.2545 81.0753 81.2274 80.2998 81.0309C81.7504 81.6348 82.8467 81.0692 83.244 78.5819C82.7796 80.868 81.6115 81.2322 80.2136 80.5037C80.7067 80.5325 80.9652 79.4637 81.2285 77.2687C81.353 79.2337 81.4823 80.0724 81.0083 79.7082C82.7988 80.4893 83.9909 80.0676 84.2254 77.6665C84.0818 80.1299 82.9903 80.6044 81.1854 79.8184C81.8892 80.2881 81.8796 79.4925 81.7025 77.3933C81.5541 79.7561 81.2333 80.8104 80.4769 80.681C81.9802 81.4431 83.043 81.0165 83.3206 78.6059C82.636 80.9782 81.8317 81.7306 80.7594 81.515C82.6456 82.277 84.259 82.0709 84.618 79.6458C84.618 82.4016 83.7515 83.0917 81.7647 82.7946C84.2015 83.5374 85.5085 83.2882 85.3888 81.0645C86.3463 83.801 85.8196 84.5295 83.3589 84.6829C86.3846 85.1621 87.4761 85.0663 87.3181 84.2803C88.1415 85.4688 87.7107 85.9673 85.3984 86.9737C88.1846 86.5759 89.0942 86.6814 89.4294 87.9514C90.7938 87.7214 113.855 118.94 116.248 122.453C116.248 120.517 78.1071 68.2299 120.03 124.025C72.7117 57.8731 121.74 123.594 122.697 124.792C116.627 115.638 97.2185 90.6592 126.819 124.418C125 121.921 99.4781 94.824 112.667 101.855C109.651 98.6101 93.8577 84.3809 93.4412 80.0197C91.7034 80.082 90.5161 77.7192 88.8836 73.7701C88.0266 72.7493 86.7197 70.1469 85.4031 67.5206C84.0866 64.8942 82.7557 62.2439 81.4631 59.6607C80.4913 57.7245 79.5434 55.8314 79.4093 55.2707C78.3657 53.0469 78.1406 52.1555 79.8833 54.269C76.5273 48.9301 75.1342 46.5961 79.5434 52.0309C73.6405 42.7237 73.5352 41.1853 84.302 39.3832C72.5681 39.2491 71.7016 31.672 73.4107 21.9574C70.6292 29.8891 70.4281 28.4993 69.5951 17.1504V17.1791Z" fill="currentColor"/>
</svg>
