<svg width="143" height="143" viewBox="0 0 143 143" fill="none" xmlns="http://www.w3.org/2000/svg">
<path d="M91.315 123.045C91.2386 123.045 91.1665 123.045 91.0901 123.032C90.3897 122.948 89.77 122.499 89.3923 121.793C89.3243 121.666 89.2692 121.535 89.2267 121.387C88.972 120.542 89.2522 119.645 89.9653 119.049C90.6826 118.448 91.6631 118.317 92.4653 118.723C92.7539 118.867 92.9746 119.036 93.1444 119.243C93.7174 119.945 93.4882 121.637 92.894 122.301C92.461 122.783 91.9008 123.045 91.3193 123.045H91.315ZM91.4763 119.518C91.141 119.518 90.8396 119.662 90.6274 119.84C90.2327 120.169 90.0756 120.639 90.2157 121.091C90.2412 121.172 90.2666 121.244 90.3048 121.307C90.5213 121.713 90.8566 121.967 91.2174 122.009C91.5442 122.043 91.8626 121.907 92.1257 121.616C92.4568 121.248 92.5247 120.11 92.3464 119.895C92.27 119.806 92.1597 119.721 92.0069 119.645C91.8286 119.556 91.6546 119.518 91.4848 119.518H91.4763ZM48.212 120.859C48.1526 120.859 48.1016 120.859 48.0719 120.85C47.796 120.825 47.5965 120.719 47.4862 120.537C47.2994 120.233 47.1594 119.615 47.4522 119.239C47.6645 118.964 47.9955 118.935 48.3139 118.905C48.4242 118.897 48.5516 118.884 48.6874 118.863C48.8572 118.833 49.0312 118.892 49.15 119.015C49.2689 119.142 49.3156 119.315 49.2774 119.484C49.2477 119.615 49.2307 119.73 49.2137 119.835C49.167 120.119 49.1246 120.389 48.9208 120.609C48.7256 120.821 48.4115 120.859 48.212 120.859ZM44.2391 120.829C44.2306 120.69 44.2179 120.55 44.2094 120.41C44.0269 120.364 43.8359 120.267 43.7383 120.072L44.1755 119.852C44.1585 119.586 44.1415 119.315 44.1288 119.049L44.0948 118.474C44.0906 118.385 44.0863 118.3 44.0821 118.212C44.0778 118.068 44.0694 117.924 44.0566 117.78C44.0524 117.721 44.0354 117.666 44.0227 117.611C43.9845 117.459 43.942 117.269 43.9675 117.057C44.0439 116.457 44.0354 115.852 44.0269 115.213C44.0142 114.27 43.9972 113.298 44.2731 112.321C44.1585 111.416 44.3325 110.566 44.498 109.742C44.5999 109.23 44.6975 108.748 44.7315 108.261C44.7315 108.215 44.7315 108.168 44.7357 108.126C44.7357 107.987 44.74 107.826 44.7867 107.653C45.1432 106.295 45.5125 104.887 45.9072 103.475C46.0176 103.086 46.1916 102.502 46.4505 101.944C46.6288 101.563 46.8325 101.204 47.032 100.853C47.1509 100.646 47.2697 100.438 47.3801 100.227C47.5244 99.9521 47.6602 99.6603 47.7833 99.3601C47.8852 99.1106 47.9785 98.8611 48.0719 98.6116C48.195 98.2902 48.3139 97.9646 48.4497 97.6475C48.5346 97.4445 48.6364 97.2627 48.7341 97.0851C48.802 96.9624 48.8699 96.8398 48.9293 96.7129C49.1585 96.2224 49.1543 95.863 48.9123 95.3344L48.7935 95.068C48.4709 94.3533 48.1653 93.6725 47.639 93.1186C47.3419 92.8056 47.1509 92.4166 46.9641 92.0445C46.8835 91.8838 46.8028 91.7189 46.7094 91.5497C46.6373 91.4186 46.6203 91.2664 46.6712 91.1226C46.7222 90.9831 46.8283 90.8689 46.9684 90.8182C47.1169 90.759 47.2527 90.7082 47.3843 90.6575C47.6432 90.5602 47.8724 90.4714 48.0932 90.3741L48.2757 90.2938C48.5049 90.1965 48.7213 90.1035 48.8657 89.9809C49.7315 89.2366 50.7417 88.8645 51.6119 88.5939C51.8835 88.5093 52.1509 88.4036 52.4353 88.2894C52.6348 88.2091 52.8343 88.1287 53.0338 88.0568L53.3266 87.9511C53.6917 87.8116 54.0737 87.672 54.4811 87.5959C55.3003 87.4394 55.9837 87.0969 56.5694 86.5472L56.6119 86.5049C56.684 86.433 56.7859 86.3315 56.9302 86.2596C57.5966 85.934 58.1314 85.4181 58.6959 84.8769C59.0779 84.509 59.4769 84.1284 59.9226 83.8028C60.4914 83.3884 61.0898 82.9909 61.6629 82.606C62.342 82.1536 63.0423 81.6884 63.696 81.1937C63.8658 81.0668 64.0483 81.0161 64.1841 80.978C64.2138 80.9696 64.2435 80.9611 64.2732 80.9526C64.4048 80.9019 64.5576 80.9104 64.6849 80.9738C64.7062 80.9822 64.7231 80.9907 64.7444 80.9992C64.842 81.0372 65.0712 81.126 65.1561 81.384C65.4108 82.1409 65.8819 82.7879 66.3743 83.4729C66.7987 84.0565 67.2359 84.6654 67.55 85.3589C67.707 85.7099 67.7283 85.7522 68.1909 85.6084C68.9295 85.3801 69.651 85.4139 70.5254 85.7099C70.7716 85.7945 71.1111 85.8114 71.4804 85.7649C72.1468 85.6761 72.8556 85.6507 73.5263 86.082C73.8616 86.2977 74.146 86.3527 74.4983 86.2681C75.2495 86.0905 75.9032 86.3569 76.438 86.6444C76.7394 86.8051 77.1341 86.9827 77.4312 86.9827C78.2334 86.9827 78.9295 87.1392 79.5705 87.4986L79.6087 87.5198C79.7487 87.6001 79.9185 87.6974 80.0119 87.7016C81.3447 87.7862 82.4864 88.3232 83.5942 88.8391C83.9635 89.0125 84.3413 89.1901 84.719 89.3466C85.135 89.5199 85.551 89.854 85.8608 90.2642C86.0688 90.5433 86.2301 90.6448 86.4975 90.6617C86.8201 90.6871 87.236 90.7378 87.5968 90.9323C88.6962 91.5243 89.5238 92.0106 90.2921 92.5012L90.3388 92.5308C90.6529 92.7337 91.0137 92.9621 91.3023 93.3004C91.4763 93.33 91.6716 93.3976 91.8074 93.5499C92.0069 93.774 92.0451 94.0446 92.079 94.3322C92.0918 94.4379 92.1087 94.5605 92.1342 94.7001C92.1682 94.8692 92.113 95.0468 91.9899 95.1695C91.8668 95.2921 91.6843 95.3428 91.5187 95.3048C91.3829 95.2752 91.2513 95.2583 91.141 95.2414C90.8226 95.1991 90.4916 95.1526 90.3006 94.8608C90.0799 94.5225 90.1563 94.0489 90.2836 93.7444C90.135 93.626 89.9653 93.5161 89.7827 93.3976L89.7361 93.368C88.9933 92.8902 88.1826 92.4208 87.1087 91.8373C86.9177 91.7358 86.6291 91.7019 86.4296 91.6893C85.6995 91.6385 85.3048 91.2326 85.0416 90.8816C84.8464 90.6236 84.5747 90.3995 84.3328 90.298C83.9338 90.1331 83.5433 89.9513 83.1656 89.7737C82.1002 89.2747 81.0942 88.8011 79.9609 88.7334C79.6299 88.7123 79.3412 88.5516 79.1078 88.4205C78.5985 88.1329 78.0764 88.0188 77.4524 88.0145H77.4312C76.9049 88.0145 76.3913 87.782 75.9626 87.5536C75.4363 87.2745 75.0798 87.1942 74.7444 87.2703C74.1205 87.4183 73.5432 87.3126 72.9745 86.9489C72.6052 86.7121 72.185 86.7121 71.6247 86.7882C71.2555 86.839 70.7079 86.8601 70.1986 86.691C69.5322 86.4668 69.0228 86.4372 68.5008 86.5979C67.5755 86.8812 66.994 86.6318 66.612 85.786C66.3403 85.1855 65.9541 84.6485 65.5423 84.0776C65.0882 83.4476 64.617 82.7963 64.3029 82.0352C63.6323 82.5384 62.9277 83.012 62.2444 83.4645C61.6756 83.8408 61.0898 84.2341 60.5381 84.6358C60.1476 84.9191 59.7953 85.2617 59.4218 85.6211C58.8233 86.1962 58.2078 86.7882 57.3971 87.1899C57.3929 87.1984 57.3717 87.2195 57.3504 87.2407L57.2868 87.3041C56.5525 87.9934 55.6993 88.4205 54.6806 88.6108C54.3623 88.67 54.0397 88.7926 53.6959 88.9195C53.594 88.9575 53.4922 88.9956 53.3903 89.0337C53.2035 89.1013 53.0168 89.1774 52.83 89.2535C52.5372 89.3719 52.2358 89.4946 51.9217 89.5918C51.1492 89.8286 50.2663 90.15 49.549 90.7716C49.2859 91 48.9718 91.1353 48.6916 91.2537L48.5218 91.3256C48.3224 91.4144 48.1144 91.4947 47.8852 91.5835C47.8852 91.5878 47.8894 91.5962 47.8937 91.6005C48.0592 91.9345 48.2035 92.2221 48.3945 92.425C49.0397 93.1101 49.3962 93.8966 49.74 94.662L49.8589 94.9242C50.2239 95.7277 50.2281 96.4 49.8716 97.1612C49.8037 97.3092 49.7273 97.4487 49.6466 97.5925C49.5575 97.7532 49.4726 97.9054 49.4089 98.0577C49.2816 98.3621 49.1628 98.675 49.0439 98.988C48.9463 99.2459 48.8487 99.5039 48.7468 99.7576C48.611 100.092 48.4624 100.413 48.3011 100.717C48.1823 100.937 48.0592 101.157 47.9361 101.373C47.7366 101.72 47.5499 102.05 47.3928 102.392C47.2188 102.768 47.0702 103.191 46.9089 103.762C46.5142 105.17 46.1492 106.57 45.7926 107.927C45.7799 107.982 45.7756 108.067 45.7756 108.16C45.7756 108.223 45.7756 108.283 45.7672 108.346C45.7332 108.9 45.6228 109.441 45.5167 109.961C45.3554 110.765 45.1984 111.522 45.313 112.287C45.3342 112.439 45.2918 112.558 45.2748 112.609C45.0371 113.437 45.0498 114.3 45.0626 115.213C45.0626 115.222 45.0626 115.235 45.0626 115.243C45.105 115.251 45.1475 115.264 45.1899 115.277C45.2493 115.294 45.3172 115.311 45.3979 115.328C45.5804 115.366 45.729 115.501 45.7799 115.683C45.8308 115.865 45.7884 116.055 45.6568 116.19C45.5974 116.249 45.5507 116.309 45.5082 116.355C45.3979 116.486 45.2621 116.647 45.0413 116.706C45.0286 116.871 45.0159 117.04 44.9947 117.205C44.9947 117.235 45.0159 117.332 45.0286 117.391C45.0541 117.493 45.0753 117.594 45.0838 117.696C45.1008 117.856 45.1093 118.021 45.1135 118.186C45.1135 118.267 45.122 118.347 45.1262 118.431L45.1602 119.007C45.1602 119.078 45.1687 119.15 45.1729 119.222L45.2875 119.193C45.3554 119.446 45.33 119.759 45.2196 120.03C45.2366 120.279 45.2536 120.529 45.2706 120.778L44.2391 120.85V120.829ZM64.1714 81.7011C64.1714 81.7011 64.1714 81.7011 64.1714 81.7053C64.1714 81.7053 64.1714 81.7053 64.1714 81.7011ZM52.656 117.662C52.622 117.662 52.5881 117.662 52.5541 117.653C52.431 117.628 52.3037 117.615 52.1891 117.603C51.8368 117.56 51.4378 117.514 51.3105 117.125C51.2086 116.82 51.2723 116.52 51.3232 116.279C51.336 116.207 51.3529 116.135 51.3614 116.068C51.3784 115.928 51.4506 115.805 51.5609 115.721C51.6713 115.636 51.8113 115.602 51.9514 115.624C52.0108 115.632 52.0787 115.636 52.1467 115.641C52.3971 115.653 52.7366 115.67 52.9786 115.915C53.2248 116.165 53.1993 116.503 53.1823 116.803C53.1738 116.905 53.1653 117.023 53.1696 117.142C53.1696 117.298 53.1059 117.446 52.9871 117.548C52.8937 117.628 52.7748 117.67 52.656 117.67V117.662ZM48.1993 117.078C48.0847 117.078 47.9743 117.04 47.8809 116.968C47.7706 116.88 47.6984 116.753 47.6857 116.613C47.6857 116.571 47.6729 116.529 47.6602 116.482C47.6135 116.258 47.5456 115.92 47.8003 115.666C47.9913 115.476 48.2332 115.416 48.4624 115.357C48.5431 115.336 48.628 115.315 48.7213 115.285C48.8826 115.235 49.0609 115.264 49.1925 115.366C49.3283 115.467 49.4005 115.632 49.392 115.797C49.3877 115.894 49.392 115.987 49.392 116.068C49.4005 116.334 49.409 116.664 49.1161 116.867C48.8869 117.023 48.6322 117.04 48.4242 117.053C48.3733 117.053 48.3181 117.061 48.2672 117.066C48.2417 117.066 48.2162 117.07 48.1908 117.07L48.1993 117.078ZM52.622 113.919C52.4098 113.919 52.2146 113.86 52.1339 113.831C51.875 113.738 51.718 113.581 51.6713 113.37C51.5991 113.044 51.6501 112.57 51.9132 112.241C52.1467 111.953 52.4947 112 52.8046 112.046C52.9064 112.059 53.0168 112.076 53.1399 112.084C53.3054 112.093 53.454 112.181 53.5431 112.321C53.6322 112.461 53.6492 112.634 53.5856 112.786C53.5431 112.888 53.5134 112.985 53.4879 113.074C53.4073 113.327 53.3224 113.594 53.0847 113.78C52.9489 113.886 52.7791 113.919 52.622 113.919ZM49.0227 113.463C48.976 113.463 48.9336 113.459 48.8869 113.446C48.8572 113.437 48.8275 113.433 48.7977 113.429C48.6322 113.404 48.3818 113.361 48.2035 113.146C48.0252 112.926 48.0465 112.668 48.0634 112.482C48.0677 112.427 48.0762 112.363 48.0762 112.3C48.0762 112.143 48.1483 111.991 48.2757 111.894C48.3988 111.797 48.5643 111.763 48.7171 111.801C48.785 111.818 48.8572 111.83 48.9208 111.843C49.1415 111.881 49.5151 111.949 49.5915 112.329C49.6382 112.554 49.5915 112.752 49.5575 112.917C49.549 112.955 49.5405 112.998 49.532 113.036C49.5108 113.179 49.4259 113.306 49.3028 113.387C49.2179 113.442 49.1203 113.467 49.0227 113.467V113.463ZM91.9984 111.784C91.8626 111.784 91.7437 111.776 91.6631 111.767C91.3999 111.737 91.0264 111.661 90.8566 111.353C90.4958 110.706 90.1945 109.454 90.6656 108.701C90.967 108.215 91.6121 108.13 92.4228 108.025C92.7794 107.978 93.1826 107.923 93.607 107.834C93.7768 107.796 93.9551 107.851 94.0782 107.97C94.2013 108.092 94.2565 108.266 94.2225 108.435C94.1376 108.858 94.0909 109.238 94.0485 109.577C93.9551 110.321 93.8787 110.904 93.4967 111.327C93.1656 111.695 92.4695 111.78 92.0026 111.78L91.9984 111.784ZM91.697 110.735C91.9644 110.786 92.5841 110.739 92.7454 110.625C92.894 110.456 92.9492 110.012 93.0213 109.445C93.0383 109.297 93.0595 109.137 93.085 108.972C92.8982 109.001 92.7242 109.023 92.5544 109.044C92.1639 109.095 91.6334 109.166 91.5272 109.259C91.3744 109.509 91.4551 110.224 91.697 110.735ZM82.9024 111.124C82.8557 111.124 82.809 111.12 82.7623 111.103C82.4312 111.01 82.1214 110.947 81.82 110.883C81.1282 110.739 80.5297 110.617 80.118 110.202C79.6596 109.746 79.8718 108.68 79.9227 108.473C80.0373 107.965 80.2241 107.682 80.5085 107.585C81.3234 107.297 82.427 107.403 83.0764 107.826C83.5263 108.122 83.4966 108.71 83.4499 109.526C83.433 109.851 83.4117 110.219 83.4202 110.596C83.4202 110.761 83.3481 110.913 83.2207 111.014C83.1273 111.086 83.017 111.12 82.9024 111.12V111.124ZM80.882 109.509C81.0942 109.687 81.5314 109.775 82.0323 109.877C82.1469 109.902 82.27 109.928 82.393 109.953C82.3973 109.784 82.41 109.623 82.4143 109.471C82.4313 109.183 82.4482 108.803 82.4228 108.638C82.0535 108.443 81.4423 108.393 80.9754 108.511C80.882 108.756 80.8268 109.31 80.882 109.505V109.509ZM82.5374 99.5165C82.4779 99.5165 82.41 99.5166 82.3421 99.5039C82.0238 99.47 81.6121 99.3643 81.4465 99.0429C81.281 98.7216 81.2725 98.3875 81.264 97.9562C81.264 97.7786 81.2555 97.5756 81.2385 97.343C81.2258 97.1696 81.3022 97.0005 81.4423 96.8948C81.5824 96.7891 81.7649 96.7637 81.9304 96.8229C82.1596 96.9075 82.3761 96.9667 82.5628 97.0174C83.0467 97.1527 83.4627 97.2711 83.6112 97.6686C83.8234 98.2437 83.416 98.9626 83.1698 99.2628C83.034 99.4278 82.826 99.5081 82.5374 99.5081V99.5165ZM82.3294 98.4636C82.3718 98.4721 82.4228 98.4805 82.4695 98.4848C82.5501 98.3537 82.6095 98.2141 82.6307 98.1169C82.5374 98.083 82.4058 98.0492 82.2997 98.0154C82.2997 98.1972 82.3082 98.3537 82.3294 98.4636ZM87.079 98.675C87.0111 98.675 86.9474 98.6666 86.8795 98.6539C86.5569 98.5862 86.2938 98.3706 86.1579 98.0534C85.9839 97.6559 86.1579 97.0047 86.5017 96.7425C86.7649 96.5396 87.079 96.5649 87.3804 96.5903C87.4865 96.5988 87.6053 96.6072 87.7326 96.6072C87.8939 96.6072 88.0467 96.6833 88.1444 96.8144C88.242 96.9455 88.2717 97.1104 88.225 97.2669C88.1868 97.3895 88.1656 97.5079 88.1444 97.6094C88.0892 97.8801 88.0298 98.1591 87.8048 98.3706C87.5968 98.5651 87.3422 98.6708 87.079 98.6708V98.675ZM87.0747 97.6475C87.079 97.6475 87.0747 97.6644 87.0747 97.6644C87.0747 97.6602 87.079 97.6517 87.0832 97.6475H87.0747ZM71.6459 98.3621C71.4634 98.3621 71.2852 98.3071 71.1536 98.1295C70.9753 97.8927 70.8989 97.6179 70.8352 97.3768C70.814 97.2965 70.7928 97.2161 70.7631 97.1358C70.7164 96.992 70.7334 96.8398 70.8098 96.7087C70.8862 96.5818 71.0178 96.493 71.1621 96.4677L71.9643 96.3281C72.1001 96.3028 72.2402 96.3366 72.3548 96.4169C72.4694 96.4973 72.5415 96.6199 72.5628 96.7552L72.7071 97.6602C72.7283 97.7955 72.6943 97.9308 72.6137 98.045C72.5331 98.1549 72.41 98.231 72.2741 98.2479C72.219 98.2564 72.1553 98.2733 72.0874 98.2902C71.9516 98.3241 71.7987 98.3621 71.6417 98.3621H71.6459ZM87.5756 94.7593C87.3846 94.7593 87.2191 94.7043 87.0747 94.6578C87.0281 94.6409 86.9814 94.6282 86.9389 94.6155C86.8031 94.5817 86.6842 94.4929 86.6163 94.3702C86.5442 94.2476 86.5314 94.0996 86.5696 93.9685C86.5824 93.9305 86.5866 93.8924 86.5951 93.8501C86.6291 93.6725 86.68 93.4315 86.8795 93.2454C87.0578 93.0805 87.2615 93.0213 87.4822 92.9579C87.5671 92.9325 87.6647 92.9071 87.7751 92.8648C87.9576 92.8014 88.1656 92.8437 88.3057 92.979C88.4457 93.1143 88.4967 93.3173 88.4372 93.5034C88.3693 93.7148 88.3226 93.8882 88.2887 94.0235C88.2038 94.3449 88.1147 94.6747 87.7454 94.7466C87.686 94.7593 87.6265 94.7635 87.5714 94.7635L87.5756 94.7593ZM83.815 94.4337C83.6494 94.4337 83.4924 94.3787 83.3693 94.3364C83.3268 94.3195 83.2802 94.3026 83.242 94.2941C83.1019 94.2603 82.983 94.1715 82.9109 94.0489C82.8387 93.9262 82.8217 93.7782 82.8642 93.6429C82.8769 93.5964 82.8897 93.5456 82.8981 93.4949C82.9406 93.2962 82.9958 93.0551 83.1825 92.8521C83.416 92.6027 83.7301 92.6449 83.9847 92.6788C84.0654 92.6915 84.1545 92.7041 84.2479 92.7084C84.4177 92.7168 84.5747 92.8099 84.6639 92.9579C84.753 93.1059 84.7615 93.2835 84.6893 93.4399C84.6469 93.533 84.6129 93.6175 84.5832 93.6937C84.4983 93.9178 84.4092 94.1461 84.1927 94.311C84.0696 94.4041 83.9381 94.4379 83.8107 94.4379L83.815 94.4337Z" fill="currentColor"/>
<path d="M73.4271 115.265C73.3295 115.164 73.2319 115.062 73.1343 114.961C72.9602 115.041 72.7565 115.088 72.5528 115.003L72.7438 114.555C72.557 114.36 72.3745 114.166 72.1877 113.971L71.7888 113.553C71.7251 113.489 71.6657 113.422 71.6062 113.354C71.5086 113.248 71.4152 113.143 71.3134 113.045C71.2709 113.007 71.2242 112.973 71.1775 112.935C71.0502 112.842 70.8932 112.724 70.7786 112.546C70.4517 112.039 70.0528 111.578 69.6325 111.096C69.0128 110.385 68.3719 109.645 67.956 108.724C67.2853 108.102 66.8694 107.341 66.4661 106.605C66.2157 106.148 65.9823 105.717 65.6894 105.324C65.6639 105.29 65.6342 105.252 65.6087 105.218C65.5196 105.108 65.4177 104.981 65.3413 104.821C64.7683 103.615 64.1147 102.245 63.5035 100.901C63.3337 100.533 63.0918 99.9745 62.9347 99.3825C62.8243 98.9807 62.7479 98.5706 62.6758 98.1773C62.6333 97.9405 62.5867 97.7037 62.5357 97.4711C62.4721 97.1709 62.3872 96.8579 62.2853 96.5492C62.2004 96.2955 62.1113 96.0418 62.0221 95.7923C61.9075 95.4667 61.7929 95.1411 61.6911 94.8155C61.6274 94.6083 61.5849 94.4011 61.5467 94.2023C61.5213 94.067 61.4916 93.9275 61.4576 93.7922C61.3175 93.272 61.0799 92.9972 60.5535 92.7477L60.2904 92.6208C59.5815 92.2783 58.9109 91.9527 58.1469 91.8639C57.7182 91.8131 57.3192 91.6397 56.9372 91.4748C56.7717 91.4029 56.6019 91.3268 56.4236 91.2592C56.2836 91.2084 56.1732 91.0985 56.1223 90.9589C56.0713 90.8194 56.0798 90.6629 56.152 90.5318C56.2284 90.3923 56.3005 90.2654 56.3684 90.1428C56.5043 89.9018 56.6231 89.6903 56.7292 89.4704L56.8184 89.2928C56.9287 89.0687 57.0348 88.8615 57.0688 88.6754C57.2513 87.5506 57.7819 86.6203 58.2785 85.8549C58.4313 85.6181 58.5671 85.3644 58.7114 85.0937C58.8133 84.9035 58.9109 84.7132 59.0213 84.5313L59.1741 84.2649C59.3651 83.9224 59.5646 83.5714 59.8277 83.25C60.354 82.6073 60.6596 81.9053 60.753 81.1103V81.0554C60.7658 80.9496 60.7785 80.8101 60.8464 80.6621C61.1478 79.9855 61.2242 79.2497 61.3048 78.4716C61.36 77.943 61.4194 77.3975 61.551 76.8605C61.7208 76.1755 61.9203 75.4904 62.1155 74.8265C62.3447 74.0484 62.5782 73.2408 62.7607 72.4415C62.8074 72.2386 62.9135 72.0821 62.9941 71.9679C63.0111 71.9426 63.0323 71.9172 63.0451 71.8918C63.1172 71.7692 63.2361 71.6761 63.3761 71.6465C63.3974 71.6423 63.4186 71.6339 63.4356 71.6296C63.5332 71.5958 63.7666 71.5197 64.0001 71.6592C64.6834 72.0736 65.4602 72.2682 66.2836 72.4796C66.984 72.6572 67.714 72.839 68.4016 73.1731C68.7454 73.338 68.7879 73.3634 69.0553 72.9532C69.4755 72.3062 70.0485 71.8664 70.9101 71.5324C71.1521 71.4393 71.4237 71.2364 71.6742 70.9615C72.1283 70.4667 72.6546 69.9931 73.4441 69.8916C73.8431 69.8409 74.0893 69.7013 74.31 69.4138C74.7684 68.7964 75.4433 68.585 76.0375 68.4581C76.3728 68.3862 76.7888 68.2805 77.018 68.086C77.6419 67.5574 78.2659 67.2445 78.9874 67.1134L79.0299 67.1049C79.1869 67.0753 79.3822 67.0415 79.4543 66.9865C80.5282 66.1958 81.7506 65.8744 82.9306 65.5657C83.3253 65.4642 83.7286 65.3543 84.1191 65.2359C84.5478 65.1005 85.0826 65.0879 85.5834 65.2063C85.923 65.2866 86.1097 65.2612 86.3262 65.1005C86.5894 64.9103 86.9374 64.6861 87.3449 64.6058C88.5716 64.3563 89.5181 64.1956 90.4222 64.0814L90.4731 64.073C90.8466 64.0265 91.2711 63.9715 91.7082 64.0434C91.861 63.9546 92.0521 63.8827 92.2558 63.9123C92.5529 63.9546 92.7566 64.1406 92.9731 64.3394C93.0538 64.4113 93.1429 64.4958 93.2532 64.5846C93.3891 64.6946 93.4612 64.8637 93.4443 65.0371C93.4273 65.2105 93.3254 65.3627 93.1684 65.4431C93.0453 65.5065 92.9349 65.5784 92.8373 65.6376C92.5656 65.811 92.2813 65.9843 91.9459 65.8828C91.5554 65.7644 91.3135 65.3543 91.2116 65.0371C91.0206 65.0371 90.8169 65.0667 90.6004 65.0921L90.5495 65.1005C89.6751 65.2105 88.7498 65.367 87.5486 65.6122C87.3364 65.6545 87.0945 65.8152 86.9289 65.9336C86.3347 66.3649 85.7702 66.3057 85.3457 66.2042C85.0316 66.1323 84.6793 66.1323 84.4247 66.2127C84.013 66.3438 83.597 66.4537 83.1895 66.5594C82.052 66.8597 80.9781 67.143 80.0613 67.8154C79.7939 68.0141 79.4713 68.0733 79.2082 68.1198L79.1657 68.1283C78.6267 68.2255 78.1555 68.4623 77.6801 68.8725C77.2727 69.2193 76.7251 69.3715 76.2413 69.473C75.6555 69.5956 75.3329 69.7605 75.1292 70.0354C74.7472 70.5471 74.2378 70.8389 73.5672 70.9192C73.1343 70.9742 72.8117 71.2448 72.4297 71.6592C72.1792 71.9341 71.7718 72.302 71.2752 72.4965C70.6215 72.7502 70.214 73.0547 69.9127 73.5156C69.3821 74.336 68.7921 74.5136 67.9432 74.1034C67.349 73.8159 66.7038 73.6509 66.0205 73.4818C65.2649 73.2915 64.4882 73.0927 63.7539 72.7122C63.5671 73.5241 63.3294 74.3402 63.1002 75.1225C62.9092 75.7737 62.714 76.4503 62.5485 77.1142C62.4338 77.5836 62.3829 78.0699 62.3277 78.5858C62.2428 79.4062 62.1495 80.2604 61.7844 81.085C61.7844 81.0934 61.7844 81.123 61.7844 81.1526L61.776 81.2414C61.6571 82.2394 61.2793 83.1105 60.6257 83.9139C60.4177 84.1677 60.2479 84.4637 60.0697 84.7808C60.0187 84.8739 59.9635 84.9669 59.9084 85.0599C59.8065 85.2333 59.7131 85.4109 59.6197 85.5885C59.4712 85.8634 59.3226 86.1509 59.1401 86.4258C58.6775 87.1362 58.2318 87.9185 58.0832 88.8488C58.028 89.1913 57.8752 89.5 57.7394 89.7664L57.6588 89.9314C57.5612 90.1301 57.455 90.3246 57.3362 90.5361C57.3404 90.5361 57.3489 90.5403 57.3532 90.5445C57.697 90.6925 57.9898 90.8236 58.27 90.8574C59.208 90.9674 59.9848 91.3437 60.7403 91.7074L60.9992 91.8343C61.7972 92.2149 62.2344 92.7265 62.4508 93.5427C62.4933 93.6991 62.523 93.8556 62.5569 94.0163C62.5909 94.1981 62.6291 94.3672 62.6758 94.5237C62.7734 94.8409 62.8838 95.1538 62.9941 95.4667C63.0875 95.7247 63.1766 95.9868 63.2615 96.249C63.3719 96.5915 63.4695 96.9341 63.5417 97.2724C63.5926 97.5176 63.6393 97.7629 63.686 98.0081C63.7581 98.4014 63.8261 98.7693 63.9237 99.133C64.0298 99.5305 64.1911 99.9533 64.4373 100.495C65.0485 101.831 65.6979 103.197 66.2709 104.398C66.2964 104.448 66.3515 104.516 66.411 104.588C66.4492 104.634 66.4874 104.681 66.5213 104.728C66.8524 105.176 67.1155 105.658 67.3702 106.127C67.7607 106.846 68.1342 107.527 68.7157 108.039C68.8303 108.14 68.8728 108.258 68.894 108.309C69.2463 109.096 69.8108 109.747 70.4135 110.436C70.4178 110.445 70.4263 110.453 70.4348 110.457C70.473 110.436 70.5154 110.419 70.5536 110.402C70.6088 110.377 70.6725 110.347 70.7489 110.309C70.9144 110.221 71.1139 110.233 71.2709 110.335C71.428 110.436 71.5171 110.618 71.5044 110.804C71.5001 110.889 71.5001 110.961 71.5001 111.024C71.5001 111.197 71.5001 111.409 71.3685 111.591C71.4662 111.726 71.5638 111.861 71.6529 112.005C71.6699 112.03 71.7506 112.09 71.8015 112.128C71.8864 112.191 71.967 112.255 72.0392 112.322C72.1538 112.436 72.2641 112.555 72.3745 112.673C72.4297 112.737 72.4891 112.796 72.5443 112.859L72.9433 113.278C72.9942 113.329 73.0409 113.384 73.0918 113.434L73.1597 113.337C73.3762 113.489 73.5587 113.743 73.6479 114.018C73.8219 114.2 73.9959 114.382 74.1699 114.559L73.4271 115.274V115.265ZM75.9102 112.995C75.8465 112.995 75.7871 112.986 75.7234 112.965C75.3881 112.855 74.8788 112.466 74.8618 111.992C74.8491 111.646 75.0825 111.413 75.3075 111.185C75.3881 111.104 75.4772 111.016 75.5664 110.91C75.6767 110.779 75.8508 110.711 76.0205 110.732C76.1903 110.753 76.3431 110.855 76.4195 111.007C76.4789 111.126 76.5426 111.227 76.5978 111.316C76.7463 111.561 76.8864 111.798 76.8737 112.094C76.8567 112.47 76.4917 112.749 76.3771 112.825C76.2158 112.935 76.0587 112.99 75.9102 112.99V112.995ZM73.7115 109.98C73.5757 109.98 73.4484 109.929 73.3507 109.832C73.321 109.802 73.2828 109.777 73.2489 109.747C73.0706 109.607 72.7989 109.392 72.8287 109.037C72.8541 108.766 72.9984 108.567 73.1385 108.377C73.1852 108.309 73.2404 108.237 73.2913 108.157C73.3804 108.013 73.5375 107.924 73.7073 107.916C73.8855 107.907 74.0383 107.984 74.1402 108.119C74.1996 108.195 74.2591 108.263 74.3142 108.326C74.4925 108.525 74.7132 108.77 74.6198 109.108C74.5434 109.379 74.3567 109.557 74.2081 109.696C74.1699 109.734 74.1317 109.768 74.0978 109.806C74.0044 109.912 73.8686 109.975 73.7285 109.98C73.7243 109.98 73.7158 109.98 73.7115 109.98ZM76.7591 107.988C76.6615 107.988 76.5596 107.962 76.4577 107.899C76.1861 107.73 76.0375 107.459 75.9187 107.244C75.8847 107.18 75.8508 107.117 75.8126 107.058C75.7362 106.939 75.7107 106.8 75.7446 106.664C75.7786 106.529 75.8592 106.411 75.9823 106.339C76.0333 106.305 76.0884 106.267 76.1394 106.224C76.3389 106.072 76.6105 105.873 76.9543 105.903C77.3024 105.937 77.5061 106.212 77.6801 106.453C77.7396 106.537 77.8075 106.63 77.8881 106.719C77.99 106.838 78.0367 106.994 78.007 107.146C77.9815 107.299 77.8839 107.434 77.748 107.506C77.6377 107.565 77.5316 107.637 77.434 107.696C77.2217 107.831 76.9925 107.984 76.7548 107.984L76.7591 107.988ZM71.636 106.855C71.5935 106.855 71.5511 106.855 71.5086 106.842C71.2285 106.787 71.0799 106.575 70.9696 106.423C70.9356 106.377 70.9017 106.326 70.8592 106.275C70.7573 106.153 70.7191 105.992 70.7531 105.84C70.7871 105.683 70.8889 105.556 71.0332 105.484C71.0969 105.455 71.1606 105.417 71.2157 105.383C71.411 105.273 71.7336 105.087 72.0434 105.324C72.2259 105.468 72.3236 105.649 72.3957 105.797C72.4127 105.835 72.4339 105.869 72.4509 105.903C72.5273 106.03 72.5443 106.178 72.5018 106.318C72.4594 106.457 72.3575 106.571 72.2259 106.63C72.2005 106.643 72.175 106.66 72.1453 106.677C72.0222 106.749 71.8482 106.85 71.636 106.85V106.855ZM74.658 104.909C74.5265 104.909 74.4119 104.871 74.31 104.791C74.0553 104.592 73.7752 104.19 73.7667 103.772C73.7625 103.4 74.0596 103.214 74.3227 103.049C74.4076 102.994 74.5052 102.935 74.6029 102.863C74.7344 102.765 74.9085 102.736 75.0655 102.787C75.2226 102.837 75.3457 102.96 75.4008 103.116C75.4348 103.222 75.473 103.315 75.5112 103.4C75.6131 103.649 75.7192 103.903 75.6597 104.199C75.5749 104.596 75.1037 104.795 74.9636 104.846C74.8533 104.884 74.7514 104.905 74.658 104.905V104.909ZM109.595 87.28C109.281 87.28 108.958 87.2165 108.64 87.0897C108.508 87.0389 108.381 86.9713 108.249 86.8867C107.506 86.4046 107.146 85.5378 107.307 84.6244C107.468 83.7067 108.139 82.9794 109.009 82.7722C109.323 82.7003 109.599 82.6876 109.862 82.7384C110.753 82.9075 111.67 84.3537 111.64 85.2418C111.619 85.9691 111.288 86.5907 110.736 86.9544C110.401 87.1743 110.006 87.2842 109.595 87.2842V87.28ZM109.247 83.7744C108.674 83.9097 108.393 84.396 108.321 84.802C108.232 85.3094 108.415 85.7661 108.814 86.0241C108.886 86.0706 108.954 86.1044 109.022 86.134C109.45 86.3032 109.871 86.2862 110.172 86.0875C110.444 85.9099 110.601 85.597 110.613 85.2037C110.63 84.7132 109.947 83.7955 109.671 83.7448C109.556 83.7237 109.416 83.7321 109.247 83.7702V83.7744ZM94.1913 84.1634C94.1446 84.1634 94.1022 84.1634 94.0555 84.1592C93.4103 84.1042 92.884 83.1486 92.7864 82.9583C92.5487 82.4973 92.5105 82.1633 92.6633 81.9053C93.1047 81.1653 94.0173 80.5395 94.7855 80.4464C95.3288 80.383 95.6769 80.8566 96.1692 81.5121C96.3645 81.7742 96.5894 82.066 96.8356 82.3493C96.9417 82.472 96.9884 82.6369 96.9545 82.7976C96.9205 82.9583 96.8101 83.0894 96.6616 83.157C96.3475 83.2966 96.0716 83.4446 95.8 83.5926C95.2269 83.9013 94.7261 84.1677 94.1913 84.1677V84.1634ZM93.6225 82.3113C93.7117 82.5565 94.0258 83.0175 94.1913 83.1316C94.4672 83.1316 94.8577 82.9202 95.3076 82.6792C95.4095 82.6242 95.5198 82.565 95.6344 82.5058C95.5326 82.3747 95.4349 82.2436 95.3416 82.1252C95.1675 81.8969 94.9383 81.5924 94.811 81.4782C94.4035 81.567 93.9027 81.918 93.6225 82.3113ZM79.5307 80.6663C79.4883 80.6663 79.4416 80.6621 79.3907 80.6494C79.1021 80.5817 78.8686 80.4211 78.6606 80.2773C78.5927 80.2308 78.5248 80.1842 78.4526 80.1377C78.3253 80.0574 78.2362 79.9305 78.2149 79.7825C78.1895 79.6345 78.2319 79.4823 78.3296 79.3681L78.8559 78.7465C78.945 78.6408 79.0723 78.5731 79.2124 78.5647C79.3525 78.5477 79.4883 78.5985 79.5902 78.6915L80.282 79.292C80.3839 79.3808 80.4476 79.5077 80.456 79.643C80.4645 79.7783 80.4178 79.9136 80.3287 80.0151C80.2905 80.0574 80.2523 80.1124 80.2141 80.1673C80.0571 80.3788 79.8533 80.6621 79.5307 80.6621V80.6663ZM103.258 78.201C103.181 78.201 103.101 78.1883 103.024 78.1587C102.328 77.8965 101.292 77.1269 101.165 76.2516C101.084 75.6849 101.522 75.2113 102.073 74.6066C102.315 74.3444 102.591 74.0442 102.859 73.7017C102.965 73.5664 103.126 73.4902 103.308 73.5029C103.483 73.5156 103.635 73.6171 103.72 73.7651C103.928 74.1415 104.136 74.4671 104.323 74.7504C104.73 75.3805 105.049 75.8752 105.032 76.4461C105.011 77.0889 104.213 77.7528 103.907 77.9557C103.737 78.0657 103.508 78.1968 103.258 78.1968V78.201ZM103.194 74.9069C103.071 75.0464 102.948 75.1775 102.837 75.3001C102.574 75.5877 102.209 75.9809 102.188 76.1247C102.23 76.4123 102.757 76.907 103.27 77.1438C103.508 77.0127 103.954 76.5814 104 76.3911C104.005 76.167 103.763 75.7906 103.453 75.3128C103.372 75.1859 103.283 75.0506 103.194 74.9069ZM88.1259 74.8054C88.041 74.8054 87.9561 74.7927 87.8712 74.7546C87.5359 74.6151 87.3152 74.3614 87.0308 74.04C86.912 73.9047 86.7804 73.7524 86.6148 73.5833C86.4917 73.4564 86.4451 73.2788 86.4833 73.1097C86.5215 72.9405 86.6445 72.801 86.8101 72.7418C87.0393 72.6614 87.243 72.5684 87.4213 72.488C87.8797 72.2851 88.2702 72.1032 88.6437 72.3147C89.1785 72.6191 89.3313 73.431 89.3356 73.8201C89.3356 74.078 89.1785 74.3106 88.8559 74.5305C88.6564 74.6658 88.389 74.8011 88.1259 74.8011V74.8054ZM87.8627 73.4226C87.9858 73.5621 88.0877 73.6763 88.1726 73.744C88.2108 73.7228 88.2575 73.6975 88.2957 73.6721C88.2744 73.5198 88.2277 73.3761 88.1811 73.283C88.0877 73.3169 87.9646 73.3718 87.8627 73.4184V73.4226ZM91.3178 71.0926C91.1565 71.0926 90.9952 71.0545 90.8424 70.9784C90.4519 70.7839 90.1632 70.1792 90.2566 69.7563C90.3288 69.4307 90.5835 69.2531 90.8296 69.0797C90.9145 69.0205 91.0122 68.9529 91.1098 68.8683C91.2329 68.7626 91.4026 68.7245 91.5597 68.7626C91.7167 68.8006 91.8483 68.9064 91.9162 69.0586C91.9672 69.177 92.0266 69.2827 92.0775 69.3757C92.2091 69.621 92.3449 69.8747 92.311 70.1792C92.2685 70.5302 92.0775 70.8262 91.7847 70.9826C91.6403 71.0588 91.4833 71.101 91.322 71.101L91.3178 71.0926ZM91.2753 70.0819C91.2753 70.0819 91.2838 70.0946 91.2838 70.0988C91.2838 70.0946 91.2838 70.0862 91.2796 70.0819H91.2753ZM85.9442 70.0227C85.8848 70.0227 85.8254 70.0143 85.7659 69.9931C85.6301 69.9424 85.524 69.8409 85.4688 69.7098C85.4476 69.6633 85.4264 69.6168 85.4009 69.5745C85.3075 69.3969 85.1929 69.1728 85.2057 68.9021C85.2226 68.5596 85.49 68.3905 85.7065 68.2551C85.7744 68.2129 85.8508 68.1663 85.9272 68.1114C86.063 68.0099 86.2413 67.9803 86.4026 68.0352C86.5639 68.0902 86.687 68.2213 86.7337 68.3862C86.7591 68.4835 86.7889 68.5681 86.8186 68.6484C86.895 68.8725 86.9756 69.1051 86.9162 69.3715C86.8398 69.7183 86.5172 69.8409 86.3007 69.9212C86.2583 69.9382 86.2116 69.9551 86.1776 69.972C86.1055 70.01 86.0248 70.027 85.9442 70.027V70.0227ZM88.9875 67.8999C88.9281 67.8999 88.8644 67.8872 88.8092 67.8661C88.6777 67.8154 88.5716 67.7139 88.5164 67.587C88.4994 67.5532 88.4824 67.5151 88.4612 67.4813C88.3763 67.3248 88.2575 67.1049 88.2872 66.8385C88.3169 66.5975 88.4357 66.4199 88.5631 66.2296C88.614 66.1577 88.6692 66.0731 88.7286 65.9716C88.8262 65.8025 89.013 65.7095 89.2082 65.7179C89.4035 65.7306 89.5733 65.8532 89.6497 66.0351C89.7346 66.2423 89.8109 66.403 89.8704 66.5256C90.0104 66.8258 90.159 67.1345 89.9213 67.4263C89.7515 67.6335 89.5308 67.7223 89.3483 67.7942C89.3016 67.8111 89.2592 67.828 89.2167 67.8492C89.1446 67.883 89.0682 67.8999 88.9875 67.8999Z" fill="currentColor"/>
<path d="M91.3607 92.6614L91.2164 92.1962C90.9575 92.1666 90.6985 92.137 90.4396 92.1074L89.8411 92.0397C89.752 92.0313 89.6671 92.0186 89.578 92.0059C89.4337 91.989 89.2936 91.9678 89.1493 91.9552C89.0941 91.9509 89.0347 91.9552 88.9753 91.9552C88.8182 91.9636 88.623 91.9763 88.415 91.9129C87.8335 91.7353 87.235 91.638 86.5983 91.5365C85.6645 91.3885 84.701 91.2321 83.7842 90.7923C82.8717 90.7458 82.0609 90.4286 81.2757 90.1241C80.7876 89.9339 80.3292 89.7562 79.858 89.6378C79.8156 89.6294 79.7689 89.6209 79.7265 89.6125C79.5864 89.5871 79.4294 89.5533 79.2638 89.4814C77.982 88.8936 76.6534 88.2889 75.3249 87.6546C74.7434 87.3755 74.2935 87.1218 73.9072 86.8554C73.5634 86.6186 73.2451 86.3522 72.9353 86.0984C72.7485 85.9462 72.5617 85.794 72.3707 85.646C72.1245 85.4557 71.8614 85.2738 71.5855 85.1005C71.3605 84.9609 71.1271 84.8256 70.8979 84.6903C70.6008 84.5127 70.2994 84.3393 70.0108 84.1532C69.8283 84.0348 69.6627 83.9038 69.5057 83.7769C69.3953 83.6881 69.285 83.6035 69.1704 83.5232C68.7247 83.2145 68.3682 83.1553 67.8036 83.2991L67.5193 83.3709C66.7552 83.5612 66.0337 83.7431 65.3928 84.1659C65.032 84.4027 64.616 84.5254 64.2128 84.6395C64.0388 84.6903 63.8605 84.741 63.678 84.8045C63.5379 84.8552 63.3809 84.8383 63.2535 84.7664C63.1219 84.6945 63.0328 84.5677 63.0031 84.4197C62.9734 84.2632 62.9437 84.1194 62.9182 83.9841C62.8673 83.7092 62.8206 83.4724 62.7612 83.2356L62.7145 83.0411C62.655 82.8001 62.6041 82.5717 62.5065 82.411C61.9207 81.4342 61.7255 80.377 61.6151 79.4763C61.5812 79.193 61.5218 78.9139 61.4538 78.6179C61.4072 78.4065 61.3647 78.1993 61.3265 77.9878L61.2713 77.6876C61.1992 77.3028 61.1228 76.9053 61.1185 76.4909C61.1058 75.6578 60.8893 74.9305 60.4479 74.2581L60.4139 74.2116C60.3545 74.127 60.2739 74.0086 60.2272 73.8522C60.0192 73.1418 59.6075 72.5286 59.1661 71.8816C58.8689 71.4418 58.5591 70.9851 58.3172 70.4904C58.0073 69.8603 57.7187 69.2091 57.4385 68.5748C57.1075 67.8305 56.7679 67.0609 56.3944 66.3336C56.2968 66.1475 56.2798 65.9572 56.2671 65.8219C56.2671 65.7881 56.2628 65.7585 56.2543 65.7289C56.2289 65.5893 56.2628 65.4413 56.3519 65.3272C56.3647 65.3102 56.3774 65.2891 56.3859 65.2764C56.4453 65.1791 56.5642 64.9804 56.8316 64.9381C57.6295 64.8155 58.3511 64.4687 59.1109 64.1051C59.7645 63.7921 60.4394 63.4665 61.1822 63.2805C61.5515 63.1874 61.6024 63.1748 61.5387 62.6927C61.4411 61.9273 61.5982 61.2253 62.0438 60.4177C62.1712 60.1893 62.2476 59.8595 62.2603 59.4916C62.2858 58.8192 62.3876 58.1215 62.9309 57.5379C63.2026 57.2461 63.3045 56.9797 63.2832 56.6203C63.2365 55.8507 63.6143 55.2587 63.9921 54.7808C64.2043 54.5144 64.4505 54.1677 64.5014 53.8674C64.633 53.064 64.9131 52.4254 65.3843 51.8588C65.5116 51.7023 65.6389 51.5501 65.6644 51.4613C65.9785 50.1673 66.7086 49.1398 67.4131 48.146C67.6466 47.8162 67.8885 47.4737 68.1092 47.1311C68.3512 46.7506 68.7544 46.4038 69.2128 46.1712C69.5227 46.0148 69.65 45.8752 69.7179 45.6173C69.7943 45.3043 69.9174 44.9068 70.1763 44.5855C70.9403 43.6256 71.5855 42.8729 72.1967 42.2132L72.2307 42.1751C72.4853 41.9003 72.7782 41.5873 73.156 41.3632C73.2154 41.1941 73.3173 41.0165 73.4913 40.9107C73.7502 40.7543 74.0218 40.767 74.3147 40.7797C74.4251 40.7839 74.5439 40.7923 74.6882 40.7881C74.8623 40.7881 75.0278 40.8685 75.1254 41.0122C75.223 41.156 75.2443 41.3378 75.1764 41.4985C75.1212 41.6296 75.083 41.7523 75.049 41.858C74.9514 42.1624 74.8495 42.4796 74.5269 42.6149C74.1534 42.7756 73.6993 42.6149 73.4234 42.4373C73.2791 42.5599 73.139 42.7122 72.9947 42.8686L72.9565 42.9067C72.3622 43.5452 71.7383 44.281 70.987 45.2198C70.8512 45.3889 70.7706 45.668 70.7239 45.8625C70.5456 46.5729 70.0744 46.8901 69.684 47.0846C69.3953 47.2284 69.1279 47.4567 68.9836 47.6809C68.7544 48.0403 68.504 48.3955 68.262 48.738C67.5829 49.6937 66.942 50.5987 66.6746 51.7023C66.5982 52.0237 66.386 52.2817 66.2162 52.4846C65.8427 52.9329 65.6347 53.4192 65.5328 54.0366C65.4437 54.5609 65.1211 55.0303 64.8197 55.4151C64.4505 55.8845 64.3104 56.2143 64.3316 56.5611C64.3698 57.1996 64.1661 57.7451 63.7077 58.2399C63.4106 58.5613 63.3342 58.9714 63.3129 59.5381C63.296 59.9102 63.2238 60.4515 62.9691 60.9166C62.6296 61.5298 62.515 62.0246 62.5829 62.5701C62.706 63.5384 62.3664 64.0501 61.4538 64.2827C60.8129 64.4434 60.2144 64.7309 59.5778 65.0354C58.8774 65.3737 58.1516 65.7204 57.3452 65.898C57.7272 66.6423 58.071 67.4161 58.402 68.1688C58.6779 68.7904 58.9623 69.4332 59.2637 70.0421C59.4759 70.4735 59.7518 70.8794 60.0447 71.3107C60.5073 71.9958 60.9912 72.7062 61.2416 73.5731C61.2459 73.5815 61.2671 73.6027 61.2841 73.6281L61.335 73.6999C61.8868 74.5415 62.1627 75.4506 62.1754 76.4824C62.1754 76.808 62.2433 77.1463 62.3112 77.5058L62.3707 77.8187C62.4046 78.0174 62.4471 78.2119 62.4895 78.4065C62.5574 78.7109 62.6253 79.0281 62.6635 79.3579C62.7696 80.1952 62.9309 81.0832 63.4191 81.8909C63.5973 82.1869 63.678 82.521 63.7459 82.8128L63.7883 82.9904C63.8435 83.206 63.886 83.4217 63.9326 83.6585C63.9369 83.6585 63.9454 83.6585 63.9496 83.6543C64.3062 83.5485 64.6203 83.4597 64.8495 83.3075C65.6389 82.7916 66.4793 82.5802 67.29 82.3772L67.5702 82.3053C68.4276 82.0854 69.0897 82.1996 69.7858 82.6817C69.9174 82.7747 70.0447 82.8762 70.1721 82.9777C70.3164 83.0918 70.4522 83.2018 70.588 83.2906C70.8682 83.4682 71.1568 83.6416 71.4454 83.8107C71.6831 83.9503 71.9208 84.0898 72.1543 84.2336C72.4641 84.4239 72.757 84.6269 73.0286 84.8383C73.2281 84.9905 73.4234 85.1512 73.6144 85.3119C73.9242 85.5656 74.2129 85.8024 74.5227 86.0181C74.858 86.2507 75.2655 86.479 75.7961 86.7327C77.1161 87.3628 78.4404 87.9675 79.718 88.5511C79.7689 88.5764 79.8538 88.5891 79.9472 88.6103C80.0066 88.623 80.066 88.6314 80.1255 88.6483C80.6688 88.7794 81.1823 88.9824 81.6789 89.1769C82.443 89.4772 83.1645 89.7605 83.9455 89.7816C84.1026 89.7858 84.2087 89.8493 84.2554 89.8747C85.0321 90.251 85.8895 90.3863 86.7936 90.5343C86.8021 90.5343 86.8148 90.5343 86.8233 90.5386C86.8403 90.4963 86.8615 90.4582 86.8785 90.4159C86.9039 90.3609 86.9337 90.2975 86.9676 90.2214C87.0398 90.048 87.1968 89.9296 87.3836 89.9043C87.5703 89.8789 87.7528 89.9635 87.8632 90.1157C87.9141 90.1833 87.9608 90.2383 87.999 90.2891C88.1094 90.4202 88.2452 90.5851 88.2622 90.8092C88.4235 90.8473 88.5848 90.8938 88.7461 90.9445C88.7758 90.953 88.8734 90.9445 88.9371 90.9445C89.0432 90.9403 89.145 90.936 89.2469 90.9445C89.4124 90.9572 89.5737 90.9783 89.7393 90.9995C89.8199 91.0122 89.9006 91.0206 89.9855 91.0291L90.5839 91.101L90.7749 91.1221L90.7664 91.0037C91.0296 90.9741 91.3352 91.0629 91.5814 91.2151C91.8318 91.2447 92.0822 91.2701 92.3327 91.2955L92.2266 92.3188C92.0865 92.3061 91.9464 92.2892 91.8064 92.2723C91.7257 92.4457 91.5984 92.6148 91.3904 92.6783L91.3607 92.6614ZM91.9549 89.1558C91.6748 89.1558 91.3734 89.0797 91.1867 88.8725C90.9532 88.6145 90.9787 88.2889 91.0084 87.9717C91.0169 87.8618 91.0296 87.7349 91.0296 87.5954C91.0296 87.422 91.1187 87.2613 91.2631 87.1683C91.4074 87.071 91.5899 87.0584 91.7469 87.1218C91.87 87.1725 91.9804 87.2106 92.0822 87.2444C92.3539 87.3374 92.6128 87.4262 92.7953 87.6631C93.0245 87.9633 92.9227 88.4115 92.8845 88.5426C92.8081 88.809 92.6722 88.9824 92.4727 89.0585C92.3369 89.1135 92.1502 89.1473 91.9549 89.1473V89.1558ZM88.381 88.1916C88.1646 88.1916 87.8887 88.162 87.7146 87.9125C87.5576 87.6884 87.5406 87.4432 87.5236 87.2064C87.5194 87.126 87.5109 87.0372 87.4982 86.9399C87.4769 86.7708 87.5364 86.6059 87.6595 86.4917C87.7826 86.3775 87.9566 86.331 88.1221 86.3691C88.2155 86.3902 88.3089 86.4029 88.3895 86.4156C88.6527 86.4537 88.9795 86.5002 89.1281 86.8215C89.2427 87.0753 89.2172 87.329 89.196 87.532C89.1917 87.5827 89.1832 87.6377 89.1832 87.6884C89.1832 87.828 89.1153 87.9633 89.0135 88.0563C88.9116 88.1494 88.7673 88.2001 88.6272 88.1874C88.5848 88.1874 88.5381 88.1874 88.4914 88.1874C88.4574 88.1874 88.4192 88.1874 88.3768 88.1874L88.381 88.1916ZM84.9642 87.1598C84.8326 87.1598 84.7095 87.126 84.6077 87.1006C84.5525 87.088 84.4931 87.071 84.4294 87.0584C84.2723 87.0288 84.1408 86.9315 84.0644 86.7919C83.9922 86.6524 83.9837 86.4875 84.0474 86.3437C84.0771 86.2803 84.1026 86.2126 84.1238 86.1492C84.2002 85.9377 84.3318 85.5868 84.7223 85.5741C84.943 85.5656 85.1425 85.646 85.2953 85.7094C85.3335 85.7263 85.3717 85.7432 85.4099 85.7559C85.5499 85.8024 85.6603 85.9081 85.7155 86.0435C85.7707 86.1788 85.7707 86.331 85.707 86.4621C85.6943 86.4875 85.6858 86.5171 85.673 86.5467C85.6179 86.7031 85.533 86.9442 85.2868 87.0795C85.1764 87.1387 85.0661 87.1598 84.96 87.1598H84.9642ZM89.6162 84.7283C89.3573 84.7283 89.1238 84.6353 88.9286 84.5592C88.8607 84.5338 88.7927 84.5042 88.7248 84.4831C88.5933 84.4408 88.4787 84.3478 88.4192 84.2251C88.3556 84.1025 88.3471 83.9587 88.3895 83.8276C88.4107 83.7684 88.4235 83.705 88.4405 83.6416C88.4956 83.3963 88.572 83.0665 88.8607 82.872C89.1493 82.6774 89.4804 82.7578 89.7732 82.8254C89.8751 82.8508 89.9855 82.8762 90.1043 82.8973C90.2571 82.9227 90.3929 83.0115 90.4736 83.1468C90.55 83.2821 90.5627 83.4428 90.5075 83.5908C90.4608 83.7092 90.4269 83.8276 90.3929 83.9376C90.2911 84.2759 90.1722 84.6565 89.769 84.7157C89.7181 84.7241 89.6671 84.7241 89.6204 84.7241L89.6162 84.7283ZM86.072 83.7135C85.7409 83.7135 85.308 83.5824 85.0406 83.2779C84.7944 82.9988 84.9048 82.6647 85.0024 82.3687C85.0321 82.2715 85.0703 82.1658 85.1 82.0474C85.1382 81.8867 85.2528 81.7556 85.4056 81.6922C85.5584 81.6287 85.7325 81.6456 85.8725 81.7302C85.9659 81.7894 86.055 81.8359 86.1399 81.8782C86.3776 82.0009 86.6238 82.1319 86.7681 82.3941C86.9591 82.7493 86.7299 83.2018 86.6535 83.3329C86.5134 83.5739 86.3352 83.7008 86.1187 83.7092C86.1017 83.7092 86.089 83.7092 86.072 83.7092V83.7135ZM73.313 62.1726C73.1899 62.1726 73.0711 62.1303 72.9735 62.0457C72.8588 61.9484 72.7952 61.8047 72.7952 61.6567V60.8448C72.7952 60.7052 72.8504 60.5741 72.9522 60.4769C73.0499 60.3796 73.1814 60.3331 73.3215 60.3289L74.2383 60.3458C74.3741 60.3458 74.5057 60.405 74.5991 60.5022C74.6925 60.5995 74.7477 60.7348 74.7434 60.8701C74.7434 60.9251 74.7434 60.9928 74.7519 61.0604C74.7731 61.3607 74.7986 61.7666 74.4293 61.9527C74.1662 62.0838 73.8818 62.1134 73.6314 62.1345C73.5507 62.143 73.4658 62.1514 73.3809 62.1599C73.3555 62.1599 73.33 62.1641 73.3045 62.1641L73.313 62.1726ZM87.3326 55.4109C86.8445 55.4109 86.3182 55.2037 86.1781 55.1487C85.6985 54.9457 85.4523 54.7174 85.4014 54.4214C85.2613 53.5714 85.5542 52.51 86.089 51.9434C86.4583 51.5543 87.0355 51.6854 87.8377 51.8715C88.1561 51.9434 88.5169 52.0279 88.8904 52.0829C89.0517 52.1083 89.1917 52.2056 89.2681 52.3493C89.3445 52.4931 89.3488 52.6665 89.2766 52.8145C89.1281 53.1232 89.0092 53.415 88.8946 53.6983C88.6315 54.3495 88.4065 54.9161 87.9269 55.2502C87.7613 55.3644 87.5533 55.4067 87.3326 55.4067V55.4109ZM86.4073 54.1169C86.6323 54.248 87.1671 54.4087 87.3751 54.3833C87.5873 54.2057 87.7486 53.7913 87.9396 53.3219C87.982 53.212 88.0287 53.0978 88.0797 52.9794C87.9141 52.9456 87.7571 52.9075 87.6085 52.8737C87.3284 52.8103 86.9549 52.7215 86.7851 52.7172C86.5304 53.0428 86.3734 53.6348 86.4116 54.1169H86.4073ZM76.6959 52.0745C76.4879 52.0745 76.2714 52.0406 76.0253 52.0026C75.8512 51.9772 75.6475 51.9434 75.414 51.918C75.24 51.9011 75.0872 51.7954 75.0066 51.6389C74.9259 51.4824 74.9344 51.2964 75.0193 51.1484C75.1424 50.9369 75.24 50.7382 75.3249 50.5606C75.5414 50.1124 75.7324 49.7233 76.1526 49.6472C76.7553 49.5415 77.3962 50.0658 77.6509 50.3576C77.8207 50.5521 77.8504 50.8312 77.74 51.2076C77.6509 51.5163 77.4726 51.9011 77.1288 52.011C76.9845 52.0575 76.8444 52.0745 76.6959 52.0745ZM76.2587 50.9961C76.4412 51.0258 76.5898 51.0427 76.7044 51.0427C76.7214 51.0004 76.7383 50.9539 76.7511 50.9116C76.6365 50.8101 76.5091 50.7297 76.4157 50.6875C76.3691 50.772 76.3096 50.8947 76.2587 50.9961ZM72.2646 49.736C72.184 49.736 72.1033 49.7191 72.0312 49.681C71.9887 49.6599 71.9378 49.6387 71.8911 49.6218C71.7043 49.5457 71.4709 49.4485 71.3054 49.2328C71.0974 48.9579 71.195 48.6577 71.2714 48.4167C71.2969 48.3405 71.3223 48.256 71.3436 48.1629C71.3818 47.998 71.5006 47.8627 71.6619 47.7993C71.8232 47.7358 72.0015 47.757 72.1415 47.8542C72.2264 47.9092 72.3028 47.9557 72.375 47.998C72.5787 48.1206 72.7909 48.2475 72.9183 48.4885C73.0838 48.8057 72.9183 49.1059 72.8037 49.3047C72.7825 49.347 72.757 49.385 72.74 49.4231C72.6848 49.5542 72.5745 49.6557 72.4429 49.7064C72.3877 49.7275 72.3283 49.736 72.2646 49.736ZM100.3 48.2687C99.5186 48.2687 98.7971 47.8458 98.3769 47.1227C97.9057 46.315 97.9524 45.3297 98.4872 44.6108C98.6825 44.3529 98.8862 44.1668 99.1196 44.0357C99.9134 43.596 101.543 44.1161 102.095 44.8138C102.545 45.3847 102.698 46.074 102.507 46.704C102.303 47.3764 101.751 47.905 100.987 48.1545C100.851 48.201 100.711 48.2306 100.559 48.2475C100.469 48.256 100.385 48.2644 100.3 48.2644V48.2687ZM99.3149 45.2282C98.9626 45.6976 99.0602 46.2473 99.2724 46.611C99.5314 47.0592 99.9728 47.2918 100.44 47.2326C100.525 47.2242 100.597 47.2073 100.665 47.1819C101.102 47.0381 101.416 46.7548 101.518 46.408C101.611 46.0993 101.531 45.7568 101.284 45.4481C100.979 45.0591 99.8667 44.7969 99.6205 44.9322C99.5186 44.9872 99.4168 45.0845 99.3149 45.224V45.2282ZM76.7723 47.2369C76.3733 47.2369 75.8937 46.9831 75.7239 46.6533C75.5711 46.3573 75.6517 46.057 75.7239 45.7653C75.7494 45.6638 75.7833 45.5496 75.8045 45.427C75.8343 45.2663 75.9361 45.131 76.0804 45.0591C76.2247 44.9872 76.3988 44.9872 76.5431 45.0591C76.6619 45.1183 76.768 45.1606 76.8699 45.1986C77.1288 45.3001 77.3962 45.4058 77.566 45.6638C77.7613 45.9598 77.8037 46.3065 77.6806 46.6195C77.5618 46.9239 77.2986 47.1438 76.959 47.2242C76.8996 47.2369 76.836 47.2453 76.7723 47.2453V47.2369ZM76.7214 46.2516L76.7341 46.26C76.7341 46.26 76.7256 46.2516 76.7171 46.2516H76.7214ZM73.2281 46.1628C73.1475 46.1628 73.0668 46.1459 72.9947 46.1078C72.9607 46.0909 72.9225 46.0782 72.8843 46.0613C72.7145 45.9936 72.4811 45.9048 72.3325 45.6765C72.201 45.4777 72.1755 45.2621 72.1543 45.0379C72.1458 44.9491 72.133 44.8476 72.1161 44.7335C72.0821 44.539 72.1627 44.3444 72.324 44.2303C72.4811 44.1161 72.6933 44.0992 72.8673 44.1922C73.0668 44.2979 73.2281 44.3698 73.3555 44.429C73.6568 44.5686 73.9667 44.7123 73.9752 45.0845C73.9752 45.3509 73.8648 45.5623 73.7757 45.7314C73.7544 45.7737 73.729 45.816 73.712 45.8583C73.6526 45.9852 73.5465 46.0867 73.4149 46.1332C73.3597 46.1543 73.3003 46.1628 73.2409 46.1628H73.2281ZM89.7647 45.0971C89.213 45.0971 88.6442 44.9745 88.2749 44.6447C87.8462 44.2641 87.8759 43.6171 87.9099 42.801C87.9269 42.4415 87.9438 42.0356 87.9269 41.6085C87.9184 41.4351 88.0033 41.2702 88.1433 41.1687C88.2834 41.0672 88.4659 41.0461 88.6272 41.1095C89.0304 41.266 89.3997 41.3801 89.7223 41.4774C90.4396 41.6973 91.0084 41.8749 91.3564 42.3231C91.7554 42.8306 91.5729 43.8454 91.471 44.1964C91.3946 44.4501 91.2588 44.8011 90.9235 44.9153C90.6136 45.021 90.1934 45.0971 89.7605 45.0971H89.7647ZM88.9625 42.3147C88.9583 42.5007 88.9498 42.6783 88.9413 42.8475C88.9243 43.2365 88.9031 43.7736 88.9753 43.8962C89.196 44.0907 89.9175 44.133 90.4608 43.985C90.5585 43.7313 90.6221 43.1139 90.5372 42.9405C90.3972 42.7629 89.9685 42.6318 89.4209 42.4627C89.2766 42.4162 89.1238 42.3696 88.9625 42.3189V42.3147Z" fill="currentColor"/>
<path d="M64.6311 75.4653C64.5165 75.4653 64.4019 75.4273 64.3086 75.3511C64.1855 75.2539 64.0709 75.1608 63.9647 75.0763C63.7483 74.8987 63.5573 74.7464 63.362 74.6027L63.2007 74.4843C63.0012 74.3363 62.8102 74.1925 62.632 74.1333C61.5539 73.7612 60.7219 73.0761 60.0556 72.4545C59.8476 72.26 59.6184 72.0866 59.3807 71.9005C59.2109 71.7694 59.0411 71.6384 58.8756 71.4988L58.6421 71.3043C58.3365 71.0548 58.0224 70.7968 57.7508 70.4839C57.2075 69.8539 56.5666 69.4352 55.7941 69.2026L55.7389 69.1857C55.637 69.1604 55.5012 69.1223 55.3654 69.0335C54.7457 68.6191 54.0326 68.4161 53.2771 68.2004C52.7635 68.0524 52.2372 67.9044 51.7278 67.6803C51.0784 67.397 50.4375 67.0798 49.8178 66.7754C49.0877 66.4159 48.3322 66.0438 47.5724 65.7267C47.3772 65.6463 47.2414 65.511 47.1437 65.4137C47.1183 65.3926 47.0971 65.3672 47.0758 65.3503C46.9655 65.2573 46.8976 65.1262 46.8891 64.9824C46.8891 64.9613 46.8848 64.9401 46.8806 64.919C46.8636 64.809 46.8297 64.5765 47.0079 64.3735C47.5385 63.773 47.8653 63.0457 48.2134 62.2761C48.5105 61.6164 48.8161 60.9356 49.266 60.3182C49.491 60.0095 49.5207 59.9714 49.1599 59.6374C48.5911 59.113 48.2601 58.4745 48.0818 57.5738C48.0308 57.32 47.878 57.0156 47.6488 56.7238C47.2371 56.191 46.8636 55.5905 46.9018 54.7997C46.923 54.4023 46.8297 54.1316 46.5792 53.8694C46.0487 53.3113 45.9553 52.6135 45.9341 52.0046C45.9213 51.6621 45.8874 51.2392 45.7346 50.977C45.3186 50.2751 45.1191 49.6069 45.1149 48.8754V48.8331C45.1149 48.6766 45.1149 48.4779 45.0682 48.3933C44.4739 47.2008 44.3678 45.9449 44.266 44.7355C44.232 44.3338 44.1981 43.9151 44.1429 43.5134C44.0835 43.0694 44.1641 42.5408 44.3678 42.0714C44.5037 41.75 44.5121 41.564 44.3975 41.3229C44.2575 41.0354 44.0919 40.6506 44.0835 40.2404C44.0495 39.0183 44.058 38.0288 44.1004 37.1323V37.0816C44.1217 36.7094 44.1429 36.2781 44.2872 35.8637C44.2235 35.6988 44.1896 35.4958 44.2532 35.3055C44.3509 35.0222 44.5673 34.8531 44.8008 34.6755C44.8857 34.6078 44.9875 34.5359 45.0894 34.4429C45.221 34.3287 45.3993 34.2864 45.569 34.3329C45.7388 34.3794 45.8704 34.5063 45.9213 34.6712C45.9638 34.8065 46.0147 34.9249 46.0571 35.0307C46.1802 35.3267 46.3033 35.6354 46.1463 35.9483C45.9638 36.3077 45.5139 36.4769 45.187 36.5192C45.1573 36.7094 45.1488 36.9124 45.1361 37.1281V37.1788C45.0894 38.0499 45.0852 39.0141 45.1191 40.2108C45.1234 40.4265 45.2422 40.6929 45.3313 40.8705C45.6539 41.5301 45.4969 42.0714 45.3229 42.4731C45.1955 42.7691 45.1361 43.1159 45.17 43.3781C45.2252 43.8009 45.2634 44.2323 45.2974 44.6467C45.395 45.8138 45.4884 46.9175 45.9935 47.9324C46.142 48.2284 46.142 48.5582 46.1463 48.8204V48.8627C46.1505 49.4082 46.3033 49.9114 46.6217 50.4527C46.8933 50.9136 46.9485 51.476 46.9655 51.9665C46.9867 52.5628 47.0928 52.9053 47.3305 53.159C47.7719 53.6199 47.9672 54.1739 47.9332 54.8463C47.912 55.2818 48.12 55.6455 48.468 56.0937C48.6972 56.3855 48.9901 56.8464 49.0962 57.3708C49.232 58.0558 49.4655 58.5083 49.8687 58.8847C50.586 59.5486 50.6582 60.1575 50.1064 60.9186C49.7202 61.4515 49.4443 62.0562 49.1556 62.6947C48.8373 63.4009 48.5062 64.1324 48.0011 64.7837C48.7736 65.1093 49.5334 65.4814 50.2719 65.8451C50.8832 66.1453 51.5156 66.4582 52.1438 66.7331C52.5852 66.9276 53.0564 67.0629 53.5572 67.2067C54.3552 67.435 55.1829 67.6676 55.9341 68.1708C55.9426 68.1708 55.9723 68.1793 56.002 68.1835L56.0869 68.2089C57.0504 68.5007 57.8484 69.0208 58.5275 69.8031C58.7398 70.0526 59.0072 70.2683 59.2915 70.5008L59.5377 70.7038C59.6905 70.8349 59.8518 70.9575 60.0089 71.0802C60.255 71.2705 60.514 71.4692 60.7517 71.6933C61.3713 72.2684 62.0717 72.8435 62.963 73.1522C63.2941 73.2664 63.57 73.4694 63.8119 73.6512L63.9605 73.7612C64.1388 73.888 64.3128 74.0276 64.5038 74.1798C64.5038 74.1756 64.508 74.1713 64.5123 74.1671C64.7203 73.8584 64.8985 73.5878 64.9792 73.3214C65.2508 72.4249 65.7559 71.7229 66.2483 71.0463L66.4181 70.8095C66.9359 70.0907 67.5132 69.7524 68.3578 69.6805C68.5191 69.6678 68.6804 69.6636 68.8417 69.6593C69.0242 69.6593 69.2025 69.6509 69.3638 69.6297C69.6948 69.5874 70.0259 69.5325 70.357 69.4775C70.6286 69.431 70.9003 69.3887 71.1719 69.3506C71.5285 69.2999 71.8808 69.2703 72.2288 69.2534C72.4792 69.2449 72.7297 69.2407 72.9843 69.2407C73.3833 69.2407 73.7611 69.2322 74.1388 69.2026C74.5506 69.1646 74.992 69.0842 75.5735 68.9362C77.0166 68.5641 78.4682 68.1666 79.7501 67.8156C79.8053 67.8029 79.8774 67.7607 79.9581 67.7141C80.0133 67.6845 80.0642 67.6549 80.1194 67.6296C80.6202 67.3843 81.1423 67.2067 81.6516 67.0376C82.4284 66.7754 83.1669 66.5301 83.7739 66.048C83.897 65.9508 84.0201 65.9296 84.0752 65.9212C84.9114 65.7097 85.6542 65.27 86.4394 64.8006C86.4479 64.7964 86.4564 64.7879 86.4649 64.7837C86.4522 64.7414 86.4394 64.6991 86.431 64.6568C86.414 64.5976 86.397 64.5299 86.3715 64.4496C86.3163 64.272 86.3588 64.0775 86.4861 63.9422C86.6135 63.8068 86.8087 63.7476 86.987 63.7942C87.0676 63.8153 87.144 63.828 87.2035 63.8407C87.3732 63.8703 87.5812 63.9083 87.7425 64.069C87.8911 63.9971 88.0439 63.9252 88.2009 63.8618C88.2306 63.8491 88.3028 63.7815 88.3495 63.7392C88.4259 63.6673 88.5023 63.5996 88.5872 63.5404C88.7187 63.4474 88.8588 63.3586 88.9946 63.2698C89.0668 63.2275 89.1347 63.181 89.2026 63.1345L89.6356 62.8512C89.712 62.8004 89.7926 62.7497 89.869 62.6989L89.7841 62.6143C89.9709 62.4283 90.2553 62.293 90.5439 62.2549C90.7519 62.1154 90.9641 61.9758 91.1721 61.8363L91.7493 62.6905C91.6347 62.7708 91.5159 62.8469 91.397 62.923C91.448 63.1049 91.4565 63.3163 91.3376 63.5024L90.9301 63.236C90.6882 63.3967 90.4463 63.5531 90.2043 63.7138L89.7714 63.9971C89.6992 64.0479 89.6228 64.0944 89.5464 64.1409C89.4233 64.217 89.3045 64.2931 89.1899 64.3777C89.1432 64.4115 89.1007 64.4538 89.0583 64.4919C88.9437 64.5976 88.7994 64.7329 88.5999 64.8175C88.0396 65.0501 87.5175 65.363 86.9658 65.6886C86.1551 66.1707 85.3146 66.6739 84.3299 66.9234C83.5999 67.4731 82.7764 67.748 81.9785 68.0144C81.4818 68.1793 81.015 68.3358 80.5778 68.5514C80.5353 68.5726 80.4971 68.5937 80.4547 68.6148C80.3316 68.6825 80.1915 68.7586 80.0175 68.8094C78.7314 69.1604 77.2755 69.5621 75.8239 69.9342C75.1872 70.0991 74.6949 70.1879 74.2237 70.2302C73.8078 70.2683 73.3918 70.2683 72.9886 70.2725C72.7466 70.2725 72.5047 70.2725 72.267 70.2852C71.9529 70.2979 71.6346 70.3275 71.312 70.3698C71.0488 70.4078 70.7814 70.4501 70.5183 70.4924C70.1745 70.5474 69.8349 70.6066 69.4911 70.6488C69.2746 70.6784 69.0624 70.6827 68.8587 70.6869C68.7186 70.6869 68.5785 70.6911 68.4385 70.7038C67.8994 70.7503 67.5853 70.9364 67.2458 71.41L67.0717 71.651C66.6091 72.2853 66.1761 72.8858 65.9554 73.6216C65.8323 74.036 65.5904 74.3955 65.3569 74.7422C65.2551 74.8902 65.1532 75.0467 65.0556 75.2116C64.9792 75.3385 64.8519 75.4273 64.7033 75.4569C64.6736 75.4611 64.6396 75.4653 64.6099 75.4653H64.6311ZM82.1737 63.718C82.1058 63.718 82.0421 63.7054 81.9785 63.68C81.8299 63.6208 81.7195 63.4981 81.6771 63.3459C81.6559 63.2783 81.6347 63.2106 81.6092 63.1514C81.5328 62.94 81.4054 62.589 81.6941 62.3268C81.8639 62.1746 82.0633 62.1111 82.2204 62.0646C82.2586 62.0519 82.2968 62.0393 82.335 62.0266C82.4708 61.9758 82.6236 61.9843 82.7552 62.0519C82.8868 62.1196 82.9802 62.238 83.0184 62.3775C83.0269 62.4071 83.0396 62.4325 83.0481 62.4621C83.1075 62.6186 83.1966 62.8554 83.099 63.1176C82.9971 63.384 82.7637 63.4897 82.5897 63.57C82.5387 63.5954 82.4836 63.6208 82.4241 63.6504C82.3435 63.6969 82.2586 63.718 82.1695 63.718H82.1737ZM85.6584 62.2211C85.6075 62.2211 85.5523 62.2126 85.4972 62.1999C85.234 62.1281 85.0642 61.9547 84.8987 61.7813C84.8435 61.7221 84.7798 61.6587 84.7077 61.591C84.5803 61.4768 84.5209 61.3119 84.5421 61.1428C84.5634 60.9736 84.6695 60.8298 84.818 60.7537C84.9029 60.7114 84.9836 60.6607 85.0515 60.6184C85.2764 60.4789 85.5608 60.3055 85.8792 60.4577C86.1296 60.5804 86.2739 60.7918 86.3885 60.9609C86.4182 61.0032 86.4479 61.0497 86.4776 61.0878C86.5668 61.1977 86.605 61.3415 86.5837 61.4768C86.5625 61.6164 86.4861 61.7432 86.3715 61.8236C86.3376 61.849 86.3036 61.8786 86.2697 61.9124C86.1253 62.0392 85.9216 62.2211 85.6542 62.2211H85.6584ZM88.8715 60.7199C88.8418 60.7199 88.8079 60.7199 88.7782 60.7157C88.4301 60.6692 88.2434 60.3985 88.0566 60.1406C87.9929 60.0475 87.9208 59.9461 87.8316 59.8403C87.7213 59.7092 87.6831 59.5316 87.734 59.3667C87.7849 59.2018 87.9123 59.0707 88.0778 59.0242C88.2052 58.9861 88.3155 58.9439 88.4131 58.9058C88.6805 58.8001 88.9352 58.7028 89.2281 58.7705C89.5974 58.8551 89.8096 59.261 89.8648 59.3836C89.9794 59.6374 89.9879 59.8573 89.886 60.0433C89.7289 60.3351 89.3087 60.7284 88.8673 60.7284L88.8715 60.7199ZM80.6245 60.3731C80.5693 60.3731 80.5141 60.3731 80.4632 60.3605C80.0939 60.3013 79.9623 59.9757 79.8477 59.6881C79.8095 59.5951 79.7671 59.4894 79.7119 59.3794C79.6397 59.2314 79.6397 59.058 79.7161 58.91C79.7925 58.7663 79.9368 58.6648 80.0981 58.6394C80.2085 58.6225 80.3061 58.6013 80.3995 58.5802C80.6627 58.5252 80.9343 58.4618 81.2144 58.576C81.5922 58.7282 81.7068 59.2229 81.7323 59.371C81.779 59.6416 81.7238 59.853 81.5625 60.001C81.3545 60.1913 80.9895 60.3689 80.6245 60.3689V60.3731ZM83.8588 58.965C83.7909 58.965 83.723 58.9523 83.655 58.9227C83.5277 58.8677 83.4258 58.7662 83.3749 58.6352C83.3537 58.5802 83.324 58.521 83.29 58.4618C83.1754 58.2377 83.0184 57.9332 83.116 57.6034C83.2094 57.2693 83.515 57.1171 83.7866 56.986C83.88 56.9395 83.9819 56.8887 84.088 56.8253C84.2238 56.7449 84.3851 56.728 84.5337 56.783C84.6822 56.838 84.7968 56.9521 84.8477 57.1002C84.8902 57.2186 84.9369 57.337 84.9836 57.4384C85.1236 57.7641 85.2807 58.1319 85.009 58.4364C84.7968 58.6732 84.5039 58.7705 84.2662 58.8508C84.1983 58.872 84.1262 58.8973 84.0625 58.9227C83.9988 58.9481 83.9309 58.9608 83.863 58.9608L83.8588 58.965ZM57.5258 51.8228H57.5173C57.3688 51.8228 57.2245 51.7551 57.1311 51.6409L56.609 51.0193C56.5199 50.9136 56.4774 50.7783 56.4902 50.6387C56.5029 50.4992 56.5708 50.3765 56.6812 50.2877L57.3942 49.7126C57.5004 49.6281 57.6404 49.5858 57.7762 49.6027C57.9121 49.6196 58.0394 49.6873 58.1243 49.793C58.1583 49.8353 58.2049 49.886 58.2516 49.9325C58.4596 50.1482 58.744 50.4442 58.5785 50.8206C58.4596 51.0912 58.2601 51.2942 58.0861 51.4718C58.0267 51.531 57.9672 51.5902 57.9121 51.6536C57.8144 51.7636 57.6744 51.827 57.5258 51.827V51.8228ZM48.1752 43.099C48.1115 43.099 48.0436 43.0905 47.9714 43.0778C47.6361 43.0017 47.5173 42.7099 47.4196 42.4731C47.3899 42.4013 47.356 42.3167 47.3135 42.2321C47.2371 42.0799 47.2371 41.898 47.322 41.75C47.4069 41.602 47.5555 41.5005 47.7252 41.4879C47.8271 41.4794 47.9162 41.4625 47.9969 41.4498C48.2303 41.4117 48.4765 41.3737 48.7269 41.4794C49.058 41.6147 49.1217 41.953 49.1641 42.1771C49.1726 42.2236 49.1811 42.2702 49.1938 42.3082C49.2363 42.4435 49.2193 42.5915 49.1472 42.7142C49.075 42.8368 48.9562 42.9256 48.8161 42.9594C48.7694 42.9721 48.7185 42.989 48.6675 43.0017C48.5275 43.0482 48.3577 43.099 48.1709 43.099H48.1752ZM52.564 42.5958C52.4961 42.5958 52.4282 42.5831 52.3603 42.5535C52.199 42.4858 52.0844 42.3421 52.0546 42.1687C52.0122 41.9276 51.957 41.712 51.9103 41.5259C51.7872 41.0438 51.6811 40.6252 51.9528 40.2954C52.3475 39.8218 53.1752 39.8175 53.5614 39.881C53.8161 39.9232 54.0199 40.1178 54.1769 40.4772C54.3085 40.769 54.4231 41.1792 54.2278 41.4836C54.0326 41.7881 53.7397 41.9615 53.3747 42.1856C53.2219 42.2786 53.0479 42.3801 52.8526 42.5112C52.7677 42.5704 52.6659 42.6 52.564 42.6V42.5958ZM52.8271 40.9212C52.8441 41.0185 52.8781 41.1496 52.9078 41.2595C53.0648 41.1665 53.1964 41.0819 53.2813 41.01C53.2686 40.9677 53.2516 40.9212 53.2304 40.8789C53.0733 40.8747 52.9248 40.8958 52.8271 40.9212ZM46.6938 39.7287C46.6217 39.7287 46.5453 39.7203 46.4689 39.6949C46.2354 39.6272 46.0784 39.475 45.9171 39.3185C45.8534 39.2593 45.7813 39.1875 45.6879 39.1113C45.5393 38.9845 45.4757 38.7857 45.5223 38.5954C45.569 38.4051 45.7218 38.2614 45.9128 38.2191C46.1293 38.1726 46.3033 38.1261 46.4349 38.088C46.7575 37.9992 47.0886 37.9104 47.3347 38.1937C47.5088 38.3925 47.5597 38.6293 47.5979 38.8196C47.6064 38.8661 47.6191 38.9126 47.6319 38.9591C47.6701 39.0944 47.6531 39.2382 47.5809 39.3608C47.5088 39.4835 47.3899 39.568 47.2541 39.6019C47.2159 39.6103 47.1777 39.623 47.1395 39.6357C47.0207 39.678 46.8679 39.7287 46.6981 39.7287H46.6938ZM50.047 38.3333C49.9197 38.3333 49.8008 38.3121 49.6947 38.2698C49.3891 38.143 49.2533 37.8596 49.1259 37.589C49.0792 37.4918 49.0326 37.386 48.9689 37.2761C48.8882 37.1365 48.8755 36.9674 48.9434 36.8152C49.0071 36.6672 49.1387 36.5572 49.2957 36.5192C49.423 36.4896 49.5334 36.4515 49.6353 36.4177C49.8984 36.3289 50.1743 36.2401 50.4672 36.3289C50.8068 36.4304 51.0657 36.6714 51.1718 36.9843C51.2737 37.293 51.2142 37.6313 51.0105 37.9062C50.8195 38.1641 50.412 38.329 50.0512 38.329L50.047 38.3333ZM50.1955 37.3226C50.1955 37.3184 50.2083 37.3184 50.2125 37.3184C50.2083 37.3184 50.1998 37.3184 50.1955 37.3184V37.3226ZM62.6107 38.181C62.407 38.181 62.2457 38.1261 62.1184 38.0203C61.4647 37.4579 61.0021 36.4557 61.0445 35.6861C61.0742 35.1491 61.6048 34.8827 62.3349 34.5105C62.6277 34.3625 62.9546 34.1976 63.2771 33.9989C63.4172 33.9143 63.5912 33.8974 63.7398 33.9608C63.8926 34.0242 64.0029 34.1511 64.0454 34.3118C64.1303 34.6416 64.2279 34.9419 64.3255 35.2336C64.5462 35.9018 64.7373 36.4769 64.5844 37.0435C64.4147 37.6694 63.3832 38.0161 63.1753 38.0795C62.9546 38.1472 62.7678 38.181 62.6065 38.181H62.6107ZM62.0759 35.8341C62.0929 36.2485 62.3518 36.8025 62.6914 37.145C62.9503 37.1027 63.4596 36.8744 63.604 36.7306C63.6507 36.46 63.5106 36.0371 63.3493 35.555C63.3111 35.4451 63.2729 35.3267 63.2347 35.204C63.0861 35.2844 62.9418 35.3563 62.806 35.4239C62.5471 35.555 62.2075 35.7284 62.0759 35.8299V35.8341ZM58.0521 28.6961C58.0521 28.6961 58.0224 28.6961 58.0097 28.6961C57.4367 28.6792 57.0419 28.1675 56.5411 27.5163C56.3204 27.233 56.0742 26.9074 55.7813 26.5902C55.6667 26.4633 55.62 26.2857 55.6625 26.1166C55.7049 25.9475 55.8323 25.8164 55.9936 25.7572C56.401 25.6176 56.7576 25.4696 57.0717 25.3385C57.7635 25.0467 58.3111 24.8184 58.8713 24.9368C59.5038 25.0721 60.0216 25.9686 60.1659 26.3027C60.272 26.5437 60.3909 26.9031 60.2084 27.2034C59.8348 27.8292 58.918 28.6961 58.0437 28.6961H58.0521ZM57.0335 26.4718C57.1523 26.6198 57.2584 26.7594 57.3603 26.8904C57.598 27.1991 57.9248 27.6262 58.0606 27.6685C58.3493 27.6854 58.935 27.2457 59.2576 26.7847C59.1684 26.5268 58.8204 26.0151 58.6379 25.9348C58.4257 25.8925 58.0012 26.0616 57.4749 26.2857C57.3348 26.3449 57.1863 26.4041 57.0292 26.4676L57.0335 26.4718ZM68.1711 24.2729C67.8994 24.2729 67.6235 24.2264 67.3519 24.1249C66.469 23.8077 65.8663 23.0254 65.8154 22.1332C65.7984 21.8118 65.8323 21.5369 65.93 21.2874C66.2525 20.4459 67.8357 19.7989 68.7101 19.9766C69.4232 20.1246 69.9835 20.5559 70.2466 21.1648C70.5225 21.8118 70.4419 22.5687 70.0217 23.2496C69.9453 23.3722 69.8561 23.4864 69.7543 23.5963C69.3383 24.0403 68.7695 24.2729 68.1711 24.2729ZM68.3621 20.9703C67.8442 20.9703 66.9868 21.4143 66.8935 21.6511C66.851 21.7611 66.834 21.8964 66.8468 22.0697C66.8807 22.6533 67.3094 23.0127 67.7042 23.1565C68.188 23.3341 68.6762 23.2326 68.9987 22.8859C69.0582 22.8267 69.1048 22.7633 69.143 22.7041C69.385 22.315 69.4402 21.9006 69.3001 21.5665C69.1728 21.2705 68.8884 21.0633 68.5021 20.983C68.4597 20.9745 68.413 20.9703 68.3621 20.9703Z" fill="currentColor"/>
</svg>
