<svg width="279" height="97" viewBox="0 0 279 97" fill="none" xmlns="http://www.w3.org/2000/svg">
<g clip-path="url(#clip0_675_6882)">
<path d="M40.0954 36.4698C41.8677 37.8829 44.6148 37.9391 46.7496 38.4249C49.2631 38.9989 51.8974 39.6814 54.4874 39.2558C55.3937 39.1073 56.1147 38.738 56.5739 38.1077C57.1821 37.4855 58.1166 36.0162 56.6343 35.3819C54.2215 34.5951 42.0973 34.1856 39.5758 33.5634C35.4229 32.881 31.6205 30.7373 27.6368 30.0267C27.5724 30.0508 27.5039 30.0749 27.4395 30.099C27.9389 30.8697 39.5355 36.0242 40.0954 36.4698Z" stroke="currentColor" stroke-miterlimit="10"/>
<path d="M46.133 41.0663C43.3094 41.3112 40.6389 40.3478 38.3631 41.4437C37.8837 41.813 37.6501 42.4152 37.3762 43.1578C37.3158 43.5031 37.2836 43.8242 37.2272 44.1333C37.1708 44.4425 37.0862 44.7395 37.0781 44.9523C37.4406 44.86 37.9522 44.7596 38.4638 44.7034C39.9984 44.5388 41.5371 44.8038 43.104 44.9202C45.4765 45.1008 47.861 45.0406 50.2295 44.8961C53.9151 44.6673 57.5765 43.6235 58.0357 39.296C56.1063 40.143 54.1407 40.6127 52.1549 40.8536C50.1691 41.0985 48.1591 41.1185 46.133 41.0663Z" stroke="currentColor" stroke-miterlimit="10"/>
<path d="M77.0685 37.6059C75.1069 36.4698 72.38 36.8191 70.1968 36.6545C67.6269 36.4578 64.9161 36.1728 62.4188 36.9757C61.5447 37.2567 60.8881 37.7263 60.5256 38.4208C60.0181 39.1274 59.3092 40.7171 60.868 41.1266C63.3734 41.5481 75.4251 40.1591 78.0071 40.404C82.2163 40.4642 86.2926 42.0258 90.3407 42.1382C90.4012 42.1061 90.4656 42.0699 90.526 42.0378C89.9138 41.3514 77.6808 37.9632 77.0645 37.6059H77.0685Z" stroke="currentColor" stroke-miterlimit="10"/>
<path d="M70.4102 33.9488C73.1654 33.2904 75.9527 33.8484 78.0392 32.4273C78.4581 31.9898 78.5991 31.3595 78.7602 30.5887C78.7683 30.2395 78.7522 29.9183 78.7602 29.6052C78.7723 29.2921 78.8086 28.987 78.7844 28.7742C78.438 28.9187 77.9506 29.0954 77.4511 29.2238C75.9567 29.6132 74.3939 29.5811 72.831 29.6935C70.4585 29.8661 68.1102 30.2756 65.7861 30.7694C62.173 31.5401 58.7089 33.1138 58.9023 37.4614C60.6867 36.3374 62.5556 35.5867 64.485 35.0528C66.4145 34.5188 68.4003 34.2017 70.4062 33.9528L70.4102 33.9488Z" stroke="currentColor" stroke-miterlimit="10"/>
<path d="M85.5505 28.722C86.5616 30.7493 89.0267 31.9536 90.7547 33.2904C92.7888 34.8641 94.8914 36.5943 97.421 37.2968C98.3072 37.5417 99.1168 37.5096 99.7975 37.1322C100.611 36.8231 102.081 35.8837 101.006 34.6874C99.153 32.9572 88.3298 27.4936 86.3078 25.8718C82.8317 23.5073 80.29 19.9666 76.979 17.6463C76.9105 17.6382 76.838 17.6342 76.7695 17.6262C76.8984 18.5335 85.2323 28.0837 85.5505 28.722Z" stroke="currentColor" stroke-miterlimit="10"/>
<path d="M89.079 35.4301C86.4165 34.4666 84.4025 32.4715 81.8729 32.5076C81.2808 32.6401 80.8136 33.0897 80.2537 33.6437C80.0563 33.9327 79.8872 34.2097 79.7059 34.4626C79.5246 34.7196 79.3232 34.9524 79.2266 35.1451C79.5931 35.2133 80.1006 35.3378 80.588 35.5024C82.0502 36.0002 83.3351 36.8833 84.7046 37.6501C86.779 38.8102 88.9662 39.7576 91.1776 40.6207C94.6175 41.9656 98.3796 42.5517 100.623 38.8223C98.5125 38.7781 96.5348 38.3767 94.6336 37.7665C92.7284 37.1523 90.8997 36.3253 89.083 35.4301H89.079Z" stroke="currentColor" stroke-miterlimit="10"/>
<path d="M118.592 45.2895C117.291 43.4348 114.673 42.6079 112.763 41.54C110.516 40.2835 108.179 38.8825 105.573 38.5613C104.659 38.4489 103.865 38.5975 103.245 39.0752C102.484 39.5007 101.171 40.6488 102.411 41.6725C104.502 43.1097 116.018 46.9113 118.261 48.22C122.052 50.0466 125.089 53.1738 128.71 54.9763C128.779 54.9723 128.851 54.9682 128.92 54.9642C128.658 54.0851 118.995 45.8716 118.588 45.2895H118.592Z" stroke="currentColor" stroke-miterlimit="10"/>
<path d="M114.104 39.1755C116.884 39.7376 119.172 41.4116 121.665 41.0021C122.229 40.7813 122.624 40.2715 123.099 39.6372C123.252 39.3241 123.377 39.023 123.518 38.746C123.663 38.465 123.824 38.2041 123.892 38.0033C123.518 37.9873 122.998 37.9431 122.495 37.8508C120.976 37.5778 119.574 36.8913 118.104 36.3374C115.881 35.4983 113.577 34.8801 111.261 34.3542C107.66 33.5353 103.853 33.5072 102.186 37.5296C104.276 37.2607 106.294 37.3651 108.268 37.6902C110.242 38.0154 112.175 38.5613 114.104 39.1796V39.1755Z" stroke="currentColor" stroke-miterlimit="10"/>
<path d="M127.79 39.3482C128.398 41.532 130.605 43.198 132.051 44.8439C133.759 46.7869 135.503 48.8904 137.868 50.0707C138.698 50.4841 139.499 50.6126 140.248 50.3717C141.114 50.2272 142.746 49.5889 141.912 48.208C140.413 46.1486 130.77 38.6818 129.087 36.6946C126.106 33.6959 124.277 29.7256 121.454 26.8072C121.385 26.7871 121.317 26.767 121.248 26.7469C121.2 27.6622 127.596 38.6577 127.79 39.3442V39.3482Z" stroke="currentColor" stroke-miterlimit="10"/>
<path d="M129.984 46.6183C127.539 45.153 125.932 42.8046 123.427 42.3469C122.818 42.363 122.27 42.7122 121.606 43.1498C121.352 43.3947 121.139 43.6315 120.905 43.8483C120.675 44.0651 120.434 44.2538 120.301 44.4224C120.651 44.5629 121.127 44.7797 121.578 45.0366C122.927 45.8074 124.023 46.9274 125.231 47.943C127.056 49.4846 129.033 50.8414 131.056 52.118C134.193 54.1051 137.798 55.4138 140.731 52.1903C138.656 51.7366 136.779 50.9619 135.015 49.9864C133.251 49.0149 131.603 47.8467 129.98 46.6143L129.984 46.6183Z" stroke="currentColor" stroke-miterlimit="10"/>
<path d="M157.246 62.0336C156.32 59.9622 153.891 58.6374 152.211 57.2203C150.233 55.5503 148.195 53.7238 145.682 52.9008C144.799 52.6118 143.986 52.6078 143.285 52.953C142.451 53.222 140.933 54.0931 141.964 55.3416C143.752 57.1561 154.398 63.1295 156.36 64.8477C159.755 67.3768 162.152 71.0379 165.382 73.5108C165.451 73.5188 165.523 73.5309 165.592 73.5389C165.499 72.6236 157.536 62.6839 157.242 62.0336H157.246Z" stroke="currentColor" stroke-miterlimit="10"/>
<path d="M153.987 55.1609C156.625 56.2529 158.563 58.3404 161.104 58.4247C161.704 58.3203 162.192 57.8948 162.784 57.3649C162.997 57.0879 163.175 56.8189 163.372 56.57C163.565 56.3211 163.779 56.1003 163.884 55.9116C163.517 55.8233 163.014 55.6788 162.53 55.4901C161.08 54.9241 159.827 53.9807 158.486 53.1497C156.452 51.8932 154.293 50.8414 152.106 49.874C148.706 48.3686 144.952 47.6018 142.531 51.2268C144.65 51.3713 146.62 51.8651 148.509 52.5676C150.398 53.2702 152.202 54.1854 153.987 55.165V55.1609Z" stroke="currentColor" stroke-miterlimit="10"/>
<path d="M165.475 55.2613C166.804 57.0959 169.434 57.8867 171.356 58.9224C173.619 60.1468 175.976 61.5117 178.59 61.7927C179.504 61.8931 180.298 61.7285 180.91 61.2428C181.663 60.8052 182.96 59.641 181.703 58.6334C179.593 57.2284 168.02 53.5953 165.761 52.3227C161.942 50.5524 158.857 47.4733 155.211 45.7231C155.143 45.7271 155.07 45.7351 155.002 45.7391C155.28 46.6143 165.06 54.6832 165.479 55.2613H165.475Z" stroke="currentColor" stroke-miterlimit="10"/>
<path d="M170.051 61.307C167.264 60.7891 164.952 59.1472 162.462 59.5928C161.903 59.8217 161.512 60.3395 161.049 60.9778C160.9 61.295 160.779 61.596 160.642 61.877C160.505 62.158 160.344 62.423 160.279 62.6277C160.654 62.6358 161.174 62.6759 161.681 62.7602C163.204 63.0131 164.617 63.6795 166.092 64.2094C168.327 65.0163 170.639 65.5984 172.963 66.0922C176.577 66.8589 180.383 66.8308 181.99 62.7843C179.904 63.0854 177.886 63.0091 175.908 62.7161C173.93 62.419 171.989 61.9011 170.051 61.311V61.307Z" stroke="currentColor" stroke-miterlimit="10"/>
<path d="M200.785 66.2367C199.198 64.6189 196.479 64.2255 194.425 63.4828C192.004 62.6077 189.47 61.6081 186.844 61.7125C185.926 61.7486 185.164 62.0256 184.633 62.5996C183.952 63.1456 182.844 64.4864 184.238 65.2973C186.538 66.3732 198.521 68.2559 200.946 69.1833C204.986 70.3675 208.495 72.9608 212.361 74.1491C212.43 74.133 212.498 74.117 212.567 74.1009C212.164 73.278 201.288 66.7425 200.789 66.2327L200.785 66.2367Z" stroke="currentColor" stroke-miterlimit="10"/>
<path d="M195.358 60.9377C198.189 61.038 200.723 62.3226 203.116 61.5117C203.635 61.2026 203.945 60.6326 204.308 59.9341C204.409 59.6009 204.481 59.2837 204.578 58.9867C204.674 58.6856 204.791 58.4046 204.824 58.1918C204.453 58.236 203.933 58.2761 203.418 58.2681C201.875 58.244 200.377 57.7944 198.838 57.4853C196.506 57.0196 194.133 56.7828 191.761 56.6422C188.075 56.4174 184.313 57.0116 183.326 61.2468C185.348 60.6406 187.35 60.4158 189.352 60.4158C191.354 60.4158 193.352 60.6406 195.354 60.9377H195.358Z" stroke="currentColor" stroke-miterlimit="10"/>
<path d="M205.162 57.2043C206.978 58.5611 209.725 58.5371 211.872 58.9586C214.402 59.4564 217.056 60.0585 219.634 59.5527C220.536 59.3761 221.245 58.9867 221.684 58.3403C222.272 57.698 223.163 56.2047 221.664 55.6146C219.227 54.9 207.095 54.8639 204.557 54.3179C200.384 53.7599 196.522 51.7326 192.518 51.1465C192.453 51.1706 192.385 51.1987 192.32 51.2228C192.844 51.9775 204.594 56.7787 205.166 57.2043H205.162Z" stroke="currentColor" stroke-miterlimit="10"/>
<path d="M211.336 61.6201C208.521 61.9493 205.822 61.0701 203.579 62.2343C203.111 62.6197 202.894 63.2259 202.644 63.9766C202.596 64.3218 202.572 64.643 202.523 64.9561C202.475 65.2652 202.402 65.5663 202.402 65.779C202.761 65.6787 203.268 65.5583 203.78 65.49C205.311 65.2772 206.857 65.494 208.424 65.5663C210.801 65.6747 213.181 65.5422 215.546 65.3254C219.223 64.9842 222.848 63.828 223.175 59.4925C221.269 60.3957 219.324 60.9256 217.346 61.2307C215.368 61.5358 213.358 61.6161 211.336 61.6281V61.6201Z" stroke="currentColor" stroke-miterlimit="10"/>
<path d="M242.15 57.2163C240.152 56.1404 237.437 56.574 235.254 56.4736C232.68 56.3572 229.961 56.1525 227.488 57.0316C226.622 57.3408 225.981 57.8305 225.639 58.533C225.151 59.2556 224.495 60.8654 226.066 61.2267C228.583 61.5719 240.587 59.8177 243.177 59.9822C247.386 59.918 251.511 61.3512 255.559 61.3391C255.619 61.303 255.68 61.2709 255.74 61.2347C255.108 60.5683 242.778 57.5535 242.15 57.2163Z" stroke="currentColor" stroke-miterlimit="10"/>
<path d="M235.383 53.7639C238.118 53.0213 240.918 53.495 242.964 52.0096C243.371 51.56 243.491 50.9257 243.628 50.1469C243.628 49.7977 243.6 49.4765 243.6 49.1634C243.6 48.8503 243.628 48.5412 243.6 48.3324C243.262 48.485 242.774 48.6777 242.279 48.8222C240.797 49.2557 239.234 49.2718 237.675 49.4324C235.311 49.6772 232.974 50.159 230.666 50.725C227.081 51.6042 223.666 53.2822 223.988 57.6218C225.736 56.4455 227.585 55.6346 229.494 55.0445C231.403 54.4504 233.381 54.073 235.379 53.7639H235.383Z" stroke="currentColor" stroke-miterlimit="10"/>
<path d="M83.9516 36.5386L61.3828 38.4053" stroke="currentColor" stroke-miterlimit="10"/>
<path d="M55.6508 38.879L33.082 40.7457" stroke="currentColor" stroke-miterlimit="10"/>
<path d="M60.6379 65.4906C61.7658 65.4906 62.6801 64.5793 62.6801 63.4553C62.6801 62.3312 61.7658 61.42 60.6379 61.42C59.51 61.42 58.5957 62.3312 58.5957 63.4553C58.5957 64.5793 59.51 65.4906 60.6379 65.4906Z" stroke="currentColor" stroke-miterlimit="10"/>
<path d="M60.6906 66.3175C61.8185 66.3175 62.7328 65.4063 62.7328 64.2822C62.7328 63.1582 61.8185 62.2469 60.6906 62.2469C59.5628 62.2469 58.6484 63.1582 58.6484 64.2822C58.6484 65.4063 59.5628 66.3175 60.6906 66.3175Z" stroke="currentColor" stroke-miterlimit="10"/>
<path d="M56.4445 14.4473C57.5724 14.4473 58.4867 13.5361 58.4867 12.412C58.4867 11.288 57.5724 10.3767 56.4445 10.3767C55.3167 10.3767 54.4023 11.288 54.4023 12.412C54.4023 13.5361 55.3167 14.4473 56.4445 14.4473Z" stroke="currentColor" stroke-miterlimit="10"/>
<path d="M56.4973 15.2783C57.6251 15.2783 58.5395 14.3671 58.5395 13.243C58.5395 12.119 57.6251 11.2077 56.4973 11.2077C55.3694 11.2077 54.4551 12.119 54.4551 13.243C54.4551 14.3671 55.3694 15.2783 56.4973 15.2783Z" stroke="currentColor" stroke-miterlimit="10"/>
<path d="M60.7168 63.8567L58.8438 41.368" stroke="currentColor" stroke-miterlimit="10"/>
<path d="M58.3691 35.6555L56.4961 13.1627" stroke="currentColor" stroke-miterlimit="10"/>
<path d="M130.057 43.6965L104.451 38.6464" stroke="currentColor" stroke-miterlimit="10"/>
<path d="M97.9457 37.3658L72.3398 32.3117" stroke="currentColor" stroke-miterlimit="10"/>
<path d="M97.9354 66.8171C98.2922 65.5721 97.5688 64.2746 96.3196 63.919C95.0704 63.5634 93.7684 64.2844 93.4116 65.5294C93.0549 66.7744 93.7783 68.0719 95.0275 68.4275C96.2767 68.7831 97.5787 68.0621 97.9354 66.8171Z" stroke="currentColor" stroke-miterlimit="10"/>
<path d="M97.7245 67.7553C98.0813 66.5103 97.3578 65.2128 96.1086 64.8572C94.8594 64.5016 93.5575 65.2226 93.2007 66.4676C92.8439 67.7126 93.5674 69.0102 94.8166 69.3658C96.0658 69.7213 97.3677 69.0003 97.7245 67.7553Z" stroke="currentColor" stroke-miterlimit="10"/>
<path d="M109.494 8.92892C109.851 7.68392 109.127 6.38638 107.878 6.0308C106.629 5.67521 105.327 6.39622 104.97 7.64122C104.613 8.88622 105.337 10.1838 106.586 10.5393C107.835 10.8949 109.137 10.1739 109.494 8.92892Z" stroke="currentColor" stroke-miterlimit="10"/>
<path d="M109.289 9.86038C109.646 8.61538 108.922 7.31784 107.673 6.96225C106.424 6.60666 105.122 7.32768 104.765 8.57268C104.408 9.81768 105.132 11.1152 106.381 11.4708C107.63 11.8264 108.932 11.1054 109.289 9.86038Z" stroke="currentColor" stroke-miterlimit="10"/>
<path d="M95.6289 66.6429L100.696 41.1273" stroke="currentColor" stroke-miterlimit="10"/>
<path d="M101.984 34.6481L107.052 9.12846" stroke="currentColor" stroke-miterlimit="10"/>
<path d="M166.033 55.9965L144.516 51.7492" stroke="currentColor" stroke-miterlimit="10"/>
<path d="M139.055 50.6734L117.537 46.4261" stroke="currentColor" stroke-miterlimit="10"/>
<path d="M139.042 75.4277C139.342 74.381 138.734 73.29 137.683 72.9911C136.633 72.6921 135.538 73.2983 135.238 74.3451C134.938 75.3918 135.547 76.4827 136.597 76.7817C137.647 77.0806 138.742 76.4744 139.042 75.4277Z" stroke="currentColor" stroke-miterlimit="10"/>
<path d="M138.872 76.2112C139.172 75.1645 138.564 74.0736 137.513 73.7746C136.463 73.4756 135.369 74.0818 135.069 75.1286C134.769 76.1753 135.377 77.2662 136.427 77.5652C137.477 77.8641 138.572 77.2579 138.872 76.2112Z" stroke="currentColor" stroke-miterlimit="10"/>
<path d="M148.761 26.7763C149.061 25.7295 148.452 24.6386 147.402 24.3397C146.352 24.0407 145.257 24.6469 144.957 25.6936C144.657 26.7404 145.265 27.8313 146.316 28.1302C147.366 28.4292 148.461 27.823 148.761 26.7763Z" stroke="currentColor" stroke-miterlimit="10"/>
<path d="M148.591 27.5598C148.891 26.513 148.282 25.4221 147.232 25.1232C146.182 24.8242 145.087 25.4304 144.787 26.4771C144.487 27.5239 145.096 28.6148 146.146 28.9138C147.196 29.2127 148.291 28.6065 148.591 27.5598Z" stroke="currentColor" stroke-miterlimit="10"/>
<path d="M137.105 75.2777L141.367 53.8367" stroke="currentColor" stroke-miterlimit="10"/>
<path d="M142.447 48.3892L146.705 26.9442" stroke="currentColor" stroke-miterlimit="10"/>
<path d="M208.46 62.6567L185.355 61.7254" stroke="currentColor" stroke-miterlimit="10"/>
<path d="M179.487 61.4885L156.383 60.5531" stroke="currentColor" stroke-miterlimit="10"/>
<path d="M183.501 87.2606C183.642 86.1231 182.831 85.0867 181.69 84.9458C180.549 84.8049 179.509 85.6129 179.367 86.7505C179.226 87.888 180.037 88.9244 181.178 89.0653C182.319 89.2061 183.359 88.3982 183.501 87.2606Z" stroke="currentColor" stroke-miterlimit="10"/>
<path d="M183.448 88.1025C183.589 86.965 182.779 85.9286 181.637 85.7877C180.496 85.6468 179.456 86.4548 179.315 87.5923C179.173 88.7299 179.984 89.7663 181.125 89.9071C182.267 90.048 183.307 89.2401 183.448 88.1025Z" stroke="currentColor" stroke-miterlimit="10"/>
<path d="M185.68 35.0149C185.822 33.8774 185.011 32.841 183.87 32.7001C182.728 32.5592 181.688 33.3672 181.547 34.5047C181.406 35.6423 182.216 36.6787 183.358 36.8195C184.499 36.9604 185.539 36.1525 185.68 35.0149Z" stroke="currentColor" stroke-miterlimit="10"/>
<path d="M185.631 35.8613C185.773 34.7237 184.962 33.6874 183.821 33.5465C182.679 33.4056 181.64 34.2136 181.498 35.3511C181.357 36.4887 182.167 37.525 183.309 37.6659C184.45 37.8068 185.49 36.9988 185.631 35.8613Z" stroke="currentColor" stroke-miterlimit="10"/>
<path d="M181.479 87.4336L182.413 64.407" stroke="currentColor" stroke-miterlimit="10"/>
<path d="M182.65 58.558L183.589 35.5353" stroke="currentColor" stroke-miterlimit="10"/>
<path d="M253.609 51.6613L228.031 56.8399" stroke="currentColor" stroke-miterlimit="10"/>
<path d="M221.535 58.1526L195.953 63.3312" stroke="currentColor" stroke-miterlimit="10"/>
<path d="M230.855 87.9332C232.145 87.7812 233.068 86.6157 232.915 85.3298C232.763 84.044 231.593 83.1248 230.303 83.2768C229.013 83.4287 228.09 84.5943 228.243 85.8801C228.395 87.166 229.565 88.0852 230.855 87.9332Z" stroke="currentColor" stroke-miterlimit="10"/>
<path d="M231.025 88.8704C232.315 88.7184 233.237 87.5529 233.085 86.267C232.932 84.9812 231.763 84.062 230.473 84.214C229.183 84.3659 228.26 85.5315 228.413 86.8173C228.565 88.1032 229.735 89.0223 231.025 88.8704Z" stroke="currentColor" stroke-miterlimit="10"/>
<path d="M219.128 30.0785C220.419 29.9266 221.341 28.761 221.188 27.4752C221.036 26.1893 219.867 25.2701 218.576 25.4221C217.286 25.5741 216.364 26.7396 216.516 28.0255C216.669 29.3113 217.838 30.2305 219.128 30.0785Z" stroke="currentColor" stroke-miterlimit="10"/>
<path d="M219.298 31.0157C220.589 30.8637 221.511 29.6982 221.358 28.4123C221.206 27.1265 220.036 26.2073 218.746 26.3593C217.456 26.5112 216.534 27.6768 216.686 28.9626C216.839 30.2485 218.008 31.1677 219.298 31.0157Z" stroke="currentColor" stroke-miterlimit="10"/>
<path d="M230.723 86.0608L225.527 60.5693" stroke="currentColor" stroke-miterlimit="10"/>
<path d="M224.21 54.0981L219.014 28.6025" stroke="currentColor" stroke-miterlimit="10"/>
</g>
<defs>
<clipPath id="clip0_675_6882">
<rect width="278.1" height="96.1" fill="white"/>
</clipPath>
</defs>
</svg>
