<svg width="143" height="143" viewBox="0 0 143 143" fill="none" xmlns="http://www.w3.org/2000/svg">
<g clip-path="url(#clip0_675_692)">
<path d="M43.4191 55.7215C45.3049 54.3579 47.3341 53.6797 49.5211 53.6797C51.4929 53.6797 53.2425 54.0765 54.7555 54.8557C56.2756 55.6421 57.4515 56.7532 58.2905 58.189C59.1294 59.6247 59.5525 61.2769 59.5525 63.1456C59.5525 64.8338 59.0936 66.4788 58.1829 68.0805C57.2723 69.6822 55.7665 71.2839 53.6727 72.8856C52.5255 73.7153 51.7654 74.5234 51.3997 75.3098C51.034 76.0962 50.862 77.3155 50.8906 78.9749L46.6458 79.0182C46.6171 76.7672 46.9469 74.9058 47.6424 73.4339C48.3308 71.9693 49.4924 70.6274 51.1129 69.408C52.7621 68.1959 53.8735 67.1282 54.4472 66.2047C55.0208 65.2884 55.3076 64.2639 55.3076 63.1383C55.3076 61.5944 54.7698 60.3462 53.6943 59.3794C52.6187 58.4126 51.2276 57.9364 49.5139 57.9364C48.2161 57.9364 47.0043 58.3621 45.8714 59.2063C44.7384 60.0504 43.9067 61.1398 43.3761 62.4746L39.3965 61.01C40.1924 58.8455 41.5333 57.0851 43.4191 55.7143V55.7215ZM46.9326 87.4957C46.445 87.005 46.2012 86.3774 46.2012 85.6054C46.2012 84.8334 46.445 84.2562 46.9326 83.78C47.4202 83.3038 48.044 83.0657 48.8112 83.0657C49.5785 83.0657 50.1879 83.2966 50.6468 83.7584C51.1057 84.2201 51.328 84.8334 51.328 85.6054C51.328 86.3774 51.0914 87.005 50.6182 87.4957C50.1449 87.9863 49.5426 88.2316 48.804 88.2316C48.0655 88.2316 47.413 87.9863 46.9254 87.4957H46.9326Z" stroke="currentColor" stroke-width="2"/>
<path d="M67.9425 55.7215C69.8283 54.3579 71.8576 53.6797 74.0445 53.6797C76.0164 53.6797 77.766 54.0765 79.2789 54.8557C80.799 55.6421 81.975 56.7532 82.8139 58.189C83.6529 59.6247 84.0759 61.2769 84.0759 63.1456C84.0759 64.8338 83.617 66.4788 82.7064 68.0805C81.7957 69.6822 80.2899 71.2839 78.1962 72.8856C77.0489 73.7153 76.2889 74.5234 75.9232 75.3098C75.5575 76.0962 75.3854 77.3155 75.4141 78.9749L71.1692 79.0182C71.1405 76.7672 71.4704 74.9058 72.1659 73.4339C72.8542 71.9693 74.0158 70.6274 75.6363 69.408C77.2855 68.1959 78.397 67.1282 78.9706 66.2047C79.5442 65.2884 79.831 64.2639 79.831 63.1383C79.831 61.5944 79.2933 60.3462 78.2177 59.3794C77.1421 58.4126 75.7511 57.9364 74.0374 57.9364C72.7395 57.9364 71.5277 58.3621 70.3948 59.2063C69.2619 60.0504 68.4301 61.1398 67.8995 62.4746L63.9199 61.01C64.7158 58.8455 66.0567 57.0851 67.9425 55.7143V55.7215ZM71.456 87.4957C70.9684 87.005 70.7246 86.3774 70.7246 85.6054C70.7246 84.8334 70.9684 84.2562 71.456 83.78C71.9436 83.3038 72.5674 83.0657 73.3347 83.0657C74.1019 83.0657 74.7114 83.2966 75.1703 83.7584C75.6292 84.2201 75.8515 84.8334 75.8515 85.6054C75.8515 86.3774 75.6148 87.005 75.1416 87.4957C74.6683 87.9863 74.066 88.2316 73.3275 88.2316C72.5889 88.2316 71.9364 87.9863 71.4488 87.4957H71.456Z" stroke="currentColor" stroke-width="2"/>
<path d="M95.877 78.9753H91.8974L91.1445 54.25H96.5367L95.877 78.9753ZM92.0552 83.7803C92.5428 83.3042 93.1666 83.0661 93.9338 83.0661C94.701 83.0661 95.3105 83.297 95.7694 83.7587C96.2283 84.2205 96.4578 84.8337 96.4578 85.6057C96.4578 86.3777 96.2212 87.0054 95.7479 87.496C95.2747 87.9866 94.6724 88.2319 93.9338 88.2319C93.1953 88.2319 92.5428 87.9866 92.0552 87.496C91.5676 87.0054 91.3238 86.3777 91.3238 85.6057C91.3238 84.8337 91.5676 84.2565 92.0552 83.7803Z" stroke="currentColor" stroke-width="2"/>
</g>
<defs>
<clipPath id="clip0_675_692">
<rect width="142.1" height="142.1" fill="white"/>
</clipPath>
</defs>
</svg>
