<svg width="279" height="97" viewBox="0 0 279 97" fill="none" xmlns="http://www.w3.org/2000/svg">
<path d="M203.45 56.692H113.846V58.2045H203.45V56.692Z" fill="currentColor"/>
<path d="M202.682 60.0886L207.253 57.4526L202.682 54.8078V60.0886Z" fill="currentColor"/>
<path d="M223.351 52.9243H76.0469V54.4369H223.351V52.9243Z" fill="currentColor"/>
<path d="M222.055 58.1274L229.754 53.6849L222.055 49.2338V58.1274Z" fill="currentColor"/>
<path d="M170.361 44.1193H80.7559V45.6318H170.361V44.1193Z" fill="currentColor"/>
<path d="M169.582 47.5159L174.153 44.8712L169.582 42.2351V47.5159Z" fill="currentColor"/>
<path d="M235.856 46.9687H33.6855V48.4812H235.856V46.9687Z" fill="currentColor"/>
<path d="M234.137 53.6065L244.317 47.7207L234.137 41.8435V53.6065Z" fill="currentColor"/>
<path d="M215.408 40.6015H69.4258V42.114H215.408V40.6015Z" fill="currentColor"/>
<path d="M214.111 45.8132L221.811 41.3621L214.111 36.911V45.8132Z" fill="currentColor"/>
</svg>
