<svg width="279" height="97" viewBox="0 0 279 97" fill="none" xmlns="http://www.w3.org/2000/svg">
<path d="M136.961 51.0669C135.258 50.0643 134.515 50.0643 134.964 51.4558C131.819 50.0557 129.866 50.0557 127.801 52.2682C125.018 50.0557 122.123 50.0557 117.111 51.2311C115.659 50.0557 112.09 50.0557 108.322 50.0557C105.021 50.0557 101.573 50.0557 99.5598 51.2484C94.5304 50.0557 90.9528 50.0557 88.3603 56.7366C86.8567 54.5068 85.4567 53.0202 84.0395 52.13C82.6223 51.2397 81.1964 50.9372 79.7706 50.9891C78.0423 51.2311 76.3226 51.8275 75.5276 51.6978C73.9116 51.378 72.8659 50.7125 72.382 49.0444C70.2303 50.0557 68.6316 50.0557 68.2168 48.6555C65.3564 50.3236 63.2219 50.1853 60.5949 48.7938C59.3937 50.7903 57.7086 51.525 55.0038 52.0349C55.3754 52.2596 54.5803 51.7065 53.2582 50.8854C53.0594 50.9372 52.3249 50.7125 51.4434 50.531C50.1472 50.4878 48.73 50.92 47.4078 51.6632C46.656 50.0557 45.6536 50.0557 45.5153 50.4273C45.6536 50.0557 45.6536 48.5432 44.8672 49.1741C45.6536 48.5345 46.3968 48.5345 46.3276 50.0902C47.5806 49.3988 48.825 48.9667 49.888 49.1482C50.9509 49.3297 51.8496 50.1248 52.2385 51.4299C54.2779 50.1248 55.8074 49.3297 56.9568 48.3617C59.29 49.0444 61.243 49.563 63.3516 48.6037C63.6626 49.563 64.0688 49.0444 64.7169 47.2554C65.5465 48.7419 66.6181 48.9407 68.2945 47.7048C68.4933 48.7506 69.971 48.9667 71.829 48.1802C72.0277 49.2605 72.8487 49.1395 74.1968 48.3184C74.4387 49.0012 75.1992 49.0012 76.288 48.6901C77.3769 49.2432 78.6731 49.7532 79.9261 50.8076C80.9545 52.009 81.931 53.7375 82.7865 56.3304C84.6185 53.7462 86.3382 52.009 88.0406 50.9372C91.454 48.7852 94.8242 49.2778 99.4561 50.7557C98.5574 48.5432 100.562 48.5432 102.584 48.5691C104.503 48.5432 106.439 48.5432 108.322 48.5432C112.09 48.5432 115.659 48.5432 116.852 49.4852C122.123 48.5432 125.018 48.5432 127.861 50.3582C129.866 48.5432 131.819 48.5432 135.232 49.6667C134.515 48.5432 135.25 48.5432 137.211 49.3469C135.258 48.5432 135.258 50.0557 136.961 51.0582V51.0669Z" fill="currentColor"/>
<path d="M135.88 53.1844C134.48 51.9485 135.621 51.283 138.153 51.3953C137.911 49.9692 139.052 49.3037 140.132 49.684C139.052 49.3124 137.911 48.6469 138.542 48.5172C135.63 47.3332 134.48 46.6763 136.736 47.1517C134.48 46.6677 134.48 47.99 136.39 50.3582C134.48 50.6261 134.48 51.9485 135.88 53.1844Z" fill="currentColor"/>
<path d="M202.05 51.0669C200.348 50.0643 199.605 50.0643 200.054 51.4558C196.909 50.0557 194.956 50.0557 192.89 52.2682C190.108 50.0557 187.213 50.0557 182.201 51.2311C180.749 50.0557 177.18 50.0557 173.412 50.0557C170.111 50.0557 166.663 50.0557 164.65 51.2484C159.62 50.0557 156.043 50.0557 153.45 56.7366C151.947 54.5068 150.547 53.0202 149.129 52.13C147.712 51.2397 146.286 50.9372 144.86 50.9891C143.132 51.2311 141.412 51.8275 140.617 51.6978C139.001 51.378 137.956 50.7125 137.472 49.0444C135.32 50.0557 133.721 50.0557 133.307 48.6555C130.446 50.3236 128.312 50.1853 125.685 48.7938C124.484 50.7903 122.798 51.525 120.094 52.0349C120.465 52.2596 119.67 51.7065 118.348 50.8854C118.149 50.9372 117.415 50.7125 116.533 50.531C115.237 50.4878 113.82 50.92 112.498 51.6632C111.746 50.0557 110.743 50.0557 110.605 50.4273C110.743 50.0557 110.743 48.5432 109.957 49.1741C110.743 48.5345 111.487 48.5345 111.417 50.0902C112.67 49.3988 113.915 48.9667 114.978 49.1482C116.041 49.3297 116.939 50.1248 117.328 51.4299C119.368 50.1248 120.897 49.3297 122.047 48.3617C124.38 49.0444 126.333 49.563 128.441 48.6037C128.752 49.563 129.159 49.0444 129.807 47.2554C130.636 48.7419 131.708 48.9407 133.384 47.7048C133.583 48.7506 135.061 48.9667 136.919 48.1802C137.118 49.2605 137.938 49.1395 139.287 48.3184C139.529 49.0012 140.289 49.0012 141.378 48.6901C142.467 49.2432 143.763 49.7532 145.016 50.8076C146.044 52.009 147.021 53.7375 147.876 56.3304C149.708 53.7462 151.428 52.009 153.13 50.9372C156.544 48.7852 159.914 49.2778 164.546 50.7557C163.647 48.5432 165.652 48.5432 167.674 48.5691C169.593 48.5432 171.528 48.5432 173.412 48.5432C177.18 48.5432 180.749 48.5432 181.941 49.4852C187.213 48.5432 190.108 48.5432 192.951 50.3582C194.956 48.5432 196.909 48.5432 200.322 49.6667C199.605 48.5432 200.339 48.5432 202.301 49.3469C200.348 48.5432 200.348 50.0557 202.05 51.0582V51.0669Z" fill="currentColor"/>
<path d="M200.97 53.1844C199.57 51.9485 200.711 51.283 203.243 51.3953C203.001 49.9692 204.142 49.3037 205.222 49.684C204.142 49.3124 203.001 48.6469 203.632 48.5172C200.72 47.3332 199.57 46.6763 201.826 47.1517C199.57 46.6677 199.57 47.99 201.48 50.3582C199.57 50.6261 199.57 51.9485 200.97 53.1844Z" fill="currentColor"/>
<path d="M111.183 46.3652C110.103 46.5726 109.368 46.5727 110.63 45.9936C106.672 46.564 104.719 46.564 109.187 44.0144C99.8623 46.5726 96.9674 46.5726 92.8972 35.0171C91.3071 42.7179 89.1899 45.2849 85.3185 45.7084C83.3828 45.9158 81.0064 45.596 78.7423 44.8786C78.7163 45.8294 78.0682 46.201 78.0423 46.0627C75.4152 46.564 73.4104 46.564 74.3696 45.4231C72.0277 45.8034 70.0142 46.0541 68.1131 46.1491C64.3108 46.3393 60.9751 45.8812 56.4383 44.5156C55.7988 45.5355 54.4853 46.0541 52.8088 46.2961C51.1324 46.5381 49.0843 46.5208 47.2955 46.2961C45.3079 46.5208 43.5883 46.5467 43.5364 45.0688C40.1575 46.564 38.4638 46.564 38.5502 43.2884C33.6072 46.564 30.7123 46.564 26.6248 43.2279C25.8644 46.564 23.9114 46.564 21.0078 45.2416C21.2238 46.564 20.4806 46.564 19.4609 45.8466C20.4893 46.564 20.4893 45.0515 19.8325 44.5156C20.4806 45.0515 21.2238 45.0515 21.4744 43.9539C23.92 45.0515 25.8644 45.0515 27.0742 42.1648C30.7123 45.0515 33.6072 45.0515 38.0922 42.2166C38.4552 45.0429 40.1575 45.0429 43.0611 43.7983C43.6142 45.0256 45.3598 44.9996 47.1832 44.8873C49.1362 44.9996 51.1497 45.0256 52.8693 44.7144C54.589 44.4033 55.9976 43.7464 56.8358 42.4414C58.9703 43.3143 60.8455 43.8934 62.6516 44.2218C64.4577 44.5502 66.186 44.6366 67.9662 44.7231C69.8414 44.3774 71.7771 44.0489 74.1276 44.4292C73.6956 44.2996 74.0499 44.6712 74.8103 44.9219C75.5189 44.8959 76.6424 44.7404 77.8781 44.4379C78.2065 44.5675 79.0188 44.0835 79.0966 43.3143C80.1768 43.3834 81.352 43.6773 82.4495 43.8674C83.547 44.0576 84.5753 44.1354 85.5 44.0835C89.2159 43.8588 91.4022 41.4733 93.1996 34.3257C96.9587 45.0515 99.8537 45.0515 108.245 41.7499C104.702 45.0515 106.655 45.0515 110.241 44.3169C109.351 45.0515 110.094 45.0515 110.915 44.8181C110.094 45.0515 110.094 46.564 111.165 46.3566L111.183 46.3652Z" fill="currentColor"/>
<path d="M111.183 48.3099C109.334 48.4568 110.474 47.7913 111.857 47.0999C112.756 46.4776 113.896 45.8121 113.896 45.8121C113.896 45.8121 112.756 45.1552 111.65 44.4811C110.466 43.8328 109.325 43.176 110.18 42.813C109.325 43.176 109.325 44.4897 110.811 45.4404C109.325 47.1344 109.325 48.4481 111.174 48.3099H111.183Z" fill="currentColor"/>
<path d="M141.913 47.7133C141.006 48.2146 140.15 48.3615 140.721 48.1455C137.359 48.5171 135.423 48.5171 136.849 47.6442C129.236 48.5171 124.958 48.5171 117.319 47.5405C116.878 48.0331 115.6 48.2751 113.906 48.3961C112.212 48.5171 110.103 48.5171 109.326 47.7565C103.812 48.5257 99.6731 48.5257 95.4733 44.0574C91.5759 48.5257 87.6181 48.5257 82.4504 47.7392C81.2146 48.1368 79.6764 48.327 78 48.4307C76.3321 48.5257 74.526 48.5257 72.7718 48.5257C71.7175 48.5257 70.6805 48.5257 69.6608 48.4566C68.6325 48.4739 67.6214 48.4134 66.6363 48.2319C65.6425 48.4134 64.6746 48.4652 63.7154 48.4307C62.7735 48.5257 61.8402 48.5257 60.9155 48.4912C60.0168 48.5257 59.1181 48.5257 58.2539 48.5257C57.3811 48.5257 56.5429 48.5257 55.7219 48.5171C54.0887 48.4998 52.5591 48.4739 51.1678 48.422C48.9469 48.4998 47.0112 48.5171 46.0606 47.5577C45.81 50.0382 48.2556 50.0296 51.4271 49.8049C52.6801 49.9172 54.1405 49.9777 55.7479 50.0037C56.5515 50.021 57.3898 50.0296 58.2021 49.9C59.0749 49.9172 59.9304 49.8049 60.7254 49.4246C61.7538 49.7962 62.7303 49.9172 63.6808 49.511C64.6746 49.7876 65.6511 49.537 66.6536 48.906C67.6301 49.537 68.6325 49.7876 69.7127 49.6925C70.7065 49.9432 71.778 49.8567 72.9273 49.6407C73.7137 49.8654 74.5779 49.9432 75.4334 49.9691C76.2889 50.0037 77.1444 49.9777 77.9568 49.9259C79.5814 49.8308 81.0245 49.632 82.0702 49.2345C87.6181 50.0296 91.5759 50.0296 95.4301 45.4143C99.6731 50.0296 103.812 50.0296 109.706 49.2604C110.103 50.0296 112.221 50.0296 113.897 50.0123C115.574 49.995 116.827 49.9605 117.198 49.8913C124.967 50.0296 129.245 50.0296 136.987 49.9086C135.432 50.0296 137.376 50.0296 140.798 49.9777C140.124 50.0123 140.937 49.9864 141.93 49.9172C144.756 49.9864 147.764 50.0123 148.887 49.7271C149.889 49.4678 149.405 48.9752 146.925 48.0245C145.318 48.2232 143.348 48.0763 141.93 47.7133H141.913Z" fill="currentColor"/>
<path d="M146.907 48.0246C147.054 48.0073 147.21 47.99 147.357 47.9641C147.426 47.9554 147.486 47.9381 147.547 47.9209C147.002 47.8344 146.449 47.7394 145.879 47.6443C146.259 47.7739 146.596 47.9036 146.916 48.0246H146.907Z" fill="currentColor"/>
<path d="M215.675 49.295C217.317 49.6407 218.146 49.7963 218.138 49.7876C218.129 49.7876 217.533 49.658 216.392 49.4246C216.133 49.3814 215.856 49.3295 215.562 49.269C215.597 49.2777 215.632 49.2863 215.666 49.295H215.675Z" fill="currentColor"/>
<path d="M237.262 47.9641C237.262 47.9641 237.288 47.9468 237.306 47.9468C236.977 48.0851 236.96 48.0937 237.262 47.9641Z" fill="currentColor"/>
<path d="M218.927 48.0159C219.023 48.0246 219.1 48.0246 219.152 48.0159C218.893 47.9209 218.625 47.8344 218.34 47.7307C218.547 47.8344 218.737 47.9209 218.927 48.0159Z" fill="currentColor"/>
<path d="M217.631 48.1974C217.259 48.3184 215.756 48.1715 213.353 47.7826C214.563 48.5086 213.587 48.5172 212.299 48.0764C212.809 48.5172 212.368 48.5172 211.737 48.111C210.692 48.5172 209.456 48.5172 209.197 47.6961C206.371 48.5172 204.556 48.5172 203.848 46.6331C200.365 48.5172 197.989 48.5172 194.472 46.3306C192.761 48.5172 189.909 48.5172 185.726 47.8949C183.791 48.5172 180.524 48.5172 177.093 48.5172C173.879 48.5172 170.517 48.5172 173.447 47.3591C163.561 48.5172 159.966 48.5172 150.322 38.405C151.825 45.0082 150.728 47.2986 147.539 47.9208C160.277 50.0297 163.984 50.0211 173.689 49.8655C170.526 50.0297 173.887 50.0297 177.102 50.0297C180.533 50.0297 183.799 50.0297 185.502 49.4593C189.917 50.0297 192.778 50.0297 194.299 48.0418C197.997 50.0297 200.374 50.0297 204.124 48.3357C204.565 50.0297 206.38 50.0297 209.465 49.2864C209.465 50.0297 210.7 50.0297 211.858 49.6494C212.368 50.0297 212.809 50.0297 212.368 49.6494C213.587 50.0211 214.572 50.0124 213.319 49.5025C214.969 49.805 216.438 49.8914 216.888 49.8223C217.259 49.7618 216.922 49.5976 215.678 49.2951C215.41 49.2432 215.125 49.1827 214.822 49.1136C215.082 49.1654 215.332 49.2173 215.574 49.2691C215.341 49.2086 215.082 49.1481 214.788 49.0876C215.41 49.2173 215.946 49.3296 216.395 49.4333C217.769 49.684 218.711 49.7791 218.988 49.7358C219.359 49.6667 218.512 49.321 215.937 48.6555C221.744 49.8914 222.764 49.9173 218.927 48.0159C218.366 47.9641 217.069 47.5838 215.289 46.901C217.233 47.6875 218.011 48.0764 217.64 48.1974H217.631Z" fill="currentColor"/>
<path d="M45.8008 47.2294C45.8786 47.3504 45.9563 47.4541 46.06 47.5492C46.0773 47.385 46.1032 47.2121 46.1464 47.022C46.0255 47.0911 45.9218 47.1603 45.8008 47.2294Z" fill="currentColor"/>
<path d="M235.371 47.5664C232.501 49.174 232.501 49.174 235.371 47.5664Z" fill="currentColor"/>
<path d="M37.082 46.5121C37.0907 46.6331 37.108 46.7541 37.1252 46.8492C37.1339 46.2009 37.1857 45.3799 37.2721 44.3687C37.1944 45.2675 37.1339 45.9589 37.082 46.5121Z" fill="currentColor"/>
<path d="M37.1326 43.6685C36.8474 47.7479 36.8042 49.4505 37.0807 46.512C37.0203 45.907 37.0462 44.9649 37.1326 43.6685Z" fill="currentColor"/>
<path d="M40.0352 46.7107C40.1734 49.8567 41.8845 49.5974 45.7991 47.2207C45.5744 46.8663 45.4361 46.4255 45.4275 45.8464C42.4116 47.7738 40.7265 48.2924 40.0352 46.7021V46.7107Z" fill="currentColor"/>
<path d="M40.106 44.749C39.9763 44.9997 39.8554 45.233 39.7344 45.4577C39.7949 45.9763 39.8986 46.3825 40.0455 46.711C40.0195 46.1578 40.0455 45.5182 40.106 44.749Z" fill="currentColor"/>
<path d="M37.1229 46.8492C37.0797 49.6754 37.7883 49.1482 39.7327 45.4577C39.6809 45.0256 39.6636 44.5243 39.6636 43.9539C38.1254 47.0394 37.3563 48.0247 37.1229 46.8492Z" fill="currentColor"/>
<path d="M226.558 47.0047C226.593 46.9355 226.618 46.8491 226.636 46.7454C226.601 46.6589 226.567 46.5725 226.523 46.4861C226.541 46.6676 226.549 46.8404 226.549 47.0047H226.558Z" fill="currentColor"/>
<path d="M230.66 49.0964C230.66 49.0964 231.282 48.4914 232.596 47.2295C231.36 48.4309 230.721 49.0445 230.66 49.0964Z" fill="currentColor"/>
<path d="M235.371 47.5666C235.44 47.5233 235.501 47.4888 235.578 47.4456C235.509 47.4888 235.449 47.5233 235.371 47.5579V47.5666Z" fill="currentColor"/>
<path d="M231.498 48.2751C231.498 48.2751 231.472 48.3011 231.455 48.3184C230.893 48.8715 230.625 49.1308 230.669 49.0962C230.677 49.0876 230.962 48.811 231.507 48.2751H231.498Z" fill="currentColor"/>
<path d="M235.371 47.5665C235.44 47.5319 235.501 47.4973 235.57 47.4541C235.501 47.4973 235.44 47.5232 235.371 47.5665Z" fill="currentColor"/>
<path d="M232.598 47.2295C232.598 47.2295 232.667 47.2035 232.701 47.1949C232.84 47.0393 232.995 46.8665 233.159 46.6936C232.961 46.8837 232.779 47.0652 232.598 47.2295Z" fill="currentColor"/>
<path d="M232.589 47.238C232.589 47.238 232.572 47.238 232.563 47.2467C232.131 47.6615 231.785 48.0073 231.5 48.2838C231.794 48.0073 232.157 47.6615 232.589 47.238Z" fill="currentColor"/>
<path d="M230.565 43.3402C228.992 48.379 227.851 48.3531 227.722 43.1587C227.851 48.3531 227.851 48.4481 227.722 43.3229C227.722 48.4568 227.592 48.4568 226.659 43.3661C226.762 45.0342 226.771 46.1491 226.633 46.7455C227.946 49.952 228.335 49.8656 229.796 46.3911C229.113 49.6754 229.398 49.9088 232.189 47.3332C230.824 47.5666 230.496 46.3566 230.565 43.3402Z" fill="currentColor"/>
<path d="M223.298 43.85C225.597 48.3615 224.828 48.3702 219.021 44.9735C222.832 48.4048 221.985 48.4307 216.402 46.2613C218.753 47.3762 219.513 47.938 219.15 48.0072C223.385 49.4938 224.681 49.7271 223.246 48.3443C222.806 48.0331 222.27 47.6442 221.613 47.1775C222.028 47.4454 222.408 47.6874 222.763 47.9035C222.451 47.6355 222.08 47.3244 221.639 46.97C222.287 47.4627 222.823 47.8689 223.255 48.1973C225.995 49.8135 226.669 49.5283 226.556 46.996C226.193 47.7998 225.251 46.7107 223.298 43.8413V43.85Z" fill="currentColor"/>
<path d="M223.246 48.3444C225.009 49.5976 225.009 49.5457 223.246 48.1974C223.091 48.1024 222.927 48.0073 222.754 47.9036C222.944 48.0678 223.1 48.2147 223.238 48.3444H223.246Z" fill="currentColor"/>
<path d="M232.276 47.3158C230.366 49.295 230.081 49.6235 231.447 48.3184C231.74 48.0332 232.103 47.6788 232.553 47.238C232.458 47.264 232.363 47.2899 232.276 47.3072V47.3158Z" fill="currentColor"/>
<path d="M233.125 46.6936C232.926 46.8924 232.736 47.0739 232.555 47.2467C232.736 47.0739 232.918 46.8924 233.125 46.6936Z" fill="currentColor"/>
<path d="M232.191 47.3332C232.191 47.3332 232.252 47.3332 232.278 47.3159C232.468 47.1172 232.675 46.9011 232.9 46.6677C232.641 46.9097 232.407 47.1258 232.191 47.3332Z" fill="currentColor"/>
<path d="M243.349 45.9503C239.797 44.8526 238.682 44.3773 232.21 41.0325C233.653 43.15 234.811 44.4205 236.003 45.3539C235.917 45.4144 235.813 45.4836 235.727 45.5354C235.165 45.2588 234.5 44.9131 233.644 44.4723C234.102 45.1465 234.508 45.6564 234.897 46.0626C233.999 46.6158 233.29 46.9961 232.711 47.1948C230.3 49.8914 230.905 49.7618 235.537 47.2121C231.06 49.8741 231.009 50.0211 235.381 47.5665C235.45 47.4196 235.623 47.2035 235.891 46.9269C236.219 47.1516 236.556 47.3418 236.928 47.5233C235.736 47.9122 235.217 47.9468 235.381 47.5665C231.052 50.0124 232.253 49.9779 237.386 47.9036C237.36 47.9122 237.343 47.9295 237.317 47.9381C237.395 47.9036 237.481 47.869 237.585 47.8258C237.455 47.8776 237.343 47.9208 237.265 47.9554C233.783 49.7013 233.834 49.9519 237.49 49.1049C237.438 49.1568 237.395 49.2086 237.343 49.2519C235.761 49.7186 235.701 49.7791 237.153 49.4506C237.144 49.4593 237.127 49.4766 237.118 49.4852C236.415 49.6581 236.415 49.6581 237.118 49.4852C237.118 49.4852 237.058 49.5457 237.032 49.5803C236.617 49.7013 236.582 49.7359 236.945 49.6754C235.848 50.8335 235.182 51.6546 234.05 52.9078C234.906 52.1818 236.997 51.3002 238.95 50.5915C236.591 53.0547 235.286 54.6709 232.987 57.2379C234.863 55.6562 239.806 53.6684 243.928 52.2509C244.896 50.7298 264.901 49.2605 264.901 49.2605C264.901 49.2605 244.896 47.7912 243.349 45.9416V45.9503ZM236.021 45.6823C236.021 45.6823 236.003 45.6737 235.995 45.6651C236.064 45.6132 236.133 45.5613 236.211 45.5008C236.211 45.5008 236.228 45.5095 236.237 45.5181C236.168 45.57 236.09 45.6218 236.029 45.6737L236.021 45.6823ZM236.245 45.5354C236.323 45.5959 236.41 45.6564 236.487 45.7169C236.427 45.7601 236.375 45.7947 236.323 45.8293C236.228 45.7861 236.133 45.7428 236.038 45.691C236.107 45.6391 236.176 45.5873 236.245 45.5354ZM236.505 45.7256C236.6 45.7947 236.695 45.8552 236.79 45.9157C236.747 45.9416 236.712 45.9676 236.669 45.9935C236.565 45.9416 236.453 45.8898 236.34 45.8379C236.392 45.8033 236.444 45.7601 236.505 45.7256ZM236.902 45.9935C237.11 46.1231 237.317 46.2528 237.533 46.3824C237.308 46.2873 237.075 46.1923 236.816 46.0713C236.842 46.0453 236.868 46.0281 236.893 46.0021L236.902 45.9935ZM237.956 48.0073C237.524 48.1542 237.498 48.1456 237.896 47.9813C237.913 47.99 237.939 47.9986 237.956 48.0073ZM237.982 48.0246C237.735 48.1168 237.735 48.1168 237.982 48.0246ZM238.112 48.0851C238.112 48.0851 238.198 48.1196 238.242 48.1456C238.043 48.1801 238 48.1628 238.112 48.0851ZM236.047 45.4058C236.098 45.449 236.15 45.4836 236.202 45.5181C236.133 45.57 236.055 45.6305 235.986 45.6823C235.926 45.6564 235.865 45.6218 235.805 45.5959C235.882 45.5354 235.96 45.4663 236.038 45.4058H236.047ZM235.027 46.2182C235.027 46.2182 235.096 46.2873 235.139 46.3219C234.915 46.4948 234.707 46.6503 234.526 46.7886C234.707 46.6503 234.906 46.4948 235.131 46.3306C235.131 46.3306 235.131 46.3306 235.139 46.3392C234.915 46.5034 234.707 46.659 234.517 46.7886C233.973 47.1948 233.627 47.4628 233.506 47.5578C233.61 47.4714 233.955 47.2121 234.508 46.7886C232.815 48.0246 232.987 47.8431 235.01 46.2182H235.027ZM235.174 46.3651C235.226 46.417 235.277 46.4688 235.338 46.5121C233.143 48.0073 233.1 47.9727 235.174 46.3651ZM235.364 46.538C235.433 46.5985 235.494 46.6503 235.563 46.7022C233.515 48.0073 233.394 47.9641 235.364 46.538ZM237.196 47.6702C237.196 47.6702 237.239 47.6961 237.265 47.7048C236.314 48.1024 236.289 48.0937 237.196 47.6702ZM237.291 47.7134C237.291 47.7134 237.291 47.7134 237.3 47.7134C236.689 47.9727 236.686 47.9727 237.291 47.7134ZM237.403 47.7653C237.447 47.7826 237.49 47.8085 237.542 47.8258C236.755 48.1196 236.703 48.111 237.403 47.7653ZM237.654 47.8776C237.654 47.8776 237.723 47.9122 237.758 47.9208C237.092 48.1542 237.058 48.1369 237.654 47.8776Z" fill="currentColor"/>
<path d="M83.6686 54.1612C83.0464 54.4723 82.4674 54.5587 82.8563 54.4204C80.5922 54.5933 79.2873 54.5501 80.2638 53.9969C75.1307 54.4118 72.253 54.3081 67.1458 53.4784C66.8347 53.7982 65.9706 53.9278 64.8299 53.971C63.6892 54.0142 62.272 53.971 61.7621 53.4352C58.0376 53.8241 55.255 53.729 52.5415 50.6262C49.8194 53.5389 47.1665 53.4438 43.7098 52.7956C42.8716 53.0289 41.8346 53.1327 40.7026 53.1586C39.5792 53.1845 38.3693 53.1413 37.1854 53.1067C36.4768 53.0808 35.7769 53.0635 35.1028 52.9857C34.4115 52.9684 33.7374 52.9079 33.0807 52.7697C32.4066 52.8647 31.7585 52.882 31.1104 52.8388C30.4709 52.882 29.8487 52.8561 29.2265 52.8129C28.6216 52.8129 28.0167 52.7956 27.4377 52.7783C26.8501 52.761 26.2884 52.7351 25.7353 52.7092C24.6379 52.6659 23.6095 52.6054 22.6762 52.5363C21.1812 52.5363 19.885 52.5017 19.2628 51.8449C19.0381 53.5043 20.68 53.5562 22.8145 53.4784C23.6527 53.5821 24.6379 53.6599 25.7094 53.7117C26.2452 53.7377 26.8069 53.7636 27.36 53.6944C27.9476 53.729 28.5266 53.6685 29.071 53.4352C29.7537 53.7117 30.4018 53.8154 31.0499 53.5648C31.7153 53.7722 32.3721 53.6253 33.0634 53.2277C33.7029 53.6772 34.3769 53.8673 35.1028 53.8241C35.7682 54.0142 36.4855 53.9883 37.2632 53.8587C37.7904 54.0229 38.3607 54.1007 38.9397 54.1352C39.51 54.1784 40.089 54.1784 40.6334 54.1698C41.7223 54.1439 42.6988 54.0402 43.416 53.7982C47.1233 54.455 49.7849 54.5501 52.4811 51.5337C55.2291 54.7316 58.0117 54.8267 61.9868 54.4464C62.2374 54.9736 63.6546 55.0254 64.7867 55.0514C65.9187 55.0773 66.757 55.0859 67.0076 55.0514C72.2271 55.3193 75.0961 55.423 80.307 55.5181C79.2614 55.5613 80.5662 55.6132 82.8649 55.6564C82.4155 55.6564 82.96 55.665 83.6254 55.6391C85.5265 55.7515 87.54 55.8379 88.3091 55.665C88.9918 55.5181 88.672 55.1724 87.0301 54.4809C85.9499 54.576 84.6278 54.4377 83.6772 54.1612H83.6686Z" fill="currentColor"/>
<path d="M87.0186 54.4897C87.1223 54.4811 87.226 54.4724 87.3211 54.4638C87.3643 54.4638 87.4075 54.4465 87.4507 54.4379C87.0878 54.3687 86.7162 54.2909 86.3359 54.2131C86.5865 54.3082 86.8112 54.4033 87.0186 54.4897Z" fill="currentColor"/>
<path d="M133.19 56.927C134.288 57.1949 134.841 57.3245 134.832 57.3159C134.832 57.3159 134.426 57.2122 133.674 57.0307C133.501 56.9961 133.32 56.9529 133.121 56.9097C133.147 56.9097 133.164 56.927 133.19 56.927Z" fill="currentColor"/>
<path d="M147.727 56.5292C147.727 56.5292 147.745 56.5292 147.753 56.512C147.529 56.5984 147.52 56.5984 147.727 56.5292Z" fill="currentColor"/>
<path d="M135.404 56.1405C135.464 56.1405 135.525 56.1492 135.559 56.1405C135.386 56.0714 135.214 56.0022 135.023 55.9331C135.162 56.0022 135.283 56.0714 135.412 56.1405H135.404Z" fill="currentColor"/>
<path d="M134.531 56.2269C134.28 56.296 133.269 56.1663 131.67 55.8466C132.466 56.3651 131.809 56.3478 130.962 56.0194C131.29 56.3306 130.996 56.3219 130.59 56.0281C129.873 56.2787 129.052 56.2528 128.897 55.691C126.978 56.175 125.76 56.1318 125.328 54.8526C122.942 56.0367 121.352 55.9848 119.036 54.4291C117.835 55.8638 115.917 55.7947 113.126 55.2848C111.812 55.6564 109.617 55.5873 107.31 55.5095C105.149 55.4317 102.894 55.3626 104.89 54.6538C98.2189 55.1983 95.8079 55.1206 89.56 48.1025C90.4155 52.5709 89.6291 54.0834 87.4688 54.4291C95.9721 56.1404 98.4695 56.2182 104.994 56.3392C102.868 56.3738 105.124 56.4516 107.284 56.5294C109.591 56.6071 111.778 56.6849 112.936 56.3392C115.891 56.8232 117.809 56.8924 118.881 55.5873C121.327 57.0047 122.917 57.0566 125.474 56.0108C125.734 57.1603 126.952 57.2035 129.043 56.7713C129.026 57.2726 129.856 57.2986 130.642 57.0739C130.979 57.3418 131.273 57.3504 130.988 57.0825C131.8 57.3591 132.457 57.3764 131.627 57.0047C132.725 57.2467 133.71 57.3331 134.012 57.2986C134.263 57.2726 134.038 57.1516 133.209 56.9183C133.027 56.8751 132.846 56.8319 132.638 56.78C132.811 56.8232 132.975 56.8664 133.14 56.901C132.984 56.8578 132.811 56.8146 132.621 56.7541C133.036 56.8578 133.39 56.9442 133.693 57.022C134.609 57.2208 135.239 57.3072 135.421 57.2813C135.672 57.2467 135.11 56.9874 133.39 56.4861C137.262 57.4455 137.953 57.4887 135.412 56.1318C135.032 56.0799 134.177 55.7947 132.993 55.3021C134.28 55.8725 134.79 56.1577 134.539 56.2269H134.531Z" fill="currentColor"/>
<path d="M19.1055 51.6289C19.1487 51.7067 19.2092 51.7845 19.2697 51.8536C19.2869 51.7413 19.3042 51.6289 19.3388 51.4993C19.261 51.5425 19.1832 51.5857 19.1055 51.6289Z" fill="currentColor"/>
<path d="M146.466 56.2183C144.501 57.2324 144.501 57.2324 146.466 56.2183Z" fill="currentColor"/>
<path d="M13.2617 50.9546C13.2617 51.041 13.2704 51.1188 13.2876 51.1793C13.3136 50.7385 13.3654 50.194 13.4432 49.5112C13.3741 50.1162 13.3136 50.5829 13.2704 50.9459L13.2617 50.9546Z" fill="currentColor"/>
<path d="M13.3673 49.0359C13.0821 51.767 13.013 52.9079 13.2636 50.946C13.2377 50.5398 13.2723 49.9088 13.3673 49.0359Z" fill="currentColor"/>
<path d="M15.25 51.1534C15.2759 53.2709 16.4253 53.1326 19.1128 51.6287C18.9659 51.3867 18.8881 51.0842 18.8968 50.6953C16.8314 51.9226 15.6821 52.2337 15.2586 51.1447L15.25 51.1534Z" fill="currentColor"/>
<path d="M15.3382 49.8312C15.2431 49.9954 15.1567 50.1509 15.0703 50.2979C15.0962 50.6436 15.1567 50.9202 15.2518 51.1449C15.2518 50.7732 15.2777 50.3411 15.3382 49.8225V49.8312Z" fill="currentColor"/>
<path d="M13.2889 51.1793C13.1938 53.0807 13.6777 52.7437 15.069 50.3064C15.0431 50.0125 15.0431 49.6841 15.0604 49.2952C13.9543 51.3349 13.4185 51.9831 13.2889 51.1793Z" fill="currentColor"/>
<path d="M140.556 55.6305C140.581 55.5873 140.599 55.5268 140.616 55.4576C140.59 55.3971 140.573 55.3453 140.547 55.2761C140.547 55.3971 140.547 55.5181 140.547 55.6218L140.556 55.6305Z" fill="currentColor"/>
<path d="M143.27 57.1343C143.27 57.1343 143.702 56.7454 144.609 55.9243C143.753 56.7022 143.304 57.0997 143.27 57.1343Z" fill="currentColor"/>
<path d="M144.977 55.5872C144.847 55.7082 144.718 55.8205 144.605 55.9242C144.726 55.8205 144.847 55.7082 144.977 55.5872Z" fill="currentColor"/>
<path d="M146.465 56.2182C146.517 56.1922 146.551 56.1663 146.603 56.1404C146.551 56.1663 146.508 56.1836 146.465 56.2095V56.2182Z" fill="currentColor"/>
<path d="M143.849 56.6072C143.849 56.6072 143.831 56.6245 143.814 56.6331C143.425 56.9875 143.235 57.1603 143.27 57.1344C143.27 57.1344 143.468 56.9443 143.849 56.6072Z" fill="currentColor"/>
<path d="M146.473 56.2183C146.516 56.1924 146.559 56.1751 146.611 56.1492C146.559 56.1751 146.525 56.1924 146.473 56.2183Z" fill="currentColor"/>
<path d="M144.605 55.9243C144.605 55.9243 144.649 55.907 144.675 55.907C144.778 55.8033 144.882 55.691 144.994 55.5786C144.856 55.6996 144.726 55.8206 144.605 55.9243Z" fill="currentColor"/>
<path d="M144.607 55.9243H144.59C144.296 56.1922 144.054 56.417 143.855 56.5985C144.063 56.417 144.305 56.1922 144.616 55.9243H144.607Z" fill="currentColor"/>
<path d="M143.338 53.2623C142.163 56.6071 141.403 56.5725 141.437 53.0808C141.403 56.5725 141.403 56.6417 141.437 53.1845C141.325 56.633 141.23 56.633 140.72 53.1845C140.755 54.3081 140.737 55.0514 140.625 55.449C141.437 57.6356 141.697 57.5838 142.759 55.2847C142.224 57.4714 142.414 57.6356 144.35 55.9762C143.434 56.0972 143.235 55.2761 143.347 53.2537L143.338 53.2623Z" fill="currentColor"/>
<path d="M138.438 53.4353C139.882 56.5208 139.363 56.5122 135.535 54.0922C138.015 56.4862 137.445 56.4862 133.746 54.8959C135.302 55.6997 135.794 56.0887 135.552 56.1319C138.361 57.2295 139.225 57.411 138.3 56.4517C138.015 56.2356 137.661 55.959 137.229 55.6306C137.505 55.8207 137.747 55.9936 137.98 56.1405C137.782 55.9504 137.531 55.7343 137.246 55.4923C137.669 55.838 138.015 56.1232 138.3 56.3566C140.098 57.5061 140.564 57.3332 140.547 55.6306C140.288 56.1578 139.674 55.4145 138.43 53.4353H138.438Z" fill="currentColor"/>
<path d="M138.308 56.4602C139.466 57.3418 139.466 57.3072 138.308 56.3651C138.204 56.296 138.101 56.2269 137.988 56.1577C138.109 56.2701 138.213 56.3738 138.308 56.4689V56.4602Z" fill="currentColor"/>
<path d="M144.402 55.9763C143.079 57.2641 142.872 57.4715 143.823 56.6332C144.021 56.4517 144.281 56.2183 144.592 55.9331C144.523 55.9504 144.462 55.9677 144.402 55.9763Z" fill="currentColor"/>
<path d="M144.98 55.5786C144.841 55.7083 144.712 55.8293 144.582 55.9416C144.703 55.8293 144.833 55.7083 144.98 55.5786Z" fill="currentColor"/>
<path d="M144.34 55.9848C144.34 55.9848 144.374 55.9848 144.4 55.9848C144.539 55.8551 144.677 55.7169 144.832 55.5613C144.651 55.7169 144.495 55.8551 144.34 55.9934V55.9848Z" fill="currentColor"/>
<path d="M151.856 55.3106C149.497 54.4982 148.753 54.1438 144.485 51.7498C145.409 53.2018 146.152 54.092 146.93 54.7402C146.87 54.7748 146.8 54.818 146.74 54.8526C146.368 54.6538 145.928 54.4031 145.366 54.092C145.66 54.5587 145.919 54.9044 146.17 55.1896C145.556 55.544 145.064 55.7773 144.675 55.8983C142.998 57.6528 143.404 57.5837 146.576 55.9761C143.508 57.6615 143.465 57.7566 146.463 56.2095C146.515 56.1144 146.636 55.9675 146.818 55.7946C147.034 55.9502 147.258 56.0885 147.5 56.2181C146.688 56.4515 146.342 56.4688 146.455 56.2181C143.491 57.7652 144.303 57.7652 147.794 56.4861C147.777 56.4861 147.76 56.5033 147.742 56.512C147.794 56.4947 147.855 56.4688 147.924 56.4428C147.837 56.4774 147.76 56.5033 147.708 56.5206C145.323 57.6183 145.357 57.7825 147.829 57.2985C147.794 57.3331 147.76 57.3676 147.725 57.3936C146.654 57.6701 146.61 57.7047 147.596 57.5232C147.596 57.5232 147.578 57.5405 147.57 57.5491C147.091 57.6471 147.091 57.6471 147.57 57.5491C147.57 57.5491 147.526 57.5923 147.509 57.6096C147.224 57.6788 147.207 57.7047 147.449 57.6701C146.688 58.4221 146.222 58.9579 145.435 59.779C146.031 59.3123 147.449 58.7678 148.779 58.3356C147.138 59.9346 146.23 60.9976 144.623 62.6657C145.919 61.6459 149.281 60.4272 152.089 59.5629C152.772 58.5603 166.253 58.0331 166.253 58.0331C166.253 58.0331 152.841 56.5811 151.847 55.3106H151.856ZM146.939 54.9649C146.939 54.9649 146.93 54.9649 146.921 54.9563C146.965 54.9217 147.017 54.8871 147.068 54.8526C147.068 54.8526 147.077 54.8525 147.086 54.8612C147.034 54.8958 146.982 54.9303 146.939 54.9649ZM147.094 54.8698C147.146 54.9131 147.198 54.9563 147.258 54.9995C147.215 55.0254 147.181 55.0513 147.146 55.0686C147.086 55.0341 147.025 55.0081 146.956 54.9736C146.999 54.939 147.051 54.9044 147.094 54.8698ZM147.258 54.9995C147.319 55.0427 147.379 55.0859 147.449 55.1378C147.423 55.1551 147.397 55.1723 147.362 55.1896C147.293 55.1551 147.224 55.1205 147.146 55.0773C147.181 55.0513 147.215 55.0254 147.258 55.0081V54.9995ZM147.518 55.1896C147.656 55.2847 147.794 55.3711 147.933 55.4662C147.786 55.3971 147.63 55.3279 147.457 55.2415C147.475 55.2242 147.492 55.2069 147.518 55.1983V55.1896ZM148.183 56.5638C147.889 56.6503 147.872 56.6503 148.14 56.5466C148.157 56.5466 148.166 56.5638 148.183 56.5638ZM148.2 56.5725C148.033 56.6301 148.033 56.6301 148.2 56.5725ZM148.287 56.6157C148.287 56.6157 148.339 56.6416 148.373 56.6589C148.244 56.6762 148.209 56.6589 148.287 56.6157ZM146.965 54.7661C146.965 54.7661 147.034 54.818 147.068 54.8439C147.017 54.8785 146.965 54.9131 146.921 54.9476C146.887 54.9303 146.844 54.9044 146.8 54.8871C146.852 54.8526 146.913 54.8093 146.965 54.7661ZM146.265 55.2933C146.265 55.2933 146.308 55.3452 146.334 55.3711C146.178 55.4835 146.04 55.5786 145.91 55.665C146.031 55.5786 146.178 55.4835 146.334 55.3711C146.178 55.4748 146.031 55.5786 145.91 55.6563C145.539 55.9156 145.297 56.0885 145.21 56.149C145.28 56.0971 145.522 55.9329 145.902 55.6563C144.735 56.4428 144.856 56.3305 146.256 55.2847L146.265 55.2933ZM146.36 55.3971C146.36 55.3971 146.429 55.4662 146.463 55.5008C144.951 56.4601 144.925 56.4342 146.36 55.3971ZM146.489 55.5181C146.489 55.5181 146.576 55.5958 146.619 55.6304C145.21 56.4601 145.133 56.4342 146.489 55.5181ZM147.691 56.3218C147.691 56.3218 147.725 56.3391 147.734 56.3478C147.086 56.5898 147.068 56.5898 147.691 56.3218ZM147.751 56.3564C147.336 56.5177 147.336 56.5177 147.751 56.3564ZM147.829 56.391C147.829 56.391 147.889 56.4169 147.915 56.4342C147.379 56.6157 147.345 56.6071 147.829 56.391ZM147.993 56.4688C147.993 56.4688 148.036 56.4947 148.062 56.5033C147.613 56.6416 147.587 56.633 147.993 56.4688Z" fill="currentColor"/>
<path d="M215.964 45.3366C217.597 47.0479 217.078 47.0047 214.918 45.7947C215.981 46.901 215.411 46.8491 213.881 46.1923C214.918 46.8491 214.365 46.8491 212.809 46.5639C212.274 46.8491 210.735 46.8491 209.102 46.538C207.08 46.8491 205.049 46.8491 203.355 45.5527C200.452 46.8578 197.877 46.8578 194.697 45.2329C192.277 46.8578 189.244 46.8578 185.77 46.5985C182.832 46.8578 179.444 46.8578 175.927 46.8578C172.41 46.8578 168.755 46.8578 169.714 42.9685C164.088 45.5613 160.51 46.4256 156.432 44.4637C154.392 43.487 152.223 41.8017 150.141 39.5718C149.639 41.1707 149.415 42.5882 148.991 43.6512C148.568 44.7143 147.937 45.4058 147.151 45.8552C146.364 46.3046 145.422 46.5034 144.446 46.5466C143.443 46.5639 142.398 46.4343 141.732 46.9788C139.494 46.6417 137.783 46.7454 138.198 47.627C135.951 46.1923 134.56 46.5207 133.471 48.0591C132.633 46.1231 132.088 45.3885 131.276 47.3504C129.954 44.9045 128.113 45.5527 126.091 46.4083C124.587 46.3219 122.885 46.4343 121.113 46.3392C119.351 46.2441 117.519 45.933 115.488 45.4749C114.347 46.1663 112.766 46.512 110.994 46.6849C109.223 46.8578 107.252 46.8578 105.913 46.1577C101.506 46.8578 97.8849 46.8578 94.3245 44.3081C91.1963 46.8578 88.1371 46.8578 84.8966 46.2441C82.7016 46.8578 80.3338 46.8578 78.3808 46.8578H72.2539V45.3453H78.3808C80.3338 45.3453 82.7016 45.3453 85.199 45.06C88.1371 45.3453 91.1963 45.3453 94.4023 43.5389C97.8849 45.3539 101.506 45.3539 105.593 44.9995C107.252 45.3539 109.223 45.3539 111.046 45.1897C112.869 45.0255 114.555 44.697 115.911 44.0315C117.795 44.4723 119.532 44.7662 121.226 44.8613C122.92 44.9563 124.561 44.844 125.538 45.6391C127.949 44.1093 129.703 43.487 130.446 46.9701C131.907 43.9538 132.538 44.6538 133.255 47.7653C134.465 45.0514 135.77 44.7489 138.06 47.4023C137.878 45.2848 139.702 45.2156 142.259 46.417C142.579 45.0946 143.608 45.1724 144.861 45.5095C145.578 45.0687 146.511 44.8872 147.341 44.481C148.162 44.0661 148.879 43.4352 149.449 42.4845C150.02 41.5337 150.443 40.2546 150.936 38.6643C152.949 40.8164 154.876 42.3289 156.717 43.2018C160.407 44.9477 163.751 44.118 168.685 41.6375C168.772 45.3539 172.419 45.3539 175.944 45.3539C179.47 45.3539 182.849 45.3539 185.951 45.2415C189.261 45.3539 192.286 45.3539 194.835 44.1266C197.885 45.3539 200.461 45.3539 203.148 44.3945C205.058 45.3539 207.08 45.3539 208.929 45.1983C210.744 45.3539 212.274 45.3539 213.086 45.1983C214.365 45.3539 214.918 45.3539 214.278 44.8699C215.488 45.3539 216.093 45.4144 215.514 44.4637C217.251 45.5181 217.804 45.57 216.655 44.0143C218.202 45.5527 218.262 47.0652 216.128 45.2761C218.193 47.0738 218.124 47.0738 215.964 45.3625V45.3366Z" fill="currentColor"/>
<path d="M214 49.5111C215.504 50.1161 216.739 50.1247 217.439 49.4679C218.139 48.811 218.312 47.4886 217.699 45.4143C222.728 47.2553 224.629 46.0971 223.212 41.9486C224.629 46.0971 222.676 45.0254 219.453 41.9399C218.779 42.8906 216.826 41.8189 216.592 41.5337C216.826 41.8189 216.878 44.0401 215.426 45.0513C216.204 46.7713 216.601 48.1801 216.428 49.0184C216.255 49.8568 215.512 50.1074 214 49.5024V49.5111Z" fill="currentColor"/>
</svg>
