<svg width="279" height="97" viewBox="0 0 279 97" fill="none" xmlns="http://www.w3.org/2000/svg">
<path d="M237.516 58.9978C234.254 53.0309 229.22 46.3041 221.404 46.0369C232.878 45.8825 238.402 34.0438 245.879 27.1982C234.655 37.7486 221.909 46.6009 208.194 52.6925C207.73 50.4898 210.393 48.394 207.829 46.6662L208.335 47.2303C206.552 45.5322 204.379 44.0895 201.988 43.2583C199.596 42.4271 196.996 42.2015 194.374 42.9258C196.615 41.9165 198.986 40.9725 201.357 39.9691C203.728 38.9657 206.104 37.903 208.35 36.6443C209.851 35.8071 211.294 34.8869 212.644 33.836C215.52 31.6274 217.678 28.9675 219.324 25.7436C218.34 26.8954 217.297 27.9819 216.203 29.0091C212.102 32.8564 207.277 35.819 201.982 37.9148C200.216 38.6154 198.403 39.2151 196.542 39.7197C193.895 41.2693 191.753 43.383 190.107 46.6069C188.502 48.1921 185.433 45.9003 184.307 49.142C184.885 46.975 186.522 44.2973 185 42.6052C180.425 38.0751 170.957 37.1014 165.662 40.2006C165.735 37.4695 171.05 37.7545 172.629 37.2617C179.977 35.3262 186.344 31.1702 190.419 24.5146C191.165 23.2263 191.816 21.8666 192.363 20.4476C191.347 21.8904 190.3 23.3094 189.221 24.669C187.491 27.3882 185.349 29.5019 182.686 31.5977C173.63 38.942 163.13 41.8631 155.59 50.8935C158.252 48.7977 160.477 43.4067 156.861 42.1896C150.149 39.7732 143.724 46.1141 143.016 53.1971C143.359 40.0938 157.033 35.6409 164.537 27.6969C150.749 36.5196 139.451 49.7951 130.223 63.6941C131.51 54.4439 136.658 37.1311 123.141 35.5756C129.42 34.6969 133.224 28.8131 139.503 27.9344C133.266 27.1745 127.956 30.8199 124.11 35.4984C123.115 36.6383 122.167 37.8198 121.223 38.9954C118.394 42.5221 115.564 45.9775 111.349 47.7468C118.149 46.8859 120.942 39.8741 117.451 33.7469C114.439 29.2703 108.233 27.4179 103.98 30.5527C109.249 28.546 116.622 25.518 115.768 18.3815C115.174 21.0948 113.542 23.7725 110.895 25.3221C102.98 28.8784 90.062 24.6096 86.6489 35.4272C85.6223 34.8453 85.1012 34.8275 84.059 34.7919C85.6067 35.3915 86.6801 34.3347 86.7062 33.2423C86.7218 32.6961 86.2164 32.132 85.7057 31.5621C83.9131 30.4102 82.0893 30.3509 80.2551 30.6952C78.4208 31.0396 76.5761 31.7995 74.7419 32.2805C82.2039 25.9752 88.6447 19.088 95.5856 12.7709C86.5863 17.9303 78.5719 25.3102 73.6267 34.9759C74.8096 29.5493 67.5352 28.7538 64.3409 30.8674C62.887 31.6274 61.527 32.5654 60.2868 33.646C56.5662 36.8877 53.9034 41.4059 52.9967 46.2922C54.7006 40.8834 54.8622 34.8809 59.651 31.2177C57.1029 33.8657 54.7163 36.6858 52.4391 39.6307C51.3031 41.1031 50.188 42.6052 49.0989 44.137C43.9557 53.0903 37.9944 61.6339 33.5859 70.7712C39.5472 62.2276 49.0364 58.1784 56.587 50.941C57.5927 49.8664 58.5359 48.7324 59.4791 47.6043C63.0069 42.2609 69.2704 41.9284 73.0066 38.7757C74.0697 37.992 75.4193 36.2643 77.0139 35.0175C78.6084 33.7707 80.4531 33.0167 82.5114 34.1803C80.0206 36.4662 77.7538 38.936 75.6382 41.5187C71.4069 46.6841 67.7853 52.2947 64.1637 57.6975C63.3091 58.9859 62.4597 60.2564 61.5686 61.4914C60.6776 62.7263 59.7448 63.9434 58.7495 65.1368C60.3649 63.4981 61.9595 62.4473 63.0433 60.8442C64.3357 56.3795 66.4513 52.6925 69.161 49.7358C71.8707 46.779 75.1692 44.5526 78.8273 43.003C82.7146 41.3584 87.2533 40.545 91.4221 40.2422C93.6211 40.0819 95.841 40.1175 98.0348 40.3788C99.7231 40.5806 101.271 41.5246 103.001 41.2515C103.261 41.21 103.558 41.115 103.652 40.8597C103.725 40.6578 103.652 40.4203 103.704 40.2125C103.782 39.9335 104.095 39.791 104.371 39.8385C104.647 39.886 104.871 40.0819 105.054 40.3016C105.971 41.4059 105.898 43.0505 105.679 44.4992C105.335 43.6739 104.986 42.8427 104.746 41.9759C104.601 41.4475 104.496 40.8834 104.627 40.3491C104.772 39.7494 105.205 39.2685 105.705 38.9479C106.497 38.4492 108.566 37.7011 108.436 39.4407C107.628 50.3414 94.0588 50.9766 87.6181 57.8578C87.8891 57.5669 88.9782 57.46 89.369 57.3116C89.9474 57.0979 90.5154 56.8544 91.0834 56.6051C92.4017 56.0292 93.6784 55.3464 94.929 54.6221C97.3834 53.1971 99.7439 51.606 102.261 50.3057C106.362 48.198 111.25 46.9156 115.481 48.7561C115.82 48.9046 116.169 49.0708 116.534 49.0708C117.586 49.0649 118.217 47.7171 119.254 47.5212C118.686 50.7154 118.363 53.963 118.29 57.2166C118.931 56.326 118.998 55.1327 119.04 54.0165C120.374 55.0733 121.724 56.142 123.25 56.8604C124.777 57.5788 126.518 57.9231 128.128 57.4719C129.738 57.0207 131.171 55.6611 131.447 53.9393C131.447 55.9104 131.437 57.9469 130.671 59.7399C129.874 61.6161 128.331 63.0291 126.679 64.1334C124.913 65.3149 122.714 66.9773 120.655 67.4345C118.071 68.0104 115.502 66.5677 112.896 66.0808C109.421 65.4337 108.269 66.8111 104.929 67.9807C104.356 68.1826 101.724 69.1385 101.724 69.1385C101.724 69.1385 109.65 70.3378 113.245 70.124C117.206 69.8925 121.14 69.1147 124.897 67.7907C131.103 65.5999 136.262 61.1945 141.734 57.5728C141.937 57.4363 143.427 56.6645 143.432 56.4804C143.417 57.0266 142.87 58.1012 142.854 58.6475C144.574 52.6925 151.39 51.2854 154.631 47.0225C146.575 56.041 143.625 69.0554 133.48 76.6312C132.323 77.4565 131.098 78.163 129.79 78.7211C128.482 79.2792 127.101 79.6829 125.616 79.9026C127.565 79.9798 129.379 79.7185 131.082 79.202C133.073 78.5905 134.918 77.6168 136.658 76.3759C144.647 69.6431 149.581 60.5177 156.074 51.4457C163.625 41.8631 174.521 43.8758 184.359 46.3991C184.865 46.9631 183.234 49.6408 181.655 50.1336C168.606 50.7807 157.987 58.0716 152.463 69.9044C160.592 58.1547 177.663 43.4364 191.493 52.6509C191.524 51.5585 191.535 51.0123 191.738 49.902C193.025 50.276 194.322 50.472 195.662 50.5729C197.772 50.662 199.867 50.7391 201.899 50.6085C203.931 50.4779 205.896 50.1336 207.741 49.3795C207.959 51.0301 207.397 52.5084 206.469 53.6899C205.542 54.8714 204.249 55.7442 203.004 56.1717C201.545 56.6288 199.888 56.8307 198.22 56.9376C196.553 57.0444 194.88 57.0563 193.379 57.1454C189.263 58.0478 184 60.0486 183.333 65.493C185.532 61.1945 190.263 59.7162 193.718 57.9172C195.266 57.5075 196.813 57.2107 198.371 56.9316C199.929 56.6526 201.487 56.3973 203.051 56.0707C204.452 55.6373 205.932 54.9842 207.412 54.3965C211.831 52.2591 218.558 54.1293 217.881 60.1199C217.897 59.5737 217.923 58.4812 217.938 57.935C226.14 63.136 233.696 73.2292 243.722 68.6516C246.875 67.666 243.347 63.1716 240.59 62.7501C238.751 60.8561 237.49 58.9918 237.49 58.9918L237.516 58.9978Z" stroke="currentColor" stroke-width="2" stroke-miterlimit="50"/>
</svg>
