<svg width="279" height="97" viewBox="0 0 279 97" fill="none" xmlns="http://www.w3.org/2000/svg">
<path d="M25.2979 37.5858C27.2848 39.1662 30.3645 39.2291 32.7579 39.7724C35.5757 40.4145 38.529 41.1778 41.4327 40.7018C42.4487 40.5357 43.257 40.1226 43.7718 39.4177C44.4537 38.7217 45.5014 37.0784 43.8396 36.369C41.1346 35.4889 27.5422 35.0309 24.7153 34.335C20.0596 33.5717 15.7967 31.174 11.3306 30.3793C11.2584 30.4062 11.1816 30.4332 11.1094 30.4601C11.6693 31.3222 24.6702 37.0874 25.2979 37.5858Z" stroke="currentColor" stroke-miterlimit="10"/>
<path d="M32.0674 42.7313C28.9019 43.0052 25.9079 41.9276 23.3565 43.1534C22.8192 43.5665 22.5573 44.24 22.2502 45.0706C22.1824 45.4568 22.1463 45.816 22.0831 46.1617C22.0199 46.5074 21.925 46.8397 21.916 47.0777C22.3224 46.9744 22.8959 46.8621 23.4694 46.7993C25.1899 46.6152 26.915 46.9115 28.6716 47.0417C31.3314 47.2438 34.0047 47.1764 36.66 47.0148C40.7919 46.7589 44.8967 45.5915 45.4115 40.7512C43.2484 41.6986 41.0447 42.2239 38.8185 42.4933C36.5922 42.7672 34.3389 42.7897 32.0674 42.7313Z" stroke="currentColor" stroke-miterlimit="10"/>
<path d="M66.7472 38.8609C64.548 37.5902 61.4909 37.9809 59.0433 37.7968C56.1623 37.5768 53.1232 37.258 50.3234 38.156C49.3435 38.4703 48.6074 38.9956 48.201 39.7724C47.632 40.5626 46.8372 42.3407 48.5848 42.7987C51.3936 43.2701 64.9048 41.7166 67.7994 41.9905C72.5183 42.0578 77.0883 43.8044 81.6266 43.9301C81.6943 43.8942 81.7666 43.8538 81.8343 43.8179C81.1479 43.0501 67.4336 39.2605 66.7427 38.8609H66.7472Z" stroke="currentColor" stroke-miterlimit="10"/>
<path d="M59.2871 34.7705C62.3759 34.0341 65.5008 34.6583 67.84 33.0688C68.3096 32.5794 68.4677 31.8744 68.6483 31.0124C68.6573 30.6217 68.6393 30.2625 68.6483 29.9123C68.6618 29.5621 68.7025 29.2208 68.6754 28.9829C68.287 29.1445 67.7406 29.3421 67.1807 29.4858C65.5053 29.9213 63.7532 29.8854 62.0011 30.0111C59.3413 30.2042 56.7086 30.6621 54.103 31.2144C50.0524 32.0765 46.1689 33.8366 46.3856 38.6993C48.3861 37.4421 50.4814 36.6024 52.6445 36.0053C54.8075 35.4081 57.0338 35.0534 59.2826 34.775L59.2871 34.7705Z" stroke="currentColor" stroke-miterlimit="10"/>
<path d="M76.2584 28.9195C77.3919 31.1869 80.1555 32.5339 82.0928 34.0291C84.3732 35.7892 86.7304 37.7244 89.5663 38.5101C90.5598 38.784 91.4675 38.7481 92.2306 38.326C93.1428 37.9803 94.7911 36.9296 93.5854 35.5916C91.5081 33.6564 79.3743 27.5455 77.1074 25.7315C73.2103 23.0869 70.3608 19.1267 66.6489 16.5315C66.5721 16.5225 66.4908 16.518 66.4141 16.509C66.5586 17.5238 75.9017 28.2055 76.2584 28.9195Z" stroke="currentColor" stroke-miterlimit="10"/>
<path d="M80.2135 36.4268C77.2286 35.3492 74.9707 33.1176 72.1348 33.158C71.471 33.3062 70.9472 33.8091 70.3195 34.4287C70.0982 34.752 69.9086 35.0618 69.7053 35.3447C69.5021 35.632 69.2763 35.8925 69.168 36.108C69.5789 36.1843 70.1479 36.3235 70.6943 36.5076C72.3335 37.0643 73.774 38.0522 75.3094 38.9097C77.635 40.2074 80.0871 41.267 82.5662 42.2324C86.4227 43.7365 90.6404 44.3921 93.1557 40.2208C90.7894 40.1714 88.5722 39.7224 86.4407 39.04C84.3048 38.353 82.2546 37.428 80.218 36.4268H80.2135Z" stroke="currentColor" stroke-miterlimit="10"/>
<path d="M113.306 47.4498C111.848 45.3754 108.913 44.4504 106.772 43.2561C104.252 41.8507 101.633 40.2837 98.7115 39.9245C97.6864 39.7988 96.7968 39.9649 96.1013 40.4992C95.2479 40.9752 93.7757 42.2593 95.1666 43.4043C97.5103 45.0117 110.421 49.2637 112.936 50.7275C117.185 52.7704 120.59 56.2682 124.65 58.2842C124.727 58.2797 124.808 58.2752 124.885 58.2707C124.591 57.2874 113.758 48.1008 113.302 47.4498H113.306Z" stroke="currentColor" stroke-miterlimit="10"/>
<path d="M108.274 40.616C111.39 41.2446 113.955 43.1169 116.75 42.6589C117.382 42.412 117.825 41.8417 118.358 41.1323C118.53 40.7821 118.669 40.4453 118.828 40.1355C118.99 39.8212 119.171 39.5294 119.248 39.3049C118.828 39.2869 118.245 39.2375 117.681 39.1342C115.978 38.8289 114.407 38.0611 112.758 37.4415C110.266 36.5031 107.683 35.8116 105.086 35.2234C101.049 34.3075 96.7816 34.276 94.9121 38.775C97.2558 38.4742 99.5182 38.591 101.731 38.9546C103.944 39.3183 106.111 39.929 108.274 40.6204V40.616Z" stroke="currentColor" stroke-miterlimit="10"/>
<path d="M123.611 40.8092C124.293 43.2518 126.768 45.1152 128.389 46.9561C130.304 49.1292 132.259 51.482 134.91 52.8021C135.84 53.2645 136.739 53.4082 137.578 53.1388C138.549 52.9772 140.378 52.2633 139.443 50.7187C137.764 48.4153 126.953 40.0639 125.065 37.8413C121.724 34.4873 119.673 30.0467 116.508 26.7824C116.431 26.76 116.354 26.7375 116.278 26.7151C116.223 27.7388 123.394 40.037 123.611 40.8047V40.8092Z" stroke="currentColor" stroke-miterlimit="10"/>
<path d="M126.077 48.9407C123.336 47.3018 121.534 44.6751 118.725 44.1633C118.043 44.1812 117.429 44.5719 116.684 45.0613C116.399 45.3352 116.16 45.6001 115.898 45.8425C115.641 46.085 115.37 46.296 115.221 46.4846C115.614 46.6418 116.146 46.8842 116.652 47.1716C118.165 48.0337 119.393 49.2864 120.748 50.4224C122.794 52.1465 125.011 53.6642 127.278 55.092C130.796 57.3145 134.837 58.7783 138.125 55.1728C135.799 54.6654 133.695 53.7989 131.717 52.7078C129.739 51.6212 127.892 50.3146 126.072 48.9362L126.077 48.9407Z" stroke="currentColor" stroke-miterlimit="10"/>
<path d="M156.639 66.1823C155.6 63.8655 152.877 62.3838 150.994 60.7988C148.777 58.931 146.492 56.888 143.674 55.9675C142.685 55.6443 141.773 55.6398 140.987 56.0259C140.052 56.3267 138.35 57.3011 139.506 58.6975C141.511 60.727 153.446 67.4081 155.645 69.3298C159.452 72.1585 162.139 76.2534 165.76 79.0193C165.837 79.0283 165.918 79.0417 165.995 79.0507C165.891 78.027 156.964 66.9097 156.634 66.1823H156.639Z" stroke="currentColor" stroke-miterlimit="10"/>
<path d="M152.985 58.4954C155.943 59.7167 158.115 62.0515 160.965 62.1458C161.638 62.0291 162.184 61.5531 162.848 60.9604C163.087 60.6506 163.286 60.3498 163.507 60.0714C163.724 59.793 163.963 59.5461 164.081 59.3351C163.67 59.2363 163.105 59.0746 162.563 58.8636C160.938 58.2305 159.533 57.1754 158.029 56.2459C155.749 54.8405 153.329 53.6642 150.877 52.5821C147.065 50.8983 142.857 50.0407 140.143 54.0952C142.518 54.2568 144.726 54.8091 146.844 55.5949C148.962 56.3806 150.985 57.4043 152.985 58.4999V58.4954Z" stroke="currentColor" stroke-miterlimit="10"/>
<path d="M165.86 58.6075C167.35 60.6594 170.299 61.5439 172.453 62.7024C174.991 64.0718 177.633 65.5984 180.563 65.9127C181.588 66.025 182.478 65.8409 183.164 65.2976C184.009 64.8082 185.463 63.5061 184.054 62.3791C181.688 60.8076 168.714 56.7441 166.181 55.3208C161.9 53.3407 158.441 49.8968 154.354 47.9392C154.277 47.9437 154.196 47.9526 154.119 47.9571C154.431 48.936 165.395 57.9609 165.865 58.6075H165.86Z" stroke="currentColor" stroke-miterlimit="10"/>
<path d="M170.994 65.3694C167.869 64.7902 165.277 62.9538 162.487 63.4522C161.859 63.7081 161.421 64.2873 160.902 65.0012C160.734 65.356 160.599 65.6927 160.445 66.007C160.292 66.3213 160.111 66.6177 160.039 66.8466C160.459 66.8556 161.042 66.9005 161.611 66.9948C163.318 67.2777 164.903 68.023 166.555 68.6157C169.062 69.5182 171.654 70.1693 174.259 70.7215C178.31 71.5791 182.577 71.5477 184.379 67.0218C182.04 67.3585 179.777 67.2732 177.56 66.9454C175.343 66.6132 173.166 66.034 170.994 65.3739V65.3694Z" stroke="currentColor" stroke-miterlimit="10"/>
<path d="M205.45 70.8832C203.671 69.0737 200.623 68.6337 198.32 67.803C195.606 66.8242 192.765 65.7062 189.821 65.8229C188.791 65.8633 187.938 66.1731 187.342 66.8152C186.579 67.4259 185.337 68.9255 186.899 69.8325C189.478 71.0358 202.912 73.1417 205.631 74.1788C210.16 75.5034 214.093 78.404 218.428 79.733C218.505 79.715 218.582 79.6971 218.658 79.6791C218.207 78.7587 206.014 71.4489 205.454 70.8787L205.45 70.8832Z" stroke="currentColor" stroke-miterlimit="10"/>
<path d="M199.362 64.9563C202.536 65.0686 205.377 66.5054 208.059 65.5984C208.641 65.2527 208.989 64.6151 209.396 63.8338C209.509 63.4612 209.59 63.1065 209.698 62.7742C209.807 62.4374 209.938 62.1231 209.974 61.8852C209.558 61.9346 208.976 61.9795 208.398 61.9705C206.668 61.9435 204.988 61.4407 203.263 61.0949C200.649 60.5741 197.989 60.3092 195.329 60.152C191.197 59.9006 186.979 60.5651 185.873 65.3021C188.14 64.6241 190.384 64.3726 192.629 64.3726C194.873 64.3726 197.113 64.6241 199.357 64.9563H199.362Z" stroke="currentColor" stroke-miterlimit="10"/>
<path d="M210.353 60.7806C212.39 62.2983 215.47 62.2713 217.877 62.7428C220.712 63.2995 223.688 63.973 226.578 63.4073C227.59 63.2097 228.385 62.7742 228.877 62.0513C229.536 61.3329 230.534 59.6626 228.854 59.0026C226.122 58.2034 212.521 58.163 209.676 57.5523C204.998 56.9282 200.667 54.6607 196.178 54.0052C196.106 54.0321 196.029 54.0636 195.957 54.0905C196.544 54.9346 209.717 60.3047 210.358 60.7806H210.353Z" stroke="currentColor" stroke-miterlimit="10"/>
<path d="M217.276 65.7197C214.119 66.0878 211.094 65.1045 208.578 66.4066C208.055 66.8377 207.811 67.5157 207.531 68.3553C207.477 68.7414 207.449 69.1006 207.395 69.4509C207.341 69.7966 207.26 70.1333 207.26 70.3713C207.662 70.2591 208.231 70.1244 208.804 70.048C210.52 69.8101 212.254 70.0525 214.011 70.1333C216.675 70.2546 219.344 70.1064 221.995 69.8639C226.118 69.4823 230.182 68.1892 230.548 63.3399C228.412 64.3502 226.23 64.9429 224.013 65.2841C221.796 65.6254 219.543 65.7152 217.276 65.7286V65.7197Z" stroke="currentColor" stroke-miterlimit="10"/>
<path d="M251.822 60.7941C249.582 59.5908 246.539 60.0757 244.091 59.9634C241.206 59.8332 238.158 59.6042 235.385 60.5876C234.414 60.9333 233.696 61.4811 233.312 62.2668C232.766 63.075 232.03 64.8755 233.791 65.2796C236.613 65.6658 250.07 63.7036 252.974 63.8877C257.693 63.8159 262.317 65.4188 266.855 65.4053C266.923 65.3649 266.991 65.329 267.058 65.2886C266.349 64.5433 252.527 61.1713 251.822 60.7941Z" stroke="currentColor" stroke-miterlimit="10"/>
<path d="M244.24 56.9327C247.306 56.102 250.445 56.6319 252.739 54.9705C253.195 54.4677 253.33 53.7582 253.484 52.8872C253.484 52.4965 253.452 52.1373 253.452 51.7871C253.452 51.4369 253.484 51.0912 253.452 50.8577C253.073 51.0283 252.527 51.2438 251.971 51.4055C250.309 51.8904 248.557 51.9084 246.81 52.088C244.159 52.3618 241.54 52.9006 238.952 53.5337C234.933 54.5171 231.104 56.3939 231.465 61.2476C233.425 59.932 235.498 59.025 237.638 58.365C239.779 57.7005 241.996 57.2784 244.236 56.9327H244.24Z" stroke="currentColor" stroke-miterlimit="10"/>
</svg>
