<svg width="143" height="143" viewBox="0 0 143 143" fill="none" xmlns="http://www.w3.org/2000/svg">
<path d="M26.8988 57.3536C26.8857 57.3536 26.87 57.3536 26.8569 57.3536C26.6106 57.3407 26.3904 57.2083 26.262 56.9981C26.1546 56.8657 25.6199 56.3648 25.1718 56.0845C25.0408 56.0014 21.9301 54.0289 21.558 51.4438C21.178 48.4357 24.9753 45.6768 25.1351 45.56C25.7012 45.1525 26.1441 44.8255 26.2096 44.771C26.4821 44.5426 26.7809 44.3401 27.1452 44.3972C27.3338 44.4258 27.5016 44.5244 27.6169 44.6723C27.7453 44.7839 28.2642 45.1317 28.7804 45.4198C28.901 45.4873 31.7182 47.0965 32.2187 49.5673C32.5987 51.8228 30.7774 54.2884 30.6987 54.3922C30.1982 55.0593 30.0279 55.3084 29.9728 55.3915C29.8523 55.7081 29.4906 55.8768 28.8774 56.0689C28.6782 56.139 27.9759 56.6477 27.7951 56.8242C27.6955 56.9565 27.3574 57.3536 26.9014 57.3536H26.8988ZM26.2437 56.9643C26.2437 56.9643 26.2515 56.9773 26.2568 56.9851C26.2515 56.9773 26.2489 56.9721 26.2437 56.9643ZM27.8187 56.7878C27.8187 56.7878 27.8108 56.8008 27.8029 56.8112C27.8108 56.8008 27.816 56.793 27.8187 56.7878ZM26.9801 45.8247C26.7573 45.996 26.241 46.3723 25.9056 46.6137C24.9779 47.2807 22.6246 49.4194 22.8578 51.2751C23.0963 52.9232 25.1168 54.5168 25.8742 54.9918C26.1939 55.1916 26.621 55.529 26.9486 55.8379C27.3312 55.4927 28.0886 54.9581 28.4843 54.8335C28.6546 54.779 28.7857 54.7297 28.8695 54.6959C28.9953 54.5013 29.2233 54.1872 29.6479 53.624C29.6636 53.6032 31.215 51.4957 30.932 49.8061C30.5546 47.94 28.1593 46.567 28.1358 46.554C27.9235 46.4346 27.3836 46.1232 26.9853 45.8273L26.9801 45.8247ZM26.5477 45.4224C26.5686 45.4536 26.5896 45.4821 26.6132 45.5081C26.587 45.4795 26.566 45.451 26.5477 45.4224Z" fill="currentColor"/>
<path d="M66.2062 116.132C66.0594 116.132 65.9126 116.127 65.7659 116.117C65.5484 116.101 65.3309 116.073 65.1186 116.039C63.9865 115.904 63.0378 115.432 62.1651 114.959C62.021 114.881 61.8795 114.804 61.738 114.726L61.662 114.684C61.1116 114.425 60.653 114.095 60.2494 113.807C60.1866 113.763 60.1237 113.719 60.0634 113.675L60.0319 113.667L59.9428 113.61C59.7594 113.493 59.5969 113.389 59.4606 113.29L59.424 113.27V113.264C59.0833 113.002 58.9444 112.758 59.1724 112.372L59.4921 111.832L60.2599 112.247C60.3831 112.32 60.501 112.395 60.6163 112.475L62.0393 112.847C62.2464 112.943 62.4665 113.033 62.6526 113.101L62.8517 112.932C63.2946 112.559 64.2957 112.982 64.3376 113C64.5394 113.085 64.6941 113.153 64.7727 113.184C64.8015 113.194 64.8225 113.202 64.8382 113.21L65.4278 113.48L65.3125 113.755C65.4383 113.784 65.5746 113.812 65.7109 113.841C66.4211 113.981 67.2361 113.976 67.2413 113.976H67.2544C67.2728 113.791 67.3854 113.42 67.9751 113.371L68.1114 113.355C68.4599 113.314 68.5805 113.296 68.6067 113.29C69.309 113.124 69.592 113.397 69.7073 113.656C69.765 113.786 69.8095 113.991 69.6968 114.22C70.8421 114.393 72.0292 114.565 72.0449 114.567C72.2965 114.604 72.9674 114.7 72.9202 115.336C72.8731 115.972 72.1969 115.972 71.9427 115.972C71.8746 115.972 70.1712 115.972 68.9238 115.92L68.7167 115.912C68.57 115.904 68.1061 115.94 67.6763 116.016C67.6423 116.021 66.9452 116.143 66.2009 116.143L66.2062 116.132ZM68.4704 114.028C68.5045 114.03 68.5359 114.035 68.5674 114.041C68.5674 114.03 68.5674 114.022 68.5674 114.012C68.5647 113.908 68.5359 113.815 68.494 113.734C68.4651 113.817 68.452 113.919 68.4704 114.028Z" fill="currentColor"/>
<path d="M90.5459 108.587C88.4677 108.587 86.4157 107.1 86.3214 107.03C85.6479 106.537 85.3989 106.366 85.3124 106.311C84.9927 106.192 84.8224 105.834 84.6285 105.226C84.5577 105.029 84.0441 104.334 83.8659 104.154C83.727 104.053 83.305 103.7 83.3312 103.228C83.3443 102.984 83.478 102.766 83.6903 102.639C83.8239 102.532 84.3297 102.003 84.6127 101.559C84.6966 101.429 86.6883 98.3485 89.2984 97.9799C92.3358 97.601 95.1215 101.364 95.2394 101.523C95.6509 102.083 95.9811 102.522 96.0361 102.587C96.2667 102.857 96.4685 103.153 96.4135 103.513C96.3846 103.698 96.2851 103.864 96.1357 103.978C96.0204 104.105 95.6718 104.619 95.3809 105.13C95.3128 105.25 93.688 108.04 91.1932 108.536C90.9783 108.572 90.7634 108.587 90.5459 108.587ZM86.02 105.219C86.2166 105.343 86.5337 105.572 87.1023 105.989C87.1233 106.005 89.2513 107.542 90.9573 107.261C92.5244 106.95 93.861 105.156 94.241 104.492C94.3615 104.282 94.676 103.747 94.9747 103.35C94.8149 103.147 94.469 102.68 94.1781 102.286C93.5046 101.367 91.3478 99.0363 89.4714 99.2673C87.4719 99.5502 85.737 102.229 85.7186 102.255C85.5169 102.569 85.1762 102.994 84.8643 103.316C85.2155 103.695 85.7553 104.448 85.8785 104.837C85.9335 105.006 85.9833 105.136 86.0174 105.216L86.02 105.219ZM83.879 104.167C83.879 104.167 83.8973 104.18 83.9025 104.183C83.8973 104.18 83.8894 104.173 83.879 104.167ZM84.3533 103.763C84.3533 103.763 84.3454 103.768 84.3402 103.77C84.3454 103.77 84.3481 103.765 84.3533 103.763ZM95.3783 102.924C95.3443 102.945 95.3154 102.968 95.2892 102.992C95.3207 102.963 95.3495 102.942 95.3783 102.924ZM83.7243 102.623C83.7243 102.623 83.7112 102.631 83.7034 102.636C83.7112 102.631 83.7165 102.628 83.7243 102.623Z" fill="currentColor"/>
<path d="M79.3175 80.305C78.8065 80.305 78.4606 80.2687 78.4186 80.2635C77.5853 80.1675 77.2839 80.1467 77.1817 80.1389C76.8436 80.1934 76.516 79.9676 76.0417 79.5394C75.8818 79.4018 75.0852 79.054 74.8415 78.9892C74.6711 78.9684 74.126 78.8724 73.9111 78.4519C73.7984 78.2339 73.8037 77.9795 73.9242 77.7641C73.9845 77.6058 74.1548 76.8972 74.1784 76.373C74.1837 76.2172 74.354 72.5654 76.4296 70.9511C78.8694 69.1213 83.1803 70.9978 83.3638 71.0783C84.0032 71.3612 84.509 71.5766 84.5928 71.6051C84.9257 71.7245 85.2532 71.8803 85.3869 72.2203C85.455 72.3967 85.4524 72.5888 85.3817 72.7601C85.3476 72.9262 85.303 73.5439 85.3083 74.1305C85.3083 74.2655 85.3109 77.489 83.4005 79.1527C82.1923 80.1363 80.3972 80.3024 79.3227 80.3024L79.3175 80.305ZM77.2393 78.8438C77.4726 78.8542 77.8604 78.8931 78.5654 78.9736C78.5916 78.9762 81.2122 79.2539 82.5461 78.1664C83.9875 76.9102 83.9927 74.1694 83.9927 74.1409C83.9927 73.8995 83.9927 73.2818 84.053 72.7912C83.8119 72.6952 83.2773 72.4616 82.8265 72.2644C81.7809 71.8024 78.7331 70.8525 77.2262 71.9815C75.6381 73.2169 75.4861 76.3963 75.4835 76.4275C75.4678 76.8012 75.3865 77.3359 75.2817 77.7693C75.777 77.925 76.6235 78.3066 76.9275 78.5843C77.0585 78.7037 77.1686 78.7919 77.2393 78.8438ZM74.8546 78.9918C74.8546 78.9918 74.8755 78.9918 74.8834 78.9944C74.8781 78.9944 74.8677 78.9943 74.8546 78.9918ZM75.0616 78.4026C75.0616 78.4026 75.0563 78.413 75.0511 78.4182C75.0537 78.413 75.0563 78.4078 75.0616 78.4026ZM73.94 77.733C73.94 77.733 73.9321 77.7459 73.9268 77.7537C73.9321 77.7459 73.9347 77.7408 73.94 77.733ZM84.1866 72.2229C84.1683 72.254 84.1552 72.2877 84.1447 72.3215C84.1578 72.2851 84.1709 72.2514 84.1866 72.2229Z" fill="currentColor"/>
<path d="M53.7211 61.7917C53.5612 61.7917 53.3882 61.7579 53.2362 61.6593C53.0292 61.5243 52.906 61.3011 52.9008 61.0572C52.8746 60.891 52.6649 60.1929 52.416 59.7257C52.3426 59.5881 50.6471 56.3412 51.6298 53.9171C52.8196 51.1244 57.5 50.6131 57.6992 50.5923C58.3937 50.5223 58.9414 50.4574 59.0279 50.4418C59.3764 50.3795 59.7381 50.3536 60.0263 50.582C60.1731 50.6988 60.27 50.8675 60.2936 51.0543C60.3487 51.2152 60.6212 51.7707 60.9226 52.2768C60.9933 52.3936 62.6208 55.1837 61.8057 57.5715C60.996 59.7127 58.1735 60.9455 58.053 60.9949C57.2851 61.3245 57.01 61.4543 56.9182 61.501C56.6536 61.7164 56.2552 61.6827 55.6289 61.5451C55.4219 61.5062 54.5544 61.5996 54.3107 61.6645C54.2137 61.706 53.9779 61.7917 53.7184 61.7917H53.7211ZM54.3553 61.6437C54.3553 61.6437 54.3422 61.6515 54.3291 61.6541C54.3395 61.6489 54.3474 61.6463 54.3553 61.6437ZM52.9008 61.0182C52.9008 61.0182 52.9008 61.0338 52.9008 61.0416C52.9008 61.0338 52.9008 61.026 52.9008 61.0182ZM59.1615 51.7343C58.8837 51.7733 58.2443 51.8433 57.8328 51.8849C56.6929 52.0043 53.5743 52.6895 52.8405 54.4102C52.2142 55.9545 53.1602 58.3371 53.5769 59.1236C53.7525 59.4532 53.9517 59.9593 54.0801 60.3875C54.5859 60.2759 55.5136 60.1903 55.9172 60.2785C56.0927 60.3175 56.2316 60.3382 56.3181 60.3486C56.5251 60.2422 56.8816 60.0839 57.5341 59.8036C57.5577 59.7932 59.966 58.7368 60.574 57.1329C61.1899 55.3316 59.8088 52.9542 59.7957 52.9308C59.6725 52.7232 59.3607 52.1859 59.1641 51.7317L59.1615 51.7343ZM58.9912 51.1711C58.9912 51.2075 58.9964 51.2438 59.0043 51.2775C58.9964 51.2386 58.9912 51.2023 58.9912 51.1711Z" fill="currentColor"/>
<path d="M91.55 122.151C85.1477 122.151 79.6627 117.752 78.3079 111.614C77.7837 111.744 74.8067 113.197 73.7375 113.882C72.4193 114.728 69.0675 114.142 68.2237 112.914C67.7257 112.193 67.2462 111.736 67.0575 111.614H66.895H38.6367C36.3882 111.614 34.1082 110.846 34.1082 109.377C34.1082 108.476 33.9536 107.713 33.8697 107.555C33.7492 107.35 33.4347 107.038 33.225 106.919C33.0835 106.838 32.4126 106.685 31.6789 106.685C30.3188 106.685 29.7108 104.432 29.7108 102.2V70.3022C29.7108 70.2217 29.7186 70.0245 29.7291 69.7779C29.7475 69.3081 29.7789 68.5191 29.7606 68.2336C29.7344 67.7665 29.7108 67.0423 29.7108 66.6193V62.9078C23.5103 61.5634 19.0684 56.1311 19.0684 49.7904C19.0684 47.644 19.5925 45.5106 20.5831 43.6159L20.929 42.9644C21.3536 42.3441 22.6377 40.831 23.796 39.5826L25.3002 37.758C25.6121 37.3531 25.8427 35.3806 25.4653 33.2445C25.4365 33.0732 24.7604 29.0399 27.1478 25.7333C27.6536 25.0274 28.2799 24.337 29.0661 23.522C33.0416 19.5458 39.0612 23.0496 39.3154 23.2028C39.7714 23.4727 40.1226 23.6907 40.3584 23.8464C40.6519 24.0385 41.1944 24.3993 40.8825 24.9521C40.5707 25.5049 39.9758 25.2376 39.6561 25.0922C39.4176 24.9858 39.0848 24.8223 38.6681 24.6121L35.408 24.3318C33.5186 24.8405 31.0604 26.5691 29.9938 28.1575C29.9414 28.2379 28.6835 30.1923 29.4802 33.0161L29.4906 33.0551C29.6426 33.7584 29.868 34.4177 30.1641 35.0146C32.0117 38.7001 38.1178 39.6449 38.178 39.6527C40.2221 39.9537 42.7642 40.8855 43.1704 41.3631C43.4219 41.6589 43.9592 42.4116 44.3339 42.9696L44.3706 43.0319L44.6772 43.6185C45.6678 45.5106 46.192 47.6466 46.192 49.7904C46.192 56.1311 41.75 61.5634 35.5522 62.9052V62.9597C35.6439 63.2841 36.5113 64.6156 37.9841 66.2222C38.1099 66.3571 39.166 67.6341 37.8872 70.4216C37.5727 71.0471 37.1377 71.5065 36.7184 71.9529C36.1287 72.5784 35.6177 73.1183 35.56 73.954L35.5548 74.7144V96.2929C35.5548 96.8302 35.6151 97.1339 35.6675 97.2948C35.7933 97.1806 35.9977 96.9496 36.2702 96.485L49.3603 74.0344L50.1648 72.7575C51.0401 71.2002 51.8918 69.6897 52.0674 69.386L53.0502 67.7016C48.3618 63.4684 47.2559 56.5645 50.4557 51.0726C51.5381 49.2143 53.0711 47.6259 54.8846 46.4761L55.5136 46.0842C56.1871 45.7597 58.3727 44.9188 60.3958 44.2051C60.4718 44.1687 60.8466 43.9845 62.4845 43.128L62.8304 42.9281C63.1134 42.7646 63.3938 42.6037 63.6742 42.435C63.9363 42.2844 63.9625 41.9704 63.9625 41.2904C63.9625 36.5096 68.0035 33.4859 68.1765 33.3587C69.9795 32.035 73.271 30.8697 75.5143 30.7633C75.7213 30.7555 76.8298 30.8048 78.5464 32.7462L78.5647 32.767L79.6182 34.0725V34.3009C79.6182 35.2041 79.3404 35.731 78.7901 35.8659C78.1297 36.0294 77.4719 35.5103 76.7355 34.236L74.7726 34.0413C72.0524 33.6546 69.4973 35.1288 68.4123 37.7061C66.7771 41.755 70.8653 46.0011 70.9072 46.0426C71.7301 46.881 72.8124 47.8828 73.6012 48.6147C74.5368 49.4816 74.7648 49.6996 74.867 49.8424C75.0426 50.0941 75.095 50.4601 75.2706 52.6428C75.3282 53.3462 75.3806 54.008 75.4304 54.3948C75.5719 55.4641 75.7292 56.9331 75.7816 57.6676V57.7039L75.7528 58.4021C75.6558 60.533 75.0295 62.6405 73.9471 64.4988C72.131 67.6159 69.1959 69.8402 65.6843 70.7616L65.2885 70.8654C64.809 70.9588 62.626 71.1327 60.7889 71.2469L60.6867 71.2521L59.0436 70.8446C59.3659 71.3663 59.8193 72.0541 60.4115 72.8743C60.464 72.947 61.6511 74.6677 58.8156 77.0607C57.9429 77.7978 56.8553 78.0314 55.8045 78.2572C54.9554 78.4389 54.1535 78.6128 53.6136 79.0385L53.3227 79.2669C53.0659 79.4511 52.7645 79.7652 52.6754 79.9157L52.5418 80.1415L41.2547 99.5035C40.9821 99.9681 40.8825 100.261 40.8459 100.425C41.011 100.389 41.3071 100.29 41.7762 100.02L63.8315 87.4087L64.0542 87.2894C64.2455 87.1803 64.5757 86.9727 64.7644 86.8403L64.809 86.8118L65.2047 86.5756C65.2519 86.5497 65.4117 86.4458 65.5296 86.368C65.9411 86.098 66.2032 85.9267 66.4128 85.8593C66.5753 85.8048 67.0208 85.5919 67.3772 85.3869L67.6943 85.2026L70.8391 83.404C68.9155 77.4163 71.4418 70.8888 76.9871 67.7197C78.8635 66.6478 80.9914 66.0275 83.143 65.9315L83.8479 65.8977H83.8846C84.6341 65.9497 85.7505 66.0924 86.3873 66.2222L87.5509 66.3831C88.206 66.4454 90.3785 66.5752 92.3728 66.666H95.0931C95.5517 66.6868 96.9406 66.204 98.1723 65.3709L99.3752 64.5689C99.9937 64.1562 100.644 63.7487 101.414 63.2919C101.943 62.9675 102.52 62.6898 103.123 62.4692L103.765 62.2408C103.828 62.2278 103.938 62.2018 104.084 62.1681C106.509 61.6049 109.91 60.9015 111.456 61.2831C111.946 61.405 112.478 61.6127 113.023 61.8878C114.114 62.1162 115.212 62.5574 116.239 63.3075C120.183 66.2351 119.006 71.5143 118.954 71.7375C118.579 73.3467 118.453 73.8891 117.751 73.7541C117.067 73.6244 117.133 73.0975 117.374 71.5584L116.171 66.0638C115.317 64.9634 113.912 63.8344 112.607 63.1362C109.292 62.5133 105.998 64.0628 105.956 64.0809C104.016 65.0179 102.263 66.0068 101.818 66.3545L100.589 67.8651C99.9858 69.3575 99.3647 71.0653 99.2048 71.6726L99.121 72.2202C98.7751 74.4627 98.7357 75.436 98.7357 75.4438C98.6807 77.0477 98.4475 79.7003 98.0255 80.4244L97.1214 82.0725C96.6052 83.5623 95.9238 85.2987 95.5936 85.9657L95.5569 86.0306L95.1953 86.5886C94.0369 88.3846 92.4305 89.9004 90.5541 90.9723C85.0088 94.1413 78.0406 93.0486 73.7663 88.4028C73.5802 88.5092 73.3234 88.6598 73.022 88.8544C72.1808 89.4591 72.1939 90.2793 72.283 91.564C72.359 92.6567 72.4481 93.8973 71.5545 94.8914C70.0214 96.5992 67.8096 95.4261 66.3473 94.65C65.9358 94.432 65.548 94.227 65.2335 94.105C65.0081 94.0193 64.809 93.9648 64.6255 93.9441C64.4368 93.9233 64.2586 93.9337 64.0857 93.983L63.9022 94.0401C63.6166 94.2088 63.2156 94.4398 62.9771 94.5748L62.7465 94.7045L44.5698 105.097C44.1007 105.367 43.8648 105.569 43.7521 105.694C43.9146 105.746 44.2186 105.805 44.7611 105.805H69.7489C69.8091 105.805 70.066 105.813 70.4407 105.826C71.7012 105.868 74.3219 105.956 75.4173 105.912C76.4996 105.868 77.6265 105.831 78.3157 105.813C79.668 99.6696 85.1556 95.2651 91.5604 95.2651C94.4641 95.2651 97.2341 96.1606 99.5717 97.858L100.161 98.2914C100.691 98.769 102.407 100.212 104.008 101.523L106.249 102.634C106.64 102.82 108.642 102.937 110.875 102.688C111.155 102.657 117.796 101.977 121.394 106.965C123.27 109.519 123.461 112.888 121.902 115.977L121.889 116.003C120.663 118.188 119.536 118.5 119.323 118.538C118.81 118.634 117.243 118.93 116.826 117.993C116.409 117.056 117.683 116.109 118.102 115.798C118.147 115.764 119.329 114.822 119.525 112.475C119.748 109.844 117.772 107.892 116.014 107.022C113.595 105.823 112.049 106.278 111.986 106.298C109.981 106.96 104.939 111.339 104.622 112.984C104.247 114.923 103.217 117.306 102.038 117.929L100.706 118.72C100.051 119.218 98.9926 119.901 98.3269 120.254L97.124 120.854C96.4322 121.181 95.2686 121.617 94.5218 121.832L94.4458 121.85L93.7644 121.959C93.0411 122.076 92.3021 122.136 91.5657 122.136L91.55 122.151ZM78.4913 110.316H79.3928L79.4898 110.851C80.5276 116.646 85.5985 120.854 91.55 120.854C92.2156 120.854 92.8865 120.799 93.539 120.695L94.1811 120.591C94.8624 120.392 95.929 119.989 96.5344 119.704L97.7111 119.12C98.3086 118.803 99.328 118.144 99.9229 117.687L99.9884 117.643L101.406 116.802C101.933 116.535 102.916 114.866 103.324 112.758C103.791 110.35 109.528 105.756 111.566 105.084C111.65 105.055 113.647 104.424 116.59 105.88C119.386 107.266 121.048 109.903 120.82 112.603C120.571 115.564 118.946 116.805 118.878 116.854C118.582 117.072 118.391 117.249 118.265 117.378C118.443 117.373 118.695 117.35 119.046 117.285C119.124 117.256 119.848 116.963 120.728 115.401C122.057 112.758 121.905 109.898 120.322 107.741C117.175 103.378 111.071 103.988 111.011 103.994C109.056 104.212 106.514 104.222 105.659 103.812L103.28 102.634L103.222 102.587C101.616 101.274 99.8731 99.8098 99.2939 99.2907L98.7882 98.9221C96.6785 97.3908 94.1758 96.581 91.5526 96.581C85.6011 96.581 80.5302 100.788 79.4924 106.584L79.3981 107.119H78.8503C78.4258 107.121 76.9058 107.168 75.4619 107.228C74.3193 107.274 71.6646 107.183 70.3883 107.142C70.0371 107.131 69.7987 107.121 69.741 107.121H44.7532C43.359 107.121 42.5571 106.771 42.3711 106.078C42.185 105.385 42.7013 104.684 43.9068 103.994L62.322 93.4665C62.5736 93.3238 63.0086 93.0746 63.289 92.9059L63.3571 92.867L63.7083 92.7579C64.0621 92.6593 64.4133 92.636 64.7697 92.6749C65.0658 92.7086 65.3672 92.7891 65.6974 92.9137C66.0852 93.0616 66.5098 93.2874 66.9579 93.5236C68.5748 94.3827 69.7803 94.9199 70.5665 94.0479C71.0933 93.4613 71.0356 92.6308 70.9675 91.6731C70.881 90.4246 70.7709 88.87 72.2621 87.811L72.2883 87.7929C72.6735 87.5463 72.9801 87.3698 73.2369 87.2219L74.0415 86.7625L74.3953 87.1777C78.2188 91.6834 84.7363 92.8151 89.8885 89.8692C91.6076 88.8856 93.0201 87.5541 94.0815 85.9086L94.4222 85.3817C94.7366 84.7328 95.4023 83.0302 95.8871 81.6209L95.9317 81.5197L96.8699 79.8093C97.0454 79.4823 97.3389 77.6187 97.4149 75.4178C97.4149 75.3763 97.4542 74.377 97.8133 72.0411L97.9155 71.3975C98.0832 70.7382 98.7357 68.9422 99.3988 67.3071L99.4355 67.2162L100.911 65.4202C101.364 65.0309 102.84 64.2055 104.307 63.458C104.213 63.4788 104.134 63.497 104.079 63.5099L103.568 63.6968C103.049 63.8863 102.549 64.1277 102.088 64.4106C101.328 64.8596 100.699 65.2541 100.101 65.6538L98.9035 66.4532C97.7766 67.2188 96.047 68.013 95.0459 67.9741H92.3204C90.3025 67.8781 88.0907 67.7483 87.391 67.6782L86.1357 67.5043C85.5723 67.3875 84.5267 67.2526 83.8296 67.2032L83.2006 67.2318C81.2299 67.32 79.3588 67.8651 77.6396 68.8462C72.4874 71.792 70.218 77.9484 72.2463 83.4818L72.4324 83.9931L68.0376 86.5081C67.6812 86.7158 67.1335 86.9909 66.8269 87.0921C66.743 87.1284 66.4259 87.3387 66.2556 87.4503C66.0616 87.5774 65.9332 87.6605 65.8363 87.715L65.5034 87.9123C65.2781 88.0706 64.9269 88.2912 64.691 88.4262L64.4709 88.5456L42.4313 101.149C41.2259 101.839 40.3532 101.933 39.8395 101.424C39.3285 100.918 39.4202 100.054 40.1173 98.8598L51.5433 79.2643C51.753 78.9087 52.2116 78.4675 52.5391 78.2313L52.7933 78.0314C53.5717 77.4189 54.5623 77.2035 55.5214 76.9984C56.457 76.7986 57.3375 76.6065 57.9612 76.0822C59.4393 74.8364 59.5022 73.9332 59.3292 73.6218C56.8501 70.1802 57.0728 69.7831 57.238 69.495L57.5105 69.0123L58.0346 69.2017C58.3753 69.3237 58.7239 69.4327 59.0724 69.5236L60.8073 69.9544C62.8776 69.8246 64.6544 69.6689 65.0134 69.6066L65.3462 69.5184C68.5198 68.6852 71.1693 66.6764 72.8124 63.8603C73.8056 62.1577 74.3533 60.3046 74.4424 58.3528L74.4713 57.7299C74.4162 57.0032 74.2669 55.6016 74.1306 54.5712C74.0755 54.1534 74.0205 53.4734 73.9629 52.7544C73.9026 52.0044 73.8135 50.9013 73.7453 50.5483C73.575 50.3744 73.1321 49.9669 72.705 49.5698C71.9057 48.8301 70.8102 47.8153 69.9664 46.9536C69.7725 46.7564 65.2414 42.0664 67.199 37.2207C68.5198 34.0828 71.6279 32.2946 74.943 32.7592L76.932 32.9564C76.1065 32.1882 75.6217 32.0792 75.5431 32.0662C73.554 32.17 70.5482 33.2367 68.9574 34.4047C68.9208 34.4306 65.2728 37.1766 65.2728 41.2956C65.2728 42.0249 65.2728 43.0215 64.3399 43.5588C64.0647 43.7223 63.7764 43.8884 63.4908 44.0545L63.1082 44.2751C61.0221 45.3678 60.9095 45.4068 60.8623 45.4249C58.9361 46.1023 56.7898 46.9251 56.1216 47.2417L55.5922 47.5765C53.9307 48.6277 52.5863 50.0266 51.5931 51.7292C48.6187 56.8319 49.7613 63.2867 54.3107 67.0735L54.73 67.4239L53.2048 70.0401C53.0344 70.3333 52.1644 71.875 51.3048 73.4063L51.2891 73.4349L50.364 74.9169L50.1439 75.2958L37.4102 97.1365C36.7131 98.333 36.0055 98.8443 35.3058 98.6574C34.6061 98.4731 34.2523 97.6789 34.2523 96.2981V74.4679L34.2576 73.8943C34.3414 72.5862 35.0988 71.7816 35.7697 71.073C36.1418 70.6785 36.4956 70.3048 36.7131 69.8688C37.6172 67.9014 37.0119 67.089 37.0066 67.0813C36.7393 66.7906 34.2523 64.042 34.2523 63.0012V61.8359L34.7922 61.7399C40.6441 60.7121 44.8921 55.6899 44.8921 49.7956C44.8921 47.8283 44.4309 45.9518 43.5242 44.2206L43.2333 43.6652C42.8323 43.0709 42.3999 42.4765 42.2086 42.2455C41.8469 42.0119 39.8841 41.2229 37.992 40.9452C37.7142 40.9037 31.1495 39.894 28.9953 35.5986C28.6547 34.9108 28.3926 34.1555 28.2196 33.3561C27.2683 29.9457 28.8433 27.5475 28.9115 27.4489C30.1563 25.5984 32.9237 23.6544 35.1198 23.0808C33.4557 22.8005 31.5111 22.9458 30.0121 24.4408C29.2548 25.2298 28.6861 25.8527 28.2222 26.5016C26.1467 29.3747 26.7547 33.0006 26.7626 33.0369C27.1085 35.0042 27.077 37.6152 26.3328 38.5756L24.7761 40.4598C23.6885 41.6278 22.449 43.0838 22.0375 43.673L21.7493 44.2232C20.8425 45.957 20.3813 47.8335 20.3813 49.7982C20.3813 55.6925 24.6294 60.7147 30.4812 61.7424L31.0211 61.8385V66.6271C31.0211 67.0294 31.0421 67.7197 31.0683 68.1688C31.0866 68.488 31.063 69.1394 31.0368 69.835C31.029 70.0608 31.0211 70.2399 31.0211 70.3126V71.2417V102.211C31.0211 104.116 31.5059 105.211 31.7339 105.398C32.4677 105.406 33.4242 105.543 33.8802 105.805C34.2864 106.036 34.7712 106.516 35.0045 106.919C35.2875 107.404 35.4159 108.538 35.4159 109.387C35.4159 109.621 36.5559 110.326 38.634 110.326H67.1649C67.938 110.337 68.9181 111.635 69.3034 112.193C69.7069 112.779 72.2621 113.29 73.0247 112.803C73.7532 112.335 77.506 110.334 78.2555 110.326H78.4939L78.4913 110.316ZM119.067 117.282C119.067 117.282 119.061 117.282 119.048 117.285C119.054 117.285 119.059 117.285 119.067 117.282ZM75.5457 32.0662C75.5614 32.0662 75.5693 32.0662 75.5693 32.0662C75.5614 32.0662 75.5536 32.0662 75.5457 32.0662Z" fill="currentColor"/>
<path d="M59.9719 99.3893C59.6154 99.3893 59.2826 99.3556 58.9786 99.3245C58.9236 99.3193 58.8686 99.3141 58.8161 99.3089L58.7952 99.3141L58.6904 99.3089C58.5279 99.3011 58.3733 99.2959 58.2317 99.2777H58.1898V99.2725C57.7967 99.218 57.5163 99.0779 57.5216 98.6237L57.5268 97.9982L58.3575 97.9774C58.4702 97.9774 58.5829 97.9852 58.693 97.993L59.8565 97.6815C60.0112 97.6686 60.1736 97.6478 60.3152 97.627L60.3623 97.4947C60.5432 96.9886 61.4394 96.8744 61.5416 96.8614C61.7198 96.8406 61.8561 96.825 61.9242 96.8173C61.9504 96.8121 61.9688 96.8095 61.9845 96.8095L62.6292 96.7498L62.658 96.9652C62.7157 96.947 62.7759 96.9263 62.8336 96.9081C63.2634 96.7628 63.7036 96.5318 63.8766 96.4383C63.8242 96.2489 63.8268 95.9426 64.2147 95.6753L64.3011 95.6104C64.5082 95.4573 64.5894 95.395 64.6156 95.3716C65.1293 94.8888 65.5119 95.042 65.6979 95.1769C65.7713 95.2314 65.8866 95.3379 65.9417 95.5118C66.7855 95.1847 67.611 94.8603 67.611 94.8603C68.1482 94.6475 68.5151 94.7305 68.6986 95.1069C68.882 95.4832 68.7222 95.8206 68.2216 96.1061C68.1718 96.1347 66.9663 96.825 66.0596 97.2922L65.9076 97.3701C65.8054 97.422 65.4988 97.6322 65.2367 97.8502C65.2105 97.8736 64.5684 98.4031 63.9028 98.7197C63.7377 98.7976 63.57 98.8677 63.4049 98.9274C62.5296 99.2959 61.6543 99.3478 60.8314 99.366C60.7082 99.3686 60.5851 99.3712 60.4619 99.3738H60.3623C60.2313 99.3841 60.1003 99.3893 59.9745 99.3893H59.9719ZM64.668 95.6493C64.6549 95.7324 64.6602 95.8595 64.7204 95.9893C64.7991 95.953 64.8698 95.9218 64.9301 95.8985L65.014 95.8673C64.9904 95.8388 64.9668 95.8128 64.9406 95.7895L64.6654 95.6519L64.668 95.6493Z" fill="currentColor"/>
<path d="M49.6587 87.8215C49.4647 87.8215 49.3075 87.728 49.1712 87.4893L48.8594 86.9442L49.6063 86.4952C49.732 86.4251 49.8578 86.3628 49.9836 86.3031L51.0188 85.2676C51.2075 85.1378 51.3962 84.9924 51.5455 84.8679L51.4984 84.6135C51.3909 84.0451 52.2636 83.3988 52.3003 83.3703C52.4759 83.2405 52.6147 83.1393 52.6803 83.09C52.7039 83.0718 52.7222 83.0562 52.7353 83.0459L53.2647 82.6747L53.4481 82.9109C53.5372 82.8175 53.6289 82.7162 53.7207 82.6124C54.2002 82.07 54.6012 81.3744 54.6064 81.3666C54.6064 81.364 54.6117 81.3588 54.6117 81.3562C54.4597 81.2472 54.1924 80.9669 54.444 80.4348L54.4964 80.3103C54.6353 79.9884 54.6798 79.8768 54.6877 79.8509C54.8921 79.1631 55.2747 79.0567 55.5577 79.0904C55.6992 79.106 55.901 79.1683 56.0452 79.3811C56.7685 78.4857 57.5127 77.5513 57.5232 77.5409C57.6804 77.3437 58.0997 76.8168 58.6317 77.175C59.1637 77.5331 58.8257 78.1119 58.6999 78.3299C58.6632 78.3922 57.8141 79.8483 57.1432 80.8942L57.0305 81.0681C56.9493 81.1927 56.7501 81.6054 56.6007 82.0129C56.585 82.0518 56.2417 82.9862 55.7412 83.7103C55.618 83.8894 55.4843 84.0633 55.3481 84.2242C54.6641 85.1274 53.7783 85.7036 52.9292 86.2175C52.7956 86.2979 52.6619 86.3784 52.5256 86.4589L52.4365 86.5134C51.9334 86.8534 51.4171 87.0844 50.9611 87.2868C50.8904 87.318 50.8196 87.3491 50.7515 87.3802L50.7305 87.4036L50.6362 87.4529C50.4449 87.5515 50.2719 87.6398 50.1173 87.7047L50.078 87.728V87.7228C49.9181 87.7877 49.7792 87.8267 49.6534 87.8267L49.6587 87.8215ZM55.0205 80.1805C55.0781 80.2454 55.1594 80.3077 55.2668 80.3466C55.2878 80.3181 55.3061 80.2921 55.3271 80.2713C55.3192 80.2661 55.3114 80.261 55.3009 80.2584C55.2092 80.209 55.1148 80.1857 55.0205 80.1831V80.1805Z" fill="currentColor"/>
<path d="M36.6677 82.1192C36.5629 82.1192 36.4476 82.0828 36.3166 82.0075L35.7715 81.6883L36.1908 80.9304C36.2642 80.8085 36.3402 80.6917 36.4214 80.5749L36.7962 79.1655C36.8931 78.9605 36.9848 78.7425 37.053 78.5582L36.8826 78.361C36.5026 77.9223 36.9324 76.9309 36.9508 76.8893C37.0373 76.6921 37.1054 76.5364 37.1368 76.4585C37.1473 76.4299 37.1552 76.4066 37.163 76.391L37.433 75.807L37.7108 75.9212C37.7396 75.7967 37.7684 75.6617 37.7972 75.5267C37.9388 74.8208 37.9335 74.0162 37.9335 74.0084C37.9335 74.0032 37.9335 74.0006 37.9335 73.9954C37.7474 73.9773 37.3727 73.8657 37.3229 73.2791L37.3072 73.1441C37.2652 72.7963 37.2469 72.6769 37.2417 72.6536C37.0713 71.9554 37.3491 71.6751 37.6112 71.5635C37.7422 71.5064 37.9492 71.4623 38.1799 71.5739C38.3554 70.4397 38.5284 69.2639 38.531 69.2484C38.5677 68.9992 38.662 68.3348 39.3067 68.3815C39.9462 68.4282 39.9488 69.0978 39.9488 69.3496C39.9488 69.4197 39.9488 71.1041 39.8964 72.3395L39.8885 72.5446C39.8806 72.6925 39.9173 73.1493 39.9933 73.575C40.0012 73.6165 40.1742 74.5976 40.106 75.4722C40.0903 75.6877 40.0615 75.9031 40.0274 76.1133C39.8911 77.2345 39.4142 78.1741 38.9372 79.0384C38.8586 79.1785 38.78 79.3187 38.7014 79.4588L38.6568 79.5367C38.3947 80.0817 38.0619 80.5359 37.771 80.9356C37.7265 80.9979 37.6819 81.0602 37.6374 81.1199L37.6295 81.1511L37.5719 81.2393C37.4539 81.421 37.3517 81.5819 37.2495 81.7143L37.2286 81.7532H37.2233C37.0477 81.9764 36.88 82.114 36.673 82.114L36.6677 82.1192ZM37.6924 72.7808C37.7763 72.8093 37.8785 72.8223 37.9885 72.8041C37.9938 72.7704 37.9964 72.7366 38.0016 72.7081C37.9938 72.7081 37.9833 72.7081 37.9728 72.7081C37.868 72.7107 37.7737 72.7392 37.6924 72.7808Z" fill="currentColor"/>
</svg>
