<svg width="143" height="143" viewBox="0 0 143 143" fill="none" xmlns="http://www.w3.org/2000/svg">
<path d="M70.9996 26.9428C71.231 33.481 71.256 43.7202 68.817 31.3248C69.0422 33.7585 69.2673 35.9778 69.4549 37.9449C69.6425 39.9121 69.7864 41.627 69.8364 43.033C69.9427 45.8576 69.9365 50.8259 68.7107 47.5284C68.6106 50.4665 67.8539 49.0227 66.7282 46.7466C66.0966 47.2888 64.6019 44.3444 63.1885 42.6232C64.5644 44.4201 66.5781 49.9558 66.822 48.3355C68.1916 52.7993 69.0422 56.4625 68.1791 50.4098C69.3486 57.5217 70.1178 63.8267 68.8233 55.2772C69.9114 64.5454 69.3173 63.316 65.959 54.4575C68.2291 62.3072 69.0734 65.6173 66.3905 58.5557C68.7107 66.0649 67.7351 64.8039 63.176 57.7487C66.9784 64.8796 66.3217 64.7346 60.9121 58.8584C64.6894 64.5139 60.5869 61.311 55.4899 58.0703C60.5556 61.3803 64.6206 64.6337 60.5118 59.2367C65.9902 65.0498 66.5844 65.4849 61.6876 59.1043C67.7789 66.2856 67.4724 66.2288 60.2992 59.7537C66.2654 65.9956 68.0103 68.0131 62.9196 62.8368C67.9415 68.4734 66.9659 68.0825 59.7238 63.8708C66.4781 68.4356 66.0903 68.6184 58.5356 65.6929C64.9396 69.0661 61.0934 68.404 53.6826 67.3637C60.5431 69.5263 55.9152 70.327 50.2742 71.4241C53.7326 72.414 49.1235 73.8074 47.1034 74.917C47.4099 77.2499 44.3767 80.396 43.0822 82.9873C41.7876 85.585 40.5556 88.0628 39.4049 90.3704C34.8083 99.5945 31.5938 106.051 31.5938 106.051C31.5938 106.051 41.231 99.853 50.8746 93.6553C52.0816 92.8798 53.5762 91.7575 54.4705 91.3414C55.9089 90.2569 58.9296 87.0099 57.954 89.1031C60.8433 85.7741 63.8577 81.9029 61.3248 86.7892C65.2648 80.9319 67.0221 78.328 64.1266 85.1373C67.9039 77.7606 69.5612 73.9587 67.2786 80.9319C70.0615 73.2273 70.2742 72.8175 68.6106 80.5221C70.4618 72.5968 70.6557 71.6826 70.393 76.7518C70.6932 72.0294 70.7057 71.9789 70.5744 76.0645C70.6869 72.3509 70.6181 73.5615 70.1491 81.2598C70.6181 73.5615 70.6932 72.3383 70.7245 76.0015C70.7557 71.96 70.787 71.9978 71.1497 76.6131C70.8433 71.6385 70.9746 72.5149 71.994 80.5158C71.1372 72.7103 71.3061 72.9184 73.7639 80.4528C71.6751 73.5678 72.9946 77.2688 76.4343 85.1247C73.8389 77.7921 75.3211 80.0745 79.3111 86.4361C76.7407 81.1526 79.8552 85.4778 82.8821 89.0968C81.8189 86.6883 84.9521 90.1371 86.5156 91.3351C87.3661 91.6251 89.0109 92.8735 90.2679 93.649C100.33 99.8467 110.387 106.044 110.387 106.044C110.387 106.044 107.172 99.5882 102.576 90.3641C101.425 88.0565 100.193 85.5787 98.8983 82.981C97.6038 80.3834 94.9771 77.3507 94.8771 74.9107C93.2323 73.8452 87.4412 72.2879 90.9308 71.2223C84.827 70.1127 81.3561 69.2426 88.4981 67.2565C81.2435 68.2023 76.6657 69.0471 83.0572 65.7623C75.4274 68.6436 75.0146 68.486 81.8939 64.0536C74.5956 68.1455 73.7451 68.4356 79.0922 62.9124C73.8014 67.9059 76.0215 65.5542 82.0941 59.5519C74.7395 65.9451 73.8264 66.6828 80.2054 59.7789C74.9208 65.9451 75.5087 65.4849 81.2123 59.7474C76.872 64.9615 81.4749 61.2921 86.4968 58.0703C81.4562 61.2542 76.8971 64.8165 80.9871 59.388C75.3586 65.1255 74.777 65.2705 79.1422 58.4107C74.1516 65.1696 73.2198 66.1847 76.2341 58.8773C72.9571 65.6236 74.2079 62.0487 76.9283 54.4954C73.176 63.1394 72.363 64.7535 74.5143 55.6744C72.1566 64.0158 73.4387 57.4461 74.827 50.4539C73.6638 56.3868 74.5956 52.9254 75.9402 48.512C75.8714 49.9747 77.7101 44.4264 78.7983 42.6169C77.6788 44.376 76.378 47.3897 75.9715 46.9358C74.9521 49.2371 74.2266 50.6809 74.3079 47.6797C73.0947 51.2105 73.126 46.0468 73.0384 43.2032C72.9946 41.7783 73.0071 40.0508 73.0384 38.0521C73.0759 36.0598 73.126 33.7963 73.1635 31.3184C71.8814 44.0733 71.2123 33.4747 70.9809 26.9365L70.9996 26.9428Z" fill="currentColor"/>
</svg>
