<svg width="143" height="143" viewBox="0 0 143 143" fill="none" xmlns="http://www.w3.org/2000/svg">
<g clip-path="url(#clip0_675_7177)">
<g clip-path="url(#clip1_675_7177)">
<path d="M43.1192 98.619C47.7104 97.947 51.6929 93.9303 55.4328 91.4312C59.8416 88.4856 64.5875 85.511 67.6372 81.0494C68.7048 79.4855 69.1854 77.901 68.9104 76.3363C68.8574 74.558 68.0252 71.1117 64.9911 72.4344C60.4049 74.9326 42.6096 92.4455 38.115 95.3314C31.2158 100.571 22.6734 103.243 15.9711 108.191C15.9138 108.325 15.8522 108.455 15.7948 108.59C17.6397 108.918 41.6753 98.8307 43.1192 98.619Z" fill="currentColor"/>
<path d="M58.45 96.0418C54.8037 100.595 49.5989 103.233 47.9784 108.156C47.842 109.388 48.3968 110.579 49.0961 112.019C49.5184 112.589 49.9456 113.086 50.3165 113.605C50.6874 114.124 51.0063 114.661 51.3144 114.969C51.696 114.305 52.2698 113.397 52.9164 112.554C54.8562 110.032 57.4253 108.105 59.8194 105.942C63.4456 102.658 66.7425 99.0189 69.8936 95.2774C74.7904 89.465 78.4409 82.5457 72.7339 75.8192C71.2378 79.8824 69.1417 83.459 66.6853 86.7624C64.2247 90.0616 61.404 93.0878 58.4543 96.0374L58.45 96.0418Z" fill="currentColor"/>
<path d="M97.2453 45.0858C92.7906 46.4258 89.4379 50.9765 86.099 53.9987C82.1639 57.5574 77.8998 61.1967 75.5375 66.0406C74.7104 67.7406 74.4711 69.3747 74.9755 70.8812C75.2921 72.6268 76.631 75.9002 79.4403 74.1435C83.6177 71.0014 98.6674 51.0913 102.697 47.575C108.759 41.385 116.837 37.4822 122.745 31.6088C122.781 31.4704 122.825 31.3318 122.861 31.1933C120.983 31.1456 98.648 44.6586 97.2454 45.0772L97.2453 45.0858Z" fill="currentColor"/>
<path d="M82.4212 49.8945C85.3638 44.864 90.1305 41.4921 91.01 36.3939C90.9608 35.1596 90.2367 34.0696 89.3291 32.7437C88.8285 32.2431 88.3316 31.8159 87.8867 31.3623C87.4418 30.9087 87.0447 30.4244 86.693 30.1686C86.4145 30.8835 85.9783 31.8588 85.4604 32.7875C83.9112 35.5603 81.6498 37.8388 79.598 40.3356C76.4898 44.1112 73.7544 48.1901 71.1911 52.345C67.195 58.8055 64.5983 66.1686 71.2593 71.9582C72.1395 67.7321 73.6897 63.8886 75.6352 60.2659C77.5849 56.6476 79.9386 53.2414 82.4168 49.8989L82.4212 49.8945Z" fill="currentColor"/>
</g>
</g>
<defs>
<clipPath id="clip0_675_7177">
<rect width="142.1" height="142.1" fill="white"/>
</clipPath>
<clipPath id="clip1_675_7177">
<rect width="135" height="56" fill="white" transform="translate(2.97266 99.001) rotate(-45)"/>
</clipPath>
</defs>
</svg>
