<svg width="143" height="143" viewBox="0 0 143 143" fill="none" xmlns="http://www.w3.org/2000/svg">
<g clip-path="url(#clip0_675_7511)">
<g clip-path="url(#clip1_675_7511)">
<path d="M44.1466 98.6165C48.7377 97.9445 52.7202 93.9277 56.4601 91.4286C60.869 88.483 65.6148 85.5085 68.6645 81.0469C69.7321 79.4829 70.2128 77.8984 69.9377 76.3337C69.8848 74.5554 69.0526 71.1091 66.0184 72.4318C61.4323 74.93 43.637 92.4429 39.1423 95.3289C32.2432 100.568 23.7008 103.24 16.9985 108.188C16.9411 108.323 16.8795 108.453 16.8222 108.587C18.667 108.916 42.7026 98.8282 44.1466 98.6165Z" fill="currentColor"/>
<path d="M59.4773 96.0383C55.831 100.592 50.6263 103.229 49.0058 108.153C48.8694 109.385 49.4242 110.575 50.1235 112.015C50.5457 112.586 50.9729 113.083 51.3438 113.602C51.7147 114.121 52.0337 114.658 52.3417 114.966C52.7234 114.302 53.2972 113.394 53.9438 112.551C55.8836 110.029 58.4526 108.102 60.8468 105.939C64.4729 102.655 67.7699 99.0155 70.921 95.274C75.8178 89.4616 79.4683 82.5422 73.7613 75.8158C72.2652 79.879 70.169 83.4555 67.7127 86.759C65.2521 90.0582 62.4313 93.0844 59.4817 96.034L59.4773 96.0383Z" fill="currentColor"/>
<path d="M98.2726 45.0833C93.8179 46.4232 90.4652 50.9739 87.1264 53.9961C83.1912 57.5548 78.9272 61.1942 76.5648 66.0381C75.7377 67.738 75.4984 69.3721 76.0028 70.8786C76.3194 72.6243 77.6583 75.8977 80.4676 74.1409C84.6451 70.9988 99.6947 51.0888 103.724 47.5724C109.786 41.3825 117.865 37.4797 123.772 31.6063C123.808 31.4678 123.853 31.3292 123.888 31.1908C122.011 31.143 99.6754 44.6561 98.2727 45.0746L98.2726 45.0833Z" fill="currentColor"/>
<path d="M83.4485 49.8919C86.3911 44.8614 91.1579 41.4895 92.0374 36.3913C91.9881 35.157 91.2641 34.067 90.3565 32.7412C89.8559 32.2406 89.359 31.8133 88.9141 31.3597C88.4692 30.9061 88.0721 30.4219 87.7204 30.166C87.4419 30.8809 87.0056 31.8563 86.4877 32.7849C84.9385 35.5577 82.6772 37.8362 80.6254 40.333C77.5171 44.1087 74.7818 48.1875 72.2184 52.3425C68.2224 58.803 65.6256 66.166 72.2866 71.9556C73.1668 67.7296 74.7171 63.886 76.6625 60.2634C78.6123 56.645 80.9659 53.2388 83.4442 49.8963L83.4485 49.8919Z" fill="currentColor"/>
</g>
</g>
<defs>
<clipPath id="clip0_675_7511">
<rect width="142.1" height="142.1" fill="white"/>
</clipPath>
<clipPath id="clip1_675_7511">
<rect width="135" height="56" fill="white" transform="translate(4 98.9985) rotate(-45)"/>
</clipPath>
</defs>
</svg>
