<svg width="279" height="97" viewBox="0 0 279 97" fill="none" xmlns="http://www.w3.org/2000/svg">
<path d="M137.152 50.8481C135.609 49.9308 134.935 49.9308 135.343 51.2039C132.491 49.9229 130.721 49.9229 128.849 51.9472C126.327 49.9229 123.702 49.9229 119.159 50.9983C117.843 49.9229 114.608 49.9229 111.192 49.9229C108.2 49.9229 105.075 49.9229 103.249 51.0141C98.6903 49.9229 95.4473 49.9229 93.0973 56.0353C91.7343 53.9952 90.4653 52.6351 89.1806 51.8207C87.8959 51.0062 86.6034 50.7295 85.3109 50.7769C83.7442 50.9983 82.1854 51.5439 81.4647 51.4253C79.9999 51.1327 79.052 50.5239 78.6134 48.9978C76.6629 49.9229 75.2137 49.9229 74.8377 48.6419C72.2448 50.168 70.31 50.0415 67.9286 48.7684C66.8398 50.595 65.3123 51.2672 62.8604 51.7337C63.1973 51.9393 62.4766 51.4332 61.2781 50.682C61.0979 50.7295 60.4321 50.5239 59.6331 50.3578C58.4581 50.3183 57.1734 50.7137 55.9749 51.3937C55.2934 49.9229 54.3847 49.9229 54.2594 50.2629C54.3847 49.9229 54.3847 48.5391 53.6719 49.1164C54.3847 48.5312 55.0584 48.5312 54.9957 49.9545C56.1316 49.322 57.2596 48.9266 58.2231 49.0926C59.1866 49.2587 60.0013 49.9862 60.3538 51.1802C62.2024 49.9862 63.5889 49.2587 64.6308 48.3731C66.7458 48.9978 68.5161 49.4722 70.4275 48.5945C70.7095 49.4722 71.0777 48.9978 71.6652 47.3609C72.4172 48.721 73.3885 48.9029 74.9082 47.7721C75.0884 48.7289 76.4279 48.9266 78.112 48.207C78.2922 49.1954 79.0364 49.0847 80.2584 48.3335C80.4777 48.9582 81.1671 48.9582 82.1541 48.6736C83.1411 49.1796 84.3161 49.6462 85.4519 50.6109C86.3841 51.71 87.2693 53.2914 88.0448 55.6636C89.7055 53.2993 91.2643 51.71 92.8075 50.7295C95.9017 48.7605 98.9567 49.2113 103.155 50.5634C102.341 48.5391 104.158 48.5391 105.991 48.5629C107.73 48.5391 109.485 48.5391 111.192 48.5391C114.608 48.5391 117.843 48.5391 118.924 49.401C123.702 48.5391 126.327 48.5391 128.904 50.1997C130.721 48.5391 132.491 48.5391 135.586 49.5671C134.935 48.5391 135.601 48.5391 137.379 49.2745C135.609 48.5391 135.609 49.9229 137.152 50.8402V50.8481Z" fill="currentColor"/>
<path d="M136.172 52.7854C134.903 51.6546 135.937 51.0458 138.232 51.1486C138.013 49.8438 139.047 49.235 140.026 49.5829C139.047 49.2429 138.013 48.634 138.585 48.5154C135.945 47.4321 134.903 46.8312 136.948 47.2661C134.903 46.8232 134.903 48.0331 136.634 50.1997C134.903 50.4448 134.903 51.6546 136.172 52.7854Z" fill="currentColor"/>
<path d="M196.152 50.8481C194.609 49.9308 193.935 49.9308 194.343 51.2039C191.491 49.9229 189.721 49.9229 187.849 51.9472C185.327 49.9229 182.702 49.9229 178.159 50.9983C176.843 49.9229 173.608 49.9229 170.192 49.9229C167.2 49.9229 164.075 49.9229 162.249 51.0141C157.69 49.9229 154.447 49.9229 152.097 56.0353C150.734 53.9952 149.465 52.6351 148.181 51.8207C146.896 51.0062 145.603 50.7295 144.311 50.7769C142.744 50.9983 141.185 51.5439 140.465 51.4253C139 51.1327 138.052 50.5239 137.613 48.9978C135.663 49.9229 134.214 49.9229 133.838 48.6419C131.245 50.168 129.31 50.0415 126.929 48.7684C125.84 50.595 124.312 51.2672 121.86 51.7337C122.197 51.9393 121.477 51.4332 120.278 50.682C120.098 50.7295 119.432 50.5239 118.633 50.3578C117.458 50.3183 116.173 50.7137 114.975 51.3937C114.293 49.9229 113.385 49.9229 113.259 50.2629C113.385 49.9229 113.385 48.5391 112.672 49.1164C113.385 48.5312 114.058 48.5312 113.996 49.9545C115.132 49.322 116.26 48.9266 117.223 49.0926C118.187 49.2587 119.001 49.9862 119.354 51.1802C121.202 49.9862 122.589 49.2587 123.631 48.3731C125.746 48.9978 127.516 49.4722 129.427 48.5945C129.709 49.4722 130.078 48.9978 130.665 47.3609C131.417 48.721 132.389 48.9029 133.908 47.7721C134.088 48.7289 135.428 48.9266 137.112 48.207C137.292 49.1954 138.036 49.0847 139.258 48.3335C139.478 48.9582 140.167 48.9582 141.154 48.6736C142.141 49.1796 143.316 49.6462 144.452 50.6109C145.384 51.71 146.269 53.2914 147.045 55.6636C148.705 53.2993 150.264 51.71 151.807 50.7295C154.902 48.7605 157.957 49.2113 162.155 50.5634C161.341 48.5391 163.158 48.5391 164.991 48.5629C166.73 48.5391 168.485 48.5391 170.192 48.5391C173.608 48.5391 176.843 48.5391 177.924 49.401C182.702 48.5391 185.327 48.5391 187.904 50.1997C189.721 48.5391 191.491 48.5391 194.586 49.5671C193.935 48.5391 194.601 48.5391 196.379 49.2745C194.609 48.5391 194.609 49.9229 196.152 50.8402V50.8481Z" fill="currentColor"/>
<path d="M195.172 52.7854C193.903 51.6546 194.937 51.0458 197.232 51.1486C197.013 49.8438 198.047 49.235 199.026 49.5829C198.047 49.2429 197.013 48.634 197.585 48.5154C194.945 47.4321 193.903 46.8312 195.948 47.2661C193.903 46.8232 193.903 48.0331 195.634 50.1997C193.903 50.4448 193.903 51.6546 195.172 52.7854Z" fill="currentColor"/>
<path d="M113.784 46.5461C112.805 46.7359 112.139 46.7359 113.283 46.2061C109.695 46.728 107.925 46.728 111.975 44.3954C103.522 46.7359 100.898 46.7359 97.2087 36.1638C95.7674 43.2093 93.8482 45.5577 90.3389 45.9452C88.5842 46.135 86.43 45.8424 84.3776 45.1861C84.3541 46.0559 83.7666 46.3959 83.7431 46.2694C81.3618 46.728 79.5444 46.728 80.414 45.6842C78.2911 46.0322 76.4659 46.2615 74.7426 46.3485C71.2959 46.5224 68.2722 46.1033 64.1597 44.854C63.58 45.787 62.3893 46.2615 60.8697 46.4829C59.35 46.7043 57.4935 46.6885 55.872 46.4829C54.0703 46.6885 52.5114 46.7122 52.4644 45.36C49.4016 46.728 47.8662 46.728 47.9446 43.7311C43.4639 46.728 40.8397 46.728 37.1345 43.6758C36.4452 46.728 34.6748 46.728 32.0428 45.5182C32.2386 46.728 31.565 46.728 30.6406 46.0717C31.5728 46.728 31.5728 45.3442 30.9775 44.854C31.565 45.3442 32.2386 45.3442 32.4658 44.34C34.6827 45.3442 36.4452 45.3442 37.5418 42.7032C40.8397 45.3442 43.4639 45.3442 47.5294 42.7506C47.8584 45.3363 49.4016 45.3363 52.0336 44.1977C52.5349 45.3205 54.1173 45.2968 55.7701 45.194C57.5405 45.2968 59.3656 45.3205 60.9245 45.0358C62.4833 44.7512 63.7602 44.1502 64.52 42.9562C66.4549 43.7549 68.1547 44.2847 69.7919 44.5851C71.4291 44.8856 72.9957 44.9647 74.6094 45.0438C76.3093 44.7275 78.0639 44.427 80.1946 44.7749C79.8029 44.6563 80.1241 44.9963 80.8135 45.2256C81.4558 45.2019 82.4741 45.0596 83.5943 44.7828C83.892 44.9014 84.6283 44.4586 84.6988 43.7549C85.678 43.8181 86.7433 44.087 87.7382 44.2609C88.733 44.4349 89.6652 44.5061 90.5034 44.4586C93.8717 44.253 95.8536 42.0706 97.4829 35.5312C100.89 45.3442 103.515 45.3442 111.121 42.3236C107.909 45.3442 109.679 45.3442 112.93 44.6721C112.123 45.3442 112.797 45.3442 113.541 45.1307C112.797 45.3442 112.797 46.728 113.769 46.5382L113.784 46.5461Z" fill="currentColor"/>
<path d="M113.785 48.3253C112.109 48.4597 113.143 47.8508 114.396 47.2183C115.211 46.6489 116.245 46.0401 116.245 46.0401C116.245 46.0401 115.211 45.4391 114.208 44.8223C113.135 44.2293 112.101 43.6283 112.876 43.2962C112.101 43.6283 112.101 44.8303 113.448 45.7001C112.101 47.2499 112.101 48.4518 113.777 48.3253H113.785Z" fill="currentColor"/>
<path d="M141.64 47.7818C140.818 48.2404 140.042 48.3748 140.559 48.1772C137.512 48.5172 135.757 48.5172 137.05 47.7185C130.149 48.5172 126.271 48.5172 119.346 47.6236C118.947 48.0744 117.788 48.2958 116.252 48.4065C114.717 48.5172 112.806 48.5172 112.101 47.8213C107.103 48.5251 103.351 48.5251 99.5436 44.437C96.0108 48.5251 92.4231 48.5251 87.7387 47.8055C86.6186 48.1693 85.2242 48.3432 83.7045 48.4381C82.1927 48.5251 80.5555 48.5251 78.9653 48.5251C78.0097 48.5251 77.0697 48.5251 76.1453 48.4618C75.2131 48.4776 74.2966 48.4223 73.4036 48.2562C72.5028 48.4223 71.6255 48.4697 70.756 48.4381C69.9021 48.5251 69.0561 48.5251 68.2179 48.4935C67.4033 48.5251 66.5886 48.5251 65.8053 48.5251C65.0141 48.5251 64.2542 48.5251 63.5101 48.5172C62.0296 48.5014 60.6431 48.4776 59.3819 48.4302C57.3687 48.5014 55.614 48.5172 54.7523 47.6395C54.5252 49.9089 56.742 49.901 59.6169 49.6954C60.7527 49.7982 62.0766 49.8535 63.5336 49.8772C64.2621 49.893 65.0219 49.901 65.7583 49.7823C66.5494 49.7982 67.3249 49.6954 68.0456 49.3474C68.9778 49.6875 69.8629 49.7982 70.7246 49.4265C71.6255 49.6795 72.5106 49.4502 73.4193 48.873C74.3045 49.4502 75.2131 49.6795 76.1923 49.5926C77.0932 49.8219 78.0645 49.7428 79.1063 49.5451C79.8192 49.7507 80.6025 49.8219 81.378 49.8456C82.1535 49.8772 82.929 49.8535 83.6654 49.8061C85.138 49.7191 86.4462 49.5372 87.3941 49.1735C92.4231 49.901 96.0108 49.901 99.5045 45.6784C103.351 49.901 107.103 49.901 112.445 49.1972C112.806 49.901 114.725 49.901 116.244 49.8851C117.764 49.8693 118.9 49.8377 119.237 49.7744C126.279 49.901 130.157 49.901 137.175 49.7903C135.765 49.901 137.528 49.901 140.63 49.8535C140.019 49.8851 140.755 49.8614 141.656 49.7982C144.217 49.8614 146.943 49.8851 147.962 49.6242C148.87 49.387 148.432 48.9363 146.184 48.0665C144.727 48.2483 142.941 48.1139 141.656 47.7818H141.64Z" fill="currentColor"/>
<path d="M146.169 48.0665C146.302 48.0506 146.443 48.0348 146.576 48.0111C146.639 48.0032 146.693 47.9874 146.748 47.9716C146.255 47.8925 145.753 47.8055 145.236 47.7185C145.581 47.8371 145.886 47.9558 146.176 48.0665H146.169Z" fill="currentColor"/>
<path d="M208.506 49.2288C209.994 49.5451 210.746 49.6875 210.739 49.6795C210.731 49.6795 210.19 49.5609 209.156 49.3474C208.921 49.3079 208.671 49.2605 208.404 49.2051C208.436 49.213 208.467 49.2209 208.498 49.2288H208.506Z" fill="currentColor"/>
<path d="M228.074 48.0111C228.074 48.0111 228.098 47.9953 228.113 47.9953C227.816 48.1218 227.8 48.1297 228.074 48.0111Z" fill="currentColor"/>
<path d="M211.453 48.0585C211.539 48.0665 211.609 48.0665 211.656 48.0585C211.421 47.9716 211.178 47.8925 210.92 47.7976C211.108 47.8925 211.28 47.9716 211.453 48.0585Z" fill="currentColor"/>
<path d="M210.277 48.2246C209.94 48.3353 208.577 48.2009 206.399 47.8451C207.496 48.5093 206.611 48.5172 205.444 48.1139C205.906 48.5172 205.506 48.5172 204.934 48.1455C203.987 48.5172 202.866 48.5172 202.631 47.766C200.07 48.5172 198.425 48.5172 197.783 46.7934C194.626 48.5172 192.472 48.5172 189.283 46.5166C187.732 48.5172 185.147 48.5172 181.356 47.9478C179.601 48.5172 176.64 48.5172 173.53 48.5172C170.616 48.5172 167.569 48.5172 170.225 47.4576C161.263 48.5172 158.005 48.5172 149.263 39.2656C150.626 45.3068 149.631 47.4022 146.74 47.9716C158.287 49.901 161.647 49.893 170.444 49.7507C167.577 49.901 170.624 49.901 173.538 49.901C176.648 49.901 179.609 49.901 181.152 49.3791C185.155 49.901 187.748 49.901 189.127 48.0823C192.479 49.901 194.634 49.901 198.033 48.3511C198.433 49.901 200.078 49.901 202.874 49.2209C202.874 49.901 203.994 49.901 205.044 49.553C205.506 49.901 205.906 49.901 205.506 49.553C206.611 49.893 207.504 49.8851 206.368 49.4186C207.864 49.6954 209.196 49.7744 209.603 49.7112C209.94 49.6558 209.634 49.5056 208.506 49.2288C208.264 49.1814 208.005 49.126 207.731 49.0628C207.966 49.1102 208.193 49.1577 208.412 49.2051C208.201 49.1498 207.966 49.0944 207.7 49.0391C208.264 49.1577 208.749 49.2605 209.157 49.3553C210.402 49.5847 211.256 49.6716 211.507 49.6321C211.843 49.5688 211.076 49.2526 208.741 48.6437C214.006 49.7744 214.93 49.7982 211.452 48.0585C210.943 48.0111 209.768 47.6632 208.154 47.0385C209.916 47.7581 210.621 48.1139 210.285 48.2246H210.277Z" fill="currentColor"/>
<path d="M54.5176 47.339C54.5881 47.4497 54.6586 47.5446 54.7526 47.6315C54.7682 47.4813 54.7917 47.3232 54.8309 47.1492C54.7212 47.2125 54.6272 47.2757 54.5176 47.339Z" fill="currentColor"/>
<path d="M226.359 47.6474C223.758 49.1181 223.758 49.1181 226.359 47.6474Z" fill="currentColor"/>
<path d="M46.6133 46.6827C46.6211 46.7934 46.6368 46.9041 46.6524 46.9911C46.6603 46.398 46.7073 45.6468 46.7856 44.7217C46.7151 45.544 46.6603 46.1766 46.6133 46.6827Z" fill="currentColor"/>
<path d="M46.6611 44.0812C46.4026 47.8134 46.3634 49.3712 46.6141 46.6827C46.5593 46.1292 46.5828 45.2673 46.6611 44.0812Z" fill="currentColor"/>
<path d="M49.293 46.8645C49.4183 49.7428 50.9693 49.5056 54.5178 47.3311C54.3142 47.0069 54.1888 46.6036 54.181 46.0738C51.4471 47.8371 49.9196 48.3116 49.293 46.8566V46.8645Z" fill="currentColor"/>
<path d="M49.3564 45.0696C49.2389 45.2989 49.1292 45.5124 49.0195 45.718C49.0744 46.1924 49.1684 46.5641 49.3015 46.8645C49.278 46.3585 49.3015 45.7733 49.3564 45.0696Z" fill="currentColor"/>
<path d="M46.654 46.9911C46.6149 49.5767 47.2572 49.0944 49.0197 45.718C48.9727 45.3226 48.957 44.864 48.957 44.3421C47.5627 47.165 46.8655 48.0664 46.654 46.9911Z" fill="currentColor"/>
<path d="M218.369 47.1334C218.401 47.0701 218.424 46.9911 218.44 46.8962C218.408 46.8171 218.377 46.738 218.338 46.659C218.354 46.825 218.361 46.9831 218.361 47.1334H218.369Z" fill="currentColor"/>
<path d="M222.09 49.047C222.09 49.047 222.654 48.4935 223.845 47.339C222.724 48.4381 222.145 48.9995 222.09 49.047Z" fill="currentColor"/>
<path d="M226.359 47.6474C226.422 47.6078 226.477 47.5762 226.547 47.5367C226.485 47.5762 226.43 47.6078 226.359 47.6395V47.6474Z" fill="currentColor"/>
<path d="M222.85 48.2958C222.85 48.2958 222.826 48.3195 222.811 48.3353C222.302 48.8414 222.059 49.0786 222.098 49.047C222.106 49.039 222.364 48.786 222.858 48.2958H222.85Z" fill="currentColor"/>
<path d="M226.359 47.6474C226.422 47.6157 226.477 47.5841 226.54 47.5446C226.477 47.5841 226.422 47.6078 226.359 47.6474Z" fill="currentColor"/>
<path d="M223.844 47.339C223.844 47.339 223.906 47.3153 223.938 47.3073C224.063 47.165 224.204 47.0069 224.353 46.8487C224.173 47.0227 224.008 47.1887 223.844 47.339Z" fill="currentColor"/>
<path d="M223.837 47.3469C223.837 47.3469 223.821 47.3469 223.813 47.3548C223.421 47.7344 223.108 48.0506 222.85 48.3037C223.116 48.0506 223.445 47.7344 223.837 47.3469Z" fill="currentColor"/>
<path d="M222.004 43.7807C220.578 48.3907 219.544 48.3669 219.426 43.6146C219.544 48.3669 219.544 48.4539 219.426 43.7649C219.426 48.4618 219.309 48.4618 218.463 43.8044C218.557 45.3305 218.565 46.3506 218.439 46.8962C219.63 49.8298 219.983 49.7507 221.306 46.572C220.688 49.5768 220.946 49.7903 223.476 47.4339C222.239 47.6474 221.941 46.5403 222.004 43.7807Z" fill="currentColor"/>
<path d="M215.415 44.2472C217.499 48.3748 216.802 48.3828 211.538 45.2752C214.992 48.4144 214.224 48.4381 209.164 46.4534C211.295 47.4734 211.984 47.9874 211.655 48.0506C215.493 49.4107 216.668 49.6242 215.368 48.359C214.969 48.0744 214.483 47.7185 213.888 47.2915C214.264 47.5367 214.608 47.7581 214.929 47.9558C214.647 47.7106 214.311 47.426 213.911 47.1018C214.499 47.5525 214.984 47.9241 215.376 48.2246C217.859 49.7033 218.47 49.4423 218.368 47.1255C218.039 47.8609 217.185 46.8645 215.415 44.2393V44.2472Z" fill="currentColor"/>
<path d="M215.368 48.359C216.966 49.5056 216.966 49.4581 215.368 48.2246C215.227 48.1376 215.079 48.0506 214.922 47.9557C215.094 48.106 215.235 48.2404 215.361 48.359H215.368Z" fill="currentColor"/>
<path d="M223.555 47.4181C221.824 49.2288 221.565 49.5293 222.803 48.3353C223.069 48.0744 223.398 47.7502 223.805 47.3469C223.719 47.3706 223.633 47.3943 223.555 47.4102V47.4181Z" fill="currentColor"/>
<path d="M224.322 46.8487C224.142 47.0306 223.969 47.1966 223.805 47.3548C223.969 47.1966 224.134 47.0306 224.322 46.8487Z" fill="currentColor"/>
<path d="M223.477 47.4339C223.477 47.4339 223.531 47.4339 223.555 47.4181C223.727 47.2362 223.915 47.0385 224.119 46.825C223.884 47.0464 223.672 47.2441 223.477 47.4339Z" fill="currentColor"/>
<path d="M233.589 46.1687C230.37 45.1645 229.359 44.7296 223.492 41.6694C224.8 43.6067 225.85 44.7691 226.931 45.6231C226.853 45.6784 226.759 45.7417 226.68 45.7891C226.171 45.5361 225.568 45.2198 224.792 44.8165C225.208 45.4333 225.576 45.8999 225.928 46.2715C225.114 46.7776 224.471 47.1255 223.946 47.3074C221.761 49.7744 222.309 49.6558 226.508 47.3232C222.45 49.7586 222.403 49.893 226.367 47.6474C226.43 47.5129 226.586 47.3153 226.829 47.0622C227.127 47.2678 227.432 47.4418 227.769 47.6078C226.688 47.9637 226.218 47.9953 226.367 47.6474C222.442 49.8851 223.531 49.8535 228.184 47.9558C228.161 47.9637 228.145 47.9795 228.122 47.9874C228.192 47.9558 228.271 47.9241 228.365 47.8846C228.247 47.932 228.145 47.9716 228.075 48.0032C224.918 49.6005 224.965 49.8298 228.278 49.0549C228.231 49.1023 228.192 49.1498 228.145 49.1893C226.712 49.6163 226.657 49.6716 227.973 49.3712C227.965 49.3791 227.949 49.3949 227.942 49.4028C227.304 49.5609 227.304 49.5609 227.942 49.4028C227.942 49.4028 227.887 49.4581 227.863 49.4898C227.487 49.6005 227.456 49.6321 227.785 49.5768C226.79 50.6363 226.187 51.3875 225.161 52.5341C225.936 51.8699 227.832 51.0633 229.602 50.4149C227.464 52.6685 226.281 54.1472 224.197 56.4957C225.897 55.0486 230.378 53.2299 234.114 51.9331C234.992 50.5414 253.126 49.1972 253.126 49.1972C253.126 49.1972 234.992 47.853 233.589 46.1608V46.1687ZM226.947 45.9236C226.947 45.9236 226.931 45.9157 226.923 45.9078C226.986 45.8603 227.049 45.8129 227.119 45.7575C227.119 45.7575 227.135 45.7654 227.143 45.7733C227.08 45.8208 227.009 45.8682 226.955 45.9157L226.947 45.9236ZM227.15 45.7891C227.221 45.8445 227.299 45.8998 227.37 45.9552C227.315 45.9947 227.268 46.0264 227.221 46.058C227.135 46.0185 227.049 45.9789 226.962 45.9315C227.025 45.884 227.088 45.8366 227.15 45.7891ZM227.385 45.9631C227.472 46.0264 227.558 46.0817 227.644 46.1371C227.605 46.1608 227.573 46.1845 227.534 46.2082C227.44 46.1608 227.338 46.1133 227.237 46.0659C227.284 46.0343 227.331 45.9947 227.385 45.9631ZM227.746 46.2082C227.934 46.3268 228.122 46.4455 228.318 46.5641C228.114 46.4771 227.902 46.3901 227.667 46.2794C227.691 46.2557 227.714 46.2399 227.738 46.2161L227.746 46.2082ZM228.701 48.0506C228.31 48.1851 228.286 48.1772 228.647 48.0269C228.662 48.0348 228.686 48.0427 228.701 48.0506ZM228.725 48.0665C228.5 48.1508 228.5 48.1508 228.725 48.0665ZM228.842 48.1218C228.842 48.1218 228.921 48.1534 228.96 48.1772C228.78 48.2088 228.741 48.193 228.842 48.1218ZM226.97 45.6705C227.017 45.7101 227.064 45.7417 227.111 45.7733C227.048 45.8208 226.978 45.8761 226.915 45.9236C226.86 45.8998 226.806 45.8682 226.751 45.8445C226.821 45.7891 226.892 45.7259 226.962 45.6705H226.97ZM226.046 46.4138C226.046 46.4138 226.109 46.4771 226.148 46.5087C225.944 46.6669 225.756 46.8092 225.592 46.9357C225.756 46.8092 225.936 46.6669 226.14 46.5166C226.14 46.5166 226.14 46.5166 226.148 46.5245C225.944 46.6748 225.756 46.8171 225.584 46.9357C225.09 47.3074 224.777 47.5525 224.667 47.6395C224.761 47.5604 225.074 47.3232 225.576 46.9357C224.04 48.0665 224.197 47.9004 226.03 46.4138H226.046ZM226.179 46.5482C226.226 46.5957 226.273 46.6431 226.328 46.6827C224.338 48.0506 224.299 48.019 226.179 46.5482ZM226.351 46.7064C226.414 46.7617 226.469 46.8092 226.532 46.8566C224.675 48.0506 224.565 48.0111 226.351 46.7064ZM228.012 47.7423C228.012 47.7423 228.051 47.766 228.075 47.7739C227.213 48.1376 227.19 48.1297 228.012 47.7423ZM228.098 47.7818C228.098 47.7818 228.098 47.7818 228.106 47.7818C227.552 48.019 227.55 48.019 228.098 47.7818ZM228.2 47.8292C228.239 47.8451 228.278 47.8688 228.325 47.8846C227.613 48.1534 227.566 48.1455 228.2 47.8292ZM228.427 47.932C228.427 47.932 228.49 47.9637 228.521 47.9716C227.918 48.1851 227.887 48.1692 228.427 47.932Z" fill="currentColor"/>
<path d="M88.8423 53.6797C88.2783 53.9643 87.7535 54.0434 88.106 53.9169C86.0536 54.075 84.8708 54.0355 85.7559 53.5294C81.1029 53.909 78.4944 53.8141 73.8649 53.055C73.5829 53.3476 72.7995 53.4662 71.7655 53.5057C70.7315 53.5452 69.4468 53.5057 68.9847 53.0155C65.6085 53.3713 63.0861 53.2843 60.6264 50.4456C58.1589 53.1103 55.7541 53.0234 52.6207 52.4303C51.8609 52.6438 50.9209 52.7387 49.8947 52.7624C48.8764 52.7861 47.7797 52.7466 46.7065 52.715C46.0642 52.6913 45.4297 52.6754 44.8187 52.6043C44.192 52.5885 43.581 52.5331 42.9857 52.4066C42.3747 52.4936 41.7871 52.5094 41.1996 52.4698C40.62 52.5094 40.056 52.4857 39.492 52.4461C38.9436 52.4461 38.3953 52.4303 37.8705 52.4145C37.3378 52.3987 36.8286 52.375 36.3273 52.3512C35.3324 52.3117 34.4003 52.2563 33.5543 52.1931C32.1991 52.1931 31.0241 52.1615 30.4601 51.5605C30.2564 53.0787 31.7447 53.1262 33.6796 53.055C34.4394 53.1499 35.3324 53.221 36.3038 53.2685C36.7894 53.2922 37.2986 53.3159 37.8 53.2527C38.3326 53.2843 38.8575 53.2289 39.351 53.0155C39.9698 53.2685 40.5573 53.3634 41.1448 53.1341C41.748 53.3238 42.3433 53.1894 42.97 52.8257C43.5497 53.2369 44.1607 53.4108 44.8187 53.3713C45.4218 53.5452 46.072 53.5215 46.777 53.4029C47.2549 53.5531 47.7719 53.6243 48.2967 53.6559C48.8137 53.6955 49.3385 53.6955 49.832 53.6876C50.819 53.6639 51.7042 53.569 52.3544 53.3476C55.7149 53.9485 58.1276 54.0355 60.5716 51.2758C63.0626 54.2015 65.585 54.2885 69.1883 53.9406C69.4155 54.423 70.7002 54.4704 71.7263 54.4941C72.7525 54.5178 73.5124 54.5257 73.7395 54.4941C78.4709 54.7392 81.0716 54.8341 85.7951 54.9211C84.8473 54.9607 86.0301 55.0081 88.1138 55.0476C87.7065 55.0476 88.2 55.0555 88.8031 55.0318C90.5265 55.1346 92.3517 55.2137 93.0488 55.0555C93.6677 54.9211 93.3778 54.6048 91.8895 53.9722C90.9103 54.0592 89.7118 53.9327 88.8501 53.6797H88.8423Z" fill="currentColor"/>
<path d="M91.8825 53.9801C91.9765 53.9722 92.0705 53.9643 92.1567 53.9564C92.1958 53.9564 92.235 53.9406 92.2742 53.9327C91.9452 53.8694 91.6083 53.7983 91.2637 53.7271C91.4908 53.8141 91.6945 53.9011 91.8825 53.9801Z" fill="currentColor"/>
<path d="M133.736 56.21C134.731 56.4551 135.233 56.5737 135.225 56.5658C135.225 56.5658 134.857 56.4709 134.175 56.3049C134.018 56.2733 133.854 56.2337 133.674 56.1942C133.697 56.1942 133.713 56.21 133.736 56.21Z" fill="currentColor"/>
<path d="M146.913 55.8463C146.913 55.8463 146.928 55.8463 146.936 55.8304C146.733 55.9095 146.725 55.9095 146.913 55.8463Z" fill="currentColor"/>
<path d="M135.741 55.4904C135.796 55.4904 135.851 55.4983 135.882 55.4904C135.725 55.4272 135.569 55.3639 135.396 55.3007C135.522 55.3639 135.631 55.4272 135.749 55.4904H135.741Z" fill="currentColor"/>
<path d="M134.95 55.5695C134.723 55.6328 133.806 55.5142 132.357 55.2216C133.077 55.696 132.482 55.6802 131.714 55.3797C132.012 55.6644 131.746 55.6565 131.378 55.3876C130.727 55.617 129.983 55.5932 129.842 55.0793C128.103 55.5221 126.999 55.4825 126.607 54.3122C124.445 55.3955 123.004 55.3481 120.904 53.9248C119.816 55.2374 118.077 55.1741 115.546 54.7076C114.356 55.0476 112.366 54.9844 110.275 54.9132C108.316 54.842 106.272 54.7788 108.081 54.1304C102.034 54.6285 99.8483 54.5574 94.1847 48.1366C94.9602 52.2247 94.2474 53.6085 92.2891 53.9248C99.9971 55.4904 102.261 55.5616 108.175 55.6723C106.248 55.7039 108.293 55.7751 110.251 55.8463C112.343 55.9174 114.324 55.9886 115.374 55.6723C118.053 56.1151 119.792 56.1784 120.763 54.9844C122.98 56.2812 124.422 56.3286 126.74 55.3718C126.975 56.4235 128.08 56.463 129.975 56.0677C129.96 56.5263 130.712 56.55 131.425 56.3444C131.73 56.5896 131.996 56.5975 131.738 56.3523C132.474 56.6054 133.07 56.6212 132.318 56.2812C133.313 56.5026 134.206 56.5816 134.48 56.55C134.707 56.5263 134.503 56.4156 133.751 56.2021C133.587 56.1626 133.422 56.123 133.234 56.0756C133.391 56.1151 133.54 56.1546 133.689 56.1863C133.548 56.1467 133.391 56.1072 133.218 56.0519C133.595 56.1467 133.916 56.2258 134.19 56.297C135.02 56.4788 135.592 56.5579 135.757 56.5342C135.984 56.5026 135.475 56.2654 133.916 55.8067C137.425 56.6844 138.052 56.724 135.749 55.4825C135.404 55.4351 134.629 55.1741 133.555 54.7234C134.723 55.2453 135.185 55.5062 134.958 55.5695H134.95Z" fill="currentColor"/>
<path d="M30.3203 51.3628C30.3595 51.434 30.4143 51.5051 30.4691 51.5684C30.4848 51.4656 30.5005 51.3628 30.5318 51.2442C30.4613 51.2837 30.3908 51.3233 30.3203 51.3628Z" fill="currentColor"/>
<path d="M145.769 55.5616C143.988 56.4894 143.988 56.4894 145.769 55.5616Z" fill="currentColor"/>
<path d="M25.0254 50.746C25.0254 50.8251 25.0332 50.8963 25.0489 50.9516C25.0724 50.5484 25.1194 50.0502 25.1899 49.4255C25.1272 49.979 25.0724 50.406 25.0332 50.7381L25.0254 50.746Z" fill="currentColor"/>
<path d="M25.1186 48.9906C24.8601 51.4893 24.7974 52.5331 25.0246 50.7381C25.0011 50.3665 25.0324 49.7893 25.1186 48.9906Z" fill="currentColor"/>
<path d="M26.8262 50.9279C26.8497 52.8652 27.8915 52.7387 30.3277 51.3628C30.1945 51.1414 30.124 50.8646 30.1319 50.5088C28.2597 51.6317 27.2178 51.9163 26.834 50.92L26.8262 50.9279Z" fill="currentColor"/>
<path d="M26.9049 49.7181C26.8188 49.8683 26.7404 50.0107 26.6621 50.1451C26.6856 50.4614 26.7404 50.7144 26.8266 50.92C26.8266 50.58 26.8501 50.1846 26.9049 49.7102V49.7181Z" fill="currentColor"/>
<path d="M25.0476 50.9516C24.9614 52.6913 25.4001 52.3829 26.6612 50.153C26.6377 49.8842 26.6377 49.5837 26.6534 49.2278C25.6507 51.094 25.1651 51.687 25.0476 50.9516Z" fill="currentColor"/>
<path d="M140.41 55.0239C140.434 54.9844 140.449 54.929 140.465 54.8658C140.442 54.8104 140.426 54.763 140.402 54.6997C140.402 54.8104 140.402 54.9211 140.402 55.016L140.41 55.0239Z" fill="currentColor"/>
<path d="M142.869 56.3998C142.869 56.3998 143.261 56.044 144.083 55.2928C143.308 56.0044 142.9 56.3682 142.869 56.3998Z" fill="currentColor"/>
<path d="M144.421 54.9844C144.303 55.0951 144.186 55.1979 144.084 55.2927C144.194 55.1979 144.303 55.0951 144.421 54.9844Z" fill="currentColor"/>
<path d="M145.768 55.5616C145.815 55.5379 145.846 55.5142 145.893 55.4904C145.846 55.5142 145.807 55.53 145.768 55.5537V55.5616Z" fill="currentColor"/>
<path d="M143.396 55.9174C143.396 55.9174 143.38 55.9332 143.364 55.9412C143.012 56.2654 142.839 56.4235 142.871 56.3998C142.871 56.3998 143.051 56.2258 143.396 55.9174Z" fill="currentColor"/>
<path d="M145.775 55.5616C145.815 55.5379 145.854 55.5221 145.901 55.4983C145.854 55.5221 145.822 55.5379 145.775 55.5616Z" fill="currentColor"/>
<path d="M144.084 55.2927C144.084 55.2927 144.123 55.2769 144.147 55.2769C144.241 55.182 144.335 55.0793 144.436 54.9765C144.311 55.0872 144.194 55.1979 144.084 55.2927Z" fill="currentColor"/>
<path d="M144.084 55.2928H144.068C143.802 55.5379 143.583 55.7435 143.402 55.9095C143.59 55.7435 143.81 55.5379 144.092 55.2928H144.084Z" fill="currentColor"/>
<path d="M142.932 52.8573C141.867 55.9174 141.178 55.8858 141.209 52.6912C141.178 55.8858 141.178 55.9491 141.209 52.7861C141.107 55.9411 141.021 55.9411 140.559 52.7861C140.59 53.8141 140.574 54.4941 140.473 54.8578C141.209 56.8584 141.444 56.811 142.408 54.7076C141.922 56.7082 142.094 56.8584 143.849 55.3402C143.019 55.4509 142.838 54.6997 142.94 52.8494L142.932 52.8573Z" fill="currentColor"/>
<path d="M138.492 53.0154C139.8 55.8384 139.33 55.8304 135.86 53.6164C138.108 55.8067 137.591 55.8067 134.238 54.3518C135.648 55.0872 136.095 55.443 135.875 55.4825C138.421 56.4868 139.205 56.6528 138.366 55.7751C138.108 55.5774 137.787 55.3244 137.395 55.0239C137.646 55.1979 137.865 55.356 138.077 55.4904C137.896 55.3165 137.669 55.1188 137.411 54.8974C137.795 55.2137 138.108 55.4746 138.366 55.6881C139.996 56.7398 140.419 56.5816 140.403 55.0239C140.168 55.5062 139.612 54.8262 138.484 53.0154H138.492Z" fill="currentColor"/>
<path d="M138.374 55.783C139.424 56.5896 139.424 56.5579 138.374 55.696C138.28 55.6328 138.186 55.5695 138.084 55.5063C138.194 55.6091 138.288 55.7039 138.374 55.7909V55.783Z" fill="currentColor"/>
<path d="M143.896 55.3402C142.697 56.5184 142.509 56.7082 143.371 55.9412C143.551 55.7751 143.786 55.5616 144.068 55.3007C144.006 55.3165 143.951 55.3323 143.896 55.3402Z" fill="currentColor"/>
<path d="M144.421 54.9765C144.296 55.0951 144.178 55.2058 144.061 55.3086C144.17 55.2058 144.288 55.0951 144.421 54.9765Z" fill="currentColor"/>
<path d="M143.842 55.3481C143.842 55.3481 143.873 55.3481 143.897 55.3481C144.022 55.2295 144.147 55.103 144.288 54.9606C144.124 55.103 143.983 55.2295 143.842 55.356V55.3481Z" fill="currentColor"/>
<path d="M150.656 54.7313C148.517 53.988 147.844 53.6638 143.974 51.4735C144.812 52.8019 145.486 53.6164 146.191 54.2094C146.136 54.2411 146.073 54.2806 146.018 54.3122C145.682 54.1304 145.282 53.9011 144.773 53.6164C145.039 54.0434 145.274 54.3597 145.501 54.6206C144.945 54.9448 144.499 55.1583 144.146 55.269C142.627 56.8742 142.995 56.811 145.87 55.3402C143.089 56.8821 143.05 56.9691 145.768 55.5537C145.815 55.4667 145.924 55.3323 146.089 55.1741C146.285 55.3165 146.488 55.443 146.708 55.5616C145.971 55.7751 145.658 55.7909 145.76 55.5616C143.073 56.977 143.809 56.977 146.974 55.8067C146.958 55.8067 146.943 55.8225 146.927 55.8304C146.974 55.8146 147.029 55.7909 147.092 55.7672C147.013 55.7988 146.943 55.8225 146.896 55.8384C144.734 56.8426 144.765 56.9928 147.005 56.55C146.974 56.5816 146.943 56.6133 146.911 56.637C145.94 56.89 145.901 56.9217 146.794 56.7556C146.794 56.7556 146.778 56.7714 146.77 56.7793C146.337 56.8689 146.337 56.8689 146.77 56.7793C146.77 56.7793 146.731 56.8189 146.716 56.8347C146.457 56.8979 146.441 56.9217 146.661 56.89C145.971 57.578 145.548 58.0682 144.836 58.8194C145.376 58.3924 146.661 57.8943 147.867 57.4989C146.379 58.9617 145.556 59.9343 144.099 61.4605C145.274 60.5274 148.321 59.4125 150.867 58.6217C151.486 57.7045 163.706 57.2221 163.706 57.2221C163.706 57.2221 151.549 55.8937 150.648 54.7313H150.656ZM146.199 54.415C146.199 54.415 146.191 54.415 146.183 54.4071C146.222 54.3755 146.269 54.3439 146.316 54.3122C146.316 54.3122 146.324 54.3122 146.332 54.3201C146.285 54.3518 146.238 54.3834 146.199 54.415ZM146.34 54.3281C146.387 54.3676 146.434 54.4071 146.488 54.4467C146.449 54.4704 146.418 54.4941 146.387 54.5099C146.332 54.4783 146.277 54.4546 146.214 54.4229C146.253 54.3913 146.3 54.3597 146.34 54.3281ZM146.488 54.4467C146.543 54.4862 146.598 54.5257 146.661 54.5732C146.637 54.589 146.614 54.6048 146.582 54.6206C146.52 54.589 146.457 54.5574 146.387 54.5178C146.418 54.4941 146.449 54.4704 146.488 54.4546V54.4467ZM146.723 54.6206C146.849 54.7076 146.974 54.7867 147.099 54.8737C146.966 54.8104 146.825 54.7471 146.669 54.6681C146.684 54.6523 146.7 54.6364 146.723 54.6285V54.6206ZM147.327 55.8779C147.06 55.957 147.045 55.957 147.287 55.8621C147.303 55.8621 147.311 55.8779 147.327 55.8779ZM147.342 55.8858C147.191 55.9385 147.191 55.9385 147.342 55.8858ZM147.421 55.9253C147.421 55.9253 147.468 55.9491 147.499 55.9649C147.381 55.9807 147.35 55.9649 147.421 55.9253ZM146.222 54.2332C146.222 54.2332 146.285 54.2806 146.316 54.3043C146.269 54.336 146.222 54.3676 146.183 54.3992C146.152 54.3834 146.112 54.3597 146.073 54.3439C146.12 54.3122 146.175 54.2727 146.222 54.2332ZM145.588 54.7155C145.588 54.7155 145.627 54.763 145.65 54.7867C145.509 54.8895 145.384 54.9765 145.266 55.0555C145.376 54.9765 145.509 54.8895 145.65 54.7867C145.509 54.8816 145.376 54.9765 145.266 55.0476C144.93 55.2848 144.71 55.443 144.632 55.4983C144.695 55.4509 144.914 55.3007 145.259 55.0476C144.201 55.7672 144.311 55.6644 145.58 54.7076L145.588 54.7155ZM145.674 54.8104C145.674 54.8104 145.736 54.8737 145.768 54.9053C144.397 55.783 144.373 55.7593 145.674 54.8104ZM145.791 54.9211C145.791 54.9211 145.87 54.9923 145.909 55.0239C144.632 55.783 144.561 55.7593 145.791 54.9211ZM146.88 55.6565C146.88 55.6565 146.911 55.6723 146.919 55.6802C146.332 55.9016 146.316 55.9016 146.88 55.6565ZM146.935 55.6881C146.559 55.8357 146.559 55.8357 146.935 55.6881ZM147.005 55.7197C147.005 55.7197 147.06 55.7435 147.084 55.7593C146.598 55.9253 146.567 55.9174 147.005 55.7197ZM147.154 55.7909C147.154 55.7909 147.193 55.8146 147.217 55.8225C146.81 55.9491 146.786 55.9411 147.154 55.7909Z" fill="currentColor"/>
<path d="M208.763 45.6048C210.244 47.1705 209.774 47.1309 207.815 46.0239C208.779 47.036 208.262 46.9886 206.875 46.3876C207.816 46.9886 207.314 46.9886 205.904 46.7276C205.418 46.9886 204.024 46.9886 202.544 46.7039C200.711 46.9886 198.87 46.9886 197.334 45.8025C194.702 46.9965 192.368 46.9965 189.485 45.5099C187.292 46.9965 184.543 46.9965 181.393 46.7593C178.73 46.9965 175.659 46.9965 172.471 46.9965C169.283 46.9965 165.97 46.9965 166.839 43.4382C161.74 45.8104 158.497 46.6011 154.799 44.8062C152.95 43.9126 150.984 42.3707 149.096 40.3306C148.642 41.7935 148.438 43.0903 148.055 44.0629C147.671 45.0355 147.099 45.6681 146.386 46.0792C145.673 46.4904 144.819 46.6723 143.934 46.7118C143.026 46.7276 142.078 46.609 141.475 47.1072C139.446 46.7988 137.895 46.8937 138.271 47.7002C136.234 46.3876 134.973 46.6881 133.986 48.0956C133.226 46.3244 132.733 45.6522 131.996 47.4472C130.798 45.2094 129.129 45.8025 127.296 46.5853C125.933 46.5062 124.39 46.609 122.784 46.522C121.186 46.4351 119.525 46.1504 117.685 45.7313C116.651 46.3639 115.217 46.6802 113.611 46.8383C112.005 46.9965 110.219 46.9965 109.005 46.356C105.01 46.9965 101.728 46.9965 98.5006 44.6638C95.6649 46.9965 92.8919 46.9965 89.9544 46.4351C87.9647 46.9965 85.8184 46.9965 84.048 46.9965H78.4941V45.6127H84.048C85.8184 45.6127 87.9647 45.6127 90.2285 45.3518C92.8919 45.6127 95.6649 45.6127 98.5711 43.9601C101.728 45.6206 105.01 45.6206 108.715 45.2964C110.219 45.6206 112.005 45.6206 113.658 45.4704C115.311 45.3201 116.839 45.0197 118.068 44.4108C119.776 44.8141 121.351 45.0829 122.886 45.1699C124.421 45.2569 125.91 45.1541 126.795 45.8816C128.98 44.482 130.57 43.9126 131.244 47.0993C132.568 44.3396 133.14 44.9801 133.79 47.8268C134.887 45.3439 136.07 45.0671 138.145 47.4946C137.981 45.5574 139.634 45.4941 141.952 46.5932C142.242 45.3834 143.174 45.4546 144.31 45.7629C144.96 45.3597 145.806 45.1936 146.558 44.822C147.303 44.4424 147.953 43.8652 148.47 42.9954C148.987 42.1256 149.371 40.9553 149.817 39.5004C151.642 41.4693 153.389 42.8531 155.058 43.6517C158.403 45.249 161.434 44.4899 165.907 42.2205C165.985 45.6206 169.291 45.6206 172.487 45.6206C175.683 45.6206 178.746 45.6206 181.558 45.5178C184.558 45.6206 187.3 45.6206 189.611 44.4978C192.376 45.6206 194.71 45.6206 197.146 44.7429C198.878 45.6206 200.711 45.6206 202.387 45.4783C204.032 45.6206 205.418 45.6206 206.155 45.4783C207.314 45.6206 207.816 45.6206 207.236 45.1778C208.333 45.6206 208.881 45.676 208.356 44.8062C209.931 45.7709 210.432 45.8183 209.39 44.395C210.792 45.8025 210.847 47.1863 208.912 45.5494C210.784 47.1942 210.722 47.1942 208.763 45.6285V45.6048Z" fill="currentColor"/>
<path d="M206.984 49.424C208.347 49.9775 209.468 49.9855 210.102 49.3845C210.737 48.7835 210.893 47.5737 210.337 45.676C214.896 47.3602 216.619 46.3006 215.335 42.5051C216.619 46.3006 214.849 45.3201 211.927 42.4972C211.316 43.367 209.546 42.3865 209.334 42.1256C209.546 42.3865 209.593 44.4187 208.277 45.3439C208.982 46.9174 209.342 48.2063 209.186 48.9733C209.029 49.7403 208.355 49.9696 206.984 49.4161V49.424Z" fill="currentColor"/>
</svg>
