<svg width="143" height="143" viewBox="0 0 143 143" fill="none" xmlns="http://www.w3.org/2000/svg">
<path d="M111.3 41.1394C110.053 42.4522 108.785 43.7426 107.52 45.0375L103.686 48.8795C101.123 51.4334 98.5208 53.9492 95.9369 56.4807C93.3375 58.9988 90.7291 61.5034 88.1563 64.0461C87.5092 64.6779 86.8599 65.3074 86.2106 65.9391C85.5613 66.5709 84.8319 67.3124 84.2582 67.8232C83.5489 68.5513 82.6149 69.5235 82.2925 69.696C81.3964 70.6795 80.5402 71.5375 80.3468 71.5868C79.9932 72.0886 79.9643 72.0595 80.3157 71.5555C80.2756 71.6271 80.836 71.094 81.6121 70.3278C81.5965 70.283 82.1991 69.6333 82.8329 68.9545C83.0041 68.8179 83.62 68.2085 84.1137 67.7044C84.4583 67.3438 84.9587 66.8173 85.3856 66.3894C85.8126 65.9615 86.2373 65.5359 86.662 65.108C87.0867 64.6801 87.5092 64.25 87.9317 63.8176C90.4778 61.2458 93.0751 58.7232 95.6656 56.1985L111.305 41.1439L111.3 41.1394Z" fill="currentColor"/>
<path d="M80.003 70.9036C79.6806 71.4345 79.2714 72.7025 79.585 72.2432C79.2714 72.7025 80.5634 72.4135 80.9458 71.9386C80.5634 72.4135 79.6806 71.4345 80.003 70.9036Z" fill="currentColor"/>
<path d="M119.407 37.8752C116.456 40.3731 113.325 42.6716 110.338 45.1315C107.448 47.5129 104.655 50.0264 101.866 52.5579C100.69 53.6265 99.5137 54.6951 98.3374 55.7615C97.7259 56.3171 97.0654 56.8279 96.5362 57.4663C96.2894 57.7643 96.0581 58.0779 95.8179 58.3826C95.5778 58.6873 95.3465 58.9875 95.0575 59.2182C94.9996 59.263 94.8618 59.3526 94.8618 59.3526C94.8618 59.3526 94.924 59.2294 94.9529 59.1914C94.9952 59.1353 95.0419 59.0816 95.0841 59.0256C95.1375 58.9539 95.1909 58.88 95.2354 58.8015C95.2576 58.7612 95.3087 58.6873 95.2954 58.638C95.2887 58.6089 95.242 58.5977 95.242 58.5977C95.242 58.5977 93.2007 61.1023 93.1651 60.6901C93.1295 60.2779 92.6537 60.8133 92.6537 60.8133L94.6994 58.8463C94.6994 58.8463 94.5327 59.207 94.3992 59.3549C93.8923 59.9284 93.2385 60.3316 92.6515 60.8133C92.6337 60.829 92.6159 60.8424 92.5981 60.8581C92.0244 61.3375 91.4351 61.7945 90.8547 62.265C89.6406 63.2485 88.4376 64.2454 87.2457 65.2557C84.8731 67.2675 82.5449 69.333 80.2656 71.4478C82.7294 69.4764 85.1999 67.5139 87.6771 65.5582C89.883 63.8175 92.0978 62.0858 94.297 60.3406C94.5771 60.1188 94.993 59.5453 94.993 59.5453L95.0797 59.6954C95.0797 59.6954 95.1953 59.4983 95.2531 59.3952C95.311 59.2922 95.5044 59.3952 95.5044 59.3952C95.5044 59.3952 95.3532 59.3392 95.3799 59.2698C95.4066 59.2003 95.52 59.1913 95.5556 59.2563C96.0492 58.7948 96.5451 58.3333 97.0387 57.8718C98.4107 56.7024 99.7561 55.5039 101.077 54.2762C102.109 53.3174 103.779 52.2219 104.154 50.8195C104.088 51.0592 104.515 51.0211 104.697 50.8531C109.507 46.4241 114.41 42.0959 119.4 37.8752H119.407Z" fill="currentColor"/>
<path d="M81.4644 71.8959C81.3332 72.1401 78.8427 73.0138 78.707 72.7629C78.756 73.0496 79.0784 72.4268 79.4964 71.3672C79.6009 71.2977 79.8522 70.6167 79.9034 70.0701C79.9812 70.5988 81.3332 72.1401 81.4644 71.8959Z" fill="currentColor"/>
<path d="M83.109 29.9874C82.9912 31.7998 82.8422 33.6099 82.6999 35.42L82.2151 40.8459C81.8816 44.464 81.4924 48.0753 81.1278 51.6866C80.7431 55.2979 80.3428 58.907 79.9937 62.5205C79.9003 63.4233 79.8069 64.3262 79.7113 65.229C79.6157 66.1318 79.5312 67.1735 79.4178 67.9375C79.3377 68.9545 79.2421 70.3032 79.1064 70.6437C79.0464 71.9766 78.9375 73.1886 78.8218 73.3522C78.8707 73.966 78.8307 73.9615 78.7773 73.3477C78.7929 73.4283 78.8819 72.6555 78.9864 71.5689C78.9463 71.5443 78.993 70.6571 79.0464 69.7252C79.0909 69.5079 79.1732 68.6454 79.2287 67.9375C79.2621 67.4379 79.311 66.7098 79.3644 66.1072C79.4178 65.5045 79.4711 64.9019 79.5245 64.2993C79.5756 63.6966 79.6268 63.094 79.6735 62.4891C79.9826 58.8689 80.365 55.2553 80.7364 51.644L83.1113 29.9829L83.109 29.9874Z" fill="currentColor"/>
<path d="M78.1194 73.0586C78.2128 73.6747 78.7065 74.9091 78.6531 74.3557C78.7065 74.9091 79.5092 73.8516 79.5003 73.2423C79.5092 73.8539 78.2106 73.6769 78.1172 73.0586H78.1194Z" fill="currentColor"/>
<path d="M87.2352 22.2383C86.5681 26.0624 85.6364 29.8507 84.9182 33.6681C84.2244 37.3645 83.6885 41.0968 83.1659 44.8448C82.9458 46.4242 82.7256 48.0058 82.5077 49.5852C82.3943 50.4074 82.2142 51.2251 82.2164 52.0584C82.2164 52.4482 82.2409 52.8358 82.2498 53.2256C82.2586 53.6154 82.2742 53.994 82.2008 54.3592C82.1853 54.4309 82.1364 54.5877 82.1364 54.5877C82.1364 54.5877 82.1052 54.4533 82.103 54.404C82.1008 54.3323 82.103 54.2628 82.0963 54.1912C82.0919 54.1015 82.0852 54.0097 82.0696 53.9223C82.0607 53.8775 82.0541 53.7879 82.0118 53.7565C81.9874 53.7386 81.9451 53.761 81.9451 53.761C81.9451 53.761 81.9807 57.0027 81.6894 56.7092C81.3981 56.4157 81.3759 57.1349 81.3759 57.1349L81.6894 54.3032C81.6894 54.3032 81.7917 54.6885 81.785 54.8879C81.7605 55.6563 81.5204 56.3866 81.3759 57.1349C81.3714 57.1573 81.367 57.1797 81.3625 57.2043C81.2291 57.9414 81.069 58.6762 80.9245 59.411C80.622 60.95 80.3374 62.4936 80.0683 64.0394C79.5347 67.1175 79.0699 70.2046 78.6719 73.3028C79.3012 70.1978 79.9416 67.0928 80.5909 63.9923C81.1691 61.2301 81.7605 58.4701 82.3343 55.7078C82.4076 55.3561 82.3609 54.6482 82.3609 54.6482L82.5233 54.7087C82.5233 54.7087 82.4855 54.4824 82.4655 54.3659C82.4454 54.2494 82.6589 54.2046 82.6589 54.2046C82.6589 54.2046 82.5077 54.2584 82.4832 54.1889C82.4588 54.1195 82.5411 54.0388 82.61 54.0657C82.6945 53.3914 82.779 52.7171 82.8635 52.0427C83.1681 50.2595 83.435 48.4673 83.664 46.6728C83.8419 45.2704 84.4223 43.3483 83.8174 42.031C83.9197 42.2573 84.2222 41.9526 84.2555 41.7039C85.1138 35.196 86.11 28.7059 87.2397 22.2405L87.2352 22.2383Z" fill="currentColor"/>
<path d="M79.8749 72.8705C79.9305 73.1438 78.5808 75.4244 78.3161 75.3214C78.5363 75.5095 78.3851 74.824 78.0315 73.7397C78.0671 73.6188 77.8269 72.9332 77.5156 72.4807C77.9137 72.8369 79.9305 73.1416 79.8749 72.8683V72.8705Z" fill="currentColor"/>
<path d="M54.3945 39.7012C55.4619 41.1663 56.5026 42.6494 57.5477 44.128L60.6386 48.5995C62.691 51.5858 64.6968 54.6057 66.7225 57.6076C68.7327 60.623 70.7274 63.6474 72.7665 66.6426C73.2712 67.3953 73.776 68.1481 74.2786 68.9008C74.7811 69.6535 75.3815 70.5071 75.7818 71.1657C76.371 71.9969 77.1582 73.0923 77.2716 73.4396C78.0766 74.4992 78.7659 75.4984 78.7815 75.7C79.2107 76.1391 79.1773 76.1615 78.7459 75.7246C78.8104 75.7762 78.3834 75.1265 77.7697 74.2259C77.723 74.2326 77.1938 73.5225 76.6379 72.7765C76.5334 72.5816 76.0464 71.8669 75.6372 71.2889C75.3437 70.8857 74.9168 70.2965 74.5743 69.7992C74.2319 69.3018 73.8872 68.8067 73.5425 68.3094C73.1979 67.812 72.851 67.3192 72.5019 66.8263C70.4294 63.8535 68.417 60.8381 66.3957 57.8294L54.3945 39.699V39.7012Z" fill="currentColor"/>
<path d="M78.053 75.9239C78.5178 76.3361 79.6852 76.9612 79.2894 76.5713C79.683 76.9612 79.6251 75.6304 79.2271 75.1689C79.6251 75.6304 78.5155 76.3361 78.0508 75.9239H78.053Z" fill="currentColor"/>
<path d="M52.6144 31.0918C54.5423 34.4545 56.2456 37.9582 58.1313 41.3478C59.9569 44.6298 61.9293 47.8356 63.9195 51.0436C64.76 52.3967 65.5984 53.7499 66.4389 55.1007C66.8747 55.8042 67.2617 56.5479 67.7931 57.1842C68.0422 57.4821 68.309 57.7644 68.5625 58.0556C68.816 58.3469 69.0717 58.6269 69.2474 58.9562C69.283 59.0212 69.343 59.1735 69.343 59.1735C69.343 59.1735 69.234 59.0907 69.2007 59.0548C69.154 59.0033 69.1095 58.9473 69.0606 58.8957C68.9983 58.8308 68.9361 58.7636 68.8671 58.7053C68.8316 58.6762 68.7671 58.6135 68.7159 58.6157C68.687 58.618 68.667 58.6628 68.667 58.6628C68.667 58.6628 70.7617 61.1226 70.3503 61.0867C69.939 61.0509 70.3815 61.6154 70.3815 61.6154L68.8138 59.243C68.8138 59.243 69.1362 59.4715 69.2585 59.6283C69.7299 60.2309 70.0123 60.9478 70.3792 61.6154C70.3904 61.6356 70.4015 61.6558 70.4126 61.6759C70.7817 62.3278 71.1264 62.9932 71.4866 63.6496C72.2382 65.0251 73.0032 66.3917 73.7837 67.7515C75.338 70.4555 76.9524 73.1214 78.6246 75.7537C77.1258 72.9668 75.6338 70.1755 74.155 67.3796C72.8364 64.8884 71.5289 62.3928 70.2036 59.9039C70.0346 59.588 69.5476 59.075 69.5476 59.075L69.7099 59.0145C69.7099 59.0145 69.5365 58.8666 69.4475 58.7905C69.3586 58.7143 69.492 58.5418 69.492 58.5418C69.492 58.5418 69.4097 58.6807 69.3475 58.6426C69.2852 58.6045 69.2963 58.4903 69.3652 58.4656C69.0006 57.8943 68.6337 57.3231 68.269 56.7518C67.3639 55.1881 66.4256 53.6446 65.456 52.1189C64.6978 50.9294 63.9173 49.0812 62.612 48.4651C62.8343 48.5726 62.8721 48.1425 62.7387 47.9319C59.2453 42.3895 55.8654 36.7754 52.6055 31.0896L52.6144 31.0918Z" fill="currentColor"/>
<path d="M79.2795 74.6448C79.4952 74.8173 79.9177 77.4384 79.6487 77.5325C79.9378 77.5347 79.3841 77.1046 78.4212 76.5064C78.3723 76.3899 77.7497 76.0225 77.2227 75.8769C77.7541 75.8926 79.4952 74.8195 79.2773 74.647L79.2795 74.6448Z" fill="currentColor"/>
<path d="M38.8164 98.3735C39.0121 97.7844 40.1039 97.3968 41.2046 96.9555C41.6249 96.4783 42.739 95.9899 43.5639 95.4948C43.5172 95.4993 44.7425 94.76 45.921 94.0252L48.2781 92.5556C48.6717 92.3114 49.0675 92.0694 49.4633 91.8297C49.8591 91.59 50.2572 91.3503 50.6552 91.1128C51.091 90.8575 53.5682 89.6208 52.3296 90.1966C54.3354 89.2064 55.405 88.6754 53.059 89.7104C55.5584 88.5881 56.7569 88.0414 54.5755 89.0137C56.9104 87.9586 56.8303 87.9832 54.2709 89.0204C56.8303 87.981 57.2261 87.8152 55.5784 88.5074C57.2662 87.7973 57.1372 87.8421 54.8779 88.6777C57.2817 87.7928 57.3796 87.7547 55.5317 88.382C57.4196 87.739 57.4774 87.7166 56.897 87.9362C57.5063 87.7076 57.5241 87.7076 58.3736 87.8376C57.5397 87.7099 57.5308 87.7121 58.1201 87.9294C57.5419 87.6987 57.5842 87.6785 59.1785 86.8519C57.6664 87.618 57.6464 87.6248 58.945 86.8787C58.318 87.2327 58.0867 87.3537 58.2957 87.1946C58.5047 87.0356 59.3831 86.6502 60.2926 85.8258C59.412 86.6256 58.6115 86.9572 58.5715 86.9796C58.5314 87.002 59.0273 86.6637 60.0569 85.9602C59.0829 86.6189 58.8583 86.7645 59.1674 86.536C59.4765 86.3075 60.9641 85.9334 61.48 84.8804C61.0353 85.8841 59.979 86.0476 59.9123 86.005C60.0324 86.0207 61.1887 85.8482 61.5712 84.8513C61.3333 85.7497 61.082 85.6735 61.0064 85.2523C61.7824 85.1896 63.1366 85.0529 62.7542 84.0471C62.8765 85.2837 64.9311 84.578 64.1062 83.3503C64.9134 83.7872 65.5805 84.009 65.7161 84.0493C66.1052 83.9306 66.1253 83.543 65.5226 82.806C66.481 83.4287 67.1148 83.7648 67.1059 83.9283C67.6018 83.7245 67.6663 83.2137 66.9791 82.4005C67.9976 83.1353 68.4779 83.59 68.3712 83.8656C68.9271 83.5564 69.085 82.9224 68.4579 82.107C69.2406 82.8956 69.2873 83.5654 68.9182 83.9485C69.2273 83.6573 69.0938 83.1039 68.2889 82.2885C69.1139 82.9426 69.274 83.0569 68.9071 83.0546C69.3629 82.3803 69.4274 81.5044 68.8248 80.8009C69.8788 81.7665 70.1679 80.6217 69.8366 79.6248C70.7683 80.0952 71.1819 79.2999 71.0707 78.7287C71.8779 78.8653 72.3093 78.3456 72.3893 77.9916C72.6717 78.1574 72.6651 78.1619 72.3826 77.9961C72.6651 78.1619 73.3144 77.6825 73.1654 77.4741C73.3121 77.6802 73.3611 77.7564 73.2232 77.5593C73.3611 77.7564 72.734 78.2896 72.4694 78.1193C72.7362 78.2918 72.734 78.2918 72.4694 78.1193C72.7362 78.2918 72.7318 78.2941 72.4649 78.1216C72.3827 78.5002 71.9602 79.105 71.1974 78.9191C71.3086 79.5576 70.9195 80.4358 70.0434 79.8488C70.3814 80.9488 70.1256 82.0935 69.1361 80.9824C69.7387 81.7105 69.6609 82.6043 69.2295 83.2764C69.5919 83.2204 69.4808 83.0165 68.7047 82.331C69.4674 83.1554 69.523 83.8768 69.2073 84.2711C69.5252 83.9574 69.4585 83.3279 68.6891 82.4811C69.4585 83.3279 69.4919 84.0202 69.1539 84.3719C69.4318 84.0291 69.3207 83.3615 68.5335 82.5102C69.1806 83.3884 69.0472 84.1008 68.5424 84.4189C68.6158 84.1501 68.1399 83.646 67.0948 82.8373C67.8441 83.7267 67.8308 84.3024 67.375 84.5198C67.3638 84.3607 66.719 83.9821 65.6872 83.2697C66.3988 84.0963 66.4588 84.5354 66.0919 84.6631C65.9607 84.6206 65.2514 84.3585 64.3285 83.823C64.9111 84.5175 64.6576 85.0305 64.244 85.1874C63.8327 85.3442 63.2323 85.1605 63.0388 84.5153C63.6725 85.6713 61.6446 85.6959 60.6973 85.8908C60.5483 86.359 60.6573 86.5113 61.0842 85.7676C60.4794 86.6346 59.1051 86.8586 59.014 86.9437C58.9228 87.0288 59.9679 86.9213 60.6795 86.2627C59.9146 86.9684 58.6471 87.1969 58.3669 87.3694C58.0867 87.5419 58.2713 87.5419 58.8605 87.4523C57.6131 87.6942 57.5975 87.7188 58.5626 88.3349C57.5575 87.7188 57.553 87.7211 58.4603 88.4447C57.553 87.7211 57.5463 87.7189 58.3091 88.429C57.533 87.7189 57.5174 87.7189 57.0349 88.5186C57.4885 87.7256 57.4374 87.7637 55.763 88.9264C57.3996 87.7793 57.3129 87.8353 55.1537 89.1997C57.1839 87.9093 57.2995 87.8331 55.7741 88.8479C57.2595 87.8555 56.8993 88.0818 54.5511 89.5379C56.8993 88.0818 56.9704 88.0347 54.8046 89.3923C56.8214 88.1199 55.7029 88.7964 53.3458 90.2123C55.5495 88.8793 54.5399 89.4797 52.5965 90.6289C53.7861 89.9053 51.3757 91.319 50.9332 91.5743C50.5329 91.8051 50.1326 92.0358 49.7324 92.2688C49.3321 92.5018 48.9319 92.7326 48.5338 92.9655C47.7355 93.4315 46.9372 93.8997 46.1367 94.3657C45.3362 94.8317 44.4956 95.2977 43.7285 95.7524C42.8857 96.205 41.7516 96.6508 41.2958 97.0944C40.1862 97.4954 39.0521 97.8359 38.8275 98.3668L38.8164 98.3735Z" fill="currentColor"/>
<path d="M73.5218 78.5877C73.624 78.787 74.3601 76.9859 74.4579 76.679C74.3601 76.9859 72.6212 77.0755 72.3477 76.8179C72.6212 77.0777 73.624 78.7893 73.5218 78.5899V78.5877Z" fill="currentColor"/>
<path d="M64.3739 118.843C64.1471 118.265 64.7386 117.261 65.2967 116.211C65.3145 115.574 65.8571 114.477 66.1729 113.563C66.1395 113.596 66.6065 112.236 67.0401 110.91L67.9073 108.258C68.0541 107.816 68.2009 107.375 68.3521 106.934C68.5033 106.492 68.6545 106.053 68.8079 105.614C68.9791 105.137 70.0887 102.585 69.5061 103.829C70.409 101.772 70.8915 100.672 69.753 102.984C70.9515 100.506 71.5208 99.31 70.4712 101.467C71.5875 99.1465 71.5408 99.216 70.2422 101.671C71.5408 99.2182 71.7387 98.8351 70.916 100.432C71.7543 98.7948 71.6853 98.9135 70.4868 101.015C71.7632 98.7813 71.8143 98.6873 70.7981 100.363C71.8343 98.6469 71.8632 98.5932 71.5608 99.1375C71.8832 98.5685 71.8944 98.5573 72.6282 98.107C71.9077 98.5484 71.901 98.5573 72.4925 98.3423C71.9033 98.5416 71.921 98.4991 72.6148 96.8323C71.9455 98.3983 71.9344 98.4184 72.4547 97.0048C72.199 97.6814 72.0989 97.9256 72.159 97.6679C72.219 97.4103 72.6437 96.5456 72.815 95.3269C72.6504 96.512 72.2479 97.2826 72.2346 97.3252C72.2212 97.3677 72.3836 96.7875 72.7238 95.5822C72.3991 96.7181 72.3191 96.9735 72.4103 96.5993C72.5014 96.2252 73.4042 94.9729 73.1241 93.8326C73.4242 94.8878 72.7193 95.6987 72.6393 95.7099C72.7416 95.6427 73.5154 94.7623 73.173 93.7542C73.5621 94.5965 73.322 94.6996 72.9973 94.4263C73.551 93.8752 74.5027 92.8962 73.5666 92.3719C74.4494 93.2389 75.5745 91.3683 74.1581 90.9628C75.0542 90.7769 75.708 90.5125 75.8391 90.4543C76.0637 90.1115 75.828 89.8024 74.8963 89.6276C76.0282 89.4842 76.7286 89.3319 76.8265 89.4618C77.0755 88.9824 76.7998 88.5501 75.7546 88.3753C77.0043 88.279 77.6603 88.3148 77.7559 88.5971C77.985 88.0012 77.7004 87.412 76.6997 87.1947C77.8026 87.2933 78.2652 87.7749 78.2274 88.3081C78.2785 87.8847 77.8227 87.5464 76.6864 87.4434C77.7359 87.4098 77.9316 87.3941 77.6492 87.6293C77.5669 86.8183 77.0577 86.1037 76.1482 85.9558C77.5736 86.0118 77.0644 84.95 76.1727 84.4011C77.1867 84.1569 76.9955 83.281 76.5463 82.9158C77.2512 82.4969 77.2512 81.8226 77.0844 81.4977C77.4068 81.4417 77.4046 81.4507 77.0822 81.5067C77.4046 81.4507 77.5936 80.6643 77.349 80.5994C77.5936 80.6621 77.6781 80.689 77.4469 80.6262C77.6781 80.689 77.5403 81.5022 77.2267 81.5425C77.5403 81.5022 77.5403 81.5044 77.2267 81.5448C77.5403 81.5044 77.538 81.5089 77.2267 81.5515C77.4046 81.8942 77.4669 82.6335 76.7642 82.983C77.2556 83.4019 77.518 84.3249 76.4751 84.4414C77.438 85.0664 77.9694 86.1082 76.504 85.8976C77.4291 86.0656 77.9405 86.8004 78.0406 87.5957C78.283 87.3179 78.0673 87.235 77.0355 87.2126C78.1473 87.3493 78.6476 87.8668 78.6588 88.3731C78.701 87.9273 78.2496 87.4882 77.12 87.3381C78.2496 87.4882 78.7166 87.9967 78.6832 88.4851C78.6765 88.0438 78.1673 87.6024 77.0199 87.4613C78.0762 87.7144 78.4297 88.3484 78.2429 88.9197C78.1273 88.6666 77.4424 88.5881 76.1238 88.6464C77.2645 88.8435 77.6225 89.2938 77.4113 89.7531C77.3001 89.6366 76.5663 89.7665 75.321 89.8875C76.3928 90.06 76.7197 90.358 76.5218 90.694C76.3928 90.7455 75.6835 91.0054 74.6361 91.1936C75.5256 91.3482 75.659 91.906 75.4411 92.2935C75.2254 92.6789 74.6495 92.9275 74.0891 92.5601C75.3121 93.0351 73.7734 94.368 73.173 95.1297C73.3575 95.5845 73.5377 95.6315 73.3909 94.7847C73.4821 95.8399 72.5704 96.9018 72.5548 97.0272C72.5392 97.1527 73.273 96.3932 73.3976 95.4277C73.2619 96.4627 72.4369 97.4596 72.3302 97.7732C72.2235 98.0869 72.368 97.9659 72.7616 97.5178C71.9589 98.5125 71.9655 98.5394 73.0974 98.3848C71.9344 98.564 71.9322 98.5685 73.0885 98.5349C71.9322 98.5685 71.9255 98.573 72.9617 98.62C71.9144 98.5797 71.9033 98.5887 72.0411 99.5139C71.8832 98.6133 71.8677 98.6738 71.3273 100.65C71.8477 98.7119 71.8188 98.8105 71.0338 101.255C71.7654 98.9516 71.8054 98.8194 71.2851 100.583C71.7898 98.8598 71.6587 99.2675 70.7892 101.902C71.6587 99.2652 71.6853 99.1846 70.8915 101.626C71.6231 99.3459 71.1984 100.589 70.2978 103.199C71.1361 100.751 70.7447 101.866 69.9887 104.003C70.4379 102.679 69.4928 105.323 69.3171 105.805C69.157 106.241 68.9991 106.676 68.8413 107.113C68.6834 107.55 68.5255 107.987 68.3676 108.423C68.0541 109.297 67.7406 110.173 67.4248 111.049C67.109 111.923 66.7644 112.826 66.4642 113.67C66.1084 114.562 65.5236 115.639 65.4546 116.273C64.8609 117.299 64.2094 118.294 64.3761 118.847L64.3739 118.843Z" fill="currentColor"/>
<path d="M78.3366 81.2086C78.5412 81.296 77.9563 79.4388 77.8363 79.1409C77.9586 79.4388 76.6822 80.6329 76.3086 80.6127C76.6822 80.6351 78.5434 81.296 78.3388 81.2109L78.3366 81.2086Z" fill="currentColor"/>
<path d="M97.0062 117.974C96.4637 117.678 96.2769 116.527 96.0345 115.359C95.6409 114.86 95.3585 113.67 95.0161 112.763C95.0116 112.81 94.5024 111.466 93.9887 110.171C93.4751 108.876 92.9614 107.579 92.9614 107.579C92.7924 107.147 92.6234 106.712 92.4566 106.277C92.2898 105.843 92.1253 105.408 91.963 104.971C91.7895 104.494 91.0112 101.821 91.3581 103.152C90.7377 100.99 90.4064 99.8388 91.009 102.343C90.3464 99.6686 90.0195 98.3849 90.591 100.717C89.9661 98.2169 89.975 98.2998 90.5465 101.022C89.975 98.302 89.8816 97.8808 90.2707 99.6372C89.8683 97.8383 89.8905 97.9772 90.3152 100.361C89.8683 97.8226 89.846 97.7173 90.1396 99.6596C89.8371 97.6747 89.826 97.612 89.9416 98.2281C89.826 97.5829 89.826 97.5672 90.1017 96.7473C89.8305 97.5515 89.8327 97.5627 90.1485 97.0161C89.8238 97.5493 89.8105 97.5045 89.279 95.7795C89.766 97.4126 89.7682 97.435 89.2657 96.0147C89.5014 96.698 89.5814 96.9489 89.4613 96.7137C89.3413 96.4784 89.1167 95.5398 88.4696 94.4958C89.0989 95.5084 89.2834 96.3597 89.299 96.4023C89.3146 96.4448 89.07 95.8937 88.5607 94.7512C89.0366 95.831 89.1367 96.0797 88.9677 95.7347C88.7987 95.3874 88.6919 93.8461 87.7491 93.1516C88.6519 93.7655 88.6297 94.843 88.5763 94.9035C88.6119 94.787 88.6452 93.6109 87.738 93.0576C88.5741 93.4496 88.4562 93.6871 88.0315 93.6871C88.1049 92.9075 88.2072 91.5387 87.1576 91.7448C88.3873 91.8388 88.056 89.677 86.7107 90.2819C87.2777 89.5583 87.6112 88.9332 87.6735 88.8055C87.6268 88.3978 87.251 88.3127 86.4238 88.7831C87.1999 87.9408 87.6379 87.3695 87.7958 87.4054C87.6824 86.8767 87.1932 86.7243 86.2793 87.2665C87.1732 86.3838 87.7002 85.9873 87.9515 86.1396C87.7469 85.5347 87.1532 85.2659 86.2481 85.7498C87.1554 85.1113 87.818 85.1808 88.1294 85.6132C87.8981 85.2547 87.3333 85.2928 86.3971 85.9492C87.1798 85.2435 87.3199 85.1046 87.2532 85.4698C86.6729 84.9008 85.8279 84.6835 85.0362 85.1606C86.1636 84.2824 85.0941 83.7963 84.0623 83.9531C84.6827 83.1108 83.9778 82.5619 83.4018 82.5731C83.6754 81.7957 83.244 81.2782 82.9104 81.1371C83.1217 80.8862 83.1261 80.8929 82.9126 81.1461C83.1239 80.8952 82.7681 80.1671 82.5391 80.2768C82.7681 80.1671 82.8481 80.1312 82.6325 80.2343C82.8504 80.1312 83.2617 80.8459 83.0483 81.0789C83.2617 80.8459 83.264 80.8459 83.0483 81.0811C83.2617 80.8459 83.264 80.8526 83.0483 81.0878C83.4041 81.2357 83.9222 81.7599 83.6086 82.4835C84.2513 82.4835 85.0429 83.0212 84.318 83.7896C85.4521 83.644 86.5261 84.0987 85.2697 84.8873C86.0858 84.4169 86.9464 84.6476 87.529 85.1942C87.5379 84.8268 87.3199 84.9008 86.515 85.5527C87.4534 84.9388 88.1672 85.0083 88.4985 85.3914C88.2472 85.0217 87.6201 84.9792 86.6595 85.593C87.6201 84.9769 88.3028 85.0643 88.5897 85.4586C88.3028 85.1248 87.6313 85.1181 86.664 85.7521C87.6357 85.2614 88.3095 85.5191 88.5318 86.0747C88.2828 85.9559 87.7069 86.339 86.7351 87.2373C87.7335 86.6482 88.2961 86.7624 88.4273 87.2508C88.2694 87.2329 87.7869 87.8086 86.913 88.707C87.8447 88.1447 88.285 88.1603 88.3473 88.5479C88.2828 88.6711 87.9048 89.3275 87.2199 90.1519C88.0004 89.6949 88.4585 90.0354 88.5385 90.4723C88.6186 90.9091 88.3362 91.4714 87.6713 91.5521C88.9121 91.1242 88.583 93.1404 88.6074 94.115C89.0388 94.3435 89.2078 94.2628 88.5541 93.7095C89.2968 94.46 89.2768 95.8624 89.3457 95.9677C89.4146 96.0729 89.4902 95.0178 88.9699 94.1956C89.5258 95.0783 89.5303 96.3731 89.6503 96.6823C89.7704 96.9915 89.8016 96.8055 89.8171 96.2074C89.8371 97.4888 89.8594 97.5067 90.6265 96.6554C89.8483 97.5448 89.8527 97.5515 90.7155 96.7764C89.8505 97.5515 89.8483 97.5582 90.6732 96.9242C89.8438 97.5717 89.8416 97.5874 90.5398 98.2057C89.8438 97.6165 89.8727 97.6747 90.7177 99.5364C89.8816 97.7151 89.9194 97.8092 90.8778 100.188C89.9683 97.9503 89.915 97.8226 90.6421 99.5118C89.9305 97.8652 90.0884 98.2617 91.1046 100.845C90.0884 98.2617 90.0551 98.1833 91.0068 100.569C90.1129 98.3468 90.5798 99.5745 91.556 102.158C90.6354 99.7403 91.0468 100.847 91.834 102.973C91.3314 101.667 92.2965 104.304 92.4677 104.788C92.6234 105.224 92.779 105.661 92.9369 106.098C93.0948 106.535 93.2527 106.972 93.4106 107.409C93.7286 108.282 94.0465 109.156 94.3623 110.03C94.6781 110.903 94.9894 111.82 95.2985 112.66C95.5942 113.574 95.8321 114.777 96.1879 115.308C96.3881 116.48 96.5215 117.662 97.004 117.978L97.0062 117.974Z" fill="currentColor"/>
<path d="M83.6924 80.1021C83.9059 80.0349 82.2715 78.9909 81.9891 78.8408C82.2737 78.9909 82.058 80.7316 81.7578 80.9579C82.058 80.7316 83.9059 80.0349 83.6924 80.1021Z" fill="currentColor"/>
<path d="M56.744 77.0665C55.6966 77.3219 55.2763 77.4383 55.1963 77.407C55.0139 77.3174 55.1585 77.0821 55.6699 76.4437C55.0251 77.0329 54.5158 77.2726 53.8954 77.1919C53.6553 77.1314 53.2395 76.7304 52.6947 75.6506C53.0949 76.6901 53.0882 77.1023 52.4945 77.2322C52.6769 77.3689 52.1565 77.2255 50.9735 76.8559C52.2899 77.4652 51.8852 77.3286 50.5822 76.9432C51.2648 77.1561 51.0847 77.1471 50.4198 77.0844C50.6511 77.0642 50.0574 76.9253 49.6215 76.894C49.3458 76.7304 48.3407 76.4885 48.2273 76.5086C47.5269 76.2622 46.862 76.0919 47.5735 76.139C46.6018 75.9396 45.9036 75.7985 46.2772 75.8679C45.3743 75.561 45.0341 75.3459 45.3944 75.0928C44.7384 75.2653 43.9467 74.9113 43.3997 74.3692C42.4747 74.0712 41.6119 73.4865 40.867 72.9041C42.5436 74.2415 42.5303 74.3692 41.9899 74.0309C41.8165 74.1071 41.0271 73.6837 40.3711 73.2916C40.927 73.668 41.9833 74.181 40.38 73.4641C40.9292 73.7822 41.8143 74.1877 42.0366 74.2348C42.6059 74.5932 42.6059 74.6425 40.4956 73.8136C41.3784 74.2213 41.5007 74.3423 40.6379 74.2527C41.772 74.4991 41.9477 74.5462 41.1071 74.4207C42.1167 74.7232 42.9594 74.75 41.3784 75.514C41.9655 75.1264 42.7104 75.3258 43.6088 75.8814C44.0379 75.8948 44.7717 76.3697 45.212 76.9164C44.9007 76.3093 44.4004 76.2331 44.6005 77.4607C44.476 76.2958 44.625 76.2465 45.55 77.1606C44.7206 76.3496 44.705 76.5288 45.1876 77.7296C44.745 76.5646 44.8184 76.4392 45.7524 77.2322C44.8029 76.3854 44.7806 76.549 45.3743 77.7587C44.8874 76.6879 45.7279 77.006 46.7397 77.8125C45.7791 77.0665 45.0097 76.8245 45.6078 77.8326C45.0008 76.8066 45.7546 77.0239 46.7197 77.7721C45.7924 77.0329 45.0875 76.8335 45.7568 77.8214C45.1431 76.8872 45.9325 77.1583 46.8153 77.864C45.9503 77.0889 45.1787 76.7528 45.8702 77.6893C45.1075 76.6005 45.7635 76.7528 46.7241 77.5459C45.7724 76.7663 45.132 76.6274 45.9014 77.7005C45.2187 76.7999 45.997 77.1538 46.8264 77.9021C45.9881 77.23 45.1987 76.9522 45.808 77.8349C45.1342 76.8783 45.8235 77.0642 46.7263 77.7766C45.7924 77.0597 45.0653 76.8648 45.6946 77.8506C45.0964 76.9164 45.8747 77.1785 46.7753 77.8774C45.8235 77.1135 44.9741 76.773 45.4922 77.7833C44.8473 76.6005 44.8496 76.4168 45.7968 77.2434C44.874 76.4459 44.9007 76.6632 45.5545 77.799C45.0119 76.8044 45.7968 77.0642 46.7263 77.7721C45.8346 77.0732 45.1742 76.9208 45.8524 77.8618C45.2743 77.0665 46.0859 77.398 46.842 78.0119C46.1393 77.3711 46.0325 77.3263 46.6352 78.0387C46.2349 77.7341 45.5567 77.118 45.8836 77.2367C45.1253 76.5266 45.3499 76.4885 46.842 77.6646C46.0837 77.1001 46.3061 77.1852 47.0777 77.7654C46.4528 77.0687 46.524 77.0037 47.2867 77.5033C46.5796 76.8044 46.6263 76.6789 47.5135 77.006C46.6752 76.829 46.6774 77.0687 47.2622 77.6736C46.6174 77.1897 46.4995 77.0575 47.2222 77.3689C46.4728 77.0911 46.6085 77.4182 47.1221 78.0275C46.7263 77.7318 46.753 77.7542 47.1555 78.041C46.693 77.4742 46.5974 77.1471 47.3334 77.2927C46.6218 77.0777 46.7975 77.4159 47.3023 77.9984C47.0265 77.8304 47.28 78.0074 47.6603 78.3389C47.6603 78.0701 48.3274 77.7946 48.9144 77.2748C48.5408 77.7632 48.3985 78.0925 48.5497 78.3972C48.6298 78.2381 49.3125 78.1351 49.6238 78.0096C49.2769 78.1799 48.5809 78.33 48.5408 78.5585C48.4519 78.3143 48.9166 78.1171 49.3747 77.7699C48.7788 78.2068 48.0783 78.4868 48.2006 78.8228C48.1539 78.6302 49.0679 78.5338 49.6949 78.3546C49.2324 78.5182 48.6454 78.6436 48.672 78.9035C48.7699 78.7063 49.5459 78.666 49.8817 78.6907C49.5459 78.666 48.7766 78.7108 48.6832 78.9348C48.672 78.7041 49.3036 78.6436 49.7728 78.5898C49.1435 78.6907 48.7721 78.7534 48.9856 78.9796C49.4348 78.7892 50.7601 78.7646 51.2582 79.0245C50.9179 78.7982 50.4043 78.8251 50.1063 79.0155C50.5043 78.8587 51.1114 78.8654 51.336 79.1454C51.1025 78.8968 49.9662 79.0088 49.3036 79.4501C49.0612 79.5039 48.8722 80.0639 49.2191 80.9354C48.9033 80.3731 48.3007 80.0102 48.0805 80.1289C47.8337 79.822 47.6492 79.8959 47.7781 80.3081C47.6202 80.2364 47.5713 80.4806 47.6202 80.8615C47.5647 80.9309 47.6781 81.305 47.8849 81.5425C47.6914 81.2938 47.6069 80.9802 47.6736 80.969C47.6469 80.7091 47.7448 80.6554 47.8715 80.8346C47.8182 80.7091 47.8382 80.8436 47.8871 81.0922C47.9093 81.1393 48.0205 81.4036 48.1473 81.603C48.0049 81.4596 47.876 81.2647 47.8626 81.2132C47.7826 81.0609 47.7626 80.9802 47.8337 81.0721C47.6247 80.9511 47.4446 80.9712 47.4868 81.1146C47.3467 81.1885 47.4223 81.4484 47.7003 81.5694C47.3423 81.426 47.1511 81.1169 47.2645 81.0384C47.1577 80.8503 47.3201 80.7987 47.6158 80.9264C47.2578 80.7965 47.0065 80.8301 47.0866 81.0205C46.922 81.0989 47.091 81.4171 47.4913 81.5358C47.0754 81.4148 46.8553 81.2356 46.9576 81.2199C46.8086 81.3834 46.9776 81.7397 47.4068 81.7733C46.9687 81.7822 46.7908 81.4686 46.9531 81.2423C46.8664 81.2289 47.1177 81.2356 47.5513 81.2423C47.1288 81.1684 46.8842 81.0765 46.991 81.1213C46.8464 81.1997 47.0554 81.4529 47.4891 81.5291C47.0843 81.435 46.9109 81.1639 47.071 81.0877C46.9843 80.9936 47.24 81.0407 47.6225 81.1437C47.2889 81.0967 47.111 81.1303 47.2267 81.193C47.0932 81.361 47.2778 81.6299 47.6692 81.6612C47.2711 81.6478 47.0821 81.4014 47.2155 81.2266C47.0932 81.2087 47.2711 81.2042 47.6202 81.2266C47.22 81.1594 46.962 81.0922 47.0532 81.137C46.8931 81.2378 47.071 81.4843 47.4868 81.5403C47.0599 81.4148 46.8331 81.2244 46.9309 81.2132C46.7797 81.3767 46.9465 81.7486 47.369 81.7957C46.9065 81.8203 46.693 81.6075 46.7641 81.4283C46.6396 81.6971 46.7886 82.013 47.1733 81.9749C46.7397 82.1698 46.5618 82.0264 46.524 81.7621C46.484 82.1429 46.5907 82.4229 46.733 82.414C46.5507 82.5484 46.4261 82.4319 46.2349 82.1877C46.3505 82.5349 46.4061 82.7724 46.2282 82.9001C46.246 82.9472 45.8191 83.5767 45.2053 84.3652C44.5916 85.1538 43.8 86.1328 43.124 86.955C42.448 87.7794 41.8854 88.4492 41.7298 88.624C42.0388 88.5568 48.9478 80.3014 41.6186 89.3162C50.3954 79.0289 41.7498 89.5895 41.5941 89.7912C42.826 88.447 46.0837 84.3048 41.8054 90.47C42.1345 90.0757 45.5055 84.8312 44.8718 87.2955C45.0741 86.9841 45.5967 86.041 46.1526 85.1449C46.7085 84.2488 47.2978 83.4042 47.638 83.2922C47.5647 83.0032 47.9538 82.6738 48.463 82.3064C48.6454 82.0869 49.1412 81.6747 49.328 81.4999C49.8573 81.0653 50.4109 80.615 50.4332 80.5613C51.0002 80.1155 51.3449 79.8354 51.0558 80.0617C51.7073 79.5688 51.8408 79.4971 51.2315 80.1065C52.2477 79.1477 52.5657 78.8452 51.5761 79.9698C52.5034 79.0872 52.9459 78.6996 52.8859 78.9976C53.4574 78.7601 53.6308 79.1477 53.7598 80.3238C53.7464 79.0469 53.9599 78.4711 54.189 78.3815C54.6871 77.8864 55.2563 77.7901 56.1302 77.8797C55.3564 77.6915 55.1207 77.631 55.2652 77.6064C55.2874 77.4496 55.7077 77.3241 56.7528 77.0687L56.744 77.0665Z" fill="currentColor"/>
<path d="M122.127 56.1804C121.624 56.326 121.173 56.5545 121.315 56.4829C120.688 56.7315 120.39 56.8346 120.657 56.68C120.132 56.8839 120.063 56.8749 120.53 56.5971C120.212 56.7181 120.537 56.5142 121.313 56.0662C120.655 56.3888 119.803 56.8122 119.874 56.7158C119.347 57.0116 119.114 57.1236 119.287 56.9914C118.978 57.1885 119.056 57.1504 119.521 56.8816C118.936 57.1997 118.333 57.4686 118.482 57.3386C117.933 57.5515 117.657 57.6411 118.022 57.4596C117.586 57.7531 117.54 57.7688 117.949 57.4753C117.673 57.6702 118.151 57.3969 118.749 56.9466C118.142 57.3745 117.684 57.6119 117.94 57.3274C117.553 57.6231 117.64 57.5179 118.007 57.0183C117.744 57.3857 118.04 57.146 118.431 56.6307C118.385 56.7853 118.811 56.3507 119.21 55.7749C118.869 56.2857 118.562 56.6061 118.594 56.438C118.258 56.9085 117.98 57.1325 118.173 56.7517C117.66 57.4663 117.313 57.7464 117.553 57.3386C117.284 57.8046 117.562 57.65 118.262 57.0205C117.753 57.4999 117.239 57.6097 117.375 57.37C116.944 58.0197 117.097 57.4887 117.146 57.2154C117.017 57.603 116.955 57.6119 116.875 57.2132C116.948 57.5335 117.05 57.4686 117.279 56.9802C117.179 57.3342 117.382 57.0944 117.709 56.344C117.373 57.0855 117.159 57.3162 117.215 56.9152C117.001 57.4193 116.886 57.4641 116.688 57.0048C116.839 57.4954 116.61 57.827 116.205 57.0384C116.543 57.5604 116.574 57.3117 116.359 56.4694C116.577 56.9578 116.557 56.2409 116.334 55.3739C116.552 56.2409 116.568 56.9533 116.334 56.4604C116.552 57.3028 116.514 57.5447 116.128 57.0116C116.546 57.8001 116.539 57.8875 116.081 57.3498C116.49 57.7956 116.537 57.7195 116.332 57.0877C116.568 57.5358 116.577 57.1684 116.343 56.2521C116.563 57.1661 116.541 57.5335 116.245 57.081C116.47 57.715 116.399 57.7912 115.863 57.3588C116.381 57.8897 116.223 57.7844 115.42 57.09C116.043 57.5425 115.892 57.2781 115.225 56.5299C115.718 56.9399 115.316 56.2767 114.771 55.5957C115.325 56.512 115.512 56.9511 114.751 56.4403C115.316 56.9443 114.869 56.5702 114.171 56.037C114.504 56.1759 114.366 56.2364 113.873 55.9205C114.093 55.934 113.871 55.7413 113.437 55.4523C113.895 56.3036 112.421 55.1544 111.827 55.0334C111.476 55.0222 110.766 54.601 110.337 54.5405C109.479 54.4218 108.752 54.3188 108.236 54.2471L107.422 54.1328C107.422 54.1328 107.802 54.4397 108.374 54.9012C108.658 55.132 108.992 55.4008 109.348 55.6898C109.703 55.9788 110.124 56.2924 110.466 56.5926C110.882 56.904 112.425 57.5089 111.585 57.4954C112.363 57.724 113.53 57.948 113.228 58.069C114.08 58.1944 113.75 58.2751 112.559 58.284C113.201 58.293 113.944 58.3042 113.475 58.3714C114.369 58.3445 114.884 58.34 114.133 58.4386C115.24 58.3781 115.516 58.3759 114.544 58.5641C115.423 58.4207 115.245 58.4565 114.262 58.6402C115.02 58.4991 114.46 58.5977 113.539 58.759C114.471 58.6021 115.105 58.4968 114.369 58.6559C115.385 58.4632 115.618 58.4252 114.791 58.6223C115.812 58.4072 115.801 58.4229 114.78 58.7029C115.601 58.4856 115.347 58.5573 114.344 58.8284C115.058 58.6357 114.4 58.815 113.508 59.0524C114.4 58.815 115.06 58.6357 114.346 58.8329C115.349 58.5618 115.605 58.4946 114.791 58.7298C115.812 58.4498 115.836 58.4565 114.856 58.7993C115.665 58.5394 115.454 58.6245 114.484 58.983C115.2 58.7388 114.618 58.9718 113.728 59.3145C114.611 58.9807 115.138 58.7769 114.415 59.048C115.358 58.6985 115.529 58.638 114.709 58.9718C115.645 58.629 115.474 58.853 114.506 59.4042C115.218 59.0704 114.811 59.3347 114.013 59.8141C114.484 59.5946 113.846 60.0247 113.283 60.3966C114.084 59.8993 114.669 59.5632 114.104 59.9866C114.753 59.6483 114.391 60.0247 113.81 60.5668C114.008 60.5691 113.455 61.1538 113.019 61.6668C113.859 61.0239 112.863 62.5898 112.719 63.1252C112.625 63.7391 112.445 64.4492 112.323 65.0362C112.08 66.2123 111.898 67.095 111.898 67.095L112.467 66.4968C112.825 66.1182 113.335 65.5828 113.933 64.9533C114.235 64.6307 114.624 64.1692 114.889 63.9452C115.283 63.4747 115.767 61.8035 115.936 62.843C116.085 62.3456 116.143 62.0387 115.987 62.1754C116.17 61.6153 116.23 61.1605 116.034 61.5145C116.277 60.6385 116.41 59.9217 116.232 60.699C116.503 59.8768 116.561 59.9105 116.468 60.7505C116.683 60.0717 116.786 60.5444 116.784 61.3801C116.81 60.4952 116.721 59.7492 116.572 60.3585C116.652 59.384 116.606 59.1084 116.368 59.8164C116.606 58.815 116.666 58.6581 116.559 59.3437C116.737 58.7209 116.846 58.7388 117.055 59.3257C117.015 58.8329 117.264 59.095 117.637 59.9082C117.273 59.086 117.037 58.815 117.117 59.2675C116.895 58.6962 116.801 58.6649 116.73 59.2137C116.786 58.5641 116.841 58.6156 116.95 59.4266C116.957 58.8194 117.13 58.9628 117.457 59.6999C117.348 59.207 117.762 59.7312 118.118 60.5444C117.762 59.729 117.351 59.2003 117.468 59.6819C117.139 58.9471 116.968 58.7926 116.99 59.3638C116.87 58.5618 117.317 58.638 117.482 59.0636C117.371 58.6402 117.495 58.6133 117.975 58.8553C117.686 58.6044 117.998 58.6626 118.707 59.0031C118 58.6514 117.691 58.5842 117.989 58.7746C117.508 58.5551 117.382 58.5573 117.517 58.8082C117.344 58.4968 116.935 58.2975 117.166 58.4274C117.053 58.293 117.253 58.2571 117.746 58.2751C117.508 58.2258 117.987 58.1855 118.663 58.2191C117.746 58.1899 117.426 58.2235 117.893 58.3557C117.48 58.2392 117.906 58.2347 118.72 58.3848C118.345 58.2683 118.683 58.2616 119.223 58.3579C119.098 58.284 119.539 58.3154 120.121 58.4341C119.503 58.3064 119.043 58.2661 119.181 58.3221C118.645 58.2235 118.358 58.2191 118.754 58.293C117.982 58.1653 117.711 58.1541 118.26 58.125C117.798 58.107 117.871 58.0712 118.378 57.9861C118.071 57.9973 118.58 57.8808 119.203 57.7643C118.342 57.9054 118.204 57.9166 118.887 57.7486C118.502 57.818 118.729 57.7486 119.214 57.6231C119.103 57.6343 119.503 57.5178 120.108 57.3521C120.043 57.3476 120.826 57.1191 121.587 56.8883C120.713 57.1124 120.335 57.1953 120.653 57.0608C120.126 57.1908 120.15 57.0519 120.673 56.8234C120.384 56.9152 120.682 56.7853 121.309 56.5209C121.162 56.5702 121.618 56.335 122.12 56.1894L122.127 56.1804Z" fill="currentColor"/>
<path d="M102.346 64.3933C102.37 64.3552 102.283 64.4045 102.105 64.521C102.188 64.512 102.279 64.4874 102.346 64.3933Z" fill="currentColor"/>
<path d="M109.17 63.5061C108.652 62.2471 108.568 62.3367 108.832 63.6137C108.521 62.4689 107.967 62.7467 107.151 63.9587C106.666 63.7884 106.117 63.8534 105.519 64.0438C104.921 64.2342 104.274 64.5478 103.593 64.8794C101.57 65.659 99.9643 66.9405 98.0119 67.7738C97.098 68.1659 96.2574 68.4818 95.5659 68.8335C94.7164 69.1986 93.9226 69.5392 93.1599 69.622C92.3816 69.528 91.4854 69.7184 91.3542 69.4496C91.1297 70.2628 91.6967 70.5473 92.4839 70.7198C92.8552 71.0581 93.4467 71.2866 94.0338 71.5375C94.672 71.589 95.388 71.6495 96.1018 71.7122C98.2432 71.8959 100.369 72.0886 100.369 72.0886C100.369 72.0886 98.2787 71.7861 96.1818 71.468C95.4836 71.3627 94.7831 71.2552 94.1605 71.1544C93.4667 70.8206 92.833 70.5047 92.4661 70.2247C91.9079 70.0298 91.6166 69.8707 91.8968 69.6937C91.5855 69.817 92.6595 69.8595 94.1227 69.5817C94.7787 69.2434 95.5481 68.8536 96.3797 68.484C98.1631 67.8164 99.7642 67.0345 101.583 65.9615C102.041 65.6993 102.481 65.4283 102.942 65.1886C103.411 64.9601 103.873 64.736 104.32 64.5165C105.664 63.8623 106.875 63.2731 107.916 63.8287C108.621 62.4196 109.152 62.1552 109.553 63.3829C109.024 62.1082 108.906 62.1194 109.175 63.4994L109.17 63.5061Z" fill="currentColor"/>
<path d="M112.914 61.5078C112.009 60.6095 111.925 60.6991 112.598 61.7565C112.236 61.2995 111.78 61.2099 111.26 61.4966C110.742 61.7565 110.157 62.395 109.539 63.3941C107.5 63.0178 105.318 64.0909 103.141 65.1662C102.416 65.5246 101.729 65.9346 101.04 66.3154C99.7634 67.0368 98.5626 67.6237 97.1795 68.195C96.6258 68.4347 96.1366 68.6408 95.7364 68.8447C94.9358 69.2524 94.46 69.5033 94.4689 69.5235C94.5289 69.6489 94.6179 69.7318 94.7357 69.7744C94.8536 69.817 94.9736 69.8058 95.1004 69.7453C95.2271 69.6848 95.3005 69.5997 95.3383 69.4809C95.3761 69.3644 95.365 69.2412 95.305 69.1158C95.2983 69.1001 95.514 68.8985 95.9054 68.605C98.5715 66.6223 102.167 65.3656 103.953 62.2561C104.326 61.8371 104.618 61.5033 105.105 61.4249C106.079 61.2704 107.102 61.8058 108.26 63.6316C108.369 61.6579 108.54 60.26 108.576 60.26C109.17 58.591 109.628 58.3199 109.979 60.4123C111.004 58.8934 111.918 59.738 113.157 61.2278C112.683 60.6789 112.28 60.213 111.936 59.8635C112.087 59.682 112.096 59.561 111.84 59.4826C111.415 59.3079 110.366 59.3079 110.232 60.4146C110.435 59.4401 111.113 59.3818 111.411 59.5655C111.709 59.7492 112.274 60.4616 113.003 61.3577C111.669 59.6731 112.191 60.5199 112.91 61.5078H112.914Z" fill="currentColor"/>
<path d="M92.1764 66.1251C91.8184 65.9369 91.6183 66.0355 91.3203 65.9302C95.9833 66.8913 100.488 64.4427 103.419 60.7731C103.904 61.7812 103.795 62.581 103.782 63.5824C104.691 62.3906 105.007 60.9927 105.919 59.8098C106.63 58.8711 107.342 58.2506 107.369 59.5051C107.767 59.0235 108.171 58.6964 108.574 58.5239C109.817 58.1475 111.4 58.8689 110.684 60.464C112.194 58.9809 114.673 59.5118 116.566 59.3371C116.263 59.7336 116.159 60.0338 115.758 60.2287C116.365 59.4357 117.462 59.1489 117.973 58.152C116.979 58.1386 116.074 58.8286 115.274 59.2206C115.874 58.9271 116.675 58.5373 117.275 58.2439C116.074 58.8308 114.867 59.9173 113.472 60.0988C115.067 59.8188 116.172 59.0302 117.475 58.1453C116.875 58.4388 116.468 59.1355 115.772 59.2251C117.573 58.3469 119.083 56.8616 120.199 55.0739C120.375 56.9803 118.774 57.7622 117.864 58.9518C119.272 57.7667 120.484 56.1806 121.498 54.6886C121.88 55.9969 121.169 57.0901 120.459 58.1834C121.073 56.8885 122.085 55.3987 121.407 53.9874C120.29 55.7773 119.272 57.7667 117.366 58.9451C118.669 58.0601 119.483 56.6667 120.593 55.3786C120.175 57.0767 118.967 58.1632 118.058 59.355C118.872 57.9616 120.673 57.0834 120.793 55.2822C120.083 56.3755 119.27 57.7689 118.167 58.5553C120.575 56.8818 121.309 53.7857 121.444 50.9809C122.414 52.9972 121.789 55.2934 120.768 57.285C122.587 54.9036 122.329 51.7941 122.263 49.0879C123.735 50.609 123.808 52.8157 123.781 54.8185C124.115 51.9173 123.559 48.7048 121.195 46.87C123.268 48.0977 124.231 50.6158 124.4 53.0218C124.34 49.8137 122.583 47.1882 120.321 45.0554C122.59 46.6863 124.449 49.0162 124.611 51.9241C124.442 49.518 122.879 47.2934 121.006 45.9672C123.074 47.6967 124.631 50.4209 124.495 53.2257C124.624 50.9227 123.661 48.4046 121.587 47.1769C123.048 49.6995 123.506 52.7126 122.874 55.5085C123.203 53.1069 123.441 50.0042 121.075 48.1716C122.832 50.7995 122.79 54.3055 121.362 56.9915C122.18 55.0985 122.807 52.8023 122.334 50.7927C123.303 52.809 122.678 55.1052 121.858 56.9983C122.676 55.1052 123.103 52.9053 122.029 51.1893C121.798 53.7924 121.269 56.2903 119.456 58.1699C120.966 56.6869 121.489 54.6886 122.011 52.6925C122.187 54.5989 121.567 56.3934 120.65 58.0848C121.16 57.0901 121.373 55.9901 121.882 54.9932C120.281 55.7751 120.057 57.8764 118.456 58.6561C119.165 57.5628 120.566 56.8795 120.288 55.2733C119.47 57.1663 117.669 58.0445 116.261 59.2296C116.563 58.833 116.764 58.7345 117.164 58.5396C116.272 58.2282 115.763 59.2228 114.76 59.3931C114.004 59.653 112.963 59.8524 112.91 60.2265C112.51 59.196 115.46 58.9787 115.427 58.7748C115.394 58.5709 114.547 58.7233 112.541 59.0257C113.175 58.833 112.692 58.8375 111.407 58.8039C110.764 58.7882 110.104 58.795 109.563 58.9159C109.159 59.1108 108.827 59.4133 108.605 59.8367C108.754 57.5942 108.056 58.3962 107.22 59.8882C106.99 60.2489 106.726 60.7821 106.441 61.4497C106.157 62.1173 105.852 62.9193 105.543 63.8176C104.882 62.7938 104.409 60.7843 104.009 60.9792C100.909 62.2427 98.5806 65.6188 94.8003 65.9817C93.037 66.1408 92.1742 66.1229 92.1742 66.1229L92.1764 66.1251Z" fill="currentColor"/>
<path d="M88.8298 70.5294C84.5648 72.8929 85.1274 72.3485 89.2167 68.6812C86.2926 71.383 86.893 70.964 89.7371 68.4146C86.5973 70.861 85.8968 71.3269 88.5897 68.1951C84.5893 72.3373 83.9867 72.8817 86.1347 68.7215C83.244 72.6218 83.1773 71.8444 84.0134 66.0444C83.2973 70.2942 83.4819 69.5191 84.4803 65.4283C83.3329 69.4653 83.1217 70.3143 83.493 66.0354C82.9015 72.0416 79.8418 69.3488 80.2087 65.444C78.9945 69.64 78.4542 69.0329 75.2343 63.831C77.5758 67.7179 77.2378 67.0122 75.0164 63.0693C77.0844 67.2116 77.4491 67.9666 74.7073 64.306C78.3741 69.3824 78.939 70.041 78.6677 68.6431C78.7277 70.8879 77.0933 74.6201 70.8626 73.3118C75.5078 74.1474 74.7162 73.7868 70.0977 72.288C74.6651 73.9369 75.4812 74.3468 70.7959 74.1318C77.1889 74.945 78.9234 71.2911 81.0648 73.6299C79.1146 71.9453 77.5469 76.2018 72.4681 79.999C75.9993 76.8335 75.1743 77.0486 70.7425 79.0827C75.1743 77.0486 76.0971 76.9097 73.0529 80.6218C77.8671 76.4818 79.5571 72.3507 83.4886 75.8052C80.0997 72.7092 78.8767 77.2972 77.736 83.2787C77.9383 78.6862 77.3846 79.3314 75.4745 83.4737C80.3154 74.6112 77.8471 73.2469 78.5698 83.272C79.2036 77.0755 83.5019 75.9822 88.9477 77.9716C84.2958 76.092 81.3872 73.3275 83.9711 78.5428C81.514 75.0077 81.5028 75.8836 82.4346 79.9632C81.6029 75.8366 81.7141 74.9114 84.5915 78.1485C81.7119 73.108 84.6471 75.7985 89.8572 76.0539C85.203 75.1533 85.819 75.6619 90.6866 78.2382C86.8975 76.8783 87.36 77.5862 90.4198 79.9318C87.3111 77.4854 86.8241 76.7282 90.8178 77.7923C85.7745 75.3124 85.2097 74.6537 89.9261 72.7182C85.3164 74.1026 86.088 74.0377 91.4426 73.4059C87.629 74.0309 88.4007 74.0914 92.1008 74.1698C88.4496 74.1922 87.5579 73.8808 91.3114 72.7562C85.5121 73.5605 84.2624 73.6658 88.8343 70.5294H88.8298Z" fill="currentColor"/>
<path d="M86.1101 52.1816C86.7972 51.3482 87.1374 50.9607 87.1152 50.9898C87.093 51.0189 86.7083 51.467 86.0078 52.334C86.6927 51.5275 87.0752 51.1085 87.0996 51.0794C87.1241 51.0503 86.7928 51.411 86.1101 52.1816Z" fill="currentColor"/>
<path d="M88.5591 50.0131C89.1417 49.5718 89.3463 48.9736 89.8511 48.4785C89.1484 49.0699 88.6436 49.565 88.2367 50.2618C88.7392 49.7667 89.1462 49.0699 89.7466 48.7787C89.1462 49.0722 88.8371 49.9705 88.3323 50.4634C88.6347 50.0669 88.8415 49.4687 89.4419 49.1752C88.9327 50.1699 87.932 50.6583 87.4228 51.6552C87.623 51.5566 87.9254 51.1601 88.0299 50.8622C87.8164 51.9621 86.9136 52.6521 86.6045 53.5505L86.7068 53.2503C84.4742 56.828 85.4193 60.8492 87.2094 64.4807C86.6534 64.8683 85.9686 65.444 85.913 65.1013C86.2576 66.0511 86.8313 65.8316 87.5385 65.3141C87.9454 65.3701 88.2367 65.4127 88.7215 65.4776C90.6316 65.5269 92.6195 65.5516 94.414 65.173C92.0258 65.3432 89.4352 65.6098 87.1515 65.0273C86.5934 65.3343 86.2776 65.4216 86.4333 64.9534C86.2198 65.4015 86.9447 64.7495 87.6496 64.2029C85.2259 60.446 84.5921 55.5286 87.5207 51.8591C87.1204 52.054 87.0181 52.3542 86.9136 52.6521C87.5207 51.8591 88.1277 51.0638 88.637 50.0691C88.3345 50.4656 88.0299 50.8622 87.7275 51.2609C88.5347 50.3693 88.7459 49.2693 89.7777 48.6891C89.9089 48.5009 89.5309 48.9131 88.5591 50.0176V50.0131Z" fill="currentColor"/>
<path d="M91.6488 48.0864C91.7221 45.8551 91.7533 45.1785 91.8333 43.4446C91.651 45.2189 91.5153 45.938 90.8727 48.2634C91.4575 46.0679 91.542 45.4631 91.482 44.0383C91.5153 44.7865 91.5109 45.3286 91.4308 45.985C91.3508 46.6414 91.1951 47.3986 90.8104 48.3351C91.204 47.4322 91.3619 46.7848 91.4153 46.3816C91.4686 45.9783 91.4264 45.8372 91.3174 45.7095C91.3686 46.1262 91.3575 46.5563 91.2352 47.3046C91.1729 47.6787 91.0261 47.9901 90.806 48.3799C90.5391 48.8929 90.0366 49.3858 89.7319 49.7845C89.9321 49.686 90.0344 49.388 90.2345 49.2894C89.6274 50.0825 89.0204 50.8778 88.5112 51.8725C88.6134 51.5723 88.5178 51.3706 88.9181 51.1757C86.2853 54.9506 85.8227 60.1547 88.0575 64.2902C86.0229 60.0561 86.0963 54.0455 89.6208 50.5843C89.4206 50.6829 89.2205 50.7792 89.1182 51.0794C89.8209 50.488 90.1322 49.5896 90.7371 48.7943L90.5303 49.3925C91.0395 48.3978 91.6465 47.6025 91.6065 46.6795C91.7466 45.817 91.8578 45.1853 92.0023 44.4169C91.8266 45.4003 91.7866 45.8327 91.6443 48.0886L91.6488 48.0864Z" fill="currentColor"/>
<path d="M99.2236 24.4629C98.4075 24.138 97.3157 23.9252 97.498 25.3299C96.1416 22.5071 93.6867 19.9712 90.509 19.5298C91.7098 18.9429 92.7105 18.4545 94.0024 18.5732C92.815 18.1565 91.5097 19.0437 90.509 19.5298C93.382 20.3677 96.146 22.0053 97.3046 24.9266C97.3357 22.422 95.0698 20.7911 93.9001 18.8712C94.8941 18.8846 97.3691 19.9174 97.1044 18.1722C97.0066 17.471 96.8532 16.781 96.6397 16.1134C95.9993 14.1129 94.8274 12.3184 93.1018 11.0437C94.9408 12.4707 96.3284 14.5587 96.9332 16.9042C97.0844 17.4912 97.1867 18.0938 97.229 18.6987C96.2772 19.7001 95.1921 18.9854 94.1981 18.9742C98.5142 23.8378 99.3036 32.1649 93.6778 36.4214C93.0285 36.968 92.6504 37.3646 92.268 37.7208C91.5586 38.581 90.6803 39.1254 89.3639 38.8274C91.7298 38.8185 92.5126 38.1397 92.5637 37.4878C92.4258 38.6057 91.5564 39.7527 89.4661 39.439C90.8893 40.6869 91.0916 40.4763 90.7358 38.7222C90.8092 40.9019 90.3267 41.5426 88.7724 40.082C90.2933 41.8048 90.1555 42.1587 88.4833 40.6958C89.4261 43.3573 89.097 43.868 86.6154 42.9182C88.2987 45.08 87.8295 45.779 84.7987 46.5026C87.109 46.8812 86.6977 47.5152 84.196 48.8817C85.6992 49.0363 85.1122 49.9235 83.7469 51.234C83.4533 52.4303 82.486 53.891 81.7945 54.9349C81.1029 55.9789 80.6893 56.6062 80.6893 56.6062L80.2891 57.5045L81.5588 55.793C82.3393 54.74 83.4133 53.2906 84.007 52.1301C85.1722 50.9226 85.7815 50.0982 84.583 50.2707C86.9111 48.6174 87.4293 47.9588 85.3212 48.0708C88.6011 46.3794 89.2527 45.4586 87.7806 43.5992C90.0799 44.7485 90.2511 44.9613 88.2565 45.49C90.5468 45.0106 90.9404 44.1436 90.8782 41.0632C91.4719 43.0974 91.6098 42.9182 91.5697 40.5816C92.3436 42.1094 92.4414 42.842 93.2241 42.5216C92.4236 43.4401 92.5326 42.4477 92.3636 40.5681C92.5415 41.8608 92.895 40.9871 93.4176 38.8947C93.0351 40.6577 92.8216 41.2044 92.5837 40.1828C93.024 41.0453 93.6711 39.7908 94.6339 38.1106C94.9141 38.3435 95.5123 38.1509 96.4662 38.189C96.9732 39.0044 97.836 40.0529 99.5216 41.462C97.9094 39.6989 97.1556 38.2629 96.5063 37.3534C95.768 36.6141 95.1365 36.4012 94.3249 36.6118C93.4421 37.0845 92.3814 37.9784 90.6892 38.0053C91.3785 38.0053 91.9633 37.732 92.4748 37.3377C97.3802 34.8465 98.2496 28.9456 98.3497 23.8983C98.5565 24.0731 98.9012 24.4091 99.2236 24.4629Z" fill="currentColor"/>
<path d="M73.0177 50.7681C72.8776 50.5329 72.8821 50.6449 72.9621 50.9653C72.9666 50.7502 72.9999 50.6292 73.0177 50.7681Z" fill="currentColor"/>
<path d="M76.2374 61.4047C76.462 62.0925 76.4842 61.8191 76.462 61.0306C76.631 60.8469 76.7577 60.1502 76.949 59.3123C76.7333 58.6021 76.4842 57.7732 76.2174 56.8839C75.7749 55.403 75.2879 53.7564 74.8321 52.2241C74.6052 51.4579 74.3851 50.7186 74.2606 50.1608C73.9848 49.3812 73.8003 48.7853 74.4007 49.2804C73.867 48.2409 73.5512 47.5599 73.5401 48.0169C73.489 47.3426 73.7425 47.8041 74.3517 49.0496C73.7091 47.8646 73.3844 47.3022 73.3844 47.9721C73.3578 47.356 73.658 47.9721 74.2583 49.1437C73.6935 48.1065 73.4289 47.6114 73.4689 48.0863C73.4801 47.6271 73.7958 48.1356 74.3895 49.1034C73.8603 48.1715 73.6491 47.8758 73.6757 48.27C73.6802 48.1647 73.9226 48.7495 74.3028 49.5828C74.0738 49.6836 74.3362 50.5618 74.623 51.5296C75.1967 53.463 75.875 55.7548 76.4687 57.7464C76.6599 58.6671 76.8022 59.5341 76.6755 60.3652C76.1663 61.1874 76.651 62.1955 75.8283 61.8572C76.8934 62.6996 77.1513 62.0768 77.2803 60.9611C77.6428 60.8357 77.8763 60.2151 78.3855 59.8298C78.848 59.1398 79.1282 58.4252 79.3795 57.7172C79.9309 55.6248 80.4868 53.5503 80.4868 53.5503C80.4868 53.5503 79.8286 55.5711 79.1526 57.5963C78.8702 58.284 78.5856 58.9718 78.1142 59.6394C77.6428 60.307 77.2447 60.9141 76.8556 60.9813C76.6755 61.8012 76.502 62.079 76.2396 61.4069L76.2374 61.4047Z" fill="currentColor"/>
<path d="M66.1442 30.3009C67.4784 31.8624 67.912 32.4449 66.8113 30.1397C67.7141 32.1716 67.5451 32.6644 65.6928 31.5085C66.7758 32.7854 66.1776 32.4135 64.9701 31.3718C66.0019 32.7966 66.52 33.5897 65.0368 32.5569C67.2049 33.8361 67.3739 33.2872 66.2977 30.6684C67.7208 34.1116 67.8987 35.4849 64.5499 34.4096C67.7764 35.8546 67.4762 34.8487 65.6417 31.4144C67.0026 34.1004 67.0115 35.6507 63.8472 36.7574C66.6601 38.4757 66.2977 39.7504 64.1629 41.5045C65.0924 41.9682 64.2497 42.9136 63.1089 43.6686C61.9682 44.4236 60.5339 44.9859 58.7461 45.3331C60.7207 45.3331 62.3151 45.1293 63.6404 44.9366C64.9657 44.7417 66.0219 44.5557 66.3577 45.2054C67.8209 44.6162 68.5636 44.8604 68.7081 46.6347C69.96 46.1979 70.6138 47.2889 71.3343 49.0116C70.4026 46.5294 69.9511 45.6109 69.4175 47.0066C69.7266 46.3188 69.9556 47.9475 70.3848 50.5597C69.7733 47.5779 69.9645 48.5345 70.4648 51.0615C70.2736 50.5507 70.3892 51.6103 70.4982 52.6073C70.9362 56.5972 71.2653 59.5902 71.2653 59.5902L71.5322 60.5378L71.1275 53.3197C71.0719 52.3362 71.0141 51.3101 71.1853 51.1175C70.8784 49.3342 70.8006 48.3844 71.7923 50.3132C71.2409 48.3642 70.9585 47.1365 70.9296 47.6428C71.252 46.5944 71.8301 47.2821 73.002 49.1684C72.0481 47.551 71.3587 46.4667 70.4871 47.2799C70.3536 45.4631 70.0356 45.5415 69.4864 47.1231C69.6176 46.964 69.5175 48.3082 69.4486 50.3334C69.4931 47.8713 69.5709 46.0903 69.0684 46.5496C70.1891 43.5163 70.7339 42.721 70.3914 46.3144C72.6907 41.7442 74.1072 41.5605 78.7836 44.8044C74.5163 41.3544 73.1755 41.5202 70.8006 46.3323C70.8384 42.3805 69.8422 43.0749 67.7075 45.7095C67.9232 44.9052 67.0003 46.0433 65.9797 47.3628C64.959 48.6801 63.8383 50.1788 62.4841 51.8164C63.458 50.6 64.2964 49.4418 65.0524 48.3194C65.8085 47.197 66.4778 46.115 66.6735 45.584C67.7519 43.9845 68.3546 42.9405 66.5801 44.278C69.5954 40.8503 70.2291 39.8064 65.8641 41.0654C71.6322 37.6804 72.3994 36.6006 73.5579 29.8215C71.9725 36.8112 71.0785 37.6132 64.9924 38.1307C69.8489 38.0903 69.5153 37.7677 64.641 35.7986C69.1328 35.9307 69.0861 34.4163 67.4228 30.1374C68.4835 34.6672 67.9365 35.6462 64.3453 34.5485C66.4266 35.4827 65.466 34.3424 63.945 32.4202C65.5839 33.6681 66.5223 34.0982 65.0769 32.6129C67.6497 33.6569 67.8387 32.7854 66.8469 30.1733C68.0277 32.7204 67.4851 31.8624 66.1509 30.3009H66.1442Z" fill="currentColor"/>
<path d="M76.9494 58.9516C77.0828 58.9136 77.1806 58.8396 77.2407 58.7299C77.3007 58.6201 77.3118 58.4991 77.274 58.3647C77.2385 58.2348 77.1651 58.1407 77.0583 58.0824C76.9494 58.0242 76.8293 58.013 76.6959 58.0511C76.6625 58.06 76.3623 57.1169 75.9287 55.6943C75.4951 54.2717 74.9303 52.3765 74.3722 50.4857C74.0875 49.5336 73.8073 48.586 74.4767 49.1079C73.8629 48.1782 73.4871 47.6159 73.4382 48.0572C73.3604 47.4882 73.6094 47.9251 74.2432 48.9959C73.3982 47.2194 72.9379 46.0769 73.0958 47.4972C73.2803 45.2793 74.0809 45.6266 75.9576 47.5308C73.8785 45.4025 72.8734 44.8335 72.362 47.3628C72.2108 45.5974 72.5532 46.9304 73.3693 49.3096C72.5354 46.9618 72.1596 45.6019 72.2797 47.3493C72.7978 44.7641 73.8073 45.2838 75.9688 47.4815C73.814 45.3129 72.8089 44.8245 72.2997 47.3672C72.1707 45.6893 72.5399 47.0446 73.3515 49.3499C72.5576 47.1119 72.2063 45.8215 72.342 47.4143C72.8134 45.0643 73.7695 45.5997 75.7486 47.6383C73.8251 45.631 72.9268 45.127 72.5576 47.4389C72.4331 45.8595 72.8378 47.0962 73.6873 49.1953C72.8712 47.1163 72.5132 45.9604 72.6733 47.486C73.0157 45.3824 73.8763 45.9604 75.5996 47.7996C74.0631 46.1844 73.3915 45.8304 73.2892 47.6137C73.1514 46.4667 73.585 47.4591 74.3655 48.987C73.8007 48.1805 73.585 47.9116 73.6272 48.279C73.6472 48.1581 73.9252 48.6711 74.3521 49.4328C74.0431 49.4036 74.3277 50.3625 74.6123 51.3213C75.7486 55.1522 76.8871 58.9718 76.9516 58.9539L76.9494 58.9516Z" fill="currentColor"/>
<path d="M60.6675 63.7973C60.583 63.7727 60.6586 63.8488 60.8342 63.9855C60.792 63.8757 60.7364 63.7749 60.6675 63.7973Z" fill="currentColor"/>
<path d="M60.2222 61.4249C58.2476 60.7663 58.3165 60.8626 60.2111 61.687C58.5456 61.0194 58.6634 61.0485 60.3356 61.6624C58.8102 61.0217 59.4017 61.4025 60.7915 62.2202C61.2429 62.6145 62.4926 63.4434 63.8379 64.335C65.181 65.2266 66.6197 66.181 67.9139 67.0368C68.6544 67.6147 69.3437 68.1547 69.7751 68.8402C70.102 69.2681 70.3421 69.6735 70.0063 69.7251C70.8291 70.4554 71.0737 70.834 69.9997 70.5114C71.425 70.5383 71.3072 69.911 70.5889 68.8626C71.0137 68.652 70.8358 68.018 70.7646 67.3504C70.6601 66.5372 70.391 65.8337 70.1242 65.1303C69.2125 63.1701 68.3141 61.221 68.3141 61.221C68.3141 61.221 69.0991 63.1947 69.8729 65.1841C70.102 65.8897 70.331 66.5954 70.4288 67.3885C70.5267 68.1815 70.6267 68.8962 70.2687 69.1247C70.7757 69.9379 70.8247 70.265 70.0553 69.8505C70.8069 70.3008 70.6468 70.0656 70.0086 69.4182C70.1086 69.23 69.7306 68.6318 69.2836 67.9239C68.6655 67.5207 67.945 67.0457 67.1734 66.5372C65.8903 65.6904 64.465 64.745 63.1374 63.8645C61.8099 62.9841 60.5802 62.1687 60.5735 61.9648C58.7857 60.9903 58.2209 60.6274 60.2222 61.4249Z" fill="currentColor"/>
<path d="M66.3549 72.3015C63.8399 68.39 60.1975 65.4374 56.6641 62.2764C56.1749 61.7611 55.8458 61.3601 55.7191 61.0868C55.4389 60.5289 55.9726 60.4774 57.6536 61.033C55.937 60.0226 54.7295 59.2834 55.1164 58.8644C53.1596 58.0176 52.7972 57.4889 54.9319 56.8437C52.7349 56.3195 53.0373 55.6765 54.8385 54.4556C53.0373 55.6765 52.497 56.1336 54.6561 55.8042C51.205 56.2769 50.4512 55.961 53.4998 53.4228C48.5033 54.6012 47.3091 53.5572 46.0617 47.7729C46.4997 53.1742 46.4664 53.4094 46.8911 48.1179C45.697 53.0868 44.961 52.529 43.3555 47.6362C44.961 52.529 45.439 52.9479 45.6659 47.858C45.6525 53.2122 45.3879 53.0577 43.7468 47.6766C46.2885 53.9224 47.4537 54.944 52.7949 53.0173C48.4788 56.5166 48.3409 57.07 53.4198 58.9272C48.9991 58.161 50.2222 58.7278 54.1469 60.4729C52.3658 60.007 53.2841 60.7149 54.6117 61.779C54.9052 62.1218 55.301 62.5541 55.7769 63.0627C56.2527 63.5712 56.7909 63.9566 57.4113 64.4449C57.5202 64.5054 57.4224 64.3038 57.4224 64.3038C60.58 66.2483 63.4352 68.5872 65.7211 71.6698L66.3504 72.306L66.3549 72.3015Z" fill="currentColor"/>
<path d="M59.7259 59.7516C55.73 58.9115 56.5749 59.4626 60.1817 61.1249C59.0788 61.1159 60.7377 62.2181 62.3943 63.3159C65.7098 65.5158 69.0186 67.7023 69.0564 67.6463C69.1342 67.5298 69.1609 67.4111 69.1387 67.2879C69.1164 67.1646 69.0453 67.0638 68.9319 66.9854C68.8207 66.9093 68.7073 66.8846 68.585 66.9093C68.4649 66.9339 68.3648 67.0056 68.287 67.1198C68.247 67.1781 64.9559 65.0028 61.676 62.8297C60.0372 61.7432 58.3984 60.6544 60.0661 60.7665C55.9479 59.0392 55.134 58.5083 59.5324 59.1288C57.3466 58.8914 56.2703 58.7973 56.3014 58.8824C56.297 58.9608 57.3999 59.2207 59.568 59.6911C57.5133 59.2991 56.5171 59.1109 56.5505 59.1221C56.5838 59.1333 57.6512 59.3439 59.7237 59.7494L59.7259 59.7516Z" fill="currentColor"/>
<path d="M57.9294 79.7884C57.8871 79.8176 58.025 79.8288 58.3074 79.8243C58.1784 79.7616 58.0383 79.7168 57.9294 79.7884Z" fill="currentColor"/>
<path d="M54.2678 78.5496C53.9698 78.6863 53.872 78.4846 53.6719 78.581C53.9698 78.684 54.17 78.5877 54.4657 78.6907C54.4657 78.6907 54.0655 78.8856 54.2656 78.7893C59.0443 78.4488 63.3359 77.1001 67.9945 75.9083C68.3614 76.1839 68.8373 76.3049 68.7328 76.5177C69.8579 76.5311 70.405 76.6387 69.3265 77.2973C70.4094 76.3877 69.8424 75.98 68.646 75.6126C68.7572 75.1511 68.2502 74.7277 67.8922 74.1945C66.3712 73.1326 64.49 72.306 63.3159 70.8901C64.4922 72.3082 66.2667 73.4328 67.6854 74.5171C68.1946 75.0593 68.7128 75.5521 68.5882 75.9711C69.4821 76.2802 69.7245 76.5132 68.8884 76.6902C69.7356 76.5692 68.6283 76.1503 67.1028 76.0024C66.3712 76.0943 65.9776 76.3429 65.2594 76.5692C61.9372 77.7857 58.5484 78.4443 55.1462 78.5317C53.8453 78.525 53.1315 78.4936 54.27 78.5518L54.2678 78.5496Z" fill="currentColor"/>
<path d="M54.0087 78.5989C53.1726 78.5743 52.3787 78.4645 51.3825 78.4511C52.2809 78.2629 53.1704 78.5743 54.0687 78.3839C53.3705 78.4757 52.481 78.1643 51.5827 78.3525C56.8461 79.0201 61.9338 77.7812 67.026 76.0428C67.026 76.0428 66.7347 75.4379 66.5346 75.5365C62.0228 78.4847 56.1523 78.6101 50.9867 78.1442C51.974 78.6572 52.8791 77.9672 53.8664 78.4802C52.968 78.6684 51.9807 78.1554 50.8711 78.3368C50.8933 78.3727 51.8428 78.4578 54.0065 78.5945L54.0087 78.5989Z" fill="currentColor"/>
<path d="M67.357 81.5873L65.2512 81.3364C63.9548 81.1818 62.4005 81.3252 60.4414 81.3991C57.7152 81.3364 54.7333 81.2983 51.9626 80.1625C52.8543 80.4738 53.448 80.6822 54.3397 80.9936C52.6541 80.5724 51.0709 79.8511 49.3876 79.4276C51.0731 79.8488 52.6563 80.5702 54.3397 80.9936C52.6541 80.5724 50.7685 80.2476 49.1874 79.5262C49.3876 79.4276 49.6855 79.5329 49.8523 79.515C48.2268 79.6226 47.0749 79.7883 46.8481 79.8667C46.6213 79.9452 47.324 79.9339 49.2363 79.8152C43.1902 80.6956 41.985 81.1437 40.2639 86.6279C39.1743 82.3512 37.5688 83.1062 32.8546 85.8706C37.5821 82.6133 38.6561 81.6814 33.5684 82.2437C37.4732 81.1168 38.6384 80.6553 37.0996 80.2117C36.7149 80.102 36.1612 79.9922 35.4696 79.8107C35.2962 79.5755 35.2806 79.2148 35.5719 78.5248C37.4064 75.0681 38.0558 70.7668 35.9121 67.3347C33.4995 63.4725 28.9899 61.6108 24.6515 61.9088C23.2061 62.0074 21.7785 62.3456 21.6073 61.519C19.5504 63.3694 18.7477 64.0102 20.0863 61.5235C17.4112 65.5985 16.8776 66.5417 19.1301 63.9698C16.2549 68.5893 16.1682 69.5638 18.1384 74.7455C16.4439 71.4209 16.8042 72.3036 18.9989 76.7124C18.0294 73.8203 18.7699 74.2056 20.9869 76.3719C20.3821 74.5999 21.2515 74.6111 22.9459 75.319C21.5406 75.216 20.8446 75.3078 21.1203 76.6251C19.4036 75.1375 18.6609 74.8777 19.0323 77.333C18.5609 74.9292 19.3036 75.1891 21.0069 76.699C20.7423 75.3571 21.4405 75.2652 22.768 75.4758C21.0536 74.4587 20.2086 74.3736 20.9624 76.289C18.6476 73.9524 17.9316 73.6186 18.9456 76.6363C16.7553 72.0325 16.4039 71.0715 18.3385 73.8942C16.1482 69.1314 16.2438 68.1524 18.95 63.2238C16.8709 66.3355 17.4001 65.4954 20.1708 61.5615C19.1457 63.813 20.322 63.0827 22.37 61.7811C22.857 62.1082 24.2157 61.8662 25.5832 61.8528C28.3183 61.8259 31.0912 62.7108 33.2593 64.3932C37.9868 68.0606 38.2025 74.6761 35.036 79.4254C35.0138 79.8242 35.1072 79.9653 35.2117 80.0213C35.6364 80.2521 35.7543 80.3932 35.5764 80.5209C35.3985 80.6486 34.9426 80.736 34.2711 80.7808C34.3445 80.3193 34.3889 79.8555 35.0849 78.7981C37.7934 75.3705 37.6555 70.4599 35.414 66.8239C34.2444 64.9063 32.4677 63.7816 30.5887 62.955C29.17 62.4016 27.6824 62.0499 26.2058 61.9491C24.7293 61.8483 23.2661 62.0006 22.5412 61.8013C20.5199 62.9169 19.2391 63.6808 20.1641 61.5615C17.2934 65.6276 16.7397 66.6447 19.1146 64.2812C16.1971 68.7886 16.2082 69.9177 18.4008 75.3661C16.7953 72.0101 17.369 72.9757 19.8061 76.6564C17.1044 72.7718 16.5129 71.5397 18.4919 74.1854C16.1838 68.9522 16.4484 67.5968 19.4637 62.3188C17.6403 65.2065 18.572 64.1715 21.256 61.5705C20.8112 62.8318 21.9764 62.3994 23.3996 61.9894C24.3958 61.9558 25.6521 61.9424 26.9041 62.088C28.1538 62.2336 29.399 62.5383 30.5887 62.955C32.4677 63.7794 34.2444 64.904 35.414 66.8239C37.6555 70.4599 37.7934 75.3705 35.0872 78.7914C34.3778 79.8578 34.3289 80.3238 34.2511 80.7852C34.9093 80.7449 35.3473 80.6643 35.503 80.5455C35.6586 80.4268 35.5163 80.3014 35.0716 80.084C35.0093 79.8152 35.0494 79.4613 35.334 78.834C38.6072 73.9771 37.7 66.9516 32.1719 63.6741C29.9505 62.3927 27.4711 61.7363 25.0718 61.8192C23.871 61.8595 22.6902 62.0858 22.3233 61.7139C20.451 62.9371 19.3925 63.5621 20.3242 61.4518C17.6825 65.1437 17.051 66.0129 18.9522 62.7847C16.2305 67.906 16.0437 68.932 18.0828 73.6567C16.3105 71.5397 17.0421 72.6777 19.7839 76.5534C19.139 74.2056 20.4999 74.5976 22.7658 75.4713C21.1892 75.2585 20.342 75.4221 20.5044 76.9432C18.7032 75.2249 17.9116 74.8642 18.254 77.4137C16.4017 73.6948 15.7835 72.8077 15.1298 76.5467C15.0475 70.8609 14.9318 69.8012 12.5703 68.2935C15.1075 67.6887 15.3966 66.6357 16.1927 61.0261C15.5278 66.5708 15.2609 67.5565 13.1729 67.2899C15.0163 69.557 15.0364 70.5696 14.7762 76.2778C15.5656 72.4694 16.0726 73.3565 17.767 77.4204C17.5157 74.5596 18.3563 75.021 20.2775 76.9992C20.1419 75.3952 21.087 75.3078 22.7636 75.4736C20.829 74.6872 19.8284 74.4296 20.5822 76.3966C18.1072 73.4797 17.3912 72.7875 18.6898 76.1681C16.4084 71.0894 16.146 70.0835 18.7165 69.5346C16.2527 68.0807 16.5129 67.207 19.179 62.2336C17.3045 65.6388 17.836 64.9443 20.3242 61.4495C19.5682 63.412 20.8446 62.7265 22.7102 61.7968C23.5352 61.8976 24.9472 61.752 26.3526 61.8438C29.1589 62.0298 31.9296 63.1678 34.0465 64.9981C37.6822 68.4504 38.2092 74.1675 35.563 78.3949C35.1583 79.1812 35.0961 79.571 35.1539 79.8488C35.8032 80.0124 36.3168 80.102 36.6682 80.1759C37.7178 80.3977 37.2486 80.5523 35.2361 80.7696C34.9404 80.7494 34.6847 80.5702 34.5757 79.9967C36.2857 76.8513 37.422 73.5604 36.9684 70.0477C37.6221 73.4618 36.1901 76.6497 34.6113 79.7122C34.5068 80.1289 34.5068 80.447 34.5535 80.7516C34.8559 81.0474 35.1783 81.1504 35.4096 81.2669C37.024 81.6298 35.4896 82.3579 31.8473 83.8611C36.8772 82.1294 38.4605 81.6433 35.9077 84.2778C41.2445 81.0854 42.4497 81.0138 48.9406 81.883C44.8691 81.3565 46.081 81.771 49.8901 83.0524C48.905 83.1599 50.515 84.1322 52.5163 85.4204C51.8447 84.6049 51.3466 83.9283 51.0598 83.3795C50.7729 82.8306 50.6951 82.4072 50.853 82.107C50.8418 81.9502 50.5505 81.3453 50.7507 81.2467C53.637 81.0832 56.6078 82.1227 59.5453 81.8494C61.6066 81.7508 63.1498 81.4775 64.3929 81.5581C65.6359 81.6388 66.3808 81.6881 66.3808 81.6881L67.3526 81.5873H67.357Z" fill="currentColor"/>
<path d="M64.8687 91.3707C64.8554 91.411 64.931 91.3393 65.0799 91.1758C64.991 91.2139 64.9021 91.2676 64.8687 91.3707Z" fill="currentColor"/>
<path d="M62.3428 92.4772C61.967 93.0507 62.0159 92.9387 62.3294 92.3607C62.0159 92.7908 62.4917 92.2688 63.2433 91.4601C64.7465 89.8426 67.3549 87.0737 69.4785 84.7998C70.1145 84.1188 70.7082 83.4803 71.213 82.9359C72.1224 82.5192 72.923 82.1272 72.9074 82.8418C73.0786 81.6791 72.4827 81.5985 71.4398 81.995C71.2797 81.5402 70.6704 81.5671 69.9988 81.7284C69.3807 81.8987 68.6891 82.0891 67.9975 82.2773C65.9229 82.8418 63.8615 83.3952 63.8615 83.3952C63.8615 83.3952 65.9273 82.9605 68.0064 82.5371C68.7002 82.396 69.394 82.2571 70.0122 82.1339C71.3019 81.9412 72.6205 82.0846 72.2003 82.6514C72.6806 82.1384 71.5888 82.5103 70.5837 83.599C68.5735 85.7743 65.1913 89.3655 63.1855 91.5161C62.1827 92.5914 61.5245 93.3083 62.1515 92.4189C61.6712 93.3061 61.778 93.2546 62.3472 92.4794L62.3428 92.4772Z" fill="currentColor"/>
<path d="M74.3932 86.8206C68.8785 87.0894 65.9366 91.7603 62.5033 95.4052C62.0608 95.7054 61.7183 95.8891 61.5315 95.9048C61.158 95.934 61.4159 95.2843 62.6812 93.4898C57.967 98.5215 57.2843 98.9717 60.4153 92.3742C59.6325 94.023 58.9632 95.347 58.2672 96.4649C57.9203 97.025 57.5423 97.5313 57.1176 98.0107C55.8434 98.3333 54.5603 98.797 53.3462 99.3974C52.1321 99.9978 50.9869 100.742 50.0107 101.57C48.9878 102.502 48.1339 103.519 48.0406 102.484C46.8642 105.829 46.4506 107.12 47.1578 103.916C46.2861 109.649 46.4706 110.72 50.5444 112.333C47.2111 112.718 47.767 113.645 51.3649 117.635C49.1546 115.274 49.9863 115.975 52.479 118.052C49.6661 116.255 48.6054 115.59 50.0752 118.473C46.8865 113.816 46.2305 112.707 45.7969 111.549C46.1304 112.756 46.6886 113.789 49.5593 118.639C48.1829 115.487 49.119 116.15 51.8452 118.496C51.4272 117.098 52.5991 117.192 54.1556 117.317C54.8494 116.849 55.9301 116.412 56.973 115.841C58.0159 115.267 59.0188 114.557 59.9883 113.834C59.7748 114.934 58.872 115.624 58.265 116.417C58.9743 115.323 60.2796 114.439 60.2974 112.935C60.2841 113.937 59.4791 114.828 59.1678 115.727C59.7748 114.934 60.6777 114.244 60.2974 112.935C59.2945 113.589 58.2361 114.302 57.1309 114.878C56.0257 115.453 54.8739 115.895 54.4314 116.435C52.499 116.132 51.276 115.928 52.5012 117.353C49.1035 114.665 48.3608 113.919 51.6362 115.917C47.2556 112.192 46.8931 111.206 49.2903 106.427C46.564 109.154 46.5996 108.085 47.7426 103.215C47.2623 105.605 47.9561 104.317 49.1969 102.265C49.7461 102.104 50.8446 101.176 52.0676 100.453C54.5159 99.0031 57.4667 98.3579 60.3174 98.6828C60.7177 98.452 61.1268 98.2145 61.576 97.9704C61.974 97.715 62.3943 97.4484 62.8324 97.1683C63.2371 96.8681 63.5284 96.5478 63.8353 96.2005C63.4483 96.5814 63.0614 96.8838 62.6834 97.1213C62.2765 97.3588 61.9451 97.5335 61.7005 97.6545C61.2091 97.8942 61.069 97.9166 61.2024 97.7665C61.3359 97.6164 61.7428 97.2893 62.3143 96.8323C65.423 92.764 67.9713 87.7861 73.6327 87.058L74.3888 86.8295L74.3932 86.8206Z" fill="currentColor"/>
<path d="M60.9571 92.1658C59.0692 95.9989 59.1759 95.9474 61.2795 92.3137C59.3672 95.748 59.4161 95.636 61.2395 92.2554C59.4161 95.4814 60.101 94.7376 61.94 92.3764C62.149 92.5399 63.5143 91.086 64.8774 89.6321C67.6036 86.7242 70.3165 83.8231 70.2676 83.776C70.1675 83.6797 70.0563 83.6304 69.9318 83.6326C69.8073 83.6349 69.6961 83.6864 69.6005 83.785C69.5071 83.8813 69.4626 83.9911 69.4671 84.1143C69.4715 84.2375 69.5227 84.3473 69.6227 84.4459C69.6716 84.4951 66.9743 87.3828 64.2793 90.2593C62.9317 91.6976 61.5842 93.1336 61.7332 92.3585C59.5784 95.2842 58.9202 96.0011 60.9549 92.1658H60.9571Z" fill="currentColor"/>
<path d="M82.4921 96.7942C82.501 96.8569 82.5121 96.6777 82.5188 96.3125C82.4944 96.4604 82.4721 96.6306 82.4921 96.7942Z" fill="currentColor"/>
<path d="M97.1287 87.1319C97.1287 87.1319 93.1284 83.3526 91.2427 81.8001C91.7074 81.7889 94.4781 83.9731 94.6738 83.8297C94.9473 83.6304 95.143 83.3929 95.2631 83.1173C95.3832 82.8395 93.393 80.3618 93.3463 80.0549C93.2996 79.748 93.1728 79.4478 92.9638 79.1543C92.6681 78.3545 92.0877 77.1448 92.1811 78.0252C90.6779 78.3299 92.6681 78.3545 92.419 79.5284C92.5191 79.8622 92.5969 80.1199 92.5702 80.3797C92.5435 80.6418 92.4168 80.8547 92.1922 81.0182C92.0277 81.1369 91.136 80.9174 91.1515 80.9779C90.5311 80.2453 90.2265 79.5329 91.236 79.5083C89.7328 78.0431 89.5438 77.2635 91.8075 77.2299C90.0931 77.1224 91.0937 76.634 92.4746 75.7984C91.7964 76.0426 92.5836 76.6519 93.3463 77.0888C93.7288 77.3397 94.1535 77.5458 94.5982 77.7161C95.0429 77.8863 95.5032 78.0207 95.9724 78.1327C98.4696 78.7309 101.834 80.2924 103.791 81.2534C104.769 81.7329 105.394 82.0644 104.182 81.8337C105.325 81.9457 105.227 81.8785 104.196 81.6701C104.958 81.809 104.838 81.8225 104.149 81.7777C104.714 81.8919 104.113 81.5693 103.19 81.1011C101.345 80.1669 98.205 78.657 95.8546 78.0947C94.974 77.8841 94.1046 77.5816 93.3485 77.0865C92.9105 76.764 92.3768 76.5758 92.6547 76.4257C91.4717 76.0067 91.1048 75.6281 92.4991 74.9829C91.5095 74.9314 91.981 75.0121 92.9416 75.1599C92.8793 75.2518 93.304 75.4063 93.7087 75.5632C94.1446 75.7424 94.5893 75.9037 95.0318 76.0538C95.4743 76.2039 95.9168 76.345 96.3482 76.4817C98.9366 77.2568 103.137 80.1154 103.064 80.2072C102.877 80.4335 102.808 80.084 102.712 80.4805C102.712 80.4805 103.444 80.6642 104.164 80.8457C104.909 81.0339 105.641 81.2176 104.398 80.8793C105.69 81.0025 105.748 80.8323 104.574 80.2946C105.49 80.5948 105.041 80.4469 104.418 80.2476C103.955 80.1019 103.322 79.907 102.63 79.6965C103.195 79.8622 103.755 80.0235 104.296 80.1826C104.836 80.3417 105.363 80.4962 104.6 80.2117C105.841 80.6642 105.828 80.6844 104.571 80.2946C105.928 80.7516 106.028 80.7875 104.578 80.3103C106.081 80.7785 106.055 80.7337 104.609 80.2072C107.069 81.0048 107.962 81.2781 104.698 80.084C109.217 81.6858 109.577 81.8225 104.689 80.14C109.363 82.0846 109.292 81.7329 104.482 80.7964C109.199 82.1316 109.946 82.3131 104.505 80.7404C110.013 82.0196 110.097 81.8113 104.983 79.403C110.297 81.5671 110.464 81.4595 105.488 78.3881C110.793 81.3251 110.07 81.0025 105.341 78.6189C107.693 80.0437 106.035 79.4075 104.253 78.7443C100.689 77.4181 96.6284 75.9866 94.8228 75.4758C96.8263 75.1062 98.8165 74.7791 98.8165 74.7791C98.8165 74.7791 97.3956 74.8104 95.6567 74.8396C95.0785 74.8396 94.4648 74.8373 93.8622 74.7768C94.2024 74.5573 94.7694 74.0734 94.8295 73.8382C94.9118 73.5088 94.9095 73.1997 94.8273 72.9107C94.7428 72.6195 94.5849 72.373 94.3536 72.1669C94.1223 71.9608 93.8288 71.7906 93.433 71.4949C92.6614 70.6413 91.7653 70.8317 91.9409 70.8228C91.5562 71.6808 92.4991 71.8421 93.224 72.0908C93.86 72.3596 94.278 72.7158 93.8199 73.5626C93.2618 74.4565 92.5702 74.172 92.6881 73.5559C91.0159 73.128 90.1553 72.3641 91.663 71.4612C89.4149 71.8555 89.844 71.4612 91.5184 70.3747C90.2754 70.6884 90.2799 70.3142 90.8224 69.0619C90.1353 70.0096 90.5845 69.9155 91.5562 69.5167C91.4606 69.7295 91.8876 69.6399 92.4212 69.7385C92.8793 69.7452 93.353 69.6623 93.811 69.5279C94.2691 69.3935 94.7116 69.2075 95.143 68.9902C97.4645 67.9194 99.8639 66.7477 102.065 65.6724C99.6637 66.8441 97.4623 67.9194 95.0296 69.0395C94.2202 69.4495 93.3485 69.7407 92.4212 69.7362C91.8876 69.6377 91.3828 69.8281 91.5006 69.5637C90.3332 70.0364 89.7862 70.0544 90.4622 68.6183C89.8996 69.0014 90.7001 68.6116 91.5629 68.1277C92.0832 68.1232 92.5524 68.1345 93.0127 68.0807C95.2742 67.9888 97.3711 67.2137 99.3724 66.237C99.1723 66.3355 99.2701 66.5371 99.07 66.6335C100.071 66.1451 101.169 65.8583 101.879 64.7651C100.78 65.0519 99.8705 66.2437 98.7743 66.5282C100.375 65.7463 101.885 64.2633 103.568 63.58C104.136 63.3672 104.86 63.4254 105.528 63.9362C107.031 61.7049 108.2 61.2188 108.803 63.5666C108.205 61.5593 107.927 61.3353 108.567 63.6405C108.109 61.7004 108.796 61.3554 109.466 63.3761C108.663 61.0866 108.594 60.8738 109.466 63.3537C109.028 61.9558 108.823 61.2098 108.89 61.1672C108.959 61.1157 109.294 61.7676 109.939 63.17C109.379 61.6108 108.903 60.9141 108.445 61.0463C107.989 61.1695 107.549 62.1216 107.06 63.86C106.306 62.6929 105.501 62.3098 104.651 62.3479C103.802 62.3859 103.319 63.1028 102.546 63.8018C99.875 66.2414 96.1815 67.2966 92.4946 67.8522C93.4953 67.3638 94.2958 66.974 95.3943 66.6872C92.2945 67.9508 90.7201 66.7276 88.0228 65.4596C87.5358 65.5178 87.1111 65.7598 87.2245 65.5178C86.5463 67.1532 87.6448 66.8665 88.2786 66.1115C88.1518 66.1227 88.6477 66.051 89.1502 66.163C89.6439 66.3064 90.1576 66.5887 90.2732 66.8239C90.4956 67.5206 89.7729 67.8208 89.546 67.2899C87.8538 68.3226 86.6842 68.4593 87.3891 66.4005C86.086 68.5019 86.1438 67.9754 86.8243 65.7844C85.857 67.1196 85.5123 66.7903 85.3077 65.1235C85.5212 66.0376 86.275 65.4215 86.9955 64.6867C87.16 64.5388 86.9755 64.2879 86.7642 63.8309C84.9297 60.8402 84.5806 57.0295 86.5085 53.8483L86.3084 53.9469C86.3217 52.9455 87.2179 52.755 87.3268 51.9553C87.3202 52.4571 86.9199 52.652 86.6175 53.0485C86.9199 52.652 86.9266 52.1502 87.527 51.8567C86.9266 52.1502 87.0177 52.8514 86.4173 53.1449C86.7198 52.7483 86.8243 52.4481 87.2245 52.2532C86.9221 52.6498 86.8176 52.9499 86.5152 53.3465C86.6175 53.0463 87.0177 52.8514 87.1222 52.5534C83.8957 56.1199 86.9243 60.3652 87.2712 64.1692C87.1467 64.391 87.0844 64.5164 86.7798 64.7853C86.0238 65.6702 85.2699 66.2862 84.7318 65.0115C84.4783 65.9278 81.4408 61.3554 82.079 60.5019C82.4948 60.2241 82.875 59.8477 83.2108 59.4646C83.5466 59.0815 83.8334 58.6895 84.0714 58.2975C84.3449 57.6881 84.505 57.0922 84.6896 56.5478C84.8741 56.0034 85.0498 55.5151 85.1943 55.1275C85.6035 54.1687 85.8592 53.6399 85.5768 54.2202C85.9348 53.8528 85.7302 53.9357 85.668 54.5047C85.9059 54.0163 86.2461 53.2681 85.9593 53.631C86.4618 52.7214 86.8309 52.1009 86.9221 51.9172C87.0133 51.7335 86.8154 51.962 86.2461 52.7752C86.7553 51.9508 87.0022 51.5408 86.951 51.5095C86.8999 51.4781 86.5597 51.8186 85.9459 52.5221C86.9444 51.3683 86.6842 51.7828 85.6813 53.2972C86.0971 52.8111 85.7836 53.4294 85.2922 54.4218C85.7191 53.5548 85.986 53.006 85.6279 53.4047C86.5463 51.971 86.8309 51.4871 85.9015 52.4683C86.5041 51.7581 86.8109 51.4064 86.8176 51.4131C86.8243 51.4198 86.5307 51.7873 85.9459 52.5198C86.5597 51.7357 86.8954 51.3258 86.9132 51.2944C86.931 51.263 86.6286 51.6013 86.0149 52.3361C86.633 51.5789 86.9421 51.2115 86.9266 51.2182C86.911 51.2249 86.5708 51.6058 85.9304 52.3585C86.3729 51.7492 86.7465 51.2451 87.0289 50.8575C87.3113 50.47 87.4958 50.1877 87.5625 50.0152C87.6982 49.6702 87.3557 49.7307 86.4285 50.2348C87.6693 49.1505 88.3408 48.5232 88.4031 48.4022C88.4653 48.2812 87.925 48.6621 86.7442 49.5918C88.0339 48.792 88.5921 48.3933 88.6032 48.4582C88.6166 48.5232 88.0806 49.0519 87.1801 50.0936C88.2563 49.1169 88.8834 48.4717 88.9412 48.3193C88.999 48.167 88.5054 48.5299 87.3602 49.6075C89.3748 47.3336 89.1858 47.2149 86.3907 48.8884C88.9812 46.9752 88.9056 46.7892 85.877 48.1759C88.8278 46.4241 88.4431 47.2014 85.5679 49.6433C86.5663 49.3722 86.9866 49.4171 86.931 49.78C86.9444 50.6514 85.8459 50.9382 85.5368 51.8343C85.7369 51.7357 86.1372 51.5408 86.0349 51.841C85.0164 53.8326 84.5895 56.0303 83.5533 58.0802C83.262 58.6761 82.9973 59.2003 82.686 59.5968C82.8261 58.6111 82.8283 57.5895 82.8328 56.8256C82.8372 56.0617 82.8439 55.5531 82.8439 55.5531C82.8439 55.5531 82.7483 56.1826 82.6038 57.1146C82.5304 57.5806 82.4459 58.1227 82.3058 58.6895C82.2591 59.4669 81.7543 59.9597 81.2651 60.3652C81.4096 59.7559 81.0405 59.375 80.5446 59.2451C80.0488 59.1152 79.4261 59.2316 79.0748 59.5274C78.6723 59.9732 78.1186 60.4929 77.7139 60.7349C77.4337 61.6354 77.3003 62.2605 77.3893 61.4249C78.0942 62.3703 78.3299 61.4473 78.6367 60.5288C78.9925 60.1278 79.4217 59.7312 80.1622 60.1838C80.8982 60.7528 80.6647 61.5526 80.2356 61.1023C81.3741 56.848 85.2744 80.1938 77.9029 61.8304C78.2676 64.5276 77.9985 64.0975 77.0513 61.7385C77.307 63.6875 76.8845 63.7077 75.4613 62.2784C76.2463 63.1499 76.4064 62.2 76.4575 60.9813C76.6643 60.251 76.7622 59.2518 76.5465 58.2011C76.2708 57.2714 75.9972 56.3484 75.7393 55.4837C74.9699 52.8939 74.3606 50.8575 74.3406 50.8934C74.2828 50.9964 74.2739 51.1152 74.3117 51.2496C74.3495 51.384 74.4207 51.4826 74.5274 51.5431C74.563 51.5655 75.1144 53.3958 75.8238 55.7861C76.0595 56.5837 76.3152 57.4417 76.5732 58.3176C76.6755 59.3593 76.6688 60.4055 76.4598 61.0888C76.4753 62.4755 76.2885 63.4994 74.9699 62.5876C75.8327 64.0953 75.6148 63.6427 74.8854 62.2179C75.1967 62.7242 74.9988 62.256 74.7453 61.6422C74.9388 61.2546 74.9921 60.7057 75.0055 60.1815C75.0188 59.6573 74.9966 59.1622 74.9388 58.6962C74.3117 56.0482 73.8025 53.8192 73.9181 53.8393C74.2072 53.8886 73.9403 54.1261 74.3273 54.0096L73.9114 52.5489C73.7046 51.8186 73.4956 51.0883 73.4956 51.0883C73.2844 51.151 73.1109 51.1846 72.9797 51.2048C73.0353 51.5274 73.1332 51.9956 73.2555 52.5534C73.3778 53.1112 73.5268 53.7632 73.6913 54.4711C73.5512 53.8953 73.4111 53.3263 73.2777 52.773C73.1443 52.2196 73.0131 51.6864 72.9041 51.207C72.9175 51.1846 72.9419 51.1869 72.9797 51.2048C72.9486 51.0659 72.9308 50.9606 72.9664 50.9718C72.8975 50.9203 72.873 50.9651 72.8841 51.0771C72.5973 49.9458 72.3838 49.0295 73.122 49.9637C72.615 48.848 72.346 48.1939 72.3349 48.3171C72.3549 48.046 72.6351 48.5523 73.2243 49.7553C72.8018 48.5792 72.5239 48.0505 72.5217 48.2902C72.5483 48.0684 72.853 48.6173 73.5935 49.594C73.0464 48.559 72.7196 47.8556 72.6617 48.1468C72.644 47.6607 72.8952 48.167 73.509 49.5537C72.7529 48.2118 72.3193 47.5487 72.1592 48.0527C72.088 47.6405 72.2859 48.4 72.7952 49.8987C72.1325 48.3731 71.7567 47.5868 71.5944 48.0146C71.561 47.6181 71.7411 48.4336 72.1903 50.1138C71.5944 48.3193 71.3476 47.6316 71.332 48.0684C71.4254 47.9071 71.75 48.8682 72.3037 50.3669C71.7901 49.5739 72.0947 50.6671 72.4238 51.8455C73.0842 54.2 73.8514 56.8861 74.3918 58.8687C74.5452 59.5162 74.6764 60.0919 74.6697 60.6161C74.1716 59.7469 73.5223 58.9628 73.0398 58.3736C72.5572 57.7844 72.237 57.3924 72.237 57.3924C72.237 57.3924 72.5639 57.9368 73.0487 58.7433C73.291 59.1465 73.569 59.6192 73.8247 60.1457C73.9826 60.7617 74.0738 61.4652 74.0627 62.0051C73.8247 61.4629 73.4022 61.3577 73.002 61.5526C72.6017 61.7475 71.3809 66.0846 71.1252 66.5819C70.9184 67.1801 70.8583 67.9552 70.7138 68.3876C71.2164 69.3397 71.6322 69.9446 70.9206 69.1471C72.3838 69.454 71.9724 68.596 71.4254 67.6147C71.5166 67.263 72.3149 62.946 72.9419 62.8093C74.0071 62.8676 74.4207 63.5979 73.6357 63.2753C74.8676 65.5582 74.0604 70.6256 71.3631 69.4092C73.9048 71.0759 73.46 70.9191 70.9028 69.5682C72.6106 71.0849 72.2103 71.4052 69.9756 71.0423C71.2675 71.2439 70.7805 70.3613 69.9644 69.3352C69.7132 68.6654 69.1328 67.8544 68.2544 67.3369C67.4495 66.8037 66.6512 66.2728 65.904 65.7777C63.6626 64.2924 61.8947 63.1252 61.9036 63.1678C61.9259 63.2843 61.9948 63.3806 62.1082 63.459C62.2239 63.5374 62.3417 63.5666 62.4618 63.5442C62.504 63.5374 64.094 64.5836 66.162 65.9547C66.8513 66.4117 67.594 66.9046 68.3523 67.4064C69.1283 68.0381 69.8088 68.8312 70.0111 69.454C71.0007 70.5607 71.5099 71.4948 69.7888 71.6225C71.3498 72.4447 70.905 72.1647 69.4463 71.45C70.1156 71.5173 69.7688 71.1498 69.1083 70.9146C69.0661 70.5338 68.7325 70.1216 68.3901 69.7542C68.0476 69.3868 67.6918 69.0619 67.345 68.755C66.2598 67.944 65.3348 67.1353 64.6299 66.5595C64.2696 66.1921 63.7737 66.1854 63.5803 65.7822C62.9977 64.5724 63.7804 65.6836 63.9805 65.5873C63.0889 65.2759 62.4106 63.8645 61.112 64.2476C61.8992 64.8592 62.8887 65.3722 63.7737 66.1854C62.6886 65.4708 61.8036 64.6576 60.7184 63.9429L60.8163 64.1445C60.4227 63.8399 60.0291 63.533 59.7556 63.2328C58.9662 62.7197 58.5014 62.3904 58.4458 62.3165C58.3903 62.2426 58.7438 62.424 59.5977 62.9146C58.1834 61.7609 58.1301 62.1149 59.8734 62.6032C58.3524 61.7721 57.712 61.3442 59.7222 62.4173C57.5475 61.5974 57.3985 61.7654 59.2464 63.1543C58.1879 62.5383 57.6097 62.2426 57.5297 62.303C57.4496 62.3635 57.8677 62.7713 58.8083 63.5061C57.6898 62.778 57.2584 62.4778 57.3629 62.5652C57.4674 62.6525 58.1101 63.0983 59.1619 63.7749C61.7969 65.1594 64.1629 66.9942 66.5511 68.8088C67.2738 69.3778 67.9276 69.8617 68.4368 70.2269C67.4317 70.0544 66.5845 69.8102 65.9641 69.5951C65.6216 69.5167 65.2258 69.212 64.9301 69.1067C65.6149 70.0163 66.7068 70.2313 67.4806 70.5226C67.9743 70.7892 68.5102 71.1252 68.797 71.5755C68.6347 71.5934 68.0254 71.5598 67.9075 71.757C67.4739 72.3439 67.4673 72.8457 67.823 73.4976C67.952 73.7732 68.1255 74.154 68.2455 74.5371C69.1283 75.2719 69.8199 75.6819 69.1061 75.8678C70.5226 75.0882 69.6331 74.6514 68.5279 74.2123C68.3767 73.8337 68.0076 73.4551 68.5035 72.9129C69.4619 72.3686 70.2535 72.7292 69.2573 73.0361C71.8056 74.0263 72.5639 74.9628 69.6531 75.9306C72.4082 75.4108 71.2075 75.9978 69.5975 77.6332C71.1963 76.9992 70.7249 76.9185 69.1083 77.0619C69.7999 76.6855 69.3463 76.5377 68.5324 76.4481C68.3834 76.2509 67.9053 76.1815 67.4806 76.1748C64.6365 76.7124 61.7369 77.8796 58.7483 78.3411C61.8347 78.079 64.6365 76.7124 67.5206 76.1725C67.9276 76.1815 68.3901 76.2509 68.5302 76.4481C69.393 76.6385 69.9733 76.6631 69.1862 77.0731C71.074 76.8715 71.5944 77.0529 69.8977 78.4464C71.4365 77.7519 70.9406 77.7452 69.3841 78.1171C69.9689 77.7519 69.4975 77.7631 68.7726 78.0163C68.5057 77.8886 68.0187 77.8662 67.5429 77.8639C67.067 77.8617 66.6956 77.9199 66.311 77.9692C64.8189 78.1193 63.3223 78.601 62.0237 78.9863C62.2239 78.8877 62.126 78.6861 62.3261 78.5898C61.2232 79.3783 59.5421 78.4554 58.7305 79.8466C60.1247 79.6629 61.3255 79.0781 62.6174 79.1946C61.1187 79.6763 59.6288 79.6584 58.2324 79.8398L58.5303 79.9429C57.0383 79.925 55.644 80.1064 54.2565 79.7883C54.4566 79.6897 55.2393 80.8031 54.6567 79.5934C54.5589 79.3918 54.2631 79.2887 53.8629 79.4836C54.063 79.3851 54.361 79.4904 54.5611 79.3918L53.7606 79.7816L54.6523 80.093C54.4521 80.1915 53.954 80.1848 53.7539 80.2812L54.6456 80.5926C54.3476 80.4895 54.252 80.2879 53.8517 80.4828C57.9255 80.7337 61.917 79.7838 65.755 78.6592C66.5533 78.4688 67.2983 78.3545 67.9231 78.3053C67.0448 78.825 66.2131 79.3649 65.5905 79.7793C65.2947 80.1266 64.8945 80.3215 64.4942 80.5164C65.4949 80.028 66.2954 79.6382 67.3561 79.1924C67.9031 78.9975 68.4835 78.7891 68.9282 78.7107C68.8192 78.9572 68.4501 79.6068 68.4746 79.8466C68.5079 80.1826 68.6147 80.4738 68.7926 80.718C68.9705 80.9622 69.2039 81.1414 69.4908 81.2534C69.7776 81.3677 70.1001 81.4058 70.3625 81.4416C71.441 81.6052 72.8374 81.4237 71.7033 81.7261C72.6617 79.5172 71.3453 81.4035 70.2535 80.9152C70.0756 80.6374 69.8088 80.5702 69.5464 80.4469C69.3863 80.261 69.2662 80.0459 69.1862 79.795C69.2173 79.5643 70.0311 79.17 69.6109 79.3403C70.9673 78.89 71.7678 78.9773 70.8072 80.261C73.3622 79.1767 74.156 79.2865 72.6017 81.7553C74.4518 79.6404 73.4445 80.6284 73.4467 82.9829C74.1294 81.5402 73.678 81.7597 72.6195 82.788C72.8152 82.21 72.4016 82.443 71.9124 82.8463C71.6478 82.9068 71.2519 83.1935 70.8806 83.5049C70.5092 83.8163 70.1601 84.1568 69.831 84.5108C67.1871 87.3313 64.5965 90.089 64.6543 90.089C64.7722 90.089 64.8789 90.0353 64.9745 89.9367C65.0724 89.8359 65.1191 89.7239 65.1191 89.6007C65.1191 89.5446 67.4295 87.0826 69.92 84.4279C70.2313 84.0963 70.5604 83.7737 70.9162 83.4758C71.272 83.1778 71.6544 82.9023 71.9101 82.8485C72.5483 82.4968 72.9886 82.0644 72.7062 82.7387C73.9559 81.4371 74.4807 81.2445 74.1249 83.3638C74.8676 82.051 74.5141 82.4721 73.6957 83.6012C73.778 83.1913 73.3911 83.4892 72.9975 83.8521C72.3994 84.3808 71.7122 85.0395 71.0585 85.6623C69.8866 86.5965 68.4812 87.7816 67.176 88.6665L67.2782 88.3663C66.769 89.361 65.3748 89.5446 65.2592 90.8462C66.0663 89.9546 66.9692 89.2646 67.7763 88.373C67.067 89.4662 65.8662 90.0532 65.1858 91.1285C64.5076 91.9776 64.0228 92.7236 63.6248 93.0686C63.0444 93.613 62.7486 93.8594 63.2734 93.203C62.6308 93.539 62.9688 93.6533 63.0488 92.9162C62.673 93.3733 62.1438 93.9333 62.9021 93.0036C62.3617 94.1417 62.4996 94.3187 63.4491 93.5144C62.6085 94.6121 62.6174 94.8138 63.7737 93.9221C62.5685 95.1677 63.0199 94.7398 63.8316 93.6712C65.6728 89.6477 69.6754 87.6942 72.6951 84.7258C72.4816 85.8258 71.6767 86.7174 70.7716 87.4074C71.1719 87.2125 71.5721 87.0176 71.9279 86.7331C72.217 86.5181 72.535 86.3904 72.8107 85.8885C73.0865 85.3867 73.3755 84.8647 73.6557 84.3652C73.7869 84.7527 73.9181 85.4898 74.0916 85.6578C74.3317 85.893 74.6052 85.9804 74.8988 86.0409C75.1923 86.1014 75.4858 86.1036 75.7749 86.0342C76.064 85.9647 76.3308 85.7989 76.5732 85.5749C76.8556 85.2545 77.1202 84.9185 77.367 85.0888C77.6739 84.2868 77.8807 83.6886 77.6316 84.7684C76.6933 83.2742 76.9712 84.8804 75.9861 85.1605C75.8149 85.2254 75.577 85.3464 75.3146 85.3733C75.0566 85.3845 74.8276 85.2971 74.6252 85.1089C74.4829 84.9588 74.5385 84.0112 74.3918 84.2666C75.0455 83.1106 75.7015 82.7141 75.8149 84.1613C77.0824 82.0263 77.8073 81.7351 78.2165 84.2756C78.3076 81.4909 78.301 81.9905 78.2698 84.4973C79.2883 82.7544 79.4817 83.1577 79.4373 84.8468C79.2416 84.1075 78.808 84.6519 78.4366 85.6152C78.361 85.9558 78.2921 86.4284 78.2343 86.9056C78.1764 87.3828 78.3143 87.4993 78.4344 87.7569C79.8931 89.9277 81.3518 92.4503 81.9144 95.1632C81.7521 92.2554 79.4906 90.1226 78.4388 87.6673C78.2476 87.1588 78.2832 86.3948 78.4388 85.6175C78.7524 85.0529 78.8636 84.4794 79.0859 84.9566C79.2527 83.4556 80.3734 79.1677 81.3207 80.6956C81.1183 79.4276 81.0872 79.8779 81.1517 81.1101C80.9894 80.8121 80.0799 85.1381 80.1044 85.7026C79.9954 86.5853 79.8931 87.5284 79.9843 88.1893C80.2 89.529 80.9805 90.6424 81.5631 91.8521C81.4652 91.6505 81.1695 91.5474 81.0717 91.3458C81.7499 92.7572 82.0278 94.3635 82.5059 95.8734C82.5237 94.3702 82.0456 92.8625 81.3674 91.4511C82.1435 93.0641 82.4214 94.6704 82.4992 96.3752L82.6015 96.075C82.7772 97.9815 81.9567 99.8745 81.3385 101.669L81.2406 101.467C81.0405 101.566 80.9382 101.864 80.8337 102.164C84.565 98.1025 81.9478 92.6586 80.4846 88.3237C80.4223 87.7838 80.4557 87.2215 80.5024 86.751C80.6803 87.2327 80.856 87.7121 81.0205 88.1602C81.3963 88.9465 81.6876 89.5514 82.0745 90.3579C81.8811 89.9546 81.6876 89.5514 81.5942 89.0271C81.532 88.8098 81.5342 88.3215 81.5631 87.6987C81.6476 85.8281 81.9455 82.7522 81.7766 81.8583C82.1368 82.1361 84.7363 84.802 84.9764 84.8199C85.3122 84.8446 85.6146 84.7908 85.8837 84.6564C86.1527 84.522 86.3684 84.3226 86.5285 84.056C86.6886 83.7894 86.782 83.478 86.8087 83.1196C86.8376 82.723 86.8132 82.3086 87.0266 82.1607C86.8265 81.3139 84.7029 78.9258 85.1032 79.4411C84.2048 78.9191 85.9304 81.5021 86.2861 82.5954C86.1149 82.5505 86.0571 82.8261 86.0682 83.1241C86.0171 83.3727 85.9126 83.6192 85.7258 83.8029C85.539 83.9866 85.3077 84.0672 85.0298 84.047C84.8274 84.0314 82.1101 81.119 82.1168 81.2646C82.1301 80.1893 82.4459 79.4679 83.3509 80.1781C83.0974 78.0275 83.4287 77.3039 85.1454 78.7645C83.9268 77.3106 85.012 78.0252 86.5508 78.0812C85.7102 77.9334 87.7249 81.1213 88.2408 81.9188C88.4453 82.2884 88.6899 82.6917 88.9479 83.0949C89.2058 83.4982 92.5324 87.4634 92.8193 87.8533C93.2974 88.5007 99.6348 92.7594 101.832 94.592C102.228 94.9728 102.185 95.3425 102.014 95.5374C100.791 96.9039 99.7771 98.3937 98.7631 99.8857C99.1812 98.1876 101.887 96.6194 100.011 94.6861C99.3969 94.238 98.6987 93.7407 97.996 93.2388C95.8902 91.7356 93.7443 90.2055 93.7087 89.9121C93.5798 89.2198 93.2929 88.4828 92.7526 87.7502C92.2122 87.0176 88.6632 82.6693 88.2452 81.921C88.174 81.408 85.8014 78.7018 86.1527 78.8026C85.4389 77.6309 88.4698 80.6486 90.1687 81.0496C89.4615 80.9107 92.2789 83.7088 92.6303 84.5063C93.1373 85.2792 93.6621 86.0767 94.1579 86.8317C94.5293 87.3985 94.6427 87.963 94.6027 88.4872C94.576 88.8367 98.3362 91.4735 100.769 93.3016C101.985 94.2156 102.83 94.9392 102.583 95.1072C100.9 96.1019 98.1894 98.1719 100.451 100.305C100.844 100.609 101.549 100.018 101.954 99.3212C101.36 99.1128 101.167 98.7096 100.971 98.3063C101.263 98.9112 101.754 99.4175 102.348 99.6258L102.25 99.4242C105.034 99.5586 108.009 100.099 110.477 101.633C110.179 101.53 109.884 101.425 109.483 101.62C110.175 102.03 110.962 102.641 111.654 103.049L111.46 102.646C111.563 102.346 112.061 102.352 112.359 102.458C110.911 98.9314 106.326 99.6751 103.466 97.8359C102.879 97.1279 102.69 96.2229 103.188 95.3761C103.315 94.7309 102.726 94.2201 102.061 93.7339C99.4036 91.7916 96.9753 90.089 95.7367 88.8457C95.3254 88.0347 94.9318 87.2865 94.576 86.6413C94.2202 85.9983 93.9 85.4584 93.6354 85.0686C95.4054 86.0834 97.1399 87.1207 97.1399 87.1207L97.1287 87.1319Z" fill="currentColor"/>
<path d="M78.6792 84.9501C78.2278 84.2085 77.8209 84.502 77.4028 85.2278C77.0871 85.1965 76.7602 85.602 76.4578 86.1128C76.0931 86.6437 75.7818 86.7355 75.3993 86.9148C74.5454 87.5622 73.4558 87.3471 72.5508 88.0371C73.4536 87.3471 74.5454 87.5622 75.5861 87.0469C75.9997 86.9013 76.3288 86.908 76.7246 86.4129C77.5185 85.4228 78.4702 84.7081 78.5035 85.2211C78.5525 84.7103 78.1722 85.6804 78.0966 87.1657C78.0721 87.6608 78.2923 87.7213 78.4524 88.0147C81.6523 92.0607 83.171 97.789 80.2291 102.462C80.4292 102.364 80.5315 102.066 80.7317 101.967C80.5315 102.066 80.6294 102.267 80.4292 102.364C83.9782 96.8974 80.367 91.4423 78.1611 86.2472C78.5413 84.7708 79.1551 83.7851 79.1617 84.9052C78.9816 83.7896 78.8415 83.8344 78.6837 84.9501H78.6792Z" fill="currentColor"/>
<path d="M77.7718 87.244C81.5542 91.3572 83.1708 97.2894 80.4224 102.364L80.5247 102.063C80.0154 103.058 79.5062 104.055 78.6012 104.745C79.504 104.055 80.3112 103.163 81.0205 102.07C80.3112 103.163 79.7041 103.956 78.6012 104.745C79.802 104.158 80.2156 102.962 81.0205 102.07C80.5113 103.065 79.6063 103.755 78.8013 104.646C79.6085 103.755 80.2156 102.962 81.0205 102.07C80.4135 102.863 79.6063 103.755 78.7035 104.445C83.8357 99.6999 81.9389 92.1614 78.0808 87.244C77.9474 87.2127 77.8429 87.2127 77.7695 87.2418L77.7718 87.244Z" fill="currentColor"/>
<path d="M86.4729 86.2293C86.4729 86.2293 85.2432 89.2268 83.7044 92.977C83.5132 93.7095 83.631 94.3995 83.5821 95.2172C83.6599 98.2998 82.2323 100.986 80.807 103.674C81.4074 103.381 81.6142 102.783 82.0144 102.588C80.807 103.674 79.9953 105.068 78.988 106.056C79.7819 106.165 79.9953 105.065 80.6735 105.184C81.2161 104.776 81.8877 104.23 82.7215 103.567C82.0967 104.064 81.5541 104.539 81.0827 104.983C80.6113 105.426 80.2155 105.845 79.9042 106.255C79.2838 107.079 78.988 107.861 79.0414 108.69C79.1459 110.346 80.638 112.183 83.6911 114.9C77.3069 113.287 77.169 115.198 79.0814 119.461C77.169 115.198 77.4248 114.421 81.9055 117.416C78.2809 111.829 78.879 110.014 84.2425 106.033C83.2441 105.993 82.5414 105.816 82.0656 105.536C81.5897 105.256 81.334 104.879 81.2895 104.49C83.2285 100.997 83.6777 96.7944 84.5116 92.9613C84.665 92.4796 84.8162 92.0181 84.9608 91.5813C85.8258 88.9579 86.4039 87.2083 86.4039 87.2083L86.4751 86.2271L86.4729 86.2293Z" fill="currentColor"/>
<path d="M102.365 99.85C102.458 99.7985 102.394 99.7067 102.218 99.5857C102.149 99.7963 102.129 99.9822 102.365 99.85Z" fill="currentColor"/>
<path d="M99.414 103.121C98.4556 99.7872 101.762 97.9255 102.013 94.6973C101.584 94.3366 100.984 93.8841 100.279 93.389C97.4683 91.4064 93.3367 88.6665 93.0276 88.2498C92.4717 87.4993 88.9027 83.2316 88.4558 82.6335C87.9021 82.0309 85.8852 78.843 86.2966 78.6212C85.4427 78.4352 87.2661 81.2221 87.3017 82.0824C87.0215 82.4475 86.9837 83.0748 87.066 83.6304C87.126 84.2734 87.1905 84.9925 87.255 85.7116C87.4462 87.8667 84.7578 91.664 84.7578 91.664C84.7578 91.664 87.5085 86.2314 87.464 83.6887C87.4418 82.4162 85.714 79.0692 85.9719 79.3269C85.7807 79.0177 88.1044 82.1899 88.9939 83.3773C90.3214 85.1493 91.431 86.6884 92.3539 88.0258C92.6607 88.4716 92.9498 88.8973 93.2166 89.3005C93.8793 89.948 95.7472 91.422 97.6662 93.0888C98.3066 93.6444 98.9515 94.2224 99.5585 94.7981C100.766 97.9121 98.2355 101.387 99.9032 103.311C101.764 105.639 105.184 102.476 108.458 103.118C110.343 103.443 111.422 104.66 112.3 105.973C110.15 103.04 106.359 103.894 103.55 105.762C102.549 106.25 101.562 105.737 100.813 104.908C100.23 104.427 99.772 103.8 99.4118 103.121H99.414Z" fill="currentColor"/>
<path d="M113.456 108.421C112.74 102.773 106.974 102.601 102.305 102.142C99.225 101.902 100.67 97.7127 101.068 95.3268C100.668 94.9998 100.101 94.5763 99.414 94.1193C96.67 92.2913 92.634 89.6791 92.4561 89.3722C90.5927 86.1552 89.1518 83.6887 89.1139 83.7155C89.0005 83.7984 88.9361 83.8993 88.916 84.0247C88.896 84.1502 88.9272 84.2667 89.0072 84.3809C89.085 84.4907 89.1851 84.5534 89.3074 84.5713C89.4297 84.5893 89.5453 84.5579 89.6588 84.475C89.6988 84.4459 91.1353 86.9034 92.9854 90.1025C93.0988 90.2907 95.378 91.7648 97.6528 93.2255C98.4111 93.7116 99.1671 94.1977 99.8454 94.6346C100.308 94.8989 100.701 95.2059 100.697 95.7054C100.568 98.0084 99.9254 101.808 102.707 101.942C107.479 102.104 113.33 103.479 113.559 109.093C113.759 108.995 113.661 108.793 113.605 108.562C113.581 108.444 113.532 108.394 113.461 108.417L113.456 108.421Z" fill="currentColor"/>
<path d="M96.721 83.9307L97.4704 86.2941C97.6616 86.899 103.915 91.1891 106.18 93.1113C106.634 93.4966 106.928 93.7856 106.981 93.9312C108.166 94.8027 107.05 96.5926 108.135 97.3073C114.355 100.993 115.564 107.621 113.817 113.845C114.424 114.851 115.031 115.859 115.031 115.859L114.359 113.937C114.279 113.457 114.179 112.967 114.361 112.12C116.681 105.834 112.972 100.175 108.146 96.3059C108.048 96.1043 108.055 95.6024 108.173 95.197C108.231 94.8542 107.846 94.3837 107.408 93.9021C107.105 93.1471 98.173 87.253 97.9618 86.6526C97.5415 85.4518 97.2902 84.7304 97.2902 84.7304L96.7188 83.9329L96.721 83.9307Z" fill="currentColor"/>
<path d="M104.566 80.3776C106.419 80.9489 106.321 80.8973 104.582 80.3059C106.187 80.9197 106.274 81.0094 104.566 80.3776Z" fill="currentColor"/>
<path d="M92.89 76.8917C92.6121 76.7909 93.3726 77.5929 94.8091 77.9267C95.5273 78.0925 96.3656 78.2897 97.2618 78.5025C98.7561 78.8564 100.64 79.4972 102.487 80.1916C104.333 80.8861 106.143 81.6321 104.289 81.5403C108.831 82.7702 109.71 83.16 104.16 82.5103C109.636 83.039 109.539 82.9718 104.197 82.1832C109.27 82.9046 109.149 82.918 104.171 82.3513C109.021 82.992 108.109 82.5932 104.284 81.5022C105.367 81.4439 103.535 80.6912 101.669 79.9923C99.8034 79.2933 97.9022 78.6481 96.3945 78.2897C95.4895 78.0746 94.6467 77.8752 93.9218 77.7072C93.1769 77.3599 92.5876 76.6498 92.6543 76.3765C92.0384 76.7954 92.3564 77.3241 92.8122 77.8864C93.0012 78.3613 93.3281 78.8676 93.4949 79.3717C93.9507 79.8265 96.4879 82.5215 96.9971 83.03C98.5204 84.5579 100.026 86.0813 100.026 86.0813C100.026 86.0813 98.6182 84.4974 97.2151 82.8956C96.7481 82.3624 94.2509 79.6405 93.8373 79.1589C93.0412 78.1239 92.5943 76.8805 92.89 76.894V76.8917Z" fill="currentColor"/>
<path d="M108.821 92.6947C112.046 87.6608 111.926 87.6742 108.339 92.3474C111.795 87.7504 110.738 87.1478 104.995 88.0887C107.603 85.3287 105.522 84.11 103.442 82.8957C99.2842 80.4651 95.1348 78.0411 95.1192 78.1083C95.0859 78.245 95.0992 78.3659 95.1637 78.4735C95.2282 78.581 95.326 78.6527 95.4617 78.6863C95.5907 78.7199 95.7085 78.702 95.813 78.637C95.9175 78.572 95.9865 78.4712 96.0198 78.3368C96.0287 78.3032 97.0649 78.8902 98.6126 79.7885C100.163 80.6868 102.224 81.8943 103.963 83.0862C106.34 84.3138 108.395 85.5258 105.404 88.9176C111.47 87.3292 112.488 87.9229 109.5 93.1225C112.413 87.7974 112.315 87.7302 108.821 92.6969V92.6947Z" fill="currentColor"/>
<path d="M96.4676 72.5861C96.4676 72.5861 99.5696 75.0302 103.294 77.9627C105.155 79.4301 107.172 81.0184 104.319 81.4822C110.897 83.9532 112.603 85.2973 110.886 93.77C115.084 87.2531 115.86 87.8647 117.415 94.2382C116.896 92.1122 116.761 90.6112 116.974 89.6636C117.346 88.6196 118.068 88.1335 117.375 89.1842C118.404 88.772 119.278 88.5323 119.794 89.2066C120.703 88.6801 121.257 89.0677 121.637 90.0041C122.042 90.7591 122.271 92.0629 122.34 93.9694C122.438 92.8381 122.513 91.8658 122.54 91.066C122.567 90.2662 122.547 89.6322 122.413 89.742C122.364 87.9633 121.984 87.4637 120.565 89.2469C120.65 87.7325 120.247 87.6944 119.28 88.8683C119.122 87.9901 118.397 88.3217 117.528 88.7697C118.526 88.1313 119.38 87.607 119.454 88.8325C120.626 87.1545 121.017 87.2262 120.743 89.2402C121.933 86.9596 122.46 86.6191 122.58 89.3231C122.969 86.9148 122.954 87.5488 122.68 89.621C122.874 88.6196 122.809 89.0565 122.573 90.0086C122.351 90.6426 121.957 91.7919 121.451 93.1741C121.957 91.7919 122.36 90.6359 122.585 90.0019C122.825 89.0341 122.889 88.5883 122.68 89.6143C122.978 87.4054 123.003 86.6684 122.527 89.285C122.384 86.236 121.742 86.5407 120.179 89.0475C120.726 86.4824 120.35 86.1218 118.564 88.2836C118.996 86.012 118.017 86.2629 116.341 87.1904C117.988 86.2046 118.94 85.8955 118.326 88.1447C120.136 85.8596 120.381 86.1307 119.385 88.7339C121.213 85.835 121.8 85.2682 121.03 88.9714C121.853 85.2503 121.319 85.7969 119.509 88.7765C120.657 85.9201 120.528 85.4967 118.593 88.2007C119.476 85.2929 118.551 85.5146 116.385 86.9865C118.497 85.4385 119.356 85.145 118.195 87.9745C120.196 85.1584 120.179 85.4676 118.513 88.2971C120.703 85.0845 121.244 84.3945 119.391 88.3822C120.93 84.0316 120.076 84.3609 116.894 87.206C119.229 84.054 119.236 83.42 115.642 85.7588C118.271 82.6292 117.299 82.4724 113.854 83.3237C117.337 82.3536 118.188 82.3491 114.931 84.8179C118.658 82.4813 118.28 82.618 114.537 84.4886C118.328 82.1587 118.755 81.5628 113.961 82.795C118.277 80.4292 117.37 79.8893 113.049 79.2553C117.397 79.3114 118.331 79.271 113.336 78.9193C118.7 78.8364 118.133 78.4421 113.316 77.1338C118.72 77.6737 119.869 77.2996 116.036 72.5726C120.579 75.6284 120.134 74.3312 117.97 70.4287C119.965 74.0759 120.223 75.1377 116.341 72.1134C119.44 76.3408 118.402 76.4797 113.912 75.1579C117.672 77.0375 117.984 77.4564 113.583 76.5715C117.61 77.9829 116.93 78.0904 113.147 77.732C116.616 78.6034 116.074 78.8387 112.983 78.9103C114.997 79.1142 114.464 79.1545 112.769 79.1165C112.914 79.0649 111.951 78.7154 110.937 78.1263C109.923 77.5371 108.858 76.7059 107.617 75.6799C108.242 77.7969 106.076 76.8023 104.15 75.9196C100.299 74.1543 97.4082 72.828 97.4082 72.828L96.4609 72.5883L96.4676 72.5861Z" fill="currentColor"/>
</svg>
