<svg width="143" height="143" viewBox="0 0 143 143" fill="none" xmlns="http://www.w3.org/2000/svg">
<g clip-path="url(#clip0_675_7575)">
<path d="M48.8268 40.1955C49.0114 40.119 49.16 40.0605 49.277 40.02C48.7818 40.065 48.192 40.119 47.5122 40.182C47.4987 40.2089 47.4762 40.2404 47.4492 40.2764C47.9354 40.2494 48.3946 40.2224 48.8268 40.1955Z" fill="currentColor"/>
<path d="M47.0625 40.2267C47.2156 40.2132 47.3641 40.1997 47.5082 40.1862C47.6027 40.0062 47.4272 40.0242 47.0625 40.2267Z" fill="currentColor"/>
<path d="M49.2773 40.0194C49.3494 40.0149 49.4169 40.0059 49.4844 40.0014C49.6285 39.9115 49.552 39.9205 49.2773 40.0194Z" fill="currentColor"/>
<path d="M51.1788 40.0056C51.6335 39.8347 51.1293 39.8527 49.4816 39.9966C49.4186 40.0371 49.306 40.0956 49.1484 40.172C49.9048 40.1226 50.5756 40.0686 51.1788 40.0056Z" fill="currentColor"/>
<path d="M61.2403 90.1035C61.1232 89.8201 61.0197 89.5187 60.8711 89.2128C60.8711 89.6312 60.8756 90.045 61.2403 90.1035Z" fill="currentColor"/>
<path d="M46.4844 41.3385C46.7545 41.2621 47.0111 41.1901 47.2632 41.1181C47.2992 41.0641 47.3307 41.0192 47.3623 40.9742C47.0966 41.0866 46.804 41.2081 46.4844 41.3385Z" fill="currentColor"/>
<path d="M45.0117 40.4163C45.687 40.3803 46.3173 40.3443 46.9115 40.3128C46.9611 40.2813 47.0106 40.2543 47.0601 40.2274C46.4478 40.2858 45.768 40.3488 45.0117 40.4163Z" fill="currentColor"/>
<path d="M45.7389 41.1359C45.7659 41.1134 45.7884 41.0954 45.8154 41.0775C45.7929 41.028 45.7659 40.983 45.7344 40.9425C45.7389 41.001 45.7434 41.064 45.7389 41.1359Z" fill="currentColor"/>
<path d="M43.9609 41.063C44.6993 40.6716 45.3971 40.5052 45.7347 40.9415C45.6582 40.1723 44.8433 40.4557 43.9609 41.063Z" fill="currentColor"/>
<path d="M46.875 41.5984C47.5638 41.2296 48.131 40.9507 48.5722 40.7527C48.1761 40.8607 47.7349 40.9822 47.2667 41.1171C47.1676 41.2566 47.0416 41.414 46.8795 41.5984H46.875Z" fill="currentColor"/>
<path d="M90.6127 75.5344C90.3471 75.6874 90.077 75.8313 89.8114 75.9663C89.5458 76.1012 89.2621 76.1822 88.8795 76.1327C88.4968 76.0832 88.0961 76.0247 87.7495 75.9798C87.4434 75.7998 87.0967 75.7279 86.705 75.6154C85.1834 75.2645 83.3826 75.2645 82.9324 73.9151C82.9324 73.4652 83.8328 73.0154 84.292 72.9524C84.4766 72.6465 84.6296 72.3002 84.6657 71.8549C85.377 63.0472 85.9037 63.4656 91.9363 59.3497C92.7466 52.0805 94.849 45.2251 98.0004 39.0445C93.4129 38.5632 93.8046 39.0715 81.2397 38.7971C80.3888 38.8331 79.5334 38.905 78.5835 38.968C76.0084 38.9725 73.4153 39.3009 70.7862 39.7102C69.9083 39.8452 69.0304 39.9891 69.1069 39.9216C67.7023 40.205 67.2566 40.277 68.8323 39.8632C66.3743 40.4209 65.9376 40.4839 68.5622 39.6427C65.0372 40.6234 64.578 40.6908 68.1345 38.6261C63.9702 40.7268 63.8172 40.6953 67.1126 36.1926C63.1059 40.7223 62.5476 40.7898 57.0868 39.7912C62.1784 40.5559 62.3675 40.2635 60.1031 34.1863C61.8588 40.196 61.1565 40.4209 56.9697 39.5213C59.6168 39.8542 60.2876 39.5483 59.4998 37.7625C59.7249 38.6441 59.0856 38.8286 57.573 38.6621C57.5144 38.4147 57.2218 38.0638 56.8166 37.6095C56.8031 36.8898 56.3439 35.7562 55.7992 34.2628C56.1278 38.5317 55.7227 39.5348 51.1802 40.0116C50.9281 40.1061 50.3699 40.2635 49.5595 40.4884C49.501 40.6414 48.8932 41.0957 47.5832 41.8829C52.3867 40.0791 53.2061 40.1735 48.7311 42.3372C54.7998 40.4884 55.5741 40.7043 50.7705 43.2009C57.0642 41.2666 57.7801 41.622 56.479 44.5009C57.2713 43.7677 57.8431 43.3133 57.9961 43.2594C58.7255 42.9265 59.0361 42.9985 58.5139 43.7632C59.1712 43.6867 59.5088 43.8756 59.6664 44.3029C59.5853 44.3839 59.4863 44.4919 59.3647 44.6403C59.4908 44.5638 59.6033 44.5099 59.7069 44.4604C59.7654 44.7033 59.7879 45.0002 59.7789 45.36C59.8735 44.9102 59.941 44.5728 59.95 44.3749C60.6658 44.1905 60.9404 44.7933 61.1115 46.0708C61.1205 46.0393 61.125 46.0078 61.134 45.9763C61.7598 45.3061 62.0209 45.7424 62.21 46.651C62.354 46.4171 62.4306 46.6645 62.4936 47.0379C62.5926 47.2718 62.6782 47.6317 62.7457 48.0005C62.8808 48.7337 62.9303 49.485 62.9303 50.2317C62.8177 52.7057 62.201 55.0673 61.3771 57.3749C60.7513 59.0753 60.004 60.7756 59.2567 62.4895C58.6579 64.6126 58.0727 66.8528 57.4199 69.1199C57.2668 69.5742 57.1138 70.0286 56.9292 70.4829C55.9117 73.0244 52.7604 73.9241 53.2106 77.0728C53.6608 79.322 56.3619 78.4223 56.3619 80.2216C56.8121 82.0164 55.0204 82.4663 53.2286 82.9161C52.5263 82.9161 51.797 82.8981 51.2702 83.3344C50.9371 83.6583 50.5544 83.9732 50.0772 84.2926C48.1684 85.5836 44.7694 87.0185 37.2422 89.8029C55.7677 86.2673 48.2764 86.4023 51.2072 84.6794C56.0918 84.7964 51.4773 86.3438 37.6834 93.6175C59.2162 82.8981 50.0952 123.018 49.0238 134.196C54.4261 123.167 53.2691 109.492 56.6005 113.455C54.9934 108.588 52.6163 85.6421 55.6641 85.2012C55.0204 84.9898 54.9798 84.7964 55.277 84.6074C56.8166 83.8158 58.1672 83.3659 59.5178 82.4663H59.0676C59.2927 82.4663 59.5178 82.3538 59.7429 82.1874C59.95 82.1469 60.1391 82.2009 60.3056 82.3268C60.4182 85.1652 59.968 87.8642 61.3186 90.1133C61.2871 90.1133 61.2646 90.1043 61.2375 90.1043C61.4716 90.6666 61.7733 91.1659 62.6692 91.4628C60.085 88.5164 61.4356 84.36 63.7406 81.4677C63.1419 82.0074 62.5296 82.5697 62.228 83.3344C62.6241 82.3268 63.466 81.6071 64.2583 80.8514C64.4969 80.586 64.7446 80.3341 64.9967 80.1002C65.1407 79.9337 65.2803 79.7673 65.4018 79.5874C65.861 79.268 66.3472 79.0431 67.1711 79.313L66.7209 78.8632C68.3281 79.1331 69.0169 82.7272 69.359 83.9282C70.1694 86.7576 70.7547 89.6455 71.5065 92.4884C71.7946 93.5725 73.9735 92.3985 74.5138 93.3881C74.5813 93.514 74.6578 93.64 74.7749 93.7254C75.0585 93.9279 74.8919 111.737 75.1936 111.66C75.4862 111.588 75.7698 111.503 76.0264 111.503C76.3281 111.723 76.7783 121.142 77.2284 121.592C77.6831 120.832 77.6066 110.27 77.6021 109.424C77.5886 107.899 76.3866 90.6756 76.2155 89.1642C75.8283 85.768 75.2476 82.3853 74.5813 79.0341C74.5363 78.8092 74.4913 78.5843 74.4462 78.3594C74.4237 78.2514 74.4012 78.1344 74.3202 78.0535C74.2527 77.986 74.1581 77.9545 74.0681 77.9185C72.3709 77.2213 73.7619 75.278 74.8739 74.8057C74.9325 74.7832 74.9955 74.7562 75.0585 74.7787C75.126 74.8012 75.1621 74.8687 75.1981 74.9272C76.6387 77.6216 77.1609 80.7974 77.7687 83.7753C78.1018 85.4081 78.444 87.041 78.7006 88.6874C78.9302 90.1988 79.8891 107.571 80.5779 108.961C80.6274 109.06 80.6814 109.159 80.776 109.222C81.1992 109.496 81.2892 108.691 81.2982 108.462C81.3117 107.935 81.1902 107.414 81.1857 106.887C81.1721 103.662 79.9656 84.7559 79.7855 81.5351C79.709 80.1407 80.1907 79.6504 81.0821 78.6787C81.6674 78.0445 82.2931 77.4372 83.0089 76.9514C83.6527 76.5151 84.3685 76.1642 85.1474 76.0472C85.5345 75.9888 85.9262 75.9933 86.3134 76.0562C86.6825 76.1147 87.2002 76.4701 87.5379 76.4656C87.9656 76.4566 88.4023 76.5151 88.848 76.6545C89.2891 76.794 89.7393 77.0099 90.1985 77.3202C90.5497 77.2708 90.8963 77.2168 91.2475 77.1628C91.0179 76.0922 90.8018 75.431 90.6172 75.5344H90.6127ZM57.564 38.842C59.0091 39.4763 58.5409 39.4583 56.8662 39.094C57.2893 39.067 57.5009 38.9815 57.564 38.842ZM61.17 45.8638C61.4176 44.9912 61.3726 45.0092 61.17 45.8638ZM53.2601 82.9116C53.7193 82.8891 54.5837 82.4663 55.0204 82.4663C54.5837 82.9026 53.9309 82.9161 53.2601 82.9116ZM69.4086 74.7247C69.161 75.0396 68.8503 75.2645 68.4722 75.4085C66.7254 76.614 64.4744 74.8147 62.6331 75.4085C62.3405 75.386 62.0569 75.3365 61.7823 75.278C60.6838 75.0441 59.7024 74.6033 58.5904 74.4324C59.0001 74.5268 59.3242 74.7472 59.0676 75.26C58.6174 76.1597 57.717 75.7099 57.2668 75.7099C57.717 76.1597 58.6174 76.1597 59.0676 76.1597C57.2668 76.6095 59.968 77.5092 59.2702 79.0116C59.1847 79.4434 59.0496 79.8618 58.8785 80.2396C58.6174 77.959 56.3664 77.959 55.0159 77.0594C51.8645 75.26 56.3664 72.5611 58.3293 71.2296C58.5769 70.8427 58.748 70.4379 58.919 70.0376C59.6303 67.9773 60.3327 65.9351 60.8864 63.9154C61.6427 61.6168 62.372 59.3227 63.0338 56.9791C63.6956 54.6355 64.2854 52.2469 64.7356 49.7728C64.7356 49.0216 64.8841 48.3244 65.1272 47.6542C65.3703 46.9839 65.708 46.3407 66.2887 46.1292C66.4553 45.0677 66.8605 44.4424 68.004 44.3794C67.6753 43.2594 68.157 42.778 69.1925 42.4856C69.2465 41.9504 69.8543 41.604 70.5431 41.3341C71.2274 41.0642 71.9927 40.8753 72.8436 40.7763C72.4744 40.8213 71.7091 43.1154 71.5605 43.4888C69.1475 49.2151 69.8092 54.9504 69.341 60.8746C69.2645 61.8642 69.152 62.8538 68.9944 63.8524C68.9404 64.1853 68.7918 64.5137 68.3146 64.851C66.7254 65.3683 65.3748 67.1677 64.9246 68.5171C64.0242 71.6659 67.1756 73.0154 69.8768 73.4652C69.8002 73.9915 69.6382 74.4009 69.4086 74.7203V74.7247ZM81.1316 74.3694C78.8807 75.7189 77.5301 73.9196 75.4457 73.1818C75.1801 73.0289 75.036 72.7995 74.946 72.5476C74.6848 71.7829 74.937 70.7708 73.924 70.7708C73.4738 73.0199 73.4738 75.269 71.2229 76.6185C74.3742 73.4697 73.0236 69.4213 69.8723 67.1722C71.2229 66.2725 72.5734 66.7223 73.816 67.0642C74.2031 67.1452 74.2707 66.8393 74.3247 66.5289C74.5408 65.2784 74.6398 64.0279 74.6398 62.8313C75.09 55.1843 71.9387 47.987 73.5504 40.5469C73.5594 40.5469 73.5684 40.5469 73.5774 40.5469C75.6618 40.5514 77.9893 40.178 79.8396 41.3431C82.7388 43.0389 83.189 46.1877 83.189 48.8867C82.8334 55.6116 82.2031 62.341 82.3877 69.0659C82.4012 69.5158 82.4147 69.9611 82.4372 70.4109C82.9234 72.1247 82.023 73.4742 81.1226 74.3739L81.1316 74.3694Z" fill="currentColor"/>
<path d="M58.5921 74.4405C58.277 74.3685 57.9168 74.3685 57.7188 74.3685C58.0204 74.3685 58.3085 74.4 58.5921 74.4405Z" fill="currentColor"/>
<path d="M96.8141 90.6393C96.4225 89.7666 96.0488 88.8849 95.6932 87.9898C95.6211 88.0393 95.5716 88.0258 95.5536 87.9313C95.5536 87.9178 95.5491 87.9043 95.5446 87.8908C95.5536 87.8233 95.5671 87.7604 95.5761 87.6929C95.2475 86.8382 94.9323 85.979 94.6397 85.1064C94.6307 85.1379 94.6262 85.1739 94.6172 85.2053C95.369 87.6614 96.1163 89.9015 96.8096 90.6393H96.8141Z" fill="currentColor"/>
<path d="M91.2692 77.1577C91.2692 77.1577 91.2512 77.1577 91.2422 77.1577C92.0075 80.7429 92.9304 88.9567 93.3266 88.6643C93.8983 87.5533 94.317 86.3972 94.6231 85.1962C93.4481 81.3501 92.2641 76.9958 91.2692 77.1488V77.1577Z" fill="currentColor"/>
<path d="M64.2644 80.8551C64.0843 81.053 63.9133 81.2554 63.7422 81.4668C63.7557 81.4533 63.7737 81.4398 63.7872 81.4263C64.35 80.9225 64.8137 80.2433 65.3719 79.7665C65.2458 79.8744 65.1243 79.9869 64.9982 80.1038C64.7686 80.3647 64.5165 80.6122 64.2599 80.8551H64.2644Z" fill="currentColor"/>
<path d="M48.8264 40.1954C48.4843 40.3348 48.0251 40.5373 47.4668 40.7937C47.4398 40.8477 47.4083 40.9061 47.3633 40.9691C48.2141 40.6092 48.7994 40.3438 49.1506 40.1729C49.047 40.1819 48.9345 40.1864 48.8264 40.1954Z" fill="currentColor"/>
<path d="M47.279 40.4743C47.0854 40.6767 46.7883 40.9556 46.3516 41.3244C46.7567 41.1265 47.1304 40.9511 47.4635 40.7981C47.5986 40.5237 47.5176 40.4248 47.279 40.4788V40.4743Z" fill="currentColor"/>
<path d="M46.9188 40.3071C46.6307 40.478 46.2525 40.7389 45.8203 41.0763C45.8473 41.1348 45.8788 41.1887 45.8968 41.2652C46.5046 40.8154 46.9998 40.541 47.2834 40.478C47.3555 40.4015 47.4095 40.3386 47.45 40.2801C47.2744 40.2891 47.0989 40.2981 46.9188 40.3116V40.3071Z" fill="currentColor"/>
<path d="M48.5742 40.7521C48.9389 40.6531 49.263 40.5631 49.5601 40.4822C49.6097 40.3517 49.254 40.4507 48.5742 40.7521Z" fill="currentColor"/>
<path d="M59.4986 37.757C59.368 37.2532 58.9628 36.5245 58.2695 35.4989C58.8233 36.43 59.2419 37.1723 59.4986 37.757Z" fill="currentColor"/>
</g>
<defs>
<clipPath id="clip0_675_7575">
<rect width="142.1" height="142.1" fill="white"/>
</clipPath>
</defs>
</svg>
