<svg width="143" height="143" viewBox="0 0 143 143" fill="none" xmlns="http://www.w3.org/2000/svg">
<path d="M30.2725 88.7789L34.3959 57.4157L50.8419 53.592H9.70312L25.7833 57.4157L30.2725 88.7789Z" fill="currentColor"/>
<path d="M41.2842 54.2261L37.1608 85.5893L20.7148 89.413H61.8536L45.7734 85.5893L41.2842 54.2261Z" fill="currentColor"/>
<path d="M53.246 88.7789L57.3694 57.4157L73.8154 53.592H32.6719L48.7568 57.4157L53.246 88.7789Z" fill="currentColor"/>
<path d="M65.787 88.7789L69.9104 57.4157L86.3564 53.592H45.2129L61.2979 57.4157L65.787 88.7789Z" fill="currentColor"/>
<path d="M76.7979 54.2261L72.6745 85.5893L56.2285 89.413H97.3673L81.287 85.5893L76.7979 54.2261Z" fill="currentColor"/>
<path d="M88.7549 88.7789L92.8783 57.4157L109.324 53.592H68.1855L84.2705 57.4157L88.7549 88.7789Z" fill="currentColor"/>
<path d="M99.7705 54.2261L95.6472 85.5893L79.2012 89.413H120.34L104.255 85.5893L99.7705 54.2261Z" fill="currentColor"/>
<path d="M111.728 88.7789L115.851 57.4157L132.297 53.592H91.1582L107.238 57.4157L111.728 88.7789Z" fill="currentColor"/>
</svg>
