<svg width="279" height="97" viewBox="0 0 279 97" fill="none" xmlns="http://www.w3.org/2000/svg">
<g clip-path="url(#clip0_675_9706)">
<path d="M30.3382 55.2717C32.4942 56.4074 35.411 55.9235 37.7641 56.0132C40.535 56.1186 43.4596 56.3176 46.1162 55.3576C47.0464 55.0219 47.7322 54.4911 48.0909 53.7379C48.6072 52.9651 49.3049 51.2362 47.61 50.8615C44.9022 50.5103 31.9976 52.4773 29.207 52.3212C24.6782 52.4227 20.2322 50.9201 15.8768 50.963C15.8098 51.002 15.7467 51.0372 15.6797 51.0762C16.3655 51.7865 29.6563 54.9126 30.3343 55.2717H30.3382Z" fill="currentColor"/>
<path d="M37.6456 58.913C34.7091 59.7287 31.6939 59.2448 29.5024 60.8449C29.0688 61.3289 28.9427 62.0079 28.8008 62.8392C28.8087 63.2139 28.8363 63.5574 28.8363 63.893C28.8363 64.2286 28.8087 64.5565 28.8441 64.7828C29.2107 64.615 29.731 64.4082 30.2591 64.2482C31.8515 63.772 33.5306 63.7447 35.2097 63.5613C37.752 63.2803 40.2627 62.7495 42.742 62.1289C46.5928 61.161 50.2545 59.3423 49.8761 54.7058C48.0039 55.9781 46.0213 56.8563 43.9717 57.5041C41.9182 58.152 39.7976 58.5696 37.6495 58.9169L37.6456 58.913Z" fill="currentColor"/>
<path d="M69.659 49.1638C67.3571 48.3599 64.5429 49.2653 62.2056 49.519C59.4504 49.8195 56.5258 50.0537 54.0466 51.3923C53.1755 51.8607 52.5764 52.4851 52.336 53.2813C51.9379 54.1243 51.5122 55.9352 53.2425 56.0562C55.974 56.0054 68.441 52.1651 71.2238 51.9114C75.6895 51.1465 80.309 51.9777 84.6131 51.2987C84.6723 51.2518 84.7314 51.205 84.7905 51.1582C84.0061 50.5571 70.3921 49.4136 69.6669 49.1599L69.659 49.1638Z" fill="currentColor"/>
<path d="M61.8897 46.6387C64.6724 45.4015 67.7271 45.4367 69.6545 43.536C70.0092 42.9935 70.0368 42.3027 70.0486 41.4597C69.9856 41.0928 69.9068 40.7572 69.8555 40.4255C69.8043 40.0937 69.7846 39.7659 69.7136 39.5473C69.3786 39.7659 68.8938 40.0469 68.3932 40.285C66.8915 40.9875 65.2321 41.2607 63.6003 41.69C61.129 42.3417 58.7246 43.2355 56.3676 44.2151C52.702 45.7372 49.3556 48.0749 50.4277 52.6022C52.0871 51.0723 53.916 49.9093 55.8473 48.9687C57.7787 48.0281 59.8164 47.3022 61.8897 46.6426V46.6387Z" fill="currentColor"/>
<path d="M76.8529 38.1583C78.3271 40.0863 81.1768 40.8668 83.2697 41.9323C85.7371 43.1851 88.3031 44.5862 91.1213 44.8243C92.1066 44.9062 92.9541 44.715 93.6044 44.1803C94.4046 43.6964 95.7723 42.4202 94.3927 41.3742C92.0869 39.9224 79.5489 36.3201 77.0855 35.0126C72.9351 33.2135 69.5414 29.9976 65.5762 28.214C65.5013 28.2218 65.4265 28.2296 65.3516 28.2374C65.6708 29.1663 76.3918 37.5534 76.8529 38.1583Z" fill="currentColor"/>
<path d="M81.9258 44.5082C78.9145 44.0203 76.388 42.3226 73.7195 42.8612C73.1204 43.1188 72.7144 43.6808 72.2336 44.3755C72.0799 44.715 71.9616 45.0389 71.8197 45.3473C71.6778 45.6517 71.5123 45.9366 71.4492 46.159C71.8513 46.159 72.411 46.1903 72.9588 46.2644C74.6024 46.4986 76.1396 47.1738 77.7399 47.7085C80.1639 48.5163 82.6668 49.0822 85.1815 49.5545C89.0876 50.2882 93.1828 50.1633 94.8106 45.8C92.5719 46.1707 90.4001 46.1395 88.2638 45.8702C86.1275 45.6009 84.0266 45.0936 81.9297 44.5121L81.9258 44.5082Z" fill="currentColor"/>
<path d="M115.109 49.0354C113.363 47.3455 110.427 46.9903 108.2 46.2449C105.571 45.3668 102.824 44.3598 100.001 44.5355C99.0121 44.5979 98.204 44.914 97.6443 45.5346C96.927 46.1317 95.7642 47.5953 97.2817 48.4266C99.7807 49.5232 112.717 51.2444 115.35 52.1771C119.725 53.348 123.56 56.0331 127.75 57.2118C127.825 57.1922 127.896 57.1766 127.97 57.1571C127.517 56.2868 115.657 49.5662 115.109 49.0315V49.0354Z" fill="currentColor"/>
<path d="M109.141 43.5012C112.192 43.5403 114.947 44.8516 117.501 43.9266C118.053 43.5832 118.372 42.9705 118.743 42.2094C118.841 41.8504 118.912 41.5108 119.007 41.1908C119.101 40.8668 119.224 40.5624 119.251 40.3361C118.853 40.3946 118.293 40.4493 117.742 40.4532C116.078 40.4649 114.462 40.0199 112.799 39.7272C110.28 39.2862 107.718 39.0911 105.164 38.9935C101.191 38.8413 97.1629 39.5672 96.2051 44.1179C98.365 43.4232 100.517 43.1344 102.669 43.0875C104.821 43.0407 106.977 43.2319 109.137 43.5012H109.141Z" fill="currentColor"/>
<path d="M123.641 40.9791C124.721 43.153 127.386 44.4682 129.25 45.9123C131.445 47.6139 133.708 49.4833 136.447 50.2561C137.405 50.5254 138.28 50.5019 139.025 50.1C139.908 49.776 141.508 48.7847 140.353 47.4968C138.355 45.6313 126.668 39.6912 124.488 37.9349C120.736 35.3747 118.009 31.5656 114.438 29.0561C114.363 29.0483 114.284 29.0405 114.209 29.0327C114.343 30.0045 123.306 40.2922 123.645 40.9752L123.641 40.9791Z" fill="currentColor"/>
<path d="M127.418 48.1876C124.537 47.1299 122.369 44.9795 119.629 44.9951C118.987 45.1317 118.478 45.6078 117.867 46.1972C117.651 46.5016 117.469 46.7982 117.268 47.0675C117.067 47.3407 116.851 47.5866 116.744 47.7895C117.142 47.8676 117.69 48.0042 118.218 48.1837C119.799 48.7262 121.182 49.6863 122.664 50.5176C124.903 51.7743 127.268 52.8124 129.657 53.753C133.373 55.2204 137.445 55.8839 139.905 51.9187C137.618 51.8523 135.478 51.4074 133.421 50.7322C131.363 50.057 129.385 49.1594 127.426 48.1837L127.418 48.1876Z" fill="currentColor"/>
<path d="M159.327 58.9983C157.932 57.004 155.098 56.0946 153.04 54.9355C150.616 53.5695 148.094 52.0553 145.271 51.6884C144.282 51.5596 143.423 51.7118 142.745 52.2153C141.917 52.6641 140.486 53.8779 141.827 54.9863C144.081 56.5396 156.532 60.7117 158.952 62.1323C163.048 64.1188 166.319 67.4908 170.229 69.45C170.304 69.45 170.383 69.4422 170.458 69.4383C170.178 68.4938 159.768 59.6267 159.327 58.9983Z" fill="currentColor"/>
<path d="M154.508 52.4182C157.515 53.0427 159.983 54.8536 162.687 54.4399C163.298 54.2096 163.731 53.6671 164.248 52.9919C164.417 52.6563 164.551 52.3402 164.709 52.0435C164.866 51.7469 165.044 51.4659 165.119 51.2513C164.713 51.2318 164.153 51.1771 163.605 51.0757C161.962 50.7673 160.448 50.0219 158.86 49.417C156.455 48.4998 153.964 47.8168 151.457 47.2353C147.563 46.3259 143.436 46.2635 141.604 50.5449C143.87 50.2756 146.054 50.4044 148.194 50.7712C150.33 51.1381 152.423 51.7391 154.508 52.4182Z" fill="currentColor"/>
<path d="M166.675 50.257C168.445 51.9235 171.385 52.2318 173.628 52.9421C176.269 53.7812 179.032 54.7491 181.85 54.5305C182.835 54.4525 183.643 54.1286 184.191 53.4963C184.9 52.8875 186.04 51.4083 184.506 50.5965C181.992 49.5389 169.028 48.009 166.383 47.1152C161.992 46.0107 158.114 43.3842 153.908 42.2641C153.833 42.2836 153.762 42.3031 153.688 42.3226C154.153 43.189 166.111 49.7301 166.671 50.257H166.675Z" fill="currentColor"/>
<path d="M172.725 55.7053C169.674 55.7092 166.899 54.4408 164.357 55.4048C163.809 55.756 163.502 56.3766 163.139 57.1415C163.044 57.5045 162.977 57.8401 162.891 58.1641C162.8 58.488 162.686 58.7963 162.658 59.0227C163.056 58.9602 163.612 58.8978 164.168 58.8861C165.831 58.851 167.455 59.2725 169.122 59.5378C171.649 59.9437 174.211 60.0998 176.765 60.1584C180.738 60.2521 184.758 59.4676 185.645 54.9013C183.497 55.6272 181.349 55.9473 179.197 56.0292C177.045 56.1073 174.889 55.9473 172.721 55.7092L172.725 55.7053Z" fill="currentColor"/>
<path d="M206.209 54.8194C204.206 53.4339 201.254 53.5588 198.929 53.1841C196.193 52.7431 193.312 52.1928 190.561 52.8211C189.595 53.0436 188.85 53.4846 188.401 54.1871C187.79 54.8935 186.887 56.5249 188.523 57.0986C191.168 57.7777 204.218 57.3874 206.966 57.8831C211.475 58.3319 215.7 60.3613 220.028 60.8492C220.099 60.818 220.166 60.7906 220.237 60.7594C219.645 59.971 206.839 55.2565 206.209 54.8194Z" fill="currentColor"/>
<path d="M199.41 50.3194C202.425 49.8667 205.358 50.7136 207.731 49.3906C208.219 48.9652 208.432 48.3056 208.673 47.4977C208.712 47.1269 208.728 46.7835 208.767 46.4479C208.807 46.1161 208.878 45.7922 208.87 45.5658C208.487 45.6868 207.944 45.8312 207.4 45.9249C205.76 46.2059 204.093 46.0264 202.402 46.0068C199.844 45.9756 197.286 46.1981 194.751 46.5181C190.81 47.0099 186.951 48.3758 186.754 53.0202C188.768 51.9859 190.845 51.3537 192.962 50.9595C195.078 50.5653 197.234 50.4092 199.414 50.3233L199.41 50.3194Z" fill="currentColor"/>
<path d="M209.027 44.464C211.218 45.5334 214.119 44.9636 216.472 44.9792C219.243 45.0026 222.176 45.1119 224.797 44.0737C225.715 43.7108 226.385 43.1605 226.724 42.3955C227.217 41.6072 227.859 39.8587 226.157 39.5348C223.437 39.2655 210.603 41.6228 207.809 41.5486C203.284 41.7867 198.795 40.4207 194.443 40.5924C194.38 40.6315 194.313 40.6705 194.25 40.7134C194.956 41.4003 208.337 44.1284 209.027 44.464Z" fill="currentColor"/>
<path d="M216.441 47.879C213.532 48.7805 210.501 48.3902 208.361 50.0528C207.943 50.5485 207.837 51.2315 207.723 52.0667C207.742 52.4413 207.782 52.7809 207.79 53.1165C207.801 53.4522 207.782 53.78 207.825 54.0064C208.184 53.8268 208.7 53.6044 209.224 53.4287C210.801 52.9058 212.48 52.8277 214.151 52.5935C216.686 52.2345 219.177 51.6296 221.636 50.9349C225.456 49.8538 229.062 47.9219 228.538 43.301C226.705 44.6279 224.75 45.5646 222.72 46.2749C220.69 46.9852 218.582 47.4653 216.441 47.879Z" fill="currentColor"/>
<path d="M248.142 37.1697C245.817 36.4359 243.034 37.4234 240.7 37.7512C237.957 38.1376 235.04 38.4576 232.601 39.8704C231.745 40.3661 231.166 41.0061 230.949 41.8101C230.579 42.6648 230.204 44.4874 231.938 44.5538C234.666 44.4211 247.011 40.2061 249.782 39.8704C254.22 38.9689 258.867 39.6636 263.144 38.8518C263.203 38.801 263.258 38.7542 263.317 38.7035C262.517 38.1259 248.871 37.396 248.142 37.1658V37.1697Z" fill="currentColor"/>
<path d="M240.299 34.8787C243.042 33.5596 246.097 33.5011 247.961 31.5418C248.3 30.9916 248.304 30.3008 248.292 29.4539C248.217 29.087 248.127 28.7553 248.067 28.4235C248.004 28.0918 247.973 27.7678 247.898 27.5493C247.571 27.7796 247.094 28.0762 246.601 28.3259C245.119 29.0753 243.472 29.3992 241.856 29.8754C239.404 30.6013 237.027 31.5653 234.702 32.6151C231.083 34.2465 227.812 36.6857 229.022 41.1779C230.634 39.5972 232.427 38.3835 234.327 37.3804C236.231 36.3813 238.241 35.593 240.295 34.8748L240.299 34.8787Z" fill="currentColor"/>
</g>
<defs>
<clipPath id="clip0_675_9706">
<rect width="278.1" height="96.1" fill="white"/>
</clipPath>
</defs>
</svg>
