<svg width="279" height="97" viewBox="0 0 279 97" fill="none" xmlns="http://www.w3.org/2000/svg">
<g clip-path="url(#clip0_675_4028)">
<path d="M27.9216 55.5272C30.1154 56.7058 33.0833 56.2036 35.4777 56.2968C38.2972 56.4061 41.2731 56.6127 43.9763 55.6164C44.9228 55.268 45.6207 54.7172 45.9857 53.9356C46.5111 53.1337 47.2209 51.3395 45.4964 50.9507C42.741 50.5862 29.6101 52.6274 26.7705 52.4654C22.1622 52.5707 17.6382 51.0114 13.2064 51.056C13.1382 51.0965 13.074 51.1329 13.0059 51.1734C13.7037 51.9105 27.2277 55.1546 27.9176 55.5272H27.9216Z" fill="currentColor"/>
<path d="M35.3574 59.3059C32.3694 60.1524 29.3013 59.6502 27.0713 61.3107C26.6301 61.8129 26.5018 62.5176 26.3574 63.3803C26.3654 63.7691 26.3935 64.1255 26.3935 64.4738C26.3935 64.8221 26.3654 65.1623 26.4015 65.3972C26.7745 65.2231 27.3039 65.0084 27.8414 64.8424C29.4617 64.3483 31.1702 64.3199 32.8788 64.1296C35.4657 63.838 38.0205 63.2871 40.5432 62.6432C44.4616 61.6388 48.1875 59.7514 47.8025 54.9399C45.8974 56.2603 43.8801 57.1715 41.7945 57.8438C39.705 58.5162 37.5472 58.9495 35.3614 59.31L35.3574 59.3059Z" fill="currentColor"/>
<path d="M67.932 49.1889C65.5898 48.3545 62.7262 49.2942 60.3478 49.5574C57.5444 49.8693 54.5684 50.1123 52.0457 51.5014C51.1594 51.9875 50.5497 52.6355 50.3051 53.4617C49.9 54.3365 49.4669 56.2157 51.2276 56.3413C54.007 56.2886 66.6927 52.3034 69.5243 52.0401C74.0684 51.2463 78.7689 52.109 83.1485 51.4042C83.2087 51.3556 83.2688 51.307 83.329 51.2584C82.5309 50.6347 68.678 49.4481 67.94 49.1848L67.932 49.1889Z" fill="currentColor"/>
<path d="M60.0279 46.5685C62.8595 45.2846 65.9677 45.321 67.929 43.3486C68.2899 42.7857 68.318 42.0688 68.33 41.194C68.2659 40.8133 68.1856 40.465 68.1335 40.1207C68.0814 39.7765 68.0613 39.4363 67.9891 39.2095C67.6482 39.4363 67.1549 39.7279 66.6455 39.9749C65.1175 40.7039 63.429 40.9875 61.7686 41.433C59.2539 42.1093 56.8074 43.0368 54.409 44.0534C50.679 45.6329 47.274 48.0589 48.3649 52.757C50.0534 51.1693 51.9143 49.9624 53.8796 48.9864C55.8448 48.0103 57.9183 47.257 60.0279 46.5725V46.5685Z" fill="currentColor"/>
<path d="M75.252 37.7681C76.752 39.7688 79.6517 40.5788 81.7814 41.6845C84.292 42.9846 86.903 44.4385 89.7706 44.6856C90.7733 44.7707 91.6356 44.5722 92.2974 44.0173C93.1115 43.5151 94.5032 42.1908 93.0995 41.1053C90.7532 39.5987 77.9953 35.8605 75.4886 34.5037C71.2654 32.6366 67.8122 29.2994 63.7774 27.4485C63.7012 27.4566 63.625 27.4647 63.5488 27.4728C63.8737 28.4367 74.7827 37.1403 75.252 37.7681Z" fill="currentColor"/>
<path d="M80.4143 44.3576C77.3501 43.8513 74.7793 42.0895 72.0641 42.6484C71.4544 42.9157 71.0413 43.499 70.552 44.2199C70.3956 44.5722 70.2753 44.9084 70.1309 45.2283C69.9865 45.5442 69.8181 45.8399 69.7539 46.0707C70.163 46.0707 70.7325 46.1031 71.29 46.1801C72.9624 46.4231 74.5266 47.1238 76.1549 47.6786C78.6215 48.517 81.1683 49.1043 83.7271 49.5943C87.7017 50.3557 91.8688 50.2261 93.5252 45.6981C91.2471 46.0829 89.0372 46.0505 86.8634 45.771C84.6897 45.4916 82.552 44.9651 80.4183 44.3616L80.4143 44.3576Z" fill="currentColor"/>
<path d="M114.179 49.0556C112.402 47.3019 109.415 46.9334 107.148 46.1598C104.473 45.2486 101.678 44.2036 98.8063 44.3859C97.7996 44.4507 96.9774 44.7787 96.4079 45.4227C95.6779 46.0424 94.4948 47.5611 96.0389 48.4238C98.5817 49.5619 111.745 51.348 114.424 52.3159C118.876 53.531 122.778 56.3174 127.041 57.5405C127.118 57.5203 127.19 57.5041 127.266 57.4838C126.805 56.5807 114.737 49.6064 114.179 49.0516V49.0556Z" fill="currentColor"/>
<path d="M108.108 43.3127C111.213 43.3532 114.016 44.714 116.615 43.7541C117.176 43.3977 117.501 42.7619 117.878 41.9721C117.979 41.5995 118.051 41.2471 118.147 40.915C118.243 40.5789 118.368 40.263 118.396 40.0281C117.991 40.0888 117.421 40.1455 116.86 40.1496C115.167 40.1617 113.523 39.7 111.83 39.3963C109.267 38.9386 106.661 38.7361 104.062 38.6348C100.019 38.4769 95.9199 39.2302 94.9453 43.9526C97.1432 43.2317 99.333 42.932 101.523 42.8834C103.713 42.8348 105.906 43.0332 108.104 43.3127H108.108Z" fill="currentColor"/>
<path d="M122.863 40.6952C123.962 42.9511 126.673 44.316 128.57 45.8145C130.804 47.5804 133.106 49.5204 135.894 50.3223C136.868 50.6017 137.759 50.5774 138.517 50.1603C139.415 49.8241 141.044 48.7954 139.868 47.4589C137.835 45.5229 125.943 39.3587 123.725 37.5362C119.907 34.8793 117.132 30.9265 113.498 28.3223C113.422 28.3142 113.342 28.3061 113.266 28.298C113.402 29.3064 122.522 39.9824 122.867 40.6912L122.863 40.6952Z" fill="currentColor"/>
<path d="M126.705 48.1757C123.773 47.0781 121.567 44.8466 118.78 44.8628C118.126 45.0045 117.608 45.4986 116.987 46.1102C116.766 46.4261 116.582 46.7339 116.377 47.0133C116.173 47.2969 115.952 47.552 115.844 47.7626C116.249 47.8436 116.806 47.9854 117.344 48.1717C118.952 48.7346 120.36 49.7309 121.868 50.5936C124.146 51.8977 126.552 52.9751 128.983 53.9511C132.765 55.474 136.908 56.1625 139.41 52.0476C137.084 51.9787 134.906 51.517 132.813 50.8164C130.719 50.1157 128.706 49.1842 126.713 48.1717L126.705 48.1757Z" fill="currentColor"/>
<path d="M159.177 59.3944C157.757 57.3249 154.873 56.3812 152.78 55.1783C150.313 53.7608 147.746 52.1894 144.875 51.8087C143.868 51.675 142.994 51.833 142.304 52.3554C141.462 52.8212 140.006 54.0807 141.369 55.231C143.664 56.8429 156.333 61.1724 158.796 62.6466C162.963 64.7081 166.292 68.2074 170.27 70.2405C170.347 70.2405 170.427 70.2324 170.503 70.2284C170.218 69.2483 159.626 60.0465 159.177 59.3944Z" fill="currentColor"/>
<path d="M154.272 52.566C157.332 53.214 159.842 55.0932 162.594 54.6639C163.215 54.4249 163.657 53.862 164.182 53.1613C164.354 52.813 164.491 52.485 164.651 52.1772C164.812 51.8694 164.992 51.5777 165.068 51.355C164.655 51.3347 164.086 51.278 163.528 51.1727C161.856 50.8528 160.316 50.0792 158.699 49.4515C156.253 48.4997 153.718 47.7909 151.167 47.1875C147.205 46.2438 143.006 46.179 141.141 50.6219C143.447 50.3425 145.669 50.4761 147.846 50.8568C150.02 51.2375 152.15 51.8613 154.272 52.566Z" fill="currentColor"/>
<path d="M166.651 50.3232C168.452 52.0526 171.443 52.3726 173.726 53.1097C176.413 53.9805 179.224 54.9849 182.092 54.7581C183.095 54.6771 183.917 54.3409 184.474 53.6848C185.196 53.053 186.355 51.518 184.795 50.6756C182.236 49.578 169.045 47.9904 166.354 47.0629C161.886 45.9168 157.94 43.1911 153.66 42.0287C153.584 42.0489 153.512 42.0692 153.436 42.0894C153.909 42.9886 166.077 49.7765 166.647 50.3232H166.651Z" fill="currentColor"/>
<path d="M172.808 55.9771C169.703 55.9812 166.88 54.6649 164.293 55.6653C163.736 56.0298 163.423 56.6737 163.054 57.4676C162.957 57.8442 162.889 58.1925 162.801 58.5287C162.709 58.8648 162.593 59.1848 162.564 59.4197C162.97 59.3549 163.535 59.2901 164.101 59.2779C165.793 59.2415 167.445 59.6789 169.142 59.9543C171.713 60.3755 174.32 60.5375 176.919 60.5983C180.961 60.6955 185.052 59.8814 185.955 55.1428C183.769 55.8961 181.583 56.2282 179.393 56.3133C177.203 56.3943 175.01 56.2282 172.804 55.9812L172.808 55.9771Z" fill="currentColor"/>
<path d="M206.877 55.0578C204.84 53.62 201.836 53.7496 199.469 53.3608C196.686 52.9031 193.754 52.3321 190.955 52.9841C189.972 53.215 189.214 53.6726 188.757 54.4017C188.135 55.1347 187.217 56.8276 188.881 57.423C191.572 58.1277 204.852 57.7227 207.647 58.2371C212.235 58.7028 216.535 60.8089 220.939 61.3151C221.011 61.2827 221.079 61.2544 221.151 61.222C220.549 60.4039 207.519 55.5114 206.877 55.0578Z" fill="currentColor"/>
<path d="M199.96 50.3881C203.028 49.9183 206.012 50.7971 208.427 49.4241C208.924 48.9827 209.141 48.2982 209.385 47.4599C209.426 47.0751 209.442 46.7187 209.482 46.3704C209.522 46.0261 209.594 45.69 209.586 45.4551C209.197 45.5806 208.643 45.7305 208.09 45.8277C206.422 46.1193 204.725 45.933 203.004 45.9127C200.401 45.8803 197.799 46.1112 195.22 46.4433C191.209 46.9536 187.283 48.3711 187.082 53.1907C189.131 52.1175 191.245 51.4613 193.399 51.0523C195.553 50.6432 197.746 50.4812 199.964 50.3921L199.96 50.3881Z" fill="currentColor"/>
<path d="M209.745 44.3117C211.975 45.4214 214.927 44.8301 217.321 44.8463C220.141 44.8706 223.125 44.984 225.792 43.9067C226.726 43.53 227.408 42.959 227.753 42.1652C228.254 41.347 228.908 39.5326 227.175 39.1964C224.408 38.917 211.349 41.3632 208.506 41.2863C203.901 41.5333 199.333 40.1158 194.906 40.294C194.841 40.3345 194.773 40.375 194.709 40.4196C195.427 41.1324 209.043 43.9634 209.745 44.3117Z" fill="currentColor"/>
<path d="M217.29 47.8555C214.33 48.791 211.245 48.386 209.068 50.1114C208.643 50.6257 208.534 51.3345 208.418 52.2012C208.438 52.59 208.478 52.9424 208.486 53.2907C208.498 53.639 208.478 53.9792 208.522 54.2141C208.887 54.0278 209.413 53.7969 209.946 53.6147C211.55 53.072 213.259 52.991 214.959 52.748C217.538 52.3754 220.073 51.7476 222.576 51.0267C226.462 49.9048 230.132 47.9 229.598 43.1047C227.733 44.4818 225.744 45.4538 223.679 46.1909C221.613 46.928 219.467 47.4262 217.29 47.8555Z" fill="currentColor"/>
<path d="M249.547 36.7421C247.181 35.9807 244.349 37.0054 241.975 37.3456C239.183 37.7466 236.215 38.0787 233.733 39.5448C232.862 40.0592 232.273 40.7234 232.052 41.5577C231.675 42.4447 231.294 44.336 233.059 44.4049C235.834 44.2672 248.396 39.8931 251.215 39.5448C255.731 38.6092 260.46 39.3301 264.811 38.4877C264.872 38.4351 264.928 38.3865 264.988 38.3338C264.174 37.7344 250.289 36.9771 249.547 36.7381V36.7421Z" fill="currentColor"/>
<path d="M241.565 34.3647C244.357 32.9958 247.465 32.935 249.362 30.9019C249.707 30.3308 249.711 29.614 249.699 28.7351C249.623 28.3544 249.531 28.0101 249.47 27.6659C249.406 27.3216 249.374 26.9855 249.298 26.7587C248.965 26.9976 248.48 27.3054 247.979 27.5646C246.47 28.3422 244.794 28.6784 243.15 29.1725C240.655 29.9258 238.237 30.9262 235.87 32.0157C232.188 33.7086 228.86 36.2399 230.091 40.9015C231.731 39.2612 233.556 38.0017 235.489 36.9608C237.426 35.924 239.472 35.1059 241.561 34.3607L241.565 34.3647Z" fill="currentColor"/>
</g>
<defs>
<clipPath id="clip0_675_4028">
<rect width="278.1" height="96.1" fill="white"/>
</clipPath>
</defs>
</svg>
