<svg width="143" height="143" viewBox="0 0 143 143" fill="none" xmlns="http://www.w3.org/2000/svg">
<path d="M114.123 39.1394C112.865 40.4522 111.588 41.7426 110.313 43.0375L106.45 46.8795C103.867 49.4334 101.245 51.9492 98.641 54.4807C96.0216 56.9988 93.3931 59.5034 90.8006 62.0461C90.1485 62.6779 89.4942 63.3074 88.8399 63.9391C88.1856 64.5709 87.4506 65.3124 86.8725 65.8232C86.1577 66.5513 85.2166 67.5235 84.8917 67.696C83.9886 68.6795 83.1259 69.5375 82.931 69.5868C82.5747 70.0886 82.5456 70.0595 82.8996 69.5555C82.8593 69.6272 83.4239 69.094 84.206 68.3278C84.1903 68.283 84.7975 67.6333 85.4362 66.9545C85.6087 66.8179 86.2294 66.2085 86.7268 65.7044C87.0742 65.3438 87.5783 64.8173 88.0086 64.3894C88.4388 63.9615 88.8668 63.5359 89.2948 63.108C89.7228 62.6801 90.1485 62.25 90.5743 61.8176C93.1399 59.2458 95.7572 56.7232 98.3677 54.1985L114.127 39.1439L114.123 39.1394Z" fill="currentColor"/>
<path d="M82.5852 68.9036C82.2603 69.4345 81.848 70.7025 82.164 70.2432C81.848 70.7025 83.1499 70.4135 83.5353 69.9386C83.1499 70.4135 82.2603 69.4345 82.5852 68.9036Z" fill="currentColor"/>
<path d="M122.294 35.8752C119.32 38.3731 116.165 40.6716 113.156 43.1315C110.243 45.5129 107.428 48.0264 104.618 50.5579C103.433 51.6265 102.248 52.6951 101.062 53.7615C100.446 54.3171 99.7806 54.8279 99.2473 55.4663C98.9986 55.7643 98.7655 56.0779 98.5235 56.3826C98.2815 56.6873 98.0485 56.9875 97.7572 57.2182C97.6989 57.263 97.56 57.3526 97.56 57.3526C97.56 57.3526 97.6227 57.2294 97.6519 57.1913C97.6944 57.1353 97.7415 57.0816 97.7841 57.0256C97.8378 56.9539 97.8916 56.8799 97.9364 56.8015C97.9588 56.7612 98.0104 56.6873 97.9969 56.638C97.9902 56.6089 97.9432 56.5977 97.9432 56.5977C97.9432 56.5977 95.8861 59.1023 95.8503 58.6901C95.8144 58.2779 95.3349 58.8133 95.3349 58.8133L97.3964 56.8463C97.3964 56.8463 97.2284 57.207 97.0939 57.3549C96.583 57.9284 95.9242 58.3316 95.3327 58.8133C95.3147 58.829 95.2968 58.8424 95.2789 58.8581C94.7008 59.3375 94.107 59.7945 93.5221 60.265C92.2987 61.2485 91.0864 62.2454 89.8853 63.2557C87.4944 65.2675 85.1484 67.333 82.8516 69.4478C85.3343 67.4764 87.8238 65.5139 90.3201 63.5582C92.5429 61.8175 94.7747 60.0858 96.9908 58.3406C97.2732 58.1188 97.6922 57.5453 97.6922 57.5453L97.7796 57.6954C97.7796 57.6954 97.8961 57.4983 97.9544 57.3952C98.0126 57.2922 98.2076 57.3952 98.2076 57.3952C98.2076 57.3952 98.0552 57.3392 98.0821 57.2698C98.109 57.2003 98.2233 57.1913 98.2591 57.2563C98.7566 56.7948 99.2563 56.3333 99.7537 55.8718C101.136 54.7024 102.492 53.5039 103.823 52.2762C104.863 51.3174 106.545 50.2219 106.924 48.8195C106.857 49.0592 107.287 49.0211 107.471 48.8531C112.318 44.4241 117.259 40.0959 122.287 35.8752H122.294Z" fill="currentColor"/>
<path d="M84.0598 69.8959C83.9276 70.1401 81.4179 71.0138 81.2812 70.7629C81.3305 71.0496 81.6555 70.4268 82.0767 69.3672C82.182 69.2977 82.4352 68.6167 82.4868 68.0701C82.5652 68.5988 83.9276 70.1401 84.0598 69.8959Z" fill="currentColor"/>
<path d="M85.7166 27.9876C85.5978 29.8 85.4477 31.6101 85.3043 33.4203L84.8158 38.8462C84.4797 42.4642 84.0875 46.0755 83.7201 49.6868C83.3324 53.2981 82.9291 56.9072 82.5773 60.5207C82.4832 61.4236 82.389 62.3264 82.2927 63.2292C82.1963 64.1321 82.1112 65.1738 81.9969 65.9377C81.9162 66.9548 81.8199 68.3034 81.6832 68.6439C81.6227 69.9769 81.5129 71.1889 81.3964 71.3524C81.4457 71.9663 81.4053 71.9618 81.3516 71.3479C81.3672 71.4286 81.4569 70.6557 81.5622 69.5692C81.5219 69.5445 81.5689 68.6574 81.6227 67.7254C81.6675 67.5081 81.7504 66.6456 81.8064 65.9377C81.8401 65.4381 81.8894 64.71 81.9431 64.1074C81.9969 63.5048 82.0507 62.9021 82.1045 62.2995C82.156 61.6969 82.2075 61.0943 82.2546 60.4894C82.5661 56.8691 82.9515 53.2556 83.3257 49.6443L85.7188 27.9832L85.7166 27.9876Z" fill="currentColor"/>
<path d="M80.6897 71.0588C80.7838 71.6749 81.2813 72.9093 81.2275 72.356C81.2813 72.9093 82.0902 71.8519 82.0813 71.2425C82.0902 71.8541 80.7816 71.6772 80.6875 71.0588H80.6897Z" fill="currentColor"/>
<path d="M89.8753 20.2385C89.2031 24.0627 88.2642 27.8509 87.5404 31.6684C86.8413 35.3648 86.3013 39.0971 85.7747 42.845C85.5529 44.4244 85.331 46.006 85.1114 47.5854C84.9971 48.4076 84.8156 49.2253 84.8179 50.0587C84.8179 50.4485 84.8425 50.836 84.8515 51.2259C84.8605 51.6157 84.8761 51.9943 84.8022 52.3594C84.7865 52.4311 84.7372 52.5879 84.7372 52.5879C84.7372 52.5879 84.7058 52.4535 84.7036 52.4042C84.7014 52.3325 84.7036 52.2631 84.6969 52.1914C84.6924 52.1018 84.6857 52.0099 84.67 51.9226C84.661 51.8778 84.6543 51.7882 84.6117 51.7568C84.5871 51.7389 84.5445 51.7613 84.5445 51.7613C84.5445 51.7613 84.5804 55.0029 84.2868 54.7095C83.9933 54.416 83.9709 55.1351 83.9709 55.1351L84.2868 52.3034C84.2868 52.3034 84.3899 52.6887 84.3832 52.8881C84.3585 53.6565 84.1165 54.3869 83.9709 55.1351C83.9664 55.1575 83.9619 55.1799 83.9574 55.2046C83.823 55.9416 83.6616 56.6764 83.516 57.4112C83.2113 58.9503 82.9244 60.4938 82.6533 62.0396C82.1155 65.1177 81.6472 68.2048 81.2461 71.3031C81.8802 68.1981 82.5256 65.0931 83.1799 61.9926C83.7625 59.2303 84.3585 56.4703 84.9366 53.7081C85.0106 53.3563 84.9635 52.6484 84.9635 52.6484L85.1271 52.7089C85.1271 52.7089 85.089 52.4826 85.0688 52.3661C85.0487 52.2496 85.2638 52.2048 85.2638 52.2048C85.2638 52.2048 85.1114 52.2586 85.0868 52.1892C85.0621 52.1197 85.145 52.0391 85.2145 52.0659C85.2996 51.3916 85.3848 50.7173 85.4699 50.043C85.7769 48.2597 86.0458 46.4675 86.2766 44.6731C86.4559 43.2707 87.0407 41.3485 86.4312 40.0313C86.5343 40.2575 86.8391 39.9528 86.8727 39.7042C87.7376 33.1962 88.7415 26.7062 89.8798 20.2408L89.8753 20.2385Z" fill="currentColor"/>
<path d="M82.4595 70.8708C82.5155 71.1441 81.1554 73.4247 80.8887 73.3216C81.1105 73.5098 80.9582 72.8243 80.6019 71.74C80.6377 71.619 80.3957 70.9335 80.082 70.481C80.4831 70.8372 82.5155 71.1418 82.4595 70.8685V70.8708Z" fill="currentColor"/>
<path d="M56.7852 37.7017C57.8607 39.1668 58.9094 40.6499 59.9626 42.1285L63.0772 46.6C65.1455 49.5863 67.1666 52.6062 69.208 55.6081C71.2336 58.6235 73.2436 61.6479 75.2984 64.6431C75.8071 65.3958 76.3157 66.1486 76.8221 66.9013C77.3286 67.654 77.9336 68.5076 78.3369 69.1662C78.9307 69.9973 79.7239 71.0928 79.8382 71.4401C80.6494 72.4997 81.344 73.4989 81.3597 73.7005C81.7922 74.1396 81.7586 74.162 81.3238 73.7251C81.3888 73.7767 80.9586 73.127 80.3402 72.2264C80.2931 72.2331 79.7598 71.523 79.1996 70.7769C79.0943 70.582 78.6036 69.8674 78.1913 69.2894C77.8955 68.8862 77.4652 68.297 77.1202 67.7996C76.7751 67.3023 76.4278 66.8072 76.0804 66.3099C75.7331 65.8125 75.3836 65.3197 75.0318 64.8268C72.9434 61.854 70.9155 58.8386 68.8786 55.8299L56.7852 37.6995V37.7017Z" fill="currentColor"/>
<path d="M80.6272 73.9244C81.0956 74.3366 82.272 74.9616 81.8731 74.5718C82.2697 74.9616 82.2115 73.6309 81.8104 73.1694C82.2115 73.6309 81.0933 74.3366 80.625 73.9244H80.6272Z" fill="currentColor"/>
<path d="M54.9894 29.0923C56.9322 32.455 58.6486 35.9587 60.5488 39.3483C62.3885 42.6302 64.376 45.8361 66.3815 49.0441C67.2285 50.3972 68.0733 51.7504 68.9203 53.1012C69.3595 53.8047 69.7494 54.5484 70.2849 55.1847C70.5359 55.4826 70.8048 55.7649 71.0602 56.0561C71.3157 56.3474 71.5734 56.6274 71.7504 56.9567C71.7863 57.0217 71.8468 57.174 71.8468 57.174C71.8468 57.174 71.737 57.0911 71.7033 57.0553C71.6563 57.0038 71.6115 56.9478 71.5622 56.8962C71.4994 56.8313 71.4367 56.7641 71.3672 56.7058C71.3314 56.6767 71.2664 56.614 71.2149 56.6162C71.1857 56.6184 71.1656 56.6632 71.1656 56.6632C71.1656 56.6632 73.2764 59.1231 72.8618 59.0872C72.4473 59.0514 72.8932 59.6159 72.8932 59.6159L71.3135 57.2435C71.3135 57.2435 71.6384 57.472 71.7616 57.6288C72.2367 58.2314 72.5212 58.9483 72.891 59.6159C72.9022 59.6361 72.9134 59.6562 72.9246 59.6764C73.2965 60.3283 73.6439 60.9937 74.0069 61.6501C74.7642 63.0256 75.5351 64.3922 76.3216 65.752C77.8879 68.456 79.5147 71.1219 81.1997 73.7542C79.6895 70.9673 78.1859 68.176 76.6958 65.3801C75.367 62.8889 74.0494 60.3933 72.7139 57.9044C72.5436 57.5885 72.0529 57.0755 72.0529 57.0755L72.2165 57.015C72.2165 57.015 72.0417 56.8671 71.9521 56.7909C71.8624 56.7148 71.9969 56.5423 71.9969 56.5423C71.9969 56.5423 71.914 56.6812 71.8512 56.6431C71.7885 56.605 71.7997 56.4907 71.8692 56.4661C71.5017 55.8948 71.132 55.3236 70.7645 54.7523C69.8525 53.1886 68.9069 51.6451 67.9299 50.1194C67.1658 48.9299 66.3793 47.0816 65.0639 46.4656C65.288 46.5731 65.3261 46.143 65.1917 45.9324C61.6714 40.39 58.2654 34.7759 54.9805 29.0901L54.9894 29.0923Z" fill="currentColor"/>
<path d="M81.8618 72.6453C82.0791 72.8178 82.5049 75.4389 82.2337 75.533C82.525 75.5352 81.9671 75.1051 80.9968 74.5069C80.9475 74.3904 80.3201 74.023 79.7891 73.8774C80.3246 73.8931 82.0791 72.82 81.8595 72.6475L81.8618 72.6453Z" fill="currentColor"/>
<path d="M41.0859 96.3735C41.2831 95.7844 42.3833 95.3968 43.4925 94.9555C43.916 94.4783 45.0387 93.9899 45.87 93.4948C45.8229 93.4993 47.0576 92.76 48.2452 92.0252L50.6204 90.5556C51.017 90.3114 51.4159 90.0694 51.8148 89.8297C52.2136 89.59 52.6147 89.3503 53.0158 89.1128C53.455 88.8575 55.9512 87.6208 54.7031 88.1966C56.7243 87.2064 57.8021 86.6754 55.4381 87.7104C57.9567 86.5881 59.1645 86.0414 56.9663 87.0137C59.3191 85.9586 59.2384 85.9832 56.6593 87.0204C59.2384 85.981 59.6373 85.8152 57.9769 86.5074C59.6776 85.7973 59.5477 85.8421 57.271 86.6777C59.6933 85.7928 59.7919 85.7547 57.9298 86.382C59.8322 85.739 59.8905 85.7166 59.3057 85.9362C59.9196 85.7076 59.9376 85.7076 60.7935 85.8376C59.9532 85.7099 59.9443 85.7121 60.5381 85.9294C59.9555 85.6987 59.9981 85.6785 61.6047 84.8519C60.081 85.618 60.0608 85.6248 61.3694 84.8788C60.7375 85.2327 60.5045 85.3537 60.7151 85.1946C60.9257 85.0356 61.8108 84.6502 62.7273 83.8258C61.84 84.6256 61.0333 84.9572 60.993 84.9796C60.9526 85.002 61.4523 84.6637 62.4898 83.9602C61.5083 84.6189 61.282 84.7645 61.5935 84.536C61.9049 84.3075 63.404 83.9334 63.9239 82.8804C63.4757 83.8841 62.4114 84.0476 62.3441 84.005C62.4651 84.0207 63.6303 83.8482 64.0158 82.8513C63.776 83.7497 63.5228 83.6735 63.4466 83.2523C64.2286 83.1896 65.5933 83.0529 65.2078 82.0471C65.3311 83.2837 67.4016 82.578 66.5702 81.3503C67.3836 81.7872 68.0559 82.009 68.1926 82.0493C68.5847 81.9306 68.6049 81.543 67.9976 80.806C68.9634 81.4287 69.602 81.7648 69.593 81.9283C70.0927 81.7245 70.1577 81.2137 69.4653 80.4005C70.4916 81.1353 70.9756 81.59 70.868 81.8656C71.4282 81.5564 71.5873 80.9224 70.9554 80.107C71.7442 80.8956 71.7912 81.5654 71.4193 81.9485C71.7307 81.6573 71.5963 81.1039 70.7851 80.2885C71.6165 80.9426 71.7778 81.0569 71.4081 81.0546C71.8674 80.3803 71.9324 79.5044 71.3252 78.8009C72.3873 79.7665 72.6786 78.6217 72.3447 77.6248C73.2836 78.0952 73.7004 77.2999 73.5883 76.7287C74.4017 76.8653 74.8364 76.3456 74.9171 75.9916C75.2017 76.1574 75.195 76.1619 74.9104 75.9961C75.195 76.1619 75.8493 75.6825 75.6991 75.4741C75.847 75.6802 75.8963 75.7564 75.7574 75.5593C75.8963 75.7564 75.2644 76.2896 74.9978 76.1193C75.2667 76.2918 75.2644 76.2918 74.9978 76.1193C75.2667 76.2918 75.2622 76.2941 74.9933 76.1216C74.9104 76.5002 74.4846 77.105 73.7161 76.9191C73.8281 77.5576 73.436 78.4358 72.5531 77.8488C72.8937 78.9488 72.636 80.0935 71.6389 78.9824C72.2461 79.7105 72.1677 80.6043 71.733 81.2764C72.0982 81.2204 71.9862 81.0165 71.2042 80.331C71.9727 81.1554 72.0288 81.8768 71.7106 82.2711C72.031 81.9575 71.9638 81.3279 71.1885 80.4811C71.9638 81.3279 71.9974 82.0202 71.6568 82.3719C71.9369 82.0291 71.8248 81.3615 71.0316 80.5102C71.6837 81.3884 71.5492 82.1008 71.0406 82.4189C71.1145 82.1501 70.635 81.646 69.5818 80.8373C70.337 81.7267 70.3235 82.3024 69.8642 82.5198C69.853 82.3607 69.2031 81.9821 68.1634 81.2697C68.8805 82.0963 68.941 82.5354 68.5712 82.6631C68.439 82.6206 67.7242 82.3585 66.7943 81.823C67.3814 82.5175 67.1259 83.0305 66.7092 83.1874C66.2946 83.3442 65.6896 83.1605 65.4947 82.5153C66.1333 83.6713 64.0897 83.6959 63.1351 83.8908C62.985 84.359 63.0948 84.5113 63.525 83.7676C62.9155 84.6346 61.5307 84.8586 61.4389 84.9437C61.347 85.0289 62.4002 84.9213 63.1172 84.2627C62.3464 84.9684 61.0691 85.1969 60.7868 85.3694C60.5045 85.5419 60.6905 85.5419 61.2843 85.4523C60.0272 85.6942 60.0115 85.7188 60.984 86.3349C59.9712 85.7188 59.9667 85.7211 60.8809 86.4447C59.9667 85.7211 59.96 85.7189 60.7285 86.429C59.9465 85.7189 59.9308 85.7189 59.4446 86.5186C59.9017 85.7256 59.8502 85.7637 58.1629 86.9264C59.8121 85.7793 59.7247 85.8353 57.5489 87.1997C59.5947 85.9093 59.7112 85.8331 58.1741 86.8479C59.6709 85.8555 59.3079 86.0818 56.9416 87.5379C59.3079 86.0818 59.3796 86.0347 57.1971 87.3923C59.2295 86.1199 58.1024 86.7964 55.7271 88.2123C57.9477 86.8793 56.9304 87.4797 54.972 88.6289C56.1708 87.9053 53.7418 89.319 53.2959 89.5743C52.8926 89.8051 52.4892 90.0358 52.0859 90.2688C51.6825 90.5018 51.2792 90.7326 50.8781 90.9655C50.0737 91.4315 49.2692 91.8997 48.4626 92.3657C47.6559 92.8317 46.8089 93.2977 46.0358 93.7524C45.1865 94.205 44.0438 94.6508 43.5844 95.0944C42.4663 95.4954 41.3235 95.8359 41.0971 96.3668L41.0859 96.3735Z" fill="currentColor"/>
<path d="M76.0581 76.5874C76.1612 76.7868 76.9029 74.9856 77.0015 74.6787C76.9029 74.9856 75.1506 75.0752 74.875 74.8176C75.1506 75.0775 76.1612 76.789 76.0581 76.5897V76.5874Z" fill="currentColor"/>
<path d="M66.8391 116.843C66.6106 116.265 67.2066 115.261 67.7691 114.21C67.787 113.574 68.3337 112.476 68.6519 111.562C68.6183 111.596 69.0889 110.236 69.5258 108.91L70.3997 106.257C70.5476 105.816 70.6955 105.375 70.8479 104.933C71.0003 104.492 71.1526 104.053 71.3072 103.614C71.4798 103.137 72.5979 100.585 72.0108 101.828C72.9206 99.7719 73.4069 98.6719 72.2596 100.984C73.4674 98.5061 74.041 97.3098 72.9833 99.4672C74.1082 97.1463 74.0612 97.2157 72.7526 99.671C74.0612 97.2179 74.2606 96.8349 73.4315 98.4322C74.2763 96.7945 74.2068 96.9133 72.999 99.0146C74.2852 96.7811 74.3368 96.687 73.3127 98.3627C74.3569 96.6467 74.3861 96.5929 74.0813 97.1373C74.4062 96.5683 74.4174 96.5571 75.1569 96.1068C74.4309 96.5481 74.4242 96.5571 75.0202 96.342C74.4264 96.5414 74.4443 96.4988 75.1434 94.8321C74.469 96.398 74.4578 96.4182 74.9821 95.0046C74.7244 95.6811 74.6236 95.9253 74.6841 95.6677C74.7446 95.4101 75.1726 94.5453 75.3451 93.3266C75.1793 94.5117 74.7737 95.2824 74.7603 95.3249C74.7468 95.3675 74.9104 94.7873 75.2532 93.582C74.9261 94.7178 74.8454 94.9732 74.9373 94.5991C75.0292 94.225 75.9389 92.9727 75.6566 91.8324C75.9591 92.8875 75.2488 93.6985 75.1681 93.7097C75.2712 93.6425 76.051 92.7621 75.7059 91.7539C76.098 92.5963 75.856 92.6993 75.5289 92.426C76.0868 91.8749 77.0459 90.8959 76.1025 90.3717C76.9921 91.2387 78.1259 89.3681 76.6985 88.9626C77.6016 88.7766 78.2604 88.5123 78.3926 88.454C78.6189 88.1113 78.3814 87.8021 77.4425 87.6274C78.583 87.484 79.2889 87.3317 79.3875 87.4616C79.6384 86.9822 79.3606 86.5498 78.3074 86.3751C79.5667 86.2787 80.2278 86.3146 80.3241 86.5969C80.5549 86.001 80.2681 85.4118 79.2597 85.1945C80.3712 85.293 80.8372 85.7747 80.7992 86.3079C80.8507 85.8845 80.3913 85.5462 79.2463 85.4431C80.3039 85.4095 80.5011 85.3938 80.2166 85.6291C80.1337 84.8181 79.6205 84.1034 78.704 83.9556C80.1404 84.0116 79.6272 82.9497 78.7287 82.4008C79.7505 82.1567 79.5578 81.2807 79.1051 80.9156C79.8155 80.4966 79.8155 79.8223 79.6474 79.4975C79.9723 79.4415 79.9701 79.4504 79.6452 79.5064C79.9701 79.4504 80.1605 78.6641 79.9141 78.5991C80.1605 78.6618 80.2457 78.6887 80.0126 78.626C80.2457 78.6887 80.1068 79.5019 79.7908 79.5423C80.1068 79.5019 80.1068 79.5042 79.7908 79.5445C80.1068 79.5042 80.1045 79.5087 79.7908 79.5512C79.9701 79.894 80.0328 80.6333 79.3247 80.9828C79.8199 81.4017 80.0844 82.3247 79.0334 82.4412C80.0037 83.0662 80.5392 84.1079 79.0626 83.8973C79.9947 84.0654 80.5101 84.8002 80.6109 85.5955C80.8552 85.3177 80.6378 85.2348 79.5981 85.2124C80.7185 85.349 81.2227 85.8665 81.2339 86.3728C81.2764 85.927 80.8216 85.4879 79.6833 85.3378C80.8216 85.4879 81.2921 85.9965 81.2585 86.4849C81.2518 86.0435 80.7387 85.6022 79.5824 85.461C80.6468 85.7142 81.0031 86.3482 80.8148 86.9195C80.6983 86.6663 80.0082 86.5879 78.6794 86.6462C79.8289 86.8433 80.1897 87.2936 79.9768 87.7528C79.8648 87.6363 79.1253 87.7663 77.8705 87.8873C78.9505 88.0598 79.2799 88.3577 79.0805 88.6937C78.9505 88.7453 78.2357 89.0051 77.1803 89.1933C78.0766 89.3479 78.2111 89.9057 77.9915 90.2933C77.7741 90.6786 77.1938 90.9273 76.6291 90.5599C77.8615 91.0348 76.3109 92.3678 75.7059 93.1295C75.8919 93.5842 76.0734 93.6313 75.9255 92.7845C76.0173 93.8396 75.0986 94.9015 75.083 95.027C75.0673 95.1524 75.8067 94.393 75.9322 93.4274C75.7955 94.4624 74.9642 95.4593 74.8566 95.773C74.7491 96.0866 74.8947 95.9656 75.2913 95.5176C74.4824 96.5123 74.4891 96.5392 75.6297 96.3846C74.4578 96.5638 74.4555 96.5683 75.6207 96.5347C74.4555 96.5683 74.4488 96.5728 75.493 96.6198C74.4376 96.5795 74.4264 96.5884 74.5653 97.5137C74.4062 96.6131 74.3905 96.6736 73.846 98.6495C74.3704 96.7117 74.3413 96.8102 73.5503 99.2544C74.2875 96.9514 74.3278 96.8192 73.8035 98.5823C74.3121 96.8595 74.1799 97.2672 73.3038 99.9018C74.1799 97.265 74.2068 97.1843 73.4069 99.6262C74.1441 97.3456 73.7161 98.589 72.8086 101.199C73.6533 98.7503 73.259 99.8659 72.4971 102.003C72.9497 100.679 71.9974 103.323 71.8204 103.804C71.6591 104.241 71.5 104.676 71.3409 105.113C71.1818 105.549 71.0227 105.986 70.8636 106.423C70.5476 107.297 70.2317 108.173 69.9135 109.049C69.5953 109.922 69.248 110.825 68.9455 111.67C68.587 112.562 67.9976 113.639 67.9282 114.273C67.3299 115.299 66.6733 116.294 66.8414 116.847L66.8391 116.843Z" fill="currentColor"/>
<path d="M80.9108 79.2084C81.1169 79.2958 80.5276 77.4386 80.4066 77.1406C80.5298 77.4386 79.2436 78.6326 78.8672 78.6125C79.2436 78.6349 81.1192 79.2958 80.913 79.2106L80.9108 79.2084Z" fill="currentColor"/>
<path d="M99.723 115.974C99.1762 115.679 98.988 114.527 98.7438 113.36C98.3472 112.86 98.0626 111.671 97.7175 110.763C97.713 110.81 97.1999 109.466 96.6823 108.171C96.1646 106.877 95.647 105.579 95.647 105.579C95.4767 105.147 95.3064 104.712 95.1384 104.278C94.9703 103.843 94.8045 103.409 94.6409 102.972C94.4661 102.495 93.6819 99.822 94.0314 101.153C93.4063 98.9908 93.0724 97.8393 93.6796 100.344C93.0119 97.6691 92.6825 96.3854 93.2584 98.7175C92.6287 96.2174 92.6377 96.3003 93.2135 99.0222C92.6377 96.3025 92.5436 95.8813 92.9357 97.6377C92.5301 95.8388 92.5525 95.9777 92.9805 98.3613C92.5301 95.8231 92.5077 95.7178 92.8035 97.6601C92.4987 95.6752 92.4875 95.6125 92.6041 96.2286C92.4875 95.5834 92.4875 95.5677 92.7654 94.7477C92.492 95.552 92.4943 95.5632 92.8125 95.0166C92.4853 95.5498 92.4719 95.505 91.9363 93.78C92.427 95.4131 92.4293 95.4355 91.9229 94.0152C92.1604 94.6985 92.2411 94.9494 92.12 94.7141C91.999 94.4789 91.7727 93.5403 91.1207 92.4963C91.7548 93.5089 91.9408 94.3602 91.9565 94.4028C91.9722 94.4453 91.7257 93.8942 91.2125 92.7517C91.6921 93.8315 91.7929 94.0802 91.6226 93.7352C91.4523 93.3879 91.3447 91.8466 90.3947 91.1521C91.3044 91.766 91.282 92.8435 91.2282 92.904C91.2641 92.7875 91.2977 91.6114 90.3835 91.058C91.226 91.4501 91.1072 91.6876 90.6792 91.6876C90.7532 90.9079 90.8563 89.5391 89.7986 89.7452C91.0378 89.8393 90.7039 87.6775 89.3482 88.2824C89.9196 87.5587 90.2557 86.9337 90.3185 86.806C90.2714 86.3983 89.8927 86.3132 89.0592 86.7836C89.8412 85.9413 90.2826 85.37 90.4417 85.4059C90.3274 84.8772 89.8345 84.7248 88.9135 85.267C89.8143 84.3843 90.3454 83.9878 90.5986 84.1401C90.3924 83.5352 89.7941 83.2664 88.8821 83.7503C89.7964 83.1118 90.4641 83.1813 90.7778 83.6136C90.5448 83.2552 89.9756 83.2933 89.0323 83.9497C89.821 83.244 89.9622 83.1051 89.895 83.4703C89.3101 82.9012 88.4586 82.6839 87.6609 83.1611C88.797 82.2829 87.7192 81.7968 86.6795 81.9536C87.3046 81.1113 86.5943 80.5624 86.0139 80.5736C86.2896 79.7962 85.8549 79.2787 85.5187 79.1376C85.7316 78.8867 85.7361 78.8934 85.521 79.1466C85.7339 78.8956 85.3753 78.1676 85.1445 78.2773C85.3753 78.1676 85.456 78.1317 85.2386 78.2348C85.4582 78.1317 85.8728 78.8464 85.6577 79.0794C85.8728 78.8464 85.875 78.8464 85.6577 79.0816C85.8728 78.8464 85.875 78.8531 85.6577 79.0883C86.0162 79.2362 86.5383 79.7604 86.2223 80.484C86.8699 80.484 87.6676 81.0217 86.9371 81.7901C88.0799 81.6445 89.1622 82.0992 87.8962 82.8878C88.7186 82.4173 89.5857 82.6481 90.1728 83.1947C90.1818 82.8273 89.9622 82.9012 89.151 83.5532C90.0966 82.9393 90.8159 83.0088 91.1498 83.3919C90.8966 83.0222 90.2647 82.9797 89.2967 83.5935C90.2647 82.9774 90.9526 83.0648 91.2417 83.4591C90.9526 83.1253 90.2759 83.1185 89.3012 83.7525C90.2804 83.2619 90.9593 83.5196 91.1834 84.0751C90.9324 83.9564 90.3521 84.3395 89.3729 85.2378C90.379 84.6486 90.9459 84.7629 91.0781 85.2513C90.919 85.2334 90.4327 85.8091 89.5521 86.7074C90.491 86.1451 90.9347 86.1608 90.9974 86.5484C90.9324 86.6716 90.5515 87.328 89.8614 88.1524C90.6479 87.6954 91.1095 88.0359 91.1901 88.4728C91.2708 88.9096 90.9862 89.4719 90.3162 89.5526C91.5666 89.1247 91.2349 91.1409 91.2596 92.1154C91.6943 92.3439 91.8646 92.2633 91.2058 91.71C91.9542 92.4604 91.9341 93.8628 92.0035 93.9681C92.073 94.0734 92.1492 93.0183 91.6248 92.1961C92.185 93.0788 92.1895 94.3736 92.3105 94.6828C92.4315 94.9919 92.4629 94.806 92.4786 94.2079C92.4987 95.4893 92.5212 95.5072 93.2942 94.6559C92.5099 95.5453 92.5144 95.552 93.3838 94.7769C92.5122 95.552 92.5099 95.5587 93.3413 94.9247C92.5055 95.5722 92.5032 95.5878 93.2068 96.2062C92.5055 95.617 92.5346 95.6752 93.3861 97.5369C92.5436 95.7155 92.5817 95.8096 93.5474 98.1888C92.631 95.9508 92.5772 95.8231 93.3099 97.5122C92.5929 95.8656 92.7519 96.2622 93.776 98.8452C92.7519 96.2622 92.7183 96.1838 93.6774 98.5696C92.7766 96.3473 93.2472 97.575 94.2309 100.158C93.3032 97.7407 93.7177 98.8474 94.511 100.973C94.0045 99.6674 94.977 102.304 95.1496 102.788C95.3064 103.225 95.4633 103.662 95.6224 104.099C95.7815 104.535 95.9406 104.972 96.0997 105.409C96.4201 106.283 96.7405 107.157 97.0587 108.03C97.3769 108.904 97.6906 109.82 98.0021 110.66C98.3001 111.574 98.5399 112.777 98.8984 113.308C99.1001 114.48 99.2345 115.663 99.7208 115.979L99.723 115.974Z" fill="currentColor"/>
<path d="M86.3049 78.1026C86.5201 78.0354 84.8731 76.9914 84.5885 76.8413C84.8753 76.9914 84.658 78.7321 84.3555 78.9584C84.658 78.7321 86.5201 78.0354 86.3049 78.1026Z" fill="currentColor"/>
<path d="M59.1511 75.067C58.0957 75.3223 57.6722 75.4388 57.5916 75.4075C57.4078 75.3179 57.5535 75.0826 58.0689 74.4442C57.419 75.0334 56.9059 75.2731 56.2807 75.1924C56.0387 75.1319 55.6197 74.7309 55.0707 73.6511C55.474 74.6906 55.4673 75.1028 54.869 75.2327C55.0528 75.3694 54.5284 75.226 53.3363 74.8564C54.6629 75.4657 54.2551 75.3291 52.942 74.9437C53.6299 75.1566 53.4484 75.1476 52.7784 75.0849C53.0114 75.0647 52.4131 74.9258 51.974 74.8944C51.6961 74.7309 50.6833 74.489 50.569 74.5091C49.8631 74.2627 49.1932 74.0924 49.9102 74.1395C48.931 73.9401 48.2274 73.799 48.6038 73.8684C47.6941 73.5615 47.3512 73.3464 47.7142 73.0933C47.0532 73.2658 46.2555 72.9118 45.7043 72.3697C44.7721 72.0717 43.9027 71.487 43.152 70.9045C44.8416 72.242 44.8281 72.3697 44.2836 72.0314C44.1088 72.1076 43.3134 71.6842 42.6523 71.2921C43.2125 71.6685 44.2769 72.1815 42.6613 71.4646C43.2148 71.7827 44.1066 72.1882 44.3307 72.2353C44.9043 72.5937 44.9043 72.643 42.7778 71.8141C43.6674 72.2218 43.7907 72.3428 42.9212 72.2532C44.064 72.4996 44.2411 72.5467 43.394 72.4212C44.4113 72.7236 45.2606 72.7505 43.6674 73.5144C44.259 73.1269 45.0096 73.3263 45.9149 73.8819C46.3474 73.8953 47.0868 74.3702 47.5305 74.9169C47.2168 74.3097 46.7126 74.2336 46.9143 75.4612C46.7888 74.2963 46.9389 74.247 47.8711 75.161C47.0353 74.3501 47.0196 74.5293 47.5059 75.7301C47.0599 74.5651 47.1339 74.4397 48.075 75.2327C47.1182 74.3859 47.0958 74.5495 47.6941 75.7592C47.2034 74.6883 48.0504 75.0065 49.0699 75.813C48.1019 75.067 47.3266 74.825 47.9294 75.8331C47.3176 74.8071 48.0773 75.0244 49.0497 75.7726C48.1153 75.0333 47.405 74.834 48.0795 75.8219C47.461 74.8877 48.2565 75.1588 49.1461 75.8645C48.2744 75.0894 47.4969 74.7533 48.1938 75.6897C47.4252 74.601 48.0862 74.7533 49.0542 75.5464C48.0952 74.7668 47.4498 74.6279 48.2251 75.7009C47.5372 74.8004 48.3215 75.1543 49.1573 75.9026C48.3125 75.2305 47.5171 74.9527 48.131 75.8354C47.4521 74.8788 48.1467 75.0647 49.0565 75.7771C48.1153 75.0602 47.3826 74.8653 48.0168 75.851C47.414 74.9169 48.1983 75.179 49.1058 75.8779C48.1467 75.114 47.2907 74.7735 47.8128 75.7838C47.163 74.601 47.1653 74.4173 48.1198 75.2439C47.1899 74.4464 47.2168 74.6637 47.8756 75.7995C47.3288 74.8048 48.1198 75.0647 49.0565 75.7726C48.1579 75.0737 47.4924 74.9213 48.1758 75.8622C47.5932 75.067 48.4111 75.3985 49.173 76.0123C48.4649 75.3716 48.3573 75.3268 48.9646 76.0392C48.5613 75.7346 47.8778 75.1185 48.2072 75.2372C47.4431 74.527 47.6694 74.489 49.173 75.6651C48.4089 75.1006 48.633 75.1857 49.4105 75.7659C48.7809 75.0692 48.8526 75.0042 49.6211 75.5038C48.9086 74.8048 48.9556 74.6794 49.8497 75.0065C49.0049 74.8295 49.0072 75.0692 49.5965 75.6741C48.9467 75.1902 48.8279 75.058 49.5562 75.3694C48.801 75.0916 48.9377 75.4187 49.4553 76.028C49.0565 75.7323 49.0834 75.7547 49.4889 76.0415C49.0229 75.4747 48.9265 75.1476 49.6682 75.2932C48.9512 75.0782 49.1282 75.4164 49.6368 75.9989C49.359 75.8309 49.6144 76.0079 49.9976 76.3394C49.9976 76.0706 50.6698 75.795 51.2614 75.2753C50.8849 75.7637 50.7415 76.093 50.8939 76.3977C50.9746 76.2386 51.6625 76.1356 51.9762 76.0101C51.6266 76.1804 50.9253 76.3305 50.8849 76.559C50.7953 76.3148 51.2636 76.1176 51.7252 75.7704C51.1247 76.2072 50.4189 76.4873 50.5421 76.8233C50.495 76.6307 51.416 76.5343 52.0479 76.3551C51.5818 76.5186 50.9903 76.6441 51.0171 76.904C51.1157 76.7068 51.8978 76.6665 52.2361 76.6911C51.8978 76.6665 51.1225 76.7113 51.0284 76.9353C51.0171 76.7046 51.6535 76.6441 52.1263 76.5903C51.4922 76.6911 51.118 76.7539 51.3331 76.9801C51.7857 76.7897 53.1212 76.7651 53.6232 77.0249C53.2803 76.7987 52.7627 76.8256 52.4624 77.016C52.8635 76.8592 53.4753 76.8659 53.7016 77.1459C53.4663 76.8972 52.3213 77.0093 51.6535 77.4506C51.4093 77.5044 51.2188 78.0644 51.5684 78.9359C51.2502 78.3736 50.6429 78.0107 50.4211 78.1294C50.1724 77.8225 49.9864 77.8964 50.1164 78.3086C49.9573 78.2369 49.908 78.4811 49.9573 78.862C49.9012 78.9314 50.0155 79.3055 50.2239 79.543C50.029 79.2943 49.9438 78.9807 50.011 78.9695C49.9841 78.7096 50.0827 78.6559 50.2105 78.8351C50.1567 78.7096 50.1769 78.844 50.2262 79.0927C50.2486 79.1398 50.3606 79.4041 50.4883 79.6035C50.3449 79.4601 50.2149 79.2652 50.2015 79.2137C50.1208 79.0613 50.1007 78.9807 50.1724 79.0725C49.9617 78.9516 49.7802 78.9717 49.8228 79.1151C49.6816 79.189 49.7578 79.4489 50.0379 79.5699C49.6772 79.4265 49.4845 79.1173 49.5987 79.0389C49.4912 78.8508 49.6548 78.7992 49.9528 78.9269C49.592 78.797 49.3388 78.8306 49.4195 79.021C49.2537 79.0994 49.424 79.4175 49.8273 79.5363C49.4083 79.4153 49.1864 79.2361 49.2895 79.2204C49.1394 79.3839 49.3097 79.7401 49.7421 79.7737C49.3007 79.7827 49.1215 79.4691 49.285 79.2428C49.1976 79.2294 49.4508 79.2361 49.8878 79.2428C49.4621 79.1689 49.2156 79.077 49.3231 79.1218C49.1775 79.2002 49.3881 79.4534 49.8251 79.5296C49.4172 79.4355 49.2425 79.1644 49.4038 79.0882C49.3164 78.9941 49.5741 79.0412 49.9595 79.1442C49.6234 79.0972 49.4441 79.1308 49.5606 79.1935C49.4262 79.3615 49.6122 79.6304 50.0066 79.6617C49.6055 79.6483 49.415 79.4019 49.5494 79.2271C49.4262 79.2092 49.6055 79.2047 49.9573 79.2271C49.5539 79.1599 49.294 79.0927 49.3859 79.1375C49.2245 79.2383 49.4038 79.4848 49.8228 79.5408C49.3926 79.4153 49.164 79.2249 49.2626 79.2137C49.1102 79.3772 49.2783 79.7491 49.7041 79.7961C49.238 79.8208 49.0229 79.608 49.0946 79.4287C48.9691 79.6976 49.1192 80.0135 49.5069 79.9754C49.0699 80.1703 48.8907 80.0269 48.8526 79.7625C48.8122 80.1434 48.9198 80.4234 49.0632 80.4145C48.8794 80.5489 48.754 80.4324 48.5613 80.1882C48.6778 80.5354 48.7338 80.7729 48.5545 80.9006C48.5725 80.9476 48.1422 81.5772 47.5238 82.3657C46.9053 83.1543 46.1076 84.1333 45.4264 84.9555C44.7452 85.7799 44.1783 86.4497 44.0215 86.6245C44.3329 86.5573 51.295 78.3019 43.9094 87.3167C52.7537 77.0294 44.0416 87.59 43.8848 87.7916C45.1262 86.4475 48.4089 82.3052 44.0976 88.4704C44.4293 88.0762 47.8263 82.8317 47.1877 85.296C47.3916 84.9846 47.9182 84.0414 48.4784 83.1453C49.0385 82.2492 49.6324 81.4047 49.9752 81.2926C49.9012 81.0036 50.2934 80.6743 50.8065 80.3069C50.9903 80.0874 51.4899 79.6752 51.6782 79.5004C52.2115 79.0658 52.7694 78.6155 52.7918 78.5618C53.3632 78.1159 53.7106 77.8359 53.4193 78.0622C54.0758 77.5693 54.2102 77.4976 53.5963 78.107C54.6203 77.1482 54.9407 76.8457 53.9436 77.9703C54.878 77.0877 55.3239 76.7001 55.2634 76.9981C55.8393 76.7606 56.0141 77.1482 56.144 78.3243C56.1306 77.0473 56.3457 76.4716 56.5765 76.382C57.0784 75.8869 57.6521 75.7906 58.5327 75.8802C57.7529 75.692 57.5154 75.6315 57.661 75.6069C57.6834 75.45 58.1069 75.3246 59.1601 75.0692L59.1511 75.067Z" fill="currentColor"/>
<path d="M125.037 54.1809C124.531 54.3265 124.076 54.555 124.219 54.4833C123.587 54.732 123.287 54.8351 123.556 54.6805C123.027 54.8843 122.958 54.8754 123.428 54.5976C123.108 54.7186 123.435 54.5147 124.217 54.0666C123.554 54.3892 122.695 54.8127 122.767 54.7163C122.236 55.012 122.001 55.1241 122.176 54.9919C121.864 55.189 121.942 55.1509 122.411 54.8821C121.821 55.2002 121.214 55.4691 121.364 55.3391C120.811 55.5519 120.533 55.6416 120.901 55.4601C120.461 55.7536 120.414 55.7692 120.827 55.4758C120.549 55.6707 121.03 55.3974 121.633 54.9471C121.022 55.375 120.56 55.6124 120.818 55.3279C120.428 55.6236 120.515 55.5183 120.885 55.0188C120.62 55.3862 120.918 55.1465 121.313 54.6312C121.266 54.7858 121.696 54.3512 122.097 53.7754C121.754 54.2862 121.445 54.6066 121.476 54.4385C121.138 54.909 120.858 55.133 121.053 54.7522C120.535 55.4668 120.186 55.7468 120.428 55.3391C120.157 55.8051 120.437 55.6505 121.143 55.021C120.629 55.5004 120.112 55.6102 120.248 55.3705C119.814 56.0202 119.968 55.4892 120.018 55.2159C119.888 55.6035 119.825 55.6124 119.744 55.2137C119.818 55.534 119.921 55.4691 120.152 54.9807C120.051 55.3346 120.255 55.0949 120.585 54.3444C120.246 55.086 120.031 55.3167 120.087 54.9157C119.872 55.4198 119.755 55.4646 119.556 55.0053C119.708 55.4959 119.478 55.8275 119.07 55.0389C119.41 55.5609 119.442 55.3122 119.224 54.4699C119.444 54.9583 119.424 54.2414 119.2 53.3744C119.419 54.2414 119.435 54.9538 119.2 54.4609C119.419 55.3033 119.381 55.5452 118.991 55.012C119.413 55.8006 119.406 55.888 118.944 55.3503C119.357 55.7961 119.404 55.72 119.198 55.0882C119.435 55.5363 119.444 55.1689 119.209 54.2526C119.431 55.1666 119.408 55.534 119.11 55.0815C119.336 55.7155 119.265 55.7916 118.725 55.3593C119.247 55.8902 119.088 55.7849 118.279 55.0904C118.906 55.543 118.754 55.2786 118.082 54.5304C118.579 54.9404 118.173 54.2772 117.624 53.5962C118.182 54.5125 118.371 54.9516 117.604 54.4408C118.173 54.9448 117.723 54.5707 117.019 54.0375C117.356 54.1764 117.217 54.2369 116.719 53.921C116.941 53.9345 116.717 53.7418 116.28 53.4528C116.742 54.3041 115.256 53.1549 114.658 53.0339C114.304 53.0227 113.589 52.6015 113.156 52.541C112.291 52.4223 111.559 52.3192 111.039 52.2476L110.219 52.1333C110.219 52.1333 110.602 52.4402 111.178 52.9017C111.465 53.1325 111.801 53.4013 112.159 53.6903C112.518 53.9793 112.941 54.2929 113.286 54.5931C113.705 54.9045 115.26 55.5094 114.413 55.4959C115.198 55.7244 116.374 55.9485 116.069 56.0694C116.928 56.1949 116.596 56.2755 115.395 56.2845C116.043 56.2935 116.791 56.3047 116.318 56.3719C117.219 56.345 117.739 56.3405 116.981 56.4391C118.097 56.3786 118.375 56.3764 117.396 56.5645C118.281 56.4212 118.102 56.457 117.111 56.6407C117.875 56.4996 117.311 56.5981 116.383 56.7594C117.322 56.6026 117.961 56.4973 117.219 56.6564C118.243 56.4637 118.478 56.4256 117.645 56.6228C118.673 56.4077 118.662 56.4234 117.633 56.7034C118.46 56.4861 118.205 56.5578 117.194 56.8289C117.914 56.6362 117.25 56.8155 116.352 57.0529C117.25 56.8155 117.916 56.6362 117.197 56.8334C118.207 56.5623 118.465 56.4951 117.645 56.7303C118.673 56.4503 118.698 56.457 117.71 56.7998C118.525 56.5399 118.312 56.625 117.335 56.9835C118.057 56.7393 117.47 56.9723 116.574 57.315C117.463 56.9812 117.994 56.7774 117.266 57.0484C118.216 56.699 118.389 56.6385 117.562 56.9723C118.505 56.6295 118.333 56.8535 117.358 57.4046C118.075 57.0708 117.665 57.3352 116.86 57.8146C117.335 57.5951 116.692 58.0252 116.125 58.3971C116.932 57.8997 117.521 57.5637 116.952 57.9871C117.607 57.6488 117.241 58.0252 116.656 58.5673C116.856 58.5696 116.298 59.1543 115.859 59.6673C116.706 59.0244 115.702 60.5903 115.556 61.1257C115.462 61.7396 115.281 62.4497 115.157 63.0367C114.913 64.2128 114.729 65.0955 114.729 65.0955L115.303 64.4973C115.664 64.1187 116.177 63.5833 116.78 62.9538C117.084 62.6312 117.477 62.1697 117.743 61.9457C118.14 61.4752 118.628 59.804 118.799 60.8434C118.949 60.3461 119.007 60.0392 118.85 60.1758C119.034 59.6158 119.094 59.161 118.897 59.515C119.141 58.639 119.276 57.9221 119.097 58.6995C119.37 57.8773 119.428 57.9109 119.334 58.751C119.552 58.0722 119.655 58.5449 119.652 59.3806C119.679 58.4957 119.59 57.7496 119.44 58.359C119.52 57.3845 119.473 57.1089 119.233 57.8168C119.473 56.8155 119.534 56.6586 119.426 57.3442C119.605 56.7214 119.715 56.7393 119.926 57.3262C119.885 56.8334 120.136 57.0955 120.513 57.9087C120.145 57.0865 119.908 56.8155 119.989 57.268C119.764 56.6967 119.67 56.6654 119.599 57.2142C119.655 56.5645 119.711 56.6161 119.82 57.427C119.827 56.8199 120.002 56.9633 120.331 57.7004C120.222 57.2075 120.638 57.7317 120.997 58.5449C120.638 57.7295 120.224 57.2008 120.343 57.6824C120.011 56.9476 119.838 56.7931 119.861 57.3643C119.74 56.5623 120.19 56.6385 120.356 57.0641C120.244 56.6407 120.369 56.6138 120.853 56.8558C120.562 56.6049 120.876 56.6631 121.591 57.0036C120.878 56.6519 120.567 56.5847 120.867 56.7751C120.383 56.5556 120.255 56.5578 120.392 56.8087C120.217 56.4973 119.805 56.298 120.038 56.4279C119.924 56.2935 120.125 56.2576 120.623 56.2755C120.383 56.2263 120.865 56.1859 121.546 56.2195C120.623 56.1904 120.3 56.224 120.771 56.3562C120.354 56.2397 120.784 56.2352 121.604 56.3853C121.225 56.2688 121.566 56.2621 122.111 56.3584C121.985 56.2845 122.429 56.3159 123.016 56.4346C122.393 56.3069 121.929 56.2666 122.068 56.3226C121.528 56.224 121.239 56.2195 121.638 56.2935C120.86 56.1658 120.587 56.1546 121.14 56.1255C120.674 56.1075 120.748 56.0717 121.259 55.9866C120.95 55.9978 121.463 55.8813 122.09 55.7648C121.223 55.9059 121.084 55.9171 121.772 55.7491C121.385 55.8185 121.613 55.7491 122.102 55.6236C121.99 55.6348 122.393 55.5183 123.002 55.3526C122.937 55.3481 123.726 55.1196 124.492 54.8888C123.612 55.1129 123.231 55.1957 123.551 55.0613C123.02 55.1913 123.045 55.0524 123.572 54.8239C123.28 54.9157 123.58 54.7858 124.212 54.5214C124.064 54.5707 124.524 54.3355 125.03 54.1899L125.037 54.1809Z" fill="currentColor"/>
<path d="M105.105 62.3938C105.13 62.3557 105.043 62.405 104.863 62.5215C104.946 62.5125 105.038 62.4879 105.105 62.3938Z" fill="currentColor"/>
<path d="M111.98 61.5066C111.457 60.2476 111.372 60.3372 111.639 61.6142C111.325 60.4694 110.767 60.7472 109.945 61.9592C109.456 61.7889 108.903 61.8539 108.3 62.0443C107.697 62.2347 107.045 62.5483 106.36 62.8799C104.321 63.6595 102.703 64.9409 100.735 65.7743C99.8144 66.1664 98.9674 66.4822 98.2705 66.834C97.4146 67.1991 96.6146 67.5396 95.846 67.6225C95.0617 67.5284 94.1587 67.7189 94.0265 67.45C93.8002 68.2633 94.3716 68.5478 95.1648 68.7203C95.539 69.0585 96.1351 69.2871 96.7266 69.538C97.3697 69.5895 98.0913 69.65 98.8106 69.7127C100.968 69.8964 103.111 70.0891 103.111 70.0891C103.111 70.0891 101.004 69.7866 98.8912 69.4685C98.1876 69.3632 97.4818 69.2557 96.8544 69.1549C96.1552 68.8211 95.5166 68.5052 95.1469 68.2252C94.5845 68.0303 94.2909 67.8712 94.5733 67.6942C94.2595 67.8174 95.3418 67.86 96.8163 67.5822C97.4773 67.2439 98.2526 66.8541 99.0906 66.4845C100.888 65.8169 102.501 65.035 104.334 63.9619C104.796 63.6998 105.239 63.4288 105.703 63.1891C106.176 62.9605 106.642 62.7365 107.092 62.517C108.446 61.8628 109.667 61.2736 110.716 61.8292C111.426 60.4201 111.962 60.1557 112.365 61.3834C111.832 60.1087 111.713 60.1199 111.984 61.4999L111.98 61.5066Z" fill="currentColor"/>
<path d="M115.755 59.5083C114.843 58.61 114.758 58.6996 115.437 59.757C115.072 59.3 114.612 59.2104 114.088 59.4971C113.566 59.757 112.977 60.3955 112.354 61.3946C110.299 61.0183 108.101 62.0913 105.907 63.1667C105.177 63.5251 104.484 63.9351 103.79 64.3159C102.503 65.0373 101.293 65.6242 99.8996 66.1955C99.3416 66.4352 98.8487 66.6413 98.4453 66.8452C97.6387 67.2529 97.1591 67.5038 97.1681 67.524C97.2286 67.6494 97.3182 67.7323 97.437 67.7749C97.5557 67.8175 97.6767 67.8062 97.8045 67.7458C97.9322 67.6853 98.0061 67.6001 98.0442 67.4814C98.0823 67.3649 98.0711 67.2417 98.0106 67.1162C98.0039 67.1006 98.2213 66.8989 98.6156 66.6055C101.302 64.6228 104.926 63.366 106.725 60.2566C107.101 59.8376 107.395 59.5038 107.886 59.4254C108.867 59.2708 109.898 59.8063 111.065 61.6321C111.175 59.6584 111.348 58.2605 111.384 58.2605C111.982 56.5915 112.443 56.3204 112.797 58.4128C113.83 56.8939 114.751 57.7385 116 59.2283C115.522 58.6794 115.117 58.2134 114.769 57.864C114.922 57.6825 114.931 57.5615 114.673 57.4831C114.245 57.3084 113.187 57.3084 113.053 58.4151C113.257 57.4406 113.94 57.3823 114.241 57.566C114.541 57.7497 115.11 58.4621 115.845 59.3582C114.5 57.6735 115.027 58.5204 115.751 59.5083H115.755Z" fill="currentColor"/>
<path d="M94.8549 64.1256C94.4941 63.9374 94.2925 64.036 93.9922 63.9307C98.6911 64.8918 103.231 62.4431 106.184 58.7736C106.673 59.7817 106.563 60.5815 106.549 61.5829C107.466 60.3911 107.784 58.9931 108.703 57.8103C109.42 56.8716 110.137 56.2511 110.164 57.5056C110.565 57.0239 110.973 56.6969 111.378 56.5244C112.631 56.148 114.226 56.8694 113.505 58.4644C115.026 56.9814 117.525 57.5123 119.432 57.3376C119.127 57.7341 119.022 58.0343 118.618 58.2292C119.23 57.4362 120.335 57.1494 120.85 56.1525C119.848 56.139 118.936 56.829 118.13 57.2211C118.735 56.9276 119.541 56.5378 120.146 56.2443C118.936 56.8313 117.72 57.9178 116.315 58.0993C117.921 57.8192 119.035 57.0307 120.348 56.1458C119.743 56.4392 119.333 57.136 118.632 57.2256C120.447 56.3474 121.968 54.8621 123.093 53.0744C123.27 54.9808 121.657 55.7627 120.74 56.9523C122.159 55.7672 123.38 54.1811 124.402 52.689C124.787 53.9974 124.07 55.0906 123.355 56.1839C123.974 54.889 124.993 53.3992 124.31 51.9878C123.185 53.7778 122.159 55.7672 120.238 56.9455C121.551 56.0606 122.372 54.6672 123.49 53.379C123.068 55.0772 121.852 56.1637 120.935 57.3555C121.755 55.9621 123.57 55.0839 123.691 53.2827C122.977 54.376 122.156 55.7694 121.045 56.5557C123.472 54.8823 124.211 51.7862 124.348 48.9814C125.325 50.9976 124.695 53.2939 123.667 55.2855C125.5 52.9041 125.24 49.7946 125.173 47.0884C126.656 48.6095 126.73 50.8162 126.703 52.819C127.039 49.9178 126.479 46.7053 124.097 44.8705C126.185 46.0982 127.156 48.6162 127.326 51.0223C127.265 47.8142 125.495 45.1886 123.216 43.0559C125.502 44.6868 127.375 47.0167 127.539 49.9246C127.368 47.5185 125.793 45.2939 123.906 43.9677C125.99 45.6972 127.559 48.4213 127.422 51.2261C127.552 48.9232 126.582 46.4051 124.491 45.1774C125.964 47.7 126.425 50.7131 125.789 53.509C126.12 51.1074 126.36 48.0047 123.976 46.1721C125.746 48.7999 125.704 52.306 124.265 54.992C125.09 53.099 125.722 50.8027 125.244 48.7932C126.221 50.8095 125.592 53.1057 124.765 54.9988C125.589 53.1057 126.02 50.9058 124.937 49.1898C124.704 51.7929 124.171 54.2908 122.345 56.1704C123.866 54.6874 124.393 52.689 124.919 50.693C125.096 52.5994 124.471 54.3939 123.548 56.0853C124.061 55.0906 124.276 53.9906 124.789 52.9937C123.176 53.7756 122.95 55.8769 121.336 56.6565C122.051 55.5633 123.463 54.88 123.183 53.2737C122.358 55.1668 120.543 56.045 119.125 57.2301C119.429 56.8335 119.631 56.735 120.034 56.5401C119.136 56.2287 118.623 57.2233 117.612 57.3936C116.85 57.6535 115.802 57.8528 115.748 58.227C115.344 57.1964 118.318 56.9791 118.284 56.7753C118.251 56.5714 117.397 56.7238 115.376 57.0262C116.014 56.8335 115.528 56.838 114.233 56.8044C113.585 56.7887 112.92 56.7954 112.375 56.9164C111.968 57.1113 111.634 57.4138 111.41 57.8372C111.56 55.5947 110.856 56.3967 110.014 57.8887C109.783 58.2494 109.516 58.7826 109.229 59.4502C108.943 60.1178 108.636 60.9198 108.324 61.8181C107.659 60.7943 107.181 58.7848 106.778 58.9797C103.654 60.2432 101.308 63.6193 97.499 63.9822C95.7221 64.1413 94.8526 64.1233 94.8526 64.1233L94.8549 64.1256Z" fill="currentColor"/>
<path d="M91.4817 68.5299C87.1839 70.8934 87.7508 70.349 91.8716 66.6817C88.925 69.3834 89.53 68.9645 92.396 66.4151C89.232 68.8615 88.5262 69.3274 91.2397 66.1955C87.2086 70.3378 86.6013 70.8822 88.7659 66.722C85.8529 70.6223 85.7857 69.8449 86.6282 64.0449C85.9067 68.2947 86.0927 67.5195 87.0988 63.4288C85.9425 67.4658 85.7297 68.3148 86.1039 64.0359C85.5078 70.0421 82.4245 67.3493 82.7943 63.4445C81.5708 67.6405 81.0263 67.0334 77.7817 61.8315C80.1412 65.7184 79.8006 65.0127 77.5621 61.0698C79.646 65.2121 80.0135 65.967 77.2506 62.3065C80.9456 67.3829 81.5148 68.0415 81.2414 66.6436C81.3019 68.8883 79.6549 72.6206 73.3763 71.3123C78.0573 72.1479 77.2596 71.7872 72.6055 70.2885C77.208 71.9373 78.0304 72.3473 73.3091 72.1322C79.7513 72.9455 81.4991 69.2916 83.657 71.6304C81.6918 69.9458 80.1121 74.2022 74.9941 77.9995C78.5525 74.834 77.7212 75.0491 73.2553 77.0832C77.7212 75.0491 78.6511 74.9102 75.5835 78.6223C80.4347 74.4823 82.1377 70.3512 86.0994 73.8057C82.6845 70.7097 81.452 75.2977 80.3025 81.2792C80.5064 76.6867 79.9485 77.3319 78.0237 81.4741C82.9018 72.6117 80.4146 71.2473 81.1428 81.2725C81.7814 75.0759 86.1128 73.9827 91.6005 75.9721C86.9128 74.0925 83.9819 71.328 86.5856 76.5433C84.1096 73.0082 84.0984 73.8841 85.0373 77.9637C84.1992 73.8371 84.3113 72.9119 87.2108 76.149C84.309 71.1084 87.2668 73.799 92.517 74.0544C87.827 73.1538 88.4477 73.6623 93.3528 76.2386C89.5345 74.8788 90.0006 75.5867 93.0839 77.9323C89.9513 75.4859 89.4606 74.7287 93.485 75.7928C88.4029 73.3129 87.8338 72.6542 92.5864 70.7186C87.9413 72.1031 88.7189 72.0382 94.1146 71.4064C90.2717 72.0314 91.0493 72.0919 94.7779 72.1703C91.0986 72.1927 90.2 71.8813 93.9824 70.7567C88.1385 71.561 86.8792 71.6663 91.4862 68.5299H91.4817Z" fill="currentColor"/>
<path d="M88.7437 50.1821C89.4361 49.3487 89.7789 48.9612 89.7565 48.9903C89.7341 49.0194 89.3465 49.4675 88.6406 50.3345C89.3308 49.528 89.7162 49.109 89.7408 49.0799C89.7655 49.0508 89.4316 49.4115 88.7437 50.1821Z" fill="currentColor"/>
<path d="M91.2084 48.0136C91.7955 47.5723 92.0016 46.9741 92.5103 46.479C91.8022 47.0704 91.2936 47.5655 90.8835 48.2623C91.3899 47.7672 91.8 47.0704 92.405 46.7792C91.8 47.0727 91.4885 47.971 90.9798 48.4639C91.2846 48.0674 91.493 47.4692 92.098 47.1757C91.5849 48.1704 90.5765 48.6588 90.0634 49.6557C90.265 49.5571 90.5698 49.1606 90.6751 48.8626C90.46 49.9626 89.5502 50.6526 89.2388 51.551L89.3418 51.2508C87.0921 54.8285 88.0444 58.8497 89.8483 62.4812C89.2881 62.8688 88.5979 63.4445 88.5419 63.1018C88.8892 64.0516 89.4673 63.8321 90.1799 63.3146C90.59 63.3706 90.8835 63.4132 91.372 63.4781C93.2968 63.5274 95.3001 63.5521 97.1084 63.1735C94.7018 63.3437 92.0913 63.6103 89.79 63.0278C89.2276 63.3347 88.9094 63.4221 89.0662 62.9539C88.8511 63.402 89.5816 62.75 90.2919 62.2034C87.8495 58.4465 87.2109 53.5291 90.162 49.8596C89.7586 50.0545 89.6556 50.3547 89.5502 50.6526C90.162 49.8596 90.7737 49.0643 91.2868 48.0696C90.9821 48.4661 90.6751 48.8626 90.3704 49.2614C91.1838 48.3698 91.3966 47.2698 92.4363 46.6896C92.5686 46.5014 92.1876 46.9136 91.2084 48.0181V48.0136Z" fill="currentColor"/>
<path d="M94.3241 46.0869C94.398 43.8556 94.4294 43.179 94.5101 41.4451C94.3263 43.2194 94.1896 43.9385 93.5421 46.2639C94.1314 44.0684 94.2165 43.4635 94.156 42.0387C94.1896 42.787 94.1852 43.3291 94.1045 43.9855C94.0238 44.6419 93.867 45.3991 93.4793 46.3356C93.8759 45.4327 94.035 44.7853 94.0888 44.3821C94.1426 43.9788 94.1 43.8377 93.9902 43.71C94.0417 44.1267 94.0305 44.5568 93.9073 45.305C93.8446 45.6792 93.6967 45.9906 93.4748 46.3804C93.2059 46.8934 92.6995 47.3862 92.3925 47.785C92.5942 47.6864 92.6973 47.3885 92.899 47.2899C92.2872 48.083 91.6755 48.8783 91.1624 49.8729C91.2654 49.5727 91.1691 49.3711 91.5724 49.1762C88.9193 52.9511 88.4533 58.1552 90.7052 62.2907C88.6549 58.0566 88.7289 52.046 92.2805 48.5848C92.0788 48.6834 91.8772 48.7797 91.7741 49.0799C92.4822 48.4885 92.7959 47.5901 93.4054 46.7948L93.197 47.393C93.7101 46.3983 94.3218 45.603 94.2815 44.68C94.4227 43.8175 94.5347 43.1858 94.6804 42.4173C94.5033 43.4008 94.463 43.8332 94.3196 46.0891L94.3241 46.0869Z" fill="currentColor"/>
<path d="M101.959 22.4634C101.137 22.1385 100.036 21.9257 100.22 23.3303C98.8534 20.5076 96.3796 17.9716 93.1775 17.5303C94.3875 16.9434 95.3959 16.455 96.6977 16.5737C95.5012 16.157 94.1858 17.0442 93.1775 17.5303C96.0726 18.3682 98.8579 20.0058 100.025 22.9271C100.057 20.4225 97.7733 18.7916 96.5947 16.8717C97.5963 16.8851 100.09 17.9179 99.8236 16.1727C99.725 15.4715 99.5704 14.7815 99.3553 14.1139C98.71 12.1134 97.5291 10.3189 95.7902 9.04419C97.6434 10.4712 99.0416 12.5592 99.6511 14.9047C99.8035 15.4917 99.9065 16.0943 99.9491 16.6992C98.9901 17.7006 97.8966 16.9859 96.8949 16.9747C101.244 21.8383 102.04 30.1654 96.3706 34.4219C95.7163 34.9685 95.3354 35.365 94.9499 35.7212C94.2351 36.5815 93.35 37.1259 92.0235 36.8279C94.4077 36.819 95.1964 36.1402 95.248 35.4883C95.109 36.6061 94.2329 37.7532 92.1266 37.4395C93.5607 38.6874 93.7646 38.4768 93.4061 36.7226C93.48 38.9024 92.9938 39.5431 91.4275 38.0825C92.9601 39.8052 92.8212 40.1592 91.1362 38.6963C92.0862 41.3577 91.7546 41.8685 89.2539 40.9187C90.9502 43.0805 90.4774 43.7795 87.4232 44.5031C89.7514 44.8817 89.3368 45.5157 86.8159 46.8822C88.3307 47.0368 87.7391 47.924 86.3633 49.2345C86.0675 50.4308 85.0928 51.8915 84.3959 52.9354C83.699 53.9794 83.2822 54.6067 83.2822 54.6067L82.8789 55.505L84.1584 53.7934C84.9449 52.7405 86.0272 51.2911 86.6255 50.1306C87.7996 48.9231 88.4136 48.0987 87.2058 48.2712C89.5519 46.6179 90.074 45.9592 87.9498 46.0713C91.2549 44.3799 91.9115 43.4591 90.4281 41.5997C92.745 42.7489 92.9176 42.9618 90.9076 43.4905C93.2156 43.0111 93.6122 42.1441 93.5495 39.0637C94.1478 41.0979 94.2867 40.9187 94.2463 38.5821C95.0261 40.1099 95.1247 40.8425 95.9135 40.5221C95.1068 41.4406 95.2166 40.4482 95.0463 38.5686C95.2256 39.8612 95.5818 38.9875 96.1084 36.8951C95.723 38.6582 95.5079 39.2049 95.2681 38.1833C95.7118 39.0458 96.3639 37.7912 97.3341 36.111C97.6165 36.344 98.2192 36.1514 99.1805 36.1895C99.6914 37.0049 100.561 38.0534 102.259 39.4625C100.635 37.6994 99.8752 36.2634 99.2209 35.3538C98.4769 34.6146 97.8405 34.4017 97.0227 34.6123C96.1331 35.085 95.0642 35.9789 93.359 36.0058C94.0536 36.0058 94.643 35.7324 95.1583 35.3382C100.101 32.847 100.978 26.9461 101.078 21.8988C101.287 22.0736 101.634 22.4096 101.959 22.4634Z" fill="currentColor"/>
<path d="M75.5498 48.7686C75.4087 48.5334 75.4131 48.6454 75.4938 48.9658C75.4983 48.7507 75.5319 48.6297 75.5498 48.7686Z" fill="currentColor"/>
<path d="M78.7945 59.4052C79.0208 60.093 79.0433 59.8196 79.0208 59.0311C79.1911 58.8474 79.3189 58.1506 79.5116 57.3128C79.2942 56.6026 79.0433 55.7737 78.7744 54.8843C78.3284 53.4035 77.8377 51.7569 77.3784 50.2246C77.1498 49.4584 76.928 48.7191 76.8025 48.1613C76.5246 47.3817 76.3386 46.7858 76.9437 47.2809C76.4059 46.2414 76.0877 45.5604 76.0765 46.0174C76.0249 45.3431 76.2804 45.8046 76.8944 47.0501C76.2468 45.865 75.9196 45.3027 75.9196 45.9726C75.8927 45.3565 76.1952 45.9726 76.8002 47.1442C76.2311 46.107 75.9644 45.6119 76.0048 46.0868C76.016 45.6276 76.3342 46.1361 76.9324 47.1039C76.3991 46.172 76.1863 45.8762 76.2132 46.2705C76.2176 46.1652 76.4619 46.7499 76.8451 47.5833C76.6143 47.6841 76.8787 48.5623 77.1677 49.5301C77.7458 51.4635 78.4293 53.7552 79.0276 55.7468C79.2203 56.6676 79.3637 57.5346 79.236 58.3657C78.7228 59.1879 79.2113 60.196 78.3822 59.8577C79.4556 60.7001 79.7155 60.0773 79.8454 58.9616C80.2107 58.8362 80.446 58.2156 80.9591 57.8303C81.4252 57.1403 81.7075 56.4256 81.9607 55.7177C82.5164 53.6253 83.0766 51.5508 83.0766 51.5508C83.0766 51.5508 82.4134 53.5715 81.7322 55.5967C81.4476 56.2845 81.1608 56.9723 80.6857 57.6399C80.2107 58.3075 79.8096 58.9146 79.4175 58.9818C79.236 59.8017 79.0612 60.0795 78.7968 59.4074L78.7945 59.4052Z" fill="currentColor"/>
<path d="M68.623 28.3014C69.9675 29.8629 70.4044 30.4454 69.2952 28.1401C70.205 30.1721 70.0347 30.6649 68.1681 29.5089C69.2594 30.7859 68.6566 30.414 67.4399 29.3723C68.4796 30.7971 69.0017 31.5901 67.5071 30.5574C69.6919 31.8366 69.8622 31.2877 68.7776 28.6688C70.2117 32.1121 70.391 33.4854 67.0164 32.4101C70.2677 33.8551 69.9652 32.8492 68.1166 29.4148C69.488 32.1009 69.4969 33.6512 66.3083 34.7579C69.1429 36.4762 68.7776 37.7509 66.6265 39.505C67.5631 39.9687 66.7139 40.9141 65.5644 41.6691C64.4148 42.4241 62.9695 42.9864 61.168 43.3336C63.1578 43.3336 64.7644 43.1297 66.0999 42.9371C67.4354 42.7422 68.4998 42.5562 68.8381 43.2059C70.3126 42.6167 71.061 42.8609 71.2066 44.6352C72.4682 44.1983 73.127 45.2894 73.853 47.0121C72.9141 44.5299 72.4592 43.6114 71.9214 45.0071C72.2329 44.3193 72.4637 45.948 72.8962 48.5601C72.28 45.5783 72.4727 46.5349 72.9768 49.062C72.7841 48.5512 72.9007 49.6108 73.0104 50.6077C73.4519 54.5977 73.7835 57.5906 73.7835 57.5906L74.0524 58.5383L73.6446 51.3201C73.5886 50.3367 73.5303 49.3106 73.7028 49.118C73.3936 47.3347 73.3152 46.3848 74.3146 48.3137C73.7589 46.3647 73.4743 45.137 73.4452 45.6433C73.7701 44.5949 74.3527 45.2826 75.5336 47.1689C74.5723 45.5515 73.8776 44.4672 72.9992 45.2804C72.8648 43.4635 72.5444 43.542 71.9909 45.1236C72.1231 44.9645 72.0223 46.3087 71.9528 48.3339C71.9976 45.8718 72.076 44.0908 71.5696 44.5501C72.699 41.5168 73.248 40.7215 72.9029 44.3148C75.2198 39.7447 76.6472 39.561 81.3596 42.8049C77.0595 39.3549 75.7083 39.5207 73.3152 44.3328C73.3533 40.3809 72.3494 41.0754 70.1983 43.71C70.4156 42.9057 69.4857 44.0438 68.4572 45.3633C67.4287 46.6806 66.2993 48.1793 64.9347 49.8169C65.9162 48.6005 66.7609 47.4422 67.5228 46.3199C68.2847 45.1975 68.9591 44.1155 69.1563 43.5845C70.2431 41.985 70.8503 40.941 69.0622 42.2784C72.1007 38.8508 72.7393 37.8069 68.3407 39.0659C74.1532 35.6809 74.9263 34.6011 76.0937 27.822C74.4961 34.8116 73.5953 35.6137 67.4623 36.1312C72.3561 36.0908 72.02 35.7682 67.1083 33.799C71.6346 33.9312 71.5876 32.4168 69.9115 28.1379C70.9803 32.6677 70.4291 33.6467 66.8102 32.549C68.9076 33.4832 67.9396 32.3429 66.4069 30.4207C68.0583 31.6686 69.0039 32.0987 67.5474 30.6134C70.14 31.6574 70.3305 30.7859 69.3311 28.1737C70.5209 30.7209 69.9742 29.8629 68.6297 28.3014H68.623Z" fill="currentColor"/>
<path d="M79.5128 56.9521C79.6473 56.914 79.7459 56.8401 79.8064 56.7304C79.8669 56.6206 79.8781 56.4996 79.84 56.3652C79.8041 56.2353 79.7302 56.1412 79.6226 56.0829C79.5128 56.0247 79.3918 56.0135 79.2574 56.0516C79.2238 56.0605 78.9213 55.1174 78.4843 53.6948C78.0474 52.2722 77.4782 50.377 76.9158 48.4862C76.6289 47.5341 76.3466 46.5864 77.0211 47.1084C76.4026 46.1787 76.0239 45.6164 75.9746 46.0577C75.8962 45.4887 76.1472 45.9256 76.7858 46.9964C75.9343 45.2199 75.4705 44.0773 75.6296 45.4977C75.8156 43.2798 76.6222 43.627 78.5134 45.5313C76.4183 43.403 75.4055 42.834 74.8901 45.3633C74.7377 43.5979 75.0828 44.9309 75.9052 47.31C75.0649 44.9622 74.6862 43.6024 74.8072 45.3498C75.3293 42.7645 76.3466 43.2843 78.5246 45.482C76.3533 43.3134 75.3405 42.825 74.8274 45.3677C74.6974 43.6898 75.0694 45.0451 75.8873 47.3504C75.0873 45.1123 74.7333 43.822 74.8699 45.4148C75.345 43.0647 76.3085 43.6002 78.3028 45.6388C76.3645 43.6315 75.4593 43.1275 75.0873 45.4394C74.9618 43.86 75.3696 45.0967 76.2256 47.1958C75.4032 45.1168 75.0425 43.9608 75.2038 45.4865C75.5489 43.3829 76.4161 43.9608 78.1527 45.8001C76.6043 44.1849 75.9276 43.8309 75.8245 45.6142C75.6856 44.4671 76.1225 45.4596 76.909 46.9874C76.3399 46.1809 76.1225 45.9121 76.1651 46.2795C76.1853 46.1585 76.4654 46.6716 76.8956 47.4333C76.5841 47.4041 76.8709 48.363 77.1578 49.3218C78.3028 53.1526 79.4501 56.9723 79.5151 56.9544L79.5128 56.9521Z" fill="currentColor"/>
<path d="M63.1052 61.7978C63.0201 61.7732 63.0963 61.8493 63.2733 61.986C63.2307 61.8762 63.1747 61.7754 63.1052 61.7978Z" fill="currentColor"/>
<path d="M62.6553 59.4254C60.6655 58.7667 60.7349 58.8631 62.6441 59.6875C60.9657 59.0199 61.0845 59.049 62.7696 59.6629C61.2324 59.0221 61.8284 59.403 63.2289 60.2207C63.6838 60.615 64.9431 61.4439 66.2988 62.3355C67.6522 63.2271 69.102 64.1815 70.4061 65.0372C71.1523 65.6152 71.8469 66.1551 72.2816 66.8407C72.611 67.2685 72.853 67.674 72.5147 67.7256C73.3438 68.4559 73.5903 68.8345 72.508 68.5119C73.9443 68.5388 73.8255 67.9115 73.1018 66.8631C73.5298 66.6525 73.3505 66.0185 73.2788 65.3509C73.1735 64.5377 72.9023 63.8342 72.6334 63.1308C71.7147 61.1706 70.8095 59.2215 70.8095 59.2215C70.8095 59.2215 71.6004 61.1952 72.3802 63.1845C72.611 63.8902 72.8418 64.5959 72.9404 65.389C73.039 66.182 73.1399 66.8967 72.7791 67.1252C73.29 67.9384 73.3393 68.2655 72.564 67.851C73.3214 68.3013 73.16 68.0661 72.5169 67.4186C72.6178 67.2305 72.2368 66.6323 71.7864 65.9244C71.1635 65.5211 70.4375 65.0462 69.6599 64.5377C68.367 63.6908 66.9307 62.7455 65.5929 61.865C64.2552 60.9846 63.0161 60.1692 63.0093 59.9653C61.2077 58.9908 60.6386 58.6279 62.6553 59.4254Z" fill="currentColor"/>
<path d="M68.8365 70.302C66.3021 66.3905 62.6318 63.4379 59.0712 60.2768C58.5782 59.7616 58.2466 59.3606 58.1188 59.0873C57.8365 58.5294 58.3743 58.4779 60.0683 59.0335C58.3384 58.0231 57.1217 57.2838 57.5116 56.8649C55.5397 56.0181 55.1745 55.4894 57.3256 54.8442C55.1117 54.32 55.4165 53.677 57.2315 52.4561C55.4165 53.677 54.872 54.134 57.0478 53.8047C53.5701 54.2774 52.8105 53.9615 55.8826 51.4233C50.8475 52.6017 49.6442 51.5577 48.3872 45.7734C48.8286 51.1747 48.795 51.4099 49.223 46.1184C48.0197 51.0873 47.278 50.5295 45.6602 45.6367C47.278 50.5295 47.7598 50.9484 47.9883 45.8585C47.9749 51.2127 47.7082 51.0582 46.0545 45.677C48.6157 51.9229 49.7899 52.9445 55.1722 51.0178C50.8229 54.5171 50.684 55.0705 55.8019 56.9276C51.3472 56.1615 52.5797 56.7283 56.5346 58.4734C54.7398 58.0075 55.6652 58.7154 57.0029 59.7795C57.2987 60.1223 57.6976 60.5546 58.1771 61.0632C58.6566 61.5717 59.1989 61.957 59.8241 62.4454C59.9339 62.5059 59.8353 62.3043 59.8353 62.3043C63.0172 64.2488 65.8943 66.5877 68.1978 69.6703L68.832 70.3065L68.8365 70.302Z" fill="currentColor"/>
<path d="M62.1546 57.7521C58.1279 56.912 58.9794 57.4631 62.6139 59.1254C61.5025 59.1164 63.1741 60.2186 64.8435 61.3164C68.1845 63.5163 71.5188 65.7028 71.5569 65.6468C71.6353 65.5303 71.6622 65.4116 71.6398 65.2883C71.6174 65.1651 71.5457 65.0643 71.4314 64.9859C71.3193 64.9097 71.2051 64.8851 71.0818 64.9097C70.9608 64.9344 70.86 65.0061 70.7815 65.1203C70.7412 65.1786 67.4249 63.0033 64.1197 60.8302C62.4683 59.7437 60.8168 58.6549 62.4974 58.7669C58.3475 57.0397 57.5274 56.5088 61.9596 57.1293C59.7569 56.8918 58.6724 56.7977 58.7038 56.8829C58.6993 56.9613 59.8107 57.2212 61.9955 57.6916C59.925 57.2996 58.9211 57.1114 58.9548 57.1226C58.9884 57.1338 60.0639 57.3444 62.1523 57.7499L62.1546 57.7521Z" fill="currentColor"/>
<path d="M60.3435 77.7889C60.3009 77.8181 60.4398 77.8293 60.7244 77.8248C60.5945 77.762 60.4533 77.7172 60.3435 77.7889Z" fill="currentColor"/>
<path d="M56.6552 76.5501C56.355 76.6867 56.2564 76.4851 56.0547 76.5814C56.355 76.6845 56.5566 76.5882 56.8546 76.6912C56.8546 76.6912 56.4513 76.8861 56.653 76.7898C61.4684 76.4493 65.7931 75.1006 70.4875 73.9088C70.8572 74.1844 71.3368 74.3053 71.2314 74.5182C72.3653 74.5316 72.9165 74.6391 71.8297 75.2978C72.921 74.3882 72.3496 73.9805 71.144 73.6131C71.2561 73.1516 70.7452 72.7282 70.3844 72.195C68.8517 71.1331 66.956 70.3065 65.7729 68.8906C66.9583 70.3087 68.7464 71.4333 70.176 72.5176C70.6892 73.0598 71.2113 73.5526 71.0858 73.9715C71.9866 74.2807 72.2308 74.5137 71.3883 74.6907C72.242 74.5697 71.1261 74.1508 69.5889 74.0029C68.8517 74.0948 68.4551 74.3434 67.7314 74.5697C64.3836 75.7862 60.9687 76.4448 57.5403 76.5322C56.2295 76.5254 55.5102 76.4941 56.6575 76.5523L56.6552 76.5501Z" fill="currentColor"/>
<path d="M56.3961 76.5994C55.5536 76.5748 54.7536 76.465 53.7498 76.4516C54.655 76.2634 55.5513 76.5748 56.4566 76.3844C55.753 76.4762 54.8567 76.1648 53.9514 76.353C59.2553 77.0206 64.3822 75.7817 69.5136 74.0433C69.5136 74.0433 69.22 73.4384 69.0184 73.537C64.4718 76.4852 58.5562 76.6106 53.3509 76.1447C54.3458 76.6577 55.2578 75.9677 56.2527 76.4807C55.3474 76.6689 54.3525 76.1559 53.2344 76.3373C53.2568 76.3732 54.2136 76.4583 56.3939 76.5949L56.3961 76.5994Z" fill="currentColor"/>
<path d="M69.8449 79.5878L67.7228 79.3368C66.4165 79.1823 64.8502 79.3256 62.8761 79.3996C60.1289 79.3368 57.124 79.2988 54.332 78.1629C55.2305 78.4743 55.8288 78.6827 56.7274 78.9941C55.0289 78.5729 53.4334 77.8515 51.7372 77.4281C53.4357 77.8493 55.0311 78.5707 56.7274 78.9941C55.0289 78.5729 53.1287 78.2481 51.5355 77.5267C51.7372 77.4281 52.0374 77.5334 52.2055 77.5155C50.5675 77.623 49.4068 77.7888 49.1782 77.8672C48.9497 77.9456 49.6577 77.9344 51.5848 77.8157C45.4921 78.6961 44.2776 79.1442 42.5433 84.6283C41.4453 80.3517 39.8275 81.1066 35.077 83.8711C39.8409 80.6138 40.9232 79.6818 35.7963 80.2441C39.7311 79.1173 40.9053 78.6558 39.3547 78.2122C38.967 78.1025 38.4091 77.9927 37.7122 77.8112C37.5374 77.576 37.5217 77.2153 37.8153 76.5253C39.6639 73.0686 40.3182 68.7673 38.1581 65.3352C35.7269 61.473 31.1826 59.6113 26.8108 59.9093C25.3543 60.0078 23.9158 60.3461 23.7432 59.5195C21.6705 61.3699 20.8616 62.0106 22.2105 59.524C19.5149 63.599 18.9771 64.5421 21.247 61.9703C18.3497 66.5897 18.2623 67.5643 20.2476 72.746C18.5401 69.4214 18.9031 70.3041 21.1148 74.7129C20.1378 71.8208 20.884 72.2061 23.118 74.3724C22.5085 72.6004 23.3847 72.6116 25.0922 73.3195C23.676 73.2164 22.9746 73.3083 23.2525 74.6256C21.5226 73.138 20.7742 72.8782 21.1484 75.3335C20.6734 72.9297 21.4218 73.1896 23.1382 74.6995C22.8716 73.3576 23.5752 73.2657 24.9129 73.4763C23.1853 72.4592 22.3338 72.3741 23.0934 74.2895C20.7607 71.9529 20.0392 71.6191 21.061 74.6368C18.8539 70.033 18.4998 69.072 20.4493 71.8947C18.2421 67.1319 18.3385 66.1529 21.0655 61.2243C18.9704 64.336 19.5037 63.4959 22.2957 59.562C21.2627 61.8135 22.448 61.0832 24.5118 59.7816C25.0025 60.1087 26.3716 59.8667 27.7497 59.8533C30.5059 59.8264 33.3001 60.7113 35.4849 62.3937C40.2487 66.061 40.4661 72.6765 37.2752 77.4259C37.2528 77.8247 37.3469 77.9658 37.4523 78.0218C37.8802 78.2526 37.999 78.3937 37.8197 78.5214C37.6405 78.6491 37.1811 78.7364 36.5044 78.7813C36.5784 78.3198 36.6232 77.856 37.3245 76.7986C40.0538 73.371 39.9149 68.4604 37.6562 64.8244C36.4775 62.9067 34.6871 61.7821 32.7937 60.9555C31.3641 60.4021 29.865 60.0504 28.3771 59.9496C26.8893 59.8488 25.4148 60.0011 24.6843 59.8017C22.6475 60.9174 21.3568 61.6813 22.289 59.562C19.3961 63.6281 18.8382 64.6452 21.2313 62.2817C18.2914 66.7891 18.3026 67.9182 20.512 73.3665C18.8942 70.0106 19.4723 70.9762 21.9282 74.6569C19.2057 70.7723 18.6096 69.5402 20.6039 72.1859C18.278 66.9527 18.5446 65.5973 21.5831 60.3192C19.7457 63.2069 20.6846 62.1719 23.3892 59.571C22.941 60.8323 24.1152 60.3999 25.5493 59.9899C26.5531 59.9563 27.8192 59.9429 29.0807 60.0885C30.34 60.2341 31.5949 60.5388 32.7937 60.9555C34.6871 61.7799 36.4775 62.9045 37.6562 64.8244C39.9149 68.4604 40.0538 73.371 37.3268 76.7919C36.612 77.8583 36.5627 78.3242 36.4842 78.7857C37.1475 78.7454 37.5889 78.6648 37.7458 78.546C37.9027 78.4273 37.7592 78.3018 37.3111 78.0845C37.2483 77.8157 37.2887 77.4617 37.5755 76.8345C40.8739 71.9776 39.9597 64.9521 34.3891 61.6746C32.1506 60.3932 29.6521 59.7368 27.2343 59.8197C26.0243 59.86 24.8345 60.0863 24.4647 59.7144C22.578 60.9376 21.5114 61.5626 22.4503 59.4523C19.7883 63.1442 19.1519 64.0134 21.0677 60.7852C18.325 65.9065 18.1368 66.9325 20.1916 71.6572C18.4057 69.5402 19.1429 70.6782 21.9058 74.5539C21.256 72.2061 22.6273 72.5981 24.9107 73.4718C23.3219 73.259 22.4682 73.4225 22.6318 74.9437C20.8168 73.2254 20.0191 72.8647 20.3641 75.4141C18.4976 71.6953 17.8746 70.8082 17.2158 74.5472C17.1329 68.8614 17.0164 67.8017 14.6367 66.294C17.1934 65.6892 17.4847 64.6362 18.2869 59.0266C17.6169 64.5713 17.3481 65.557 15.244 65.2904C17.1016 67.5575 17.1217 68.5701 16.8596 74.2783C17.655 70.4699 18.1659 71.357 19.8734 75.4209C19.6202 72.56 20.4672 73.0215 22.4032 74.9997C22.2665 73.3957 23.2189 73.3083 24.9084 73.4741C22.9589 72.6877 21.9506 72.4301 22.7102 74.3971C20.2162 71.4802 19.4947 70.788 20.8033 74.1686C18.5043 69.0899 18.2399 68.084 20.8302 67.5351C18.3474 66.0812 18.6096 65.2075 21.2963 60.2341C19.4073 63.6393 19.9429 62.9448 22.4503 59.45C21.6884 61.4125 22.9746 60.727 24.8546 59.7973C25.686 59.8981 27.1089 59.7525 28.525 59.8443C31.3529 60.0302 34.1449 61.1683 36.2781 62.9986C39.9418 66.4508 40.4728 72.168 37.8063 76.3954C37.3985 77.1817 37.3357 77.5715 37.394 77.8493C38.0483 78.0128 38.5659 78.1025 38.92 78.1764C39.9776 78.3982 39.5048 78.5528 37.4769 78.7701C37.1789 78.7499 36.9212 78.5707 36.8114 77.9972C38.5345 74.8518 39.6796 71.5609 39.2225 68.0482C39.8813 71.4623 38.4382 74.6502 36.8472 77.7127C36.7419 78.1293 36.7419 78.4475 36.789 78.7521C37.0937 79.0478 37.4186 79.1509 37.6517 79.2674C39.2785 79.6303 37.7324 80.3584 34.062 81.8616C39.1306 80.1299 40.726 79.6438 38.1536 82.2783C43.5315 79.0859 44.746 79.0142 51.2868 79.8835C47.1839 79.357 48.4051 79.7715 52.2436 81.0529C51.2509 81.1604 52.8732 82.1327 54.8899 83.4208C54.2132 82.6054 53.7113 81.9288 53.4222 81.38C53.1332 80.8311 53.0547 80.4077 53.2138 80.1075C53.2026 79.9507 52.9091 79.3458 53.1108 79.2472C56.0193 79.0837 59.013 80.1232 61.973 79.8499C64.0502 79.7513 65.6053 79.478 66.8579 79.5586C68.1105 79.6393 68.8611 79.6886 68.8611 79.6886L69.8404 79.5878H69.8449Z" fill="currentColor"/>
<path d="M67.3375 89.3712C67.324 89.4115 67.4002 89.3398 67.5503 89.1763C67.4607 89.2144 67.3711 89.2681 67.3375 89.3712Z" fill="currentColor"/>
<path d="M64.7919 90.4777C64.4132 91.0512 64.4625 90.9392 64.7784 90.3612C64.4625 90.7913 64.942 90.2693 65.6994 89.4606C67.2142 87.8431 69.8426 85.0742 71.9825 82.8003C72.6234 82.1193 73.2217 81.4808 73.7303 80.9364C74.6468 80.5197 75.4535 80.1277 75.4378 80.8423C75.6103 79.6796 75.0098 79.599 73.9589 79.9955C73.7975 79.5407 73.1836 79.5676 72.5069 79.7289C71.8839 79.8992 71.187 80.0896 70.4902 80.2778C68.3995 80.8423 66.3223 81.3957 66.3223 81.3957C66.3223 81.3957 68.404 80.961 70.4991 80.5376C71.1982 80.3965 71.8974 80.2576 72.5203 80.1344C73.8199 79.9417 75.1487 80.0851 74.7252 80.6519C75.2092 80.1389 74.109 80.5107 73.0962 81.5995C71.0705 83.7748 67.6623 87.366 65.6411 89.5166C64.6305 90.5919 63.9673 91.3088 64.5992 90.4194C64.1152 91.3066 64.2227 91.255 64.7964 90.4799L64.7919 90.4777Z" fill="currentColor"/>
<path d="M76.9374 84.821C71.3803 85.0899 68.4158 89.7608 64.956 93.4057C64.5101 93.7059 64.165 93.8896 63.9768 93.9053C63.6003 93.9344 63.8603 93.2848 65.1353 91.4903C60.3848 96.5219 59.6969 96.9722 62.8519 90.3747C62.0632 92.0235 61.3887 93.3475 60.6873 94.4654C60.3378 95.0254 59.9569 95.5317 59.5289 96.0112C58.2449 96.3338 56.952 96.7975 55.7285 97.3979C54.5051 97.9983 53.3511 98.742 52.3674 99.5709C51.3366 100.503 50.4761 101.52 50.382 100.485C49.1967 103.83 48.7799 105.12 49.4924 101.916C48.6141 107.649 48.8 108.72 52.9051 110.333C49.5462 110.718 50.1064 111.646 53.732 115.636C51.5047 113.275 52.3427 113.976 54.8546 116.053C52.02 114.256 50.9512 113.591 52.4323 116.474C49.2191 111.816 48.558 110.707 48.1211 109.549C48.4572 110.757 49.0196 111.789 51.9125 116.64C50.5254 113.487 51.4688 114.151 54.216 116.496C53.7947 115.098 54.9756 115.192 56.5442 115.318C57.2433 114.85 58.3323 114.413 59.3832 113.841C60.4341 113.268 61.4447 112.558 62.4217 111.834C62.2066 112.934 61.2968 113.624 60.6851 114.417C61.3999 113.324 62.7152 112.439 62.7332 110.936C62.7197 111.937 61.9086 112.829 61.5949 113.727C62.2066 112.934 63.1163 112.244 62.7332 110.936C61.7226 111.59 60.656 112.302 59.5423 112.878C58.4286 113.454 57.2679 113.895 56.822 114.435C54.8748 114.133 53.6424 113.929 54.877 115.354C51.4531 112.665 50.7047 111.919 54.0054 113.918C49.591 110.192 49.2258 109.206 51.6413 104.428C48.8942 107.154 48.93 106.086 50.0818 101.215C49.5978 103.606 50.2969 102.318 51.5472 100.265C52.1007 100.104 53.2076 99.1767 54.4401 98.453C56.9072 97.0036 59.8807 96.3584 62.7533 96.6832C63.1567 96.4525 63.569 96.215 64.0216 95.9708C64.4227 95.7155 64.8462 95.4489 65.2876 95.1688C65.6955 94.8686 65.989 94.5483 66.2982 94.201C65.9083 94.5819 65.5184 94.8843 65.1375 95.1218C64.7275 95.3592 64.3936 95.534 64.1471 95.655C63.6519 95.8947 63.5107 95.9171 63.6452 95.767C63.7796 95.6169 64.1897 95.2898 64.7655 94.8328C67.8981 90.7645 70.4661 85.7866 76.1711 85.0585L76.9329 84.83L76.9374 84.821Z" fill="currentColor"/>
<path d="M63.3971 90.1663C61.4947 93.9994 61.6022 93.9479 63.722 90.3142C61.7949 93.7485 61.8442 93.6365 63.6817 90.2559C61.8442 93.4819 62.5344 92.7381 64.3875 90.3769C64.5981 90.5404 65.974 89.0865 67.3476 87.6326C70.0948 84.7247 72.8285 81.8235 72.7792 81.7765C72.6784 81.6802 72.5663 81.6309 72.4409 81.6331C72.3154 81.6354 72.2033 81.6869 72.107 81.7855C72.0129 81.8818 71.968 81.9916 71.9725 82.1148C71.977 82.238 72.0285 82.3478 72.1294 82.4463C72.1787 82.4956 69.4606 85.3833 66.7448 88.2598C65.3869 89.6981 64.029 91.1341 64.1791 90.359C62.0078 93.2847 61.3446 94.0016 63.3949 90.1663H63.3971Z" fill="currentColor"/>
<path d="M85.0977 94.7946C85.1066 94.8574 85.1178 94.6782 85.1246 94.313C85.0999 94.4608 85.0775 94.6311 85.0977 94.7946Z" fill="currentColor"/>
<path d="M99.8452 85.1324C99.8452 85.1324 95.8141 81.3531 93.9139 79.8006C94.3822 79.7894 97.1742 81.9736 97.3714 81.8302C97.647 81.6308 97.8442 81.3934 97.9652 81.1178C98.0862 80.84 96.0807 78.3623 96.0337 78.0554C95.9866 77.7485 95.8589 77.4483 95.6482 77.1548C95.3502 76.355 94.7654 75.1453 94.8595 76.0257C93.3447 76.3304 95.3502 76.355 95.0993 77.5289C95.2001 77.8627 95.2785 78.1204 95.2516 78.3802C95.2247 78.6423 95.097 78.8552 94.8707 79.0187C94.7049 79.1374 93.8063 78.9179 93.822 78.9784C93.1968 78.2458 92.8899 77.5334 93.9072 77.5088C92.3924 76.0436 92.2019 75.264 94.483 75.2304C92.7554 75.1229 93.7638 74.6345 95.1553 73.7989C94.4718 74.0431 95.2651 74.6524 96.0337 75.0893C96.4191 75.3402 96.8471 75.5463 97.2952 75.7166C97.7434 75.8868 98.2072 76.0212 98.68 76.1332C101.196 76.7314 104.587 78.2929 106.559 79.2539C107.544 79.7333 108.174 80.0649 106.953 79.8342C108.105 79.9462 108.006 79.879 106.966 79.6706C107.735 79.8095 107.614 79.823 106.919 79.7782C107.488 79.8924 106.883 79.5698 105.954 79.1016C104.094 78.1674 100.93 76.6575 98.5612 76.0952C97.6739 75.8846 96.7978 75.5821 96.0359 75.087C95.5945 74.7644 95.0567 74.5763 95.3368 74.4262C94.1447 74.0072 93.775 73.6286 95.1799 72.9834C94.1828 72.9319 94.6578 73.0126 95.6258 73.1604C95.5631 73.2523 95.9911 73.4068 96.3989 73.5637C96.8381 73.7429 97.2863 73.9042 97.7322 74.0543C98.1781 74.2044 98.624 74.3455 99.0587 74.4822C101.667 75.2573 105.9 78.1159 105.826 78.2077C105.638 78.434 105.568 78.0845 105.472 78.481C105.472 78.481 106.209 78.6647 106.935 78.8462C107.686 79.0344 108.423 79.2181 107.17 78.8798C108.472 79.003 108.53 78.8328 107.347 78.2951C108.271 78.5953 107.818 78.4474 107.19 78.248C106.724 78.1024 106.086 77.9075 105.389 77.6969C105.958 77.8627 106.523 78.024 107.067 78.1831C107.612 78.3421 108.143 78.4967 107.374 78.2122C108.625 78.6647 108.611 78.6849 107.345 78.2951C108.712 78.7521 108.813 78.788 107.352 78.3108C108.867 78.779 108.84 78.7342 107.383 78.2077C109.861 79.0053 110.762 79.2786 107.473 78.0845C112.026 79.6863 112.389 79.823 107.464 78.1405C112.174 80.0851 112.102 79.7333 107.255 78.7969C112.008 80.1321 112.761 80.3136 107.278 78.7409C112.828 80.0201 112.913 79.8118 107.76 77.4035C113.115 79.5676 113.283 79.46 108.268 76.3886C113.615 79.3256 112.886 79.003 108.12 76.6194C110.491 78.0442 108.82 77.4079 107.025 76.7448C103.433 75.4186 99.341 73.9871 97.5215 73.4763C99.5405 73.1066 101.546 72.7796 101.546 72.7796C101.546 72.7796 100.114 72.8109 98.3618 72.8401C97.7792 72.8401 97.1608 72.8378 96.5535 72.7773C96.8964 72.5578 97.4678 72.0739 97.5283 71.8387C97.6112 71.5093 97.6089 71.2002 97.526 70.9112C97.4409 70.6199 97.2818 70.3735 97.0487 70.1674C96.8157 69.9613 96.5199 69.7911 96.121 69.4953C95.3435 68.6418 94.4405 68.8322 94.6175 68.8233C94.2298 69.6813 95.1799 69.8426 95.9104 70.0912C96.5513 70.3601 96.9725 70.7163 96.5109 71.5631C95.9485 72.457 95.2516 72.1725 95.3704 71.5564C93.6853 71.1285 92.8182 70.3646 94.3374 69.4617C92.072 69.856 92.5044 69.4617 94.1917 68.3752C92.9391 68.6888 92.9436 68.3147 93.4904 67.0624C92.798 68.01 93.2506 67.916 94.2298 67.5172C94.1335 67.73 94.5637 67.6404 95.1015 67.739C95.5631 67.7457 96.0404 67.6628 96.502 67.5284C96.9636 67.394 97.4095 67.208 97.8442 66.9907C100.184 65.9199 102.601 64.7482 104.82 63.6729C102.4 64.8446 100.181 65.9199 97.7299 67.04C96.9143 67.45 96.0359 67.7412 95.1015 67.7367C94.5637 67.6382 94.0551 67.8286 94.1738 67.5642C92.9974 68.0369 92.4462 68.0548 93.1274 66.6188C92.5605 67.0019 93.3671 66.6121 94.2366 66.1282C94.7609 66.1237 95.2337 66.1349 95.6975 66.0812C97.9764 65.9893 100.089 65.2142 102.106 64.2374C101.904 64.336 102.003 64.5376 101.801 64.634C102.81 64.1456 103.917 63.8588 104.632 62.7656C103.525 63.0523 102.608 64.2442 101.503 64.5287C103.117 63.7468 104.638 62.2638 106.334 61.5805C106.906 61.3677 107.636 61.4259 108.309 61.9367C109.823 59.7054 111.002 59.2193 111.609 61.567C111.006 59.5598 110.726 59.3357 111.372 61.641C110.91 59.7009 111.603 59.3559 112.277 61.3766C111.468 59.0871 111.399 58.8743 112.277 61.3542C111.836 59.9563 111.629 59.2103 111.697 59.1677C111.766 59.1162 112.104 59.7681 112.754 61.1705C112.19 59.6113 111.71 58.9146 111.249 59.0467C110.789 59.17 110.345 60.1221 109.852 61.8605C109.093 60.6933 108.282 60.3103 107.426 60.3483C106.57 60.3864 106.084 61.1033 105.304 61.8023C102.613 64.2419 98.8906 65.2971 95.1754 65.8527C96.1838 65.3643 96.9905 64.9745 98.0974 64.6877C94.9738 65.9512 93.3873 64.7281 90.6692 63.4601C90.1785 63.5183 89.7505 63.7603 89.8648 63.5183C89.1814 65.1537 90.2883 64.867 90.9269 64.112C90.7992 64.1232 91.2989 64.0515 91.8053 64.1635C92.3028 64.3069 92.8204 64.5892 92.9369 64.8244C93.161 65.5211 92.4327 65.8213 92.2042 65.2904C90.499 66.3231 89.3203 66.4598 90.0306 64.401C88.7175 66.5023 88.7758 65.9759 89.4615 63.7849C88.4867 65.1201 88.1394 64.7908 87.9333 63.124C88.1484 64.0381 88.908 63.422 89.634 62.6872C89.7998 62.5393 89.6138 62.2884 89.401 61.8314C87.5523 58.8406 87.2005 55.03 89.1433 51.8488L88.9416 51.9474C88.9551 50.946 89.8581 50.7555 89.9679 49.9558C89.9612 50.4576 89.5578 50.6525 89.2531 51.049C89.5578 50.6525 89.5646 50.1507 90.1696 49.8572C89.5646 50.1507 89.6564 50.8519 89.0514 51.1453C89.3562 50.7488 89.4615 50.4486 89.8648 50.2537C89.5601 50.6502 89.4547 50.9504 89.15 51.347C89.2531 51.0468 89.6564 50.8519 89.7617 50.5539C86.5104 54.1204 89.5623 58.3657 89.9119 62.1697C89.7864 62.3915 89.7236 62.5169 89.4167 62.7858C88.6548 63.6707 87.8952 64.2867 87.3529 63.012C87.0975 63.9283 84.0366 59.3559 84.6797 58.5024C85.0987 58.2246 85.4819 57.8482 85.8202 57.4651C86.1586 57.082 86.4476 56.69 86.6874 56.2979C86.963 55.6886 87.1243 55.0927 87.3103 54.5483C87.4963 54.0039 87.6733 53.5155 87.819 53.128C88.2313 52.1691 88.489 51.6404 88.2044 52.2207C88.5652 51.8533 88.359 51.9362 88.2963 52.5052C88.536 52.0168 88.8789 51.2686 88.5898 51.6315C89.0962 50.7219 89.4682 50.1014 89.5601 49.9177C89.6519 49.734 89.4525 49.9625 88.8789 50.7757C89.392 49.9513 89.6407 49.5413 89.5892 49.5099C89.5377 49.4786 89.1948 49.8191 88.5764 50.5225C89.5825 49.3688 89.3203 49.7833 88.3097 51.2977C88.7287 50.8115 88.4128 51.4299 87.9176 52.4223C88.3478 51.5553 88.6167 51.0064 88.2559 51.4052C89.1814 49.9714 89.4682 49.4875 88.5316 50.4688C89.1388 49.7586 89.448 49.4069 89.4548 49.4136C89.4615 49.4203 89.1657 49.7877 88.5764 50.5203C89.1948 49.7362 89.5332 49.3262 89.5511 49.2949C89.569 49.2635 89.2643 49.6018 88.6458 50.3366C89.2688 49.5794 89.5802 49.212 89.5645 49.2187C89.5489 49.2254 89.206 49.6063 88.5607 50.359C89.0066 49.7497 89.3831 49.2456 89.6676 48.858C89.9522 48.4705 90.1382 48.1882 90.2054 48.0157C90.3421 47.6707 89.997 47.7312 89.0626 48.2352C90.313 47.151 90.9897 46.5237 91.0524 46.4027C91.1152 46.2817 90.5707 46.6626 89.3808 47.5923C90.6805 46.7925 91.2429 46.3937 91.2541 46.4587C91.2675 46.5237 90.7275 47.0524 89.82 48.0941C90.9045 47.1173 91.5364 46.4722 91.5947 46.3198C91.6529 46.1675 91.1555 46.5304 90.0015 47.608C92.0316 45.3341 91.8412 45.2154 89.0245 46.8888C91.635 44.9757 91.5588 44.7897 88.5069 46.1764C91.4804 44.4246 91.0928 45.2019 88.1954 47.6438C89.2015 47.3727 89.6251 47.4175 89.569 47.7805C89.5825 48.6519 88.4755 48.9387 88.1641 49.8348C88.3657 49.7362 88.7691 49.5413 88.666 49.8415C87.6397 51.8331 87.2095 54.0308 86.1653 56.0806C85.8718 56.6765 85.6051 57.2008 85.2914 57.5973C85.4326 56.6116 85.4348 55.59 85.4393 54.8261C85.4438 54.0622 85.4505 53.5536 85.4505 53.5536C85.4505 53.5536 85.3541 54.1831 85.2085 55.1151C85.1345 55.5811 85.0494 56.1232 84.9082 56.69C84.8612 57.4674 84.3525 57.9602 83.8595 58.3657C84.0052 57.7564 83.6332 57.3755 83.1335 57.2456C82.6338 57.1156 82.0064 57.2321 81.6524 57.5279C81.2468 57.9737 80.6889 58.4934 80.281 58.7354C79.9987 59.6359 79.8643 60.261 79.9539 59.4254C80.6642 60.3707 80.9017 59.4478 81.211 58.5292C81.5695 58.1282 82.0019 57.7317 82.7481 58.1842C83.4898 58.7533 83.2545 59.553 82.8221 59.1028C83.9693 54.8485 87.8997 78.1943 80.4715 59.8308C80.839 62.5281 80.5678 62.098 79.6133 59.739C79.871 61.688 79.4452 61.7082 78.0111 60.2789C78.8021 61.1504 78.9635 60.2005 79.015 58.9818C79.2234 58.2515 79.322 57.2523 79.1046 56.2016C78.8268 55.2719 78.5512 54.3489 78.2912 53.4842C77.5159 50.8944 76.9019 48.858 76.8818 48.8939C76.8235 48.9969 76.8146 49.1157 76.8527 49.2501C76.8907 49.3845 76.9625 49.4831 77.07 49.5436C77.1059 49.566 77.6616 51.3963 78.3764 53.7866C78.6139 54.5841 78.8716 55.4422 79.1315 56.3181C79.2346 57.3598 79.2279 58.406 79.0172 59.0893C79.0329 60.476 78.8447 61.4998 77.5159 60.5881C78.3853 62.0957 78.1657 61.6432 77.4308 60.2184C77.7445 60.7247 77.545 60.2565 77.2896 59.6427C77.4845 59.2551 77.5383 58.7062 77.5518 58.182C77.5652 57.6578 77.5428 57.1627 77.4845 56.6967C76.8527 54.0487 76.3395 51.8197 76.456 51.8398C76.7473 51.8891 76.4784 52.1266 76.8683 52.0101L76.4493 50.5494C76.2409 49.8191 76.0303 49.0888 76.0303 49.0888C75.8174 49.1515 75.6426 49.1851 75.5104 49.2053C75.5664 49.5279 75.665 49.9961 75.7883 50.5539C75.9115 51.1117 76.0617 51.7637 76.2275 52.4716C76.0863 51.8958 75.9451 51.3268 75.8107 50.7735C75.6762 50.2201 75.544 49.6869 75.4342 49.2075C75.4477 49.1851 75.4723 49.1874 75.5104 49.2053C75.4791 49.0664 75.4611 48.9611 75.497 48.9723C75.4275 48.9208 75.4029 48.9656 75.4141 49.0776C75.125 47.9462 74.9099 47.03 75.6538 47.9642C75.1429 46.8485 74.8718 46.1944 74.8606 46.3176C74.8808 46.0465 75.1631 46.5528 75.7569 47.7558C75.3312 46.5797 75.0511 46.051 75.0488 46.2907C75.0757 46.0689 75.3827 46.6178 76.1289 47.5945C75.5777 46.5595 75.2483 45.8561 75.19 46.1473C75.1721 45.6612 75.4253 46.1675 76.0437 47.5542C75.2819 46.2123 74.8449 45.5492 74.6836 46.0532C74.6119 45.641 74.8113 46.4005 75.3244 47.8992C74.6567 46.3736 74.278 45.5872 74.1144 46.0151C74.0808 45.6186 74.2623 46.4341 74.715 48.1143C74.1144 46.3198 73.8657 45.6321 73.85 46.0689C73.9441 45.9076 74.2713 46.8687 74.8292 48.3674C74.3116 47.5744 74.6186 48.6676 74.9502 49.846C75.6157 52.2005 76.3888 54.8866 76.9333 56.8692C77.0879 57.5166 77.2201 58.0924 77.2134 58.6166C76.7115 57.7474 76.0572 56.9633 75.5709 56.3741C75.0847 55.7849 74.762 55.3929 74.762 55.3929C74.762 55.3929 75.0914 55.9373 75.5799 56.7438C75.8241 57.147 76.1042 57.6197 76.3619 58.1462C76.521 58.7622 76.6129 59.4657 76.6017 60.0056C76.3619 59.4634 75.9362 59.3581 75.5328 59.553C75.1295 59.748 73.8993 64.0851 73.6416 64.5824C73.4332 65.1806 73.3727 65.9557 73.2271 66.3881C73.7335 67.3402 74.1525 67.9451 73.4355 67.1475C74.9099 67.4545 74.4954 66.5964 73.9441 65.6152C74.036 65.2635 74.8404 60.9465 75.4723 60.8098C76.5457 60.8681 76.9625 61.5984 76.1715 61.2758C77.4128 63.5586 76.5994 68.6261 73.8814 67.4097C76.4426 69.0764 75.9944 68.9196 73.4175 67.5687C75.1385 69.0854 74.7351 69.4057 72.4832 69.0428C73.785 69.2444 73.2943 68.3618 72.4719 67.3357C72.2187 66.6659 71.6339 65.8549 70.7488 65.3374C69.9376 64.8042 69.1332 64.2733 68.3803 63.7782C66.1216 62.2929 64.3402 61.1257 64.3491 61.1683C64.3716 61.2848 64.441 61.3811 64.5553 61.4595C64.6718 61.5379 64.7906 61.567 64.9116 61.5446C64.9542 61.5379 66.5563 62.5841 68.6402 63.9552C69.3349 64.4122 70.0833 64.905 70.8474 65.4069C71.6294 66.0386 72.3151 66.8317 72.519 67.4545C73.5161 68.5611 74.0293 69.4953 72.2949 69.623C73.8679 70.4452 73.4198 70.1652 71.9498 69.4505C72.6243 69.5177 72.2748 69.1503 71.6092 68.9151C71.5667 68.5343 71.2306 68.1221 70.8855 67.7547C70.5404 67.3873 70.1819 67.0624 69.8323 66.7555C68.7388 65.9445 67.8067 65.1358 67.0963 64.56C66.7333 64.1926 66.2336 64.1859 66.0387 63.7827C65.4516 62.5729 66.2404 63.6841 66.442 63.5878C65.5435 63.2764 64.86 61.865 63.5514 62.2481C64.3447 62.8597 65.3418 63.3727 66.2336 64.1859C65.1401 63.4713 64.2483 62.6581 63.1548 61.9434L63.2534 62.145C62.8568 61.8404 62.4602 61.5334 62.1846 61.2332C61.3891 60.7202 60.9208 60.3909 60.8647 60.317C60.8087 60.2431 61.165 60.4245 62.0255 60.9151C60.6003 59.7614 60.5466 60.1154 62.3033 60.6037C60.7706 59.7726 60.1253 59.3447 62.1509 60.4178C59.9595 59.5979 59.8093 59.7659 61.6714 61.1548C60.6048 60.5388 60.0222 60.2431 59.9415 60.3035C59.8609 60.364 60.2821 60.7718 61.23 61.5066C60.1029 60.7785 59.6682 60.4783 59.7735 60.5656C59.8788 60.653 60.5264 61.0988 61.5863 61.7754C64.2416 63.1599 66.6258 64.9946 69.0324 66.8093C69.7606 67.3783 70.4194 67.8622 70.9325 68.2274C69.9197 68.0549 69.066 67.8107 68.4408 67.5956C68.0957 67.5172 67.6969 67.2125 67.3988 67.1072C68.089 68.0168 69.1892 68.2318 69.969 68.5231C70.4665 68.7897 71.0065 69.1257 71.2955 69.576C71.132 69.5939 70.518 69.5603 70.3992 69.7574C69.9623 70.3444 69.9556 70.8462 70.3141 71.4981C70.444 71.7737 70.6188 72.1545 70.7398 72.5376C71.6294 73.2724 72.3263 73.6824 71.607 73.8683C73.0344 73.0887 72.1381 72.6519 71.0244 72.2128C70.872 71.8342 70.5001 71.4556 70.9998 70.9134C71.9655 70.369 72.7632 70.7297 71.7594 71.0366C74.3273 72.0268 75.0914 72.9633 72.1582 73.9311C74.9346 73.4113 73.7245 73.9983 72.1022 75.6337C73.7133 74.9997 73.2383 74.919 71.6092 75.0624C72.3061 74.686 71.849 74.5382 71.0289 74.4486C70.8788 74.2514 70.397 74.182 69.969 74.1752C67.1031 74.7129 64.1811 75.8801 61.1695 76.3416C64.2797 76.0795 67.1031 74.7129 70.0093 74.173C70.4194 74.182 70.8855 74.2514 71.0266 74.4486C71.8961 74.639 72.4809 74.6636 71.6877 75.0736C73.5901 74.872 74.1144 75.0534 72.4047 76.4469C73.9553 75.7524 73.4556 75.7457 71.8871 76.1176C72.4764 75.7524 72.0014 75.7636 71.2709 76.0167C71.002 75.8891 70.5113 75.8667 70.0317 75.8644C69.5522 75.8622 69.178 75.9204 68.7904 75.9697C67.2868 76.1198 65.7788 76.6015 64.4701 76.9868C64.6718 76.8882 64.5732 76.6866 64.7749 76.5903C63.6635 77.3788 61.9694 76.4558 61.1516 77.847C62.5565 77.6633 63.7665 77.0786 65.0684 77.1951C63.5582 77.6768 62.0568 77.6589 60.6496 77.8403L60.9499 77.9434C59.4463 77.9255 58.0414 78.1069 56.6431 77.7888C56.8448 77.6902 57.6336 78.8036 57.0465 77.5939C56.9479 77.3923 56.6499 77.2892 56.2465 77.4841C56.4482 77.3855 56.7485 77.4908 56.9501 77.3923L56.1434 77.7821L57.042 78.0935C56.8403 78.192 56.3384 78.1853 56.1367 78.2816L57.0353 78.593C56.735 78.49 56.6387 78.2884 56.2353 78.4833C60.3404 78.7342 64.3626 77.7843 68.2302 76.6597C69.0346 76.4693 69.7853 76.355 70.4149 76.3057C69.5298 76.8255 68.6918 77.3654 68.0643 77.7798C67.7663 78.1271 67.363 78.322 66.9596 78.5169C67.968 78.0285 68.7747 77.6387 69.8435 77.1929C70.3948 76.998 70.9796 76.7896 71.4277 76.7112C71.3179 76.9577 70.946 77.6073 70.9706 77.847C71.0042 78.1831 71.1118 78.4743 71.2911 78.7185C71.4703 78.9627 71.7056 79.1419 71.9947 79.2539C72.2837 79.3682 72.6086 79.4063 72.873 79.4421C73.9598 79.6057 75.367 79.4242 74.2242 79.7266C75.19 77.5177 73.8635 79.404 72.7632 78.9156C72.584 78.6379 72.3151 78.5706 72.0507 78.4474C71.8893 78.2615 71.7683 78.0464 71.6877 77.7955C71.719 77.5648 72.5392 77.1705 72.1157 77.3407C73.4825 76.8904 74.2892 76.9778 73.3212 78.2615C75.8958 77.1772 76.6958 77.287 75.1295 79.7557C76.9938 77.6409 75.9788 78.6289 75.981 80.9834C76.6689 79.5407 76.214 79.7602 75.1474 80.7885C75.3446 80.2105 74.9278 80.4435 74.4349 80.8468C74.1682 80.9072 73.7693 81.194 73.3951 81.5054C73.0209 81.8168 72.6691 82.1573 72.3375 82.5113C69.6732 85.3318 67.0627 88.0895 67.121 88.0895C67.2397 88.0895 67.3473 88.0358 67.4437 87.9372C67.5422 87.8364 67.5893 87.7244 67.5893 87.6011C67.5893 87.5451 69.9175 85.0831 72.4271 82.4284C72.7408 82.0968 73.0725 81.7742 73.431 81.4763C73.7895 81.1783 74.1749 80.9028 74.4326 80.849C75.0757 80.4973 75.5194 80.0649 75.2348 80.7392C76.4941 79.4376 77.0229 79.245 76.6644 81.3643C77.4128 80.0515 77.0566 80.4726 76.232 81.6017C76.3149 81.1918 75.925 81.4897 75.5284 81.8526C74.9256 82.3813 74.2332 83.04 73.5744 83.6628C72.3935 84.597 70.9773 85.7821 69.662 86.667L69.7651 86.3668C69.252 87.3614 67.847 87.5451 67.7305 88.8467C68.5439 87.9551 69.4536 87.2651 70.267 86.3735C69.5522 87.4667 68.3422 88.0537 67.6565 89.129C66.9731 89.9781 66.4846 90.7241 66.0835 91.0691C65.4987 91.6135 65.2006 91.8599 65.7295 91.2035C65.0819 91.5395 65.4225 91.6538 65.5031 90.9167C65.1245 91.3738 64.5912 91.9338 65.3553 91.0041C64.8107 92.1422 64.9497 92.3191 65.9065 91.5149C65.0595 92.6126 65.0684 92.8142 66.2336 91.9226C65.0191 93.1682 65.474 92.7403 66.2919 91.6717C68.1473 87.6482 72.1806 85.6947 75.2236 82.7263C75.0085 83.8263 74.1973 84.7179 73.2853 85.4079C73.6887 85.213 74.092 85.0181 74.4505 84.7336C74.7418 84.5185 75.0623 84.3909 75.3401 83.889C75.618 83.3872 75.9093 82.8652 76.1916 82.3657C76.3238 82.7532 76.456 83.4903 76.6308 83.6583C76.8728 83.8935 77.1484 83.9809 77.4442 84.0414C77.74 84.1019 78.0358 84.1041 78.3271 84.0347C78.6184 83.9652 78.8873 83.7994 79.1315 83.5754C79.4161 83.255 79.6827 82.919 79.9315 83.0893C80.2407 82.2872 80.4491 81.6891 80.1981 82.7689C79.2525 81.2746 79.5326 82.8809 78.54 83.1609C78.3674 83.2259 78.1276 83.3469 77.8632 83.3738C77.6033 83.385 77.3725 83.2976 77.1686 83.1094C77.0252 82.9593 77.0812 82.0117 76.9333 82.2671C77.5921 81.1111 78.2531 80.7146 78.3674 82.1618C79.6447 80.0268 80.3751 79.7356 80.7874 82.276C80.8793 79.4914 80.8726 79.991 80.8412 82.4978C81.8675 80.7549 82.0624 81.1581 82.0176 82.8473C81.8204 82.108 81.3835 82.6524 81.0093 83.6157C80.9331 83.9562 80.8636 84.4289 80.8054 84.9061C80.7471 85.3833 80.886 85.4998 81.007 85.7574C82.477 87.9282 83.9469 90.4508 84.5139 93.1637C84.3503 90.2559 82.0714 88.1231 81.0115 85.6678C80.8188 85.1593 80.8547 84.3953 81.0115 83.618C81.3275 83.0534 81.4395 82.4799 81.6636 82.9571C81.8317 81.4561 82.961 77.1682 83.9156 78.6961C83.7117 77.4281 83.6803 77.8784 83.7453 79.1105C83.5817 78.8126 82.6652 83.1385 82.6899 83.7031C82.5801 84.5858 82.477 85.5289 82.5689 86.1898C82.7862 87.5295 83.5727 88.6429 84.1598 89.8526C84.0612 89.651 83.7632 89.5479 83.6646 89.3463C84.348 90.7577 84.6281 92.3639 85.1099 93.8739C85.1278 92.3707 84.6461 90.863 83.9626 89.4516C84.7446 91.0646 85.0247 92.6709 85.1032 94.3757L85.2063 94.0755C85.3833 95.982 84.5564 97.875 83.9335 99.6694L83.8349 99.4678C83.6332 99.5664 83.5302 99.8644 83.4248 100.165C87.1849 96.103 84.5475 90.6591 83.073 86.3242C83.0103 85.7843 83.0439 85.222 83.091 84.7515C83.2702 85.2332 83.4472 85.7126 83.6131 86.1607C83.9918 86.947 84.2853 87.5519 84.6752 88.3584C84.4802 87.9551 84.2853 87.5519 84.1912 87.0276C84.1284 86.8103 84.1307 86.322 84.1598 85.6992C84.245 83.8285 84.5452 80.7527 84.3749 79.8588C84.7379 80.1366 87.3574 82.8025 87.5994 82.8204C87.9378 82.8451 88.2425 82.7913 88.5136 82.6569C88.7848 82.5225 89.0021 82.3231 89.1635 82.0565C89.3248 81.7899 89.4189 81.4785 89.4458 81.1201C89.4749 80.7235 89.4503 80.3091 89.6654 80.1612C89.4637 79.3144 87.3238 76.9263 87.7271 77.4416C86.8218 76.9196 88.5607 79.5026 88.9192 80.5958C88.7467 80.551 88.6884 80.8266 88.6996 81.1245C88.6481 81.3732 88.5428 81.6196 88.3545 81.8033C88.1663 81.987 87.9333 82.0677 87.6532 82.0475C87.4493 82.0319 84.711 79.1195 84.7178 79.2651C84.7312 78.1898 85.0494 77.4684 85.9614 78.1786C85.7059 76.0279 86.0398 75.3043 87.7697 76.765C86.5418 75.3111 87.6352 76.0257 89.1859 76.0817C88.3388 75.9339 90.369 79.1218 90.8888 79.9193C91.095 80.2889 91.3415 80.6922 91.6014 81.0954C91.8613 81.4987 95.2135 85.4639 95.5026 85.8537C95.9844 86.5012 102.371 90.7599 104.584 92.5925C104.983 92.9733 104.941 93.3429 104.768 93.5378C103.536 94.9044 102.514 96.3942 101.492 97.8862C101.913 96.1881 104.64 94.6199 102.749 92.6865C102.131 92.2385 101.427 91.7412 100.719 91.2393C98.5971 89.7361 96.4348 88.206 96.3989 87.9125C96.2689 87.2203 95.9799 86.4833 95.4354 85.7507C94.8909 85.0181 91.3146 80.6698 90.8933 79.9215C90.8216 79.4085 88.4307 76.7023 88.7848 76.8031C88.0655 75.6314 91.1196 78.6491 92.8316 79.0501C92.119 78.9112 94.9581 81.7093 95.3121 82.5068C95.823 83.2797 96.3519 84.0772 96.8515 84.8322C97.2258 85.399 97.34 85.9635 97.2997 86.4877C97.2728 86.8372 101.062 89.474 103.513 91.3021C104.739 92.2161 105.591 92.9397 105.342 93.1077C103.646 94.1024 100.914 96.1724 103.193 98.3051C103.59 98.6098 104.3 98.0184 104.708 97.3217C104.109 97.1133 103.914 96.7101 103.717 96.3068C104.011 96.9117 104.506 97.418 105.104 97.6263L105.006 97.4247C107.811 97.5591 110.809 98.099 113.297 99.6336C112.996 99.5306 112.698 99.4253 112.295 99.6202C112.992 100.03 113.785 100.642 114.482 101.049L114.287 100.646C114.39 100.346 114.892 100.353 115.192 100.458C113.734 96.9318 109.113 97.6756 106.231 95.8364C105.64 95.1284 105.449 94.2234 105.951 93.3765C106.079 92.7314 105.485 92.2206 104.815 91.7344C102.138 89.7921 99.6906 88.0895 98.4425 86.8462C98.0279 86.0352 97.6313 85.287 97.2728 84.6418C96.9143 83.9988 96.5916 83.4589 96.325 83.0691C98.1086 84.0839 99.8564 85.1212 99.8564 85.1212L99.8452 85.1324Z" fill="currentColor"/>
<path d="M81.2537 82.9505C80.7988 82.209 80.3888 82.5025 79.9675 83.2283C79.6493 83.197 79.3199 83.6025 79.0152 84.1132C78.6477 84.6442 78.334 84.736 77.9486 84.9153C77.0881 85.5627 75.9901 85.3476 75.0781 86.0376C75.9879 85.3476 77.0881 85.5627 78.1368 85.0474C78.5536 84.9018 78.8852 84.9085 79.2841 84.4134C80.084 83.4232 81.0431 82.7086 81.0767 83.2216C81.126 82.7108 80.7428 83.6809 80.6666 85.1662C80.642 85.6613 80.8638 85.7217 81.0251 86.0152C84.2496 90.0611 85.7801 95.7895 82.8155 100.463C83.0172 100.364 83.1203 100.066 83.3219 99.9676C83.1203 100.066 83.2189 100.268 83.0172 100.364C86.5935 94.8979 82.9544 89.4428 80.7316 84.2477C81.1148 82.7713 81.7332 81.7856 81.7399 82.9057C81.5584 81.7901 81.4173 81.8349 81.2582 82.9505H81.2537Z" fill="currentColor"/>
<path d="M80.3421 85.2445C84.1536 89.3576 85.7827 95.2899 83.0131 100.364L83.1162 100.064C82.603 101.059 82.0899 102.055 81.1779 102.745C82.0876 102.055 82.901 101.164 83.6159 100.071C82.901 101.164 82.2893 101.957 81.1779 102.745C82.3879 102.159 82.8047 100.962 83.6159 100.071C83.1027 101.065 82.1907 101.755 81.3796 102.647C82.193 101.755 82.8047 100.962 83.6159 100.071C83.0041 100.864 82.1907 101.755 81.281 102.445C86.4527 97.7004 84.5413 90.1619 80.6536 85.2445C80.5191 85.2132 80.4138 85.2131 80.3398 85.2423L80.3421 85.2445Z" fill="currentColor"/>
<path d="M89.1048 84.2298C89.1048 84.2298 87.8657 87.2273 86.315 90.9775C86.1223 91.71 86.2411 92.4 86.1918 93.2177C86.2702 96.3003 84.8317 98.9864 83.3953 101.675C84.0003 101.381 84.2087 100.783 84.6121 100.588C83.3953 101.675 82.5774 103.068 81.5624 104.056C82.3623 104.166 82.5774 103.066 83.2609 103.185C83.8076 102.777 84.4843 102.23 85.3246 101.567C84.695 102.065 84.1482 102.539 83.6732 102.983C83.1981 103.427 82.7993 103.846 82.4856 104.255C81.8604 105.08 81.5624 105.862 81.6161 106.691C81.7215 108.346 83.225 110.183 86.3016 112.901C79.8683 111.288 79.7294 113.199 81.6565 117.462C79.7294 113.199 79.9871 112.421 84.5023 115.416C80.8498 109.829 81.4526 108.015 86.8573 104.034C85.8512 103.993 85.1431 103.816 84.6636 103.536C84.1841 103.256 83.9264 102.88 83.8816 102.49C85.8355 98.9976 86.2882 94.7949 87.1284 90.9618C87.2831 90.4801 87.4354 90.0186 87.5811 89.5818C88.4527 86.9584 89.0353 85.2088 89.0353 85.2088L89.1071 84.2275L89.1048 84.2298Z" fill="currentColor"/>
<path d="M105.12 97.8505C105.214 97.799 105.149 97.7072 104.972 97.5862C104.903 97.7968 104.883 97.9827 105.12 97.8505Z" fill="currentColor"/>
<path d="M102.152 101.121C101.186 97.7877 104.518 95.926 104.771 92.6978C104.339 92.3371 103.734 91.8846 103.023 91.3895C100.191 89.4069 96.0277 86.667 95.7162 86.2503C95.1561 85.4998 91.5596 81.2321 91.1092 80.634C90.5513 80.0313 88.5189 76.8435 88.9334 76.6217C88.073 76.4357 89.9104 79.2226 89.9463 80.0829C89.6639 80.448 89.6258 81.0753 89.7087 81.6309C89.7692 82.2739 89.8342 82.993 89.8992 83.7121C90.0919 85.8672 87.3828 89.6645 87.3828 89.6645C87.3828 89.6645 90.1547 84.2318 90.1098 81.6891C90.0874 80.4167 88.3463 77.0697 88.6063 77.3274C88.4136 77.0182 90.7552 80.1904 91.6515 81.3777C92.9892 83.1498 94.1074 84.6889 95.0373 86.0263C95.3465 86.4721 95.6378 86.8978 95.9067 87.301C96.5745 87.9484 98.4567 89.4225 100.39 91.0893C101.036 91.6449 101.686 92.2229 102.297 92.7986C103.514 95.9126 100.964 99.3872 102.645 101.312C104.52 103.639 107.967 100.476 111.265 101.119C113.165 101.444 114.252 102.66 115.137 103.973C112.97 101.041 109.15 101.894 106.32 103.762C105.311 104.251 104.316 103.738 103.561 102.909C102.974 102.427 102.513 101.8 102.149 101.121H102.152Z" fill="currentColor"/>
<path d="M116.301 106.422C115.58 100.774 109.77 100.601 105.064 100.142C101.961 99.9025 103.417 95.7132 103.818 93.3273C103.415 93.0002 102.843 92.5768 102.151 92.1198C99.3859 90.2918 95.3189 87.6796 95.1396 87.3727C93.2619 84.1557 91.8099 81.6892 91.7718 81.716C91.6575 81.7989 91.5925 81.8997 91.5723 82.0252C91.5522 82.1507 91.5835 82.2671 91.6642 82.3814C91.7426 82.4912 91.8435 82.5539 91.9667 82.5718C92.09 82.5897 92.2065 82.5584 92.3208 82.4755C92.3611 82.4464 93.8086 84.9039 95.673 88.103C95.7872 88.2912 98.084 89.7653 100.376 91.226C101.14 91.7121 101.902 92.1982 102.586 92.6351C103.052 92.8994 103.448 93.2063 103.444 93.7059C103.314 96.0089 102.666 99.8084 105.47 99.9428C110.278 100.104 116.174 101.48 116.405 107.094C116.606 106.995 116.508 106.794 116.452 106.563C116.427 106.444 116.378 106.395 116.306 106.417L116.301 106.422Z" fill="currentColor"/>
<path d="M99.4358 81.9312L100.191 84.2946C100.384 84.8995 106.685 89.1896 108.968 91.1118C109.425 91.4971 109.721 91.7861 109.775 91.9317C110.969 92.8032 109.844 94.5931 110.938 95.3078C117.205 98.993 118.424 105.622 116.663 111.845C117.275 112.851 117.886 113.859 117.886 113.859L117.21 111.937C117.129 111.458 117.028 110.967 117.212 110.12C119.549 103.834 115.811 98.1753 110.949 94.3064C110.85 94.1047 110.857 93.6029 110.976 93.1974C111.034 92.8547 110.646 92.3842 110.205 91.9026C109.9 91.1476 100.899 85.2535 100.686 84.6531C100.263 83.4523 100.009 82.7309 100.009 82.7309L99.4336 81.9334L99.4358 81.9312Z" fill="currentColor"/>
<path d="M107.344 78.3781C109.21 78.9494 109.112 78.8978 107.359 78.3064C108.977 78.9202 109.065 79.0098 107.344 78.3781Z" fill="currentColor"/>
<path d="M95.5742 74.8922C95.2941 74.7914 96.0604 75.5934 97.5079 75.9272C98.2317 76.093 99.0765 76.2901 99.9795 76.503C101.485 76.8569 103.383 77.4976 105.245 78.1921C107.105 78.8866 108.929 79.6326 107.06 79.5408C111.638 80.7707 112.523 81.1605 106.93 80.5108C112.449 81.0395 112.351 80.9723 106.968 80.1837C112.08 80.9051 111.959 80.9185 106.942 80.3517C111.829 80.9925 110.91 80.5937 107.056 79.5027C108.147 79.4444 106.301 78.6917 104.421 77.9927C102.541 77.2938 100.625 76.6486 99.1056 76.2901C98.1936 76.0751 97.3444 75.8757 96.6139 75.7077C95.8632 75.3604 95.2694 74.6503 95.3366 74.377C94.7159 74.7959 95.0364 75.3246 95.4957 75.8869C95.6862 76.3618 96.0156 76.8681 96.1836 77.3722C96.643 77.827 99.1997 80.522 99.7129 81.0305C101.248 82.5584 102.765 84.0818 102.765 84.0818C102.765 84.0818 101.346 82.4979 99.9325 80.8961C99.4619 80.3629 96.9455 77.641 96.5287 77.1594C95.7265 76.1244 95.2761 74.881 95.5742 74.8945V74.8922Z" fill="currentColor"/>
<path d="M111.63 90.6951C114.879 85.6613 114.758 85.6747 111.144 90.3479C114.626 85.7509 113.562 85.1482 107.774 86.0892C110.402 83.3292 108.305 82.1105 106.21 80.8962C102.019 78.4655 97.8382 76.0416 97.8225 76.1088C97.7889 76.2454 97.8023 76.3664 97.8673 76.474C97.9323 76.5815 98.0309 76.6532 98.1676 76.6868C98.2975 76.7204 98.4163 76.7025 98.5216 76.6375C98.6269 76.5725 98.6964 76.4717 98.73 76.3373C98.739 76.3037 99.7832 76.8906 101.343 77.789C102.905 78.6873 104.982 79.8948 106.734 81.0867C109.129 82.3143 111.2 83.5263 108.186 86.9181C114.299 85.3297 115.325 85.9234 112.314 91.123C115.249 85.7979 115.15 85.7307 111.63 90.6974V90.6951Z" fill="currentColor"/>
<path d="M99.1786 70.5866C99.1786 70.5866 102.304 73.0307 106.058 75.9632C107.933 77.4306 109.966 79.0189 107.091 79.4827C113.719 81.9537 115.438 83.2978 113.708 91.7705C117.938 85.2536 118.72 85.8652 120.287 92.2387C119.765 90.1127 119.628 88.6117 119.843 87.6641C120.217 86.6201 120.945 86.134 120.246 87.1847C121.284 86.7725 122.164 86.5328 122.684 87.2071C123.601 86.6806 124.159 87.0682 124.542 88.0046C124.95 88.7596 125.181 90.0634 125.25 91.9699C125.349 90.8386 125.425 89.8663 125.452 89.0665C125.479 88.2667 125.458 87.6327 125.324 87.7425C125.275 85.9637 124.891 85.4642 123.462 87.2474C123.547 85.733 123.141 85.6949 122.167 86.8688C122.008 85.9906 121.277 86.3222 120.401 86.7702C121.407 86.1318 122.268 85.6075 122.341 86.833C123.522 85.155 123.917 85.2267 123.641 87.2407C124.84 84.9601 125.371 84.6196 125.492 87.3236C125.884 84.9153 125.868 85.5493 125.593 87.6215C125.788 86.6201 125.723 87.057 125.485 88.0091C125.261 88.6431 124.865 89.7924 124.354 91.1746C124.865 89.7924 125.27 88.6364 125.496 88.0024C125.738 87.0346 125.803 86.5888 125.593 87.6148C125.893 85.4059 125.918 84.6689 125.438 87.2855C125.295 84.2365 124.647 84.5412 123.072 87.048C123.623 84.4829 123.244 84.1222 121.445 86.2841C121.88 84.0125 120.894 84.2634 119.204 85.1909C120.865 84.2051 121.824 83.896 121.205 86.1452C123.029 83.8601 123.276 84.1312 122.272 86.7344C124.114 83.8355 124.705 83.2687 123.93 86.9719C124.759 83.2508 124.221 83.7974 122.397 86.777C123.554 83.9206 123.424 83.4972 121.474 86.2012C122.364 83.2933 121.432 83.5151 119.249 84.987C121.378 83.439 122.243 83.1455 121.073 85.9749C123.09 83.1589 123.072 83.4681 121.394 86.2975C123.601 83.085 124.145 82.395 122.279 86.3827C123.829 82.0321 122.969 82.3614 119.762 85.2065C122.115 82.0545 122.122 81.4205 118.501 83.7593C121.149 80.6297 120.17 80.4729 116.699 81.3242C120.208 80.3541 121.066 80.3496 117.784 82.8184C121.539 80.4818 121.158 80.6185 117.387 82.4891C121.208 80.1592 121.638 79.5633 116.807 80.7954C121.156 78.4297 120.242 77.8898 115.888 77.2558C120.269 77.3118 121.21 77.2715 116.177 76.9198C121.582 76.8369 121.01 76.4426 116.157 75.1343C121.602 75.6742 122.76 75.3001 118.897 70.5731C123.475 73.6289 123.027 72.3317 120.847 68.4292C122.857 72.0763 123.117 73.1382 119.204 70.1139C122.328 74.3413 121.282 74.4801 116.757 73.1584C120.547 75.038 120.86 75.4569 116.426 74.572C120.484 75.9834 119.798 76.0909 115.987 75.7325C119.482 76.6039 118.935 76.8391 115.821 76.9108C117.851 77.1147 117.313 77.155 115.606 77.1169C115.751 77.0654 114.781 76.7159 113.759 76.1267C112.738 75.5376 111.664 74.7064 110.414 73.6804C111.043 75.7974 108.861 74.8028 106.92 73.9201C103.039 72.1548 100.126 70.8285 100.126 70.8285L99.1719 70.5888L99.1786 70.5866Z" fill="currentColor"/>
</svg>
