<svg width="143" height="143" viewBox="0 0 143 143" fill="none" xmlns="http://www.w3.org/2000/svg">
<g clip-path="url(#clip0_675_1071)">
<path d="M53.1861 124.022C51.6432 123.022 52.5963 122.133 53.3546 122.04C52.9117 121.99 53.6615 122.559 54.6326 122.915C55.1849 122.929 55.9586 122.728 56.6081 121.986C55.9672 122.573 55.3287 123.166 54.8784 123.474C53.886 123.866 52.9173 123.637 53.1893 124.021L53.1861 124.022Z" stroke="currentColor" stroke-width="0.7" stroke-miterlimit="50"/>
<path d="M49.2991 117.517C47.0881 114.393 47.4173 112.915 50.432 109.355C47.5678 109.888 47.3912 108.336 48.1497 104.224C46.7107 105.839 45.9598 105.266 45.554 102.822C44.3548 105.05 43.4984 105.4 42.764 103.4C43.641 105.714 43.3775 104.468 44.4403 102.232C45.5471 103.937 46.5287 104.441 48.0846 103.298C48.0078 106.12 48.5063 107.298 50.7451 106.202C48.7969 107.773 48.8174 107.153 50.4589 104.754C49.885 107.506 49.9243 108.51 52.1824 107.805C49.6994 110.585 49.4287 111.657 52.9027 111.984C50.3796 110.922 50.7089 109.176 52.1907 106.077C50.6529 105.807 50.2684 104.178 49.9282 102.094C49.0687 101.003 48.2599 99.4542 47.3799 97.9281C46.4999 96.4019 45.5551 94.8956 44.6843 93.3951C45.3089 93.111 45.6266 92.8149 46.382 92.6538C47.7864 92.2361 47.7182 90.9235 47.8361 91.0403C48.0779 91.3007 47.3991 91.7928 47.6067 91.859C47.8111 91.9264 48.1208 91.9266 48.5275 91.8664L48.8106 93.942C47.714 94.7521 45.3241 92.8048 45.5876 94.0503C46.1389 95.8222 47.0691 97.5767 47.9884 99.3604C48.9044 101.145 49.8118 102.966 51.0484 103.856C50.8207 106.769 50.9278 108.756 52.9954 109.544C49.953 112.211 49.9609 112.809 53.3125 112.897C50.0311 114.158 50.0412 114.643 53.3437 114.854C49.6285 114.209 49.3281 113.966 52.6275 113.711C48.9601 113.795 49.0757 112.851 52.4257 110.616C49.3461 110.912 49.5053 109.919 51.964 107.928C48.9252 110.455 48.6302 111.341 51.6895 110.97C48.0728 113.174 47.8073 114.122 50.668 115.728C46.9782 115.741 47.2745 115.913 50.8331 117.567C47.6199 116.001 47.3912 117.041 50.2082 119.283C46.8304 116.914 46.3523 116.638 49.3 117.51L49.2991 117.517ZM55.5487 114.36C53.5621 114.452 53.4153 114.535 55.3127 114.663C53.1783 114.566 52.9535 113.209 54.6831 110.506C52.4793 110.147 52.3026 108.943 53.3722 106.675C52.1836 106.286 51.9704 105.001 51.9837 103.336C51.3727 102.474 50.9861 101.236 50.7107 99.9879C50.4353 98.7394 50.2667 97.4776 50.4043 96.1666C50.096 94.111 49.8802 92.7287 49.8463 92.7047C49.7136 92.5968 49.6357 92.4511 49.609 92.2578C49.5822 92.0646 49.6186 91.9064 49.7158 91.777C49.7407 91.7463 49.9475 93.0739 50.2514 95.0876C50.2959 96.9814 50.6715 98.7155 51.0664 100.453C51.4614 102.191 51.8726 103.934 52.7509 105.088C52.0514 106.856 52.1343 107.572 53.6394 107.314C52.4325 109.73 52.6266 110.982 54.892 111.362C52.922 112.763 53.0221 113.289 55.2012 113.102C53.2421 113.26 53.4039 113.299 55.4662 113.267C53.6753 113.502 53.7553 113.643 55.6057 113.782C53.8085 114.019 53.7669 114.183 55.5467 114.365L55.5487 114.36Z" stroke="currentColor" stroke-width="0.7" stroke-miterlimit="50"/>
<path d="M46.83 100.682C46.2177 100.204 45.4312 99.5823 44.5858 98.9677C43.739 98.379 42.839 97.8024 42.0958 97.0023C43.3448 96.4343 44.408 96.7852 45.3874 97.402C46.3668 98.0188 47.256 98.9037 48.1603 99.4027C47.2722 98.4412 46.3025 97.5527 45.4498 96.6691C44.5971 95.7854 43.8581 94.9076 43.4303 93.9643C42.5855 91.7695 45.3364 92.1872 46.7022 91.7727C46.5956 90.5827 46.485 89.4413 46.362 88.4348C46.1183 86.4283 46.5341 85.7269 46.6651 85.8499C47.3745 86.7057 48.2951 86.7422 49.2156 86.7787C48.6127 86.446 48.5478 88.2961 47.9446 87.0176C47.8048 86.9595 47.3178 87.8424 47.4993 89.9258C47.5879 90.9665 47.6473 92.1156 46.8685 92.4808C45.9405 92.5231 45.0091 92.795 44.9874 93.4117C44.9224 95.2617 46.1023 96.7011 47.3207 98.1772C48.5359 99.6546 49.7908 101.172 50.2327 102.552C49.3023 101.921 48.5784 100.658 47.6596 99.6311C46.7261 98.6534 45.6019 97.915 44.2233 97.7073C44.9525 98.8169 45.9994 99.6303 46.9739 100.303C47.8346 101.438 48.6217 102.429 49.3876 102.804C48.2717 103.034 47.6022 102.069 46.8279 100.686L46.83 100.682ZM54.0638 107.417C52.7397 108.335 52.5918 108.414 53.8225 107.526C52.3793 108.444 52.3111 108.106 53.4088 106.592C52.1031 106.775 51.9967 105.476 52.1082 103.446C51.7855 102.624 51.4201 101.456 51.066 100.308C50.7119 99.1606 50.372 98.0224 50.4217 96.8665C50.4746 96.137 50.2837 94.8036 50.1015 93.554C49.9594 92.5943 49.8228 91.6797 49.6993 90.851C49.6129 90.0452 49.534 89.3199 49.8004 88.9118C50.3912 88.3754 50.7197 87.7709 51.0483 87.1664C51.0266 87.7831 50.0952 88.0549 49.9508 88.6508C49.5414 89.1215 49.634 90.0339 49.7376 91.0365C49.8937 92.0745 50.0576 93.2039 50.2287 94.3632C50.3284 95.0266 50.4251 95.7019 50.5251 96.376C50.5703 97.9434 50.9509 99.5126 51.3261 101.076C51.6912 102.662 52.0507 104.243 52.8073 105.099C52.1427 106.775 52.2029 107.17 53.3169 106.289C52.2744 107.159 52.6336 106.5 53.6037 105.101C53.6587 104.527 54.3246 103.213 54.9842 101.902C55.4243 101.028 55.86 100.153 56.2481 99.3749C57.0233 97.8259 57.9352 97.2711 57.9352 97.2711C57.9352 97.2711 57.0914 97.8846 56.3914 99.4824C56.0471 100.292 55.6594 101.201 55.2697 102.114C54.6889 103.483 54.1061 104.858 54.1047 105.55C53.2385 106.948 52.9526 107.66 54.0092 106.988C52.9817 107.899 52.9433 108.062 54.0606 107.418L54.0638 107.417Z" stroke="currentColor" stroke-width="0.7" stroke-miterlimit="50"/>
<path d="M45.0266 65.6917C45.0266 65.6917 44.8619 66.7189 44.6634 68.4288C44.168 72.9896 46.1861 76.7748 47.5839 80.8461C48.4396 82.7326 47.4552 84.5494 46.1016 85.6445C45.6245 86.147 45.4826 87.108 45.3935 88.155C45.2688 88.8053 45.1748 89.4808 45.0666 90.1469C41.9972 91.1273 38.0049 90.9704 35.7389 94.2802C35.0819 95.4893 36.2552 97.0796 37.8003 96.8321C36.5512 97.4001 34.7286 96.7116 35.0819 95.4893C35.254 90.5526 41.3727 91.4113 44.1839 88.9117C44.2443 88.1831 44.289 87.4312 44.3444 86.6791C44.384 85.4254 44.4728 84.248 44.8534 83.6283C45.6767 82.62 45.4131 81.3745 45.4564 80.1411C44.6755 76.093 43.874 72.6648 44.4486 68.5319C44.8187 66.6295 45.0254 65.6885 45.0254 65.6885L45.0266 65.6917ZM51.6084 84.5937C51.4463 84.7031 50.8326 84.6788 51.468 84.0865C52.3236 85.973 51.3392 87.7897 50.107 88.9714C49.7238 89.7334 49.8342 90.8242 49.941 91.9054C50.1058 93.0272 50.2714 94.1414 50.43 95.1966C50.612 96.4354 50.637 97.2708 50.6825 97.8342C50.9619 98.5267 51.013 99.2548 51.128 99.9307C51.243 100.607 51.424 101.226 51.9841 101.679C52.1575 102.138 52.25 102.384 52.3447 102.477C52.3 102.761 52.2601 102.909 52.2356 102.603C51.51 101.742 51.1406 100.702 50.9174 99.6373C50.6942 98.5729 50.6192 97.4802 50.5847 96.3801C50.4926 95.7574 50.3987 95.1101 50.3069 94.4584C50.1593 93.4536 50.0056 92.422 49.8565 91.4032C49.761 90.423 49.6701 89.4557 50.0719 88.8247C50.7127 88.0781 51.6657 87.1896 51.7206 85.8687C51.7734 85.0994 51.6463 84.609 51.6095 84.597L51.6084 84.5937Z" stroke="currentColor" stroke-width="0.7" stroke-miterlimit="50"/>
<path d="M88.4273 104.769C89.5776 101.968 88.9422 102.561 85.4872 104.605C89.9889 101.881 91.8375 100.82 93.6382 101.02C94.9161 98.1044 96.146 96.4488 99.4176 92.0973C97.6174 92.7742 97.8568 90.7596 98.0934 87.155C97.5716 90.1307 97.5542 91.6048 99.3553 90.4528C97.0901 94.451 96.6433 95.8231 98.8161 95.7978C95.2314 98.3092 94.2652 99.42 92.784 102.779C91.6641 101.296 90.6191 101.841 88.4273 104.769Z" stroke="currentColor" stroke-width="0.7" stroke-miterlimit="50"/>
<path d="M78.0431 103.935C77.8506 103.911 76.4198 104.186 74.647 104.57C72.5604 105.003 70.6976 105.547 68.5075 105.922C66.6893 106.33 65.3431 106.64 65.3431 106.64C65.3431 106.64 66.007 106.385 66.9974 105.998C68.0538 105.594 69.5868 105.064 71.1821 104.458C73.8587 104.004 75.9592 102.555 77.2795 100.443C77.7244 99.7417 78.0826 98.9706 78.3983 98.2511C78.9865 98.6725 79.6411 98.8994 79.7388 99.1395C80.9834 99.3051 81.669 99.4883 80.8839 100.015C81.24 98.5418 79.9701 97.4902 78.6213 96.3801C77.4124 95.2883 76.1271 94.1444 75.0624 92.6851C74.5501 92.2544 74.0728 91.9306 73.6029 91.6767C71.5887 90.7277 69.3726 90.0765 67.2344 89.3718C66.5259 89.1353 65.8258 88.8922 65.192 88.6034C64.8931 86.7727 66.1995 84.6618 65.3407 82.7764L65.2866 84.3181C65.6151 83.7136 65.6259 83.4052 65.9544 82.8007C65.8895 84.6508 66.4502 86.22 66.0931 88.0489L65.7607 88.354C67.9213 89.25 70.3872 89.9848 72.6943 90.9473C73.4619 91.2675 74.2142 91.6149 74.9332 91.9998C75.5823 93.1964 76.5262 94.0833 77.5575 94.8734C78.5888 95.6635 79.7074 96.3567 79.9852 97.1042C81.7208 97.98 82.608 98.9092 81.4053 100.501C82.8716 100.155 82.5539 100.451 80.9211 100.745C81.5434 100.146 80.7347 99.8119 79.5779 99.6797C79.3198 99.4542 78.7093 99.4287 78.3945 99.713C77.8749 100.267 77.6117 101.181 77.8872 102.122C78.1724 102.751 78.4685 103.071 79.1274 102.713C79.1783 102.695 79.6695 103.644 79.5975 103.674C79.1634 103.907 78.6184 104.003 78.042 103.932L78.0431 103.935ZM87.048 100.263C89.6636 99.5014 89.3459 99.7976 85.6899 100.998C90.0029 98.5885 88.7755 98.5399 84.5903 98.1483C86.3354 97.9262 84.5418 97.4773 81.1906 96.5846C81.1973 96.1654 79.6495 95.3013 78.304 94.1901C76.9584 93.0788 75.8194 91.7225 74.9651 90.0783C74.4926 89.3796 74.081 88.9487 73.7023 88.7777C72.781 88.5603 71.852 88.371 70.9278 88.1655C70.0037 87.96 69.0908 87.7359 68.2083 87.4464C66.781 85.6219 66.8557 83.4603 66.3177 81.2776C66.5813 82.5231 66.8448 83.7686 67.3158 84.8013C67.5031 86.2738 68.2701 87.1595 69.5177 87.5923C70.7653 88.025 72.0202 88.4479 73.2513 88.9047C73.6764 89.1241 74.112 89.4521 74.6044 90.0567C75.5598 92.2188 76.9759 93.7937 78.6394 94.9675C80.3642 96.1516 82.3351 96.9314 81.9578 97.2818C86.4626 98.0687 88.6128 98.4284 87.8644 99.3154C90.616 98.8994 90.4331 99.0707 87.048 100.263Z" stroke="currentColor" stroke-width="0.7" stroke-miterlimit="50"/>
<path d="M75.6722 98.7451C74.018 98.5719 73.4476 97.3142 73.4898 96.0776C73.5169 95.3068 73.7681 94.6976 74.1684 94.2121C74.5688 93.7265 75.1204 93.3602 76.1232 94.012C75.4661 93.0321 74.8272 92.4008 74.2463 92.0493C73.7152 91.8356 73.182 91.7351 72.7185 91.718C71.047 91.1886 69.3669 90.8145 67.7351 90.2853C66.9198 90.0223 66.112 89.7203 65.3805 89.3109C64.3387 85.2086 64.8068 80.5925 61.5462 77.0649C61.5462 77.0649 62.4884 76.4847 62.2032 75.8559C62.4884 76.4847 62.7844 76.8052 63.0804 77.1257C62.7736 77.1136 62.4667 77.1014 62.4884 76.4847C64.8361 79.6686 65.5975 84.3291 65.4547 88.3418C65.433 88.9585 66.3428 89.3033 66.8184 89.4139C67.6938 89.8327 68.611 90.1785 69.5543 90.4568C70.4976 90.7351 71.4626 90.944 72.4321 91.086C73.3527 91.1224 74.2667 91.3896 75.3924 92.6891C76.0131 93.3596 76.5401 94.0894 77.098 94.7754C77.6559 95.4614 78.2512 96.1012 78.8634 96.5791C78.0892 96.2504 77.1903 95.5973 76.6197 95.0753C75.8949 94.6346 75.365 94.5038 75.1058 94.7825C74.5874 95.3397 74.4069 96.1045 74.9893 97.0571C75.5813 97.6981 76.2059 97.4141 76.8304 97.13C76.8196 97.4384 77.1156 97.7589 77.0542 98.1761C76.6089 98.5475 76.1487 98.7285 75.6656 98.7367L75.6722 98.7451ZM83.0369 97.1669C84.3991 97.4386 82.7795 96.9629 80.3878 96.0455C79.8259 95.4479 78.4951 94.4075 77.2888 93.2132C76.0813 92.0158 74.9938 90.6626 74.0094 89.2757C73.2762 88.9612 72.5509 88.6982 71.8207 88.4515C71.0905 88.2047 70.3516 87.9539 69.6104 87.6967C68.8692 87.4395 68.1158 87.1685 67.4998 86.75C67.5211 82.2521 65.2134 77.836 61.9463 74.6188C64.9174 77.5155 66.633 81.2906 67.4692 85.3622C67.5801 86.3151 67.9582 86.9719 68.6517 87.3261C69.4196 87.6172 70.2083 87.8862 71.003 88.1422C71.9579 88.4525 72.9221 88.7487 73.8738 89.0602C74.7122 90.2028 75.5992 91.3205 76.569 92.3684C77.5376 93.4131 78.5857 94.3892 79.4821 95.1846C80.9081 96.1 82.1833 96.838 81.5357 97.2174C81.9906 96.4149 80.5645 95.2603 79.2368 93.9397C78.0799 92.6732 77.0245 91.2395 76.1665 89.6945C75.3085 88.1495 74.6467 86.4901 74.1947 84.7438C73.4915 84.0343 72.7876 83.383 72.1183 82.7373C72.5623 83.2181 73.0599 83.6577 73.5827 84.0774C74.0976 84.5651 74.641 85.0316 75.1022 86.7238C75.5357 88.5384 76.3228 90.1164 77.359 91.4772C78.3953 92.8381 79.6754 93.9875 80.3987 94.7623C82.5183 95.9231 84.08 96.7061 82.7175 96.9709C86.0138 97.3833 86.1878 97.4363 83.0433 97.1646L83.0369 97.1669Z" stroke="currentColor" stroke-width="0.7" stroke-miterlimit="50"/>
<path d="M45.0255 65.692C45.0255 65.692 45.1042 66.6855 45.2822 68.2918C45.8684 77.0746 55.113 76.5121 61.1883 78.6042C65.1374 79.9945 63.6805 86.4253 63.0583 90.3471C63.6579 90.9491 64.2962 91.519 64.9658 92.0559C66.9745 93.6664 69.2636 94.987 71.6463 96.0091C68.7893 95.3181 66.3005 93.9429 64.1715 92.1295C63.4625 91.5236 62.7928 90.8672 62.164 90.1742C63.6785 86.4297 63.8939 80.2597 60.8361 79.8297C54.1038 78.9467 45.5595 77.0668 45.1822 69.0202C45.0377 66.8401 45.0202 65.6976 45.0202 65.6976L45.0255 65.692ZM57.446 75.0589C57.2923 75.669 56.9854 75.6568 56.6786 75.6446C58.2562 74.4721 59.8261 73.6067 61.6348 74.6047C65.5405 77.2284 67.2204 81.9296 68.0224 86.3144C68.4235 87.1441 69.2499 87.5372 70.0986 87.8824C71.0016 88.1789 71.9269 88.4275 72.8595 88.6264C73.6667 88.867 74.4829 89.1224 75.5376 90.9224C74.4374 89.1461 73.5897 88.9927 72.7513 88.7851C71.7811 88.6216 70.8283 88.3866 69.9036 88.0798C69.0364 87.7232 68.2015 87.2969 67.8369 86.3888C66.918 81.6114 65.2489 76.6018 60.8601 74.066C58.7179 74.3847 57.4491 75.0179 57.4384 75.058L57.446 75.0589Z" stroke="currentColor" stroke-width="0.7" stroke-miterlimit="50"/>
<path d="M100.268 66.0635C100.386 66.1911 100.44 66.3493 100.431 66.5444C100.423 66.7396 100.358 66.879 100.229 66.9909C100.105 67.1047 99.9434 67.1559 99.7535 67.1486C99.5636 67.1412 99.4107 67.0769 99.3024 66.9567C99.194 66.8364 99.1416 66.6815 99.1501 66.4863C99.1587 66.2911 99.2232 66.1409 99.3464 66.0239C99.4697 65.9068 99.2629 58.998 99.2629 58.998C99.2629 58.998 100.15 65.936 100.268 66.0635Z" stroke="currentColor" stroke-width="0.7" stroke-miterlimit="50"/>
<path d="M93.9628 72.9566C88.4487 72.883 82.4745 76.6615 81.3493 82.4867C81.1472 83.8681 81.2476 85.3394 81.7043 86.6709C82.1566 88.0003 82.962 89.191 83.5214 89.4234C83.2635 89.3574 82.5288 88.4019 81.9895 87.3396C81.4502 86.2772 81.1082 85.1035 80.9927 84.0183C80.8687 78.7611 85.0332 73.9814 90.0668 72.638C89.701 72.3138 89.0981 71.9811 89.4374 71.0682C89.7768 70.1554 91.0042 70.204 91.6396 69.6117C87.9866 68.5419 84.261 69.6293 80.4949 68.6548C79.3765 68.5196 78.2472 68.334 77.0295 68.2129C75.1021 68.0407 73.3828 67.8766 72.17 67.7393C70.9573 67.6019 70.2277 67.4565 70.351 67.4191C70.6479 67.2247 71.0128 67.9841 71.1126 67.7922C71.2124 67.6002 71.2683 67.2973 71.2762 66.8813L75.4417 67.0589C75.4261 67.6227 75.2324 67.1673 75.045 67.525C75.0124 67.584 75.526 67.6699 76.3959 67.7754C77.221 67.8863 78.4076 68.0113 79.5935 68.1838C83.9866 68.6921 88.2934 68.554 92.498 69.2575C93.3731 69.3575 93.8543 69.4335 93.786 69.4835C93.3598 69.7683 93.0206 69.9852 92.7185 70.1055C92.2328 70.2559 91.6051 70.541 90.9805 70.8251C90.356 71.1091 90.652 71.4296 90.948 71.7501C92.439 73.0442 94.3483 71.266 95.6994 72.4224C95.2546 72.6957 94.6763 72.8687 93.964 72.9598L93.9628 72.9566ZM94.14 65.7857C94.2582 65.9133 94.3118 66.0714 94.3033 66.2666C94.2947 66.4618 72.4375 65.613 72.3099 65.728C72.1855 65.8419 72.024 65.8931 71.8341 65.8857C71.6442 65.8784 71.4913 65.8141 71.383 65.6938C71.2746 65.5736 93.0134 66.4036 93.0231 66.2117C93.0329 66.0197 93.0962 65.8663 93.2194 65.7492C93.3427 65.6321 93.4955 65.5768 93.679 65.5865C93.8626 65.5962 94.0241 65.6646 94.1423 65.7921L94.14 65.7857Z" stroke="currentColor" stroke-width="0.7" stroke-miterlimit="50"/>
<path d="M86.2623 72.7213C85.6603 72.8885 84.8393 73.356 84.1545 73.5531C83.4208 73.7642 82.7309 73.7385 82.2977 72.9494C81.749 71.075 83.6118 70.5313 84.5745 69.3312C81.5136 68.9024 78.1165 69.3854 75.0161 68.7679C74.3314 68.7366 73.6511 68.7074 72.9772 68.6759C72.3033 68.6444 71.6444 68.6147 71.0069 68.5844C67.7624 66.5043 64.1094 65.4345 60.4163 65.5969C61.6546 65.3372 61.7087 63.7955 63.8274 64.8045L62.9069 64.768C65.0224 65.7782 67.4804 65.8743 69.5955 67.0622C70.7951 67.621 71.7701 67.7682 72.7434 67.8509C74.0421 67.9571 75.4299 68.0709 76.8123 68.1794C80.2741 69.1589 83.3892 68.046 86.7322 69.1048C85.187 69.3523 82.9817 70.8101 83.8622 72.0788C84.7286 73.657 86.3712 70.6344 87.7886 71.4369C87.3848 71.9128 86.8744 72.3331 86.26 72.7149L86.2623 72.7213ZM88.0053 65.5092C88.1235 65.6368 88.1771 65.7949 88.1686 65.9901C88.1631 66.1044 79.6241 65.8209 73.1891 65.6202C71.9029 65.5783 70.6984 65.5432 69.6655 65.5147C67.5217 64.6453 65.0745 64.2408 62.9373 63.8473C64.7676 64.2286 66.3051 64.2883 68.0754 65.0211C68.8267 65.2566 69.4715 65.3566 70.2155 65.5222C76.601 65.7154 86.8781 66.0658 86.8841 65.9331C86.8938 65.7411 77.4977 58.7516 77.4977 58.7516C77.4977 58.7516 87.3565 65.2983 87.54 65.308C87.7235 65.3176 87.8851 65.386 88.0033 65.5136L88.0053 65.5092Z" stroke="currentColor" stroke-width="0.7" stroke-miterlimit="50"/>
<path d="M45.0278 65.6932C45.0278 65.6932 45.3626 66.1011 45.7839 66.7677C46.4925 68.1385 47.6982 68.8038 48.9365 68.5441C56.3801 66.6764 64.461 64.212 70.8964 69.816C71.8443 70.6145 72.5117 70.797 73.1628 70.9745C75.2307 72.6687 77.6434 74.0025 80.3974 74.4192C77.8405 75.0148 76.0469 73.5511 74.0578 72.4227C73.3947 72.043 72.7102 71.7036 71.9577 71.465C66.8834 65.2343 57.9348 66.1173 51.6441 70.1952C49.4419 71.6518 46.7204 70.3102 45.8586 67.7301C45.3489 66.4214 45.0234 65.6912 45.0234 65.6912L45.0278 65.6932ZM56.7114 64.498C56.447 64.822 55.8333 64.7977 55.5265 64.7855C60.5152 62.8206 65.6808 64.5678 70.8766 65.4634C71.5546 65.4862 72.2314 65.5058 72.9007 65.5245C77.5753 65.6665 81.7378 65.7763 81.741 65.6954C81.7507 65.5034 81.814 65.3501 81.9373 65.233C82.0605 65.1159 82.2133 65.0606 82.3969 65.0703C82.5804 65.0799 82.742 65.1483 82.8602 65.2759C82.9783 65.4034 83.032 65.5616 83.0234 65.7568C83.0177 65.8603 76.101 65.6419 70.0252 65.449C69.2068 65.3067 68.3976 65.1502 67.3712 64.8113C64.473 63.9069 61.1072 63.4616 58.0336 64.1717C57.2003 64.3464 56.7378 64.4812 56.7126 64.5012L56.7114 64.498Z" stroke="currentColor" stroke-width="0.7" stroke-miterlimit="50"/>
<path d="M86.9006 25.812C87.61 26.2004 87.9061 26.5209 87.8844 27.1375C86.2292 26.1456 84.7296 25.0068 83.9388 23.9956C81.5649 23.2565 79.8945 22.6506 81.7361 20.944C79.2754 22.7805 80.5747 22.9879 83.3279 22.9446C83.062 23.6823 84.2469 24.1704 85.3999 24.7896C86.2701 25.3335 86.8473 25.7842 86.9006 25.812Z" stroke="currentColor" stroke-width="0.7" stroke-miterlimit="50"/>
<path d="M88.0957 39.807C88.0408 39.9936 88.077 41.5062 88.1504 43.4403C88.2973 47.3084 88.5954 52.8576 88.5954 52.8576C88.5954 52.8576 87.3622 46.5451 86.567 43.4226C86.3015 42.3808 86.0855 41.6943 85.981 41.714C85.0006 39.3833 86.2919 37.5787 86.3677 35.4204C83.1563 39.3115 79.6293 43.4945 74.3712 44.6256C73.8067 45.0256 73.2409 45.4225 72.688 45.8147C68.8041 48.554 65.3768 50.9432 65.4528 50.6657C65.5527 50.3251 66.3189 50.6711 66.2745 50.4589C66.2269 50.2478 66.0748 49.9767 65.8172 49.6531L69.1092 47.099C69.4569 47.5422 69.0188 47.3166 69.1047 47.7131C69.1183 47.7807 69.5654 47.5138 70.2981 47.0311C71.0308 46.5485 72.0468 45.8438 73.2077 45.0322C79.0264 43.1619 83.784 39.0264 87.0495 33.5935C87.5875 35.7762 85.6717 37.8648 87.141 39.7757C87.7872 38.875 88.4334 37.9743 88.1698 36.7287C88.4767 36.7409 88.4659 37.0492 88.848 37.0704C88.7012 38.1274 88.4216 39.0658 88.0969 39.8102L88.0957 39.807ZM84.4588 29.0914C84.4688 30.9397 84.2087 32.7081 83.6034 34.3188C81.7835 39.1597 76.8208 42.6192 71.9449 43.8512C71.1285 44.172 70.5112 44.5259 69.8792 44.8489C67.5664 46.6862 65.878 48.0401 65.8719 48.0931C65.8466 48.2617 65.7615 48.4048 65.6093 48.5215C65.4571 48.6382 65.302 48.6871 65.1428 48.665C65.102 48.6617 66.143 47.8174 67.7246 46.5564C68.5154 45.9259 69.4492 45.1929 70.5155 44.4084C75.5354 42.9576 81.213 39.8119 83.2806 34.8597C83.9716 33.2071 84.2594 31.3561 84.2818 29.3584C84.0225 29.1297 84.1114 29.0468 84.4588 29.0914Z" stroke="currentColor" stroke-width="0.7" stroke-miterlimit="50"/>
<path d="M83.2348 43.5562C83.0701 44.1159 82.7705 44.5614 82.337 44.8958C81.9455 45.197 81.5392 45.3875 81.1201 45.4631C80.7009 45.5387 80.2979 45.4997 79.9131 45.3418C79.5283 45.1839 79.1953 44.9203 78.9096 44.5489C79.6267 43.4957 80.8866 42.6194 81.2368 41.3982C79.9552 42.8912 78.4101 43.1388 76.6957 44.0528C75.9207 44.3985 75.2021 44.7311 74.5339 45.1034C69.3899 49.0272 61.2125 55.4731 61.3281 55.0362C61.428 54.6956 61.458 54.4202 61.4092 54.206C61.3616 53.9949 61.2095 53.7238 60.952 53.4002L61.7871 52.7428C62.1347 53.186 61.6966 52.9604 61.7825 53.3569C61.8304 53.5788 67.5664 49.4407 72.5548 45.8631C73.1828 45.4691 73.7679 45.0762 74.3437 44.6974C77.4743 43.4086 80.6099 41.6758 83.1514 39.3063C82.1767 40.8116 81.5088 42.3289 80.3818 43.7516C80.1733 44.1604 80.2776 44.3691 80.6363 44.3951C80.995 44.4212 81.3455 44.3052 81.6835 44.0451C81.9395 43.8474 82.3021 43.506 82.7343 43.0089C83.35 42.4019 83.3933 41.1685 84.587 41.0844C84.1774 42.0118 83.6119 42.8869 83.2293 43.5509L83.2348 43.5562ZM82.4618 35.66C81.2388 41.3938 74.1346 42.3486 69.6271 44.9367C69.09 45.3631 68.553 45.7894 68.0243 46.209C64.3238 49.1465 61.0197 51.7666 61.011 51.8422C60.9857 52.0109 60.9006 52.154 60.7484 52.2707C60.5962 52.3874 60.4411 52.4363 60.2819 52.4142C60.1915 52.4034 65.5709 48.1552 70.2761 44.4119C71.0088 44.0489 71.7387 43.6977 72.7923 43.4252C76.2858 42.4326 79.7402 40.4068 81.9964 37.4086C80.322 38.3733 78.5526 39.1949 76.7599 39.8329C74.9116 40.3569 73.0432 40.696 71.1999 40.9754C69.3089 40.6849 67.4441 40.3378 65.4668 40.0278C67.5517 40.2372 69.5218 40.5571 71.4972 40.8714C73.3994 40.4765 75.3069 40.0761 77.1685 39.4494C78.9049 38.5963 80.5943 37.5138 82.0947 36.1082C82.2179 35.8715 82.3403 35.7221 82.4693 35.6609L82.4618 35.66Z" stroke="currentColor" stroke-width="0.7" stroke-miterlimit="50"/>
<path d="M45.0258 65.6916C45.0258 65.6916 45.5308 65.3059 46.207 64.7966C46.8832 64.2873 47.8702 63.5025 49.0352 62.6025C50.2001 61.7025 51.258 60.8847 52.0462 60.2769L53.3466 59.2735L78.867 47.3916L77.8007 48.216C77.8007 48.216 66.6483 54.1622 57.3549 59.1166C56.6598 59.4842 55.9655 59.8442 55.1604 60.2262C52.2465 61.8751 49.7344 63.3207 46.8187 64.9449C45.745 65.4204 45.029 65.6905 45.029 65.6905L45.0258 65.6916ZM56.934 54.9889C56.9086 55.1576 56.8236 55.3007 56.6714 55.4174C56.5192 55.5341 56.3641 55.583 56.2049 55.5609C56.1058 55.546 62.7569 50.3048 67.7315 46.3408C68.7257 45.5461 69.6528 44.8047 70.4476 44.1655C72.86 43.8469 75.0718 42.0788 77.5483 41.5594C75.6963 41.7947 74.0939 43.5851 72.2571 43.5939C71.4606 43.8206 70.8731 44.1274 70.1505 44.4289C65.0987 48.4679 56.9534 54.8732 56.9352 54.9921L56.934 54.9889Z" stroke="currentColor" stroke-width="0.7" stroke-miterlimit="50"/>
</g>
<defs>
<clipPath id="clip0_675_1071">
<rect width="99.7339" height="113.24" fill="white" transform="translate(5 34.9998) rotate(-19.8962)"/>
</clipPath>
</defs>
</svg>
