<svg width="279" height="97" viewBox="0 0 279 97" fill="none" xmlns="http://www.w3.org/2000/svg">
<g clip-path="url(#clip0_675_3264)">
<path d="M252.652 47.4086C251.399 46.329 250.478 45.1887 249.503 44.2182C248.534 43.2477 247.463 42.4471 245.915 42.0529C244.886 41.5919 243.778 41.2947 242.635 41.1552C239.215 40.7245 235.453 41.6343 232.744 43.454C235.904 41.6343 239.065 39.7298 242.003 37.5463C242.984 36.8184 243.935 36.0602 244.856 35.2657C245.548 34.6106 246.222 33.9616 246.885 33.3126C250.797 29.5035 255.613 26.4708 259.827 23.4381C255.011 26.4708 248.992 27.6839 246.102 32.2693C245.241 33.2155 244.38 34.1375 243.495 35.023C239.956 38.5713 236.031 41.5737 230.89 43.3327C230.198 44.1636 229.535 44.9703 228.885 45.7588C225.635 49.6892 222.709 53.0616 217.694 55.5909C216.49 53.1647 220.102 50.7385 217.092 48.3124L217.694 48.9189C215.888 47.7058 214.083 46.4927 212.108 45.9469C211.241 45.589 210.368 45.2797 209.489 45.0492C206.853 44.3698 204.144 44.3699 201.435 45.8862C203.692 43.6117 206.287 42.7019 208.851 41.9983C209.706 41.7617 210.555 41.5555 211.392 41.3189C212.668 39.4265 214.221 37.7828 215.888 36.2361C216.719 35.4597 217.58 34.7137 218.447 33.9737C220.698 32.5423 222.504 31.3292 223.534 29.4489C224.334 28.6604 225.099 27.8355 225.803 26.9682C227.212 25.2274 228.374 23.2986 229.126 21.024C228.295 21.9339 227.459 22.874 226.61 23.8263C223.106 27.696 219.494 31.3353 215.672 35.0716C214.684 35.9207 213.673 36.7274 212.632 37.4795C210.561 38.9838 208.382 40.2696 206.088 41.228C205.3 41.513 204.523 41.8406 203.783 42.2166C201.549 43.3448 199.569 44.9157 198.106 47.1417C197.522 48.0334 197.022 49.0281 196.619 50.1381C195.716 51.0479 194.211 51.3511 192.778 51.8061C191.346 52.261 189.991 52.8675 189.389 54.396C189.997 53.1708 189.997 51.9577 190.599 50.7385C191.051 49.5315 191.201 48.3184 189.997 47.1054C184.579 42.8596 176.753 42.8596 171.938 47.7119C173.545 43.6663 177.018 42.3197 180.642 40.7124C181.545 40.3121 182.46 39.8936 183.357 39.4083C188.793 33.1549 196.619 30.1222 198.425 21.024C194.813 27.696 188.191 31.3353 184.435 37.4067C183.141 37.9223 181.973 38.4925 180.889 39.1172C175.471 42.253 172.094 46.8081 166.845 51.3754C166.333 51.4725 165.809 51.6726 165.286 51.9395C163.979 52.6067 162.781 53.6985 161.535 54.675C160.5 56.2035 159.296 56.81 157.49 56.81C158.092 56.2035 158.694 54.9904 159.332 54.6871C160.41 53.5408 161.565 52.2488 162.173 51.0175C162.781 49.7863 162.836 48.6217 161.71 47.7119C156.894 43.4661 148.466 44.0726 144.252 50.1381C144.854 44.0726 151.476 41.6465 156.304 39.1839C156.87 38.6198 157.502 37.7282 158.14 36.8305C159.32 34.6894 160.668 32.8577 162.24 31.2625C163.028 30.4618 163.871 29.7219 164.798 29.0304C167.73 27.696 170.138 25.2698 171.342 22.2371C169.536 24.6633 165.924 26.4829 163.865 28.6907C163.07 29.3761 162.282 30.0737 161.511 30.7954C159.976 32.2451 158.507 33.81 157.207 35.6599C156.563 36.3999 155.895 37.0913 155.178 37.7282C153.74 39.002 152.084 40.0391 150.08 40.7185C149.291 41.3978 148.563 42.1499 147.864 42.9505C145.775 45.3524 143.981 48.1425 141.905 50.3928C141.369 50.3382 140.55 50.2533 139.659 50.1927C136.33 49.6953 132.785 50.599 130.461 52.8675C129.684 53.6257 129.046 54.5355 128.595 55.5969C127.993 54.8388 127.878 54.0442 128.005 53.2375C128.372 50.8235 130.852 48.3184 128.595 46.4988C124.381 42.8596 118.361 42.253 114.147 45.8923C115.953 42.8596 120.167 43.4661 122.84 41.9194C123.893 41.7314 124.935 41.5616 125.922 41.3311C126.253 41.2037 126.416 41.2765 127 40.579C129.299 37.4735 131.659 34.2527 134.115 31.123C134.729 30.3405 135.355 29.5642 135.993 28.7999C138.227 27.0895 139.43 23.4502 143.042 22.2371C138.227 22.8437 135.819 26.4829 133.513 29.3215C132.899 30.1828 132.291 31.0684 131.683 31.9539C129.853 34.5985 127.987 37.1945 125.814 38.8867C125.194 39.4508 124.616 39.936 124.092 40.1847C123.075 40.0634 122.117 40.0816 121.22 40.215C120.324 40.3485 119.469 40.6032 118.668 40.955C109.939 45.2857 108.133 58.0231 98.5016 60.4493C103.919 58.0231 108.735 51.9577 105.087 45.7588C104.479 44.849 103.697 44.109 102.806 43.5328C99.236 41.2401 93.8904 41.6465 90.6758 45.2857C92.4818 41.6465 96.6957 41.0399 99.2721 38.8018C100.145 38.2256 100.97 37.6069 101.746 36.9397C105.629 33.6341 108.356 29.1335 108.735 23.4502C106.099 27.6232 103.703 32.7364 100.235 36.4363C99.537 37.1763 98.8026 37.8677 98.002 38.4803C92.4818 42.253 85.8599 41.6465 79.804 43.8786C79.2682 44.1151 78.7445 44.3759 78.2388 44.6731C75.6262 46.4927 74.4223 48.9189 73.2183 51.9516H70.8104C71.4123 51.3451 72.6163 50.7385 72.6163 50.7385C72.0143 47.7058 69.0044 47.0993 66.2413 47.8453C65.5851 47.9424 64.9169 48.0637 64.2728 48.1547C63.6227 48.2457 62.9906 48.3124 62.3886 48.3124C62.9906 45.2797 65.3985 44.0666 67.8366 42.1924C68.4084 41.7557 68.9863 41.3189 69.5402 40.864C71.2077 39.4933 72.7066 37.9284 73.4832 35.7024C73.8323 35.2111 74.1754 34.7258 74.5186 34.2406C76.8302 30.1161 79.8401 26.4769 83.452 23.4442C78.6361 24.6572 77.4322 29.5096 73.9647 32.5362C73.6337 32.9911 73.3086 33.4521 72.9835 33.9131C71.7193 36.1269 69.9074 37.9405 68.0834 39.7237C67.4754 40.3181 66.8613 40.9065 66.2654 41.513C64.1885 44.6792 61.1786 47.1054 61.1786 50.7446C61.1786 48.925 60.5766 47.1054 59.2763 45.3342C58.6924 44.7459 58.0062 44.2667 57.2477 43.9089C54.9722 42.8353 52.0766 42.811 49.6025 43.9695C48.8199 44.0666 48.0493 44.2061 47.3029 44.4123C43.5706 45.4434 40.4102 48.3245 38.9052 53.1768C40.1092 48.931 40.7112 44.0787 44.925 41.6525C39.5072 43.4722 36.4973 48.931 32.9697 53.0313C32.482 53.6621 31.9764 54.2747 31.4346 54.8509C30.8928 55.4271 30.3209 55.9609 29.6949 56.4461C29.1531 56.9435 28.6173 57.453 28.0936 57.9746C27.4314 58.6357 26.7873 59.309 26.1672 60.0065C23.049 63.4881 20.4303 67.4306 18.805 71.9918C18.4618 72.7863 18.1428 73.593 17.8418 74.3997C18.3414 73.7447 18.8471 73.0836 19.3468 72.4224C21.243 70.2874 23.2717 68.1342 25.4509 66.1629C26.1733 65.5078 26.9197 64.871 27.6782 64.2584C28.3825 63.7549 29.117 63.3243 29.8755 62.9543C30.634 62.5843 31.4165 62.2689 32.2172 61.996C34.1315 61.2681 36.0879 60.6919 38.0323 60.1339C38.6825 59.9458 39.3266 59.7639 39.9767 59.5819C42.5111 59.679 45.0334 58.199 47.5015 56.7008C48.3263 56.2035 49.145 55.7001 49.9576 55.2512C50.8907 54.7538 52.0465 54.1594 53.2445 53.7349C53.8404 53.5226 54.4484 53.3588 55.0444 53.2678C57.5787 52.5521 58.1807 54.3717 59.3847 55.5848C59.6857 53.1586 61.0402 51.6423 62.8461 50.8841C63.4481 50.6354 64.1042 50.4656 64.7845 50.3867C66.0065 50.1259 67.8125 50.1259 69.0164 50.7325C67.2105 53.1586 64.2006 54.3717 62.4187 56.7494C61.895 57.2589 61.3712 57.7684 60.8475 58.2718C59.2763 59.7821 57.6751 61.2014 55.9293 62.3902C55.2551 63.021 54.5869 63.6518 53.9187 64.2887C51.9141 66.1993 49.9275 68.1463 47.941 70.1479C47.5437 70.5543 47.1404 70.9546 46.737 71.361C47.038 70.9061 47.4895 70.6028 48.0132 70.3541C48.5369 70.1054 49.1269 69.9113 49.7048 69.6808C51.5228 68.583 53.2204 66.8908 54.918 65.0287C55.4838 64.41 56.0497 63.7731 56.6216 63.1302C57.1995 62.3781 57.8075 61.6806 58.4456 61.0376C59.0837 60.4008 59.7519 59.8185 60.4382 59.2968C61.2809 58.6782 62.1478 58.199 63.0207 57.829C63.8936 57.459 64.7845 57.2043 65.6814 57.0466C67.4152 56.2277 69.5462 56.3673 71.8096 56.8889C72.9414 57.1497 74.1092 57.5076 75.2771 57.8897C79.2441 59.218 86.4679 62.2507 88.8759 56.1853C89.4779 58.0049 90.6818 59.218 91.2838 61.0376C90.6818 60.4311 90.6818 59.8245 89.9474 58.9814C89.6645 58.1384 89.5501 57.2043 89.6284 56.4097C89.7789 54.8206 90.6818 53.7531 92.4878 54.9661C93.3908 55.5727 93.8784 56.3672 94.0469 57.2225C94.2155 58.0777 94.065 58.9875 93.6918 59.8185C88.2739 64.0643 81.6521 65.8839 76.2342 70.1297C82.7537 69.6263 87.1843 64.4828 92.5841 62.0869C93.6617 61.6078 94.7813 61.2378 95.9673 61.0376C96.8943 60.9345 97.7973 60.7647 98.6822 60.5645C102.722 60.4311 106.935 58.0049 109.945 54.9722C111.149 56.1853 111.751 58.0049 112.353 59.218C111.751 58.0049 112.353 56.7918 113.557 56.1853C118.975 55.5787 126.199 57.3984 128.607 51.3329C128.607 52.3944 128.607 53.4922 128.535 54.5719C128.462 55.6637 128.306 56.7312 127.993 57.7562C127.403 59.218 126.801 60.4311 125.597 61.0376C117.771 65.2834 106.935 64.6769 102.722 74.3815C105.129 71.9554 106.935 69.5292 109.945 68.3161C116.567 65.89 122.587 62.8572 127.782 58.7388C128.848 57.9988 129.919 57.2892 131.015 56.6281C132.11 55.9669 133.23 55.3604 134.398 54.8327C135.211 54.4263 136.041 54.0503 136.902 53.7106C137.763 53.3709 138.648 53.0737 139.575 52.8129C140.358 52.7098 141.134 52.6188 141.706 52.5582C143.656 51.9334 143.656 53.7531 144.258 54.9601C144.258 54.3596 144.258 53.1465 143.656 52.54C144.457 52.8432 145.246 53.0434 146.022 53.1708C149.676 53.7531 153.89 52.54 157.502 52.54C154.492 54.3596 149.676 55.5727 147.268 57.3923C141.85 61.0316 137.035 66.4904 131.761 70.4633C130.816 71.1729 129.877 71.9008 128.95 72.6529C128.023 73.405 127.102 74.1814 126.199 74.9881C127.957 74.7333 129.552 74.1147 131.057 73.2534C131.809 72.8227 132.538 72.3314 133.248 71.7916C139.443 63.4699 148.472 58.6175 158.706 57.4044C161.114 56.7979 162.92 55.5848 164.702 53.5468C164.991 53.3588 165.207 53.1708 165.442 52.9706C166.165 52.8675 166.863 52.7098 167.513 52.5946C168.127 52.4854 168.669 52.4187 169.048 52.5036C170.752 53.1586 170.752 54.3717 170.752 55.5848C170.752 54.3717 171.354 53.1586 171.956 52.5521C173.96 52.3519 176.103 52.5521 178.24 52.7523C179.312 52.8554 180.383 52.9524 181.437 53.0009C183.02 53.0798 184.561 53.1162 186.006 52.8311C187.451 52.546 188.811 51.9395 190.015 50.7264C187.607 58.6115 178.577 59.8245 171.938 61.0376C170.938 61.3409 169.969 61.6927 169.024 62.093C164.31 64.0764 160.211 67.1091 155.696 70.1418C160.512 69.3351 164.256 66.636 168.121 64.3857C169.084 63.8217 170.059 63.2879 171.059 62.8148C180.979 63.4699 189.407 48.3063 198.437 56.7979C198.437 55.5848 198.437 54.9783 198.437 53.7652C199.942 54.0685 201.447 54.2201 203 54.2868C208.069 54.3717 212.885 54.3717 217.098 51.9456C217.7 61.6502 207.467 61.0437 200.562 61.6563C199.478 61.9232 198.413 62.2325 197.396 62.6025C193.326 64.0764 190.015 66.5026 189.413 71.3549C191.52 68.0189 194.38 65.7444 197.624 64.0339C198.708 63.4638 199.828 62.9604 200.983 62.4994C208.075 60.4311 215.299 60.4311 222.522 55.5787C225.532 53.1526 227.338 58.6115 229.746 61.0376V58.6115C230.95 58.9147 232.226 59.2908 233.551 59.6365C234.875 59.9822 236.229 60.2916 237.596 60.4553C238.595 60.5524 239.558 60.5524 240.504 60.4735C241.449 60.3947 242.364 60.243 243.267 60.0368C244.121 59.6972 245.073 59.4667 246.066 59.2908C247.065 59.1149 248.107 58.9936 249.16 58.8783C253.223 58.011 262.253 58.011 261.049 51.9456C261.049 50.7325 258.641 50.1259 256.54 49.8954C254.259 48.6642 252.652 47.4147 252.652 47.4147V47.4086Z" stroke="currentColor"/>
</g>
<defs>
<clipPath id="clip0_675_3264">
<rect width="278.1" height="96.1" fill="white"/>
</clipPath>
</defs>
</svg>
