<svg width="279" height="97" viewBox="0 0 279 97" fill="none" xmlns="http://www.w3.org/2000/svg">
<path d="M98.9254 64.8763C96.7292 64.8763 94.5437 64.7366 92.4226 64.4586C87.5954 63.8059 80.1467 60.3678 79.8315 60.2216C79.4102 60.0258 79.107 59.8848 79.2425 59.5676C79.2586 59.5285 79.2787 59.4958 79.3015 59.4697L67.4738 54.7641C67.4738 54.802 67.4657 54.8412 67.451 54.8842C67.3275 55.2236 66.9036 55.1205 66.5628 55.0369C66.4944 55.02 59.6092 53.3466 55.6044 52.4733C53.4377 52.07 51.4454 51.7463 49.5242 51.4865C47.3696 51.1941 45.3571 50.9879 43.3742 50.8548C40.5743 50.642 37.8119 50.4997 35.1608 50.4319C29.7487 50.2935 19.9696 50.9331 19.8704 50.9396C19.6436 50.954 19.1097 50.9892 19.0077 50.6068C18.9057 50.2243 19.3874 50.0024 19.594 49.9071L20.7827 49.3315C19.814 49.2479 18.0538 48.8825 17.9398 47.32C17.7814 44.079 22.1296 43.3584 23.9864 43.0504C27.8946 42.4982 34.4296 42.1654 36.214 42.0806C36.2113 42.074 36.21 42.0675 36.2073 42.0623C36.0168 41.6367 36.002 41.2177 36.163 40.8196C36.4662 40.0665 37.3289 39.5757 37.9983 39.2963L38.0238 39.2872C38.0869 39.2663 38.1513 39.2467 38.217 39.2285C38.2143 39.2141 38.213 39.1998 38.2117 39.1841C38.1889 38.8251 38.6209 38.7586 38.9683 38.705C38.9818 38.7024 40.3797 38.4884 41.5805 38.3591H41.6086C44.1081 38.2965 46.6411 38.4362 49.0909 38.5719L49.6839 38.6045C51.0416 38.6776 52.8031 38.6868 54.1998 38.6789L53.8684 38.6202C53.4458 38.5706 53.0835 38.5262 53.105 38.1816C53.1265 37.8344 53.4968 37.8344 53.9261 37.8344C54.1595 37.8344 59.6642 37.8449 63.1591 38.7703C64.2405 38.9531 65.2225 39.3355 66.2636 39.7401C66.6621 39.8955 67.074 40.056 67.4912 40.2022L67.5073 40.2088C76.2533 43.8192 93.0585 49.9241 93.2262 49.9854C93.3993 50.0481 93.9265 50.24 93.8769 50.6524C93.8272 51.0649 93.2691 51.1328 93.0853 51.155L92.169 51.2777C94.0433 51.48 97.1853 51.6941 99.3279 51.1889C101.479 50.6707 104.387 49.355 106.169 48.4909L105.203 48.5783C104.889 48.6018 104.421 48.6371 104.343 48.2729C104.265 47.9087 104.71 47.7612 105.004 47.6646C105.041 47.6529 108.621 46.4677 110.954 45.7119C112.975 45.054 114.994 44.3935 117.016 43.7304C127.124 40.3693 146.326 34.4667 146.518 34.4067C146.675 34.3584 146.792 34.3232 146.871 34.301C147.299 34.1783 147.377 34.4067 147.402 34.4824C147.506 34.7865 147.19 34.8988 147.087 34.9353C147.013 34.9615 146.903 34.9993 146.757 35.0489L145.551 35.6089L150.12 34.8766L151.336 34.5725C151.474 34.532 151.612 34.4981 151.75 34.4694L151.784 34.6103L156.779 33.8089L156.759 33.6483C156.916 33.6235 157.085 33.6131 157.262 33.6105L158.666 33.506L160.765 33.1693L160.302 33.134C160.145 33.134 160.026 33.134 159.946 33.1314C159.5 33.1236 159.497 32.8821 159.496 32.8038C159.492 32.4827 159.828 32.4696 159.938 32.4657C160.02 32.4631 160.144 32.4592 160.307 32.4553C160.496 32.4514 164.979 32.3574 167.806 33.0126C170.255 33.6079 172.593 34.3597 174.558 35.0163C175.242 35.2447 175.924 35.4757 176.604 35.7068C178.093 36.2132 179.632 36.7354 181.145 37.2053C185.455 38.6045 193.342 39.2937 193.421 39.3003C193.751 39.329 194.203 39.3668 194.21 39.7323C194.217 40.0247 193.93 40.12 193.647 40.167L205.761 40.8249L205.639 40.7896C205.411 40.7165 204.905 40.552 204.959 40.1605C205.014 39.7689 205.547 39.7415 205.775 39.7297C205.833 39.7271 207.21 39.6605 208.578 39.9255C210.381 40.2244 212.29 40.5625 214.403 40.9593C217.447 41.4592 220.531 42.0009 223.514 42.5257C230.702 43.7892 238.136 45.0971 245.711 45.926C248.404 46.1883 252.183 47.5706 252.343 47.6294C252.91 47.8382 253.012 48.1189 252.997 48.3173C252.982 48.5157 252.842 48.7793 252.251 48.9099L252.211 48.9164L250.283 49.107C250.804 49.2597 251.952 49.6043 252.936 49.9646C253.51 50.1904 254.152 50.3979 254.833 50.6185C257.753 51.5649 261.388 52.7409 261.034 56.072C260.962 56.6633 260.685 57.1215 260.21 57.4348C259.208 58.0966 257.358 58.0848 254.711 57.3982C249.567 56.1974 241.439 53.7891 237.993 52.7501C237.901 53.0385 237.759 53.2878 237.569 53.4967C238.006 53.5541 238.243 53.6089 238.211 53.9157C238.178 54.2485 237.893 54.2303 237.378 54.1937L236.27 54.182C235.6 54.3203 234.834 54.2747 234.125 54.1598L220.06 54.0123L220.718 54.2146C221.166 54.2929 221.487 54.353 221.442 54.6897C221.398 55.0304 221.061 55.0043 220.597 54.9691C220.541 54.9652 214.893 54.5357 211.588 54.4104L211.191 54.3947C207.852 54.2668 204.398 54.135 200.972 53.8831C195.513 53.4745 186.977 50.7412 183.52 49.5704L181.965 49.0704C181.812 49.0091 181.698 48.9634 181.623 48.9308C181.216 48.7585 181.306 48.5339 181.336 48.4608C181.431 48.2233 181.652 48.2429 181.791 48.2794C180.391 47.5811 178.662 46.7692 177.233 46.2471C175.419 45.5043 172.774 44.6389 171.109 44.1142L171.453 44.3583C171.771 44.5371 172.122 44.7407 171.967 45.0592C171.812 45.3817 171.417 45.2394 171.068 45.1141C171.034 45.101 167.514 43.8401 165.24 43.5438C153.795 42.0466 132.902 52.8088 132.693 52.9171C132.233 53.156 131.979 53.2878 131.806 52.9955C131.684 52.7866 131.772 52.6535 131.995 52.4968C128.338 54.165 123.415 56.4362 120.099 58.0718C119.484 58.3863 118.781 58.7466 118.109 59.0912L118.206 59.0612C118.508 58.9698 118.959 58.8354 119.111 59.1721C119.264 59.5089 118.858 59.7412 118.59 59.894C118.376 60.0154 113.336 62.8805 109.801 63.6349C106.287 64.3946 102.623 64.6622 99.1709 64.8711H99.1521C99.073 64.8711 98.9938 64.8711 98.9147 64.8711L98.9254 64.8763ZM83.6041 61.1157C86.235 62.1665 89.8359 63.4496 92.5138 63.8112C94.6752 64.0931 96.9103 64.2302 99.1495 64.2223C102.572 64.0161 106.202 63.7511 109.666 63.0019C111.805 62.5463 114.594 61.2463 116.407 60.3234L115.409 60.6393C115.011 60.7881 114.669 60.9134 114.523 60.5988C114.376 60.2829 114.703 60.1146 115.083 59.9188C115.083 59.9188 117.872 58.4829 119.801 57.4961C125.66 54.6075 136.499 49.7466 136.609 49.697C136.999 49.5221 137.336 49.3706 137.504 49.6774C137.547 49.7557 137.559 49.8275 137.545 49.8928C139.487 49.0234 141.851 48.021 144.416 47.0511C146.303 46.3371 148.105 45.7119 149.818 45.1754L145.185 46.1178L144.751 46.3332C144.51 46.4572 144.236 46.5956 144.075 46.3097C143.917 46.0304 144.204 45.8607 144.326 45.7889C144.416 45.7354 144.55 45.6597 144.726 45.5605L144.773 45.5344L144.96 45.4965L145.634 45.1611C150.833 42.5635 160.926 41.9226 163.071 41.8143L163.441 41.7386H163.478C164.018 41.7438 164.289 41.7464 164.295 42.0806C164.3 42.416 164.029 42.4265 163.49 42.4473C163.479 42.4473 163.361 42.4526 163.152 42.4643L161.59 42.7815C162.954 42.711 164.205 42.7515 165.341 42.899C166.744 43.083 168.552 43.6012 169.81 44.0006L169.44 43.7396C169.063 43.5738 168.746 43.425 168.868 43.1078C168.994 42.7815 169.348 42.8885 169.758 43.0112C169.791 43.0217 172.029 43.6939 174.35 44.4875L171.306 43.0426L172.372 42.8872C173.227 42.7619 173.808 43.224 174.276 43.596C174.483 43.7592 174.677 43.9145 174.875 44.0111L174.59 44.5711C175.615 44.9248 176.642 45.2981 177.488 45.644C177.856 45.7785 178.243 45.9312 178.641 46.097L178.815 45.6988L179.042 45.785C179.313 45.8698 179.627 45.9142 179.933 45.9573C180.637 46.0565 181.435 46.1687 181.481 46.9128L181.512 47.4088C183.277 48.2703 184.695 49.0469 184.719 49.0613C184.925 49.1735 185.147 49.2962 185.244 49.4542C186.611 49.9006 188.34 50.4436 190.213 50.9788C190.348 50.7765 190.7 50.7856 190.994 50.7934C191.056 50.7947 197.194 50.9566 200.791 51.2307C204.401 51.5061 210.292 52.7161 210.352 52.7279C210.79 52.8179 211.136 52.8897 211.082 53.2317C211.029 53.5737 210.677 53.5411 210.23 53.4993C210.189 53.4954 205.981 53.1025 203.267 52.9746C200.877 52.861 198.423 52.7448 196.027 52.4538C197.816 52.8375 199.543 53.126 201.034 53.2369C204.448 53.4876 207.895 53.6194 211.229 53.7473L211.626 53.763C213.571 53.8361 216.323 54.0149 218.277 54.1506L217.766 53.994L217.34 53.9901C216.924 54.0018 216.553 54.011 216.521 53.6638C216.489 53.3166 216.854 53.2604 217.278 53.1965L217.356 53.1847L217.875 53.344L231.687 53.4876C231.431 53.3831 231.048 53.1991 231.13 52.8584C231.22 52.4864 231.72 52.5229 231.989 52.5438L232.022 52.5477L236.703 53.357C236.717 53.3505 236.73 53.3427 236.742 53.3348C237.048 53.1599 237.253 52.9054 237.363 52.5621C236.752 52.3767 236.393 52.2671 236.373 52.2606C236.116 52.1823 235.638 52.0348 235.697 51.6575C235.757 51.2803 236.259 51.2803 236.529 51.2803C237.072 51.2803 237.963 51.4578 238.09 52.0987C241.463 53.1155 249.698 55.5591 254.888 56.7717C257.277 57.3917 259.035 57.4374 259.845 56.9009C260.156 56.6947 260.331 56.4023 260.379 56.0068C260.677 53.2004 257.466 52.1614 254.633 51.2437C253.942 51.0205 253.29 50.8091 252.703 50.578C251.422 50.1081 249.842 49.6617 249.826 49.6578C249.647 49.6082 249.107 49.4555 249.127 49.043C249.147 48.6305 249.702 48.5313 249.885 48.4974L249.912 48.4935L252.133 48.2729C252.145 48.2703 252.157 48.2677 252.169 48.2638C252.153 48.2572 252.136 48.2507 252.117 48.2429C252.078 48.2285 248.26 46.8318 245.653 46.5773C238.052 45.7458 230.607 44.4366 223.408 43.1705C220.427 42.6457 217.345 42.104 214.297 41.6041C212.18 41.2073 210.276 40.8705 208.467 40.5703C207.789 40.4385 207.095 40.3928 206.589 40.3811L208.462 40.9175C208.961 40.8823 209.212 40.8758 209.244 41.1969C209.278 41.5297 209.008 41.561 208.472 41.6237L208.442 41.6276L191.684 40.7165L191 40.9149L190.904 40.8875C190.568 40.7909 190.149 40.6695 190.219 40.3145C190.289 39.9594 190.725 39.9986 191.073 40.0299L191.605 40.0586L192.317 39.8524C189.997 39.6148 184.423 38.957 180.948 37.8292C179.431 37.3593 177.887 36.8346 176.393 36.3268C175.714 36.0958 175.033 35.8647 174.351 35.6363C174.009 35.5214 173.655 35.4039 173.292 35.2852C173.738 35.4575 174.174 35.6245 174.573 35.7773C176.625 36.5644 178.814 37.405 181.014 38.2847C183.708 39.0053 184.654 39.1971 184.667 39.1998C185.197 39.3055 185.463 39.3577 185.401 39.6879C185.341 40.0169 185.072 39.9764 184.538 39.8968C184.329 39.8655 179.362 39.1084 176.439 37.9597C175.759 37.6895 174.983 37.3528 174.197 36.9951C174.204 37.0421 174.197 37.0943 174.177 37.153C174.064 37.4676 173.8 37.4037 173.161 37.2496L173.102 37.2353C172.542 37.1008 172.214 36.9325 172.13 36.7367C172.071 36.6022 172.103 36.4495 172.21 36.3477C172.297 36.2654 172.425 36.2328 172.566 36.2341C170.598 35.2969 168.916 34.4315 168.888 34.4171C168.523 34.2292 168.23 34.0778 168.302 33.8102C168.089 33.7554 167.874 33.7018 167.659 33.6496C166.363 33.3494 164.665 33.2123 163.229 33.151C163.182 33.4591 162.758 33.5204 162.471 33.5622L159.889 33.9759C159.675 34.391 158.943 34.3467 158.173 34.2984C158.1 34.2944 158.029 34.2892 157.957 34.2853L150.908 35.4157C150.725 35.4849 150.547 35.558 150.375 35.6272C149.495 35.9848 148.736 36.2942 148.268 35.8595L148.247 35.8412L143.387 36.6205L143.238 36.6897L143.196 36.6975C143.034 36.7275 142.912 36.7497 142.829 36.7628C142.394 36.8319 142.343 36.5983 142.326 36.5213C142.315 36.473 142.313 36.4299 142.32 36.3921C140.498 36.9559 138.234 37.6608 135.762 38.4322C135.856 38.4531 135.933 38.5093 135.984 38.6202C136.13 38.9374 135.8 39.1045 135.42 39.2963L135.376 39.3146L115.038 46.2693L115.026 46.2719C114.558 46.3933 114.248 46.4742 114.143 46.1492C114.039 45.8241 114.341 45.7184 114.798 45.5592C114.896 45.5252 124.628 42.1367 130.13 40.3536C131.737 39.7845 132.94 39.3538 133.757 39.0601C128.11 40.8301 121.765 42.8441 117.243 44.3479C115.219 45.0109 113.199 45.6727 111.177 46.3306C109.803 46.7757 107.995 47.3696 106.735 47.786L107.773 47.692C107.773 47.692 107.784 47.6868 107.785 47.6855C107.93 47.6085 108.039 47.5524 108.113 47.5158C108.507 47.3187 108.629 47.5276 108.668 47.5954C108.829 47.8735 108.545 48.0432 108.451 48.0993C108.381 48.1411 108.275 48.2024 108.133 48.2833L108.069 48.3199L107.972 48.329C107.123 48.7715 102.624 51.0701 99.4983 51.8233C96.1483 52.613 90.7214 51.758 90.492 51.7202C90.1646 51.668 89.7152 51.5962 89.738 51.2333C89.7608 50.877 90.2008 50.8535 90.5309 50.8391L92.8264 50.5324C91.0031 49.868 75.5423 44.2291 67.2631 40.8118C66.8392 40.6617 66.4246 40.5011 66.0248 40.3445C65.0132 39.9503 64.0567 39.5783 63.0397 39.4086L63.0075 39.4021C61.3023 38.9478 59.0457 38.7194 57.209 38.6032C57.3177 38.6711 57.3861 38.7703 57.3754 38.9191C57.3512 39.2781 56.9125 39.2885 56.561 39.2963C56.5194 39.2963 52.3228 39.3969 49.6544 39.2533L49.0614 39.2206C47.0999 39.1123 45.0834 39.0014 43.0831 38.9935C43.5312 39.0523 43.8518 39.0992 43.8237 39.436C43.7941 39.7793 43.4574 39.7676 42.9919 39.7532L39.7746 39.6005C39.2528 39.654 38.7295 39.748 38.2573 39.8994C37.8038 40.09 37.023 40.4894 36.7949 41.0559C36.6983 41.2948 36.7117 41.5415 36.8352 41.8104L36.8472 41.8404C36.8714 41.9109 36.8915 41.967 36.9076 42.0101C36.9733 42.0101 37.027 42.0114 37.0699 42.0127C37.5086 42.0257 37.514 42.2646 37.5154 42.3429C37.5221 42.6588 37.1934 42.6836 37.0847 42.6914C37.0015 42.698 36.8767 42.7045 36.7117 42.711C36.6312 42.7149 28.5909 43.0595 24.0978 43.6939C21.4897 44.126 18.5019 44.9261 18.6159 47.2796C18.7246 48.7637 21.3636 48.701 21.3904 48.6997C21.6587 48.6906 22.1618 48.6749 22.2343 49.0495C22.3054 49.415 21.856 49.5782 21.5984 49.6669L20.3936 50.2504C22.5616 50.1173 30.4947 49.6565 35.185 49.7779C37.8481 49.8458 40.6212 49.9894 43.4292 50.2021C45.4256 50.3353 47.4514 50.5428 49.6222 50.8378C51.5554 51.1002 53.5585 51.4252 55.7453 51.8324C58.4916 52.4316 62.5769 53.4027 64.914 53.964L63.4985 53.2422C63.0089 53.0477 62.7633 52.9472 62.8841 52.6365C63.0062 52.3232 63.2611 52.4094 63.7709 52.583L63.787 52.5895L83.1345 60.2869L83.1506 60.296C83.4927 60.4787 83.8469 60.668 83.6967 60.9904C83.6725 61.0426 83.6417 61.0831 83.6054 61.1144L83.6041 61.1157ZM194.334 51.5544C194.58 51.5923 194.843 51.6327 195.122 51.6745C197.799 52.0622 200.588 52.194 203.286 52.3219C203.817 52.3467 204.404 52.382 205.005 52.4224C203.534 52.1888 201.993 51.9773 200.736 51.882C198.884 51.7411 196.354 51.6301 194.332 51.5557L194.334 51.5544ZM157.345 42.9786C154.404 43.3362 150.925 43.9197 148.14 44.8504L157.345 42.9786ZM175.092 36.6779C175.651 36.9259 176.193 37.157 176.684 37.3515C177.092 37.512 177.544 37.6647 178.022 37.8096C177.028 37.4232 176.047 37.0447 175.092 36.6779ZM97.4563 63.9221C96.4018 63.9221 95.4063 63.866 94.4417 63.755C91.4056 63.3752 90.2169 63.1389 90.1673 63.1285C89.8426 63.0632 89.3972 62.9732 89.4348 62.6116C89.4723 62.25 89.9272 62.25 90.2599 62.25C90.2921 62.25 92.1261 62.2474 94.3102 62.2304C94.0996 62.1678 94.062 62.0882 94.0285 62.0138C93.9721 61.8924 93.9923 61.754 94.0808 61.6509C94.1975 61.5151 94.3357 61.4838 95.0843 61.5178C95.4788 61.536 95.9162 61.57 96.1724 61.6039C96.4354 61.6391 96.7949 61.6861 96.7681 62.0203C96.7614 62.0986 96.7386 62.1587 96.701 62.2056C97.5757 62.1939 98.425 62.1795 99.1642 62.1613C102.481 62.0673 108.093 61.7579 108.149 61.754C108.539 61.7318 108.943 61.7096 108.99 62.0595C109.037 62.4093 108.641 62.4889 108.259 62.5672C108.22 62.575 104.411 63.3439 101.955 63.6336C100.313 63.8268 98.8355 63.9221 97.4563 63.9221ZM92.8868 62.8922C93.359 62.9575 93.9024 63.0293 94.5236 63.1063C96.6943 63.3569 99.0314 63.3191 101.874 62.9849C102.667 62.8909 103.604 62.7473 104.508 62.5946C102.761 62.6795 100.726 62.7695 99.183 62.8126C97.3289 62.8583 94.7852 62.8805 92.8881 62.8909L92.8868 62.8922ZM101.644 61.9629L101.461 61.335C101.477 61.3298 101.495 61.3259 101.511 61.322C102.415 61.0779 103.239 60.7633 103.959 60.3887L104.293 60.2151L104.43 60.5597C104.558 60.8821 104.481 61.1118 104.394 61.2489C104.113 61.6901 103.381 61.7566 102.604 61.8284C102.271 61.8584 101.928 61.8911 101.686 61.9524C101.672 61.9563 101.657 61.9603 101.642 61.9642L101.644 61.9629ZM89.6588 61.117C86.0338 61.117 83.1788 58.8993 81.3663 56.944L81.2361 56.8278C80.9141 56.6072 80.4151 55.8071 80.3131 55.64L79.7214 54.7485C79.28 54.3895 79.2948 54.071 79.3458 53.9092C79.3981 53.7421 79.5765 53.4549 80.1964 53.4079C80.7209 53.3675 93.0437 52.4994 93.7414 58.7479C93.9319 60.2333 91.4338 60.8925 90.6637 61.0596L90.6275 61.0648C90.3001 61.1001 89.9768 61.117 89.6602 61.117H89.6588ZM81.6064 56.2848L81.6332 56.2979L81.8533 56.4963C83.5706 58.3524 86.2712 60.4644 89.6642 60.4644C89.9486 60.4644 90.2384 60.45 90.5336 60.4187C91.8658 60.1276 93.1631 59.5233 93.0733 58.8236C92.444 53.1939 80.3681 54.0501 80.2474 54.0593C80.1293 54.0684 80.0542 54.0893 80.0112 54.1063C80.0367 54.1428 80.0877 54.2016 80.1803 54.272L80.2245 54.306L80.8819 55.2967C81.2133 55.8384 81.5165 56.2117 81.6064 56.2861V56.2848ZM81.5903 56.277H81.593C81.593 56.277 81.5917 56.277 81.5903 56.277ZM110.565 59.086C108.199 59.086 105.565 57.3082 105.443 57.2246C104.972 56.9035 104.615 56.7299 104.497 56.6947C104.374 56.7077 104.253 56.6607 104.172 56.5668C104.049 56.4206 103.983 56.1699 104.426 55.4103C104.541 55.2119 107.292 50.5493 110.445 49.2153C112.156 48.5431 114.869 48.081 116.911 48.983C117.955 49.4437 118.671 50.1969 119.042 51.2216C119.519 52.2788 118.808 53.22 118.779 53.2591C118.406 53.7421 117.971 54.3765 117.829 54.6427L117.676 54.9064C116.242 56.9884 113.8 58.5652 111.305 59.022C111.063 59.0664 110.815 59.086 110.564 59.086H110.565ZM104.814 56.1151C105.032 56.1987 105.353 56.3657 105.828 56.6908C105.859 56.7116 108.941 58.7897 111.181 58.3798C113.501 57.9556 115.772 56.4897 117.111 54.5527L117.237 54.3321C117.394 54.0371 117.837 53.3897 118.241 52.8649C118.261 52.8388 118.748 52.1796 118.423 51.4735L118.412 51.4474C118.107 50.5911 117.508 49.9619 116.633 49.5756C114.903 48.812 112.409 49.1461 110.704 49.8158C107.765 51.0597 105.037 55.6844 105.008 55.7314C104.913 55.8945 104.851 56.0211 104.812 56.1151H104.814ZM79.3699 58.1383L75.8656 56.5511C75.769 56.5119 75.6738 56.4689 75.5812 56.4219L75.8777 55.8371L76.142 55.9572C76.4908 56.0982 76.8785 56.1961 77.2569 56.2913C78.137 56.5132 78.9688 56.7234 79.1781 57.4583L79.3713 58.1396L79.3699 58.1383ZM119.012 57.4713L119.141 56.8644C119.342 55.9193 120.217 55.8005 121.062 55.6844C121.458 55.6309 121.866 55.5747 122.244 55.4416L122.499 55.3372L122.774 55.9324C122.68 55.9755 122.586 56.0146 122.491 56.0486L119.011 57.47L119.012 57.4713ZM95.1085 54.1872C94.8187 54.1872 94.4793 54.0919 94.0701 53.8309L93.3376 53.3636L96.4541 52.9041C96.595 52.8623 96.748 52.8362 96.9197 52.8401L96.964 53.4889L96.6071 53.5411C96.4474 53.5959 96.3012 53.6912 96.1415 53.7956C95.8611 53.9783 95.5392 54.1872 95.1085 54.1872ZM70.5622 54.1415C70.5622 54.1415 70.5555 54.1376 70.5528 54.1363L67.1102 52.6261L67.4241 52.2932C68.0882 51.5897 69.0515 52.3063 69.8256 52.8832C70.1745 53.143 70.534 53.4118 70.8319 53.5424L70.8372 53.545C70.8372 53.545 70.8386 53.545 70.8399 53.545L70.5649 54.1415H70.5622ZM128.236 53.2174L127.934 52.6352L128.291 52.442C128.56 52.2671 128.809 52.0413 129.066 51.8063C129.708 51.2216 130.433 50.5585 131.641 50.6994L132.67 50.8182L128.638 53.002C128.511 53.0829 128.378 53.156 128.236 53.2187V53.2174ZM224.619 53.1991C224.468 53.1991 224.313 53.1873 224.158 53.1691L220.97 53.0359L221.394 52.5321C221.806 52.0413 222.575 52.2005 223.388 52.3689C223.665 52.4263 223.948 52.4851 224.218 52.519L224.786 52.5425L224.792 53.1939C224.736 53.1978 224.678 53.1991 224.621 53.1991H224.619ZM101.458 52.3363L101.252 51.715C101.277 51.7071 101.303 51.6993 101.328 51.6915L104.452 50.7347L104.429 51.2007C104.376 52.2906 103.408 52.2593 102.699 52.2371C102.301 52.224 101.889 52.211 101.523 52.3154L101.458 52.335V52.3363ZM213.696 51.5009C212.423 51.5009 211.092 51.3769 210.012 50.9957C208.276 50.4332 206.192 48.6736 205.871 46.9571C205.713 46.1126 205.998 45.3738 206.695 44.823C208.776 43.0791 211.889 43.1966 215.688 45.1689C218.496 46.6269 220.667 48.5509 220.758 48.6318C221.191 49.0182 221.348 49.3537 221.224 49.6265C221.181 49.7218 221.034 49.9398 220.628 49.9032C220.455 49.9084 219.891 50.3588 219.63 50.6407C219.58 50.6955 219.446 50.8378 218.188 51.0806C218.053 51.1067 215.967 51.5009 213.696 51.5009ZM210.265 44.246C209.124 44.246 208.044 44.5528 207.125 45.3229C206.615 45.7262 206.416 46.2353 206.53 46.8397C206.805 48.3068 208.702 49.8823 210.232 50.3783C213.071 51.3834 218.006 50.4488 218.056 50.4397C218.657 50.3235 219.05 50.2113 219.166 50.1656C219.321 50.005 219.942 49.3928 220.464 49.2714C220.423 49.2258 220.37 49.1722 220.302 49.1122C220.234 49.0508 214.776 44.2447 210.263 44.2447L210.265 44.246ZM204.883 51.3064C204.845 51.3064 204.808 51.3064 204.769 51.3038L203.827 51.2607C203.677 51.2542 203.322 51.2372 203.298 50.9187C203.273 50.5754 203.546 50.5245 204.453 50.3535L204.64 50.3183C205.425 50.1669 205.886 50.2374 206.012 50.5258C206.067 50.6524 206.049 50.796 205.96 50.92C205.788 51.1589 205.372 51.3051 204.883 51.3051V51.3064ZM56.9903 50.9735C56.8454 50.9735 56.6751 50.9383 56.4993 50.9031C56.4215 50.8874 48.6267 49.3093 44.1161 48.966C41.9387 48.8146 39.7049 48.7128 37.2913 48.6553C35.1447 48.6044 32.9015 48.5888 30.4329 48.6097L28.9478 48.6136C28.713 48.6188 28.3628 48.6253 28.336 48.2951C28.3078 47.9492 28.6311 47.9074 29.2174 47.8317C29.255 47.8265 33.0263 47.3409 35.519 47.1686C38.1889 46.9846 40.7433 46.9428 43.1113 47.0446C48.196 47.2273 56.3745 50.0115 56.7207 50.1303C57.1071 50.2635 57.4733 50.3875 57.3767 50.7255C57.3217 50.9161 57.1782 50.9735 56.9903 50.9735ZM33.9708 47.9531C35.1192 47.9609 36.2261 47.9779 37.3087 48.0027C39.7331 48.0601 41.9763 48.1632 44.1671 48.316C46.4814 48.4922 49.6409 48.9882 52.2021 49.4359C49.3901 48.654 45.7543 47.7938 43.0858 47.6973C40.7406 47.5967 38.2117 47.6372 35.5687 47.8199C35.0736 47.8539 34.5289 47.9009 33.9721 47.9531H33.9708ZM196.876 50.8208C196.748 50.8208 196.6 50.8065 196.436 50.7921L195.903 50.7425C194.693 50.6303 194.617 50.4553 194.56 50.3287C194.509 50.2126 194.527 50.0794 194.607 49.9789C194.731 49.8262 194.874 49.7962 195.655 49.8849C196.068 49.9319 196.519 49.9998 196.777 50.0559C197.061 50.1173 197.414 50.1943 197.36 50.5284C197.323 50.7621 197.144 50.8221 196.876 50.8221V50.8208ZM79.0627 49.9828C78.8749 49.9828 78.6066 49.8432 78.1236 49.5795C77.6929 49.3445 77.2314 49.0691 76.9738 48.8942C76.6236 48.6566 76.3218 48.4517 76.5096 48.1567C76.6961 47.8617 77.0087 48.0262 77.4031 48.235L78.2993 48.7076C79.3471 49.2597 79.382 49.4764 79.3981 49.5795C79.4156 49.6891 79.3807 49.7962 79.3029 49.8758C79.2317 49.9476 79.158 49.9828 79.0627 49.9828ZM83.8577 49.9593C83.7503 49.9593 83.6457 49.9176 83.5947 49.8954C83.5196 49.8654 83.4069 49.8184 83.2579 49.7544C83.2258 49.7413 82.7387 49.5351 81.6587 49.0247L63.5307 40.9919L63.5146 40.9828C63.1631 40.7766 62.8318 40.5821 62.9954 40.2714C63.1605 39.9607 63.516 40.1095 63.8916 40.2675C63.9896 40.3093 73.7512 44.417 78.9809 46.9937C80.2621 47.632 81.2442 48.1045 81.9633 48.4426L83.5384 49.1409C83.6859 49.2062 83.7973 49.2558 83.8711 49.2884C84.2789 49.4738 84.1783 49.6957 84.1448 49.7688C84.0777 49.9163 83.9663 49.958 83.859 49.958L83.8577 49.9593ZM63.6421 49.5064C61.7142 49.5064 57.0789 49.2714 54.6734 47.1438C53.1909 45.8816 52.5979 44.4601 52.9641 43.0373C53.3304 41.4958 54.9068 40.5716 57.1809 40.5716C59.416 40.5103 61.5626 41.2595 63.5509 42.8011C65.3352 44.1834 67.3275 46.9637 67.4107 47.0811C67.6576 47.4271 67.7139 47.7951 67.5637 48.0888C67.4201 48.3708 67.1062 48.547 66.6997 48.577C66.6567 48.6018 66.532 48.6893 66.32 48.9412L66.3039 48.9595L66.1536 49.1122C65.7994 49.4163 64.5598 49.4842 64.5074 49.4881C64.4511 49.4907 64.1358 49.5064 63.6421 49.5064ZM57.4264 41.2204C57.3472 41.2204 57.2681 41.2204 57.1889 41.2243C56.2484 41.2243 54.0361 41.4162 53.6148 43.1901C53.2338 44.6742 54.2226 45.8933 55.1188 46.6569C57.9389 49.1514 64.4055 48.8394 64.4699 48.8368C65.1045 48.8028 65.5915 48.6841 65.7082 48.6214L65.8061 48.5209C66.1295 48.1371 66.4005 47.9387 66.6151 47.9296C66.7909 47.9218 66.9237 47.8722 66.9613 47.8004C66.9988 47.7273 66.9586 47.5954 66.858 47.4545C66.8378 47.4271 64.8375 44.635 63.1309 43.3128C61.3399 41.9252 59.4214 41.223 57.425 41.223L57.4264 41.2204ZM233.961 49.1292C233.77 49.1292 233.432 49.0704 232.809 48.8472L230.964 48.2363C230.525 48.1019 230.204 48.0027 230.294 47.6711C230.384 47.3396 230.714 47.4088 231.17 47.5054L232.762 47.8408L215.836 42.7345C215.353 42.5818 215.063 42.4917 215.158 42.1667C215.253 41.8417 215.549 41.9135 216.038 42.0323L239.619 47.3683C239.939 47.4388 240.383 47.5354 240.339 47.897C240.296 48.2546 239.849 48.2533 239.519 48.2494L236.654 48.3682C235.979 48.4635 234.903 48.4282 234.244 48.2886L234.216 48.2807L233.812 48.1593C234.147 48.3277 234.41 48.5587 234.377 48.8146C234.363 48.9216 234.3 49.0143 234.205 49.0704C234.168 49.0926 234.107 49.1292 233.958 49.1292H233.961ZM234.402 47.6529C234.993 47.7756 235.983 47.8056 236.574 47.7194L236.609 47.7155L237.951 47.6594L223.855 44.4692L234.401 47.6516L234.402 47.6529ZM188.072 47.7521C186.143 47.7521 184.168 47.3801 182.92 46.1426C182.851 46.0826 182.675 45.9364 182.581 45.8894L182.577 45.8868C182.256 45.7223 181.282 45.2237 181.487 44.2265C181.936 42.3377 184.016 41.3535 185.841 41.3535C189.412 41.3535 193.963 45.0997 194.155 45.259C194.485 45.5331 194.635 45.8737 194.567 46.1949C194.499 46.516 194.222 46.7718 193.808 46.8958C193.618 46.9519 190.896 47.7508 188.072 47.7508V47.7521ZM182.887 45.3086C183.009 45.3699 183.15 45.4717 183.371 45.6597L183.391 45.678C186.172 48.4556 193.537 46.2954 193.61 46.2732C193.812 46.2131 193.897 46.1257 193.911 46.0643C193.924 46.003 193.881 45.8894 193.72 45.7563C193.675 45.7184 189.164 42.0075 185.841 42.0075C184.281 42.0075 182.51 42.8167 182.144 44.3648C182.093 44.6115 182.139 44.9261 182.887 45.3086ZM51.0496 47.7273C50.9423 47.7273 50.8296 47.7194 50.7129 47.7025L49.2666 47.4962C49.1365 47.478 48.7917 47.4284 48.8064 47.1099C48.8225 46.7862 49.1593 46.76 49.551 46.73C49.8033 46.7104 50.1145 46.6948 50.3627 46.683L50.5251 46.6752C51.817 46.6086 51.9432 46.9219 51.9847 47.025C52.0384 47.1582 52.0102 47.3096 51.9123 47.4297C51.754 47.6228 51.4374 47.7286 51.0483 47.7286L51.0496 47.7273ZM134.234 47.4388L134.046 47.4271C133.712 47.4479 133.114 47.1869 132.856 47.0642C132.62 46.9519 131.842 46.5434 131.752 45.9873C131.716 45.7576 131.801 45.5331 131.99 45.3569L132.031 45.319L132.082 45.2968L148.36 38.1137L148.411 38.1072C149.008 38.0341 149.239 38.2378 149.327 38.4205C149.416 38.6045 149.431 38.9074 148.993 39.3081C148.647 39.6253 140.43 47.0955 134.254 47.4388H134.233H134.234ZM134.002 46.7692L134.238 46.7848C140.168 46.4376 148.451 38.9074 148.535 38.8317C148.571 38.7977 148.6 38.769 148.623 38.7429C148.6 38.7429 148.573 38.7455 148.544 38.7481L132.423 45.862C132.414 45.8764 132.415 45.8829 132.415 45.8868C132.435 46.0134 132.736 46.281 133.149 46.4781C133.554 46.67 133.876 46.764 133.979 46.777L134.002 46.7705V46.7692ZM119.49 47.3122C119.42 47.3122 119.38 47.2991 119.354 47.29C119.246 47.2548 119.161 47.1751 119.121 47.0733C119.094 47.0028 119.077 46.8893 119.145 46.7444C119.259 46.5016 119.641 46.1479 120.206 45.9468L121.18 45.5996C121.306 45.5553 121.642 45.4352 121.787 45.7223C121.932 46.0121 121.651 46.1949 121.353 46.388C121.156 46.516 120.907 46.6674 120.704 46.7901L120.586 46.8619C119.963 47.2404 119.651 47.3135 119.49 47.3135V47.3122ZM40.0215 46.7104C39.9289 46.7104 39.8283 46.7052 39.721 46.7L37.192 46.5747C36.6487 46.5473 36.2448 46.3645 36.1107 46.0826C36.0409 45.9364 36.0557 45.7772 36.1496 45.6571C36.214 45.5735 36.4125 45.3216 37.7676 45.5918L39.8082 45.939C40.2442 46.0043 40.5944 46.0565 40.5595 46.3985C40.5327 46.6595 40.3193 46.7117 40.0215 46.7117V46.7104ZM222.851 46.4794C222.681 46.4794 222.465 46.4677 222.192 46.4546L222.035 46.4468C221.625 46.4272 220.912 46.3437 220.753 46.0108C220.684 45.8685 220.71 45.7028 220.818 45.5774C221.021 45.3464 221.461 45.2981 221.998 45.4456L223.012 45.7262C223.158 45.7667 223.503 45.862 223.448 46.1779C223.408 46.4168 223.258 46.4807 222.85 46.4807L222.851 46.4794ZM70.267 45.336C70.157 45.336 70.039 45.3086 69.937 45.2851C69.7706 45.2459 69.5613 45.1911 69.3601 45.1389C69.238 45.1062 69.1199 45.0749 69.022 45.0514C68.5015 44.9209 67.8615 44.6951 67.7743 44.3596C67.7354 44.2069 67.7917 44.0489 67.9232 43.9458C68.1661 43.7552 68.594 43.7866 69.0971 44.032L70.2831 44.6089C70.416 44.6742 70.7272 44.8256 70.6105 45.1232C70.5447 45.2903 70.4119 45.3373 70.267 45.3373V45.336ZM128.198 43.6587C128.039 43.6587 127.91 43.6038 127.849 43.4315C127.734 43.1013 128.072 42.9655 128.5 42.7945L129.509 42.3925C130.613 41.9526 130.751 42.0962 130.863 42.2124C130.966 42.3181 130.989 42.4748 130.92 42.6105C130.737 42.9786 128.692 43.5673 128.671 43.5725C128.505 43.6156 128.339 43.66 128.197 43.66L128.198 43.6587ZM204.3 43.1561C204.003 43.1561 203.647 43.0647 203.259 42.9655C202.959 42.8885 202.633 42.805 202.343 42.7697L201.89 42.7645L201.852 42.1145C202.021 42.0936 202.199 42.0975 202.385 42.1184L205.068 42.1523L205.061 42.48C205.056 42.7724 204.919 42.9329 204.805 43.0164C204.665 43.1183 204.495 43.1574 204.299 43.1574L204.3 43.1561ZM195.435 43.0791C195.128 43.0791 194.78 42.9603 194.395 42.5948L193.789 42.0166L196.401 42.074C196.708 41.9709 197.068 41.9317 197.494 42.1262L198.933 42.7828L196.518 42.7293C196.444 42.7593 196.366 42.7945 196.282 42.835C196.044 42.946 195.762 43.0791 195.436 43.0791H195.435ZM150.386 41.8077C150.195 41.8077 150.118 41.7451 150.053 41.6668C149.958 41.5506 149.949 41.3914 150.03 41.2608C150.249 40.9084 152.338 40.4241 152.358 40.4202C152.692 40.3563 153.071 40.2845 153.162 40.6173C153.256 40.9567 152.891 41.0768 152.47 41.2177L151.411 41.5702C150.886 41.7451 150.579 41.8077 150.386 41.8077ZM170.046 40.6787C170.01 40.6787 169.975 40.6787 169.944 40.6787C169.786 40.676 166.039 40.6212 164.162 39.7428C161.992 38.7272 160.79 37.7078 160.59 36.7119C160.486 36.1923 160.648 35.6963 161.072 35.2408C161.85 34.4041 163.436 33.9773 165.21 34.1248L165.236 34.1287C168.42 34.6495 171.333 36.4038 172.012 38.2077C172.295 38.9583 172.173 39.6697 171.659 40.2649L171.555 40.3941C171.314 40.6447 170.485 40.6787 170.046 40.6787ZM164.531 34.7487C163.239 34.7487 162.116 35.0933 161.571 35.6794C161.292 35.9783 161.187 36.2759 161.25 36.5879C161.403 37.3488 162.541 38.2599 164.454 39.1554C166.198 39.9712 169.917 40.026 169.955 40.026C170.534 40.0325 170.954 39.9673 171.085 39.9242L171.142 39.8498C171.5 39.4373 171.582 38.9609 171.382 38.4322C170.791 36.8594 168.05 35.2538 165.14 34.7748C164.933 34.7578 164.731 34.75 164.531 34.75V34.7487ZM181.148 40.5977C180.984 40.5977 180.754 40.5155 180.373 40.368C179.99 40.2192 179.6 40.0469 179.377 39.9294C179.14 39.8041 178.815 39.6318 178.961 39.3264C179.113 39.0092 179.456 39.1384 179.931 39.3185L180.275 39.4491C181.411 39.8785 181.454 40.0508 181.485 40.1748C181.512 40.2832 181.483 40.398 181.408 40.4816C181.337 40.5612 181.258 40.5977 181.149 40.5977H181.148ZM51.7808 40.3837C51.4186 40.3837 51.0215 40.2649 50.67 40.1592C50.458 40.0952 50.242 40.0312 50.0407 39.9895L46.2466 39.7741L49.4357 39.3081C49.6584 39.2755 49.8918 39.295 50.1293 39.3407L52.9655 39.5026L52.6328 39.979C52.4194 40.2845 52.1149 40.385 51.7808 40.385V40.3837ZM159.343 39.9281C159.158 39.9281 158.876 39.8955 158.833 39.6161C158.783 39.2937 159.1 39.1541 159.831 38.9622C160.894 38.6829 161 39.0301 161.034 39.1449C161.068 39.2559 161.045 39.3721 160.971 39.4739C160.794 39.714 160.275 39.8968 159.709 39.9164L159.433 39.9268C159.407 39.9268 159.378 39.9294 159.344 39.9294L159.343 39.9281Z" fill="currentColor"/>
</svg>
