<svg width="143" height="143" viewBox="0 0 143 143" fill="none" xmlns="http://www.w3.org/2000/svg">
<g clip-path="url(#clip0_675_6874)">
<path d="M68.8942 19.8909C69.6707 30.4571 69.5948 31.7511 64.3331 25.1294C68.5773 33.4199 67.6356 40.4878 56.6347 40.7779C66.7341 42.2905 66.7698 43.7139 60.9949 51.8661C65.4935 47.2657 64.1814 49.3941 61.0039 54.1641C62.6774 52.3971 62.4811 53.2672 61.5573 55.2484C61.4011 55.9043 60.5174 57.6668 59.6115 59.4695C58.4065 61.8701 57.1658 64.3376 55.9385 66.7828C54.7068 69.2325 53.4929 71.6554 53.2118 69.9866C51.1678 76.2826 50.061 78.4824 45.1072 80.8785C48.0527 82.4849 31.3483 99.0972 28.2109 103.492C44.4512 88.0892 30.8931 104.764 29.6792 106.741C30.0452 106.455 35.0748 99.7218 30.5941 106.906C30.9243 106.41 45.6562 85.3138 32.5845 106.683C34.3697 104.22 35.3292 103.604 35.0748 106.428C36.8376 101.873 37.3821 100.757 36.5207 104.019C38.8994 99.7888 40.4213 93.5374 42.6259 103.84C40.4034 99.3604 53.06 82.8552 54.5595 84.1448C53.6 82.4982 52.3772 85.8716 56.7195 88.2275C52.8994 85.4343 52.5334 84.5642 56.2465 82.5652C53.3456 84.0778 54.3899 84.5151 58.8305 85.2781C54.6845 84.2965 53.9303 83.645 56.8668 81.5166C53.5688 83.6718 54.5283 84.118 59.2143 84.2652C55.5726 83.5959 57.7683 79.6738 61.0976 76.6976C58.2057 79.4239 56.4428 83.0872 59.8703 83.0382C56.3134 83.1185 57.9424 79.4819 60.8521 76.7511C58.045 79.2409 56.5187 82.6366 59.9819 82.1904C56.9338 82.3555 58.8751 78.6876 61.4457 76.3272C58.4734 78.4779 56.1304 81.9405 59.4151 81.3961C55.0906 82.1725 56.3938 78.942 59.6606 76.4477C56.483 78.884 55.2647 82.061 59.5177 81.231C56.4785 81.7665 58.9063 78.295 61.6688 76.3094C59.3571 78.469 57.38 82.11 60.1202 81.9137C56.84 82.4224 58.2771 79.0892 60.8968 76.7199C58.2235 79.29 56.724 82.824 60.0801 82.5741C57.0944 82.6946 58.9599 79.0401 61.4903 76.5682C58.5002 79.2811 56.1706 83.1809 59.482 83.6182C54.8809 83.7699 53.8098 83.413 56.9873 81.2622C54.0418 83.297 55.3227 83.5468 59.6382 83.3014C56.3714 83.0069 58.2503 79.2722 60.8744 76.7243C58.3619 79.0491 57.1301 82.293 60.3166 81.7129C58.161 81.8423 60.4326 78.1522 62.2668 76.3718C60.3389 77.7729 60.0934 78.1343 62.1687 77.5632C63.5343 77.2598 47.718 86.9782 60.4371 75.9479C58.8171 77.581 59.3615 76.6931 61.2493 74.7565C58.8662 75.582 58.4824 75.2563 60.1113 73.2707C57.3577 74.6272 56.6169 74.3193 57.746 71.3921C57.6032 74.2256 59.0268 74.4174 60.9815 73.6098C59.6829 74.9618 58.9108 75.3143 59.3169 73.4625C59.0715 75.533 60.9905 75.292 62.6864 74.819C63.0345 74.9752 63.1594 74.8949 62.7979 74.645C61.4011 74.8859 59.5133 74.9573 59.0402 72.7397C59.1027 74.7119 61.0753 74.3684 62.7399 73.7794C63.8601 73.4893 64.6768 72.9583 64.9669 72.1998C65.547 70.6827 64.0207 68.2687 60.803 63.8959C67.4304 69.8795 67.2875 68.0322 65.5247 60.8393C67.716 68.6167 68.1935 70.6068 63.9583 61.9326C68.8674 72.5791 69.0593 72.5568 67.4259 60.8617C69.3271 70.4953 69.394 68.4561 69.4208 60.2325C69.394 68.4606 69.3538 70.4953 68.7647 60.7144C69.51 72.5701 69.7109 64.4447 72.8081 52.9459C70.5142 62.5349 71.1211 60.5895 73.5444 52.6693C71.4692 60.8037 71.2148 71.1289 80.5154 66.6847C77.5878 69.112 75.7268 70.8032 74.9101 72.0615C74.0934 73.3198 74.3254 74.1408 75.5081 73.9712C76.1775 74.7432 77.0879 75.2652 78.2527 75.524C79.5336 75.8631 81.0732 75.939 82.1622 74.877C81.0152 75.8542 79.7344 75.7427 78.8775 75.3589C78.2974 75.1804 78.1412 74.7298 78.3955 74.0872C78.5294 74.3683 79.0739 74.4531 79.7835 74.3148C80.7698 74.4219 81.9212 74.3059 82.787 73.4893C82.1934 74.471 81.3142 74.7566 80.386 74.5959C80.0914 75.0243 79.7522 75.0109 79.6094 74.5781C79.4309 75.7516 79.4443 76.5146 79.422 76.5726C80.5109 77.349 81.5642 77.4293 82.0774 75.9301C81.341 77.8532 80.0691 78.2013 78.757 77.7149C78.6231 77.822 78.4536 77.0947 78.5741 75.6088C78.3598 77.4516 78.4402 78.5359 78.4491 78.6832C79.8058 79.3703 81.0911 79.1205 81.6489 77.0456C81.0554 79.2052 80.3503 79.8835 79.3506 79.6425C81.0956 80.3431 82.5415 80.1244 82.8093 77.8131C82.7602 80.236 81.5195 80.5617 79.4666 79.7005C80.3101 79.8344 80.3503 78.7724 80.1673 76.354C79.9932 78.6162 79.596 79.522 78.8731 79.3391C80.2253 79.9013 81.2473 79.3748 81.6177 77.059C81.1848 79.1874 80.0959 79.5265 78.7927 78.8483C79.2524 78.875 79.4934 77.88 79.7389 75.8364C79.8549 77.6658 79.9754 78.4467 79.5336 78.1076C81.2027 78.8349 82.3139 78.4422 82.5326 76.2067C82.3987 78.5002 81.3812 78.942 79.6987 78.2102C80.3547 78.6475 80.3458 77.9068 80.1807 75.9524C80.0423 78.1522 79.7433 79.1338 79.0382 79.0134C80.4395 79.7228 81.4303 79.3257 81.6891 77.0813C81.0509 79.29 80.3012 79.9906 79.3015 79.7898C81.0599 80.4992 82.5638 80.3074 82.8985 78.0496C82.8985 80.6153 82.0908 81.2578 80.2387 80.9811C82.5103 81.6728 83.7286 81.4407 83.6171 79.3703C84.5096 81.9182 84.0187 82.5964 81.7248 82.7392C84.5453 83.1854 85.5629 83.0962 85.4156 82.3644C86.1832 83.471 85.7815 83.935 83.626 84.8721C86.2234 84.5017 87.0713 84.5999 87.3837 85.7823C88.6556 85.5682 110.153 114.634 112.385 117.905C112.385 116.102 76.8291 67.4209 115.91 119.368C71.7995 57.7784 117.503 118.967 118.396 120.082C112.737 111.56 94.6447 88.3034 122.238 119.734C120.543 117.41 96.7512 92.1809 109.046 98.7268C106.235 95.706 91.5118 82.4581 91.1236 78.3976C89.5035 78.4556 88.3968 76.2558 86.8749 72.5791C86.0761 71.6286 84.8577 69.2057 83.6304 66.7605C82.4032 64.3153 81.1625 61.8478 79.9575 59.4427C79.0516 57.64 78.1679 55.8775 78.043 55.3555C77.0701 53.2851 76.8603 52.4551 78.4848 54.4229C75.3563 49.4521 74.0577 47.2791 78.1679 52.3391C72.6653 43.6738 72.5671 42.2414 82.604 40.5637C71.6656 40.4388 70.8578 33.3842 72.451 24.3396C69.8581 31.7243 69.6707 30.4303 68.8942 19.8641V19.8909Z" fill="currentColor"/>
</g>
<defs>
<clipPath id="clip0_675_6874">
<rect width="142.1" height="142.1" fill="white"/>
</clipPath>
</defs>
</svg>
