<svg width="143" height="143" viewBox="0 0 143 143" fill="none" xmlns="http://www.w3.org/2000/svg">
<path d="M35.6875 41.7197L62.0552 73.2449" stroke="currentColor" stroke-miterlimit="10"/>
<path d="M60.8945 73.7599L63.1882 74.5928L62.7574 72.1746L60.8945 73.7599Z" fill="currentColor"/>
<path d="M26.5215 45.418L56.5631 71.5917" stroke="currentColor" stroke-miterlimit="10"/>
<path d="M55.498 72.2837L57.8915 72.7464L57.0897 70.4248L55.498 72.2837Z" fill="currentColor"/>
<path d="M17.9688 77.8804L57.979 81.6223" stroke="currentColor" stroke-miterlimit="10"/>
<path d="M57.5117 82.8133L59.7256 81.7873L57.7351 80.3669L57.5117 82.8133Z" fill="currentColor"/>
<path d="M24.2832 85.0752L62.4545 82.9146" stroke="currentColor" stroke-miterlimit="10"/>
<path d="M62.1669 84.1619L64.2053 82.814L62.0312 81.7075L62.1669 84.1619Z" fill="currentColor"/>
<path d="M76.0216 30.8323L73.0977 69.7488" stroke="currentColor" stroke-miterlimit="10"/>
<path d="M71.9082 69.2981L72.9653 71.5151L74.3375 69.4832L71.9082 69.2981Z" fill="currentColor"/>
<path d="M91.9096 34.9407L77.166 67.0331" stroke="currentColor" stroke-miterlimit="10"/>
<path d="M76.209 66.1882L76.4284 68.6386L78.4189 67.2223L76.209 66.1882Z" fill="currentColor"/>
<path d="M105.15 49.3252L78.5352 74.0142" stroke="currentColor" stroke-miterlimit="10"/>
<path d="M77.9722 72.8674L77.2422 75.2132L79.6197 74.674L77.9722 72.8674Z" fill="currentColor"/>
<path d="M111.669 55.4895L81.9707 75.0645" stroke="currentColor" stroke-miterlimit="10"/>
<path d="M81.6029 73.8413L80.502 76.0342L82.9353 75.8974L81.6029 73.8413Z" fill="currentColor"/>
<path d="M124.501 67.8135L85.8555 78.8382" stroke="currentColor" stroke-miterlimit="10"/>
<path d="M85.8673 77.5586L84.168 79.3209L86.5295 79.9245L85.8673 77.5586Z" fill="currentColor"/>
<path d="M80.6152 86.7366L111.869 103.773" stroke="currentColor" stroke-miterlimit="10"/>
<path d="M80.3527 87.9878L79.0762 85.8955L81.5095 85.8271L80.3527 87.9878Z" fill="currentColor"/>
<path d="M77.0703 85.8994L102.704 111.168" stroke="currentColor" stroke-miterlimit="10"/>
<path d="M76.4726 87.03L75.8184 84.6641L78.1759 85.2716L76.4726 87.03Z" fill="currentColor"/>
</svg>
