<svg width="143" height="143" viewBox="0 0 143 143" fill="none" xmlns="http://www.w3.org/2000/svg">
<path d="M81.5759 37.7055C81.3682 37.7055 81.1164 37.6006 80.7849 37.4285C80.6318 37.3551 79.9436 37.2481 79.7401 37.2481C79.6037 37.2691 79.1631 37.3047 78.9092 37.0215C78.777 36.8746 78.7288 36.6732 78.7749 36.4823C78.7896 36.3459 78.7749 35.7584 78.6784 35.343C78.6511 35.2213 78.0175 32.3322 79.2848 30.6432C80.7891 28.7088 84.5154 29.2795 84.6727 29.3047C85.2266 29.3928 85.663 29.4557 85.7323 29.462C86.0155 29.4851 86.3009 29.5396 86.475 29.7767C86.5652 29.8984 86.603 30.0516 86.5841 30.2005C86.5925 30.339 86.6869 30.8279 86.8149 31.2874C86.8443 31.3944 87.5199 33.91 86.3911 35.6053C85.3168 37.1096 82.8767 37.4873 82.7739 37.502C82.1109 37.6006 81.8717 37.6446 81.7899 37.6614C81.7228 37.6929 81.6514 37.7055 81.5738 37.7055H81.5759ZM79.7778 37.2397C79.7778 37.2397 79.7652 37.2418 79.7548 37.2439C79.7631 37.2439 79.7715 37.2418 79.7778 37.2397ZM79.7904 36.7445C79.7904 36.7445 79.7904 36.7508 79.7883 36.755C79.7883 36.7508 79.7883 36.7487 79.7904 36.7445ZM79.8282 36.2011C80.2436 36.22 80.9779 36.3438 81.2717 36.497C81.3997 36.5641 81.5025 36.6082 81.5675 36.6354C81.7501 36.5956 82.0585 36.5452 82.6208 36.4634C82.6417 36.4613 84.7252 36.134 85.5288 35.0094C86.3806 33.7296 85.8099 31.5874 85.8057 31.5664C85.7532 31.3797 85.6253 30.895 85.5686 30.5006C85.3441 30.4733 84.8385 30.3957 84.5091 30.3432C83.6027 30.2005 81.0472 30.0893 80.1198 31.2811C79.1505 32.5735 79.6981 35.0891 79.7023 35.1143C79.7694 35.4081 79.8177 35.8445 79.8261 36.2053L79.8282 36.2011ZM78.7854 36.4487C78.7854 36.4487 78.7812 36.4613 78.7791 36.4676C78.7791 36.4613 78.7833 36.455 78.7854 36.4487ZM85.556 30.0222C85.5497 30.0516 85.5455 30.081 85.5434 30.1103C85.5434 30.0768 85.5497 30.0474 85.556 30.0222Z" fill="currentColor"/>
<path d="M71.5201 96.3766C71.26 96.3766 71.0376 96.1542 70.9348 96.0513C70.8949 96.0115 69.9319 95.0505 69.2542 94.312L69.1409 94.1903C69.0611 94.1001 68.7779 93.8588 68.4926 93.6595C68.4653 93.6406 67.8212 93.1874 67.3575 92.6566C66.2853 91.5887 65.8007 90.2648 65.3328 88.987C65.1733 88.5527 65.0244 88.1436 64.8523 87.7407L64.7747 87.6086L64.502 87.1742L64.9342 86.8847C65.2426 86.6854 65.4419 86.7903 65.658 87.0609L65.6664 87.0547L65.7147 87.1344C65.7881 87.233 65.8636 87.3484 65.9476 87.4764C65.958 87.4932 66.4406 88.2254 67.1141 89.1758H67.3638C67.8358 89.1821 68.2408 90.0151 68.245 90.0235C68.3121 90.1641 68.3646 90.2773 68.3981 90.3445C68.4191 90.3844 68.4359 90.4158 68.4443 90.4347L68.6436 90.9068L68.4527 90.9991C68.7884 91.4355 69.1283 91.8593 69.4493 92.2328C69.5794 92.1405 69.8374 92.0377 70.1731 92.3188L70.2592 92.3859C70.4816 92.5601 70.5613 92.6188 70.5781 92.6293C71.0711 92.9315 71.0774 93.2483 70.9914 93.4623C70.9494 93.5672 70.8592 93.7099 70.6641 93.7791C71.2138 94.526 71.7887 95.296 71.795 95.3065C71.9167 95.4702 72.2398 95.9045 71.8516 96.2402C71.7383 96.3367 71.6271 96.3745 71.5201 96.3745V96.3766ZM70.0724 92.9713C70.0871 92.9923 70.1039 93.0133 70.1186 93.0343C70.1249 93.028 70.1291 93.0238 70.1354 93.0175C70.192 92.9566 70.2298 92.8874 70.2529 92.8161C70.1899 92.8475 70.1249 92.8958 70.0724 92.9692V92.9713Z" fill="currentColor"/>
<path d="M88.5725 103.35C87.771 103.35 86.8395 103.208 86.0758 102.698C84.5714 101.624 84.1937 99.1835 84.1791 99.0807C84.0804 98.4156 84.0364 98.1785 84.0196 98.0967C83.9063 97.847 84.0154 97.5449 84.2525 97.0896C84.3259 96.9364 84.4329 96.2483 84.4329 96.0447C84.414 95.9084 84.3763 95.4678 84.6595 95.2139C84.8064 95.0817 85.0078 95.0314 85.1987 95.0796C85.333 95.0943 85.9226 95.0796 86.338 94.9831C86.4597 94.9558 89.3488 94.3222 91.0378 95.5895C92.9722 97.0938 92.4016 100.82 92.3764 100.977C92.2883 101.529 92.2253 101.968 92.219 102.037C92.1959 102.32 92.1414 102.606 91.9043 102.78C91.7826 102.87 91.6294 102.908 91.4805 102.889C91.342 102.897 90.8531 102.992 90.3958 103.12C90.337 103.136 89.5523 103.346 88.5767 103.346L88.5725 103.35ZM85.0435 97.8722C85.0833 98.0547 85.1337 98.3632 85.2155 98.9255C85.2176 98.9464 85.5449 101.03 86.6695 101.833C87.9494 102.685 90.0894 102.115 90.1125 102.11C90.2992 102.058 90.7839 101.93 91.1783 101.873C91.2056 101.649 91.2833 101.141 91.3357 100.814C91.4784 99.9074 91.5896 97.3519 90.3979 96.4245C89.1054 95.4552 86.5898 96.0028 86.5646 96.007C86.2709 96.0741 85.8345 96.1224 85.4736 96.1308C85.4547 96.5462 85.3309 97.2805 85.1778 97.5743C85.1106 97.7023 85.0666 97.8051 85.0393 97.8701L85.0435 97.8722ZM91.5749 101.848C91.6022 101.848 91.6294 101.854 91.6504 101.859C91.6252 101.852 91.598 101.85 91.5749 101.848ZM84.435 96.0594C84.435 96.0594 84.4371 96.0762 84.4392 96.0825C84.4392 96.0783 84.4371 96.0699 84.435 96.0594ZM85.2092 95.0838C85.2092 95.0838 85.2218 95.088 85.2281 95.0901C85.2239 95.0901 85.2176 95.0859 85.2092 95.0838Z" fill="currentColor"/>
<path d="M98.6638 81.4922C98.5945 81.4922 98.5253 81.4901 98.456 81.4859C96.616 81.3076 95.0697 79.3836 95.0047 79.3018C94.5871 78.7752 94.4298 78.5905 94.3752 78.5297C94.1528 78.3702 94.0962 78.0555 94.0731 77.5415C94.0605 77.3715 93.8087 76.7232 93.708 76.547C93.622 76.4379 93.3702 76.0749 93.4877 75.714C93.5486 75.5252 93.6975 75.3825 93.8885 75.328C94.0122 75.2734 94.5158 74.965 94.8263 74.6755C94.9186 74.5894 97.1028 72.5983 99.1988 72.8501C101.626 73.1858 102.994 76.6981 103.051 76.8491C103.25 77.3736 103.416 77.7828 103.445 77.8457C103.567 78.1038 103.661 78.3786 103.544 78.6472C103.483 78.7857 103.37 78.8948 103.231 78.9535C103.116 79.0291 102.74 79.3564 102.407 79.6962C102.331 79.7718 100.613 81.4943 98.6638 81.4943V81.4922ZM95.1494 77.8226C95.2753 77.9611 95.4725 78.2045 95.8271 78.6493C95.8397 78.6661 97.1657 80.3068 98.5421 80.4411C100.078 80.5418 101.645 78.9745 101.662 78.9598C101.798 78.8213 102.153 78.4689 102.468 78.2213C102.38 78.0136 102.193 77.5352 102.075 77.2247C101.746 76.3686 100.565 74.1006 99.0687 73.8929C97.7322 73.7313 96.0684 74.9608 95.5418 75.4476C95.3194 75.6532 94.9669 75.9113 94.6585 76.1001C94.8494 76.4694 95.1096 77.168 95.1242 77.4974C95.1305 77.6401 95.1431 77.7534 95.1536 77.8226H95.1494ZM102.868 77.9695C102.839 77.9779 102.812 77.9905 102.787 78.0031C102.816 77.9884 102.843 77.9779 102.868 77.9695ZM93.7164 76.5575C93.7164 76.5575 93.7269 76.5701 93.7311 76.5764C93.729 76.5722 93.7227 76.5659 93.7164 76.5575ZM93.9178 75.3196C93.9178 75.3196 93.9052 75.3217 93.8989 75.3238C93.9052 75.3238 93.9115 75.3196 93.9178 75.3196Z" fill="currentColor"/>
<path d="M96.9773 57.2385C95.7121 57.2385 94.5582 56.7895 94.4889 56.7643C93.8658 56.5168 93.635 56.437 93.5574 56.4118C93.2846 56.3846 93.0769 56.1412 92.8021 55.7069C92.7077 55.5663 92.1621 55.1299 91.988 55.0271C91.86 54.9746 91.4593 54.7879 91.3816 54.4144C91.3418 54.2193 91.3984 54.0221 91.5348 53.8815C91.6145 53.7724 91.8957 53.2521 92.0216 52.8472C92.0593 52.7276 92.9552 49.9098 94.896 49.0811C97.1661 48.1579 100.108 50.5162 100.231 50.6169C100.666 50.9694 101.012 51.2421 101.071 51.282C101.304 51.4435 101.524 51.6345 101.555 51.9261C101.572 52.0772 101.53 52.2282 101.438 52.3478C101.377 52.4716 101.213 52.9437 101.094 53.4032C101.067 53.5102 100.393 56.0258 98.5677 56.9301C98.0662 57.1588 97.5102 57.2385 96.9731 57.2385H96.9773ZM93.8763 55.4111C94.0546 55.4677 94.3463 55.5789 94.875 55.7887C94.8939 55.7971 96.8619 56.5545 98.1208 55.9838C99.4992 55.3019 100.076 53.1619 100.08 53.1409C100.129 52.9521 100.261 52.4695 100.408 52.0981C100.242 51.9722 99.8748 51.6806 99.5706 51.4309C98.8572 50.854 96.7004 49.4797 95.3009 50.0483C93.8155 50.684 93.0308 53.1346 93.0245 53.1577C92.9342 53.4451 92.7601 53.8459 92.586 54.1648C92.9363 54.3893 93.5112 54.8634 93.6875 55.1425C93.7651 55.2642 93.8301 55.3544 93.8742 55.4111H93.8763ZM92.0006 55.0313C92.0006 55.0313 92.0174 55.0376 92.0237 55.0397C92.0195 55.0397 92.0111 55.0355 92.0006 55.0313ZM91.5579 53.8584C91.5579 53.8584 91.5495 53.8668 91.5432 53.8731C91.5474 53.8689 91.5516 53.8647 91.5579 53.8584ZM100.632 51.6785C100.611 51.6995 100.594 51.7226 100.58 51.7477C100.597 51.7205 100.615 51.6974 100.632 51.6785Z" fill="currentColor"/>
<path d="M98.9323 124.289C97.707 124.289 96.4209 123.809 95.2627 122.894C94.9984 122.684 94.9103 122.323 95.0508 122.017C95.1914 121.707 95.5229 121.535 95.8565 121.597C98.0218 122.004 99.694 121.725 100.827 120.769C102.457 119.388 102.455 117.156 101.958 115.664C101.316 113.734 99.7065 112.301 97.4301 111.625C94.5011 111.05 91.9729 112.553 89.6776 114.26C89.4846 114.403 89.2349 114.443 89.0083 114.367C88.2865 114.13 87.7137 113.958 87.2018 113.83C86.564 113.671 86.0206 113.576 85.5443 113.545C85.4939 113.541 85.4436 113.532 85.3953 113.52C84.9023 113.375 84.4008 113.22 83.8616 113.041C83.4084 112.89 82.9196 112.722 82.3657 112.523C82.3405 112.515 82.3111 112.502 82.2859 112.49C81.774 112.231 81.283 111.936 80.8215 111.604C80.3473 111.262 79.8941 110.878 79.4766 110.461C75.872 106.856 75.2699 101.21 78.0037 96.9405C77.903 96.8398 77.7792 96.7181 77.6302 96.5733C77.0574 96.418 76.4259 96.4201 75.7587 96.4201C74.46 96.4201 72.9892 96.4222 72.0094 95.0732C71.9884 95.0438 71.9674 95.0102 71.9506 94.9787C71.5247 94.1899 71.6569 93.2877 71.7828 92.4149C71.8688 91.8295 71.9485 91.2777 71.8625 90.7951C70.9415 89.7356 69.8714 88.739 68.6818 87.8326C67.5572 86.9766 66.3277 86.1919 64.922 85.4365L64.9031 85.4261C63.6484 84.6833 62.3581 83.9679 61.0678 83.3007C61.0384 83.286 61.0132 83.2692 60.988 83.2524C60.0984 82.6356 59.1522 82.0229 58.1745 81.4312L58.1262 81.3998C51.1857 76.5175 42.7869 73.9578 30.9011 73.1101C30.5214 73.0829 30.1437 73.0577 29.764 73.0346C29.7052 73.0304 29.6465 73.0199 29.5898 73.001C26.3482 71.9709 22.4646 72.5793 22.4248 72.5856C20.6665 72.871 19.1811 73.1458 18.8328 73.2381L18.5244 73.3703C17.7795 73.6494 17.0053 73.4521 16.4535 72.8416C15.7276 72.0401 15.5535 70.7393 16.0402 69.7469C16.0528 69.7217 16.0675 69.6944 16.0822 69.6713C17.2676 67.7579 19.5692 66.7067 22.7353 66.6291C23.0815 66.6207 23.4382 66.6249 23.799 66.6396C24.12 66.6606 24.4159 66.6543 24.7012 66.6459C25.2341 66.6333 25.7859 66.6186 26.4238 66.7864C26.7595 66.7424 27.1119 66.6815 27.4434 66.6228C27.8358 66.5536 28.226 66.4843 28.6163 66.4193C29.743 66.2262 30.8634 66.0416 31.9817 65.857C37.1367 65.0093 42.0043 64.2079 46.9412 62.6658C48.4497 62.1853 49.9688 61.6482 51.4521 61.0733C54.5007 59.8921 57.4464 58.5262 60.2075 57.0176C61.5042 56.3651 62.7504 55.6581 63.9296 54.9069C65.178 54.1327 66.3529 53.2914 67.425 52.3997C68.5622 51.4556 69.628 50.4233 70.5953 49.326L70.6246 49.2945L74.353 45.5683C74.3698 45.5515 74.3908 45.5326 74.4117 45.5158C74.9006 45.1256 75.2615 44.7647 75.7419 44.1835L75.7839 44.1374L78.3289 41.5902C75.5972 37.3206 76.1972 31.6746 79.8018 28.07C81.0292 26.8426 82.5461 25.9195 84.1868 25.3991C84.7114 25.2334 85.2527 25.1054 85.7961 25.0215C85.8401 25.0152 85.8884 25.011 85.9366 25.0131C86.9857 25.0508 88.1019 24.9354 89.2852 24.8159L89.5685 24.7865C90.1182 24.7319 90.6784 24.6585 91.1735 24.5935C92.6947 21.4925 95.2837 19.3692 98.1246 18.8971C98.8148 18.7796 99.5639 18.7397 100.474 18.7188H100.506C102.591 18.7188 104.666 19.6755 106.074 21.2805C107.312 22.6926 107.864 24.4088 107.631 26.1125C107.581 26.4818 107.274 26.7482 106.903 26.7482C106.532 26.7482 106.225 26.4797 106.177 26.1104C105.841 23.5612 103.729 21.4904 101.263 21.2952C98.6134 21.2994 96.3726 22.4513 95.2858 24.3794L95.269 24.4067C94.9522 24.8956 94.7046 25.3991 94.5305 25.9069C93.408 29.2408 95.4495 33.3573 98.0721 35.4134C98.2735 35.5708 98.3784 35.8246 98.3491 36.0785C98.2903 36.5779 98.2505 36.9807 98.2274 37.3479C98.2274 37.373 98.2232 37.3961 98.219 37.4192C98.1246 37.9836 97.9945 38.5312 97.8308 39.0452C97.3105 40.6881 96.3852 42.205 95.1599 43.4303C91.5701 47.0202 85.9031 47.6307 81.6397 44.9032L81.1907 45.3522C81.0082 45.8053 80.918 46.3571 80.8215 46.9383C80.5949 48.3231 80.3368 49.8925 78.6646 50.5219C78.1296 50.7002 77.6197 50.717 77.1267 50.7338C76.4364 50.7569 75.8384 50.7779 75.3265 51.2206L74.9069 51.636C73.0543 53.8495 70.8261 55.8406 68.2811 57.5611C67.0998 58.3604 65.82 59.12 64.4814 59.8186L64.4604 59.8291C62.9686 60.5215 61.4748 61.1782 60.0229 61.7762C58.5752 62.4035 57.3898 62.9091 56.305 63.3602C54.9392 63.9288 53.7034 64.424 52.5242 64.8751C51.2507 65.3849 49.8974 65.8528 48.4539 66.2808C50.2415 65.9682 51.9808 65.6094 53.6887 65.1982C55.0231 64.9065 56.1036 64.682 57.096 64.489C58.2815 64.2603 59.5445 64.0421 61.1936 63.7778L62.1588 63.6372C63.1805 63.4882 64.238 63.3351 65.2745 63.1735C66.6508 62.9574 68.0125 62.7224 69.3196 62.4748C70.7694 62.1916 72.2066 61.8853 73.5872 61.5643C75.0265 61.2286 76.4532 60.8656 77.8275 60.4837C79.5059 60.0347 81.1026 59.6067 82.5461 59.2207L83.0937 59.0759C83.2951 59.0297 83.4819 58.9878 83.6707 58.9437C84.6841 58.715 85.7331 58.4758 86.7402 58.1003L86.8095 58.0793L88.8006 57.5464C88.5698 52.4815 91.9121 47.893 96.8363 46.5733C98.5127 46.1243 100.288 46.0823 101.97 46.4516C102.505 46.5691 103.036 46.7285 103.548 46.9278C103.605 46.9488 103.655 46.9782 103.703 47.0097C104.771 47.7524 106.364 48.279 108.183 48.8392L108.51 48.9252C108.758 48.9903 109.005 49.0553 109.255 49.1183C109.49 49.1812 109.685 49.0155 110.073 48.6273C112.807 45.8935 116.823 46.4537 116.993 46.4788C118.77 46.7432 121.3 47.9412 122.63 49.1497C122.752 49.2609 123.352 49.9176 123.214 51.999V52.022C123.046 53.5117 122.526 54.4789 121.623 54.9762C121.378 55.1126 121.08 55.0958 120.849 54.9342C120.616 54.7727 120.499 54.4978 120.543 54.2188C120.579 53.9796 120.627 53.7404 120.673 53.5075C120.887 52.4312 121.069 51.4996 120.35 50.6205L120.337 50.6037C119.018 48.8434 116.729 48.2392 114.641 49.0994C111.469 50.459 109.929 54.5356 111.213 58.1842C111.221 58.2115 111.229 58.2366 111.236 58.2618C111.437 59.1137 111.364 59.5857 111.299 60.0033C111.271 60.1837 111.187 60.339 111.064 60.4502C110.004 61.4111 108.907 62.4601 108.175 63.7757C108.154 63.8134 108.128 63.8491 108.103 63.8827C107.759 64.3107 107.375 64.7177 106.968 65.0912C105.695 66.2535 104.138 67.1054 102.461 67.5544C99.652 68.3076 96.7188 67.9173 94.2032 66.457L93.92 66.2913C93.5947 66.0731 92.2604 64.9359 91.1546 63.9624L91.0938 63.9078L90.2902 62.5671C89.8706 64.317 89.2852 66.3752 86.715 66.1696C85.7982 66.0962 85.0492 65.6136 84.3253 65.1478C83.7399 64.7723 83.186 64.4156 82.6405 64.3547C82.3971 64.3275 82.1517 64.2918 81.9041 64.2498C78.8597 65.1226 75.6916 65.8801 72.2255 66.5619C70.6351 66.8746 68.9629 67.1746 67.2551 67.4536C66.2438 67.6299 65.1863 67.7998 64.1226 67.9572C62.8553 68.1586 61.5692 68.3495 60.3061 68.5237C59.9453 68.574 59.5844 68.6223 59.2214 68.6726C58.336 68.7943 57.4212 68.9181 56.5211 69.0524C54.123 69.6273 51.2255 69.9903 48.3994 70.2169C50.6548 70.3364 52.9334 70.4581 54.914 70.5672C56.2568 70.6491 57.6541 70.7498 59.1899 70.8757C60.4698 70.9806 61.7182 71.0981 62.9015 71.2239C64.3429 71.375 65.7528 71.545 67.0914 71.7317C68.5727 71.9058 69.9386 72.0842 71.2541 72.2793C75.8363 72.9549 79.892 73.8214 83.6497 74.9292C83.8155 74.9796 83.9812 75.0236 84.1449 75.0698H84.147C84.3316 75.0971 84.5099 75.1306 84.6946 75.1768C84.8288 75.2104 84.9631 75.2481 85.131 75.2985C85.5464 75.3048 85.9681 75.4307 86.2828 75.6384C86.5409 75.7055 86.7906 75.7705 87.0277 75.8335L87.0843 75.8482L89.8916 76.6014C92.2226 72.0989 97.4133 69.7972 102.338 71.1169C104.014 71.5659 105.571 72.4178 106.844 73.5801C107.247 73.9473 107.631 74.3543 107.988 74.7886C108.009 74.8159 108.03 74.8432 108.049 74.8747C108.244 75.1936 108.487 75.5481 108.793 75.9531C109.056 76.3014 109.354 76.6727 109.702 77.0882L109.736 77.1322C110.266 77.8959 111.108 78.7163 111.995 79.5849C112.26 79.843 112.526 80.1031 112.788 80.3675C113.195 80.7745 113.518 81.1144 113.797 81.4312C114.322 81.5634 114.93 81.6662 115.572 81.7732C115.975 81.8404 116.393 81.9096 116.81 81.9914C117.398 82.1047 117.996 82.2411 118.694 82.4174C119.179 82.5307 119.664 82.6985 120.132 82.9146C120.56 83.1118 120.977 83.351 121.374 83.6259C123.927 84.5071 125.895 86.5171 126.919 89.2866C126.925 89.3034 126.932 89.3222 126.936 89.339C127.15 90.0839 127.2 90.7951 127.133 91.4623C127.232 94.9808 123.944 97.081 123.795 97.1734C122.693 97.8615 122.282 98.1196 121.961 97.6454C121.64 97.1713 122.035 96.8859 123.082 96.1201C123.113 96.097 125.778 94.1059 126.078 91.3742C126.071 91.242 126.059 91.1077 126.038 90.9714C125.467 87.2052 122.112 84.4651 118.061 84.4609C118.031 84.4609 118.002 84.4609 117.973 84.4546C117.585 84.4001 117.203 84.3959 116.798 84.4378C115.833 84.5406 114.899 84.9141 113.995 85.275C113.791 85.3568 113.59 85.4365 113.388 85.5142C113.03 85.7093 112.669 85.9422 112.285 86.2233C111.494 86.8045 110.73 87.5095 109.989 88.1935C109.335 88.7977 108.657 89.425 107.956 89.9685C107.879 90.0293 107.788 90.0734 107.692 90.0985C107.253 90.2139 106.92 90.3084 106.607 90.4007C105.296 90.7888 104.358 91.1833 103.563 91.6763C103.527 91.6994 103.483 91.7225 103.437 91.7393C102.919 91.9365 102.384 92.098 101.847 92.2134C100.164 92.5827 98.3889 92.5407 96.7125 92.0917C91.7883 90.772 88.446 86.1835 88.6768 81.1186C88.488 81.0683 88.2677 81.0137 87.997 80.955C87.1745 80.8249 86.7129 81.3012 86.0311 82.0859C85.4499 82.7552 84.789 83.5126 83.7148 83.5755C81.8747 83.6846 81.2893 81.7627 80.9054 80.4934C80.8215 80.2185 80.7417 79.9542 80.6599 79.736C77.2442 78.326 73.4109 77.2875 68.9441 76.5615C67.6705 76.3538 66.2983 76.165 64.752 75.9825C63.7156 75.9132 62.6581 75.8188 61.5209 75.6908C60.5285 75.5796 59.4711 75.4432 58.292 75.2733C55.2959 74.8432 52.2977 74.1928 49.3981 73.5654L48.6847 73.4102C45.8313 72.7933 42.7953 72.1933 39.6901 71.8807C40.479 72.1261 41.3015 72.273 42.1554 72.4262C42.4743 72.4828 42.7953 72.5416 43.1163 72.6045C44.7046 72.9171 46.4188 73.3346 48.5148 73.9179C51.6766 74.7991 53.1432 75.4642 55.1721 76.3874C56.0155 76.7713 56.9722 77.2057 58.1996 77.726L58.9864 78.0596C59.6452 78.3386 60.3019 78.6177 60.9587 78.8925C61.8776 79.266 62.8574 79.6709 63.9464 80.1283C65.5157 80.7745 67.0243 81.4942 68.4216 82.2663C69.9302 83.1307 71.3359 84.0812 72.6032 85.0966C73.9585 86.1814 75.2111 87.3815 76.3294 88.6655L76.7574 89.0956C78.0897 90.665 79.5983 92.1757 81.1257 93.466L81.1697 93.5059L81.3061 93.6401C85.5758 90.9063 91.2239 91.5085 94.8284 95.113C96.4734 96.7579 97.5287 98.8372 97.8812 101.13C97.963 101.661 98.0071 102.2 98.0155 102.782V102.809L98.0134 102.853C97.9001 104.292 98.3092 105.767 98.7687 107.148C98.8694 107.452 98.9743 107.754 99.0771 108.052L99.2114 108.442C102.463 110.88 105.829 113.887 105.029 118.689C104.631 121.211 102.814 123.247 100.166 124.128L100.145 124.134C99.7527 124.247 99.3436 124.302 98.9281 124.302L98.9323 124.289ZM97.1049 122.812C98.0406 123.244 98.9974 123.358 99.8492 123.116C102.111 122.359 103.661 120.637 103.997 118.509C104.708 114.246 101.677 111.579 98.5085 109.212C98.391 109.124 98.3029 109.003 98.2547 108.862L98.0889 108.384C97.984 108.079 97.8791 107.775 97.7763 107.467C97.2832 105.988 96.8447 104.395 96.9685 102.771C96.9601 102.244 96.9203 101.756 96.8468 101.279C96.5279 99.2106 95.5733 97.3307 94.0878 95.8453C90.777 92.5344 85.5569 92.0288 81.6775 94.643C81.3879 94.8382 80.9977 94.8025 80.7501 94.557L80.4396 94.2486C78.8765 92.9247 77.3323 91.3805 75.9727 89.7796L75.5552 89.36C74.4705 88.1137 73.2599 86.9535 71.9506 85.9065C70.7254 84.9246 69.3658 84.0056 67.9097 83.1727C66.5543 82.4237 65.0835 81.7208 63.5456 81.0893C62.4567 80.6319 61.4811 80.229 60.56 79.8535C59.897 79.5744 59.2382 79.2954 58.5794 79.0163L57.7926 78.6827C56.5505 78.1582 55.5875 77.7197 54.7378 77.3336C52.6774 76.3979 51.3178 75.7789 48.2336 74.9208C46.1649 74.3438 44.4738 73.9326 42.9149 73.6263C42.6002 73.5633 42.2855 73.5088 41.9708 73.4521C40.5545 73.1983 39.0901 72.936 37.7284 72.1807C37.5836 72.0989 37.4388 72.0149 37.3046 71.9268C37.0989 71.7946 36.9815 71.6226 36.9563 71.4191C36.9332 71.2323 36.994 71.0456 37.122 70.9071C37.2458 70.775 37.4011 70.7141 37.5354 70.6868C37.0276 70.6596 36.7339 70.6449 36.7171 70.6449C36.287 70.6218 35.9639 70.6029 35.7478 70.5882C35.4205 70.5651 34.9232 70.5274 34.9442 70.0091C34.9631 69.4909 35.4603 69.493 35.7897 69.493C36.0058 69.493 36.3289 69.4993 36.7591 69.5098C36.8807 69.5119 48.9826 69.7784 56.2799 68.0201L56.3449 68.0075C57.2513 67.8712 58.1745 67.7453 59.0683 67.6236C59.4291 67.5732 59.79 67.525 60.1509 67.4746C61.4055 67.3026 62.6833 67.1137 63.9506 66.9102C65.0122 66.755 66.0592 66.5871 67.0683 66.4109C68.772 66.1339 70.4316 65.836 72.0115 65.5255C75.4755 64.8436 78.6352 64.0883 81.6733 63.2134C81.7782 63.1819 81.8915 63.1777 82.0006 63.1966C82.2503 63.2406 82.4999 63.2763 82.7454 63.3036C83.5364 63.3917 84.2204 63.8323 84.8813 64.2582C85.5254 64.6715 86.1339 65.0639 86.7885 65.1163C88.4733 65.2527 88.8425 64.0673 89.3062 62.1223C89.3545 61.9167 89.4027 61.7132 89.4552 61.5139C89.5202 61.2621 89.7174 61.0607 89.9713 60.9873C90.3133 60.8908 90.6742 61.0523 90.8315 61.3733C90.9343 61.5831 91.0455 61.7929 91.163 61.9944L91.8995 63.2218C93.1458 64.3191 94.2389 65.2359 94.4802 65.4038L94.7193 65.5423C96.9916 66.862 99.6415 67.2145 102.18 66.5347C103.716 66.1234 105.086 65.3744 106.251 64.3107C106.611 63.9792 106.953 63.6183 107.262 63.2364C108.051 61.8307 109.217 60.6977 110.268 59.7431C110.319 59.4074 110.344 59.0927 110.21 58.5115C108.756 54.3593 110.556 49.7015 114.228 48.128C116.766 47.081 119.55 47.8195 121.162 49.9617C122.089 51.101 121.963 52.2927 121.76 53.3711C121.959 53.004 122.091 52.5214 122.161 51.9129C122.255 50.4611 121.942 49.9659 121.898 49.903C120.713 48.8371 118.401 47.744 116.833 47.5111C116.798 47.5069 113.164 47.0097 110.81 49.3637C110.392 49.7813 109.822 50.3499 108.986 50.1296C108.741 50.0687 108.489 50.0016 108.237 49.9365L107.881 49.8421C105.988 49.2588 104.324 48.707 103.131 47.8888C102.68 47.7167 102.212 47.5762 101.74 47.4733C100.198 47.1355 98.6386 47.1712 97.1028 47.5824C92.5793 48.7952 89.5328 53.0606 89.8559 57.7268C89.8811 58.0772 89.6524 58.3982 89.3146 58.4884L87.0864 59.0864C86.0185 59.485 84.94 59.7284 83.8952 59.9634C83.7085 60.0054 83.5217 60.0473 83.3392 60.0893L82.8084 60.2299C81.3649 60.6159 79.7703 61.0439 78.096 61.4908C76.7134 61.8748 75.272 62.2419 73.818 62.5797C72.4248 62.9049 70.975 63.2134 69.5105 63.4987C68.1908 63.7505 66.8187 63.9876 65.4297 64.2037C64.387 64.3673 63.3274 64.5205 62.3035 64.6695L61.3447 64.8079C59.7145 65.0681 58.4619 65.2842 57.2891 65.5108C56.3029 65.7017 55.2308 65.9241 53.9153 66.2116C50.2184 67.1012 46.3768 67.7516 42.1827 68.2027C41.784 68.2446 41.4378 67.9782 41.377 67.5795C41.3182 67.183 41.57 66.8242 41.9645 66.7487C45.8942 65.9913 49.2218 65.0555 52.134 63.8869C53.311 63.4358 54.5384 62.9448 55.8938 62.3804C56.9743 61.9314 58.1535 61.4279 59.6054 60.7984C61.0489 60.2026 62.5259 59.5564 63.9988 58.8703C65.2996 58.1905 66.5417 57.4541 67.6873 56.6799C70.1568 55.0098 72.3157 53.0795 74.1054 50.9373L74.1579 50.8807L74.6153 50.4296C75.4104 49.7288 76.3 49.6994 77.0826 49.6722C77.519 49.6575 77.9324 49.6428 78.3058 49.519C79.3926 49.112 79.571 48.0189 79.7787 46.7558C79.8836 46.1159 79.9927 45.455 80.2403 44.8738C80.278 44.7878 80.3326 44.7059 80.3997 44.6388L80.9788 44.0597C81.2767 43.7618 81.7509 43.7156 82.1055 43.9485C85.966 46.4809 91.1421 45.9459 94.4109 42.6771C95.5355 41.5525 96.3475 40.2202 96.8237 38.7158C96.9706 38.2522 97.0881 37.7612 97.1741 37.2535C97.1972 36.9199 97.2308 36.5548 97.279 36.1205C94.4739 33.8377 92.2331 29.417 93.5297 25.5628C93.7311 24.9753 94.0144 24.3983 94.3731 23.8423C95.6509 21.589 98.2274 20.242 101.272 20.2399C101.295 20.2399 101.316 20.2399 101.337 20.242C103.12 20.3826 104.715 21.291 105.802 22.6527C105.648 22.4156 105.474 22.1869 105.281 21.9645C104.071 20.5819 102.289 19.7594 100.512 19.7594C100.504 19.7594 100.495 19.7594 100.485 19.7594C99.631 19.7804 98.9239 19.8161 98.2945 19.9231C95.7411 20.3469 93.4059 22.3149 92.0422 25.1893C91.9351 25.4138 91.7253 25.5691 91.4799 25.6026C90.9385 25.6761 90.2986 25.76 89.6713 25.8229L89.388 25.8523C88.232 25.9698 87.0382 26.0915 85.9262 26.0558C85.4415 26.1335 84.9652 26.2468 84.5015 26.3936C82.9972 26.8699 81.6649 27.6819 80.5403 28.8065C77.2295 32.1173 76.7238 37.3374 79.3381 41.2147C79.5353 41.5063 79.4976 41.8966 79.25 42.1441L76.5392 44.857C76.0252 45.4801 75.6118 45.8914 75.0768 46.3194L71.3716 50.0225C70.3708 51.1555 69.2672 52.2256 68.0922 53.2012C66.9823 54.1223 65.7696 54.993 64.4856 55.7882C63.2813 56.554 62.0035 57.2799 60.6922 57.9387C57.908 59.4619 54.9203 60.8446 51.8277 62.0447C50.3254 62.628 48.7854 63.1714 47.2517 63.6603C42.2414 65.2234 37.3381 66.0311 32.1453 66.8851C31.0291 67.0697 29.9108 67.2522 28.7862 67.4453C28.3981 67.5124 28.0078 67.5795 27.6176 67.6488C27.2504 67.7138 26.8602 67.7809 26.4825 67.8292C26.386 67.8418 26.2895 67.8334 26.193 67.8061C25.681 67.6614 25.2362 67.6739 24.7201 67.6865C24.4096 67.6949 24.0907 67.7033 23.7319 67.6781C23.4088 67.6635 23.0731 67.6614 22.7521 67.6677C20.805 67.7138 18.2223 68.1922 16.9676 70.2064C16.6319 70.9029 16.8459 71.7149 17.2194 72.1261C17.4858 72.4199 17.7942 72.5059 18.1362 72.38L18.5055 72.2268C18.9125 72.1114 20.7274 71.7862 22.2485 71.5408C22.4164 71.5135 26.386 70.8903 29.8605 71.9793C30.2297 72.0023 30.599 72.0275 30.9662 72.0527C43.0471 72.915 51.6074 75.5293 58.72 80.5312C59.704 81.1291 60.6607 81.7481 61.5608 82.3712C62.8574 83.0426 64.1562 83.7622 65.4192 84.5092C66.869 85.2897 68.1426 86.0995 69.3091 86.9891C70.5785 87.9564 71.7199 89.0243 72.6997 90.1615C72.7815 90.2559 72.8382 90.3692 72.8633 90.4888C73.0144 91.1749 72.9116 91.8798 72.8109 92.5596C72.7039 93.2877 72.6032 93.9758 72.857 94.4626C73.5221 95.3669 74.5544 95.3648 75.7461 95.3648C76.4847 95.3648 77.2484 95.3648 77.9869 95.5809C78.1002 95.6145 78.2072 95.6753 78.2932 95.7613C78.5303 95.99 78.7129 96.1726 78.8366 96.2964L78.9143 96.374C79.1619 96.6216 79.1996 97.0118 79.0024 97.3034C76.3881 101.183 76.8938 106.401 80.2046 109.712C80.5823 110.089 80.9914 110.438 81.4215 110.746C81.8327 111.042 82.2713 111.308 82.7223 111.535C83.2616 111.728 83.7378 111.892 84.1784 112.038C84.6925 112.211 85.1708 112.359 85.6366 112.496C86.1653 112.534 86.757 112.636 87.441 112.808C87.9403 112.932 88.4921 113.096 89.1677 113.316C91.6267 111.501 94.3543 109.942 97.6315 110.593C97.6588 110.599 97.6798 110.603 97.7008 110.61C100.325 111.386 102.184 113.06 102.94 115.326C103.695 117.592 103.162 120.15 101.492 121.564C100.386 122.5 98.9114 122.915 97.0944 122.806L97.1049 122.812ZM82.716 111.535C82.716 111.535 82.7161 111.535 82.7181 111.535C82.7181 111.535 82.7181 111.535 82.716 111.535ZM87.7389 79.8703C87.8795 79.8703 88.0285 79.8828 88.1837 79.908L88.2089 79.9122C88.5991 79.9961 88.9076 80.0801 89.0733 80.1241L89.1992 80.1577C89.537 80.2479 89.7657 80.5689 89.7405 80.9193C89.4153 85.5855 92.4639 89.8531 96.9874 91.0637C98.5232 91.4749 100.084 91.5127 101.624 91.1728C102.1 91.0679 102.575 90.9273 103.036 90.7531C103.911 90.2118 104.922 89.788 106.311 89.3768C106.618 89.2866 106.945 89.1943 107.363 89.0831C108.011 88.5732 108.655 87.9794 109.278 87.4046C110.038 86.7017 110.824 85.9758 111.664 85.3589C112.09 85.0463 112.497 84.7861 112.906 84.5637C112.937 84.5469 112.964 84.5344 112.994 84.5239C113.197 84.4462 113.401 84.3644 113.607 84.2826C114.576 83.8944 115.579 83.4958 116.687 83.3762C117.169 83.3237 117.626 83.33 118.088 83.393C118.182 83.393 118.275 83.393 118.369 83.3972C117.717 83.2335 117.157 83.1076 116.611 83.0027C116.208 82.9251 115.797 82.8559 115.4 82.7887C114.695 82.6712 114.03 82.56 113.437 82.4027C113.296 82.3649 113.17 82.2873 113.074 82.1782C112.795 81.8593 112.467 81.5131 112.046 81.0914C111.787 80.8333 111.523 80.5752 111.261 80.3192C110.34 79.4192 109.469 78.5694 108.884 77.7323C108.529 77.3085 108.225 76.9266 107.952 76.5678C107.631 76.1419 107.373 75.7664 107.159 75.4181C106.84 75.0278 106.496 74.6648 106.135 74.3375C104.969 73.2738 103.599 72.5248 102.065 72.1135C97.5413 70.9008 92.7681 73.0724 90.7161 77.277C90.5609 77.5938 90.2042 77.7554 89.8664 77.6651L86.7591 76.8322C86.5052 76.765 86.2388 76.6958 85.9618 76.6224C85.8758 76.5993 85.794 76.5615 85.7184 76.507C85.5947 76.4168 85.3492 76.3349 85.0848 76.3286C85.0114 76.3286 84.9358 76.3182 84.8666 76.2972C84.6988 76.2447 84.5666 76.207 84.4428 76.1755C84.2854 76.1356 84.1344 76.1062 83.9833 76.0874C83.956 76.0832 83.9246 76.0769 83.8931 76.0685L83.8658 76.0601C83.6959 76.0139 83.5238 75.9657 83.3518 75.9153C79.6423 74.8222 75.6349 73.9641 71.1009 73.2969C69.7938 73.1038 68.4384 72.9255 66.9571 72.7535C65.6186 72.5667 64.2212 72.3968 62.7924 72.2478C61.6154 72.124 60.3754 72.0065 59.1039 71.9016C57.5765 71.7757 56.1854 71.6771 54.8532 71.5953C49.8261 71.3226 42.896 70.9575 39.2306 70.7666C42.5876 71.0645 45.8544 71.7065 48.9134 72.3674L49.6268 72.5227C52.5075 73.1479 55.4889 73.792 58.4472 74.2179C59.6159 74.3858 60.6607 74.5201 61.6447 74.6313C62.7714 74.7572 63.8163 74.8516 64.8423 74.9187H64.8695C66.4368 75.1054 67.8279 75.2985 69.1203 75.5083C73.7215 76.2573 77.6701 77.3336 81.1928 78.8002C81.3754 78.8757 81.5159 79.0163 81.5915 79.1968C81.709 79.4842 81.8118 79.8178 81.9188 80.1703C82.3447 81.5739 82.7202 82.5621 83.6623 82.5097C84.2959 82.4719 84.7365 81.9663 85.2485 81.3788C85.8422 80.6969 86.564 79.8661 87.7452 79.8661L87.7389 79.8703ZM103.013 90.7699C103.013 90.7699 103.009 90.772 103.007 90.7741C103.007 90.7741 103.011 90.772 103.013 90.7699ZM107.149 75.4013C107.149 75.4013 107.149 75.4013 107.149 75.4055C107.149 75.4055 107.149 75.4034 107.149 75.4013ZM84.1197 75.0509C84.1197 75.0509 84.126 75.0509 84.1281 75.0509C84.126 75.0509 84.1218 75.0509 84.1197 75.0509ZM107.283 63.2092C107.283 63.2092 107.283 63.2092 107.281 63.2113C107.281 63.2113 107.281 63.2113 107.283 63.2092ZM121.907 49.903L121.921 49.9155C121.917 49.9113 121.911 49.9072 121.907 49.903ZM85.9618 26.0474C85.9618 26.0474 85.9597 26.0474 85.9576 26.0474C85.9576 26.0474 85.9597 26.0474 85.9618 26.0474Z" fill="currentColor"/>
<path d="M80.4997 82.6341C80.4032 82.6341 80.2941 82.6174 80.1724 82.5859L78.7667 82.1872C78.4939 82.1096 78.0491 81.9774 77.7785 81.8956L77.6988 81.8641L72.4829 79.2877L72.4451 79.2583C72.2353 79.1009 71.9206 78.8743 71.8744 78.8429L71.459 78.5638L71.7212 78.1316C71.9143 77.8169 72.1535 77.8358 72.4577 77.9742V77.97H72.4619C72.4619 77.97 72.4745 77.9784 72.485 77.9868C72.5857 78.0351 72.6948 78.0938 72.8102 78.1589L74.6355 78.9645C75.009 78.8114 75.5755 79.166 75.6909 79.2436C75.8126 79.3254 75.9091 79.3884 75.9615 79.4219C75.9888 79.4366 76.0098 79.4513 76.0224 79.4597L76.4441 79.7576V79.7618L76.7043 79.8772L78.217 80.087C78.5002 80.1269 78.7709 80.1437 79.0206 80.1353L79.6122 80.1185L79.5577 80.7081C79.5451 80.8382 79.5052 80.9536 79.4423 81.0522L80.5396 81.5263C80.9634 81.7089 81.125 81.9627 81.0138 82.2838C80.934 82.5166 80.7599 82.6341 80.4997 82.6341Z" fill="currentColor"/>
<path d="M81.4212 67.8293L74.9402 67.7936L74.8835 67.781C74.5562 67.7055 74.0841 67.6048 74.0317 67.5943L73.5449 67.5061L73.6037 67.0131C73.6477 66.6522 73.847 66.5662 74.2184 66.5641C74.2184 66.5641 74.2226 66.5641 74.2247 66.5641C74.3527 66.5641 74.5163 66.5746 74.6968 66.5872L77.2166 66.4718C77.5586 66.2158 78.295 66.306 78.3286 66.3102C78.5132 66.3333 78.658 66.3522 78.7315 66.3606C78.7587 66.3606 78.7818 66.3648 78.7965 66.3669L78.9559 66.3921L80.0554 66.3417L81.438 65.792C81.7632 65.6619 82.0611 65.515 82.3234 65.3535L82.8291 65.043L83.0745 65.5822C83.1689 65.7899 83.1648 65.9682 83.1312 66.1004L84.7362 65.9179C84.9356 65.8948 85.4748 65.8298 85.5713 66.3354C85.6678 66.841 85.1454 66.9816 84.9482 67.0341C84.8936 67.0488 83.5781 67.4012 82.6025 67.6194L82.4388 67.6551C82.2437 67.6971 81.8157 67.7684 81.459 67.823L81.4191 67.8293H81.4212Z" fill="currentColor"/>
<path d="M70.3913 56.9105L70.1836 55.8845C70.3158 55.8489 70.5529 55.8006 70.79 55.7566C71.4131 55.5803 71.9712 55.274 72.5314 54.9299L72.5503 54.7033C72.5901 54.2396 73.4126 53.9144 73.4483 53.9018C73.6182 53.8368 73.7483 53.7843 73.8112 53.7592C73.8322 53.7508 73.8469 53.7424 73.8595 53.7382L74.3462 53.5577L74.4386 53.7801C74.5309 53.7235 74.6232 53.6647 74.7134 53.6039C75.2002 53.2787 75.6534 52.8192 75.6576 52.815C75.6597 52.8129 75.6618 52.8108 75.666 52.8066C75.5715 52.6912 75.4226 52.4164 75.7289 52.0513L75.796 51.9653C75.9723 51.7429 76.0289 51.6631 76.0394 51.6464C76.3415 51.1512 76.6584 51.147 76.8724 51.233C76.9773 51.275 77.122 51.3652 77.1892 51.5603C77.9361 51.0106 78.7061 50.4358 78.7166 50.4295C78.8803 50.3078 79.3146 49.9847 79.6503 50.3728C79.986 50.761 79.6041 51.1449 79.4593 51.2897C79.4195 51.3295 78.4564 52.2926 77.72 52.9703L77.5962 53.0836C77.5081 53.1633 77.2668 53.4444 77.0654 53.7319C77.0465 53.7592 76.5828 54.418 76.0436 54.8796C75.9072 54.997 75.7646 55.1061 75.6198 55.209C74.0714 56.2706 71.4236 56.7133 71.3124 56.7322C71.218 56.7469 71.1194 56.7657 71.0249 56.7825C70.8214 56.8371 70.6095 56.8832 70.3892 56.9126L70.3913 56.9105ZM76.2262 51.9716C76.2576 52.0345 76.308 52.0996 76.3814 52.152C76.4024 52.1352 76.4234 52.1184 76.4423 52.1037C76.436 52.0975 76.4318 52.0933 76.4255 52.087C76.3646 52.0303 76.2954 51.9926 76.2241 51.9695L76.2262 51.9716Z" fill="currentColor"/>
</svg>
