<svg width="143" height="143" viewBox="0 0 143 143" fill="none" xmlns="http://www.w3.org/2000/svg">
<path d="M62.213 109.792C64.7947 102.276 65.2315 101.409 66.9119 107.52C66.4239 100.553 69.163 95.9567 76.8528 98.9986C70.316 94.9833 70.7135 93.9903 77.1125 90.0693C72.6419 91.9179 74.1806 90.8346 77.7854 88.4836C76.105 89.2097 76.4986 88.6641 77.7225 87.573C78.0255 87.1648 79.1589 86.211 80.3159 85.2337C81.8586 83.9345 83.4446 82.5961 85.0148 81.2734C86.589 79.9468 88.1474 78.6319 87.8444 79.8643C91.1147 76.1278 92.5314 74.9346 96.6636 74.7383C95.1013 72.7641 111.555 66.2251 115.022 64.1213C99.2452 69.9577 113.547 62.4571 114.967 61.4484C114.629 61.5386 109.162 64.6982 114.381 61.0637C114.007 61.3071 97.5924 71.5159 112.94 60.632C110.981 61.8055 110.135 61.9468 111.142 60.0746C108.58 62.6965 107.876 63.3049 109.434 61.311C106.541 63.5247 103.641 67.3908 105.16 59.635C105.373 63.3795 91.7522 71.0371 91.095 69.7026C91.2721 71.1234 93.1139 69.1531 90.8077 66.2525C92.6219 69.3022 92.618 70.0087 89.4618 70.2992C91.9136 70.1108 91.3193 69.4985 88.478 67.6655C91.0557 69.5613 91.3823 70.2364 88.722 70.8369C91.6381 70.3227 91.1068 69.7301 87.9113 68.2503C90.2292 69.785 87.5531 71.8417 84.3733 72.9132C87.1793 71.8849 89.4775 69.8753 87.0966 68.9019C89.5799 69.8949 87.38 71.9241 84.5622 72.9485C87.2383 72.0576 89.2926 70.1657 86.77 69.4514C88.9266 70.2325 86.5024 72.1949 84.027 73.0624C86.7188 72.454 89.3595 70.7584 86.9274 70.1657C90.1466 70.9036 88.2891 72.7484 85.2981 73.5059C88.2143 72.7601 89.9931 70.9311 86.8093 70.2521C89.0683 70.778 86.3646 72.4579 83.8696 73.0113C86.1049 72.2028 88.5488 70.2717 86.5968 69.6005C89.0132 70.2168 87.0376 72.089 84.5268 72.9564C87.136 71.9712 89.2139 69.9734 86.8211 69.157C88.9227 69.9499 86.5535 71.9241 84.0742 72.8818C86.9431 71.8927 89.7058 69.8871 87.5413 68.6114C90.7644 69.8596 91.402 70.4248 88.5724 70.9703C91.2091 70.4326 90.3984 69.8871 87.3406 68.7841C89.513 69.9499 87.1124 71.9712 84.5425 72.9564C86.9668 72.0929 88.7771 70.2207 86.4001 69.679C87.927 70.2246 85.2706 72.1007 83.476 72.7876C85.2234 72.3912 85.4988 72.2146 83.8932 71.9948C82.8621 71.8024 96.6636 69.7575 84.6134 73.6197C86.2151 72.9721 85.5776 73.4235 83.6964 74.2006C85.5894 74.334 85.7586 74.6716 84.0427 75.5626C86.3489 75.437 86.7661 75.8648 85.125 77.5565C86.0616 75.645 85.1289 75.0955 83.543 75.0759C84.8416 74.5264 85.4792 74.5107 84.6488 75.6646C85.428 74.3105 84.0309 73.9101 82.7205 73.7335C82.5237 73.5255 82.4135 73.5412 82.5906 73.8199C83.6295 74.0632 84.9558 74.5735 84.6252 76.2377C85.1643 74.86 83.7004 74.5185 82.3741 74.4322C81.5123 74.3026 80.7921 74.4282 80.3671 74.8639C79.521 75.7392 79.8594 77.8548 80.7921 81.815C77.9783 75.7392 77.5296 77.0541 76.6245 82.5294C77.4037 76.5203 77.6634 75.0052 78.0294 82.2389C77.7815 73.4549 77.6398 73.4117 75.3179 81.9563C76.8488 74.754 76.1995 76.1395 73.7517 81.8033C76.1995 76.1356 76.8291 74.7462 74.3459 81.662C77.3329 73.2665 74.7945 78.8124 69.2574 85.8264C73.6729 79.8879 72.6812 81.0536 68.6671 85.8028C72.5041 80.8024 75.7272 73.761 67.9863 74.0868C70.7253 73.2743 72.512 72.6542 73.4486 72.0301C74.3853 71.406 74.4679 70.7662 73.5982 70.5386C73.362 69.8086 72.8898 69.1806 72.1578 68.6585C71.3707 68.0462 70.3278 67.5438 69.2613 67.956C70.3436 67.6223 71.1936 68.0737 71.6738 68.5879C72.0201 68.8823 71.9965 69.2394 71.6344 69.6045C71.6265 69.3729 71.2763 69.1531 70.745 69.0393C70.0957 68.6742 69.2653 68.4152 68.4231 68.7253C69.1236 68.2229 69.8162 68.2857 70.4105 68.6664C70.7411 68.4584 70.9693 68.5683 70.9418 68.9058C71.414 68.1483 71.6265 67.6184 71.6619 67.587C71.1385 66.7275 70.4341 66.3664 69.6352 67.2456C70.7135 66.1387 71.6934 66.2722 72.4569 66.9904C72.5789 66.9551 72.4844 67.5085 71.961 68.4937C72.6537 67.2848 72.9173 66.5155 72.9567 66.4095C72.2247 65.5343 71.2605 65.3302 70.2609 66.5979C71.3078 65.2831 71.9965 65.0201 72.6143 65.4832C71.6187 64.4863 70.5522 64.2115 69.6824 65.7266C70.4302 64.0702 71.3865 64.2115 72.5474 65.4087C72.0004 65.0672 71.6619 65.7894 71.0756 67.5085C71.8666 65.9974 72.4057 65.4911 72.8544 65.8326C72.083 65.0476 71.2212 65.1104 70.2846 66.5979C71.2133 65.2595 72.0634 65.3419 72.7678 66.1976C72.4569 66.0445 71.9965 66.6568 71.2251 67.9952C71.6856 66.7 71.8312 66.1269 72.0397 66.488C71.0992 65.495 70.2177 65.4401 69.403 66.9159C70.1704 65.3733 71.0087 65.3655 71.9532 66.3664C71.6305 65.8718 71.418 66.3821 70.9536 67.7793C71.6974 66.3036 72.1972 65.7148 72.6497 66.0053C71.8902 65.1064 71.0874 65.0868 70.2491 66.5548C71.3432 65.2203 72.0673 64.9573 72.7009 65.389C71.6934 64.3842 70.5994 64.0702 69.7021 65.5303C70.4616 63.7641 71.2054 63.5561 72.4057 64.294C71.0402 63.1479 70.1271 62.9516 69.5959 64.4117C69.7297 62.3904 70.2688 62.0685 71.8981 62.6455C70.0799 61.5072 69.3479 61.2678 69.2377 61.8173C69.0331 60.8282 69.4502 60.6241 71.2133 60.6163C69.3086 60.106 68.7497 59.792 68.8835 58.8814C67.943 58.6577 61.666 32.2819 61.0875 29.3696C60.5523 30.6099 70.7568 74.652 59.0804 27.3207C71.3865 82.7806 57.8605 27.1284 57.5732 26.0962C58.9702 33.6399 64.6097 55.0036 54.8145 25.2052C55.2985 27.305 64.2988 51.7105 57.7345 43.5741C58.7853 46.4864 65.0544 59.9569 64.1217 62.8731C65.259 63.3088 65.3732 65.1535 65.3417 68.1365C65.6132 69.0275 65.7392 71.0567 65.869 73.1055C65.9989 75.1544 66.1248 77.2228 66.2468 79.2324C66.3413 80.7396 66.4318 82.2193 66.3609 82.6157C66.42 84.331 66.3216 84.9668 65.7824 83.1299C66.479 87.4788 66.7348 89.3588 65.385 84.6607C66.6325 92.2555 66.2744 93.276 58.8443 91.4744C66.3688 94.7832 64.8458 99.8856 61.0718 105.651C65.0426 101.322 64.7907 102.272 62.2091 109.784L62.213 109.792Z" fill="currentColor"/>
<path d="M64.6566 105.992C64.2355 105.312 63.7593 104.535 63.3539 103.821C62.9486 103.107 62.5472 102.369 62.437 102.035C62.2206 101.533 62.2166 101.313 62.6023 101.627C62.8305 101.713 63.5232 102.432 64.5424 103.593C63.8537 102.62 62.3504 100.5 61.9136 99.8097C61.3784 99.0679 60.9022 98.3967 60.8077 98.2711C60.5913 97.961 60.7487 98.1926 61.2485 98.8834C60.5126 97.8119 59.2218 95.9043 59.3831 96.1438C58.6629 94.5424 58.1671 93.6318 58.7928 94.8838C57.7302 93.4434 57.6476 93.2942 58.7102 94.6798C58.0844 93.6946 59.3438 95.2096 60.6543 96.6972C59.4185 95.1664 58.293 93.7024 59.1313 94.5777C58.1671 93.2471 58.596 93.4905 60.0482 94.6052C59.1234 93.7731 60.1427 94.6601 61.3862 95.6178C61.6263 95.6296 63.2595 96.8032 64.2552 97.3998C63.5232 96.9562 62.3504 96.1438 62.0317 95.9868C61.1029 95.2763 60.1663 94.4482 60.914 94.9466C58.7967 93.5415 57.5925 92.4935 58.8991 93.4748C57.3603 92.4268 58.0923 93.306 60.1859 95.3431C58.7338 93.883 58.0175 92.1481 58.7102 92.9842C56.3804 91.371 58.3402 91.5869 59.0289 92.2463C57.8916 91.3749 57.8129 91.1826 58.8912 91.4652C58.0844 91.108 58.3796 91.4142 59.7727 92.5014C58.9305 91.7753 59.8829 92.3483 61.8231 93.3963C59.9065 92.313 58.9778 91.7046 59.9301 92.2855C58.5213 91.2179 58.2891 90.8725 59.3871 90.8215C58.1435 90.7391 56.8566 90.2131 59.0329 89.4556C57.7302 89.8167 58.5921 89.7853 60.7448 89.593C59.8003 89.5655 62.1104 89.2083 63.8656 88.9414C62.1104 89.2005 59.8121 89.538 60.7605 89.5145C58.6157 89.7029 57.7657 89.7107 59.0722 89.2123C56.9156 89.9776 56.6126 90.0012 58.0805 89.2554C56.8999 89.7735 57.1872 89.8638 58.962 89.8403C57.8326 89.856 59.0801 89.7186 61.3587 89.4281C59.0801 89.6793 57.8247 89.7735 58.9384 89.5891C57.1596 89.6479 56.8645 89.4988 57.9349 88.6392C56.5103 89.4949 56.7779 88.9964 58.4662 87.2302C57.4744 88.2428 58.2537 87.6698 59.9616 86.3706C59.2651 86.8887 61.0911 85.4561 62.3898 84.569C60.3512 85.6288 59.084 86.3549 59.9656 84.9576C58.9856 85.719 59.8632 84.3178 60.8077 83.0736C60.8943 82.9245 60.5874 82.6733 60.9848 82.1552C61.3823 81.6371 61.764 81.1268 62.0867 80.6558C60.06 81.5311 62.4842 77.2293 62.4173 75.8085C62.3504 74.3876 63.0863 72.5311 63.0273 71.2673C62.7912 66.2159 62.622 62.6795 62.622 62.6795L60.9337 65.8194C59.9223 67.7034 58.5724 70.2154 57.2226 72.7274C56.5496 73.9834 55.5973 78.3715 55.2391 76.4169C54.9322 78.3008 54.7708 81.1504 54.4875 81.4408C54.3261 83.003 53.9719 82.3357 53.5115 79.6353C53.6059 80.6794 53.8775 82.5437 53.7515 82.3161C53.9995 83.9018 54.2356 85.2873 53.909 84.2432C54.3182 86.453 54.4481 87.2262 53.7712 85.4953C54.2435 86.9515 54.0585 86.4923 53.4013 84.7221C53.783 85.7858 53.2518 84.3375 52.6772 82.7086C53.2478 84.3728 53.8303 86.0213 53.417 85.0322C54.1097 86.9083 54.3261 87.5206 53.7397 86.2254C54.4993 88.1447 54.4442 88.1211 53.5076 86.2371C54.1175 87.5049 53.7988 86.8612 52.9133 85.0557C53.3698 85.9742 52.5631 84.31 51.8232 82.7753C52.5631 84.31 53.3698 85.982 52.9015 85.0675C53.783 86.8769 54.0939 87.5285 53.4367 86.2882C54.3655 88.18 54.3576 88.2546 53.2714 86.5119C53.9759 87.7443 53.6296 87.2223 52.5473 85.5463C53.1101 86.4726 52.1774 85.0361 51.1975 83.5525C52.1459 85.0243 52.9723 86.3235 52.3269 85.3854C53.3541 86.9868 53.6059 87.4186 52.7008 86.19C53.7043 87.7914 52.929 87.4657 51.3588 85.8407C52.079 86.7709 51.1384 85.8329 49.9224 84.6397C50.127 84.9537 48.6985 83.5799 47.8681 82.8577C49.214 84.2354 50.3395 85.5228 49.4816 84.9968C50.1231 85.8407 48.9031 85.1185 47.6635 84.467C46.9984 84.2472 45.3888 83.368 44.0901 82.7792C45.9949 84.4944 41.2369 82.7204 39.7612 82.689L34.0863 82.5712L27.9746 82.4456C27.9746 82.4456 30.9458 84.3806 35.1922 87.1438L38.5884 89.3536C39.7808 90.1307 44.3853 90.4447 42.3034 91.7713C42.9134 91.7242 43.5785 91.6457 44.2397 91.5672C44.9087 91.4848 46.105 91.3278 46.1562 91.3474C47.7933 91.163 49.9263 91.0413 48.5922 91.4848C50.1349 91.3318 50.0365 91.528 48.5725 92.1874C49.5839 92.0265 48.242 92.6976 46.9472 93.4316C48.4269 92.7487 50.5757 91.9166 49.7532 92.2816C51.7406 91.4573 52.5788 91.0845 51.1896 91.4063C53.5587 90.9078 54.0782 90.9432 52.6418 91.7046C53.905 91.2297 53.8814 91.5829 52.9605 93.1215C53.665 92.2345 52.9684 93.2746 51.6067 95.1036C52.9999 93.2982 53.7319 92.2855 53.1573 93.2668C54.0467 91.7203 54.1175 91.3945 53.1022 92.1246C54.4481 91.2729 54.3104 91.4966 52.6103 92.8703C53.6886 92.0225 53.3068 92.7173 52.1026 94.4757C52.6142 93.6318 51.225 95.3823 50.0444 96.8228C51.2329 95.3862 52.6378 93.6318 52.1616 94.4992C53.3698 92.7447 53.7752 92.05 52.811 92.9567C54.5032 91.5672 54.4914 93.1255 53.9326 94.2048C54.5229 93.3139 54.6764 93.726 54.7944 95.5079C54.8338 94.3854 54.8535 95.5158 54.7669 97.6902C54.8928 95.5158 54.9125 94.3893 55.0345 95.504C54.8928 93.7221 54.8102 93.2864 54.6803 94.1656C54.9873 93.1098 55.4162 91.5398 55.5776 92.9528C55.5067 91.9519 55.7468 92.6113 56.3253 94.5345C56.0341 93.4905 56.4906 95.1547 56.9786 97.1368C56.3135 94.3147 55.9829 93.204 56.1718 95.0055C55.9593 93.4041 56.2663 94.9113 56.5378 97.3958C56.4434 96.4774 56.6913 97.6549 56.8841 98.8245C56.8881 99.1228 57.077 100.567 57.1517 101.446C57.0888 100.442 56.9156 98.9187 56.9668 98.6871C56.8054 97.4979 56.6205 96.497 56.8212 97.4469C56.5693 95.1429 56.4198 94.1734 57.0337 95.9397C56.6401 94.4482 56.8172 94.6837 57.4941 96.2066C57.2108 95.3509 57.9546 97.0583 58.5685 98.4556C57.7106 96.238 57.5807 95.767 58.4426 97.5371C58.1238 96.7443 58.5095 97.49 58.9817 98.4124C59.1627 98.7225 59.7767 99.9471 60.2332 100.834C60.7015 101.694 61.768 103.774 62.3544 104.834C61.7208 103.405 61.3469 102.455 61.3587 102.243C61.221 101.753 61.6893 101.725 62.0474 102.173C62.2914 102.424 62.7912 103.142 63.2556 103.837C63.7199 104.531 64.2197 105.312 64.6408 105.992H64.6566Z" fill="currentColor"/>
</svg>
