<svg width="143" height="143" viewBox="0 0 143 143" fill="none" xmlns="http://www.w3.org/2000/svg">
<path d="M113.063 53.7068C113.063 53.7068 114.094 53.94 115.949 53.6925C116.876 53.5687 118.101 53.2879 119.345 52.9927L126.815 51.222H116.384C109.614 50.6508 102.282 48.4802 95.5266 51.0364C94.9211 51.1363 94.3392 51.222 93.7289 51.222H82.1342C81.2921 51.222 80.4312 51.0554 79.5182 50.9364C78.7802 50.8174 78.0375 50.7174 77.2853 50.6365C76.5331 50.5556 75.7762 50.4985 75.0193 50.4604C66.9016 49.3465 59.1387 49.3465 50.7844 49.1609C49.9707 49.1942 49.1476 49.2656 48.2393 49.3275C43.3006 49.337 38.305 50.5937 33.073 51.2172C32.0937 51.122 31.1145 50.984 30.1258 50.8269C25.1918 50.0558 20.1584 48.9086 15.125 51.0792C19.7989 49.9939 25.0735 49.813 28.9479 52.293C29.7237 52.7881 30.438 53.3926 31.0672 54.1256C32.8128 55.8535 33.2433 58.0241 33.2433 60.1947C33.1345 62.5843 32.5431 64.8596 31.7531 67.0873C31.1571 68.7295 30.438 70.367 29.719 72.0235C27.2023 81.0343 24.8322 92.2776 16.8469 97.9659C26.3413 92.3204 37.1271 87.5461 48.4049 87.389C51.2622 87.0891 54.3939 86.9558 57.2559 86.6226C60.1179 86.2894 62.7103 85.7468 65.5818 85.4659C68.1316 85.2136 70.6814 84.9994 73.2406 84.8519C75.8519 84.7233 78.4443 84.6853 81.0272 84.7186C83.6101 84.7519 86.1789 84.8519 88.7334 84.9947C90.4885 85.0566 92.2341 85.1613 93.9797 85.2898C95.9381 85.3755 97.854 85.604 99.7368 85.9562C101.62 86.3037 103.469 86.7749 105.295 87.3509C113.2 89.8404 119.492 97.0043 126.862 99.2701C119.96 95.3621 114.35 88.8503 112.15 81.1723C111.459 78.8018 111.071 76.3599 110.982 73.9323C111.194 70.7668 111.999 67.8537 113.02 64.8691C113.971 62.0987 113.484 59.5283 113.503 56.6723C113.238 54.7159 113.049 53.6972 113.049 53.6972L113.063 53.7068ZM26.3981 90.1974C27.2117 84.5187 29.7994 78.8732 31.2895 73.4229C32.0133 71.2048 32.7134 68.9913 33.3473 66.7303C33.9812 64.4693 34.5489 62.1654 34.9794 59.7758C34.9794 57.6052 36.2756 55.8678 37.392 54.0019C38.6125 52.4453 40.3013 51.3791 42.7471 51.0887C42.3923 51.1316 41.6638 53.345 41.5171 53.7068C39.2038 59.2332 39.8377 64.7691 39.3931 70.486C39.2417 72.39 38.972 74.3178 38.4328 76.2742C37.1366 80.1822 34.9794 83.2192 32.3161 86.3799C30.4806 88.4314 28.0964 89.7976 26.4028 90.2069L26.3981 90.1974ZM43.4519 50.8555C45.4483 50.8602 47.6811 50.4985 49.4551 51.6218C52.2367 53.2593 52.6672 56.2962 52.6672 58.9047C52.2367 67.1539 51.371 75.4031 52.2367 83.6523C50.51 83.4334 48.6793 83.4334 46.8438 83.381C45.0083 83.3286 43.1776 83.2239 41.4509 82.7955C42.5295 81.2628 43.2864 79.5254 43.7689 77.7356C44.2514 75.9458 44.469 74.0989 44.469 72.3615C44.8995 64.9833 41.8814 58.0337 43.4283 50.8555H43.4567H43.4519ZM57.6107 85.6135C55.2548 85.385 53.5282 84.0855 53.9586 82.3481C54.8196 73.2325 54.3891 59.3379 61.7263 54.1304C61.7263 63.6839 66.0406 74.97 61.7736 83.3286C60.7849 84.0569 58.8123 85.3041 57.6107 85.6135ZM63.9024 82.5718C64.7492 76.7026 67.7673 71.0572 68.6141 64.9453C69.423 61.2705 70.1705 57.6528 71.2207 54.1256C72.0816 51.955 74.2388 53.2593 75.1613 54.1161C76.0885 54.7587 76.6467 55.7869 76.8974 57.1007C77.607 60.8421 76.7129 64.6882 75.9797 68.3535C75.3552 71.4618 75.3741 75.446 73.392 78.0688C72.7297 78.9446 64.2288 84.1141 63.9119 82.6146C63.9119 82.6004 63.9071 82.5861 63.9024 82.5718ZM80.6535 80.3964C78.9883 77.1358 80.2798 73.2278 79.8257 69.1436C79.8257 66.2067 79.7216 63.2935 79.3006 60.4232C78.8795 57.5529 78.1274 54.7254 76.8312 51.955C83.104 52.4596 84.7455 57.729 85.2091 63.065C85.5071 66.4971 85.6774 69.9529 85.5071 73.3991C85.3557 76.4313 84.8259 79.4016 85.8903 82.3481C85.0293 81.9149 84.1636 81.9149 83.1655 81.7673C82.0822 81.3961 81.207 81.0771 80.6535 80.3964ZM95.3799 80.2536C92.3618 81.0438 89.3437 80.6107 86.3255 81.9149C86.3255 76.2695 88.9132 71.4951 89.5755 66.2543C89.8262 64.0028 89.7174 61.7275 90.0438 59.4855C90.5736 55.8583 92.4233 52.9404 96.2504 52.3882C95.6401 52.4739 94.8785 56.6866 94.7649 57.2958C94.4385 58.9904 94.2872 60.7183 94.2493 62.4462C94.0932 67.5823 94.9542 72.7946 95.3373 78.0117C95.3752 79.354 95.3847 80.2536 95.3847 80.2536H95.3799ZM96.6619 52.2978C99.2638 51.5219 103.148 51.5219 103.148 52.393C104.009 54.2399 104.657 56.1629 105.158 58.1431C105.626 60.2852 106.005 62.4367 106.35 64.593C106.696 66.7493 107.008 68.9104 107.348 71.0762C107.623 73.4563 108.086 75.8411 108.786 78.3353C109.619 81.0438 110.504 84.0903 111.852 86.7321C109.652 85.6182 107.471 84.2997 105.612 82.6575C103.763 81.0153 102.216 79.0351 101.279 76.5884C100.432 74.6225 99.7747 72.4709 99.0793 70.3717C98.3886 68.2726 97.6601 66.221 96.695 64.4645C95.6969 61.1658 95.6448 58.2193 96.222 54.892C96.5105 53.1927 96.6666 52.293 96.6666 52.293L96.6619 52.2978Z" fill="currentColor"/>
</svg>
