<svg width="143" height="143" viewBox="0 0 143 143" fill="none" xmlns="http://www.w3.org/2000/svg">
<path d="M62.7195 81.6703C66.9188 76.0957 66.8821 67.6232 68.2116 61.015C69.7795 53.2254 71.6774 45.0482 70.1646 37.0925C69.6328 34.3052 68.45 32.1179 66.4787 30.7519C64.5166 28.9245 59.9322 26.1557 58.0984 30.7704C55.8612 38.2739 55.5586 75.6712 53.8349 83.4884C52.0561 96.3449 45.7663 108.223 43.8867 120.563C43.9692 120.766 44.0426 120.969 44.1251 121.172C46.454 119.566 61.3992 83.4238 62.7195 81.6703Z" fill="currentColor"/>
<path d="M76.3905 62.7046C77.3624 71.3894 74.6118 79.6958 78.1509 86.6271C79.3245 88.0761 81.195 88.7498 83.4872 89.5343C84.5508 89.6912 85.541 89.765 86.4946 89.9219C87.4481 90.0788 88.365 90.3096 89.0252 90.3096C88.7226 89.2021 88.365 87.6331 88.1541 86.0548C87.5306 81.3294 88.2183 76.5671 88.4659 71.7401C88.8326 64.4213 88.4659 57.0747 87.8332 49.7743C86.8521 38.4314 83.3496 27.2362 70.0273 26.1564C72.778 32.0447 74.3642 38.053 75.2719 44.1536C76.1705 50.2542 76.3905 56.4471 76.3905 62.6954V62.7046Z" fill="currentColor"/>
</svg>
