<svg width="143" height="143" viewBox="0 0 143 143" fill="none" xmlns="http://www.w3.org/2000/svg">
<path d="M18.6724 80.8761C18.4329 80.6375 18.3184 80.3366 18.3184 79.9631C18.3184 79.5897 18.4381 79.3096 18.6724 79.0813C18.9119 78.8531 19.2139 78.739 19.5887 78.739C19.9636 78.739 20.2604 78.8479 20.4843 79.0709C20.7081 79.294 20.8175 79.5897 20.8175 79.9631C20.8175 80.3366 20.7029 80.6427 20.4738 80.8761C20.2448 81.1147 21.1923 94.4718 21.1923 94.4718C21.1923 94.4718 18.9067 81.1147 18.6672 80.8761H18.6724Z" stroke="currentColor" stroke-miterlimit="50"/>
<path d="M28.9498 65.4849C29.8714 64.8261 43.679 44.876 43.679 44.876C43.679 44.876 33.7502 64.6861 34.4947 65.0647C35.2393 65.4434 35.812 65.9829 36.2233 66.678C36.6346 67.3731 36.8376 68.1771 36.8376 69.0797C36.8376 69.8992 34.9737 72.2698 34.526 73.0479C34.0782 73.8208 78.0157 74.8531 76.9953 75.6311C76.433 76.0357 75.6572 74.5937 75.475 74.9724C75.2927 75.351 75.2094 75.9476 75.2251 76.7464L67.0821 76.7671C67.0665 75.6778 67.483 76.5389 67.8214 75.8283C68.1599 75.1176 30.2775 74.2773 31.0689 73.6911C31.8759 73.105 32.4173 72.5862 32.6985 72.1401C32.9796 71.694 34.7603 69.6243 34.7603 69.0797C34.7603 68.3327 34.4947 67.7258 33.9689 67.2589C33.443 66.7921 32.761 66.5587 31.9279 66.5587C31.2927 66.5587 30.6992 66.761 30.1473 67.1708C29.5902 67.5805 29.1841 68.1096 28.9238 68.7529L26.9766 68.0422C27.367 66.9944 28.0231 66.1385 28.9446 65.4797L28.9498 65.4849ZM30.668 80.8703C30.4285 80.6316 30.3139 80.3308 30.3139 79.9573C30.3139 79.5838 73.0592 79.3037 73.2986 79.0755C73.5381 78.8472 73.8401 78.7331 74.215 78.7331C74.5899 78.7331 74.8866 78.842 75.1105 79.0651C75.3344 79.2881 32.8182 79.5838 32.8182 79.9573C32.8182 80.3308 32.7037 80.6368 32.4746 80.8703C32.2455 81.1089 31.9488 81.2282 31.5895 81.2282C31.2303 81.2282 30.9075 81.1089 30.6732 80.8703H30.668Z" stroke="currentColor" stroke-miterlimit="50"/>
<path d="M40.9453 65.4851C41.8668 64.8263 42.8612 64.4943 43.9286 64.4943C44.8918 64.4943 45.7456 64.6862 46.4902 65.0649C47.2347 65.4436 47.8074 65.983 48.2187 66.6781C48.63 67.3732 48.8331 68.1772 48.8331 69.0798C48.8331 69.8994 46.9692 72.27 46.5214 73.0481C46.0736 73.821 89.6051 73.0221 88.5846 73.8002C88.0223 74.2048 87.6526 74.5939 87.4704 74.9725C87.2882 75.3512 87.2049 75.9477 87.2205 76.7466L85.1431 76.7673C85.1275 75.678 85.544 76.5391 85.8824 75.8284C86.2209 75.1178 42.2677 74.2774 43.0591 73.6913C43.8661 73.1051 44.4076 72.5864 44.6887 72.1403C44.9699 71.6942 46.7505 69.6245 46.7505 69.0798C46.7505 68.3329 46.485 67.726 45.9591 67.2591C45.4333 66.7923 44.7512 66.5588 43.9182 66.5588C43.283 66.5588 42.6894 66.7611 42.1375 67.1709C41.5805 67.5807 41.1743 68.1098 40.914 68.753L38.9668 68.0424C39.3573 66.9946 40.0133 66.1387 40.9348 65.4799L40.9453 65.4851ZM42.6634 80.8704C42.4239 80.6318 42.3094 80.3309 42.3094 79.9575C42.3094 79.584 85.0546 79.3039 85.2941 79.0756C85.5336 78.8474 85.8356 78.7333 86.2104 78.7333C86.5853 78.7333 86.8821 78.8422 87.106 79.0653C87.3298 79.2883 44.8137 79.584 44.8137 79.9575C44.8137 80.3309 63.708 93.0397 63.708 93.0397C63.708 93.0397 43.939 81.2283 43.5797 81.2283C43.2205 81.2283 42.8977 81.109 42.6634 80.8704Z" stroke="currentColor" stroke-miterlimit="50"/>
<path d="M126.567 76.7521H106.022L52.291 64.78H54.9307L126.567 76.7521ZM95.3643 79.076C95.6038 78.8478 95.9057 78.7337 96.2806 78.7337C96.6555 78.7337 96.9522 78.8426 97.1761 79.0657C97.4 79.2887 54.8838 79.5844 54.8838 79.9579C54.8838 80.3313 54.7693 80.6374 54.5402 80.8708C54.3111 81.1094 54.0144 81.2287 53.6551 81.2287C53.2959 81.2287 52.9731 81.1094 52.7388 80.8708C52.5045 80.6322 52.3795 80.3313 52.3795 79.9579C52.3795 79.5844 95.1248 79.3043 95.3643 79.076Z" stroke="currentColor" stroke-miterlimit="50"/>
</svg>
