<svg width="143" height="143" viewBox="0 0 143 143" fill="none" xmlns="http://www.w3.org/2000/svg">
<path d="M70.9998 22.0477C71.259 29.3123 71.287 40.6892 68.5553 26.9165C68.8075 29.6206 69.0596 32.0865 69.2697 34.2722C69.4799 36.4579 69.641 38.3634 69.697 39.9256C69.8161 43.0641 69.8091 48.5844 68.4362 44.9205C68.3241 48.1851 67.4766 46.5808 66.2158 44.0519C65.5084 44.6543 63.8343 41.3828 62.2514 39.4703C63.7923 41.4668 66.0477 47.6176 66.3209 45.8172C67.8549 50.7771 68.8075 54.8473 67.8408 48.122C69.1507 56.0242 70.0122 63.0297 68.5623 53.5303C69.7811 63.8283 69.1156 62.4623 65.3543 52.6196C67.8969 61.3414 68.8425 65.0193 65.8376 57.1731C68.4362 65.5166 67.3435 64.1155 62.2373 56.2764C66.496 64.1996 65.7605 64.0385 59.7018 57.5094C63.9324 63.7933 59.3375 60.2345 53.629 56.6337C59.3025 60.3116 63.8554 63.9264 59.2535 57.9297C65.3893 64.3888 66.0547 64.8721 60.5703 57.7826C67.3926 65.7618 67.0494 65.6988 59.0153 58.5042C65.6975 65.4396 67.6517 67.6813 61.9502 61.9298C67.5747 68.1927 66.482 67.7584 58.3709 63.0787C65.9357 68.1507 65.5014 68.3539 57.0401 65.1033C64.2126 68.8512 59.9049 68.1157 51.6047 66.9598C59.2885 69.3626 54.1053 70.2523 47.7873 71.4713C51.6607 72.5712 46.4985 74.1194 44.2361 75.3523C44.5793 77.9444 41.1822 81.4401 39.7323 84.3193C38.2824 87.2056 36.9025 89.9587 35.6137 92.5228C30.4655 102.772 26.8652 109.945 26.8652 109.945C26.8652 109.945 37.659 103.059 48.4597 96.1726C49.8116 95.3109 51.4856 94.064 52.4873 93.6016C54.0983 92.3967 57.4814 88.7888 56.3887 91.1147C59.6247 87.4158 63.0008 83.1144 60.1641 88.5436C64.5768 82.0356 66.545 79.1423 63.302 86.7082C67.5327 78.5118 69.3888 74.2875 66.8322 82.0356C69.9492 73.4749 70.1873 73.0195 68.3241 81.5802C70.3974 72.7743 70.6146 71.7585 70.3204 77.3909C70.6566 72.1438 70.6706 72.0878 70.5235 76.6273C70.6496 72.5011 70.5726 73.8461 70.0472 82.3998C70.5726 73.8461 70.6566 72.4871 70.6916 76.5573C70.7267 72.0668 70.7617 72.1088 71.1679 77.2368C70.8247 71.7095 70.9718 72.6832 72.1135 81.5732C71.1539 72.9004 71.343 73.1316 74.0958 81.5031C71.7563 73.8532 73.2342 77.9654 77.0866 86.6942C74.1798 78.5468 75.8398 81.0828 80.3086 88.1513C77.4298 82.2807 80.918 87.0865 84.3081 91.1076C83.1174 88.4316 86.6266 92.2635 88.3777 93.5946C89.3303 93.9168 91.1724 95.3039 92.5803 96.1656C103.85 103.052 115.113 109.938 115.113 109.938C115.113 109.938 111.513 102.765 106.365 92.5157C105.076 89.9517 103.696 87.1986 102.246 84.3123C100.796 81.4261 97.8546 78.0564 97.7425 75.3453C95.9004 74.1614 89.4143 72.431 93.3228 71.2471C86.4865 70.0142 82.5991 69.0474 90.5981 66.8407C82.473 67.8915 77.3458 68.8302 84.5043 65.1804C75.9589 68.3819 75.4966 68.2067 83.2015 63.2819C75.0273 67.8284 74.0747 68.1507 80.0635 62.0139C74.1378 67.5622 76.6243 64.9492 83.4256 58.28C75.1884 65.3835 74.1658 66.2032 81.3103 58.5322C75.3916 65.3835 76.05 64.8721 82.438 58.4972C77.5769 64.2907 82.7322 60.2135 88.3567 56.6337C82.7111 60.1715 77.6049 64.1296 82.1858 58.0978C75.8819 64.4728 75.2305 64.6339 80.1195 57.012C74.53 64.5219 73.4864 65.6497 76.8625 57.5304C73.1922 65.0263 74.5931 61.0541 77.64 52.6616C73.4373 62.2661 72.5268 64.0595 74.9363 53.9716C72.2956 63.2399 73.7315 55.9402 75.2865 48.1711C73.9837 54.7632 75.0273 50.9172 76.5333 46.0134C76.4562 47.6387 78.5155 41.4738 79.7343 39.4633C78.4805 41.4178 77.0236 44.7664 76.5683 44.262C75.4266 46.819 74.6141 48.4233 74.7051 45.0887C73.3463 49.0117 73.3813 43.2743 73.2832 40.1148C73.2342 38.5315 73.2482 36.612 73.2832 34.3913C73.3253 32.1776 73.3813 29.6626 73.4233 26.9095C71.9874 41.0815 71.238 29.3053 70.9788 22.0406L70.9998 22.0477Z" fill="currentColor"/>
</svg>
