<svg width="143" height="143" viewBox="0 0 143 143" fill="none" xmlns="http://www.w3.org/2000/svg">
<path d="M58.6176 126.379L57.2311 125.567C56.2545 124.991 56.1339 124.406 56.2103 124.022C56.3067 123.526 56.7568 123.17 57.219 123.022C57.2873 122.982 57.3797 122.954 57.5164 122.966L60.201 123.162L58.1313 123.494C58.3322 123.594 58.5854 123.702 58.8828 123.798C59.14 123.786 59.6303 123.71 60.1286 123.334C60.2412 123.226 60.3537 123.114 60.4702 122.998L64.6338 118.917L61.0731 123.286C60.9003 123.498 60.7234 123.67 60.5426 123.81C60.0764 124.266 59.6424 124.67 59.2967 124.926L59.2365 124.963C58.7462 125.179 58.2679 125.251 57.9183 125.303C57.8821 125.307 57.8459 125.315 57.8098 125.319L58.6216 126.379H58.6176ZM57.2552 123.682C57.0462 123.782 56.8653 123.95 56.8292 124.138C56.789 124.342 56.9417 124.582 57.2471 124.822C57.3878 124.746 57.5847 124.718 57.8178 124.682C58.1072 124.638 58.493 124.578 58.8748 124.43C58.8627 124.43 58.8506 124.43 58.8386 124.43H58.7863L58.7381 124.414C58.6015 124.37 57.6771 124.066 57.2552 123.682Z" fill="currentColor"/>
<path d="M62.7919 126.503L53.5164 120.565C50.9725 118.937 50.7032 118.769 50.8761 118.373C50.9805 118.136 51.1614 118.08 51.8084 118.2C51.8165 118.184 51.8245 118.168 51.8325 118.156C51.8727 118.088 51.925 118.02 52.0094 117.968C51.5713 117.716 51.4588 117.536 51.503 117.296C51.5231 117.188 51.5713 117.1 51.6637 117.032C50.8318 115.168 51.3101 113.679 52.9176 111.462C52.9739 111.31 53.0703 111.142 53.203 110.954C52.4796 111.006 51.9531 110.858 51.5793 110.514C50.8399 109.83 50.7997 108.43 51.077 106.281C50.647 106.625 50.2652 106.745 49.8955 106.653C49.4052 106.529 49.0354 106.045 48.7461 105.117C48.7099 105.093 48.6737 105.069 48.6376 105.045C48.0749 105.977 47.5645 106.389 47.0622 106.377C46.9496 106.377 46.8452 106.349 46.7487 106.309C46.7286 106.309 46.7045 106.317 46.6844 106.317C46.3388 106.337 46.1619 106.025 45.756 105.073C45.7279 105.013 45.7038 104.948 45.6797 104.892L46.2624 104.652C46.2785 104.692 46.3026 104.744 46.3267 104.8C46.4433 105.069 46.5518 105.261 46.6482 105.401C46.6764 105.313 46.7045 105.217 46.7326 105.129C46.8693 104.692 47.0541 104.092 47.3555 103.396L47.5806 102.884L47.9021 103.34C48.099 103.62 48.2879 103.856 48.4688 104.052C48.4889 104.012 48.509 103.976 48.529 103.936L48.9349 103.116L49.1198 104.012C49.1721 104.272 49.2283 104.5 49.2846 104.7C49.4132 104.76 49.5378 104.796 49.6664 104.816C50.1165 104.88 50.6269 104.684 51.2297 104.212L51.7361 103.816V104.456C51.7401 104.52 51.7441 104.584 51.7441 104.648L52.0094 104.332L51.8446 105.441C51.8325 105.533 51.8165 105.625 51.8044 105.713C51.8808 106.457 52.0496 107.137 52.4313 107.361C52.4916 107.397 52.5599 107.421 52.6363 107.437C52.8172 107.037 53.1387 106.481 53.645 105.681C53.4481 105.221 53.2954 104.692 53.1588 104.124C52.367 103.2 51.6838 101.988 51.0127 100.803L50.7073 100.263C50.2692 99.4869 49.8231 98.6986 49.4092 97.9024C49.1801 97.5543 48.955 97.2102 48.73 96.8701C48.2558 96.1499 47.7815 95.4296 47.3234 94.7094L47.1385 94.4173L47.448 94.2613C47.6449 94.1613 47.8097 94.0652 47.9704 93.9692C48.3281 93.7571 48.6617 93.5571 49.2243 93.413C50.1004 93.1169 50.2692 92.4287 50.3496 92.1006C50.3858 91.9446 50.43 91.7685 50.6269 91.7125L50.7997 91.6605L50.9484 91.7885C51.2096 92.0446 51.0971 92.3567 50.9725 92.5808C51.089 92.5728 51.2337 92.5568 51.4106 92.5248L51.724 92.4648L52.1741 95.0575L52.0295 95.1736C51.3543 95.7097 50.3616 95.4256 49.5619 95.2016C49.3248 95.1336 48.9872 95.0375 48.8224 95.0335C48.8224 95.0495 48.8305 95.0695 48.8345 95.0895C49.1279 95.9178 49.5096 96.738 49.9397 97.5663C50.221 97.9984 50.5023 98.4305 50.7756 98.8667C50.9765 99.1828 51.1734 99.5029 51.3663 99.815C52.1018 101.003 52.7971 102.124 53.5084 102.956L53.5606 103.02L53.5767 103.1C53.6249 103.348 53.6772 103.592 53.7294 103.824C53.9464 104.068 54.1715 104.284 54.4046 104.468L54.485 104.34L54.4568 104.508C54.5211 104.556 54.5854 104.6 54.6497 104.644L54.7984 104.74L54.7904 104.916C54.7703 105.413 54.7583 105.873 54.7623 106.293C54.8467 106.381 54.9351 106.457 55.0356 106.525L55.3611 106.353C55.2164 105.873 55.1521 105.329 55.1199 104.764C55.0074 104.516 54.9069 104.26 54.8105 103.996C54.3805 103.272 54.0107 102.304 53.6852 101.063C53.3436 99.7629 53.1909 98.6866 53.203 97.6623C53.1266 97.1702 53.0744 96.67 53.0382 96.1579C52.7408 94.5894 52.6162 93.9932 52.572 93.8012C52.4153 93.6571 52.3148 93.465 52.2746 93.229C52.2264 92.9529 52.2746 92.7088 52.4233 92.5048L52.5439 92.3367L52.7488 92.3807C52.9123 92.4154 53.215 93.6118 53.6571 95.9698V96.0098C53.6611 96.0338 53.6651 96.0538 53.6651 96.0778C53.7214 96.3699 53.7817 96.698 53.85 97.0621L53.858 97.1021V97.1422C53.842 97.3022 53.8379 97.4622 53.8339 97.6263C54.0188 98.8427 54.3242 100.031 54.6819 101.367C54.8869 102.14 55.1079 102.964 55.3852 103.732C55.4776 103.884 55.5701 104.02 55.6665 104.148L55.7268 104.228V104.328C55.7308 104.428 55.7348 104.524 55.7388 104.616C55.9358 105.049 56.1648 105.445 56.4261 105.781L56.5908 105.693L56.4502 105.813C56.4703 105.837 56.4864 105.861 56.5064 105.881L56.619 106.017L56.5587 106.185C56.4582 106.469 56.3819 106.709 56.3256 106.913C56.5145 107.141 56.7476 107.285 57.041 107.369L57.3866 107.465L57.2459 107.793C57.2138 107.865 57.1856 107.937 57.1575 108.005C57.1696 108.005 57.1816 108.001 57.1897 107.997L57.8005 107.869L57.5393 108.438C57.1776 109.226 56.9686 109.858 56.9124 110.358L57.27 110.478L57.041 110.694C57.3263 110.954 57.8005 111.118 58.4757 111.202L58.9539 111.258L58.7088 111.671C58.6364 111.791 58.5681 111.911 58.5038 112.023C58.5762 112.035 58.6485 112.043 58.7208 112.055L59.4844 112.151L58.8735 112.615C58.5159 112.887 58.2587 113.103 58.0778 113.275L58.7048 113.507L57.8849 113.463C57.8608 113.491 57.8367 113.515 57.8126 113.539C57.7965 113.587 57.7844 113.631 57.7724 113.675L58.7048 113.663L58.2064 113.875C58.3832 113.871 58.6083 113.855 58.8936 113.823C58.9338 113.819 58.978 113.811 59.0222 113.807L59.0423 113.975C59.1308 113.971 59.2232 113.967 59.3196 113.959L64.8054 113.663L61.5059 114.223L68.1129 113.815L61.7269 114.555L62.5829 114.583L59.6532 115.084L63.7323 115.336L59.4844 115.696C59.396 115.704 59.3076 115.712 59.2272 115.72V115.932L63.0652 116.44L57.2057 116.3C55.6303 116.264 54.8386 116.144 54.5131 115.868C53.8942 115.712 53.7897 115.564 53.7897 115.336C53.7897 115.208 53.8259 115.108 53.9545 115.024C53.6209 114.907 53.42 114.731 53.3356 114.495C53.2874 114.363 53.2793 114.223 53.3155 114.071C52.9538 114.439 52.7328 114.787 52.7488 115.088C52.7729 115.548 53.3758 116.064 54.6377 116.704L55.7067 117.248L54.5091 117.3C54.0027 117.32 53.1226 117.36 52.5519 117.424C52.5881 117.488 52.6283 117.552 52.6685 117.616C53.0824 117.816 53.6651 118.064 54.28 118.321C54.4568 118.393 54.6497 118.469 54.8547 118.561L54.6055 119.137C54.4086 119.057 54.2237 118.977 54.0469 118.905C53.8058 118.813 53.6008 118.737 53.42 118.681L53.9545 119.377L53.0744 119.157C53.002 119.137 52.9136 119.117 52.8212 119.093C53.1186 119.401 53.5928 119.821 54.3323 120.361L62.7718 126.507L62.7919 126.503ZM53.0945 112.315C51.8406 114.171 51.5914 115.384 52.2585 116.832C52.5358 116.784 52.9136 116.752 53.4079 116.72C52.5479 116.172 52.1661 115.68 52.1339 115.12C52.0897 114.347 52.781 113.583 53.9826 112.695C53.9344 112.647 53.8902 112.599 53.854 112.547C53.5044 112.527 53.2552 112.451 53.0904 112.319L53.0945 112.315ZM55.132 115.352C55.6223 115.444 56.3377 115.548 57.27 115.672L57.5554 115.708C57.5473 115.676 57.5433 115.644 57.5433 115.604C57.5433 115.576 57.5433 115.552 57.5433 115.528C57.4227 115.424 57.3223 115.304 57.2459 115.168C57.2298 115.14 57.2138 115.108 57.2017 115.08L56.4904 115.164C55.8916 115.232 55.4575 115.292 55.1441 115.344C55.1441 115.344 55.136 115.348 55.136 115.352H55.132ZM54.2599 113.695C53.9183 114.083 53.9304 114.239 53.9464 114.283C53.9585 114.315 54.0791 114.539 55.1923 114.571C55.349 114.483 55.5299 114.387 55.7429 114.279C54.9713 114.215 54.4649 114.051 54.2599 113.695ZM57.049 114.371C56.9244 114.423 56.8119 114.475 56.7034 114.523L57.053 114.503C57.053 114.459 57.049 114.415 57.049 114.371ZM54.8266 113.135C54.7864 113.235 54.7743 113.311 54.7984 113.367C54.8507 113.491 55.2043 113.703 57.0088 113.683C57.0329 113.599 57.0691 113.515 57.1253 113.419L56.6551 113.395C55.8835 113.355 55.2847 113.271 54.8306 113.135H54.8266ZM55.8433 112.319C56.0925 112.491 56.406 112.647 56.7797 112.787L57.3424 112.995C57.4107 112.815 57.4911 112.623 57.5875 112.427C57.1575 112.267 56.84 112.043 56.623 111.755L56.3176 111.971C56.1488 112.091 55.992 112.207 55.8433 112.315V112.319ZM53.4803 111.767C53.4803 111.791 53.4803 111.807 53.4843 111.819C53.4843 111.819 53.5164 111.859 53.6491 111.887C53.6491 111.855 53.6491 111.819 53.6491 111.783C53.6129 111.747 53.5767 111.707 53.5486 111.663C53.5245 111.695 53.5004 111.731 53.4762 111.763L53.4803 111.767ZM57.2982 111.554C57.4469 111.679 57.6398 111.783 57.8769 111.867C57.897 111.827 57.9211 111.787 57.9452 111.743C57.7041 111.695 57.4911 111.63 57.2982 111.554ZM55.0114 110.358C54.9672 110.79 55.0074 111.17 55.1441 111.494C55.2003 111.494 55.2646 111.49 55.3289 111.486C55.554 111.254 55.8112 110.994 56.1126 110.71C55.7589 110.538 55.4656 110.326 55.2204 110.078C55.1481 110.174 55.0798 110.266 55.0155 110.362L55.0114 110.358ZM54.3765 111.45C54.4046 111.454 54.4367 111.462 54.4689 111.466C54.4568 111.418 54.4408 111.37 54.4327 111.318C54.4126 111.362 54.3966 111.406 54.3765 111.446V111.45ZM56.3899 111.314C56.3698 111.334 56.3457 111.354 56.3256 111.378L56.41 111.366C56.41 111.366 56.3979 111.334 56.3899 111.314ZM51.5994 107.377C51.4909 108.706 51.5753 109.646 52.0174 110.054C52.3469 110.358 52.9216 110.418 53.8178 110.238C54.0188 110.026 54.2479 109.798 54.5171 109.542C54.5252 109.51 54.5332 109.478 54.5412 109.446C54.2278 109.442 53.9826 109.358 53.7897 109.194C53.5647 109.006 53.4361 108.73 53.3838 108.358C53.002 108.586 52.7729 108.594 52.5881 108.438C52.4796 108.346 52.4193 108.225 52.4394 108.029C52.3188 107.997 52.2103 107.953 52.1058 107.889C51.9049 107.769 51.7401 107.601 51.6035 107.373L51.5994 107.377ZM55.6062 109.582C55.7429 109.73 55.8996 109.862 56.0764 109.978C56.0523 109.654 56.0965 109.282 56.2091 108.854L56.0282 109.07C55.8875 109.238 55.7429 109.41 55.6062 109.582ZM53.9786 107.933C53.9826 108.305 54.0429 108.59 54.1916 108.718C54.2559 108.774 54.3483 108.806 54.4649 108.818C54.3483 108.482 54.272 108.121 54.2197 107.737C54.1353 107.809 54.055 107.873 53.9786 107.937V107.933ZM55.6504 108.113C55.5781 108.298 55.5098 108.478 55.4455 108.65C55.5218 108.626 55.5982 108.602 55.6786 108.574L55.9237 108.486C55.8835 108.454 55.8433 108.418 55.8072 108.378C55.7388 108.297 55.6866 108.209 55.6504 108.113ZM54.7984 107.241C54.8266 107.593 54.8708 107.913 54.9391 108.201C55.0436 107.925 55.1601 107.637 55.2887 107.337C55.1441 107.293 55.0074 107.237 54.8788 107.169L54.7984 107.237V107.241ZM56.205 107.653C56.205 107.821 56.2372 107.913 56.2814 107.965C56.3095 107.997 56.3618 108.033 56.4622 108.053C56.4864 107.989 56.5145 107.921 56.5426 107.853C56.418 107.797 56.3055 107.729 56.205 107.653ZM54.1152 106.509C54.0871 106.693 54.059 106.877 54.0389 107.053C54.059 107.041 54.0831 107.029 54.1072 107.017L54.1514 106.993C54.1434 106.841 54.1394 106.689 54.1353 106.533C54.1273 106.525 54.1233 106.517 54.1152 106.509ZM55.4093 106.713C55.4415 106.725 55.4736 106.733 55.5058 106.745C55.4937 106.717 55.4816 106.689 55.4696 106.661L55.4093 106.713ZM49.5378 105.425C49.7427 105.881 49.9316 106.013 50.0522 106.041C50.2973 106.101 50.6791 105.861 51.1333 105.353C51.1252 105.253 51.1212 105.149 51.1172 105.041C50.5666 105.373 50.0602 105.501 49.5699 105.429C49.5579 105.429 49.5458 105.429 49.5338 105.425H49.5378ZM47.7293 104.144C47.5565 104.596 47.4319 104.993 47.3355 105.305C47.2872 105.465 47.243 105.605 47.1988 105.729C47.3877 105.665 47.6971 105.413 48.1553 104.624C48.0146 104.484 47.874 104.324 47.7293 104.144ZM54.0429 104.977C54.0429 104.977 54.0509 105.001 54.055 105.013L54.067 104.993C54.067 104.993 54.0509 104.981 54.0429 104.973V104.977ZM48.0307 94.6494C48.083 94.7334 48.1392 94.8175 48.1915 94.9015C48.2035 94.7614 48.2558 94.6454 48.3482 94.5614C48.6376 94.2853 49.1198 94.4213 49.7307 94.5934C50.3174 94.7574 51.0328 94.9615 51.4829 94.7654L51.2056 93.181C50.9484 93.213 50.7314 93.213 50.5505 93.181C50.3215 93.5011 49.9638 93.8172 49.3931 94.0092C48.8988 94.1373 48.6134 94.3053 48.2839 94.5014C48.2035 94.5494 48.1151 94.6014 48.0267 94.6494H48.0307Z" fill="currentColor"/>
<path d="M56.5557 109.522C56.4794 109.522 56.4352 109.47 56.3749 109.39C56.2624 109.39 56.1619 109.35 56.0815 109.27C55.8605 109.054 55.9127 108.734 56.3347 108.037C56.1458 108.109 55.981 108.109 55.8364 108.009C55.6636 107.893 55.5993 107.705 55.6435 107.357C55.3179 106.849 55.2295 106.029 55.2335 104.884C54.9241 104.16 54.687 103.32 54.4579 102.48C54.3253 102.116 54.1967 101.748 54.0761 101.399C53.6943 100.311 53.2643 99.0787 53.2764 97.8224C53.3045 97.1021 53.0553 95.7337 52.8343 94.5294C52.6534 93.5611 52.4847 92.6368 52.3279 91.8006C52.2074 90.9923 52.0988 90.2361 52.348 89.7119C52.3922 89.5839 52.4525 89.4679 52.5289 89.3598C52.6293 89.0117 52.9026 88.7636 53.1437 88.5396C53.2 88.4876 53.2603 88.4315 53.3125 88.3795C53.417 88.1915 53.5135 87.9994 53.6099 87.8034L54.2087 86.615V87.9434C54.2087 88.2835 54.0319 88.5396 53.8229 88.7596C53.5939 89.1678 53.3206 89.5759 52.9307 89.96C52.7901 90.4201 52.8946 91.1644 52.995 91.8886L53.9917 97.2662C54.0962 98.8467 54.5383 100.423 54.9643 101.944L54.9763 101.98C55.0045 102.084 55.0326 102.192 55.0607 102.296C55.326 103.036 55.5993 103.764 55.8444 104.32L55.8725 104.384V104.452C55.8725 104.556 55.8685 104.656 55.8685 104.76C56.0695 105.209 56.2945 105.593 56.5678 105.877L56.7044 106.017L56.6401 106.201C56.612 106.273 56.5879 106.345 56.5678 106.409C56.6522 106.273 56.7486 106.121 56.8572 105.957C56.9415 105.297 57.5203 104.044 58.1351 102.72L58.1753 102.628C58.5933 101.724 59.0113 100.815 59.381 100.011C60.1486 98.3425 61.1051 97.7023 61.1453 97.6743L67.5473 93.4651L61.515 98.1825C61.515 98.1825 60.7273 98.8227 60.1084 100.359C59.7829 101.191 59.4212 102.132 59.0555 103.072C58.5531 104.368 57.9864 105.841 58.0065 106.489V106.577L57.9664 106.653C57.8578 106.841 57.7694 107.001 57.6891 107.145L57.681 107.157C57.5363 107.425 57.4399 107.617 57.3796 107.761C57.4077 107.745 57.4359 107.725 57.464 107.705L60.7434 105.457L59.0756 107.037L66.0281 102.284L62.2987 105.173L64.0268 104.096L57.894 108.654C57.3716 109.042 57.0541 109.278 56.8491 109.406C56.8491 109.406 56.8491 109.406 56.8451 109.41C56.7085 109.494 56.6241 109.526 56.5638 109.526L56.5557 109.522ZM56.821 107.181L56.9014 107.269C57.0179 107.033 57.1706 106.753 57.3635 106.413C57.3635 106.377 57.3635 106.337 57.3675 106.297C57.1144 106.693 56.9375 106.977 56.821 107.181ZM55.9127 106.085C55.9208 106.145 55.9288 106.205 55.9368 106.265C55.9489 106.229 55.961 106.197 55.973 106.161C55.9529 106.137 55.9328 106.113 55.9127 106.089V106.085ZM54.2047 104.348L53.6381 103.996L52.8182 104.196C51.4679 104.524 50.6521 103.432 49.8081 102.06L49.579 101.896C48.9923 101.475 48.2649 100.955 47.5053 100.451L47.1637 100.235C46.368 99.7389 45.5481 99.2228 44.8368 98.5146L44.5273 98.2065L44.9172 98.0104C46.3439 97.3022 47.5736 97.7343 48.4216 98.1905C48.3694 98.1425 48.3171 98.0944 48.2689 98.0464C47.4651 97.2822 46.5729 96.3539 46.0384 95.2936C45.7651 94.6614 45.7451 94.1693 45.9661 93.7651C46.3559 93.0609 47.3606 92.8969 48.3332 92.7408C48.6627 92.6888 48.9762 92.6368 49.2495 92.5688C49.1209 91.5685 48.9722 90.4481 48.8154 89.4679C48.5663 87.9114 48.6909 86.747 49.1249 86.503C49.2615 86.4269 49.4303 86.4389 49.5469 86.539L49.579 86.567C50.1618 87.2152 50.861 87.2912 51.6608 87.3032C51.7934 87.2472 51.9501 87.2472 52.135 87.3392L53.3286 87.9354H51.9944C51.9461 87.9354 51.8939 87.9354 51.8457 87.9354C51.7974 87.9954 51.7371 88.1034 51.701 88.1675C51.5724 88.3955 51.4076 88.6836 51.0982 88.6756C50.9495 88.6756 50.8249 88.6036 50.7164 88.4956C50.6119 88.8917 50.5114 89.6479 50.6601 90.8443C50.7807 91.8046 50.9575 93.261 49.9327 93.7811L49.8764 93.8092H49.8161C48.8717 93.8932 48.2086 94.1853 48.2086 94.5214C48.2086 96.2899 49.4143 97.6343 50.6882 99.0587C51.3192 99.7629 51.9582 100.475 52.5088 101.183L52.9549 101.628L52.778 101.539C53.2643 102.2 53.6582 102.852 53.8912 103.488L54.2007 104.336L54.2047 104.348ZM48.0679 99.4028C48.7632 100.139 49.5951 100.711 50.3506 101.187L50.427 101.251C51.3353 102.352 52.1471 103.288 52.8745 103.608L53.3487 103.816C52.7137 103.396 52.1712 102.748 51.6005 102.064C51.2911 101.692 50.9736 101.311 50.636 100.963C49.8202 100.179 48.9762 99.6629 48.072 99.4028H48.0679ZM51.3996 100.863C51.6327 101.123 51.8537 101.387 52.0667 101.644C51.8738 101.395 51.6688 101.143 51.4558 100.891L51.3955 100.863H51.3996ZM45.6365 98.4025C46.2153 98.9027 46.8623 99.3068 47.4933 99.7029C47.3245 99.5149 47.1637 99.3188 47.015 99.1107L46.6051 98.5386L47.3084 98.6146C47.6058 98.6466 47.9032 98.7066 48.1925 98.7866C47.2481 98.2665 46.4403 98.1425 45.6406 98.4025H45.6365ZM49.8885 93.0369L49.7036 93.1009C49.3379 93.229 48.8998 93.297 48.4417 93.373C47.658 93.5011 46.7699 93.6411 46.5287 94.0772C46.4082 94.2933 46.4403 94.6174 46.6212 95.0375C47.0793 95.9498 47.871 96.786 48.6024 97.4943C48.0077 96.61 47.5897 95.6497 47.5897 94.5334C47.5897 93.8252 48.3774 93.329 49.7076 93.205C49.78 93.161 49.8443 93.1009 49.8925 93.0329L49.8885 93.0369ZM49.3942 87.2712C49.3218 87.5993 49.2615 88.2635 49.4424 89.3798C49.6152 90.4561 49.776 91.6965 49.9126 92.7648L49.9367 92.9649C50.2019 92.5208 50.1376 91.7285 50.0412 90.9323C49.8443 89.3318 50.0452 88.1875 50.3627 87.7833C50.0291 87.6833 49.6996 87.5273 49.3942 87.2712ZM51.058 87.9154C51.07 87.9354 51.0821 87.9554 51.0941 87.9714C51.1062 87.9554 51.1142 87.9354 51.1223 87.9194C51.1022 87.9194 51.0781 87.9194 51.0539 87.9154H51.058Z" fill="currentColor"/>
<path d="M55.6965 104.064C55.4553 104.064 55.383 103.868 55.3549 103.72C54.6757 102.952 54.2095 101.988 53.888 100.695C53.6147 99.5869 53.5022 98.4826 53.4379 97.5223C53.4218 97.3942 53.4057 97.2582 53.3816 97.1181C53.2811 96.586 53.1766 96.0138 53.0762 95.4376L52.5055 92.3527C52.3648 91.3164 52.2242 90.2601 52.6703 89.5079L52.6944 89.4718C52.7748 89.3718 52.8592 89.2678 52.9476 89.1638C53.5343 88.4595 54.2015 87.6593 54.2095 86.599C54.2215 86.1869 54.1894 85.8788 54.1532 85.6907C53.9885 85.6987 53.8277 85.6467 53.7192 85.5187C53.5745 85.3546 53.5062 85.0545 53.9804 84.5824L54.2899 84.2743L54.4868 84.6624C55.6844 87.0431 54.0568 89.1598 53.253 89.996C52.9516 90.7002 53.0963 91.7485 53.2369 92.7608C53.4459 93.8812 53.6549 95.0055 53.8558 96.0698C53.9242 96.4259 53.9764 96.754 54.0166 97.0501C54.0286 97.1221 54.0447 97.1942 54.0568 97.2622C54.0568 97.3182 54.0648 97.3702 54.0688 97.4262C54.113 97.7823 54.1452 98.0864 54.1693 98.3425C54.1814 98.4745 54.1934 98.5986 54.2055 98.7106C54.4466 99.2588 54.5471 99.815 54.6475 100.355C54.6757 100.519 54.7078 100.679 54.74 100.839C54.8806 101.511 55.0735 102.036 55.5598 102.396L55.6281 102.448L55.6603 102.528C55.7969 102.848 55.9215 103.152 55.9778 103.212L56.0783 103.32V103.484C56.0461 103.756 56.0099 104.064 55.7005 104.064H55.6965ZM39.5488 98.8587C38.97 98.8587 38.4034 98.6906 37.9975 98.3705C37.5634 98.0224 37.3786 97.5263 37.4951 97.0061C37.5152 93.6251 40.2119 92.6608 42.8201 91.7285C44.2026 91.2364 45.6293 90.7242 46.5978 89.856C46.6179 89.4438 46.63 89.0277 46.646 88.6076C46.6581 88.3115 46.6661 88.0114 46.6782 87.7113C46.6782 86.2429 46.7505 85.1185 47.1323 84.4503L47.1564 84.4143C47.715 83.6861 47.6668 82.8099 47.6146 81.8856C47.5985 81.6175 47.5864 81.3454 47.5824 81.0733L47.3493 80.069C46.4772 76.3639 45.7257 73.163 46.1356 69.2538C46.4451 67.3092 46.6259 66.3289 46.63 66.3209L48.563 55.9338L47.2529 66.4169C47.2529 66.4169 47.1202 67.4813 46.9796 69.1978C46.7143 72.8109 48.0004 75.8398 49.3628 79.0447C49.7084 79.861 50.0701 80.7052 50.3956 81.5575C51.4325 83.6181 50.3474 85.6307 48.977 86.8271C48.5831 87.2912 48.4826 88.2395 48.4304 89.1998C48.354 89.7039 48.2938 90.1921 48.2375 90.6802L48.141 91.4524L47.9602 91.5165C47.1403 91.8126 46.2843 92.0246 45.3721 92.2487C42.8643 92.8689 40.2721 93.5091 38.7048 95.9618C38.4918 96.3859 38.5601 96.9221 38.9017 97.3702C39.2112 97.7743 39.814 98.1465 40.5816 97.9984L42.8884 97.5383L40.7825 98.5866C40.4048 98.7746 39.9707 98.8667 39.5407 98.8667L39.5488 98.8587ZM38.102 97.2062C38.0658 97.4662 38.1623 97.6943 38.3953 97.8824C38.4838 97.9544 38.5882 98.0144 38.7008 98.0624C38.5963 97.9664 38.4958 97.8624 38.4074 97.7463C38.2788 97.5783 38.1743 97.3942 38.102 97.2062ZM40.2842 93.4771C39.6251 93.8532 39.0705 94.3133 38.6887 94.9175C39.171 94.3293 39.7095 93.8612 40.2842 93.4771ZM47.6708 84.7784C47.3493 85.3626 47.3051 86.539 47.3091 87.7233C47.2971 88.0354 47.289 88.3315 47.277 88.6276C47.2609 89.0917 47.2448 89.5559 47.2247 90.012V90.136L47.1283 90.2241C46.3406 90.9763 45.2917 91.4725 44.1986 91.8926C44.5402 91.8045 44.8858 91.7165 45.2274 91.6325C46.0512 91.4284 46.8349 91.2364 47.5704 90.9843L47.6186 90.6002C47.6789 90.108 47.7392 89.6159 47.8115 89.1318C47.8597 88.1555 47.9642 87.0271 48.5228 86.3949L48.551 86.3669C49.7486 85.3266 50.7131 83.5861 49.8249 81.8096C49.4873 80.9413 49.1297 80.101 48.7841 79.2888C48.0245 77.5003 47.2489 75.6757 46.7746 73.7391C46.9876 75.7837 47.4538 77.7683 47.9602 79.929L48.2134 81.0413C48.2134 81.3134 48.2295 81.5855 48.2455 81.8536C48.3018 82.8459 48.3581 83.8702 47.6749 84.7784H47.6708Z" fill="currentColor"/>
<path d="M91.678 106.536L92.542 104.224C92.8314 103.451 92.9841 102.947 93.0042 102.719C92.6585 102.827 91.7865 103.391 90.8702 103.984C90.6009 104.16 90.3075 104.348 89.99 104.548L89.6484 104.02C93.9526 101.211 95.9018 99.9904 97.7665 99.9904C97.7906 99.9904 97.8147 99.9904 97.8388 99.9904C98.7431 97.7738 99.6955 96.1853 101.383 93.7246C101.432 93.1164 101.733 92.2921 102.26 91.1798C101.966 90.8717 101.83 90.3515 101.773 89.6233C101.468 89.0151 101.552 87.8468 101.809 86.0102L102.613 80.2845L102.416 86.6744C102.384 87.7148 102.352 88.683 102.392 89.4273C102.404 89.4393 102.416 89.4473 102.428 89.4553C102.533 89.5193 102.83 89.4553 103.353 89.0952L104.402 88.375L103.811 89.4993C103.57 89.9554 103.333 90.4156 103.116 90.8557C103.232 90.8397 103.373 90.7997 103.534 90.7317L104.538 90.3115L103.911 91.1998C103.18 92.2401 102.549 93.1364 101.998 93.9366C102.002 94.0607 102.03 94.1607 102.079 94.2367C102.207 94.4328 102.569 94.5168 103.152 94.4888L104.181 94.4368L103.361 95.053C100.58 97.1416 99.4142 98.2939 98.3733 100.351C98.3613 100.379 98.3533 100.403 98.3412 100.431L98.2568 100.643H98.2287C97.9956 101.123 97.7705 101.651 97.5254 102.251L97.3284 102.743L96.9909 102.331C96.5006 101.735 96.171 101.679 95.9741 101.687C95.3271 101.711 94.467 102.555 93.1006 104.512L91.682 106.536H91.678ZM93.5347 102.287C93.615 102.399 93.6432 102.543 93.6311 102.743C94.037 102.247 94.3947 101.871 94.7283 101.603C94.3625 101.799 93.9687 102.027 93.5387 102.287H93.5347ZM95.9982 101.059C96.3921 101.059 96.7578 101.219 97.1235 101.559C97.2601 101.227 97.3968 100.915 97.5334 100.623C97.011 100.655 96.4644 100.799 95.8294 101.067C95.8656 101.063 95.9058 101.059 95.9419 101.059C95.958 101.059 95.9781 101.059 95.9982 101.059ZM101.552 94.5848C100.945 95.4851 100.439 96.2693 99.997 97.0256C100.612 96.4174 101.355 95.7932 102.304 95.061C102.006 94.9929 101.729 94.8529 101.552 94.5848ZM102.81 91.4759C102.722 91.6639 102.637 91.852 102.557 92.0321C102.682 91.856 102.806 91.6759 102.939 91.4919C102.895 91.4919 102.854 91.4839 102.814 91.4799L102.81 91.4759ZM102.461 90.1035C102.489 90.2675 102.525 90.4076 102.573 90.5236C102.645 90.3756 102.722 90.2235 102.802 90.0675C102.686 90.0955 102.573 90.1075 102.461 90.1035Z" fill="currentColor"/>
<path d="M65.0041 108.617L69.1154 106.869C69.1154 106.869 69.7865 106.584 70.7872 106.148C71.2896 105.936 71.8924 105.692 72.5555 105.424C73.3191 105.116 74.1631 104.776 75.0231 104.416L75.0794 104.396C77.6635 103.856 79.7051 102.415 80.979 100.223C81.4131 99.4903 81.7506 98.6861 82.0279 97.9938L82.1726 97.6377L82.4941 97.8498C82.7393 98.0099 82.9965 98.1379 83.2256 98.2499C83.5189 98.398 83.752 98.51 83.8967 98.662C84.1378 98.6861 84.3508 98.7101 84.5357 98.7421C84.2062 97.8978 83.2698 97.1936 82.2932 96.4574L82.1646 96.3534C80.9067 95.309 79.6046 94.2287 78.4793 92.8243C77.981 92.4442 77.5067 92.1481 77.0285 91.912C75.3366 91.1998 73.4638 90.6797 71.6553 90.1795C71.2615 90.0715 70.8636 89.9594 70.4738 89.8474C69.7665 89.6433 69.0149 89.4193 68.3197 89.1392L68.1629 89.0752L68.1308 88.9111C67.962 88.0749 68.1067 87.1866 68.2433 86.3263C68.3076 85.9302 68.3679 85.5381 68.4041 85.158L68.0705 85.8222V81.5969L68.6693 82.7853C68.6814 82.8093 68.6934 82.8293 68.7015 82.8533C68.7135 82.8293 68.7216 82.8093 68.7336 82.7853L69.1556 81.945C69.1114 81.773 69.0672 81.6009 69.027 81.4329L69.6379 81.2688C69.7222 81.5649 69.7946 81.857 69.8629 82.1531C70.1081 83.0814 70.3813 83.9936 70.7631 84.7539L70.7913 84.8419C71.0083 86.1543 71.7076 86.9705 72.9293 87.3386L73.9219 87.6347C74.3037 87.7508 74.6895 87.8628 75.0794 87.9828C75.212 88.0069 75.3406 88.0269 75.4732 88.0509C76.06 88.1509 76.6467 88.2549 77.2294 88.367L77.2897 88.383C77.7398 88.563 78.206 88.9991 78.7646 89.7594C79.6568 91.3158 80.8303 92.6442 82.2691 93.7366C82.7835 94.1287 83.33 94.4848 83.8163 94.8009C84.6362 95.3371 85.1225 95.6652 85.3274 95.9652C85.3877 95.9973 85.448 96.0293 85.5002 96.0613L85.6248 96.0893C88.2009 96.6655 89.1775 96.8975 89.515 97.1656C90.5519 97.3337 91.2632 97.4857 91.7335 97.6698C92.4367 97.7818 92.8025 97.9658 92.8869 98.3139C92.8869 98.3219 92.8909 98.3299 92.8909 98.338C94.0563 98.1379 94.2332 98.1859 94.3176 98.478C94.3939 98.7341 94.3658 98.8581 93.3329 99.3062C93.3972 99.5743 93.12 99.7504 90.0053 100.899L86.9229 102.035L88.6148 101.011L83.6757 102.647C83.8083 102.843 83.9248 103.091 84.0173 103.327C84.1579 103.684 83.965 103.816 83.8726 103.852C83.4024 104.128 82.7955 104.256 82.1405 104.204C81.9837 104.208 80.9629 104.416 78.7807 104.976C77.9247 105.188 77.0968 105.416 76.2931 105.64C75.0995 105.972 73.8617 106.316 72.5194 106.6C70.6868 107.085 69.3163 107.453 69.3163 107.453L64.9961 108.613L65.0041 108.617ZM75.2441 105.008C74.6051 105.276 73.9782 105.532 73.3874 105.768C74.3439 105.54 75.2441 105.288 76.1283 105.044C76.9361 104.82 77.768 104.588 78.632 104.376C79.8256 104.072 81.8953 103.564 82.1887 103.588C82.6107 103.624 83.0166 103.56 83.3622 103.415C83.2979 103.291 83.2095 103.135 83.1371 103.015C82.896 103.111 82.675 103.131 82.47 103.071C82.462 103.071 82.4539 103.067 82.4459 103.063L80.4084 103.74L82.2972 102.999C82.0038 102.835 81.8109 102.515 81.6582 102.211L81.6421 102.171C81.4533 101.607 81.4332 101.015 81.5738 100.479C81.5577 100.503 81.5457 100.527 81.5296 100.551C80.1712 102.887 77.997 104.432 75.2441 105.012V105.008ZM83.5873 103.303C83.5873 103.303 83.5591 103.315 83.5471 103.327C83.5591 103.319 83.5752 103.311 83.5873 103.303ZM83.2215 102.307C83.3381 102.307 83.4506 102.383 83.5551 102.499L90.8734 99.6223C91.0784 99.4863 91.2592 99.3663 91.4079 99.2582L91.2914 99.2822L91.8178 98.622C91.8902 98.534 91.8902 98.494 91.8902 98.494C91.8701 98.426 91.7777 98.362 91.629 98.2979C90.9779 98.2019 89.9491 98.1459 88.9404 98.0939L85.9744 97.9378C86.1111 98.1179 86.2116 98.3139 86.2718 98.53C86.3803 98.9301 86.3361 99.3543 86.1312 99.8104C86.5049 99.7424 86.5853 99.7944 86.6737 99.8824L86.8023 100.014L86.7501 100.199C86.7099 100.339 86.6577 100.511 85.0702 100.859L84.0454 101.083L84.7728 100.335C84.7728 100.335 84.8009 100.307 84.813 100.291L84.4593 100.547L84.5719 100.006C84.3669 99.9424 84.0454 99.8744 83.5591 99.8384L83.4627 99.8304L83.3863 99.7704C83.2376 99.6543 82.7915 99.6383 82.5906 99.8304C82.1324 100.355 81.9837 101.191 82.2289 101.951C82.3334 102.155 82.4861 102.423 82.6468 102.471C82.7433 102.499 82.884 102.459 83.0688 102.351L83.1251 102.327C83.1572 102.315 83.1894 102.311 83.2175 102.311L83.2215 102.307ZM85.4158 99.8104C85.4158 99.8104 85.4158 99.8144 85.4198 99.8184C85.4279 99.8064 85.4359 99.7944 85.4399 99.7824C85.4319 99.7944 85.4239 99.8024 85.4158 99.8144V99.8104ZM85.2591 98.9461C85.4239 99.0302 85.5243 99.1422 85.5645 99.2902C85.5846 99.3663 85.5846 99.4423 85.5726 99.5103C85.7012 99.2062 85.7293 98.9341 85.661 98.6901C85.5525 98.2939 85.1908 97.9298 84.5196 97.5457C84.8894 97.9698 85.1586 98.43 85.2591 98.9461ZM82.4821 98.574C82.3655 98.8581 82.2409 99.1422 82.1123 99.4263C82.1204 99.4143 82.1324 99.4063 82.1405 99.3943C82.4901 99.0582 83.0447 98.9902 83.4546 99.1102L83.4466 99.0902C83.4064 99.0422 83.1412 98.9101 82.9523 98.8141C82.8076 98.7421 82.6468 98.6621 82.4861 98.57L82.4821 98.574ZM84.1499 96.6494C84.8009 96.9495 85.5163 97.3457 85.9423 97.8898L87.9035 97.5657C87.3288 97.4857 86.726 97.4057 86.1191 97.3256L85.2671 97.2136L85.6047 96.8775C85.5284 96.8175 85.4118 96.7415 85.2712 96.6614L84.817 96.5614V96.4134C84.6482 96.3253 84.4754 96.2373 84.3106 96.1533C83.8525 95.9172 83.3501 95.6611 82.8438 95.3691C83.4225 95.7812 83.9128 96.1933 84.1499 96.6535V96.6494ZM69.5936 88.443C70.5421 88.7751 71.5307 89.0792 72.5676 89.3993C73.8094 89.7794 75.0914 90.1755 76.3292 90.6316C77.2174 90.9597 77.989 91.2838 78.6883 91.6239L78.7727 91.664L78.8209 91.744C79.3916 92.7003 80.1592 93.4245 80.8786 93.9846C79.6207 92.9083 78.6159 91.6159 77.8765 90.1155C77.4424 89.6353 77.0406 89.3233 76.5784 89.1072C76.0479 88.9351 75.4933 88.7631 74.9347 88.595C74.7056 88.555 74.4765 88.515 74.2475 88.475C73.3995 88.3229 72.4028 88.1269 71.4061 87.8468L71.3137 87.8188L71.2534 87.7468C70.104 86.3944 69.7906 84.8739 69.457 83.2614C69.4168 83.0694 69.3766 82.8733 69.3364 82.6813V82.9253C69.3364 83.6736 69.4409 84.3858 69.5414 85.074C69.6901 86.0903 69.8468 87.1426 69.6579 88.2989L69.6419 88.399L69.5936 88.447V88.443ZM68.9828 85.6421C68.9506 85.9022 68.9064 86.1623 68.8662 86.4224C68.7537 87.1346 68.6452 87.8108 68.7015 88.439L69.0511 88.0949C69.1757 87.2426 69.0993 86.4504 68.9868 85.6421H68.9828Z" fill="currentColor"/>
<path d="M79.5426 99.0382H79.5225C77.5854 98.9101 76.8982 97.4377 76.8982 96.1013C76.8982 95.297 77.1313 94.5848 77.5935 93.9887C77.9752 93.4925 78.4053 93.2484 78.9197 93.2684C78.5097 92.8203 78.1079 92.4882 77.714 92.2721C77.1273 92.0681 76.6048 92.0241 76.2672 92.0241L76.1828 92.0121C75.3469 91.784 74.4949 91.5919 73.6711 91.4039C72.799 91.2038 71.8987 90.9998 71.0226 90.7557C69.9657 90.4636 69.1941 90.1795 68.5189 89.8394L68.3983 89.7794L68.3582 89.6473C68.0005 88.435 67.7714 87.1586 67.5504 85.9262C67.0159 82.9533 66.4613 79.8804 64.07 77.4957L63.8008 77.2276L64.1183 77.0156C64.1183 77.0156 64.8216 76.5234 64.6407 76.1633L64.922 76.0233V75.7552L65.0748 75.9472L65.2034 75.8832C65.4967 76.4674 65.7861 76.7515 66.0915 77.0556L66.63 77.5917H66.2884C68.0366 80.3766 69.0172 84.2897 69.0172 88.575C69.0172 88.9031 69.6241 89.1912 70.1988 89.3032L70.2631 89.3233C71.1432 89.6994 72.0836 90.0155 73.0562 90.2595C74.0046 90.4996 74.9892 90.6717 75.9859 90.7757H75.998C76.9022 90.7757 77.9471 90.9757 79.2773 92.3842C79.7234 92.8283 80.1334 93.3084 80.5312 93.7766C80.7241 94.0007 80.913 94.2247 81.1059 94.4448C81.7811 95.209 82.3799 95.7692 82.9265 96.1573L83.1837 96.3414L85.0966 96.4294C85.0765 96.4134 85.0524 96.3934 85.0283 96.3774C84.759 96.2893 84.4777 96.1973 84.1843 96.0973L84.116 96.0733L84.0638 96.0213C83.7945 95.7572 83.3404 95.3931 82.8179 94.9729C82.191 94.4728 81.4837 93.9046 80.7965 93.2764C79.639 92.2241 78.4977 90.9677 77.3121 89.4393C76.6812 89.2032 75.9899 88.9751 75.146 88.7311C74.3864 88.511 73.6228 88.2829 72.8512 88.0509C72.156 87.8388 71.2879 87.5747 70.5806 87.1386L70.4359 87.0506V86.8825C70.4118 86.3063 70.3555 85.7302 70.2631 85.154C69.2503 81.2488 67.4901 78.0319 65.0346 75.5951C64.8296 75.3951 64.6206 75.195 64.4076 75.003L64.8296 74.5388C65.0547 74.7389 65.2717 74.9469 65.4887 75.159C68.4104 78.0319 70.3113 81.5249 70.886 85.042C70.9141 85.158 70.9463 85.274 70.9744 85.3901C71.1151 86.2903 71.4768 86.8465 72.0836 87.1266C72.7347 87.3427 73.4822 87.5667 74.4788 87.8468C74.9089 87.9668 75.3389 88.0829 75.7689 88.1989C76.3315 88.351 76.8982 88.507 77.4568 88.6631L77.5533 88.6911L77.6176 88.7711C78.6183 90.0275 79.5546 91.0838 80.475 91.9961C81.3149 92.8283 82.3075 93.7166 83.5172 94.7049L83.8709 94.9129C83.903 94.9329 83.9392 94.9529 83.9714 94.9729C83.8066 94.8249 83.6378 94.6769 83.473 94.5248C83.26 94.3368 83.043 94.1407 82.826 93.9446C81.5118 92.6242 80.3865 91.1918 79.4702 89.6874C78.5379 88.1549 77.7944 86.4944 77.2639 84.7499C76.9102 84.4258 76.5566 84.1097 76.211 83.8056C75.801 83.4815 75.4393 83.1654 75.1219 82.8493L67.5624 75.3191L75.5519 82.3932C75.7649 82.5812 75.9819 82.7693 76.1989 82.9613C76.3356 83.0814 76.4762 83.2014 76.6169 83.3255C76.7656 83.4415 76.9183 83.5575 77.079 83.6776L77.1554 83.7416C77.6939 84.2097 78.3048 84.7379 78.8473 86.4624C79.3216 88.1669 80.1374 89.7194 81.2707 91.0918C82.0463 92.0281 82.9546 92.8643 83.682 93.5325C83.9673 93.7966 84.2286 94.0327 84.4456 94.2447L84.7952 94.4168C86.7966 95.4011 87.6084 95.8212 87.5441 96.3814C87.5441 96.3894 87.5441 96.4014 87.5441 96.4094C89.7183 96.5974 89.7183 96.6254 89.6982 96.9335C89.6781 97.2416 89.6781 97.2696 87.7089 97.1816C87.5682 97.2336 87.3391 97.1976 87.0176 97.1456L85.9285 96.9735C85.8803 97.0536 85.808 97.1336 85.6914 97.2096L84.6907 97.8498L84.8555 97.5377L82.6612 96.7135C82.3919 96.6134 82.1187 96.4814 81.8494 96.3334L81.3913 96.2613L81.7489 96.2773C81.1662 95.9492 80.6196 95.5531 80.2419 95.241C79.5426 94.8609 79.1889 94.8449 79.0965 94.9489C78.6102 95.5051 78.6022 96.1493 79.0643 96.8575C79.5024 97.2776 79.9043 97.1096 80.5714 96.7775L81.0296 96.5494V97.0576C81.0296 97.1296 81.0778 97.2376 81.126 97.3497C81.2184 97.5617 81.331 97.8218 81.2948 98.1459L81.2827 98.2659L81.1943 98.346C80.704 98.7821 80.1695 99.0222 79.5988 99.0502H79.5788L79.5426 99.0382ZM78.8714 93.8926C78.5097 93.8926 78.2887 94.1207 78.0958 94.3688C77.714 94.8609 77.5291 95.4251 77.5291 96.1013C77.5291 96.7775 77.7261 98.2779 79.5466 98.41C79.9284 98.386 80.2861 98.2339 80.6357 97.9538C80.6237 97.8338 80.5714 97.7178 80.5152 97.5857C80.5031 97.5537 80.487 97.5257 80.475 97.4937C79.8922 97.7538 79.2251 97.9178 78.57 97.2656L78.5298 97.2176C77.8908 96.2613 77.915 95.305 78.5941 94.5248C79.0844 93.9606 80.0329 94.4128 80.4508 94.6408C80.4428 94.6328 80.4348 94.6208 80.4267 94.6128L79.6792 94.1727C79.3457 93.9766 79.0844 93.8966 78.8714 93.8966V93.8926ZM83.5534 96.5934L84.8394 97.5057L85.185 96.8495L84.6988 96.7895L84.739 96.7815L83.5574 96.5934H83.5534ZM85.6713 95.9172C85.9727 96.0133 86.25 96.1013 86.4952 96.1773C86.6117 96.2133 86.7202 96.2493 86.8207 96.2813C86.8287 96.2813 86.8368 96.2773 86.8408 96.2733C86.6318 96.0573 85.9486 95.6932 85.2293 95.3331C85.4061 95.5331 85.5548 95.7252 85.6673 95.9172H85.6713ZM64.7613 77.3076C67.0882 79.7844 67.6388 82.8493 68.1693 85.8182C68.2175 86.0943 68.2697 86.3744 68.322 86.6545C68.0648 83.0654 67.0802 79.8604 65.5208 77.5637C65.3038 77.5197 65.0828 77.3997 64.9783 77.0756C64.91 77.1596 64.8336 77.2396 64.7573 77.3076H64.7613Z" fill="currentColor"/>
<path d="M78.9586 97.1456L75.2573 96.4094C72.4039 95.8412 69.7354 94.5968 67.3241 92.7043C66.5806 92.1201 65.8532 91.4719 65.1659 90.7717L65.0253 90.6316L65.0936 90.4476C66.1104 87.6788 66.4238 83.4495 65.1619 81.4409C64.7721 80.8207 64.2577 80.4766 63.6267 80.4126C56.1999 79.7404 47.5835 77.9238 46.9083 69.7734C46.6873 67.5887 46.627 66.4084 46.623 66.3964L46.1367 56.7575L47.254 66.3444C47.254 66.3444 47.3745 67.3647 47.6116 68.9651C48.2948 75.5991 53.9051 76.5834 59.3306 77.5357C61.0105 77.8318 62.5979 78.1119 64.0648 78.548C68.0796 79.7764 67.316 85.5141 66.7614 89.6994C66.7212 90.0035 66.681 90.2955 66.6449 90.5796C67.2276 91.1078 67.8545 91.6199 68.5136 92.1081C70.5351 93.5925 72.862 94.8409 75.4301 95.8132L78.9586 97.1496V97.1456ZM65.7527 90.4716C65.8331 90.5516 65.9134 90.6276 65.9938 90.7077V90.6596C66.042 90.3275 66.0862 89.9794 66.1345 89.6153C66.1787 89.2912 66.2229 88.9551 66.2671 88.611C66.1305 89.2632 65.9576 89.8954 65.7527 90.4756V90.4716ZM48.9218 73.9426C51.6184 78.0719 57.7311 79.2442 63.687 79.7844C64.5229 79.8684 65.1941 80.3125 65.6964 81.1048C66.1867 81.881 66.464 82.9293 66.5725 84.0897C66.4962 81.749 65.8652 79.7484 63.8839 79.1442C62.4572 78.7161 60.8859 78.444 59.2261 78.1519C55.4444 77.4877 51.313 76.7635 48.9258 73.9466L48.9218 73.9426ZM78.8662 90.9557C77.7891 89.3633 77.0255 89.2072 76.2218 89.0472L76.1334 89.0272C75.1327 88.9031 74.128 88.6951 73.1634 88.419C72.2471 88.0869 71.2505 87.6547 70.7843 86.6104L70.7642 86.5544C69.9524 83.0414 68.6463 78.8921 65.6482 76.1513C65.1659 75.7312 64.6596 75.3591 64.121 75.031C63.695 74.8189 63.2851 74.7109 62.8832 74.6949C61.7861 74.9469 60.9984 75.255 60.5684 75.4511C60.4679 75.5151 60.3674 75.5791 60.267 75.6511C60.0459 76.3354 59.5476 76.3353 59.2422 76.3353H58.3419L59.0452 75.7752C59.2743 75.5951 59.5074 75.4111 59.7485 75.239C59.8289 75.143 59.9937 75.035 60.2147 74.9229C61.0064 74.4188 61.8544 74.0427 62.8109 74.0707C63.0159 74.0227 63.2208 73.9786 63.4218 73.9426L63.5303 73.9226L63.6267 73.9746C64.6033 74.4868 65.4593 75.111 66.2068 75.8152C68.7387 78.0879 70.4909 81.5369 71.5519 86.2943C71.9538 87.0025 72.7535 87.3387 73.5452 87.6187C74.4173 87.8668 75.3658 88.0789 76.3504 88.2509C77.2144 88.467 78.1669 88.7071 79.3926 90.6156L78.8662 90.9597V90.9557Z" fill="currentColor"/>
<path d="M103.101 65.9771H103.093C102.812 65.9771 102.579 65.8851 102.402 65.705C102.225 65.525 102.137 65.2929 102.137 65.0128C102.137 64.7728 102.205 64.5687 102.338 64.3966C102.37 63.7765 102.141 59.8513 101.984 57.4226L101.57 51.0526L102.611 57.3505C103.021 59.8353 103.708 63.8485 103.857 64.3726C104.01 64.5487 104.086 64.7688 104.086 65.0248C104.086 65.2969 103.986 65.533 103.797 65.713C103.612 65.8891 103.379 65.9771 103.101 65.9771ZM102.937 62.9762C103.001 64.6127 102.937 64.6807 102.86 64.7568C102.82 64.7968 102.768 64.8688 102.768 65.0168C102.768 65.1649 102.816 65.2289 102.848 65.2649C102.884 65.3009 102.949 65.3489 103.097 65.3489C103.234 65.3569 103.319 65.2969 103.359 65.2569C103.423 65.1969 103.451 65.1209 103.451 65.0208C103.451 64.8768 103.403 64.8048 103.359 64.7608C103.306 64.7087 103.246 64.6447 102.937 62.9762Z" fill="currentColor"/>
<path d="M91.462 90.1524L87.1819 89.2481C87.1417 89.2401 87.0975 89.2241 87.0533 89.2001C86.4384 88.912 85.6548 87.8757 85.1323 86.6713C84.642 85.695 84.2964 84.6187 84.1477 83.5944C83.8423 78.4569 87.4914 73.3713 92.7119 71.5108C92.3903 71.2067 92.0929 70.7426 92.3582 69.9583C92.5913 69.2581 93.2222 68.99 93.7809 68.754C93.8733 68.7139 93.9617 68.6779 94.0461 68.6379C92.4064 68.3498 90.7748 68.4259 89.0627 68.5099C87.2101 68.5979 85.2931 68.6899 83.36 68.2778C82.922 68.2418 82.4799 68.1978 82.0338 68.1578C81.3184 68.0898 80.583 68.0177 79.8194 67.9737C77.5046 67.8577 75.9131 67.7657 74.8159 67.6856C74.5145 67.6656 74.2573 67.6416 74.0323 67.6216C73.98 67.7216 73.8876 67.7897 73.7751 67.8097C73.5701 67.8497 73.4174 67.7056 73.2727 67.5696C73.2607 67.5576 73.2406 67.5416 73.2245 67.5216C72.6699 67.4296 72.6538 67.3295 72.6337 67.1655L72.6016 66.9094L72.8186 66.8294C73.0597 66.6853 73.2968 66.7854 73.4817 66.9174C73.5058 66.9174 73.5339 66.9254 73.5621 66.9294C73.5741 66.8214 73.5781 66.6933 73.5741 66.5373V66.2172L78.4771 66.2332V66.5453C78.4771 66.6173 78.4771 66.7374 78.449 66.8574C78.6298 66.8774 78.871 66.8974 79.1965 66.9254C79.514 66.9534 79.8797 66.9854 80.2735 67.0134C80.9527 67.0695 81.7243 67.1295 82.496 67.2095C84.429 67.3535 86.3822 67.3815 88.267 67.4056C90.7386 67.4376 93.2906 67.4696 95.7702 67.7817C97.2009 67.8857 97.2974 67.9257 97.3697 68.1698L97.43 68.3778L97.2451 68.5179C96.8472 68.806 96.4614 69.0741 96.1118 69.2261C95.6135 69.4022 94.9825 69.7142 94.3757 70.0183C94.2069 70.1024 94.1787 70.1544 94.1787 70.1544C94.1948 70.1984 94.3556 70.3624 94.452 70.4585C95.1191 70.9866 95.9068 70.8266 96.7387 70.6545C97.6108 70.4745 98.511 70.2904 99.3188 70.9266L99.6604 71.1947L99.2987 71.4348C98.8205 71.7509 98.2056 71.9669 97.4179 72.099H97.3737C92.0849 72.239 86.0446 75.9881 85.0881 82.0259C84.9354 83.4144 85.1082 84.8668 85.5824 86.0992C85.6226 86.1992 85.6628 86.2992 85.703 86.3993C85.7593 86.5113 85.8155 86.6193 85.8758 86.7273C86.4304 87.7196 87.0895 88.4839 87.3065 88.6199C87.3226 88.6279 87.3387 88.6359 87.3547 88.6399L91.462 90.1444V90.1524ZM95.4246 68.3738L95.083 68.7139C94.7896 69.006 94.3998 69.1741 94.026 69.3341C93.5277 69.5462 93.0977 69.7302 92.953 70.1624C92.748 70.7746 93.0334 70.9946 93.3951 71.2667C93.4513 71.3107 93.5036 71.3507 93.5558 71.3907L94.0099 71.7629L93.4513 71.9349C90.9717 72.6951 88.8296 74.2116 87.2944 76.1282C89.8826 73.2553 93.7728 71.5868 97.3375 71.4868C97.7676 71.4148 98.1373 71.3147 98.4508 71.1827C97.9806 71.0506 97.4541 71.1587 96.8673 71.2787C95.9711 71.4628 94.9584 71.6708 94.034 70.9346C93.7688 70.6745 93.4995 70.4064 93.5598 70.0543C93.596 69.8183 93.7728 69.6262 94.0903 69.4702C94.7213 69.1541 95.3683 68.834 95.8827 68.6539C95.9872 68.6059 96.1078 68.5419 96.2444 68.4539C96.0997 68.4419 95.9229 68.4259 95.7059 68.4098C95.6135 68.3978 95.517 68.3858 95.4246 68.3738ZM74.185 67.0014C74.3819 67.0214 74.6029 67.0374 74.8561 67.0574C75.5353 67.1055 76.3994 67.1615 77.5086 67.2215C77.5086 67.2175 77.5046 67.2135 77.5005 67.2055L77.4161 67.0614L77.4885 66.9014C77.4885 66.9014 77.5046 66.8734 77.5086 66.8574L74.197 66.8454C74.197 66.8974 74.189 66.9494 74.185 66.9974V67.0014ZM74.4342 65.8131H74.4261C74.1448 65.8131 73.9117 65.721 73.7349 65.541L73.5862 65.3929L73.6666 65.2009C73.7282 65.0515 74.7302 64.9648 76.6727 64.9408C78.3244 64.9208 80.5629 64.9048 82.938 64.8848C87.9174 64.8448 94.6087 64.7888 95.8787 64.7047C95.9189 64.5447 95.9993 64.4006 96.1198 64.2806C96.3007 64.0966 96.5298 64.0005 96.8111 64.0045C97.0884 64.0045 97.3335 64.1046 97.5144 64.2886C97.6992 64.4727 97.7917 64.7127 97.7917 64.9928C97.7917 65.2436 96.2699 65.3889 93.2263 65.429C90.7105 65.461 87.4231 65.489 84.3285 65.513C80.0846 65.545 75.7001 65.581 75.045 65.625C74.8762 65.7531 74.6713 65.8171 74.4342 65.8171V65.8131ZM96.807 64.6327C96.7066 64.6327 96.6302 64.6607 96.5699 64.7207C96.5659 64.7247 96.5619 64.7327 96.5539 64.7368C96.7548 64.7287 96.9236 64.7247 97.0562 64.7167C97.016 64.6767 96.9437 64.6327 96.807 64.6287V64.6327Z" fill="currentColor"/>
<path d="M86.5571 73.2553C86.0829 73.2553 85.5363 73.0833 85.1345 72.4151L85.1063 72.351C84.5959 70.8266 85.5564 69.9903 86.4044 69.2501C86.5893 69.0861 86.7782 68.922 86.955 68.75C85.7292 68.6739 84.4432 68.7179 83.1934 68.762C81.3969 68.822 79.5362 68.886 77.7639 68.6139L75.6942 68.6019C75.003 68.6019 74.3278 68.5939 73.6727 68.5899H73.5883L73.516 68.5459C70.116 66.5613 66.3866 65.677 62.7374 65.9771L58.8633 66.2972L62.637 65.3569C62.9987 65.2689 63.2438 65.0448 63.501 64.8048C63.6216 64.6967 63.7422 64.5847 63.8788 64.4807L63.6979 64.4046H63.9913C64.4696 64.0886 65.1246 63.9285 66.3022 64.4287L67.7128 65.0288H67.2345C67.6404 65.1289 68.0544 65.2169 68.4804 65.3089C69.7584 65.585 71.0846 65.8731 72.3143 66.4973C73.4477 66.9654 74.3841 67.0935 75.441 67.1375C76.7753 67.1935 78.202 67.2535 79.6246 67.3095L79.6849 67.3175C81.4009 67.7296 83.0527 67.6416 84.6522 67.5536C86.3401 67.4656 88.0843 67.3695 89.9008 67.8617L91.1868 68.2098L89.8767 68.4699C88.8358 68.6779 87.4533 69.4942 87.1278 70.3384C87.0193 70.6225 87.0514 70.8786 87.2283 71.1147C87.3971 71.3947 87.5216 71.4188 87.5659 71.4268C87.8351 71.4828 88.2812 71.1707 88.7072 70.8666C89.3944 70.3784 90.2504 69.7663 91.1265 70.2144L91.4641 70.3864L91.227 70.6865C90.8211 71.1987 90.3027 71.6668 89.6356 72.115L89.5552 72.155C89.2779 72.243 88.9443 72.407 88.5866 72.5791C88.2008 72.7672 87.7989 72.9632 87.4212 73.0833C87.2484 73.1393 86.9228 73.2473 86.5491 73.2473L86.5571 73.2553ZM85.6931 72.123C86.0186 72.6391 86.4687 72.7472 87.2323 72.4991C87.5699 72.391 87.9476 72.203 88.3174 72.0269C88.6751 71.8509 89.0167 71.6868 89.3261 71.5828C89.7441 71.2987 90.0937 71.0106 90.3911 70.7065C89.9731 70.7546 89.519 71.0746 89.0769 71.3907C88.5143 71.7909 87.9878 72.171 87.4413 72.0549C87.1519 71.9949 86.9068 71.7989 86.7098 71.4748C86.4205 71.0907 86.3562 70.6145 86.5411 70.1264C86.5772 70.0343 86.6214 69.9423 86.6737 69.8503C85.8458 70.5825 85.3756 71.1267 85.6931 72.119V72.123ZM86.8827 68.1178C87.1358 68.1338 87.389 68.1498 87.6422 68.1778L88.1968 68.2338L87.8713 68.6659C88.1124 68.5099 88.3656 68.3658 88.6268 68.2458C88.0441 68.1578 87.4654 68.1218 86.8827 68.1178ZM73.7611 67.9617C74.3881 67.9657 75.0391 67.9697 75.6982 67.9737L77.8403 67.9897C78.8771 68.1538 79.9622 68.1938 81.0393 68.1898C80.557 68.1418 80.0667 68.0617 79.5684 67.9457C78.1537 67.8897 76.7391 67.8337 75.4129 67.7737C74.2916 67.7256 73.2869 67.5896 72.0491 67.0734C71.7316 66.9134 71.4061 66.7734 71.0765 66.6533C71.9888 67.0174 72.885 67.4536 73.7611 67.9577V67.9617ZM64.14 65.2929C64.8393 65.2929 65.5386 65.3329 66.2338 65.417C65.852 65.3009 65.4743 65.1689 65.1086 65.0128L64.6102 64.8008C64.349 64.8888 64.1521 65.0688 63.927 65.2769L63.9029 65.2969C63.9833 65.2969 64.0596 65.2969 64.14 65.2969V65.2929ZM72.1375 65.521L72.0853 65.501C71.8683 65.425 71.6472 65.3489 71.4262 65.2809C71.1167 65.2249 70.8033 65.1569 70.4617 65.0689C70.2487 64.9928 70.0357 64.9208 69.8307 64.8608C68.7054 64.6087 67.556 64.4287 66.4629 64.2726C66.049 64.2206 65.623 64.1646 65.1809 64.0926L65.2774 63.4724L65.7998 63.5444C66.045 63.5804 66.2941 63.6124 66.5473 63.6484C66.6679 63.6644 66.7925 63.6804 66.913 63.6924C67.9459 63.8205 68.9345 63.9405 69.9955 64.2526C70.53 64.3726 71.0605 64.5087 71.5789 64.6687C71.7758 64.7047 71.9727 64.7368 72.1737 64.7688C72.3746 64.8008 72.5756 64.8368 72.7886 64.8728C73.9782 64.8608 75.3003 64.8528 76.6668 64.8408C81.1437 64.8048 87.0072 64.7568 89.0568 64.6847C87.4694 63.5204 82.9562 60.4155 79.8135 58.2748L70.1 51.6648L80.1551 57.7467C84.0614 60.1074 89.9651 63.6564 90.588 63.9605C90.8412 63.9765 91.0582 64.0685 91.227 64.2406C91.4079 64.4247 91.5043 64.6687 91.5003 64.9448C91.5003 65.1956 89.9812 65.3409 86.9429 65.3809C84.4312 65.413 81.1478 65.441 78.0573 65.465L75.8188 65.481C74.4966 65.493 73.2628 65.501 72.2018 65.513H72.1456L72.1375 65.521ZM88.3134 63.3843C89.3944 64.1566 89.8486 64.5167 90.0374 64.7047C90.3348 64.6967 90.58 64.6887 90.7608 64.6807C90.7166 64.6407 90.6483 64.5967 90.5117 64.5927C90.4474 64.5927 90.367 64.5927 88.3134 63.3843Z" fill="currentColor"/>
<path d="M82.128 74.3276C80.4763 74.3276 79.0858 73.5674 77.7314 72.8272C77.422 72.6591 77.1125 72.4911 76.799 72.331C75.9832 71.9109 75.3281 71.6468 74.6731 71.4668L74.5806 71.4428L74.5163 71.3707C69.2396 65.413 60.2334 66.6453 54.0645 70.9426C53.0397 71.6708 51.8179 71.8749 50.6324 71.5148C49.266 71.1027 48.1206 69.9823 47.57 68.5219C47.0154 67.2495 46.6577 66.5173 46.6537 66.5133L45.6289 64.4247L47.1762 66.1692C47.1762 66.1692 47.5499 66.5933 48.0121 67.2615C48.7194 68.5059 49.8487 69.0941 50.974 68.814L52.1796 68.4619C59.5863 66.2892 67.2422 64.0405 73.805 69.2861C74.7454 70.0143 75.3764 70.1584 76.0435 70.3104L76.1078 70.3264L76.1601 70.3664C78.5714 72.179 81.055 73.2393 83.5427 73.5154L85.1864 73.6954L83.5909 74.1276C83.0765 74.2676 82.5902 74.3276 82.12 74.3276H82.128ZM74.9303 70.8866C75.6014 71.0787 76.2686 71.3547 77.0884 71.7749C77.0964 71.7749 77.1045 71.7829 77.1125 71.7869C76.6865 71.5148 76.2605 71.2227 75.8426 70.9106C75.4487 70.8186 75.0428 70.7226 74.5726 70.5025C74.6972 70.6265 74.8178 70.7586 74.9343 70.8906L74.9303 70.8866ZM48.3095 68.6539C48.8359 69.7663 49.7482 70.5945 50.8172 70.9186C51.8139 71.2187 52.8387 71.0466 53.7028 70.4345C56.7531 68.3058 60.4825 66.9094 64.1477 66.7053C60.2977 66.7334 56.2909 67.9097 52.3564 69.0661L51.1387 69.4222C50.118 69.6782 49.1092 69.3862 48.3135 68.6579L48.3095 68.6539ZM72.5351 65.441H72.515C71.7072 65.3329 70.823 65.2009 69.7299 64.8888C69.6455 64.8648 69.5611 64.8448 69.4767 64.8208C66.8162 64.3966 64.2402 64.0485 61.7324 64.3086C61.2582 64.3846 60.7799 64.4847 60.3057 64.6127C59.6306 64.7808 59.2126 64.9088 59.0679 64.9568C58.6942 65.3489 58.011 65.3489 57.6734 65.3489H56.1663L57.5448 64.7488C58.8348 64.1886 60.153 63.8685 61.4792 63.7124C64.4893 63.2043 67.4593 63.6564 69.6053 64.2046C69.8826 64.2486 70.1639 64.2926 70.4412 64.3406C71.4299 64.5007 72.4507 64.6647 73.4513 64.7968L75.505 64.7808C77.6671 64.7608 83.1488 64.7127 84.2942 64.6367C84.3384 64.4767 84.4148 64.3326 84.5353 64.2126C84.7162 64.0285 84.9573 63.9365 85.2266 63.9365C85.5039 63.9365 85.749 64.0365 85.9299 64.2206C86.1147 64.4047 86.2072 64.6407 86.2072 64.9248C86.2072 65.1756 84.688 65.3209 81.6498 65.3609C79.138 65.393 75.8546 65.421 72.7601 65.445H72.5391L72.5351 65.441ZM85.2185 64.5607C85.118 64.5607 85.0457 64.5887 84.9814 64.6487C84.9774 64.6527 84.9734 64.6607 84.9653 64.6647C85.1663 64.6567 85.3351 64.6527 85.4677 64.6447C85.4275 64.6047 85.3552 64.5567 85.2185 64.5567V64.5607Z" fill="currentColor"/>
<path d="M89.8139 26.0278L89.3477 25.7757C87.479 24.7594 86 23.6871 85.1641 22.7468C83.9625 22.4267 83.0261 22.1467 82.4715 21.7385C81.8807 21.6665 81.5351 21.4985 81.4105 21.1824C81.2257 20.7022 81.6235 20.134 82.7729 19.2098L87.4187 15.4967L83.1909 19.6779C82.8412 20.022 82.4434 20.5062 82.5358 20.8543C82.5639 20.9543 82.6282 21.0463 82.7207 21.1343C83.1266 21.1584 83.7374 21.1584 84.6497 21.1103L85.1079 21.0863L84.9672 21.5225C84.8949 21.7425 85.128 21.9666 85.4897 22.1867L85.5178 22.2027C85.8071 22.3747 86.1688 22.5468 86.5305 22.7148C86.6832 22.7868 86.84 22.8589 86.9967 22.9349C87.692 23.327 88.2024 23.6671 88.4515 23.8312C88.5158 23.8752 88.56 23.9032 88.5801 23.9152C89.3357 24.2913 89.8059 24.6874 89.8059 25.4997V26.0278H89.8139ZM84.0348 21.7665C84.1393 21.8025 84.2478 21.8346 84.3563 21.8666C84.3443 21.8306 84.3362 21.7905 84.3322 21.7545C84.2318 21.7585 84.1313 21.7625 84.0348 21.7665Z" fill="currentColor"/>
<path d="M91.8568 56.0048L90.84 51.6675C90.824 51.6035 89.341 45.2776 88.4287 42.1807C88.1635 41.2844 88.0188 40.8963 87.9424 40.7282L87.8902 40.7402L87.7817 40.5122C87.0302 38.9077 87.3316 37.5033 87.6169 36.1429C87.6973 35.7707 87.7777 35.3906 87.8339 35.0025C84.9082 38.7636 81.5324 42.7648 76.4043 44.0892L74.7727 45.3256C71.3004 47.9544 69.4718 49.3108 68.4832 49.991C68.5073 50.103 68.4832 50.2151 68.4109 50.2991C68.2742 50.4631 68.0693 50.4511 67.8723 50.4391C67.8522 50.4391 67.8281 50.4391 67.8 50.4391C67.3579 50.6992 67.2776 50.6472 67.1731 50.5792L66.9882 50.4591L67.0324 50.2271C67.1168 49.907 67.3941 49.827 67.6392 49.811C67.6553 49.7989 67.6714 49.7909 67.6875 49.7789C67.6272 49.6869 67.5428 49.5829 67.4383 49.4588L67.2293 49.2188L70.999 46.0898L71.1999 46.3259C71.2482 46.3819 71.3245 46.474 71.3768 46.586C71.5295 46.486 71.7264 46.3459 71.9917 46.1619C72.6467 45.6977 73.5952 44.9975 74.8973 44.0172L74.9777 43.9732C75.3594 43.8332 75.7372 43.6851 76.115 43.5291L76.1471 43.5171C81.2792 41.3444 85.5633 37.3672 88.5895 31.9456L88.9592 31.2854L89.1682 32.0136C89.4575 33.0219 89.2606 33.9982 89.0717 34.9425C88.8547 36.0108 88.6658 36.9511 89.1722 37.8194C89.6746 37.0471 90.0644 36.2749 89.8192 35.3146L89.7228 34.9265H90.1247C90.3939 34.9265 90.5466 35.0625 90.6471 35.1546C90.7235 35.2226 90.7516 35.2466 90.836 35.2466H91.1816L91.1455 35.5947C91.041 36.607 90.8039 37.5953 90.4663 38.4595C90.4542 38.5916 90.4542 39.2078 90.6632 42.0406C90.9485 45.9138 91.4509 51.5275 91.4549 51.5835L91.8488 56.0208L91.8568 56.0048ZM68.1215 49.2948C68.1537 49.3388 68.1858 49.3788 68.2139 49.4228C68.9012 48.9427 69.8777 48.2225 70.8985 47.4622C70.8945 47.4622 70.8865 47.4622 70.8825 47.4582L70.7257 47.4022L70.6775 47.2342C70.6775 47.2342 70.6695 47.2022 70.6654 47.1862L68.1215 49.2988V49.2948ZM88.3082 40.144C88.497 40.3201 88.6819 40.8163 89.0315 42.0046C89.4575 43.449 90.0041 45.5857 90.4743 47.4703C90.3296 45.7377 90.1649 43.7411 90.0403 42.0686C89.7831 38.5836 89.8353 38.3875 89.8634 38.2795L89.8755 38.2435C89.9961 37.9434 90.1006 37.6273 90.189 37.2992C89.984 37.7313 89.7148 38.1354 89.4455 38.5356L89.2124 38.8837L88.9431 38.5596C88.3323 37.8314 88.1916 37.0631 88.2318 36.2909C87.9625 37.5673 87.7093 38.7756 88.3082 40.1401V40.144ZM88.5533 33.254V33.9702C88.5533 34.1062 88.5493 34.2423 88.5412 34.3783C88.6256 33.9342 88.694 33.4821 88.6859 33.0339C88.6417 33.1059 88.5975 33.182 88.5533 33.254ZM67.0043 48.5906C66.9761 48.5906 66.948 48.5906 66.9199 48.5906L66.7109 48.5706L66.6466 48.3705C66.5957 48.2131 67.4852 47.3542 69.3151 45.7937C69.6768 45.4817 70.1068 45.1215 70.581 44.7254C70.8543 44.4934 71.1477 44.2453 71.4652 43.9732L71.5174 43.9372C71.5496 43.9212 71.5817 43.9012 71.6139 43.8852C71.7746 43.7571 71.9394 43.6251 72.1082 43.4931L72.2047 43.441C72.3815 43.381 72.5583 43.321 72.7311 43.261C73.0044 43.1169 73.2978 42.9729 73.6233 42.8289L73.6595 42.8169C74.0694 42.6968 74.4753 42.5648 74.8772 42.4167C79.7802 40.2601 83.3851 37.0111 84.7515 33.418C85.3342 31.8856 85.5995 30.125 85.5633 28.0444C85.4588 27.9364 85.3463 27.7643 85.4266 27.5643C85.5472 27.2682 85.929 27.3002 86.0737 27.3122L86.351 27.3362L86.363 27.6123C86.4434 29.6169 86.2063 31.4534 85.6557 33.0699C84.1969 37.3672 80.1298 41.1604 75.1063 43.0009C74.4231 43.301 73.7117 43.5811 72.9803 43.8372C72.7271 43.9692 72.49 44.1052 72.2569 44.2373C72.1564 44.2933 72.06 44.3493 71.9595 44.4053C71.6179 44.6774 71.2964 44.9455 70.991 45.1936C69.8416 46.1739 68.2782 47.5103 67.9648 47.8104C67.9166 48.0184 67.8 48.2025 67.6151 48.3545C67.4222 48.5146 67.2133 48.5946 66.9962 48.5946L67.0043 48.5906Z" fill="currentColor"/>
<path d="M63.263 55.2366C63.2027 55.2366 63.1625 55.2126 63.1183 55.1846L62.9254 55.0645L62.9736 54.8245C63.0701 54.4483 63.058 54.2403 63.0299 54.1282C63.0018 54.0162 62.9013 53.8042 62.5999 53.456L62.3909 53.216L63.705 52.1076L63.91 52.3477C63.9542 52.3997 64.0346 52.4918 64.0828 52.5998C65.5015 51.6315 69.669 48.4265 73.1091 45.7777L74.2666 44.8855C74.8011 44.5214 75.2914 44.1733 75.7736 43.8332L76.1233 43.5931C79.7282 41.9566 82.67 40.016 84.8683 37.8274L86.6808 36.0228L85.3626 38.2075C85.0089 38.7956 84.6914 39.3958 84.39 39.972C83.8917 40.9163 83.3773 41.8966 82.6901 42.8289C82.6539 42.9089 82.6418 42.9609 82.6378 42.9929C82.6539 42.9929 82.678 43.0009 82.7101 43.0009C83.0035 43.0089 83.2808 42.9049 83.5581 42.6728C83.7189 42.5408 84.0645 42.2247 84.5548 41.6245C84.7437 41.4244 84.8642 41.1684 84.9969 40.8923C85.2702 40.3121 85.6158 39.5879 86.5964 39.4839L87.1188 39.4278L86.9219 39.912C86.6245 40.6522 86.2387 41.3484 85.9011 41.9606C85.8006 42.1407 85.7082 42.3127 85.6238 42.4688C85.455 43.0889 85.1295 43.6011 84.6593 43.9892C84.2333 44.3413 83.7751 44.5734 83.2969 44.6774C82.8146 44.7854 82.3364 44.7534 81.8823 44.5894C81.4322 44.4253 81.0303 44.1373 80.6887 43.7291L80.544 43.5531L80.6646 43.361C80.9298 42.9409 81.2754 42.5448 81.609 42.1607C81.7255 42.0246 81.8381 41.8926 81.9506 41.7605C81.4241 42.0966 80.8735 42.3527 80.3029 42.6208C79.8166 42.8489 79.3142 43.0849 78.7998 43.381C77.9518 43.7971 77.2727 44.1453 76.6457 44.5214C75.2512 45.6617 73.6316 46.9981 72.016 48.3345C64.7138 54.3683 63.6247 55.2206 63.263 55.2206V55.2366ZM63.275 53.296C63.4679 53.5521 63.5885 53.7761 63.6407 53.9762C63.6689 54.0762 63.6809 54.1883 63.6809 54.3083C64.971 53.36 68.4674 50.4671 71.6141 47.8664C72.4742 47.1542 73.3342 46.4419 74.1621 45.7617L73.4949 46.2739C63.9623 53.6081 63.8819 53.5801 63.5885 53.4801L63.4277 53.424L63.3795 53.252C63.3795 53.252 63.3715 53.224 63.3715 53.212L63.275 53.292V53.296ZM81.3236 43.5131C81.5527 43.7451 81.8099 43.9092 82.0872 44.0132C82.4329 44.1373 82.7825 44.1573 83.1522 44.0772C83.53 43.9932 83.8957 43.8052 84.2453 43.5171C84.6271 43.201 84.8803 42.7969 85.0129 42.2847L85.0411 42.2167C85.1335 42.0446 85.234 41.8606 85.3425 41.6685C85.5555 41.2844 85.7846 40.8683 85.9976 40.4321C85.8328 40.6122 85.7082 40.8603 85.5595 41.1684C85.4148 41.4765 85.2621 41.7925 85.021 42.0446C84.6472 42.5048 84.2614 42.9089 83.952 43.165C83.5541 43.4931 83.1161 43.6531 82.678 43.6371C82.3243 43.6251 82.1556 43.469 82.0792 43.345C81.9546 43.141 81.9667 42.8729 82.1194 42.5488L82.1314 42.5208C82.1113 42.5448 82.0912 42.5648 82.0712 42.5888C81.7979 42.9049 81.5367 43.205 81.3156 43.5171L81.3236 43.5131ZM83.6425 39.7759L83.5179 40.2721C83.6224 40.08 83.7229 39.884 83.8274 39.6879L83.8877 39.5759C83.8073 39.6439 83.7269 39.7119 83.6425 39.7799V39.7759ZM62.1618 52.5958C62.1337 52.5958 62.1055 52.5958 62.0774 52.5958L61.8684 52.5758L61.8041 52.3757C61.7559 52.221 62.4699 51.5115 63.9462 50.2471C65.2001 49.1748 66.9081 47.7223 68.7206 46.1859L71.9155 43.4811C72.7073 43.0529 73.4507 42.6688 74.5198 42.3527C74.5479 42.3447 74.576 42.3327 74.6041 42.3247C74.8774 42.2007 75.1507 42.0766 75.424 41.9526C76.8748 41.2964 78.3497 40.6282 79.6558 39.832C80.7329 39.0837 81.7014 38.2315 82.5333 37.3032C81.2714 38.0034 79.9773 38.6196 78.6672 39.1358C76.5975 39.804 74.5278 40.2361 72.9524 40.5362L72.9042 40.5442H72.856C71.8432 40.4241 70.8385 40.2961 69.8177 40.1641C68.8733 40.044 67.9208 39.92 66.9402 39.804L55.4102 38.4716L66.9965 39.1798C69.0702 39.3078 71.0676 39.5399 73.0006 39.7679L73.1694 39.7879C75.0301 39.3278 76.9552 38.8517 78.8199 38.1475C80.6766 37.1512 82.2922 35.9788 83.6224 34.6584C83.7671 34.3703 83.9238 34.1903 84.1047 34.0942L84.6713 33.8062L84.5588 34.4263C84.4905 34.8065 84.3981 35.1706 84.2815 35.5147L84.9728 35.0825L84.0846 36.3469C83.9198 36.579 83.751 36.8071 83.5742 37.0311C82.7142 38.4355 81.4201 39.4959 79.9372 40.3921C78.422 41.4364 76.698 42.2887 74.8332 42.9049C73.6758 43.433 72.5867 43.9612 71.6101 44.5654L70.0307 45.9058C66.8679 48.5906 63.6006 51.3634 63.1304 51.8116C63.0821 52.0196 62.9656 52.2037 62.7807 52.3557C62.5878 52.5158 62.3788 52.5958 62.1618 52.5958ZM83.6023 35.5467C83.108 36.0028 82.5775 36.4429 82.0189 36.8631C82.473 36.615 82.9272 36.3549 83.3733 36.0828C83.4577 35.9108 83.534 35.7307 83.6023 35.5507V35.5467Z" fill="currentColor"/>
<path d="M45.1055 67.4763L46.7371 66.1359C46.7371 66.1359 47.2435 65.7197 47.9187 65.1756C48.3165 64.8555 48.8229 64.4313 49.4096 63.9392C49.8156 63.5991 50.2616 63.227 50.7359 62.8349C51.4432 62.2467 52.1143 61.6945 52.7051 61.2064L55.0963 59.2418L83.3729 44.8615L80.0694 47.5823L59.501 59.4739C58.8539 59.846 58.1346 60.2541 57.2785 60.6982C56.2618 61.3224 55.2731 61.9266 54.3006 62.5268C52.5042 63.6311 50.8082 64.6754 48.9153 65.8158C47.8101 66.3559 47.0948 66.652 47.0626 66.664L45.1095 67.4723L45.1055 67.4763ZM55.4138 59.79L53.111 61.6945C52.5202 62.1827 51.8491 62.7348 51.1418 63.323C50.6675 63.7151 50.2255 64.0872 49.8196 64.4273C49.6468 64.5714 49.482 64.7114 49.3253 64.8435C50.9167 63.8792 52.4077 62.9629 53.971 62.0026C54.9436 61.4064 55.9322 60.7983 56.9691 60.1621C57.8372 59.7139 58.5445 59.3098 59.1875 58.9417L74.4912 50.095L55.4178 59.794L55.4138 59.79ZM58.0903 55.9568C58.0622 55.9568 58.0341 55.9568 58.006 55.9568L57.797 55.9368L57.7327 55.7367C57.6844 55.582 58.3985 54.8725 59.8747 53.6081C61.1286 52.5358 62.8406 51.0833 64.6491 49.5429C66.2044 48.2225 67.836 46.8381 69.315 45.5737C70.3076 44.7294 71.232 43.9372 72.0197 43.257L72.084 43.201L72.1724 43.185C72.3331 43.157 72.4899 43.125 72.6466 43.0849C73.0565 42.8889 73.4664 42.7048 73.9648 42.5448L74.0492 42.5288C74.1175 42.5288 74.1858 42.5208 74.2501 42.5128C74.7806 42.2767 75.3151 42.0006 75.8577 41.7205C76.5971 41.3404 77.3567 40.9523 78.1404 40.6442C78.5342 40.4642 78.9401 40.3241 79.3621 40.2521L87.1466 38.9597L79.4907 40.8643C79.1129 40.9563 78.7392 41.0843 78.3734 41.2284C77.9354 41.4324 77.5054 41.6925 77.0593 41.9606C76.2234 42.4648 75.3674 42.9809 74.4229 43.121C73.9125 43.345 73.3981 43.5371 72.8717 43.6731C72.8073 43.7051 72.743 43.7371 72.6787 43.7651C72.4939 43.8532 72.305 43.9452 72.1081 44.0332C70.3237 45.5577 68.1616 47.3942 66.1079 49.1388C62.8768 51.8836 59.5371 54.7164 59.0629 55.1686C59.0147 55.3766 58.8981 55.5607 58.7133 55.7127C58.5204 55.8728 58.3114 55.9528 58.0944 55.9528L58.0903 55.9568Z" fill="currentColor"/>
</svg>
