<svg width="143" height="143" viewBox="0 0 143 143" fill="none" xmlns="http://www.w3.org/2000/svg">
<path d="M48.8268 30.0658C49.0114 29.99 49.16 29.932 49.277 29.8918C48.7818 29.9364 48.192 29.99 47.5122 30.0524C47.4987 30.0792 47.4762 30.1104 47.4492 30.1461C47.9354 30.1193 48.3946 30.0925 48.8268 30.0658Z" fill="currentColor"/>
<path d="M47.0625 30.0967C47.2156 30.0833 47.3641 30.0699 47.5082 30.0565C47.6027 29.8781 47.4272 29.896 47.0625 30.0967Z" fill="currentColor"/>
<path d="M49.2773 29.891C49.3494 29.8866 49.4169 29.8777 49.4844 29.8732C49.6285 29.784 49.552 29.7929 49.2773 29.891Z" fill="currentColor"/>
<path d="M51.1788 29.8774C51.6335 29.7079 51.1293 29.7258 49.4816 29.8685C49.4186 29.9086 49.306 29.9666 49.1484 30.0424C49.9048 29.9934 50.5756 29.9399 51.1788 29.8774Z" fill="currentColor"/>
<path d="M61.2403 79.5471C61.1232 79.2661 61.0197 78.9673 60.8711 78.6641C60.8711 79.0788 60.8756 79.4891 61.2403 79.5471Z" fill="currentColor"/>
<path d="M46.4844 31.1989C46.7545 31.1231 47.0111 31.0517 47.2632 30.9804C47.2992 30.9268 47.3307 30.8822 47.3623 30.8376C47.0966 30.9491 46.804 31.0696 46.4844 31.1989Z" fill="currentColor"/>
<path d="M45.0117 30.2847C45.687 30.249 46.3173 30.2134 46.9115 30.1821C46.9611 30.1509 47.0106 30.1242 47.0601 30.0974C46.4478 30.1554 45.768 30.2178 45.0117 30.2847Z" fill="currentColor"/>
<path d="M45.7389 30.9982C45.7659 30.9759 45.7884 30.958 45.8154 30.9402C45.7929 30.8911 45.7659 30.8465 45.7344 30.8064C45.7389 30.8644 45.7434 30.9268 45.7389 30.9982Z" fill="currentColor"/>
<path d="M43.9609 30.9258C44.6993 30.5378 45.3971 30.3728 45.7347 30.8054C45.6582 30.0427 44.8433 30.3237 43.9609 30.9258Z" fill="currentColor"/>
<path d="M46.875 31.4566C47.5638 31.0909 48.131 30.8144 48.5722 30.6182C48.1761 30.7252 47.7349 30.8456 47.2667 30.9794C47.1676 31.1177 47.0416 31.2738 46.8795 31.4566H46.875Z" fill="currentColor"/>
<path d="M90.6127 65.1026C90.3471 65.2542 90.077 65.397 89.8114 65.5307C89.5458 65.6645 89.2621 65.7448 88.8795 65.6958C88.4968 65.6467 88.0961 65.5887 87.7495 65.5441C87.4434 65.3657 87.0967 65.2944 86.705 65.1829C85.1834 64.835 83.3826 64.835 82.9324 63.4971C82.9324 63.0511 83.8328 62.6051 84.292 62.5427C84.4766 62.2394 84.6296 61.896 84.6657 61.4545C85.377 52.7221 85.9037 53.1369 91.9363 49.0562C92.7466 41.8491 94.849 35.0523 98.0004 28.9245C93.4129 28.4473 93.8046 28.9513 81.2397 28.6792C80.3888 28.7149 79.5334 28.7863 78.5835 28.8487C76.0084 28.8532 73.4153 29.1787 70.7862 29.5846C69.9083 29.7184 69.0304 29.8611 69.1069 29.7942C67.7023 30.0752 67.2566 30.1465 68.8323 29.7362C66.3743 30.2892 65.9376 30.3517 68.5622 29.5177C65.0372 30.4899 64.578 30.5568 68.1345 28.5098C63.9702 30.5925 63.8172 30.5613 67.1126 26.097C63.1059 30.588 62.5476 30.6549 57.0868 29.6648C62.1784 30.423 62.3675 30.1331 60.1031 24.1079C61.8588 30.0662 61.1565 30.2892 56.9697 29.3973C59.6168 29.7273 60.2876 29.424 59.4998 27.6535C59.7249 28.5276 59.0856 28.7104 57.573 28.5454C57.5144 28.3001 57.2218 27.9523 56.8166 27.5018C56.8031 26.7883 56.3439 25.6644 55.7992 24.1837C56.1278 28.4161 55.7227 29.4106 51.1802 29.8834C50.9281 29.977 50.3699 30.1331 49.5595 30.3561C49.501 30.5078 48.8932 30.9582 47.5832 31.7387C52.3867 29.9503 53.2061 30.0439 48.7311 32.1891C54.7998 30.3561 55.5741 30.5702 50.7705 33.0454C57.0642 31.1277 57.7801 31.48 56.479 34.3343C57.2713 33.6073 57.8431 33.1569 57.9961 33.1034C58.7255 32.7733 59.0361 32.8447 58.5139 33.6029C59.1712 33.5271 59.5088 33.7144 59.6664 34.1381C59.5853 34.2183 59.4863 34.3254 59.3647 34.4725C59.4908 34.3967 59.6033 34.3432 59.7069 34.2941C59.7654 34.535 59.7879 34.8293 59.7789 35.1861C59.8735 34.7401 59.941 34.4056 59.95 34.2094C60.6658 34.0266 60.9404 34.6242 61.1115 35.8908C61.1205 35.8595 61.125 35.8283 61.134 35.7971C61.7598 35.1326 62.0209 35.5652 62.21 36.4661C62.354 36.2342 62.4306 36.4795 62.4936 36.8496C62.5926 37.0815 62.6782 37.4383 62.7457 37.804C62.8808 38.531 62.9303 39.2758 62.9303 40.0161C62.8177 42.469 62.201 44.8104 61.3771 47.0983C60.7513 48.7841 60.004 50.4699 59.2567 52.1691C58.6579 54.2742 58.0727 56.4951 57.4199 58.7429C57.2668 59.1933 57.1138 59.6438 56.9292 60.0942C55.9117 62.614 52.7604 63.506 53.2106 66.6279C53.6608 68.8578 56.3619 67.9658 56.3619 69.7497C56.8121 71.5292 55.0204 71.9752 53.2286 72.4212C52.5263 72.4212 51.797 72.4033 51.2702 72.8359C50.9371 73.157 50.5544 73.4692 50.0772 73.7859C48.1684 75.0658 44.7694 76.4885 37.2422 79.2492C55.7677 75.7437 48.2764 75.8775 51.2072 74.1694C56.0918 74.2854 51.4773 75.8196 37.6834 83.0311C59.2162 72.4033 50.0952 112.18 49.0238 123.263C54.4261 112.328 53.2691 98.7698 56.6005 102.699C54.9934 97.8734 52.6163 75.1238 55.6641 74.6868C55.0204 74.4772 54.9798 74.2854 55.277 74.0981C56.8166 73.3131 58.1672 72.8672 59.5178 71.9752H59.0676C59.2927 71.9752 59.5178 71.8637 59.7429 71.6987C59.95 71.6585 60.1391 71.7121 60.3056 71.8369C60.4182 74.6511 59.968 77.327 61.3186 79.5569C61.2871 79.5569 61.2646 79.548 61.2375 79.548C61.4716 80.1054 61.7733 80.6005 62.6692 80.8948C60.085 77.9737 61.4356 73.8528 63.7406 70.9851C63.1419 71.5203 62.5296 72.0778 62.228 72.8359C62.6241 71.8369 63.466 71.1234 64.2583 70.3741C64.4969 70.111 64.7446 69.8612 64.9967 69.6293C65.1407 69.4643 65.2803 69.2993 65.4018 69.1209C65.861 68.8043 66.3472 68.5813 67.1711 68.8489L66.7209 68.4029C68.3281 68.6705 69.0169 72.2339 69.359 73.4246C70.1694 76.2299 70.7547 79.0931 71.5065 81.9117C71.7946 82.9865 73.9735 81.8225 74.5138 82.8036C74.5813 82.9285 74.6578 83.0534 74.7749 83.1381C75.0585 83.3388 74.8919 100.995 75.1936 100.919C75.4862 100.848 75.7698 100.763 76.0264 100.763C76.3281 100.982 76.7783 110.321 77.2284 110.767C77.6831 110.013 77.6066 99.5414 77.6021 98.7029C77.5886 97.191 76.3866 80.1144 76.2155 78.6159C75.8283 75.2487 75.2476 71.8949 74.5813 68.5723C74.5363 68.3494 74.4913 68.1264 74.4462 67.9034C74.4237 67.7963 74.4012 67.6804 74.3202 67.6001C74.2527 67.5332 74.1581 67.502 74.0681 67.4663C72.3709 66.775 73.7619 64.8484 74.8739 64.3801C74.9325 64.3578 74.9955 64.3311 75.0585 64.3534C75.126 64.3757 75.1621 64.4425 75.1981 64.5005C76.6387 67.172 77.1609 70.3206 77.7687 73.273C78.1018 74.8919 78.444 76.5108 78.7006 78.1431C78.9302 79.6416 79.8891 96.8655 80.5779 98.2435C80.6274 98.3417 80.6814 98.4398 80.776 98.5022C81.1992 98.7743 81.2892 97.976 81.2982 97.7485C81.3117 97.2267 81.1902 96.7094 81.1857 96.1876C81.1721 92.9899 79.9656 74.2452 79.7855 71.052C79.709 69.6695 80.1907 69.1833 81.0821 68.22C81.6674 67.5912 82.2931 66.9891 83.0089 66.5074C83.6527 66.0748 84.3685 65.727 85.1474 65.611C85.5345 65.553 85.9262 65.5575 86.3134 65.6199C86.6825 65.6779 87.2002 66.0302 87.5379 66.0258C87.9656 66.0169 88.4023 66.0748 88.848 66.2131C89.2891 66.3514 89.7393 66.5654 90.1985 66.8732C90.5497 66.8241 90.8963 66.7706 91.2475 66.7171C91.0179 65.6556 90.8018 65 90.6172 65.1026H90.6127ZM57.564 28.7238C59.0091 29.3527 58.5409 29.3348 56.8662 28.9736C57.2893 28.9468 57.5009 28.8621 57.564 28.7238ZM61.17 35.6856C61.4176 34.8204 61.3726 34.8382 61.17 35.6856ZM53.2601 72.4167C53.7193 72.3944 54.5837 71.9752 55.0204 71.9752C54.5837 72.4078 53.9309 72.4212 53.2601 72.4167ZM69.4086 64.2998C69.161 64.612 68.8503 64.835 68.4722 64.9777C66.7254 66.173 64.4744 64.389 62.6331 64.9777C62.3405 64.9554 62.0569 64.9064 61.7823 64.8484C60.6838 64.6165 59.7024 64.1794 58.5904 64.0099C59.0001 64.1036 59.3242 64.3221 59.0676 64.8306C58.6174 65.7225 57.717 65.2765 57.2668 65.2765C57.717 65.7225 58.6174 65.7225 59.0676 65.7225C57.2668 66.1685 59.968 67.0605 59.2702 68.55C59.1847 68.9782 59.0496 69.393 58.8785 69.7676C58.6174 67.5064 56.3664 67.5064 55.0159 66.6145C51.8645 64.8306 56.3664 62.1547 58.3293 60.8346C58.5769 60.451 58.748 60.0496 58.919 59.6527C59.6303 57.6101 60.3327 55.5853 60.8864 53.5829C61.6427 51.3039 62.372 49.0294 63.0338 46.7058C63.6956 44.3823 64.2854 42.0141 64.7356 39.5612C64.7356 38.8164 64.8841 38.1251 65.1272 37.4606C65.3703 36.7961 65.708 36.1584 66.2887 35.9487C66.4553 34.8962 66.8605 34.2763 68.004 34.2139C67.6753 33.1034 68.157 32.6262 69.1925 32.3363C69.2465 31.8056 69.8543 31.4622 70.5431 31.1946C71.2274 30.927 71.9927 30.7397 72.8436 30.6416C72.4744 30.6861 71.7091 32.9607 71.5605 33.3308C69.1475 39.0082 69.8092 44.6945 69.341 50.568C69.2645 51.5492 69.152 52.5304 68.9944 53.5204C68.9404 53.8505 68.7918 54.176 68.3146 54.5105C66.7254 55.0234 65.3748 56.8073 64.9246 58.1453C64.0242 61.2672 67.1756 62.6051 69.8768 63.0511C69.8002 63.5729 69.6382 63.9787 69.4086 64.2954V64.2998ZM81.1316 63.9475C78.8807 65.2855 77.5301 63.5015 75.4457 62.7701C75.1801 62.6185 75.036 62.391 74.946 62.1413C74.6848 61.3831 74.937 60.3796 73.924 60.3796C73.4738 62.6096 73.4738 64.8395 71.2229 66.1774C74.3742 63.0555 73.0236 59.0417 69.8723 56.8118C71.2229 55.9198 72.5734 56.3658 73.816 56.7048C74.2031 56.785 74.2707 56.4818 74.3247 56.174C74.5408 54.9342 74.6398 53.6944 74.6398 52.5081C75.09 44.9264 71.9387 37.7906 73.5504 30.4141C73.5594 30.4141 73.5684 30.4141 73.5774 30.4141C75.6618 30.4186 77.9893 30.0484 79.8396 31.2035C82.7388 32.8848 83.189 36.0067 83.189 38.6826C82.8334 45.35 82.2031 52.0219 82.3877 58.6894C82.4012 59.1354 82.4147 59.5769 82.4372 60.0229C82.9234 61.7221 82.023 63.06 81.1226 63.952L81.1316 63.9475Z" fill="currentColor"/>
<path d="M58.5921 64.0181C58.277 63.9468 57.9168 63.9468 57.7188 63.9468C58.0204 63.9468 58.3085 63.978 58.5921 64.0181Z" fill="currentColor"/>
<path d="M96.8141 80.0784C96.4225 79.2132 96.0488 78.339 95.6932 77.4515C95.6211 77.5006 95.5716 77.4872 95.5536 77.3935C95.5536 77.3802 95.5491 77.3668 95.5446 77.3534C95.5536 77.2865 95.5671 77.2241 95.5761 77.1572C95.2475 76.3098 94.9323 75.458 94.6397 74.5928C94.6307 74.624 94.6262 74.6597 94.6172 74.6909C95.369 77.126 96.1163 79.3469 96.8096 80.0784H96.8141Z" fill="currentColor"/>
<path d="M91.2692 66.712C91.2692 66.712 91.2512 66.712 91.2422 66.712C92.0075 70.2665 92.9304 78.4101 93.3266 78.1202C93.8983 77.0187 94.317 75.8725 94.6231 74.6817C93.4481 70.8686 92.2641 66.5515 91.2692 66.7031V66.712Z" fill="currentColor"/>
<path d="M64.2644 70.3776C64.0843 70.5738 63.9133 70.7745 63.7422 70.9842C63.7557 70.9708 63.7737 70.9574 63.7872 70.944C64.35 70.4445 64.8137 69.7711 65.3719 69.2983C65.2458 69.4054 65.1243 69.5169 64.9982 69.6328C64.7686 69.8915 64.5165 70.1368 64.2599 70.3776H64.2644Z" fill="currentColor"/>
<path d="M48.8264 30.0655C48.4843 30.2038 48.0251 30.4045 47.4668 30.6587C47.4398 30.7122 47.4083 30.7702 47.3633 30.8326C48.2141 30.4758 48.7994 30.2127 49.1506 30.0432C49.047 30.0521 48.9345 30.0566 48.8264 30.0655Z" fill="currentColor"/>
<path d="M47.279 30.3421C47.0854 30.5428 46.7883 30.8193 46.3516 31.185C46.7567 30.9888 47.1304 30.8148 47.4635 30.6632C47.5986 30.3912 47.5176 30.293 47.279 30.3466V30.3421Z" fill="currentColor"/>
<path d="M46.9188 30.1764C46.6307 30.3459 46.2525 30.6046 45.8203 30.939C45.8473 30.997 45.8788 31.0505 45.8968 31.1264C46.5046 30.6804 46.9998 30.4083 47.2834 30.3459C47.3555 30.2701 47.4095 30.2076 47.45 30.1497C47.2744 30.1586 47.0989 30.1675 46.9188 30.1809V30.1764Z" fill="currentColor"/>
<path d="M48.5742 30.6176C48.9389 30.5195 49.263 30.4303 49.5601 30.35C49.6097 30.2206 49.254 30.3188 48.5742 30.6176Z" fill="currentColor"/>
<path d="M59.4986 27.648C59.368 27.1485 58.9628 26.426 58.2695 25.4092C58.8233 26.3324 59.2419 27.0682 59.4986 27.648Z" fill="currentColor"/>
</svg>
