<svg width="143" height="143" viewBox="0 0 143 143" fill="none" xmlns="http://www.w3.org/2000/svg">
<g clip-path="url(#clip0_675_7129)">
<path d="M38.5015 60.086C38.5015 66.0081 40.0838 71.5661 42.8529 76.3588C43.1067 76.7972 43.3679 77.2208 43.6366 77.6443C44.6144 79.5242 52.1752 91.9332 53.6531 92.914C57.0864 94.8682 53.9442 85.8773 56.6312 89.3474C56.9969 89.6446 57.3775 89.8452 57.7582 89.9864C60.0421 90.8335 62.5201 91.0713 64.6772 92.0149C65.237 92.171 68.8793 116.513 69.4391 116.617C71.0737 116.863 69.6406 92.7803 71.3424 92.7803C76.4178 92.7803 81.2245 91.636 85.5162 89.5851C85.9939 89.3548 86.4641 89.117 86.9418 88.9833C87.8076 88.322 90.0095 126.099 90.9872 125.608C95.4058 122.673 93.204 80.0146 98.4809 78.4914C98.7795 78.0604 99.0631 77.622 99.3393 77.1762C101.265 74.0554 102.676 70.5853 103.467 66.8849C103.482 66.3796 103.489 65.8818 103.482 65.3765C102.362 65.8224 100.757 66.4094 98.0107 67.3976C97.5256 67.6205 97.0255 67.836 96.5329 68.0292C96.0328 68.2224 95.5327 68.4082 95.0326 68.5717C94.4206 68.802 93.831 68.9729 93.301 69.2553C92.2412 69.8051 91.45 70.2212 91.45 70.2212L88.7108 71.6479C88.7108 71.6479 87.5613 72.2498 86.0238 73.0523C85.6431 73.2529 85.3073 73.4981 84.9565 73.7581C84.1056 74.7093 83.1353 75.482 82.0903 76.1508C81.5679 76.4851 81.023 76.7824 80.8289 76.9607C79.9109 77.3471 79.3436 77.6072 80.9409 77.8449C78.1867 78.0901 77.6046 78.3131 79.2018 83.9305C78.6495 82.8977 78.1793 82.0729 77.7688 81.4339C77.3508 80.7948 76.9925 80.3416 77.209 80.1038C76.3059 79.7397 75.9849 79.5911 77.1045 79.6431C75.3057 79.5242 74.9549 79.6134 77.0821 80.5273C76.679 80.453 76.3208 80.3936 76.0073 80.349C76.3133 80.4382 76.6492 80.5571 77.0298 80.6908C76.5596 80.5348 76.1715 80.4159 75.8282 80.3342C75.6416 80.3193 75.4624 80.3044 75.3057 80.3044C74.8429 80.3119 74.4921 80.4159 74.2533 80.6685C74.1563 80.7503 74.0742 80.8394 74.007 80.9509C73.9249 81.1738 73.8801 81.4487 73.9174 81.798C73.895 81.8351 73.8726 81.8723 73.8502 81.9094C73.8502 81.9243 73.8502 81.9391 73.8502 81.954C73.798 82.0209 73.7532 82.0878 73.7084 82.1546C73.4547 82.6896 73.3278 83.3881 73.186 84.25C73.2979 83.3658 73.4024 82.6599 73.7084 82.1546C73.7532 82.0655 73.798 81.9837 73.8428 81.902C73.7905 81.4785 73.8577 81.1738 73.9995 80.9435C74.0742 80.7503 74.1787 80.6017 74.2981 80.4976C74.5444 80.2598 74.8653 80.1855 75.3057 80.2376C75.4624 80.2524 75.6341 80.2896 75.8207 80.3342C75.8804 80.3342 75.9401 80.3416 75.9998 80.349C75.6938 80.2599 75.4326 80.193 75.1937 80.1558C74.7161 80.0889 74.3578 80.141 74.1339 80.3564C73.7756 80.5942 73.5517 80.9955 73.7831 81.6865C73.6786 81.7757 73.5965 81.8723 73.5144 81.9763C73.5144 81.9763 73.5293 81.9912 73.5368 81.9986C73.5144 82.0135 73.492 82.0283 73.4696 82.0432C73.0889 82.5707 72.9397 83.2915 72.7904 84.198C72.8277 83.1652 72.8725 82.3998 73.4696 82.0432C73.4845 82.0209 73.4994 81.9986 73.5144 81.9763C73.2681 81.7162 73.1039 81.5156 73.0218 81.3596C72.9322 81.367 72.8501 81.3819 72.768 81.3967C72.865 81.4785 72.9844 81.575 73.1412 81.6865C71.4842 81.7757 71.0214 82.3553 70.5811 84.2649C71.0364 82.3032 71.417 81.6271 72.768 81.3967C72.6635 81.3001 72.5963 81.2258 72.5665 81.1589C72.4023 81.0921 72.2754 81.0326 72.1858 80.988C72.0515 81.0178 71.932 81.0475 71.8126 81.0772C71.9246 81.0995 72.0515 81.1218 72.2082 81.1515C72.1186 81.1515 72.0291 81.1515 71.947 81.1589C72.0589 81.1887 72.1933 81.2258 72.3351 81.263C71.8275 81.263 71.4394 81.3001 71.1035 81.3967C71.2454 81.419 71.3946 81.4636 71.5588 81.5305C71.3872 81.471 71.2379 81.4264 71.0961 81.4041C71.0065 81.4339 70.9244 81.4636 70.8423 81.5007C70.2601 81.8797 69.7377 82.4816 68.9913 83.5144C69.775 82.3553 70.2377 81.7757 70.8423 81.5007C70.902 81.4636 70.9617 81.4264 71.0214 81.3893C70.8647 81.367 70.7154 81.3893 70.5587 81.4264C70.193 81.5825 69.8496 81.8351 69.4316 82.2141C69.1779 82.4518 68.8943 82.7342 68.5435 83.0909C68.8868 82.7342 69.1704 82.4518 69.4316 82.2141C69.9093 81.7608 70.2452 81.5156 70.5587 81.4264C70.6035 81.4041 70.6483 81.3893 70.693 81.3744C70.1034 81.4116 69.5361 81.8277 68.3121 82.8457C69.6332 81.6122 69.5809 81.6345 68.2897 82.8159C69.2003 81.8277 68.8719 81.9986 67.5284 82.92C67.924 82.4964 67.3418 82.8011 66.7297 83.128C66.364 83.3064 65.961 83.5144 65.6848 83.663C65.4086 83.8116 65.2519 83.8934 65.2519 83.8934C65.2519 83.8934 65.3788 83.7819 65.6027 83.5887C65.8266 83.3955 66.1476 83.1206 66.461 82.8234C66.9163 82.4593 67.3642 82.0655 66.8492 81.9317C68.0882 81.4487 68.3345 81.2332 67.1029 81.0103C68.7599 80.8023 68.9316 80.5942 67.7075 79.6208C69.0137 80.0964 69.4466 80.0964 69.3272 79.3087C69.1629 79.1676 68.8793 78.8629 68.4464 78.3948C68.745 78.5954 68.9987 78.744 69.2227 78.8481C69.1928 78.7366 69.1555 78.6251 69.1182 78.4988C69.1928 78.6474 69.2525 78.7737 69.3048 78.8852C69.9392 79.1676 70.2751 79.0412 70.5064 78.4765C70.3273 78.6623 70.0064 78.3279 69.4242 77.5849C69.9093 77.9638 70.2825 78.1867 70.5885 78.2536C70.6259 78.1347 70.6632 78.0084 70.693 77.8598C70.6706 78.0233 70.6483 78.157 70.6184 78.261C70.9543 78.3279 71.2006 78.209 71.4096 77.8969C71.2678 77.949 71.0065 77.5997 70.5288 77.0276C71.3648 77.6592 71.835 77.9044 72.0962 77.6443C72.1783 77.6889 72.0515 77.2282 71.7081 76.3588C72.6187 77.5329 72.9322 77.7706 72.6934 77.0424C72.5963 76.8269 72.4545 76.4926 72.2604 76.0467C72.5814 77.2654 72.4769 77.087 72.0291 75.9724C72.1933 76.6635 72.0141 76.4183 71.6708 75.8015C71.5887 75.6901 71.3424 75.2665 71.1035 74.8504C70.3796 73.6021 69.678 72.4132 69.4391 70.89C69.1032 68.7054 68.6554 66.6323 67.7523 64.5963C66.9014 63.1176 65.8565 61.7281 64.6548 60.4872C63.789 59.5882 62.8411 58.7782 61.8185 58.0649C61.311 57.7082 60.7811 57.3739 60.4004 57.4036C59.6988 56.7497 59.1465 56.4673 58.4747 57.4556C58.012 55.9398 57.4372 55.6946 55.9445 56.2073C56.258 55.2636 55.6609 55.0704 54.8846 54.9515C54.4517 54.736 53.8397 54.5948 53.2202 54.476C51.9886 54.2382 50.7422 54.1044 49.4957 54.0673C50.6899 53.8444 51.9289 53.7849 53.1903 53.8221C53.8247 53.8369 54.4666 53.8815 54.7801 53.941C55.7579 53.9855 56.4072 54.0598 55.1832 54.3868C57.7209 54.2085 58.3777 54.2828 60.3631 56.4971C59.6988 54.4314 60.3631 54.4982 62.4604 55.0481C61.6842 54.6097 62.3485 54.6469 63.0351 54.6914C63.6696 54.684 64.3264 54.6766 64.9757 54.632C65.3041 54.6097 65.6251 54.58 65.5878 54.5503C66.1625 54.5131 66.4834 54.476 66.0953 54.3868C66.0804 54.3868 66.0655 54.3868 66.0431 54.3868C66.0132 54.3868 65.9834 54.3868 65.9535 54.3868C65.9759 54.3868 65.9983 54.3868 66.0132 54.3868C65.9983 54.3868 65.9908 54.3868 65.9759 54.3868C66.0057 54.3868 66.0356 54.3868 66.0729 54.3868C66.0057 54.3719 65.9162 54.3571 65.8042 54.3422C66.3342 54.3422 66.7297 54.3199 66.9537 54.3125C67.1179 54.2976 67.2746 54.2753 67.4015 54.2605C67.6179 54.2159 67.7523 54.1639 67.8045 54.097C67.7971 54.0153 67.6926 53.9038 67.5134 53.7701C67.4761 53.7701 67.4313 53.7701 67.3791 53.7701C67.1029 53.7775 66.6476 53.7106 66.0132 53.5992C66.6252 53.7032 67.0805 53.7701 67.3791 53.7701C67.4239 53.7701 67.4687 53.7701 67.506 53.7552C67.3343 53.6289 67.088 53.4728 66.7596 53.2796C66.67 53.2351 66.5879 53.1905 66.4834 53.1459C66.5506 53.1756 66.6029 53.1979 66.6626 53.2276C66.6252 53.2053 66.5879 53.183 66.5506 53.1608C66.9984 53.3317 67.3716 53.4654 67.6702 53.562C67.6254 53.3762 67.3194 53.0493 66.7372 52.5366C66.9089 52.6332 67.0656 52.7224 67.2149 52.8041C67.1104 52.7001 66.991 52.5886 66.8566 52.4623C67.4313 52.8338 67.8642 53.1087 68.1703 53.2648C68.4166 53.3539 68.5808 53.3614 68.6554 53.2796C68.5733 52.9899 68.3569 52.544 68.0135 51.9124C68.1703 52.0908 68.3046 52.2542 68.424 52.3954C68.3494 52.2394 68.2598 52.061 68.1628 51.8604C67.9016 51.801 67.6105 51.7044 67.2746 51.5558C67.0955 51.5483 66.9089 51.5335 66.7223 51.526C66.9387 51.5409 67.1477 51.5483 67.3418 51.5483C67.2821 51.5335 67.2298 51.5112 67.1701 51.4963C67.2373 51.5186 67.3045 51.5335 67.3716 51.5558C67.5508 51.5558 67.715 51.5558 67.8792 51.5409C67.8568 51.5186 67.8344 51.5037 67.8045 51.4815C67.8344 51.5037 67.8642 51.5186 67.8866 51.5335C68.5658 51.474 69.1256 51.2734 69.5809 50.7013C69.7153 50.8573 69.8347 50.9836 69.9541 51.0876C70.0138 50.991 70.0735 50.8944 70.1333 50.783C70.1556 50.8276 70.178 50.8647 70.2004 50.9019C70.2228 50.8722 70.2377 50.8499 70.2601 50.8201C70.2601 50.8276 70.2601 50.835 70.2676 50.8424C70.2825 50.8201 70.2975 50.8053 70.3198 50.783C70.3348 50.7979 70.3497 50.8127 70.3572 50.835C70.3572 50.835 70.3721 50.8276 70.3796 50.8201C70.4169 50.8796 70.4617 50.939 70.499 50.991C70.5811 51.0653 70.6632 51.1248 70.7453 51.1545C70.7826 51.1099 70.8199 51.0579 70.8572 51.0059C70.8572 51.0653 70.8647 51.1174 70.8722 51.1694C70.9841 51.0951 71.0961 50.9688 71.2006 50.8201C71.3723 50.6864 71.4917 50.3372 71.5066 49.8988C71.529 49.022 71.1259 47.7736 70.4318 45.7897C70.7453 46.4659 71.014 47.0306 71.2528 47.4913C71.0438 47.0157 70.8125 46.4882 70.5587 45.9086C71.0961 47.038 71.5365 47.9297 71.9096 48.6133C71.7529 47.9965 71.5066 47.2535 71.2006 46.3321C71.7828 47.8034 72.1709 48.6727 72.4247 49.0294C72.6038 48.8585 72.6336 48.1154 72.6112 46.9266C72.7157 47.4987 72.8053 47.8851 72.8799 48.1154C72.8874 47.8182 72.8949 47.4615 72.8949 47.0529C72.977 47.7662 73.0442 48.1823 73.0964 48.3755C73.1113 48.3606 73.1337 48.3383 73.1486 48.3086C73.0889 47.9594 73.0292 47.5656 72.9621 47.1272C73.0367 47.5507 73.1039 47.9297 73.171 48.264C73.2606 48.0709 73.3502 47.677 73.4621 47.1569C73.3576 47.8331 73.283 48.3161 73.2158 48.4572C73.4099 49.3786 73.589 49.9656 73.8279 50.2851C73.9547 50.1811 74.0816 50.0251 74.2234 49.8245C74.1189 49.7873 74.0518 49.6461 74.007 49.4009C73.9995 49.3563 73.9921 49.3117 73.9846 49.2597C73.9846 49.2449 73.9846 49.23 73.9846 49.2152C73.9846 49.1408 73.9697 49.0591 73.9697 48.9774C73.9697 48.9774 73.9697 48.9699 73.9697 48.9625C73.9697 48.8882 73.9697 48.8065 73.9697 48.7247C73.9697 48.695 73.9697 48.6653 73.9697 48.6356C73.9697 48.5984 73.9697 48.5613 73.9697 48.5241C73.9697 48.2195 73.9697 47.8702 73.9921 47.469C73.9771 47.8777 73.9697 48.2269 73.9697 48.5241C73.9697 48.5613 73.9697 48.5984 73.9697 48.6356C73.9697 48.6653 73.9697 48.695 73.9697 48.7247C73.9697 48.8065 73.9697 48.8882 73.9697 48.9625C73.9697 48.9625 73.9697 48.9699 73.9697 48.9774C73.9697 49.0665 73.9771 49.1483 73.9846 49.2152C73.9846 49.23 73.9846 49.2449 73.9846 49.2597C73.9846 49.3117 73.9995 49.3563 74.007 49.4009C74.0592 49.7056 74.1712 49.7873 74.3503 49.6238C74.425 49.5049 74.4996 49.3786 74.5817 49.2449C74.5668 48.8808 74.5966 48.3904 74.6563 47.7736C74.6265 48.3755 74.619 48.8511 74.6713 49.2152C74.7758 49.0591 74.8877 48.8659 75.0146 48.6356C74.9027 48.9254 74.7982 49.178 74.7086 49.4083C74.7161 49.4455 74.7235 49.4827 74.7384 49.5124C74.8803 49.3638 75.037 49.1631 75.2236 48.9031C75.0743 49.2226 74.9474 49.4975 74.8355 49.7353C74.8653 49.7799 74.8877 49.8245 74.925 49.8616C75.0295 49.7576 75.134 49.6461 75.2535 49.5198C75.1564 49.6684 75.0743 49.8022 74.9922 49.9285C74.9922 49.9285 75.0071 49.9359 75.0146 49.9433C75.2087 49.921 75.4774 49.7799 75.8506 49.4975C75.6864 49.713 75.5445 49.9062 75.4177 50.0697C75.44 50.0697 75.4699 50.0697 75.4923 50.0697C75.5445 50.0325 75.5968 49.9954 75.6565 49.9582C75.6192 49.9954 75.5968 50.0325 75.5595 50.0697C75.7685 50.0548 76.0148 49.9879 76.3059 49.8839C75.2758 51.2585 75.5819 51.4072 77.0672 51.1917C76.8059 51.2808 76.7761 51.2957 76.8955 51.2734C76.8582 51.2585 76.9925 51.2214 77.3433 51.1397C76.8656 51.2214 77.2612 51.1397 77.9106 51.0059C77.4404 51.1322 77.0448 51.2363 76.8955 51.2734C76.9403 51.2883 77.1717 51.2734 77.5747 51.2363C77.7613 51.266 78.5674 51.2363 79.7616 51.1842C78.6943 51.1768 78.0001 51.1619 77.7837 51.1322C77.3583 51.1322 77.403 51.1322 77.8658 51.1174C78.2166 51.1322 78.9779 51.1471 80.09 51.1768C77.1269 50.9019 77.3135 50.8127 80.3289 51.0356C77.6867 50.6344 77.8733 50.5452 80.5976 50.7384C78.4778 50.2703 78.8883 50.0845 81.023 50.0771C79.7168 49.6981 80.1273 49.5049 81.3589 49.3861C80.9409 49.1111 81.3589 48.9105 81.8664 48.7173C82.1724 48.5093 82.5829 48.3086 82.986 48.1006C84.6131 47.2758 86.2328 46.399 87.83 45.4702C89.39 44.5414 85.9715 35.0897 87.4867 34.1015C87.5763 34.042 87.7106 34.0495 87.8674 34.1015C84.1728 31.2259 80.0378 29.0636 75.6938 27.6889C74.2533 27.4958 72.7904 27.3917 71.2976 27.3917C53.1605 27.3917 38.4492 42.0298 38.4492 60.0934L38.5015 60.086Z" fill="currentColor"/>
</g>
<defs>
<clipPath id="clip0_675_7129">
<rect width="142.1" height="142.1" fill="white"/>
</clipPath>
</defs>
</svg>
