<svg width="143" height="143" viewBox="0 0 143 143" fill="none" xmlns="http://www.w3.org/2000/svg">
<g clip-path="url(#clip0_675_1063)">
<path d="M44.144 98.9813C48.7292 98.3509 52.6754 94.3702 56.3928 91.9049C60.775 88.9992 65.4941 86.0676 68.5034 81.6335C69.5569 80.0792 70.0232 78.499 69.7339 76.9317C69.6648 75.1529 68.8013 71.6989 65.779 72.9942C61.2154 75.4508 43.5784 92.8029 39.1098 95.6481C32.2579 100.825 23.7394 103.42 17.0818 108.307C17.0257 108.441 16.9653 108.57 16.9091 108.704C18.757 109.05 42.7019 99.1799 44.144 98.9813Z" fill="currentColor"/>
<path d="M59.4491 96.5421C55.844 101.063 50.663 103.653 49.0871 108.562C48.9619 109.793 49.5275 110.989 50.2398 112.435C50.6673 113.009 51.099 113.51 51.4746 114.032C51.8503 114.555 52.1741 115.094 52.4849 115.405C52.8606 114.745 53.4262 113.842 54.0652 113.005C55.9821 110.501 58.5338 108.597 60.9084 106.455C64.5049 103.204 67.7689 99.5946 70.8862 95.8816C75.7304 90.1134 79.3183 83.2269 73.5501 76.4484C72.0908 80.4983 70.027 84.0559 67.6006 87.3372C65.1698 90.6142 62.3764 93.6149 59.4534 96.5378L59.4491 96.5421Z" fill="currentColor"/>
<path d="M97.7824 45.9373C93.3397 47.2369 90.0282 51.7573 86.7166 54.7493C82.8136 58.2724 78.5824 61.8732 76.2639 66.6959C75.4523 68.3883 75.2277 70.0204 75.7458 71.5315C76.0783 73.2801 77.4469 76.5657 80.2404 74.8344C84.3895 71.7301 99.259 51.9559 103.257 48.476C109.263 42.3408 117.306 38.5112 123.161 32.6912C123.195 32.553 123.238 32.4148 123.273 32.2767C121.395 32.2119 99.1813 45.5228 97.7824 45.9286L97.7824 45.9373Z" fill="currentColor"/>
<path d="M83.0052 50.6116C85.9023 45.6076 90.6386 42.2788 91.4719 37.1884C91.4114 35.9536 90.6775 34.857 89.7578 33.5229C89.2527 33.0177 88.7519 32.586 88.3028 32.1283C87.8538 31.6707 87.4523 31.1828 87.0982 30.9237C86.8262 31.6361 86.3988 32.6076 85.8893 33.5315C84.3653 36.2904 82.1245 38.5485 80.0952 41.0267C77.0212 44.7743 74.3227 48.8285 71.797 52.9603C67.8594 59.3848 65.3293 66.7245 72.0431 72.5748C72.885 68.3566 74.4004 64.5269 76.3131 60.9218C78.2301 57.321 80.5529 53.9361 83.0009 50.6159L83.0052 50.6116Z" fill="currentColor"/>
</g>
<defs>
<clipPath id="clip0_675_1063">
<rect width="133.78" height="56.5099" fill="white" transform="translate(4 98.999) rotate(-45)"/>
</clipPath>
</defs>
</svg>
