<svg width="279" height="97" viewBox="0 0 279 97" fill="none" xmlns="http://www.w3.org/2000/svg">
<g clip-path="url(#clip0_675_3737)">
<path d="M137.061 50.5119C135.444 49.5307 134.739 49.5307 135.165 50.8926C132.178 49.5222 130.324 49.5222 128.362 51.6877C125.72 49.5222 122.971 49.5222 118.211 50.6726C116.832 49.5222 113.443 49.5222 109.865 49.5222C106.73 49.5222 103.456 49.5222 101.544 50.6895C96.7677 49.5222 93.3702 49.5222 90.9083 56.061C89.4804 53.8786 88.1509 52.4236 86.8051 51.5524C85.4592 50.6811 84.1052 50.385 82.7511 50.4358C81.1098 50.6726 79.4768 51.2563 78.7218 51.1294C77.1872 50.8164 76.1942 50.1651 75.7347 48.5325C73.6913 49.5222 72.1731 49.5222 71.7792 48.1519C69.0629 49.7844 67.0359 49.6491 64.5411 48.2872C63.4004 50.2412 61.8002 50.9602 59.2316 51.4593C59.5845 51.6793 58.8295 51.1379 57.5739 50.3343C57.3851 50.385 56.6876 50.1651 55.8505 49.9875C54.6196 49.9452 53.2737 50.3681 52.0182 51.0956C51.3042 49.5222 50.3523 49.5222 50.2209 49.8859C50.3523 49.5222 50.3523 48.0419 49.6055 48.6594C50.3523 48.0334 51.058 48.0334 50.9924 49.556C52.1823 48.8793 53.364 48.4564 54.3734 48.634C55.3828 48.8117 56.2362 49.5899 56.6055 50.8672C58.5422 49.5899 59.9948 48.8117 61.0862 47.8642C63.302 48.5325 65.1566 49.04 67.159 48.1011C67.4544 49.04 67.8401 48.5325 68.4556 46.7815C69.2434 48.2364 70.261 48.431 71.853 47.2214C72.0418 48.2449 73.4451 48.4564 75.2094 47.6866C75.3982 48.744 76.1778 48.6256 77.458 47.8219C77.6878 48.4902 78.4099 48.4902 79.4439 48.1857C80.478 48.7271 81.7089 49.2261 82.8988 50.2581C83.8754 51.4339 84.8027 53.1257 85.6152 55.6634C87.3549 53.1342 88.988 51.4339 90.6047 50.385C93.8462 48.2787 97.0467 48.7609 101.445 50.2074C100.592 48.0419 102.496 48.0419 104.416 48.0673C106.238 48.0419 108.076 48.0419 109.865 48.0419C113.443 48.0419 116.832 48.0419 117.965 48.9639C122.971 48.0419 125.72 48.0419 128.42 49.8183C130.324 48.0419 132.178 48.0419 135.42 49.1416C134.739 48.0419 135.436 48.0419 137.299 48.8286C135.444 48.0419 135.444 49.5222 137.061 50.5035V50.5119Z" fill="currentColor"/>
<path d="M136.033 52.5845C134.704 51.3748 135.787 50.7235 138.192 50.8335C137.962 49.4377 139.045 48.7864 140.071 49.1586C139.045 48.7948 137.962 48.1435 138.561 48.0166C135.795 46.8577 134.704 46.2148 136.846 46.6801C134.704 46.2064 134.704 47.5006 136.518 49.8184C134.704 50.0806 134.704 51.3748 136.033 52.5845Z" fill="currentColor"/>
<path d="M198.874 50.5119C197.257 49.5307 196.551 49.5307 196.978 50.8926C193.991 49.5222 192.136 49.5222 190.175 51.6877C187.532 49.5222 184.783 49.5222 180.023 50.6726C178.645 49.5222 175.256 49.5222 171.678 49.5222C168.543 49.5222 165.268 49.5222 163.356 50.6895C158.58 49.5222 155.183 49.5222 152.721 56.061C151.293 53.8786 149.963 52.4236 148.618 51.5524C147.272 50.6811 145.918 50.385 144.564 50.4358C142.922 50.6726 141.289 51.2563 140.534 51.1294C139 50.8164 138.007 50.1651 137.547 48.5325C135.504 49.5222 133.986 49.5222 133.592 48.1519C130.875 49.7844 128.848 49.6491 126.354 48.2872C125.213 50.2412 123.613 50.9602 121.044 51.4593C121.397 51.6793 120.642 51.1379 119.386 50.3343C119.198 50.385 118.5 50.1651 117.663 49.9875C116.432 49.9452 115.086 50.3681 113.831 51.0956C113.117 49.5222 112.165 49.5222 112.033 49.8859C112.165 49.5222 112.165 48.0419 111.418 48.6594C112.165 48.0334 112.87 48.0334 112.805 49.556C113.995 48.8793 115.177 48.4564 116.186 48.634C117.195 48.8117 118.049 49.5899 118.418 50.8672C120.355 49.5899 121.807 48.8117 122.899 47.8642C125.114 48.5325 126.969 49.04 128.971 48.1011C129.267 49.04 129.653 48.5325 130.268 46.7815C131.056 48.2364 132.073 48.431 133.666 47.2214C133.854 48.2449 135.258 48.4564 137.022 47.6866C137.211 48.744 137.99 48.6256 139.27 47.8219C139.5 48.4902 140.222 48.4902 141.256 48.1857C142.29 48.7271 143.521 49.2261 144.711 50.2581C145.688 51.4339 146.615 53.1257 147.428 55.6634C149.167 53.1342 150.8 51.4339 152.417 50.385C155.659 48.2787 158.859 48.7609 163.258 50.2074C162.404 48.0419 164.308 48.0419 166.229 48.0673C168.05 48.0419 169.889 48.0419 171.678 48.0419C175.256 48.0419 178.645 48.0419 179.777 48.9639C184.783 48.0419 187.532 48.0419 190.232 49.8183C192.136 48.0419 193.991 48.0419 197.232 49.1416C196.551 48.0419 197.249 48.0419 199.112 48.8286C197.257 48.0419 197.257 49.5222 198.874 50.5035V50.5119Z" fill="currentColor"/>
<path d="M197.846 52.5845C196.516 51.3748 197.6 50.7235 200.004 50.8335C199.774 49.4377 200.858 48.7864 201.883 49.1586C200.858 48.7948 199.774 48.1435 200.373 48.0166C197.608 46.8577 196.516 46.2148 198.658 46.6801C196.516 46.2064 196.516 47.5006 198.33 49.8184C196.516 50.0806 196.516 51.3748 197.846 52.5845Z" fill="currentColor"/>
<path d="M112.583 45.9098C111.557 46.1129 110.86 46.1129 112.058 45.5461C108.299 46.1044 106.445 46.1044 110.688 43.609C101.833 46.1129 99.0837 46.1129 95.2185 34.8032C93.7085 42.3401 91.6979 44.8525 88.0215 45.267C86.1832 45.47 83.9265 45.157 81.7764 44.4549C81.7518 45.3854 81.1363 45.7491 81.1117 45.6138C78.6169 46.1044 76.713 46.1044 77.6239 44.9878C75.4 45.36 73.4879 45.6053 71.6825 45.6984C68.0717 45.8845 64.904 45.4361 60.5957 44.0996C59.9884 45.0978 58.741 45.6053 57.149 45.8422C55.5569 46.079 53.612 46.0621 51.9133 45.8422C50.0258 46.0621 48.3927 46.0875 48.3435 44.641C45.1348 46.1044 43.5263 46.1044 43.6084 42.8984C38.9144 46.1044 36.1652 46.1044 32.2836 42.8392C31.5614 46.1044 29.7068 46.1044 26.9494 44.8102C27.1546 46.1044 26.4488 46.1044 25.4805 45.4023C26.457 46.1044 26.457 44.6241 25.8333 44.0996C26.4488 44.6241 27.1546 44.6241 27.3926 43.5498C29.715 44.6241 31.5614 44.6241 32.7103 41.7988C36.1652 44.6241 38.9144 44.6241 43.1735 41.8495C43.5181 44.6156 45.1348 44.6156 47.8922 43.3975C48.4174 44.5987 50.0751 44.5733 51.8066 44.4634C53.6613 44.5733 55.5733 44.5987 57.2064 44.2942C58.8395 43.9896 60.1771 43.3468 60.9732 42.0695C63.0001 42.9238 64.7809 43.4906 66.4961 43.812C68.2112 44.1335 69.8525 44.218 71.543 44.3026C73.3238 43.9643 75.162 43.6428 77.3942 44.015C76.9839 43.8881 77.3203 44.2519 78.0425 44.4972C78.7154 44.4718 79.7822 44.3196 80.9558 44.0235C81.2676 44.1504 82.039 43.6767 82.1128 42.9238C83.1386 42.9915 84.2547 43.2791 85.2969 43.4652C86.3392 43.6513 87.3157 43.7274 88.1938 43.6767C91.7225 43.4567 93.7988 41.1221 95.5057 34.1265C99.0755 44.6241 101.825 44.6241 109.793 41.3927C106.428 44.6241 108.283 44.6241 111.689 43.9051C110.843 44.6241 111.549 44.6241 112.329 44.3957C111.549 44.6241 111.549 46.1044 112.567 45.9014L112.583 45.9098Z" fill="currentColor"/>
<path d="M112.584 47.813C110.828 47.9568 111.911 47.3055 113.224 46.6288C114.077 46.0197 115.161 45.3684 115.161 45.3684C115.161 45.3684 114.077 44.7255 113.027 44.0657C111.903 43.4313 110.819 42.7884 111.632 42.4331C110.819 42.7884 110.819 44.0741 112.231 45.0046C110.819 46.6626 110.819 47.9484 112.576 47.813H112.584Z" fill="currentColor"/>
<path d="M141.765 47.2317C140.903 47.7223 140.091 47.8661 140.632 47.6547C137.44 48.0184 135.602 48.0184 136.956 47.164C129.726 48.0184 125.664 48.0184 118.409 47.0625C117.991 47.5447 116.776 47.7816 115.168 47.9C113.559 48.0184 111.557 48.0184 110.819 47.274C105.583 48.0269 101.652 48.0269 97.6637 43.6536C93.9626 48.0269 90.204 48.0269 85.2966 47.2571C84.1231 47.6462 82.6623 47.8323 81.0703 47.9338C79.4865 48.0269 77.7713 48.0269 76.1054 48.0269C75.1042 48.0269 74.1195 48.0269 73.1511 47.9592C72.1746 47.9761 71.2144 47.9169 70.2789 47.7393C69.3351 47.9169 68.416 47.9677 67.5051 47.9338C66.6106 48.0269 65.7243 48.0269 64.8462 47.993C63.9928 48.0269 63.1393 48.0269 62.3187 48.0269C61.4898 48.0269 60.6938 48.0269 59.9142 48.0184C58.3632 48.0015 56.9107 47.9761 55.5894 47.9254C53.4804 48.0015 51.6421 48.0184 50.7394 47.0795C50.5015 49.5072 52.8239 49.4987 55.8356 49.2788C57.0255 49.3888 58.4124 49.448 59.9388 49.4734C60.702 49.4903 61.498 49.4987 62.2694 49.3718C63.0983 49.3888 63.9107 49.2788 64.6657 48.9066C65.6423 49.2703 66.5696 49.3888 67.4723 48.9912C68.416 49.2619 69.3434 49.0166 70.2953 48.3991C71.2226 49.0166 72.1746 49.2619 73.2004 49.1688C74.1441 49.4141 75.1617 49.3295 76.2531 49.1181C76.9999 49.338 77.8206 49.4141 78.633 49.4395C79.4454 49.4734 80.2579 49.448 81.0293 49.3972C82.5721 49.3042 83.9425 49.1096 84.9355 48.7205C90.204 49.4987 93.9626 49.4987 97.6226 44.9816C101.652 49.4987 105.583 49.4987 111.18 48.7459C111.557 49.4987 113.568 49.4987 115.16 49.4818C116.752 49.4649 117.942 49.4311 118.295 49.3634C125.672 49.4987 129.734 49.4987 137.087 49.3803C135.61 49.4987 137.456 49.4987 140.706 49.448C140.066 49.4818 140.838 49.4564 141.781 49.3888C144.465 49.4564 147.321 49.4818 148.387 49.2027C149.339 48.9489 148.88 48.4667 146.525 47.5362C144.998 47.7308 143.127 47.587 141.781 47.2317H141.765Z" fill="currentColor"/>
<path d="M146.508 47.5363C146.647 47.5193 146.795 47.5024 146.935 47.477C147 47.4686 147.058 47.4517 147.115 47.4347C146.598 47.3502 146.073 47.2571 145.531 47.1641C145.892 47.2909 146.212 47.4178 146.516 47.5363H146.508Z" fill="currentColor"/>
<path d="M211.814 48.7798C213.373 49.1181 214.161 49.2704 214.153 49.2619C214.144 49.2619 213.578 49.135 212.495 48.9067C212.249 48.8644 211.986 48.8136 211.707 48.7544C211.74 48.7629 211.773 48.7713 211.806 48.7798H211.814Z" fill="currentColor"/>
<path d="M232.314 47.4769C232.314 47.4769 232.339 47.46 232.355 47.46C232.043 47.5953 232.027 47.6038 232.314 47.4769Z" fill="currentColor"/>
<path d="M214.898 47.5277C214.988 47.5361 215.062 47.5361 215.111 47.5277C214.865 47.4346 214.611 47.35 214.34 47.2485C214.537 47.35 214.717 47.4346 214.898 47.5277Z" fill="currentColor"/>
<path d="M213.668 47.7054C213.315 47.8238 211.887 47.68 209.605 47.2993C210.754 48.0099 209.827 48.0184 208.604 47.5869C209.088 48.0184 208.67 48.0184 208.071 47.6208C207.078 48.0184 205.904 48.0184 205.658 47.2148C202.975 48.0184 201.251 48.0184 200.578 46.1743C197.271 48.0184 195.014 48.0184 191.674 45.8782C190.05 48.0184 187.341 48.0184 183.37 47.4093C181.531 48.0184 178.429 48.0184 175.171 48.0184C172.119 48.0184 168.926 48.0184 171.708 46.8849C162.32 48.0184 158.906 48.0184 149.748 38.1213C151.176 44.584 150.134 46.8256 147.105 47.4347C159.202 49.4987 162.722 49.4902 171.938 49.338C168.935 49.4987 172.127 49.4987 175.18 49.4987C178.438 49.4987 181.54 49.4987 183.156 48.9404C187.35 49.4987 190.066 49.4987 191.51 47.5531C195.023 49.4987 197.279 49.4987 200.841 47.8407C201.26 49.4987 202.983 49.4987 205.913 48.7712C205.913 49.4987 207.086 49.4987 208.186 49.1265C208.67 49.4987 209.088 49.4987 208.67 49.1265C209.827 49.4902 210.763 49.4818 209.573 48.9827C211.14 49.2787 212.535 49.3633 212.962 49.2957C213.315 49.2365 212.995 49.0757 211.813 48.7797C211.559 48.7289 211.288 48.6697 211.001 48.602C211.247 48.6528 211.485 48.7035 211.714 48.7543C211.493 48.6951 211.247 48.6359 210.968 48.5767C211.559 48.7035 212.067 48.8135 212.494 48.915C213.799 49.1603 214.693 49.2534 214.956 49.2111C215.309 49.1434 214.505 48.805 212.059 48.1537C217.574 49.3633 218.542 49.3887 214.899 47.5277C214.365 47.477 213.134 47.1048 211.444 46.4365C213.29 47.2063 214.029 47.5869 213.676 47.7054H213.668Z" fill="currentColor"/>
<path d="M50.4922 46.7579C50.566 46.8764 50.6399 46.9779 50.7384 47.0709C50.7548 46.9102 50.7794 46.741 50.8204 46.5549C50.7056 46.6226 50.6071 46.6903 50.4922 46.7579Z" fill="currentColor"/>
<path d="M230.516 47.0879C227.792 48.6613 227.792 48.6613 230.516 47.0879Z" fill="currentColor"/>
<path d="M42.2109 46.0558C42.2191 46.1743 42.2356 46.2927 42.252 46.3857C42.2602 45.7513 42.3094 44.9477 42.3915 43.958C42.3176 44.8377 42.2602 45.5145 42.2109 46.0558Z" fill="currentColor"/>
<path d="M42.2612 43.2729C41.9904 47.2656 41.9494 48.932 42.212 46.056C42.1545 45.4638 42.1792 44.5418 42.2612 43.2729Z" fill="currentColor"/>
<path d="M45.0195 46.2504C45.1508 49.3295 46.7757 49.0757 50.4932 46.7495C50.2798 46.4027 50.1485 45.9713 50.1403 45.4045C47.2763 47.2909 45.676 47.7984 45.0195 46.242V46.2504Z" fill="currentColor"/>
<path d="M45.0833 44.3303C44.9602 44.5756 44.8454 44.804 44.7305 45.024C44.7879 45.5315 44.8864 45.9291 45.0259 46.2505C45.0013 45.7091 45.0259 45.0832 45.0833 44.3303Z" fill="currentColor"/>
<path d="M42.2518 46.3858C42.2107 49.1519 42.8837 48.6359 44.7301 45.0239C44.6809 44.6009 44.6644 44.1103 44.6644 43.552C43.2037 46.5719 42.4733 47.5362 42.2518 46.3858Z" fill="currentColor"/>
<path d="M222.146 46.5381C222.179 46.4704 222.204 46.3858 222.22 46.2843C222.187 46.1997 222.154 46.1151 222.113 46.0305C222.13 46.2082 222.138 46.3773 222.138 46.5381H222.146Z" fill="currentColor"/>
<path d="M226.043 48.5852C226.043 48.5852 226.634 47.9931 227.881 46.7581C226.708 47.9339 226.1 48.5344 226.043 48.5852Z" fill="currentColor"/>
<path d="M230.516 47.0879C230.581 47.0456 230.639 47.0118 230.713 46.9695C230.647 47.0118 230.589 47.0456 230.516 47.0795V47.0879Z" fill="currentColor"/>
<path d="M226.839 47.7815C226.839 47.7815 226.814 47.8069 226.798 47.8238C226.265 48.3652 226.01 48.6189 226.051 48.5851C226.059 48.5766 226.33 48.306 226.847 47.7815H226.839Z" fill="currentColor"/>
<path d="M230.516 47.0878C230.581 47.0539 230.639 47.0201 230.704 46.9778C230.639 47.0201 230.581 47.0455 230.516 47.0878Z" fill="currentColor"/>
<path d="M227.883 46.7579C227.883 46.7579 227.948 46.7325 227.981 46.724C228.113 46.5718 228.26 46.4026 228.416 46.2334C228.227 46.4195 228.055 46.5971 227.883 46.7579Z" fill="currentColor"/>
<path d="M227.874 46.7664C227.874 46.7664 227.857 46.7664 227.849 46.7748C227.439 47.1808 227.111 47.5192 226.84 47.7899C227.119 47.5192 227.464 47.1808 227.874 46.7664Z" fill="currentColor"/>
<path d="M225.953 42.9513C224.459 47.8829 223.376 47.8575 223.253 42.7737C223.376 47.8575 223.376 47.9506 223.253 42.9344C223.253 47.959 223.13 47.959 222.243 42.9767C222.342 44.6093 222.35 45.7005 222.219 46.2842C223.466 49.4224 223.835 49.3379 225.222 45.9373C224.574 49.1518 224.845 49.3802 227.495 46.8594C226.199 47.0878 225.887 45.9035 225.953 42.9513Z" fill="currentColor"/>
<path d="M219.053 43.4506C221.236 47.8662 220.505 47.8747 214.99 44.5503C218.609 47.9085 217.805 47.9339 212.504 45.8107C214.736 46.9019 215.458 47.4517 215.114 47.5194C219.135 48.9743 220.366 49.2027 219.003 47.8493C218.585 47.5448 218.076 47.1641 217.452 46.7073C217.846 46.9695 218.207 47.2064 218.544 47.4179C218.248 47.1556 217.896 46.8511 217.477 46.5043C218.092 46.9865 218.601 47.384 219.012 47.7055C221.613 49.2873 222.253 49.0082 222.146 46.5297C221.802 47.3164 220.907 46.2505 219.053 43.4421V43.4506Z" fill="currentColor"/>
<path d="M219.003 47.8491C220.677 49.0757 220.677 49.0249 219.003 47.7053C218.855 47.6123 218.699 47.5192 218.535 47.4177C218.716 47.5784 218.863 47.7222 218.995 47.8491H219.003Z" fill="currentColor"/>
<path d="M227.578 46.8425C225.765 48.7796 225.494 49.101 226.791 47.8237C227.07 47.5446 227.414 47.1978 227.841 46.7664C227.751 46.7917 227.66 46.8171 227.578 46.834V46.8425Z" fill="currentColor"/>
<path d="M228.381 46.2334C228.193 46.428 228.012 46.6056 227.84 46.7748C228.012 46.6056 228.185 46.428 228.381 46.2334Z" fill="currentColor"/>
<path d="M227.496 46.8596C227.496 46.8596 227.554 46.8596 227.578 46.8427C227.759 46.6481 227.956 46.4366 228.169 46.2083C227.923 46.4451 227.701 46.6566 227.496 46.8596Z" fill="currentColor"/>
<path d="M238.091 45.506C234.718 44.4317 233.659 43.9665 227.513 40.6929C228.883 42.7653 229.983 44.0088 231.115 44.9224C231.033 44.9816 230.935 45.0493 230.853 45.1C230.319 44.8293 229.687 44.491 228.875 44.0596C229.31 44.7194 229.696 45.2184 230.065 45.616C229.212 46.1574 228.539 46.5296 227.989 46.7241C225.699 49.3633 226.274 49.2365 230.672 46.7411C226.421 49.3464 226.372 49.4902 230.525 47.0879C230.59 46.9441 230.754 46.7326 231.009 46.4619C231.321 46.6818 231.641 46.8679 231.994 47.0456C230.861 47.4262 230.369 47.4601 230.525 47.0879C226.413 49.4818 227.554 49.4479 232.428 47.4178C232.404 47.4262 232.387 47.4431 232.363 47.4516C232.437 47.4178 232.519 47.3839 232.617 47.3416C232.494 47.3924 232.387 47.4347 232.314 47.4685C229.006 49.1772 229.056 49.4226 232.527 48.5936C232.478 48.6443 232.437 48.6951 232.387 48.7374C230.886 49.1942 230.828 49.2534 232.207 48.9319C232.199 48.9404 232.182 48.9573 232.174 48.9658C231.507 49.1349 231.507 49.1349 232.174 48.9658C232.174 48.9658 232.117 49.025 232.092 49.0588C231.698 49.1772 231.665 49.2111 232.01 49.1519C230.968 50.2854 230.336 51.089 229.261 52.3155C230.073 51.605 232.059 50.7422 233.914 50.0485C231.673 52.4593 230.434 54.0412 228.251 56.5535C230.032 55.0055 234.726 53.0599 238.641 51.6726C239.56 50.1839 258.558 48.7458 258.558 48.7458C258.558 48.7458 239.56 47.3078 238.091 45.4976V45.506ZM231.132 45.2438C231.132 45.2438 231.115 45.2354 231.107 45.2269C231.173 45.1761 231.239 45.1254 231.312 45.0662C231.312 45.0662 231.329 45.0746 231.337 45.0831C231.271 45.1338 231.197 45.1846 231.14 45.2354L231.132 45.2438ZM231.345 45.1C231.419 45.1592 231.501 45.2184 231.575 45.2776C231.518 45.3199 231.468 45.3538 231.419 45.3876C231.329 45.3453 231.239 45.303 231.148 45.2523C231.214 45.2015 231.28 45.1508 231.345 45.1ZM231.591 45.2861C231.682 45.3538 231.772 45.413 231.862 45.4722C231.821 45.4976 231.788 45.523 231.747 45.5483C231.649 45.4976 231.542 45.4468 231.435 45.3961C231.485 45.3622 231.534 45.3199 231.591 45.2861ZM231.969 45.5483C232.166 45.6752 232.363 45.8021 232.568 45.929C232.355 45.8359 232.133 45.7429 231.887 45.6245C231.911 45.5991 231.936 45.5822 231.961 45.5568L231.969 45.5483ZM232.97 47.5193C232.56 47.6631 232.535 47.6546 232.913 47.4939C232.929 47.5024 232.954 47.5108 232.97 47.5193ZM232.995 47.5362C232.759 47.6264 232.759 47.6264 232.995 47.5362ZM233.118 47.5954C233.118 47.5954 233.2 47.6292 233.241 47.6546C233.052 47.6885 233.011 47.6715 233.118 47.5954ZM231.156 44.9731C231.206 45.0154 231.255 45.0493 231.304 45.0831C231.238 45.1338 231.165 45.1931 231.099 45.2438C231.042 45.2184 230.984 45.1846 230.927 45.1592C231.001 45.1 231.074 45.0323 231.148 44.9731H231.156ZM230.188 45.7683C230.188 45.7683 230.254 45.8359 230.295 45.8698C230.081 46.039 229.884 46.1912 229.712 46.3266C229.884 46.1912 230.073 46.039 230.287 45.8782C230.287 45.8782 230.287 45.8782 230.295 45.8867C230.081 46.0474 229.884 46.1997 229.704 46.3266C229.187 46.7241 228.859 46.9864 228.744 47.0794C228.842 46.9948 229.17 46.7411 229.696 46.3266C228.087 47.5362 228.251 47.3586 230.172 45.7683H230.188ZM230.328 45.9121C230.377 45.9628 230.426 46.0136 230.484 46.0559C228.399 47.5193 228.358 47.4854 230.328 45.9121ZM230.508 46.0812C230.574 46.1405 230.631 46.1912 230.697 46.242C228.752 47.5193 228.637 47.477 230.508 46.0812ZM232.248 47.1894C232.248 47.1894 232.289 47.2148 232.314 47.2232C231.411 47.6123 231.386 47.6039 232.248 47.1894ZM232.338 47.2317C232.338 47.2317 232.338 47.2317 232.346 47.2317C231.766 47.4854 231.764 47.4854 232.338 47.2317ZM232.445 47.2824C232.486 47.2993 232.527 47.3247 232.576 47.3416C231.829 47.6292 231.78 47.6208 232.445 47.2824ZM232.683 47.3924C232.683 47.3924 232.748 47.4262 232.781 47.4347C232.149 47.6631 232.117 47.6462 232.683 47.3924Z" fill="currentColor"/>
<path d="M86.4514 53.541C85.8606 53.8456 85.3107 53.9301 85.68 53.7948C83.5299 53.964 82.2908 53.9217 83.2181 53.3803C78.3435 53.7863 75.6107 53.6848 70.7608 52.8728C70.4653 53.1857 69.6447 53.3126 68.5614 53.3549C67.4782 53.3972 66.1324 53.3549 65.6482 52.8305C62.1112 53.2111 59.4688 53.1181 56.8919 50.0813C54.3069 52.932 51.7876 52.8389 48.505 52.2045C47.709 52.4329 46.7242 52.5344 45.6492 52.5598C44.5823 52.5852 43.4334 52.5429 42.3092 52.509C41.6362 52.4837 40.9715 52.4667 40.3314 52.3906C39.6749 52.3737 39.0348 52.3145 38.4111 52.1791C37.771 52.2722 37.1555 52.2891 36.5401 52.2468C35.9328 52.2891 35.3419 52.2637 34.7511 52.2214C34.1766 52.2214 33.6022 52.2045 33.0523 52.1876C32.4943 52.1707 31.9609 52.1453 31.4357 52.1199C30.3935 52.0776 29.4169 52.0184 28.5306 51.9507C27.1109 51.9507 25.8799 51.9169 25.2891 51.274C25.0757 52.8981 26.6349 52.9489 28.6619 52.8728C29.4579 52.9743 30.3935 53.0504 31.4111 53.1012C31.9199 53.1265 32.4533 53.1519 32.9785 53.0842C33.5365 53.1181 34.0864 53.0589 34.6034 52.8305C35.2517 53.1012 35.8671 53.2027 36.4826 52.9574C37.1145 53.1604 37.7382 53.0166 38.3947 52.6275C39.002 53.0673 39.6421 53.2534 40.3314 53.2111C40.9633 53.3972 41.6444 53.3718 42.383 53.245C42.8836 53.4057 43.4252 53.4818 43.9751 53.5156C44.5167 53.5579 45.0665 53.5579 45.5835 53.5495C46.6175 53.5241 47.5449 53.4226 48.226 53.1857C51.7465 53.8286 54.2741 53.9217 56.8345 50.9695C59.4441 54.0993 62.0866 54.1924 65.8615 53.8202C66.0995 54.3362 67.4454 54.3869 68.5204 54.4123C69.5955 54.4377 70.3915 54.4461 70.6295 54.4123C75.5861 54.6745 78.3107 54.776 83.2591 54.8691C82.2661 54.9114 83.5053 54.9621 85.6882 55.0044C85.2615 55.0044 85.7785 55.0129 86.4104 54.9875C88.2158 55.0975 90.1279 55.1821 90.8583 55.0129C91.5066 54.8691 91.2029 54.5307 89.6437 53.854C88.6179 53.9471 87.3623 53.8117 86.4596 53.541H86.4514Z" fill="currentColor"/>
<path d="M89.6366 53.8625C89.7351 53.854 89.8335 53.8456 89.9238 53.8371C89.9648 53.8371 90.0059 53.8202 90.0469 53.8117C89.7022 53.7441 89.3494 53.6679 88.9883 53.5918C89.2263 53.6848 89.4396 53.7779 89.6366 53.8625Z" fill="currentColor"/>
<path d="M133.484 56.2479C134.526 56.5101 135.051 56.637 135.043 56.6285C135.043 56.6285 134.657 56.527 133.943 56.3494C133.779 56.3155 133.607 56.2733 133.418 56.231C133.443 56.231 133.459 56.2479 133.484 56.2479Z" fill="currentColor"/>
<path d="M147.286 55.859C147.286 55.859 147.303 55.859 147.311 55.842C147.098 55.9266 147.089 55.9266 147.286 55.859Z" fill="currentColor"/>
<path d="M135.584 55.4782C135.641 55.4782 135.699 55.4866 135.731 55.4782C135.567 55.4105 135.403 55.3428 135.223 55.2751C135.354 55.3428 135.469 55.4105 135.592 55.4782H135.584Z" fill="currentColor"/>
<path d="M134.755 55.5628C134.517 55.6305 133.556 55.5036 132.038 55.1906C132.793 55.6981 132.17 55.6812 131.365 55.3598C131.677 55.6643 131.398 55.6558 131.012 55.3682C130.331 55.6135 129.552 55.5882 129.404 55.0383C127.582 55.512 126.425 55.4697 126.015 54.2178C123.75 55.3767 122.24 55.3259 120.04 53.8033C118.9 55.2075 117.078 55.1398 114.427 54.6408C113.18 55.0045 111.096 54.9368 108.904 54.8607C106.853 54.7846 104.711 54.7169 106.607 54.0232C100.271 54.5562 97.9817 54.48 92.0484 47.6113C92.8609 51.9846 92.1141 53.465 90.0625 53.8033C98.1376 55.4782 100.509 55.5543 106.705 55.6727C104.686 55.7066 106.828 55.7827 108.88 55.8588C111.071 55.935 113.147 56.0111 114.247 55.6727C117.053 56.1464 118.875 56.2141 119.893 54.9368C122.215 56.3241 123.725 56.3748 126.154 55.3513C126.4 56.4764 127.558 56.5186 129.544 56.0957C129.527 56.5863 130.315 56.6117 131.062 56.3918C131.382 56.654 131.661 56.6624 131.39 56.4002C132.161 56.6709 132.785 56.6878 131.997 56.3241C133.039 56.5609 133.975 56.6455 134.262 56.6117C134.5 56.5863 134.287 56.4679 133.499 56.2395C133.327 56.1972 133.154 56.1549 132.957 56.1042C133.122 56.1465 133.277 56.1887 133.433 56.2226C133.286 56.1803 133.121 56.138 132.941 56.0788C133.335 56.1803 133.671 56.2649 133.959 56.341C134.828 56.5356 135.428 56.6202 135.6 56.5948C135.838 56.5609 135.304 56.3072 133.671 55.8166C137.348 56.7555 138.004 56.7978 135.592 55.4697C135.231 55.419 134.418 55.1398 133.294 54.6577C134.517 55.216 135.001 55.4951 134.763 55.5628H134.755Z" fill="currentColor"/>
<path d="M25.1445 51.0627C25.1856 51.1388 25.243 51.2149 25.3005 51.2826C25.3169 51.1726 25.3333 51.0627 25.3661 50.9358C25.2922 50.9781 25.2184 51.0204 25.1445 51.0627Z" fill="currentColor"/>
<path d="M146.091 55.5542C144.225 56.5467 144.225 56.5467 146.091 55.5542Z" fill="currentColor"/>
<path d="M19.5938 50.4029C19.5938 50.4875 19.602 50.5636 19.6184 50.6228C19.643 50.1914 19.6922 49.6585 19.7661 48.9902C19.7004 49.5824 19.643 50.0391 19.602 50.3944L19.5938 50.4029Z" fill="currentColor"/>
<path d="M19.6942 48.5249C19.4234 51.1979 19.3577 52.3145 19.5957 50.3943C19.5711 49.9968 19.6039 49.3793 19.6942 48.5249Z" fill="currentColor"/>
<path d="M21.4844 50.5973C21.509 52.6697 22.6004 52.5344 25.1526 51.0625C25.0131 50.8256 24.9393 50.5296 24.9475 50.1489C22.9861 51.3501 21.8947 51.6546 21.4926 50.5888L21.4844 50.5973Z" fill="currentColor"/>
<path d="M21.5669 49.3031C21.4766 49.4639 21.3946 49.6161 21.3125 49.7599C21.3371 50.0983 21.3946 50.369 21.4848 50.5889C21.4848 50.2252 21.5095 49.8022 21.5669 49.2947V49.3031Z" fill="currentColor"/>
<path d="M19.6203 50.6226C19.5301 52.4836 19.9896 52.1537 21.3108 49.7683C21.2862 49.4807 21.2862 49.1592 21.3026 48.7786C20.2522 50.7749 19.7434 51.4093 19.6203 50.6226Z" fill="currentColor"/>
<path d="M140.477 54.9791C140.502 54.9368 140.518 54.8776 140.534 54.81C140.51 54.7508 140.493 54.7 140.469 54.6323C140.469 54.7508 140.469 54.8692 140.469 54.9707L140.477 54.9791Z" fill="currentColor"/>
<path d="M143.055 56.4509C143.055 56.4509 143.465 56.0702 144.327 55.2666C143.514 56.0279 143.088 56.417 143.055 56.4509Z" fill="currentColor"/>
<path d="M144.677 54.9368C144.554 55.0552 144.431 55.1652 144.324 55.2667C144.439 55.1652 144.554 55.0552 144.677 54.9368Z" fill="currentColor"/>
<path d="M146.09 55.5544C146.139 55.529 146.172 55.5036 146.221 55.4783C146.172 55.5036 146.131 55.5206 146.09 55.5459V55.5544Z" fill="currentColor"/>
<path d="M143.604 55.9351C143.604 55.9351 143.588 55.952 143.572 55.9604C143.202 56.3073 143.022 56.4764 143.055 56.4511C143.055 56.4511 143.243 56.265 143.604 55.9351Z" fill="currentColor"/>
<path d="M146.098 55.5542C146.139 55.5289 146.18 55.5119 146.229 55.4866C146.18 55.5119 146.147 55.5289 146.098 55.5542Z" fill="currentColor"/>
<path d="M144.324 55.2668C144.324 55.2668 144.365 55.2499 144.39 55.2499C144.488 55.1484 144.587 55.0384 144.694 54.9285C144.562 55.0469 144.439 55.1653 144.324 55.2668Z" fill="currentColor"/>
<path d="M144.323 55.2666H144.307C144.028 55.5288 143.798 55.7488 143.609 55.9264C143.806 55.7488 144.036 55.5288 144.332 55.2666H144.323Z" fill="currentColor"/>
<path d="M143.12 52.6613C142.004 55.9349 141.282 55.9011 141.314 52.4836C141.282 55.9011 141.282 55.9687 141.314 52.5851C141.208 55.9603 141.117 55.9603 140.633 52.5851C140.666 53.6848 140.65 54.4123 140.543 54.8014C141.314 56.9415 141.561 56.8908 142.57 54.6407C142.061 56.7808 142.242 56.9415 144.08 55.3174C143.21 55.4358 143.021 54.6322 143.128 52.6528L143.12 52.6613Z" fill="currentColor"/>
<path d="M138.464 52.8306C139.834 55.8504 139.342 55.842 135.707 53.4734C138.062 55.8166 137.52 55.8166 134.008 54.2601C135.485 55.0468 135.953 55.4275 135.723 55.4698C138.39 56.5441 139.211 56.7217 138.333 55.7828C138.062 55.5713 137.725 55.3006 137.315 54.9791C137.578 55.1652 137.807 55.3344 138.029 55.4782C137.84 55.2921 137.602 55.0807 137.331 54.8438C137.734 55.1822 138.062 55.4613 138.333 55.6897C140.04 56.8147 140.483 56.6456 140.466 54.9791C140.22 55.4951 139.637 54.7677 138.456 52.8306H138.464Z" fill="currentColor"/>
<path d="M138.343 55.7912C139.442 56.654 139.442 56.6202 138.343 55.6981C138.244 55.6305 138.146 55.5628 138.039 55.4951C138.154 55.6051 138.252 55.7066 138.343 55.7996V55.7912Z" fill="currentColor"/>
<path d="M144.128 55.3174C142.872 56.5778 142.675 56.7808 143.578 55.9603C143.767 55.7827 144.013 55.5543 144.309 55.2751C144.243 55.2921 144.185 55.309 144.128 55.3174Z" fill="currentColor"/>
<path d="M144.678 54.9285C144.547 55.0554 144.424 55.1738 144.301 55.2837C144.416 55.1738 144.539 55.0554 144.678 54.9285Z" fill="currentColor"/>
<path d="M144.07 55.3259C144.07 55.3259 144.103 55.3259 144.128 55.3259C144.259 55.199 144.39 55.0636 144.538 54.9114C144.366 55.0636 144.218 55.199 144.07 55.3343V55.3259Z" fill="currentColor"/>
<path d="M151.211 54.666C148.971 53.8709 148.265 53.524 144.211 51.1809C145.089 52.602 145.795 53.4733 146.533 54.1077C146.476 54.1416 146.41 54.1839 146.353 54.2177C146 54.0231 145.581 53.7778 145.048 53.4733C145.327 53.9301 145.573 54.2684 145.811 54.5476C145.228 54.8944 144.761 55.1228 144.391 55.2412C142.799 56.9584 143.185 56.8907 146.197 55.3174C143.283 56.9669 143.242 57.0599 146.09 55.5457C146.139 55.4527 146.254 55.3089 146.427 55.1397C146.632 55.292 146.845 55.4273 147.075 55.5542C146.303 55.7826 145.975 55.7995 146.082 55.5542C143.267 57.0684 144.038 57.0684 147.354 55.8164C147.337 55.8164 147.321 55.8334 147.305 55.8418C147.354 55.8249 147.411 55.7995 147.477 55.7741C147.395 55.808 147.321 55.8334 147.272 55.8503C145.007 56.9246 145.04 57.0853 147.387 56.6116C147.354 56.6454 147.321 56.6793 147.288 56.7046C146.271 56.9753 146.23 57.0092 147.165 56.8315C147.165 56.8315 147.149 56.8484 147.141 56.8569C146.686 56.9528 146.686 56.9528 147.141 56.8569C147.141 56.8569 147.099 56.8992 147.083 56.9161C146.812 56.9838 146.796 57.0092 147.026 56.9753C146.303 57.7112 145.86 58.2357 145.114 59.0393C145.68 58.5825 147.026 58.0496 148.289 57.6267C146.73 59.1916 145.869 60.232 144.342 61.8646C145.573 60.8665 148.765 59.6737 151.432 58.8278C152.081 57.8466 164.883 57.3306 164.883 57.3306C164.883 57.3306 152.146 55.9095 151.203 54.666H151.211ZM146.541 54.3277C146.541 54.3277 146.533 54.3277 146.525 54.3192C146.566 54.2854 146.615 54.2515 146.665 54.2177C146.665 54.2177 146.673 54.2177 146.681 54.2261C146.632 54.26 146.582 54.2938 146.541 54.3277ZM146.689 54.2346C146.738 54.2769 146.788 54.3192 146.845 54.3615C146.804 54.3869 146.771 54.4122 146.738 54.4292C146.681 54.3953 146.623 54.3699 146.558 54.3361C146.599 54.3023 146.648 54.2684 146.689 54.2346ZM146.845 54.3615C146.903 54.4038 146.96 54.4461 147.026 54.4968C147.001 54.5137 146.976 54.5307 146.944 54.5476C146.878 54.5138 146.812 54.4799 146.738 54.4376C146.771 54.4122 146.804 54.3869 146.845 54.3699V54.3615ZM147.091 54.5476C147.223 54.6406 147.354 54.7252 147.485 54.8183C147.346 54.7506 147.198 54.6829 147.034 54.5983C147.05 54.5814 147.067 54.5645 147.091 54.556V54.5476ZM147.723 55.8926C147.444 55.9772 147.428 55.9772 147.682 55.8756C147.699 55.8756 147.707 55.8926 147.723 55.8926ZM147.74 55.901C147.581 55.9574 147.581 55.9574 147.74 55.901ZM147.822 55.9433C147.822 55.9433 147.871 55.9687 147.904 55.9856C147.781 56.0025 147.748 55.9856 147.822 55.9433ZM146.566 54.1331C146.566 54.1331 146.632 54.1838 146.665 54.2092C146.615 54.2431 146.566 54.2769 146.525 54.3107C146.492 54.2938 146.451 54.2684 146.41 54.2515C146.459 54.2177 146.517 54.1754 146.566 54.1331ZM145.901 54.6491C145.901 54.6491 145.942 54.6998 145.967 54.7252C145.819 54.8352 145.688 54.9282 145.565 55.0128C145.68 54.9282 145.819 54.8352 145.967 54.7252C145.819 54.8267 145.68 54.9282 145.565 55.0044C145.212 55.2581 144.982 55.4273 144.9 55.4865C144.966 55.4358 145.196 55.2751 145.557 55.0044C144.449 55.7741 144.564 55.6642 145.893 54.6406L145.901 54.6491ZM145.992 54.7506C145.992 54.7506 146.057 54.8183 146.09 54.8521C144.654 55.7911 144.629 55.7657 145.992 54.7506ZM146.115 54.869C146.115 54.869 146.197 54.9452 146.238 54.979C144.9 55.7911 144.826 55.7657 146.115 54.869ZM147.255 55.6557C147.255 55.6557 147.288 55.6726 147.296 55.6811C146.681 55.9179 146.665 55.9179 147.255 55.6557ZM147.313 55.6895C146.919 55.8475 146.919 55.8475 147.313 55.6895ZM147.387 55.7234C147.387 55.7234 147.444 55.7488 147.469 55.7657C146.96 55.9433 146.927 55.9349 147.387 55.7234ZM147.543 55.7995C147.543 55.7995 147.584 55.8249 147.608 55.8334C147.182 55.9687 147.157 55.9602 147.543 55.7995Z" fill="currentColor"/>
<path d="M212.086 44.9029C213.637 46.5778 213.144 46.5355 211.093 45.3512C212.102 46.434 211.561 46.3832 210.108 45.7403C211.093 46.3832 210.568 46.3832 209.09 46.1041C208.582 46.3832 207.121 46.3832 205.57 46.0787C203.65 46.3832 201.721 46.3832 200.113 45.1144C197.355 46.3917 194.91 46.3917 191.89 44.8014C189.592 46.3917 186.712 46.3917 183.413 46.1379C180.622 46.3917 177.406 46.3917 174.066 46.3917C170.725 46.3917 167.254 46.3917 168.165 42.5851C162.823 45.1228 159.425 45.9687 155.552 44.0485C153.615 43.0927 151.555 41.4432 149.578 39.2608C149.102 40.8257 148.888 42.2129 148.486 43.2534C148.084 44.2939 147.485 44.9706 146.738 45.4104C145.991 45.8503 145.097 46.0449 144.17 46.0872C143.218 46.1041 142.225 45.9772 141.593 46.5101C139.467 46.1802 137.842 46.2817 138.236 47.1445C136.103 45.7403 134.781 46.0618 133.747 47.5675C132.951 45.6727 132.434 44.9537 131.663 46.8738C130.407 44.48 128.659 45.1144 126.739 45.9518C125.311 45.8672 123.695 45.9772 122.012 45.8841C120.338 45.7911 118.598 45.4866 116.67 45.0382C115.587 45.715 114.085 46.0533 112.403 46.2225C110.72 46.3917 108.849 46.3917 107.577 45.7065C103.392 46.3917 99.9535 46.3917 96.5724 43.8963C93.6017 46.3917 90.6966 46.3917 87.6192 45.7911C85.5348 46.3917 83.2863 46.3917 81.4316 46.3917H75.6133V44.9114H81.4316C83.2863 44.9114 85.5348 44.9114 87.9065 44.6322C90.6966 44.9114 93.6017 44.9114 96.6463 43.1434C99.9535 44.9198 103.392 44.9198 107.274 44.573C108.849 44.9198 110.72 44.9198 112.452 44.7591C114.183 44.5984 115.784 44.2769 117.072 43.6256C118.861 44.057 120.511 44.3446 122.119 44.4377C123.727 44.5307 125.287 44.4207 126.214 45.199C128.504 43.7017 130.169 43.0927 130.875 46.5016C132.262 43.5495 132.861 44.2346 133.542 47.2799C134.691 44.6238 135.93 44.3277 138.105 46.9246C137.933 44.8521 139.664 44.7845 142.093 45.9603C142.397 44.666 143.374 44.7422 144.563 45.0721C145.245 44.6407 146.131 44.463 146.919 44.0655C147.698 43.6594 148.379 43.0419 148.921 42.1114C149.463 41.1809 149.865 39.929 150.333 38.3726C152.245 40.4788 154.075 41.9592 155.823 42.8135C159.327 44.5222 162.503 43.7102 167.189 41.2825C167.271 44.9198 170.734 44.9198 174.082 44.9198C177.43 44.9198 180.639 44.9198 183.585 44.8099C186.728 44.9198 189.6 44.9198 192.021 43.7186C194.918 44.9198 197.363 44.9198 199.916 43.9809C201.729 44.9198 203.65 44.9198 205.406 44.7676C207.129 44.9198 208.582 44.9198 209.353 44.7676C210.568 44.9198 211.093 44.9198 210.486 44.4461C211.634 44.9198 212.209 44.979 211.659 44.0485C213.309 45.0805 213.834 45.1313 212.742 43.6087C214.211 45.1144 214.269 46.5947 212.242 44.8437C214.203 46.6032 214.137 46.6032 212.086 44.9283V44.9029Z" fill="currentColor"/>
<path d="M210.223 48.9886C211.651 49.5807 212.824 49.5891 213.489 48.9463C214.154 48.3034 214.318 47.0092 213.735 44.979C218.511 46.7808 220.317 45.6473 218.971 41.5869C220.317 45.6473 218.462 44.5983 215.401 41.5785C214.761 42.509 212.906 41.4601 212.685 41.1809C212.906 41.4601 212.955 43.634 211.577 44.6237C212.315 46.3071 212.693 47.6859 212.529 48.5064C212.365 49.3269 211.659 49.5722 210.223 48.9801V48.9886Z" fill="currentColor"/>
</g>
<defs>
<clipPath id="clip0_675_3737">
<rect width="278.1" height="96.1" fill="white"/>
</clipPath>
</defs>
</svg>
