<svg width="143" height="143" viewBox="0 0 143 143" fill="none" xmlns="http://www.w3.org/2000/svg">
<g clip-path="url(#clip0_675_1658)">
<path d="M74.2645 80.831C74.3062 80.7555 74.3563 80.6884 74.4063 80.6213C74.4063 80.6045 74.4063 80.5877 74.4063 80.5709C74.423 80.529 74.448 80.487 74.473 80.4535C74.4396 80.0927 74.4813 79.8075 74.5647 79.5809C74.6314 79.4635 74.7148 79.3712 74.8149 79.2873C75.0567 79.0356 75.4152 78.9265 75.8822 78.9181C76.049 78.9097 76.2241 78.9265 76.4158 78.9433C76.7661 79.0272 77.1663 79.153 77.6416 79.3124C77.2497 79.1698 76.9078 79.0524 76.5993 78.9601C76.9245 79.002 77.283 79.0607 77.6916 79.1446C75.532 78.2134 75.8905 78.1211 77.7166 78.2385C76.5826 78.1798 76.9078 78.3392 77.825 78.7084C77.5999 78.9601 77.9751 79.4215 78.392 80.0759C78.809 80.7304 79.2843 81.5694 79.8513 82.6349C78.2253 76.871 78.8256 76.636 81.619 76.3843C79.993 76.1326 80.5684 75.8642 81.5023 75.4698C81.6941 75.2853 82.2444 74.9832 82.7781 74.6392C83.837 73.9596 84.821 73.1626 85.6882 72.1893C86.0384 71.9209 86.3803 71.6776 86.7722 71.4678C88.3314 70.6456 89.4988 70.0247 89.4988 70.0247L92.2755 68.5565C92.2755 68.5565 93.0843 68.137 94.16 67.5665C94.6937 67.2896 95.294 67.105 95.9194 66.8701C96.428 66.6939 96.9367 66.5093 97.4453 66.308C97.9456 66.0982 98.4459 65.8885 98.9462 65.6535C101.74 64.6384 103.374 64.0343 104.508 63.5812C104.508 64.1014 104.508 64.6216 104.491 65.1334C103.691 68.934 102.257 72.4914 100.297 75.6964C100.022 76.1494 99.7301 76.6025 99.4299 77.0471C94.0683 78.6161 96.303 122.42 91.8169 125.432C90.8246 125.936 88.5816 87.1487 87.7061 87.8283C87.2141 87.9709 86.7388 88.2142 86.2552 88.4491C81.8942 90.555 77.0162 91.7296 71.8547 91.7296C70.1287 91.7296 71.5796 116.463 69.9202 116.212C69.3532 116.103 65.6509 91.1088 65.0839 90.9494C62.8909 89.9845 60.3727 89.7412 58.0546 88.8686C57.6627 88.7176 57.2792 88.5163 56.9039 88.2058C54.1773 84.6401 57.3709 93.8691 53.8771 91.8639C52.3845 90.8571 44.6965 78.1127 43.7042 76.183C43.4291 75.7467 43.1622 75.302 42.9037 74.8574C40.0937 69.9324 38.4844 64.2272 38.4844 58.1445L38.5011 58.1781C38.5011 39.6362 53.4435 24.6013 71.8714 24.6013C73.3807 24.6013 74.8732 24.7188 76.3325 24.9117C80.7435 26.3297 84.946 28.5446 88.6983 31.4979C88.5399 31.4392 88.4065 31.4392 88.3148 31.4979C86.7722 32.5131 90.2493 42.2119 88.665 43.1684C87.039 44.1248 85.4047 45.0226 83.7453 45.8699C83.3284 46.0797 82.9115 46.2894 82.6029 46.4992C82.086 46.7006 81.669 46.9019 82.086 47.1872C80.8352 47.3046 80.4099 47.506 81.7441 47.8919C79.5761 47.9003 79.1508 48.0933 81.3105 48.5715C78.5421 48.3702 78.3504 48.4625 81.0353 48.8736C77.9751 48.6386 77.7833 48.7309 80.7935 49.0162C79.6595 48.9742 78.884 48.9659 78.5338 48.9491C78.0669 48.9575 78.0168 48.9575 78.4504 48.9575C78.6755 48.991 79.376 49.0162 80.46 49.0162C79.2509 49.0665 78.4254 49.1001 78.242 49.0665C77.8334 49.1001 77.5916 49.1169 77.5499 49.1001C77.7083 49.0581 78.1002 48.9491 78.5838 48.8232C77.9251 48.9575 77.5248 49.0414 78.0085 48.9575C77.6499 49.033 77.5082 49.0749 77.5499 49.0917C77.4331 49.1169 77.4581 49.1001 77.725 49.0078C76.2157 49.2343 75.8989 49.0749 76.9495 47.6654C76.6493 47.7745 76.3992 47.8416 76.1907 47.8584C76.2157 47.8248 76.2491 47.7913 76.2824 47.7493C76.2241 47.7829 76.1657 47.8248 76.1157 47.8584C76.0906 47.8584 76.0656 47.8584 76.0406 47.8584C76.1657 47.6906 76.3074 47.4892 76.4742 47.2711C76.099 47.5647 75.8238 47.7157 75.6237 47.7325C75.6154 47.7241 75.5987 47.7157 75.5987 47.7157C75.6737 47.5899 75.7571 47.4473 75.8572 47.2962C75.7404 47.4305 75.6237 47.5479 75.5236 47.6486C75.4903 47.6151 75.4569 47.5731 75.4319 47.5228C75.5403 47.2795 75.6737 46.9942 75.8238 46.667C75.632 46.9271 75.4736 47.1368 75.3318 47.2878C75.3235 47.2543 75.3152 47.2207 75.3068 47.1788C75.4069 46.9439 75.507 46.6838 75.6237 46.3901C75.4903 46.625 75.3735 46.8264 75.2735 46.9858C75.2234 46.6167 75.2234 46.1216 75.2568 45.5092C75.1984 46.1384 75.1651 46.6502 75.1818 47.0194C75.0984 47.1536 75.0233 47.2879 74.9483 47.4053C74.7648 47.5731 74.6564 47.4892 74.5981 47.1788M74.2645 80.831C74.006 81.3764 73.881 82.0979 73.7309 82.9873C73.8393 82.0811 73.956 81.3596 74.2645 80.831ZM74.2645 80.831C74.3062 80.7387 74.3479 80.6548 74.3979 80.5793C74.3396 80.1514 74.4146 79.8326 74.5564 79.5893C74.6314 79.3963 74.7398 79.2453 74.8649 79.1279C75.115 78.8846 75.4402 78.8091 75.8822 78.8594C76.0406 78.8762 76.2157 78.9097 76.4075 78.9601C76.4659 78.9601 76.5242 78.9685 76.5909 78.9769C76.2824 78.8846 76.0073 78.8174 75.7654 78.7839C75.2818 78.7168 74.9149 78.7671 74.6898 78.9936C74.3229 79.2369 74.0978 79.648 74.3312 80.3612C74.2312 80.4535 74.1395 80.5542 74.0561 80.6548C74.0561 80.6548 74.0644 80.6716 74.0727 80.6716C74.0477 80.6884 74.0311 80.7052 74.006 80.7136M74.006 80.7136C73.6225 81.2589 73.4724 81.9889 73.3139 82.9285C73.3556 81.863 73.3973 81.0827 74.006 80.7136ZM74.006 80.7136C74.0227 80.6884 74.0394 80.6716 74.0561 80.6465C73.8059 80.3864 73.6391 80.1766 73.5558 80.0172C73.464 80.0256 73.3807 80.0424 73.2973 80.0508M73.2973 80.0508C73.389 80.1347 73.5141 80.2353 73.6808 80.3528C71.9965 80.4451 71.5212 81.0408 71.0793 82.9957C71.5462 80.9821 71.9298 80.2857 73.2973 80.0508ZM73.2973 80.0508C73.1889 79.9501 73.1222 79.8746 73.0971 79.8075C72.9304 79.7403 72.8053 79.6816 72.7136 79.6313C72.5802 79.6564 72.4551 79.69 72.33 79.7236C72.4468 79.7487 72.5802 79.7739 72.7303 79.7991C72.6385 79.7991 72.5552 79.7991 72.4634 79.8075C72.5802 79.841 72.7136 79.8746 72.8637 79.9165C72.3467 79.9165 71.9548 79.9501 71.6129 80.0592C71.7547 80.0843 71.9048 80.1263 72.0799 80.1934C71.9048 80.1347 71.7547 80.0927 71.6046 80.0592C71.5128 80.0843 71.4295 80.1179 71.3461 80.1598M71.3461 80.1598C70.7541 80.5458 70.2287 81.1666 69.4616 82.2322C70.2537 81.0408 70.729 80.4451 71.3461 80.1598ZM71.3461 80.1598C71.4045 80.1179 71.4712 80.0843 71.5295 80.0508C71.3711 80.034 71.221 80.0508 71.0626 80.0927M71.0626 80.0927C70.6874 80.2521 70.3455 80.5122 69.9202 80.9065M71.0626 80.0927C70.7457 80.1934 70.4122 80.4451 69.9202 80.9065M71.0626 80.0927C71.1126 80.0759 71.1543 80.0508 71.2043 80.034C70.604 80.0759 70.0286 80.4954 68.7862 81.5442C70.1287 80.2773 70.0786 80.3025 68.7695 81.5106C69.6951 80.4954 69.3615 80.6716 68.0024 81.6113C68.4026 81.175 67.8106 81.4855 67.1935 81.8294C66.8183 82.014 66.4097 82.2322 66.1262 82.3748C65.8427 82.5258 65.6843 82.6097 65.6843 82.6097C65.6843 82.6097 65.8177 82.4923 66.0428 82.2993C66.268 82.0979 66.5932 81.8127 66.9184 81.5106C67.3853 81.1331 67.8356 80.7387 67.3103 80.5961C68.5694 80.1011 68.8195 79.8746 67.5688 79.648C69.2531 79.4383 69.4282 79.2202 68.1775 78.2217C69.5033 78.7084 69.9452 78.7084 69.8202 77.9029C69.6534 77.7603 69.3615 77.4415 68.9279 76.9632C69.2281 77.1646 69.495 77.324 69.7201 77.4331C69.6867 77.324 69.6534 77.2066 69.6117 77.0723C69.6867 77.2233 69.7451 77.3576 69.7951 77.475C70.4372 77.7603 70.7874 77.6344 71.0209 77.0555C70.8374 77.2485 70.5122 76.9045 69.9202 76.141C70.4122 76.527 70.7957 76.7535 71.1043 76.829C71.146 76.7115 71.1793 76.5773 71.2127 76.4263C71.1877 76.5941 71.1626 76.7283 71.1376 76.8374C71.4795 76.9045 71.7296 76.7787 71.9381 76.4682C71.788 76.527 71.5295 76.1662 71.0459 75.5705C71.8964 76.2165 72.3717 76.4682 72.6385 76.1998C72.7219 76.2501 72.5968 75.7719 72.2466 74.8825C73.1722 76.0907 73.4891 76.334 73.2472 75.5873C73.1472 75.3608 72.9971 75.0252 72.8053 74.5637C73.1305 75.8138 73.0221 75.6376 72.5718 74.4882C72.7386 75.2013 72.5552 74.9413 72.2049 74.312C72.1216 74.1945 71.8714 73.7667 71.6213 73.3388C70.8875 72.0551 70.1704 70.8386 69.9369 69.2696C69.595 67.0295 69.1447 64.8984 68.2275 62.8093C67.3687 61.2907 66.3013 59.8644 65.0756 58.5892C64.2001 57.6663 63.2328 56.8357 62.1988 56.1057C61.6819 55.7366 61.1482 55.3926 60.7646 55.4261C60.0559 54.7549 59.4889 54.4613 58.8051 55.4765C58.3381 53.9159 57.7461 53.6726 56.2369 54.2012C56.5537 53.2364 55.945 53.035 55.1612 52.9091C54.7193 52.691 54.1022 52.5484 53.4769 52.4225C52.2261 52.1792 50.9586 52.0366 49.6912 52.003C50.9003 51.7765 52.1594 51.7178 53.4435 51.7513C54.0856 51.7681 54.736 51.8101 55.0612 51.8772C56.0534 51.9275 56.7122 51.9946 55.4697 52.3302C58.0463 52.1457 58.7134 52.2212 60.7313 54.4949C60.0642 52.3722 60.7313 52.4393 62.8659 53.0014C62.0821 52.5484 62.7492 52.5903 63.4496 52.6323C64.0917 52.6239 64.7587 52.6155 65.4258 52.5735C65.7593 52.5568 66.0845 52.5232 66.0512 52.4896C66.6349 52.4561 66.9601 52.4141 66.5598 52.3218C66.5432 52.3218 66.5265 52.3218 66.5098 52.3218C66.4764 52.3218 66.4514 52.3218 66.4181 52.3218C66.4431 52.3218 66.4598 52.3218 66.4848 52.3218C66.4764 52.3218 66.4598 52.3218 66.4514 52.3218C66.4848 52.3218 66.5098 52.3218 66.5432 52.3218C66.4764 52.3051 66.3847 52.2883 66.268 52.2715C66.81 52.2715 67.2102 52.2547 67.4354 52.2379C67.6021 52.2212 67.7606 52.2044 67.894 52.1792C68.1108 52.1373 68.2525 52.0869 68.3026 52.0114C68.2942 51.9275 68.1942 51.8184 68.0024 51.6758C67.9607 51.6758 67.919 51.6758 67.869 51.6758M69.9202 80.9065C69.6617 81.1499 69.3699 81.4435 69.0197 81.8127C69.3699 81.4519 69.6617 81.1499 69.9202 80.9065ZM67.869 51.6758C67.5855 51.6842 67.1268 51.6171 66.4764 51.4996C67.0935 51.6087 67.5604 51.6758 67.869 51.6758ZM67.869 51.6758C67.919 51.6758 67.9607 51.6758 67.994 51.6674C67.8189 51.5332 67.5688 51.3738 67.2352 51.1808C67.1435 51.1389 67.0601 51.0885 66.9601 51.0466C67.0268 51.0717 67.0851 51.1053 67.1435 51.1305C67.1018 51.1053 67.0685 51.0885 67.0268 51.0633C67.4854 51.2395 67.8606 51.3738 68.1691 51.4745C68.1191 51.2815 67.8106 50.9459 67.2269 50.4173C67.402 50.518 67.5604 50.6103 67.7105 50.6942C67.6021 50.5851 67.4854 50.476 67.352 50.3418C67.9357 50.7277 68.3776 51.0046 68.6861 51.164C68.9363 51.2563 69.103 51.2647 69.1781 51.1808C69.0947 50.8788 68.8696 50.4257 68.5194 49.7797C68.6778 49.9643 68.8112 50.1321 68.9363 50.2831C68.8612 50.1237 68.7695 49.9391 68.6695 49.7377C68.4026 49.679 68.1024 49.5783 67.7606 49.4273C67.5771 49.4189 67.3937 49.4105 67.2019 49.3937C67.4187 49.4021 67.6355 49.4105 67.8356 49.4189C67.7772 49.4021 67.7189 49.3853 67.6605 49.3602C67.7272 49.377 67.7939 49.4021 67.8606 49.4189C68.0357 49.4189 68.2108 49.4189 68.3776 49.4021C68.3526 49.3853 68.3276 49.3686 68.3026 49.3434C68.3359 49.3602 68.3609 49.377 68.3859 49.4021C69.078 49.3434 69.645 49.1336 70.112 48.5463C70.2454 48.7058 70.3705 48.84 70.4956 48.9407C70.5539 48.8484 70.6123 48.7393 70.679 48.6303C70.704 48.6722 70.7207 48.7141 70.7457 48.7477C70.7624 48.7225 70.7874 48.6974 70.8041 48.6638C70.8041 48.6638 70.8041 48.6806 70.8124 48.689C70.8291 48.6722 70.8458 48.647 70.8625 48.6303C70.8791 48.647 70.8875 48.6638 70.9041 48.6806C70.9041 48.6806 70.9208 48.6722 70.9292 48.6638C70.9709 48.7225 71.0125 48.7813 71.0542 48.84C71.1376 48.9239 71.221 48.9742 71.3044 49.0078C71.3461 48.9575 71.3794 48.9071 71.4211 48.8568C71.4211 48.9155 71.4295 48.9658 71.4378 49.0246C71.5545 48.9491 71.6629 48.8148 71.7713 48.6638C71.9465 48.5212 72.0715 48.1688 72.0799 47.7241C72.1049 46.8264 71.688 45.5427 70.9875 43.504C71.3044 44.2003 71.5796 44.7792 71.8214 45.2491C71.6129 44.7625 71.3794 44.2171 71.1126 43.6214C71.6629 44.7792 72.1049 45.6938 72.4801 46.3985C72.3217 45.7609 72.0715 44.9974 71.7547 44.0493C72.3467 45.5595 72.7386 46.4572 72.9971 46.818C73.1805 46.6418 73.2055 45.8783 73.1889 44.6534C73.2973 45.2407 73.389 45.635 73.464 45.8699C73.4724 45.5595 73.4807 45.1987 73.4724 44.7792C73.5558 45.5092 73.6225 45.9371 73.6808 46.13C73.6975 46.1133 73.7142 46.0965 73.7309 46.0629C73.6725 45.7021 73.6058 45.2994 73.5391 44.8464C73.6141 45.2826 73.6808 45.6686 73.7475 46.0126C73.8393 45.8196 73.931 45.4169 74.0394 44.8715C73.931 45.5679 73.8559 46.0629 73.7892 46.2055C73.981 47.1452 74.1728 47.7577 74.4146 48.0765C74.5397 47.9674 74.6731 47.808 74.8149 47.6067C74.7065 47.5731 74.6398 47.4305 74.5981 47.1788M74.5981 47.1788C74.5981 47.1368 74.5814 47.0865 74.5814 47.0362M74.5981 47.1788C74.5897 47.1368 74.5814 47.0865 74.5814 47.0362M74.5814 47.0362C74.5814 47.0194 74.5814 47.011 74.5814 46.9942M74.5814 46.9942C74.5814 46.9187 74.5647 46.8348 74.5647 46.7509M74.5814 46.9942C74.573 46.9271 74.5647 46.8432 74.5647 46.7509M74.5647 46.7509C74.5647 46.7509 74.5647 46.7425 74.5647 46.7341M74.5647 46.7509C74.5647 46.7425 74.5647 46.7341 74.5647 46.7341M74.5647 46.7341C74.5647 46.6586 74.5647 46.5747 74.5647 46.4908C74.5647 46.4572 74.5647 46.4321 74.5647 46.3985M74.5647 46.3985C74.5647 46.365 74.5647 46.323 74.5647 46.2811M74.5647 46.3985C74.5647 46.3566 74.5647 46.3146 74.5647 46.2811M74.5647 46.2811C74.5647 45.9706 74.5647 45.6099 74.5897 45.1987C74.5731 45.6182 74.5647 45.979 74.5647 46.2811Z" stroke="currentColor" stroke-width="1.5" stroke-miterlimit="10"/>
</g>
<defs>
<clipPath id="clip0_675_1658">
<rect width="142.1" height="142.1" fill="white"/>
</clipPath>
</defs>
</svg>
