<svg width="279" height="97" viewBox="0 0 279 97" fill="none" xmlns="http://www.w3.org/2000/svg">
<path d="M137.179 50.2935C135.66 49.3976 134.997 49.3976 135.398 50.641C132.592 49.3898 130.85 49.3898 129.007 51.367C126.525 49.3898 123.942 49.3898 119.471 50.4402C118.176 49.3898 114.992 49.3898 111.631 49.3898C108.686 49.3898 105.61 49.3898 103.814 50.4557C99.3273 49.3898 96.1358 49.3898 93.8231 55.3601C92.4817 53.3674 91.2328 52.039 89.9685 51.2435C88.7043 50.448 87.4323 50.1776 86.1603 50.224C84.6185 50.4402 83.0844 50.9731 82.3751 50.8573C80.9335 50.5715 80.0007 49.9768 79.569 48.4862C77.6495 49.3898 76.2233 49.3898 75.8533 48.1386C73.3016 49.6293 71.3975 49.5057 69.0539 48.2622C67.9823 50.0463 66.4791 50.7028 64.0662 51.1585C64.3976 51.3593 63.6884 50.865 62.5089 50.1313C62.3316 50.1776 61.6763 49.9768 60.89 49.8146C59.7337 49.776 58.4694 50.1622 57.2899 50.8264C56.6192 49.3898 55.725 49.3898 55.6016 49.7219C55.725 49.3898 55.725 48.0382 55.0234 48.6021C55.725 48.0305 56.3879 48.0305 56.3263 49.4207C57.4441 48.8029 58.5542 48.4167 59.5024 48.5789C60.4506 48.7411 61.2523 49.4516 61.5993 50.6179C63.4186 49.4516 64.7831 48.7411 65.8084 47.8761C67.8898 48.4862 69.6321 48.9496 71.5131 48.0923C71.7906 48.9496 72.1529 48.4862 72.7311 46.8875C73.4712 48.2159 74.4271 48.3935 75.9227 47.2891C76.1 48.2236 77.4182 48.4167 79.0757 47.7139C79.253 48.6793 79.9853 48.5712 81.1879 47.8374C81.4038 48.4476 82.0822 48.4476 83.0535 48.1695C84.0249 48.6638 85.1812 49.1195 86.299 50.0618C87.2164 51.1353 88.0875 52.68 88.8507 54.997C90.4851 52.6877 92.0191 51.1353 93.5378 50.1776C96.5829 48.2545 99.5894 48.6947 103.721 50.0154C102.92 48.0382 104.708 48.0382 106.512 48.0614C108.224 48.0382 109.95 48.0382 111.631 48.0382C114.992 48.0382 118.176 48.0382 119.24 48.8801C123.942 48.0382 126.525 48.0382 129.061 49.6602C130.85 48.0382 132.592 48.0382 135.637 49.0423C134.997 48.0382 135.652 48.0382 137.402 48.7565C135.66 48.0382 135.66 49.3898 137.179 50.2858V50.2935Z" fill="currentColor"/>
<path d="M136.215 52.1857C134.966 51.0813 135.983 50.4866 138.242 50.587C138.026 49.3126 139.044 48.7179 140.007 49.0577C139.044 48.7256 138.026 48.1309 138.589 48.0151C135.991 46.9569 134.966 46.37 136.978 46.7948C134.966 46.3622 134.966 47.5439 136.669 49.6601C134.966 49.8996 134.966 51.0813 136.215 52.1857Z" fill="currentColor"/>
<path d="M195.245 50.2935C193.726 49.3976 193.063 49.3976 193.464 50.641C190.658 49.3898 188.916 49.3898 187.074 51.367C184.591 49.3898 182.009 49.3898 177.537 50.4402C176.242 49.3898 173.059 49.3898 169.697 49.3898C166.753 49.3898 163.677 49.3898 161.88 50.4557C157.394 49.3898 154.202 49.3898 151.889 55.3601C150.548 53.3674 149.299 52.039 148.035 51.2435C146.771 50.448 145.499 50.1776 144.227 50.224C142.685 50.4402 141.151 50.9731 140.442 50.8573C139 50.5715 138.067 49.9768 137.635 48.4862C135.716 49.3898 134.29 49.3898 133.92 48.1386C131.368 49.6293 129.464 49.5057 127.12 48.2622C126.049 50.0463 124.545 50.7028 122.133 51.1585C122.464 51.3593 121.755 50.865 120.575 50.1313C120.398 50.1776 119.743 49.9768 118.956 49.8146C117.8 49.776 116.536 50.1622 115.356 50.8264C114.686 49.3898 113.791 49.3898 113.668 49.7219C113.791 49.3898 113.791 48.0382 113.09 48.6021C113.791 48.0305 114.454 48.0305 114.393 49.4207C115.51 48.8029 116.621 48.4167 117.569 48.5789C118.517 48.7411 119.319 49.4516 119.666 50.6179C121.485 49.4516 122.849 48.7411 123.875 47.8761C125.956 48.4862 127.698 48.9496 129.579 48.0923C129.857 48.9496 130.219 48.4862 130.798 46.8875C131.538 48.2159 132.494 48.3935 133.989 47.2891C134.166 48.2236 135.485 48.4167 137.142 47.7139C137.319 48.6793 138.052 48.5712 139.254 47.8374C139.47 48.4476 140.149 48.4476 141.12 48.1695C142.091 48.6638 143.248 49.1195 144.365 50.0618C145.283 51.1353 146.154 52.68 146.917 54.997C148.551 52.6877 150.086 51.1353 151.604 50.1776C154.649 48.2545 157.656 48.6947 161.788 50.0154C160.986 48.0382 162.775 48.0382 164.579 48.0614C166.29 48.0382 168.017 48.0382 169.697 48.0382C173.059 48.0382 176.242 48.0382 177.306 48.8801C182.009 48.0382 184.591 48.0382 187.128 49.6602C188.916 48.0382 190.658 48.0382 193.703 49.0423C193.063 48.0382 193.719 48.0382 195.469 48.7565C193.726 48.0382 193.726 49.3898 195.245 50.2858V50.2935Z" fill="currentColor"/>
<path d="M194.281 52.1857C193.032 51.0813 194.05 50.4866 196.308 50.587C196.093 49.3126 197.11 48.7179 198.074 49.0577C197.11 48.7256 196.093 48.1309 196.655 48.0151C194.057 46.9569 193.032 46.37 195.044 46.7948C193.032 46.3622 193.032 47.5439 194.736 49.6601C193.032 49.8996 193.032 51.0813 194.281 52.1857Z" fill="currentColor"/>
<path d="M114.183 46.0915C113.22 46.2769 112.564 46.2769 113.69 45.7594C110.159 46.2691 108.417 46.2691 112.402 43.9907C104.084 46.2769 101.502 46.2769 97.8708 35.9506C96.4524 42.8322 94.5637 45.1261 91.11 45.5045C89.3832 45.6899 87.2632 45.4041 85.2434 44.7631C85.2203 45.6126 84.6421 45.9448 84.619 45.8212C82.2754 46.2691 80.4869 46.2691 81.3426 45.2496C79.2535 45.5895 77.4573 45.8135 75.7613 45.8984C72.3693 46.0683 69.3936 45.659 65.3464 44.4387C64.7759 45.35 63.6041 45.8135 62.1086 46.0297C60.613 46.246 58.786 46.2305 57.1902 46.0297C55.4171 46.2305 53.883 46.2537 53.8368 44.933C50.8225 46.2691 49.3116 46.2691 49.3887 43.342C44.9791 46.2691 42.3966 46.2691 38.7502 43.2879C38.0718 46.2691 36.3295 46.2691 33.7393 45.0875C33.932 46.2691 33.269 46.2691 32.3594 45.6281C33.2768 46.2691 33.2768 44.9175 32.6909 44.4387C33.269 44.9175 33.932 44.9175 34.1556 43.9367C36.3372 44.9175 38.0718 44.9175 39.151 42.3379C42.3966 44.9175 44.9791 44.9175 48.9801 42.3843C49.3039 44.9098 50.8225 44.9098 53.4128 43.7976C53.9062 44.8944 55.4634 44.8712 57.09 44.7708C58.8322 44.8712 60.6284 44.8944 62.1625 44.6163C63.6966 44.3383 64.9532 43.7513 65.701 42.5851C67.6051 43.3651 69.278 43.8826 70.8892 44.1761C72.5004 44.4696 74.0422 44.5468 75.6302 44.624C77.3031 44.3151 79.0299 44.0216 81.1268 44.3614C80.7413 44.2456 81.0574 44.5777 81.7358 44.8017C82.368 44.7785 83.3701 44.6395 84.4725 44.3692C84.7655 44.485 85.4901 44.0525 85.5595 43.3651C86.5231 43.4269 87.5716 43.6895 88.5506 43.8594C89.5297 44.0293 90.447 44.0989 91.2719 44.0525C94.5868 43.8517 96.5372 41.72 98.1407 35.3328C101.494 44.9175 104.077 44.9175 111.562 41.9672C108.401 44.9175 110.144 44.9175 113.343 44.261C112.549 44.9175 113.212 44.9175 113.944 44.709C113.212 44.9175 113.212 46.2691 114.168 46.0838L114.183 46.0915Z" fill="currentColor"/>
<path d="M114.184 47.8293C112.534 47.9606 113.552 47.3659 114.785 46.7481C115.587 46.192 116.605 45.5973 116.605 45.5973C116.605 45.5973 115.587 45.0103 114.6 44.4079C113.544 43.8286 112.527 43.2416 113.29 42.9172C112.527 43.2416 112.527 44.4156 113.853 45.2652C112.527 46.7789 112.527 47.9529 114.176 47.8293H114.184Z" fill="currentColor"/>
<path d="M141.599 47.2983C140.789 47.7462 140.026 47.8775 140.535 47.6844C137.536 48.0165 135.809 48.0165 137.081 47.2365C130.29 48.0165 126.474 48.0165 119.659 47.1438C119.266 47.584 118.125 47.8003 116.614 47.9084C115.103 48.0165 113.222 48.0165 112.528 47.3369C107.61 48.0243 103.917 48.0243 100.17 44.0312C96.6935 48.0243 93.1628 48.0243 88.5528 47.3214C87.4504 47.6767 86.0782 47.8466 84.5826 47.9393C83.0948 48.0243 81.4836 48.0243 79.9186 48.0243C78.9781 48.0243 78.0531 48.0243 77.1434 47.9625C76.226 47.9779 75.3241 47.9239 74.4452 47.7617C73.5587 47.9239 72.6953 47.9702 71.8396 47.9393C70.9993 48.0243 70.1667 48.0243 69.3418 47.9934C68.5401 48.0243 67.7384 48.0243 66.9675 48.0243C66.1888 48.0243 65.4411 48.0243 64.7087 48.0165C63.2517 48.0011 61.8872 47.9779 60.646 47.9316C58.6648 48.0011 56.938 48.0165 56.09 47.1592C55.8664 49.3759 58.0481 49.3681 60.8773 49.1673C61.9951 49.2677 63.2979 49.3218 64.7318 49.345C65.4488 49.3604 66.1965 49.3681 66.9212 49.2523C67.6998 49.2677 68.463 49.1673 69.1722 48.8275C70.0896 49.1596 70.9607 49.2677 71.8087 48.9047C72.6953 49.1519 73.5664 48.9279 74.4606 48.3641C75.3318 48.9279 76.226 49.1519 77.1896 49.0669C78.0762 49.2909 79.0321 49.2137 80.0574 49.0206C80.7589 49.2214 81.5298 49.2909 82.293 49.3141C83.0562 49.345 83.8194 49.3218 84.5441 49.2755C85.9934 49.1905 87.2808 49.0129 88.2136 48.6576C93.1628 49.3681 96.6935 49.3681 100.132 45.2438C103.917 49.3681 107.61 49.3681 112.867 48.6808C113.222 49.3681 115.11 49.3681 116.606 49.3527C118.102 49.3372 119.219 49.3064 119.551 49.2446C126.481 49.3681 130.297 49.3681 137.205 49.26C135.817 49.3681 137.551 49.3681 140.604 49.3218C140.003 49.3527 140.728 49.3295 141.614 49.2677C144.135 49.3295 146.818 49.3527 147.82 49.0978C148.714 48.8661 148.282 48.4259 146.07 47.5763C144.636 47.7539 142.878 47.6226 141.614 47.2983H141.599Z" fill="currentColor"/>
<path d="M146.054 47.5764C146.185 47.561 146.324 47.5455 146.455 47.5223C146.517 47.5146 146.571 47.4992 146.625 47.4837C146.139 47.4065 145.646 47.3215 145.137 47.2366C145.476 47.3524 145.777 47.4683 146.062 47.5764H146.054Z" fill="currentColor"/>
<path d="M207.405 48.7116C208.87 49.0206 209.61 49.1596 209.602 49.1519C209.594 49.1519 209.062 49.036 208.045 48.8275C207.813 48.7889 207.567 48.7425 207.305 48.6885C207.336 48.6962 207.366 48.7039 207.397 48.7116H207.405Z" fill="currentColor"/>
<path d="M226.661 47.5223C226.661 47.5223 226.684 47.5068 226.7 47.5068C226.407 47.6304 226.391 47.6381 226.661 47.5223Z" fill="currentColor"/>
<path d="M210.302 47.5686C210.386 47.5763 210.456 47.5763 210.502 47.5686C210.271 47.4836 210.032 47.4064 209.777 47.3137C209.962 47.4064 210.132 47.4836 210.302 47.5686Z" fill="currentColor"/>
<path d="M209.145 47.7309C208.814 47.839 207.472 47.7077 205.329 47.3601C206.409 48.0089 205.537 48.0166 204.389 47.6227C204.844 48.0166 204.45 48.0166 203.888 47.6536C202.955 48.0166 201.853 48.0166 201.621 47.2829C199.1 48.0166 197.481 48.0166 196.849 46.3329C193.743 48.0166 191.623 48.0166 188.485 46.0626C186.959 48.0166 184.415 48.0166 180.683 47.4605C178.957 48.0166 176.043 48.0166 172.982 48.0166C170.114 48.0166 167.116 48.0166 169.729 46.9817C160.91 48.0166 157.703 48.0166 149.1 38.9802C150.441 44.8809 149.462 46.9276 146.617 47.4837C157.98 49.3682 161.288 49.3605 169.945 49.2215C167.123 49.3682 170.122 49.3682 172.99 49.3682C176.05 49.3682 178.964 49.3682 180.483 48.8585C184.422 49.3682 186.974 49.3682 188.331 47.5918C191.63 49.3682 193.75 49.3682 197.096 47.8544C197.489 49.3682 199.108 49.3682 201.86 48.704C201.86 49.3682 202.963 49.3682 203.996 49.0284C204.45 49.3682 204.844 49.3682 204.45 49.0284C205.537 49.3605 206.416 49.3528 205.298 48.8971C206.771 49.1674 208.081 49.2447 208.482 49.1829C208.814 49.1288 208.513 48.9821 207.403 48.7117C207.164 48.6654 206.91 48.6113 206.64 48.5496C206.871 48.5959 207.095 48.6422 207.311 48.6886C207.102 48.6345 206.871 48.5804 206.609 48.5264C207.164 48.6422 207.642 48.7426 208.043 48.8353C209.269 49.0593 210.109 49.1443 210.356 49.1056C210.687 49.0439 209.932 48.7349 207.634 48.1402C212.815 49.2447 213.724 49.2678 210.302 47.5687C209.801 47.5223 208.644 47.1825 207.056 46.5724C208.791 47.2752 209.484 47.6227 209.153 47.7309H209.145Z" fill="currentColor"/>
<path d="M55.8594 46.8658C55.9288 46.9739 55.9981 47.0666 56.0906 47.1515C56.1061 47.0048 56.1292 46.8503 56.1677 46.6804C56.0598 46.7422 55.9673 46.804 55.8594 46.8658Z" fill="currentColor"/>
<path d="M224.97 47.167C222.411 48.6035 222.411 48.6035 224.97 47.167Z" fill="currentColor"/>
<path d="M48.082 46.2247C48.0897 46.3329 48.1052 46.441 48.1206 46.526C48.1283 45.9467 48.1745 45.213 48.2516 44.3093C48.1822 45.1126 48.1283 45.7304 48.082 46.2247Z" fill="currentColor"/>
<path d="M48.1264 43.6838C47.872 47.3293 47.8335 48.8508 48.0802 46.2248C48.0262 45.6842 48.0493 44.8424 48.1264 43.6838Z" fill="currentColor"/>
<path d="M50.7148 46.4025C50.8382 49.2138 52.3646 48.9821 55.8568 46.8582C55.6563 46.5415 55.533 46.1476 55.5253 45.6301C52.8348 47.3525 51.3316 47.8159 50.7148 46.3947V46.4025Z" fill="currentColor"/>
<path d="M50.7768 44.6492C50.6612 44.8731 50.5532 45.0817 50.4453 45.2825C50.4993 45.7459 50.5918 46.1089 50.7228 46.4024C50.6997 45.9081 50.7228 45.3366 50.7768 44.6492Z" fill="currentColor"/>
<path d="M48.1188 46.5261C48.0803 49.0516 48.7124 48.5805 50.447 45.2826C50.4007 44.8964 50.3853 44.4485 50.3853 43.9387C49.0131 46.696 48.327 47.5765 48.1188 46.5261Z" fill="currentColor"/>
<path d="M217.109 46.6651C217.14 46.6033 217.163 46.526 217.178 46.4334C217.148 46.3561 217.117 46.2789 217.078 46.2017C217.094 46.3639 217.101 46.5183 217.101 46.6651H217.109Z" fill="currentColor"/>
<path d="M220.77 48.534C220.77 48.534 221.325 47.9933 222.496 46.8657C221.394 47.9393 220.823 48.4876 220.77 48.534Z" fill="currentColor"/>
<path d="M224.973 47.167C225.034 47.1283 225.088 47.0975 225.158 47.0588C225.096 47.0975 225.042 47.1283 224.973 47.1592V47.167Z" fill="currentColor"/>
<path d="M221.518 47.8003C221.518 47.8003 221.494 47.8235 221.479 47.8389C220.978 48.3332 220.739 48.5649 220.777 48.534C220.785 48.5263 221.04 48.2791 221.525 47.8003H221.518Z" fill="currentColor"/>
<path d="M224.973 47.1671C225.034 47.1362 225.088 47.1053 225.15 47.0667C225.088 47.1053 225.034 47.1284 224.973 47.1671Z" fill="currentColor"/>
<path d="M222.496 46.8658C222.496 46.8658 222.558 46.8426 222.589 46.8349C222.712 46.6959 222.851 46.5414 222.997 46.387C222.82 46.5569 222.658 46.7191 222.496 46.8658Z" fill="currentColor"/>
<path d="M222.491 46.8735C222.491 46.8735 222.475 46.8735 222.468 46.8813C222.082 47.252 221.774 47.5609 221.52 47.8081C221.782 47.5609 222.105 47.252 222.491 46.8735Z" fill="currentColor"/>
<path d="M220.687 43.3902C219.284 47.893 218.267 47.8698 218.151 43.228C218.267 47.8698 218.267 47.9548 218.151 43.3748C218.151 47.9625 218.035 47.9625 217.203 43.4134C217.295 44.904 217.303 45.9003 217.18 46.4332C218.351 49.2986 218.698 49.2214 220.001 46.1166C219.392 49.0515 219.647 49.26 222.137 46.9584C220.919 47.167 220.626 46.0857 220.687 43.3902Z" fill="currentColor"/>
<path d="M214.203 43.8461C216.253 47.8777 215.567 47.8855 210.387 44.8501C213.786 47.9163 213.031 47.9395 208.051 46.0009C210.148 46.9973 210.826 47.4993 210.502 47.5611C214.28 48.8895 215.436 49.098 214.156 47.8623C213.763 47.5842 213.285 47.2367 212.699 46.8196C213.069 47.059 213.409 47.2753 213.725 47.4684C213.447 47.229 213.116 46.9509 212.722 46.6343C213.301 47.0745 213.779 47.4375 214.164 47.731C216.608 49.1753 217.209 48.9204 217.109 46.6574C216.785 47.3757 215.945 46.4026 214.203 43.8384V43.8461Z" fill="currentColor"/>
<path d="M214.154 47.8622C215.727 48.9821 215.727 48.9357 214.154 47.7309C214.016 47.6459 213.869 47.5609 213.715 47.4683C213.884 47.615 214.023 47.7463 214.147 47.8622H214.154Z" fill="currentColor"/>
<path d="M222.212 46.943C220.509 48.7117 220.254 49.0052 221.472 47.839C221.734 47.5841 222.058 47.2674 222.459 46.8735C222.374 46.8967 222.289 46.9199 222.212 46.9353V46.943Z" fill="currentColor"/>
<path d="M222.966 46.387C222.789 46.5646 222.619 46.7268 222.457 46.8813C222.619 46.7268 222.781 46.5646 222.966 46.387Z" fill="currentColor"/>
<path d="M222.137 46.9585C222.137 46.9585 222.191 46.9585 222.214 46.943C222.383 46.7654 222.568 46.5723 222.769 46.3638C222.538 46.58 222.329 46.7731 222.137 46.9585Z" fill="currentColor"/>
<path d="M232.086 45.7228C228.918 44.7419 227.923 44.3171 222.149 41.3281C223.437 43.2204 224.47 44.3557 225.534 45.1898C225.457 45.2439 225.364 45.3057 225.287 45.352C224.786 45.1049 224.192 44.7959 223.429 44.4021C223.838 45.0045 224.2 45.4602 224.547 45.8232C223.745 46.3175 223.113 46.6573 222.596 46.8349C220.446 49.2446 220.985 49.1288 225.117 46.8504C221.124 49.2292 221.078 49.3605 224.979 47.167C225.04 47.0357 225.194 46.8427 225.433 46.5955C225.726 46.7963 226.027 46.9662 226.358 47.1284C225.295 47.476 224.832 47.5069 224.979 47.167C221.116 49.3528 222.188 49.3219 226.767 47.4683C226.744 47.476 226.729 47.4914 226.705 47.4991C226.775 47.4683 226.852 47.4374 226.944 47.3987C226.829 47.4451 226.729 47.4837 226.659 47.5146C223.552 49.0747 223.599 49.2987 226.86 48.5418C226.813 48.5881 226.775 48.6345 226.728 48.6731C225.318 49.0902 225.264 49.1442 226.559 48.8507C226.551 48.8585 226.536 48.8739 226.528 48.8816C225.901 49.0361 225.901 49.0361 226.528 48.8816C226.528 48.8816 226.474 48.9357 226.451 48.9666C226.081 49.0747 226.05 49.1056 226.374 49.0516C225.395 50.0865 224.801 50.8202 223.791 51.9401C224.555 51.2913 226.42 50.5036 228.162 49.8702C226.058 52.0714 224.894 53.5157 222.843 55.8096C224.516 54.3962 228.926 52.6198 232.603 51.3531C233.466 49.9938 251.313 48.6808 251.313 48.6808C251.313 48.6808 233.466 47.3678 232.086 45.715V45.7228ZM225.549 45.4833C225.549 45.4833 225.534 45.4756 225.526 45.4679C225.588 45.4215 225.649 45.3752 225.719 45.3211C225.719 45.3211 225.734 45.3289 225.742 45.3366C225.68 45.3829 225.611 45.4293 225.557 45.4756L225.549 45.4833ZM225.749 45.352C225.819 45.4061 225.896 45.4602 225.965 45.5142C225.911 45.5528 225.865 45.5837 225.819 45.6146C225.734 45.576 225.649 45.5374 225.564 45.4911C225.626 45.4447 225.688 45.3984 225.749 45.352ZM225.981 45.5219C226.066 45.5837 226.15 45.6378 226.235 45.6919C226.197 45.715 226.166 45.7382 226.127 45.7614C226.035 45.715 225.934 45.6687 225.834 45.6224C225.881 45.5915 225.927 45.5528 225.981 45.5219ZM226.335 45.7614C226.52 45.8772 226.705 45.9931 226.898 46.1089C226.698 46.024 226.49 45.939 226.258 45.8309C226.281 45.8077 226.305 45.7923 226.328 45.7691L226.335 45.7614ZM227.276 47.5609C226.89 47.6922 226.867 47.6845 227.222 47.5378C227.237 47.5455 227.26 47.5532 227.276 47.5609ZM227.299 47.5764C227.078 47.6588 227.078 47.6588 227.299 47.5764ZM227.415 47.6304C227.415 47.6304 227.492 47.6613 227.53 47.6845C227.353 47.7154 227.314 47.7 227.415 47.6304ZM225.572 45.2362C225.618 45.2748 225.665 45.3057 225.711 45.3366C225.649 45.3829 225.58 45.437 225.518 45.4833C225.464 45.4602 225.41 45.4293 225.356 45.4061C225.426 45.352 225.495 45.2902 225.564 45.2362H225.572ZM224.662 45.9622C224.662 45.9622 224.724 46.024 224.763 46.0549C224.562 46.2093 224.377 46.3484 224.215 46.4719C224.377 46.3484 224.555 46.2093 224.755 46.0626C224.755 46.0626 224.755 46.0626 224.763 46.0703C224.562 46.2171 224.377 46.3561 224.208 46.4719C223.722 46.8349 223.414 47.0744 223.306 47.1593C223.398 47.0821 223.707 46.8504 224.2 46.4719C222.689 47.5764 222.843 47.4142 224.647 45.9622H224.662ZM224.794 46.0935C224.84 46.1398 224.886 46.1862 224.94 46.2248C222.982 47.5609 222.943 47.53 224.794 46.0935ZM224.963 46.2479C225.025 46.302 225.079 46.3484 225.14 46.3947C223.313 47.5609 223.205 47.5223 224.963 46.2479ZM226.597 47.2597C226.597 47.2597 226.636 47.2829 226.659 47.2906C225.811 47.6459 225.788 47.6382 226.597 47.2597ZM226.682 47.2983C226.682 47.2983 226.682 47.2983 226.69 47.2983C226.145 47.53 226.143 47.53 226.682 47.2983ZM226.782 47.3447C226.821 47.3601 226.86 47.3833 226.906 47.3987C226.204 47.6613 226.158 47.6536 226.782 47.3447ZM227.006 47.4451C227.006 47.4451 227.068 47.476 227.099 47.4837C226.505 47.6922 226.474 47.6768 227.006 47.4451Z" fill="currentColor"/>
<path d="M89.638 53.059C89.0829 53.3371 88.5664 53.4143 88.9133 53.2907C86.8935 53.4452 85.7295 53.4066 86.6006 52.9123C82.0214 53.283 79.4543 53.1903 74.8983 52.4489C74.6207 52.7346 73.8498 52.8505 72.8322 52.8891C71.8146 52.9277 70.5504 52.8891 70.0955 52.4103C66.7729 52.7578 64.2906 52.6729 61.87 49.9001C59.4416 52.5029 57.0749 52.418 53.9913 51.8387C53.2435 52.0473 52.3185 52.1399 51.3086 52.1631C50.3064 52.1863 49.2271 52.1477 48.171 52.1168C47.5389 52.0936 46.9144 52.0782 46.3131 52.0086C45.6964 51.9932 45.0951 51.9391 44.5092 51.8156C43.9079 51.9005 43.3297 51.916 42.7515 51.8773C42.1811 51.916 41.626 51.8928 41.071 51.8542C40.5313 51.8542 39.9917 51.8387 39.4752 51.8233C38.951 51.8078 38.4499 51.7847 37.9565 51.7615C36.9775 51.7229 36.0601 51.6688 35.2275 51.607C33.8938 51.607 32.7375 51.5761 32.1824 50.9891C31.982 52.472 33.4467 52.5184 35.3509 52.4489C36.0986 52.5416 36.9775 52.6111 37.9334 52.6574C38.4113 52.6806 38.9124 52.7038 39.4058 52.642C39.93 52.6729 40.4465 52.6188 40.9322 52.4103C41.5412 52.6574 42.1194 52.7501 42.6976 52.5261C43.2912 52.7115 43.8771 52.5802 44.4938 52.2249C45.0642 52.6265 45.6656 52.7964 46.3131 52.7578C46.9067 52.9277 47.5466 52.9046 48.2404 52.7887C48.7106 52.9355 49.2194 53.005 49.7359 53.0359C50.2447 53.0745 50.7612 53.0745 51.2469 53.0668C52.2182 53.0436 53.0894 52.9509 53.7292 52.7346C57.0364 53.3216 59.4108 53.4066 61.816 50.7111C64.2675 53.5688 66.7498 53.6537 70.296 53.3139C70.5195 53.785 71.7838 53.8314 72.7937 53.8545C73.8036 53.8777 74.5513 53.8854 74.7749 53.8545C79.4312 54.094 81.9906 54.1867 86.6391 54.2716C85.7063 54.3102 86.8704 54.3566 88.921 54.3952C88.5201 54.3952 89.0058 54.4029 89.5994 54.3797C91.2954 54.4801 93.0916 54.5574 93.7777 54.4029C94.3867 54.2716 94.1015 53.9627 92.6368 53.3448C91.6731 53.4298 90.4937 53.3062 89.6457 53.059H89.638Z" fill="currentColor"/>
<path d="M92.6285 53.3526C92.721 53.3449 92.8136 53.3372 92.8984 53.3294C92.9369 53.3294 92.9754 53.314 93.014 53.3063C92.6902 53.2445 92.3587 53.175 92.0195 53.1055C92.2431 53.1904 92.4435 53.2754 92.6285 53.3526Z" fill="currentColor"/>
<path d="M133.819 55.5306C134.799 55.77 135.292 55.8859 135.284 55.8781C135.284 55.8781 134.922 55.7855 134.251 55.6233C134.097 55.5924 133.935 55.5538 133.758 55.5151C133.781 55.5151 133.796 55.5306 133.819 55.5306Z" fill="currentColor"/>
<path d="M146.786 55.1754C146.786 55.1754 146.801 55.1754 146.809 55.1599C146.608 55.2371 146.601 55.2371 146.786 55.1754Z" fill="currentColor"/>
<path d="M135.792 54.8277C135.846 54.8277 135.9 54.8354 135.931 54.8277C135.777 54.7659 135.623 54.7041 135.453 54.6423C135.576 54.7041 135.684 54.7659 135.8 54.8277H135.792Z" fill="currentColor"/>
<path d="M135.015 54.905C134.791 54.9668 133.889 54.851 132.463 54.5652C133.172 55.0286 132.586 55.0132 131.831 54.7197C132.124 54.9977 131.862 54.99 131.499 54.7274C130.86 54.9514 130.127 54.9282 129.988 54.4262C128.277 54.8587 127.19 54.8201 126.805 53.677C124.677 54.7351 123.258 54.6888 121.192 53.2986C120.121 54.5807 118.409 54.5189 115.919 54.0632C114.748 54.3953 112.79 54.3335 110.731 54.264C108.804 54.1945 106.792 54.1327 108.573 53.4994C102.621 53.986 100.47 53.9164 94.8968 47.645C95.66 51.638 94.9585 52.9896 93.0312 53.2986C100.617 54.8278 102.845 54.8973 108.665 55.0054C106.769 55.0363 108.781 55.1059 110.708 55.1754C112.766 55.2449 114.717 55.3144 115.75 55.0054C118.386 55.438 120.098 55.4997 121.054 54.3335C123.235 55.6002 124.654 55.6465 126.936 54.712C127.167 55.7392 128.254 55.7778 130.119 55.3916C130.104 55.8396 130.844 55.8627 131.546 55.6619C131.846 55.9014 132.108 55.9091 131.854 55.6697C132.579 55.9168 133.165 55.9323 132.424 55.6001C133.404 55.8164 134.282 55.8936 134.552 55.8627C134.776 55.8396 134.575 55.7314 133.835 55.5229C133.673 55.4843 133.511 55.4457 133.326 55.3993C133.481 55.438 133.627 55.4766 133.774 55.5075C133.635 55.4689 133.481 55.4302 133.311 55.3762C133.681 55.4689 133.997 55.5461 134.267 55.6156C135.084 55.7932 135.647 55.8705 135.809 55.8473C136.032 55.8164 135.531 55.5847 133.997 55.1367C137.451 55.994 138.067 56.0327 135.801 54.8201C135.462 54.7737 134.699 54.5189 133.642 54.0786C134.791 54.5884 135.246 54.8433 135.022 54.905H135.015Z" fill="currentColor"/>
<path d="M32.043 50.7963C32.0815 50.8658 32.1355 50.9353 32.1894 50.9971C32.2049 50.8967 32.2203 50.7963 32.2511 50.6804C32.1817 50.719 32.1124 50.7577 32.043 50.7963Z" fill="currentColor"/>
<path d="M145.662 54.8972C143.91 55.8034 143.91 55.8034 145.662 54.8972Z" fill="currentColor"/>
<path d="M26.832 50.1939C26.832 50.2711 26.8397 50.3406 26.8552 50.3947C26.8783 50.0008 26.9245 49.5142 26.9939 48.9041C26.9322 49.4447 26.8783 49.8618 26.8397 50.1861L26.832 50.1939Z" fill="currentColor"/>
<path d="M26.9254 48.4792C26.671 50.9199 26.6093 51.9393 26.8329 50.1861C26.8098 49.8231 26.8406 49.2593 26.9254 48.4792Z" fill="currentColor"/>
<path d="M28.6055 50.3715C28.6286 52.2637 29.6539 52.1402 32.0514 50.7963C31.9204 50.58 31.851 50.3097 31.8587 49.9622C30.0162 51.0589 28.9909 51.3369 28.6132 50.3638L28.6055 50.3715Z" fill="currentColor"/>
<path d="M28.6843 49.1896C28.5995 49.3364 28.5224 49.4754 28.4453 49.6067C28.4684 49.9156 28.5224 50.1628 28.6072 50.3636C28.6072 50.0315 28.6303 49.6453 28.6843 49.1819V49.1896Z" fill="currentColor"/>
<path d="M26.8579 50.3946C26.7731 52.0938 27.2048 51.7926 28.446 49.6146C28.4229 49.352 28.4229 49.0585 28.4383 48.7109C27.4515 50.5337 26.9736 51.1129 26.8579 50.3946Z" fill="currentColor"/>
<path d="M140.387 54.3721C140.41 54.3335 140.425 54.2794 140.441 54.2176C140.417 54.1636 140.402 54.1172 140.379 54.0554C140.379 54.1635 140.379 54.2717 140.379 54.3644L140.387 54.3721Z" fill="currentColor"/>
<path d="M142.809 55.716C142.809 55.716 143.194 55.3685 144.003 54.6348C143.24 55.3299 142.839 55.6852 142.809 55.716Z" fill="currentColor"/>
<path d="M144.335 54.3335C144.22 54.4416 144.104 54.542 144.004 54.6347C144.112 54.542 144.22 54.4416 144.335 54.3335Z" fill="currentColor"/>
<path d="M145.66 54.8974C145.706 54.8742 145.737 54.8511 145.783 54.8279C145.737 54.8511 145.699 54.8665 145.66 54.8897V54.8974Z" fill="currentColor"/>
<path d="M143.325 55.2449C143.325 55.2449 143.309 55.2603 143.294 55.268C142.947 55.5847 142.777 55.7392 142.808 55.716C142.808 55.716 142.986 55.5461 143.325 55.2449Z" fill="currentColor"/>
<path d="M145.668 54.8972C145.707 54.8741 145.745 54.8586 145.791 54.8354C145.745 54.8586 145.714 54.8741 145.668 54.8972Z" fill="currentColor"/>
<path d="M144.004 54.6346C144.004 54.6346 144.042 54.6192 144.066 54.6192C144.158 54.5265 144.251 54.4261 144.351 54.3257C144.227 54.4338 144.112 54.5419 144.004 54.6346Z" fill="currentColor"/>
<path d="M144.003 54.6348H143.987C143.725 54.8742 143.509 55.075 143.332 55.2372C143.517 55.075 143.733 54.8742 144.01 54.6348H144.003Z" fill="currentColor"/>
<path d="M142.87 52.2559C141.821 55.2449 141.143 55.214 141.174 52.0938C141.143 55.214 141.143 55.2758 141.174 52.1864C141.074 55.2681 140.989 55.2681 140.534 52.1864C140.565 53.1905 140.549 53.8547 140.449 54.21C141.174 56.164 141.405 56.1177 142.353 54.0632C141.875 56.0173 142.045 56.164 143.772 54.6811C142.955 54.7892 142.777 54.0555 142.878 52.2482L142.87 52.2559Z" fill="currentColor"/>
<path d="M138.499 52.4104C139.786 55.1677 139.323 55.1599 135.908 52.9974C138.121 55.1368 137.612 55.1368 134.312 53.7157C135.7 54.4339 136.14 54.7815 135.924 54.8201C138.429 55.801 139.2 55.9632 138.375 55.1059C138.121 54.9128 137.805 54.6656 137.419 54.3721C137.666 54.5421 137.882 54.6965 138.09 54.8278C137.913 54.6579 137.689 54.4648 137.435 54.2486C137.812 54.5575 138.121 54.8124 138.375 55.0209C139.979 56.0481 140.395 55.8937 140.38 54.3721C140.148 54.8433 139.601 54.1791 138.491 52.4104H138.499Z" fill="currentColor"/>
<path d="M138.383 55.1136C139.416 55.9014 139.416 55.8705 138.383 55.0286C138.29 54.9668 138.198 54.905 138.098 54.8433C138.206 54.9437 138.298 55.0363 138.383 55.1213V55.1136Z" fill="currentColor"/>
<path d="M143.819 54.681C142.639 55.8317 142.454 56.0171 143.302 55.2679C143.479 55.1057 143.711 54.8972 143.988 54.6423C143.927 54.6578 143.873 54.6732 143.819 54.681Z" fill="currentColor"/>
<path d="M144.335 54.3257C144.212 54.4415 144.096 54.5497 143.98 54.6501C144.088 54.5497 144.204 54.4415 144.335 54.3257Z" fill="currentColor"/>
<path d="M143.766 54.6887C143.766 54.6887 143.796 54.6887 143.82 54.6887C143.943 54.5729 144.066 54.4493 144.205 54.3103C144.043 54.4493 143.904 54.5729 143.766 54.6965V54.6887Z" fill="currentColor"/>
<path d="M150.472 54.0863C148.368 53.3603 147.705 53.0437 143.896 50.9043C144.721 52.2018 145.384 52.9973 146.078 53.5766C146.024 53.6075 145.962 53.6461 145.908 53.677C145.577 53.4994 145.184 53.2754 144.683 52.9973C144.945 53.4144 145.176 53.7233 145.4 53.9782C144.852 54.2949 144.413 54.5034 144.066 54.6115C142.57 56.1794 142.933 56.1176 145.762 54.6811C143.025 56.1871 142.987 56.2721 145.662 54.8896C145.708 54.8046 145.816 54.6733 145.978 54.5189C146.17 54.6579 146.371 54.7815 146.587 54.8973C145.862 55.1058 145.554 55.1213 145.654 54.8973C143.01 56.2798 143.734 56.2798 146.849 55.1367C146.833 55.1367 146.818 55.1522 146.803 55.1599C146.849 55.1445 146.903 55.1213 146.965 55.0981C146.887 55.129 146.818 55.1522 146.772 55.1676C144.644 56.1485 144.675 56.2952 146.88 55.8627C146.849 55.8936 146.818 55.9245 146.787 55.9477C145.831 56.1948 145.793 56.2257 146.672 56.0635C146.672 56.0635 146.656 56.079 146.648 56.0867C146.222 56.1742 146.222 56.1742 146.648 56.0867C146.648 56.0867 146.61 56.1253 146.594 56.1408C146.34 56.2026 146.325 56.2257 146.541 56.1948C145.862 56.8668 145.446 57.3456 144.744 58.0794C145.276 57.6623 146.541 57.1757 147.728 56.7895C146.263 58.2184 145.454 59.1684 144.02 60.659C145.176 59.7476 148.175 58.6586 150.68 57.8863C151.289 56.9904 163.315 56.5192 163.315 56.5192C163.315 56.5192 151.351 55.2217 150.464 54.0863H150.472ZM146.086 53.7774C146.086 53.7774 146.078 53.7774 146.07 53.7697C146.109 53.7388 146.155 53.7079 146.201 53.677C146.201 53.677 146.209 53.677 146.217 53.6847C146.17 53.7156 146.124 53.7465 146.086 53.7774ZM146.224 53.6925C146.271 53.7311 146.317 53.7697 146.371 53.8083C146.332 53.8315 146.302 53.8546 146.271 53.8701C146.217 53.8392 146.163 53.816 146.101 53.7851C146.14 53.7542 146.186 53.7233 146.224 53.6925ZM146.371 53.8083C146.425 53.8469 146.479 53.8855 146.541 53.9319C146.517 53.9473 146.494 53.9628 146.463 53.9782C146.402 53.9473 146.34 53.9164 146.271 53.8778C146.302 53.8546 146.332 53.8315 146.371 53.816V53.8083ZM146.602 53.9782C146.726 54.0632 146.849 54.1404 146.972 54.2254C146.841 54.1636 146.702 54.1018 146.548 54.0246C146.564 54.0091 146.579 53.9937 146.602 53.9859V53.9782ZM147.196 55.2062C146.934 55.2835 146.918 55.2835 147.157 55.1908C147.173 55.1908 147.18 55.2062 147.196 55.2062ZM147.211 55.214C147.062 55.2655 147.062 55.2655 147.211 55.214ZM147.288 55.2526C147.288 55.2526 147.335 55.2758 147.365 55.2912C147.25 55.3067 147.219 55.2912 147.288 55.2526ZM146.109 53.5998C146.109 53.5998 146.17 53.6461 146.201 53.6693C146.155 53.7002 146.109 53.7311 146.07 53.762C146.039 53.7465 146.001 53.7233 145.962 53.7079C146.009 53.677 146.063 53.6384 146.109 53.5998ZM145.484 54.0709C145.484 54.0709 145.523 54.1172 145.546 54.1404C145.407 54.2408 145.284 54.3258 145.168 54.403C145.276 54.3258 145.407 54.2408 145.546 54.1404C145.407 54.2331 145.276 54.3258 145.168 54.3953C144.837 54.627 144.621 54.7815 144.544 54.8355C144.606 54.7892 144.821 54.6424 145.161 54.3953C144.12 55.0981 144.228 54.9977 145.477 54.0632L145.484 54.0709ZM145.569 54.1636C145.569 54.1636 145.631 54.2254 145.662 54.2563C144.313 55.1136 144.289 55.0904 145.569 54.1636ZM145.685 54.2717C145.685 54.2717 145.762 54.3412 145.8 54.3721C144.544 55.1136 144.474 55.0904 145.685 54.2717ZM146.756 54.99C146.756 54.99 146.787 55.0054 146.795 55.0132C146.217 55.2294 146.201 55.2294 146.756 54.99ZM146.81 55.0209C146.44 55.1651 146.44 55.1651 146.81 55.0209ZM146.88 55.0518C146.88 55.0518 146.934 55.0749 146.957 55.0904C146.479 55.2526 146.448 55.2449 146.88 55.0518ZM147.026 55.1213C147.026 55.1213 147.065 55.1445 147.088 55.1522C146.687 55.2758 146.664 55.268 147.026 55.1213Z" fill="currentColor"/>
<path d="M207.655 45.172C209.112 46.7012 208.649 46.6626 206.722 45.5813C207.67 46.5699 207.161 46.5236 205.797 45.9366C206.722 46.5236 206.228 46.5236 204.841 46.2687C204.363 46.5236 202.991 46.5236 201.534 46.2455C199.73 46.5236 197.918 46.5236 196.407 45.365C193.817 46.5313 191.52 46.5313 188.683 45.0793C186.524 46.5313 183.818 46.5313 180.719 46.2996C178.098 46.5313 175.076 46.5313 171.939 46.5313C168.801 46.5313 165.54 46.5313 166.396 43.0557C161.377 45.3728 158.186 46.1451 154.547 44.3919C152.728 43.5191 150.793 42.0131 148.935 40.0204C148.488 41.4493 148.287 42.7159 147.909 43.6659C147.532 44.6159 146.969 45.2337 146.267 45.6354C145.566 46.037 144.726 46.2146 143.854 46.2532C142.96 46.2687 142.027 46.1528 141.434 46.6394C139.437 46.3382 137.911 46.4309 138.281 47.2187C136.276 45.9366 135.035 46.2301 134.064 47.6048C133.316 45.8748 132.831 45.2183 132.106 46.9715C130.926 44.7858 129.284 45.365 127.48 46.1297C126.139 46.0524 124.62 46.1528 123.04 46.0679C121.467 45.9829 119.833 45.7049 118.021 45.2955C117.004 45.9134 115.593 46.2223 114.013 46.3768C112.432 46.5313 110.675 46.5313 109.48 45.9057C105.548 46.5313 102.318 46.5313 99.142 44.2529C96.3514 46.5313 93.6223 46.5313 90.7315 45.9829C88.7734 46.5313 86.6611 46.5313 84.9188 46.5313H79.4531V45.1797H84.9188C86.6611 45.1797 88.7734 45.1797 91.0013 44.9248C93.6223 45.1797 96.3514 45.1797 99.2114 43.5655C102.318 45.1874 105.548 45.1874 109.195 44.8707C110.675 45.1874 112.432 45.1874 114.059 45.0407C115.686 44.8939 117.189 44.6004 118.399 44.0057C120.08 44.3996 121.629 44.6622 123.14 44.7472C124.651 44.8321 126.116 44.7317 126.987 45.4423C129.138 44.0752 130.703 43.5191 131.366 46.6317C132.669 43.9362 133.231 44.5618 133.871 47.3422C134.951 44.9171 136.115 44.6468 138.158 47.0179C137.996 45.1256 139.622 45.0638 141.904 46.1374C142.189 44.9557 143.107 45.0252 144.225 45.3264C144.864 44.9325 145.697 44.7703 146.437 44.4073C147.169 44.0366 147.809 43.4728 148.318 42.6232C148.827 41.7736 149.205 40.6306 149.644 39.2095C151.44 41.1326 153.159 42.4842 154.801 43.2643C158.093 44.8244 161.076 44.083 165.478 41.8663C165.555 45.1874 168.809 45.1874 171.954 45.1874C175.099 45.1874 178.113 45.1874 180.881 45.087C183.834 45.1874 186.532 45.1874 188.806 44.0907C191.527 45.1874 193.825 45.1874 196.222 44.3301C197.926 45.1874 199.73 45.1874 201.379 45.0484C202.998 45.1874 204.363 45.1874 205.087 45.0484C206.228 45.1874 206.722 45.1874 206.151 44.7549C207.231 45.1874 207.77 45.2415 207.254 44.3919C208.803 45.3342 209.297 45.3805 208.271 43.9903C209.651 45.365 209.705 46.7166 207.801 45.1179C209.643 46.7244 209.582 46.7244 207.655 45.1951V45.172Z" fill="currentColor"/>
<path d="M205.906 48.9024C207.248 49.443 208.35 49.4508 208.974 48.8638C209.599 48.2768 209.753 47.0951 209.206 45.2415C213.692 46.8866 215.388 45.8517 214.124 42.1444C215.388 45.8517 213.646 44.8939 210.771 42.1367C210.169 42.9863 208.427 42.0286 208.219 41.7737C208.427 42.0286 208.473 44.0135 207.178 44.9171C207.872 46.4541 208.227 47.713 208.072 48.4622C207.918 49.2113 207.255 49.4353 205.906 48.8947V48.9024Z" fill="currentColor"/>
</svg>
