<svg width="143" height="143" viewBox="0 0 143 143" fill="none" xmlns="http://www.w3.org/2000/svg">
<g clip-path="url(#clip0_675_7519)">
<path d="M30.5987 94.4905L25.3084 90.0232C23.2249 88.2633 19.8354 85.4321 19.3456 85.1072C19.0968 85.0685 18.8753 84.937 18.7004 84.7281C18.5099 84.5038 18.4244 84.2369 18.4555 83.9623C18.4827 83.6838 18.6148 83.4479 18.8481 83.2545C19.0813 83.0572 19.3378 82.9721 19.6099 82.9953C19.882 83.0186 20.1191 83.1501 20.3135 83.3821C20.4806 83.5794 20.57 83.7999 20.5778 84.0319C20.986 84.5657 23.9324 87.6406 25.7709 89.532L30.5948 94.4944L30.5987 94.4905ZM19.5283 83.6684C19.4739 83.6684 19.3961 83.6838 19.2912 83.7728C19.1668 83.8772 19.1435 83.97 19.1396 84.0319C19.1318 84.1248 19.159 84.206 19.229 84.2911C19.3301 84.411 19.4272 84.4342 19.4894 84.438C19.5711 84.4458 19.6643 84.4535 21.0909 85.6139C19.8859 84.3104 19.8937 84.2098 19.9015 84.0977C19.9053 84.0358 19.9015 83.9391 19.7965 83.8192C19.6954 83.6993 19.6099 83.6761 19.5555 83.6722C19.5477 83.6722 19.54 83.6722 19.5283 83.6722V83.6684Z" fill="currentColor"/>
<path d="M24.7321 80.7675C24.701 80.7675 24.6699 80.7675 24.6388 80.7636C24.3589 80.7404 24.1101 80.605 23.9158 80.3768C23.7396 80.168 24.8927 78.987 27.3753 76.8339C29.4277 75.0547 32.0864 72.7727 34.6558 70.568C38.1308 67.5859 41.7147 64.5071 42.2239 64.0159C42.2744 63.7916 42.3988 63.5905 42.5971 63.428C42.8303 63.2308 43.0868 63.1457 43.3589 63.1689L43.5844 63.1882L43.6544 63.4048C43.7088 63.5724 42.943 64.3421 41.3571 65.7139C40.0083 66.8781 38.1736 68.4562 36.23 70.1271C32.1564 73.6236 26.6795 78.3308 25.6922 79.2822C25.7699 79.4447 25.8049 79.6149 25.7932 79.7967C25.7738 80.0751 25.6416 80.3188 25.4162 80.5083C25.2063 80.6824 24.9769 80.7714 24.7321 80.7714V80.7675ZM24.7126 80.0906C24.7787 80.0906 24.8681 80.0829 24.9808 79.9901C25.0664 79.9166 25.1091 79.8431 25.1169 79.7502C25.1169 79.7425 25.1169 79.7348 25.1169 79.727C24.9536 79.874 24.8215 79.9939 24.7165 80.0945L24.7126 80.0906ZM22.1899 77.5224C22.1238 77.5224 22.0811 77.4953 22.0305 77.4644L21.8284 77.3329L21.8789 77.0853C22.0344 76.4549 22.0383 76.1145 22.015 75.9443C22.0033 75.8476 21.9956 75.689 21.9839 75.4183C21.9684 75.0508 21.9373 74.1883 21.8479 74.0143C21.6535 73.7899 21.4047 73.6623 21.1054 73.6546C20.7867 73.6468 20.4913 73.7629 20.1881 74.0143C19.9665 74.1999 19.8227 74.4397 19.7488 74.7491C19.6711 75.0702 19.6866 75.3796 19.7916 75.6968L19.8965 76.0101L18.159 76.6366L18.0424 76.3156C17.8053 75.6581 17.7742 74.9812 17.9491 74.2966C18.0385 73.67 17.3116 65.4741 16.7985 60.1056L16.3438 55.3094L17.471 59.9934C18.4622 64.1126 20.1492 70.7189 20.674 71.8057C21.1249 71.7361 21.568 71.7787 21.9956 71.9295C22.4853 72.1036 22.9207 72.413 23.29 72.85C23.5504 73.1595 23.6437 73.9098 23.7409 74.9348C23.7486 74.9967 23.7525 75.0586 23.7603 75.1166C25.0586 74.2734 29.3966 70.9471 32.961 68.2164C37.9792 64.3718 40.4203 62.5229 41.6564 61.6643C41.6292 61.5444 41.6564 61.4245 41.7341 61.3317C41.878 61.1537 42.0995 61.1653 42.3172 61.1769C42.3405 61.1769 42.3638 61.1769 42.3911 61.1769C42.8692 60.8946 42.9547 60.9449 43.0713 61.0222L43.2734 61.1499L43.2268 61.4013C43.1374 61.7494 42.8342 61.8383 42.5699 61.8538C42.5543 61.8654 42.5349 61.877 42.5193 61.8886C42.5854 61.9853 42.6748 62.1014 42.7914 62.2329L43.0169 62.492L38.9627 65.8957L38.7411 65.6404C38.6906 65.5824 38.6012 65.4818 38.5467 65.3581C37.1668 66.2941 33.3691 69.2143 30.2284 71.6317C23.6048 76.7256 22.5475 77.5146 22.1899 77.5146V77.5224ZM21.0782 72.9777C21.0782 72.9777 21.1132 72.9777 21.1326 72.9777C21.6302 72.9932 22.0539 73.202 22.392 73.6004C22.5786 73.8247 22.6292 74.3121 22.668 75.3951C22.6758 75.5885 22.6836 75.7857 22.6913 75.8515C22.7147 76.0333 22.7147 76.2499 22.6836 76.5013C22.8857 76.3582 23.1306 76.1802 23.4143 75.9714C23.3988 75.9675 23.3794 75.9598 23.3638 75.952L23.185 75.8824L23.1422 75.6852C23.115 75.5305 23.0917 75.2829 23.0645 74.9967C23.0217 74.5403 22.9168 73.4689 22.7691 73.2794C22.4737 72.9313 22.1472 72.6953 21.7701 72.5638C21.3969 72.4323 21.0199 72.413 20.6156 72.5019C20.2114 72.5948 20.0054 72.6412 18.3378 66.2438C18.1901 65.6714 18.0424 65.0951 17.8986 64.5381C18.2834 68.7734 18.7265 74.0104 18.6138 74.4513C18.5011 74.8961 18.4933 75.3255 18.5905 75.7548L19.0647 75.5846C19.0025 75.2558 19.0103 74.9193 19.0919 74.5906C19.2008 74.1419 19.4223 73.7745 19.7566 73.496C20.1686 73.1517 20.6118 72.9777 21.0743 72.9777H21.0782ZM39.0676 64.4182C39.0676 64.4182 39.0754 64.4182 39.0793 64.422L39.2542 64.4801L39.3086 64.6657C39.3086 64.6657 39.3164 64.7005 39.3203 64.716L42.0606 62.4185C42.0257 62.3721 41.9907 62.3257 41.9596 62.2831C41.2521 62.786 40.2337 63.5402 39.0676 64.422V64.4182Z" fill="currentColor"/>
<path d="M29.9491 76.4084C29.918 76.4084 29.8908 76.4084 29.8597 76.4046C29.5798 76.3814 29.3311 76.246 29.1367 76.0178C28.9605 75.8089 30.1124 74.6292 32.5923 72.4787C34.6408 70.6995 37.2996 68.4214 39.8689 66.2128C43.344 63.2308 46.9356 60.1481 47.4448 59.6569C47.4954 59.4325 47.6198 59.2353 47.818 59.069C48.0512 58.8756 48.3117 58.7866 48.5799 58.8098L48.8053 58.8292L48.8753 59.0458C48.9297 59.2134 48.1652 59.9831 46.5819 61.3549C45.237 62.5191 43.4023 64.0971 41.4548 65.7642C37.7854 68.9165 32.9732 73.0473 31.3329 74.5325C33.463 74.3856 39.3636 73.8015 43.4606 73.3761L56.1169 72.0571L43.55 74.0491C38.6717 74.8226 31.3057 76.0139 30.5827 76.1957C30.3922 76.3388 30.1746 76.4123 29.9491 76.4123V76.4084ZM29.9336 75.7316C29.9919 75.7316 30.0851 75.7238 30.1979 75.631C30.2523 75.5885 30.3184 75.5304 32.8605 75.0934C31.4262 75.2094 30.8004 75.2287 30.5088 75.2094C30.2678 75.4221 30.0735 75.6001 29.9336 75.7316ZM27.4031 73.1595C27.3409 73.1595 27.2981 73.1324 27.2515 73.1053L27.0493 72.9738L27.1038 72.7263C27.2592 72.0958 27.2631 71.7554 27.2398 71.5853C27.2281 71.4886 27.2204 71.33 27.2087 71.0592C27.1932 70.6918 27.1621 69.8293 27.0766 69.6552C26.8822 69.4309 26.6334 69.3032 26.3341 69.2955C26.0076 69.2878 25.72 69.4038 25.4207 69.6552C25.1991 69.8409 25.0553 70.0807 24.9814 70.3901C24.9037 70.7111 24.9192 71.0206 25.0242 71.3377L25.1291 71.651L23.3916 72.2776L23.275 71.9566C23.0379 71.299 23.0068 70.6183 23.1817 69.9298C23.3566 69.2414 23.7103 68.6728 24.2273 68.2396C24.686 67.8567 25.1797 67.6014 25.6928 67.4854C26.2175 67.3693 26.7345 67.3964 27.2243 67.5705C27.714 67.7445 28.1494 68.0539 28.5187 68.491C28.783 68.8004 28.8724 69.5508 28.9696 70.5758C28.9734 70.6299 28.9812 70.6802 28.9851 70.7305C30.2717 69.8061 34.4387 66.3211 37.8671 63.4551C47.0561 55.7736 47.1067 55.8084 47.4448 56.0134L47.6547 56.141L47.6042 56.4002C47.4993 56.8102 47.5148 57.0345 47.5459 57.1544C47.577 57.2782 47.6858 57.5025 48.0162 57.8815L48.2417 58.1407L46.8268 59.3475L46.6052 59.0922C46.5547 59.0342 46.4731 58.9375 46.4148 58.8214C44.8871 59.8773 40.3937 63.3739 36.6776 66.267C28.9268 72.2969 27.7723 73.1711 27.4031 73.1711V73.1595ZM26.2991 68.6186C26.2991 68.6186 26.3341 68.6186 26.3536 68.6186C26.855 68.6341 27.2787 68.843 27.613 69.2452C27.7995 69.4696 27.8501 69.9569 27.8889 71.0399C27.8967 71.2333 27.9045 71.4305 27.9123 71.4963C27.9356 71.6742 27.9356 71.8869 27.9084 72.1306C28.1027 71.9914 28.3437 71.8135 28.6197 71.6085C28.6119 71.6085 28.6042 71.6007 28.5925 71.6007L28.4059 71.535L28.3632 71.3339C28.336 71.1791 28.3126 70.9316 28.2854 70.6454C28.2427 70.189 28.1377 69.1176 27.99 68.9319C27.6985 68.5877 27.3642 68.3479 26.991 68.2164C26.6179 68.0849 26.2408 68.0617 25.8366 68.1545C25.4284 68.2473 25.0319 68.4523 24.6588 68.7656C24.2468 69.1098 23.9786 69.5469 23.8347 70.1039C23.722 70.5487 23.7142 70.978 23.8114 71.4073L24.2856 71.2372C24.2234 70.9084 24.2312 70.5719 24.3128 70.2431C24.4217 69.7945 24.6432 69.427 24.9775 69.1485C25.3896 68.8043 25.8327 68.6302 26.2991 68.6302V68.6186ZM46.8384 56.9649C45.4508 58.0014 41.6842 61.146 38.3024 63.9772C37.2685 64.8398 36.3511 65.6095 35.5309 66.2902C35.7758 66.1007 36.0168 65.9112 36.2578 65.7255C46.5353 57.7268 46.6208 57.7539 46.9395 57.8622L47.1144 57.9202L47.1689 58.1059C47.1689 58.1059 47.1766 58.1368 47.1805 58.1484L47.2816 58.0595C47.0717 57.7849 46.9395 57.545 46.8851 57.3246C46.854 57.2163 46.8384 57.0964 46.8384 56.9649Z" fill="currentColor"/>
<path d="M34.328 72.7533C34.2969 72.7533 34.2658 72.7533 34.2347 72.7495C33.9549 72.7263 33.7061 72.5909 33.5117 72.3627C33.3355 72.1538 34.4887 70.9729 36.9712 68.8198C39.0236 67.0406 41.6824 64.7585 44.2517 62.55C47.7229 59.5679 51.3107 56.493 51.8199 55.9979C51.8704 55.7736 51.9948 55.5725 52.193 55.41C52.4262 55.2166 52.6828 55.1277 52.9549 55.1509L53.1803 55.1702L53.2503 55.3868C53.3047 55.5544 52.5403 56.3241 50.9569 57.6959C49.612 58.8601 47.7773 60.4382 45.8299 62.1052C41.7562 65.6056 36.2754 70.3089 35.2881 71.2642C35.3659 71.4267 35.4008 71.5969 35.3892 71.7787C35.3697 72.0571 35.2376 72.3008 35.0121 72.4903C34.8022 72.6644 34.5729 72.7533 34.328 72.7533ZM34.3086 72.0765C34.3708 72.0803 34.4641 72.0687 34.5768 71.9759C34.6623 71.9024 34.7051 71.8289 34.7128 71.7361C34.7128 71.7284 34.7128 71.7206 34.7128 71.7129C34.5496 71.8599 34.4174 71.9798 34.3125 72.0803L34.3086 72.0765ZM25.5938 67.2958L29.1504 64.3331L68.2117 41.4588L56.0801 51.577L25.5938 67.2958ZM61.5026 46.1736L35.1676 61.5947L55.7303 50.9929L61.4987 46.1736H61.5026Z" fill="currentColor"/>
<path d="M56.1443 104.699C56.0743 104.699 56.0043 104.691 55.9344 104.679C55.6428 104.629 55.4096 104.478 55.2502 104.25C55.0947 104.022 55.0403 103.755 55.0947 103.457C55.1492 103.159 55.2891 102.927 55.5107 102.773C55.7361 102.618 56.0004 102.564 56.2997 102.618C56.5563 102.664 56.7662 102.773 56.9217 102.947C57.5825 103.094 61.8233 103.566 64.4509 103.836L71.3505 104.552L64.416 104.513C61.6833 104.498 57.256 104.498 56.6729 104.56C56.5135 104.652 56.3347 104.699 56.1443 104.699ZM56.0821 103.275C55.9888 103.275 55.9344 103.303 55.9033 103.326C55.8605 103.357 55.7944 103.415 55.7672 103.573C55.74 103.732 55.7828 103.817 55.8177 103.871C55.8722 103.948 55.946 103.995 56.0549 104.014C56.2103 104.041 56.2959 103.999 56.3503 103.964C56.4164 103.918 56.498 103.863 58.3366 103.84C56.5718 103.612 56.5135 103.531 56.4436 103.438C56.4086 103.388 56.3425 103.318 56.1831 103.291C56.1443 103.283 56.1132 103.283 56.0821 103.283V103.275Z" fill="currentColor"/>
<path d="M50.2846 98.8158L49.9891 98.6457C49.3828 98.2937 48.9202 97.7947 48.6131 97.1604C48.2749 96.6228 42.4249 90.8094 38.565 87.0267L35.1172 83.6462L39.0043 86.5123C42.421 89.0341 47.9873 93.0141 49.0873 93.5131C49.3905 93.1727 49.7559 92.9213 50.1796 92.7627C50.6655 92.5809 51.2019 92.5422 51.7655 92.6389C52.1659 92.7085 52.7218 93.2268 53.4564 93.9501C53.5031 93.9927 53.5458 94.0391 53.5886 94.0778C54.0356 92.6002 55.2134 87.2781 56.1774 82.9075C57.5378 76.7499 58.2142 73.7755 58.6029 72.3251C58.5057 72.2516 58.4474 72.1394 58.4474 72.0195C58.4474 71.7913 58.6223 71.6598 58.7934 71.5283C58.8089 71.5167 58.8322 71.5013 58.8517 71.4819C59.0344 70.9598 59.1316 70.9443 59.2715 70.9288L59.5086 70.8979L59.6369 71.1222C59.7924 71.4471 59.6174 71.7062 59.427 71.888C59.4231 71.9074 59.4153 71.9267 59.4114 71.9461C59.5241 71.977 59.668 72.0079 59.8429 72.035L60.1849 72.0892L59.2754 77.2914L58.9411 77.2372C58.8633 77.2256 58.7312 77.2024 58.6107 77.1444C58.1598 78.7457 57.1375 83.4103 56.2901 87.2743C54.1755 96.9245 54.1483 96.9283 53.7713 96.9786L53.5342 97.0096L53.4137 96.7852C53.126 96.2012 52.9122 95.9421 52.7801 95.8222C52.7101 95.7564 52.6013 95.6404 52.4186 95.4392C52.1698 95.1646 51.5867 94.5264 51.4079 94.4491C51.1125 94.3988 50.8443 94.4645 50.6072 94.6502C50.3584 94.8436 50.2068 95.1259 50.1369 95.5089C50.0863 95.7912 50.133 96.0658 50.2768 96.352C50.4245 96.646 50.6344 96.8742 50.9182 97.0521L51.198 97.2262L50.269 98.8158H50.2846ZM49.2234 96.8587C49.4255 97.2726 49.6937 97.6052 50.0475 97.8721L50.3001 97.4389C50.0397 97.2262 49.8298 96.9632 49.6782 96.6576C49.4722 96.2437 49.4022 95.8183 49.4799 95.3967C49.5771 94.8513 49.8181 94.422 50.199 94.1203C50.5916 93.8109 51.0503 93.7026 51.5673 93.7915C51.8549 93.8418 52.2087 94.1861 52.9355 94.9867C53.0638 95.1298 53.1999 95.2768 53.2504 95.3232C53.3864 95.447 53.5264 95.6133 53.6663 95.826C53.7285 95.5901 53.8024 95.2961 53.884 94.9519C53.8684 94.9596 53.849 94.9635 53.8335 94.9712L53.6508 95.0331L53.4914 94.9093C53.3709 94.8088 53.1921 94.6347 52.9861 94.4336C52.6557 94.1126 51.886 93.3583 51.6528 93.3081C51.2097 93.2307 50.7938 93.2616 50.4245 93.397C50.0513 93.5363 49.7481 93.7606 49.4994 94.0855C49.2467 94.4143 49.1223 94.5844 43.7115 90.7476C43.2256 90.4033 42.7397 90.0591 42.2733 89.7226C45.3013 92.7202 49.029 96.4526 49.2234 96.8587ZM58.5912 76.0189L58.7545 76.1272C58.7545 76.1272 58.7817 76.1465 58.7934 76.1581L59.4075 72.6461C59.3492 72.6345 59.2948 72.6191 59.2443 72.6036C59.0266 73.439 58.7351 74.669 58.4086 76.0885C58.4124 76.0885 58.4163 76.0885 58.4202 76.0846L58.5912 76.0189ZM57.3279 98.0268C57.258 98.0268 57.188 98.0191 57.1142 98.0075C56.8447 97.9611 56.9652 96.3198 57.4757 93.0837C57.8955 90.4111 58.4591 86.961 59.0033 83.6308C59.7379 79.1247 60.4959 74.4679 60.5698 73.7639C60.4609 73.5589 60.4298 73.3269 60.4765 73.0716C60.5309 72.7738 60.6708 72.5417 60.8924 72.387L61.079 72.2593L61.2733 72.3793C61.4236 72.4721 61.3342 73.5512 61.0051 75.6166C60.7253 77.3726 60.3365 79.7513 59.9284 82.277C59.0694 87.5643 57.911 94.6695 57.7711 96.031C57.9343 96.1045 58.0743 96.2167 58.1792 96.3636C58.3425 96.588 58.4008 96.8626 58.3502 97.1488C58.2997 97.4428 58.1481 97.6826 57.9188 97.845C57.7439 97.9688 57.5456 98.0307 57.3318 98.0307L57.3279 98.0268ZM57.6078 96.7427C57.5767 96.9554 57.5534 97.1372 57.5378 97.2803C57.5884 97.2416 57.6506 97.1759 57.6778 97.0328C57.6972 96.9245 57.6778 96.8394 57.6234 96.762C57.6195 96.7543 57.6156 96.7504 57.6078 96.7427Z" fill="currentColor"/>
<path d="M51.4677 92.1438L51.1723 91.9737C50.5659 91.6217 50.1033 91.1189 49.7924 90.4807C49.4814 89.8386 49.3842 89.1811 49.5008 88.5197C49.6058 87.9318 49.8196 87.4212 50.1383 87.0035C50.4648 86.578 50.8769 86.2686 51.3666 86.0868C51.8525 85.905 52.3889 85.8625 52.9526 85.9631C53.3529 86.0327 53.9088 86.551 54.6473 87.2742C54.6862 87.3129 54.7212 87.3477 54.7562 87.3825C55.1449 85.8509 56.0855 80.5172 56.8591 76.131C58.9348 64.3728 58.997 64.3612 59.3896 64.3032L59.6306 64.2684L59.7588 64.4966C59.9415 64.8757 60.1009 65.0381 60.202 65.1077C60.3069 65.1812 60.5362 65.2857 61.0299 65.363L61.3681 65.4172L61.0649 67.2428L60.7306 67.1886C60.6567 67.177 60.5285 67.1577 60.4119 67.0997C59.9221 68.8866 58.7404 74.4408 57.7609 79.028C55.3703 90.2486 55.3392 90.2525 54.9661 90.3028L54.7251 90.3337L54.6046 90.1132C54.3169 89.5292 54.1031 89.2701 53.971 89.1501C53.901 89.0844 53.7922 88.9684 53.6095 88.7672C53.3607 88.4926 52.7776 87.8544 52.5988 87.7771C52.3034 87.7268 52.0352 87.7887 51.7981 87.9743C51.5493 88.1677 51.3977 88.4501 51.3278 88.833C51.2772 89.1153 51.3239 89.39 51.4638 89.6762C51.6115 89.9701 51.8214 90.1983 52.1052 90.3762L52.385 90.5503L51.456 92.14L51.4677 92.1438ZM50.4065 90.1867C50.6086 90.6006 50.8769 90.9371 51.2306 91.2001L51.4832 90.7669C51.2228 90.5542 51.0129 90.2912 50.8613 89.9856C50.6553 89.5717 50.5853 89.1463 50.6631 88.7247C50.7602 88.1793 51.0012 87.75 51.3822 87.4483C51.7748 87.1389 52.2373 87.0306 52.7504 87.1195C53.0381 87.1698 53.3918 87.5141 54.1187 88.3147C54.247 88.4578 54.383 88.6048 54.4335 88.6512C54.5696 88.7711 54.7017 88.9335 54.8378 89.1424C54.8961 88.9103 54.9661 88.6203 55.0477 88.2876C55.0399 88.2876 55.0321 88.2954 55.0205 88.2954L54.8378 88.3611L54.6745 88.2335C54.554 88.1329 54.3752 87.9589 54.1692 87.7577C53.8388 87.4367 53.0692 86.6786 52.8359 86.6322C52.3928 86.5548 51.9769 86.5858 51.6076 86.7212C51.2345 86.8604 50.9313 87.0847 50.6825 87.4096C50.4298 87.7384 50.2588 88.1522 50.1733 88.6319C50.08 89.1579 50.1577 89.6646 50.4065 90.1829V90.1867ZM59.545 65.4172C59.1486 67.0958 58.2973 71.9151 57.5354 76.2471C57.3022 77.5699 57.0923 78.7457 56.9057 79.79C56.9718 79.4883 57.034 79.1866 57.0962 78.8927C59.8016 66.1907 59.8871 66.1559 60.1981 66.036L60.3691 65.9703L60.5285 66.0786C60.5285 66.0786 60.5518 66.0979 60.5635 66.1056L60.5868 65.9741C60.2486 65.8968 59.992 65.7962 59.8094 65.6647C59.7161 65.5989 59.6267 65.5177 59.5411 65.421L59.545 65.4172ZM58.5111 91.3509C58.4411 91.3509 58.3711 91.3432 58.2973 91.3316C58.0278 91.2852 58.1483 89.6452 58.6588 86.4117C59.0786 83.7391 59.6422 80.2928 60.1864 76.9588C60.9211 72.4489 61.6829 67.792 61.7529 67.0881C61.6441 66.8831 61.613 66.651 61.6596 66.3957C61.714 66.0979 61.854 65.8658 62.0755 65.7111L62.2621 65.5835L62.4565 65.7034C62.6068 65.7962 62.5174 66.8753 62.1882 68.9408C61.9084 70.6967 61.5197 73.0755 61.1115 75.6012C60.338 80.3624 59.3196 86.6012 59.0242 88.7866C60.5596 87.3129 64.7032 83.0893 67.5641 80.142L76.4072 71.0371L68.0655 80.5984C64.8276 84.3115 59.9532 89.9353 59.5178 90.5348C59.4556 90.7978 59.3118 91.0144 59.1019 91.1614C58.927 91.2852 58.7287 91.3432 58.515 91.3432L58.5111 91.3509ZM58.822 89.8347C58.7754 90.1519 58.7404 90.4111 58.7171 90.6044C58.7676 90.5658 58.8298 90.5 58.857 90.3569C58.8687 90.2912 58.8842 90.2022 60.5479 88.2451C59.5256 89.2507 59.0592 89.6684 58.822 89.8347Z" fill="currentColor"/>
<path d="M49.9492 86.9146L50.7577 82.3699L65.9057 39.8663L63.1497 55.3724L49.9492 86.9146ZM63.8144 47.7644L53.6031 76.4173L62.5045 55.1442L63.8144 47.7644ZM59.4998 85.7465C59.4298 85.7465 59.3598 85.7387 59.2899 85.7271C59.0204 85.6807 59.1409 84.0382 59.6514 80.7995C60.0751 78.123 60.6348 74.6767 61.179 71.3388C61.9136 66.8367 62.6716 62.1837 62.7455 61.4797C62.6366 61.2747 62.6055 61.0427 62.6522 60.7874C62.7027 60.4896 62.8427 60.2575 63.0681 60.1028L63.2547 59.9713L63.449 60.0912C63.5993 60.184 63.5099 61.2631 63.1808 63.3285C62.901 65.0807 62.5161 67.4632 62.1041 69.9851C61.2412 75.2724 60.0867 82.3815 59.9468 83.7429C60.11 83.8164 60.25 83.9286 60.3549 84.0756C60.5182 84.2999 60.5765 84.5706 60.526 84.8607C60.4715 85.1547 60.3238 85.3945 60.0945 85.5569C59.9196 85.6768 59.7174 85.7387 59.4998 85.7387V85.7465ZM59.7835 84.4623C59.7524 84.6751 59.7291 84.8569 59.7136 85C59.7641 84.9613 59.8263 84.8955 59.8535 84.7524C59.8729 84.6441 59.8535 84.559 59.7991 84.4817C59.7952 84.474 59.7913 84.4701 59.7835 84.4623Z" fill="currentColor"/>
<path d="M96.8089 96.298C96.7195 96.298 96.6262 96.2863 96.5368 96.2593C96.2686 96.1819 96.0548 96.0117 95.9032 95.7526C95.7516 95.4896 95.7088 95.2227 95.7788 94.9636C95.8487 94.7005 96.0198 94.4917 96.2841 94.3408C96.5096 94.2093 96.7389 94.1629 96.9721 94.1939C97.5746 93.8844 101.127 91.5328 103.316 90.0591L109.061 86.1952L103.724 90.6006C101.617 92.3373 98.2276 95.1685 97.8234 95.5901C97.7418 95.8261 97.5746 96.0195 97.3375 96.1548C97.1665 96.2515 96.9877 96.3018 96.8089 96.3018V96.298ZM96.84 94.8591C96.7855 94.8591 96.7156 94.8746 96.6262 94.9249C96.4862 95.0061 96.4513 95.0835 96.4396 95.1376C96.424 95.1879 96.4163 95.2768 96.494 95.4122C96.5756 95.5515 96.665 95.5901 96.7233 95.6056C96.8166 95.6327 96.8983 95.6172 96.9954 95.5631C97.1354 95.4818 97.1704 95.3967 97.1859 95.3349C97.2053 95.2575 97.2325 95.1647 98.628 93.9695C97.1276 94.921 97.0304 94.8978 96.9177 94.8707C96.8944 94.8669 96.8672 94.8591 96.8361 94.8591H96.84Z" fill="currentColor"/>
<path d="M88.2974 95.3813C87.8115 95.3813 87.3373 95.2768 86.8786 95.0719C86.2722 94.8785 78.0355 94.1668 72.6364 93.7336L67.8125 93.3468L72.6441 93.0567C76.8927 92.8014 83.7262 92.2948 84.8884 91.9699C84.9001 91.5173 85.0167 91.088 85.2422 90.6935C85.4987 90.2448 85.8796 89.8696 86.3772 89.5834C86.7309 89.3784 87.4889 89.421 88.5228 89.506C88.585 89.5099 88.6472 89.5176 88.7055 89.5215C88.0953 88.102 85.557 83.275 83.4735 79.3066C80.5388 73.7214 79.1356 71.0101 78.4981 69.6486C78.3737 69.6525 78.261 69.6061 78.1832 69.5132C78.0316 69.3392 78.0822 69.1265 78.1327 68.9176C78.1366 68.8983 78.1443 68.8712 78.1482 68.8441C77.95 68.3258 78.0161 68.2523 78.1133 68.1518L78.2765 67.9777L78.5175 68.0667C78.8479 68.2137 78.879 68.527 78.8518 68.7861C78.8596 68.8054 78.8673 68.8248 78.879 68.8441C78.9878 68.7938 79.1161 68.7281 79.2677 68.6353L79.5631 68.4573L82.2297 73.0252L81.942 73.1954C81.8759 73.2341 81.7593 73.3037 81.6311 73.3347C82.3191 74.8509 84.5503 79.0784 86.3966 82.5788C91.0145 91.3239 90.9911 91.3471 90.7346 91.6218L90.5713 91.7958L90.3342 91.703C89.7356 91.44 89.4013 91.3781 89.2264 91.3703C89.1292 91.3703 88.9738 91.3471 88.7017 91.3085C88.3363 91.2582 87.4772 91.1421 87.2868 91.1963C87.0302 91.3471 86.8631 91.5676 86.8009 91.8616C86.7387 92.171 86.8009 92.4843 86.9952 92.8208C87.1391 93.0683 87.3528 93.2501 87.6444 93.3777C87.9476 93.5092 88.2546 93.5479 88.5889 93.5015L88.9154 93.4551L89.2303 95.2691L88.8921 95.3271C88.6939 95.3619 88.4956 95.3774 88.3013 95.3774L88.2974 95.3813ZM87.1507 94.453C87.5744 94.6425 87.9981 94.7237 88.4373 94.7005L88.3518 94.2055C88.0175 94.2132 87.6871 94.1436 87.3723 94.0082C86.9447 93.8225 86.6221 93.5402 86.4044 93.1689C86.1245 92.6893 86.0351 92.2058 86.1323 91.7339C86.2334 91.2466 86.5171 90.8675 86.968 90.6084C87.2207 90.4614 87.7143 90.5001 88.7911 90.6471C88.9815 90.6741 89.1798 90.7012 89.2497 90.7012C89.4363 90.7089 89.6462 90.7476 89.8911 90.8211C89.7861 90.6006 89.654 90.326 89.4946 90.0127C89.4868 90.0282 89.4791 90.0437 89.4674 90.0591L89.3702 90.2216L89.1681 90.2293C89.0126 90.2293 88.76 90.21 88.4723 90.1868C88.0136 90.1481 86.933 90.0669 86.7231 90.1752C86.3344 90.3995 86.0351 90.6857 85.8408 91.03C85.6464 91.3742 85.5609 91.7417 85.5803 92.1516C85.5998 92.5655 85.6114 92.7744 78.9917 93.2965C78.397 93.3429 77.8023 93.3893 77.227 93.4319C81.4834 93.7916 86.7465 94.2673 87.1624 94.453H87.1507ZM79.155 69.463C79.5282 70.2443 80.0996 71.3737 80.7681 72.6655C80.7681 72.6655 80.772 72.6578 80.7759 72.6539L80.8653 72.4953L81.0597 72.4721C81.0597 72.4721 81.0946 72.4721 81.1102 72.4721L79.3105 69.3895C79.2599 69.4166 79.2094 69.4398 79.1589 69.463H79.155ZM93.7626 90.3531C93.4983 90.3531 93.1213 89.7304 91.0339 86.2803C89.6307 83.9596 87.831 80.9581 86.0973 78.0573C83.7495 74.1353 81.3279 70.0857 80.9275 69.5016C80.7137 69.4127 80.5388 69.2541 80.4105 69.0336C80.2589 68.7706 80.2162 68.5037 80.2861 68.2446L80.3444 68.028L80.5699 67.9971C80.7461 67.9713 81.3745 68.8544 82.4551 70.6465C83.3764 72.1704 84.6163 74.2397 85.9302 76.4367C88.6861 81.0355 92.3905 87.2202 93.164 88.3534C93.3389 88.3032 93.5139 88.3032 93.6888 88.3457C93.9609 88.4153 94.1824 88.5855 94.3301 88.8369C94.4817 89.0961 94.5206 89.3745 94.4506 89.6453C94.3768 89.916 94.2019 90.1365 93.9414 90.2835C93.8754 90.3222 93.8248 90.3492 93.7665 90.3492L93.7626 90.3531ZM93.4983 88.9994C93.6149 89.1812 93.7121 89.3359 93.7898 89.4558C93.8054 89.3939 93.8093 89.3049 93.7354 89.1773C93.681 89.0806 93.611 89.0264 93.5216 89.0032C93.5139 89.0032 93.5061 89.0032 93.4983 88.9994Z" fill="currentColor"/>
<path d="M84.8907 89.5099C84.4048 89.5099 83.9267 89.4055 83.4642 89.1966C82.815 88.9027 82.3097 88.4617 81.9754 87.8777C81.6761 87.3594 81.509 86.8334 81.4856 86.3112C81.4584 85.7775 81.5789 85.2746 81.8355 84.8221C82.092 84.3734 82.4729 83.9983 82.9705 83.712C83.3242 83.507 84.0822 83.5496 85.1162 83.6347C85.1706 83.6385 85.2211 83.6424 85.2716 83.6463C84.5797 82.2268 81.8549 77.5351 79.6121 73.6789C73.6065 63.3441 73.6493 63.2976 73.9097 62.9998L74.073 62.818L74.3179 62.9109C74.7027 63.0849 74.9281 63.1081 75.0525 63.0965C75.1808 63.0849 75.4218 63.0192 75.8533 62.7639L76.1487 62.586L77.0971 64.1795L76.8056 64.3536C76.7395 64.3922 76.6307 64.458 76.5024 64.4928C77.2798 66.1714 79.9619 71.1841 82.1775 75.3266C87.5961 85.4526 87.5728 85.4758 87.3201 85.7504L87.1569 85.9283L86.9236 85.8355C86.325 85.5725 85.9908 85.5106 85.8158 85.5028C85.7187 85.5028 85.5632 85.4796 85.2911 85.441C84.9257 85.3907 84.0628 85.2746 83.8762 85.3288C83.6196 85.4796 83.4525 85.7001 83.3903 85.9941C83.3242 86.3035 83.3903 86.6168 83.5847 86.9533C83.7285 87.2008 83.9423 87.3826 84.2338 87.5102C84.537 87.6417 84.8441 87.6804 85.1784 87.634L85.5049 87.5876L85.8236 89.4016L85.4854 89.4596C85.2872 89.4944 85.089 89.5099 84.8907 89.5099ZM83.744 88.5816C84.1638 88.7712 84.5836 88.8524 85.0306 88.8292L84.9451 88.3341C84.6147 88.3418 84.2804 88.2722 83.9656 88.1368C83.538 87.9512 83.2154 87.6688 82.9977 87.2975C82.7178 86.8179 82.6284 86.3344 82.7256 85.8625C82.8267 85.3752 83.1065 84.9962 83.5613 84.737C83.814 84.59 84.3077 84.6287 85.3844 84.7757C85.5748 84.8028 85.7731 84.8298 85.843 84.8298C86.0257 84.8376 86.2318 84.8762 86.4689 84.9459C86.3639 84.7293 86.2318 84.4624 86.0763 84.1568C86.0724 84.1646 86.0685 84.1723 86.0607 84.18L85.9635 84.3502L85.7575 84.358C85.5982 84.358 85.3494 84.3386 85.0617 84.3154C84.6031 84.2806 83.5225 84.1916 83.3126 84.3038C82.9239 84.5281 82.6245 84.8144 82.4302 85.1586C82.2319 85.5028 82.1464 85.8703 82.1698 86.2803C82.1892 86.6941 82.3252 87.1196 82.5701 87.5412C82.8383 88.0053 83.2232 88.3457 83.7518 88.5816H83.744ZM74.7454 63.7618C75.5267 65.3012 77.9912 69.5364 80.199 73.3424C80.8754 74.5066 81.474 75.5393 82.0065 76.4599C81.8588 76.1891 81.715 75.9145 81.5711 75.6476C75.4373 64.1872 75.484 64.106 75.6434 63.8121L75.7328 63.6535L75.9232 63.6341C75.9232 63.6341 75.9543 63.6341 75.9699 63.6341L75.8999 63.5181C75.5928 63.6767 75.3285 63.7618 75.1069 63.7811C74.9942 63.7927 74.8737 63.785 74.7454 63.7657V63.7618ZM90.3559 84.4817C90.0916 84.4817 89.7146 83.859 87.6272 80.4128C86.224 78.0959 84.4281 75.0945 82.6906 72.1936C80.3428 68.2717 77.9173 64.2182 77.5169 63.6341C77.3031 63.5452 77.1282 63.3866 76.9999 63.1661C76.8483 62.9031 76.8056 62.6362 76.8756 62.3771L76.9339 62.1605L77.1593 62.1296C77.3355 62.1064 77.9639 62.9895 79.0445 64.779C79.9658 66.3029 81.2058 68.3722 82.5196 70.5692C85.0034 74.7116 88.253 80.142 89.4386 82.0063C89.664 79.8945 90.1111 74.0077 90.3987 69.9232L91.2927 57.2986L91.0789 69.9542C90.9973 74.8702 90.8962 82.2925 90.9507 83.0352C91.075 83.275 91.1023 83.5341 91.0362 83.7817C90.9623 84.0524 90.7874 84.2729 90.527 84.4198C90.4648 84.4585 90.4104 84.4856 90.3521 84.4856L90.3559 84.4817ZM89.9672 82.9307C90.1383 83.2015 90.2782 83.4258 90.387 83.5883C90.4026 83.5264 90.4065 83.4374 90.3326 83.3098C90.2976 83.2518 90.2549 83.1744 90.2665 80.61C90.1344 82.0334 90.045 82.6522 89.9711 82.9346L89.9672 82.9307Z" fill="currentColor"/>
<path d="M81.2815 86.3692L78.9648 82.3699L63.1094 40.1216L71.0157 53.7635L81.2776 86.3692H81.2815ZM66.6116 47.513L77.3011 75.9957L70.3782 54.0033L66.6116 47.513ZM87.4969 79.558C87.2326 79.558 86.8555 78.9353 84.7643 75.4852C83.3572 73.1645 81.5613 70.163 79.8238 67.2583C77.4799 63.3402 75.0544 59.2944 74.6579 58.7065C74.4441 58.6176 74.2692 58.459 74.1409 58.2385C73.9893 57.9755 73.9465 57.7086 74.0165 57.4495L74.0748 57.2329L74.3003 57.202C74.4765 57.1762 75.1049 58.0606 76.1855 59.8553C77.1067 61.3792 78.3467 63.4524 79.6644 65.6493C82.4165 70.2481 86.1209 76.4289 86.8944 77.5622C87.0693 77.5119 87.2442 77.5119 87.423 77.5545C87.6951 77.6241 87.9167 77.7943 88.0605 78.0457C88.2121 78.3048 88.251 78.5833 88.181 78.854C88.1072 79.1209 87.9322 79.3453 87.6718 79.4922C87.6096 79.5309 87.5552 79.558 87.4969 79.558ZM87.2326 78.2043C87.3492 78.386 87.4464 78.5408 87.5241 78.6607C87.5397 78.5988 87.5435 78.5098 87.4697 78.3822C87.4153 78.2855 87.3453 78.2313 87.2559 78.2081C87.2481 78.2081 87.2403 78.2081 87.2326 78.2043Z" fill="currentColor"/>
<path d="M122.59 63.8188C122.462 63.8188 122.326 63.7956 122.19 63.7453C121.902 63.6409 121.7 63.4668 121.583 63.2193C121.467 62.9717 121.463 62.7048 121.568 62.4186C121.657 62.175 121.801 61.9893 121.999 61.8655C122.26 61.2428 123.461 57.17 124.188 54.6404L126.092 48.0032L124.848 54.7951C124.359 57.4717 123.589 61.8075 123.55 62.3916C123.639 62.6236 123.636 62.8828 123.542 63.138C123.441 63.4127 123.255 63.6177 122.998 63.7337C122.866 63.7917 122.726 63.8226 122.582 63.8226L122.59 63.8188ZM123.126 60.6356C122.594 62.3258 122.504 62.3683 122.399 62.4186C122.345 62.4457 122.263 62.4998 122.209 62.6507C122.155 62.8015 122.178 62.8828 122.201 62.933C122.225 62.9833 122.271 63.053 122.423 63.1071C122.574 63.1613 122.668 63.1342 122.726 63.1071C122.812 63.0684 122.87 63.0027 122.909 62.8982C122.963 62.7513 122.936 62.6584 122.909 62.6004C122.874 62.5269 122.835 62.4418 123.13 60.6317L123.126 60.6356Z" fill="currentColor"/>
<path d="M99.1167 79.8741L102.631 76.5594C105.717 73.6469 110.626 68.8856 111.31 67.8955C111.027 67.5396 110.84 67.1374 110.758 66.6926C110.665 66.182 110.716 65.6521 110.914 65.1184C111.054 64.7354 111.66 64.2829 112.504 63.6873C112.554 63.6525 112.605 63.6138 112.651 63.5828C111.268 62.8866 106.203 60.8096 102.044 59.1039C96.1858 56.702 93.3599 55.5223 91.9917 54.888C91.8984 54.9692 91.7818 55.0079 91.6613 54.9885C91.4358 54.9537 91.3347 54.7565 91.2376 54.5631C91.2259 54.5437 91.2142 54.5205 91.2026 54.4973C90.7167 54.2266 90.7206 54.1299 90.7284 53.9906L90.74 53.7508L90.9849 53.6657C91.3347 53.569 91.5602 53.7856 91.704 54.0061C91.7234 54.0138 91.739 54.0254 91.7584 54.0332C91.809 53.9249 91.8634 53.7934 91.9217 53.6271L92.0344 53.3022L97.0254 55.0968L96.9127 55.414C96.8855 55.4875 96.8427 55.6151 96.765 55.7234C98.2732 56.4467 102.712 58.2568 106.389 59.7576C115.575 63.5055 115.571 63.5326 115.555 63.9077L115.543 64.1475L115.302 64.2249C114.677 64.4067 114.381 64.573 114.241 64.6774C114.164 64.7354 114.031 64.8205 113.798 64.9637C113.483 65.1609 112.749 65.6212 112.644 65.7836C112.543 66.0621 112.558 66.3406 112.702 66.6036C112.854 66.8821 113.102 67.0794 113.472 67.2147C113.744 67.3114 114.024 67.3153 114.327 67.2263C114.646 67.1335 114.906 66.9672 115.131 66.7196L115.353 66.476L116.768 67.6634L116.546 67.9225C116.092 68.4524 115.52 68.8199 114.84 69.0133C114.249 69.2531 107.482 73.9757 103.066 77.097L99.1206 79.8857L99.1167 79.8741ZM113.565 63.4513C113.565 63.4513 113.573 63.4861 113.577 63.5055L113.608 63.695L113.456 63.8304C113.336 63.9309 113.133 64.0741 112.896 64.2442C112.519 64.5111 111.641 65.1338 111.551 65.3543C111.396 65.7759 111.357 66.1859 111.427 66.5765C111.497 66.9672 111.672 67.2998 111.952 67.6015C112.236 67.9071 112.375 68.0579 107.645 72.6954C107.221 73.1132 106.794 73.527 106.378 73.9254C109.872 71.4771 114.21 68.4756 114.646 68.3519C115.089 68.2281 115.47 68.0192 115.788 67.7214L115.404 67.3965C115.147 67.617 114.852 67.7756 114.525 67.8723C114.082 68.0038 113.647 67.996 113.242 67.849C112.718 67.6595 112.337 67.3462 112.107 66.9246C111.87 66.4876 111.843 66.0157 112.022 65.5245C112.123 65.2499 112.523 64.9675 113.444 64.3912C113.608 64.2906 113.779 64.1823 113.829 64.1437C113.977 64.0315 114.164 63.9232 114.397 63.8265C114.175 63.7221 113.895 63.6022 113.569 63.4591L113.565 63.4513ZM92.3765 54.3194C93.1656 54.6791 94.3356 55.178 95.6805 55.7428C95.6805 55.7428 95.6805 55.735 95.6805 55.7311L95.6455 55.5532L95.7777 55.414C95.7777 55.414 95.8049 55.3908 95.8165 55.3792L92.4464 54.1685C92.4231 54.2227 92.3998 54.273 92.3765 54.3233V54.3194ZM116.884 61.0301C116.504 61.0301 115.473 60.6781 112.337 59.6106C109.763 58.7326 106.448 57.5838 103.245 56.4699C98.9145 54.9653 94.4405 53.4143 93.7564 53.2209C93.5348 53.2905 93.3016 53.2828 93.0567 53.1939C92.7691 53.0894 92.5669 52.9115 92.4503 52.6678L92.3532 52.4628L92.5048 52.2926C92.624 52.1611 93.6761 52.4358 95.6611 53.1165C97.348 53.6928 99.6375 54.4857 102.063 55.3289C107.147 57.0926 113.985 59.4597 115.306 59.8349C115.407 59.6841 115.54 59.5719 115.703 59.4907C115.955 59.3708 116.231 59.3592 116.511 59.4597C116.795 59.5603 117.005 59.7498 117.126 60.0012C117.242 60.2526 117.25 60.535 117.149 60.8173C117.102 60.945 117.071 61.0262 116.884 61.0262V61.0301ZM115.983 60.1134C116.189 60.1791 116.364 60.2333 116.504 60.2758C116.476 60.2217 116.418 60.1482 116.282 60.0979C116.177 60.0592 116.092 60.0592 116.006 60.1018C115.998 60.1018 115.99 60.1095 115.987 60.1134H115.983Z" fill="currentColor"/>
<path d="M107.503 66.8125C107.138 66.8125 106.784 66.7506 106.438 66.623C105.874 66.418 105.408 66.1201 105.05 65.7372C104.685 65.3427 104.452 64.8863 104.358 64.3719C104.265 63.8652 104.316 63.3353 104.514 62.7977C104.654 62.4148 105.26 61.9622 106.104 61.3666C106.146 61.3356 106.189 61.3047 106.232 61.2776C104.786 60.6317 99.6705 58.7829 95.4608 57.2628C84.1805 53.1861 84.1805 53.1242 84.1921 52.7297L84.1999 52.486L84.4487 52.401C84.8568 52.2888 85.0434 52.1611 85.1328 52.0722C85.2222 51.9832 85.366 51.7782 85.5293 51.3025L85.642 50.9815L87.399 51.5964L87.2862 51.9175C87.259 51.991 87.2202 52.1109 87.1463 52.2153C88.8294 53.0043 94.1236 55.1278 98.4927 56.8838C109.182 61.1732 109.182 61.2041 109.163 61.5793L109.151 61.8191L108.91 61.8965C108.284 62.0783 107.985 62.2446 107.849 62.349C107.771 62.407 107.639 62.4921 107.406 62.6352C107.091 62.8325 106.356 63.2889 106.251 63.4513C106.15 63.7298 106.166 64.0083 106.31 64.2713C106.461 64.5498 106.71 64.7471 107.079 64.8824C107.351 64.9791 107.631 64.983 107.934 64.894C108.253 64.8012 108.514 64.6349 108.739 64.3874L108.961 64.1437L110.375 65.3311L110.154 65.5902C109.699 66.124 109.124 66.4914 108.44 66.681C108.125 66.7699 107.818 66.8125 107.511 66.8125H107.503ZM107.173 61.15C107.173 61.15 107.173 61.1693 107.176 61.1771L107.211 61.3704L107.056 61.5097C106.935 61.6103 106.729 61.7572 106.496 61.9235C106.119 62.1904 105.241 62.8131 105.151 63.0336C104.996 63.4629 104.953 63.8613 105.027 64.2558C105.097 64.6465 105.272 64.9791 105.552 65.2808C105.835 65.5864 106.212 65.8262 106.671 65.9925C107.176 66.1743 107.69 66.1898 108.245 66.035C108.692 65.9113 109.069 65.7024 109.392 65.4046L109.007 65.0797C108.751 65.3002 108.455 65.4587 108.129 65.5554C107.686 65.6869 107.25 65.6792 106.846 65.5322C106.321 65.3427 105.94 65.0294 105.711 64.6078C105.474 64.1708 105.447 63.6989 105.625 63.2077C105.727 62.933 106.127 62.6507 107.048 62.0744C107.211 61.9738 107.382 61.8655 107.433 61.8268C107.577 61.7147 107.759 61.6141 107.989 61.5136C107.767 61.413 107.495 61.297 107.18 61.1616L107.173 61.15ZM85.3194 52.7723C86.9131 53.453 91.5387 55.1239 95.6901 56.6246C96.9573 57.081 98.0845 57.491 99.0874 57.8546C98.7998 57.7386 98.516 57.6225 98.2322 57.5104C86.1279 52.6524 86.1123 52.5634 86.0463 52.2346L86.0113 52.0567L86.1473 51.9175C86.1473 51.9175 86.1706 51.8981 86.1784 51.8865L86.0501 51.844C85.9141 52.1612 85.7703 52.3971 85.6109 52.5518C85.5293 52.633 85.4321 52.7065 85.3233 52.7723H85.3194ZM110.488 58.7094C110.107 58.7094 109.077 58.3574 105.94 57.2899C103.367 56.4119 100.051 55.2631 96.8484 54.1492C92.5182 52.6446 88.0442 51.0936 87.3601 50.9002C87.1385 50.9699 86.9053 50.9621 86.6604 50.8732C86.3728 50.7687 86.1706 50.5908 86.054 50.3471L85.9569 50.1421L86.1084 49.972C86.2277 49.8405 87.2798 50.1151 89.2648 50.7958C90.9517 51.3721 93.2412 52.1689 95.6707 53.0082C100.25 54.594 106.247 56.6749 108.362 57.344C107.173 55.5842 103.709 50.7881 101.291 47.4733L93.8204 37.2313L101.832 47.0595C104.945 50.877 109.664 56.6285 110.185 57.1623C110.434 57.2667 110.624 57.4446 110.733 57.6767C110.85 57.9281 110.861 58.2104 110.756 58.4928C110.71 58.6204 110.679 58.7016 110.492 58.7016L110.488 58.7094ZM109.361 57.7231C109.668 57.8236 109.921 57.901 110.103 57.959C110.076 57.9049 110.022 57.8314 109.882 57.7811C109.816 57.7579 109.734 57.727 108.086 55.7544C108.902 56.9302 109.237 57.4601 109.361 57.7231Z" fill="currentColor"/>
<path d="M104.929 65.9113L100.571 64.3293L61.1328 42.1048L76.0009 47.5004L104.925 65.9151L104.929 65.9113ZM68.5882 45.5278L95.1719 60.5079L75.6627 48.0883L68.5843 45.524L68.5882 45.5278ZM105.111 56.7639C104.73 56.7639 103.7 56.4119 100.563 55.3444C97.9901 54.4664 94.6744 53.3176 91.4714 52.2037C87.1412 50.6991 82.6672 49.1481 81.9831 48.9547C81.7615 49.0243 81.5283 49.0166 81.2834 48.9276C80.9958 48.8232 80.7936 48.6453 80.677 48.4016L80.5799 48.1966L80.7315 48.0264C80.8507 47.8949 81.9028 48.1696 83.8878 48.8503C85.5748 49.4266 87.8642 50.2195 90.2898 51.0627C95.3741 52.8264 102.208 55.1935 103.533 55.5687C103.634 55.4217 103.77 55.3057 103.933 55.2245C104.182 55.1046 104.462 55.093 104.742 55.1935C105.026 55.298 105.236 55.4836 105.356 55.735C105.473 55.9864 105.484 56.2688 105.379 56.5511C105.333 56.6788 105.302 56.76 105.115 56.76L105.111 56.7639ZM104.209 55.8472C104.415 55.9129 104.59 55.9671 104.73 56.0096C104.703 55.9555 104.649 55.882 104.509 55.8317C104.404 55.793 104.318 55.7969 104.233 55.8356C104.225 55.8356 104.217 55.8433 104.213 55.8472H104.209Z" fill="currentColor"/>
</g>
<defs>
<clipPath id="clip0_675_7519">
<rect width="142.1" height="142.1" fill="white"/>
</clipPath>
</defs>
</svg>
