<svg width="143" height="143" viewBox="0 0 143 143" fill="none" xmlns="http://www.w3.org/2000/svg">
<path d="M108.559 109.868C108.559 89.3309 91.7419 72.6852 71.0021 72.6852C50.2623 72.6852 33.4453 89.3349 33.4453 109.868H108.563H108.559Z" fill="currentColor"/>
<path d="M33.4414 32.1938C33.4414 52.7312 50.2584 69.3769 70.9982 69.3769C91.738 69.3769 108.555 52.7272 108.555 32.1938H33.4414Z" fill="currentColor"/>
<path d="M117.22 71.0852L76.209 71.0372" stroke="#8D8D8E" stroke-width="1.15" stroke-miterlimit="10"/>
<path d="M65.7928 71.0252L24.7773 70.9733" stroke="#8D8D8E" stroke-width="1.15" stroke-miterlimit="10"/>
<path d="M70.894 119.983C72.9357 119.983 74.5908 118.345 74.5908 116.323C74.5908 114.302 72.9357 112.663 70.894 112.663C68.8524 112.663 67.1973 114.302 67.1973 116.323C67.1973 118.345 68.8524 119.983 70.894 119.983Z" stroke="#8D8D8E" stroke-width="1.15" stroke-miterlimit="10"/>
<path d="M70.8569 121.474C72.8986 121.474 74.5537 119.835 74.5537 117.814C74.5537 115.792 72.8986 114.154 70.8569 114.154C68.8153 114.154 67.1602 115.792 67.1602 117.814C67.1602 119.835 68.8153 121.474 70.8569 121.474Z" stroke="#8D8D8E" stroke-width="1.15" stroke-miterlimit="10"/>
<path d="M71.1401 27.8407C73.1818 27.8407 74.8369 26.2021 74.8369 24.1807C74.8369 22.1594 73.1818 20.5208 71.1401 20.5208C69.0985 20.5208 67.4434 22.1594 67.4434 24.1807C67.4434 26.2021 69.0985 27.8407 71.1401 27.8407Z" stroke="#8D8D8E" stroke-width="1.15" stroke-miterlimit="10"/>
<path d="M71.1069 29.3351C73.1486 29.3351 74.8037 27.6964 74.8037 25.6751C74.8037 23.6537 73.1486 22.0151 71.1069 22.0151C69.0652 22.0151 67.4102 23.6537 67.4102 25.6751C67.4102 27.6964 69.0652 29.3351 71.1069 29.3351Z" stroke="#8D8D8E" stroke-width="1.15" stroke-miterlimit="10"/>
<path d="M70.9785 117.059L71.0431 76.4512" stroke="#8D8D8E" stroke-width="1.15" stroke-miterlimit="10"/>
<path d="M71.0586 66.1386L71.1232 25.5353" stroke="#8D8D8E" stroke-width="1.15" stroke-miterlimit="10"/>
</svg>
