<svg width="279" height="97" viewBox="0 0 279 97" fill="none" xmlns="http://www.w3.org/2000/svg">
<path d="M250.2 56.9598C246.335 50.6571 240.444 43.5952 231.607 43.5952C244.568 43.0067 250.459 30.0598 258.707 22.4094C246.335 34.1793 232.196 44.1837 216.879 51.2456C216.29 48.8916 219.235 46.5376 216.29 44.7722L216.879 45.3606C214.817 43.5952 212.313 42.1239 209.585 41.3118C206.858 40.4997 203.918 40.3585 200.972 41.2294C203.476 40.0583 206.127 38.9578 208.778 37.7867C211.429 36.6156 214.08 35.3857 216.584 33.9498C218.251 32.9964 219.86 31.9489 221.35 30.7719C224.537 28.2885 226.894 25.346 228.661 21.815C227.583 23.0921 226.435 24.2985 225.233 25.446C220.714 29.7362 215.347 33.1082 209.426 35.5622C207.453 36.3802 205.42 37.0923 203.329 37.7102C200.383 39.4757 198.027 41.8297 196.259 45.3606C194.492 47.1261 190.957 44.7722 189.779 48.3031C190.368 45.9491 192.135 43.0067 190.368 41.2412C185.066 36.5332 174.338 35.8329 168.446 39.3639C168.446 36.4214 174.461 36.5332 176.229 35.9448C184.477 33.5908 191.546 28.8828 195.953 21.5679C196.754 20.1555 197.455 18.6666 198.027 17.113C196.919 18.7078 195.776 20.2673 194.604 21.7738C192.724 24.7634 190.368 27.1174 187.422 29.4713C177.407 37.7102 165.625 41.2412 157.377 51.2456C160.322 48.8916 162.679 43.0067 158.555 41.8297C150.896 39.4757 143.827 46.5376 143.238 54.188C143.238 40.0642 158.555 34.7678 166.803 25.9404C151.485 35.9448 139.114 50.6571 129.098 65.9579C130.277 55.9535 135.579 37.1217 120.262 35.9448C127.331 34.7678 131.455 28.2943 138.525 27.1174C131.455 26.5289 125.564 30.6483 121.357 35.8271C120.262 37.0864 119.231 38.3988 118.2 39.6993C115.107 43.5952 112.014 47.4204 107.301 49.4801C114.959 48.3031 117.905 40.6527 113.781 34.1793C110.246 29.4713 103.177 27.7059 98.4637 31.2368C104.355 28.8828 112.603 25.3519 111.425 17.7015C110.835 20.6439 109.068 23.5864 106.122 25.3519C97.2854 29.4713 82.5572 25.3519 79.0224 37.1217C77.8442 36.5332 77.255 36.5332 76.0768 36.5332C77.8441 37.1217 79.0224 35.9448 79.0224 34.7678C79.0224 34.1793 78.4333 33.5908 77.8442 32.9964C75.7822 31.8253 73.7202 31.8253 71.6583 32.2667C69.5963 32.708 67.5344 33.5908 65.4724 34.1793C73.7202 27.1174 80.7898 19.4669 88.4485 12.405C78.4333 18.29 69.5963 26.5289 64.2942 37.1217C65.4724 31.2368 57.2246 30.6483 53.678 33.0376C52.0579 33.9086 50.5498 34.9679 49.183 36.1802C45.0708 39.8053 42.2018 44.7722 41.3181 50.0686C43.0855 44.1837 43.0855 37.7102 48.3876 33.5908C45.5893 36.5332 42.9735 39.6581 40.4874 42.9125C39.2444 44.5426 38.0366 46.2022 36.8466 47.8912C31.297 57.719 24.8166 67.1349 20.1035 77.1393C26.5839 67.7234 37.1883 63.0154 45.5068 54.9413C46.6144 53.7467 47.6395 52.4932 48.6763 51.2456C52.5057 45.3606 59.5752 44.7722 63.6991 41.2412C64.8774 40.3585 66.3502 38.4458 68.1176 37.0511C69.885 35.6564 71.947 34.7678 74.3035 35.9448C71.5522 38.4929 69.0661 41.2412 66.7508 44.1013C62.1262 49.8214 58.1967 55.9888 54.2613 61.9444C53.3363 63.3685 52.4114 64.7574 51.4393 66.1227C50.4673 67.488 49.4481 68.8298 48.3641 70.1539C50.1374 68.3295 51.9106 67.1408 53.0889 65.3694C54.4144 60.5143 56.6944 56.4714 59.6695 53.1876C62.6446 49.9038 66.309 47.3851 70.3917 45.5843C74.7335 43.6717 79.8413 42.6242 84.5426 42.1475C87.0228 41.8944 89.5325 41.8473 92.0186 42.0533C93.9274 42.2122 95.7066 43.1656 97.6566 42.8125C97.9512 42.7595 98.2811 42.6477 98.3812 42.3652C98.4578 42.1475 98.3635 41.8944 98.4225 41.6708C98.5049 41.3707 98.8525 41.2 99.1648 41.2412C99.477 41.2824 99.7362 41.4825 99.9483 41.712C101.021 42.8713 100.985 44.6427 100.785 46.2081C100.372 45.3312 99.9542 44.4485 99.6596 43.5245C99.477 42.9596 99.3415 42.3593 99.477 41.7767C99.6243 41.1294 100.096 40.588 100.655 40.229C101.533 39.6581 103.848 38.7813 103.754 40.6586C103.165 52.4284 87.8476 53.6054 80.778 61.2558C81.0785 60.9322 82.3039 60.7792 82.7398 60.6026C83.3879 60.3496 84.0241 60.0671 84.6545 59.7787C86.1273 59.1078 87.5471 58.3251 88.9375 57.5013C91.6651 55.877 94.2868 54.0762 97.0969 52.5873C101.669 50.1628 107.153 48.6091 111.99 50.4335C112.379 50.5806 112.774 50.7512 113.192 50.7336C114.382 50.6865 115.054 49.2094 116.22 48.9622C115.672 52.4226 115.401 55.93 115.419 59.4374C116.12 58.4546 116.155 57.1717 116.167 55.9653C117.705 57.054 119.266 58.1545 121.01 58.8724C122.754 59.5904 124.733 59.8964 126.542 59.3491C128.35 58.8018 129.923 57.2894 130.188 55.4239C130.247 57.5425 130.294 59.7375 129.487 61.7031C128.639 63.7511 126.936 65.3341 125.104 66.5817C123.142 67.9176 120.703 69.789 118.394 70.3539C115.49 71.066 112.544 69.6066 109.586 69.1828C105.639 68.6179 104.379 70.1421 100.638 71.525C99.9954 71.7604 97.0498 72.8904 97.0498 72.8904C97.0498 72.8904 106.04 73.8908 110.099 73.5318C114.571 73.1316 118.989 72.1547 123.195 70.5893C130.141 68 135.844 63.0684 141.918 58.9666C142.148 58.8136 143.803 57.9309 143.803 57.7249C143.803 58.3134 143.214 59.4904 143.214 60.0789C144.981 53.6054 152.64 51.84 156.175 47.132C147.338 57.1364 144.392 71.2602 133.152 79.7875C131.867 80.7173 130.506 81.5235 129.045 82.1709C127.584 82.8182 126.035 83.3067 124.368 83.6009C126.571 83.6068 128.615 83.2655 130.524 82.6417C132.757 81.9119 134.807 80.7938 136.739 79.3932C145.571 71.8487 150.873 61.8443 157.942 51.84C166.19 41.2471 178.562 43.0126 189.755 45.3665C190.344 45.955 188.577 48.8975 186.81 49.486C172.081 50.663 160.299 58.9019 154.407 71.8487C163.244 58.9019 182.097 42.4241 198.003 51.84C198.003 50.663 198.003 50.0745 198.198 48.8739C199.664 49.2329 201.137 49.3918 202.651 49.4507C205.037 49.4683 207.411 49.4742 209.703 49.2565C211.995 49.0387 214.204 48.5974 216.266 47.7146C216.561 49.4801 215.972 51.0985 214.958 52.4049C213.945 53.7114 212.513 54.7 211.117 55.2061C209.479 55.7534 207.612 56.03 205.732 56.2007C203.853 56.3714 201.962 56.4537 200.271 56.6009C195.647 57.719 189.755 60.073 189.166 65.9579C191.523 61.25 196.825 59.4845 200.678 57.4189C202.416 56.9187 204.159 56.542 205.909 56.1889C207.659 55.8358 209.415 55.5004 211.176 55.0884C212.743 54.5706 214.399 53.8114 216.054 53.1229C220.985 50.663 228.644 52.4284 228.055 58.9019V56.5479C237.481 61.8443 246.318 72.4372 257.511 67.1408C261.046 65.9638 256.922 61.2558 253.8 60.9027C251.661 58.9313 250.182 56.9716 250.182 56.9716L250.2 56.9598Z" stroke="currentColor" stroke-miterlimit="50"/>
</svg>
