<svg width="143" height="143" viewBox="0 0 143 143" fill="none" xmlns="http://www.w3.org/2000/svg">
<path d="M71.5013 23.1482C71.7628 30.4789 71.791 41.9592 69.0349 28.0612C69.2894 30.7899 69.5438 33.2783 69.7558 35.4839C69.9678 37.6895 70.1303 39.6123 70.1868 41.1887C70.307 44.3557 70.2999 49.9262 68.9148 46.229C68.8017 49.5232 67.9466 47.9044 66.6746 45.3524C65.9608 45.9604 64.2718 42.6591 62.6747 40.7292C64.2294 42.7439 66.505 48.9506 66.7806 47.1339C68.3282 52.1388 69.2894 56.246 68.3141 49.4596C69.6356 57.4336 70.5049 64.5028 69.042 54.917C70.2717 65.3087 69.6003 63.9302 65.8054 53.998C68.3707 62.7991 69.3247 66.5104 66.293 58.593C68.9148 67.0123 67.8124 65.5985 62.6606 57.6881C66.9573 65.6833 66.2152 65.5207 60.1024 58.9323C64.3708 65.2733 59.7349 61.6822 53.9753 58.0486C59.6995 61.7599 64.293 65.4076 59.6501 59.3564C65.8407 65.8742 66.5121 66.362 60.9787 59.208C67.8618 67.2598 67.5156 67.1961 59.4098 59.9361C66.1516 66.9346 68.1233 69.1967 62.3708 63.3929C68.0456 69.7128 66.9431 69.2745 58.7596 64.5523C66.3919 69.6703 65.9538 69.8753 57.4169 66.5953C64.6535 70.3773 60.3073 69.635 51.933 68.4686C59.6854 70.8933 54.4559 71.7911 48.0815 73.0211C51.9895 74.131 46.7812 75.6933 44.4986 76.9374C44.8449 79.553 41.4174 83.0805 39.9546 85.986C38.4917 88.8985 37.0995 91.6766 35.7992 94.264C30.6051 104.606 26.9727 111.845 26.9727 111.845C26.9727 111.845 37.8628 104.896 48.76 97.947C50.1239 97.0775 51.8129 95.8192 52.8234 95.3526C54.4488 94.1367 57.8622 90.4961 56.7597 92.8431C60.0246 89.1105 63.4309 84.7701 60.5688 90.2487C65.0209 83.6814 67.0067 80.7619 63.7348 88.3966C68.0032 80.1256 69.8759 75.8629 67.2965 83.6814C70.4413 75.0429 70.6815 74.5834 68.8017 83.2219C70.8935 74.336 71.1126 73.311 70.8158 78.9946C71.155 73.6998 71.1691 73.6432 71.0207 78.224C71.1479 74.0603 71.0702 75.4176 70.5402 84.049C71.0702 75.4176 71.155 74.0462 71.1904 78.1533C71.2257 73.622 71.261 73.6644 71.6709 78.839C71.3246 73.2615 71.473 74.2441 72.6249 83.2149C71.6568 74.4632 71.8476 74.6965 74.6249 83.1442C72.2645 75.4246 73.7556 79.5742 77.6424 88.3824C74.7097 80.161 76.3845 82.72 80.8932 89.8528C77.9887 83.9288 81.508 88.7783 84.9284 92.836C83.7271 90.1356 87.2676 94.0024 89.0343 95.3455C89.9954 95.6707 91.854 97.0704 93.2745 97.9399C104.645 104.889 116.009 111.838 116.009 111.838C116.009 111.838 112.376 104.599 107.182 94.2569C105.882 91.6696 104.49 88.8914 103.027 85.9789C101.564 83.0664 98.5959 79.6661 98.4828 76.9304C96.6242 75.7357 90.0802 73.9896 94.0236 72.7949C87.1263 71.5507 83.2041 70.5752 91.2745 68.3484C83.0769 69.4088 77.9039 70.356 85.1263 66.673C76.5047 69.9036 76.0383 69.7269 83.8119 64.7573C75.5648 69.3452 74.6037 69.6703 80.6459 63.4778C74.6673 69.0765 77.176 66.4397 84.038 59.7099C75.7273 66.878 74.6955 67.7051 81.9038 59.9644C75.9323 66.878 76.5965 66.362 83.0416 59.929C78.1371 65.7752 83.3384 61.661 89.0131 58.0486C83.3172 61.6186 78.1654 65.6126 82.7872 59.5261C76.4269 65.959 75.7697 66.1216 80.7024 58.4304C75.063 66.0085 74.0101 67.1466 77.4163 58.9535C73.7132 66.5175 75.1266 62.5093 78.2007 54.0404C73.9606 63.7322 73.0419 65.542 75.4729 55.3624C72.8087 64.7149 74.2574 57.3488 75.8263 49.5091C74.5118 56.1612 75.5648 52.2802 77.0842 47.3318C77.0064 48.9718 79.0841 42.751 80.3137 40.7221C79.0488 42.6944 77.5788 46.0735 77.1195 45.5645C75.9676 48.1447 75.1478 49.7636 75.2397 46.3987C73.8687 50.3574 73.904 44.5677 73.8051 41.3796C73.7556 39.7819 73.7698 37.845 73.8051 35.604C73.8475 33.3702 73.9041 30.8324 73.9465 28.0542C72.4977 42.3551 71.7416 30.4718 71.4801 23.1411L71.5013 23.1482Z" fill="currentColor"/>
</svg>
