<svg width="143" height="143" viewBox="0 0 143 143" fill="none" xmlns="http://www.w3.org/2000/svg">
<path d="M38.5015 58.086C38.5015 64.0081 40.0838 69.5661 42.8529 74.3588C43.1067 74.7972 43.3679 75.2208 43.6366 75.6443C44.6144 77.5242 52.1752 89.9332 53.6531 90.914C57.0864 92.8682 53.9442 83.8773 56.6312 87.3474C56.9969 87.6446 57.3775 87.8452 57.7582 87.9864C60.0421 88.8335 62.5201 89.0713 64.6772 90.0149C65.237 90.171 68.8793 114.513 69.4391 114.617C71.0737 114.863 69.6406 90.7803 71.3424 90.7803C76.4178 90.7803 81.2245 89.636 85.5162 87.5851C85.9939 87.3548 86.4641 87.117 86.9418 86.9833C87.8076 86.322 90.0095 124.099 90.9872 123.608C95.4058 120.673 93.204 78.0146 98.4809 76.4914C98.7795 76.0604 99.0631 75.622 99.3393 75.1762C101.265 72.0554 102.676 68.5853 103.467 64.8849C103.482 64.3796 103.489 63.8818 103.482 63.3765C102.362 63.8224 100.757 64.4094 98.0107 65.3976C97.5256 65.6205 97.0255 65.836 96.5329 66.0292C96.0328 66.2224 95.5327 66.4082 95.0326 66.5717C94.4206 66.802 93.831 66.9729 93.301 67.2553C92.2412 67.8051 91.45 68.2212 91.45 68.2212L88.7108 69.6479C88.7108 69.6479 87.5613 70.2498 86.0238 71.0523C85.6431 71.2529 85.3073 71.4981 84.9565 71.7581C84.1056 72.7093 83.1353 73.482 82.0903 74.1508C81.5679 74.4851 81.023 74.7824 80.8289 74.9607C79.9109 75.3471 79.3436 75.6072 80.9409 75.8449C78.1867 76.0901 77.6046 76.3131 79.2018 81.9305C78.6495 80.8977 78.1793 80.0729 77.7688 79.4339C77.3508 78.7948 76.9925 78.3416 77.209 78.1038C76.3059 77.7397 75.9849 77.5911 77.1045 77.6431C75.3057 77.5242 74.9549 77.6134 77.0821 78.5273C76.679 78.453 76.3208 78.3936 76.0073 78.349C76.3133 78.4382 76.6492 78.5571 77.0298 78.6908C76.5596 78.5348 76.1715 78.4159 75.8282 78.3342C75.6416 78.3193 75.4624 78.3044 75.3057 78.3044C74.8429 78.3119 74.4921 78.4159 74.2533 78.6685C74.1563 78.7503 74.0742 78.8394 74.007 78.9509C73.9249 79.1738 73.8801 79.4487 73.9174 79.798C73.895 79.8351 73.8726 79.8723 73.8502 79.9094C73.8502 79.9243 73.8502 79.9391 73.8502 79.954C73.798 80.0209 73.7532 80.0878 73.7084 80.1546C73.4547 80.6896 73.3278 81.3881 73.186 82.25C73.2979 81.3658 73.4024 80.6599 73.7084 80.1546C73.7532 80.0655 73.798 79.9837 73.8428 79.902C73.7905 79.4785 73.8577 79.1738 73.9995 78.9435C74.0742 78.7503 74.1787 78.6017 74.2981 78.4976C74.5444 78.2598 74.8653 78.1855 75.3057 78.2376C75.4624 78.2524 75.6341 78.2896 75.8207 78.3342C75.8804 78.3342 75.9401 78.3416 75.9998 78.349C75.6938 78.2599 75.4326 78.193 75.1937 78.1558C74.7161 78.0889 74.3578 78.141 74.1339 78.3564C73.7756 78.5942 73.5517 78.9955 73.7831 79.6865C73.6786 79.7757 73.5965 79.8723 73.5144 79.9763C73.5144 79.9763 73.5293 79.9912 73.5368 79.9986C73.5144 80.0135 73.492 80.0283 73.4696 80.0432C73.0889 80.5707 72.9397 81.2915 72.7904 82.198C72.8277 81.1652 72.8725 80.3998 73.4696 80.0432C73.4845 80.0209 73.4994 79.9986 73.5144 79.9763C73.2681 79.7162 73.1039 79.5156 73.0218 79.3596C72.9322 79.367 72.8501 79.3819 72.768 79.3967C72.865 79.4785 72.9844 79.575 73.1412 79.6865C71.4842 79.7757 71.0214 80.3553 70.5811 82.2649C71.0364 80.3032 71.417 79.6271 72.768 79.3967C72.6635 79.3001 72.5963 79.2258 72.5665 79.1589C72.4023 79.0921 72.2754 79.0326 72.1858 78.988C72.0515 79.0178 71.932 79.0475 71.8126 79.0772C71.9246 79.0995 72.0515 79.1218 72.2082 79.1515C72.1186 79.1515 72.0291 79.1515 71.947 79.1589C72.0589 79.1887 72.1933 79.2258 72.3351 79.263C71.8275 79.263 71.4394 79.3001 71.1035 79.3967C71.2454 79.419 71.3946 79.4636 71.5588 79.5305C71.3872 79.471 71.2379 79.4264 71.0961 79.4041C71.0065 79.4339 70.9244 79.4636 70.8423 79.5007C70.2601 79.8797 69.7377 80.4816 68.9913 81.5144C69.775 80.3553 70.2377 79.7757 70.8423 79.5007C70.902 79.4636 70.9617 79.4264 71.0214 79.3893C70.8647 79.367 70.7154 79.3893 70.5587 79.4264C70.193 79.5825 69.8496 79.8351 69.4316 80.2141C69.1779 80.4518 68.8943 80.7342 68.5435 81.0909C68.8868 80.7342 69.1704 80.4518 69.4316 80.2141C69.9093 79.7608 70.2452 79.5156 70.5587 79.4264C70.6035 79.4041 70.6483 79.3893 70.693 79.3744C70.1034 79.4116 69.5361 79.8277 68.3121 80.8457C69.6332 79.6122 69.5809 79.6345 68.2897 80.8159C69.2003 79.8277 68.8719 79.9986 67.5284 80.92C67.924 80.4964 67.3418 80.8011 66.7297 81.128C66.364 81.3064 65.961 81.5144 65.6848 81.663C65.4086 81.8116 65.2519 81.8934 65.2519 81.8934C65.2519 81.8934 65.3788 81.7819 65.6027 81.5887C65.8266 81.3955 66.1476 81.1206 66.461 80.8234C66.9163 80.4593 67.3642 80.0655 66.8492 79.9317C68.0882 79.4487 68.3345 79.2332 67.1029 79.0103C68.7599 78.8023 68.9316 78.5942 67.7075 77.6208C69.0137 78.0964 69.4466 78.0964 69.3272 77.3087C69.1629 77.1676 68.8793 76.8629 68.4464 76.3948C68.745 76.5954 68.9987 76.744 69.2227 76.8481C69.1928 76.7366 69.1555 76.6251 69.1182 76.4988C69.1928 76.6474 69.2525 76.7737 69.3048 76.8852C69.9392 77.1676 70.2751 77.0412 70.5064 76.4765C70.3273 76.6623 70.0064 76.3279 69.4242 75.5849C69.9093 75.9638 70.2825 76.1867 70.5885 76.2536C70.6259 76.1347 70.6632 76.0084 70.693 75.8598C70.6706 76.0233 70.6483 76.157 70.6184 76.261C70.9543 76.3279 71.2006 76.209 71.4096 75.8969C71.2678 75.949 71.0065 75.5997 70.5288 75.0276C71.3648 75.6592 71.835 75.9044 72.0962 75.6443C72.1783 75.6889 72.0515 75.2282 71.7081 74.3588C72.6187 75.5329 72.9322 75.7706 72.6934 75.0424C72.5963 74.8269 72.4545 74.4926 72.2604 74.0467C72.5814 75.2654 72.4769 75.087 72.0291 73.9724C72.1933 74.6635 72.0141 74.4183 71.6708 73.8015C71.5887 73.6901 71.3424 73.2665 71.1035 72.8504C70.3796 71.6021 69.678 70.4132 69.4391 68.89C69.1032 66.7054 68.6554 64.6323 67.7523 62.5963C66.9014 61.1176 65.8565 59.7281 64.6548 58.4872C63.789 57.5882 62.8411 56.7782 61.8185 56.0649C61.311 55.7082 60.7811 55.3739 60.4004 55.4036C59.6988 54.7497 59.1465 54.4673 58.4747 55.4556C58.012 53.9398 57.4372 53.6946 55.9445 54.2073C56.258 53.2636 55.6609 53.0704 54.8846 52.9515C54.4517 52.736 53.8397 52.5948 53.2202 52.476C51.9886 52.2382 50.7422 52.1044 49.4957 52.0673C50.6899 51.8444 51.9289 51.7849 53.1903 51.8221C53.8247 51.8369 54.4666 51.8815 54.7801 51.941C55.7579 51.9855 56.4072 52.0598 55.1832 52.3868C57.7209 52.2085 58.3777 52.2828 60.3631 54.4971C59.6988 52.4314 60.3631 52.4982 62.4604 53.0481C61.6842 52.6097 62.3485 52.6469 63.0351 52.6914C63.6696 52.684 64.3264 52.6766 64.9757 52.632C65.3041 52.6097 65.6251 52.58 65.5878 52.5503C66.1625 52.5131 66.4834 52.476 66.0953 52.3868C66.0804 52.3868 66.0655 52.3868 66.0431 52.3868C66.0132 52.3868 65.9834 52.3868 65.9535 52.3868C65.9759 52.3868 65.9983 52.3868 66.0132 52.3868C65.9983 52.3868 65.9908 52.3868 65.9759 52.3868C66.0057 52.3868 66.0356 52.3868 66.0729 52.3868C66.0057 52.3719 65.9162 52.3571 65.8042 52.3422C66.3342 52.3422 66.7297 52.3199 66.9537 52.3125C67.1179 52.2976 67.2746 52.2753 67.4015 52.2605C67.6179 52.2159 67.7523 52.1639 67.8045 52.097C67.7971 52.0153 67.6926 51.9038 67.5134 51.7701C67.4761 51.7701 67.4313 51.7701 67.3791 51.7701C67.1029 51.7775 66.6476 51.7106 66.0132 51.5992C66.6252 51.7032 67.0805 51.7701 67.3791 51.7701C67.4239 51.7701 67.4687 51.7701 67.506 51.7552C67.3343 51.6289 67.088 51.4728 66.7596 51.2796C66.67 51.2351 66.5879 51.1905 66.4834 51.1459C66.5506 51.1756 66.6029 51.1979 66.6626 51.2276C66.6252 51.2053 66.5879 51.183 66.5506 51.1608C66.9984 51.3317 67.3716 51.4654 67.6702 51.562C67.6254 51.3762 67.3194 51.0493 66.7372 50.5366C66.9089 50.6332 67.0656 50.7224 67.2149 50.8041C67.1104 50.7001 66.991 50.5886 66.8566 50.4623C67.4313 50.8338 67.8642 51.1087 68.1703 51.2648C68.4166 51.3539 68.5808 51.3614 68.6554 51.2796C68.5733 50.9899 68.3569 50.544 68.0135 49.9124C68.1703 50.0908 68.3046 50.2542 68.424 50.3954C68.3494 50.2394 68.2598 50.061 68.1628 49.8604C67.9016 49.801 67.6105 49.7044 67.2746 49.5558C67.0955 49.5483 66.9089 49.5335 66.7223 49.526C66.9387 49.5409 67.1477 49.5483 67.3418 49.5483C67.2821 49.5335 67.2298 49.5112 67.1701 49.4963C67.2373 49.5186 67.3045 49.5335 67.3716 49.5558C67.5508 49.5558 67.715 49.5558 67.8792 49.5409C67.8568 49.5186 67.8344 49.5037 67.8045 49.4815C67.8344 49.5037 67.8642 49.5186 67.8866 49.5335C68.5658 49.474 69.1256 49.2734 69.5809 48.7013C69.7153 48.8573 69.8347 48.9836 69.9541 49.0876C70.0138 48.991 70.0735 48.8944 70.1333 48.783C70.1556 48.8276 70.178 48.8647 70.2004 48.9019C70.2228 48.8722 70.2377 48.8499 70.2601 48.8201C70.2601 48.8276 70.2601 48.835 70.2676 48.8424C70.2825 48.8201 70.2975 48.8053 70.3198 48.783C70.3348 48.7979 70.3497 48.8127 70.3572 48.835C70.3572 48.835 70.3721 48.8276 70.3796 48.8201C70.4169 48.8796 70.4617 48.939 70.499 48.991C70.5811 49.0653 70.6632 49.1248 70.7453 49.1545C70.7826 49.1099 70.8199 49.0579 70.8572 49.0059C70.8572 49.0653 70.8647 49.1174 70.8722 49.1694C70.9841 49.0951 71.0961 48.9688 71.2006 48.8201C71.3723 48.6864 71.4917 48.3372 71.5066 47.8988C71.529 47.022 71.1259 45.7736 70.4318 43.7897C70.7453 44.4659 71.014 45.0306 71.2528 45.4913C71.0438 45.0157 70.8125 44.4882 70.5587 43.9086C71.0961 45.038 71.5365 45.9297 71.9096 46.6133C71.7529 45.9965 71.5066 45.2535 71.2006 44.3321C71.7828 45.8034 72.1709 46.6727 72.4247 47.0294C72.6038 46.8585 72.6336 46.1154 72.6112 44.9266C72.7157 45.4987 72.8053 45.8851 72.8799 46.1154C72.8874 45.8182 72.8949 45.4615 72.8949 45.0529C72.977 45.7662 73.0442 46.1823 73.0964 46.3755C73.1113 46.3606 73.1337 46.3383 73.1486 46.3086C73.0889 45.9594 73.0292 45.5656 72.9621 45.1272C73.0367 45.5507 73.1039 45.9297 73.171 46.264C73.2606 46.0709 73.3502 45.677 73.4621 45.1569C73.3576 45.8331 73.283 46.3161 73.2158 46.4572C73.4099 47.3786 73.589 47.9656 73.8279 48.2851C73.9547 48.1811 74.0816 48.0251 74.2234 47.8245C74.1189 47.7873 74.0518 47.6461 74.007 47.4009C73.9995 47.3563 73.9921 47.3117 73.9846 47.2597C73.9846 47.2449 73.9846 47.23 73.9846 47.2152C73.9846 47.1408 73.9697 47.0591 73.9697 46.9774C73.9697 46.9774 73.9697 46.9699 73.9697 46.9625C73.9697 46.8882 73.9697 46.8065 73.9697 46.7247C73.9697 46.695 73.9697 46.6653 73.9697 46.6356C73.9697 46.5984 73.9697 46.5613 73.9697 46.5241C73.9697 46.2195 73.9697 45.8702 73.9921 45.469C73.9771 45.8777 73.9697 46.2269 73.9697 46.5241C73.9697 46.5613 73.9697 46.5984 73.9697 46.6356C73.9697 46.6653 73.9697 46.695 73.9697 46.7247C73.9697 46.8065 73.9697 46.8882 73.9697 46.9625C73.9697 46.9625 73.9697 46.9699 73.9697 46.9774C73.9697 47.0665 73.9771 47.1483 73.9846 47.2152C73.9846 47.23 73.9846 47.2449 73.9846 47.2597C73.9846 47.3117 73.9995 47.3563 74.007 47.4009C74.0592 47.7056 74.1712 47.7873 74.3503 47.6238C74.425 47.5049 74.4996 47.3786 74.5817 47.2449C74.5668 46.8808 74.5966 46.3904 74.6563 45.7736C74.6265 46.3755 74.619 46.8511 74.6713 47.2152C74.7758 47.0591 74.8877 46.8659 75.0146 46.6356C74.9027 46.9254 74.7982 47.178 74.7086 47.4083C74.7161 47.4455 74.7235 47.4827 74.7384 47.5124C74.8803 47.3638 75.037 47.1631 75.2236 46.9031C75.0743 47.2226 74.9474 47.4975 74.8355 47.7353C74.8653 47.7799 74.8877 47.8245 74.925 47.8616C75.0295 47.7576 75.134 47.6461 75.2535 47.5198C75.1564 47.6684 75.0743 47.8022 74.9922 47.9285C74.9922 47.9285 75.0071 47.9359 75.0146 47.9433C75.2087 47.921 75.4774 47.7799 75.8506 47.4975C75.6864 47.713 75.5445 47.9062 75.4177 48.0697C75.44 48.0697 75.4699 48.0697 75.4923 48.0697C75.5445 48.0325 75.5968 47.9954 75.6565 47.9582C75.6192 47.9954 75.5968 48.0325 75.5595 48.0697C75.7685 48.0548 76.0148 47.9879 76.3059 47.8839C75.2758 49.2585 75.5819 49.4072 77.0672 49.1917C76.8059 49.2808 76.7761 49.2957 76.8955 49.2734C76.8582 49.2585 76.9925 49.2214 77.3433 49.1397C76.8656 49.2214 77.2612 49.1397 77.9106 49.0059C77.4404 49.1322 77.0448 49.2363 76.8955 49.2734C76.9403 49.2883 77.1717 49.2734 77.5747 49.2363C77.7613 49.266 78.5674 49.2363 79.7616 49.1842C78.6943 49.1768 78.0001 49.1619 77.7837 49.1322C77.3583 49.1322 77.403 49.1322 77.8658 49.1174C78.2166 49.1322 78.9779 49.1471 80.09 49.1768C77.1269 48.9019 77.3135 48.8127 80.3289 49.0356C77.6867 48.6344 77.8733 48.5452 80.5976 48.7384C78.4778 48.2703 78.8883 48.0845 81.023 48.0771C79.7168 47.6981 80.1273 47.5049 81.3589 47.3861C80.9409 47.1111 81.3589 46.9105 81.8664 46.7173C82.1724 46.5093 82.5829 46.3086 82.986 46.1006C84.6131 45.2758 86.2328 44.399 87.83 43.4702C89.39 42.5414 85.9715 33.0897 87.4867 32.1015C87.5763 32.042 87.7106 32.0495 87.8674 32.1015C84.1728 29.2259 80.0378 27.0636 75.6938 25.6889C74.2533 25.4958 72.7904 25.3917 71.2976 25.3917C53.1605 25.3917 38.4492 40.0298 38.4492 58.0934L38.5015 58.086Z" fill="currentColor"/>
</svg>
