<svg width="143" height="143" viewBox="0 0 143 143" fill="none" xmlns="http://www.w3.org/2000/svg">
<path d="M21.9485 75.3623C21.7217 75.1368 21.6133 74.8524 21.6133 74.4994C21.6133 74.1464 21.7267 73.8816 21.9485 73.6659C22.1753 73.4502 22.4613 73.3423 22.8163 73.3423C23.1713 73.3423 23.4523 73.4452 23.6643 73.6561C23.8763 73.8669 23.9799 74.1464 23.9799 74.4994C23.9799 74.8524 23.8714 75.1417 23.6545 75.3623C23.4375 75.5879 24.3349 88.2131 24.3349 88.2131C24.3349 88.2131 22.1704 75.5879 21.9436 75.3623H21.9485Z" stroke="currentColor" stroke-miterlimit="50"/>
<path d="M31.6811 60.8146C32.5538 60.1919 45.6292 41.335 45.6292 41.335C45.6292 41.335 36.2269 60.0595 36.932 60.4175C37.637 60.7754 38.1794 61.2853 38.5689 61.9423C38.9584 62.5993 39.1506 63.3593 39.1506 64.2124C39.1506 64.9871 37.3856 67.2277 36.9616 67.9632C36.5375 68.6937 78.145 69.6694 77.1787 70.4049C76.6462 70.7873 75.9116 69.4243 75.739 69.7822C75.5665 70.1401 75.4876 70.704 75.5024 71.459L67.7912 71.4786C67.7765 70.449 68.1709 71.2629 68.4914 70.5912C68.8118 69.9195 32.9384 69.1252 33.6878 68.5712C34.452 68.0171 34.9648 67.5268 35.231 67.1052C35.4972 66.6835 37.1834 64.7272 37.1834 64.2124C37.1834 63.5064 36.932 62.9327 36.434 62.4914C35.936 62.0502 35.2902 61.8295 34.5013 61.8295C33.8998 61.8295 33.3377 62.0207 32.8151 62.4081C32.2876 62.7954 31.903 63.2955 31.6565 63.9035L29.8125 63.2318C30.1823 62.2414 30.8035 61.4324 31.6762 60.8097L31.6811 60.8146ZM33.3081 75.3569C33.0813 75.1314 32.9729 74.847 32.9729 74.494C32.9729 74.141 73.4513 73.8762 73.6781 73.6605C73.9049 73.4447 74.1909 73.3369 74.5459 73.3369C74.9009 73.3369 75.1819 73.4398 75.3939 73.6507C75.6059 73.8615 35.3444 74.141 35.3444 74.494C35.3444 74.847 35.2359 75.1363 35.019 75.3569C34.802 75.5825 34.521 75.6952 34.1808 75.6952C33.8406 75.6952 33.5349 75.5825 33.3131 75.3569H33.3081Z" stroke="currentColor" stroke-miterlimit="50"/>
<path d="M43.0415 60.8146C43.9142 60.192 44.8559 59.8782 45.8666 59.8782C46.7787 59.8782 47.5873 60.0596 48.2924 60.4175C48.9974 60.7754 49.5398 61.2853 49.9293 61.9423C50.3188 62.5993 50.511 63.3593 50.511 64.2124C50.511 64.9871 48.746 67.2278 48.322 67.9632C47.8979 68.6938 89.1209 67.9387 88.1545 68.6742C87.622 69.0566 87.272 69.4243 87.0994 69.7822C86.9269 70.1402 86.848 70.704 86.8628 71.4591L84.8955 71.4787C84.8807 70.4491 85.2752 71.263 85.5957 70.5912C85.9161 69.9195 44.2938 69.1252 45.0433 68.5712C45.8075 68.0172 46.3202 67.5269 46.5865 67.1052C46.8527 66.6835 48.5389 64.7272 48.5389 64.2124C48.5389 63.5064 48.2874 62.9327 47.7895 62.4915C47.2915 62.0502 46.6456 61.8296 45.8568 61.8296C45.2553 61.8296 44.6932 62.0208 44.1706 62.4081C43.643 62.7955 43.2585 63.2956 43.0119 63.9035L41.168 63.2318C41.5377 62.2414 42.159 61.4324 43.0317 60.8097L43.0415 60.8146ZM44.6685 75.357C44.4417 75.1314 44.3333 74.847 44.3333 74.494C44.3333 74.141 84.8117 73.8763 85.0385 73.6605C85.2653 73.4448 85.5513 73.3369 85.9063 73.3369C86.2613 73.3369 86.5423 73.4399 86.7543 73.6507C86.9663 73.8615 46.7048 74.141 46.7048 74.494C46.7048 74.847 64.5972 86.8594 64.5972 86.8594C64.5972 86.8594 45.8765 75.6953 45.5363 75.6953C45.1961 75.6953 44.8904 75.5825 44.6685 75.357Z" stroke="currentColor" stroke-miterlimit="50"/>
<path d="M124.122 71.4646H104.667L53.7852 60.1484H56.2849L124.122 71.4646ZM94.5742 73.6611C94.801 73.4454 95.087 73.3375 95.442 73.3375C95.797 73.3375 96.078 73.4405 96.29 73.6513C96.502 73.8621 56.2405 74.1416 56.2405 74.4946C56.2405 74.8476 56.132 75.1369 55.9151 75.3576C55.6981 75.5831 55.4171 75.6959 55.0769 75.6959C54.7367 75.6959 54.431 75.5831 54.2092 75.3576C53.9873 75.132 53.869 74.8476 53.869 74.4946C53.869 74.1416 94.3474 73.8769 94.5742 73.6611Z" stroke="currentColor" stroke-miterlimit="50"/>
</svg>
