<svg width="143" height="143" viewBox="0 0 143 143" fill="none" xmlns="http://www.w3.org/2000/svg">
<g clip-path="url(#clip0_675_8962)">
<path d="M49.1957 43.0139C49.314 43.4867 50.1285 44.2065 50.7434 44.8369C51.1819 45.3802 51.82 46.013 52.3607 46.5987C52.9013 47.1867 53.63 47.843 53.9711 48.3722C54.6741 49.0097 55.4956 49.6542 55.5536 50.1717C56.4771 50.7926 57.208 51.3619 57.099 52.0064C58.1223 52.4745 58.9622 53.1072 58.5887 53.8905C59.7906 54.1939 60.6399 54.9113 60.0134 55.8287C61.3801 55.9675 62.0298 56.7272 61.3546 57.8281C62.3686 57.2565 62.3732 57.2635 61.3592 57.8375C62.3732 57.2659 62.3779 57.2753 61.3639 57.8469C62.4707 57.4564 62.5125 57.7951 61.5541 58.616C62.5171 58.2185 62.3686 58.5949 61.4219 59.3758C62.3013 58.7901 62.1505 58.5337 61.2525 59.11C62.3338 58.5572 62.6563 58.5431 61.9277 59.2464C63.0137 58.6607 63.2805 58.7783 62.5589 59.6369C63.5613 59.0912 63.6031 59.4393 62.8397 60.3426C63.6356 59.8298 63.5311 60.1967 62.7956 61.0459C63.4986 60.3849 63.3153 60.1897 62.5821 60.8389C63.4615 60.1591 63.6959 60.0603 63.1343 60.7918C64.0045 60.0838 64.218 60.1332 63.6959 61.0153C64.4709 60.3637 64.5243 60.6107 63.9999 61.5234C64.6171 60.9024 64.6008 61.1752 64.1043 62.0573C64.6171 61.3211 64.5034 61.187 63.9674 61.9232C64.7006 61.2082 64.9071 61.3469 64.5753 62.2267C65.1647 61.5963 65.2691 61.8597 64.9675 62.7183C65.4571 62.1396 65.5568 62.4407 65.2923 63.2263C65.645 62.5795 65.9606 63.1699 65.6381 63.7156C65.9606 63.1675 67.3088 65.6679 67.0048 65.6867C67.3088 65.6679 67.2391 65.7408 66.9236 65.7526C67.2391 65.7408 67.0326 65.4139 66.7194 65.4962C67.0025 65.3786 66.9584 65.2892 66.615 65.3739C66.9282 65.2586 66.9166 65.2422 66.6034 65.3621C66.9166 65.2422 66.9212 65.2445 66.608 65.3621C66.9236 65.2445 66.9212 65.2422 66.608 65.3621C66.9236 65.2445 66.9352 65.2492 66.6428 65.3551C66.9677 65.2234 66.963 65.1951 66.6567 65.3175C66.8609 65.2328 66.8609 65.2328 66.6567 65.3175C66.963 65.1904 66.9816 65.2328 66.6753 65.3504C66.9816 65.2328 67.028 65.3198 66.7194 65.4186C67.028 65.3198 66.9769 65.3668 66.6614 65.4609C66.9769 65.3668 66.9259 65.2822 66.6126 65.3927C66.9282 65.2822 66.9027 65.2328 66.5894 65.3551C66.9004 65.2281 66.8957 65.2163 66.5801 65.3339C66.8934 65.2022 66.8888 65.174 66.5941 65.2939C66.9212 65.1457 66.9329 65.1504 66.6312 65.2869C66.9375 65.1528 66.9445 65.1575 66.6382 65.2892C66.9445 65.1552 66.9561 65.1669 66.6498 65.2963C66.9537 65.1646 66.9723 65.1881 66.6683 65.3127C67.0071 65.221 67.0535 65.3104 66.782 65.4351C67.086 65.3457 67.3018 65.6609 67.0001 65.682C67.3041 65.6609 67.2345 65.7338 66.9189 65.7479C67.2345 65.7361 65.7935 63.3181 65.4524 63.8403C65.7912 63.3181 65.4571 62.7441 65.0881 63.3604C65.3596 62.603 65.2529 62.3137 64.747 62.8688C64.9675 61.9162 64.7169 61.5375 63.9326 62.2243C64.4431 61.5187 64.334 61.5234 63.8142 62.2173C64.334 61.5234 64.3294 61.3869 63.798 62.0902C64.2945 61.1188 64.2783 60.6766 63.4754 61.2646C63.9604 60.399 63.6007 60.4931 62.654 61.187C63.3432 60.5543 63.0833 60.653 62.3988 61.2481C63.0833 60.6554 63.1552 60.359 62.4382 60.98C63.2063 60.018 63.3037 59.4276 62.2688 59.8909C63.0183 59.1241 62.8234 59.0441 61.8024 59.6181C62.5194 58.9501 62.2317 58.9712 61.2084 59.5075C62.06 58.9524 61.7931 58.9571 60.9601 59.4817C61.7931 58.9571 61.9068 58.6937 61.039 59.2394C61.9625 58.522 62.0832 58.2138 61.1388 58.6184C62.0739 57.8822 62.0438 57.6305 60.988 58.0351C61.9672 57.4823 61.9788 57.4987 60.9996 58.0539C61.6307 56.9648 60.9787 56.2144 59.6584 56.078C60.2199 55.1442 59.3892 54.4432 58.2476 54.1516C58.5562 53.3401 57.7649 52.7261 56.7787 52.2675C56.8576 51.5924 56.1546 51.0279 55.2682 50.4163C55.1916 49.8682 54.398 49.2261 53.7297 48.5839C53.384 48.0312 52.6971 47.3678 52.1797 46.761C51.6622 46.1541 51.045 45.4955 50.6389 44.9239C50.3002 44.5664 49.8987 44.2065 49.8941 43.983C49.6737 43.8842 48.8406 42.8845 49.1933 43.0092L49.1957 43.0139Z" fill="currentColor"/>
<path d="M65.9844 65.6609C66.3533 65.5691 67.6713 66.4441 67.3511 66.3218C67.6736 66.4441 67.4439 64.5812 67.2328 64.7929C67.4439 64.5812 66.3533 65.5691 65.9844 65.6609Z" fill="currentColor"/>
<path d="M40.9355 43.6294C41.4901 43.5236 42.17 44.3069 42.9752 45.2383C43.4555 45.283 44.2909 46.1039 45.0937 46.7249C45.3536 46.7908 45.8107 47.1413 46.1681 47.4894C46.4628 47.7411 46.8015 48.0798 47.1264 48.3667C47.7668 48.9454 48.4235 49.5099 49.0825 50.0697C49.7438 50.6272 50.4399 51.1729 51.0804 51.7233C51.7788 52.2596 52.5979 52.7418 53.1038 53.3464C53.2616 53.2687 54.3661 53.9885 55.1388 54.96C56.3407 55.5504 57.5427 56.343 57.1738 56.5736C57.5427 56.343 57.552 56.3501 57.1807 56.5783C57.5497 56.3478 57.5566 56.3525 57.1854 56.583C57.8258 56.6112 58.2528 56.9429 57.9836 57.5003C58.5637 57.4462 58.6681 57.7167 58.1901 58.1589C58.6588 58.086 58.5521 58.2719 58.0718 58.5306C58.4198 58.4741 58.2481 58.6059 57.8212 58.787C58.1599 58.6694 58.1391 58.3236 57.7794 58.46C58.5799 58.5047 59.3364 58.6364 59.1647 59.0834C60.1624 59.0598 60.8029 59.2551 60.4548 59.9349C61.318 59.7279 61.499 59.9231 60.956 60.5511C61.7403 60.3277 61.7751 60.5958 61.2507 61.2921C61.9399 61.2827 61.7148 61.9766 61.318 62.8422C61.6754 62.447 61.5199 62.3882 61.1625 62.7669C61.6591 62.2612 61.919 62.0071 61.6266 62.3741C62.2137 61.786 62.4805 61.5438 62.1557 62.0542C62.7427 61.4426 62.8866 61.3603 62.4782 62.0071C63.0862 61.3909 63.1813 61.4473 62.759 62.1812C63.3507 61.6731 63.3391 61.9389 62.9864 62.7575C63.3809 62.1153 63.3112 62.1412 62.9191 62.774C63.2648 61.9719 63.2579 61.7249 62.6847 62.2447C63.1024 61.5367 63.0305 61.5038 62.4643 62.12C62.882 61.4897 62.7636 61.5602 62.2044 62.1718C62.5362 61.659 62.2879 61.8989 61.7241 62.4964C62.0141 62.1295 61.7658 62.3858 61.2902 62.901C61.6359 62.5152 61.441 62.7175 61.1254 63.0656C61.441 62.7175 61.4828 62.4564 61.1347 62.8257C61.499 61.9907 61.6823 61.3415 61.014 61.3509C61.4572 60.497 61.2206 60.1042 60.2576 60.1583C60.5708 59.542 59.9536 59.3797 59.0185 59.3868C59.1299 58.9846 58.392 58.8787 57.6448 58.8058C57.9465 58.7047 57.5845 58.5988 57.3316 58.6835C57.5822 58.5988 57.9233 58.3589 57.603 58.4788C58.0486 58.2648 58.1994 58.0978 57.8096 58.1401C58.204 57.8555 58.1321 57.6603 57.6518 57.705C57.8629 57.2439 57.4708 56.9382 56.9092 56.8817C57.2062 56.6935 57.2202 56.7029 56.9208 56.8911C56.5705 56.1925 55.7119 55.6586 54.8742 55.2916C54.3777 54.6165 53.6143 54.1579 52.8346 53.6827C52.28 53.09 51.4934 52.5936 50.8135 52.0456C50.1452 51.4928 49.4816 50.933 48.8296 50.3591C48.1752 49.7875 47.5301 49.2065 46.9013 48.6067C46.5834 48.3103 46.2493 47.9645 45.9639 47.7034C45.646 47.3718 45.2213 47.0236 44.9522 46.9296C44.1679 46.2968 43.3557 45.4265 42.887 45.3442C42.112 44.3845 41.4553 43.5589 40.9355 43.6247V43.6294Z" fill="currentColor"/>
<path d="M62.1508 62.6775C62.5615 62.1459 63.3991 63.3785 63.1114 63.8631C63.3968 63.3809 64.0512 61.6708 63.6428 62.4259C64.0512 61.6708 62.5591 62.1459 62.1484 62.6775H62.1508Z" fill="currentColor"/>
<path d="M45.3965 93.4867C46.2504 92.6775 47.1205 91.8895 47.9861 91.0945L50.5756 88.7047C51.4319 87.9002 52.2858 87.0981 53.1049 86.2607C53.511 85.8397 53.9147 85.4163 54.2813 84.9694C54.4809 84.7389 54.8753 84.4072 54.8057 84.2825C55.184 83.9462 55.6712 83.5534 55.1793 83.5486C55.7409 83.3134 55.7873 83.2382 55.2002 83.4851C55.7873 83.2382 55.8847 83.1794 55.2559 83.4428C56.2954 82.8736 57.8919 82.0879 56.5437 82.4196C58.5161 81.5234 59.8248 80.9165 57.6042 81.2082C60.1844 80.3591 60.7205 79.9451 58.2237 79.7404C60.8481 79.3994 60.5395 79.0113 58.3861 78.1221C60.5418 78.7455 60.442 78.5949 58.3861 77.8681C60.442 78.5973 60.9247 78.7149 58.6298 77.9151C61.1451 78.7572 62.3331 79.0701 59.9849 78.0022C61.3446 78.5173 62.1313 78.7972 62.3424 78.7549C62.5536 78.7125 62.1916 78.355 61.2542 77.5929C62.3262 78.2774 62.9086 78.5855 63.0455 78.4773C63.2056 78.3456 62.9643 77.7599 62.3099 76.7179C63.0687 77.647 63.4516 78.0375 63.5142 77.9151C63.6813 77.6917 63.6651 76.8425 63.2033 75.6217C63.7161 76.772 63.8066 77.4729 63.7254 77.5458C63.8136 77.4588 63.7393 76.739 63.2288 75.5865C63.7393 76.739 63.8228 77.4518 63.7416 77.5294C63.8344 77.4471 63.7695 76.7273 63.2683 75.5747C63.8089 76.7155 63.9365 77.3835 63.9157 77.4329C64.1036 77.2847 64.2336 76.445 63.8832 75.2807C64.3101 76.398 64.3101 77.0919 64.2359 77.1483C64.4679 76.9343 64.7208 76.0075 64.454 74.862C64.8345 75.9158 64.8554 76.4803 64.7371 76.4779C65.1687 76.0757 65.6977 74.9772 65.5191 73.8929C65.7813 74.8949 65.4843 75.73 65.1153 75.9816C65.5028 75.7558 65.8323 74.949 65.5771 73.9517C65.7534 75.0337 65.2151 76.1486 64.7858 76.5626C64.9158 76.5767 64.9111 76.0216 64.5654 74.9914C64.8067 76.1204 64.5329 77.0589 64.3032 77.2777C64.3774 77.2306 64.3913 76.5462 64.0015 75.4594C64.3171 76.5979 64.1663 77.4447 63.9806 77.5976C63.9853 77.5623 63.8623 76.9178 63.3379 75.8146C63.8182 76.9343 63.8901 77.6258 63.8205 77.6964C63.911 77.6094 63.8692 76.8896 63.4028 75.7676C63.8205 76.9601 63.8043 77.8163 63.6418 78.0492C63.5815 78.1809 63.2381 77.8069 62.535 76.9272C63.136 77.9222 63.3495 78.4961 63.1847 78.642C63.0409 78.7643 62.4747 78.5008 61.4305 77.901C62.3378 78.5855 62.6789 78.9125 62.4468 78.9666C62.2148 79.0207 61.4096 78.7996 60.0243 78.3903C62.3981 79.2582 61.1613 78.9666 58.5532 78.3244C60.927 78.9242 61.275 78.8842 58.7968 78.1174C61.282 79.1642 61.4746 79.5193 58.6367 79.8392C61.3446 80.0933 60.6973 80.4955 57.9661 81.4505C60.3167 81.0836 58.9082 81.761 56.8245 82.7418C58.2585 82.3396 56.5901 83.1794 55.4926 83.7815C56.1678 83.4757 56.3163 83.3464 55.5692 83.678C56.2212 83.631 55.604 84.1085 55.1283 84.5083C55.2698 84.5907 54.7895 84.9788 54.5691 85.2164C54.1862 85.675 53.7662 86.0937 53.3485 86.5124C52.5039 87.338 51.6361 88.1307 50.7543 88.9093C49.8749 89.6902 48.9838 90.4547 48.0882 91.2145L45.3988 93.4914L45.3965 93.4867Z" fill="currentColor"/>
<path d="M65.9268 74.6268C66.1217 75.5771 65.8989 75.9299 65.5323 75.817C66.1078 75.1795 66.6159 74.0058 66.3212 73.1449C66.6159 74.0058 65.9384 74.9043 65.226 75.2877C65.3722 75.1607 65.2074 74.6056 64.8594 73.5401C65.2074 74.6033 65.1494 75.65 64.987 76.1322C65.5114 76.1581 66.1217 75.5794 65.9268 74.6268Z" fill="currentColor"/>
<path d="M75.9387 38.7048C75.7786 39.982 75.535 41.2499 75.2844 42.513C75.1567 43.1434 75.0198 43.7738 74.8829 44.4018C74.746 45.0298 74.6068 45.6579 74.4722 46.2859C74.333 46.9139 74.1868 47.5443 74.0731 48.17C73.9223 48.8122 73.6021 49.6307 73.7111 50.0588C73.3793 50.8562 72.9639 51.7595 73.4095 51.9571C72.8015 52.9238 72.4395 53.7353 73.189 53.8623C72.3931 54.2881 72.3955 54.274 73.189 53.8459C72.3746 55.0596 72.7319 55.937 73.8271 56.4592C73.0823 56.6215 73.2378 56.812 73.9385 56.6756C73.2378 56.8096 72.9268 56.8637 73.7065 56.7438C72.7319 56.9202 72.2562 56.9861 73.0568 57.0166C71.943 57.1813 71.6784 57.3107 72.6461 57.4918C71.5671 57.6258 71.5833 57.8211 72.6275 58.1598C71.6552 58.1998 71.8362 58.4162 72.8433 58.8655C71.9105 58.6067 72.0033 58.7549 72.9106 59.0372C72.0033 58.7573 71.8037 58.7855 72.7412 59.0866C71.69 58.8184 71.4766 58.849 72.3699 59.2842C71.3095 58.9995 71.212 59.0936 72.1332 59.6393C71.0728 59.43 71.1099 59.7381 71.9708 60.5755C71.096 60.0063 71.096 60.0251 71.9708 60.5967C71.0983 60.0251 71.0937 60.0369 71.9662 60.6108C70.9591 60.4485 71.0055 61.14 71.5972 62.1703C70.922 61.5822 70.8547 63.4428 71.3072 63.7651C70.8547 63.4428 70.7781 63.4146 71.2283 63.7533C70.7781 63.417 70.7549 61.5305 71.4278 62.1444C70.8106 61.0859 70.7271 60.3685 71.7272 60.5355C70.8524 59.9428 70.8501 59.9733 71.7225 60.5684C70.857 59.6981 70.7944 59.3665 71.8641 59.5335C70.9406 58.9548 71.0403 58.8255 72.1634 59.0583C71.2677 58.6138 71.5346 58.5644 72.6507 58.7761C71.6761 58.5197 71.5717 58.6961 72.5486 58.9948C71.4905 58.4985 71.2979 58.268 72.2934 58.2327C71.2051 57.8446 71.1703 57.6 72.3026 57.3742C71.3188 57.1342 71.6622 56.9367 72.8549 56.6944C72.0497 56.6897 72.5695 56.6026 73.6021 56.3627C72.783 56.5344 72.6298 56.7791 73.4814 56.6473C72.4395 56.4239 72.1031 56.0193 72.9407 55.2972C71.8989 55.2337 71.9012 54.7256 72.7644 53.8412C71.9058 54.3093 71.9058 54.3046 72.7644 53.8341C71.9058 54.3046 71.9082 54.2951 72.7644 53.8247C71.9523 53.7471 72.3026 52.912 72.9825 51.8959C72.4674 51.7571 72.899 50.8209 73.2958 49.9836C73.1217 49.6025 73.4884 48.744 73.681 48.0853C73.7645 47.4902 73.9687 46.8293 74.1172 46.2012C74.1172 46.2012 74.3516 45.2651 74.5882 44.3289L75.0593 42.4565C75.3795 41.2122 75.6719 39.9609 75.9364 38.7001L75.9387 38.7048Z" fill="currentColor"/>
<path d="M70.555 63.4216C70.1118 62.9112 70.7987 64.7953 71.105 64.8518C70.801 64.7953 71.5667 63.4052 72.0517 63.6545C71.5667 63.4052 70.1118 62.9112 70.555 63.4216Z" fill="currentColor"/>
<path d="M87.3729 38.6085C86.5376 40.5397 85.6257 42.4355 84.665 44.3055C84.426 44.7736 84.1847 45.2394 83.941 45.7051C83.6974 46.1708 83.4514 46.6342 83.2032 47.0976C82.9549 47.561 82.7136 48.0996 82.4583 48.4854C82.2193 49.017 82.0105 49.6944 81.7065 49.8685C81.7668 50.1413 81.4814 51.1034 80.9524 51.2492C80.776 52.3971 80.5509 53.2933 80.1982 52.63C80.5532 53.2909 80.008 54.7046 79.4464 54.0107C79.7922 55.1045 79.6831 55.6055 78.7201 55.4056C79.4789 56.0007 79.1888 56.6193 77.9938 56.8028C78.5275 57.7883 78.0379 58.3599 77.2675 58.2C77.8314 58.7504 77.3279 59.1314 76.5227 59.5901C76.8916 59.9218 76.293 60.3475 75.7245 60.952C76.0354 60.7568 76.0401 60.7498 75.7291 60.945C76.0424 60.7498 75.7964 61.1332 75.5551 61.3237C75.7964 61.1332 75.6874 61.0979 75.4785 61.2908C75.6874 61.1002 75.8962 60.7098 75.6293 60.905C75.8985 60.7098 75.8985 60.7074 75.6293 60.905C75.8985 60.7098 75.9008 60.7051 75.6317 60.9003C76.1306 60.284 76.6573 59.8442 76.3463 59.5007C77.0494 59.0303 77.5042 58.6351 77.0262 58.08C77.6991 58.2329 78.1725 57.6425 77.7084 56.6593C78.8408 56.4405 79.1146 55.7937 78.3906 55.2386C79.3118 55.3844 79.4186 54.8693 79.096 53.8249C79.8432 54.0389 79.9383 53.4321 79.8316 52.43C80.3931 52.59 80.5068 51.9031 80.5788 51.0422C80.9802 51.0258 81.1403 50.3248 81.3329 49.6591C81.7181 49.2757 82.0105 48.4431 82.3469 47.8221C82.6857 47.2105 83.0245 46.5989 83.3633 45.985C84.7184 43.5364 86.0689 41.0877 87.3729 38.6085Z" fill="currentColor"/>
<path d="M74.944 60.7239C74.8999 60.5004 74.9394 62.1587 74.9556 62.2575C74.9394 62.1564 76.7864 61.2766 76.2597 61.4813C76.7864 61.279 74.8999 60.5028 74.944 60.7239Z" fill="currentColor"/>
<path d="M31.3008 61.6919C32.751 61.9107 34.1967 62.16 35.6423 62.4046L39.9745 63.1903C42.8611 63.7242 45.7384 64.3123 48.6203 64.8768C51.4999 65.4601 54.3726 66.06 57.2569 66.6104C57.9762 66.7539 58.6978 66.8973 59.4172 67.0432C60.1365 67.189 60.9834 67.3466 61.5751 67.4877C62.4035 67.6383 63.4616 67.85 63.7308 67.9464C64.8098 68.1393 65.7936 68.3769 65.8888 68.3816C66.4294 68.4921 66.4248 68.5345 65.8818 68.4239C65.9816 68.5392 65.3481 68.3628 64.4641 68.1158C64.4432 68.2334 63.7424 68.1017 62.9859 67.9535C62.8212 67.9417 62.1436 67.7841 61.5612 67.6712C61.1807 67.6265 60.582 67.5207 60.0994 67.4336C59.619 67.3466 59.1364 67.2596 58.6561 67.1725C58.1757 67.0855 57.6931 67.0032 57.2105 66.9232C54.3215 66.4128 51.4396 65.8318 48.56 65.2602L31.3008 61.6896V61.6919Z" fill="currentColor"/>
<path d="M65.6016 69.0543C66.1608 69.139 67.2096 68.7344 66.6829 68.6003C67.2119 68.7344 66.358 67.8147 65.8452 67.7018C66.358 67.817 66.1608 69.139 65.6016 69.0543Z" fill="currentColor"/>
<path d="M108.696 39.3979C107.346 40.5411 105.979 41.6608 104.612 42.7828L100.482 46.1088C97.723 48.3198 94.9315 50.4862 92.154 52.6714C89.3649 54.8425 86.5665 56.9971 83.7982 59.194C83.1021 59.7374 82.406 60.2831 81.7098 60.8265C81.0137 61.3698 80.313 61.9508 79.6145 62.4495C78.9207 63.0281 78.1109 63.7644 77.5099 64.0607C76.7488 64.804 75.8044 65.672 75.4192 65.6908C75.1779 66.1801 75.1524 66.1448 75.3914 65.6579C75.5213 65.7355 76.1548 65.178 76.779 64.6017C77.0226 64.43 77.6282 63.8443 78.1109 63.3951C78.5286 63.1104 79.0298 62.6965 79.4869 62.3154C79.944 61.9343 80.4011 61.5439 80.8606 61.1746C81.7771 60.436 82.6937 59.6951 83.6056 58.9447C86.3506 56.7172 89.1398 54.5414 91.9196 52.3633L108.696 39.3979Z" fill="currentColor"/>
<path d="M75.1611 64.9875C74.9499 65.4368 74.3512 66.7893 74.6111 66.2483C74.3512 66.7893 75.711 66.587 75.9616 66.1001C75.711 66.5846 74.9499 65.4344 75.1587 64.9875H75.1611Z" fill="currentColor"/>
<path d="M29.0898 67.0764C30.8487 67.1211 32.6053 67.1964 34.3618 67.2646L39.6291 67.5281C43.1399 67.7139 46.6484 67.9538 50.1591 68.1702C52.4981 68.3278 54.8371 68.4925 57.1737 68.643C58.3432 68.7183 59.5127 68.7912 60.6822 68.8594C61.6057 68.9253 62.8425 69.0617 63.3135 69.0311C64.5109 69.1746 65.736 69.311 65.9449 69.2146C67.2907 69.4192 68.2746 69.5039 68.5739 69.4145C69.7179 69.6168 70.4627 69.6545 71.2053 69.5886C71.1658 69.6897 71.1635 69.7274 71.2053 69.6309C70.6855 69.7791 70.2075 69.7415 69.4765 69.4945C69.2422 69.7227 68.683 69.6992 67.6922 69.5086C67.6968 69.6568 67.0332 69.5768 65.9565 69.3981C65.9843 69.5416 65.1908 69.4686 64.1814 69.3369C64.1002 69.4122 63.2532 69.3275 62.4248 69.2522C62.1162 69.2734 61.3041 69.2075 60.6683 69.177C59.4965 69.1229 58.327 69.0617 57.1552 68.9935C54.8139 68.8594 52.4749 68.7065 50.1359 68.5583L29.0922 67.0741L29.0898 67.0764Z" fill="currentColor"/>
<path d="M70.9453 70.2872C70.9476 70.3037 71.9501 69.7815 72.1798 69.7086C71.9524 69.7815 71.066 69.09 71.0683 68.9159C71.066 69.0923 70.95 70.3037 70.9453 70.2896V70.2872Z" fill="currentColor"/>
<path d="M110.591 53.6713C108.999 54.4287 107.394 55.1556 105.793 55.8918L100.964 58.0417C97.7408 59.4671 94.4969 60.8408 91.2622 62.238C89.0996 63.1577 86.937 64.068 84.7767 64.9924C83.6977 65.4535 82.6187 65.9192 81.5421 66.3897C80.7322 66.7354 79.6927 67.1776 79.1126 67.427C78.1148 67.8504 76.9221 68.3796 76.6785 68.4549C75.4417 69.0053 74.4323 69.4851 74.2374 69.4687C73.061 70.052 72.3161 70.4025 71.8079 70.506C71.6757 70.6918 71.6618 70.6565 71.7917 70.466C72.0655 70.3931 72.5435 70.1885 73.3974 69.805C73.4276 69.7604 74.0007 69.464 74.9869 68.9818C74.9243 69.0453 75.6111 68.7371 76.588 68.2926C76.5973 68.2785 77.3769 67.9139 78.203 67.5422C78.4025 67.4552 79.1776 67.1071 79.811 66.8225C80.2357 66.6319 80.8807 66.3403 81.4168 66.0956C82.4888 65.6134 83.5631 65.1383 84.6398 64.6678C86.7931 63.727 88.9534 62.8026 91.1114 61.8781L110.591 53.6713Z" fill="currentColor"/>
<path d="M71.7317 69.758C71.6018 70.0403 70.9358 70.9506 70.8848 70.8353C70.9381 70.9506 72.0287 71.1623 72.2283 71.0423C72.0287 71.1623 71.6041 70.0426 71.7317 69.758Z" fill="currentColor"/>
<path d="M96.3811 103.43C95.2858 102.28 94.2115 101.108 93.1325 99.9391L89.9373 96.3967C87.8141 94.028 85.7304 91.6241 83.6281 89.2343C81.5421 86.8327 79.4676 84.4193 77.356 82.0412C76.8316 81.4414 76.2886 80.804 75.7874 80.2442C75.2491 79.6091 74.5599 78.7293 74.2258 78.4377C73.5622 77.5744 72.88 76.6782 72.6758 76.6218C71.9564 75.5915 71.4204 74.8459 71.1072 74.8223C70.9703 74.3495 70.9981 74.319 71.1373 74.7918C71.3601 74.5989 71.685 75.0858 72.1537 75.989C72.344 75.7632 72.7639 76.2995 73.3069 77.1134C73.4183 77.0169 73.8545 77.6238 74.3441 78.2965C74.5553 78.3718 75.031 78.9693 75.4394 79.4703C75.7294 79.7455 76.1471 80.2536 76.5068 80.6487C76.8641 81.0416 77.2215 81.432 77.5811 81.8201C79.7205 84.1723 81.8112 86.5739 83.9089 88.9661L96.3787 103.425L96.3811 103.43Z" fill="currentColor"/>
<path d="M71.7539 74.486C71.5543 74.0132 70.5218 73.705 70.5658 74.119C70.5218 73.705 70.6146 74.9211 70.7352 75.3963C70.6146 74.9211 71.5543 74.0132 71.7539 74.486Z" fill="currentColor"/>
<path d="M86.135 102.591C85.8798 102.207 85.6268 101.824 85.4157 101.41C85.2045 101.001 85.0189 100.563 84.9516 100.09L84.9725 100.14C84.5827 99.7327 84.2044 99.2834 83.9793 98.7354C83.868 98.4625 83.796 98.1638 83.7891 97.8627C83.7798 97.5616 83.8308 97.2606 83.919 96.9783L84.0025 97.1712C83.7055 97.0395 83.4155 96.8772 83.151 96.6725C82.8888 96.4679 82.6498 96.2138 82.4757 95.9198C82.2994 95.6258 82.1671 95.2588 82.1091 94.9766C82.0186 94.6096 81.9165 94.1063 81.9792 93.9934C81.8979 93.7864 82.0557 94.0169 82.1184 94.1768C81.7958 93.9393 81.4988 93.657 81.3921 93.7958C81.0812 93.3347 80.8375 92.9302 80.8282 93.2218C80.3781 92.3374 79.9488 91.4106 80.0161 91.9023C79.7376 91.0225 79.7585 91.0531 80.0323 91.9258C79.4986 90.6885 78.8118 89.877 79.1459 90.6674C78.3593 89.2302 77.7491 88.6186 78.2642 89.4042C77.5565 88.3387 77.5657 88.3481 78.2735 89.416C77.7351 88.0517 77.0808 87.9929 76.1271 88.915C76.2988 87.7153 76.2872 87.3625 76.0853 87.8894C76.0737 87.2802 75.3962 87.7295 74.5051 88.5527C75.2964 87.713 75.8834 87.2614 75.8602 87.8024C75.8811 87.259 75.2987 87.6542 74.4773 88.4304C75.373 87.5719 76.0505 87.0708 75.9879 87.5954C76.083 87.0167 75.6908 87.2543 74.8949 87.9741C75.8486 87.0591 76.4566 86.5745 76.2965 86.9556C76.0087 86.6945 76.2292 86.431 76.2918 86.3228C76.1457 86.2217 76.0227 86.1558 75.8672 85.8101C75.8208 86.0006 75.5238 86.0594 75.2453 85.4267C75.4078 85.9982 75.2685 85.9912 75.0852 85.3443C75.2662 85.9912 75.4124 85.8312 75.178 85.1961C75.4542 85.763 75.6769 85.516 75.3265 84.7986C75.6978 85.3584 75.779 85.1656 75.2732 84.3729C75.6932 84.9139 75.5725 84.6199 74.7812 83.5637C75.4472 84.4576 75.4379 84.4458 74.7697 83.5473C75.4379 84.4434 75.4356 84.4317 74.765 83.5331C75.3057 84.1235 75.0783 83.3708 74.0178 82.1195C74.8764 83.0321 73.9691 81.3244 73.1895 80.7317C73.9691 81.3244 74.0318 81.2797 73.2544 80.6893C74.0318 81.2797 75.0295 82.9145 74.1571 82.0277C75.2477 83.2438 75.5331 83.9565 74.9878 83.432C75.6816 84.2764 75.67 84.2529 74.9692 83.4038C75.8069 84.4152 75.9623 84.7092 75.54 84.2717C76.0807 85.0127 75.9925 85.2526 75.6282 84.8292C75.9739 85.4737 75.6885 85.7865 75.4472 85.3679C75.6352 85.8736 75.6398 85.7066 75.3822 85.1373C75.7721 85.7701 76.0969 85.7019 76.0714 85.5349C76.3359 85.8806 76.5053 85.9583 76.626 86.1817C76.6422 86.2664 76.3684 86.6216 76.6585 87.0614C76.2849 86.9203 75.7581 87.3366 76.3174 87.8118C76.3104 87.1696 75.786 87.4942 74.9437 88.3105C75.7581 87.3931 76.2849 86.9626 76.2199 87.5201C75.9183 87.3531 76.6863 87.2426 77.5077 88.167C77.1597 87.5601 77.7862 87.8094 78.5914 89.1384C77.9973 88.0588 78.0043 88.0658 78.596 89.1455C78.002 88.0658 78.0066 88.0705 78.6006 89.1502C78.2062 88.3528 78.7909 88.9597 79.4917 90.4086C79.2504 89.6112 79.849 90.4157 80.3758 91.6717C80.1043 90.7826 80.1135 90.7991 80.385 91.6859C80.1135 90.8014 80.1205 90.8155 80.392 91.6976C80.3363 91.2037 80.7029 92.0857 81.1554 92.9607C81.2482 92.7961 81.7169 93.4359 82.2344 93.7911C82.1393 93.57 82.2808 93.6335 82.369 93.8334C82.2785 93.6335 82.2971 93.8005 82.3736 93.9745C82.3203 94.4073 82.492 95.2141 82.7867 95.7293C83.0744 96.2491 83.5756 96.6208 84.1279 96.8842L84.2555 96.9454L84.2114 97.0771C84.1255 97.3311 84.0745 97.5946 84.0698 97.8604C84.0652 98.1262 84.1163 98.3896 84.2091 98.6437C84.397 99.1494 84.7335 99.601 85.0955 100.024L85.1163 100.048V100.074C85.1558 100.518 85.3113 100.956 85.4969 101.372C85.6872 101.789 85.9053 102.193 86.1327 102.593L86.135 102.591Z" fill="currentColor"/>
<path d="M73.9787 80.4823C74.7374 81.1715 73.1967 80.1013 72.6328 79.7814C73.1967 80.1013 73.4774 82.0701 72.7071 81.315C73.4774 82.0724 74.7374 81.1715 73.9787 80.4823Z" fill="currentColor"/>
<path d="M59.7598 106.892C60.4443 102.858 61.5279 98.8805 62.7554 94.9853C62.8529 94.6725 63.3053 94.322 63.5304 94.616C63.361 94.6419 63.1916 94.6678 63.0223 94.6913C63.4167 93.2847 63.8089 91.8781 64.2033 90.4714C64.2265 90.3844 64.2799 90.2809 64.389 90.288C64.498 90.295 64.4563 90.4856 64.3797 90.415C64.2242 89.3518 64.2428 88.2862 64.44 87.2607C64.5909 87.3759 64.7417 87.4912 64.8925 87.6088C64.7672 87.3759 64.6419 87.1407 64.5189 86.9079C64.6396 87.1595 64.7602 87.4112 64.8809 87.6653L64.4145 86.6209C64.3774 86.7597 64.7718 87.1149 64.8507 87.1737C64.7904 86.8467 64.4864 86.4045 64.0363 86.4115C64.5584 86.3551 65.1037 86.889 64.9505 87.3054C65.0457 86.8185 64.6117 86.2563 64.0247 86.1034C64.5468 85.9505 65.222 86.5127 65.048 86.9549C65.1501 86.4139 64.679 85.7906 64.034 85.6071C64.2428 85.4213 64.628 85.3954 64.9134 85.5483C65.1988 85.7012 65.3519 86.0164 65.2661 86.2681C65.4308 85.6259 64.8206 84.8497 64.0247 84.6897C64.3124 84.5533 64.6164 84.4122 64.9598 84.4169C65.3032 84.4216 65.7 84.6239 65.7557 84.9155C65.6188 84.2875 64.8183 83.7606 64.0827 83.8147C64.7069 83.5489 65.4424 83.4431 66.1757 83.5136C65.9228 83.0103 65.3218 82.6198 64.6953 82.5539C65.2847 82.4528 65.8764 82.354 66.4657 82.2529C66.1664 82.0953 65.8648 81.9377 65.5654 81.7801C66.0643 81.7213 66.5168 81.5072 66.8208 81.1873C66.5493 81.0297 66.3196 80.8627 66.1873 80.6228C66.4773 80.604 66.8092 80.524 67.0041 80.3452C67.8998 79.5196 68.039 77.6473 68.3963 76.5605C68.4056 77.6802 68.097 78.7716 67.5006 79.7195C67.2895 80.0559 67.0366 80.3923 67.0296 80.7898C67.0273 80.9944 67.0899 81.2038 67.0574 81.4037C66.9925 81.8059 66.4913 82.0835 66.004 81.9871C66.2291 82.1282 66.4541 82.2693 66.6792 82.4081C66.3613 82.6527 65.939 82.8009 65.4912 82.8292C65.8903 82.9185 66.2592 83.1608 66.4657 83.4689C66.004 83.5254 65.5608 83.6454 65.1594 83.8241C65.6745 84.0029 66.0991 84.4028 66.2453 84.8497C65.8253 84.6639 65.3032 84.7086 64.9876 84.9532C65.4703 85.2402 65.8091 85.7035 65.881 86.1763C65.7163 85.9388 65.3473 85.807 65.0596 85.8847C65.3311 86.1387 65.526 86.4492 65.6211 86.7691C65.4749 86.6138 65.1918 86.8937 65.3937 86.9949C65.4401 86.6374 66.2105 86.9196 66.2105 86.9196C66.2105 86.9196 65.454 86.8161 65.4749 87.2677C64.2915 92.2121 62.7183 97.0364 61.2332 101.894L60.4861 104.389C60.2447 105.227 60.0034 106.062 59.7667 106.899V106.894L59.7598 106.892Z" fill="currentColor"/>
<path d="M69.3682 76.8193C69.5214 77.5202 68.7765 74.9963 68.7603 74.9046C68.7788 74.9963 67.3193 76.5441 67.1406 76.1277C67.3193 76.5441 69.5237 77.5202 69.3705 76.8169L69.3682 76.8193Z" fill="currentColor"/>
<path d="M17.541 74.1268C21.2838 73.7857 25.015 73.1812 28.7579 72.7907C32.38 72.412 36.0254 72.1933 39.6823 71.991C41.2254 71.9063 42.7662 71.8193 44.3092 71.7346C45.1121 71.6899 45.915 71.5817 46.7178 71.6523C47.0937 71.6852 47.465 71.7416 47.8409 71.7816C48.2168 71.8216 48.5788 71.871 48.9385 71.8263C49.0081 71.8169 49.1659 71.7816 49.1659 71.7816C49.1659 71.7816 49.0382 71.7416 48.9918 71.7346C48.9245 71.7252 48.8549 71.7205 48.7876 71.7111C48.7018 71.6993 48.6136 71.6852 48.5301 71.6617C48.486 71.6499 48.4001 71.6334 48.3746 71.5911C48.3607 71.5652 48.3839 71.5252 48.3839 71.5252C48.3839 71.5252 51.5071 71.8287 51.2473 71.5182C50.9874 71.2077 51.6835 71.2453 51.6835 71.2453L48.9269 71.3183C48.9269 71.3183 49.2888 71.45 49.4814 71.4594C50.224 71.4994 50.9502 71.323 51.6835 71.243C51.7067 71.2406 51.7276 71.2383 51.7508 71.2359C52.4724 71.1654 53.1941 71.0689 53.9157 70.9889C55.4263 70.8196 56.9392 70.6643 58.4521 70.5303C61.464 70.2598 64.4829 70.0575 67.504 69.9234C64.4573 70.2856 61.4106 70.6596 58.3663 71.043C55.6537 71.3841 52.9435 71.7393 50.2309 72.0733C49.8875 72.1156 49.2053 72.0098 49.2053 72.0098L49.2494 72.1745C49.2494 72.1745 49.0336 72.118 48.9245 72.0898C48.8155 72.0615 48.7528 72.2662 48.7528 72.2662C48.7528 72.2662 48.8178 72.1204 48.7528 72.0921C48.6878 72.0639 48.602 72.1368 48.6229 72.2074C47.9662 72.2356 47.3095 72.2615 46.6505 72.2897C44.9056 72.4426 43.156 72.5555 41.4041 72.6331C40.0374 72.6919 38.1346 73.1059 36.9141 72.4003C37.1229 72.5202 36.805 72.7931 36.5637 72.8048C30.2151 73.1106 23.8734 73.5528 17.5433 74.1315L17.541 74.1268Z" fill="currentColor"/>
<path d="M66.9857 71.0736C67.2432 71.1512 69.5544 70.0104 69.4778 69.7423C69.6425 69.9751 68.9905 69.7705 67.9765 69.3306C67.8582 69.3565 67.2154 69.0625 66.8047 68.7191C67.1156 69.1401 67.2432 71.1536 66.9857 71.076V71.0736Z" fill="currentColor"/>
<path d="M124.837 65.719C121.092 66.0483 117.314 66.1189 113.564 66.4012C109.815 66.6834 106.306 67.1068 102.672 67.5584C101.139 67.749 99.6072 67.9395 98.0734 68.13C97.2775 68.2288 96.4654 68.2641 95.6881 68.4782C95.3238 68.5769 94.9664 68.6993 94.6067 68.8051C94.2471 68.911 93.8944 69.0239 93.5347 69.045C93.4628 69.0497 93.305 69.0403 93.305 69.0403C93.305 69.0403 93.4233 68.9768 93.4674 68.9627C93.5324 68.9415 93.5997 68.9251 93.6647 68.9039C93.7482 68.8757 93.8317 68.8475 93.9106 68.8098C93.9524 68.791 94.0336 68.7604 94.0498 68.711C94.0591 68.6828 94.029 68.6475 94.029 68.6475C94.029 68.6475 91.0078 69.5014 91.2073 69.1485C91.4069 68.7957 90.7317 68.958 90.7317 68.958L93.4581 68.5393C93.4581 68.5393 93.124 68.7322 92.936 68.7769C92.2121 68.9486 91.4672 68.9039 90.7317 68.9557C90.7085 68.9557 90.6876 68.958 90.6644 68.9604C89.9404 69.0192 89.2141 69.0521 88.4902 69.1015C86.9749 69.2026 85.4597 69.3202 83.9445 69.4567C80.9326 69.7272 77.9253 70.0635 74.9297 70.4681C77.9926 70.2823 81.0556 70.1082 84.1208 69.9436C86.8496 69.7977 89.5784 69.6637 92.3072 69.5108C92.653 69.492 93.305 69.2661 93.305 69.2661L93.2911 69.4355C93.2911 69.4355 93.4929 69.3414 93.5974 69.292C93.7018 69.2426 93.7969 69.4355 93.7969 69.4355C93.7969 69.4355 93.7087 69.3038 93.7668 69.2638C93.8248 69.2238 93.9222 69.2803 93.9153 69.3532C94.5673 69.2638 95.2193 69.1721 95.8714 69.0827C97.6163 68.9227 99.3589 68.7228 101.095 68.4876C102.45 68.3041 104.394 68.37 105.473 67.4597C105.288 67.6149 105.65 67.8266 105.889 67.796C112.191 66.968 118.512 66.2741 124.842 65.7167L124.837 65.719Z" fill="currentColor"/>
<path d="M75.6297 71.5102C75.3884 71.6325 72.9148 70.9198 72.945 70.6422C72.8244 70.9009 73.4277 70.5834 74.3512 69.9695C74.4742 69.9718 75.0543 69.5696 75.3977 69.158C75.1656 69.6284 75.3884 71.6325 75.6274 71.5102H75.6297Z" fill="currentColor"/>
<path d="M109.738 75.2901C106.816 74.9279 103.911 74.3022 100.992 73.8882C98.166 73.4883 95.3212 73.2484 92.4647 73.025C91.2605 72.9309 90.0562 72.8368 88.8519 72.7403C88.2254 72.691 87.5989 72.578 86.9677 72.6439C86.673 72.6745 86.3806 72.7286 86.0883 72.7686C85.7959 72.8086 85.5082 72.8532 85.2297 72.8086C85.174 72.7991 85.0534 72.7615 85.0534 72.7615C85.0534 72.7615 85.1531 72.7215 85.1903 72.7145C85.2436 72.7074 85.297 72.7027 85.3504 72.6933C85.4177 72.6815 85.4873 72.6674 85.5546 72.6463C85.5894 72.6345 85.6567 72.6204 85.6776 72.5757C85.6892 72.5498 85.6706 72.5098 85.6706 72.5098C85.6706 72.5098 83.2202 72.7944 83.4314 72.484C83.6402 72.1758 83.0973 72.2087 83.0973 72.2087L85.2529 72.2981C85.2529 72.2981 84.9675 72.4275 84.8144 72.4369C84.2319 72.4722 83.6681 72.2911 83.0973 72.2087C83.0787 72.2064 83.0625 72.204 83.0439 72.2017C82.48 72.1264 81.9185 72.0276 81.3546 71.9406C80.1759 71.7618 78.9971 71.5995 77.816 71.4537C75.4654 71.1644 73.1102 70.9456 70.748 70.7927C73.1241 71.1738 75.4979 71.5642 77.8717 71.9665C79.9856 72.324 82.0972 72.6933 84.2134 73.0438C84.4825 73.0885 85.0162 72.9873 85.0162 72.9873L84.9791 73.152C84.9791 73.152 85.1485 73.0979 85.2367 73.0673C85.3249 73.0367 85.3666 73.2461 85.3666 73.2461C85.3666 73.2461 85.3202 73.1002 85.3713 73.072C85.4223 73.0438 85.4873 73.1167 85.471 73.1873C85.9838 73.2178 86.499 73.2484 87.0118 73.2813C88.3739 73.4437 89.7406 73.5683 91.1073 73.6553C92.1747 73.7236 93.6551 74.147 94.6251 73.4484C94.458 73.566 94.7016 73.8412 94.8896 73.8553C99.8483 74.1987 104.8 74.6786 109.738 75.2925V75.2901Z" fill="currentColor"/>
<path d="M71.1256 71.943C70.9214 72.0182 69.1394 70.8656 69.2043 70.5975C69.0721 70.828 69.5849 70.6281 70.3877 70.1953C70.4806 70.2211 70.9887 69.9318 71.3182 69.5908C71.0676 70.0095 70.9214 72.0229 71.1256 71.9453V71.943Z" fill="currentColor"/>
<path d="M71.2178 17.9815C71.1203 21.7897 70.763 25.6026 70.6168 29.4132C70.4752 33.1014 70.4915 36.8038 70.524 40.5156C70.5379 42.0821 70.5518 43.6463 70.5657 45.2129C70.5727 46.0268 70.517 46.8477 70.6377 47.6568C70.6934 48.0332 70.7723 48.4072 70.8372 48.7835C70.9022 49.1599 70.9718 49.5245 70.9509 49.8914C70.9463 49.9643 70.9208 50.1243 70.9208 50.1243C70.9208 50.1243 70.872 49.9996 70.8628 49.9502C70.8488 49.882 70.8396 49.8138 70.8256 49.7456C70.8071 49.6585 70.7885 49.5715 70.7607 49.4868C70.7467 49.4445 70.7259 49.3575 70.6794 49.3339C70.6539 49.3198 70.6145 49.3481 70.6145 49.3481C70.6145 49.3481 71.111 52.4882 70.7885 52.246C70.466 52.0037 70.5472 52.7046 70.5472 52.7046L70.4451 49.9102C70.4451 49.9102 70.5982 50.2678 70.6214 50.463C70.7096 51.211 70.5797 51.9566 70.5495 52.7046C70.5495 52.7282 70.5495 52.7493 70.5472 52.7729C70.524 53.5091 70.4753 54.243 70.4404 54.9792C70.3685 56.5176 70.3128 58.0582 70.2757 59.5966C70.2014 62.6615 70.1922 65.7264 70.2525 68.7913C70.4149 65.6864 70.589 62.5792 70.7723 59.4743C70.937 56.7081 71.1134 53.9443 71.2688 51.1804C71.2897 50.8299 71.1412 50.1478 71.1412 50.1478L71.306 50.1831C71.306 50.1831 71.2363 49.969 71.2015 49.8585C71.1667 49.7479 71.364 49.6727 71.364 49.6727C71.364 49.6727 71.2247 49.7479 71.1923 49.6821C71.1598 49.6162 71.2271 49.5268 71.2967 49.5433C71.2827 48.8776 71.2665 48.2096 71.2526 47.5439C71.292 45.768 71.292 43.9921 71.2572 42.2138C71.2294 40.8284 71.5148 38.8761 70.7421 37.6882C70.8744 37.8929 71.1226 37.5518 71.118 37.3072C71.0159 30.8645 71.0484 24.4218 71.2131 17.9815H71.2178Z" fill="currentColor"/>
<path d="M71.3574 68.1962C71.4502 68.4526 70.4733 70.8636 70.2042 70.8024C70.4432 70.953 70.1995 70.3085 69.7029 69.3088C69.7192 69.1865 69.3897 68.5561 69.0254 68.1633C69.4593 68.4502 71.4502 68.4526 71.3574 68.1962Z" fill="currentColor"/>
<path d="M72.1046 118.309C71.9584 116.534 71.8447 114.755 71.7241 112.977L71.4155 107.64C71.2206 104.081 71.079 100.52 70.9143 96.9585C70.7681 93.3973 70.6405 89.8361 70.4595 86.2772C70.42 85.3881 70.3829 84.4966 70.3458 83.6075C70.3086 82.7183 70.2413 81.6928 70.2437 80.9354C70.1741 79.9357 70.0743 78.6137 70.1555 78.2633C70.0232 76.9601 69.9536 75.7676 70.0441 75.5935C69.9095 75.0055 69.949 75.0031 70.0859 75.5912C70.0604 75.5135 70.0859 76.278 70.1392 77.3483C70.1833 77.3671 70.2622 78.235 70.3458 79.1453C70.3342 79.3617 70.3782 80.2132 70.4247 80.9071C70.4641 81.3964 70.5221 82.1091 70.5546 82.7019C70.5894 83.2946 70.6242 83.8874 70.659 84.4801C70.6961 85.0729 70.7333 85.6656 70.7727 86.2584C70.9908 89.8173 71.1393 93.3785 71.2994 96.9397L72.1046 118.309Z" fill="currentColor"/>
<path d="M70.7583 75.7817C70.5819 75.196 69.9275 74.0716 70.0575 74.6009C69.9275 74.0716 69.3034 75.2148 69.3985 75.8052C69.3034 75.2124 70.5796 75.196 70.7583 75.7817Z" fill="currentColor"/>
<path d="M69.2321 126.434C69.3296 122.626 69.6869 118.813 69.8331 115.002C69.9747 111.314 69.9584 107.612 69.9259 103.9C69.912 102.333 69.8981 100.769 69.8842 99.2025C69.8772 98.3887 69.9329 97.5677 69.8122 96.7586C69.7565 96.3822 69.6776 96.0082 69.6127 95.6319C69.5477 95.2555 69.4781 94.8909 69.499 94.524C69.5036 94.4511 69.5291 94.2911 69.5291 94.2911C69.5291 94.2911 69.5779 94.4158 69.5871 94.4652C69.6011 94.5334 69.6103 94.6016 69.6243 94.6698C69.6428 94.7569 69.6614 94.8439 69.6892 94.9286C69.7032 94.9709 69.724 95.0579 69.7705 95.0815C69.796 95.0956 69.8354 95.0673 69.8354 95.0673C69.8354 95.0673 69.3389 91.9272 69.6614 92.1694C69.9839 92.4117 69.9027 91.7108 69.9027 91.7108L70.0048 94.5052C70.0048 94.5052 69.8517 94.1476 69.8285 93.9524C69.7403 93.2044 69.8702 92.4588 69.9004 91.7108C69.9004 91.6872 69.9004 91.6661 69.9027 91.6425C69.9259 90.9063 69.9747 90.1724 70.0095 89.4362C70.0814 87.8978 70.1371 86.3572 70.1742 84.8188C70.2485 81.7539 70.2577 78.689 70.1974 75.6241C70.035 78.729 69.861 81.8362 69.6776 84.9411C69.5129 87.7073 69.3365 90.4712 69.1811 93.235C69.1602 93.5855 69.3087 94.2676 69.3087 94.2676L69.1439 94.2323C69.1439 94.2323 69.2136 94.4464 69.2484 94.5569C69.2832 94.6675 69.0859 94.7427 69.0859 94.7427C69.0859 94.7427 69.2252 94.6675 69.2576 94.7333C69.2901 94.7992 69.2228 94.8886 69.1532 94.8721C69.1672 95.5378 69.1834 96.2058 69.1973 96.8715C69.1579 98.6474 69.1579 100.423 69.1927 102.202C69.2205 103.587 68.9351 105.539 69.7078 106.727C69.5755 106.523 69.3273 106.864 69.3319 107.108C69.434 113.551 69.4015 119.994 69.2368 126.434H69.2321Z" fill="currentColor"/>
<path d="M69.0921 76.2192C68.9993 75.9628 69.9762 73.5518 70.2454 73.613C70.0064 73.4624 70.25 74.1069 70.7466 75.1066C70.7303 75.2289 71.0598 75.8593 71.4241 76.2521C70.9902 75.9652 68.9993 75.9628 69.0921 76.2192Z" fill="currentColor"/>
<path d="M95.9817 45.9278C95.0535 46.7534 93.6474 48.1153 93.5012 48.2141C92.9141 48.8281 90.2201 51.5425 91.0949 50.564C89.5774 52.1658 88.677 53.1208 88.6492 52.8903C87.5099 54.1887 86.9042 54.7626 86.106 55.1319C86.3381 55.2519 86.3311 55.259 86.0968 55.1414C86.3311 55.259 86.3218 55.266 86.0828 55.1508C86.0666 55.4401 85.7719 55.6071 84.8136 55.8141C85.1454 55.8305 84.7231 55.9082 83.3355 56.0352C84.368 55.8846 84.5931 55.7576 83.6278 55.8611C84.4052 56.2187 84.0594 56.7573 82.6695 57.8111C83.5025 57.6794 82.8273 58.3662 81.2494 59.5517C81.9154 59.1848 80.7993 59.9045 79.291 60.7937C79.5509 60.455 78.1494 61.0171 77.075 61.5135C77.4416 61.1841 77.6458 60.923 77.2119 61.2735C77.7734 61.2618 77.741 61.751 77.4323 62.412C77.7363 62.4873 77.372 63.1129 77.1539 63.5481C76.8569 64.1314 75.7617 65.1029 75.5575 65.2887C75.1908 65.5569 75.2001 65.5475 75.5667 65.2793C75.2024 65.5475 74.9124 65.8674 75.3092 65.5663C74.9124 65.8674 74.8219 65.8086 75.221 65.5051C74.8242 65.8086 75.0887 65.4769 75.4577 65.2064C75.0887 65.4769 75.0934 65.4722 75.46 65.204C75.0911 65.4746 75.098 65.4675 75.467 65.1993C75.6387 64.9876 76.6272 64.0138 76.8894 63.4517C77.0379 63.0659 77.3279 62.5108 77.0889 62.4238C77.3001 61.8545 77.2792 61.4076 76.8406 61.4076C77.1562 61.0948 77.0727 60.9089 76.7641 61.2241C77.0727 60.9089 77.3558 60.8337 76.9775 61.1677C78.0449 60.662 79.4209 60.1092 79.0845 60.415C80.5811 59.5588 81.6439 58.9119 80.8828 59.2248C82.4769 58.1333 83.1197 57.51 82.1845 57.5806C83.651 56.6232 83.9991 56.101 83.0941 55.6965C84.1824 55.6447 84.2404 55.5106 83.1684 55.5106C84.2404 55.5106 84.4098 55.5201 83.3865 55.5224C84.6999 55.5365 85.0479 55.4871 84.6186 55.3389C85.5909 55.2966 85.8624 55.1531 85.758 54.7485C86.1014 54.9908 86.0875 55.0026 85.7348 54.7674C86.6583 54.5133 87.2616 53.9394 88.3011 52.5704C88.445 52.8926 89.336 51.9377 90.8095 50.3123C90.668 50.7286 91.9813 49.3549 93.3364 48.0612C93.5545 48.0142 94.9862 46.6828 95.9886 45.9301L95.9817 45.9278Z" fill="currentColor"/>
<path d="M74.6712 64.7571C74.2884 65.0417 73.8962 66.9211 74.3325 66.5448C73.8939 66.9188 75.8477 66.1402 76.205 65.8862C75.8477 66.1402 74.2861 65.0394 74.6689 64.7548L74.6712 64.7571Z" fill="currentColor"/>
<path d="M34.2969 84.9675C34.5637 84.4218 35.6706 84.1936 36.7913 83.9161C37.26 83.5091 38.4017 83.1869 39.2672 82.8176C39.2231 82.8176 40.504 82.2648 41.7407 81.7121L44.2143 80.6065C44.6273 80.4231 45.0404 80.2419 45.4557 80.0632C45.8711 79.8844 46.2864 79.7056 46.7018 79.5292C47.1566 79.341 49.716 78.4778 48.4398 78.8683C50.5096 78.1791 51.6118 77.8098 49.2101 78.4943C51.7742 77.7463 53.004 77.377 50.7695 78.0238C53.1664 77.3182 53.0852 77.3299 50.4748 77.9909C53.0875 77.3299 53.4913 77.2241 51.8044 77.671C53.5307 77.21 53.3985 77.2382 51.1059 77.7392C53.5447 77.2076 53.6468 77.1817 51.7765 77.5393C53.6862 77.1723 53.7442 77.1582 53.1548 77.2923C53.7744 77.1535 53.7906 77.1559 54.5935 77.3981C53.8045 77.1606 53.7953 77.1606 54.3359 77.4546C53.8069 77.1511 53.851 77.1394 55.5008 76.5513C53.9368 77.09 53.9159 77.0947 55.2734 76.5466C54.619 76.8054 54.38 76.8901 54.6051 76.7654C54.8302 76.6407 55.7282 76.3843 56.7167 75.7069C55.7583 76.3655 54.9415 76.5772 54.8998 76.5937C54.858 76.6101 55.3824 76.3491 56.4707 75.8057C55.4428 76.3138 55.2061 76.422 55.5356 76.2432C55.8651 76.0644 57.3524 75.9045 57.9906 74.9495C57.429 75.8645 56.3848 75.881 56.3245 75.8292C56.4382 75.8598 57.5775 75.8504 58.0811 74.9354C57.7307 75.7751 57.4986 75.6669 57.4824 75.2482C58.2388 75.2929 59.5661 75.347 59.3318 74.3144C59.2853 75.5328 61.3644 75.1283 60.731 73.8204C61.4526 74.3567 62.0675 74.6625 62.1928 74.719C62.585 74.6578 62.6546 74.2838 62.1719 73.4841C63.0142 74.2203 63.5827 74.6343 63.5526 74.7919C64.0607 74.6602 64.1907 74.1733 63.6338 73.2888C64.5202 74.1427 64.9216 74.6484 64.7824 74.9025C65.3602 74.679 65.5992 74.0815 65.1003 73.2042C65.75 74.0768 65.7059 74.7354 65.2975 75.0577C65.6363 74.8178 65.5806 74.2603 64.9123 73.3571C65.6224 74.1051 65.7616 74.2391 65.4066 74.185C65.9356 73.5923 66.1166 72.7478 65.627 71.9834C66.5181 73.0654 66.9497 71.9928 66.7617 70.979C67.5994 71.5623 68.1052 70.8473 68.0727 70.2757C68.8338 70.518 69.3188 70.0734 69.4441 69.7394C69.6947 69.9393 69.6877 69.944 69.4371 69.7417C69.6877 69.9417 70.3769 69.563 70.2632 69.3419C70.3769 69.563 70.414 69.6429 70.3073 69.4312C70.414 69.6429 69.7388 70.0757 69.5044 69.8711C69.7388 70.0734 69.7365 70.0757 69.5044 69.8711C69.7388 70.0734 69.7341 70.0781 69.4998 69.8711C69.3698 70.2263 68.8802 70.7579 68.1702 70.4733C68.1911 71.1084 67.6991 71.9081 66.9311 71.2189C67.1121 72.3362 66.7107 73.4112 65.9032 72.1974C66.3881 72.9878 66.1932 73.8463 65.6874 74.4414C66.0447 74.4367 65.9635 74.225 65.3068 73.4511C65.9333 74.3567 65.8916 75.0648 65.5342 75.4058C65.8823 75.1447 65.9032 74.5237 65.2743 73.597C65.9032 74.5237 65.8451 75.2035 65.4716 75.4976C65.7848 75.2035 65.7686 74.5379 65.1212 73.604C65.6293 74.5449 65.4043 75.22 64.8729 75.4599C64.9796 75.2106 64.5875 74.6555 63.6848 73.724C64.2881 74.6908 64.2 75.2482 63.7313 75.3964C63.7429 75.2388 63.1697 74.7848 62.2694 73.9522C62.8472 74.8507 62.8472 75.2882 62.4736 75.3635C62.3506 75.3023 61.7032 74.9542 60.8841 74.3073C61.3528 75.0624 61.0396 75.5258 60.6196 75.6222C60.1996 75.7163 59.6473 75.4576 59.5452 74.8037C60.0047 76.0127 58.0416 75.761 57.0995 75.8198C56.893 76.255 56.9789 76.4173 57.4894 75.7539C56.7886 76.5137 55.4335 76.5443 55.3314 76.6149C55.2293 76.6854 56.2572 76.723 57.0322 76.182C56.1992 76.763 54.9439 76.8124 54.6492 76.9418C54.3545 77.0712 54.5355 77.0971 55.1156 77.09C53.8765 77.1559 53.8602 77.177 54.7095 77.9062C53.8208 77.17 53.8161 77.1723 54.5958 77.9979C53.8161 77.1723 53.8092 77.1676 54.4519 77.9603C53.7953 77.1653 53.7813 77.1629 53.2082 77.8733C53.7535 77.1653 53.6978 77.1935 51.925 78.0967C53.6584 77.2053 53.5679 77.2476 51.2985 78.2779C53.431 77.2993 53.5539 77.2429 51.9459 78.0215C53.5145 77.2594 53.1363 77.4311 50.672 78.5248C53.1339 77.4311 53.2105 77.3934 50.9365 78.419C53.0551 77.4569 51.8832 77.9627 49.419 79.0188C51.7255 78.0238 50.6697 78.4684 48.6393 79.3222C49.8854 78.7812 47.3677 79.8256 46.906 80.0138C46.4883 80.1831 46.0706 80.3525 45.653 80.5242C45.2353 80.6959 44.8176 80.8676 44.4023 81.037C43.5692 81.3828 42.7339 81.7285 41.9009 82.0696C41.0655 82.413 40.1907 82.7517 39.3902 83.0881C38.5177 83.4127 37.3598 83.6903 36.8609 84.0596C35.7355 84.2971 34.5939 84.4735 34.3062 84.9604L34.2969 84.9675Z" fill="currentColor"/>
<path d="M70.466 70.4709C70.5379 70.6779 71.4893 69.029 71.6262 68.7421C71.4916 69.0267 69.8 68.8761 69.5703 68.5892C69.8 68.8785 70.5379 70.6779 70.466 70.4709Z" fill="currentColor"/>
<path d="M101.078 52.6037C100.48 53.013 99.851 53.3705 99.2175 53.728C98.6096 54.1138 97.9715 54.469 97.3496 54.8406C97.3217 54.8477 95.9457 55.4875 95.4724 55.9368C94.159 56.5295 92.7088 57.0987 93.5952 57.0329C92.7065 57.0987 91.3908 57.5739 91.7087 58.1102C89.9057 58.423 88.9752 58.757 89.8222 59.1875C88.7455 58.8841 88.4787 58.997 88.8824 59.7403C88.0332 59.2628 87.815 59.4039 87.9241 60.286C87.4507 59.5709 87.3254 59.6274 87.3811 60.4883C87.0516 59.6956 86.8938 59.7167 86.7221 60.493C86.678 59.6485 86.6409 59.6109 86.5504 60.4036C86.5643 59.5615 86.5318 59.5168 86.4112 60.2695C86.4506 59.4133 86.4205 59.3169 86.2511 59.9567C86.3509 59.0981 86.3532 58.9288 86.1722 59.3498C86.3485 58.7947 86.6015 58.8911 86.5458 59.4839C86.2882 59.2722 85.903 59.8391 85.0932 61.1187C85.1396 60.6035 84.4922 61.3468 83.3715 62.4947C83.448 61.9654 82.4781 62.6335 81.3341 63.3062C81.2065 62.9651 80.095 63.4403 79.2086 63.7155C79.3943 63.5532 79.4476 63.3109 79.2295 63.4944C79.6704 63.3956 79.9721 63.4544 79.8839 63.8731C80.2087 63.6825 80.2505 63.7461 80.0069 64.0542C80.3062 63.8872 80.276 64.0072 80.0115 64.2941C80.1948 64.2212 80.0069 64.3882 79.7539 64.607C79.7145 64.6117 79.3432 64.8445 79.1135 64.9645C78.9116 65.0398 78.5613 65.2209 78.4476 65.2397C78.3431 65.3032 78.3153 65.2256 78.4174 65.1644C78.5288 65.1315 78.8745 64.9386 79.0625 64.8563C79.2875 64.7222 79.6472 64.4823 79.6565 64.4823C79.9001 64.2682 80.044 64.1248 79.8444 64.24C80.0927 63.9672 80.0672 63.8754 79.7516 64.0142C79.8375 63.6778 79.5358 63.6332 79.1506 63.7108C79.327 63.5555 78.8815 63.445 78.7654 63.5673C78.8815 63.445 79.378 63.3109 79.1715 63.4897C80.0626 63.1768 81.1926 62.6758 81.2529 63.0075C82.4131 62.3159 83.3552 61.6691 83.1858 62.1771C84.3251 61.0646 84.9563 60.3683 84.8101 60.8317C85.6803 59.618 86.0724 59.0722 86.2186 59.211C86.381 58.6935 86.62 58.3854 86.569 58.7806C86.62 58.3878 86.6316 58.79 86.5922 59.3474C86.6386 58.9029 86.6409 59.0464 86.6525 59.8249C86.7059 59.2392 86.75 59.3192 86.8637 60.0837C86.8892 59.3639 86.9959 59.3569 87.2721 60.0649C87.2117 59.3004 87.3208 59.251 87.7408 59.8861C87.648 59.1005 87.8684 58.9617 88.6713 59.3616C88.3 58.7077 88.5576 58.5947 89.6064 58.8182C88.785 58.4701 89.7039 58.129 91.5068 57.7644C91.182 57.3104 92.4999 56.8212 93.4072 56.7106C92.4976 56.8212 93.9711 56.2567 95.3169 55.6733C95.781 55.2711 97.1941 54.6431 97.2266 54.636C97.8299 54.3043 98.5121 53.9609 99.1456 53.6151C99.7907 53.2835 100.447 52.9706 101.072 52.6061L101.078 52.6037Z" fill="currentColor"/>
<path d="M78.2293 64.4447C78.1574 64.4682 77.2733 65.9948 77.5285 65.8042C77.2733 65.9948 78.9649 65.7854 79.0415 65.7384C78.9649 65.7831 78.1574 64.4658 78.2293 64.4423V64.4447Z" fill="currentColor"/>
<path d="M104.322 71.868C104.283 72.0962 103.673 72.0468 102.167 71.8139C102.643 72.0185 101.749 71.9386 100.011 71.7528C100.61 71.908 99.4032 71.8092 97.8555 71.6845C98.1363 71.7692 96.7765 71.6775 95.7022 71.6234C95.3982 71.6445 94.1823 71.534 93.5488 71.574C92.7552 71.5011 91.8178 71.2847 91.3978 71.5316C90.4441 71.2658 89.5856 71.0377 89.2514 71.5152C88.2629 71.0377 87.5436 70.9083 87.112 71.5293C86.9009 70.9177 86.9542 70.9107 87.1723 71.5222C86.7663 70.9577 86.6502 71.1059 86.7732 71.7833C86.5667 71.3294 86.6526 71.6516 86.8637 72.2702C86.7361 71.8186 86.9519 72.3079 87.0586 72.663C86.9519 72.3079 86.4832 72.0844 86.5806 72.489C85.9031 71.8751 85.3114 71.5105 84.7243 71.8821C84.1651 71.2023 83.5734 71.1388 82.8657 71.6304C82.4549 71.1835 81.7704 71.6351 81.2298 72.1244C80.8423 72.1597 80.0858 72.7313 79.9048 73.0935C79.689 73.07 79.1576 73.4769 79.508 73.4299C79.1553 73.4769 79.3038 72.9359 79.5753 72.9524C79.3456 72.6419 79.5011 72.1926 79.631 72.0303C79.4663 71.7598 79.457 71.5552 79.5127 71.614C79.3178 71.3411 79.1414 71.2941 79.1553 71.4399C78.8212 71.28 78.5033 71.3646 78.6286 71.5058C78.1715 71.4423 77.8513 71.5599 78.1042 71.661C77.3709 71.7245 76.7699 71.9974 77.0855 72.0491C76.4706 72.1197 75.7629 72.4443 76.466 72.3032C75.7652 72.4466 76.3152 71.9644 76.9301 71.8986C76.4474 71.8492 76.7235 71.621 77.3547 71.4964C76.8999 71.4305 77.0182 71.3199 77.5241 71.28C77.0786 71.2188 77.1157 71.1647 77.5658 71.1718C77.1203 71.1012 77.1157 71.0871 77.5403 71.113C77.0391 71.0447 76.8558 71.0565 77.2433 71.0777C76.6563 71.0636 76.4753 71.1012 76.9045 71.1059C76.1713 71.1365 75.8255 71.2376 76.2316 71.2141C75.6306 71.2729 75.5981 71.1906 76.1945 71.1341C75.7907 71.1482 76.1365 71.0377 76.8651 71C76.4428 70.9883 76.6307 70.9436 77.2155 70.9577C76.8512 70.9342 77.0554 70.8918 77.6192 71.0048C77.2804 70.9883 77.3315 71.0941 77.7445 71.1976C77.3222 71.2023 77.2712 71.2753 77.6981 71.3552C77.2085 71.4023 77.0832 71.5269 77.5287 71.6022C76.9115 71.7339 76.6354 71.9786 77.118 72.035C76.5077 72.1009 76.3523 71.9456 76.9602 71.8845C76.6446 71.8163 77.2387 71.5363 77.9742 71.4658C77.7236 71.3552 78.0555 71.2282 78.5149 71.2917C78.4058 71.1365 78.7632 71.0306 79.1321 71.2023C79.088 71.0353 79.2946 71.0306 79.5011 71.2776C79.5289 71.1341 79.6658 71.2329 79.7888 71.5152C79.8422 71.4917 79.8538 71.7316 79.9675 72.0444C79.9141 72.2161 79.7772 72.6795 79.9443 73.0206C79.7447 72.9853 79.3595 72.8512 79.6148 72.8795C79.7494 72.4937 80.5569 71.8798 80.9699 71.8492C81.5337 71.3152 82.3412 70.7883 82.7844 71.2894C83.5943 70.7272 84.2324 70.786 84.8125 71.5434C85.4135 71.0918 86.0145 71.4658 86.7245 72.1526C86.5969 71.6728 86.344 71.9386 86.4414 72.3714C86.2929 71.8351 86.2279 71.621 86.3091 72.0233C86.1746 71.3929 86.1467 71.1482 86.3231 71.6351C86.2326 70.913 86.3068 70.7154 86.5969 71.3199C86.5249 70.5837 86.6363 70.5061 86.989 71.1671C86.7547 70.4779 86.7802 70.4708 87.0169 71.16C86.7779 70.4708 86.8057 70.4732 87.047 71.16C87.4392 70.4684 88.1585 70.6119 89.1981 71.16C89.4649 70.6213 90.3397 70.8707 91.3537 71.1929C91.7041 70.8989 92.681 71.1459 93.5117 71.2517C94.1034 71.1953 95.3541 71.3529 95.672 71.3435C96.7417 71.4234 98.1038 71.5505 97.8323 71.454C99.3754 71.6187 100.584 71.7504 99.9949 71.5763C101.731 71.821 102.631 71.9292 102.158 71.7175C103.663 71.9974 104.281 72.0703 104.32 71.868H104.322Z" fill="currentColor"/>
<path d="M76.6537 70.539C76.1502 70.5508 74.505 70.8848 75.0967 70.7742C74.505 70.8848 75.6444 71.8727 76.301 71.7739C75.6467 71.8727 76.1502 70.5508 76.6537 70.539Z" fill="currentColor"/>
<path d="M54.8733 23.7277C55.516 25.72 56.1333 27.7218 56.7644 29.7188C56.7644 29.7188 57.2308 31.2195 57.6972 32.7202C58.1636 34.2209 58.6347 35.7357 58.63 35.7216C58.6347 35.7357 59.2148 37.6269 59.5675 38.7206C60.1174 40.5154 60.679 42.3665 60.5049 41.7197C60.9644 43.2651 61.3194 44.4318 61.4609 44.707C61.6605 45.4056 61.8554 46.0265 61.9877 46.4688C62.1687 46.9957 62.4216 47.5696 62.4309 47.6896C62.5376 48.0236 62.526 47.9977 62.4216 47.6637C62.6003 48.1576 62.765 48.4611 62.7348 48.1906C62.8996 48.5975 62.946 48.6351 62.8439 48.2494C62.9692 48.6257 63.004 48.5599 62.9646 48.1012C63.0388 48.494 63.2012 48.0259 63.2221 47.6025C63.1989 48.0259 63.3312 48.6116 63.301 48.1765C63.424 49.289 63.9113 50.6251 63.7025 50.7992C64.1294 51.8459 64.6376 53.0196 64.3104 53.3301C64.9856 54.0899 65.4706 55.0143 65.343 55.607C66.0089 55.9152 66.4637 56.6514 66.7677 57.5688C66.8025 57.0584 66.9905 57.3124 67.023 57.8746C66.9905 57.3124 66.7375 57.2865 66.6633 57.8628C66.6192 57.2818 66.4823 57.2701 66.1482 57.9051C66.2665 57.3289 66.176 57.4159 65.8419 58.1898C66.1389 57.6299 66.169 57.8699 65.9115 58.7613C66.2503 58.1427 66.3059 58.385 66.1296 59.3517C66.603 59.0695 66.9301 60.1233 67.2712 61.6004C67.2364 60.6948 67.6495 61.6781 67.726 62.4449C67.6495 61.6757 67.132 60.8477 67.132 61.7463C66.9789 60.669 66.8048 60.2926 66.5264 61.0947C66.6053 60.1186 66.5542 60.0621 66.3802 61.003C66.4808 60.3742 66.4808 60.3742 66.3802 61.003C66.5333 60.0598 66.538 60.0527 66.3918 60.9936C66.5403 60.0503 66.5403 60.0456 66.3918 60.9889C66.538 60.048 66.538 60.0551 66.3918 61.003C66.538 60.0786 66.5403 60.1303 66.3988 61.1041C66.5635 60.2762 66.6053 60.5184 66.5287 61.5675C66.8118 61.1135 67.1088 62.2732 67.2504 63.374C67.313 62.7601 67.4429 63.1364 67.3757 63.6704C67.4429 63.1364 67.2712 62.8165 67.1947 63.4234C67.2202 62.7483 67.1436 62.5672 66.9974 63.1929C67.0717 62.5084 67.0601 62.5013 66.9696 63.1811C67.0601 62.5107 67.0578 62.5625 66.9626 63.247C67.0624 62.6284 67.081 62.746 66.9812 63.4163C67.0856 62.793 67.0508 62.8071 66.9394 63.4305C67.0415 62.7601 67.0206 62.6401 66.9116 63.2517C67.016 62.5625 67.0067 62.4919 66.9255 63.1435C67.0322 62.4378 67.0554 62.419 66.9835 63.1129C67.0833 62.4261 67.0995 62.4402 67.0253 63.1317C67.1807 62.5013 67.255 62.6848 67.2457 63.3693C67.3084 62.753 67.2666 62.8095 67.19 63.4187C67.0462 62.332 66.7375 61.1865 66.4127 61.6357C66.5078 60.589 66.4637 60.342 66.2619 61.1488C66.4289 60.1703 66.4243 60.0997 66.2479 60.9983C66.4289 60.0315 66.4336 59.9774 66.2804 60.8877C66.4637 59.9304 66.48 59.9069 66.3338 60.8407C66.5078 59.8951 66.5217 59.8904 66.3872 60.8313C66.6169 59.8998 66.661 59.968 66.6122 60.9442C66.8907 60.1468 67.067 60.5067 67.2573 61.591C67.2248 60.6831 67.1204 60.836 67.1181 61.7369C66.9533 60.5561 66.7747 59.9774 66.4985 60.6384C66.4684 59.4153 66.3361 58.9331 65.9208 59.4952C66.1435 58.5073 66.0855 58.2533 65.6794 58.8766C65.9927 57.9498 65.9463 57.6676 65.5889 58.1357C65.9904 57.3735 66.0484 57.2254 65.7862 57.7593C66.1806 57.1101 66.2619 57.0701 66.0878 57.5947C66.4591 57.009 66.6076 57.0231 66.6703 57.5288C66.7329 57.0231 66.6656 57.2512 66.5658 57.8228C66.3129 56.8467 65.8442 56.0987 65.0738 55.8564C65.271 55.1695 64.7606 54.2098 63.9879 53.4995C64.3939 53.0973 63.8602 51.9047 63.3474 50.9121C63.6282 50.6627 63.12 49.3361 62.9274 48.2682C63.0249 48.6563 63.3173 48.7739 63.2639 48.3435C63.2639 48.868 63.2198 49.0185 62.9321 48.6892C63.0156 49.1032 62.9158 49.0562 62.6699 48.6845C62.7998 49.0091 62.7232 48.9174 62.4842 48.5552C62.6072 48.8021 62.4935 48.6234 62.2499 48.2376C62.3914 48.4517 62.2986 48.2823 62.0782 47.906C62.2568 48.1953 62.2499 48.1835 62.0735 47.8965C62.2499 48.1859 62.2452 48.1694 62.0689 47.8824C62.0944 47.7342 61.8508 47.1603 61.6698 46.6381C61.5375 46.1912 61.3264 45.582 61.1013 44.8951C61.0177 44.5894 60.6488 43.4274 60.1615 41.8961C60.0919 41.6256 59.6441 40.2025 59.2357 38.89C59.0524 38.269 58.6324 36.8953 58.3307 35.8745C58.3353 35.8886 57.8898 34.362 57.4489 32.8472L56.5672 29.8199C55.9964 27.7947 55.4163 25.7718 54.8594 23.7418L54.8733 23.7277Z" fill="currentColor"/>
<path d="M66.2852 63.4305C66.4847 62.7742 67.4013 64.2091 67.2481 64.5313C67.4013 64.2067 67.5544 62.245 67.5707 62.9318C67.5544 62.245 66.487 62.7742 66.2852 63.4305Z" fill="currentColor"/>
<path d="M95.8859 36.4085C94.8069 37.8245 93.707 39.2217 92.6187 40.6306L90.9759 42.7335C90.1545 43.7849 89.3238 44.8458 89.333 44.8364C89.3238 44.8458 88.2865 46.1654 87.6948 46.9416C86.7087 48.193 85.6877 49.4773 86.0566 49.0468C85.1981 50.11 84.5576 50.9215 84.4347 51.1661C83.6527 52.1117 83.1561 52.7539 82.8243 53.2925C82.7222 53.3255 82.7338 53.309 82.8382 53.2737C82.6572 53.4454 82.5691 53.6124 82.6247 53.7747C82.5389 53.7959 82.5435 53.8312 82.6363 53.897C82.5621 53.85 82.6247 53.8665 82.8011 53.9417C82.6897 53.8688 83.0865 53.8712 83.2768 53.9558C83.0865 53.8712 82.7756 54.144 82.9125 54.2687C82.3254 54.5321 81.7731 55.0731 81.2743 55.7412C80.9146 55.8917 80.3183 56.5927 79.8008 57.3571C79.5896 57.5524 79.0397 58.4274 78.7125 59.2389C78.5524 59.5752 78.1556 60.5279 78.0373 61.3323C77.9978 61.1606 77.8911 61.5229 77.9491 61.6875C77.8911 61.5205 77.7565 61.21 77.782 61.3653C77.6846 61.0689 77.6196 60.9042 77.499 60.9278C77.4247 60.6831 77.2994 60.6267 77.1509 60.7796C77.0813 60.7019 76.9142 60.8666 76.7866 61.0854C76.7193 61.1089 76.5754 61.3182 76.4803 61.5299C76.1554 62.0121 75.689 62.9624 75.4663 63.4964C75.4059 63.5481 74.9999 64.3643 75.0973 64.2585C74.9999 64.3643 75.2435 63.4964 75.2946 63.4375C75.3015 63.2588 75.399 62.873 75.4547 62.6237C75.4268 62.579 75.4268 62.4826 75.4477 62.4543C75.4175 62.4567 75.4152 62.4567 75.4477 62.4543C75.4175 62.4614 75.4268 62.4637 75.4593 62.459C75.4292 62.4637 75.4338 62.4614 75.464 62.459C75.4315 62.4637 75.4268 62.4637 75.4547 62.4637C75.4083 62.4755 75.3781 62.5014 75.3874 62.5131C75.2737 62.5978 75.1669 62.7531 75.1275 62.8236C74.8119 63.247 74.4244 63.9833 74.2179 64.2302C74.1692 64.3949 74.0207 64.6583 74.0717 64.4655C74.0183 64.656 74.1135 64.3667 74.1553 64.202C74.1367 64.289 74.1808 64.1409 74.2202 63.9292C74.1854 64.0468 74.1808 64.0303 74.2156 63.8986C74.1738 64.0327 74.1483 64.0468 74.1668 63.9197C74.0996 64.0797 74.0555 64.1314 74.0578 64.0091C74.0253 64.1597 73.9951 64.1244 74.0276 63.9762C74.0276 64.0938 74.0694 64.0374 74.139 63.8774C74.1251 63.9997 74.1529 63.9739 74.2202 63.8445C74.204 63.9715 74.2295 63.9974 74.2713 63.8821C74.2388 64.028 74.2411 64.0515 74.2805 63.9268C74.2411 64.1573 74.197 64.3032 74.2225 64.2232C74.1738 64.3878 74.1181 64.3596 74.1622 64.195C74.3594 63.9386 74.7237 63.1835 75.03 62.7484C75.0695 62.666 75.1716 62.5037 75.2969 62.4073C75.2899 62.3838 75.3271 62.3461 75.3967 62.3297C75.3851 62.3156 75.4222 62.3014 75.4895 62.3108C75.4779 62.3085 75.5034 62.3226 75.5475 62.3391C75.5289 62.3461 75.5429 62.3649 75.58 62.3814C75.5869 62.4684 75.5777 62.5719 75.6101 62.6284C75.5591 62.8965 75.464 63.2823 75.4732 63.4728C75.4129 63.5246 75.2528 63.4728 75.3038 63.414C75.3827 63.1718 75.5985 62.6919 75.7679 62.3979C75.8816 62.0944 76.1253 61.617 76.2854 61.4005C76.3782 61.1841 76.5267 60.9654 76.601 60.9231C76.7402 60.6972 76.9328 60.4926 77.0743 60.5279C77.2251 60.382 77.3899 60.3679 77.434 60.542C77.5825 60.455 77.6614 60.5255 77.6962 60.7396C77.8447 60.7255 77.9143 60.9066 78.028 61.2265C77.9955 61.0548 77.7542 61.1065 77.7728 61.2594C77.9027 60.462 78.2972 59.4953 78.4202 59.1025C78.7868 58.298 79.3622 57.3877 79.5363 57.1384C80.1094 56.388 80.7243 55.6729 81.0353 55.4707C81.5875 54.8356 82.1398 54.2899 82.6781 53.9723C82.5876 53.897 82.6735 54.1699 82.7895 54.3016C82.576 54.1652 82.453 54.1628 82.3857 54.1581C82.2836 54.0123 82.2558 53.9323 82.2604 53.9229C82.2303 53.8006 82.2419 53.7347 82.2604 53.7042C82.2674 53.5771 82.3115 53.476 82.3672 53.3631C82.3811 53.309 82.4321 53.222 82.5157 53.0714C82.4739 53.1467 82.4786 53.1396 82.5203 53.062C82.4762 53.1396 82.4832 53.1302 82.5273 53.0502C82.9125 52.5516 83.4044 51.9047 84.1446 50.9239C84.3186 50.7192 84.9498 49.9007 85.7828 48.8163C85.9383 48.6399 86.7156 47.6355 87.4349 46.7181C87.7784 46.2924 88.5348 45.335 89.1033 44.6341C89.0964 44.6435 89.9456 43.5991 90.7902 42.5665L92.4772 40.4989C93.6142 39.1323 94.7466 37.7586 95.8928 36.399L95.8859 36.4085Z" fill="currentColor"/>
<path d="M73.6954 63.4023C73.6745 63.4776 73.3705 64.9641 73.3961 64.7219C73.3705 64.9641 74.5957 64.4702 74.6723 64.3243C74.5957 64.4678 73.6745 63.4776 73.6954 63.4023Z" fill="currentColor"/>
<path d="M74.6131 71.8046C74.1513 72.4843 74.2465 72.5267 74.8846 71.8493C74.3857 72.5032 74.4762 72.4444 75.1329 71.7387C74.6525 72.3079 74.7894 72.0421 75.5065 71.2894C74.8753 71.9034 74.9496 71.7622 75.5853 71.1624C74.9496 71.7622 75.0261 71.9081 75.6689 71.2941C75.3626 72.4373 75.894 73.4817 77.1516 73.0042C76.3859 73.8345 76.3952 73.8439 77.1632 73.0112C76.3975 73.8439 76.4091 73.8604 77.1771 73.0254C76.7525 73.5734 77.0495 74.1027 77.6644 74.4625C77.5948 74.4555 78.1587 74.432 78.9685 74.1144C78.4255 74.7182 78.4271 74.7182 78.9731 74.1144C78.1587 75.02 78.1726 75.0247 78.9847 74.1191C78.8061 74.6648 79.2307 75.02 79.7737 75.1212C80.1287 75.1306 80.8527 74.9988 81.5882 74.726C80.9269 75.3799 81.152 75.3728 81.7994 74.7542C81.152 75.3728 81.1126 75.6034 81.7994 74.9683C81.1126 75.9327 81.094 76.3537 82.1057 76.0103C81.4397 76.9253 81.7182 77.1582 82.8575 76.89C81.9757 77.3981 81.9525 77.3816 82.832 76.8688C82.5164 77.7697 83.4678 77.9979 84.7301 78.1743C84.6489 78.8118 85.7 79.1152 86.6212 79.4868C86.9205 79.9737 87.8742 80.3572 88.5239 80.7947C89.1505 81.2439 89.777 81.6838 90.4104 82.1213L94.2089 84.7369L96.107 86.0518C96.7405 86.4893 97.3717 86.9292 97.9958 87.3808C97.3322 86.9903 96.6732 86.5928 96.0142 86.193C95.3575 85.7931 94.6939 85.4003 94.0419 84.991C92.7308 84.1818 91.4314 83.3562 90.1459 82.5094C90.1459 82.5094 89.1899 81.8649 88.2316 81.2204C87.2268 80.5806 85.9135 79.9902 86.3172 79.9314C85.2986 79.5715 84.2057 79.2681 84.4168 78.6189C83.0431 78.4589 82.0802 78.2284 82.521 77.2969C81.5279 77.8427 81.5163 77.8356 82.5094 77.2875C81.5163 77.8356 81.5024 77.8262 82.4955 77.2758C81.2263 77.5722 80.9316 77.3087 81.6625 76.2667C80.5417 76.636 80.5742 76.0926 81.3121 74.9636C80.5858 75.6833 80.7691 75.9044 81.521 75.2058C80.739 75.4928 79.9964 75.6245 79.6159 75.601C79.066 75.4834 78.6344 75.0835 78.8177 74.4955C77.9638 75.4552 77.98 75.4599 78.8339 74.5025C77.683 75.354 77.2305 75.1165 77.7967 74.0015C76.7084 74.7777 76.3627 74.3355 76.9335 73.2394C76.1678 74.1027 76.1887 74.1262 76.9567 73.2606C76.0796 73.397 75.6851 73.2323 76.003 73.1218C75.2907 72.5526 75.0516 71.9457 75.5041 71.3906C74.8707 72.0163 75.0192 72.021 75.6666 71.3953C74.9217 72.1621 74.7593 72.442 75.221 71.8657C74.5388 72.5902 74.4228 72.6537 74.8985 71.9833C74.2372 72.6702 74.1189 72.6043 74.5667 71.9081C74.0446 72.5667 74.084 72.4608 74.6154 71.8093L74.6131 71.8046Z" fill="currentColor"/>
<path d="M74.193 72.6184C73.7567 73.317 73.3182 71.3129 73.7382 70.7743C73.3182 71.3129 74.9378 71.9292 75.5759 71.3106C74.9378 71.9292 73.7591 73.317 74.193 72.6184Z" fill="currentColor"/>
<path d="M66.2539 67.2341C66.0706 68.0221 65.943 67.9468 65.9964 67.0248C65.8339 67.8057 65.7806 67.6763 65.8572 66.7425C65.7133 67.4246 65.769 67.0389 65.8339 66.1521C65.7875 66.8742 65.8177 66.6931 65.8502 66.0086C65.8177 66.6931 65.646 66.7166 65.6924 66.0133C65.3443 66.3285 64.8431 66.6531 64.393 66.639C63.9475 66.6155 63.5507 66.3026 63.3233 65.7287C63.068 66.7307 63.0541 66.7284 63.3093 65.724C63.0541 66.7284 63.0332 66.726 63.2885 65.7216C62.9381 66.1921 62.3719 66.3215 61.9403 66.1427C61.6503 66.0392 61.2906 65.5664 61.0632 64.8019C60.8984 65.931 60.8961 65.9286 61.0585 64.7996C60.8938 65.9286 60.8822 65.9216 61.0446 64.7925C60.5713 65.136 60.1443 65.056 59.7243 64.6937C59.3043 64.3315 58.8913 63.6799 58.4458 62.8778C58.5804 63.8399 58.3924 63.64 58.2485 62.7108C58.3924 63.64 58.2764 63.8093 58.1116 62.8379C58.0652 64.0069 57.8077 64.268 57.1742 63.1836C57.1417 64.3033 56.7565 64.1974 55.9653 63.0448C56.3806 64.1127 56.4131 64.1245 56.0001 63.0543C55.6822 63.8611 54.7262 63.1648 53.5427 62.1675C53.197 62.612 52.1111 61.8758 51.0854 61.2901C50.5146 61.316 49.4588 60.7091 48.6235 60.3986C47.7997 60.1164 46.983 59.827 46.1638 59.533L41.2446 57.7595L38.7826 56.8774C37.9612 56.5834 37.1398 56.2917 36.3184 56.0118C37.1351 56.3623 37.9519 56.701 38.7687 57.0397C39.5855 57.3784 40.4023 57.7242 41.2214 58.0535C42.8573 58.7215 44.4955 59.366 46.136 59.9917L48.5956 60.902C49.8626 61.4007 51.3592 62.2004 51.0553 61.8123C52.1528 62.4897 53.2759 63.2636 53.5195 62.6967C54.7865 63.7999 55.7518 64.5056 55.9861 63.5717C56.4711 64.7596 56.485 64.7667 56.0024 63.5764C56.4873 64.7667 56.5036 64.7714 56.0209 63.5811C56.9027 64.8631 57.3227 64.9666 57.3853 63.7129C58.0931 64.9101 58.4179 64.5597 58.5316 63.2518C58.6755 64.308 58.3785 64.2798 58.1975 63.2119C58.6732 64.0634 59.1094 64.7384 59.5526 65.1054C59.9958 65.4723 60.446 65.5311 60.9472 65.1501C60.7824 66.3591 60.7662 66.3497 60.9286 65.1407C61.0957 66.552 61.5087 66.766 62.1329 65.7499C62.2025 67.0342 62.7548 67.0648 63.3604 66.0533C63.0912 67.1 63.0541 67.0953 63.3256 66.0463C63.6528 66.7425 64.1331 67.0201 64.2213 66.7966C64.9522 66.9613 65.5996 66.7449 65.7713 66.2133C65.7133 66.9566 65.5717 66.799 65.6321 66.0745C65.5648 66.9801 65.5253 67.4058 65.704 66.7402C65.6228 67.7022 65.7017 67.8645 65.9012 67.0906C65.8548 68.0433 66.0265 68.1279 66.2331 67.3376C66.1217 68.175 66.1542 68.0691 66.2563 67.2365L66.2539 67.2341Z" fill="currentColor"/>
<path d="M66.0802 68.0809C65.8829 68.9159 67.6673 68.1044 67.6673 67.3917C67.6673 68.1021 65.7112 66.8225 65.7623 66.105C65.7135 66.8248 65.8853 68.9159 66.0825 68.0809H66.0802Z" fill="currentColor"/>
<path d="M72.9832 71.3361C72.7999 71.8771 72.9299 72.1241 73.3545 71.7383C73.1271 72.3076 73.2733 72.5005 73.7954 72.0065C73.3939 72.5287 73.4148 72.5357 73.8209 72.0112C73.4148 72.5357 73.4287 72.564 73.8348 72.0371C73.4984 72.698 73.6213 73.0062 74.1898 72.5052C73.7884 73.1167 73.8673 73.1638 74.4312 72.5569C73.9903 73.1356 74.0669 73.072 74.6725 72.4322C74.1225 73.0274 74.2223 72.9333 74.7931 72.3405C74.2223 72.9333 74.2409 73.1003 74.8117 72.4958C74.2525 73.1991 74.2757 73.4225 74.872 72.8792C74.3175 73.6036 74.3662 73.8036 75.0043 73.1967C74.4335 73.8812 74.466 73.9071 75.1018 73.2438C74.5193 73.9118 74.5681 73.8883 75.2363 73.2038C74.6748 73.8342 74.7746 73.7071 75.5241 72.9827C74.8442 73.6436 75.0368 73.4296 75.7422 72.7804C75.0368 73.4296 75.0136 73.7542 75.7213 73.0815C75.0066 73.8577 74.995 74.0952 75.7143 73.4954C75.0089 74.2905 75.0577 74.4598 75.8141 73.7471C75.125 74.474 75.2642 74.4057 76.1088 73.646C75.4266 74.3069 75.5635 74.1635 76.4406 73.4014C75.6471 74.0953 75.9812 73.7871 76.7864 73.1214C75.9812 73.7871 75.8443 74.2576 76.6634 73.5566C75.8118 74.3775 75.7399 74.6363 76.5474 74.02C75.7004 74.8574 75.6772 75.102 76.5404 74.4151C75.7167 75.1796 75.7213 75.189 76.6031 74.4504C75.77 75.1961 75.8095 75.1867 76.682 74.4457C75.8257 75.1867 75.9162 75.1584 76.7794 74.4199C76.016 75.1255 76.2016 75.0056 77.1924 74.2246C76.306 74.9491 76.7562 74.6762 77.638 73.98C76.7562 74.6739 76.5126 75.1749 77.4222 74.4504C76.4592 75.2949 76.3432 75.5395 77.2365 74.9162C76.2968 75.7089 76.2712 75.8147 77.204 75.1232C76.2759 75.9041 76.2828 75.9182 77.2296 75.1914C76.2944 75.93 76.3269 75.9347 77.2829 75.2078C76.3641 75.937 76.4012 75.9417 77.3804 75.2078C76.4824 75.9347 76.5891 75.9064 77.6078 75.1702C76.7655 75.8665 77.0045 75.763 78.0858 75.0173C77.1275 75.7206 77.747 75.4689 78.6636 74.8103C77.747 75.4713 77.3201 76.0005 78.2993 75.3137C77.2435 76.1087 77.0695 76.3134 78.0208 75.73C76.9836 76.471 76.9233 76.5674 77.9234 75.9347C76.8954 76.6403 76.8838 76.678 77.9002 76.0241C76.8792 76.7156 76.8745 76.7415 77.9025 76.0711C76.8815 76.7485 76.8931 76.7626 77.9628 76.1087C76.9743 76.7885 77.0718 76.7909 78.1647 76.1346C77.2435 76.7956 77.4918 76.7462 78.6497 76.0923C77.6194 76.7274 78.2204 76.6145 79.2112 76.0146C78.2204 76.6145 77.7702 77.0308 78.8191 76.431C77.6867 77.1178 77.5127 77.2684 78.5383 76.7744C77.4361 77.3954 77.392 77.4636 78.478 76.9202C77.392 77.513 77.385 77.5059 78.4919 76.9649C77.4384 77.56 77.6356 77.5883 78.8376 77.0755C77.8561 77.6212 78.0974 77.6024 79.2971 77.1131C78.2204 77.6094 78.7518 77.5906 79.7913 77.1366C78.7518 77.5906 78.3318 77.9152 79.427 77.4801C78.2645 77.9787 78.1252 78.0752 79.2089 77.7294C78.0487 78.2069 78.0208 78.2563 79.1718 77.8988C78.051 78.3151 78.1531 78.3668 79.3667 78.0658C78.3039 78.4468 78.4687 78.468 79.6892 78.2069C78.5592 78.5009 78.6427 78.5174 79.7704 78.2375C78.6427 78.5197 78.6798 78.5809 79.8099 78.3174C78.9374 79.1054 79.5662 79.6112 80.9469 80.2204C80.0187 80.2486 80.2461 80.3944 81.2764 80.6626C80.3412 80.5167 80.8053 80.9143 81.6383 81.0883C81.0165 81.1683 81.5594 81.4976 82.3762 81.9304C82.2509 82.2738 83.2905 82.9866 83.9193 83.5558C84.3347 84.0333 84.9844 84.6049 85.525 85.1223C86.6063 86.1573 87.7178 87.1617 88.8339 88.1637C89.9384 89.1775 91.0569 90.1796 92.1289 91.2286C90.9873 90.2572 89.8433 89.2904 88.6901 88.3331C87.5461 87.364 86.4068 86.3878 85.293 85.3811C84.7361 84.8777 84.0516 84.2944 83.6525 83.8333C82.9958 83.2524 81.9191 82.502 82.0815 82.208C81.2184 81.7352 80.6615 81.3918 81.3274 81.3635C80.448 81.1377 79.9746 80.7331 80.9561 80.9331C79.8702 80.6014 79.6382 80.4509 80.6081 80.4768C79.8888 80.1451 79.3667 79.8487 79.1369 79.5382C78.9072 79.2277 78.9699 78.9031 79.4247 78.5103C78.2645 78.7573 78.3828 78.8373 79.5453 78.6185C78.2854 78.7973 78.0951 78.7738 79.1578 78.4445C77.9025 78.6632 77.7169 78.5927 78.7912 78.0846C77.6101 78.3786 77.6055 78.2657 78.7518 77.767C77.6333 78.1152 77.7053 78.0305 78.8562 77.513C77.805 77.8729 77.9837 77.7482 79.1532 77.1743C78.0649 77.6729 78.1763 77.9764 79.2831 77.5389C78.0464 77.9693 77.7888 77.9858 78.775 77.4918C77.5916 77.9529 77.4639 77.9434 78.5081 77.4307C77.3294 77.9011 77.1948 77.8635 78.2181 77.2731C77.1043 77.7788 77.0741 77.7553 78.1485 77.1954C77.0463 77.7106 77.0254 77.6729 78.0951 77.092C76.9975 77.5953 76.9975 77.5059 78.0788 76.8755C77.0207 77.3648 77.1019 77.2495 78.1995 76.5674C77.2133 77.0661 77.4129 76.8897 78.5406 76.1558C77.5034 76.7956 77.6519 77.0967 78.71 76.4945C77.515 77.1131 77.2435 77.1625 78.1577 76.5368C77.0277 77.1578 76.8861 77.1508 77.8445 76.4898C76.7608 77.1084 76.6866 77.0825 77.6658 76.391C76.6193 77.0261 76.5891 76.9908 77.5869 76.3016C76.5567 76.9367 76.5358 76.892 77.5359 76.1911C76.5126 76.805 76.5242 76.7156 77.5219 75.977C76.5358 76.6262 76.559 76.5462 77.566 75.8124C76.6007 76.4404 76.675 76.3157 77.696 75.5442C76.7817 76.1323 76.9604 75.9088 78.0069 75.0902C77.0439 75.7982 77.2365 76.0782 78.2204 75.3843C77.1043 76.1228 76.849 76.2263 77.696 75.5466C76.6425 76.271 76.5126 76.304 77.4059 75.5912C76.3641 76.311 76.2156 76.3016 77.0486 75.523C76.0717 76.224 76.0044 76.1252 76.8908 75.3443C75.9603 76.0217 75.9557 75.9253 76.849 75.1396C75.9557 75.7912 75.9928 75.6359 76.9047 74.8244C76.0578 75.4289 76.1784 75.1631 77.1252 74.3093C76.2388 75.0385 76.4453 75.2643 77.3549 74.5351C76.3293 75.3231 76.1204 75.4454 76.8769 74.7445C75.9905 75.4877 75.8652 75.5207 76.7376 74.7774C75.8257 75.523 75.7677 75.5324 76.5752 74.7821C75.7027 75.5207 75.6679 75.516 76.4824 74.7656C75.6215 75.4995 75.5844 75.4736 76.3873 74.7186C75.5426 75.4454 75.5148 75.4031 76.3084 74.641C75.4823 75.3631 75.4684 75.316 76.2596 74.5539C75.4243 75.2102 75.4243 75.0432 76.2202 74.2411C75.4336 74.9068 75.4545 74.7633 76.2596 73.9729C75.4939 74.5727 75.5658 74.3022 76.3965 73.4813C75.603 74.1823 75.8002 74.3446 76.6193 73.6366C75.7097 74.4128 75.5589 74.561 76.248 73.8953C75.4104 74.648 75.3268 74.7021 76.0276 73.9965C75.2062 74.7374 75.1041 74.7562 75.7329 74.0082C74.9347 74.6998 74.8581 74.5422 75.5148 73.7754C74.8163 74.4175 74.8024 74.2764 75.4684 73.526C74.7908 74.1023 74.8024 73.8459 75.4893 73.0697C74.814 73.7354 74.9834 73.8459 75.6865 73.1685C74.9045 73.9141 74.7885 74.0529 75.3384 73.4202C74.6377 74.1258 74.5611 74.1588 75.0948 73.479C74.4219 74.1517 74.3291 74.06 74.8488 73.352C74.213 73.9118 74.169 73.6624 74.6864 72.9333C74.1295 73.4602 74.1063 73.2249 74.64 72.524C74.0993 73.1238 74.2154 73.1967 74.7792 72.5875C74.1457 73.2438 74.0483 73.319 74.4613 72.7286C73.8696 73.3496 73.7443 73.2696 74.1109 72.6392C73.5355 73.1097 73.4195 72.7663 73.7327 72.1006C73.3498 72.6228 73.3823 72.6604 73.7722 72.1335C73.2361 72.6204 73.083 72.3946 73.2942 71.816C72.8858 72.1923 72.7581 71.9336 72.9345 71.3902C72.6723 71.823 72.7117 71.7807 72.9879 71.3455L72.9832 71.3361Z" fill="currentColor"/>
<path d="M72.559 72.0488C72.4221 72.4769 72.037 70.9104 72.2063 70.5576C72.037 70.9104 73.2459 71.442 73.6566 70.9927C73.2436 71.442 72.4221 72.4769 72.559 72.0488Z" fill="currentColor"/>
<path d="M100.787 57.1876C89.3339 55.3999 104.08 41.9548 107.612 37.7937C102.419 40.6752 99.0703 46.4592 98.8615 43.94C98.1398 46.3369 92.6938 56.1644 91.3735 55.4823C91.5684 55.7481 91.529 55.8351 91.3619 55.828C90.5382 55.7104 89.8815 55.5105 89.0995 55.487L89.2759 55.614C89.1877 55.5505 89.067 55.5317 88.9324 55.5364C88.8396 55.494 88.7793 55.4187 88.7491 55.3223C89.494 54.158 90.4221 53.2053 90.5173 51.9281C90.5289 51.9375 90.5358 51.9469 90.5451 51.954C90.6101 51.6623 90.631 51.38 90.3595 51.0084C90.5544 52.9137 88.8698 54.1909 87.1597 54.6966C87.4938 54.6566 87.8372 54.6119 88.1389 54.4544C87.7305 54.6755 87.2525 54.7249 86.7837 54.7954C86.6167 54.8331 86.4496 54.8636 86.2849 54.8872C86.1828 54.913 86.0807 54.9413 85.9832 54.9789C85.714 54.9789 85.4588 54.9295 85.2128 54.5884L85.2639 54.8942C84.7047 54.3344 85.4356 52.7067 85.6328 52.128C86.1015 50.7708 86.6747 49.4536 87.1689 48.1058C87.3569 47.593 86.1735 47.4472 86.2361 46.8991C86.2431 46.8285 86.2501 46.758 86.2269 46.6921C86.1712 46.5322 91.1902 39.4685 91.051 39.4144C90.9141 39.3603 90.7795 39.3156 90.6797 39.2427C90.624 39.0686 93.0651 35.1828 93.014 34.877C92.6219 35.0511 89.7144 39.2897 89.4824 39.6285C89.0624 40.24 84.7464 47.4542 84.3937 48.1081C83.6025 49.5735 82.8901 51.086 82.2195 52.6126C82.1754 52.7137 82.129 52.8172 82.0849 52.9184C82.064 52.9678 82.0408 53.0219 82.0501 53.076C82.0571 53.123 82.0872 53.1606 82.1128 53.2006C82.5861 53.958 81.4979 54.3414 80.9294 54.2168C80.8992 54.2097 80.8667 54.2003 80.8505 54.1768C80.8296 54.1486 80.8342 54.1109 80.8365 54.078C81.0199 52.5961 81.6974 51.1801 82.2868 49.8229C82.6093 49.0772 82.9272 48.3292 83.2869 47.6C83.6164 46.932 88.0716 39.7272 88.1853 38.9769C88.1922 38.9228 88.1992 38.8687 88.1806 38.8169C88.0901 38.5864 87.8303 38.8852 87.763 38.9745C87.6098 39.1815 87.5147 39.4238 87.3685 39.6355C86.4775 40.9269 81.6928 48.8138 80.8667 50.1498C80.5094 50.7285 80.1845 50.7896 79.5603 50.9261C79.1542 51.0154 78.7389 51.0789 78.3235 51.0719C77.95 51.0648 77.5694 51.0037 77.2306 50.8296L71.0723 68.4782C71.6245 68.7933 72.193 69.0897 72.7731 69.3814L78.0706 68.7886C78.0961 68.6687 78.1634 68.4993 78.2377 68.3347C78.3885 68.0054 78.5765 67.6902 78.7853 67.3914C79.5185 66.4364 80.4189 65.6673 81.3842 64.9781C82.1035 64.4747 82.8692 64.009 83.6419 63.5338C84.468 62.854 85.3219 62.1272 86.2083 61.4051C86.3939 61.2663 86.5819 61.1299 86.7791 60.9982C87.8859 60.2713 89.3756 60.8006 90.0741 59.4151C90.5219 58.3896 89.2086 57.9897 89.7098 57.2699C90.0323 56.4278 90.8607 56.7501 91.6937 57.077C91.9699 57.277 92.2506 57.4887 92.5824 57.4605C92.8029 57.4252 93.0419 57.4087 93.318 57.4134C94.4272 57.4369 96.1652 57.8227 99.8987 58.8294C91.6264 55.0212 94.6105 57.0794 92.9792 56.9406C91.0881 55.5175 93.3366 56.1997 100.787 57.1829V57.1876ZM71.903 68.2617C71.0839 67.6737 74.5366 63.9972 74.1306 63.0116L74.9102 59.0576C76.9197 56.4725 74.5691 57.1335 76.3674 54.3979C76.4881 54.2144 76.6064 54.031 76.7225 53.8475C77.0079 53.0266 77.7365 52.7419 78.3421 52.6361C79.6021 52.7325 79.6346 53.831 80.2495 54.7107C80.3121 54.8472 80.3052 54.9789 80.268 55.1036C80.159 55.4823 79.7761 55.8139 80.1752 56.1009C80.9781 55.3294 81.6023 54.4332 82.8646 54.5273C80.7484 54.8966 80.1543 56.8936 80.7692 58.6789C79.9873 58.6577 79.5812 58.0979 79.1867 57.611C79.0568 57.4699 78.9454 57.5734 78.8363 57.6816C78.4024 58.1191 78.0172 58.5895 77.6831 59.0694C75.3789 61.9955 74.6178 65.7567 71.9146 68.2712C71.9099 68.2688 71.9076 68.2665 71.903 68.2641V68.2617ZM89.3664 58.9118C90.1066 60.5183 87.5843 60.3278 86.4403 60.3043C86.2361 60.3889 86.0551 60.5018 85.8765 60.6148C85.0226 61.2381 84.1802 61.8544 83.4006 62.5059C82.4655 63.2116 81.5373 63.9196 80.6277 64.6699C79.7158 65.4179 78.8178 66.2059 77.9546 67.0668C77.7458 67.3656 77.4928 67.6031 77.2097 67.8031C76.9267 68.003 76.6157 68.1653 76.328 68.0853C75.9683 68.4617 75.6319 68.5981 75.1678 68.2994C74.9845 68.8404 74.6619 68.8968 74.1747 68.7204C74.0053 68.9204 73.6688 68.8851 73.3231 68.8004C72.9796 68.7134 72.6269 68.5746 72.2626 68.3747C72.4204 68.4617 73.3579 67.7607 73.5226 67.6549C76.0658 66.0483 77.3977 63.5738 79.2308 61.3392C79.5371 60.9676 79.855 60.6006 80.1961 60.2478C80.3098 60.1302 80.4606 60.0408 80.7414 60.0408C81.5118 60.2831 82.542 59.9444 83.0943 59.5327C84.3241 58.5284 83.4586 57.1029 82.5212 56.162C82.6975 55.9739 82.8762 55.8539 83.0548 55.7927C83.2405 55.7363 83.4238 55.7363 83.6141 55.7833C84.6374 55.7951 85.0226 57.1476 85.9113 57.4252C86.0203 57.5169 86.1178 57.6157 86.2106 57.7168C86.5772 58.1191 86.8418 58.5707 87.2316 58.9541C87.097 58.8012 87.0297 58.6201 87.2733 58.4884C87.7003 58.2555 87.93 58.6883 88.1064 58.8153C88.0553 58.5095 87.7003 58.2555 87.524 58.1285C88.357 58.4554 87.5448 57.3358 88.2363 56.9336C88.3895 56.7854 88.5589 56.6584 88.7329 56.5549C88.2015 57.5381 89.0879 58.1732 89.3687 58.9118H89.3664ZM90.8677 56.7572C91.1624 56.7054 91.4199 56.8842 91.6844 57.0747C91.4965 56.9547 91.0394 56.8795 90.8677 56.7572Z" fill="currentColor"/>
<path d="M74.6413 36.9988C67.3877 46.1606 63.2737 26.4915 61.4846 21.312C61.35 27.3124 64.6172 33.1435 62.3617 32.0662C64.0487 33.8962 69.7221 43.5943 68.4783 44.4129C68.8032 44.3729 68.8589 44.4529 68.7684 44.5964C68.2556 45.262 67.7544 45.7372 67.346 46.4122L67.5432 46.3205C67.4458 46.3676 67.3692 46.4616 67.3042 46.584C67.223 46.6451 67.1279 46.6592 67.0304 46.6381C66.4085 45.4008 66.0605 44.1118 65.014 43.3897C65.0279 43.3826 65.0395 43.3826 65.0511 43.3779C64.8353 43.1756 64.6033 43.0157 64.1508 43.0674C65.8748 43.8484 66.1254 45.9677 65.7008 47.7224C65.8331 47.4072 65.9677 47.085 65.9839 46.7416C65.9677 47.2096 65.7727 47.6542 65.5964 48.1011C65.5453 48.2681 65.4873 48.4304 65.4247 48.5857C65.3945 48.6892 65.369 48.7927 65.3504 48.8962C65.2135 49.1314 65.0465 49.3313 64.6311 49.3784L64.9188 49.4866C64.1601 49.6959 63.1344 48.2423 62.74 47.7789C61.8141 46.6898 60.9741 45.5278 60.0715 44.4199C59.7258 43.9989 59.0111 44.9656 58.5748 44.6363C58.5191 44.594 58.4611 44.554 58.3915 44.5399C58.2268 44.5093 54.7021 36.5707 54.5861 36.6647C54.4724 36.7565 54.3656 36.8529 54.2542 36.9047C54.0779 36.867 51.9779 32.7813 51.6902 32.6731C51.6438 33.1035 53.811 37.775 53.9851 38.149C54.2983 38.8241 58.3034 46.2194 58.6839 46.8568C59.5401 48.2846 60.4753 49.6677 61.4452 51.0178C61.5102 51.1072 61.5751 51.199 61.6401 51.2884C61.6726 51.333 61.7074 51.3801 61.7561 51.3989C61.8002 51.4154 61.8489 51.4083 61.8953 51.4083C62.7794 51.3707 62.5613 52.5185 62.1715 52.9561C62.1506 52.9796 62.1274 53.0031 62.0972 53.0055C62.0647 53.0102 62.0322 52.989 62.0067 52.9678C60.8326 52.0669 59.9624 50.7638 59.0969 49.5689C58.6212 48.9126 58.1409 48.2587 57.6977 47.5789C57.2917 46.9556 53.3655 39.4427 52.7808 38.9675C52.739 38.9346 52.6949 38.8993 52.6416 38.8923C52.4002 38.857 52.5232 39.2333 52.5673 39.3368C52.6671 39.5744 52.8272 39.779 52.9339 40.0143C53.5929 41.4444 57.939 49.5854 58.6677 50.9779C58.9832 51.5824 58.8719 51.8976 58.6769 52.5115C58.5493 52.9114 58.3985 53.3089 58.1827 53.6711C57.9901 53.9957 57.7465 54.2992 57.4309 54.5085L69.4297 68.7393C69.975 68.4123 70.5133 68.0595 71.0517 67.6973L73.1934 62.7506C73.1029 62.6659 72.9915 62.5248 72.8894 62.3766C72.6829 62.0779 72.5089 61.7556 72.3581 61.424C71.9079 60.302 71.7014 59.1282 71.5947 57.938C71.525 57.0559 71.5088 56.148 71.4902 55.2353C71.3232 54.1721 71.1282 53.0572 70.9542 51.9164C70.9287 51.6835 70.9055 51.4507 70.8939 51.2107C70.8266 49.8747 72.0239 48.8303 71.1909 47.5272C70.5389 46.6216 69.5388 47.5742 69.1768 46.7745C68.6176 46.0712 69.309 45.5043 70.0028 44.9374C70.3115 44.7963 70.6317 44.6528 70.7755 44.3494C70.8544 44.1377 70.9589 43.9213 71.1027 43.679C71.6759 42.7169 72.8755 41.3832 75.6043 38.61C68.2161 43.9683 71.4647 42.3759 70.5296 43.7402C68.3693 44.6881 70.0748 43.0557 74.639 37.0058L74.6413 36.9988ZM69.6617 67.8925C68.7498 68.3159 67.3344 63.4492 66.2902 63.3104L63.3015 60.6477C62.0972 57.5899 61.4893 59.9844 60.0483 57.0371C59.9532 56.8395 59.8557 56.6443 59.7559 56.4491C59.1967 55.7881 59.3197 55.0048 59.5308 54.4215C60.2432 53.363 61.1969 53.8852 62.2573 53.7864C62.4058 53.8005 62.5149 53.8711 62.6031 53.9675C62.8722 54.2545 62.965 54.7531 63.4082 54.5461C63.1507 53.4571 62.6959 52.4574 63.4082 51.3989C62.6657 53.4406 64.0742 54.9601 65.9073 55.3153C65.4989 55.9904 64.8167 56.068 64.2041 56.1715C64.0185 56.2162 64.051 56.3644 64.0904 56.5126C64.2482 57.1124 64.4571 57.6863 64.6984 58.2179C66.0466 61.7039 68.8774 64.2537 69.6757 67.8831C69.671 67.8831 69.6687 67.8878 69.6641 67.8878L69.6617 67.8925ZM70.4043 47.8871C72.1469 48.04 70.7222 50.1593 70.1305 51.1519C70.1003 51.373 70.1073 51.5894 70.1119 51.8035C70.2163 52.8643 70.3231 53.9134 70.4878 54.9225C70.6224 56.0962 70.7663 57.2653 70.9496 58.439C71.1329 59.6128 71.358 60.7959 71.6596 61.9861C71.8104 62.3178 71.887 62.6589 71.9149 63.007C71.9427 63.3551 71.9265 63.708 71.7153 63.922C71.8569 64.4254 71.8058 64.7876 71.3185 65.0487C71.6875 65.4792 71.5761 65.7896 71.1816 66.1307C71.2675 66.38 71.0702 66.6576 70.8243 66.9163C70.5783 67.1751 70.2836 67.415 69.9309 67.6338C70.0841 67.5397 69.9541 66.3659 69.9448 66.1683C69.8427 63.134 68.3971 60.7254 67.404 57.9992C67.2392 57.5452 67.0861 57.0818 66.9538 56.6067C66.9097 56.4491 66.9097 56.2727 67.049 56.0257C67.6407 55.4706 67.8681 54.3956 67.7915 53.7064C67.5502 52.1257 65.898 52.1704 64.6265 52.5233C64.5522 52.2739 64.5406 52.0599 64.5777 51.8693C64.6218 51.6788 64.7146 51.5165 64.8492 51.373C65.3713 50.4792 66.7195 50.8179 67.4017 50.1781C67.5363 50.1287 67.6685 50.0911 67.8008 50.0605C68.3275 49.9405 68.8473 49.9335 69.3671 49.7829C69.1675 49.8253 68.9819 49.7924 68.9911 49.5148C69.0074 49.0232 69.49 49.0397 69.6873 48.9479C69.3995 48.8397 69.0051 49.0255 68.8078 49.1173C69.504 48.5504 68.1419 48.7033 68.1419 47.8941C68.0932 47.6848 68.0676 47.4731 68.0653 47.2684C68.6408 48.2258 69.6246 47.7671 70.3973 47.8894L70.4043 47.8871ZM69.3137 45.4925C69.4158 45.2079 69.6989 45.0715 69.9936 44.9351C69.7963 45.0386 69.504 45.4032 69.3137 45.4925Z" fill="currentColor"/>
<path d="M44.3189 49.8558C48.5189 60.8052 29.6586 54.5813 24.3379 53.5628C29.3964 56.6818 36.0119 56.7265 33.9629 58.1708C36.3715 57.6062 47.4909 57.4722 47.5698 58.9729C47.6998 58.6671 47.7949 58.6577 47.8715 58.8106C48.1824 59.5938 48.3402 60.2713 48.7115 60.9675L48.7323 60.7488C48.7231 60.8593 48.7671 60.9722 48.8368 61.0898C48.8484 61.191 48.8136 61.2827 48.7439 61.358C47.3749 61.2851 46.0987 60.9464 44.9594 61.5038C44.9594 61.4897 44.964 61.478 44.9686 61.4662C44.6879 61.5556 44.4349 61.6779 44.2516 62.1013C45.7808 60.9769 47.716 61.8167 49.0038 63.068C48.802 62.7952 48.5908 62.5153 48.3077 62.3295C48.6999 62.5788 48.9806 62.9716 49.2753 63.3503C49.3913 63.4797 49.5027 63.609 49.6025 63.7431C49.6744 63.8207 49.751 63.896 49.8322 63.9642C49.9645 64.2018 50.0527 64.4488 49.8856 64.8369L50.1223 64.637C49.9227 65.4085 48.1662 65.5802 47.5745 65.6954C46.1799 65.9636 44.7691 66.1188 43.3699 66.3588C42.8362 66.4505 43.3049 67.5631 42.806 67.7795C42.7434 67.8077 42.6784 67.8383 42.632 67.8924C42.5229 68.0218 33.9792 67.1468 34.0024 67.2949C34.0256 67.4408 34.0534 67.5819 34.0418 67.7066C33.9212 67.843 29.3801 67.6431 29.1458 67.8406C29.4915 68.097 34.5639 68.5298 34.9723 68.5651C35.7056 68.6263 44.0266 68.8098 44.7598 68.7933C46.4073 68.7557 48.0571 68.6239 49.6953 68.4499C49.8044 68.4381 49.9157 68.4263 50.0248 68.4146C50.0782 68.4099 50.1362 68.4028 50.178 68.3675C50.2151 68.337 50.2336 68.2923 50.2545 68.2499C50.6652 67.4549 51.5354 68.2194 51.7141 68.7815C51.7233 68.8098 51.7326 68.8427 51.7187 68.8709C51.7048 68.9015 51.6723 68.918 51.6398 68.9321C50.2824 69.5107 48.7347 69.626 47.2798 69.7883C46.4815 69.8777 45.6833 69.9717 44.8805 70.0211C44.1449 70.0658 35.7636 69.7577 35.0651 70.0305C35.0164 70.0494 34.9654 70.0729 34.9329 70.1152C34.782 70.3081 35.1649 70.3904 35.2763 70.4022C35.5292 70.4328 35.7845 70.3951 36.0374 70.4187C37.5874 70.5551 46.7159 70.8115 48.2706 70.8679C48.9435 70.8938 49.1593 71.1478 49.5863 71.6253C49.8647 71.9382 50.1292 72.2698 50.3311 72.6391C50.5121 72.9708 50.649 73.3354 50.6699 73.7188L68.8271 70.301C68.8201 69.6589 68.7899 69.0097 68.7482 68.3558L65.5924 64.0019C65.4764 64.0395 65.2977 64.0654 65.1191 64.0818C64.7617 64.1148 64.3997 64.1054 64.0401 64.0724C62.8567 63.9078 61.7498 63.5008 60.6801 62.9975C59.8912 62.6188 59.1092 62.1789 58.3179 61.7391C57.3248 61.3533 56.276 60.9675 55.2156 60.5512C55.0044 60.4571 54.7932 60.3607 54.5821 60.2525C53.408 59.6432 53.1133 58.072 51.5818 58.1496C50.4819 58.2672 50.7952 59.6221 49.932 59.5421C49.0502 59.6809 48.9133 58.7894 48.7764 57.8979C48.8089 57.5568 48.8484 57.204 48.6604 56.9265C48.5189 56.75 48.3866 56.5501 48.252 56.3031C47.716 55.3176 47.1777 53.6004 46.1706 49.8181C47.0547 58.9846 47.3192 55.3364 48.0177 56.8371C47.7485 59.2081 47.2055 56.8935 44.3212 49.8628L44.3189 49.8558ZM68.2215 69.6754C68.1263 70.6868 63.2604 69.4966 62.6223 70.3457L58.854 71.6394C55.6402 71.1667 57.3805 72.9002 54.1435 72.6909C53.9277 72.6768 53.7119 72.665 53.4961 72.6532C52.6515 72.8132 52.0436 72.3145 51.6514 71.837C51.1015 70.6821 52.025 70.1058 52.4705 69.125C52.5564 69.0026 52.6701 68.9415 52.7977 68.9109C53.1759 68.8192 53.6516 68.9862 53.6957 68.4946C52.6353 68.1747 51.5563 68.0759 51.0063 66.9209C52.38 68.5934 54.3825 68.1182 55.6008 66.6857C55.9743 67.382 55.6982 68.0194 55.4801 68.6098C55.4244 68.7933 55.5683 68.8403 55.7144 68.8803C56.3038 69.0403 56.9002 69.1461 57.4756 69.2002C61.128 69.76 64.72 68.5487 68.2215 69.6636C68.2215 69.6683 68.2215 69.673 68.2215 69.6777V69.6754ZM51.5006 59.0199C52.503 57.5686 53.6006 59.8761 54.1528 60.8923C54.3268 61.031 54.5148 61.1322 54.7004 61.2333C55.6588 61.6708 56.6078 62.1036 57.5522 62.4612C58.6219 62.9316 59.6916 63.3879 60.7869 63.8137C61.8821 64.2394 63.0028 64.6323 64.1723 64.9616C64.532 64.9945 64.8615 65.098 65.1724 65.2462C65.4834 65.3944 65.7781 65.5872 65.8546 65.8789C66.3558 66.0059 66.6413 66.2341 66.618 66.7916C67.1703 66.6834 67.3815 66.9374 67.4743 67.4525C67.7295 67.5019 67.8687 67.8148 67.9685 68.1605C68.066 68.5063 68.124 68.885 68.1356 69.3037C68.131 69.1226 67.0636 68.6498 66.8895 68.5581C64.2466 67.1303 61.4644 67.1961 58.6405 66.7045C58.1694 66.6222 57.6984 66.5258 57.225 66.4035C57.0672 66.3635 56.9164 66.2741 56.7772 66.0271C56.5985 65.2297 55.7957 64.4935 55.1668 64.2136C53.6957 63.6349 52.9091 65.1074 52.5726 66.4011C52.3243 66.3423 52.1341 66.2435 51.9902 66.1188C51.8486 65.9848 51.7558 65.8225 51.7025 65.6343C51.2013 64.731 52.1619 63.7149 51.9577 62.7952C51.9832 62.6541 52.0157 62.5176 52.0575 62.3859C52.2176 61.8637 52.4728 61.405 52.6028 60.8711C52.5378 61.0663 52.4195 61.2145 52.1851 61.0663C51.7721 60.8076 52.0273 60.3889 52.0482 60.1701C51.8115 60.3701 51.7721 60.8076 51.7535 61.0263C51.6166 60.1301 51.0667 61.405 50.3752 60.9981C50.171 60.937 49.9784 60.8523 49.8021 60.7535C50.9089 60.7276 51.0063 59.6338 51.4983 59.0176L51.5006 59.0199ZM48.9087 58.78C48.7184 58.5471 48.7416 58.2319 48.7718 57.905C48.7625 58.1308 48.9273 58.5683 48.9087 58.78Z" fill="currentColor"/>
<path d="M40.1446 82.9044C51.5982 84.692 36.852 98.1372 33.3203 102.298C38.5134 99.4168 41.8617 93.6327 42.0706 96.1519C42.7922 93.755 48.2382 83.9276 49.5585 84.6097C49.3636 84.3439 49.4031 84.2569 49.5701 84.2639C50.3939 84.3815 51.0505 84.5815 51.8325 84.605L51.6562 84.478C51.7444 84.5415 51.865 84.5603 51.9996 84.5556C52.0924 84.5979 52.1527 84.6732 52.1829 84.7697C51.4381 85.934 50.5099 86.8866 50.4148 88.1639C50.4032 88.1545 50.3962 88.1451 50.3869 88.138C50.3219 88.4297 50.3011 88.7119 50.5725 89.0836C50.3776 87.1783 52.0622 85.9011 53.7724 85.3953C53.4382 85.4353 53.0948 85.48 52.7932 85.6376C53.2016 85.4165 53.6796 85.3671 54.1483 85.2965C54.3154 85.2589 54.4824 85.2283 54.6472 85.2048C54.7493 85.1789 54.8514 85.1507 54.9488 85.1131C55.218 85.1131 55.4732 85.1625 55.7192 85.5035L55.6682 85.1978C56.2274 85.7576 55.4965 87.3853 55.2992 87.9639C54.8305 89.3212 54.2574 90.6384 53.7631 91.9862C53.5752 92.499 54.7586 92.6448 54.6959 93.1929C54.6889 93.2634 54.682 93.334 54.7052 93.3999C54.7609 93.5598 49.7418 100.623 49.8811 100.678C50.018 100.732 50.1526 100.776 50.2523 100.849C50.308 101.023 47.867 104.909 47.918 105.215C48.3101 105.041 51.2176 100.802 51.4497 100.464C51.8697 99.8519 56.1856 92.6378 56.5383 91.9838C57.3296 90.5184 58.0419 89.006 58.7125 87.4794C58.7566 87.3782 58.803 87.2747 58.8471 87.1736C58.868 87.1242 58.8912 87.0701 58.8819 87.016C58.875 86.969 58.8448 86.9313 58.8193 86.8913C58.3459 86.1339 59.4342 85.7505 60.0027 85.8752C60.0328 85.8822 60.0653 85.8916 60.0816 85.9152C60.1025 85.9434 60.0978 85.981 60.0955 86.014C59.9122 87.4958 59.2346 88.9119 58.6452 90.2691C58.3227 91.0147 58.0048 91.7627 57.6451 92.4919C57.3157 93.1599 52.8605 100.365 52.7468 101.115C52.7398 101.169 52.7328 101.223 52.7514 101.275C52.8419 101.506 53.1018 101.207 53.1691 101.117C53.3222 100.91 53.4174 100.668 53.5635 100.456C54.4546 99.1651 59.2393 91.2782 60.0653 89.9421C60.4227 89.3635 60.7475 89.3023 61.3717 89.1659C61.7778 89.0765 62.1931 89.013 62.6085 89.0201C62.9821 89.0271 63.3626 89.0883 63.7014 89.2623L69.8598 71.6138C69.3075 71.2986 68.739 71.0022 68.1589 70.7106L62.8614 71.3033C62.8359 71.4233 62.7686 71.5926 62.6944 71.7573C62.5435 72.0866 62.3556 72.4018 62.1467 72.7005C61.4135 73.6555 60.5132 74.4247 59.5479 75.1139C58.8286 75.6173 58.0628 76.083 57.2901 76.5581C56.4641 77.2379 55.6101 77.9647 54.7238 78.6869C54.5381 78.8257 54.3502 78.9621 54.1529 79.0938C53.0461 79.8206 51.5564 79.2914 50.858 80.6768C50.4101 81.7024 51.7235 82.1023 51.2223 82.822C50.8997 83.6641 50.0713 83.3419 49.2383 83.0149C48.9622 82.815 48.6814 82.6033 48.3496 82.6315C48.1292 82.6668 47.8902 82.6833 47.614 82.6786C46.5049 82.655 44.7669 82.2693 41.0333 81.2625C49.3056 85.0707 46.3216 83.0126 47.9528 83.1513C49.8439 84.5744 47.5955 83.8923 40.1446 82.9091V82.9044ZM69.0291 71.8302C69.8482 72.4183 66.3954 76.0947 66.8015 77.0803L66.0218 81.0344C64.0123 83.6194 66.3629 82.9585 64.5646 85.6941C64.4439 85.8775 64.3256 86.061 64.2096 86.2445C63.9242 87.0654 63.1956 87.35 62.5899 87.4559C61.33 87.3594 61.2975 86.2609 60.6826 85.3812C60.6199 85.2448 60.6269 85.1131 60.664 84.9884C60.7731 84.6097 61.1559 84.278 60.7568 83.9911C59.954 84.7626 59.3298 85.6588 58.0675 85.5647C60.1837 85.1954 60.7777 83.1984 60.1628 81.4131C60.9448 81.4342 61.3508 81.9941 61.7453 82.481C61.8753 82.6221 61.9866 82.5186 62.0957 82.4104C62.5296 81.9729 62.9148 81.5025 63.2489 81.0226C65.5531 78.0965 66.3142 74.3353 69.0175 71.8208C69.0221 71.8232 69.0244 71.8255 69.0291 71.8279V71.8302ZM51.5657 81.1802C50.8255 79.5736 53.3478 79.7642 54.4917 79.7877C54.6959 79.703 54.8769 79.5901 55.0556 79.4772C55.9095 78.8539 56.7518 78.2376 57.5314 77.586C58.4666 76.8804 59.3947 76.1724 60.3043 75.422C61.2163 74.674 62.1143 73.886 62.9774 73.0251C63.1863 72.7264 63.4392 72.4888 63.7223 72.2889C64.0054 72.089 64.3163 71.9267 64.6041 72.0066C64.9637 71.6303 65.3002 71.4939 65.7643 71.7926C65.9476 71.2516 66.2701 71.1951 66.7574 71.3715C66.9268 71.1716 67.2632 71.2069 67.609 71.2916C67.9524 71.3786 68.3051 71.5174 68.6694 71.7173C68.5116 71.6303 67.5742 72.3312 67.4094 72.4371C64.8663 74.0436 63.5343 76.5181 61.7012 78.7527C61.3949 79.1244 61.077 79.4913 60.7359 79.8441C60.6222 79.9618 60.4714 80.0511 60.1906 80.0511C59.4203 79.8089 58.39 80.1476 57.8377 80.5592C56.6079 81.5636 57.4734 82.989 58.4109 83.9299C58.2345 84.1181 58.0559 84.2381 57.8772 84.2992C57.6916 84.3557 57.5082 84.3557 57.318 84.3086C56.2947 84.2969 55.9095 82.9443 55.0208 82.6668C54.9117 82.575 54.8143 82.4763 54.7214 82.3751C54.3548 81.9729 54.0903 81.5213 53.7005 81.1379C53.835 81.2908 53.9023 81.4719 53.6587 81.6036C53.2317 81.8365 53.002 81.4037 52.8257 81.2766C52.8767 81.5824 53.2317 81.8365 53.4081 81.9635C52.5751 81.6365 53.3872 82.7562 52.6957 83.1584C52.5426 83.3066 52.3732 83.4336 52.1992 83.5371C52.7305 82.5539 51.8441 81.9188 51.5634 81.1802H51.5657ZM50.0644 83.3348C49.7697 83.3866 49.5121 83.2078 49.2476 83.0173C49.4355 83.1372 49.8927 83.2125 50.0644 83.3348Z" fill="currentColor"/>
<path d="M66.2911 103.096C73.5447 93.9338 77.6588 113.603 79.4478 118.782C79.5824 112.782 76.3153 106.951 78.5707 108.028C76.8838 106.198 71.2104 96.5001 72.4541 95.6815C72.1292 95.7215 72.0735 95.6415 72.164 95.4981C72.6769 94.8324 73.1781 94.3572 73.5865 93.6822L73.3892 93.7739C73.4867 93.7268 73.5633 93.6328 73.6282 93.5104C73.7094 93.4493 73.8046 93.4352 73.902 93.4563C74.5239 94.6936 74.872 95.9826 75.9185 96.7047C75.9045 96.7118 75.8929 96.7118 75.8813 96.7165C76.0971 96.9188 76.3292 97.0787 76.7817 97.027C75.0576 96.2461 74.807 94.1267 75.2316 92.372C75.0994 92.6872 74.9648 93.0094 74.9485 93.3528C74.9648 92.8848 75.1597 92.4402 75.336 91.9933C75.3871 91.8263 75.4451 91.664 75.5078 91.5087C75.5379 91.4052 75.5634 91.3017 75.582 91.1982C75.7189 90.963 75.886 90.7631 76.3013 90.716L76.0136 90.6078C76.7724 90.3985 77.798 91.8522 78.1925 92.3155C79.1183 93.4046 79.9583 94.5666 80.8609 95.6745C81.2067 96.0955 81.9214 95.1288 82.3576 95.4581C82.4133 95.5004 82.4713 95.5404 82.5409 95.5545C82.7057 95.5851 86.2304 103.524 86.3464 103.43C86.4601 103.338 86.5668 103.241 86.6782 103.19C86.8546 103.227 88.9545 107.313 89.2423 107.421C89.2887 106.991 87.1214 102.319 86.9474 101.945C86.6341 101.27 82.6291 93.875 82.2485 93.2376C81.3923 91.8098 80.4572 90.4267 79.4873 89.0766C79.4223 88.9872 79.3573 88.8954 79.2923 88.8061C79.2599 88.7614 79.225 88.7143 79.1763 88.6955C79.1322 88.679 79.0835 88.6861 79.0371 88.6861C78.153 88.7237 78.3711 87.5759 78.761 87.1383C78.7818 87.1148 78.8051 87.0913 78.8352 87.089C78.8677 87.0842 78.9002 87.1054 78.9257 87.1266C80.0998 88.0275 80.97 89.3306 81.8355 90.5255C82.3112 91.1818 82.7915 91.8357 83.2347 92.5155C83.6408 93.1388 87.5669 100.652 88.1517 101.127C88.1934 101.16 88.2375 101.195 88.2909 101.202C88.5322 101.237 88.4092 100.861 88.3651 100.758C88.2654 100.52 88.1052 100.315 87.9985 100.08C87.3395 98.65 82.9934 90.509 82.2648 89.1165C81.9492 88.512 82.0606 88.1968 82.2555 87.5829C82.3831 87.183 82.5339 86.7855 82.7497 86.4233C82.9423 86.0987 83.186 85.7952 83.5016 85.5859L71.5027 71.3551C70.9574 71.6821 70.4191 72.0349 69.8808 72.3971L67.739 77.3438C67.8295 77.4285 67.9409 77.5696 68.043 77.7178C68.2495 78.0165 68.4235 78.3388 68.5744 78.6704C69.0245 79.7924 69.2311 80.9662 69.3378 82.1564C69.4074 83.0385 69.4236 83.9464 69.4422 84.8591C69.6093 85.9223 69.8042 87.0372 69.9782 88.178C70.0037 88.4109 70.0269 88.6437 70.0386 88.8837C70.1058 90.2197 68.9085 91.2641 69.7415 92.5672C70.3936 93.4728 71.3937 92.5202 71.7557 93.3199C72.3149 94.0232 71.6234 94.5901 70.9296 95.157C70.621 95.2981 70.3008 95.4416 70.1569 95.745C70.078 95.9567 69.9736 96.1731 69.8297 96.4154C69.2566 97.3775 68.0569 98.7112 65.3281 101.484C72.7163 96.1261 69.4677 97.7185 70.4029 96.3543C72.5632 95.4063 70.8577 97.0387 66.2934 103.089L66.2911 103.096ZM71.2707 72.2019C72.1826 71.7785 73.5981 76.6452 74.6422 76.784L77.6309 79.4467C78.8352 82.5045 79.4432 80.11 80.8841 83.0573C80.9793 83.2549 81.0767 83.4501 81.1765 83.6453C81.7357 84.3063 81.6127 85.0896 81.4016 85.6729C80.6892 86.7314 79.7355 86.2092 78.6751 86.308C78.5266 86.2939 78.4175 86.2233 78.3294 86.1269C78.0602 85.8399 77.9674 85.3413 77.5242 85.5483C77.7818 86.6373 78.2366 87.637 77.5242 88.6955C78.2667 86.6538 76.8582 85.1343 75.0251 84.7791C75.4335 84.104 76.1157 84.0264 76.7283 83.9229C76.9139 83.8782 76.8814 83.73 76.842 83.5818C76.6842 82.982 76.4754 82.4081 76.234 81.8765C74.8859 78.3905 72.055 75.8407 71.2568 72.2113C71.2614 72.2113 71.2637 72.2066 71.2684 72.2066L71.2707 72.2019ZM70.5282 92.2073C68.7855 92.0544 70.2103 89.9351 70.802 88.9425C70.8321 88.7214 70.8252 88.505 70.8205 88.2909C70.7161 87.2301 70.6094 86.181 70.4446 85.1719C70.31 83.9982 70.1662 82.8291 69.9829 81.6554C69.7996 80.4816 69.5745 79.2985 69.2728 78.1083C69.122 77.7766 69.0454 77.4355 69.0176 77.0874C68.9897 76.7393 69.006 76.3865 69.2171 76.1724C69.0756 75.669 69.1266 75.3068 69.6139 75.0457C69.245 74.6152 69.3564 74.3048 69.7508 73.9637C69.665 73.7144 69.8622 73.4368 70.1082 73.1781C70.3541 72.9193 70.6488 72.6794 71.0015 72.4606C70.8484 72.5547 70.9783 73.7285 70.9876 73.9261C71.0897 76.9604 72.5353 79.369 73.5284 82.0952C73.6932 82.5492 73.8463 83.0126 73.9786 83.4877C74.0227 83.6453 74.0227 83.8218 73.8835 84.0687C73.2918 84.6239 73.0644 85.6988 73.1409 86.388C73.3823 87.9687 75.0344 87.924 76.306 87.5711C76.3802 87.8205 76.3918 88.0345 76.3547 88.2251C76.3106 88.4156 76.2178 88.5779 76.0832 88.7214C75.5611 89.6152 74.213 89.2765 73.5308 89.9163C73.3962 89.9657 73.2639 90.0033 73.1317 90.0339C72.6049 90.1539 72.0852 90.1609 71.5654 90.3115C71.7649 90.2691 71.9506 90.3021 71.9413 90.5796C71.925 91.0712 71.4424 91.0548 71.2452 91.1465C71.5329 91.2547 71.9274 91.0689 72.1246 90.9771C71.4285 91.544 72.7906 91.3911 72.7906 92.2003C72.8393 92.4096 72.8648 92.6213 72.8671 92.826C72.2917 91.8686 71.3078 92.3273 70.5351 92.205L70.5282 92.2073ZM71.6187 94.6019C71.5166 94.8865 71.2336 95.0229 70.9389 95.1593C71.1361 95.0558 71.4285 94.6913 71.6187 94.6019Z" fill="currentColor"/>
<path d="M96.6117 90.237C92.4117 79.2875 111.272 85.5114 116.593 86.5299C111.534 83.4109 104.919 83.3662 106.968 81.922C104.559 82.4865 93.4397 82.6206 93.3608 81.1199C93.2308 81.4257 93.1357 81.4351 93.0591 81.2822C92.7482 80.4989 92.5904 79.8215 92.2191 79.1252L92.1983 79.344C92.2075 79.2334 92.1634 79.1205 92.0938 79.0029C92.0822 78.9018 92.117 78.81 92.1867 78.7348C93.5557 78.8077 94.8319 79.1464 95.9712 78.5889C95.9712 78.603 95.9666 78.6148 95.962 78.6266C96.2427 78.5372 96.4956 78.4149 96.679 77.9915C95.1498 79.1158 93.2146 78.2761 91.9268 77.0247C92.1286 77.2976 92.3398 77.5775 92.6229 77.7633C92.2307 77.514 91.95 77.1211 91.6553 76.7424C91.5393 76.6131 91.4279 76.4837 91.3281 76.3496C91.2562 76.272 91.1796 76.1967 91.0984 76.1285C90.9661 75.891 90.8779 75.644 91.045 75.2559L90.8083 75.4558C91.0079 74.6843 92.7644 74.5126 93.3561 74.3973C94.7507 74.1292 96.1615 73.9739 97.5607 73.734C98.0944 73.6423 97.6257 72.5297 98.1246 72.3133C98.1872 72.285 98.2522 72.2545 98.2986 72.2004C98.4077 72.071 106.951 72.946 106.928 72.7978C106.905 72.652 106.877 72.5108 106.889 72.3862C107.009 72.2497 111.55 72.4497 111.785 72.2521C111.439 71.9957 106.367 71.5629 105.958 71.5276C105.225 71.4665 96.904 71.283 96.1708 71.2995C94.5233 71.3371 92.8735 71.4688 91.2353 71.6429C91.1262 71.6546 91.0148 71.6664 90.9058 71.6782C90.8524 71.6829 90.7944 71.6899 90.7526 71.7252C90.7155 71.7558 90.6969 71.8005 90.6761 71.8428C90.2654 72.6379 89.3952 71.8734 89.2165 71.3112C89.2072 71.283 89.198 71.2501 89.2119 71.2218C89.2258 71.1913 89.2583 71.1748 89.2908 71.1607C90.6482 70.582 92.1959 70.4668 93.6508 70.3045C94.449 70.2151 95.2473 70.121 96.0501 70.0716C96.7857 70.0269 105.167 70.3351 105.865 70.0622C105.914 70.0434 105.965 70.0199 105.998 69.9775C106.149 69.7846 105.766 69.7023 105.654 69.6906C105.401 69.66 105.146 69.6976 104.893 69.6741C103.343 69.5377 94.2147 69.2813 92.66 69.2248C91.9871 69.1989 91.7713 68.9449 91.3443 68.4674C91.0659 68.1546 90.8014 67.8229 90.5995 67.4536C90.4185 67.122 90.2816 66.7574 90.2607 66.374L72.1035 69.7917C72.1105 70.4339 72.1406 71.0831 72.1824 71.737L75.3382 76.0909C75.4542 76.0533 75.6329 76.0274 75.8115 76.0109C76.1689 75.978 76.5309 75.9874 76.8905 76.0203C78.0739 76.185 79.1808 76.5919 80.2505 77.0953C81.0394 77.474 81.8214 77.9138 82.6126 78.3537C83.6058 78.7395 84.6546 79.1252 85.715 79.5416C85.9262 79.6357 86.1373 79.7321 86.3485 79.8403C87.5226 80.4495 87.8173 82.0208 89.3488 81.9432C90.4487 81.8255 90.1354 80.4707 90.9986 80.5507C91.8804 80.4119 92.0173 81.3034 92.1542 82.1948C92.1217 82.5359 92.0822 82.8887 92.2702 83.1663C92.4117 83.3427 92.544 83.5426 92.6786 83.7896C93.2146 84.7752 93.7529 86.4923 94.76 90.2746C93.8759 81.1081 93.6114 84.7564 92.9129 83.2557C93.1821 80.8847 93.7251 83.1992 96.6093 90.2299L96.6117 90.237ZM72.7091 70.4174C72.8043 69.4059 77.6702 70.5962 78.3083 69.747L82.0766 68.4533C85.2904 68.9261 83.5501 67.1925 86.7871 67.4019C87.0029 67.416 87.2187 67.4277 87.4345 67.4395C88.2791 67.2796 88.887 67.7782 89.2792 68.2557C89.8291 69.4106 88.9056 69.9869 88.4601 70.9678C88.3742 71.0901 88.2605 71.1513 88.1329 71.1819C87.7547 71.2736 87.279 71.1066 87.2349 71.5982C88.2953 71.9181 89.3743 72.0169 89.9243 73.1718C88.5506 71.4994 86.5481 71.9745 85.3298 73.407C84.9563 72.7108 85.2324 72.0733 85.4505 71.4829C85.5062 71.2995 85.3623 71.2524 85.2161 71.2124C84.6268 71.0525 84.0304 70.9466 83.455 70.8925C79.8026 70.3327 76.2106 71.5441 72.7091 70.4291C72.7091 70.4244 72.7091 70.4197 72.7091 70.415V70.4174ZM89.43 81.0728C88.4276 82.5241 87.33 80.2166 86.7778 79.2005C86.6038 79.0617 86.4158 78.9606 86.2302 78.8594C85.2718 78.4219 84.3228 77.9891 83.3784 77.6316C82.3087 77.1611 81.239 76.7048 80.1437 76.2791C79.0485 75.8533 77.9277 75.4605 76.7583 75.1312C76.3986 75.0983 76.0691 74.9948 75.7582 74.8466C75.4472 74.6984 75.1525 74.5055 75.076 74.2138C74.5748 74.0868 74.2893 73.8586 74.3125 73.3012C73.7603 73.4094 73.5491 73.1553 73.4563 72.6402C73.2011 72.5908 73.0618 72.278 72.9621 71.9322C72.8646 71.5864 72.8066 71.2077 72.795 70.789C72.7996 70.9702 73.867 71.4429 74.0411 71.5347C76.684 72.9625 79.4662 72.8966 82.2901 73.3882C82.7612 73.4705 83.2322 73.567 83.7056 73.6893C83.8633 73.7293 84.0142 73.8187 84.1534 74.0656C84.3321 74.863 85.1349 75.5993 85.7638 75.8792C87.2349 76.4578 88.0215 74.9854 88.358 73.6916C88.6063 73.7504 88.7965 73.8492 88.9404 73.9739C89.0819 74.108 89.1748 74.2703 89.2281 74.4585C89.7293 75.3617 88.7687 76.3779 88.9729 77.2976C88.9474 77.4387 88.9149 77.5751 88.8731 77.7068C88.713 78.229 88.4578 78.6877 88.3278 79.2217C88.3928 79.0264 88.5111 78.8782 88.7455 79.0264C89.1585 79.2852 88.9033 79.7039 88.8824 79.9226C89.1191 79.7227 89.1585 79.2852 89.1771 79.0664C89.314 79.9626 89.8639 78.6877 90.5554 79.0946C90.7596 79.1558 90.9522 79.2405 91.1285 79.3393C90.0217 79.3651 89.9243 80.4589 89.4323 81.0752L89.43 81.0728ZM92.0219 81.3128C92.2122 81.5456 92.189 81.8608 92.1588 82.1878C92.1681 81.962 92.0033 81.5245 92.0219 81.3128Z" fill="currentColor"/>
</g>
<defs>
<clipPath id="clip0_675_8962">
<rect width="121" height="119" fill="white" transform="translate(11 12)"/>
</clipPath>
</defs>
</svg>
