<svg width="143" height="143" viewBox="0 0 143 143" fill="none" xmlns="http://www.w3.org/2000/svg">
<path d="M15.0801 80.5251C14.8383 80.2817 14.7227 79.9748 14.7227 79.5938C14.7227 79.2128 14.8435 78.927 15.0801 78.6942C15.3218 78.4614 15.6267 78.345 16.0051 78.345C16.3836 78.345 16.6832 78.4561 16.9092 78.6836C17.1352 78.9112 17.2456 79.2128 17.2456 79.5938C17.2456 79.9748 17.1299 80.287 16.8987 80.5251C16.6674 80.7685 17.624 94.3941 17.624 94.3941C17.624 94.3941 15.3166 80.7685 15.0748 80.5251H15.0801Z" stroke="currentColor" stroke-miterlimit="50"/>
<path d="M25.453 64.8251C26.3833 64.1531 40.3224 43.802 40.3224 43.802C40.3224 43.802 30.2991 64.0102 31.0507 64.3965C31.8023 64.7828 32.3805 65.3331 32.7957 66.0422C33.211 66.7512 33.4159 67.5714 33.4159 68.4922C33.4159 69.3282 31.5343 71.7464 31.0822 72.5402C30.6302 73.3286 74.9863 74.3816 73.9561 75.1753C73.3884 75.5881 72.6053 74.117 72.4213 74.5033C72.2373 74.8896 72.1532 75.4981 72.169 76.313L63.9485 76.3342C63.9327 75.2229 64.3532 76.1013 64.6949 75.3764C65.0365 74.6515 26.7933 73.7942 27.5922 73.1963C28.4069 72.5984 28.9535 72.0692 29.2374 71.6141C29.5212 71.1591 31.3188 69.0478 31.3188 68.4922C31.3188 67.7302 31.0507 67.1111 30.5198 66.6348C29.989 66.1586 29.3004 65.9205 28.4595 65.9205C27.8182 65.9205 27.219 66.1269 26.6619 66.5449C26.0995 66.9629 25.6895 67.5026 25.4267 68.1588L23.4609 67.4339C23.8551 66.365 24.5174 65.4919 25.4477 64.8198L25.453 64.8251ZM27.1875 80.5197C26.9457 80.2763 26.8301 79.9694 26.8301 79.5884C26.8301 79.2074 69.9825 78.9217 70.2242 78.6889C70.466 78.4561 70.7709 78.3396 71.1493 78.3396C71.5278 78.3396 71.8274 78.4508 72.0534 78.6783C72.2794 78.9058 29.3583 79.2074 29.3583 79.5884C29.3583 79.9694 29.2426 80.2816 29.0114 80.5197C28.7801 80.7631 28.4805 80.8849 28.1178 80.8849C27.7552 80.8849 27.4293 80.7631 27.1928 80.5197H27.1875Z" stroke="currentColor" stroke-miterlimit="50"/>
<path d="M37.5637 64.8266C38.494 64.1546 39.498 63.8159 40.5754 63.8159C41.5478 63.8159 42.4098 64.0117 43.1614 64.398C43.9131 64.7843 44.4912 65.3346 44.9065 66.0436C45.3217 66.7527 45.5267 67.5729 45.5267 68.4936C45.5267 69.3297 43.645 71.7479 43.193 72.5416C42.741 73.33 86.687 72.5151 85.6568 73.3089C85.0892 73.7216 84.716 74.1185 84.532 74.5048C84.348 74.891 84.264 75.4996 84.2797 76.3144L82.1825 76.3356C82.1668 75.2244 82.5873 76.1028 82.9289 75.3779C83.2706 74.6529 38.8988 73.7957 39.6977 73.1977C40.5124 72.5998 41.059 72.0707 41.3428 71.6156C41.6267 71.1605 43.4242 69.0492 43.4242 68.4936C43.4242 67.7316 43.1562 67.1125 42.6253 66.6363C42.0945 66.1601 41.4059 65.9219 40.5649 65.9219C39.9237 65.9219 39.3245 66.1283 38.7674 66.5463C38.205 66.9644 37.795 67.5041 37.5322 68.1602L35.5664 67.4353C35.9606 66.3664 36.6229 65.4933 37.5532 64.8213L37.5637 64.8266ZM39.2982 80.5212C39.0564 80.2778 38.9408 79.9709 38.9408 79.5899C38.9408 79.2089 82.0932 78.9232 82.335 78.6903C82.5768 78.4575 82.8816 78.3411 83.26 78.3411C83.6385 78.3411 83.9381 78.4522 84.1641 78.6797C84.3901 78.9073 41.469 79.2089 41.469 79.5899C41.469 79.9709 60.5433 92.9351 60.5433 92.9351C60.5433 92.9351 40.586 80.8863 40.2233 80.8863C39.8606 80.8863 39.5347 80.7646 39.2982 80.5212Z" stroke="currentColor" stroke-miterlimit="50"/>
<path d="M123.999 76.3195H103.258L49.0156 64.1067H51.6805L123.999 76.3195ZM92.4991 78.6901C92.7409 78.4572 93.0458 78.3408 93.4242 78.3408C93.8027 78.3408 94.1022 78.452 94.3283 78.6795C94.5543 78.907 51.6331 79.2086 51.6331 79.5896C51.6331 79.9706 51.5175 80.2828 51.2862 80.5209C51.055 80.7643 50.7554 80.886 50.3927 80.886C50.03 80.886 49.7042 80.7643 49.4676 80.5209C49.2311 80.2775 49.105 79.9706 49.105 79.5896C49.105 79.2086 92.2574 78.9229 92.4991 78.6901Z" stroke="currentColor" stroke-miterlimit="50"/>
</svg>
