<svg width="143" height="143" viewBox="0 0 143 143" fill="none" xmlns="http://www.w3.org/2000/svg">
<path d="M108.559 109.866C108.559 89.329 91.7419 72.6833 71.0021 72.6833C50.2623 72.6833 33.4453 89.333 33.4453 109.866H108.563H108.559Z" fill="currentColor"/>
<path d="M33.4414 32.1919C33.4414 52.7293 50.2584 69.375 70.9982 69.375C91.738 69.375 108.555 52.7253 108.555 32.1919H33.4414Z" fill="currentColor"/>
<path d="M117.222 71.0858L76.2109 71.0378" stroke="#8D8D8E" stroke-width="1.15" stroke-miterlimit="10"/>
<path d="M65.7928 71.0258L24.7773 70.9739" stroke="#8D8D8E" stroke-width="1.15" stroke-miterlimit="10"/>
<path d="M70.8921 119.984C72.9337 119.984 74.5888 118.345 74.5888 116.324C74.5888 114.303 72.9337 112.664 70.8921 112.664C68.8504 112.664 67.1953 114.303 67.1953 116.324C67.1953 118.345 68.8504 119.984 70.8921 119.984Z" stroke="#8D8D8E" stroke-width="1.15" stroke-miterlimit="10"/>
<path d="M70.8569 121.474C72.8986 121.474 74.5537 119.836 74.5537 117.815C74.5537 115.793 72.8986 114.155 70.8569 114.155C68.8153 114.155 67.1602 115.793 67.1602 117.815C67.1602 119.836 68.8153 121.474 70.8569 121.474Z" stroke="#8D8D8E" stroke-width="1.15" stroke-miterlimit="10"/>
<path d="M71.1382 27.8414C73.1798 27.8414 74.8349 26.2028 74.8349 24.1815C74.8349 22.1601 73.1798 20.5215 71.1382 20.5215C69.0965 20.5215 67.4414 22.1601 67.4414 24.1815C67.4414 26.2028 69.0965 27.8414 71.1382 27.8414Z" stroke="#8D8D8E" stroke-width="1.15" stroke-miterlimit="10"/>
<path d="M71.1069 29.3358C73.1486 29.3358 74.8037 27.6972 74.8037 25.6758C74.8037 23.6545 73.1486 22.0159 71.1069 22.0159C69.0652 22.0159 67.4102 23.6545 67.4102 25.6758C67.4102 27.6972 69.0652 29.3358 71.1069 29.3358Z" stroke="#8D8D8E" stroke-width="1.15" stroke-miterlimit="10"/>
<path d="M70.9766 117.059L71.0411 76.4519" stroke="#8D8D8E" stroke-width="1.15" stroke-miterlimit="10"/>
<path d="M71.0586 66.1392L71.1232 25.5359" stroke="#8D8D8E" stroke-width="1.15" stroke-miterlimit="10"/>
</svg>
