<svg width="279" height="97" viewBox="0 0 279 97" fill="none" xmlns="http://www.w3.org/2000/svg">
<path d="M203.448 56.6917H113.844V58.2042H203.448V56.6917Z" fill="currentColor"/>
<path d="M202.68 60.0884L207.251 57.4523L202.68 54.8076V60.0884Z" fill="currentColor"/>
<path d="M223.348 52.9241H76.043V54.4366H223.348V52.9241Z" fill="currentColor"/>
<path d="M222.051 58.1272L229.75 53.6847L222.051 49.2336V58.1272Z" fill="currentColor"/>
<path d="M170.359 44.1191H80.7539V45.6316H170.359V44.1191Z" fill="currentColor"/>
<path d="M169.582 47.5159L174.153 44.8712L169.582 42.2351V47.5159Z" fill="currentColor"/>
<path d="M235.854 46.9688H33.6836V48.4813H235.854V46.9688Z" fill="currentColor"/>
<path d="M234.133 53.6065L244.313 47.7207L234.133 41.8435V53.6065Z" fill="currentColor"/>
<path d="M215.408 40.6013H69.4258V42.1138H215.408V40.6013Z" fill="currentColor"/>
<path d="M214.113 45.8131L221.813 41.362L214.113 36.9109V45.8131Z" fill="currentColor"/>
</svg>
