<svg width="143" height="143" viewBox="0 0 143 143" fill="none" xmlns="http://www.w3.org/2000/svg">
<path d="M18.6724 80.8754C18.4329 80.6368 18.3184 80.336 18.3184 79.9625C18.3184 79.589 18.4381 79.3089 18.6724 79.0806C18.9119 78.8524 19.2139 78.7383 19.5887 78.7383C19.9636 78.7383 20.2604 78.8472 20.4843 79.0703C20.7081 79.2933 20.8175 79.589 20.8175 79.9625C20.8175 80.336 20.7029 80.642 20.4738 80.8754C20.2448 81.114 21.1923 94.4712 21.1923 94.4712C21.1923 94.4712 18.9067 81.114 18.6672 80.8754H18.6724Z" stroke="currentColor" stroke-miterlimit="50"/>
<path d="M28.9498 65.4839C29.8714 64.8251 43.679 44.875 43.679 44.875C43.679 44.875 33.7502 64.6851 34.4947 65.0637C35.2393 65.4424 35.812 65.9819 36.2233 66.677C36.6346 67.372 36.8376 68.1761 36.8376 69.0786C36.8376 69.8982 34.9737 72.2688 34.526 73.0469C34.0782 73.8198 78.0157 74.852 76.9953 75.6301C76.433 76.0347 75.6572 74.5927 75.475 74.9714C75.2927 75.35 75.2094 75.9466 75.2251 76.7454L67.0821 76.7661C67.0665 75.6768 67.483 76.5379 67.8214 75.8272C68.1599 75.1166 30.2775 74.2763 31.0689 73.6901C31.8759 73.1039 32.4173 72.5852 32.6985 72.1391C32.9796 71.693 34.7603 69.6233 34.7603 69.0786C34.7603 68.3317 34.4947 67.7248 33.9689 67.2579C33.443 66.7911 32.761 66.5577 31.9279 66.5577C31.2927 66.5577 30.6992 66.76 30.1473 67.1697C29.5902 67.5795 29.1841 68.1086 28.9238 68.7519L26.9766 68.0412C27.367 66.9934 28.0231 66.1375 28.9446 65.4787L28.9498 65.4839ZM30.668 80.8692C30.4285 80.6306 30.3139 80.3298 30.3139 79.9563C30.3139 79.5828 73.0592 79.3027 73.2986 79.0745C73.5381 78.8462 73.8401 78.7321 74.215 78.7321C74.5899 78.7321 74.8866 78.841 75.1105 79.0641C75.3344 79.2871 32.8182 79.5828 32.8182 79.9563C32.8182 80.3298 32.7037 80.6358 32.4746 80.8692C32.2455 81.1079 31.9488 81.2272 31.5895 81.2272C31.2303 81.2272 30.9075 81.1079 30.6732 80.8692H30.668Z" stroke="currentColor" stroke-miterlimit="50"/>
<path d="M40.9453 65.4869C41.8668 64.8281 42.8612 64.4961 43.9286 64.4961C44.8918 64.4961 45.7456 64.688 46.4902 65.0667C47.2347 65.4454 47.8074 65.9848 48.2187 66.6799C48.63 67.375 48.8331 68.179 48.8331 69.0816C48.8331 69.9012 46.9692 72.2718 46.5214 73.0498C46.0736 73.8227 89.6051 73.0239 88.5846 73.802C88.0223 74.2066 87.6526 74.5956 87.4704 74.9743C87.2882 75.353 87.2049 75.9495 87.2205 76.7484L85.1431 76.7691C85.1275 75.6798 85.544 76.5409 85.8824 75.8302C86.2209 75.1196 42.2677 74.2792 43.0591 73.6931C43.8661 73.1069 44.4076 72.5882 44.6887 72.1421C44.9699 71.696 46.7505 69.6263 46.7505 69.0816C46.7505 68.3346 46.485 67.7277 45.9591 67.2609C45.4333 66.794 44.7512 66.5606 43.9182 66.5606C43.283 66.5606 42.6894 66.7629 42.1375 67.1727C41.5805 67.5825 41.1743 68.1116 40.914 68.7548L38.9668 68.0442C39.3573 66.9963 40.0133 66.1404 40.9348 65.4817L40.9453 65.4869ZM42.6634 80.8722C42.4239 80.6336 42.3094 80.3327 42.3094 79.9592C42.3094 79.5858 85.0546 79.3057 85.2941 79.0774C85.5336 78.8492 85.8356 78.7351 86.2104 78.7351C86.5853 78.7351 86.8821 78.844 87.106 79.067C87.3298 79.2901 44.8137 79.5858 44.8137 79.9592C44.8137 80.3327 63.708 93.0415 63.708 93.0415C63.708 93.0415 43.939 81.2301 43.5797 81.2301C43.2205 81.2301 42.8977 81.1108 42.6634 80.8722Z" stroke="currentColor" stroke-miterlimit="50"/>
<path d="M126.567 76.7534H106.022L52.291 64.7812H54.9307L126.567 76.7534ZM95.3643 79.0773C95.6038 78.849 95.9057 78.7349 96.2806 78.7349C96.6555 78.7349 96.9522 78.8439 97.1761 79.0669C97.4 79.29 54.8838 79.5856 54.8838 79.9591C54.8838 80.3326 54.7693 80.6386 54.5402 80.8721C54.3111 81.1107 54.0144 81.23 53.6551 81.23C53.2959 81.23 52.9731 81.1107 52.7388 80.8721C52.5045 80.6335 52.3795 80.3326 52.3795 79.9591C52.3795 79.5856 95.1248 79.3055 95.3643 79.0773Z" stroke="currentColor" stroke-miterlimit="50"/>
</svg>
