<svg width="143" height="143" viewBox="0 0 143 143" fill="none" xmlns="http://www.w3.org/2000/svg">
<g clip-path="url(#clip0_675_1057)">
<path d="M63.3117 81.4926C67.4653 76.011 67.4291 67.6796 68.7441 61.1816C70.2949 53.5218 72.1722 45.4809 70.6758 37.6578C70.1498 34.917 68.9799 32.7661 67.03 31.4229C65.0892 29.626 60.5546 26.9033 58.7408 31.4411C56.5279 38.8195 56.2286 75.5935 54.5236 83.2805C52.7642 95.9227 46.5428 107.603 44.6836 119.737C44.7652 119.937 44.8378 120.136 44.9194 120.336C47.223 118.757 62.0057 83.2169 63.3117 81.4926Z" fill="currentColor"/>
<path d="M76.8331 62.8429C77.7944 71.383 75.0736 79.5509 78.5743 86.3667C79.7352 87.7915 81.5853 88.454 83.8526 89.2254C84.9046 89.3797 85.8841 89.4523 86.8273 89.6066C87.7705 89.7609 88.6774 89.9878 89.3304 89.9878C89.0311 88.8987 88.6774 87.3559 88.4688 85.804C87.8521 81.1573 88.5323 76.4743 88.7772 71.7278C89.1399 64.5309 88.7772 57.3068 88.1514 50.1281C87.181 38.9743 83.7166 27.9656 70.5391 26.9038C73.2598 32.694 74.8288 38.6022 75.7266 44.6011C76.6154 50.6 76.8331 56.6897 76.8331 62.8338V62.8429Z" fill="currentColor"/>
</g>
<defs>
<clipPath id="clip0_675_1057">
<rect width="142.1" height="142.1" fill="white"/>
</clipPath>
</defs>
</svg>
