<svg width="279" height="97" viewBox="0 0 279 97" fill="none" xmlns="http://www.w3.org/2000/svg">
<path d="M137.152 50.8482C135.609 49.931 134.935 49.931 135.343 51.204C132.491 49.9231 130.721 49.9231 128.849 51.9473C126.327 49.9231 123.702 49.9231 119.159 50.9985C117.843 49.9231 114.608 49.9231 111.192 49.9231C108.2 49.9231 105.075 49.9231 103.249 51.0143C98.6903 49.9231 95.4473 49.9231 93.0973 56.0354C91.7343 53.9953 90.4653 52.6353 89.1806 51.8208C87.8959 51.0064 86.6034 50.7296 85.3109 50.777C83.7442 50.9985 82.1854 51.5441 81.4647 51.4254C79.9999 51.1329 79.052 50.524 78.6134 48.9979C76.6629 49.9231 75.2137 49.9231 74.8377 48.6421C72.2448 50.1682 70.31 50.0417 67.9286 48.7686C66.8398 50.5952 65.3123 51.2673 62.8604 51.7338C63.1973 51.9394 62.4766 51.4334 61.2781 50.6822C61.0979 50.7296 60.4321 50.524 59.6331 50.358C58.4581 50.3184 57.1734 50.7138 55.9749 51.3938C55.2934 49.9231 54.3847 49.9231 54.2594 50.2631C54.3847 49.9231 54.3847 48.5393 53.6719 49.1165C54.3847 48.5314 55.0584 48.5314 54.9957 49.9547C56.1316 49.3221 57.2596 48.9267 58.2231 49.0928C59.1866 49.2588 60.0013 49.9863 60.3538 51.1803C62.2024 49.9863 63.5889 49.2588 64.6308 48.3732C66.7458 48.9979 68.5161 49.4723 70.4275 48.5946C70.7095 49.4723 71.0777 48.9979 71.6652 47.3611C72.4172 48.7211 73.3885 48.903 74.9082 47.7723C75.0884 48.7291 76.4279 48.9267 78.112 48.2072C78.2922 49.1956 79.0364 49.0849 80.2584 48.3337C80.4777 48.9584 81.1671 48.9584 82.1541 48.6737C83.1411 49.1798 84.3161 49.6463 85.4519 50.611C86.3841 51.7101 87.2693 53.2916 88.0448 55.6638C89.7055 53.2995 91.2643 51.7101 92.8075 50.7296C95.9017 48.7607 98.9567 49.2114 103.155 50.5635C102.341 48.5393 104.158 48.5393 105.991 48.563C107.73 48.5393 109.485 48.5393 111.192 48.5393C114.608 48.5393 117.843 48.5393 118.924 49.4012C123.702 48.5393 126.327 48.5393 128.904 50.1998C130.721 48.5393 132.491 48.5393 135.586 49.5672C134.935 48.5393 135.601 48.5393 137.379 49.2747C135.609 48.5393 135.609 49.9231 137.152 50.8403V50.8482Z" fill="currentColor"/>
<path d="M136.172 52.7854C134.903 51.6546 135.937 51.0458 138.232 51.1486C138.013 49.8439 139.047 49.235 140.026 49.5829C139.047 49.2429 138.013 48.6341 138.585 48.5154C135.945 47.4321 134.903 46.8312 136.948 47.2661C134.903 46.8233 134.903 48.0331 136.634 50.1997C134.903 50.4448 134.903 51.6546 136.172 52.7854Z" fill="currentColor"/>
<path d="M196.152 50.8482C194.609 49.931 193.935 49.931 194.343 51.204C191.491 49.9231 189.721 49.9231 187.849 51.9473C185.327 49.9231 182.702 49.9231 178.159 50.9985C176.843 49.9231 173.608 49.9231 170.192 49.9231C167.2 49.9231 164.075 49.9231 162.249 51.0143C157.69 49.9231 154.447 49.9231 152.097 56.0354C150.734 53.9953 149.465 52.6353 148.181 51.8208C146.896 51.0064 145.603 50.7296 144.311 50.777C142.744 50.9985 141.185 51.5441 140.465 51.4254C139 51.1329 138.052 50.524 137.613 48.9979C135.663 49.9231 134.214 49.9231 133.838 48.6421C131.245 50.1682 129.31 50.0417 126.929 48.7686C125.84 50.5952 124.312 51.2673 121.86 51.7338C122.197 51.9394 121.477 51.4334 120.278 50.6822C120.098 50.7296 119.432 50.524 118.633 50.358C117.458 50.3184 116.173 50.7138 114.975 51.3938C114.293 49.9231 113.385 49.9231 113.259 50.2631C113.385 49.9231 113.385 48.5393 112.672 49.1165C113.385 48.5314 114.058 48.5314 113.996 49.9547C115.132 49.3221 116.26 48.9267 117.223 49.0928C118.187 49.2588 119.001 49.9863 119.354 51.1803C121.202 49.9863 122.589 49.2588 123.631 48.3732C125.746 48.9979 127.516 49.4723 129.427 48.5946C129.709 49.4723 130.078 48.9979 130.665 47.3611C131.417 48.7211 132.389 48.903 133.908 47.7723C134.088 48.7291 135.428 48.9267 137.112 48.2072C137.292 49.1956 138.036 49.0849 139.258 48.3337C139.478 48.9584 140.167 48.9584 141.154 48.6737C142.141 49.1798 143.316 49.6463 144.452 50.611C145.384 51.7101 146.269 53.2916 147.045 55.6638C148.705 53.2995 150.264 51.7101 151.807 50.7296C154.902 48.7607 157.957 49.2114 162.155 50.5635C161.341 48.5393 163.158 48.5393 164.991 48.563C166.73 48.5393 168.485 48.5393 170.192 48.5393C173.608 48.5393 176.843 48.5393 177.924 49.4012C182.702 48.5393 185.327 48.5393 187.904 50.1998C189.721 48.5393 191.491 48.5393 194.586 49.5672C193.935 48.5393 194.601 48.5393 196.379 49.2747C194.609 48.5393 194.609 49.9231 196.152 50.8403V50.8482Z" fill="currentColor"/>
<path d="M195.172 52.7854C193.903 51.6546 194.937 51.0458 197.232 51.1486C197.013 49.8439 198.047 49.235 199.026 49.5829C198.047 49.2429 197.013 48.6341 197.585 48.5154C194.945 47.4321 193.903 46.8312 195.948 47.2661C193.903 46.8233 193.903 48.0331 195.634 50.1997C193.903 50.4448 193.903 51.6546 195.172 52.7854Z" fill="currentColor"/>
<path d="M113.784 46.5461C112.805 46.7359 112.139 46.7359 113.283 46.2061C109.695 46.728 107.925 46.728 111.975 44.3954C103.522 46.7359 100.898 46.7359 97.2087 36.1638C95.7674 43.2093 93.8482 45.5577 90.3389 45.9452C88.5842 46.135 86.43 45.8424 84.3776 45.1861C84.3541 46.0559 83.7666 46.3959 83.7431 46.2694C81.3618 46.728 79.5444 46.728 80.414 45.6842C78.2911 46.0322 76.4659 46.2615 74.7426 46.3485C71.2959 46.5224 68.2722 46.1033 64.1597 44.854C63.58 45.787 62.3893 46.2615 60.8697 46.4829C59.35 46.7043 57.4935 46.6885 55.872 46.4829C54.0703 46.6885 52.5114 46.7122 52.4644 45.36C49.4016 46.728 47.8662 46.728 47.9446 43.7311C43.4639 46.728 40.8397 46.728 37.1345 43.6758C36.4452 46.728 34.6748 46.728 32.0428 45.5182C32.2386 46.728 31.565 46.728 30.6406 46.0717C31.5728 46.728 31.5728 45.3442 30.9775 44.854C31.565 45.3442 32.2386 45.3442 32.4658 44.34C34.6827 45.3442 36.4452 45.3442 37.5418 42.7032C40.8397 45.3442 43.4639 45.3442 47.5294 42.7506C47.8584 45.3363 49.4016 45.3363 52.0336 44.1977C52.5349 45.3205 54.1173 45.2968 55.7701 45.194C57.5405 45.2968 59.3656 45.3205 60.9245 45.0358C62.4833 44.7512 63.7602 44.1502 64.52 42.9562C66.4549 43.7549 68.1547 44.2847 69.7919 44.5851C71.4291 44.8856 72.9957 44.9647 74.6094 45.0438C76.3093 44.7275 78.0639 44.427 80.1946 44.7749C79.8029 44.6563 80.1241 44.9963 80.8135 45.2256C81.4558 45.2019 82.4741 45.0596 83.5943 44.7828C83.892 44.9014 84.6283 44.4586 84.6988 43.7549C85.678 43.8181 86.7433 44.087 87.7382 44.2609C88.733 44.4349 89.6652 44.5061 90.5034 44.4586C93.8717 44.253 95.8536 42.0706 97.4829 35.5312C100.89 45.3442 103.515 45.3442 111.121 42.3236C107.909 45.3442 109.679 45.3442 112.93 44.6721C112.123 45.3442 112.797 45.3442 113.541 45.1307C112.797 45.3442 112.797 46.728 113.769 46.5382L113.784 46.5461Z" fill="currentColor"/>
<path d="M113.785 48.3252C112.109 48.4596 113.143 47.8508 114.396 47.2182C115.211 46.6488 116.245 46.04 116.245 46.04C116.245 46.04 115.211 45.439 114.208 44.8223C113.135 44.2292 112.101 43.6282 112.876 43.2961C112.101 43.6282 112.101 44.8302 113.448 45.7C112.101 47.2498 112.101 48.4517 113.777 48.3252H113.785Z" fill="currentColor"/>
<path d="M141.638 47.7818C140.816 48.2404 140.04 48.3749 140.557 48.1772C137.51 48.5172 135.755 48.5172 137.048 47.7186C130.147 48.5172 126.269 48.5172 119.344 47.6237C118.945 48.0744 117.786 48.2958 116.25 48.4065C114.715 48.5172 112.804 48.5172 112.099 47.8213C107.101 48.5251 103.349 48.5251 99.5417 44.437C96.0088 48.5251 92.4211 48.5251 87.7368 47.8055C86.6166 48.1693 85.2223 48.3432 83.7026 48.4381C82.1907 48.5251 80.5536 48.5251 78.9634 48.5251C78.0077 48.5251 77.0677 48.5251 76.1434 48.4618C75.2112 48.4777 74.2947 48.4223 73.4017 48.2562C72.5008 48.4223 71.6235 48.4697 70.754 48.4381C69.9002 48.5251 69.0542 48.5251 68.216 48.4935C67.4013 48.5251 66.5866 48.5251 65.8033 48.5251C65.0121 48.5251 64.2523 48.5251 63.5081 48.5172C62.0276 48.5014 60.6411 48.4777 59.3799 48.4302C57.3667 48.5014 55.6121 48.5172 54.7504 47.6395C54.5232 49.9089 56.7401 49.901 59.6149 49.6954C60.7508 49.7982 62.0746 49.8535 63.5316 49.8772C64.2601 49.8931 65.02 49.901 65.7563 49.7824C66.5475 49.7982 67.323 49.6954 68.0436 49.3475C68.9758 49.6875 69.861 49.7982 70.7227 49.4265C71.6235 49.6796 72.5087 49.4503 73.4173 48.873C74.3025 49.4503 75.2112 49.6796 76.1904 49.5926C77.0912 49.8219 78.0625 49.7428 79.1044 49.5451C79.8172 49.7507 80.6006 49.8219 81.3761 49.8456C82.1516 49.8772 82.9271 49.8535 83.6634 49.8061C85.1361 49.7191 86.4443 49.5372 87.3921 49.1735C92.4211 49.901 96.0088 49.901 99.5025 45.6785C103.349 49.901 107.101 49.901 112.443 49.1972C112.804 49.901 114.723 49.901 116.242 49.8852C117.762 49.8693 118.898 49.8377 119.235 49.7745C126.277 49.901 130.155 49.901 137.173 49.7903C135.763 49.901 137.526 49.901 140.628 49.8535C140.017 49.8852 140.753 49.8614 141.654 49.7982C144.215 49.8614 146.941 49.8852 147.96 49.6242C148.869 49.387 148.43 48.9363 146.182 48.0665C144.725 48.2483 142.939 48.1139 141.654 47.7818H141.638Z" fill="currentColor"/>
<path d="M146.167 48.0664C146.3 48.0506 146.441 48.0348 146.574 48.0111C146.637 48.0032 146.691 47.9874 146.746 47.9715C146.253 47.8925 145.751 47.8055 145.234 47.7185C145.579 47.8371 145.885 47.9557 146.174 48.0664H146.167Z" fill="currentColor"/>
<path d="M208.504 49.2288C209.993 49.5451 210.745 49.6874 210.737 49.6795C210.729 49.6795 210.188 49.5609 209.154 49.3474C208.919 49.3079 208.669 49.2604 208.402 49.2051C208.434 49.213 208.465 49.2209 208.496 49.2288H208.504Z" fill="currentColor"/>
<path d="M228.072 48.0112C228.072 48.0112 228.096 47.9954 228.111 47.9954C227.814 48.1219 227.798 48.1298 228.072 48.0112Z" fill="currentColor"/>
<path d="M211.451 48.0585C211.537 48.0665 211.607 48.0665 211.654 48.0585C211.419 47.9716 211.176 47.8925 210.918 47.7976C211.106 47.8925 211.278 47.9716 211.451 48.0585Z" fill="currentColor"/>
<path d="M210.275 48.2246C209.938 48.3353 208.575 48.2009 206.397 47.8451C207.494 48.5093 206.609 48.5172 205.442 48.1139C205.904 48.5172 205.504 48.5172 204.932 48.1455C203.985 48.5172 202.864 48.5172 202.629 47.766C200.068 48.5172 198.423 48.5172 197.781 46.7934C194.624 48.5172 192.47 48.5172 189.281 46.5166C187.73 48.5172 185.145 48.5172 181.354 47.9479C179.599 48.5172 176.638 48.5172 173.528 48.5172C170.614 48.5172 167.567 48.5172 170.223 47.4576C161.261 48.5172 158.003 48.5172 149.261 39.2656C150.624 45.3068 149.629 47.4023 146.738 47.9716C158.285 49.901 161.645 49.8931 170.442 49.7507C167.575 49.901 170.622 49.901 173.536 49.901C176.646 49.901 179.607 49.901 181.15 49.3791C185.153 49.901 187.746 49.901 189.125 48.0823C192.477 49.901 194.632 49.901 198.031 48.3511C198.431 49.901 200.076 49.901 202.872 49.2209C202.872 49.901 203.992 49.901 205.042 49.553C205.504 49.901 205.904 49.901 205.504 49.553C206.609 49.8931 207.502 49.8852 206.366 49.4186C207.862 49.6954 209.194 49.7745 209.601 49.7112C209.938 49.6558 209.633 49.5056 208.505 49.2288C208.262 49.1814 208.003 49.1261 207.729 49.0628C207.964 49.1102 208.191 49.1577 208.411 49.2051C208.199 49.1498 207.964 49.0944 207.698 49.0391C208.262 49.1577 208.747 49.2605 209.155 49.3554C210.4 49.5847 211.254 49.6717 211.505 49.6321C211.842 49.5689 211.074 49.2526 208.74 48.6437C214.004 49.7745 214.928 49.7982 211.45 48.0586C210.941 48.0111 209.766 47.6632 208.152 47.0385C209.915 47.7581 210.62 48.1139 210.283 48.2246H210.275Z" fill="currentColor"/>
<path d="M54.5156 47.3389C54.5861 47.4496 54.6566 47.5445 54.7506 47.6315C54.7663 47.4813 54.7898 47.3231 54.829 47.1492C54.7193 47.2124 54.6253 47.2757 54.5156 47.3389Z" fill="currentColor"/>
<path d="M226.357 47.6475C223.756 49.1182 223.756 49.1182 226.357 47.6475Z" fill="currentColor"/>
<path d="M46.6113 46.6827C46.6192 46.7934 46.6348 46.9041 46.6505 46.9911C46.6583 46.398 46.7053 45.6468 46.7837 44.7217C46.7132 45.544 46.6583 46.1766 46.6113 46.6827Z" fill="currentColor"/>
<path d="M46.6592 44.0813C46.4007 47.8136 46.3615 49.3713 46.6122 46.6828C46.5573 46.1293 46.5808 45.2674 46.6592 44.0813Z" fill="currentColor"/>
<path d="M49.291 46.8645C49.4163 49.7427 50.9674 49.5055 54.5159 47.331C54.3122 47.0068 54.1869 46.6035 54.179 46.0737C51.4452 47.8371 49.9177 48.3115 49.291 46.8566V46.8645Z" fill="currentColor"/>
<path d="M49.3544 45.0696C49.2369 45.2989 49.1272 45.5124 49.0176 45.718C49.0724 46.1924 49.1664 46.5641 49.2996 46.8645C49.2761 46.3585 49.2996 45.7733 49.3544 45.0696Z" fill="currentColor"/>
<path d="M46.6521 46.991C46.6129 49.5767 47.2552 49.0943 49.0178 45.7179C48.9708 45.3225 48.9551 44.8639 48.9551 44.342C47.5607 47.165 46.8636 48.0664 46.6521 46.991Z" fill="currentColor"/>
<path d="M218.367 47.1334C218.399 47.0701 218.422 46.991 218.438 46.8962C218.406 46.8171 218.375 46.738 218.336 46.6589C218.352 46.825 218.359 46.9831 218.359 47.1334H218.367Z" fill="currentColor"/>
<path d="M222.088 49.0471C222.088 49.0471 222.652 48.4936 223.843 47.3391C222.722 48.4382 222.143 48.9996 222.088 49.0471Z" fill="currentColor"/>
<path d="M226.357 47.6473C226.42 47.6078 226.475 47.5762 226.545 47.5366C226.483 47.5762 226.428 47.6078 226.357 47.6394V47.6473Z" fill="currentColor"/>
<path d="M222.848 48.2959C222.848 48.2959 222.824 48.3196 222.809 48.3354C222.3 48.8415 222.057 49.0787 222.096 49.0471C222.104 49.0392 222.362 48.7862 222.856 48.2959H222.848Z" fill="currentColor"/>
<path d="M226.357 47.6475C226.42 47.6158 226.475 47.5842 226.538 47.5447C226.475 47.5842 226.42 47.6079 226.357 47.6475Z" fill="currentColor"/>
<path d="M223.842 47.3389C223.842 47.3389 223.904 47.3152 223.936 47.3073C224.061 47.1649 224.202 47.0068 224.351 46.8486C224.171 47.0226 224.006 47.1886 223.842 47.3389Z" fill="currentColor"/>
<path d="M223.835 47.3469C223.835 47.3469 223.819 47.3469 223.811 47.3548C223.419 47.7344 223.106 48.0507 222.848 48.3037C223.114 48.0507 223.443 47.7344 223.835 47.3469Z" fill="currentColor"/>
<path d="M222.002 43.7808C220.576 48.3908 219.542 48.367 219.424 43.6147C219.542 48.367 219.542 48.454 219.424 43.765C219.424 48.4619 219.307 48.4619 218.461 43.8045C218.555 45.3306 218.563 46.3507 218.438 46.8963C219.628 49.8299 219.981 49.7508 221.305 46.5721C220.686 49.5769 220.944 49.7904 223.474 47.434C222.237 47.6475 221.939 46.5405 222.002 43.7808Z" fill="currentColor"/>
<path d="M215.413 44.2472C217.497 48.3748 216.8 48.3827 211.536 45.2751C214.99 48.4143 214.222 48.438 209.162 46.4533C211.293 47.4734 211.982 47.9873 211.653 48.0506C215.491 49.4106 216.666 49.6241 215.366 48.359C214.967 48.0743 214.481 47.7185 213.886 47.2915C214.262 47.5366 214.606 47.758 214.927 47.9557C214.645 47.7106 214.309 47.4259 213.909 47.1017C214.497 47.5524 214.982 47.9241 215.374 48.2245C217.857 49.7032 218.468 49.4423 218.366 47.1254C218.037 47.8608 217.183 46.8645 215.413 44.2393V44.2472Z" fill="currentColor"/>
<path d="M215.366 48.3591C216.964 49.5056 216.964 49.4582 215.366 48.2247C215.225 48.1377 215.077 48.0507 214.92 47.9558C215.092 48.106 215.233 48.2405 215.359 48.3591H215.366Z" fill="currentColor"/>
<path d="M223.553 47.4181C221.822 49.2289 221.563 49.5293 222.801 48.3353C223.067 48.0744 223.396 47.7502 223.803 47.3469C223.717 47.3706 223.631 47.3944 223.553 47.4102V47.4181Z" fill="currentColor"/>
<path d="M224.32 46.8486C224.14 47.0305 223.967 47.1966 223.803 47.3547C223.967 47.1966 224.132 47.0305 224.32 46.8486Z" fill="currentColor"/>
<path d="M223.475 47.4338C223.475 47.4338 223.529 47.4338 223.553 47.418C223.725 47.2361 223.913 47.0384 224.117 46.825C223.882 47.0464 223.67 47.244 223.475 47.4338Z" fill="currentColor"/>
<path d="M233.587 46.1687C230.368 45.1645 229.357 44.7296 223.49 41.6694C224.798 43.6067 225.848 44.7691 226.929 45.6231C226.851 45.6784 226.757 45.7417 226.678 45.7891C226.169 45.5361 225.566 45.2198 224.791 44.8165C225.206 45.4333 225.574 45.8999 225.926 46.2715C225.112 46.7776 224.469 47.1255 223.945 47.3074C221.759 49.7744 222.307 49.6558 226.506 47.3232C222.448 49.7586 222.401 49.893 226.365 47.6474C226.428 47.5129 226.584 47.3153 226.827 47.0622C227.125 47.2678 227.43 47.4418 227.767 47.6078C226.686 47.9637 226.216 47.9953 226.365 47.6474C222.441 49.8851 223.529 49.8535 228.182 47.9558C228.159 47.9637 228.143 47.9795 228.12 47.9874C228.19 47.9558 228.269 47.9241 228.363 47.8846C228.245 47.932 228.143 47.9716 228.073 48.0032C224.916 49.6005 224.963 49.8298 228.276 49.0549C228.229 49.1023 228.19 49.1498 228.143 49.1893C226.71 49.6163 226.655 49.6716 227.971 49.3712C227.963 49.3791 227.947 49.3949 227.94 49.4028C227.302 49.5609 227.302 49.5609 227.94 49.4028C227.94 49.4028 227.885 49.4581 227.861 49.4898C227.485 49.6005 227.454 49.6321 227.783 49.5768C226.788 50.6363 226.185 51.3875 225.159 52.5341C225.934 51.8699 227.83 51.0633 229.6 50.4149C227.462 52.6685 226.279 54.1472 224.195 56.4957C225.895 55.0486 230.376 53.2299 234.112 51.9331C234.99 50.5414 253.124 49.1972 253.124 49.1972C253.124 49.1972 234.99 47.853 233.587 46.1608V46.1687ZM226.945 45.9236C226.945 45.9236 226.929 45.9157 226.921 45.9078C226.984 45.8603 227.047 45.8129 227.117 45.7575C227.117 45.7575 227.133 45.7654 227.141 45.7733C227.078 45.8208 227.007 45.8682 226.953 45.9157L226.945 45.9236ZM227.148 45.7891C227.219 45.8445 227.297 45.8998 227.368 45.9552C227.313 45.9947 227.266 46.0264 227.219 46.058C227.133 46.0185 227.047 45.9789 226.96 45.9315C227.023 45.884 227.086 45.8366 227.148 45.7891ZM227.383 45.9631C227.47 46.0264 227.556 46.0817 227.642 46.1371C227.603 46.1608 227.571 46.1845 227.532 46.2082C227.438 46.1608 227.336 46.1133 227.235 46.0659C227.282 46.0343 227.329 45.9947 227.383 45.9631ZM227.744 46.2082C227.932 46.3268 228.12 46.4455 228.316 46.5641C228.112 46.4771 227.9 46.3901 227.665 46.2794C227.689 46.2557 227.712 46.2399 227.736 46.2161L227.744 46.2082ZM228.699 48.0506C228.308 48.1851 228.284 48.1772 228.645 48.0269C228.66 48.0348 228.684 48.0427 228.699 48.0506ZM228.723 48.0665C228.498 48.1508 228.498 48.1508 228.723 48.0665ZM228.84 48.1218C228.84 48.1218 228.919 48.1534 228.958 48.1772C228.778 48.2088 228.739 48.193 228.84 48.1218ZM226.968 45.6705C227.015 45.7101 227.062 45.7417 227.109 45.7733C227.047 45.8208 226.976 45.8761 226.913 45.9236C226.859 45.8998 226.804 45.8682 226.749 45.8445C226.819 45.7891 226.89 45.7259 226.96 45.6705H226.968ZM226.044 46.4138C226.044 46.4138 226.107 46.4771 226.146 46.5087C225.942 46.6669 225.754 46.8092 225.59 46.9357C225.754 46.8092 225.934 46.6669 226.138 46.5166C226.138 46.5166 226.138 46.5166 226.146 46.5245C225.942 46.6748 225.754 46.8171 225.582 46.9357C225.088 47.3074 224.775 47.5525 224.665 47.6395C224.759 47.5604 225.073 47.3232 225.574 46.9357C224.039 48.0665 224.195 47.9004 226.028 46.4138H226.044ZM226.177 46.5482C226.224 46.5957 226.271 46.6431 226.326 46.6827C224.336 48.0506 224.297 48.019 226.177 46.5482ZM226.349 46.7064C226.412 46.7617 226.467 46.8092 226.53 46.8566C224.673 48.0506 224.563 48.0111 226.349 46.7064ZM228.01 47.7423C228.01 47.7423 228.049 47.766 228.073 47.7739C227.211 48.1376 227.188 48.1297 228.01 47.7423ZM228.096 47.7818C228.096 47.7818 228.096 47.7818 228.104 47.7818C227.551 48.019 227.548 48.019 228.096 47.7818ZM228.198 47.8292C228.237 47.8451 228.276 47.8688 228.323 47.8846C227.611 48.1534 227.564 48.1455 228.198 47.8292ZM228.425 47.932C228.425 47.932 228.488 47.9637 228.519 47.9716C227.916 48.1851 227.885 48.1692 228.425 47.932Z" fill="currentColor"/>
<path d="M88.8423 53.6797C88.2783 53.9643 87.7535 54.0434 88.106 53.9169C86.0536 54.075 84.8708 54.0355 85.7559 53.5294C81.1029 53.909 78.4944 53.8141 73.8649 53.055C73.5829 53.3475 72.7995 53.4662 71.7655 53.5057C70.7315 53.5452 69.4468 53.5057 68.9847 53.0154C65.6085 53.3713 63.0861 53.2843 60.6264 50.4456C58.1589 53.1103 55.7541 53.0233 52.6207 52.4303C51.8609 52.6438 50.9209 52.7387 49.8947 52.7624C48.8764 52.7861 47.7797 52.7466 46.7065 52.715C46.0642 52.6912 45.4297 52.6754 44.8187 52.6043C44.192 52.5884 43.581 52.5331 42.9857 52.4066C42.3747 52.4936 41.7871 52.5094 41.1996 52.4698C40.62 52.5094 40.056 52.4856 39.492 52.4461C38.9436 52.4461 38.3953 52.4303 37.8705 52.4145C37.3378 52.3987 36.8286 52.3749 36.3273 52.3512C35.3324 52.3117 34.4003 52.2563 33.5543 52.1931C32.1991 52.1931 31.0241 52.1614 30.4601 51.5605C30.2564 53.0787 31.7447 53.1261 33.6796 53.055C34.4394 53.1499 35.3324 53.221 36.3038 53.2685C36.7894 53.2922 37.2986 53.3159 37.8 53.2527C38.3326 53.2843 38.8575 53.2289 39.351 53.0154C39.9698 53.2685 40.5573 53.3634 41.1448 53.134C41.748 53.3238 42.3433 53.1894 42.97 52.8257C43.5497 53.2368 44.1607 53.4108 44.8187 53.3713C45.4218 53.5452 46.072 53.5215 46.777 53.4029C47.2549 53.5531 47.7719 53.6243 48.2967 53.6559C48.8137 53.6955 49.3385 53.6955 49.832 53.6876C50.819 53.6638 51.7042 53.5689 52.3544 53.3475C55.7149 53.9485 58.1276 54.0355 60.5716 51.2758C63.0626 54.2015 65.585 54.2885 69.1883 53.9406C69.4155 54.4229 70.7002 54.4704 71.7263 54.4941C72.7525 54.5178 73.5124 54.5257 73.7395 54.4941C78.4709 54.7392 81.0716 54.8341 85.7951 54.9211C84.8473 54.9606 86.0301 55.0081 88.1138 55.0476C87.7065 55.0476 88.2 55.0555 88.8031 55.0318C90.5265 55.1346 92.3517 55.2137 93.0488 55.0555C93.6677 54.9211 93.3778 54.6048 91.8895 53.9722C90.9103 54.0592 89.7118 53.9327 88.8501 53.6797H88.8423Z" fill="currentColor"/>
<path d="M91.8825 53.9803C91.9765 53.9724 92.0705 53.9645 92.1567 53.9566C92.1958 53.9566 92.235 53.9408 92.2742 53.9329C91.9452 53.8696 91.6083 53.7985 91.2637 53.7273C91.4908 53.8143 91.6945 53.9013 91.8825 53.9803Z" fill="currentColor"/>
<path d="M133.736 56.2102C134.731 56.4553 135.233 56.5739 135.225 56.566C135.225 56.566 134.857 56.4711 134.175 56.305C134.018 56.2734 133.854 56.2339 133.674 56.1943C133.697 56.1943 133.713 56.2102 133.736 56.2102Z" fill="currentColor"/>
<path d="M146.913 55.8464C146.913 55.8464 146.928 55.8464 146.936 55.8306C146.733 55.9096 146.725 55.9096 146.913 55.8464Z" fill="currentColor"/>
<path d="M135.741 55.4906C135.796 55.4906 135.851 55.4985 135.882 55.4906C135.725 55.4273 135.569 55.364 135.396 55.3008C135.522 55.364 135.631 55.4273 135.749 55.4906H135.741Z" fill="currentColor"/>
<path d="M134.95 55.5696C134.723 55.6329 133.806 55.5142 132.357 55.2217C133.077 55.6961 132.482 55.6803 131.714 55.3798C132.012 55.6645 131.746 55.6566 131.378 55.3877C130.727 55.617 129.983 55.5933 129.842 55.0793C128.103 55.5222 126.999 55.4826 126.607 54.3123C124.445 55.3956 123.004 55.3482 120.904 53.9249C119.816 55.2375 118.077 55.1742 115.546 54.7077C114.356 55.0477 112.366 54.9845 110.275 54.9133C108.316 54.8421 106.272 54.7789 108.081 54.1305C102.034 54.6286 99.8483 54.5575 94.1847 48.1367C94.9602 52.2248 94.2474 53.6086 92.2891 53.9249C99.9971 55.4905 102.261 55.5617 108.175 55.6724C106.248 55.704 108.293 55.7752 110.251 55.8464C112.343 55.9175 114.324 55.9887 115.374 55.6724C118.053 56.1152 119.792 56.1785 120.763 54.9845C122.98 56.2813 124.422 56.3287 126.74 55.3719C126.975 56.4236 128.08 56.4631 129.975 56.0678C129.96 56.5264 130.712 56.5501 131.425 56.3445C131.73 56.5896 131.996 56.5975 131.738 56.3524C132.474 56.6055 133.07 56.6213 132.318 56.2813C133.313 56.5027 134.206 56.5817 134.48 56.5501C134.707 56.5264 134.503 56.4157 133.751 56.2022C133.587 56.1626 133.422 56.1231 133.234 56.0757C133.391 56.1152 133.54 56.1547 133.689 56.1864C133.548 56.1468 133.391 56.1073 133.218 56.0519C133.595 56.1468 133.916 56.2259 134.19 56.2971C135.02 56.4789 135.592 56.558 135.757 56.5343C135.984 56.5027 135.475 56.2654 133.916 55.8068C137.425 56.6845 138.052 56.7241 135.749 55.4826C135.404 55.4352 134.629 55.1742 133.555 54.7235C134.723 55.2454 135.185 55.5063 134.958 55.5696H134.95Z" fill="currentColor"/>
<path d="M30.3203 51.363C30.3595 51.4342 30.4143 51.5053 30.4691 51.5686C30.4848 51.4658 30.5005 51.363 30.5318 51.2444C30.4613 51.2839 30.3908 51.3235 30.3203 51.363Z" fill="currentColor"/>
<path d="M145.769 55.5618C143.988 56.4896 143.988 56.4896 145.769 55.5618Z" fill="currentColor"/>
<path d="M25.0254 50.7461C25.0254 50.8251 25.0332 50.8963 25.0489 50.9516C25.0724 50.5484 25.1194 50.0502 25.1899 49.4255C25.1272 49.979 25.0724 50.406 25.0332 50.7382L25.0254 50.7461Z" fill="currentColor"/>
<path d="M25.1186 48.9907C24.8601 51.4894 24.7974 52.5332 25.0246 50.7382C25.0011 50.3666 25.0324 49.7894 25.1186 48.9907Z" fill="currentColor"/>
<path d="M26.8262 50.9281C26.8497 52.8654 27.8915 52.7389 30.3277 51.363C30.1945 51.1416 30.124 50.8649 30.1319 50.509C28.2597 51.6319 27.2178 51.9165 26.834 50.9202L26.8262 50.9281Z" fill="currentColor"/>
<path d="M26.9049 49.7181C26.8188 49.8684 26.7404 50.0107 26.6621 50.1451C26.6856 50.4614 26.7404 50.7144 26.8266 50.92C26.8266 50.58 26.8501 50.1846 26.9049 49.7102V49.7181Z" fill="currentColor"/>
<path d="M25.0476 50.9518C24.9614 52.6914 25.4001 52.383 26.6612 50.1532C26.6377 49.8843 26.6377 49.5839 26.6534 49.228C25.6507 51.0942 25.1651 51.6872 25.0476 50.9518Z" fill="currentColor"/>
<path d="M140.41 55.0239C140.434 54.9844 140.449 54.929 140.465 54.8658C140.442 54.8104 140.426 54.763 140.402 54.6997C140.402 54.8104 140.402 54.9211 140.402 55.016L140.41 55.0239Z" fill="currentColor"/>
<path d="M142.869 56.3998C142.869 56.3998 143.261 56.0439 144.083 55.2927C143.308 56.0044 142.9 56.3681 142.869 56.3998Z" fill="currentColor"/>
<path d="M144.421 54.9844C144.303 55.0951 144.186 55.1979 144.084 55.2928C144.194 55.1979 144.303 55.0951 144.421 54.9844Z" fill="currentColor"/>
<path d="M145.768 55.5616C145.815 55.5379 145.846 55.5142 145.893 55.4905C145.846 55.5142 145.807 55.53 145.768 55.5537V55.5616Z" fill="currentColor"/>
<path d="M143.396 55.9175C143.396 55.9175 143.38 55.9333 143.364 55.9412C143.012 56.2654 142.839 56.4235 142.871 56.3998C142.871 56.3998 143.051 56.2259 143.396 55.9175Z" fill="currentColor"/>
<path d="M145.775 55.5618C145.815 55.5381 145.854 55.5223 145.901 55.4985C145.854 55.5223 145.822 55.5381 145.775 55.5618Z" fill="currentColor"/>
<path d="M144.084 55.2929C144.084 55.2929 144.123 55.277 144.147 55.277C144.241 55.1822 144.335 55.0794 144.436 54.9766C144.311 55.0873 144.194 55.198 144.084 55.2929Z" fill="currentColor"/>
<path d="M144.084 55.2927H144.068C143.802 55.5379 143.583 55.7434 143.402 55.9095C143.59 55.7434 143.81 55.5379 144.092 55.2927H144.084Z" fill="currentColor"/>
<path d="M142.932 52.8575C141.867 55.9176 141.178 55.886 141.209 52.6914C141.178 55.886 141.178 55.9492 141.209 52.7863C141.107 55.9413 141.021 55.9413 140.559 52.7863C140.59 53.8142 140.574 54.4943 140.473 54.858C141.209 56.8586 141.444 56.8111 142.408 54.7078C141.922 56.7083 142.094 56.8586 143.849 55.3404C143.019 55.4511 142.838 54.6999 142.94 52.8496L142.932 52.8575Z" fill="currentColor"/>
<path d="M138.492 53.0156C139.8 55.8385 139.33 55.8306 135.86 53.6166C138.108 55.8069 137.591 55.8069 134.238 54.352C135.648 55.0873 136.095 55.4432 135.875 55.4827C138.421 56.4869 139.205 56.653 138.366 55.7753C138.108 55.5776 137.787 55.3246 137.395 55.0241C137.646 55.198 137.865 55.3562 138.077 55.4906C137.896 55.3167 137.669 55.119 137.411 54.8976C137.795 55.2139 138.108 55.4748 138.366 55.6883C139.996 56.74 140.419 56.5818 140.403 55.0241C140.168 55.5064 139.612 54.8264 138.484 53.0156H138.492Z" fill="currentColor"/>
<path d="M138.374 55.7831C139.424 56.5897 139.424 56.558 138.374 55.6961C138.28 55.6329 138.186 55.5696 138.084 55.5063C138.194 55.6091 138.288 55.704 138.374 55.791V55.7831Z" fill="currentColor"/>
<path d="M143.896 55.3403C142.697 56.5185 142.509 56.7083 143.371 55.9413C143.551 55.7752 143.786 55.5617 144.068 55.3008C144.006 55.3166 143.951 55.3324 143.896 55.3403Z" fill="currentColor"/>
<path d="M144.421 54.9766C144.296 55.0952 144.178 55.2059 144.061 55.3087C144.17 55.2059 144.288 55.0952 144.421 54.9766Z" fill="currentColor"/>
<path d="M143.842 55.3482C143.842 55.3482 143.873 55.3482 143.897 55.3482C144.022 55.2295 144.147 55.103 144.288 54.9607C144.124 55.103 143.983 55.2295 143.842 55.3561V55.3482Z" fill="currentColor"/>
<path d="M150.656 54.7314C148.517 53.9882 147.844 53.664 143.974 51.4736C144.812 52.8021 145.486 53.6165 146.191 54.2096C146.136 54.2412 146.073 54.2807 146.018 54.3124C145.682 54.1305 145.282 53.9012 144.773 53.6165C145.039 54.0435 145.274 54.3598 145.501 54.6207C144.945 54.9449 144.499 55.1584 144.146 55.2691C142.627 56.8743 142.995 56.8111 145.87 55.3403C143.089 56.8822 143.05 56.9692 145.768 55.5538C145.815 55.4668 145.924 55.3324 146.089 55.1743C146.285 55.3166 146.488 55.4431 146.708 55.5617C145.971 55.7752 145.658 55.791 145.76 55.5617C143.073 56.9771 143.809 56.9771 146.974 55.8068C146.958 55.8068 146.943 55.8227 146.927 55.8306C146.974 55.8147 147.029 55.791 147.092 55.7673C147.013 55.7989 146.943 55.8227 146.896 55.8385C144.734 56.8427 144.765 56.9929 147.005 56.5501C146.974 56.5818 146.943 56.6134 146.911 56.6371C145.94 56.8901 145.901 56.9218 146.794 56.7557C146.794 56.7557 146.778 56.7715 146.77 56.7794C146.337 56.8691 146.337 56.8691 146.77 56.7794C146.77 56.7794 146.731 56.819 146.716 56.8348C146.457 56.8981 146.441 56.9218 146.661 56.8901C145.971 57.5781 145.548 58.0683 144.836 58.8195C145.376 58.3925 146.661 57.8944 147.867 57.499C146.379 58.9619 145.556 59.9345 144.099 61.4606C145.274 60.5275 148.321 59.4126 150.867 58.6218C151.486 57.7046 163.706 57.2223 163.706 57.2223C163.706 57.2223 151.549 55.8938 150.648 54.7314H150.656ZM146.199 54.4152C146.199 54.4152 146.191 54.4152 146.183 54.4072C146.222 54.3756 146.269 54.344 146.316 54.3124C146.316 54.3124 146.324 54.3124 146.332 54.3203C146.285 54.3519 146.238 54.3835 146.199 54.4152ZM146.34 54.3282C146.387 54.3677 146.434 54.4072 146.488 54.4468C146.449 54.4705 146.418 54.4942 146.387 54.51C146.332 54.4784 146.277 54.4547 146.214 54.4231C146.253 54.3914 146.3 54.3598 146.34 54.3282ZM146.488 54.4468C146.543 54.4863 146.598 54.5259 146.661 54.5733C146.637 54.5891 146.614 54.6049 146.582 54.6207C146.52 54.5891 146.457 54.5575 146.387 54.5179C146.418 54.4942 146.449 54.4705 146.488 54.4547V54.4468ZM146.723 54.6207C146.849 54.7077 146.974 54.7868 147.099 54.8738C146.966 54.8105 146.825 54.7473 146.669 54.6682C146.684 54.6524 146.7 54.6366 146.723 54.6287V54.6207ZM147.327 55.878C147.06 55.9571 147.045 55.9571 147.287 55.8622C147.303 55.8622 147.311 55.878 147.327 55.878ZM147.342 55.8859C147.191 55.9386 147.191 55.9386 147.342 55.8859ZM147.421 55.9255C147.421 55.9255 147.468 55.9492 147.499 55.965C147.381 55.9808 147.35 55.965 147.421 55.9255ZM146.222 54.2333C146.222 54.2333 146.285 54.2807 146.316 54.3045C146.269 54.3361 146.222 54.3677 146.183 54.3993C146.152 54.3835 146.112 54.3598 146.073 54.344C146.12 54.3124 146.175 54.2728 146.222 54.2333ZM145.588 54.7156C145.588 54.7156 145.627 54.7631 145.65 54.7868C145.509 54.8896 145.384 54.9766 145.266 55.0556C145.376 54.9766 145.509 54.8896 145.65 54.7868C145.509 54.8817 145.376 54.9766 145.266 55.0477C144.93 55.285 144.71 55.4431 144.632 55.4985C144.695 55.451 144.914 55.3008 145.259 55.0477C144.201 55.7673 144.311 55.6645 145.58 54.7077L145.588 54.7156ZM145.674 54.8105C145.674 54.8105 145.736 54.8738 145.768 54.9054C144.397 55.7831 144.373 55.7594 145.674 54.8105ZM145.791 54.9212C145.791 54.9212 145.87 54.9924 145.909 55.024C144.632 55.7831 144.561 55.7594 145.791 54.9212ZM146.88 55.6566C146.88 55.6566 146.911 55.6724 146.919 55.6803C146.332 55.9017 146.316 55.9017 146.88 55.6566ZM146.935 55.6882C146.559 55.8358 146.559 55.8358 146.935 55.6882ZM147.005 55.7199C147.005 55.7199 147.06 55.7436 147.084 55.7594C146.598 55.9255 146.567 55.9175 147.005 55.7199ZM147.154 55.791C147.154 55.791 147.193 55.8148 147.217 55.8227C146.81 55.9492 146.786 55.9413 147.154 55.791Z" fill="currentColor"/>
<path d="M208.765 45.6047C210.246 47.1703 209.776 47.1308 207.817 46.0238C208.781 47.0359 208.264 46.9885 206.877 46.3875C207.817 46.9885 207.316 46.9885 205.906 46.7275C205.42 46.9885 204.026 46.9885 202.546 46.7038C200.713 46.9885 198.872 46.9885 197.336 45.8024C194.704 46.9964 192.37 46.9964 189.487 45.5098C187.294 46.9964 184.544 46.9964 181.395 46.7592C178.732 46.9964 175.661 46.9964 172.473 46.9964C169.285 46.9964 165.972 46.9964 166.841 43.4381C161.741 45.8103 158.498 46.601 154.801 44.8061C152.952 43.9125 150.986 42.3706 149.098 40.3305C148.644 41.7934 148.44 43.0902 148.057 44.0628C147.673 45.0354 147.101 45.668 146.388 46.0791C145.675 46.4903 144.821 46.6722 143.936 46.7117C143.028 46.7275 142.08 46.6089 141.477 47.1071C139.448 46.7987 137.897 46.8936 138.273 47.7001C136.236 46.3875 134.975 46.688 133.988 48.0955C133.228 46.3243 132.734 45.6521 131.998 47.4471C130.8 45.2093 129.131 45.8024 127.298 46.5852C125.935 46.5061 124.392 46.6089 122.786 46.5219C121.188 46.435 119.527 46.1503 117.687 45.7312C116.653 46.3638 115.219 46.6801 113.613 46.8382C112.007 46.9964 110.221 46.9964 109.007 46.3559C105.012 46.9964 101.73 46.9964 98.5026 44.6637C95.6669 46.9964 92.8939 46.9964 89.9563 46.435C87.9667 46.9964 85.8203 46.9964 84.05 46.9964H78.4961V45.6126H84.05C85.8203 45.6126 87.9667 45.6126 90.2305 45.3517C92.8939 45.6126 95.6669 45.6126 98.5731 43.96C101.73 45.6205 105.012 45.6205 108.717 45.2963C110.221 45.6205 112.007 45.6205 113.66 45.4703C115.313 45.32 116.841 45.0196 118.07 44.4107C119.778 44.814 121.353 45.0828 122.888 45.1698C124.423 45.2568 125.912 45.154 126.797 45.8814C128.982 44.4819 130.572 43.9125 131.246 47.0992C132.57 44.3395 133.142 44.98 133.792 47.8267C134.889 45.3438 136.071 45.067 138.147 47.4945C137.983 45.5572 139.636 45.494 141.954 46.5931C142.244 45.3833 143.176 45.4545 144.312 45.7628C144.962 45.3596 145.808 45.1935 146.56 44.8219C147.305 44.4423 147.955 43.8651 148.472 42.9953C148.989 42.1255 149.373 40.9552 149.819 39.5002C151.644 41.4692 153.391 42.8529 155.06 43.6516C158.404 45.2489 161.436 44.4898 165.909 42.2204C165.987 45.6205 169.293 45.6205 172.489 45.6205C175.685 45.6205 178.748 45.6205 181.56 45.5177C184.56 45.6205 187.302 45.6205 189.613 44.4977C192.378 45.6205 194.712 45.6205 197.148 44.7428C198.88 45.6205 200.713 45.6205 202.389 45.4782C204.034 45.6205 205.42 45.6205 206.157 45.4782C207.316 45.6205 207.817 45.6205 207.238 45.1777C208.334 45.6205 208.883 45.6759 208.358 44.8061C209.932 45.7707 210.434 45.8182 209.392 44.3949C210.794 45.8024 210.849 47.1862 208.914 45.5493C210.786 47.1941 210.724 47.1941 208.765 45.6284V45.6047Z" fill="currentColor"/>
<path d="M206.986 49.4239C208.349 49.9775 209.47 49.9854 210.104 49.3844C210.739 48.7835 210.895 47.5736 210.339 45.6759C214.898 47.3601 216.621 46.3006 215.337 42.505C216.621 46.3006 214.851 45.32 211.929 42.4971C211.318 43.3669 209.548 42.3864 209.336 42.1255C209.548 42.3864 209.595 44.4186 208.279 45.3438C208.984 46.9173 209.344 48.2062 209.188 48.9732C209.031 49.7402 208.357 49.9695 206.986 49.416V49.4239Z" fill="currentColor"/>
</svg>
