<svg width="143" height="143" viewBox="0 0 143 143" fill="none" xmlns="http://www.w3.org/2000/svg">
<g clip-path="url(#clip0_675_6878)">
<path d="M71.0008 22.9472C71.2553 30.1458 71.2828 41.4193 68.5999 27.7717C68.8475 30.4513 69.0952 32.8948 69.3016 35.0606C69.508 37.2265 69.6662 39.1146 69.7212 40.6626C69.8382 43.7726 69.8313 49.2427 68.4829 45.6121C68.3729 48.847 67.5405 47.2573 66.3022 44.7514C65.6074 45.3483 63.9632 42.1065 62.4085 40.2114C63.922 42.1898 66.1371 48.2847 66.4054 46.5007C67.912 51.4155 68.8475 55.4487 67.8982 48.7845C69.1846 56.6149 70.0308 63.5567 68.6068 54.1436C69.8038 64.348 69.1502 62.9944 65.456 53.2412C67.9532 61.8837 68.8819 65.5281 65.9307 57.7533C68.4829 66.021 67.4098 64.6326 62.3948 56.8648C66.5774 64.7159 65.855 64.5563 59.9045 58.0865C64.0595 64.3133 59.5467 60.7869 53.9401 57.2188C59.5123 60.8632 63.9839 64.4452 59.4642 58.503C65.4904 64.9034 66.144 65.3824 60.7575 58.3573C67.4579 66.264 67.1208 66.2015 59.2303 59.0723C65.7931 65.9446 67.7125 68.166 62.1127 62.4668C67.6368 68.6728 66.5636 68.2424 58.5974 63.6053C66.027 68.6311 65.6005 68.8324 57.2903 65.6114C64.3347 69.3253 60.104 68.5964 51.952 67.451C59.4986 69.832 54.4079 70.7137 48.2028 71.9215C52.007 73.0114 46.937 74.5455 44.715 75.7673C45.052 78.3357 41.7156 81.7997 40.2916 84.6528C38.8676 87.5128 37.5123 90.2409 36.2465 92.7816C31.1903 102.937 27.6543 110.046 27.6543 110.046C27.6543 110.046 38.2553 103.222 48.8632 96.3983C50.1909 95.5444 51.835 94.3088 52.8188 93.8506C54.401 92.6567 57.7237 89.0816 56.6505 91.3863C59.8288 87.721 63.1446 83.4588 60.3585 88.8387C64.6924 82.3897 66.6255 79.5228 63.4404 87.0199C67.5955 78.898 69.4185 74.7121 66.9076 82.3897C69.9689 73.9069 70.2028 73.4557 68.3729 81.9385C70.4091 73.2127 70.6224 72.2061 70.3335 77.7873C70.6637 72.5879 70.6774 72.5324 70.533 77.0307C70.6568 72.942 70.5811 74.2748 70.0652 82.7507C70.5811 74.2748 70.6637 72.9281 70.6981 76.9613C70.7325 72.5116 70.7669 72.5532 71.1659 77.6346C70.8288 72.1575 70.9732 73.1225 72.0946 81.9316C71.1521 73.3376 71.3378 73.5667 74.0414 81.8622C71.7437 74.2817 73.1953 78.3566 76.9789 87.006C74.124 78.9327 75.7544 81.4457 80.1433 88.4499C77.316 82.6327 80.7418 87.3948 84.0714 91.3794C82.9019 88.7276 86.3485 92.5248 88.0683 93.8437C89.0039 94.163 90.8131 95.5375 92.1959 96.3913C103.265 103.215 114.327 110.039 114.327 110.039C114.327 110.039 110.791 102.931 105.734 92.7747C104.469 90.234 103.113 87.5058 101.689 84.6458C100.265 81.7858 97.376 78.4468 97.2659 75.7603C95.4567 74.5872 89.0864 72.8725 92.9251 71.6994C86.2109 70.4776 82.3929 69.5197 90.249 67.333C82.2691 68.3743 77.2334 69.3045 84.2641 65.6878C75.8713 68.8602 75.4173 68.6866 82.9845 63.8066C74.9564 68.3118 74.0208 68.6311 79.9026 62.5501C74.0827 68.048 76.5248 65.4587 83.2046 58.8501C75.1146 65.8891 74.1102 66.7013 81.1271 59.1C75.3141 65.8891 75.9607 65.3824 82.2347 59.0653C77.4604 64.8062 82.5236 60.7661 88.0477 57.2188C82.503 60.7244 77.4879 64.6465 81.987 58.6696C75.7956 64.9867 75.1559 65.1463 79.9576 57.5937C74.4679 65.0353 73.4429 66.1529 76.7587 58.1074C73.154 65.5351 74.5298 61.5991 77.5223 53.2828C73.3948 62.8 72.5004 64.5771 74.8669 54.5809C72.2734 63.7649 73.6837 56.5316 75.2109 48.8331C73.9313 55.3654 74.9564 51.5543 76.4354 46.6951C76.3597 48.3056 78.3822 42.1968 79.5792 40.2045C78.3479 42.1412 76.917 45.4594 76.4698 44.9596C75.3485 47.4934 74.5505 49.083 74.6399 45.7787C73.3053 49.6661 73.3397 43.9808 73.2434 40.8501C73.1953 39.2812 73.209 37.3792 73.2434 35.1786C73.2847 32.985 73.3397 30.4929 73.381 27.7648C71.9707 41.808 71.2347 30.1389 70.9801 22.9402L71.0008 22.9472Z" fill="currentColor"/>
</g>
<defs>
<clipPath id="clip0_675_6878">
<rect width="142.1" height="142.1" fill="white"/>
</clipPath>
</defs>
</svg>
