<svg width="143" height="143" viewBox="0 0 143 143" fill="none" xmlns="http://www.w3.org/2000/svg">
<path d="M102.262 119.037C95.4677 119.037 89.6471 114.367 88.2093 107.851H41.2995V103.977L40.7989 103.118L39.9312 102.622H36.6385V56.1489C30.0614 54.7217 25.3477 48.9577 25.3477 42.2267C25.3477 34.3632 31.8051 27.9683 39.7393 27.9683C47.6735 27.9683 54.131 34.3659 54.131 42.2267C54.131 48.9577 49.4172 54.7245 42.8401 56.1489V93.0913L61.4005 61.2406C56.4253 56.7468 55.2517 49.4179 58.6473 43.5878C62.6158 36.7795 71.4343 34.4376 78.309 38.3693C85.1808 42.3011 87.5446 51.0379 83.5762 57.8489C80.1778 63.679 73.1864 66.3351 66.7706 64.3127L48.1268 96.3066L80.2751 77.9181C78.2339 71.5618 80.9147 64.6323 86.7993 61.2682C90.1282 59.3643 94.0077 58.8573 97.7203 59.8437C101.433 60.8301 104.537 63.1886 106.461 66.4866C110.429 73.2948 108.066 82.0345 101.194 85.9662C95.3092 89.3304 87.9145 88.1704 83.3759 83.2385L51.083 101.71H88.2065C89.6471 95.1935 95.4649 90.5234 102.259 90.5234C110.196 90.5234 116.651 96.9211 116.651 104.782C116.651 112.642 110.193 119.04 102.259 119.04L102.262 119.037ZM42.6899 106.473H89.3606L89.4635 107.041C90.5648 113.194 95.946 117.66 102.262 117.66C109.431 117.66 115.263 111.882 115.263 104.779C115.263 97.676 109.431 91.8982 102.262 91.8982C95.946 91.8982 90.5648 96.3645 89.4635 102.517L89.3606 103.085H45.8937L83.6791 81.4696L84.0545 81.9105C88.112 86.6936 95.0283 87.8949 100.496 84.7677C106.706 81.2162 108.839 73.3224 105.254 67.1699C103.519 64.1887 100.713 62.0589 97.3588 61.169C94.0049 60.279 90.5008 60.7364 87.4918 62.4557C82.0244 65.5829 79.616 72.1183 81.7685 77.9925L81.966 78.5353L44.3224 100.068L66.1393 62.632L66.6872 62.8276C72.6163 64.9602 79.21 62.5742 82.3692 57.1573C85.9539 51.0049 83.8181 43.1111 77.6109 39.5596C71.401 36.0081 63.4334 38.1241 59.8487 44.2738C56.6923 49.6906 57.9048 56.5429 62.7326 60.5628L63.1776 60.9348L41.4441 98.2298V55.0027L42.0169 54.9008C48.2269 53.8097 52.7349 48.4783 52.7349 42.2212C52.7349 35.1181 46.9032 29.3404 39.7338 29.3404C32.5643 29.3404 26.7326 35.1181 26.7326 42.2212C26.7326 48.4783 31.2406 53.8097 37.4506 54.9008L38.0234 55.0027V101.241H40.2983L41.8112 102.106L42.6844 103.605V106.471L42.6899 106.473Z" fill="currentColor"/>
</svg>
