<svg width="143" height="143" viewBox="0 0 143 143" fill="none" xmlns="http://www.w3.org/2000/svg">
<path d="M110.842 93.841C109.178 93.1883 107.528 92.5073 105.873 91.8328L100.932 89.7569C97.6425 88.3643 94.3768 86.9192 91.1 85.5004C87.8321 84.0619 84.5708 82.6082 81.2897 81.2002C80.471 80.8423 79.6546 80.4843 78.836 80.1263C78.0196 79.7661 77.0685 79.3776 76.3867 79.0414C75.4577 78.6638 74.2221 78.1705 73.944 77.9413C72.7128 77.4873 71.6095 77.0223 71.4925 76.8652C70.9034 76.7276 70.9188 76.6905 71.5102 76.8259C71.4286 76.815 72.1258 77.1293 73.1144 77.5527C73.1497 77.5222 73.9683 77.8321 74.8245 78.1596C75.0142 78.2665 75.7975 78.6005 76.4441 78.8646C76.903 79.0436 77.5694 79.3077 78.1189 79.5391C78.6683 79.7705 79.2155 79.9997 79.7649 80.2289C80.3144 80.4581 80.8638 80.6851 81.4155 80.9099C84.7143 82.2807 87.9844 83.7192 91.2589 85.1468L110.84 93.8431L110.842 93.841Z" fill="currentColor"/>
<path d="M71.9856 76.2997C71.3788 76.2015 70.0703 76.2953 70.6065 76.411C70.0703 76.2953 70.8161 77.3627 71.392 77.5374C70.8161 77.3627 71.3788 76.2037 71.9834 76.2997H71.9856Z" fill="currentColor"/>
<path d="M116.853 100.014C113.472 98.2459 110.204 96.2421 106.844 94.4303C103.589 92.6753 100.255 91.0579 96.9008 89.4513C95.4864 88.7724 94.072 88.0958 92.6576 87.4169C91.9228 87.0655 91.2101 86.6529 90.429 86.4041C90.0649 86.2884 89.692 86.1945 89.3257 86.0876C88.9594 85.9806 88.5975 85.8824 88.2776 85.7034C88.2136 85.6685 88.0834 85.5746 88.0834 85.5746C88.0834 85.5746 88.218 85.5855 88.2643 85.5986C88.3305 85.6183 88.3989 85.6401 88.4651 85.6576C88.5512 85.6794 88.6372 85.7012 88.7255 85.7143C88.7696 85.7209 88.8579 85.7383 88.8976 85.7078C88.9219 85.6903 88.9153 85.6445 88.9153 85.6445C88.9153 85.6445 85.8658 84.708 86.2299 84.5247C86.594 84.3413 85.9276 84.1056 85.9276 84.1056L88.4872 85.245C88.4872 85.245 88.0966 85.2254 87.9113 85.1599C87.1985 84.9089 86.5873 84.4636 85.9276 84.1056C85.9077 84.0947 85.8878 84.0837 85.868 84.0728C85.2171 83.7279 84.5772 83.359 83.9328 83.0032C82.5824 82.2611 81.221 81.532 79.8529 80.8182C77.13 79.3994 74.3762 78.0395 71.5938 76.7429C74.3144 78.26 77.0285 79.7858 79.7382 81.3203C82.1499 82.6867 84.5573 84.0663 86.9735 85.4262C87.2802 85.5986 87.9598 85.7667 87.9598 85.7667L87.8539 85.8999C87.8539 85.8999 88.0768 85.9326 88.1915 85.9479C88.3062 85.9632 88.2842 86.1771 88.2842 86.1771C88.2842 86.1771 88.2798 86.0199 88.3526 86.0177C88.4254 86.0155 88.4761 86.1181 88.4298 86.1727C89.0366 86.4521 89.6412 86.7337 90.248 87.0131C91.8279 87.8316 93.4255 88.6153 95.0385 89.3662C96.2984 89.9512 97.9246 91.0688 99.3413 90.8963C99.0985 90.9247 99.2927 91.298 99.5134 91.4027C105.352 94.1509 111.133 97.0213 116.85 100.01L116.853 100.014Z" fill="currentColor"/>
<path d="M71.6297 77.9958C71.3561 77.9652 69.6306 76.0225 69.8071 75.8064C69.5622 75.9548 70.2528 76.0203 71.376 76.0116C71.4775 76.0814 72.1946 76.0596 72.7131 75.9068C72.2586 76.1709 71.3583 77.9652 71.6297 77.9958Z" fill="currentColor"/>
<path d="M113.862 63.3547C112.163 63.9135 110.457 64.4418 108.751 64.9766L103.619 66.5264C100.194 67.5501 96.7542 68.5215 93.3208 69.5168C89.8808 70.4926 86.4408 71.453 83.0118 72.4615C82.1534 72.7081 81.2929 72.9548 80.4345 73.1993C79.5739 73.4437 78.592 73.7493 77.8528 73.9261C76.8952 74.2274 75.6286 74.6356 75.2667 74.6377C74.0267 75.0721 72.8815 75.4192 72.6895 75.3733C72.1489 75.644 72.1356 75.6047 72.6762 75.3319C72.6078 75.3755 73.347 75.1725 74.3775 74.8691C74.3841 74.8233 75.2116 74.5417 76.081 74.247C76.295 74.2077 77.1136 73.9654 77.78 73.7581C78.2478 73.6053 78.9296 73.3826 79.5011 73.2102C80.0704 73.0377 80.6419 72.8653 81.2112 72.6907C81.7805 72.516 82.3498 72.3414 82.9191 72.1624C86.3371 71.1168 89.7771 70.1368 93.2127 69.1479L113.864 63.3591L113.862 63.3547Z" fill="currentColor"/>
<path d="M72.697 74.6267C72.1697 74.9367 71.2275 75.8404 71.7129 75.5893C71.2275 75.8404 72.4918 76.1831 73.0457 75.9517C72.4918 76.1852 72.1675 74.9389 72.6948 74.6289L72.697 74.6267Z" fill="currentColor"/>
<path d="M122.473 64.2649C118.735 65.0616 114.929 65.6051 111.178 66.3517C107.546 67.0764 103.94 67.9582 100.326 68.8597C98.801 69.2395 97.2784 69.6193 95.7537 69.9992C94.9615 70.1978 94.1473 70.3353 93.3883 70.6409C93.033 70.785 92.6888 70.9487 92.3379 71.0993C91.9871 71.2499 91.6473 71.4049 91.2854 71.4704C91.2148 71.4835 91.0515 71.4944 91.0515 71.4944C91.0515 71.4944 91.1618 71.418 91.206 71.3983C91.27 71.37 91.334 71.3438 91.3979 71.3154C91.4774 71.2783 91.559 71.239 91.6341 71.1932C91.6738 71.1692 91.751 71.1277 91.762 71.0797C91.7686 71.0513 91.7333 71.0207 91.7333 71.0207C91.7333 71.0207 88.7898 72.2409 88.9487 71.8698C89.1075 71.4988 88.4434 71.7411 88.4434 71.7411L91.1442 70.9858C91.1442 70.9858 90.8309 71.2194 90.6477 71.287C89.9394 71.5468 89.1804 71.5948 88.4434 71.7411C88.4213 71.7454 88.3992 71.7498 88.375 71.7541C87.6512 71.9026 86.923 72.027 86.1971 72.1667C84.679 72.457 83.1653 72.7626 81.6538 73.0878C78.6462 73.7318 75.6541 74.4412 72.6797 75.2183C75.749 74.6508 78.8183 74.0941 81.8921 73.5462C84.6282 73.0595 87.3666 72.5836 90.1027 72.0903C90.4491 72.027 91.0802 71.7236 91.0802 71.7236L91.0868 71.8939C91.0868 71.8939 91.2788 71.776 91.3781 71.7149C91.4774 71.6537 91.5987 71.8305 91.5987 71.8305C91.5987 71.8305 91.4928 71.7127 91.548 71.6647C91.6032 71.6166 91.7069 71.6625 91.7091 71.7345C92.3556 71.5642 93.0021 71.394 93.6486 71.2215C95.3896 70.8439 97.124 70.4292 98.8473 69.9773C100.193 69.6259 102.164 69.4469 103.139 68.4144C102.971 68.5912 103.362 68.755 103.6 68.6938C109.86 67.0873 116.153 65.6095 122.473 64.2649Z" fill="currentColor"/>
<path d="M73.5264 76.1526C73.2991 76.3032 70.713 75.9125 70.7086 75.6353C70.6181 75.9037 71.1896 75.5152 72.0436 74.7949C72.1672 74.7818 72.7011 74.3125 72.999 73.865C72.8225 74.3561 73.2991 76.3054 73.5264 76.1548V76.1526Z" fill="currentColor"/>
<path d="M90.8915 41.5686C89.9537 43.0747 88.9894 44.5656 88.0296 46.0608L85.1037 50.5116C83.1465 53.4737 81.1407 56.4052 79.157 59.3498C77.1556 62.2836 75.1433 65.2085 73.1728 68.1597C72.6741 68.8953 72.1776 69.6287 71.6767 70.3622C71.1781 71.0956 70.6242 71.9556 70.1719 72.5603C69.6335 73.4007 68.9296 74.5183 68.6538 74.7496C67.9874 75.8716 67.3342 76.8648 67.1555 76.9521C66.915 77.5022 66.8819 77.4804 67.118 76.9281C67.0937 77.0045 67.5284 76.3802 68.1198 75.4918C68.0955 75.4525 68.5456 74.7104 69.02 73.9311C69.1591 73.7652 69.6291 73.058 70.0042 72.4751C70.2623 72.0604 70.6397 71.4558 70.9662 70.9603C71.2906 70.4648 71.615 69.9715 71.9393 69.476C72.2637 68.9805 72.5836 68.4828 72.9036 67.9851C74.8432 65.0099 76.8401 62.0718 78.8304 59.1316L90.8893 41.5664L90.8915 41.5686Z" fill="currentColor"/>
<path d="M66.6826 76.3779C66.4796 76.952 66.345 78.2421 66.5547 77.74C66.3472 78.2421 67.5388 77.7007 67.8124 77.1703C67.5388 77.7007 66.4819 76.952 66.6849 76.3779H66.6826Z" fill="currentColor"/>
<path d="M98.0778 36.7883C95.73 39.7744 93.1682 42.6121 90.7807 45.5698C88.4682 48.4359 86.2793 51.4045 84.097 54.3906C83.1768 55.6501 82.2567 56.9118 81.3366 58.1712C80.8577 58.8261 80.3238 59.4482 79.942 60.1685C79.7633 60.5047 79.6066 60.8496 79.4345 61.1879C79.2624 61.5262 79.1035 61.8602 78.8696 62.1418C78.8233 62.1964 78.7063 62.3099 78.7063 62.3099C78.7063 62.3099 78.7417 62.1811 78.7615 62.1374C78.7924 62.0741 78.8255 62.0152 78.8542 61.9519C78.8917 61.8711 78.927 61.7904 78.9557 61.7074C78.9689 61.6638 79.0042 61.583 78.98 61.5372C78.9667 61.511 78.9182 61.511 78.9182 61.511C78.9182 61.511 77.4552 64.3181 77.3361 63.9317C77.2169 63.5453 76.8661 64.1544 76.8661 64.1544L78.4438 61.858C78.4438 61.858 78.3555 62.2357 78.2584 62.4037C77.8833 63.0542 77.3361 63.5737 76.8661 64.1522C76.8506 64.1696 76.8374 64.1871 76.8241 64.2046C76.3674 64.7786 75.8886 65.3374 75.423 65.905C74.4477 67.0924 73.4878 68.2908 72.539 69.5001C70.6546 71.9056 68.8232 74.3525 67.0469 76.8387C69.0284 74.4529 71.0187 72.0736 73.0178 69.7009C74.7985 67.5879 76.588 65.4837 78.3621 63.3642C78.5872 63.0957 78.874 62.4627 78.874 62.4627L78.9888 62.5893C78.9888 62.5893 79.0594 62.3775 79.0947 62.2684C79.13 62.1593 79.3396 62.2182 79.3396 62.2182C79.3396 62.2182 79.1808 62.1942 79.1918 62.1243C79.2028 62.0545 79.3131 62.0217 79.3595 62.0763C79.7434 61.535 80.1274 60.9914 80.5135 60.4501C81.6014 59.0531 82.6605 57.6343 83.6888 56.1914C84.4897 55.0651 85.8843 53.6768 85.9593 52.2645C85.9461 52.5068 86.3521 52.3824 86.4933 52.1838C90.2445 46.9734 94.1037 41.8394 98.0733 36.7883H98.0778Z" fill="currentColor"/>
<path d="M68.3081 77.0221C68.2309 77.2819 65.9979 78.6287 65.8125 78.4169C65.9184 78.681 66.1038 78.0197 66.2891 76.9239C66.3752 76.8366 66.4811 76.1359 66.4149 75.6033C66.6002 76.0922 68.2287 77.2819 68.3059 77.0199L68.3081 77.0221Z" fill="currentColor"/>
<path d="M31.5312 48.9315C32.1425 48.8922 32.9037 49.7457 33.718 50.5817C34.3093 50.7891 35.1721 51.6229 35.9333 52.1926C35.9113 52.1533 37.0432 52.9937 38.1553 53.797C39.2652 54.5981 40.3774 55.4014 40.3774 55.4014C40.7481 55.6699 41.1166 55.9405 41.4828 56.2112C41.8491 56.4819 42.2154 56.7569 42.5817 57.0319C42.9767 57.3353 45.031 59.134 44.0425 58.2172C45.6952 59.6775 46.5778 60.4546 44.7596 58.7018C46.7168 60.5637 47.6656 61.4521 45.9622 59.8259C47.798 61.5635 47.7473 61.498 45.8408 59.5509C47.7451 61.498 48.0429 61.797 46.7984 60.5506C48.0783 61.8254 47.9878 61.7228 46.3814 59.9766C48.0871 61.8385 48.1599 61.9127 46.8955 60.4633C48.1886 61.9433 48.2305 61.9891 47.8113 61.5416C48.2482 62.0131 48.2548 62.0262 48.4534 62.847C48.2592 62.0415 48.2526 62.035 48.2746 62.6505C48.268 62.0393 48.3011 62.0699 49.6537 63.218C48.3894 62.1245 48.3761 62.107 49.5412 63.0172C48.9852 62.5763 48.7866 62.4104 49.0094 62.5436C49.2323 62.6767 49.9141 63.3337 51.0042 63.8554C49.945 63.3468 49.3426 62.7422 49.3073 62.7138C49.272 62.6854 49.7663 63.0129 50.7923 63.6917C49.8281 63.0478 49.6118 62.8972 49.934 63.0936C50.2583 63.2901 51.1542 64.5081 52.3104 64.5889C51.2292 64.5539 50.6842 63.6524 50.6974 63.576C50.7283 63.6917 51.3175 64.6784 52.3678 64.6609C51.4609 64.7722 51.4344 64.5168 51.7919 64.2942C52.1383 64.9752 52.7694 66.1583 53.5439 65.4402C52.4627 66.0055 53.8727 67.6142 54.6847 66.4137C54.5876 67.3087 54.6362 67.9962 54.6494 68.1359C54.9031 68.4481 55.2628 68.3215 55.7107 67.5029C55.5011 68.6031 55.4305 69.3038 55.2783 69.3561C55.6512 69.7316 56.141 69.605 56.6243 68.6795C56.3352 69.8756 56.0991 70.4781 55.8078 70.4825C56.2977 70.8754 56.9354 70.7859 57.4451 69.9149C57.017 70.9147 56.4235 71.2028 55.9358 71.0085C56.3176 71.1832 56.7721 70.8579 57.2156 69.8276C56.9288 70.8186 56.8824 71.0063 56.7478 70.6702C57.5334 70.8361 58.3564 70.5742 58.7735 69.7687C58.2858 71.0827 59.4376 70.9256 60.2232 70.2576C60.1437 71.277 61.0242 71.3621 61.5008 71.0522C61.6773 71.8358 62.3128 72.0366 62.6658 71.9799C62.6195 72.2964 62.6129 72.2942 62.6592 71.9755C62.6129 72.2942 63.2947 72.7068 63.4271 72.4972C63.2925 72.7068 63.2417 72.7788 63.3719 72.5802C63.2439 72.7788 62.5224 72.4055 62.5798 72.0999C62.5224 72.4055 62.5202 72.4034 62.5776 72.0999C62.5202 72.4055 62.5158 72.4012 62.5732 72.0956C62.198 72.1589 61.4875 71.9973 61.3728 71.2355C60.8322 71.5695 59.8856 71.539 60.093 70.5283C59.2148 71.2399 58.0762 71.4276 58.7183 70.1179C58.2792 70.9321 57.4341 71.1919 56.6596 71.0456C56.8449 71.3534 56.9883 71.1788 57.3237 70.2205C56.856 71.2181 56.2205 71.5324 55.7416 71.3905C56.1454 71.563 56.6949 71.2727 57.1803 70.2642C56.6949 71.2727 56.0748 71.5586 55.6291 71.3818C56.0461 71.5084 56.6132 71.1635 57.0943 70.1354C56.536 71.0478 55.8343 71.1875 55.3555 70.8426C55.6269 70.8099 55.9093 70.1943 56.258 68.9458C55.7262 69.952 55.1944 70.1529 54.8281 69.8189C54.9693 69.749 55.0731 69.0243 55.3378 67.826C54.8502 68.7755 54.4707 68.9938 54.2169 68.7057C54.2081 68.5703 54.1794 67.8303 54.3228 66.7957C53.9058 67.5793 53.3431 67.5378 53.0474 67.2192C52.7518 66.9026 52.6944 66.2893 53.2107 65.8767C52.3943 66.8786 51.6132 65.0429 51.0814 64.2527C50.5981 64.2876 50.4989 64.4448 51.3373 64.5605C50.3201 64.3291 49.603 63.1613 49.4905 63.1089C49.3779 63.0565 49.8678 63.9689 50.735 64.3749C49.806 63.9384 49.122 62.8688 48.8616 62.6767C48.6012 62.4846 48.6696 62.6527 48.9697 63.1569C48.2813 62.1114 48.2548 62.107 48.054 63.2093C48.2415 62.0677 48.2371 62.0655 47.9172 63.1569C48.2371 62.0677 48.2371 62.059 47.8753 63.0129C48.2327 62.0459 48.2261 62.0328 47.317 61.8865C48.2106 62.0088 48.1577 61.976 46.4697 60.8802C48.1268 61.9476 48.0452 61.8887 45.9931 60.4262C47.9304 61.797 48.0407 61.8756 46.5469 60.8606C48.0076 61.8472 47.6656 61.6028 45.4613 60.0028C47.6678 61.6049 47.7362 61.653 45.6885 60.1796C47.6038 61.546 46.569 60.7777 44.3955 59.1558C46.4344 60.6707 45.5098 59.9722 43.7357 58.6276C44.8412 59.4439 42.6501 57.7697 42.2529 57.4619C41.8933 57.1825 41.5314 56.9031 41.1717 56.6259C40.812 56.3487 40.448 56.0693 40.0883 55.7921C39.3645 55.2377 38.6386 54.6832 37.9148 54.1266C37.1911 53.57 36.4497 52.9762 35.7502 52.4458C35.022 51.8455 34.1924 50.9768 33.6164 50.7258C32.8353 49.8635 32.1027 48.9577 31.5335 48.9468L31.5312 48.9315Z" fill="currentColor"/>
<path d="M62.555 73.2328C62.4115 73.3987 64.329 73.4074 64.6468 73.3834C64.329 73.4074 63.5987 71.8598 63.7333 71.5149C63.5987 71.8576 62.4115 73.3987 62.555 73.2328Z" fill="currentColor"/>
<path d="M22.4068 79.68C22.8503 79.2609 23.9867 79.4312 25.1539 79.5534C25.7409 79.3351 26.9434 79.4268 27.8967 79.3788C27.8548 79.3613 29.2692 79.2871 30.6394 79.1954C32.0119 79.1037 33.3822 79.0121 33.3822 79.0121C33.839 78.9837 34.2979 78.9553 34.7569 78.9291C35.2158 78.9029 35.6726 78.8811 36.1316 78.8593C36.6325 78.8396 39.373 78.9117 38.0204 78.8374C40.2358 78.9029 41.4185 78.9378 38.8831 78.7523C41.5906 78.9335 42.8947 79.0121 40.5359 78.8484C43.069 79.0121 42.9896 78.9946 40.2645 78.7152C42.9896 78.9946 43.411 79.0339 41.648 78.8724C43.4551 79.0339 43.3205 79.0142 40.9551 78.6977C43.4706 79.0383 43.5765 79.0514 41.6656 78.7436C43.6184 79.0557 43.6802 79.0623 43.069 78.9859C43.7089 79.0688 43.7243 79.0754 44.4084 79.5796C43.7354 79.0863 43.7266 79.0841 44.1436 79.5425C43.742 79.0797 43.7883 79.0797 45.5668 79.0994C43.8876 79.0644 43.8656 79.0623 45.3506 79.0164C44.6379 79.0317 44.3775 79.0317 44.6357 78.9902C44.8938 78.9488 45.8404 79.0208 47.0165 78.7283C45.8735 79.0142 45.0196 78.9313 44.9755 78.9335C44.9313 78.9357 45.5227 78.8702 46.7473 78.7392C45.5889 78.8593 45.3263 78.8811 45.7014 78.8265C46.0765 78.772 47.5549 79.1321 48.4927 78.462C47.641 79.1212 46.637 78.7785 46.5995 78.7108C46.6988 78.7785 47.791 79.1605 48.5854 78.4795C47.9632 79.143 47.7778 78.9619 47.9058 78.5646C48.6141 78.8658 49.8652 79.3722 49.9932 78.3288C49.532 79.4486 51.6591 79.787 51.5003 78.3485C52.0056 79.095 52.491 79.5927 52.5903 79.6909C52.9875 79.7673 53.1817 79.4421 52.9919 78.5297C53.5458 79.5054 53.9473 80.086 53.8657 80.2235C54.3953 80.2759 54.6888 79.8655 54.4571 78.8484C55.0131 79.9485 55.2227 80.5597 55.0043 80.7474C55.6332 80.7365 56.0656 80.2628 55.8891 79.2718C56.2113 80.3108 55.9443 80.9089 55.4434 81.0683C55.8494 80.9591 55.9862 80.4222 55.6574 79.3504C56.0811 80.2912 56.1694 80.4658 55.8472 80.2934C56.5577 79.9201 57.0189 79.1976 56.8115 78.3136C57.2925 79.6298 58.0714 78.7763 58.2413 77.7657C58.8415 78.5973 59.5719 78.104 59.7374 77.5605C60.3817 78.0473 60.9995 77.7984 61.2334 77.5299C61.4033 77.8028 61.3967 77.8028 61.2246 77.5299C61.3967 77.8028 62.1866 77.6871 62.1513 77.4404C62.1844 77.6871 62.1933 77.7744 62.1624 77.5408C62.1911 77.7744 61.3967 77.9468 61.2422 77.6762C61.3967 77.9468 61.3945 77.9468 61.24 77.6762C61.3945 77.9468 61.3879 77.9468 61.2334 77.6762C60.9863 77.9643 60.3375 78.2917 59.755 77.7809C59.5564 78.3812 58.8128 78.9597 58.3163 78.0516C58.1067 79.1561 57.3543 80.0227 56.9968 78.6126C57.1888 79.5163 56.71 80.2497 56.0215 80.6317C56.3635 80.7496 56.3613 80.5248 55.995 79.5774C56.2841 80.6383 56.0017 81.2844 55.5427 81.4808C55.9641 81.3564 56.198 80.7845 55.9134 79.7018C56.198 80.7823 55.909 81.3957 55.45 81.5441C55.8516 81.3761 56.0612 80.7518 55.7611 79.656C55.9244 80.7103 55.4787 81.2626 54.8895 81.304C55.0771 81.1076 54.8918 80.4549 54.3467 79.2762C54.5939 80.3851 54.3158 80.8762 53.8172 80.8544C53.8811 80.7103 53.4906 80.0904 52.9125 79.0033C53.1574 80.0402 53.0074 80.4484 52.6256 80.3894C52.5285 80.2912 52.0298 79.7411 51.465 78.8571C51.6547 79.7237 51.1958 80.0489 50.7633 79.9921C50.3308 79.9376 49.8895 79.5032 50.0153 78.8593C50.0395 80.1449 48.2478 79.2369 47.3277 78.9684C46.9812 79.3024 47.0055 79.4857 47.7248 79.0404C46.7959 79.5097 45.4874 79.071 45.366 79.1037C45.2447 79.1365 46.2133 79.5228 47.1401 79.2827C46.1449 79.5381 44.9269 79.1539 44.6004 79.1736C44.2738 79.1932 44.4371 79.2784 44.9953 79.4726C43.7883 79.1081 43.7641 79.1234 44.3289 80.0947C43.731 79.1016 43.7266 79.1037 44.1899 80.1428C43.7266 79.1037 43.7221 79.0994 44.0642 80.0598C43.7089 79.0906 43.6957 79.0841 42.9035 79.5512C43.667 79.0775 43.6052 79.0863 41.6016 79.3198C43.5655 79.0819 43.464 79.0906 40.9419 79.274C43.3161 79.0928 43.4529 79.0819 41.648 79.2565C43.4088 79.0841 42.9874 79.1147 40.2578 79.2893C42.9874 79.1125 43.0734 79.1059 40.5469 79.2806C42.9013 79.1103 41.6083 79.1801 38.8898 79.3177C41.4361 79.1801 40.2733 79.2347 38.0402 79.3329C39.4171 79.2544 36.6523 79.3657 36.147 79.3831C35.6903 79.3984 35.2313 79.4137 34.7745 79.429C34.3178 79.4443 33.8588 79.4617 33.4021 79.4792C32.4863 79.5141 31.5706 79.5512 30.6549 79.584C29.7392 79.6167 28.7859 79.6342 27.9055 79.6735C26.9589 79.6778 25.7585 79.5403 25.1539 79.7106C23.9955 79.5469 22.8459 79.3198 22.4023 79.6735L22.4068 79.68Z" fill="currentColor"/>
<path d="M61.9657 78.5667C61.9635 78.7849 63.4397 77.5713 63.667 77.3508C63.4397 77.5713 61.8731 76.851 61.7539 76.5017C61.8753 76.851 61.9657 78.7849 61.9679 78.5667H61.9657Z" fill="currentColor"/>
<path d="M35.3984 109.039C35.4646 108.436 36.4466 107.842 37.4219 107.196C37.7308 106.655 38.7105 105.961 39.41 105.319C39.3658 105.332 40.4007 104.376 41.3915 103.433L43.373 101.547C43.7039 101.233 44.0371 100.921 44.3725 100.611C44.7079 100.301 45.0433 99.9909 45.3809 99.6831C45.7516 99.3491 47.8986 97.6618 46.8152 98.4651C48.5562 97.1074 49.4829 96.3827 47.422 97.8517C49.6153 96.2692 50.6634 95.4986 48.7503 96.876C50.798 95.3895 50.7252 95.4288 48.4569 96.9458C50.7252 95.4288 51.0739 95.1887 49.6175 96.1862C51.1092 95.1603 50.9922 95.2323 48.9732 96.4918C51.1224 95.1537 51.2107 95.097 49.5469 96.0749C51.246 95.073 51.2967 95.0402 50.7804 95.3698C51.3254 95.0271 51.3408 95.0228 52.1926 94.9726C51.3585 95.0228 51.3475 95.0271 51.9653 95.1145C51.3563 95.014 51.3916 94.9879 52.7685 93.8703C51.46 94.9115 51.4401 94.9224 52.5478 93.9445C52.0116 94.4116 51.8131 94.5731 51.983 94.3788C52.1529 94.1846 52.9252 93.6345 53.6357 92.6632C52.945 93.6083 52.2389 94.0885 52.2058 94.1169C52.1727 94.1453 52.5831 93.7218 53.4371 92.84C52.6295 93.6694 52.4397 93.8528 52.6935 93.5712C52.9472 93.2896 54.3131 92.626 54.5955 91.5172C54.3727 92.5649 53.3797 92.9404 53.3069 92.912C53.4283 92.9011 54.5117 92.4994 54.6772 91.4713C54.6308 92.375 54.3727 92.3554 54.2138 91.969C54.953 91.7485 56.2394 91.3404 55.6591 90.4607C56.0342 91.6132 57.8811 90.5174 56.8264 89.5177C57.7002 89.7687 58.393 89.8408 58.5342 89.8517C58.8873 89.6596 58.8255 89.2863 58.0885 88.7057C59.1477 89.1008 59.8317 89.2907 59.8582 89.4479C60.2973 89.151 60.2554 88.6511 59.4191 88.0181C60.5599 88.5071 61.1181 88.841 61.0718 89.127C61.5462 88.7188 61.5705 88.0792 60.7916 87.4331C61.7139 88.0225 61.897 88.6511 61.619 89.0942C61.8595 88.7537 61.6146 88.2539 60.6658 87.6427C61.6014 88.0945 61.7823 88.1709 61.4248 88.2451C61.7271 87.5073 61.6102 86.6604 60.8776 86.1147C62.1 86.8176 62.1442 85.6672 61.6168 84.7854C62.6186 85.0407 62.8547 84.1982 62.6296 83.6765C63.4394 83.6394 63.7506 83.0566 63.755 82.7008C64.0617 82.8012 64.0573 82.8077 63.7483 82.7073C64.0573 82.8077 64.5868 82.2162 64.4015 82.0481C64.5868 82.2162 64.6486 82.2773 64.4743 82.1179C64.6486 82.2773 64.1521 82.9147 63.8587 82.8055C64.1521 82.9147 64.1499 82.9169 63.8587 82.8055C64.1521 82.9147 64.1477 82.919 63.8543 82.8099C63.8543 83.1875 63.5674 83.8511 62.7907 83.8315C63.029 84.4165 62.8348 85.3332 61.8639 84.9556C62.42 85.9357 62.409 87.0773 61.2174 86.2238C61.9522 86.7935 62.0625 87.6601 61.7823 88.3914C62.1221 88.2648 61.9721 88.0923 61.0762 87.6012C61.9875 88.2298 62.1905 88.9043 61.9654 89.3453C62.2082 88.9807 62.014 88.3957 61.0939 87.7474C62.014 88.3957 62.1905 89.0484 61.9368 89.4522C62.1353 89.068 61.8904 88.4547 60.9504 87.8086C61.7602 88.5114 61.7779 89.2187 61.352 89.6247C61.3675 89.354 60.8026 88.972 59.6199 88.4176C60.529 89.1095 60.6371 89.6618 60.2399 89.963C60.1958 89.8124 59.4919 89.5854 58.3445 89.1204C59.205 89.76 59.3551 90.1682 59.0263 90.3646C58.8895 90.3515 58.1481 90.249 57.1419 89.9281C57.8502 90.4694 57.709 91.0108 57.3427 91.2443C56.9742 91.4779 56.3564 91.4255 56.0342 90.8536C56.8881 91.8228 54.9265 92.2659 54.0461 92.6457C53.9975 93.1215 54.1366 93.246 54.3969 92.4492C53.9909 93.4009 52.7023 93.8964 52.6317 93.9969C52.5611 94.0973 53.554 93.7786 54.1079 93.0059C53.5121 93.8353 52.3294 94.3155 52.0911 94.536C51.8528 94.7565 52.0337 94.7194 52.5876 94.5142C51.4269 95.0031 51.4181 95.0293 52.4816 95.4157C51.3784 95.0359 51.3762 95.0402 52.4044 95.5401C51.3739 95.0381 51.3673 95.0381 52.2522 95.5554C51.3519 95.0402 51.3364 95.0424 51.0341 95.9046C51.31 95.0555 51.2702 95.1014 49.8845 96.5551C51.2349 95.1254 51.1621 95.1952 49.3483 96.9393C51.0496 95.2913 51.1467 95.1952 49.8779 96.4765C51.1136 95.2258 50.8113 95.5139 48.8342 97.3868C50.8113 95.5161 50.8708 95.4572 49.0504 97.1969C50.7429 95.5685 49.7985 96.4438 47.8059 98.2795C49.6683 96.5551 48.8121 97.3366 47.1638 98.8318C48.1678 97.8976 46.1223 99.7399 45.745 100.074C45.403 100.375 45.0632 100.678 44.7234 100.982C44.3836 101.285 44.0437 101.589 43.7039 101.892C43.0265 102.501 42.3469 103.112 41.6673 103.719C40.9877 104.328 40.2683 104.946 39.6174 105.535C38.8936 106.14 37.8852 106.799 37.5344 107.314C36.5392 107.925 35.511 108.482 35.4029 109.036L35.3984 109.039Z" fill="currentColor"/>
<path d="M64.9758 83.0326C65.117 83.2007 65.4569 81.3343 65.4878 81.02C65.4569 81.3322 63.7887 81.7775 63.4688 81.5854C63.7865 81.7753 65.1148 83.2007 64.9736 83.0304L64.9758 83.0326Z" fill="currentColor"/>
<path d="M57.674 57.4145C57.0495 56.5567 56.7869 56.2161 56.7847 56.131C56.798 55.9324 57.0672 55.976 57.8417 56.2074C57.0627 55.8363 56.6523 55.4631 56.4957 54.8672C56.4604 54.627 56.6722 54.101 57.4533 53.2104C56.6545 53.9547 56.275 54.101 55.9352 53.6077C55.8778 53.8238 55.8138 53.2977 55.7101 52.0862C55.6483 53.5073 55.6197 53.0882 55.4828 51.7632C55.5446 52.4617 55.4828 52.2958 55.2931 51.6671C55.399 51.868 55.3019 51.2786 55.1695 50.8726C55.2159 50.5604 55.0614 49.5585 54.9996 49.4647C54.9621 48.7378 54.8694 48.0698 55.0923 48.7334C54.9113 47.7773 54.779 47.0898 54.8562 47.4543C54.7988 46.52 54.8672 46.1337 55.2335 46.3672C54.8319 45.8325 54.8584 44.9833 55.1474 44.287C55.0746 43.3353 55.2843 42.3378 55.538 41.4472C54.9444 43.4641 54.8231 43.499 54.929 42.8813C54.7944 42.7503 54.8871 41.8772 54.9974 41.1372C54.8606 41.7811 54.7878 42.9293 54.8429 41.2071C54.7591 41.8226 54.7194 42.7765 54.7591 42.997C54.6444 43.6453 54.6002 43.6627 54.5671 41.4428C54.5252 42.3945 54.4612 42.5517 54.2185 41.7331C54.4171 42.8551 54.4391 43.0319 54.2383 42.2199C54.3398 43.248 54.6289 44.0251 53.3425 42.8682C53.9162 43.2589 54.0111 44.0098 53.8412 45.0314C53.989 45.4265 53.8301 46.2668 53.4947 46.8693C53.9338 46.3651 53.8147 45.8805 52.7688 46.5135C53.786 45.9743 53.8853 46.09 53.3976 47.2666C53.8279 46.2144 53.658 46.2668 52.7445 47.1465C53.6404 46.317 53.7838 46.3389 53.4087 47.4783C53.8257 46.3061 53.6691 46.3432 52.7864 47.3299C53.5808 46.4939 53.6073 47.3757 53.2498 48.5915C53.572 47.4456 53.5058 46.6576 52.8085 47.57C53.519 46.6423 53.6006 47.4063 53.2807 48.5588C53.6095 47.4434 53.5278 46.7318 52.8747 47.701C53.4991 46.7994 53.5455 47.618 53.2322 48.6789C53.6161 47.6071 53.636 46.782 53.038 47.7555C53.7463 46.6619 53.8522 47.3146 53.4881 48.4802C53.8456 47.3299 53.7308 46.6947 53.038 47.7904C53.6051 46.8387 53.5742 47.6769 53.2013 48.705C53.5014 47.6944 53.4616 46.8758 52.8813 47.7555C53.5014 46.7929 53.5896 47.487 53.2763 48.5697C53.5808 47.4587 53.4859 46.7252 52.8217 47.6595C53.4506 46.7711 53.5036 47.5765 53.2013 48.6527C53.5411 47.5067 53.5344 46.6095 52.8085 47.4521C53.647 46.4305 53.8147 46.3651 53.4153 47.5307C53.797 46.3978 53.6095 46.5026 52.8173 47.5132C53.5234 46.6554 53.5786 47.463 53.2785 48.5697C53.583 47.5023 53.4749 46.8453 52.8703 47.8079C53.38 46.9893 53.3822 47.8494 53.1042 48.7618C53.4263 47.8887 53.4263 47.7752 53.0005 48.5828C53.1284 48.107 53.4374 47.2644 53.4506 47.6049C53.8147 46.6554 53.9338 46.8453 53.4175 48.633C53.6492 47.7381 53.6536 47.9694 53.4131 48.884C53.8147 48.0611 53.9029 48.1004 53.7308 48.9779C54.1037 48.0786 54.2383 48.0764 54.2692 49.0019C54.117 48.1746 53.9007 48.2641 53.5675 49.0194C53.7683 48.2554 53.8434 48.1004 53.8301 48.8709C53.8037 48.0873 53.5543 48.3318 53.1924 49.0237C53.3138 48.5544 53.305 48.5872 53.1924 49.0608C53.5367 48.4322 53.7992 48.227 53.9427 48.9473C53.8721 48.2205 53.6293 48.5064 53.2873 49.1787C53.3381 48.8666 53.2697 49.1613 53.1086 49.6284C53.3535 49.5302 53.8544 50.0344 54.5495 50.3771C53.9647 50.2156 53.6117 50.2068 53.3888 50.4557C53.5653 50.4688 53.914 51.0538 54.1435 51.2895C53.8588 51.0363 53.4616 50.46 53.2388 50.5059C53.4285 50.3356 53.7816 50.687 54.2714 50.9752C53.6514 50.5932 53.1329 50.0606 52.8725 50.2941C53.0314 50.1806 53.4616 50.9774 53.8566 51.4794C53.5344 51.1192 53.2013 50.6325 52.974 50.7504C53.1902 50.7678 53.5168 51.4576 53.6205 51.7719C53.5168 51.4576 53.188 50.7744 52.9497 50.7722C53.1549 50.6761 53.4462 51.2284 53.6713 51.6366C53.3425 51.1018 53.1483 50.7853 53.0203 51.0647C53.3601 51.403 53.8787 52.5992 53.8301 53.1471C53.9096 52.7542 53.6933 52.298 53.4065 52.095C53.6977 52.4006 53.9184 52.955 53.7463 53.2606C53.8853 52.9572 53.3579 51.964 52.7092 51.5231C52.568 51.3244 51.9876 51.355 51.3235 51.9902C51.7184 51.4969 51.8244 50.8158 51.6324 50.6587C51.82 50.3203 51.6831 50.1806 51.3544 50.4491C51.361 50.2789 51.1183 50.3247 50.7895 50.5102C50.7056 50.4862 50.4055 50.7263 50.2687 51.0014C50.4232 50.7329 50.677 50.543 50.7123 50.5976C50.9395 50.4775 51.0256 50.5473 50.9086 50.7285C51.0035 50.6347 50.8888 50.7023 50.6792 50.8377C50.6439 50.8748 50.4453 51.0734 50.3107 51.2611C50.3879 51.0778 50.5181 50.8901 50.56 50.8595C50.6703 50.7307 50.7343 50.6827 50.677 50.7831C50.7101 50.5473 50.624 50.3924 50.5093 50.4819C50.3901 50.3836 50.1805 50.5473 50.1739 50.8442C50.1717 50.4666 50.3813 50.1785 50.496 50.2527C50.6284 50.0868 50.7365 50.2156 50.7299 50.5321C50.7145 50.1588 50.5909 49.9427 50.4453 50.0846C50.3129 49.9624 50.0856 50.2352 50.1275 50.6434C50.0812 50.2199 50.1628 49.9558 50.2158 50.0431C50.0106 49.9667 49.7502 50.2527 49.8782 50.6543C49.7061 50.2592 49.9267 49.982 50.1937 50.0475C50.1717 49.9624 50.2599 50.1959 50.4188 50.591C50.3283 50.1806 50.3195 49.9231 50.3195 50.0366C50.1937 49.934 50.0393 50.2177 50.1341 50.639C50.0679 50.2374 50.2511 49.9776 50.3813 50.0977C50.4364 49.9842 50.4872 50.2352 50.5357 50.6194C50.4541 50.3007 50.357 50.1501 50.3438 50.2767C50.1408 50.2177 49.9642 50.484 50.0812 50.8508C49.9444 50.484 50.0988 50.2221 50.3085 50.2789C50.2776 50.161 50.3504 50.3203 50.4585 50.6478C50.3702 50.257 50.3349 49.9995 50.3283 50.0977C50.1761 49.9885 50.0172 50.2418 50.1209 50.6412C50.0768 50.2068 50.165 49.9318 50.2114 50.0147C50.0062 49.9362 49.7281 50.2243 49.8451 50.6281C49.6509 50.2156 49.7656 49.9449 49.9554 49.9427C49.6641 49.9274 49.4302 50.1806 49.609 50.5146C49.2692 50.1915 49.3332 49.9776 49.5604 49.8445C49.1986 49.9493 48.9823 50.1479 49.0441 50.2745C48.8543 50.1588 48.9117 50.0038 49.064 49.7375C48.7903 49.9689 48.594 50.1064 48.4108 49.9929C48.3733 50.0257 47.6407 49.8685 46.6919 49.6C45.7409 49.3315 44.556 48.9714 43.5498 48.6592C42.5458 48.3471 41.7249 48.0808 41.5065 48.0044C41.683 48.2598 51.7979 51.5143 40.8335 48.1572C53.4991 52.3635 40.6349 48.3776 40.3922 48.31C42.078 48.9364 47.0758 50.3793 39.8516 48.7509C40.3348 48.9059 46.3808 50.0453 43.894 50.3749C44.2537 50.4448 45.3106 50.5735 46.3344 50.7504C47.3583 50.9272 48.3512 51.1542 48.5785 51.4205C48.8146 51.2458 49.2603 51.4816 49.7877 51.809C50.0569 51.8941 50.6174 52.1954 50.8469 52.3002C51.4404 52.621 52.0583 52.9594 52.1178 52.9594C52.7379 53.3108 53.1196 53.5225 52.8063 53.3414C53.4991 53.7517 53.6161 53.8456 52.8328 53.5182C54.0861 54.0901 54.4833 54.2669 53.0865 53.7801C54.2383 54.2996 54.7569 54.5594 54.4634 54.6139C54.8937 55.0461 54.6046 55.3452 53.5808 55.8953C54.7414 55.415 55.346 55.3976 55.5137 55.5722C56.1514 55.8429 56.4537 56.3253 56.6965 57.1526C56.5795 56.3798 56.5464 56.1419 56.6236 56.2663C56.7759 56.2292 57.0451 56.5654 57.6718 57.4211L57.674 57.4145Z" fill="currentColor"/>
<path d="M101.164 109.206C100.842 108.802 100.467 108.474 100.584 108.579C100.122 108.099 99.9173 107.868 100.158 108.053C99.7761 107.651 99.7562 107.584 100.184 107.907C99.9548 107.662 100.264 107.881 100.961 108.424C100.423 107.944 99.7143 107.324 99.8312 107.355C99.3634 106.984 99.1737 106.813 99.359 106.922C99.0633 106.713 99.1273 106.772 99.5466 107.095C99.0391 106.68 98.5669 106.23 98.7412 106.318C98.3418 105.896 98.1564 105.68 98.4587 105.942C98.0285 105.652 97.9976 105.617 98.4168 105.881C98.1366 105.7 98.5647 106.036 99.1979 106.416C98.5801 106.021 98.1917 105.691 98.5492 105.82C98.1344 105.578 98.2646 105.617 98.8559 105.768C98.4212 105.665 98.7522 105.844 99.37 106.012C99.2112 106.025 99.7672 106.257 100.442 106.407C99.8489 106.285 99.4429 106.126 99.6084 106.091C99.0523 105.958 98.7456 105.787 99.167 105.824C98.3241 105.619 97.938 105.408 98.3992 105.475C97.874 105.403 98.1189 105.597 98.953 106.003C98.3241 105.715 98.0351 105.29 98.3021 105.325C97.5474 105.172 98.0902 105.117 98.3572 105.06C97.9556 105.084 97.9225 105.032 98.2579 104.814C97.9932 104.997 98.0902 105.067 98.6198 105.095C98.2601 105.135 98.5536 105.231 99.3612 105.253C98.558 105.22 98.269 105.111 98.6573 105.015C98.1167 105.006 98.0351 104.916 98.3793 104.569C97.9887 104.888 97.6004 104.801 98.1675 104.144C97.8166 104.644 98.0549 104.58 98.7456 104.074C98.3815 104.451 99.028 104.17 99.7363 103.65C99.0258 104.168 98.3815 104.441 98.7434 104.048C98.0571 104.554 97.821 104.609 98.1631 104.061C97.5982 104.731 97.5165 104.755 97.8365 104.141C97.5827 104.678 97.671 104.692 98.1697 104.275C97.8497 104.654 98.1873 104.526 98.9376 103.978C98.1851 104.515 97.8431 104.628 98.1454 104.192C97.6511 104.628 97.5563 104.591 97.7482 103.945C97.457 104.611 97.4945 104.43 97.8277 103.445C97.6467 104.176 97.8321 103.943 98.2668 103.061C98.077 103.661 98.5316 103.05 98.9508 102.306C98.3219 103.146 97.9909 103.476 98.1719 102.596C97.9248 103.295 98.0969 102.751 98.3241 101.919C98.3219 102.273 98.216 102.17 98.3197 101.605C98.3903 101.81 98.483 101.535 98.5845 101.038C97.9799 101.767 98.4764 100.005 98.3661 99.4179C98.2447 99.0948 98.3661 98.2937 98.2601 97.8833C98.0483 97.0604 97.8696 96.3597 97.7416 95.8664L97.5408 95.085C97.5408 95.085 97.4018 95.5434 97.1944 96.2331C97.0907 96.578 96.9693 96.9796 96.8391 97.4097C96.7089 97.8397 96.5787 98.3374 96.4331 98.7565C96.3029 99.2498 96.3294 100.874 96.0271 100.103C96.111 100.893 96.3426 102.037 96.1198 101.808C96.3228 102.629 96.1264 102.358 95.6741 101.278C95.9057 101.865 96.1727 102.544 95.9366 102.144C96.2963 102.947 96.4927 103.415 96.1198 102.768C96.5876 103.753 96.6935 104.004 96.1595 103.19C96.6185 103.936 96.5192 103.788 95.983 102.961C96.3934 103.598 96.0955 103.124 95.6057 102.345C96.0955 103.135 96.4287 103.672 96.0095 103.061C96.5655 103.914 96.6869 104.113 96.1992 103.432C96.7773 104.281 96.7575 104.277 96.122 103.452C96.6251 104.117 96.4684 103.914 95.844 103.102C96.2875 103.681 95.8771 103.148 95.3276 102.424C95.8771 103.146 96.2875 103.681 95.8418 103.105C96.464 103.919 96.6207 104.124 96.1021 103.471C96.7376 104.296 96.742 104.32 96.0624 103.556C96.6008 104.198 96.4441 104.037 95.7579 103.286C96.2478 103.847 95.8197 103.402 95.1732 102.72C95.8065 103.402 96.1926 103.805 95.6718 103.249C96.3426 103.978 96.4618 104.111 95.8506 103.489C96.5148 104.214 96.2456 104.139 95.3806 103.463C95.9499 103.987 95.5593 103.714 94.8223 103.164C95.1974 103.511 94.5686 103.089 94.0191 102.714C94.7716 103.26 95.2989 103.668 94.701 103.31C95.2526 103.777 94.7738 103.585 94.0611 103.257C94.1317 103.439 93.3925 103.15 92.7614 102.943C93.6617 103.471 91.8611 103.14 91.3183 103.205C90.7225 103.347 90.0076 103.443 89.4273 103.548C88.2622 103.759 87.3906 103.917 87.3906 103.917L88.1497 104.214C88.6285 104.401 89.3081 104.668 90.1069 104.98C90.5129 105.137 91.08 105.32 91.3845 105.48C91.9604 105.665 93.6683 105.49 92.7813 106.027C93.291 105.982 93.5933 105.92 93.4101 105.829C93.9882 105.787 94.4273 105.676 94.0302 105.628C94.9194 105.525 95.6233 105.386 94.8488 105.51C95.7005 105.456 95.6917 105.521 94.8907 105.741C95.5902 105.689 95.1974 105.955 94.4362 106.261C95.2548 105.962 95.9013 105.606 95.2901 105.693C96.208 105.41 96.4419 105.266 95.7072 105.309C96.7089 105.159 96.8766 105.154 96.2103 105.309C96.8435 105.242 96.87 105.349 96.4133 105.755C96.848 105.538 96.7023 105.859 96.0977 106.497C96.7111 105.864 96.87 105.549 96.4883 105.787C96.9274 105.377 96.9208 105.279 96.3912 105.414C97.0046 105.226 96.9781 105.296 96.2787 105.693C96.8347 105.475 96.7685 105.687 96.2191 106.254C96.6295 105.975 96.3051 106.543 95.6961 107.167C96.3073 106.545 96.6361 105.975 96.2411 106.259C96.7906 105.689 96.8656 105.477 96.3515 105.707C97.0377 105.305 97.1348 105.737 96.8082 106.043C97.1547 105.785 97.2231 105.89 97.1833 106.414C97.3047 106.058 97.3687 106.364 97.3224 107.134C97.3775 106.361 97.3246 106.056 97.2628 106.396C97.2849 105.877 97.2341 105.766 97.0554 105.979C97.2738 105.707 97.3047 105.261 97.2716 105.521C97.351 105.368 97.4592 105.536 97.6269 105.993C97.5827 105.757 97.7968 106.178 98.0218 106.805C97.7063 105.962 97.554 105.683 97.6092 106.156C97.5607 105.737 97.724 106.123 97.8939 106.92C97.8608 106.536 97.9909 106.842 98.1057 107.368C98.1278 107.228 98.2624 107.641 98.3727 108.212C98.2579 107.603 98.1211 107.169 98.1233 107.315C98.013 106.791 97.9093 106.529 97.9909 106.916C97.8188 106.167 97.7284 105.916 97.9601 106.405C97.8034 105.977 97.863 106.03 98.13 106.462C98.0042 106.187 98.3021 106.608 98.6397 107.13C98.1895 106.399 98.1278 106.278 98.536 106.837C98.3286 106.512 98.4764 106.695 98.7743 107.088C98.7235 106.99 98.9773 107.313 99.3546 107.802C99.3347 107.743 99.8356 108.37 100.33 108.976C99.7981 108.265 99.5819 107.951 99.8224 108.191C99.5069 107.761 99.6415 107.732 100.047 108.121C99.8555 107.894 100.087 108.114 100.562 108.588C100.462 108.472 100.846 108.8 101.168 109.203L101.164 109.206Z" fill="currentColor"/>
<path d="M86.2794 94.2328C86.3236 94.2415 86.2463 94.1804 86.0742 94.0625C86.1139 94.1345 86.1691 94.2087 86.2794 94.2328Z" fill="currentColor"/>
<path d="M89.6424 100.112C90.5978 99.18 90.4853 99.1363 89.4173 99.8435C90.3441 99.1407 89.8851 98.7369 88.4729 98.44C88.4464 97.9379 88.1816 97.4621 87.7844 96.9862C87.3873 96.5104 86.8577 96.0389 86.3016 95.5412C84.8343 93.987 83.0646 92.996 81.5752 91.5292C80.8757 90.8416 80.2733 90.1933 79.6952 89.6934C79.0443 89.0539 78.4375 88.458 78.0756 87.7944C77.8704 87.0522 77.3629 86.3057 77.557 86.0896C76.7296 86.1835 76.6854 86.8034 76.82 87.5826C76.6501 88.0454 76.6612 88.6675 76.6523 89.2918C76.8443 89.8921 77.0561 90.5644 77.2658 91.2367C77.8968 93.2514 78.5169 95.2531 78.5169 95.2531C78.5169 95.2531 78.0116 93.2427 77.5195 91.2192C77.354 90.5447 77.193 89.8681 77.0495 89.2656C77.0937 88.5125 77.1466 87.8206 77.2636 87.384C77.2327 86.8056 77.2702 86.4825 77.535 86.6702C77.3055 86.4323 77.6674 87.4255 78.4683 88.6522C79.0222 89.1259 79.6643 89.6803 80.313 90.3024C81.5906 91.6798 82.9013 92.8498 84.5585 94.1093C84.9667 94.4302 85.3815 94.7292 85.7721 95.061C86.156 95.4037 86.5333 95.742 86.8996 96.0673C87.9985 97.0495 88.9892 97.9336 88.8701 99.0839C90.4191 99.2084 90.8604 99.5947 89.8873 100.409C90.8516 99.4594 90.7986 99.3568 89.638 100.108L89.6424 100.112Z" fill="currentColor"/>
<path d="M92.8618 102.783C93.3429 101.63 93.2303 101.587 92.5154 102.587C92.7979 102.089 92.7096 101.641 92.2528 101.275C91.8226 100.897 91.0216 100.602 89.8764 100.406C89.4571 98.413 87.6632 96.8239 85.8692 95.237C85.2713 94.7087 84.6424 94.2351 84.0356 93.7483C82.8992 92.8511 81.9173 91.9737 80.878 90.9281C80.4521 90.5133 80.0814 90.1445 79.7482 89.8541C79.0775 89.2757 78.6692 88.9352 78.656 88.9504C78.5633 89.0509 78.5214 89.1622 78.528 89.2844C78.5346 89.4067 78.5876 89.5136 78.6913 89.6053C78.795 89.697 78.8987 89.7319 79.0201 89.7253C79.1414 89.7166 79.2474 89.662 79.34 89.5616C79.3511 89.5485 79.6159 89.673 80.0307 89.9196C82.8352 91.6157 85.3264 94.425 88.8327 94.9074C89.3534 95.0929 89.7682 95.2348 90.022 95.6495C90.5273 96.4768 90.4214 97.6053 89.1879 99.3298C91.0282 98.7055 92.3698 98.3475 92.383 98.3802C94.1284 98.306 94.5455 98.6247 92.767 99.7117C94.5344 100.085 94.1086 101.227 93.2127 102.901C93.5371 102.268 93.8107 101.731 94.0004 101.29C94.2233 101.362 94.3358 101.323 94.3116 101.063C94.3116 100.613 93.921 99.6572 92.8596 99.9431C93.8239 99.7707 94.1306 100.364 94.0755 100.703C94.0203 101.041 93.5812 101.816 93.0362 102.809C94.0732 100.978 93.4973 101.764 92.8641 102.781L92.8618 102.783Z" fill="currentColor"/>
<path d="M80.9012 85.6216C80.9387 85.2265 80.7755 85.0802 80.7578 84.7725C81.6228 89.3651 85.5416 92.5629 89.9856 93.8814C89.2464 94.6912 88.4764 94.8855 87.5562 95.2434C88.9839 95.6342 90.3762 95.4072 91.7972 95.8023C92.9204 96.1035 93.75 96.5248 92.6181 97.0072C93.205 97.1927 93.6552 97.4394 93.9641 97.7428C94.7717 98.736 94.7055 100.439 92.9822 100.373C94.8997 101.203 95.341 103.652 96.2104 105.308C95.7337 105.177 95.4226 105.195 95.096 104.902C96.0471 105.162 96.7179 106.055 97.8167 106.153C97.4571 105.245 96.4884 104.675 95.833 104.09C96.3251 104.529 96.9805 105.114 97.4725 105.553C96.4884 104.675 95.0453 103.977 94.3591 102.776C95.2108 104.123 96.3428 104.839 97.638 105.699C97.1459 105.26 96.3582 105.147 96.0162 104.547C97.4924 105.863 99.4099 106.69 101.46 107.05C99.7872 107.908 98.4743 106.74 97.0489 106.35C98.6552 107.194 100.557 107.716 102.296 108.089C101.246 108.917 99.9836 108.672 98.7214 108.428C100.131 108.511 101.87 108.884 102.905 107.749C100.855 107.391 98.6574 107.194 96.8701 105.896C98.1654 106.756 99.7386 106.985 101.33 107.522C99.6239 107.764 98.1808 107.066 96.7554 106.675C98.3287 106.904 99.8048 108.218 101.495 107.668C100.233 107.424 98.6574 107.194 97.5277 106.481C99.9549 108.057 103.055 107.587 105.663 106.681C104.185 108.303 101.857 108.576 99.6592 108.38C102.512 109.161 105.253 107.784 107.698 106.732C106.859 108.629 104.876 109.504 103.037 110.215C105.809 109.456 108.534 107.771 109.324 104.946C108.978 107.282 107.04 109.083 104.909 110.119C107.812 108.888 109.553 106.326 110.655 103.488C110.012 106.149 108.585 108.694 105.992 109.91C108.126 108.873 109.571 106.636 110.081 104.444C109.275 106.959 107.371 109.375 104.763 110.281C106.912 109.552 108.85 107.753 109.196 105.418C107.44 107.672 104.862 109.194 102.075 109.648C104.388 109.065 107.309 108.144 108.097 105.319C106.356 107.882 103.141 109.128 100.156 108.818C102.19 108.869 104.518 108.594 106.175 107.428C104.697 109.05 102.369 109.323 100.334 109.272C102.369 109.323 104.534 108.901 105.699 107.297C103.238 108.041 100.76 108.478 98.3662 107.52C100.284 108.349 102.303 108.089 104.319 107.832C102.647 108.69 100.776 108.786 98.8891 108.574C99.988 108.672 101.071 108.463 102.17 108.561C100.86 107.391 98.8582 107.958 97.5475 106.788C98.8097 107.033 99.9571 108.057 101.319 107.214C99.2841 107.164 97.8101 105.848 96.2037 105.003C96.6804 105.134 96.8436 105.28 97.1702 105.57C97.1217 104.645 96.0228 104.547 95.4932 103.698C94.9725 103.106 94.4032 102.231 94.0413 102.322C94.8313 101.58 96.1331 104.182 96.3075 104.077C96.4818 103.973 96.025 103.259 94.999 101.545C95.4094 102.049 95.2284 101.613 94.7761 100.432C94.551 99.8405 94.2973 99.2424 93.9839 98.7971C93.653 98.5002 93.2558 98.3103 92.7858 98.2645C94.8864 97.5769 93.8957 97.2364 92.2209 97.0225C91.8061 96.9461 91.2213 96.9002 90.5064 96.8871C89.7915 96.874 88.9464 96.8893 88.0108 96.9373C88.6992 95.9594 90.3563 94.7938 90.0276 94.5013C87.7173 92.146 83.7654 91.2685 82.0222 87.9616C81.219 86.4161 80.9123 85.6238 80.9123 85.6238L80.9012 85.6216Z" fill="currentColor"/>
<path d="M91.3562 74.9853C92.3734 75.304 92.8545 75.4721 92.8192 75.4612C92.7839 75.4503 92.2322 75.2669 91.1797 74.9482C92.1726 75.2757 92.6978 75.4678 92.7331 75.4809C92.7684 75.4939 92.3161 75.3237 91.3584 74.9853H91.3562Z" fill="currentColor"/>
<path d="M94.2485 76.4179C94.8685 76.7846 95.493 76.7519 96.1307 77.0291C95.3275 76.6056 94.6876 76.3306 93.8998 76.2171C94.5397 76.4943 95.3275 76.6078 95.8173 77.0465C95.3253 76.6078 94.3897 76.6558 93.752 76.3808C94.2286 76.5117 94.8508 76.479 95.3429 76.9177C94.244 76.8195 93.4254 76.0883 92.3265 75.99C92.4898 76.1363 92.9664 76.2673 93.2776 76.2498C92.1942 76.4594 91.2277 75.8918 90.2921 75.9398L90.6032 75.9246C86.5034 75.2086 83.1892 77.542 80.5435 80.5019C79.9808 80.1374 79.1997 79.727 79.4932 79.5502C78.7562 80.2116 79.1688 80.6547 79.9058 81.1066C80.0073 81.4973 80.0757 81.7789 80.1993 82.2416C80.8679 83.9945 81.5894 85.8127 82.6044 87.3058C81.5563 85.195 80.3449 82.9401 80.0228 80.6482C79.5351 80.2531 79.3365 79.9977 79.822 79.9671C79.3321 79.9388 80.1993 80.3579 80.9605 80.7966C83.4826 77.2146 87.7325 74.8332 92.1765 76.1494C91.8477 75.8569 91.5366 75.8722 91.2255 75.8896C92.1765 76.1494 93.1275 76.4113 94.2264 76.5074C93.7498 76.3764 93.2754 76.2476 92.7987 76.1167C93.9131 76.5227 94.9965 76.3131 95.9122 77.0378C96.1329 77.088 95.6143 76.8959 94.2463 76.4157L94.2485 76.4179Z" fill="currentColor"/>
<path d="M97.1624 78.5219C99.2255 77.771 99.8566 77.5505 101.467 76.9852C99.7794 77.4698 99.0733 77.6095 96.7123 77.8802C98.9343 77.6073 99.5168 77.4611 100.797 76.8826C100.126 77.186 99.6293 77.3825 99.0027 77.5505C98.376 77.7186 97.6236 77.854 96.6262 77.8496C97.5971 77.8758 98.2458 77.7819 98.6342 77.6837C99.0225 77.5855 99.1351 77.4938 99.2101 77.3497C98.8504 77.5484 98.451 77.6968 97.7229 77.8605C97.3588 77.9413 97.019 77.9238 96.5821 77.8649C96.015 77.8103 95.3751 77.5331 94.9007 77.4043C95.064 77.5506 95.3773 77.5353 95.5406 77.6815C94.5896 77.4218 93.6385 77.1598 92.5397 77.0638C92.8508 77.0485 92.9986 76.8848 93.3274 77.1773C88.8988 76.1688 83.9782 77.6575 81.0391 81.209C84.1415 77.8038 89.6535 75.6668 94.1306 77.6008C93.9673 77.4545 93.8018 77.3083 93.4907 77.3235C94.2939 77.747 95.2295 77.699 96.1805 77.9587L95.5582 77.9915C96.6571 78.0897 97.6081 78.3495 98.4356 77.9762C99.2741 77.7863 99.8919 77.6553 100.649 77.5069C99.6867 77.7077 99.2763 77.8299 97.1646 78.5285L97.1624 78.5219Z" fill="currentColor"/>
<path d="M121.544 76.7404C121.535 75.8803 121.323 74.8086 120.107 75.4896C122.175 73.2195 123.572 70.0566 122.786 67.005C123.77 67.8825 124.589 68.6116 124.966 69.8296C124.902 68.5963 123.607 67.7362 122.786 67.005C123.095 69.9256 122.634 73.0405 120.401 75.1644C122.698 74.2738 123.34 71.6129 124.653 69.8448C125.013 70.7529 124.995 73.381 126.487 72.5035C127.091 72.1586 127.663 71.7635 128.19 71.3248C129.776 70.0064 130.975 68.2841 131.493 66.2476C130.88 68.4435 129.492 70.4713 127.577 71.8836C127.098 72.2372 126.586 72.5515 126.05 72.8091C124.779 72.3114 125.026 71.0607 124.666 70.1526C121.842 75.8607 114.54 79.637 108.552 76.0812C107.81 75.6904 107.307 75.4918 106.839 75.2757C105.789 74.9461 104.964 74.3458 104.743 73.0405C105.637 75.1884 106.548 75.6511 107.161 75.4569C106.089 75.7428 104.719 75.3717 104.222 73.3548C103.615 75.1076 103.885 75.2124 105.35 74.2476C103.388 75.1142 102.625 74.9112 103.377 72.9619C102.373 74.9788 102 74.981 102.709 72.9248C100.632 74.7584 100.043 74.6471 99.9835 72.0408C98.6397 74.3655 97.8277 74.1952 96.0338 71.7046C96.5501 73.9442 95.8197 73.8023 93.6374 72.0299C94.0567 73.4531 93.0284 73.2435 91.325 72.4861C90.1246 72.6585 88.4277 72.3158 87.2185 72.0691C86.0071 71.8247 85.2812 71.6784 85.2812 71.6784L84.3125 71.6435C84.3125 71.6435 85.0958 71.8465 86.3492 72.1695C87.6025 72.4926 89.3236 72.9379 90.6056 73.0514C92.1436 73.667 93.1211 73.9202 92.5187 72.8942C94.8974 74.4048 95.6917 74.6361 94.8003 72.7589C97.5695 75.1207 98.6551 75.3761 99.7981 73.3526C99.6084 75.8651 99.4782 76.0986 98.2513 74.479C99.5444 76.3846 100.484 76.426 103.271 75.2386C101.638 76.5265 101.852 76.5854 103.971 75.6904C102.867 76.9565 102.234 77.3123 102.819 77.906C101.683 77.5153 102.629 77.2512 104.28 76.4064C103.165 77.0416 104.094 77.0416 106.199 76.7491C104.447 77.0482 103.869 77.0547 104.712 76.4653C104.09 77.1813 105.476 77.3101 107.369 77.5677C107.261 77.9082 107.66 78.3819 107.982 79.2637C107.426 80.0233 106.795 81.1933 106.138 83.2452C107.144 81.13 108.174 79.9186 108.759 78.9974C109.158 78.0544 109.114 77.4018 108.62 76.7404C107.859 76.1117 106.647 75.4743 105.99 73.9464C106.248 74.5728 106.716 75.005 107.267 75.3237C111.374 78.8686 117.082 77.4935 121.725 75.7341C121.643 75.9873 121.464 76.4239 121.537 76.736L121.544 76.7404Z" fill="currentColor"/>
<path d="M79.251 69.3955C78.7059 69.8517 78.9663 69.7731 79.6768 69.4632C79.9085 69.5505 80.5904 69.4086 81.4266 69.2733C81.9937 68.8149 82.6579 68.2844 83.3684 67.7169C84.5533 66.7717 85.8729 65.724 87.1019 64.7461C87.7175 64.2571 88.3089 63.7878 88.7701 63.4691C89.3769 62.9322 89.8535 62.5458 89.6262 63.2727C90.3742 62.4061 90.8773 61.8691 90.4559 62.0263C91.0539 61.7316 90.7251 62.1333 89.816 63.1439C90.6567 62.1245 91.0495 61.6225 90.436 61.8691C90.9899 61.6181 90.5397 62.1158 89.6946 63.0937C90.4316 62.1987 90.7825 61.7775 90.3654 61.987C90.7891 61.8298 90.4426 62.3013 89.7807 63.1963C90.4316 62.3734 90.6236 62.0721 90.2749 62.2402C90.372 62.2053 89.9285 62.6397 89.3107 63.2923C89.1319 63.1221 88.4303 63.6809 87.6536 64.2964C86.1023 65.5275 84.2665 66.9857 82.6711 68.2561C81.9033 68.7668 81.1641 69.2143 80.3587 69.4042C79.4187 69.2427 78.6795 70.0525 78.6817 69.1816C78.311 70.4607 78.9751 70.4651 80.0431 70.1726C80.2947 70.4542 80.9456 70.4411 81.4884 70.7619C82.2916 70.9278 83.0485 70.9235 83.7877 70.8907C85.9015 70.6244 88.0044 70.369 88.0044 70.369C88.0044 70.369 85.9148 70.5109 83.8141 70.6397C83.0816 70.6353 82.3468 70.6288 81.5612 70.4454C80.7757 70.2621 80.074 70.1246 79.8666 69.795C79.0524 69.9303 78.7324 69.8757 79.2488 69.3911L79.251 69.3955Z" fill="currentColor"/>
<path d="M103.857 48.8002C102.93 50.5858 102.56 51.1948 104.252 49.3459C102.734 50.911 102.222 50.9394 102.586 48.8308C101.825 50.2845 101.939 49.6035 102.44 48.1236C101.525 49.5839 100.995 50.3457 101.386 48.6191C101.028 51.0616 101.593 51.0114 103.579 49.0731C100.969 51.6313 99.7837 52.2971 99.5123 48.857C99.402 52.3211 100.205 51.6794 102.654 48.75C100.713 50.9743 99.3027 51.5506 97.1093 49.0796C96.593 52.2687 95.2955 52.4063 92.897 51.1097C92.8198 52.1247 91.6437 51.7056 90.5294 50.9459C89.4151 50.1863 88.3647 49.0884 87.3806 47.5888C88.1198 49.383 88.9009 50.7582 89.5717 51.8933C90.2447 53.0262 90.8074 53.9189 90.3418 54.4625C91.4252 55.5757 91.4804 56.3419 89.9159 57.1255C90.7809 58.1034 90.0307 59.0988 88.7288 60.3845C90.6463 58.6251 91.3149 57.8786 89.8409 57.9048C90.5845 57.9332 89.1834 58.7386 86.9591 60.0876C89.4504 58.4374 88.6494 58.9634 86.5311 60.3452C86.9261 59.9828 86.0037 60.4783 85.1343 60.9433C81.6568 62.8074 79.0486 64.2044 79.0486 64.2044L78.2852 64.7938C78.2852 64.7938 81.2111 63.4229 84.7217 61.7771C85.5999 61.3645 86.5134 60.9367 86.7517 61.0218C88.2654 60.0898 89.1017 59.6707 87.7138 61.2772C89.2849 60.0614 90.2999 59.3542 89.8277 59.5135C90.9045 59.4218 90.4919 60.2011 89.2098 61.9583C90.3286 60.498 91.0611 59.472 89.9932 58.9765C91.6018 58.1885 91.4098 57.9288 89.7615 58.0096C89.9557 58.0707 88.6913 58.4723 86.8179 59.1534C89.0819 58.2911 90.7346 57.7061 90.1278 57.418C93.3163 57.3241 94.243 57.5271 90.8383 58.5356C95.867 58.9503 96.5643 60.1705 95.3507 65.6123C96.9041 60.4652 96.251 59.3083 90.9751 58.9132C94.5939 57.4966 93.5899 56.8461 90.3859 55.8704C91.2002 55.7722 89.8166 55.3509 88.2323 54.9056C86.648 54.4603 84.8629 53.991 82.8638 53.3623C84.3378 53.8011 85.708 54.1394 87.0143 54.4144C88.3206 54.6895 89.5585 54.9012 90.1167 54.8859C91.9791 55.281 93.1574 55.4447 91.273 54.3206C95.5272 55.8027 96.7166 55.997 93.9363 52.4914C99.1813 56.4947 100.452 56.7959 107.07 55.3618C100.099 56.4859 99.0335 55.9664 96.2863 50.6229C98.1376 55.0235 98.3075 54.6022 98.2832 49.4463C99.8411 53.5784 101.205 52.9803 104.486 49.8982C100.748 52.5241 99.6513 52.3866 99.3093 48.7195C99.2343 50.9547 99.9161 49.6624 101.101 47.5735C100.574 49.5206 100.534 50.5334 101.348 48.6714C101.357 51.3934 102.222 51.2472 104.237 49.3852C102.354 51.3934 102.932 50.5858 103.859 48.8002H103.857Z" fill="currentColor"/>
<path d="M81.7543 69.1426C81.8381 69.2495 81.9418 69.3107 82.0654 69.3259C82.189 69.3412 82.3037 69.3063 82.4118 69.2233C82.5156 69.1426 82.5751 69.0422 82.5884 68.9221C82.6016 68.8021 82.5663 68.6886 82.4802 68.5816C82.4582 68.5554 83.2084 67.9355 84.3426 67.0209C85.4768 66.1063 86.9971 64.897 88.513 63.6943C89.2743 63.0874 90.0333 62.4828 89.8104 63.2839C90.4305 62.3846 90.8034 61.8367 90.3797 61.9546C90.8696 61.6752 90.5651 62.0615 89.8237 63.0307C91.1278 61.6097 91.9994 60.7715 90.7615 61.4372C92.8533 60.7911 92.8378 61.6468 91.8008 64.0522C92.9658 61.3805 93.1093 60.2563 90.6114 60.7213C92.1648 59.9354 91.077 60.7365 89.2103 62.3518C91.0395 60.7322 92.1406 59.8918 90.5916 60.6405C93.1446 60.1625 93.0475 61.2713 91.8493 64.0435C93.021 61.2866 93.0938 60.1952 90.5827 60.6645C92.0656 59.9311 90.9667 60.7627 89.1683 62.3496C90.9137 60.8064 91.9618 60.014 90.5585 60.7213C92.8776 60.2869 92.7474 61.3521 91.6264 63.9016C92.7385 61.4176 92.8621 60.4135 90.6158 60.9264C92.0104 60.2323 91.0329 61.0552 89.4353 62.5985C91.0285 61.0923 91.9486 60.3436 90.6158 61.0487C92.6635 60.5881 92.4561 61.5813 91.4234 63.8252C92.3215 61.8345 92.3943 61.0945 90.7306 61.6577C91.7257 61.112 90.9821 61.8694 89.8811 63.1398C90.4062 62.3322 90.5695 62.0353 90.2518 62.2078C90.3709 62.1816 90.0046 62.6247 89.4706 63.2904C89.3824 63.0001 88.6123 63.6091 87.8444 64.2181C84.7729 66.6564 81.7146 69.0946 81.7543 69.1469V69.1426Z" fill="currentColor"/>
<path d="M73.2454 54.8381C73.1086 52.7993 73.0446 52.8975 73.0026 54.9232C72.9894 53.1639 73.0071 53.2817 73.071 55.028C73.0843 53.4061 72.9585 54.0828 72.7334 55.6479C72.5437 56.2023 72.2524 57.643 71.9413 59.1928C71.6302 60.7426 71.297 62.3994 70.9991 63.8924C70.7497 64.7786 70.5136 65.6037 70.0503 66.2455C69.7811 66.6995 69.503 67.0662 69.3287 66.7803C68.969 67.7975 68.7153 68.1576 68.6094 67.0619C69.1169 68.3672 69.6465 68.031 70.3349 66.992C70.6858 67.302 71.1977 66.9069 71.7802 66.5969C72.4841 66.204 73.0247 65.702 73.5675 65.1999C75.015 63.6523 76.4581 62.12 76.4581 62.12C76.4581 62.12 74.951 63.5584 73.4241 64.9926C72.8658 65.4597 72.3076 65.9268 71.6191 66.3066C70.9307 66.6864 70.3173 67.04 69.9752 66.7999C69.4236 67.5596 69.1412 67.7233 69.2338 66.872C69.1036 67.7211 69.2581 67.4875 69.6089 66.6711C69.8186 66.693 70.2224 66.1298 70.7012 65.464C70.838 64.7524 71.0013 63.9252 71.1778 63.0368C71.4713 61.5568 71.8023 59.9175 72.109 58.3873C72.4157 56.8572 72.7003 55.4384 72.8835 55.3598C73.1041 53.3756 73.2255 52.7295 73.2454 54.8424V54.8381Z" fill="currentColor"/>
<path d="M65.6172 64.4072C68.2474 60.6855 69.578 56.2893 71.1424 51.9149C71.4293 51.2819 71.672 50.8344 71.875 50.6183C72.281 50.1599 72.5259 50.6249 72.6473 52.358C72.9275 50.4262 73.1504 49.0576 73.6778 49.254C73.7197 47.1629 74.0639 46.639 75.454 48.346C75.1098 46.1544 75.8093 46.1937 77.5988 47.3855C75.8093 46.1959 75.1915 45.8729 76.3014 47.7152C74.5802 44.7509 74.5869 43.9498 78.0423 45.7899C75.101 41.6797 75.6063 40.2084 80.4188 36.9538C75.6526 39.3331 75.4276 39.3899 80.4144 37.8357C75.4364 38.5735 75.6681 37.7004 79.534 34.4436C75.6703 37.6982 75.4673 38.2854 80.1959 36.6264C75.3062 38.5779 75.3481 38.281 79.6443 34.8147C74.8958 39.4183 74.3993 40.8524 78.1527 45.0041C73.3468 42.3629 72.7907 42.4415 72.9937 47.7413C72.0427 43.4412 71.9809 44.7618 71.8551 48.9703C71.6146 47.1782 71.3123 48.2761 70.8357 49.8718C70.6327 50.2647 70.3856 50.782 70.1009 51.4019C69.8163 52.0219 69.664 52.6527 69.45 53.397C69.4368 53.5171 69.5846 53.3556 69.5846 53.3556C68.991 56.9398 67.923 60.3952 65.9658 63.6039L65.6216 64.4094L65.6172 64.4072Z" fill="currentColor"/>
<path d="M74.589 53.7711C73.8609 49.8289 73.6755 50.8003 73.5078 54.69C73.104 53.6838 72.7179 55.5959 72.3339 57.5059C71.566 61.328 70.807 65.1392 70.871 65.1523C71.0056 65.1807 71.1247 65.161 71.2284 65.0955C71.3321 65.0301 71.3983 64.9296 71.427 64.7965C71.4535 64.6677 71.4336 64.5542 71.3674 64.4538C71.299 64.3534 71.1975 64.2901 71.0629 64.2617C70.9945 64.2464 71.7492 60.4549 72.5082 56.6764C72.8878 54.7861 73.2673 52.8979 73.788 54.4565C73.8255 50.0777 74.0043 49.1435 75.0833 53.3716C74.4831 51.2979 74.1676 50.2851 74.1014 50.3419C74.0286 50.3681 74.2029 51.4638 74.5846 53.6095C74.1742 51.597 73.9734 50.6213 73.9756 50.6562C73.9778 50.6911 74.1852 51.7389 74.589 53.7733V53.7711Z" fill="currentColor"/>
<path d="M55.3939 55.7052C55.1578 55.4848 55.3057 55.3211 55.1424 55.1748C55.1578 55.4826 55.3233 55.6288 55.3388 55.9366C55.3388 55.9366 55.01 55.6441 55.1755 55.7904C57.2717 60.0098 60.1071 63.4193 62.9337 67.2174C62.819 67.6518 62.8874 68.1298 62.6535 68.1124C63.0617 69.1405 63.1676 69.6775 62.1637 68.9375C63.3971 69.588 63.5582 68.9222 63.4479 67.702C63.9112 67.6322 64.1076 67.0188 64.4607 66.4971C64.8623 64.7225 64.9108 62.7121 65.767 61.123C64.913 62.7121 64.5512 64.7399 64.09 66.4272C63.7877 67.0908 63.5295 67.7413 63.1014 67.7828C63.1522 68.7105 63.0308 69.0161 62.5564 68.3198C62.9823 69.0466 62.9514 67.8854 62.5167 66.4425C62.1592 65.8095 61.7863 65.5432 61.3097 64.9735C58.9575 62.3999 57.0908 59.5601 55.7381 56.4976C55.2571 55.3123 55.0188 54.6509 55.3917 55.7074L55.3939 55.7052Z" fill="currentColor"/>
<path d="M55.2534 55.4903C54.9622 54.7197 54.7658 53.9579 54.4061 53.0499C54.9136 53.7964 54.9622 54.7219 55.4697 55.4685C55.1255 54.8682 55.0769 53.9427 54.5694 53.1961C55.9264 58.2275 58.9583 62.3989 62.449 66.3935C62.449 66.3935 62.8926 65.9067 62.7293 65.7604C58.3515 62.7394 56.0434 57.4483 54.5385 52.5806C54.4392 53.6676 55.4057 54.2352 55.3064 55.3222C54.7989 54.5757 54.8982 53.4886 54.3179 52.5457C54.2936 52.5806 54.5716 53.4734 55.2534 55.4903Z" fill="currentColor"/>
<path d="M57.5139 68.7232L56.9556 66.7151C56.6136 65.4796 55.9009 64.1175 55.0999 62.3647C54.1379 59.8632 53.0589 57.1368 53.0611 54.1988C53.1096 55.1243 53.1427 55.7398 53.1912 56.6653C52.9463 54.978 52.5381 53.1445 52.6043 51.4397C52.7676 51.5859 52.7852 51.8937 52.8625 52.0399C52.1586 50.6015 51.5738 49.6148 51.4194 49.438C51.2649 49.2612 51.5363 49.8964 52.3594 51.5903C49.2967 46.4148 48.4361 45.4849 42.7895 45.9302C46.2847 43.3698 44.9939 42.1867 40.7109 38.9146C45.4506 42.0186 46.7017 42.6538 44.2878 38.2336C46.7746 41.3703 47.6329 42.2609 47.4608 40.698C47.4189 40.3073 47.3108 39.7638 47.2181 39.0696C47.3681 38.8273 47.6903 38.6789 48.4295 38.692C52.2689 39.0915 56.4349 38.1048 58.7672 34.8939C61.3908 31.2813 61.4019 26.4988 59.5108 22.6635C58.8798 21.3844 58.0369 20.2101 58.7275 19.7538C56.2694 18.5642 55.3846 18.0687 58.156 18.3721C53.4384 17.4335 52.377 17.296 55.5655 18.4005C50.2764 17.4815 49.354 17.7609 45.3624 21.4543C47.7609 18.693 47.0923 19.3457 43.8884 22.9582C46.1656 21.0155 46.0905 21.8297 44.9409 24.6412C46.331 23.4406 46.6466 24.2352 46.6333 26.036C46.2031 24.7219 45.8588 24.1217 44.76 24.8551C45.4749 22.7487 45.4352 21.9781 43.3345 23.2158C45.3513 21.9039 45.3933 22.6745 44.6519 24.7787C45.7772 24.0453 46.1214 24.6477 46.4259 25.9312C46.7128 23.9972 46.4745 23.1983 45.0093 24.5866C46.2759 21.6245 46.3134 20.8496 43.9391 22.8818C47.3218 19.2016 48.0676 18.5271 46.2141 21.3233C49.7424 17.5819 50.6714 17.3113 56.1789 17.9639C52.5624 17.213 53.5266 17.3877 58.1516 18.4638C55.7133 18.3568 56.821 19.1601 58.7738 20.5462C58.6569 21.1094 59.3851 22.2554 59.9102 23.4952C60.9583 25.9727 61.1856 28.8191 60.4619 31.4079C58.882 37.0527 52.9265 39.6765 47.4101 38.5392C47.0371 38.6658 46.9445 38.8011 46.9312 38.919C46.8783 39.3905 46.7944 39.5498 46.6113 39.4342C46.4281 39.3185 46.1788 38.9365 45.8853 38.3427C46.3333 38.2402 46.7746 38.1114 47.997 38.3558C52.1365 39.5608 56.5673 37.6333 59.0453 34.2609C60.3582 32.4928 60.72 30.4649 60.7708 28.4546C60.7443 26.9615 60.5104 25.4794 60.0514 24.102C59.5925 22.7225 58.9062 21.4477 58.818 20.7165C57.0439 19.2889 55.87 18.4049 58.1494 18.466C53.3678 17.3462 52.2314 17.2152 55.2764 18.5096C50.0734 17.5099 49.0473 17.9356 44.8946 21.9279C47.3571 19.2365 46.6907 20.1118 44.2414 23.6807C46.7768 19.7975 47.6793 18.8065 46.0045 21.5787C49.9167 17.5601 51.2517 17.3025 57.1962 18.108C53.8797 17.5099 55.1727 17.977 58.5488 19.4613C57.2315 19.5181 58.0611 20.4196 58.968 21.5656C59.3718 22.4605 59.8551 23.5978 60.1883 24.7874C60.5237 25.9771 60.709 27.2213 60.773 28.4546C60.7222 30.4671 60.3604 32.495 59.0475 34.2609C56.5673 37.6333 52.1387 39.5608 48.0036 38.3558C46.7657 38.1026 46.3222 38.2292 45.8721 38.3253C46.1545 38.9081 46.3928 39.277 46.5583 39.3752C46.7238 39.4735 46.7878 39.2988 46.8187 38.8142C47.0416 38.6593 47.3792 38.5654 48.0588 38.596C53.7142 39.79 59.7845 36.3869 60.709 30.1572C61.0466 27.6666 60.72 25.1716 59.7491 23.0193C59.2637 21.9432 58.615 20.9522 58.818 20.4829C57.002 19.23 56.0355 18.4965 58.3105 18.5686C53.9547 17.5208 52.9243 17.2654 56.5827 17.809C50.892 17.2152 49.888 17.4204 46.3377 21.0068C47.6064 18.6188 46.843 19.7015 44.3297 23.6153C46.2318 22.1659 46.3818 23.5498 46.4303 25.929C46.0354 24.4164 45.5698 23.7069 44.2414 24.4142C45.1351 22.1462 45.1682 21.2949 42.9727 22.5413C45.6735 19.4919 46.2516 18.6035 42.5953 19.3828C47.7521 17.2218 48.6766 16.7263 49.1687 14.0261C50.6691 16.1107 51.7371 15.9863 57.1542 14.6548C51.8475 16.0845 50.8479 16.2046 50.3095 14.2073C48.9304 16.7154 48.0125 17.1061 42.7079 18.9637C46.4767 18.2848 45.8588 19.0706 42.7829 22.1026C45.2984 20.8256 45.1925 21.7577 44.1068 24.2308C45.519 23.5192 45.9537 24.3465 46.4281 25.9312C46.4215 23.8837 46.2825 22.8775 44.771 24.2876C46.5076 20.9675 46.8717 20.0616 44.2723 22.4846C48.0544 18.5467 48.873 17.9377 50.3338 20.0747C50.7398 17.3025 51.6334 17.2174 57.1675 17.8155C53.3589 17.3615 54.1908 17.5885 58.3105 18.5708C56.2363 18.6035 57.3396 19.5137 58.8842 20.8671C59.1004 21.6529 59.7624 22.8862 60.2015 24.1959C61.0819 26.8175 61.0797 29.7533 60.2015 32.3487C58.4098 36.9217 53.3898 39.4996 48.5464 38.644C47.6771 38.5632 47.2975 38.6505 47.0658 38.8055C47.1607 39.456 47.2688 39.9559 47.3328 40.3029C47.5226 41.3376 47.2071 40.9687 46.256 39.2181C46.1634 38.9408 46.2318 38.644 46.715 38.334C50.2234 38.7357 53.6524 38.5588 56.6864 36.8584C53.8157 38.7051 50.3713 38.5741 46.9886 38.262C46.5694 38.3187 46.2781 38.4366 46.0199 38.5916C45.8633 38.9758 45.8897 39.3076 45.8699 39.5586C46.1435 41.1586 44.9056 40.0301 42.1717 37.271C45.6316 41.2088 46.6664 42.4705 43.3103 41.1171C48.2177 44.7995 48.734 45.8691 50.3668 52.0902C49.3254 48.1938 49.4004 49.4489 49.6563 53.3824C49.1908 52.5245 48.9039 54.3472 48.478 56.6392C48.9701 55.7289 49.4026 55.0282 49.7954 54.5655C50.1903 54.1027 50.5478 53.8757 50.8788 53.9106C51.0178 53.843 51.4613 53.3562 51.6246 53.5024C52.8536 56.0673 53.0147 59.1494 54.3629 61.7208C55.2235 63.5587 56.051 64.8618 56.4415 66.0231C56.8321 67.1822 57.0682 67.8785 57.0682 67.8785L57.5227 68.7254L57.5139 68.7232Z" fill="currentColor"/>
<path d="M45.7073 68.1602C45.0431 68.0292 45.1623 68.0336 45.8088 68.1056C45.2991 67.979 45.9522 68.2191 46.9716 68.6055C49.0083 69.3782 52.5123 70.7337 55.3786 71.8317C56.2392 72.1613 57.0424 72.4669 57.7264 72.7244C58.4458 73.3989 59.1033 73.9817 58.4458 74.2306C59.5689 73.9599 59.4233 73.388 58.6686 72.5847C59.0239 72.2726 58.7723 71.7291 58.3751 71.1768C57.989 70.677 57.5565 70.1182 57.1262 69.5572C55.8354 67.8786 54.56 66.2065 54.56 66.2065C54.56 66.2065 55.7295 67.9244 56.8923 69.6598C57.2807 70.2382 57.6668 70.8188 58.0089 71.3362C58.6664 72.4385 59.0283 73.6914 58.3553 73.5146C59.0018 73.7635 58.256 72.9056 56.8879 72.3905C54.1518 71.3602 49.6129 69.603 46.901 68.5684C45.544 68.051 44.6459 67.7149 45.6918 67.9593C44.7033 67.848 44.7893 67.9266 45.7095 68.158L45.7073 68.1602Z" fill="currentColor"/>
<path d="M55.3701 77.0439C53.0643 72.1282 47.7023 71.1655 43.0928 69.3822C42.6537 69.0919 42.358 68.8452 42.2742 68.6815C42.1087 68.3541 42.7971 68.3497 44.9088 68.8408C38.5561 66.4004 37.8897 65.9464 45.0809 66.3699C43.2826 66.2629 41.8262 66.1407 40.5442 65.918C39.9043 65.8067 39.2997 65.6517 38.7039 65.44C37.9339 64.3988 37.0314 63.4034 36.0296 62.5194C35.0278 61.6353 33.9223 60.8692 32.8014 60.282C31.5701 59.6948 30.3212 59.291 31.2325 58.826C27.7418 58.9832 26.409 59.0814 29.5975 58.5488C24.0413 59.8585 23.1322 60.4217 23.1852 64.7175C21.5877 61.8296 20.9477 62.6744 18.6529 67.4089C19.9813 64.5319 19.6525 65.5448 18.6904 68.5745C19.2796 65.3592 19.4892 64.1499 17.4084 66.5445C20.4667 61.9366 21.2346 60.9303 22.1283 60.1117C21.1508 60.8583 20.4182 61.7445 17.0664 66.1363C19.4296 63.7287 19.1737 64.8223 18.0527 68.162C19.1715 67.2692 19.5245 68.3672 19.9901 69.8296C20.6763 70.288 21.4795 71.1131 22.3908 71.8488C23.3044 72.5865 24.326 73.237 25.3498 73.8548C24.2664 74.0643 23.2999 73.4968 22.3489 73.237C23.6111 73.4815 24.9063 74.3415 26.2854 73.8067C25.3675 74.1625 24.251 73.7565 23.3176 73.8046C24.2686 74.0643 25.2351 74.634 26.2854 73.8067C25.3123 73.1344 24.2686 72.4338 23.3308 71.6392C22.393 70.8468 21.559 69.9606 20.9014 69.7554C20.4557 67.8891 20.1843 66.6995 19.3414 68.3388C20.5241 64.2613 20.9257 63.3139 20.3277 67.0247C22.0907 61.6746 22.852 60.9827 28.108 61.4083C24.6018 59.9306 25.5904 59.5704 30.4602 58.8217C28.0992 59.2604 29.5335 59.4198 31.8702 59.7952C32.2233 60.2362 33.4788 60.8932 34.5975 61.7401C36.835 63.434 38.5274 65.8809 39.2953 68.5942C39.655 68.8736 40.0257 69.1573 40.4162 69.4782C40.798 69.7467 41.1996 70.0305 41.6188 70.3273C42.0447 70.5849 42.4441 70.7333 42.8766 70.884C42.3845 70.6722 41.963 70.4321 41.6078 70.1745C41.2393 69.893 40.9569 69.655 40.7538 69.476C40.35 69.1159 40.2772 68.998 40.467 69.0635C40.6568 69.129 41.1025 69.38 41.7336 69.7314C46.6079 71.0651 52.1022 71.5563 54.8825 76.437L55.3745 77.0417L55.3701 77.0439Z" fill="currentColor"/>
<path d="M45.4736 66.7863C41.2701 66.4763 41.3562 66.5549 45.4604 67.1355C41.6121 66.6575 41.7335 66.6597 45.5001 67.0788C41.8747 66.6051 42.8081 66.9543 45.6502 67.762C45.5795 68.013 47.4176 68.7202 49.2513 69.4253C52.923 70.8376 56.5859 72.239 56.6101 72.1778C56.6609 72.0512 56.6631 71.9312 56.6146 71.8198C56.566 71.7085 56.4778 71.6256 56.3498 71.5754C56.2262 71.5274 56.1093 71.5252 55.9989 71.5754C55.8886 71.6234 55.807 71.7107 55.754 71.8373C55.7275 71.9006 52.0845 70.508 48.4525 69.1132C46.6365 68.4147 44.8227 67.7183 45.5862 67.5677C42.1108 66.6837 41.2128 66.3475 45.4714 66.7885L45.4736 66.7863Z" fill="currentColor"/>
<path d="M58.6769 80.2553C59.1844 79.5742 58.7652 79.3101 57.9466 79.1944C57.8561 78.8954 57.3662 78.7469 56.7859 78.6596C56.1659 78.5221 55.9651 78.2755 55.6584 77.9917C54.7493 77.4525 54.5374 76.3829 53.571 75.8132C54.5374 76.3808 54.7515 77.4525 55.6076 78.21C55.8945 78.533 56.0114 78.8343 56.6116 79.0132C57.8098 79.3712 58.8204 79.9759 58.3636 80.192C58.8468 80.0501 57.8208 80.0588 56.4373 80.5347C55.9761 80.694 56.0048 80.9145 55.7952 81.1699C53.2995 85.5639 48.6393 89.0477 43.2773 88.0872C43.4406 88.2335 43.754 88.2182 43.9172 88.3645C43.754 88.2182 43.6061 88.3797 43.4406 88.2335C49.7536 89.4559 53.3834 84.1691 57.2978 80.2553C58.7873 80.061 59.9148 80.2553 58.8954 80.6722C59.8464 80.0981 59.7515 79.9868 58.6769 80.2553Z" fill="currentColor"/>
<path d="M56.2476 80.2715C53.9086 85.2221 49.1005 88.8674 43.4429 88.2322L43.7541 88.217C42.6552 88.1187 41.5563 88.0205 40.5898 87.453C41.5563 88.0205 42.6728 88.4287 43.935 88.6732C42.6728 88.4287 41.7218 88.1689 40.5898 87.453C41.574 88.3305 42.8207 88.265 43.935 88.6732C42.8361 88.5749 41.8696 88.0074 40.7531 87.5992C41.8674 88.0052 42.8185 88.265 43.935 88.6732C42.984 88.4134 41.8697 88.0074 40.901 87.4377C47.1477 90.3627 53.3173 85.8726 56.3623 80.5596C56.3425 80.4265 56.3028 80.3326 56.2498 80.2759L56.2476 80.2715Z" fill="currentColor"/>
<path d="M60.4228 87.8095C60.4228 87.8095 57.2277 87.7899 53.2316 87.7681C52.4902 87.8641 51.9055 88.2221 51.142 88.4797C48.3573 89.6802 45.3741 89.3703 42.3886 89.0603C42.8807 89.499 43.5029 89.4663 43.8317 89.7588C42.3886 89.0603 40.8153 88.8311 39.5355 88.2789C39.7319 89.0407 40.8153 88.8311 40.9609 89.4925C41.5369 89.8374 42.2849 90.2456 43.2028 90.7607C42.5144 90.3744 41.8811 90.0557 41.2986 89.7915C40.7182 89.5252 40.1886 89.3201 39.6966 89.1869C38.7125 88.925 37.8872 88.9446 37.1524 89.296C35.6806 89.9989 34.5619 92.0289 33.2247 95.803C32.3112 89.4074 30.5151 89.9836 27.3398 93.2862C30.5151 89.9815 31.3205 89.9312 30.2613 95.1045C34.0059 89.7566 35.8836 89.6344 41.5214 93.0527C41.186 92.1293 41.0845 91.4265 41.1595 90.8895C41.2346 90.3525 41.4861 89.9836 41.8237 89.8003C45.7359 90.2827 49.7386 89.1498 53.5472 88.4993C54.0436 88.4622 54.5203 88.4316 54.9748 88.4011C57.6933 88.2243 59.5049 88.1086 59.5049 88.1086L60.4272 87.8117L60.4228 87.8095Z" fill="currentColor"/>
<path d="M49.8462 105.781C52.5293 103.687 55.4641 106.008 58.5025 105.052C58.6702 104.53 58.86 103.816 59.0497 102.995C59.8066 99.7125 60.7642 94.9496 61.029 94.5174C61.5056 93.7359 64.0652 88.925 64.4448 88.2985C64.7868 87.5738 66.9426 84.5703 67.3001 84.8628C67.15 84.018 65.2899 86.6985 64.5176 87.0478C64.0807 86.9255 63.4937 87.122 63.0171 87.4014C62.4522 87.6917 61.8212 88.0148 61.1879 88.3378C59.2925 89.3026 54.8242 88.2505 54.8242 88.2505C54.8242 88.2505 60.8106 88.7591 63.112 87.7834C64.2638 87.2966 66.6734 84.4982 66.5344 84.8257C66.7462 84.5397 64.7184 87.8161 63.9682 89.0581C62.8472 90.9157 61.8587 92.4895 60.9827 93.8189C60.6914 94.262 60.4112 94.6789 60.1442 95.0718C59.8022 95.9122 59.1556 98.1518 58.3503 100.509C58.0811 101.295 57.7964 102.094 57.4985 102.858C55.1088 105.1 50.9914 104.074 49.8594 106.296C48.4296 108.841 52.5955 110.793 53.2332 114.006C53.6415 115.839 52.9354 117.267 52.066 118.548C53.9371 115.516 51.7416 112.382 48.9878 110.515C48.1692 109.784 48.2685 108.697 48.7429 107.713C48.9635 107.005 49.3651 106.359 49.8506 105.783L49.8462 105.781Z" fill="currentColor"/>
<path d="M50.2617 120.495C55.147 117.771 53.1501 112.464 51.824 108.051C50.8906 105.163 55.2552 104.938 57.5787 104.425C57.7287 103.94 57.9008 103.27 58.0619 102.478C58.704 99.3128 59.58 94.6809 59.7941 94.408C62.0337 91.5332 63.7438 89.3177 63.7063 89.2937C63.5893 89.2216 63.4702 89.1998 63.351 89.226C63.2319 89.2522 63.1348 89.3242 63.0598 89.4399C62.9892 89.5512 62.9693 89.6647 62.998 89.7826C63.0267 89.9005 63.0995 89.9944 63.2164 90.0664C63.2584 90.0926 61.5527 92.2994 59.3263 95.1567C59.1961 95.3292 58.704 97.942 58.2208 100.546C58.0597 101.415 57.8986 102.281 57.753 103.056C57.6846 103.574 57.5522 104.045 57.0932 104.224C54.944 104.953 51.237 105.761 52.1527 108.341C53.79 112.739 54.719 118.565 49.6836 120.833C49.8469 120.979 49.9947 120.818 50.1845 120.68C50.2838 120.615 50.3103 120.552 50.2639 120.495H50.2617Z" fill="currentColor"/>
<path d="M66.351 96.2878L64.4754 97.8354C63.9944 98.2327 62.4167 105.491 61.512 108.258C61.3311 108.811 61.1766 109.186 61.0618 109.289C60.7088 110.686 58.6589 110.328 58.4118 111.576C57.3725 118.585 51.7766 122.117 45.446 122.811L44.0625 124.654C44.0625 124.654 44.6252 124.16 45.5652 123.337C45.9734 123.089 46.3816 122.818 47.2245 122.672C53.8265 122.473 57.6042 117.025 59.3297 111.218C59.4775 111.057 59.9365 110.878 60.3513 110.836C60.6867 110.764 60.9714 110.24 61.2472 109.664C61.8231 109.112 63.8642 98.8243 64.332 98.4139L65.8346 97.0977L66.3488 96.2856L66.351 96.2878Z" fill="currentColor"/>
<path d="M72.5234 102.117C72.6933 104.012 72.7066 103.905 72.5963 102.104C72.636 103.789 72.5874 103.9 72.5234 102.117Z" fill="currentColor"/>
<path d="M71.3422 90.2193C71.3312 89.929 70.8832 90.9157 71.1149 92.3454C71.2319 93.0592 71.3643 93.8952 71.5055 94.788C71.7416 96.2767 71.8607 98.2259 71.9181 100.158C71.9755 102.092 71.9689 104.01 71.3621 102.29C71.938 106.872 71.9093 107.815 70.4287 102.528C71.9931 107.704 72.0196 107.59 70.742 102.443C71.9799 107.32 71.9225 107.215 70.5787 102.48C71.8078 107.125 71.8299 106.152 71.3952 102.271C71.8541 103.235 71.8563 101.293 71.7968 99.3392C71.7372 97.3855 71.6158 95.421 71.3775 93.9192C71.2363 93.0177 71.1017 92.1773 70.9847 91.457C71.0245 90.6515 71.4503 89.857 71.7261 89.8155C71.1149 89.4095 70.7486 89.8919 70.4066 90.5118C70.0447 90.8567 69.7049 91.3413 69.3055 91.6775C69.0628 92.2581 67.5513 95.5563 67.2755 96.2046C66.4503 98.1495 65.625 100.079 65.625 100.079C65.625 100.079 66.5451 98.2172 67.4829 96.3531C67.7963 95.731 69.3453 92.4633 69.6299 91.911C70.2764 90.8065 71.2451 89.9443 71.3422 90.2193Z" fill="currentColor"/>
<path d="M62.8773 110.507C68.6761 111.592 68.6188 111.487 63.0141 109.939C68.4996 111.395 68.6541 110.214 65.6487 105.336C69.1417 106.696 69.4749 104.356 69.8081 102.018C70.4723 97.3445 71.132 92.682 71.0658 92.6907C70.929 92.7103 70.8231 92.7671 70.7503 92.8653C70.6753 92.9635 70.6488 93.0792 70.6665 93.2146C70.6841 93.3433 70.7437 93.4438 70.8408 93.5158C70.9401 93.5878 71.057 93.614 71.1916 93.5944C71.2247 93.59 71.0769 94.7469 70.8364 96.4844C70.5958 98.222 70.2627 100.54 69.8258 102.559C69.5941 105.172 69.2565 107.486 65.0441 106.01C68.76 110.943 68.5989 112.087 62.7383 111.277C68.685 111.972 68.7114 111.86 62.8729 110.505L62.8773 110.507Z" fill="currentColor"/>
<path d="M76.6051 91.8906C76.6051 91.8906 75.5349 95.6102 74.2485 100.072C73.6064 102.303 72.9091 104.719 71.4219 102.294C71.6271 109.181 71.038 111.226 62.6641 112.776C70.1796 114.201 69.9126 115.131 64.6764 118.886C66.4218 117.635 67.7414 116.96 68.6858 116.808C69.778 116.764 70.4907 117.242 69.2727 116.995C70.034 117.781 70.579 118.486 70.1553 119.202C70.9762 119.837 70.8283 120.483 70.1156 121.173C69.5772 121.817 68.4739 122.507 66.7594 123.266C67.8296 122.941 68.7431 122.653 69.4845 122.385C70.2259 122.116 70.7952 121.863 70.6452 121.784C72.2494 121.088 72.5627 120.558 70.4047 119.922C71.8191 119.444 71.7021 119.065 70.2701 118.615C71.0115 118.148 70.44 117.613 69.7052 116.987C70.6628 117.661 71.4594 118.244 70.3672 118.761C72.3354 119.211 72.4171 119.593 70.4775 120.084C73.004 120.331 73.5093 120.684 71.0887 121.784C73.4321 121.254 72.8473 121.472 70.8548 121.983C71.8411 121.791 71.4175 121.893 70.462 122.029C69.8001 122.059 68.6063 122.123 67.1544 122.169C68.6063 122.123 69.8111 122.064 70.4731 122.035C71.4462 121.9 71.8765 121.793 70.8614 121.981C72.9886 121.439 73.6704 121.191 71.1042 121.719C73.8337 120.47 73.3151 119.997 70.4444 119.495C72.9886 119.049 73.1783 118.576 70.5371 117.746C72.7723 117.305 72.1765 116.506 70.7026 115.323C72.2185 116.46 72.854 117.211 70.5724 117.478C73.335 118.285 73.1783 118.606 70.4289 118.656C73.7564 119.254 74.4934 119.58 70.8283 120.241C74.5309 119.623 73.8337 119.34 70.4378 118.787C73.474 118.783 73.8116 118.51 70.6209 117.742C73.6042 117.478 73.057 116.718 70.9034 115.288C73.1055 116.642 73.6947 117.314 70.6783 117.296C73.9948 118.084 73.7079 118.181 70.504 117.702C74.2529 118.514 75.0848 118.752 70.7555 118.532C75.301 118.333 74.681 117.678 70.8945 115.83C74.6435 116.797 75.226 116.57 71.7485 114.16C75.5857 115.402 75.365 114.461 73.3041 111.641C75.4908 114.452 75.813 115.225 72.342 113.169C75.8681 115.701 75.6011 115.406 72.4965 112.691C76.038 115.284 76.7419 115.454 73.8271 111.547C77.5981 114.603 77.7503 113.581 76.7154 109.421C78.2887 113.394 78.6749 114.227 77.1303 109.558C79.2111 114.404 79.3589 113.745 78.7521 108.886C80.279 113.996 81.0513 114.906 83.9309 109.685C82.8409 114.937 83.8581 114.057 86.6097 110.659C84.028 113.811 83.1542 114.435 84.4649 109.794C81.7663 114.164 81.2521 113.271 80.7799 108.703C80.4688 112.813 80.204 113.247 79.3677 108.923C79.584 113.103 79.2331 112.523 78.1453 108.954C78.6462 112.427 78.2291 112.021 77.0067 109.238C77.5738 111.145 77.3355 110.674 76.7397 109.12C76.8412 109.231 76.7993 108.229 76.9582 107.09C77.117 105.95 77.4789 104.678 77.9511 103.174C76.2543 104.518 76.3514 102.185 76.4374 100.109C76.6095 95.9572 76.7375 92.8445 76.7375 92.8445L76.6029 91.895L76.6051 91.8906Z" fill="currentColor"/>
<path d="M61.4339 77.0899C61.4449 76.9306 61.6214 76.8236 61.8222 76.7363C62.023 76.6512 62.2481 76.5857 62.4996 76.5486C62.3893 76.5661 62.1885 77.2493 62.1466 77.3606C61.8972 78.0133 61.7803 78.6616 61.7273 79.3121C62.1642 80.3533 62.8063 81.246 63.5897 81.9664C63.5897 81.8681 63.6294 81.7634 63.7066 81.6411C63.6117 81.5123 63.6779 81.3181 63.775 81.1238C63.8743 80.9295 64.0045 80.7374 64.1722 80.5475C64.0994 80.6305 64.3884 81.2831 64.4304 81.3945C64.6709 82.0777 65.0173 82.6649 65.4167 83.2128C66.3788 83.6842 67.4357 83.9549 68.5213 83.9964C68.4618 83.9222 68.4265 83.8174 68.4066 83.6821C68.2499 83.645 68.1727 83.4529 68.122 83.2411C68.0712 83.0294 68.0469 82.8002 68.0513 82.547C68.0491 82.6561 68.6957 82.9727 68.7994 83.0316C69.4062 83.3896 70.0306 83.6144 70.6683 83.7781C71.0214 83.6908 71.3722 83.5795 71.7186 83.4398C72.3894 83.1691 72.9985 82.8155 73.5435 82.3964C73.4751 82.3658 73.4045 82.32 73.3316 82.2523C73.1882 82.3222 73.0029 82.2239 72.8285 82.0952C72.652 81.9664 72.4843 81.8048 72.3232 81.6084C72.3916 81.6935 73.0933 81.5254 73.2103 81.5036C73.8458 81.401 74.4217 81.2068 74.9689 80.9601C75.6309 80.087 76.0943 79.0829 76.3304 78.0198C76.284 78.0242 76.2333 78.0264 76.1781 78.0242C76.1141 78.1704 75.9089 78.2119 75.6905 78.225C75.472 78.2381 75.2381 78.2228 74.9888 78.1726C75.0969 78.1945 75.525 77.6204 75.6022 77.5287C75.9773 77.0987 76.2664 76.6425 76.5091 76.1688C76.4848 75.3328 76.3171 74.4858 75.9972 73.6629C75.9354 73.9816 75.8802 74.3003 75.8273 74.619C75.5316 74.5819 75.2293 74.4684 74.8277 74.2938C75.0505 74.1715 75.2712 74.0427 75.4919 73.9118C75.7191 73.7786 75.9464 73.6411 75.931 73.6673C75.9508 73.6542 75.9685 73.6433 75.9861 73.6302C75.9729 73.5953 75.9597 73.5603 75.9464 73.5232C75.8626 73.318 75.7699 73.1216 75.6706 72.9295C75.6529 72.9448 75.6375 72.9579 75.6198 72.9731C75.6662 73.1259 75.536 73.2875 75.3771 73.4359C75.2183 73.5843 75.0285 73.7219 74.8056 73.8419C74.9027 73.7895 74.8564 73.0779 74.8564 72.96C74.863 72.4427 74.8034 71.9538 74.6997 71.4779C74.1238 70.8034 73.4376 70.2424 72.6807 69.8081C72.8308 70.07 72.983 70.3319 73.1375 70.5895C72.8859 70.7489 72.5814 70.8536 72.16 70.9781C72.2504 70.7423 72.3387 70.5044 72.4225 70.2643C72.5086 70.0176 72.5946 69.7688 72.6013 69.7971C72.6035 69.7862 72.6079 69.7775 72.6101 69.7688C72.385 69.6422 72.1533 69.5287 71.9172 69.4261C71.915 69.4392 71.9128 69.4523 71.9106 69.4654C72.0452 69.5527 72.0496 69.76 72.0254 69.9761C72.0011 70.1922 71.9437 70.4171 71.851 70.6506C71.8908 70.548 71.3943 70.0329 71.3171 69.9412C70.9905 69.5439 70.6286 69.21 70.2447 68.9153C69.3687 68.7516 68.4573 68.7385 67.5505 68.8913C67.8528 69.0048 68.1573 69.1139 68.4618 69.2187C68.3735 69.5003 68.208 69.7753 67.9653 70.1355C67.8814 69.8976 67.7932 69.6596 67.7005 69.4217C67.6056 69.1772 67.5085 68.9327 67.535 68.9502C67.5262 68.9306 67.5196 68.9131 67.5107 68.8935C67.257 68.9371 67.0032 68.9939 66.7495 69.0659C66.7627 69.0877 66.7759 69.1096 66.7892 69.1336C66.9481 69.1161 67.0871 69.2711 67.2084 69.4523C67.3298 69.6334 67.4313 69.8408 67.5129 70.0809C67.4776 69.9761 66.7605 69.8997 66.6436 69.8779C66.0897 69.7731 65.5535 69.7535 65.0261 69.7797C63.9891 70.3625 63.1307 71.1592 62.4886 72.0913C62.5393 72.1022 62.5945 72.1197 62.6519 72.1415C62.7622 72.0258 62.9696 72.0564 63.1793 72.1175C63.3889 72.1786 63.6029 72.2725 63.8214 72.4034C63.7265 72.3467 63.1263 72.7418 63.0226 72.8007C62.4665 73.1085 61.9943 73.4839 61.5685 73.8943C61.2022 74.9399 61.0654 76.064 61.1889 77.1925C61.2507 77.1423 61.3324 77.103 61.4383 77.0703L61.4339 77.0899ZM67.652 83.1036C67.6564 83.3656 67.663 83.6275 67.6453 83.6035C67.6453 83.634 67.6497 83.6646 67.6497 83.6908C67.3916 83.4681 67.129 83.2521 66.8664 83.0381C67.0474 82.8046 67.2967 82.6016 67.6497 82.344C67.6475 82.595 67.6497 82.8482 67.6497 83.1036H67.652ZM72.3806 82.2938C72.5527 82.4924 72.7293 82.6889 72.7006 82.6801C72.7226 82.702 72.7425 82.7238 72.7601 82.7435C72.4181 82.7369 72.0761 82.7413 71.7363 82.7435C71.7231 82.4488 71.7826 82.1344 71.8863 81.7132C72.0474 81.9074 72.2129 82.1017 72.3806 82.2938ZM73.976 80.469C73.4177 80.8771 72.8263 81.2308 72.1533 81.4709C72.1533 81.4687 72.1511 81.4665 72.1489 81.4643C72.1026 81.3901 72.054 81.3159 72.0033 81.2439C72.0342 81.1194 72.0695 80.9863 72.1026 80.8422C71.8974 80.5606 71.7032 80.2725 71.5156 79.9822C72.3343 80.1459 73.1529 80.314 73.9737 80.4711L73.976 80.469ZM75.4764 78.6681C75.7368 78.7096 75.9994 78.7489 75.9729 78.762C76.0038 78.7664 76.0325 78.7685 76.059 78.7729C75.7942 78.9868 75.5338 79.2051 75.2756 79.4234C75.0748 79.2073 74.916 78.9279 74.7196 78.5372C74.9689 78.583 75.2227 78.6288 75.4764 78.6681ZM70.0593 82.7194C69.3665 82.6758 68.6824 82.571 68.0116 82.3287C68.0116 82.3265 68.0116 82.3244 68.0116 82.32C68.0249 82.2349 68.0337 82.1454 68.0447 82.0581C68.1506 81.9817 68.2632 81.9009 68.3823 81.8136C68.4088 81.4665 68.4463 81.1238 68.4927 80.7811C69.0156 81.4272 69.5319 82.0777 70.0593 82.7194ZM74.7659 78.1814C74.7659 78.1814 74.7615 78.1814 74.7571 78.1792C74.6732 78.153 74.5872 78.1268 74.5011 78.1028C74.4437 77.9871 74.3842 77.8627 74.3158 77.7317C73.976 77.6466 73.6428 77.5483 73.3118 77.4436C74.0444 77.0485 74.7814 76.6577 75.5095 76.2561C75.3462 76.9219 75.1234 77.5702 74.7637 78.1835L74.7659 78.1814ZM65.5954 81.9533C65.0923 81.4796 64.6378 80.9645 64.2803 80.3511C64.2803 80.3511 64.2847 80.3467 64.2869 80.3467C64.3531 80.2878 64.4171 80.2288 64.4811 80.1655C64.6113 80.1743 64.7503 80.1852 64.8982 80.1939C65.1431 79.9451 65.3946 79.705 65.6528 79.4736C65.6329 80.3009 65.6065 81.126 65.5932 81.9533H65.5954ZM63.5014 80.7156C63.3337 80.9186 63.1682 81.1238 63.1726 81.0932C63.155 81.1173 63.1373 81.1413 63.1197 81.1631C63.0667 80.8291 63.0027 80.4973 62.9409 80.1655C63.23 80.1022 63.5544 80.1044 63.9913 80.1328C63.8258 80.3227 63.6625 80.517 63.4992 80.7156H63.5014ZM70.0593 75.9811C69.9865 76.0553 70.3109 76.529 70.2403 76.6032C70.2358 76.6075 70.2292 76.6097 70.2182 76.6075C70.3219 76.6512 70.4278 76.6883 70.5337 76.7167C70.6065 76.7756 70.5778 76.7713 70.4763 76.7232C70.5337 76.7756 70.5095 76.7756 70.441 76.7494C70.4565 76.7734 70.43 76.7734 70.3991 76.7713C70.3793 76.7734 70.3528 76.7756 70.3263 76.7756C70.2204 76.7778 70.1167 76.7844 70.0108 76.7931C69.9071 76.8018 69.8475 77.3715 69.746 77.3868C69.7394 77.3868 69.7327 77.3846 69.7261 77.3781C69.7769 77.4785 69.8342 77.5745 69.8982 77.664C69.9159 77.7557 69.896 77.7339 69.8475 77.6313C69.8585 77.7077 69.8387 77.6902 69.8033 77.6313C69.7989 77.6597 69.7791 77.6422 69.757 77.6204C69.7394 77.6095 69.7195 77.5942 69.6974 77.5767C69.6158 77.5112 69.5319 77.4479 69.4437 77.389C69.3576 77.3301 68.9428 77.7295 68.8545 77.6749C68.8501 77.6706 68.8457 77.664 68.8457 77.6553C68.8192 77.7644 68.8016 77.8736 68.7905 77.9827C68.7442 78.0635 68.742 78.0351 68.7729 77.926C68.731 77.9915 68.7265 77.9653 68.7398 77.8976C68.7177 77.9151 68.7133 77.891 68.7111 77.8605C68.7045 77.8408 68.7001 77.8146 68.6934 77.7906C68.6736 77.688 68.6493 77.5876 68.6228 77.485C68.5964 77.3846 68.0182 77.4283 67.9873 77.3301C67.9873 77.3235 67.9873 77.317 67.994 77.3104C67.9035 77.3759 67.8174 77.4501 67.7402 77.5265C67.652 77.5593 67.6696 77.5352 67.7623 77.4719C67.6873 77.496 67.7005 77.4719 67.7557 77.4283C67.727 77.4283 67.7402 77.4065 67.7579 77.3803C67.7667 77.3606 67.7777 77.3388 67.791 77.3148C67.8417 77.2231 67.8903 77.1314 67.9344 77.0354C67.9785 76.9415 67.5085 76.6075 67.5482 76.5115C67.5504 76.505 67.5571 76.5028 67.5659 76.4984C67.4534 76.4919 67.3408 76.494 67.2305 76.5028C67.14 76.4722 67.1687 76.4657 67.2813 76.4766C67.2084 76.4482 67.2327 76.4395 67.3033 76.4395C67.2813 76.422 67.3055 76.4133 67.3364 76.4045C67.3541 76.3936 67.3805 76.3849 67.4048 76.3762C67.5019 76.3391 67.599 76.2976 67.6961 76.2539C67.791 76.2103 67.6475 75.6537 67.7402 75.6078C67.7468 75.6056 67.7535 75.6078 67.7623 75.6078C67.6806 75.5314 67.5946 75.4616 67.5019 75.3983C67.4534 75.3175 67.4798 75.3306 67.5593 75.4114C67.5218 75.3437 67.546 75.3524 67.6012 75.3983C67.5968 75.3699 67.6211 75.3786 67.6497 75.3917C67.6696 75.3961 67.6961 75.4048 67.7204 75.4135C67.8196 75.4463 67.9212 75.4768 68.0227 75.5052C68.1242 75.5314 68.3757 75.0163 68.4772 75.0381C68.4838 75.0381 68.4882 75.0446 68.4927 75.0534C68.4794 74.942 68.4596 74.8351 68.4309 74.7281C68.4463 74.6343 68.4573 74.6626 68.4662 74.774C68.4816 74.6976 68.4949 74.7216 68.5081 74.7893C68.5213 74.7652 68.5346 74.7871 68.5478 74.8154C68.5611 74.8329 68.5743 74.8547 68.5875 74.8766C68.6427 74.9661 68.7001 75.0534 68.7596 75.1385C68.8192 75.2236 69.3488 74.9879 69.4106 75.0687C69.415 75.073 69.415 75.0818 69.4106 75.0905C69.4724 74.9966 69.5275 74.9006 69.5761 74.8002C69.6489 74.7391 69.6379 74.7674 69.5739 74.8591C69.6356 74.8111 69.6312 74.8373 69.5959 74.8984C69.6224 74.8875 69.618 74.9137 69.6114 74.9442C69.6114 74.9661 69.607 74.9901 69.6026 75.0163C69.5871 75.1189 69.5739 75.2215 69.565 75.3262C69.5562 75.4288 70.1145 75.586 70.1101 75.6886C70.1101 75.6951 70.1057 75.6995 70.0968 75.706C70.2049 75.6755 70.3087 75.634 70.4102 75.5882C70.505 75.5882 70.4808 75.6034 70.3704 75.6318C70.4477 75.634 70.4278 75.6515 70.3616 75.6755C70.3881 75.6842 70.3682 75.7017 70.344 75.7191C70.3307 75.7344 70.3109 75.7519 70.291 75.7693C70.2116 75.837 70.1343 75.909 70.0593 75.9833V75.9811ZM74.6291 73.9991C74.6291 73.9991 74.6247 73.9991 74.6225 74.0013C74.5408 74.034 74.4592 74.0689 74.3776 74.1039C74.2584 74.0515 74.1326 73.9947 73.9936 73.9358C73.6759 74.0864 73.3581 74.2261 73.036 74.3571C73.3405 73.5865 73.6516 72.8182 73.9495 72.0476C74.2584 72.661 74.5077 73.3006 74.6313 73.9969L74.6291 73.9991ZM62.7159 76.4678C62.8041 76.4657 62.8924 76.4591 62.9829 76.4547C63.0777 76.5442 63.177 76.6403 63.2852 76.7407C63.636 76.7058 63.9846 76.6818 64.3311 76.6687C63.7794 77.2886 63.2212 77.9063 62.6739 78.5306C62.5967 77.8496 62.5813 77.1642 62.707 76.4678C62.7093 76.4678 62.7115 76.4678 62.7159 76.4678ZM71.8091 70.882C71.8091 70.882 71.8069 70.8864 71.8047 70.8886C71.7628 70.965 71.7231 71.0435 71.6833 71.1243C71.5576 71.1592 71.4252 71.1985 71.2817 71.24C71.1361 71.5565 70.9839 71.8665 70.8228 72.1721C70.5558 71.3884 70.2954 70.6026 70.0218 69.8212C70.6573 70.0962 71.2641 70.4258 71.8113 70.882H71.8091ZM63.5301 71.7966C63.2984 71.67 63.0667 71.5434 63.0954 71.5412C63.0667 71.5281 63.0424 71.515 63.016 71.5019C63.3403 71.3906 63.6581 71.2727 63.978 71.1549C64.0928 71.4277 64.1457 71.7442 64.1943 72.1742C63.9758 72.0455 63.753 71.9188 63.5279 71.7944L63.5301 71.7966ZM65.5623 70.6113C66.2265 70.4171 66.9061 70.2839 67.6211 70.2861C67.6211 70.2883 67.6211 70.2905 67.6211 70.2948C67.6387 70.38 67.6608 70.4651 67.6806 70.5524C67.6078 70.6594 67.5306 70.7729 67.4467 70.8973C67.5416 71.2313 67.6255 71.5674 67.7005 71.9036C66.9878 71.4735 66.2773 71.037 65.5579 70.6135L65.5623 70.6113ZM62.6607 74.0515C63.0447 73.4796 63.4771 72.947 64.0266 72.4929C64.0266 72.4929 64.031 72.4973 64.0332 72.4973C64.1016 72.5519 64.1744 72.6043 64.2472 72.6566C64.2605 72.7854 64.2759 72.9208 64.2914 73.0692C64.5826 73.2656 64.8651 73.4686 65.1387 73.6782C64.3134 73.8026 63.4838 73.9205 62.6607 74.0515ZM61.873 76.2517C61.6126 76.302 61.3522 76.3522 61.3743 76.3325C61.3434 76.3391 61.3147 76.3456 61.2882 76.3522C61.4648 76.0618 61.6325 75.7672 61.8001 75.4747C62.0649 75.61 62.3099 75.8195 62.6276 76.1164C62.3761 76.1579 62.1245 76.2015 61.873 76.2496V76.2517Z" fill="currentColor"/>
</svg>
