<svg width="143" height="143" viewBox="0 0 143 143" fill="none" xmlns="http://www.w3.org/2000/svg">
<path d="M30.5987 94.4913L25.3084 90.024C23.2249 88.2641 19.8354 85.4329 19.3456 85.108C19.0968 85.0693 18.8753 84.9378 18.7004 84.7289C18.5099 84.5046 18.4244 84.2377 18.4555 83.9631C18.4827 83.6846 18.6148 83.4487 18.8481 83.2553C19.0813 83.058 19.3378 82.9729 19.6099 82.9962C19.882 83.0194 20.1191 83.1509 20.3135 83.3829C20.4806 83.5802 20.57 83.8007 20.5778 84.0327C20.986 84.5665 23.9324 87.6414 25.7709 89.5328L30.5948 94.4952L30.5987 94.4913ZM19.5283 83.6692C19.4739 83.6692 19.3961 83.6846 19.2912 83.7736C19.1668 83.878 19.1435 83.9708 19.1396 84.0327C19.1318 84.1256 19.159 84.2068 19.229 84.2919C19.3301 84.4118 19.4272 84.435 19.4894 84.4389C19.5711 84.4466 19.6643 84.4543 21.0909 85.6147C19.8859 84.3112 19.8937 84.2107 19.9015 84.0985C19.9053 84.0366 19.9015 83.9399 19.7965 83.82C19.6954 83.7001 19.6099 83.6769 19.5555 83.673C19.5477 83.673 19.54 83.673 19.5283 83.673V83.6692Z" fill="currentColor"/>
<path d="M24.734 80.7681C24.7029 80.7681 24.6718 80.7681 24.6407 80.7642C24.3609 80.741 24.1121 80.6056 23.9177 80.3774C23.7415 80.1686 24.8947 78.9876 27.3772 76.8345C29.4296 75.0553 32.0884 72.7733 34.6577 70.5686C38.1328 67.5865 41.7167 64.5077 42.2259 64.0165C42.2764 63.7922 42.4008 63.5911 42.599 63.4286C42.8322 63.2314 43.0888 63.1463 43.3609 63.1695L43.5863 63.1888L43.6563 63.4054C43.7107 63.573 42.945 64.3427 41.359 65.7145C40.0102 66.8787 38.1755 68.4568 36.232 70.1277C32.1583 73.6242 26.6814 78.3314 25.6941 79.2828C25.7719 79.4453 25.8068 79.6155 25.7952 79.7973C25.7758 80.0758 25.6436 80.3194 25.4181 80.5089C25.2082 80.683 24.9789 80.772 24.734 80.772V80.7681ZM24.7146 80.0912C24.7807 80.0912 24.8701 80.0835 24.9828 79.9907C25.0683 79.9172 25.1111 79.8437 25.1188 79.7509C25.1188 79.7431 25.1188 79.7354 25.1188 79.7277C24.9556 79.8746 24.8234 79.9945 24.7185 80.0951L24.7146 80.0912ZM22.1919 77.523C22.1258 77.523 22.083 77.4959 22.0325 77.465L21.8304 77.3335L21.8809 77.0859C22.0364 76.4555 22.0403 76.1151 22.0169 75.9449C22.0053 75.8482 21.9975 75.6896 21.9859 75.4189C21.9703 75.0515 21.9392 74.1889 21.8498 74.0149C21.6555 73.7905 21.4067 73.6629 21.1074 73.6552C20.7886 73.6474 20.4932 73.7635 20.19 74.0149C19.9685 74.2005 19.8246 74.4403 19.7508 74.7498C19.673 75.0708 19.6886 75.3802 19.7935 75.6974L19.8985 76.0107L18.161 76.6373L18.0444 76.3162C17.8072 75.6587 17.7761 74.9818 17.9511 74.2972C18.0405 73.6706 17.3136 65.4747 16.8005 60.1062L16.3457 55.3101L17.473 59.994C18.4642 64.1132 20.1512 70.7195 20.6759 71.8063C21.1268 71.7367 21.5699 71.7793 21.9975 71.9301C22.4873 72.1042 22.9226 72.4136 23.2919 72.8507C23.5523 73.1601 23.6456 73.9104 23.7428 74.9354C23.7506 74.9973 23.7545 75.0592 23.7622 75.1172C25.0605 74.274 29.3985 70.9477 32.963 68.217C37.9812 64.3724 40.4223 62.5236 41.6584 61.6649C41.6311 61.545 41.6584 61.4251 41.7361 61.3323C41.8799 61.1543 42.1015 61.1659 42.3192 61.1776C42.3425 61.1776 42.3658 61.1776 42.393 61.1776C42.8711 60.8952 42.9566 60.9455 43.0732 61.0228L43.2754 61.1505L43.2287 61.4019C43.1393 61.75 42.8361 61.8389 42.5718 61.8544C42.5563 61.866 42.5368 61.8776 42.5213 61.8892C42.5874 61.9859 42.6768 62.102 42.7934 62.2335L43.0188 62.4926L38.9646 65.8963L38.743 65.641C38.6925 65.583 38.6031 65.4824 38.5487 65.3587C37.1688 66.2947 33.3711 69.2149 30.2303 71.6323C23.6068 76.7262 22.5495 77.5153 22.1919 77.5153V77.523ZM21.0802 72.9783C21.0802 72.9783 21.1151 72.9783 21.1346 72.9783C21.6321 72.9938 22.0558 73.2026 22.394 73.601C22.5806 73.8253 22.6311 74.3127 22.67 75.3957C22.6778 75.5891 22.6855 75.7863 22.6933 75.8521C22.7166 76.0339 22.7166 76.2505 22.6855 76.5019C22.8877 76.3588 23.1325 76.1809 23.4163 75.972C23.4007 75.9681 23.3813 75.9604 23.3658 75.9526L23.187 75.883L23.1442 75.6858C23.117 75.5311 23.0937 75.2835 23.0665 74.9973C23.0237 74.5409 22.9188 73.4695 22.771 73.28C22.4756 72.9319 22.1491 72.6959 21.7721 72.5644C21.3989 72.4329 21.0219 72.4136 20.6176 72.5025C20.2133 72.5954 20.0073 72.6418 18.3398 66.2444C18.1921 65.672 18.0444 65.0957 17.9005 64.5387C18.2854 68.774 18.7285 74.011 18.6158 74.4519C18.503 74.8967 18.4953 75.3261 18.5924 75.7554L19.0667 75.5852C19.0045 75.2564 19.0122 74.9199 19.0939 74.5912C19.2027 74.1425 19.4243 73.7751 19.7586 73.4966C20.1706 73.1523 20.6137 72.9783 21.0763 72.9783H21.0802ZM39.0696 64.4188C39.0696 64.4188 39.0773 64.4188 39.0812 64.4227L39.2561 64.4807L39.3106 64.6663C39.3106 64.6663 39.3183 64.7011 39.3222 64.7166L42.0626 62.4191C42.0276 62.3727 41.9926 62.3263 41.9615 62.2838C41.2541 62.7866 40.2357 63.5408 39.0696 64.4227V64.4188Z" fill="currentColor"/>
<path d="M29.9511 76.4092C29.92 76.4092 29.8927 76.4092 29.8617 76.4054C29.5818 76.3822 29.333 76.2468 29.1387 76.0186C28.9624 75.8097 30.1143 74.63 32.5943 72.4795C34.6428 70.7003 37.3015 68.4222 39.8709 66.2136C43.3459 63.2315 46.9376 60.1489 47.4468 59.6577C47.4973 59.4333 47.6217 59.2361 47.8199 59.0698C48.0532 58.8764 48.3136 58.7874 48.5818 58.8106L48.8073 58.83L48.8772 59.0466C48.9317 59.2142 48.1672 59.9839 46.5839 61.3556C45.2389 62.5199 43.4042 64.0979 41.4568 65.765C37.7874 68.9172 32.9752 73.0481 31.3349 74.5333C33.465 74.3864 39.3656 73.8023 43.4625 73.3769L56.1189 72.0579L43.5519 74.0499C38.6737 74.8234 31.3076 76.0147 30.5846 76.1965C30.3942 76.3396 30.1765 76.4131 29.9511 76.4131V76.4092ZM29.9355 75.7324C29.9938 75.7324 30.0871 75.7246 30.1998 75.6318C30.2542 75.5892 30.3203 75.5312 32.8625 75.0942C31.4281 75.2102 30.8023 75.2295 30.5108 75.2102C30.2698 75.4229 30.0754 75.6009 29.9355 75.7324ZM27.405 73.1603C27.3428 73.1603 27.3001 73.1332 27.2534 73.1061L27.0513 72.9746L27.1057 72.7271C27.2612 72.0966 27.2651 71.7562 27.2418 71.5861C27.2301 71.4894 27.2223 71.3308 27.2107 71.06C27.1951 70.6926 27.164 69.8301 27.0785 69.656C26.8841 69.4317 26.6354 69.304 26.3361 69.2963C26.0096 69.2886 25.7219 69.4046 25.4226 69.656C25.201 69.8417 25.0572 70.0815 24.9834 70.3909C24.9056 70.7119 24.9212 71.0213 25.0261 71.3385L25.1311 71.6518L23.3936 72.2784L23.2769 71.9574C23.0398 71.2998 23.0087 70.6191 23.1837 69.9306C23.3586 69.2421 23.7123 68.6736 24.2293 68.2404C24.688 67.8575 25.1816 67.6022 25.6947 67.4862C26.2195 67.3701 26.7364 67.3972 27.2262 67.5712C27.716 67.7453 28.1513 68.0547 28.5206 68.4918C28.7849 68.8012 28.8743 69.5516 28.9715 70.5765C28.9754 70.6307 28.9832 70.681 28.9871 70.7313C30.2737 69.8068 34.4406 66.3219 37.869 63.4559C47.0581 55.7744 47.1086 55.8092 47.4468 56.0142L47.6567 56.1418L47.6062 56.401C47.5012 56.811 47.5168 57.0353 47.5478 57.1552C47.5789 57.279 47.6878 57.5033 48.0182 57.8823L48.2436 58.1415L46.8287 59.3482L46.6072 59.093C46.5566 59.035 46.475 58.9383 46.4167 58.8222C44.8891 59.8781 40.3956 63.3747 36.6796 66.2678C28.9288 72.2977 27.7743 73.1719 27.405 73.1719V73.1603ZM26.3011 68.6194C26.3011 68.6194 26.3361 68.6194 26.3555 68.6194C26.8569 68.6349 27.2806 68.8438 27.6149 69.246C27.8015 69.4703 27.852 69.9577 27.8909 71.0407C27.8987 71.2341 27.9065 71.4313 27.9142 71.4971C27.9375 71.675 27.9375 71.8877 27.9103 72.1314C28.1047 71.9922 28.3457 71.8143 28.6217 71.6093C28.6139 71.6093 28.6061 71.6015 28.5945 71.6015L28.4079 71.5358L28.3651 71.3346C28.3379 71.1799 28.3146 70.9324 28.2874 70.6462C28.2446 70.1898 28.1397 69.1184 27.992 68.9327C27.7004 68.5885 27.3661 68.3487 26.993 68.2172C26.6198 68.0857 26.2428 68.0625 25.8385 68.1553C25.4304 68.2481 25.0339 68.4531 24.6607 68.7664C24.2487 69.1106 23.9805 69.5477 23.8367 70.1047C23.724 70.5495 23.7162 70.9788 23.8134 71.4081L24.2876 71.2379C24.2254 70.9092 24.2332 70.5727 24.3148 70.2439C24.4236 69.7952 24.6452 69.4278 24.9795 69.1493C25.3915 68.8051 25.8346 68.631 26.3011 68.631V68.6194ZM46.8404 56.9657C45.4527 58.0022 41.6861 61.1468 38.3044 63.978C37.2704 64.8406 36.3531 65.6103 35.5329 66.291C35.7778 66.1015 36.0188 65.912 36.2598 65.7263C46.5372 57.7276 46.6227 57.7547 46.9415 57.863L47.1164 57.921L47.1708 58.1067C47.1708 58.1067 47.1786 58.1376 47.1825 58.1492L47.2835 58.0603C47.0736 57.7856 46.9415 57.5458 46.887 57.3254C46.856 57.2171 46.8404 57.0972 46.8404 56.9657Z" fill="currentColor"/>
<path d="M34.3319 72.7541C34.3008 72.7541 34.2697 72.7541 34.2386 72.7502C33.9588 72.727 33.71 72.5916 33.5156 72.3634C33.3394 72.1545 34.4926 70.9736 36.9751 68.8205C39.0275 67.0413 41.6863 64.7593 44.2556 62.5507C47.7268 59.5686 51.3146 56.4937 51.8238 55.9986C51.8743 55.7743 51.9987 55.5732 52.1969 55.4107C52.4302 55.2173 52.6867 55.1284 52.9588 55.1516L53.1842 55.1709L53.2542 55.3875C53.3086 55.5551 52.5442 56.3248 50.9608 57.6966C49.6159 58.8608 47.7812 60.4389 45.8338 62.1059C41.7601 65.6063 36.2793 70.3096 35.292 71.2649C35.3698 71.4274 35.4048 71.5976 35.3931 71.7794C35.3737 72.0579 35.2415 72.3015 35.016 72.491C34.8061 72.6651 34.5768 72.7541 34.3319 72.7541ZM34.3125 72.0772C34.3747 72.0811 34.468 72.0695 34.5807 71.9766C34.6662 71.9031 34.709 71.8297 34.7167 71.7368C34.7167 71.7291 34.7167 71.7214 34.7167 71.7136C34.5535 71.8606 34.4213 71.9805 34.3164 72.0811L34.3125 72.0772ZM25.5977 67.2966L29.1543 64.3338L68.2156 41.4595L56.084 51.5777L25.5977 67.2966ZM61.5065 46.1744L35.1715 61.5954L55.7342 50.9937L61.5026 46.1744H61.5065Z" fill="currentColor"/>
<path d="M56.1462 104.698C56.0762 104.698 56.0063 104.691 55.9363 104.679C55.6448 104.629 55.4116 104.478 55.2522 104.25C55.0967 104.022 55.0423 103.755 55.0967 103.457C55.1511 103.159 55.2911 102.927 55.5126 102.772C55.7381 102.618 56.0024 102.563 56.3017 102.618C56.5582 102.664 56.7681 102.772 56.9236 102.946C57.5844 103.093 61.8252 103.565 64.4529 103.836L71.3525 104.552L64.4179 104.513C61.6853 104.497 57.2579 104.497 56.6749 104.559C56.5155 104.652 56.3367 104.698 56.1462 104.698ZM56.084 103.275C55.9907 103.275 55.9363 103.302 55.9052 103.325C55.8625 103.356 55.7964 103.414 55.7692 103.573C55.742 103.732 55.7847 103.817 55.8197 103.871C55.8741 103.948 55.948 103.995 56.0568 104.014C56.2123 104.041 56.2978 103.998 56.3522 103.964C56.4183 103.917 56.4999 103.863 58.3385 103.84C56.5738 103.612 56.5155 103.53 56.4455 103.438C56.4105 103.387 56.3445 103.318 56.1851 103.291C56.1462 103.283 56.1151 103.283 56.084 103.283V103.275Z" fill="currentColor"/>
<path d="M50.2885 98.8154L49.993 98.6452C49.3867 98.2933 48.9241 97.7943 48.617 97.16C48.2788 96.6224 42.4288 90.809 38.5689 87.0263L35.1211 83.6458L39.0082 86.5119C42.4249 89.0337 47.9912 93.0137 49.0912 93.5126C49.3944 93.1723 49.7598 92.9209 50.1835 92.7623C50.6694 92.5805 51.2058 92.5418 51.7694 92.6385C52.1698 92.7081 52.7257 93.2264 53.4603 93.9497C53.507 93.9923 53.5497 94.0387 53.5925 94.0773C54.0395 92.5998 55.2173 87.2777 56.1813 82.9071C57.5418 76.7495 58.2181 73.7751 58.6068 72.3247C58.5096 72.2512 58.4513 72.139 58.4513 72.0191C58.4513 71.7909 58.6262 71.6594 58.7973 71.5279C58.8128 71.5163 58.8361 71.5008 58.8556 71.4815C59.0383 70.9593 59.1355 70.9439 59.2754 70.9284L59.5125 70.8975L59.6408 71.1218C59.7963 71.4467 59.6213 71.7058 59.4309 71.8876C59.427 71.907 59.4192 71.9263 59.4153 71.9456C59.528 71.9766 59.6719 72.0075 59.8468 72.0346L60.1889 72.0888L59.2793 77.291L58.945 77.2368C58.8672 77.2252 58.7351 77.202 58.6146 77.144C58.1637 78.7453 57.1414 83.4099 56.294 87.2738C54.1794 96.9241 54.1522 96.9279 53.7752 96.9782L53.5381 97.0092L53.4176 96.7848C53.1299 96.2008 52.9161 95.9416 52.784 95.8217C52.714 95.756 52.6052 95.6399 52.4225 95.4388C52.1737 95.1642 51.5906 94.526 51.4118 94.4487C51.1164 94.3984 50.8482 94.4641 50.6111 94.6498C50.3623 94.8432 50.2107 95.1255 50.1408 95.5084C50.0902 95.7908 50.1369 96.0654 50.2807 96.3516C50.4284 96.6456 50.6383 96.8738 50.9221 97.0517L51.2019 97.2258L50.2729 98.8154H50.2885ZM49.2273 96.8583C49.4294 97.2722 49.6976 97.6048 50.0514 97.8717L50.304 97.4385C50.0436 97.2258 49.8337 96.9627 49.6821 96.6572C49.4761 96.2433 49.4061 95.8179 49.4838 95.3963C49.581 94.8509 49.822 94.4216 50.203 94.1199C50.5955 93.8105 51.0542 93.7022 51.5712 93.7911C51.8588 93.8414 52.2126 94.1856 52.9395 94.9863C53.0677 95.1294 53.2038 95.2764 53.2543 95.3228C53.3904 95.4466 53.5303 95.6129 53.6702 95.8256C53.7324 95.5897 53.8063 95.2957 53.8879 94.9515C53.8724 94.9592 53.8529 94.9631 53.8374 94.9708L53.6547 95.0327L53.4953 94.9089C53.3748 94.8084 53.196 94.6343 52.99 94.4332C52.6596 94.1122 51.8899 93.3579 51.6567 93.3077C51.2136 93.2303 50.7977 93.2612 50.4284 93.3966C50.0552 93.5359 49.7521 93.7602 49.5033 94.0851C49.2506 94.4138 49.1262 94.584 43.7154 90.7471C43.2295 90.4029 42.7437 90.0587 42.2772 89.7222C45.3052 92.7197 49.0329 96.4522 49.2273 96.8583ZM58.5952 76.0185L58.7584 76.1268C58.7584 76.1268 58.7856 76.1461 58.7973 76.1577L59.4114 72.6457C59.3531 72.6341 59.2987 72.6186 59.2482 72.6032C59.0305 73.4386 58.739 74.6686 58.4125 76.0881C58.4163 76.0881 58.4202 76.0881 58.4241 76.0842L58.5952 76.0185ZM57.3319 98.0264C57.2619 98.0264 57.1919 98.0187 57.1181 98.0071C56.8486 97.9606 56.9691 96.3194 57.4796 93.0833C57.8994 90.4106 58.463 86.9605 59.0072 83.6303C59.7418 79.1243 60.4998 74.4675 60.5737 73.7635C60.4648 73.5585 60.4337 73.3265 60.4804 73.0712C60.5348 72.7734 60.6747 72.5413 60.8963 72.3866L61.0829 72.2589L61.2772 72.3788C61.4275 72.4717 61.3381 73.5508 61.009 75.6162C60.7292 77.3722 60.3404 79.7509 59.9323 82.2766C59.0733 87.5639 57.9149 94.6691 57.775 96.0306C57.9382 96.1041 58.0782 96.2163 58.1831 96.3632C58.3464 96.5876 58.4047 96.8622 58.3542 97.1484C58.3036 97.4424 58.152 97.6822 57.9227 97.8446C57.7478 97.9684 57.5495 98.0303 57.3357 98.0303L57.3319 98.0264ZM57.6117 96.7423C57.5806 96.955 57.5573 97.1368 57.5418 97.2799C57.5923 97.2412 57.6545 97.1755 57.6817 97.0324C57.7011 96.9241 57.6817 96.839 57.6273 96.7616C57.6234 96.7539 57.6195 96.75 57.6117 96.7423Z" fill="currentColor"/>
<path d="M51.4696 92.1435L51.1742 91.9733C50.5678 91.6213 50.1053 91.1185 49.7943 90.4803C49.4833 89.8383 49.3862 89.1807 49.5028 88.5193C49.6077 87.9314 49.8215 87.4209 50.1403 87.0032C50.4668 86.5777 50.8788 86.2683 51.3686 86.0865C51.8545 85.9047 52.3909 85.8621 52.9545 85.9627C53.3549 86.0323 53.9107 86.5506 54.6493 87.2739C54.6881 87.3126 54.7231 87.3474 54.7581 87.3822C55.1468 85.8505 56.0875 80.5168 56.861 76.1307C58.9367 64.3725 58.9989 64.3609 59.3915 64.3029L59.6325 64.2681L59.7608 64.4963C59.9435 64.8753 60.1028 65.0378 60.2039 65.1074C60.3089 65.1809 60.5382 65.2853 61.0319 65.3627L61.37 65.4168L61.0668 67.2424L60.7325 67.1883C60.6587 67.1767 60.5304 67.1573 60.4138 67.0993C59.924 68.8862 58.7424 74.4405 57.7628 79.0277C55.3723 90.2483 55.3412 90.2521 54.968 90.3024L54.727 90.3334L54.6065 90.1129C54.3189 89.5288 54.1051 89.2697 53.9729 89.1498C53.903 89.084 53.7941 88.968 53.6114 88.7669C53.3627 88.4923 52.7796 87.8541 52.6008 87.7767C52.3054 87.7264 52.0372 87.7883 51.8 87.974C51.5513 88.1674 51.3997 88.4497 51.3297 88.8326C51.2792 89.115 51.3258 89.3896 51.4658 89.6758C51.6135 89.9698 51.8234 90.198 52.1071 90.3759L52.387 90.5499L51.458 92.1396L51.4696 92.1435ZM50.4085 90.1864C50.6106 90.6002 50.8788 90.9367 51.2325 91.1997L51.4852 90.7665C51.2248 90.5538 51.0149 90.2908 50.8633 89.9852C50.6572 89.5714 50.5873 89.1459 50.665 88.7243C50.7622 88.179 51.0032 87.7496 51.3841 87.4479C51.7767 87.1385 52.2393 87.0302 52.7524 87.1192C53.04 87.1695 53.3937 87.5137 54.1206 88.3143C54.2489 88.4575 54.3849 88.6044 54.4355 88.6508C54.5715 88.7707 54.7037 88.9332 54.8397 89.1421C54.898 88.91 54.968 88.6199 55.0496 88.2873C55.0419 88.2873 55.0341 88.295 55.0224 88.295L54.8397 88.3608L54.6765 88.2331C54.556 88.1326 54.3772 87.9585 54.1712 87.7574C53.8408 87.4363 53.0711 86.6783 52.8379 86.6318C52.3948 86.5545 51.9789 86.5854 51.6096 86.7208C51.2364 86.86 50.9332 87.0844 50.6845 87.4093C50.4318 87.738 50.2608 88.1519 50.1752 88.6315C50.082 89.1575 50.1597 89.6642 50.4085 90.1825V90.1864ZM59.547 65.4168C59.1505 67.0954 58.2992 71.9148 57.5374 76.2467C57.3041 77.5695 57.0942 78.7453 56.9077 79.7897C56.9737 79.488 57.0359 79.1863 57.0981 78.8923C59.8035 66.1904 59.8891 66.1556 60.2 66.0357L60.371 65.9699L60.5304 66.0782C60.5304 66.0782 60.5537 66.0975 60.5654 66.1053L60.5887 65.9738C60.2505 65.8964 59.994 65.7959 59.8113 65.6644C59.718 65.5986 59.6286 65.5174 59.5431 65.4207L59.547 65.4168ZM58.513 91.3506C58.4431 91.3506 58.3731 91.3429 58.2992 91.3313C58.0297 91.2848 58.1502 89.6449 58.6607 86.4114C59.0805 83.7387 59.6442 80.2925 60.1884 76.9584C60.923 72.4485 61.6849 67.7917 61.7548 67.0877C61.646 66.8827 61.6149 66.6506 61.6616 66.3954C61.716 66.0975 61.8559 65.8655 62.0775 65.7108L62.2641 65.5831L62.4584 65.703C62.6087 65.7959 62.5193 66.875 62.1902 68.9404C61.9103 70.6964 61.5216 73.0751 61.1135 75.6008C60.34 80.3621 59.3215 86.6009 59.0261 88.7862C60.5615 87.3126 64.7051 83.0889 67.566 80.1416L76.4091 71.0368L68.0675 80.598C64.8295 84.3111 59.9551 89.935 59.5198 90.5345C59.4576 90.7975 59.3138 91.0141 59.1039 91.1611C58.9289 91.2848 58.7307 91.3429 58.5169 91.3429L58.513 91.3506ZM58.824 89.8344C58.7773 90.1516 58.7424 90.4107 58.719 90.6041C58.7696 90.5654 58.8318 90.4997 58.859 90.3566C58.8706 90.2908 58.8862 90.2018 60.5499 88.2447C59.5276 89.2504 59.0611 89.6681 58.824 89.8344Z" fill="currentColor"/>
<path d="M49.9551 86.9142L50.7636 82.3695L65.9115 39.866L63.1556 55.3721L49.9551 86.9142ZM63.8203 47.7641L53.6089 76.4169L62.5103 55.1439L63.8203 47.7641ZM59.5056 85.7461C59.4357 85.7461 59.3657 85.7384 59.2957 85.7268C59.0262 85.6804 59.1467 84.0378 59.6572 80.7992C60.0809 78.1226 60.6407 74.6764 61.1848 71.3385C61.9195 66.8363 62.6775 62.1833 62.7513 61.4794C62.6425 61.2744 62.6114 61.0423 62.658 60.787C62.7086 60.4892 62.8485 60.2571 63.074 60.1024L63.2605 59.9709L63.4549 60.0908C63.6052 60.1837 63.5158 61.2628 63.1867 63.3282C62.9068 65.0803 62.522 67.4629 62.11 69.9847C61.247 75.2721 60.0926 82.3811 59.9526 83.7426C60.1159 83.8161 60.2558 83.9282 60.3608 84.0752C60.524 84.2996 60.5823 84.5703 60.5318 84.8604C60.4774 85.1543 60.3297 85.3942 60.1003 85.5566C59.9254 85.6765 59.7233 85.7384 59.5056 85.7384V85.7461ZM59.7894 84.462C59.7583 84.6747 59.735 84.8565 59.7194 84.9996C59.7699 84.961 59.8321 84.8952 59.8594 84.7521C59.8788 84.6438 59.8594 84.5587 59.8049 84.4813C59.801 84.4736 59.7972 84.4697 59.7894 84.462Z" fill="currentColor"/>
<path d="M96.8128 96.2973C96.7234 96.2973 96.6301 96.2857 96.5407 96.2587C96.2725 96.1813 96.0587 96.0111 95.9071 95.752C95.7555 95.489 95.7127 95.2221 95.7827 94.9629C95.8527 94.6999 96.0237 94.4911 96.288 94.3402C96.5135 94.2087 96.7428 94.1623 96.976 94.1932C97.5785 93.8838 101.131 91.5322 103.32 90.0585L109.065 86.1946L103.728 90.6C101.621 92.3367 98.2315 95.1679 97.8273 95.5895C97.7457 95.8255 97.5785 96.0189 97.3414 96.1542C97.1704 96.2509 96.9916 96.3012 96.8128 96.3012V96.2973ZM96.8439 94.8585C96.7894 94.8585 96.7195 94.874 96.6301 94.9243C96.4901 95.0055 96.4552 95.0828 96.4435 95.137C96.4279 95.1873 96.4202 95.2762 96.4979 95.4116C96.5795 95.5509 96.6689 95.5895 96.7273 95.605C96.8205 95.6321 96.9022 95.6166 96.9993 95.5625C97.1393 95.4812 97.1743 95.3961 97.1898 95.3343C97.2092 95.2569 97.2365 95.1641 98.6319 93.9689C97.1315 94.9204 97.0343 94.8972 96.9216 94.8701C96.8983 94.8662 96.8711 94.8585 96.84 94.8585H96.8439Z" fill="currentColor"/>
<path d="M88.2993 95.3809C87.8135 95.3809 87.3392 95.2764 86.8806 95.0714C86.2742 94.878 78.0375 94.1664 72.6383 93.7332L67.8145 93.3464L72.6461 93.0563C76.8947 92.801 83.7282 92.2943 84.8904 91.9694C84.902 91.5169 85.0187 91.0876 85.2441 90.693C85.5007 90.2444 85.8816 89.8692 86.3791 89.583C86.7329 89.378 87.4908 89.4205 88.5248 89.5056C88.587 89.5095 88.6492 89.5172 88.7075 89.5211C88.0972 88.1016 85.559 83.2745 83.4755 79.3062C80.5407 73.721 79.1375 71.0097 78.5 69.6482C78.3756 69.6521 78.2629 69.6057 78.1852 69.5128C78.0336 69.3388 78.0841 69.126 78.1346 68.9172C78.1385 68.8978 78.1463 68.8708 78.1502 68.8437C77.9519 68.3254 78.018 68.2519 78.1152 68.1513L78.2785 67.9773L78.5195 68.0663C78.8499 68.2132 78.881 68.5265 78.8538 68.7857C78.8615 68.805 78.8693 68.8244 78.881 68.8437C78.9898 68.7934 79.1181 68.7277 79.2697 68.6348L79.5651 68.4569L82.2316 73.0248L81.944 73.195C81.8779 73.2337 81.7613 73.3033 81.633 73.3342C82.321 74.8504 84.5522 79.078 86.3986 82.5783C91.0164 91.3235 90.9931 91.3467 90.7365 91.6213L90.5733 91.7954L90.3362 91.7025C89.7376 91.4395 89.4033 91.3776 89.2284 91.3699C89.1312 91.3699 88.9757 91.3467 88.7036 91.308C88.3382 91.2577 87.4792 91.1417 87.2887 91.1959C87.0322 91.3467 86.865 91.5672 86.8028 91.8611C86.7406 92.1706 86.8028 92.4838 86.9972 92.8203C87.141 93.0679 87.3548 93.2497 87.6463 93.3773C87.9495 93.5088 88.2566 93.5475 88.5909 93.5011L88.9174 93.4547L89.2323 95.2687L88.8941 95.3267C88.6958 95.3615 88.4976 95.377 88.3032 95.377L88.2993 95.3809ZM87.1527 94.4526C87.5764 94.6421 88 94.7233 88.4393 94.7001L88.3538 94.205C88.0195 94.2128 87.6891 94.1431 87.3742 94.0078C86.9467 93.8221 86.624 93.5398 86.4063 93.1685C86.1265 92.6888 86.0371 92.2054 86.1343 91.7335C86.2353 91.2461 86.5191 90.8671 86.97 90.6079C87.2226 90.461 87.7163 90.4997 88.793 90.6466C88.9835 90.6737 89.1817 90.7008 89.2517 90.7008C89.4383 90.7085 89.6482 90.7472 89.8931 90.8207C89.7881 90.6002 89.6559 90.3256 89.4966 90.0123C89.4888 90.0278 89.481 90.0432 89.4694 90.0587L89.3722 90.2212L89.1701 90.2289C89.0146 90.2289 88.7619 90.2096 88.4743 90.1864C88.0156 90.1477 86.935 90.0665 86.7251 90.1748C86.3364 90.3991 86.0371 90.6853 85.8427 91.0295C85.6484 91.3738 85.5629 91.7412 85.5823 92.1512C85.6017 92.5651 85.6134 92.7739 78.9937 93.2961C78.399 93.3425 77.8042 93.3889 77.229 93.4315C81.4853 93.7912 86.7484 94.2669 87.1643 94.4526H87.1527ZM79.1569 69.4625C79.5301 70.2438 80.1015 71.3732 80.7701 72.6651C80.7701 72.6651 80.774 72.6574 80.7779 72.6535L80.8673 72.4949L81.0616 72.4717C81.0616 72.4717 81.0966 72.4717 81.1121 72.4717L79.3124 69.389C79.2619 69.4161 79.2114 69.4393 79.1608 69.4625H79.1569ZM93.7646 90.3527C93.5003 90.3527 93.1232 89.73 91.0359 86.2799C89.6326 83.9592 87.8329 80.9577 86.0993 78.0569C83.7515 74.1349 81.3298 70.0853 80.9295 69.5012C80.7157 69.4123 80.5407 69.2537 80.4125 69.0332C80.2609 68.7702 80.2181 68.5033 80.2881 68.2442L80.3464 68.0276L80.5718 67.9966C80.7481 67.9708 81.3765 68.854 82.4571 70.6461C83.3783 72.17 84.6183 74.2393 85.9321 76.4362C88.6881 81.0351 92.3924 87.2197 93.166 88.353C93.3409 88.3027 93.5158 88.3027 93.6907 88.3453C93.9628 88.4149 94.1844 88.5851 94.3321 88.8365C94.4837 89.0956 94.5226 89.3741 94.4526 89.6449C94.3787 89.9156 94.2038 90.1361 93.9434 90.2831C93.8773 90.3217 93.8268 90.3488 93.7685 90.3488L93.7646 90.3527ZM93.5003 88.9989C93.6169 89.1807 93.714 89.3354 93.7918 89.4553C93.8073 89.3935 93.8112 89.3045 93.7374 89.1769C93.683 89.0802 93.613 89.026 93.5236 89.0028C93.5158 89.0028 93.508 89.0028 93.5003 88.9989Z" fill="currentColor"/>
<path d="M84.8946 89.5094C84.4087 89.5094 83.9306 89.4049 83.4681 89.1961C82.8189 88.9021 82.3136 88.4612 81.9793 87.8771C81.68 87.3588 81.5129 86.8328 81.4895 86.3107C81.4623 85.7769 81.5828 85.2741 81.8394 84.8216C82.0959 84.3729 82.4769 83.9977 82.9744 83.7115C83.3281 83.5065 84.0861 83.549 85.1201 83.6341C85.1745 83.638 85.225 83.6419 85.2756 83.6457C84.5837 82.2262 81.8588 77.5346 79.616 73.6783C73.6104 63.3435 73.6532 63.2971 73.9136 62.9993L74.0769 62.8175L74.3218 62.9103C74.7066 63.0844 74.932 63.1076 75.0564 63.096C75.1847 63.0844 75.4257 63.0186 75.8572 62.7633L76.1526 62.5854L77.101 64.179L76.8095 64.353C76.7434 64.3917 76.6346 64.4574 76.5063 64.4923C77.2837 66.1709 79.9658 71.1836 82.1814 75.326C87.6 85.452 87.5767 85.4752 87.324 85.7498L87.1608 85.9278L86.9276 85.8349C86.3289 85.5719 85.9947 85.51 85.8197 85.5023C85.7226 85.5023 85.5671 85.4791 85.295 85.4404C84.9296 85.3901 84.0667 85.2741 83.8801 85.3282C83.6235 85.4791 83.4564 85.6995 83.3942 85.9935C83.3281 86.3029 83.3942 86.6162 83.5886 86.9527C83.7324 87.2003 83.9462 87.3821 84.2377 87.5097C84.5409 87.6412 84.848 87.6799 85.1823 87.6335L85.5088 87.587L85.8275 89.4011L85.4893 89.4591C85.2911 89.4939 85.0929 89.5094 84.8946 89.5094ZM83.7479 88.5811C84.1677 88.7706 84.5875 88.8518 85.0346 88.8286L84.949 88.3335C84.6186 88.3413 84.2843 88.2717 83.9695 88.1363C83.5419 87.9506 83.2193 87.6683 83.0016 87.297C82.7217 86.8173 82.6323 86.3339 82.7295 85.862C82.8306 85.3747 83.1105 84.9956 83.5652 84.7365C83.8179 84.5895 84.3116 84.6282 85.3883 84.7751C85.5787 84.8022 85.777 84.8293 85.847 84.8293C86.0296 84.837 86.2357 84.8757 86.4728 84.9453C86.3678 84.7287 86.2357 84.4618 86.0802 84.1563C86.0763 84.164 86.0724 84.1718 86.0646 84.1795L85.9674 84.3497L85.7614 84.3574C85.6021 84.3574 85.3533 84.3381 85.0657 84.3149C84.607 84.2801 83.5264 84.1911 83.3165 84.3033C82.9278 84.5276 82.6285 84.8138 82.4341 85.1581C82.2359 85.5023 82.1503 85.8697 82.1737 86.2797C82.1931 86.6936 82.3291 87.119 82.574 87.5406C82.8422 88.0048 83.2271 88.3451 83.7557 88.5811H83.7479ZM74.7493 63.7612C75.5306 65.3006 77.9951 69.5359 80.2029 73.3418C80.8793 74.5061 81.4779 75.5388 82.0104 76.4593C81.8627 76.1886 81.7189 75.9139 81.5751 75.6471C75.4412 64.1867 75.4879 64.1055 75.6473 63.8115L75.7367 63.6529L75.9271 63.6336C75.9271 63.6336 75.9582 63.6336 75.9738 63.6336L75.9038 63.5176C75.5967 63.6761 75.3324 63.7612 75.1108 63.7806C74.9981 63.7922 74.8776 63.7844 74.7493 63.7651V63.7612ZM90.3598 84.4812C90.0955 84.4812 89.7185 83.8585 87.6311 80.4122C86.2279 78.0954 84.4321 75.094 82.6945 72.1931C80.3467 68.2711 77.9212 64.2176 77.5208 63.6336C77.307 63.5446 77.1321 63.3861 77.0039 63.1656C76.8523 62.9026 76.8095 62.6357 76.8795 62.3766L76.9378 62.16L77.1632 62.129C77.3394 62.1058 77.9678 62.989 79.0485 64.7785C79.9697 66.3024 81.2097 68.3717 82.5235 70.5686C85.0073 74.7111 88.2569 80.1415 89.4425 82.0058C89.6679 79.8939 90.115 74.0071 90.4026 69.9227L91.2966 57.2981L91.0828 69.9536C91.0012 74.8696 90.9002 82.292 90.9546 83.0346C91.079 83.2744 91.1062 83.5336 91.0401 83.7811C90.9662 84.0519 90.7913 84.2723 90.5309 84.4193C90.4687 84.458 90.4143 84.4851 90.356 84.4851L90.3598 84.4812ZM89.9711 82.9302C90.1422 83.2009 90.2821 83.4253 90.3909 83.5877C90.4065 83.5258 90.4104 83.4369 90.3365 83.3092C90.3015 83.2512 90.2588 83.1739 90.2704 80.6095C90.1383 82.0328 90.0489 82.6517 89.975 82.9341L89.9711 82.9302Z" fill="currentColor"/>
<path d="M81.2834 86.3687L78.9667 82.3694L63.1113 40.1211L71.0176 53.7629L81.2795 86.3687H81.2834ZM66.6136 47.5125L77.303 75.9952L70.3802 54.0027L66.6136 47.5125ZM87.4988 79.5575C87.2345 79.5575 86.8575 78.9347 84.7662 75.4846C83.3591 73.1639 81.5633 70.1625 79.8258 67.2578C77.4819 63.3397 75.0563 59.2939 74.6598 58.706C74.446 58.617 74.2711 58.4585 74.1428 58.238C73.9913 57.975 73.9485 57.7081 74.0185 57.449L74.0768 57.2324L74.3022 57.2014C74.4784 57.1756 75.1068 58.0601 76.1875 59.8547C77.1087 61.3787 78.3487 63.4518 79.6664 65.6487C82.4184 70.2476 86.1228 76.4284 86.8963 77.5617C87.0713 77.5114 87.2462 77.5114 87.425 77.5539C87.6971 77.6235 87.9187 77.7937 88.0625 78.0451C88.2141 78.3043 88.2529 78.5828 88.183 78.8535C88.1091 79.1204 87.9342 79.3447 87.6738 79.4917C87.6116 79.5304 87.5572 79.5575 87.4988 79.5575ZM87.2345 78.2037C87.3511 78.3855 87.4483 78.5402 87.5261 78.6601C87.5416 78.5982 87.5455 78.5093 87.4716 78.3816C87.4172 78.2849 87.3473 78.2308 87.2579 78.2076C87.2501 78.2076 87.2423 78.2076 87.2345 78.2037Z" fill="currentColor"/>
<path d="M122.592 63.8195C122.464 63.8195 122.328 63.7962 122.192 63.746C121.904 63.6415 121.702 63.4675 121.585 63.2199C121.469 62.9724 121.465 62.7055 121.57 62.4193C121.659 62.1756 121.803 61.99 122.001 61.8662C122.262 61.2435 123.463 57.1707 124.189 54.6411L126.094 48.0039L124.85 54.7958C124.361 57.4723 123.591 61.8082 123.552 62.3922C123.641 62.6243 123.638 62.8834 123.544 63.1387C123.443 63.4133 123.257 63.6183 123 63.7344C122.868 63.7924 122.728 63.8233 122.584 63.8233L122.592 63.8195ZM123.128 60.6362C122.596 62.3265 122.506 62.369 122.401 62.4193C122.347 62.4464 122.265 62.5005 122.211 62.6514C122.157 62.8022 122.18 62.8834 122.203 62.9337C122.227 62.984 122.273 63.0536 122.425 63.1078C122.576 63.1619 122.67 63.1348 122.728 63.1078C122.813 63.0691 122.872 63.0033 122.911 62.8989C122.965 62.7519 122.938 62.6591 122.911 62.6011C122.876 62.5276 122.837 62.4425 123.132 60.6324L123.128 60.6362Z" fill="currentColor"/>
<path d="M99.1167 79.8746L102.631 76.5599C105.717 73.6474 110.626 68.8861 111.31 67.896C111.027 67.5401 110.84 67.1379 110.758 66.6931C110.665 66.1825 110.716 65.6526 110.914 65.1189C111.054 64.736 111.66 64.2834 112.504 63.6878C112.554 63.653 112.605 63.6143 112.651 63.5834C111.268 62.8871 106.203 60.8101 102.044 59.1044C96.1858 56.7025 93.3599 55.5228 91.9917 54.8885C91.8984 54.9697 91.7818 55.0084 91.6613 54.989C91.4358 54.9542 91.3347 54.757 91.2376 54.5636C91.2259 54.5442 91.2142 54.521 91.2026 54.4978C90.7167 54.2271 90.7206 54.1304 90.7284 53.9911L90.74 53.7513L90.9849 53.6662C91.3347 53.5696 91.5602 53.7861 91.704 54.0066C91.7234 54.0144 91.739 54.026 91.7584 54.0337C91.809 53.9254 91.8634 53.7939 91.9217 53.6276L92.0344 53.3027L97.0254 55.0973L96.9127 55.4145C96.8855 55.488 96.8427 55.6156 96.765 55.7239C98.2732 56.4472 102.712 58.2574 106.389 59.7581C115.575 63.506 115.571 63.5331 115.555 63.9083L115.543 64.1481L115.302 64.2254C114.677 64.4072 114.381 64.5735 114.241 64.678C114.164 64.736 114.031 64.8211 113.798 64.9642C113.483 65.1614 112.749 65.6217 112.644 65.7841C112.543 66.0626 112.558 66.3411 112.702 66.6041C112.854 66.8826 113.102 67.0799 113.472 67.2152C113.744 67.3119 114.024 67.3158 114.327 67.2268C114.646 67.134 114.906 66.9677 115.131 66.7202L115.353 66.4765L116.768 67.6639L116.546 67.9231C116.092 68.4529 115.52 68.8204 114.84 69.0138C114.249 69.2536 107.482 73.9762 103.066 77.0975L99.1206 79.8862L99.1167 79.8746ZM113.565 63.4519C113.565 63.4519 113.573 63.4867 113.577 63.506L113.608 63.6955L113.456 63.8309C113.336 63.9315 113.133 64.0746 112.896 64.2448C112.519 64.5116 111.641 65.1344 111.551 65.3548C111.396 65.7764 111.357 66.1864 111.427 66.5771C111.497 66.9677 111.672 67.3003 111.952 67.602C112.236 67.9076 112.375 68.0584 107.645 72.696C107.221 73.1137 106.794 73.5275 106.378 73.9259C109.872 71.4776 114.21 68.4762 114.646 68.3524C115.089 68.2286 115.47 68.0198 115.788 67.7219L115.404 67.397C115.147 67.6175 114.852 67.7761 114.525 67.8728C114.082 68.0043 113.647 67.9965 113.242 67.8496C112.718 67.66 112.337 67.3468 112.107 66.9252C111.87 66.4881 111.843 66.0162 112.022 65.525C112.123 65.2504 112.523 64.968 113.444 64.3917C113.608 64.2912 113.779 64.1829 113.829 64.1442C113.977 64.032 114.164 63.9237 114.397 63.827C114.175 63.7226 113.895 63.6027 113.569 63.4596L113.565 63.4519ZM92.3765 54.3199C93.1656 54.6796 94.3356 55.1786 95.6805 55.7433C95.6805 55.7433 95.6805 55.7355 95.6805 55.7317L95.6455 55.5537L95.7777 55.4145C95.7777 55.4145 95.8049 55.3913 95.8165 55.3797L92.4464 54.1691C92.4231 54.2232 92.3998 54.2735 92.3765 54.3238V54.3199ZM116.884 61.0306C116.504 61.0306 115.473 60.6786 112.337 59.6111C109.763 58.7331 106.448 57.5844 103.245 56.4704C98.9145 54.9658 94.4405 53.4148 93.7564 53.2214C93.5348 53.2911 93.3016 53.2833 93.0567 53.1944C92.7691 53.0899 92.5669 52.912 92.4503 52.6683L92.3532 52.4634L92.5048 52.2932C92.624 52.1617 93.6761 52.4363 95.6611 53.117C97.348 53.6933 99.6375 54.4862 102.063 55.3294C107.147 57.0931 113.985 59.4603 115.306 59.8354C115.407 59.6846 115.54 59.5724 115.703 59.4912C115.955 59.3713 116.231 59.3597 116.511 59.4603C116.795 59.5608 117.005 59.7503 117.126 60.0017C117.242 60.2532 117.25 60.5355 117.149 60.8179C117.102 60.9455 117.071 61.0267 116.884 61.0267V61.0306ZM115.983 60.1139C116.189 60.1797 116.364 60.2338 116.504 60.2764C116.476 60.2222 116.418 60.1487 116.282 60.0984C116.177 60.0598 116.092 60.0598 116.006 60.1023C115.998 60.1023 115.99 60.11 115.987 60.1139H115.983Z" fill="currentColor"/>
<path d="M107.501 66.8131C107.136 66.8131 106.782 66.7512 106.436 66.6236C105.872 66.4186 105.406 66.1207 105.048 65.7378C104.683 65.3433 104.45 64.8869 104.356 64.3725C104.263 63.8658 104.314 63.3359 104.512 62.7983C104.652 62.4154 105.258 61.9628 106.102 61.3672C106.144 61.3362 106.187 61.3053 106.23 61.2782C104.784 60.6323 99.6685 58.7835 95.4588 57.2634C84.1785 53.1867 84.1785 53.1248 84.1902 52.7303L84.1979 52.4866L84.4467 52.4016C84.8549 52.2894 85.0414 52.1617 85.1308 52.0728C85.2202 51.9838 85.3641 51.7788 85.5273 51.3031L85.64 50.9821L87.397 51.597L87.2843 51.9181C87.2571 51.9916 87.2182 52.1115 87.1443 52.2159C88.8275 53.0049 94.1216 55.1284 98.4907 56.8844C109.18 61.1738 109.18 61.2047 109.161 61.5799L109.149 61.8197L108.908 61.8971C108.282 62.0789 107.983 62.2452 107.847 62.3496C107.769 62.4076 107.637 62.4927 107.404 62.6358C107.089 62.8331 106.354 63.2895 106.249 63.4519C106.148 63.7304 106.164 64.0089 106.308 64.2719C106.459 64.5504 106.708 64.7477 107.077 64.883C107.349 64.9797 107.629 64.9836 107.932 64.8946C108.251 64.8018 108.512 64.6355 108.737 64.3879L108.959 64.1443L110.374 65.3317L110.152 65.5908C109.697 66.1246 109.122 66.492 108.438 66.6816C108.123 66.7705 107.816 66.8131 107.509 66.8131H107.501ZM107.171 61.1506C107.171 61.1506 107.171 61.1699 107.174 61.1776L107.209 61.371L107.054 61.5103C106.933 61.6108 106.727 61.7578 106.494 61.9241C106.117 62.191 105.239 62.8137 105.149 63.0342C104.994 63.4635 104.951 63.8619 105.025 64.2564C105.095 64.6471 105.27 64.9797 105.55 65.2814C105.833 65.587 106.21 65.8268 106.669 65.9931C107.174 66.1749 107.688 66.1904 108.243 66.0356C108.69 65.9119 109.067 65.703 109.39 65.4052L109.005 65.0803C108.749 65.3008 108.453 65.4593 108.127 65.556C107.684 65.6875 107.248 65.6798 106.844 65.5328C106.319 65.3433 105.938 65.03 105.709 64.6084C105.472 64.1713 105.445 63.6995 105.624 63.2083C105.725 62.9336 106.125 62.6513 107.046 62.075C107.209 61.9744 107.38 61.8661 107.431 61.8274C107.575 61.7153 107.758 61.6147 107.987 61.5142C107.765 61.4136 107.493 61.2976 107.178 61.1622L107.171 61.1506ZM85.3174 52.7729C86.9111 53.4536 91.5367 55.1245 95.6881 56.6252C96.9553 57.0816 98.0826 57.4916 99.0854 57.8552C98.7978 57.7392 98.514 57.6231 98.2303 57.511C86.1259 52.653 86.1104 52.564 86.0443 52.2352L86.0093 52.0573L86.1454 51.9181C86.1454 51.9181 86.1687 51.8987 86.1765 51.8871L86.0482 51.8446C85.9121 52.1617 85.7683 52.3977 85.6089 52.5524C85.5273 52.6336 85.4301 52.7071 85.3213 52.7729H85.3174ZM110.486 58.71C110.105 58.71 109.075 58.358 105.938 57.2905C103.365 56.4125 100.049 55.2637 96.8465 54.1498C92.5163 52.6452 88.0423 51.0942 87.3581 50.9008C87.1366 50.9705 86.9034 50.9627 86.6585 50.8738C86.3708 50.7693 86.1687 50.5914 86.0521 50.3477L85.9549 50.1427L86.1065 49.9726C86.2257 49.841 87.2778 50.1157 89.2628 50.7964C90.9498 51.3727 93.2393 52.1695 95.6687 53.0088C100.248 54.5946 106.245 56.6755 108.36 57.3446C107.171 55.5848 103.707 50.7887 101.289 47.4739L93.8185 37.2319L101.83 47.0601C104.943 50.8776 109.662 56.6291 110.183 57.1628C110.432 57.2673 110.622 57.4452 110.731 57.6773C110.848 57.9287 110.859 58.211 110.754 58.4934C110.708 58.621 110.677 58.7022 110.49 58.7022L110.486 58.71ZM109.359 57.7237C109.666 57.8242 109.919 57.9016 110.101 57.9596C110.074 57.9055 110.02 57.832 109.88 57.7817C109.814 57.7585 109.732 57.7275 108.084 55.755C108.9 56.9308 109.235 57.4607 109.359 57.7237Z" fill="currentColor"/>
<path d="M104.929 65.9119L100.571 64.33L61.1328 42.1055L76.0009 47.5011L104.925 65.9158L104.929 65.9119ZM68.5882 45.5285L95.1719 60.5086L75.6627 48.089L68.5843 45.5246L68.5882 45.5285ZM105.111 56.7645C104.73 56.7645 103.7 56.4126 100.563 55.345C97.9901 54.467 94.6744 53.3183 91.4714 52.2044C87.1412 50.6998 82.6672 49.1488 81.9831 48.9554C81.7615 49.025 81.5283 49.0173 81.2834 48.9283C80.9958 48.8239 80.7936 48.646 80.677 48.4023L80.5799 48.1973L80.7315 48.0271C80.8507 47.8956 81.9028 48.1702 83.8878 48.851C85.5748 49.4273 87.8642 50.2202 90.2898 51.0634C95.3741 52.8271 102.208 55.1942 103.533 55.5694C103.634 55.4224 103.77 55.3064 103.933 55.2251C104.182 55.1052 104.462 55.0936 104.742 55.1942C105.026 55.2986 105.236 55.4843 105.356 55.7357C105.473 55.9871 105.484 56.2695 105.379 56.5518C105.333 56.6794 105.302 56.7607 105.115 56.7607L105.111 56.7645ZM104.209 55.8479C104.415 55.9136 104.59 55.9678 104.73 56.0103C104.703 55.9562 104.649 55.8827 104.509 55.8324C104.404 55.7937 104.318 55.7976 104.233 55.8363C104.225 55.8363 104.217 55.844 104.213 55.8479H104.209Z" fill="currentColor"/>
</svg>
