<svg width="143" height="143" viewBox="0 0 143 143" fill="none" xmlns="http://www.w3.org/2000/svg">
<path d="M48.8229 30.1955C49.0075 30.119 49.156 30.0605 49.2731 30.02C48.7779 30.065 48.1881 30.119 47.5083 30.182C47.4948 30.2089 47.4723 30.2404 47.4453 30.2764C47.9315 30.2494 48.3907 30.2224 48.8229 30.1955Z" fill="currentColor"/>
<path d="M47.0586 30.2267C47.2117 30.2132 47.3602 30.1997 47.5043 30.1862C47.5988 30.0062 47.4233 30.0242 47.0586 30.2267Z" fill="currentColor"/>
<path d="M49.2734 30.0194C49.3455 30.0149 49.413 30.0059 49.4805 30.0014C49.6246 29.9115 49.5481 29.9205 49.2734 30.0194Z" fill="currentColor"/>
<path d="M51.1788 30.0056C51.6335 29.8347 51.1293 29.8527 49.4816 29.9966C49.4186 30.0371 49.306 30.0956 49.1484 30.172C49.9048 30.1226 50.5756 30.0686 51.1788 30.0056Z" fill="currentColor"/>
<path d="M61.2403 80.1035C61.1232 79.8201 61.0197 79.5187 60.8711 79.2128C60.8711 79.6312 60.8756 80.045 61.2403 80.1035Z" fill="currentColor"/>
<path d="M46.4824 31.3385C46.7525 31.2621 47.0091 31.1901 47.2613 31.1181C47.2973 31.0641 47.3288 31.0192 47.3603 30.9742C47.0947 31.0866 46.8021 31.2081 46.4824 31.3385Z" fill="currentColor"/>
<path d="M45.0098 30.4163C45.6851 30.3803 46.3153 30.3443 46.9096 30.3128C46.9591 30.2813 47.0086 30.2543 47.0582 30.2274C46.4459 30.2858 45.7661 30.3488 45.0098 30.4163Z" fill="currentColor"/>
<path d="M45.735 31.1359C45.762 31.1134 45.7845 31.0954 45.8115 31.0775C45.789 31.028 45.762 30.983 45.7305 30.9425C45.735 31.001 45.7395 31.064 45.735 31.1359Z" fill="currentColor"/>
<path d="M43.957 31.063C44.6953 30.6716 45.3932 30.5052 45.7308 30.9415C45.6543 30.1723 44.8394 30.4557 43.957 31.063Z" fill="currentColor"/>
<path d="M46.875 31.5984C47.5638 31.2296 48.131 30.9507 48.5722 30.7527C48.1761 30.8607 47.7349 30.9822 47.2667 31.1171C47.1676 31.2566 47.0416 31.414 46.8795 31.5984H46.875Z" fill="currentColor"/>
<path d="M90.6108 65.5344C90.3452 65.6874 90.075 65.8313 89.8094 65.9663C89.5438 66.1012 89.2602 66.1822 88.8775 66.1327C88.4949 66.0832 88.0942 66.0247 87.7475 65.9798C87.4414 65.7998 87.0947 65.7279 86.7031 65.6154C85.1814 65.2645 83.3806 65.2645 82.9304 63.9151C82.9304 63.4652 83.8308 63.0154 84.29 62.9524C84.4746 62.6465 84.6277 62.3002 84.6637 61.8549C85.375 53.0472 85.9017 53.4656 91.9343 49.3497C92.7447 42.0805 94.8471 35.2251 97.9985 29.0445C93.411 28.5632 93.8026 29.0715 81.2377 28.7971C80.3869 28.8331 79.5315 28.905 78.5816 28.968C76.0065 28.9725 73.4133 29.3009 70.7842 29.7102C69.9063 29.8452 69.0285 29.9891 69.105 29.9216C67.7004 30.205 67.2547 30.277 68.8304 29.8632C66.3723 30.4209 65.9356 30.4839 68.5603 29.6427C65.0352 30.6234 64.576 30.6908 68.1326 28.6261C63.9683 30.7268 63.8152 30.6953 67.1106 26.1926C63.1039 30.7223 62.5457 30.7898 57.0848 29.7912C62.1765 30.5559 62.3656 30.2635 60.1011 24.1863C61.8569 30.196 61.1546 30.4209 56.9678 29.5213C59.6149 29.8542 60.2857 29.5483 59.4978 27.7625C59.7229 28.6441 59.0837 28.8286 57.571 28.6621C57.5125 28.4147 57.2199 28.0638 56.8147 27.6095C56.8012 26.8898 56.342 25.7562 55.7972 24.2628C56.1259 28.5317 55.7207 29.5348 51.1782 30.0116C50.9261 30.1061 50.3679 30.2635 49.5576 30.4884C49.499 30.6414 48.8913 31.0957 47.5812 31.8829C52.3848 30.0791 53.2041 30.1735 48.7292 32.3372C54.7978 30.4884 55.5721 30.7043 50.7686 33.2009C57.0623 31.2666 57.7781 31.622 56.477 34.5009C57.2694 33.7677 57.8411 33.3133 57.9942 33.2594C58.7235 32.9265 59.0341 32.9985 58.5119 33.7632C59.1692 33.6867 59.5068 33.8756 59.6644 34.3029C59.5834 34.3839 59.4843 34.4919 59.3628 34.6403C59.4888 34.5638 59.6014 34.5099 59.7049 34.4604C59.7635 34.7033 59.786 35.0002 59.777 35.36C59.8715 34.9102 59.939 34.5728 59.948 34.3749C60.6638 34.1905 60.9385 34.7933 61.1095 36.0708C61.1185 36.0393 61.123 36.0078 61.132 35.9763C61.7578 35.3061 62.0189 35.7424 62.208 36.651C62.3521 36.4171 62.4286 36.6645 62.4916 37.0379C62.5907 37.2718 62.6762 37.6317 62.7437 38.0005C62.8788 38.7337 62.9283 39.485 62.9283 40.2317C62.8158 42.7057 62.199 45.0673 61.3751 47.3749C60.7494 49.0753 60.0021 50.7756 59.2547 52.4895C58.656 54.6126 58.0707 56.8528 57.4179 59.1199C57.2649 59.5742 57.1118 60.0286 56.9272 60.4829C55.9098 63.0244 52.7584 63.9241 53.2086 67.0728C53.6588 69.322 56.36 68.4223 56.36 70.2216C56.8102 72.0164 55.0184 72.4663 53.2266 72.9161C52.5243 72.9161 51.795 72.8981 51.2683 73.3344C50.9351 73.6583 50.5525 73.9732 50.0753 74.2926C48.1664 75.5836 44.7675 77.0185 37.2402 79.8029C55.7657 76.2673 48.2745 76.4023 51.2053 74.6794C56.0899 74.7964 51.4754 76.3438 37.6814 83.6175C59.2142 72.8981 50.0933 113.018 49.0218 124.196C54.4242 113.167 53.2672 99.4919 56.5986 103.455C54.9914 98.5877 52.6144 75.6421 55.6622 75.2012C55.0184 74.9898 54.9779 74.7964 55.275 74.6074C56.8147 73.8158 58.1653 73.3659 59.5158 72.4663H59.0657C59.2908 72.4663 59.5158 72.3538 59.7409 72.1874C59.948 72.1469 60.1371 72.2009 60.3037 72.3268C60.4162 75.1652 59.966 77.8642 61.3166 80.1133C61.2851 80.1133 61.2626 80.1043 61.2356 80.1043C61.4697 80.6666 61.7713 81.1659 62.6672 81.4628C60.0831 78.5164 61.4337 74.36 63.7387 71.4677C63.1399 72.0074 62.5276 72.5697 62.226 73.3344C62.6222 72.3268 63.4641 71.6071 64.2564 70.8514C64.495 70.586 64.7426 70.3341 64.9947 70.1002C65.1388 69.9337 65.2783 69.7673 65.3999 69.5874C65.8591 69.268 66.3453 69.0431 67.1691 69.313L66.719 68.8632C68.3261 69.1331 69.0149 72.7272 69.3571 73.9282C70.1674 76.7576 70.7527 79.6455 71.5045 82.4884C71.7926 83.5725 73.9716 82.3985 74.5118 83.3881C74.5793 83.514 74.6559 83.64 74.7729 83.7254C75.0566 83.9279 74.89 101.737 75.1916 101.66C75.4842 101.588 75.7679 101.503 76.0245 101.503C76.3261 101.723 76.7763 111.142 77.2265 111.592C77.6812 110.832 77.6047 100.27 77.6002 99.4244C77.5866 97.8995 76.3846 80.6756 76.2136 79.1642C75.8264 75.768 75.2456 72.3853 74.5794 69.0341C74.5343 68.8092 74.4893 68.5843 74.4443 68.3594C74.4218 68.2514 74.3993 68.1344 74.3182 68.0535C74.2507 67.986 74.1562 67.9545 74.0661 67.9185C72.3689 67.2213 73.76 65.278 74.872 64.8057C74.9305 64.7832 74.9935 64.7562 75.0566 64.7787C75.1241 64.8012 75.1601 64.8687 75.1961 64.9272C76.6367 67.6216 77.159 70.7974 77.7667 73.7753C78.0999 75.4081 78.442 77.041 78.6986 78.6874C78.9282 80.1988 79.8871 97.5711 80.5759 98.9611C80.6255 99.06 80.6795 99.159 80.774 99.222C81.1972 99.4964 81.2872 98.6912 81.2962 98.4618C81.3098 97.9355 81.1882 97.4137 81.1837 96.8874C81.1702 93.6621 79.9637 74.7559 79.7836 71.5351C79.7071 70.1407 80.1888 69.6504 81.0802 68.6787C81.6654 68.0445 82.2912 67.4372 83.007 66.9514C83.6508 66.5151 84.3666 66.1642 85.1454 66.0472C85.5326 65.9888 85.9242 65.9933 86.3114 66.0562C86.6806 66.1147 87.1983 66.4701 87.5359 66.4656C87.9636 66.4566 88.4003 66.5151 88.846 66.6545C89.2872 66.794 89.7374 67.0099 90.1966 67.3202C90.5477 67.2708 90.8944 67.2168 91.2455 67.1628C91.0159 66.0922 90.7998 65.431 90.6153 65.5344H90.6108ZM57.562 28.842C59.0071 29.4763 58.5389 29.4583 56.8642 29.094C57.2874 29.067 57.499 28.9815 57.562 28.842ZM61.1681 35.8638C61.4157 34.9912 61.3706 35.0092 61.1681 35.8638ZM53.2581 72.9116C53.7173 72.8891 54.5817 72.4663 55.0184 72.4663C54.5817 72.9026 53.9289 72.9161 53.2581 72.9116ZM69.4066 64.7247C69.159 65.0396 68.8484 65.2645 68.4702 65.4085C66.7235 66.614 64.4725 64.8147 62.6312 65.4085C62.3386 65.386 62.0549 65.3365 61.7803 65.278C60.6819 65.0441 59.7004 64.6033 58.5884 64.4324C58.9981 64.5268 59.3223 64.7472 59.0657 65.26C58.6155 66.1597 57.7151 65.7099 57.2649 65.7099C57.7151 66.1597 58.6155 66.1597 59.0657 66.1597C57.2649 66.6095 59.966 67.5092 59.2682 69.0116C59.1827 69.4434 59.0476 69.8618 58.8766 70.2396C58.6155 67.959 56.3645 67.959 55.0139 67.0594C51.8625 65.26 56.3645 62.5611 58.3273 61.2296C58.5749 60.8427 58.746 60.4379 58.9171 60.0376C59.6284 57.9773 60.3307 55.9351 60.8844 53.9154C61.6408 51.6168 62.3701 49.3227 63.0319 46.9791C63.6937 44.6355 64.2834 42.2469 64.7336 39.7728C64.7336 39.0216 64.8822 38.3244 65.1253 37.6542C65.3684 36.9839 65.706 36.3407 66.2868 36.1292C66.4533 35.0677 66.8585 34.4424 68.002 34.3794C67.6734 33.2594 68.1551 32.778 69.1905 32.4856C69.2445 31.9504 69.8523 31.604 70.5411 31.3341C71.2254 31.0642 71.9907 30.8753 72.8416 30.7763C72.4724 30.8213 71.7071 33.1154 71.5585 33.4888C69.1455 39.2151 69.8073 44.9504 69.3391 50.8746C69.2626 51.8642 69.15 52.8538 68.9924 53.8524C68.9384 54.1853 68.7899 54.5137 68.3126 54.851C66.7235 55.3683 65.3729 57.1677 64.9227 58.5171C64.0223 61.6659 67.1737 63.0154 69.8748 63.4652C69.7983 63.9915 69.6362 64.4009 69.4066 64.7203V64.7247ZM81.1297 64.3694C78.8787 65.7189 77.5281 63.9196 75.4437 63.1818C75.1781 63.0289 75.034 62.7995 74.944 62.5476C74.6829 61.7829 74.935 60.7708 73.9221 60.7708C73.4719 63.0199 73.4719 65.269 71.2209 66.6185C74.3723 63.4697 73.0217 59.4213 69.8703 57.1722C71.2209 56.2725 72.5715 56.7223 73.814 57.0642C74.2012 57.1452 74.2687 56.8393 74.3227 56.5289C74.5388 55.2784 74.6379 54.0279 74.6379 52.8313C75.0881 45.1843 71.9367 37.987 73.5484 30.5469C73.5574 30.5469 73.5664 30.5469 73.5754 30.5469C75.6598 30.5514 77.9873 30.178 79.8376 31.3431C82.7369 33.0389 83.1871 36.1877 83.1871 38.8867C82.8314 45.6116 82.2011 52.341 82.3857 59.0659C82.3992 59.5158 82.4127 59.9611 82.4352 60.4109C82.9214 62.1247 82.0211 63.4742 81.1207 64.3739L81.1297 64.3694Z" fill="currentColor"/>
<path d="M58.5882 64.4405C58.2731 64.3685 57.9129 64.3685 57.7148 64.3685C58.0165 64.3685 58.3046 64.4 58.5882 64.4405Z" fill="currentColor"/>
<path d="M96.8141 80.6393C96.4225 79.7666 96.0488 78.8849 95.6932 77.9898C95.6211 78.0393 95.5716 78.0258 95.5536 77.9313C95.5536 77.9178 95.5491 77.9043 95.5446 77.8908C95.5536 77.8233 95.5671 77.7604 95.5761 77.6929C95.2475 76.8382 94.9323 75.979 94.6397 75.1064C94.6307 75.1379 94.6262 75.1739 94.6172 75.2053C95.369 77.6614 96.1163 79.9015 96.8096 80.6393H96.8141Z" fill="currentColor"/>
<path d="M91.2672 67.1577C91.2672 67.1577 91.2492 67.1577 91.2402 67.1577C92.0056 70.7429 92.9285 78.9567 93.3246 78.6643C93.8964 77.5533 94.3151 76.3972 94.6212 75.1962C93.4462 71.3501 92.2622 66.9958 91.2672 67.1488V67.1577Z" fill="currentColor"/>
<path d="M64.2605 70.8551C64.0804 71.053 63.9094 71.2554 63.7383 71.4668C63.7518 71.4533 63.7698 71.4398 63.7833 71.4263C64.346 70.9225 64.8097 70.2433 65.368 69.7665C65.2419 69.8744 65.1204 69.9869 64.9943 70.1038C64.7647 70.3647 64.5126 70.6122 64.256 70.8551H64.2605Z" fill="currentColor"/>
<path d="M48.8245 30.1954C48.4823 30.3348 48.0231 30.5373 47.4649 30.7937C47.4379 30.8477 47.4063 30.9061 47.3613 30.9691C48.2122 30.6092 48.7974 30.3438 49.1486 30.1729C49.0451 30.1819 48.9325 30.1864 48.8245 30.1954Z" fill="currentColor"/>
<path d="M47.2751 30.4743C47.0815 30.6767 46.7843 30.9556 46.3477 31.3244C46.7528 31.1265 47.1265 30.9511 47.4596 30.7981C47.5947 30.5237 47.5137 30.4248 47.2751 30.4788V30.4743Z" fill="currentColor"/>
<path d="M46.9149 30.3071C46.6268 30.478 46.2486 30.7389 45.8164 31.0763C45.8434 31.1348 45.8749 31.1887 45.8929 31.2652C46.5007 30.8154 46.9959 30.541 47.2795 30.478C47.3516 30.4015 47.4056 30.3386 47.4461 30.2801C47.2705 30.2891 47.095 30.2981 46.9149 30.3116V30.3071Z" fill="currentColor"/>
<path d="M48.5723 30.7521C48.9369 30.6531 49.2611 30.5631 49.5582 30.4822C49.6077 30.3517 49.2521 30.4507 48.5723 30.7521Z" fill="currentColor"/>
<path d="M59.4966 27.757C59.3661 27.2532 58.9609 26.5245 58.2676 25.4989C58.8213 26.43 59.24 27.1723 59.4966 27.757Z" fill="currentColor"/>
</svg>
