<svg width="279" height="97" viewBox="0 0 279 97" fill="none" xmlns="http://www.w3.org/2000/svg">
<path d="M50.1567 39.6004C51.6939 40.8344 54.0737 40.884 55.9221 41.3068C58.097 41.8057 60.3819 42.4037 62.6289 42.0304C63.4145 41.9009 64.037 41.5772 64.4355 41.0287C64.9631 40.484 65.7716 39.2042 64.4887 38.6519C62.3973 37.9625 51.8912 37.6083 49.705 37.0674C46.1068 36.4694 42.8123 34.5993 39.3583 33.9822C39.3014 34.0013 39.2444 34.0241 39.1875 34.0432C39.6202 34.7135 49.6708 39.2157 50.1529 39.6042L50.1567 39.6004Z" fill="currentColor"/>
<path d="M55.3883 43.615C52.9401 43.8282 50.6286 42.9903 48.655 43.9425C48.2412 44.2663 48.0363 44.7919 47.7972 45.4356C47.7478 45.7365 47.7175 46.0146 47.6681 46.285C47.6188 46.5554 47.5467 46.8144 47.5391 47.0011C47.8541 46.9211 48.2982 46.8335 48.7385 46.784C50.0707 46.6392 51.4029 46.8716 52.758 46.9744C54.8113 47.1306 56.8799 47.0811 58.9333 46.9516C62.1292 46.7535 65.2985 45.8394 65.697 42.0647C64.0232 42.8037 62.3228 43.2112 60.6034 43.4245C58.8802 43.6378 57.1418 43.653 55.3845 43.6111L55.3883 43.615Z" fill="currentColor"/>
<path d="M82.1954 40.5945C80.4949 39.6042 78.1303 39.9089 76.2439 39.7641C74.0159 39.5927 71.6703 39.3414 69.503 40.046C68.7439 40.2936 68.1746 40.7011 67.8633 41.3067C67.4231 41.9238 66.812 43.3102 68.1594 43.6683C70.3304 44.0377 80.772 42.8265 83.0114 43.036C86.6589 43.0893 90.1926 44.4491 93.6997 44.5481C93.7528 44.5177 93.806 44.491 93.8591 44.4605C93.3315 43.8625 82.7305 40.9068 82.1916 40.5945H82.1954Z" fill="currentColor"/>
<path d="M76.4264 37.4026C78.8138 36.8275 81.2278 37.315 83.0383 36.0771C83.4026 35.6962 83.5241 35.1477 83.6645 34.4736C83.6721 34.1688 83.6569 33.887 83.6645 33.6127C83.6759 33.3385 83.7063 33.0719 83.6835 32.8852C83.3837 33.0109 82.9586 33.1633 82.5259 33.2776C81.2316 33.6166 79.8766 33.5899 78.5216 33.6889C76.4682 33.8413 74.4299 34.1955 72.4183 34.6297C69.287 35.3001 66.2885 36.6751 66.4517 40.4688C67.9965 39.4899 69.6172 38.831 71.291 38.3663C72.9611 37.9016 74.6804 37.6235 76.4226 37.4064L76.4264 37.4026Z" fill="currentColor"/>
<path d="M89.5476 32.8395C90.4244 34.6069 92.5613 35.6581 94.0567 36.8275C95.8216 38.2025 97.6397 39.7108 99.8335 40.3241C100.6 40.5373 101.302 40.5107 101.895 40.1793C102.601 39.9089 103.876 39.09 102.942 38.0463C101.337 36.538 91.9578 31.7692 90.2042 30.3523C87.1905 28.2879 84.9891 25.1989 82.1197 23.1763C82.059 23.1725 81.9982 23.1649 81.9375 23.1611C82.0476 23.9533 89.2705 32.2834 89.5438 32.8433L89.5476 32.8395Z" fill="currentColor"/>
<path d="M92.6025 38.6938C90.2948 37.8521 88.5488 36.1114 86.3588 36.1419C85.8464 36.2599 85.4403 36.6485 84.9545 37.136C84.7837 37.3874 84.6394 37.6273 84.48 37.8521C84.3206 38.0768 84.1498 38.2787 84.0625 38.4463C84.3813 38.5072 84.8216 38.6138 85.2429 38.7586C86.5106 39.1928 87.6227 39.966 88.8107 40.6326C90.6098 41.6419 92.5038 42.4723 94.4206 43.2264C97.4001 44.3996 100.66 44.9138 102.608 41.6572C100.782 41.6191 99.0663 41.2687 97.4153 40.7354C95.7642 40.1984 94.1777 39.4785 92.6063 38.6976L92.6025 38.6938Z" fill="currentColor"/>
<path d="M118.182 47.2982C117.055 45.6794 114.785 44.9557 113.134 44.0263C111.187 42.9294 109.164 41.7067 106.905 41.4286C106.112 41.3296 105.425 41.4629 104.89 41.8781C104.233 42.2514 103.095 43.2493 104.169 44.1444C105.979 45.3975 115.961 48.7151 117.901 49.8578C121.184 51.4499 123.818 54.1771 126.957 55.754C127.018 55.754 127.079 55.7463 127.139 55.7425C126.912 54.9769 118.539 47.8086 118.186 47.302L118.182 47.2982Z" fill="currentColor"/>
<path d="M114.292 41.9619C116.699 42.4494 118.684 43.912 120.843 43.554C121.333 43.3636 121.675 42.9141 122.085 42.3618C122.217 42.0876 122.324 41.8286 122.449 41.5848C122.574 41.341 122.715 41.1125 122.772 40.9373C122.449 40.9259 121.997 40.884 121.557 40.804C120.24 40.564 119.025 39.966 117.754 39.4823C115.826 38.751 113.829 38.2101 111.821 37.753C108.701 37.037 105.403 37.0141 103.957 40.5221C105.771 40.286 107.517 40.3774 109.229 40.663C110.941 40.9487 112.615 41.4248 114.285 41.9657L114.292 41.9619Z" fill="currentColor"/>
<path d="M126.147 42.1142C126.675 44.0225 128.584 45.4737 129.841 46.9097C131.321 48.6046 132.831 50.4405 134.881 51.4727C135.598 51.8346 136.297 51.945 136.946 51.7355C137.694 51.6099 139.109 51.0538 138.388 49.8463C137.09 48.0523 128.732 41.5353 127.275 39.8022C124.69 37.1855 123.107 33.7232 120.659 31.175C120.598 31.156 120.541 31.1408 120.481 31.1217C120.439 31.9216 125.984 41.5124 126.147 42.1142Z" fill="currentColor"/>
<path d="M128.048 48.4599C125.93 47.1801 124.537 45.1309 122.366 44.7348C121.839 44.75 121.364 45.0547 120.791 45.4356C120.575 45.6489 120.385 45.8584 120.184 46.045C119.983 46.2317 119.774 46.3993 119.66 46.5478C119.964 46.6697 120.378 46.8601 120.765 47.0849C121.934 47.759 122.886 48.7341 123.93 49.6216C125.513 50.9662 127.225 52.1507 128.978 53.2667C131.7 54.9998 134.82 56.1425 137.363 53.3277C135.564 52.9315 133.939 52.2536 132.409 51.4042C130.88 50.5548 129.453 49.5378 128.048 48.4599Z" fill="currentColor"/>
<path d="M151.671 61.9092C150.866 60.0999 148.763 58.9458 147.306 57.7079C145.59 56.2491 143.825 54.657 141.647 53.9409C140.884 53.6895 140.178 53.6857 139.571 53.9866C138.849 54.2228 137.532 54.9807 138.424 56.0701C139.977 57.6546 149.2 62.8652 150.9 64.3659C153.842 66.5713 155.922 69.7669 158.719 71.9228C158.78 71.9304 158.841 71.938 158.901 71.9494C158.822 71.1534 151.921 62.4805 151.667 61.9092H151.671Z" fill="currentColor"/>
<path d="M148.847 55.9101C151.132 56.8623 152.813 58.683 155.015 58.7554C155.535 58.664 155.96 58.2907 156.469 57.8298C156.655 57.586 156.806 57.3537 156.977 57.1366C157.148 56.9195 157.33 56.7252 157.421 56.5614C157.102 56.4853 156.666 56.3596 156.248 56.192C154.992 55.7006 153.907 54.8741 152.745 54.1504C150.98 53.0534 149.113 52.1355 147.215 51.2899C144.27 49.9758 141.013 49.3093 138.918 52.4707C140.755 52.5964 142.463 53.0268 144.099 53.64C145.735 54.2532 147.299 55.0493 148.847 55.9063V55.9101Z" fill="currentColor"/>
<path d="M158.806 55.9977C159.956 57.5975 162.237 58.2869 163.903 59.1934C165.865 60.2599 167.907 61.4521 170.169 61.6959C170.963 61.7835 171.65 61.6387 172.177 61.2159C172.83 60.835 173.954 59.8181 172.864 58.9382C171.035 57.7117 161.007 54.5427 159.048 53.4305C155.739 51.8879 153.067 49.1988 149.909 47.6714C149.848 47.6752 149.787 47.6791 149.727 47.6867C149.966 48.4523 158.441 55.4911 158.806 55.9939V55.9977Z" fill="currentColor"/>
<path d="M162.773 61.2731C160.359 60.8198 158.355 59.3877 156.199 59.7762C155.713 59.9742 155.375 60.4275 154.973 60.9836C154.844 61.2578 154.741 61.5206 154.62 61.7682C154.498 62.0158 154.362 62.2443 154.305 62.4234C154.627 62.431 155.079 62.4653 155.519 62.5376C156.84 62.7585 158.062 63.3375 159.341 63.8022C161.281 64.5068 163.285 65.0134 165.297 65.4438C168.428 66.1142 171.726 66.0875 173.119 62.5567C171.309 62.8195 169.563 62.7547 167.847 62.4957C166.132 62.2367 164.45 61.7835 162.773 61.2693V61.2731Z" fill="currentColor"/>
<path d="M189.401 65.5771C188.027 64.164 185.67 63.8212 183.89 63.1737C181.791 62.4119 179.597 61.5359 177.324 61.6311C176.526 61.6654 175.87 61.9053 175.407 62.4043C174.818 62.8804 173.858 64.0498 175.061 64.7582C177.054 65.699 187.439 67.3407 189.538 68.1481C193.037 69.1804 196.077 71.4429 199.429 72.4827C199.49 72.4675 199.546 72.456 199.607 72.4408C199.258 71.7209 189.834 66.0228 189.401 65.5771Z" fill="currentColor"/>
<path d="M184.7 60.9493C187.156 61.0369 189.349 62.1567 191.422 61.4483C191.873 61.1778 192.139 60.6827 192.454 60.0695C192.541 59.7762 192.606 59.5019 192.686 59.2429C192.769 58.9801 192.872 58.7325 192.898 58.5497C192.576 58.5878 192.128 58.6221 191.68 58.6183C190.34 58.5954 189.046 58.2031 187.714 57.9365C185.694 57.5289 183.637 57.3232 181.58 57.1975C178.384 57.0033 175.127 57.5175 174.273 61.2159C176.023 60.6865 177.762 60.4922 179.496 60.4922C181.231 60.4922 182.961 60.6903 184.696 60.9493H184.7Z" fill="currentColor"/>
<path d="M193.191 57.6965C194.762 58.8811 197.146 58.8582 199.006 59.2277C201.196 59.6619 203.5 60.1875 205.732 59.7457C206.513 59.5895 207.128 59.2505 207.508 58.6906C208.017 58.1307 208.791 56.8243 207.489 56.3101C205.379 55.6854 194.865 55.6549 192.667 55.1788C189.05 54.6913 185.702 52.9239 182.233 52.4097C182.176 52.4326 182.119 52.4554 182.062 52.4783C182.518 53.1372 192.698 57.327 193.191 57.7003V57.6965Z" fill="currentColor"/>
<path d="M198.544 61.5473C196.103 61.8368 193.765 61.0674 191.822 62.0806C191.416 62.4157 191.23 62.949 191.01 63.6003C190.968 63.9012 190.949 64.1831 190.907 64.4535C190.865 64.7239 190.801 64.9868 190.801 65.1734C191.112 65.0858 191.552 64.983 191.996 64.922C193.321 64.7392 194.661 64.9258 196.02 64.9868C198.077 65.0782 200.142 64.9677 202.191 64.7773C205.38 64.4802 208.522 63.4708 208.803 59.6848C207.152 60.4732 205.467 60.9341 203.751 61.2007C202.036 61.4673 200.297 61.5359 198.544 61.5473Z" fill="currentColor"/>
<path d="M225.244 57.7041C223.513 56.7671 221.16 57.1442 219.27 57.0566C217.038 56.9538 214.685 56.7747 212.54 57.5441C211.789 57.8146 211.235 58.2412 210.939 58.8544C210.517 59.4829 209.948 60.8884 211.307 61.2045C213.485 61.5054 223.889 59.9742 226.132 60.119C229.78 60.0618 233.351 61.3112 236.859 61.3035C236.912 61.2731 236.965 61.2426 237.018 61.2121C236.471 60.6294 225.783 58.0012 225.24 57.7041H225.244Z" fill="currentColor"/>
<path d="M219.383 54.6913C221.752 54.0438 224.181 54.4551 225.949 53.1639C226.299 52.7716 226.409 52.2193 226.526 51.5413C226.526 51.2366 226.504 50.9547 226.504 50.6805C226.504 50.4062 226.53 50.1396 226.504 49.953C226.207 50.0863 225.79 50.2539 225.361 50.3796C224.078 50.7605 222.723 50.7719 221.372 50.9128C219.322 51.1261 217.299 51.5451 215.299 52.0403C212.19 52.8059 209.234 54.2723 209.515 58.0583C211.029 57.0337 212.631 56.3253 214.286 55.8073C215.941 55.2893 217.652 54.9617 219.387 54.6913H219.383Z" fill="currentColor"/>
<path d="M88.1296 39.2833L68.5742 40.9174L68.6372 41.6766L88.1926 40.0425L88.1296 39.2833Z" fill="currentColor"/>
<path d="M63.6022 41.3226L44.0469 42.9566L44.1099 43.7158L63.6652 42.0817L63.6022 41.3226Z" fill="currentColor"/>
<path d="M67.9532 65.3025C67.4294 65.3025 66.9284 65.1121 66.5337 64.7617C66.1048 64.3808 65.8467 63.8552 65.8125 63.28C65.7784 62.7049 65.9681 62.1526 66.3477 61.7184C66.7272 61.2879 67.251 61.0289 67.8242 60.9947C69.0046 60.9261 70.0294 61.8288 70.1015 63.0134C70.1357 63.5885 69.9459 64.1408 69.5663 64.575C69.1868 65.0054 68.663 65.2644 68.0899 65.2987C68.0443 65.2987 67.9988 65.3025 67.9532 65.3025ZM67.957 61.7526C67.9266 61.7526 67.9001 61.7526 67.8697 61.7526C67.4977 61.7755 67.1599 61.9431 66.9132 62.2211C66.6665 62.4992 66.5451 62.8572 66.5678 63.2305C66.5906 63.6038 66.7576 63.9428 67.0347 64.1903C67.3118 64.4379 67.6647 64.5598 68.0405 64.5369C68.4125 64.5141 68.7503 64.3465 68.997 64.0685C69.2437 63.7904 69.3652 63.4324 69.3424 63.0591C69.2968 62.3202 68.6858 61.7526 67.957 61.7526Z" fill="currentColor"/>
<path d="M68.0001 66.0262C66.8766 66.0262 65.9277 65.1464 65.8556 64.0037C65.7835 62.8191 66.6868 61.7945 67.8672 61.7184C68.4366 61.6803 68.9907 61.8745 69.4234 62.2554C69.8523 62.6363 70.1104 63.1619 70.1446 63.7371C70.1787 64.3122 69.989 64.8645 69.6094 65.2987C69.2298 65.7291 68.7061 65.9881 68.1329 66.0224C68.0874 66.0224 68.0418 66.0262 68.0001 66.0262ZM68.0001 62.4763C67.9697 62.4763 67.9432 62.4763 67.9128 62.4763C67.1499 62.522 66.5654 63.1886 66.6109 63.9542C66.6565 64.7198 67.3093 65.3064 68.0836 65.2606C68.8465 65.2149 69.431 64.5484 69.3855 63.7828C69.3399 63.0439 68.725 62.4725 68.0001 62.4725V62.4763Z" fill="currentColor"/>
<path d="M64.3204 20.7687C63.1969 20.7687 62.248 19.8889 62.1759 18.7462C62.1038 17.5578 63.0071 16.5332 64.1876 16.4609C65.3756 16.3885 66.3928 17.295 66.4649 18.4796C66.499 19.0547 66.3093 19.607 65.9297 20.0412C65.5502 20.4716 65.0264 20.7307 64.4532 20.7649C64.4077 20.7649 64.3622 20.7687 64.3204 20.7687ZM64.3204 17.2188C64.29 17.2188 64.2635 17.2188 64.2331 17.2188C63.4702 17.2645 62.8857 17.9273 62.9312 18.6967C62.9768 19.4623 63.6448 20.0527 64.4039 20.0032C65.1668 19.9574 65.7513 19.2947 65.7058 18.5253C65.6602 17.7864 65.0454 17.2188 64.3204 17.2188Z" fill="currentColor"/>
<path d="M64.3673 21.4886C63.8435 21.4886 63.3425 21.2982 62.9477 20.9478C62.5188 20.5669 62.2607 20.0412 62.2266 19.4661C62.1924 18.8909 62.3822 18.3387 62.7618 17.9044C63.1413 17.474 63.6651 17.215 64.2382 17.1807C65.4224 17.116 66.4434 18.0149 66.5156 19.1995C66.5497 19.7746 66.3599 20.3269 65.9804 20.7611C65.6008 21.1915 65.077 21.4505 64.5039 21.4848C64.4584 21.4848 64.4128 21.4886 64.3673 21.4886ZM64.3673 17.9387C64.3369 17.9387 64.3103 17.9387 64.28 17.9387C63.908 17.9616 63.5702 18.1292 63.3235 18.4072C63.0768 18.6853 62.9553 19.0433 62.9781 19.4166C63.0236 20.1822 63.6841 20.7687 64.4508 20.723C65.2137 20.6773 65.7982 20.0146 65.7527 19.2452C65.7071 18.5062 65.0922 17.9387 64.3673 17.9387Z" fill="currentColor"/>
<path d="M66.7839 43.8431L66.0273 43.906L67.6489 63.5308L68.4054 63.4678L66.7839 43.8431Z" fill="currentColor"/>
<path d="M64.7487 19.239L63.9922 19.3019L65.6137 38.9267L66.3702 38.8637L64.7487 19.239Z" fill="currentColor"/>
<path d="M106.003 41.1338L105.855 41.8811L128.042 46.2897L128.19 45.5424L106.003 41.1338Z" fill="currentColor"/>
<path d="M78.1787 35.6055L78.0312 36.3527L100.218 40.7613L100.366 40.0141L78.1787 35.6055Z" fill="currentColor"/>
<path d="M98.3205 67.9469C98.1459 67.9469 97.9713 67.9279 97.7967 67.8898C96.4948 67.6041 95.6674 66.3053 95.9558 64.9988C96.2405 63.6924 97.5348 62.862 98.8367 63.1515C99.4667 63.2924 100.006 63.6695 100.355 64.2142C100.704 64.7589 100.818 65.4102 100.681 66.0425C100.541 66.6747 100.165 67.2156 99.6223 67.566C99.2276 67.8174 98.7797 67.9507 98.3243 67.9507L98.3205 67.9469ZM98.3167 63.8523C97.5538 63.8523 96.8668 64.3818 96.696 65.1588C96.4986 66.0539 97.0679 66.9452 97.9599 67.1432C98.3926 67.2385 98.8367 67.1585 99.2086 66.9185C99.5806 66.6786 99.8387 66.3091 99.9374 65.8749C100.032 65.4407 99.9526 64.995 99.7134 64.6217C99.4743 64.2485 99.1061 63.9895 98.6734 63.8942C98.552 63.8676 98.4343 63.8562 98.3167 63.8562V63.8523Z" fill="currentColor"/>
<path d="M98.1382 68.762C97.9674 68.762 97.7928 68.743 97.6182 68.7049C96.9881 68.564 96.4491 68.1869 96.0999 67.6422C95.7507 67.0975 95.6369 66.4462 95.7773 65.8139C95.9178 65.1817 96.2935 64.6408 96.8363 64.2904C97.379 63.9399 98.0281 63.8257 98.6581 63.9666C99.96 64.2523 100.787 65.5511 100.499 66.8576C100.252 67.9888 99.2465 68.762 98.1382 68.762ZM98.1344 64.6713C97.8231 64.6713 97.5157 64.7589 97.2424 64.9341C96.8704 65.174 96.6123 65.5435 96.5175 65.9777C96.4226 66.4119 96.5023 66.8576 96.7414 67.2308C96.9805 67.6041 97.3487 67.8631 97.7814 67.9583C98.6733 68.1526 99.5615 67.5851 99.7589 66.69C99.9562 65.7949 99.3869 64.9036 98.4949 64.7055C98.3735 64.6789 98.2558 64.6674 98.1344 64.6674V64.6713Z" fill="currentColor"/>
<path d="M108.336 17.4369C108.165 17.4369 107.991 17.4179 107.816 17.3798C106.514 17.0941 105.687 15.7953 105.975 14.4888C106.264 13.1824 107.558 12.352 108.856 12.6415C110.158 12.9272 110.985 14.226 110.697 15.5325C110.45 16.6637 109.445 17.4369 108.336 17.4369ZM107.979 16.6371C108.871 16.8313 109.76 16.2638 109.957 15.3687C110.052 14.9345 109.972 14.4888 109.733 14.1156C109.494 13.7423 109.126 13.4833 108.693 13.3843C107.801 13.1862 106.913 13.7575 106.715 14.6526C106.621 15.0868 106.7 15.5325 106.939 15.9058C107.179 16.279 107.547 16.538 107.979 16.6371Z" fill="currentColor"/>
<path d="M108.16 18.252C107.986 18.252 107.811 18.233 107.637 18.1949C106.335 17.9092 105.507 16.6104 105.796 15.3039C106.084 13.9975 107.375 13.1671 108.677 13.4566C109.307 13.5976 109.846 13.9746 110.195 14.5193C110.544 15.064 110.658 15.7153 110.517 16.3476C110.377 16.9799 110.001 17.5207 109.458 17.8712C109.064 18.1225 108.616 18.2559 108.16 18.2559V18.252ZM107.8 17.4522C108.232 17.5474 108.677 17.4674 109.048 17.2274C109.42 16.9875 109.679 16.618 109.773 16.1838C109.868 15.7496 109.789 15.3039 109.549 14.9307C109.31 14.5574 108.942 14.2984 108.509 14.1994C107.618 14.0013 106.729 14.5688 106.532 15.4677C106.335 16.3628 106.904 17.2541 107.796 17.4522H107.8Z" fill="currentColor"/>
<path d="M102.303 43.59L97.9102 65.8551L98.6548 66.003L103.048 43.738L102.303 43.59Z" fill="currentColor"/>
<path d="M107.807 15.6703L103.414 37.9354L104.159 38.0833L108.552 15.8183L107.807 15.6703Z" fill="currentColor"/>
<path d="M140.726 52.5672L140.578 53.3145L159.224 57.0195L159.372 56.2722L140.726 52.5672Z" fill="currentColor"/>
<path d="M117.343 47.9237L117.195 48.671L135.841 52.376L135.989 51.6287L117.343 47.9237Z" fill="currentColor"/>
<path d="M134.256 75.2178C134.104 75.2178 133.952 75.2025 133.8 75.1682C133.254 75.0464 132.787 74.7226 132.487 74.2503C132.187 73.778 132.085 73.2143 132.206 72.6658C132.453 71.5345 133.573 70.8185 134.7 71.066C135.827 71.3136 136.541 72.4373 136.294 73.5685C136.173 74.117 135.85 74.5855 135.375 74.8864C135.034 75.1035 134.647 75.2178 134.252 75.2178H134.256ZM134.252 71.7783C133.641 71.7783 133.087 72.2049 132.95 72.8296C132.874 73.18 132.939 73.538 133.129 73.8389C133.322 74.1398 133.618 74.3493 133.967 74.4255C134.317 74.5017 134.673 74.4369 134.973 74.2465C135.273 74.0522 135.482 73.7551 135.558 73.4047C135.634 73.0543 135.569 72.6963 135.379 72.3954C135.186 72.0945 134.89 71.885 134.54 71.8088C134.446 71.7859 134.347 71.7783 134.256 71.7783H134.252Z" fill="currentColor"/>
<path d="M134.102 75.9034C133.95 75.9034 133.799 75.8881 133.647 75.8539C132.52 75.6063 131.806 74.4826 132.053 73.3514C132.299 72.2201 133.419 71.5003 134.546 71.7517C135.674 71.9992 136.387 73.1229 136.14 74.2541C136.019 74.8026 135.696 75.2711 135.226 75.572C134.884 75.7891 134.497 75.9034 134.102 75.9034ZM134.095 72.4639C133.844 72.4639 133.597 72.5363 133.381 72.6734C133.081 72.8677 132.873 73.1648 132.797 73.5152C132.637 74.2351 133.096 74.9511 133.814 75.1111C134.163 75.1873 134.52 75.1225 134.82 74.9321C135.119 74.7378 135.328 74.4407 135.404 74.0903C135.48 73.7399 135.416 73.3819 135.226 73.081C135.032 72.7801 134.736 72.5706 134.387 72.4944C134.292 72.4715 134.193 72.4639 134.098 72.4639H134.095Z" fill="currentColor"/>
<path d="M142.669 32.7713C142.521 32.7713 142.369 32.756 142.217 32.7217C141.09 32.4742 140.376 31.3505 140.623 30.2193C140.87 29.088 141.989 28.3681 143.117 28.6195C143.663 28.7414 144.13 29.0652 144.43 29.5375C144.73 30.0098 144.832 30.5735 144.711 31.122C144.494 32.1009 143.629 32.7713 142.669 32.7713ZM142.38 31.979C143.101 32.139 143.811 31.6781 143.971 30.9582C144.047 30.6078 143.982 30.2498 143.792 29.9488C143.599 29.6479 143.303 29.4385 142.953 29.3623C142.604 29.2861 142.247 29.3508 141.948 29.5413C141.648 29.7355 141.439 30.0326 141.363 30.3831C141.204 31.1029 141.663 31.819 142.38 31.979Z" fill="currentColor"/>
<path d="M142.521 33.4569C142.37 33.4569 142.218 33.4416 142.066 33.4073C141.519 33.2855 141.053 32.9617 140.753 32.4894C140.453 32.0171 140.35 31.4534 140.472 30.9049C140.719 29.7736 141.838 29.0538 142.966 29.3051C144.093 29.5527 144.806 30.6763 144.56 31.8076C144.438 32.3561 144.116 32.8246 143.641 33.1255C143.3 33.3426 142.912 33.4569 142.518 33.4569H142.521ZM142.518 30.0174C141.907 30.0174 141.352 30.444 141.216 31.0687C141.14 31.4191 141.204 31.7771 141.394 32.078C141.588 32.3789 141.884 32.5884 142.233 32.6646C142.582 32.7408 142.939 32.676 143.239 32.4856C143.539 32.2913 143.747 31.9942 143.823 31.6438C143.899 31.2934 143.835 30.9354 143.645 30.6344C143.451 30.3335 143.155 30.1241 142.806 30.0479C142.711 30.025 142.613 30.0174 142.521 30.0174H142.518Z" fill="currentColor"/>
<path d="M137.539 54.679L133.848 73.387L134.592 73.535L138.284 54.827L137.539 54.679Z" fill="currentColor"/>
<path d="M142.168 31.2189L138.477 49.9269L139.221 50.0749L142.913 31.3669L142.168 31.2189Z" fill="currentColor"/>
<path d="M176.042 61.2572L176.012 62.0183L196.032 62.8323L196.063 62.0711L176.042 61.2572Z" fill="currentColor"/>
<path d="M150.937 60.2353L150.906 60.9965L170.927 61.8105L170.957 61.0493L150.937 60.2353Z" fill="currentColor"/>
<path d="M172.648 85.8984C172.603 85.8984 172.557 85.8984 172.511 85.8946C171.927 85.8603 171.396 85.5975 171.008 85.1595C170.621 84.7214 170.428 84.1577 170.466 83.5712C170.504 82.9846 170.762 82.4513 171.198 82.0628C171.635 81.6743 172.2 81.4801 172.781 81.5181C173.365 81.5524 173.897 81.8152 174.284 82.2533C174.671 82.6913 174.865 83.255 174.827 83.8416C174.789 84.4282 174.531 84.9614 174.094 85.3499C173.692 85.7079 173.183 85.8984 172.652 85.8984H172.648ZM172.644 82.2723C171.897 82.2723 171.266 82.8589 171.221 83.6169C171.172 84.4053 171.771 85.0871 172.557 85.1328C173.339 85.1785 174.022 84.5805 174.068 83.7921C174.09 83.4112 173.965 83.0417 173.715 82.756C173.46 82.4704 173.115 82.299 172.735 82.2761C172.705 82.2761 172.675 82.2761 172.648 82.2761L172.644 82.2723Z" fill="currentColor"/>
<path d="M172.601 86.6373C172.556 86.6373 172.51 86.6373 172.465 86.6335C171.88 86.5992 171.349 86.3364 170.962 85.8984C170.574 85.4604 170.381 84.8967 170.419 84.3101C170.457 83.7235 170.715 83.1903 171.151 82.8017C171.588 82.4132 172.153 82.219 172.734 82.2571C173.319 82.2914 173.85 82.5542 174.237 82.9922C174.624 83.4302 174.818 83.9939 174.78 84.5805C174.742 85.1671 174.484 85.7003 174.047 86.0888C173.645 86.4469 173.136 86.6373 172.605 86.6373H172.601ZM172.597 83.0112C172.248 83.0112 171.918 83.1369 171.656 83.3693C171.371 83.6245 171.201 83.9711 171.178 84.352C171.129 85.1404 171.728 85.8222 172.514 85.8679C172.893 85.8908 173.262 85.7651 173.546 85.5137C173.831 85.2585 174.002 84.9119 174.025 84.531C174.074 83.7426 173.474 83.0608 172.688 83.0151C172.658 83.0151 172.628 83.0151 172.597 83.0151V83.0112Z" fill="currentColor"/>
<path d="M174.535 40.3133C174.489 40.3133 174.444 40.3133 174.398 40.3095C173.814 40.2752 173.282 40.0124 172.895 39.5744C172.508 39.1364 172.314 38.5727 172.352 37.9861C172.39 37.3995 172.648 36.8663 173.085 36.4778C173.521 36.0893 174.087 35.895 174.668 35.9331C175.252 35.9674 175.784 36.2302 176.171 36.6682C176.558 37.1062 176.751 37.67 176.713 38.2565C176.641 39.4182 175.677 40.3133 174.531 40.3133H174.535ZM174.447 39.5477C175.245 39.5935 175.913 38.9955 175.958 38.207C176.007 37.4186 175.408 36.7368 174.622 36.6911C174.243 36.6644 173.874 36.7939 173.59 37.0453C173.305 37.3005 173.134 37.6471 173.111 38.028C173.089 38.4089 173.214 38.7783 173.464 39.064C173.719 39.3497 174.064 39.5211 174.444 39.5439L174.447 39.5477Z" fill="currentColor"/>
<path d="M174.492 41.0485C174.446 41.0485 174.401 41.0485 174.355 41.0446C173.771 41.0104 173.239 40.7475 172.852 40.3095C172.465 39.8715 172.271 39.3078 172.309 38.7212C172.347 38.1346 172.605 37.6014 173.042 37.2129C173.478 36.8244 174.044 36.6301 174.625 36.6682C175.209 36.7025 175.741 36.9653 176.128 37.4033C176.515 37.8414 176.708 38.4051 176.67 38.9916C176.633 39.5782 176.374 40.1115 175.938 40.5C175.536 40.858 175.027 41.0485 174.496 41.0485H174.492ZM174.488 37.4224C173.74 37.4224 173.11 38.0089 173.065 38.7669C173.015 39.5554 173.615 40.2372 174.401 40.2829C175.183 40.3248 175.866 39.7306 175.911 38.9421C175.934 38.5612 175.809 38.1918 175.558 37.9061C175.304 37.6204 174.959 37.449 174.579 37.4262C174.549 37.4262 174.518 37.4262 174.492 37.4262L174.488 37.4224Z" fill="currentColor"/>
<path d="M173.109 63.972L172.305 84.0631L173.063 84.0937L173.867 64.0026L173.109 63.972Z" fill="currentColor"/>
<path d="M174.124 38.7751L173.32 58.8662L174.079 58.8967L174.883 38.8057L174.124 38.7751Z" fill="currentColor"/>
<path d="M235.106 52.4697L212.941 56.991L213.093 57.7375L235.257 53.2162L235.106 52.4697Z" fill="currentColor"/>
<path d="M207.309 58.1333L185.145 62.6545L185.296 63.401L207.46 58.8798L207.309 58.1333Z" fill="currentColor"/>
<path d="M215.211 84.9071C214.725 84.9071 214.247 84.7585 213.837 84.4729C213.306 84.1034 212.949 83.5473 212.835 82.9112C212.6 81.5933 213.473 80.3288 214.782 80.0888C216.092 79.8527 217.356 80.7287 217.595 82.0428C217.709 82.6789 217.572 83.3264 217.204 83.8596C216.836 84.3929 216.282 84.7509 215.648 84.8652C215.503 84.8918 215.355 84.9033 215.211 84.9033V84.9071ZM215.219 80.8163C215.12 80.8163 215.021 80.8239 214.923 80.843C214.023 81.0068 213.424 81.8752 213.587 82.7779C213.75 83.6806 214.612 84.2862 215.515 84.1186C215.951 84.0387 216.331 83.7949 216.581 83.4292C216.836 83.0636 216.931 82.6217 216.851 82.1837C216.707 81.38 216.004 80.8163 215.219 80.8163Z" fill="currentColor"/>
<path d="M215.364 85.726C214.875 85.726 214.4 85.5774 213.99 85.2918C213.459 84.9223 213.102 84.3662 212.988 83.7301C212.874 83.094 213.011 82.4465 213.379 81.9133C213.747 81.38 214.302 81.0258 214.935 80.9077C216.245 80.6716 217.509 81.5476 217.748 82.8617C217.983 84.1796 217.11 85.4441 215.801 85.6841C215.657 85.7108 215.509 85.7222 215.364 85.7222V85.726ZM215.372 81.6314C215.273 81.6314 215.175 81.639 215.076 81.6581C214.639 81.7381 214.26 81.9818 214.009 82.3475C213.755 82.7131 213.66 83.155 213.74 83.593C213.819 84.031 214.062 84.4119 214.427 84.6633C214.791 84.9185 215.231 85.0137 215.668 84.9337C216.567 84.77 217.167 83.9015 217.004 82.9988C216.86 82.1951 216.158 81.6314 215.372 81.6314Z" fill="currentColor"/>
<path d="M205.051 34.4238C204.565 34.4238 204.087 34.2752 203.677 33.9896C203.146 33.6201 202.789 33.064 202.675 32.4279C202.44 31.11 203.313 29.8455 204.622 29.6055C205.26 29.4912 205.901 29.6284 206.433 29.9978C206.964 30.3673 207.321 30.9234 207.435 31.5595C207.549 32.1956 207.412 32.8431 207.044 33.3763C206.676 33.9096 206.121 34.2638 205.488 34.3819C205.343 34.4085 205.195 34.42 205.051 34.42V34.4238ZM205.059 30.3292C204.96 30.3292 204.861 30.3368 204.759 30.3559C203.859 30.5196 203.26 31.3881 203.423 32.2908C203.502 32.7288 203.745 33.1097 204.11 33.3611C204.474 33.6163 204.918 33.7115 205.351 33.6315C205.787 33.5515 206.167 33.3078 206.417 32.9421C206.672 32.5764 206.767 32.1346 206.687 31.6966C206.607 31.2586 206.364 30.8777 206 30.6263C205.719 30.432 205.393 30.3292 205.059 30.3292Z" fill="currentColor"/>
<path d="M205.203 35.2465C204.718 35.2465 204.239 35.0979 203.829 34.8123C203.298 34.4428 202.941 33.8867 202.827 33.2506C202.592 31.9327 203.465 30.6682 204.775 30.4282C206.088 30.1921 207.348 31.0681 207.587 32.3822C207.701 33.0183 207.564 33.6658 207.196 34.199C206.828 34.7323 206.274 35.0903 205.64 35.2046C205.496 35.2313 205.348 35.2427 205.203 35.2427V35.2465ZM205.211 31.1557C205.112 31.1557 205.014 31.1633 204.915 31.1824C204.015 31.3462 203.416 32.2146 203.579 33.1173C203.742 34.02 204.604 34.6218 205.507 34.458C205.944 34.3781 206.323 34.1343 206.574 33.7686C206.828 33.403 206.923 32.9611 206.843 32.5231C206.699 31.7194 205.997 31.1557 205.211 31.1557Z" fill="currentColor"/>
<path d="M211.217 60.5622L210.473 60.7138L214.974 82.9571L215.718 82.8055L211.217 60.5622Z" fill="currentColor"/>
<path d="M205.572 32.6675L204.828 32.8191L209.33 55.0623L210.074 54.9107L205.572 32.6675Z" fill="currentColor"/>
</svg>
