<svg width="143" height="143" viewBox="0 0 143 143" fill="none" xmlns="http://www.w3.org/2000/svg">
<path d="M82.8737 116.84C82.0588 116.84 81.3457 116.546 80.8194 115.983C80.1487 115.267 79.8941 114.219 80.1275 113.102C80.1657 112.906 80.2294 112.718 80.3143 112.518C80.8024 111.376 81.9145 110.668 83.2175 110.664C84.5545 110.664 85.6963 111.393 86.2014 112.569C86.3797 112.987 86.4646 113.366 86.4603 113.728C86.4434 114.947 84.5843 116.627 83.3873 116.801C83.2133 116.827 83.0393 116.84 82.8737 116.84ZM83.2175 111.516C82.4662 111.516 81.5155 111.87 81.0953 112.85C81.0316 112.995 80.9892 113.136 80.9594 113.272C80.7854 114.112 80.9594 114.883 81.4391 115.395C81.8763 115.864 82.5257 116.06 83.2685 115.953C84.1343 115.83 85.6029 114.423 85.6114 113.711C85.6114 113.473 85.552 113.204 85.4247 112.902C84.9875 111.879 83.9985 111.512 83.2218 111.512L83.2175 111.516ZM95.1022 104.118C94.3976 104.118 93.4256 103.423 92.9205 102.895C92.5597 102.511 92.4154 102.2 92.4706 101.919C92.704 100.691 93.6123 99.1482 94.6692 98.803C95.3526 98.5771 96.1039 99.0587 97.1438 99.7236C97.6276 100.03 98.1752 100.384 98.7906 100.708C98.918 100.776 99.0029 100.9 99.0156 101.045C99.0283 101.19 98.9689 101.326 98.8586 101.416C98.3195 101.85 97.8696 102.272 97.4706 102.639C96.6217 103.427 96.0105 103.998 95.2422 104.105C95.1998 104.109 95.1531 104.113 95.1064 104.113L95.1022 104.118ZM93.3152 102.025C93.4808 102.417 94.7117 103.316 95.1191 103.265C95.6242 103.193 96.1548 102.698 96.8933 102.017C97.1777 101.752 97.4918 101.462 97.8441 101.156C97.4239 100.908 97.0377 100.665 96.6896 100.44C95.9426 99.9623 95.238 99.5105 94.9366 99.6085C94.2533 99.8344 93.519 101.075 93.3195 102.021L93.3152 102.025ZM83.2685 93.3008C83.2685 93.3008 83.2557 93.3008 83.2515 93.3008C83.1157 93.2965 82.9926 93.2283 82.9162 93.1133C82.6063 92.653 82.2922 92.2566 81.9909 91.8688C81.3415 91.042 80.7812 90.3302 80.7133 89.5204C80.6411 88.6723 82.0206 87.6068 82.08 87.5642C82.7846 87.0272 83.1241 87.0613 83.3151 87.1337C84.4824 87.577 85.6029 88.7106 85.9255 89.7804C86.1038 90.3813 85.5605 90.9652 84.7371 91.8475C84.3805 92.231 83.9773 92.6615 83.5995 93.1388C83.5189 93.2411 83.3958 93.3008 83.2685 93.3008ZM83.0732 87.9563C82.687 88.0586 81.5791 89.0942 81.5622 89.4565C81.6089 90.002 82.0758 90.5944 82.6615 91.3445C82.861 91.6003 83.0775 91.8773 83.2982 92.1756C83.5826 91.8475 83.8627 91.5449 84.1174 91.2678C84.5333 90.8203 85.1021 90.2109 85.1063 90.0063C84.8729 89.2306 83.9646 88.3143 83.069 87.952L83.0732 87.9563ZM109.814 82.9485C109.682 82.9485 109.559 82.8888 109.478 82.7822C109.338 82.599 109.194 82.437 109.067 82.3006C108.761 81.9597 108.494 81.6656 108.536 81.2905C108.6 80.7407 109.215 80.2847 109.631 80.1313C109.652 80.1228 109.669 80.1185 109.691 80.1142C109.648 79.6923 109.517 79.2661 109.381 78.8271L109.355 78.7461C108.939 77.4079 108.438 76.0014 107.734 74.1944C107.581 73.8065 107.229 73.4315 106.974 73.1885C106.41 72.6387 106.189 72.0122 106.236 71.1002C106.269 70.512 106.155 69.9068 105.93 69.4721C105.62 68.8797 105.34 68.2617 105.064 67.665C104.275 65.9432 103.528 64.3193 102.178 63.0322C101.864 62.7296 101.707 62.3077 101.567 61.9326L101.545 61.873C101.218 60.9993 100.688 60.2747 99.8687 59.6013C99.2872 59.124 98.9307 58.3654 98.6591 57.6877C98.3747 56.976 98.0096 56.2685 97.2966 55.9105C96.4859 55.5013 95.9765 54.8833 95.6921 53.9585C95.4545 53.1871 94.873 52.6884 94.0665 52.1812C93.6038 51.8872 92.9714 51.4013 92.5767 50.7449C91.957 49.7221 91.3203 49.1254 90.4417 48.7546C89.2108 48.2346 88.867 47.5485 89.215 46.321C89.5121 45.2768 89.5885 44.2113 89.6734 43.0819C89.7711 41.765 89.8729 40.4011 90.3483 39.0927C90.3483 39.0927 90.3483 39.0884 90.3483 39.0842C90.3271 39.0756 90.3101 39.0671 90.2889 39.0586C90.1615 38.9989 90.03 38.9393 89.9366 38.935C88.6081 38.8711 87.2753 38.7219 85.9849 38.5813C84.9153 38.4662 83.8118 38.3426 82.7252 38.2701C81.9399 38.219 81.1547 38.2701 80.327 38.3298C79.0537 38.4193 77.7421 38.5131 76.4178 38.1849C76.3669 38.1721 76.2735 38.1849 76.1886 38.1849L76.057 38.1934C74.5545 38.2787 73.1623 37.9505 71.8083 37.1876C71.3329 36.9191 70.8066 36.7358 70.2505 36.5355C70.0935 36.4801 69.9322 36.4247 69.7752 36.365C69.4738 36.2542 69.1682 36.1562 68.8626 36.0582C68.3999 35.909 67.9203 35.7556 67.4619 35.5553C66.2565 35.0438 64.8345 34.5281 63.2513 34.5452C62.7632 34.5579 62.2963 34.413 61.8464 34.2767C61.753 34.2468 61.6596 34.2213 61.5663 34.1914C61.1715 34.0806 60.7938 33.9485 60.3523 33.7951C60.2887 33.7737 60.2208 33.7482 60.1571 33.7269C60.1231 33.876 60.0892 34.0252 60.051 34.1701C59.9067 34.7753 59.7793 35.2953 59.8048 35.7939C59.8854 37.2132 59.5374 38.4406 59.1681 39.7405L59.045 40.1795C58.7012 41.424 58.107 42.14 56.9992 42.66C56.7742 42.7665 56.545 42.856 56.3158 42.9455C56.0357 43.0563 55.7725 43.1586 55.5221 43.2865C55.0552 43.5294 54.584 43.7937 54.1299 44.0536C53.7564 44.2667 53.3786 44.4798 53.0008 44.6802C52.5127 44.9401 52.0161 45.1788 51.5238 45.3791C51.163 45.5283 50.7979 45.6647 50.4329 45.801C49.8599 46.0141 49.2699 46.2358 48.7181 46.4958C48.1154 46.7813 47.4702 47.1606 46.6893 47.6976C44.7453 49.0402 42.7334 50.4722 41.1205 51.6229C41.0101 51.6996 40.904 51.8232 40.7936 51.9511C40.7342 52.0193 40.6748 52.0875 40.6154 52.1514C40.0296 52.7694 39.359 53.3064 38.7138 53.8221C37.6782 54.6532 36.6977 55.4374 36.0228 56.5412C35.9464 56.6648 35.8403 56.7245 35.7851 56.7586C34.5882 57.5726 33.7138 58.6509 32.7842 59.7931C32.7036 59.8912 32.6272 59.9892 32.5465 60.0872C32.6654 60.1895 32.7545 60.3216 32.8564 60.4665C32.9158 60.5518 32.9795 60.6455 33.0644 60.7563C33.1578 60.8799 33.179 61.0419 33.1196 61.1868C33.0601 61.3317 32.9243 61.4255 32.7715 61.4425C32.6272 61.4553 32.5041 61.4766 32.398 61.4979C32.1306 61.5448 31.8759 61.5874 31.6425 61.4425C31.583 61.4084 31.5363 61.3615 31.4981 61.3147C31.2477 61.5874 30.9888 61.8517 30.7214 62.1031C30.6365 62.1798 30.5644 62.3247 30.488 62.4782C30.4243 62.6018 30.3606 62.7339 30.2757 62.8618C30.1357 63.0706 29.9829 63.2666 29.8301 63.467C29.7494 63.5735 29.6688 63.6801 29.5881 63.7866L29.0533 64.5069C28.9642 64.6262 28.8793 64.7413 28.7901 64.8606L28.9684 64.9416C28.8156 65.2698 28.4973 65.5766 28.1365 65.7471C27.8818 66.0923 27.6314 66.4376 27.381 66.7828L26.6934 66.2841C26.8844 66.0241 27.0711 65.7642 27.2621 65.5042C27.0711 65.3081 26.8546 65.014 26.9226 64.7157L27.7078 64.899C27.7248 64.8734 27.7418 64.8521 27.7587 64.8265C27.7587 64.7839 27.7502 64.7541 27.7418 64.7413C27.7502 64.7541 27.763 64.7754 27.7757 64.7967C27.9752 64.5282 28.1704 64.2639 28.3699 63.9954L28.9047 63.2752C28.9854 63.1643 29.0703 63.0535 29.1552 62.9427C29.2995 62.7552 29.4396 62.5719 29.5711 62.3801C29.6306 62.2906 29.6773 62.1926 29.7282 62.0946C29.8301 61.89 29.9447 61.6599 30.1441 61.4766C30.8657 60.8075 31.5024 60.019 32.1221 59.2561C33.0474 58.1139 34.0024 56.9333 35.2885 56.0596C35.3012 56.0511 35.3182 56.0426 35.3352 56.0298C36.0865 54.8322 37.1518 53.9798 38.1833 53.153C38.8072 52.6543 39.4524 52.1386 39.9999 51.559C40.0508 51.5036 40.1018 51.4439 40.1527 51.3842C40.2843 51.2308 40.4371 51.0603 40.6281 50.9239C42.2453 49.7732 44.2571 48.3369 46.2096 46.9901C47.0288 46.4276 47.7122 46.0227 48.3573 45.7158C48.9431 45.443 49.5501 45.2129 50.1358 44.9955C50.4923 44.8634 50.8489 44.727 51.2012 44.5821C51.6638 44.3903 52.135 44.1687 52.5976 43.9215C52.9711 43.7212 53.3404 43.5124 53.7097 43.3035C54.1723 43.0435 54.6477 42.775 55.1273 42.5236C55.416 42.3744 55.7131 42.2593 56.0017 42.1443C56.2139 42.059 56.4262 41.9781 56.6341 41.88C57.5128 41.4666 57.9457 40.9424 58.2216 39.9408L58.3447 39.4976C58.6927 38.2701 59.0196 37.1066 58.9474 35.8323C58.9134 35.2058 59.0578 34.6006 59.2148 33.9613C59.2827 33.68 59.3549 33.3859 59.4101 33.0833C59.4313 32.964 59.5077 32.8574 59.6138 32.7935C59.7199 32.7296 59.8472 32.7168 59.9661 32.7594C60.1995 32.8404 60.416 32.9128 60.624 32.9853C61.0484 33.1344 61.4177 33.2623 61.7912 33.3689C61.8889 33.3987 61.9865 33.4243 62.0841 33.4541C62.4916 33.5777 62.8693 33.6928 63.2301 33.6842C63.2683 33.6842 63.3108 33.6842 63.349 33.6842C65.0255 33.6842 66.5281 34.2255 67.7845 34.7625C68.2132 34.9458 68.6504 35.0864 69.1173 35.2356C69.4356 35.3379 69.7497 35.4402 70.0595 35.5553C70.2123 35.6107 70.3694 35.6661 70.5222 35.7215C71.0867 35.9218 71.6725 36.1264 72.2115 36.4332C73.4212 37.1151 74.6606 37.405 75.9976 37.3325L76.1037 37.324C76.248 37.3112 76.4263 37.2984 76.6088 37.341C77.8015 37.6351 78.9942 37.5499 80.2549 37.4604C81.0783 37.4007 81.9272 37.3453 82.7676 37.4007C83.8669 37.4731 84.9832 37.5967 86.0613 37.7161C87.3389 37.8567 88.6632 38.0016 89.9663 38.0656C90.2252 38.0783 90.4502 38.1806 90.6284 38.2616C90.6836 38.2872 90.7388 38.3128 90.7897 38.3298C90.9001 38.3682 90.9892 38.4534 91.0359 38.5642C91.0529 38.6111 91.0784 38.6494 91.0953 38.6835C91.1675 38.8114 91.2736 39.0075 91.1845 39.2376C90.7048 40.4693 90.6115 41.7607 90.5096 43.1203C90.4247 44.2412 90.3398 45.4004 90.0215 46.5256C89.7923 47.3354 89.9239 47.5868 90.7643 47.9448C91.8042 48.3838 92.5852 49.1041 93.294 50.2804C93.5359 50.6853 93.9689 51.0944 94.5122 51.4396C95.3441 51.9681 96.159 52.6032 96.4944 53.6857C96.7108 54.3932 97.0631 54.8237 97.6701 55.1263C98.6421 55.6164 99.109 56.5242 99.4401 57.351C99.6565 57.8965 99.9664 58.5657 100.404 58.9237C101.342 59.6994 101.957 60.5347 102.335 61.5533L102.356 61.613C102.462 61.8985 102.581 62.2267 102.755 62.3929C104.224 63.7951 105.039 65.5724 105.828 67.2857C106.1 67.8738 106.376 68.479 106.677 69.0544C106.974 69.6255 107.118 70.3799 107.08 71.1215C107.042 71.7863 107.174 72.1742 107.56 72.5492C107.895 72.8774 108.307 73.3206 108.519 73.8577C109.236 75.686 109.741 77.1053 110.162 78.4691L110.187 78.5501C110.374 79.151 110.578 79.8031 110.548 80.4978C110.718 80.6683 110.896 80.9112 110.904 81.1712C110.913 81.525 110.722 81.8318 110.497 82.1813C110.399 82.3305 110.289 82.5052 110.179 82.7055C110.111 82.8334 109.983 82.9144 109.839 82.9271C109.826 82.9271 109.818 82.9271 109.805 82.9271L109.814 82.9485ZM109.389 81.3587C109.44 81.444 109.584 81.6059 109.695 81.7253C109.716 81.7466 109.733 81.7679 109.754 81.7935C109.767 81.7764 109.775 81.7594 109.788 81.7423C109.839 81.6571 109.894 81.5761 109.941 81.4951L109.508 81.2905C109.529 81.2437 109.55 81.1968 109.567 81.1456C109.483 81.2224 109.415 81.2991 109.389 81.3545V81.3587ZM101.46 82.6203C101.066 82.6203 100.709 82.4583 100.48 82.1643C100.238 81.8617 100.17 81.4525 100.289 81.0519C100.433 80.5575 101.112 80.0716 101.639 80.0844C102.012 80.1015 102.284 80.37 102.594 80.6811C102.717 80.8047 102.857 80.9453 103.018 81.0817C103.12 81.167 103.175 81.2991 103.167 81.4312C103.158 81.5633 103.09 81.6869 102.98 81.7636C102.802 81.883 102.645 82.0066 102.509 82.1174C102.186 82.3731 101.906 82.5947 101.545 82.616C101.516 82.616 101.486 82.616 101.456 82.616L101.46 82.6203ZM101.592 80.9411C101.469 80.9411 101.146 81.1755 101.104 81.3033C101.066 81.4355 101.078 81.5548 101.146 81.64C101.219 81.7338 101.35 81.7807 101.499 81.7722C101.592 81.7679 101.804 81.6017 101.987 81.4525C102.016 81.4269 102.05 81.4014 102.084 81.3758C102.055 81.3459 102.029 81.3204 101.999 81.2948C101.859 81.1542 101.668 80.9624 101.592 80.9453V80.9411ZM94.9069 79.0274C94.7626 79.0274 94.5037 78.9635 94.1302 78.5799C93.8967 78.337 93.519 77.8724 93.6123 77.4633C93.7185 76.9945 94.0283 76.6066 94.4188 76.1208C94.5971 75.8991 94.805 75.6434 95.0258 75.3366C95.1107 75.2215 95.2507 75.1533 95.3908 75.1618C95.5351 75.1703 95.6667 75.2513 95.7346 75.3749C95.9298 75.7159 96.1336 76.0142 96.3118 76.2785C96.7278 76.8922 97.0292 77.3312 96.8679 77.7829C96.6217 78.4776 95.62 78.9038 95.0088 79.0189C94.9876 79.0232 94.9494 79.0317 94.9027 79.0317L94.9069 79.0274ZM94.457 77.5954C94.5207 77.7488 94.7881 78.06 94.9409 78.1623C95.446 78.0429 95.9893 77.7275 96.0741 77.4974C96.0614 77.4121 95.8152 77.0499 95.6157 76.7601C95.5266 76.6279 95.4332 76.4873 95.3356 76.3381C95.2465 76.4489 95.1616 76.5555 95.0852 76.6535C94.7711 77.0456 94.5376 77.3354 94.4612 77.5954H94.457ZM105.616 78.2731C105.539 78.2731 105.459 78.2518 105.378 78.2049C105.102 78.0472 104.937 77.7829 104.792 77.5528C104.746 77.4803 104.703 77.4036 104.652 77.3397C104.584 77.2459 104.559 77.1266 104.58 77.0115C104.601 76.8964 104.669 76.7942 104.767 76.7302C104.826 76.6919 104.89 76.6407 104.949 76.5938C105.14 76.4404 105.378 76.2486 105.684 76.2316C105.972 76.2145 106.227 76.3296 106.524 76.4617C106.656 76.5214 106.813 76.5896 106.995 76.6578C107.148 76.7132 107.254 76.8538 107.267 77.0115C107.284 77.1735 107.208 77.3312 107.072 77.4164C106.77 77.6082 106.533 77.7744 106.354 77.9065C106.049 78.1239 105.832 78.2773 105.616 78.2773V78.2731ZM105.565 77.1905C105.599 77.2459 105.633 77.2971 105.667 77.344C105.726 77.3013 105.794 77.2545 105.862 77.2076C105.892 77.1863 105.921 77.165 105.951 77.1436C105.854 77.1053 105.777 77.084 105.726 77.084C105.696 77.0925 105.629 77.1394 105.561 77.1905H105.565ZM101.414 74.0281C101.414 74.0281 101.384 74.0281 101.371 74.0281C101.015 74.0111 100.828 73.6957 100.662 73.4144C100.616 73.3377 100.573 73.261 100.527 73.2013C100.454 73.1075 100.429 72.9882 100.446 72.8689C100.467 72.7538 100.535 72.6515 100.633 72.5876C100.705 72.5407 100.777 72.481 100.853 72.4256C101.078 72.2509 101.333 72.0548 101.66 72.0122C101.999 71.9739 102.224 72.2211 102.466 72.4896C102.556 72.5876 102.657 72.7027 102.776 72.8135C102.878 72.9115 102.929 73.0521 102.908 73.1885C102.887 73.3292 102.797 73.4485 102.67 73.5082C102.517 73.5806 102.386 73.6531 102.267 73.7213C101.974 73.8832 101.719 74.0281 101.418 74.0281H101.414ZM101.435 73.0521C101.456 73.0862 101.477 73.1246 101.499 73.1544C101.579 73.1246 101.685 73.0692 101.787 73.0095C101.749 72.9669 101.707 72.9243 101.673 72.8902C101.601 72.9285 101.516 72.9882 101.431 73.0521H101.435ZM40.2334 70.5717C40.106 70.5717 39.9829 70.512 39.9023 70.414C39.7707 70.252 39.6264 70.0986 39.4991 69.9579C39.1383 69.5701 38.8539 69.2675 39.0024 68.8967C39.151 68.5217 39.4736 68.2659 39.758 68.0401C39.8556 67.9633 39.9532 67.8866 40.0423 67.8014C40.1272 67.7247 40.2376 67.6778 40.3522 67.6863C40.4668 67.6906 40.5729 67.746 40.6493 67.8312C40.7215 67.9122 40.8064 67.9932 40.8955 68.0742C41.1629 68.3256 41.4685 68.6069 41.4982 68.999C41.5279 69.3783 41.2605 69.6596 40.9507 69.9835C40.8318 70.1071 40.7002 70.2478 40.5729 70.4055C40.4923 70.5077 40.3692 70.5631 40.2418 70.5631L40.2334 70.5717ZM39.8641 69.0885C39.932 69.1737 40.0381 69.2846 40.1187 69.3741C40.157 69.4124 40.1952 69.455 40.2334 69.4977C40.2673 69.4636 40.297 69.4295 40.3267 69.3954C40.4371 69.2803 40.5856 69.1226 40.6323 69.0416C40.5899 68.9606 40.4159 68.7987 40.3098 68.6964C40.3098 68.6964 40.3013 68.6879 40.297 68.6879C40.2928 68.6921 40.2843 68.6964 40.28 68.7049C40.1187 68.8328 39.9575 68.9606 39.8598 69.0885H39.8641ZM32.1009 70.1753C31.7061 70.1753 31.3114 69.796 31.235 69.715C31.0143 69.4891 30.9209 69.2803 30.9506 69.0715C31.0185 68.6154 31.4048 67.8994 31.9268 67.7843C32.2961 67.7076 32.6229 67.9292 32.9965 68.1935C33.1493 68.3 33.3233 68.4236 33.5185 68.5387C33.6416 68.6112 33.718 68.739 33.7265 68.8797C33.735 69.0203 33.6713 69.161 33.5567 69.2462C33.3827 69.3783 33.2342 69.5104 33.1026 69.6212C32.7927 69.8898 32.5253 70.1242 32.173 70.171C32.1476 70.171 32.1221 70.1753 32.0966 70.1753H32.1009ZM31.8165 69.0928C31.8886 69.1737 32.0245 69.2803 32.1051 69.3144C32.2112 69.276 32.3852 69.1226 32.5508 68.9777C32.5635 68.9649 32.5763 68.9564 32.589 68.9436C32.5635 68.9265 32.5381 68.9095 32.5126 68.8925C32.3725 68.7944 32.19 68.6666 32.1009 68.6282C32.0117 68.6964 31.8802 68.901 31.8207 69.0928H31.8165ZM83.4298 66.8424C83.3533 66.8424 83.2769 66.8211 83.209 66.7785C83.1241 66.7274 83.018 66.6762 82.9119 66.6208C82.5129 66.4248 82.1394 66.2415 82.1606 65.8451C82.1819 65.453 82.3474 65.095 82.5045 64.7498C82.5596 64.6262 82.6191 64.4984 82.67 64.3662C82.7167 64.2512 82.8101 64.1617 82.9247 64.119C83.0393 64.0764 83.1708 64.0892 83.2769 64.1531L84.3848 64.7967C84.4824 64.8521 84.5545 64.9501 84.5843 65.0609C84.614 65.1717 84.597 65.2911 84.5376 65.3891L83.7905 66.6293C83.7311 66.7274 83.6377 66.7956 83.5274 66.8254C83.4934 66.8339 83.4595 66.8382 83.4255 66.8382L83.4298 66.8424ZM83.035 65.7301C83.1072 65.7684 83.2005 65.8196 83.2727 65.8537L83.5868 65.3252L83.26 65.1376C83.1666 65.3465 83.0732 65.5468 83.0308 65.7301H83.035ZM44.2105 66.1051C44.2105 66.1051 44.1892 66.1051 44.1807 66.1051C43.7223 66.0923 43.3488 65.4658 43.3064 65.3934C43.2088 65.2271 43.0984 64.98 43.2257 64.7413C43.4295 64.3577 43.8921 63.9187 44.393 63.8207C44.758 63.744 45.0127 64.0338 45.3055 64.3662C45.4159 64.4898 45.5432 64.6347 45.6918 64.7754C45.7894 64.8691 45.8361 65.0055 45.8191 65.1419C45.8022 65.2783 45.7173 65.3976 45.5984 65.4616C45.4371 65.5468 45.2928 65.6406 45.1655 65.7215C44.8514 65.9219 44.5543 66.1094 44.2147 66.1094L44.2105 66.1051ZM44.0619 65.0055C44.1171 65.0908 44.202 65.1888 44.2614 65.2442C44.3718 65.2144 44.5458 65.0993 44.7071 64.997C44.7113 64.997 44.7156 64.9927 44.7198 64.9885C44.7028 64.9714 44.6858 64.9544 44.6731 64.9331C44.601 64.8521 44.5118 64.7541 44.4482 64.6901C44.3166 64.7498 44.1723 64.8691 44.0661 65.0055H44.0619ZM36.3539 65.8451C36.3539 65.8451 36.3157 65.8451 36.2987 65.8451C35.9676 65.811 35.7002 65.615 35.4668 65.4445C35.3904 65.3891 35.314 65.3337 35.2376 65.2868C35.1399 65.2271 35.0678 65.1249 35.0423 65.0098C35.0168 64.8947 35.0423 64.7754 35.1102 64.6816C35.1527 64.6177 35.1951 64.541 35.2376 64.46C35.3946 64.1744 35.5686 63.8463 35.9252 63.8164C36.2478 63.7909 36.5321 63.9272 36.8335 64.0764C36.9566 64.1361 37.0924 64.2043 37.241 64.2639C37.3683 64.3151 37.4659 64.4302 37.4956 64.5665C37.5254 64.7029 37.4872 64.8478 37.3938 64.9501C37.2834 65.0695 37.1858 65.1931 37.1009 65.3039C36.8802 65.5852 36.6765 65.8494 36.3624 65.8494L36.3539 65.8451ZM36.0186 64.7924C36.1077 64.8564 36.2011 64.9203 36.2775 64.9586C36.3157 64.916 36.3581 64.8606 36.3963 64.8095C36.2817 64.7541 36.1671 64.6987 36.0822 64.6731C36.061 64.7072 36.0355 64.7498 36.0143 64.7882L36.0186 64.7924ZM40.1145 61.792C40.1145 61.792 40.0806 61.792 40.0636 61.792C39.9447 61.7749 39.8386 61.711 39.7665 61.613C39.7325 61.5661 39.6901 61.5192 39.6519 61.4681C39.5033 61.2933 39.3165 61.076 39.3165 60.7776C39.3208 60.4836 39.5203 60.2875 39.707 60.0957C39.7749 60.0275 39.8513 59.9508 39.9277 59.8613C40.0126 59.759 40.14 59.6994 40.2673 59.7121C40.3989 59.7164 40.5177 59.7803 40.5941 59.8869C40.6663 59.9849 40.7427 60.0787 40.8148 60.1639C41.0313 60.4239 41.252 60.6924 41.0865 61.0035C40.9549 61.2507 40.7427 61.4127 40.5559 61.5533C40.4965 61.5959 40.4413 61.6428 40.3862 61.6897C40.3098 61.7579 40.2079 61.792 40.1103 61.792H40.1145Z" fill="currentColor"/>
</svg>
