<svg width="143" height="143" viewBox="0 0 143 143" fill="none" xmlns="http://www.w3.org/2000/svg">
<path d="M123.246 60.8726H19.7539V52.3779H123.246V60.876V60.8726ZM21.4663 59.1676H121.534V54.0796H21.4663V59.1676Z" fill="currentColor"/>
<path d="M39.4078 99.6222C28.2294 99.6222 19.1367 90.5682 19.1367 79.4374C19.1367 68.3067 28.2294 59.2527 39.4078 59.2527C50.5862 59.2527 59.6789 68.3067 59.6789 79.4374C59.6789 90.5682 50.5862 99.6222 39.4078 99.6222ZM39.4078 60.9544C29.1746 60.9544 20.8491 69.2445 20.8491 79.434C20.8491 89.6236 29.1746 97.9137 39.4078 97.9137C49.6409 97.9137 57.9665 89.6236 57.9665 79.434C57.9665 69.2445 49.6409 60.9544 39.4078 60.9544Z" fill="currentColor"/>
<path d="M103.591 99.6222C92.413 99.6222 83.3203 90.5682 83.3203 79.4374C83.3203 68.3067 92.413 59.2527 103.591 59.2527C114.77 59.2527 123.862 68.3067 123.862 79.4374C123.862 90.5682 114.77 99.6222 103.591 99.6222ZM103.591 60.9544C93.3582 60.9544 85.0327 69.2445 85.0327 79.434C85.0327 89.6236 93.3582 97.9137 103.591 97.9137C113.825 97.9137 122.15 89.6236 122.15 79.434C122.15 69.2445 113.825 60.9544 103.591 60.9544Z" fill="currentColor"/>
</svg>
