<svg width="279" height="97" viewBox="0 0 279 97" fill="none" xmlns="http://www.w3.org/2000/svg">
<path d="M35.7024 38.7894C37.5162 40.2631 40.3276 40.3217 42.5125 40.8283C45.0848 41.427 47.7808 42.1387 50.4315 41.6949C51.359 41.54 52.0969 41.1548 52.5669 40.4975C53.1893 39.8486 54.1457 38.3163 52.6287 37.6548C50.1594 36.8342 37.7512 36.4072 35.1706 35.7583C30.9205 35.0465 27.029 32.8109 22.952 32.0698C22.886 32.0949 22.816 32.1201 22.75 32.1452C23.2612 32.949 35.1294 38.3247 35.7024 38.7894Z" stroke="currentColor" stroke-miterlimit="10"/>
<path d="M41.8803 43.5873C38.9905 43.8427 36.2574 42.8379 33.9283 43.9808C33.4377 44.366 33.1987 44.994 32.9183 45.7685C32.8565 46.1286 32.8235 46.4635 32.7658 46.7859C32.7081 47.1082 32.6215 47.418 32.6133 47.6399C32.9843 47.5436 33.5078 47.439 34.0314 47.3804C35.602 47.2087 37.1767 47.485 38.7803 47.6064C41.2084 47.7948 43.6488 47.732 46.0727 47.5813C49.8446 47.3427 53.5918 46.2542 54.0618 41.741C52.0872 42.6243 50.0755 43.1142 48.0432 43.3654C46.0109 43.6208 43.9538 43.6417 41.8803 43.5873Z" stroke="currentColor" stroke-miterlimit="10"/>
<path d="M73.5426 39.9784C71.535 38.7936 68.7442 39.1578 66.5099 38.9862C63.8798 38.781 61.1055 38.4838 58.5497 39.3211C57.6551 39.6142 56.9832 40.104 56.6122 40.8283C56.0927 41.5651 55.3672 43.223 56.9625 43.6501C59.5266 44.0897 71.8607 42.6411 74.5031 42.8965C78.8109 42.9593 82.9827 44.5879 87.1257 44.7051C87.1875 44.6716 87.2535 44.6339 87.3153 44.6004C86.6887 43.8845 74.1692 40.351 73.5385 39.9784H73.5426Z" stroke="currentColor" stroke-miterlimit="10"/>
<path d="M66.7307 36.1644C69.5504 35.4778 72.4031 36.0597 74.5384 34.5777C74.9672 34.1213 75.1114 33.464 75.2763 32.6602C75.2846 32.2959 75.2681 31.961 75.2763 31.6345C75.2887 31.3079 75.3258 30.9897 75.3011 30.7678C74.9466 30.9185 74.4478 31.1028 73.9366 31.2367C72.4072 31.6428 70.8077 31.6093 69.2083 31.7266C66.7802 31.9066 64.3769 32.3336 61.9983 32.8486C58.3006 33.6524 54.7554 35.2936 54.9532 39.8277C56.7794 38.6555 58.6922 37.8725 60.6668 37.3157C62.6414 36.7589 64.6737 36.4282 66.7266 36.1686L66.7307 36.1644Z" stroke="currentColor" stroke-miterlimit="10"/>
<path d="M82.225 30.7087C83.2597 32.823 85.7825 34.079 87.551 35.4731C89.6328 37.1143 91.7847 38.9187 94.3735 39.6514C95.2804 39.9068 96.109 39.8733 96.8057 39.4797C97.6384 39.1574 99.143 38.1777 98.0424 36.9301C96.1461 35.1256 85.0694 29.4276 83 27.7362C79.4424 25.2703 76.8412 21.5777 73.4526 19.1578C73.3826 19.1494 73.3084 19.1452 73.2383 19.1368C73.3702 20.083 81.8993 30.043 82.225 30.7087Z" stroke="currentColor" stroke-miterlimit="10"/>
<path d="M85.8371 37.7088C83.1123 36.704 81.0511 34.6232 78.4623 34.6609C77.8563 34.7991 77.3781 35.268 76.8051 35.8457C76.6031 36.1472 76.43 36.436 76.2445 36.6998C76.059 36.9677 75.8528 37.2106 75.7539 37.4115C76.129 37.4827 76.6485 37.6125 77.1473 37.7841C78.6437 38.3033 79.9587 39.2243 81.3603 40.024C83.4833 41.2339 85.7217 42.222 87.9849 43.1221C91.5054 44.5246 95.3556 45.1359 97.6518 41.2465C95.4916 41.2004 93.4676 40.7818 91.5218 40.1454C89.572 39.5048 87.7004 38.6424 85.8413 37.7088H85.8371Z" stroke="currentColor" stroke-miterlimit="10"/>
<path d="M116.043 47.987C114.712 46.0528 112.032 45.1903 110.078 44.0767C107.778 42.7662 105.387 41.3051 102.72 40.9702C101.784 40.8529 100.972 41.0079 100.337 41.5061C99.5581 41.9498 98.2142 43.1472 99.4839 44.2148C101.623 45.7136 113.409 49.6784 115.705 51.0432C119.584 52.9482 122.693 56.2095 126.399 58.0893C126.469 58.0852 126.543 58.081 126.613 58.0768C126.345 57.1599 116.456 48.594 116.039 47.987H116.043Z" stroke="currentColor" stroke-miterlimit="10"/>
<path d="M111.452 41.615C114.296 42.2011 116.638 43.9469 119.19 43.5199C119.767 43.2896 120.171 42.7579 120.657 42.0964C120.814 41.7699 120.942 41.4559 121.086 41.167C121.234 40.8739 121.399 40.6018 121.469 40.3925C121.086 40.3757 120.554 40.3297 120.039 40.2334C118.485 39.9487 117.05 39.2328 115.545 38.655C113.27 37.78 110.912 37.1353 108.542 36.5868C104.856 35.7327 100.961 35.7034 99.2539 39.8984C101.393 39.6179 103.459 39.7268 105.479 40.0659C107.499 40.405 109.477 40.9744 111.452 41.6191V41.615Z" stroke="currentColor" stroke-miterlimit="10"/>
<path d="M125.449 41.7952C126.071 44.0727 128.33 45.8102 129.81 47.5267C131.558 49.553 133.343 51.7468 135.763 52.9777C136.612 53.4089 137.432 53.5429 138.199 53.2917C139.086 53.141 140.755 52.4753 139.902 51.0351C138.368 48.8873 128.499 41.1002 126.776 39.0278C123.726 35.9004 121.854 31.7598 118.964 28.7161C118.894 28.6952 118.824 28.6743 118.754 28.6533C118.705 29.6079 125.251 41.0751 125.449 41.791V41.7952Z" stroke="currentColor" stroke-miterlimit="10"/>
<path d="M127.699 49.3772C125.197 47.8491 123.552 45.3999 120.988 44.9226C120.366 44.9394 119.805 45.3036 119.125 45.7599C118.865 46.0153 118.647 46.2623 118.407 46.4884C118.172 46.7145 117.925 46.9113 117.789 47.0871C118.148 47.2336 118.634 47.4597 119.096 47.7277C120.477 48.5315 121.598 49.6996 122.835 50.7588C124.702 52.3665 126.726 53.7815 128.796 55.1129C132.007 57.1853 135.696 58.5501 138.698 55.1882C136.575 54.7152 134.654 53.9071 132.848 52.8898C131.042 51.8766 129.356 50.6583 127.695 49.373L127.699 49.3772Z" stroke="currentColor" stroke-miterlimit="10"/>
<path d="M155.6 65.4539C154.652 63.2936 152.166 61.912 150.447 60.4342C148.423 58.6925 146.337 56.7876 143.765 55.9293C142.862 55.6279 142.03 55.6237 141.312 55.9838C140.459 56.2643 138.905 57.1728 139.96 58.4748C141.79 60.3672 152.686 66.5969 154.693 68.3888C158.169 71.0264 160.621 74.8446 163.927 77.4235C163.998 77.4319 164.072 77.4445 164.142 77.4528C164.047 76.4983 155.897 66.1322 155.596 65.4539H155.6Z" stroke="currentColor" stroke-miterlimit="10"/>
<path d="M152.263 58.2864C154.963 59.4252 156.946 61.6022 159.547 61.6901C160.161 61.5813 160.66 61.1375 161.266 60.5849C161.485 60.296 161.666 60.0155 161.868 59.7559C162.066 59.4963 162.284 59.2661 162.392 59.0693C162.016 58.9772 161.501 58.8265 161.006 58.6297C159.522 58.0394 158.24 57.0555 156.868 56.1889C154.786 54.8785 152.576 53.7816 150.338 52.7726C146.859 51.2026 143.017 50.403 140.539 54.1835C142.707 54.3342 144.723 54.8492 146.657 55.5818C148.59 56.3145 150.437 57.2691 152.263 58.2906V58.2864Z" stroke="currentColor" stroke-miterlimit="10"/>
<path d="M164.019 58.3908C165.379 60.3041 168.071 61.1289 170.037 62.209C172.354 63.486 174.766 64.9094 177.441 65.2025C178.377 65.3071 179.189 65.1355 179.816 64.6289C180.587 64.1726 181.914 62.9584 180.628 61.9076C178.468 60.4423 166.624 56.6534 164.312 55.3262C160.404 53.4799 157.246 50.2687 153.515 48.4434C153.445 48.4475 153.371 48.4559 153.301 48.4601C153.585 49.3728 163.594 57.7879 164.023 58.3908H164.019Z" stroke="currentColor" stroke-miterlimit="10"/>
<path d="M168.708 64.6959C165.855 64.1558 163.489 62.4435 160.941 62.9082C160.368 63.1468 159.968 63.6869 159.494 64.3526C159.342 64.6833 159.218 64.9973 159.078 65.2904C158.938 65.5834 158.773 65.8598 158.707 66.0733C159.09 66.0816 159.622 66.1235 160.142 66.2114C161.7 66.4752 163.147 67.1702 164.656 67.7228C166.943 68.5643 169.31 69.1714 171.688 69.6863C175.386 70.486 179.282 70.4567 180.926 66.2366C178.791 66.5506 176.726 66.471 174.702 66.1654C172.678 65.8556 170.691 65.3155 168.708 64.7001V64.6959Z" stroke="currentColor" stroke-miterlimit="10"/>
<path d="M200.159 69.837C198.535 68.1498 195.752 67.7395 193.65 66.965C191.172 66.0523 188.579 65.0098 185.892 65.1187C184.952 65.1564 184.173 65.4453 183.628 66.0439C182.932 66.6133 181.798 68.0117 183.224 68.8574C185.578 69.9794 197.842 71.9429 200.324 72.91C204.459 74.1451 208.049 76.8497 212.007 78.0889C212.077 78.0722 212.147 78.0554 212.217 78.0387C211.805 77.1804 200.674 70.3646 200.163 69.8329L200.159 69.837Z" stroke="currentColor" stroke-miterlimit="10"/>
<path d="M194.602 64.3107C197.5 64.4153 200.093 65.7551 202.542 64.9094C203.074 64.587 203.391 63.9925 203.762 63.264C203.865 62.9165 203.94 62.5858 204.039 62.276C204.137 61.962 204.257 61.6689 204.29 61.447C203.911 61.4931 203.379 61.5349 202.851 61.5266C201.272 61.5014 199.739 61.0325 198.164 60.7102C195.777 60.2245 193.349 59.9775 190.921 59.831C187.149 59.5965 183.299 60.2161 182.289 64.6331C184.358 64.0009 186.407 63.7664 188.456 63.7664C190.505 63.7664 192.55 64.0009 194.598 64.3107H194.602Z" stroke="currentColor" stroke-miterlimit="10"/>
<path d="M204.634 60.4171C206.493 61.8322 209.305 61.8071 211.502 62.2467C214.091 62.7658 216.807 63.3938 219.446 62.8663C220.369 62.6821 221.095 62.276 221.544 61.6019C222.146 60.9321 223.057 59.3747 221.523 58.7592C219.029 58.014 206.613 57.9763 204.016 57.4069C199.745 56.825 195.792 54.7107 191.694 54.0995C191.628 54.1246 191.558 54.1539 191.492 54.179C192.028 54.9661 204.053 59.9733 204.638 60.4171H204.634Z" stroke="currentColor" stroke-miterlimit="10"/>
<path d="M210.952 65.0225C208.07 65.3658 205.308 64.4489 203.012 65.6631C202.534 66.065 202.312 66.6972 202.056 67.4801C202.006 67.8401 201.982 68.175 201.932 68.5016C201.883 68.824 201.809 69.138 201.809 69.3599C202.175 69.2552 202.695 69.1296 203.218 69.0584C204.785 68.8365 206.368 69.0626 207.971 69.138C210.404 69.251 212.84 69.1129 215.26 68.8868C219.023 68.5309 222.734 67.3252 223.067 62.8036C221.118 63.7456 219.127 64.2982 217.102 64.6164C215.078 64.9346 213.021 65.0183 210.952 65.0309V65.0225Z" stroke="currentColor" stroke-miterlimit="10"/>
<path d="M242.491 60.4297C240.446 59.3076 237.668 59.7598 235.433 59.6551C232.799 59.5337 230.017 59.3202 227.486 60.2371C226.599 60.5594 225.944 61.0702 225.593 61.8029C225.095 62.5565 224.423 64.2353 226.03 64.6121C228.607 64.9722 240.891 63.1426 243.542 63.3142C247.85 63.2473 252.071 64.7419 256.214 64.7293C256.276 64.6916 256.338 64.6582 256.4 64.6205C255.752 63.9255 243.134 60.7813 242.491 60.4297Z" stroke="currentColor" stroke-miterlimit="10"/>
<path d="M235.567 56.8292C238.366 56.0547 241.231 56.5487 243.325 54.9996C243.741 54.5307 243.865 53.8692 244.005 53.057C244.005 52.6928 243.976 52.3579 243.976 52.0313C243.976 51.7047 244.005 51.3824 243.976 51.1647C243.63 51.3238 243.131 51.5247 242.624 51.6754C241.107 52.1276 239.507 52.1443 237.912 52.3118C235.492 52.5672 233.101 53.0696 230.739 53.6599C227.07 54.5768 223.575 56.3268 223.904 60.8526C225.694 59.6259 227.586 58.7802 229.54 58.1647C231.494 57.5451 233.518 57.1516 235.562 56.8292H235.567Z" stroke="currentColor" stroke-miterlimit="10"/>
</svg>
