<svg width="143" height="143" viewBox="0 0 143 143" fill="none" xmlns="http://www.w3.org/2000/svg">
<path d="M46.4688 71.8755C46.5063 71.8729 46.5439 71.8676 46.5814 71.8649C46.6592 71.817 46.6163 71.8223 46.4688 71.8755Z" fill="currentColor"/>
<path d="M46.5833 71.8649C46.5484 71.8862 46.4894 71.9155 46.4062 71.9581C46.8086 71.9315 47.168 71.9022 47.4899 71.8702C47.7313 71.7796 47.4658 71.7876 46.5833 71.8675V71.8649Z" fill="currentColor"/>
<path d="M52.8587 98.4512C52.797 98.2993 52.7406 98.1395 52.6602 97.9797C52.6602 98.2035 52.6602 98.4219 52.8587 98.4512Z" fill="currentColor"/>
<path d="M45.3962 72.4566C45.4177 72.4273 45.4338 72.4034 45.4499 72.3794C45.3077 72.438 45.1521 72.5046 44.9805 72.5738C45.1253 72.5339 45.2621 72.4939 45.3962 72.4566Z" fill="currentColor"/>
<path d="M44.621 72.4345C44.6076 72.4078 44.5942 72.3839 44.5781 72.3625C44.5808 72.3945 44.5835 72.4265 44.5808 72.4664C44.5942 72.4558 44.6076 72.4451 44.621 72.4345Z" fill="currentColor"/>
<path d="M45.1914 72.7124C45.5589 72.5179 45.862 72.3688 46.098 72.2649C45.8861 72.3235 45.6528 72.3874 45.4006 72.4567C45.347 72.5286 45.2799 72.6138 45.1941 72.7124H45.1914Z" fill="currentColor"/>
<path d="M51.4472 90.1415C51.2809 90.1016 51.0851 90.1016 50.9805 90.1016C51.1414 90.1016 51.297 90.1175 51.4472 90.1415Z" fill="currentColor"/>
<path d="M54.4743 93.5428C54.3804 93.6467 54.2865 93.7559 54.1953 93.8677C54.2034 93.8598 54.2114 93.8544 54.2195 93.8464C54.5199 93.5774 54.7667 93.2205 55.0671 92.9648C55 93.0208 54.933 93.082 54.8686 93.1433C54.7452 93.2818 54.6111 93.4123 54.4743 93.5428Z" fill="currentColor"/>
<path d="M46.0938 72.2641C46.2869 72.2108 46.4639 72.1629 46.6222 72.1203C46.649 72.051 46.4586 72.1016 46.0938 72.2641Z" fill="currentColor"/>
<path d="M51.8906 87.3017C51.9174 87.2751 51.9443 87.2485 51.9684 87.2218C51.9979 87.1366 51.9684 87.1659 51.8906 87.3017Z" fill="currentColor"/>
<path d="M52.6631 86.6498C52.7892 86.4261 52.5907 86.6019 51.9657 87.2251C51.9523 87.2624 51.9282 87.3237 51.8906 87.4089C52.183 87.1319 52.4378 86.8789 52.6631 86.6498Z" fill="currentColor"/>
<path d="M73.9873 103.584C73.8424 103.509 73.6976 103.418 73.5312 103.349C73.6761 103.52 73.8209 103.687 73.9873 103.584Z" fill="currentColor"/>
<path d="M51.4433 88.4345C51.4433 88.3999 51.438 88.3706 51.4326 88.3413C51.3628 88.4771 51.2851 88.6263 51.1992 88.7888C51.2824 88.6662 51.3628 88.5491 51.4433 88.4345Z" fill="currentColor"/>
<path d="M50.8383 88.9141C50.8115 88.9008 50.7846 88.8928 50.7578 88.8875C50.7793 88.9088 50.8034 88.9354 50.8276 88.9647C50.8302 88.946 50.8356 88.9327 50.8383 88.9141Z" fill="currentColor"/>
<path d="M51.4495 88.7614C51.605 88.3779 51.7418 88.0689 51.8518 87.8398C51.7284 88.0183 51.5889 88.2181 51.4414 88.4338C51.4468 88.5244 51.4495 88.6309 51.4468 88.7614H51.4495Z" fill="currentColor"/>
<path d="M67.5254 98.1211C67.3725 98.1983 67.2223 98.3209 67.1445 98.3874C67.2679 98.2836 67.3967 98.1983 67.5254 98.1211Z" fill="currentColor"/>
<path d="M72.0443 99.2209C72.0443 99.2209 72.047 99.1996 72.0497 99.1889C72.106 98.792 72.0631 98.3579 72.1275 97.9744C72.1141 98.0596 72.1006 98.1502 72.0899 98.238C72.0845 98.4218 72.0685 98.6083 72.047 98.7947C72.0416 98.9359 72.0416 99.077 72.047 99.2209H72.0443Z" fill="currentColor"/>
<path d="M51.8555 87.84C51.9708 87.6748 52.0727 87.5284 52.1666 87.3925C52.1425 87.3233 52.0298 87.4831 51.8555 87.84Z" fill="currentColor"/>
<path d="M66.025 95.6658C66.0277 95.6285 66.0304 95.5913 66.0357 95.554C66.0035 95.4687 65.9982 95.5114 66.025 95.6658Z" fill="currentColor"/>
<path d="M66.0352 95.554C66.0486 95.5913 66.07 95.6552 66.0969 95.7431C66.1398 95.3436 66.1746 94.9867 66.1961 94.667C66.1478 94.414 66.1103 94.6777 66.0352 95.5513V95.554Z" fill="currentColor"/>
<path d="M93.4938 94.0303C93.3328 94.0649 93.1639 94.0915 92.9922 94.1421C93.2121 94.1821 93.4321 94.2167 93.4938 94.0303Z" fill="currentColor"/>
<path d="M66.4186 96.8159C66.3945 96.7919 66.373 96.7706 66.3516 96.752C66.3864 96.9011 66.424 97.0636 66.4615 97.2447C66.4454 97.0955 66.432 96.9544 66.4186 96.8185V96.8159Z" fill="currentColor"/>
<path d="M66.2614 97.5698C66.2319 97.5778 66.2051 97.5885 66.1836 97.5991C66.2158 97.5991 66.248 97.6071 66.2855 97.6151C66.2775 97.5991 66.2694 97.5858 66.2614 97.5698Z" fill="currentColor"/>
<path d="M66.6347 97.0638C66.5059 96.6696 66.4094 96.3473 66.3477 96.0996C66.3691 96.3153 66.3906 96.5577 66.4174 96.8161C66.4818 96.88 66.5515 96.9626 66.6347 97.0638Z" fill="currentColor"/>
<path d="M105.357 98.6036C102.645 98.9951 90.3487 98.1215 90.3997 96.4888C90.2307 96.8058 90.1234 96.8084 90.051 96.638C89.7774 95.7617 89.6674 95.0159 89.3187 94.2275L89.2758 94.4619C89.2972 94.3447 89.2597 94.2169 89.1899 94.0837C89.1899 93.9719 89.2328 93.8786 89.316 93.8014C90.8208 94.0038 92.1995 94.4886 93.5085 93.9905C93.5059 94.0065 93.5005 94.0171 93.4951 94.0305C93.8143 93.9612 94.104 93.8493 94.3428 93.4099C92.5509 94.4859 90.4882 93.3992 89.1819 91.929C89.4099 92.2912 89.6486 92.6614 90.0241 92.8905C89.5306 92.5922 89.2302 92.0861 88.9056 91.6014C88.7876 91.4522 88.6803 91.3004 88.5784 91.1459C88.5059 91.0554 88.4281 90.9675 88.345 90.8876C88.2189 90.6186 88.1465 90.3416 88.3664 89.9394L88.0875 90.1338C88.3772 89.3188 90.3326 89.2922 90.9978 89.2229C92.5617 89.0605 94.1362 89.0205 95.7027 88.89C96.3009 88.8394 95.8851 87.5929 96.4538 87.4038C96.5262 87.3798 96.6013 87.3532 96.655 87.2973C96.7864 87.1667 106.145 88.8953 106.134 88.7328C106.124 88.573 106.105 88.4186 106.129 88.2827C106.274 88.1469 111.271 88.7781 111.55 88.5864C111.193 88.2774 105.625 87.3452 105.18 87.2706C104.375 87.1374 95.2011 86.1786 94.3857 86.128C92.5617 86.0188 90.7269 86.0081 88.9029 86.0481C88.7795 86.0508 88.6588 86.0534 88.5354 86.0561C88.4764 86.0561 88.412 86.0587 88.3638 86.0934C88.3208 86.1227 88.2967 86.1706 88.2699 86.2132C87.7441 87.0362 86.8509 86.1307 86.7061 85.5047C86.698 85.4728 86.6926 85.4355 86.7061 85.4062C86.7248 85.3742 86.7624 85.3583 86.7973 85.3476C88.3503 84.8442 90.0697 84.8629 91.6926 84.8202C92.5831 84.7963 93.4737 84.767 94.3642 84.7883C95.1797 84.8069 104.412 85.9096 105.209 85.6752C105.265 85.6592 105.324 85.6379 105.365 85.5953C105.55 85.4009 105.131 85.2784 105.013 85.2517C104.737 85.1958 104.45 85.2118 104.174 85.1638C102.473 84.8735 92.4115 83.7629 90.7001 83.5578C89.9598 83.4699 89.7452 83.1742 89.316 82.6176C89.3053 82.6043 89.2972 82.5909 89.2865 82.5776C89.5225 82.551 89.7586 82.5243 89.9946 82.4977C91.1373 82.2101 92.331 81.8851 93.5541 81.5815C93.8036 81.5309 94.0557 81.4829 94.3159 81.4457C95.7644 81.2379 97.0224 82.4471 98.3583 81.4057C99.2783 80.6013 98.141 79.5999 98.9752 79.1231C99.686 78.4413 100.373 79.1418 101.059 79.8476C101.244 80.1725 101.432 80.5081 101.778 80.636C102.017 80.7026 102.264 80.7958 102.54 80.9289C103.648 81.4643 105.22 82.6442 108.516 85.3609C101.934 77.7914 103.997 81.1953 102.417 80.3084C101.167 78.0338 103.117 79.7437 110.166 84.1464C99.4554 77.1016 120.458 70.6454 125.92 68.171C119.372 68.6158 113.353 72.7761 114.297 70.1952C112.473 72.2248 102.486 79.4054 101.47 78.1217C101.545 78.4732 101.464 78.5425 101.298 78.4573C100.523 77.9619 99.9543 77.4611 99.1764 77.0776L99.2971 77.2853C99.2381 77.1815 99.1254 77.1096 98.9859 77.051C98.9108 76.9684 98.8867 76.8645 98.9001 76.7553C100.185 75.951 101.553 75.4396 102.234 74.225C102.242 74.2384 102.245 74.2517 102.25 74.265C102.449 74.0093 102.599 73.7376 102.497 73.2476C101.821 75.2158 99.5385 75.7006 97.5857 75.4076C97.9425 75.5221 98.3073 75.6367 98.6828 75.6207C98.1705 75.65 97.6662 75.4795 97.1619 75.3304C96.9742 75.2904 96.7918 75.2451 96.6174 75.1919C96.5021 75.1679 96.3867 75.1519 96.2714 75.1413C96.0005 75.0161 95.7671 74.851 95.6732 74.4008L95.5847 74.7258C95.2789 73.9161 96.7596 72.6456 97.2236 72.1689C98.3154 71.0449 99.4983 70.0115 100.611 68.9115C101.035 68.4906 99.9114 67.8035 100.225 67.2921C100.265 67.2282 100.303 67.1589 100.311 67.0817C100.327 66.8979 108.616 62.2502 108.5 62.1303C108.388 62.0158 108.275 61.9066 108.205 61.7894C108.227 61.5923 112.468 58.8862 112.553 58.5613C112.079 58.5533 107.21 61.3899 106.821 61.6189C106.118 62.0291 98.4682 67.1509 97.8137 67.633C96.3465 68.7117 94.9356 69.8756 93.5622 71.0715C93.471 71.1514 93.3771 71.2313 93.2859 71.3112C93.2403 71.3512 93.1947 71.3938 93.1786 71.4497C93.1652 71.5003 93.1786 71.5509 93.184 71.6015C93.3127 72.5657 92.044 72.4432 91.5263 72.057C91.4994 72.0357 91.4726 72.0144 91.4646 71.9798C91.4565 71.9425 91.478 71.9078 91.4968 71.8759C92.3605 70.4989 93.6909 69.4149 94.9061 68.3495C95.574 67.7635 96.2365 67.1722 96.9312 66.6182C97.567 66.1122 105.354 61.0623 105.813 60.3751C105.845 60.3272 105.877 60.2739 105.88 60.2153C105.896 59.949 105.496 60.1194 105.389 60.178C105.139 60.3112 104.933 60.5056 104.689 60.6468C103.2 61.5097 94.7719 67.079 93.3288 68.0165C92.7038 68.4214 92.3471 68.3308 91.6604 68.179C91.6443 68.1763 91.6282 68.171 91.6121 68.1684C91.7757 67.9979 91.9394 67.8274 92.103 67.6543C92.7897 66.7035 93.4951 65.694 94.2382 64.6819C94.3991 64.4821 94.56 64.285 94.7317 64.0906C95.7081 63.0093 97.4516 63.1318 97.803 61.4804C97.9881 60.2766 96.4672 60.2366 96.7971 59.339C96.8991 58.3642 97.8808 58.4627 98.8626 58.564C99.2139 58.6945 99.5761 58.833 99.9221 58.7104C100.147 58.6092 100.397 58.5213 100.695 58.4494C101.888 58.1511 103.857 58.0526 108.141 58.0286C98.2 56.4305 101.982 57.7223 100.196 58.0499C97.7655 57.1071 100.365 57.171 108.616 56.0443C95.8503 57.4853 107.76 39.1314 110.343 33.7513C105.614 38.2738 103.699 45.3 102.749 42.7218C102.666 45.4411 99.6646 57.3148 98.0552 56.9819C98.3395 57.2029 98.3234 57.3068 98.141 57.3494C97.2236 57.464 96.4645 57.4453 95.6223 57.6477L95.8476 57.7303C95.7349 57.6903 95.6008 57.7037 95.4586 57.7489C95.3486 57.733 95.2628 57.6717 95.2011 57.5758C95.6652 56.1402 96.384 54.8751 96.1158 53.5087C96.1319 53.5141 96.1426 53.522 96.1534 53.53C96.1399 53.2078 96.0783 52.9041 95.6839 52.5925C96.4404 54.5315 95.0053 56.3586 93.3208 57.3814C93.6668 57.2429 94.0209 57.0964 94.2998 56.846C93.927 57.1949 93.4308 57.3867 92.9479 57.5945C92.7789 57.6824 92.6099 57.7649 92.441 57.8342C92.339 57.8901 92.2371 57.9514 92.1432 58.018C91.8535 58.0952 91.5692 58.1192 91.2071 57.8342L91.3519 58.1405C90.5928 57.7143 90.9066 55.7966 90.9522 55.1361C91.0622 53.578 91.2983 52.0332 91.4378 50.4777C91.4914 49.8838 90.1824 50.0755 90.0939 49.4843C90.0832 49.4097 90.0671 49.3324 90.0241 49.2685C89.9168 49.1167 93.2591 40.2661 93.0928 40.2474C92.9318 40.2314 92.7736 40.2208 92.6448 40.1755C92.5348 40.0104 94.0289 35.2321 93.8868 34.9258C93.5193 35.2215 91.6255 40.5031 91.4753 40.9266C91.2017 41.6883 88.6588 50.4964 88.4684 51.2821C88.0419 53.0453 87.7146 54.8378 87.4383 56.6303C87.4196 56.7501 87.4008 56.87 87.382 56.9899C87.374 57.0485 87.3632 57.1124 87.3901 57.1656C87.4115 57.2136 87.4544 57.2456 87.492 57.2802C88.2162 57.9354 87.1621 58.6519 86.5183 58.6865C86.4834 58.6865 86.4485 58.6865 86.4217 58.6678C86.3922 58.6439 86.3842 58.6039 86.3788 58.5693C86.1508 56.9632 86.4673 55.2853 86.7061 53.6925C86.8375 52.8189 86.9636 51.9426 87.1379 51.0743C87.2989 50.2806 89.9946 41.4433 89.9008 40.623C89.8954 40.5644 89.8847 40.5058 89.8498 40.4578C89.6888 40.2421 89.493 40.631 89.4474 40.7428C89.3428 41.0038 89.3106 41.2862 89.2141 41.5498C88.632 43.1612 85.7806 52.8082 85.2817 54.4463C85.0644 55.1574 84.7345 55.3146 84.1068 55.6368C84.0934 55.6448 84.0773 55.6501 84.0612 55.6581C84.0747 55.4238 84.0908 55.1867 84.1042 54.9523C84.0156 53.7857 83.903 52.5605 83.8145 51.3141C83.8091 51.061 83.8037 50.8053 83.8118 50.5443C83.8574 49.0927 85.2764 48.0726 84.4743 46.5838C83.8386 45.545 82.6476 46.4826 82.3177 45.585C81.7651 44.7726 82.5806 44.2213 83.3987 43.6726C83.7528 43.5474 84.1203 43.4222 84.3053 43.108C84.4126 42.8869 84.5467 42.6605 84.7292 42.4128C85.4507 41.4247 86.8965 40.0903 90.1609 37.3389C81.5103 42.4607 85.2442 41.0358 84.0881 42.4261C81.6149 43.2545 83.6482 41.6431 89.2409 35.5145C80.3944 44.7646 77.637 23.1055 76.1322 17.3364C75.4374 23.8166 78.5168 30.4246 76.1214 29.0529C77.8194 31.189 83.2056 42.1997 81.7571 42.9721C82.1192 42.9588 82.1729 43.0494 82.0602 43.1985C81.4325 43.8724 80.837 44.3411 80.3247 45.0336L80.55 44.9511C80.4374 44.991 80.3435 45.0896 80.263 45.2147C80.1664 45.2733 80.0618 45.2813 79.9545 45.2467C79.3805 43.8511 79.1123 42.4235 78.0232 41.5472C78.0393 41.5419 78.0527 41.5419 78.0661 41.5392C77.8462 41.2995 77.6048 41.1077 77.1005 41.121C78.9352 42.1225 79.0184 44.4397 78.3907 46.2988C78.5651 45.9712 78.7421 45.6329 78.7931 45.2627C78.7341 45.7687 78.4765 46.2322 78.2405 46.6983C78.1681 46.8741 78.0903 47.0445 78.0071 47.207C77.9642 47.3162 77.9267 47.4254 77.8972 47.5373C77.7255 47.7797 77.5216 47.9821 77.0603 47.9927L77.3687 48.1366C76.5131 48.2937 75.5098 46.6264 75.1182 46.0884C74.1928 44.8232 73.372 43.4888 72.4761 42.2077C72.1328 41.7203 71.2556 42.7005 70.805 42.3036C70.7486 42.253 70.687 42.2024 70.6118 42.1837C70.4321 42.1358 67.2616 33.2239 67.1248 33.3145C66.9907 33.405 66.8646 33.4982 66.7358 33.5435C66.5454 33.4876 64.598 28.8718 64.2895 28.7307C64.1983 29.1914 66.1672 34.4464 66.3254 34.8672C66.6098 35.6263 70.3624 43.9949 70.7245 44.7193C71.5399 46.3414 72.4493 47.9235 73.3961 49.4736C73.4605 49.5775 73.5222 49.6814 73.5866 49.7852C73.6188 49.8358 73.651 49.8891 73.7046 49.9157C73.7502 49.937 73.8039 49.9344 73.8575 49.937C74.8366 49.977 74.4932 51.1995 74.0211 51.6363C73.997 51.6603 73.9675 51.6816 73.9353 51.6843C73.8977 51.6843 73.8656 51.6603 73.8387 51.6337C72.6236 50.5496 71.7787 49.0608 70.931 47.6891C70.467 46.9353 69.9949 46.1842 69.5657 45.4092C69.1741 44.698 65.518 36.2096 64.9172 35.6397C64.8743 35.5997 64.8287 35.5597 64.7696 35.5464C64.5068 35.4852 64.6087 35.906 64.6463 36.0205C64.7348 36.2869 64.893 36.5239 64.9896 36.7849C65.5878 38.391 69.6489 47.6012 70.3275 49.1753C70.6226 49.8571 70.4697 50.1901 70.1988 50.8346C70.1934 50.8506 70.1854 50.8639 70.18 50.8799C70.0378 50.6908 69.8983 50.5017 69.7562 50.3099C68.9327 49.4736 68.0529 48.608 67.1784 47.7077C67.0094 47.516 66.8404 47.3242 66.6768 47.1218C65.7729 45.9792 66.1993 44.2932 64.6194 43.6646C63.458 43.2758 63.1522 44.754 62.3206 44.2772C61.3711 44.0082 61.6393 43.0653 61.9102 42.1225C62.1007 41.8002 62.3019 41.4726 62.2402 41.1104C62.1785 40.8733 62.1356 40.6123 62.1141 40.3087C62.0256 39.0888 62.2697 37.1472 62.9912 32.9549C59.6812 42.3995 61.6179 38.9237 61.634 40.7268C60.2767 42.9402 60.7917 40.4072 61.1082 32.1452C60.3196 44.8765 44.1852 30.0437 39.2979 26.5866C42.962 31.996 49.5982 35.091 46.8756 35.5677C49.5579 36.1191 60.8132 41.1184 60.2016 42.6339C60.4698 42.3942 60.5717 42.4288 60.5798 42.6126C60.5342 43.5288 60.3813 44.2692 60.4376 45.1269L60.5583 44.9191C60.4993 45.023 60.4913 45.1562 60.5074 45.3026C60.4725 45.4092 60.3947 45.4811 60.2928 45.5237C58.9489 44.8206 57.8196 43.899 56.4168 43.923C56.4248 43.9097 56.4355 43.899 56.4436 43.8884C56.119 43.8457 55.8105 43.8511 55.4323 44.184C57.487 43.7818 59.0508 45.5024 59.7724 47.3269C59.6946 46.9646 59.6115 46.5918 59.4103 46.2775C59.6919 46.7036 59.7939 47.2203 59.9172 47.729C59.9763 47.9102 60.0272 48.0886 60.0675 48.2671C60.105 48.3763 60.1479 48.4855 60.1962 48.5893C60.2204 48.885 60.1962 49.17 59.8502 49.4736L60.1774 49.3857C59.6249 50.0542 57.7767 49.415 57.1276 49.2552C55.6013 48.877 54.1099 48.3789 52.5917 47.9714C52.0123 47.8169 51.9748 49.1274 51.3739 49.1114C51.2988 49.1114 51.2183 49.1114 51.1486 49.1433C50.9796 49.2206 42.7823 44.4184 42.734 44.5755C42.6884 44.73 42.6535 44.8818 42.5838 44.999C42.4014 45.0789 37.9218 42.7857 37.5919 42.8736C37.8226 43.2838 42.7313 46.0537 43.1229 46.2748C43.8311 46.6743 52.125 50.6908 52.8707 51.0131C54.5445 51.7349 56.2665 52.3661 57.9967 52.9494C58.112 52.9894 58.2274 53.0266 58.3454 53.0666C58.4017 53.0852 58.4634 53.1039 58.5197 53.0906C58.5707 53.0773 58.6082 53.0426 58.6512 53.0107C59.4264 52.4167 59.9548 53.57 59.877 54.2066C59.8716 54.2385 59.8663 54.2758 59.8421 54.2971C59.8153 54.3211 59.7724 54.3211 59.7348 54.3211C58.104 54.2678 56.4919 53.6659 54.9549 53.1545C54.1099 52.8748 53.2623 52.6005 52.4334 52.2782C51.6716 51.9852 43.3778 47.8143 42.5489 47.761C42.4899 47.7583 42.4282 47.7557 42.3772 47.7823C42.1358 47.9022 42.4872 48.1605 42.5891 48.2244C42.8306 48.3709 43.1042 48.4535 43.3483 48.592C44.845 49.4416 53.9168 53.9029 55.4565 54.678C56.1217 55.0136 56.2209 55.3625 56.4328 56.031C56.4382 56.047 56.4409 56.063 56.4463 56.079C56.2156 56.023 55.9849 55.9698 55.7542 55.9138C54.582 55.7966 53.3481 55.6954 52.0955 55.5649C51.8433 55.5276 51.5885 55.4877 51.3337 55.4344C49.9013 55.1361 49.1368 53.5753 47.522 54.1C46.3793 54.5421 47.1036 55.8712 46.1567 56.0363C45.2554 56.4359 44.8504 55.5436 44.448 54.6487C44.3836 54.2811 44.3246 53.9003 44.0457 53.6632C43.8445 53.5194 43.6433 53.3489 43.4314 53.1279C42.5757 52.2489 41.5055 50.6056 39.3408 46.9353C42.9191 56.284 42.1546 52.3848 43.3322 53.7564C43.7238 56.3187 42.4818 54.0494 37.3719 47.5186C45.0113 57.7756 23.0481 56.7102 17.0664 57.179C23.3727 58.9848 30.4622 57.1177 28.6864 59.2245C31.1006 57.9354 42.9566 54.5821 43.469 56.1322C43.5199 55.7753 43.6192 55.738 43.7452 55.8739C44.3032 56.6037 44.6653 57.2669 45.2635 57.8901L45.2205 57.6557C45.242 57.7729 45.3225 57.8795 45.4325 57.9833C45.4727 58.0872 45.462 58.1911 45.411 58.2896C43.9276 58.6092 42.4631 58.6226 41.4062 59.5361C41.4035 59.5201 41.4062 59.5068 41.4062 59.4935C41.1299 59.6666 40.8966 59.869 40.8241 60.3671C42.1358 58.7477 44.448 59.0673 46.1835 60.0049C45.8885 59.7758 45.5827 59.5441 45.2259 59.4322C45.7168 59.5787 46.1326 59.909 46.5537 60.2206C46.7146 60.3218 46.8702 60.4284 47.0177 60.5376C47.117 60.5988 47.2189 60.6548 47.3262 60.7027C47.5381 60.9131 47.7017 61.1475 47.6347 61.6003L47.8305 61.3233C47.8385 62.1889 46.0092 62.8787 45.4083 63.1691C43.9947 63.8536 42.5274 64.4235 41.1004 65.0814C40.5559 65.3318 41.3767 66.3625 40.9046 66.7328C40.8456 66.7807 40.7839 66.8313 40.7517 66.9006C40.6712 67.0684 31.283 68.6211 31.35 68.7703C31.4171 68.9168 31.4868 69.0579 31.5083 69.1911C31.4198 69.3696 26.5057 70.4722 26.3098 70.7492C26.7524 70.917 32.3049 69.9049 32.7502 69.8224C33.5522 69.6759 42.5033 67.4599 43.2866 67.2308C45.0381 66.7141 46.7656 66.1015 48.4662 65.4436C48.5789 65.3984 48.6942 65.3558 48.8069 65.3105C48.8632 65.2892 48.9222 65.2652 48.9571 65.2173C48.9866 65.1746 48.9946 65.1214 49.0054 65.0734C49.2146 64.1226 50.368 64.6712 50.7194 65.2093C50.7382 65.2386 50.757 65.2679 50.7516 65.3025C50.7462 65.3398 50.714 65.3664 50.6845 65.3877C49.3997 66.3865 47.7768 66.9538 46.2667 67.5451C45.4378 67.87 44.6116 68.2003 43.7667 68.4826C42.9942 68.7437 33.9385 70.8425 33.2706 71.3325C33.2223 71.3672 33.174 71.4044 33.1526 71.4604C33.0453 71.7054 33.4798 71.6814 33.6005 71.6628C33.8795 71.6229 34.1424 71.5083 34.4186 71.4604C36.1166 71.1567 45.9528 68.7836 47.632 68.3921C48.3589 68.2243 48.662 68.4294 49.2575 68.8076C49.2709 68.8156 49.2843 68.8262 49.2977 68.8342C49.0858 68.9408 48.8739 69.0446 48.6593 69.1485C47.6856 69.8064 46.6744 70.5175 45.6309 71.218C45.4137 71.3512 45.1937 71.4817 44.963 71.6069C43.6728 72.2914 42.0768 71.5829 41.1782 73.0185C40.5908 74.0865 42.0044 74.6405 41.3848 75.373C40.9529 76.2546 40.065 75.8284 39.1772 75.3996C38.8902 75.1572 38.6005 74.9042 38.2303 74.9016C37.9835 74.9202 37.718 74.9175 37.4122 74.8856C36.189 74.7604 34.3033 74.1824 30.269 72.7522C39.0618 77.6289 35.9503 75.1306 37.7421 75.4289C39.7002 77.1415 37.2807 76.196 29.1397 74.4541C41.6315 77.4345 24.1184 90.6372 19.8373 94.8162C25.8378 92.174 30.0598 86.2212 30.0625 88.9672C31.0764 86.4396 37.9889 76.3025 39.3837 77.1628C39.1906 76.8565 39.2442 76.766 39.4293 76.7899C40.3306 76.9924 41.0361 77.2694 41.8971 77.3652L41.712 77.2108C41.8032 77.288 41.9346 77.3173 42.0849 77.328C42.1841 77.3812 42.2431 77.4691 42.2673 77.5757C41.3365 78.7689 40.226 79.7117 40.006 81.0861C39.9926 81.0754 39.9872 81.0648 39.9765 81.0541C39.8773 81.3631 39.829 81.6667 40.0945 82.0955C40.0516 80.018 42.0312 78.7875 43.9652 78.3987C43.5923 78.412 43.2088 78.428 42.8601 78.5691C43.3322 78.3667 43.8633 78.356 44.389 78.3241C44.5795 78.2975 44.7645 78.2788 44.9496 78.2708C45.065 78.2522 45.1803 78.2309 45.293 78.2016C45.5907 78.2282 45.867 78.3028 46.1111 78.6943L46.0816 78.3587C46.6476 79.0166 45.6926 80.7105 45.4217 81.3178C44.7806 82.7454 44.0269 84.1171 43.359 85.5314C43.1042 86.0694 44.3997 86.3357 44.279 86.9217C44.2629 86.9963 44.2522 87.0735 44.271 87.1481C44.3193 87.3266 38.131 94.5099 38.2813 94.5818C38.4261 94.651 38.571 94.715 38.6756 94.8029C38.7212 94.9946 35.6713 98.9765 35.7008 99.3147C36.1488 99.1603 39.7458 94.8428 40.0328 94.4966C40.5532 93.8733 45.977 86.4609 46.4249 85.7871C47.4308 84.2742 48.3589 82.7001 49.2361 81.1127C49.2951 81.0062 49.3541 80.8996 49.4131 80.7931C49.4426 80.7398 49.4721 80.6839 49.4667 80.6253C49.4614 80.5747 49.4345 80.5294 49.4104 80.4841C48.9571 79.6212 50.1937 79.3069 50.8106 79.4933C50.8428 79.504 50.8777 79.5147 50.8938 79.5439C50.9125 79.5759 50.9072 79.6159 50.8991 79.6505C50.5611 81.2379 49.6867 82.7081 48.9115 84.1224C48.4877 84.9001 48.0665 85.6805 47.6052 86.437C47.1814 87.1295 41.6047 94.5179 41.4089 95.3196C41.3955 95.3755 41.3821 95.4368 41.4009 95.4927C41.4786 95.7484 41.7952 95.4527 41.8756 95.3622C42.0634 95.1518 42.1922 94.8987 42.3719 94.683C43.4743 93.3672 49.4748 85.2704 50.5102 83.8987C50.9581 83.3047 51.3229 83.2701 52.023 83.1796C52.0391 83.1796 52.0552 83.1769 52.0713 83.1742C51.9774 83.39 51.8809 83.6057 51.787 83.8241C51.4678 84.9508 51.1539 86.1386 50.8052 87.3425C50.7248 87.5822 50.6416 87.8246 50.545 88.067C50.0005 89.4147 48.3187 89.8915 48.5601 91.5641C48.8015 92.7573 50.2419 92.2806 50.2419 93.2341C50.4807 94.1849 49.5257 94.4273 48.5681 94.6643C48.1926 94.6643 47.8037 94.6537 47.522 94.8881C47.345 95.0585 47.1411 95.2263 46.8863 95.3968C45.867 96.0813 44.051 96.8431 40.0328 98.3213C49.9254 96.4462 45.926 96.5154 47.4898 95.6019C50.0998 95.6631 47.632 96.4862 40.2662 100.345C51.7655 94.6564 46.8943 115.948 46.323 121.879C49.2092 116.025 48.5896 108.77 50.368 110.871C49.5097 108.288 48.2409 96.1106 49.8664 95.8789C49.5204 95.767 49.5016 95.6631 49.6599 95.5646C50.4807 95.1464 51.2022 94.9067 51.9238 94.43H51.6824C51.8031 94.43 51.9238 94.3714 52.0418 94.2808C52.1518 94.2595 52.2537 94.2861 52.3422 94.3554C52.4012 95.8629 52.1625 97.2958 52.8841 98.4891C52.868 98.4891 52.8546 98.4864 52.8412 98.4837C52.9645 98.782 53.1255 99.0484 53.6056 99.2055C52.2269 97.6421 52.9458 95.4368 54.177 93.9026C53.898 94.1503 53.6164 94.4087 53.442 94.7389C53.6727 94.2835 54.0724 93.9372 54.4559 93.5777C54.5847 93.4365 54.7161 93.3033 54.8502 93.1781C54.928 93.0903 55.0005 92.9997 55.0675 92.9065C55.3116 92.736 55.5745 92.6162 56.0117 92.7626L55.7703 92.5229C56.6287 92.6641 56.9961 94.5738 57.1812 95.2104C57.6158 96.7125 57.9269 98.244 58.3293 99.7542C58.4822 100.33 59.6463 99.7063 59.9333 100.231C59.9709 100.298 60.0111 100.364 60.0728 100.409C60.2257 100.516 60.1345 109.969 60.2955 109.929C60.4537 109.889 60.6039 109.846 60.7407 109.846C60.9017 109.963 61.1431 114.962 61.3818 115.2C61.6259 114.797 61.5857 109.191 61.5803 108.743C61.5749 107.934 60.9312 98.7954 60.84 97.991C60.6334 96.1905 60.3223 94.3927 59.9682 92.6162C59.9441 92.4963 59.9199 92.3791 59.8958 92.2593C59.8851 92.2007 59.8716 92.1394 59.8287 92.0968C59.7939 92.0595 59.7402 92.0435 59.6946 92.0249C58.788 91.6547 59.531 90.6239 60.1265 90.3735C60.1587 90.3602 60.1908 90.3496 60.223 90.3576C60.2579 90.3682 60.2794 90.4055 60.2955 90.4375C61.0626 91.8677 61.3443 93.5537 61.6688 95.1305C61.8459 95.9961 62.031 96.8617 62.1651 97.738C62.2885 98.5397 62.7981 107.758 63.1683 108.496C63.1951 108.549 63.2246 108.602 63.2729 108.634C63.4982 108.781 63.5492 108.352 63.5519 108.229C63.5599 107.95 63.4928 107.673 63.4928 107.393C63.4848 105.68 62.841 95.6472 62.7445 93.9372C62.7042 93.1968 62.9591 92.9358 63.4365 92.4217C63.4472 92.4084 63.4607 92.3978 63.4714 92.3871C63.5384 92.6135 63.6055 92.8399 63.6726 93.0663C64.1581 94.1317 64.6865 95.245 65.1988 96.3876C65.2927 96.6246 65.3839 96.8617 65.4671 97.1094C65.9231 98.4891 64.944 99.93 66.2101 101.057C67.1677 101.818 67.9617 100.532 68.5813 101.262C69.3806 101.837 68.8039 102.631 68.2245 103.424C67.9348 103.661 67.6317 103.904 67.5674 104.263C67.5432 104.508 67.4923 104.767 67.4091 105.06C67.0711 106.234 66.1725 107.976 64.0508 111.673C70.416 103.923 67.3957 106.53 68.0046 104.831C70.0432 103.211 68.6859 105.417 65.5422 113.074C70.6682 101.379 80.7217 120.795 84.1229 125.704C82.543 119.378 77.3714 114.214 80.0967 114.691C77.7657 113.261 68.9112 104.743 70.0083 103.526C69.673 103.661 69.5899 103.595 69.6462 103.416C70.0029 102.572 70.4026 101.928 70.644 101.102L70.459 101.256C70.5502 101.179 70.6038 101.057 70.6387 100.913C70.7084 100.825 70.805 100.782 70.9176 100.777C71.9396 101.893 72.6826 103.145 74.0077 103.598C73.9943 103.608 73.9836 103.614 73.9702 103.622C74.2599 103.771 74.5522 103.872 75.0217 103.688C72.9536 103.369 72.0764 101.222 72.0255 99.2615C71.9745 99.629 71.9235 100.007 72.004 100.372C71.886 99.8767 71.9691 99.3547 72.0281 98.8353C72.0362 98.6462 72.0496 98.4598 72.0711 98.2786C72.0737 98.1615 72.0711 98.0469 72.0603 97.9324C72.1381 97.6448 72.2615 97.3864 72.6907 97.2186L72.3527 97.1893C73.1038 96.7498 74.6193 97.9777 75.1719 98.3479C76.4755 99.2215 77.7067 100.196 78.9916 101.097C79.4824 101.44 79.9706 100.218 80.5286 100.439C80.601 100.465 80.6734 100.492 80.7512 100.487C80.9363 100.471 86.985 107.769 87.0843 107.635C87.1782 107.505 87.2667 107.374 87.3713 107.289C87.5698 107.276 90.9898 110.951 91.3278 110.981C91.2527 110.517 87.5939 106.248 87.3015 105.907C86.7731 105.292 80.3649 98.6995 79.7721 98.1428C78.447 96.8963 77.0468 95.7164 75.6225 94.5818C75.5259 94.5045 75.4321 94.43 75.3355 94.3527C75.2899 94.3154 75.2389 94.2755 75.1799 94.2702C75.129 94.2648 75.078 94.2861 75.0297 94.3021C74.0962 94.5978 73.997 93.3326 74.2921 92.76C74.3081 92.7307 74.3269 92.6987 74.3564 92.6854C74.3913 92.6721 74.4289 92.6854 74.4637 92.6987C75.9793 93.3033 77.2856 94.4167 78.5543 95.4181C79.2518 95.9694 79.9519 96.5154 80.6224 97.0987C81.2367 97.6341 87.5939 104.37 88.3557 104.7C88.4094 104.724 88.4684 104.746 88.5247 104.738C88.7929 104.706 88.5515 104.346 88.4764 104.25C88.3021 104.029 88.0714 103.861 87.889 103.648C86.7731 102.34 79.7855 95.0665 78.608 93.8174C78.0983 93.2767 78.1252 92.9145 78.1573 92.214C78.1573 92.198 78.1574 92.182 78.16 92.166C78.3585 92.2965 78.557 92.4271 78.7555 92.5576C79.8177 93.0636 80.9416 93.5777 82.0736 94.129C82.2989 94.2515 82.5242 94.374 82.7469 94.5099C83.9888 95.2769 84.1712 97.0029 85.8692 97.0588C87.095 97.0322 86.8724 95.538 87.8192 95.7031C88.8037 95.6338 88.8761 96.6087 88.9458 97.5888C88.8788 97.9564 88.8037 98.3346 88.9861 98.6515C89.1256 98.854 89.2543 99.083 89.3804 99.3627C89.882 100.479 90.3219 102.386 91.089 106.573C90.9469 96.574 90.3219 100.497 89.6888 98.8087C90.2012 96.2678 90.5901 98.822 93.1384 106.695C89.493 94.4646 109.764 102.921 115.547 104.514C110.241 100.676 102.94 100.021 105.332 98.6462L105.357 98.6036ZM101.059 79.8369C100.925 79.6318 100.499 79.3469 100.383 79.1471C100.703 79.2323 100.882 79.528 101.059 79.8369ZM98.8599 58.564C98.6238 58.492 98.1142 58.5453 97.8942 58.4681C98.1946 58.3296 98.5219 58.4414 98.8599 58.564ZM83.4041 43.67C83.1761 43.7658 82.822 44.1307 82.602 44.2106C82.7415 43.9123 83.0661 43.7898 83.4041 43.67ZM44.4668 54.654C44.5204 54.8937 44.8236 55.3039 44.8638 55.533C44.5929 55.3438 44.5258 55.0056 44.4668 54.654ZM39.2067 75.3916C39.4025 75.5408 39.9014 75.6606 40.0811 75.8098C39.7512 75.8391 39.483 75.6207 39.2067 75.3916ZM48.6003 94.6351C48.8471 94.6217 49.3058 94.398 49.5418 94.398C49.3085 94.6297 48.9598 94.6377 48.6003 94.6351ZM68.254 103.382C68.4338 103.217 68.643 102.751 68.82 102.601C68.7905 102.929 68.5303 103.155 68.254 103.382ZM85.9094 85.0546C85.8048 85.1798 85.6707 85.2331 85.5285 85.2571C85.102 85.3236 84.5924 85.0972 84.4985 85.6273C85.6412 86.0694 86.8241 86.2771 87.3257 87.5769C85.9604 85.6406 83.7045 85.9735 82.2292 87.4118C81.8805 86.6234 82.2426 85.9602 82.5377 85.3423C82.6154 85.1478 82.4626 85.0839 82.3016 85.028C82.2399 85.0067 82.1809 84.988 82.1192 84.9667C82.1916 84.8948 82.2775 84.8176 82.366 84.7403C82.6691 84.4846 83.0017 84.2636 83.3504 84.0638C84.5253 83.4592 85.7833 83.1156 87.0709 82.8839C87.1111 82.8759 87.1513 82.8706 87.1916 82.8653C87.1755 83.7202 86.3815 84.2316 85.9094 85.0573V85.0546ZM85.963 90.2164C86.073 90.2883 86.183 90.3576 86.2903 90.4268C86.2527 90.5147 86.2152 90.6053 86.1776 90.6932C86.1106 90.5333 86.0381 90.3735 85.963 90.2164C85.5714 89.9634 85.1744 89.7023 84.7855 89.452C85.11 89.0258 85.3622 88.4985 85.5446 87.9897C85.8128 88.0776 86.0167 88.2002 86.1642 88.3493C86.3064 88.5065 86.3949 88.6902 86.4378 88.9006C86.6685 89.3987 86.5129 89.8915 86.3091 90.3842C86.1857 90.3123 86.0623 90.2404 85.9416 90.1658C85.9496 90.1818 85.9577 90.1977 85.9657 90.2137L85.963 90.2164ZM79.7829 89.2016C79.799 89.1963 79.8151 89.191 79.8285 89.1883C79.8794 89.3295 79.9304 89.4839 79.984 89.6491C79.9143 89.4839 79.8472 89.3348 79.7829 89.2043V89.2016ZM79.8177 89.8089C79.6943 89.6224 79.5951 89.5479 79.5146 89.5559C79.5039 89.4546 79.4959 89.3694 79.4905 89.2975C79.5307 89.2789 79.579 89.2655 79.6246 89.2496C79.6756 89.3827 79.7399 89.5692 79.8177 89.8089ZM79.3617 80.074C78.3344 80.7691 77.2507 81.3711 76.0302 81.7599C76.0302 81.7546 76.0249 81.7519 76.0222 81.7466C75.9444 81.6108 75.8612 81.4749 75.7754 81.3391C75.8398 81.1154 75.9095 80.8783 75.9819 80.6226C75.6332 80.1006 75.3033 79.5732 74.9868 79.0379C76.4433 79.3841 77.8998 79.741 79.3591 80.074H79.3617ZM74.2572 64.9403C73.8307 63.5153 73.4149 62.0877 72.975 60.6681C74.0962 61.2034 75.1611 61.8347 76.1107 62.6896C76.1107 62.695 76.1053 62.6976 76.1027 62.703C76.0249 62.8388 75.9471 62.9773 75.8693 63.1185C75.6413 63.1744 75.3999 63.233 75.1424 63.2996C74.8634 63.8589 74.563 64.4022 74.2545 64.9403H74.2572ZM81.1536 56.9739C80.7995 56.8753 80.7619 56.6569 80.9711 56.2761C81.3681 56.5104 81.7893 56.7262 82.0548 57.0112C81.6954 57.0112 81.3923 57.0005 81.1536 56.9739C81.3547 57.0298 81.6578 57.0485 82.0763 57.0325C82.2346 57.2109 82.3338 57.4133 82.3258 57.6664C82.2533 57.8661 81.8241 57.9354 81.5586 57.9141C79.7668 57.3867 79.6622 56.9632 80.4856 55.9511C80.5098 55.9698 80.5339 55.9884 80.5607 56.0044C80.1959 56.6356 80.3542 56.8887 81.1536 56.9739ZM81.1697 55.7966C81.0865 55.8579 81.0168 55.9058 80.9577 55.9458C80.9229 55.9192 80.8853 55.8872 80.8478 55.8526C80.9363 55.7434 81.0677 55.5942 81.2394 55.4078C81.1401 55.6075 81.1214 55.73 81.1697 55.7966ZM81.2528 55.8499C81.3842 55.8899 81.623 55.8499 81.9422 55.7807C82.1755 55.9085 82.5618 55.9911 83.0527 56.079C82.9829 56.1003 82.9132 56.1216 82.8434 56.1402C82.4411 56.2414 82.0173 56.2867 81.6069 56.2015C81.4379 56.1669 81.2769 56.1083 81.124 56.0337C81.1643 55.9751 81.2045 55.9138 81.2528 55.8499ZM80.7297 55.7407C80.7297 55.7407 80.7056 55.7194 80.6949 55.7087C80.7941 55.5942 80.9014 55.4744 81.0194 55.3465C80.9095 55.4903 80.8129 55.6208 80.7324 55.7434L80.7297 55.7407ZM80.6144 55.6395C80.6144 55.6395 80.6063 55.6342 80.6037 55.6315C80.6868 55.533 80.77 55.4344 80.8612 55.3279C80.7727 55.4371 80.6922 55.5383 80.6144 55.6395ZM81.3869 57.9727C81.2689 58.0792 81.1616 58.2044 81.0811 58.3802C80.7431 59.1126 80.4561 59.7092 80.1959 60.202C79.9063 59.3364 79.6112 58.4681 79.3617 57.5732C79.3537 57.5465 79.3483 57.5172 79.3403 57.4906C79.5119 57.0085 79.8553 56.5317 80.3998 55.8765C80.4052 55.8819 80.4132 55.8872 80.4186 55.8925C79.3886 57.2455 79.4878 57.5891 81.3869 57.9727ZM79.8714 64.9296C80.3837 66.0536 80.7914 67.2175 80.9658 68.48C80.9604 68.48 80.9577 68.4826 80.9524 68.4853C80.8048 68.5386 80.6546 68.5972 80.5044 68.6558C80.2952 68.5546 80.0699 68.4454 79.8285 68.3308C79.2518 68.5812 78.6697 68.8129 78.0849 69.0287C78.6804 67.6623 79.2893 66.3013 79.8714 64.9323V64.9296ZM88.058 68.2323C87.8997 68.2376 87.7361 68.2669 87.5591 68.3495C86.8241 68.6957 86.2205 68.9701 85.7029 69.1805C86.0408 68.3335 86.3761 67.4785 86.7651 66.6315C86.7758 66.6049 86.7892 66.5809 86.8026 66.5543C87.2452 66.2933 87.8192 66.1468 88.6588 65.995C88.6588 66.003 88.6615 66.011 88.6642 66.019C86.9984 66.3972 86.8509 66.7248 88.058 68.2296V68.2323ZM86.8724 70.134C87.0762 70.0088 87.2801 69.8836 87.4813 69.7558C87.8943 69.3323 88.3879 69.1964 88.86 69.1938C88.8654 69.2018 88.8707 69.2071 88.8788 69.2151C88.8734 69.2071 88.868 69.2018 88.8627 69.1938C89.0987 69.1938 89.3294 69.2284 89.5413 69.2764C89.4313 69.4228 89.324 69.5693 89.2141 69.7185C88.455 70.7679 87.72 71.8519 87.044 73.0025C86.9072 73.3754 86.7034 73.6977 86.4593 73.988C86.2152 74.2783 85.9282 74.5393 85.5982 74.5393C85.322 75.0374 85.0028 75.2771 84.418 75.1013C84.3778 75.7192 84.0505 75.8737 83.4765 75.8311C83.3504 76.0895 82.9829 76.1507 82.5886 76.1614C82.1943 76.1694 81.7785 76.1267 81.3333 76.0229C81.5264 76.0681 82.3284 75.064 82.4733 74.9042C83.4953 73.8095 84.2007 72.5977 84.7908 71.3352C85.4936 70.949 86.1884 70.5548 86.8724 70.1366V70.134ZM89.4769 65.9843C89.2999 66.0243 89.1417 66.0642 88.9995 66.1042C88.9995 66.0882 88.9968 66.0722 88.9941 66.0562C89.1443 66.0323 89.3053 66.0083 89.4769 65.9843ZM88.978 65.9524C88.978 65.9524 88.978 65.9444 88.9753 65.939C89.1014 65.9177 89.2329 65.8938 89.3697 65.8725C89.2329 65.8991 89.1041 65.9257 88.978 65.9524ZM89.6084 66.1734C89.4018 66.264 89.3106 66.3439 89.3026 66.4265C89.2007 66.4185 89.1148 66.4131 89.0424 66.4052C89.0317 66.3625 89.0263 66.3146 89.0183 66.264C89.1577 66.2374 89.3562 66.2054 89.6057 66.1734H89.6084ZM89.3321 66.5197C89.4072 66.6342 89.6191 66.7541 89.9034 66.9059C90 67.1536 90.2414 67.4625 90.5633 67.8434C90.4962 67.8168 90.4292 67.7875 90.3648 67.7582C89.992 67.5797 89.6352 67.3427 89.3777 67.0151C89.2704 66.8819 89.1873 66.7328 89.1175 66.5783C89.1873 66.5596 89.257 66.5383 89.3375 66.5197H89.3321ZM88.4362 79.0166C88.4362 79.0166 88.4281 79.0326 88.4228 79.0379C86.9019 78.2655 86.5773 78.4226 86.5263 80.3456C86.403 80.2498 86.2554 80.1672 86.0676 80.1193C85.2817 79.9168 84.6406 79.741 84.1068 79.5706C84.9142 79.1364 85.7243 78.697 86.5693 78.2975C86.5961 78.2841 86.6229 78.2735 86.6497 78.2628C87.1567 78.3454 87.6905 78.6011 88.4362 79.0192V79.0166ZM83.2109 77.1522C82.7201 77.5197 82.2399 77.8953 81.7625 78.2735C81.4164 77.8713 81.1509 77.3599 80.8263 76.6488C81.2716 76.75 81.7195 76.8432 82.1729 76.9311C82.6369 77.0217 83.1063 77.1096 83.0554 77.1309C83.1117 77.1389 83.1626 77.1468 83.2136 77.1548L83.2109 77.1522ZM83.0661 69.6839C82.5403 69.596 82.0039 69.3749 81.2957 69.0366C81.7008 68.8289 82.1058 68.6158 82.5108 68.3947C82.9266 68.1684 83.3424 67.9366 83.3155 67.9846C83.3638 67.9553 83.4067 67.9286 83.4497 67.902C83.3102 68.496 83.1895 69.0899 83.0661 69.6839ZM82.3955 72.5923C82.0602 73.7802 81.6176 74.9335 80.9336 76.0096L80.9202 76.0042C80.7727 75.951 80.6198 75.9004 80.4669 75.8497C80.373 75.6367 80.2711 75.4103 80.1611 75.1679C79.5549 74.9921 78.9621 74.7977 78.3746 74.5899C79.7158 73.9241 81.0624 73.2689 82.3955 72.5923ZM76.7276 62.908C76.9047 62.4899 77.0764 62.0691 77.2453 61.6402C77.417 61.2008 77.586 60.7586 77.5967 60.8119C77.6155 60.7586 77.6316 60.7107 77.6477 60.6628C77.9267 61.2061 78.2164 61.7388 78.5087 62.2715C78.0501 62.5405 77.4948 62.7109 76.7303 62.9054L76.7276 62.908ZM75.5394 82.1781C75.8156 82.5377 76.0973 82.8972 76.387 83.2541C76.6847 83.6217 76.9852 83.9866 76.9342 83.9706C76.9717 84.0132 77.0039 84.0505 77.0388 84.0878C76.4272 84.0558 75.8156 84.0399 75.2041 84.0239C75.1987 83.4938 75.3275 82.9319 75.5394 82.1808V82.1781ZM78.8735 87.1108C78.9004 87.1188 78.9299 87.1268 78.9567 87.1348C79.292 87.5236 79.5361 88.0563 79.8338 88.8527C79.8258 88.8527 79.8177 88.858 79.8097 88.8607C79.1445 87.2973 78.7958 87.212 77.5109 88.6529C77.4787 88.5011 77.4197 88.344 77.307 88.1868C76.8376 87.529 76.4594 86.9856 76.159 86.5142C77.0576 86.698 77.9642 86.8791 78.8709 87.1108H78.8735ZM79.9331 89.1563C79.9331 89.1563 79.9411 89.1537 79.9465 89.151C79.9894 89.2709 80.035 89.3934 80.0806 89.5239C80.0296 89.3934 79.9814 89.2735 79.9331 89.1563ZM79.2947 83.2888C78.8628 83.7362 78.5114 83.6457 78.101 83.2461C77.8381 83.3633 77.5163 83.1769 77.2078 82.9319C76.902 82.6868 76.6096 82.3885 76.336 82.0236C76.454 82.1808 77.7201 81.9224 77.932 81.8931C79.4234 81.7067 80.7485 81.2299 82.0173 80.6386C82.8032 80.7904 83.5945 80.9316 84.3885 81.0488C84.6245 81.0834 84.8633 81.1154 85.102 81.1473C85.6921 81.0887 86.1589 81.2965 86.521 81.5975C86.7007 81.7466 86.8563 81.9197 86.9877 82.0955C86.808 82.1382 86.631 82.1808 86.4512 82.226C85.1905 82.543 83.9271 82.9079 82.661 83.3553C82.315 83.5551 81.9502 83.6723 81.5747 83.7362C81.1992 83.8028 80.8129 83.8188 80.5581 83.6084C80.0243 83.8135 79.6246 83.7922 79.292 83.2861L79.2947 83.2888ZM87.602 80.8411C87.5403 80.4895 87.4974 80.1912 87.4813 79.9515C87.4598 80.1592 87.4947 80.4575 87.5832 80.865C87.4357 81.0515 87.2479 81.182 86.9984 81.2193C86.7892 81.182 86.6444 80.7745 86.6202 80.5134C86.8321 78.6677 87.2345 78.4945 88.3825 79.1231C88.3691 79.1498 88.3557 79.1764 88.3423 79.2057C87.6529 78.958 87.4303 79.1551 87.4839 79.9541C87.5188 79.5919 87.7307 79.5173 88.1438 79.6532C87.9802 80.082 87.838 80.5321 87.602 80.8411ZM88.6991 81.6507C88.6669 81.5868 88.632 81.5229 88.6025 81.4563C88.4308 81.0808 88.3128 80.6733 88.3262 80.2578C88.3316 80.0873 88.3638 79.9195 88.4094 79.757C88.4737 79.7863 88.5408 79.8156 88.6159 79.8529C88.5998 79.9861 88.683 80.2151 88.8037 80.5134C88.7178 80.7638 88.7017 81.1553 88.7017 81.6534L88.6991 81.6507ZM89.0746 79.5333C88.9136 79.4507 88.7661 79.3788 88.632 79.3202C88.64 79.3069 88.6508 79.2936 88.6588 79.2803C88.7903 79.3575 88.9271 79.4427 89.0746 79.5333ZM88.7125 79.1897C88.7125 79.1897 88.7151 79.1817 88.7178 79.1764C88.8278 79.2403 88.9432 79.3069 89.0639 79.3762C88.9405 79.3096 88.8251 79.2483 88.7125 79.1897ZM89.0505 79.7624C88.8332 79.6984 88.7098 79.7038 88.6535 79.7624C88.5784 79.6904 88.5167 79.6318 88.4684 79.5812C88.4898 79.5413 88.514 79.5013 88.5408 79.4587C88.6669 79.528 88.8359 79.6292 89.0505 79.765V79.7624ZM94.8578 77.2454C94.9248 77.3493 95.0026 77.4425 95.0938 77.5251C95.1609 77.6662 95.2145 77.8074 95.2628 77.9512C95.4479 78.5185 95.5042 79.0858 95.7242 79.6398C95.6598 79.4268 95.6732 79.219 95.979 79.2004C96.5155 79.1684 96.5477 79.7011 96.6684 79.9088C96.7569 79.5839 96.5155 79.1684 96.3948 78.9633C97.0841 79.6718 96.7783 78.1909 97.6608 78.1137C97.8835 78.0391 98.1142 77.9912 98.3341 77.9672C97.3497 78.6916 97.9505 79.7251 97.8942 80.5854C97.8996 81.9517 96.6684 81.6667 95.5445 81.1926C95.6518 81.1793 95.7644 81.1553 95.8851 81.126C95.7188 81.1473 95.5632 81.1553 95.4264 81.1447C95.287 81.0834 95.1502 81.0195 95.0187 80.9582C94.9999 80.9316 94.9838 80.8996 94.9731 80.8677C94.9678 80.8917 94.9678 80.913 94.9678 80.9343C94.9007 80.9023 94.8363 80.873 94.7746 80.8411C94.8336 80.8224 94.8953 80.8064 94.957 80.7851C94.9543 80.7505 94.949 80.7185 94.9517 80.6786C94.831 80.7132 94.7183 80.7425 94.6164 80.7665C94.5547 80.7372 94.493 80.7052 94.4366 80.6786C94.5225 80.644 94.619 80.6067 94.7317 80.5667C94.5466 80.5854 94.3803 80.6013 94.2194 80.6147C94.1765 80.6147 94.1335 80.6147 94.0906 80.6147C94.1121 80.596 94.1335 80.5774 94.1604 80.5561C93.6668 80.58 93.3235 80.6067 93.1169 80.628C93.1706 80.644 93.2296 80.6599 93.2832 80.6759C93.3691 80.6733 93.471 80.6679 93.5837 80.6599C93.5112 80.6733 93.4415 80.6866 93.3691 80.7026C93.3396 80.6946 93.3101 80.6866 93.2832 80.6759C93.1786 80.6812 93.0901 80.6812 93.0257 80.6812C93.0847 80.6972 93.1491 80.7132 93.2135 80.7292C92.2022 80.9263 91.199 81.126 90.2387 81.3764C89.7961 81.4696 89.3536 81.5628 88.9136 81.6587C89.434 80.0953 89.9839 79.8236 92.0681 80.3403C92.213 80.3403 92.5187 80.3616 92.9694 80.3963C93.0257 80.3323 93.4147 80.2151 94.2167 80.0607C91.4753 80.09 91.0837 79.8929 93.7231 79.6265C90.3407 79.4481 89.9893 79.2004 92.8567 78.8248C90.7725 78.7209 89.823 78.5691 89.6406 78.2149C90.2092 78.38 90.8369 78.3987 91.2929 78.3054C91.993 78.1323 92.3632 77.7221 92.5268 77.2054C93.4093 77.2267 94.2569 77.2507 94.8605 77.2454H94.8578ZM94.3964 76.0655C94.2542 76.0895 94.1148 76.1134 93.9726 76.1321C93.9887 76.1401 94.0048 76.1454 94.0209 76.1534C94.1523 76.1374 94.2811 76.1214 94.4071 76.1054C94.4366 76.196 94.4635 76.2892 94.493 76.3824C94.3374 76.3025 94.1791 76.2253 94.0209 76.1534C93.5595 76.2093 93.0847 76.2626 92.6234 76.3185C92.5965 75.7858 92.449 75.2185 92.2586 74.7151C92.5214 74.6112 92.7548 74.5766 92.964 74.5953C93.1759 74.6246 93.3637 74.7098 93.53 74.843C94.0289 75.0773 94.2301 75.5541 94.391 76.0628L94.3964 76.0655ZM93.3583 73.2609C91.0595 72.6483 89.5467 74.3449 89.3455 76.3878C88.5676 76.0069 88.4174 75.2665 88.2404 74.6059C88.1733 74.4088 88.0151 74.4568 87.8568 74.5154C87.7951 74.5367 87.7388 74.5633 87.6771 74.5846C87.6851 74.4834 87.7012 74.3689 87.72 74.2543C87.787 73.8655 87.8997 73.4819 88.0365 73.1091C88.5462 71.8945 89.2865 70.8291 90.1207 69.8303C90.1475 69.7984 90.1744 69.7691 90.2012 69.7398C90.743 70.4057 90.4641 71.3032 90.6384 72.2381C90.6384 72.4006 90.5713 72.5284 90.4775 72.635C90.1931 72.9572 89.6567 73.1091 89.9276 73.5752C91.089 73.1863 92.1298 72.587 93.3556 73.2635L93.3583 73.2609ZM92.4329 60.5429C92.5509 60.5775 92.6716 60.6015 92.795 60.6068C92.9372 60.6734 93.0713 60.7453 93.2001 60.8252C93.707 61.1422 94.1201 61.539 94.6486 61.824C94.4608 61.7015 94.3374 61.5337 94.56 61.326C94.9517 60.9584 95.3191 61.3473 95.5471 61.4272C95.4023 61.1209 94.9517 60.9584 94.7263 60.8758C95.7134 60.977 94.5225 60.0395 95.1448 59.4163C95.2682 59.2165 95.4103 59.0327 95.5659 58.8756C95.2816 60.0608 96.4109 60.4683 96.9232 61.1608C97.8111 62.2022 96.6871 62.7722 95.5176 63.1238C95.5901 63.0439 95.6625 62.9533 95.7322 62.8548C95.6196 62.9773 95.5069 63.0838 95.3943 63.1611C95.2467 63.2037 95.1019 63.2436 94.9597 63.2783C94.9275 63.2703 94.8953 63.257 94.8658 63.2383C94.8766 63.2596 94.8873 63.2783 94.898 63.2942C94.8283 63.3129 94.7612 63.3289 94.6968 63.3449C94.7317 63.2942 94.7639 63.241 94.8014 63.185C94.7773 63.1611 94.7505 63.1398 94.729 63.1051C94.6593 63.2117 94.5922 63.3022 94.5278 63.3848C94.4608 63.4008 94.3964 63.4168 94.3347 63.4327C94.3776 63.3502 94.4286 63.2623 94.4876 63.1584C94.3481 63.3022 94.2194 63.4301 94.0987 63.5499C94.0745 63.5712 94.0504 63.5899 94.0289 63.6112C94.0316 63.5819 94.037 63.5526 94.045 63.5153C93.6829 63.8482 93.4388 64.088 93.294 64.2371C93.3449 64.2131 93.4012 64.1918 93.4549 64.1679C93.5193 64.1093 93.5944 64.04 93.6749 63.9628C93.6293 64.0187 93.5836 64.0746 93.538 64.1306C93.5112 64.1412 93.4817 64.1545 93.4549 64.1652C93.3771 64.2371 93.3127 64.293 93.2618 64.3357C93.3181 64.309 93.3771 64.2824 93.4388 64.2531C92.7897 65.0495 92.1539 65.8432 91.5799 66.6475C91.301 67.0018 91.022 67.356 90.7457 67.7102C90.1341 66.1788 90.3782 65.6221 92.3095 64.6872C92.4195 64.594 92.669 64.4156 93.0364 64.1572C93.0364 64.072 93.2618 63.7337 93.7741 63.1051C91.6926 64.8763 91.2661 64.9749 93.1142 63.0865C90.4077 65.1107 89.9785 65.1427 91.9313 63.0252C90.2682 64.2717 89.4448 64.7645 89.0719 64.61C89.6137 64.3729 90.1073 63.9867 90.397 63.6245C90.8208 63.0439 90.8423 62.4925 90.633 61.9945C91.3224 61.4485 91.985 60.9264 92.4436 60.5402L92.4329 60.5429ZM89.2704 59.7226C89.4528 59.6107 89.6486 59.5548 89.8659 59.5494C90.3997 59.4109 90.861 59.648 91.3144 59.933C91.2205 60.0395 91.1293 60.1487 91.0354 60.2552C91.0515 60.2499 91.0703 60.2446 91.0864 60.2393C91.1749 60.1434 91.2634 60.0502 91.3519 59.9543C91.4324 60.0049 91.5155 60.0582 91.596 60.1114C91.4243 60.1487 91.2554 60.1913 91.0864 60.2393C90.7698 60.5775 90.4399 60.9211 90.1234 61.2594C89.7586 60.8678 89.2785 60.5296 88.8064 60.2659C88.9405 60.0182 89.096 59.8424 89.2704 59.7226ZM88.5354 67.324C88.3289 67.0231 88.4416 66.8313 88.8466 66.6715C88.9995 67.1056 89.1819 67.5398 89.2007 67.926C88.9271 67.6943 88.7017 67.4945 88.5327 67.3214C88.6508 67.4918 88.8707 67.6996 89.2007 67.9553C89.206 68.1923 89.1497 68.4107 88.9807 68.5998C88.7956 68.7064 88.4228 68.4853 88.235 68.2989C87.2023 66.7514 87.3981 66.3599 88.6856 66.1095C88.691 66.1388 88.6991 66.1681 88.7071 66.1974C88.0204 66.4478 87.9748 66.7407 88.5354 67.3187V67.324ZM84.0049 57.7649C84.8499 57.9301 85.22 58.7957 85.9577 59.3976C86.065 59.5228 86.0945 59.6613 86.0918 59.8051C86.0838 60.2339 85.7699 60.6921 86.2796 60.8758C86.9153 59.8371 87.3284 58.7131 88.7044 58.4494C86.5478 59.4482 86.4861 61.7122 87.6556 63.4061C86.8134 63.6085 86.2179 63.1398 85.6572 62.7456C85.4775 62.6364 85.389 62.7749 85.3032 62.9214C85.271 62.9773 85.2415 63.0332 85.212 63.0892C85.153 63.0066 85.0913 62.9107 85.0323 62.8095C84.8311 62.4686 84.6701 62.1037 84.5307 61.7308C84.1337 60.4763 84.013 59.1872 84.0049 57.8874C84.0049 57.8475 84.0049 57.8075 84.0049 57.7649ZM83.8976 63.4088C83.8976 63.787 83.8466 64.1705 83.5945 64.3809C83.7045 64.9403 83.616 65.3265 83.0527 65.5635C83.4228 66.0642 83.2699 66.3892 82.8032 66.7221C82.8756 66.9991 82.6315 67.2814 82.3365 67.5398C82.0414 67.7981 81.6927 68.0299 81.285 68.2349C81.462 68.1471 81.4272 66.8633 81.4325 66.6502C81.5076 65.1587 81.2635 63.7817 80.896 62.4366C81.1831 61.6935 81.462 60.9451 81.7142 60.1913C81.7893 59.9649 81.8644 59.7385 81.9368 59.5121C81.9797 58.9235 82.2694 58.5027 82.6289 58.2017C82.6369 58.2017 82.6476 58.2044 82.6557 58.2071C82.6476 58.2071 82.6396 58.2017 82.6315 58.2017C82.8113 58.0499 83.0098 57.9301 83.2056 57.8315C83.2163 58.0126 83.2297 58.1964 83.2431 58.3775C83.3397 59.6666 83.4792 60.9637 83.7072 62.2795C83.844 62.6524 83.8976 63.0306 83.8976 63.4088ZM79.7614 49.2978C79.8741 49.2499 79.9814 49.1913 80.0806 49.1167C80.2335 49.0768 80.3837 49.0475 80.5312 49.0261C81.124 48.9436 81.6981 48.9862 82.2882 48.869C82.0656 48.8956 81.8617 48.845 81.8966 48.5441C81.9583 48.014 82.4921 48.0753 82.7174 47.9927C82.4089 47.8489 81.9583 48.014 81.7303 48.0939C82.5511 47.5426 81.0328 47.5852 81.108 46.7089C81.0731 46.4772 81.065 46.2455 81.0811 46.0271C81.6283 47.1165 82.7576 46.7089 83.5999 46.9114C84.9545 47.1431 84.4609 48.2964 83.793 49.3111C83.7957 49.2046 83.793 49.0901 83.785 48.9675C83.7796 49.1327 83.7581 49.2872 83.7233 49.4177C83.6374 49.5429 83.5516 49.6654 83.4684 49.7852C83.4389 49.7985 83.4067 49.8092 83.3692 49.8145C83.3906 49.8252 83.4121 49.8305 83.4309 49.8358C83.3906 49.8918 83.3477 49.9504 83.3075 50.0036C83.2995 49.9424 83.2941 49.8811 83.2834 49.8145C83.2485 49.8145 83.2163 49.8119 83.1761 49.8012C83.1895 49.9264 83.2002 50.0409 83.2029 50.1448C83.1626 50.2007 83.1224 50.254 83.0849 50.3046C83.0661 50.214 83.0446 50.1128 83.0258 49.9983C83.0124 50.1821 82.999 50.3499 82.9856 50.507C82.9776 50.5496 82.9695 50.5923 82.9642 50.6349C82.9507 50.6109 82.9346 50.5869 82.9186 50.5576C82.8569 51.045 82.8247 51.3833 82.8113 51.591C82.8354 51.5404 82.8622 51.4872 82.889 51.4366C82.8998 51.3513 82.9132 51.2501 82.9239 51.1409C82.9239 51.2128 82.9266 51.2848 82.9293 51.3567C82.9159 51.3833 82.9025 51.4099 82.889 51.4366C82.8756 51.5404 82.8622 51.6257 82.8515 51.6896C82.8783 51.6337 82.9051 51.5751 82.932 51.5138C82.9507 52.5392 82.9776 53.5513 83.058 54.5342C83.0714 54.9843 83.0902 55.4317 83.109 55.8792C81.6498 55.0988 81.4754 54.5129 82.3499 52.5659C82.374 52.4247 82.4491 52.1291 82.5618 51.6949C82.5082 51.6283 82.4599 51.2288 82.4438 50.4165C81.9958 53.1012 81.7329 53.4501 81.9261 50.824C81.1616 54.1 80.8558 54.401 80.9792 51.5325C80.5125 53.5487 80.1986 54.4516 79.815 54.5714C80.0779 54.0441 80.204 53.4342 80.1933 52.9707C80.1423 52.2569 79.799 51.8228 79.3161 51.5751C79.4905 50.7174 79.6595 49.8918 79.7614 49.3005V49.2978ZM76.8054 50.6881C76.8725 50.4857 76.9878 50.3179 77.1488 50.1768C77.468 49.732 77.9776 49.6174 78.5087 49.5455C78.5087 49.6867 78.5087 49.8278 78.5034 49.9717C78.5141 49.9557 78.5222 49.9424 78.5329 49.9264C78.5409 49.7959 78.5463 49.668 78.5517 49.5402C78.6482 49.5269 78.7448 49.5162 78.8414 49.5029C78.7341 49.6414 78.6321 49.7826 78.5329 49.9264C78.5087 50.3872 78.4792 50.8613 78.4551 51.322C77.9213 51.2555 77.3339 51.3034 76.8028 51.4019C76.7437 51.1276 76.7518 50.8906 76.8081 50.6908L76.8054 50.6881ZM74.0587 52.5526C74.2196 52.5792 74.335 52.6671 74.4235 52.7789C74.6944 53.1119 74.7507 53.6632 75.2604 53.4794C75.0753 52.2756 74.6649 51.1542 75.5474 50.0729C74.5415 52.2143 75.9605 53.9882 77.9508 54.5395C77.4385 55.232 76.6767 55.2533 75.99 55.3092C75.7808 55.3412 75.8022 55.5037 75.8317 55.6688C75.8425 55.7327 75.8586 55.794 75.8693 55.8552C75.77 55.8286 75.6601 55.7966 75.5501 55.7567C75.1746 55.6235 74.8151 55.4477 74.4691 55.248C73.3532 54.5395 72.4251 53.6286 71.5802 52.6404C71.5534 52.6085 71.5292 52.5765 71.5024 52.5472C72.2561 52.1344 73.0984 52.5605 74.056 52.5526H74.0587ZM70.7352 53.7591C70.7352 53.7591 70.7513 53.7511 70.7594 53.7458C70.7513 53.7484 70.7433 53.7538 70.7352 53.7564C70.7755 53.5247 70.8506 53.3063 70.9364 53.1066C71.0625 53.2397 71.1886 53.3702 71.3173 53.5034C72.2239 54.4276 73.1735 55.3332 74.1982 56.1962C74.5442 56.3959 74.8285 56.6489 75.0753 56.9393C75.3221 57.2296 75.5286 57.5545 75.4723 57.8768C75.9176 58.2337 76.1 58.5879 75.8237 59.1286C76.4299 59.2751 76.5238 59.624 76.3816 60.1753C76.615 60.3431 76.6123 60.7134 76.5533 61.0996C76.4943 61.4858 76.3789 61.8853 76.1965 62.3034C76.2743 62.1223 75.416 61.1635 75.2845 60.9957C74.3752 59.8051 73.2969 58.9049 72.1462 58.1112C71.886 57.3574 71.6124 56.609 71.3173 55.8685C71.2288 55.6475 71.1403 55.4264 71.0464 55.2054C70.6977 54.7259 70.6494 54.2199 70.7299 53.7591H70.7352ZM70.4563 70.0594C70.5582 70.2139 71.5212 69.8277 71.6285 69.9768C71.6338 69.9848 71.6338 69.9981 71.6285 70.0141C71.7465 69.8517 71.8511 69.6812 71.9423 69.5054C72.0737 69.4015 72.0576 69.4521 71.9343 69.6093C72.0469 69.5267 72.0389 69.572 71.9691 69.6785C72.0174 69.6626 72.0094 69.7078 71.9933 69.7611C71.9933 69.7984 71.9825 69.8437 71.9718 69.8916C71.9369 70.0754 71.9074 70.2618 71.8833 70.4483C71.8618 70.632 72.8489 70.949 72.8355 71.1328C72.8355 71.1434 72.8248 71.1541 72.8114 71.1621C73.0072 71.1115 73.1976 71.0475 73.3827 70.9703C73.5517 70.9756 73.5061 71.0023 73.3076 71.0449C73.4471 71.0555 73.4096 71.0822 73.2889 71.1221C73.3371 71.1408 73.2996 71.1701 73.2513 71.1994C73.2245 71.226 73.1896 71.2553 73.152 71.2846C73.0072 71.4018 72.8624 71.5243 72.7229 71.6548C72.5861 71.7827 73.1386 72.6536 73.0072 72.7868C72.9992 72.7948 72.9857 72.7974 72.9696 72.7948C73.152 72.8827 73.3398 72.9546 73.5303 73.0132C73.6563 73.125 73.6054 73.117 73.4257 73.0238C73.5276 73.1197 73.4793 73.1197 73.3613 73.0691C73.3854 73.1144 73.3398 73.1117 73.2835 73.1064C73.2459 73.1117 73.1976 73.1091 73.152 73.1091C72.9643 73.1091 72.7738 73.1091 72.5834 73.1197C72.3956 73.1304 72.2535 74.1505 72.0684 74.1691C72.0576 74.1691 72.0469 74.1638 72.0335 74.1505C72.1167 74.3342 72.2132 74.51 72.3205 74.6752C72.3447 74.843 72.3098 74.8003 72.2347 74.6139C72.2508 74.7524 72.2159 74.7204 72.1569 74.6086C72.1462 74.6592 72.1113 74.6272 72.0737 74.5873C72.0415 74.566 72.0067 74.5367 71.9718 74.5047C71.8296 74.3822 71.6821 74.265 71.5319 74.1505C71.3817 74.0386 70.6118 74.7311 70.459 74.6272C70.4509 74.6219 70.4455 74.6086 70.4455 74.5926C70.3919 74.7844 70.3517 74.9815 70.3275 75.1759C70.239 75.3224 70.2363 75.2691 70.298 75.0747C70.2202 75.1892 70.2149 75.1439 70.2417 75.0214C70.2014 75.0534 70.1961 75.0081 70.1907 74.9522C70.18 74.9149 70.1719 74.8696 70.1639 74.8243C70.1344 74.6405 70.0968 74.4568 70.0566 74.2703C70.0137 74.0892 68.9756 74.1292 68.9273 73.948C68.9246 73.9374 68.9273 73.9241 68.938 73.9108C68.7717 74.0253 68.6135 74.1505 68.4686 74.2836C68.3077 74.3369 68.3426 74.297 68.5142 74.1878C68.3801 74.2277 68.4043 74.1878 68.5062 74.1105C68.4552 74.1105 68.4794 74.0706 68.5142 74.0253C68.5303 73.9907 68.5545 73.9507 68.5786 73.9108C68.6752 73.7509 68.7664 73.5858 68.8549 73.418C68.938 73.2529 68.1199 72.619 68.1977 72.4512C68.2031 72.4405 68.2138 72.4352 68.2299 72.4299C68.0287 72.4112 67.8275 72.4059 67.6291 72.4166C67.4681 72.3553 67.5218 72.3446 67.7229 72.3713C67.5942 72.3153 67.6398 72.302 67.7659 72.3047C67.7283 72.2701 67.7712 72.2567 67.8275 72.2434C67.8624 72.2275 67.9053 72.2115 67.9509 72.1955C68.128 72.1342 68.305 72.0676 68.482 71.9931C68.6537 71.9212 68.4364 70.9117 68.6054 70.8318C68.6162 70.8265 68.6296 70.8318 68.643 70.8371C68.5008 70.6933 68.3506 70.5628 68.1924 70.4429C68.1119 70.2938 68.1575 70.3204 68.2943 70.4696C68.2326 70.3444 68.2755 70.363 68.3694 70.4483C68.3613 70.3977 68.4043 70.4163 68.4552 70.4403C68.4928 70.4483 68.5357 70.4669 68.5786 70.4829C68.7556 70.5495 68.9327 70.6107 69.1151 70.6667C69.2948 70.7199 69.7803 69.809 69.96 69.8543C69.9708 69.857 69.9788 69.8676 69.9869 69.8836C69.9708 69.6839 69.9413 69.4868 69.8957 69.295C69.9305 69.1272 69.9493 69.1778 69.9573 69.3802C69.9922 69.2444 70.0137 69.287 70.0298 69.4122C70.0566 69.3696 70.0781 69.4122 70.1022 69.4601C70.1237 69.4894 70.1478 69.532 70.1693 69.572C70.2605 69.7345 70.357 69.8969 70.4616 70.0541L70.4563 70.0594ZM72.2052 83.8747C70.9686 83.7522 69.7481 83.5205 68.5625 83.0384C68.5625 83.0331 68.5625 83.0277 68.5625 83.0251C68.5893 82.8706 68.6135 82.7135 68.6376 82.5563C68.8334 82.4258 69.0373 82.29 69.2599 82.1381C69.3297 81.5149 69.4182 80.8996 69.5228 80.2897C70.416 81.4856 71.2985 82.6868 72.2025 83.8747H72.2052ZM67.8249 85.4648C67.3769 85.0493 66.9182 84.6445 66.4622 84.2423C66.8002 83.8348 67.2643 83.4859 67.9107 83.0437C67.8892 83.4965 67.8731 83.952 67.8651 84.4101C67.8544 84.8815 67.849 85.3529 67.8222 85.3077C67.8222 85.3636 67.8249 85.4169 67.8249 85.4675V85.4648ZM66.7626 91.1939C66.7626 91.1939 66.7707 91.1939 66.7761 91.1965C66.7331 91.3164 66.6875 91.4389 66.6393 91.5694C66.6849 91.4362 66.7251 91.3137 66.7653 91.1939H66.7626ZM66.4864 91.6067C66.54 91.4336 66.5856 91.2791 66.6205 91.1379C66.6366 91.1433 66.65 91.1513 66.6661 91.1566C66.6124 91.2978 66.5534 91.4469 66.4864 91.6067ZM66.7734 90.8583C66.7439 90.8503 66.7144 90.8396 66.6849 90.8316C66.8109 90.1152 66.5749 89.9314 65.7943 90.1232C66.1591 90.0965 66.2718 90.2883 66.2074 90.7171C65.7514 90.6319 65.282 90.5733 64.9333 90.3948C65.2712 90.275 65.5583 90.1818 65.7943 90.1232C65.5851 90.1391 65.2954 90.2244 64.9064 90.3815C64.6972 90.2697 64.5336 90.1098 64.4531 89.8701C64.4531 89.6571 64.8313 89.4467 65.0888 89.3774C66.9558 89.2629 67.1999 89.6278 66.7734 90.8583ZM66.1859 91.2338C66.2423 91.1486 66.2932 91.0793 66.3335 91.0208C66.3764 91.0341 66.422 91.0527 66.4676 91.0714C66.422 91.2045 66.3496 91.391 66.253 91.6227C66.2771 91.4016 66.253 91.2818 66.1833 91.2338H66.1859ZM59.252 75.8657C59.1581 74.6352 59.1769 73.402 59.4478 72.1582C59.4532 72.1582 59.4586 72.1582 59.4639 72.1582C59.6222 72.1582 59.7804 72.1555 59.9441 72.1502C60.1077 72.318 60.2794 72.4965 60.4671 72.6856C61.0975 72.6456 61.7225 72.627 62.3448 72.6243C61.3148 73.7057 60.274 74.779 59.2547 75.8657H59.252ZM61.5133 78.8328C61.2021 79.1657 60.8963 79.504 60.5905 79.8502C60.2794 80.2045 59.9682 80.5641 59.9763 80.5081C59.9414 80.5507 59.9092 80.5907 59.877 80.6306C59.8019 80.026 59.7134 79.4241 59.6222 78.8248C60.1479 78.7289 60.7273 78.7556 61.5106 78.8328H61.5133ZM55.3036 82.9052C55.6013 83.1183 55.5611 83.3367 55.2338 83.6244C54.9415 83.2675 54.6196 82.9239 54.4667 82.5643C54.8047 82.6868 55.0836 82.7987 55.3009 82.9052C55.1319 82.7854 54.8529 82.6655 54.4533 82.5377C54.3647 82.3166 54.3433 82.0929 54.4372 81.8558C54.574 81.6933 55.0005 81.7733 55.2419 81.8851C56.744 82.9878 56.6957 83.4246 55.5745 84.0931C55.5584 84.0692 55.5423 84.0425 55.5235 84.0159C56.0841 83.5471 56.0224 83.2568 55.3009 82.9052H55.3036ZM54.8851 84.0052C54.9844 83.9759 55.0675 83.9546 55.1373 83.936C55.1614 83.9733 55.1855 84.0159 55.207 84.0612C55.0836 84.1331 54.9093 84.229 54.6866 84.3461C54.8502 84.1917 54.9093 84.0851 54.8851 84.0052ZM54.1555 83.7575C53.9785 83.5578 53.6459 83.35 53.214 83.0997C53.2864 83.1023 53.3589 83.105 53.4313 83.113C53.8444 83.1556 54.2601 83.2568 54.6169 83.4752C54.7644 83.5658 54.8932 83.675 55.0139 83.7975C54.9575 83.8401 54.8958 83.8827 54.8288 83.9253C54.7215 83.8428 54.4801 83.8028 54.1582 83.7549L54.1555 83.7575ZM55.2794 84.2077C55.2875 84.221 55.2928 84.2369 55.3009 84.2503C55.1695 84.3248 55.0273 84.3994 54.8717 84.482C55.0246 84.3834 55.1587 84.2929 55.2794 84.2077ZM55.3519 84.3408C55.3519 84.3408 55.3572 84.3488 55.3599 84.3515C55.2499 84.4154 55.1346 84.4793 55.0139 84.5486C55.1346 84.4767 55.2446 84.4074 55.3519 84.3408ZM55.4296 81.8851C55.5745 81.8265 55.7193 81.744 55.8561 81.6055C56.4275 81.0302 56.8996 80.5667 57.3153 80.1938C57.2885 81.1047 57.2671 82.0236 57.1946 82.9478C57.1946 82.9771 57.1893 83.0064 57.1866 83.0331C56.8593 83.4273 56.3712 83.7602 55.6335 84.1917C55.6308 84.1837 55.6255 84.1757 55.6201 84.1704C57.0552 83.2488 57.0793 82.8919 55.427 81.8851H55.4296ZM55.8883 79.6958C55.7381 79.8822 55.5906 80.0713 55.4457 80.2604C55.2016 80.7984 54.7859 81.0941 54.3433 81.2565C54.3352 81.2512 54.3272 81.2486 54.3191 81.2432C54.3272 81.2486 54.3326 81.2539 54.3406 81.2565C54.118 81.3364 53.89 81.3844 53.6754 81.4084C53.7263 81.2326 53.78 81.0595 53.8283 80.881C54.1823 79.6372 54.4962 78.3694 54.7376 77.0563C54.7376 76.6594 54.8181 76.2866 54.9468 75.9296C55.0756 75.5727 55.2553 75.2318 55.5664 75.12C55.655 74.558 55.8722 74.225 56.4811 74.1931C56.3068 73.5991 56.5616 73.3434 57.1142 73.189C57.1437 72.904 57.4682 72.7202 57.8357 72.579C58.2032 72.4379 58.6082 72.3367 59.0643 72.2834C58.8658 72.3074 58.4607 73.5246 58.3776 73.7216C57.7928 75.0987 57.5487 76.4757 57.4307 77.8633C56.9049 78.4626 56.3872 79.0725 55.8883 79.6958ZM51.9372 70.6773C52.0284 71.0316 51.8567 71.1727 51.4195 71.1834C51.4249 70.7226 51.4034 70.2538 51.5187 69.8836C51.6985 70.1926 51.8406 70.4589 51.9372 70.6773C51.8862 70.4749 51.7494 70.2086 51.5268 69.8543C51.6019 69.6306 51.7307 69.4442 51.956 69.3216C52.1652 69.2843 52.4415 69.6173 52.5541 69.857C52.9914 71.6628 52.6722 71.9638 51.3766 71.7613C51.3793 71.7321 51.3846 71.7001 51.3873 71.6708C52.1196 71.6708 52.2618 71.4071 51.9345 70.6773H51.9372ZM55.9795 59.3683C55.9795 59.3683 55.9527 59.387 55.9393 59.3976C55.8427 59.2804 55.7435 59.1552 55.6362 59.0194C55.7596 59.1526 55.8722 59.2671 55.9795 59.371V59.3683ZM55.7381 58.8117C55.9205 58.9448 56.0359 58.9821 56.111 58.9475C56.1566 59.0381 56.1941 59.118 56.2236 59.1819C56.1914 59.2112 56.1539 59.2431 56.1136 59.2724C56.0198 59.1659 55.8937 59.0114 55.7408 58.8117H55.7381ZM55.8588 59.4642C55.8588 59.4642 55.8535 59.4695 55.8481 59.4749C55.7649 59.3763 55.6818 59.2778 55.5933 59.1712C55.6871 59.2751 55.773 59.3736 55.8588 59.4669V59.4642ZM56.178 65.1134C56.508 64.9243 56.8674 64.7778 57.1785 64.8897C57.6104 64.5141 57.994 64.3996 58.4795 64.7645C58.7316 64.1972 59.0911 64.1652 59.6141 64.3996C59.8207 64.1998 60.1882 64.2664 60.561 64.3916C60.9339 64.5168 61.3094 64.7005 61.693 64.9482C61.5267 64.839 60.4269 65.5129 60.2364 65.6114C58.8979 66.2933 57.8196 67.1909 56.8298 68.179C56.0385 68.3015 55.2472 68.44 54.4613 68.5998C54.2253 68.6478 53.9919 68.6984 53.7585 68.749C53.2221 69.0073 52.7124 68.9674 52.2698 68.8076C52.2671 68.7996 52.2644 68.7916 52.2591 68.7809C52.2591 68.7889 52.2644 68.7969 52.2671 68.8049C52.0445 68.725 51.8406 68.6158 51.6582 68.496C51.8111 68.3948 51.964 68.2935 52.1169 68.1897C53.1925 67.4625 54.2548 66.6928 55.2875 65.8405C55.545 65.5369 55.8481 65.3025 56.178 65.1134ZM61.2236 63.8056C60.8185 63.5633 60.4081 63.3209 60.4644 63.3182C60.4162 63.2916 60.3706 63.2676 60.3276 63.2436C60.9151 63.0652 61.4945 62.8734 62.0739 62.6817C62.2616 63.1771 62.3341 63.7497 62.3958 64.5301C62.0122 64.285 61.6232 64.0427 61.2289 63.8056H61.2236ZM62.4521 65.3984C62.4682 65.6301 62.4843 65.8778 62.5057 66.1415C63.0127 66.5117 63.5063 66.8979 63.9864 67.2921C62.4977 67.4625 61.0063 67.6197 59.5203 67.8035C60.2445 66.7993 61.0572 65.8671 62.0712 65.0894C62.0739 65.0921 62.0792 65.0947 62.0819 65.1001C62.2026 65.2013 62.326 65.2998 62.4548 65.3984H62.4521ZM52.6936 69.9795C52.8438 70.0274 53.0075 70.0567 53.2033 70.0381C54.0133 69.9635 54.6759 69.9103 55.2338 69.8863C54.6249 70.5681 54.0134 71.258 53.3589 71.9185C53.3374 71.9398 53.3159 71.9584 53.2972 71.9798C52.7902 72.0756 52.2027 72.017 51.3578 71.8759C51.3578 71.8679 51.3605 71.8599 51.3632 71.8519C53.0584 72.0623 53.3106 71.804 52.6936 69.9795ZM57.9645 71.7107C57.4951 71.7827 57.0257 71.8599 57.0659 71.8226C57.0096 71.8333 56.9586 71.8439 56.9103 71.8546C57.2456 71.3432 57.5675 70.8265 57.8867 70.3098C58.3507 70.5708 58.7772 70.9623 59.3271 71.519C58.8738 71.5749 58.4205 71.6415 57.9645 71.7107ZM62.0202 79.2323C62.1409 79.1311 62.2616 79.0272 62.3823 78.9207C62.6157 78.9447 62.8625 78.9713 63.128 78.9979C63.584 78.5665 64.0508 78.151 64.5256 77.7514C64.437 79.2377 64.3351 80.7212 64.2573 82.2074C63.3882 81.3258 62.605 80.3696 62.0068 79.243C62.0095 79.2403 62.0149 79.2377 62.0175 79.2323H62.0202ZM68.6966 64.2637C67.4467 63.4434 66.202 62.6124 64.944 61.8054C66.1484 61.4991 67.3742 61.3046 68.6564 61.3526C68.6564 61.3579 68.6564 61.3632 68.6564 61.3659C68.6832 61.5204 68.7154 61.6749 68.7476 61.832C68.6108 62.0211 68.4633 62.2182 68.3077 62.4366C68.4552 63.0439 68.584 63.6538 68.6966 64.2637ZM65.231 89.2602C65.3034 89.1217 65.3625 88.9646 65.3785 88.7728C65.4429 87.9684 65.5073 87.3106 65.5824 86.7592C66.1511 87.473 66.7305 88.1895 67.2723 88.9459C67.2884 88.9699 67.3045 88.9939 67.3206 89.0178C67.3259 89.5292 67.1677 90.0939 66.8807 90.8956C66.8726 90.8929 66.8646 90.8902 66.8565 90.8876C67.3581 89.2655 67.1462 88.9752 65.231 89.2602ZM70.2149 59.5095C70.0378 60.0075 69.724 60.4923 69.2653 61.1289C69.1312 60.6974 68.9863 60.2632 68.8388 59.8291C68.6859 59.3843 68.5276 58.9368 68.5706 58.9715C68.5491 58.9182 68.5303 58.8703 68.5116 58.825C69.0775 59.0647 69.6462 59.2884 70.2122 59.5121L70.2149 59.5095ZM67.5539 53.3969C67.6398 55.0908 67.9402 55.2932 69.6435 54.3744C69.6221 54.5288 69.6221 54.6966 69.673 54.8831C69.8876 55.6608 70.0566 56.3 70.1746 56.8434C69.3941 56.3639 68.6028 55.8872 67.8329 55.3625C67.8088 55.3465 67.7846 55.3279 67.7632 55.3119C67.5808 54.8325 67.5352 54.2492 67.5298 53.3995C67.5379 53.3995 67.5459 53.3995 67.5566 53.3995L67.5539 53.3969ZM67.5271 53.0799C67.5271 52.9521 67.5271 52.8216 67.5271 52.6831C67.5298 52.8216 67.5352 52.9521 67.5379 53.0799C67.5325 53.0799 67.5298 53.0799 67.5244 53.0799H67.5271ZM70.1666 53.538C70.239 53.7378 69.9574 54.0654 69.7401 54.2172C68.026 54.9576 67.672 54.6993 67.6478 53.3969C67.6773 53.3969 67.7095 53.3942 67.739 53.3915C67.8678 54.108 68.1521 54.2012 68.82 53.7564C68.4847 53.9056 68.3157 53.7618 68.2272 53.3383C68.6832 53.2637 69.1473 53.1598 69.5335 53.2104C69.2573 53.4395 69.0185 53.6233 68.8173 53.7591C69.0078 53.6739 69.2519 53.4928 69.563 53.2158C69.7991 53.2504 70.0056 53.3436 70.1639 53.5434L70.1666 53.538ZM67.6478 53.0799C67.6478 52.9281 67.6559 52.7683 67.6612 52.5952C67.6693 52.7763 67.6827 52.9361 67.6961 53.0826C67.68 53.0826 67.6639 53.0826 67.6478 53.0826V53.0799ZM67.8731 52.5019C67.9268 52.7204 67.9912 52.8242 68.0716 52.8429C68.0475 52.9414 68.026 53.024 68.0046 53.0932C67.959 53.0932 67.9107 53.0932 67.8624 53.0932C67.8597 52.9521 67.8624 52.7523 67.8731 52.5019ZM69.5765 52.0412C69.335 52.3768 69.0373 52.6804 68.6698 52.8775C68.5196 52.9574 68.356 53.016 68.1897 53.0559C68.1816 52.984 68.1736 52.9121 68.1682 52.8322C68.2943 52.7789 68.4499 52.5925 68.651 52.3395C68.9139 52.2889 69.2626 52.1051 69.6945 51.8574C69.6542 51.9187 69.6167 51.9799 69.5738 52.0385L69.5765 52.0412ZM64.1688 44.4903C65.3544 43.8031 65.7246 45.0017 65.8721 46.2056C65.8077 46.123 65.7299 46.0351 65.6441 45.9472C65.746 46.0777 65.8319 46.2082 65.8882 46.3307C65.9043 46.4799 65.9177 46.6317 65.9284 46.7755C65.915 46.8048 65.8962 46.8341 65.8721 46.8608C65.8962 46.8554 65.915 46.8474 65.9338 46.8395C65.9392 46.9087 65.9445 46.978 65.9499 47.0472C65.9043 47.0046 65.8587 46.962 65.8104 46.9167C65.7836 46.938 65.7568 46.9566 65.7192 46.9726C65.8131 47.0605 65.8909 47.1404 65.9633 47.2177C65.9687 47.2869 65.9713 47.3508 65.9767 47.4148C65.9016 47.3562 65.8238 47.2949 65.7326 47.2177C65.8506 47.3801 65.9553 47.5266 66.0545 47.6678C66.0706 47.6944 66.0867 47.7211 66.1028 47.7477C66.076 47.7397 66.0465 47.729 66.0116 47.7157C66.2798 48.1259 66.473 48.4082 66.5963 48.576C66.5829 48.5228 66.5695 48.4642 66.5561 48.4082C66.5105 48.3363 66.4542 48.2511 66.3925 48.1579C66.4408 48.2111 66.489 48.2671 66.5346 48.3203C66.5427 48.3496 66.5481 48.3789 66.5561 48.4082C66.6124 48.4961 66.658 48.5707 66.6902 48.6266C66.6741 48.568 66.658 48.5041 66.6393 48.4402C67.3179 49.2126 67.9939 49.9717 68.6913 50.6748C68.9944 51.0104 69.2975 51.3433 69.6006 51.6736C67.9751 52.0065 67.4654 51.6736 66.8726 49.6201C66.7975 49.4976 66.6661 49.2206 66.473 48.8184C66.3871 48.8024 66.0921 48.5254 65.5556 47.9155C66.9504 50.2567 66.9746 50.6935 65.4241 48.5574C66.9611 51.5564 66.9182 51.9799 65.1586 49.7027C66.1082 51.5458 66.4515 52.438 66.2342 52.7736C66.0947 52.201 65.797 51.655 65.4858 51.3061C64.9842 50.792 64.4397 50.6748 63.9086 50.792C63.4875 50.0249 63.0824 49.2845 62.7793 48.7678C62.8357 48.6586 62.8786 48.5467 62.9054 48.4242C62.9939 48.2964 63.0905 48.1792 63.1924 48.0673C63.5948 47.6252 64.0588 47.2922 64.4343 46.8261C64.2815 46.9886 64.091 47.0792 63.9247 46.8261C63.6296 46.3813 64.0776 46.0857 64.1983 45.8806C63.8711 45.9685 63.6296 46.3813 63.5089 46.5891C63.7825 45.6436 62.6452 46.645 62.1356 45.9259C61.9585 45.7714 61.8029 45.5983 61.6715 45.4198C62.7981 45.9046 63.399 44.8712 64.1742 44.4903H64.1688ZM61.9344 42.1305C61.8217 42.3489 61.7869 42.8549 61.6715 43.0574C61.5857 42.7404 61.7547 42.4394 61.9344 42.1305ZM61.9719 49.7586C62.0631 49.8678 62.157 49.9743 62.2455 50.0835C62.2455 50.0649 62.2402 50.0489 62.2402 50.0303C62.1624 49.9264 62.0819 49.8225 62.0041 49.7213C62.0685 49.6494 62.1356 49.5801 62.2026 49.5082C62.2107 49.6814 62.2214 49.8545 62.2402 50.0303C62.5191 50.4005 62.8035 50.7814 63.0824 51.1489C62.6291 51.4392 62.2107 51.8494 61.8673 52.2649C61.6447 52.0918 61.4972 51.908 61.4113 51.7162C61.3309 51.5191 61.3121 51.3167 61.3443 51.1036C61.3013 50.5603 61.6152 50.1501 61.9719 49.7559V49.7586ZM60.5127 54.8991C60.6549 54.8165 60.7997 54.8112 60.9392 54.8378C61.363 54.9204 61.7627 55.3066 62.0336 54.8405C61.1136 54.0361 60.0728 53.4395 60.0487 52.0492C60.6656 54.3317 62.9 54.7845 64.7804 53.9349C64.8367 54.7925 64.268 55.2959 63.7772 55.7753C63.6377 55.9325 63.7611 56.0443 63.8898 56.1509C63.9381 56.1908 63.9891 56.2308 64.04 56.2707C63.9462 56.316 63.8415 56.3586 63.7316 56.3986C63.3587 56.5371 62.9698 56.6303 62.5728 56.6995C61.2611 56.87 59.9602 56.7635 58.6699 56.5451C58.6297 56.5371 58.5895 56.5291 58.5492 56.5211C58.8604 55.7221 59.7804 55.5116 60.5074 54.8964L60.5127 54.8991ZM59.0294 57.3761C60.325 57.5066 61.6366 57.5945 62.9805 57.5998C63.3748 57.5305 63.7584 57.5439 64.1339 57.6104C64.5095 57.6744 64.8796 57.7916 65.0459 58.0765C65.62 58.0659 65.9874 58.2204 66.1242 58.8117C66.6849 58.5373 66.9826 58.7424 67.2294 59.2565C67.5164 59.2351 67.7551 59.5201 67.959 59.8557C68.1628 60.1887 68.3345 60.5695 68.466 61.0037C68.4096 60.8146 67.1301 60.6281 66.9209 60.5829C65.4537 60.2499 64.0454 60.2499 62.6506 60.3751C61.9639 59.9649 61.2692 59.5628 60.5637 59.1845C60.3518 59.07 60.1399 58.9608 59.928 58.8489C59.3513 58.7051 58.9865 58.3482 58.7477 57.9434C58.7504 57.9354 58.7531 57.9274 58.7558 57.9167C58.7531 57.9247 58.7477 57.9327 58.745 57.9407C58.627 57.7383 58.5439 57.5226 58.4795 57.3148C58.6619 57.3334 58.8443 57.3548 59.0267 57.3734L59.0294 57.3761ZM58.6646 59.4855C59.3325 59.9436 59.8743 60.3272 60.3196 60.6654C59.4103 60.7986 58.4983 60.9371 57.5648 61.025C57.5353 61.0276 57.5058 61.0303 57.479 61.033C57.031 60.7826 56.6152 60.3618 56.0627 59.7172C56.068 59.7119 56.0761 59.7066 56.0815 59.7013C57.2429 60.9424 57.605 60.9078 58.3132 59.118C58.3963 59.2511 58.5036 59.3763 58.6646 59.4882V59.4855ZM57.4736 58.2923C57.4092 58.6439 57.3475 58.9368 57.2805 59.1686C57.3717 58.9821 57.4414 58.6891 57.5004 58.2763C57.7043 58.1511 57.9242 58.0925 58.1737 58.1431C58.3588 58.2497 58.3534 58.6812 58.2864 58.9342C57.4521 60.5962 57.0122 60.6228 56.1539 59.6427C56.1753 59.6213 56.1995 59.6 56.2209 59.5787C56.7816 60.0448 57.0605 59.9356 57.2858 59.1659C57.1276 59.4935 56.9023 59.4935 56.5616 59.2245C56.862 58.8756 57.1517 58.5027 57.479 58.2923H57.4736ZM56.7494 57.3734C56.7789 57.7836 56.7494 58.2071 56.5965 58.5933C56.5321 58.7531 56.4463 58.8996 56.3443 59.0354C56.2934 58.9848 56.2397 58.9342 56.1834 58.8756C56.2451 58.7557 56.2451 58.5134 56.2344 58.1911C56.4007 57.9833 56.5509 57.6211 56.7225 57.155C56.7306 57.2269 56.7413 57.2988 56.7467 57.3707L56.7494 57.3734ZM49.2924 58.8649C49.279 58.7104 49.2763 58.5586 49.2817 58.4095C49.3031 57.8155 49.4453 57.2615 49.4292 56.6649C49.4158 56.8886 49.3299 57.0778 49.0376 56.9899C48.5225 56.838 48.6754 56.3267 48.6325 56.0923C48.4367 56.3693 48.5199 56.838 48.5628 57.0751C48.1577 56.1775 47.9351 57.669 47.0794 57.4453C46.8434 57.44 46.6127 57.408 46.3981 57.3548C47.573 57.0085 47.3664 55.8313 47.7125 55.0455C48.1765 53.7618 49.2361 54.4436 50.1266 55.2719C50.022 55.2506 49.9066 55.232 49.7833 55.2213C49.9469 55.256 50.0971 55.3012 50.2205 55.3598C50.3305 55.4637 50.4378 55.5702 50.5397 55.6741C50.5477 55.7061 50.5531 55.7407 50.5504 55.7753C50.5638 55.7567 50.5746 55.738 50.5826 55.7194C50.6309 55.77 50.6818 55.8206 50.7274 55.8685C50.6658 55.8659 50.6041 55.8606 50.537 55.8579C50.529 55.8899 50.5209 55.9245 50.5048 55.9591C50.6309 55.9671 50.7462 55.9778 50.8482 55.9911C50.8964 56.0417 50.942 56.0896 50.9876 56.1349C50.8938 56.1376 50.7918 56.1402 50.6711 56.1402C50.8508 56.1855 51.0145 56.2281 51.1674 56.2681C51.2076 56.284 51.2478 56.2974 51.2907 56.3107C51.2666 56.3213 51.2398 56.332 51.2049 56.3426C51.677 56.4865 52.0069 56.5797 52.2108 56.6276C52.1652 56.5957 52.1169 56.5584 52.0713 56.5238C51.9882 56.4971 51.8916 56.4678 51.7843 56.4359C51.8567 56.4465 51.9265 56.4572 51.9989 56.4705C52.023 56.4891 52.0472 56.5078 52.0713 56.5238C52.1732 56.5557 52.2537 56.5824 52.3154 56.6063C52.2644 56.5717 52.2108 56.5344 52.1545 56.4971C53.1738 56.6569 54.1823 56.8061 55.1721 56.8993C55.6201 56.9632 56.068 57.0245 56.516 57.0831C55.4887 58.3749 54.8771 58.4441 53.0987 57.2509C52.9619 57.2029 52.6829 57.0778 52.2725 56.8913C52.1974 56.9339 51.7923 56.91 50.985 56.7848C53.5708 57.6877 53.8712 58.0073 51.2988 57.3627C54.4157 58.6785 54.6598 59.0301 51.8353 58.4095C53.7532 59.2138 54.5954 59.6799 54.6464 60.0741C54.1689 59.7252 53.5869 59.4962 53.1255 59.4269C52.4093 59.3523 51.9184 59.6134 51.5885 60.0422C50.7677 59.7226 49.9791 59.4136 49.4104 59.2112C49.3836 59.0913 49.3433 58.9768 49.2843 58.8676L49.2924 58.8649ZM49.4453 60.4737C49.5848 60.5003 49.7269 60.5243 49.8664 60.5536C49.853 60.5402 49.8396 60.5296 49.8262 60.5163C49.6974 60.487 49.5713 60.4577 49.4453 60.431C49.4506 60.3352 49.456 60.2393 49.4587 60.1434C49.5767 60.2712 49.7001 60.3964 49.8235 60.5189C50.2768 60.6228 50.7409 60.732 51.1942 60.8359C51.0359 61.3473 50.9796 61.9279 50.985 62.4659C50.7006 62.4739 50.4699 62.4286 50.2795 62.3381C50.0917 62.2395 49.9442 62.0957 49.8315 61.9119C49.4453 61.5231 49.4211 61.0063 49.4426 60.4737H49.4453ZM49.456 63.462C51.4061 64.8177 53.4098 63.739 54.303 61.8853C54.9012 62.5085 54.7912 63.2543 54.7269 63.9361C54.7215 64.1439 54.8878 64.1519 55.0568 64.1519C55.1212 64.1519 55.1855 64.1492 55.2499 64.1465C55.207 64.2398 55.1534 64.341 55.097 64.4422C54.9012 64.7858 54.6625 65.1081 54.405 65.4117C53.5091 66.3785 52.4442 67.1269 51.3149 67.7848C51.28 67.8061 51.2425 67.8248 51.2076 67.8434C50.9286 67.0337 51.4973 66.2853 51.6555 65.3478C51.7119 65.1933 51.8165 65.0974 51.9426 65.0281C52.3208 64.8204 52.876 64.8604 52.7821 64.3303C51.5563 64.3037 50.3734 64.5088 49.4533 63.4594L49.456 63.462ZM50.5933 71.6122C50.773 71.6335 50.9367 71.6521 51.0815 71.6628C51.0788 71.6788 51.0735 71.6948 51.0708 71.7107C50.9206 71.6814 50.7623 71.6495 50.5933 71.6149V71.6122ZM51.052 71.812C51.052 71.812 51.052 71.8199 51.052 71.8253C50.9259 71.804 50.7972 71.78 50.6577 71.756C50.7972 71.7773 50.9259 71.796 51.052 71.812ZM50.537 71.3885C50.7623 71.3752 50.8777 71.3299 50.9098 71.2526C51.0037 71.2926 51.0815 71.3299 51.1459 71.3618C51.1405 71.4071 51.1298 71.4524 51.1191 71.503C50.9769 71.4817 50.7811 71.4417 50.5343 71.3885H50.537ZM50.3761 69.6439C50.6658 69.9396 50.9179 70.2831 51.0493 70.6773C51.103 70.8398 51.1325 71.0076 51.1432 71.1781C51.0708 71.1727 50.9984 71.1674 50.9179 71.1594C50.8884 71.0289 50.7301 70.8425 50.5129 70.6028C50.5075 70.3364 50.3868 69.9635 50.2178 69.4974C50.2714 69.5454 50.3251 69.5933 50.3761 69.6466V69.6439ZM45.9475 75.7272C45.8482 75.6526 45.7436 75.5914 45.6309 75.5461C45.5183 75.4369 45.419 75.3224 45.3278 75.2025C44.9604 74.7338 44.7082 74.2197 44.3112 73.7723C44.4453 73.9507 44.5017 74.1505 44.2227 74.2703C43.7292 74.4834 43.5146 73.9933 43.3322 73.8388C43.3617 74.1744 43.7291 74.4807 43.9142 74.6352C43.0237 74.2037 43.8177 75.4902 43.0183 75.8631C42.8359 76.0096 42.6347 76.1321 42.4362 76.228C43.1122 75.2105 42.1922 74.4434 41.9481 73.6178C41.4733 72.3367 42.7259 72.1848 43.9464 72.2514C43.8525 72.302 43.7506 72.3606 43.6487 72.4299C43.7962 72.3526 43.9411 72.2914 44.0725 72.2568C44.2254 72.2674 44.3756 72.2807 44.5204 72.294C44.5473 72.3127 44.5741 72.3367 44.5956 72.3633C44.5956 72.3367 44.5848 72.3207 44.5795 72.2994C44.6519 72.3074 44.7243 72.3127 44.7941 72.3207C44.7458 72.358 44.6948 72.3952 44.6412 72.4352C44.6572 72.4672 44.6707 72.4965 44.6814 72.5338C44.7833 72.4592 44.8772 72.3952 44.9684 72.3393C45.0355 72.3473 45.1025 72.3553 45.1669 72.3606C45.0972 72.4219 45.0194 72.4885 44.9282 72.5657C45.1106 72.4778 45.2742 72.4006 45.4298 72.3287C45.4593 72.318 45.4888 72.3074 45.5183 72.294C45.5049 72.3207 45.4888 72.3473 45.47 72.3793C45.926 72.1875 46.2372 72.0463 46.4249 71.9558C46.3686 71.9584 46.3096 71.9638 46.2506 71.9664C46.1701 71.9984 46.0762 72.0383 45.9743 72.0836C46.036 72.0463 46.0977 72.0091 46.1621 71.9718C46.1916 71.9718 46.2238 71.9691 46.2533 71.9664C46.3498 71.9265 46.4303 71.8945 46.4947 71.8732C46.433 71.8785 46.3686 71.8839 46.3015 71.8919C47.184 71.3645 48.0558 70.8345 48.8739 70.2751C49.2575 70.0381 49.6411 69.7984 50.022 69.5587C50.0703 71.2047 49.6491 71.6468 47.5113 71.8679C47.3745 71.9185 47.0794 72.0011 46.6449 72.1209C46.6127 72.2008 46.2881 72.4432 45.588 72.8614C48.1524 71.9052 48.5896 71.9558 46.2023 73.1037C49.4426 72.1209 49.8557 72.2354 47.2913 73.5645C49.2817 72.9572 50.2285 72.7735 50.5236 73.0451C49.9308 73.0824 49.338 73.2795 48.9383 73.5219C48.3401 73.9214 48.1336 74.4328 48.1577 74.9735C47.3208 75.2531 46.5161 75.5195 45.9502 75.7272H45.9475ZM48.0183 77.533C47.4684 77.4824 47.117 77.1016 46.787 76.6807C46.9104 76.6115 47.0365 76.5422 47.1599 76.473C47.1411 76.473 47.125 76.473 47.1063 76.4703C46.9882 76.5289 46.8729 76.5875 46.7602 76.6461C46.7012 76.5689 46.6422 76.4916 46.5832 76.4171C46.7575 76.4384 46.9319 76.457 47.1063 76.4703C47.522 76.2599 47.9485 76.0495 48.3616 75.8391C48.5708 76.3318 48.9034 76.8112 49.2575 77.2214C49.0456 77.4105 48.8391 77.5224 48.6352 77.573C48.426 77.6183 48.2221 77.6023 48.0156 77.533H48.0183ZM51.6368 79.0033C51.5804 78.8488 51.5992 78.7076 51.6502 78.5745C51.8058 78.1749 52.2564 77.85 51.8433 77.5037C50.8857 78.2655 50.1132 79.1791 48.7291 78.9607C51.1003 78.7556 51.9372 76.6488 51.4222 74.6592C52.2832 74.7551 52.6829 75.397 53.0745 75.9589C53.206 76.1214 53.3374 76.0229 53.4661 75.9137C53.5144 75.8711 53.5627 75.8284 53.611 75.7858C53.6378 75.8844 53.6646 75.9962 53.6834 76.1108C53.7558 76.4996 53.7827 76.8965 53.7827 77.296C53.7237 78.6091 53.391 79.8609 52.9538 81.0861C52.9404 81.1234 52.9243 81.1607 52.9109 81.2006C52.1732 80.7585 52.125 79.8209 51.6395 79.0033H51.6368ZM53.9812 90.5999C53.8578 90.6053 53.7371 90.6239 53.619 90.6638C53.4608 90.6505 53.3106 90.6266 53.163 90.5946C52.5756 90.4694 52.0525 90.2377 51.4597 90.1471C51.6797 90.1977 51.8514 90.3149 51.7146 90.5866C51.4731 91.0634 50.993 90.8263 50.7543 90.8263C50.9957 91.066 51.4758 91.066 51.7146 91.066C50.7543 91.3057 52.1947 91.7825 51.8219 92.5789C51.7763 92.8079 51.7038 93.029 51.6126 93.2314C51.4731 92.0222 50.2714 92.0222 49.5499 91.5428C48.3562 90.8663 49.2173 89.95 50.1937 89.2203C50.1534 89.3188 50.1159 89.428 50.0837 89.5452C50.1454 89.3907 50.2178 89.2522 50.2983 89.143C50.4217 89.0525 50.545 88.9672 50.6658 88.8847C50.6979 88.882 50.7328 88.8847 50.7677 88.89C50.7516 88.874 50.7328 88.8607 50.7167 88.8474C50.7757 88.8074 50.8321 88.7701 50.8884 88.7302C50.875 88.7888 50.8589 88.85 50.8455 88.9166C50.8777 88.9299 50.9072 88.9433 50.942 88.9672C50.9715 88.8447 51.0011 88.7355 51.0332 88.637C51.0923 88.5997 51.1459 88.5624 51.1995 88.5278C51.1861 88.621 51.17 88.7195 51.1513 88.8367C51.2264 88.6689 51.2961 88.5171 51.3659 88.3733C51.3873 88.336 51.4088 88.2987 51.4302 88.2614C51.4356 88.2881 51.441 88.3173 51.4463 88.3493C51.6716 87.9125 51.8192 87.6036 51.905 87.4144C51.8648 87.4544 51.8219 87.4943 51.7789 87.5343C51.7387 87.6115 51.6931 87.6994 51.6421 87.8006C51.6663 87.7314 51.6877 87.6648 51.7119 87.5956C51.7333 87.5743 51.7548 87.5529 51.7763 87.5343C51.8245 87.4411 51.8675 87.3665 51.8996 87.3079C51.8567 87.3505 51.8111 87.3985 51.7628 87.4437C52.0981 86.4742 52.4227 85.5127 52.6856 84.5619C52.8277 84.1357 52.9645 83.7069 53.1013 83.2808C54.2038 84.5113 54.1662 85.1185 52.6748 86.6527C52.6051 86.7779 52.4308 87.0309 52.1759 87.3985C52.2028 87.4784 52.1116 87.8726 51.846 88.6396C53.1925 86.2692 53.56 86.0294 52.4737 88.4319C54.3191 85.6113 54.7108 85.4355 53.6056 88.0883C54.7376 86.3517 55.3438 85.6086 55.7462 85.6273C55.317 86.0348 54.9871 86.5621 54.8395 87.0043C54.641 87.6914 54.8127 88.2161 55.1829 88.613C54.7242 89.3588 54.2789 90.0779 53.9812 90.5999ZM57.2376 90.2963C57.1061 90.4641 56.9398 90.5813 56.7386 90.6612C56.2853 90.9728 55.7676 90.9062 55.2446 90.7917C55.2955 90.6585 55.3438 90.5253 55.3975 90.3948C55.384 90.4055 55.3679 90.4162 55.3545 90.4268C55.3036 90.5467 55.2526 90.6665 55.2043 90.7837C55.1104 90.7624 55.0139 90.7411 54.92 90.7198C55.0675 90.6266 55.2124 90.528 55.3545 90.4268C55.5369 90.0007 55.7274 89.5665 55.9071 89.143C56.3846 89.3881 56.9532 89.5425 57.487 89.6304C57.4468 89.9101 57.3609 90.1285 57.2376 90.2963ZM60.4618 89.476C60.3196 89.396 60.2418 89.2735 60.1962 89.1377C60.0567 88.7328 60.1935 88.1948 59.6517 88.1948C59.4103 89.3881 59.4103 90.5813 58.2086 91.2978C59.8904 89.6278 59.1689 87.4784 57.487 86.2851C58.2086 85.8084 58.9301 86.0454 59.5927 86.2265C59.7992 86.2692 59.8341 86.1067 59.8636 85.9416C59.8743 85.8776 59.8824 85.8164 59.8931 85.7524C59.9789 85.811 60.0701 85.8803 60.1587 85.9549C60.4644 86.2079 60.7434 86.4955 61.0009 86.7992C61.8056 87.8433 62.3636 89.0152 62.8169 90.2324C62.8303 90.2697 62.8437 90.3096 62.8571 90.3469C62.0068 90.4774 61.3604 89.7929 60.4591 89.476H60.4618ZM63.9998 89.4706C63.9998 89.4706 63.981 89.4733 63.973 89.476C63.981 89.476 63.9891 89.476 63.9998 89.4733C63.8818 89.6757 63.7369 89.8568 63.5867 90.0166C63.5116 89.8488 63.4392 89.681 63.3641 89.5159C62.8303 88.3387 62.2509 87.1667 61.5857 86.0055C61.3282 85.7018 61.1485 85.3662 61.017 85.0093C60.8856 84.6524 60.8024 84.2769 60.966 83.9919C60.6683 83.5045 60.62 83.1103 61.068 82.6975C60.5476 82.3539 60.5798 81.9943 60.9044 81.5229C60.7407 81.2858 60.8722 80.9369 61.0599 80.596C61.2477 80.2524 61.4945 79.9168 61.8083 79.5866C61.6715 79.7304 62.149 80.9236 62.2133 81.126C62.6559 82.5536 63.3614 83.7655 64.1688 84.9028C64.1527 85.6992 64.1527 86.4955 64.1742 87.2919C64.1795 87.529 64.1903 87.7687 64.201 88.0057C64.3619 88.573 64.2359 89.0658 63.9998 89.4733V89.4706ZM64.4987 91.4762C64.8421 91.2445 65.2256 91.058 65.6414 90.9968C65.8104 90.9728 65.9821 90.9728 66.1537 90.9915C66.1377 91.0607 66.1189 91.13 66.0947 91.2099C65.9579 91.2179 65.746 91.3377 65.4724 91.5082C65.2069 91.4682 64.8179 91.5215 64.3244 91.6067C64.3834 91.5641 64.4397 91.5188 64.4987 91.4789V91.4762ZM69.5282 97.1414C69.3994 97.2319 69.268 97.3092 69.1365 97.3784C68.6081 97.6581 68.0555 97.8125 67.5405 98.1242C67.7417 98.023 67.9483 98.0017 68.0207 98.2973C68.1468 98.8167 67.6237 98.9392 67.4386 99.0937C67.7766 99.123 68.1467 98.8167 68.3292 98.6622C67.7471 99.4586 69.1607 98.9046 69.3914 99.7515C69.504 99.9566 69.5925 100.172 69.6516 100.383C68.761 99.5438 67.841 100.311 66.9799 100.407C65.628 100.649 65.6951 99.3973 65.9713 98.2147C66.0035 98.3159 66.0465 98.4251 66.0974 98.537C66.0465 98.3799 66.0116 98.228 66.0009 98.0922C66.0384 97.9457 66.076 97.7992 66.1162 97.6607C66.1403 97.6368 66.1672 97.6181 66.1993 97.5995C66.1725 97.5995 66.1537 97.6021 66.1323 97.6048C66.1511 97.5355 66.1725 97.4663 66.1913 97.3997C66.2181 97.453 66.2476 97.5116 66.2798 97.5702C66.312 97.5622 66.3442 97.5515 66.3844 97.5489C66.3281 97.4343 66.2825 97.3331 66.2396 97.2346C66.2584 97.168 66.2771 97.1067 66.2959 97.0455C66.3442 97.1254 66.3978 97.2106 66.4569 97.3145C66.4059 97.136 66.3603 96.9762 66.3201 96.8217C66.312 96.7791 66.3066 96.7365 66.2959 96.6939C66.3174 96.7099 66.3388 96.7285 66.3657 96.7525C66.2557 96.2757 66.1698 95.9428 66.1108 95.7457C66.1055 95.8016 66.0974 95.8602 66.0921 95.9188C66.1108 96.0014 66.135 96.1 66.1591 96.2092C66.1323 96.1426 66.1082 96.076 66.0813 96.0067C66.084 95.9774 66.0894 95.9455 66.0921 95.9188C66.0706 95.815 66.0518 95.7324 66.0411 95.6685C66.0357 95.7297 66.0304 95.7937 66.025 95.8602C65.6548 94.9041 65.282 93.9612 64.8662 93.0636C64.6972 92.6455 64.5282 92.23 64.3566 91.8145C65.9982 92.0542 66.363 92.5416 66.2128 94.6697C66.2396 94.8108 66.2691 95.1145 66.312 95.5593C66.3871 95.6045 66.5695 95.9641 66.8619 96.7205C66.3576 94.0464 66.4837 93.6283 67.2079 96.1612C66.7975 92.8212 66.9826 92.4377 67.8517 95.1757C67.5942 93.1196 67.5781 92.166 67.9 91.9237C67.8356 92.5096 67.9241 93.1249 68.0958 93.5564C68.3908 94.2089 68.8603 94.5019 69.3994 94.5711C69.5309 95.4368 69.6569 96.2704 69.7642 96.859C69.673 96.9416 69.5925 97.0348 69.5282 97.1387V97.1414ZM71.9155 95.1518C71.7679 95.6791 71.3307 95.9588 70.8559 96.2065C70.8077 96.0733 70.7594 95.9401 70.7165 95.8043C70.7111 95.8203 70.7084 95.8389 70.703 95.8549C70.7406 95.9801 70.7808 96.1026 70.8184 96.2251C70.7326 96.2704 70.6467 96.313 70.5582 96.3583C70.6118 96.1932 70.6601 96.0254 70.703 95.8549C70.5662 95.4128 70.4321 94.9573 70.2953 94.5179C70.8211 94.4007 71.3549 94.1556 71.8216 93.8813C71.9718 94.121 72.0469 94.3421 72.063 94.5525C72.0711 94.7656 72.0201 94.9627 71.9155 95.1491V95.1518ZM74.0024 91.8677C73.8414 91.897 73.7046 91.8544 73.5812 91.7798C73.2111 91.5588 72.967 91.0607 72.5539 91.4043C73.1413 92.4723 73.9138 93.3859 73.4578 94.7016C73.6644 92.3472 71.7223 91.1619 69.6596 91.3217C69.9037 90.4961 70.6092 90.2191 71.2368 89.9314C71.4219 89.8329 71.3468 89.6864 71.261 89.5399C71.2288 89.4839 71.1939 89.4307 71.1617 89.3774C71.2637 89.3668 71.379 89.3614 71.4943 89.3614C71.8913 89.3614 72.291 89.4014 72.6853 89.4706C73.9782 89.7583 75.1638 90.299 76.2985 90.9409C76.3333 90.9622 76.3682 90.9835 76.4031 91.0048C75.8371 91.6493 74.8983 91.5348 74.0024 91.8677ZM76.7437 90.291C76.5774 90.2111 76.4165 90.1258 76.2475 90.0459C75.0753 89.4839 73.8736 88.9566 72.6129 88.4931C72.2186 88.4239 71.8645 88.2801 71.5319 88.0936C71.202 87.9045 70.8935 87.6701 70.8345 87.3479C70.2926 87.1641 69.9976 86.8924 70.0727 86.2905C69.4531 86.3571 69.2438 86.0641 69.1875 85.4968C68.9112 85.4195 68.7852 85.0706 68.7074 84.6871C68.6296 84.3035 68.6001 83.888 68.6269 83.4353C68.6162 83.6323 69.7508 84.2423 69.9332 84.3568C71.1966 85.1665 72.519 85.6459 73.8763 86.0028C74.3806 86.6234 74.8929 87.2333 75.4267 87.8299C75.585 88.0084 75.7459 88.1842 75.9095 88.36C76.4004 88.6929 76.623 89.151 76.7062 89.6118C76.7008 89.6198 76.6955 89.6251 76.6874 89.6331C76.6928 89.6278 76.6981 89.6198 76.7062 89.6144C76.7464 89.8462 76.7545 90.0779 76.7411 90.2963L76.7437 90.291ZM78.0259 89.713C78.2056 89.404 78.3666 89.151 78.5087 88.9566C78.3585 89.1031 78.1922 89.3534 77.9964 89.721C77.763 89.7689 77.535 89.7503 77.3178 89.6171C77.181 89.4546 77.3339 89.0525 77.4868 88.8341C78.8414 87.5556 79.2652 87.6781 79.7346 88.8927C79.7078 88.9033 79.6783 88.9166 79.6514 88.9299C79.2839 88.3014 78.9835 88.3094 78.5087 88.9566C78.7716 88.7009 78.9808 88.7781 79.2088 89.1483C78.8065 89.3747 78.4068 89.6278 78.0259 89.713ZM78.3907 90.8237C78.5034 90.4268 78.6777 90.0379 78.954 89.729C79.0694 89.6011 79.2008 89.4919 79.343 89.3987C79.3751 89.4626 79.4046 89.5292 79.4395 89.6038C79.3403 89.697 79.2571 89.9234 79.1552 90.2297C78.9272 90.3682 78.6616 90.6585 78.3398 91.0367C78.3558 90.9675 78.3693 90.8956 78.3907 90.8263V90.8237ZM86.0757 96.084C85.1959 97.1334 84.4368 96.1319 83.8842 95.0506C83.9754 95.1065 84.0773 95.1624 84.1873 95.213C84.0451 95.1251 83.9218 95.0319 83.8252 94.9334C83.7581 94.7975 83.6938 94.6617 83.6321 94.5285C83.6347 94.4966 83.6428 94.4619 83.6562 94.43C83.6374 94.4433 83.6213 94.4566 83.6052 94.4726C83.5757 94.4087 83.5489 94.3447 83.5194 94.2835C83.5757 94.3074 83.6347 94.3314 83.6964 94.3581C83.7152 94.3288 83.734 94.3021 83.7635 94.2728C83.6482 94.2222 83.5435 94.1743 83.4497 94.1263C83.4228 94.0624 83.396 94.0012 83.3692 93.9452C83.4577 93.9745 83.5543 94.0065 83.6669 94.0464C83.514 93.9426 83.3746 93.8493 83.2431 93.7561C83.2109 93.7268 83.1761 93.7002 83.1439 93.6736C83.1707 93.6736 83.2002 93.6736 83.2351 93.6736C82.8408 93.3779 82.5618 93.1781 82.3874 93.0636C82.4196 93.1116 82.4518 93.1595 82.484 93.2074C82.5538 93.2607 82.6342 93.3193 82.7254 93.3859C82.661 93.3513 82.5994 93.3166 82.535 93.282C82.5189 93.2581 82.5001 93.2314 82.484 93.2074C82.4009 93.1435 82.3338 93.0903 82.2828 93.0476C82.3177 93.0982 82.3553 93.1515 82.3955 93.2048C81.4915 92.7094 80.5956 92.2246 79.6997 91.8011C79.3 91.5881 78.9004 91.3803 78.498 91.1726C79.9116 90.3069 80.5071 90.4481 81.7705 92.174C81.8832 92.2646 82.1031 92.4777 82.4223 92.7919C82.5081 92.7786 82.881 92.9384 83.5945 93.33C81.4781 91.6014 81.3038 91.2019 83.4979 92.6801C81.0221 90.3842 80.9148 89.9714 83.3531 91.5135C81.8268 90.1045 81.1965 89.3827 81.285 88.9939C81.6149 89.4839 82.0817 89.8968 82.4921 90.1178C83.1412 90.4321 83.6911 90.3522 84.1471 90.0619C84.8069 90.6399 85.4427 91.1992 85.9067 91.5827C85.8906 91.7053 85.8906 91.8251 85.9067 91.9476C85.8665 92.0995 85.8155 92.2433 85.7592 92.3791C85.5339 92.9304 85.212 93.4019 85.0189 93.9692C85.1074 93.7641 85.2522 93.615 85.499 93.7961C85.9309 94.113 85.6117 94.5418 85.5687 94.7789C85.8477 94.5844 85.9309 94.1157 85.9738 93.8813C86.0435 94.8641 86.7677 93.5351 87.4947 94.0384C87.7146 94.1237 87.9212 94.2329 88.1036 94.3554C86.8777 94.2808 86.6712 95.4581 86.0703 96.0786L86.0757 96.084ZM88.9888 97.5409C89.0183 97.2985 88.8761 96.8084 88.9163 96.5794C89.1068 96.8484 89.0531 97.1893 88.9888 97.5409Z" fill="currentColor"/>
<path d="M85.0074 93.9719C84.9404 94.1291 84.9055 94.3182 84.8867 94.4194C84.9135 94.2622 84.9565 94.1131 85.0074 93.9719Z" fill="currentColor"/>
<path d="M89.1805 91.9282C89.1805 91.9282 89.1698 91.9095 89.1644 91.9015C88.9498 91.5606 88.6387 91.257 88.4375 90.9214C88.4831 90.996 88.5314 91.0732 88.5797 91.1478C88.695 91.2916 88.8023 91.4461 88.9069 91.6032C88.9954 91.7151 89.0866 91.8243 89.1805 91.9308V91.9282Z" fill="currentColor"/>
<path d="M66.3453 96.0996C66.3265 95.8999 66.3104 95.7214 66.2943 95.559C66.2326 95.5217 66.2487 95.7161 66.3453 96.0996Z" fill="currentColor"/>
<path d="M82.2675 93.0474C82.2461 93.0155 82.2246 92.9862 82.2031 92.9569C82.1227 92.9143 82.1468 92.9489 82.2675 93.0474Z" fill="currentColor"/>
<path d="M82.2064 92.9535C82.2413 92.9721 82.2976 93.0067 82.3754 93.06C82.1501 92.7271 81.9462 92.4314 81.7558 92.1731C81.5546 92.0106 81.6968 92.237 82.2064 92.9535Z" fill="currentColor"/>
<path d="M102.251 74.2625C102.152 74.393 102.039 74.5181 101.938 74.6673C102.131 74.5554 102.321 74.4436 102.251 74.2625Z" fill="currentColor"/>
<path d="M83.3126 93.6787C83.2778 93.676 83.2483 93.6733 83.2188 93.6733C83.3421 93.7666 83.4763 93.8678 83.6211 93.9796C83.5138 93.8758 83.4119 93.7772 83.3099 93.6813L83.3126 93.6787Z" fill="currentColor"/>
<path d="M83.6848 94.3547C83.6687 94.3787 83.6553 94.4027 83.6445 94.4293C83.6714 94.4107 83.6982 94.392 83.733 94.376C83.717 94.368 83.7009 94.3627 83.6848 94.3574V94.3547Z" fill="currentColor"/>
<path d="M83.6418 93.7291C83.2877 93.5106 83.0061 93.3242 82.7969 93.175C82.9525 93.3269 83.1268 93.4973 83.3146 93.6784C83.4058 93.6864 83.5131 93.7051 83.6418 93.7291Z" fill="currentColor"/>
<path d="M95.7148 79.634C95.7658 79.7965 95.8624 79.9643 95.9133 80.0549C95.8329 79.9164 95.7685 79.7752 95.7148 79.634Z" fill="currentColor"/>
<path d="M97.5903 75.4045C97.5903 75.4045 97.5689 75.3992 97.5582 75.3939C97.1746 75.2687 96.7374 75.2367 96.3672 75.1062C96.4503 75.1355 96.5362 75.1621 96.622 75.1888C96.8044 75.2261 96.9868 75.274 97.1665 75.3273C97.306 75.3566 97.4455 75.3832 97.5903 75.4045Z" fill="currentColor"/>
<path d="M82.7983 93.1751C82.6534 93.0339 82.5247 92.9087 82.4093 92.7942C82.3369 92.8048 82.4764 92.9433 82.7983 93.1751Z" fill="currentColor"/>
<path d="M93.0168 80.6726C92.9792 80.662 92.9444 80.654 92.9095 80.6433C92.821 80.662 92.8612 80.6726 93.0168 80.6726Z" fill="currentColor"/>
<path d="M92.9085 80.6459C92.9487 80.6379 93.0131 80.6299 93.107 80.6192C92.718 80.5074 92.372 80.4115 92.0582 80.3342C91.798 80.3369 92.0528 80.4195 92.9085 80.6459Z" fill="currentColor"/>
<path d="M96.168 53.5303C96.176 53.6927 96.168 53.8632 96.1921 54.0417C96.2699 53.8312 96.3423 53.6262 96.168 53.5303Z" fill="currentColor"/>
<path d="M94.2274 80.4893C94.1979 80.5079 94.1738 80.5265 94.1523 80.5452C94.3079 80.5372 94.4742 80.5292 94.6593 80.5212C94.5091 80.5106 94.3669 80.4999 94.2274 80.4893Z" fill="currentColor"/>
<path d="M94.9453 80.7738C94.948 80.8031 94.9534 80.8297 94.9614 80.8564C94.9695 80.8271 94.9802 80.7924 94.9936 80.7578C94.9775 80.7631 94.9614 80.7685 94.9453 80.7738Z" fill="currentColor"/>
<path d="M94.5098 80.3218C94.0967 80.3804 93.7614 80.4177 93.5039 80.4363C93.7239 80.455 93.9653 80.4736 94.2255 80.4922C94.3006 80.4416 94.3945 80.3857 94.5071 80.3218H94.5098Z" fill="currentColor"/>
<path d="M94.6328 61.8181C94.7777 61.9113 94.9601 61.9779 95.0566 62.0125C94.9037 61.9566 94.7669 61.89 94.6328 61.8181Z" fill="currentColor"/>
<path d="M93.3324 57.3809C93.3324 57.3809 93.3109 57.3888 93.3029 57.3942C92.9274 57.5433 92.5706 57.7964 92.2031 57.9349C92.2863 57.9029 92.3694 57.8709 92.4526 57.8363C92.6162 57.7484 92.7879 57.6712 92.9596 57.5966C93.0856 57.53 93.209 57.4608 93.3324 57.3835V57.3809Z" fill="currentColor"/>
<path d="M93.5049 80.433C93.3037 80.417 93.124 80.401 92.9603 80.3904C92.912 80.4463 93.1079 80.4623 93.5049 80.433Z" fill="currentColor"/>
<path d="M93.2409 64.335C93.206 64.3509 93.1738 64.3669 93.1389 64.3829C93.0826 64.4522 93.1202 64.4362 93.2409 64.335Z" fill="currentColor"/>
<path d="M93.1395 64.3836C93.1636 64.3516 93.2092 64.3036 93.2736 64.2371C92.9034 64.3995 92.5762 64.5487 92.2865 64.6872C92.0906 64.855 92.3374 64.7564 93.1395 64.3836Z" fill="currentColor"/>
<path d="M78.082 41.5309C78.192 41.6508 78.2993 41.7839 78.4307 41.9064C78.353 41.696 78.2752 41.491 78.082 41.5309Z" fill="currentColor"/>
<path d="M94.0488 63.4242C94.0381 63.4562 94.0327 63.4855 94.0273 63.5147C94.14 63.4109 94.2634 63.2963 94.4002 63.1738C94.2795 63.2617 94.1615 63.3443 94.0488 63.4242Z" fill="currentColor"/>
<path d="M94.7812 63.1788C94.8027 63.2002 94.8242 63.2161 94.8483 63.2321C94.8349 63.2028 94.8215 63.1735 94.8108 63.1362C94.8 63.1522 94.792 63.1655 94.7839 63.1788H94.7812Z" fill="currentColor"/>
<path d="M94.1544 63.1123C93.8755 63.4213 93.6421 63.6636 93.457 63.8421C93.6367 63.7169 93.8352 63.5757 94.0471 63.4239C94.0713 63.336 94.1062 63.2348 94.1544 63.1123Z" fill="currentColor"/>
<path d="M82.2734 48.8606C82.4451 48.8392 82.6275 48.7753 82.7241 48.738C82.5712 48.794 82.421 48.8313 82.2734 48.8606Z" fill="currentColor"/>
<path d="M78.4054 46.29C78.4054 46.29 78.3947 46.3087 78.3893 46.3193C78.1989 46.6736 78.0889 47.0944 77.8984 47.4353C77.9414 47.3581 77.9843 47.2808 78.0245 47.2009C78.0916 47.0305 78.172 46.86 78.2579 46.6922C78.3115 46.5617 78.3598 46.4285 78.4054 46.2927V46.29Z" fill="currentColor"/>
<path d="M93.457 63.8428C93.2934 63.96 93.1458 64.0638 93.0117 64.1571C93.0117 64.229 93.17 64.1171 93.457 63.8428Z" fill="currentColor"/>
<path d="M82.8334 51.6782C82.8173 51.7128 82.8013 51.7448 82.7852 51.7794C82.7852 51.87 82.8039 51.8327 82.8334 51.6782Z" fill="currentColor"/>
<path d="M82.7882 51.7772C82.7882 51.7372 82.7882 51.6706 82.7963 51.5774C82.6193 51.937 82.4637 52.2619 82.3322 52.5549C82.2893 52.8079 82.4154 52.5735 82.7882 51.7772Z" fill="currentColor"/>
<path d="M56.4609 43.8829C56.6246 43.9043 56.7909 43.9389 56.9706 43.9495C56.7775 43.8377 56.5843 43.7311 56.4609 43.8829Z" fill="currentColor"/>
<path d="M82.866 50.4609C82.8794 50.4928 82.8928 50.5195 82.9062 50.5435C82.925 50.3916 82.9464 50.2265 82.9706 50.0427C82.933 50.1866 82.8982 50.325 82.8633 50.4582L82.866 50.4609Z" fill="currentColor"/>
<path d="M83.271 49.8067C83.3005 49.8067 83.33 49.8067 83.3568 49.8067C83.3273 49.7934 83.2978 49.7774 83.2656 49.7588C83.2656 49.7774 83.271 49.7934 83.271 49.8094V49.8067Z" fill="currentColor"/>
<path d="M82.7453 50.1582C82.7319 50.571 82.7104 50.9066 82.6836 51.1623C82.7399 50.9519 82.7989 50.7175 82.8633 50.4645C82.8258 50.3819 82.7855 50.2807 82.7453 50.1582Z" fill="currentColor"/>
<path d="M64.4141 46.8228C64.5321 46.6976 64.6287 46.5325 64.6796 46.4419C64.5991 46.5804 64.5079 46.7056 64.4141 46.8228Z" fill="currentColor"/>
<path d="M59.7891 47.3242C59.7891 47.3242 59.7944 47.3455 59.7971 47.3562C59.8803 47.7477 60.0707 48.1419 60.1431 48.5254C60.127 48.4402 60.1083 48.3523 60.0868 48.2644C60.0278 48.0886 59.9795 47.9075 59.9366 47.7264C59.8937 47.5932 59.8454 47.4574 59.7917 47.3242H59.7891Z" fill="currentColor"/>
<path d="M82.6837 51.1592C82.6327 51.3536 82.5871 51.5267 82.5469 51.6839C82.5925 51.7398 82.6434 51.5534 82.6837 51.1592Z" fill="currentColor"/>
<path d="M66.6719 48.6206C66.6826 48.6579 66.6907 48.6925 66.7014 48.7271C66.7604 48.7964 66.7497 48.7538 66.6719 48.6206Z" fill="currentColor"/>
<path d="M66.7015 48.7277C66.6747 48.6984 66.6345 48.6451 66.5781 48.5706C66.6747 48.9594 66.7659 49.3057 66.8544 49.6146C66.9858 49.8357 66.9322 49.5747 66.7015 48.7277Z" fill="currentColor"/>
<path d="M41.418 59.4853C41.5575 59.3974 41.7077 59.3175 41.8525 59.2109C41.6326 59.2509 41.4153 59.2908 41.418 59.4853Z" fill="currentColor"/>
<path d="M65.9065 47.6728C65.9387 47.6888 65.9655 47.6995 65.9924 47.7101C65.9092 47.5823 65.818 47.4411 65.7188 47.2866C65.7858 47.4225 65.8475 47.5476 65.9065 47.6728Z" fill="currentColor"/>
<path d="M65.7915 46.9109C65.8156 46.8923 65.8371 46.8763 65.8558 46.855C65.8263 46.863 65.7915 46.871 65.7539 46.8763C65.7673 46.8869 65.778 46.9003 65.7915 46.9109Z" fill="currentColor"/>
<path d="M65.616 47.5156C65.8735 47.8406 66.0746 48.1122 66.2168 48.3226C66.1229 48.1256 66.0183 47.9072 65.903 47.6728C65.8225 47.6328 65.7259 47.5822 65.6133 47.5156H65.616Z" fill="currentColor"/>
<path d="M49.4179 56.6598C49.4286 56.4893 49.3938 56.3002 49.375 56.199C49.4018 56.3561 49.4126 56.5106 49.4179 56.6598Z" fill="currentColor"/>
<path d="M46.1953 59.9965C46.1953 59.9965 46.2114 60.0099 46.2221 60.0152C46.5413 60.2629 46.9383 60.4413 47.2441 60.689C47.1771 60.6331 47.1046 60.5798 47.0322 60.5239C46.874 60.428 46.7211 60.3188 46.5682 60.207C46.4475 60.1324 46.3241 60.0605 46.198 59.9912L46.1953 59.9965Z" fill="currentColor"/>
<path d="M66.2188 48.323C66.3046 48.5041 66.3824 48.6666 66.4521 48.8131C66.5245 48.8264 66.4414 48.6506 66.2188 48.323Z" fill="currentColor"/>
<path d="M52.3086 56.5984C52.3408 56.6197 52.3703 56.641 52.3998 56.6623C52.4883 56.6756 52.4561 56.6517 52.3086 56.5984Z" fill="currentColor"/>
<path d="M52.4028 56.6618C52.3626 56.6564 52.2982 56.6404 52.207 56.6191C52.5343 56.8562 52.8267 57.0639 53.0949 57.2424C53.339 57.3276 53.1298 57.1625 52.4028 56.6618Z" fill="currentColor"/>
<path d="M40.0017 81.035C40.0527 80.8779 40.1144 80.7207 40.1546 80.5476C40.0098 80.7181 39.8703 80.8885 40.0017 81.035Z" fill="currentColor"/>
<path d="M51.1092 56.3579C51.144 56.3499 51.1708 56.3419 51.2004 56.3313C51.0528 56.286 50.8919 56.2354 50.7148 56.1821C50.8516 56.2434 50.9831 56.302 51.1092 56.3579Z" fill="currentColor"/>
<path d="M50.5275 55.8497C50.5356 55.8204 50.5383 55.7937 50.5409 55.7671C50.5222 55.7937 50.5034 55.8204 50.4766 55.847C50.4953 55.847 50.5114 55.847 50.5275 55.847V55.8497Z" fill="currentColor"/>
<path d="M50.7852 56.4221C51.1929 56.5073 51.5228 56.5872 51.7696 56.6565C51.5711 56.5659 51.3485 56.4647 51.1097 56.3582C51.0212 56.3795 50.9139 56.4008 50.7852 56.4221Z" fill="currentColor"/>
<path d="M43.9609 73.4395C44.0843 73.5433 44.1916 73.6525 44.2936 73.7671C44.1916 73.6312 44.0414 73.506 43.9609 73.4395Z" fill="currentColor"/>
<path d="M43.991 78.3773C43.991 78.3773 44.0124 78.3773 44.0232 78.3773C44.4282 78.364 44.8493 78.2468 45.2409 78.2441C45.1524 78.2441 45.0639 78.2495 44.9727 78.2548C44.7903 78.2814 44.6025 78.2974 44.4121 78.3081C44.2726 78.3267 44.1304 78.3507 43.9883 78.38L43.991 78.3773Z" fill="currentColor"/>
<path d="M51.7695 56.6567C51.9519 56.7393 52.1182 56.8139 52.2658 56.8831C52.3301 56.8485 52.1531 56.7659 51.7695 56.6567Z" fill="currentColor"/>
</svg>
