<svg width="143" height="143" viewBox="0 0 143 143" fill="none" xmlns="http://www.w3.org/2000/svg">
<path d="M46.4688 71.876C46.5063 71.8734 46.5439 71.868 46.5814 71.8654C46.6592 71.8174 46.6163 71.8228 46.4688 71.876Z" fill="currentColor"/>
<path d="M46.5833 71.8639C46.5484 71.8852 46.4894 71.9145 46.4062 71.9571C46.8086 71.9305 47.168 71.9012 47.4899 71.8692C47.7313 71.7787 47.4658 71.7867 46.5833 71.8666V71.8639Z" fill="currentColor"/>
<path d="M52.8587 98.4507C52.797 98.2989 52.7406 98.1391 52.6602 97.9792C52.6602 98.203 52.6602 98.4214 52.8587 98.4507Z" fill="currentColor"/>
<path d="M45.3962 72.4559C45.4177 72.4266 45.4338 72.4026 45.4499 72.3787C45.3077 72.4373 45.1521 72.5038 44.9805 72.5731C45.1253 72.5331 45.2621 72.4932 45.3962 72.4559Z" fill="currentColor"/>
<path d="M44.621 72.4354C44.6076 72.4088 44.5942 72.3848 44.5781 72.3635C44.5808 72.3955 44.5835 72.4274 44.5808 72.4674C44.5942 72.4567 44.6076 72.4461 44.621 72.4354Z" fill="currentColor"/>
<path d="M45.1914 72.7119C45.5589 72.5174 45.862 72.3683 46.098 72.2644C45.8861 72.323 45.6528 72.3869 45.4006 72.4562C45.347 72.5281 45.2799 72.6133 45.1941 72.7119H45.1914Z" fill="currentColor"/>
<path d="M51.4472 90.142C51.2809 90.102 51.0851 90.1021 50.9805 90.1021C51.1414 90.1021 51.297 90.118 51.4472 90.142Z" fill="currentColor"/>
<path d="M54.4743 93.5433C54.3804 93.6472 54.2865 93.7564 54.1953 93.8682C54.2034 93.8602 54.2114 93.8549 54.2195 93.8469C54.5199 93.5779 54.7667 93.221 55.0671 92.9653C55 93.0213 54.933 93.0825 54.8686 93.1438C54.7452 93.2823 54.6111 93.4128 54.4743 93.5433Z" fill="currentColor"/>
<path d="M46.0938 72.2636C46.2869 72.2104 46.4639 72.1624 46.6222 72.1198C46.649 72.0506 46.4586 72.1012 46.0938 72.2636Z" fill="currentColor"/>
<path d="M51.8867 87.3029C51.9135 87.2763 51.9404 87.2497 51.9645 87.223C51.994 87.1378 51.9645 87.1671 51.8867 87.3029Z" fill="currentColor"/>
<path d="M52.6631 86.6496C52.7892 86.4259 52.5907 86.6016 51.9657 87.2249C51.9523 87.2622 51.9282 87.3234 51.8906 87.4087C52.183 87.1317 52.4378 86.8786 52.6631 86.6496Z" fill="currentColor"/>
<path d="M73.9912 103.584C73.8463 103.509 73.7015 103.419 73.5352 103.349C73.68 103.52 73.8249 103.688 73.9912 103.584Z" fill="currentColor"/>
<path d="M51.4433 88.4343C51.4433 88.3997 51.438 88.3704 51.4326 88.3411C51.3628 88.4769 51.2851 88.6261 51.1992 88.7885C51.2824 88.666 51.3628 88.5488 51.4433 88.4343Z" fill="currentColor"/>
<path d="M50.8383 88.9138C50.8115 88.9005 50.7846 88.8925 50.7578 88.8872C50.7793 88.9085 50.8034 88.9351 50.8276 88.9644C50.8302 88.9458 50.8356 88.9325 50.8383 88.9138Z" fill="currentColor"/>
<path d="M51.4495 88.7621C51.605 88.3786 51.7418 88.0696 51.8518 87.8406C51.7284 88.019 51.5889 88.2188 51.4414 88.4345C51.4468 88.5251 51.4495 88.6316 51.4468 88.7621H51.4495Z" fill="currentColor"/>
<path d="M67.5254 98.1204C67.3725 98.1976 67.2223 98.3201 67.1445 98.3867C67.2679 98.2828 67.3967 98.1976 67.5254 98.1204Z" fill="currentColor"/>
<path d="M72.0443 99.2206C72.0443 99.2206 72.047 99.1993 72.0497 99.1887C72.106 98.7918 72.0631 98.3577 72.1275 97.9741C72.1141 98.0594 72.1006 98.1499 72.0899 98.2378C72.0845 98.4216 72.0685 98.608 72.047 98.7945C72.0416 98.9356 72.0416 99.0768 72.047 99.2206H72.0443Z" fill="currentColor"/>
<path d="M51.8555 87.84C51.9708 87.6748 52.0727 87.5284 52.1666 87.3925C52.1425 87.3233 52.0298 87.4831 51.8555 87.84Z" fill="currentColor"/>
<path d="M66.025 95.6658C66.0277 95.6285 66.0304 95.5913 66.0357 95.554C66.0035 95.4687 65.9982 95.5114 66.025 95.6658Z" fill="currentColor"/>
<path d="M66.0352 95.5535C66.0486 95.5908 66.07 95.6547 66.0969 95.7426C66.1398 95.3431 66.1746 94.9862 66.1961 94.6666C66.1478 94.4135 66.1103 94.6772 66.0352 95.5508V95.5535Z" fill="currentColor"/>
<path d="M93.4938 94.0305C93.3328 94.0651 93.1639 94.0918 92.9922 94.1424C93.2121 94.1823 93.4321 94.217 93.4938 94.0305Z" fill="currentColor"/>
<path d="M66.4186 96.8166C66.3945 96.7926 66.373 96.7713 66.3516 96.7527C66.3864 96.9018 66.424 97.0643 66.4615 97.2454C66.4454 97.0963 66.432 96.9551 66.4186 96.8193V96.8166Z" fill="currentColor"/>
<path d="M66.2614 97.5691C66.2319 97.5771 66.2051 97.5877 66.1836 97.5984C66.2158 97.5984 66.248 97.6064 66.2855 97.6144C66.2775 97.5984 66.2694 97.5851 66.2614 97.5691Z" fill="currentColor"/>
<path d="M66.6347 97.063C66.5059 96.6689 66.4094 96.3466 66.3477 96.0989C66.3691 96.3146 66.3906 96.557 66.4174 96.8153C66.4818 96.8793 66.5515 96.9618 66.6347 97.063Z" fill="currentColor"/>
<path d="M105.357 98.6038C102.645 98.9954 90.3487 98.1218 90.3997 96.4891C90.2307 96.806 90.1234 96.8087 90.051 96.6382C89.7774 95.7619 89.6674 95.0162 89.3187 94.2278L89.2758 94.4622C89.2972 94.345 89.2597 94.2171 89.1899 94.084C89.1899 93.9721 89.2328 93.8789 89.316 93.8016C90.8208 94.0041 92.1995 94.4888 93.5085 93.9907C93.5059 94.0067 93.5005 94.0174 93.4951 94.0307C93.8143 93.9614 94.104 93.8496 94.3428 93.4101C92.5509 94.4861 90.4882 93.3995 89.1819 91.9292C89.4099 92.2915 89.6486 92.6617 90.0241 92.8907C89.5306 92.5924 89.2302 92.0864 88.9056 91.6016C88.7876 91.4525 88.6803 91.3007 88.5784 91.1462C88.5059 91.0556 88.4281 90.9677 88.345 90.8878C88.2189 90.6188 88.1465 90.3418 88.3664 89.9396L88.0875 90.1341C88.3772 89.3191 90.3326 89.2924 90.9978 89.2232C92.5617 89.0607 94.1362 89.0207 95.7027 88.8902C96.3009 88.8396 95.8851 87.5931 96.4538 87.404C96.5262 87.3801 96.6013 87.3534 96.655 87.2975C96.7864 87.167 106.145 88.8956 106.134 88.7331C106.124 88.5733 106.105 88.4188 106.129 88.283C106.274 88.1471 111.271 88.7784 111.55 88.5866C111.193 88.2776 105.625 87.3454 105.18 87.2709C104.375 87.1377 95.2011 86.1788 94.3857 86.1282C92.5617 86.019 90.7269 86.0084 88.9029 86.0483C88.7795 86.051 88.6588 86.0537 88.5354 86.0563C88.4764 86.0563 88.412 86.059 88.3638 86.0936C88.3208 86.1229 88.2967 86.1709 88.2699 86.2135C87.7441 87.0365 86.8509 86.1309 86.7061 85.505C86.698 85.473 86.6926 85.4357 86.7061 85.4064C86.7248 85.3745 86.7624 85.3585 86.7973 85.3479C88.3503 84.8445 90.0697 84.8631 91.6926 84.8205C92.5831 84.7965 93.4737 84.7672 94.3642 84.7885C95.1797 84.8072 104.412 85.9098 105.209 85.6754C105.265 85.6595 105.324 85.6382 105.365 85.5955C105.55 85.4011 105.131 85.2786 105.013 85.252C104.737 85.196 104.45 85.212 104.174 85.1641C102.473 84.8738 92.4115 83.7631 90.7001 83.558C89.9598 83.4701 89.7452 83.1745 89.316 82.6178C89.3053 82.6045 89.2972 82.5912 89.2865 82.5779C89.5225 82.5512 89.7586 82.5246 89.9946 82.498C91.1373 82.2103 92.331 81.8854 93.5541 81.5817C93.8036 81.5311 94.0557 81.4832 94.3159 81.4459C95.7644 81.2381 97.0224 82.4473 98.3583 81.4059C99.2783 80.6016 98.141 79.6001 98.9752 79.1234C99.686 78.4415 100.373 79.142 101.059 79.8478C101.244 80.1728 101.432 80.5084 101.778 80.6362C102.017 80.7028 102.264 80.796 102.54 80.9292C103.648 81.4645 105.22 82.6444 108.516 85.3612C101.934 77.7916 103.997 81.1955 102.417 80.3086C101.167 78.034 103.117 79.744 110.166 84.1466C99.4554 77.1018 120.458 70.6456 125.92 68.1713C119.372 68.6161 113.353 72.7764 114.297 70.1955C112.473 72.225 102.486 79.4057 101.47 78.1219C101.545 78.4735 101.464 78.5427 101.298 78.4575C100.523 77.9621 99.9543 77.4614 99.1764 77.0778L99.2971 77.2856C99.2381 77.1817 99.1254 77.1098 98.9859 77.0512C98.9108 76.9686 98.8867 76.8648 98.9001 76.7556C100.185 75.9512 101.553 75.4398 102.234 74.2253C102.242 74.2386 102.245 74.2519 102.25 74.2652C102.449 74.0095 102.599 73.7379 102.497 73.2478C101.821 75.2161 99.5385 75.7008 97.5857 75.4079C97.9425 75.5224 98.3073 75.6369 98.6828 75.6209C98.1705 75.6502 97.6662 75.4798 97.1619 75.3306C96.9742 75.2907 96.7918 75.2454 96.6174 75.1921C96.5021 75.1681 96.3867 75.1522 96.2714 75.1415C96.0005 75.0163 95.7671 74.8512 95.6732 74.4011L95.5847 74.726C95.2789 73.9163 96.7596 72.6459 97.2236 72.1691C98.3154 71.0451 99.4983 70.0117 100.611 68.9117C101.035 68.4909 99.9114 67.8037 100.225 67.2923C100.265 67.2284 100.303 67.1592 100.311 67.0819C100.327 66.8981 108.616 62.2504 108.5 62.1306C108.388 62.016 108.275 61.9068 108.205 61.7896C108.227 61.5925 112.468 58.8865 112.553 58.5615C112.079 58.5535 107.21 61.3901 106.821 61.6192C106.118 62.0293 98.4682 67.1512 97.8137 67.6332C96.3465 68.7119 94.9356 69.8759 93.5622 71.0718C93.471 71.1517 93.3771 71.2316 93.2859 71.3115C93.2403 71.3514 93.1947 71.394 93.1786 71.45C93.1652 71.5006 93.1786 71.5512 93.184 71.6018C93.3127 72.566 92.044 72.4434 91.5263 72.0572C91.4994 72.0359 91.4726 72.0146 91.4646 71.98C91.4565 71.9427 91.478 71.9081 91.4968 71.8761C92.3605 70.4991 93.6909 69.4151 94.9061 68.3497C95.574 67.7638 96.2365 67.1725 96.9312 66.6185C97.567 66.1124 105.354 61.0625 105.813 60.3753C105.845 60.3274 105.877 60.2741 105.88 60.2155C105.896 59.9492 105.496 60.1197 105.389 60.1783C105.139 60.3114 104.933 60.5059 104.689 60.647C103.2 61.51 94.7719 67.0792 93.3288 68.0168C92.7038 68.4216 92.3471 68.3311 91.6604 68.1793C91.6443 68.1766 91.6282 68.1713 91.6121 68.1686C91.7757 67.9981 91.9394 67.8277 92.103 67.6546C92.7897 66.7037 93.4951 65.6943 94.2382 64.6821C94.3991 64.4824 94.56 64.2853 94.7317 64.0909C95.7081 63.0095 97.4516 63.132 97.803 61.4807C97.9881 60.2768 96.4672 60.2368 96.7971 59.3393C96.8991 58.3644 97.8808 58.463 98.8626 58.5642C99.2139 58.6947 99.5761 58.8332 99.9221 58.7107C100.147 58.6095 100.397 58.5216 100.695 58.4497C101.888 58.1514 103.857 58.0528 108.141 58.0288C98.2 56.4308 101.982 57.7226 100.196 58.0502C97.7655 57.1073 100.365 57.1712 108.616 56.0446C95.8503 57.4855 107.76 39.1317 110.343 33.7515C105.614 38.274 103.699 45.3002 102.749 42.722C102.666 45.4414 99.6646 57.315 98.0552 56.9821C98.3395 57.2032 98.3234 57.3071 98.141 57.3497C97.2236 57.4642 96.4645 57.4456 95.6223 57.648L95.8476 57.7305C95.7349 57.6906 95.6008 57.7039 95.4586 57.7492C95.3486 57.7332 95.2628 57.6719 95.2011 57.5761C95.6652 56.1405 96.384 54.8753 96.1158 53.509C96.1319 53.5143 96.1426 53.5223 96.1534 53.5303C96.1399 53.208 96.0783 52.9044 95.6839 52.5927C96.4404 54.5317 95.0053 56.3589 93.3208 57.3816C93.6668 57.2431 94.0209 57.0966 94.2998 56.8463C93.927 57.1952 93.4308 57.387 92.9479 57.5947C92.7789 57.6826 92.6099 57.7652 92.441 57.8344C92.339 57.8904 92.2371 57.9516 92.1432 58.0182C91.8535 58.0954 91.5692 58.1194 91.2071 57.8344L91.3519 58.1407C90.5928 57.7146 90.9066 55.7969 90.9522 55.1363C91.0622 53.5782 91.2983 52.0334 91.4378 50.478C91.4914 49.884 90.1824 50.0758 90.0939 49.4845C90.0832 49.4099 90.0671 49.3327 90.0241 49.2688C89.9168 49.1169 93.2591 40.2663 93.0928 40.2477C92.9318 40.2317 92.7736 40.221 92.6448 40.1757C92.5348 40.0106 94.0289 35.2324 93.8868 34.9261C93.5193 35.2217 91.6255 40.5034 91.4753 40.9268C91.2017 41.6886 88.6588 50.4966 88.4684 51.2823C88.0419 53.0455 87.7146 54.838 87.4383 56.6305C87.4196 56.7504 87.4008 56.8702 87.382 56.9901C87.374 57.0487 87.3632 57.1126 87.3901 57.1659C87.4115 57.2138 87.4544 57.2458 87.492 57.2804C88.2162 57.9356 87.1621 58.6521 86.5183 58.6867C86.4834 58.6867 86.4485 58.6867 86.4217 58.6681C86.3922 58.6441 86.3842 58.6042 86.3788 58.5695C86.1508 56.9635 86.4673 55.2855 86.7061 53.6928C86.8375 52.8191 86.9636 51.9429 87.1379 51.0746C87.2989 50.2809 89.9946 41.4436 89.9008 40.6232C89.8954 40.5646 89.8847 40.506 89.8498 40.4581C89.6888 40.2423 89.493 40.6312 89.4474 40.7431C89.3428 41.0041 89.3106 41.2864 89.2141 41.5501C88.632 43.1615 85.7806 52.8085 85.2817 54.4465C85.0644 55.1577 84.7345 55.3148 84.1068 55.6371C84.0934 55.6451 84.0773 55.6504 84.0612 55.6584C84.0747 55.424 84.0908 55.1869 84.1042 54.9526C84.0156 53.786 83.903 52.5608 83.8145 51.3143C83.8091 51.0613 83.8037 50.8056 83.8118 50.5446C83.8574 49.093 85.2764 48.0729 84.4743 46.584C83.8386 45.5453 82.6476 46.4828 82.3177 45.5852C81.7651 44.7729 82.5806 44.2215 83.3987 43.6729C83.7528 43.5477 84.1203 43.4225 84.3053 43.1082C84.4126 42.8871 84.5467 42.6607 84.7292 42.413C85.4507 41.4249 86.8965 40.0905 90.1609 37.3392C81.5103 42.461 85.2442 41.036 84.0881 42.4264C81.6149 43.2547 83.6482 41.6433 89.2409 35.5147C80.3944 44.7649 77.637 23.1057 76.1322 17.3367C75.4374 23.8168 78.5168 30.4249 76.1214 29.0532C77.8194 31.1893 83.2056 42.2 81.7571 42.9724C82.1192 42.9591 82.1729 43.0496 82.0602 43.1988C81.4325 43.8726 80.837 44.3414 80.3247 45.0339L80.55 44.9513C80.4374 44.9913 80.3435 45.0898 80.263 45.215C80.1664 45.2736 80.0618 45.2816 79.9545 45.247C79.3805 43.8513 79.1123 42.4237 78.0232 41.5474C78.0393 41.5421 78.0527 41.5421 78.0661 41.5394C77.8462 41.2997 77.6048 41.108 77.1005 41.1213C78.9352 42.1227 79.0184 44.4399 78.3907 46.299C78.5651 45.9714 78.7421 45.6332 78.7931 45.2629C78.7341 45.769 78.4765 46.2324 78.2405 46.6985C78.1681 46.8743 78.0903 47.0448 78.0071 47.2073C77.9642 47.3165 77.9267 47.4257 77.8972 47.5375C77.7255 47.7799 77.5216 47.9823 77.0603 47.993L77.3687 48.1368C76.5131 48.2939 75.5098 46.6266 75.1182 46.0886C74.1928 44.8235 73.372 43.4891 72.4761 42.208C72.1328 41.7205 71.2556 42.7007 70.805 42.3038C70.7486 42.2532 70.687 42.2026 70.6118 42.184C70.4321 42.136 67.2616 33.2241 67.1248 33.3147C66.9907 33.4053 66.8646 33.4985 66.7358 33.5438C66.5454 33.4878 64.598 28.8721 64.2895 28.7309C64.1983 29.1917 66.1672 34.4467 66.3254 34.8675C66.6098 35.6266 70.3624 43.9951 70.7245 44.7196C71.5399 46.3416 72.4493 47.9237 73.3961 49.4739C73.4605 49.5777 73.5222 49.6816 73.5866 49.7855C73.6188 49.8361 73.651 49.8893 73.7046 49.916C73.7502 49.9373 73.8039 49.9346 73.8575 49.9373C74.8366 49.9772 74.4932 51.1998 74.0211 51.6366C73.997 51.6605 73.9675 51.6819 73.9353 51.6845C73.8977 51.6845 73.8656 51.6605 73.8387 51.6339C72.6236 50.5499 71.7787 49.061 70.931 47.6893C70.467 46.9356 69.9949 46.1845 69.5657 45.4094C69.1741 44.6983 65.518 36.2099 64.9172 35.6399C64.8743 35.5999 64.8287 35.56 64.7696 35.5467C64.5068 35.4854 64.6087 35.9062 64.6463 36.0208C64.7348 36.2871 64.893 36.5242 64.9896 36.7852C65.5878 38.3912 69.6489 47.6014 70.3275 49.1755C70.6226 49.8574 70.4697 50.1903 70.1988 50.8349C70.1934 50.8509 70.1854 50.8642 70.18 50.8802C70.0378 50.691 69.8983 50.5019 69.7562 50.3102C68.9327 49.4739 68.0529 48.6082 67.1784 47.708C67.0094 47.5162 66.8404 47.3244 66.6768 47.122C65.7729 45.9794 66.1993 44.2934 64.6194 43.6649C63.458 43.276 63.1522 44.7542 62.3206 44.2775C61.3711 44.0085 61.6393 43.0656 61.9102 42.1227C62.1007 41.8005 62.3019 41.4728 62.2402 41.1106C62.1785 40.8736 62.1356 40.6126 62.1141 40.3089C62.0256 39.0891 62.2697 37.1474 62.9912 32.9551C59.6812 42.3997 61.6179 38.9239 61.634 40.7271C60.2767 42.9404 60.7917 40.4075 61.1082 32.1454C60.3196 44.8767 44.1852 30.044 39.2979 26.5868C42.962 31.9963 49.5982 35.0912 46.8756 35.568C49.5579 36.1193 60.8132 41.1186 60.2016 42.6341C60.4698 42.3944 60.5717 42.429 60.5798 42.6128C60.5342 43.529 60.3813 44.2695 60.4376 45.1271L60.5583 44.9194C60.4993 45.0232 60.4913 45.1564 60.5074 45.3029C60.4725 45.4094 60.3947 45.4813 60.2928 45.524C58.9489 44.8208 57.8196 43.8993 56.4168 43.9232C56.4248 43.9099 56.4355 43.8993 56.4436 43.8886C56.119 43.846 55.8105 43.8513 55.4323 44.1842C57.487 43.7821 59.0508 45.5026 59.7724 47.3271C59.6946 46.9649 59.6115 46.592 59.4103 46.2777C59.6919 46.7039 59.7939 47.2206 59.9172 47.7293C59.9763 47.9104 60.0272 48.0889 60.0675 48.2673C60.105 48.3765 60.1479 48.4857 60.1962 48.5896C60.2204 48.8852 60.1962 49.1702 59.8502 49.4739L60.1774 49.386C59.6249 50.0545 57.7767 49.4153 57.1276 49.2554C55.6013 48.8772 54.1099 48.3792 52.5917 47.9717C52.0123 47.8172 51.9748 49.1276 51.3739 49.1116C51.2988 49.1116 51.2183 49.1116 51.1486 49.1436C50.9796 49.2208 42.7823 44.4186 42.734 44.5758C42.6884 44.7302 42.6535 44.8821 42.5838 44.9993C42.4014 45.0792 37.9218 42.7859 37.5919 42.8738C37.8226 43.284 42.7313 46.054 43.1229 46.275C43.8311 46.6746 52.125 50.691 52.8707 51.0133C54.5445 51.7351 56.2665 52.3664 57.9967 52.9497C58.112 52.9896 58.2274 53.0269 58.3454 53.0668C58.4017 53.0855 58.4634 53.1041 58.5197 53.0908C58.5707 53.0775 58.6082 53.0429 58.6512 53.0109C59.4264 52.417 59.9548 53.5702 59.877 54.2068C59.8716 54.2388 59.8663 54.2761 59.8421 54.2974C59.8153 54.3213 59.7724 54.3213 59.7348 54.3213C58.104 54.2681 56.4919 53.6661 54.9549 53.1547C54.1099 52.8751 53.2623 52.6007 52.4334 52.2785C51.6716 51.9855 43.3778 47.8145 42.5489 47.7613C42.4899 47.7586 42.4282 47.7559 42.3772 47.7826C42.1358 47.9024 42.4872 48.1608 42.5891 48.2247C42.8306 48.3712 43.1042 48.4538 43.3483 48.5922C44.845 49.4419 53.9168 53.9032 55.4565 54.6782C56.1217 55.0138 56.2209 55.3627 56.4328 56.0313C56.4382 56.0472 56.4409 56.0632 56.4463 56.0792C56.2156 56.0233 55.9849 55.97 55.7542 55.9141C54.582 55.7969 53.3481 55.6957 52.0955 55.5652C51.8433 55.5279 51.5885 55.4879 51.3337 55.4347C49.9013 55.1363 49.1368 53.5756 47.522 54.1003C46.3793 54.5424 47.1036 55.8715 46.1567 56.0366C45.2554 56.4361 44.8504 55.5438 44.448 54.6489C44.3836 54.2814 44.3246 53.9005 44.0457 53.6635C43.8445 53.5196 43.6433 53.3492 43.4314 53.1281C42.5757 52.2492 41.5055 50.6058 39.3408 46.9356C42.9191 56.2843 42.1546 52.385 43.3322 53.7567C43.7238 56.3189 42.4818 54.0497 37.3719 47.5189C45.0113 57.7758 23.0481 56.7104 17.0664 57.1792C23.3727 58.985 30.4622 57.118 28.6864 59.2247C31.1006 57.9356 42.9566 54.5823 43.469 56.1325C43.5199 55.7756 43.6192 55.7383 43.7452 55.8741C44.3032 56.6039 44.6653 57.2671 45.2635 57.8903L45.2205 57.656C45.242 57.7732 45.3225 57.8797 45.4325 57.9836C45.4727 58.0874 45.462 58.1913 45.411 58.2899C43.9276 58.6095 42.4631 58.6228 41.4062 59.5364C41.4035 59.5204 41.4062 59.5071 41.4062 59.4937C41.1299 59.6669 40.8966 59.8693 40.8241 60.3674C42.1358 58.748 44.448 59.0676 46.1835 60.0051C45.8885 59.7761 45.5827 59.5444 45.2259 59.4325C45.7168 59.579 46.1326 59.9092 46.5537 60.2209C46.7146 60.3221 46.8702 60.4286 47.0177 60.5378C47.117 60.5991 47.2189 60.655 47.3262 60.703C47.5381 60.9134 47.7017 61.1477 47.6347 61.6005L47.8305 61.3235C47.8385 62.1892 46.0092 62.879 45.4083 63.1693C43.9947 63.8538 42.5274 64.4238 41.1004 65.0817C40.5559 65.332 41.3767 66.3628 40.9046 66.733C40.8456 66.7809 40.7839 66.8315 40.7517 66.9008C40.6712 67.0686 31.283 68.6214 31.35 68.7705C31.4171 68.917 31.4868 69.0582 31.5083 69.1914C31.4198 69.3698 26.5057 70.4725 26.3098 70.7495C26.7524 70.9173 32.3049 69.9052 32.7502 69.8226C33.5522 69.6761 42.5033 67.4601 43.2866 67.2311C45.0381 66.7144 46.7656 66.1018 48.4662 65.4439C48.5789 65.3986 48.6942 65.356 48.8069 65.3107C48.8632 65.2894 48.9222 65.2654 48.9571 65.2175C48.9866 65.1749 48.9946 65.1216 49.0054 65.0737C49.2146 64.1228 50.368 64.6715 50.7194 65.2095C50.7382 65.2388 50.757 65.2681 50.7516 65.3027C50.7462 65.34 50.714 65.3667 50.6845 65.388C49.3997 66.3868 47.7768 66.9541 46.2667 67.5454C45.4378 67.8703 44.6116 68.2006 43.7667 68.4829C42.9942 68.7439 33.9385 70.8427 33.2706 71.3328C33.2223 71.3674 33.174 71.4047 33.1526 71.4606C33.0453 71.7057 33.4798 71.6817 33.6005 71.663C33.8795 71.6231 34.1424 71.5086 34.4186 71.4606C36.1166 71.157 45.9528 68.7839 47.632 68.3923C48.3589 68.2245 48.662 68.4296 49.2575 68.8078C49.2709 68.8158 49.2843 68.8265 49.2977 68.8345C49.0858 68.941 48.8739 69.0449 48.6593 69.1487C47.6856 69.8066 46.6744 70.5178 45.6309 71.2183C45.4137 71.3514 45.1937 71.4819 44.963 71.6071C43.6728 72.2916 42.0768 71.5831 41.1782 73.0187C40.5908 74.0868 42.0044 74.6408 41.3848 75.3732C40.9529 76.2548 40.065 75.8287 39.1772 75.3999C38.8902 75.1575 38.6005 74.9045 38.2303 74.9018C37.9835 74.9204 37.718 74.9178 37.4122 74.8858C36.189 74.7606 34.3033 74.1827 30.269 72.7524C39.0618 77.6292 35.9503 75.1309 37.7421 75.4292C39.7002 77.1418 37.2807 76.1962 29.1397 74.4543C41.6315 77.4347 24.1184 90.6375 19.8373 94.8164C25.8378 92.1743 30.0598 86.2215 30.0625 88.9675C31.0764 86.4399 37.9889 76.3028 39.3837 77.1631C39.1906 76.8568 39.2442 76.7662 39.4293 76.7902C40.3306 76.9926 41.0361 77.2696 41.8971 77.3655L41.712 77.211C41.8032 77.2883 41.9346 77.3176 42.0849 77.3282C42.1841 77.3815 42.2431 77.4694 42.2673 77.5759C41.3365 78.7691 40.226 79.712 40.006 81.0863C39.9926 81.0757 39.9872 81.065 39.9765 81.0544C39.8773 81.3633 39.829 81.667 40.0945 82.0958C40.0516 80.0183 42.0312 78.7878 43.9652 78.3989C43.5923 78.4122 43.2088 78.4282 42.8601 78.5694C43.3322 78.3669 43.8633 78.3563 44.389 78.3243C44.5795 78.2977 44.7645 78.2791 44.9496 78.2711C45.065 78.2524 45.1803 78.2311 45.293 78.2018C45.5907 78.2285 45.867 78.303 46.1111 78.6946L46.0816 78.359C46.6476 79.0168 45.6926 80.7108 45.4217 81.3181C44.7806 82.7457 44.0269 84.1173 43.359 85.5316C43.1042 86.0696 44.3997 86.336 44.279 86.922C44.2629 86.9965 44.2522 87.0738 44.271 87.1483C44.3193 87.3268 38.131 94.5101 38.2813 94.582C38.4261 94.6513 38.571 94.7152 38.6756 94.8031C38.7212 94.9949 35.6713 98.9767 35.7008 99.315C36.1488 99.1605 39.7458 94.843 40.0328 94.4968C40.5532 93.8736 45.977 86.4612 46.4249 85.7873C47.4308 84.2745 48.3589 82.7004 49.2361 81.113C49.2951 81.0064 49.3541 80.8999 49.4131 80.7934C49.4426 80.7401 49.4721 80.6841 49.4667 80.6256C49.4614 80.5749 49.4345 80.5297 49.4104 80.4844C48.9571 79.6214 50.1937 79.3071 50.8106 79.4936C50.8428 79.5042 50.8777 79.5149 50.8938 79.5442C50.9125 79.5762 50.9072 79.6161 50.8991 79.6507C50.5611 81.2381 49.6867 82.7084 48.9115 84.1227C48.4877 84.9004 48.0665 85.6808 47.6052 86.4372C47.1814 87.1297 41.6047 94.5181 41.4089 95.3198C41.3955 95.3757 41.3821 95.437 41.4009 95.4929C41.4786 95.7486 41.7952 95.453 41.8756 95.3624C42.0634 95.152 42.1922 94.899 42.3719 94.6832C43.4743 93.3675 49.4748 85.2706 50.5102 83.8989C50.9581 83.305 51.3229 83.2704 52.023 83.1798C52.0391 83.1798 52.0552 83.1771 52.0713 83.1745C51.9774 83.3902 51.8809 83.606 51.787 83.8244C51.4678 84.951 51.1539 86.1389 50.8052 87.3428C50.7248 87.5825 50.6416 87.8249 50.545 88.0672C50.0005 89.4149 48.3187 89.8917 48.5601 91.5643C48.8015 92.7576 50.2419 92.2808 50.2419 93.2343C50.4807 94.1852 49.5257 94.4275 48.5681 94.6646C48.1926 94.6646 47.8037 94.6539 47.522 94.8883C47.345 95.0588 47.1411 95.2266 46.8863 95.397C45.867 96.0815 44.051 96.8433 40.0328 98.3215C49.9254 96.4464 45.926 96.5157 47.4898 95.6021C50.0998 95.6634 47.632 96.4864 40.2662 100.346C51.7655 94.6566 46.8943 115.948 46.323 121.88C49.2092 116.025 48.5896 108.77 50.368 110.872C49.5097 108.288 48.2409 96.1109 49.8664 95.8791C49.5204 95.7673 49.5016 95.6634 49.6599 95.5648C50.4807 95.1467 51.2022 94.907 51.9238 94.4302H51.6824C51.8031 94.4302 51.9238 94.3716 52.0418 94.2811C52.1518 94.2598 52.2537 94.2864 52.3422 94.3556C52.4012 95.8632 52.1625 97.2961 52.8841 98.4893C52.868 98.4893 52.8546 98.4866 52.8412 98.484C52.9645 98.7823 53.1255 99.0486 53.6056 99.2058C52.2269 97.6423 52.9458 95.437 54.177 93.9028C53.898 94.1505 53.6164 94.4089 53.442 94.7392C53.6727 94.2837 54.0724 93.9375 54.4559 93.5779C54.5847 93.4367 54.7161 93.3036 54.8502 93.1784C54.928 93.0905 55.0005 92.9999 55.0675 92.9067C55.3116 92.7363 55.5745 92.6164 56.0117 92.7629L55.7703 92.5232C56.6287 92.6643 56.9961 94.574 57.1812 95.2106C57.6158 96.7128 57.9269 98.2443 58.3293 99.7544C58.4822 100.33 59.6463 99.7065 59.9333 100.231C59.9709 100.298 60.0111 100.364 60.0728 100.41C60.2257 100.516 60.1345 109.969 60.2955 109.929C60.4537 109.889 60.6039 109.846 60.7407 109.846C60.9017 109.963 61.1431 114.963 61.3818 115.2C61.6259 114.798 61.5857 109.191 61.5803 108.744C61.5749 107.934 60.9312 98.7956 60.84 97.9912C60.6334 96.1908 60.3223 94.3929 59.9682 92.6164C59.9441 92.4966 59.9199 92.3794 59.8958 92.2595C59.8851 92.2009 59.8716 92.1396 59.8287 92.097C59.7939 92.0597 59.7402 92.0438 59.6946 92.0251C58.788 91.6549 59.531 90.6241 60.1265 90.3738C60.1587 90.3605 60.1908 90.3498 60.223 90.3578C60.2579 90.3685 60.2794 90.4057 60.2955 90.4377C61.0626 91.868 61.3443 93.5539 61.6688 95.1307C61.8459 95.9963 62.031 96.8619 62.1651 97.7382C62.2885 98.5399 62.7981 107.758 63.1683 108.496C63.1951 108.549 63.2246 108.602 63.2729 108.634C63.4982 108.781 63.5492 108.352 63.5519 108.23C63.5599 107.95 63.4928 107.673 63.4928 107.393C63.4848 105.681 62.841 95.6474 62.7445 93.9375C62.7042 93.197 62.9591 92.936 63.4365 92.422C63.4472 92.4087 63.4607 92.398 63.4714 92.3873C63.5384 92.6137 63.6055 92.8401 63.6726 93.0665C64.1581 94.1319 64.6865 95.2452 65.1988 96.3878C65.2927 96.6249 65.3839 96.8619 65.4671 97.1096C65.9231 98.4893 64.944 99.9302 66.2101 101.057C67.1677 101.819 67.9617 100.532 68.5813 101.262C69.3806 101.837 68.8039 102.631 68.2245 103.425C67.9348 103.662 67.6317 103.904 67.5674 104.264C67.5432 104.509 67.4923 104.767 67.4091 105.06C67.0711 106.235 66.1725 107.977 64.0508 111.673C70.416 103.923 67.3957 106.53 68.0046 104.831C70.0432 103.212 68.6859 105.417 65.5422 113.074C70.6682 101.379 80.7217 120.796 84.1229 125.704C82.543 119.379 77.3714 114.214 80.0967 114.691C77.7657 113.261 68.9112 104.743 70.0083 103.526C69.673 103.662 69.5899 103.595 69.6462 103.417C70.0029 102.572 70.4026 101.928 70.644 101.102L70.459 101.257C70.5502 101.179 70.6038 101.057 70.6387 100.913C70.7084 100.825 70.805 100.783 70.9176 100.777C71.9396 101.893 72.6826 103.145 74.0077 103.598C73.9943 103.608 73.9836 103.614 73.9702 103.622C74.2599 103.771 74.5522 103.872 75.0217 103.688C72.9536 103.369 72.0764 101.222 72.0255 99.2617C71.9745 99.6293 71.9235 100.007 72.004 100.372C71.886 99.877 71.9691 99.3549 72.0281 98.8356C72.0362 98.6464 72.0496 98.46 72.0711 98.2789C72.0737 98.1617 72.0711 98.0472 72.0603 97.9326C72.1381 97.645 72.2615 97.3866 72.6907 97.2188L72.3527 97.1895C73.1038 96.7501 74.6193 97.9779 75.1719 98.3481C76.4755 99.2218 77.7067 100.197 78.9916 101.097C79.4824 101.44 79.9706 100.218 80.5286 100.439C80.601 100.466 80.6734 100.492 80.7512 100.487C80.9363 100.471 86.985 107.769 87.0843 107.636C87.1782 107.505 87.2667 107.375 87.3713 107.289C87.5698 107.276 90.9898 110.952 91.3278 110.981C91.2527 110.517 87.5939 106.248 87.3015 105.907C86.7731 105.292 80.3649 98.6997 79.7721 98.1431C78.447 96.8966 77.0468 95.7167 75.6225 94.582C75.5259 94.5048 75.4321 94.4302 75.3355 94.353C75.2899 94.3157 75.2389 94.2757 75.1799 94.2704C75.129 94.2651 75.078 94.2864 75.0297 94.3024C74.0962 94.598 73.997 93.3329 74.2921 92.7602C74.3081 92.7309 74.3269 92.699 74.3564 92.6857C74.3913 92.6723 74.4289 92.6857 74.4637 92.699C75.9793 93.3036 77.2856 94.4169 78.5543 95.4184C79.2518 95.9697 79.9519 96.5157 80.6224 97.099C81.2367 97.6343 87.5939 104.37 88.3557 104.7C88.4094 104.724 88.4684 104.746 88.5247 104.738C88.7929 104.706 88.5515 104.346 88.4764 104.25C88.3021 104.029 88.0714 103.861 87.889 103.648C86.7731 102.341 79.7855 95.0668 78.608 93.8176C78.0983 93.2769 78.1252 92.9147 78.1573 92.2142C78.1573 92.1982 78.1574 92.1823 78.16 92.1663C78.3585 92.2968 78.557 92.4273 78.7555 92.5578C79.8177 93.0639 80.9416 93.5779 82.0736 94.1292C82.2989 94.2518 82.5242 94.3743 82.7469 94.5101C83.9888 95.2772 84.1712 97.0031 85.8692 97.059C87.095 97.0324 86.8724 95.5382 87.8192 95.7033C88.8037 95.6341 88.8761 96.6089 88.9458 97.5891C88.8788 97.9566 88.8037 98.3348 88.9861 98.6518C89.1256 98.8542 89.2543 99.0833 89.3804 99.3629C89.882 100.479 90.3219 102.386 91.089 106.573C90.9469 96.5743 90.3219 100.498 89.6888 98.8089C90.2012 96.268 90.5901 98.8222 93.1384 106.695C89.493 94.4648 109.764 102.921 115.547 104.514C110.241 100.676 102.94 100.021 105.332 98.6465L105.357 98.6038ZM101.059 79.8372C100.925 79.6321 100.499 79.3471 100.383 79.1473C100.703 79.2326 100.882 79.5282 101.059 79.8372ZM98.8599 58.5642C98.6238 58.4923 98.1142 58.5456 97.8942 58.4683C98.1946 58.3298 98.5219 58.4417 98.8599 58.5642ZM83.4041 43.6702C83.1761 43.7661 82.822 44.131 82.602 44.2109C82.7415 43.9126 83.0661 43.79 83.4041 43.6702ZM44.4668 54.6543C44.5204 54.894 44.8236 55.3041 44.8638 55.5332C44.5929 55.3441 44.5258 55.0058 44.4668 54.6543ZM39.2067 75.3919C39.4025 75.541 39.9014 75.6609 40.0811 75.81C39.7512 75.8393 39.483 75.6209 39.2067 75.3919ZM48.6003 94.6353C48.8471 94.622 49.3058 94.3982 49.5418 94.3982C49.3085 94.63 48.9598 94.638 48.6003 94.6353ZM68.254 103.382C68.4338 103.217 68.643 102.751 68.82 102.602C68.7905 102.929 68.5303 103.156 68.254 103.382ZM85.9094 85.0549C85.8048 85.1801 85.6707 85.2333 85.5285 85.2573C85.102 85.3239 84.5924 85.0975 84.4985 85.6275C85.6412 86.0696 86.8241 86.2774 87.3257 87.5772C85.9604 85.6408 83.7045 85.9738 82.2292 87.412C81.8805 86.6236 82.2426 85.9604 82.5377 85.3425C82.6154 85.1481 82.4626 85.0842 82.3016 85.0282C82.2399 85.0069 82.1809 84.9883 82.1192 84.967C82.1916 84.8951 82.2775 84.8178 82.366 84.7406C82.6691 84.4849 83.0017 84.2638 83.3504 84.0641C84.5253 83.4595 85.7833 83.1159 87.0709 82.8842C87.1111 82.8762 87.1513 82.8708 87.1916 82.8655C87.1755 83.7205 86.3815 84.2319 85.9094 85.0575V85.0549ZM85.963 90.2166C86.073 90.2885 86.183 90.3578 86.2903 90.4271C86.2527 90.5149 86.2152 90.6055 86.1776 90.6934C86.1106 90.5336 86.0381 90.3738 85.963 90.2166C85.5714 89.9636 85.1744 89.7026 84.7855 89.4522C85.11 89.0261 85.3622 88.4987 85.5446 87.99C85.8128 88.0779 86.0167 88.2004 86.1642 88.3496C86.3064 88.5067 86.3949 88.6905 86.4378 88.9009C86.6685 89.399 86.5129 89.8917 86.3091 90.3844C86.1857 90.3125 86.0623 90.2406 85.9416 90.166C85.9496 90.182 85.9577 90.198 85.9657 90.214L85.963 90.2166ZM79.7829 89.2019C79.799 89.1965 79.8151 89.1912 79.8285 89.1885C79.8794 89.3297 79.9304 89.4842 79.984 89.6493C79.9143 89.4842 79.8472 89.335 79.7829 89.2045V89.2019ZM79.8177 89.8091C79.6943 89.6227 79.5951 89.5481 79.5146 89.5561C79.5039 89.4549 79.4959 89.3697 79.4905 89.2977C79.5307 89.2791 79.579 89.2658 79.6246 89.2498C79.6756 89.383 79.7399 89.5694 79.8177 89.8091ZM79.3617 80.0742C78.3344 80.7694 77.2507 81.3713 76.0302 81.7602C76.0302 81.7549 76.0249 81.7522 76.0222 81.7469C75.9444 81.611 75.8612 81.4752 75.7754 81.3394C75.8398 81.1156 75.9095 80.8786 75.9819 80.6229C75.6332 80.1009 75.3033 79.5735 74.9868 79.0381C76.4433 79.3844 77.8998 79.7413 79.3591 80.0742H79.3617ZM74.2572 64.9405C73.8307 63.5156 73.4149 62.0879 72.975 60.6683C74.0962 61.2037 75.1611 61.8349 76.1107 62.6899C76.1107 62.6952 76.1053 62.6979 76.1027 62.7032C76.0249 62.839 75.9471 62.9775 75.8693 63.1187C75.6413 63.1746 75.3999 63.2332 75.1424 63.2998C74.8634 63.8591 74.563 64.4025 74.2545 64.9405H74.2572ZM81.1536 56.9741C80.7995 56.8756 80.7619 56.6572 80.9711 56.2763C81.3681 56.5107 81.7893 56.7264 82.0548 57.0114C81.6954 57.0114 81.3923 57.0008 81.1536 56.9741C81.3547 57.0301 81.6578 57.0487 82.0763 57.0327C82.2346 57.2112 82.3338 57.4136 82.3258 57.6666C82.2533 57.8664 81.8241 57.9356 81.5586 57.9143C79.7668 57.387 79.6622 56.9635 80.4856 55.9514C80.5098 55.97 80.5339 55.9886 80.5607 56.0046C80.1959 56.6359 80.3542 56.8889 81.1536 56.9741ZM81.1697 55.7969C81.0865 55.8581 81.0168 55.9061 80.9577 55.946C80.9229 55.9194 80.8853 55.8874 80.8478 55.8528C80.9363 55.7436 81.0677 55.5945 81.2394 55.408C81.1401 55.6078 81.1214 55.7303 81.1697 55.7969ZM81.2528 55.8501C81.3842 55.8901 81.623 55.8501 81.9422 55.7809C82.1755 55.9087 82.5618 55.9913 83.0527 56.0792C82.9829 56.1005 82.9132 56.1218 82.8434 56.1405C82.4411 56.2417 82.0173 56.287 81.6069 56.2017C81.4379 56.1671 81.2769 56.1085 81.124 56.0339C81.1643 55.9753 81.2045 55.9141 81.2528 55.8501ZM80.7297 55.7409C80.7297 55.7409 80.7056 55.7196 80.6949 55.709C80.7941 55.5945 80.9014 55.4746 81.0194 55.3468C80.9095 55.4906 80.8129 55.6211 80.7324 55.7436L80.7297 55.7409ZM80.6144 55.6397C80.6144 55.6397 80.6063 55.6344 80.6037 55.6317C80.6868 55.5332 80.77 55.4346 80.8612 55.3281C80.7727 55.4373 80.6922 55.5385 80.6144 55.6397ZM81.3869 57.9729C81.2689 58.0795 81.1616 58.2046 81.0811 58.3804C80.7431 59.1129 80.4561 59.7095 80.1959 60.2022C79.9063 59.3366 79.6112 58.4683 79.3617 57.5734C79.3537 57.5468 79.3483 57.5175 79.3403 57.4908C79.5119 57.0087 79.8553 56.532 80.3998 55.8768C80.4052 55.8821 80.4132 55.8874 80.4186 55.8928C79.3886 57.2458 79.4878 57.5894 81.3869 57.9729ZM79.8714 64.9298C80.3837 66.0538 80.7914 67.2178 80.9658 68.4802C80.9604 68.4802 80.9577 68.4829 80.9524 68.4856C80.8048 68.5388 80.6546 68.5974 80.5044 68.656C80.2952 68.5548 80.0699 68.4456 79.8285 68.3311C79.2518 68.5814 78.6697 68.8132 78.0849 69.0289C78.6804 67.6625 79.2893 66.3015 79.8714 64.9325V64.9298ZM88.058 68.2325C87.8997 68.2378 87.7361 68.2671 87.5591 68.3497C86.8241 68.696 86.2205 68.9703 85.7029 69.1807C86.0408 68.3337 86.3761 67.4788 86.7651 66.6318C86.7758 66.6052 86.7892 66.5812 86.8026 66.5546C87.2452 66.2935 87.8192 66.147 88.6588 65.9952C88.6588 66.0032 88.6615 66.0112 88.6642 66.0192C86.9984 66.3974 86.8509 66.725 88.058 68.2299V68.2325ZM86.8724 70.1342C87.0762 70.009 87.2801 69.8839 87.4813 69.756C87.8943 69.3325 88.3879 69.1967 88.86 69.194C88.8654 69.202 88.8707 69.2073 88.8788 69.2153C88.8734 69.2073 88.868 69.202 88.8627 69.194C89.0987 69.194 89.3294 69.2287 89.5413 69.2766C89.4313 69.4231 89.324 69.5696 89.2141 69.7187C88.455 70.7681 87.72 71.8522 87.044 73.0028C86.9072 73.3756 86.7034 73.6979 86.4593 73.9882C86.2152 74.2786 85.9282 74.5396 85.5982 74.5396C85.322 75.0376 85.0028 75.2773 84.418 75.1016C84.3778 75.7195 84.0505 75.874 83.4765 75.8313C83.3504 76.0897 82.9829 76.151 82.5886 76.1616C82.1943 76.1696 81.7785 76.127 81.3333 76.0231C81.5264 76.0684 82.3284 75.0643 82.4733 74.9045C83.4953 73.8098 84.2007 72.5979 84.7908 71.3354C85.4936 70.9492 86.1884 70.5551 86.8724 70.1369V70.1342ZM89.4769 65.9846C89.2999 66.0245 89.1417 66.0645 88.9995 66.1044C88.9995 66.0884 88.9968 66.0725 88.9941 66.0565C89.1443 66.0325 89.3053 66.0085 89.4769 65.9846ZM88.978 65.9526C88.978 65.9526 88.978 65.9446 88.9753 65.9393C89.1014 65.918 89.2329 65.894 89.3697 65.8727C89.2329 65.8993 89.1041 65.926 88.978 65.9526ZM89.6084 66.1737C89.4018 66.2642 89.3106 66.3441 89.3026 66.4267C89.2007 66.4187 89.1148 66.4134 89.0424 66.4054C89.0317 66.3628 89.0263 66.3148 89.0183 66.2642C89.1577 66.2376 89.3562 66.2056 89.6057 66.1737H89.6084ZM89.3321 66.5199C89.4072 66.6345 89.6191 66.7543 89.9034 66.9061C90 67.1538 90.2414 67.4628 90.5633 67.8437C90.4962 67.817 90.4292 67.7877 90.3648 67.7584C89.992 67.58 89.6352 67.3429 89.3777 67.0153C89.2704 66.8822 89.1873 66.733 89.1175 66.5785C89.1873 66.5599 89.257 66.5386 89.3375 66.5199H89.3321ZM88.4362 79.0168C88.4362 79.0168 88.4281 79.0328 88.4228 79.0381C86.9019 78.2657 86.5773 78.4229 86.5263 80.3459C86.403 80.25 86.2554 80.1674 86.0676 80.1195C85.2817 79.9171 84.6406 79.7413 84.1068 79.5708C84.9142 79.1367 85.7243 78.6972 86.5693 78.2977C86.5961 78.2844 86.6229 78.2737 86.6497 78.2631C87.1567 78.3456 87.6905 78.6013 88.4362 79.0195V79.0168ZM83.2109 77.1524C82.7201 77.52 82.2399 77.8955 81.7625 78.2737C81.4164 77.8715 81.1509 77.3602 80.8263 76.649C81.2716 76.7502 81.7195 76.8435 82.1729 76.9313C82.6369 77.0219 83.1063 77.1098 83.0554 77.1311C83.1117 77.1391 83.1626 77.1471 83.2136 77.1551L83.2109 77.1524ZM83.0661 69.6841C82.5403 69.5962 82.0039 69.3751 81.2957 69.0369C81.7008 68.8291 82.1058 68.6161 82.5108 68.395C82.9266 68.1686 83.3424 67.9369 83.3155 67.9848C83.3638 67.9555 83.4067 67.9289 83.4497 67.9023C83.3102 68.4962 83.1895 69.0902 83.0661 69.6841ZM82.3955 72.5926C82.0602 73.7805 81.6176 74.9338 80.9336 76.0098L80.9202 76.0045C80.7727 75.9512 80.6198 75.9006 80.4669 75.85C80.373 75.6369 80.2711 75.4105 80.1611 75.1681C79.5549 74.9924 78.9621 74.7979 78.3746 74.5902C79.7158 73.9243 81.0624 73.2691 82.3955 72.5926ZM76.7276 62.9083C76.9047 62.4901 77.0764 62.0693 77.2453 61.6405C77.417 61.201 77.586 60.7589 77.5967 60.8122C77.6155 60.7589 77.6316 60.7109 77.6477 60.663C77.9267 61.2063 78.2164 61.739 78.5087 62.2717C78.0501 62.5407 77.4948 62.7112 76.7303 62.9056L76.7276 62.9083ZM75.5394 82.1783C75.8156 82.5379 76.0973 82.8975 76.387 83.2544C76.6847 83.6219 76.9852 83.9868 76.9342 83.9708C76.9717 84.0135 77.0039 84.0507 77.0388 84.088C76.4272 84.0561 75.8156 84.0401 75.2041 84.0241C75.1987 83.4941 75.3275 82.9321 75.5394 82.181V82.1783ZM78.8735 87.1111C78.9004 87.119 78.9299 87.127 78.9567 87.135C79.292 87.5239 79.5361 88.0566 79.8338 88.853C79.8258 88.853 79.8177 88.8583 79.8097 88.8609C79.1445 87.2975 78.7958 87.2123 77.5109 88.6532C77.4787 88.5014 77.4197 88.3442 77.307 88.1871C76.8376 87.5292 76.4594 86.9859 76.159 86.5144C77.0576 86.6982 77.9642 86.8793 78.8709 87.1111H78.8735ZM79.9331 89.1566C79.9331 89.1566 79.9411 89.1539 79.9465 89.1513C79.9894 89.2711 80.035 89.3936 80.0806 89.5241C80.0296 89.3936 79.9814 89.2738 79.9331 89.1566ZM79.2947 83.289C78.8628 83.7365 78.5114 83.6459 78.101 83.2464C77.8381 83.3636 77.5163 83.1771 77.2078 82.9321C76.902 82.6871 76.6096 82.3888 76.336 82.0239C76.454 82.181 77.7201 81.9227 77.932 81.8934C79.4234 81.7069 80.7485 81.2302 82.0173 80.6389C82.8032 80.7907 83.5945 80.9319 84.3885 81.049C84.6245 81.0837 84.8633 81.1156 85.102 81.1476C85.6921 81.089 86.1589 81.2967 86.521 81.5977C86.7007 81.7469 86.8563 81.92 86.9877 82.0958C86.808 82.1384 86.631 82.181 86.4512 82.2263C85.1905 82.5432 83.9271 82.9081 82.661 83.3556C82.315 83.5553 81.9502 83.6725 81.5747 83.7365C81.1992 83.803 80.8129 83.819 80.5581 83.6086C80.0243 83.8137 79.6246 83.7924 79.292 83.2863L79.2947 83.289ZM87.602 80.8413C87.5403 80.4897 87.4974 80.1914 87.4813 79.9517C87.4598 80.1594 87.4947 80.4578 87.5832 80.8653C87.4357 81.0517 87.2479 81.1822 86.9984 81.2195C86.7892 81.1822 86.6444 80.7747 86.6202 80.5137C86.8321 78.6679 87.2345 78.4948 88.3825 79.1234C88.3691 79.15 88.3557 79.1766 88.3423 79.2059C87.6529 78.9582 87.4303 79.1553 87.4839 79.9544C87.5188 79.5921 87.7307 79.5176 88.1438 79.6534C87.9802 80.0822 87.838 80.5323 87.602 80.8413ZM88.6991 81.651C88.6669 81.5871 88.632 81.5231 88.6025 81.4565C88.4308 81.081 88.3128 80.6735 88.3262 80.258C88.3316 80.0875 88.3638 79.9197 88.4094 79.7573C88.4737 79.7866 88.5408 79.8159 88.6159 79.8532C88.5998 79.9863 88.683 80.2154 88.8037 80.5137C88.7178 80.7641 88.7017 81.1556 88.7017 81.6536L88.6991 81.651ZM89.0746 79.5335C88.9136 79.451 88.7661 79.3791 88.632 79.3205C88.64 79.3071 88.6508 79.2938 88.6588 79.2805C88.7903 79.3578 88.9271 79.443 89.0746 79.5335ZM88.7125 79.19C88.7125 79.19 88.7151 79.182 88.7178 79.1766C88.8278 79.2406 88.9432 79.3071 89.0639 79.3764C88.9405 79.3098 88.8251 79.2485 88.7125 79.19ZM89.0505 79.7626C88.8332 79.6987 88.7098 79.704 88.6535 79.7626C88.5784 79.6907 88.5167 79.6321 88.4684 79.5815C88.4898 79.5415 88.514 79.5016 88.5408 79.459C88.6669 79.5282 88.8359 79.6294 89.0505 79.7653V79.7626ZM94.8578 77.2456C94.9248 77.3495 95.0026 77.4427 95.0938 77.5253C95.1609 77.6665 95.2145 77.8076 95.2628 77.9515C95.4479 78.5188 95.5042 79.0861 95.7242 79.6401C95.6598 79.427 95.6732 79.2193 95.979 79.2006C96.5155 79.1686 96.5477 79.7013 96.6684 79.9091C96.7569 79.5841 96.5155 79.1686 96.3948 78.9636C97.0841 79.672 96.7783 78.1912 97.6608 78.1139C97.8835 78.0393 98.1142 77.9914 98.3341 77.9674C97.3497 78.6919 97.9505 79.7253 97.8942 80.5856C97.8996 81.952 96.6684 81.667 95.5445 81.1929C95.6518 81.1796 95.7644 81.1556 95.8851 81.1263C95.7188 81.1476 95.5632 81.1556 95.4264 81.1449C95.287 81.0837 95.1502 81.0197 95.0187 80.9585C94.9999 80.9318 94.9838 80.8999 94.9731 80.8679C94.9678 80.8919 94.9678 80.9132 94.9678 80.9345C94.9007 80.9026 94.8363 80.8733 94.7746 80.8413C94.8336 80.8227 94.8953 80.8067 94.957 80.7854C94.9543 80.7507 94.949 80.7188 94.9517 80.6788C94.831 80.7134 94.7183 80.7427 94.6164 80.7667C94.5547 80.7374 94.493 80.7055 94.4366 80.6788C94.5225 80.6442 94.619 80.6069 94.7317 80.567C94.5466 80.5856 94.3803 80.6016 94.2194 80.6149C94.1765 80.6149 94.1335 80.6149 94.0906 80.6149C94.1121 80.5963 94.1335 80.5776 94.1604 80.5563C93.6668 80.5803 93.3235 80.6069 93.1169 80.6282C93.1706 80.6442 93.2296 80.6602 93.2832 80.6762C93.3691 80.6735 93.471 80.6682 93.5837 80.6602C93.5112 80.6735 93.4415 80.6868 93.3691 80.7028C93.3396 80.6948 93.3101 80.6868 93.2832 80.6762C93.1786 80.6815 93.0901 80.6815 93.0257 80.6815C93.0847 80.6975 93.1491 80.7134 93.2135 80.7294C92.2022 80.9265 91.199 81.1263 90.2387 81.3766C89.7961 81.4699 89.3536 81.5631 88.9136 81.659C89.434 80.0955 89.9839 79.8239 92.0681 80.3406C92.213 80.3406 92.5187 80.3619 92.9694 80.3965C93.0257 80.3326 93.4147 80.2154 94.2167 80.0609C91.4753 80.0902 91.0837 79.8931 93.7231 79.6268C90.3407 79.4483 89.9893 79.2006 92.8567 78.8251C90.7725 78.7212 89.823 78.5694 89.6406 78.2151C90.2092 78.3803 90.8369 78.3989 91.2929 78.3057C91.993 78.1326 92.3632 77.7224 92.5268 77.2057C93.4093 77.227 94.2569 77.251 94.8605 77.2456H94.8578ZM94.3964 76.0657C94.2542 76.0897 94.1148 76.1137 93.9726 76.1323C93.9887 76.1403 94.0048 76.1456 94.0209 76.1536C94.1523 76.1376 94.2811 76.1217 94.4071 76.1057C94.4366 76.1962 94.4635 76.2895 94.493 76.3827C94.3374 76.3028 94.1791 76.2255 94.0209 76.1536C93.5595 76.2096 93.0847 76.2628 92.6234 76.3188C92.5965 75.7861 92.449 75.2188 92.2586 74.7154C92.5214 74.6115 92.7548 74.5769 92.964 74.5955C93.1759 74.6248 93.3637 74.71 93.53 74.8432C94.0289 75.0776 94.2301 75.5543 94.391 76.0631L94.3964 76.0657ZM93.3583 73.2611C91.0595 72.6485 89.5467 74.3451 89.3455 76.388C88.5676 76.0071 88.4174 75.2667 88.2404 74.6062C88.1733 74.4091 88.0151 74.457 87.8568 74.5156C87.7951 74.5369 87.7388 74.5635 87.6771 74.5849C87.6851 74.4836 87.7012 74.3691 87.72 74.2546C87.787 73.8657 87.8997 73.4822 88.0365 73.1093C88.5462 71.8948 89.2865 70.8294 90.1207 69.8306C90.1475 69.7986 90.1744 69.7693 90.2012 69.74C90.743 70.4059 90.4641 71.3035 90.6384 72.2384C90.6384 72.4008 90.5713 72.5287 90.4775 72.6352C90.1931 72.9575 89.6567 73.1093 89.9276 73.5754C91.089 73.1865 92.1298 72.5873 93.3556 73.2638L93.3583 73.2611ZM92.4329 60.5431C92.5509 60.5778 92.6716 60.6017 92.795 60.6071C92.9372 60.6737 93.0713 60.7456 93.2001 60.8255C93.707 61.1424 94.1201 61.5393 94.6486 61.8243C94.4608 61.7017 94.3374 61.5339 94.56 61.3262C94.9517 60.9586 95.3191 61.3475 95.5471 61.4274C95.4023 61.1211 94.9517 60.9586 94.7263 60.8761C95.7134 60.9773 94.5225 60.0398 95.1448 59.4165C95.2682 59.2167 95.4103 59.033 95.5659 58.8758C95.2816 60.0611 96.4109 60.4686 96.9232 61.1611C97.8111 62.2025 96.6871 62.7725 95.5176 63.124C95.5901 63.0441 95.6625 62.9536 95.7322 62.855C95.6196 62.9775 95.5069 63.0841 95.3943 63.1613C95.2467 63.2039 95.1019 63.2439 94.9597 63.2785C94.9275 63.2705 94.8953 63.2572 94.8658 63.2386C94.8766 63.2599 94.8873 63.2785 94.898 63.2945C94.8283 63.3131 94.7612 63.3291 94.6968 63.3451C94.7317 63.2945 94.7639 63.2412 94.8014 63.1853C94.7773 63.1613 94.7505 63.14 94.729 63.1054C94.6593 63.2119 94.5922 63.3025 94.5278 63.385C94.4608 63.401 94.3964 63.417 94.3347 63.433C94.3776 63.3504 94.4286 63.2625 94.4876 63.1587C94.3481 63.3025 94.2194 63.4303 94.0987 63.5502C94.0745 63.5715 94.0504 63.5901 94.0289 63.6114C94.0316 63.5821 94.037 63.5528 94.045 63.5156C93.6829 63.8485 93.4388 64.0882 93.294 64.2373C93.3449 64.2134 93.4012 64.1921 93.4549 64.1681C93.5193 64.1095 93.5944 64.0403 93.6749 63.963C93.6293 64.0189 93.5836 64.0749 93.538 64.1308C93.5112 64.1415 93.4817 64.1548 93.4549 64.1654C93.3771 64.2374 93.3127 64.2933 93.2618 64.3359C93.3181 64.3093 93.3771 64.2826 93.4388 64.2533C92.7897 65.0497 92.1539 65.8434 91.5799 66.6478C91.301 67.002 91.022 67.3562 90.7457 67.7105C90.1341 66.179 90.3782 65.6223 92.3095 64.6875C92.4195 64.5943 92.669 64.4158 93.0364 64.1574C93.0364 64.0722 93.2618 63.734 93.7741 63.1054C91.6926 64.8766 91.2661 64.9751 93.1142 63.0867C90.4077 65.111 89.9785 65.1429 91.9313 63.0255C90.2682 64.272 89.4448 64.7647 89.0719 64.6102C89.6137 64.3732 90.1073 63.987 90.397 63.6248C90.8208 63.0441 90.8423 62.4928 90.633 61.9947C91.3224 61.4487 91.985 60.9267 92.4436 60.5405L92.4329 60.5431ZM89.2704 59.7228C89.4528 59.6109 89.6486 59.555 89.8659 59.5497C90.3997 59.4112 90.861 59.6482 91.3144 59.9332C91.2205 60.0398 91.1293 60.149 91.0354 60.2555C91.0515 60.2502 91.0703 60.2448 91.0864 60.2395C91.1749 60.1436 91.2634 60.0504 91.3519 59.9545C91.4324 60.0051 91.5155 60.0584 91.596 60.1117C91.4243 60.149 91.2554 60.1916 91.0864 60.2395C90.7698 60.5778 90.4399 60.9214 90.1234 61.2596C89.7586 60.8681 89.2785 60.5298 88.8064 60.2661C88.9405 60.0184 89.096 59.8427 89.2704 59.7228ZM88.5354 67.3243C88.3289 67.0233 88.4416 66.8315 88.8466 66.6717C88.9995 67.1059 89.1819 67.54 89.2007 67.9262C88.9271 67.6945 88.7017 67.4947 88.5327 67.3216C88.6508 67.4921 88.8707 67.6998 89.2007 67.9555C89.206 68.1926 89.1497 68.411 88.9807 68.6001C88.7956 68.7066 88.4228 68.4856 88.235 68.2991C87.2023 66.7516 87.3981 66.3601 88.6856 66.1098C88.691 66.1391 88.6991 66.1683 88.7071 66.1976C88.0204 66.448 87.9748 66.741 88.5354 67.319V67.3243ZM84.0049 57.7652C84.8499 57.9303 85.22 58.7959 85.9577 59.3979C86.065 59.523 86.0945 59.6615 86.0918 59.8054C86.0838 60.2342 85.7699 60.6923 86.2796 60.8761C86.9153 59.8373 87.3284 58.7134 88.7044 58.4497C86.5478 59.4485 86.4861 61.7124 87.6556 63.4064C86.8134 63.6088 86.2179 63.14 85.6572 62.7458C85.4775 62.6366 85.389 62.7751 85.3032 62.9216C85.271 62.9775 85.2415 63.0335 85.212 63.0894C85.153 63.0068 85.0913 62.911 85.0323 62.8097C84.8311 62.4688 84.6701 62.1039 84.5307 61.731C84.1337 60.4766 84.013 59.1874 84.0049 57.8877C84.0049 57.8477 84.0049 57.8078 84.0049 57.7652ZM83.8976 63.409C83.8976 63.7872 83.8466 64.1708 83.5945 64.3812C83.7045 64.9405 83.616 65.3267 83.0527 65.5637C83.4228 66.0645 83.2699 66.3894 82.8032 66.7223C82.8756 66.9993 82.6315 67.2817 82.3365 67.54C82.0414 67.7984 81.6927 68.0301 81.285 68.2352C81.462 68.1473 81.4272 66.8635 81.4325 66.6504C81.5076 65.1589 81.2635 63.7819 80.896 62.4369C81.1831 61.6938 81.462 60.9453 81.7142 60.1916C81.7893 59.9652 81.8644 59.7388 81.9368 59.5124C81.9797 58.9238 82.2694 58.5029 82.6289 58.202C82.6369 58.202 82.6476 58.2046 82.6557 58.2073C82.6476 58.2073 82.6396 58.202 82.6315 58.202C82.8113 58.0502 83.0098 57.9303 83.2056 57.8318C83.2163 58.0129 83.2297 58.1966 83.2431 58.3778C83.3397 59.6669 83.4792 60.964 83.7072 62.2797C83.844 62.6526 83.8976 63.0308 83.8976 63.409ZM79.7614 49.2981C79.8741 49.2501 79.9814 49.1915 80.0806 49.1169C80.2335 49.077 80.3837 49.0477 80.5312 49.0264C81.124 48.9438 81.6981 48.9864 82.2882 48.8692C82.0656 48.8959 81.8617 48.8453 81.8966 48.5443C81.9583 48.0143 82.4921 48.0755 82.7174 47.993C82.4089 47.8491 81.9583 48.0143 81.7303 48.0942C82.5511 47.5428 81.0328 47.5855 81.108 46.7092C81.0731 46.4775 81.065 46.2457 81.0811 46.0273C81.6283 47.1167 82.7576 46.7092 83.5999 46.9116C84.9545 47.1433 84.4609 48.2966 83.793 49.3114C83.7957 49.2048 83.793 49.0903 83.785 48.9678C83.7796 49.1329 83.7581 49.2874 83.7233 49.4179C83.6374 49.5431 83.5516 49.6656 83.4684 49.7855C83.4389 49.7988 83.4067 49.8094 83.3692 49.8148C83.3906 49.8254 83.4121 49.8308 83.4309 49.8361C83.3906 49.892 83.3477 49.9506 83.3075 50.0039C83.2995 49.9426 83.2941 49.8814 83.2834 49.8148C83.2485 49.8148 83.2163 49.8121 83.1761 49.8015C83.1895 49.9266 83.2002 50.0412 83.2029 50.145C83.1626 50.201 83.1224 50.2542 83.0849 50.3048C83.0661 50.2143 83.0446 50.1131 83.0258 49.9986C83.0124 50.1823 82.999 50.3501 82.9856 50.5073C82.9776 50.5499 82.9695 50.5925 82.9642 50.6351C82.9507 50.6111 82.9346 50.5872 82.9186 50.5579C82.8569 51.0453 82.8247 51.3835 82.8113 51.5913C82.8354 51.5407 82.8622 51.4874 82.889 51.4368C82.8998 51.3516 82.9132 51.2504 82.9239 51.1412C82.9239 51.2131 82.9266 51.285 82.9293 51.3569C82.9159 51.3835 82.9025 51.4102 82.889 51.4368C82.8756 51.5407 82.8622 51.6259 82.8515 51.6898C82.8783 51.6339 82.9051 51.5753 82.932 51.5141C82.9507 52.5395 82.9776 53.5516 83.058 54.5344C83.0714 54.9845 83.0902 55.432 83.109 55.8794C81.6498 55.0991 81.4754 54.5131 82.3499 52.5661C82.374 52.425 82.4491 52.1293 82.5618 51.6952C82.5082 51.6286 82.4599 51.2291 82.4438 50.4167C81.9958 53.1015 81.7329 53.4504 81.9261 50.8242C81.1616 54.1003 80.8558 54.4012 80.9792 51.5327C80.5125 53.5489 80.1986 54.4518 79.815 54.5717C80.0779 54.0443 80.204 53.4344 80.1933 52.971C80.1423 52.2572 79.799 51.823 79.3161 51.5753C79.4905 50.7177 79.6595 49.892 79.7614 49.3007V49.2981ZM76.8054 50.6884C76.8725 50.486 76.9878 50.3182 77.1488 50.177C77.468 49.7322 77.9776 49.6177 78.5087 49.5458C78.5087 49.6869 78.5087 49.8281 78.5034 49.9719C78.5141 49.9559 78.5222 49.9426 78.5329 49.9266C78.5409 49.7961 78.5463 49.6683 78.5517 49.5404C78.6482 49.5271 78.7448 49.5165 78.8414 49.5031C78.7341 49.6416 78.6321 49.7828 78.5329 49.9266C78.5087 50.3874 78.4792 50.8615 78.4551 51.3223C77.9213 51.2557 77.3339 51.3036 76.8028 51.4022C76.7437 51.1279 76.7518 50.8908 76.8081 50.691L76.8054 50.6884ZM74.0587 52.5528C74.2196 52.5794 74.335 52.6673 74.4235 52.7792C74.6944 53.1121 74.7507 53.6635 75.2604 53.4797C75.0753 52.2758 74.6649 51.1545 75.5474 50.0731C74.5415 52.2145 75.9605 53.9884 77.9508 54.5397C77.4385 55.2322 76.6767 55.2535 75.99 55.3095C75.7808 55.3414 75.8022 55.5039 75.8317 55.669C75.8425 55.733 75.8586 55.7942 75.8693 55.8555C75.77 55.8288 75.6601 55.7969 75.5501 55.7569C75.1746 55.6238 74.8151 55.448 74.4691 55.2482C73.3532 54.5397 72.4251 53.6288 71.5802 52.6407C71.5534 52.6087 71.5292 52.5768 71.5024 52.5475C72.2561 52.1346 73.0984 52.5608 74.056 52.5528H74.0587ZM70.7352 53.7593C70.7352 53.7593 70.7513 53.7513 70.7594 53.746C70.7513 53.7487 70.7433 53.754 70.7352 53.7567C70.7755 53.525 70.8506 53.3066 70.9364 53.1068C71.0625 53.24 71.1886 53.3705 71.3173 53.5037C72.2239 54.4279 73.1735 55.3334 74.1982 56.1964C74.5442 56.3962 74.8285 56.6492 75.0753 56.9395C75.3221 57.2298 75.5286 57.5548 75.4723 57.877C75.9176 58.2339 76.1 58.5882 75.8237 59.1289C76.4299 59.2753 76.5238 59.6243 76.3816 60.1756C76.615 60.3434 76.6123 60.7136 76.5533 61.0998C76.4943 61.486 76.3789 61.8855 76.1965 62.3037C76.2743 62.1226 75.416 61.1637 75.2845 60.9959C74.3752 59.8054 73.2969 58.9051 72.1462 58.1114C71.886 57.3577 71.6124 56.6092 71.3173 55.8688C71.2288 55.6477 71.1403 55.4267 71.0464 55.2056C70.6977 54.7262 70.6494 54.2201 70.7299 53.7593H70.7352ZM70.4563 70.0596C70.5582 70.2141 71.5212 69.8279 71.6285 69.9771C71.6338 69.9851 71.6338 69.9984 71.6285 70.0144C71.7465 69.8519 71.8511 69.6814 71.9423 69.5057C72.0737 69.4018 72.0576 69.4524 71.9343 69.6095C72.0469 69.527 72.0389 69.5722 71.9691 69.6788C72.0174 69.6628 72.0094 69.7081 71.9933 69.7613C71.9933 69.7986 71.9825 69.8439 71.9718 69.8919C71.9369 70.0756 71.9074 70.2621 71.8833 70.4485C71.8618 70.6323 72.8489 70.9492 72.8355 71.133C72.8355 71.1437 72.8248 71.1543 72.8114 71.1623C73.0072 71.1117 73.1976 71.0478 73.3827 70.9705C73.5517 70.9759 73.5061 71.0025 73.3076 71.0451C73.4471 71.0558 73.4096 71.0824 73.2889 71.1224C73.3371 71.141 73.2996 71.1703 73.2513 71.1996C73.2245 71.2262 73.1896 71.2555 73.152 71.2848C73.0072 71.402 72.8624 71.5245 72.7229 71.6551C72.5861 71.7829 73.1386 72.6539 73.0072 72.787C72.9992 72.795 72.9857 72.7977 72.9696 72.795C73.152 72.8829 73.3398 72.9548 73.5303 73.0134C73.6563 73.1253 73.6054 73.1173 73.4257 73.0241C73.5276 73.12 73.4793 73.12 73.3613 73.0693C73.3854 73.1146 73.3398 73.112 73.2835 73.1066C73.2459 73.112 73.1976 73.1093 73.152 73.1093C72.9643 73.1093 72.7738 73.1093 72.5834 73.12C72.3956 73.1306 72.2535 74.1507 72.0684 74.1694C72.0576 74.1694 72.0469 74.164 72.0335 74.1507C72.1167 74.3345 72.2132 74.5103 72.3205 74.6754C72.3447 74.8432 72.3098 74.8006 72.2347 74.6141C72.2508 74.7526 72.2159 74.7207 72.1569 74.6088C72.1462 74.6594 72.1113 74.6275 72.0737 74.5875C72.0415 74.5662 72.0067 74.5369 71.9718 74.5049C71.8296 74.3824 71.6821 74.2652 71.5319 74.1507C71.3817 74.0388 70.6118 74.7313 70.459 74.6275C70.4509 74.6221 70.4455 74.6088 70.4455 74.5928C70.3919 74.7846 70.3517 74.9817 70.3275 75.1761C70.239 75.3226 70.2363 75.2694 70.298 75.0749C70.2202 75.1895 70.2149 75.1442 70.2417 75.0217C70.2014 75.0536 70.1961 75.0083 70.1907 74.9524C70.18 74.9151 70.1719 74.8698 70.1639 74.8246C70.1344 74.6408 70.0968 74.457 70.0566 74.2706C70.0137 74.0894 68.9756 74.1294 68.9273 73.9483C68.9246 73.9376 68.9273 73.9243 68.938 73.911C68.7717 74.0255 68.6135 74.1507 68.4686 74.2839C68.3077 74.3371 68.3426 74.2972 68.5142 74.188C68.3801 74.2279 68.4043 74.188 68.5062 74.1108C68.4552 74.1108 68.4794 74.0708 68.5142 74.0255C68.5303 73.9909 68.5545 73.951 68.5786 73.911C68.6752 73.7512 68.7664 73.5861 68.8549 73.4183C68.938 73.2531 68.1199 72.6192 68.1977 72.4514C68.2031 72.4408 68.2138 72.4354 68.2299 72.4301C68.0287 72.4115 67.8275 72.4061 67.6291 72.4168C67.4681 72.3555 67.5218 72.3449 67.7229 72.3715C67.5942 72.3156 67.6398 72.3023 67.7659 72.3049C67.7283 72.2703 67.7712 72.257 67.8275 72.2437C67.8624 72.2277 67.9053 72.2117 67.9509 72.1957C68.128 72.1345 68.305 72.0679 68.482 71.9933C68.6537 71.9214 68.4364 70.912 68.6054 70.8321C68.6162 70.8267 68.6296 70.832 68.643 70.8374C68.5008 70.6935 68.3506 70.563 68.1924 70.4432C68.1119 70.294 68.1575 70.3207 68.2943 70.4698C68.2326 70.3446 68.2755 70.3633 68.3694 70.4485C68.3613 70.3979 68.4043 70.4166 68.4552 70.4405C68.4928 70.4485 68.5357 70.4672 68.5786 70.4831C68.7556 70.5497 68.9327 70.611 69.1151 70.6669C69.2948 70.7202 69.7803 69.8093 69.96 69.8546C69.9708 69.8572 69.9788 69.8679 69.9869 69.8839C69.9708 69.6841 69.9413 69.487 69.8957 69.2952C69.9305 69.1274 69.9493 69.178 69.9573 69.3805C69.9922 69.2446 70.0137 69.2873 70.0298 69.4124C70.0566 69.3698 70.0781 69.4124 70.1022 69.4604C70.1237 69.4897 70.1478 69.5323 70.1693 69.5722C70.2605 69.7347 70.357 69.8972 70.4616 70.0543L70.4563 70.0596ZM72.2052 83.875C70.9686 83.7524 69.7481 83.5207 68.5625 83.0386C68.5625 83.0333 68.5625 83.028 68.5625 83.0253C68.5893 82.8708 68.6135 82.7137 68.6376 82.5566C68.8334 82.426 69.0373 82.2902 69.2599 82.1384C69.3297 81.5151 69.4182 80.8999 69.5228 80.29C70.416 81.4858 71.2985 82.6871 72.2025 83.875H72.2052ZM67.8249 85.465C67.3769 85.0495 66.9182 84.6447 66.4622 84.2425C66.8002 83.835 67.2643 83.4861 67.9107 83.044C67.8892 83.4968 67.8731 83.9522 67.8651 84.4103C67.8544 84.8817 67.849 85.3532 67.8222 85.3079C67.8222 85.3638 67.8249 85.4171 67.8249 85.4677V85.465ZM66.7626 91.1941C66.7626 91.1941 66.7707 91.1941 66.7761 91.1968C66.7331 91.3166 66.6875 91.4392 66.6393 91.5697C66.6849 91.4365 66.7251 91.314 66.7653 91.1941H66.7626ZM66.4864 91.607C66.54 91.4338 66.5856 91.2793 66.6205 91.1382C66.6366 91.1435 66.65 91.1515 66.6661 91.1568C66.6124 91.298 66.5534 91.4471 66.4864 91.607ZM66.7734 90.8585C66.7439 90.8505 66.7144 90.8399 66.6849 90.8319C66.8109 90.1154 66.5749 89.9316 65.7943 90.1234C66.1591 90.0968 66.2718 90.2886 66.2074 90.7174C65.7514 90.6321 65.282 90.5735 64.9333 90.3951C65.2712 90.2752 65.5583 90.182 65.7943 90.1234C65.5851 90.1394 65.2954 90.2246 64.9064 90.3818C64.6972 90.2699 64.5336 90.1101 64.4531 89.8704C64.4531 89.6573 64.8313 89.4469 65.0888 89.3777C66.9558 89.2631 67.1999 89.628 66.7734 90.8585ZM66.1859 91.2341C66.2423 91.1488 66.2932 91.0796 66.3335 91.021C66.3764 91.0343 66.422 91.053 66.4676 91.0716C66.422 91.2048 66.3496 91.3912 66.253 91.6229C66.2771 91.4019 66.253 91.282 66.1833 91.2341H66.1859ZM59.252 75.866C59.1581 74.6355 59.1769 73.4023 59.4478 72.1584C59.4532 72.1584 59.4586 72.1584 59.4639 72.1584C59.6222 72.1584 59.7804 72.1558 59.9441 72.1505C60.1077 72.3183 60.2794 72.4967 60.4671 72.6858C61.0975 72.6459 61.7225 72.6272 62.3448 72.6246C61.3148 73.7059 60.274 74.7793 59.2547 75.866H59.252ZM61.5133 78.8331C61.2021 79.166 60.8963 79.5042 60.5905 79.8505C60.2794 80.2047 59.9682 80.5643 59.9763 80.5084C59.9414 80.551 59.9092 80.5909 59.877 80.6309C59.8019 80.0263 59.7134 79.4243 59.6222 78.8251C60.1479 78.7292 60.7273 78.7558 61.5106 78.8331H61.5133ZM55.3036 82.9055C55.6013 83.1185 55.5611 83.3369 55.2338 83.6246C54.9415 83.2677 54.6196 82.9241 54.4667 82.5645C54.8047 82.6871 55.0836 82.7989 55.3009 82.9055C55.1319 82.7856 54.8529 82.6658 54.4533 82.5379C54.3647 82.3168 54.3433 82.0931 54.4372 81.8561C54.574 81.6936 55.0005 81.7735 55.2419 81.8854C56.744 82.988 56.6957 83.4248 55.5745 84.0934C55.5584 84.0694 55.5423 84.0428 55.5235 84.0161C56.0841 83.5474 56.0224 83.257 55.3009 82.9055H55.3036ZM54.8851 84.0055C54.9844 83.9762 55.0675 83.9549 55.1373 83.9362C55.1614 83.9735 55.1855 84.0161 55.207 84.0614C55.0836 84.1333 54.9093 84.2292 54.6866 84.3464C54.8502 84.1919 54.9093 84.0854 54.8851 84.0055ZM54.1555 83.7578C53.9785 83.558 53.6459 83.3503 53.214 83.0999C53.2864 83.1026 53.3589 83.1052 53.4313 83.1132C53.8444 83.1558 54.2601 83.257 54.6169 83.4754C54.7644 83.566 54.8932 83.6752 55.0139 83.7977C54.9575 83.8403 54.8958 83.883 54.8288 83.9256C54.7215 83.843 54.4801 83.803 54.1582 83.7551L54.1555 83.7578ZM55.2794 84.2079C55.2875 84.2212 55.2928 84.2372 55.3009 84.2505C55.1695 84.3251 55.0273 84.3997 54.8717 84.4822C55.0246 84.3837 55.1587 84.2931 55.2794 84.2079ZM55.3519 84.3411C55.3519 84.3411 55.3572 84.3491 55.3599 84.3517C55.2499 84.4156 55.1346 84.4796 55.0139 84.5488C55.1346 84.4769 55.2446 84.4077 55.3519 84.3411ZM55.4296 81.8854C55.5745 81.8268 55.7193 81.7442 55.8561 81.6057C56.4275 81.0304 56.8996 80.567 57.3153 80.1941C57.2885 81.105 57.2671 82.0239 57.1946 82.9481C57.1946 82.9774 57.1893 83.0067 57.1866 83.0333C56.8593 83.4275 56.3712 83.7604 55.6335 84.1919C55.6308 84.1839 55.6255 84.1759 55.6201 84.1706C57.0552 83.249 57.0793 82.8922 55.427 81.8854H55.4296ZM55.8883 79.696C55.7381 79.8825 55.5906 80.0716 55.4457 80.2607C55.2016 80.7987 54.7859 81.0943 54.3433 81.2568C54.3352 81.2515 54.3272 81.2488 54.3191 81.2435C54.3272 81.2488 54.3326 81.2541 54.3406 81.2568C54.118 81.3367 53.89 81.3846 53.6754 81.4086C53.7263 81.2328 53.78 81.0597 53.8283 80.8812C54.1823 79.6374 54.4962 78.3696 54.7376 77.0565C54.7376 76.6597 54.8181 76.2868 54.9468 75.9299C55.0756 75.573 55.2553 75.2321 55.5664 75.1202C55.655 74.5582 55.8722 74.2253 56.4811 74.1933C56.3068 73.5994 56.5616 73.3437 57.1142 73.1892C57.1437 72.9042 57.4682 72.7204 57.8357 72.5793C58.2032 72.4381 58.6082 72.3369 59.0643 72.2836C58.8658 72.3076 58.4607 73.5248 58.3776 73.7219C57.7928 75.0989 57.5487 76.4759 57.4307 77.8636C56.9049 78.4628 56.3872 79.0728 55.8883 79.696ZM51.9372 70.6776C52.0284 71.0318 51.8567 71.173 51.4195 71.1836C51.4249 70.7228 51.4034 70.2541 51.5187 69.8839C51.6985 70.1928 51.8406 70.4592 51.9372 70.6776C51.8862 70.4751 51.7494 70.2088 51.5268 69.8546C51.6019 69.6308 51.7307 69.4444 51.956 69.3219C52.1652 69.2846 52.4415 69.6175 52.5541 69.8572C52.9914 71.663 52.6722 71.964 51.3766 71.7616C51.3793 71.7323 51.3846 71.7003 51.3873 71.671C52.1196 71.671 52.2618 71.4074 51.9345 70.6776H51.9372ZM55.9795 59.3686C55.9795 59.3686 55.9527 59.3872 55.9393 59.3979C55.8427 59.2807 55.7435 59.1555 55.6362 59.0197C55.7596 59.1528 55.8722 59.2674 55.9795 59.3712V59.3686ZM55.7381 58.8119C55.9205 58.9451 56.0359 58.9824 56.111 58.9477C56.1566 59.0383 56.1941 59.1182 56.2236 59.1821C56.1914 59.2114 56.1539 59.2434 56.1136 59.2727C56.0198 59.1661 55.8937 59.0117 55.7408 58.8119H55.7381ZM55.8588 59.4644C55.8588 59.4644 55.8535 59.4698 55.8481 59.4751C55.7649 59.3766 55.6818 59.278 55.5933 59.1715C55.6871 59.2753 55.773 59.3739 55.8588 59.4671V59.4644ZM56.178 65.1136C56.508 64.9245 56.8674 64.778 57.1785 64.8899C57.6104 64.5144 57.994 64.3998 58.4795 64.7647C58.7316 64.1974 59.0911 64.1654 59.6141 64.3998C59.8207 64.2001 60.1882 64.2666 60.561 64.3918C60.9339 64.517 61.3094 64.7008 61.693 64.9485C61.5267 64.8393 60.4269 65.5131 60.2364 65.6117C58.8979 66.2935 57.8196 67.1911 56.8298 68.1793C56.0385 68.3018 55.2472 68.4403 54.4613 68.6001C54.2253 68.648 53.9919 68.6986 53.7585 68.7492C53.2221 69.0076 52.7124 68.9676 52.2698 68.8078C52.2671 68.7998 52.2644 68.7918 52.2591 68.7812C52.2591 68.7892 52.2644 68.7972 52.2671 68.8052C52.0445 68.7253 51.8406 68.6161 51.6582 68.4962C51.8111 68.395 51.964 68.2938 52.1169 68.1899C53.1925 67.4628 54.2548 66.693 55.2875 65.8407C55.545 65.5371 55.8481 65.3027 56.178 65.1136ZM61.2236 63.8059C60.8185 63.5635 60.4081 63.3211 60.4644 63.3185C60.4162 63.2918 60.3706 63.2679 60.3276 63.2439C60.9151 63.0654 61.4945 62.8737 62.0739 62.6819C62.2616 63.1773 62.3341 63.7499 62.3958 64.5303C62.0122 64.2853 61.6232 64.0429 61.2289 63.8059H61.2236ZM62.4521 65.3986C62.4682 65.6303 62.4843 65.878 62.5057 66.1417C63.0127 66.5119 63.5063 66.8981 63.9864 67.2923C62.4977 67.4628 61.0063 67.6199 59.5203 67.8037C60.2445 66.7996 61.0572 65.8674 62.0712 65.0897C62.0739 65.0923 62.0792 65.095 62.0819 65.1003C62.2026 65.2015 62.326 65.3001 62.4548 65.3986H62.4521ZM52.6936 69.9797C52.8438 70.0277 53.0075 70.057 53.2033 70.0383C54.0133 69.9638 54.6759 69.9105 55.2338 69.8865C54.6249 70.5684 54.0134 71.2582 53.3589 71.9187C53.3374 71.94 53.3159 71.9587 53.2972 71.98C52.7902 72.0759 52.2027 72.0173 51.3578 71.8761C51.3578 71.8681 51.3605 71.8601 51.3632 71.8522C53.0584 72.0626 53.3106 71.8042 52.6936 69.9797ZM57.9645 71.711C57.4951 71.7829 57.0257 71.8601 57.0659 71.8229C57.0096 71.8335 56.9586 71.8442 56.9103 71.8548C57.2456 71.3434 57.5675 70.8267 57.8867 70.31C58.3507 70.571 58.7772 70.9626 59.3271 71.5192C58.8738 71.5752 58.4205 71.6417 57.9645 71.711ZM62.0202 79.2326C62.1409 79.1314 62.2616 79.0275 62.3823 78.9209C62.6157 78.9449 62.8625 78.9715 63.128 78.9982C63.584 78.5667 64.0508 78.1512 64.5256 77.7517C64.437 79.2379 64.3351 80.7214 64.2573 82.2076C63.3882 81.326 62.605 80.3699 62.0068 79.2432C62.0095 79.2406 62.0149 79.2379 62.0175 79.2326H62.0202ZM68.6966 64.264C67.4467 63.4436 66.202 62.6126 64.944 61.8056C66.1484 61.4993 67.3742 61.3049 68.6564 61.3528C68.6564 61.3582 68.6564 61.3635 68.6564 61.3662C68.6832 61.5206 68.7154 61.6751 68.7476 61.8323C68.6108 62.0214 68.4633 62.2185 68.3077 62.4369C68.4552 63.0441 68.584 63.6541 68.6966 64.264ZM65.231 89.2605C65.3034 89.122 65.3625 88.9648 65.3785 88.773C65.4429 87.9687 65.5073 87.3108 65.5824 86.7595C66.1511 87.4733 66.7305 88.1898 67.2723 88.9462C67.2884 88.9701 67.3045 88.9941 67.3206 89.0181C67.3259 89.5295 67.1677 90.0941 66.8807 90.8958C66.8726 90.8931 66.8646 90.8905 66.8565 90.8878C67.3581 89.2658 67.1462 88.9755 65.231 89.2605ZM70.2149 59.5097C70.0378 60.0078 69.724 60.4925 69.2653 61.1291C69.1312 60.6976 68.9863 60.2635 68.8388 59.8293C68.6859 59.3845 68.5276 58.9371 68.5706 58.9717C68.5491 58.9184 68.5303 58.8705 68.5116 58.8252C69.0775 59.0649 69.6462 59.2887 70.2122 59.5124L70.2149 59.5097ZM67.5539 53.3971C67.6398 55.0911 67.9402 55.2935 69.6435 54.3746C69.6221 54.5291 69.6221 54.6969 69.673 54.8833C69.8876 55.661 70.0566 56.3003 70.1746 56.8436C69.3941 56.3642 68.6028 55.8874 67.8329 55.3627C67.8088 55.3468 67.7846 55.3281 67.7632 55.3121C67.5808 54.8327 67.5352 54.2494 67.5298 53.3998C67.5379 53.3998 67.5459 53.3998 67.5566 53.3998L67.5539 53.3971ZM67.5271 53.0802C67.5271 52.9523 67.5271 52.8218 67.5271 52.6833C67.5298 52.8218 67.5352 52.9523 67.5379 53.0802C67.5325 53.0802 67.5298 53.0802 67.5244 53.0802H67.5271ZM70.1666 53.5383C70.239 53.738 69.9574 54.0656 69.7401 54.2175C68.026 54.9579 67.672 54.6995 67.6478 53.3971C67.6773 53.3971 67.7095 53.3944 67.739 53.3918C67.8678 54.1083 68.1521 54.2015 68.82 53.7567C68.4847 53.9058 68.3157 53.762 68.2272 53.3385C68.6832 53.2639 69.1473 53.1601 69.5335 53.2107C69.2573 53.4397 69.0185 53.6235 68.8173 53.7593C69.0078 53.6741 69.2519 53.493 69.563 53.216C69.7991 53.2506 70.0056 53.3438 70.1639 53.5436L70.1666 53.5383ZM67.6478 53.0802C67.6478 52.9283 67.6559 52.7685 67.6612 52.5954C67.6693 52.7765 67.6827 52.9363 67.6961 53.0828C67.68 53.0828 67.6639 53.0828 67.6478 53.0828V53.0802ZM67.8731 52.5022C67.9268 52.7206 67.9912 52.8245 68.0716 52.8431C68.0475 52.9417 68.026 53.0242 68.0046 53.0935C67.959 53.0935 67.9107 53.0935 67.8624 53.0935C67.8597 52.9523 67.8624 52.7526 67.8731 52.5022ZM69.5765 52.0414C69.335 52.377 69.0373 52.6806 68.6698 52.8777C68.5196 52.9576 68.356 53.0162 68.1897 53.0562C68.1816 52.9843 68.1736 52.9124 68.1682 52.8325C68.2943 52.7792 68.4499 52.5927 68.651 52.3397C68.9139 52.2891 69.2626 52.1053 69.6945 51.8576C69.6542 51.9189 69.6167 51.9802 69.5738 52.0388L69.5765 52.0414ZM64.1688 44.4905C65.3544 43.8034 65.7246 45.0019 65.8721 46.2058C65.8077 46.1232 65.7299 46.0353 65.6441 45.9474C65.746 46.078 65.8319 46.2085 65.8882 46.331C65.9043 46.4801 65.9177 46.6319 65.9284 46.7758C65.915 46.8051 65.8962 46.8344 65.8721 46.861C65.8962 46.8557 65.915 46.8477 65.9338 46.8397C65.9392 46.9089 65.9445 46.9782 65.9499 47.0474C65.9043 47.0048 65.8587 46.9622 65.8104 46.9169C65.7836 46.9382 65.7568 46.9569 65.7192 46.9729C65.8131 47.0608 65.8909 47.1407 65.9633 47.2179C65.9687 47.2872 65.9713 47.3511 65.9767 47.415C65.9016 47.3564 65.8238 47.2951 65.7326 47.2179C65.8506 47.3804 65.9553 47.5269 66.0545 47.668C66.0706 47.6947 66.0867 47.7213 66.1028 47.7479C66.076 47.7399 66.0465 47.7293 66.0116 47.716C66.2798 48.1261 66.473 48.4085 66.5963 48.5763C66.5829 48.523 66.5695 48.4644 66.5561 48.4085C66.5105 48.3366 66.4542 48.2513 66.3925 48.1581C66.4408 48.2114 66.489 48.2673 66.5346 48.3206C66.5427 48.3499 66.5481 48.3792 66.5561 48.4085C66.6124 48.4964 66.658 48.5709 66.6902 48.6269C66.6741 48.5683 66.658 48.5044 66.6393 48.4404C67.3179 49.2128 67.9939 49.9719 68.6913 50.6751C68.9944 51.0107 69.2975 51.3436 69.6006 51.6739C67.9751 52.0068 67.4654 51.6739 66.8726 49.6203C66.7975 49.4978 66.6661 49.2208 66.473 48.8186C66.3871 48.8027 66.0921 48.5257 65.5556 47.9157C66.9504 50.2569 66.9746 50.6937 65.4241 48.5576C66.9611 51.5567 66.9182 51.9802 65.1586 49.7029C66.1082 51.546 66.4515 52.4383 66.2342 52.7739C66.0947 52.2012 65.797 51.6552 65.4858 51.3063C64.9842 50.7923 64.4397 50.6751 63.9086 50.7923C63.4875 50.0252 63.0824 49.2847 62.7793 48.768C62.8357 48.6588 62.8786 48.547 62.9054 48.4245C62.9939 48.2966 63.0905 48.1794 63.1924 48.0675C63.5948 47.6254 64.0588 47.2925 64.4343 46.8264C64.2815 46.9889 64.091 47.0794 63.9247 46.8264C63.6296 46.3816 64.0776 46.0859 64.1983 45.8809C63.8711 45.9687 63.6296 46.3816 63.5089 46.5893C63.7825 45.6438 62.6452 46.6453 62.1356 45.9261C61.9585 45.7717 61.8029 45.5985 61.6715 45.4201C62.7981 45.9048 63.399 44.8714 64.1742 44.4905H64.1688ZM61.9344 42.1307C61.8217 42.3491 61.7869 42.8552 61.6715 43.0576C61.5857 42.7406 61.7547 42.4397 61.9344 42.1307ZM61.9719 49.7588C62.0631 49.868 62.157 49.9746 62.2455 50.0838C62.2455 50.0651 62.2402 50.0492 62.2402 50.0305C62.1624 49.9266 62.0819 49.8228 62.0041 49.7215C62.0685 49.6496 62.1356 49.5804 62.2026 49.5085C62.2107 49.6816 62.2214 49.8547 62.2402 50.0305C62.5191 50.4007 62.8035 50.7816 63.0824 51.1492C62.6291 51.4395 62.2107 51.8496 61.8673 52.2651C61.6447 52.092 61.4972 51.9082 61.4113 51.7165C61.3309 51.5194 61.3121 51.317 61.3443 51.1039C61.3013 50.5605 61.6152 50.1504 61.9719 49.7562V49.7588ZM60.5127 54.8993C60.6549 54.8167 60.7997 54.8114 60.9392 54.838C61.363 54.9206 61.7627 55.3068 62.0336 54.8407C61.1136 54.0363 60.0728 53.4397 60.0487 52.0494C60.6656 54.332 62.9 54.7848 64.7804 53.9351C64.8367 54.7928 64.268 55.2962 63.7772 55.7756C63.6377 55.9327 63.7611 56.0446 63.8898 56.1511C63.9381 56.1911 63.9891 56.231 64.04 56.271C63.9462 56.3163 63.8415 56.3589 63.7316 56.3988C63.3587 56.5373 62.9698 56.6305 62.5728 56.6998C61.2611 56.8703 59.9602 56.7637 58.6699 56.5453C58.6297 56.5373 58.5895 56.5293 58.5492 56.5213C58.8604 55.7223 59.7804 55.5119 60.5074 54.8966L60.5127 54.8993ZM59.0294 57.3763C60.325 57.5068 61.6366 57.5947 62.9805 57.6C63.3748 57.5308 63.7584 57.5441 64.1339 57.6107C64.5095 57.6746 64.8796 57.7918 65.0459 58.0768C65.62 58.0661 65.9874 58.2206 66.1242 58.8119C66.6849 58.5376 66.9826 58.7427 67.2294 59.2567C67.5164 59.2354 67.7551 59.5204 67.959 59.856C68.1628 60.1889 68.3345 60.5698 68.466 61.0039C68.4096 60.8148 67.1301 60.6284 66.9209 60.5831C65.4537 60.2502 64.0454 60.2502 62.6506 60.3753C61.9639 59.9652 61.2692 59.563 60.5637 59.1848C60.3518 59.0703 60.1399 58.9611 59.928 58.8492C59.3513 58.7054 58.9865 58.3485 58.7477 57.9436C58.7504 57.9356 58.7531 57.9276 58.7558 57.917C58.7531 57.925 58.7477 57.933 58.745 57.941C58.627 57.7385 58.5439 57.5228 58.4795 57.315C58.6619 57.3337 58.8443 57.355 59.0267 57.3736L59.0294 57.3763ZM58.6646 59.4858C59.3325 59.9439 59.8743 60.3274 60.3196 60.6657C59.4103 60.7988 58.4983 60.9373 57.5648 61.0252C57.5353 61.0279 57.5058 61.0306 57.479 61.0332C57.031 60.7829 56.6152 60.362 56.0627 59.7175C56.068 59.7121 56.0761 59.7068 56.0815 59.7015C57.2429 60.9427 57.605 60.908 58.3132 59.1182C58.3963 59.2514 58.5036 59.3766 58.6646 59.4884V59.4858ZM57.4736 58.2925C57.4092 58.6441 57.3475 58.9371 57.2805 59.1688C57.3717 58.9824 57.4414 58.6894 57.5004 58.2766C57.7043 58.1514 57.9242 58.0928 58.1737 58.1434C58.3588 58.2499 58.3534 58.6814 58.2864 58.9344C57.4521 60.5964 57.0122 60.623 56.1539 59.6429C56.1753 59.6216 56.1995 59.6003 56.2209 59.579C56.7816 60.0451 57.0605 59.9359 57.2858 59.1661C57.1276 59.4937 56.9023 59.4937 56.5616 59.2247C56.862 58.8758 57.1517 58.5029 57.479 58.2925H57.4736ZM56.7494 57.3736C56.7789 57.7838 56.7494 58.2073 56.5965 58.5935C56.5321 58.7533 56.4463 58.8998 56.3443 59.0356C56.2934 58.985 56.2397 58.9344 56.1834 58.8758C56.2451 58.756 56.2451 58.5136 56.2344 58.1913C56.4007 57.9836 56.5509 57.6213 56.7225 57.1552C56.7306 57.2272 56.7413 57.2991 56.7467 57.371L56.7494 57.3736ZM49.2924 58.8652C49.279 58.7107 49.2763 58.5589 49.2817 58.4097C49.3031 57.8158 49.4453 57.2618 49.4292 56.6652C49.4158 56.8889 49.3299 57.078 49.0376 56.9901C48.5225 56.8383 48.6754 56.3269 48.6325 56.0925C48.4367 56.3695 48.5199 56.8383 48.5628 57.0753C48.1577 56.1778 47.9351 57.6693 47.0794 57.4456C46.8434 57.4402 46.6127 57.4083 46.3981 57.355C47.573 57.0087 47.3664 55.8315 47.7125 55.0458C48.1765 53.762 49.2361 54.4438 50.1266 55.2722C50.022 55.2509 49.9066 55.2322 49.7833 55.2216C49.9469 55.2562 50.0971 55.3015 50.2205 55.3601C50.3305 55.4639 50.4378 55.5705 50.5397 55.6744C50.5477 55.7063 50.5531 55.7409 50.5504 55.7756C50.5638 55.7569 50.5746 55.7383 50.5826 55.7196C50.6309 55.7702 50.6818 55.8208 50.7274 55.8688C50.6658 55.8661 50.6041 55.8608 50.537 55.8581C50.529 55.8901 50.5209 55.9247 50.5048 55.9593C50.6309 55.9673 50.7462 55.978 50.8482 55.9913C50.8964 56.0419 50.942 56.0899 50.9876 56.1351C50.8938 56.1378 50.7918 56.1405 50.6711 56.1405C50.8508 56.1857 51.0145 56.2284 51.1674 56.2683C51.2076 56.2843 51.2478 56.2976 51.2907 56.3109C51.2666 56.3216 51.2398 56.3322 51.2049 56.3429C51.677 56.4867 52.0069 56.5799 52.2108 56.6279C52.1652 56.5959 52.1169 56.5586 52.0713 56.524C51.9882 56.4974 51.8916 56.4681 51.7843 56.4361C51.8567 56.4468 51.9265 56.4574 51.9989 56.4707C52.023 56.4894 52.0472 56.508 52.0713 56.524C52.1732 56.556 52.2537 56.5826 52.3154 56.6066C52.2644 56.5719 52.2108 56.5347 52.1545 56.4974C53.1738 56.6572 54.1823 56.8063 55.1721 56.8995C55.6201 56.9635 56.068 57.0247 56.516 57.0833C55.4887 58.3751 54.8771 58.4443 53.0987 57.2511C52.9619 57.2032 52.6829 57.078 52.2725 56.8916C52.1974 56.9342 51.7923 56.9102 50.985 56.785C53.5708 57.6879 53.8712 58.0075 51.2988 57.363C54.4157 58.6787 54.6598 59.0303 51.8353 58.4097C53.7532 59.2141 54.5954 59.6802 54.6464 60.0744C54.1689 59.7255 53.5869 59.4964 53.1255 59.4272C52.4093 59.3526 51.9184 59.6136 51.5885 60.0424C50.7677 59.7228 49.9791 59.4138 49.4104 59.2114C49.3836 59.0916 49.3433 58.977 49.2843 58.8678L49.2924 58.8652ZM49.4453 60.4739C49.5848 60.5005 49.7269 60.5245 49.8664 60.5538C49.853 60.5405 49.8396 60.5298 49.8262 60.5165C49.6974 60.4872 49.5713 60.4579 49.4453 60.4313C49.4506 60.3354 49.456 60.2395 49.4587 60.1436C49.5767 60.2715 49.7001 60.3967 49.8235 60.5192C50.2768 60.6231 50.7409 60.7323 51.1942 60.8361C51.0359 61.3475 50.9796 61.9281 50.985 62.4662C50.7006 62.4741 50.4699 62.4289 50.2795 62.3383C50.0917 62.2398 49.9442 62.0959 49.8315 61.9122C49.4453 61.5233 49.4211 61.0066 49.4426 60.4739H49.4453ZM49.456 63.4623C51.4061 64.818 53.4098 63.7393 54.303 61.8855C54.9012 62.5088 54.7912 63.2545 54.7269 63.9364C54.7215 64.1441 54.8878 64.1521 55.0568 64.1521C55.1212 64.1521 55.1855 64.1495 55.2499 64.1468C55.207 64.24 55.1534 64.3412 55.097 64.4424C54.9012 64.786 54.6625 65.1083 54.405 65.4119C53.5091 66.3788 52.4442 67.1272 51.3149 67.7851C51.28 67.8064 51.2425 67.825 51.2076 67.8437C50.9286 67.034 51.4973 66.2855 51.6555 65.348C51.7119 65.1935 51.8165 65.0976 51.9426 65.0284C52.3208 64.8206 52.876 64.8606 52.7821 64.3306C51.5563 64.3039 50.3734 64.509 49.4533 63.4596L49.456 63.4623ZM50.5933 71.6124C50.773 71.6337 50.9367 71.6524 51.0815 71.663C51.0788 71.679 51.0735 71.695 51.0708 71.711C50.9206 71.6817 50.7623 71.6497 50.5933 71.6151V71.6124ZM51.052 71.8122C51.052 71.8122 51.052 71.8202 51.052 71.8255C50.9259 71.8042 50.7972 71.7802 50.6577 71.7563C50.7972 71.7776 50.9259 71.7962 51.052 71.8122ZM50.537 71.3887C50.7623 71.3754 50.8777 71.3301 50.9098 71.2529C51.0037 71.2928 51.0815 71.3301 51.1459 71.3621C51.1405 71.4074 51.1298 71.4526 51.1191 71.5032C50.9769 71.4819 50.7811 71.442 50.5343 71.3887H50.537ZM50.3761 69.6442C50.6658 69.9398 50.9179 70.2834 51.0493 70.6776C51.103 70.84 51.1325 71.0078 51.1432 71.1783C51.0708 71.173 50.9984 71.1676 50.9179 71.1597C50.8884 71.0291 50.7301 70.8427 50.5129 70.603C50.5075 70.3366 50.3868 69.9638 50.2178 69.4977C50.2714 69.5456 50.3251 69.5935 50.3761 69.6468V69.6442ZM45.9475 75.7275C45.8482 75.6529 45.7436 75.5916 45.6309 75.5464C45.5183 75.4372 45.419 75.3226 45.3278 75.2028C44.9604 74.734 44.7082 74.22 44.3112 73.7725C44.4453 73.9509 44.5017 74.1507 44.2227 74.2706C43.7292 74.4836 43.5146 73.9936 43.3322 73.8391C43.3617 74.1747 43.7291 74.481 43.9142 74.6355C43.0237 74.204 43.8177 75.4904 43.0183 75.8633C42.8359 76.0098 42.6347 76.1323 42.4362 76.2282C43.1122 75.2108 42.1922 74.4437 41.9481 73.618C41.4733 72.3369 42.7259 72.1851 43.9464 72.2517C43.8525 72.3023 43.7506 72.3609 43.6487 72.4301C43.7962 72.3529 43.9411 72.2916 44.0725 72.257C44.2254 72.2676 44.3756 72.281 44.5204 72.2943C44.5473 72.3129 44.5741 72.3369 44.5956 72.3635C44.5956 72.3369 44.5848 72.3209 44.5795 72.2996C44.6519 72.3076 44.7243 72.3129 44.7941 72.3209C44.7458 72.3582 44.6948 72.3955 44.6412 72.4354C44.6572 72.4674 44.6707 72.4967 44.6814 72.534C44.7833 72.4594 44.8772 72.3955 44.9684 72.3396C45.0355 72.3476 45.1025 72.3555 45.1669 72.3609C45.0972 72.4221 45.0194 72.4887 44.9282 72.566C45.1106 72.4781 45.2742 72.4008 45.4298 72.3289C45.4593 72.3183 45.4888 72.3076 45.5183 72.2943C45.5049 72.3209 45.4888 72.3476 45.47 72.3795C45.926 72.1877 46.2372 72.0466 46.4249 71.956C46.3686 71.9587 46.3096 71.964 46.2506 71.9667C46.1701 71.9986 46.0762 72.0386 45.9743 72.0839C46.036 72.0466 46.0977 72.0093 46.1621 71.972C46.1916 71.972 46.2238 71.9693 46.2533 71.9667C46.3498 71.9267 46.4303 71.8948 46.4947 71.8735C46.433 71.8788 46.3686 71.8841 46.3015 71.8921C47.184 71.3647 48.0558 70.8347 48.8739 70.2754C49.2575 70.0383 49.6411 69.7986 50.022 69.5589C50.0703 71.2049 49.6491 71.6471 47.5113 71.8681C47.3745 71.9187 47.0794 72.0013 46.6449 72.1212C46.6127 72.2011 46.2881 72.4434 45.588 72.8616C48.1524 71.9054 48.5896 71.956 46.2023 73.104C49.4426 72.1212 49.8557 72.2357 47.2913 73.5647C49.2817 72.9575 50.2285 72.7737 50.5236 73.0454C49.9308 73.0827 49.338 73.2798 48.9383 73.5221C48.3401 73.9217 48.1336 74.433 48.1577 74.9737C47.3208 75.2534 46.5161 75.5197 45.9502 75.7275H45.9475ZM48.0183 77.5333C47.4684 77.4827 47.117 77.1018 46.787 76.681C46.9104 76.6117 47.0365 76.5425 47.1599 76.4732C47.1411 76.4732 47.125 76.4732 47.1063 76.4706C46.9882 76.5292 46.8729 76.5878 46.7602 76.6464C46.7012 76.5691 46.6422 76.4919 46.5832 76.4173C46.7575 76.4386 46.9319 76.4573 47.1063 76.4706C47.522 76.2602 47.9485 76.0497 48.3616 75.8393C48.5708 76.3321 48.9034 76.8115 49.2575 77.2217C49.0456 77.4108 48.8391 77.5226 48.6352 77.5732C48.426 77.6185 48.2221 77.6025 48.0156 77.5333H48.0183ZM51.6368 79.0035C51.5804 78.849 51.5992 78.7079 51.6502 78.5747C51.8058 78.1752 52.2564 77.8502 51.8433 77.504C50.8857 78.2657 50.1132 79.1793 48.7291 78.9609C51.1003 78.7558 51.9372 76.649 51.4222 74.6594C52.2832 74.7553 52.6829 75.3972 53.0745 75.9592C53.206 76.1217 53.3374 76.0231 53.4661 75.9139C53.5144 75.8713 53.5627 75.8287 53.611 75.7861C53.6378 75.8846 53.6646 75.9965 53.6834 76.111C53.7558 76.4999 53.7827 76.8967 53.7827 77.2962C53.7237 78.6093 53.391 79.8611 52.9538 81.0863C52.9404 81.1236 52.9243 81.1609 52.9109 81.2009C52.1732 80.7587 52.125 79.8212 51.6395 79.0035H51.6368ZM53.9812 90.6002C53.8578 90.6055 53.7371 90.6241 53.619 90.6641C53.4608 90.6508 53.3106 90.6268 53.163 90.5948C52.5756 90.4697 52.0525 90.2379 51.4597 90.1474C51.6797 90.198 51.8514 90.3152 51.7146 90.5869C51.4731 91.0636 50.993 90.8266 50.7543 90.8266C50.9957 91.0663 51.4758 91.0663 51.7146 91.0663C50.7543 91.306 52.1947 91.7827 51.8219 92.5791C51.7763 92.8082 51.7038 93.0292 51.6126 93.2317C51.4731 92.0225 50.2714 92.0225 49.5499 91.543C48.3562 90.8665 49.2173 89.9503 50.1937 89.2205C50.1534 89.3191 50.1159 89.4283 50.0837 89.5454C50.1454 89.391 50.2178 89.2525 50.2983 89.1433C50.4217 89.0527 50.545 88.9675 50.6658 88.8849C50.6979 88.8822 50.7328 88.8849 50.7677 88.8902C50.7516 88.8743 50.7328 88.8609 50.7167 88.8476C50.7757 88.8077 50.8321 88.7704 50.8884 88.7304C50.875 88.789 50.8589 88.8503 50.8455 88.9169C50.8777 88.9302 50.9072 88.9435 50.942 88.9675C50.9715 88.845 51.0011 88.7358 51.0332 88.6372C51.0923 88.5999 51.1459 88.5626 51.1995 88.528C51.1861 88.6212 51.17 88.7198 51.1513 88.837C51.2264 88.6692 51.2961 88.5174 51.3659 88.3735C51.3873 88.3362 51.4088 88.299 51.4302 88.2617C51.4356 88.2883 51.441 88.3176 51.4463 88.3496C51.6716 87.9127 51.8192 87.6038 51.905 87.4147C51.8648 87.4546 51.8219 87.4946 51.7789 87.5345C51.7387 87.6118 51.6931 87.6997 51.6421 87.8009C51.6663 87.7316 51.6877 87.6651 51.7119 87.5958C51.7333 87.5745 51.7548 87.5532 51.7763 87.5345C51.8245 87.4413 51.8675 87.3667 51.8996 87.3081C51.8567 87.3508 51.8111 87.3987 51.7628 87.444C52.0981 86.4745 52.4227 85.513 52.6856 84.5621C52.8277 84.136 52.9645 83.7072 53.1013 83.281C54.2038 84.5115 54.1662 85.1188 52.6748 86.6529C52.6051 86.7781 52.4308 87.0311 52.1759 87.3987C52.2028 87.4786 52.1116 87.8728 51.846 88.6399C53.1925 86.2694 53.56 86.0297 52.4737 88.4321C54.3191 85.6115 54.7108 85.4357 53.6056 88.0885C54.7376 86.352 55.3438 85.6089 55.7462 85.6275C55.317 86.035 54.9871 86.5624 54.8395 87.0045C54.641 87.6917 54.8127 88.2164 55.1829 88.6132C54.7242 89.359 54.2789 90.0781 53.9812 90.6002ZM57.2376 90.2965C57.1061 90.4643 56.9398 90.5815 56.7386 90.6614C56.2853 90.9731 55.7676 90.9065 55.2446 90.7919C55.2955 90.6588 55.3438 90.5256 55.3975 90.3951C55.384 90.4057 55.3679 90.4164 55.3545 90.4271C55.3036 90.5469 55.2526 90.6668 55.2043 90.784C55.1104 90.7626 55.0139 90.7413 54.92 90.72C55.0675 90.6268 55.2124 90.5283 55.3545 90.4271C55.5369 90.0009 55.7274 89.5668 55.9071 89.1433C56.3846 89.3883 56.9532 89.5428 57.487 89.6307C57.4468 89.9103 57.3609 90.1287 57.2376 90.2965ZM60.4618 89.4762C60.3196 89.3963 60.2418 89.2738 60.1962 89.1379C60.0567 88.7331 60.1935 88.1951 59.6517 88.1951C59.4103 89.3883 59.4103 90.5815 58.2086 91.298C59.8904 89.628 59.1689 87.4786 57.487 86.2854C58.2086 85.8086 58.9301 86.0457 59.5927 86.2268C59.7992 86.2694 59.8341 86.1069 59.8636 85.9418C59.8743 85.8779 59.8824 85.8166 59.8931 85.7527C59.9789 85.8113 60.0701 85.8805 60.1587 85.9551C60.4644 86.2081 60.7434 86.4958 61.0009 86.7994C61.8056 87.8435 62.3636 89.0154 62.8169 90.2326C62.8303 90.2699 62.8437 90.3099 62.8571 90.3471C62.0068 90.4777 61.3604 89.7931 60.4591 89.4762H60.4618ZM63.9998 89.4709C63.9998 89.4709 63.981 89.4735 63.973 89.4762C63.981 89.4762 63.9891 89.4762 63.9998 89.4735C63.8818 89.676 63.7369 89.8571 63.5867 90.0169C63.5116 89.8491 63.4392 89.6813 63.3641 89.5161C62.8303 88.3389 62.2509 87.167 61.5857 86.0057C61.3282 85.7021 61.1485 85.3665 61.017 85.0096C60.8856 84.6527 60.8024 84.2771 60.966 83.9922C60.6683 83.5047 60.62 83.1105 61.068 82.6977C60.5476 82.3541 60.5798 81.9946 60.9044 81.5231C60.7407 81.2861 60.8722 80.9372 61.0599 80.5963C61.2477 80.2527 61.4945 79.9171 61.8083 79.5868C61.6715 79.7306 62.149 80.9239 62.2133 81.1263C62.6559 82.5539 63.3614 83.7658 64.1688 84.9031C64.1527 85.6994 64.1527 86.4958 64.1742 87.2922C64.1795 87.5292 64.1903 87.7689 64.201 88.006C64.3619 88.5733 64.2359 89.066 63.9998 89.4735V89.4709ZM64.4987 91.4765C64.8421 91.2447 65.2256 91.0583 65.6414 90.997C65.8104 90.9731 65.9821 90.9731 66.1537 90.9917C66.1377 91.061 66.1189 91.1302 66.0947 91.2101C65.9579 91.2181 65.746 91.3379 65.4724 91.5084C65.2069 91.4685 64.8179 91.5217 64.3244 91.607C64.3834 91.5643 64.4397 91.5191 64.4987 91.4791V91.4765ZM69.5282 97.1416C69.3994 97.2322 69.268 97.3094 69.1365 97.3786C68.6081 97.6583 68.0555 97.8128 67.5405 98.1244C67.7417 98.0232 67.9483 98.0019 68.0207 98.2975C68.1468 98.8169 67.6237 98.9394 67.4386 99.0939C67.7766 99.1232 68.1467 98.8169 68.3292 98.6624C67.7471 99.4588 69.1607 98.9048 69.3914 99.7518C69.504 99.9569 69.5925 100.173 69.6516 100.383C68.761 99.544 67.841 100.311 66.9799 100.407C65.628 100.649 65.6951 99.3975 65.9713 98.215C66.0035 98.3162 66.0465 98.4254 66.0974 98.5372C66.0465 98.3801 66.0116 98.2283 66.0009 98.0925C66.0384 97.946 66.076 97.7995 66.1162 97.661C66.1403 97.637 66.1672 97.6184 66.1993 97.5997C66.1725 97.5997 66.1537 97.6024 66.1323 97.605C66.1511 97.5358 66.1725 97.4665 66.1913 97.4C66.2181 97.4532 66.2476 97.5118 66.2798 97.5704C66.312 97.5624 66.3442 97.5518 66.3844 97.5491C66.3281 97.4346 66.2825 97.3334 66.2396 97.2348C66.2584 97.1682 66.2771 97.107 66.2959 97.0457C66.3442 97.1256 66.3978 97.2109 66.4569 97.3147C66.4059 97.1363 66.3603 96.9765 66.3201 96.822C66.312 96.7794 66.3066 96.7368 66.2959 96.6941C66.3174 96.7101 66.3388 96.7288 66.3657 96.7527C66.2557 96.276 66.1698 95.9431 66.1108 95.746C66.1055 95.8019 66.0974 95.8605 66.0921 95.9191C66.1108 96.0016 66.135 96.1002 66.1591 96.2094C66.1323 96.1428 66.1082 96.0762 66.0813 96.007C66.084 95.9777 66.0894 95.9457 66.0921 95.9191C66.0706 95.8152 66.0518 95.7326 66.0411 95.6687C66.0357 95.73 66.0304 95.7939 66.025 95.8605C65.6548 94.9043 65.282 93.9614 64.8662 93.0639C64.6972 92.6457 64.5282 92.2302 64.3566 91.8147C65.9982 92.0544 66.363 92.5418 66.2128 94.6699C66.2396 94.8111 66.2691 95.1147 66.312 95.5595C66.3871 95.6048 66.5695 95.9644 66.8619 96.7208C66.3576 94.0467 66.4837 93.6285 67.2079 96.1615C66.7975 92.8215 66.9826 92.438 67.8517 95.176C67.5942 93.1198 67.5781 92.1663 67.9 91.9239C67.8356 92.5099 67.9241 93.1251 68.0958 93.5566C68.3908 94.2091 68.8603 94.5021 69.3994 94.5714C69.5309 95.437 69.6569 96.2707 69.7642 96.8593C69.673 96.9418 69.5925 97.0351 69.5282 97.1389V97.1416ZM71.9155 95.152C71.7679 95.6794 71.3307 95.959 70.8559 96.2067C70.8077 96.0736 70.7594 95.9404 70.7165 95.8046C70.7111 95.8205 70.7084 95.8392 70.703 95.8552C70.7406 95.9803 70.7808 96.1029 70.8184 96.2254C70.7326 96.2707 70.6467 96.3133 70.5582 96.3585C70.6118 96.1934 70.6601 96.0256 70.703 95.8552C70.5662 95.413 70.4321 94.9576 70.2953 94.5181C70.8211 94.4009 71.3549 94.1559 71.8216 93.8815C71.9718 94.1213 72.0469 94.3423 72.063 94.5527C72.0711 94.7658 72.0201 94.9629 71.9155 95.1493V95.152ZM74.0024 91.868C73.8414 91.8973 73.7046 91.8547 73.5812 91.7801C73.2111 91.559 72.967 91.0609 72.5539 91.4045C73.1413 92.4726 73.9138 93.3861 73.4578 94.7019C73.6644 92.3474 71.7223 91.1622 69.6596 91.322C69.9037 90.4963 70.6092 90.2193 71.2368 89.9316C71.4219 89.8331 71.3468 89.6866 71.261 89.5401C71.2288 89.4842 71.1939 89.4309 71.1617 89.3777C71.2637 89.367 71.379 89.3617 71.4943 89.3617C71.8913 89.3617 72.291 89.4016 72.6853 89.4709C73.9782 89.7585 75.1638 90.2992 76.2985 90.9411C76.3333 90.9624 76.3682 90.9837 76.4031 91.005C75.8371 91.6496 74.8983 91.535 74.0024 91.868ZM76.7437 90.2912C76.5774 90.2113 76.4165 90.1261 76.2475 90.0462C75.0753 89.4842 73.8736 88.9568 72.6129 88.4934C72.2186 88.4241 71.8645 88.2803 71.5319 88.0939C71.202 87.9048 70.8935 87.6704 70.8345 87.3481C70.2926 87.1643 69.9976 86.8927 70.0727 86.2907C69.4531 86.3573 69.2438 86.0643 69.1875 85.497C68.9112 85.4198 68.7852 85.0708 68.7074 84.6873C68.6296 84.3038 68.6001 83.8883 68.6269 83.4355C68.6162 83.6326 69.7508 84.2425 69.9332 84.357C71.1966 85.1667 72.519 85.6462 73.8763 86.0031C74.3806 86.6236 74.8929 87.2336 75.4267 87.8302C75.585 88.0086 75.7459 88.1844 75.9095 88.3602C76.4004 88.6931 76.623 89.1513 76.7062 89.612C76.7008 89.62 76.6955 89.6253 76.6874 89.6333C76.6928 89.628 76.6981 89.62 76.7062 89.6147C76.7464 89.8464 76.7545 90.0781 76.7411 90.2965L76.7437 90.2912ZM78.0259 89.7132C78.2056 89.4043 78.3666 89.1513 78.5087 88.9568C78.3585 89.1033 78.1922 89.3537 77.9964 89.7212C77.763 89.7692 77.535 89.7505 77.3178 89.6174C77.181 89.4549 77.3339 89.0527 77.4868 88.8343C78.8414 87.5558 79.2652 87.6784 79.7346 88.8929C79.7078 88.9036 79.6783 88.9169 79.6514 88.9302C79.2839 88.3016 78.9835 88.3096 78.5087 88.9568C78.7716 88.7011 78.9808 88.7784 79.2088 89.1486C78.8065 89.375 78.4068 89.628 78.0259 89.7132ZM78.3907 90.8239C78.5034 90.427 78.6777 90.0382 78.954 89.7292C79.0694 89.6014 79.2008 89.4922 79.343 89.399C79.3751 89.4629 79.4046 89.5295 79.4395 89.604C79.3403 89.6973 79.2571 89.9237 79.1552 90.2299C78.9272 90.3684 78.6616 90.6588 78.3398 91.037C78.3558 90.9677 78.3693 90.8958 78.3907 90.8266V90.8239ZM86.0757 96.0842C85.1959 97.1336 84.4368 96.1322 83.8842 95.0508C83.9754 95.1067 84.0773 95.1627 84.1873 95.2133C84.0451 95.1254 83.9218 95.0321 83.8252 94.9336C83.7581 94.7978 83.6938 94.6619 83.6321 94.5288C83.6347 94.4968 83.6428 94.4622 83.6562 94.4302C83.6374 94.4435 83.6213 94.4568 83.6052 94.4728C83.5757 94.4089 83.5489 94.345 83.5194 94.2837C83.5757 94.3077 83.6347 94.3317 83.6964 94.3583C83.7152 94.329 83.734 94.3024 83.7635 94.2731C83.6482 94.2225 83.5435 94.1745 83.4497 94.1266C83.4228 94.0627 83.396 94.0014 83.3692 93.9455C83.4577 93.9748 83.5543 94.0067 83.6669 94.0467C83.514 93.9428 83.3746 93.8496 83.2431 93.7564C83.2109 93.7271 83.1761 93.7004 83.1439 93.6738C83.1707 93.6738 83.2002 93.6738 83.2351 93.6738C82.8408 93.3782 82.5618 93.1784 82.3874 93.0639C82.4196 93.1118 82.4518 93.1598 82.484 93.2077C82.5538 93.261 82.6342 93.3196 82.7254 93.3861C82.661 93.3515 82.5994 93.3169 82.535 93.2823C82.5189 93.2583 82.5001 93.2317 82.484 93.2077C82.4009 93.1438 82.3338 93.0905 82.2828 93.0479C82.3177 93.0985 82.3553 93.1518 82.3955 93.205C81.4915 92.7096 80.5956 92.2249 79.6997 91.8014C79.3 91.5883 78.9004 91.3806 78.498 91.1728C79.9116 90.3072 80.5071 90.4484 81.7705 92.1743C81.8832 92.2648 82.1031 92.4779 82.4223 92.7922C82.5081 92.7789 82.881 92.9387 83.5945 93.3302C81.4781 91.6016 81.3038 91.2021 83.4979 92.6803C81.0221 90.3844 80.9148 89.9716 83.3531 91.5137C81.8268 90.1048 81.1965 89.383 81.285 88.9941C81.6149 89.4842 82.0817 89.897 82.4921 90.1181C83.1412 90.4324 83.6911 90.3525 84.1471 90.0622C84.8069 90.6401 85.4427 91.1994 85.9067 91.583C85.8906 91.7055 85.8906 91.8254 85.9067 91.9479C85.8665 92.0997 85.8155 92.2435 85.7592 92.3794C85.5339 92.9307 85.212 93.4021 85.0189 93.9694C85.1074 93.7643 85.2522 93.6152 85.499 93.7963C85.9309 94.1133 85.6117 94.5421 85.5687 94.7791C85.8477 94.5847 85.9309 94.1159 85.9738 93.8815C86.0435 94.8644 86.7677 93.5353 87.4947 94.0387C87.7146 94.1239 87.9212 94.2331 88.1036 94.3556C86.8777 94.2811 86.6712 95.4583 86.0703 96.0789L86.0757 96.0842ZM88.9888 97.5411C89.0183 97.2987 88.8761 96.8087 88.9163 96.5796C89.1068 96.8486 89.0531 97.1895 88.9888 97.5411Z" fill="currentColor"/>
<path d="M85.0074 93.9717C84.9404 94.1288 84.9055 94.3179 84.8867 94.4191C84.9135 94.262 84.9565 94.1128 85.0074 93.9717Z" fill="currentColor"/>
<path d="M89.1805 91.9289C89.1805 91.9289 89.1698 91.9103 89.1644 91.9023C88.9498 91.5613 88.6387 91.2577 88.4375 90.9221C88.4831 90.9967 88.5314 91.0739 88.5797 91.1485C88.695 91.2923 88.8023 91.4468 88.9069 91.604C88.9954 91.7158 89.0866 91.825 89.1805 91.9316V91.9289Z" fill="currentColor"/>
<path d="M66.3453 96.0996C66.3265 95.8999 66.3104 95.7214 66.2943 95.559C66.2326 95.5217 66.2487 95.7161 66.3453 96.0996Z" fill="currentColor"/>
<path d="M82.2675 93.047C82.2461 93.015 82.2246 92.9857 82.2031 92.9564C82.1227 92.9138 82.1468 92.9484 82.2675 93.047Z" fill="currentColor"/>
<path d="M82.2064 92.9539C82.2413 92.9726 82.2976 93.0072 82.3754 93.0605C82.1501 92.7276 81.9462 92.4319 81.7558 92.1736C81.5546 92.0111 81.6968 92.2375 82.2064 92.9539Z" fill="currentColor"/>
<path d="M102.251 74.2622C102.152 74.3927 102.039 74.5179 101.938 74.6671C102.131 74.5552 102.321 74.4433 102.251 74.2622Z" fill="currentColor"/>
<path d="M83.3126 93.6779C83.2778 93.6753 83.2483 93.6726 83.2188 93.6726C83.3421 93.7658 83.4763 93.867 83.6211 93.9789C83.5138 93.875 83.4119 93.7765 83.3099 93.6806L83.3126 93.6779Z" fill="currentColor"/>
<path d="M83.6809 94.3547C83.6648 94.3787 83.6514 94.4027 83.6406 94.4293C83.6674 94.4107 83.6943 94.392 83.7291 94.376C83.713 94.368 83.697 94.3627 83.6809 94.3574V94.3547Z" fill="currentColor"/>
<path d="M83.6418 93.7293C83.2877 93.5109 83.0061 93.3244 82.7969 93.1753C82.9525 93.3271 83.1268 93.4976 83.3146 93.6787C83.4058 93.6867 83.5131 93.7053 83.6418 93.7293Z" fill="currentColor"/>
<path d="M95.7148 79.634C95.7658 79.7965 95.8624 79.9643 95.9133 80.0549C95.8329 79.9164 95.7685 79.7752 95.7148 79.634Z" fill="currentColor"/>
<path d="M97.5903 75.404C97.5903 75.404 97.5689 75.3987 97.5582 75.3934C97.1746 75.2682 96.7374 75.2362 96.3672 75.1057C96.4503 75.135 96.5362 75.1616 96.622 75.1883C96.8044 75.2256 96.9868 75.2735 97.1665 75.3268C97.306 75.3561 97.4455 75.3827 97.5903 75.404Z" fill="currentColor"/>
<path d="M82.7983 93.1748C82.6534 93.0337 82.5247 92.9085 82.4093 92.7939C82.3369 92.8046 82.4764 92.9431 82.7983 93.1748Z" fill="currentColor"/>
<path d="M93.0168 80.6731C92.9792 80.6624 92.9444 80.6545 92.9095 80.6438C92.821 80.6624 92.8612 80.6731 93.0168 80.6731Z" fill="currentColor"/>
<path d="M92.9085 80.6463C92.9487 80.6383 93.0131 80.6304 93.107 80.6197C92.718 80.5078 92.372 80.412 92.0582 80.3347C91.798 80.3374 92.0528 80.4199 92.9085 80.6463Z" fill="currentColor"/>
<path d="M96.168 53.5295C96.176 53.692 96.168 53.8625 96.1921 54.0409C96.2699 53.8305 96.3423 53.6254 96.168 53.5295Z" fill="currentColor"/>
<path d="M94.2274 80.4893C94.1979 80.5079 94.1738 80.5265 94.1523 80.5452C94.3079 80.5372 94.4742 80.5292 94.6593 80.5212C94.5091 80.5106 94.3669 80.4999 94.2274 80.4893Z" fill="currentColor"/>
<path d="M94.9453 80.774C94.948 80.8033 94.9534 80.83 94.9614 80.8566C94.9695 80.8273 94.9802 80.7927 94.9936 80.7581C94.9775 80.7634 94.9614 80.7687 94.9453 80.774Z" fill="currentColor"/>
<path d="M94.5098 80.3213C94.0967 80.3799 93.7614 80.4172 93.5039 80.4358C93.7239 80.4545 93.9653 80.4731 94.2255 80.4917C94.3006 80.4411 94.3945 80.3852 94.5071 80.3213H94.5098Z" fill="currentColor"/>
<path d="M94.6328 61.8184C94.7777 61.9116 94.9601 61.9782 95.0566 62.0128C94.9037 61.9569 94.7669 61.8903 94.6328 61.8184Z" fill="currentColor"/>
<path d="M93.3324 57.3806C93.3324 57.3806 93.3109 57.3886 93.3029 57.3939C92.9274 57.5431 92.5706 57.7961 92.2031 57.9346C92.2863 57.9027 92.3694 57.8707 92.4526 57.8361C92.6162 57.7482 92.7879 57.6709 92.9596 57.5964C93.0856 57.5298 93.209 57.4605 93.3324 57.3833V57.3806Z" fill="currentColor"/>
<path d="M93.5049 80.4327C93.3037 80.4168 93.124 80.4008 92.9603 80.3901C92.912 80.4461 93.1079 80.462 93.5049 80.4327Z" fill="currentColor"/>
<path d="M93.2409 64.3352C93.206 64.3512 93.1738 64.3672 93.1389 64.3831C93.0826 64.4524 93.1202 64.4364 93.2409 64.3352Z" fill="currentColor"/>
<path d="M93.1395 64.3826C93.1636 64.3506 93.2092 64.3027 93.2736 64.2361C92.9034 64.3986 92.5762 64.5477 92.2865 64.6862C92.0906 64.854 92.3374 64.7555 93.1395 64.3826Z" fill="currentColor"/>
<path d="M78.082 41.5307C78.192 41.6505 78.2993 41.7837 78.4307 41.9062C78.353 41.6958 78.2752 41.4907 78.082 41.5307Z" fill="currentColor"/>
<path d="M94.0488 63.4247C94.0381 63.4566 94.0327 63.4859 94.0273 63.5152C94.14 63.4114 94.2634 63.2968 94.4002 63.1743C94.2795 63.2622 94.1615 63.3448 94.0488 63.4247Z" fill="currentColor"/>
<path d="M94.7812 63.1798C94.8027 63.2011 94.8242 63.2171 94.8483 63.2331C94.8349 63.2038 94.8215 63.1745 94.8108 63.1372C94.8 63.1532 94.792 63.1665 94.7839 63.1798H94.7812Z" fill="currentColor"/>
<path d="M94.1544 63.1121C93.8755 63.421 93.6421 63.6634 93.457 63.8418C93.6367 63.7167 93.8352 63.5755 94.0471 63.4237C94.0713 63.3358 94.1062 63.2346 94.1544 63.1121Z" fill="currentColor"/>
<path d="M82.2734 48.8598C82.4451 48.8385 82.6275 48.7746 82.7241 48.7373C82.5712 48.7932 82.421 48.8305 82.2734 48.8598Z" fill="currentColor"/>
<path d="M78.4054 46.291C78.4054 46.291 78.3947 46.3097 78.3893 46.3203C78.1989 46.6746 78.0889 47.0954 77.8984 47.4363C77.9414 47.3591 77.9843 47.2818 78.0245 47.2019C78.0916 47.0315 78.172 46.861 78.2579 46.6932C78.3115 46.5627 78.3598 46.4295 78.4054 46.2937V46.291Z" fill="currentColor"/>
<path d="M93.457 63.843C93.2934 63.9602 93.1458 64.0641 93.0117 64.1573C93.0117 64.2292 93.17 64.1174 93.457 63.843Z" fill="currentColor"/>
<path d="M82.8334 51.678C82.8173 51.7126 82.8013 51.7446 82.7852 51.7792C82.7852 51.8697 82.8039 51.8325 82.8334 51.678Z" fill="currentColor"/>
<path d="M82.7882 51.7769C82.7882 51.737 82.7882 51.6704 82.7963 51.5771C82.6193 51.9367 82.4637 52.2617 82.3322 52.5546C82.2893 52.8077 82.4154 52.5733 82.7882 51.7769Z" fill="currentColor"/>
<path d="M56.4609 43.8829C56.6246 43.9043 56.7909 43.9389 56.9706 43.9495C56.7775 43.8377 56.5843 43.7311 56.4609 43.8829Z" fill="currentColor"/>
<path d="M82.866 50.4611C82.8794 50.4931 82.8928 50.5197 82.9062 50.5437C82.925 50.3919 82.9464 50.2267 82.9706 50.043C82.933 50.1868 82.8982 50.3253 82.8633 50.4585L82.866 50.4611Z" fill="currentColor"/>
<path d="M83.271 49.807C83.3005 49.807 83.33 49.807 83.3568 49.807C83.3273 49.7937 83.2978 49.7777 83.2656 49.759C83.2656 49.7777 83.271 49.7937 83.271 49.8096V49.807Z" fill="currentColor"/>
<path d="M82.7453 50.1572C82.7319 50.5701 82.7104 50.9057 82.6836 51.1613C82.7399 50.9509 82.7989 50.7166 82.8633 50.4635C82.8258 50.381 82.7855 50.2797 82.7453 50.1572Z" fill="currentColor"/>
<path d="M64.4141 46.823C64.5321 46.6978 64.6287 46.5327 64.6796 46.4421C64.5991 46.5806 64.5079 46.7058 64.4141 46.823Z" fill="currentColor"/>
<path d="M59.7891 47.3242C59.7891 47.3242 59.7944 47.3455 59.7971 47.3562C59.8803 47.7477 60.0707 48.1419 60.1431 48.5254C60.127 48.4402 60.1083 48.3523 60.0868 48.2644C60.0278 48.0886 59.9795 47.9075 59.9366 47.7264C59.8937 47.5932 59.8454 47.4574 59.7917 47.3242H59.7891Z" fill="currentColor"/>
<path d="M82.6837 51.1587C82.6327 51.3531 82.5871 51.5262 82.5469 51.6834C82.5925 51.7393 82.6434 51.5529 82.6837 51.1587Z" fill="currentColor"/>
<path d="M66.6719 48.6216C66.6826 48.6589 66.6907 48.6935 66.7014 48.7281C66.7604 48.7974 66.7497 48.7548 66.6719 48.6216Z" fill="currentColor"/>
<path d="M66.7015 48.7282C66.6747 48.6989 66.6345 48.6456 66.5781 48.571C66.6747 48.9599 66.7659 49.3062 66.8544 49.6151C66.9858 49.8362 66.9322 49.5752 66.7015 48.7282Z" fill="currentColor"/>
<path d="M41.418 59.4848C41.5575 59.3969 41.7077 59.317 41.8525 59.2104C41.6326 59.2504 41.4153 59.2904 41.418 59.4848Z" fill="currentColor"/>
<path d="M65.9065 47.6718C65.9387 47.6878 65.9655 47.6985 65.9924 47.7091C65.9092 47.5813 65.818 47.4401 65.7188 47.2856C65.7858 47.4215 65.8475 47.5467 65.9065 47.6718Z" fill="currentColor"/>
<path d="M65.7915 46.9114C65.8156 46.8928 65.8371 46.8768 65.8558 46.8555C65.8263 46.8635 65.7915 46.8714 65.7539 46.8768C65.7673 46.8874 65.778 46.9007 65.7915 46.9114Z" fill="currentColor"/>
<path d="M65.616 47.5159C65.8735 47.8408 66.0746 48.1125 66.2168 48.3229C66.1229 48.1258 66.0183 47.9074 65.903 47.673C65.8225 47.6331 65.7259 47.5825 65.6133 47.5159H65.616Z" fill="currentColor"/>
<path d="M49.4179 56.6585C49.4286 56.4881 49.3938 56.299 49.375 56.1978C49.4018 56.3549 49.4126 56.5094 49.4179 56.6585Z" fill="currentColor"/>
<path d="M46.1953 59.997C46.1953 59.997 46.2114 60.0103 46.2221 60.0157C46.5413 60.2634 46.9383 60.4418 47.2441 60.6895C47.1771 60.6336 47.1046 60.5803 47.0322 60.5244C46.874 60.4285 46.7211 60.3193 46.5682 60.2074C46.4475 60.1329 46.3241 60.0609 46.198 59.9917L46.1953 59.997Z" fill="currentColor"/>
<path d="M66.2188 48.3223C66.3046 48.5034 66.3824 48.6659 66.4521 48.8123C66.5245 48.8257 66.4414 48.6499 66.2188 48.3223Z" fill="currentColor"/>
<path d="M52.3086 56.5977C52.3408 56.619 52.3703 56.6403 52.3998 56.6616C52.4883 56.6749 52.4561 56.6509 52.3086 56.5977Z" fill="currentColor"/>
<path d="M52.4028 56.6622C52.3626 56.6569 52.2982 56.6409 52.207 56.6196C52.5343 56.8567 52.8267 57.0644 53.0949 57.2429C53.339 57.3281 53.1298 57.163 52.4028 56.6622Z" fill="currentColor"/>
<path d="M40.0017 81.0355C40.0527 80.8784 40.1144 80.7212 40.1546 80.5481C40.0098 80.7186 39.8703 80.889 40.0017 81.0355Z" fill="currentColor"/>
<path d="M51.1092 56.3584C51.144 56.3504 51.1708 56.3424 51.2004 56.3318C51.0528 56.2865 50.8919 56.2359 50.7148 56.1826C50.8516 56.2439 50.9831 56.3025 51.1092 56.3584Z" fill="currentColor"/>
<path d="M50.5275 55.8501C50.5356 55.8208 50.5383 55.7942 50.5409 55.7676C50.5222 55.7942 50.5034 55.8208 50.4766 55.8475C50.4953 55.8475 50.5114 55.8475 50.5275 55.8475V55.8501Z" fill="currentColor"/>
<path d="M50.7852 56.4213C51.1929 56.5066 51.5228 56.5865 51.7696 56.6557C51.5711 56.5652 51.3485 56.464 51.1097 56.3574C51.0212 56.3787 50.9139 56.4 50.7852 56.4213Z" fill="currentColor"/>
<path d="M43.9609 73.439C44.0843 73.5428 44.1916 73.652 44.2936 73.7666C44.1916 73.6307 44.0414 73.5056 43.9609 73.439Z" fill="currentColor"/>
<path d="M43.991 78.3776C43.991 78.3776 44.0124 78.3776 44.0232 78.3776C44.4282 78.3642 44.8493 78.247 45.2409 78.2444C45.1524 78.2444 45.0639 78.2497 44.9727 78.255C44.7903 78.2817 44.6025 78.2977 44.4121 78.3083C44.2726 78.3269 44.1304 78.3509 43.9883 78.3802L43.991 78.3776Z" fill="currentColor"/>
<path d="M51.7695 56.6565C51.9519 56.7391 52.1182 56.8136 52.2658 56.8829C52.3301 56.8483 52.1531 56.7657 51.7695 56.6565Z" fill="currentColor"/>
</svg>
