<svg width="279" height="97" viewBox="0 0 279 97" fill="none" xmlns="http://www.w3.org/2000/svg">
<path d="M136.961 51.0665C135.258 50.0639 134.515 50.0639 134.964 51.4554C131.819 50.0553 129.866 50.0553 127.801 52.2679C125.018 50.0553 122.123 50.0553 117.111 51.2307C115.659 50.0553 112.09 50.0553 108.322 50.0553C105.021 50.0553 101.573 50.0553 99.5598 51.248C94.5304 50.0553 90.9528 50.0553 88.3603 56.7362C86.8567 54.5064 85.4567 53.0198 84.0395 52.1296C82.6223 51.2394 81.1964 50.9369 79.7706 50.9887C78.0423 51.2307 76.3226 51.8271 75.5276 51.6974C73.9116 51.3777 72.8659 50.7122 72.382 49.0441C70.2303 50.0553 68.6316 50.0553 68.2168 48.6552C65.3564 50.3232 63.2219 50.1849 60.5949 48.7934C59.3937 50.7899 57.7086 51.5246 55.0038 52.0345C55.3754 52.2592 54.5803 51.7061 53.2582 50.885C53.0594 50.9369 52.3249 50.7122 51.4434 50.5307C50.1472 50.4874 48.73 50.9196 47.4078 51.6629C46.656 50.0553 45.6536 50.0553 45.5153 50.4269C45.6536 50.0553 45.6536 48.5428 44.8672 49.1737C45.6536 48.5342 46.3968 48.5342 46.3276 50.0899C47.5806 49.3984 48.825 48.9663 49.888 49.1478C50.9509 49.3293 51.8496 50.1244 52.2385 51.4295C54.2779 50.1244 55.8074 49.3293 56.9568 48.3613C59.29 49.0441 61.243 49.5627 63.3516 48.6033C63.6626 49.5627 64.0688 49.0441 64.7169 47.255C65.5465 48.7416 66.6181 48.9404 68.2945 47.7044C68.4933 48.7502 69.971 48.9663 71.829 48.1798C72.0277 49.2602 72.8487 49.1392 74.1968 48.3181C74.4387 49.0009 75.1992 49.0009 76.288 48.6897C77.3769 49.2429 78.6731 49.7528 79.9261 50.8072C80.9545 52.0086 81.931 53.7372 82.7865 56.33C84.6185 53.7458 86.3382 52.0086 88.0406 50.9369C91.454 48.7848 94.8242 49.2774 99.4561 50.7554C98.5574 48.5428 100.562 48.5428 102.584 48.5687C104.503 48.5428 106.439 48.5428 108.322 48.5428C112.09 48.5428 115.659 48.5428 116.852 49.4849C122.123 48.5428 125.018 48.5428 127.861 50.3578C129.866 48.5428 131.819 48.5428 135.232 49.6664C134.515 48.5428 135.25 48.5428 137.211 49.3466C135.258 48.5428 135.258 50.0553 136.961 51.0579V51.0665Z" fill="currentColor"/>
<path d="M135.88 53.184C134.48 51.9481 135.621 51.2826 138.153 51.395C137.911 49.9689 139.052 49.3034 140.132 49.6837C139.052 49.312 137.911 48.6465 138.542 48.5169C135.63 47.3328 134.48 46.6759 136.736 47.1513C134.48 46.6673 134.48 47.9897 136.39 50.3578C134.48 50.6257 134.48 51.9481 135.88 53.184Z" fill="currentColor"/>
<path d="M202.05 51.0665C200.348 50.0639 199.605 50.0639 200.054 51.4554C196.909 50.0553 194.956 50.0553 192.89 52.2679C190.108 50.0553 187.213 50.0553 182.201 51.2307C180.749 50.0553 177.18 50.0553 173.412 50.0553C170.111 50.0553 166.663 50.0553 164.65 51.248C159.62 50.0553 156.043 50.0553 153.45 56.7362C151.947 54.5064 150.547 53.0198 149.129 52.1296C147.712 51.2394 146.286 50.9369 144.86 50.9887C143.132 51.2307 141.412 51.8271 140.617 51.6974C139.001 51.3777 137.956 50.7122 137.472 49.0441C135.32 50.0553 133.721 50.0553 133.307 48.6552C130.446 50.3232 128.312 50.1849 125.685 48.7934C124.484 50.7899 122.798 51.5246 120.094 52.0345C120.465 52.2592 119.67 51.7061 118.348 50.885C118.149 50.9369 117.415 50.7122 116.533 50.5307C115.237 50.4874 113.82 50.9196 112.498 51.6629C111.746 50.0553 110.743 50.0553 110.605 50.4269C110.743 50.0553 110.743 48.5428 109.957 49.1737C110.743 48.5342 111.487 48.5342 111.417 50.0899C112.67 49.3984 113.915 48.9663 114.978 49.1478C116.041 49.3293 116.939 50.1244 117.328 51.4295C119.368 50.1244 120.897 49.3293 122.047 48.3613C124.38 49.0441 126.333 49.5627 128.441 48.6033C128.752 49.5627 129.159 49.0441 129.807 47.255C130.636 48.7416 131.708 48.9404 133.384 47.7044C133.583 48.7502 135.061 48.9663 136.919 48.1798C137.118 49.2602 137.938 49.1392 139.287 48.3181C139.529 49.0009 140.289 49.0009 141.378 48.6897C142.467 49.2429 143.763 49.7528 145.016 50.8072C146.044 52.0086 147.021 53.7372 147.876 56.33C149.708 53.7458 151.428 52.0086 153.13 50.9369C156.544 48.7848 159.914 49.2774 164.546 50.7554C163.647 48.5428 165.652 48.5428 167.674 48.5687C169.593 48.5428 171.528 48.5428 173.412 48.5428C177.18 48.5428 180.749 48.5428 181.941 49.4849C187.213 48.5428 190.108 48.5428 192.951 50.3578C194.956 48.5428 196.909 48.5428 200.322 49.6664C199.605 48.5428 200.339 48.5428 202.301 49.3466C200.348 48.5428 200.348 50.0553 202.05 51.0579V51.0665Z" fill="currentColor"/>
<path d="M200.97 53.184C199.57 51.9481 200.711 51.2826 203.243 51.395C203.001 49.9689 204.142 49.3034 205.222 49.6837C204.142 49.312 203.001 48.6465 203.632 48.5169C200.72 47.3328 199.57 46.6759 201.826 47.1513C199.57 46.6673 199.57 47.9897 201.48 50.3578C199.57 50.6257 199.57 51.9481 200.97 53.184Z" fill="currentColor"/>
<path d="M111.183 46.3644C110.103 46.5719 109.368 46.5719 110.63 45.9928C106.672 46.5632 104.719 46.5632 109.187 44.0136C99.8623 46.5719 96.9674 46.5719 92.8972 35.0163C91.3071 42.7171 89.1899 45.2841 85.3185 45.7076C83.3828 45.915 81.0064 45.5952 78.7423 44.8779C78.7163 45.8286 78.0682 46.2002 78.0423 46.0619C75.4152 46.5632 73.4104 46.5632 74.3696 45.4224C72.0277 45.8026 70.0142 46.0533 68.1131 46.1484C64.3108 46.3385 60.9751 45.8804 56.4383 44.5148C55.7988 45.5347 54.4853 46.0533 52.8088 46.2953C51.1324 46.5373 49.0843 46.52 47.2955 46.2953C45.3079 46.52 43.5883 46.5459 43.5364 45.068C40.1575 46.5632 38.4638 46.5632 38.5502 43.2876C33.6072 46.5632 30.7123 46.5632 26.6248 43.2271C25.8644 46.5632 23.9114 46.5632 21.0078 45.2409C21.2238 46.5632 20.4806 46.5632 19.4609 45.8459C20.4893 46.5632 20.4893 45.0507 19.8325 44.5148C20.4806 45.0507 21.2238 45.0507 21.4744 43.9531C23.92 45.0507 25.8644 45.0507 27.0742 42.164C30.7123 45.0507 33.6072 45.0507 38.0922 42.2158C38.4552 45.0421 40.1575 45.0421 43.0611 43.7975C43.6142 45.0248 45.3598 44.9989 47.1832 44.8865C49.1362 44.9989 51.1497 45.0248 52.8693 44.7136C54.589 44.4025 55.9976 43.7456 56.8358 42.4406C58.9703 43.3135 60.8455 43.8926 62.6516 44.221C64.4577 44.5494 66.186 44.6358 67.9662 44.7223C69.8414 44.3766 71.7771 44.0481 74.1276 44.4284C73.6956 44.2988 74.0499 44.6704 74.8103 44.9211C75.5189 44.8951 76.6424 44.7396 77.8781 44.4371C78.2065 44.5667 79.0188 44.0827 79.0966 43.3135C80.1768 43.3826 81.352 43.6765 82.4495 43.8666C83.547 44.0568 84.5753 44.1346 85.5 44.0827C89.2159 43.858 91.4022 41.4726 93.1996 34.3249C96.9587 45.0507 99.8537 45.0507 108.245 41.7491C104.702 45.0507 106.655 45.0507 110.241 44.3161C109.351 45.0507 110.094 45.0507 110.915 44.8174C110.094 45.0507 110.094 46.5632 111.165 46.3558L111.183 46.3644Z" fill="currentColor"/>
<path d="M111.183 48.3091C109.334 48.456 110.474 47.7905 111.857 47.0991C112.756 46.4768 113.896 45.8113 113.896 45.8113C113.896 45.8113 112.756 45.1544 111.65 44.4803C110.466 43.8321 109.325 43.1752 110.18 42.8122C109.325 43.1752 109.325 44.4889 110.811 45.4396C109.325 47.1336 109.325 48.4474 111.174 48.3091H111.183Z" fill="currentColor"/>
<path d="M141.913 47.715C141.006 48.2163 140.15 48.3632 140.721 48.1471C137.359 48.5188 135.423 48.5188 136.849 47.6458C129.236 48.5188 124.958 48.5188 117.319 47.5421C116.878 48.0348 115.6 48.2768 113.906 48.3978C112.212 48.5188 110.103 48.5188 109.326 47.7582C103.812 48.5274 99.6731 48.5274 95.4733 44.0591C91.5759 48.5274 87.6181 48.5274 82.4504 47.7409C81.2146 48.1385 79.6764 48.3286 78 48.4324C76.3321 48.5274 74.526 48.5274 72.7718 48.5274C71.7175 48.5274 70.6805 48.5274 69.6608 48.4583C68.6325 48.4756 67.6214 48.4151 66.6363 48.2336C65.6425 48.4151 64.6746 48.4669 63.7154 48.4324C62.7735 48.5274 61.8402 48.5274 60.9155 48.4929C60.0168 48.5274 59.1181 48.5274 58.2539 48.5274C57.3811 48.5274 56.5429 48.5274 55.7219 48.5188C54.0887 48.5015 52.5591 48.4756 51.1678 48.4237C48.9469 48.5015 47.0112 48.5188 46.0606 47.5594C45.81 50.0399 48.2556 50.0313 51.4271 49.8066C52.6801 49.9189 54.1405 49.9794 55.7479 50.0054C56.5515 50.0226 57.3898 50.0313 58.2021 49.9016C59.0749 49.9189 59.9304 49.8066 60.7254 49.4263C61.7538 49.7979 62.7303 49.9189 63.6808 49.5127C64.6746 49.7893 65.6511 49.5386 66.6536 48.9077C67.6301 49.5386 68.6325 49.7893 69.7127 49.6942C70.7065 49.9449 71.778 49.8584 72.9273 49.6424C73.7137 49.8671 74.5779 49.9449 75.4334 49.9708C76.2889 50.0054 77.1444 49.9794 77.9568 49.9276C79.5814 49.8325 81.0245 49.6337 82.0702 49.2361C87.6181 50.0313 91.5759 50.0313 95.4301 45.416C99.6731 50.0313 103.812 50.0313 109.706 49.2621C110.103 50.0313 112.221 50.0313 113.897 50.014C115.574 49.9967 116.827 49.9621 117.198 49.893C124.967 50.0313 129.245 50.0313 136.987 49.9103C135.432 50.0313 137.376 50.0313 140.798 49.9794C140.124 50.014 140.937 49.9881 141.93 49.9189C144.756 49.9881 147.764 50.014 148.887 49.7288C149.889 49.4695 149.405 48.9769 146.925 48.0261C145.318 48.2249 143.348 48.078 141.93 47.715H141.913Z" fill="currentColor"/>
<path d="M146.909 48.0262C147.056 48.0089 147.212 47.9916 147.359 47.9657C147.428 47.957 147.488 47.9397 147.549 47.9224C147.004 47.836 146.451 47.7409 145.881 47.6459C146.261 47.7755 146.598 47.9052 146.918 48.0262H146.909Z" fill="currentColor"/>
<path d="M215.679 49.2967C217.321 49.6424 218.15 49.7979 218.142 49.7893C218.133 49.7893 217.537 49.6597 216.396 49.4263C216.137 49.3831 215.86 49.3312 215.566 49.2707C215.601 49.2794 215.636 49.288 215.67 49.2967H215.679Z" fill="currentColor"/>
<path d="M237.264 47.9657C237.264 47.9657 237.29 47.9484 237.308 47.9484C236.979 48.0867 236.962 48.0953 237.264 47.9657Z" fill="currentColor"/>
<path d="M218.927 48.0175C219.023 48.0262 219.1 48.0262 219.152 48.0175C218.893 47.9224 218.625 47.836 218.34 47.7323C218.547 47.836 218.737 47.9224 218.927 48.0175Z" fill="currentColor"/>
<path d="M217.631 48.199C217.259 48.32 215.756 48.1731 213.353 47.7841C214.563 48.5101 213.587 48.5188 212.299 48.078C212.809 48.5188 212.368 48.5188 211.737 48.1126C210.692 48.5188 209.456 48.5188 209.197 47.6977C206.371 48.5188 204.556 48.5188 203.848 46.6346C200.365 48.5188 197.989 48.5188 194.472 46.3321C192.761 48.5188 189.909 48.5188 185.726 47.8965C183.791 48.5188 180.524 48.5188 177.093 48.5188C173.879 48.5188 170.517 48.5188 173.447 47.3606C163.561 48.5188 159.966 48.5188 150.322 38.4066C151.825 45.0098 150.728 47.3001 147.539 47.9224C160.277 50.0313 163.984 50.0227 173.689 49.8671C170.526 50.0313 173.887 50.0313 177.102 50.0313C180.533 50.0313 183.799 50.0313 185.502 49.4609C189.917 50.0313 192.778 50.0313 194.299 48.0434C197.997 50.0313 200.374 50.0313 204.124 48.3373C204.565 50.0313 206.38 50.0313 209.465 49.288C209.465 50.0313 210.7 50.0313 211.858 49.651C212.368 50.0313 212.809 50.0313 212.368 49.651C213.587 50.0227 214.572 50.014 213.319 49.5041C214.969 49.8066 216.438 49.893 216.888 49.8239C217.259 49.7634 216.922 49.5992 215.678 49.2966C215.41 49.2448 215.125 49.1843 214.822 49.1151C215.082 49.167 215.332 49.2189 215.574 49.2707C215.341 49.2102 215.082 49.1497 214.788 49.0892C215.41 49.2189 215.946 49.3312 216.395 49.4349C217.769 49.6856 218.711 49.7807 218.988 49.7374C219.359 49.6683 218.512 49.3226 215.937 48.6571C221.744 49.893 222.764 49.9189 218.927 48.0175C218.366 47.9656 217.069 47.5854 215.289 46.9026C217.233 47.6891 218.011 48.078 217.64 48.199H217.631Z" fill="currentColor"/>
<path d="M45.8027 47.231C45.8805 47.352 45.9583 47.4557 46.062 47.5508C46.0793 47.3866 46.1052 47.2137 46.1484 47.0236C46.0274 47.0927 45.9237 47.1618 45.8027 47.231Z" fill="currentColor"/>
<path d="M235.372 47.5681C232.503 49.1757 232.503 49.1757 235.372 47.5681Z" fill="currentColor"/>
<path d="M37.082 46.5136C37.0907 46.6346 37.108 46.7556 37.1252 46.8507C37.1339 46.2025 37.1857 45.3814 37.2721 44.3702C37.1944 45.2691 37.1339 45.9605 37.082 46.5136Z" fill="currentColor"/>
<path d="M37.1346 43.6701C36.8494 47.7496 36.8062 49.4522 37.0827 46.5136C37.0222 45.9086 37.0481 44.9666 37.1346 43.6701Z" fill="currentColor"/>
<path d="M40.0391 46.7124C40.1773 49.8584 41.8884 49.5992 45.803 47.2224C45.5783 46.868 45.4401 46.4272 45.4314 45.8481C42.4155 47.7755 40.7304 48.2941 40.0391 46.7038V46.7124Z" fill="currentColor"/>
<path d="M40.1079 44.7505C39.9783 45.0011 39.8573 45.2345 39.7363 45.4592C39.7968 45.9778 39.9005 46.384 40.0474 46.7124C40.0215 46.1593 40.0474 45.5197 40.1079 44.7505Z" fill="currentColor"/>
<path d="M37.1269 46.8507C37.0836 49.6769 37.7923 49.1497 39.7366 45.4592C39.6848 45.0271 39.6675 44.5258 39.6675 43.9554C38.1293 47.0409 37.3602 48.0262 37.1269 46.8507Z" fill="currentColor"/>
<path d="M226.558 47.0063C226.593 46.9371 226.618 46.8507 226.636 46.747C226.601 46.6606 226.567 46.5741 226.523 46.4877C226.541 46.6692 226.549 46.8421 226.549 47.0063H226.558Z" fill="currentColor"/>
<path d="M230.662 49.0979C230.662 49.0979 231.284 48.4928 232.598 47.231C231.362 48.4323 230.723 49.046 230.662 49.0979Z" fill="currentColor"/>
<path d="M235.373 47.5681C235.442 47.5249 235.503 47.4903 235.58 47.4471C235.511 47.4903 235.451 47.5249 235.373 47.5594V47.5681Z" fill="currentColor"/>
<path d="M231.502 48.2768C231.502 48.2768 231.476 48.3027 231.459 48.32C230.897 48.8732 230.629 49.1324 230.672 49.0979C230.681 49.0892 230.966 48.8127 231.511 48.2768H231.502Z" fill="currentColor"/>
<path d="M235.373 47.5681C235.442 47.5335 235.503 47.4989 235.572 47.4557C235.503 47.4989 235.442 47.5249 235.373 47.5681Z" fill="currentColor"/>
<path d="M232.6 47.231C232.6 47.231 232.669 47.2051 232.703 47.1964C232.842 47.0408 232.997 46.868 233.161 46.6951C232.963 46.8853 232.781 47.0668 232.6 47.231Z" fill="currentColor"/>
<path d="M232.591 47.2397C232.591 47.2397 232.573 47.2397 232.565 47.2483C232.133 47.6632 231.787 48.0089 231.502 48.2854C231.796 48.0089 232.159 47.6632 232.591 47.2397Z" fill="currentColor"/>
<path d="M230.569 43.3417C228.996 48.3805 227.855 48.3546 227.726 43.1602C227.855 48.3546 227.855 48.4497 227.726 43.3244C227.726 48.4583 227.596 48.4583 226.663 43.3676C226.766 45.0357 226.775 46.1507 226.637 46.747C227.95 49.9535 228.339 49.8671 229.8 46.3927C229.117 49.677 229.402 49.9103 232.193 47.3347C230.828 47.5681 230.499 46.3581 230.569 43.3417Z" fill="currentColor"/>
<path d="M223.3 43.8516C225.599 48.3632 224.83 48.3719 219.023 44.9752C222.834 48.4064 221.987 48.4324 216.404 46.263C218.755 47.3779 219.515 47.9397 219.152 48.0089C223.387 49.4954 224.683 49.7288 223.248 48.3459C222.808 48.0348 222.272 47.6459 221.615 47.1791C222.03 47.4471 222.41 47.6891 222.765 47.9051C222.453 47.6372 222.082 47.3261 221.641 46.9717C222.289 47.4644 222.825 47.8706 223.257 48.199C225.996 49.8152 226.671 49.53 226.558 46.9976C226.195 47.8014 225.253 46.7124 223.3 43.843V43.8516Z" fill="currentColor"/>
<path d="M223.248 48.3459C225.011 49.5992 225.011 49.5473 223.248 48.199C223.093 48.1039 222.929 48.0089 222.756 47.9052C222.946 48.0694 223.102 48.2163 223.24 48.3459H223.248Z" fill="currentColor"/>
<path d="M232.278 47.3174C230.368 49.2967 230.083 49.6251 231.449 48.32C231.742 48.0348 232.105 47.6804 232.555 47.2397C232.46 47.2656 232.365 47.2915 232.278 47.3088V47.3174Z" fill="currentColor"/>
<path d="M233.125 46.6951C232.926 46.8939 232.736 47.0754 232.555 47.2483C232.736 47.0754 232.918 46.8939 233.125 46.6951Z" fill="currentColor"/>
<path d="M232.193 47.3347C232.193 47.3347 232.254 47.3347 232.28 47.3174C232.47 47.1186 232.677 46.9026 232.902 46.6692C232.643 46.9112 232.409 47.1273 232.193 47.3347Z" fill="currentColor"/>
<path d="M243.349 45.9519C239.797 44.8542 238.682 44.3789 232.21 41.0341C233.653 43.1516 234.811 44.4221 236.003 45.3555C235.917 45.416 235.813 45.4851 235.727 45.537C235.165 45.2604 234.5 44.9147 233.644 44.4739C234.102 45.1481 234.508 45.658 234.897 46.0642C233.999 46.6174 233.29 46.9976 232.711 47.1964C230.3 49.893 230.905 49.7634 235.537 47.2137C231.06 49.8757 231.009 50.0227 235.381 47.5681C235.45 47.4211 235.623 47.2051 235.891 46.9285C236.219 47.1532 236.556 47.3434 236.928 47.5249C235.736 47.9138 235.217 47.9484 235.381 47.5681C231.052 50.014 232.253 49.9794 237.386 47.9052C237.36 47.9138 237.343 47.9311 237.317 47.9397C237.395 47.9052 237.481 47.8706 237.585 47.8274C237.455 47.8792 237.343 47.9224 237.265 47.957C233.783 49.7029 233.834 49.9535 237.49 49.1065C237.438 49.1584 237.395 49.2102 237.343 49.2534C235.761 49.7202 235.701 49.7807 237.153 49.4522C237.144 49.4609 237.127 49.4782 237.118 49.4868C236.415 49.6597 236.415 49.6597 237.118 49.4868C237.118 49.4868 237.058 49.5473 237.032 49.5819C236.617 49.7029 236.582 49.7374 236.945 49.6769C235.848 50.8351 235.182 51.6562 234.05 52.9094C234.906 52.1834 236.997 51.3018 238.95 50.5931C236.591 53.0563 235.286 54.6725 232.987 57.2395C234.863 55.6578 239.806 53.67 243.928 52.2525C244.896 50.7314 264.901 49.2621 264.901 49.2621C264.901 49.2621 244.896 47.7928 243.349 45.9432V45.9519ZM236.021 45.6839C236.021 45.6839 236.003 45.6753 235.995 45.6666C236.064 45.6148 236.133 45.5629 236.211 45.5024C236.211 45.5024 236.228 45.5111 236.237 45.5197C236.168 45.5716 236.09 45.6234 236.029 45.6753L236.021 45.6839ZM236.245 45.537C236.323 45.5975 236.41 45.658 236.487 45.7185C236.427 45.7617 236.375 45.7963 236.323 45.8309C236.228 45.7876 236.133 45.7444 236.038 45.6926C236.107 45.6407 236.176 45.5889 236.245 45.537ZM236.505 45.7271C236.6 45.7963 236.695 45.8568 236.79 45.9173C236.747 45.9432 236.712 45.9691 236.669 45.9951C236.565 45.9432 236.453 45.8914 236.34 45.8395C236.392 45.8049 236.444 45.7617 236.505 45.7271ZM236.902 45.9951C237.11 46.1247 237.317 46.2544 237.533 46.384C237.308 46.2889 237.075 46.1939 236.816 46.0729C236.842 46.0469 236.868 46.0296 236.893 46.0037L236.902 45.9951ZM237.956 48.0089C237.524 48.1558 237.498 48.1472 237.896 47.9829C237.913 47.9916 237.939 48.0002 237.956 48.0089ZM237.982 48.0262C237.735 48.1183 237.735 48.1183 237.982 48.0262ZM238.112 48.0867C238.112 48.0867 238.198 48.1212 238.242 48.1472C238.043 48.1817 238 48.1644 238.112 48.0867ZM236.047 45.4074C236.098 45.4506 236.15 45.4851 236.202 45.5197C236.133 45.5716 236.055 45.6321 235.986 45.6839C235.926 45.658 235.865 45.6234 235.805 45.5975C235.882 45.537 235.96 45.4679 236.038 45.4074H236.047ZM235.027 46.2198C235.027 46.2198 235.096 46.2889 235.139 46.3235C234.915 46.4964 234.707 46.6519 234.526 46.7902C234.707 46.6519 234.906 46.4964 235.131 46.3321C235.131 46.3321 235.131 46.3321 235.139 46.3408C234.915 46.505 234.707 46.6606 234.517 46.7902C233.973 47.1964 233.627 47.4644 233.506 47.5594C233.61 47.473 233.955 47.2137 234.508 46.7902C232.815 48.0262 232.987 47.8446 235.01 46.2198H235.027ZM235.174 46.3667C235.226 46.4186 235.277 46.4704 235.338 46.5136C233.143 48.0089 233.1 47.9743 235.174 46.3667ZM235.364 46.5396C235.433 46.6001 235.494 46.6519 235.563 46.7038C233.515 48.0089 233.394 47.9657 235.364 46.5396ZM237.196 47.6718C237.196 47.6718 237.239 47.6977 237.265 47.7064C236.314 48.1039 236.289 48.0953 237.196 47.6718ZM237.291 47.715C237.291 47.715 237.291 47.715 237.3 47.715C236.689 47.9743 236.686 47.9743 237.291 47.715ZM237.403 47.7669C237.447 47.7842 237.49 47.8101 237.542 47.8274C236.755 48.1212 236.703 48.1126 237.403 47.7669ZM237.654 47.8792C237.654 47.8792 237.723 47.9138 237.758 47.9224C237.092 48.1558 237.058 48.1385 237.654 47.8792Z" fill="currentColor"/>
<path d="M83.6686 54.1615C83.0464 54.4727 82.4674 54.5591 82.8563 54.4208C80.5922 54.5937 79.2873 54.5505 80.2638 53.9973C75.1307 54.4122 72.253 54.3085 67.1458 53.4787C66.8347 53.7985 65.9706 53.9282 64.8299 53.9714C63.6892 54.0146 62.272 53.9714 61.7621 53.4355C58.0376 53.8245 55.255 53.7294 52.5415 50.6266C49.8194 53.5392 47.1665 53.4442 43.7098 52.796C42.8716 53.0293 41.8346 53.133 40.7026 53.159C39.5792 53.1849 38.3693 53.1417 37.1854 53.1071C36.4768 53.0812 35.7769 53.0639 35.1028 52.9861C34.4115 52.9688 33.7374 52.9083 33.0807 52.77C32.4066 52.8651 31.7585 52.8824 31.1104 52.8392C30.4709 52.8824 29.8487 52.8565 29.2265 52.8132C28.6216 52.8132 28.0167 52.796 27.4377 52.7787C26.8501 52.7614 26.2884 52.7355 25.7353 52.7095C24.6379 52.6663 23.6095 52.6058 22.6762 52.5367C21.1812 52.5367 19.885 52.5021 19.2628 51.8452C19.0381 53.5047 20.68 53.5565 22.8145 53.4787C23.6527 53.5825 24.6379 53.6602 25.7094 53.7121C26.2452 53.738 26.8069 53.764 27.36 53.6948C27.9476 53.7294 28.5266 53.6689 29.071 53.4355C29.7537 53.7121 30.4018 53.8158 31.0499 53.5652C31.7153 53.7726 32.3721 53.6257 33.0634 53.2281C33.7029 53.6775 34.3769 53.8677 35.1028 53.8245C35.7682 54.0146 36.4855 53.9887 37.2632 53.859C37.7904 54.0232 38.3607 54.101 38.9397 54.1356C39.51 54.1788 40.089 54.1788 40.6334 54.1702C41.7223 54.1442 42.6988 54.0405 43.416 53.7985C47.1233 54.4554 49.7849 54.5505 52.4811 51.5341C55.2291 54.732 58.0117 54.827 61.9868 54.4467C62.2374 54.974 63.6546 55.0258 64.7867 55.0517C65.9187 55.0777 66.757 55.0863 67.0076 55.0517C72.2271 55.3197 75.0961 55.4234 80.307 55.5185C79.2614 55.5617 80.5662 55.6135 82.8649 55.6567C82.4155 55.6567 82.96 55.6654 83.6254 55.6395C85.5265 55.7518 87.54 55.8382 88.3091 55.6654C88.9918 55.5185 88.672 55.1727 87.0301 54.4813C85.9499 54.5764 84.6278 54.4381 83.6772 54.1615H83.6686Z" fill="currentColor"/>
<path d="M87.0225 54.49C87.1262 54.4813 87.2299 54.4727 87.325 54.464C87.3682 54.464 87.4114 54.4467 87.4546 54.4381C87.0917 54.369 86.7201 54.2912 86.3398 54.2134C86.5904 54.3085 86.8151 54.4035 87.0225 54.49Z" fill="currentColor"/>
<path d="M133.194 56.9273C134.292 57.1952 134.845 57.3248 134.836 57.3162C134.836 57.3162 134.43 57.2125 133.678 57.031C133.505 56.9964 133.324 56.9532 133.125 56.91C133.151 56.91 133.168 56.9273 133.194 56.9273Z" fill="currentColor"/>
<path d="M147.729 56.5297C147.729 56.5297 147.747 56.5297 147.755 56.5124C147.531 56.5988 147.522 56.5988 147.729 56.5297Z" fill="currentColor"/>
<path d="M135.406 56.1407C135.466 56.1407 135.527 56.1494 135.561 56.1407C135.388 56.0716 135.216 56.0025 135.025 55.9333C135.164 56.0025 135.285 56.0716 135.414 56.1407H135.406Z" fill="currentColor"/>
<path d="M134.533 56.2272C134.282 56.2963 133.271 56.1667 131.672 55.8469C132.467 56.3655 131.811 56.3482 130.964 56.0198C131.292 56.3309 130.998 56.3223 130.592 56.0284C129.875 56.279 129.054 56.2531 128.898 55.6913C126.98 56.1753 125.762 56.1321 125.33 54.853C122.944 56.037 121.354 55.9852 119.038 54.4295C117.837 55.8642 115.919 55.795 113.128 55.2851C111.814 55.6568 109.619 55.5876 107.312 55.5098C105.151 55.432 102.896 55.3629 104.892 54.6542C98.2208 55.1987 95.8098 55.1209 89.562 48.1029C90.4175 52.5712 89.6311 54.0837 87.4707 54.4295C95.974 56.1408 98.4714 56.2185 104.996 56.3395C102.87 56.3741 105.125 56.4519 107.286 56.5297C109.593 56.6075 111.779 56.6853 112.937 56.3395C115.893 56.8235 117.811 56.8927 118.883 55.5876C121.328 57.005 122.919 57.0569 125.476 56.0111C125.736 57.1606 126.954 57.2038 129.045 56.7717C129.028 57.273 129.858 57.2989 130.644 57.0742C130.981 57.3421 131.275 57.3508 130.99 57.0828C131.802 57.3594 132.459 57.3767 131.629 57.005C132.727 57.247 133.712 57.3335 134.014 57.2989C134.265 57.273 134.04 57.152 133.211 56.9186C133.029 56.8754 132.848 56.8322 132.64 56.7803C132.813 56.8235 132.977 56.8668 133.142 56.9013C132.986 56.8581 132.813 56.8149 132.623 56.7544C133.038 56.8581 133.392 56.9445 133.695 57.0223C134.611 57.2211 135.241 57.3075 135.423 57.2816C135.674 57.247 135.112 56.9878 133.392 56.4865C137.264 57.4458 137.955 57.489 135.414 56.1321C135.034 56.0803 134.178 55.795 132.995 55.3024C134.282 55.8728 134.792 56.158 134.541 56.2272H134.533Z" fill="currentColor"/>
<path d="M19.1074 51.6292C19.1506 51.707 19.2111 51.7848 19.2716 51.8539C19.2889 51.7415 19.3062 51.6292 19.3407 51.4995C19.263 51.5428 19.1852 51.586 19.1074 51.6292Z" fill="currentColor"/>
<path d="M146.468 56.2185C144.503 57.2326 144.503 57.2326 146.468 56.2185Z" fill="currentColor"/>
<path d="M13.2656 50.955C13.2656 51.0414 13.2743 51.1192 13.2915 51.1797C13.3175 50.7389 13.3693 50.1944 13.4471 49.5117C13.378 50.1167 13.3175 50.5834 13.2743 50.9464L13.2656 50.955Z" fill="currentColor"/>
<path d="M13.3693 49.0363C13.0841 51.7675 13.015 52.9083 13.2656 50.9464C13.2396 50.5402 13.2742 49.9092 13.3693 49.0363Z" fill="currentColor"/>
<path d="M15.2539 51.1538C15.2798 53.2713 16.4292 53.133 19.1167 51.6292C18.9698 51.3872 18.892 51.0847 18.9007 50.6957C16.8353 51.923 15.686 52.2342 15.2625 51.1452L15.2539 51.1538Z" fill="currentColor"/>
<path d="M15.3402 49.8315C15.2451 49.9957 15.1587 50.1512 15.0723 50.2982C15.0982 50.6439 15.1587 50.9205 15.2537 51.1452C15.2537 50.7735 15.2797 50.3414 15.3402 49.8228V49.8315Z" fill="currentColor"/>
<path d="M13.2908 51.1797C13.1958 53.0812 13.6797 52.7441 15.071 50.3068C15.0451 50.013 15.0451 49.6845 15.0624 49.2956C13.9562 51.3353 13.4204 51.9835 13.2908 51.1797Z" fill="currentColor"/>
<path d="M140.556 55.6308C140.581 55.5876 140.599 55.5271 140.616 55.458C140.59 55.3975 140.573 55.3456 140.547 55.2765C140.547 55.3975 140.547 55.5185 140.547 55.6222L140.556 55.6308Z" fill="currentColor"/>
<path d="M143.27 57.1347C143.27 57.1347 143.702 56.7458 144.609 55.9247C143.753 56.7025 143.304 57.1001 143.27 57.1347Z" fill="currentColor"/>
<path d="M144.981 55.5876C144.851 55.7086 144.722 55.821 144.609 55.9247C144.73 55.821 144.851 55.7086 144.981 55.5876Z" fill="currentColor"/>
<path d="M146.467 56.2185C146.519 56.1926 146.553 56.1667 146.605 56.1407C146.553 56.1667 146.51 56.184 146.467 56.2099V56.2185Z" fill="currentColor"/>
<path d="M143.849 56.6075C143.849 56.6075 143.831 56.6248 143.814 56.6334C143.425 56.9878 143.235 57.1606 143.27 57.1347C143.27 57.1347 143.468 56.9446 143.849 56.6075Z" fill="currentColor"/>
<path d="M146.477 56.2186C146.52 56.1926 146.563 56.1753 146.615 56.1494C146.563 56.1753 146.528 56.1926 146.477 56.2186Z" fill="currentColor"/>
<path d="M144.609 55.9247C144.609 55.9247 144.653 55.9074 144.679 55.9074C144.782 55.8037 144.886 55.6913 144.998 55.579C144.86 55.7 144.73 55.821 144.609 55.9247Z" fill="currentColor"/>
<path d="M144.609 55.9247H144.592C144.298 56.1926 144.056 56.4173 143.857 56.5988C144.065 56.4173 144.307 56.1926 144.618 55.9247H144.609Z" fill="currentColor"/>
<path d="M143.338 53.2627C142.163 56.6075 141.403 56.5729 141.437 53.0812C141.403 56.5729 141.403 56.642 141.437 53.1849C141.325 56.6334 141.23 56.6334 140.72 53.1849C140.755 54.3085 140.737 55.0518 140.625 55.4493C141.437 57.636 141.697 57.5841 142.759 55.2851C142.224 57.4718 142.414 57.636 144.35 55.9765C143.434 56.0975 143.235 55.2765 143.347 53.254L143.338 53.2627Z" fill="currentColor"/>
<path d="M138.438 53.4355C139.882 56.5211 139.363 56.5124 135.535 54.0924C138.015 56.4865 137.445 56.4865 133.746 54.8962C135.302 55.7 135.794 56.0889 135.552 56.1321C138.361 57.2298 139.225 57.4113 138.3 56.4519C138.015 56.2358 137.661 55.9593 137.229 55.6308C137.505 55.821 137.747 55.9938 137.98 56.1408C137.782 55.9506 137.531 55.7346 137.246 55.4926C137.669 55.8383 138.015 56.1235 138.3 56.3568C140.098 57.5063 140.564 57.3335 140.547 55.6308C140.288 56.1581 139.674 55.4148 138.43 53.4355H138.438Z" fill="currentColor"/>
<path d="M138.31 56.4606C139.468 57.3421 139.468 57.3076 138.31 56.3655C138.206 56.2963 138.103 56.2272 137.99 56.1581C138.111 56.2704 138.215 56.3741 138.31 56.4692V56.4606Z" fill="currentColor"/>
<path d="M144.402 55.9765C143.079 57.2643 142.872 57.4718 143.823 56.6334C144.021 56.4519 144.281 56.2185 144.592 55.9333C144.523 55.9506 144.462 55.9679 144.402 55.9765Z" fill="currentColor"/>
<path d="M144.982 55.579C144.843 55.7086 144.714 55.8296 144.584 55.942C144.705 55.8296 144.835 55.7086 144.982 55.579Z" fill="currentColor"/>
<path d="M144.342 55.9852C144.342 55.9852 144.376 55.9852 144.402 55.9852C144.541 55.8555 144.679 55.7172 144.834 55.5617C144.653 55.7172 144.497 55.8555 144.342 55.9938V55.9852Z" fill="currentColor"/>
<path d="M151.86 55.3111C149.501 54.4986 148.757 54.1443 144.488 51.7502C145.413 53.2022 146.156 54.0924 146.934 54.7406C146.874 54.7752 146.804 54.8184 146.744 54.853C146.372 54.6542 145.932 54.4035 145.37 54.0924C145.664 54.5591 145.923 54.9048 146.174 55.1901C145.56 55.5444 145.067 55.7778 144.679 55.8988C143.002 57.6533 143.408 57.5841 146.58 55.9766C143.512 57.6619 143.469 57.757 146.467 56.2099C146.519 56.1148 146.64 55.9679 146.822 55.7951C147.038 55.9506 147.262 56.0889 147.504 56.2186C146.692 56.4519 146.346 56.4692 146.459 56.2186C143.495 57.7656 144.307 57.7656 147.798 56.4865C147.781 56.4865 147.764 56.5038 147.746 56.5124C147.798 56.4951 147.859 56.4692 147.928 56.4433C147.841 56.4778 147.764 56.5038 147.712 56.5211C145.327 57.6187 145.361 57.7829 147.833 57.2989C147.798 57.3335 147.764 57.3681 147.729 57.394C146.657 57.6706 146.614 57.7051 147.599 57.5236C147.599 57.5236 147.582 57.5409 147.573 57.5496C147.095 57.6475 147.095 57.6475 147.573 57.5496C147.573 57.5496 147.53 57.5928 147.513 57.6101C147.228 57.6792 147.211 57.7051 147.453 57.6706C146.692 58.4225 146.225 58.9583 145.439 59.7794C146.035 59.3127 147.453 58.7682 148.783 58.3361C147.141 59.935 146.234 60.9981 144.627 62.6661C145.923 61.6463 149.285 60.4276 152.093 59.5634C152.776 58.5608 166.257 58.0336 166.257 58.0336C166.257 58.0336 152.845 56.5816 151.851 55.3111H151.86ZM146.943 54.9653C146.943 54.9653 146.934 54.9653 146.925 54.9567C146.969 54.9221 147.02 54.8875 147.072 54.853C147.072 54.853 147.081 54.853 147.09 54.8616C147.038 54.8962 146.986 54.9308 146.943 54.9653ZM147.098 54.8703C147.15 54.9135 147.202 54.9567 147.262 54.9999C147.219 55.0258 147.185 55.0518 147.15 55.0691C147.09 55.0345 147.029 55.0085 146.96 54.974C147.003 54.9394 147.055 54.9048 147.098 54.8703ZM147.262 54.9999C147.323 55.0431 147.383 55.0863 147.453 55.1382C147.427 55.1555 147.401 55.1728 147.366 55.1901C147.297 55.1555 147.228 55.1209 147.15 55.0777C147.185 55.0518 147.219 55.0258 147.262 55.0086V54.9999ZM147.522 55.1901C147.66 55.2851 147.798 55.3716 147.936 55.4666C147.79 55.3975 147.634 55.3283 147.461 55.2419C147.478 55.2246 147.496 55.2073 147.522 55.1987V55.1901ZM148.187 56.5643C147.893 56.6507 147.876 56.6507 148.144 56.547C148.161 56.547 148.17 56.5643 148.187 56.5643ZM148.204 56.5729C148.037 56.6305 148.037 56.6305 148.204 56.5729ZM148.291 56.6161C148.291 56.6161 148.343 56.6421 148.377 56.6593C148.248 56.6766 148.213 56.6593 148.291 56.6161ZM146.969 54.7665C146.969 54.7665 147.038 54.8184 147.072 54.8443C147.02 54.8789 146.969 54.9135 146.925 54.9481C146.891 54.9308 146.848 54.9048 146.804 54.8876C146.856 54.853 146.917 54.8098 146.969 54.7665ZM146.269 55.2938C146.269 55.2938 146.312 55.3456 146.338 55.3716C146.182 55.4839 146.044 55.579 145.914 55.6654C146.035 55.579 146.182 55.4839 146.338 55.3716C146.182 55.4753 146.035 55.579 145.914 55.6568C145.543 55.9161 145.301 56.0889 145.214 56.1494C145.283 56.0976 145.525 55.9333 145.906 55.6568C144.739 56.4433 144.86 56.3309 146.26 55.2851L146.269 55.2938ZM146.364 55.3975C146.364 55.3975 146.433 55.4666 146.467 55.5012C144.955 56.4606 144.929 56.4346 146.364 55.3975ZM146.493 55.5185C146.493 55.5185 146.58 55.5963 146.623 55.6308C145.214 56.4606 145.137 56.4346 146.493 55.5185ZM147.694 56.3223C147.694 56.3223 147.729 56.3396 147.738 56.3482C147.09 56.5902 147.072 56.5902 147.694 56.3223ZM147.755 56.3568C147.34 56.5182 147.34 56.5182 147.755 56.3568ZM147.833 56.3914C147.833 56.3914 147.893 56.4173 147.919 56.4346C147.383 56.6161 147.349 56.6075 147.833 56.3914ZM147.997 56.4692C147.997 56.4692 148.04 56.4951 148.066 56.5038C147.617 56.6421 147.591 56.6334 147.997 56.4692Z" fill="currentColor"/>
<path d="M215.962 45.3355C217.595 47.0468 217.076 47.0036 214.916 45.7936C215.979 46.8999 215.409 46.848 213.879 46.1912C214.916 46.848 214.363 46.848 212.807 46.5628C212.272 46.848 210.733 46.848 209.1 46.5369C207.078 46.848 205.047 46.848 203.354 45.5516C200.45 46.8567 197.875 46.8567 194.695 45.2318C192.275 46.8567 189.242 46.8567 185.768 46.5974C182.83 46.8567 179.442 46.8567 175.925 46.8567C172.408 46.8567 168.753 46.8567 169.712 42.9674C164.086 45.5602 160.509 46.4245 156.43 44.4626C154.39 43.4859 152.221 41.8006 150.139 39.5707C149.637 41.1696 149.413 42.5871 148.989 43.6502C148.566 44.7132 147.935 45.4047 147.149 45.8541C146.362 46.3035 145.42 46.5023 144.444 46.5455C143.441 46.5628 142.396 46.4332 141.73 46.9777C139.492 46.6406 137.781 46.7443 138.196 47.6259C135.949 46.1912 134.558 46.5196 133.469 48.058C132.631 46.122 132.086 45.3874 131.274 47.3493C129.952 44.9034 128.111 45.5516 126.089 46.4072C124.585 46.3208 122.883 46.4332 121.112 46.3381C119.349 46.243 117.517 45.9319 115.486 45.4738C114.345 46.1652 112.764 46.5109 110.992 46.6838C109.221 46.8567 107.25 46.8567 105.911 46.1566C101.504 46.8567 97.8829 46.8567 94.3226 44.307C91.1943 46.8567 88.1352 46.8567 84.8946 46.243C82.6996 46.8567 80.3318 46.8567 78.3788 46.8567H72.252V45.3442H78.3788C80.3318 45.3442 82.6996 45.3442 85.1971 45.0589C88.1352 45.3442 91.1943 45.3442 94.4004 43.5378C97.8829 45.3528 101.504 45.3528 105.591 44.9984C107.25 45.3528 109.221 45.3528 111.044 45.1886C112.867 45.0244 114.553 44.6959 115.909 44.0304C117.793 44.4712 119.53 44.7651 121.224 44.8602C122.918 44.9552 124.56 44.8429 125.536 45.638C127.947 44.1082 129.701 43.4859 130.444 46.969C131.905 43.9527 132.536 44.6527 133.253 47.7642C134.463 45.0503 135.768 44.7478 138.058 47.4012C137.876 45.2837 139.7 45.2145 142.257 46.4159C142.577 45.0935 143.606 45.1713 144.859 45.5084C145.576 45.0676 146.509 44.8861 147.339 44.4799C148.16 44.065 148.877 43.4341 149.447 42.4834C150.018 41.5326 150.441 40.2535 150.934 38.6632C152.947 40.8153 154.874 42.3278 156.715 43.2007C160.405 44.9466 163.749 44.1169 168.683 41.6364C168.77 45.3528 172.417 45.3528 175.942 45.3528C179.468 45.3528 182.847 45.3528 185.949 45.2404C189.259 45.3528 192.284 45.3528 194.833 44.1255C197.883 45.3528 200.459 45.3528 203.146 44.3934C205.056 45.3528 207.078 45.3528 208.927 45.1972C210.742 45.3528 212.272 45.3528 213.084 45.1972C214.363 45.3528 214.916 45.3528 214.277 44.8688C215.486 45.3528 216.091 45.4133 215.512 44.4626C217.249 45.517 217.802 45.5689 216.653 44.0132C218.2 45.5516 218.26 47.0641 216.126 45.275C218.191 47.0727 218.122 47.0727 215.962 45.3614V45.3355Z" fill="currentColor"/>
<path d="M214 49.51C215.504 50.115 216.739 50.1237 217.439 49.4668C218.139 48.81 218.312 47.4876 217.699 45.4133C222.728 47.2542 224.629 46.0961 223.212 41.9475C224.629 46.0961 222.676 45.0244 219.453 41.9389C218.779 42.8896 216.826 41.8179 216.592 41.5327C216.826 41.8179 216.878 44.0391 215.426 45.0503C216.204 46.7702 216.601 48.179 216.428 49.0174C216.255 49.8558 215.512 50.1064 214 49.5014V49.51Z" fill="currentColor"/>
</svg>
