<svg width="143" height="143" viewBox="0 0 143 143" fill="none" xmlns="http://www.w3.org/2000/svg">
<path d="M71.7848 84.2861L70.9733 79.545C70.5557 77.1038 69.8572 73.1598 69.718 72.7103C69.5735 72.5509 69.5 72.3496 69.5 72.1118C69.5 71.8635 69.584 71.6544 69.7547 71.4923C69.9202 71.3303 70.1356 71.2493 70.3877 71.2493C70.6398 71.2493 70.8525 71.3303 71.0127 71.4897C71.1729 71.6492 71.2517 71.8582 71.2517 72.1118C71.2517 72.3365 71.186 72.53 71.06 72.6868C71.0232 73.2252 71.2727 77.0934 71.4408 79.4875L71.7822 84.2835L71.7848 84.2861ZM70.3877 71.7249C70.259 71.7249 70.1618 71.7589 70.0856 71.8347C70.0095 71.9079 69.9753 71.9968 69.9753 72.1144C69.9753 72.2425 70.0121 72.3365 70.0883 72.4123C70.1355 72.4594 70.2065 72.53 70.6818 75.1358C70.5347 72.5561 70.603 72.4829 70.6713 72.415C70.7448 72.3392 70.7816 72.2425 70.7816 72.1144C70.7816 71.9863 70.7475 71.8948 70.6792 71.8269C70.6109 71.7589 70.5164 71.7276 70.3903 71.7276L70.3877 71.7249Z" fill="currentColor"/>
<path d="M76.506 73.0004C76.2513 73.0004 76.0359 72.9168 75.8705 72.7495C75.705 72.5822 75.6183 72.3705 75.6183 72.117C75.6183 71.9166 77.0742 71.7894 79.9858 71.7354C82.4282 71.6884 85.5823 71.6465 88.6313 71.6047C92.7992 71.5472 97.1036 71.4897 97.6708 71.4427C97.8284 71.3172 98.0201 71.2545 98.2434 71.2545C98.4981 71.2545 98.7082 71.3355 98.8684 71.495L98.9787 71.6047L98.9183 71.7511C98.8693 71.8696 97.9168 71.9454 96.061 71.9785C94.459 72.0072 92.2818 72.036 89.9733 72.07C84.7997 72.1405 78.4363 72.2294 77.349 72.3209C77.3149 72.4855 77.2414 72.6293 77.1258 72.7495C76.9604 72.9168 76.7529 73.003 76.5034 73.003L76.506 73.0004ZM76.1331 72.3156C76.1515 72.3522 76.1751 72.3862 76.204 72.415C76.2802 72.4908 76.3773 72.5273 76.506 72.5273C76.6242 72.5273 76.7135 72.4934 76.787 72.4176C76.8264 72.3784 76.8527 72.3339 76.8711 72.2817C76.548 72.2921 76.2959 72.3052 76.1331 72.3156ZM94.3749 70.7292V70.4965C94.3697 70.4024 94.3697 70.2535 94.4274 70.1332C93.0066 69.9817 88.6025 69.8065 84.9677 69.6628C76.1042 69.3099 76.0911 69.2707 76.0097 69.0094L75.9598 68.8499L76.1016 68.7376C76.4876 68.4553 76.7476 68.2122 76.8737 68.011C76.921 67.9378 77.0181 67.8123 77.1521 67.6398C77.3648 67.368 77.8585 66.7355 77.89 66.5656C77.89 66.265 77.785 66.0194 77.567 65.826C77.3412 65.6273 77.0523 65.528 76.682 65.528C76.4088 65.528 76.1567 65.6142 75.9151 65.7946C75.6656 65.9775 75.487 66.2075 75.3715 66.5003L75.2848 66.7146L73.8535 66.1919L73.9349 65.9697C74.1477 65.3947 74.5127 64.919 75.0196 64.5557C75.4135 64.2212 79.6943 58.1314 82.4781 54.1142L84.3926 51.3516L82.8851 54.3546C81.1439 57.8256 78.4179 63.458 78.2183 64.3884C78.5781 64.5975 78.867 64.8824 79.0771 65.2353C79.3082 65.6247 79.4238 66.0769 79.4238 66.5787C79.4238 66.9237 79.0377 67.5065 78.5335 68.2357C78.4783 68.3168 78.4232 68.3952 78.3759 68.4631C79.5787 68.6278 84.4688 68.8343 88.8309 69.0146C94.6192 69.2551 97.3557 69.3884 98.6636 69.5034C98.6662 69.4955 98.6714 69.4877 98.6741 69.4772C98.7161 69.391 98.7896 69.3309 98.8789 69.3152C99.047 69.2838 99.1731 69.4014 99.3096 69.5269C99.3254 69.5426 99.3464 69.5609 99.37 69.5818C99.8454 69.6549 99.869 69.7255 99.8979 69.8248L99.9478 69.9843L99.806 70.1019C99.5696 70.2692 99.3359 70.1594 99.1599 70.0235C99.1153 70.0182 99.068 70.013 99.0181 70.0078C99.0023 70.128 98.9945 70.2822 98.9971 70.4782L99.0023 70.7187L94.3723 70.7318L94.3749 70.7292ZM94.9842 69.7543C95.1181 69.7935 95.1602 69.8327 95.1891 69.8797L95.2547 69.9895L95.1996 70.1149C95.1733 70.1724 95.1444 70.2169 95.1129 70.2535L98.527 70.2456C98.5296 70.1437 98.5375 70.0496 98.548 69.9634C97.7207 69.898 96.4575 69.8274 94.9842 69.7543ZM76.7896 68.7951C77.1048 68.8238 77.5644 68.8552 78.129 68.8865C77.89 68.8369 77.8349 68.7846 77.8007 68.7219L77.7351 68.6043L77.8007 68.4762C77.869 68.356 77.9977 68.173 78.1422 67.9613C78.4048 67.5823 78.9484 66.7982 78.9484 66.5735C78.9484 66.1579 78.8539 65.7867 78.6674 65.4705C78.4783 65.1516 78.2236 64.9138 77.8822 64.7387C77.6064 64.5975 77.441 64.5139 79.9779 59.2108C80.3429 58.4502 80.7106 57.6871 81.052 56.9944C78.867 60.123 75.6525 64.6838 75.3032 64.9321C74.9408 65.1908 74.6624 65.5202 74.4759 65.9096L75.0301 66.1108C75.1771 65.8338 75.3794 65.5986 75.6341 65.4104C75.9571 65.1725 76.3117 65.0523 76.6846 65.0523C77.1678 65.0523 77.5723 65.1934 77.8848 65.4679C78.2052 65.7528 78.3654 66.1239 78.3654 66.5708C78.3654 66.8113 78.108 67.1824 77.5302 67.9221C77.4173 68.0658 77.3123 68.2018 77.2781 68.2566C77.1731 68.4213 77.0129 68.599 76.7923 68.7898L76.7896 68.7951Z" fill="currentColor"/>
<path d="M100.369 83.5204L92.7684 78.9831C88.9262 76.691 83.1196 73.2488 82.5812 72.9979C82.3448 72.9874 82.1479 72.9038 81.9903 72.7496C81.8248 72.5849 81.7382 72.3706 81.7382 72.1171C81.7382 71.9167 83.194 71.7895 86.1056 71.7355C88.548 71.6884 91.7021 71.6466 94.7512 71.6048C98.919 71.5473 103.223 71.4898 103.791 71.4428C103.948 71.3173 104.14 71.2546 104.363 71.2546C104.618 71.2546 104.828 71.3356 104.988 71.495L105.099 71.6048L105.038 71.7512C104.989 71.8697 104.037 71.9455 102.181 71.9786C100.579 72.0073 98.4016 72.0361 96.0932 72.07C91.3476 72.1354 85.5987 72.2138 83.8418 72.2974C85.2337 73.322 89.8375 76.4479 93.0205 78.5859L100.366 83.5204H100.369ZM82.2529 72.3157C82.2713 72.3523 82.2949 72.3863 82.3238 72.415C82.4 72.4908 82.4971 72.5274 82.6258 72.5274C82.6862 72.5274 82.7834 72.5274 86.2921 74.5896C83.9442 72.977 83.2798 72.4856 83.0907 72.2791C82.7204 72.2922 82.4341 72.3027 82.2529 72.3157ZM103.591 70.7319V70.4966C103.586 70.4051 103.586 70.2588 103.638 70.1412C102.057 69.987 96.8338 69.8092 92.5267 69.6603C82.224 69.3074 82.2135 69.2734 82.1295 69.0068L82.0796 68.8474L82.2188 68.7376C82.6048 68.4554 82.8648 68.2123 82.9909 68.011C83.0381 67.9379 83.1353 67.8124 83.2719 67.6373C83.482 67.3655 83.9783 66.733 84.0072 66.5657C84.0072 66.2651 83.8996 66.0194 83.6842 65.826C83.4583 65.6274 83.1695 65.5281 82.7992 65.5281C82.526 65.5281 82.2739 65.6143 82.0323 65.7947C81.7828 65.9776 81.6042 66.2076 81.4887 66.4977L81.402 66.7121L79.9707 66.1893L80.0547 65.9672C80.2701 65.3922 80.6351 64.9139 81.142 64.5506C81.6515 64.1873 82.2109 64.0017 82.8018 64.0017C83.3297 64.0017 83.805 64.1089 84.2173 64.318C84.6349 64.5323 84.9632 64.8381 85.1943 65.2301C85.4254 65.6196 85.5409 66.0717 85.5409 66.5735C85.5409 66.9185 85.1549 67.5014 84.6507 68.2306C84.5981 68.3064 84.5482 68.377 84.5036 68.4423C85.7668 68.5547 90.8197 68.5521 94.9613 68.5495C105.687 68.5442 105.713 68.6017 105.81 68.884L105.865 69.046L105.721 69.1663C105.464 69.3518 105.298 69.5217 105.225 69.6759C105.172 69.7857 105.112 70.0131 105.12 70.4757L105.125 70.7136L103.591 70.7292V70.7319ZM87.2506 69.0016C88.8947 69.0643 90.7645 69.1297 92.5451 69.1898C103.728 69.5714 104.266 69.655 104.405 69.885L104.471 69.9948L104.416 70.1203C104.389 70.1751 104.361 70.2196 104.332 70.2562H104.647C104.657 69.9216 104.707 69.6681 104.794 69.4799C104.852 69.3571 104.938 69.2368 105.051 69.1166C103.625 69.0225 99.0556 69.0251 94.9613 69.0278C91.3055 69.0304 88.871 69.0225 87.248 69.0042L87.2506 69.0016ZM82.92 68.7899C83.2246 68.816 83.6606 68.8422 84.1989 68.8709C84.0072 68.8317 83.9547 68.7873 83.9232 68.7298L83.8549 68.6122L83.9232 68.4815C83.9915 68.3613 84.1202 68.1783 84.2646 67.9666C84.5272 67.5876 85.0709 66.8035 85.0709 66.5788C85.0709 66.1632 84.9763 65.7921 84.7898 65.4758C84.606 65.1622 84.3408 64.9165 84.0046 64.744C83.6606 64.5689 83.2587 64.48 82.807 64.48C82.3159 64.48 81.8511 64.6342 81.423 64.94C81.0606 65.1988 80.7822 65.5281 80.5957 65.9175L81.1499 66.1188C81.2969 65.8417 81.4992 65.6065 81.7539 65.4183C82.0769 65.1805 82.4315 65.0602 82.8044 65.0602C83.2876 65.0602 83.6921 65.2014 84.0046 65.4758C84.325 65.7607 84.4878 66.1318 84.4878 66.5788C84.4878 66.8192 84.2305 67.1904 83.6527 67.93C83.5398 68.0738 83.4347 68.2097 83.4006 68.2646C83.2981 68.4292 83.1406 68.6017 82.9226 68.7899H82.92Z" fill="currentColor"/>
<path d="M87.7635 73.0003C87.5087 73.0003 87.2934 72.9167 87.1279 72.7494C86.9625 72.5821 86.8758 72.3704 86.8758 72.1169C86.8758 71.9165 88.3316 71.7893 91.2432 71.7353C93.6856 71.6883 96.8397 71.6464 99.8888 71.6046C104.057 71.5471 108.361 71.4896 108.928 71.4426C109.086 71.3171 109.278 71.2544 109.501 71.2544C109.756 71.2544 109.966 71.3354 110.126 71.4948L110.236 71.6046L110.176 71.751C110.127 71.8695 109.174 71.9453 107.318 71.9784C105.716 72.0071 103.539 72.0359 101.231 72.0698C96.0571 72.1404 89.6937 72.2293 88.6065 72.3208C88.5723 72.4854 88.4988 72.6292 88.3833 72.7494C88.2178 72.9167 88.0103 73.0029 87.7608 73.0029L87.7635 73.0003ZM87.3905 72.3155C87.4089 72.3521 87.4326 72.3861 87.4614 72.4149C87.5376 72.4906 87.6348 72.5272 87.7608 72.5272C87.879 72.5272 87.9709 72.4933 88.0418 72.4175C88.0812 72.3783 88.1075 72.3338 88.1259 72.2816C87.8029 72.292 87.5507 72.3051 87.3879 72.3155H87.3905ZM127.798 70.7186L114.42 70.7134L84.9219 64.1453H88.4542L127.798 70.7186ZM114.496 70.2455H122.096L91.6897 65.1672L114.496 70.2455Z" fill="currentColor"/>
<path d="M79.5011 80.1391L75.8165 77.0262C73.9204 75.424 70.8372 72.8496 70.4406 72.5934C70.2279 72.5621 70.0414 72.4549 69.8891 72.2746C69.7289 72.0838 69.6606 71.8695 69.6842 71.6369C69.7079 71.4069 69.8182 71.2082 70.0125 71.0462C70.2095 70.8815 70.4222 70.8109 70.6454 70.8292C70.8713 70.8501 71.0683 70.9573 71.2311 71.1533C71.3755 71.3258 71.4517 71.514 71.4543 71.7153C71.7747 72.1517 74.464 74.9562 76.1395 76.6812L79.4985 80.1364L79.5011 80.1391ZM70.5798 71.3023C70.4931 71.3023 70.4091 71.3389 70.3198 71.4121C70.22 71.4957 70.1701 71.5846 70.157 71.6891C70.1465 71.7911 70.178 71.8825 70.2541 71.974C70.3356 72.0733 70.4248 72.123 70.5325 72.1308C70.5982 72.1361 70.698 72.1439 72.7464 73.8375C70.9658 71.9557 70.9737 71.8564 70.9816 71.7597C70.9895 71.6525 70.9527 71.5584 70.8713 71.4591C70.7899 71.3624 70.7032 71.3102 70.6061 71.3023C70.5982 71.3023 70.5877 71.3023 70.5798 71.3023Z" fill="currentColor"/>
<path d="M75.254 68.6912C75.2277 68.6912 75.2015 68.6912 75.1778 68.6886C74.9415 68.6677 74.7392 68.5579 74.5764 68.3645C74.4469 68.2111 75.4807 67.1822 77.678 65.2777C79.5216 63.6782 81.9089 61.6291 84.22 59.6453C87.3741 56.9376 90.6332 54.141 91.0377 53.7411C91.0771 53.5451 91.1821 53.3726 91.3554 53.2288C91.5498 53.0668 91.7651 52.9936 91.9884 53.0119L92.1459 53.025L92.1958 53.1739C92.2361 53.2959 91.555 53.9633 90.1526 55.176C88.9419 56.2241 87.2927 57.6407 85.5462 59.1409C81.6305 62.5047 76.814 66.6421 76.0392 67.4079C76.1206 67.5542 76.1548 67.7137 76.1443 67.8783C76.1285 68.1109 76.0208 68.3122 75.8318 68.4716C75.6584 68.618 75.4667 68.6912 75.2592 68.6912H75.254ZM75.099 68.1867C75.1358 68.2024 75.1752 68.2129 75.2172 68.2181C75.3249 68.2286 75.4221 68.1946 75.5192 68.1109C75.6112 68.0351 75.6558 67.9515 75.6637 67.847C75.6663 67.7921 75.6611 67.7398 75.64 67.6901C75.3984 67.9045 75.2146 68.0744 75.0964 68.1894L75.099 68.1867ZM72.977 65.7717C72.9298 65.7717 72.9009 65.7534 72.8667 65.7325L72.7249 65.641L72.7617 65.4659C72.8746 65.0033 72.9166 64.6505 72.8851 64.4152C72.872 64.329 72.8667 64.1696 72.8589 63.95C72.8457 63.6076 72.8142 62.8052 72.7302 62.6589C72.5358 62.4289 72.2968 62.3086 72.0053 62.2982C71.6981 62.2877 71.4197 62.4001 71.136 62.6353C70.9259 62.8105 70.7894 63.0379 70.7211 63.3306C70.6476 63.6312 70.6607 63.9213 70.7605 64.2192L70.8314 64.4362L69.3975 64.951L69.3161 64.7289C69.1086 64.1513 69.0797 63.5527 69.2347 62.9516C69.3213 62.4446 68.6648 55.0401 68.2025 50.1813L67.8848 46.8411L68.67 50.1055C69.5787 53.877 71.1282 59.9381 71.5746 60.7797C71.9869 60.7091 72.3914 60.7431 72.7801 60.879C73.2081 61.0306 73.589 61.3024 73.912 61.6866C74.1352 61.9506 74.2166 62.6432 74.3007 63.524C74.3112 63.6233 74.319 63.7148 74.3269 63.7984C75.3538 63.1555 79.2354 60.1837 82.6941 57.5309C87.2848 54.0129 89.4645 52.3637 90.5387 51.6162C90.5387 51.6084 90.5334 51.5979 90.5308 51.5901C90.5072 51.4986 90.5255 51.4045 90.5833 51.3339C90.691 51.2006 90.8643 51.2111 91.0482 51.2215C91.0692 51.2215 91.0981 51.2242 91.1296 51.2268C91.5393 50.9785 91.6049 51.0203 91.6916 51.0752L91.8334 51.164L91.8019 51.3444C91.731 51.624 91.4789 51.6894 91.2556 51.6972C91.2189 51.7207 91.1795 51.7469 91.1375 51.7756C91.2031 51.8776 91.2977 52.003 91.4263 52.1494L91.5839 52.3297L88.0464 55.3015L87.8941 55.1237C87.831 55.0532 87.7339 54.9382 87.7023 54.8101C86.5153 55.6046 83.0303 58.2862 80.1493 60.5026C74.151 65.1183 73.2554 65.7717 72.977 65.7717ZM71.9712 61.8251C71.9869 61.8251 72.0027 61.8251 72.0158 61.8251C72.4439 61.8382 72.809 62.0185 73.0978 62.3609C73.2528 62.5439 73.2948 62.9934 73.3316 63.9291C73.3395 64.1121 73.3447 64.2846 73.3526 64.3473C73.3789 64.5407 73.371 64.7785 73.3237 65.066C73.5837 64.8857 73.9566 64.6165 74.4083 64.2793C74.193 64.3943 74.1168 64.3891 74.0485 64.363L73.9225 64.3159L73.891 64.1748C73.8673 64.0389 73.8463 63.8167 73.8201 63.5632C73.7754 63.1058 73.6861 62.1571 73.5391 61.9845C73.2712 61.6657 72.9587 61.4435 72.6094 61.3181C72.2601 61.1952 71.9082 61.1769 71.5352 61.2606C71.2332 61.3285 71.052 61.3703 69.5708 55.6883C69.3581 54.8728 69.148 54.0521 68.9615 53.3046C69.3082 57.0996 69.7914 62.6484 69.6864 63.064C69.5761 63.4952 69.5761 63.9239 69.6864 64.3421L70.2405 64.1434C70.1748 63.8376 70.1775 63.5266 70.2536 63.2208C70.3482 62.8314 70.5399 62.5125 70.8262 62.2747C71.1833 61.9767 71.5667 61.8251 71.9686 61.8251H71.9712ZM88.0543 54.1201C88.0805 54.1201 88.1015 54.1253 88.1225 54.1331L88.2433 54.175L88.2827 54.3056C88.2985 54.3658 88.3064 54.4206 88.3064 54.4677L90.9169 52.2775C90.8538 52.1964 90.7987 52.1206 90.7514 52.0475C90.0765 52.5258 89.0627 53.2785 87.8862 54.1671C87.965 54.1331 88.0149 54.1201 88.0569 54.1201H88.0543Z" fill="currentColor"/>
<path d="M79.9419 64.776C79.9156 64.776 79.892 64.776 79.8657 64.7734C79.6294 64.7524 79.4272 64.6427 79.2643 64.4493C79.1348 64.2959 80.1686 63.267 82.3659 61.3625C84.2095 59.763 86.5968 57.7139 88.9079 55.7301C92.062 53.0224 95.3211 50.2258 95.7256 49.8259C95.765 49.6299 95.87 49.4574 96.0434 49.3136C96.2377 49.149 96.453 49.0784 96.6763 49.0967L96.8338 49.1098L96.8837 49.2587C96.924 49.3807 96.2438 50.0472 94.8432 51.2582C93.6351 52.3036 91.9858 53.7202 90.2394 55.2205C86.6441 58.3072 82.2924 62.0473 81.0003 63.2339C82.7283 63.1294 88.2749 62.5779 92.0935 62.1806L100.907 61.2632L92.1565 62.6485C87.7339 63.3489 81.0607 64.4284 80.4855 64.5826C80.3201 64.708 80.1415 64.7734 79.9498 64.7734L79.9419 64.776ZM79.7869 64.2715C79.8237 64.2872 79.8631 64.2977 79.9078 64.3029C80.0181 64.3134 80.1126 64.2794 80.2098 64.1957C80.257 64.1565 80.3306 64.0938 84.3513 63.4299C81.5098 63.6965 80.6851 63.7462 80.4067 63.707C80.131 63.9553 79.9209 64.1461 79.7896 64.2715H79.7869ZM77.6623 61.8539C77.6177 61.8539 77.5888 61.8356 77.5546 61.8147L77.4128 61.7232L77.4496 61.5481C77.5652 61.0855 77.6045 60.7327 77.573 60.4974C77.5599 60.4112 77.5547 60.2517 77.5468 60.0322C77.5336 59.6898 77.5021 58.8874 77.4181 58.7411C77.2237 58.5111 76.9821 58.3908 76.6932 58.3804C76.3886 58.3725 76.1076 58.4823 75.824 58.7175C75.6139 58.8926 75.4773 59.12 75.409 59.4128C75.3355 59.7133 75.3486 60.0034 75.4484 60.3014L75.5193 60.5183L74.0854 61.0332L74.004 60.8111C73.7965 60.2334 73.7676 59.6349 73.9226 59.0312C74.0775 58.4248 74.3848 57.9282 74.8391 57.5492C75.2436 57.2121 75.6769 56.9873 76.1286 56.888C76.5856 56.7834 77.0373 56.8096 77.468 56.9612C77.8961 57.1127 78.2769 57.3846 78.5999 57.7688C78.8231 58.0328 78.9045 58.728 78.9886 59.6062C78.9965 59.6977 79.0043 59.7839 79.0148 59.8623C80.0548 59.1383 83.9233 55.9052 87.0931 53.255C95.3106 46.3837 95.3658 46.4177 95.6205 46.5719L95.7676 46.6608L95.7335 46.8437C95.6547 47.1495 95.6389 47.3847 95.6836 47.552C95.7151 47.6696 95.8149 47.884 96.1195 48.2316L96.2771 48.4119L95.111 49.4051L94.9561 49.2274C94.8957 49.1568 94.8011 49.047 94.767 48.9242C93.4565 49.8181 89.3386 53.0224 85.9455 55.6648C78.9308 61.1247 77.9538 61.8539 77.665 61.8539H77.6623ZM76.6617 57.9099C76.6775 57.9099 76.6932 57.9099 76.709 57.9099C77.1371 57.923 77.5021 58.1033 77.791 58.4457C77.946 58.6287 77.988 59.0782 78.0247 60.0139C78.0326 60.1969 78.0379 60.3694 78.0458 60.4321C78.072 60.6229 78.0641 60.8581 78.0195 61.1404C78.269 60.9653 78.6209 60.7065 79.0516 60.385C78.8783 60.4791 78.81 60.4765 78.7496 60.453L78.6209 60.4059L78.5894 60.2622C78.5658 60.1263 78.5447 59.9041 78.5185 59.6506C78.4738 59.1932 78.3845 58.2445 78.2375 58.072C77.9696 57.7531 77.6571 57.5309 77.3078 57.4081C76.9585 57.2853 76.6066 57.2643 76.2337 57.3506C75.8581 57.4342 75.4904 57.625 75.1464 57.9151C74.7656 58.234 74.5161 58.6391 74.3848 59.1514C74.2745 59.5826 74.2745 60.0113 74.3848 60.4295L74.9389 60.2308C74.8733 59.925 74.8759 59.614 74.952 59.3082C75.0466 58.9188 75.2383 58.5999 75.5246 58.3621C75.8817 58.0641 76.2652 57.9125 76.667 57.9125L76.6617 57.9099ZM95.1872 47.2332C94.0317 48.0748 90.5335 50.9994 87.4004 53.6209C84.6008 55.9627 82.7336 57.5126 81.4756 58.5372C82.7756 57.5335 84.2516 56.3862 85.654 55.2937C94.4702 48.4302 94.9325 48.1532 95.1872 48.2394L95.308 48.2812L95.3474 48.4119C95.3632 48.4694 95.3684 48.5217 95.371 48.5687L95.61 48.3649C95.4052 48.1035 95.2765 47.8787 95.224 47.6775C95.1898 47.5468 95.1767 47.4004 95.1872 47.2358V47.2332Z" fill="currentColor"/>
<path d="M83.876 61.4907C83.8498 61.4907 83.8235 61.4907 83.7999 61.4881C83.5635 61.4672 83.3613 61.3574 83.1985 61.164C83.0689 61.0106 84.1019 59.9826 86.2974 58.0799C88.1384 56.4803 90.5283 54.4312 92.8367 52.4501C95.9935 49.7397 99.2526 46.9431 99.6597 46.5432C99.6991 46.3472 99.8041 46.1747 99.9775 46.0309C100.174 45.8689 100.387 45.7957 100.61 45.814L100.768 45.8271L100.818 45.9761C100.858 46.098 100.178 46.7654 98.7773 47.9781C97.5666 49.0262 95.9199 50.4402 94.1735 51.9404C90.2578 55.3042 85.4386 59.4416 84.6639 60.21C84.7453 60.359 84.7821 60.5158 84.7689 60.6804C84.7532 60.9131 84.6455 61.1117 84.4564 61.2737C84.2831 61.4201 84.0914 61.4933 83.8839 61.4933L83.876 61.4907ZM83.7211 60.9862C83.7578 61.0019 83.7972 61.0124 83.8419 61.0176C83.9469 61.0254 84.0467 60.9941 84.1439 60.9104C84.2358 60.8346 84.2805 60.751 84.2883 60.6465C84.2936 60.5916 84.2857 60.5393 84.2647 60.487C84.0231 60.7014 83.8393 60.8712 83.7211 60.9862ZM76.5488 56.3078L79.2591 54.0496L113.642 33.9141L103.389 42.4685L76.5488 56.3104V56.3078ZM108.97 37.1968L82.4001 52.7585L103.147 42.0608L108.97 37.1994V37.1968Z" fill="currentColor"/>
<path d="M70.4712 72.1704C70.4134 72.1704 70.353 72.1652 70.29 72.1547C70.0431 72.1103 69.854 71.9927 69.7201 71.7993C69.5888 71.6085 69.5468 71.3837 69.5914 71.1354C69.6361 70.8845 69.7516 70.6937 69.9355 70.563C70.1219 70.435 70.3425 70.3905 70.5946 70.435C70.8179 70.4742 70.9965 70.5709 71.1304 70.7225C71.6583 70.8505 75.5293 71.2792 77.9271 71.5301L82.7331 72.0293L77.9008 72.0031C75.4138 71.9901 71.3878 71.9901 70.9203 72.0476C70.7864 72.1312 70.634 72.173 70.4712 72.173V72.1704ZM70.4108 70.8923C70.3084 70.8923 70.248 70.9237 70.2112 70.9525C70.1324 71.0073 70.0825 71.0936 70.0615 71.2191C70.0379 71.3471 70.0563 71.4464 70.1167 71.5353C70.1744 71.6216 70.2585 71.6712 70.374 71.6921C70.5001 71.7156 70.5999 71.6947 70.6892 71.6346C70.7443 71.5954 70.8258 71.5405 73.4861 71.5275C70.9072 71.2243 70.8494 71.1433 70.7916 71.0648C70.7286 70.9786 70.6393 70.9289 70.5132 70.9054C70.4738 70.8976 70.4397 70.895 70.4108 70.895V70.8923Z" fill="currentColor"/>
<path d="M65.1816 66.8595L64.9767 66.7393C64.4436 66.4309 64.0366 65.9892 63.7661 65.4299C63.5034 64.9855 58.2194 59.7321 54.7266 56.3082L52.3262 53.9533L55.0364 55.9501C58.1695 58.2606 63.2697 61.9093 64.1547 62.2673C64.4252 61.9511 64.7561 61.7159 65.1422 61.5747C65.5677 61.4179 66.0351 61.3813 66.5315 61.4676C66.8729 61.5277 67.385 62.006 68.0179 62.628C68.0888 62.696 68.1545 62.7613 68.2149 62.8214C68.5878 61.6714 69.6383 56.9146 70.5759 52.67C71.8207 47.0376 72.4274 44.3795 72.7662 43.1197C72.7583 43.1145 72.7504 43.1093 72.7425 43.1041C72.6637 43.0492 72.6191 42.9655 72.6165 42.8741C72.6165 42.7042 72.753 42.5996 72.9001 42.4899C72.9185 42.4768 72.9421 42.4585 72.9658 42.4402C73.1207 41.988 73.1969 41.9776 73.2993 41.9645L73.4647 41.9436L73.5567 42.103C73.6827 42.3618 73.533 42.5735 73.3676 42.7225C73.3544 42.7643 73.3413 42.8087 73.3282 42.8584C73.4437 42.895 73.5961 42.9289 73.7904 42.9603L74.0294 42.9969L73.2363 47.5368L73.0051 47.5002C72.9106 47.4845 72.7635 47.461 72.6559 47.3826C72.2593 48.7495 71.3217 53.0333 70.547 56.5722C68.6587 65.1999 68.6167 65.2051 68.3436 65.2391L68.1781 65.26L68.0915 65.1032C67.8787 64.6745 67.6844 64.3792 67.5084 64.2197C67.4428 64.1622 67.3351 64.042 67.188 63.88C66.9569 63.6264 66.4159 63.0305 66.2557 62.973C65.959 62.9208 65.6963 62.9835 65.4679 63.1612C65.2315 63.3468 65.0844 63.6134 65.0214 63.9767C64.9741 64.2459 65.0161 64.5072 65.1527 64.7764C65.2919 65.0535 65.4889 65.2678 65.7541 65.4325L65.9511 65.5527L65.1842 66.8647L65.1816 66.8595ZM64.1915 65.2234C64.3858 65.6233 64.6616 65.9526 65.0161 66.2035L65.3129 65.6964C65.0634 65.5056 64.8664 65.2652 64.7246 64.9829C64.546 64.6249 64.4883 64.2563 64.5513 63.8904C64.6353 63.4147 64.8428 63.0436 65.1711 62.7875C65.5073 62.5235 65.9012 62.4294 66.3476 62.5078C66.584 62.5496 66.907 62.8659 67.54 63.5611C67.6634 63.697 67.7789 63.8251 67.8262 63.8669C67.9733 63.9976 68.1177 64.1858 68.27 64.4367C68.3541 64.1335 68.4644 63.6865 68.5931 63.1403C68.5012 63.3651 68.4408 63.4121 68.3725 63.4356L68.2464 63.4775L68.1309 63.3912C68.0232 63.3023 67.8656 63.1481 67.6818 62.9678C67.3535 62.6463 66.668 61.9746 66.4474 61.9354C66.0351 61.8622 65.6517 61.891 65.3077 62.019C64.9662 62.1471 64.6747 62.3614 64.4462 62.662C64.2598 62.9077 64.1469 63.0567 59.3408 59.6485C58.6501 59.1597 57.9621 58.6657 57.3344 58.211C60.0499 60.8952 64.005 64.8392 64.1915 65.2234ZM73.2047 43.3105C72.9946 44.1103 72.7058 45.3361 72.3801 46.7684C72.4405 46.6429 72.4904 46.609 72.5403 46.5881L72.6585 46.541L72.774 46.6168C72.8239 46.6534 72.866 46.69 72.8975 46.7266L73.4805 43.3785C73.3807 43.3576 73.2888 43.3341 73.2047 43.3079V43.3105ZM71.5345 66.1747C71.4767 66.1747 71.4163 66.1695 71.3532 66.1591C71.1554 66.1242 71.2823 64.6754 71.7341 61.8126C72.1122 59.408 72.6191 56.3108 73.1076 53.3156C73.7746 49.2226 74.4653 44.9963 74.5179 44.4292C74.4207 44.2541 74.3918 44.0554 74.4312 43.8333C74.4758 43.5824 74.5914 43.3916 74.7752 43.2609L74.9039 43.172L75.0379 43.2557C75.1464 43.3236 75.0554 44.2706 74.7647 46.0967C74.5152 47.6727 74.1659 49.8133 73.7956 52.0819C72.9684 57.1629 71.952 63.4121 71.8522 64.4942C72.0098 64.5543 72.1385 64.6536 72.2383 64.7869C72.3775 64.9777 72.4248 65.1972 72.3801 65.4403C72.3355 65.6912 72.2147 65.8846 72.0229 66.0205C71.8759 66.1225 71.713 66.1721 71.5345 66.1721V66.1747ZM71.7341 64.9594C71.6894 65.2783 71.6579 65.5266 71.6395 65.6886C71.6789 65.6782 71.7157 65.6599 71.7498 65.6363C71.8391 65.5736 71.889 65.4874 71.9126 65.3619C71.9336 65.2443 71.9126 65.1502 71.8522 65.0666C71.8207 65.0221 71.7813 64.9881 71.7314 64.9594H71.7341Z" fill="currentColor"/>
<path d="M66.2444 60.8611L66.0395 60.7409C65.5064 60.4299 65.0993 59.9908 64.8262 59.4288C64.5531 58.8669 64.469 58.2867 64.5714 57.7064C64.6634 57.1889 64.8498 56.742 65.1308 56.3735C65.4145 56.0023 65.7769 55.7331 66.205 55.5737C66.6304 55.4169 67.0979 55.3803 67.5942 55.4665C67.9356 55.5267 68.4451 56.005 69.0781 56.627C69.1437 56.6923 69.2041 56.7525 69.2619 56.8073C69.5928 55.5868 70.4673 50.6339 71.1843 46.5775C73.0411 36.0576 73.1041 36.0497 73.4008 36.0027L73.5689 35.9766L73.6608 36.1386C73.7974 36.4235 73.9392 36.6143 74.081 36.7136C74.1808 36.7842 74.3962 36.8835 74.8558 36.9541L75.0921 36.9907L74.84 38.4961L74.6063 38.4569C74.5144 38.4412 74.3726 38.4177 74.2649 38.3445C73.8368 39.8683 72.7548 44.9544 71.8592 49.1494C69.7215 59.1858 69.6847 59.191 69.4063 59.2276L69.2409 59.2485L69.1568 59.0917C68.9441 58.663 68.7498 58.3677 68.5738 58.2083C68.5082 58.1508 68.4005 58.0305 68.2534 57.8685C68.0223 57.615 67.4813 57.019 67.3211 56.9615C67.0243 56.9093 66.7617 56.972 66.5332 57.1497C66.2969 57.3353 66.1498 57.6019 66.0868 57.9652C66.0395 58.2344 66.0815 58.4958 66.2181 58.765C66.3573 59.042 66.5542 59.2563 66.8195 59.421L67.0165 59.5412L66.2496 60.8533L66.2444 60.8611ZM65.2543 59.225C65.4486 59.6249 65.7244 59.9542 66.0789 60.2051L66.3757 59.698C66.1288 59.5072 65.9292 59.2668 65.7874 58.9845C65.6062 58.6264 65.5484 58.2579 65.6141 57.892C65.6981 57.4163 65.9056 57.0452 66.2338 56.789C66.57 56.5251 66.9639 56.431 67.4104 56.5094C67.6468 56.5512 67.9698 56.8675 68.6027 57.5627C68.7261 57.6986 68.8417 57.8267 68.889 57.8685C69.0334 57.9992 69.1779 58.1821 69.3276 58.4278C69.4063 58.1351 69.5088 57.7091 69.6296 57.1889C69.5587 57.3719 69.5035 57.4137 69.4405 57.4372L69.3118 57.4843L69.1962 57.3954C69.0886 57.3066 68.931 57.1497 68.7472 56.972C68.4189 56.6505 67.7361 55.9814 67.5128 55.9422C67.1005 55.869 66.7171 55.8978 66.373 56.0259C66.0316 56.1539 65.7401 56.3683 65.5116 56.6688C65.2779 56.9746 65.1203 57.3536 65.0415 57.7979C64.9575 58.2788 65.0284 58.7624 65.2569 59.2328L65.2543 59.225ZM73.4928 36.7868C73.1514 38.1694 72.3609 42.6466 71.6518 46.6612C71.0188 50.2471 70.5908 52.6333 70.2888 54.2198C70.6354 52.6203 71.0241 50.7933 71.3944 49.0605C73.716 38.1694 73.8893 37.6545 74.1414 37.5578L74.2596 37.5108L74.3726 37.5866C74.4225 37.6205 74.4618 37.6571 74.4907 37.6911L74.5433 37.3827C74.2176 37.3148 73.9734 37.2233 73.8053 37.103C73.695 37.0246 73.5899 36.9201 73.4928 36.7868ZM72.5972 60.1763C72.5394 60.1763 72.479 60.1711 72.416 60.1607C72.2182 60.1258 72.3451 58.677 72.7968 55.8142C73.175 53.4096 73.6819 50.3124 74.1703 47.3172C74.8374 43.2242 75.5281 38.9979 75.5806 38.4308C75.4835 38.2557 75.4546 38.057 75.494 37.8349C75.5386 37.584 75.6542 37.3932 75.8406 37.2625L75.9693 37.1736L76.1032 37.2572C76.2118 37.3252 76.1208 38.2722 75.8301 40.0983C75.5806 41.6743 75.2313 43.8149 74.861 46.0835C74.102 50.7463 73.1829 56.3918 72.9596 58.1272C74.215 56.9406 78.1097 52.9705 80.7779 50.2236L86.9365 43.8829L81.1272 50.5424C78.1911 53.9088 73.779 59.0028 73.435 59.4889C73.3851 59.7189 73.2669 59.8967 73.0857 60.0247C72.9386 60.1267 72.7758 60.1763 72.5946 60.1763H72.5972ZM72.8126 58.8617C72.76 59.2276 72.7233 59.5099 72.7049 59.6902C72.7443 59.6797 72.7811 59.6615 72.8152 59.6379C72.9045 59.5752 72.957 59.4889 72.978 59.3635C72.9885 59.3034 73.0069 59.2067 75.6542 56.1278C73.6503 58.1508 73.0489 58.7153 72.8126 58.8643V58.8617Z" fill="currentColor"/>
<path d="M65.0827 55.6574L65.6999 52.1943L79.0306 14.7773L76.7012 27.89L65.0801 55.66L65.0827 55.6574ZM77.5731 20.2817L67.2677 49.2017L76.2521 27.7306L77.5731 20.2817ZM73.4893 55.1425C73.4315 55.1425 73.3711 55.1373 73.3081 55.1269C73.1102 55.092 73.2372 53.6432 73.6889 50.7804C74.0671 48.3758 74.5739 45.2786 75.0624 42.2834C75.7295 38.1904 76.4202 33.9641 76.4727 33.397C76.3755 33.2219 76.3466 33.0206 76.386 32.8011C76.4307 32.5502 76.5462 32.3594 76.7301 32.2287L76.8587 32.1398L76.9927 32.2235C77.1012 32.2914 77.0111 33.2375 76.7222 35.0619C76.4727 36.6379 76.1234 38.7759 75.7531 41.0445C74.9258 46.1281 73.9069 52.3799 73.8097 53.462C73.9673 53.5221 74.0959 53.6214 74.1957 53.7573C74.3323 53.9455 74.3822 54.1676 74.3376 54.4107C74.2929 54.6616 74.1721 54.8577 73.9804 54.9909C73.8333 55.0929 73.6705 55.1425 73.4893 55.1425ZM73.6915 53.9272C73.6469 54.2461 73.6153 54.4944 73.597 54.6564C73.6364 54.6459 73.6731 54.6276 73.7073 54.6041C73.7966 54.5414 73.8491 54.4552 73.8701 54.3297C73.8911 54.2121 73.8701 54.118 73.8097 54.0344C73.7782 53.9899 73.7388 53.9533 73.6889 53.9272H73.6915Z" fill="currentColor"/>
<path d="M70.0819 71.925C70.0058 71.925 69.9296 71.9146 69.8534 71.8936C69.6302 71.8309 69.4516 71.6872 69.3256 71.4676C69.1969 71.2481 69.1627 71.0259 69.2205 70.809C69.2783 70.592 69.4201 70.4169 69.6407 70.2915C69.8351 70.1791 70.0346 70.1399 70.2369 70.1712C70.7253 69.9308 73.9661 67.785 75.9647 66.4416L79.9671 63.7495L76.2483 66.8205C74.3338 68.4018 71.2506 70.9763 70.9302 71.3186C70.8619 71.5225 70.7254 71.6872 70.5179 71.8048C70.3761 71.8858 70.229 71.9276 70.0793 71.9276L70.0819 71.925ZM70.1056 70.6313C70.032 70.6313 69.9585 70.6548 69.8797 70.6992C69.7326 70.7828 69.6959 70.8717 69.6801 70.9318C69.6538 71.0233 69.6749 71.1226 69.7379 71.2324C69.8035 71.3448 69.8797 71.4101 69.9847 71.4389C70.0845 71.4676 70.1791 71.4519 70.2841 71.3944C70.3944 71.3317 70.4601 71.2533 70.489 71.1488C70.5074 71.0834 70.531 70.9893 72.5611 69.2774C70.3918 70.694 70.2946 70.6705 70.2001 70.6469C70.1686 70.6391 70.1397 70.6365 70.1082 70.6365L70.1056 70.6313Z" fill="currentColor"/>
<path d="M62.4303 71.099C62.0023 71.099 61.5847 71.0075 61.1776 70.8272C60.6891 70.6547 53.249 70.0117 48.3616 69.6197L45 69.3505L48.3642 69.1466C52.2563 68.9114 58.5199 68.4462 59.4312 68.1534C59.4312 67.7379 59.5362 67.3458 59.7411 66.9904C59.9643 66.5983 60.3005 66.2716 60.7364 66.0207C61.0358 65.8482 61.737 65.8874 62.622 65.958C62.7218 65.9658 62.8138 65.9736 62.8978 65.9789C62.4408 64.8602 60.1718 60.5425 58.1496 56.69C55.4655 51.5803 54.2128 49.1574 53.6587 47.9734C53.6482 47.9734 53.6403 47.9734 53.6298 47.9761C53.5353 47.9839 53.4433 47.9499 53.3856 47.8793C53.2726 47.7513 53.312 47.5814 53.3541 47.4037C53.3593 47.3828 53.3646 47.354 53.3724 47.3253C53.1965 46.8809 53.249 46.8234 53.3199 46.7476L53.4328 46.6248L53.6062 46.6875C53.8714 46.8051 53.8898 47.0639 53.8609 47.2834C53.8793 47.3226 53.8977 47.3671 53.9187 47.4115C54.0316 47.3645 54.1708 47.2939 54.3389 47.1946L54.5464 47.0717L56.8732 51.0575L56.671 51.1778C56.5896 51.2248 56.4609 51.3032 56.327 51.3111C56.9074 52.6127 58.9558 56.4913 60.6471 59.6983C64.7729 67.5157 64.744 67.5471 64.5576 67.7483L64.4446 67.8712L64.2766 67.8058C63.838 67.6124 63.4966 67.5105 63.2576 67.5026C63.1709 67.5 63.0107 67.4765 62.7927 67.4477C62.4513 67.4007 61.653 67.2909 61.4928 67.3484C61.2301 67.5 61.0699 67.7143 61.0122 67.9966C60.9518 68.2919 61.0122 68.5899 61.196 68.9062C61.3326 69.1414 61.5348 69.3165 61.8105 69.4341C62.0942 69.557 62.3831 69.5962 62.6956 69.5517L62.9241 69.5178L63.1867 71.0128L62.9529 71.052C62.777 71.0807 62.6037 71.0964 62.433 71.0964L62.4303 71.099ZM51.5892 69.4106C55.4051 69.7295 60.9806 70.2208 61.372 70.3959C61.779 70.5789 62.2045 70.6547 62.6352 70.6207L62.5354 70.0431C62.2202 70.0562 61.9156 69.9987 61.6241 69.8706C61.2564 69.7112 60.9728 69.4681 60.7863 69.144C60.5447 68.7258 60.4633 68.3076 60.5499 67.9025C60.6366 67.4843 60.8782 67.1602 61.2695 66.9355C61.4796 66.8152 61.9313 66.8518 62.8637 66.9799C63.0449 67.006 63.2182 67.0296 63.2812 67.0296C63.4782 67.0374 63.7119 67.0871 63.9877 67.1811C63.8564 66.8963 63.6515 66.4833 63.3994 65.9815C63.4756 66.2115 63.4572 66.2873 63.4204 66.3474L63.3521 66.4624L63.2077 66.4676C63.0659 66.4729 62.8479 66.4493 62.5905 66.431C62.1309 66.3944 61.175 66.3186 60.978 66.431C60.6156 66.6401 60.3398 66.9067 60.1586 67.2256C59.9774 67.5418 59.896 67.8921 59.9144 68.2684C59.9302 68.5768 59.938 68.7624 54.0579 69.2276C53.2122 69.2956 52.3666 69.3557 51.5919 69.4106H51.5892ZM54.1235 47.8428C54.4781 48.5876 55.0506 49.7141 55.7255 51.0183C55.6914 50.8824 55.7072 50.8275 55.7334 50.7779L55.7938 50.6655L55.9304 50.6498C55.9934 50.6446 56.0486 50.6498 56.0958 50.655L54.3809 47.7173C54.2916 47.7643 54.205 47.8062 54.1262 47.8401L54.1235 47.8428ZM67.3414 66.5748C67.1392 66.5748 66.824 66.0573 64.9463 62.9575C63.6857 60.8744 62.0705 58.1797 60.5105 55.5713C58.378 52.0063 56.1746 48.3263 55.849 47.8584C55.6625 47.7853 55.5102 47.652 55.3973 47.4586C55.2686 47.239 55.2344 47.0168 55.2922 46.7999L55.3316 46.6483L55.4892 46.6248C55.617 46.6074 56.1589 47.3906 57.1148 48.9745C57.9421 50.3414 59.0556 52.2023 60.2374 54.1756C62.8847 58.5979 66.1438 64.0369 66.7689 64.9308C66.9291 64.8759 67.0919 64.8681 67.2547 64.9099C67.4832 64.9674 67.6618 65.1059 67.7852 65.3202C67.9139 65.5398 67.948 65.7672 67.885 65.9946C67.8246 66.2219 67.6802 66.3997 67.4596 66.5277C67.4149 66.5539 67.3808 66.5748 67.3388 66.5748H67.3414ZM66.979 65.3647C67.1497 65.6391 67.2862 65.8482 67.3782 65.9841C67.4018 65.9501 67.4175 65.9135 67.4281 65.8717C67.4569 65.7672 67.4386 65.6678 67.3755 65.5555C67.3151 65.4535 67.2416 65.3934 67.1392 65.3673C67.0866 65.3542 67.0315 65.3516 66.979 65.362V65.3647Z" fill="currentColor"/>
<path d="M59.3732 65.8247C58.9451 65.8247 58.5249 65.7332 58.1178 65.5503C57.5453 65.2941 57.1067 64.9047 56.8099 64.395C56.5473 63.9403 56.4003 63.475 56.3792 63.0176C56.3556 62.5498 56.4607 62.1133 56.6839 61.7187C56.9071 61.324 57.2433 60.9973 57.6792 60.749C57.9786 60.5765 58.6798 60.6157 59.5649 60.6863C59.6568 60.6941 59.7435 60.6993 59.8222 60.7072C59.2865 59.5624 56.7574 55.2081 54.6879 51.643C49.3173 42.396 49.3567 42.3489 49.5563 42.1241L49.6692 41.9961L49.8452 42.0614C50.1341 42.1921 50.3652 42.247 50.5385 42.2339C50.6593 42.2235 50.8878 42.1607 51.287 41.9229L51.4918 41.8L52.2718 43.1147L52.0696 43.2349C51.9908 43.282 51.8647 43.3552 51.7361 43.3682C52.3926 44.8084 54.8481 49.3979 56.873 53.1851C61.7184 62.2414 61.6921 62.2675 61.503 62.474L61.3901 62.5968L61.2246 62.5315C60.7861 62.3381 60.4447 62.2362 60.2057 62.2283C60.119 62.2257 59.9614 62.2022 59.7408 62.1734C59.3994 62.1264 58.601 62.0166 58.4382 62.0741C58.1756 62.2257 58.0154 62.44 57.9576 62.7223C57.8972 63.015 57.9576 63.313 58.1414 63.6319C58.278 63.8671 58.4802 64.0396 58.756 64.1598C59.0396 64.2827 59.3311 64.3219 59.641 64.2774L59.8695 64.2434L60.1321 65.7385L59.8984 65.7777C59.7224 65.8064 59.5491 65.8221 59.3784 65.8221L59.3732 65.8247ZM58.3148 65.119C58.7218 65.302 59.1473 65.3778 59.578 65.3438L59.4782 64.7662C59.1631 64.7792 58.8584 64.7217 58.5669 64.5937C58.1992 64.4342 57.9156 64.1912 57.7291 63.8671C57.4875 63.4489 57.4061 63.0307 57.4928 62.6256C57.5794 62.2074 57.821 61.8833 58.2124 61.6585C58.4198 61.5383 58.8715 61.5749 59.8065 61.703C59.9877 61.7291 60.1584 61.75 60.2241 61.7526C60.4184 61.7605 60.6469 61.8075 60.92 61.9016C60.7913 61.6272 60.5944 61.2351 60.3501 60.7594C60.4131 60.945 60.3974 61.013 60.3659 61.0679L60.2976 61.1855L60.1505 61.1907C60.0192 61.1907 59.7881 61.1724 59.5334 61.1541C59.0738 61.1175 58.1178 61.0417 57.9208 61.1541C57.5584 61.3606 57.2827 61.6298 57.1015 61.9487C56.9176 62.2701 56.8388 62.6099 56.8572 62.9915C56.8756 63.3757 56.999 63.7678 57.2249 64.1572C57.4691 64.5806 57.8368 64.9047 58.3174 65.119H58.3148ZM50.1341 42.6599C50.7644 43.938 53.0518 47.8742 55.1003 51.4026C56.9308 54.5546 58.1414 56.6534 58.9372 58.0648C58.1703 56.6168 57.2905 54.9702 56.4528 53.4073C51.1951 43.5773 50.9981 43.0729 51.1268 42.8377L51.1872 42.7253L51.3237 42.7096C51.3841 42.7044 51.4367 42.707 51.4839 42.7148L51.3237 42.4456C51.0296 42.6024 50.7854 42.6861 50.5779 42.7044C50.4413 42.7148 50.2943 42.7044 50.1341 42.6625V42.6599ZM64.2842 61.3005C64.082 61.3005 63.7668 60.783 61.8891 57.6806C60.6285 55.5975 59.0134 52.9002 57.4534 50.2944C55.3209 46.732 53.1175 43.052 52.7918 42.5841C52.6053 42.511 52.453 42.3777 52.3401 42.1842C52.214 41.9647 52.1773 41.7425 52.235 41.5256L52.2771 41.374L52.4346 41.3505C52.5624 41.3331 53.1043 42.1163 54.0603 43.7002C54.8875 45.0671 56.0011 46.928 57.1829 48.9013C59.6121 52.9603 62.5561 57.874 63.5068 59.3481C63.7012 57.6361 64.1214 52.103 64.3919 48.2923L65.0143 39.4922L64.8672 48.3106C64.7937 52.7669 64.7018 59.4918 64.7543 60.0851C64.8646 60.2916 64.8909 60.5059 64.8331 60.7202C64.7727 60.9476 64.6283 61.1254 64.4076 61.2534C64.363 61.2796 64.3289 61.3005 64.2868 61.3005H64.2842ZM63.8693 60.0067C64.0662 60.3204 64.2186 60.5608 64.321 60.7098C64.3446 60.6758 64.3604 60.6392 64.3709 60.5974C64.3998 60.4929 64.3814 60.3935 64.3184 60.2812C64.2868 60.2289 64.2396 60.1452 64.279 56.0915C64.0505 58.9221 63.9533 59.7401 63.8693 60.0041V60.0067Z" fill="currentColor"/>
<path d="M55.8743 62.4976L54.1094 59.4527L40.1562 22.2578L46.84 33.7918L55.8743 62.5002V62.4976ZM42.5934 27.4067L53.3793 56.1542L46.3936 33.9565L42.5934 27.4067ZM61.7124 56.873C61.5102 56.873 61.195 56.3555 59.3173 53.2531C58.054 51.17 56.4415 48.4727 54.8789 45.8643C52.7464 42.3019 50.5456 38.6219 50.22 38.1566C50.0335 38.0835 49.8812 37.9502 49.7683 37.7568C49.6396 37.5372 49.6054 37.315 49.6632 37.0981L49.7052 36.9465L49.8628 36.923C49.9906 36.9056 50.5325 37.6879 51.4885 39.2701C52.3131 40.637 53.4266 42.4979 54.6084 44.4686C57.2583 48.8935 60.5175 54.3351 61.1425 55.2316C61.3027 55.1767 61.4655 55.1689 61.6284 55.2107C61.8568 55.2682 62.0354 55.4067 62.1589 55.621C62.2875 55.8406 62.3191 56.068 62.2586 56.2954C62.1982 56.5228 62.0538 56.7005 61.8332 56.8285C61.7886 56.8547 61.7544 56.8756 61.7124 56.8756V56.873ZM61.35 55.6629C61.5207 55.9347 61.6572 56.1464 61.7492 56.2823C61.7728 56.2483 61.7886 56.2117 61.7991 56.1699C61.8279 56.0654 61.8096 55.966 61.7465 55.8537C61.6861 55.7517 61.6126 55.6916 61.5102 55.6655C61.4576 55.6524 61.4025 55.6498 61.35 55.6602V55.6629Z" fill="currentColor"/>
<path d="M69.6722 71.9552C69.5646 71.9552 69.4516 71.9343 69.3387 71.8925C69.0997 71.8063 68.929 71.6573 68.8345 71.456C68.7399 71.2522 68.7347 71.0274 68.8213 70.7895C68.8975 70.5778 69.0262 70.4184 69.1995 70.3165C69.4175 69.8225 70.5153 66.1033 71.1771 63.7954L72.5059 59.1719L71.6393 63.9026C71.1928 66.3385 70.4942 70.2825 70.4706 70.7503C70.552 70.949 70.5494 71.1633 70.4706 71.3855C70.3866 71.6181 70.2342 71.7853 70.0189 71.8821C69.9086 71.9317 69.793 71.9552 69.6749 71.9552H69.6722ZM70.3971 68.1445C69.6486 70.6197 69.5593 70.6615 69.4726 70.7033C69.3755 70.7503 69.3098 70.8288 69.2652 70.949C69.2074 71.1058 69.2363 71.1999 69.2599 71.2548C69.3019 71.341 69.3781 71.4038 69.4963 71.4482C69.6197 71.4926 69.7221 71.4926 69.8193 71.4482C69.9138 71.4064 69.9769 71.3332 70.0189 71.2234C70.0635 71.1032 70.0609 71.0013 70.0163 70.9045C69.9874 70.8444 69.9454 70.7556 70.3944 68.1445H70.3971Z" fill="currentColor"/>
<path d="M49.3385 85.8338L51.7861 83.5259C54.6146 80.8574 59.1133 76.4926 59.6202 75.685C59.3523 75.3661 59.179 75.0002 59.1054 74.5977C59.024 74.1534 59.0687 73.6881 59.242 73.2177C59.3602 72.8936 59.9222 72.4754 60.647 71.9631C60.7285 71.9056 60.8046 71.8508 60.8729 71.8037C59.8014 71.2392 55.2738 69.3809 51.2372 67.7264C45.8823 65.5283 43.3559 64.4724 42.1662 63.9209C42.161 63.9288 42.1531 63.934 42.1478 63.9392C42.0796 64.0072 41.9876 64.0359 41.8983 64.0229C41.7303 63.9967 41.6515 63.8425 41.5674 63.6779C41.5569 63.657 41.5438 63.6334 41.5307 63.6047C41.1078 63.3747 41.1131 63.2989 41.1184 63.1943L41.1262 63.0297L41.2996 62.967C41.5779 62.8886 41.7618 63.0715 41.88 63.2597C41.9194 63.2806 41.9614 63.2989 42.006 63.3224C42.0612 63.2153 42.1242 63.0715 42.1872 62.8859L42.266 62.6586L46.6203 64.2241L46.5442 64.4437C46.5126 64.5325 46.4627 64.6737 46.3682 64.7678C47.6524 65.3924 51.7283 67.0573 55.0952 68.4295C63.3048 71.7776 63.3022 71.8194 63.289 72.0938L63.2812 72.2611L63.1104 72.3186C62.6509 72.4519 62.3226 72.593 62.1335 72.7368C62.0652 72.7917 61.9286 72.8753 61.7422 72.9929C61.4507 73.1759 60.7678 73.6019 60.6812 73.7509C60.5788 74.0331 60.5919 74.2997 60.7311 74.5559C60.8755 74.8199 61.1119 75.0107 61.4585 75.1361C61.7159 75.2302 61.9812 75.2328 62.2727 75.1466C62.5694 75.0577 62.8163 74.9035 63.0264 74.6709L63.1814 74.501L64.3474 75.4785L64.1925 75.6588C63.7933 76.1267 63.2864 76.4482 62.6876 76.618C62.2018 76.7984 56.0879 81.0639 52.0908 83.8918L49.3437 85.8364L49.3385 85.8338ZM61.2511 71.4848C61.4585 71.6129 61.4927 71.6809 61.5032 71.7514L61.5242 71.8821L61.4165 71.9788C61.3089 72.0677 61.1276 72.1958 60.9175 72.3447C60.542 72.6113 59.762 73.1628 59.6832 73.3745C59.5414 73.7666 59.502 74.1455 59.5677 74.5088C59.6333 74.8669 59.7988 75.1884 60.0535 75.4654C60.2636 75.6902 60.3897 75.8287 56.1851 79.9452C55.581 80.5359 54.9717 81.1266 54.415 81.6624C57.5428 79.4669 62.1309 76.2757 62.5458 76.158C62.9765 76.0378 63.3494 75.8235 63.6593 75.5203L63.2076 75.1413C62.9739 75.3504 62.7034 75.502 62.3987 75.5935C62.0127 75.7059 61.6398 75.7007 61.2878 75.5726C60.8335 75.4079 60.5026 75.1387 60.303 74.7728C60.1008 74.3964 60.0745 73.9939 60.2295 73.5705C60.3109 73.3458 60.6812 73.0844 61.4796 72.5852C61.6345 72.4885 61.7816 72.397 61.8315 72.3578C61.9864 72.2376 62.1991 72.1252 62.4723 72.0206C62.186 71.8847 61.7658 71.6992 61.2458 71.4796L61.2511 71.4848ZM42.4315 63.5237C43.1852 63.8687 44.3486 64.3653 45.709 64.9324C45.5961 64.8514 45.5698 64.7965 45.5593 64.7442L45.5357 64.6188L45.6302 64.5195C45.6749 64.475 45.7169 64.4437 45.7589 64.4175L42.547 63.2649C42.5103 63.359 42.4709 63.4453 42.4315 63.5237ZM64.5286 69.4514C64.2213 69.4514 63.3416 69.1509 60.4842 68.176C58.1705 67.3866 55.195 66.3542 52.314 65.3558C48.3799 63.9915 44.3171 62.5801 43.7656 62.4312C43.5765 62.4965 43.3717 62.4887 43.1616 62.4129C42.9226 62.3266 42.7519 62.1776 42.6573 61.9764L42.5917 61.8352L42.6967 61.7176C42.7825 61.6235 43.7034 61.8762 45.4595 62.4756C46.9749 62.9957 49.0312 63.7066 51.211 64.462C56.0984 66.1556 62.1072 68.2387 63.163 68.5262C63.2496 68.3824 63.3704 68.2727 63.5201 68.1995C63.7329 68.0976 63.9587 68.0897 64.1925 68.1733C64.4341 68.2596 64.6048 68.4138 64.7046 68.6255C64.8044 68.8372 64.8096 69.0672 64.723 69.3077C64.6914 69.3939 64.6704 69.454 64.5312 69.454L64.5286 69.4514ZM63.5989 68.7222C63.9062 68.8215 64.1452 68.8973 64.3054 68.9418C64.3001 68.8999 64.2896 68.8607 64.2712 68.8241C64.2266 68.7274 64.1478 68.6595 64.027 68.6151C63.9167 68.5732 63.8195 68.5759 63.725 68.6229C63.6751 68.6464 63.6331 68.6804 63.5989 68.7222Z" fill="currentColor"/>
<path d="M56.1125 74.6474C55.7947 74.6474 55.4822 74.5925 55.1776 74.4827C54.6812 74.3024 54.2715 74.041 53.9564 73.7039C53.6386 73.3615 53.4338 72.959 53.3523 72.5121C53.2709 72.0677 53.3156 71.6025 53.4889 71.132C53.6071 70.808 54.1691 70.3898 54.8939 69.8775C54.9675 69.8252 55.0384 69.7756 55.104 69.7285C53.9537 69.1927 49.2055 67.4756 45.3161 66.0694C35.2287 62.4234 35.2313 62.3606 35.2366 62.0627L35.2418 61.8928L35.4178 61.8301C35.7224 61.7438 35.9378 61.6419 36.0612 61.519C36.1479 61.4328 36.2818 61.2394 36.4341 60.8029L36.5129 60.5781L37.96 61.0852L37.8812 61.3073C37.8497 61.3936 37.8024 61.5321 37.7105 61.6236C39.1444 62.3058 43.9898 64.2529 47.9843 65.8551C57.5464 69.6945 57.5464 69.7311 57.5333 70.0108L57.5254 70.1781L57.3547 70.233C56.8951 70.3662 56.5668 70.5074 56.3778 70.6511C56.3095 70.7034 56.1729 70.7897 55.9865 70.9047C55.6949 71.0876 55.0121 71.5136 54.9255 71.6626C54.823 71.9449 54.8362 72.2115 54.9754 72.4676C55.1198 72.7316 55.3562 72.9224 55.7028 73.0479C55.9602 73.1419 56.2254 73.1446 56.517 73.0583C56.8137 72.9694 57.0606 72.8152 57.2707 72.5826L57.4256 72.4127L58.5917 73.3902L58.4367 73.5706C58.0375 74.0384 57.5307 74.3625 56.9293 74.5298C56.6535 74.6056 56.383 74.6448 56.1151 74.6448L56.1125 74.6474ZM55.54 69.4358C55.7081 69.5377 55.7396 69.5978 55.7501 69.6632L55.7737 69.7965L55.6661 69.8958C55.5584 69.9847 55.3772 70.1127 55.1697 70.2617C54.7941 70.5283 54.0115 71.0824 53.9354 71.2915C53.7935 71.6835 53.7542 72.0625 53.8198 72.4258C53.8881 72.7891 54.0457 73.1001 54.3057 73.3824C54.5683 73.6647 54.9149 73.8842 55.3404 74.0384C55.8079 74.2083 56.2858 74.2214 56.798 74.0776C57.2287 73.9574 57.6016 73.7431 57.9115 73.4399L57.4598 73.0609C57.226 73.27 56.9555 73.4216 56.6509 73.5131C56.2648 73.6255 55.8919 73.6202 55.54 73.4922C55.0857 73.3275 54.7547 73.0583 54.5552 72.6924C54.3529 72.316 54.3267 71.9135 54.4816 71.4901C54.563 71.2653 54.9333 71.004 55.7317 70.5048C55.8867 70.4081 56.0337 70.3166 56.0836 70.2774C56.2359 70.1598 56.4434 70.05 56.7113 69.9455C56.4329 69.8174 56.0337 69.6449 55.5374 69.4358H55.54ZM36.0244 62.1045C37.3323 62.6795 41.6262 64.232 45.4763 65.6225C48.914 66.8666 51.1988 67.7003 52.7168 68.2701C51.1936 67.6507 49.455 66.9528 47.8031 66.289C37.4295 62.1254 36.9515 61.864 36.899 61.6001L36.8727 61.4746L36.9673 61.3753C37.0093 61.3335 37.0513 61.3021 37.0933 61.276L36.7965 61.1714C36.6731 61.4798 36.5392 61.702 36.3921 61.8458C36.2949 61.9398 36.1741 62.0235 36.0244 62.0993V62.1045ZM58.7755 67.3658C58.4682 67.3658 57.5885 67.0652 54.7311 66.0903C52.4174 65.301 49.4419 64.2686 46.5609 63.2702C42.6268 61.9059 38.564 60.4945 38.0125 60.3455C37.8234 60.4109 37.6186 60.4056 37.4085 60.3272C37.1695 60.241 36.9988 60.092 36.9042 59.8907L36.8386 59.7496L36.9436 59.632C37.0294 59.5379 37.9503 59.7914 39.7064 60.3926C41.2218 60.9127 43.2781 61.6236 45.4579 62.3815C49.9409 63.9367 55.3693 65.8185 57.0475 66.3386C56.0915 64.9011 52.8402 60.3978 50.5843 57.3058L45.3791 50.168L50.9625 57.0183C53.783 60.4788 58.0586 65.6904 58.4787 66.1112C58.6967 66.2001 58.8543 66.3465 58.9488 66.5477C59.0486 66.7594 59.0539 66.9894 58.9672 67.2273C58.9357 67.3135 58.9147 67.3736 58.7755 67.3736V67.3658ZM57.7513 66.6052C58.1058 66.7202 58.3763 66.8065 58.5523 66.8561C58.547 66.8143 58.5365 66.7751 58.5181 66.7385C58.4735 66.6418 58.3947 66.5738 58.2739 66.532C58.2161 66.5111 58.1242 66.4771 55.5374 63.346C57.1893 65.6591 57.6462 66.3491 57.7513 66.6052Z" fill="currentColor"/>
<path d="M53.2402 73.6307L49.9206 72.4258L15.207 52.8574L27.7762 57.4156L53.2402 73.6281V73.6307ZM20.4017 55.2437L47.2287 70.3636L27.5451 57.8312L20.4017 55.2437ZM53.9519 65.6225C53.6446 65.6225 52.7648 65.3219 49.9075 64.347C47.5964 63.5577 44.6182 62.5253 41.7399 61.5269C37.8032 60.16 33.7378 58.7512 33.1862 58.5996C32.9945 58.665 32.7923 58.6571 32.5822 58.5813C32.3432 58.4951 32.1725 58.3461 32.078 58.1448L32.0123 58.0037L32.1174 57.8861C32.2032 57.792 33.1241 58.0455 34.8802 58.6467C36.3955 59.1668 38.4518 59.8777 40.6316 60.6356C45.5164 62.3293 51.5252 64.4124 52.581 64.6972C52.6677 64.5535 52.7885 64.4437 52.9382 64.3705C53.1509 64.2686 53.3767 64.2608 53.6105 64.3444C53.8495 64.4307 54.0228 64.5822 54.1226 64.7966C54.2224 65.0083 54.2276 65.2383 54.141 65.4761C54.1095 65.5624 54.0884 65.6225 53.9493 65.6225H53.9519ZM53.0222 64.8933C53.3295 64.9926 53.5685 65.0684 53.7287 65.1128C53.7234 65.071 53.7129 65.0318 53.6945 64.9952C53.6499 64.8959 53.5711 64.8305 53.4503 64.7887C53.3373 64.7469 53.2428 64.7495 53.1483 64.7966C53.0984 64.8201 53.0563 64.8541 53.0222 64.8959V64.8933Z" fill="currentColor"/>
<path d="M69.2874 72.276C69.1692 72.276 69.0589 72.2525 68.9512 72.2028C68.7464 72.1061 68.5993 71.9389 68.5127 71.6984C68.4365 71.4867 68.4312 71.2854 68.4969 71.0946C68.3446 70.5745 66.782 67.0252 65.7998 64.835L63.8301 60.4414L66.2226 64.6206C67.4543 66.7717 69.466 70.24 69.7496 70.6137C69.9413 70.7157 70.0779 70.8803 70.1593 71.1025C70.2433 71.3351 70.2355 71.5599 70.133 71.7716C70.0306 71.9807 69.8599 72.1296 69.6209 72.2159C69.5054 72.2577 69.3951 72.2786 69.2874 72.2786V72.276ZM68.011 68.6639C69.0353 71.0371 68.9959 71.1286 68.9565 71.2175C68.9118 71.3142 68.9118 71.4161 68.9565 71.539C69.0011 71.6566 69.0642 71.735 69.1508 71.7768C69.2375 71.816 69.3373 71.816 69.4581 71.7716C69.5789 71.7271 69.6577 71.6618 69.705 71.5651C69.7496 71.471 69.7522 71.3769 69.7128 71.2645C69.6682 71.1443 69.6025 71.0659 69.5054 71.0215C69.445 70.9927 69.3557 70.9509 68.0137 68.6639H68.011Z" fill="currentColor"/>
<path d="M63.303 95.6839L63.6864 92.3489C64.1303 88.4937 64.7553 82.2733 64.624 81.3297C64.2143 81.2565 63.844 81.0867 63.5262 80.8253C63.1769 80.5378 62.9117 80.151 62.7383 79.6805C62.6202 79.3564 62.7804 78.6769 63.0036 77.8196C63.0272 77.7255 63.0509 77.634 63.0719 77.553C61.8848 77.8065 57.218 79.278 53.0554 80.5927C47.5324 82.336 44.9167 83.1436 43.6482 83.4808C43.6482 83.4912 43.6482 83.4991 43.6482 83.5095C43.6404 83.6036 43.5878 83.6872 43.5117 83.7343C43.3646 83.8205 43.2044 83.7526 43.0363 83.682C43.0153 83.6742 42.9891 83.6611 42.9602 83.6507C42.4901 83.7447 42.4428 83.6846 42.3798 83.601L42.2773 83.4703L42.3693 83.3109C42.5321 83.073 42.7895 83.0966 43.0022 83.1645C43.0442 83.1541 43.0915 83.1436 43.1387 83.1305C43.1125 83.0129 43.0678 82.8639 42.9969 82.681L42.9103 82.4562L47.2567 80.8697L47.3407 81.0893C47.3749 81.1781 47.4274 81.3167 47.4143 81.45C48.8009 81.1076 53.0003 79.7746 56.4669 78.6716C64.9181 75.9874 64.9418 76.0188 65.1098 76.2383L65.2123 76.3716L65.1177 76.5232C64.8498 76.9205 64.6896 77.2368 64.6397 77.4694C64.6214 77.5556 64.5715 77.7072 64.5058 77.9163C64.4008 78.243 64.1539 79.0062 64.1828 79.1735C64.2878 79.4557 64.4717 79.6518 64.7422 79.7589C65.0232 79.8687 65.3278 79.8635 65.6745 79.738C65.9318 79.6439 66.1393 79.4767 66.3048 79.2257C66.4755 78.9696 66.5648 78.6926 66.5726 78.3789L66.5805 78.1489H68.1064V78.3894C68.1037 79.0036 67.9225 79.5734 67.5732 80.0856C67.3185 80.5352 65.3882 87.7149 64.1539 92.4377L63.3056 95.6865L63.303 95.6839ZM63.3371 77.0564C63.4448 77.0564 63.4894 77.0799 63.5288 77.1139L63.6286 77.2002L63.6103 77.3413C63.5866 77.4772 63.5315 77.6915 63.4658 77.9398C63.3503 78.3842 63.1086 79.3094 63.1848 79.5185C63.3266 79.9105 63.5446 80.2268 63.8282 80.4594C64.1145 80.6946 64.4375 80.8331 64.8183 80.8802C65.1256 80.9194 65.3121 80.9429 64.75 86.787C64.6686 87.626 64.5846 88.4676 64.5032 89.236C65.4801 85.5534 66.9351 80.1719 67.1767 79.819C67.4288 79.4505 67.5759 79.048 67.6179 78.6194H67.0296C66.9876 78.9278 66.8773 79.2179 66.7013 79.4819C66.4807 79.8164 66.1892 80.049 65.8373 80.1771C65.383 80.3418 64.9549 80.347 64.5662 80.1954C64.167 80.0386 63.8886 79.7432 63.7337 79.3224C63.6523 79.0977 63.7652 78.6612 64.0541 77.7699C64.1092 77.5948 64.1644 77.4328 64.1775 77.3701C64.2195 77.1793 64.3088 76.9571 64.4507 76.7036C64.146 76.782 63.7022 76.9101 63.1612 77.0721C63.2321 77.0616 63.2899 77.0564 63.3371 77.0564ZM43.5248 82.7385C43.5563 82.8352 43.5826 82.9267 43.6036 83.0103C44.4046 82.7908 45.6153 82.4275 47.0256 81.9936C46.889 82.0041 46.8339 81.9779 46.7892 81.9439L46.6894 81.8655L46.6973 81.7296C46.7026 81.6669 46.7157 81.6146 46.7314 81.5702L43.5274 82.7411L43.5248 82.7385ZM43.1099 81.7558C42.9917 81.7558 42.8814 81.7322 42.7737 81.6826L42.6319 81.6172L42.6371 81.4604C42.6424 81.3332 43.5108 80.9386 45.2424 80.2764C46.7393 79.704 48.7747 78.9356 50.9308 78.1202C55.7683 76.2932 61.7167 74.0429 62.7121 73.5855C62.6858 73.4182 62.7068 73.2588 62.7751 73.1072C62.8723 72.8929 63.0377 72.7413 63.2741 72.6576C63.5131 72.5714 63.7442 72.5766 63.9569 72.6759C64.1696 72.7753 64.3246 72.9478 64.4113 73.1856C64.4795 73.3738 63.155 73.9889 60.4378 75.0308C58.1582 75.9064 55.2089 77.0198 52.3568 78.0966C48.4595 79.5681 44.4361 81.0867 43.9161 81.3245C43.8111 81.497 43.6535 81.6198 43.4434 81.6983C43.3278 81.7401 43.2175 81.761 43.1099 81.761V81.7558ZM63.5998 73.0654C63.5472 73.0654 63.4921 73.0758 63.4343 73.0967C63.3214 73.1359 63.2505 73.2013 63.2084 73.2954C63.1848 73.345 63.1743 73.3973 63.1769 73.4522C63.4763 73.332 63.7101 73.2353 63.8598 73.1699C63.8309 73.1412 63.7967 73.1176 63.7573 73.0994C63.7074 73.0758 63.6549 73.0654 63.6024 73.0654H63.5998Z" fill="currentColor"/>
<path d="M37.3424 86.5857C37.2216 86.5857 37.1901 86.5439 37.1507 86.4969L37.043 86.3636L37.1376 86.2015C37.3161 85.9402 37.4133 85.7232 37.4291 85.5533C37.4396 85.4331 37.4186 85.1979 37.2531 84.7666L37.1664 84.5445L38.603 84.0061L38.687 84.2256C38.7186 84.3119 38.7711 84.4478 38.7606 84.5758C40.2995 84.1838 45.2684 82.5738 49.3679 81.246C59.1717 78.0705 59.1901 78.0992 59.3634 78.3214L59.4658 78.4547L59.3713 78.6063C59.1034 79.0035 58.9432 79.3198 58.8933 79.5524C58.8749 79.6387 58.825 79.7902 58.7594 79.9993C58.6543 80.326 58.4074 81.0892 58.4363 81.2565C58.5414 81.5388 58.7252 81.7348 58.9957 81.842C59.2767 81.9517 59.5814 81.9465 59.928 81.8211C60.1854 81.727 60.3903 81.5597 60.5583 81.3088C60.729 81.0526 60.8183 80.7756 60.8262 80.4619L60.8341 80.232H62.3599V80.4724C62.3573 81.0866 62.1761 81.659 61.8242 82.1713C61.4696 82.6862 61.01 83.0495 60.4533 83.2533C59.9569 83.4337 59.4737 83.4938 59.0141 83.4363C58.5493 83.3762 58.1343 83.2011 57.7824 82.9109C57.4331 82.6234 57.1679 82.2366 56.9945 81.7662C56.8764 81.4421 57.0365 80.7625 57.2598 79.9052C57.2834 79.8164 57.3044 79.7327 57.3228 79.6569C56.0964 79.981 51.3481 81.7061 47.4613 83.1148C39.4959 86.0055 37.7994 86.5831 37.345 86.5831L37.3424 86.5857ZM37.7757 84.8215C37.8808 85.1378 37.9202 85.3913 37.9018 85.5978C37.8887 85.7311 37.8493 85.8748 37.7836 86.0264C39.1571 85.6291 43.4484 84.0714 47.2958 82.6757C50.731 81.429 53.021 80.6057 54.5521 80.0725C52.9869 80.5717 51.2063 81.1493 49.5124 81.6982C38.8735 85.1456 38.3377 85.2502 38.1276 85.0829L38.0279 85.0019L38.0357 84.8659C38.041 84.8058 38.0515 84.7536 38.0672 84.7117L37.7731 84.8215H37.7757ZM57.6091 79.1447C57.6984 79.1447 57.7404 79.1656 57.7771 79.1969L57.8822 79.2832L57.8638 79.4296C57.8402 79.5655 57.785 79.7798 57.7194 80.0281C57.6038 80.4724 57.3622 81.3976 57.4384 81.6067C57.5802 81.9962 57.7982 82.315 58.0818 82.5476C58.3681 82.7829 58.6911 82.9214 59.0719 82.9684C59.4553 83.0155 59.865 82.9632 60.2878 82.809C60.7553 82.6391 61.1282 82.3438 61.4276 81.9047C61.6797 81.5362 61.8268 81.1337 61.8688 80.705H61.2805C61.2385 81.0134 61.1282 81.3035 60.9523 81.5675C60.7317 81.9021 60.4402 82.1347 60.0882 82.2628C59.6339 82.4274 59.2058 82.4326 58.8171 82.2811C58.4179 82.1242 58.1396 81.8289 57.9846 81.4081C57.9032 81.1833 58.0161 80.7468 58.305 79.8556C58.3602 79.6805 58.4153 79.5184 58.4285 79.4557C58.4705 79.2675 58.5571 79.0506 58.6963 78.7997C58.4022 78.8781 57.982 79.0035 57.4673 79.1604C57.525 79.1525 57.5723 79.1473 57.6091 79.1473V79.1447ZM37.3608 83.8414C37.2426 83.8414 37.1323 83.8179 37.0246 83.7682L36.8828 83.7029L36.8881 83.5461C36.8933 83.4189 37.7617 83.0242 39.4933 82.3621C40.9902 81.7897 43.0256 81.0213 45.1817 80.2058C49.6201 78.5279 54.996 76.497 56.619 75.8201C54.9592 75.3314 49.557 73.9592 45.833 73.034L37.2347 70.896L45.9355 72.5713C50.3318 73.4182 56.9709 74.6753 57.567 74.7276C57.7903 74.657 58.0083 74.6675 58.2079 74.7616C58.4206 74.8609 58.5755 75.0334 58.6622 75.2712C58.7305 75.4594 57.406 76.0745 54.6887 77.1165C52.4065 77.9921 49.4599 79.1055 46.6078 80.1823C42.7131 81.6538 38.6897 83.1723 38.1697 83.4102C38.0646 83.5827 37.907 83.7055 37.6969 83.7839C37.5814 83.8257 37.4711 83.8466 37.3634 83.8466L37.3608 83.8414ZM53.5305 74.4924C56.2933 75.2085 57.0864 75.4437 57.3333 75.5744C57.6774 75.4359 57.9426 75.3287 58.1081 75.2556C58.0792 75.2268 58.045 75.2033 58.0056 75.185C57.9085 75.1406 57.806 75.138 57.6852 75.1824C57.6275 75.2033 57.5329 75.2347 53.5305 74.4924Z" fill="currentColor"/>
<path d="M15.8594 92.2574L28.4338 87.7097L58.4096 83.8388L55.0901 85.0385L15.8594 92.2574ZM28.5205 88.1749L21.3771 90.7624L51.697 85.1823L28.5205 88.1749ZM32.5333 85.59C32.4152 85.59 32.3049 85.5665 32.1972 85.5168L32.0554 85.4515L32.0606 85.2946C32.0659 85.1674 32.9343 84.7728 34.6658 84.1107C36.1628 83.5383 38.1981 82.7699 40.3543 81.9544C45.1918 80.1275 51.1429 77.8771 52.1356 77.4197C52.1093 77.2524 52.1303 77.093 52.1986 76.9414C52.2958 76.7271 52.4612 76.5781 52.6976 76.4919C52.9366 76.4056 53.1677 76.4109 53.3804 76.5102C53.5931 76.6095 53.7455 76.782 53.8347 77.0198C53.903 77.208 52.5794 77.8231 49.8639 78.8651C47.5843 79.7406 44.635 80.8541 41.7856 81.9283C37.8882 83.3997 33.8622 84.9209 33.3422 85.1587C33.2372 85.3312 33.0796 85.4541 32.8695 85.5325C32.7539 85.5743 32.6436 85.5952 32.536 85.5952L32.5333 85.59ZM53.0232 76.8996C52.9707 76.8996 52.9156 76.9101 52.8578 76.931C52.7449 76.9728 52.6739 77.0355 52.6319 77.1296C52.6083 77.1793 52.5978 77.2315 52.6004 77.2864C52.8998 77.1662 53.1309 77.0695 53.2832 77.0041C53.2543 76.9754 53.2202 76.9519 53.1808 76.9336C53.1309 76.9101 53.0784 76.8996 53.0259 76.8996H53.0232Z" fill="currentColor"/>
<path d="M69.3138 72.7227C69.1615 72.7227 69.0092 72.6783 68.8569 72.592C68.6625 72.4796 68.526 72.3281 68.4524 72.1399C68.0007 71.8393 64.5104 70.1195 62.3438 69.0688L58 66.9648L62.5303 68.635C64.8624 69.4949 68.6441 70.8644 69.1037 70.969C69.3165 70.9245 69.5265 70.9611 69.7314 71.0813C69.9467 71.2068 70.0859 71.3845 70.1437 71.6093C70.2015 71.8341 70.1647 72.0588 70.0387 72.2758C69.91 72.4953 69.7366 72.6365 69.5187 72.6966C69.4504 72.7149 69.3821 72.7227 69.3138 72.7227ZM66.5143 70.5874C68.8332 71.7504 68.8595 71.8445 68.8857 71.9386C68.9146 72.0405 68.9803 72.119 69.0932 72.1843C69.2377 72.2679 69.3348 72.2575 69.3952 72.2418C69.4872 72.2183 69.5633 72.1529 69.6263 72.0432C69.692 71.9308 69.7104 71.8315 69.6841 71.7269C69.6579 71.625 69.5975 71.5518 69.495 71.4917C69.3847 71.429 69.2823 71.4107 69.1773 71.4394C69.1142 71.4577 69.0197 71.4838 66.5116 70.59L66.5143 70.5874Z" fill="currentColor"/>
<path d="M56.6015 98.4383C56.5778 98.4383 56.5568 98.4331 56.5332 98.4279L56.3704 98.3913L56.3388 98.2109C56.31 97.9234 56.5227 97.7771 56.7302 97.6934C56.7564 97.6568 56.7853 97.6203 56.8142 97.5784C56.717 97.5053 56.5857 97.419 56.415 97.3249L56.2049 97.2099L58.5107 93.2136L58.7156 93.3286C58.7996 93.3757 58.9283 93.4489 59.0045 93.5586C59.8475 92.4086 62.2006 88.7025 64.144 85.6419C68.8817 78.1799 68.9238 78.1878 69.1916 78.2479L69.3545 78.2845L69.3807 78.4622C69.4333 78.9379 69.5147 79.2829 69.625 79.492C69.667 79.5704 69.7248 79.7168 69.8088 79.918C69.9375 80.2369 70.2421 80.9792 70.3734 81.0889C70.6361 81.2379 70.9013 81.2719 71.1797 81.1804C71.466 81.0863 71.6944 80.8851 71.8809 80.5662C72.0175 80.331 72.0674 80.0696 72.0332 79.7716C71.9965 79.4658 71.8862 79.1966 71.6918 78.951L71.55 78.7706L72.7213 77.7983L72.8736 77.9813C73.2676 78.4544 73.4987 79.0058 73.5617 79.6227C73.6562 80.1297 76.8156 86.8625 78.9192 91.2717L80.3663 94.3035L78.5069 91.5043C76.3586 88.2686 72.8185 83.1014 72.1094 82.4637C71.747 82.6702 71.3557 82.7747 70.9433 82.78C70.4811 82.7826 70.0373 82.6571 69.6013 82.4088C69.3019 82.2363 68.9868 81.6116 68.6034 80.8145C68.5613 80.7256 68.5193 80.642 68.4826 80.5662C67.7367 81.5202 65.1131 85.6341 62.7731 89.3036C59.6689 94.1702 58.1851 96.4624 57.434 97.5314C57.4392 97.5392 57.4445 97.5471 57.4497 97.5549C57.5049 97.6333 57.518 97.7274 57.4891 97.8137C57.434 97.9757 57.2659 98.0254 57.0899 98.0776C57.0689 98.0829 57.04 98.0933 57.0112 98.1012C56.7801 98.3887 56.6829 98.4462 56.6041 98.4462L56.6015 98.4383ZM56.851 97.0348C56.9376 97.0871 57.0164 97.142 57.0873 97.1942C57.5574 96.5147 58.2507 95.4614 59.0517 94.2251C58.9519 94.3218 58.8942 94.3375 58.839 94.3375H58.7103L58.6289 94.2304C58.5922 94.1781 58.5685 94.131 58.5528 94.0866L56.8536 97.0322L56.851 97.0348ZM72.1068 81.9357C72.3746 81.9357 72.9577 82.5552 75.7257 86.5593C76.2063 87.2545 76.6843 87.9524 77.1176 88.5927C75.4867 85.1453 73.1257 80.0931 73.0837 79.6697C73.0391 79.228 72.892 78.8229 72.6478 78.47L72.1961 78.8464C72.3641 79.1104 72.4666 79.4031 72.5033 79.7168C72.548 80.114 72.4771 80.4799 72.2906 80.8014C72.049 81.2196 71.726 81.4967 71.3294 81.6273C70.9223 81.7606 70.5179 81.7162 70.1292 81.4914C69.9191 81.3712 69.7274 80.9635 69.3702 80.0957C69.3019 79.9258 69.2363 79.7664 69.2048 79.7115C69.1129 79.539 69.0393 79.3116 68.9842 79.0268C68.8003 79.2829 68.5456 79.6645 68.2357 80.1349C68.3985 79.9546 68.4747 79.9311 68.543 79.9337H68.6769L68.7531 80.0565C68.824 80.1768 68.9185 80.378 69.0288 80.608C69.2258 81.021 69.6381 81.8835 69.8351 81.9959C70.1975 82.205 70.5599 82.3017 70.9355 82.3043C71.3005 82.3017 71.6472 82.1971 71.9649 81.9932C72.0096 81.9645 72.0516 81.9384 72.1068 81.9384V81.9357ZM55.4407 96.7473L55.3435 96.6218C55.2647 96.5208 55.6753 95.6618 56.5752 94.0448C57.3526 92.6465 58.4162 90.7542 59.5429 88.7469C62.064 84.2567 65.1682 78.7314 65.6331 77.7461C65.507 77.6363 65.4177 77.4978 65.3731 77.3383C65.3101 77.1136 65.339 76.8888 65.465 76.6745C65.5937 76.4549 65.7723 76.3112 66.0008 76.2511C66.2292 76.1909 66.4551 76.2249 66.6783 76.3504C66.8517 76.4497 66.2345 77.7687 64.8268 80.3074C63.645 82.4376 62.1034 85.1767 60.6144 87.8269C58.5816 91.4442 56.4807 95.1817 56.2364 95.6966C56.2679 95.8952 56.2259 96.0913 56.113 96.2847C55.9843 96.5042 55.811 96.6454 55.593 96.7055L55.4407 96.7473ZM66.1242 76.7111C66.0191 76.7398 65.9404 76.8025 65.8773 76.9149C65.8169 77.0169 65.8038 77.1109 65.8327 77.2129C65.8484 77.2652 65.8721 77.3122 65.9088 77.354C66.0612 77.0691 66.1767 76.847 66.2476 76.7006C66.2082 76.7006 66.1662 76.7006 66.1242 76.7137V76.7111Z" fill="currentColor"/>
<path d="M54.4584 103.998C54.4374 103.998 54.4164 103.992 54.3927 103.99L54.2247 103.956L54.1932 103.773C54.1616 103.459 54.096 103.232 53.9962 103.091C53.9279 102.991 53.7598 102.824 53.3528 102.602L53.1427 102.487L53.8964 101.157L54.1039 101.272C54.1853 101.316 54.3113 101.387 54.3875 101.494C55.3119 100.208 58.08 95.7959 60.3622 92.1577C65.8169 83.4621 65.8563 83.4647 66.1294 83.5248L66.2948 83.5614L66.3211 83.7365C66.3736 84.2122 66.455 84.5572 66.5653 84.7663C66.6074 84.8447 66.6651 84.9911 66.7492 85.1923C66.8805 85.5112 67.1825 86.2535 67.3138 86.3633C67.5764 86.5122 67.8417 86.5462 68.1201 86.4547C68.4063 86.3607 68.6348 86.1594 68.8213 85.8405C68.9578 85.6053 69.0077 85.3439 68.9736 85.046C68.9395 84.7402 68.8265 84.471 68.6322 84.2253L68.4904 84.045L69.6617 83.0727L69.814 83.2556C70.2079 83.7287 70.439 84.2828 70.5021 84.8996C70.5651 85.5217 70.4469 86.0941 70.1502 86.6037C69.8849 87.0585 69.554 87.4166 69.1653 87.6649C68.7714 87.9184 68.3381 88.0491 67.8811 88.0517C67.4215 88.0465 66.975 87.9288 66.5391 87.6779C66.2397 87.5054 65.9245 86.8808 65.5411 86.0836C65.5017 86 65.465 85.9242 65.4308 85.851C64.7007 86.886 62.1769 91.2429 60.1101 94.8106C55.1517 103.37 54.7289 104 54.4584 104V103.998ZM53.7913 102.304C54.075 102.479 54.2719 102.649 54.3901 102.819C54.4663 102.929 54.5293 103.064 54.5766 103.221C55.3723 102.04 57.6545 98.1012 59.7004 94.5701C61.5282 91.4154 62.7494 89.3219 63.5793 87.9315C62.7022 89.3167 61.7121 90.8979 60.7692 92.3982C54.8445 101.847 54.503 102.267 54.2352 102.273H54.1065L54.0251 102.165C53.9909 102.116 53.9673 102.069 53.9489 102.024L53.794 102.296L53.7913 102.304ZM65.6146 85.2002L65.6934 85.323C65.7643 85.4433 65.8589 85.6445 65.9692 85.8745C66.1662 86.2875 66.5785 87.15 66.7754 87.2624C67.1379 87.4715 67.516 87.5734 67.8758 87.5708C68.2461 87.5682 68.5823 87.4662 68.9053 87.2597C69.2283 87.0507 69.5094 86.7501 69.7352 86.3606C69.9847 85.932 70.0792 85.4668 70.0267 84.9388C69.9821 84.4971 69.835 84.092 69.5908 83.7365L69.1391 84.1129C69.3071 84.3769 69.4096 84.6696 69.4463 84.9833C69.491 85.3805 69.4201 85.7464 69.2336 86.0679C68.992 86.4861 68.6663 86.7632 68.2724 86.8938C67.8653 87.0271 67.4609 86.9827 67.0722 86.7579C66.8621 86.6377 66.6704 86.23 66.3132 85.3622C66.2449 85.1923 66.1793 85.0329 66.1478 84.978C66.0559 84.8081 65.9849 84.5834 65.9298 84.3037C65.7565 84.552 65.5122 84.9179 65.2207 85.3648C65.3494 85.2185 65.4177 85.1976 65.4833 85.1976H65.6199L65.6146 85.2002ZM52.381 102.016L52.2839 101.891C52.2051 101.79 52.6157 100.931 53.5156 99.3139C54.2929 97.9182 55.3566 96.0233 56.4832 94.0186C58.7969 89.8969 61.6018 84.9048 62.408 83.3497C60.8191 84.0371 55.7978 86.4417 52.3469 88.1144L44.3789 91.9774L52.1263 87.6962C56.042 85.5321 61.9405 82.2468 62.429 81.907C62.5551 81.7084 62.7284 81.5803 62.9411 81.5228C63.1696 81.4627 63.3955 81.4966 63.6187 81.6221C63.792 81.7214 63.1749 83.0396 61.7672 85.5766C60.5854 87.7067 59.0464 90.4458 57.5574 93.0934C55.5247 96.7133 53.4237 100.451 53.1794 100.966C53.2109 101.164 53.1689 101.36 53.056 101.554C52.9299 101.773 52.754 101.914 52.536 101.972L52.3837 102.014L52.381 102.016ZM63.0646 81.9802C62.9595 82.0089 62.8807 82.0717 62.8177 82.184C62.7862 82.2363 62.7389 82.3199 59.1909 84.3115C61.7672 83.0936 62.5288 82.7669 62.802 82.7068C62.9779 82.3801 63.1092 82.1292 63.188 81.9671C63.1486 81.9645 63.1066 81.9671 63.0646 81.9802Z" fill="currentColor"/>
<path d="M41.8047 122.021L48.499 110.493L68.9626 88.3498L67.1925 91.3947L41.8047 122.021ZM48.8666 110.793L45.0665 117.343L64.6871 93.6764L48.8666 110.793ZM49.8121 106.444L49.7149 106.319C49.6361 106.218 50.0467 105.358 50.9466 103.739C51.724 102.341 52.7876 100.448 53.9143 98.4411C56.4355 93.9508 59.5397 88.4282 60.0045 87.4428C59.8784 87.3331 59.7892 87.1945 59.7445 87.0351C59.6815 86.8103 59.7104 86.5856 59.8364 86.3712C59.9651 86.1517 60.1437 86.0079 60.3722 85.9478C60.6007 85.8877 60.8291 85.9217 61.0497 86.0472C61.2231 86.1465 60.6059 87.4655 59.1982 90.0042C58.0164 92.1343 56.4748 94.8734 54.9858 97.5237C52.9531 101.141 50.8521 104.878 50.6078 105.393C50.6393 105.592 50.5973 105.788 50.487 105.981C50.3583 106.201 50.185 106.342 49.967 106.402L49.8147 106.444H49.8121ZM60.5928 86.3948C60.5613 86.3948 60.5298 86.4 60.4956 86.4078C60.3906 86.4366 60.3118 86.4993 60.2487 86.6117C60.1883 86.7136 60.1752 86.8077 60.2041 86.9097C60.2199 86.9619 60.2435 87.009 60.2803 87.0508C60.4326 86.7659 60.5481 86.5437 60.619 86.3974C60.6112 86.3974 60.6007 86.3974 60.5928 86.3974V86.3948Z" fill="currentColor"/>
<path d="M57.752 75.6866L62.3032 74.0661C64.6458 73.2324 68.4276 71.8628 68.8478 71.6485C68.9817 71.4786 69.1682 71.3741 69.4019 71.3322C69.6488 71.2878 69.8694 71.3375 70.0585 71.4734C70.2476 71.6093 70.3631 71.8027 70.4078 72.0536C70.4524 72.3045 70.4078 72.5241 70.2791 72.707C70.1504 72.89 69.9561 73.0076 69.704 73.0494C69.4807 73.0886 69.2785 73.0573 69.1025 72.9606C68.5615 73.0207 64.7771 73.9328 62.4398 74.5157L57.752 75.684V75.6866ZM69.205 71.9621C69.1656 72.017 69.1078 72.098 66.6129 73.0154C69.1419 72.4221 69.2233 72.4796 69.3021 72.5319C69.3914 72.592 69.4912 72.6077 69.6199 72.5868C69.7854 72.558 69.851 72.4875 69.8878 72.4378C69.9429 72.3594 69.9587 72.2601 69.9377 72.1373C69.914 72.0092 69.8642 71.9203 69.7775 71.8576C69.6934 71.7975 69.5989 71.7766 69.4807 71.7975C69.3547 71.8184 69.2654 71.8707 69.205 71.9595V71.9621Z" fill="currentColor"/>
<path d="M76.7993 100.806L76.6575 100.689C76.45 100.488 76.5183 100.239 76.6233 100.041C76.6233 99.9962 76.6181 99.9492 76.6128 99.8995C76.4894 99.9047 76.3371 99.923 76.1427 99.9622L75.9064 100.009L75.0896 95.4746L75.3207 95.4302C75.4126 95.4119 75.5623 95.3857 75.691 95.4197C75.5938 94.0005 75.0029 89.654 74.5145 86.0655C73.3248 77.3176 73.3615 77.2993 73.6058 77.1738L73.7555 77.098L73.8894 77.2156C74.2361 77.545 74.5223 77.7593 74.7429 77.8481C74.8244 77.8821 74.9662 77.9553 75.1605 78.0572C75.4652 78.2167 76.1769 78.593 76.3502 78.593C76.647 78.5408 76.8728 78.3944 77.0251 78.1487C77.1827 77.8926 77.23 77.592 77.1643 77.2313C77.1171 76.9621 76.9857 76.7321 76.7678 76.5256C76.5419 76.3139 76.2845 76.178 75.9773 76.1153L75.7514 76.0682L76.0193 74.5732L76.253 74.6151C76.8597 74.7248 77.3928 74.9993 77.8393 75.4331C78.2385 75.7625 85.0089 78.8988 89.4683 80.9296L92.5331 82.3253L89.3002 81.3713C85.563 80.2684 79.5148 78.5747 78.5589 78.5381C78.4144 78.9276 78.1833 79.2595 77.8682 79.5261C77.5215 79.8188 77.096 80.0122 76.5997 80.0985C76.2583 80.1586 75.6122 79.8816 74.806 79.5157C74.7167 79.4738 74.63 79.4346 74.5539 79.4007C74.5985 80.6082 75.2446 85.4356 75.8223 89.7429C76.5892 95.4589 76.9332 98.164 77.0461 99.4656C77.054 99.4656 77.0645 99.4709 77.0724 99.4735C77.1643 99.4996 77.2379 99.5623 77.2694 99.646C77.3298 99.8054 77.2352 99.9492 77.1354 100.103C77.1223 100.122 77.1066 100.145 77.0908 100.171C77.1013 100.65 77.033 100.684 76.9411 100.733L76.794 100.809L76.7993 100.806ZM75.6884 96.1149L76.2898 99.4604C76.3896 99.4473 76.4841 99.4369 76.5734 99.4317C76.4946 98.611 76.3449 97.359 76.1611 95.9006C76.1454 96.0391 76.1138 96.0888 76.0718 96.1254L75.9746 96.209L75.8407 96.1777C75.7803 96.162 75.7304 96.1411 75.6884 96.1176V96.1149ZM78.5011 78.0703C79.0132 78.0703 80.3447 78.3578 83.9847 79.3588C84.8014 79.5836 85.6182 79.8136 86.364 80.0253C82.8895 78.4284 77.8183 76.0682 77.511 75.7703C77.1906 75.4593 76.8177 75.245 76.4001 75.13L76.2951 75.7076C76.5944 75.8043 76.8623 75.9611 77.0934 76.178C77.3849 76.4525 77.5661 76.7792 77.6318 77.1451C77.7158 77.6208 77.6476 78.0389 77.427 78.3944C77.2011 78.7577 76.8623 78.9799 76.4185 79.0583C76.1795 79.1001 75.7698 78.9119 74.9373 78.4728C74.7745 78.3866 74.6221 78.3081 74.5617 78.282C74.3805 78.2088 74.1783 78.0808 73.9498 77.8978C73.9761 78.2114 74.026 78.6688 74.0916 79.2255C74.0995 78.9825 74.1415 78.9197 74.1967 78.8727L74.3017 78.7891L74.4383 78.8335C74.5696 78.8805 74.7718 78.972 75.0056 79.0792C75.4258 79.27 76.3003 79.6699 76.5209 79.628C76.9332 79.5549 77.2825 79.398 77.5635 79.1602C77.8445 78.9197 78.0389 78.627 78.1518 78.2637C78.1859 78.1592 78.2122 78.0677 78.5011 78.0677V78.0703ZM75.0239 100.14L74.869 100.109C74.7429 100.082 74.5031 99.1625 74.1494 97.3486C73.8421 95.783 73.4351 93.6555 73.0044 91.3999C72.0353 86.3399 70.843 80.1168 70.5646 79.0635C70.3939 79.0609 70.239 79.0112 70.1024 78.9171C69.908 78.7864 69.7872 78.5956 69.7452 78.35C69.7006 78.0991 69.7452 77.8743 69.8818 77.6835C70.0157 77.4901 70.2127 77.3725 70.4648 77.328C70.6644 77.2932 71.0426 78.6976 71.5993 81.5412C72.0694 83.9275 72.6577 87.0116 73.2302 89.9912C74.0102 94.0658 74.8139 98.2738 74.9609 98.8253C75.1132 98.956 75.2078 99.1337 75.2472 99.3533C75.2918 99.6042 75.2472 99.8237 75.1185 100.007L75.0292 100.135L75.0239 100.14ZM70.3519 77.8691C70.3177 77.8926 70.2915 77.9213 70.2652 77.9579C70.2022 78.0468 70.1838 78.1461 70.2074 78.2716C70.2284 78.3892 70.2783 78.4702 70.365 78.5277C70.4097 78.5591 70.4596 78.5774 70.5147 78.5878C70.4464 78.2742 70.3939 78.0285 70.3519 77.8691Z" fill="currentColor"/>
<path d="M78.7534 106.441L78.6089 106.321C78.3805 106.102 78.1835 105.968 78.018 105.924C77.8999 105.892 77.6635 105.872 77.2092 105.96L76.9754 106.005L76.6944 104.505L76.9281 104.46C77.0201 104.445 77.1619 104.416 77.2879 104.447C77.1671 102.871 76.437 97.7196 75.833 93.475C74.3938 83.3158 74.4253 83.3001 74.6748 83.1694L74.8245 83.0936L74.9585 83.2113C75.3051 83.5406 75.5914 83.7549 75.812 83.8437C75.8934 83.8777 76.0352 83.9509 76.2296 84.0528C76.5342 84.2123 77.2485 84.5886 77.4193 84.5886C77.716 84.5364 77.9419 84.39 78.0942 84.1443C78.2518 83.8882 78.299 83.5876 78.2334 83.2269C78.1861 82.9577 78.0548 82.7277 77.8368 82.5212C77.611 82.3095 77.3536 82.1736 77.0463 82.1109L76.8205 82.0639L77.0883 80.5688L77.3221 80.6107C77.9287 80.7204 78.4645 80.9975 78.911 81.4314C79.36 81.8678 79.6384 82.3827 79.7435 82.963C79.8354 83.4805 79.8118 83.964 79.6752 84.4057C79.536 84.8526 79.2891 85.229 78.9425 85.5217C78.5958 85.8144 78.1704 86.0079 77.674 86.0941C77.3352 86.1542 76.6865 85.8772 75.8803 85.5113C75.7962 85.4721 75.7175 85.4381 75.6465 85.4041C75.7542 86.6639 76.6366 91.6167 77.3562 95.6731C79.2261 106.188 79.171 106.217 78.9083 106.36L78.7586 106.441H78.7534ZM77.7685 105.422C77.913 105.422 78.0364 105.438 78.1441 105.466C78.2754 105.503 78.4093 105.566 78.5485 105.657C78.3936 104.243 77.5978 99.7661 76.8861 95.7542C76.248 92.1682 75.833 89.782 75.5704 88.1876C75.7936 89.8081 76.0562 91.6559 76.3031 93.4097C77.8657 104.434 77.8762 104.978 77.6766 105.153L77.5795 105.236L77.4455 105.205C77.3877 105.189 77.3378 105.169 77.2984 105.148L77.3562 105.456C77.5085 105.435 77.6477 105.422 77.7712 105.422H77.7685ZM75.3655 84.7899L75.5074 84.8343C75.6387 84.8814 75.8409 84.9728 76.0746 85.08C76.4948 85.2708 77.3694 85.6681 77.59 85.6289C78.0023 85.5557 78.3516 85.3989 78.6326 85.161C78.9136 84.9206 79.1079 84.6278 79.2209 84.2646C79.3338 83.8986 79.3522 83.4883 79.2734 83.044C79.1893 82.5631 78.9556 82.1344 78.5774 81.7685C78.257 81.4575 77.8841 81.2432 77.4665 81.1282L77.3641 81.7058C77.6635 81.8025 77.9314 81.9593 78.1625 82.1762C78.454 82.4507 78.6352 82.7774 78.7009 83.1433C78.7849 83.619 78.7166 84.0372 78.496 84.3926C78.2702 84.7559 77.9314 84.9781 77.4875 85.0565C77.2512 85.0983 76.8389 84.9101 76.0063 84.471C75.8435 84.3848 75.6912 84.3064 75.6308 84.2802C75.4522 84.2071 75.2526 84.0842 75.0268 83.9039C75.053 84.207 75.1029 84.6409 75.1686 85.1715C75.1738 84.9755 75.2106 84.918 75.2605 84.8761L75.3655 84.7873V84.7899ZM76.0904 106.138L75.9354 106.107C75.8094 106.081 75.5695 105.161 75.2158 103.347C74.9086 101.781 74.5015 99.6511 74.0682 97.3955C73.1779 92.7563 72.1011 87.1343 71.7151 85.4276C70.943 86.9697 68.6476 92.0245 67.085 95.5163L63.4766 103.572L66.6464 95.336C68.2484 91.1724 70.6436 84.884 70.7985 84.3116C70.767 84.079 70.8143 83.8699 70.943 83.6895C71.0769 83.4961 71.2739 83.3785 71.526 83.3341C71.7256 83.2992 72.1037 84.7036 72.6605 87.5473C73.1306 89.9336 73.7189 93.0177 74.2914 95.9972C75.0714 100.072 75.875 104.28 76.0221 104.831C76.1744 104.962 76.269 105.14 76.3084 105.359C76.353 105.61 76.3084 105.83 76.1797 106.013L76.0904 106.141V106.138ZM71.4183 83.8673C71.3842 83.8908 71.3579 83.9196 71.3316 83.9561C71.2686 84.045 71.2502 84.1443 71.2739 84.2698C71.2844 84.3299 71.3001 84.4266 69.8688 88.2216C71.0559 85.6393 71.4288 84.9023 71.5995 84.6827C71.5234 84.3221 71.4603 84.0424 71.4183 83.8673Z" fill="currentColor"/>
<path d="M80.9079 128.226L78.5889 115.137V115.111L79.9651 85.0591L80.5743 88.5222L80.9052 128.223L80.9079 128.226ZM79.0669 115.108L80.3879 122.557L80.1331 91.8755L79.0695 115.108H79.0669ZM76.9817 111.172L76.8267 111.141C76.7006 111.115 76.4608 110.195 76.1071 108.381C75.7998 106.815 75.3928 104.688 74.9621 102.432C73.993 97.372 72.8007 91.1489 72.5197 90.0956C72.349 90.093 72.194 90.0433 72.0575 89.9492C71.8631 89.8185 71.7423 89.6277 71.7003 89.3821C71.6556 89.1311 71.7003 88.9064 71.8369 88.7156C71.9734 88.5222 72.1678 88.4019 72.4199 88.3601C72.6177 88.3253 72.9959 89.7297 73.5544 92.5733C74.0245 94.9596 74.6128 98.0437 75.1853 101.023C75.9653 105.098 76.7689 109.306 76.916 109.857C77.0683 109.988 77.1629 110.166 77.2023 110.385C77.2469 110.636 77.2023 110.856 77.0736 111.039L76.9843 111.167L76.9817 111.172ZM72.3096 88.9011C72.2754 88.9247 72.2492 88.9534 72.2229 88.99C72.1599 89.0789 72.1415 89.1782 72.1651 89.3036C72.1861 89.4213 72.236 89.5023 72.3227 89.5598C72.3674 89.5911 72.4173 89.6094 72.4724 89.6199C72.4041 89.3036 72.3516 89.0606 72.3096 88.9011Z" fill="currentColor"/>
<path d="M63.1953 82.5272L65.6351 78.3767C66.8904 76.2388 68.9047 72.7704 69.0886 72.3392C69.0807 72.1249 69.1542 71.9236 69.3092 71.7433C69.4694 71.5525 69.669 71.4479 69.9027 71.4323C70.1312 71.4166 70.3492 71.4898 70.5461 71.6518C70.7405 71.8165 70.8508 72.0125 70.8718 72.2346C70.8902 72.4594 70.8193 72.6711 70.6538 72.8645C70.5094 73.037 70.336 73.1416 70.1365 73.1808C69.7609 73.5702 67.4524 76.6935 66.0369 78.6355L63.2006 82.5272H63.1953ZM69.9631 71.9001C69.9631 71.9001 69.9447 71.9001 69.9342 71.9001C69.8292 71.9079 69.7451 71.9524 69.669 72.0438C69.5876 72.1405 69.5534 72.2373 69.5613 72.3444C69.5666 72.4098 69.5744 72.5091 68.2561 74.8091C69.8108 72.7391 69.908 72.7286 70.0051 72.7182C70.1128 72.7077 70.1995 72.6554 70.2835 72.5561C70.3912 72.4281 70.3964 72.3313 70.3912 72.2712C70.3833 72.1745 70.3308 72.0909 70.2336 72.0099C70.1443 71.9341 70.055 71.8975 69.9605 71.8975L69.9631 71.9001Z" fill="currentColor"/>
<path d="M91.9886 90.3158C91.8363 90.3158 91.5106 90.0545 89.7458 88.6326C88.501 87.629 86.8123 86.2594 85.0238 84.8063C81.0162 81.5523 76.0841 77.5481 75.1886 76.9209C75.0573 77.0254 74.9076 77.0881 74.7395 77.1064C74.5031 77.13 74.2904 77.062 74.0987 76.9026C73.9017 76.7379 73.7941 76.5367 73.773 76.304C73.752 76.0714 73.8256 75.8519 73.9884 75.6585C74.1162 75.5051 75.3138 76.3389 77.5811 78.1597C79.4825 79.6887 81.9275 81.6725 84.2885 83.5935C87.5161 86.215 90.8488 88.9227 91.3163 89.2521C91.5185 89.2573 91.705 89.3305 91.8783 89.4742C92.0753 89.6389 92.183 89.8349 92.204 90.0571L92.2171 90.2139L92.0779 90.2897C92.0464 90.3054 92.0201 90.3184 91.986 90.3184L91.9886 90.3158ZM74.2589 76.1394C74.2484 76.1786 74.2458 76.2204 74.2484 76.2622C74.2589 76.3694 74.3088 76.4583 74.406 76.5419C74.4979 76.6177 74.5872 76.649 74.6922 76.6386C74.7474 76.6334 74.7973 76.6177 74.8445 76.5889C74.5898 76.3903 74.3902 76.2387 74.2563 76.142L74.2589 76.1394ZM94.0108 89.5866H93.827C93.5381 89.5657 93.4304 89.3305 93.3805 89.1135C93.349 89.0822 93.3175 89.0482 93.2833 89.0116C93.1941 89.0952 93.0864 89.2076 92.9629 89.3592L92.8106 89.5448L89.2573 86.5914L89.407 86.411C89.4674 86.3378 89.562 86.2228 89.6854 86.168C88.6953 85.1434 85.4362 82.1926 82.7443 79.7567C76.1813 73.8159 76.1971 73.7766 76.3047 73.5231L76.3704 73.3689L76.549 73.3741C77.0269 73.4055 77.3841 73.3846 77.61 73.3114C77.694 73.2853 77.849 73.2513 78.0643 73.2043C78.4005 73.1311 79.1883 72.9638 79.3196 72.854C79.514 72.624 79.5901 72.3679 79.5481 72.0804C79.5035 71.7824 79.3459 71.5237 79.0623 71.2885C78.8522 71.1133 78.6027 71.0192 78.3007 71.001C77.9882 70.98 77.7071 71.0454 77.4288 71.1917L77.2265 71.2989L76.4676 69.9816L76.675 69.864C77.2108 69.5608 77.7964 69.4302 78.4189 69.4746C78.9362 69.4694 86.1505 67.5431 90.8777 66.2467L94.129 65.3555L91.0353 66.691C87.4584 68.2357 81.7332 70.8075 80.9794 71.393C81.1212 71.785 81.158 72.1876 81.0897 72.5901C81.0136 73.037 80.8114 73.4578 80.4883 73.842C80.2651 74.106 79.5928 74.3072 78.7366 74.5424C78.6421 74.5686 78.5502 74.5947 78.4688 74.6156C79.2829 75.5121 82.8992 78.7975 86.1242 81.73C90.4024 85.6165 92.4114 87.4696 93.3385 88.3922C93.3464 88.387 93.3543 88.3843 93.3621 88.3791C93.4488 88.3399 93.546 88.3425 93.6248 88.3869C93.7745 88.4706 93.7955 88.6431 93.8165 88.8234C93.8165 88.8443 93.8217 88.8731 93.827 88.9045C94.1447 89.2625 94.1159 89.3331 94.0738 89.4298L94.0108 89.584V89.5866ZM90.1292 86.7011L92.7502 88.8783C92.8185 88.8025 92.8842 88.7346 92.9498 88.6744C92.3589 88.0942 91.4371 87.2317 90.3525 86.2333C90.4313 86.3483 90.4365 86.4058 90.4286 86.4607L90.4102 86.5861L90.2868 86.6489C90.229 86.675 90.1765 86.6907 90.1292 86.6985V86.7011ZM77.0348 73.8603C77.2581 74.0851 77.589 74.4013 78.0013 74.7881C77.8516 74.5973 77.8411 74.5215 77.8542 74.451L77.8805 74.3203L78.0144 74.2654C78.1457 74.2184 78.3611 74.1582 78.6079 74.0903C79.0518 73.9674 79.9762 73.7139 80.1233 73.5414C80.3912 73.2226 80.5592 72.8776 80.6196 72.5169C80.6827 72.1536 80.6406 71.806 80.4909 71.4531C80.3701 71.1682 80.2992 70.9983 85.6646 68.5598C86.4341 68.2096 87.2115 67.862 87.9179 67.5483C84.2648 68.5363 78.9336 69.9529 78.4031 69.9529C78.3978 69.9529 78.3926 69.9529 78.3873 69.9529C77.9409 69.9189 77.5181 69.9921 77.1241 70.1724L77.4183 70.6821C77.7098 70.5645 78.017 70.5148 78.3322 70.5331C78.734 70.5566 79.0833 70.6899 79.3695 70.9304C79.7398 71.2388 79.9605 71.6047 80.0209 72.0177C80.0813 72.4385 79.9683 72.8279 79.6768 73.1703C79.5219 73.3532 79.0859 73.4735 78.1641 73.6721C77.9855 73.7113 77.8148 73.7479 77.7544 73.7662C77.568 73.8263 77.3316 73.8577 77.0374 73.8629L77.0348 73.8603Z" fill="currentColor"/>
<path d="M85.5868 100.227L82.6953 91.8892C81.2325 87.676 79.0081 81.3248 78.756 80.7864C78.5826 80.627 78.4828 80.4362 78.4644 80.2167C78.4434 79.984 78.517 79.7645 78.6798 79.5711C78.8094 79.4178 80.0069 80.2515 82.2725 82.0723C84.1739 83.6013 86.6163 85.5851 88.9799 87.5035C92.2075 90.125 95.5429 92.8354 96.0077 93.1621C96.2099 93.1673 96.3964 93.2405 96.5697 93.3842C96.7667 93.5463 96.8744 93.7449 96.8954 93.9671L96.9085 94.1239L96.7693 94.1997C96.6573 94.2589 95.8799 93.7083 94.4372 92.5479C93.1924 91.5442 91.5063 90.1747 89.7179 88.7241C86.0385 85.7367 81.5792 82.1168 80.1794 81.0583C80.5838 82.7336 82.0913 88.0733 83.147 91.7481L85.5868 100.229V100.227ZM78.945 80.0546C78.9345 80.0938 78.9319 80.1356 78.9345 80.1775C78.945 80.2846 78.9949 80.3735 79.0921 80.4545C79.1394 80.4937 79.2129 80.5564 80.5681 84.3776C79.8091 81.6411 79.62 80.8387 79.6095 80.559C79.318 80.3317 79.0895 80.1565 78.945 80.052V80.0546ZM97.4994 93.46L96.315 92.4904L96.4647 92.3074C96.5224 92.2368 96.6144 92.1244 96.7325 92.0669C95.6216 90.9379 91.7348 87.4591 88.5308 84.5919C80.8675 77.7311 80.8806 77.6971 80.9883 77.4383L81.0539 77.2841L81.2325 77.2894C81.7105 77.3207 82.0676 77.2998 82.2935 77.2266C82.3775 77.2005 82.5325 77.1665 82.7478 77.1195C83.084 77.0463 83.8719 76.879 84.0032 76.7693C84.1975 76.5393 84.2737 76.2831 84.2317 75.9956C84.187 75.6977 84.0294 75.4389 83.7458 75.2037C83.5357 75.0286 83.2862 74.9345 82.9842 74.9162C82.6743 74.8979 82.3907 74.9606 82.1123 75.107L81.9101 75.2141L81.1511 73.8969L81.3586 73.7792C81.8943 73.4761 82.4826 73.3454 83.105 73.3898C83.73 73.4369 84.2763 73.6512 84.7306 74.0302C85.1351 74.3673 85.4319 74.7541 85.6104 75.1775C85.7916 75.6088 85.8468 76.0557 85.7706 76.5027C85.6945 76.9496 85.4922 77.3704 85.1692 77.7546C84.946 78.0186 84.2737 78.2198 83.4175 78.4551C83.3282 78.4786 83.2442 78.5021 83.168 78.523C84.0636 79.4169 87.9373 82.6474 91.1098 85.295C99.3351 92.1558 99.3115 92.2133 99.2038 92.4904L99.1408 92.6498H98.9543C98.6392 92.6263 98.4002 92.6498 98.2426 92.723C98.1323 92.7726 97.938 92.9085 97.6465 93.2692L97.4968 93.4548L97.4994 93.46ZM97.1921 92.5975L97.4364 92.7961C97.6596 92.5479 97.8592 92.3858 98.0483 92.2996C98.1717 92.2421 98.3135 92.2055 98.479 92.1872C97.4469 91.2018 93.9461 88.2824 90.8078 85.6635C88.0029 83.3243 86.1436 81.7639 84.9119 80.7106C86.1304 81.811 87.5223 83.0577 88.846 84.2417C97.1659 91.688 97.523 92.0957 97.4836 92.3597L97.4653 92.4851L97.3445 92.5452C97.2893 92.5714 97.2394 92.5871 97.1921 92.5949V92.5975ZM81.7341 77.7781C81.9495 77.9924 82.2672 78.293 82.6612 78.6589C82.5377 78.5073 82.5299 78.4368 82.5404 78.374L82.564 78.2407L82.7006 78.1859C82.8319 78.1388 83.0472 78.0787 83.2941 78.0107C83.7379 77.8879 84.6624 77.6344 84.8068 77.4619C85.0747 77.143 85.2428 76.798 85.3032 76.4373C85.3636 76.0793 85.3215 75.7212 85.1745 75.3736C85.0248 75.0207 84.7753 74.694 84.4286 74.4039C84.0478 74.085 83.604 73.9125 83.0709 73.8707C82.6244 73.8394 82.2016 73.9125 81.8076 74.0903L82.1018 74.5999C82.3933 74.4823 82.7006 74.4327 83.0157 74.4509C83.4175 74.4745 83.7668 74.6078 84.0531 74.8482C84.4234 75.1592 84.644 75.5225 84.7044 75.9355C84.7648 76.3563 84.6519 76.7457 84.3603 77.0881C84.2054 77.2711 83.7694 77.3913 82.8476 77.5873C82.669 77.6265 82.4983 77.6631 82.4379 77.6814C82.2541 77.7415 82.0204 77.7729 81.7341 77.7781Z" fill="currentColor"/>
<path d="M114.867 107.963L104.623 99.4008L86.2678 75.499L88.9728 77.7624L114.87 107.963H114.867ZM104.985 99.0924L110.807 103.954L90.7928 80.6113L104.985 99.0898V99.0924ZM100.615 97.5138C100.463 97.5138 100.137 97.2524 98.3721 95.8306C97.1246 94.827 95.4386 93.4574 93.6501 92.0042C89.6425 88.7502 84.7104 84.7461 83.8175 84.1188C83.6862 84.2234 83.5339 84.2861 83.3684 84.3044C83.1347 84.3279 82.9193 84.26 82.7276 84.1005C82.5333 83.9359 82.423 83.7346 82.4019 83.502C82.3809 83.2668 82.4545 83.0499 82.6173 82.8564C82.7451 82.7031 83.9427 83.5369 86.21 85.3577C88.1114 86.8867 90.5538 88.8705 92.9174 90.7889C96.145 93.4104 99.4804 96.1207 99.9478 96.4474C100.15 96.4526 100.337 96.5258 100.51 96.6696C100.707 96.8342 100.814 97.0303 100.835 97.2524L100.849 97.4092L100.709 97.485C100.678 97.5007 100.652 97.5138 100.618 97.5138H100.615ZM82.8852 83.3374C82.8747 83.3766 82.872 83.4184 82.8747 83.4602C82.8852 83.5674 82.9351 83.6562 83.0322 83.7373C83.1242 83.813 83.2161 83.8444 83.3185 83.834C83.3737 83.8287 83.4236 83.813 83.4708 83.7843C83.2161 83.5857 83.0165 83.4341 82.8825 83.3374H82.8852Z" fill="currentColor"/>
</svg>
