<svg width="143" height="143" viewBox="0 0 143 143" fill="none" xmlns="http://www.w3.org/2000/svg">
<g clip-path="url(#clip0_675_6542)">
<g clip-path="url(#clip1_675_6542)">
<path d="M44.1466 91.6165C48.7377 90.9445 52.7202 86.9277 56.4601 84.4286C60.869 81.483 65.6148 78.5085 68.6645 74.0469C69.7321 72.4829 70.2128 70.8984 69.9377 69.3337C69.8848 67.5554 69.0526 64.1091 66.0184 65.4318C61.4323 67.93 43.637 85.4429 39.1423 88.3289C32.2432 93.568 23.7008 96.2402 16.9985 101.188C16.9411 101.323 16.8795 101.453 16.8222 101.587C18.667 101.916 42.7026 91.8282 44.1466 91.6165Z" fill="currentColor"/>
<path d="M59.4754 89.0383C55.8291 93.5917 50.6243 96.2293 49.0038 101.153C48.8674 102.385 49.4222 103.575 50.1215 105.015C50.5437 105.586 50.971 106.083 51.3419 106.602C51.7128 107.121 52.0317 107.658 52.3398 107.966C52.7214 107.302 53.2952 106.394 53.9418 105.551C55.8816 103.029 58.4507 101.102 60.8448 98.9386C64.471 95.6547 67.7679 92.0155 70.919 88.274C75.8158 82.4616 79.4663 75.5422 73.7593 68.8158C72.2632 72.879 70.1671 76.4555 67.7107 79.759C65.2501 83.0582 62.4293 86.0844 59.4797 89.034L59.4754 89.0383Z" fill="currentColor"/>
<path d="M98.2707 38.0833C93.816 39.4232 90.4633 43.9739 87.1244 46.9961C83.1893 50.5548 78.9252 54.1942 76.5629 59.0381C75.7358 60.738 75.4964 62.3721 76.0009 63.8786C76.3175 65.6243 77.6564 68.8977 80.4656 67.1409C84.6431 63.9988 99.6928 44.0888 103.723 40.5724C109.784 34.3825 117.863 30.4797 123.77 24.6063C123.806 24.4678 123.851 24.3292 123.886 24.1908C122.009 24.143 99.6734 37.6561 98.2708 38.0746L98.2707 38.0833Z" fill="currentColor"/>
<path d="M83.4485 42.892C86.3911 37.8614 91.1579 34.4895 92.0374 29.3913C91.9881 28.157 91.2641 27.067 90.3565 25.7412C89.8559 25.2406 89.359 24.8133 88.9141 24.3597C88.4692 23.9061 88.0721 23.4219 87.7204 23.166C87.4419 23.8809 87.0056 24.8563 86.4877 25.7849C84.9385 28.5577 82.6772 30.8362 80.6254 33.333C77.5171 37.1087 74.7818 41.1875 72.2184 45.3425C68.2224 51.803 65.6256 59.166 72.2866 64.9556C73.1668 60.7296 74.7171 56.886 76.6625 53.2634C78.6123 49.645 80.9659 46.2388 83.4442 42.8963L83.4485 42.892Z" fill="currentColor"/>
</g>
</g>
<defs>
<clipPath id="clip0_675_6542">
<rect width="142.1" height="142.1" fill="white"/>
</clipPath>
<clipPath id="clip1_675_6542">
<rect width="135" height="56" fill="white" transform="translate(4 91.9985) rotate(-45)"/>
</clipPath>
</defs>
</svg>
