<svg width="585" height="165" viewBox="0 0 585 165" fill="none" xmlns="http://www.w3.org/2000/svg">
<path d="M40.5196 59.2102C44.9196 62.7302 51.7396 62.8702 57.0396 64.0802C63.2796 65.5102 69.8196 67.2102 76.2496 66.1502C78.4996 65.7802 80.2896 64.8602 81.4296 63.2902C82.9396 61.7402 85.2596 58.0802 81.5796 56.5002C75.5896 54.5402 45.4896 53.5202 39.2296 51.9702C28.9196 50.2702 19.4796 44.9302 9.58961 43.1602C9.42961 43.2202 9.25961 43.2802 9.09961 43.3402C10.3396 45.2602 39.1296 58.1002 40.5196 59.2102Z" stroke="currentColor" stroke-width="2" stroke-miterlimit="10"/>
<path d="M55.5093 70.6717C48.4993 71.2817 41.8693 68.8817 36.2193 71.6117C35.0293 72.5317 34.4493 74.0317 33.7693 75.8817C33.6193 76.7417 33.5393 77.5417 33.3993 78.3117C33.2593 79.0817 33.0493 79.8217 33.0293 80.3517C33.9293 80.1217 35.1993 79.8717 36.4693 79.7317C40.2793 79.3217 44.0993 79.9817 47.9893 80.2717C53.8793 80.7217 59.7993 80.5717 65.6793 80.2117C74.8293 79.6417 83.9193 77.0417 85.0593 66.2617C80.2693 68.3717 75.3893 69.5417 70.4593 70.1417C65.5293 70.7517 60.5393 70.8017 55.5093 70.6717Z" stroke="currentColor" stroke-width="2" stroke-miterlimit="10"/>
<path d="M132.31 62.0525C127.44 59.2225 120.67 60.0925 115.25 59.6825C108.87 59.1925 102.14 58.4825 95.94 60.4825C93.77 61.1825 92.14 62.3525 91.24 64.0825C89.98 65.8425 88.2199 69.8025 92.0899 70.8225C98.3099 71.8725 128.23 68.4125 134.64 69.0225C145.09 69.1725 155.21 73.0625 165.26 73.3425C165.41 73.2625 165.57 73.1725 165.72 73.0925C164.2 71.3825 133.83 62.9425 132.3 62.0525H132.31Z" stroke="currentColor" stroke-width="2" stroke-miterlimit="10"/>
<path d="M115.79 52.9408C122.63 51.3008 129.55 52.6908 134.73 49.1508C135.77 48.0608 136.12 46.4908 136.52 44.5708C136.54 43.7008 136.5 42.9008 136.52 42.1208C136.55 41.3408 136.64 40.5808 136.58 40.0508C135.72 40.4108 134.51 40.8508 133.27 41.1708C129.56 42.1408 125.68 42.0608 121.8 42.3408C115.91 42.7708 110.08 43.7908 104.31 45.0208C95.3404 46.9408 86.7404 50.8608 87.2204 61.6908C91.6504 58.8908 96.2904 57.0208 101.08 55.6908C105.87 54.3608 110.8 53.5708 115.78 52.9508L115.79 52.9408Z" stroke="currentColor" stroke-width="2" stroke-miterlimit="10"/>
<path d="M153.37 39.9095C155.88 44.9595 162 47.9595 166.29 51.2895C171.34 55.2095 176.56 59.5195 182.84 61.2695C185.04 61.8795 187.05 61.7995 188.74 60.8595C190.76 60.0895 194.41 57.7495 191.74 54.7695C187.14 50.4595 160.27 36.8495 155.25 32.8095C146.62 26.9195 140.31 18.0995 132.09 12.3195C131.92 12.2995 131.74 12.2895 131.57 12.2695C131.89 14.5295 152.58 38.3195 153.37 39.9095Z" stroke="currentColor" stroke-width="2" stroke-miterlimit="10"/>
<path d="M162.13 56.6289C155.52 54.2289 150.52 49.2589 144.24 49.3489C142.77 49.6789 141.61 50.7989 140.22 52.1789C139.73 52.8989 139.31 53.5889 138.86 54.2189C138.41 54.8589 137.91 55.4389 137.67 55.9189C138.58 56.0889 139.84 56.3989 141.05 56.8089C144.68 58.0489 147.87 60.2489 151.27 62.1589C156.42 65.0489 161.85 67.4089 167.34 69.5589C175.88 72.9089 185.22 74.3689 190.79 65.0789C185.55 64.9689 180.64 63.9689 175.92 62.4489C171.19 60.9189 166.65 58.8589 162.14 56.6289H162.13Z" stroke="currentColor" stroke-width="2" stroke-miterlimit="10"/>
<path d="M235.411 81.1809C232.181 76.5609 225.681 74.5009 220.941 71.8409C215.361 68.7109 209.561 65.2209 203.091 64.4209C200.821 64.1409 198.851 64.5109 197.311 65.7009C195.421 66.7609 192.161 69.6209 195.241 72.1709C200.431 75.7509 229.021 85.2209 234.591 88.4809C244.001 93.0309 251.541 100.821 260.531 105.311C260.701 105.301 260.881 105.291 261.051 105.281C260.401 103.091 236.411 82.6309 235.401 81.1809H235.411Z" stroke="currentColor" stroke-width="2" stroke-miterlimit="10"/>
<path d="M224.27 65.9609C231.17 67.3609 236.85 71.5309 243.04 70.5109C244.44 69.9609 245.42 68.6909 246.6 67.1109C246.98 66.3309 247.29 65.5809 247.64 64.8909C248 64.1909 248.4 63.5409 248.57 63.0409C247.64 63.0009 246.35 62.8909 245.1 62.6609C241.33 61.9809 237.85 60.2709 234.2 58.8909C228.68 56.8009 222.96 55.2609 217.21 53.9509C208.27 51.9109 198.82 51.8409 194.68 61.8609C199.87 61.1909 204.88 61.4509 209.78 62.2609C214.68 63.0709 219.48 64.4309 224.27 65.9709V65.9609Z" stroke="currentColor" stroke-width="2" stroke-miterlimit="10"/>
<path d="M258.231 66.39C259.741 71.83 265.221 75.98 268.811 80.08C273.051 84.92 277.381 90.16 283.251 93.1C285.311 94.13 287.301 94.45 289.161 93.85C291.311 93.49 295.361 91.9 293.291 88.46C289.571 83.33 265.631 64.73 261.451 59.78C254.051 52.31 249.511 42.42 242.501 35.15C242.331 35.1 242.161 35.05 241.991 35C241.871 37.28 257.751 64.67 258.231 66.38V66.39Z" stroke="currentColor" stroke-width="2" stroke-miterlimit="10"/>
<path d="M263.69 84.4994C257.62 80.8494 253.63 74.9994 247.41 73.8594C245.9 73.8994 244.54 74.7694 242.89 75.8594C242.26 76.4694 241.73 77.0594 241.15 77.5994C240.58 78.1394 239.98 78.6094 239.65 79.0294C240.52 79.3794 241.7 79.9194 242.82 80.5594C246.17 82.4794 248.89 85.2694 251.89 87.7994C256.42 91.6394 261.33 95.0194 266.35 98.1994C274.14 103.149 283.09 106.409 290.37 98.3794C285.22 97.2494 280.56 95.3194 276.18 92.8894C271.8 90.4694 267.71 87.5594 263.68 84.4894L263.69 84.4994Z" stroke="currentColor" stroke-width="2" stroke-miterlimit="10"/>
<path d="M331.371 122.899C329.071 117.739 323.041 114.439 318.871 110.909C313.961 106.749 308.901 102.199 302.661 100.149C300.471 99.4295 298.451 99.4194 296.711 100.279C294.641 100.949 290.871 103.119 293.431 106.229C297.871 110.749 324.301 125.629 329.171 129.909C337.601 136.209 343.551 145.329 351.571 151.489C351.741 151.509 351.921 151.539 352.091 151.559C351.861 149.279 332.091 124.519 331.361 122.899H331.371Z" stroke="currentColor" stroke-width="2" stroke-miterlimit="10"/>
<path d="M323.28 105.782C329.83 108.502 334.64 113.702 340.95 113.912C342.44 113.652 343.65 112.592 345.12 111.272C345.65 110.582 346.09 109.912 346.58 109.292C347.06 108.672 347.59 108.122 347.85 107.652C346.94 107.432 345.69 107.072 344.49 106.602C340.89 105.192 337.78 102.842 334.45 100.772C329.4 97.6416 324.04 95.0216 318.61 92.6116C310.17 88.8616 300.85 86.9516 294.84 95.9816C300.1 96.3416 304.99 97.5716 309.68 99.3216C314.37 101.072 318.85 103.352 323.28 105.792V105.782Z" stroke="currentColor" stroke-width="2" stroke-miterlimit="10"/>
<path d="M351.789 106.03C355.089 110.6 361.619 112.57 366.389 115.15C372.009 118.2 377.859 121.6 384.349 122.3C386.619 122.55 388.589 122.14 390.109 120.93C391.979 119.84 395.199 116.94 392.079 114.43C386.839 110.93 358.109 101.88 352.499 98.7095C343.019 94.2995 335.359 86.6295 326.309 82.2695C326.139 82.2795 325.959 82.2995 325.789 82.3095C326.479 84.4895 350.759 104.59 351.799 106.03H351.789Z" stroke="currentColor" stroke-width="2" stroke-miterlimit="10"/>
<path d="M363.158 121.088C356.238 119.798 350.498 115.708 344.318 116.818C342.928 117.388 341.958 118.678 340.808 120.268C340.438 121.058 340.138 121.808 339.798 122.508C339.458 123.208 339.058 123.868 338.898 124.378C339.828 124.398 341.118 124.498 342.378 124.708C346.158 125.338 349.668 126.998 353.328 128.318C358.878 130.328 364.618 131.778 370.388 133.008C379.358 134.918 388.808 134.848 392.798 124.768C387.618 125.518 382.608 125.328 377.698 124.598C372.788 123.858 367.968 122.568 363.158 121.098V121.088Z" stroke="currentColor" stroke-width="2" stroke-miterlimit="10"/>
<path d="M439.459 133.371C435.519 129.341 428.769 128.361 423.669 126.511C417.659 124.331 411.369 121.841 404.849 122.101C402.569 122.191 400.679 122.881 399.359 124.311C397.669 125.671 394.919 129.011 398.379 131.031C404.089 133.711 433.839 138.401 439.859 140.711C449.889 143.661 458.599 150.121 468.199 153.081C468.369 153.041 468.539 153.001 468.709 152.961C467.709 150.911 440.709 134.631 439.469 133.361L439.459 133.371Z" stroke="currentColor" stroke-width="2" stroke-miterlimit="10"/>
<path d="M425.979 120.169C433.009 120.419 439.299 123.619 445.239 121.599C446.529 120.829 447.299 119.409 448.199 117.669C448.449 116.839 448.629 116.049 448.869 115.309C449.109 114.559 449.399 113.859 449.479 113.329C448.559 113.439 447.269 113.539 445.989 113.519C442.159 113.459 438.439 112.339 434.619 111.569C428.829 110.409 422.939 109.819 417.049 109.469C407.899 108.909 398.559 110.389 396.109 120.939C401.129 119.429 406.099 118.869 411.069 118.869C416.039 118.869 420.999 119.429 425.969 120.169H425.979Z" stroke="currentColor" stroke-width="2" stroke-miterlimit="10"/>
<path d="M450.319 110.871C454.829 114.251 461.649 114.191 466.979 115.241C473.259 116.481 479.849 117.981 486.249 116.721C488.489 116.281 490.249 115.311 491.339 113.701C492.799 112.101 495.009 108.381 491.289 106.911C485.239 105.131 455.119 105.041 448.819 103.681C438.459 102.291 428.869 97.2413 418.929 95.7812C418.769 95.8412 418.599 95.9113 418.439 95.9713C419.739 97.8513 448.909 109.811 450.329 110.871H450.319Z" stroke="currentColor" stroke-width="2" stroke-miterlimit="10"/>
<path d="M465.649 121.87C458.659 122.69 451.959 120.5 446.389 123.4C445.229 124.36 444.689 125.87 444.069 127.74C443.949 128.6 443.889 129.4 443.769 130.18C443.649 130.95 443.469 131.7 443.469 132.23C444.359 131.98 445.619 131.68 446.889 131.51C450.689 130.98 454.529 131.52 458.419 131.7C464.319 131.97 470.229 131.64 476.099 131.1C485.229 130.25 494.229 127.37 495.039 116.57C490.309 118.82 485.479 120.14 480.569 120.9C475.659 121.66 470.669 121.86 465.649 121.89V121.87Z" stroke="currentColor" stroke-width="2" stroke-miterlimit="10"/>
<path d="M542.15 110.898C537.19 108.218 530.45 109.298 525.03 109.048C518.64 108.758 511.89 108.248 505.75 110.438C503.6 111.208 502.01 112.428 501.16 114.178C499.95 115.978 498.32 119.988 502.22 120.888C508.47 121.748 538.27 117.378 544.7 117.788C555.15 117.628 565.39 121.198 575.44 121.168C575.59 121.078 575.74 120.998 575.89 120.908C574.32 119.248 543.71 111.738 542.15 110.898Z" stroke="currentColor" stroke-width="2" stroke-miterlimit="10"/>
<path d="M525.36 102.3C532.15 100.45 539.1 101.63 544.18 97.9295C545.19 96.8095 545.49 95.2295 545.83 93.2895C545.83 92.4195 545.76 91.6195 545.76 90.8395C545.76 90.0595 545.83 89.2895 545.76 88.7695C544.92 89.1495 543.71 89.6295 542.48 89.9895C538.8 91.0695 534.92 91.1095 531.05 91.5095C525.18 92.1195 519.38 93.3195 513.65 94.7295C504.75 96.9195 496.27 101.1 497.07 111.91C501.41 108.98 506 106.96 510.74 105.49C515.48 104.01 520.39 103.07 525.35 102.3H525.36Z" stroke="currentColor" stroke-width="2" stroke-miterlimit="10"/>
</svg>
