<svg width="247" height="243" viewBox="0 0 247 243" fill="none" xmlns="http://www.w3.org/2000/svg">
<path d="M114.041 8.72016C115.781 32.4002 115.611 35.3002 103.821 20.4602C113.331 39.0402 111.221 54.8802 86.5709 55.5302C109.201 58.9202 109.281 62.1102 96.3409 80.3802C106.421 70.0702 103.481 74.8401 96.3609 85.5302C100.111 81.5702 99.6709 83.5202 97.6009 87.9602C97.2509 89.4302 95.2709 93.3801 93.2409 97.4202C90.5409 102.8 87.7609 108.33 85.0109 113.81C82.2509 119.3 79.5309 124.73 78.9009 120.99C74.3209 135.1 71.8409 140.03 60.7409 145.4C67.3409 149 29.9109 186.23 22.8809 196.08C59.2709 161.56 28.8909 198.93 26.1709 203.36C26.9909 202.72 38.2609 187.63 28.2209 203.73C28.9609 202.62 61.9709 155.34 32.6809 203.23C36.6809 197.71 38.8309 196.33 38.2609 202.66C42.2109 192.45 43.4309 189.95 41.5009 197.26C46.8309 187.78 50.2409 173.77 55.1809 196.86C50.2009 186.82 78.5609 149.83 81.9209 152.72C79.7709 149.03 77.0309 156.59 86.7609 161.87C78.2009 155.61 77.3809 153.66 85.7009 149.18C79.2009 152.57 81.5409 153.55 91.4909 155.26C82.2009 153.06 80.5109 151.6 87.0909 146.83C79.7009 151.66 81.8509 152.66 92.3509 152.99C84.1909 151.49 89.1109 142.7 96.5709 136.03C90.0909 142.14 86.1409 150.35 93.8209 150.24C85.8509 150.42 89.5009 142.27 96.0209 136.15C89.7309 141.73 86.3109 149.34 94.0709 148.34C87.2409 148.71 91.5909 140.49 97.3509 135.2C90.6909 140.02 85.4409 147.78 92.8009 146.56C83.1109 148.3 86.0309 141.06 93.3509 135.47C86.2309 140.93 83.5009 148.05 93.0309 146.19C86.2209 147.39 91.6609 139.61 97.8509 135.16C92.6709 140 88.2409 148.16 94.3809 147.72C87.0309 148.86 90.2509 141.39 96.1209 136.08C90.1309 141.84 86.7709 149.76 94.2909 149.2C87.6009 149.47 91.7809 141.28 97.4509 135.74C90.7509 141.82 85.5309 150.56 92.9509 151.54C82.6409 151.88 80.2409 151.08 87.3609 146.26C80.7609 150.82 83.6309 151.38 93.3009 150.83C85.9809 150.17 90.1909 141.8 96.0709 136.09C90.4409 141.3 87.6809 148.57 94.8209 147.27C89.9909 147.56 95.0809 139.29 99.1909 135.3C94.8709 138.44 94.3209 139.25 98.9709 137.97C102.031 137.29 66.5909 159.07 95.0909 134.35C91.4609 138.01 92.6809 136.02 96.9109 131.68C91.5709 133.53 90.7109 132.8 94.3609 128.35C88.1909 131.39 86.5309 130.7 89.0609 124.14C88.7409 130.49 91.9309 130.92 96.3109 129.11C93.4009 132.14 91.6709 132.93 92.5809 128.78C92.0309 133.42 96.3309 132.88 100.131 131.82C100.911 132.17 101.191 131.99 100.381 131.43C97.2509 131.97 93.0209 132.13 91.9609 127.16C92.1009 131.58 96.5209 130.81 100.251 129.49C102.761 128.84 104.591 127.65 105.241 125.95C106.541 122.55 103.121 117.14 95.9109 107.34C110.761 120.75 110.441 116.61 106.491 100.49C111.401 117.92 112.471 122.38 102.981 102.94C113.981 126.8 114.411 126.75 110.751 100.54C115.011 122.13 115.161 117.56 115.221 99.1302C115.161 117.57 115.071 122.13 113.751 100.21C115.421 126.78 115.871 108.57 122.811 82.8002C117.671 104.29 119.031 99.9302 124.461 82.1802C119.811 100.41 119.241 123.55 140.081 113.59C133.521 119.03 129.351 122.82 127.521 125.64C125.691 128.46 126.211 130.3 128.861 129.92C130.361 131.65 132.401 132.82 135.011 133.4C137.881 134.16 141.331 134.33 143.771 131.95C141.201 134.14 138.331 133.89 136.411 133.03C135.111 132.63 134.761 131.62 135.331 130.18C135.631 130.81 136.851 131 138.441 130.69C140.651 130.93 143.231 130.67 145.171 128.84C143.841 131.04 141.871 131.68 139.791 131.32C139.131 132.28 138.371 132.25 138.051 131.28C137.651 133.91 137.681 135.62 137.631 135.75C140.071 137.49 142.431 137.67 143.581 134.31C141.931 138.62 139.081 139.4 136.141 138.31C135.841 138.55 135.461 136.92 135.731 133.59C135.251 137.72 135.431 140.15 135.451 140.48C138.491 142.02 141.371 141.46 142.621 136.81C141.291 141.65 139.711 143.17 137.471 142.63C141.381 144.2 144.621 143.71 145.221 138.53C145.111 143.96 142.331 144.69 137.731 142.76C139.621 143.06 139.711 140.68 139.301 135.26C138.911 140.33 138.021 142.36 136.401 141.95C139.431 143.21 141.721 142.03 142.551 136.84C141.581 141.61 139.141 142.37 136.221 140.85C137.251 140.91 137.791 138.68 138.341 134.1C138.601 138.2 138.871 139.95 137.881 139.19C141.621 140.82 144.111 139.94 144.601 134.93C144.301 140.07 142.021 141.06 138.251 139.42C139.721 140.4 139.701 138.74 139.331 134.36C139.021 139.29 138.351 141.49 136.771 141.22C139.911 142.81 142.131 141.92 142.711 136.89C141.281 141.84 139.601 143.41 137.361 142.96C141.301 144.55 144.671 144.12 145.421 139.06C145.421 144.81 143.611 146.25 139.461 145.63C144.551 147.18 147.281 146.66 147.031 142.02C149.031 147.73 147.931 149.25 142.791 149.57C149.111 150.57 151.391 150.37 151.061 148.73C152.781 151.21 151.881 152.25 147.051 154.35C152.871 153.52 154.771 153.74 155.471 156.39C158.321 155.91 206.491 221.05 211.491 228.38C211.491 224.34 131.821 115.24 219.391 231.66C120.551 93.6302 222.961 230.76 224.961 233.26C212.281 214.16 171.741 162.04 233.571 232.48C229.771 227.27 176.461 170.73 204.011 185.4C197.711 178.63 164.721 148.94 163.851 139.84C160.221 139.97 157.741 135.04 154.331 126.8C152.541 124.67 149.811 119.24 147.061 113.76C144.311 108.28 141.531 102.75 138.831 97.3602C136.801 93.3202 134.821 89.3701 134.541 88.2001C132.361 83.5602 131.891 81.7001 135.531 86.1102C128.521 74.9702 125.611 70.1002 134.821 81.4402C122.491 62.0202 122.271 58.8102 144.761 55.0502C120.251 54.7702 118.441 38.9602 122.011 18.6902C116.201 35.2402 115.781 32.3402 114.041 8.66016V8.72016Z" fill="currentColor"/>
</svg>
