<svg width="295" height="333" viewBox="0 0 295 333" fill="none" xmlns="http://www.w3.org/2000/svg">
<path d="M155.009 182.132C155.129 181.932 155.259 181.742 155.399 181.562C155.389 181.512 155.389 181.472 155.389 181.422C155.449 181.312 155.509 181.202 155.579 181.102C155.489 180.112 155.599 179.322 155.839 178.702C156.029 178.392 156.259 178.122 156.529 177.902C157.199 177.202 158.179 176.902 159.479 176.882C159.919 176.872 160.419 176.912 160.949 176.962C161.909 177.192 163.009 177.532 164.329 177.972C163.249 177.592 162.299 177.272 161.439 177.012C162.339 177.122 163.329 177.292 164.469 177.512C158.479 174.942 159.479 174.692 164.539 175.022C161.389 174.872 162.299 175.302 164.839 176.322C164.229 177.012 165.239 178.292 166.409 180.092C167.569 181.892 168.889 184.212 170.449 187.142C165.949 171.262 167.599 170.612 175.339 169.932C170.839 169.242 172.439 168.512 175.019 167.422C175.569 166.932 177.089 166.082 178.559 165.142C181.499 163.272 184.229 161.072 186.619 158.392C187.589 157.652 188.539 156.972 189.619 156.402C193.929 154.142 197.169 152.442 197.169 152.442L204.869 148.402C204.869 148.402 207.099 147.232 210.079 145.672C211.569 144.892 213.239 144.392 214.959 143.752C216.369 143.282 217.779 142.772 219.179 142.212C220.569 141.652 221.969 141.062 223.339 140.422C231.059 137.622 235.579 135.962 238.729 134.712C238.749 136.132 238.729 137.552 238.689 138.972C236.479 149.422 232.499 159.222 227.079 168.042C226.299 169.302 225.499 170.542 224.669 171.762C209.809 176.072 216.009 296.632 203.579 304.922C200.819 306.312 194.619 199.552 192.189 201.422C190.839 201.812 189.509 202.492 188.169 203.132C176.089 208.922 162.569 212.162 148.279 212.162C143.489 212.162 147.509 280.242 142.919 279.542C141.359 279.242 131.099 210.452 129.529 210.012C123.439 207.352 116.479 206.682 110.049 204.282C108.969 203.882 107.899 203.312 106.869 202.472C99.3094 192.662 108.159 218.072 98.4894 212.552C94.3394 209.792 73.0694 174.712 70.3094 169.402C69.5394 168.202 68.8094 166.992 68.0994 165.762C60.3094 152.212 55.8594 136.512 55.8594 119.762H55.8794C55.8794 68.7216 97.2494 27.3516 148.289 27.3516C152.479 27.3516 156.599 27.6616 160.649 28.2016C172.869 32.1016 184.499 38.2116 194.899 46.3316C194.459 46.1816 194.099 46.1616 193.839 46.3316C189.579 49.1316 199.189 75.8316 194.809 78.4616C190.319 81.1016 185.779 83.5716 181.189 85.9016C180.049 86.4816 178.899 87.0616 178.039 87.6416C176.599 88.1916 175.439 88.7516 176.609 89.5316C173.129 89.8516 171.979 90.4016 175.659 91.4716C169.659 91.4916 168.499 92.0216 174.469 93.3416C166.809 92.8016 166.289 93.0516 173.719 94.1816C165.239 93.5516 164.709 93.7916 173.049 94.5816C169.909 94.4816 167.769 94.4416 166.789 94.4016C165.489 94.4316 165.369 94.4516 166.559 94.4316C167.179 94.5216 169.129 94.5616 172.129 94.5816C168.779 94.7116 166.499 94.8216 165.979 94.7316C164.859 94.8316 164.189 94.8716 164.069 94.8316C164.499 94.7316 165.599 94.4316 166.929 94.0816C165.089 94.4616 163.979 94.6816 165.329 94.4516C164.339 94.6716 163.949 94.7916 164.059 94.8316C163.719 94.9016 163.809 94.8516 164.539 94.6016C160.369 95.2216 159.499 94.8016 162.399 90.9116C161.559 91.2116 160.869 91.3916 160.289 91.4416C160.379 91.3316 160.459 91.2416 160.549 91.1316C160.399 91.2416 160.249 91.3416 160.099 91.4416C160.019 91.4416 159.949 91.4416 159.879 91.4416C160.239 90.9616 160.639 90.4216 161.089 89.8116C160.039 90.6116 159.279 91.0116 158.729 91.0716C158.709 91.0516 158.689 91.0416 158.669 91.0216C158.899 90.6616 159.129 90.2916 159.399 89.8616C159.069 90.2216 158.769 90.5416 158.479 90.8316C158.389 90.7316 158.299 90.6116 158.229 90.4816C158.539 89.8016 158.899 89.0216 159.319 88.1216C158.789 88.8616 158.349 89.4216 157.959 89.8416C157.929 89.7516 157.899 89.6416 157.879 89.5416C158.139 88.8916 158.429 88.1816 158.749 87.3616C158.389 88.0216 158.059 88.5716 157.779 89.0116C157.629 87.9816 157.639 86.6316 157.729 84.9416C157.569 86.6916 157.469 88.0816 157.519 89.1016C157.299 89.4916 157.089 89.8416 156.879 90.1716C156.369 90.6216 156.069 90.4016 155.909 89.5416M155.009 182.132C154.299 183.642 153.939 185.612 153.529 188.062C153.839 185.562 154.139 183.572 155.009 182.132ZM155.009 182.132C155.129 181.882 155.249 181.652 155.389 181.432C155.229 180.242 155.429 179.372 155.839 178.712C156.039 178.172 156.339 177.752 156.689 177.442C157.369 176.772 158.279 176.572 159.519 176.702C159.949 176.752 160.439 176.852 160.959 176.972C161.119 176.992 161.289 177.002 161.459 177.022C160.609 176.772 159.849 176.582 159.179 176.482C157.839 176.282 156.819 176.442 156.199 177.052C155.189 177.722 154.569 178.852 155.209 180.812C154.919 181.062 154.679 181.332 154.459 181.622C154.479 181.642 154.489 181.662 154.509 181.682C154.439 181.722 154.389 181.762 154.319 181.802M154.319 181.802C153.249 183.292 152.839 185.322 152.409 187.892C152.519 184.962 152.629 182.812 154.319 181.802ZM154.319 181.802C154.359 181.742 154.409 181.682 154.449 181.622C153.759 180.902 153.289 180.332 153.069 179.882C152.819 179.912 152.579 179.942 152.359 179.982M152.359 179.982C152.629 180.222 152.969 180.492 153.419 180.802C148.749 181.042 147.449 182.692 146.209 188.082C147.489 182.532 148.559 180.622 152.359 179.982ZM152.359 179.982C152.069 179.712 151.879 179.492 151.799 179.312C151.339 179.122 150.979 178.962 150.729 178.832C150.359 178.912 150.009 178.992 149.679 179.092C149.989 179.152 150.359 179.222 150.789 179.312C150.539 179.312 150.289 179.332 150.059 179.342C150.379 179.432 150.739 179.522 151.159 179.632C149.729 179.632 148.629 179.732 147.689 180.012C148.079 180.082 148.499 180.202 148.979 180.382C148.499 180.212 148.069 180.092 147.669 180.022C147.419 180.102 147.189 180.192 146.959 180.292M146.959 180.292C145.319 181.362 143.859 183.062 141.739 185.982C143.939 182.692 145.239 181.072 146.959 180.292ZM146.959 180.292C147.129 180.182 147.299 180.082 147.469 179.982C147.469 179.982 147.459 179.982 147.449 179.982C146.999 179.932 146.589 179.962 146.149 180.092M146.149 180.092C145.119 180.542 144.149 181.242 142.979 182.322M146.149 180.092C145.269 180.352 144.329 181.052 142.979 182.322M146.149 180.092C146.279 180.032 146.409 179.982 146.539 179.942C144.889 180.052 143.289 181.222 139.839 184.092C143.559 180.602 143.419 180.662 139.789 184.002C142.349 181.212 141.419 181.692 137.649 184.292C138.749 183.092 137.129 183.952 135.409 184.882C134.379 185.392 133.249 185.982 132.459 186.392C131.679 186.802 131.229 187.032 131.229 187.032C131.229 187.032 131.589 186.722 132.219 186.172C132.849 185.622 133.749 184.842 134.639 184.002C135.919 182.962 137.189 181.872 135.729 181.472C139.219 180.102 139.919 179.492 136.439 178.872C141.099 178.292 141.589 177.692 138.129 174.952C141.799 176.292 143.009 176.292 142.679 174.082C142.229 173.692 141.419 172.812 140.199 171.502C141.039 172.062 141.759 172.482 142.389 172.782C142.299 172.472 142.209 172.152 142.089 171.782C142.289 172.202 142.469 172.562 142.609 172.882C144.389 173.672 145.349 173.312 145.999 171.732C145.489 172.252 144.599 171.302 142.939 169.222C144.299 170.292 145.359 170.922 146.209 171.122C146.309 170.792 146.409 170.432 146.499 170.022C146.439 170.492 146.369 170.862 146.279 171.142C147.229 171.342 147.929 170.982 148.509 170.122C148.109 170.272 147.369 169.282 146.039 167.652C148.399 169.432 149.719 170.132 150.459 169.392C150.689 169.522 150.339 168.222 149.369 165.762C151.929 169.082 152.809 169.752 152.139 167.702C151.869 167.082 151.459 166.142 150.929 164.882C151.819 168.322 151.529 167.832 150.279 164.682C150.739 166.632 150.239 165.942 149.259 164.202C149.019 163.892 148.329 162.692 147.649 161.512C145.609 157.982 143.629 154.622 142.979 150.322C142.039 144.142 140.779 138.292 138.239 132.542C135.849 128.362 132.909 124.442 129.519 120.922C127.089 118.382 124.409 116.102 121.539 114.082C120.109 113.072 118.629 112.132 117.559 112.212C115.589 110.372 114.029 109.562 112.139 112.362C110.839 108.072 109.209 107.392 105.029 108.842C105.909 106.172 104.229 105.632 102.049 105.292C100.819 104.692 99.1094 104.292 97.3794 103.952C93.9194 103.282 90.4094 102.902 86.8994 102.792C90.2494 102.162 93.7394 101.992 97.2994 102.102C99.0794 102.152 100.889 102.272 101.779 102.442C104.529 102.582 106.359 102.772 102.909 103.692C110.049 103.182 111.899 103.402 117.479 109.652C115.619 103.812 117.479 104.002 123.389 105.552C121.209 104.312 123.069 104.422 124.999 104.542C126.789 104.522 128.629 104.492 130.469 104.382C131.389 104.322 132.299 104.242 132.199 104.152C133.819 104.052 134.709 103.942 133.619 103.702C133.569 103.702 133.529 103.702 133.479 103.702C133.389 103.702 133.309 103.712 133.219 103.722C133.279 103.722 133.339 103.712 133.399 103.702C133.369 103.702 133.339 103.702 133.299 103.702C133.389 103.702 133.469 103.692 133.559 103.682C133.359 103.642 133.119 103.602 132.809 103.552C134.299 103.532 135.419 103.492 136.049 103.472C136.519 103.422 136.949 103.372 137.309 103.322C137.919 103.202 138.309 103.062 138.449 102.872C138.419 102.642 138.139 102.332 137.629 101.942C137.509 101.942 137.389 101.962 137.249 101.952M142.979 182.322C142.269 182.982 141.459 183.802 140.479 184.802C141.439 183.802 142.249 182.992 142.979 182.322ZM137.249 101.952C136.479 101.982 135.189 101.792 133.399 101.472C135.109 101.762 136.399 101.952 137.249 101.952ZM137.249 101.952C137.379 101.952 137.499 101.932 137.599 101.922C137.119 101.562 136.419 101.112 135.509 100.582C135.259 100.462 135.019 100.342 134.739 100.202C134.919 100.282 135.079 100.352 135.249 100.432C135.139 100.372 135.039 100.312 134.929 100.242C136.189 100.722 137.239 101.102 138.089 101.372C137.949 100.842 137.099 99.9216 135.469 98.4716C135.959 98.7516 136.399 98.9916 136.819 99.2216C136.519 98.9216 136.199 98.6116 135.819 98.2616C137.439 99.3216 138.649 100.082 139.509 100.522C140.209 100.772 140.659 100.792 140.869 100.562C140.649 99.7316 140.029 98.4816 139.059 96.7016C139.489 97.2116 139.869 97.6616 140.229 98.0716C140.019 97.6216 139.769 97.1216 139.479 96.5616C138.739 96.3916 137.919 96.1116 136.969 95.7016C136.469 95.6816 135.949 95.6416 135.409 95.6116C136.019 95.6416 136.599 95.6716 137.159 95.6716C136.999 95.6216 136.849 95.5716 136.679 95.5116C136.869 95.5716 137.059 95.6216 137.239 95.6716C137.739 95.6716 138.209 95.6616 138.669 95.6216C138.599 95.5616 138.529 95.5216 138.459 95.4616C138.539 95.5216 138.619 95.5616 138.699 95.6216C140.609 95.4616 142.179 94.8816 143.469 93.2616C143.839 93.7016 144.189 94.0616 144.519 94.3516C144.689 94.0916 144.849 93.8116 145.019 93.5016C145.079 93.6216 145.139 93.7316 145.209 93.8316C145.269 93.7516 145.319 93.6816 145.379 93.6016C145.379 93.6216 145.399 93.6416 145.409 93.6616C145.459 93.6016 145.499 93.5516 145.549 93.4916C145.589 93.5416 145.629 93.5816 145.669 93.6316C145.689 93.6116 145.709 93.6016 145.729 93.5816C145.839 93.7516 145.959 93.9116 146.069 94.0716C146.309 94.2916 146.539 94.4416 146.769 94.5416C146.879 94.4116 146.979 94.2716 147.089 94.1316C147.099 94.2916 147.109 94.4416 147.129 94.5816C147.449 94.3616 147.759 94.0116 148.049 93.5916C148.539 93.2016 148.879 92.2316 148.909 90.9916C148.979 88.5116 147.829 84.9816 145.879 79.3716C146.769 81.2916 147.529 82.8816 148.179 84.1716C147.599 82.8216 146.949 81.3416 146.229 79.6916C147.749 82.8716 148.989 85.3916 150.019 87.3216C149.579 85.5816 148.879 83.4716 148.019 80.8616C149.669 85.0116 150.749 87.4816 151.469 88.4916C151.969 88.0116 152.049 85.9016 151.999 82.5416C152.299 84.1616 152.539 85.2416 152.759 85.9016C152.789 85.0616 152.799 84.0516 152.789 82.9016C153.019 84.9116 153.199 86.0916 153.359 86.6316C153.409 86.5916 153.459 86.5316 153.509 86.4416C153.339 85.4616 153.169 84.3516 152.979 83.1016C153.189 84.2916 153.379 85.3616 153.569 86.3216C153.819 85.7816 154.069 84.6716 154.379 83.1916C154.079 85.1016 153.869 86.4616 153.679 86.8716C154.219 89.4716 154.729 91.1316 155.409 92.0316C155.759 91.7316 156.129 91.2916 156.509 90.7316C156.219 90.6316 156.019 90.2316 155.909 89.5416M155.909 89.5416C155.889 89.4216 155.869 89.2816 155.849 89.1416M155.909 89.5416C155.879 89.4216 155.869 89.2816 155.849 89.1416M155.849 89.1416C155.849 89.1016 155.849 89.0716 155.839 89.0216M155.849 89.1416C155.839 89.1016 155.839 89.0616 155.839 89.0216M155.839 89.0216C155.819 88.8216 155.799 88.5916 155.789 88.3416M155.839 89.0216C155.819 88.8116 155.799 88.5916 155.789 88.3416M155.789 88.3416C155.789 88.3316 155.789 88.3116 155.789 88.3016M155.789 88.3416C155.789 88.3316 155.789 88.3216 155.789 88.3016M155.789 88.3016C155.789 88.0916 155.769 87.8616 155.769 87.6316M155.789 88.3016C155.769 88.0916 155.769 87.8716 155.769 87.6316M155.769 87.6316C155.769 87.5516 155.769 87.4716 155.769 87.3916M155.769 87.6316C155.769 87.5516 155.769 87.4816 155.769 87.3916M155.769 87.3916C155.769 87.2916 155.769 87.1816 155.769 87.0816M155.769 87.0816C155.769 86.2216 155.789 85.2316 155.829 84.0916C155.789 85.2416 155.769 86.2316 155.769 87.0816Z" stroke="currentColor" stroke-width="2" stroke-miterlimit="10"/>
</svg>
