<svg width="129" height="131" viewBox="0 0 129 131" fill="none" xmlns="http://www.w3.org/2000/svg">
<path d="M99.1307 95.6598C110.271 82.9998 112.501 65.4398 106.461 50.2098C105.411 51.1798 103.871 52.5198 101.241 54.7898C100.791 55.2498 100.331 55.6998 99.8707 56.1298C99.4007 56.5598 98.9207 56.9798 98.4407 57.3798C97.8607 57.8898 97.2707 58.3398 96.8007 58.8798C95.8607 59.9498 95.1607 60.7498 95.1607 60.7498L92.7307 63.5098L90.3507 66.2198C90.0107 66.6098 89.7407 67.0198 89.4707 67.4598C88.9307 68.8798 88.1907 70.1598 87.3107 71.3498C86.8707 71.9398 86.4007 72.5098 86.2607 72.7898C85.4107 73.6098 84.8807 74.1398 86.7707 73.7298C83.8207 75.1698 83.2607 75.6798 87.4407 81.2698C86.3807 80.3498 85.5107 79.6298 84.7807 79.0998C84.0507 78.5698 83.4507 78.2098 83.5907 77.8498C82.4307 77.8298 82.0107 77.7998 83.2707 77.3798C81.2207 78.0198 80.8707 78.2598 83.6207 78.3798C83.1407 78.4698 82.7207 78.5498 82.3507 78.6398C82.7307 78.6098 83.1507 78.5998 83.6407 78.5798C83.0507 78.5998 82.5607 78.6398 82.1507 78.6898C81.9307 78.7498 81.7307 78.8098 81.5607 78.8798C81.0507 79.0898 80.7107 79.3498 80.5507 79.7298C80.4807 79.8598 80.4307 79.9998 80.4007 80.1498C80.4007 80.4298 80.4707 80.7598 80.6607 81.1398C80.6507 81.1898 80.6407 81.2398 80.6307 81.2898C80.6307 81.3098 80.6507 81.3198 80.6607 81.3398C80.6307 81.4298 80.6107 81.5298 80.5907 81.6198C80.5407 82.3198 80.7007 83.1598 80.9007 84.1898C80.6407 83.1498 80.4607 82.3198 80.5907 81.6198C80.5907 81.4998 80.6107 81.3898 80.6307 81.2798C80.3907 80.8298 80.3407 80.4598 80.4007 80.1398C80.4007 79.8998 80.4507 79.6898 80.5407 79.5098C80.7107 79.1398 81.0407 78.9198 81.5407 78.7898C81.7207 78.7398 81.9307 78.7098 82.1507 78.6798C82.2207 78.6598 82.2807 78.6398 82.3607 78.6298C81.9907 78.6598 81.6607 78.6998 81.3807 78.7598C80.8207 78.8898 80.4407 79.0998 80.2907 79.4298C79.9907 79.8498 79.9207 80.3898 80.4707 81.0698C80.3907 81.2098 80.3407 81.3598 80.3007 81.4998C80.3107 81.4998 80.3207 81.4998 80.3307 81.5098C80.3107 81.5298 80.3007 81.5598 80.2807 81.5898C80.0807 82.3398 80.2307 83.2098 80.4507 84.2798C80.0507 83.1098 79.7707 82.2398 80.2807 81.5898C80.2807 81.5598 80.3007 81.5298 80.3007 81.4998C79.9207 81.3198 79.6507 81.1598 79.4907 81.0198C79.4007 81.0698 79.3107 81.1198 79.2207 81.1698C79.3607 81.2198 79.5407 81.2798 79.7607 81.3398C77.9507 82.1398 77.6907 82.9898 78.0107 85.3098C77.6807 82.9198 77.8107 82.0098 79.2107 81.1798C79.0507 81.1198 78.9507 81.0598 78.8907 80.9998C78.6807 80.9998 78.5107 80.9898 78.4007 80.9698C78.2707 81.0598 78.1407 81.1398 78.0207 81.2298C78.1507 81.2098 78.3107 81.1798 78.4907 81.1498C78.3907 81.1898 78.3007 81.2298 78.2107 81.2698C78.3507 81.2598 78.5107 81.2398 78.6907 81.2198C78.1307 81.4398 77.7107 81.6398 77.3807 81.8998C77.5507 81.8698 77.7307 81.8498 77.9507 81.8498C77.7407 81.8498 77.5507 81.8698 77.3807 81.8998C77.2907 81.9698 77.2207 82.0398 77.1407 82.1198C76.6507 82.7898 76.3407 83.6798 75.9407 85.1598C76.3107 83.5298 76.5807 82.6898 77.1407 82.1198C77.1907 82.0498 77.2407 81.9798 77.2907 81.9198C77.1107 81.9698 76.9507 82.0398 76.7907 82.1598C76.4507 82.4898 76.1807 82.9198 75.8807 83.5198C75.7007 83.8898 75.5007 84.3298 75.2707 84.8798C75.5007 84.3398 75.6907 83.8998 75.8807 83.5198C76.2207 82.8098 76.4907 82.3998 76.7907 82.1598C76.8307 82.1198 76.8807 82.0798 76.9207 82.0398C76.2807 82.3298 75.8307 83.0398 74.9007 84.6898C75.8407 82.7498 75.7907 82.7898 74.8707 84.6598C75.4607 83.1698 75.1707 83.4998 74.0707 85.0998C74.3307 84.4598 73.8107 85.0398 73.2807 85.6698C72.9507 86.0298 72.5907 86.4298 72.3407 86.7098L71.9507 87.1498C71.9507 87.1498 72.0507 86.9698 72.2107 86.6598C72.3707 86.3498 72.6107 85.8998 72.8407 85.4398C73.1907 84.8398 73.5207 84.2098 72.8907 84.2798C74.0607 83.2098 74.2507 82.8698 72.7807 83.1398C74.5307 82.2098 74.6407 81.8998 72.8607 81.3298C74.5107 81.2998 74.9907 81.1198 74.5307 80.2998C74.2907 80.2098 73.8407 79.9898 73.1607 79.6598C73.5807 79.7498 73.9307 79.8098 74.2207 79.8398C74.1407 79.7298 74.0507 79.6198 73.9507 79.4898C74.0907 79.6298 74.2207 79.7398 74.3207 79.8498C75.1407 79.8898 75.4707 79.6098 75.4907 78.8798C75.3707 79.1598 74.8707 78.9198 73.9007 78.3498C74.6007 78.5698 75.1107 78.6498 75.4807 78.5998C75.4807 78.4498 75.4607 78.2998 75.4307 78.1198C75.4807 78.3098 75.5007 78.4698 75.5107 78.5998C75.9207 78.5298 76.1407 78.2898 76.2407 77.8598C76.1007 77.9798 75.6607 77.6998 74.8907 77.2598C76.0907 77.6098 76.7207 77.6798 76.9007 77.2798C77.0107 77.2998 76.6707 76.8398 75.9207 76.0098C77.4307 76.9298 77.8807 77.0698 77.3107 76.3598C77.1107 76.1598 76.8107 75.8498 76.4007 75.4298C77.2707 76.6498 77.0807 76.4998 76.1107 75.4498C76.5907 76.1498 76.2807 75.9498 75.6407 75.4098C75.5007 75.3198 75.0507 74.9498 74.6007 74.5898C73.2607 73.4998 71.9707 72.4798 71.0607 70.8798C69.7507 68.5798 68.3707 66.4598 66.5007 64.5698C64.9207 63.2798 63.1707 62.1698 61.3007 61.2998C59.9507 60.6598 58.5507 60.1698 57.1107 59.7998C56.3907 59.6198 55.6607 59.4698 55.2507 59.6598C54.1907 59.2298 53.4507 59.1498 53.1307 60.5398C51.9707 59.0398 51.2207 59.0198 49.7907 60.2298C49.7307 59.0398 48.9907 59.0798 48.0807 59.2798C47.5107 59.2298 46.7707 59.3298 46.0307 59.4598C44.5607 59.7198 43.1207 60.0998 41.7207 60.5898C42.9507 59.8298 44.3007 59.2398 45.7207 58.7398C46.4307 58.4898 47.1607 58.2598 47.5407 58.1998C48.6507 57.8398 49.4007 57.6398 48.1807 58.5198C50.9207 57.2398 51.6907 57.0398 54.8407 58.6698C53.2207 56.6398 53.9907 56.4398 56.5507 56.1598C55.5007 55.9998 56.2507 55.7598 57.0307 55.5198C57.7307 55.2398 58.4607 54.9498 59.1707 54.6298C59.5207 54.4698 59.8707 54.2998 59.8207 54.2798C60.4507 53.9898 60.7807 53.8098 60.3107 53.8898C60.2907 53.8898 60.2707 53.9098 60.2507 53.9098C60.2207 53.9298 60.1807 53.9398 60.1507 53.9598C60.1707 53.9498 60.1907 53.9398 60.2207 53.9298C60.2107 53.9298 60.2007 53.9398 60.1807 53.9498C60.2207 53.9298 60.2507 53.9198 60.2807 53.8998C60.2007 53.9098 60.0907 53.9298 59.9607 53.9598C60.5507 53.7298 60.9807 53.5398 61.2307 53.4398C61.4107 53.3498 61.5707 53.2598 61.7107 53.1898C61.9307 53.0498 62.0607 52.9398 62.0907 52.8398C62.0407 52.7498 61.8907 52.6698 61.6207 52.5998C61.5807 52.6198 61.5307 52.6398 61.4707 52.6598C61.1707 52.7898 60.6307 52.9098 59.8807 53.0498C60.6007 52.9098 61.1407 52.7798 61.4707 52.6598C61.5207 52.6398 61.5707 52.6198 61.6007 52.5898C61.3507 52.5198 61.0107 52.4498 60.5707 52.3798C60.4507 52.3698 60.3407 52.3598 60.2107 52.3498C60.2907 52.3498 60.3707 52.3498 60.4507 52.3598C60.4007 52.3598 60.3507 52.3398 60.2907 52.3298C60.8607 52.3298 61.3307 52.3298 61.7107 52.2998C61.5807 52.1098 61.1007 51.8798 60.2407 51.5498C60.4807 51.5898 60.6907 51.6198 60.8907 51.6398C60.7307 51.5698 60.5507 51.4898 60.3507 51.4098C61.1507 51.5798 61.7407 51.6998 62.1507 51.7398C62.4607 51.7398 62.6407 51.6698 62.6907 51.5498C62.4807 51.2598 62.0407 50.8598 61.3907 50.2998C61.6407 50.4398 61.8607 50.5598 62.0607 50.6698C61.9107 50.5298 61.7307 50.3598 61.5407 50.1898C61.2207 50.2398 60.8607 50.2498 60.4207 50.2298C60.2207 50.2998 60.0107 50.3598 59.7907 50.4298C60.0407 50.3498 60.2707 50.2698 60.4907 50.1898C60.4207 50.1898 60.3507 50.1898 60.2807 50.1998C60.3707 50.1998 60.4507 50.1898 60.5307 50.1798C60.7307 50.1098 60.9107 50.0298 61.0907 49.9498C61.0507 49.9398 61.0207 49.9298 60.9807 49.9198C61.0207 49.9198 61.0607 49.9398 61.1007 49.9498C61.8307 49.5998 62.3607 49.1298 62.6307 48.2998C62.8407 48.4198 63.0407 48.5098 63.2107 48.5698C63.2407 48.4398 63.2607 48.3098 63.2807 48.1598C63.3207 48.1998 63.3607 48.2298 63.4007 48.2598C63.4107 48.2198 63.4207 48.1798 63.4307 48.1398C63.4307 48.1398 63.4407 48.1498 63.4507 48.1598C63.4507 48.1298 63.4707 48.0998 63.4807 48.0698C63.5007 48.0798 63.5207 48.0998 63.5507 48.1098C63.5507 48.1098 63.5607 48.0898 63.5707 48.0798C63.6407 48.1298 63.7107 48.1798 63.7807 48.2198C63.9107 48.2698 64.0207 48.2998 64.1307 48.2998C64.1507 48.2298 64.1707 48.1598 64.1907 48.0898C64.2207 48.1498 64.2507 48.2098 64.2707 48.2598C64.3607 48.1298 64.4307 47.9398 64.4907 47.7298C64.6307 47.4998 64.6107 47.0698 64.4407 46.5698C64.0907 45.5798 63.1007 44.3598 61.4907 42.4398C62.1307 43.0598 62.6707 43.5798 63.1307 43.9898C62.7007 43.5498 62.2207 43.0598 61.6807 42.5198C62.7607 43.5498 63.6307 44.3598 64.3307 44.9598C63.8907 44.3398 63.3007 43.6098 62.5607 42.7098C63.8407 44.0998 64.6407 44.9098 65.0807 45.1998C65.2007 44.9398 64.9207 44.0898 64.3907 42.7698C64.7507 43.3698 65.0107 43.7498 65.2007 43.9798C65.0807 43.6398 64.9307 43.2498 64.7607 42.7898C65.1607 43.5498 65.4007 43.9898 65.5507 44.1798C65.5607 44.1598 65.5707 44.1298 65.5807 44.0798C65.3607 43.7198 65.1307 43.3098 64.8707 42.8398C65.1307 43.2798 65.3707 43.6698 65.5907 44.0198C65.6007 43.7698 65.5407 43.2898 65.4407 42.6598C65.6107 43.4598 65.7307 44.0298 65.7207 44.2198C66.3207 45.1598 66.7807 45.7398 67.1807 45.9898C67.2707 45.8198 67.3507 45.5898 67.4207 45.3098C67.2907 45.3098 67.1507 45.1898 67.0007 44.9298C66.9707 44.8898 66.9507 44.8298 66.9207 44.7798C66.9207 44.7598 66.9007 44.7498 66.9007 44.7398C66.8607 44.6598 66.8207 44.5798 66.7807 44.4798C66.7807 44.4798 66.7807 44.4698 66.7807 44.4598C66.7407 44.3798 66.7107 44.2898 66.6707 44.1998C66.6607 44.1698 66.6407 44.1398 66.6307 44.0998C66.6407 44.1298 66.6607 44.1598 66.6707 44.1998C66.7107 44.2898 66.7407 44.3798 66.7807 44.4598C66.7807 44.4598 66.7807 44.4698 66.7807 44.4798C66.8207 44.5698 66.8607 44.6598 66.9007 44.7398C66.9007 44.7598 66.9207 44.7698 66.9207 44.7798C66.9507 44.8298 66.9807 44.8798 67.0007 44.9298C67.1907 45.2398 67.3407 45.2898 67.4807 45.0298C67.5107 44.8698 67.5407 44.6998 67.5707 44.5098C67.4007 44.1098 67.2207 43.5498 67.0307 42.8398C67.2507 43.5198 67.4507 44.0598 67.6707 44.4398C67.7207 44.2198 67.7607 43.9598 67.8007 43.6398C67.8007 44.0098 67.8007 44.3398 67.7907 44.6298C67.8207 44.6698 67.8407 44.6998 67.8707 44.7398C67.9607 44.5098 68.0507 44.2298 68.1507 43.8598C68.1207 44.2798 68.1007 44.6398 68.0807 44.9598C68.1307 44.9998 68.1807 45.0298 68.2307 45.0598C68.3007 44.8998 68.3707 44.7298 68.4507 44.5398C68.4107 44.7498 68.3707 44.9298 68.3407 45.1098C68.3507 45.1098 68.3607 45.1098 68.3707 45.1098C68.5807 45.0098 68.8207 44.7298 69.1107 44.2498C69.0207 44.5598 68.9507 44.8298 68.8807 45.0798C68.9107 45.0798 68.9407 45.0598 68.9607 45.0498C69.0007 44.9898 69.0507 44.9298 69.0907 44.8598C69.0707 44.9198 69.0507 44.9698 69.0307 45.0198C69.2507 44.9098 69.5007 44.7398 69.7807 44.4898C69.2207 46.4698 69.6307 46.4998 71.1907 45.6198C70.9407 45.8298 70.9107 45.8598 71.0407 45.7798C70.9907 45.7798 71.1307 45.6798 71.4807 45.4398C70.9807 45.7298 71.3907 45.4798 72.0507 45.0498C71.5807 45.3898 71.1907 45.6798 71.0307 45.7798C71.0807 45.7798 71.3407 45.6598 71.7707 45.4498C71.9907 45.4098 72.8707 45.0198 74.1807 44.4598C72.9907 44.9098 72.2207 45.1798 71.9607 45.2398C71.4907 45.4298 71.5407 45.3998 72.0507 45.1898C72.4407 45.0598 73.3007 44.7498 74.5507 44.3098C71.1407 45.2598 71.3107 45.0798 74.7607 44.0498C71.6507 44.7298 71.8207 44.5498 74.9307 43.5998C72.3707 43.9798 72.7507 43.5998 75.1207 42.6798C73.5007 42.8198 73.8807 42.4198 75.2007 41.7698C74.6207 41.6398 74.9907 41.2398 75.4807 40.8098C75.7307 40.4498 76.1007 40.0498 76.4607 39.6498C77.9207 38.0298 79.3407 36.3698 80.7107 34.6498C82.0407 32.9498 74.2007 23.8598 75.4707 22.0998C75.5507 21.9898 75.6907 21.9498 75.8907 21.9398C59.4407 16.8998 41.2507 21.1498 29.6107 34.3798C13.5007 52.6898 16.0207 81.2498 35.2507 98.1798C54.4807 115.11 83.1307 113.99 99.2507 95.6798L99.1307 95.6598Z" fill="currentColor"/>
</svg>
