<svg width="157" height="164" viewBox="0 0 157 164" fill="none" xmlns="http://www.w3.org/2000/svg">
<path d="M129.334 135.122C129.334 107.054 106.573 84.3047 78.5031 84.3047C50.4329 84.3047 27.6719 107.059 27.6719 135.122H129.34H129.334Z" fill="currentColor"/>
<path d="M27.666 28.9648C27.666 57.0326 50.427 79.7817 78.4973 79.7817C106.567 79.7817 129.328 57.0272 129.328 28.9648H27.666Z" fill="currentColor"/>
<path d="M141.056 82.1163L85.5488 82.0508" stroke="#8D8D8E" stroke-width="1.15" stroke-miterlimit="10"/>
<path d="M71.4518 82.0358L15.9395 81.9648" stroke="#8D8D8E" stroke-width="1.15" stroke-miterlimit="10"/>
<path d="M78.3549 148.945C81.1182 148.945 83.3583 146.706 83.3583 143.943C83.3583 141.181 81.1182 138.941 78.3549 138.941C75.5917 138.941 73.3516 141.181 73.3516 143.943C73.3516 146.706 75.5917 148.945 78.3549 148.945Z" stroke="#8D8D8E" stroke-width="1.15" stroke-miterlimit="10"/>
<path d="M78.3061 150.98C81.0694 150.98 83.3095 148.741 83.3095 145.979C83.3095 143.216 81.0694 140.977 78.3061 140.977C75.5428 140.977 73.3027 143.216 73.3027 145.979C73.3027 148.741 75.5428 150.98 78.3061 150.98Z" stroke="#8D8D8E" stroke-width="1.15" stroke-miterlimit="10"/>
<path d="M78.687 23.0156C81.4503 23.0156 83.6903 20.7762 83.6903 18.0137C83.6903 15.2512 81.4503 13.0117 78.687 13.0117C75.9237 13.0117 73.6836 15.2512 73.6836 18.0137C73.6836 20.7762 75.9237 23.0156 78.687 23.0156Z" stroke="#8D8D8E" stroke-width="1.15" stroke-miterlimit="10"/>
<path d="M78.644 25.0586C81.4073 25.0586 83.6474 22.8192 83.6474 20.0567C83.6474 17.2941 81.4073 15.0547 78.644 15.0547C75.8807 15.0547 73.6406 17.2941 73.6406 20.0567C73.6406 22.8192 75.8807 25.0586 78.644 25.0586Z" stroke="#8D8D8E" stroke-width="1.15" stroke-miterlimit="10"/>
<path d="M78.4707 144.946L78.5581 89.4492" stroke="#8D8D8E" stroke-width="1.15" stroke-miterlimit="10"/>
<path d="M78.5801 75.3545L78.6675 19.8633" stroke="#8D8D8E" stroke-width="1.15" stroke-miterlimit="10"/>
</svg>
