<svg width="614" height="292" viewBox="0 0 614 292" fill="none" xmlns="http://www.w3.org/2000/svg">
<path d="M59.8204 118.249C64.2204 121.769 71.0404 121.909 76.3404 123.119C82.5804 124.549 89.1204 126.249 95.5504 125.189C97.8004 124.819 99.5904 123.899 100.73 122.329C102.24 120.779 104.56 117.119 100.88 115.539C94.8904 113.579 64.7904 112.559 58.5304 111.009C48.2204 109.309 38.7804 103.969 28.8904 102.199C28.7304 102.259 28.5604 102.319 28.4004 102.379C29.6404 104.299 58.4304 117.139 59.8204 118.249Z" stroke="currentColor" stroke-width="2" stroke-miterlimit="10"/>
<path d="M74.8101 129.699C67.8001 130.309 61.1701 127.909 55.5201 130.639C54.3301 131.559 53.7501 133.059 53.0701 134.909C52.9201 135.769 52.8401 136.569 52.7001 137.339C52.5601 138.109 52.3501 138.849 52.3301 139.379C53.2301 139.149 54.5001 138.899 55.7701 138.759C59.5801 138.349 63.4001 139.009 67.2901 139.299C73.1801 139.749 79.1001 139.599 84.9801 139.239C94.1301 138.669 103.22 136.069 104.36 125.289C99.5701 127.399 94.6901 128.569 89.7601 129.169C84.8301 129.779 79.8401 129.829 74.8101 129.699Z" stroke="currentColor" stroke-width="2" stroke-miterlimit="10"/>
<path d="M151.611 121.08C146.741 118.25 139.971 119.12 134.551 118.71C128.171 118.22 121.441 117.51 115.241 119.51C113.071 120.21 111.441 121.38 110.541 123.11C109.281 124.87 107.521 128.83 111.391 129.85C117.611 130.9 147.531 127.44 153.941 128.05C164.391 128.2 174.511 132.09 184.561 132.37C184.711 132.29 184.871 132.2 185.021 132.12C183.501 130.41 153.131 121.97 151.601 121.08H151.611Z" stroke="currentColor" stroke-width="2" stroke-miterlimit="10"/>
<path d="M135.079 111.968C141.919 110.328 148.839 111.718 154.019 108.178C155.059 107.088 155.409 105.518 155.809 103.598C155.829 102.728 155.789 101.928 155.809 101.148C155.839 100.368 155.929 99.6081 155.869 99.0781C155.009 99.4381 153.799 99.8781 152.559 100.198C148.849 101.168 144.969 101.088 141.089 101.368C135.199 101.798 129.369 102.818 123.599 104.048C114.629 105.968 106.029 109.888 106.509 120.718C110.939 117.918 115.579 116.048 120.369 114.718C125.159 113.388 130.089 112.598 135.069 111.978L135.079 111.968Z" stroke="currentColor" stroke-width="2" stroke-miterlimit="10"/>
<path d="M172.671 98.9486C175.181 103.999 181.301 106.999 185.591 110.329C190.641 114.249 195.861 118.559 202.141 120.309C204.341 120.919 206.351 120.839 208.041 119.899C210.061 119.129 213.711 116.789 211.041 113.809C206.441 109.499 179.571 95.8886 174.551 91.8486C165.921 85.9586 159.611 77.1386 151.391 71.3586C151.221 71.3386 151.041 71.3286 150.871 71.3086C151.191 73.5686 171.881 97.3586 172.671 98.9486Z" stroke="currentColor" stroke-width="2" stroke-miterlimit="10"/>
<path d="M181.431 115.66C174.821 113.26 169.821 108.29 163.541 108.38C162.071 108.71 160.911 109.83 159.521 111.21C159.031 111.93 158.611 112.62 158.161 113.25C157.711 113.89 157.211 114.47 156.971 114.95C157.881 115.12 159.141 115.43 160.351 115.84C163.981 117.08 167.171 119.28 170.571 121.19C175.721 124.08 181.151 126.44 186.641 128.59C195.181 131.94 204.521 133.4 210.091 124.11C204.851 124 199.941 123 195.221 121.48C190.491 119.95 185.951 117.89 181.441 115.66H181.431Z" stroke="currentColor" stroke-width="2" stroke-miterlimit="10"/>
<path d="M254.7 140.22C251.47 135.6 244.97 133.54 240.23 130.88C234.65 127.75 228.85 124.26 222.38 123.46C220.11 123.18 218.14 123.55 216.6 124.74C214.71 125.8 211.45 128.66 214.53 131.21C219.72 134.79 248.31 144.26 253.88 147.52C263.29 152.07 270.83 159.86 279.82 164.35C279.99 164.34 280.17 164.33 280.34 164.32C279.69 162.13 255.7 141.67 254.69 140.22H254.7Z" stroke="currentColor" stroke-width="2" stroke-miterlimit="10"/>
<path d="M243.561 124.988C250.461 126.388 256.141 130.558 262.331 129.538C263.731 128.988 264.711 127.718 265.891 126.138C266.271 125.358 266.581 124.608 266.931 123.918C267.291 123.218 267.691 122.568 267.861 122.068C266.931 122.028 265.641 121.918 264.391 121.688C260.621 121.008 257.141 119.298 253.491 117.918C247.971 115.828 242.251 114.288 236.501 112.978C227.561 110.938 218.111 110.868 213.971 120.888C219.161 120.218 224.171 120.478 229.071 121.288C233.971 122.098 238.771 123.458 243.561 124.998V124.988Z" stroke="currentColor" stroke-width="2" stroke-miterlimit="10"/>
<path d="M277.53 125.417C279.04 130.857 284.52 135.007 288.11 139.107C292.35 143.947 296.68 149.187 302.55 152.127C304.61 153.157 306.6 153.477 308.46 152.877C310.61 152.517 314.66 150.927 312.59 147.487C308.87 142.357 284.93 123.757 280.75 118.807C273.35 111.337 268.81 101.447 261.8 94.1773C261.63 94.1273 261.46 94.0773 261.29 94.0273C261.17 96.3073 277.05 123.697 277.53 125.407V125.417Z" stroke="currentColor" stroke-width="2" stroke-miterlimit="10"/>
<path d="M282.979 143.527C276.909 139.877 272.919 134.027 266.699 132.887C265.189 132.927 263.829 133.797 262.179 134.887C261.549 135.497 261.019 136.087 260.439 136.627C259.869 137.167 259.269 137.637 258.939 138.057C259.809 138.407 260.989 138.947 262.109 139.587C265.459 141.507 268.179 144.297 271.179 146.827C275.709 150.667 280.619 154.047 285.639 157.227C293.429 162.177 302.379 165.437 309.659 157.407C304.509 156.277 299.849 154.347 295.469 151.917C291.089 149.497 286.999 146.587 282.969 143.517L282.979 143.527Z" stroke="currentColor" stroke-width="2" stroke-miterlimit="10"/>
<path d="M350.66 181.927C348.36 176.767 342.33 173.467 338.16 169.937C333.25 165.777 328.19 161.227 321.95 159.177C319.76 158.457 317.74 158.447 316 159.307C313.93 159.977 310.16 162.147 312.72 165.257C317.16 169.777 343.59 184.657 348.46 188.937C356.89 195.237 362.84 204.357 370.86 210.517C371.03 210.537 371.21 210.567 371.38 210.587C371.15 208.307 351.38 183.547 350.65 181.927H350.66Z" stroke="currentColor" stroke-width="2" stroke-miterlimit="10"/>
<path d="M342.569 164.809C349.119 167.529 353.929 172.729 360.239 172.939C361.729 172.679 362.939 171.619 364.409 170.299C364.939 169.609 365.379 168.939 365.869 168.319C366.349 167.699 366.879 167.149 367.139 166.679C366.229 166.459 364.979 166.099 363.779 165.629C360.179 164.219 357.069 161.869 353.739 159.799C348.689 156.669 343.329 154.049 337.899 151.639C329.459 147.889 320.139 145.979 314.129 155.009C319.389 155.369 324.279 156.599 328.969 158.349C333.659 160.099 338.139 162.379 342.569 164.819V164.809Z" stroke="currentColor" stroke-width="2" stroke-miterlimit="10"/>
<path d="M371.09 165.057C374.39 169.627 380.92 171.597 385.69 174.177C391.31 177.227 397.16 180.627 403.65 181.327C405.92 181.577 407.89 181.167 409.41 179.957C411.28 178.867 414.5 175.967 411.38 173.457C406.14 169.957 377.41 160.907 371.8 157.737C362.32 153.327 354.66 145.657 345.61 141.297C345.44 141.307 345.26 141.327 345.09 141.337C345.78 143.517 370.06 163.617 371.1 165.057H371.09Z" stroke="currentColor" stroke-width="2" stroke-miterlimit="10"/>
<path d="M382.449 180.115C375.529 178.825 369.789 174.735 363.609 175.845C362.219 176.415 361.249 177.705 360.099 179.295C359.729 180.085 359.429 180.835 359.089 181.535C358.749 182.235 358.349 182.895 358.189 183.405C359.119 183.425 360.409 183.525 361.669 183.735C365.449 184.365 368.959 186.025 372.619 187.345C378.169 189.355 383.909 190.805 389.679 192.035C398.649 193.945 408.099 193.875 412.089 183.795C406.909 184.545 401.899 184.355 396.989 183.625C392.079 182.885 387.259 181.595 382.449 180.125V180.115Z" stroke="currentColor" stroke-width="2" stroke-miterlimit="10"/>
<path d="M458.75 192.398C454.81 188.368 448.06 187.388 442.96 185.538C436.95 183.358 430.66 180.868 424.14 181.128C421.86 181.218 419.97 181.908 418.65 183.338C416.96 184.698 414.21 188.038 417.67 190.058C423.38 192.738 453.13 197.428 459.15 199.738C469.18 202.688 477.89 209.148 487.49 212.108C487.66 212.068 487.83 212.028 488 211.988C487 209.938 460 193.658 458.76 192.388L458.75 192.398Z" stroke="currentColor" stroke-width="2" stroke-miterlimit="10"/>
<path d="M445.28 179.196C452.31 179.446 458.6 182.646 464.54 180.626C465.83 179.856 466.6 178.436 467.5 176.696C467.75 175.866 467.93 175.076 468.17 174.336C468.41 173.586 468.7 172.886 468.78 172.356C467.86 172.466 466.57 172.566 465.29 172.546C461.46 172.486 457.74 171.366 453.92 170.596C448.13 169.436 442.24 168.846 436.35 168.496C427.2 167.936 417.86 169.416 415.41 179.966C420.43 178.456 425.4 177.896 430.37 177.896C435.34 177.896 440.3 178.456 445.27 179.196H445.28Z" stroke="currentColor" stroke-width="2" stroke-miterlimit="10"/>
<path d="M469.62 169.899C474.13 173.279 480.95 173.219 486.28 174.269C492.56 175.509 499.15 177.009 505.55 175.749C507.79 175.309 509.55 174.339 510.64 172.729C512.1 171.129 514.31 167.409 510.59 165.939C504.54 164.159 474.42 164.069 468.12 162.709C457.76 161.319 448.17 156.269 438.23 154.809C438.07 154.869 437.9 154.939 437.74 154.999C439.04 156.879 468.21 168.839 469.63 169.899H469.62Z" stroke="currentColor" stroke-width="2" stroke-miterlimit="10"/>
<path d="M484.95 180.898C477.96 181.718 471.26 179.528 465.69 182.428C464.53 183.388 463.99 184.898 463.37 186.768C463.25 187.628 463.19 188.428 463.07 189.208C462.95 189.978 462.77 190.728 462.77 191.258C463.66 191.008 464.92 190.708 466.19 190.538C469.99 190.008 473.83 190.548 477.72 190.728C483.62 190.998 489.53 190.668 495.4 190.128C504.53 189.278 513.53 186.398 514.34 175.598C509.61 177.848 504.78 179.168 499.87 179.928C494.96 180.688 489.97 180.888 484.95 180.918V180.898Z" stroke="currentColor" stroke-width="2" stroke-miterlimit="10"/>
<path d="M561.45 169.925C556.49 167.245 549.75 168.325 544.33 168.075C537.94 167.785 531.19 167.275 525.05 169.465C522.9 170.235 521.31 171.455 520.46 173.205C519.25 175.005 517.62 179.015 521.52 179.915C527.77 180.775 557.57 176.405 564 176.815C574.45 176.655 584.69 180.225 594.74 180.195C594.89 180.105 595.04 180.025 595.19 179.935C593.62 178.275 563.01 170.765 561.45 169.925Z" stroke="currentColor" stroke-width="2" stroke-miterlimit="10"/>
<path d="M544.651 161.327C551.441 159.477 558.391 160.657 563.471 156.957C564.481 155.837 564.781 154.257 565.121 152.317C565.121 151.447 565.051 150.647 565.051 149.867C565.051 149.087 565.121 148.317 565.051 147.797C564.211 148.177 563.001 148.657 561.771 149.017C558.091 150.097 554.211 150.137 550.341 150.537C544.471 151.147 538.671 152.347 532.941 153.757C524.041 155.947 515.561 160.127 516.361 170.937C520.701 168.007 525.291 165.987 530.031 164.517C534.771 163.037 539.681 162.097 544.641 161.327H544.651Z" stroke="currentColor" stroke-width="2" stroke-miterlimit="10"/>
<path d="M168.7 118.422L112.67 123.072" stroke="currentColor" stroke-width="0.75" stroke-miterlimit="10"/>
<path d="M98.4402 124.25L42.4102 128.9" stroke="currentColor" stroke-width="0.75" stroke-miterlimit="10"/>
<path d="M110.82 190.538C113.62 190.538 115.89 188.269 115.89 185.468C115.89 182.668 113.62 180.398 110.82 180.398C108.02 180.398 105.75 182.668 105.75 185.468C105.75 188.269 108.02 190.538 110.82 190.538Z" stroke="currentColor" stroke-width="0.75" stroke-miterlimit="10"/>
<path d="M110.951 192.597C113.751 192.597 116.021 190.327 116.021 187.527C116.021 184.727 113.751 182.457 110.951 182.457C108.151 182.457 105.881 184.727 105.881 187.527C105.881 190.327 108.151 192.597 110.951 192.597Z" stroke="currentColor" stroke-width="0.75" stroke-miterlimit="10"/>
<path d="M100.41 63.39C103.21 63.39 105.48 61.1201 105.48 58.32C105.48 55.5199 103.21 53.25 100.41 53.25C97.6098 53.25 95.3398 55.5199 95.3398 58.32C95.3398 61.1201 97.6098 63.39 100.41 63.39Z" stroke="currentColor" stroke-width="0.75" stroke-miterlimit="10"/>
<path d="M100.541 65.4603C103.341 65.4603 105.611 63.1904 105.611 60.3903C105.611 57.5902 103.341 55.3203 100.541 55.3203C97.7406 55.3203 95.4707 57.5902 95.4707 60.3903C95.4707 63.1904 97.7406 65.4603 100.541 65.4603Z" stroke="currentColor" stroke-width="0.75" stroke-miterlimit="10"/>
<path d="M111.019 186.473L106.369 130.453" stroke="currentColor" stroke-width="0.75" stroke-miterlimit="10"/>
<path d="M105.189 116.221L100.539 60.1914" stroke="currentColor" stroke-width="0.75" stroke-miterlimit="10"/>
<path d="M283.16 136.252L219.59 123.672" stroke="currentColor" stroke-width="0.75" stroke-miterlimit="10"/>
<path d="M203.439 120.481L139.869 107.891" stroke="currentColor" stroke-width="0.75" stroke-miterlimit="10"/>
<path d="M203.411 193.842C204.297 190.741 202.501 187.509 199.399 186.623C196.298 185.737 193.066 187.533 192.18 190.635C191.294 193.736 193.09 196.968 196.192 197.854C199.293 198.74 202.525 196.944 203.411 193.842Z" stroke="currentColor" stroke-width="0.75" stroke-miterlimit="10"/>
<path d="M202.889 196.178C203.775 193.077 201.979 189.845 198.878 188.959C195.776 188.073 192.544 189.869 191.659 192.97C190.773 196.072 192.569 199.304 195.67 200.19C198.771 201.076 202.004 199.279 202.889 196.178Z" stroke="currentColor" stroke-width="0.75" stroke-miterlimit="10"/>
<path d="M232.108 49.643C232.994 46.5417 231.198 43.3095 228.097 42.4237C224.995 41.5379 221.763 43.334 220.877 46.4353C219.992 49.5366 221.788 52.7688 224.889 53.6546C227.99 54.5404 231.222 52.7443 232.108 49.643Z" stroke="currentColor" stroke-width="0.75" stroke-miterlimit="10"/>
<path d="M231.598 51.9633C232.484 48.862 230.688 45.6298 227.587 44.744C224.485 43.8582 221.253 45.6543 220.368 48.7556C219.482 51.857 221.278 55.0892 224.379 55.9749C227.48 56.8607 230.713 55.0647 231.598 51.9633Z" stroke="currentColor" stroke-width="0.75" stroke-miterlimit="10"/>
<path d="M197.688 193.412L210.268 129.852" stroke="currentColor" stroke-width="0.75" stroke-miterlimit="10"/>
<path d="M213.467 113.711L226.047 50.1406" stroke="currentColor" stroke-width="0.75" stroke-miterlimit="10"/>
<path d="M372.481 166.893L319.061 156.312" stroke="currentColor" stroke-width="0.75" stroke-miterlimit="10"/>
<path d="M305.5 153.631L252.08 143.051" stroke="currentColor" stroke-width="0.75" stroke-miterlimit="10"/>
<path d="M305.469 215.292C306.213 212.685 304.703 209.967 302.096 209.222C299.488 208.478 296.771 209.988 296.026 212.595C295.281 215.203 296.791 217.92 299.399 218.665C302.006 219.41 304.724 217.9 305.469 215.292Z" stroke="currentColor" stroke-width="0.75" stroke-miterlimit="10"/>
<path d="M305.045 217.245C305.789 214.638 304.279 211.92 301.672 211.176C299.065 210.431 296.347 211.941 295.602 214.548C294.858 217.156 296.368 219.873 298.975 220.618C301.583 221.363 304.3 219.853 305.045 217.245Z" stroke="currentColor" stroke-width="0.75" stroke-miterlimit="10"/>
<path d="M329.596 94.1007C330.34 91.4932 328.83 88.7757 326.223 88.031C323.615 87.2863 320.898 88.7963 320.153 91.4038C319.408 94.0112 320.918 96.7287 323.526 97.4734C326.133 98.2182 328.851 96.7081 329.596 94.1007Z" stroke="currentColor" stroke-width="0.75" stroke-miterlimit="10"/>
<path d="M329.172 96.0538C329.916 93.4463 328.406 90.7289 325.799 89.9841C323.191 89.2394 320.474 90.7495 319.729 93.3569C318.985 95.9644 320.495 98.6818 323.102 99.4266C325.71 100.171 328.427 98.6612 329.172 96.0538Z" stroke="currentColor" stroke-width="0.75" stroke-miterlimit="10"/>
<path d="M300.66 214.918L311.24 161.508" stroke="currentColor" stroke-width="0.75" stroke-miterlimit="10"/>
<path d="M313.92 147.94L324.49 94.5195" stroke="currentColor" stroke-width="0.75" stroke-miterlimit="10"/>
<path d="M477.809 183.484L420.449 181.164" stroke="currentColor" stroke-width="0.75" stroke-miterlimit="10"/>
<path d="M405.88 180.572L348.52 178.242" stroke="currentColor" stroke-width="0.75" stroke-miterlimit="10"/>
<path d="M415.844 244.769C416.195 241.935 414.183 239.354 411.349 239.003C408.515 238.652 405.934 240.664 405.583 243.498C405.232 246.332 407.244 248.913 410.078 249.264C412.912 249.615 415.493 247.603 415.844 244.769Z" stroke="currentColor" stroke-width="0.75" stroke-miterlimit="10"/>
<path d="M415.711 246.867C416.062 244.033 414.05 241.451 411.216 241.1C408.382 240.749 405.801 242.762 405.45 245.596C405.099 248.429 407.112 251.011 409.945 251.362C412.779 251.713 415.361 249.7 415.711 246.867Z" stroke="currentColor" stroke-width="0.75" stroke-miterlimit="10"/>
<path d="M421.256 114.624C421.607 111.791 419.595 109.209 416.761 108.858C413.927 108.507 411.346 110.52 410.995 113.354C410.644 116.187 412.657 118.769 415.49 119.12C418.324 119.471 420.905 117.458 421.256 114.624Z" stroke="currentColor" stroke-width="0.75" stroke-miterlimit="10"/>
<path d="M421.135 116.734C421.486 113.9 419.474 111.319 416.64 110.968C413.806 110.617 411.225 112.629 410.874 115.463C410.523 118.297 412.535 120.878 415.369 121.229C418.203 121.58 420.784 119.567 421.135 116.734Z" stroke="currentColor" stroke-width="0.75" stroke-miterlimit="10"/>
<path d="M410.82 245.204L413.14 187.844" stroke="currentColor" stroke-width="0.75" stroke-miterlimit="10"/>
<path d="M413.73 173.272L416.06 115.922" stroke="currentColor" stroke-width="0.75" stroke-miterlimit="10"/>
<path d="M589.9 156.09L526.4 168.99" stroke="currentColor" stroke-width="0.75" stroke-miterlimit="10"/>
<path d="M510.27 172.262L446.76 185.162" stroke="currentColor" stroke-width="0.75" stroke-miterlimit="10"/>
<path d="M533.409 246.445C536.612 246.067 538.901 243.163 538.523 239.96C538.144 236.757 535.241 234.467 532.038 234.846C528.835 235.224 526.545 238.128 526.924 241.331C527.302 244.534 530.206 246.824 533.409 246.445Z" stroke="currentColor" stroke-width="0.75" stroke-miterlimit="10"/>
<path d="M533.831 248.781C537.034 248.403 539.323 245.499 538.945 242.296C538.566 239.093 535.663 236.803 532.46 237.182C529.257 237.56 526.967 240.464 527.346 243.667C527.724 246.87 530.628 249.16 533.831 248.781Z" stroke="currentColor" stroke-width="0.75" stroke-miterlimit="10"/>
<path d="M504.295 102.328C507.499 101.949 509.788 99.0459 509.41 95.8429C509.031 92.6398 506.128 90.3501 502.925 90.7287C499.722 91.1072 497.432 94.0107 497.81 97.2137C498.189 100.417 501.092 102.706 504.295 102.328Z" stroke="currentColor" stroke-width="0.75" stroke-miterlimit="10"/>
<path d="M504.717 104.664C507.92 104.285 510.21 101.382 509.832 98.1788C509.453 94.9758 506.55 92.6861 503.347 93.0646C500.143 93.4431 497.854 96.3466 498.232 99.5496C498.611 102.753 501.514 105.042 504.717 104.664Z" stroke="currentColor" stroke-width="0.75" stroke-miterlimit="10"/>
<path d="M533.08 241.781L520.18 178.281" stroke="currentColor" stroke-width="0.75" stroke-miterlimit="10"/>
<path d="M516.91 162.162L504.01 98.6523" stroke="currentColor" stroke-width="0.75" stroke-miterlimit="10"/>
</svg>
