<svg width="160" height="158" viewBox="0 0 160 158" fill="none" xmlns="http://www.w3.org/2000/svg">
<path d="M79.9494 15.7717C80.3194 26.1417 80.3595 42.3817 76.4594 22.7217C76.8195 26.5817 77.1795 30.1017 77.4795 33.2217C77.7795 36.3417 78.0094 39.0617 78.0894 41.2917C78.2594 45.7717 78.2495 53.6517 76.2895 48.4217C76.1295 53.0817 74.9195 50.7917 73.1195 47.1817C72.1095 48.0417 69.7194 43.3717 67.4594 40.6417C69.6595 43.4917 72.8794 52.2717 73.2694 49.7017C75.4594 56.7817 76.8195 62.5917 75.4395 52.9917C77.3095 64.2717 78.5395 74.2717 76.4695 60.7117C78.2095 75.4117 77.2594 73.4617 71.8895 59.4117C75.5195 71.8617 76.8695 77.1117 72.5795 65.9117C76.2895 77.8217 74.7295 75.8217 67.4395 64.6317C73.5195 75.9417 72.4695 75.7117 63.8195 66.3917C69.8595 75.3617 63.2995 70.2817 55.1495 65.1417C63.2495 70.3917 69.7495 75.5517 63.1795 66.9917C71.9395 76.2117 72.8895 76.9017 65.0594 66.7817C74.7994 78.1717 74.3095 78.0817 62.8395 67.8117C72.3795 77.7117 75.1694 80.9117 67.0294 72.7017C75.0594 81.6417 73.4995 81.0217 61.9194 74.3417C72.7194 81.5817 72.0995 81.8717 60.0195 77.2317C70.2595 82.5817 64.1095 81.5317 52.2595 79.8817C63.2295 83.3117 55.8295 84.5817 46.8095 86.3217C52.3395 87.8917 44.9695 90.1017 41.7395 91.8617C42.2295 95.5617 37.3795 100.552 35.3095 104.662C33.2395 108.782 31.2695 112.712 29.4295 116.372C22.0795 131.002 16.9395 141.242 16.9395 141.242C16.9395 141.242 32.3495 131.412 47.7695 121.582C49.6995 120.352 52.0895 118.572 53.5195 117.912C55.8195 116.192 60.6495 111.042 59.0895 114.362C63.7095 109.082 68.5295 102.942 64.4795 110.692C70.7795 101.402 73.5895 97.2717 68.9594 108.072C74.9995 96.3717 77.6495 90.3417 73.9995 101.402C78.4495 89.1817 78.7894 88.5317 76.1294 100.752C79.0894 88.1817 79.3995 86.7317 78.9795 94.7717C79.4595 87.2817 79.4794 87.2017 79.2694 93.6817C79.4494 87.7917 79.3394 89.7117 78.5894 101.922C79.3394 89.7117 79.4595 87.7717 79.5095 93.5817C79.5595 87.1717 79.6095 87.2317 80.1895 94.5517C79.6995 86.6617 79.9095 88.0517 81.5395 100.742C80.1695 88.3617 80.4395 88.6917 84.3695 100.642C81.0295 89.7217 83.1395 95.5917 88.6395 108.052C84.4894 96.4217 86.8595 100.042 93.2394 110.132C89.1294 101.752 94.1095 108.612 98.9494 114.352C97.2495 110.532 102.259 116.002 104.759 117.902C106.119 118.362 108.749 120.342 110.759 121.572C126.849 131.402 142.929 141.232 142.929 141.232C142.929 141.232 137.789 130.992 130.439 116.362C128.599 112.702 126.629 108.772 124.559 104.652C122.489 100.532 118.289 95.7217 118.129 91.8517C115.499 90.1617 106.239 87.6917 111.819 86.0017C102.059 84.2417 96.5095 82.8617 107.929 79.7117C96.3295 81.2117 89.0095 82.5517 99.2295 77.3417C87.0295 81.9117 86.3695 81.6617 97.3695 74.6317C85.6995 81.1217 84.3394 81.5817 92.8895 72.8217C84.4295 80.7417 87.9795 77.0117 97.6895 67.4917C85.9295 77.6317 84.4695 78.8017 94.6694 67.8517C86.2195 77.6317 87.1594 76.9017 96.2794 67.8017C89.3394 76.0717 96.6995 70.2517 104.729 65.1417C96.6695 70.1917 89.3794 75.8417 95.9194 67.2317C86.9194 76.3317 85.9894 76.5617 92.9695 65.6817C84.9894 76.4017 83.4995 78.0117 88.3195 66.4217C83.0795 77.1217 85.0795 71.4517 89.4295 59.4717C83.4295 73.1817 82.1294 75.7417 85.5695 61.3417C81.7995 74.5717 83.8494 64.1517 86.0695 53.0617C84.2094 62.4717 85.6994 56.9817 87.8494 49.9817C87.7394 52.3017 90.6795 43.5017 92.4194 40.6317C90.6294 43.4217 88.5495 48.2017 87.8995 47.4817C86.2695 51.1317 85.1095 53.4217 85.2394 48.6617C83.2994 54.2617 83.3494 46.0717 83.2094 41.5617C83.1395 39.3017 83.1594 36.5617 83.2094 33.3917C83.2694 30.2317 83.3495 26.6417 83.4095 22.7117C81.3595 42.9417 80.2894 26.1317 79.9194 15.7617L79.9494 15.7717Z" fill="currentColor"/>
</svg>
