<svg width="211" height="279" viewBox="0 0 211 279" fill="none" xmlns="http://www.w3.org/2000/svg">
<path d="M31.4502 161.988C30.2802 161.988 29.2302 160.778 27.9102 157.918L19.9902 140.738L29.6802 156.988C30.3702 158.148 31.0402 158.808 31.5102 158.808C31.6402 158.808 31.7802 158.758 31.9302 158.678C32.1802 157.878 32.4802 156.658 32.8402 154.788L33.1202 153.358L34.3602 154.128C34.6202 154.288 35.0702 153.968 35.5902 153.458L35.7102 153.338C36.2202 152.818 36.7802 152.138 37.2502 151.558C37.4802 151.278 37.7202 150.988 37.9602 150.698C39.1702 149.428 40.1502 148.538 40.6202 148.108C40.7302 148.008 40.8102 147.938 40.8502 147.898C42.0702 146.468 43.2702 145.608 45.1202 146.078L46.7502 146.488L45.6102 147.728C42.5302 151.078 39.5202 153.608 37.0902 154.888C35.8302 157.168 34.7602 158.928 33.6202 159.918C33.1202 161.198 32.5202 161.858 31.6702 161.968C31.6002 161.968 31.5302 161.978 31.4602 161.978L31.4502 161.988Z" fill="currentColor"/>
<path d="M85.4706 207.398L84.8006 207.078C84.1806 206.738 84.0206 206.188 84.0406 205.668C83.9406 205.718 83.8206 205.768 83.7006 205.828L82.7906 206.288L77.9206 196.218L78.8106 195.778C78.9306 195.718 79.0506 195.668 79.1706 195.628C79.0506 195.318 78.9106 194.928 78.7206 194.458C78.0806 192.828 77.1106 190.488 75.7506 187.288L75.6706 186.998C75.5806 186.148 75.4706 185.298 75.3406 184.458L75.3206 184.318C73.4506 172.568 67.3806 161.628 57.6606 152.548L55.9006 150.898L58.3106 150.818C60.6606 150.708 62.6306 151.678 64.5406 152.578C66.4106 153.468 68.0706 154.258 69.8506 153.968C68.6406 152.738 67.4006 151.818 65.5706 151.818H64.2906L64.6006 150.578C64.7706 149.888 65.2306 149.578 65.4806 149.418C65.5306 149.388 65.6006 149.338 65.6206 149.318L65.9006 148.258L66.9506 148.568C69.0206 149.318 70.9906 150.328 72.6306 151.488C72.9606 151.598 74.3606 151.928 80.1306 152.918C88.3906 154.348 100.401 156.228 100.521 156.248L114.551 158.458L100.351 158.238C100.211 158.238 86.2106 158.028 79.2606 158.308C77.6006 158.378 76.7306 158.458 76.2706 158.518V158.618L75.4806 158.768C71.6306 159.518 68.7906 158.138 66.0406 156.798C65.6806 156.618 65.3206 156.448 64.9706 156.278C70.8806 163.868 77.1906 173.028 77.3206 183.958L79.0306 187.948C82.6006 196.268 84.5206 200.798 85.4706 203.328C85.7206 203.388 85.9406 203.528 86.0906 203.738C86.4606 204.238 86.2906 204.778 86.1506 205.218C86.1506 205.238 86.1506 205.248 86.1306 205.268C86.4606 206.438 86.2706 206.618 85.9806 206.888L85.4706 207.368V207.398ZM80.9806 197.948L81.8106 199.668C81.5806 199.108 81.3406 198.528 81.0906 197.948H80.9806ZM69.0906 156.028C70.8406 156.758 72.6406 157.218 74.7906 156.868C75.4106 156.518 76.7106 156.408 79.1706 156.318C81.4206 156.228 84.4006 156.188 87.4106 156.168C84.8106 155.738 82.1506 155.298 79.7906 154.888C74.4206 153.958 72.7006 153.588 72.0706 153.398C72.1806 153.508 72.2806 153.628 72.3806 153.738L73.2806 154.728L72.0706 155.308C71.0306 155.808 70.0406 156.018 69.0906 156.018V156.028ZM80.7306 206.948C80.1206 206.948 79.8706 206.448 76.5706 199.858C76.1106 198.948 75.5806 197.888 75.0106 196.698C74.6606 195.998 74.2906 195.248 73.8806 194.428L73.8106 194.238C73.7906 194.168 73.7706 194.108 73.7606 194.038C73.5806 193.638 73.3906 193.238 73.2106 192.828L73.1406 192.668V192.488C73.1006 192.098 73.0706 191.708 73.0306 191.318C72.8706 190.668 72.7206 189.988 72.5906 189.228V189.108C72.5406 188.198 72.4706 187.298 72.3806 186.398C70.4306 175.138 65.5506 166.008 58.8106 161.338C55.9606 159.358 52.4906 157.918 48.2006 156.918C47.6006 157.208 47.1706 157.068 46.8906 156.868C46.1406 156.328 46.4806 155.338 46.5906 155.018L46.8806 154.188L47.7406 154.368C52.0106 155.258 55.7706 156.728 58.9106 158.738C67.2306 164.068 73.1106 174.618 74.3706 186.148C74.6406 187.728 74.8606 189.338 75.0106 190.988C75.1606 191.568 75.3106 192.118 75.4606 192.668C75.5306 192.898 75.5906 193.128 75.6506 193.358C76.0406 194.208 76.4306 195.018 76.7906 195.778C78.1706 198.548 80.1006 202.388 80.6306 203.338C81.0606 203.578 81.4106 203.958 81.6406 204.448C81.9406 205.068 81.9906 205.698 81.7806 206.288L81.5606 206.908L80.9006 206.948C80.8406 206.948 80.7906 206.948 80.7406 206.948H80.7306Z" fill="currentColor"/>
<path d="M50.4297 236.087L61.4997 201.007C62.8497 196.747 64.3797 192.697 65.8597 188.787L65.9697 188.497C65.9697 184.407 65.9697 180.187 65.4797 175.977C64.3797 171.647 62.7797 167.717 60.7397 164.297C60.1797 163.807 59.8597 163.347 59.7497 162.857L59.2997 160.897L61.1397 161.717C61.6397 161.937 62.1097 162.177 62.5697 162.437L61.7997 160.077L65.0197 163.787C65.4097 164.237 65.7997 164.707 66.1697 165.187C68.7197 167.767 70.2897 171.077 71.4197 174.707C72.8097 178.427 73.6997 182.467 74.0197 186.677C74.5197 189.337 75.0497 191.867 75.7997 194.187L77.7697 198.157C81.4897 205.637 85.6797 214.067 86.4997 215.527C86.9297 215.767 87.2797 216.147 87.5097 216.637C87.8897 217.417 87.7897 218.067 87.6497 218.477L87.4297 219.097L86.7697 219.137C86.2764 219.171 85.0597 217.254 83.1197 213.387C81.5197 210.207 79.3697 205.887 77.0997 201.317L73.0697 193.187C72.5797 191.297 72.1597 189.527 72.0497 187.097C72.0497 187.047 72.0497 186.987 72.0397 186.937C71.9197 186.307 71.7997 185.677 71.6897 185.047C71.0697 181.677 70.4397 178.267 69.4497 175.137C68.6997 173.187 67.8097 171.337 66.7797 169.617C67.3497 171.977 67.7997 174.357 68.1197 176.717C68.4497 181.417 68.2697 185.977 68.0797 189.427L68.0197 189.717C67.2597 191.767 66.4597 193.797 65.6597 195.847C64.9097 197.747 64.1597 199.677 63.4097 201.657L50.4497 236.077L50.4297 236.087ZM88.6597 218.477L86.7397 214.577L87.6297 214.137C87.7497 214.077 87.8597 214.027 87.9697 213.987C86.5497 210.277 82.1397 200.237 78.4897 191.907L77.2397 189.067C76.7597 187.757 76.2897 186.577 75.8297 185.407L75.4697 184.457C73.9297 176.127 71.4097 169.017 67.9897 163.327L63.8097 156.367L69.5597 162.107C70.5997 163.147 71.6797 164.107 72.7397 165.047C74.4297 166.547 76.1697 168.097 77.7497 169.967C77.7997 169.537 77.7097 169.077 77.4597 168.567C77.2697 168.167 76.7997 167.307 75.8097 165.997C75.4997 165.527 75.0497 165.147 74.5597 164.747C73.4797 163.867 72.0097 162.667 72.3197 160.377L72.5497 158.727L73.8997 159.707C75.3097 160.727 76.5697 161.897 77.6897 162.937C77.9997 163.227 78.2997 163.507 78.5797 163.757C79.8297 164.467 80.7697 165.457 81.3597 166.687C81.8997 167.807 82.1597 168.937 82.1297 170.027C82.0997 171.157 81.7697 172.197 81.1597 173.107C80.5497 174.017 79.6997 174.737 78.6097 175.257L77.9597 175.567L77.4597 175.037C76.8697 174.417 76.3397 173.717 75.8297 173.007C75.9997 173.707 76.1397 174.407 76.2797 175.127C76.4997 176.257 76.7397 177.417 77.0797 178.627C77.5097 180.607 77.8797 182.197 78.3397 183.687C79.9997 187.187 81.9497 191.237 83.8997 195.287C94.3397 216.987 94.2997 217.037 93.5197 217.787L93.0097 218.287L92.3297 217.957C91.6197 217.567 91.2297 217.507 91.0497 217.507C90.8697 217.507 90.4397 217.577 89.5597 218.017L88.6597 218.467V218.477ZM86.7797 205.927C90.0997 213.657 90.5297 215.027 90.3797 215.597C90.6197 215.547 90.8497 215.517 91.0497 215.517C91.1097 215.517 91.1697 215.517 91.2297 215.517C90.3697 213.507 88.6897 209.937 86.7797 205.927ZM77.6997 172.187C77.9297 172.497 78.1597 172.807 78.3997 173.087C78.8497 172.787 79.2197 172.417 79.5097 171.997C79.9197 171.397 80.1197 170.737 80.1397 169.977C80.1597 169.197 79.9697 168.387 79.5697 167.557C79.2497 166.887 78.7897 166.327 78.1897 165.877C78.7397 166.677 79.0697 167.297 79.2697 167.707C79.7897 168.777 79.8997 169.827 79.6097 170.837C79.3597 171.707 78.8497 172.027 78.4697 172.157C78.2297 172.237 77.9697 172.247 77.7097 172.197L77.6997 172.187Z" fill="currentColor"/>
<path d="M110.31 263.61L107.42 257.55C107.42 257.55 106.81 256.28 106.03 254.58C105.57 253.58 104.94 252.31 104.22 250.83C103.72 249.81 103.17 248.69 102.6 247.5C101.68 245.58 100.81 243.78 100.06 242.21L97.3299 236.47L81.2699 167.17L86.5399 178.16L100.74 227.24C101.19 228.8 101.67 230.51 102.15 232.53C102.91 234.93 103.66 237.28 104.4 239.59C105.77 243.88 107.1 248.04 108.51 252.61C109.08 255.23 109.33 256.89 109.34 256.96L110.34 263.6L110.31 263.61ZM99.2399 235.91L101.85 241.34C102.6 242.91 103.47 244.71 104.39 246.63C104.51 246.87 104.62 247.1 104.73 247.34C103.98 244.95 103.23 242.6 102.46 240.21C101.72 237.89 100.97 235.54 100.19 233.07C99.6999 231.02 99.2299 229.33 98.7899 227.8L91.5599 202.81L99.2299 235.91H99.2399ZM91.4999 229.4C90.9099 229.4 90.6899 228.97 88.0199 223.65C86.4299 220.48 84.2799 216.17 82.0099 211.6C80.0499 207.66 77.9899 203.52 76.1099 199.76C74.8599 197.25 73.6799 194.91 72.6699 192.91L72.5399 192.66L72.5599 192.38C72.5799 192.05 72.5999 191.73 72.5999 191.4C72.4099 190.46 72.2299 189.48 72.1499 188.36V188.22L72.1699 188.09C72.1899 187.97 72.2099 187.85 72.2299 187.73C72.0099 186.52 71.7199 185.29 71.4199 184.03C71.0099 182.28 70.5899 180.5 70.3499 178.69C70.1699 177.76 70.0899 176.81 70.1599 175.86L72.1499 150.91V175.94C72.1499 176.75 72.2199 177.58 72.3299 178.41C72.5299 179.41 72.8399 180.44 73.1699 181.49C73.7899 183.51 74.4399 185.59 74.2399 187.68C74.4399 188.85 74.5699 190.02 74.5899 191.18C74.6199 191.32 74.6499 191.46 74.6799 191.6C74.7699 192.02 74.8599 192.44 74.9399 192.89C77.1999 197.4 79.9199 202.86 82.4899 208.04C86.4799 216.05 90.5899 224.32 91.3899 225.77C91.8199 226.01 92.1699 226.39 92.3999 226.88C92.7799 227.66 92.6799 228.31 92.5399 228.72L92.3199 229.35L91.6499 229.39C91.5899 229.39 91.5399 229.39 91.4799 229.39L91.4999 229.4Z" fill="currentColor"/>
<path d="M44.1302 205.668C44.1002 205.468 44.0702 205.278 44.0502 205.078C43.7402 205.008 43.4302 204.848 43.2402 204.528L43.9202 204.118C43.8502 203.628 43.7902 203.138 43.7202 202.648L43.5502 201.338C43.5202 201.108 43.5002 200.878 43.4602 200.648C43.4502 200.568 43.4202 200.478 43.3902 200.398C43.3102 200.138 43.2002 199.818 43.2202 199.428C43.2702 198.438 43.1802 197.448 43.0902 196.398C42.9502 194.838 42.8002 193.228 43.1302 191.578C42.8402 190.088 43.0102 188.658 43.1902 187.278C43.3002 186.428 43.4002 185.628 43.3902 184.828V184.618C43.3702 184.388 43.3502 184.098 43.4102 183.788C43.8402 181.438 44.2702 179.088 44.7402 176.738C44.9502 175.688 45.1702 174.858 45.4502 174.118C45.7002 173.458 45.9902 172.838 46.2802 172.228C46.4502 171.868 46.6102 171.518 46.7702 171.158C46.9702 170.688 47.1602 170.198 47.3202 169.688C47.4502 169.268 47.5802 168.838 47.7002 168.418C47.8602 167.868 48.0202 167.318 48.2002 166.778C48.3102 166.448 48.4602 166.118 48.6002 165.798C48.6902 165.588 48.7902 165.378 48.8702 165.168C49.1702 164.368 49.1202 163.828 48.6802 163.008L48.4502 162.588C47.8402 161.458 47.2602 160.388 46.3402 159.548C45.8002 159.048 45.4302 158.428 45.0702 157.818C44.9202 157.568 44.7702 157.308 44.5902 157.038C44.4302 156.798 44.3802 156.498 44.4602 156.218C44.5402 155.938 44.7302 155.708 44.9902 155.578L45.6402 155.268C46.0602 155.068 46.4302 154.898 46.7802 154.708L47.0702 154.558C47.4302 154.368 47.7602 154.198 47.9702 153.988C49.3202 152.628 50.9502 151.878 52.3702 151.328C52.8002 151.158 53.2302 150.948 53.6802 150.728C54.0002 150.568 54.3102 150.418 54.6402 150.268L55.1002 150.058C55.6902 149.778 56.3102 149.498 56.9802 149.318C58.2802 148.968 59.3402 148.328 60.2202 147.368C60.4002 147.158 60.5602 146.968 60.8102 146.828C61.8502 146.218 62.6502 145.308 63.5102 144.348C64.1002 143.688 64.7102 143.008 65.4102 142.408C66.3002 141.648 67.2302 140.918 68.1302 140.208C69.1902 139.378 70.2802 138.528 71.2902 137.628C71.5702 137.378 71.9002 137.258 72.1102 137.188C72.1602 137.168 72.2002 137.158 72.2402 137.138C72.4902 137.018 72.7802 137.018 73.0402 137.128C73.3102 137.208 73.7402 137.348 73.9402 137.828C74.4502 139.018 75.2902 140.028 76.1802 141.088C76.9502 142.008 77.7602 142.958 78.3702 144.088C78.5702 144.448 78.6702 144.508 78.6702 144.508C78.6702 144.508 78.8002 144.538 79.2702 144.358C80.4902 143.878 81.7102 143.838 83.2202 144.228C83.6202 144.328 84.1502 144.318 84.7302 144.198C85.7902 143.978 87.0402 143.828 88.2402 144.488C88.7802 144.778 89.2102 144.828 89.7402 144.668C91.0002 144.268 92.1402 144.638 93.0902 145.058C93.5502 145.258 94.2102 145.528 94.6902 145.488C96.0502 145.368 97.2402 145.568 98.3502 146.088C98.6002 146.208 98.9102 146.358 99.0402 146.358C101.26 146.358 103.23 147.078 105.13 147.808C105.76 148.048 106.4 148.288 107.04 148.508C107.77 148.748 108.52 149.268 109.1 149.928C109.49 150.378 109.75 150.428 110.08 150.458C110.63 150.468 111.34 150.488 111.99 150.778C113.84 151.608 115.32 152.328 116.63 153.038C117.22 153.358 117.86 153.698 118.38 154.218C118.68 154.258 119.02 154.358 119.27 154.598C119.66 154.978 119.76 155.468 119.86 155.938C119.9 156.108 119.94 156.308 120 156.528C120.09 156.858 120.01 157.198 119.79 157.458C119.57 157.718 119.23 157.838 118.9 157.788C118.68 157.758 118.47 157.748 118.28 157.728C117.74 157.698 117.13 157.658 116.74 157.148C116.32 156.598 116.35 155.838 116.51 155.278C116.29 155.138 116.04 154.998 115.75 154.838C114.4 154.108 112.97 153.408 111.17 152.598C110.83 152.448 110.28 152.448 110.09 152.448C108.82 152.448 108.09 151.798 107.6 151.238C107.26 150.848 106.81 150.538 106.42 150.408C105.75 150.188 105.09 149.938 104.42 149.678C102.65 148.998 100.98 148.358 99.1602 148.358C99.1202 148.358 99.0802 148.358 99.0402 148.358C98.4602 148.358 97.9602 148.118 97.5502 147.928C96.7102 147.528 95.8702 147.398 94.8602 147.478C93.9502 147.558 93.0402 147.228 92.2802 146.888C91.4102 146.508 90.8602 146.418 90.3502 146.578C89.3102 146.918 88.3002 146.808 87.2802 146.258C86.6802 145.928 86.0202 145.978 85.1402 146.168C84.5202 146.298 83.6002 146.408 82.7202 146.178C81.6302 145.898 80.8202 145.918 80.0002 146.228C78.4202 146.848 77.3802 146.478 76.6102 145.058C76.1002 144.108 75.3902 143.278 74.6502 142.388C73.8602 141.438 73.0402 140.468 72.4302 139.308C71.4402 140.178 70.3802 140.998 69.3602 141.808C68.4802 142.498 67.5602 143.218 66.7002 143.948C66.1002 144.458 65.5602 145.058 65.0002 145.698C64.0802 146.728 63.1302 147.798 61.8202 148.568C61.8502 148.568 61.8202 148.598 61.7902 148.628L61.6902 148.738C60.5602 149.968 59.1502 150.818 57.4902 151.268C56.9802 151.408 56.4702 151.638 55.9302 151.888L55.4402 152.108C55.1402 152.238 54.8502 152.388 54.5502 152.538C54.0802 152.768 53.5902 153.008 53.0802 153.218C51.7902 153.718 50.4502 154.338 49.3702 155.428C48.9502 155.848 48.4302 156.118 47.9802 156.358L47.7202 156.498C47.4402 156.648 47.1502 156.788 46.8402 156.938C47.1202 157.408 47.3702 157.818 47.6702 158.088C48.8402 159.158 49.5202 160.428 50.1902 161.658L50.4202 162.078C51.1502 163.408 51.2402 164.548 50.7302 165.898C50.6302 166.148 50.5202 166.398 50.4102 166.648C50.2902 166.908 50.1702 167.158 50.0902 167.428C49.9202 167.948 49.7602 168.468 49.6102 168.998C49.4802 169.438 49.3502 169.878 49.2102 170.308C49.0302 170.878 48.8202 171.438 48.5902 171.968C48.4202 172.348 48.2502 172.718 48.0702 173.098C47.7902 173.698 47.5202 174.258 47.3002 174.838C47.0602 175.468 46.8702 176.198 46.6802 177.138C46.2202 179.468 45.7902 181.808 45.3602 184.158C45.3502 184.228 45.3602 184.378 45.3602 184.518C45.3602 184.618 45.3702 184.718 45.3702 184.818C45.3802 185.758 45.2702 186.658 45.1602 187.538C44.9902 188.868 44.8402 190.128 45.1102 191.358C45.1702 191.648 45.1102 191.878 45.0802 191.968C44.8002 193.308 44.9202 194.698 45.0602 196.178C45.1002 196.178 45.1302 196.188 45.1702 196.198C45.2702 196.218 45.3802 196.238 45.5102 196.258C45.8702 196.308 46.1702 196.548 46.3002 196.888C46.4302 197.228 46.3702 197.608 46.1302 197.888C46.0402 197.988 45.9702 198.088 45.9102 198.168C45.7502 198.388 45.5502 198.668 45.2102 198.818C45.2102 199.068 45.2102 199.308 45.1902 199.558C45.1902 199.598 45.2302 199.728 45.2602 199.818C45.3102 199.988 45.3602 200.158 45.3902 200.328C45.4402 200.598 45.4702 200.858 45.5002 201.128L45.6702 202.408C45.6902 202.548 45.7102 202.688 45.7302 202.818L45.9102 202.758C46.0602 203.188 46.0602 203.728 45.9102 204.208C45.9702 204.608 46.0202 205.008 46.0802 205.408L44.1002 205.698L44.1302 205.668ZM44.5602 203.158C44.4802 203.178 44.3802 203.228 44.2702 203.318L44.6202 203.198C44.6202 203.198 44.5802 203.178 44.5602 203.168V203.158ZM50.6402 205.368C50.6402 205.368 50.6002 205.368 50.5902 205.368C50.0802 205.358 49.7002 205.188 49.4702 204.868C49.0902 204.338 48.7702 203.278 49.2502 202.558C49.6002 202.018 50.2002 201.928 50.7302 201.838C50.9102 201.808 51.1102 201.778 51.3302 201.718C51.6502 201.638 52.0002 201.718 52.2402 201.948C52.4902 202.168 52.6102 202.508 52.5602 202.838C52.5302 203.048 52.5102 203.248 52.5002 203.418C52.4602 203.898 52.4202 204.388 52.0802 204.808C51.6902 205.308 50.9802 205.368 50.6502 205.368H50.6402ZM121.8 203.658C121.8 203.658 121.71 203.658 121.66 203.658C120.45 203.608 119.33 202.908 118.59 201.758C118.46 201.548 118.34 201.318 118.25 201.078C117.7 199.658 118.07 198.088 119.21 196.968C120.36 195.848 122.02 195.498 123.44 196.088C123.95 196.298 124.35 196.568 124.67 196.898C125.74 198.028 125.57 200.958 124.64 202.168C123.91 203.118 122.88 203.658 121.79 203.658H121.8ZM122.01 197.798C121.45 197.798 120.94 198.078 120.61 198.398C120.04 198.948 119.86 199.688 120.12 200.358C120.17 200.478 120.22 200.578 120.28 200.678C120.66 201.278 121.2 201.638 121.75 201.658C122.24 201.678 122.7 201.438 123.07 200.948C123.52 200.358 123.51 198.618 123.23 198.268C123.11 198.148 122.94 198.038 122.69 197.938C122.46 197.838 122.23 197.798 122.01 197.798ZM57.6802 199.538C57.6802 199.538 57.6002 199.538 57.5602 199.538C57.3602 199.508 57.1502 199.508 56.9702 199.498C56.3702 199.468 55.6302 199.438 55.3402 198.728C55.1202 198.198 55.1902 197.678 55.2402 197.248C55.2502 197.128 55.2702 197.018 55.2802 196.898C55.2902 196.628 55.4202 196.378 55.6202 196.198C55.8202 196.018 56.0802 195.938 56.3602 195.948C56.4502 195.948 56.5602 195.948 56.6702 195.948C57.1002 195.948 57.7102 195.928 58.1802 196.338C58.6602 196.768 58.6702 197.358 58.6702 197.888C58.6702 198.058 58.6702 198.238 58.6902 198.438C58.7202 198.738 58.6102 199.038 58.3902 199.248C58.2002 199.428 57.9502 199.528 57.6902 199.528L57.6802 199.538ZM50.2702 199.128C50.0702 199.128 49.8802 199.068 49.7202 198.958C49.4902 198.808 49.3402 198.568 49.2902 198.298C49.2802 198.238 49.2602 198.168 49.2402 198.098C49.1402 197.728 48.9602 197.108 49.4002 196.598C49.7202 196.228 50.1502 196.088 50.5202 195.958C50.6402 195.918 50.7802 195.868 50.9302 195.808C51.2302 195.688 51.5802 195.718 51.8502 195.898C52.1202 196.078 52.2902 196.378 52.3002 196.708C52.3002 196.868 52.3202 197.008 52.3302 197.138C52.3802 197.588 52.4402 198.198 51.9202 198.618C51.5302 198.928 51.0702 198.998 50.7402 199.048C50.6602 199.058 50.5702 199.068 50.4902 199.088C50.4202 199.108 50.3402 199.118 50.2702 199.118V199.128ZM57.0802 193.358C56.7702 193.358 56.4902 193.288 56.3702 193.258C55.7602 193.088 55.5302 192.728 55.4502 192.448C55.2802 191.888 55.3102 191.048 55.7302 190.438C56.1302 189.858 56.7802 189.908 57.3102 189.938C57.4702 189.938 57.6502 189.958 57.8502 189.958C58.1802 189.938 58.4702 190.108 58.6602 190.358C58.8502 190.618 58.9102 190.948 58.8102 191.258C58.7602 191.428 58.7202 191.588 58.6802 191.738C58.5802 192.168 58.4602 192.658 58.0602 193.028C57.7702 193.288 57.4002 193.358 57.0702 193.358H57.0802ZM51.1802 193.048C51.1202 193.048 51.0502 193.048 50.9902 193.028C50.9502 193.028 50.9002 193.028 50.8602 193.018C50.5802 192.998 50.1102 192.948 49.7502 192.578C49.3902 192.188 49.3902 191.708 49.4002 191.388C49.4002 191.298 49.4002 191.198 49.4002 191.098C49.3802 190.788 49.5002 190.488 49.7302 190.288C49.9602 190.078 50.2702 189.998 50.5702 190.048C50.6802 190.068 50.8002 190.078 50.9002 190.088C51.2802 190.128 51.9802 190.198 52.1902 190.908C52.3102 191.308 52.2502 191.678 52.2102 191.948C52.2102 192.008 52.1902 192.078 52.1802 192.138C52.1602 192.418 52.0102 192.678 51.7902 192.848C51.6202 192.978 51.4002 193.048 51.1902 193.048H51.1802ZM106.65 184.998C106.58 184.998 106.52 184.998 106.45 184.978C105.89 184.868 105.36 184.798 104.88 184.738C103.7 184.588 102.68 184.448 101.91 183.788C101.04 183.038 101.27 181.178 101.32 180.808C101.4 180.238 101.6 179.448 102.26 179.158C103.6 178.568 105.49 178.608 106.64 179.248C107.49 179.718 107.52 180.788 107.54 182.138C107.55 182.678 107.56 183.288 107.63 183.898C107.66 184.218 107.54 184.528 107.31 184.738C107.12 184.908 106.88 184.998 106.64 184.998H106.65ZM103.32 182.338C103.67 182.558 104.36 182.648 105.15 182.748C105.29 182.768 105.44 182.788 105.58 182.808C105.58 182.588 105.57 182.388 105.57 182.188C105.57 181.758 105.55 181.198 105.5 180.918C104.93 180.698 104.03 180.688 103.35 180.898C103.26 181.298 103.24 182.028 103.32 182.338ZM121.31 184.978C121.25 184.978 121.22 184.978 121.21 184.978C120.94 184.978 120.12 184.938 119.71 184.328C119.01 183.278 118.35 181.178 119.06 179.818C119.53 178.918 120.61 178.688 121.97 178.408C122.55 178.288 123.2 178.148 123.88 177.948C124.2 177.858 124.55 177.928 124.81 178.148C125.07 178.368 125.2 178.698 125.16 179.028C125.08 179.728 125.04 180.368 125.01 180.928C124.95 182.188 124.89 183.188 124.29 183.968C123.56 184.918 121.74 184.968 121.3 184.968L121.31 184.978ZM121.24 182.978C121.66 182.998 122.53 182.868 122.77 182.698C122.94 182.468 122.98 181.708 123.02 180.828C123.02 180.638 123.04 180.438 123.05 180.228C122.82 180.278 122.59 180.328 122.38 180.368C121.78 180.488 120.96 180.668 120.78 180.818C120.64 181.118 120.81 182.188 121.23 182.978H121.24ZM104.46 165.878C104.46 165.878 104.39 165.878 104.36 165.878C103.79 165.858 103.05 165.728 102.7 165.158C102.37 164.618 102.31 164.018 102.24 163.318C102.21 163.028 102.18 162.698 102.13 162.318C102.08 161.978 102.21 161.648 102.46 161.418C102.71 161.198 103.07 161.118 103.39 161.208C103.77 161.318 104.13 161.388 104.45 161.448C105.26 161.618 106.03 161.768 106.36 162.478C106.81 163.458 106.23 164.728 105.82 165.318C105.56 165.688 105.12 165.878 104.47 165.878H104.46ZM104.32 163.868C104.32 163.868 104.33 163.868 104.34 163.868C104.4 163.738 104.45 163.608 104.48 163.498C104.41 163.478 104.34 163.468 104.26 163.448C104.28 163.608 104.3 163.748 104.32 163.858V163.868ZM86.5002 165.308C86.2002 165.308 85.9002 165.218 85.6502 164.928C85.3102 164.538 85.1502 164.088 85.0102 163.678C84.9702 163.548 84.9202 163.428 84.8702 163.298C84.7602 163.028 84.7702 162.728 84.9002 162.468C85.0302 162.208 85.2702 162.018 85.5502 161.948L86.8602 161.618C87.1202 161.548 87.4002 161.598 87.6202 161.738C87.8502 161.878 88.0102 162.098 88.0702 162.358L88.4202 163.828C88.4802 164.088 88.4402 164.358 88.3002 164.588C88.1602 164.818 87.9302 164.978 87.6802 165.038C87.5902 165.058 87.4902 165.088 87.3902 165.128C87.1402 165.208 86.8302 165.308 86.5102 165.308H86.5002ZM111.92 163.918C111.84 163.918 111.77 163.918 111.69 163.908C111.1 163.828 110.6 163.478 110.31 162.928C109.94 162.228 110.15 161.068 110.74 160.538C111.19 160.138 111.76 160.128 112.27 160.148C112.44 160.148 112.63 160.148 112.84 160.138C113.17 160.108 113.46 160.238 113.67 160.478C113.88 160.718 113.96 161.038 113.89 161.348C113.85 161.558 113.82 161.748 113.8 161.918C113.74 162.398 113.67 162.888 113.3 163.298C112.92 163.708 112.43 163.938 111.91 163.938L111.92 163.918ZM112.25 157.388C111.96 157.388 111.71 157.328 111.5 157.268C111.43 157.248 111.35 157.228 111.28 157.218C111.01 157.168 110.77 157.018 110.62 156.788C110.47 156.558 110.41 156.278 110.47 156.008C110.48 155.948 110.49 155.888 110.5 155.828C110.54 155.528 110.59 155.078 110.93 154.708C111.22 154.388 111.59 154.248 111.94 154.118C112.08 154.068 112.23 154.008 112.41 153.928C112.76 153.778 113.16 153.828 113.45 154.068C113.74 154.308 113.87 154.698 113.78 155.068C113.7 155.428 113.64 155.718 113.6 155.938C113.5 156.498 113.38 157.128 112.69 157.318C112.54 157.358 112.39 157.378 112.25 157.378V157.388ZM106.05 157.308C105.79 157.308 105.55 157.248 105.36 157.198C105.29 157.178 105.22 157.158 105.16 157.148C104.89 157.108 104.64 156.948 104.49 156.718C104.33 156.488 104.28 156.208 104.34 155.938C104.36 155.858 104.37 155.778 104.38 155.698C104.43 155.368 104.49 154.918 104.8 154.528C105.2 154.028 105.79 154.058 106.22 154.088C106.35 154.088 106.5 154.108 106.64 154.098C106.95 154.098 107.28 154.248 107.48 154.518C107.67 154.788 107.72 155.138 107.6 155.448C107.54 155.598 107.5 155.738 107.46 155.868C107.35 156.248 107.22 156.678 106.85 157.008C106.6 157.238 106.31 157.308 106.04 157.308H106.05Z" fill="currentColor"/>
<path d="M52.6903 167.498C51.7603 167.498 50.4603 167.078 48.6603 166.238L31.5703 158.178L49.4203 164.388C50.7003 164.828 51.6403 164.908 52.0003 164.598C52.1003 164.508 52.1803 164.388 52.2403 164.238C51.9203 163.468 51.3603 162.338 50.4403 160.678L49.7303 159.408L51.1803 159.208C51.4803 159.168 51.6303 158.628 51.6903 157.908L51.6703 157.818L51.7003 157.748C51.7603 157.018 51.7403 156.138 51.7303 155.388C51.7303 155.018 51.7303 154.648 51.7203 154.278C51.8303 152.528 52.0103 151.208 52.0903 150.578C52.1103 150.438 52.1203 150.338 52.1303 150.278C52.1503 148.398 52.5103 146.978 54.2303 146.138L55.7403 145.398L55.6603 147.078C55.4503 151.628 54.7703 155.498 53.7403 158.038C54.2303 160.598 54.5603 162.628 54.3203 164.118C54.7603 165.418 54.7303 166.308 54.1403 166.938C53.7903 167.318 53.3203 167.508 52.6903 167.508V167.498Z" fill="currentColor"/>
<path d="M120.241 169.998C119.611 169.998 118.111 169.348 112.901 167.098C111.951 166.688 110.841 166.208 109.621 165.648C108.921 165.348 108.171 165.018 107.351 164.658L107.181 164.558C107.121 164.518 107.071 164.478 107.011 164.438C106.611 164.248 106.211 164.058 105.801 163.868L105.641 163.788L105.521 163.658C105.251 163.378 104.971 163.108 104.701 162.828C104.161 162.438 103.601 162.008 103.021 161.508L102.931 161.418C102.311 160.738 101.681 160.088 101.021 159.458C92.3012 152.098 82.7012 148.238 74.5212 148.988C71.0712 149.308 67.4713 150.428 63.5513 152.418C63.2813 153.028 62.8513 153.198 62.5213 153.218C61.5913 153.278 61.2212 152.318 61.1012 151.998L60.7812 151.178L61.5613 150.758C65.4113 148.688 69.2312 147.398 72.9212 146.928C82.7212 145.678 94.0013 149.968 102.371 157.978C103.601 159.018 104.811 160.118 105.991 161.288C106.481 161.638 106.951 161.968 107.421 162.278C107.621 162.408 107.811 162.548 108.011 162.678C108.841 163.068 109.631 163.428 110.391 163.768C113.231 164.998 117.231 166.728 118.251 167.118C118.731 167.028 119.241 167.098 119.741 167.318C120.361 167.598 120.811 168.058 121.031 168.638L121.261 169.258L120.781 169.718C120.621 169.868 120.511 169.968 120.261 169.968L120.241 169.998ZM121.791 168.008L111.581 163.428L111.981 162.518C112.041 162.388 112.091 162.278 112.151 162.168C111.861 161.998 111.501 161.798 111.051 161.558C109.521 160.728 107.261 159.558 104.171 157.978L103.931 157.808C103.311 157.208 102.691 156.638 102.041 156.078L101.931 155.988C92.9413 148.188 81.2713 143.708 67.9813 142.998L65.5713 142.868L67.3713 141.258C69.1113 139.698 71.2312 139.138 73.2712 138.608C75.2712 138.088 77.0613 137.618 78.2313 136.268C76.5113 136.098 74.9713 136.198 73.5713 137.368L72.5912 138.188L72.0312 137.038C71.7212 136.408 71.8713 135.868 71.9613 135.588C71.9813 135.528 72.0013 135.448 72.0013 135.418L71.5413 134.428L72.5413 133.998C74.6213 133.238 76.7712 132.758 78.7712 132.588C79.0912 132.458 80.3813 131.808 85.4413 128.868C92.6813 124.648 103.101 118.378 103.201 118.318L115.361 110.988L104.351 119.948C104.241 120.038 93.3812 128.878 88.2412 133.568C87.0112 134.688 86.4013 135.308 86.0813 135.658L86.1413 135.738L85.6413 136.358C83.1713 139.408 80.1112 140.178 77.1413 140.918C76.7513 141.018 76.3712 141.108 75.9912 141.208C85.4012 143.218 96.1213 146.188 103.241 154.468L107.121 156.428C115.211 160.508 119.581 162.748 121.941 164.068C122.171 163.958 122.431 163.918 122.681 163.988C123.281 164.138 123.501 164.658 123.681 165.088C123.681 165.098 123.691 165.118 123.701 165.138C124.701 165.828 124.671 166.078 124.621 166.468L124.541 167.168L123.821 167.348C123.131 167.498 122.651 167.168 122.331 166.758C122.281 166.858 122.231 166.978 122.181 167.098L121.781 168.028L121.791 168.008ZM115.051 162.788L116.791 163.568C116.251 163.288 115.701 162.998 115.131 162.708L115.051 162.788ZM79.5912 134.398C79.7412 134.418 79.8913 134.438 80.0413 134.458L81.3713 134.638L80.8213 135.858C80.3413 136.918 79.7212 137.708 78.9912 138.318C80.7912 137.758 82.4713 136.948 83.9013 135.298C84.1513 134.628 85.0813 133.718 86.9013 132.058C88.5713 130.538 90.8213 128.598 93.1213 126.648C90.8513 127.998 88.5312 129.368 86.4613 130.568C81.7513 133.308 80.2012 134.128 79.5912 134.398Z" fill="currentColor"/>
<path d="M116.191 211.75L102.081 177.67C100.361 173.52 98.9311 169.42 97.5511 165.45L97.4711 165.21C94.8511 162.07 92.1311 158.84 89.0511 155.94C85.4211 153.33 81.6711 151.34 77.9111 150.04C77.1711 150.03 76.6311 149.88 76.2311 149.58L74.6211 148.37L76.5611 147.82C77.0911 147.67 77.6011 147.55 78.1211 147.45L76.0211 146.13L80.8711 146.9C81.4611 146.99 82.0511 147.1 82.6511 147.23C86.2611 147.57 89.6011 149.09 92.7811 151.15C96.2411 153.1 99.5211 155.63 102.471 158.65C104.561 160.37 106.591 161.96 108.651 163.26L112.711 165.03C120.741 168.53 129.041 172.15 130.561 172.73C131.051 172.64 131.561 172.71 132.051 172.93C132.671 173.21 133.121 173.67 133.341 174.25L133.571 174.87L133.091 175.33C132.731 175.67 130.561 174.98 126.581 173.26C123.311 171.85 118.871 169.92 114.171 167.87L105.911 164.25C104.321 163.12 102.871 162.03 101.221 160.24C101.181 160.2 101.151 160.16 101.111 160.12C100.611 159.71 100.121 159.3 99.6211 158.9C96.9811 156.72 94.3011 154.51 91.5311 152.75C89.7111 151.74 87.8311 150.9 85.9311 150.24C87.8911 151.69 89.7611 153.22 91.5211 154.82C94.8011 158.21 97.5911 161.81 99.6611 164.58L99.8011 164.84C100.531 166.9 101.231 168.97 101.931 171.06C102.581 173 103.241 174.95 103.941 176.95L116.181 211.75H116.191ZM134.121 173.58L130.141 171.83L130.541 170.91C130.591 170.79 130.651 170.68 130.711 170.58C127.241 168.65 117.401 163.78 109.241 159.75L106.481 158.38C105.281 157.69 104.161 157.09 103.061 156.49L102.161 155.98C95.6311 150.6 89.1311 146.77 82.8411 144.6L75.1611 141.96L83.2511 142.66C84.7111 142.79 86.1711 142.83 87.5711 142.87C89.8311 142.94 92.1511 143 94.5711 143.42C94.3311 143.06 93.9611 142.76 93.4511 142.53C93.0511 142.35 92.1411 141.99 90.5311 141.62C89.9911 141.45 89.4011 141.46 88.7711 141.47C87.3811 141.49 85.4811 141.51 84.2511 139.56L83.3611 138.15L85.0311 138.03C86.7711 137.91 88.5011 137.99 90.0211 138.07C90.4411 138.09 90.8411 138.11 91.2111 138.12C92.6211 137.86 93.9711 138.01 95.2311 138.58C96.3611 139.09 97.2811 139.79 97.9711 140.65C98.6711 141.53 99.0911 142.54 99.2011 143.63C99.3211 144.72 99.1211 145.82 98.6311 146.91L98.3311 147.57L97.6111 147.49C96.7611 147.4 95.9011 147.2 95.0511 146.98C95.6211 147.41 96.1811 147.86 96.7511 148.31C97.6511 149.03 98.5711 149.77 99.6211 150.47C101.231 151.71 102.531 152.69 103.841 153.54C107.361 155.16 111.471 157.01 115.571 158.86C137.501 168.77 137.501 168.83 137.391 169.9L137.321 170.61L136.591 170.8C135.791 170.96 135.451 171.17 135.321 171.28C135.181 171.4 134.901 171.73 134.511 172.63L134.111 173.55L134.121 173.58ZM124.571 165.15C132.111 168.95 133.341 169.74 133.591 170.26C133.741 170.07 133.891 169.91 134.041 169.78C134.091 169.74 134.141 169.7 134.191 169.66C132.231 168.67 128.631 167 124.571 165.15ZM95.9711 145.16C96.3511 145.25 96.7211 145.34 97.0811 145.4C97.2311 144.87 97.2811 144.36 97.2311 143.85C97.1511 143.13 96.8911 142.49 96.4211 141.9C95.9411 141.29 95.2711 140.79 94.4211 140.41C93.7411 140.1 93.0311 139.98 92.2811 140.01C93.2111 140.28 93.8711 140.53 94.2811 140.72C95.3611 141.21 96.1311 141.94 96.5511 142.9C96.9211 143.73 96.7411 144.3 96.5211 144.64C96.3811 144.86 96.2011 145.03 95.9711 145.16Z" fill="currentColor"/>
<path d="M179.721 194.238L173.611 191.458C173.611 191.458 172.331 190.878 170.641 190.078C169.631 189.608 168.311 189.018 166.791 188.338C165.761 187.878 164.641 187.388 163.461 186.848L152.331 181.788L95.481 139.028L106.581 144.068L149.011 172.538C150.351 173.438 151.821 174.448 153.491 175.688C155.611 177.028 157.691 178.348 159.731 179.638C163.541 182.048 167.241 184.388 171.271 186.978C173.391 188.628 174.651 189.728 174.701 189.778L179.741 194.218L179.721 194.238ZM153.431 180.128L164.271 185.028C164.511 185.138 164.751 185.248 164.991 185.348C162.871 183.998 160.781 182.678 158.651 181.328C156.601 180.038 154.521 178.718 152.341 177.328C150.651 176.068 149.201 175.078 147.881 174.198L126.281 159.698L153.431 180.118V180.128ZM142.911 180.268C142.341 180.268 141.081 179.718 136.971 177.958C133.721 176.558 129.311 174.638 124.641 172.598C120.591 170.838 116.351 168.988 112.481 167.308C109.911 166.198 107.511 165.158 105.441 164.278L105.181 164.168L105.021 163.938C104.831 163.668 104.631 163.418 104.421 163.158C103.671 162.568 102.901 161.928 102.121 161.118L101.961 160.898C101.901 160.788 101.841 160.688 101.781 160.588C100.841 159.808 99.821 159.048 98.791 158.268C97.351 157.198 95.881 156.098 94.541 154.868C93.801 154.268 93.131 153.598 92.581 152.818L78.041 132.398L94.161 151.588C94.681 152.208 95.261 152.798 95.881 153.368C96.671 154.008 97.571 154.588 98.511 155.188C100.291 156.338 102.121 157.518 103.311 159.238C104.211 160.008 105.071 160.818 105.831 161.698C105.941 161.788 106.051 161.878 106.171 161.968C106.511 162.228 106.851 162.498 107.201 162.788C111.831 164.788 117.431 167.228 122.731 169.538C130.931 173.108 139.381 176.798 140.931 177.388C141.421 177.298 141.931 177.368 142.421 177.588C143.041 177.868 143.491 178.328 143.711 178.908L143.941 179.528L143.461 179.988C143.291 180.148 143.181 180.258 142.931 180.258L142.911 180.268Z" fill="currentColor"/>
<path d="M91.7802 192.39L91.3402 191.99C91.0602 192.13 90.7202 192.21 90.3702 192.09L90.6302 191.34C90.2802 191.03 89.9402 190.71 89.5902 190.4L88.5602 189.45C88.3902 189.29 88.2202 189.13 88.0402 188.98C87.9702 188.92 87.9002 188.88 87.8202 188.83C87.5902 188.68 87.3002 188.5 87.0702 188.19C86.4802 187.4 85.7702 186.7 85.0202 185.95C83.9102 184.85 82.7702 183.71 81.9502 182.23C80.7602 181.27 79.9802 180.06 79.2302 178.9C78.7702 178.18 78.3302 177.5 77.8102 176.9L77.6602 176.74C77.5002 176.57 77.3002 176.36 77.1502 176.09C75.9702 174.02 74.7902 171.94 73.6402 169.84C73.1202 168.9 72.7602 168.12 72.5002 167.38C72.2702 166.72 72.0902 166.05 71.9202 165.4C71.8202 165.02 71.7202 164.64 71.6102 164.26C71.4702 163.77 71.2902 163.28 71.0902 162.78C70.9202 162.37 70.7502 161.97 70.5702 161.57C70.3402 161.04 70.1102 160.52 69.9002 159.99C69.7702 159.66 69.6702 159.32 69.5802 158.98C69.5202 158.76 69.4602 158.54 69.3802 158.32C69.1002 157.51 68.7102 157.13 67.8502 156.79L67.4002 156.61C66.2002 156.14 65.0702 155.69 63.8302 155.64C63.0902 155.61 62.4102 155.37 61.7502 155.14C61.4702 155.04 61.1802 154.94 60.8802 154.85C60.6002 154.77 60.3702 154.57 60.2502 154.31C60.1302 154.05 60.1302 153.74 60.2502 153.48L60.5602 152.81C60.7502 152.39 60.9202 152.03 61.0702 151.66L61.1902 151.35C61.3402 150.98 61.4902 150.63 61.5102 150.34C61.6702 148.43 62.4402 146.81 63.1702 145.47C63.3902 145.06 63.5802 144.63 63.7802 144.17C63.9202 143.84 64.0602 143.52 64.2202 143.2L64.4302 142.75C64.7102 142.16 65.0002 141.54 65.4002 140.97C66.1702 139.87 66.5702 138.7 66.6302 137.4C66.6302 137.13 66.6302 136.87 66.7402 136.6C67.1402 135.47 67.1802 134.26 67.2102 132.97C67.2402 132.09 67.2602 131.17 67.4202 130.26C67.6102 129.11 67.8602 127.95 68.0902 126.83C68.3702 125.51 68.6602 124.16 68.8602 122.82C68.9202 122.45 69.0902 122.15 69.2002 121.95C69.2302 121.91 69.2502 121.87 69.2702 121.83C69.3902 121.58 69.6102 121.39 69.8702 121.3C70.1302 121.19 70.5502 121.02 71.0102 121.25C72.1702 121.84 73.4602 122.07 74.8302 122.31C76.0102 122.52 77.2402 122.73 78.4302 123.2C78.8202 123.35 78.9302 123.33 78.9302 123.32C78.9302 123.32 79.0502 123.26 79.2902 122.82C79.9202 121.67 80.8302 120.85 82.2302 120.18C82.6002 120 83.0002 119.65 83.3602 119.18C84.0602 118.28 84.9002 117.41 86.2302 117.14C86.8302 117.02 87.2002 116.78 87.4902 116.31C88.2002 115.19 89.3102 114.74 90.3002 114.45C90.7802 114.31 91.4702 114.08 91.8002 113.75C92.7602 112.79 93.8002 112.17 94.9902 111.86C95.2602 111.79 95.6002 111.7 95.6902 111.62C97.3802 110.16 99.3702 109.48 101.28 108.81C101.92 108.59 102.56 108.37 103.19 108.12C103.91 107.83 104.82 107.75 105.68 107.88C106.27 107.97 106.51 107.88 106.77 107.65C107.15 107.33 107.74 106.87 108.44 106.68C110.43 106.12 111.97 105.73 113.45 105.43C114.1 105.3 114.82 105.15 115.55 105.21C115.81 105.04 116.13 104.9 116.48 104.93C117.02 104.97 117.41 105.28 117.79 105.58C117.93 105.69 118.09 105.81 118.27 105.94C118.55 106.13 118.71 106.45 118.7 106.79C118.69 107.13 118.51 107.44 118.23 107.62C118.04 107.74 117.87 107.87 117.72 107.98C117.29 108.3 116.8 108.67 116.17 108.52C115.5 108.37 115.03 107.76 114.8 107.23C114.54 107.26 114.26 107.32 113.93 107.38C112.42 107.69 110.92 108.06 108.98 108.61C108.62 108.71 108.2 109.07 108.06 109.19C107.09 110.01 106.11 109.98 105.37 109.87C104.87 109.79 104.32 109.84 103.93 109.99C103.28 110.25 102.6 110.48 101.93 110.72C100.11 111.35 98.3902 111.94 96.9902 113.15C96.5502 113.53 96.0002 113.68 95.5502 113.79C94.6402 114.03 93.9202 114.46 93.2002 115.18C92.5502 115.83 91.6402 116.15 90.8402 116.39C89.9302 116.65 89.4402 116.95 89.1602 117.39C88.5702 118.32 87.7402 118.88 86.6002 119.11C85.9402 119.25 85.4602 119.71 84.9102 120.42C84.5202 120.92 83.8802 121.59 83.0602 121.99C82.0402 122.47 81.4302 123.01 81.0102 123.78C80.2002 125.26 79.1702 125.66 77.6602 125.06C76.6602 124.66 75.5802 124.48 74.4502 124.28C73.2302 124.07 71.9802 123.85 70.7702 123.35C70.5702 124.65 70.2902 125.97 70.0202 127.24C69.7902 128.34 69.5502 129.48 69.3602 130.59C69.2302 131.37 69.2102 132.17 69.1802 133.03C69.1402 134.41 69.1002 135.84 68.5902 137.27C68.6002 137.25 68.6002 137.3 68.6002 137.34V137.49C68.5202 139.16 67.9902 140.72 67.0102 142.12C66.7102 142.55 66.4702 143.06 66.2102 143.6L65.9802 144.08C65.8402 144.38 65.7002 144.68 65.5702 144.98C65.3602 145.46 65.1402 145.96 64.8802 146.44C64.2502 147.59 63.5902 148.98 63.4602 150.52C63.4102 151.12 63.1902 151.65 62.9902 152.13L62.8802 152.41C62.7602 152.71 62.6302 153 62.4902 153.31C63.0102 153.49 63.4602 153.64 63.8702 153.66C65.4502 153.73 66.7902 154.26 68.0902 154.77L68.5302 154.94C69.9402 155.49 70.7402 156.31 71.2202 157.67C71.3102 157.93 71.3802 158.19 71.4602 158.45C71.5402 158.72 71.6102 158.99 71.7102 159.26C71.9102 159.77 72.1302 160.27 72.3502 160.78C72.5302 161.2 72.7202 161.61 72.8902 162.03C73.1202 162.58 73.3202 163.15 73.4802 163.7C73.6002 164.1 73.7002 164.5 73.8102 164.9C73.9802 165.54 74.1402 166.14 74.3402 166.72C74.5602 167.35 74.8802 168.04 75.3402 168.88C76.4802 170.97 77.6602 173.04 78.8402 175.1C78.8802 175.17 78.9702 175.27 79.0702 175.37C79.1402 175.44 79.2102 175.52 79.2802 175.6C79.8902 176.31 80.3902 177.08 80.8702 177.82C81.6002 178.95 82.2902 180.01 83.2902 180.78C83.5202 180.95 83.6202 181.17 83.6602 181.26C84.3102 182.47 85.3002 183.46 86.3502 184.5C86.3802 184.48 86.4102 184.46 86.4402 184.45C86.5302 184.4 86.6302 184.35 86.7402 184.28C87.0502 184.09 87.4402 184.07 87.7502 184.25C88.0702 184.43 88.2702 184.76 88.2702 185.12C88.2702 185.26 88.2702 185.37 88.2902 185.47C88.3102 185.74 88.3302 186.08 88.1702 186.42C88.3302 186.61 88.4802 186.8 88.6302 187C88.6502 187.03 88.7702 187.1 88.8502 187.15C89.0002 187.25 89.1502 187.34 89.2802 187.46C89.4902 187.63 89.6902 187.82 89.8902 188.01L90.8902 188.93C90.9702 189.01 91.0602 189.08 91.1402 189.15L91.2402 188.98C91.6402 189.22 91.9802 189.62 92.1802 190.09C92.4802 190.36 92.7802 190.63 93.0802 190.9L91.7502 192.39H91.7802ZM90.4902 190.19C90.4502 190.26 90.4002 190.36 90.3702 190.49L90.5602 190.17C90.5602 190.17 90.5102 190.18 90.4902 190.19ZM82.1002 182.36C82.1002 182.36 82.1102 182.36 82.1202 182.37C82.1202 182.37 82.1102 182.37 82.1002 182.36ZM95.6202 188.37C95.5302 188.37 95.4402 188.36 95.3402 188.33C94.7202 188.17 93.7902 187.57 93.6902 186.7C93.6202 186.06 94.0102 185.61 94.3602 185.2C94.4802 185.06 94.6102 184.91 94.7402 184.73C94.9402 184.46 95.2602 184.31 95.5902 184.32C95.9202 184.33 96.2302 184.51 96.4002 184.8C96.5102 184.98 96.6202 185.14 96.7202 185.28C97.0002 185.67 97.2802 186.07 97.3002 186.61C97.3202 187.29 96.7602 187.81 96.5202 188C96.2202 188.24 95.9102 188.36 95.6102 188.36L95.6202 188.37ZM91.6302 183.66C91.3902 183.66 91.1702 183.58 90.9802 183.42C90.9302 183.38 90.8702 183.34 90.8102 183.3C90.4902 183.08 89.9602 182.72 89.9702 182.05C89.9702 181.56 90.2102 181.18 90.4202 180.85C90.4902 180.74 90.5702 180.61 90.6402 180.47C90.7902 180.18 91.0802 179.98 91.4102 179.94C91.7402 179.9 92.0602 180.03 92.2802 180.27C92.3802 180.39 92.4902 180.49 92.5902 180.58C92.9202 180.89 93.3602 181.32 93.2302 181.98C93.1302 182.47 92.8202 182.82 92.5902 183.07C92.5302 183.13 92.4802 183.19 92.4302 183.26C92.2602 183.48 92.0202 183.62 91.7402 183.65C91.7002 183.65 91.6702 183.65 91.6302 183.65V183.66ZM96.3902 179.99C96.2302 179.99 96.0602 179.95 95.8902 179.86C95.3902 179.6 95.1002 179.15 94.8702 178.79C94.8102 178.69 94.7502 178.59 94.6802 178.5C94.5202 178.28 94.4502 178.01 94.4902 177.75C94.5302 177.48 94.6802 177.24 94.9002 177.09C94.9802 177.03 95.0602 176.96 95.1302 176.89C95.4602 176.6 95.9002 176.23 96.5402 176.22C97.1802 176.24 97.5702 176.69 97.9102 177.09C98.0202 177.22 98.1402 177.36 98.2802 177.5C98.5002 177.71 98.6002 178.01 98.5702 178.31C98.5402 178.61 98.3702 178.88 98.1202 179.05C97.9502 179.16 97.7802 179.29 97.6402 179.4C97.2902 179.67 96.8702 179.99 96.4002 179.99H96.3902ZM87.8002 178.75C87.8002 178.75 87.7002 178.75 87.6502 178.75C87.1302 178.69 86.8202 178.32 86.6202 178.07C86.5602 178 86.5002 177.93 86.4302 177.85C86.2202 177.63 86.1202 177.32 86.1602 177.02C86.2002 176.72 86.3802 176.45 86.6502 176.29C86.7502 176.23 86.8402 176.17 86.9302 176.11C87.2502 175.9 87.8302 175.5 88.4502 175.91C88.7902 176.14 88.9902 176.46 89.1302 176.69C89.1602 176.74 89.2002 176.8 89.2302 176.85C89.3902 177.08 89.4502 177.37 89.3902 177.65C89.3302 177.93 89.1502 178.16 88.9002 178.3C88.8602 178.32 88.8302 178.35 88.7902 178.38C88.5802 178.53 88.2502 178.76 87.8002 178.76V178.75ZM92.5402 175.16C92.2802 175.16 92.0902 175.08 91.9502 174.98C91.4602 174.65 90.9302 173.99 90.8702 173.25C90.8002 172.55 91.3302 172.17 91.7602 171.86C91.8902 171.76 92.0402 171.65 92.1902 171.53C92.4302 171.32 92.7602 171.24 93.0702 171.32C93.3802 171.39 93.6402 171.61 93.7602 171.91C93.8302 172.07 93.9002 172.22 93.9702 172.36C94.1702 172.76 94.3902 173.21 94.3202 173.75C94.2202 174.49 93.4202 174.91 93.1702 175.02C92.9302 175.13 92.7202 175.17 92.5402 175.17V175.16ZM147.65 141.73C147.21 141.73 146.75 141.66 146.3 141.52C146.07 141.45 145.84 141.35 145.61 141.22C144.28 140.48 143.54 139.04 143.7 137.46C143.86 135.86 144.91 134.53 146.38 134.06C146.91 133.89 147.39 133.84 147.84 133.89C149.39 134.07 151.14 136.42 151.21 137.94C151.26 139.19 150.78 140.31 149.87 141C149.24 141.48 148.47 141.73 147.65 141.73ZM146.98 135.96C146.12 136.23 145.75 137.01 145.69 137.65C145.61 138.44 145.94 139.12 146.58 139.47C146.69 139.53 146.79 139.58 146.9 139.61C147.58 139.82 148.22 139.75 148.66 139.42C149.05 139.12 149.24 138.64 149.22 138.03C149.19 137.29 148.06 135.96 147.62 135.87C147.46 135.85 147.25 135.87 146.99 135.96H146.98ZM122.01 138.48H121.98C120.83 138.46 119.81 136.89 119.61 136.58C119.31 136.09 118.95 135.36 119.27 134.71C119.92 133.4 121.39 132.21 122.69 131.96C123.64 131.77 124.35 132.58 125.24 133.59C125.59 133.99 125.99 134.45 126.43 134.88C126.66 135.1 126.77 135.42 126.72 135.73C126.68 136.04 126.49 136.32 126.21 136.47C125.71 136.74 125.26 137.03 124.85 137.29C123.86 137.92 123 138.47 122 138.47L122.01 138.48ZM121.21 135.35C121.39 135.71 121.85 136.29 122.12 136.47C122.53 136.41 123.12 136.04 123.79 135.61C123.91 135.53 124.03 135.46 124.16 135.38C124.02 135.22 123.88 135.06 123.75 134.91C123.47 134.59 123.1 134.17 122.88 133.98C122.3 134.18 121.61 134.75 121.22 135.35H121.21ZM97.5802 134.51C97.5202 134.51 97.4602 134.51 97.3902 134.49C96.8802 134.41 96.4602 134.16 96.1002 133.95C95.9802 133.88 95.8702 133.81 95.7502 133.75C95.4902 133.62 95.3002 133.38 95.2402 133.09C95.1702 132.81 95.2402 132.51 95.4002 132.27L96.1902 131.18C96.3502 130.96 96.5802 130.82 96.8502 130.78C97.1102 130.74 97.3902 130.81 97.6002 130.97L98.8202 131.88C99.0302 132.04 99.1702 132.28 99.2102 132.54C99.2502 132.8 99.1802 133.07 99.0202 133.28C98.9702 133.35 98.9102 133.44 98.8602 133.53C98.6102 133.92 98.2502 134.5 97.6002 134.5L97.5802 134.51ZM136.3 127.51C136.19 127.51 136.07 127.5 135.96 127.46C134.75 127.1 132.89 125.92 132.56 124.43C132.34 123.44 133.02 122.57 133.88 121.48C134.25 121.02 134.66 120.49 135.05 119.9C135.23 119.62 135.55 119.45 135.88 119.45C136.22 119.45 136.53 119.62 136.71 119.9C137.1 120.49 137.48 121 137.82 121.45C138.58 122.46 139.19 123.26 139.23 124.25C139.27 125.33 138.13 126.52 137.52 127C137.34 127.14 136.86 127.52 136.3 127.52V127.51ZM135.88 122.17C135.73 122.36 135.59 122.54 135.46 122.71C135.08 123.19 134.57 123.85 134.53 124.08C134.61 124.4 135.43 125.11 136.27 125.45C136.62 125.19 137.19 124.54 137.26 124.25C137.24 123.96 136.78 123.35 136.25 122.65C136.13 122.5 136.01 122.34 135.89 122.17H135.88ZM110.98 123.77C110.85 123.77 110.73 123.75 110.6 123.71C110 123.51 109.57 123.09 109.07 122.6C108.86 122.39 108.62 122.16 108.34 121.9C108.09 121.68 107.96 121.34 108.02 121C108.08 120.66 108.29 120.38 108.6 120.24C108.96 120.08 109.28 119.9 109.56 119.75C110.29 119.35 110.98 118.98 111.69 119.31C112.67 119.77 113.03 121.11 113.1 121.83C113.14 122.31 112.89 122.75 112.34 123.19C111.99 123.47 111.49 123.76 110.99 123.76L110.98 123.77ZM110.71 121.4C110.82 121.51 110.93 121.61 111.02 121.68C111.02 121.68 111.03 121.68 111.04 121.67C111 121.53 110.96 121.4 110.91 121.3C110.85 121.33 110.78 121.37 110.71 121.4ZM115.74 117.24C115.5 117.24 115.25 117.19 115.01 117.09C114.28 116.79 113.69 115.76 113.81 114.98C113.9 114.38 114.34 114.02 114.73 113.7C114.86 113.59 115.01 113.47 115.16 113.33C115.39 113.11 115.71 113.01 116.01 113.06C116.32 113.11 116.59 113.3 116.74 113.58C116.84 113.77 116.94 113.93 117.03 114.07C117.29 114.48 117.56 114.9 117.54 115.45C117.51 116.09 117.21 116.64 116.7 116.96C116.41 117.14 116.08 117.24 115.75 117.24H115.74ZM106.83 116.13C106.74 116.13 106.65 116.12 106.56 116.09C106.29 116.01 106.07 115.83 105.94 115.59C105.9 115.52 105.86 115.45 105.82 115.38C105.64 115.1 105.4 114.71 105.39 114.22C105.37 113.58 105.85 113.22 106.19 112.97C106.29 112.89 106.41 112.81 106.52 112.71C106.77 112.49 107.11 112.41 107.43 112.49C107.75 112.57 108.01 112.81 108.12 113.12C108.17 113.27 108.23 113.41 108.29 113.53C108.45 113.89 108.62 114.3 108.55 114.79C108.45 115.46 107.87 115.73 107.52 115.89C107.45 115.92 107.39 115.95 107.34 115.98C107.18 116.08 107 116.13 106.82 116.13H106.83ZM111.58 112.25C111.49 112.25 111.39 112.24 111.3 112.21C111.04 112.13 110.81 111.95 110.69 111.71C110.66 111.66 110.63 111.61 110.59 111.55C110.43 111.3 110.18 110.92 110.2 110.42C110.22 109.98 110.41 109.65 110.6 109.32C110.67 109.19 110.75 109.05 110.84 108.87C111.01 108.53 111.35 108.31 111.73 108.31C112.11 108.31 112.45 108.52 112.62 108.86C112.79 109.19 112.93 109.44 113.04 109.64C113.32 110.13 113.63 110.69 113.23 111.28C112.96 111.67 112.56 111.86 112.28 112.01C112.21 112.04 112.14 112.08 112.08 112.11C111.92 112.2 111.75 112.25 111.57 112.25H111.58Z" fill="currentColor"/>
<path d="M51.5996 164.092L69.2796 157.372C70.5496 156.892 71.3196 156.342 71.3896 155.872C71.4096 155.742 71.3896 155.602 71.3396 155.442C70.5996 155.062 69.4496 154.552 67.6696 153.872L66.3096 153.352L67.2896 152.272C67.4896 152.052 67.2596 151.542 66.8496 150.942L66.7596 150.812C66.3396 150.222 65.7596 149.552 65.2696 148.982C65.0296 148.702 64.7896 148.422 64.5496 148.142C63.5096 146.732 62.7996 145.602 62.4596 145.062C62.3796 144.942 62.3296 144.852 62.2996 144.802C61.0996 143.352 60.4696 142.022 61.2496 140.282L61.9296 138.742L62.9496 140.082C65.7096 143.702 67.6796 147.102 68.5196 149.712C70.5396 151.352 72.0996 152.702 72.8696 154.002C74.0396 154.712 74.5896 155.422 74.5496 156.282C74.4796 157.552 73.1396 158.422 69.8996 159.272L51.6096 164.092H51.5996Z" fill="currentColor"/>
<path d="M71.3587 140.733C70.8987 140.733 70.4687 140.493 70.2787 140.393L69.5088 139.963L69.8387 139.143C71.4587 135.083 73.5488 131.643 76.0788 128.903C82.7788 121.643 94.1688 117.673 105.759 118.443C107.359 118.443 108.989 118.513 110.639 118.653C111.239 118.613 111.809 118.553 112.379 118.493C112.619 118.473 112.849 118.443 113.089 118.423C113.969 118.193 114.819 117.953 115.619 117.733C118.589 116.853 122.749 115.603 123.779 115.243C124.099 114.863 124.529 114.583 125.049 114.443C125.709 114.263 126.339 114.323 126.889 114.623L127.469 114.953L127.399 115.613C127.345 116.106 124.769 117.113 119.669 118.633C118.629 118.943 117.479 119.283 116.229 119.633C115.499 119.853 114.699 120.083 113.849 120.343L113.649 120.383C113.579 120.383 113.509 120.393 113.439 120.403C113.019 120.513 112.589 120.623 112.149 120.743L111.979 120.783L111.799 120.763C111.409 120.723 111.019 120.693 110.629 120.653C109.959 120.693 109.249 120.733 108.499 120.723H108.369C107.469 120.593 106.569 120.503 105.669 120.443C105.609 120.443 105.549 120.443 105.489 120.443C94.1387 120.443 84.3787 123.663 78.6287 129.453C76.1887 131.913 74.1587 135.083 72.4287 139.133C72.6187 139.773 72.3988 140.183 72.1588 140.413C71.9088 140.653 71.6287 140.733 71.3587 140.733ZM67.8288 130.503L68.1687 128.113C68.4987 125.793 69.7587 124.013 70.9887 122.283C72.1887 120.593 73.2587 119.093 73.2787 117.293C71.8587 118.273 70.7387 119.343 70.4187 121.133L70.1987 122.393L69.0287 121.873C68.3887 121.583 68.1587 121.083 68.0387 120.803C68.0187 120.753 67.9787 120.663 67.9587 120.643L66.9688 120.183L67.4587 119.203C68.5587 117.293 69.8988 115.533 71.3288 114.113C71.4888 113.803 72.0588 112.483 74.0488 106.973C76.8888 99.093 80.8288 87.593 80.8688 87.473L85.4788 74.043L82.7988 87.993C82.7688 88.133 80.1287 101.883 79.2087 108.783C78.9887 110.423 78.9188 111.303 78.8988 111.763L78.9987 111.783V112.583C79.0787 116.513 77.2287 119.063 75.4287 121.533C75.1887 121.863 74.9588 122.183 74.7288 122.503C83.2288 118.003 93.3487 113.383 104.129 115.143L108.359 114.143C117.179 112.073 121.969 110.973 124.629 110.473C124.729 110.233 124.909 110.043 125.149 109.933C125.699 109.653 126.209 109.923 126.619 110.133C126.629 110.133 126.649 110.153 126.669 110.153C127.889 110.033 128.019 110.253 128.239 110.583L128.619 111.173L128.189 111.773C127.739 112.333 127.179 112.383 126.669 112.283C126.699 112.393 126.729 112.513 126.769 112.643L127.059 113.613L116.289 116.663L116.009 115.713C115.969 115.583 115.939 115.453 115.919 115.333C115.589 115.393 115.179 115.473 114.679 115.573C112.979 115.923 110.499 116.473 107.109 117.253L106.959 117.283H106.809C105.959 117.213 105.099 117.173 104.249 117.153H104.189H104.099C92.1987 116.993 80.3787 121.033 69.7487 129.023L67.8187 130.473L67.8288 130.503ZM74.6488 114.043L75.0088 115.333C75.3288 116.453 75.3488 117.463 75.1888 118.393C76.2088 116.803 76.9788 115.113 77.0088 112.933C76.7688 112.253 76.8988 110.963 77.2188 108.523C77.5188 106.293 77.9988 103.353 78.5088 100.383C77.6388 102.873 76.7387 105.413 75.9287 107.663C74.0787 112.793 73.4187 114.413 73.1287 115.003C73.2587 114.923 73.3887 114.833 73.5187 114.753L74.6488 114.043ZM118.549 113.853L118.529 113.963L120.369 113.443C119.779 113.573 119.169 113.713 118.549 113.853Z" fill="currentColor"/>
<path d="M150.88 150.721L118.17 133.681C114.21 131.621 110.51 129.411 106.92 127.281L106.63 127.111C102.61 126.391 98.4498 125.661 94.2198 125.421C89.7598 125.751 85.6098 126.641 81.8898 128.061C81.3098 128.531 80.7999 128.761 80.2999 128.781L78.2898 128.891L79.4198 127.221C79.7298 126.771 80.0399 126.341 80.3699 125.941L77.9099 126.291L82.1199 123.761C82.6299 123.451 83.1599 123.161 83.6898 122.881C86.6698 120.821 90.2098 119.841 93.9698 119.371C97.8698 118.641 102.01 118.471 106.22 118.881C108.93 118.851 111.51 118.771 113.92 118.431L118.17 117.181C126.19 114.811 135.21 112.151 136.79 111.601C137.11 111.221 137.54 110.941 138.06 110.801C138.72 110.611 139.35 110.681 139.89 110.981L140.47 111.311L140.4 111.971C140.347 112.465 138.24 113.331 134.08 114.571C130.66 115.591 126.02 116.971 121.1 118.421L112.45 120.961C110.5 121.111 108.69 121.221 106.28 120.901C106.23 120.901 106.17 120.891 106.12 120.881C105.48 120.881 104.83 120.891 104.19 120.901C100.77 120.931 97.2998 120.951 94.0398 121.391C91.9898 121.791 90.0198 122.351 88.1398 123.061C90.5698 122.911 92.9799 122.881 95.3699 122.981C100.06 123.471 104.51 124.441 107.88 125.221L108.16 125.331C110.04 126.441 111.89 127.571 113.77 128.711C115.52 129.781 117.29 130.861 119.13 131.951L150.87 150.741L150.88 150.721ZM74.5898 123.641L81.2398 118.981C82.4398 118.141 83.5799 117.231 84.6898 116.361C86.4599 114.961 88.2899 113.521 90.4099 112.281C89.9899 112.161 89.5199 112.171 88.9799 112.321C88.5599 112.441 87.6299 112.751 86.1599 113.501C85.6399 113.721 85.1898 114.101 84.7198 114.511C83.6698 115.421 82.2298 116.651 80.0298 115.951L78.4398 115.441L79.6398 114.281C80.8898 113.071 82.2599 112.031 83.4799 111.111C83.8199 110.851 84.1398 110.611 84.4398 110.381C85.3598 109.271 86.4898 108.521 87.8098 108.151C89.0098 107.811 90.1598 107.751 91.2398 107.981C92.3498 108.211 93.3098 108.711 94.0998 109.471C94.8898 110.231 95.4498 111.201 95.7698 112.351L95.9698 113.051L95.3699 113.451C94.6599 113.931 93.8699 114.331 93.0798 114.701C93.7898 114.661 94.5098 114.641 95.2398 114.631C96.3898 114.601 97.5798 114.581 98.8298 114.451C100.87 114.371 102.5 114.281 104.03 114.091C107.76 113.071 112.08 111.851 116.4 110.641C139.6 104.121 139.64 104.171 140.25 105.061L140.66 105.651L140.22 106.261C139.71 106.901 139.59 107.271 139.56 107.441C139.53 107.621 139.52 108.061 139.81 109.001L140.1 109.961L135.93 111.181L135.65 110.221C135.61 110.091 135.58 109.971 135.56 109.861C131.67 110.611 121.03 113.201 112.2 115.351L109.15 116.091C107.77 116.341 106.51 116.601 105.28 116.851L104.3 117.031C95.8298 117.101 88.3898 118.351 82.1898 120.731L74.6098 123.641H74.5898ZM89.8098 110.201C90.4398 110.201 91.0299 110.331 91.5798 110.601C92.3898 111.001 92.6298 111.561 92.6798 111.951C92.7098 112.201 92.6798 112.461 92.5898 112.711C92.9398 112.541 93.2798 112.361 93.5998 112.181C93.3798 111.681 93.0898 111.261 92.7198 110.901C92.1998 110.401 91.5798 110.081 90.8398 109.921C90.0798 109.761 89.2398 109.811 88.3498 110.061C87.6298 110.261 87.0098 110.611 86.4598 111.131C87.3498 110.731 88.0098 110.511 88.4498 110.391C88.9198 110.261 89.3798 110.191 89.8198 110.191L89.8098 110.201ZM137.62 106.911C135.49 107.411 131.69 108.441 127.41 109.621C135.59 107.691 137.02 107.511 137.54 107.751C137.54 107.511 137.54 107.291 137.58 107.101C137.59 107.041 137.6 106.971 137.62 106.911Z" fill="currentColor"/>
<path d="M111.86 121.353L111.59 121.283C111.27 121.203 110.95 121.133 110.63 121.073C109.67 121.103 108.68 121.103 107.56 120.983L107.3 120.923C107.19 120.883 107.07 120.843 106.96 120.803C105.73 120.803 104.47 120.883 103.18 120.953C101.39 121.053 99.5502 121.153 97.7302 121.083C96.7902 121.083 95.8302 121.013 94.9102 120.773L70.6602 114.483L95.3302 118.823C96.1302 118.963 96.9502 119.043 97.7902 119.083C98.8102 119.063 99.8702 118.933 100.97 118.793C103.07 118.533 105.23 118.253 107.25 118.813C108.43 118.813 109.61 118.893 110.76 119.083C110.9 119.083 111.04 119.083 111.19 119.073C111.62 119.063 112.06 119.043 112.51 119.043C117.36 117.593 123.23 115.863 128.79 114.223C137.35 111.693 146.18 109.093 147.74 108.553C148.05 108.173 148.49 107.893 149.01 107.753C149.67 107.573 150.31 107.633 150.85 107.933L151.43 108.263L151.36 108.923C151.307 109.409 149.213 110.273 145.08 111.513C141.69 112.533 137.07 113.893 132.18 115.333C127.95 116.583 123.51 117.893 119.47 119.093C116.78 119.893 114.28 120.643 112.13 121.293L111.86 121.373V121.353ZM88.2701 108.353L100.01 105.073L150.81 99.6126C152.42 99.4426 154.19 99.2626 156.26 99.1426C158.76 98.8126 161.22 98.4726 163.64 98.1526C168.09 97.5526 172.41 96.9726 177.15 96.3726C179.83 96.2726 181.51 96.3126 181.58 96.3126L188.3 96.4826L181.83 98.2826C181.83 98.2826 180.47 98.6626 178.66 99.1426C177.6 99.4226 176.24 99.8126 174.66 100.273C173.56 100.593 172.36 100.933 171.09 101.293C169.05 101.863 167.14 102.403 165.47 102.873L159.32 104.573L88.2802 108.363L88.2701 108.353ZM171.29 99.1426C168.82 99.4726 166.38 99.8026 163.91 100.133C161.49 100.463 159.04 100.793 156.46 101.133C154.36 101.263 152.61 101.433 151.03 101.603L125.16 104.383L159.08 102.573L164.91 100.943C166.58 100.473 168.49 99.9426 170.53 99.3626C170.78 99.2926 171.04 99.2226 171.28 99.1526L171.29 99.1426Z" fill="currentColor"/>
<path d="M118.461 152.281L118.171 151.541C117.731 151.521 117.291 151.501 116.861 151.491L115.381 151.421C115.061 151.401 114.741 151.381 114.411 151.421C114.141 151.461 113.811 151.501 113.431 151.421C112.461 151.201 111.471 151.111 110.421 151.021C108.861 150.891 107.251 150.751 105.681 150.141C104.161 150.161 102.781 149.751 101.451 149.341C100.631 149.091 99.8606 148.851 99.0706 148.721C98.9906 148.711 98.9206 148.701 98.8506 148.691C98.6206 148.661 98.3406 148.631 98.0506 148.521C95.8106 147.691 93.5705 146.861 91.3405 145.991C90.3405 145.601 89.5606 145.241 88.8906 144.841C88.2906 144.491 87.7306 144.091 87.1906 143.711C86.8606 143.481 86.5406 143.251 86.2106 143.031C85.7806 142.751 85.3306 142.481 84.8606 142.241C84.4706 142.031 84.0706 141.841 83.6706 141.641C83.1606 141.391 82.6506 141.131 82.1406 140.861C81.8306 140.691 81.5406 140.491 81.2506 140.291C81.0606 140.161 80.8706 140.031 80.6806 139.911C79.9406 139.471 79.4006 139.431 78.5306 139.721L78.0706 139.881C76.8506 140.291 75.7006 140.671 74.7106 141.431C74.1306 141.881 73.4506 142.141 72.7906 142.381C72.5106 142.481 72.2306 142.591 71.9406 142.721C71.6806 142.841 71.3706 142.831 71.1106 142.711C70.8506 142.591 70.6506 142.351 70.5706 142.081L70.3805 141.391C70.2605 140.941 70.1606 140.551 70.0306 140.171L69.9306 139.851C69.8106 139.471 69.6906 139.111 69.5306 138.871C68.4306 137.311 67.9706 135.571 67.6706 134.071C67.5806 133.611 67.4406 133.161 67.3006 132.681C67.2006 132.341 67.1006 132.001 67.0106 131.651L66.8805 131.151C66.7105 130.521 66.5406 129.871 66.4806 129.171C66.3606 127.831 65.9205 126.671 65.1305 125.641C64.9605 125.431 64.8005 125.231 64.7005 124.961C64.2805 123.841 63.5306 122.881 62.7306 121.881C62.1806 121.191 61.6106 120.471 61.1506 119.671C60.5606 118.661 60.0006 117.621 59.4606 116.611C58.8306 115.421 58.1706 114.201 57.4706 113.041C57.2706 112.721 57.2106 112.381 57.1806 112.151C57.1806 112.101 57.1606 112.051 57.1506 112.011C57.0806 111.741 57.1306 111.461 57.2706 111.221C57.4006 110.971 57.6106 110.561 58.1206 110.451C59.3806 110.161 60.5106 109.501 61.7106 108.811C62.7506 108.211 63.8306 107.581 65.0406 107.181C65.4306 107.051 65.5006 106.951 65.5006 106.951C65.5006 106.951 65.5505 106.831 65.4505 106.331C65.1905 105.041 65.3606 103.841 66.0106 102.421C66.1806 102.051 66.2606 101.521 66.2406 100.931C66.2006 99.7912 66.2805 98.5912 67.1305 97.5212C67.5105 97.0412 67.6406 96.6212 67.5706 96.0712C67.3906 94.7612 67.9606 93.7012 68.5306 92.8412C68.8306 92.3812 69.1906 91.8012 69.2306 91.3412C69.3506 89.9712 69.7406 88.8512 70.4606 87.8412C70.6306 87.6012 70.8205 87.3312 70.8405 87.2112C71.2005 85.0112 72.2806 83.2112 73.3206 81.4612C73.6706 80.8812 74.0206 80.3012 74.3306 79.7112C74.6906 79.0312 75.3306 78.3812 76.0806 77.9312C76.5906 77.6212 76.7106 77.3912 76.7705 77.0512C76.8605 76.5512 77.0206 75.8312 77.4206 75.2312C78.5606 73.5512 79.5306 72.2212 80.4606 71.0512C80.8806 70.5312 81.3306 69.9612 81.9306 69.5312C82.0206 69.2412 82.1806 68.9212 82.4606 68.7112C82.9006 68.3912 83.4006 68.3812 83.8806 68.3612C84.0606 68.3612 84.2606 68.3612 84.4806 68.3312C84.8206 68.3012 85.1506 68.4412 85.3606 68.7012C85.5706 68.9612 85.6406 69.3212 85.5306 69.6412C85.4606 69.8612 85.4106 70.0612 85.3706 70.2412C85.2406 70.7612 85.1006 71.3612 84.5306 71.6612C83.9206 71.9812 83.1706 71.8112 82.6506 71.5612C82.4706 71.7512 82.2906 71.9812 82.0806 72.2412C81.1306 73.4412 80.1906 74.7312 79.0806 76.3712C78.8706 76.6812 78.7806 77.2212 78.7506 77.4012C78.5306 78.6512 77.7706 79.2612 77.1206 79.6512C76.6806 79.9112 76.2906 80.3012 76.1006 80.6612C75.7706 81.2812 75.4006 81.8912 75.0406 82.4912C74.0506 84.1412 73.1105 85.7112 72.8105 87.5312C72.7105 88.1112 72.3905 88.5712 72.1305 88.9412C71.5905 89.7112 71.3106 90.5112 71.2206 91.5212C71.1406 92.4312 70.6506 93.2612 70.1906 93.9612C69.6606 94.7612 69.4806 95.2812 69.5506 95.8112C69.7006 96.9012 69.4205 97.8712 68.7005 98.7712C68.2805 99.3012 68.2106 99.9612 68.2406 100.861C68.2606 101.491 68.2106 102.421 67.8306 103.251C67.3606 104.281 67.2406 105.081 67.4106 105.941C67.7406 107.601 67.2106 108.561 65.6606 109.081C64.6406 109.421 63.7006 109.971 62.7006 110.541C61.6306 111.161 60.5306 111.791 59.2806 112.201C59.9606 113.321 60.5906 114.511 61.2106 115.661C61.7406 116.651 62.2806 117.671 62.8606 118.651C63.2606 119.331 63.7606 119.961 64.2906 120.631C65.1506 121.711 66.0306 122.831 66.5605 124.251C66.5605 124.231 66.5906 124.261 66.6106 124.291L66.7005 124.411C67.7305 125.751 68.3106 127.251 68.4606 128.981C68.5106 129.501 68.6506 130.051 68.8006 130.621L68.9406 131.141C69.0206 131.461 69.1106 131.771 69.2106 132.091C69.3606 132.591 69.5106 133.111 69.6206 133.651C69.8906 135.001 70.2706 136.431 71.1506 137.691C71.4906 138.181 71.6706 138.731 71.8206 139.221L71.9106 139.511C72.0106 139.811 72.1006 140.121 72.1906 140.451C72.7006 140.261 73.1506 140.081 73.4706 139.831C74.7206 138.871 76.0906 138.411 77.4106 137.971L77.8706 137.821C79.3006 137.341 80.4406 137.441 81.6906 138.181C81.9206 138.321 82.1506 138.471 82.3706 138.621C82.6006 138.781 82.8406 138.941 83.0806 139.081C83.5606 139.341 84.0506 139.581 84.5406 139.821C84.9506 140.021 85.3605 140.231 85.7705 140.441C86.2906 140.711 86.8106 141.021 87.3006 141.341C87.6506 141.571 87.9906 141.811 88.3306 142.051C88.8706 142.431 89.3706 142.791 89.9006 143.101C90.4806 143.441 91.1605 143.761 92.0606 144.111C94.2806 144.971 96.5106 145.801 98.7406 146.631C98.8106 146.661 98.9506 146.671 99.0806 146.691C99.1806 146.701 99.2906 146.711 99.3906 146.731C100.311 146.881 101.181 147.151 102.031 147.411C103.311 147.801 104.531 148.181 105.781 148.121C106.071 148.111 106.281 148.211 106.371 148.251C107.651 148.761 109.041 148.881 110.511 149.001C110.521 148.961 110.541 148.931 110.551 148.901C110.591 148.811 110.631 148.701 110.671 148.581C110.781 148.231 111.071 147.981 111.431 147.911C111.791 147.841 112.151 147.971 112.391 148.251C112.481 148.351 112.561 148.441 112.631 148.511C112.821 148.701 113.061 148.951 113.151 149.311C113.391 149.351 113.631 149.401 113.871 149.461C113.921 149.461 114.041 149.441 114.131 149.431C114.581 149.371 115.031 149.391 115.481 149.421L116.931 149.481C117.011 149.481 117.101 149.481 117.181 149.491L117.151 149.301C117.611 149.221 118.131 149.321 118.581 149.551C118.981 149.561 119.391 149.581 119.791 149.591L119.731 151.591C119.531 151.591 119.341 151.581 119.141 151.571C119.011 151.861 118.801 152.141 118.461 152.281ZM117.341 150.731C117.341 150.811 117.381 150.921 117.441 151.041L117.381 150.671C117.381 150.671 117.351 150.711 117.341 150.731ZM105.901 150.131C105.901 150.131 105.891 150.131 105.881 150.131C105.881 150.131 105.891 150.131 105.901 150.131ZM118.771 146.441C118.331 146.441 117.881 146.331 117.561 146.021C117.101 145.581 117.101 144.981 117.111 144.441C117.111 144.261 117.111 144.051 117.101 143.831C117.081 143.501 117.221 143.171 117.491 142.971C117.761 142.761 118.101 142.711 118.421 142.811C118.621 142.881 118.811 142.931 118.981 142.971C119.441 143.091 119.921 143.221 120.281 143.621C120.731 144.121 120.631 144.881 120.571 145.181C120.471 145.681 120.241 146.021 119.881 146.201C119.601 146.341 119.191 146.441 118.781 146.441H118.771ZM112.761 145.281C112.411 145.281 112.011 145.201 111.711 144.841C111.401 144.461 111.331 144.021 111.281 143.621C111.261 143.491 111.241 143.351 111.211 143.191C111.141 142.871 111.241 142.541 111.461 142.301C111.681 142.061 112.001 141.951 112.341 142.001C112.491 142.021 112.641 142.031 112.771 142.041C113.221 142.071 113.841 142.111 114.161 142.701C114.401 143.141 114.391 143.601 114.381 143.941C114.381 144.021 114.381 144.111 114.381 144.191C114.391 144.461 114.291 144.731 114.101 144.931C113.911 145.131 113.651 145.241 113.381 145.241C113.321 145.241 113.251 145.241 113.181 145.261C113.071 145.271 112.931 145.291 112.781 145.291L112.761 145.281ZM107.101 143.991C106.911 143.991 106.731 143.961 106.591 143.931C106.501 143.911 106.411 143.891 106.301 143.881C105.991 143.851 105.721 143.681 105.561 143.421C105.401 143.161 105.361 142.841 105.471 142.551C105.511 142.441 105.541 142.331 105.571 142.231C105.671 141.861 105.871 141.181 106.601 141.101C107.011 141.061 107.371 141.171 107.631 141.261C107.691 141.281 107.751 141.301 107.811 141.321C108.081 141.391 108.311 141.581 108.441 141.831C108.571 142.081 108.581 142.381 108.481 142.641C108.461 142.681 108.451 142.731 108.441 142.771C108.371 143.041 108.241 143.501 107.811 143.781C107.571 143.941 107.321 143.981 107.091 143.981L107.101 143.991ZM114.421 139.401C114.031 139.401 113.671 139.291 113.361 139.191C113.251 139.151 113.141 139.121 113.031 139.091C112.771 139.031 112.541 138.871 112.401 138.631C112.261 138.401 112.221 138.121 112.291 137.861C112.311 137.771 112.331 137.661 112.341 137.561C112.411 137.131 112.501 136.531 112.991 136.141C113.491 135.741 114.081 135.841 114.601 135.921C114.771 135.951 114.951 135.981 115.141 135.991C115.441 136.011 115.721 136.171 115.891 136.421C116.061 136.671 116.111 136.991 116.021 137.281C115.961 137.481 115.921 137.681 115.881 137.861C115.751 138.441 115.591 139.171 114.841 139.341C114.701 139.371 114.561 139.381 114.431 139.381L114.421 139.401ZM108.441 138.161C107.891 138.161 107.211 137.971 106.751 137.521C106.251 137.021 106.411 136.391 106.531 135.881C106.571 135.721 106.611 135.541 106.651 135.351C106.701 135.031 106.901 134.761 107.191 134.621C107.481 134.481 107.811 134.481 108.101 134.621C108.261 134.701 108.411 134.771 108.551 134.831C108.961 135.011 109.421 135.211 109.711 135.661C110.111 136.291 109.761 137.131 109.651 137.371C109.431 137.831 109.111 138.091 108.691 138.141C108.611 138.141 108.531 138.151 108.441 138.151V138.161ZM84.8706 104.151C84.6606 104.151 84.4506 104.081 84.2705 103.951C84.0406 103.781 83.8906 103.511 83.8706 103.221L83.7705 101.881C83.7505 101.611 83.8405 101.351 84.0205 101.151C84.2006 100.951 84.4506 100.831 84.7206 100.811L86.2306 100.731C86.4906 100.711 86.7605 100.811 86.9506 100.981C87.1506 101.161 87.2706 101.411 87.2806 101.671C87.2806 101.761 87.3006 101.861 87.3206 101.971C87.3906 102.471 87.5006 103.231 86.8306 103.631C86.3806 103.901 85.9106 103.981 85.4906 104.051C85.3606 104.071 85.2305 104.091 85.0905 104.121C85.0205 104.141 84.9406 104.141 84.8706 104.141V104.151ZM106.931 91.2512C106.171 91.2512 105.401 91.0112 105.191 90.9412C104.651 90.7612 103.901 90.4312 103.731 89.7312C103.381 88.3112 103.751 86.4612 104.581 85.4312C105.191 84.6712 106.251 84.8312 107.581 85.0412C108.111 85.1212 108.711 85.2112 109.331 85.2612C109.651 85.2812 109.931 85.4612 110.101 85.7312C110.271 86.0012 110.301 86.3312 110.181 86.6312C109.971 87.1612 109.811 87.6712 109.671 88.1312C109.311 89.2612 109.001 90.2412 108.221 90.8912C107.881 91.1712 107.401 91.2612 106.931 91.2612V91.2512ZM105.621 88.9712C105.991 89.1312 106.721 89.2812 107.041 89.2512C107.321 88.9412 107.531 88.2812 107.761 87.5212C107.801 87.3812 107.851 87.2512 107.891 87.1012C107.681 87.0712 107.471 87.0412 107.271 87.0112C106.851 86.9412 106.291 86.8612 106.001 86.8612C105.681 87.3912 105.521 88.2612 105.611 88.9712H105.621ZM88.9606 87.0612C88.6906 87.0612 88.4206 87.0412 88.1206 87.0112C87.8306 86.9912 87.5006 86.9612 87.1106 86.9512C86.7706 86.9512 86.4606 86.7612 86.2806 86.4712C86.1006 86.1812 86.0906 85.8212 86.2406 85.5112C86.4106 85.1512 86.5506 84.8112 86.6606 84.5112C86.9606 83.7412 87.2506 83.0112 88.0106 82.8112C89.0606 82.5312 90.2006 83.3312 90.7106 83.8412C91.0506 84.1812 91.1506 84.6812 91.0006 85.3712C90.8906 85.9212 90.6206 86.6412 90.0006 86.8812C89.6606 87.0112 89.3206 87.0612 88.9606 87.0612ZM88.6006 85.0512C88.7506 85.0612 88.9005 85.0612 89.0205 85.0612C89.0205 85.0612 89.0205 85.0512 89.0205 85.0412C88.9005 84.9612 88.7806 84.8912 88.6806 84.8412C88.6506 84.9012 88.6206 84.9712 88.6006 85.0412V85.0512ZM81.6006 83.7512C81.4706 83.7512 81.3406 83.7212 81.2106 83.6712C81.1406 83.6412 81.0606 83.6212 80.9806 83.5912C80.6606 83.4912 80.2306 83.3412 79.9006 82.9812C79.4706 82.5012 79.6106 81.9212 79.7106 81.5012C79.7406 81.3812 79.7706 81.2412 79.8006 81.0912C79.8506 80.7612 80.0606 80.4812 80.3606 80.3412C80.6606 80.2012 81.0106 80.2112 81.3006 80.3812C81.4406 80.4612 81.5706 80.5312 81.6906 80.5912C82.0406 80.7712 82.4405 80.9712 82.7006 81.3912C83.0506 81.9612 82.7806 82.5412 82.6206 82.8912C82.5906 82.9612 82.5606 83.0212 82.5406 83.0812C82.4506 83.3412 82.2606 83.5612 82.0006 83.6712C81.8706 83.7312 81.7305 83.7612 81.5905 83.7612L81.6006 83.7512ZM88.6506 79.0612C87.9606 79.0612 87.1906 78.6912 86.8506 78.1512C86.5306 77.6312 86.6406 77.0712 86.7306 76.5812C86.7606 76.4112 86.8006 76.2212 86.8206 76.0212C86.8506 75.7112 87.0306 75.4312 87.3006 75.2612C87.5706 75.0912 87.9006 75.0712 88.1906 75.1912C88.3906 75.2712 88.5706 75.3312 88.7306 75.3812C89.1906 75.5212 89.6706 75.6712 90.0106 76.1112C90.4006 76.6112 90.5205 77.2312 90.3405 77.8112C90.1605 78.3712 89.7206 78.8012 89.1306 78.9912C88.9806 79.0412 88.8206 79.0612 88.6506 79.0612ZM127.361 77.8712C126.121 77.8712 124.951 77.2512 124.201 76.1412C123.291 74.8112 123.241 73.1212 124.071 71.8212C124.371 71.3512 124.701 71.0012 125.081 70.7512C126.381 69.8912 129.241 70.5712 130.271 71.6912C131.121 72.6112 131.461 73.7812 131.221 74.9012C130.961 76.0812 130.081 77.0612 128.811 77.5912C128.591 77.6812 128.351 77.7512 128.091 77.8012C127.851 77.8512 127.611 77.8712 127.371 77.8712H127.361ZM126.611 72.3512C126.421 72.3512 126.261 72.3712 126.171 72.4212C126.031 72.5112 125.891 72.6712 125.751 72.8912C125.271 73.6512 125.481 74.4812 125.851 75.0112C126.301 75.6712 126.991 75.9812 127.701 75.8312C127.821 75.8112 127.931 75.7812 128.041 75.7312C128.701 75.4612 129.141 74.9912 129.261 74.4512C129.371 73.9712 129.211 73.4812 128.791 73.0312C128.401 72.6112 127.281 72.3412 126.611 72.3412V72.3512ZM82.7406 77.7312C82.6106 77.7312 82.4806 77.7012 82.3606 77.6512C82.3106 77.6312 82.2406 77.6112 82.1806 77.5912C81.8906 77.5012 81.4606 77.3712 81.1506 76.9712C80.8806 76.6312 80.8106 76.2412 80.7406 75.8712C80.7106 75.7312 80.6806 75.5712 80.6406 75.3812C80.5506 75.0112 80.6806 74.6212 80.9606 74.3812C81.2506 74.1312 81.6506 74.0712 82.0006 74.2212C82.3406 74.3612 82.6106 74.4712 82.8206 74.5512C83.3506 74.7512 83.9506 74.9712 84.0205 75.6912C84.0606 76.1712 83.8906 76.5712 83.7606 76.8612C83.7306 76.9312 83.7006 77.0012 83.6706 77.0712C83.5806 77.3312 83.3806 77.5412 83.1306 77.6512C83.0006 77.7112 82.8606 77.7412 82.7206 77.7412L82.7406 77.7312ZM109.451 73.9412C108.651 73.9412 107.861 73.7712 107.281 73.3312C106.471 72.7112 106.441 71.6112 106.401 70.2212C106.381 69.6312 106.361 68.9612 106.281 68.2612C106.241 67.9312 106.381 67.5912 106.631 67.3812C106.891 67.1712 107.241 67.0912 107.561 67.1912C108.241 67.4012 108.861 67.5412 109.401 67.6612C110.631 67.9412 111.611 68.1712 112.271 68.9012C113.001 69.7012 112.891 71.3512 112.721 72.1112C112.661 72.3812 112.491 73.1812 111.821 73.4812C111.211 73.7412 110.321 73.9512 109.431 73.9512L109.451 73.9412ZM108.381 69.4712C108.381 69.7112 108.401 69.9412 108.401 70.1512C108.421 70.7612 108.451 71.6012 108.561 71.8012C108.831 71.9912 109.911 72.0112 110.771 71.7312C110.871 71.3012 110.891 70.4412 110.761 70.1812C110.561 69.9712 109.821 69.8012 108.961 69.6012C108.771 69.5612 108.581 69.5112 108.381 69.4612V69.4712Z" fill="currentColor"/>
<path d="M70.7789 155.719L79.9989 139.219C80.6589 138.039 80.8989 137.119 80.6589 136.719C80.5889 136.609 80.4789 136.509 80.3389 136.419C79.5289 136.599 78.3089 136.959 76.5189 137.579L75.1389 138.059L75.1889 136.599C75.1989 136.299 74.6989 136.059 73.9989 135.869H73.9089L73.8389 135.829C73.1289 135.649 72.2689 135.509 71.5289 135.389C71.1689 135.329 70.7989 135.269 70.4289 135.209C68.7189 134.789 67.4489 134.389 66.8389 134.199C66.7089 134.159 66.6089 134.129 66.5489 134.109C64.6989 133.769 63.3689 133.159 62.8389 131.319L62.3789 129.699L64.0189 130.069C68.4589 131.059 72.1589 132.409 74.4789 133.869C77.0789 133.829 79.1489 133.869 80.5689 134.359C81.9289 134.149 82.7989 134.339 83.3189 135.029C84.0889 136.049 83.6089 137.579 81.6789 140.309L70.7689 155.749L70.7789 155.719ZM66.5189 134.079H66.5389H66.5289H66.5189Z" fill="currentColor"/>
<path d="M68.9896 125.74L68.7096 124.9C67.3396 120.75 66.7296 116.76 66.9096 113.04C67.3696 103.17 73.5696 92.8 82.9196 85.95C84.1496 84.93 85.4396 83.93 86.7896 82.97C87.2196 82.55 87.6296 82.14 88.0196 81.73C88.1896 81.56 88.3496 81.39 88.5196 81.22C89.0396 80.48 89.5396 79.76 90.0096 79.07C91.7196 76.48 94.1096 72.85 94.6696 71.92C94.6696 71.42 94.8196 70.94 95.1296 70.49C95.5096 69.93 96.0396 69.57 96.6496 69.45L97.2996 69.33L97.6696 69.88C97.9496 70.2933 96.6263 72.7233 93.6996 77.17C93.0996 78.08 92.4396 79.08 91.7096 80.15C91.2896 80.79 90.8296 81.47 90.3396 82.22L90.2096 82.38C90.2096 82.38 90.1096 82.48 90.0696 82.52C89.8196 82.88 89.5596 83.24 89.2896 83.61L89.1896 83.75L89.0396 83.85C88.7196 84.07 88.3996 84.29 88.0796 84.52C87.5996 84.98 87.0796 85.45 86.4896 85.94L86.3896 86.01C85.6196 86.5 84.8696 87.01 84.1396 87.54C75.3696 94.86 69.8996 103.65 69.2196 111.82C68.9296 115.28 69.4196 119.01 70.6896 123.22C71.2496 123.59 71.3396 124.04 71.2996 124.38C71.1996 125.3 70.1896 125.5 69.8496 125.57L68.9796 125.74H68.9896ZM61.6196 119.56L60.3396 117.51C59.0996 115.52 58.9196 113.34 58.7496 111.23C58.5796 109.17 58.4296 107.33 57.2996 105.94C56.8396 107.61 56.6696 109.14 57.5796 110.72L58.2196 111.83L56.9896 112.18C56.3096 112.37 55.8096 112.13 55.5496 112C55.4996 111.97 55.4196 111.93 55.3896 111.93L54.3396 112.22L54.0896 111.16C53.6996 108.99 53.5996 106.78 53.7796 104.78C53.7096 104.44 53.2996 103.07 51.2696 97.57C48.3796 89.71 44.0096 78.36 43.9596 78.25L38.8496 65L45.7596 77.41C45.8296 77.53 52.6496 89.77 56.3696 95.64C57.2496 97.04 57.7596 97.76 58.0496 98.12L58.1396 98.07L58.6696 98.68C61.2496 101.64 61.4696 104.79 61.6796 107.84C61.7096 108.24 61.7396 108.64 61.7696 109.03C65.3896 100.12 70.1696 90.07 79.5596 84.49L82.1596 81.01C87.5796 73.76 90.5496 69.83 92.2596 67.74C92.1896 67.49 92.1996 67.23 92.3096 66.99C92.5596 66.42 93.1196 66.3 93.5696 66.2C93.5896 66.2 93.5996 66.2 93.6196 66.19C94.4696 65.32 94.7196 65.4 95.0896 65.51L95.7596 65.71L95.8196 66.45C95.8396 67.16 95.4296 67.57 94.9796 67.82C95.0696 67.89 95.1796 67.96 95.2896 68.03L96.1396 68.59L89.8496 77.84L89.0296 77.29C88.9096 77.21 88.8096 77.13 88.7196 77.06C88.5096 77.32 88.2496 77.64 87.9296 78.04C86.8396 79.42 85.2896 81.43 83.2096 84.2L82.9996 84.41C82.3096 84.91 81.6296 85.43 80.9596 85.97L80.8496 86.06C71.6096 93.56 65.1696 104.28 62.1596 117.24L61.6096 119.59L61.6196 119.56ZM56.2596 102.57L57.3696 103.32C58.3296 103.97 58.9996 104.73 59.4696 105.55C59.2296 103.67 58.7296 101.88 57.3496 100.19C56.7296 99.82 55.9996 98.75 54.6796 96.68C53.4696 94.78 51.9496 92.22 50.4296 89.62C51.3596 92.09 52.3096 94.61 53.1296 96.86C55.0096 101.98 55.5496 103.65 55.6996 104.29C55.7496 104.14 55.7896 103.99 55.8396 103.85L56.2496 102.57H56.2596ZM89.7596 74.2L89.8196 74.3L90.8996 72.71C90.5296 73.19 90.1496 73.69 89.7596 74.2Z" fill="currentColor"/>
<path d="M68.5901 111.617L68.3801 109.617C68.3201 109.077 68.2901 108.547 68.2901 108.017L66.6301 109.857L68.2301 105.207C68.4301 104.637 68.6401 104.077 68.8701 103.517C69.8301 100.027 71.9101 97.0072 74.4801 94.2272C77.0001 91.1572 80.0601 88.3672 83.5501 85.9772C85.6001 84.2072 87.5301 82.4872 89.1601 80.6872L91.6101 76.9872C96.2301 70.0272 101.43 62.1772 102.29 60.7472C102.29 60.2472 102.44 59.7572 102.75 59.3172C103.13 58.7572 103.66 58.3972 104.27 58.2772L104.92 58.1572L105.29 58.7072C105.563 59.1206 104.51 61.1339 102.13 64.7472C100.18 67.7172 97.5101 71.7472 94.6801 76.0172L89.6601 83.5472C88.2701 84.9172 86.9501 86.1572 84.9001 87.4672C84.8601 87.4972 84.8101 87.5272 84.7701 87.5572C84.2801 87.9772 83.7901 88.3972 83.3101 88.8072C80.7001 91.0272 78.0601 93.2772 75.8401 95.7072C74.5301 97.3272 73.3801 99.0272 72.4001 100.777C74.1601 99.0972 75.9901 97.5272 77.8801 96.0672C81.7901 93.4372 85.8201 91.3072 88.9001 89.7472L89.1901 89.6572C91.3501 89.2972 93.5001 88.9672 95.6801 88.6372C97.7001 88.3272 99.7501 88.0172 101.84 87.6772L138.2 81.6672L102.22 89.6372C97.8401 90.6072 93.5601 91.3073 89.4101 91.9772L89.1501 92.0172C85.6101 94.0572 81.9501 96.1672 78.5601 98.6972C75.3601 101.817 72.7501 105.167 70.8101 108.637C70.6701 109.367 70.4301 109.867 70.0601 110.217L68.5901 111.597V111.617ZM62.3901 109.967L64.4901 102.127C64.8701 100.707 65.1601 99.2873 65.4501 97.9072C65.9101 95.6973 66.3801 93.4172 67.2101 91.1072C66.8101 91.2772 66.4601 91.5972 66.1401 92.0572C65.8901 92.4172 65.3801 93.2572 64.7301 94.7672C64.4701 95.2672 64.3801 95.8472 64.2801 96.4772C64.0601 97.8472 63.7501 99.7272 61.6201 100.597L60.0801 101.227L60.2501 99.5672C60.4301 97.8372 60.8101 96.1572 61.1501 94.6672C61.2401 94.2472 61.3301 93.8572 61.4101 93.4872C61.4001 92.0472 61.7801 90.7372 62.5601 89.6072C63.2601 88.5772 64.1101 87.7972 65.0701 87.2672C66.0601 86.7272 67.1301 86.4972 68.2201 86.5672C69.3101 86.6472 70.3601 87.0272 71.3501 87.6972L71.9501 88.1072L71.7501 88.8072C71.5101 89.6272 71.1601 90.4372 70.8001 91.2372C71.3201 90.7472 71.8601 90.2772 72.4101 89.7872C73.2701 89.0272 74.1701 88.2472 75.0401 87.3372C76.5401 85.9672 77.7301 84.8572 78.7901 83.7172C80.9901 80.5272 83.5401 76.7972 86.0701 73.0872C99.6301 53.2172 99.6901 53.2272 100.73 53.5272L101.42 53.7172L101.48 54.4672C101.5 55.2872 101.65 55.6472 101.73 55.7972C101.82 55.9572 102.1 56.2972 102.92 56.8372L103.76 57.3872L101.35 60.9972L100.52 60.4472C100.41 60.3772 100.31 60.2972 100.22 60.2272C97.7201 63.3072 91.2101 72.1672 85.8101 79.5072L83.9901 81.9772C83.0901 83.0672 82.2801 84.0772 81.4901 85.0772L80.8801 85.8072C74.4401 91.3072 69.5401 97.0472 66.3201 102.857L62.3801 109.957L62.3901 109.967ZM67.8201 88.5572C67.1901 88.5572 66.6001 88.7172 66.0201 89.0272C65.3401 89.3972 64.7301 89.9672 64.2101 90.7372C63.7901 91.3572 63.5401 92.0272 63.4501 92.7772C63.8701 91.8972 64.2401 91.3072 64.4901 90.9272C65.1601 89.9472 66.0101 89.3172 67.0301 89.0672C67.9101 88.8472 68.4401 89.1272 68.7401 89.3972C68.9301 89.5672 69.0701 89.7872 69.1601 90.0372C69.3201 89.6772 69.4601 89.3272 69.5901 88.9872C69.1001 88.7472 68.6001 88.6072 68.0901 88.5772C68.0001 88.5772 67.9101 88.5772 67.8201 88.5772V88.5572ZM99.9201 56.6472C98.6101 58.4072 96.3401 61.6672 93.8001 65.3472C98.8501 58.5772 99.8401 57.5072 100.4 57.3472C100.24 57.1672 100.11 56.9972 100.01 56.8172C99.9801 56.7572 99.9501 56.7072 99.9201 56.6472Z" fill="currentColor"/>
<path d="M53.51 105.478L75.18 92.9481C75.89 92.5381 76.57 92.0681 77.23 91.5681C78 90.8981 78.73 90.1081 79.48 89.2981C80.92 87.7481 82.4 86.1481 84.3 85.2681C85.21 84.5181 86.16 83.8081 87.16 83.2181C87.27 83.1281 87.37 83.0281 87.48 82.9281C87.8 82.6381 88.12 82.3481 88.46 82.0581C91.25 77.8181 94.64 72.6981 97.86 67.8581C102.78 60.4381 107.86 52.7881 108.7 51.3681C108.7 50.8681 108.85 50.3881 109.16 49.9381C109.54 49.3781 110.07 49.0181 110.68 48.8981L111.33 48.7781L111.7 49.3381C111.973 49.7515 110.923 51.7615 108.55 55.3681C106.6 58.3281 103.94 62.3481 101.12 66.6081C98.69 70.2781 96.14 74.1281 93.82 77.6281C92.28 79.9681 90.84 82.1581 89.61 84.0381L89.46 84.2681L89.21 84.3881C88.92 84.5281 88.63 84.6881 88.34 84.8481C87.62 85.4781 86.86 86.1281 85.93 86.7581L85.69 86.8781C85.58 86.9181 85.46 86.9581 85.35 87.0081C84.41 87.7981 83.49 88.6681 82.55 89.5581C81.24 90.7881 79.91 92.0481 78.46 93.1581C77.74 93.7781 76.96 94.3281 76.1 94.7381L53.5 105.498L53.51 105.478ZM63.04 89.4581L69.92 79.4081L105.33 42.5681C106.46 41.3981 107.7 40.1281 109.21 38.7081C110.92 36.8381 112.59 34.9981 114.24 33.1881C117.26 29.8681 120.19 26.6481 123.43 23.1581C125.42 21.3581 126.73 20.3081 126.78 20.2681L132.03 16.0781L128.23 21.6181C128.23 21.6181 127.43 22.7781 126.36 24.3081C125.72 25.2181 124.92 26.4181 123.98 27.7981C123.35 28.7281 122.67 29.7481 121.94 30.8181L115.03 40.8981L63.06 89.4481L63.04 89.4581ZM120.71 29.0481C119.03 30.8781 117.38 32.6981 115.71 34.5381C114.06 36.3481 112.39 38.1881 110.63 40.1081C109.11 41.5481 107.88 42.8081 106.77 43.9581L88.73 62.7281L113.57 39.5281L120.28 29.7081C120.43 29.4881 120.58 29.2681 120.72 29.0581L120.71 29.0481Z" fill="currentColor"/>
<path d="M71.7102 126.838C71.5102 126.838 71.3102 126.778 71.1502 126.668L70.5602 126.258C70.1802 125.988 69.8502 125.758 69.5002 125.548L69.2202 125.368C68.8802 125.158 68.5602 124.948 68.2802 124.878C66.4302 124.388 64.9702 123.348 63.7702 122.398C63.4102 122.108 63.0202 121.848 62.6002 121.568C62.3002 121.368 62.0002 121.168 61.7202 120.968L61.3102 120.678C60.7702 120.298 60.2202 119.908 59.7202 119.418C58.7702 118.468 57.6902 117.868 56.4202 117.588C56.1502 117.538 55.9002 117.488 55.6502 117.338C54.6102 116.748 53.4202 116.498 52.1602 116.238C51.2902 116.058 50.4002 115.878 49.5302 115.568C48.4302 115.178 47.3302 114.738 46.2702 114.308C45.0202 113.808 43.7402 113.288 42.4502 112.858C42.0902 112.738 41.8302 112.518 41.6502 112.368C41.6102 112.338 41.5802 112.308 41.5402 112.278C41.3102 112.118 41.1602 111.868 41.1302 111.598C41.0702 111.318 40.9702 110.878 41.2802 110.468C42.0702 109.428 42.5102 108.198 42.9902 106.888C43.4002 105.758 43.8202 104.588 44.4902 103.498C44.7102 103.148 44.7002 103.028 44.7002 103.028C44.7002 103.028 44.6602 102.898 44.2702 102.588C43.2402 101.768 42.6002 100.738 42.1902 99.2378C42.0802 98.8478 41.8002 98.3878 41.4102 97.9478C40.6502 97.0978 39.9402 96.1278 39.9002 94.7678C39.8802 94.1478 39.7102 93.7478 39.3002 93.3778C38.3202 92.4878 38.0702 91.3178 37.9602 90.2878C37.9002 89.7478 37.8002 89.0678 37.5302 88.6878C36.7502 87.5778 36.3202 86.4378 36.2202 85.2178C36.2002 84.9278 36.1702 84.5878 36.1102 84.4878C34.9702 82.5678 34.6402 80.4978 34.3202 78.4878C34.2102 77.8178 34.1102 77.1478 33.9702 76.4878C33.8102 75.7378 33.8802 74.8278 34.1702 73.9978C34.3602 73.4378 34.3102 73.1778 34.1302 72.8778C33.8502 72.4078 33.5302 71.7678 33.4602 71.0678C33.2502 69.0078 33.1402 67.4178 33.1002 65.9178C33.0802 65.2478 33.0602 64.5278 33.2502 63.8078C33.1302 63.5278 33.0502 63.1778 33.1302 62.8378C33.2602 62.3078 33.6302 61.9778 33.9902 61.6578C34.1202 61.5378 34.2702 61.4078 34.4302 61.2478C34.6702 61.0078 35.0102 60.8978 35.3402 60.9678C35.6702 61.0378 35.9502 61.2578 36.0702 61.5778C36.1502 61.7878 36.2502 61.9778 36.3302 62.1378C36.5702 62.6178 36.8402 63.1678 36.5902 63.7678C36.3302 64.4078 35.6502 64.7578 35.0802 64.8978C35.0702 65.1578 35.0802 65.4478 35.0802 65.7778C35.1202 67.3178 35.2302 68.8578 35.4302 70.8678C35.4702 71.2278 35.7502 71.7178 35.8402 71.8778C36.4802 72.9778 36.2802 73.9378 36.0402 74.6478C35.8702 75.1278 35.8202 75.6778 35.9102 76.0778C36.0502 76.7678 36.1702 77.4678 36.2802 78.1678C36.5802 80.0678 36.8702 81.8678 37.8202 83.4578C38.1202 83.9578 38.1602 84.5178 38.2002 84.9678C38.2802 85.9178 38.5802 86.7078 39.1602 87.5378C39.6802 88.2878 39.8502 89.2378 39.9402 90.0678C40.0402 91.0078 40.2502 91.5378 40.6402 91.8978C41.4502 92.6378 41.8602 93.5578 41.8902 94.7178C41.9102 95.3978 42.2802 95.9478 42.8902 96.6178C43.3102 97.0878 43.8702 97.8278 44.1102 98.7078C44.4102 99.7978 44.8302 100.488 45.5202 101.038C46.8402 102.088 47.0502 103.178 46.2002 104.558C45.6402 105.478 45.2602 106.498 44.8702 107.588C44.4502 108.748 44.0102 109.948 43.3202 111.058C44.5602 111.478 45.8102 111.988 47.0202 112.468C48.0602 112.888 49.1402 113.318 50.2102 113.698C50.9502 113.958 51.7402 114.128 52.5802 114.298C53.9302 114.578 55.3302 114.868 56.6502 115.618C56.6302 115.608 56.6802 115.618 56.7202 115.618L56.8702 115.648C58.5002 116.008 59.9402 116.808 61.1502 118.018C61.5202 118.388 61.9802 118.718 62.4702 119.058L62.9002 119.368C63.1702 119.558 63.4402 119.748 63.7202 119.928C64.1502 120.218 64.6002 120.518 65.0302 120.858C66.1102 121.718 67.3102 122.578 68.8002 122.968C69.3802 123.118 69.8702 123.428 70.3002 123.708L70.5502 123.868C70.8202 124.038 71.0902 124.208 71.3702 124.408C71.6402 123.928 71.8702 123.508 71.9502 123.108C72.2902 121.568 73.0402 120.338 73.7802 119.148L74.0302 118.738C74.8202 117.448 75.7602 116.798 77.1902 116.558C77.4602 116.518 77.7302 116.488 78.0002 116.458C78.2802 116.428 78.5602 116.408 78.8402 116.348C79.3802 116.238 79.9102 116.108 80.4402 115.978C80.8802 115.868 81.3302 115.758 81.7702 115.668C82.3502 115.538 82.9402 115.438 83.5202 115.378C83.9302 115.328 84.3502 115.298 84.7602 115.258C85.4202 115.208 86.0402 115.148 86.6502 115.048C87.3202 114.938 88.0302 114.748 88.9502 114.438C91.2002 113.678 93.4402 112.878 95.6802 112.078C95.7502 112.048 95.8702 111.978 95.9802 111.898C96.0702 111.838 96.1502 111.788 96.2402 111.738C97.0402 111.258 97.8902 110.908 98.7002 110.558C99.9402 110.038 101.1 109.548 102.03 108.688C102.25 108.488 102.47 108.438 102.57 108.408C103.88 107.978 105.02 107.178 106.23 106.328C106.22 106.298 106.21 106.258 106.19 106.228C106.16 106.138 106.12 106.028 106.07 105.898C105.93 105.558 105.99 105.178 106.22 104.898C106.45 104.618 106.81 104.478 107.17 104.538C107.3 104.558 107.42 104.578 107.52 104.588C107.79 104.618 108.13 104.648 108.43 104.868C108.64 104.748 108.86 104.628 109.08 104.518C109.11 104.498 109.2 104.398 109.26 104.328C109.38 104.198 109.5 104.068 109.64 103.958C109.85 103.778 110.08 103.608 110.3 103.448L111.48 102.548C111.53 102.508 111.58 102.468 111.63 102.428L111.48 102.298C111.78 101.948 112.24 101.678 112.73 101.568C113.05 101.318 113.36 101.068 113.68 100.818L114.92 102.388C114.76 102.508 114.61 102.638 114.45 102.758C114.54 103.058 114.56 103.408 114.38 103.738L113.68 103.358C113.35 103.618 113.01 103.878 112.68 104.128L111.47 105.048C111.28 105.188 111.09 105.338 110.9 105.488C110.83 105.548 110.77 105.618 110.71 105.678C110.53 105.878 110.3 106.128 109.96 106.298C109.08 106.748 108.26 107.328 107.4 107.928C106.12 108.828 104.8 109.758 103.2 110.298C102.06 111.298 100.73 111.858 99.4402 112.398C98.6502 112.728 97.9002 113.048 97.2202 113.448L97.0402 113.568C96.8502 113.698 96.6102 113.848 96.3102 113.958C94.0602 114.758 91.8102 115.568 89.5502 116.338C88.5102 116.688 87.7002 116.898 86.9302 117.028C86.2402 117.138 85.5502 117.198 84.8802 117.258C84.4902 117.288 84.0902 117.328 83.7002 117.368C83.1902 117.428 82.6702 117.518 82.1602 117.628C81.7302 117.718 81.3002 117.828 80.8702 117.928C80.3102 118.068 79.7602 118.198 79.2002 118.318C78.8602 118.388 78.5002 118.428 78.1502 118.458C77.9202 118.478 77.6902 118.498 77.4702 118.538C76.6302 118.678 76.1802 118.988 75.7002 119.778L75.4402 120.198C74.7702 121.298 74.1302 122.328 73.8602 123.538C73.7002 124.258 73.3502 124.888 73.0002 125.498C72.8602 125.758 72.7102 126.018 72.5702 126.298C72.4402 126.558 72.2102 126.748 71.9302 126.828C71.8502 126.848 71.7602 126.858 71.6802 126.858L71.7102 126.838ZM112.55 103.238C112.61 103.288 112.7 103.358 112.83 103.408L112.55 103.168C112.55 103.168 112.55 103.218 112.55 103.238ZM99.1302 105.258C99.0302 105.258 98.9202 105.238 98.8202 105.208C98.5302 105.118 98.2902 104.888 98.1902 104.598C98.1502 104.488 98.1002 104.388 98.0602 104.288C97.9002 103.938 97.6102 103.288 98.1302 102.748C98.4202 102.448 98.7602 102.308 99.0202 102.208C99.0802 102.188 99.1402 102.158 99.2002 102.138C99.4602 102.018 99.7502 102.018 100.01 102.128C100.27 102.238 100.47 102.458 100.56 102.718C100.57 102.758 100.6 102.798 100.61 102.838C100.73 103.098 100.93 103.518 100.78 104.018C100.63 104.528 100.21 104.758 99.9302 104.918C99.8502 104.958 99.7702 105.008 99.6802 105.068C99.5102 105.178 99.3202 105.238 99.1202 105.238L99.1302 105.258ZM104.67 102.358C104.6 102.358 104.53 102.358 104.45 102.338C103.97 102.248 103.63 101.948 103.34 101.688C103.24 101.598 103.13 101.498 103.01 101.408C102.75 101.208 102.61 100.888 102.63 100.558C102.65 100.228 102.83 99.9278 103.11 99.7578C103.24 99.6778 103.36 99.5878 103.47 99.5078C103.83 99.2478 104.33 98.8778 104.95 99.1178C105.42 99.3078 105.71 99.6678 105.92 99.9378C105.97 100.008 106.02 100.068 106.08 100.128C106.27 100.328 106.36 100.598 106.34 100.868C106.32 101.138 106.19 101.398 105.98 101.568C105.93 101.608 105.88 101.658 105.83 101.718C105.59 101.958 105.22 102.348 104.67 102.348V102.358ZM96.1002 99.9378C96.1002 99.9378 96.0002 99.9378 95.9502 99.9378C95.2502 99.8778 94.9602 99.2978 94.7302 98.8278C94.6602 98.6778 94.5702 98.5078 94.4802 98.3478C94.3102 98.0678 94.2902 97.7378 94.4202 97.4378C94.5502 97.1478 94.8102 96.9278 95.1202 96.8578C95.2902 96.8178 95.4502 96.7678 95.5902 96.7278C96.0202 96.5978 96.5002 96.4578 97.0202 96.6178C97.7302 96.8378 98.0002 97.7078 98.0702 97.9678C98.2002 98.4678 98.1202 98.8678 97.8302 99.1678C97.4502 99.5678 96.7802 99.9478 96.0902 99.9478L96.1002 99.9378ZM109.76 99.4878C109.76 99.4878 109.71 99.4878 109.68 99.4878C109.04 99.4478 108.66 98.9878 108.32 98.5678C108.2 98.4278 108.07 98.2678 107.92 98.1078C107.69 97.8678 107.59 97.5278 107.66 97.1978C107.73 96.8678 107.96 96.5978 108.27 96.4778C108.47 96.3978 108.65 96.3178 108.8 96.2478C109.23 96.0478 109.68 95.8378 110.21 95.9078C110.87 96.0078 111.29 96.6478 111.44 96.9178C111.69 97.3678 111.73 97.7778 111.56 98.1378C111.3 98.7078 110.58 99.4878 109.75 99.4878H109.76ZM101.31 97.2078C101.2 97.2078 101.09 97.1878 100.99 97.1578C100.74 97.0678 100.53 96.8878 100.41 96.6378C100.37 96.5478 100.31 96.4578 100.26 96.3778C100.03 96.0078 99.7202 95.4878 99.8402 94.8778C99.9702 94.2478 100.48 93.9378 100.94 93.6778C101.08 93.5978 101.24 93.4978 101.4 93.3878C101.65 93.2078 101.96 93.1578 102.25 93.2378C102.54 93.3178 102.78 93.5278 102.9 93.8078C102.98 93.9978 103.08 94.1778 103.16 94.3478C103.44 94.8778 103.78 95.5378 103.31 96.1478C102.97 96.5978 102.47 96.8078 102.08 96.9678C101.97 97.0078 101.87 97.0578 101.77 97.1078C101.63 97.1778 101.47 97.2178 101.31 97.2178V97.2078ZM57.0802 88.6678C56.8102 88.6678 56.5502 88.5578 56.3602 88.3678L55.4202 87.4078C55.2302 87.2178 55.1302 86.9578 55.1402 86.6878C55.1502 86.4178 55.2602 86.1678 55.4602 85.9778L56.5602 84.9378C56.7502 84.7578 57.0102 84.6478 57.2802 84.6678C57.5502 84.6678 57.8002 84.7878 57.9802 84.9878C58.0402 85.0578 58.1202 85.1178 58.2002 85.1978C58.5802 85.5378 59.1502 86.0478 58.8902 86.7878C58.7202 87.2778 58.4102 87.6478 58.1302 87.9678C58.0402 88.0678 57.9602 88.1678 57.8702 88.2778C57.6902 88.5078 57.4302 88.6478 57.1302 88.6678C57.1102 88.6678 57.0902 88.6678 57.0702 88.6678H57.0802ZM40.5502 75.4078C40.4702 75.4078 40.4002 75.4078 40.3202 75.3878C39.6802 75.2978 39.4202 74.7678 39.2202 74.3778C39.1602 74.2678 39.1002 74.1378 39.0202 74.0078C38.8502 73.7278 38.8302 73.3778 38.9702 73.0678C39.1102 72.7678 39.3902 72.5578 39.7102 72.4978C39.8702 72.4678 40.0102 72.4378 40.1402 72.4078C40.5302 72.3178 40.9602 72.2078 41.4302 72.3678C42.0602 72.5778 42.2302 73.1978 42.3302 73.5678C42.3502 73.6378 42.3702 73.7078 42.3902 73.7678C42.4902 74.0278 42.4802 74.3178 42.3602 74.5678C42.2402 74.8178 42.0202 75.0078 41.7602 75.0878C41.6902 75.1078 41.6102 75.1378 41.5302 75.1678C41.2702 75.2678 40.9402 75.4078 40.5502 75.4078ZM47.7702 74.0278C47.6602 74.0278 47.5502 74.0078 47.4502 73.9778C47.1302 73.8678 46.8802 73.6078 46.8002 73.2778C46.7002 72.8978 46.5902 72.5478 46.4802 72.2478C46.2102 71.4578 45.9602 70.7078 46.4202 70.0778C47.0402 69.1978 48.4302 69.0678 49.1502 69.1278C49.6302 69.1678 50.0302 69.4878 50.3602 70.1078C50.6302 70.6078 50.8802 71.3178 50.5702 71.9078C50.2702 72.4578 49.7802 72.8178 49.2102 73.2178C48.9702 73.3878 48.7002 73.5778 48.4002 73.8178C48.2202 73.9578 48.0002 74.0378 47.7802 74.0378L47.7702 74.0278ZM48.2402 71.1778C48.2602 71.2478 48.2802 71.3178 48.3102 71.3878C48.4402 71.2978 48.5502 71.2078 48.6402 71.1278C48.6402 71.1278 48.6402 71.1178 48.6402 71.1078C48.5002 71.1178 48.3602 71.1478 48.2502 71.1778H48.2402ZM37.7102 70.0178C37.6102 70.0178 37.5102 70.0178 37.4102 69.9878C36.9802 69.8978 36.6802 69.6478 36.3902 69.4078C36.2802 69.3178 36.1502 69.2078 36.0002 69.0978C35.6902 68.8778 35.5402 68.4978 35.6102 68.1178C35.6802 67.7378 35.9402 67.4378 36.3102 67.3278C36.6602 67.2178 36.9402 67.1278 37.1502 67.0478C37.6902 66.8578 38.2902 66.6378 38.8002 67.1478C39.1402 67.4778 39.2602 67.8978 39.3502 68.2078C39.3702 68.2778 39.3902 68.3578 39.4202 68.4278C39.5202 68.6878 39.5002 68.9678 39.3802 69.2178C39.2602 69.4678 39.0402 69.6478 38.7802 69.7278C38.7202 69.7478 38.6702 69.7678 38.6102 69.7978C38.3902 69.8878 38.0902 70.0178 37.7302 70.0178H37.7102ZM43.0302 67.2978C42.8502 67.2978 42.6902 67.2778 42.5302 67.2178C41.9502 67.0278 41.6702 66.5278 41.4302 66.0978C41.3502 65.9478 41.2502 65.7778 41.1402 65.6178C40.9602 65.3578 40.9202 65.0278 41.0202 64.7278C41.1202 64.4278 41.3602 64.1978 41.6602 64.0978C41.8602 64.0378 42.0402 63.9578 42.1902 63.8978C42.6402 63.7078 43.1002 63.5178 43.6402 63.6378C44.2602 63.7678 44.7502 64.1678 44.9802 64.7178C45.2102 65.2578 45.1502 65.8778 44.8202 66.3978C44.4802 66.9278 43.7102 67.2878 43.0402 67.2878L43.0302 67.2978ZM63.7002 65.4978C63.4202 65.4978 63.1502 65.4378 62.9102 65.2578C61.7302 64.3878 60.8202 62.7378 60.8002 61.4178C60.7802 60.4478 61.7002 59.8878 62.8502 59.1878C63.3102 58.9078 63.8302 58.5978 64.3302 58.2378C64.5902 58.0478 64.9202 57.9978 65.2202 58.0978C65.5202 58.1978 65.7602 58.4278 65.8602 58.7278C66.0402 59.2678 66.2402 59.7578 66.4302 60.2078C66.8902 61.3078 67.2802 62.2578 67.0902 63.2478C66.8802 64.3778 65.1502 65.1078 64.8102 65.2478C64.4902 65.3678 64.1002 65.4978 63.7002 65.4978ZM62.8102 61.5878C62.9102 62.1978 63.3502 62.9678 63.8702 63.4578C64.2602 63.3378 64.9102 62.9878 65.1302 62.7578C65.1402 62.3378 64.8802 61.6978 64.5702 60.9678C64.5202 60.8378 64.4602 60.7078 64.4002 60.5678C64.2202 60.6778 64.0402 60.7878 63.8702 60.8978C63.5002 61.1178 63.0202 61.4078 62.8002 61.5978L62.8102 61.5878ZM55.0102 50.3878C54.0302 50.3878 53.3102 49.5878 52.4102 48.5678C52.0202 48.1278 51.5702 47.6278 51.0602 47.1378C50.8202 46.9078 50.7002 46.5678 50.7602 46.2378C50.8202 45.9078 51.0402 45.6278 51.3502 45.4978C52.0002 45.2178 52.5702 44.9278 53.0602 44.6778C54.1902 44.0978 55.0702 43.6378 56.0602 43.7778C57.1402 43.9178 58.1102 45.2578 58.4702 45.9478C58.6002 46.1878 58.9802 46.9178 58.6602 47.5678C58.0902 48.6978 56.6102 50.3178 55.0802 50.3878C55.0502 50.3878 55.0302 50.3878 55.0002 50.3878H55.0102ZM53.4402 46.7278C53.6002 46.9078 53.7502 47.0778 53.9002 47.2378C54.3102 47.6978 54.8602 48.3178 55.0802 48.3978C55.4102 48.3678 56.2502 47.6878 56.7302 46.9278C56.5302 46.5378 56.0002 45.8678 55.7202 45.7478C55.4402 45.7378 54.7602 46.0578 53.9702 46.4678C53.8002 46.5578 53.6202 46.6478 53.4402 46.7378V46.7278ZM70.9702 41.8378C70.6002 41.8378 70.2202 41.7878 69.8502 41.6778C68.3002 41.2478 67.1702 39.9778 66.9702 38.4478C66.9002 37.8978 66.9302 37.4178 67.0602 36.9778C67.5002 35.4878 70.1202 34.1678 71.6402 34.3678C72.8802 34.5278 73.9002 35.2078 74.4302 36.2178C74.9902 37.2978 74.9502 38.6078 74.3202 39.8278C74.2102 40.0478 74.0702 40.2478 73.9002 40.4578C73.1802 41.3478 72.1202 41.8378 70.9802 41.8378H70.9702ZM71.2502 36.3478C70.4802 36.3478 69.1202 37.1578 68.9702 37.5578C68.9202 37.7178 68.9202 37.9278 68.9502 38.1878C69.0702 39.0778 69.7702 39.5778 70.3902 39.7578C71.1602 39.9678 71.8802 39.7578 72.3302 39.1978C72.4102 39.0978 72.4802 38.9978 72.5302 38.9078C72.8602 38.2778 72.9002 37.6378 72.6502 37.1478C72.4202 36.7078 71.9802 36.4378 71.3802 36.3578C71.3402 36.3578 71.3002 36.3578 71.2602 36.3578L71.2502 36.3478Z" fill="currentColor"/>
</svg>
