<svg width="322" height="55" viewBox="0 0 322 55" fill="none" xmlns="http://www.w3.org/2000/svg">
<path d="M235.43 36.668H131.74V38.418H235.43V36.668Z" fill="currentColor"/>
<path d="M234.541 40.5983L239.831 37.5483L234.541 34.4883V40.5983Z" fill="currentColor"/>
<path d="M258.46 32.3086H88V34.0586H258.46V32.3086Z" fill="currentColor"/>
<path d="M256.961 38.3291L265.871 33.1891L256.961 28.0391V38.3291Z" fill="currentColor"/>
<path d="M197.139 22.1211H93.4492V23.8711H197.139V22.1211Z" fill="currentColor"/>
<path d="M196.238 26.0514L201.528 22.9914L196.238 19.9414V26.0514Z" fill="currentColor"/>
<path d="M272.93 25.418H38.9805V27.168H272.93V25.418Z" fill="currentColor"/>
<path d="M270.941 33.0983L282.721 26.2883L270.941 19.4883V33.0983Z" fill="currentColor"/>
<path d="M249.27 18.0508H80.3398V19.8008H249.27V18.0508Z" fill="currentColor"/>
<path d="M247.77 24.0813L256.68 18.9313L247.77 13.7812V24.0813Z" fill="currentColor"/>
</svg>
