<svg width="129" height="131" viewBox="0 0 129 131" fill="none" xmlns="http://www.w3.org/2000/svg">
<path d="M99.1288 95.6598C110.269 82.9998 112.499 65.4398 106.459 50.2098C105.409 51.1798 103.869 52.5198 101.239 54.7898C100.789 55.2498 100.329 55.6998 99.8688 56.1298C99.3988 56.5598 98.9188 56.9798 98.4388 57.3798C97.8588 57.8898 97.2688 58.3398 96.7988 58.8798C95.8588 59.9498 95.1588 60.7498 95.1588 60.7498L92.7288 63.5098L90.3488 66.2198C90.0088 66.6098 89.7388 67.0198 89.4688 67.4598C88.9288 68.8798 88.1888 70.1598 87.3088 71.3498C86.8688 71.9398 86.3988 72.5098 86.2588 72.7898C85.4088 73.6098 84.8788 74.1398 86.7688 73.7298C83.8188 75.1698 83.2588 75.6798 87.4388 81.2698C86.3788 80.3498 85.5088 79.6298 84.7788 79.0998C84.0488 78.5698 83.4488 78.2098 83.5888 77.8498C82.4288 77.8298 82.0088 77.7998 83.2688 77.3798C81.2188 78.0198 80.8688 78.2598 83.6188 78.3798C83.1388 78.4698 82.7188 78.5498 82.3488 78.6398C82.7288 78.6098 83.1488 78.5998 83.6388 78.5798C83.0488 78.5998 82.5588 78.6398 82.1488 78.6898C81.9288 78.7498 81.7288 78.8098 81.5588 78.8798C81.0488 79.0898 80.7088 79.3498 80.5488 79.7298C80.4788 79.8598 80.4288 79.9998 80.3988 80.1498C80.3988 80.4298 80.4688 80.7598 80.6588 81.1398C80.6488 81.1898 80.6388 81.2398 80.6288 81.2898C80.6288 81.3098 80.6488 81.3198 80.6588 81.3398C80.6288 81.4298 80.6088 81.5298 80.5888 81.6198C80.5388 82.3198 80.6988 83.1598 80.8988 84.1898C80.6388 83.1498 80.4588 82.3198 80.5888 81.6198C80.5888 81.4998 80.6088 81.3898 80.6288 81.2798C80.3888 80.8298 80.3388 80.4598 80.3988 80.1398C80.3988 79.8998 80.4488 79.6898 80.5388 79.5098C80.7088 79.1398 81.0388 78.9198 81.5388 78.7898C81.7188 78.7398 81.9288 78.7098 82.1488 78.6798C82.2188 78.6598 82.2788 78.6398 82.3588 78.6298C81.9888 78.6598 81.6588 78.6998 81.3788 78.7598C80.8188 78.8898 80.4388 79.0998 80.2888 79.4298C79.9888 79.8498 79.9188 80.3898 80.4688 81.0698C80.3888 81.2098 80.3388 81.3598 80.2988 81.4998C80.3088 81.4998 80.3188 81.4998 80.3288 81.5098C80.3088 81.5298 80.2988 81.5598 80.2788 81.5898C80.0788 82.3398 80.2288 83.2098 80.4488 84.2798C80.0488 83.1098 79.7688 82.2398 80.2788 81.5898C80.2788 81.5598 80.2988 81.5298 80.2988 81.4998C79.9188 81.3198 79.6488 81.1598 79.4888 81.0198C79.3988 81.0698 79.3088 81.1198 79.2188 81.1698C79.3588 81.2198 79.5388 81.2798 79.7588 81.3398C77.9488 82.1398 77.6888 82.9898 78.0088 85.3098C77.6788 82.9198 77.8088 82.0098 79.2088 81.1798C79.0488 81.1198 78.9488 81.0598 78.8888 80.9998C78.6788 80.9998 78.5088 80.9898 78.3988 80.9698C78.2688 81.0598 78.1388 81.1398 78.0188 81.2298C78.1488 81.2098 78.3088 81.1798 78.4888 81.1498C78.3888 81.1898 78.2988 81.2298 78.2088 81.2698C78.3488 81.2598 78.5088 81.2398 78.6888 81.2198C78.1288 81.4398 77.7088 81.6398 77.3788 81.8998C77.5488 81.8698 77.7288 81.8498 77.9488 81.8498C77.7388 81.8498 77.5488 81.8698 77.3788 81.8998C77.2888 81.9698 77.2188 82.0398 77.1388 82.1198C76.6488 82.7898 76.3388 83.6798 75.9388 85.1598C76.3088 83.5298 76.5788 82.6898 77.1388 82.1198C77.1888 82.0498 77.2388 81.9798 77.2888 81.9198C77.1088 81.9698 76.9488 82.0398 76.7888 82.1598C76.4488 82.4898 76.1788 82.9198 75.8788 83.5198C75.6988 83.8898 75.4988 84.3298 75.2688 84.8798C75.4988 84.3398 75.6888 83.8998 75.8788 83.5198C76.2188 82.8098 76.4888 82.3998 76.7888 82.1598C76.8288 82.1198 76.8788 82.0798 76.9188 82.0398C76.2788 82.3298 75.8288 83.0398 74.8988 84.6898C75.8388 82.7498 75.7888 82.7898 74.8688 84.6598C75.4588 83.1698 75.1688 83.4998 74.0688 85.0998C74.3288 84.4598 73.8088 85.0398 73.2788 85.6698C72.9488 86.0298 72.5888 86.4298 72.3388 86.7098L71.9488 87.1498C71.9488 87.1498 72.0488 86.9698 72.2088 86.6598C72.3688 86.3498 72.6088 85.8998 72.8388 85.4398C73.1888 84.8398 73.5188 84.2098 72.8888 84.2798C74.0588 83.2098 74.2488 82.8698 72.7788 83.1398C74.5288 82.2098 74.6388 81.8998 72.8588 81.3298C74.5088 81.2998 74.9888 81.1198 74.5288 80.2998C74.2888 80.2098 73.8388 79.9898 73.1588 79.6598C73.5788 79.7498 73.9288 79.8098 74.2188 79.8398C74.1388 79.7298 74.0488 79.6198 73.9488 79.4898C74.0888 79.6298 74.2188 79.7398 74.3188 79.8498C75.1388 79.8898 75.4688 79.6098 75.4888 78.8798C75.3688 79.1598 74.8688 78.9198 73.8988 78.3498C74.5988 78.5698 75.1088 78.6498 75.4788 78.5998C75.4788 78.4498 75.4588 78.2998 75.4288 78.1198C75.4788 78.3098 75.4988 78.4698 75.5088 78.5998C75.9188 78.5298 76.1388 78.2898 76.2388 77.8598C76.0988 77.9798 75.6588 77.6998 74.8888 77.2598C76.0888 77.6098 76.7188 77.6798 76.8988 77.2798C77.0088 77.2998 76.6688 76.8398 75.9188 76.0098C77.4288 76.9298 77.8788 77.0698 77.3088 76.3598C77.1088 76.1598 76.8088 75.8498 76.3988 75.4298C77.2688 76.6498 77.0788 76.4998 76.1088 75.4498C76.5888 76.1498 76.2788 75.9498 75.6388 75.4098C75.4988 75.3198 75.0488 74.9498 74.5988 74.5898C73.2588 73.4998 71.9688 72.4798 71.0588 70.8798C69.7488 68.5798 68.3688 66.4598 66.4988 64.5698C64.9188 63.2798 63.1688 62.1698 61.2988 61.2998C59.9488 60.6598 58.5488 60.1698 57.1088 59.7998C56.3888 59.6198 55.6588 59.4698 55.2488 59.6598C54.1888 59.2298 53.4488 59.1498 53.1288 60.5398C51.9688 59.0398 51.2188 59.0198 49.7888 60.2298C49.7288 59.0398 48.9888 59.0798 48.0788 59.2798C47.5088 59.2298 46.7688 59.3298 46.0288 59.4598C44.5588 59.7198 43.1188 60.0998 41.7188 60.5898C42.9488 59.8298 44.2988 59.2398 45.7188 58.7398C46.4288 58.4898 47.1588 58.2598 47.5388 58.1998C48.6488 57.8398 49.3988 57.6398 48.1788 58.5198C50.9188 57.2398 51.6888 57.0398 54.8388 58.6698C53.2188 56.6398 53.9888 56.4398 56.5488 56.1598C55.4988 55.9998 56.2488 55.7598 57.0288 55.5198C57.7288 55.2398 58.4588 54.9498 59.1688 54.6298C59.5188 54.4698 59.8688 54.2998 59.8188 54.2798C60.4488 53.9898 60.7788 53.8098 60.3088 53.8898C60.2888 53.8898 60.2688 53.9098 60.2488 53.9098C60.2188 53.9298 60.1788 53.9398 60.1488 53.9598C60.1688 53.9498 60.1888 53.9398 60.2188 53.9298C60.2088 53.9298 60.1988 53.9398 60.1788 53.9498C60.2188 53.9298 60.2488 53.9198 60.2788 53.8998C60.1988 53.9098 60.0888 53.9298 59.9588 53.9598C60.5488 53.7298 60.9788 53.5398 61.2288 53.4398C61.4088 53.3498 61.5688 53.2598 61.7088 53.1898C61.9288 53.0498 62.0588 52.9398 62.0888 52.8398C62.0388 52.7498 61.8888 52.6698 61.6188 52.5998C61.5788 52.6198 61.5288 52.6398 61.4688 52.6598C61.1688 52.7898 60.6288 52.9098 59.8788 53.0498C60.5988 52.9098 61.1388 52.7798 61.4688 52.6598C61.5188 52.6398 61.5688 52.6198 61.5988 52.5898C61.3488 52.5198 61.0088 52.4498 60.5688 52.3798C60.4488 52.3698 60.3388 52.3598 60.2088 52.3498C60.2888 52.3498 60.3688 52.3498 60.4488 52.3598C60.3988 52.3598 60.3488 52.3398 60.2888 52.3298C60.8588 52.3298 61.3288 52.3298 61.7088 52.2998C61.5788 52.1098 61.0988 51.8798 60.2388 51.5498C60.4788 51.5898 60.6888 51.6198 60.8888 51.6398C60.7288 51.5698 60.5488 51.4898 60.3488 51.4098C61.1488 51.5798 61.7388 51.6998 62.1488 51.7398C62.4588 51.7398 62.6388 51.6698 62.6888 51.5498C62.4788 51.2598 62.0388 50.8598 61.3888 50.2998C61.6388 50.4398 61.8588 50.5598 62.0588 50.6698C61.9088 50.5298 61.7288 50.3598 61.5388 50.1898C61.2188 50.2398 60.8588 50.2498 60.4188 50.2298C60.2188 50.2998 60.0088 50.3598 59.7888 50.4298C60.0388 50.3498 60.2688 50.2698 60.4888 50.1898C60.4188 50.1898 60.3488 50.1898 60.2788 50.1998C60.3688 50.1998 60.4488 50.1898 60.5288 50.1798C60.7288 50.1098 60.9088 50.0298 61.0888 49.9498C61.0488 49.9398 61.0188 49.9298 60.9788 49.9198C61.0188 49.9198 61.0588 49.9398 61.0988 49.9498C61.8288 49.5998 62.3588 49.1298 62.6288 48.2998C62.8388 48.4198 63.0388 48.5098 63.2088 48.5698C63.2388 48.4398 63.2588 48.3098 63.2788 48.1598C63.3188 48.1998 63.3588 48.2298 63.3988 48.2598C63.4088 48.2198 63.4188 48.1798 63.4288 48.1398C63.4288 48.1398 63.4388 48.1498 63.4488 48.1598C63.4488 48.1298 63.4688 48.0998 63.4788 48.0698C63.4988 48.0798 63.5188 48.0998 63.5488 48.1098C63.5488 48.1098 63.5588 48.0898 63.5688 48.0798C63.6388 48.1298 63.7088 48.1798 63.7788 48.2198C63.9088 48.2698 64.0188 48.2998 64.1288 48.2998C64.1488 48.2298 64.1688 48.1598 64.1888 48.0898C64.2188 48.1498 64.2488 48.2098 64.2688 48.2598C64.3588 48.1298 64.4288 47.9398 64.4888 47.7298C64.6288 47.4998 64.6088 47.0698 64.4388 46.5698C64.0888 45.5798 63.0988 44.3598 61.4888 42.4398C62.1288 43.0598 62.6688 43.5798 63.1288 43.9898C62.6988 43.5498 62.2188 43.0598 61.6788 42.5198C62.7588 43.5498 63.6288 44.3598 64.3288 44.9598C63.8888 44.3398 63.2988 43.6098 62.5588 42.7098C63.8388 44.0998 64.6388 44.9098 65.0788 45.1998C65.1988 44.9398 64.9188 44.0898 64.3888 42.7698C64.7488 43.3698 65.0088 43.7498 65.1988 43.9798C65.0788 43.6398 64.9288 43.2498 64.7588 42.7898C65.1588 43.5498 65.3988 43.9898 65.5488 44.1798C65.5588 44.1598 65.5688 44.1298 65.5788 44.0798C65.3588 43.7198 65.1288 43.3098 64.8688 42.8398C65.1288 43.2798 65.3688 43.6698 65.5888 44.0198C65.5988 43.7698 65.5388 43.2898 65.4388 42.6598C65.6088 43.4598 65.7288 44.0298 65.7188 44.2198C66.3188 45.1598 66.7788 45.7398 67.1788 45.9898C67.2688 45.8198 67.3488 45.5898 67.4188 45.3098C67.2888 45.3098 67.1488 45.1898 66.9988 44.9298C66.9688 44.8898 66.9488 44.8298 66.9188 44.7798C66.9188 44.7598 66.8988 44.7498 66.8988 44.7398C66.8588 44.6598 66.8188 44.5798 66.7788 44.4798C66.7788 44.4798 66.7788 44.4698 66.7788 44.4598C66.7388 44.3798 66.7088 44.2898 66.6688 44.1998C66.6588 44.1698 66.6388 44.1398 66.6288 44.0998C66.6388 44.1298 66.6588 44.1598 66.6688 44.1998C66.7088 44.2898 66.7388 44.3798 66.7788 44.4598C66.7788 44.4598 66.7788 44.4698 66.7788 44.4798C66.8188 44.5698 66.8588 44.6598 66.8988 44.7398C66.8988 44.7598 66.9188 44.7698 66.9188 44.7798C66.9488 44.8298 66.9788 44.8798 66.9988 44.9298C67.1888 45.2398 67.3388 45.2898 67.4788 45.0298C67.5088 44.8698 67.5388 44.6998 67.5688 44.5098C67.3988 44.1098 67.2188 43.5498 67.0288 42.8398C67.2488 43.5198 67.4488 44.0598 67.6688 44.4398C67.7188 44.2198 67.7588 43.9598 67.7988 43.6398C67.7988 44.0098 67.7988 44.3398 67.7888 44.6298C67.8188 44.6698 67.8388 44.6998 67.8688 44.7398C67.9588 44.5098 68.0488 44.2298 68.1488 43.8598C68.1188 44.2798 68.0988 44.6398 68.0788 44.9598C68.1288 44.9998 68.1788 45.0298 68.2288 45.0598C68.2988 44.8998 68.3688 44.7298 68.4488 44.5398C68.4088 44.7498 68.3688 44.9298 68.3388 45.1098C68.3488 45.1098 68.3588 45.1098 68.3688 45.1098C68.5788 45.0098 68.8188 44.7298 69.1088 44.2498C69.0188 44.5598 68.9488 44.8298 68.8788 45.0798C68.9088 45.0798 68.9388 45.0598 68.9588 45.0498C68.9988 44.9898 69.0488 44.9298 69.0888 44.8598C69.0688 44.9198 69.0488 44.9698 69.0288 45.0198C69.2488 44.9098 69.4988 44.7398 69.7788 44.4898C69.2188 46.4698 69.6288 46.4998 71.1888 45.6198C70.9388 45.8298 70.9088 45.8598 71.0388 45.7798C70.9888 45.7798 71.1288 45.6798 71.4788 45.4398C70.9788 45.7298 71.3888 45.4798 72.0488 45.0498C71.5788 45.3898 71.1888 45.6798 71.0288 45.7798C71.0788 45.7798 71.3388 45.6598 71.7688 45.4498C71.9888 45.4098 72.8688 45.0198 74.1788 44.4598C72.9888 44.9098 72.2188 45.1798 71.9588 45.2398C71.4888 45.4298 71.5388 45.3998 72.0488 45.1898C72.4388 45.0598 73.2988 44.7498 74.5488 44.3098C71.1388 45.2598 71.3088 45.0798 74.7588 44.0498C71.6488 44.7298 71.8188 44.5498 74.9288 43.5998C72.3688 43.9798 72.7488 43.5998 75.1188 42.6798C73.4988 42.8198 73.8788 42.4198 75.1988 41.7698C74.6188 41.6398 74.9888 41.2398 75.4788 40.8098C75.7288 40.4498 76.0988 40.0498 76.4588 39.6498C77.9188 38.0298 79.3388 36.3698 80.7088 34.6498C82.0388 32.9498 74.1988 23.8598 75.4688 22.0998C75.5488 21.9898 75.6888 21.9498 75.8888 21.9398C59.4388 16.8998 41.2488 21.1498 29.6088 34.3798C13.4988 52.6898 16.0188 81.2498 35.2488 98.1798C54.4788 115.11 83.1288 113.99 99.2488 95.6798L99.1288 95.6598Z" fill="currentColor"/>
</svg>
