<svg width="129" height="177" viewBox="0 0 129 177" fill="none" xmlns="http://www.w3.org/2000/svg">
<path d="M20.7692 66.0586C20.7692 74.0286 22.8892 81.5086 26.5992 87.9586C26.9392 88.5486 27.2892 89.1186 27.6492 89.6886C28.9592 92.2186 39.0892 108.919 41.0692 110.239C45.6692 112.869 41.4592 100.769 45.0592 105.439C45.5492 105.839 46.0592 106.109 46.5692 106.299C49.6292 107.439 52.9492 107.759 55.8392 109.029C56.5892 109.239 61.4692 141.999 62.2192 142.139C64.4092 142.469 62.4892 110.059 64.7692 110.059C71.5692 110.059 78.0092 108.519 83.7592 105.759C84.3992 105.449 85.0292 105.129 85.6692 104.949C86.8292 104.059 89.7792 154.899 91.0892 154.239C97.0092 150.289 94.0592 92.8786 101.129 90.8286C101.529 90.2486 101.909 89.6586 102.279 89.0586C104.859 84.8586 106.749 80.1886 107.809 75.2086C107.829 74.5286 107.839 73.8586 107.829 73.1786C106.329 73.7786 104.179 74.5686 100.499 75.8986C99.8492 76.1986 99.1792 76.4886 98.5192 76.7486C97.8492 77.0086 97.1792 77.2586 96.5092 77.4786C95.6892 77.7886 94.8992 78.0186 94.1892 78.3986C92.7692 79.1386 91.7092 79.6986 91.7092 79.6986L88.0392 81.6186C88.0392 81.6186 86.4992 82.4286 84.4392 83.5086C83.9292 83.7786 83.4792 84.1086 83.0092 84.4586C81.8692 85.7386 80.5692 86.7786 79.1692 87.6786C78.4692 88.1286 77.7392 88.5286 77.4792 88.7686C76.2492 89.2886 75.4892 89.6386 77.6292 89.9586C73.9392 90.2886 73.1592 90.5886 75.2992 98.1486C74.5592 96.7586 73.9292 95.6486 73.3792 94.7886C72.8192 93.9286 72.3392 93.3186 72.6292 92.9986C71.4192 92.5086 70.9892 92.3086 72.4892 92.3786C70.0792 92.2186 69.6092 92.3386 72.4592 93.5686C71.9192 93.4686 71.4392 93.3886 71.0192 93.3286C71.4292 93.4486 71.8792 93.6086 72.3892 93.7886C71.7592 93.5786 71.2392 93.4186 70.7792 93.3086C70.5292 93.2886 70.2892 93.2686 70.0792 93.2686C69.4592 93.2786 68.9892 93.4186 68.6692 93.7586C68.5392 93.8686 68.4292 93.9886 68.3392 94.1386C68.2292 94.4386 68.1692 94.8086 68.2192 95.2786C68.1892 95.3286 68.1592 95.3786 68.1292 95.4286C68.1292 95.4486 68.1292 95.4686 68.1292 95.4886C68.0592 95.5786 67.9992 95.6686 67.9392 95.7586C67.5992 96.4786 67.4292 97.4186 67.2392 98.5786C67.3892 97.3886 67.5292 96.4386 67.9392 95.7586C67.9992 95.6386 68.0592 95.5286 68.1192 95.4186C68.0492 94.8486 68.1392 94.4386 68.3292 94.1286C68.4292 93.8686 68.5692 93.6686 68.7292 93.5286C69.0592 93.2086 69.4892 93.1086 70.0792 93.1786C70.2892 93.1986 70.5192 93.2486 70.7692 93.3086C70.8492 93.3086 70.9292 93.3186 71.0092 93.3286C70.5992 93.2086 70.2492 93.1186 69.9292 93.0686C69.2892 92.9786 68.8092 93.0486 68.5092 93.3386C68.0292 93.6586 67.7292 94.1986 68.0392 95.1286C67.8992 95.2486 67.7892 95.3786 67.6792 95.5186C67.6792 95.5186 67.6992 95.5386 67.7092 95.5486C67.6792 95.5686 67.6492 95.5886 67.6192 95.6086C67.1092 96.3186 66.9092 97.2886 66.7092 98.5086C66.7592 97.1186 66.8192 96.0886 67.6192 95.6086C67.6392 95.5786 67.6592 95.5486 67.6792 95.5186C67.3492 95.1686 67.1292 94.8986 67.0192 94.6886C66.8992 94.6986 66.7892 94.7186 66.6792 94.7386C66.8092 94.8486 66.9692 94.9786 67.1792 95.1286C64.9592 95.2486 64.3392 96.0286 63.7492 98.5986C64.3592 95.9586 64.8692 95.0486 66.6792 94.7386C66.5392 94.6086 66.4492 94.5086 66.4092 94.4186C66.1892 94.3286 66.0192 94.2486 65.8992 94.1886C65.7192 94.2286 65.5592 94.2686 65.3992 94.3086C65.5492 94.3386 65.7192 94.3686 65.9292 94.4086C65.8092 94.4086 65.6892 94.4086 65.5792 94.4186C65.7292 94.4586 65.9092 94.5086 66.0992 94.5586C65.4192 94.5586 64.8992 94.6086 64.4492 94.7386C64.6392 94.7686 64.8392 94.8286 65.0592 94.9186C64.8292 94.8386 64.6292 94.7786 64.4392 94.7486C64.3192 94.7886 64.2092 94.8286 64.0992 94.8786C63.3192 95.3886 62.6192 96.1986 61.6192 97.5886C62.6692 96.0286 63.2892 95.2486 64.0992 94.8786C64.1792 94.8286 64.2592 94.7786 64.3392 94.7286C64.1292 94.6986 63.9292 94.7286 63.7192 94.7786C63.2292 94.9886 62.7692 95.3286 62.2092 95.8386C61.8692 96.1586 61.4892 96.5386 61.0192 97.0186C61.4792 96.5386 61.8592 96.1586 62.2092 95.8386C62.8492 95.2286 63.2992 94.8986 63.7192 94.7786C63.7792 94.7486 63.8392 94.7286 63.8992 94.7086C63.1092 94.7586 62.3492 95.3186 60.7092 96.6886C62.4792 95.0286 62.4092 95.0586 60.6792 96.6486C61.8992 95.3186 61.4592 95.5486 59.6592 96.7886C60.1892 96.2186 59.4092 96.6286 58.5892 97.0686C58.0992 97.3086 57.5592 97.5886 57.1892 97.7886C56.8192 97.9886 56.6092 98.0986 56.6092 98.0986C56.6092 98.0986 56.7792 97.9486 57.0792 97.6886C57.3792 97.4286 57.8092 97.0586 58.2292 96.6586C58.8392 96.1686 59.4392 95.6386 58.7492 95.4586C60.4092 94.8086 60.7392 94.5186 59.0892 94.2186C61.3092 93.9386 61.5392 93.6586 59.8992 92.3486C61.6492 92.9886 62.2292 92.9886 62.0692 91.9286C61.8492 91.7386 61.4692 91.3286 60.8892 90.6986C61.2892 90.9686 61.6292 91.1686 61.9292 91.3086C61.8892 91.1586 61.8392 91.0086 61.7892 90.8386C61.8892 91.0386 61.9692 91.2086 62.0392 91.3586C62.8892 91.7386 63.3392 91.5686 63.6492 90.8086C63.4092 91.0586 62.9792 90.6086 62.1992 89.6086C62.8492 90.1186 63.3492 90.4186 63.7592 90.5086C63.8092 90.3486 63.8592 90.1786 63.8992 89.9786C63.8692 90.1986 63.8392 90.3786 63.7992 90.5186C64.2492 90.6086 64.5792 90.4486 64.8592 90.0286C64.6692 90.0986 64.3192 89.6286 63.6792 88.8586C64.7992 89.7086 65.4292 90.0386 65.7792 89.6886C65.8892 89.7486 65.7192 89.1286 65.2592 87.9586C66.4792 89.5386 66.8992 89.8586 66.5792 88.8786C66.4492 88.5886 66.2592 88.1386 65.9992 87.5386C66.4292 89.1786 66.2892 88.9386 65.6892 87.4386C65.9092 88.3686 65.6692 88.0386 65.2092 87.2086C65.0992 87.0586 64.7692 86.4886 64.4492 85.9286C63.4792 84.2486 62.5392 82.6486 62.2192 80.5986C61.7692 77.6586 61.1692 74.8686 59.9592 72.1286C58.8192 70.1386 57.4192 68.2686 55.8092 66.5986C54.6492 65.3886 53.3792 64.2986 52.0092 63.3386C51.3292 62.8586 50.6192 62.4086 50.1092 62.4486C49.1692 61.5686 48.4292 61.1886 47.5292 62.5186C46.9092 60.4786 46.1392 60.1486 44.1392 60.8386C44.5592 59.5686 43.7592 59.3086 42.7192 59.1486C42.1392 58.8586 41.3192 58.6686 40.4892 58.5086C38.8392 58.1886 37.1692 58.0086 35.4992 57.9586C37.0992 57.6586 38.7592 57.5786 40.4492 57.6286C41.2992 57.6486 42.1592 57.7086 42.5792 57.7886C43.8892 57.8486 44.7592 57.9486 43.1192 58.3886C46.5192 58.1486 47.3992 58.2486 50.0592 61.2286C49.1692 58.4486 50.0592 58.5386 52.8692 59.2786C51.8292 58.6886 52.7192 58.7386 53.6392 58.7986C54.4892 58.7886 55.3692 58.7786 56.2392 58.7186C56.6792 58.6886 57.1092 58.6486 57.0592 58.6086C57.8292 58.5586 58.2592 58.5086 57.7392 58.3886C57.7192 58.3886 57.6992 58.3886 57.6692 58.3886C57.6292 58.3886 57.5892 58.3886 57.5492 58.3886C57.5792 58.3886 57.6092 58.3886 57.6292 58.3886C57.6092 58.3886 57.5992 58.3886 57.5792 58.3886C57.6192 58.3886 57.6592 58.3886 57.7092 58.3886C57.6192 58.3686 57.4992 58.3486 57.3492 58.3286C58.0592 58.3286 58.5892 58.2986 58.8892 58.2886C59.1092 58.2686 59.3192 58.2386 59.4892 58.2186C59.7792 58.1586 59.9592 58.0886 60.0292 57.9986C60.0192 57.8886 59.8792 57.7386 59.6392 57.5586C59.5892 57.5586 59.5292 57.5586 59.4592 57.5586C59.0892 57.5686 58.4792 57.4786 57.6292 57.3286C58.4492 57.4686 59.0592 57.5586 59.4592 57.5586C59.5192 57.5586 59.5792 57.5586 59.6292 57.5386C59.3992 57.3686 59.0692 57.1586 58.6292 56.8986C58.5092 56.8386 58.3992 56.7786 58.2592 56.7186C58.3492 56.7586 58.4192 56.7886 58.4992 56.8286C58.4492 56.7986 58.3992 56.7686 58.3492 56.7386C58.9492 56.9686 59.4492 57.1486 59.8492 57.2786C59.7892 57.0286 59.3792 56.5886 58.5992 55.8986C58.8292 56.0286 59.0392 56.1486 59.2392 56.2586C59.0992 56.1186 58.9392 55.9686 58.7592 55.7986C59.5292 56.2986 60.1092 56.6686 60.5192 56.8786C60.8492 56.9986 61.0692 57.0086 61.1692 56.8986C61.0592 56.5086 60.7692 55.9086 60.3092 55.0586C60.5192 55.2986 60.6992 55.5186 60.8592 55.7086C60.7592 55.4986 60.6392 55.2586 60.5092 54.9886C60.1592 54.9086 59.7692 54.7786 59.3192 54.5786C59.0792 54.5686 58.8292 54.5486 58.5792 54.5386C58.8692 54.5586 59.1492 54.5686 59.4092 54.5686C59.3292 54.5486 59.2592 54.5186 59.1792 54.4986C59.2692 54.5286 59.3592 54.5486 59.4492 54.5786C59.6892 54.5786 59.9092 54.5786 60.1292 54.5586C60.0992 54.5286 60.0692 54.5086 60.0292 54.4786C60.0692 54.5086 60.1092 54.5286 60.1392 54.5486C61.0492 54.4686 61.7992 54.1986 62.4092 53.4286C62.5892 53.6386 62.7492 53.8086 62.9092 53.9486C62.9892 53.8186 63.0692 53.6886 63.1492 53.5386C63.1792 53.5986 63.2092 53.6486 63.2392 53.6986C63.2692 53.6586 63.2892 53.6286 63.3192 53.5886C63.3192 53.5986 63.3192 53.6086 63.3292 53.6186C63.3492 53.5886 63.3692 53.5686 63.3992 53.5386C63.4192 53.5586 63.4392 53.5786 63.4492 53.6086C63.4492 53.6086 63.4692 53.5986 63.4792 53.5886C63.5292 53.6686 63.5892 53.7486 63.6392 53.8186C63.7492 53.9186 63.8592 53.9986 63.9692 54.0386C64.0192 53.9786 64.0692 53.9086 64.1192 53.8386C64.1192 53.9186 64.1292 53.9886 64.1392 54.0586C64.2892 53.9586 64.4392 53.7886 64.5792 53.5886C64.8092 53.4086 64.9692 52.9386 64.9892 52.3486C65.0192 51.1686 64.4792 49.4886 63.5492 46.8186C63.9692 47.7286 64.3292 48.4886 64.6492 49.1086C64.3692 48.4686 64.0592 47.7586 63.7192 46.9786C64.4392 48.4986 65.0292 49.6986 65.5292 50.6186C65.3192 49.7886 64.9892 48.7886 64.5792 47.5486C65.3592 49.5286 65.8792 50.6986 66.2192 51.1786C66.4592 50.9486 66.4992 49.9486 66.4692 48.3486C66.6092 49.1186 66.7292 49.6386 66.8292 49.9486C66.8392 49.5486 66.8492 49.0686 66.8492 48.5186C66.9592 49.4786 67.0492 50.0386 67.1192 50.2986C67.1392 50.2786 67.1692 50.2486 67.1892 50.2086C67.1092 49.7386 67.0292 49.2086 66.9392 48.6186C67.0392 49.1886 67.1292 49.6986 67.2192 50.1486C67.3392 49.8886 67.4592 49.3586 67.6092 48.6586C67.4692 49.5686 67.3692 50.2186 67.2792 50.4086C67.5392 51.6486 67.7792 52.4386 68.0992 52.8686C68.2692 52.7286 68.4392 52.5186 68.6292 52.2486C68.4892 52.1986 68.3992 52.0086 68.3392 51.6786C68.3292 51.6186 68.3192 51.5586 68.3092 51.4886C68.3092 51.4686 68.3092 51.4486 68.3092 51.4286C68.3092 51.3286 68.2892 51.2186 68.2892 51.1086C68.2892 51.1086 68.2892 51.0986 68.2892 51.0886C68.2892 50.9886 68.2892 50.8786 68.2892 50.7686C68.2892 50.7286 68.2892 50.6886 68.2892 50.6486C68.2892 50.5986 68.2892 50.5486 68.2892 50.4986C68.2892 50.0886 68.2892 49.6186 68.3192 49.0786C68.2992 49.6286 68.2892 50.0986 68.2892 50.4986C68.2892 50.5486 68.2892 50.5986 68.2892 50.6486C68.2892 50.6886 68.2892 50.7286 68.2892 50.7686C68.2892 50.8786 68.2892 50.9886 68.2892 51.0886C68.2892 51.0886 68.2892 51.0986 68.2892 51.1086C68.2892 51.2286 68.2992 51.3386 68.3092 51.4286C68.3092 51.4486 68.3092 51.4686 68.3092 51.4886C68.3092 51.5586 68.3292 51.6186 68.3392 51.6786C68.4092 52.0886 68.5592 52.1986 68.7992 51.9786C68.8992 51.8186 68.9992 51.6486 69.1092 51.4686C69.0892 50.9786 69.1292 50.3186 69.2092 49.4886C69.1692 50.2986 69.1592 50.9386 69.2292 51.4286C69.3692 51.2186 69.5192 50.9586 69.6892 50.6486C69.5392 51.0386 69.3992 51.3786 69.2792 51.6886C69.2892 51.7386 69.2992 51.7886 69.3192 51.8286C69.5092 51.6286 69.7192 51.3586 69.9692 51.0086C69.7692 51.4386 69.5992 51.8086 69.4492 52.1286C69.4892 52.1886 69.5192 52.2486 69.5692 52.2986C69.7092 52.1586 69.8492 52.0086 70.0092 51.8386C69.8792 52.0386 69.7692 52.2186 69.6592 52.3886C69.6592 52.3886 69.6792 52.3986 69.6892 52.4086C69.9492 52.3786 70.3092 52.1886 70.8092 51.8086C70.5892 52.0986 70.3992 52.3586 70.2292 52.5786C70.2592 52.5786 70.2992 52.5786 70.3292 52.5786C70.3992 52.5286 70.4692 52.4786 70.5492 52.4286C70.4992 52.4786 70.4692 52.5286 70.4192 52.5786C70.6992 52.5586 71.0292 52.4686 71.4192 52.3286C70.0392 54.1786 70.4492 54.3786 72.4392 54.0886C72.0892 54.2086 72.0492 54.2286 72.2092 54.1986C72.1592 54.1786 72.3392 54.1286 72.8092 54.0186C72.1692 54.1286 72.6992 54.0186 73.5692 53.8386C72.9392 54.0086 72.4092 54.1486 72.2092 54.1986C72.2692 54.2186 72.5792 54.1986 73.1192 54.1486C73.3692 54.1886 74.4492 54.1486 76.0492 54.0786C74.6192 54.0686 73.6892 54.0486 73.3992 54.0086C72.8292 54.0086 72.8892 54.0086 73.5092 53.9886C73.9792 54.0086 74.9992 54.0286 76.4892 54.0686C72.5192 53.6986 72.7692 53.5786 76.8092 53.8786C73.2692 53.3386 73.5192 53.2186 77.1692 53.4786C74.3292 52.8486 74.8792 52.5986 77.7392 52.5886C75.9892 52.0786 76.5392 51.8186 78.1892 51.6586C77.6292 51.2886 78.1892 51.0186 78.8692 50.7586C79.2792 50.4786 79.8292 50.2086 80.3692 49.9286C82.5492 48.8186 84.7192 47.6386 86.8592 46.3886C88.9492 45.1386 84.3692 32.4186 86.3992 31.0886C86.5192 31.0086 86.6992 31.0186 86.9092 31.0886C81.9592 27.2186 76.4192 24.3086 70.5992 22.4586C68.6692 22.1986 66.7092 22.0586 64.7092 22.0586C40.4092 22.0586 20.6992 41.7586 20.6992 66.0686L20.7692 66.0586Z" fill="currentColor"/>
</svg>
