<svg width="220" height="93" viewBox="0 0 220 93" fill="none" xmlns="http://www.w3.org/2000/svg">
<path d="M46.5109 46.4697C52.5509 51.0497 61.7309 51.0097 68.8909 52.4597C77.3309 54.1697 86.1909 56.2397 94.8109 54.5897C97.8309 54.0097 100.201 52.7197 101.681 50.5697C103.661 48.4297 106.661 43.4297 101.661 41.4297C93.5309 38.9897 53.0109 38.6597 44.5409 36.7797C30.6109 34.8397 17.7409 27.9797 4.37094 25.9297C4.15094 26.0197 3.93094 26.0997 3.71094 26.1897C5.45094 28.7297 44.6109 45.0297 46.5109 46.4697Z" fill="currentColor"/>
<path d="M67.0584 61.3697C57.6484 62.4297 48.6484 59.4297 41.1384 63.2897C39.5684 64.5697 38.8384 66.6097 37.9884 69.1097C37.8184 70.2697 37.7384 71.3497 37.5684 72.3897C37.3984 73.4297 37.1484 74.4297 37.1484 75.1497C38.3484 74.8197 40.0484 74.4297 41.7584 74.1997C46.8784 73.5197 52.0384 74.2697 57.2684 74.5397C65.1984 74.9397 73.1584 74.5397 81.0684 73.8497C93.3584 72.7797 105.488 68.9597 106.658 54.4297C100.278 57.4297 93.7684 59.1597 87.1584 60.1497C80.5484 61.1297 73.8384 61.3697 67.0684 61.3697H67.0584Z" fill="currentColor"/>
<path d="M170.059 47.1603C163.409 43.5203 154.339 44.9203 147.039 44.5503C138.439 44.1103 129.369 43.3803 121.099 46.2803C118.199 47.3003 116.049 48.9303 114.899 51.2803C113.259 53.6903 111.039 59.0803 116.279 60.3103C124.679 61.5203 164.799 55.8403 173.459 56.4403C187.519 56.2903 201.269 61.1703 214.789 61.2103C214.989 61.0903 215.199 60.9803 215.399 60.8603C213.299 58.6103 172.159 48.3003 170.069 47.1503L170.059 47.1603Z" fill="currentColor"/>
<path d="M147.531 35.4584C156.681 33.0184 166.021 34.6484 172.881 29.7184C174.241 28.2184 174.661 26.0984 175.141 23.4884C175.141 22.3184 175.061 21.2384 175.071 20.1884C175.081 19.1384 175.181 18.1084 175.071 17.3984C173.931 17.9084 172.311 18.5384 170.651 19.0184C165.691 20.4484 160.481 20.4684 155.261 20.9884C147.361 21.7684 139.541 23.3384 131.831 25.1984C119.831 28.0784 108.401 33.6484 109.401 48.1984C115.261 44.2884 121.451 41.6084 127.841 39.6484C134.231 37.6984 140.841 36.4684 147.521 35.4584H147.531Z" fill="currentColor"/>
</svg>
