<svg width="724" height="136" viewBox="0 0 724 136" fill="none" xmlns="http://www.w3.org/2000/svg">
<path d="M84.5806 85.2516C90.0506 88.1616 97.4506 86.9216 103.421 87.1516C110.451 87.4216 117.871 87.9316 124.611 85.4716C126.971 84.6116 128.711 83.2516 129.621 81.3216C130.931 79.3416 132.701 74.9116 128.401 73.9516C121.531 73.0516 88.7906 78.0916 81.7106 77.6916C70.2206 77.9516 58.9406 74.1016 47.8906 74.2116C47.7206 74.3116 47.5606 74.4016 47.3906 74.5016C49.1306 76.3216 82.8506 84.3316 84.5706 85.2516H84.5806Z" fill="currentColor"/>
<path d="M103.12 94.5808C95.6697 96.6708 88.0197 95.4308 82.4597 99.5308C81.3597 100.771 81.0397 102.511 80.6797 104.641C80.6997 105.601 80.7697 106.481 80.7697 107.341C80.7697 108.201 80.6997 109.041 80.7897 109.621C81.7197 109.191 83.0397 108.661 84.3797 108.251C88.4197 107.031 92.6797 106.961 96.9397 106.491C103.39 105.771 109.76 104.411 116.05 102.821C125.82 100.341 135.11 95.6808 134.15 83.8008C129.4 87.0608 124.37 89.3108 119.17 90.9708C113.96 92.6308 108.58 93.7008 103.13 94.5908L103.12 94.5808Z" fill="currentColor"/>
<path d="M184.34 69.6005C178.5 67.5405 171.36 69.8605 165.43 70.5105C158.44 71.2805 151.02 71.8805 144.73 75.3105C142.52 76.5105 141 78.1105 140.39 80.1505C139.38 82.3105 138.3 86.9505 142.69 87.2605C149.62 87.1305 181.25 77.2905 188.31 76.6405C199.64 74.6805 211.36 76.8105 222.28 75.0705C222.43 74.9505 222.58 74.8305 222.73 74.7105C220.74 73.1705 186.2 70.2405 184.36 69.5905L184.34 69.6005Z" fill="currentColor"/>
<path d="M164.63 63.1309C171.69 59.9609 179.44 60.0509 184.33 55.1809C185.23 53.7909 185.3 52.0209 185.33 49.8609C185.17 48.9209 184.97 48.0609 184.84 47.2109C184.71 46.3609 184.66 45.5209 184.48 44.9609C183.63 45.5209 182.4 46.2409 181.13 46.8509C177.32 48.6509 173.11 49.3509 168.97 50.4509C162.7 52.1209 156.6 54.4109 150.62 56.9209C141.32 60.8209 132.83 66.8109 135.55 78.4109C139.76 74.4909 144.4 71.5109 149.3 69.1009C154.2 66.6909 159.37 64.8309 164.63 63.1409V63.1309Z" fill="currentColor"/>
<path d="M202.59 41.4019C206.33 46.3419 213.56 48.3419 218.87 51.0719C225.13 54.2819 231.64 57.8719 238.79 58.4819C241.29 58.6919 243.44 58.2019 245.09 56.8319C247.12 55.5919 250.59 52.3219 247.09 49.6419C241.24 45.9219 209.43 36.6919 203.18 33.3419C192.65 28.7319 184.04 20.4919 173.98 15.9219C173.79 15.9419 173.6 15.9619 173.41 15.9819C174.22 18.3619 201.42 39.8519 202.59 41.4019Z" fill="currentColor"/>
<path d="M215.459 57.6709C207.819 56.4209 201.409 52.0709 194.639 53.4509C193.119 54.1109 192.089 55.5509 190.869 57.3309C190.479 58.2009 190.179 59.0309 189.819 59.8209C189.459 60.6009 189.039 61.3309 188.879 61.9009C189.899 61.9009 191.319 61.9809 192.709 62.1709C196.879 62.7709 200.779 64.5009 204.839 65.8709C210.989 67.9409 217.339 69.3909 223.719 70.6009C233.629 72.4809 244.019 72.1609 248.149 60.9809C242.469 61.9309 236.959 61.8509 231.539 61.1609C226.119 60.4709 220.789 59.1709 215.469 57.6809L215.459 57.6709Z" fill="currentColor"/>
<path d="M299.649 69.273C295.219 64.943 287.769 64.033 282.119 62.123C275.449 59.873 268.479 57.293 261.319 57.743C258.809 57.903 256.759 58.713 255.339 60.303C253.519 61.833 250.569 65.583 254.419 67.713C260.759 70.523 293.579 74.933 300.259 77.323C311.359 80.323 321.089 87.203 331.719 90.223C331.909 90.173 332.089 90.133 332.279 90.083C331.129 87.853 301.039 70.633 299.649 69.263V69.273Z" fill="currentColor"/>
<path d="M284.511 55.0927C292.251 55.1927 299.241 58.5527 305.721 56.1827C307.121 55.3027 307.931 53.7327 308.871 51.7827C309.121 50.8627 309.301 49.9927 309.541 49.1727C309.781 48.3427 310.091 47.5627 310.161 46.9827C309.151 47.1327 307.731 47.2727 306.331 47.2827C302.111 47.3127 298.011 46.1727 293.791 45.4227C287.401 44.2927 280.901 43.7927 274.421 43.5427C264.341 43.1527 254.121 45.0127 251.691 56.6727C257.171 54.8927 262.631 54.1527 268.091 54.0327C273.551 53.9127 279.021 54.4027 284.501 55.0927H284.511Z" fill="currentColor"/>
<path d="M321.301 48.6295C324.041 54.1995 330.801 57.5695 335.531 61.2695C341.101 65.6295 346.841 70.4195 353.791 72.3995C356.221 73.0895 358.441 73.0295 360.331 71.9995C362.571 71.1695 366.631 68.6295 363.701 65.3295C358.631 60.5495 328.981 45.3295 323.451 40.8295C313.931 34.2695 307.011 24.5095 297.951 18.0795C297.761 18.0595 297.561 18.0395 297.371 18.0195C297.711 20.5095 320.451 46.8695 321.311 48.6195L321.301 48.6295Z" fill="currentColor"/>
<path d="M330.881 67.0982C323.571 64.3882 318.071 58.8782 311.121 58.9182C309.491 59.2682 308.201 60.4882 306.651 61.9982C306.101 62.7782 305.641 63.5382 305.131 64.2282C304.621 64.9282 304.071 65.5582 303.801 66.0782C304.811 66.2782 306.201 66.6282 307.541 67.0882C311.551 68.4782 315.061 70.9382 318.821 73.0682C324.501 76.2882 330.501 78.9482 336.561 81.3582C345.991 85.1182 356.321 86.8182 362.561 76.6582C356.761 76.4882 351.331 75.3482 346.111 73.6182C340.891 71.8882 335.871 69.5882 330.901 67.0882L330.881 67.0982Z" fill="currentColor"/>
<path d="M411.84 94.7984C408.3 89.6884 401.11 87.3584 395.89 84.3884C389.74 80.8884 383.34 77.0084 376.18 76.0684C373.67 75.7384 371.49 76.1284 369.77 77.4184C367.67 78.5684 364.04 81.6784 367.44 84.5184C373.16 88.4984 404.75 99.1884 410.89 102.828C421.28 107.918 429.58 116.558 439.5 121.578C439.69 121.578 439.89 121.558 440.08 121.548C439.37 119.128 412.96 96.4084 411.84 94.7984Z" fill="currentColor"/>
<path d="M399.611 77.9395C407.241 79.5395 413.501 84.1795 420.361 83.1195C421.911 82.5295 423.011 81.1395 424.321 79.4095C424.751 78.5495 425.091 77.7395 425.491 76.9795C425.891 76.2195 426.341 75.4995 426.531 74.9495C425.501 74.8995 424.081 74.7595 422.691 74.4995C418.521 73.7095 414.681 71.7995 410.651 70.2495C404.551 67.8995 398.231 66.1495 391.871 64.6595C381.991 62.3295 371.521 62.1695 366.871 73.1395C372.621 72.4495 378.161 72.7795 383.591 73.7195C389.011 74.6595 394.321 76.1995 399.611 77.9395Z" fill="currentColor"/>
<path d="M430.481 72.4019C434.971 76.6719 442.431 77.4619 448.121 79.2819C454.821 81.4319 461.831 83.9119 468.981 83.3519C471.481 83.1519 473.531 82.3219 474.921 80.7019C476.721 79.1419 479.611 75.3519 475.721 73.2719C469.341 70.5619 436.451 66.6419 429.741 64.3519C418.601 61.5219 408.761 54.7919 398.091 51.9219C397.901 51.9719 397.721 52.0219 397.531 52.0719C398.711 54.2919 429.051 71.0519 430.471 72.4019H430.481Z" fill="currentColor"/>
<path d="M445.833 86.3608C438.093 86.3708 431.053 83.1208 424.603 85.5908C423.213 86.4908 422.433 88.0808 421.513 90.0408C421.273 90.9708 421.103 91.8308 420.883 92.6608C420.653 93.4908 420.363 94.2808 420.293 94.8608C421.303 94.7008 422.713 94.5408 424.123 94.5108C428.343 94.4208 432.463 95.5008 436.693 96.1808C443.103 97.2208 449.603 97.6208 456.083 97.7708C466.163 98.0108 476.363 96.0008 478.613 84.3008C473.163 86.1608 467.713 86.9808 462.253 87.1908C456.793 87.3908 451.323 86.9808 445.823 86.3708L445.833 86.3608Z" fill="currentColor"/>
<path d="M530.782 84.0922C525.702 80.5422 518.212 80.8622 512.312 79.9022C505.372 78.7722 498.061 77.3622 491.081 78.9722C488.631 79.5422 486.742 80.6722 485.602 82.4722C484.052 84.2822 481.762 88.4622 485.912 89.9322C492.622 91.6722 525.732 90.6722 532.702 91.9422C544.142 93.0922 554.862 98.2922 565.842 99.5422C566.022 99.4622 566.191 99.3922 566.371 99.3122C564.871 97.2922 532.382 85.2122 530.782 84.0922Z" fill="currentColor"/>
<path d="M513.532 72.5628C521.182 71.4028 528.622 73.5728 534.642 70.1828C535.882 69.0928 536.422 67.4028 537.032 65.3328C537.132 64.3828 537.172 63.5028 537.272 62.6428C537.372 61.7928 537.552 60.9628 537.532 60.3828C536.562 60.6928 535.182 61.0628 533.802 61.3028C529.642 62.0228 525.412 61.5628 521.122 61.5128C514.632 61.4328 508.142 62.0028 501.712 62.8228C491.712 64.0828 481.922 67.5828 481.422 79.4828C486.532 76.8328 491.802 75.2128 497.172 74.2028C502.542 73.1928 508.012 72.7928 513.542 72.5728L513.532 72.5628Z" fill="currentColor"/>
<path d="M537.931 57.5599C543.491 60.2999 550.851 58.8399 556.821 58.8799C563.851 58.9399 571.291 59.2199 577.941 56.5599C580.271 55.6299 581.971 54.2199 582.831 52.2599C584.081 50.2399 585.711 45.7599 581.391 44.9299C574.491 44.2399 541.931 50.2799 534.841 50.0899C523.361 50.6999 511.971 47.1999 500.931 47.6399C500.771 47.7399 500.601 47.8399 500.441 47.9499C502.231 49.7099 536.181 56.6999 537.931 57.5599Z" fill="currentColor"/>
<path d="M556.741 66.3081C549.361 68.6181 541.671 67.6181 536.241 71.8781C535.181 73.1481 534.911 74.8981 534.621 77.0381C534.671 77.9981 534.771 78.8681 534.791 79.7281C534.821 80.5881 534.771 81.4281 534.881 82.0081C535.791 81.5481 537.101 80.9781 538.431 80.5281C542.431 79.1881 546.691 78.9881 550.931 78.3881C557.361 77.4681 563.681 75.9181 569.921 74.1381C579.611 71.3681 588.761 66.4181 587.431 54.5781C582.781 57.9781 577.821 60.3781 572.671 62.1981C567.521 64.0181 562.171 65.2481 556.741 66.3081Z" fill="currentColor"/>
<path d="M637.17 38.8707C631.27 36.9907 624.21 39.5207 618.29 40.3607C611.33 41.3507 603.93 42.1707 597.74 45.7907C595.57 47.0607 594.1 48.7007 593.55 50.7607C592.61 52.9507 591.66 57.6207 596.06 57.7907C602.98 57.4507 634.3 46.6507 641.33 45.7907C652.59 43.4807 664.38 45.2607 675.23 43.1807C675.38 43.0507 675.52 42.9307 675.67 42.8007C673.64 41.3207 639.02 39.4507 637.17 38.8607V38.8707Z" fill="currentColor"/>
<path d="M617.272 32.9987C624.232 29.6187 631.982 29.4688 636.712 24.4488C637.572 23.0388 637.582 21.2688 637.552 19.0988C637.362 18.1588 637.132 17.3087 636.982 16.4587C636.822 15.6087 636.742 14.7788 636.552 14.2188C635.722 14.8087 634.512 15.5687 633.262 16.2087C629.502 18.1287 625.322 18.9587 621.222 20.1788C615.002 22.0388 608.972 24.5088 603.072 27.1988C593.892 31.3787 585.592 37.6287 588.662 49.1387C592.752 45.0887 597.302 41.9787 602.122 39.4087C606.952 36.8487 612.052 34.8288 617.262 32.9888L617.272 32.9987Z" fill="currentColor"/>
</svg>
