<svg width="272" height="254" viewBox="0 0 272 254" fill="none" xmlns="http://www.w3.org/2000/svg">
<path d="M245.437 137.994C245.437 113.619 225.653 93.8633 201.254 93.8633C176.855 93.8633 157.071 113.624 157.071 137.994H245.442H245.437Z" fill="currentColor"/>
<path d="M157.066 115.93C157.066 140.304 176.85 160.06 201.249 160.06C225.648 160.06 245.432 140.3 245.432 115.93H157.062H157.066Z" fill="currentColor"/>
<path d="M226.564 64.2342C210.878 45.5643 183.008 43.1268 164.316 58.7949C145.624 74.463 143.184 102.3 158.871 120.969L226.564 64.2342Z" fill="currentColor"/>
<path d="M144.665 104.067C160.352 122.737 188.221 125.175 206.913 109.507C225.605 93.8385 228.045 66.0019 212.359 47.332L144.665 104.067Z" fill="currentColor"/>
<path d="M164.638 19.8465C140.605 15.6117 117.688 31.6402 113.453 55.6451C109.213 79.6499 125.26 102.54 149.294 106.77L164.638 19.8465Z" fill="currentColor"/>
<path d="M127.534 102.94C151.567 107.174 174.485 91.1458 178.72 67.1409C182.96 43.1361 166.912 20.2456 142.879 16.0156L127.534 102.94Z" fill="currentColor"/>
<path d="M88.6365 25.6016C67.5042 37.7889 60.2638 64.7814 72.4656 85.8887C84.6674 106.996 111.692 114.228 132.824 102.041L88.6365 25.6016Z" fill="currentColor"/>
<path d="M113.69 113.074C134.823 100.887 142.063 73.8946 129.861 52.7872C117.66 31.6798 90.6353 24.448 69.5029 36.6353L113.686 113.074H113.69Z" fill="currentColor"/>
<path d="M34.1224 78.8086C25.7758 101.713 37.5977 127.036 60.5295 135.373C83.4612 143.71 108.814 131.902 117.161 108.997L34.1224 78.8086Z" fill="currentColor"/>
<path d="M109.607 129.731C117.954 106.826 106.132 81.5028 83.1998 73.1661C60.2681 64.8294 34.9149 76.6374 26.5684 99.542L109.607 129.731Z" fill="currentColor"/>
<path d="M26.6016 154.568C34.9481 177.472 60.3013 189.28 83.233 180.943C106.165 172.607 117.987 147.284 109.64 124.379L26.6016 154.568Z" fill="currentColor"/>
<path d="M117.194 145.116C108.848 122.212 83.4944 110.404 60.5627 118.74C37.6309 127.077 25.809 152.4 34.1556 175.305L117.194 145.116Z" fill="currentColor"/>
<path d="M69.5928 217.427C90.7251 229.615 117.749 222.383 129.951 201.275C142.153 180.168 134.913 153.176 113.78 140.988L69.5975 217.427H69.5928Z" fill="currentColor"/>
<path d="M132.909 152.022C111.777 139.835 84.7523 147.067 72.5505 168.174C60.3488 189.281 67.5891 216.274 88.7215 228.461L132.904 152.022H132.909Z" fill="currentColor"/>
<path d="M142.98 237.984C167.013 233.749 183.056 210.864 178.821 186.859C174.581 162.854 151.668 146.83 127.635 151.06L142.98 237.984Z" fill="currentColor"/>
<path d="M149.389 147.227C125.356 151.461 109.313 174.347 113.548 198.352C117.788 222.357 140.701 238.381 164.734 234.151L149.389 147.227Z" fill="currentColor"/>
<path d="M212.425 206.61C228.112 187.94 225.672 160.104 206.98 144.436C188.288 128.767 160.418 131.205 144.731 149.875L212.425 206.61Z" fill="currentColor"/>
<path d="M158.932 132.969C143.245 151.639 145.686 179.475 164.378 195.143C183.07 210.811 210.939 208.374 226.626 189.704L158.932 132.969Z" fill="currentColor"/>
</svg>
