<svg width="232" height="243" viewBox="0 0 232 243" fill="none" xmlns="http://www.w3.org/2000/svg">
<path d="M191.117 200.206C191.117 158.618 157.483 124.91 116.003 124.91C74.5237 124.91 40.8896 158.626 40.8896 200.206H191.125H191.117Z" fill="currentColor"/>
<path d="M40.8818 42.9141C40.8818 84.5023 74.5159 118.21 115.996 118.21C157.475 118.21 191.109 84.4942 191.109 42.9141H40.8818Z" fill="currentColor"/>
<path d="M208.439 121.675L126.416 121.578" stroke="#8D8D8E" stroke-width="1.15" stroke-miterlimit="10"/>
<path d="M105.584 121.554L23.5527 121.449" stroke="#8D8D8E" stroke-width="1.15" stroke-miterlimit="10"/>
<path d="M115.786 220.694C119.869 220.694 123.18 217.376 123.18 213.283C123.18 209.189 119.869 205.871 115.786 205.871C111.703 205.871 108.393 209.189 108.393 213.283C108.393 217.376 111.703 220.694 115.786 220.694Z" stroke="#8D8D8E" stroke-width="1.15" stroke-miterlimit="10"/>
<path d="M115.714 223.714C119.797 223.714 123.107 220.395 123.107 216.302C123.107 212.209 119.797 208.891 115.714 208.891C111.631 208.891 108.32 212.209 108.32 216.302C108.32 220.395 111.631 223.714 115.714 223.714Z" stroke="#8D8D8E" stroke-width="1.15" stroke-miterlimit="10"/>
<path d="M116.278 34.1041C120.362 34.1041 123.672 30.7859 123.672 26.6927C123.672 22.5995 120.362 19.2812 116.278 19.2812C112.195 19.2812 108.885 22.5995 108.885 26.6927C108.885 30.7859 112.195 34.1041 116.278 34.1041Z" stroke="#8D8D8E" stroke-width="1.15" stroke-miterlimit="10"/>
<path d="M116.214 37.1315C120.297 37.1315 123.607 33.8133 123.607 29.72C123.607 25.6268 120.297 22.3086 116.214 22.3086C112.13 22.3086 108.82 25.6268 108.82 29.72C108.82 33.8133 112.13 37.1315 116.214 37.1315Z" stroke="#8D8D8E" stroke-width="1.15" stroke-miterlimit="10"/>
<path d="M115.956 214.773L116.085 132.543" stroke="#8D8D8E" stroke-width="1.15" stroke-miterlimit="10"/>
<path d="M116.117 111.659L116.246 29.4375" stroke="#8D8D8E" stroke-width="1.15" stroke-miterlimit="10"/>
</svg>
