<svg width="232" height="243" viewBox="0 0 232 243" fill="none" xmlns="http://www.w3.org/2000/svg">
<path d="M138.58 208.524C137.03 208.524 135.674 207.966 134.673 206.898C133.398 205.538 132.914 203.548 133.358 201.428C133.43 201.056 133.551 200.7 133.713 200.319C134.641 198.151 136.756 196.808 139.234 196.8C141.776 196.8 143.947 198.183 144.908 200.417C145.247 201.209 145.408 201.93 145.4 202.617C145.368 204.931 141.833 208.119 139.557 208.451C139.226 208.5 138.895 208.524 138.58 208.524ZM139.234 198.418C137.805 198.418 135.997 199.09 135.198 200.951C135.077 201.226 134.996 201.493 134.94 201.752C134.609 203.346 134.94 204.81 135.852 205.781C136.683 206.671 137.918 207.043 139.331 206.841C140.977 206.606 143.77 203.936 143.786 202.585C143.786 202.132 143.673 201.622 143.431 201.048C142.6 199.106 140.719 198.41 139.242 198.41L139.234 198.418ZM161.834 184.372C160.494 184.372 158.646 183.053 157.685 182.05C156.999 181.322 156.725 180.731 156.83 180.197C157.274 177.867 159.001 174.938 161.011 174.282C162.31 173.853 163.739 174.768 165.716 176.03C166.637 176.613 167.678 177.284 168.848 177.899C169.09 178.028 169.252 178.263 169.276 178.538C169.3 178.813 169.187 179.072 168.977 179.242C167.952 180.067 167.097 180.868 166.338 181.564C164.724 183.061 163.561 184.145 162.1 184.348C162.02 184.356 161.931 184.364 161.842 184.364L161.834 184.372ZM158.436 180.399C158.751 181.144 161.091 182.851 161.866 182.754C162.827 182.616 163.836 181.678 165.24 180.383C165.781 179.881 166.378 179.331 167.048 178.749C166.249 178.279 165.515 177.818 164.853 177.389C163.432 176.483 162.092 175.625 161.519 175.812C160.22 176.24 158.823 178.595 158.444 180.391L158.436 180.399ZM139.331 163.837C139.331 163.837 139.306 163.837 139.298 163.837C139.04 163.829 138.806 163.699 138.661 163.481C138.071 162.607 137.474 161.854 136.901 161.118C135.666 159.548 134.601 158.197 134.471 156.66C134.334 155.05 136.958 153.027 137.071 152.946C138.41 151.927 139.056 151.991 139.419 152.129C141.639 152.97 143.77 155.123 144.383 157.153C144.722 158.294 143.689 159.403 142.123 161.078C141.445 161.806 140.678 162.623 139.96 163.529C139.807 163.723 139.573 163.837 139.331 163.837ZM138.959 153.69C138.225 153.885 136.118 155.851 136.086 156.539C136.175 157.574 137.062 158.699 138.176 160.123C138.556 160.608 138.967 161.134 139.387 161.701C139.928 161.078 140.461 160.503 140.945 159.977C141.736 159.128 142.817 157.971 142.826 157.582C142.382 156.11 140.654 154.37 138.951 153.682L138.959 153.69ZM189.81 144.183C189.56 144.183 189.326 144.07 189.172 143.868C188.906 143.52 188.631 143.212 188.389 142.954C187.808 142.306 187.3 141.748 187.38 141.036C187.501 139.992 188.672 139.126 189.463 138.835C189.503 138.819 189.535 138.811 189.576 138.803C189.495 138.002 189.245 137.193 188.987 136.359L188.938 136.206C188.147 133.665 187.195 130.995 185.855 127.564C185.564 126.828 184.894 126.116 184.41 125.655C183.337 124.611 182.917 123.422 183.006 121.69C183.07 120.574 182.852 119.425 182.424 118.599C181.835 117.475 181.303 116.301 180.778 115.169C179.277 111.9 177.856 108.817 175.289 106.374C174.692 105.799 174.393 104.998 174.127 104.286L174.087 104.173C173.465 102.514 172.456 101.139 170.898 99.8604C169.792 98.9542 169.114 97.5139 168.598 96.2275C168.057 94.8762 167.363 93.5331 166.007 92.8535C164.465 92.0767 163.497 90.9035 162.956 89.1478C162.504 87.6833 161.398 86.7366 159.865 85.7738C158.985 85.2155 157.782 84.2931 157.031 83.0471C155.853 81.1052 154.642 79.9724 152.971 79.2685C150.631 78.2814 149.977 76.9787 150.639 74.6485C151.204 72.6662 151.349 70.6434 151.51 68.4993C151.696 65.9991 151.89 63.41 152.794 60.926C152.794 60.926 152.794 60.9179 152.794 60.9098C152.754 60.8936 152.721 60.8774 152.681 60.8613C152.439 60.748 152.188 60.6347 152.011 60.6266C149.485 60.5053 146.95 60.2221 144.496 59.9551C142.462 59.7366 140.364 59.502 138.297 59.3644C136.804 59.2673 135.311 59.3644 133.737 59.4777C131.316 59.6476 128.821 59.8256 126.303 59.2026C126.206 59.1783 126.029 59.2026 125.867 59.2026L125.617 59.2188C122.76 59.3806 120.112 58.7576 117.537 57.3093C116.633 56.7995 115.633 56.4516 114.575 56.0713C114.277 55.9662 113.97 55.861 113.671 55.7477C113.098 55.5373 112.517 55.3512 111.936 55.1651C111.056 54.8819 110.144 54.5907 109.272 54.2104C106.98 53.2394 104.276 52.2604 101.265 52.2928C100.337 52.3171 99.4491 52.042 98.5935 51.7831C98.416 51.7264 98.2384 51.6779 98.0608 51.6212C97.3102 51.4109 96.5918 51.16 95.7524 50.8688C95.6313 50.8283 95.5021 50.7798 95.3811 50.7393C95.3165 51.0225 95.2519 51.3057 95.1793 51.5808C94.9048 52.7297 94.6627 53.7168 94.7111 54.6635C94.8645 57.3578 94.2026 59.6881 93.5004 62.1558L93.2663 62.9892C92.6125 65.3518 91.4825 66.7111 89.3758 67.6982C88.9481 67.9005 88.5122 68.0704 88.0763 68.2403C87.5436 68.4507 87.0432 68.6449 86.567 68.8876C85.6791 69.3488 84.7831 69.8505 83.9195 70.344C83.2092 70.7486 82.4908 71.1531 81.7725 71.5334C80.8442 72.027 79.8999 72.4801 78.9636 72.8604C78.2775 73.1436 77.5833 73.4025 76.8892 73.6614C75.7995 74.0659 74.6776 74.4867 73.6283 74.9802C72.4821 75.5223 71.2553 76.2424 69.7701 77.2619C66.0733 79.8106 62.2474 82.5292 59.1802 84.7138C58.9704 84.8595 58.7686 85.0941 58.5587 85.3368C58.4457 85.4663 58.3327 85.5958 58.2197 85.7171C57.1059 86.8903 55.8306 87.9098 54.6037 88.8888C52.6342 90.4666 50.7697 91.9554 49.4863 94.051C49.3411 94.2856 49.1393 94.3989 49.0343 94.4636C46.7582 96.009 45.0954 98.0561 43.3278 100.224C43.1744 100.411 43.0291 100.597 42.8758 100.783C43.1018 100.977 43.2713 101.228 43.465 101.503C43.578 101.665 43.6991 101.843 43.8605 102.053C44.0381 102.288 44.0784 102.595 43.9654 102.87C43.8524 103.145 43.5941 103.323 43.3035 103.356C43.0291 103.38 42.795 103.42 42.5933 103.461C42.0847 103.55 41.6005 103.631 41.1565 103.356C41.0435 103.291 40.9547 103.202 40.8821 103.113C40.4059 103.631 39.9135 104.132 39.405 104.61C39.2436 104.755 39.1064 105.031 38.9611 105.322C38.84 105.557 38.7189 105.807 38.5575 106.05C38.2911 106.447 38.0006 106.819 37.71 107.199C37.5566 107.401 37.4033 107.604 37.2499 107.806L36.2329 109.173C36.0634 109.4 35.902 109.618 35.7325 109.845L36.0715 109.999C35.7809 110.622 35.1755 111.204 34.4894 111.528C34.0051 112.183 33.5289 112.838 33.0527 113.494L31.7451 112.547C32.1083 112.054 32.4635 111.56 32.8267 111.067C32.4635 110.694 32.0518 110.136 32.181 109.57L33.6742 109.918C33.7065 109.869 33.7388 109.829 33.7711 109.78C33.7711 109.699 33.7549 109.643 33.7388 109.618C33.7549 109.643 33.7791 109.683 33.8034 109.723C34.1827 109.214 34.554 108.712 34.9334 108.202L35.9504 106.835C36.1037 106.625 36.2652 106.414 36.4266 106.204C36.701 105.848 36.9674 105.5 37.2176 105.136C37.3306 104.966 37.4194 104.78 37.5163 104.594C37.71 104.205 37.9279 103.768 38.3073 103.42C39.6794 102.15 40.8902 100.653 42.0686 99.205C43.8282 97.0366 45.6443 94.7953 48.09 93.1367C48.1142 93.1205 48.1465 93.1043 48.1788 93.08C49.6074 90.8064 51.6334 89.1882 53.5947 87.6185C54.7813 86.6719 56.0081 85.6929 57.0494 84.5925C57.1462 84.4873 57.2431 84.374 57.3399 84.2607C57.5902 83.9694 57.8807 83.6458 58.244 83.3869C61.3192 81.2023 65.1451 78.4756 68.858 75.9188C70.4158 74.8508 71.7153 74.0821 72.9422 73.4996C74.0561 72.9817 75.2103 72.5448 76.3242 72.1322C77.0022 71.8813 77.6802 71.6224 78.3501 71.3473C79.2299 70.9832 80.1259 70.5625 81.0057 70.0932C81.716 69.7129 82.4182 69.3165 83.1204 68.92C84.0002 68.4264 84.9042 67.9167 85.8163 67.4393C86.3652 67.1561 86.9302 66.9377 87.479 66.7192C87.8826 66.5574 88.2862 66.4037 88.6817 66.2176C90.3525 65.4327 91.1758 64.4375 91.7004 62.5361L91.9345 61.6946C92.5964 59.3644 93.2179 57.1555 93.0807 54.7363C93.0161 53.5469 93.2905 52.398 93.5892 51.1843C93.7183 50.6503 93.8555 50.092 93.9605 49.5175C94.0008 49.291 94.1461 49.0887 94.3479 48.9673C94.5497 48.846 94.7918 48.8217 95.0178 48.9026C95.4618 49.0563 95.8734 49.1939 96.2689 49.3314C97.0761 49.6146 97.7783 49.8574 98.4886 50.0596C98.6742 50.1163 98.8599 50.1648 99.0455 50.2215C99.8204 50.4561 100.539 50.6746 101.225 50.6584C101.297 50.6584 101.378 50.6584 101.451 50.6584C104.639 50.6584 107.496 51.686 109.886 52.7054C110.701 53.0534 111.532 53.3204 112.42 53.6035C113.025 53.7977 113.623 53.9919 114.212 54.2104C114.503 54.3156 114.801 54.4207 115.092 54.5259C116.165 54.9062 117.279 55.2946 118.304 55.8771C120.605 57.1717 122.961 57.7219 125.504 57.5844L125.706 57.5682C125.98 57.5439 126.319 57.5196 126.666 57.6006C128.934 58.1588 131.203 57.997 133.6 57.8271C135.166 57.7138 136.78 57.6086 138.378 57.7138C140.469 57.8514 142.591 58.086 144.642 58.3126C147.071 58.5796 149.589 58.8547 152.067 58.976C152.56 59.0003 152.988 59.1945 153.327 59.3482C153.432 59.3968 153.536 59.4453 153.633 59.4777C153.843 59.5505 154.013 59.7123 154.101 59.9227C154.134 60.0117 154.182 60.0845 154.214 60.1492C154.352 60.392 154.553 60.7642 154.384 61.2011C153.472 63.5394 153.294 65.991 153.101 68.5721C152.939 70.7 152.778 72.9008 152.172 75.0369C151.736 76.5742 151.987 77.0516 153.585 77.7312C155.562 78.5646 157.048 79.932 158.396 82.1651C158.856 82.9338 159.679 83.7105 160.712 84.3659C162.294 85.3692 163.844 86.5748 164.481 88.6299C164.893 89.973 165.563 90.7902 166.717 91.3647C168.566 92.2952 169.453 94.0186 170.083 95.5883C170.495 96.6239 171.084 97.8942 171.915 98.5739C173.699 100.046 174.869 101.632 175.588 103.566L175.628 103.679C175.83 104.221 176.056 104.844 176.387 105.16C179.18 107.822 180.729 111.196 182.231 114.449C182.747 115.565 183.272 116.714 183.845 117.806C184.41 118.891 184.684 120.323 184.612 121.731C184.539 122.993 184.789 123.729 185.524 124.441C186.162 125.064 186.945 125.906 187.348 126.925C188.712 130.396 189.673 133.091 190.472 135.68L190.52 135.833C190.875 136.974 191.263 138.212 191.206 139.531C191.529 139.855 191.868 140.316 191.884 140.809C191.9 141.481 191.537 142.064 191.109 142.727C190.924 143.01 190.714 143.342 190.504 143.722C190.375 143.965 190.133 144.119 189.858 144.143C189.834 144.143 189.818 144.143 189.794 144.143L189.81 144.183ZM189.003 141.165C189.1 141.327 189.374 141.635 189.584 141.861C189.624 141.902 189.657 141.942 189.697 141.991C189.721 141.958 189.737 141.926 189.761 141.894C189.858 141.732 189.963 141.578 190.052 141.424L189.229 141.036C189.269 140.947 189.309 140.858 189.342 140.761C189.18 140.907 189.051 141.052 189.003 141.157V141.165ZM173.925 143.56C173.174 143.56 172.496 143.253 172.061 142.695C171.601 142.12 171.471 141.343 171.697 140.583C171.972 139.644 173.263 138.722 174.264 138.746C174.974 138.779 175.491 139.288 176.08 139.879C176.314 140.114 176.581 140.381 176.887 140.64C177.081 140.801 177.186 141.052 177.17 141.303C177.154 141.554 177.025 141.788 176.815 141.934C176.476 142.161 176.177 142.395 175.919 142.606C175.305 143.091 174.773 143.512 174.087 143.552C174.03 143.552 173.974 143.552 173.917 143.552L173.925 143.56ZM174.175 140.373C173.941 140.373 173.328 140.818 173.247 141.06C173.174 141.311 173.199 141.538 173.328 141.699C173.465 141.877 173.715 141.966 173.998 141.95C174.175 141.942 174.579 141.627 174.926 141.343C174.982 141.295 175.047 141.246 175.112 141.198C175.055 141.141 175.007 141.093 174.95 141.044C174.684 140.777 174.321 140.413 174.175 140.381V140.373ZM161.463 136.74C161.188 136.74 160.696 136.618 159.986 135.89C159.542 135.429 158.823 134.547 159.001 133.77C159.203 132.88 159.792 132.144 160.534 131.221C160.873 130.801 161.269 130.315 161.689 129.733C161.85 129.514 162.116 129.385 162.383 129.401C162.657 129.417 162.907 129.571 163.037 129.806C163.408 130.453 163.795 131.019 164.134 131.521C164.925 132.686 165.498 133.519 165.192 134.377C164.724 135.696 162.819 136.505 161.656 136.723C161.616 136.732 161.543 136.748 161.455 136.748L161.463 136.74ZM160.607 134.021C160.728 134.312 161.237 134.903 161.527 135.097C162.488 134.871 163.521 134.272 163.682 133.835C163.658 133.673 163.19 132.985 162.811 132.435C162.641 132.184 162.464 131.917 162.278 131.634C162.108 131.844 161.947 132.047 161.802 132.233C161.204 132.977 160.76 133.527 160.615 134.021H160.607ZM181.827 135.307C181.682 135.307 181.529 135.267 181.375 135.178C180.851 134.879 180.536 134.377 180.261 133.94C180.172 133.803 180.092 133.657 179.995 133.536C179.866 133.358 179.817 133.131 179.858 132.913C179.898 132.694 180.027 132.5 180.213 132.379C180.326 132.306 180.447 132.209 180.56 132.12C180.923 131.828 181.375 131.464 181.956 131.432C182.505 131.399 182.989 131.618 183.554 131.869C183.805 131.982 184.103 132.111 184.45 132.241C184.741 132.346 184.943 132.613 184.967 132.913C184.999 133.22 184.854 133.519 184.596 133.681C184.023 134.045 183.571 134.361 183.232 134.612C182.65 135.024 182.239 135.316 181.827 135.316V135.307ZM181.73 133.252C181.795 133.358 181.859 133.455 181.924 133.544C182.037 133.463 182.166 133.374 182.295 133.285C182.352 133.244 182.408 133.204 182.465 133.163C182.279 133.091 182.134 133.05 182.037 133.05C181.981 133.066 181.851 133.155 181.722 133.252H181.73ZM173.836 127.249C173.836 127.249 173.78 127.249 173.756 127.249C173.078 127.216 172.722 126.618 172.408 126.084C172.319 125.938 172.238 125.792 172.149 125.679C172.012 125.501 171.964 125.275 171.996 125.048C172.036 124.83 172.166 124.635 172.351 124.514C172.488 124.425 172.626 124.312 172.771 124.206C173.199 123.875 173.683 123.503 174.304 123.422C174.95 123.349 175.378 123.818 175.838 124.328C176.008 124.514 176.201 124.732 176.427 124.943C176.621 125.129 176.718 125.396 176.678 125.655C176.637 125.922 176.468 126.148 176.226 126.262C175.935 126.399 175.685 126.537 175.459 126.666C174.902 126.974 174.417 127.249 173.844 127.249H173.836ZM173.877 125.396C173.917 125.461 173.957 125.533 173.998 125.59C174.151 125.533 174.353 125.428 174.547 125.315C174.474 125.234 174.393 125.153 174.329 125.088C174.191 125.161 174.03 125.275 173.869 125.396H173.877ZM57.4933 120.687C57.2512 120.687 57.0171 120.574 56.8637 120.387C56.6135 120.08 56.3391 119.789 56.0969 119.522C55.4108 118.785 54.8701 118.211 55.1526 117.507C55.4351 116.795 56.0485 116.31 56.5893 115.881C56.7749 115.735 56.9606 115.589 57.1301 115.428C57.2915 115.282 57.5014 115.193 57.7193 115.209C57.9372 115.217 58.139 115.322 58.2843 115.484C58.4215 115.638 58.583 115.792 58.7525 115.945C59.261 116.423 59.8421 116.957 59.8986 117.701C59.9551 118.421 59.4466 118.955 58.8574 119.57C58.6314 119.805 58.3812 120.072 58.139 120.371C57.9857 120.565 57.7516 120.671 57.5094 120.671L57.4933 120.687ZM56.7911 117.871C56.9202 118.033 57.122 118.243 57.2754 118.413C57.348 118.486 57.4207 118.567 57.4933 118.648C57.5579 118.583 57.6144 118.518 57.6709 118.454C57.8807 118.235 58.1632 117.936 58.252 117.782C58.1713 117.628 57.8404 117.321 57.6386 117.127C57.6386 117.127 57.6224 117.111 57.6144 117.111C57.6063 117.119 57.5902 117.127 57.5821 117.143C57.2754 117.386 56.9686 117.628 56.783 117.871H56.7911ZM42.0282 119.934C41.2776 119.934 40.5269 119.214 40.3817 119.061C39.9619 118.632 39.7844 118.235 39.8409 117.839C39.97 116.973 40.7045 115.614 41.6973 115.395C42.3995 115.25 43.021 115.67 43.7313 116.172C44.0219 116.374 44.3528 116.609 44.7241 116.827C44.9582 116.965 45.1035 117.208 45.1196 117.475C45.1358 117.742 45.0147 118.009 44.7968 118.171C44.4658 118.421 44.1833 118.672 43.9331 118.883C43.3439 119.392 42.8354 119.837 42.1655 119.926C42.117 119.926 42.0686 119.934 42.0202 119.934H42.0282ZM41.4875 117.879C41.6247 118.033 41.883 118.235 42.0363 118.3C42.2381 118.227 42.569 117.936 42.8838 117.661C42.908 117.637 42.9323 117.62 42.9565 117.596C42.908 117.564 42.8596 117.531 42.8112 117.499C42.5448 117.313 42.1977 117.07 42.0282 116.997C41.8587 117.127 41.6085 117.515 41.4955 117.879H41.4875ZM139.637 113.607C139.492 113.607 139.347 113.567 139.218 113.486C139.056 113.389 138.854 113.292 138.653 113.186C137.894 112.814 137.184 112.466 137.224 111.714C137.264 110.969 137.579 110.29 137.878 109.634C137.983 109.4 138.096 109.157 138.192 108.906C138.281 108.688 138.459 108.518 138.677 108.437C138.895 108.356 139.145 108.38 139.347 108.502L141.453 109.723C141.639 109.829 141.776 110.015 141.833 110.225C141.889 110.435 141.857 110.662 141.744 110.848L140.323 113.203C140.21 113.389 140.033 113.518 139.823 113.575C139.758 113.591 139.694 113.599 139.629 113.599L139.637 113.607ZM138.887 111.495C139.024 111.568 139.201 111.665 139.339 111.73L139.936 110.727L139.314 110.371C139.137 110.767 138.959 111.147 138.879 111.495H138.887ZM65.0563 112.207C65.0563 112.207 65.016 112.207 64.9998 112.207C64.1281 112.183 63.4178 110.994 63.3371 110.856C63.1514 110.541 62.9416 110.071 63.1837 109.618C63.5712 108.89 64.451 108.057 65.4034 107.871C66.0975 107.725 66.5818 108.275 67.1388 108.906C67.3486 109.141 67.5908 109.416 67.8733 109.683C68.0589 109.861 68.1477 110.12 68.1154 110.379C68.0831 110.638 67.9217 110.864 67.6957 110.986C67.389 111.147 67.1146 111.325 66.8724 111.479C66.2751 111.859 65.7101 112.215 65.0644 112.215L65.0563 112.207ZM64.7738 110.12C64.8787 110.282 65.0402 110.468 65.1532 110.573C65.363 110.516 65.694 110.298 66.0007 110.104C66.0088 110.104 66.0168 110.096 66.0249 110.088C65.9926 110.055 65.9603 110.023 65.9361 109.982C65.7989 109.829 65.6294 109.643 65.5083 109.521C65.2581 109.634 64.9837 109.861 64.7819 110.12H64.7738ZM50.1159 111.714C50.1159 111.714 50.0433 111.714 50.011 111.714C49.3814 111.649 48.8729 111.277 48.429 110.953C48.2837 110.848 48.1384 110.743 47.9931 110.654C47.8075 110.541 47.6702 110.346 47.6218 110.128C47.5734 109.91 47.6218 109.683 47.751 109.505C47.8317 109.384 47.9124 109.238 47.9931 109.084C48.2918 108.542 48.6227 107.919 49.3007 107.862C49.9141 107.814 50.4549 108.073 51.028 108.356C51.2621 108.469 51.5204 108.599 51.8029 108.712C52.045 108.809 52.2307 109.028 52.2872 109.287C52.3437 109.545 52.271 109.821 52.0934 110.015C51.8836 110.241 51.6979 110.476 51.5365 110.686C51.1168 111.22 50.7294 111.722 50.1321 111.722L50.1159 111.714ZM49.4783 109.715C49.6478 109.837 49.8253 109.958 49.9706 110.031C50.0433 109.95 50.124 109.845 50.1966 109.748C49.9787 109.643 49.7608 109.537 49.5993 109.489C49.559 109.554 49.5106 109.634 49.4702 109.707L49.4783 109.715ZM57.2673 104.019C57.2673 104.019 57.2027 104.019 57.1704 104.019C56.9444 103.987 56.7426 103.865 56.6054 103.679C56.5409 103.59 56.4601 103.501 56.3875 103.404C56.105 103.073 55.7498 102.66 55.7498 102.094C55.7579 101.535 56.1373 101.163 56.4924 100.799C56.6216 100.669 56.7669 100.524 56.9121 100.354C57.0736 100.16 57.3157 100.046 57.5579 100.071C57.8081 100.079 58.0341 100.2 58.1794 100.402C58.3166 100.589 58.4619 100.767 58.5991 100.928C59.0107 101.422 59.4305 101.932 59.1157 102.522C58.8655 102.992 58.4619 103.299 58.1067 103.566C57.9937 103.647 57.8888 103.736 57.7839 103.825C57.6386 103.954 57.4449 104.019 57.2592 104.019H57.2673Z" fill="currentColor"/>
</svg>
