<svg width="232" height="243" viewBox="0 0 232 243" fill="none" xmlns="http://www.w3.org/2000/svg">
<path d="M32.375 113.024C33.7552 111.115 35.1758 109.221 36.5803 107.328C37.0081 106.753 37.4681 106.195 37.8717 105.605C38.2188 105.095 38.4044 104.431 38.8403 104.027C42.2868 100.831 44.5549 96.5182 48.5261 93.8239C48.6149 93.7673 48.7198 93.7187 48.7763 93.6378C50.9879 90.0454 54.7977 88.1358 57.6147 85.1745C57.9698 84.8023 58.2765 84.3654 58.6882 84.0741C62.2074 81.5659 65.7346 79.0657 69.2942 76.6141C70.5614 75.7403 71.8771 74.915 73.2654 74.2677C75.0088 73.4505 76.8572 72.8599 78.641 72.1317C79.5692 71.7514 80.4894 71.3145 81.3773 70.8452C82.9916 69.9794 84.5574 69.0328 86.1798 68.1994C87.0919 67.7301 88.0847 67.4307 89.0129 66.9938C90.821 66.1442 91.8541 65.0034 92.4675 62.8026C93.2182 60.1164 94.0415 57.5919 93.8801 54.7358C93.7913 53.1661 94.4047 51.556 94.7437 49.7031C96.1239 50.1724 97.1732 50.5689 98.2468 50.8763C99.2234 51.1514 100.232 51.5317 101.217 51.5155C104.179 51.467 106.875 52.357 109.555 53.4898C110.967 54.0885 112.477 54.4769 113.922 55.0109C115.27 55.5044 116.666 55.9252 117.901 56.621C120.298 57.9641 122.816 58.5791 125.545 58.4253C125.851 58.4091 126.182 58.3525 126.473 58.4253C130.428 59.3963 134.423 58.2959 138.33 58.5629C142.89 58.8703 147.443 59.5985 152.027 59.8251C152.512 59.8494 152.98 60.1487 153.367 60.2863C153.504 60.6018 153.69 60.8284 153.642 60.9578C151.898 65.4322 152.697 70.3112 151.406 74.8745C150.841 76.8649 151.357 77.7226 153.278 78.5317C155.296 79.3894 156.604 80.8053 157.71 82.6339C158.307 83.621 159.292 84.4706 160.285 85.1017C161.818 86.0726 163.166 87.1487 163.715 88.9207C164.167 90.3852 164.95 91.437 166.362 92.1409C167.904 92.9096 168.703 94.3417 169.341 95.9357C169.825 97.1332 170.447 98.4601 171.407 99.2449C172.981 100.54 174.135 102.012 174.838 103.897C175.088 104.569 175.346 105.329 175.838 105.799C179.454 109.254 180.915 113.971 183.135 118.235C183.668 119.254 183.878 120.581 183.813 121.746C183.74 123.106 183.991 124.133 184.967 125.08C185.613 125.711 186.275 126.455 186.598 127.281C187.72 130.145 188.793 133.033 189.705 135.979C190.246 137.718 190.843 139.506 189.955 141.4M32.9481 109.763C32.8754 110.063 33.7472 110.953 33.9409 110.888C34.4897 110.686 35.079 110.2 35.3211 109.674M144.174 200.748C142.414 196.646 136.207 196.548 134.456 200.651C134.318 200.966 134.222 201.282 134.149 201.605C133.39 205.271 135.771 208.192 139.444 207.666C141.478 207.374 144.569 204.413 144.593 202.617C144.602 202.01 144.448 201.395 144.174 200.748ZM57.4936 119.861C58.2604 118.906 59.124 118.299 59.0837 117.757C59.0353 117.142 58.1797 116.592 57.6712 116.01C57.0497 116.592 56.186 117.078 55.8954 117.79C55.7582 118.13 56.7268 118.906 57.4855 119.861H57.4936ZM176.379 141.262C175.411 140.445 174.838 139.587 174.232 139.563C173.643 139.539 172.642 140.243 172.473 140.817C172.15 141.909 172.916 142.816 174.047 142.743C174.708 142.702 175.322 141.966 176.379 141.262ZM139.331 163.035C141.462 160.357 143.924 158.456 143.609 157.396C143.052 155.535 141.01 153.601 139.137 152.897C138.338 152.598 135.174 155.405 135.279 156.603C135.448 158.512 137.458 160.26 139.339 163.035H139.331ZM189.802 143.382C190.456 142.184 191.094 141.521 191.077 140.882C191.061 140.412 190.02 139.498 189.729 139.603C189.076 139.838 188.244 140.542 188.18 141.133C188.115 141.658 188.979 142.298 189.802 143.382ZM67.3086 110.249C66.4691 109.448 65.9203 108.582 65.549 108.647C64.9113 108.768 64.2091 109.383 63.8943 109.982C63.7733 110.216 64.6046 111.373 65.0243 111.382C65.6539 111.406 66.3077 110.783 67.3086 110.249ZM44.3209 117.507C43.1586 116.827 42.416 116.05 41.8752 116.172C41.3344 116.293 40.7452 117.272 40.6483 117.943C40.5999 118.283 41.625 119.165 42.077 119.109C42.7146 119.028 43.2796 118.299 44.3209 117.507ZM168.469 178.627C164.982 176.782 162.69 174.589 161.261 175.059C159.566 175.617 158.008 178.335 157.629 180.358C157.468 181.208 160.615 183.756 161.98 183.562C163.804 183.303 165.362 181.127 168.469 178.627ZM175.879 125.517C175.185 124.869 174.749 124.166 174.41 124.206C173.837 124.279 173.328 124.829 172.795 125.177C173.126 125.622 173.441 126.407 173.796 126.423C174.353 126.447 174.942 125.962 175.879 125.517ZM51.4965 109.44C50.5521 109.051 49.9386 108.59 49.3656 108.647C49.0104 108.679 48.7279 109.48 48.4131 109.941C48.9701 110.281 49.5028 110.831 50.092 110.888C50.4229 110.92 50.8346 110.152 51.4965 109.44ZM184.168 132.985C183.103 132.588 182.538 132.2 182.005 132.224C181.545 132.249 181.101 132.75 180.657 133.05C181.02 133.543 181.287 134.198 181.771 134.465C181.989 134.587 182.627 133.964 184.168 132.985ZM57.542 100.863C57.0739 101.421 56.5734 101.753 56.5654 102.085C56.5654 102.449 57.0174 102.821 57.2757 103.193C57.6792 102.845 58.1878 102.562 58.4218 102.125C58.5106 101.955 57.9698 101.446 57.542 100.863ZM162.351 130.193C161.043 131.998 160.034 132.88 159.8 133.94C159.679 134.49 161.051 136.011 161.519 135.922C162.625 135.712 164.127 134.983 164.441 134.101C164.7 133.381 163.449 132.135 162.343 130.201L162.351 130.193ZM43.1989 102.562C42.6904 101.907 42.5048 101.486 42.1819 101.308C41.9882 101.203 41.3425 101.438 41.3263 101.575C41.2698 101.939 41.3344 102.53 41.5685 102.676C41.8429 102.845 42.3514 102.643 43.1989 102.554V102.562ZM188.906 125.606L138.935 109.197C138.58 110.095 138.072 110.904 138.023 111.746C138.007 112.061 139.064 112.433 139.63 112.781C140.098 111.997 140.574 111.212 141.05 110.427C140.477 110.095 139.904 109.763 138.943 109.205L188.906 125.606Z" stroke="currentColor" stroke-width="2" stroke-linejoin="round"/>
</svg>
