<svg width="232" height="243" viewBox="0 0 232 243" fill="none" xmlns="http://www.w3.org/2000/svg">
<path d="M154.634 220.125C154.489 220.125 154.351 220.125 154.206 220.101C152.874 219.939 151.696 219.082 150.978 217.73C150.848 217.488 150.743 217.237 150.663 216.954C150.178 215.335 150.711 213.62 152.067 212.479C153.431 211.33 155.296 211.079 156.821 211.856C157.37 212.131 157.79 212.455 158.113 212.851C159.202 214.195 158.767 217.431 157.637 218.701C156.813 219.624 155.748 220.125 154.642 220.125H154.634ZM154.941 213.377C154.303 213.377 153.73 213.652 153.326 213.992C152.576 214.623 152.277 215.521 152.543 216.387C152.592 216.541 152.64 216.679 152.713 216.8C153.125 217.577 153.762 218.062 154.448 218.143C155.07 218.208 155.675 217.949 156.176 217.391C156.805 216.687 156.934 214.51 156.595 214.097C156.45 213.928 156.24 213.766 155.95 213.62C155.611 213.45 155.28 213.377 154.957 213.377H154.941ZM72.6676 215.942C72.5545 215.942 72.4577 215.942 72.4012 215.926C71.8765 215.877 71.4972 215.675 71.2873 215.327C70.9322 214.745 70.6658 213.563 71.2227 212.843C71.6263 212.317 72.2559 212.261 72.8613 212.204C73.0711 212.188 73.3133 212.164 73.5716 212.123C73.8944 212.067 74.2254 212.18 74.4514 212.414C74.6774 212.657 74.7662 212.989 74.6935 213.313C74.637 213.563 74.6047 213.782 74.5724 213.984C74.4836 214.526 74.4029 215.044 74.0155 215.465C73.6442 215.869 73.0469 215.942 72.6676 215.942ZM65.1126 215.886C65.0965 215.619 65.0722 215.352 65.0561 215.085C64.709 214.996 64.3458 214.809 64.1602 214.437L64.9915 214.017C64.9592 213.507 64.927 212.989 64.9027 212.479L64.8382 211.379C64.8301 211.209 64.822 211.047 64.814 210.877C64.8059 210.602 64.7897 210.327 64.7655 210.052C64.7574 209.939 64.7252 209.833 64.701 209.728C64.6283 209.437 64.5476 209.073 64.596 208.668C64.7413 207.519 64.7252 206.362 64.709 205.141C64.6848 203.336 64.6525 201.475 65.1772 199.606C64.9592 197.875 65.2902 196.248 65.605 194.671C65.7987 193.692 65.9843 192.769 66.0489 191.839C66.0489 191.75 66.0489 191.661 66.057 191.58C66.057 191.313 66.065 191.005 66.1538 190.674C66.8318 188.076 67.5341 185.382 68.2847 182.68C68.4946 181.935 68.8255 180.819 69.3179 179.751C69.6569 179.023 70.0443 178.335 70.4237 177.663C70.6497 177.267 70.8757 176.87 71.0855 176.466C71.36 175.94 71.6182 175.382 71.8523 174.807C72.046 174.33 72.2236 173.852 72.4012 173.375C72.6353 172.76 72.8613 172.137 73.1196 171.53C73.281 171.142 73.4747 170.794 73.6604 170.454C73.7895 170.219 73.9186 169.985 74.0316 169.742C74.4675 168.803 74.4594 168.116 73.9994 167.104L73.7734 166.595C73.1599 165.227 72.5788 163.925 71.5779 162.865C71.0129 162.266 70.6497 161.521 70.2945 160.809C70.1412 160.502 69.9878 160.186 69.8102 159.863C69.673 159.612 69.6407 159.321 69.7376 159.046C69.8344 158.779 70.0362 158.56 70.3026 158.463C70.5851 158.35 70.8434 158.253 71.0936 158.156C71.586 157.969 72.0218 157.8 72.4415 157.613L72.7886 157.46C73.2245 157.274 73.6361 157.096 73.9106 156.861C75.5572 155.437 77.4782 154.725 79.1328 154.207C79.6494 154.045 80.1579 153.843 80.6987 153.625C81.0781 153.471 81.4574 153.317 81.8368 153.18L82.3937 152.977C83.0879 152.71 83.8143 152.443 84.5892 152.298C86.147 151.998 87.4465 151.343 88.5604 150.291L88.6411 150.21C88.7783 150.073 88.972 149.878 89.2465 149.741C90.5137 149.118 91.5307 148.131 92.6042 147.095C93.3307 146.391 94.0894 145.663 94.9369 145.04C96.0185 144.247 97.1566 143.486 98.2462 142.75C99.5377 141.884 100.869 140.994 102.112 140.048C102.435 139.805 102.782 139.708 103.041 139.635C103.097 139.619 103.154 139.603 103.21 139.587C103.46 139.489 103.751 139.506 103.993 139.627C104.034 139.643 104.066 139.659 104.106 139.676C104.292 139.748 104.728 139.918 104.889 140.412C105.373 141.86 106.269 143.098 107.206 144.409C108.013 145.525 108.844 146.69 109.441 148.017C109.74 148.689 109.78 148.77 110.66 148.495C112.065 148.058 113.437 148.123 115.1 148.689C115.568 148.851 116.213 148.883 116.916 148.794C118.183 148.624 119.531 148.576 120.806 149.401C121.444 149.814 121.985 149.919 122.655 149.757C124.083 149.417 125.326 149.927 126.343 150.477C126.916 150.785 127.667 151.124 128.232 151.124C129.757 151.124 131.081 151.424 132.3 152.112L132.373 152.152C132.639 152.306 132.962 152.492 133.139 152.5C135.674 152.662 137.845 153.689 139.952 154.676C140.654 155.008 141.372 155.348 142.091 155.647C142.882 155.979 143.673 156.618 144.262 157.403C144.658 157.937 144.964 158.131 145.473 158.164C146.086 158.212 146.877 158.309 147.563 158.681C149.654 159.814 151.228 160.745 152.689 161.683L152.777 161.74C153.375 162.128 154.061 162.565 154.61 163.213C154.941 163.269 155.312 163.399 155.57 163.69C155.95 164.119 156.022 164.637 156.087 165.187C156.111 165.389 156.143 165.624 156.192 165.891C156.256 166.214 156.151 166.554 155.917 166.789C155.683 167.023 155.336 167.121 155.021 167.048C154.763 166.991 154.513 166.959 154.303 166.926C153.698 166.845 153.068 166.756 152.705 166.198C152.285 165.551 152.43 164.645 152.673 164.062C152.39 163.836 152.067 163.625 151.72 163.399L151.631 163.342C150.219 162.428 148.677 161.53 146.635 160.413C146.272 160.219 145.723 160.154 145.344 160.13C143.955 160.033 143.205 159.256 142.704 158.584C142.333 158.091 141.816 157.662 141.356 157.468C140.598 157.152 139.855 156.804 139.137 156.465C137.111 155.51 135.198 154.604 133.043 154.474C132.413 154.434 131.864 154.126 131.42 153.875C130.452 153.325 129.459 153.107 128.272 153.099H128.232C127.231 153.099 126.254 152.654 125.439 152.217C124.438 151.683 123.76 151.529 123.123 151.675C121.936 151.958 120.838 151.756 119.757 151.06C119.055 150.607 118.256 150.607 117.19 150.752C116.488 150.849 115.447 150.89 114.478 150.566C113.211 150.137 112.242 150.081 111.249 150.388C109.49 150.93 108.384 150.453 107.658 148.835C107.141 147.686 106.407 146.658 105.624 145.566C104.76 144.36 103.864 143.114 103.267 141.658C101.991 142.621 100.652 143.527 99.352 144.393C98.2704 145.113 97.1566 145.865 96.1073 146.634C95.3647 147.176 94.6948 147.831 93.9845 148.519C92.8464 149.619 91.676 150.752 90.1343 151.521C90.1263 151.537 90.0859 151.578 90.0456 151.618L89.9245 151.739C88.5281 153.058 86.9057 153.875 84.9686 154.239C84.3632 154.353 83.7498 154.587 83.096 154.83C82.9023 154.903 82.7085 154.976 82.5148 155.049C82.1597 155.178 81.8045 155.324 81.4494 155.469C80.8924 155.696 80.3194 155.931 79.7221 156.117C78.253 156.57 76.5742 157.185 75.2101 158.374C74.7096 158.811 74.1124 159.07 73.5796 159.296L73.2568 159.434C72.8774 159.604 72.4819 159.758 72.046 159.928C72.046 159.936 72.0541 159.952 72.0622 159.96C72.377 160.599 72.6514 161.149 73.0146 161.538C74.2415 162.848 74.9195 164.353 75.5733 165.818L75.7993 166.319C76.4935 167.857 76.5015 169.143 75.8235 170.6C75.6944 170.883 75.5491 171.15 75.3957 171.425C75.2262 171.732 75.0648 172.024 74.9437 172.315C74.7016 172.898 74.4756 173.496 74.2496 174.095C74.0639 174.589 73.8783 175.082 73.6846 175.568C73.4263 176.207 73.1438 176.822 72.8371 177.404C72.611 177.825 72.377 178.246 72.1429 178.658C71.7635 179.322 71.4084 179.953 71.1097 180.608C70.7788 181.328 70.4963 182.138 70.1896 183.23C69.4389 185.924 68.7448 188.602 68.0668 191.2C68.0426 191.305 68.0345 191.467 68.0345 191.645C68.0345 191.766 68.0345 191.879 68.0183 192.001C67.9538 193.061 67.7439 194.096 67.5421 195.091C67.2354 196.629 66.9368 198.077 67.1547 199.542C67.1951 199.833 67.1143 200.059 67.0821 200.156C66.63 201.742 66.6543 203.393 66.6785 205.141C66.6785 205.157 66.6785 205.181 66.6785 205.197C66.7592 205.213 66.8399 205.238 66.9206 205.262C67.0336 205.294 67.1628 205.327 67.3161 205.359C67.6632 205.432 67.9457 205.691 68.0426 206.039C68.1394 206.387 68.0587 206.751 67.8085 207.01C67.6955 207.123 67.6067 207.236 67.526 207.325C67.3161 207.576 67.0578 207.883 66.6381 207.997C66.6139 208.312 66.5897 208.636 66.5493 208.952C66.5493 209.008 66.5897 209.194 66.6139 209.308C66.6623 209.502 66.7027 209.696 66.7188 209.89C66.7511 210.198 66.7673 210.513 66.7753 210.829C66.7753 210.982 66.7915 211.136 66.7996 211.298L66.8641 212.398C66.8641 212.536 66.8803 212.673 66.8883 212.811L67.1063 212.754C67.2354 213.24 67.187 213.839 66.9771 214.356C67.0094 214.834 67.0417 215.311 67.074 215.788L65.1126 215.926V215.886ZM103.017 141.019C103.017 141.019 103.017 141.019 103.017 141.027C103.017 141.027 103.017 141.027 103.017 141.019ZM81.1184 209.825C81.0539 209.825 80.9893 209.825 80.9247 209.809C80.6907 209.761 80.4485 209.736 80.2306 209.712C79.5606 209.631 78.8019 209.542 78.5598 208.798C78.3661 208.215 78.4871 207.641 78.584 207.18C78.6082 207.042 78.6405 206.904 78.6566 206.775C78.6889 206.508 78.8261 206.273 79.036 206.112C79.2458 205.95 79.5122 205.885 79.7786 205.925C79.8916 205.942 80.0207 205.95 80.1499 205.958C80.6261 205.982 81.2718 206.014 81.7319 206.484C82.2 206.961 82.1516 207.608 82.1193 208.183C82.1032 208.377 82.087 208.604 82.0951 208.83C82.0951 209.13 81.974 209.413 81.748 209.607C81.5704 209.761 81.3444 209.842 81.1184 209.842V209.825ZM72.6433 208.709C72.4254 208.709 72.2155 208.636 72.038 208.498C71.8281 208.328 71.6909 208.086 71.6667 207.819C71.6667 207.738 71.6425 207.657 71.6183 207.568C71.5295 207.139 71.4003 206.492 71.8846 206.006C72.2478 205.642 72.7079 205.529 73.1438 205.416C73.2971 205.375 73.4586 205.335 73.6361 205.278C73.9429 205.181 74.2819 205.238 74.5321 205.432C74.7904 205.626 74.9276 205.942 74.9114 206.257C74.9034 206.443 74.9114 206.621 74.9114 206.775C74.9276 207.285 74.9437 207.916 74.3868 208.304C73.9509 208.604 73.4666 208.636 73.0711 208.66C72.9743 208.66 72.8693 208.676 72.7725 208.685C72.7241 208.685 72.6756 208.693 72.6272 208.693L72.6433 208.709ZM81.0539 202.665C80.6503 202.665 80.279 202.551 80.1256 202.495C79.6333 202.317 79.3346 202.017 79.2458 201.613C79.1086 200.99 79.2055 200.084 79.7059 199.453C80.1499 198.902 80.8117 198.991 81.4009 199.08C81.5947 199.105 81.8045 199.137 82.0386 199.153C82.3534 199.169 82.6359 199.339 82.8054 199.606C82.9749 199.873 83.0072 200.205 82.8861 200.496C82.8054 200.69 82.7489 200.877 82.7005 201.046C82.5471 201.532 82.3857 202.042 81.9337 202.398C81.6754 202.6 81.3525 202.665 81.0539 202.665ZM74.2092 201.791C74.1204 201.791 74.0397 201.783 73.9509 201.759C73.8944 201.742 73.8379 201.734 73.7814 201.726C73.4666 201.678 72.9904 201.597 72.6514 201.184C72.3124 200.763 72.3528 200.27 72.385 199.914C72.3931 199.809 72.4093 199.687 72.4093 199.566C72.4093 199.266 72.5465 198.975 72.7886 198.789C73.0227 198.603 73.3375 198.538 73.6281 198.611C73.7572 198.643 73.8944 198.668 74.0155 198.692C74.4352 198.765 75.1455 198.894 75.2908 199.622C75.3796 200.051 75.2908 200.432 75.2262 200.747C75.2101 200.82 75.1939 200.901 75.1778 200.974C75.1374 201.249 74.976 201.492 74.7419 201.645C74.5805 201.75 74.3949 201.799 74.2092 201.799V201.791ZM155.933 198.579C155.675 198.579 155.449 198.563 155.296 198.546C154.795 198.49 154.085 198.344 153.762 197.753C153.076 196.515 152.503 194.121 153.399 192.68C153.972 191.75 155.199 191.588 156.741 191.386C157.419 191.297 158.185 191.192 158.993 191.022C159.315 190.949 159.654 191.054 159.889 191.281C160.123 191.515 160.228 191.847 160.163 192.171C160.002 192.98 159.913 193.708 159.832 194.355C159.654 195.779 159.509 196.896 158.783 197.705C158.153 198.409 156.829 198.571 155.942 198.571L155.933 198.579ZM155.36 196.572C155.869 196.669 157.047 196.58 157.354 196.362C157.637 196.038 157.741 195.189 157.879 194.104C157.911 193.821 157.951 193.514 158 193.198C157.645 193.255 157.314 193.295 156.991 193.336C156.248 193.433 155.239 193.57 155.038 193.748C154.747 194.226 154.9 195.593 155.36 196.572ZM138.636 197.317C138.547 197.317 138.459 197.308 138.37 197.276C137.74 197.098 137.151 196.977 136.578 196.855C135.262 196.58 134.124 196.346 133.341 195.553C132.47 194.679 132.873 192.64 132.97 192.243C133.188 191.272 133.543 190.73 134.084 190.544C135.634 189.994 137.732 190.196 138.967 191.005C139.823 191.572 139.766 192.696 139.677 194.258C139.645 194.881 139.605 195.585 139.621 196.305C139.621 196.621 139.484 196.912 139.242 197.106C139.064 197.244 138.854 197.308 138.636 197.308V197.317ZM134.794 194.226C135.198 194.566 136.029 194.735 136.982 194.93C137.199 194.978 137.434 195.027 137.668 195.075C137.676 194.752 137.7 194.444 137.708 194.153C137.74 193.603 137.773 192.874 137.724 192.559C137.022 192.187 135.86 192.09 134.972 192.316C134.794 192.785 134.689 193.845 134.794 194.218V194.226ZM137.942 175.106C137.829 175.106 137.7 175.106 137.571 175.082C136.965 175.017 136.182 174.815 135.868 174.2C135.553 173.585 135.537 172.946 135.521 172.121C135.521 171.781 135.504 171.393 135.472 170.948C135.448 170.616 135.593 170.292 135.86 170.09C136.126 169.888 136.473 169.839 136.788 169.952C137.224 170.114 137.635 170.227 137.99 170.325C138.911 170.584 139.702 170.81 139.984 171.571C140.388 172.671 139.613 174.047 139.145 174.621C138.886 174.937 138.491 175.09 137.942 175.09V175.106ZM137.547 173.092C137.627 173.108 137.724 173.124 137.813 173.132C137.966 172.881 138.079 172.614 138.12 172.428C137.942 172.364 137.692 172.299 137.49 172.234C137.49 172.582 137.506 172.881 137.547 173.092ZM146.579 173.496C146.449 173.496 146.328 173.48 146.199 173.456C145.586 173.326 145.085 172.914 144.827 172.307C144.496 171.546 144.827 170.3 145.481 169.799C145.981 169.41 146.579 169.459 147.152 169.507C147.353 169.524 147.579 169.54 147.822 169.54C148.128 169.54 148.419 169.685 148.605 169.936C148.79 170.187 148.847 170.503 148.758 170.802C148.685 171.037 148.645 171.263 148.605 171.457C148.5 171.975 148.387 172.509 147.959 172.914C147.563 173.286 147.079 173.488 146.579 173.488V173.496ZM146.57 171.53C146.579 171.53 146.57 171.563 146.57 171.563C146.57 171.554 146.579 171.538 146.587 171.53H146.57ZM117.23 172.898C116.883 172.898 116.544 172.792 116.294 172.453C115.955 171.999 115.81 171.474 115.689 171.012C115.648 170.859 115.608 170.705 115.552 170.551C115.463 170.276 115.495 169.985 115.64 169.734C115.786 169.491 116.036 169.321 116.31 169.273L117.836 169.006C118.094 168.957 118.36 169.022 118.578 169.176C118.796 169.329 118.934 169.564 118.974 169.823L119.248 171.554C119.289 171.813 119.224 172.072 119.071 172.291C118.917 172.501 118.683 172.647 118.425 172.679C118.32 172.695 118.199 172.728 118.07 172.76C117.812 172.825 117.521 172.898 117.222 172.898H117.23ZM147.523 166.004C147.16 166.004 146.845 165.899 146.57 165.81C146.482 165.777 146.393 165.753 146.312 165.729C146.054 165.664 145.828 165.494 145.699 165.26C145.562 165.025 145.537 164.742 145.61 164.491C145.634 164.418 145.642 164.345 145.658 164.264C145.723 163.925 145.82 163.463 146.199 163.107C146.538 162.792 146.926 162.679 147.345 162.557C147.507 162.509 147.692 162.46 147.902 162.379C148.249 162.258 148.645 162.339 148.911 162.598C149.178 162.857 149.274 163.245 149.161 163.601C149.032 164.005 148.944 164.337 148.879 164.596C148.718 165.211 148.548 165.842 147.846 165.98C147.733 166.004 147.62 166.012 147.515 166.012L147.523 166.004ZM140.372 165.381C140.057 165.381 139.758 165.276 139.524 165.195C139.443 165.162 139.355 165.13 139.282 165.114C139.016 165.049 138.79 164.879 138.652 164.645C138.515 164.41 138.483 164.127 138.564 163.868C138.588 163.779 138.612 163.682 138.628 163.585C138.709 163.204 138.814 162.743 139.169 162.355C139.613 161.877 140.21 161.958 140.694 162.023C140.848 162.047 141.017 162.072 141.195 162.08C141.518 162.096 141.816 162.274 141.986 162.557C142.155 162.84 142.172 163.18 142.034 163.48C141.954 163.658 141.889 163.819 141.833 163.965C141.671 164.394 141.502 164.831 141.09 165.146C140.856 165.324 140.606 165.389 140.363 165.389L140.372 165.381Z" fill="currentColor"/>
<path d="M120.621 205.24C120.435 205.046 120.249 204.852 120.064 204.657C119.733 204.811 119.345 204.9 118.958 204.738L119.321 203.881C118.966 203.509 118.619 203.136 118.264 202.764L117.505 201.963C117.384 201.842 117.271 201.712 117.158 201.583C116.972 201.381 116.795 201.178 116.601 200.992C116.52 200.919 116.432 200.855 116.343 200.782C116.101 200.604 115.802 200.377 115.584 200.037C114.963 199.066 114.204 198.185 113.405 197.262C112.226 195.903 111.007 194.487 110.216 192.723C108.941 191.534 108.15 190.077 107.383 188.669C106.907 187.796 106.463 186.97 105.906 186.218C105.858 186.153 105.801 186.08 105.753 186.016C105.583 185.805 105.39 185.562 105.244 185.255C104.155 182.949 102.912 180.328 101.749 177.755C101.427 177.051 100.966 175.983 100.668 174.85C100.458 174.081 100.313 173.296 100.175 172.544C100.095 172.091 100.006 171.638 99.9091 171.193C99.788 170.618 99.6266 170.019 99.4329 169.429C99.2714 168.943 99.1019 168.458 98.9324 167.98C98.7145 167.357 98.4966 166.734 98.3029 166.111C98.1818 165.715 98.1011 165.319 98.0284 164.938C97.98 164.679 97.9235 164.412 97.8589 164.153C97.5926 163.158 97.1406 162.632 96.1397 162.155L95.6393 161.912C94.2913 161.257 93.016 160.634 91.5631 160.464C90.7479 160.367 89.9892 160.035 89.2627 159.719C88.948 159.582 88.6251 159.436 88.2861 159.307C88.0197 159.21 87.8099 158.999 87.713 158.732C87.6162 158.465 87.6323 158.166 87.7695 157.915C87.9148 157.648 88.052 157.405 88.1812 157.171C88.4395 156.71 88.6655 156.305 88.8672 155.884L89.0367 155.544C89.2466 155.116 89.4484 154.719 89.513 154.363C89.86 152.211 90.869 150.431 91.8134 148.966C92.1039 148.513 92.3622 148.028 92.6366 147.51C92.8304 147.146 93.016 146.782 93.2259 146.434L93.5164 145.924C93.8797 145.269 94.259 144.597 94.7595 143.982C95.7603 142.752 96.3415 141.409 96.5191 139.888V139.783C96.5433 139.581 96.5675 139.314 96.6966 139.031C97.2697 137.736 97.415 136.328 97.5684 134.839C97.6733 133.828 97.7863 132.784 98.0365 131.757C98.3594 130.446 98.7387 129.135 99.11 127.865C99.5459 126.376 99.9898 124.831 100.337 123.301C100.426 122.913 100.627 122.614 100.781 122.395C100.813 122.347 100.853 122.298 100.878 122.25C101.015 122.015 101.241 121.837 101.507 121.78C101.548 121.772 101.588 121.756 101.62 121.748C101.806 121.683 102.25 121.538 102.694 121.805C103.993 122.598 105.47 122.97 107.036 123.374C108.368 123.714 109.756 124.062 111.064 124.701C111.718 125.017 111.798 125.065 112.307 124.28C113.106 123.043 114.196 122.201 115.834 121.562C116.294 121.384 116.811 120.995 117.287 120.47C118.151 119.523 119.152 118.617 120.653 118.423C121.412 118.325 121.88 118.058 122.3 117.508C123.171 116.327 124.455 115.922 125.585 115.68C126.222 115.542 127.013 115.34 127.449 114.968C128.636 113.956 129.822 113.357 131.194 113.107L131.275 113.09C131.574 113.034 131.945 112.969 132.082 112.864C134.124 111.351 136.449 110.736 138.693 110.145C139.443 109.951 140.21 109.741 140.953 109.514C141.768 109.255 142.785 109.231 143.738 109.458C144.383 109.611 144.738 109.563 145.15 109.255C145.65 108.891 146.312 108.462 147.087 108.309C149.42 107.831 151.22 107.524 152.939 107.305L153.036 107.289C153.746 107.2 154.553 107.095 155.385 107.233C155.675 107.063 156.039 106.925 156.426 106.982C156.991 107.063 157.378 107.419 157.79 107.799C157.943 107.936 158.113 108.098 158.323 108.268C158.581 108.479 158.718 108.802 158.686 109.134C158.654 109.466 158.46 109.757 158.161 109.911C157.927 110.032 157.717 110.17 157.532 110.283C157.015 110.615 156.474 110.946 155.837 110.752C155.094 110.526 154.634 109.741 154.44 109.134C154.077 109.134 153.69 109.191 153.278 109.239L153.181 109.255C151.518 109.466 149.759 109.765 147.475 110.234C147.071 110.315 146.611 110.623 146.296 110.849C145.166 111.675 144.093 111.561 143.286 111.367C142.688 111.23 142.018 111.23 141.534 111.383C140.751 111.634 139.96 111.844 139.185 112.047C137.022 112.621 134.98 113.163 133.236 114.45C132.728 114.83 132.115 114.943 131.614 115.032L131.533 115.049C130.508 115.235 129.612 115.688 128.708 116.473C127.933 117.136 126.892 117.427 125.972 117.621C124.858 117.856 124.245 118.172 123.857 118.698C123.131 119.677 122.162 120.235 120.887 120.389C120.064 120.494 119.45 121.012 118.724 121.805C118.248 122.331 117.473 123.034 116.528 123.407C115.285 123.892 114.511 124.475 113.937 125.357C112.928 126.926 111.807 127.266 110.192 126.481C109.062 125.931 107.835 125.616 106.536 125.292C105.099 124.928 103.622 124.547 102.226 123.819C101.87 125.373 101.418 126.934 100.983 128.431C100.619 129.677 100.248 130.972 99.9333 132.242C99.7154 133.14 99.6185 134.071 99.5136 135.058C99.3522 136.627 99.1746 138.262 98.4804 139.84C98.4804 139.856 98.4804 139.912 98.4804 139.969L98.4643 140.139C98.2383 142.049 97.5199 143.715 96.2769 145.253C95.8814 145.738 95.5585 146.304 95.2195 146.911C95.1227 147.089 95.0177 147.267 94.9128 147.445C94.7191 147.777 94.5415 148.117 94.364 148.457C94.0815 148.983 93.7989 149.533 93.4519 150.059C92.5721 151.418 91.7246 152.915 91.4421 154.695C91.3371 155.35 91.0466 155.941 90.7883 156.451L90.6349 156.766C90.4493 157.147 90.2475 157.519 90.0215 157.923C90.0295 157.923 90.0457 157.931 90.0538 157.939C90.7076 158.223 91.2645 158.473 91.7972 158.538C93.581 158.749 95.0581 159.469 96.4948 160.164L96.9872 160.407C98.5047 161.135 99.336 162.114 99.7477 163.676C99.8284 163.975 99.8849 164.275 99.9495 164.582C100.014 164.93 100.087 165.254 100.175 165.553C100.361 166.16 100.571 166.759 100.781 167.357C100.958 167.851 101.128 168.353 101.289 168.854C101.499 169.51 101.685 170.165 101.822 170.812C101.919 171.282 102.008 171.751 102.096 172.22C102.234 172.973 102.363 173.677 102.548 174.372C102.75 175.133 103.057 175.942 103.525 176.978C104.687 179.535 105.922 182.148 107.012 184.446C107.06 184.543 107.165 184.672 107.278 184.81C107.351 184.899 107.424 184.988 107.488 185.077C108.118 185.935 108.618 186.857 109.103 187.755C109.845 189.131 110.555 190.433 111.661 191.412C111.879 191.607 111.96 191.833 112 191.93C112.67 193.435 113.744 194.681 114.89 196C114.898 196.016 114.914 196.032 114.93 196.04C115.003 196 115.084 195.968 115.156 195.935C115.261 195.887 115.382 195.83 115.528 195.757C115.842 195.587 116.222 195.612 116.52 195.806C116.819 196 116.988 196.348 116.964 196.704C116.956 196.866 116.956 197.003 116.956 197.125C116.956 197.456 116.956 197.861 116.706 198.209C116.892 198.468 117.077 198.727 117.247 199.002C117.279 199.05 117.432 199.164 117.529 199.236C117.691 199.358 117.844 199.479 117.981 199.609C118.199 199.827 118.409 200.054 118.619 200.28C118.724 200.402 118.837 200.515 118.942 200.636L119.7 201.437C119.797 201.534 119.886 201.639 119.983 201.737L120.112 201.55C120.524 201.842 120.871 202.327 121.04 202.853C121.371 203.201 121.702 203.549 122.033 203.889L120.621 205.256V205.24ZM125.342 200.895C125.221 200.895 125.108 200.879 124.987 200.838C124.35 200.628 123.381 199.884 123.349 198.977C123.325 198.314 123.769 197.869 124.196 197.432C124.35 197.278 124.519 197.108 124.689 196.906C124.899 196.655 125.229 196.526 125.552 196.566C125.875 196.607 126.166 196.801 126.311 197.092C126.424 197.319 126.545 197.513 126.65 197.683C126.933 198.152 127.199 198.605 127.175 199.172C127.142 199.892 126.448 200.426 126.23 200.571C125.924 200.782 125.625 200.887 125.342 200.887V200.895ZM121.161 195.126C120.903 195.126 120.661 195.029 120.475 194.843C120.419 194.786 120.346 194.738 120.282 194.681C119.943 194.414 119.426 194.001 119.483 193.322C119.531 192.804 119.805 192.424 120.072 192.06C120.161 191.93 120.265 191.793 120.362 191.639C120.532 191.364 120.831 191.194 121.153 191.178C121.492 191.161 121.783 191.307 121.977 191.566C122.09 191.712 122.203 191.841 122.308 191.963C122.647 192.343 123.066 192.812 122.889 193.459C122.743 193.977 122.388 194.317 122.106 194.584C122.033 194.657 121.961 194.722 121.896 194.794C121.718 194.997 121.46 195.118 121.194 195.126C121.186 195.126 121.17 195.126 121.161 195.126ZM126.957 191.315C126.771 191.315 126.577 191.267 126.384 191.145C125.867 190.822 125.585 190.304 125.359 189.891C125.294 189.77 125.229 189.648 125.157 189.535C125.012 189.309 124.963 189.042 125.028 188.783C125.092 188.524 125.246 188.297 125.48 188.16C125.577 188.095 125.681 188.022 125.778 187.941C126.158 187.65 126.674 187.27 127.328 187.326C127.99 187.391 128.377 187.917 128.708 188.378C128.821 188.54 128.95 188.718 129.104 188.888C129.298 189.114 129.386 189.414 129.33 189.705C129.281 189.996 129.096 190.255 128.837 190.393C128.628 190.506 128.426 190.644 128.24 190.757C127.837 191.016 127.401 191.307 126.949 191.307L126.957 191.315ZM117.214 189.147C117.134 189.147 117.053 189.147 116.972 189.123C116.44 189.017 116.157 188.613 115.947 188.322C115.883 188.233 115.818 188.135 115.737 188.038C115.544 187.804 115.471 187.496 115.536 187.205C115.6 186.906 115.794 186.663 116.068 186.525C116.189 186.469 116.31 186.396 116.415 186.331C116.787 186.121 117.4 185.765 117.989 186.218C118.336 186.493 118.522 186.841 118.659 187.124C118.692 187.197 118.732 187.262 118.764 187.326C118.909 187.569 118.942 187.852 118.861 188.119C118.78 188.386 118.587 188.605 118.336 188.718C118.288 188.742 118.24 188.775 118.183 188.807C117.949 188.945 117.618 189.139 117.214 189.139V189.147ZM122.961 185.425C122.711 185.425 122.493 185.352 122.3 185.198C121.815 184.818 121.283 184.049 121.266 183.248C121.258 182.536 121.823 182.18 122.324 181.865C122.485 181.76 122.671 181.646 122.856 181.509C123.107 181.323 123.438 181.266 123.736 181.363C124.035 181.46 124.269 181.695 124.374 181.994C124.438 182.197 124.511 182.375 124.584 182.536C124.777 183.014 124.979 183.499 124.866 184.066C124.705 184.826 123.809 185.206 123.543 185.304C123.333 185.376 123.139 185.417 122.961 185.417V185.425ZM189.398 151.693C188.801 151.693 188.187 151.572 187.582 151.329C187.332 151.232 187.09 151.102 186.839 150.941C185.427 150.018 184.741 148.36 185.048 146.612C185.354 144.856 186.63 143.464 188.284 143.068C188.882 142.93 189.406 142.906 189.907 143.003C191.602 143.327 193.345 146.094 193.289 147.793C193.248 149.185 192.619 150.374 191.569 151.07C190.932 151.491 190.181 151.701 189.398 151.701V151.693ZM188.736 144.986C187.647 145.245 187.114 146.175 186.977 146.952C186.807 147.923 187.154 148.796 187.913 149.29C188.05 149.379 188.179 149.444 188.309 149.5C189.124 149.824 189.923 149.792 190.496 149.411C191.012 149.072 191.311 148.473 191.335 147.72C191.368 146.782 190.068 145.026 189.543 144.929C189.326 144.888 189.059 144.905 188.736 144.977V144.986ZM160.107 145.73C160.018 145.73 159.937 145.73 159.848 145.722C158.621 145.617 157.621 143.788 157.435 143.424C156.983 142.542 156.91 141.903 157.201 141.409C158.04 139.993 159.776 138.796 161.237 138.618C162.27 138.497 162.932 139.403 163.868 140.657C164.239 141.158 164.667 141.717 165.135 142.259C165.337 142.494 165.426 142.809 165.361 143.117C165.297 143.424 165.087 143.675 164.804 143.804C164.207 144.071 163.682 144.354 163.166 144.638C162.076 145.228 161.124 145.738 160.107 145.738V145.73ZM159.025 142.186C159.194 142.655 159.792 143.537 160.107 143.756C160.631 143.756 161.374 143.351 162.229 142.89C162.423 142.785 162.633 142.672 162.851 142.558C162.657 142.307 162.472 142.057 162.294 141.83C161.963 141.393 161.527 140.811 161.285 140.592C160.51 140.762 159.558 141.434 159.025 142.186ZM132.228 139.039C132.147 139.039 132.058 139.031 131.961 139.006C131.412 138.877 130.968 138.569 130.573 138.294C130.444 138.205 130.315 138.116 130.177 138.027C129.935 137.874 129.766 137.631 129.725 137.348C129.677 137.064 129.758 136.773 129.943 136.555L130.944 135.365C131.114 135.163 131.356 135.034 131.622 135.017C131.889 134.985 132.147 135.082 132.341 135.26L133.656 136.409C133.85 136.579 133.971 136.822 133.987 137.081C134.003 137.339 133.914 137.598 133.745 137.793C133.672 137.874 133.6 137.979 133.527 138.084C133.228 138.488 132.841 139.031 132.228 139.031V139.039ZM177.347 134.322C177.202 134.322 177.049 134.297 176.903 134.241C175.58 133.739 173.61 132.266 173.368 130.592C173.215 129.507 174.046 128.601 175.095 127.444C175.555 126.942 176.08 126.368 176.589 125.713C176.79 125.454 177.097 125.308 177.444 125.332C177.775 125.357 178.066 125.551 178.227 125.834C178.623 126.554 179.018 127.177 179.373 127.719C180.148 128.925 180.754 129.871 180.721 130.964C180.681 132.194 179.163 133.464 178.582 133.852C178.259 134.063 177.824 134.313 177.347 134.313V134.322ZM177.226 128.019C176.992 128.286 176.758 128.536 176.548 128.771C176.048 129.321 175.354 130.074 175.313 130.349C175.394 130.899 176.395 131.846 177.372 132.299C177.824 132.048 178.671 131.223 178.76 130.859C178.768 130.43 178.308 129.71 177.719 128.795C177.565 128.553 177.396 128.294 177.226 128.019ZM148.572 127.824C148.411 127.824 148.249 127.8 148.088 127.727C147.45 127.46 147.031 126.975 146.49 126.36C146.264 126.101 146.014 125.81 145.699 125.486C145.465 125.243 145.376 124.903 145.449 124.58C145.521 124.256 145.755 123.989 146.07 123.876C146.506 123.722 146.893 123.544 147.232 123.39C148.104 123.002 148.847 122.654 149.557 123.059C150.574 123.641 150.865 125.195 150.873 125.939C150.873 126.433 150.574 126.878 149.961 127.298C149.581 127.557 149.073 127.816 148.572 127.816V127.824ZM148.072 125.179C148.306 125.446 148.5 125.664 148.661 125.794C148.734 125.753 148.823 125.704 148.895 125.656C148.855 125.365 148.766 125.09 148.677 124.912C148.5 124.976 148.266 125.081 148.072 125.17V125.179ZM154.642 120.72C154.335 120.72 154.029 120.648 153.738 120.502C152.996 120.13 152.447 118.973 152.624 118.164C152.761 117.541 153.246 117.201 153.714 116.869C153.875 116.756 154.061 116.626 154.247 116.464C154.481 116.262 154.804 116.189 155.102 116.262C155.401 116.335 155.651 116.537 155.78 116.829C155.877 117.055 155.99 117.257 156.087 117.435C156.337 117.905 156.595 118.39 156.531 118.973C156.45 119.644 156.087 120.211 155.53 120.51C155.256 120.656 154.957 120.737 154.65 120.737L154.642 120.72ZM154.561 118.787C154.561 118.787 154.578 118.811 154.578 118.819C154.578 118.811 154.578 118.795 154.57 118.787H154.561ZM144.424 118.673C144.311 118.673 144.198 118.657 144.085 118.617C143.826 118.52 143.625 118.325 143.52 118.075C143.479 117.986 143.439 117.897 143.39 117.816C143.213 117.476 142.995 117.047 143.019 116.529C143.051 115.874 143.56 115.55 143.972 115.291C144.101 115.21 144.246 115.121 144.391 115.016C144.65 114.822 144.989 114.765 145.295 114.871C145.602 114.976 145.836 115.227 145.925 115.542C145.973 115.728 146.03 115.89 146.086 116.044C146.232 116.473 146.385 116.918 146.272 117.427C146.127 118.091 145.513 118.325 145.102 118.479C145.021 118.512 144.932 118.544 144.868 118.576C144.73 118.649 144.577 118.681 144.424 118.681V118.673ZM150.211 114.612C150.098 114.612 149.977 114.587 149.872 114.547C149.622 114.45 149.42 114.256 149.315 114.013C149.283 113.948 149.25 113.875 149.21 113.811C149.049 113.511 148.823 113.09 148.879 112.581C148.936 112.12 149.162 111.78 149.404 111.416C149.501 111.278 149.606 111.116 149.719 110.922C149.904 110.598 150.259 110.42 150.631 110.437C151.002 110.461 151.325 110.696 151.47 111.043C151.631 111.44 151.777 111.747 151.89 111.982C152.156 112.556 152.439 113.147 151.987 113.705C151.664 114.102 151.244 114.272 150.897 114.409C150.808 114.442 150.727 114.474 150.647 114.515C150.51 114.579 150.364 114.612 150.211 114.612Z" fill="currentColor"/>
<path d="M154.724 161.99L154.449 161.1C153.957 161.043 153.464 160.987 152.972 160.93L151.834 160.801C151.664 160.784 151.503 160.76 151.333 160.736C151.059 160.704 150.793 160.663 150.518 160.639C150.413 160.631 150.3 160.639 150.187 160.639C149.889 160.655 149.517 160.679 149.122 160.558C148.016 160.218 146.878 160.032 145.667 159.838C143.892 159.555 142.059 159.255 140.316 158.414C138.58 158.325 137.039 157.718 135.546 157.135C134.617 156.771 133.746 156.431 132.85 156.205C132.769 156.189 132.68 156.173 132.599 156.156C132.333 156.108 132.034 156.043 131.72 155.906C129.282 154.781 126.756 153.624 124.229 152.41C123.123 151.876 122.268 151.391 121.533 150.881C120.88 150.428 120.274 149.918 119.685 149.433C119.33 149.141 118.975 148.85 118.611 148.567C118.143 148.203 117.643 147.855 117.118 147.523C116.69 147.256 116.247 146.997 115.811 146.738C115.246 146.398 114.673 146.067 114.124 145.711C113.777 145.484 113.462 145.233 113.163 144.991C112.953 144.821 112.743 144.659 112.526 144.505C111.678 143.915 111 143.801 109.927 144.076L109.386 144.214C107.933 144.578 106.561 144.926 105.342 145.735C104.656 146.188 103.865 146.423 103.098 146.641C102.767 146.738 102.428 146.835 102.081 146.957C101.815 147.054 101.516 147.021 101.274 146.884C101.024 146.746 100.854 146.504 100.798 146.22C100.741 145.921 100.685 145.646 100.636 145.387C100.539 144.861 100.451 144.408 100.338 143.955L100.249 143.583C100.136 143.122 100.039 142.685 99.8533 142.377C98.7394 140.508 98.3681 138.485 98.1582 136.762C98.0937 136.22 97.9807 135.686 97.8515 135.119C97.7627 134.715 97.682 134.318 97.6094 133.914L97.5044 133.339C97.3672 132.603 97.2219 131.843 97.2139 131.05C97.1896 129.456 96.778 128.064 95.9386 126.778L95.874 126.689C95.761 126.527 95.6076 126.3 95.5188 126.001C95.1233 124.642 94.3404 123.468 93.501 122.23C92.9359 121.389 92.3467 120.515 91.8866 119.568C91.2974 118.363 90.7486 117.117 90.2158 115.903C89.5863 114.479 88.9405 113.007 88.2302 111.615C88.0446 111.259 88.0123 110.895 87.9881 110.636C87.9881 110.571 87.98 110.514 87.9639 110.458C87.9155 110.191 87.98 109.908 88.1495 109.689C88.1737 109.657 88.198 109.616 88.2141 109.592C88.3271 109.406 88.5531 109.026 89.0616 108.945C90.5791 108.71 91.9512 108.047 93.396 107.351C94.639 106.752 95.9224 106.129 97.3349 105.773C98.0372 105.595 98.134 105.571 98.0129 104.648C97.8273 103.184 98.1259 101.841 98.9735 100.295C99.2156 99.8585 99.3609 99.2274 99.3851 98.5234C99.4335 97.237 99.6272 95.9019 100.66 94.7854C101.177 94.2271 101.371 93.7173 101.33 93.0296C101.242 91.557 101.96 90.4243 102.678 89.51C103.082 89.0002 103.55 88.3368 103.647 87.7623C103.897 86.225 104.43 85.0032 105.326 83.919C105.568 83.6196 105.81 83.3284 105.858 83.1584C106.456 80.6826 107.844 78.7164 109.184 76.815C109.628 76.1839 110.088 75.5285 110.508 74.8732C110.968 74.145 111.735 73.4815 112.606 73.0365C113.195 72.7371 113.438 72.4701 113.567 71.9765C113.712 71.3778 113.946 70.6172 114.439 70.0023C115.891 68.1656 117.118 66.7254 118.281 65.4632L118.345 65.3904C118.829 64.8645 119.386 64.2657 120.105 63.8369C120.218 63.5133 120.411 63.1734 120.742 62.9712C121.235 62.6718 121.751 62.6961 122.308 62.7203C122.518 62.7284 122.744 62.7446 123.019 62.7365C123.349 62.7365 123.664 62.8902 123.85 63.1653C124.036 63.4404 124.076 63.7884 123.947 64.0958C123.842 64.3466 123.769 64.5813 123.705 64.7836C123.519 65.3661 123.325 65.973 122.712 66.2319C122.002 66.5393 121.138 66.2319 120.613 65.892C120.339 66.1267 120.072 66.418 119.798 66.7173L119.725 66.7902C118.595 68.0119 117.409 69.4198 115.98 71.216C115.722 71.5396 115.569 72.0736 115.48 72.4458C115.141 73.8051 114.245 74.412 113.502 74.7842C112.953 75.0593 112.445 75.4962 112.17 75.925C111.735 76.6127 111.258 77.2924 110.798 77.9478C109.507 79.7764 108.288 81.5079 107.779 83.6196C107.634 84.2346 107.231 84.7281 106.908 85.1165C106.197 85.9741 105.802 86.9046 105.608 88.0859C105.439 89.0892 104.825 89.9873 104.252 90.7236C103.55 91.6217 103.284 92.2528 103.324 92.9163C103.397 94.1381 103.009 95.1818 102.137 96.1285C101.572 96.7434 101.427 97.5282 101.387 98.6124C101.355 99.3245 101.217 100.36 100.733 101.25C100.087 102.423 99.8694 103.37 99.9985 104.414C100.233 106.267 99.5869 107.246 97.8515 107.691C96.6327 107.998 95.4946 108.548 94.2839 109.131C92.9521 109.778 91.5719 110.442 90.0383 110.781C90.7647 112.205 91.4185 113.686 92.0481 115.126C92.5727 116.316 93.1135 117.546 93.6866 118.711C94.0902 119.536 94.6148 120.313 95.1718 121.138C96.0516 122.449 96.9717 123.808 97.4479 125.467C97.456 125.483 97.4964 125.523 97.5287 125.572L97.6255 125.71C98.6748 127.32 99.1995 129.059 99.2237 131.033C99.2237 131.656 99.3528 132.304 99.482 132.992L99.595 133.59C99.6595 133.971 99.7402 134.343 99.821 134.715C99.9501 135.297 100.079 135.904 100.152 136.535C100.354 138.137 100.66 139.837 101.589 141.382C101.928 141.948 102.081 142.588 102.21 143.146L102.291 143.486C102.396 143.898 102.476 144.311 102.565 144.764C102.573 144.764 102.59 144.764 102.598 144.756C103.276 144.554 103.873 144.384 104.309 144.093C105.81 143.105 107.408 142.701 108.95 142.312L109.483 142.175C111.113 141.754 112.372 141.973 113.696 142.895C113.946 143.073 114.188 143.267 114.43 143.461C114.705 143.68 114.963 143.89 115.221 144.06C115.754 144.4 116.303 144.732 116.852 145.055C117.304 145.322 117.756 145.589 118.2 145.864C118.789 146.229 119.346 146.617 119.863 147.022C120.242 147.313 120.613 147.62 120.976 147.928C121.566 148.413 122.115 148.866 122.704 149.279C123.341 149.724 124.116 150.161 125.125 150.646C127.635 151.852 130.154 153.009 132.583 154.125C132.68 154.174 132.842 154.198 133.019 154.239C133.132 154.263 133.245 154.279 133.358 154.312C134.391 154.562 135.368 154.951 136.312 155.323C137.765 155.897 139.137 156.44 140.623 156.48C140.921 156.488 141.123 156.609 141.212 156.658C142.689 157.378 144.319 157.637 146.039 157.92C146.055 157.92 146.079 157.92 146.095 157.928C146.127 157.847 146.168 157.775 146.2 157.694C146.248 157.588 146.305 157.467 146.369 157.321C146.507 156.99 146.805 156.763 147.16 156.715C147.516 156.666 147.863 156.828 148.073 157.119C148.169 157.249 148.258 157.354 148.331 157.451C148.541 157.702 148.799 158.017 148.831 158.446C149.138 158.519 149.445 158.608 149.751 158.705C149.808 158.721 149.994 158.705 150.115 158.705C150.316 158.697 150.51 158.689 150.704 158.705C151.019 158.729 151.325 158.77 151.64 158.81C151.794 158.835 151.947 158.851 152.108 158.867L153.246 159.004L153.61 159.045L153.593 158.818C154.094 158.762 154.675 158.932 155.143 159.223C155.619 159.28 156.096 159.328 156.572 159.377L156.37 161.335C156.104 161.31 155.837 161.278 155.571 161.246C155.418 161.577 155.176 161.901 154.78 162.022L154.724 161.99ZM155.854 155.283C155.321 155.283 154.748 155.137 154.393 154.74C153.949 154.247 153.997 153.624 154.054 153.017C154.07 152.807 154.094 152.564 154.094 152.297C154.094 151.965 154.263 151.658 154.538 151.48C154.812 151.294 155.159 151.269 155.458 151.391C155.692 151.488 155.902 151.561 156.096 151.625C156.612 151.803 157.105 151.973 157.452 152.426C157.888 153.001 157.694 153.858 157.621 154.109C157.476 154.619 157.218 154.951 156.838 155.096C156.58 155.202 156.225 155.266 155.854 155.266V155.283ZM149.057 153.438C148.646 153.438 148.121 153.381 147.79 152.904C147.491 152.475 147.459 152.006 147.427 151.553C147.419 151.399 147.403 151.229 147.378 151.043C147.338 150.719 147.451 150.404 147.685 150.185C147.919 149.967 148.25 149.878 148.565 149.95C148.743 149.991 148.92 150.015 149.073 150.039C149.574 150.112 150.195 150.201 150.478 150.816C150.696 151.302 150.647 151.787 150.607 152.176C150.599 152.273 150.583 152.378 150.583 152.475C150.583 152.742 150.454 153.001 150.26 153.179C150.066 153.357 149.792 153.454 149.525 153.43C149.445 153.43 149.356 153.43 149.267 153.43C149.203 153.43 149.13 153.43 149.049 153.43L149.057 153.438ZM142.56 151.464C142.309 151.464 142.075 151.399 141.882 151.35C141.777 151.326 141.664 151.294 141.543 151.269C141.244 151.213 140.994 151.027 140.849 150.76C140.711 150.493 140.695 150.177 140.816 149.902C140.873 149.781 140.921 149.651 140.962 149.53C141.107 149.125 141.357 148.454 142.1 148.429C142.519 148.413 142.899 148.567 143.189 148.688C143.262 148.721 143.335 148.753 143.407 148.777C143.674 148.866 143.883 149.069 143.988 149.327C144.093 149.586 144.093 149.878 143.972 150.128C143.948 150.177 143.932 150.234 143.908 150.29C143.803 150.59 143.641 151.051 143.173 151.31C142.963 151.423 142.753 151.464 142.552 151.464H142.56ZM151.406 146.811C150.914 146.811 150.47 146.633 150.099 146.487C149.969 146.439 149.84 146.382 149.711 146.342C149.461 146.261 149.243 146.083 149.13 145.848C149.009 145.614 148.993 145.339 149.073 145.088C149.114 144.974 149.138 144.853 149.17 144.732C149.275 144.262 149.421 143.631 149.969 143.259C150.518 142.887 151.148 143.041 151.705 143.17C151.898 143.219 152.108 143.267 152.334 143.308C152.625 143.356 152.883 143.526 153.037 143.785C153.182 144.044 153.206 144.351 153.101 144.635C153.012 144.861 152.948 145.088 152.883 145.298C152.689 145.945 152.463 146.674 151.697 146.787C151.6 146.803 151.503 146.803 151.414 146.803L151.406 146.811ZM144.666 144.869C144.037 144.869 143.214 144.618 142.705 144.036C142.237 143.502 142.447 142.863 142.632 142.296C142.689 142.11 142.762 141.908 142.818 141.681C142.891 141.374 143.109 141.123 143.399 141.002C143.69 140.88 144.021 140.913 144.287 141.075C144.465 141.188 144.634 141.277 144.796 141.358C145.248 141.592 145.716 141.843 145.99 142.345C146.353 143.024 145.917 143.89 145.772 144.141C145.506 144.602 145.167 144.845 144.755 144.861C144.723 144.861 144.699 144.861 144.666 144.861V144.869ZM120.403 103.653C120.169 103.653 119.943 103.572 119.758 103.41C119.54 103.224 119.419 102.949 119.419 102.666V101.113C119.419 100.846 119.524 100.595 119.717 100.409C119.903 100.223 120.153 100.134 120.42 100.125L122.163 100.158C122.421 100.158 122.671 100.271 122.849 100.457C123.027 100.643 123.132 100.902 123.123 101.161C123.123 101.266 123.123 101.396 123.14 101.525C123.18 102.1 123.228 102.876 122.526 103.232C122.026 103.483 121.485 103.54 121.009 103.58C120.855 103.597 120.694 103.613 120.533 103.629C120.484 103.629 120.436 103.637 120.387 103.637L120.403 103.653ZM147.064 90.7155C146.135 90.7155 145.135 90.3191 144.868 90.2139C143.956 89.8255 143.488 89.3886 143.391 88.8222C143.125 87.1959 143.682 85.165 144.699 84.0808C145.401 83.3364 146.499 83.5873 148.024 83.9433C148.63 84.0808 149.316 84.2427 150.026 84.3478C150.333 84.3964 150.599 84.5825 150.744 84.8576C150.89 85.1327 150.898 85.4644 150.76 85.7476C150.478 86.3383 150.252 86.8965 150.034 87.4386C149.534 88.6847 149.106 89.7689 148.194 90.4081C147.879 90.6265 147.483 90.7074 147.064 90.7074V90.7155ZM145.304 88.2397C145.732 88.4905 146.749 88.7979 147.144 88.7494C147.548 88.4096 147.855 87.6166 148.218 86.7185C148.299 86.5082 148.387 86.2897 148.484 86.0632C148.169 85.9984 147.871 85.9256 147.588 85.8609C147.056 85.7395 146.345 85.5696 146.022 85.5615C145.538 86.1845 145.239 87.3173 145.312 88.2397H145.304ZM126.836 84.3317C126.441 84.3317 126.029 84.2669 125.561 84.1941C125.23 84.1456 124.843 84.0808 124.399 84.0323C124.068 83.9999 123.777 83.7976 123.624 83.4983C123.471 83.1989 123.487 82.8429 123.648 82.5597C123.882 82.1552 124.068 81.7749 124.229 81.435C124.641 80.5774 125.004 79.833 125.803 79.6874C126.949 79.4851 128.168 80.4884 128.652 81.0467C128.975 81.4189 129.032 81.9529 128.822 82.673C128.652 83.2636 128.313 83.9999 127.66 84.2103C127.385 84.2993 127.119 84.3317 126.836 84.3317ZM126.005 82.2684C126.352 82.3251 126.635 82.3574 126.853 82.3574C126.885 82.2765 126.917 82.1875 126.941 82.1066C126.723 81.9124 126.481 81.7587 126.304 81.6778C126.215 81.8396 126.102 82.0742 126.005 82.2684ZM118.41 79.8573C118.256 79.8573 118.103 79.8249 117.966 79.7521C117.885 79.7116 117.788 79.6712 117.699 79.6388C117.344 79.4932 116.9 79.3071 116.586 78.8944C116.19 78.3685 116.376 77.794 116.521 77.3329C116.569 77.1872 116.618 77.0254 116.658 76.8474C116.731 76.5318 116.957 76.2729 117.264 76.1516C117.57 76.0302 117.909 76.0706 118.176 76.2567C118.337 76.3619 118.482 76.4509 118.62 76.5318C119.007 76.7665 119.411 77.0092 119.653 77.4704C119.968 78.0772 119.653 78.6517 119.435 79.032C119.394 79.1129 119.346 79.1857 119.314 79.2585C119.209 79.5094 118.999 79.7035 118.749 79.8006C118.644 79.8411 118.531 79.8573 118.41 79.8573ZM171.722 77.0497C170.237 77.0497 168.865 76.2406 168.066 74.857C167.17 73.3116 167.259 71.4264 168.276 70.0509C168.647 69.5573 169.034 69.2013 169.478 68.9505C170.988 68.109 174.087 69.1042 175.136 70.4392C175.992 71.5315 176.283 72.8504 175.919 74.056C175.532 75.3424 174.483 76.3538 173.03 76.8312C172.771 76.9202 172.505 76.9768 172.215 77.0092C172.045 77.0254 171.884 77.0416 171.722 77.0416V77.0497ZM169.85 71.2322C169.18 72.1303 169.365 73.1821 169.769 73.878C170.261 74.7356 171.101 75.1806 171.989 75.0673C172.15 75.0512 172.287 75.0188 172.416 74.9703C173.248 74.6952 173.845 74.1531 174.039 73.4896C174.216 72.8989 174.063 72.2436 173.595 71.6529C173.014 70.9085 170.899 70.4069 170.431 70.6658C170.237 70.771 170.043 70.9571 169.85 71.2241V71.2322ZM126.982 75.0754C126.223 75.0754 125.311 74.59 124.988 73.9589C124.697 73.3925 124.851 72.818 124.988 72.2597C125.036 72.0655 125.101 71.8471 125.141 71.6124C125.198 71.305 125.392 71.0461 125.666 70.9085C125.94 70.771 126.271 70.771 126.546 70.9085C126.772 71.0218 126.974 71.1027 127.167 71.1755C127.66 71.3697 128.168 71.572 128.491 72.0655C128.862 72.6319 128.943 73.2954 128.709 73.8941C128.483 74.4767 127.983 74.8974 127.337 75.0512C127.224 75.0754 127.103 75.0916 126.982 75.0916V75.0754ZM126.885 73.1902L126.909 73.2064C126.909 73.2064 126.893 73.1902 126.877 73.1902H126.885ZM120.242 73.0203C120.089 73.0203 119.935 72.9879 119.798 72.9151C119.733 72.8828 119.661 72.8585 119.588 72.8261C119.265 72.6967 118.821 72.5267 118.539 72.0898C118.289 71.7095 118.24 71.2969 118.2 70.8681C118.184 70.6981 118.159 70.504 118.127 70.2855C118.063 69.9133 118.216 69.5411 118.523 69.3227C118.821 69.1042 119.225 69.0718 119.556 69.2498C119.935 69.4521 120.242 69.5897 120.484 69.7029C121.057 69.97 121.646 70.245 121.663 70.9571C121.663 71.4668 121.453 71.8714 121.283 72.195C121.243 72.2759 121.194 72.3568 121.162 72.4377C121.049 72.6805 120.847 72.8747 120.597 72.9637C120.492 73.0041 120.379 73.0203 120.266 73.0203H120.242ZM151.689 70.9813C150.639 70.9813 149.558 70.7467 148.856 70.1156C148.04 69.3874 148.097 68.1495 148.161 66.5879C148.194 65.9001 148.226 65.1234 148.194 64.3062C148.178 63.9745 148.339 63.6589 148.605 63.4647C148.872 63.2705 149.219 63.2301 149.525 63.3514C150.292 63.6508 150.994 63.8693 151.608 64.0554C152.972 64.4761 154.054 64.8159 154.715 65.6736C155.474 66.6445 155.127 68.5864 154.933 69.2579C154.788 69.7434 154.53 70.415 153.892 70.6334C153.303 70.8357 152.504 70.9813 151.681 70.9813H151.689ZM150.163 65.6574C150.155 66.0134 150.139 66.3532 150.123 66.6769C150.09 67.4213 150.05 68.4488 150.187 68.6835C150.607 69.0557 151.979 69.1366 153.012 68.8534C153.198 68.3679 153.319 67.1866 153.158 66.8549C152.891 66.5151 152.076 66.2642 151.035 65.9406C150.76 65.8516 150.47 65.7626 150.163 65.6655V65.6574Z" fill="currentColor"/>
<path d="M103.889 129.087C103.671 129.087 103.453 129.014 103.275 128.869C103.041 128.683 102.823 128.505 102.621 128.343C102.21 128.003 101.846 127.712 101.475 127.437L101.168 127.21C100.789 126.927 100.426 126.652 100.087 126.539C98.0367 125.827 96.4547 124.516 95.1874 123.326C94.7919 122.954 94.3561 122.623 93.9041 122.266C93.5812 122.016 93.2583 121.765 92.9435 121.498L92.4996 121.126C91.9185 120.648 91.3212 120.155 90.8046 119.556C89.7714 118.35 88.5526 117.549 87.0836 117.104L86.9787 117.072C86.785 117.023 86.5267 116.951 86.2684 116.781C85.0899 115.988 83.7339 115.599 82.2972 115.187C81.3205 114.904 80.3197 114.62 79.3511 114.192C78.1161 113.649 76.8973 113.043 75.7189 112.46C74.3306 111.772 72.8939 111.06 71.4491 110.453C71.0778 110.3 70.8195 110.041 70.6338 109.855C70.5854 109.814 70.545 109.766 70.5047 109.733C70.2948 109.555 70.1657 109.305 70.1495 109.029C70.1495 108.989 70.1415 108.949 70.1334 108.908C70.1011 108.698 70.0365 108.253 70.3755 107.864C71.3845 106.715 72.006 105.324 72.6679 103.851C73.2329 102.589 73.814 101.286 74.6696 100.105C75.0974 99.5143 75.1539 99.4415 74.4678 98.8023C73.3862 97.799 72.7566 96.5773 72.4176 94.8539C72.3208 94.3684 72.0302 93.7858 71.5943 93.2275C70.8114 92.2081 70.1011 91.0591 70.1738 89.5461C70.2141 88.7855 70.0365 88.2677 69.5603 87.766C68.5514 86.698 68.3738 85.363 68.3334 84.1979C68.3092 83.5425 68.2447 82.7334 67.9541 82.2317C67.1631 80.8886 66.7837 79.6102 66.7756 78.2105V78.1295C66.7756 77.8302 66.7756 77.4499 66.6869 77.2881C65.5568 75.0064 65.3551 72.6033 65.1613 70.2893C65.0968 69.5206 65.0322 68.7196 64.9273 67.9509C64.8143 67.1014 64.9676 66.09 65.3551 65.1919C65.6133 64.577 65.6295 64.2209 65.4116 63.7598C65.1452 63.2096 64.8304 62.4733 64.8143 61.6884C64.7497 59.3501 64.7658 57.4568 64.8465 55.7415V55.6444C64.8869 54.9324 64.9273 54.1071 65.2017 53.3141C65.0806 52.9986 65.016 52.6102 65.1371 52.2461C65.3228 51.704 65.7344 51.3804 66.1783 51.0405C66.3398 50.9111 66.5335 50.7735 66.7272 50.5955C66.9774 50.3771 67.3164 50.2962 67.6393 50.3852C67.9622 50.4742 68.2124 50.7169 68.3092 51.0325C68.3899 51.2914 68.4868 51.5179 68.5675 51.7202C68.8016 52.2866 69.0357 52.8772 68.737 53.476C68.3899 54.1637 67.5344 54.4874 66.9129 54.5683C66.8564 54.9324 66.8402 55.3207 66.816 55.7334V55.8305C66.7272 57.4972 66.7191 59.342 66.7837 61.6318C66.7918 62.0444 67.0178 62.5542 67.1873 62.894C67.8007 64.1562 67.5021 65.1919 67.1711 65.9605C66.929 66.5269 66.816 67.1904 66.8806 67.692C66.9855 68.5011 67.0581 69.3264 67.1227 70.1194C67.3084 72.3525 67.4859 74.4643 68.4464 76.4061C68.729 76.9725 68.729 77.6036 68.737 78.1053V78.1862C68.7451 79.2299 69.0357 80.1928 69.641 81.2284C70.1576 82.1104 70.2625 83.1865 70.2948 84.1251C70.3352 85.2659 70.537 85.9213 70.989 86.4067C71.8284 87.2887 72.1997 88.3486 72.1351 89.6351C72.0948 90.4685 72.4903 91.1643 73.1521 92.022C73.588 92.5803 74.1449 93.4622 74.3467 94.4655C74.605 95.7762 75.049 96.642 75.8158 97.3621C77.1798 98.6324 77.3171 99.7975 76.2678 101.254C75.5332 102.273 75.0086 103.43 74.4597 104.652C73.8544 106.003 73.2248 107.403 72.2643 108.649C73.7333 109.272 75.1781 109.984 76.5825 110.68C77.7448 111.255 78.9475 111.853 80.1421 112.379C80.9815 112.751 81.8775 113.01 82.8299 113.285C84.3474 113.722 85.9213 114.167 87.35 115.13C87.3661 115.13 87.4226 115.146 87.4791 115.154L87.6405 115.203C89.4728 115.761 90.9902 116.756 92.2817 118.253C92.6853 118.731 93.1938 119.143 93.7346 119.588L94.2027 119.977C94.4933 120.228 94.8 120.462 95.0986 120.697C95.5668 121.061 96.0592 121.441 96.5112 121.87C97.6896 122.97 99.0214 124.071 100.716 124.661C101.346 124.88 101.871 125.268 102.331 125.616L102.613 125.827C102.952 126.069 103.283 126.336 103.646 126.628C103.646 126.62 103.654 126.611 103.663 126.603C104.058 126.013 104.397 125.495 104.55 124.985C105.067 123.27 106.027 121.927 106.964 120.632L107.287 120.179C108.271 118.804 109.369 118.156 110.975 118.019C111.282 117.994 111.589 117.986 111.896 117.978C112.243 117.978 112.582 117.962 112.888 117.922C113.518 117.841 114.147 117.735 114.777 117.63C115.294 117.541 115.81 117.46 116.327 117.388C117.005 117.29 117.675 117.234 118.337 117.201C118.813 117.185 119.289 117.177 119.773 117.177C120.532 117.177 121.25 117.161 121.969 117.104C122.752 117.032 123.591 116.878 124.697 116.595C127.441 115.883 130.202 115.122 132.639 114.45C132.744 114.426 132.881 114.345 133.035 114.256C133.14 114.2 133.237 114.143 133.342 114.094C134.294 113.625 135.287 113.285 136.255 112.962C137.732 112.46 139.137 111.991 140.291 111.068C140.525 110.882 140.759 110.842 140.864 110.826C142.454 110.421 143.867 109.58 145.36 108.682C145.376 108.673 145.392 108.657 145.408 108.649C145.384 108.568 145.36 108.487 145.344 108.406C145.312 108.293 145.279 108.164 145.231 108.01C145.126 107.67 145.207 107.298 145.449 107.039C145.691 106.78 146.062 106.667 146.401 106.756C146.555 106.796 146.7 106.821 146.813 106.845C147.136 106.902 147.531 106.974 147.838 107.282C148.121 107.144 148.411 107.007 148.71 106.885C148.766 106.861 148.903 106.732 148.992 106.651C149.138 106.513 149.283 106.384 149.444 106.27C149.694 106.092 149.961 105.922 150.219 105.753C150.356 105.672 150.485 105.583 150.615 105.494L151.438 104.952C151.583 104.854 151.737 104.757 151.882 104.66L151.72 104.498C152.076 104.142 152.616 103.884 153.165 103.811C153.561 103.544 153.964 103.277 154.36 103.01L155.458 104.644C155.24 104.798 155.014 104.943 154.788 105.089C154.884 105.437 154.901 105.842 154.675 106.198L153.9 105.688C153.44 105.995 152.98 106.295 152.52 106.602L151.696 107.144C151.559 107.241 151.414 107.33 151.268 107.419C151.034 107.565 150.808 107.711 150.59 107.872C150.502 107.937 150.421 108.018 150.34 108.091C150.122 108.293 149.848 108.552 149.468 108.714C148.403 109.159 147.41 109.758 146.361 110.381C144.819 111.303 143.221 112.266 141.349 112.743C139.96 113.795 138.394 114.321 136.877 114.831C135.933 115.146 135.045 115.446 134.213 115.858C134.133 115.899 134.06 115.939 133.979 115.98C133.745 116.109 133.479 116.255 133.148 116.352C130.702 117.023 127.934 117.792 125.173 118.504C123.962 118.82 123.026 118.99 122.13 119.071C121.339 119.143 120.548 119.143 119.781 119.151C119.321 119.151 118.861 119.151 118.409 119.176C117.812 119.2 117.207 119.257 116.593 119.338C116.093 119.41 115.584 119.491 115.084 119.572C114.43 119.677 113.784 119.791 113.13 119.872C112.719 119.928 112.315 119.936 111.928 119.944C111.661 119.944 111.395 119.952 111.129 119.977C110.104 120.066 109.506 120.422 108.861 121.328L108.53 121.789C107.65 123.003 106.827 124.152 106.407 125.56C106.173 126.352 105.713 127.04 105.269 127.704C105.075 127.987 104.881 128.286 104.696 128.602C104.55 128.845 104.308 129.014 104.026 129.071C103.969 129.079 103.905 129.087 103.848 129.087H103.889ZM137.248 106.61C137.119 106.61 136.998 106.586 136.877 106.537C136.594 106.424 136.385 106.189 136.304 105.898C136.263 105.769 136.223 105.639 136.175 105.526C136.029 105.121 135.787 104.45 136.336 103.948C136.659 103.657 137.038 103.536 137.337 103.447C137.41 103.422 137.482 103.398 137.555 103.374C137.813 103.277 138.104 103.293 138.354 103.422C138.604 103.552 138.782 103.778 138.854 104.045C138.871 104.102 138.895 104.151 138.911 104.207C139.024 104.507 139.193 104.96 139.008 105.461C138.814 105.971 138.37 106.173 138.039 106.327C137.942 106.376 137.837 106.424 137.724 106.481C137.571 106.57 137.41 106.61 137.24 106.61H137.248ZM143.875 103.746C143.778 103.746 143.673 103.73 143.568 103.706C143.068 103.568 142.745 103.236 142.43 102.904C142.325 102.791 142.204 102.67 142.067 102.54C141.825 102.322 141.712 102.006 141.752 101.683C141.792 101.359 141.994 101.084 142.277 100.938C142.438 100.857 142.592 100.76 142.721 100.679C143.148 100.412 143.689 100.081 144.295 100.372C144.771 100.607 145.045 101.011 145.263 101.335C145.32 101.416 145.376 101.505 145.433 101.578C145.602 101.788 145.675 102.063 145.634 102.322C145.594 102.589 145.449 102.832 145.231 102.985C145.166 103.034 145.102 103.091 145.037 103.155C144.763 103.398 144.375 103.746 143.867 103.746H143.875ZM149.985 100.874C149.929 100.874 149.864 100.874 149.807 100.866C149.146 100.777 148.79 100.259 148.435 99.7652C148.314 99.5871 148.177 99.393 148.008 99.1907C147.798 98.9399 147.725 98.6 147.822 98.2845C147.919 97.9689 148.161 97.7181 148.476 97.6291C148.718 97.5563 148.928 97.4754 149.113 97.4025C149.622 97.2003 150.106 97.0142 150.663 97.1436C151.365 97.3055 151.769 98.0822 151.874 98.3168C152.092 98.8023 152.108 99.223 151.914 99.5791C151.616 100.137 150.816 100.89 149.977 100.89L149.985 100.874ZM134.302 100.21C134.197 100.21 134.092 100.21 133.995 100.186C133.293 100.073 133.043 99.4496 132.825 98.8994C132.752 98.7214 132.672 98.5191 132.567 98.3088C132.429 98.0256 132.429 97.6938 132.575 97.4106C132.72 97.1355 132.994 96.9414 133.301 96.8928C133.511 96.8604 133.697 96.82 133.874 96.7795C134.375 96.6743 134.891 96.553 135.424 96.7714C136.142 97.0627 136.36 98.0094 136.409 98.2926C136.498 98.8104 136.393 99.215 136.086 99.4981C135.69 99.8622 134.996 100.202 134.302 100.202V100.21ZM140.453 97.5158C140.323 97.5158 140.194 97.4915 140.065 97.4349C139.823 97.3297 139.629 97.1355 139.532 96.8847C139.492 96.7795 139.436 96.6663 139.371 96.553C139.153 96.1242 138.854 95.5416 139.04 94.9105C139.218 94.2713 139.799 93.98 140.315 93.7292C140.493 93.6402 140.687 93.5431 140.888 93.4217C141.147 93.268 141.453 93.2356 141.736 93.3408C142.018 93.446 142.236 93.6645 142.333 93.9476C142.414 94.1742 142.503 94.4008 142.592 94.5949C142.858 95.218 143.157 95.9219 142.64 96.5044C142.236 96.9575 141.679 97.1436 141.227 97.2974C141.098 97.3378 140.961 97.3864 140.84 97.4349C140.719 97.4835 140.59 97.5077 140.461 97.5077L140.453 97.5158ZM90.3768 83.85H90.3607C90.0781 83.85 89.8037 83.7205 89.6261 83.502L88.6333 82.3126C88.4638 82.1104 88.3831 81.8515 88.4073 81.5844C88.4316 81.3174 88.5607 81.0828 88.7706 80.9129L90.1266 79.8125C90.3284 79.6507 90.5947 79.5698 90.853 79.6021C91.1113 79.6345 91.3534 79.764 91.5149 79.9662C91.5795 80.0471 91.6682 80.1442 91.757 80.2332C92.1525 80.6459 92.6933 81.2123 92.3785 81.9324C92.1525 82.4502 91.7732 82.8386 91.4422 83.1784C91.3292 83.2917 91.2162 83.4049 91.1113 83.5263C90.9257 83.7367 90.6593 83.858 90.3768 83.858V83.85ZM72.5952 67.158C72.4741 67.158 72.345 67.1418 72.2078 67.1176C71.5701 66.9719 71.3441 66.4136 71.1585 65.9605C71.102 65.823 71.0374 65.6612 70.9567 65.4993C70.8114 65.2081 70.8114 64.8601 70.9728 64.577C71.1343 64.2938 71.4168 64.0996 71.7396 64.0753C71.9333 64.0591 72.1028 64.0268 72.2562 64.0025C72.7001 63.9297 73.1683 63.8568 73.6445 64.0591C74.2741 64.318 74.3952 64.9653 74.4759 65.3942C74.492 65.4832 74.5082 65.5722 74.5324 65.645C74.6131 65.9039 74.5808 66.1871 74.4436 66.4217C74.3064 66.6564 74.0804 66.8263 73.814 66.891C73.7252 66.9153 73.6284 66.9476 73.5315 66.9719C73.2651 67.0609 72.9423 67.158 72.5871 67.158H72.5952ZM80.9412 66.1952C80.812 66.1952 80.6829 66.1709 80.5537 66.1143C80.247 65.9848 80.0291 65.7097 79.9726 65.378C79.8919 64.9168 79.7869 64.5041 79.6982 64.1481C79.4641 63.2257 79.2623 62.4247 79.7789 61.7936C80.5295 60.8874 82.1035 60.8793 82.838 61.0007C83.3223 61.0816 83.7097 61.4538 84.0084 62.1415C84.2586 62.6998 84.4765 63.4847 84.1052 64.0672C83.7339 64.6498 83.177 64.9815 82.4828 65.4103C82.1923 65.5883 81.8613 65.7825 81.49 66.0334C81.3286 66.1466 81.1349 66.2033 80.9412 66.2033V66.1952ZM81.4416 62.9911C81.4739 63.1772 81.5385 63.428 81.595 63.6384C81.8936 63.4604 82.1438 63.2986 82.3053 63.161C82.2811 63.0801 82.2488 62.9911 82.2084 62.9102C81.9098 62.9021 81.6273 62.9425 81.4416 62.9911ZM69.7782 60.7094C69.641 60.7094 69.4957 60.6932 69.3505 60.6447C68.9065 60.5152 68.6079 60.2239 68.3012 59.9246C68.1801 59.8113 68.0429 59.6737 67.8653 59.5281C67.5828 59.2854 67.4617 58.9051 67.5505 58.541C67.6393 58.1769 67.9299 57.9018 68.2931 57.8209C68.7047 57.7319 69.0357 57.6429 69.2859 57.5701C69.8993 57.4001 70.5289 57.2302 70.997 57.7723C71.328 58.1526 71.4248 58.6057 71.4975 58.9698C71.5136 59.0588 71.5378 59.1478 71.5621 59.2368C71.6347 59.4957 71.6024 59.7708 71.4652 60.0055C71.328 60.2401 71.102 60.4019 70.8437 60.4667C70.771 60.4829 70.6984 60.5071 70.6258 60.5314C70.3998 60.6123 70.1092 60.7094 69.7863 60.7094H69.7782ZM76.1548 58.0393C75.9126 58.0393 75.6866 57.9989 75.4848 57.918C74.9037 57.6752 74.6454 57.1331 74.4032 56.6153C74.3144 56.4292 74.2257 56.2269 74.1046 56.0166C73.9512 55.7496 73.927 55.4259 74.0562 55.1346C74.1772 54.8514 74.4275 54.6411 74.7261 54.5683C74.9682 54.5116 75.1781 54.4388 75.3718 54.3741C75.8723 54.2042 76.3969 54.0342 76.9538 54.2042C77.5996 54.3983 78.0919 54.8595 78.2937 55.4583C78.4874 56.0489 78.3744 56.6962 77.987 57.2221C77.6238 57.7157 76.8489 58.0313 76.1628 58.0313L76.1548 58.0393ZM76.4373 56.1056C76.4373 56.0975 76.4615 56.0975 76.4695 56.0975C76.4615 56.0975 76.4453 56.0975 76.4373 56.0975V56.1056ZM100.046 57.7481C99.6591 57.7481 99.3523 57.6429 99.1102 57.4406C97.8672 56.3645 96.9874 54.4469 97.0681 52.9743C97.1246 51.9467 98.1335 51.437 99.5218 50.725C100.079 50.4418 100.7 50.1262 101.314 49.746C101.58 49.5841 101.911 49.5518 102.194 49.6731C102.484 49.7945 102.694 50.0372 102.775 50.3447C102.936 50.9758 103.122 51.5503 103.307 52.1086C103.727 53.387 104.09 54.4874 103.8 55.5716C103.477 56.769 101.516 57.4325 101.12 57.5539C100.7 57.6833 100.345 57.7481 100.038 57.7481H100.046ZM99.0295 53.2575C99.0618 54.0504 99.5541 55.1104 100.2 55.7657C100.692 55.6848 101.661 55.2479 101.935 54.9728C102.024 54.455 101.758 53.6459 101.451 52.7235C101.378 52.5131 101.306 52.2866 101.233 52.0519C100.951 52.2057 100.676 52.3432 100.418 52.4727C99.9254 52.7235 99.2797 53.0552 99.0295 53.2494V53.2575ZM91.3777 39.5997C91.3777 39.5997 91.3212 39.5997 91.297 39.5997C90.2073 39.5674 89.4566 38.5883 88.5042 37.3423C88.0845 36.8002 87.6163 36.1772 87.0594 35.5704C86.8415 35.3276 86.7527 34.9878 86.8334 34.6642C86.9141 34.3405 87.1563 34.0897 87.463 33.9764C88.2378 33.7094 88.9159 33.4262 89.5131 33.1754C90.8288 32.6171 91.87 32.1802 92.9355 32.4067C94.1381 32.6657 95.1229 34.381 95.3973 35.0202C95.5991 35.4814 95.8251 36.1691 95.478 36.7436C94.7677 37.9411 93.0243 39.5997 91.3615 39.5997H91.3777ZM89.4405 35.3438C89.6665 35.627 89.8683 35.894 90.062 36.1448C90.514 36.7355 91.1355 37.5527 91.3938 37.6336C91.9427 37.666 93.0565 36.8245 93.67 35.9425C93.5005 35.449 92.8386 34.47 92.4915 34.3162C92.088 34.2353 91.2808 34.559 90.2799 34.9878C90.0136 35.1011 89.7311 35.2143 89.4324 35.3357L89.4405 35.3438ZM110.62 31.1364C110.104 31.1364 109.579 31.0474 109.062 30.8532C107.384 30.2464 106.237 28.7496 106.14 27.0423C106.108 26.4274 106.173 25.9015 106.358 25.4241C106.972 23.814 109.983 22.5761 111.645 22.9159C113.001 23.1991 114.067 24.0244 114.567 25.1895C115.092 26.4274 114.938 27.8757 114.139 29.1784C113.994 29.413 113.825 29.6315 113.631 29.8419C112.84 30.6914 111.758 31.1364 110.62 31.1364ZM110.983 24.8173C109.999 24.8173 108.368 25.6669 108.191 26.12C108.11 26.3303 108.078 26.5892 108.102 26.921C108.166 28.0375 108.982 28.7253 109.732 29.0004C110.652 29.3402 111.581 29.146 112.194 28.4826C112.307 28.3693 112.396 28.2479 112.469 28.1346C112.929 27.3903 113.034 26.5973 112.767 25.9581C112.525 25.3918 111.984 24.9953 111.25 24.8416C111.169 24.8254 111.08 24.8173 110.983 24.8173Z" fill="currentColor"/>
</svg>
