<svg width="304" height="300" viewBox="0 0 304 300" fill="none" xmlns="http://www.w3.org/2000/svg">
<path d="M120.978 288.361L117.528 286.331C115.098 284.891 114.798 283.431 114.988 282.471C115.228 281.231 116.348 280.341 117.498 279.971C117.668 279.871 117.898 279.801 118.238 279.831L124.918 280.321L119.768 281.151C120.268 281.401 120.898 281.671 121.638 281.911C122.278 281.881 123.498 281.691 124.738 280.751C125.018 280.481 125.298 280.201 125.588 279.911L135.948 269.711L127.088 280.631C126.658 281.161 126.218 281.591 125.768 281.941C124.608 283.081 123.528 284.091 122.668 284.731L122.518 284.821C121.298 285.361 120.108 285.541 119.238 285.671C119.148 285.681 119.058 285.701 118.968 285.711L120.988 288.361H120.978ZM117.588 281.621C117.068 281.871 116.618 282.291 116.528 282.761C116.428 283.271 116.808 283.871 117.568 284.471C117.918 284.281 118.408 284.211 118.988 284.121C119.708 284.011 120.668 283.861 121.618 283.491C121.588 283.491 121.558 283.491 121.528 283.491H121.398L121.278 283.451C120.938 283.341 118.638 282.581 117.588 281.621Z" fill="currentColor"/>
<path d="M131.369 288.67L108.289 273.83C101.959 269.76 101.289 269.34 101.719 268.35C101.979 267.76 102.429 267.62 104.039 267.92C104.059 267.88 104.079 267.84 104.099 267.81C104.199 267.64 104.329 267.47 104.539 267.34C103.449 266.71 103.169 266.26 103.279 265.66C103.329 265.39 103.449 265.17 103.679 265C101.609 260.34 102.799 256.62 106.799 251.08C106.939 250.7 107.179 250.28 107.509 249.81C105.709 249.94 104.399 249.57 103.469 248.71C101.629 247 101.529 243.5 102.219 238.13C101.149 238.99 100.199 239.29 99.2791 239.06C98.0591 238.75 97.1391 237.54 96.4191 235.22C96.3291 235.16 96.2391 235.1 96.1491 235.04C94.7491 237.37 93.4791 238.4 92.2291 238.37C91.9491 238.37 91.6891 238.3 91.4491 238.2C91.3991 238.2 91.3391 238.22 91.2891 238.22C90.4291 238.27 89.9891 237.49 88.9791 235.11C88.9091 234.96 88.8491 234.8 88.7891 234.66L90.2391 234.06C90.2791 234.16 90.3391 234.29 90.3991 234.43C90.6891 235.1 90.9591 235.58 91.1991 235.93C91.2691 235.71 91.3391 235.47 91.4091 235.25C91.7491 234.16 92.2091 232.66 92.9591 230.92L93.5191 229.64L94.3191 230.78C94.8091 231.48 95.2791 232.07 95.7291 232.56C95.7791 232.46 95.8291 232.37 95.8791 232.27L96.8891 230.22L97.3491 232.46C97.4791 233.11 97.6191 233.68 97.7591 234.18C98.0791 234.33 98.3891 234.42 98.7091 234.47C99.8291 234.63 101.099 234.14 102.599 232.96L103.859 231.97V233.57C103.869 233.73 103.879 233.89 103.879 234.05L104.539 233.26L104.129 236.03C104.099 236.26 104.059 236.49 104.029 236.71C104.219 238.57 104.639 240.27 105.589 240.83C105.739 240.92 105.909 240.98 106.099 241.02C106.549 240.02 107.349 238.63 108.609 236.63C108.119 235.48 107.739 234.16 107.399 232.74C105.429 230.43 103.729 227.4 102.059 224.44L101.299 223.09C100.209 221.15 99.0991 219.18 98.0691 217.19C97.4991 216.32 96.9391 215.46 96.3791 214.61C95.1991 212.81 94.0191 211.01 92.8791 209.21L92.4191 208.48L93.1891 208.09C93.6791 207.84 94.0891 207.6 94.4891 207.36C95.3791 206.83 96.2091 206.33 97.6091 205.97C99.7891 205.23 100.209 203.51 100.409 202.69C100.499 202.3 100.609 201.86 101.099 201.72L101.529 201.59L101.899 201.91C102.549 202.55 102.269 203.33 101.959 203.89C102.249 203.87 102.609 203.83 103.049 203.75L103.829 203.6L104.949 210.08L104.589 210.37C102.909 211.71 100.439 211 98.4491 210.44C97.8591 210.27 97.0191 210.03 96.6091 210.02C96.6091 210.06 96.6291 210.11 96.6391 210.16C97.3691 212.23 98.3191 214.28 99.3891 216.35C100.089 217.43 100.789 218.51 101.469 219.6C101.969 220.39 102.459 221.19 102.939 221.97C104.769 224.94 106.499 227.74 108.269 229.82L108.399 229.98L108.439 230.18C108.559 230.8 108.689 231.41 108.819 231.99C109.359 232.6 109.919 233.14 110.499 233.6L110.699 233.28L110.629 233.7C110.789 233.82 110.949 233.93 111.109 234.04L111.479 234.28L111.459 234.72C111.409 235.96 111.379 237.11 111.389 238.16C111.599 238.38 111.819 238.57 112.069 238.74L112.879 238.31C112.519 237.11 112.359 235.75 112.279 234.34C111.999 233.72 111.749 233.08 111.509 232.42C110.439 230.61 109.519 228.19 108.709 225.09C107.859 221.84 107.479 219.15 107.509 216.59C107.319 215.36 107.189 214.11 107.099 212.83C106.359 208.91 106.049 207.42 105.939 206.94C105.549 206.58 105.299 206.1 105.199 205.51C105.079 204.82 105.199 204.21 105.569 203.7L105.869 203.28L106.379 203.39C106.786 203.477 107.539 206.467 108.639 212.36V212.46C108.649 212.52 108.659 212.57 108.659 212.63C108.799 213.36 108.949 214.18 109.119 215.09L109.139 215.19V215.29C109.099 215.69 109.089 216.09 109.079 216.5C109.539 219.54 110.299 222.51 111.189 225.85C111.699 227.78 112.249 229.84 112.939 231.76C113.169 232.14 113.399 232.48 113.639 232.8L113.789 233V233.25C113.799 233.5 113.809 233.74 113.819 233.97C114.309 235.05 114.879 236.04 115.529 236.88L115.939 236.66L115.589 236.96C115.639 237.02 115.679 237.08 115.729 237.13L116.009 237.47L115.859 237.89C115.609 238.6 115.419 239.2 115.279 239.71C115.749 240.28 116.329 240.64 117.059 240.85L117.919 241.09L117.569 241.91C117.489 242.09 117.419 242.27 117.349 242.44C117.379 242.44 117.409 242.43 117.429 242.42L118.949 242.1L118.299 243.52C117.399 245.49 116.879 247.07 116.739 248.32L117.629 248.62L117.059 249.16C117.769 249.81 118.949 250.22 120.629 250.43L121.819 250.57L121.209 251.6C121.029 251.9 120.859 252.2 120.699 252.48C120.879 252.51 121.059 252.53 121.239 252.56L123.139 252.8L121.619 253.96C120.729 254.64 120.089 255.18 119.639 255.61L121.199 256.19L119.159 256.08C119.099 256.15 119.039 256.21 118.979 256.27C118.939 256.39 118.909 256.5 118.879 256.61L121.199 256.58L119.959 257.11C120.399 257.1 120.959 257.06 121.669 256.98C121.769 256.97 121.879 256.95 121.989 256.94L122.039 257.36C122.259 257.35 122.489 257.34 122.729 257.32L136.379 256.58L128.169 257.98L144.609 256.96L128.719 258.81L130.849 258.88L123.559 260.13L133.709 260.76L123.139 261.66C122.919 261.68 122.699 261.7 122.499 261.72V262.25L132.049 263.52L117.469 263.17C113.549 263.08 111.579 262.78 110.769 262.09C109.229 261.7 108.969 261.33 108.969 260.76C108.969 260.44 109.059 260.19 109.379 259.98C108.549 259.69 108.049 259.25 107.839 258.66C107.719 258.33 107.699 257.98 107.789 257.6C106.889 258.52 106.339 259.39 106.379 260.14C106.439 261.29 107.939 262.58 111.079 264.18L113.739 265.54L110.759 265.67C109.499 265.72 107.309 265.82 105.889 265.98C105.979 266.14 106.079 266.3 106.179 266.46C107.209 266.96 108.659 267.58 110.189 268.22C110.629 268.4 111.109 268.59 111.619 268.82L110.999 270.26C110.509 270.06 110.049 269.86 109.609 269.68C109.009 269.45 108.499 269.26 108.049 269.12L109.379 270.86L107.189 270.31C107.009 270.26 106.789 270.21 106.559 270.15C107.299 270.92 108.479 271.97 110.319 273.32L131.319 288.68L131.369 288.67ZM107.239 253.21C104.119 257.85 103.499 260.88 105.159 264.5C105.849 264.38 106.789 264.3 108.019 264.22C105.879 262.85 104.929 261.62 104.849 260.22C104.739 258.29 106.459 256.38 109.449 254.16C109.329 254.04 109.219 253.92 109.129 253.79C108.259 253.74 107.639 253.55 107.229 253.22L107.239 253.21ZM112.309 260.8C113.529 261.03 115.309 261.29 117.629 261.6L118.339 261.69C118.319 261.61 118.309 261.53 118.309 261.43C118.309 261.36 118.309 261.3 118.309 261.24C118.009 260.98 117.759 260.68 117.569 260.34C117.529 260.27 117.489 260.19 117.459 260.12L115.689 260.33C114.199 260.5 113.119 260.65 112.339 260.78C112.339 260.78 112.319 260.79 112.319 260.8H112.309ZM110.139 256.66C109.289 257.63 109.319 258.02 109.359 258.13C109.389 258.21 109.689 258.77 112.459 258.85C112.849 258.63 113.299 258.39 113.829 258.12C111.909 257.96 110.649 257.55 110.139 256.66ZM117.079 258.35C116.769 258.48 116.489 258.61 116.219 258.73L117.089 258.68C117.089 258.57 117.079 258.46 117.079 258.35ZM111.549 255.26C111.449 255.51 111.419 255.7 111.479 255.84C111.609 256.15 112.489 256.68 116.979 256.63C117.039 256.42 117.129 256.21 117.269 255.97L116.099 255.91C114.179 255.81 112.689 255.6 111.559 255.26H111.549ZM114.079 253.22C114.699 253.65 115.479 254.04 116.409 254.39L117.809 254.91C117.979 254.46 118.179 253.98 118.419 253.49C117.349 253.09 116.559 252.53 116.019 251.81L115.259 252.35C114.839 252.65 114.449 252.94 114.079 253.21V253.22ZM108.199 251.84C108.199 251.9 108.199 251.94 108.209 251.97C108.209 251.97 108.289 252.07 108.619 252.14C108.619 252.06 108.619 251.97 108.619 251.88C108.529 251.79 108.439 251.69 108.369 251.58C108.309 251.66 108.249 251.75 108.189 251.83L108.199 251.84ZM117.699 251.31C118.069 251.62 118.549 251.88 119.139 252.09C119.189 251.99 119.249 251.89 119.309 251.78C118.709 251.66 118.179 251.5 117.699 251.31ZM112.009 248.32C111.899 249.4 111.999 250.35 112.339 251.16C112.479 251.16 112.639 251.15 112.799 251.14C113.359 250.56 113.999 249.91 114.749 249.2C113.869 248.77 113.139 248.24 112.529 247.62C112.349 247.86 112.179 248.09 112.019 248.33L112.009 248.32ZM110.429 251.05C110.499 251.06 110.579 251.08 110.659 251.09C110.629 250.97 110.589 250.85 110.569 250.72C110.519 250.83 110.479 250.94 110.429 251.04V251.05ZM115.439 250.71C115.389 250.76 115.329 250.81 115.279 250.87L115.489 250.84C115.489 250.84 115.459 250.76 115.439 250.71ZM103.519 240.87C103.249 244.19 103.459 246.54 104.559 247.56C105.379 248.32 106.809 248.47 109.039 248.02C109.539 247.49 110.109 246.92 110.779 246.28C110.799 246.2 110.819 246.12 110.839 246.04C110.059 246.03 109.449 245.82 108.969 245.41C108.409 244.94 108.089 244.25 107.959 243.32C107.009 243.89 106.439 243.91 105.979 243.52C105.709 243.29 105.559 242.99 105.609 242.5C105.309 242.42 105.039 242.31 104.779 242.15C104.279 241.85 103.869 241.43 103.529 240.86L103.519 240.87ZM113.489 246.38C113.829 246.75 114.219 247.08 114.659 247.37C114.599 246.56 114.709 245.63 114.989 244.56L114.539 245.1C114.189 245.52 113.829 245.95 113.489 246.38ZM109.439 242.26C109.449 243.19 109.599 243.9 109.969 244.22C110.129 244.36 110.359 244.44 110.649 244.47C110.359 243.63 110.169 242.73 110.039 241.77C109.829 241.95 109.629 242.11 109.439 242.27V242.26ZM113.599 242.71C113.419 243.17 113.249 243.62 113.089 244.05C113.279 243.99 113.469 243.93 113.669 243.86L114.279 243.64C114.179 243.56 114.079 243.47 113.989 243.37C113.819 243.17 113.689 242.95 113.599 242.71ZM111.479 240.53C111.549 241.41 111.659 242.21 111.829 242.93C112.089 242.24 112.379 241.52 112.699 240.77C112.339 240.66 111.999 240.52 111.679 240.35L111.479 240.52V240.53ZM114.979 241.56C114.979 241.98 115.059 242.21 115.169 242.34C115.239 242.42 115.369 242.51 115.619 242.56C115.679 242.4 115.749 242.23 115.819 242.06C115.509 241.92 115.229 241.75 114.979 241.56ZM109.779 238.7C109.709 239.16 109.639 239.62 109.589 240.06C109.639 240.03 109.699 240 109.759 239.97L109.869 239.91C109.849 239.53 109.839 239.15 109.829 238.76C109.809 238.74 109.799 238.72 109.779 238.7ZM112.999 239.21C113.079 239.24 113.159 239.26 113.239 239.29C113.209 239.22 113.179 239.15 113.149 239.08L112.999 239.21ZM98.3891 235.99C98.8991 237.13 99.3691 237.46 99.6691 237.53C100.279 237.68 101.229 237.08 102.359 235.81C102.339 235.56 102.329 235.3 102.319 235.03C100.949 235.86 99.6891 236.18 98.4691 236C98.4391 236 98.4091 236 98.3791 235.99H98.3891ZM93.8891 232.79C93.4591 233.92 93.1491 234.91 92.9091 235.69C92.7891 236.09 92.6791 236.44 92.5691 236.75C93.0391 236.59 93.8091 235.96 94.9491 233.99C94.5991 233.64 94.2491 233.24 93.8891 232.79ZM109.599 234.87C109.599 234.87 109.619 234.93 109.629 234.96L109.659 234.91C109.659 234.91 109.619 234.88 109.599 234.86V234.87ZM94.6391 209.06C94.7691 209.27 94.9091 209.48 95.0391 209.69C95.0691 209.34 95.1991 209.05 95.4291 208.84C96.1491 208.15 97.3491 208.49 98.8691 208.92C100.329 209.33 102.109 209.84 103.229 209.35L102.539 205.39C101.899 205.47 101.359 205.47 100.909 205.39C100.339 206.19 99.4491 206.98 98.0291 207.46C96.7991 207.78 96.0891 208.2 95.2691 208.69C95.0691 208.81 94.8491 208.94 94.6291 209.06H94.6391Z" fill="currentColor"/>
<path d="M115.85 246.231C115.66 246.231 115.55 246.101 115.4 245.901C115.12 245.901 114.87 245.801 114.67 245.601C114.12 245.061 114.25 244.261 115.3 242.521C114.83 242.701 114.42 242.701 114.06 242.451C113.63 242.161 113.47 241.691 113.58 240.821C112.77 239.551 112.55 237.501 112.56 234.641C111.79 232.831 111.2 230.731 110.63 228.631C110.3 227.721 109.98 226.801 109.68 225.931C108.73 223.211 107.66 220.131 107.69 216.991C107.76 215.191 107.14 211.771 106.59 208.761C106.14 206.341 105.72 204.031 105.33 201.941C105.03 199.921 104.76 198.031 105.38 196.721C105.49 196.401 105.64 196.111 105.83 195.841C106.08 194.971 106.76 194.351 107.36 193.791C107.5 193.661 107.65 193.521 107.78 193.391C108.04 192.921 108.28 192.441 108.52 191.951L110.01 188.981V192.301C110.01 193.151 109.57 193.791 109.05 194.341C108.48 195.361 107.8 196.381 106.83 197.341C106.48 198.491 106.74 200.351 106.99 202.161L109.47 215.601C109.73 219.551 110.83 223.491 111.89 227.291L111.92 227.381C111.99 227.641 112.06 227.911 112.13 228.171C112.79 230.021 113.47 231.841 114.08 233.231L114.15 233.391V233.561C114.15 233.821 114.14 234.071 114.14 234.331C114.64 235.451 115.2 236.411 115.88 237.121L116.22 237.471L116.06 237.931C115.99 238.111 115.93 238.291 115.88 238.451C116.09 238.111 116.33 237.731 116.6 237.321C116.81 235.671 118.25 232.541 119.78 229.231L119.88 229.001C120.92 226.741 121.96 224.471 122.88 222.461C124.79 218.291 127.17 216.691 127.27 216.621L143.2 206.101L128.19 217.891C128.19 217.891 126.23 219.491 124.69 223.331C123.88 225.411 122.98 227.761 122.07 230.111C120.82 233.351 119.41 237.031 119.46 238.651V238.871L119.36 239.061C119.09 239.531 118.87 239.931 118.67 240.291L118.65 240.321C118.29 240.991 118.05 241.471 117.9 241.831C117.97 241.791 118.04 241.741 118.11 241.691L126.27 236.071L122.12 240.021L139.42 228.141L130.14 235.361L134.44 232.671L119.18 244.061C117.88 245.031 117.09 245.621 116.58 245.941C116.58 245.941 116.58 245.941 116.57 245.951C116.23 246.161 116.02 246.241 115.87 246.241L115.85 246.231ZM116.51 240.381L116.71 240.601C117 240.011 117.38 239.311 117.86 238.461C117.86 238.371 117.86 238.271 117.87 238.171C117.24 239.161 116.8 239.871 116.51 240.381ZM114.25 237.641C114.27 237.791 114.29 237.941 114.31 238.091C114.34 238.001 114.37 237.921 114.4 237.831C114.35 237.771 114.3 237.711 114.25 237.651V237.641ZM110 233.301L108.59 232.421L106.55 232.921C103.19 233.741 101.16 231.011 99.0599 227.581L98.4899 227.171C97.0299 226.121 95.2199 224.821 93.3299 223.561L92.4799 223.021C90.4999 221.781 88.4599 220.491 86.6899 218.721L85.9199 217.951L86.8899 217.461C90.4399 215.691 93.4999 216.771 95.6099 217.911C95.4799 217.791 95.3499 217.671 95.2299 217.551C93.2299 215.641 91.0099 213.321 89.6799 210.671C88.9999 209.091 88.9499 207.861 89.4999 206.851C90.4699 205.091 92.9699 204.681 95.3899 204.291C96.2099 204.161 96.9899 204.031 97.6699 203.861C97.3499 201.361 96.9799 198.561 96.5899 196.111C95.9699 192.221 96.2799 189.311 97.3599 188.701C97.6999 188.511 98.1199 188.541 98.4099 188.791L98.4899 188.861C99.9399 190.481 101.68 190.671 103.67 190.701C104 190.561 104.39 190.561 104.85 190.791L107.82 192.281H104.5C104.38 192.281 104.25 192.281 104.13 192.281C104.01 192.431 103.86 192.701 103.77 192.861C103.45 193.431 103.04 194.151 102.27 194.131C101.9 194.131 101.59 193.951 101.32 193.681C101.06 194.671 100.81 196.561 101.18 199.551C101.48 201.951 101.92 205.591 99.3699 206.891L99.2299 206.961H99.0799C96.7299 207.171 95.0799 207.901 95.0799 208.741C95.0799 213.161 98.0799 216.521 101.25 220.081C102.82 221.841 104.41 223.621 105.78 225.391L106.89 226.501L106.45 226.281C107.66 227.931 108.64 229.561 109.22 231.151L109.99 233.271L110 233.301ZM94.7299 220.941C96.4599 222.781 98.5299 224.211 100.41 225.401L100.6 225.561C102.86 228.311 104.88 230.651 106.69 231.451L107.87 231.971C106.29 230.921 104.94 229.301 103.52 227.591C102.75 226.661 101.96 225.711 101.12 224.841C99.0899 222.881 96.9899 221.591 94.7399 220.941H94.7299ZM103.02 224.591C103.6 225.241 104.15 225.901 104.68 226.541C104.2 225.921 103.69 225.291 103.16 224.661L103.01 224.591H103.02ZM88.6799 218.441C90.1199 219.691 91.7299 220.701 93.2999 221.691C92.8799 221.221 92.4799 220.731 92.1099 220.211L91.0899 218.781L92.8399 218.971C93.5799 219.051 94.3199 219.201 95.0399 219.401C92.6899 218.101 90.6799 217.791 88.6899 218.441H88.6799ZM99.2599 205.031L98.7999 205.191C97.8899 205.511 96.7999 205.681 95.6599 205.871C93.7099 206.191 91.4999 206.541 90.8999 207.631C90.5999 208.171 90.6799 208.981 91.1299 210.031C92.2699 212.311 94.2399 214.401 96.0599 216.171C94.5799 213.961 93.5399 211.561 93.5399 208.771C93.5399 207.001 95.4999 205.761 98.8099 205.451C98.9899 205.341 99.1499 205.191 99.2699 205.021L99.2599 205.031ZM98.0299 190.621C97.8499 191.441 97.6999 193.101 98.1499 195.891C98.5799 198.581 98.9799 201.681 99.3199 204.351L99.3799 204.851C100.04 203.741 99.8799 201.761 99.6399 199.771C99.1499 195.771 99.6499 192.911 100.44 191.901C99.6099 191.651 98.7899 191.261 98.0299 190.621ZM102.17 192.231C102.2 192.281 102.23 192.331 102.26 192.371C102.29 192.331 102.31 192.281 102.33 192.241C102.28 192.241 102.22 192.241 102.16 192.231H102.17Z" fill="currentColor"/>
<path d="M113.709 232.591C113.109 232.591 112.929 232.101 112.859 231.731C111.169 229.811 110.009 227.401 109.209 224.171C108.529 221.401 108.249 218.641 108.089 216.241C108.049 215.921 108.009 215.581 107.949 215.231C107.699 213.901 107.439 212.471 107.189 211.031L105.769 203.321C105.419 200.731 105.069 198.091 106.179 196.211L106.239 196.121C106.439 195.871 106.649 195.611 106.869 195.351C108.329 193.591 109.989 191.591 110.009 188.941C110.039 187.911 109.959 187.141 109.869 186.671C109.459 186.691 109.059 186.561 108.789 186.241C108.429 185.831 108.259 185.081 109.439 183.901L110.209 183.131L110.699 184.101C113.679 190.051 109.629 195.341 107.629 197.431C106.879 199.191 107.239 201.811 107.589 204.341C108.109 207.141 108.629 209.951 109.129 212.611C109.299 213.501 109.429 214.321 109.529 215.061C109.559 215.241 109.599 215.421 109.629 215.591C109.629 215.731 109.649 215.861 109.659 216.001C109.769 216.891 109.849 217.651 109.909 218.291C109.939 218.621 109.969 218.931 109.999 219.211C110.599 220.581 110.849 221.971 111.099 223.321C111.169 223.731 111.249 224.131 111.329 224.531C111.679 226.211 112.159 227.521 113.369 228.421L113.539 228.551L113.619 228.751C113.959 229.551 114.269 230.311 114.409 230.461L114.659 230.731V231.141C114.579 231.821 114.489 232.591 113.719 232.591H113.709ZM73.529 219.581C72.089 219.581 70.679 219.161 69.669 218.361C68.589 217.491 68.129 216.251 68.419 214.951C68.469 206.501 75.179 204.091 81.669 201.761C85.109 200.531 88.659 199.251 91.069 197.081C91.119 196.051 91.1491 195.011 91.1891 193.961C91.2191 193.221 91.239 192.471 91.269 191.721C91.269 188.051 91.4491 185.241 92.3991 183.571L92.459 183.481C93.849 181.661 93.729 179.471 93.599 177.161C93.559 176.491 93.529 175.811 93.519 175.131L92.9391 172.621C90.7691 163.361 88.899 155.361 89.919 145.591C90.689 140.731 91.1391 138.281 91.1491 138.261L95.959 112.301L92.699 138.501C92.699 138.501 92.369 141.161 92.019 145.451C91.359 154.481 94.559 162.051 97.949 170.061C98.809 172.101 99.709 174.211 100.519 176.341C103.099 181.491 100.399 186.521 96.989 189.511C96.009 190.671 95.759 193.041 95.629 195.441C95.439 196.701 95.2891 197.921 95.1491 199.141L94.9091 201.071L94.459 201.231C92.419 201.971 90.289 202.501 88.019 203.061C81.779 204.611 75.3291 206.211 71.4291 212.341C70.8991 213.401 71.069 214.741 71.919 215.861C72.689 216.871 74.189 217.801 76.099 217.431L81.839 216.281L76.599 218.901C75.659 219.371 74.5791 219.601 73.5091 219.601L73.529 219.581ZM69.9291 215.451C69.8391 216.101 70.0791 216.671 70.6591 217.141C70.8791 217.321 71.139 217.471 71.419 217.591C71.159 217.351 70.9091 217.091 70.6891 216.801C70.3691 216.381 70.1091 215.921 69.9291 215.451ZM75.3591 206.131C73.7191 207.071 72.339 208.221 71.389 209.731C72.589 208.261 73.9291 207.091 75.3591 206.131ZM93.739 184.391C92.939 185.851 92.829 188.791 92.839 191.751C92.809 192.531 92.7891 193.271 92.7591 194.011C92.7191 195.171 92.679 196.331 92.629 197.471V197.781L92.389 198.001C90.4291 199.881 87.819 201.121 85.099 202.171C85.949 201.951 86.8091 201.731 87.6591 201.521C89.7091 201.011 91.659 200.531 93.489 199.901L93.6091 198.941C93.7591 197.711 93.909 196.481 94.089 195.271C94.209 192.831 94.4691 190.011 95.8591 188.431L95.9291 188.361C98.909 185.761 101.309 181.411 99.099 176.971C98.259 174.801 97.3691 172.701 96.5091 170.671C94.6191 166.201 92.6891 161.641 91.5091 156.801C92.0391 161.911 93.199 166.871 94.459 172.271L95.089 175.051C95.089 175.731 95.129 176.411 95.169 177.081C95.309 179.561 95.4491 182.121 93.7491 184.391H93.739Z" fill="currentColor"/>
<path d="M203.239 238.77L205.389 232.99C206.109 231.06 206.489 229.8 206.539 229.23C205.679 229.5 203.509 230.91 201.229 232.39C200.559 232.83 199.829 233.3 199.039 233.8L198.189 232.48C208.899 225.46 213.749 222.41 218.389 222.41C218.449 222.41 218.509 222.41 218.569 222.41C220.819 216.87 223.189 212.9 227.389 206.75C227.509 205.23 228.259 203.17 229.569 200.39C228.839 199.62 228.499 198.32 228.359 196.5C227.599 194.98 227.809 192.06 228.449 187.47L230.449 173.16L229.959 189.13C229.879 191.73 229.799 194.15 229.899 196.01C229.929 196.04 229.959 196.06 229.989 196.08C230.249 196.24 230.989 196.08 232.289 195.18L234.899 193.38L233.429 196.19C232.829 197.33 232.239 198.48 231.699 199.58C231.989 199.54 232.339 199.44 232.739 199.27L235.239 198.22L233.679 200.44C231.859 203.04 230.289 205.28 228.919 207.28C228.929 207.59 228.999 207.84 229.119 208.03C229.439 208.52 230.339 208.73 231.789 208.66L234.349 208.53L232.309 210.07C225.389 215.29 222.489 218.17 219.899 223.31C219.869 223.38 219.849 223.44 219.819 223.51L219.609 224.04H219.539C218.959 225.24 218.399 226.56 217.789 228.06L217.299 229.29L216.459 228.26C215.239 226.77 214.419 226.63 213.929 226.65C212.319 226.71 210.179 228.82 206.779 233.71L203.249 238.77H203.239ZM207.859 228.15C208.059 228.43 208.129 228.79 208.099 229.29C209.109 228.05 209.999 227.11 210.829 226.44C209.919 226.93 208.939 227.5 207.869 228.15H207.859ZM213.989 225.08C214.969 225.08 215.879 225.48 216.789 226.33C217.129 225.5 217.469 224.72 217.809 223.99C216.509 224.07 215.149 224.43 213.569 225.1C213.659 225.09 213.759 225.08 213.849 225.08C213.889 225.08 213.939 225.08 213.989 225.08ZM227.809 208.9C226.299 211.15 225.039 213.11 223.939 215C225.469 213.48 227.319 211.92 229.679 210.09C228.939 209.92 228.249 209.57 227.809 208.9ZM230.939 201.13C230.719 201.6 230.509 202.07 230.309 202.52C230.619 202.08 230.929 201.63 231.259 201.17C231.149 201.17 231.049 201.15 230.949 201.14L230.939 201.13ZM230.069 197.7C230.139 198.11 230.229 198.46 230.349 198.75C230.529 198.38 230.719 198 230.919 197.61C230.629 197.68 230.349 197.71 230.069 197.7Z" fill="currentColor"/>
<path d="M136.87 243.971L147.1 239.601C147.1 239.601 148.77 238.891 151.26 237.801C152.51 237.271 154.01 236.661 155.66 235.991C157.56 235.221 159.66 234.371 161.8 233.471L161.94 233.421C168.37 232.071 173.45 228.471 176.62 222.991C177.7 221.161 178.54 219.151 179.23 217.421L179.59 216.531L180.39 217.061C181 217.461 181.64 217.781 182.21 218.061C182.94 218.431 183.52 218.711 183.88 219.091C184.48 219.151 185.01 219.211 185.47 219.291C184.65 217.181 182.32 215.421 179.89 213.581L179.57 213.321C176.44 210.711 173.2 208.011 170.4 204.501C169.16 203.551 167.98 202.811 166.79 202.221C162.58 200.441 157.92 199.141 153.42 197.891C152.44 197.621 151.45 197.341 150.48 197.061C148.72 196.551 146.85 195.991 145.12 195.291L144.73 195.131L144.65 194.721C144.23 192.631 144.59 190.411 144.93 188.261C145.09 187.271 145.24 186.291 145.33 185.341L144.5 187.001V176.441L145.99 179.411C146.02 179.471 146.05 179.521 146.07 179.581C146.1 179.521 146.12 179.471 146.15 179.411L147.2 177.311C147.09 176.881 146.98 176.451 146.88 176.031L148.4 175.621C148.61 176.361 148.79 177.091 148.96 177.831C149.57 180.151 150.25 182.431 151.2 184.331L151.27 184.551C151.81 187.831 153.55 189.871 156.59 190.791L159.06 191.531C160.01 191.821 160.97 192.101 161.94 192.401C162.27 192.461 162.59 192.511 162.92 192.571C164.38 192.821 165.84 193.081 167.29 193.361L167.44 193.401C168.56 193.851 169.72 194.941 171.11 196.841C173.33 200.731 176.25 204.051 179.83 206.781C181.11 207.761 182.47 208.651 183.68 209.441C185.72 210.781 186.93 211.601 187.44 212.351C187.59 212.431 187.74 212.511 187.87 212.591L188.18 212.661C194.59 214.101 197.02 214.681 197.86 215.351C200.44 215.771 202.21 216.151 203.38 216.611C205.13 216.891 206.04 217.351 206.25 218.221C206.25 218.241 206.26 218.261 206.26 218.281C209.16 217.781 209.6 217.901 209.81 218.631C210 219.271 209.93 219.581 207.36 220.701C207.52 221.371 206.83 221.811 199.08 224.681L191.41 227.521L195.62 224.961L183.33 229.051C183.66 229.541 183.95 230.161 184.18 230.751C184.53 231.641 184.05 231.971 183.82 232.061C182.65 232.751 181.14 233.071 179.51 232.941C179.12 232.951 176.58 233.471 171.15 234.871C169.02 235.401 166.96 235.971 164.96 236.531C161.99 237.361 158.91 238.221 155.57 238.931C151.01 240.141 147.6 241.061 147.6 241.061L136.85 243.961L136.87 243.971ZM162.35 234.951C160.76 235.621 159.2 236.261 157.73 236.851C160.11 236.281 162.35 235.651 164.55 235.041C166.56 234.481 168.63 233.901 170.78 233.371C173.75 232.611 178.9 231.341 179.63 231.401C180.68 231.491 181.69 231.331 182.55 230.971C182.39 230.661 182.17 230.271 181.99 229.971C181.39 230.211 180.84 230.261 180.33 230.111C180.31 230.111 180.29 230.101 180.27 230.091L175.2 231.781L179.9 229.931C179.17 229.521 178.69 228.721 178.31 227.961L178.27 227.861C177.8 226.451 177.75 224.971 178.1 223.631C178.06 223.691 178.03 223.751 177.99 223.811C174.61 229.651 169.2 233.511 162.35 234.961V234.951ZM183.11 230.691C183.11 230.691 183.04 230.721 183.01 230.751C183.04 230.731 183.08 230.711 183.11 230.691ZM182.2 228.201C182.49 228.201 182.77 228.391 183.03 228.681L201.24 221.491C201.75 221.151 202.2 220.851 202.57 220.581L202.28 220.641L203.59 218.991C203.77 218.771 203.77 218.671 203.77 218.671C203.72 218.501 203.49 218.341 203.12 218.181C201.5 217.941 198.94 217.801 196.43 217.671L189.05 217.281C189.39 217.731 189.64 218.221 189.79 218.761C190.06 219.761 189.95 220.821 189.44 221.961C190.37 221.791 190.57 221.921 190.79 222.141L191.11 222.471L190.98 222.931C190.88 223.281 190.75 223.711 186.8 224.581L184.25 225.141L186.06 223.271C186.06 223.271 186.13 223.201 186.16 223.161L185.28 223.801L185.56 222.451C185.05 222.291 184.25 222.121 183.04 222.031L182.8 222.011L182.61 221.861C182.24 221.571 181.13 221.531 180.63 222.011C179.49 223.321 179.12 225.411 179.73 227.311C179.99 227.821 180.37 228.491 180.77 228.611C181.01 228.681 181.36 228.581 181.82 228.311L181.96 228.251C182.04 228.221 182.12 228.211 182.19 228.211L182.2 228.201ZM187.66 221.961C187.66 221.961 187.66 221.971 187.67 221.981C187.69 221.951 187.71 221.921 187.72 221.891C187.7 221.921 187.68 221.941 187.66 221.971V221.961ZM187.27 219.801C187.68 220.011 187.93 220.291 188.03 220.661C188.08 220.851 188.08 221.041 188.05 221.211C188.37 220.451 188.44 219.771 188.27 219.161C188 218.171 187.1 217.261 185.43 216.301C186.35 217.361 187.02 218.511 187.27 219.801ZM180.36 218.871C180.07 219.581 179.76 220.291 179.44 221.001C179.46 220.971 179.49 220.951 179.51 220.921C180.38 220.081 181.76 219.911 182.78 220.211L182.76 220.161C182.66 220.041 182 219.711 181.53 219.471C181.17 219.291 180.77 219.091 180.37 218.861L180.36 218.871ZM184.51 214.061C186.13 214.811 187.91 215.801 188.97 217.161L193.85 216.351C192.42 216.151 190.92 215.951 189.41 215.751L187.29 215.471L188.13 214.631C187.94 214.481 187.65 214.291 187.3 214.091L186.17 213.841V213.471C185.75 213.251 185.32 213.031 184.91 212.821C183.77 212.231 182.52 211.591 181.26 210.861C182.7 211.891 183.92 212.921 184.51 214.071V214.061ZM148.29 193.551C150.65 194.381 153.11 195.141 155.69 195.941C158.78 196.891 161.97 197.881 165.05 199.021C167.26 199.841 169.18 200.651 170.92 201.501L171.13 201.601L171.25 201.801C172.67 204.191 174.58 206.001 176.37 207.401C173.24 204.711 170.74 201.481 168.9 197.731C167.82 196.531 166.82 195.751 165.67 195.211C164.35 194.781 162.97 194.351 161.58 193.931C161.01 193.831 160.44 193.731 159.87 193.631C157.76 193.251 155.28 192.761 152.8 192.061L152.57 191.991L152.42 191.811C149.56 188.431 148.78 184.631 147.95 180.601C147.85 180.121 147.75 179.631 147.65 179.151V179.761C147.65 181.631 147.91 183.411 148.16 185.131C148.53 187.671 148.92 190.301 148.45 193.191L148.41 193.441L148.29 193.561V193.551ZM146.77 186.551C146.69 187.201 146.58 187.851 146.48 188.501C146.2 190.281 145.93 191.971 146.07 193.541L146.94 192.681C147.25 190.551 147.06 188.571 146.78 186.551H146.77Z" fill="currentColor"/>
<path d="M173.039 220.031H172.989C168.169 219.711 166.459 216.031 166.459 212.691C166.459 210.681 167.039 208.901 168.189 207.411C169.139 206.171 170.209 205.561 171.489 205.611C170.469 204.491 169.469 203.661 168.489 203.121C167.029 202.611 165.729 202.501 164.889 202.501L164.679 202.471C162.599 201.901 160.479 201.421 158.429 200.951C156.259 200.451 154.019 199.941 151.839 199.331C149.209 198.601 147.289 197.891 145.609 197.041L145.309 196.891L145.209 196.561C144.319 193.531 143.749 190.341 143.199 187.261C141.869 179.831 140.489 172.151 134.539 166.191L133.869 165.521L134.659 164.991C134.659 164.991 136.409 163.761 135.959 162.861L136.659 162.511V161.841L137.039 162.321L137.359 162.161C138.089 163.621 138.809 164.331 139.569 165.091L140.909 166.431H140.059C144.409 173.391 146.849 183.171 146.849 193.881C146.849 194.701 148.359 195.421 149.789 195.701L149.949 195.751C152.139 196.691 154.479 197.481 156.899 198.091C159.259 198.691 161.709 199.121 164.189 199.381H164.219C166.469 199.381 169.069 199.881 172.379 203.401C173.489 204.511 174.509 205.711 175.499 206.881C175.979 207.441 176.449 208.001 176.929 208.551C178.609 210.461 180.099 211.861 181.459 212.831L182.099 213.291L186.859 213.511C186.809 213.471 186.749 213.421 186.689 213.381C186.019 213.161 185.319 212.931 184.589 212.681L184.419 212.621L184.289 212.491C183.619 211.831 182.489 210.921 181.189 209.871C179.629 208.621 177.869 207.201 176.159 205.631C173.279 203.001 170.439 199.861 167.489 196.041C165.919 195.451 164.199 194.881 162.099 194.271C160.209 193.721 158.309 193.151 156.389 192.571C154.659 192.041 152.499 191.381 150.739 190.291L150.379 190.071V189.651C150.319 188.211 150.179 186.771 149.949 185.331C147.429 175.571 143.049 167.531 136.939 161.441C136.429 160.941 135.909 160.441 135.379 159.961L136.429 158.801C136.989 159.301 137.529 159.821 138.069 160.351C145.339 167.531 150.069 176.261 151.499 185.051C151.569 185.341 151.649 185.631 151.719 185.921C152.069 188.171 152.969 189.561 154.479 190.261C156.099 190.801 157.959 191.361 160.439 192.061C161.509 192.361 162.579 192.651 163.649 192.941C165.049 193.321 166.459 193.711 167.849 194.101L168.089 194.171L168.249 194.371C170.739 197.511 173.069 200.151 175.359 202.431C177.449 204.511 179.919 206.731 182.929 209.201L183.809 209.721C183.889 209.771 183.979 209.821 184.059 209.871C183.649 209.501 183.229 209.131 182.819 208.751C182.289 208.281 181.749 207.791 181.209 207.301C177.939 204.001 175.139 200.421 172.859 196.661C170.539 192.831 168.689 188.681 167.369 184.321C166.489 183.511 165.609 182.721 164.749 181.961C163.729 181.151 162.829 180.361 162.039 179.571L143.229 160.751L163.109 178.431C163.639 178.901 164.179 179.371 164.719 179.851C165.059 180.151 165.409 180.451 165.759 180.761C166.129 181.051 166.509 181.341 166.909 181.641L167.099 181.801C168.439 182.971 169.959 184.291 171.309 188.601C172.489 192.861 174.519 196.741 177.339 200.171C179.269 202.511 181.529 204.601 183.339 206.271C184.049 206.931 184.699 207.521 185.239 208.051L186.109 208.481C191.089 210.941 193.109 211.991 192.949 213.391C192.949 213.411 192.949 213.441 192.949 213.461C198.359 213.931 198.359 214.001 198.309 214.771C198.259 215.541 198.259 215.611 193.359 215.391C193.009 215.521 192.439 215.431 191.639 215.301L188.929 214.871C188.809 215.071 188.629 215.271 188.339 215.461L185.849 217.061L186.259 216.281L180.799 214.221C180.129 213.971 179.449 213.641 178.779 213.271L177.639 213.091L178.529 213.131C177.079 212.311 175.719 211.321 174.779 210.541C173.039 209.591 172.159 209.551 171.929 209.811C170.719 211.201 170.699 212.811 171.849 214.581C172.939 215.631 173.939 215.211 175.599 214.381L176.739 213.811V215.081C176.739 215.261 176.859 215.531 176.979 215.811C177.209 216.341 177.489 216.991 177.399 217.801L177.369 218.101L177.149 218.301C175.929 219.391 174.599 219.991 173.179 220.061H173.129L173.039 220.031ZM171.369 207.171C170.469 207.171 169.919 207.741 169.439 208.361C168.489 209.591 168.029 211.001 168.029 212.691C168.029 214.381 168.519 218.131 173.049 218.461C173.999 218.401 174.889 218.021 175.759 217.321C175.729 217.021 175.599 216.731 175.459 216.401C175.429 216.321 175.389 216.251 175.359 216.171C173.909 216.821 172.249 217.231 170.619 215.601L170.519 215.481C168.929 213.091 168.989 210.701 170.679 208.751C171.899 207.341 174.259 208.471 175.299 209.041C175.279 209.021 175.259 208.991 175.239 208.971L173.379 207.871C172.549 207.381 171.899 207.181 171.369 207.181V207.171ZM183.019 213.921L186.219 216.201L187.079 214.561L185.869 214.411L185.969 214.391L183.029 213.921H183.019ZM188.289 212.231C189.039 212.471 189.729 212.691 190.339 212.881C190.629 212.971 190.899 213.061 191.149 213.141C191.169 213.141 191.189 213.131 191.199 213.121C190.679 212.581 188.979 211.671 187.189 210.771C187.629 211.271 187.999 211.751 188.279 212.231H188.289ZM136.259 165.721C142.049 171.911 143.419 179.571 144.739 186.991C144.859 187.681 144.989 188.381 145.119 189.081C144.479 180.111 142.029 172.101 138.149 166.361C137.609 166.251 137.059 165.951 136.799 165.141C136.629 165.351 136.439 165.551 136.249 165.721H136.259Z" fill="currentColor"/>
<path d="M171.59 215.299L162.38 213.459C155.28 212.039 148.64 208.929 142.64 204.199C140.79 202.739 138.98 201.119 137.27 199.369L136.92 199.019L137.09 198.559C139.62 191.639 140.4 181.069 137.26 176.049C136.29 174.499 135.01 173.639 133.44 173.479C114.96 171.799 93.5199 167.259 91.8399 146.889C91.2899 141.429 91.1399 138.479 91.1299 138.449L89.9199 114.359L92.6999 138.319C92.6999 138.319 92.9999 140.869 93.5899 144.869C95.2899 161.449 109.25 163.909 122.75 166.289C126.93 167.029 130.88 167.729 134.53 168.819C144.52 171.889 142.62 186.229 141.24 196.689C141.14 197.449 141.04 198.179 140.95 198.889C142.4 200.209 143.96 201.489 145.6 202.709C150.63 206.419 156.42 209.539 162.81 211.969L171.59 215.309V215.299ZM138.73 198.619C138.93 198.819 139.13 199.009 139.33 199.209V199.089C139.45 198.259 139.56 197.389 139.68 196.479C139.79 195.669 139.9 194.829 140.01 193.969C139.67 195.599 139.24 197.179 138.73 198.629V198.619ZM96.8499 157.309C103.56 167.629 118.77 170.559 133.59 171.909C135.67 172.119 137.34 173.229 138.59 175.209C139.81 177.149 140.5 179.769 140.77 182.669C140.58 176.819 139.01 171.819 134.08 170.309C130.53 169.239 126.62 168.559 122.49 167.829C113.08 166.169 102.8 164.359 96.8599 157.319L96.8499 157.309ZM171.36 199.829C168.68 195.849 166.78 195.459 164.78 195.059L164.56 195.009C162.07 194.699 159.57 194.179 157.17 193.489C154.89 192.659 152.41 191.579 151.25 188.969L151.2 188.829C149.18 180.049 145.93 169.679 138.47 162.829C137.27 161.779 136.01 160.849 134.67 160.029C133.61 159.499 132.59 159.229 131.59 159.189C128.86 159.819 126.9 160.589 125.83 161.079C125.58 161.239 125.33 161.399 125.08 161.579C124.53 163.289 123.29 163.289 122.53 163.289H120.29L122.04 161.889C122.61 161.439 123.19 160.979 123.79 160.549C123.99 160.309 124.4 160.039 124.95 159.759C126.92 158.499 129.03 157.559 131.41 157.629C131.92 157.509 132.43 157.399 132.93 157.309L133.2 157.259L133.44 157.389C135.87 158.669 138 160.229 139.86 161.989C146.16 167.669 150.52 176.289 153.16 188.179C154.16 189.949 156.15 190.789 158.12 191.489C160.29 192.109 162.65 192.639 165.1 193.069C167.25 193.609 169.62 194.209 172.67 198.979L171.36 199.839V199.829Z" fill="currentColor"/>
<path d="M231.669 137.402H231.649C230.949 137.402 230.369 137.172 229.929 136.722C229.489 136.272 229.269 135.692 229.269 134.992C229.269 134.392 229.439 133.882 229.769 133.452C229.849 131.902 229.279 122.092 228.889 116.022L227.859 100.102L230.449 115.842C231.469 122.052 233.179 132.082 233.549 133.392C233.929 133.832 234.119 134.382 234.119 135.022C234.119 135.702 233.869 136.292 233.399 136.742C232.939 137.182 232.359 137.402 231.669 137.402ZM231.259 129.902C231.419 133.992 231.259 134.162 231.069 134.352C230.969 134.452 230.839 134.632 230.839 135.002C230.839 135.372 230.959 135.532 231.039 135.622C231.129 135.712 231.289 135.832 231.659 135.832C231.999 135.852 232.209 135.702 232.309 135.602C232.469 135.452 232.539 135.262 232.539 135.012C232.539 134.652 232.419 134.472 232.309 134.362C232.179 134.232 232.029 134.072 231.259 129.902Z" fill="currentColor"/>
<path d="M202.709 197.823L192.059 195.563C191.959 195.543 191.849 195.503 191.739 195.443C190.209 194.723 188.259 192.133 186.959 189.123C185.739 186.683 184.879 183.993 184.509 181.433C183.749 168.593 192.829 155.883 205.819 151.233C205.019 150.473 204.279 149.313 204.939 147.353C205.519 145.603 207.089 144.933 208.479 144.343C208.709 144.243 208.929 144.153 209.139 144.053C205.059 143.333 200.999 143.523 196.739 143.733C192.129 143.953 187.359 144.183 182.549 143.153C181.459 143.063 180.359 142.953 179.249 142.853C177.469 142.683 175.639 142.503 173.739 142.393C167.979 142.103 164.019 141.873 161.289 141.673C160.539 141.623 159.899 141.563 159.339 141.513C159.209 141.763 158.979 141.933 158.699 141.983C158.189 142.083 157.809 141.723 157.449 141.383C157.419 141.353 157.369 141.313 157.329 141.263C155.949 141.033 155.909 140.783 155.859 140.373L155.779 139.733L156.319 139.533C156.919 139.173 157.509 139.423 157.969 139.753C158.029 139.753 158.099 139.773 158.169 139.783C158.199 139.513 158.209 139.193 158.199 138.803V138.003L170.399 138.043V138.823C170.399 139.003 170.399 139.303 170.329 139.603C170.779 139.653 171.379 139.703 172.189 139.773C172.979 139.843 173.889 139.923 174.869 139.993C176.559 140.133 178.479 140.283 180.399 140.483C185.209 140.843 190.069 140.913 194.759 140.973C200.909 141.053 207.259 141.133 213.429 141.913C216.989 142.173 217.229 142.273 217.409 142.883L217.559 143.403L217.099 143.753C216.109 144.473 215.149 145.143 214.279 145.523C213.039 145.963 211.469 146.743 209.959 147.503C209.539 147.713 209.469 147.843 209.469 147.843C209.509 147.953 209.909 148.363 210.149 148.603C211.809 149.923 213.769 149.523 215.839 149.093C218.009 148.643 220.249 148.183 222.259 149.773L223.109 150.443L222.209 151.043C221.019 151.833 219.489 152.373 217.529 152.703H217.419C204.259 153.053 189.229 162.423 186.849 177.513C186.469 180.983 186.899 184.613 188.079 187.693C188.179 187.943 188.279 188.193 188.379 188.443C188.519 188.723 188.659 188.993 188.809 189.263C190.189 191.743 191.829 193.653 192.369 193.993C192.409 194.013 192.449 194.033 192.489 194.043L202.709 197.803V197.823ZM212.569 143.393L211.719 144.243C210.989 144.973 210.019 145.393 209.089 145.793C207.849 146.323 206.779 146.783 206.419 147.863C205.909 149.393 206.619 149.943 207.519 150.623C207.659 150.733 207.789 150.833 207.919 150.933L209.049 151.863L207.659 152.293C201.489 154.193 196.159 157.983 192.339 162.773C198.779 155.593 208.459 151.423 217.329 151.173C218.399 150.993 219.319 150.743 220.099 150.413C218.929 150.083 217.619 150.353 216.159 150.653C213.929 151.113 211.409 151.633 209.109 149.793C208.449 149.143 207.779 148.473 207.929 147.593C208.019 147.003 208.459 146.523 209.249 146.133C210.819 145.343 212.429 144.543 213.709 144.093C213.969 143.973 214.269 143.813 214.609 143.593C214.249 143.563 213.809 143.523 213.269 143.483C213.039 143.453 212.799 143.423 212.569 143.393ZM159.719 139.963C160.209 140.013 160.759 140.053 161.389 140.103C163.079 140.223 165.229 140.363 167.989 140.513C167.989 140.503 167.979 140.493 167.969 140.473L167.759 140.113L167.939 139.713C167.939 139.713 167.979 139.643 167.989 139.603L159.749 139.573C159.749 139.703 159.729 139.833 159.719 139.953V139.963ZM160.339 136.993H160.319C159.619 136.993 159.039 136.763 158.599 136.313L158.229 135.943L158.429 135.463C158.583 135.09 161.076 134.873 165.909 134.813C170.019 134.763 175.589 134.723 181.499 134.673C193.889 134.573 210.539 134.433 213.699 134.223C213.799 133.823 213.999 133.463 214.299 133.163C214.749 132.703 215.319 132.463 216.019 132.473C216.709 132.473 217.319 132.723 217.769 133.183C218.229 133.643 218.459 134.243 218.459 134.943C218.459 135.57 214.673 135.933 207.099 136.033C200.839 136.113 192.659 136.183 184.959 136.243C174.399 136.323 163.489 136.413 161.859 136.523C161.439 136.843 160.929 137.003 160.339 137.003V136.993ZM216.009 134.043C215.759 134.043 215.569 134.113 215.419 134.263C215.409 134.273 215.399 134.293 215.379 134.303C215.879 134.283 216.299 134.273 216.629 134.253C216.529 134.153 216.349 134.043 216.009 134.033V134.043Z" fill="currentColor"/>
<path d="M190.5 155.593C189.32 155.593 187.96 155.163 186.96 153.493L186.89 153.333C185.62 149.523 188.01 147.433 190.12 145.583C190.58 145.173 191.05 144.763 191.49 144.333C188.44 144.143 185.24 144.253 182.13 144.363C177.66 144.513 173.03 144.673 168.62 143.993L163.47 143.963C161.75 143.963 160.07 143.943 158.44 143.933H158.23L158.05 143.823C149.59 138.863 140.31 136.653 131.23 137.403L121.59 138.203L130.98 135.853C131.88 135.633 132.49 135.073 133.13 134.473C133.43 134.203 133.73 133.923 134.07 133.663L133.62 133.473H134.35C135.54 132.683 137.17 132.283 140.1 133.533L143.61 135.033H142.42C143.43 135.283 144.46 135.503 145.52 135.733C148.7 136.423 152 137.143 155.06 138.703C157.88 139.873 160.21 140.193 162.84 140.303C166.16 140.443 169.71 140.593 173.25 140.733L173.4 140.753C177.67 141.783 181.78 141.563 185.76 141.343C189.96 141.123 194.3 140.883 198.82 142.113L202.02 142.983L198.76 143.633C196.17 144.153 192.73 146.193 191.92 148.303C191.65 149.013 191.73 149.653 192.17 150.243C192.59 150.943 192.9 151.003 193.01 151.023C193.68 151.163 194.79 150.383 195.85 149.623C197.56 148.403 199.69 146.873 201.87 147.993L202.71 148.423L202.12 149.173C201.11 150.453 199.82 151.623 198.16 152.743L197.96 152.843C197.27 153.063 196.44 153.473 195.55 153.903C194.59 154.373 193.59 154.863 192.65 155.163C192.22 155.303 191.41 155.573 190.48 155.573L190.5 155.593ZM188.35 152.763C189.16 154.053 190.28 154.323 192.18 153.703C193.02 153.433 193.96 152.963 194.88 152.523C195.77 152.083 196.62 151.673 197.39 151.413C198.43 150.703 199.3 149.983 200.04 149.223C199 149.343 197.87 150.143 196.77 150.933C195.37 151.933 194.06 152.883 192.7 152.593C191.98 152.443 191.37 151.953 190.88 151.143C190.16 150.183 190 148.993 190.46 147.773C190.55 147.543 190.66 147.313 190.79 147.083C188.73 148.913 187.56 150.273 188.35 152.753V152.763ZM191.31 142.753C191.94 142.793 192.57 142.833 193.2 142.903L194.58 143.043L193.77 144.123C194.37 143.733 195 143.373 195.65 143.073C194.2 142.853 192.76 142.763 191.31 142.753ZM158.66 142.363C160.22 142.373 161.84 142.383 163.48 142.393L168.81 142.433C171.39 142.843 174.09 142.943 176.77 142.933C175.57 142.813 174.35 142.613 173.11 142.323C169.59 142.183 166.07 142.043 162.77 141.893C159.98 141.773 157.48 141.433 154.4 140.143C153.61 139.743 152.8 139.393 151.98 139.093C154.25 140.003 156.48 141.093 158.66 142.353V142.363ZM134.72 135.693C136.46 135.693 138.2 135.793 139.93 136.003C138.98 135.713 138.04 135.383 137.13 134.993L135.89 134.463C135.24 134.683 134.75 135.133 134.19 135.653L134.13 135.703C134.33 135.703 134.52 135.703 134.72 135.703V135.693ZM154.62 136.263L154.49 136.213C153.95 136.023 153.4 135.833 152.85 135.663C152.08 135.523 151.3 135.353 150.45 135.133C149.92 134.943 149.39 134.763 148.88 134.613C146.08 133.983 143.22 133.533 140.5 133.143C139.47 133.013 138.41 132.873 137.31 132.693L137.55 131.143L138.85 131.323C139.46 131.413 140.08 131.493 140.71 131.583C141.01 131.623 141.32 131.663 141.62 131.693C144.19 132.013 146.65 132.313 149.29 133.093C150.62 133.393 151.94 133.733 153.23 134.133C153.72 134.223 154.21 134.303 154.71 134.383C155.21 134.463 155.71 134.553 156.24 134.643C159.2 134.613 162.49 134.593 165.89 134.563C177.03 134.473 191.62 134.353 196.72 134.173C192.77 131.263 181.54 123.503 173.72 118.153L149.55 101.633L174.57 116.833C184.29 122.733 198.98 131.603 200.53 132.363C201.16 132.403 201.7 132.633 202.12 133.063C202.57 133.523 202.81 134.133 202.8 134.823C202.8 135.449 199.02 135.813 191.46 135.913C185.21 135.993 177.04 136.063 169.35 136.123L163.78 136.163C160.49 136.193 157.42 136.213 154.78 136.243H154.64L154.62 136.263ZM194.87 130.923C197.56 132.853 198.69 133.753 199.16 134.223C199.9 134.203 200.51 134.183 200.96 134.163C200.85 134.063 200.68 133.953 200.34 133.943C200.18 133.943 199.98 133.943 194.87 130.923Z" fill="currentColor"/>
<path d="M179.48 158.271C175.37 158.271 171.91 156.371 168.54 154.521C167.77 154.101 167 153.681 166.22 153.281C164.19 152.231 162.56 151.571 160.93 151.121L160.7 151.061L160.54 150.881C147.41 135.991 125 139.071 109.65 149.811C107.1 151.631 104.06 152.141 101.11 151.241C97.7102 150.211 94.8602 147.411 93.4902 143.761C92.1102 140.581 91.2202 138.751 91.2102 138.741L88.6602 133.521L92.5102 137.881C92.5102 137.881 93.4401 138.941 94.5901 140.611C96.3501 143.721 99.1602 145.191 101.96 144.491L104.96 143.611C123.39 138.181 142.44 132.561 158.77 145.671C161.11 147.491 162.68 147.851 164.34 148.231L164.5 148.271L164.63 148.371C170.63 152.901 176.81 155.551 183 156.241L187.09 156.691L183.12 157.771C181.84 158.121 180.63 158.271 179.46 158.271H179.48ZM161.57 149.671C163.24 150.151 164.9 150.841 166.94 151.891C166.96 151.891 166.98 151.911 167 151.921C165.94 151.241 164.88 150.511 163.84 149.731C162.86 149.501 161.85 149.261 160.68 148.711C160.99 149.021 161.29 149.351 161.58 149.681L161.57 149.671ZM95.3302 144.091C96.6402 146.871 98.9102 148.941 101.57 149.751C104.05 150.501 106.6 150.071 108.75 148.541C116.34 143.221 125.62 139.731 134.74 139.221C125.16 139.291 115.19 142.231 105.4 145.121L102.37 146.011C99.8302 146.651 97.3201 145.921 95.3401 144.101L95.3302 144.091ZM155.61 136.061H155.56C153.55 135.791 151.35 135.461 148.63 134.681C148.42 134.621 148.21 134.571 148 134.511C141.38 133.451 134.97 132.581 128.73 133.231C127.55 133.421 126.36 133.671 125.18 133.991C123.5 134.411 122.46 134.731 122.1 134.851C121.17 135.831 119.47 135.831 118.63 135.831H114.88L118.31 134.331C121.52 132.931 124.8 132.131 128.1 131.741C135.59 130.471 142.98 131.601 148.32 132.971C149.01 133.081 149.71 133.191 150.4 133.311C152.86 133.711 155.4 134.121 157.89 134.451L163 134.411C168.38 134.361 182.02 134.241 184.87 134.051C184.98 133.651 185.17 133.291 185.47 132.991C185.92 132.531 186.52 132.301 187.19 132.301C187.88 132.301 188.49 132.551 188.94 133.011C189.4 133.471 189.63 134.061 189.63 134.771C189.63 135.398 185.85 135.761 178.29 135.861C172.04 135.941 163.87 136.011 156.17 136.071H155.62L155.61 136.061ZM187.17 133.861C186.92 133.861 186.74 133.931 186.58 134.081C186.57 134.091 186.56 134.111 186.54 134.121C187.04 134.101 187.46 134.091 187.79 134.071C187.69 133.971 187.51 133.851 187.17 133.851V133.861Z" fill="currentColor"/>
<path d="M198.61 37.5583L197.45 36.9283C192.8 34.3883 189.12 31.7083 187.04 29.3583C184.05 28.5583 181.72 27.8583 180.34 26.8383C178.87 26.6583 178.01 26.2383 177.7 25.4483C177.24 24.2483 178.23 22.8283 181.09 20.5183L192.65 11.2383L182.13 21.6883C181.26 22.5483 180.27 23.7583 180.5 24.6283C180.57 24.8783 180.73 25.1083 180.96 25.3283C181.97 25.3883 183.49 25.3883 185.76 25.2683L186.9 25.2083L186.55 26.2983C186.37 26.8483 186.95 27.4083 187.85 27.9583L187.92 27.9983C188.64 28.4283 189.54 28.8583 190.44 29.2783C190.82 29.4583 191.21 29.6383 191.6 29.8283C193.33 30.8083 194.6 31.6583 195.22 32.0683C195.38 32.1783 195.49 32.2483 195.54 32.2783C197.42 33.2183 198.59 34.2083 198.59 36.2383V37.5583H198.61ZM184.23 26.9083C184.49 26.9983 184.76 27.0783 185.03 27.1583C185 27.0683 184.98 26.9683 184.97 26.8783C184.72 26.8883 184.47 26.8983 184.23 26.9083Z" fill="currentColor"/>
<path d="M203.69 112.478L201.16 101.638C201.12 101.478 197.43 85.6683 195.16 77.9283C194.5 75.6883 194.14 74.7183 193.95 74.2983L193.82 74.3283L193.55 73.7583C191.68 69.7483 192.43 66.2383 193.14 62.8383C193.34 61.9083 193.54 60.9583 193.68 59.9883C186.4 69.3883 178 79.3883 165.24 82.6983L161.18 85.7883C152.54 92.3583 147.99 95.7483 145.53 97.4483C145.59 97.7283 145.53 98.0083 145.35 98.2183C145.01 98.6283 144.5 98.5983 144.01 98.5683C143.96 98.5683 143.9 98.5683 143.83 98.5683C142.73 99.2183 142.53 99.0883 142.27 98.9183L141.81 98.6183L141.92 98.0383C142.13 97.2383 142.82 97.0383 143.43 96.9983C143.47 96.9683 143.51 96.9483 143.55 96.9183C143.4 96.6883 143.19 96.4283 142.93 96.1183L142.41 95.5183L151.79 87.6983L152.29 88.2883C152.41 88.4283 152.6 88.6583 152.73 88.9383C153.11 88.6883 153.6 88.3383 154.26 87.8783C155.89 86.7183 158.25 84.9683 161.49 82.5183L161.69 82.4083C162.64 82.0583 163.58 81.6883 164.52 81.2983L164.6 81.2683C177.37 75.8383 188.03 65.8983 195.56 52.3483L196.48 50.6983L197 52.5183C197.72 55.0383 197.23 57.4783 196.76 59.8383C196.22 62.5083 195.75 64.8583 197.01 67.0283C198.26 65.0983 199.23 63.1683 198.62 60.7683L198.38 59.7983H199.38C200.05 59.7983 200.43 60.1383 200.68 60.3683C200.87 60.5383 200.94 60.5983 201.15 60.5983H202.01L201.92 61.4683C201.66 63.9983 201.07 66.4683 200.23 68.6283C200.2 68.9583 200.2 70.4983 200.72 77.5783C201.43 87.2583 202.68 101.288 202.69 101.428L203.67 112.518L203.69 112.478ZM144.63 95.7083C144.71 95.8183 144.79 95.9183 144.86 96.0283C146.57 94.8283 149 93.0283 151.54 91.1283C151.53 91.1283 151.51 91.1283 151.5 91.1183L151.11 90.9783L150.99 90.5583C150.99 90.5583 150.97 90.4783 150.96 90.4383L144.63 95.7183V95.7083ZM194.86 72.8383C195.33 73.2783 195.79 74.5183 196.66 77.4883C197.72 81.0983 199.08 86.4383 200.25 91.1483C199.89 86.8183 199.48 81.8283 199.17 77.6483C198.53 68.9383 198.66 68.4483 198.73 68.1783L198.76 68.0883C199.06 67.3383 199.32 66.5483 199.54 65.7283C199.03 66.8083 198.36 67.8183 197.69 68.8183L197.11 69.6883L196.44 68.8783C194.92 67.0583 194.57 65.1383 194.67 63.2083C194 66.3983 193.37 69.4183 194.86 72.8283V72.8383ZM195.47 55.6183V57.4083C195.47 57.7483 195.46 58.0883 195.44 58.4283C195.65 57.3183 195.82 56.1883 195.8 55.0683C195.69 55.2483 195.58 55.4383 195.47 55.6183ZM141.85 93.9483C141.78 93.9483 141.71 93.9483 141.64 93.9483L141.12 93.8983L140.96 93.3983C140.834 93.005 143.047 90.8583 147.6 86.9583C148.5 86.1783 149.57 85.2783 150.75 84.2883C151.43 83.7083 152.16 83.0883 152.95 82.4083L153.08 82.3183C153.16 82.2783 153.24 82.2283 153.32 82.1883C153.72 81.8683 154.13 81.5383 154.55 81.2083L154.79 81.0783C155.23 80.9283 155.67 80.7783 156.1 80.6283C156.78 80.2683 157.51 79.9083 158.32 79.5483L158.41 79.5183C159.43 79.2183 160.44 78.8883 161.44 78.5183C173.64 73.1283 182.61 65.0083 186.01 56.0283C187.46 52.1983 188.12 47.7983 188.03 42.5983C187.77 42.3283 187.49 41.8983 187.69 41.3983C187.99 40.6583 188.94 40.7383 189.3 40.7683L189.99 40.8283L190.02 41.5183C190.22 46.5283 189.63 51.1183 188.26 55.1583C184.63 65.8983 174.51 75.3783 162.01 79.9783C160.31 80.7283 158.54 81.4283 156.72 82.0683C156.09 82.3983 155.5 82.7383 154.92 83.0683C154.67 83.2083 154.43 83.3483 154.18 83.4883C153.33 84.1683 152.53 84.8383 151.77 85.4583C148.91 87.9083 145.02 91.2483 144.24 91.9983C144.12 92.5183 143.83 92.9783 143.37 93.3583C142.89 93.7583 142.37 93.9583 141.83 93.9583L141.85 93.9483Z" fill="currentColor"/>
<path d="M132.54 110.56C132.39 110.56 132.29 110.5 132.18 110.43L131.7 110.13L131.82 109.53C132.06 108.59 132.03 108.07 131.96 107.79C131.89 107.51 131.64 106.98 130.89 106.11L130.37 105.51L133.64 102.74L134.15 103.34C134.26 103.47 134.46 103.7 134.58 103.97C138.11 101.55 148.48 93.54 157.04 86.92L159.92 84.69C161.25 83.78 162.47 82.91 163.67 82.06L164.54 81.46C173.51 77.37 180.83 72.52 186.3 67.05L190.81 62.54L187.53 68C186.65 69.47 185.86 70.97 185.11 72.41C183.87 74.77 182.59 77.22 180.88 79.55C180.79 79.75 180.76 79.88 180.75 79.96C180.79 79.96 180.85 79.98 180.93 79.98C181.66 80 182.35 79.74 183.04 79.16C183.44 78.83 184.3 78.04 185.52 76.54C185.99 76.04 186.29 75.4 186.62 74.71C187.3 73.26 188.16 71.45 190.6 71.19L191.9 71.05L191.41 72.26C190.67 74.11 189.71 75.85 188.87 77.38C188.62 77.83 188.39 78.26 188.18 78.65C187.76 80.2 186.95 81.48 185.78 82.45C184.72 83.33 183.58 83.91 182.39 84.17C181.19 84.44 180 84.36 178.87 83.95C177.75 83.54 176.75 82.82 175.9 81.8L175.54 81.36L175.84 80.88C176.5 79.83 177.36 78.84 178.19 77.88C178.48 77.54 178.76 77.21 179.04 76.88C177.73 77.72 176.36 78.36 174.94 79.03C173.73 79.6 172.48 80.19 171.2 80.93C169.09 81.97 167.4 82.84 165.84 83.78C162.37 86.63 158.34 89.97 154.32 93.31C136.15 108.39 133.44 110.52 132.54 110.52V110.56ZM132.57 105.71C133.05 106.35 133.35 106.91 133.48 107.41C133.55 107.66 133.58 107.94 133.58 108.24C136.79 105.87 145.49 98.64 153.32 92.14C155.46 90.36 157.6 88.58 159.66 86.88L158 88.16C134.28 106.49 134.08 106.42 133.35 106.17L132.95 106.03L132.83 105.6C132.83 105.6 132.81 105.53 132.81 105.5L132.57 105.7V105.71ZM177.48 81.26C178.05 81.84 178.69 82.25 179.38 82.51C180.24 82.82 181.11 82.87 182.03 82.67C182.97 82.46 183.88 81.99 184.75 81.27C185.7 80.48 186.33 79.47 186.66 78.19L186.73 78.02C186.96 77.59 187.21 77.13 187.48 76.65C188.01 75.69 188.58 74.65 189.11 73.56C188.7 74.01 188.39 74.63 188.02 75.4C187.66 76.17 187.28 76.96 186.68 77.59C185.75 78.74 184.79 79.75 184.02 80.39C183.03 81.21 181.94 81.61 180.85 81.57C179.97 81.54 179.55 81.15 179.36 80.84C179.05 80.33 179.08 79.66 179.46 78.85L179.49 78.78C179.44 78.84 179.39 78.89 179.34 78.95C178.66 79.74 178.01 80.49 177.46 81.27L177.48 81.26ZM183.25 71.92L182.94 73.16C183.2 72.68 183.45 72.19 183.71 71.7L183.86 71.42C183.66 71.59 183.46 71.76 183.25 71.93V71.92ZM129.8 103.96C129.73 103.96 129.66 103.96 129.59 103.96L129.07 103.91L128.91 103.41C128.79 103.023 130.567 101.25 134.24 98.09C137.36 95.41 141.61 91.78 146.12 87.94L154.07 81.18C156.04 80.11 157.89 79.15 160.55 78.36C160.62 78.34 160.69 78.31 160.76 78.29C161.44 77.98 162.12 77.67 162.8 77.36C166.41 75.72 170.08 74.05 173.33 72.06C176.01 70.19 178.42 68.06 180.49 65.74C177.35 67.49 174.13 69.03 170.87 70.32C165.72 71.99 160.57 73.07 156.65 73.82L156.53 73.84H156.41C153.89 73.54 151.39 73.22 148.85 72.89C146.5 72.59 144.13 72.28 141.69 71.99L113 68.66L141.83 70.43C146.99 70.75 151.96 71.33 156.77 71.9L157.19 71.95C161.82 70.8 166.61 69.61 171.25 67.85C175.87 65.36 179.89 62.43 183.2 59.13C183.56 58.41 183.95 57.96 184.4 57.72L185.81 57L185.53 58.55C185.36 59.5 185.13 60.41 184.84 61.27L186.56 60.19L184.35 63.35C183.94 63.93 183.52 64.5 183.08 65.06C180.94 68.57 177.72 71.22 174.03 73.46C170.26 76.07 165.97 78.2 161.33 79.74C158.45 81.06 155.74 82.38 153.31 83.89L149.38 87.24C141.51 93.95 133.38 100.88 132.21 102C132.09 102.52 131.8 102.98 131.34 103.36C130.86 103.76 130.34 103.96 129.8 103.96ZM183.15 61.35C181.92 62.49 180.6 63.59 179.21 64.64C180.34 64.02 181.47 63.37 182.58 62.69C182.79 62.26 182.98 61.81 183.15 61.36V61.35Z" fill="currentColor"/>
<path d="M87.3594 141.149L91.4194 137.799C91.4194 137.799 92.6794 136.759 94.3594 135.399C95.3494 134.599 96.6094 133.539 98.0694 132.309C99.0794 131.459 100.189 130.529 101.369 129.549C103.129 128.079 104.799 126.699 106.269 125.479L112.219 120.569L182.579 84.6289L174.359 91.4289L123.179 121.149C121.569 122.079 119.779 123.099 117.649 124.209C115.119 125.769 112.659 127.279 110.239 128.779C105.769 131.539 101.549 134.149 96.8394 136.999C94.0894 138.349 92.3094 139.089 92.2294 139.119L87.3694 141.139L87.3594 141.149ZM113.009 121.939L107.279 126.699C105.809 127.919 104.139 129.299 102.379 130.769C101.199 131.749 100.099 132.679 99.0894 133.529C98.6594 133.889 98.2494 134.239 97.8594 134.569C101.819 132.159 105.529 129.869 109.419 127.469C111.839 125.979 114.299 124.459 116.879 122.869C119.039 121.749 120.799 120.739 122.399 119.819L160.479 97.7089L113.019 121.949L113.009 121.939ZM119.669 112.359C119.599 112.359 119.529 112.359 119.459 112.359L118.939 112.309L118.779 111.809C118.659 111.422 120.436 109.649 124.109 106.489C127.229 103.809 131.489 100.179 135.989 96.3289C139.859 93.0289 143.919 89.5689 147.599 86.4089C150.069 84.2989 152.369 82.3189 154.329 80.6189L154.489 80.4789L154.709 80.4389C155.109 80.3689 155.499 80.2889 155.889 80.1889C156.909 79.6989 157.929 79.2389 159.169 78.8389L159.379 78.7989C159.549 78.7989 159.719 78.7789 159.879 78.7589C161.199 78.1689 162.529 77.4789 163.879 76.7789C165.719 75.8289 167.609 74.8589 169.559 74.0889C170.539 73.6389 171.549 73.2889 172.599 73.1089L191.969 69.8789L172.919 74.6389C171.979 74.8689 171.049 75.1889 170.139 75.5489C169.049 76.0589 167.979 76.7089 166.869 77.3789C164.789 78.6389 162.659 79.9289 160.309 80.2789C159.039 80.8389 157.759 81.3189 156.449 81.6589C156.289 81.7389 156.129 81.8189 155.969 81.8889C155.509 82.1089 155.039 82.3389 154.549 82.5589C150.109 86.3689 144.729 90.9589 139.619 95.3189C131.579 102.179 123.269 109.259 122.089 110.389C121.969 110.909 121.679 111.369 121.219 111.749C120.739 112.149 120.219 112.349 119.679 112.349L119.669 112.359Z" fill="currentColor"/>
</svg>
