<svg width="304" height="300" viewBox="0 0 304 300" fill="none" xmlns="http://www.w3.org/2000/svg">
<path d="M47.8498 210.687L34.2398 199.137C28.8798 194.587 20.1598 187.267 18.8998 186.427C18.2598 186.327 17.6898 185.987 17.2398 185.447C16.7498 184.867 16.5298 184.177 16.6098 183.467C16.6798 182.747 17.0198 182.137 17.6198 181.637C18.2198 181.127 18.8798 180.907 19.5798 180.967C20.2798 181.027 20.8898 181.367 21.3898 181.967C21.8198 182.477 22.0498 183.047 22.0698 183.647C23.1198 185.027 30.6998 192.977 35.4298 197.867L47.8398 210.697L47.8498 210.687ZM19.3698 182.707C19.2298 182.707 19.0298 182.747 18.7598 182.977C18.4398 183.247 18.3798 183.487 18.3698 183.647C18.3498 183.887 18.4198 184.097 18.5998 184.317C18.8598 184.627 19.1098 184.687 19.2698 184.697C19.4798 184.717 19.7198 184.737 23.3898 187.737C20.2898 184.367 20.3098 184.107 20.3298 183.817C20.3398 183.657 20.3298 183.407 20.0598 183.097C19.7998 182.787 19.5798 182.727 19.4398 182.717C19.4198 182.717 19.3998 182.717 19.3698 182.717V182.707Z" fill="currentColor"/>
<path d="M32.7597 175.207C32.6797 175.207 32.5997 175.207 32.5197 175.197C31.7997 175.137 31.1597 174.787 30.6597 174.197C30.2064 173.657 33.173 170.603 39.5597 165.037C44.8397 160.437 51.6797 154.537 58.2897 148.837C67.2297 141.127 76.4497 133.167 77.7597 131.897C77.8897 131.317 78.2097 130.797 78.7197 130.377C79.3197 129.867 79.9797 129.647 80.6797 129.707L81.2597 129.757L81.4397 130.317C81.5797 130.75 79.6097 132.74 75.5297 136.287C72.0597 139.297 67.3397 143.377 62.3397 147.697C51.8597 156.737 37.7697 168.907 35.2297 171.367C35.4297 171.787 35.5197 172.227 35.4897 172.697C35.4397 173.417 35.0997 174.047 34.5197 174.537C33.9797 174.987 33.3897 175.217 32.7597 175.217V175.207ZM32.7097 173.457C32.8797 173.457 33.1097 173.437 33.3997 173.197C33.6197 173.007 33.7297 172.817 33.7497 172.577C33.7497 172.557 33.7497 172.537 33.7497 172.517C33.3297 172.897 32.9897 173.207 32.7197 173.467L32.7097 173.457ZM26.2197 166.817C26.0497 166.817 25.9397 166.747 25.8097 166.667L25.2897 166.327L25.4197 165.687C25.8197 164.057 25.8297 163.177 25.7697 162.737C25.7397 162.487 25.7197 162.077 25.6897 161.377C25.6497 160.427 25.5697 158.197 25.3397 157.747C24.8397 157.167 24.1997 156.837 23.4297 156.817C22.6097 156.797 21.8497 157.097 21.0697 157.747C20.4997 158.227 20.1297 158.847 19.9397 159.647C19.7397 160.477 19.7797 161.277 20.0497 162.097L20.3197 162.907L15.8497 164.527L15.5497 163.697C14.9397 161.997 14.8597 160.247 15.3097 158.477C15.5397 156.857 13.6697 135.667 12.3497 121.787L11.1797 109.387L14.0797 121.497C16.6297 132.147 20.9697 149.227 22.3197 152.037C23.4797 151.857 24.6197 151.967 25.7197 152.357C26.9797 152.807 28.0997 153.607 29.0497 154.737C29.7197 155.537 29.9597 157.477 30.2097 160.127C30.2297 160.287 30.2397 160.447 30.2597 160.597C33.5997 158.417 44.7597 149.817 53.9297 142.757C66.8397 132.817 73.1197 128.037 76.2997 125.817C76.2297 125.507 76.2997 125.197 76.4997 124.957C76.8697 124.497 77.4397 124.527 77.9997 124.557C78.0597 124.557 78.1197 124.557 78.1897 124.557C79.4197 123.827 79.6397 123.957 79.9397 124.157L80.4597 124.487L80.3397 125.137C80.1097 126.037 79.3297 126.267 78.6497 126.307C78.6097 126.337 78.5597 126.367 78.5197 126.397C78.6897 126.647 78.9197 126.947 79.2197 127.287L79.7997 127.957L69.3697 136.757L68.7997 136.097C68.6697 135.947 68.4397 135.687 68.2997 135.367C64.7497 137.787 54.9797 145.337 46.8997 151.587C29.8597 164.757 27.1397 166.797 26.2197 166.797V166.817ZM23.3597 155.067C23.3597 155.067 23.4497 155.067 23.4997 155.067C24.7797 155.107 25.8697 155.647 26.7397 156.677C27.2197 157.257 27.3497 158.517 27.4497 161.317C27.4697 161.817 27.4897 162.327 27.5097 162.497C27.5697 162.967 27.5697 163.527 27.4897 164.177C28.0097 163.807 28.6397 163.347 29.3697 162.807C29.3297 162.797 29.2797 162.777 29.2397 162.757L28.7797 162.577L28.6697 162.067C28.5997 161.667 28.5397 161.027 28.4697 160.287C28.3597 159.107 28.0897 156.337 27.7097 155.847C26.9497 154.947 26.1097 154.337 25.1397 153.997C24.1797 153.657 23.2097 153.607 22.1697 153.837C21.1297 154.077 20.5997 154.197 16.3097 137.657C15.9297 136.177 15.5497 134.687 15.1797 133.247C16.1697 144.197 17.3097 157.737 17.0197 158.877C16.7297 160.027 16.7097 161.137 16.9597 162.247L18.1797 161.807C18.0197 160.957 18.0397 160.087 18.2497 159.237C18.5297 158.077 19.0997 157.127 19.9597 156.407C21.0197 155.517 22.1597 155.067 23.3497 155.067H23.3597ZM69.6397 132.937C69.6397 132.937 69.6597 132.937 69.6697 132.947L70.1197 133.097L70.2597 133.577C70.2597 133.577 70.2797 133.667 70.2897 133.707L77.3397 127.767C77.2497 127.647 77.1597 127.527 77.0797 127.417C75.2597 128.717 72.6397 130.667 69.6397 132.947V132.937Z" fill="currentColor"/>
<path d="M46.179 163.94C46.099 163.94 46.029 163.94 45.949 163.93C45.229 163.87 44.589 163.52 44.089 162.93C43.6356 162.39 46.599 159.34 52.979 153.78C58.249 149.18 65.089 143.29 71.699 137.58C80.639 129.87 89.879 121.9 91.189 120.63C91.319 120.05 91.639 119.54 92.149 119.11C92.749 118.61 93.419 118.38 94.109 118.44L94.689 118.49L94.869 119.05C95.009 119.483 93.0423 121.473 88.969 125.02C85.509 128.03 80.789 132.11 75.779 136.42C66.339 144.57 53.959 155.25 49.739 159.09C55.219 158.71 70.399 157.2 80.939 156.1L113.499 152.69L81.169 157.84C68.619 159.84 49.669 162.92 47.809 163.39C47.319 163.76 46.759 163.95 46.179 163.95V163.94ZM46.139 162.19C46.289 162.19 46.529 162.17 46.819 161.93C46.959 161.82 47.129 161.67 53.669 160.54C49.979 160.84 48.369 160.89 47.619 160.84C46.999 161.39 46.499 161.85 46.139 162.19ZM39.629 155.54C39.469 155.54 39.359 155.47 39.239 155.4L38.719 155.06L38.859 154.42C39.259 152.79 39.269 151.91 39.209 151.47C39.179 151.22 39.159 150.81 39.129 150.11C39.089 149.16 39.009 146.93 38.789 146.48C38.289 145.9 37.649 145.57 36.879 145.55C36.039 145.53 35.299 145.83 34.529 146.48C33.959 146.96 33.589 147.58 33.399 148.38C33.199 149.21 33.239 150.01 33.509 150.83L33.779 151.64L29.309 153.26L29.009 152.43C28.399 150.73 28.319 148.97 28.769 147.19C29.219 145.41 30.129 143.94 31.459 142.82C32.639 141.83 33.909 141.17 35.229 140.87C36.579 140.57 37.909 140.64 39.169 141.09C40.429 141.54 41.549 142.34 42.499 143.47C43.179 144.27 43.409 146.21 43.659 148.86C43.669 149 43.689 149.13 43.699 149.26C47.009 146.87 57.729 137.86 66.549 130.45C90.189 110.59 90.319 110.68 91.189 111.21L91.729 111.54L91.599 112.21C91.329 113.27 91.369 113.85 91.449 114.16C91.529 114.48 91.809 115.06 92.659 116.04L93.239 116.71L89.599 119.83L89.029 119.17C88.899 119.02 88.689 118.77 88.539 118.47C84.609 121.2 73.049 130.24 63.489 137.72C43.549 153.31 40.579 155.57 39.629 155.57V155.54ZM36.789 143.8C36.789 143.8 36.879 143.8 36.929 143.8C38.219 143.84 39.309 144.38 40.169 145.42C40.649 146 40.779 147.26 40.879 150.06C40.899 150.56 40.919 151.07 40.939 151.24C40.999 151.7 40.999 152.25 40.929 152.88C41.429 152.52 42.049 152.06 42.759 151.53C42.739 151.53 42.719 151.51 42.689 151.51L42.209 151.34L42.099 150.82C42.029 150.42 41.969 149.78 41.899 149.04C41.789 147.86 41.519 145.09 41.139 144.61C40.389 143.72 39.529 143.1 38.569 142.76C37.609 142.42 36.639 142.36 35.599 142.6C34.549 142.84 33.529 143.37 32.569 144.18C31.509 145.07 30.819 146.2 30.449 147.64C30.159 148.79 30.139 149.9 30.389 151.01L31.609 150.57C31.449 149.72 31.469 148.85 31.679 148C31.959 146.84 32.529 145.89 33.389 145.17C34.449 144.28 35.589 143.83 36.789 143.83V143.8ZM89.629 113.67C86.059 116.35 76.369 124.48 67.669 131.8C65.009 134.03 62.649 136.02 60.539 137.78C61.169 137.29 61.789 136.8 62.409 136.32C88.849 115.64 89.069 115.71 89.889 115.99L90.339 116.14L90.479 116.62C90.479 116.62 90.499 116.7 90.509 116.73L90.769 116.5C90.229 115.79 89.889 115.17 89.749 114.6C89.669 114.32 89.629 114.01 89.629 113.67Z" fill="currentColor"/>
<path d="M57.4505 154.488C57.3705 154.488 57.2905 154.488 57.2105 154.478C56.4905 154.418 55.8505 154.068 55.3505 153.478C54.8971 152.938 57.8638 149.885 64.2505 144.318C69.5305 139.718 76.3705 133.818 82.9805 128.108C91.9105 120.398 101.14 112.448 102.45 111.168C102.58 110.588 102.9 110.068 103.41 109.648C104.01 109.148 104.67 108.918 105.37 108.978L105.95 109.028L106.13 109.588C106.27 110.021 104.304 112.011 100.23 115.558C96.7705 118.568 92.0505 122.648 87.0405 126.958C76.5605 136.008 62.4605 148.168 59.9205 150.638C60.1205 151.058 60.2105 151.498 60.1805 151.968C60.1305 152.688 59.7905 153.318 59.2105 153.808C58.6705 154.258 58.0805 154.488 57.4505 154.488ZM57.4005 152.738C57.5605 152.748 57.8005 152.718 58.0905 152.478C58.3105 152.288 58.4205 152.098 58.4405 151.858C58.4405 151.838 58.4405 151.818 58.4405 151.798C58.0205 152.178 57.6805 152.488 57.4105 152.748L57.4005 152.738ZM34.9805 140.378L44.1305 132.718L144.62 73.5781L113.41 99.7381L34.9805 140.378ZM127.36 85.7681L59.6105 125.638L112.51 98.2281L127.35 85.7681H127.36Z" fill="currentColor"/>
<path d="M113.571 237.081C113.391 237.081 113.211 237.061 113.031 237.031C112.281 236.901 111.681 236.511 111.271 235.921C110.871 235.331 110.731 234.641 110.871 233.871C111.011 233.101 111.371 232.501 111.941 232.101C112.521 231.701 113.201 231.561 113.971 231.701C114.631 231.821 115.171 232.101 115.571 232.551C117.271 232.931 128.181 234.151 134.941 234.851L152.691 236.701L134.851 236.601C127.821 236.561 116.431 236.561 114.931 236.721C114.521 236.961 114.061 237.081 113.571 237.081ZM113.411 233.401C113.171 233.401 113.031 233.471 112.951 233.531C112.841 233.611 112.671 233.761 112.601 234.171C112.531 234.581 112.641 234.801 112.731 234.941C112.871 235.141 113.061 235.261 113.341 235.311C113.741 235.381 113.961 235.271 114.101 235.181C114.271 235.061 114.481 234.921 119.211 234.861C114.671 234.271 114.521 234.061 114.341 233.821C114.251 233.691 114.081 233.511 113.671 233.441C113.571 233.421 113.491 233.421 113.411 233.421V233.401Z" fill="currentColor"/>
<path d="M98.5005 221.871L97.7405 221.431C96.1805 220.521 94.9905 219.231 94.2005 217.591C93.3305 216.201 78.2805 201.171 68.3505 191.391L59.4805 182.651L69.4805 190.061C78.2705 196.581 92.5905 206.871 95.4205 208.161C96.2005 207.281 97.1405 206.631 98.2305 206.221C99.4805 205.751 100.86 205.651 102.31 205.901C103.34 206.081 104.77 207.421 106.66 209.291C106.78 209.401 106.89 209.521 107 209.621C108.15 205.801 111.18 192.041 113.66 180.741C117.16 164.821 118.9 157.131 119.9 153.381C119.65 153.191 119.5 152.901 119.5 152.591C119.5 152.001 119.95 151.661 120.39 151.321C120.43 151.291 120.49 151.251 120.54 151.201C121.01 149.851 121.26 149.811 121.62 149.771L122.23 149.691L122.56 150.271C122.96 151.111 122.51 151.781 122.02 152.251C122.01 152.301 121.99 152.351 121.98 152.401C122.27 152.481 122.64 152.561 123.09 152.631L123.97 152.771L121.63 166.221L120.77 166.081C120.57 166.051 120.23 165.991 119.92 165.841C118.76 169.981 116.13 182.041 113.95 192.031C108.51 216.981 108.44 216.991 107.47 217.121L106.86 217.201L106.55 216.621C105.81 215.111 105.26 214.441 104.92 214.131C104.74 213.961 104.46 213.661 103.99 213.141C103.35 212.431 101.85 210.781 101.39 210.581C100.63 210.451 99.9405 210.621 99.3305 211.101C98.6905 211.601 98.3005 212.331 98.1205 213.321C97.9905 214.051 98.1105 214.761 98.4805 215.501C98.8605 216.261 99.4005 216.851 100.13 217.311L100.85 217.761L98.4605 221.871H98.5005ZM95.7705 216.811C96.2905 217.881 96.9805 218.741 97.8905 219.431L98.5405 218.311C97.8705 217.761 97.3305 217.081 96.9405 216.291C96.4105 215.221 96.2305 214.121 96.4305 213.031C96.6805 211.621 97.3005 210.511 98.2805 209.731C99.2905 208.931 100.47 208.651 101.8 208.881C102.54 209.011 103.45 209.901 105.32 211.971C105.65 212.341 106 212.721 106.13 212.841C106.48 213.161 106.84 213.591 107.2 214.141C107.36 213.531 107.55 212.771 107.76 211.881C107.72 211.901 107.67 211.911 107.63 211.931L107.16 212.091L106.75 211.771C106.44 211.511 105.98 211.061 105.45 210.541C104.6 209.711 102.62 207.761 102.02 207.631C100.88 207.431 99.8105 207.511 98.8605 207.861C97.9005 208.221 97.1205 208.801 96.4805 209.641C95.8305 210.491 95.5105 210.931 81.5905 201.011C80.3405 200.121 79.0905 199.231 77.8905 198.361C85.6805 206.111 95.2705 215.761 95.7705 216.811ZM119.87 162.931L120.29 163.211C120.29 163.211 120.36 163.261 120.39 163.291L121.97 154.211C121.82 154.181 121.68 154.141 121.55 154.101C120.99 156.261 120.24 159.441 119.4 163.111C119.41 163.111 119.42 163.111 119.43 163.101L119.87 162.931ZM116.62 219.831C116.44 219.831 116.26 219.811 116.07 219.781C115.377 219.661 115.687 215.418 117 207.051C118.08 200.141 119.53 191.221 120.93 182.611C122.82 170.961 124.77 158.921 124.96 157.101C124.68 156.571 124.6 155.971 124.72 155.311C124.86 154.541 125.22 153.941 125.79 153.541L126.27 153.211L126.77 153.521C127.157 153.761 126.927 156.551 126.08 161.891C125.36 166.431 124.36 172.581 123.31 179.111C121.1 192.781 118.12 211.151 117.76 214.671C118.18 214.861 118.54 215.151 118.81 215.531C119.23 216.111 119.38 216.821 119.25 217.561C119.12 218.321 118.73 218.941 118.14 219.361C117.69 219.681 117.18 219.841 116.63 219.841L116.62 219.831ZM117.34 216.511C117.26 217.061 117.2 217.531 117.16 217.901C117.29 217.801 117.45 217.631 117.52 217.261C117.57 216.981 117.52 216.761 117.38 216.561C117.37 216.541 117.36 216.531 117.34 216.511Z" fill="currentColor"/>
<path d="M101.54 204.621L100.78 204.181C99.2201 203.271 98.0301 201.971 97.2301 200.321C96.4301 198.661 96.1801 196.961 96.4801 195.251C96.7501 193.731 97.3001 192.411 98.1201 191.331C98.9601 190.231 100.02 189.431 101.28 188.961C102.53 188.491 103.91 188.381 105.36 188.641C106.39 188.821 107.82 190.161 109.72 192.031C109.82 192.131 109.91 192.221 110 192.311C111 188.351 113.42 174.561 115.41 163.221C120.75 132.821 120.91 132.791 121.92 132.641L122.54 132.551L122.87 133.141C123.34 134.121 123.75 134.541 124.01 134.721C124.28 134.911 124.87 135.181 126.14 135.381L127.01 135.521L126.23 140.241L125.37 140.101C125.18 140.071 124.85 140.021 124.55 139.871C123.29 144.491 120.25 158.851 117.73 170.711C111.58 199.721 111.5 199.731 110.54 199.861L109.92 199.941L109.61 199.371C108.87 197.861 108.32 197.191 107.98 196.881C107.8 196.711 107.52 196.411 107.05 195.891C106.41 195.181 104.91 193.531 104.45 193.331C103.69 193.201 103 193.361 102.39 193.841C101.75 194.341 101.36 195.071 101.18 196.061C101.05 196.791 101.17 197.501 101.53 198.241C101.91 199.001 102.45 199.591 103.18 200.051L103.9 200.501L101.51 204.611L101.54 204.621ZM98.8101 199.561C99.3301 200.631 100.02 201.501 100.93 202.181L101.58 201.061C100.91 200.511 100.37 199.831 99.9801 199.041C99.4501 197.971 99.2701 196.871 99.4701 195.781C99.7201 194.371 100.34 193.261 101.32 192.481C102.33 191.681 103.52 191.401 104.84 191.631C105.58 191.761 106.49 192.651 108.36 194.721C108.69 195.091 109.04 195.471 109.17 195.591C109.52 195.901 109.86 196.321 110.21 196.861C110.36 196.261 110.54 195.511 110.75 194.651C110.73 194.651 110.71 194.671 110.68 194.671L110.21 194.841L109.79 194.511C109.48 194.251 109.02 193.801 108.49 193.281C107.64 192.451 105.66 190.491 105.06 190.371C103.92 190.171 102.85 190.251 101.9 190.601C100.94 190.961 100.16 191.541 99.5201 192.381C98.8701 193.231 98.4301 194.301 98.2101 195.541C97.9701 196.901 98.1701 198.211 98.8101 199.551V199.561ZM122.32 135.521C121.3 139.861 119.11 152.321 117.15 163.521C116.55 166.941 116.01 169.981 115.53 172.681C115.7 171.901 115.86 171.121 116.02 170.361C122.98 137.521 123.2 137.431 124 137.121L124.44 136.951L124.85 137.231C124.85 137.231 124.91 137.281 124.94 137.301L125 136.961C124.13 136.761 123.47 136.501 123 136.161C122.76 135.991 122.53 135.781 122.31 135.531L122.32 135.521ZM119.66 202.571C119.48 202.571 119.3 202.551 119.11 202.521C118.417 202.401 118.727 198.161 120.04 189.801C121.12 182.891 122.57 173.981 123.97 165.361C125.86 153.701 127.82 141.661 128 139.841C127.72 139.311 127.64 138.711 127.76 138.051C127.9 137.281 128.26 136.681 128.83 136.281L129.31 135.951L129.81 136.261C130.197 136.501 129.967 139.291 129.12 144.631C128.4 149.171 127.4 155.321 126.35 161.851C124.36 174.161 121.74 190.291 120.98 195.941C124.93 192.131 135.59 181.211 142.95 173.591L165.7 150.051L144.24 174.771C135.91 184.371 123.37 198.911 122.25 200.461C122.09 201.141 121.72 201.701 121.18 202.081C120.73 202.401 120.22 202.551 119.67 202.551L119.66 202.571ZM120.46 198.651C120.34 199.471 120.25 200.141 120.19 200.641C120.32 200.541 120.48 200.371 120.55 200.001C120.58 199.831 120.62 199.601 124.9 194.541C122.27 197.141 121.07 198.221 120.46 198.651Z" fill="currentColor"/>
<path d="M97.6406 191.101L99.7206 179.351L138.691 69.4609L131.601 109.551L97.6406 191.101ZM133.311 89.8809L107.041 163.961L129.941 108.961L133.311 89.8809ZM122.211 188.081C122.031 188.081 121.851 188.061 121.671 188.031C120.977 187.911 121.287 183.664 122.601 175.291C123.691 168.371 125.131 159.461 126.531 150.831C128.421 139.191 130.371 127.161 130.561 125.341C130.281 124.811 130.201 124.211 130.321 123.551C130.451 122.781 130.811 122.181 131.391 121.781L131.871 121.441L132.371 121.751C132.757 121.991 132.527 124.781 131.681 130.121C130.961 134.651 129.971 140.811 128.911 147.331C126.691 161.001 123.721 179.381 123.361 182.901C123.781 183.091 124.141 183.381 124.411 183.761C124.831 184.341 124.981 185.041 124.851 185.791C124.711 186.551 124.331 187.171 123.741 187.591C123.291 187.901 122.771 188.061 122.211 188.061V188.081ZM122.941 184.761C122.861 185.311 122.801 185.781 122.761 186.151C122.891 186.051 123.051 185.881 123.121 185.511C123.171 185.231 123.121 185.011 122.981 184.811C122.971 184.791 122.961 184.781 122.941 184.761Z" fill="currentColor"/>
<path d="M218.191 215.362C217.961 215.362 217.721 215.332 217.491 215.262C216.801 215.062 216.251 214.622 215.861 213.952C215.471 213.272 215.361 212.582 215.541 211.912C215.721 211.232 216.161 210.692 216.841 210.302C217.421 209.962 218.011 209.842 218.611 209.922C220.161 209.122 229.301 203.042 234.931 199.232L249.711 189.242L235.981 200.632C230.561 205.122 221.841 212.442 220.801 213.532C220.591 214.142 220.161 214.642 219.551 214.992C219.111 215.242 218.651 215.372 218.191 215.372V215.362ZM218.271 211.642C218.131 211.642 217.951 211.682 217.721 211.812C217.361 212.022 217.271 212.222 217.241 212.362C217.201 212.492 217.181 212.722 217.381 213.072C217.591 213.432 217.821 213.532 217.971 213.572C218.211 213.642 218.421 213.602 218.671 213.462C219.031 213.252 219.121 213.032 219.161 212.872C219.211 212.672 219.281 212.432 222.871 209.342C219.011 211.802 218.761 211.742 218.471 211.672C218.411 211.662 218.341 211.642 218.261 211.642H218.271Z" fill="currentColor"/>
<path d="M196.29 212.991C195.04 212.991 193.82 212.721 192.64 212.191C191.08 211.691 169.89 209.851 156 208.731L143.59 207.731L156.02 206.981C166.95 206.321 184.53 205.011 187.52 204.171C187.55 203.001 187.85 201.891 188.43 200.871C189.09 199.711 190.07 198.741 191.35 198.001C192.26 197.471 194.21 197.581 196.87 197.801C197.03 197.811 197.19 197.831 197.34 197.841C195.77 194.171 189.24 181.691 183.88 171.431C176.33 156.991 172.72 149.981 171.08 146.461C170.76 146.471 170.47 146.351 170.27 146.111C169.88 145.661 170.01 145.111 170.14 144.571C170.15 144.521 170.17 144.451 170.18 144.381C169.67 143.041 169.84 142.851 170.09 142.591L170.51 142.141L171.13 142.371C171.98 142.751 172.06 143.561 171.99 144.231C172.01 144.281 172.03 144.331 172.06 144.381C172.34 144.251 172.67 144.081 173.06 143.841L173.82 143.381L180.68 155.191L179.94 155.631C179.77 155.731 179.47 155.911 179.14 155.991C180.91 159.911 186.65 170.841 191.4 179.891C203.28 202.501 203.22 202.561 202.56 203.271L202.14 203.721L201.53 203.481C199.99 202.801 199.13 202.641 198.68 202.621C198.43 202.621 198.03 202.561 197.33 202.461C196.39 202.331 194.18 202.031 193.69 202.171C193.03 202.561 192.6 203.131 192.44 203.891C192.28 204.691 192.44 205.501 192.94 206.371C193.31 207.011 193.86 207.481 194.61 207.811C195.39 208.151 196.18 208.251 197.04 208.131L197.88 208.011L198.69 212.701L197.82 212.851C197.31 212.941 196.8 212.981 196.3 212.981L196.29 212.991ZM193.34 210.591C194.43 211.081 195.52 211.291 196.65 211.231L196.43 209.951C195.57 209.971 194.72 209.791 193.91 209.441C192.81 208.961 191.98 208.231 191.42 207.271C190.7 206.031 190.47 204.781 190.72 203.561C190.98 202.301 191.71 201.321 192.87 200.651C193.52 200.271 194.79 200.371 197.56 200.751C198.05 200.821 198.56 200.891 198.74 200.891C199.22 200.911 199.76 201.011 200.39 201.201C200.12 200.631 199.78 199.921 199.37 199.111C199.35 199.151 199.33 199.191 199.3 199.231L199.05 199.651L198.53 199.671C198.13 199.671 197.48 199.621 196.74 199.561C195.56 199.461 192.78 199.251 192.24 199.531C191.24 200.111 190.47 200.851 189.97 201.741C189.47 202.631 189.25 203.581 189.3 204.641C189.35 205.711 189.38 206.251 172.35 207.601C170.82 207.721 169.29 207.841 167.81 207.951C178.76 208.881 192.3 210.111 193.37 210.591H193.34ZM172.77 145.981C173.73 148.001 175.2 150.921 176.92 154.261C176.92 154.261 176.93 154.241 176.94 154.231L177.17 153.821L177.67 153.761C177.67 153.761 177.76 153.761 177.8 153.761L173.17 145.791C173.04 145.861 172.91 145.921 172.78 145.981H172.77ZM210.35 199.991C209.67 199.991 208.7 198.381 203.33 189.461C199.72 183.461 195.09 175.701 190.63 168.201C184.59 158.061 178.36 147.591 177.33 146.081C176.78 145.851 176.33 145.441 176 144.871C175.61 144.191 175.5 143.501 175.68 142.831L175.83 142.271L176.41 142.191C176.863 142.124 178.48 144.407 181.26 149.041C183.63 152.981 186.82 158.331 190.2 164.011C197.29 175.901 206.82 191.891 208.81 194.821C209.26 194.691 209.71 194.691 210.16 194.801C210.86 194.981 211.43 195.421 211.81 196.071C212.2 196.741 212.3 197.461 212.12 198.161C211.93 198.861 211.48 199.431 210.81 199.811C210.64 199.911 210.51 199.981 210.36 199.981L210.35 199.991ZM209.67 196.491C209.97 196.961 210.22 197.361 210.42 197.671C210.46 197.511 210.47 197.281 210.28 196.951C210.14 196.701 209.96 196.561 209.73 196.501C209.71 196.501 209.69 196.501 209.67 196.491Z" fill="currentColor"/>
<path d="M187.531 197.811C186.281 197.811 185.051 197.541 183.861 197.001C182.191 196.241 180.891 195.101 180.031 193.591C179.261 192.251 178.831 190.891 178.771 189.541C178.701 188.161 179.011 186.861 179.671 185.691C180.331 184.531 181.311 183.561 182.591 182.821C183.501 182.291 185.451 182.401 188.111 182.621C188.251 182.631 188.381 182.641 188.511 182.651C186.731 178.981 179.721 166.851 173.951 156.881C158.501 130.161 158.611 130.041 159.281 129.271L159.701 128.801L160.331 129.041C161.321 129.491 161.901 129.551 162.221 129.521C162.551 129.491 163.171 129.321 164.281 128.661L165.041 128.201L167.481 132.321L166.731 132.771C166.561 132.871 166.281 133.041 165.951 133.131C167.951 137.471 174.851 150.431 180.551 161.141C194.491 187.321 194.431 187.381 193.781 188.091L193.361 188.551L192.761 188.311C191.221 187.631 190.361 187.471 189.911 187.451C189.661 187.451 189.261 187.391 188.561 187.291C187.621 187.161 185.401 186.861 184.921 187.001C184.261 187.391 183.831 187.961 183.671 188.721C183.501 189.521 183.671 190.331 184.171 191.201C184.541 191.841 185.091 192.311 185.841 192.641C186.621 192.981 187.411 193.081 188.271 192.961L189.111 192.841L189.931 197.531L189.061 197.681C188.551 197.771 188.041 197.811 187.531 197.811ZM184.581 195.411C185.661 195.901 186.741 196.111 187.891 196.051L187.671 194.771C186.821 194.791 185.961 194.611 185.151 194.261C184.051 193.781 183.221 193.051 182.661 192.091C181.941 190.851 181.711 189.601 181.961 188.381C182.221 187.121 182.941 186.141 184.111 185.471C184.761 185.091 186.031 185.191 188.801 185.571C189.291 185.641 189.801 185.711 189.981 185.711C190.451 185.731 190.981 185.831 191.591 186.011C191.321 185.451 190.981 184.761 190.581 183.971C190.571 183.991 190.561 184.011 190.541 184.031L190.291 184.471L189.761 184.491C189.351 184.491 188.711 184.441 187.971 184.381C186.791 184.291 184.011 184.061 183.471 184.351C182.471 184.931 181.701 185.671 181.201 186.561C180.691 187.451 180.471 188.401 180.531 189.461C180.581 190.531 180.931 191.631 181.561 192.721C182.251 193.921 183.241 194.801 184.601 195.411H184.581ZM161.431 131.241C163.441 135.221 169.781 146.171 175.461 156.011C177.201 159.021 178.741 161.691 180.111 164.071C179.731 163.371 179.361 162.661 178.991 161.971C163.211 132.341 163.331 132.131 163.741 131.371L163.971 130.961L164.461 130.911C164.461 130.911 164.541 130.911 164.581 130.911L164.401 130.611C163.611 131.021 162.931 131.241 162.361 131.291C162.071 131.321 161.761 131.301 161.431 131.251V131.241ZM201.591 184.811C200.911 184.811 199.941 183.201 194.571 174.291C190.961 168.301 186.341 160.541 181.871 153.041C175.831 142.901 169.591 132.421 168.561 130.911C168.011 130.681 167.561 130.271 167.231 129.701C166.841 129.021 166.731 128.331 166.911 127.661L167.061 127.101L167.641 127.021C168.094 126.961 169.711 129.245 172.491 133.871C174.861 137.811 178.05 143.161 181.431 148.841C187.82 159.551 196.181 173.591 199.231 178.411C199.811 172.951 200.961 157.731 201.701 147.171L204.001 114.531L203.451 147.251C203.241 159.961 202.981 179.151 203.121 181.071C203.441 181.691 203.511 182.361 203.341 183.001C203.151 183.701 202.701 184.271 202.031 184.651C201.871 184.751 201.731 184.821 201.581 184.821L201.591 184.811ZM200.591 180.801C201.031 181.501 201.391 182.081 201.671 182.501C201.711 182.341 201.721 182.111 201.531 181.781C201.441 181.631 201.331 181.431 201.361 174.801C201.021 178.481 200.791 180.081 200.601 180.811L200.591 180.801Z" fill="currentColor"/>
<path d="M178.24 189.691L172.28 179.351L131.49 70.1211L151.83 105.391L178.23 189.691H178.24ZM140.5 89.2311L168 162.871L150.19 106.011L140.5 89.2311ZM194.23 172.081C193.55 172.081 192.58 170.471 187.2 161.551C183.58 155.551 178.96 147.791 174.49 140.281C168.46 130.151 162.22 119.691 161.2 118.171C160.65 117.941 160.2 117.531 159.87 116.961C159.48 116.281 159.37 115.591 159.55 114.921L159.7 114.361L160.28 114.281C160.734 114.214 162.35 116.501 165.13 121.141C167.5 125.081 170.69 130.441 174.08 136.121C181.16 148.011 190.69 163.991 192.68 166.921C193.13 166.791 193.58 166.791 194.04 166.901C194.74 167.081 195.31 167.521 195.68 168.171C196.07 168.841 196.17 169.561 195.99 170.261C195.8 170.951 195.35 171.531 194.68 171.911C194.52 172.011 194.38 172.081 194.23 172.081ZM193.55 168.581C193.85 169.051 194.1 169.451 194.3 169.761C194.34 169.601 194.35 169.371 194.16 169.041C194.02 168.791 193.84 168.651 193.61 168.591C193.59 168.591 193.57 168.591 193.55 168.581Z" fill="currentColor"/>
<path d="M284.51 131.39C284.18 131.39 283.83 131.33 283.48 131.2C282.74 130.93 282.22 130.48 281.92 129.84C281.62 129.2 281.61 128.51 281.88 127.77C282.11 127.14 282.48 126.66 282.99 126.34C283.66 124.73 286.75 114.2 288.62 107.66L293.52 90.5L290.32 108.06C289.06 114.98 287.08 126.19 286.98 127.7C287.21 128.3 287.2 128.97 286.96 129.63C286.7 130.34 286.22 130.87 285.56 131.17C285.22 131.32 284.86 131.4 284.49 131.4L284.51 131.39ZM285.89 123.16C284.52 127.53 284.29 127.64 284.02 127.77C283.88 127.84 283.67 127.98 283.53 128.37C283.39 128.76 283.45 128.97 283.51 129.1C283.57 129.23 283.69 129.41 284.08 129.55C284.47 129.69 284.71 129.62 284.86 129.55C285.08 129.45 285.23 129.28 285.33 129.01C285.47 128.63 285.4 128.39 285.33 128.24C285.24 128.05 285.14 127.83 285.9 123.15L285.89 123.16Z" fill="currentColor"/>
<path d="M224.12 172.9L233.16 164.33C241.1 156.8 253.73 144.49 255.49 141.93C254.76 141.01 254.28 139.97 254.07 138.82C253.83 137.5 253.96 136.13 254.47 134.75C254.83 133.76 256.39 132.59 258.56 131.05C258.69 130.96 258.82 130.86 258.94 130.78C255.38 128.98 242.35 123.61 231.65 119.2C216.58 112.99 209.31 109.94 205.79 108.3C205.55 108.51 205.25 108.61 204.94 108.56C204.36 108.47 204.1 107.96 203.85 107.46C203.82 107.41 203.79 107.35 203.76 107.29C202.51 106.59 202.52 106.34 202.54 105.98L202.57 105.36L203.2 105.14C204.1 104.89 204.68 105.45 205.05 106.02C205.1 106.04 205.14 106.07 205.19 106.09C205.32 105.81 205.46 105.47 205.61 105.04L205.9 104.2L218.74 108.84L218.45 109.66C218.38 109.85 218.27 110.18 218.07 110.46C221.95 112.33 233.37 117.01 242.83 120.89C266.46 130.58 266.45 130.65 266.41 131.62L266.38 132.24L265.76 132.44C264.15 132.91 263.39 133.34 263.03 133.61C262.83 133.76 262.49 133.98 261.89 134.35C261.08 134.86 259.19 136.05 258.92 136.47C258.66 137.19 258.7 137.91 259.07 138.59C259.46 139.31 260.1 139.82 261.05 140.17C261.75 140.42 262.47 140.43 263.25 140.2C264.07 139.96 264.74 139.53 265.32 138.89L265.89 138.26L269.53 141.33L268.96 142C267.79 143.37 266.32 144.32 264.57 144.82C263.05 145.44 245.64 157.65 234.28 165.72L224.13 172.93L224.12 172.9ZM261.29 130.44C261.29 130.44 261.31 130.53 261.32 130.58L261.4 131.07L261.01 131.42C260.7 131.68 260.18 132.05 259.57 132.49C258.6 133.18 256.34 134.79 256.11 135.36C255.71 136.45 255.61 137.51 255.79 138.52C255.97 139.53 256.42 140.39 257.14 141.17C257.87 141.96 258.23 142.35 246.06 154.34C244.97 155.42 243.87 156.49 242.8 157.52C251.79 151.19 262.95 143.43 264.07 143.11C265.21 142.79 266.19 142.25 267.01 141.48L266.02 140.64C265.36 141.21 264.6 141.62 263.76 141.87C262.62 142.21 261.5 142.19 260.46 141.81C259.11 141.32 258.13 140.51 257.54 139.42C256.93 138.29 256.86 137.07 257.32 135.8C257.58 135.09 258.61 134.36 260.98 132.87C261.4 132.61 261.84 132.33 261.97 132.23C262.35 131.94 262.83 131.66 263.43 131.41C262.86 131.14 262.14 130.83 261.3 130.46L261.29 130.44ZM206.78 106.83C208.81 107.76 211.82 109.05 215.28 110.51C215.28 110.51 215.28 110.49 215.28 110.48L215.19 110.02L215.53 109.66C215.53 109.66 215.6 109.6 215.63 109.57L206.96 106.44C206.9 106.58 206.84 106.71 206.78 106.84V106.83ZM269.83 124.18C268.85 124.18 266.2 123.27 258.13 120.51C251.51 118.24 242.98 115.27 234.74 112.39C223.6 108.5 212.09 104.49 210.33 103.99C209.76 104.17 209.16 104.15 208.53 103.92C207.79 103.65 207.27 103.19 206.97 102.56L206.72 102.03L207.11 101.59C207.416 101.25 210.123 101.96 215.23 103.72C219.57 105.21 225.46 107.26 231.7 109.44C244.78 114 262.37 120.12 265.77 121.09C266.03 120.7 266.37 120.41 266.79 120.2C267.44 119.89 268.15 119.86 268.87 120.12C269.6 120.38 270.14 120.87 270.45 121.52C270.75 122.17 270.77 122.9 270.51 123.63C270.39 123.96 270.31 124.17 269.83 124.17V124.18ZM267.51 121.81C268.04 121.98 268.49 122.12 268.85 122.23C268.78 122.09 268.63 121.9 268.28 121.77C268.01 121.67 267.79 121.67 267.57 121.78C267.55 121.78 267.53 121.8 267.52 121.81H267.51Z" fill="currentColor"/>
<path d="M245.691 139.128C244.751 139.128 243.841 138.968 242.951 138.638C241.501 138.108 240.301 137.338 239.381 136.348C238.441 135.328 237.841 134.148 237.601 132.818C237.361 131.508 237.491 130.138 238.001 128.748C238.361 127.758 239.921 126.588 242.091 125.048C242.201 124.968 242.311 124.888 242.421 124.818C238.701 123.148 225.541 118.368 214.711 114.438C185.691 103.898 185.691 103.738 185.721 102.718L185.741 102.088L186.381 101.868C187.431 101.578 187.911 101.248 188.141 101.018C188.371 100.788 188.741 100.258 189.161 99.0284L189.451 98.1984L193.971 99.7884L193.681 100.618C193.611 100.808 193.511 101.118 193.321 101.388C197.651 103.428 211.271 108.918 222.511 113.458C250.011 124.548 250.011 124.628 249.961 125.598L249.931 126.218L249.311 126.418C247.701 126.888 246.931 127.318 246.581 127.588C246.381 127.738 246.041 127.958 245.441 128.328C244.631 128.838 242.741 130.018 242.471 130.438C242.211 131.158 242.251 131.878 242.621 132.558C243.011 133.278 243.651 133.788 244.601 134.138C245.301 134.388 246.021 134.398 246.801 134.168C247.621 133.928 248.291 133.498 248.871 132.858L249.441 132.228L253.081 135.298L252.511 135.968C251.341 137.348 249.861 138.298 248.101 138.788C247.291 139.018 246.501 139.128 245.711 139.128H245.691ZM244.841 124.488C244.841 124.488 244.841 124.538 244.851 124.558L244.941 125.058L244.541 125.418C244.231 125.678 243.701 126.058 243.101 126.488C242.131 127.178 239.871 128.788 239.641 129.358C239.241 130.468 239.131 131.498 239.321 132.518C239.501 133.528 239.951 134.388 240.671 135.168C241.401 135.958 242.371 136.578 243.551 137.008C244.851 137.478 246.171 137.518 247.601 137.118C248.751 136.798 249.721 136.258 250.551 135.488L249.561 134.648C248.901 135.218 248.141 135.628 247.301 135.878C246.161 136.218 245.041 136.198 244.001 135.818C242.651 135.328 241.671 134.518 241.081 133.428C240.471 132.298 240.401 131.078 240.861 129.808C241.121 129.098 242.151 128.368 244.521 126.878C244.941 126.618 245.381 126.338 245.511 126.238C245.881 125.948 246.351 125.688 246.941 125.428C246.371 125.168 245.671 124.868 244.861 124.518L244.841 124.488ZM188.621 102.828C192.721 104.588 204.621 108.908 215.301 112.788C218.561 113.968 221.461 115.028 224.041 115.968C223.301 115.668 222.571 115.368 221.841 115.078C190.701 102.518 190.661 102.288 190.491 101.438L190.401 100.978L190.751 100.618C190.751 100.618 190.811 100.568 190.831 100.538L190.501 100.428C190.151 101.248 189.781 101.858 189.371 102.258C189.161 102.468 188.911 102.658 188.631 102.828H188.621ZM253.371 118.178C252.391 118.178 249.741 117.268 241.671 114.508C235.051 112.238 226.521 109.268 218.281 106.388C207.141 102.498 195.631 98.4884 193.871 97.9884C193.301 98.1684 192.701 98.1484 192.071 97.9184C191.331 97.6484 190.811 97.1884 190.511 96.5584L190.261 96.0284L190.651 95.5884C190.957 95.2484 193.664 95.9584 198.771 97.7184C203.111 99.2084 209.001 101.268 215.251 103.438C227.031 107.538 242.461 112.918 247.901 114.648C244.841 110.098 235.931 97.6984 229.711 89.1284L210.491 62.6484L231.101 88.0584C239.111 97.9284 251.251 112.798 252.591 114.178C253.231 114.448 253.721 114.908 254.001 115.508C254.301 116.158 254.331 116.888 254.061 117.618C253.941 117.948 253.861 118.158 253.381 118.158L253.371 118.178ZM250.471 115.628C251.261 115.888 251.911 116.088 252.381 116.238C252.311 116.098 252.171 115.908 251.811 115.778C251.641 115.718 251.431 115.638 247.191 110.538C249.291 113.578 250.151 114.948 250.471 115.628Z" fill="currentColor"/>
<path d="M239.07 136.8L227.86 132.71L126.4 75.25L164.65 89.2L239.06 136.81L239.07 136.8ZM145.58 84.1L213.97 122.83L163.78 90.72L145.57 84.09L145.58 84.1ZM239.54 113.15C238.56 113.15 235.91 112.24 227.84 109.48C221.22 107.21 212.69 104.24 204.45 101.36C193.31 97.47 181.8 93.46 180.04 92.96C179.47 93.14 178.87 93.12 178.24 92.89C177.5 92.62 176.98 92.16 176.68 91.53L176.43 91L176.82 90.56C177.127 90.22 179.834 90.93 184.94 92.69C189.28 94.18 195.17 96.23 201.41 98.41C214.49 102.97 232.07 109.09 235.48 110.06C235.74 109.68 236.09 109.38 236.51 109.17C237.15 108.86 237.87 108.83 238.59 109.09C239.32 109.36 239.86 109.84 240.17 110.49C240.47 111.14 240.5 111.87 240.23 112.6C240.11 112.93 240.03 113.14 239.55 113.14L239.54 113.15ZM237.22 110.78C237.75 110.95 238.2 111.09 238.56 111.2C238.49 111.06 238.35 110.87 237.99 110.74C237.72 110.64 237.5 110.65 237.28 110.75C237.26 110.75 237.24 110.77 237.23 110.78H237.22Z" fill="currentColor"/>
</svg>
