<svg width="101" height="131" viewBox="0 0 101 131" fill="none" xmlns="http://www.w3.org/2000/svg">
<path d="M41.1396 76.5712C45.7196 70.5312 45.6796 61.3512 47.1296 54.1912C48.8396 45.7512 50.9096 36.8912 49.2596 28.2712C48.6796 25.2512 47.3896 22.8812 45.2396 21.4012C43.0996 19.4212 38.0996 16.4212 36.0996 21.4212C33.6596 29.5512 33.3296 70.0712 31.4496 78.5412C29.5096 92.4712 22.6496 105.341 20.5996 118.711C20.6896 118.931 20.7696 119.151 20.8596 119.371C23.3996 117.631 39.6996 78.4712 41.1396 76.5712Z" fill="currentColor"/>
<path d="M56.0494 56.0219C57.1094 65.4319 54.1094 74.4319 57.9694 81.9419C59.2494 83.5119 61.2894 84.2419 63.7894 85.0919C64.9494 85.2619 66.0294 85.3419 67.0694 85.5119C68.1094 85.6819 69.1094 85.9319 69.8294 85.9319C69.4994 84.7319 69.1094 83.0319 68.8794 81.3219C68.1994 76.2019 68.9494 71.0419 69.2194 65.8119C69.6194 57.8819 69.2194 49.9219 68.5294 42.0119C67.4594 29.7219 63.6394 17.5919 49.1094 16.4219C52.1094 22.8019 53.8394 29.3119 54.8294 35.9219C55.8094 42.5319 56.0494 49.2419 56.0494 56.0119V56.0219Z" fill="currentColor"/>
</svg>
